<svg xmlns="http://www.w3.org/2000/svg" viewBox="0 0 150 150"><defs><style>.a{fill:#b9e2cc;}.b{fill:#addbc1;}.c{fill:#99d1b1;}.d{fill:#65b686;}.e{fill:#5fb382;}.f{fill:#70bb90;}.g{fill:#8dcba8;}.h{fill:#cbe9d7;}.i{fill:#86c8a3;}.j{fill:#98d0b2;}.k{fill:#ebf5ef;}.l{fill:#d2ecdf;}.m{fill:#8ecaa9;}.n{fill:#4fa671;}.o{fill:#5cae7d;}.p{fill:#74bc92;}.q{fill:#a6d8bc;}.r{fill:#c0e2ce;}.s{fill:#52a775;}.t{fill:#a0d7b9;}.u{fill:#9cd6b6;}.v{fill:#3d965f;}.w{fill:#3a945c;}.x{fill:#a9dac0;}.y{fill:#72bc91;}.z{fill:#429c64;}.aa{fill:#3e9960;}.ab{fill:#4aa16c;}.ac{fill:#5dae7f;}.ad{fill:#bee3cf;}.ae{fill:#80c29d;}.af{fill:#53a775;}.ag{fill:#68b588;}.ah{fill:#96ceaf;}.ai{fill:#e3f4eb;}.aj{fill:#7cc19b;}.ak{fill:#f4faf7;}</style></defs><title>icon</title><path class="a" d="M135.8,91.38h0a14.29,14.29,0,0,1-2.58,2.07h0l-.37.14h0l.37-.14a14.29,14.29,0,0,0,2.58-2.07m1.26-1.55a2.44,2.44,0,0,1-.06.56l0,0h0l0,0a2.44,2.44,0,0,0,.06-.56h0m-3.4-3.09h0a6.11,6.11,0,0,1,1.44.38h0a6.44,6.44,0,0,0-1.42-.38h0m-.95-1.83V85h0v-.07h0m-5-2.44h0c4.68,1.2,5,2.18,5,2.44h0c0-.26-.34-1.24-5-2.44"/><path class="b" d="M93.54,52.79c-.08.12-.17.24-.27.37l.06,0a.48.48,0,0,0,.17.1v0a2.9,2.9,0,0,1,0-.48"/><path class="b" d="M104.26,72.42a1.56,1.56,0,0,0,.38,1.32,2.32,2.32,0,0,1-.38-1.32m1.14-6.65a2.18,2.18,0,0,1-.06.22,10,10,0,0,1-.43,3.81c0-.12.11-.24.17-.37h0a21.18,21.18,0,0,0,.37-3.06h0a3.37,3.37,0,0,0,0-.6M104,62.47c.53.51.88,1.22,1.53,1.61v0A4.63,4.63,0,0,0,104,62.47m-5.36-.08a2.89,2.89,0,0,0,1.11.37l.1,0a8.18,8.18,0,0,1-1.21-.32m2.79-.32a5.43,5.43,0,0,0-1.44.57,10.1,10.1,0,0,1,1.44-.57m-4.79-.93h0A12.8,12.8,0,0,0,92,62.43l2.72-.93a5.87,5.87,0,0,1,1.7-.32,1.86,1.86,0,0,1,1.36.53l0-.15h0c0-.06-.25-.41-1.19-.41M103.75,53a7.48,7.48,0,0,0-1.72.21c-2.33.42-4.65,1-6.25,1.18-.27,0-.53,0-.76,0a2,2,0,0,1-1.15-.27c-.42.75-1.33,1.83-1.77,2.48a1.69,1.69,0,0,0-.28.8c0,.52.49.68.53,1.2h0a6.62,6.62,0,0,1-1.3,1.64c-.35.33-.49.54-.49.67,0,.28.66.2,1.12.28h0c.29,0,.39.1.39.25a3.81,3.81,0,0,1-.55,1.12l.47-.16a12.8,12.8,0,0,1,4.63-1.29h0c.94,0,1.16.35,1.19.41h0l0,.15a4.69,4.69,0,0,0,.85.68,8.18,8.18,0,0,0,1.21.32l.14-.07a5.43,5.43,0,0,1,1.44-.57,4.23,4.23,0,0,1,1.11-.18,2,2,0,0,1,1.46.58A4.63,4.63,0,0,1,105.52,64h0v0l0,0a5.19,5.19,0,0,1-.14,1.67,3.37,3.37,0,0,1,0,.6h0a21.18,21.18,0,0,1-.37,3.06h0c-.06.13-.12.25-.17.37-.18.72-.39,1.48-.6,2.28,0,.12,0,.23,0,.34a2.32,2.32,0,0,0,.38,1.32c1,1.07,3.78.65,5.16,1.49.66.57-.46,2.17-2.19,4.1,6.34,1.88,12.66,4.3,13.37,6.58h0s0,.51,4,1.46c0,0,1.58.94,1.58,1.93,0,.63-.64,1.27-2.74,1.7,0,0-6.06,2.61-6.08,4.12a.55.55,0,0,0,.18.4h0s-2.87.75-2.88,1.45h0l.51.47h0c-.37-.15-.52-.31-.51-.47-.18-.16-.4-.36-.64-.6a5.17,5.17,0,0,1,.75,2.24c0,.64-.32,1.09-1.15,1.21a10.06,10.06,0,0,1-4.19,3.64,89.12,89.12,0,0,1,10.67-1.78c5-.53,12.73-.94,12.75-2.23a.28.28,0,0,0,0-.09c-.56-1.2-3-2.32-3.09-3.49V96c0,1.26,2,2.19,2,2.19s-2-.93-2-2.19h0c0,1.26,2,2.19,2,2.19s-2-.93-2-2.19h0v-.21a1.2,1.2,0,0,1,.54-.91,6.5,6.5,0,0,1,2.16-1.28,9.68,9.68,0,0,0,2.76-2.11l.19-.1a.48.48,0,0,0,.09-.24l0-.11,1.11-.62a1.8,1.8,0,0,1-.14-.76c0-.2,0-.41,0-.62s0-.25,0-.37a3.09,3.09,0,0,0-1.72-1.54,11.26,11.26,0,0,0-1.44-.38l-.16,0h0l-.11,0a2.34,2.34,0,0,1-.61-.79,1.35,1.35,0,0,1-.29-.65h0a.22.22,0,0,1,.09-.2c-.11-.57-.35-1.07-2.2-1.7l-2.68-.87-.76-.18.76.18h0l-.76-.18.76.18c-3.7-1.19-7.18-2.43-8.16-3.81a2.4,2.4,0,0,1-.63-1.5,2.09,2.09,0,0,1,.55-1.33c.18-.31,4.82-1.55,6.34-2,1-.28,1.39-.64,1.38-1,0-.68-1.25-1.44-2.57-2a28.42,28.42,0,0,1-8.9-4.55.54.54,0,0,1-.07-.27c0-.57.78-1.24.79-1.93a.71.71,0,0,0,0-.14c-1-1.91-4.55-2.72-6.52-3.87-2.23-2.62-4-3.15-5-3.29l-.4,0a3.29,3.29,0,0,0-.65.07c-.15,0-.24.07-.28.07l0,0,0,0a.19.19,0,0,1,0-.08c0-.53,2.1-1.86,2.21-2.74-.12-.71-.95-1-2-1"/><path class="c" d="M130.15,96h0c0,1.26,2,2.19,2,2.19s-2-.93-2-2.19m0,0h0m0-.12V96h0v-.12h0m5.7-4.84h0l0,.11h0l0-.11m-.75-3.91h0a3.09,3.09,0,0,1,1.72,1.54h0a3.09,3.09,0,0,0-1.72-1.54h0m-1.6-.41h0l.16,0h0l-.16,0h0m0,0h0m-1-1.46a1.35,1.35,0,0,0,.29.65h0a1.35,1.35,0,0,1-.29-.65h0m-5.55-2.95.76.18h0l-.76-.18"/><path class="b" d="M132.57,85a.22.22,0,0,0-.09.2h0a1.35,1.35,0,0,0,.29.65,3.83,3.83,0,0,1-.2-.85"/><path class="b" d="M111.89,86.06a11.86,11.86,0,0,0,.63,1.8,1.21,1.21,0,0,0,.1-.48,1.85,1.85,0,0,0-.73-1.32"/><path class="b" d="M133.49,86.7h0l.16,0-.17,0"/><path class="b" d="M135.1,87.12a3,3,0,0,1,1.71,1.54c-.08-.56-.43-1.09-1.71-1.54"/><path class="b" d="M137,90.41l-1.11.62,0,.11h0a.48.48,0,0,1-.09.24,4.78,4.78,0,0,0,1.17-.94v0"/><path class="b" d="M132.85,93.59a6.5,6.5,0,0,0-2.16,1.28,2.93,2.93,0,0,1,.26-.19l1.9-1.09"/><path class="b" d="M109.05,103.68c-.54.09-1.86.32-3.18.65l.07.83h0c-.9,1.16-1,2.29-4.37,3.15a77.88,77.88,0,0,1-13.44,2.13h-.29a4.31,4.31,0,0,1-1-.13,4.24,4.24,0,0,0,1.17.16h.29a78,78,0,0,0,13.44-2.12c3.4-.87,3.47-2,4.37-3.16a6,6,0,0,1,3-1.51"/><path class="d" d="M86.17,110.07l0,0a2.48,2.48,0,0,0,.64.23,2.48,2.48,0,0,1-.62-.25"/><path class="e" d="M97.94,89.51a47.74,47.74,0,0,0-3.33,4.23,4.27,4.27,0,0,1-.3.51l-.16.19a5.87,5.87,0,0,0-1.24,3.28c.15,1.65.93,2.76-1.15,5.66a62.44,62.44,0,0,1-5.59,6.69,2.48,2.48,0,0,0,.62.25,4.31,4.31,0,0,0,1,.13h.29a77.88,77.88,0,0,0,13.44-2.13c3.41-.86,3.47-2,4.37-3.15l-.07-.83c-1.68.41-3.34,1-3.35,1.62a.4.4,0,0,0,.07.22h0s-5,2.62-7.63,2.62a1.6,1.6,0,0,1-1.47-.6,14.43,14.43,0,0,1-2.21-1.86h0s3.21-8.94,5.62-9.44a7.5,7.5,0,0,0,1.94-4.56,5,5,0,0,0-.9-2.82"/><path class="f" d="M104.15,82.91c-.88.87-1.75,1.74-2.52,2.52-1.27,1.35-2.53,2.74-3.69,4.08a5,5,0,0,1,.9,2.82,7.5,7.5,0,0,1-1.94,4.56c-2.41.5-5.62,9.44-5.62,9.44a14.43,14.43,0,0,0,2.21,1.86,1.6,1.6,0,0,0,1.47.6c2.66,0,7.63-2.62,7.63-2.62a.4.4,0,0,1-.07-.22c0-1.13,5.31-2.07,6.53-2.27l.24,0a4.27,4.27,0,0,0,.54-.18A10.06,10.06,0,0,0,114,99.82c.83-.12,1.15-.57,1.15-1.21a5.17,5.17,0,0,0-.75-2.24c-1.59-1.53-4.27-4.38-4.28-6.15,0-.71.43-1.25,1.55-1.45a2.19,2.19,0,0,0,.83-.91,11.86,11.86,0,0,1-.63-1.8c-1-.92-3.23-2-7.74-3.15"/><path class="g" d="M107.61,79.33c-1,1.13-2.26,2.37-3.46,3.58,4.51,1.14,6.74,2.23,7.74,3.15a1.85,1.85,0,0,1,.73,1.32,1.21,1.21,0,0,1-.1.48,2.19,2.19,0,0,1-.83.91c-1.12.2-1.55.74-1.55,1.45,0,1.77,2.69,4.62,4.28,6.15.24.24.46.44.64.6h0c0-.7,2.88-1.45,2.88-1.45a.55.55,0,0,1-.18-.4c0-1.51,6.08-4.12,6.08-4.12,2.1-.43,2.74-1.07,2.74-1.7,0-1-1.58-1.93-1.58-1.93-4-1-4-1.46-4-1.46h0c-.71-2.28-7-4.7-13.37-6.58"/><path class="g" d="M115.06,97c0,.16.14.32.51.47l-.51-.47"/><path class="h" d="M93.07,53.08a.62.62,0,0,0-.38.18h0c-.13.37-.58,1-.78,1.5-.52,1-.28,1.43-1,2.48-.6,1-1.54,2.06-2.09,2.87a2.83,2.83,0,0,0-.44,1.07A5.58,5.58,0,0,0,87.89,63a1.16,1.16,0,0,0,.21.7c1.09-.31,2.24-.68,3.42-1.08a3.81,3.81,0,0,0,.55-1.12c0-.15-.1-.25-.39-.25h0c-.46-.08-1.12,0-1.12-.28,0-.13.14-.34.49-.67a6.62,6.62,0,0,0,1.3-1.64c0-.52-.53-.68-.53-1.2a1.69,1.69,0,0,1,.28-.8c.59-.87,2-2.49,2-3.09,0-.15-.08-.24-.28-.24h-.19l-.12,0a.48.48,0,0,1-.17-.1l-.06,0a.3.3,0,0,0-.2-.08"/><path class="i" d="M132.7,85a.26.26,0,0,0-.22.26.26.26,0,0,1,.22-.26"/><path class="i" d="M132.48,85.24a1.35,1.35,0,0,0,.29.65,5.81,5.81,0,0,0,.72.81h0a5.81,5.81,0,0,1-.72-.81,1.35,1.35,0,0,1-.29-.65"/><path class="i" d="M133.68,86.74a6.44,6.44,0,0,1,1.42.38,3.09,3.09,0,0,1,1.72,1.54,2.91,2.91,0,0,1,.24,1.17h0a2.77,2.77,0,0,0-.25-1.17,3,3,0,0,0-1.71-1.54,6.44,6.44,0,0,0-1.42-.38"/><path class="a" d="M133.66,86.74h0a6.44,6.44,0,0,1,1.42.38h0a6.11,6.11,0,0,0-1.44-.38"/><path class="j" d="M133.5,86.71h0l.16,0h0l-.16,0h0"/><path class="i" d="M133.22,93.45l-.37.14a6.5,6.5,0,0,0-2.16,1.28,1.72,1.72,0,0,0-.54,1v0c.07-.7.76-1.49,2.7-2.28l.37-.14"/><path class="j" d="M130.15,96h0c0,1.26,2,2.19,2,2.19s-2-.93-2-2.19m0-.12V96h0v-.12h0"/><path class="k" d="M92.37,53.11c-.05,0-.13,0-.25.18A11,11,0,0,0,91,54.85,57.86,57.86,0,0,1,87.36,60c-1.29,1.83-2.52,3.29-3.44,4.37H84a16.09,16.09,0,0,0,4.1-.73,1.16,1.16,0,0,1-.21-.7,5.58,5.58,0,0,1,.46-1.79,2.83,2.83,0,0,1,.44-1.07c.55-.81,1.49-1.9,2.09-2.87.75-1.05.51-1.45,1-2.48.2-.48.65-1.13.78-1.5h0a.24.24,0,0,1-.15-.07.2.2,0,0,0-.14-.08"/><path class="l" d="M60,53.47a10.35,10.35,0,0,0-2.64.93,15.62,15.62,0,0,1-5.5,1.43h-.29a1.91,1.91,0,0,1-1.65-.66l-.35.23a15.38,15.38,0,0,0-2.18,1.51c-1,1.16.05,1.79.19,2.71a8.17,8.17,0,0,1-1.15,1.94c-1,1.29.36,1.36,1.2,1.59,1.3.07.16,2.19.9,2.76a1.25,1.25,0,0,0,.92.27,7.72,7.72,0,0,0,.94-.07,7.55,7.55,0,0,1,.88-.08c.53,0,.87.16.69.79.09-.26.22-.37.37-.37.36,0,.84.59,1.13,1.19s.38,1.18,0,1.18h0a5.78,5.78,0,0,1-1.09,1.45,11.7,11.7,0,0,1-1.19,1c-1.77.86-4.09,3.08-6.11,4.68-.18.25.91,2-.2,4.14-1,1.71-2.19,3.52-1.94,4.32h0a2.73,2.73,0,0,0,.75-.37,2.38,2.38,0,0,1,.76-.37h0a.23.23,0,0,0,.11,0c.51,0,2.62-.46,4.89-.91a40.93,40.93,0,0,1,5.84-.92c.44,0,.69.07.66.23a8.52,8.52,0,0,1-2.36,3.09c-2.82,2.37-3.61,4-5.74,6.16-.59.57-1.44,1.11-2,1.69-1.54,1.62-3.23,3.6-3.3,4.23-.58,1.47-.34,2.39.64,2.39h0l.79,1.1a21.59,21.59,0,0,0,3-1c1.4-.51,2.34-1.09,2.64-1.09.09,0,.12,0,.1.16h0c.1,0,1-.66,2.27-1.45a27.63,27.63,0,0,1,4-2.2s.34-.45.85-1.17a28.33,28.33,0,0,1-4.53,1.65,5.94,5.94,0,0,1-1.29.18c-1.28,0-1.69-.82.36-3.52a49.58,49.58,0,0,1,2.81-5.65,23.88,23.88,0,0,1,6-7.32c-.44-.3-.27-.69-.59-1a.34.34,0,0,1,0-.16c0-.41.9-.82,1.52-1.1a17.9,17.9,0,0,0,4.73-2.53,13.75,13.75,0,0,1,5.62-1.88c.65-.15,1-.25,1.11-.39-.23,0-.64-.15-.88-.17a.44.44,0,0,1,0-.15c-1,0-3-.22-3-.46,0-.06.1-.12.36-.18s1.44-.25,2.78-.49c.36-.06.6-.1,1.17-.22l1.23-.24,1.6-.36a38.31,38.31,0,0,0,9.79-3.86c.1-.07.16-.12.16-.15s0,0,0,0a.54.54,0,0,0-.17,0,4.73,4.73,0,0,1-1,.2c-.24,0-.3-.08-.34-.16a.24.24,0,0,0-.26-.15,1.6,1.6,0,0,0-.32,0c-.32.07-1,.35-1.13.35l0,0a0,0,0,0,0,0,0,16,16,0,0,1,1.45-1.87,3.67,3.67,0,0,1-1.21-.18,2.87,2.87,0,0,1-2.37-2.55c-.14-.42,2.36-4.61,3.19-6s.47-1.95-.45-1.95a8,8,0,0,0-2.35.54A27.51,27.51,0,0,1,71.54,57c-.59-.22,0-1.47-.4-1.94a2.57,2.57,0,0,0-.92-.15c-1.64,0-4.06,1-5.73,1.13a9.07,9.07,0,0,0-2.83-.48h-.27a6.66,6.66,0,0,0-1.83.35,5.94,5.94,0,0,0-1.17.59s0,0,0,0c-.27-.24,1.72-2.13,1.93-2.73,0-.16-.11-.23-.31-.23"/><path class="m" d="M92,62.43l-.47.16,0,.06.5-.22m4.42-1.25a5.87,5.87,0,0,0-1.7.32L92,62.43l-.5.22a.78.78,0,0,0-.1.32.16.16,0,0,0,0,.14c.15.3,1.06.27,1.79.35.51,0,.93.15.93.39s-.07.23-.25.39a.68.68,0,0,1,.4-.19c.31,0,.47.41.47.86v0c0,.54-.24,1.12-.56,1.12a.27.27,0,0,1-.12,0,7.59,7.59,0,0,1-1.71.59c-.51.1-1.31.29-1.55.29a55.28,55.28,0,0,0-7.55,1.35,6.07,6.07,0,0,1-2.73,1.46,27,27,0,0,0-4.25,1.13,2.48,2.48,0,0,0,.49,0h.51a3.06,3.06,0,0,1,.65,0,2.82,2.82,0,0,0,.74.2,29.13,29.13,0,0,1,8.21-1.7,4.77,4.77,0,0,1,2.74.65s0,.06.3.06a11.73,11.73,0,0,0,3.94-1.28h.21a4.72,4.72,0,0,1,2,.41c.92.49,1.42,1.55-.22,3.8,0,0-.57,1.4-1.06,3,2,.44,7.39,1.66,12.77,3.26,1.73-1.93,2.85-3.53,2.19-4.1-1.38-.84-4.14-.42-5.16-1.49a2.13,2.13,0,0,0,.71.63l.09,0a4.26,4.26,0,0,0,1.87.38,4.55,4.55,0,0,0,.7,0,4.55,4.55,0,0,1-.7,0,4.26,4.26,0,0,1-1.87-.38l-.09,0a2.13,2.13,0,0,1-.71-.63,1.56,1.56,0,0,1-.38-1.32v0h0a6.71,6.71,0,0,1,.65-2.57,10,10,0,0,0,.43-3.81,2.18,2.18,0,0,0,.06-.22c0-.21-.12-.35-.24-.37h0l.35-1.32c-.65-.39-1-1.1-1.53-1.61a3.46,3.46,0,0,0-1.76-.49,3.94,3.94,0,0,0-.81.09,10.1,10.1,0,0,0-1.44.57l-.12.07h0l-.1,0a2.89,2.89,0,0,1-1.11-.37c-.45-.16-.85-.39-.85-.66h0v0a1.86,1.86,0,0,0-1.36-.53"/><path class="m" d="M97.7,81.65c2.14.38,4.3.79,6.26,1.21-1.51-.38-3.26-.76-5.31-1.15l-1-.06"/><path class="m" d="M95.44,87.21a1.65,1.65,0,0,1-.14.26l1.39.66a11,11,0,0,0-1.25-.92"/><path class="n" d="M95.3,87.47a1.56,1.56,0,0,1-.16.2s.72,3.59-.53,6.07a47.74,47.74,0,0,1,3.33-4.23,7.09,7.09,0,0,0-1.25-1.38l-1.39-.66"/><path class="o" d="M94.64,81.53c-.45.74-1.27,2.28-.87,2.78l.76.12a1.56,1.56,0,0,1-.35,0,.49.49,0,0,1-.41-.16l-1-.17c1.74.9,3.06,2,2.62,3.07a11,11,0,0,1,1.25.92,7.09,7.09,0,0,1,1.25,1.38c1.16-1.34,2.42-2.73,3.69-4.08.77-.78,1.64-1.65,2.52-2.52l-.19,0c-2-.42-4.12-.83-6.26-1.21-.72,0-1.79-.09-3.06-.12"/><path class="p" d="M94.84,76.07l-.24.85c-.52,2-.79,4,.29,4.2l-.25.41c1.27,0,2.34.08,3.06.12l1,.06c2,.39,3.8.77,5.31,1.15l.19,0c1.2-1.21,2.44-2.45,3.46-3.58-5.38-1.6-10.77-2.82-12.77-3.26"/><path class="q" d="M91.52,62.59c-1.18.4-2.33.77-3.42,1.08l0,0a3.05,3.05,0,0,1,.85-.2c.16,0,.22.06.23.16s-.28.56-.28.73h0c0,.12-.4.37-.61.57a.25.25,0,0,0,0,.07c0,.14.19.22.19.34s-.15.27-.7.55A60.16,60.16,0,0,1,80,69c-.91.3-2.54.78-4.06,1.17s-2.89.69-3.23.82-.49.19-.49.29.23.27.23.46,0,.16-.17.26,0,0-.12,0l-.49,0a.44.44,0,0,0,0,.15c.24,0,.65.14.88.17h0c-.11.14-.46.24-1.11.39a13.75,13.75,0,0,0-5.62,1.88,17.9,17.9,0,0,1-4.73,2.53c-.62.28-1.52.69-1.52,1.1a.34.34,0,0,0,0,.16c.32.31.15.7.59,1a10.09,10.09,0,0,1,1.15-.73S67.2,75.55,73.64,73c1.67-.67,3.39-1.31,5.06-1.86a2.82,2.82,0,0,1-.74-.2,3.06,3.06,0,0,0-.65,0H76.8a2.48,2.48,0,0,1-.49,0h0a27,27,0,0,1,4.25-1.13,6.07,6.07,0,0,0,2.73-1.46,55.28,55.28,0,0,1,7.55-1.35c.24,0,1-.19,1.55-.29A7.59,7.59,0,0,0,94.1,66a.27.27,0,0,0,.12,0c.32,0,.55-.58.56-1.12v0c0-.45-.16-.86-.47-.86a.68.68,0,0,0-.4.19h0c.18-.16.25-.29.25-.39s-.42-.34-.93-.39c-.73-.08-1.64-.05-1.79-.35a.16.16,0,0,1,0-.14.78.78,0,0,1,.1-.32l-.25.11.25-.11,0-.06"/><path class="r" d="M89,63.52a3.05,3.05,0,0,0-.85.2l0,0a16.09,16.09,0,0,1-4.1.73h-.08a16,16,0,0,0-1.45,1.87,0,0,0,0,1,0,0l0,0c.16,0,.81-.28,1.13-.35a1.6,1.6,0,0,1,.32,0,.24.24,0,0,1,.26.15c0,.08.1.16.34.16a4.73,4.73,0,0,0,1-.2.54.54,0,0,1,.17,0s0,0,0,0-.06.08-.16.15A38.31,38.31,0,0,1,75.85,70l-1.6.36L73,70.63c-.57.12-.81.16-1.17.22-1.34.24-2.47.41-2.78.49s-.36.12-.36.18c0,.24,2,.41,3,.46l.49,0c.08,0,.12,0,.12,0s.17-.18.17-.26-.23-.33-.23-.46.11-.19.49-.29,1.72-.43,3.23-.82S79.1,69.29,80,69a60.16,60.16,0,0,0,7.79-3c.55-.28.7-.43.7-.55s-.19-.2-.19-.34a.25.25,0,0,1,0-.07c.21-.2.57-.45.61-.57h0c0-.17.28-.53.28-.73s-.07-.16-.23-.16"/><path class="l" d="M50.37,54l-.43.13a.39.39,0,0,0,.11.21,2,2,0,0,1,.32-.34"/><path class="m" d="M82.85,76.08c.27.2.63.47,1,.73l.44-.12a2.13,2.13,0,0,0-.68-.42,3.71,3.71,0,0,0-.78-.19m22.06-6.28a6.71,6.71,0,0,0-.65,2.57h0v0c0-.11,0-.22,0-.34.21-.8.42-1.56.6-2.28m.6-5.72-.35,1.32c.12,0,.2.16.24.37a5.19,5.19,0,0,0,.14-1.67l0,0M100,62.64l-.14.07h0l.12-.07m2.55-.75a4.23,4.23,0,0,0-1.11.18,3.94,3.94,0,0,1,.81-.09,3.46,3.46,0,0,1,1.76.49,2,2,0,0,0-1.46-.58m-4.75-.18v0c0,.27.4.5.85.66a4.69,4.69,0,0,1-.85-.68"/><path class="p" d="M84.31,76.69l-.44.12c.29.19.59.38.88.54a1.91,1.91,0,0,0-.44-.66"/><path class="l" d="M68.71,81.26l-.06,0,.08,0h0"/><path class="m" d="M74.29,78.32c-1.43.64-3.05,1.44-4.88,2.43l-.7.51h0l.25-.14c1.79-1,3.61-2,5.31-2.81"/><path class="l" d="M86.1,110.07c-1.08,1.12-2.28,2.28-3.62,3.5a3.78,3.78,0,0,1-1.15.7,3.79,3.79,0,0,0,1.27-.74c1.31-1.19,2.48-2.33,3.55-3.44l-.05,0M58,92.36l-.31,0a5.05,5.05,0,0,0-.32.89l.63-.93m13.86-4.61A18.6,18.6,0,0,0,65,89.33c2.6-.52,5.21-1,7.82-1.53-.31,0-.64,0-1,0"/><path class="s" d="M86.12,110.05l0,0,.05,0,0,0,0,0"/><path class="n" d="M94.15,94.44c-.35.41-1.23,1.45-2,2.57l.68.75c.14,1.65.92,2.76-1.16,5.67a64.16,64.16,0,0,1-5.52,6.62l0,0a62.44,62.44,0,0,0,5.59-6.69c2.08-2.9,1.3-4,1.15-5.66a5.87,5.87,0,0,1,1.24-3.28"/><path class="t" d="M62.39,94.51a9.11,9.11,0,0,0-2.83.37,3.12,3.12,0,0,1-1.21.29,2.63,2.63,0,0,1-.66-.09A2.78,2.78,0,0,0,57,95a2.75,2.75,0,0,0-.89.16l-.11,0h0A2.54,2.54,0,0,1,56.9,95a2.63,2.63,0,0,1,.67.1,3.39,3.39,0,0,0,.67.09,3,3,0,0,0,1.21-.3,9.38,9.38,0,0,1,2.83-.36,32.21,32.21,0,0,1,3.46.24,26.78,26.78,0,0,0,2.74.25h.25c3.59,0,4.71.65,4.6,3.08-.45,2.17,1.31,2.23,1.7,3.75.6,1.44,1.72,1.91,2.31,3.35a5.86,5.86,0,0,0,1.27,4.36,2.43,2.43,0,0,0,.4,0,1.62,1.62,0,0,0,.58-.12.54.54,0,0,1,.2,0c.29,0,.4.29.61.34.1,1.47-1.35,4-.21,4.59a.59.59,0,0,0,.27,0,2.54,2.54,0,0,0,.87-.19,2.47,2.47,0,0,1-.75.15.63.63,0,0,1-.28,0c-1.13-.64.31-3.12.22-4.59-.22,0-.32-.34-.62-.34l-.2,0a1.53,1.53,0,0,1-.57.12,1.77,1.77,0,0,1-.41,0,5.79,5.79,0,0,1-1.26-4.35c-.6-1.44-1.72-1.92-2.32-3.36-.38-1.52-2.14-1.58-1.7-3.74.11-2.44-1-3.08-4.6-3.08H68.6c-.69,0-1.66-.13-2.75-.25a29.8,29.8,0,0,0-3.46-.25"/><path class="u" d="M72.85,87.8c-2.61.49-5.22,1-7.82,1.53A43.23,43.23,0,0,0,59.62,92s-.71.17-1.61.32l-.63.93a2.56,2.56,0,0,0-.1.54l-.41.19c-.51.72-.81,1.12-.85,1.17l.11,0A2.75,2.75,0,0,1,57,95a2.78,2.78,0,0,1,.67.09,2.63,2.63,0,0,0,.66.09,3.12,3.12,0,0,0,1.21-.29,9.11,9.11,0,0,1,2.83-.37,29.8,29.8,0,0,1,3.46.25c1.09.12,2.06.25,2.75.25h.24c3.59,0,4.71.64,4.6,3.08-.44,2.16,1.32,2.22,1.7,3.74.6,1.44,1.72,1.92,2.32,3.36a5.79,5.79,0,0,0,1.26,4.35,1.77,1.77,0,0,0,.41,0,1.53,1.53,0,0,0,.57-.12l.2,0c.3,0,.4.29.62.34.09,1.47-1.35,4-.22,4.59a.63.63,0,0,0,.28,0,2.47,2.47,0,0,0,.75-.15,3.78,3.78,0,0,0,1.15-.7c1.34-1.22,2.54-2.38,3.62-3.5a.73.73,0,0,1-.3-.25.68.68,0,0,1-.07-.27c0-.92,2.27-1.8,3-2.76-.17-.17,0-.5-.46-.63h0c-.82,1.23-1.74,2.19-2.6,2.19a1.19,1.19,0,0,1-.51-.12,15.46,15.46,0,0,1-3.07-.38s-1-2.56-1.77-5.36-1.46-5.84-.71-6.83a9.1,9.1,0,0,0-2.54-6.07,7,7,0,0,0-4.2-1.78"/><path class="v" d="M88.26,106.15h0c.46.13.29.46.46.63h0c-.76,1-3,1.84-3,2.76a.68.68,0,0,0,.07.27.73.73,0,0,0,.3.25l0,0a.58.58,0,0,1-.21-.2.66.66,0,0,1-.06-.27c0-.92,2.27-1.8,3-2.75-.18-.18,0-.51-.46-.64l-.16,0"/><path class="w" d="M92.12,97C91,98.6,90,100.37,90.89,100.77A32.11,32.11,0,0,1,89,105c-.22.41-.46.81-.71,1.19l.16,0c.46.13.28.46.46.64h0c-.76,1-3,1.83-3,2.75a.66.66,0,0,0,.06.27.58.58,0,0,0,.21.2,64.16,64.16,0,0,0,5.52-6.62c2.08-2.91,1.3-4,1.16-5.67L92.12,97"/><path class="x" d="M68.73,81.27l-.08,0c-1.06.8-3.09,2.38-5.14,4.24-2.4,2.18-4.84,4.74-5.81,6.85l.31,0c.9-.15,1.61-.32,1.61-.32A43.23,43.23,0,0,1,65,89.33a18.6,18.6,0,0,1,6.84-1.58c.34,0,.67,0,1,0a7,7,0,0,1,4.2,1.78,9.1,9.1,0,0,1,2.54,6.07c-.75,1-.1,4,.71,6.83s1.77,5.36,1.77,5.36a15.46,15.46,0,0,0,3.07.38,1.19,1.19,0,0,0,.51.12c.86,0,1.78-1,2.6-2.19a1.51,1.51,0,0,1-.77-.46c0-.09,0-.18,0-.27a4.76,4.76,0,0,1,1.7-3.35,3.64,3.64,0,0,0,.16-1.09c0-.44-.06-.86-.06-1.3a3.39,3.39,0,0,1,.17-1.1,1.72,1.72,0,0,0,.2-.83c0-.36-.08-.71-.08-1.07a1.69,1.69,0,0,1,.92-1.51,2.4,2.4,0,0,0,.93-1.64c0-.87-.88-1.75-2.7-3-1.53-1.07-4.17-4.17-6.85-5.14-1.87-.5-1.22-1.21-2.79-1.76h0a28.2,28.2,0,0,0-4.49-.84c-1.49-.2-2.67-.3-2.66-.36h0s.07-.06.07-.09c0-.21-1.17-.35-2.75-.88l-.52-.16"/><path class="y" d="M82.14,76c-1.58,0-4,.57-7.85,2.28-1.7.84-3.52,1.81-5.31,2.81l-.25.14.52.16c1.58.53,2.76.67,2.75.88,0,0,0,.06-.07.09h0c0,.06,1.17.16,2.66.36a28.2,28.2,0,0,1,4.49.84l1.41-.3c-1.46-.37-6.09-1.65-6.1-2.85,0-.51.82-1,3.08-1.4a50,50,0,0,1,6.4-2.24c-.39-.26-.75-.53-1-.73a5.14,5.14,0,0,0-.71,0"/><path class="y" d="M82.17,82.71a4.82,4.82,0,0,0-.82.4l1.08-.26-.26-.14"/><path class="y" d="M89.74,84.82l5.56,2.65a1.65,1.65,0,0,0,.14-.26,21.93,21.93,0,0,0-5.7-2.39"/><path class="z" d="M79.08,83.6h0c1.57.55.92,1.26,2.79,1.76,2.68,1,5.32,4.07,6.85,5.14,1.82,1.28,2.7,2.16,2.7,3a2.4,2.4,0,0,1-.93,1.64,1.69,1.69,0,0,0-.92,1.51c0,.36.08.71.08,1.07a1.72,1.72,0,0,1-.2.83,3.39,3.39,0,0,0-.17,1.1c0,.44.06.86.06,1.3a3.64,3.64,0,0,1-.16,1.09,4.76,4.76,0,0,0-1.7,3.35c0,.09,0,.18,0,.27a1.51,1.51,0,0,0,.77.46h0a1.6,1.6,0,0,1-.66-.43c0-.09,0-.18,0-.27a4.82,4.82,0,0,1,1.69-3.35,3.38,3.38,0,0,0,.17-1.09c0-.44-.06-.86-.06-1.3a3.39,3.39,0,0,1,.17-1.1,1.71,1.71,0,0,0,.2-.82c0-.37-.09-.73-.09-1.09a1.73,1.73,0,0,1,.92-1.5,2.42,2.42,0,0,0,.94-1.63c0-.87-.88-1.76-2.7-3-1.53-1.07-4.17-4.16-6.86-5.14-1.87-.5-1.21-1.21-2.79-1.76l-.1,0"/><path class="aa" d="M82.43,82.85l-1.08.26a2.34,2.34,0,0,0-.43.3l-.43-.11-1.41.3.1,0c1.58.55.92,1.26,2.79,1.76,2.69,1,5.33,4.07,6.86,5.14,1.82,1.28,2.7,2.17,2.7,3a2.42,2.42,0,0,1-.94,1.63,1.73,1.73,0,0,0-.92,1.5c0,.36.09.72.09,1.09a1.71,1.71,0,0,1-.2.82,3.39,3.39,0,0,0-.17,1.1c0,.44.06.86.06,1.3a3.38,3.38,0,0,1-.17,1.09,4.82,4.82,0,0,0-1.69,3.35c0,.09,0,.18,0,.27a1.6,1.6,0,0,0,.66.43c.25-.38.49-.78.71-1.19a32.11,32.11,0,0,0,1.92-4.19c-.88-.4.1-2.17,1.23-3.76.8-1.12,1.68-2.16,2-2.57l.16-.19a4.27,4.27,0,0,0,.3-.51c1.25-2.48.53-6.07.53-6.07a1.56,1.56,0,0,0,.16-.2l-5.56-2.65a51,51,0,0,0-5.88-1.26s-.65-.29-1.43-.71"/><path class="ab" d="M85.73,81.88a15.32,15.32,0,0,0-3.56.83l.26.14c.78.42,1.43.71,1.43.71a51,51,0,0,1,5.88,1.26,21.93,21.93,0,0,1,5.7,2.39c.44-1.08-.88-2.17-2.62-3.07a36.39,36.39,0,0,1-4.33-1.06,12.59,12.59,0,0,1-2.76-1.2"/><path class="ac" d="M83.87,76.81a50,50,0,0,0-6.4,2.24c-2.26.4-3.09.89-3.08,1.4,0,1.2,4.64,2.48,6.1,2.85l.43.11a2.34,2.34,0,0,1,.43-.3,12.15,12.15,0,0,1,4.38-1.23c-1.3-.82-1.9-1.85-.91-3.15a2.48,2.48,0,0,0-.07-1.38c-.29-.16-.59-.35-.88-.54"/><path class="ad" d="M60.26,79.36a23.88,23.88,0,0,0-6,7.32,49.58,49.58,0,0,0-2.81,5.65c-2,2.7-1.64,3.52-.36,3.52a5.94,5.94,0,0,0,1.29-.18A28.33,28.33,0,0,0,56.87,94l.41-.19a2.56,2.56,0,0,1,.1-.54,5.05,5.05,0,0,1,.32-.89c1-2.11,3.41-4.67,5.81-6.85,2.05-1.86,4.08-3.44,5.14-4.24l.06,0a19.13,19.13,0,0,1-2.38-.89l-.07.64c-1.87-.5-4.26-1-5.84-1.56l-.16-.09"/><path class="ae" d="M94.1,68.83h-.21A11.73,11.73,0,0,1,90,70.11c-.25,0-.3-.06-.3-.06a4.77,4.77,0,0,0-2.74-.65,29.13,29.13,0,0,0-8.21,1.7l.93.24a34.4,34.4,0,0,1,3.53,1.14c2.32.91,4.53,2.09,4.53,2.48a.09.09,0,0,1,0,.08,10.47,10.47,0,0,1-3.43.64H83c-3.14,0-4.76.5-7.57.69h-.29c-.33,0-.68,0-1,0s-.71,0-1,0h-.28c-2.22.17-4.8.49-5.27.87-1,.43-1.46.93-1.45,1.38a.81.81,0,0,0,.37.63h0l-.13,1.21a19.13,19.13,0,0,0,2.38.89l.7-.51c1.83-1,3.45-1.79,4.88-2.43C78.1,76.61,80.56,76,82.14,76a5.14,5.14,0,0,1,.71,0,3.71,3.71,0,0,1,.78.19,2.13,2.13,0,0,1,.68.42,28.86,28.86,0,0,1,7-1A13,13,0,0,1,94,75.9l.81.17c.49-1.63,1.06-3,1.06-3,1.64-2.25,1.14-3.31.22-3.8a4.72,4.72,0,0,0-2-.41"/><path class="af" d="M92.47,81.5a51.91,51.91,0,0,0-6.74.38,12.59,12.59,0,0,0,2.76,1.2,36.39,36.39,0,0,0,4.33,1.06l1,.17c-.4-.5.42-2,.87-2.78-.68,0-1.41,0-2.17,0"/><path class="ag" d="M91.34,75.65a28.86,28.86,0,0,0-7,1,1.91,1.91,0,0,1,.44.66,2.48,2.48,0,0,1,.07,1.38c-1,1.3-.39,2.33.91,3.15a51.91,51.91,0,0,1,6.74-.38c.76,0,1.49,0,2.17,0l.25-.41c-1.08-.23-.81-2.24-.29-4.2l.24-.85L94,75.9a13,13,0,0,0-2.69-.25"/><path class="ah" d="M78.7,71.1c-1.67.55-3.39,1.19-5.06,1.86-6.44,2.59-12.23,5.67-12.23,5.67a10.09,10.09,0,0,0-1.15.73l.16.09c1.58.55,4,1.06,5.84,1.56l.2-1.85a.81.81,0,0,1-.37-.63c0-.45.5-1,1.45-1.38.47-.38,3-.7,5.27-.87h.28c.33,0,.69,0,1,0s.7,0,1,0h.29c2.81-.19,4.43-.69,7.57-.69h1.2A10.47,10.47,0,0,0,87.65,75a.09.09,0,0,0,0-.08c0-.39-2.21-1.57-4.53-2.48a34.4,34.4,0,0,0-3.53-1.14l-.93-.24"/><path class="af" d="M93.77,84.31a.49.49,0,0,0,.41.16,1.56,1.56,0,0,0,.35,0l-.76-.12"/><path class="ai" d="M49.49,53.89h-.07a11.19,11.19,0,0,0-1.5.8c-1,.69-.9,1.34-1.92,2.2a13.8,13.8,0,0,0-2.52,3,3.05,3.05,0,0,0-.21,1.74,6.83,6.83,0,0,0,1.66,5,2.18,2.18,0,0,1,.81-.19c.91,0,.63,1.14.95,1.59.07.2-.12.63-.16,1,.23.6,1.23.48.46,1.71a80.45,80.45,0,0,0-4.55,7.35,40.08,40.08,0,0,0-2.63,8.25c-.2,1.52,1.42,1.35,1.6,2.48a2,2,0,0,1-.51.36l.26.22c.22-.11.7-.19.92-.29.09.26,0,.63-.38,1.24-3.32,4.91-1.65,6.91-4,11.12-.3.73-.74,1.83-.2,2s.61.45,1.09.45a.82.82,0,0,0,.26,0c1.59-.58,3.77-1.73,5.54-2.53l-.42-.59-.79-1.1h0c-1,0-1.22-.92-.64-2.39.07-.63,1.76-2.61,3.3-4.23.58-.58,1.43-1.12,2-1.69,2.13-2.2,2.92-3.79,5.74-6.16A8.52,8.52,0,0,0,56,82.12c0-.16-.22-.23-.66-.23a40.93,40.93,0,0,0-5.84.92c-2.27.45-4.38.91-4.89.91a.23.23,0,0,1-.11,0h0a2.38,2.38,0,0,0-.76.37,2.73,2.73,0,0,1-.75.37h0c-.25-.8,1-2.61,1.94-4.32,1.11-2.09,0-3.89.2-4.14,2-1.6,4.34-3.82,6.11-4.68a11.7,11.7,0,0,0,1.19-1,5.78,5.78,0,0,0,1.09-1.45h0c.39,0,.29-.59,0-1.18s-.77-1.19-1.13-1.19c-.15,0-.28.11-.37.37.18-.63-.16-.79-.69-.79a7.55,7.55,0,0,0-.88.08,7.72,7.72,0,0,1-.94.07,1.25,1.25,0,0,1-.92-.27c-.74-.57.4-2.69-.9-2.76-.84-.23-2.18-.3-1.2-1.59a8.17,8.17,0,0,0,1.15-1.94c-.14-.92-1.19-1.55-.19-2.71a15.38,15.38,0,0,1,2.18-1.51l.35-.23c.5-.34.72-.58.28-.73a.38.38,0,0,1-.17-.1.39.39,0,0,1-.11-.21c0-.13-.12-.23-.45-.23"/><path class="aj" d="M96.62,61.14A12.8,12.8,0,0,0,92,62.43l-.5.22h0l.5-.22a12.8,12.8,0,0,1,4.63-1.29h0m0,0h0c.94,0,1.16.35,1.19.41s-.25-.41-1.19-.41"/><path class="aj" d="M105.35,74.37l.09,0a4.26,4.26,0,0,0,1.87.38,4.55,4.55,0,0,0,.7,0,4.55,4.55,0,0,1-.7,0,4.26,4.26,0,0,1-1.87-.38l-.09,0m-1.09-2v0a2.32,2.32,0,0,0,.38,1.32,2.13,2.13,0,0,0,.71.63,2.13,2.13,0,0,1-.71-.63,2.32,2.32,0,0,1-.38-1.32v0m.82-2.94h0c-.06.13-.12.25-.17.37a6.71,6.71,0,0,0-.65,2.57h0a6.71,6.71,0,0,1,.65-2.57c0-.12.11-.24.17-.37h0m.37-3.06a21.18,21.18,0,0,1-.37,3.06,21.18,21.18,0,0,0,.37-3.06m-.29-1h0c.12,0,.2.16.24.37a3.37,3.37,0,0,1,0,.6h0a3.37,3.37,0,0,0,0-.6c0-.21-.12-.35-.24-.37m.36-1.37v0l-.35,1.32h0l.35-1.32v0h0m-7.75-2.3h0c0,.27.4.5.85.66a8.18,8.18,0,0,0,1.21.32h0l.12-.07a5.43,5.43,0,0,1,1.44-.57,3.94,3.94,0,0,1,.81-.09,3.46,3.46,0,0,1,1.76.49A4.63,4.63,0,0,1,105.52,64h0A4.63,4.63,0,0,0,104,62.47a3.46,3.46,0,0,0-1.76-.49,3.94,3.94,0,0,0-.81.09,5.43,5.43,0,0,0-1.44.57l-.12.07h0a8.18,8.18,0,0,1-1.21-.32c-.45-.16-.85-.39-.85-.66m0-.17,0,.15v0h0v0l0-.15h0m0,0h0"/><path class="ak" d="M49.09,53.55H49a6.26,6.26,0,0,0-1.87.49,16.84,16.84,0,0,0-5.49,3.82,14.21,14.21,0,0,0-2.87,5.92A9.39,9.39,0,0,0,39,69.06c.21.56,1.23.34,1.82.46C42,69.64,42,71,43.3,71a2.9,2.9,0,0,0,.9-.17.34.34,0,0,1,.16,0c.17,0,.22.17.15.38-.91,1.79-1.73,3.51-2.61,5.11s-1.71,3.18-2.56,4.78A31.36,31.36,0,0,0,37,88.72c.1,1,.66,1.34,1.36,1.34a5.69,5.69,0,0,0,2.52-.87,2,2,0,0,0,.51-.36c-.18-1.13-1.8-1-1.6-2.48a40.08,40.08,0,0,1,2.63-8.25A80.45,80.45,0,0,1,47,70.75c.77-1.23-.23-1.11-.46-1.71,0-.37.23-.8.16-1-.32-.45,0-1.59-.95-1.59a2.18,2.18,0,0,0-.81.19,6.83,6.83,0,0,1-1.66-5,3.05,3.05,0,0,1,.21-1.74,13.8,13.8,0,0,1,2.52-3c1-.86.93-1.51,1.92-2.2a11.19,11.19,0,0,1,1.5-.8h0c-.19-.1,0-.34-.33-.34"/><path d="M76.62,112A37.69,37.69,0,0,0,89,115a30.48,30.48,0,0,0,6.79-.23c-6.48-.63-11.89-3.9-17.26-7-5.2-3-11.11-5.05-15.31-10.39,5.19,3,10,5.89,14.86,8.72s9.88,5.28,15.47,6.21c-1.06-5.39-5.52-6.26-9.86-7.28l.27-.57,5.93,1.45a29.25,29.25,0,0,0-2.23-4.25,3.94,3.94,0,0,0-2.36-1.26A34.18,34.18,0,0,1,73.15,96.3c-5.33-3.13-10.52-6.49-16.09-10,1.87,1.92,3.44,3.69,5.19,5.28s3.68,3,5.36,4.8c-1.17-.78-2.37-1.52-3.5-2.35a41.73,41.73,0,0,1-9.39-9.82A89.85,89.85,0,0,0,48.44,77a1.2,1.2,0,0,1-.31-.95c1.89,1.72,3.77,3.45,5.68,5.15,2.82,2.5,5.58,5.06,8.52,7.41A64.39,64.39,0,0,0,70,94a47.23,47.23,0,0,0,16.13,5.92l.35-.48c-.62-.46-1.22-.94-1.86-1.37-4.58-3-9.17-6-13.72-9.11-.32-.22-.35-.84-.57-1.39l14.19,10,1-1.16-1.91-.9c.69-1.49-.35-2.36-1.42-3-2.85-1.81-5.85-3.4-8.62-5.33-1.06-.73-2.84-1.33-2.46-3.29l10.73,7.79c-1.24-6.81-6.06-10.3-10.39-14.17l.34-.35,5.86,5c-.32-3-1.79-4.46-4.18-5.55-1.79-.81-3.23-2.41-4.81-3.68-.78-.63-1.54-1.29-2.3-1.94l-.41.45,4.84,4.4-.58.7a7.48,7.48,0,0,1-2-1.09c-2.9-3.08-6.27-5.91-8.41-9.46s-5.26-6.08-7.59-9.34a35.42,35.42,0,0,0-3-3.29l.43-.44c1.1,1.17,2.23,2.3,3.28,3.5,3.56,4,7.05,8.14,10.65,12.14a9.17,9.17,0,0,0,3,2.14c.45.2,1.29-.47,1.89-.71-2.12-5.54-7.37-7.43-11.22-10.77-3.69-3.21-7.13-6.46-8.31-11.42a4,4,0,0,1,0-1.82c1.08,7.13,6.81,10.45,11.6,14.51,2,1.71,4.16,3.28,6.24,4.9,1.9-1.69,2-3.58-.12-6.08V64a3.42,3.42,0,0,1-.27-5.57c1.54-1.15,1-2,.23-3.09l.12-.12c.16-.2.52-.49.47-.6-1.52-3.25-3-6.49-4.63-9.7-.61-1.23-1.38-2.38-2.08-3.57l.5-.31,6,9.93c-.15-1.15-.25-2-.36-2.82l.18,0,2.53,7.1L70.2,55A37.76,37.76,0,0,0,67.47,45c-1.33-3.24-2.73-6.47-4.18-9.66s-3-6.43-4.25-9.83c.7,1.17,1.39,2.35,2.08,3.52-1.29-3.61,0-7,.64-10.49,0,3.1-.21,6.22.08,9.3a17.21,17.21,0,0,0,1.75,5.11c.59,1.35,2.13,2.62,2,3.86-.18,3.08,2.12,5,2.81,7.62.75,2.78,1.68,5.51,2.49,8.27.39,1.35.53,2.76,2.31,3.17.56.13,1,.91,1.81,1.73a59,59,0,0,0-3.42-15.13c-1.8-4.73-4-9.31-5.73-14.12.54,1,1.14,1.87,1.61,2.85,3,6.25,5.76,12.53,7.45,19.31a62.39,62.39,0,0,1,1.1,8.85,5.93,5.93,0,0,0,1,1.94l1.83,3.33c.23-.31.78-.7.79-1.1.17-8.47-.39-16.83-3.83-24.76a33.19,33.19,0,0,1-1.82-5.42c3,6.57,6.1,13.07,6.47,20.47a23.11,23.11,0,0,0,4.63,12.56,49.68,49.68,0,0,1,2.7,4.83c-.16-9.32-3.61-17.65-4.4-26.41,2.24,9.84,5.75,19.42,5.78,29.73.19-9.08-1.44-18.11.24-27.13.24,7.46.68,14.92.66,22.38S93,84.25,93.87,91.58l-.55.1-1.71-8.91-.51.07c.08,1.19.16,2.39.26,3.7l-.93-.39c0,4.37.32,8.7-.13,12.94a5.5,5.5,0,0,0,2,5.12L91.1,87.54c2.13,7.58.27,16,5.1,23.35,0-2.92.06-5.42,0-7.91-.39-12.35-.66-24.71-1.31-37a75.93,75.93,0,0,1,1.49-18.25c-.25,3.28-.68,6.55-.72,9.83,0,4.88.09,9.76.31,14.63s.77,9.47.93,14.22c.26,8.16.33,16.34.5,24.5a14.27,14.27,0,0,0,.25,1.84h.59a48.88,48.88,0,0,1,0-5.68c.59-5,1.63-9.89,2-14.87.23-3.51-.53-7.07-.59-10.62-.12-6.19,0-12.39.36-18.59,0,8.07-.41,16.14,1.17,24.17l.75-11.68H102l-.9,41.92.85.26a22.75,22.75,0,0,0,2-4.38c1.9-8.83,3.91-17.67,3.67-26.79-.2-7.87-2.3-15.31-5.26-22.55a38,38,0,0,1-1.69-4.77,65.55,65.55,0,0,1,7.58,24.05c.93,8.54-.92,16.83-2.17,25.2,2.75-5.07,3.33-10.77,4.57-16.25s2.09-11.09,3.15-16.8c.11,7.85-2.19,15.17-3.53,22.65s-5,14-8.07,21.13l2.48,2.76-.46.46-3.47-3.26,1.18,2.78-.37.22c-1.06-1.41-2.11-2.82-3.18-4.22-.79-1-1-1-1.54.12a1.49,1.49,0,0,1-.87.73c-3.5.74-7,1.5-10.52,2.11a101.42,101.42,0,0,1-23,1c9.09-.22,18.21-.13,27.12-2.6l-10.41-3.82a11.19,11.19,0,0,1,1.28.16c3.12.77,6.21,1.69,9.35,2.3a9.2,9.2,0,0,0,6.54-1.27l-17.84-2,.73.91c-4.7-2-9.41-3.92-14.1-5.92-1.67-.72-3.27-1.58-4.91-2.38l.2-.54c1.1.41,2.22.76,3.3,1.23,4.48,2,8.94,4,13.42,5.94.18.08.45,0,.78-.1L76.62,112ZM82.2,63.1c0,.12-.12.26-.09.36,1.32,6.43,1.07,12.89.35,19.34-.35,3.15,1.25,5.63,2.19,8.58.34-.37.54-.49.57-.64.85-4.85,1.76-9.68,2.51-14.54C88.57,70.8,84.42,67.37,82.2,63.1Zm7.11,12.06c-1.24,5.77-2.3,11-3.48,16.11-.61,2.64.82,4.58,2,6.59.25.41.95.56,1.92,1.09,0-6.75,0-12.94,0-19.13C89.76,78.39,89.5,77,89.31,75.16Zm-8.47-14c-.53,4.78.14,9.64-.73,14.38l-.63,0V74.3c-1.37,1.11,0,6.45,2,8C82,75.21,82.56,68.17,80.84,61.17Zm18.88,55.18.8-.16V97.26a12.14,12.14,0,0,0-.76,3.43c-.32,4.33-.66,8.66-.85,13A8.29,8.29,0,0,0,99.72,116.35ZM71.52,61.58l-.71-.12c-.15.86-.62,1.84-.35,2.53s1.29,1.24,2,1.84l.46-.48Zm2.62-1.87.35-.53c-.68-.77-1.37-1.53-2.06-2.29l-1.78,2.26ZM70.58,68c1.07-1.32,1-1.42-1.35-3.39C67.8,66.06,67.8,66.06,70.58,68Zm2.84,3.37.66-.16a16.72,16.72,0,0,0-.44-2.76,1.4,1.4,0,0,0-1.26-.4,1.46,1.46,0,0,0-.48,1.34A11.46,11.46,0,0,0,73.42,71.37ZM72,71.89a13.88,13.88,0,0,0-1.82-1.71c-.12-.07-1.13.82-1.07.93a5.26,5.26,0,0,0,1.37,1.73C70.57,72.94,71.28,72.32,72,71.89Zm11.9,21,.44-.2c-.47-2.65-1.4-4.39-2.93-4.87Zm-10-17.1c.66-1.8-.23-2.36-1.29-2.69-.16-.06-.51.45-.77.7Zm3-13.31-2.88,2,2.88.8Zm-7.59-2L70,57.09C68,58,68,58.51,69.32,60.43Zm19.89,41.14-.54.35,2.43,3.94.49-.32ZM78.88,70.35l-1-.63c-.39.71-.81,1.41-1.15,2.14,0,.06.5.37.77.56Z"/><path d="M61.66,49.83,59.8,49c2.09,3.2,4,6.14,5.94,9.09l-.38.42A8.87,8.87,0,0,1,63.79,57C60.83,52.2,58,47.39,55,42.61A28.06,28.06,0,0,1,52.44,38Q57,43.93,61.61,49.86Z"/><path d="M40.52,67.09a24.36,24.36,0,0,1-3.39-3.59c-1.84-2.92-3.43-6-5.1-9a2.81,2.81,0,0,1-.34-1.66c1,1.84,1.88,3.73,3,5.5,1.87,3,3.86,5.9,5.8,8.85Z"/><path d="M62.88,99.27,50.41,92.72l.27-.5,12.43,6.67Z"/><path d="M42.21,17.34c1.18,3.88,2.25,7.44,3.26,10.76C44,26.76,41.94,20.44,42.21,17.34Z"/><path d="M54.16,68.73l7.68,6.48-.33.33-7.24-6.93Z"/><path d="M82.74,104.68l-9-4.28.21-.47L83,104Z"/><path d="M49.75,63.63l-5.85-7.8.44-.34,5.83,7.8Z"/><path d="M76.62,112c-1.44-.5-2.92-.9-4.31-1.51a23.4,23.4,0,0,1-4.88-2.83L76.62,112Z"/><path d="M40.47,67.14l6.15,5.21c-2.37-1.35-4.79-2.66-6.1-5.26Z"/><path d="M61.61,49.86l5.25,5.4-.12.12C65,53.69,63.19,52,61.44,50.29c0,0,.13-.3.21-.46Z"/><path d="M33.91,37.09l-1.73-5.22.33-.12q.93,2.55,1.84,5.12Z"/><path d="M72.42,99.55l-4-2.42.21-.35,4.12,2.34Z"/></svg>