<svg xmlns="http://www.w3.org/2000/svg" viewBox="0 0 150 150"><defs><style>.a{fill:#efe3d6;}.b{fill:#d6bea5;}.c{fill:#d0b49a;}.d{fill:#b18660;}.e{fill:#ac825d;}.f{fill:#b58f6b;}.g{fill:#c4a586;}.h{fill:#e5d2c2;}.i{fill:#c2a17f;}.j{fill:#d1b59a;}.k{fill:#f5ede5;}</style></defs><title>icon</title><path class="a" d="M91.48,118.9h0c-.48.32-1,.65-1.4,1l-.07,0h0c-.69.49-1.41,1-2.07,1.52h0c-.34.25-.66.51-1,.76h0l-.37.3h0l.37-.3c.33-.25.65-.51,1-.76.66-.51,1.38-1,2.07-1.52l1.47-1m17.64-12.65h0c-.27.31-.58.63-.92,1-1.1,1.09-2.45,2.32-3.74,3.45l-.95.82h0l-1,.73h0l-1.71,1.22h0l-1.61,1.14h0l-.88.43h0l.88-.43,1.61-1.14,1.71-1.22,1-.73.95-.82c1.29-1.13,2.64-2.36,3.74-3.45.34-.33.65-.65.92-1M117.83,92h0c-.06.21-.13.41-.19.61l0,.13-.07.22A42.1,42.1,0,0,1,114.9,99h0l0,0c-.41.8-.78,1.44-1,1.89h0c-.26.45-.42.7-.42.71h0l-.12.11h0l.12-.11.42-.71c.27-.46.66-1.11,1.07-1.93a40.72,40.72,0,0,0,2.69-6.3c.09-.25.17-.49.24-.74m0-16.44h0v.34c0,.21,0,.43,0,.63h0c0-.2,0-.42,0-.63h0v-.34m.32-5.12h0a1.5,1.5,0,0,0-.14.41h0a1.5,1.5,0,0,1,.14-.41m0-.52h0a3.2,3.2,0,0,1,0,.52h0s0-.18,0-.52h0m-6.4-12.65h0a17.49,17.49,0,0,1,1.63,1.57,20.63,20.63,0,0,1,2,2.52,16.06,16.06,0,0,1,2.18,4.62,14.08,14.08,0,0,1,.6,3.26c0,.27,0,.5,0,.68h0c0-.18,0-.41,0-.68h0A14.2,14.2,0,0,0,117.6,66l0-.07,0-.06a15.83,15.83,0,0,0-2.16-4.56h0a21,21,0,0,0-1.9-2.44l-.07-.08h0a17.49,17.49,0,0,0-1.63-1.57"/><path class="a" d="M118.18,70.39h0m0-1.2h0c0,.27,0,.5,0,.68h0c0-.18,0-.41,0-.68h0m-.62-3.32h0l0,.06,0,.07h0l0-.07,0-.06h0m-4.13-7.08h0l.07.08h0l-.07-.08h0"/><path class="a" d="M118.18,70.39h0m0-1.2h0c0,.27,0,.5,0,.68h0c0-.18,0-.41,0-.68h0m-.62-3.32h0l0,.06,0,.07h0l0-.07,0-.06h0m-4.13-7.08h0l.07.08h0l-.07-.08h0"/><path class="b" d="M90.86,33a1.7,1.7,0,0,0-.48.33c-.69.52-2,1.69-3.41,2.89s-2.66,2.17-3.85,3.27a44.42,44.42,0,0,0-3.44,3.21l-1.56,1.63a7.21,7.21,0,0,0-.74.82c-.2.32-.4.64-.61,1L75.57,48l-.3.46c0,.09-.12.14-.14.25l0,.4-.15,1.46.94-.14a29.42,29.42,0,0,1,4-.28,31.7,31.7,0,0,1,4.41.32,27.24,27.24,0,0,1,15.77,8.15,22,22,0,0,1,6,14.71h0c0,.47,0,.94,0,1.41a2.28,2.28,0,0,0,0,.25,6.49,6.49,0,0,0,.23,1.59,29.86,29.86,0,0,0,2.26,5.84s0,.2,0,.57h0c0,.37,0,.92,0,1.6a23.5,23.5,0,0,1-1,5.08c-1.18,3.87-3.91,8.12-7.91,9.22L99,99.3c-.44.27-1,.7-1.82,1.16-1.58.94-3.58,2.27-5.78,3.58s-4.47,2.72-6.54,4a21.22,21.22,0,0,0-4.83,4s-.46,0-1.16.13-1.43.1-2.29.24a6.71,6.71,0,0,0-3,1.1l-.32.43c-.52.69-.82,1.06-.82,1.06h0a3.34,3.34,0,0,1,1.14-1.49l1.44-1.9c-.63.64-1.25,1.26-1.87,1.86a41.16,41.16,0,0,1-3.81,3.17c-1.91,1.32-3.55,2.15-4.59,2.15a1.3,1.3,0,0,1-.7-.17l-1.73.59a36,36,0,0,1-4.08,1.13c-.78.17-1.59.34-2.39.47s-1.6.19-2.35.23l-1,0a9.69,9.69,0,0,1-2-.18c.54.23,1.08.49,1.63.78a62.47,62.47,0,0,1,8.88,6c2.11,1.77,4.5,4.23,7,5.81A9,9,0,0,0,72.63,135a5.19,5.19,0,0,0,3.05-1c2.81-2.15,5-5.07,7.26-7.75a35.18,35.18,0,0,1,3.64-3.79l-.32.26c-.89.77-1.71,1.44-2.42,2.17s-1.35,1.4-1.89,2-1,1.19-1.36,1.68a17,17,0,0,0-1.1,1.62,17,17,0,0,1,1.1-1.62h0a17,17,0,0,0-1.1,1.62,17,17,0,0,1,1.1-1.62h0a17,17,0,0,0-1.1,1.62,17,17,0,0,1,1.1-1.62h0a17,17,0,0,0-1.1,1.62,17,17,0,0,1,1.1-1.62c.36-.49.82-1,1.36-1.68s1.17-1.34,1.89-2,1.53-1.4,2.42-2.17l.32-.26,0,0c.28-.25.84-.7,1.31-1.07s1-.76,1.5-1.12c.7-.5,1.36-1,2.06-1.38.88-.59,1.81-1.18,2.79-1.74,1.28-.74,2.64-1.45,4.06-2.16.89-.57,1.76-1.15,2.63-1.75a44.69,44.69,0,0,0,7.65-6.61,5.89,5.89,0,0,0,.51-.39,8.83,8.83,0,0,0,1.21-1.74c1-.9,2-1.82,3-2.77,1.51-3.16,3.34-6.46,4.54-9.79A24.84,24.84,0,0,0,119,84.83a12.51,12.51,0,0,0-.13-1.9,8.9,8.9,0,0,0-1-2.43l-.12-.13h0v-.06a.57.57,0,0,0-.08-.13h0c0-1.72.06-3.26.12-4.67,0-.58,0-1.17,0-1.73h0v-.11A14.38,14.38,0,0,1,118,70.8v-.28c0-.19,0-.37,0-.55a16.93,16.93,0,0,0-.59-4.29,12.85,12.85,0,0,0-2.14-4.36,45.61,45.61,0,0,0-3.5-4.1c-.35-.3-.72-.6-1.09-.89h0c.37.29.74.59,1.08.89a71.1,71.1,0,0,0-6.4-5.82c-3.52-2.9-7.17-5.37-10.29-7.68-3.68-2.5-6.68-4-8.18-5a.3.3,0,0,1-.13-.29h0a4.16,4.16,0,0,1,.83-1.86A17.13,17.13,0,0,1,90,33.87a4.71,4.71,0,0,0,.84-.88s0,0,0,0"/><path class="c" d="M86.58,122.5l-.32.26c-.89.77-1.71,1.44-2.42,2.17s-1.35,1.4-1.89,2h0c-.54.63-1,1.19-1.36,1.68h0a17,17,0,0,0-1.1,1.62,17,17,0,0,1,1.1-1.62c.36-.49.82-1,1.36-1.68s1.17-1.34,1.89-2,1.53-1.4,2.42-2.17l.32-.26h0m32.31-39.57h0a12.51,12.51,0,0,1,.13,1.9h0v-.18a13,13,0,0,0-.13-1.72h0m-1.07-2.56h0l.12.13h0l-.12-.13h0m-7.11-24c.37.29.74.59,1.09.89h0c-.35-.3-.72-.6-1.09-.89h0"/><path class="b" d="M81.81,59.76l-.7,0-.35,0,.48.09a30.48,30.48,0,0,1,7.25,2.44,25.22,25.22,0,0,0-6.68-2.58"/><path class="b" d="M50.51,61.86c-.76.5-1.54,1.07-2.27,1.62l-3.4,2.6c-.9.7-1.54,1.23-1.91,1.55l-.23.2.25-.08c.51-.48.77-.74,1.37-1.23l.78-.58L50.3,62l.21-.15"/><path class="b" d="M53.17,66H51.33c-1.3,0-2.42.14-3.34.23a2.69,2.69,0,0,1,.16.29h0a30.48,30.48,0,0,0-5.2,1.2l-.1.09-3.61,3.1a0,0,0,0,1,0,0h0s-.06.11,0,.15,0,0,0,0a1.93,1.93,0,0,0,.56-.37l0,0h0s-.06.07-.06.08-.51.49-.68.64l.14-.11h0L36.68,73.5c-1.25,1.06-2.46,2.12-2.47,2.12h0a1.68,1.68,0,0,1,.24-.23l-4.55,4L27,82c-.6.63-1.21,1.32-1.83,2.11a20.79,20.79,0,0,0-2.3,3.64,15.72,15.72,0,0,0-1.36,4.4c-.09.49-.18,1-.25,1.51.38-.27.76-.54,1.15-.8l5.33-3.78c1-.71,1.95-1.41,2.94-2.12l.76-.56.39-.28a.84.84,0,0,1,.21-.13l.59,0,4.76-.09,20.48-.52L68.21,85V85a13,13,0,0,0,.48-3.5c0-.82.11-2,.11-3.3a16.73,16.73,0,0,0-.22-2.88c-.36-2.33-1.44-4.48-2.83-5.43l-.05,0c-1.9-1-1.22-2.18-3.09-3h0a17.65,17.65,0,0,0-5.13-.65h-.3c-.6,0-1.14,0-1.57,0l-1,0c-.1,0-.16,0-.16,0h0a.14.14,0,0,0,0-.09c0-.13-.53-.16-1.4-.16"/><path class="b" d="M118,70.8a14.38,14.38,0,0,0-.19,2.87v.11c0,.56,0,1.15,0,1.73.08-1.71.16-3.24.18-4.71"/><path class="b" d="M76.88,71.17c0,.39,0,.78,0,1.17a24.4,24.4,0,0,1,1.76,3.41,23.53,23.53,0,0,1,1.08,3.09v-.16a11.25,11.25,0,0,0-.36-2.88,10.88,10.88,0,0,0-2.49-4.63"/><path class="b" d="M96.93,74.55c-.06.64-.15,1.39-.28,2.2-.24,1.66-.65,3.54-1,5.16A14.16,14.16,0,0,0,97,76.75c0-.28,0-.57,0-.86s0-.88-.06-1.34"/><path class="b" d="M117.82,80.31v.06l.12.13-.12-.19"/><path class="c" d="M117.82,80.31v.06h0v-.06h0"/><path class="b" d="M118.89,82.93a12.51,12.51,0,0,1,.13,1.9h0A24.84,24.84,0,0,1,117.83,92c.16-.42.3-.85.43-1.27a18,18,0,0,0,.89-5.28,11.13,11.13,0,0,0-.26-2.47"/><path class="b" d="M25.31,83.54l0,0-.87.82.36-.33.56-.53"/><path class="b" d="M18,90.6a.38.38,0,0,1-.09.08c-.69.59-3.81,3.52-5.14,4.72l-.13.12a1.44,1.44,0,0,1,.77-.32h.1c.32,0,.58.39.9,1A22.32,22.32,0,0,0,16,98.85c.05.09.11.18.17.27a22.48,22.48,0,0,1,1.22-4.38,28.41,28.41,0,0,1,1-3.28,3.52,3.52,0,0,0-.58.07,3,3,0,0,1-.39.07h-.11c-.06,0-.08,0-.08,0h0s0-.12.1-.2c.22-.27.72-.74.72-.75h0"/><path class="b" d="M12.66,95.52l-.24.19a4.6,4.6,0,0,0-.61.55h0s.25-.2.85-.74"/><path class="b" d="M17.82,101.34a7.62,7.62,0,0,0,1.18,1,2,2,0,0,1-.14-.52c-.36-.13-.72-.33-1-.48"/><path class="b" d="M113.29,101.74c-1,1-2,1.87-3,2.77a8.83,8.83,0,0,1-1.21,1.74c.49-.43,1.16-1.08,1.84-1.76a25.25,25.25,0,0,0,2.25-2.58,1.3,1.3,0,0,0,.08-.17"/><path class="b" d="M22.09,106.73a2.1,2.1,0,0,0-.19.85,1.38,1.38,0,0,0,.17.69,30.25,30.25,0,0,0,10.35,10.87,9.14,9.14,0,0,0,5.16,1.41H38a54.1,54.1,0,0,0,5.66-.83,9.14,9.14,0,0,1,1.48-.12,12.78,12.78,0,0,1,4.42.88,26.3,26.3,0,0,0-3.3-2c-.84.39-1.69.76-2.54,1.12a40.51,40.51,0,0,1-6.17.84,9.1,9.1,0,0,1-5-1.42,30.18,30.18,0,0,1-10.35-10.85,1.46,1.46,0,0,1-.18-.7h0a2,2,0,0,1,.14-.71"/><path class="b" d="M98.33,115c-1.42.71-2.78,1.42-4.06,2.16-1,.56-1.91,1.15-2.79,1.74l1-.57c1.53-.81,3-1.61,4.43-2.43.5-.29,1-.59,1.45-.9"/><path class="d" d="M65.93,65.29a1.18,1.18,0,0,1-.19.11c-.29.18-.58.33-.84.47a4.53,4.53,0,0,0-.34.55l-.51-.13a15.31,15.31,0,0,1-1.42.59l.12,0c1.83.77,1.21,1.94,3,2.92l0,0h0l.11.06c1.38,1,2.47,3.12,2.81,5.46a16.66,16.66,0,0,1,.21,2.78h0c0,1.36-.11,2.58-.13,3.42A13.14,13.14,0,0,1,68.29,85L69,85l5.71-.2,1.45,0,.36,0h.09v-.18l0-.5c0-.66.09-1.33.14-2,.1-3,.14-6,.14-8.84v-.88a23.29,23.29,0,0,0-2.46-3.29,18.47,18.47,0,0,0-6.61-2.6l-.52-.32c-.32-.2-.75-.48-1.28-.79l-.09,0"/><path class="d" d="M68.29,85h-.08a12.38,12.38,0,0,1-.48,1.38,8.25,8.25,0,0,1-5.25,4.5,6.64,6.64,0,0,0-1.13.29,5.75,5.75,0,0,0-1.05.53A13,13,0,0,0,58.38,93c-.58.49-1.18,1-1.84,1.44a10.56,10.56,0,0,1-2.17,1.23c-3.26,1.6-5.29,3.36-8.79,4.68a37.09,37.09,0,0,0-10.3,2.67,2.75,2.75,0,0,0-1,1.24c-.17.56-1.16.74-1.58,1.08q-.37,0-.75,0a21.39,21.39,0,0,1-3.07-.29,20.89,20.89,0,0,0-3-.3,6,6,0,0,0-2.64.54,2.54,2.54,0,0,0-1.15,1.37,2.47,2.47,0,0,1,1.09-1.23,6,6,0,0,1,2.65-.54,21,21,0,0,1,3,.3,22.91,22.91,0,0,0,3.08.29l.73,0c.42-.35,1.41-.52,1.59-1.09a2.75,2.75,0,0,1,1-1.24,37.48,37.48,0,0,1,10.32-2.67c3.5-1.32,5.53-3.07,8.8-4.68a9.88,9.88,0,0,0,2.17-1.23c.66-.46,1.27-.94,1.86-1.43a12.22,12.22,0,0,1,1.91-1.32,7.1,7.1,0,0,1,1.07-.53A5.62,5.62,0,0,1,62.5,91a9.73,9.73,0,0,0,2.68-1.33,6.92,6.92,0,0,0,1.9-1.95,9,9,0,0,0,.7-1.22,11.2,11.2,0,0,0,.49-1.45l0-.06"/><path class="e" d="M62.63,66.88h0c1.87.77,1.19,2,3.09,3-1.75-1-1.13-2.15-3-2.92l-.12,0"/><path class="e" d="M65.76,69.86c1.39,1,2.47,3.1,2.83,5.43a16.73,16.73,0,0,1,.22,2.88h0c0,1.3-.1,2.48-.11,3.3a13,13,0,0,1-.48,3.5V85h.08a13.14,13.14,0,0,0,.47-3.45c0-.84.13-2.06.13-3.42a16.66,16.66,0,0,0-.21-2.78c-.34-2.34-1.43-4.51-2.81-5.46l-.11-.06"/><path class="e" d="M68.29,85h0m8.6-12.69v.88h0c0,2.87,0,5.81-.14,8.84,0,.67-.1,1.34-.14,2l0,.5v.18h-.09l-.36,0-1.45,0L69,85l-.66,0,0,.06a11.2,11.2,0,0,1-.49,1.45,9,9,0,0,1-.7,1.22,6.92,6.92,0,0,1-1.9,1.95A9.73,9.73,0,0,1,62.5,91a5.62,5.62,0,0,0-1.13.3,7.1,7.1,0,0,0-1.07.53,12.22,12.22,0,0,0-1.91,1.32c-.59.49-1.2,1-1.86,1.43a9.88,9.88,0,0,1-2.17,1.23c-3.27,1.61-5.3,3.36-8.8,4.68a37.48,37.48,0,0,0-10.32,2.67,2.75,2.75,0,0,0-1,1.24c-.18.57-1.17.74-1.59,1.09l-.73,0a22.91,22.91,0,0,1-3.08-.29,21,21,0,0,0-3-.3,6,6,0,0,0-2.65.54,2.47,2.47,0,0,0-1.09,1.23,2,2,0,0,0-.14.71,1.46,1.46,0,0,0,.18.7A30.18,30.18,0,0,0,32.48,119a9.1,9.1,0,0,0,5,1.42,40.51,40.51,0,0,0,6.17-.84c.85-.36,1.7-.73,2.54-1.12l-.29-.14a10.11,10.11,0,0,0-4.33-1.24,4.29,4.29,0,0,0-2.26.59s-1-.17-2.29-.47a35.93,35.93,0,0,1-4.53-1.43c-2-.83-3.62-1.87-3.62-2.94h0c0-.54.41-1.08,1.37-1.6L32,109.65c.95-.84,2.09-1.83,2.89-2.39,0,0,6.6-1.5,13.25-3.66,3.34-1,6.65-2.31,9.33-3.26a20,20,0,0,1,5-1.46,1,1,0,0,1,.33,0s.47-.17,1.27-.52a25.37,25.37,0,0,0,3.26-1.71,29.2,29.2,0,0,0,8.8-8,17.44,17.44,0,0,0,3.63-9.84,23.53,23.53,0,0,0-1.08-3.09,24.4,24.4,0,0,0-1.76-3.41"/><path class="f" d="M80.76,59.81c-.41,0-.92.07-1.5.14A37.24,37.24,0,0,0,73.72,61a26.53,26.53,0,0,0-5.63,2.22,11.37,11.37,0,0,0-2.52,1.83l.36.22.09,0c.53.31,1,.59,1.28.79l.52.32a18.47,18.47,0,0,1,6.61,2.6,13.23,13.23,0,0,1,1.17.88,10.76,10.76,0,0,1,1.28,1.24,10.88,10.88,0,0,1,2.49,4.63,11.25,11.25,0,0,1,.36,2.88h0v.16a17.44,17.44,0,0,1-3.63,9.84,29.2,29.2,0,0,1-8.8,8A25.37,25.37,0,0,1,64,98.4c-.8.35-1.27.52-1.27.52a1,1,0,0,0-.33,0,20,20,0,0,0-5,1.46c-2.68,1-6,2.21-9.33,3.26-6.65,2.16-13.25,3.66-13.25,3.66-.8.56-1.94,1.55-2.89,2.39l-1.71,1.57c-1,.52-1.36,1.06-1.37,1.6,0,1.07,1.62,2.11,3.62,2.94a35.93,35.93,0,0,0,4.53,1.43c1.33.3,2.29.47,2.29.47a4.29,4.29,0,0,1,2.26-.59,10.11,10.11,0,0,1,4.33,1.24,25.54,25.54,0,0,1,3.59,2.17l.22.17a4.28,4.28,0,0,0,.81.26,9.69,9.69,0,0,0,2,.18l1,0c.75,0,1.55-.12,2.35-.23s1.61-.3,2.39-.47a36,36,0,0,0,4.08-1.13l1.73-.59a1.3,1.3,0,0,0,.7.17c1,0,2.68-.83,4.59-2.15a41.16,41.16,0,0,0,3.81-3.17c.62-.6,1.24-1.22,1.87-1.86.12-.16.24-.33.37-.49s.44-.61.67-.93.46-.66.8-1.08c.61-.79,1.29-1.66,1.87-2.48L80.5,104c.61-.89,1.23-1.78,1.78-2.73L84,98.55c.58-.9,1.06-1.85,1.59-2.72,1.06-1.75,2-3.42,2.91-4.91,1.77-3,3.28-5.23,4.89-5.75a6,6,0,0,0,.49-.52A13.75,13.75,0,0,0,95,83.07a11.24,11.24,0,0,0,.62-1.16c.38-1.62.79-3.5,1-5.16.13-.81.22-1.56.28-2.2a14.48,14.48,0,0,0-2.68-7.11,17.53,17.53,0,0,0-5.76-5.1,30.48,30.48,0,0,0-7.25-2.44l-.48-.09"/><path class="g" d="M79.91,50.11a29.42,29.42,0,0,0-4,.28c-1.33.17-2.61.46-3.81.73l-1.74.51-1.53.46a41.39,41.39,0,0,0-4,1.43l-1.37.59a12.82,12.82,0,0,0-3.56,2.23,5,5,0,0,0-1.2,2c-.27.71-.56,1.55-.86,2.23s-.52,1.11-.52,1.11c-1.13.87-1.62,1.44-1.61,1.86a.47.47,0,0,0,.1.3c.31.45,1.34.74,2.64,1.06s2.81.67,4,1l1.57.43.51.13a4.53,4.53,0,0,1,.34-.55,9.38,9.38,0,0,1,3.19-2.63A26.53,26.53,0,0,1,73.72,61,37.24,37.24,0,0,1,79.26,60c.76-.09,1.4-.14,1.85-.16l.7,0a25.22,25.22,0,0,1,6.68,2.58,17.53,17.53,0,0,1,5.76,5.1,14.48,14.48,0,0,1,2.68,7.11c0,.46.06.91.06,1.34h0c0,.29,0,.58,0,.86a14.16,14.16,0,0,1-1.35,5.16A11.24,11.24,0,0,1,95,83.07a13.75,13.75,0,0,1-1.13,1.58,6,6,0,0,1-.49.52c-1.61.52-3.12,2.77-4.89,5.75-.88,1.49-1.85,3.16-2.91,4.91-.53.87-1,1.82-1.59,2.72l-1.71,2.74c-.55.95-1.17,1.84-1.78,2.73l-1.79,2.63c-.58.82-1.26,1.69-1.87,2.48-.34.42-.57.75-.8,1.08s-.45.64-.67.93-.25.33-.37.49l-1.44,1.9a6.71,6.71,0,0,1,3-1.1c.86-.14,1.62-.18,2.29-.24s1.16-.13,1.16-.13a21.22,21.22,0,0,1,4.83-4c2.07-1.28,4.28-2.72,6.54-4s4.2-2.64,5.78-3.58C98,100,98.54,99.57,99,99.3l.67-.45c4-1.1,6.73-5.35,7.91-9.22a23.5,23.5,0,0,0,1-5.08c0-.68,0-1.23,0-1.6s0-.57,0-.57a29.86,29.86,0,0,1-2.26-5.84,6.49,6.49,0,0,1-.23-1.59h0a2.28,2.28,0,0,1,0-.25c0-.47,0-.94,0-1.41a22,22,0,0,0-6-14.71,27.24,27.24,0,0,0-15.77-8.15,31.7,31.7,0,0,0-4.41-.32"/><path class="g" d="M73.56,113.53A3.34,3.34,0,0,0,72.42,115s.3-.37.82-1.06l.32-.43"/><path class="h" d="M57.57,57.35h0a19.28,19.28,0,0,0-2.72,1.5c-1.35.84-2.92,2-4.32,3L50.3,62l-5.2,3.93-.78.58c-.6.49-.86.75-1.37,1.23a30.48,30.48,0,0,1,5.2-1.2,2.69,2.69,0,0,0-.16-.29,2.12,2.12,0,0,0-.38-.47l-.32,0c-.27,0-.39-.06-.39-.18h0c0-.14.18-.37.48-.67a31.48,31.48,0,0,1,3-2.19c.51-.34,1.34-.78,1.85-1.11a24.57,24.57,0,0,0,2-1.53,20.21,20.21,0,0,1,2.39-1.71c.75-.44,1.1-.84,1.1-1s0-.07-.09-.07"/><path class="h" d="M44.65,66.14l-.45.36c-.3.23-.58.45-.82.66a8.61,8.61,0,0,0,1.27-1m1.29-1,0,0a6.53,6.53,0,0,0-1,.8l0,0,.19-.14.25-.2.57-.42c.09-.07.13-.1.13-.11h0"/><path class="h" d="M42.72,67.58l-.11.07a12,12,0,0,1-1.08.61c.28-.12.09,0,.67-.25l.08,0,.38-.35.06,0"/><path class="h" d="M43,67.75l-.39.13L39.29,70.8l-4.38,4L32.5,77l-1.12,1-1.69,1.53-1,.9h0l-1.2,1.1L27,82l2.88-2.63,4.55-4h0a1.68,1.68,0,0,0-.24.23h0s1.22-1.06,2.47-2.12l2.54-2.18h0l-.14.11h0c.17-.15.58-.53.68-.64s.06-.07.06-.08h0l0,0a1.93,1.93,0,0,1-.56.37s0,0,0,0h0s0-.11,0-.15a0,0,0,0,0,0,0h0l3.61-3.1.1-.09"/><path class="h" d="M41.53,68.26h0l0,0,.05,0"/><path class="h" d="M27.94,81.07l-1.15,1.06-.61.59,1.31-1.21.45-.44"/><path class="h" d="M24.75,84.07l-.36.33c-.46.43-1,.93-1.89,1.81S20.67,88,19.92,88.89a9.46,9.46,0,0,0-1.56,2.57,28.41,28.41,0,0,0-1,3.28,18.8,18.8,0,0,0-1.22,4.64,1.57,1.57,0,0,0,1.13,1.75,4.05,4.05,0,0,1,.56.21c.32.15.68.35,1,.48l.1,0a2.52,2.52,0,0,0,.77.14.72.72,0,0,0,.67-.29,4.16,4.16,0,0,1-1.3-2.09,12.67,12.67,0,0,1-.85-3.53h0a4.73,4.73,0,0,1,.16-1.26,19.34,19.34,0,0,1,2.28-5.46,23,23,0,0,1,1.61-2.57,25.56,25.56,0,0,1,2.45-2.72"/><path class="i" d="M113.5,58.87a21,21,0,0,1,1.9,2.44,21,21,0,0,0-1.9-2.44"/><path class="i" d="M115.4,61.31a15.83,15.83,0,0,1,2.16,4.56,15.83,15.83,0,0,0-2.16-4.56"/><path class="i" d="M117.6,66a14.2,14.2,0,0,1,.58,3.19A14.2,14.2,0,0,0,117.6,66"/><path class="a" d="M111.79,57.22h0a16.43,16.43,0,0,1,1.64,1.57h0l.07.08a21,21,0,0,1,1.9,2.44h0a15.83,15.83,0,0,1,2.16,4.56l0,.06,0,.07a14.2,14.2,0,0,1,.58,3.19h0c0,.27,0,.5,0,.68h0c0-.18,0-.41,0-.68a14.08,14.08,0,0,0-.6-3.26,16.06,16.06,0,0,0-2.18-4.62,20.63,20.63,0,0,0-2-2.52,16.43,16.43,0,0,0-1.64-1.57"/><path class="i" d="M110.71,56.33c.37.29.74.59,1.09.89a17.49,17.49,0,0,1,1.63,1.57,21.91,21.91,0,0,0-2.72-2.46"/><path class="a" d="M118.2,69.87c0,.34,0,.52,0,.52h0a3.2,3.2,0,0,0,0-.52h0"/><path class="i" d="M118.2,69.87a3.2,3.2,0,0,1,0,.52,3.2,3.2,0,0,0,0-.52"/><path class="i" d="M118.18,70.39a1.5,1.5,0,0,0-.14.41,14.38,14.38,0,0,0-.19,2.87A14.38,14.38,0,0,1,118,70.8a1.5,1.5,0,0,1,.14-.41"/><path class="i" d="M117.85,73.78c0,.67,0,1.38,0,2.07,0-.69,0-1.4,0-2.07"/><path class="i" d="M117.87,76.48c0,1.86,0,3.49-.05,3.83v.06c0-.06.05-1.84.05-3.89"/><path class="j" d="M117.82,80.31v.06h0v-.06h0"/><path class="i" d="M117.82,80.37l.12.13a5.12,5.12,0,0,1,1,2.43,13,13,0,0,1,.13,1.72,13,13,0,0,0-.13-1.72,5.12,5.12,0,0,0-1-2.43l-.12-.13"/><path class="j" d="M118.89,82.93a13,13,0,0,1,.13,1.72v.18h0a12.51,12.51,0,0,0-.13-1.9h0"/><path class="a" d="M117.83,92h0c-.07.25-.15.49-.24.74A40.72,40.72,0,0,1,114.9,99c-.41.82-.8,1.47-1.07,1.93l-.42.71-.12.11h0l.12-.11h0l.42-.71h0c.27-.45.64-1.09,1-1.89l0,0h0a42.1,42.1,0,0,0,2.62-6.08l.07-.22,0-.13c.06-.2.13-.4.19-.61"/><path class="i" d="M117.52,92.91A42.1,42.1,0,0,1,114.9,99a42.1,42.1,0,0,0,2.62-6.08"/><path class="i" d="M114.88,99c-.41.8-.78,1.44-1,1.89.27-.45.64-1.09,1-1.89"/><path class="i" d="M113.83,100.92l-.42.71s.16-.26.42-.71"/><path class="a" d="M109.12,106.25h0c-.27.31-.58.63-.92,1-1.1,1.09-2.45,2.32-3.74,3.45l-.95.82-1,.73-1.71,1.22-1.61,1.14-.88.43h0l.88-.43h0l1.61-1.14h0l1.71-1.22h0l1-.73h0l.95-.82c1.29-1.13,2.64-2.36,3.74-3.45.34-.33.65-.65.92-1"/><path class="i" d="M103.51,111.48l-1,.73,1-.73"/><path class="i" d="M102.53,112.21l-1.71,1.22,1.71-1.22"/><path class="i" d="M100.82,113.43l-1.61,1.14,1.61-1.14"/><path class="a" d="M91.48,118.9h0l-1.47,1c-.69.49-1.41,1-2.07,1.52-.34.25-.66.51-1,.76l-.37.3h0l.37-.3h0c.33-.25.65-.51,1-.76h0c.66-.51,1.38-1,2.07-1.52h0l.07,0c.45-.32.92-.65,1.4-1"/><path class="i" d="M90,119.92c-.69.49-1.41,1-2.07,1.52.66-.51,1.38-1,2.07-1.52"/><path class="i" d="M87.94,121.44c-.34.25-.66.51-1,.76.33-.25.65-.51,1-.76"/><path class="i" d="M119,84.83A24.84,24.84,0,0,1,117.83,92c-.06.21-.13.41-.19.61A25.62,25.62,0,0,0,119,84.83"/><path class="i" d="M94.27,117.16c-1,.56-1.91,1.15-2.79,1.74-.48.32-1,.65-1.4,1a49.73,49.73,0,0,1,4.19-2.71"/><path class="i" d="M82,127c-.54.63-1,1.19-1.36,1.68.36-.49.82-1,1.36-1.68"/><path class="k" d="M45.23,65.69l-.24.17L44.8,66l-.59.43c-.55.4-1,.75-1.49,1.15l-.06,0-.38.35L39.8,70.23l-6.16,5.66-.56.49c-.19.15-.68.58-1.23,1.08L30.47,78.7c-.24.23-.16.14-.66.6s-1.2,1.11-1.87,1.77l-.45.44,1.2-1.1h0l1-.9L31.38,78l1.12-1,2.41-2.15,4.38-4,3.27-2.92.65-.58c.28-.24.61-.51,1-.8l.45-.36.58-.45"/><path class="k" d="M27.49,81.51l-1.31,1.21-.49.46c-.13.12-.26.23-.38.36l-.56.53a25.56,25.56,0,0,0-2.45,2.72,23,23,0,0,0-1.61,2.57,19.34,19.34,0,0,0-2.28,5.46,4.73,4.73,0,0,0-.16,1.26,12.67,12.67,0,0,0,.85,3.53,4.16,4.16,0,0,0,1.3,2.09h0c.32-.08.77,0,1.11-.13s.49-.15.49-.31a.35.35,0,0,0,0-.13c-.16-.69-.9-1.14-1.1-1.76a2.33,2.33,0,0,1-.37-1.29h0a2,2,0,0,1,0-.36,10.51,10.51,0,0,1,.49-1.6,31.62,31.62,0,0,1,.51-4,15.72,15.72,0,0,1,1.36-4.4,20.79,20.79,0,0,1,2.3-3.64,30.86,30.86,0,0,1,2.3-2.59"/><path d="M102.4,93.34c2.3,1,4.63,1.89,6.89,3a2.88,2.88,0,0,1,1.43,1.6,39.83,39.83,0,0,1,.73,3.95,5.72,5.72,0,0,1-3.37,6.43c-4.36,2.13-8.59,4.51-12.91,6.74-3.12,1.61-6.31,3.1-9.43,4.71-5.46,2.79-10.88,5.65-16.33,8.46-3.71,1.92-4.5,1.51-5.07-2.56a.76.76,0,0,1,0-.21c.88-5.22-3-6.94-6.57-8.72-4.36-2.16-8.82-4.1-13.34-6.19a15.84,15.84,0,0,0-1,1.55c-1.85,3.58-6.51,4.37-8.72,1.1-1.05-1.56-1.22-4.09-.94-6.07.25-1.81-.13-2.5-1.63-3.26C26,100.73,20,97.5,13.9,94.33a10.61,10.61,0,0,0-1-.42c0,3.18-.1,6.27.07,9.36,0,.63,1,1.38,1.65,1.78,7.79,4.56,15.48,9.32,23.48,13.5,7.61,4,15.2,8.19,23.84,9.82,1,.19,2.86-.66,2.82,1.82a22.59,22.59,0,0,1-9.3-1.68,166.81,166.81,0,0,1-24.94-12.2q-8.66-5.1-17.42-10a3.5,3.5,0,0,1-2-3.58,43.87,43.87,0,0,0-.33-5.95c-.49-4.8,1.72-7.05,6.48-9.86q14.53-8.58,29-17.29c1.87-1.13,3.49-2.82,5.48-3.5,1.29-.44,3.14.27,4.55.88,1,.45,1.78,1.59,2.85,2.61l1.2-1.42c-2-1.32-3.87-2.49-5.64-3.8-.32-.25-.2-1.08-.29-1.65l2.47.2c-.17-1.6-.38-3.33-.5-5.06a1.93,1.93,0,0,1,.51-1.08C61.57,51,66.25,45.08,71.13,39.36c3.59-4.21,7.44-8.2,11.17-12.29a11.39,11.39,0,0,1,1.27-1.41c1.34-1.06,2.52-.8,4.06,0C93.73,29,100,32,106.19,35.16c0-.53-.08-1.25-.15-2A2.94,2.94,0,0,1,108.32,30a3.25,3.25,0,0,1,2.88,1,16.47,16.47,0,0,1,2.9,6,7.91,7.91,0,0,0,4.37,6c4.63,2.55,9.23,5.15,13.85,7.71a1.25,1.25,0,0,0,1,.19c1.65-.76,1.72.35,1.86,1.46.28,2.19-.47,4.56,1.28,6.51.19.21-.27,1.18-.62,1.66q-5.11,7-10.32,14c-2.62,3.53-5.27,7-7.89,10.56-2.45,3.28-4.85,6.6-7.37,9.82a1.9,1.9,0,0,1-1.73.13c-1.27-.6-2.4-1.49-3.67-2.09a7.88,7.88,0,0,0-2.27-.37C102.5,92.83,102.45,93.08,102.4,93.34ZM132,52.06c-1.58-.72-2.92-1.19-4.14-1.9q-8.25-4.78-16.43-9.67C106.67,37.67,102,34.7,97.2,32,93.92,30.19,90.46,28.7,87,27.16c-.72-.32-2-.56-2.41-.18a90.83,90.83,0,0,0-7.89,7.93c-5.83,6.88-11.43,14-17.21,20.87-1.19,1.43-.8,2.18.47,3,2,1.35,3.88,2.86,5.94,4.09,5.64,3.38,11.34,6.65,17,10,3.87,2.24,7.77,4.43,11.65,6.65l12.62,7.25C115.59,75.06,123.73,63.65,132,52.06ZM71.62,80.13l5.14,3.74a52.49,52.49,0,0,0,5.35,3.9c4.75,2.66,9.62,5.11,14.45,7.62,2.1,1.1,2.28,2.63.24,3.92s-4.07,2.2-6.12,3.26q-11.93,6.18-23.85,12.33c-2,1-3.84,1.5-5.62-.55a8.89,8.89,0,0,0-2.72-1.64c-2.75-1.41-5.52-2.79-8.28-4.17l-4.73-2.37c-5.55-2.77-11.1-5.56-16.66-8.3-3.42-1.69-6.87-3.3-10.28-5a9.52,9.52,0,0,1-1.37-1,6.44,6.44,0,0,1,1.29-1.52c.95-.59,2.08-.86,3-1.44,4-2.47,8-5,12-7.51,1.08-.69,2.07-1.51,3.16-2.18,4-2.45,8-4.79,12-7.3,2.85-1.81,5.65-2.18,8.68-.52,1.81,1,3.69,1.84,5.54,2.76a72.54,72.54,0,0,0-6.77-5.35,4.24,4.24,0,0,0-5.24-.11c-2,1.3-4,2.78-6,4-6.55,4-13.15,7.82-19.73,11.75-3.81,2.28-7.6,4.6-11.75,7.12a14.19,14.19,0,0,0,1.81,1.51c3,1.65,6,3.28,9,4.86,7.4,3.87,14.78,7.78,22.23,11.56,4.55,2.3,9.2,4.39,13.79,6.61a3.82,3.82,0,0,1,1.65,1.25c1,1.74,2.16,1.4,3.51.61,1.84-1.08,3.66-2.2,5.55-3.18,4.77-2.5,9.54-5,14.37-7.36,5.19-2.55,10.45-5,15.7-7.43,2-1,4.13-1.83,6.55-2.9-1.41-.52-2.32-.9-3.26-1.19-.32-.1-1-.09-1,0-.51,1.75-1.41.63-2.12.29-3-1.45-6-2.88-8.87-4.42-2.09-1.11-4.77-1.68-4.89-4.86,0-.33-.69-.66-1.09-.93-4.63-3.18-9.27-6.34-14.39-9.84l1.31,2.68ZM109,98.23c-1.28.54-2.5,1-3.7,1.57-5.1,2.27-10.29,4.34-15.25,6.86-7.58,3.85-15,8.06-22.51,12a3.11,3.11,0,0,0-1.82,3.6c.17,1.23.29,2.47.45,3.7.13,1.07.59,1.56,1.73,1,3.17-1.51,6.4-2.91,9.51-4.51s5.88-3.41,8.88-5c6.19-3.23,12.44-6.33,18.64-9.53,1.71-.88,4.1-1.55,4.79-3s-.14-3.86-.33-5.85A5.48,5.48,0,0,0,109,98.23Zm-.38-9.74c-9.47-3.57-17.14-9.32-25.42-13.9S66.65,64.92,58.38,60A28.92,28.92,0,0,0,58,63.55c0,1.43,2.37,3.1,3.65,3a4.58,4.58,0,0,1,2.76.46c4.08,2.67,8,5.53,12.09,8.24,3,2,6.19,3.92,9.29,5.88,1.48.93,2.91,2,4.47,2.76,3.21,1.6,6.54,3,9.74,4.58,3,1.52,5.93,3.22,8.88,4.85l.73-.42C109.23,91.2,108.83,89.52,108.58,88.49Zm24.92-35.9c-1.18,1.47-2.24,2.66-3.17,4-6.32,8.85-12.52,17.79-19,26.55-2,2.65-1.7,5.05-.66,8,2.68-3.24,5.27-6.18,7.64-9.29q6.6-8.7,13-17.57a16.3,16.3,0,0,0,2.93-5.72C134.62,56.79,133.83,54.8,133.5,52.59Zm-71.22,25a20.83,20.83,0,0,1-2.52.6c-2.23.17-3.44,2-5.15,3-5.42,3.16-11,6-16.48,9.1a16.56,16.56,0,0,0-3.69,2.87,7.13,7.13,0,0,0-1,2.49c1.09.32,2.21,1,3.24.86A10.64,10.64,0,0,0,40.16,95c4.26-2.33,8.55-4.62,12.74-7.07,3.51-2.07,6.93-4.29,10.29-6.58a2.48,2.48,0,0,0,.9-2.16C63.83,78.48,62.82,78,62.28,77.6Zm-13,27.08a40,40,0,0,0,5-1.85c6.52-3.43,13-6.92,19.42-10.54,1.22-.69,2.78-1.75,1.62-3.75-1-1.74-2.18-2.13-4.2-1q-9.37,5.5-18.65,11.16a27.23,27.23,0,0,0-4.25,3.31,2.41,2.41,0,0,0-.37,1.91C47.9,104.26,48.73,104.42,49.31,104.68Zm-10.47-4.33c1.85-.21,3.39,0,4.59-.58,4.88-2.21,9.74-4.49,14.44-7a111,111,0,0,0,9.72-6.28,25.1,25.1,0,0,0,3.07-3c-2.11-1.94-4.1-1.29-5.72-.43-3.92,2.1-7.68,4.52-11.52,6.78-3.29,1.93-6.62,3.78-9.9,5.72C41.75,96.6,39.72,97.44,38.84,100.35Zm18.63,9.54.23.92a5.72,5.72,0,0,0,2.27,0c6.47-3.09,12.93-6.2,19.31-9.46,2.68-1.37,5.19-3.11,7.77-4.7,1.49-.92,1-2.24.4-3.35-.13-.23-1.49-.05-2.09.29q-11.73,6.58-23.4,13.3C60.4,107.75,59,108.87,57.47,109.89ZM57.27,76c-.89-.27-1.75-.86-2.34-.67a34.19,34.19,0,0,0-6.31,2.6c-3.5,2-6.82,4.32-10.27,6.43s-6.88,4-10.22,6.1c-.69.45-.92,1.6-1.5,2.67C30.14,93.19,54.63,79.36,57.27,76Zm5.24,36.65.23,1.07a5.23,5.23,0,0,0,2,0c5.32-2.42,10.67-4.8,15.88-7.45,4.12-2.09,8-4.59,12.09-6.82,1.38-.75,1.19-1.44.17-2.16-1.63-1.15-3.17-.94-4.9.13-6,3.75-12.18,7.36-18.29,11C67.32,109.82,64.91,111.22,62.51,112.64ZM83.56,91.51l-.13-.8a15.4,15.4,0,0,0-3.28.35,18.27,18.27,0,0,0-3.39,1.71c-5.08,2.91-10.18,5.79-15.2,8.81-2.41,1.44-4.7,3.11-7,4.78-.44.33-.52,1.13-.77,1.71a6.22,6.22,0,0,0,2-.2c3.29-1.56,6.6-3.1,9.8-4.84,5.93-3.22,11.79-6.58,17.67-9.89.16-.09.25-.31.44-.57l-1-.22C83,92.08,83.26,91.79,83.56,91.51ZM35.84,105.89a21.38,21.38,0,0,0-.59,2.22c-.62,3.63,1.29,6,4.54,5.25,1.06-.24,1.9-1.81,2.57-2.94.13-.21-.91-1.33-1.58-1.76C39.24,107.67,37.59,106.85,35.84,105.89Zm64.78-12c-.09-.56-.34-1.06-.19-1.35,1.28-2.45-.66-2.46-2.11-3-2.6-1-5.14-2.1-7.72-3.17-1.13,2.22-1.15,2.26,1,3.27C94.5,91.07,97.48,92.43,100.62,93.9ZM71.52,74.17c-1-.56-2-1.06-2.89-1.68-1.64-1.09-3.19-2.31-4.84-3.37a4.38,4.38,0,0,0-1.74-.22,5.25,5.25,0,0,0,.16,1.75,4.56,4.56,0,0,0,1.27,1.62c2.18,1.74,4.41,3.41,6.5,5C70.52,76.21,71,75.3,71.52,74.17ZM109,31c-1.22,1.22-1.75,3-1.07,3.64,1.38,1.29,2.86,2.47,4.33,3.72,0,.2.06.6.09,1l.59-.12C112.55,36.1,112,33.05,109,31ZM31.88,97.74c-.12-1.49-.21-2.72-.32-4.11l-4.34,1.6Zm48.23-8.83.14-.83-3.46-2c.17,1.75.32,3.36.48,5.1.18-.18.71-.47.88-.9a6.17,6.17,0,0,0,.25-1.66Z"/><path d="M126.23,53.51c-14.85-5.19-26.78-16.1-41.44-22.39-4.15,4.75-8.37,9.62-12.63,14.45-2.53,2.86-5.09,5.71-7.72,8.49-1.78,1.88-1.74,2.63.43,4,8.42,5.33,16.77,10.77,25.26,16,3.29,2,6.9,3.51,10.35,5.27a20.17,20.17,0,0,1,3.3,2c.48.38.61,1.2.9,1.83l-.79.63q-16-9.6-32.06-19.22c-3.57-2.15-7.1-4.39-10.67-6.55-1.19-.72-.66-1.29,0-2,2.57-2.81,5.12-5.65,7.66-8.48Q76.36,39,83.88,30.6A20.36,20.36,0,0,0,85.56,28c.26.11.81.24.81.37,0,2.53,2.28,2.75,3.82,3.68,6.79,4.11,13.54,8.27,20.41,12.25,3.52,2.05,7.23,3.77,10.88,5.59,2.28,1.14,4.61,2.19,7.39,3.5a16,16,0,0,0-2.74,2.35c-2.59,3.6-5,7.34-7.59,11-3.19,4.49-6.49,8.9-9.72,13.37A17.06,17.06,0,0,1,106,83.52c0-.6-.25-1.39,0-1.76,1.73-2.22,3.78-4.21,5.36-6.53,3.44-5,6.6-10.26,10-15.34C122.81,57.68,124.57,55.65,126.23,53.51Z"/></svg>