<svg xmlns="http://www.w3.org/2000/svg" viewBox="0 0 150 150"><defs><style>.a{fill:#edc1c5;}.b{fill:#e9b6bb;}.c{fill:#d1747c;}.d{fill:#cf6e76;}.e{fill:#d67e84;}.f{fill:#df999f;}.g{fill:#f1d1d4;}.h{fill:#dd9399;}.i{fill:#faeced;}.j{fill:#e2a3a9;}.k{fill:#e1a1a7;}</style></defs><title>icon</title><path class="a" d="M65.26,91.85h0a2.69,2.69,0,0,0-.71.82h0a2.69,2.69,0,0,1,.71-.82m3.95-2.12h0a11.5,11.5,0,0,1-2.14,1.35h0l-.23,0h0l.23,0a11.6,11.6,0,0,0,2.14-1.35M71,87.41h0a6.23,6.23,0,0,1-.75,1.67h0A6.23,6.23,0,0,0,71,87.41M70.5,84.9h0a2.1,2.1,0,0,1,.46.68h0a2.1,2.1,0,0,0-.46-.68m0-1h0a7.83,7.83,0,0,0-.07.92h0a7.83,7.83,0,0,1,.07-.92m.57-1.53h0a1.08,1.08,0,0,1-.15.65h0l-.09,0h0l.09,0a1.16,1.16,0,0,0,.15-.66h0"/><path class="b" d="M109.56,63.2a.85.85,0,0,0-.08.24,1.84,1.84,0,0,1,.31-.2l-.23,0"/><path class="b" d="M107.67,64.1h-.33c-.85.19-.84,1-1.3,1.5a3.11,3.11,0,0,1-1.23.22h0c-.52,0-.61.3-.61.66,0,.19,0,.4,0,.59v0a.49.49,0,0,1,0,.12c0,.69-1.18.81-1.41,1.41a.93.93,0,0,0-.09.45c0,.48.22,1,.22,1.49a.57.57,0,0,1-.44.63h.09c.11,0,.15,0,.15.14a1.8,1.8,0,0,1-.38.8c-.32.47-.76.93-.94.93s-.08,0-.08-.11h-.07a2.67,2.67,0,0,1-.84-.23,4.13,4.13,0,0,1-.66-.44c-.56-.89-2-1.66-3-2.45h0a7.07,7.07,0,0,0-.78.61,2.72,2.72,0,0,1-1.55.61h-.12c-.61-.06-1.24-.17-1.75-.17a1.32,1.32,0,0,0-.85.22h0c0,.17.48.57.48.74h0s0,0,0,.06c0,.34.44,1.86.73,3.38A15.32,15.32,0,0,1,93.24,78c0,.4,0,.66-.17.69a3.06,3.06,0,0,1-1.82-.81c-1.36-1.25-2.29-1.43-3.53-2.32-.33-.25-.63-.66-1-.91a8,8,0,0,0-2.34-1.3h0a2.36,2.36,0,0,0-.55-.07c-.45,0-.71.19-.71.56v0h0l-.56.44a14.68,14.68,0,0,0,.5,1.51c.24.69.5,1.17.5,1.34s0,.07-.06.07h0a17.92,17.92,0,0,1,1.6,3.3l.61.43c0-.16-.12-.41-.2-.69a14.35,14.35,0,0,1-.4-1.75,4.63,4.63,0,0,1,0-.51c0-.49.14-.84.59-.84a3.11,3.11,0,0,1,1.41.55s1.47.29,3.26.82,3.85,1.27,4.66,2.8c0,0,.4.76.92,2a27.42,27.42,0,0,1,1.53,4.87,20.58,20.58,0,0,1,.41,3.88,13.1,13.1,0,0,1-.16,2.09,7.72,7.72,0,0,1-2.28,4.74s-.55.36-.57,2.74a5.78,5.78,0,0,1-1.23,1.57,2.6,2.6,0,0,1-1.65.7,2.3,2.3,0,0,1-1.4-.52s-1.25-.38-2.56-.65a9.73,9.73,0,0,0-1.85-.23,1.58,1.58,0,0,0-1.3.43,3.85,3.85,0,0,0-1.66-.71.6.6,0,0,0-.3.07c-.2.27-.31.44-.31.44h0a.58.58,0,0,1,.31-.44l.4-.55a5.44,5.44,0,0,1-2.71,1.57.67.67,0,0,1-.52-.21,13.69,13.69,0,0,1-1.92.14,5.8,5.8,0,0,1-2.33-.39,24.92,24.92,0,0,1,4,4c1.47,1.85,3.36,4.79,4.57,4.79a.72.72,0,0,0,.37-.11c1-.79,1.46-2.38,2.51-3a2.56,2.56,0,0,0-.71.46,3.6,3.6,0,0,0-1,1.46,3.6,3.6,0,0,1,1-1.46h0a3.6,3.6,0,0,0-1,1.46,3.6,3.6,0,0,1,1-1.46,2.56,2.56,0,0,1,.71-.46,1.64,1.64,0,0,1,.84-.22h.2a4.46,4.46,0,0,1,1.69.38,9.21,9.21,0,0,0,1.8.21,6.85,6.85,0,0,0,1-.08l.14,0a.71.71,0,0,0,.4-.17h0l1,.12c.58-.46,1.35-.77,2-1.21a4.48,4.48,0,0,0,1.48-1.89,3.39,3.39,0,0,0,.1-.81v-.11s0,0,0-.07h0v-.06h0a6.53,6.53,0,0,1,.85-.93,3,3,0,0,1,1-.82,3.41,3.41,0,0,0,1.41-2.41l.12-1.88c0-.13,0-.27,0-.42,0,.15,0,.29,0,.42h0c0-.13,0-.27,0-.42,0,.15,0,.29,0,.42,0-.93.11-1.86.17-2.72a9.11,9.11,0,0,1,.87-3.73,6.31,6.31,0,0,1,1-1.53,5.39,5.39,0,0,1,1.36-1.13,1.5,1.5,0,0,1,.69-.09c1,0,2.62.19,3.27.26h.24c1,0,1.27-.71,1.27-1.54A4.14,4.14,0,0,0,110,87a17,17,0,0,1-1.25-5.78h0c.16-.52,1-.58,1.27-1.08a2.35,2.35,0,0,0,.11-.75c0-1.19-.63-2.51-.75-3.63h0a12.47,12.47,0,0,0,.28-2.44c0-1.72-.6-1.93-.6-2s0,0,0,0,.22-.16.44-.16l.44,0,.47,0a1,1,0,0,0,.59-.13.94.94,0,0,0,.23-.65,3.19,3.19,0,0,0-.64-1.62c-.88-1.42-1.74-2.93-1.74-4.08a1.77,1.77,0,0,1,.1-.61,2.42,2.42,0,0,1-.39,0h-.93"/><path class="b" d="M86.08,81.22l.49.29a1,1,0,0,1,0-.17,2.58,2.58,0,0,0-.5-.12"/><path class="b" d="M84.85,82.44v0h0"/><path class="b" d="M87.48,85.41A24.69,24.69,0,0,1,87,88.68c-.08.45-.18.9-.28,1.34A6.11,6.11,0,0,0,87.23,89a6.69,6.69,0,0,0,.36-2.21,8.83,8.83,0,0,0-.11-1.33"/><path class="b" d="M92.31,86.68l.07.18a26.31,26.31,0,0,1,1,3,18,18,0,0,0-.78-2.8s-.09-.15-.26-.39"/><path class="b" d="M92.72,95.26l-.51.43c-.38.31-.8.66-1.16,1a3.27,3.27,0,0,0,1.25-.87,3.46,3.46,0,0,0,.42-.55"/><path class="b" d="M64.44,95.64v.07a1.19,1.19,0,0,0,.18.65,21.73,21.73,0,0,0,4.93,5.07,3.37,3.37,0,0,0,2.08.74c.6,0,1.15-.14,1.76-.2h.21a3.55,3.55,0,0,1,1.84.68,13.85,13.85,0,0,0-1.3-1.14l-.74.41c-.61,0-1.17.19-1.76.19a3.33,3.33,0,0,1-2.09-.74,21.51,21.51,0,0,1-4.92-5.07,1.07,1.07,0,0,1-.19-.64h0"/><path class="b" d="M99.75,103a3,3,0,0,0-1,.82c.35-.31.69-.56,1-.82"/><path class="b" d="M97.9,104.77h0s0,0,0,.07,0,0,0-.08"/><path class="b" d="M97.81,105.77a4.48,4.48,0,0,1-1.48,1.89l.29-.2a3,3,0,0,0,1.19-1.69"/><path class="b" d="M88.29,108.39h0l.22,0c.5.13,1,.25,1.47.35a4.5,4.5,0,0,0-1.69-.38"/><path class="b" d="M93.32,108.75h0a.71.71,0,0,1-.4.17,5.09,5.09,0,0,0,.6,0,3.53,3.53,0,0,0,.74-.06l0,0-1-.12"/><path class="c" d="M85.09,80.55a2.5,2.5,0,0,1,0,.25c0,.52-.32.71-.31,1.25a1.49,1.49,0,0,0,0,.39,1.35,1.35,0,0,1,0-.33c0-.54.32-.73.32-1.25a1.3,1.3,0,0,0,0-.26v0h0"/><path class="c" d="M84.85,82.46a2,2,0,0,1,0,.25,6,6,0,0,1-.72,2.48c-.46,1-1.07,1.89-1.34,2.46-1,2.15-1.87,2.86-3.6,2.86h-.12a2,2,0,0,0-.41,0c-1.19,0-1.8.87-2.93,1.1-1.27.38-2,1.05-3.24,1.44a7.54,7.54,0,0,0-3.68.86.94.94,0,0,0-.25.58c0,.26-.35.33-.48.49h-.21a6.45,6.45,0,0,1-1.14-.14,6.47,6.47,0,0,0-1.12-.14,1.41,1.41,0,0,0-.94.29.91.91,0,0,0-.24.68.84.84,0,0,1,.24-.61,1.39,1.39,0,0,1,.94-.29,6.59,6.59,0,0,1,1.12.14,7.51,7.51,0,0,0,1.14.13h.21c.12-.15.47-.22.48-.48a.94.94,0,0,1,.25-.58,7.42,7.42,0,0,1,3.67-.87c1.27-.38,2-1,3.25-1.44,1.13-.22,1.74-1.09,2.93-1.09l.41,0h.12c1.73,0,2.56-.71,3.6-2.85.27-.58.88-1.5,1.35-2.47a6.09,6.09,0,0,0,.72-2.48,2.09,2.09,0,0,0,0-.25v-.06"/><path class="d" d="M85.09,80.55v0a1.3,1.3,0,0,1,0,.26c0,.52-.32.71-.32,1.25a1.35,1.35,0,0,0,0,.33h0v.06a2.09,2.09,0,0,1,0,.25,6.09,6.09,0,0,1-.72,2.48c-.47,1-1.08,1.89-1.35,2.47-1,2.14-1.87,2.85-3.6,2.85h-.12l-.41,0c-1.19,0-1.8.87-2.93,1.09-1.27.39-2,1.06-3.25,1.44a7.42,7.42,0,0,0-3.67.87.94.94,0,0,0-.25.58c0,.26-.36.33-.48.48h-.21a7.51,7.51,0,0,1-1.14-.13,6.59,6.59,0,0,0-1.12-.14,1.39,1.39,0,0,0-.94.29.84.84,0,0,0-.24.61h0a1.07,1.07,0,0,0,.19.64,21.51,21.51,0,0,0,4.92,5.07,3.33,3.33,0,0,0,2.09.74c.59,0,1.15-.14,1.76-.19l.74-.41a3.58,3.58,0,0,0-1.84-.85.79.79,0,0,0-.57.21s-4.18-1.26-4.17-2.59a.86.86,0,0,1,.31-.59,12.58,12.58,0,0,1,1.21-1.82s6.51-1.88,9-1.88a1.48,1.48,0,0,1,.86.17,11.41,11.41,0,0,0,5.27-1.56A7.19,7.19,0,0,0,86.75,90c.1-.44.2-.89.28-1.34a24.69,24.69,0,0,0,.45-3.27,12.82,12.82,0,0,0-.9-3v-.86h0v0l-.49-.29-.3,0h0L85.7,81l-.61-.43"/><path class="e" d="M86.58,81.34a1,1,0,0,0,0,.17v.91a11.22,11.22,0,0,1,1,4.32A6.69,6.69,0,0,1,87.23,89,6.11,6.11,0,0,1,86.75,90a7.19,7.19,0,0,1-2.54,2.57,11.41,11.41,0,0,1-5.27,1.56,1.48,1.48,0,0,0-.86-.17c-2.49,0-9,1.88-9,1.88a12.58,12.58,0,0,0-1.21,1.82.86.86,0,0,0-.31.59c0,1.33,4.17,2.59,4.17,2.59a.79.79,0,0,1,.57-.21c1.09,0,2.74,1.59,3.14,2l.09.09a1.87,1.87,0,0,0,.28.16,5.8,5.8,0,0,0,2.33.39,13.69,13.69,0,0,0,1.92-.14.67.67,0,0,0,.52.21,5.44,5.44,0,0,0,2.71-1.57l.11-.15c.51-.67,1.2-1.54,2-2.38,1.28-1.34,2.76-2.63,3.86-2.63a1.14,1.14,0,0,1,.69.22h.19a2.9,2.9,0,0,0,.93-.17c.36-.33.78-.68,1.16-1l.51-.43a5.7,5.7,0,0,0,.78-2.46,8.22,8.22,0,0,0,0-.89,11.13,11.13,0,0,0-.2-2,26.31,26.31,0,0,0-1-3l-.07-.18a23.18,23.18,0,0,0-2.09-2.6,10.57,10.57,0,0,0-3.64-2.74"/><path class="f" d="M85.66,77.19c-.45,0-.59.35-.59.84a4.63,4.63,0,0,0,0,.51,14.35,14.35,0,0,0,.4,1.75c.08.28.15.53.2.69l.07.21h0l.3,0a2.58,2.58,0,0,1,.5.12,10.57,10.57,0,0,1,3.64,2.74,23.18,23.18,0,0,1,2.09,2.6c.17.24.26.39.26.39a18,18,0,0,1,.78,2.8,11.13,11.13,0,0,1,.2,2,8.22,8.22,0,0,1,0,.89,5.7,5.7,0,0,1-.78,2.46,3.46,3.46,0,0,1-.42.55,3.27,3.27,0,0,1-1.25.87,2.9,2.9,0,0,1-.93.17h-.19a1.14,1.14,0,0,0-.69-.22c-1.1,0-2.58,1.29-3.86,2.63-.78.84-1.47,1.71-2,2.38l-.11.15-.4.55a.6.6,0,0,1,.3-.07,3.85,3.85,0,0,1,1.66.71,1.58,1.58,0,0,1,1.3-.43,9.73,9.73,0,0,1,1.85.23c1.31.27,2.56.65,2.56.65a2.3,2.3,0,0,0,1.4.52,2.6,2.6,0,0,0,1.65-.7,5.78,5.78,0,0,0,1.23-1.57c0-2.38.57-2.74.57-2.74a7.72,7.72,0,0,0,2.28-4.74,13.1,13.1,0,0,0,.16-2.09,20.58,20.58,0,0,0-.41-3.88,27.42,27.42,0,0,0-1.53-4.87c-.52-1.23-.92-2-.92-2-.81-1.53-2.9-2.29-4.66-2.8s-3.26-.82-3.26-.82a3.11,3.11,0,0,0-1.41-.55"/><path class="f" d="M82.89,102.33a.58.58,0,0,0-.31.44s.11-.17.31-.44"/><path class="g" d="M109.48,62.81c-.23.07-.64,0-1,.11-.66.12-.92.54-1.63.58s-1.44.08-2.05.26a2.05,2.05,0,0,0-.81.54A6.07,6.07,0,0,0,102,66.76a.91.91,0,0,1,.23.53c0,.42-.56.63-.76.93-.1.11-.36.13-.56.22-.3.3-.19.85-.81.85h-.12a30.36,30.36,0,0,0-4.53-.45h0a18.55,18.55,0,0,0-2.66.35,15.52,15.52,0,0,0-2.26.5c-.88.3-.73,1.2-1.37,1.6h0a.78.78,0,0,1-.22-.22l-.12.21c.07.1.13.37.19.47h0a.54.54,0,0,1-.33.09,3.22,3.22,0,0,1-.39,0,7.45,7.45,0,0,0-2.3-.37c-.37,0-.71,0-1,0s-.65,0-1,0a5,5,0,0,1-1.86-.34,3.2,3.2,0,0,0-.75-.17c-.14,0-.24,0-.27.15s-.16.31-.16.52a.44.44,0,0,0,0,.15c.34.75,1,1.82,1.37,2.72l.86-.67v0c0-.37.26-.56.71-.56a2.36,2.36,0,0,1,.55.07h0a8,8,0,0,1,2.34,1.3c.33.25.63.66,1,.91,1.24.89,2.17,1.07,3.53,2.32a3.06,3.06,0,0,0,1.82.81c.12,0,.17-.29.17-.69a15.32,15.32,0,0,0-.35-2.71c-.29-1.52-.73-3-.73-3.38,0,0,0,0,0-.06h0c0-.17-.48-.57-.48-.74h0a1.32,1.32,0,0,1,.85-.22c.51,0,1.14.11,1.75.17h.12A2.72,2.72,0,0,0,96,70.46a7.07,7.07,0,0,1,.78-.61h0c1,.79,2.44,1.56,3,2.45a4.13,4.13,0,0,0,.66.44,2.67,2.67,0,0,0,.84.23h.07c0,.08,0,.11.08.11s.62-.46.94-.93a1.8,1.8,0,0,0,.38-.8c0-.09,0-.14-.15-.14h-.09a.57.57,0,0,0,.44-.63c0-.44-.22-1-.22-1.49a.93.93,0,0,1,.09-.45c.23-.6,1.4-.72,1.41-1.41a.49.49,0,0,0,0-.12h0v0c0-.19,0-.4,0-.59,0-.36.09-.66.61-.66h0a3.11,3.11,0,0,0,1.23-.22c.46-.53.45-1.31,1.3-1.5h1.26a2.42,2.42,0,0,0,.39,0c.3,0,.51-.14.51-.4,0,0,0-.07,0-.11a.29.29,0,0,1,0-.09c0-.17.13-.33.13-.48a.26.26,0,0,0-.12-.21h0"/><path class="h" d="M101.3,99.31a5.46,5.46,0,0,1-.59,2.67,5.46,5.46,0,0,0,.59-2.67"/><path class="h" d="M98.69,103.84l-.52.6.52-.6"/><path class="h" d="M98.17,104.44c-.14.16-.24.29-.27.33h0l.28-.34"/><path class="h" d="M97.89,104.78s0,0,0,.07a2.45,2.45,0,0,1,0,.27,1.32,1.32,0,0,0,0-.34"/><path class="h" d="M90.19,108.86s.66.1,1.39.13c-.73,0-1.39-.13-1.39-.13m-1.9-.47h0a4.5,4.5,0,0,1,1.69.38l.21.09-.21-.09a4.46,4.46,0,0,0-1.69-.38"/><path class="h" d="M88.22,108.39a2.61,2.61,0,0,0-1,.21,2.56,2.56,0,0,0-.71.46,2.56,2.56,0,0,1,.71-.46,2.61,2.61,0,0,1,1-.21"/><path class="h" d="M93.32,108.75A2.34,2.34,0,0,1,92,109a2.34,2.34,0,0,0,1.34-.25"/><path class="i" d="M108.48,62.2h-1.81a12.79,12.79,0,0,0-1.68.08c-2.34.35-4.28,1-5.33,2.15a.26.26,0,0,0-.07.19c0,.23.19.53.22.78a.76.76,0,0,1,0,.21c0,.47-.41.79-.41,1.3a1.28,1.28,0,0,0,.22.67.19.19,0,0,1,0,.11c0,.09-.09.15-.2.18-2.12,0-4,0-6-.08h-.16a12.88,12.88,0,0,0-2.41.34c-.91.2-1.72.38-2,.47a1.22,1.22,0,0,0-.7,1.06,1.77,1.77,0,0,0,.13.63,2.73,2.73,0,0,0,.69,1h0c.64-.4.49-1.3,1.37-1.6a15.52,15.52,0,0,1,2.26-.5,18.55,18.55,0,0,1,2.66-.35h0a30.36,30.36,0,0,1,4.53.45h.12c.62,0,.51-.55.81-.85.2-.09.46-.11.56-.22.2-.3.75-.51.76-.93a.91.91,0,0,0-.23-.53h0A6.07,6.07,0,0,1,104,64.3a2.05,2.05,0,0,1,.81-.54c.61-.18,1.38-.14,2.05-.26s1-.46,1.63-.58c.31-.09.72,0,1-.11v0c0-.1.09-.2.09-.28s0-.09-.12-.12a2.41,2.41,0,0,0-1-.18"/><path class="b" d="M73.19,45.38a2.44,2.44,0,0,0-.1.24,2.57,2.57,0,0,1,.33-.18l-.23-.06"/><path class="b" d="M71,46.22h-.18c-.87.16-.94,1-1.45,1.52a3.15,3.15,0,0,1-1.26.19h-.07c-.78,0-.62.74-.66,1.34v.07c0,.78-1.26.88-1.53,1.54a1.12,1.12,0,0,0-.12.58c0,.47.15,1,.15,1.41a.68.68,0,0,1-.48.75l.11,0c.09,0,.13,0,.13.14a2.18,2.18,0,0,1-.41.88c-.35.51-.8,1-1,1s-.07,0-.07-.11a.22.22,0,0,1-.1,0,2.82,2.82,0,0,1-.83-.2,3.78,3.78,0,0,1-.67-.42c-.55-.92-2-1.67-3-2.47h0c-.17,0-1.3,1.57-2.62,1.68-1.09,0-2.26,0-2.77.52h0c0,.2.49.58.49.78h0a.22.22,0,0,0,0,.09c0,.77,1.4,5.64,1.4,7.17,0,.24,0,.4-.12.44a2,2,0,0,1-.61.08A2.47,2.47,0,0,1,54,62.88c-1.58-1-2.6-.8-4-1.32-.38-.16-.75-.52-1.13-.68a8.27,8.27,0,0,0-2.29-.5,1,1,0,0,0-.5.1,1.85,1.85,0,0,0-1.51,1.63v0h0l-.68,1.14a8.2,8.2,0,0,0,.74,1.7c.39.8.8,1.21.8,1.43a.2.2,0,0,1-.1.14h0a17.2,17.2,0,0,1,2.57,2.8l.78,0a8,8,0,0,1-1.41-3.47c0-.77.41-1.35,1.65-1.35a4,4,0,0,1,.58,0A18.85,18.85,0,0,1,53.08,64c.31,0,.62,0,.94,0,1.7,0,3.42.35,4.34,1.53a62.22,62.22,0,0,1,4.07,6.09c1.59,2.75,3.06,5.88,3.06,8.24a4.3,4.3,0,0,1-.21,1.38.32.32,0,0,0,0,.13c0,.24.13.85,1.09,2.17a4.36,4.36,0,0,1,.06.75c0,.93-.28,2.41-2.1,2.41h-.24S59.3,88,59.25,89.6c0,0-1.64.07-2,.73,0,.35,0,.56,0,.56h0a.73.73,0,0,1-.07-.31.54.54,0,0,1,.06-.25v-.71c-.38,1.72-.94,3.2-1.72,3.2h-.11s-2,2.18-3.61,2.55h.54a25.55,25.55,0,0,1,5.1.67A31.31,31.31,0,0,0,63,97.23c.64,0,1.11-.16,1.26-.58a4.17,4.17,0,0,0,.11-1c0-.54-.06-1.1-.06-1.63a3.26,3.26,0,0,1,.23-1.34,3,3,0,0,0-.37,1.51,3.88,3.88,0,0,0,.16,1.11,3.88,3.88,0,0,1-.16-1.11h0a3.88,3.88,0,0,0,.16,1.11,3.88,3.88,0,0,1-.16-1.11h0a3,3,0,0,1,.37-1.51,1.89,1.89,0,0,1,.71-.82,4.15,4.15,0,0,1,1.58-.72,8.05,8.05,0,0,0,2.24-1.35l.13,0a.54.54,0,0,0,.19-.31l.8-.33A12.72,12.72,0,0,1,71,87.41a3.69,3.69,0,0,0,.13-1,2.4,2.4,0,0,0-.15-.88,3.88,3.88,0,0,0-.46-.68l0-.06h0l0,0v0a3.36,3.36,0,0,1,.11-.84,1.38,1.38,0,0,1,.33-.85,2.21,2.21,0,0,0,.2-.86A2.66,2.66,0,0,0,70.71,81L70,79.55l-.25-.36.15.22-.15-.22.25.36c-.93-1.75-1.77-3.49-1.77-4.93a3.41,3.41,0,0,1,0-.55,3.91,3.91,0,0,1,1.38-2.66,9.08,9.08,0,0,1,2.83-.25h1c.8,0,1.08-.39,1.08-.93A3.82,3.82,0,0,0,74,68.72a12.55,12.55,0,0,1-2-5.24h0c.11-.5.9-.58,1.16-1a2.53,2.53,0,0,0,.06-.56c0-1.17-.75-2.51-.87-3.68h0a12.85,12.85,0,0,0,.3-2.52c0-1.64-.54-1.88-.55-1.94s0,0,0,0,.21-.15.4-.15a4.77,4.77,0,0,1,.5,0,5.09,5.09,0,0,0,.54,0,1,1,0,0,0,.52-.11,1,1,0,0,0,.26-.72,3.5,3.5,0,0,0-.54-1.61,9.74,9.74,0,0,1-1.45-4,2.09,2.09,0,0,1,.17-.88h-.2c-.2,0-.43,0-.65,0s-.44,0-.64,0"/><path class="j" d="M64.18,94.18h0a3.88,3.88,0,0,0,.16,1.11,3.88,3.88,0,0,1-.16-1.11m.37-1.51a3,3,0,0,0-.37,1.51h0a3,3,0,0,1,.37-1.51h0M71,85.58h0a2.4,2.4,0,0,1,.15.88h0a2.4,2.4,0,0,0-.15-.88h0m-.51-.74h0l0,.06h0l0-.06m-.75-5.65.25.36h0l-.1-.14-.15-.22"/><path class="b" d="M49.66,69.23a3.47,3.47,0,0,0-.57.19h.61a1.42,1.42,0,0,1,0-.2"/><path class="b" d="M57.06,71.82l.14.15c.71.81,1.41,1.64,2,2.45a25.79,25.79,0,0,0-1.79-2.32l-.39-.28"/><path class="b" d="M51.94,73l1.44,4.76A9.34,9.34,0,0,0,51.94,73"/><path class="b" d="M61.17,79.28c-.18.47-.44,1.21-.61,1.84a2.75,2.75,0,0,0,.55-1.24,5.07,5.07,0,0,0,.06-.6"/><path class="b" d="M70.85,83.06a1.38,1.38,0,0,0-.33.85,6.86,6.86,0,0,1,.33-.85"/><path class="b" d="M70.45,84.83h0l0,.06,0-.07"/><path class="b" d="M71,85.58a2.4,2.4,0,0,1,.15.88h0a3.69,3.69,0,0,1-.13,1,2.28,2.28,0,0,0,.21-.9,2.15,2.15,0,0,0-.23-.93"/><path class="b" d="M70.2,89.09l-.8.33a.54.54,0,0,1-.19.31,4.37,4.37,0,0,0,1-.61v0"/><path class="b" d="M66.84,91.13a4.15,4.15,0,0,0-1.58.72l.21-.12c.48-.21.94-.4,1.37-.6"/><path class="b" d="M50,95.32h-.33c-.12.27-.24.55-.37.82-1,.92-1.51,2-3.45,2.08l-1,0a20.62,20.62,0,0,1-6-.87,1.07,1.07,0,0,1-.56-.41,1.11,1.11,0,0,0,.59.47,21.07,21.07,0,0,0,6,.87l1,0c1.94-.1,2.5-1.17,3.45-2.09a3.39,3.39,0,0,1,2.06-.79,12.19,12.19,0,0,0-1.4-.08"/><path class="c" d="M47.83,69.37a1.5,1.5,0,0,1,.15.68c0,.28-.06.53-.06.8a1.54,1.54,0,0,0,.25.86,10.71,10.71,0,0,1,.46,3.82c0,.52,0,1,0,1.48s0,.9,0,1.2c.06.6.1,1.12.1,1.57a3.63,3.63,0,0,1-1.61,3.32c-1.35.77-1.23,2-2.12,3.06s-1,2.16-1.81,3.31a8.42,8.42,0,0,0-2.49,3.14v.09a.9.9,0,0,0,.15.55.33.33,0,0,1,0,.16c0,.19-.14.39-.15.55-.87.84-2.51,1.19-2.76,2.3a.36.36,0,0,0,0,.11,1.11,1.11,0,0,0,.22.59,1,1,0,0,1-.18-.53s0-.08,0-.12c.26-1.11,1.9-1.45,2.77-2.29,0-.16.14-.36.14-.55a.28.28,0,0,0-.05-.17.87.87,0,0,1-.14-.52v-.11a8.32,8.32,0,0,1,2.49-3.14c.81-1.15,1-2.17,1.81-3.31s.77-2.29,2.12-3.06a3.61,3.61,0,0,0,1.6-3.32,13.27,13.27,0,0,0-.09-1.57,8.55,8.55,0,0,1,0-1.2V75.58a10.73,10.73,0,0,0-.45-3.82,1.53,1.53,0,0,1-.26-.85c0-.27.06-.53.06-.8a1.57,1.57,0,0,0-.15-.69l0,0h0"/><path class="d" d="M47.83,69.37l0,0a1.57,1.57,0,0,1,.15.69c0,.27,0,.53-.06.8a1.53,1.53,0,0,0,.26.85,10.73,10.73,0,0,1,.45,3.82v1.49a8.55,8.55,0,0,0,0,1.2,13.27,13.27,0,0,1,.09,1.57,3.61,3.61,0,0,1-1.6,3.32c-1.35.77-1.23,2-2.12,3.06s-1,2.16-1.81,3.31a8.32,8.32,0,0,0-2.49,3.14v.11a.87.87,0,0,0,.14.52.28.28,0,0,1,.05.17c0,.19-.14.39-.14.55-.87.84-2.51,1.18-2.77,2.29,0,0,0,.08,0,.12a1,1,0,0,0,.18.53,1.07,1.07,0,0,0,.56.41,20.62,20.62,0,0,0,6,.87l1,0c1.94-.1,2.5-1.16,3.45-2.08.13-.27.25-.55.37-.82-1.06,0-2.21.26-2.35,1.06a13.62,13.62,0,0,1-3.91,1c-.67,0-1.16-.2-1.16-.8a2.32,2.32,0,0,1,0-.24,17.63,17.63,0,0,1-.13-1.81,3.39,3.39,0,0,1,0-.47s1.42-2,3-4,3.34-3.9,4-3.9h0a13.49,13.49,0,0,0,3.43-4.68,9.41,9.41,0,0,0,.77-3.63s0-.09,0-.13L51.94,73a14.79,14.79,0,0,0-2-2.56s-.14-.43-.27-1h-.61a3.9,3.9,0,0,0-.35.19l-.13-.2-.78,0"/><path class="e" d="M50.52,69.14a4,4,0,0,0-.86.09,1.42,1.42,0,0,0,0,.2c.13.58.27,1,.27,1a14.79,14.79,0,0,1,2,2.56,9.34,9.34,0,0,1,1.44,4.76s0,.09,0,.13a9.41,9.41,0,0,1-.77,3.63,13.49,13.49,0,0,1-3.43,4.68h0c-.67,0-2.43,1.94-4,3.9s-3,4-3,4a3.39,3.39,0,0,0,0,.47,17.63,17.63,0,0,0,.13,1.81h0a2.32,2.32,0,0,0,0,.24c0,.6.49.8,1.16.8a13.62,13.62,0,0,0,3.91-1c.14-.8,1.29-1,2.35-1.06H50a12.19,12.19,0,0,1,1.4.08l.13,0c1.63-.12,3.93-2.61,3.93-2.61h.11c.78,0,1.34-1.48,1.72-3.2,0-.89.06-2.14.21-3.38.27-2.24.88-4.46,2.16-4.46h.1a2.36,2.36,0,0,0,.82-.66c.17-.63.43-1.37.61-1.84v0a9.09,9.09,0,0,0-1.93-4.82c-.63-.81-1.33-1.64-2-2.45l-.14-.15C56,71.08,53,69.14,50.52,69.14"/><path class="f" d="M54,64c-.32,0-.63,0-.94,0a18.85,18.85,0,0,0-3.65.63,4,4,0,0,0-.58,0c-1.24,0-1.65.58-1.65,1.35a8,8,0,0,0,1.41,3.47l.13.2a3.9,3.9,0,0,1,.35-.19,3.47,3.47,0,0,1,.57-.19,4,4,0,0,1,.86-.09c2.43,0,5.47,1.94,6.54,2.68l.39.28a25.79,25.79,0,0,1,1.79,2.32,9.09,9.09,0,0,1,1.93,4.82v0a5.07,5.07,0,0,1-.06.6,2.75,2.75,0,0,1-.55,1.24,2.36,2.36,0,0,1-.82.66h-.1c-1.28,0-1.89,2.22-2.16,4.46-.15,1.24-.19,2.49-.21,3.38v.71c.34-.66,2-.73,2-.73,0-1.63,4.82-2.94,4.82-2.94h.24c1.82,0,2.1-1.48,2.1-2.41a4.36,4.36,0,0,0-.06-.75c-1-1.32-1.09-1.93-1.09-2.17a.32.32,0,0,1,0-.13,4.3,4.3,0,0,0,.21-1.38c0-2.36-1.47-5.49-3.06-8.24a62.22,62.22,0,0,0-4.07-6.09C57.44,64.32,55.72,64,54,64"/><path class="f" d="M57.27,90.33a.54.54,0,0,0-.06.25.73.73,0,0,0,.07.31s0-.21,0-.56m0,0h0"/><path class="g" d="M73.15,45a1.76,1.76,0,0,1-.42,0h-.06a2,2,0,0,0-.49,0c-.68.09-1,.52-1.71.53a20,20,0,0,0-2.09.19,2.33,2.33,0,0,0-.88.55,6.78,6.78,0,0,0-2.34,2.59.92.92,0,0,1,.2.51c0,.48-.62.71-.84,1.05-.12.12-.38.14-.59.25-.33.34-.25.95-.92.95h-.09a28,28,0,0,0-3.41-.24c-.43,0-.85,0-1.26.05A20.46,20.46,0,0,0,53,53.21c-1,.56-.85,1.69-1.57,2.35h0s-.12-.08-.23-.22c-.05.1-.1.2-.14.3s.13.44.2.55h0a1.14,1.14,0,0,1-.8.3h-.32c-3,0-4.22,2.09-6.89,2.43-.48.15-1.19.36-1.3.88,0,.35-.27.67-.26,1a.71.71,0,0,0,0,.2,30.47,30.47,0,0,0,1.79,2.87l1-1.75v0A1.85,1.85,0,0,1,46,60.48a1,1,0,0,1,.5-.1,8.27,8.27,0,0,1,2.29.5c.38.16.75.52,1.13.68,1.45.52,2.47.36,4,1.32a2.47,2.47,0,0,0,1.39.37,2,2,0,0,0,.61-.08c.09,0,.12-.2.12-.44,0-1.53-1.4-6.4-1.4-7.17a.22.22,0,0,1,0-.09h0c0-.2-.49-.58-.49-.78h0c.51-.55,1.68-.48,2.77-.52,1.32-.11,2.45-1.68,2.62-1.68h0c1,.8,2.46,1.55,3,2.47a3.78,3.78,0,0,0,.67.42,2.82,2.82,0,0,0,.83.2.22.22,0,0,0,.1,0c0,.08,0,.11.07.11s.63-.51,1-1a2.18,2.18,0,0,0,.41-.88c0-.09,0-.14-.13-.14l-.11,0h0a.68.68,0,0,0,.48-.75c0-.42-.15-.94-.15-1.41a1.12,1.12,0,0,1,.12-.58c.27-.66,1.53-.76,1.53-1.54v-.07h0c0-.6-.12-1.34.66-1.34h.07a3.15,3.15,0,0,0,1.26-.19c.51-.54.58-1.36,1.45-1.52H71c.2,0,.42,0,.64,0s.45,0,.65,0h.2c.32,0,.55-.13.55-.43v-.07s0,0,0-.06c0-.21.18-.38.18-.55a.26.26,0,0,0-.1-.21h0"/><path class="k" d="M69.7,79.19l.15.22.1.14h0l-.25-.36"/><path class="h" d="M69.85,79.41l.1.14a5.34,5.34,0,0,1,1.14,2.83h0A5.34,5.34,0,0,0,70,79.55l-.1-.14"/><path class="a" d="M70.52,83.91h0a7.83,7.83,0,0,0-.07.92h0a7.83,7.83,0,0,1,.07-.92m.57-1.53a1.16,1.16,0,0,1-.15.66l-.09,0h0l.09,0h0a1.12,1.12,0,0,0,.15-.65h0"/><path class="h" d="M71.09,82.38a1.12,1.12,0,0,1-.15.65,1.08,1.08,0,0,0,.15-.65m0,0h0"/><path class="a" d="M65.26,91.85h0a2.69,2.69,0,0,0-.71.82h0a2.69,2.69,0,0,1,.71-.82m3.95-2.12h0a11.6,11.6,0,0,1-2.14,1.35l-.23,0h0l.23,0h0a11.5,11.5,0,0,0,2.14-1.35M71,87.41h0a6.23,6.23,0,0,1-.75,1.67h0A6.23,6.23,0,0,0,71,87.41"/><path class="h" d="M69.4,89.42a.54.54,0,0,1-.19.31,11.5,11.5,0,0,1-2.14,1.35,11.5,11.5,0,0,0,2.14-1.35.54.54,0,0,0,.19-.31m1.71-3h0"/><path class="i" d="M69.43,44.18c-.26,0-.52,0-.76,0-2.42.28-4.45.91-5.65,2.17a.39.39,0,0,0-.09.26c0,.24.15.55.16.8a.76.76,0,0,1,0,.15c0,.58-.53.95-.53,1.57a1.43,1.43,0,0,0,.18.66.2.2,0,0,1,0,.11c0,.1-.09.17-.21.2-2.19.06-4.18.16-6.22.33a16.93,16.93,0,0,0-4.92,1.75,2.12,2.12,0,0,0-.85,1.63,2.35,2.35,0,0,0,.82,1.73h0c.72-.66.6-1.79,1.57-2.35a20.46,20.46,0,0,1,5.28-1.75c.41,0,.83-.05,1.26-.05a28,28,0,0,1,3.41.24H63c.67,0,.59-.61.92-.95.21-.11.47-.13.59-.25.22-.34.83-.57.84-1.05a.92.92,0,0,0-.2-.51h0a6.78,6.78,0,0,1,2.34-2.59,2.33,2.33,0,0,1,.88-.55,20,20,0,0,1,2.09-.19c.73,0,1-.44,1.71-.53a2,2,0,0,1,.49,0h.06a1.76,1.76,0,0,0,.42,0h0c0-.12.11-.22.12-.31s0-.09-.11-.13a2.57,2.57,0,0,0-1-.24c-.91,0-1.88-.1-2.76-.1"/><path d="M90.19,61.31l.54.9-1.59.88.08.25,1.61-.23.09.34-6.06,2.67.17.4,6.65-2.11.19.59L86,67.21l2.61.21.31.65L79.41,73c6.76-.69,12-4.43,17.32-7.85S107.16,58,112.31,54.51l-5-7.59c1,.18,1.87.08,2.21.45.71.77,1,1.9,1.7,2.71,1.58,1.87,3.33,3.59,4.93,5.45,3.79,4.39,7.53,8.82,11.53,13.51-1.58,1.16-2.94,2.13-4.27,3.14C116.24,77.61,109.06,83,102,88.48S88.11,99.47,81.22,105c-3.81,3.07-7.52,6.27-11.35,9.31a2,2,0,0,1-1.93-.15c-2.2-2.62-4.26-5.36-6.39-8-1-1.33-2.14-2.61-3.61-4.39l-4.87,10.07.55.44a3.33,3.33,0,0,1-3.63-.45,17.88,17.88,0,0,0-5.48-2.6c-3.95-1.3-8.62-1.1-11.61-5.12-1-1.29-3.55-1.79-5.41-1.83-1.45,0-1.47-.54-1.41-1.43A4.08,4.08,0,0,1,26.67,99q5-8,10.09-16c3.83-6,7.66-12,11.54-18,5.06-7.8,10.21-15.55,15.24-23.38,1.7-2.65,3.14-5.47,4.72-8.2.16-.29.59-.71.76-.66,1.54.49,3,1.07,4.57,1.63-.08.26-.16.53-.23.8-.45,0-1,.29-1.32.11-1.87-1-3,.23-3.77,1.44-5.9,9.07-11.77,18.15-17.52,27.31-6.17,9.84-12.2,19.77-18.3,29.67-1.29,2.09-2.6,4.16-3.94,6.31a5.33,5.33,0,0,0,1.69,1.07,2.2,2.2,0,0,0,1.85-.5c4.07-6.21,8.14-12.41,12-18.73,3-4.86,5.53-10,8.59-14.8C57.32,59.78,62.24,52.64,67,45.41c2.06-3.11,4.1-6.23,6.19-9.32a5.08,5.08,0,0,1,1.07-.92c6.84,3.53,15,3.41,21.85,8.18-3,6-6,12-9.19,18.32,2.85-1.86,5.55-3.55,8.17-5.35,3.4-2.35,6.71-4.81,10.13-7.14a4.84,4.84,0,0,1,1.94-.43c-1.33,3.93-2.53,7.48-3.74,11l-.67-.18q.9-3.93,1.79-7.88l-.42-.16q-2.07,5.31-4.15,10.63l-.73-.27q1.25-4.06,2.51-8.12c-3.39,2.56-3.61,6.87-6.13,10l1.78-7.14ZM42.91,107c-.23-.47-.67-.93-.67-1.4,0-1.74.17-3.47.2-5.21,0-2.06,0-4.13,0-6.2l-.58-.06c-.23.51-.69,1-.66,1.51q.27,5.18.75,10.33c0,.37.62.69.95,1,.37-.65,1.05-1.29,1.06-1.95.1-4.46.05-8.93.05-13.39h1c.89,4.35-.59,8.82.16,13.8,1.4-2.5,3.27-4.41,3.49-6.49.48-4.64.15-9.37.15-14.06l-.66-.06C46.7,90.1,48.3,95.77,46.26,101V88.47l-.61-.11c-.55,2.19-2.77,3.32-2.25,6.47C44.06,98.75,43.15,102.92,42.91,107ZM99.46,70.05,71.12,88.24l.29.47,1.64.25-8.92,4.29.25.5,7.28-2.06.16.45-10.06,4.3.23.45,6.41-1.51.16.53c-3.07,1.84-7.28,1.65-9.46,5.14l6.42-1.75.22.59-5,2.29a2.77,2.77,0,0,0,4.3,1.22c4.51-3,8.85-6.22,13.48-9a271.07,271.07,0,0,0,28.22-19.5,5.15,5.15,0,0,1,1.87-.48l.47,1L63.24,106.39c1.1,1.13,2.11,1.72,3.52.46a31.37,31.37,0,0,1,3.47-2.6c5.71-3.78,11.51-7.42,17.13-11.32,5.16-3.58,10.18-7.36,15.18-11.16C108.47,77.25,114.71,73,119,66.66c.51-.78,1.11-1.49,1.67-2.23.64.73.89,1.24.73,1.46-1.27,1.83-2.33,4-4,5.34q-10.95,9-22.22,17.62c-3.79,2.87-8,5.19-11.9,7.9-5.81,4-11.53,8.14-17.31,12.24a13.41,13.41,0,0,0,1.85,2.31c.58.46,1.63,1,2.15.75a20.66,20.66,0,0,0,4.64-2.79C80.84,104.12,87,98.77,93.31,93.7c8-6.4,16.17-12.6,24.27-18.89,2.54-2,5.07-4,7.74-6.08l-6.61-8.64c-.33,1.24-.51,1.92-.65,2.48l1.78,1L115.9,69a13.65,13.65,0,0,1,0-2.72c.49-2.29,1.14-4.53,1.67-6.8.05-.2-.24-.5-.43-.71-1.12-1.22-2.27-2.42-3.19-3.41-12.81,7.69-24.34,17-37.83,23.29l5.1-1.34.09.35L74,81l.2.51A14,14,0,0,1,77,80.69a37,37,0,0,1,4.08,0l-9.22,2.54c.07.23.13.45.19.68a14.2,14.2,0,0,0,1.46,0c2.84-.31,5.2-1.76,7.54-3.25,3.11-2.08,6.13-4.31,9.34-6.24,6.93-4.17,14.05-8,20-13.63.48-.44,1.74-.83,2-.59a2.82,2.82,0,0,1,.79,2.21c-.73,3.14-1.66,6.24-2.56,9.34a5.71,5.71,0,0,1-.84,1.33l-.45-.18q1.3-5.13,2.59-10.27l-.7-.24a16,16,0,0,0-1,2.1c-1,3.14-1.87,6.3-2.8,9.45l-.77-.23,2.34-8.8-.51-.25a6.38,6.38,0,0,0-1.08,1.57c-.59,1.85-1,3.76-1.58,5.62a27.61,27.61,0,0,1-1.12,2.71l-.47-.2,1.9-8.06c-1.38.78-2.69,1.09-3.15,1.89-.68,1.18-.7,2.72-1.1,4.08-.64,2.15-1.37,4.28-2.06,6.42l-.48-.15c.37-2.25.73-4.49,1.1-6.74Zm-25.21-33c-3.14,4.72-6.22,9.25-9.2,13.85Q56.58,64,48.22,77.21c-2.92,4.63-5.65,9.38-8.51,14.05-1.89,3.07-3.89,6.08-5.83,9.13-.53.84-1.17,1.74.51,2.24.69-.94,1.4-1.86,2.08-2.8,2.3-3.25,4.66-6.47,6.89-9.78,3.1-4.61,6.16-9.25,9.13-13.94C57,69.05,61.36,61.92,65.82,54.85a6.25,6.25,0,0,1,1.38-1.21,3.08,3.08,0,0,1-.38,2c-5.38,8.54-10.82,17-16.11,25.64a8.84,8.84,0,0,0-.91,4.06c-.13,2.38,0,4.77,0,7.15v4.69a5.75,5.75,0,0,0,2.06-3.33c.23-3.1,0-6.24.12-9.35a42.73,42.73,0,0,1,.78-5l.79.13L52.39,93.9c.53-.66.77-.9,1-1.18,5.35-8.29,10.78-16.54,16-24.89,3.41-5.42,6.54-11,9.85-16.48a26.32,26.32,0,0,1,2.35-2.94l.92.68L45,107.26l4.7,1.37c-1-2.64.32-5.11,1.9-7.54.88-1.37,1.65-2.8,2.53-4.17Q63.58,82.28,73,67.66c4.46-6.91,9-13.78,13.37-20.73A34.19,34.19,0,0,0,88.57,42c-2.58-1-4.74-1.69-6.84-2.58-1.68-.72-3-.79-4.12,1A30.93,30.93,0,0,1,75,43.66l-.36-.21c.58-1.63,1.15-3.27,1.68-4.76ZM59.17,98.17c1.11-1.36,2-2.38,2.83-3.5,1.77-2.49,3.43-5.06,5.23-7.53,4.66-6.4,9.72-12.55,14-19.22S88.85,54.24,92.5,47.3c1.5-2.86.82-4.14-2-5.22-3.12,5.31-6,10.7-9.35,15.8-3.07,4.71-6.77,9-9.9,13.67-4,6-7.61,12.18-11.62,18.13a8.07,8.07,0,0,0-1.16,5.55A23.32,23.32,0,0,0,59.17,98.17Zm-18.73,0c-1.16,3-1,6.53.56,8.36C40.8,103.62,40.63,101,40.44,98.2ZM56.33,101c1.53-1.19,1.72-5,.79-7.05C55,96.17,57.77,98.51,56.33,101Z"/><path d="M100.41,71.82q-1.84,4.74-3.7,9.47l-.62-.22q1.68-5.52,3.37-11Z"/><path d="M115.62,60.47c.7,1-1,7.75-2.81,11.18C112.21,69.85,113.67,64,115.62,60.47Z"/><path d="M94.64,81.25c-.82-1.78,1.08-7.66,3.38-9.42C96.77,75.32,95.72,78.23,94.64,81.25Z"/><path d="M56,75.23c1.6,1.31,1.52,3.7,0,10.5Z"/></svg>