<svg xmlns="http://www.w3.org/2000/svg" viewBox="0 0 150 150"><defs><style>.a{fill:#f9f4ef;}.b{fill:#efe3d6;}.c{fill:#fdfbf9;}.d{fill:#e0cdb9;}.e{fill:#e8d7c8;}.f{fill:#efe5d9;}.g{fill:#c29e7b;}.h{fill:#bf9a78;}.i{fill:#c4a685;}.j{fill:#d2b99e;}.k{fill:#ebddd1;}.l{fill:#f3ebe2;}.m{fill:#d1b597;}.n{fill:#f8f2eb;}</style></defs><title>icon</title><path class="a" d="M78.07,61.89h0m0-.26h0m0-.05h0m0-2h0v0h0v0m-.48-2.43c0,.1.07.21.1.33h0c0-.12-.07-.23-.1-.33h0"/><path class="b" d="M58.41,127.88l.19.13,1.19.54c.36.16.88.37,1.48.61l1,.36,1.17.4a43.73,43.73,0,0,0,13.84,2.24h0a43.8,43.8,0,0,1-7.42-.63h0a43.73,43.73,0,0,1-6.42-1.61l-1.17-.4-1-.36h0c-.59-.23-1.1-.44-1.46-.6h0L58.6,128l-.19-.13h0m43-4.24h0c-.23.23-.47.45-.72.67h0c.25-.22.49-.44.72-.67m-49.95-1.26q.27.28.57.57c.25.23.53.47.81.69h0c-.28-.22-.56-.46-.81-.69h0q-.3-.28-.57-.57h0m51.93-1.47h0a9.54,9.54,0,0,1-2,2.73h0a9.54,9.54,0,0,0,2-2.73m1.8-1.82h0l-1.62,1.48h0l1.62-1.48m.09-.09-.09.09h0l.09-.09m-56.62-1.46a4.7,4.7,0,0,1,.12.51s.68,1.33,1.5,2.7a9,9,0,0,0,.67,1h0a9,9,0,0,1-.67-1h0c-.82-1.37-1.5-2.7-1.5-2.7h0a4.7,4.7,0,0,0-.12-.51h0m60-2.14h0l-.29.32h0l.29-.32m4.26-4.68h0a1.6,1.6,0,0,0-.36.24h0a1.6,1.6,0,0,1,.36-.24h0m-71.21-.78a28.66,28.66,0,0,1,2.61,2c.37.32.73.66,1.09,1h0c-.36-.35-.72-.69-1.09-1a28.66,28.66,0,0,0-2.61-2h0m73.56-3.15h0a13.16,13.16,0,0,1-1.55,2.91h0a13.16,13.16,0,0,0,1.55-2.91h0m.77-4.56h0"/><path class="c" d="M78.07,61.89h0m0-.28h0m0,0h0m0,0h0m0-2v.06h0v-.06h0m-.56-2.43a7.16,7.16,0,0,0-.07.94h0a7.16,7.16,0,0,1,.07-.94h0"/><path class="d" d="M85.72,30.66l-1.08,0a20.33,20.33,0,0,0-4.57.87,48.13,48.13,0,0,0-8.37,3.87,20.45,20.45,0,0,0-2,.91c-.63.33-1.32.75-1.91,1.13a18,18,0,0,0-3,2.44,16.5,16.5,0,0,0-3.18,4.5,11.61,11.61,0,0,0-1.29,5.23v.15a3,3,0,0,0,.63,2h0s0,.07-.08.13a3.16,3.16,0,0,1-1.41,1.68,1.85,1.85,0,0,0-.83-.2h-.22A31.73,31.73,0,0,0,51,55.2a24.06,24.06,0,0,0-6,3.57,8.65,8.65,0,0,0-3,4.72,36.68,36.68,0,0,0-.75,5.42,15.65,15.65,0,0,1-2,5.72c.43-.49,1.5-1.71,2.58-3.16-.17-.83-.31-1.66-.44-2.5h0a37.72,37.72,0,0,1,.75-5.41A8.61,8.61,0,0,1,45,58.85a23.59,23.59,0,0,1,6-3.57,31,31,0,0,1,7.49-1.82h.22a2.22,2.22,0,0,1,1.3.47c.42.31.72.59.76.85a1.52,1.52,0,0,1,.06.42h0a4.25,4.25,0,0,1-1.06,2.3A12.68,12.68,0,0,0,58,60.63c.18.31,0,1,.53,1.13a1.54,1.54,0,0,1,.88.68A14.14,14.14,0,0,1,59.47,64a8.25,8.25,0,0,0,2.61,1.87l0,0,.7.2c.46.11.85.23,1.27.34l.29.06,1.47.32.93.15.5.08.13,0,1,.11.45,0,.46,0,.17,0h.72a10.21,10.21,0,0,0,1.58-.1h.06l2.72-.39.16-.12,0,0,.31-.26.34-.31.12-.12a2.73,2.73,0,0,0,.23-.25c-.16-.53-.29-1-.44-1.44A3.44,3.44,0,0,0,74,62.68a4.06,4.06,0,0,1-1.48-1.31,1.55,1.55,0,0,1,0-.22h0a3.19,3.19,0,0,1,.85-1.93,2.78,2.78,0,0,0,.47-.63s0-.06,0-.09a.28.28,0,0,0-.11-.22,5.4,5.4,0,0,1-1-.69.59.59,0,0,1-.27-.48h0a1.2,1.2,0,0,1,.57-.86c.49-.39,1.1-.61,1.21-1a.82.82,0,0,0,0-.33c0-.5-.27-1.22-.29-1.95a1.41,1.41,0,0,1,0-.2h0c0-.65.26-1.21.76-1.21a1,1,0,0,1,.43.12c-.19-.11-.27-.22-.27-.34h0a.5.5,0,0,1,.23-.36,3.23,3.23,0,0,1,1.65-.42h.14c1.06,0,2,.4,2.06.69h0c0,.06,0,.12-.15.17a3.07,3.07,0,0,1,.3,1.58h0v.26a12.15,12.15,0,0,1-.25,1.56,7.56,7.56,0,0,0-.57,2.37,2,2,0,0,0,.19.11h0l0,0h0l0,0-.1,0q-.06.52-.09,1.08c0,.68-.08,1.38-.09,2.08V61h0v.09h0c0,.1,0,.22,0,.35a7.44,7.44,0,0,0,2.21,3.11l.1.12a8.48,8.48,0,0,1,2.42.45c.82.24,1.34.75,1.34,1h0a.16.16,0,0,1,0,.09,6.59,6.59,0,0,1-3.44,1h0a1.22,1.22,0,0,1-.66.38,4.25,4.25,0,0,0-1.26.42,1.72,1.72,0,0,1-.8.23,1.75,1.75,0,0,1-1.41-.88l-.62,0c-.83.06-1.62.09-2.51.09l-1.45,0-2.45-.15c-.66,0-1.39-.09-2.11-.19l-.22,0L66.78,67l-.16,0c-.28,0-.57-.08-.87-.14s-.88-.18-1.37-.3h0l-.27-.06-.32-.09c-.29-.07-.61-.15-1-.25h0s.16,0,.29.11h0a1.41,1.41,0,0,0-.24.27,27.61,27.61,0,0,1,2.39,1.8c1.13,1,2.06,1.75,2.05,2h0s0,.07-.13.08h0c0,.07,1,.75,2.09,1.7a15.1,15.1,0,0,1,3.16,3.4c.07,0,.56.17,1.44.37L73,74.67c-.61-.89-1.38-2-2-3a4.69,4.69,0,0,1-.83-1.82h0a.54.54,0,0,1,.07-.29c.12-.19.41-.3.95-.32h.16a17.34,17.34,0,0,1,2.21.18l1.79-.19c1.11-.13,2.66-.36,4.37-.72s3.61-.86,5.46-1.23A14.72,14.72,0,0,1,88.05,67a6.1,6.1,0,0,1,2.51.48s.39.18,1.09.54a24.22,24.22,0,0,1,2.79,1.77,27.26,27.26,0,0,1,7.33,8.44,31.26,31.26,0,0,1,4,13.78c0,.38,0,.76,0,1.15h0c0,.84,0,1.67-.11,2.5,0,.61-.14,1.19-.24,1.78a12.92,12.92,0,0,1-.41,1.82,18.54,18.54,0,0,1-1.71,3.91,20.13,20.13,0,0,1-3,3.94s-.14.14-.39.44-.59.79-1.07,1.51L97,112c-.45.64-.91,1.34-1.48,2.13s-1.22,1.66-2.07,2.62c0,0-.32.24-.93.63-.31.19-.66.42-1.13.68s-1,.55-1.65.86l-1,.45-1.15.46a25.19,25.19,0,0,1-2.62.86,30.94,30.94,0,0,1-6.47,1l-1.38,0a29.55,29.55,0,0,1-5.56-.52,24.33,24.33,0,0,1-5.63-1.82c-3.09-1.5-4.86-3.31-5.47-5.18l-.45-.62c-.16-.2-.31-.42-.48-.68s-.37-.56-.54-.86a14.26,14.26,0,0,1-1-1.94c-.24-.63-.52-1.3-.82-2s-.64-1.37-1-2a7.8,7.8,0,0,0-1.44-2,10.72,10.72,0,0,0-4.08-3,14,14,0,0,0-.9-2.89A5.74,5.74,0,0,0,48,95.88l-1.75-.63h0a3.5,3.5,0,0,1,1.75.63c.61.22,1.37.48,2.23.76a33.7,33.7,0,0,1-6.28-3.74c-1.92-1.51-3-3-3-3.94h0a1,1,0,0,1,.09-.43,21.5,21.5,0,0,1-1.05-1.9A19.39,19.39,0,0,1,38.39,82a14.94,14.94,0,0,1-.28-2.88h0a11,11,0,0,1,.53-3.51c-.22.39-.46.79-.7,1.19-1.71,2.8-3.78,5.76-5.8,8.64q-.32.48-.63.93c-1.66,2.2-4,4.78-5.28,7.45a8.93,8.93,0,0,0-1,3.85,5.44,5.44,0,0,0,1.68,4c2.84,2.58,6.45,4.15,9.87,5.72a44.91,44.91,0,0,1,5,2.57c-1.14-.78-2.26-1.44-3.32-2a47.13,47.13,0,0,0-6.72-3.06,47.13,47.13,0,0,1,6.72,3.06c1.06.58,2.18,1.24,3.32,2h0c-1.14-.78-2.26-1.44-3.32-2a47.13,47.13,0,0,0-6.72-3.06,47.13,47.13,0,0,1,6.72,3.06c1.06.58,2.18,1.24,3.32,2h0c-1.14-.78-2.26-1.44-3.32-2a47.13,47.13,0,0,0-6.72-3.06,47.13,47.13,0,0,1,6.72,3.06c1.06.58,2.18,1.24,3.32,2a17.4,17.4,0,0,1,3.7,3,26.23,26.23,0,0,1,1.79,2l.69.88a5.36,5.36,0,0,1,.32.44l.12.34a9.34,9.34,0,0,1,.29,1c.22.48.43.94.65,1.39.35.7.72,1.37,1.12,2a9,9,0,0,0,2.07,2.27,5.26,5.26,0,0,0,.34.42,7.8,7.8,0,0,0,1.74,1.07,32.76,32.76,0,0,0,3.84,3.17,62.7,62.7,0,0,0,10.72,3.31c1.13.24,2.38.44,3.6.59s2.53.26,3.89.3l1.4,0c.88,0,1.76,0,2.64-.08a41.74,41.74,0,0,0,8.07-1.48h0a36.5,36.5,0,0,0,7.54-3.13l.24-.14a26.9,26.9,0,0,0,2.81-1.84l.08-.06c.46-.36.89-.71,1.28-1.06l.55-.54a13.77,13.77,0,0,0,1.38-1.68c.27-.39.55-.79.77-1.18,0-.09.07-.18.1-.27h0l.08-.07.09-.19c2.19-2,3.73-3.58,5-5,1.73-2,3.08-3.78,3.9-4.44l.54-.7a17.13,17.13,0,0,0,2.21-3.74,8.55,8.55,0,0,0,.34-1,8.81,8.81,0,0,0,.17-.92,11.43,11.43,0,0,0,.13-1.71c0-.12,0-.23,0-.35-.08-1.51-.22-3-.39-4.52q-.12-.53-.27-1.08h0q.15.54.27,1.08c-.26-2.38-.58-4.74-.85-7a66.28,66.28,0,0,1-.52-7.5h0a34.44,34.44,0,0,1,.18-3.65A117.1,117.1,0,0,1,116,67.12c.08-.79,1.26-2.65,2.4-4.79a46.77,46.77,0,0,0,2.74-6,7.2,7.2,0,0,0,.42-2.49,9.2,9.2,0,0,0-.08-1.17A11.54,11.54,0,0,0,120.15,49a16,16,0,0,0-2.38-3.07A18.44,18.44,0,0,0,115,43.7c-3.3-1.67-6.29-3.12-9.38-4.45a99,99,0,0,0-9.54-3.66,13.92,13.92,0,0,1-2.93-2.21,12.44,12.44,0,0,0-3.46-2.21,18.14,18.14,0,0,0-2.54-.46c-.47,0-.94-.05-1.4-.05"/><path class="d" d="M77.68,57.47c.06.2.11.4.15.58s.06.28.08.4l0-.16s0-.07,0-.1a.5.5,0,0,1,0-.12c0-.2-.1-.4-.15-.58v0"/><path class="d" d="M77.72,57.59c0,.18.1.38.14.6v.06q-.08-.39-.15-.66"/><path class="d" d="M78.06,59.59v0s0,.11,0,.17l0,.42c0-.21,0-.41,0-.61"/><path class="d" d="M78.06,59.63c0,.24,0,.54,0,.89,0-.08,0-.15,0-.21a1.09,1.09,0,0,0,0-.18c0-.12,0-.23,0-.35a.76.76,0,0,0,0-.15"/><path class="d" d="M78.1,60.29v0c0,.09,0,.18,0,.29v.22c0-.18,0-.35,0-.53"/><polyline class="d" points="78.11 60.95 78.11 60.95 78.11 60.95 78.11 60.95"/><polyline class="d" points="78.11 60.98 78.11 60.99 78.11 60.98 78.11 60.98"/><path class="d" d="M78.11,61v.08h0V61"/><path class="d" d="M78.1,61.55v0h0v0"/><polyline class="d" points="78.09 61.58 78.09 61.59 78.09 61.59 78.09 61.58 78.09 61.58 78.09 61.58"/><polyline class="d" points="78.09 61.63 78.09 61.63 78.09 61.63 78.09 61.63"/><polyline class="d" points="78.09 61.63 78.09 61.64 78.09 61.64 78.09 61.64 78.09 61.63"/><path class="d" d="M78.09,61.63h0v0h0v0"/><polyline class="d" points="78.09 61.64 78.09 61.65 78.09 61.65 78.09 61.64 78.09 61.64"/><path class="d" d="M78.08,61.72v0h0"/><polyline class="d" points="78.08 61.73 78.07 61.74 78.07 61.75 78.08 61.73"/><polyline class="d" points="78.07 61.88 78.07 61.88 78.07 61.89 78.07 61.88 78.07 61.88"/><polyline class="d" points="78.07 61.89 78.07 61.89 78.07 61.89 78.07 61.89 78.07 61.89"/><polyline class="e" points="78.07 61.89 78.07 61.89 78.07 61.89 78.07 61.89 78.07 61.89 78.07 61.89 78.07 61.89 78.07 61.89"/><polyline class="f" points="78.07 61.89 78.07 61.89 78.07 61.89 78.07 61.89 78.07 61.89 78.07 61.89 78.07 61.89 78.07 61.89"/><polyline class="d" points="78.07 61.89 78.07 61.89 78.07 61.89 78.07 61.89"/><polyline class="d" points="78.07 61.89 78.07 61.89 78.07 61.89 78.07 61.89 78.07 61.89 78.07 61.89"/><path class="d" d="M77.93,62.3v0h0s0,.08,0,.11v.05l0,0h0l0,.08a1.22,1.22,0,0,1-.07.17l0,.06,0,0a3.74,3.74,0,0,0,.23-.59"/><path class="d" d="M77.89,62.42v0h0v0"/><path class="d" d="M77.82,62.6l0,0h0v0"/><path class="d" d="M77.77,62.72s0,.07,0,.11v0l0-.07"/><path class="d" d="M77,64.21v0l0,0,0-.06"/><polyline class="d" points="76.86 64.4 76.86 64.4 76.86 64.4 76.86 64.4"/><path class="d" d="M76.86,64.4l-.18.25h0l0-.05,0,0,0,0,.07-.1h0l0,0"/><path class="d" d="M76.78,64.51l0,0,0,.06v0l.07-.11"/><path class="d" d="M76.37,65.06l-.23.28-.21.22h0l.2-.23a2.75,2.75,0,0,0,.22-.26"/><path class="d" d="M76.15,65.32l-.11.14.11-.14"/><path class="d" d="M75.82,65.69l-.11.12h0l.1-.11h0m-14.6-.06h0l.77.24-.71-.22-.08,0"/><path class="d" d="M75.82,65.7l-.1.1,0,0h0l-.07.07a.6.6,0,0,1-.08.08l0,0-.1.09-.24.23.09-.07a6.58,6.58,0,0,1,.53-.41l0,0,0-.1"/><path class="d" d="M75.48,66l0,0-.07.06,0,0,0,0"/><path class="d" d="M75.2,66.3l-.08.07-.09.08.16-.14,0,0,0,0"/><path class="d" d="M76.14,66.57h0l-.13,0-.23,0h0l.4-.06h0"/><path class="d" d="M74.84,66.61l0,0-.21.16h0l.23-.18"/><path class="d" d="M75.8,75.9a6.83,6.83,0,0,0-1,.14c.35.07.73.14,1.14.2l-.09-.34"/><path class="d" d="M73.45,78.3l.24.29,0,0-.09-.11c-.06-.07-.12-.13-.17-.2"/><path class="d" d="M74.54,79.69l.15.17.12.14-.24-.28,0,0"/><path class="d" d="M75.2,80.48l0,.07.51.65a1,1,0,0,0-.08-.11l-.48-.61"/><path class="d" d="M90.47,81.45c.09.11.17.22.26.32a34.86,34.86,0,0,1,3.61,5.57A26.14,26.14,0,0,0,91.24,82s-.27-.22-.77-.57"/><path class="d" d="M77.06,83.13c.16.29.31.57.44.83h0l-.14-.28c-.09-.19-.2-.37-.3-.54"/><path class="d" d="M79.94,83.21a20.82,20.82,0,0,1,.56,4.34h0a11.42,11.42,0,0,1-.15,1.84,6.83,6.83,0,0,1-.92,2.43,4.46,4.46,0,0,0,1.27-1.88,6.36,6.36,0,0,0,.38-2.2,10,10,0,0,0-.65-3.37,11.48,11.48,0,0,0-.49-1.16"/><path class="d" d="M78.24,86h0"/><path class="d" d="M93.49,101a26.43,26.43,0,0,1-6.44,4.73c-.78.39-1.6.75-2.41,1.07l.1,0a17.65,17.65,0,0,0,2.39-.8,15.44,15.44,0,0,0,4.52-2.9A13.31,13.31,0,0,0,93.49,101"/><path class="d" d="M112.59,111c-.82.66-2.17,2.46-3.9,4.44l.86-.93c1.23-1.34,2.19-2.45,3-3.51"/><path class="d" d="M45.44,112.94c.2.22.39.44.58.67l1.28,1.67a6.44,6.44,0,0,1,1,1.47c.12.27.24.53.35.79a9.34,9.34,0,0,0-.29-1l-.12-.34a5.36,5.36,0,0,0-.32-.44l-.69-.88a26.23,26.23,0,0,0-1.79-2"/><path class="d" d="M103.56,120.57l-.08.07h0c0,.09-.06.18-.1.27a3.79,3.79,0,0,0,.18-.34"/><path class="d" d="M52.83,123.64a19.45,19.45,0,0,0,1.78,1.69,22.66,22.66,0,0,0,3.56,2.45l.24.1a32.76,32.76,0,0,1-3.84-3.17,7.8,7.8,0,0,1-1.74-1.07"/><path class="d" d="M100.68,124.31c-.4.35-.83.71-1.28,1.06l-.08.06a26.9,26.9,0,0,1-2.81,1.84l-.24.14a36.5,36.5,0,0,1-7.54,3.13h0A41.5,41.5,0,0,1,80.67,132c1.29-.09,2.57-.23,3.81-.42s2.52-.46,3.7-.77,2.3-.67,3.39-1.07A29.52,29.52,0,0,0,97.2,127a20.16,20.16,0,0,0,3.48-2.69"/><path class="g" d="M59.34,63.89v.3h0c0,.26,0,.52,0,.78l.12,0c0-.27,0-.54,0-.81V64l-.13-.13"/><path class="g" d="M59.33,65c-.07,1.52-.31,3.1-.45,4.9.06.27.14.53.2.72.86,2.1,2.5,3,4,4.69a8.6,8.6,0,0,0,2.76,2,4.84,4.84,0,0,1,2.32,2.55,8.18,8.18,0,0,0,1.5,1.94,6.94,6.94,0,0,0,1,.77,9.81,9.81,0,0,0,1.2.64,11.9,11.9,0,0,0,4.26,1A5.3,5.3,0,0,0,77.53,84l0,0a5.51,5.51,0,0,1-1.3.15,11.83,11.83,0,0,1-4.19-1,9.81,9.81,0,0,1-1.2-.64,6.43,6.43,0,0,1-1-.78,8,8,0,0,1-1.49-1.93A4.73,4.73,0,0,0,66,77.26a8.67,8.67,0,0,1-2.75-2c-1.51-1.64-3.17-2.58-4-4.71a6.77,6.77,0,0,1-.19-.65h0c.14-1.78.37-3.34.44-4.85L59.33,65"/><path class="g" d="M72.4,75.47c.75,1.59,0,1.62,1,2.83-.89-1.12-.24-1.19-1-2.72l0-.1h0"/><path class="g" d="M73.71,78.61c.18.23.34.48.52.69a4.37,4.37,0,0,0,.31.39h0l-.08-.1-.15-.2c-.21-.24-.39-.54-.6-.78"/><path class="g" d="M74.81,80l.39.48L74.81,80"/><path class="g" d="M75.76,81.2c.14.19.28.38.42.59s.3.41.44.64l.4.65,0,0a17.93,17.93,0,0,0-1.29-1.92h0"/><path class="h" d="M78.24,86h0m.58-3h0m0,0h0m0,0h0m-20-29.63h-.22a31,31,0,0,0-7.49,1.82,23.59,23.59,0,0,0-6,3.57,8.61,8.61,0,0,0-2.95,4.71A37.72,37.72,0,0,0,41.34,69c.13.84.27,1.67.44,2.5l.21-.28c1.23-1.7,2.44-3.57,2.45-5.21a3,3,0,0,0-.13-.89h0s.42-.86,1.11-2a23.22,23.22,0,0,1,2.68-3.64c1.28-1.39,2.64-2.35,3.64-2.35.64,0,1.13.39,1.38,1.29l1,1.43a19.78,19.78,0,0,1,1.39,2.29h0s-.13,1.23-.29,3.18c-.06.92-.15,2-.14,3.2a17.2,17.2,0,0,0,.44,4.1,19.06,19.06,0,0,0,3.35,6.47c1.12,1.55,2,2.78,2,3.44h0a.81.81,0,0,1,0,.16,24,24,0,0,0,2.64,3,36.82,36.82,0,0,0,7.76,5.83,10.9,10.9,0,0,0,5,1.48l.58,0a4.59,4.59,0,0,0,2.69-1.12,6.83,6.83,0,0,0,.92-2.43,11.42,11.42,0,0,0,.15-1.84,20.82,20.82,0,0,0-.56-4.34,17.07,17.07,0,0,0-1.08-1.92c-.33-.51-.71-1.05-1.12-1.57s-.83-1.11-1.31-1.66l-.51-1.73,0-.09c-.41-.06-.79-.13-1.14-.2a4.71,4.71,0,0,0-.64.19l-.26-.38c-.88-.2-1.37-.35-1.44-.37l0,.1c.75,1.53.1,1.6,1,2.72,0,.07.11.13.17.2l.09.11c.21.24.39.54.6.78l.15.2.08.1h0l0,0,.24.28.39.48.48.61a1,1,0,0,1,.08.11h0a17.93,17.93,0,0,1,1.29,1.92c.1.17.21.35.3.54l.14.28h0l0,0h0a5.3,5.3,0,0,1-1.39.17,11.9,11.9,0,0,1-4.26-1,9.81,9.81,0,0,1-1.2-.64,6.94,6.94,0,0,1-1-.77,8.18,8.18,0,0,1-1.5-1.94,4.84,4.84,0,0,0-2.32-2.55,8.6,8.6,0,0,1-2.76-2c-1.5-1.64-3.14-2.59-4-4.69-.06-.19-.14-.45-.2-.72h0c.14-1.8.38-3.38.45-4.9h0L59,64.84l-.13,0,.17.06.33.12c0-.26,0-.52,0-.78v-.3h0l.13.13a14.14,14.14,0,0,0-.11-1.58,1.54,1.54,0,0,0-.88-.68c-.48-.13-.35-.82-.53-1.13h0a12.68,12.68,0,0,1,1.89-3.14,4.25,4.25,0,0,0,1.06-2.3,1.52,1.52,0,0,0-.06-.42c0-.26-.34-.54-.76-.85a2.22,2.22,0,0,0-1.3-.47"/><path class="i" d="M51.74,57.1c-1,0-2.36,1-3.64,2.35a23.22,23.22,0,0,0-2.68,3.64c-.69,1.14-1.11,2-1.11,2a3,3,0,0,1,.13.89h0c0,1.64-1.22,3.51-2.45,5.21s-2.33,2.92-2.79,3.44l-.2.22a5.68,5.68,0,0,0-.36.78,11,11,0,0,0-.53,3.51A14.94,14.94,0,0,0,38.39,82a19.39,19.39,0,0,0,1.55,4.61A21.5,21.5,0,0,0,41,88.53h0a1,1,0,0,0-.09.43c0,1,1.1,2.43,3,3.94a33.7,33.7,0,0,0,6.28,3.74l.6.2,4.64,1.5c1.62.52,3.58,1.25,4.74,1.51,1.34.37,2.64.78,3.91,1.25s2.92,1.28,4.63,2,3.61,1.5,5.35,2.11a18.09,18.09,0,0,1,4.1,1.72,7.29,7.29,0,0,0,1.12.19,13,13,0,0,0,1.72.11c.45,0,.95,0,1.51-.07a19.61,19.61,0,0,0,2.12-.36c.81-.32,1.63-.68,2.41-1.07A26.43,26.43,0,0,0,93.49,101a12.27,12.27,0,0,0,2.34-7.24v-.08a15.42,15.42,0,0,0-1.14-5.49c-.11-.29-.23-.58-.35-.88a34.86,34.86,0,0,0-3.61-5.57c-.09-.1-.17-.21-.26-.32-.3-.21-.68-.47-1.13-.75a35.53,35.53,0,0,0-4.66-2.53,23,23,0,0,0-8.43-2.28H75.8l.09.34,0,.09.51,1.73c.48.55.9,1.12,1.31,1.66s.79,1.06,1.12,1.57a17.07,17.07,0,0,1,1.08,1.92,11.48,11.48,0,0,1,.49,1.16,10,10,0,0,1,.65,3.37h0a6.36,6.36,0,0,1-.38,2.2,4.46,4.46,0,0,1-1.27,1.88,4.59,4.59,0,0,1-2.69,1.12l-.58,0a10.9,10.9,0,0,1-5-1.48,36.82,36.82,0,0,1-7.76-5.83,24,24,0,0,1-2.64-3h0a.81.81,0,0,0,0-.16c0-.66-.85-1.89-2-3.44a19.06,19.06,0,0,1-3.35-6.47,17.2,17.2,0,0,1-.44-4.1h0c0-1.18.08-2.28.14-3.2.16-2,.29-3.18.29-3.18a19.78,19.78,0,0,0-1.39-2.29l-1-1.43c-.25-.9-.74-1.29-1.38-1.29"/><path class="j" d="M88.05,67a14.72,14.72,0,0,0-2.82.33c-1.85.37-3.74.89-5.46,1.23s-3.26.59-4.37.72l-1.79.19a17.34,17.34,0,0,0-2.21-.18h-.16c-.54,0-.83.13-.95.32a.54.54,0,0,0-.07.29,4.69,4.69,0,0,0,.83,1.82c.6.94,1.37,2.06,2,3l.82,1.18.26.38a4.71,4.71,0,0,1,.64-.19,6.83,6.83,0,0,1,1-.14h.45a23,23,0,0,1,8.43,2.28,35.53,35.53,0,0,1,4.66,2.53c.45.28.83.54,1.13.75.5.35.77.57.77.57a26.14,26.14,0,0,1,3.1,5.32c.12.3.24.59.35.88a15.42,15.42,0,0,1,1.14,5.49h0v.08A12.27,12.27,0,0,1,93.49,101a13.31,13.31,0,0,1-1.84,2.08,15.44,15.44,0,0,1-4.52,2.9,17.65,17.65,0,0,1-2.39.8l-.1,0a19.61,19.61,0,0,1-2.12.36c-.56,0-1.06.07-1.51.07a13,13,0,0,1-1.72-.11,7.29,7.29,0,0,1-1.12-.19,18.09,18.09,0,0,0-4.1-1.72c-1.74-.61-3.63-1.35-5.35-2.11s-3.3-1.51-4.63-2-2.57-.88-3.91-1.25c-1.16-.26-3.12-1-4.74-1.51l-4.64-1.5-.6-.2c-.86-.28-1.62-.54-2.23-.76a5.74,5.74,0,0,1,1.76,2.36,14,14,0,0,1,.9,2.89,10.72,10.72,0,0,1,4.08,3,7.8,7.8,0,0,1,1.44,2c.35.65.69,1.34,1,2s.58,1.36.82,2a14.26,14.26,0,0,0,1,1.94c.17.3.36.59.54.86s.32.48.48.68l.45.62c.61,1.87,2.38,3.68,5.47,5.18a24.33,24.33,0,0,0,5.63,1.82,29.55,29.55,0,0,0,5.56.52l1.38,0a30.94,30.94,0,0,0,6.47-1,25.19,25.19,0,0,0,2.62-.86l1.15-.46,1-.45c.62-.31,1.18-.59,1.65-.86s.82-.49,1.13-.68c.61-.39.93-.63.93-.63.85-1,1.45-1.81,2.07-2.62s1-1.49,1.48-2.13l1.89-2.93c.48-.72.85-1.21,1.07-1.51s.39-.44.39-.44a20.13,20.13,0,0,0,3-3.94A18.54,18.54,0,0,0,105,99.26a12.92,12.92,0,0,0,.41-1.82c.1-.59.19-1.17.24-1.78.07-.83.11-1.66.11-2.5,0-.39,0-.77,0-1.15a31.26,31.26,0,0,0-4-13.78,27.26,27.26,0,0,0-7.33-8.44A24.22,24.22,0,0,0,91.65,68c-.7-.36-1.09-.54-1.09-.54A6.1,6.1,0,0,0,88.05,67"/><path class="j" d="M46.22,95.25l1.75.63a3.5,3.5,0,0,0-1.75-.63"/><path class="k" d="M77,64.23v0l0,0h0l0,0,0,.06h0l0,0m0-13.68h-.14a3.23,3.23,0,0,0-1.65.42.5.5,0,0,0-.23.36c0,.12.08.23.27.34h0a1,1,0,0,0-.43-.12c-.5,0-.76.56-.76,1.21a1.41,1.41,0,0,0,0,.2c0,.73.29,1.45.29,1.95h0a.82.82,0,0,1,0,.33c-.11.4-.72.62-1.21,1a1.2,1.2,0,0,0-.57.86.59.59,0,0,0,.27.48,5.4,5.4,0,0,0,1,.69.28.28,0,0,1,.11.22h0s0,.06,0,.09a2.78,2.78,0,0,1-.47.63,3.19,3.19,0,0,0-.85,1.93,1.55,1.55,0,0,0,0,.22A4.06,4.06,0,0,0,74,62.68a3.44,3.44,0,0,1,1.42,1.57c.15.39.28.91.44,1.44h0a2.73,2.73,0,0,1-.23.25l.13-.13.11-.12h0l.13-.14h0l.21-.22.23-.28h0a2.75,2.75,0,0,1-.22.26h0l0,0,.31-.4.19-.23h0l.18-.25h0l.15-.25a2.43,2.43,0,0,1-.6-1A7,7,0,0,1,76,60.45h0c0-.39,0-.76,0-1.08v-.44h0v-.36a2.36,2.36,0,0,0,0-.4h0a1.61,1.61,0,0,1,.3-.72l.15-.14-.05,0h0l0,0,0,0h0l.09,0h0l0,0h0l.2-.12.19-.13c-.59-.12-.78-.28-.78-.4h0a.13.13,0,0,1,.07-.11c.19-.13.57-.12.67-.19h0a1.49,1.49,0,0,1,.49.18l0-.14-.24-.61,0,0h0v0h0l0,.07v0h0l.07.13.11.19,0,0,.08.12a1.47,1.47,0,0,1,.1.13l0,0,.06-.07a3,3,0,0,0,.25-.36l.07-.13v0h0a1.75,1.75,0,0,1-.08.2,3.94,3.94,0,0,0-.18.55A4.33,4.33,0,0,0,78,57l.24.18.06,0a7.56,7.56,0,0,1,.57-2.37,12.15,12.15,0,0,0,.25-1.56V53a3.07,3.07,0,0,0-.3-1.58h0c.11,0,.15-.11.15-.17,0-.29-1-.69-2.06-.69"/><polyline class="k" points="77.02 55.7 77.03 55.72 77.03 55.74 77.04 55.76 77.02 55.7"/><polyline class="k" points="77.04 55.76 77.05 55.77 77.05 55.77 77.04 55.76 77.04 55.76"/><path class="k" d="M77.05,55.78l.24.6,0,.14,0,0,.09-.1,0,0a1.47,1.47,0,0,0-.1-.13l-.08-.12a1.81,1.81,0,0,1-.21-.36h0"/><path class="k" d="M77.61,56.6v0h0v0h0"/><path class="k" d="M77.58,57.14c0,.1.07.21.1.33v0a2.76,2.76,0,0,1-.08-.27l0-.08h0"/><path class="k" d="M77.58,57.14c0,.08,0,.17.08.25l.06.2q.07.27.15.66c.07.36.13.75.17,1.17h0v0a.49.49,0,0,0,0,.12v0c0,.2,0,.4,0,.61v.08h0c0,.18,0,.35,0,.53h0v0h0V61h0v-.59c0-.7,0-1.4.09-2.08q0-.56.09-1.08l.1,0,0,0a2.87,2.87,0,0,0-.75-.12h-.12"/><path class="k" d="M76.85,57.2h0l-.2,0,.25-.06"/><path class="k" d="M76.46,57.29l0,0h0"/><path class="k" d="M76.42,57.31h0l0,0"/><polyline class="k" points="76.38 57.33 76.36 57.33 76.36 57.34 76.38 57.33 76.38 57.33"/><path class="k" d="M77.88,58.29c.06.34.12.75.18,1.28a.49.49,0,0,1,0-.12v0h0a11,11,0,0,0-.16-1.13"/><path class="k" d="M78.11,61v.47h0c0-.12,0-.23,0-.34V61"/><polyline class="k" points="78.11 60.98 78.11 60.99 78.11 60.99 78.11 60.99 78.11 60.98"/><path class="k" d="M78.11,61.08a1.09,1.09,0,0,1,0,.18v.16h0c0-.13,0-.25,0-.35"/><polyline class="k" points="78.1 61.42 78.1 61.44 78.1 61.42 78.1 61.42"/><path class="k" d="M78.1,61.51v.13h0v0h0v0h0v-.06"/><polyline class="k" points="78.09 61.58 78.09 61.58 78.09 61.59 78.09 61.58"/><polyline class="k" points="78.09 61.61 78.09 61.62 78.09 61.63 78.09 61.61 78.09 61.61"/><polyline class="k" points="78.09 61.63 78.09 61.63 78.09 61.63 78.09 61.63"/><polyline class="k" points="78.09 61.63 78.09 61.63 78.09 61.63 78.09 61.63"/><path class="k" d="M78.09,61.63h0m0,0h0"/><polyline class="k" points="78.09 61.64 78.09 61.65 78.09 61.65 78.09 61.65 78.09 61.64"/><polyline class="k" points="78.09 61.64 78.09 61.64 78.09 61.64 78.09 61.64"/><path class="k" d="M78.09,61.64h0v0"/><path class="k" d="M78.09,61.67v0h0v0l0-.06h0"/><path class="k" d="M78.07,61.75v0h0"/><path class="k" d="M78.06,61.83v0h0v0"/><path class="k" d="M78.08,61.83v0h0v0h0"/><path class="k" d="M78.08,61.85h0m0,0h0v0h0v0h0"/><path class="l" d="M78.08,61.87v0h0"/><path class="k" d="M78.07,61.89h0m0,0h0"/><polyline class="k" points="78.07 61.89 78.07 61.89 78.07 61.89 78.07 61.89 78.07 61.89 78.07 61.89"/><path class="k" d="M78.07,61.89h0m0,0h0m0,0h0"/><path class="k" d="M77.92,62.33l0,.09v0s0-.07,0-.11"/><path class="k" d="M77.88,62.44h0v0"/><path class="k" d="M77.84,62.54l0,.06v0l0-.08"/><path class="k" d="M77.81,62.62v0l0,.07,0,.07a1.22,1.22,0,0,0,.07-.17"/><path class="k" d="M77.74,62.79v.06h0l0-.06"/><path class="k" d="M77.5,63.32a.75.75,0,0,0-.07.12.75.75,0,0,1,.07-.12"/><path class="k" d="M77.11,64l-.07.11,0,0h0l.09-.15"/><path class="k" d="M75.19,66.31h0m.55.32h0l.23,0,.13,0h0l-.4.06h0M77,64.16c-.06.1-.12.18-.16.24a1,1,0,0,1-.08.11l-.07.11c-.17.23-.34.45-.52.66l0,0h0l-.11.14-.22.24,0,.1h0l0,0a6.58,6.58,0,0,0-.53.41l-.09.07-.16.14-.19.16-.23.18h0l-.2.15h0l.2-.15h0l-2.72.39h-.06a10.21,10.21,0,0,1-1.58.1h-.72l2.45.15,1.45,0c.89,0,1.68,0,2.51-.09l.62,0A1.75,1.75,0,0,0,78,68.2a1.72,1.72,0,0,0,.8-.23A4.25,4.25,0,0,1,80,67.55a1.22,1.22,0,0,0,.66-.38h0a6.59,6.59,0,0,0,3.44-1,.16.16,0,0,0,0-.09c0-.25-.52-.76-1.34-1a8.48,8.48,0,0,0-2.42-.45,4.89,4.89,0,0,1,1.23,1.41.41.41,0,0,1,.07.18h0c0,.3-.66.34-.94.61A10.32,10.32,0,0,1,79,65.61c-.74-.63-1.48-.91-2-1.45"/><path class="k" d="M75.7,65.82l-.07.07.07-.07h0m-16.87-1,.13,0,.34.14.71.3a23.18,23.18,0,0,1,2.66,1.47,2.54,2.54,0,0,1,.42-.52c-.13-.06-.3-.11-.29-.11h0l-.7-.2-.11,0-.77-.24-.92-.3L59,64.85l-.17-.06"/><path class="k" d="M75.53,66l0,0,0,0,.1-.09"/><path class="k" d="M75.43,66.08l0,0-.19.18,0,0,0,0,.24-.23"/><path class="k" d="M62.82,66.12c.34.1.66.18,1,.25l.32.09c-.42-.11-.81-.23-1.27-.34"/><path class="k" d="M64.09,66.46l.27.06h0l-.29-.06"/><path class="k" d="M64.38,66.52c.49.12,1,.21,1.37.3s.59.11.87.14l.16,0-.93-.15-1.47-.32"/><path class="k" d="M66.78,67l.41.07.22,0-.13,0-.5-.08"/><path class="k" d="M67.41,67.09c.72.1,1.45.16,2.11.19l-.17,0-.46,0-.45,0-1-.11"/><path class="m" d="M115.31,97q.15.55.27,1.08a18.72,18.72,0,0,1,.49,4.17,19.42,19.42,0,0,0-.76-5.25"/><path class="m" d="M116.07,102.23c0,.14,0,.27,0,.4,0-.13,0-.26,0-.4"/><path class="m" d="M116.06,102.63a16,16,0,0,1-.21,2.21,16,16,0,0,0,.21-2.21"/><path class="m" d="M115.85,104.84c-.06.34-.12.65-.2,1,.08-.31.14-.62.2-1"/><path class="m" d="M50.27,120.75a9,9,0,0,0,.67,1,9,9,0,0,1-.67-1"/><path class="m" d="M48.36,116.56a11.93,11.93,0,0,1,.41,1.49,4.7,4.7,0,0,0-.12-.51,9.34,9.34,0,0,0-.29-1m-.44-.78a5.36,5.36,0,0,1,.32.44,5.36,5.36,0,0,0-.32-.44m-.69-.88.69.88-.69-.88"/><path class="m" d="M115.65,105.8c-.11.35-.23.68-.35,1,.12-.31.24-.64.35-1"/><path class="m" d="M113.75,109.7a8.75,8.75,0,0,1-.8,1,7.79,7.79,0,0,0,.8-1"/><path class="m" d="M108.4,115.72c-1,1.16-2.19,2.37-3.13,3.28.94-.91,2.12-2.12,3.13-3.28"/><path class="m" d="M105.18,119.09l-1.62,1.48-.08.07.08-.07,1.62-1.48"/><path class="m" d="M50.94,121.78q.23.28.51.6-.29-.31-.51-.6"/><path class="b" d="M58.41,127.88l.19.13,1.19.54h0c.36.16.87.37,1.46.6h0l1,.36,1.17.4a43.73,43.73,0,0,0,6.42,1.61h0a43.8,43.8,0,0,0,7.42.63h0a43.73,43.73,0,0,1-13.84-2.24l-1.17-.4-1-.36c-.6-.24-1.12-.45-1.48-.61L58.6,128l-.19-.13h0m-7-5.5h0q.27.28.57.57h0c.25.23.53.47.81.69h0c-.28-.22-.56-.46-.81-.69s-.39-.38-.57-.57"/><path class="m" d="M51.45,122.38q.27.28.57.57-.3-.28-.57-.57"/><path class="m" d="M69.82,131.53a43.8,43.8,0,0,0,7.42.63,43.8,43.8,0,0,1-7.42-.63m-10-3c.36.16.87.37,1.46.6-.59-.23-1.1-.44-1.46-.6"/><path class="m" d="M101.4,123.64c-.22.22-.46.45-.72.67s-.82.7-1.28,1.06c.45-.35.88-.71,1.28-1.06.25-.22.49-.44.72-.67"/><path class="m" d="M96.27,127.41a36.5,36.5,0,0,1-7.54,3.13,36.5,36.5,0,0,0,7.54-3.13"/><path class="m" d="M88.73,130.54A41.74,41.74,0,0,1,80.66,132c-.55,0-1.1.08-1.65.1a41.06,41.06,0,0,0,9.72-1.58"/><path class="m" d="M79,132.12c-.6,0-1.19,0-1.77,0,.58,0,1.17,0,1.77,0"/><polyline class="n" points="77.02 55.69 77.02 55.7 77.04 55.76 77.04 55.76 77.02 55.69"/><path class="n" d="M77,55.69h0m0,0v0h0v0h0"/><polyline class="n" points="77.03 55.72 77.03 55.73 77.03 55.74 77.03 55.72"/><path class="n" d="M77,55.76h0m0,0,0,0h0v0"/><polyline class="n" points="77.04 55.76 77.05 55.77 77.06 55.79 77.06 55.8 77.06 55.79 77.04 55.76"/><path class="n" d="M77.05,55.78h0m0,0,.24.61-.24-.6h0"/><path class="n" d="M77.06,55.8a1.81,1.81,0,0,0,.21.36l0,0-.11-.19-.07-.13"/><path class="n" d="M76.42,57.31h0m0,0h0m1,6h0a.75.75,0,0,0-.07.12h0a.75.75,0,0,1,.07-.12h0m.44-1.06h0v0a3.74,3.74,0,0,1-.23.59h0l0,0h0v0s0-.08,0-.11l0-.07h0l0,0,0-.06h0l0,0v-.07l0-.09h0l0-.06h0m.13-.37h0m0,0h0m0,0h0m0,0h0m0-.06h0v0h0v-.06h0m0-.11v0h0l0,.06v.12h0l0,.1,0-.15v-.09m0-.21h0v0h0v0h0v.05h0v.07h0v0h0v-.13h0M76.85,57.2h0l-.25.06h0l.2,0h0m.75-.55v0h0v0h0m.27-.8v0l-.07.13a3,3,0,0,1-.25.36l-.06.07,0,0,0,0h0l-.09.1,0,0,0-.14,0,.14h0a1.49,1.49,0,0,0-.49-.18h0c-.1.07-.48.06-.67.19a.13.13,0,0,0-.07.11c0,.12.19.28.78.4h0l-.19.13-.2.12h0l0,0,.05,0h0l-.15.14a1.61,1.61,0,0,0-.3.72,2.36,2.36,0,0,1,0,.4h0v.8h0c0,.32,0,.69,0,1.08a7,7,0,0,0,.44,2.69,2.43,2.43,0,0,0,.6,1l0,0,.07-.11h0l-.09.15c.53.54,1.27.82,2,1.45a10.32,10.32,0,0,0,1.74,1.25c.28-.27.94-.31.94-.61a.41.41,0,0,0-.07-.18,4.89,4.89,0,0,0-1.23-1.41l-.1-.12a7.44,7.44,0,0,1-2.21-3.11h0v0h0v0h0a9.65,9.65,0,0,1-.64-2.66c0-.23,0-.46,0-.68h0a7.16,7.16,0,0,1,.07-.94h.08l0,.08a2.76,2.76,0,0,0,.08.27c0,.18.1.38.15.58a.5.5,0,0,0,0,.12c0-.22-.09-.42-.14-.6l-.06-.2c0-.08,0-.17-.08-.25h.12a2.81,2.81,0,0,1,.76.12l0,0a2.08,2.08,0,0,1-.25-.15L78,57a4.33,4.33,0,0,1-.4-.36h0a3.94,3.94,0,0,1,.18-.55,1.75,1.75,0,0,0,.08-.2"/><path class="n" d="M77.27,56.16l.08.12-.08-.12"/><path class="n" d="M77.35,56.28a1.47,1.47,0,0,1,.1.13,1.47,1.47,0,0,0-.1-.13"/><path class="n" d="M76.5,57.27l-.09,0h0l0,0,0,0"/><polyline class="n" points="78.5 57.29 78.51 57.29 78.5 57.29"/><path class="n" d="M76.41,57.32h0"/><path class="n" d="M76.38,57.33h0m0,0h0"/><path class="n" d="M76.36,57.33h0m0,0h0l0,0,0,0"/><polyline class="n" points="76.36 57.33 76.36 57.34 76.36 57.34 76.36 57.33"/><path class="n" d="M77.86,58.19s0,.07,0,.1A11,11,0,0,1,78,59.42c0-.42-.1-.81-.17-1.17v-.06"/><path class="n" d="M78,59.42v0"/><path class="n" d="M78.05,59.45a.49.49,0,0,0,0,.12v.06a.76.76,0,0,1,0,.15c0-.06,0-.12,0-.17v0a.49.49,0,0,1,0-.12"/><path class="n" d="M78.07,59.78c0,.12,0,.23,0,.35a1.09,1.09,0,0,1,0,.18v0h0V60.2l0-.42"/><path class="n" d="M78.1,60.31c0,.1,0,.2,0,.32v0c0-.11,0-.2,0-.29"/><path class="n" d="M78.11,60.63v.26h0V61h0v0h0v-.11h0v-.24"/><path class="n" d="M78.11,61v0"/><path class="n" d="M78.11,61.08h0c0,.11,0,.22,0,.34h0v-.16a1.09,1.09,0,0,0,0-.18h0"/><polyline class="n" points="78.09 61.58 78.09 61.58 78.09 61.58 78.09 61.58 78.09 61.58 78.09 61.58 78.09 61.58"/><path class="n" d="M78.09,61.58v0h0"/><polyline class="n" points="78.09 61.63 78.09 61.63 78.09 61.63 78.09 61.64 78.09 61.64 78.09 61.64 78.09 61.65 78.09 61.64 78.09 61.64 78.09 61.63 78.09 61.63 78.09 61.63 78.09 61.63 78.09 61.63"/><path class="n" d="M77,64.15l-.15.25c0-.06.1-.14.16-.24h0"/><path class="n" d="M76.86,64.4h0l0,0-.08.11,0,0a1,1,0,0,0,.08-.11"/><path class="n" d="M76.76,64.54l0,0,0,0,0-.06"/><path class="n" d="M76.72,64.6l0,.05-.19.23-.31.4c.18-.21.35-.43.52-.66v0"/><path class="n" d="M76.19,65.28l0,0h0l0,0"/><path class="n" d="M76.15,65.32h0l-.2.23-.13.14-.1.11.1-.1.22-.24.11-.14h0"/><path class="n" d="M75.72,65.8h0l-.13.13-.12.12,0,0,0,0,0,0a.6.6,0,0,0,.08-.08l.07-.07,0,0"/><path class="n" d="M75.46,66.06l-.34.31.08-.07.19-.18.07-.06"/><path class="n" d="M75.12,66.37l-.31.26,0,0,.19-.16.09-.08"/><path class="n" d="M74.81,66.63l0,0-.16.12h0l.21-.16"/><path class="n" d="M74.6,66.79l-.2.15.2-.15"/><path class="n" d="M74.4,66.94h0"/><path d="M72.38,26.8c.47,2.69.87,5.4,1.48,8.06.09.41,1.12.85,1.73.87,4.33.16,8.66.27,13,.29,6.27,0,12,2.31,17.67,4.46,4.07,1.54,8.17,3.58,10.32,8,.4.81,1.57,1.23,2.45,1.88,1.27-1,2.19-.92,2.06,1.08-.24,3.9-.55,7.79-.83,11.69a4.05,4.05,0,0,0,0,.92c.75,6.21-1.57,12-2.2,18.1-.22,2.17-.67,4.32-1,6.57,2-.3,3-.31,1.84,2.24-.93,2.13-1.42,4.16-3.82,5.2-.62.26-.7,1.71-1.07,2.59-1,2.45-2.17,4.87-3.14,7.34a6.83,6.83,0,0,0-.07,2.13c0,.36.09.95-.09,1-2.64,1.53-3,4.45-4.23,6.85-1.87,3.81-5.45,5.29-9,6.6a39.34,39.34,0,0,1-9.29,2.4,44.69,44.69,0,0,1-9.52-.35A43.61,43.61,0,0,1,62,119.65a14,14,0,0,1-7.09-8.34c-1.57-5.1-3.21-10.18-4.86-15.26a4,4,0,0,0-.91-1.54c-2.07-2.08-1.62-4.51-.46-6.58s.17-3.15-.89-4.44c-1.36-1.66-3.26-3-4.12-4.9C42.47,76,42,73,41.24,70.17a2,2,0,0,1,0-1.15c1.47-4.17,2.06-8.6,4.64-12.46,1.4-2.11,1.09-5.32,2.41-7.53,3.1-5.24.19-10.55.83-15.76A4.76,4.76,0,0,1,50,30.75,20,20,0,0,1,63.93,24.1a47,47,0,0,1,8.6.57c.45,0,.84.73,1.25,1.12l-1.43,1.05c-.85-.45-1.68-1.25-2.56-1.31-4.9-.32-8.72,2.13-12.38,5-2.39,1.87-3.2,4-2.26,7a54.9,54.9,0,0,1,1.37,7.12c0,.35-.27.77-.42,1.15-.25.63-.74,1.27-.7,1.88.13,2.13.5,4.24.68,6.37a12.92,12.92,0,0,1-.26,2.45l-.53,0c-.41-2.57-.83-5.14-1.33-8.16-3.71,8.06-2.68,12.76,3.3,18.48l3.89-.54L59.29,68c.63.12,1.64.06,1.8.4,1.59,3.48,2.83.9,4.7-.4l-4.71-1.71c.25-2.12,2-1.45,2.61-1.68a16.5,16.5,0,0,0,1.56,1.83c.68.59,1.45,1.06,2.09,1.52l-2,2.37,2.8.85c2.39.75,4.75,2.33,7.28.5,1.8-1.31,2.4-.4,2.63,1a19.55,19.55,0,0,1,2,0c.69.07,1.37.27,2,.4-.38-.6-.76-1.2-1.12-1.82a5,5,0,0,1-.24-.8c2.39-.31,2.18,2,3.23,3l.17-1.63.52-.18,1.17,2.07C87,73,89.6,74.91,90.24,72c0-.11.6-.23.85-.14,3.1,1.06,4.5-1,5.82-3.16l.16-.14c1.36-2.35.25-4.49-.78-6.8L99,60.58c0-1.56-.06-3.28,0-5a1.92,1.92,0,0,1,.91-1.25c4-2.32,7.67-5.48,13.06-5.69-4.18-4.23-9.65-4.44-14.51-7.53v8.21h-.74c-.11-.86-.27-1.73-.3-2.6-.27-7-.13-6.14-6.62-6.41a1.61,1.61,0,0,0-.6.22c.26,3.1.52,6.16.77,9.21l-.91.13a52.61,52.61,0,0,1-.94-7.23c0-2.22-1-3.05-2.91-3.22-.89-.08-1.8,0-2.68,0,.18,3.6.34,7,.51,10.48l-.86,0c-.51-3.69-1-7.39-1.55-11.2l-3.89.81c.57,7.56,1.14,15,1.7,22.49-.87-.2-1.39-.54-1.45-1-.26-1.81-.38-3.64-.56-5.46-.44-4.43-1-8.85-1.26-13.28-.1-2.37-.9-3.19-3.07-2.57-.75-4-1.35-7.81-2.23-11.59C70.47,26.43,71.1,26.43,72.38,26.8ZM52.79,45.59l-.5-.34c-.24.14-.63.23-.71.43a67.46,67.46,0,0,0-2.8,7.94,13.1,13.1,0,0,0-.24,6.18,17.17,17.17,0,0,0,9.1,11.34A96.81,96.81,0,0,0,67,74.65c-.84.39-1.47,1-1.95.85-7.48-1.61-13.77-4.91-17-12.45.54,4.9,1.24,9.7,1.83,14.51.08.6-.48,1.26-.72,1.9-.11.3-.31.72-.19.92s.59.22.9.33c1.29.5,2.79.74,3.83,1.56a4.79,4.79,0,0,0,3.28,1.32c1.46,0,2.9,1.08,4.35,1.7A18.82,18.82,0,0,0,63,86c1,.32,2.27.29,3.08.87,1.29.94,2.24,1.82,4,.84a3.39,3.39,0,0,1,3.11,0c1.65,1.56,3.14.57,4.77.35s3.75.24,5.33-.36c2.25-.87,4.29-1.42,5.71-.54C91.3,86,93,84.93,94.83,84c2.68-1.43,5.4-2.81,8.09-4.22,0,0,0-.15.08-.21l4-4.3c.72-.79,1-2,1.68-3,.86-1.16,1.48-2.09.89-3.67a3.58,3.58,0,0,1,.31-3.07c1.47-1.68.79-2.91-.35-4.15-.9-1-.66-1.45.37-2.11,3.34-2.12,5.53-.27,5.51,3.25,0,2.86-1.16,5.73-1.9,8.57-.15.57-1.12,1-1.11,1.53.06,4.4-3,6.86-6,8.94a64.57,64.57,0,0,1-12.53,7c-3,1.23-6.18,2.9-9.77,2.37-.8-.12-1.68.6-2.54.66-1.9.14-3.82.13-5.73.12-.44,0-1-.49-1.28-.33-2.4,1.39-4.19,0-5.65-.92-1.79.18-3.58,1-4.59.36a41.64,41.64,0,0,0-9.18-4.39A25.9,25.9,0,0,1,51,84.38c.21,1.54.36,2.42.44,3.32.35,3.79.47,4,4.09,5a8.08,8.08,0,0,1,.88.22c6.54,2.77,13.51,3.78,20.44,4.8,3.5.51,7.15-.07,10.72.14a53.66,53.66,0,0,0,18-2.46c4.45-1.27,9.53-2.14,9.7-8.47a10.7,10.7,0,0,1,.26-1.35c1.07-6.35,2.44-12.66,3.11-19.05.5-4.79.1-9.67.1-14.41-4.29-.65-7.64,1.89-10.85,4.49a6.89,6.89,0,0,0-2.44,4c-.48,3.76-.22,7.62-.77,11.37-.18,1.29.57,3.66-1.76,4-4.66.75-9.35,1.37-14,1.92a46.18,46.18,0,0,1-6.55.25c-3.18-.08-6.37-.27-9.53-.6-.86-.09-1.64-.86-2.46-1.32,11.09,1,21.78.82,32.32-2.22a8.93,8.93,0,0,0-3.88-.39c-4.2.57-8.4,1.8-12.59,1.76a93.2,93.2,0,0,1-16.38-1.79A39.46,39.46,0,0,1,58.41,69.8a15.21,15.21,0,0,1-8.33-12c-.27-2.82.46-5.79,1-8.64A15.61,15.61,0,0,1,52.79,45.59ZM74,102.21v13h-.53c-.34-4.22-.68-8.44-1-12.45l-5.54-1.09c-.1,1-.2,2.07-.29,3.08l-.75.1a13.33,13.33,0,0,0-.5-2.29,12.33,12.33,0,0,0-1.21-1.89l-.78.35v4.16l-.64.07c-.4-1.82-.81-3.65-1.22-5.47l-.54.11.38,7.38-.65.13-1.53-8.27-.59.14c-.21,3.34,1.11,6.67.39,10a24.24,24.24,0,0,1-1-5c-.88-6.31-1-6.45-6.11-7.71,1.58,4.39,2.63,8.67,4.67,12.42,1,1.75,3.73,2.69,5.85,3.62a53.36,53.36,0,0,0,19.51,4.63,5.5,5.5,0,0,0,1.8-.27c6.18-1.91,12.4-3.71,18.5-5.83,2.24-.78,4.92-1.86,6.14-3.66,1.77-2.6,2.39-6,3.57-9.2-.94.37-1.63.69-2.35.91-2.27.71-3.68,2-3.8,4.59a8.18,8.18,0,0,1-1,2.47L104,106l.79-4.61c-3.41.5-2.16,4.43-4.6,5.78.27-1.61.49-2.91.74-4.33l-2.45.21c-.32,2-.62,3.89-.92,5.79l-.54,0-.37-5.28h-.44l-1.74,9.28-.64-.12.89-8.21-.55-.14c-.6.93-1.19,1.86-1.78,2.8l-.33-.24.22-3.29-.63-.08-1,4.49-.54.09V103.7H80c-.17,1.06-.32,2-.46,2.85l-.49,0c-.1-1-.21-2-.35-3.38-3.68,1.14-1.25,4.37-2.4,6.26C74.74,107.3,76.82,104.3,74,102.21ZM58.77,115.47c1.83,1.21,3.52,2.77,5.52,3.54a74.41,74.41,0,0,0,11.54,3.58c4.45,1,9,1.92,13.6.6,2.34-.68,4.66-1.42,7-1.91,4.93-1,7.58-4.77,10.44-8.29.2-.25.06-.78.09-1.31C90.78,122.6,80.2,123.63,58.77,115.47Zm44.4-42.66c.25-4.55.41-8.88.77-13.19.19-2.34-1.15-2.73-3.26-3,0,4.47.06,8.75,0,13C100.62,71.27,101.38,72.11,103.17,72.81ZM75.49,99.24c2.39,3.31,8.56,4.48,13.7,2.74-1.46-1-2.7-2.44-4.12-2.62A77.61,77.61,0,0,0,75.49,99.24ZM50.59,33c.18,3.12.18,6.13.65,9.08.13.83,1.63,1.44,2.5,2.16a7.56,7.56,0,0,0,.63-2.57c-.25-2.18-.75-4.33-1.16-6.49C53,33.89,52.76,32.51,50.59,33Zm52.06,22.69c1.52,1,2.71.92,4.17-.41A21.23,21.23,0,0,1,112,52a35.9,35.9,0,0,1,5.17-1.57C112.09,49.21,106.45,51.31,102.65,55.72ZM102,101.35c-1.93-1.89-3.41-2.8-5.83-2.24s-5.25.4-8.64.59c1.55.94,2.67,2.19,3.83,2.22C94.76,102,98.17,101.59,102,101.35Zm11.13-5.64c-4.61-1.12-8.09,3.08-13,2.53C103,100.66,107.75,99.7,113.13,95.71Zm-11.87,17.51L85.56,118c.07.24.15.48.23.72C91.52,118.62,96.49,116.18,101.26,113.22ZM48.05,77.05c-.55-3.88-1.07-7.6-1.6-11.32h-.9c0,1.45-.17,2.9-.11,4.34.1,2,.34,4,.52,6Zm27.67,24.42c-2.16-3.36-5.41-3-8.9-3.63A10.6,10.6,0,0,0,75.72,101.47ZM58.57,95.63l-.44.82,9.41,4.09C65.25,96.54,61.46,97,58.57,95.63Zm-7-64.7.54,1c3.36-.1,4.33-3.7,7.14-4.6l-.55-.84Zm44,8.13c0-.22,0-.43,0-.65l-12.3-1.5-.08.67ZM81.05,90.35l-.21-1.12-4.51.71.16,1Zm-14.64-.87.23-1-3.79-.92-.26,1.2Zm41.52-11.23-.83-.91-2.87,2.89.64.66Z"/><path d="M64.11,31.45A4.19,4.19,0,0,1,68.94,31c1.29.87,1.27,1.94.5,3.14-2,3.15-6.94,4-9.62,1.38A3.79,3.79,0,0,1,59,32.44a3.41,3.41,0,0,1,2.16-2C61.91,30.24,62.9,31,64.11,31.45Zm-.51,2.7.94,1.28a32.08,32.08,0,0,0,3.15-1.75c.29-.2.22-.92.31-1.4-.51-.08-1.16-.41-1.5-.21A29,29,0,0,0,63.6,34.15Z"/><path d="M96.91,68.66l-4.5,1.52V68L91,69.07l-2.74-2,2.11-2.23c-1.35-.71-1.31-.68-2.07.44-.19.29-.72.36-1.09.53-.13-.33-.43-.69-.36-1a22.49,22.49,0,0,1,1.1-3.7,2,2,0,0,1,1.53-.2c.81,1.53,1.46,3.13,2.25,4.91l2.13-1,.42.42L92.71,67l3,1.61c-.29-1.33-.47-2.11-.64-2.91.86,0,.86,0,2,2.86Z"/><path d="M68.77,67.81c2-1.18,2.15-1.79,1.67-4.37a10.47,10.47,0,0,0,1,1c.39.3.86.5.85,1a8.89,8.89,0,0,1,.83,2.11c.29,2.6-.89,3.53-3.86,3.21C69.12,69.83,69,68.89,68.77,67.81Z"/><path d="M87.79,70.83,84.4,70.1c.91-.65,1.71-1.55,2-1.4a8.64,8.64,0,0,1,3,2.19c.23.27-.49,1.46-.92,2.13-.14.21-.78.08-1.19.11Z"/><path d="M94.64,64.26l-1.59-3.39c1,.15,2,0,2.37.4C96.29,62.35,96.53,63.58,94.64,64.26Z"/><path d="M77.18,62.23l-2.87,1.89-.65-.33a11.49,11.49,0,0,1,1-1.71C75.36,61.18,76.18,60.66,77.18,62.23Z"/><path d="M81.71,64.88h3c-.07,1-.13,2-.21,3.18C83.53,67,82.84,66.19,81.71,64.88Z"/></svg>