<svg xmlns="http://www.w3.org/2000/svg" viewBox="0 0 150 150"><defs><style>.a{fill:#d2ecdf;}.b{fill:#a0d7b9;}.c{fill:#9cd6b6;}.d{fill:#a9dac0;}.e{fill:#bee3cf;}.f{fill:#e3f4eb;}.g{fill:#f4faf7;}.h{fill:#addbc1;}.i{fill:#81c69e;}.j{fill:#8ccaa7;}.k{fill:#85c6a1;}.l{fill:#65b686;}.m{fill:#61b484;}.n{fill:#6ab88a;}.o{fill:#77bf96;}.p{fill:#80c59d;}.q{fill:#5fb382;}.r{fill:#67b688;}.s{fill:#74bd92;}.t{fill:#89caa6;}.u{fill:#67b787;}.v{fill:#70bb90;}.w{fill:#7dc29b;}.x{fill:#7ac099;}.y{fill:#9cd3b4;}.z{fill:#89caa5;}.aa{fill:#bbe1cd;}.ab{fill:#b9e2cc;}.ac{fill:#c9e7d6;}</style></defs><title>icon</title><path class="a" d="M86.7,111.38l-.12.07c.61,2.3,1.21,4.47-.64,7.27a32.46,32.46,0,0,1-10.31,9.71,2.4,2.4,0,0,1-1.26.33h.14a2.44,2.44,0,0,0,1.25-.33,32.7,32.7,0,0,0,10.32-9.7c1.86-2.84,1.24-5,.62-7.36M80.19,88.2l.47.32a.61.61,0,0,0,.07-.1l-.54-.22m1-2.13c0,.24-.08.5-.1.76a3.86,3.86,0,0,0,0,.68,5.07,5.07,0,0,0,.1-1.44m-1-4.79a5.6,5.6,0,0,0,.07,1.24,3.51,3.51,0,0,0,.53,1.37c-.09-.37-.19-.76-.31-1.18a13.73,13.73,0,0,1-.29-1.43m-33-.93A60,60,0,0,0,53.77,84c.9.43,1.81.83,2.71,1.2a25.13,25.13,0,0,0-2.13-1.51,30,30,0,0,0-7.14-3.35m-8.7-3.26A6.31,6.31,0,0,0,38,78.3l.88-.9-.33-.31M69,75.75l.43.76a19.34,19.34,0,0,0,1.18,1.63,3.06,3.06,0,0,0-.9-1.77,6.56,6.56,0,0,0-.71-.62m-15-4.56s-.36,0-1,.06l.41.07c2.12.35,4.23.69,6.19,1-1.63-.37-3.49-.76-5.63-1.16m-9.73-59.7c-.41.92-1.39,2-1.81,2.81-.71,1.62.57,2.56.77,4A5.4,5.4,0,0,1,42,20.44c-1.19,1.22.18,1.79,1,2.65,1.37.95-.43,2.91.07,4.16.23.88,1.24,1.5,2.06,2.17s1.4,1.37.83,2.28c.11-.16.22-.23.31-.23.39,0,.62,1.15.67,2.32s-.11,2.44-.42,2.44q-.07,0-.18-.12a3.73,3.73,0,0,1-1.69.79c-.42,0-1,.15-1.36.15a.65.65,0,0,1-.22,0,8.71,8.71,0,0,0-3-.41c-1.56,0-3.28.19-4.79.2-.28.13-.25,3.6-2.35,5.19-1.76,1.21-3.78,2.3-4,3.66.2.33,1.5.39,1.71.73.06.4,2.87,2.82,5.58,5.47s5.33,5.4,5,6a5.58,5.58,0,0,1-3.54,1.8h-.12c-3.69.13-5.2,1.65-8.18,2.47a4.12,4.12,0,0,1-.8.06h-1a4.21,4.21,0,0,0-.81.07c-2.17.64-4.66,1.72-5,2.77a5.87,5.87,0,0,0-1,2.83,4.17,4.17,0,0,0,.63,2.61c.13,1.13.25,2.25.4,3.4a18.23,18.23,0,0,0,3.43,2.49c2.1,1.36,3.45,1.36,3.2,2.21,0,.33,4.74.16,7.75,1.6,0,0,.46-.44,1.15-1.15-.36-.14-.89-.35-1.52-.64A17.41,17.41,0,0,1,31.93,76a5.87,5.87,0,0,1-2.27-3.53c-.12-1.27.51-2.66,2.5-3.92a30.19,30.19,0,0,1,5.16-5.82c2.48-2.11,5.53-3.9,8.39-3.9a6.07,6.07,0,0,1,2,.33s1.66.58,4.18,1.54,5.93,2.31,9.44,3.74,7.14,2.93,10.1,4.24,5.21,2.47,6,3.76c0,0,0,.15.63.27h0l-.09-.13c-1.29-1.54-.26-2.13-1.29-3.55h0c-1.72-2.16-5.72-4.63-5.6-4.74.53-.13-.56-.83-1.81-2.35a22.58,22.58,0,0,1-2-2.48l-.41.67c-1.4-1.38-3.28-3-4.42-4.24-.42-.58,0-1-.13-1.46s1.16-.64,2-.69l.85,0A13.47,13.47,0,0,0,69.6,53a14.49,14.49,0,0,1,4.68-.83,16.58,16.58,0,0,1,2,.13h0c.69,0,1.08-.06,1.29-.27-.18-.16-.45-.59-.64-.75,0-.12.06-.24.1-.36a7.27,7.27,0,0,1-1.31-1.15c-.75-.86-1.17-1.93.1-2.84l.39-.15a24.41,24.41,0,0,1-8-6.41c-.38-1,.8-2.16.68-3.37-1-2.83-4.53-4.52-6.51-6.8-2.15-4.55-4-6.31-5-7s-1.54-.33-1.42-.57c-.32-.91,2.27-2,2.38-3.42-.15-1.77-2.19-2.93-4.1-3.37-1.29-.37-2.68-.73-3.92-1.12a28.92,28.92,0,0,1-3.44-1.28,9.49,9.49,0,0,1-1.34-.8,5.07,5.07,0,0,1-1-1l-.14-.19M43.62,9c-.09.12-.2.24-.3.36a2.49,2.49,0,0,0,.36.43A5,5,0,0,1,43.62,9"/><path class="b" d="M68.83,115A15.29,15.29,0,0,0,71,120.65a1.86,1.86,0,0,0,1.08.37h.1c.5,0,.66.63,1,.84.24,2.2-1.36,4.94-.12,6.44a1.82,1.82,0,0,0,1.28.46,1.67,1.67,0,0,1-1.15-.46c-1.24-1.5.36-4.24.12-6.44-.31-.21-.47-.84-1-.84H72.2a1.86,1.86,0,0,1-1.08-.38A15.17,15.17,0,0,1,69,115.13l-.16-.13M36.09,80.19h0c1.87,1,1.87,3.18,4.05,3.93A14.4,14.4,0,0,1,43,86.24c1,.92,2.17,2,3.27,3a41.59,41.59,0,0,0,6,4.84A36.54,36.54,0,0,1,58,97.88a9.1,9.1,0,0,1,2.66,4.42c.53,3.18,3,3.84,4,6.09,1.21,2,2.65,3.1,3.74,5.12a1.62,1.62,0,0,1,0-.19c-1.08-1.91-2.48-3-3.65-5-1.06-2.25-3.5-2.91-4-6.08a9.09,9.09,0,0,0-2.65-4.42,38.2,38.2,0,0,0-5.8-3.75,40.32,40.32,0,0,1-6-4.81c-1.1-1-2.23-2.1-3.27-3a14.81,14.81,0,0,0-2.86-2.11c-2.18-.73-2.19-2.88-4.06-3.92l-.12-.06"/><path class="c" d="M86.58,111.45a10.42,10.42,0,0,1-2.18.85l-.43.12a2.14,2.14,0,0,0,.59,1.54,25.6,25.6,0,0,1-1.69,5.47c-.83,1.82-1.93,3.31-3.06,3.31a1.64,1.64,0,0,1-1.21-.63l-1.47-.83a18.62,18.62,0,0,1-2.24-1.45s-.66-2-1.66-4.62c-.74.16-1.51.31-2.3.45a1.61,1.61,0,0,1-.37,0,2.79,2.79,0,0,1-1.57-.57,15.17,15.17,0,0,0,2.13,5.51,1.86,1.86,0,0,0,1.08.38h.09c.51,0,.67.63,1,.84.24,2.2-1.36,4.94-.12,6.44a1.67,1.67,0,0,0,1.15.46h.07a2.4,2.4,0,0,0,1.26-.33,32.46,32.46,0,0,0,10.31-9.71c1.85-2.8,1.25-5,.64-7.27m-47.74-34-.88.9a8.24,8.24,0,0,0-.23.92L37.24,79c-.69.71-1.1,1.1-1.15,1.15l.12.06c1.87,1,1.88,3.19,4.06,3.92a14.81,14.81,0,0,1,2.86,2.11c1,.92,2.17,2,3.27,3a40.32,40.32,0,0,0,6,4.81,38.2,38.2,0,0,1,5.8,3.75,9.09,9.09,0,0,1,2.65,4.42c.53,3.17,3,3.83,4,6.08,1.17,2,2.57,3,3.65,5a4.51,4.51,0,0,1,1-1.83c.49-.59,1-1.16,1.51-1.73-.75-1.78-1.51-3.52-2.11-5-.75-1.86-1.22-3.35-1-4a24.24,24.24,0,0,0-1.46-3.3A41.59,41.59,0,0,0,62,90.72a32.58,32.58,0,0,0-5.51-5.51c-.9-.37-1.81-.77-2.71-1.2a60,60,0,0,1-6.56-3.66,38.9,38.9,0,0,0-6.53-1.49,21.75,21.75,0,0,1-1.75-1.39l-.09-.07"/><path class="d" d="M84,112.42c-3.11.86-6.49,1.9-10.74,2.79,1,2.65,1.66,4.62,1.66,4.62a18.62,18.62,0,0,0,2.24,1.45l1.47.83a1.64,1.64,0,0,0,1.21.63c1.13,0,2.23-1.49,3.06-3.31A25.6,25.6,0,0,0,84.56,114a2.14,2.14,0,0,1-.59-1.54M53.11,71.25a42.31,42.31,0,0,0-6.56,1c-3.15.78-6.5,2.15-8,4.82l.33.31.09.07a21.75,21.75,0,0,0,1.75,1.39,38.9,38.9,0,0,1,6.53,1.49,30,30,0,0,1,7.14,3.35,25.13,25.13,0,0,1,2.13,1.51A32.58,32.58,0,0,1,62,90.72a41.59,41.59,0,0,1,4.5,6.79,24.24,24.24,0,0,1,1.46,3.3c-.26.6.21,2.09,1,4,.6,1.48,1.36,3.22,2.11,5a6,6,0,0,0,.69-1c-.12-.34.14-.92-.29-1.21a1.71,1.71,0,0,1-.68-1,9.83,9.83,0,0,1,3-6,16.28,16.28,0,0,0,1-2.85,9.52,9.52,0,0,1,1.11-2.74A8.81,8.81,0,0,0,77,92.32a3.35,3.35,0,0,1,1.92-2.18,5.45,5.45,0,0,0,1.73-1.62l-.47-.32-.36-.15c-1.62-.67-3.64-1.48-5.38-2.34a18.93,18.93,0,0,1-2.35-1.35,7.27,7.27,0,0,1-1.63-1.52c-.8-1.09-1-2.2,0-3.1a3.18,3.18,0,0,0,.2-1.11,4.79,4.79,0,0,0,0-.49,19.34,19.34,0,0,1-1.18-1.63L69,75.75c-1.47-1.09-4.21-2.2-9.32-3.4-2-.34-4.07-.68-6.19-1l-.41-.07"/><path class="e" d="M45.71,58.87c-2.86,0-5.91,1.79-8.39,3.9a30.19,30.19,0,0,0-5.16,5.82c-2,1.26-2.62,2.65-2.5,3.92A5.87,5.87,0,0,0,31.93,76a17.41,17.41,0,0,0,3.79,2.36c.63.29,1.16.5,1.52.64l.49.18A8.24,8.24,0,0,1,38,78.3a6.31,6.31,0,0,1,.55-1.21c1.54-2.67,4.89-4,8-4.82a42.31,42.31,0,0,1,6.56-1c.61,0,1-.06,1-.06,2.14.4,4,.79,5.63,1.16,5.11,1.2,7.85,2.31,9.32,3.4a6.56,6.56,0,0,1,.71.62,3.06,3.06,0,0,1,.9,1.77,4.79,4.79,0,0,1,0,.49,3.18,3.18,0,0,1-.2,1.11c-1,.9-.82,2,0,3.1a7.27,7.27,0,0,0,1.63,1.52,18.93,18.93,0,0,0,2.35,1.35c1.74.86,3.76,1.67,5.38,2.34l.36.15.54.22a3.6,3.6,0,0,0,.36-.91,3.86,3.86,0,0,1,0-.68c0-.26.06-.52.1-.76a12.94,12.94,0,0,0-.36-2.18,3.51,3.51,0,0,1-.53-1.37,5.6,5.6,0,0,1-.07-1.24c-.41-2.53-.75-6.45-2.09-8.53h0c-.58-.12-.63-.27-.63-.27-.84-1.29-3.11-2.4-6-3.76s-6.58-2.81-10.1-4.24-6.91-2.77-9.44-3.74-4.18-1.54-4.18-1.54a6.07,6.07,0,0,0-2-.33"/><path class="f" d="M42.77,9a.6.6,0,0,0-.24.06h0c-.09.49-.58,1.17-.73,1.81-.44,1.27,0,2.23-.78,3.44-.55,1.21-1.57,2.41-2.05,3.54a4.55,4.55,0,0,0-.24,1.83,12.93,12.93,0,0,0,.57,6c2,.26,1,1.82,1.15,2.75,0,.3-.38.66-.57,1.06,0,.86.93,1.62-.34,2.46a74,74,0,0,0-7.63,4.95,42.1,42.1,0,0,0-6.67,7.88c-1,1.79.44,3.41,0,5.25,0,0,0,0-.06,0a2.33,2.33,0,0,1-.56-.12c0,.21.06.42.1.63.24.11.68.58.93.69a2.49,2.49,0,0,1-1,1.37c-5.53,3.15-5.19,8.62-9.23,13-.6,1-1.53,2.31-1.06,3.6.48.94.4,2.19,1.17,3A50.58,50.58,0,0,0,22,75.76c-.1-.64-.19-1.26-.27-1.87-.15-1.15-.27-2.27-.4-3.4a4.17,4.17,0,0,1-.63-2.61,5.87,5.87,0,0,1,1-2.83c.35-1,2.84-2.13,5-2.77a4.21,4.21,0,0,1,.81-.07h1a4.12,4.12,0,0,0,.8-.06c3-.82,4.49-2.34,8.18-2.47h.12a5.58,5.58,0,0,0,3.54-1.8c.36-.64-2.27-3.41-5-6s-5.52-5.07-5.58-5.47c-.21-.34-1.51-.4-1.71-.73.24-1.36,2.26-2.45,4-3.66,2.1-1.59,2.07-5.06,2.35-5.19,1.51,0,3.23-.2,4.79-.2a8.71,8.71,0,0,1,3,.41.65.65,0,0,0,.22,0c.35,0,.94-.12,1.36-.15a3.73,3.73,0,0,0,1.69-.79q.11.12.18.12c.31,0,.46-1.23.42-2.44s-.28-2.32-.67-2.32c-.09,0-.2.07-.31.23.57-.91,0-1.61-.83-2.28s-1.83-1.29-2.06-2.17C42.56,26,44.36,24,43,23.09c-.79-.86-2.16-1.43-1-2.65a5.4,5.4,0,0,0,1.29-2.14c-.2-1.44-1.48-2.38-.77-4,.42-.8,1.4-1.89,1.81-2.81.29-.65.3-1.21-.37-1.52a.77.77,0,0,1-.3-.19,2.49,2.49,0,0,1-.36-.43C43.16,9.15,43,9,42.77,9"/><path class="g" d="M42,8.49a.38.38,0,0,0-.22.1,5.38,5.38,0,0,0-1.27,1.56c-1.07,2.15-2.58,4.16-3.6,5.91-2.2,4.06-4,7.12-4,9.74,0,.5,1,.6,1.51.92.69.33.73,1,.93,1.57A2.12,2.12,0,0,0,37,29.8c.34.08.32.36.13.6-1.62,1.32-3.22,2.57-4.75,3.73s-3.09,2.3-4.65,3.47c-2.1,1.43-5.56,6.23-6.11,7.28-1.06,3.24,1.71,4.67,3,5a2.33,2.33,0,0,0,.56.12s.06,0,.06,0c.49-1.84-1-3.46,0-5.25a42.1,42.1,0,0,1,6.67-7.88A74,74,0,0,1,39.54,32c1.27-.84.31-1.6.34-2.46.19-.4.55-.76.57-1.06-.12-.93.89-2.49-1.15-2.75a12.93,12.93,0,0,1-.57-6A4.55,4.55,0,0,1,39,17.83c.48-1.13,1.5-2.33,2.05-3.54.73-1.21.34-2.17.78-3.44.15-.64.64-1.32.73-1.81h0c-.26-.12-.35-.55-.58-.55"/><path class="a" d="M111.09,37.1c-.88.2-2.31.18-3.13.36-1.5.44-1.06,1.59-1.66,2.45a6,6,0,0,1-2.21.54c-1.6.11-.79,1.12-.5,2,.71,1.18-1.72,1.5-1.83,2.49-.31,1.25,2.52,3.29.79,3.91a.64.64,0,0,1,.22,0c.51,0,.36.76,0,1.51s-.94,1.51-1.26,1.51a.21.21,0,0,1-.19-.16.45.45,0,0,1-.22,0,7.85,7.85,0,0,1-1.61-.24A10.6,10.6,0,0,1,98,50.88c-1.54-1.27-4.6-2.25-7-3.31h0c-.32,0-1.51,2.15-3.91,2.24H85.22c-1.32,0-2.47.07-2.91.53.08.27,1.25.83,1.33,1.11s1.76,2.75,3.41,5.34S90.14,62,89.6,62.19a4.11,4.11,0,0,1-.53,0,7.52,7.52,0,0,1-3.31-.77c-3.32-1.6-5.14-1.57-8-2.59-.76-.3-1.59-.87-2.36-1.16s-1.68-.55-2.48-.77a6,6,0,0,0,.8,4.87,4.78,4.78,0,0,0,.94,1.2A1.72,1.72,0,0,1,76,62.6a10.06,10.06,0,0,1,2.12.29s1.44-.11,3.52-.11c.89,0,1.89,0,3,.07,3.57.22,7.82.84,10.39,3,0,0,1.26,1.08,3.1,2.85a85.52,85.52,0,0,1,6.57,7c4.63,5.51,8.69,12.32,7.71,15.76,0,0-.09.16.18.72a13.21,13.21,0,0,0,2.38,3,5.49,5.49,0,0,1,.37,2.43c-.09.85-.63,1.63-2.17,1.63a6.89,6.89,0,0,1-1.49-.19s-.52,0-1.29.08-1.82.2-2.8.37a10.72,10.72,0,0,0-2.69.78c-.68.34-1.08.76-.94,1.28a12.59,12.59,0,0,0-1.3-.07c-.26,0-.53,0-.79,0-.58,0-1.1.2-1.22.49.16.44.27.7.27.7-.28-.3-.35-.53-.27-.7l-.32-.89c0,2-.15,3.63-1.48,3.63l-.34,0a13.45,13.45,0,0,1-1.78,1.31,10.16,10.16,0,0,1-3.36,1.44c.42,0,.86,0,1.32,0h.13a54.66,54.66,0,0,1,9.31,1c2.51.48,5.72,1.22,8.26,1.77,1.28.27,2.38.49,3.17.59a5,5,0,0,0,.7.06c.35,0,.54-.07.55-.24-.26-.94-2.15-2.79-1.78-3.87a1.06,1.06,0,0,0-.16.56l0,.24a3.3,3.3,0,0,0,.64,1.3,2.89,2.89,0,0,0,.54.57,2.89,2.89,0,0,1-.54-.57,3.3,3.3,0,0,1-.64-1.3l0-.24h0a1.06,1.06,0,0,1,.16-.56,1.12,1.12,0,0,1,.84-.67,3.46,3.46,0,0,1,.66-.19l.24,0h0a8,8,0,0,1,1.39-.11h.29l1-.13a7,7,0,0,0,2.54-.79l.21,0c.15-.09.24-.19.24-.29v0h0c.44,0,.87-.1,1.32-.17a9.2,9.2,0,0,1,.9-2,5.06,5.06,0,0,0,.06-.69h0a3.66,3.66,0,0,0-.6-2,8.88,8.88,0,0,0-1-1.15l-.12-.11v0l-.08-.07a3.44,3.44,0,0,1,0-1.33c0-.56.12-1.1.41-1.23,0-.07,0-.14.08-.2.26-.78.31-1.62-.77-3.21l-1.74-2.51-.53-.61.53.61c-.9-1.3-1.77-2.6-2.51-3.84-1.19-2.07-2-4-1.94-5.52a5.08,5.08,0,0,1,1.9-4.32c.3-.33,3.43-.38,5.58-.38h1.54c2.94,0,1.92-2.33.45-4.15a28.29,28.29,0,0,1-5.93-8.45c0-.8,1.44-1,1.73-1.8,0-2.1-2.62-4.5-3.6-6.58-.32-3.42-1.18-5.06-1.88-5.89s-1.22-.82-1-.89c.12-.61,2.84-.08,3.56-.7.63-.93-.55-2.33-2-3.41-2.87-2.39-5.78-4.9-5.61-6.76m.58-1.48a1.53,1.53,0,0,0,0,.37,3,3,0,0,1,.48-.36h-.46"/><path class="h" d="M80.1,69.38a5,5,0,0,0-1,.12l1.12.17a2.59,2.59,0,0,1-.14-.29M70.44,56.46a1,1,0,0,0-.33,0c-1.6.12-2.4.78-2,1.74l-.76,1.26a22.58,22.58,0,0,0,2,2.48c1.25,1.52,2.34,2.22,1.81,2.35-.12.11,3.88,2.58,5.6,4.74.08,0,.58.12,1.45.27-.22-.24-.56-.61-.94-1a21.8,21.8,0,0,1-2.13-2.83c-.61-1-1-2-.52-2.46a4.78,4.78,0,0,1-.94-1.2,6,6,0,0,1-.8-4.87,11.1,11.1,0,0,0-2.45-.47"/><path class="a" d="M94.63,75.08l.29.26c1.52,1.35,3,2.75,4.37,4.1C98.23,78.27,97,77,95.43,75.59l-.8-.51"/><path class="h" d="M85.41,75.57c1.3,2.51,2.57,5.06,3.86,7.59a16.67,16.67,0,0,0-3.86-7.59"/><path class="a" d="M91.56,107.58a23.13,23.13,0,0,0-2.36.11c0,.34-.09.68-.13,1a18.5,18.5,0,0,1-1.52,1.89,5.07,5.07,0,0,1-.88.68l0,.1a4.82,4.82,0,0,0,1-.73,18.41,18.41,0,0,0,1.52-1.88,5.29,5.29,0,0,1,3.3-1.18h-.92m26.53-1.78h0a8.11,8.11,0,0,0-1.4.11h0l-.24,0a3.46,3.46,0,0,0-.66.19l.36-.09c.74-.07,1.51-.16,2.22-.25h-.28m5.55-1.45c-.45.08-.88.12-1.32.17h0v0h0c0,.1-.09.2-.24.29a4.61,4.61,0,0,0,1.55-.46v0m.36-4.73a3.66,3.66,0,0,1,.6,2h0a5.06,5.06,0,0,1-.06.69,3.38,3.38,0,0,0,.11-.34,2.66,2.66,0,0,0-.65-2.35m-1.14-1.28v0l.12.11-.12-.13m.34-2.63c-.29.13-.39.67-.41,1.23a7.39,7.39,0,0,1,.41-1.23m-19-8.23c-.07.22-.15.49-.23.78a17.13,17.13,0,0,0-.44,1.85,2.67,2.67,0,0,0,.72-1.72,4.19,4.19,0,0,0,0-.91"/><path class="h" d="M86.67,111.28l-.12.07,0,.1.12-.07,0-.1"/><path class="i" d="M73.2,115.14c-.77.16-1.56.32-2.39.47a2.31,2.31,0,0,1-.37,0,2.47,2.47,0,0,1-1-.22,2.49,2.49,0,0,0,1.1.28,1.61,1.61,0,0,0,.37,0c.79-.14,1.56-.29,2.3-.45l0-.07m13.35-3.79a9.68,9.68,0,0,1-2.27.9l-.31.09v.08l.43-.12a10.42,10.42,0,0,0,2.18-.85l0-.1"/><path class="j" d="M84,112.34c-3.13.86-6.51,1.9-10.77,2.8l0,.07c4.25-.89,7.63-1.93,10.74-2.79v-.08"/><path class="b" d="M68.44,113.51a2.43,2.43,0,0,0,0,.93,1.23,1.23,0,0,0,.36.56l0-.08a.86.86,0,0,1-.22-.42,2.16,2.16,0,0,1,0-.8,1.74,1.74,0,0,0-.1-.19"/><path class="k" d="M80.73,88.42a.61.61,0,0,1-.07.1l.1.07.08-.13-.11,0m.51-2.62c0,.09,0,.18,0,.27a5.07,5.07,0,0,1-.1,1.44l0,.28a5.08,5.08,0,0,0,.12-2m-1-4.82c0,.1,0,.2,0,.3a13.73,13.73,0,0,0,.29,1.43c.12.42.22.81.31,1.18l.09.11c-.09-.37-.2-.77-.32-1.19A17.73,17.73,0,0,1,80.25,81M76.76,69.07c1,1.42,0,2,1.29,3.55l.09.13h0l0,0c-1.3-1.54-.25-2.12-1.29-3.55l-.07-.09h0"/><path class="l" d="M68.81,114.92l0,.08.16.13v0c-.06-.06-.12-.11-.17-.17m-.33-1.6a1.62,1.62,0,0,0,0,.19,1.74,1.74,0,0,1,.1.19l0-.21-.09-.17"/><path class="m" d="M69,115.09v0a2.47,2.47,0,0,0,.47.29,2.89,2.89,0,0,1-.48-.33m2-5.33c-.46.57-1,1.14-1.51,1.73a4.51,4.51,0,0,0-1,1.83l.09.17a4.4,4.4,0,0,1,1.05-1.93c.47-.57,1-1.11,1.46-1.66l-.06-.14"/><path class="n" d="M80.66,88.52a5.45,5.45,0,0,1-1.73,1.62A3.35,3.35,0,0,0,77,92.32a8.81,8.81,0,0,1-1.15,2.62,9.52,9.52,0,0,0-1.11,2.74,16.28,16.28,0,0,1-1,2.85,9.83,9.83,0,0,0-3,6,1.71,1.71,0,0,0,.68,1c.43.29.17.87.29,1.21a6,6,0,0,1-.69,1l.06.14a6.36,6.36,0,0,0,.74-1.06c-.13-.33.13-.91-.29-1.2a1.64,1.64,0,0,1-.68-1,9,9,0,0,1,1-3.28,10.6,10.6,0,0,1,2-2.76,17.47,17.47,0,0,0,1-2.85A9.65,9.65,0,0,1,76,95a8.81,8.81,0,0,0,1.15-2.62A3.32,3.32,0,0,1,79,90.24a5.49,5.49,0,0,0,1.75-1.65l-.1-.07"/><path class="o" d="M81.09,87.51a3.6,3.6,0,0,1-.36.91l.11,0a3.06,3.06,0,0,0,.28-.67l0-.28m-.26-3.62a12.94,12.94,0,0,1,.36,2.18c0-.09,0-.18,0-.27a13.26,13.26,0,0,0-.32-1.8l-.09-.11M78.14,72.75c1.34,2.08,1.68,6,2.09,8.53,0-.1,0-.2,0-.3-.39-2.57-.77-6.28-2.09-8.23h0"/><path class="c" d="M68.54,113.7a2.16,2.16,0,0,0,0,.8.86.86,0,0,0,.22.42c-.06-.33-.11-.67-.17-1,0-.07-.07-.13-.1-.2m20.66-6-.25,0a8.84,8.84,0,0,0-2.51.58l-.15.07a5.41,5.41,0,0,0,.12,1.86c.08.36.17.71.26,1a5.07,5.07,0,0,0,.88-.68,18.5,18.5,0,0,0,1.52-1.89c0-.34.08-.68.13-1"/><path class="p" d="M86.29,108.37c-.4.22-.68.48-.73.78.24.36.48.72.71,1.08s.18.75.28,1.12l.12-.07c-.09-.34-.18-.69-.26-1a5.41,5.41,0,0,1-.12-1.86M84,74a6.29,6.29,0,0,1-1.68,2s-.3.38-.7,1a8.83,8.83,0,0,0-1.12,2.44,7.5,7.5,0,0,0-.28,1.5,17.73,17.73,0,0,0,.35,1.83c.12.42.23.82.32,1.19a1.59,1.59,0,0,0,.69.52,10,10,0,0,0-.37,1.28,5.08,5.08,0,0,1-.12,2,1.83,1.83,0,0,0,.42,1l1.1.46a1.41,1.41,0,0,1-1.1-.46l-.7-.29-.08.13a20.91,20.91,0,0,1,3,2.57,6.57,6.57,0,0,1,1.66,2.5l.29-.29a14.14,14.14,0,0,0,3.07-4.72,10.43,10.43,0,0,0,.46-5.49c-1.29-2.53-2.56-5.08-3.86-7.59-.42-.51-.88-1-1.38-1.55m-7.26-5,.07.09c1,1.43,0,2,1.29,3.55l0,0a4.72,4.72,0,0,0,1.06.09,15.22,15.22,0,0,0,2.62-.26s.31,0,.69.15l.28.08c-.55-.52-1.14-1-1.77-1.58,0,0-.35-.64-.76-1.48l0-.08-1.12-.17a2.88,2.88,0,0,0-.59.18l-.31-.34c-.87-.15-1.37-.25-1.45-.27"/><path class="m" d="M68.57,113.49l0,.21c0,.07.07.13.1.2.06.35.11.69.17,1,0,.06.11.11.17.17-.08-.39-.14-.79-.21-1.21-.06-.13-.13-.26-.2-.39"/><path class="q" d="M71.08,109.9c-.46.55-1,1.09-1.46,1.66a4.4,4.4,0,0,0-1.05,1.93c.07.13.14.26.2.39.07.42.13.82.21,1.21a2.89,2.89,0,0,0,.48.33,2.47,2.47,0,0,0,1,.22,2.31,2.31,0,0,0,.37,0c.83-.15,1.62-.31,2.39-.47-.48-1.24-1-2.63-1.61-4l-.51-1.21m14.48-.75a.75.75,0,0,0,0,.33l-1,.52a6.69,6.69,0,0,0-.56,2.34l.31-.09a9.68,9.68,0,0,0,2.27-.9c-.1-.37-.19-.74-.28-1.12s-.47-.72-.71-1.08"/><path class="r" d="M80.76,88.59A5.49,5.49,0,0,1,79,90.24a3.32,3.32,0,0,0-1.91,2.17A8.81,8.81,0,0,1,76,95a9.65,9.65,0,0,0-1.1,2.74,17.47,17.47,0,0,1-1,2.85,10.6,10.6,0,0,0-2,2.76,9,9,0,0,0-1,3.28,1.64,1.64,0,0,0,.68,1c.42.29.16.87.29,1.2a6.36,6.36,0,0,1-.74,1.06l.51,1.21c.59,1.4,1.13,2.79,1.61,4,4.26-.9,7.64-1.94,10.77-2.8a6.69,6.69,0,0,1,.56-2.34,2.1,2.1,0,0,0-.3.15c-.81.39-1.86.94-3,1.44a10.15,10.15,0,0,1-3.55,1.09,1.39,1.39,0,0,1-1.49-1.06s-.4-.54-.84-1.24a7.92,7.92,0,0,1-1-2.14s.32-.95.89-2.31c.31-.68.68-1.46,1.09-2.29s.93-1.65,1.43-2.49c2-3.25,4.68-6,6-6h.08a16.82,16.82,0,0,0,1.66-1.46,6.57,6.57,0,0,0-1.66-2.5,20.91,20.91,0,0,0-3-2.57"/><path class="s" d="M81.54,88.75a1.41,1.41,0,0,0,1.1.46l-1.1-.46m-.42-1a3.06,3.06,0,0,1-.28.67l.7.29a1.83,1.83,0,0,1-.42-1M80.92,84a13.26,13.26,0,0,1,.32,1.8,10,10,0,0,1,.37-1.28,1.59,1.59,0,0,1-.69-.52m.92-11.42a15.22,15.22,0,0,1-2.62.26,4.72,4.72,0,0,1-1.06-.09c1.32,2,1.7,5.66,2.09,8.23a7.5,7.5,0,0,1,.28-1.5A8.83,8.83,0,0,1,81.65,77c.4-.62.7-1,.7-1A6.29,6.29,0,0,0,84,74c-.39-.4-.79-.8-1.22-1.21l-.28-.08c-.38-.1-.69-.15-.69-.15"/><path class="d" d="M90.35,75.17a2.57,2.57,0,0,0,.8,1.69,3.63,3.63,0,0,1-.8-1.69m.39-2.29a12.93,12.93,0,0,0-.39,1.88,2.8,2.8,0,0,0,0,.41,3.59,3.59,0,0,0,.8,1.69c1.62,1.62,5.39,2.16,8.24,4.75,2.93,3-2.68,9-5.92,13.14a74.84,74.84,0,0,0-5.39,8.45c-.26.5-.49,1-.7,1.47a4,4,0,0,1-.22.67l-.15.22a11.3,11.3,0,0,0-.72,2.81l.15-.07a8.84,8.84,0,0,1,2.51-.58l.25,0a23.13,23.13,0,0,1,2.36-.11h1.16a5.54,5.54,0,0,0,.57-.07,10.16,10.16,0,0,0,3.36-1.44,13.45,13.45,0,0,0,1.78-1.31l.34,0c1.33,0,1.52-1.58,1.48-3.63,0-.08,0-.17-.08-.25a22,22,0,0,1-.85-4.25c-.28-2.89.21-5.87,2.28-5.87a2.32,2.32,0,0,1,.56.07,2.81,2.81,0,0,0,1.34-.77,17.13,17.13,0,0,1,.44-1.85c.08-.29.16-.56.23-.78-.25-1.72-1.49-4.3-4.88-8-1.35-1.35-2.85-2.75-4.37-4.1l-.29-.26c-.82-.5-2.22-1.33-3.89-2.2"/><path class="t" d="M87,105.56a30.18,30.18,0,0,0-1.83,3l.38.56c0-.3.33-.56.73-.78a11.3,11.3,0,0,1,.72-2.81m3.68-32.71a4.41,4.41,0,0,0-.39,1.74,3.68,3.68,0,0,0,0,.58,2.8,2.8,0,0,1,0-.41,12.93,12.93,0,0,1,.39-1.88l0,0M80.33,69.37H80.1a2.59,2.59,0,0,0,.14.29l0,.08c.41.84.76,1.48.76,1.48.63.53,1.22,1.06,1.77,1.58a2.65,2.65,0,0,1,.88.34A.68.68,0,0,1,84,74c.5.53,1,1,1.38,1.55a16.67,16.67,0,0,1,3.86,7.59,10.43,10.43,0,0,1-.46,5.49,14.14,14.14,0,0,1-3.07,4.72l-.29.29a1.38,1.38,0,0,1-.1,1.14,27.89,27.89,0,0,1,1.49,4.08,13.21,13.21,0,0,1,.54,5.79c.21-.48.44-1,.7-1.47a74.84,74.84,0,0,1,5.39-8.45c3.24-4.19,8.85-10.09,5.92-13.14-2.85-2.59-6.62-3.13-8.24-4.75A5.74,5.74,0,0,0,92.45,78,11.67,11.67,0,0,0,95,79.25a10.3,10.3,0,0,0,1.26.38A10.3,10.3,0,0,1,95,79.25,11.67,11.67,0,0,1,92.45,78a5.74,5.74,0,0,1-1.3-1.15,2.57,2.57,0,0,1-.8-1.69,3.68,3.68,0,0,1,0-.58h0a4.41,4.41,0,0,1,.39-1.74c-.61-.32-1.25-.64-1.91-.95-2.85-1.33-6-2.53-8.45-2.53"/><path class="u" d="M85.18,108.59c0,.09-.09.18-.13.26-.19.38-.36.76-.52,1.15l1-.52a.75.75,0,0,1,0-.33l-.38-.56"/><path class="v" d="M85.45,93.66a16.82,16.82,0,0,1-1.66,1.46h-.08c-1.28,0-3.91,2.78-6,6-.5.84-1,1.68-1.43,2.49s-.78,1.61-1.09,2.29c-.57,1.36-.89,2.31-.89,2.31a7.92,7.92,0,0,0,1,2.14c.44.7.84,1.24.84,1.24a1.39,1.39,0,0,0,1.49,1.06,10.15,10.15,0,0,0,3.55-1.09c1.1-.5,2.15-1,3-1.44a2.1,2.1,0,0,1,.3-.15c.16-.39.33-.77.52-1.15,0-.08.09-.17.13-.26a30.18,30.18,0,0,1,1.83-3l.15-.22a4,4,0,0,0,.22-.67,13.21,13.21,0,0,0-.54-5.79,27.89,27.89,0,0,0-1.49-4.08,1.38,1.38,0,0,0,.1-1.14"/><path class="w" d="M82.81,72.81c.43.41.83.81,1.22,1.21a.68.68,0,0,0-.34-.87,2.65,2.65,0,0,0-.88-.34"/><path class="x" d="M90.3,74.59h0a3.68,3.68,0,0,0,0,.58,3.63,3.63,0,0,0,.8,1.69A5.74,5.74,0,0,0,92.45,78,11.67,11.67,0,0,0,95,79.25a10.3,10.3,0,0,0,1.26.38A10.3,10.3,0,0,1,95,79.25,11.67,11.67,0,0,1,92.45,78a5.74,5.74,0,0,1-1.3-1.15,3.59,3.59,0,0,1-.8-1.69,3.68,3.68,0,0,1,0-.58m.39-1.74a4.41,4.41,0,0,0-.39,1.74h0a4.41,4.41,0,0,1,.39-1.74h0"/><path class="e" d="M92.44,69.64a1,1,0,0,0-.15.13,7.61,7.61,0,0,0-1.41,2.67c.05-.11.12-.23.18-.34s.07-.23.19-.53a6.17,6.17,0,0,1,.48-1h0l.3-.45h0l.28-.32h0a.79.79,0,0,0,.13-.14m-3.81-1.07a1.84,1.84,0,0,0,.77.37l.1,0a5.76,5.76,0,0,1-.83-.32l0,0m2.47,0a12.17,12.17,0,0,0-1.39.31l1.39-.31m1.86,0c.16.15.08.35.34.35h0l0,0h0V68.7h0c0-.08-.13-.09-.33-.18H93M82.75,66.38c1,.18,1.92.32,2.86.43,1.81.22,2.25.61,2.53,1l.06.12a.36.36,0,0,1,.11-.1h0l-.08-.17h0a2,2,0,0,0-.65-.38h0a20.41,20.41,0,0,0-4.83-.88M76,62.6a1.72,1.72,0,0,0-1.33.4c1.74,1.67,4.88,2.75,8.12,3.38a20.41,20.41,0,0,1,4.83.88h0a2,2,0,0,1,.65.38h0l.08.17h0a.36.36,0,0,0-.11.1,1.76,1.76,0,0,0,.43.64l0,0a5.76,5.76,0,0,0,.83.32l.21,0a12.17,12.17,0,0,1,1.39-.31c.33-.06.6-.11.82-.13a2.82,2.82,0,0,1,.39,0h.3a.67.67,0,0,1,.27,0l.08.06H93c.2.09.31.1.33.18h0v.14h0l0,0h0l-.88.77a.81.81,0,0,1-.13.15h0L92,70.1h0l-.3.45h0a6.17,6.17,0,0,0-.48,1c-.12.3-.19.53-.19.53s-.13.23-.18.34-.1.29-.14.44c1.67.87,3.07,1.7,3.89,2.2l.8.51c1.52,1.4,2.8,2.68,3.86,3.85,3.39,3.74,4.63,6.32,4.88,8a4.19,4.19,0,0,1,0,.91,2.67,2.67,0,0,1-.72,1.72,2.81,2.81,0,0,1-1.34.77,2.32,2.32,0,0,0-.56-.07c-2.07,0-2.56,3-2.28,5.87a22,22,0,0,0,.85,4.25c0,.08,0,.17.08.25l.32.89c.12-.29.64-.44,1.22-.49.26,0,.53,0,.79,0a12.59,12.59,0,0,1,1.3.07c-.14-.52.26-.94.94-1.28a10.72,10.72,0,0,1,2.69-.78c1-.17,2-.31,2.8-.37s1.29-.08,1.29-.08a6.89,6.89,0,0,0,1.49.19c1.54,0,2.08-.78,2.17-1.63a5.49,5.49,0,0,0-.37-2.43,13.21,13.21,0,0,1-2.38-3c-.27-.56-.18-.72-.18-.72,1-3.44-3.08-10.25-7.71-15.76a85.52,85.52,0,0,0-6.57-7C96.21,67,95,65.89,95,65.89c-2.57-2.2-6.82-2.82-10.39-3-1.07-.05-2.07-.07-3-.07-2.08,0-3.52.11-3.52.11A10.06,10.06,0,0,0,76,62.6"/><path class="y" d="M90.88,72.44c-.07.14-.14.28-.19.41l0,0c0-.15.09-.3.14-.44m-1.17-3.58-.21,0h0l.19-.06m3.61,0h0c-.28.21-.57.44-.86.68h0s0,0-.06.09l.88-.77m-1-.46a2.82,2.82,0,0,0-.39,0c-.22,0-.49.07-.82.13a7.63,7.63,0,0,1,1.13-.1,4,4,0,0,1,.73.06l-.08-.06a.67.67,0,0,0-.27,0h-.3m-4.11-.47a.22.22,0,0,0,0,.13c0,.18.21.39.47.51a1.76,1.76,0,0,1-.43-.64M74.63,63c-.44.5-.09,1.42.52,2.46a21.8,21.8,0,0,0,2.13,2.83c.38.44.72.81.94,1l.31.34a2.88,2.88,0,0,1,.59-.18,5,5,0,0,1,1-.12h.23c2.4,0,5.6,1.2,8.45,2.53.66.31,1.3.63,1.91.95,0-.13.12-.27.19-.41a7.61,7.61,0,0,1,1.41-2.67,1,1,0,0,1,.15-.13s.06-.08.06-.1h0c.29-.24.58-.47.86-.68h0c-.26,0-.18-.2-.34-.35a4,4,0,0,0-.73-.06,7.63,7.63,0,0,0-1.13.1l-1.39.31-.19.06h0l-.1,0a1.84,1.84,0,0,1-.77-.37c-.26-.12-.47-.33-.47-.51h0a.22.22,0,0,1,0-.13l-.06-.12c-.28-.39-.72-.78-2.53-1-.94-.11-1.9-.25-2.86-.43L82,66.29l.79.09c-3.24-.63-6.38-1.71-8.12-3.38"/><path class="z" d="M91.73,70.55h0a6.17,6.17,0,0,0-.48,1c-.12.3-.19.53-.19.53s-.13.23-.18.34-.14.28-.19.41h0c0-.13.12-.27.19-.41s.12-.23.18-.34.07-.23.19-.53a6.17,6.17,0,0,1,.48-1h0m.3-.45-.3.45.3-.45m.28-.32L92,70.1l.28-.32m.19-.24s0,0-.06.1a.79.79,0,0,1-.13.14h0a.81.81,0,0,0,.13-.15s.06-.07.06-.09h0m0,0h0m.86-.69,0,0c-.28.21-.57.44-.86.68h0c.29-.24.58-.47.86-.68l0,0m0-.14v.14h0V68.7h0M93,68.52c.2.09.31.1.33.18,0-.08-.13-.09-.33-.18m-4.86-.46h0c0,.18.21.39.47.51l0,0a5.76,5.76,0,0,0,.83.32h0l.19-.06a12.17,12.17,0,0,1,1.39-.31,7.63,7.63,0,0,1,1.13-.1,4,4,0,0,1,.73.06h0a4,4,0,0,0-.73-.06,7.63,7.63,0,0,0-1.13.1,12.17,12.17,0,0,0-1.39.31l-.19.06h0a5.76,5.76,0,0,1-.83-.32l0,0c-.26-.12-.47-.33-.47-.51m.15-.23a.36.36,0,0,0-.11.1.22.22,0,0,0,0,.13h0a.22.22,0,0,1,0-.13.36.36,0,0,1,.11-.1h0m-.08-.19h0l.08.17h0l-.08-.17h0m-.65-.38a2,2,0,0,1,.65.38,2,2,0,0,0-.65-.38m-5.62-1,.79.09a20.41,20.41,0,0,1,4.83.88h0a20.41,20.41,0,0,0-4.83-.88L82,66.29"/><path class="e" d="M100.57,102.07c-.08.17,0,.4.27.7,0,0-.11-.26-.27-.7"/><path class="f" d="M111.3,35.06c-.4.16-1.2.18-1.73.38-1.2.32-1.44,1-2.78,1.21s-2.67.39-3.73.76a3,3,0,0,0-1.25.92,6.77,6.77,0,0,0-2.63,3.94c1.67,1.1,0,1.59-.22,2.22-.14.18-.61.25-.95.41-.41.52.16,1.39-1.26,1.39h0c-2-.09-3.84-.16-5.56-.16-1.12,0-2.19,0-3.19.1a46.67,46.67,0,0,0-8.73,2.1c-.1,0-.18.09-.26.13,1.36,1.18,2,2.59,0,3.76-1.46.87-5.88,3.61-6,4.3,0,.14-.08.27-.11.41.8.22,1.67.49,2.48.77s1.6.86,2.36,1.16c2.89,1,4.71,1,8,2.59a7.52,7.52,0,0,0,3.31.77,4.11,4.11,0,0,0,.53,0c.54-.18-.92-2.84-2.55-5.41s-3.47-5.09-3.41-5.34-1.25-.84-1.33-1.11c.44-.46,1.59-.53,2.91-.53h1.92c2.4-.09,3.59-2.24,3.91-2.24h0c2.37,1.06,5.43,2,7,3.31a10.6,10.6,0,0,0,1.47.57,7.85,7.85,0,0,0,1.61.24.45.45,0,0,0,.22,0,.21.21,0,0,0,.19.16c.32,0,.89-.75,1.26-1.51s.51-1.51,0-1.51a.64.64,0,0,0-.22,0c1.73-.62-1.1-2.66-.79-3.91.11-1,2.54-1.31,1.83-2.49-.29-.87-1.1-1.88.5-2a6,6,0,0,0,2.21-.54c.6-.86.16-2,1.66-2.45.82-.18,2.25-.16,3.13-.36.62-.14,1-.39.66-.87a.5.5,0,0,1-.1-.24,1.53,1.53,0,0,1,0-.37c0-.22,0-.41-.37-.56h0"/><path class="aa" d="M79,48.46c-1.13.68-.44,2-1.37,2.74h0a2.27,2.27,0,0,1-.53-.3c0,.12-.07.24-.1.36.19.16.46.59.64.75-.21.21-.6.27-1.29.27h0a16.58,16.58,0,0,0-2-.13A14.49,14.49,0,0,0,69.6,53a13.47,13.47,0,0,1-4.41.83l-.85,0c-.8,0-2,.1-2,.69s-.29.88.13,1.46c1.14,1.26,3,2.86,4.42,4.24l.41-.67.76-1.26c-.39-1,.41-1.62,2-1.74a1,1,0,0,1,.33,0,11.1,11.1,0,0,1,2.45.47c0-.14.07-.27.11-.41.11-.69,4.53-3.43,6-4.3,2-1.17,1.34-2.58,0-3.76"/><path class="ab" d="M114.79,107.37h0l0,.24a3.3,3.3,0,0,0,.64,1.3,2.89,2.89,0,0,0,.54.57,2.89,2.89,0,0,1-.54-.57,3.3,3.3,0,0,1-.64-1.3l0-.24m1.66-1.42a3.46,3.46,0,0,0-.66.19l-.31.15a1.47,1.47,0,0,0-.53.52,1.06,1.06,0,0,0-.16.56h0a1.06,1.06,0,0,1,.16-.56,1.47,1.47,0,0,1,.53-.52l.31-.15a3.46,3.46,0,0,1,.66-.19m.24,0-.24,0,.24,0m1.39-.11a8,8,0,0,0-1.39.11h0a8.11,8.11,0,0,1,1.4-.11h0m0,0h.25l.39,0h0l-.39,0h-.25m2.46-.36c-.87.22-1.75.36-1.81.38s.94-.16,1.81-.38m1.75-.88c0,.1-.09.2-.24.29a6.08,6.08,0,0,1-1.51.59h0a6.08,6.08,0,0,0,1.51-.59c.15-.09.24-.19.24-.29h0m0,0h0v0h0v0m1.38-.18h-.06c-.45.07-.88.12-1.32.17.44,0,.87-.09,1.32-.17h.06m.81-1.89h0a4.58,4.58,0,0,1-.81,1.89h0a4.58,4.58,0,0,0,.81-1.89h0m.09-.83a5.06,5.06,0,0,1-.06.69l0,.14,0-.14a5.06,5.06,0,0,0,.06-.69m-1.82-4.44h0a8.13,8.13,0,0,0,.08,1.16v0l.12.11a4.82,4.82,0,0,1,1,1.15,3.66,3.66,0,0,1,.6,2h0a3.66,3.66,0,0,0-.6-2,4.82,4.82,0,0,0-1-1.15l-.12-.11v0a8.13,8.13,0,0,1-.08-1.16m.77-2.22a1.08,1.08,0,0,1-.19.72h0a.35.35,0,0,0-.14,0c-.29.13-.39.67-.41,1.23a1.93,1.93,0,0,0,0,.24h0a1.93,1.93,0,0,1,0-.24c0-.56.12-1.1.41-1.23a.35.35,0,0,1,.14,0h0a1.08,1.08,0,0,0,.19-.72h0m-.07-.61a3,3,0,0,1,.07.61,3,3,0,0,0-.07-.61m0,0v0m-.87-2a7,7,0,0,1,.87,2,7,7,0,0,0-.87-2m-2.36-3.17.53.61a19.5,19.5,0,0,1,1.83,2.56h0a19.5,19.5,0,0,0-1.83-2.56l-.53-.61"/><path class="g" d="M110.16,34.34c-.38,0-.76,0-1.11,0-2.21.34-4.68.47-6.54.86-4.25,1-7.54,2.12-8.91,3.93-.26.35.55.93.82,1.39.81,1.13-.93,1.75.87,3.23.26.2.13.38-.14.45-4,.27-7.62.48-11.28.68a34.6,34.6,0,0,0-7.63,1.83c.39.21.8.41,1.22.62A11.12,11.12,0,0,1,79,48.46c.08,0,.16-.09.26-.13A46.67,46.67,0,0,1,88,46.23c1-.07,2.07-.1,3.19-.1,1.72,0,3.58.07,5.56.16h0c1.42,0,.85-.87,1.26-1.39.34-.16.81-.23.95-.41.27-.63,1.89-1.12.22-2.22a6.77,6.77,0,0,1,2.63-3.94,3,3,0,0,1,1.25-.92c1.06-.37,2.53-.47,3.73-.76s1.58-.89,2.78-1.21c.53-.2,1.33-.22,1.73-.38h0c-.14-.24.25-.55-.29-.63a3.56,3.56,0,0,0-.85-.09"/><path class="ac" d="M76.24,46.76l-.39.15c-1.27.91-.85,2-.1,2.84a7.27,7.27,0,0,0,1.31,1.15,2.27,2.27,0,0,0,.53.3h0c.93-.72.24-2.06,1.37-2.74a11.12,11.12,0,0,0-1.51-1.08c-.42-.21-.83-.41-1.22-.62"/><path d="M107.12,62.49c1.94.32,3.64,1,4,3a6,6,0,0,1-2.45,6.3c-2.11,1.37-4.6,2.13-6.85,3.28a3.85,3.85,0,0,0-1.32,1.59c-1.24,2.22-2.33,4.51-3.64,6.68-1.1,1.81-2.43,3.49-4,5.62,5.89-.74,11.45-.83,16.23-4,1.91-1.28,3.67-2.78,5.47-4.22,1.31-1,2.55-.82,2.6.73.18,5.33.17,10.72-4.38,14.62a31.91,31.91,0,0,1-4.19,2.62c1.48,1.24,1.43,1.71-.44,2.56-6.55,3-12.62,2-18.28-2.23a5.37,5.37,0,0,1-1-1,13.89,13.89,0,0,1-.8-1.5c-3,6.25-4.62,12.38-3.08,18.68,1.23-.13,2.87-.78,3.42-.26,1.33,1.27.65,2.93-.47,4.83-.07-1-.1-1.56-.16-2.11s-.18-1.1-.32-2c-1.43,1.12-1.69,2.09-1.27,3.49,1,3.4,1.84,6.87,2.86,10.28a28.21,28.21,0,0,0,1.52,3.07,1.69,1.69,0,0,1,0,1.23c-.07.17-.7.12-1.08.09-.17,0-.33-.3-.49-.3-.81,0-2.15.4-2.33.1a19.84,19.84,0,0,1-1.34-3.77c-1.43-4.33-2.83-8.67-4.31-13-.1-.32-.76-.44-1.15-.67s-.64-.25-.7-.45c-1-3.23-4.09-3.69-6.47-5.1s-5.38-2.39-7-5-1-5.18,1.86-6.61c1.07-.54,2.23-.91,3.36-1.37-1.05-3.81-2.75-4.71-6.21-3-3,1.54-6.13,2.7-9.5,1.55-1.25-.42-3.33-.14-3.35-2.45,0-.1-.58-.26-.9-.29-5.22-.46-7.65-4.44-10.17-8.19C40,84.1,39.73,82.45,39.22,81c-.66-1.92-.75-3.76.54-5.19a23.53,23.53,0,0,0,2.58,2.43c3.07,2.13,6.63,2.86,10.25,3.33,1.27.17,2.54.37,3.45.51l.55-4.51.57,0c.5,1.29.69,2.9,1.59,3.79S61.39,82.63,63,83c-1.31-1.74-2.58-3.5-4-5.2-3.66-4.55-5.22-10-6.44-15.54-.3-1.38-.69-2.14-2.12-2.5a16.77,16.77,0,0,1-10.84-8.45c-1.56-2.77-1.93-7.29-.06-9.15,2.07-2.06,4.38-2.93,7-2.27,2.42.61,3.66,2.68,4.15,5.15a19,19,0,0,0-1.62-8.16c-1.92-4-6-5.61-8.55-8.81a12.91,12.91,0,0,1-3.1-6.22C37,18.57,39.62,16.19,43,17c5.5,1.35,7.72,4.52,7.6,10.81,0,1.82-.4,3.63-.68,6,1.54-1.52,2.52-3.48,4.57-2.23a50,50,0,0,1,4.3,3.3c.68-.85,1.69-2.22,2.82-3.49a6.77,6.77,0,0,1,1.63-1A4.83,4.83,0,0,1,63.8,32a28.64,28.64,0,0,1-.52,6.58A74.5,74.5,0,0,1,60,46.76c1.8.49,1.85-3.45,4.34-2.23-.31,3.34-1.41,6.06-4.67,7.68-2.36,1.18-3.48,3.24-4.07,6.17,3.7,1.08,4.37,2.44,3,6.22s-1.35,3.81.84,8.21c1.24-1,2.39-2.52,3.87-3a9.4,9.4,0,0,1,5.09.17c2.5.69,3.8,2.67,3.6,5.42a21.43,21.43,0,0,1-1.4,6.29A11,11,0,0,0,70.69,90c2,5.56,6.63,9.47,9,14.79a16.51,16.51,0,0,0,2.57,4.2l4-13.13c-2.64-.31-3.87-2.38-4.58-4.9-.8-2.82-1.37-5.69-.39-8.55A5.58,5.58,0,0,1,86.92,79a5.93,5.93,0,0,1,5.18,4.19c.22.85.44,1.7.7,2.73a33.23,33.23,0,0,0,6.86-10.75c.23-.52-.65-2-1.37-2.4-4.1-2.45-6.71-6.21-8.59-10.33-1.46-3.2-1.9-6.88.77-9.94a3.93,3.93,0,0,1,2.74-1.28c6.11.33,7.74,3.14,8.05,8.78.14,2.56-.17,5.14-.21,7.71a25.77,25.77,0,0,0,.32,3L104,68l-.59-.1c0-.59-.27-1.3,0-1.74,2.68-4.7,3.65-9.85,4-15.15a9.25,9.25,0,0,0-2-6.35,18.75,18.75,0,0,1-4-13.7,5,5,0,0,1,4.08-4.65c2.39-.31,3.86,1.44,4.86,3.14a10.64,10.64,0,0,1,.94,9.36c-.8,2.18-.81,4.69-1.79,6.77-1.29,2.73.21,5.46-.65,8.19A72,72,0,0,0,107.12,62.49ZM105,100.83c-1.82-.91-3.53-1.68-5.15-2.61-.33-.19-.3-1-.43-1.53.49,0,1.07-.3,1.46-.12a9.66,9.66,0,0,0,11.6-2.32c3-3.39,3.39-7.46,3-11.75-.28,0-.46,0-.53,0a32,32,0,0,1-20,7.75c-3.47.13-4.31,1.19-5.15,4.65l6.67-2.56.31.71c-2.42,1.25-4.84,2.49-7.24,3.74A16.87,16.87,0,0,0,105,100.83ZM39.71,78.43a21.68,21.68,0,0,0,6.2,11.1c4,3.83,8.69,3.14,13.45,1l.34.93-4,3.44a13.14,13.14,0,0,0,5.55-.4c2.8-1,5.31-2.9,8.75-2.39a28.44,28.44,0,0,0-4.64-6c-2.79-2.52-6.46-2.53-10-2.88C50.05,82.7,44.76,81.91,39.71,78.43Zm10.2-27.82c.27-1.71.71-2.81.51-3.78s-1.11-1.9-1.59-2.89c-1.11-2.35-2.72-3.3-5-2.83a5.45,5.45,0,0,0-4,4.79c0,3.85,2.29,6.57,4.83,9a12.12,12.12,0,0,0,7.65,3.31c-2.63-4.56-5-8.65-7.36-12.74l.39-.23ZM96.24,68.77a27.49,27.49,0,0,1-1-3.61,22.5,22.5,0,0,1,0-3.58l.57,0c1.64,7,2.44,8.7,4.29,9.79-.23-2.1-.6-4.42-.71-6.75-.13-2.55.17-5.14-.13-7.65a5.93,5.93,0,0,0-2-3.38c-2.59-2.23-5.83-1.29-6.52,1.66C89.29,61.09,92.76,64.92,96.24,68.77ZM52.69,55c0-2.75-.26-5.59,1.82-8.39-.16,3.12-.29,5.76-.42,8.31l7.53-6.64a15.25,15.25,0,0,0-3.62.28A1.79,1.79,0,0,1,56.69,48c-.13-.13.14-.82.38-1.15.79-1.09,1.73-2.09,2.45-3.22A14,14,0,0,0,61.85,34c-2.05,1.91-4,3.59-5.81,5.41C51.6,43.85,50.9,49.13,52.69,55ZM48.44,29.45l.3-.05A13,13,0,0,0,49,27.65c.11-4-1.68-8.79-6.72-9.34-2-.22-3.44.69-3.18,2.58A11,11,0,0,0,41,26.24c1.76,2.19,4.14,3.88,6.25,5.79-.05-2.23-1-4.14,0-6.56ZM88.18,92.77c3.23-4.21,3.23-4.21,2.47-8.21-.45-2.41-2.25-4.25-4.05-4.15a4.48,4.48,0,0,0-4.09,4.9A35.78,35.78,0,0,0,83.78,92c.5,1.77,1.31,2.15,3,2.06-1.64-3.78-1.55-6.22.6-8.22C87.1,88.33,86.47,90.62,88.18,92.77Zm19.36-49,.38-.07A31.55,31.55,0,0,1,109.39,39a9.12,9.12,0,0,0,.39-7.31,9.45,9.45,0,0,0-2.62-3.55c-1.37-1.21-3.76.29-4.12,2.77a16.45,16.45,0,0,0,2.59,11.61c.29-1.51.55-2.85.81-4.18l.54.08C107.17,40.18,107.35,42,107.54,43.8ZM65,81.58c.53-6.65.53-6.65,2.37-7-1.53,4.16-1.24,8.27.65,9.66a33.9,33.9,0,0,0,1.89-5.21,18.7,18.7,0,0,0,.16-5.59c-.22-1.9-2-2.66-3.56-2.79-1.74-.14-3.59.22-4.65,2.06-.85,1.47-1.44,2.8,0,4.36A52.55,52.55,0,0,1,65,81.58ZM76.7,106.7c-1.09-1.92-2.17-3.84-3.29-5.75s-2.86-1.93-5.2-.33c-1.94,1.33-2.42,3.13-.75,4.54a55.85,55.85,0,0,0,6.84,4.58A21.21,21.21,0,0,0,77.22,111l.31-.44c-1.6-1.92-3.2-3.83-4.8-5.76C74.12,104.54,74.12,104.54,76.7,106.7Zm10.53,22c-2-11.23-7.19-20.85-13.15-30.12,2.14,5,4.4,9.94,6.6,14.92S85,123.42,87.23,128.65Zm17.28-61.23,2.06-.18-5,5.57.4.42c1-.25,2-.42,2.88-.75,3.1-1.1,5.05-3.67,4.54-6.33a3.4,3.4,0,0,0-1.86-2c-.43-.18-1.44.57-2,1.13A8.67,8.67,0,0,0,104.51,67.42ZM52.1,39.91a33.16,33.16,0,0,0,4.08-3.17A2.57,2.57,0,0,0,56,34.26a4.3,4.3,0,0,0-2.7-1.35c-.47,0-1.2,1-1.56,1.73A5.59,5.59,0,0,0,52.1,39.91ZM56.53,60C55,61.11,55,62.71,56.75,65.8,57.86,62.13,57.84,61.45,56.53,60Z"/></svg>