<svg xmlns="http://www.w3.org/2000/svg" viewBox="0 0 150 150"><defs><style>.a{fill:#e7d3e0;}.b{fill:#cba2be;}.c{fill:#c99ebc;}.d{fill:#cfaac4;}.e{fill:#f0e3ec;}.f{fill:#d8bacf;}.g{fill:#f9f4f8;}.h{fill:#b886a7;}.i{fill:#b483a3;}.j{fill:#bb8dac;}.k{fill:#d1aec5;}.l{fill:#c69eb8;}.m{fill:#d8bbd0;}.n{fill:#c39ab5;}.o{fill:#a2678e;}.p{fill:#9e638b;}.q{fill:#b682a4;}.r{fill:#9f638c;}.s{fill:#9e618a;}.t{fill:#a26990;}.u{fill:#bb8bab;}.v{fill:#a2698f;}.w{fill:#a87197;}.x{fill:#b17e9f;}.y{fill:#c59db9;}.z{fill:#dbbfd2;}.aa{fill:#ad789c;}.ab{fill:#ac769b;}.ac{fill:#b280a1;}.ad{fill:#bd8ead;}.ae{fill:#d6bbd0;}.af{fill:#cda9c1;}.ag{fill:#e0cbdb;}.ah{fill:#c299b5;}.ai{fill:#e0cbd8;}.aj{fill:#e9d9e6;}</style></defs><title>icon</title><path class="a" d="M121.74,95.56a3.38,3.38,0,0,1,.37.46,1.13,1.13,0,0,1,0-.25,3,3,0,0,0-.4-.21m-66.9-6.42h-.09l.62.51a2.91,2.91,0,0,0-.53-.52m-.08-.06h-.09l.08.06h.09l-.08-.06m1.33-.16-1.33.16.08.06a9.17,9.17,0,0,0,1.25-.22m5-.56a39.67,39.67,0,0,0-5,.56,9.17,9.17,0,0,1-1.25.22,2.91,2.91,0,0,1,.53.52l.28.22a6.83,6.83,0,0,0,3.71,1.56c.81.06,1.62.09,2.41.11l.57-.07-.57.07c1.84,0,3.63,0,5.31.2a3.85,3.85,0,0,0-.48-1.19,7.59,7.59,0,0,0-3.5-2,7,7,0,0,0-2-.25M99.5,83.81a8.59,8.59,0,0,1,.22,1.25c0,.66,0,1.33,0,2a1.93,1.93,0,0,1-.3.95.13.13,0,0,1-.12.09c-.11,0-.23-.15-.36-.15h0a.3.3,0,0,1-.19.09.57.57,0,0,1-.24-.08l-.06.23a3,3,0,0,0-.19-.36l-.13,0h-.13c-.29,0-.42-.22-.48-.55a2,2,0,0,0-.64-.1,2.72,2.72,0,0,0-.92.17,5.28,5.28,0,0,0-1.48.92,10,10,0,0,0-1.31,1.37c-.49.64-1.06,1.23-1.63,1.23a.84.84,0,0,1-.27,0c-.47-.31-.6-1.68-1-1.68h0l0,0a1.87,1.87,0,0,1-.41.62c-.47.43-1.34,1-3.87,1.72-1.37.77-2.64,2.38-4.57,2.59-.85-.1-1.42-.78-2.24-.78h0c-1.16.34-2.37.68-3.55,1.09l-.79.29c.37.26.74.53,1.1.83.55.41,1.85,3.67,2.34,4.73.59,1.38,2.17,1.84,3.72,1.84a8.45,8.45,0,0,0,1.78-.19c1.57-.48,3.11-.89,4.64-1.2s3.11-.59,4.69-.86c1.11,0,2,.74,3.13.87,2.71-.15,4.53-1.75,6.58-2.51,3.79-.66,5.21-1.27,5.92-1.69s.56-.61.63-.61l0,0c.7,0,.93,1.38,1.71,1.72a2.39,2.39,0,0,0,.53.06,4.15,4.15,0,0,0,2.5-1.12,15.14,15.14,0,0,1,2-1.25,8.2,8.2,0,0,1,2.16-.72,5.81,5.81,0,0,1,.72,0,4.32,4.32,0,0,1,1.6.29,14,14,0,0,0-.65-1.89c-.72-1-2.17-1.1-3.4-1.55a5.06,5.06,0,0,1-1.26-1.27A1.39,1.39,0,0,0,114,89.5a8.75,8.75,0,0,0-1.57.23,1.86,1.86,0,0,1-.52.07,4.83,4.83,0,0,1-1.63-.41,4.78,4.78,0,0,0-1.66-.42h-.12a5,5,0,0,0-2,.54,4.85,4.85,0,0,1-1.8.54,1.6,1.6,0,0,1-.78-.19c.42.25-.09.35-.88.35-.34,0-.73,0-1.11,0-1.25-.1-2.46-.36-1.93-.51-.15,0-.42-.54-.47-.91s0-.67.1-.79c.94-.9.91-2.51,1.25-3.79a13.52,13.52,0,0,0-1.41-.35M82,68.2a11,11,0,0,0-1.58.19,6.85,6.85,0,0,1,.1,2.29c0,.35,0,.55.16.65.07-.1.27-.24.34-.34a.41.41,0,0,1,.16,0,6.48,6.48,0,0,1,.46-.72,1.8,1.8,0,0,1,.48-.48.31.31,0,0,1,.13,0c.09,0,.19.06.33.23a6.91,6.91,0,0,0,.89,1.52c.51.72,1.28,1.52,1.6,2.11.26.43.54.85.82,1.27a1.53,1.53,0,0,0,.28-.45c.3-1.1.47-2.49,0-3a3.93,3.93,0,0,0-2.61-2.18c-.56-.37-1.1-.73-1.61-1.09M47.89,45.63a23.8,23.8,0,0,1-5.17,4,32,32,0,0,0-4,2.28,5.1,5.1,0,0,0-1.46,1.59,3.33,3.33,0,0,0-.29,2.17,15.38,15.38,0,0,0,1,2.82c.12.3.25.59.38.88l.12-.07c-.27-.51-.45-.79-.45-.79s.18.28.45.79l.18-.1a35.77,35.77,0,0,1,4.08-1.72c1.18-.54,2.37-1.1,3.43-1.7-.19-1.28-.14-2.21.23-2.48a10,10,0,0,1,0-1.06c.05-.63.13-1.5.26-2.41a25.54,25.54,0,0,1,.6-2.67,7.92,7.92,0,0,1,.66-1.55M59.13,32.46l-.12,0a15.69,15.69,0,0,0-6.92,3.7c-1.78,1.59-1.88,3.77-2.35,6a6.88,6.88,0,0,1-1.48,3,12.86,12.86,0,0,0,1.57-1.32c0-.54,0-1.08,0-1.62.47-2.25.58-4.43,2.36-6a15.52,15.52,0,0,1,6.91-3.71l.12,0a.74.74,0,0,1,.54.28.8.8,0,0,0-.59-.34"/><path class="b" d="M58.81,54.09c0,.07,0,.15-.05.22.15,1.91,1,3.32.79,5.33a6.84,6.84,0,0,0,.91,3.57A7.55,7.55,0,0,0,61,64a9.46,9.46,0,0,0,.69.74c.26.25.53.51.83.76s.67.49,1,.73a31.13,31.13,0,0,0,3.51,2.3h.06a30.26,30.26,0,0,1-3.5-2.28c-.37-.24-.71-.48-1-.72s-.57-.51-.82-.76a6.37,6.37,0,0,1-1.21-1.51,6.82,6.82,0,0,1-.92-3.57c.23-2.1-.73-3.53-.81-5.58m-.35-3.4a1.12,1.12,0,0,0,0,.32,3.11,3.11,0,0,1,0-.32m0-.25v0a.13.13,0,0,1,0,.06v-.08M59.72,32.8a1.51,1.51,0,0,1,.39.89c.15,1.93-1.25,3.6-1.72,5.52.07.33,0,.93.2,1.16a1.78,1.78,0,0,1,.39.86,27,27,0,0,1-.41,4.85h.07a27.12,27.12,0,0,0,.4-4.78,1.85,1.85,0,0,0-.4-.86c-.22-.23-.13-.84-.2-1.16.48-1.92,1.88-3.59,1.73-5.51a1.59,1.59,0,0,0-.45-1"/><path class="c" d="M58.76,54.31a15.88,15.88,0,0,1-.5,1.63,37.11,37.11,0,0,0,.27,3.85c-.11,1.38.78,2.22.32,3.66-.27,1.81.47,2.94,2.73,3.84a22.42,22.42,0,0,0,2.61,1,7.66,7.66,0,0,0,2.06.32,3.34,3.34,0,0,0,.8-.08,31.13,31.13,0,0,1-3.51-2.3c-.37-.24-.72-.49-1-.73s-.57-.51-.83-.76A9.46,9.46,0,0,1,61,64a7.55,7.55,0,0,1-.52-.78,6.84,6.84,0,0,1-.91-3.57c.22-2-.64-3.42-.79-5.33m.42-21.79-.12,0a15.52,15.52,0,0,0-6.91,3.71c-1.78,1.58-1.89,3.76-2.36,6,0,.54,0,1.08,0,1.62l.13-.12a4.4,4.4,0,0,0,1.54-3.44s.25-.5.65-1.16a23.3,23.3,0,0,1,1.49-2.22c.66-.82,1.34-1.47,1.83-1.47s.61.33.7,1.16a35.59,35.59,0,0,1,1,3.48s-.39,2.94-.68,6.4a17.51,17.51,0,0,1,2.09-.43A27,27,0,0,0,59,41.23a1.78,1.78,0,0,0-.39-.86c-.23-.23-.13-.83-.2-1.16.47-1.92,1.87-3.59,1.72-5.52a1.51,1.51,0,0,0-.39-.89.74.74,0,0,0-.54-.28"/><path class="d" d="M55.47,35.47c-.49,0-1.17.65-1.83,1.47a23.3,23.3,0,0,0-1.49,2.22c-.4.66-.65,1.16-.65,1.16A4.4,4.4,0,0,1,50,43.76l-.13.12a12.86,12.86,0,0,1-1.57,1.32l-.12.08a3.53,3.53,0,0,0-.25.35,7.92,7.92,0,0,0-.66,1.55,25.54,25.54,0,0,0-.6,2.67c-.13.91-.21,1.78-.26,2.41a10,10,0,0,0,0,1.06c-.37.27-.42,1.2-.23,2.48a14.21,14.21,0,0,0,1.77-1.14,3.08,3.08,0,0,1,.27-.25l.12-.06a4.23,4.23,0,0,0,1.48-2c.47-1.5.55-2.95,2.3-4a18.35,18.35,0,0,1,4.45-1.84c.29-3.46.68-6.4.68-6.4a35.59,35.59,0,0,0-1-3.48c-.09-.83-.35-1.16-.7-1.16"/><path class="e" d="M100.08,89.64h0M84.84,66.46h0a36.57,36.57,0,0,0-3.59,1.17l.82.57c.51.36,1,.72,1.61,1.09a3.93,3.93,0,0,1,2.61,2.18c.42.51.25,1.9,0,3a1.53,1.53,0,0,1-.28.45c.87,1.3,1.8,2.61,2.81,4a.39.39,0,0,0,.25.1.23.23,0,0,0,.19-.1,1.67,1.67,0,0,1,1.41-.59h.66a1.92,1.92,0,0,0,.88-.17c.38-.14.75-.49,1.15-.49a.47.47,0,0,1,.16,0,9.4,9.4,0,0,1,5.89,5.44,6.36,6.36,0,0,1,.19.62,13.52,13.52,0,0,1,1.41.35c-.34,1.28-.31,2.89-1.25,3.79-.11.12-.06.53-.1.79s.32.88.47.91c-.53.15.68.41,1.93.51.38,0,.77,0,1.11,0,.79,0,1.3-.1.88-.35a1.6,1.6,0,0,0,.78.19,4.85,4.85,0,0,0,1.8-.54,5,5,0,0,1,2-.54h.12a4.78,4.78,0,0,1,1.66.42,4.83,4.83,0,0,0,1.63.41,1.86,1.86,0,0,0,.52-.07A8.75,8.75,0,0,1,114,89.5a1.39,1.39,0,0,1,1.23.55,5.06,5.06,0,0,0,1.26,1.27c1.23.45,2.68.52,3.4,1.55a14,14,0,0,1,.65,1.89,1,1,0,0,0,1,.74.6.6,0,0,1,.23.06,3,3,0,0,1,.4.21.89.89,0,0,0,.41.16.23.23,0,0,0,.18-.06h0a11.79,11.79,0,0,0-.35-1.18c-.35-.86-1.19-1.31-1.57-2.18a12.29,12.29,0,0,0-1.59-2.42,6.13,6.13,0,0,0-1.61-1,15.51,15.51,0,0,0-6.44-1.66,1.48,1.48,0,0,1-1.1.44c-.67,0-1.39-.32-2-.36a5.77,5.77,0,0,1-.91-.41,2,2,0,0,0-.42,0h-.41l-.41,0a1.27,1.27,0,0,1-1.1-.44c-.56-.8-1.12-1.55-1.71-2.25a18.76,18.76,0,0,0-1.8-2c-.48-.5-1.81-1.37-2.91-2.24s-2-1.68-2.33-1.92a2.71,2.71,0,0,0-1.39-.5,2.81,2.81,0,0,1-1.42-.42s0-.11.17-.26l-.34-.09c-.11.09-.45.18-.56.27a1.29,1.29,0,0,1-.51-.78,8.33,8.33,0,0,0-1.85-3.91,12.19,12.19,0,0,1-2.29-3.91,3,3,0,0,0-1.39-1.68c-.57-.14-1.11-.59-1.65-.59"/><path class="f" d="M54.84,89.14h0a2.91,2.91,0,0,1,.53.52.4.4,0,0,1,.08.16,6.26,6.26,0,0,0,1.71,1.06,9.29,9.29,0,0,0,3.64.71c.31,0,.63,0,1,0l.57-.07-.57.07c-.34,0-.66,0-1,0a9.29,9.29,0,0,1-3.64-.71,6.26,6.26,0,0,1-1.71-1.06.4.4,0,0,0-.08-.16,2.91,2.91,0,0,0-.53-.52m-.08-.06h0l.08.06h0l-.08-.06M38,58.53s.18.28.45.79h0c-.27-.51-.45-.79-.45-.79"/><path class="g" d="M95.3,76.18h-.11a2.21,2.21,0,0,0-1,.34,3.63,3.63,0,0,0-.75.63c-.12.15-.18.25-.17.26a2.81,2.81,0,0,0,1.42.42,2.71,2.71,0,0,1,1.39.5c.32.24,1.21,1.06,2.33,1.92s2.43,1.74,2.91,2.24a18.76,18.76,0,0,1,1.8,2c.59.7,1.15,1.45,1.71,2.25a1.27,1.27,0,0,0,1.1.44l.41,0h.41a2,2,0,0,1,.42,0,5.77,5.77,0,0,0,.91.41c.61,0,1.33.36,2,.36a1.48,1.48,0,0,0,1.1-.44,15.51,15.51,0,0,1,6.44,1.66,6.13,6.13,0,0,1,1.61,1,12.29,12.29,0,0,1,1.59,2.42c.38.87,1.22,1.32,1.57,2.18a11.79,11.79,0,0,1,.35,1.18h0c.2,0,.42.27.57.27a.12.12,0,0,0,.12-.08c.23-.26.15-.69.15-1-.15-.71-.28-1.47-.48-2.23a9.4,9.4,0,0,0-.86-2.09,13.87,13.87,0,0,0-8.58-6.13,1.15,1.15,0,0,0-.26,0,7.38,7.38,0,0,0-1.57.45,3.55,3.55,0,0,1-1.13.15l-.6,0h-.6a3,3,0,0,0-1.95.57.39.39,0,0,1-.28.1.84.84,0,0,1-.38-.11c-2-1.91-3.84-3.59-5.6-5.33a25.52,25.52,0,0,0-2.79-2.16,25.08,25.08,0,0,1-2-1.64,2.4,2.4,0,0,0-1.19-.36"/><path class="a" d="M59,46h-.11l-.23,0v0l.3,0H59a1,1,0,0,1,.55.18A1,1,0,0,0,59,46"/><path class="h" d="M58.64,46.07h-.07v.05h.07v0"/><path class="i" d="M58.57,46.08a17.51,17.51,0,0,0-2.09.43v.05a20.27,20.27,0,0,1,2.09-.43v-.05"/><path class="j" d="M56.48,46.51A18.35,18.35,0,0,0,52,48.35c-1.75,1-1.83,2.48-2.3,4a4.23,4.23,0,0,1-1.48,2,12.72,12.72,0,0,0,1.58-.89c0-.36,0-.73,0-1.09.46-1.5.54-2.95,2.3-4a18.78,18.78,0,0,1,4.38-1.83v-.05"/><path class="a" d="M67.08,91.75c.29,1,.6,2.39.77,3a2,2,0,0,0,2.2,1.44A5.64,5.64,0,0,0,72,95.82c1-.47,1.93-.87,2.86-1.22a15.83,15.83,0,0,0-4-2,14.46,14.46,0,0,0-3.77-.82M51.8,87l1.74,1.19.07,0c-.5-.39-1.07-.8-1.73-1.24H51.8m-1.38-.25A2.78,2.78,0,0,0,51.5,87h.19a4.54,4.54,0,0,1-1.27-.25m-6.83-7,0,.08h0l.22.35c.13.23.34.55.61.93a24.68,24.68,0,0,0,2.15,2.69l.25.27c-1.15-1.32-2.2-2.9-3.25-4.32M41,70.39v.06h0c0,.14,0,.28,0,.42l.15.93a19.87,19.87,0,0,0,.44,2.13,23,23,0,0,0,.93,2.92,2.32,2.32,0,0,1-.06-.27A21,21,0,0,1,41.2,71.9c-.07-.5-.14-1-.19-1.51m34.26-5.53a9.67,9.67,0,0,0-1.59.7,15,15,0,0,1-1.36.72s-.08,0-.1-.1h0a15.73,15.73,0,0,1-3,2.25s-.1.28-.21.73a12.53,12.53,0,0,1,2.47-1,3.45,3.45,0,0,1,.81-.12c.86,0,1.45.52,1.15,2.26,0,0,0,.07,0,.19a2.06,2.06,0,0,0,.62.1h.17A8.37,8.37,0,0,0,77.44,69a3.73,3.73,0,0,0,.28-2c-.19-.91-.79-1.51-1.46-1.51h0c-.34-.23-.66-.46-1-.68m-35-.8a14.42,14.42,0,0,1,.39,1.83c0,.25.09.49.13.74a12.8,12.8,0,0,0-.52-2.55v0m-2-4.67c-1.08.67-1.79,1.51-1.56,2.65a10.15,10.15,0,0,0,.85,2.07c.33.67.73,1.34,1.09,2a12.58,12.58,0,0,1,.91,2.09,14.84,14.84,0,0,0-.5-1.51,10.47,10.47,0,0,0-1.46-2.59,10.47,10.47,0,0,1,1.46,2.59,12.72,12.72,0,0,1,.5,1.51h0a7.77,7.77,0,0,1,.33,1.86,11.61,11.61,0,0,1,.06,1.2h0a18.09,18.09,0,0,1-.11,1.87c0,.4,0,.8.07,1.2a13.57,13.57,0,0,0,.8,3.75c0,.06,0,.14,0,.23a2.74,2.74,0,0,0,.41.75l.33,1.57c.85,1.1,1.67,2.36,2.58,3.39a7.91,7.91,0,0,0,2.93,2,3.87,3.87,0,0,0,.77.08l.32,0,.08,0h.09a12.1,12.1,0,0,1,1.37.89A5.2,5.2,0,0,1,51,88l.22.16a4.13,4.13,0,0,0,2.65.94h.27l.56,0-1.06-.85-.07,0L51.8,87h-.3a2.78,2.78,0,0,1-1.08-.26A8.81,8.81,0,0,1,46.84,84l-.25-.27a24.68,24.68,0,0,1-2.15-2.69c-.27-.38-.48-.7-.61-.93l-.22-.35,0-.08-.05-.07a18.49,18.49,0,0,1-1-2.79,23,23,0,0,1-.93-2.92,19.87,19.87,0,0,1-.44-2.13L41,70.87h0c0-.14,0-.28,0-.42v-.06l-.09-.79c0-.76-.06-1.54-.1-2.36l-.06-.61c0-.25-.08-.49-.13-.74a14.42,14.42,0,0,0-.39-1.83,28.09,28.09,0,0,0-1.09-2.8c-.29-.63-.59-1.25-.87-1.87"/><path class="k" d="M53.61,88.24l1.06.85h.09c-.33-.26-.74-.55-1.15-.84M51.78,87l-.09,0h.11l0,0m-4.94-3a8.81,8.81,0,0,0,3.58,2.72A11.91,11.91,0,0,1,46.84,84m24.79-3.89-.21.08-1,.4-.59.33c.47-.13,1-.29,1.45-.48l.36-.33M42.52,76.85a18.49,18.49,0,0,0,1,2.79l.05.07-.54-1.91a3.15,3.15,0,0,1-.53-1M74.24,72c0,.21,0,.44,0,.69l.27,0a5.42,5.42,0,0,0-.29-.72M77.44,69a8.37,8.37,0,0,1-3.14,1.55s0,.32,0,.84a16,16,0,0,1,2.18-.38l.06-.15c.17-.37.52-.75.69-1.12s.18-.49.26-.74M40.76,66.63l.06.61c0,.82.07,1.6.1,2.36l.09.79c0-.75,0-1.46-.06-2.14s-.11-1.1-.19-1.62M38.4,59.32l-.12.07c.28.62.58,1.24.87,1.87a28.09,28.09,0,0,1,1.09,2.8c-.21-.74-.44-1.41-.64-2a23.34,23.34,0,0,0-1.2-2.73m7.69-3.52c-1.06.6-2.25,1.16-3.43,1.7a35.77,35.77,0,0,0-4.08,1.72l-.18.1a23.34,23.34,0,0,1,1.2,2.73c.2.6.43,1.27.64,2v0a12.8,12.8,0,0,1,.52,2.55c.08.52.15,1.06.19,1.62s0,1.39.06,2.14c.05.51.12,1,.19,1.51a21,21,0,0,0,1.26,4.68,2.32,2.32,0,0,0,.06.27,3.15,3.15,0,0,0,.53,1l.54,1.91c1,1.42,2.1,3,3.25,4.32a11.91,11.91,0,0,0,3.58,2.72,4.54,4.54,0,0,0,1.27.25l.09,0h0l0,0h.08c.66.44,1.23.85,1.73,1.24s.82.58,1.15.84l1.33-.16.46-.14h0l-.46.14a39.67,39.67,0,0,1,5-.56,7,7,0,0,1,2,.25,7.59,7.59,0,0,1,3.5,2,3.85,3.85,0,0,1,.48,1.19,14.46,14.46,0,0,1,3.77.82,15.83,15.83,0,0,1,4,2l.79-.29c1.18-.41,2.39-.75,3.55-1.09h0c.82,0,1.39.68,2.24.78,1.93-.21,3.2-1.82,4.57-2.59,2.53-.67,3.4-1.29,3.87-1.72a1.87,1.87,0,0,0,.41-.62l0,0h0c.43,0,.56,1.37,1,1.68a.84.84,0,0,0,.27,0c.57,0,1.14-.59,1.63-1.23a10,10,0,0,1,1.31-1.37A5.28,5.28,0,0,1,96,87.29a2.72,2.72,0,0,1,.92-.17,2,2,0,0,1,.64.1,11.61,11.61,0,0,0-.22-1.7c-.41-.9-1.43-.85-2.23-1.2a4,4,0,0,1-.8-1.18.74.74,0,0,0-.74-.49,4.19,4.19,0,0,0-1.15.28A1,1,0,0,1,92,83,2.26,2.26,0,0,1,91,82.63a2.44,2.44,0,0,0-1.08-.39h-.08a2.53,2.53,0,0,0-1.34.55,2.52,2.52,0,0,1-1.2.55.83.83,0,0,1-.51-.19c.27.25-.06.34-.57.34-.94,0-2.47-.31-2-.53a1.64,1.64,0,0,1-.29-.91,3.1,3.1,0,0,1,.08-.78,3.21,3.21,0,0,0,.25-.49,1.4,1.4,0,0,1,.25-1v0c.14-.75.2-1.59.32-2.32-.06-.14-2-.42-2.38-1.62-.37-1-.47-2.08-.83-2.31-.11.06-.3.68-.42.75h0a.41.41,0,0,0-.12.07c.1.23.27.61.47,1.08a25.73,25.73,0,0,1,1.1,3.06c.62,2.27.94,4.77-.9,5.63,0,0-.9.42-2.42.94a41,41,0,0,1-6.08,1.6,29.18,29.18,0,0,1-5.06.47A21.56,21.56,0,0,1,65.29,87a15.75,15.75,0,0,1-7.21-2.71,8.69,8.69,0,0,1-4.28-1.48l-.23,0s-.26-.14-.67-.41a9.63,9.63,0,0,0-2.12-.18h-.51a8.51,8.51,0,0,1-2.39-1.64c-1.17-1.09-2.15-2.87-1.56-4.52,0,0,0-.45,0-1.16s0-1.66,0-2.65c0-2,0-4.07-.63-5.1a7,7,0,0,0,.61-1.33,2.67,2.67,0,0,0,.17-1.35L46,63.74a1.16,1.16,0,0,1,.42.67c.15.23.33.52.53.85-1.1-2.48-1.55-4.85-.78-5.27,0,0,0-.3.09-.75s.15-.91.28-1.47a18.55,18.55,0,0,1-.42-2"/><path class="h" d="M73.51,70.49v0a1.9,1.9,0,0,0,.54.07h.07a2.06,2.06,0,0,1-.62-.1"/><path class="i" d="M73.52,70.53c0,.19.1.5.17.89s.12.74.18,1.18l.39.05c0-.25,0-.48,0-.69A5.2,5.2,0,0,0,74,71.5l.26-.07c0-.52,0-.8,0-.84h-.24a1.9,1.9,0,0,1-.54-.07"/><path class="j" d="M72.3,79.43c-.29.2-.89.6-1.73,1.1l-.16.09,1-.4.21-.08c.18-.17.41-.41.67-.71m1.57-6.83c.06.44.11.92.13,1.41a10.73,10.73,0,0,1-.31,3.51h0a6.2,6.2,0,0,0,.84-4.83l-.27,0-.39-.05m-26-17.94a14.21,14.21,0,0,1-1.77,1.14,18.55,18.55,0,0,0,.42,2c0-.07,0-.14.05-.22a7.65,7.65,0,0,1,1.3-2.89"/><path class="l" d="M52.9,82.33c.41.27.67.41.67.41l.23,0-.22-.17a1.5,1.5,0,0,0-.65-.26h0M76.43,71.05a16,16,0,0,0-2.18.38L74,71.5a5.2,5.2,0,0,1,.25.46,5.42,5.42,0,0,1,.29.72,6.2,6.2,0,0,1-.84,4.83h0a3.48,3.48,0,0,1-1.2,1.78l-.19.13c-.26.3-.49.54-.67.71l-.36.33c-.5.19-1,.35-1.45.48a35.26,35.26,0,0,1-4,1.93,18.81,18.81,0,0,1-6.23,1.41h-.4a9.4,9.4,0,0,1-1.06,0A15.75,15.75,0,0,0,65.29,87a21.56,21.56,0,0,0,2.89.18,29.18,29.18,0,0,0,5.06-.47,41,41,0,0,0,6.08-1.6c1.52-.52,2.42-.94,2.42-.94,1.84-.86,1.52-3.36.9-5.63a25.73,25.73,0,0,0-1.1-3.06c-.2-.47-.37-.85-.47-1.08A13.72,13.72,0,0,1,78.4,76.1a9.11,9.11,0,0,1-3.18,1c-.2,0-.34,0-.38-.12a2.69,2.69,0,0,1,.28-2c.91-1.52.82-2.52,1.31-3.87"/><path class="m" d="M84.5,79.79v0a1.4,1.4,0,0,0-.25,1,5.61,5.61,0,0,0,.26-1"/><path class="n" d="M41,70.87h0l.15.93a19.87,19.87,0,0,0,.44,2.13,23,23,0,0,0,.93,2.92,3.15,3.15,0,0,0,.53,1l.54,1.91,0,.08.22.35c.13.23.34.55.61.93a24.68,24.68,0,0,0,2.15,2.69l.25.27a11.91,11.91,0,0,0,3.58,2.72A2.78,2.78,0,0,0,51.5,87h.19l.09,0,0,0,1.74,1.19.07,0c.41.29.82.58,1.15.84h0c-.33-.26-.74-.55-1.15-.84l-.07,0L51.8,87l0,0h0l-.09,0H51.5a2.78,2.78,0,0,1-1.08-.26A11.91,11.91,0,0,1,46.84,84l-.25-.27a24.68,24.68,0,0,1-2.15-2.69c-.27-.38-.48-.7-.61-.93l-.22-.35h0l0-.08-.54-1.91a3.15,3.15,0,0,1-.53-1,23,23,0,0,1-.93-2.92,19.87,19.87,0,0,1-.44-2.13L41,70.87m0-.42c0,.14,0,.28,0,.42h0c0-.14,0-.28,0-.42h0M38.4,59.32h0a23.34,23.34,0,0,1,1.2,2.73c.2.6.43,1.27.64,2a14.42,14.42,0,0,1,.39,1.83c0,.25.09.49.13.74.08.52.15,1.06.19,1.62s0,1.39.06,2.14v.06h0v-.06c0-.75,0-1.46-.06-2.14s-.11-1.1-.19-1.62c0-.25-.08-.49-.13-.74a14.42,14.42,0,0,0-.39-1.83c-.21-.74-.44-1.41-.64-2a23.34,23.34,0,0,0-1.2-2.73"/><polyline class="a" points="67.14 68.5 67.14 68.5 67.14 68.5 67.14 68.5"/><path class="i" d="M68.93,69.61c0,.18-.07.38-.11.59l.19,0a2.61,2.61,0,0,0-.08-.57"/><path class="a" d="M39.91,70.1c0,.18,0,.36,0,.56,0,.64-.06,1.26-.08,1.86,0,.22,0,.43,0,.64A18.09,18.09,0,0,0,40,71.29a11.28,11.28,0,0,0-.06-1.19"/><path class="k" d="M62.87,71.91l.5.29.26,0-.75-.26h0"/><path class="i" d="M65,71.83c-.68,0-1.36.08-2.06.08h0l.75.26A7.85,7.85,0,0,0,65,71.83"/><path class="j" d="M65.54,77.23l-.17.11a24.79,24.79,0,0,1-2.89,1.58,16.25,16.25,0,0,0,2.73-1.34l.33-.35m-5.62-5.51a6.34,6.34,0,0,0,2.6.53,6.15,6.15,0,0,0,.85,0l-.5-.29c-.48,0-1,0-1.48,0s-1-.07-1.47-.14"/><path class="l" d="M54.23,77.25a5.14,5.14,0,0,0,1.47,1.42,5.37,5.37,0,0,0,.79.43l-.69-.55-1.57-1.3"/><path class="a" d="M49.63,87c.51.37.93.73,1.34,1.05A5.2,5.2,0,0,0,49.63,87m-1.46-.9h0l-.08,0h.08m-4.1-2a5.69,5.69,0,0,0,2.93,2,7.91,7.91,0,0,1-2.93-2m-3.31-5.71a11.7,11.7,0,0,0,.69,2.25l0,.07-.33-1.57a2.52,2.52,0,0,1-.4-.75"/><path class="k" d="M98.31,87.78a3,3,0,0,1,.19.36l.06-.23-.06,0a.69.69,0,0,0-.19-.1"/><path class="b" d="M67.14,68.5h0M58.5,51v.11l.06.05a1.05,1.05,0,0,1,.4.56,10,10,0,0,1-.17,2.08v.07c0,.07,0,.14,0,.21A9.67,9.67,0,0,0,59,51.77a1.07,1.07,0,0,0-.4-.56.34.34,0,0,1-.13-.2m-.07-.49,0,.17a.86.86,0,0,0,0-.17m1.16-4.27a1,1,0,0,1,.41.6c.18,1.23-1.09,2.26-1.59,3.45l0,.14c.46-1.23,1.81-2.29,1.63-3.54a1.08,1.08,0,0,0-.47-.65"/><path class="o" d="M67.11,68.51h0M58.8,53.81l-.06.27c0,.08,0,.16,0,.23s0-.15.05-.22,0-.14,0-.21v-.07m-.39-3.51a.56.56,0,0,0,0,.12v0a1.37,1.37,0,0,1,0,.31,1.23,1.23,0,0,0,0,.19.37.37,0,0,0,.08.18V51a1.12,1.12,0,0,1,0-.32l0-.17a.13.13,0,0,0,0-.06v0l0-.14"/><path class="p" d="M58.74,54.08a13.33,13.33,0,0,1-.54,1.82c-.13,1.48.27,2.45.26,3.87s.78,2.22.32,3.66c-.27,1.82.47,3,2.74,3.86a20.33,20.33,0,0,0,2.61,1,7.82,7.82,0,0,0,2.07.33,3.22,3.22,0,0,0,.86-.1h0a3.34,3.34,0,0,1-.8.08,7.66,7.66,0,0,1-2.06-.32,22.42,22.42,0,0,1-2.61-1c-2.26-.9-3-2-2.73-3.84.46-1.44-.43-2.28-.32-3.66a37.11,37.11,0,0,1-.27-3.85,15.88,15.88,0,0,0,.5-1.63c0-.07,0-.15,0-.23m-.33-3.33a1.23,1.23,0,0,0,0,.19,1.23,1.23,0,0,1,0-.19m0-.33h0v0"/><path class="b" d="M67.75,68.36a1.43,1.43,0,0,0-.61.14,1.41,1.41,0,0,1,.55-.12,2,2,0,0,1,.51.08,2,2,0,0,0,.51.08,1.38,1.38,0,0,0,.49-.09l0,0h0a1.5,1.5,0,0,1-.48.08,2.62,2.62,0,0,1-.51-.07,2,2,0,0,0-.51-.08"/><path class="c" d="M67.69,68.38a1.41,1.41,0,0,0-.55.12h0l.11.06a15.8,15.8,0,0,0,1.63.76.14.14,0,0,0,0-.06l.21-.11c.11-.45.2-.69.21-.73l0,0a1.38,1.38,0,0,1-.49.09,2,2,0,0,1-.51-.08,2,2,0,0,0-.51-.08M58.51,51.12c.11.85.23,1.7.29,2.69A10,10,0,0,0,59,51.73a1.05,1.05,0,0,0-.4-.56l-.06-.05m.53-5h-.11l-.3,0c-.09.55-.2,1.1-.32,1.67a16.7,16.7,0,0,0,.1,2.51c.5-1.19,1.77-2.22,1.59-3.45a1,1,0,0,0-.41-.6,1,1,0,0,0-.55-.18"/><polyline class="q" points="62.87 71.91 62.88 71.91 62.88 71.91 62.87 71.91"/><path class="r" d="M67.11,68.51h0l.09,0a14.71,14.71,0,0,0,1.72.8l0,0a15.8,15.8,0,0,1-1.63-.76l-.11-.06M58.43,50.94c.12.91.25,1.83.31,2.89v.25l.06-.27c-.06-1-.18-1.84-.29-2.69a.37.37,0,0,1-.08-.18m-.06-.5c0,.1,0,.21,0,.31a1.37,1.37,0,0,0,0-.31m.26-4.32h-.07c-.09.53-.2,1.06-.31,1.61a16.37,16.37,0,0,0,.12,2.68.56.56,0,0,1,0-.12,16.7,16.7,0,0,1-.1-2.51c.12-.57.23-1.12.32-1.67"/><path class="s" d="M58.56,46.13a20.27,20.27,0,0,0-2.09.43c0,.61-.1,1.23-.14,1.86,0,.2,0,.4,0,.61a13.7,13.7,0,0,1,.86,2s-.49,2.66-.87,5.39c-.18,1.16-.3,2.34-.42,3.35,0,.26.07.55.12.86a18.28,18.28,0,0,0,2.38,6.65A12.35,12.35,0,0,0,59.56,69,11.71,11.71,0,0,0,61,70.5a13.47,13.47,0,0,0,1.87,1.41h.05c.7,0,1.38,0,2.06-.08a11.13,11.13,0,0,0,2.85-1.48s.42-.08,1-.15c0-.21.08-.41.11-.59a2.1,2.1,0,0,0-.06-.24,14.71,14.71,0,0,1-1.72-.8l-.09,0a3.22,3.22,0,0,1-.86.1,7.82,7.82,0,0,1-2.07-.33,20.33,20.33,0,0,1-2.61-1c-2.27-.9-3-2-2.74-3.86.46-1.44-.42-2.28-.32-3.66s-.39-2.39-.26-3.87a13.33,13.33,0,0,0,.54-1.82v-.25c-.06-1.06-.19-2-.31-2.89a1.23,1.23,0,0,1,0-.19c0-.1,0-.21,0-.31v0h0a16.37,16.37,0,0,1-.12-2.68c.11-.55.22-1.08.31-1.61"/><path class="t" d="M55.85,59.73a6.55,6.55,0,0,1-.6,2.69,8.64,8.64,0,0,0,0,2,9.7,9.7,0,0,0,1.46,4.44,7.8,7.8,0,0,0,1.88,2.06,6.88,6.88,0,0,0,1.37.79c.49.07,1,.12,1.47.14s1,0,1.48,0h0A13.47,13.47,0,0,1,61,70.5,11.71,11.71,0,0,1,59.56,69a12.35,12.35,0,0,1-1.21-1.71A18.28,18.28,0,0,1,56,60.59c0-.31-.09-.6-.12-.86m.62-13.17a18.78,18.78,0,0,0-4.38,1.83c-1.76,1-1.84,2.48-2.3,4,0,.36,0,.73,0,1.09l.13-.08c.88-.62,1.72-1.42,1.53-2.29a16.72,16.72,0,0,1,2.1-2.21,3.42,3.42,0,0,1,1.79-.94c.36,0,.63.22.74.77l.16.32c0-.21,0-.41,0-.61,0-.63.09-1.25.14-1.86"/><path class="u" d="M57.3,77.58a9.42,9.42,0,0,0,2,2h.22l-.12-.11c-.68-.58-1.45-1.28-2.13-1.89m6.33-5.41-.26,0a11.68,11.68,0,0,0,1.18.57,10.32,10.32,0,0,0,3.55.77l.12-.24c-1.15-.21-2.31-.47-3.48-.8q-.55-.15-1.11-.33M46.51,57.77c-.13.56-.22,1.08-.28,1.47s-.09.75-.09.75c-.77.42-.32,2.79.78,5.27l.11.18a8.47,8.47,0,0,0-.7-2.3,8.73,8.73,0,0,0,.5-1.75,4.57,4.57,0,0,0,0-1.84c-.3-.61-.48-1-.48-1a2.13,2.13,0,0,1,.48,1c.18.34.39.76.63,1.24a29.4,29.4,0,0,1-1-3"/><path class="v" d="M69,70.18l-.19,0c-.57.07-1,.15-1,.15A11.13,11.13,0,0,1,65,71.83a7.85,7.85,0,0,1-1.35.34q.55.18,1.11.33c1.17.33,2.33.59,3.48.8A7,7,0,0,0,69,70.18M56.28,49c-.29,4-.12,8-.54,8.56a14.69,14.69,0,0,0,.11,2.14c.12-1,.24-2.19.42-3.35.38-2.73.87-5.39.87-5.39a13.7,13.7,0,0,0-.86-2"/><path class="w" d="M55.38,47.94a3.42,3.42,0,0,0-1.79.94,16.72,16.72,0,0,0-2.1,2.21c.19.87-.65,1.67-1.53,2.29l-.13.08a12.72,12.72,0,0,1-1.58.89l-.12.06a3.08,3.08,0,0,0-.27.25,7.65,7.65,0,0,0-1.3,2.89c0,.08,0,.15-.05.22a29.4,29.4,0,0,0,1,3l.16.31c.42.75.87,1.63,1.41,2.56s1.1,1.93,1.77,2.91c2.49,4,5.73,7.58,5.46,9.18A5.7,5.7,0,0,0,56.91,77c.11.18.24.38.39.58.68.61,1.45,1.31,2.13,1.89l.12.11a10.46,10.46,0,0,0,2.93-.66,24.79,24.79,0,0,0,2.89-1.58l.17-.11a18.6,18.6,0,0,0,2-2.67,11.16,11.16,0,0,0,.57-1,10.32,10.32,0,0,1-3.55-.77,11.68,11.68,0,0,1-1.18-.57,6.15,6.15,0,0,1-.85,0,6.34,6.34,0,0,1-2.6-.53,6.88,6.88,0,0,1-1.37-.79,7.8,7.8,0,0,1-1.88-2.06,9.7,9.7,0,0,1-1.46-4.44,8.64,8.64,0,0,1,0-2,6.55,6.55,0,0,0,.6-2.69,14.69,14.69,0,0,1-.11-2.14C56.16,57,56,53,56.28,49l-.16-.32c-.11-.55-.38-.77-.74-.77"/><path class="x" d="M46.87,59.55a4.57,4.57,0,0,1,0,1.84,8.73,8.73,0,0,1-.5,1.75,8.47,8.47,0,0,1,.7,2.3l0,0c.68,1,1.6,2.43,2.62,3.8,2,2.77,4.39,5.21,3.92,6.58a3.57,3.57,0,0,0,.37,1c.07.13.16.28.26.43l1.57,1.3.69.55a6.42,6.42,0,0,0,2.54.49h.3a9.42,9.42,0,0,1-2-2c-.15-.2-.28-.4-.39-.58a5.7,5.7,0,0,1-.61-1.25c.27-1.6-3-5.18-5.46-9.18-.67-1-1.19-2-1.77-2.91s-1-1.81-1.41-2.56l-.16-.31c-.24-.48-.45-.9-.63-1.24m-.48-1s.18.35.48,1a2.13,2.13,0,0,0-.48-1"/><path class="y" d="M46,63.74l.42.67a1.16,1.16,0,0,0-.42-.67"/><path class="z" d="M72.32,68a3.45,3.45,0,0,0-.81.12,12.53,12.53,0,0,0-2.47,1l-.21.11a.14.14,0,0,1,0,.06,7.28,7.28,0,0,0,2.44.6h0l.32,0a2.87,2.87,0,0,1,1.24.35,4.32,4.32,0,0,0,.63.24c0-.12,0-.19,0-.19.3-1.74-.29-2.26-1.15-2.26"/><path class="y" d="M53.8,82.77a8.69,8.69,0,0,0,4.28,1.48l-.53-.41a2.7,2.7,0,0,0-.83-.43,13.39,13.39,0,0,0-2.92-.64m16.61-2.15a22,22,0,0,1-2.47.76A15.74,15.74,0,0,0,69.82,81l.59-.33m-10.86-1h-.21a10,10,0,0,0,1,.66l-.81-.68m8.67-6.28-.12.24h.35c.33,0,.65,0,1,0l-1.21-.2M46.39,64.41a2.67,2.67,0,0,1-.17,1.35,7,7,0,0,1-.61,1.33c.65,1,.62,3.11.63,5.1,0,1,0,1.94,0,2.65s0,1.16,0,1.16c-.59,1.65.39,3.43,1.56,4.52a8.51,8.51,0,0,0,2.39,1.64h.51a9.63,9.63,0,0,1,2.12.18,13.74,13.74,0,0,1-2.31-1.91,10.08,10.08,0,0,1-1.91-2.66,5.13,5.13,0,0,1-.48-3l-.06-.39c0-.25-.1-.61-.14-1.06-.11-.88-.25-2.08-.4-3.36-.16-1.52-.31-3.12-.57-4.47l-.11-.18c-.2-.33-.38-.62-.53-.85"/><path class="aa" d="M68.85,69.33l0,0a7,7,0,0,0,2.35.57h0l.32,0a3,3,0,0,1,1.24.35,5.48,5.48,0,0,0,.71.27v0a4.32,4.32,0,0,1-.63-.24,2.87,2.87,0,0,0-1.24-.35l-.32,0h0a7.28,7.28,0,0,1-2.44-.6"/><path class="ab" d="M68.87,69.37a2.1,2.1,0,0,1,.06.24,2.61,2.61,0,0,1,.08.57,7,7,0,0,1-.79,3.12l1.21.2a10.52,10.52,0,0,0,3.47-1l1,.07c-.06-.44-.12-.84-.18-1.18s-.13-.7-.17-.89a5.48,5.48,0,0,1-.71-.27,3,3,0,0,0-1.24-.35l-.32,0h0a7,7,0,0,1-2.35-.57"/><path class="ac" d="M72.9,72.53a10.52,10.52,0,0,1-3.47,1c-.33,0-.65,0-1,0H68.1a11.16,11.16,0,0,1-.57,1,18.6,18.6,0,0,1-2,2.67l-.33.35a16.25,16.25,0,0,1-2.73,1.34,10.46,10.46,0,0,1-2.93.66l.81.68a10.89,10.89,0,0,0,5.33,1.31,13.85,13.85,0,0,0,2.25-.19,22,22,0,0,0,2.47-.76l.16-.09c.84-.5,1.44-.9,1.73-1.1a12.13,12.13,0,0,0,1.39-1.91A10.73,10.73,0,0,0,74,74c0-.49-.07-1-.13-1.41l-1-.07"/><path class="ad" d="M73.69,77.52a12.13,12.13,0,0,1-1.39,1.91l.19-.13a3.48,3.48,0,0,0,1.2-1.78M47,65.44c.26,1.35.41,3,.57,4.47.15,1.28.29,2.48.4,3.36,0,.45.1.81.14,1.06l.06.39a5.13,5.13,0,0,0,.48,3,10.08,10.08,0,0,0,1.91,2.66,13.74,13.74,0,0,0,2.31,1.91h0a1.5,1.5,0,0,1,.65.26l.22.17a13.39,13.39,0,0,1,2.92.64,2.7,2.7,0,0,1,.83.43l.53.41a9.4,9.4,0,0,0,1.06,0h.4a18.81,18.81,0,0,0,6.23-1.41,35.26,35.26,0,0,0,4-1.93,15.74,15.74,0,0,1-1.88.43,13.85,13.85,0,0,1-2.25.19,10.89,10.89,0,0,1-5.33-1.31,10,10,0,0,1-1-.66H59a6.42,6.42,0,0,1-2.54-.49,5.37,5.37,0,0,1-.79-.43,5.14,5.14,0,0,1-1.47-1.42c-.1-.15-.19-.3-.26-.43a3.57,3.57,0,0,1-.37-1c.47-1.37-1.93-3.81-3.92-6.58-1-1.37-1.94-2.75-2.62-3.8l0,0"/><path class="e" d="M77.75,62.78a.58.58,0,0,0-.19,0c-.85.41-1.87,1.17-2.75,1.71l.46.34c.3.22.62.45,1,.68h0c.67,0,1.27.6,1.46,1.51a3.73,3.73,0,0,1-.28,2,1.4,1.4,0,0,1,.43-.26h0a.28.28,0,0,0,.28.16c.29,0,.79-.26,1.69-.43l.59-.13a6.38,6.38,0,0,0-.29-1,8.82,8.82,0,0,1-.8-3.11c-.08-.46-.23-1.16-.7-1.27s-.59-.26-.9-.26"/><path class="ae" d="M80.44,68.39l-.59.13c-.9.17-1.4.43-1.69.43a.28.28,0,0,1-.28-.16h0a1.4,1.4,0,0,0-.43.26c-.08.25-.17.5-.26.74s-.52.75-.69,1.12l-.06.15a8.72,8.72,0,0,1,1-.06h0c1.72,0,3.42.59,3.45,3.11l.13.26a.41.41,0,0,1,.12-.07h0c.12-.07.31-.69.42-.75.36.23.46,1.34.83,2.31.38,1.2,2.32,1.48,2.38,1.62-.12.73-.18,1.57-.32,2.32.85-1.33.62-2.4.83-3.63l-.24-.36c-.29-.49-1.12-1.36-1.71-2.19a12.62,12.62,0,0,1-1.12-1.79.54.54,0,0,0-.56-.33h-.14a.58.58,0,0,1-.49-.2A1,1,0,0,1,81.2,71,.41.41,0,0,0,81,71c-.07.1-.27.24-.34.34-.11-.1-.15-.3-.16-.65a6.85,6.85,0,0,0-.1-2.29"/><path class="af" d="M77.45,71a8.72,8.72,0,0,0-1,.06c-.49,1.35-.4,2.35-1.31,3.87a2.69,2.69,0,0,0-.28,2c0,.08.18.12.38.12a9.11,9.11,0,0,0,3.18-1,13.72,13.72,0,0,0,2.67-1.74l-.13-.26c0-2.52-1.73-3.09-3.45-3.11h0"/><path class="ae" d="M84.23,83h0m0-2.17a3.21,3.21,0,0,1-.25.49,3.1,3.1,0,0,0-.08.78,1.64,1.64,0,0,0,.29.91c-.48.22,1,.53,2,.53.51,0,.84-.09.57-.34a.83.83,0,0,0,.51.19,2.52,2.52,0,0,0,1.2-.55,2.53,2.53,0,0,1,1.34-.55h.08a2.44,2.44,0,0,1,1.08.39A2.26,2.26,0,0,0,92,83a1,1,0,0,0,.4-.09,4.19,4.19,0,0,1,1.15-.28.74.74,0,0,1,.74.49,4,4,0,0,0,.8,1.18c.8.35,1.82.3,2.23,1.2a11.61,11.61,0,0,1,.22,1.7c.06.33.19.55.48.55h.13l.13,0a.69.69,0,0,1,.19.1l.06,0a.57.57,0,0,0,.24.08A.3.3,0,0,0,99,87.9h0c-.06-.25,0-.66-.08-1-.14-.73-.7-1-.87-1.82a9,9,0,0,0-.91-2.16,3.3,3.3,0,0,0-1.1-.82A9.18,9.18,0,0,0,93.42,81a20.9,20.9,0,0,1-3.58,1,19.19,19.19,0,0,1-3.52.36A3.08,3.08,0,0,1,84.58,82a2.86,2.86,0,0,1-.34-1.23"/><path class="ag" d="M85.33,76.16c-.21,1.23,0,2.3-.83,3.63a5.61,5.61,0,0,1-.26,1A2.86,2.86,0,0,0,84.58,82a3.08,3.08,0,0,0,1.74.29A19.19,19.19,0,0,0,89.84,82a20.9,20.9,0,0,0,3.58-1,8.11,8.11,0,0,0-1.81-.24.92.92,0,0,1-.78.45c-.45,0-.92-.3-1.32-.33-.2,0-.38-.27-.61-.41a1.23,1.23,0,0,0-.27,0h-.29l-.27,0a.73.73,0,0,1-.72-.44c-.37-.79-.74-1.54-1.12-2.24s-.59-1.09-.9-1.59"/><path class="f" d="M54.75,89.15l-.55,0,.55,0h0m-6.58-3.06-.08,0a1.23,1.23,0,0,1-.39,0,1.23,1.23,0,0,0,.39,0l.08,0m0,0h0l1.38.85.06,0A5.2,5.2,0,0,1,51,88a.38.38,0,0,1,.06.13,3.51,3.51,0,0,0,1.31.74,5.89,5.89,0,0,0,1.8.27h0a5.89,5.89,0,0,1-1.8-.27A3.51,3.51,0,0,1,51,88.17h0A.38.38,0,0,0,51,88,5.2,5.2,0,0,0,49.63,87l-.06,0-1.38-.85h0M39.82,73.54h0s0,.29.07.74A13.85,13.85,0,0,0,40.13,76a14.21,14.21,0,0,0,.63,2.35,2.52,2.52,0,0,0,.4.75l.33,1.57,0,.06a11.2,11.2,0,0,0,.64,1,17.45,17.45,0,0,0,1.72,2.12l.2.2a7.91,7.91,0,0,0,2.93,2,2.54,2.54,0,0,0,.7.11h0a2.54,2.54,0,0,1-.7-.11,7.91,7.91,0,0,1-2.93-2l-.2-.2a17.45,17.45,0,0,1-1.72-2.12,11.2,11.2,0,0,1-.64-1l0-.06-.33-1.57a2.74,2.74,0,0,1-.41-.75A15.32,15.32,0,0,1,40.13,76a13.85,13.85,0,0,1-.24-1.71c0-.45-.07-.74-.07-.74M40,71.29a18.09,18.09,0,0,1-.11,1.87c0,.13,0,.25,0,.38h0c0-.13,0-.25,0-.38A18.09,18.09,0,0,0,40,71.29h0m-2.36-7.17a10.47,10.47,0,0,1,1.46,2.59,14.84,14.84,0,0,1,.5,1.51,8.55,8.55,0,0,1,.27,1.39c0,.16,0,.32.07.49A11.28,11.28,0,0,1,40,71.29h0a11.61,11.61,0,0,0-.06-1.2c0-.16,0-.32-.07-.48a8.55,8.55,0,0,0-.27-1.39,12.72,12.72,0,0,0-.5-1.51,10.47,10.47,0,0,0-1.46-2.59"/><path class="ah" d="M54.84,89.14h0"/><path class="ah" d="M56.55,88.78l-.46.14a9.17,9.17,0,0,1-1.25.22h0a9.17,9.17,0,0,0,1.25-.22l.46-.14"/><path class="ai" d="M95,80c-.21,0-.45.65-.68.69h0a5.53,5.53,0,0,0-.89.28A9.18,9.18,0,0,1,96,82.09a3.3,3.3,0,0,1,1.1.82A9,9,0,0,1,98,85.07c.17.78.73,1.09.87,1.82.1.35,0,.76.08,1h0c.13,0,.25.15.36.15a.13.13,0,0,0,.12-.09,1.93,1.93,0,0,0,.3-.95c0-.62,0-1.29,0-2a8.59,8.59,0,0,0-.22-1.25,4.54,4.54,0,0,1-2.59-1.37c-.7-1-1.1-2.16-1.89-2.46M82.27,69.79a.31.31,0,0,0-.13,0,1.8,1.8,0,0,0-.48.48,6.48,6.48,0,0,0-.46.72,1,1,0,0,0-.13.28.58.58,0,0,0,.49.2h.14a.54.54,0,0,1,.56.33,12.62,12.62,0,0,0,1.12,1.79c.59.83,1.42,1.7,1.71,2.19l.24.36a4.87,4.87,0,0,1,.13-.59,2.71,2.71,0,0,1,.45-.65c-.28-.42-.56-.84-.82-1.27-.32-.59-1.09-1.39-1.6-2.11A6.91,6.91,0,0,1,82.6,70c-.14-.17-.24-.23-.33-.23"/><path class="aj" d="M85.91,74.92a2.71,2.71,0,0,0-.45.65,4.87,4.87,0,0,0-.13.59c.31.5.61,1,.9,1.59S87,79.2,87.35,80a.73.73,0,0,0,.72.44l.27,0h.29a1.23,1.23,0,0,1,.27,0c.23.14.41.37.61.41.4,0,.87.33,1.32.33a.92.92,0,0,0,.78-.45,8.11,8.11,0,0,1,1.81.24,5.53,5.53,0,0,1,.89-.28h0c.23,0,.47-.65.68-.69.79.3,1.19,1.46,1.89,2.46a4.54,4.54,0,0,0,2.59,1.37,6.36,6.36,0,0,0-.19-.62,9.4,9.4,0,0,0-5.89-5.44.47.47,0,0,0-.16,0c-.4,0-.77.35-1.15.49a1.92,1.92,0,0,1-.88.17h-.66a1.67,1.67,0,0,0-1.41.59.23.23,0,0,1-.19.1.39.39,0,0,1-.25-.1c-1-1.43-1.94-2.74-2.81-4"/><path d="M38,30.7a17.89,17.89,0,0,1,1.6-1c1.86-.94,4-1.36,4.86-3.79.34-.92,2-1.46,3.11-2,4.55-2,9-.7,12.69,2.47,4.08,3.48,4.6,7.94,4.54,12.55-.08,7,3.38,12.23,8.31,16.42,3.76,3.18,8.7,4.53,13.45,5.76,8.82,2.29,14.8,7.67,18.52,15.85,1.46,3.23,3.33,6.28,4.74,9.53,1.29,3,2.24,6.06,3.27,9.13a5.37,5.37,0,0,1,0,2.44c-1.76-2.42-4-1.55-5.74-.82a18.35,18.35,0,0,1-2.74,2.49c-2.13,1.28-4.39,2.36-6.6,3.51a.52.52,0,0,1-.2.09c-4.5.54-4.83,4.88-6.92,7.61a4.9,4.9,0,0,0-1,2.19c-.31,2.47.65,3.78,3,4.55a21.23,21.23,0,0,1,2.32,1.09c-.08.24-.15.48-.23.72l-4.38-.79c-.38,1.42-.88,2.91-1.14,4.44s-.25,3-.36,4.45h-.7c-.12-2.49-.24-5-.37-7.7l-5.92,4.36-.57-.62,4.17-4.46,0-.48-5.17,1.1c1.73-3,4.41-2.52,6.9-2.39.28-3-.88-4.17-3.42-5a54.56,54.56,0,0,1-7.16-3.61l-4.07,2L74,115.54h5c-1.71,1.7-4.41.24-4.85,2.59a27.52,27.52,0,0,0-.07,5.22l-.57.14c-.44-1.28-.87-2.56-1.36-4l-4.07,3-.63-.74,3.78-4.11-6.14.45-.13-.9,7-1.33c-.56-2.29-.05-5.13-3.08-7.07a7.29,7.29,0,0,1-3-6.24c0-2.25-.66-3.73-3-4.47C56.68,96.25,53,91.65,49.71,86.44,46,80.58,45.22,74.12,44.8,67.52a96.16,96.16,0,0,1-.2-12.81c.22-3,1.38-6,2.11-8.92.5-2,1.11-4,1.44-6.08a2.48,2.48,0,0,0-.93-2c-1.87-1.3-3.72-2.49-3.87-5.11,0-.28-.68-.67-1.09-.77-1.26-.27-2.55-.42-3.83-.62ZM39.81,30c0,.19.1.39.16.58,1.34,0,2.68-.08,4,.05.43,0,1.18.66,1.14.93-.37,3.14,2.24,4.27,3.88,6.07a2.84,2.84,0,0,1,.9,1.88,59.26,59.26,0,0,1-1.37,5.86c-1.44,5.43-3.23,10.79-2.46,16.54a39,39,0,0,1,.43,4.32c.18,6.85,1,13.52,4.87,19.45,2.07,3.15,3.87,6.55,7.38,8.36,3.28,1.69,6.67,3.15,10,4.69a18.38,18.38,0,0,0-.88,3.14,14.45,14.45,0,0,0,.46,3.17c.5-.91.81-1.5,1.13-2.09l.64.08v4.54l1.62-3.65.31.1c-.25,1.34-.5,2.69-.78,4.22,1.92-.86,3.1-3.49,2.33-4.69-.53-.83-2.07-1.72-.67-2.62,1.63-1,1.71,1.06,2.26,1.82,2.39,3.34,4.57,6.73,9,7.83,3.67.91,4.38.82,6.26-2.45.44-.76,1-1.43,1.42-2.2a26,26,0,0,0,1.5-3.37c.43-1.27,1.36-1.61,2.53-1.86,2.39-.5,4.76-1.1,7.06-1.64a13.88,13.88,0,0,1-1-2.4c-.06-.24.43-.81.75-.88,2.3-.47,4.63-.85,7.55-1.37-1.17-1.87-2.23-3.08-2.75-4.49-1.6-4.34-2.59-8.94-4.55-13.09-2.77-5.86-7-10.61-13.4-12.83-3.46-1.19-6.89-2.51-10.39-3.6a22.87,22.87,0,0,1-12.19-9.15,13.32,13.32,0,0,1-2.4-4.47A71,71,0,0,1,62.82,35c-.19-4.77-3.36-7.36-6.69-9.41a7.94,7.94,0,0,0-9.5.8C44.61,28.07,43,30.31,39.81,30Z"/><path d="M102.74,85.58c-1-1.9-1.71-3.35-2.56-5C102.17,81.24,102.73,82.37,102.74,85.58Z"/><path d="M105.5,90.49,104,85.58l1-.24,1.22,5Z"/></svg>