<svg xmlns="http://www.w3.org/2000/svg" viewBox="0 0 150 150"><defs><style>.a{fill:#fdfac7;}.b{fill:#fdf8bd;}.c{fill:#fcf6aa;}.d{fill:#faf17e;}.e{fill:#faf179;}.f{fill:#faf287;}.g{fill:#f9f190;}.h{fill:#fbf5a0;}.i{fill:#fbf59e;}.j{fill:#fdfbd6;}.k{fill:#fbf59b;}.l{fill:#fbf490;}.m{fill:#fbf5a9;}.n{fill:#fffded;}</style></defs><title>icon</title><path class="a" d="M79.94,90.81h0a10.49,10.49,0,0,0-2.23,1.94h0a10.49,10.49,0,0,1,2.23-1.94m7.85-4.12c-.7.5-1.36,1-1.85,1.25l-.06,0h0l-1.08.65h0l-.6.19h0l.6-.19L85.88,88c.5-.29,1.18-.77,1.91-1.29h0"/><path class="b" d="M83.37,19.2c-.58,0-1.76.82-3.66,1.88a69.74,69.74,0,0,1-8.44,4l.76.31a22.68,22.68,0,0,1,2.18,1l.16-.07c.36-.14.8-.31,1.34-.48s1.08-.35,1.73-.51A26.48,26.48,0,0,1,84,24.53a22.89,22.89,0,0,1,3,.19A20.65,20.65,0,0,1,92.09,26q.63.24,1.23.54l.61.3.47.25a12.75,12.75,0,0,1,1.76,1.16,8.05,8.05,0,0,1,3.31,6.35c0,.17,0,.35,0,.52a23.33,23.33,0,0,1,1,3.43,24.06,24.06,0,0,1,.52,4.93,17.59,17.59,0,0,1-.1,2c-.49,4.82-2.6,9.09-6.41,9.32L89.6,55c-2.21.1-5,.21-7.95.62l.33.15.94.42,3.75,1.56.86.35,1.1.43.48.19.13,0,.09,0,4.86,1.87,4.18,1.52,1.51.55.61.22h0l0,0,.13.08.25.13.18.27a1.76,1.76,0,0,1,.21.75v.15h0v0h0v0h0v0h0c0,.1,0,.21,0,.32a7.22,7.22,0,0,1-.12.85c-.09.6-.24,1.2-.38,1.81a33.91,33.91,0,0,1-1.09,3.65c-.45,1.18-.93,2.33-1.4,3.37s-1,1.93-1.36,2.66-.75,1.33-1,1.7l-.38.6c-.91.79-1.83,1.59-2.71,2.23a8,8,0,0,1-1.66,2.12,31.13,31.13,0,0,1-2.79,2.38l-.63.46A6.23,6.23,0,0,0,88.08,89c2,2.53,5.92,3.32,8.49,5.4,3.21,4.34,5.14,6.21,6.35,7h0a6.61,6.61,0,0,1-1.91.29,3.1,3.1,0,0,1-.43,0c.64.92,1.06,2.37,1.73,3.22,1.47,1.54,3.69,1,5.73,1.44a8.38,8.38,0,0,1,2.3,2,1.79,1.79,0,0,0,1.5.76,6.4,6.4,0,0,0,2.38-.72l6.21-2.71-2.25-3-.39-.52a3,3,0,0,1-.74-2.25c0-.75.12-1.54.11-2.31a4.08,4.08,0,0,0-.28-1.64c-.94-2.49-4.46-3.5-4.45-5.82a2.49,2.49,0,0,1,0-.46c-.07.25-.15.36-.26.36-.39,0-1-1.53-1.56-3.1a14.36,14.36,0,0,1-.77-3.12c0-.19,0-.3.12-.3a.36.36,0,0,1,.21.13v0a3.33,3.33,0,0,1,1.29-1.48,7.4,7.4,0,0,1,1.4-.55H113a4.87,4.87,0,0,0,1.32.16c2.07,0,4.4-1,6.51-1.43a.22.22,0,0,0,0-.1c0-.62-1.13-4-1.13-6.74a6.31,6.31,0,0,1,.26-2c.7-1.83,1.57-3.66,1.57-5.4a4.64,4.64,0,0,0-.25-1.51c-.43-.43-1.69-.08-2.13-.51s-4.71-3.12-9.09-5.42-8.7-4.45-8.87-5.38v0c0-1.25.72-3.35,1.92-3.87,3.19-1.89,3.38-4.44,5.35-6.9.58-.6,1.68-.78,2.26-1.38a9.51,9.51,0,0,0,2.18-5,2.82,2.82,0,0,0-.21-1.06,13.71,13.71,0,0,0-6.09-8.34c-1.3-1.28-2.68-2.56-4.24-3.84l-1.46-1.16-.62-.2c-.56-.17-1.14-.33-1.7-.47-.31-.08-.53-.1-.9-.22l-1.07-.29a27.19,27.19,0,0,0-4.22-.72,22.82,22.82,0,0,0-3.14-.22c-1,0-1.85.07-2.52.1l-.82,0a5.27,5.27,0,0,1-2.41-.53l-.14,0"/><path class="c" d="M101.31,64.54h0c0,.1,0,.21,0,.32h0a7.22,7.22,0,0,1-.12.85h0c-.09.6-.24,1.2-.38,1.81h0a33.91,33.91,0,0,1-1.09,3.65c-.45,1.18-.93,2.33-1.4,3.37l0,0c-.48,1-1,1.89-1.34,2.61h0c-.41.77-.75,1.33-1,1.7h0l-.38.6h0c-.88.77-1.77,1.54-2.63,2.17l-.08.06a8,8,0,0,1-1.66,2.12h0a30.28,30.28,0,0,1-2.75,2.35l0,0h0l-.63.46h0l.63-.46a31.13,31.13,0,0,0,2.79-2.38,8,8,0,0,0,1.66-2.12c.88-.64,1.8-1.44,2.71-2.23l.38-.6c.24-.37.58-.93,1-1.7s.87-1.65,1.36-2.66,1-2.19,1.4-3.37a33.91,33.91,0,0,0,1.09-3.65c.14-.61.29-1.21.38-1.81a7.22,7.22,0,0,0,.12-.85c0-.11,0-.22,0-.32h0"/><path class="b" d="M75.89,27.37a21.45,21.45,0,0,1,1.85,1.32l1.08-.07a13,13,0,0,0-2.93-1.25"/><path class="b" d="M64.53,38.57a13,13,0,0,0-1.83,3.26A11.91,11.91,0,0,0,62,45.16c0,.3,0,.59,0,.88a15.9,15.9,0,0,0,.63,4.23c.2.73.42,1.42.63,2.09.12.39.23.78.33,1.19a21,21,0,0,0-.31-3.16,38.73,38.73,0,0,1-.46-4.1v-.56a14.72,14.72,0,0,1,.77-4.85,15.29,15.29,0,0,1,1-2.31"/><path class="b" d="M79,44.94l-.34.26a16.41,16.41,0,0,0-3.77,3.87,9.82,9.82,0,0,0-.5.88,14.65,14.65,0,0,1,4-4.22l.56-.79"/><path class="b" d="M74.12,51.42l.2.16-.06,0-.14-.11h0"/><path class="b" d="M74.12,51.42l.14.11-.14-.11"/><path class="b" d="M75.25,52.28h0l.15.1.1.07,0,0-.23-.15"/><path class="b" d="M75.48,52.43l0,0h0l-.07,0"/><path class="b" d="M76,52.77l.33.21.15.09h0l.39.22-.9-.54"/><path class="b" d="M76.35,53l.08.05,0,0,0,0h0L76.35,53"/><path class="b" d="M77.56,53.66l.21.12.19.1h0l-.4-.22"/><path class="b" d="M77.79,53.79l0,0h0l.08,0-.14-.08"/><path class="b" d="M82,55.83c.51.23,1,.47,1.6.7l2.77,1.15.28.11-3.75-1.56-.9-.4"/><path class="b" d="M79.56,56l-.38.08-.13.62c-.08.39-.2.94-.32,1.43v0a13.9,13.9,0,0,0,.56-1.31c.1-.28.19-.55.26-.79"/><path class="b" d="M87.58,58.16l.6.24.45.17-1-.41"/><path class="b" d="M89.33,58.84a5.83,5.83,0,0,1,1.82,1.55h0a2.83,2.83,0,0,1,.09.79,8,8,0,0,1,0,.88,25.21,25.21,0,0,1-1.08,5A21.71,21.71,0,0,1,88.93,70a15.57,15.57,0,0,1-1.66,2.53,9.1,9.1,0,0,1-2,1.84,7.92,7.92,0,0,1-1.19.62,6.85,6.85,0,0,1-1.28.32l-2.12,1.21L76,79c-3.4,1.83-6.73,3.63-7.38,5.6h-.09c-.13,0-.4,0-.75,0a12,12,0,0,0-1.81.25,3.6,3.6,0,0,0-2,1.08c0,.13,0,.25-.08.36-.14.58-.19.89-.19.89a2,2,0,0,1,0-.34,1.48,1.48,0,0,1,.3-.91c.11-.44.24-1,.43-1.62-.85,1.75-1.61,3.28-2.27,4.39a7.08,7.08,0,0,1-1.29,1.69,1.66,1.66,0,0,1-1,.44,1.76,1.76,0,0,1-.31,0l-2.69,2.45a20.4,20.4,0,0,1-4.28,3.23,14.73,14.73,0,0,1,1.58-.31A20.16,20.16,0,0,1,56.93,96a34.84,34.84,0,0,1,6.82.76c2.53.58,5.66,1.61,8.15,2.38,1.26.4,2.35.72,3.14.88a5.27,5.27,0,0,0,.88.12c.27,0,.44-.07.52-.28s0-.26,0-.42c0-.45,0-1,0-1.69a12.51,12.51,0,0,1,.19-2.3,6.61,6.61,0,0,1,1.1-2.65,6.56,6.56,0,0,0-1.08,1.74,6.77,6.77,0,0,0-.39,1.35,3.23,3.23,0,0,0,0,.6c0,.16,0,.32,0,.47a7.23,7.23,0,0,0,.09.73.88.88,0,0,0,.07.26h0a.88.88,0,0,1-.07-.26,7.23,7.23,0,0,1-.09-.73c0-.15,0-.31,0-.47h0a3.23,3.23,0,0,1,0-.6,6.77,6.77,0,0,1,.39-1.35,6.56,6.56,0,0,1,1.08-1.74,6.86,6.86,0,0,1,2.23-1.94,18,18,0,0,1,4.27-2c.58-.31,1.16-.62,1.74-1a21.22,21.22,0,0,0,1.83-1.2v0l.63-.46a31.13,31.13,0,0,0,2.79-2.38,8,8,0,0,0,1.66-2.12c.88-.64,1.8-1.44,2.71-2.23l.38-.6c.24-.37.58-.93,1-1.7s.87-1.65,1.36-2.66,1-2.19,1.4-3.37a33.91,33.91,0,0,0,1.09-3.65c.14-.61.29-1.21.38-1.81a7.22,7.22,0,0,0,.12-.85c0-.12,0-.22,0-.32v0h0v0h0v0h0v-.15a1.76,1.76,0,0,0-.21-.75l-.18-.27-.25-.13-.13-.08,0,0h0l-.61-.22-1.51-.55-4.18-1.52-4.86-1.87"/><path class="b" d="M84.2,88.82a18.09,18.09,0,0,0-4.26,2l.5-.26C81.69,90,83,89.46,84.2,88.82"/><path class="b" d="M51.62,96.71a17.78,17.78,0,0,0-3.51.72c-.15.7-.28,1.39-.39,2.09-.73,1.37-1.2,2.8-1.88,4.14a10,10,0,0,1-3.35,3.81c-3.75,2.53-7.68,5.36-13,7.56a1.14,1.14,0,0,1-.43.09,1.6,1.6,0,0,1-.95-.36,1.71,1.71,0,0,0,1.08.46,1.06,1.06,0,0,0,.42-.09c5.37-2.2,9.29-5,13-7.57A10.13,10.13,0,0,0,46,103.75c.69-1.34,1.14-2.76,1.87-4.13a6.36,6.36,0,0,1,3.8-2.91"/><path class="b" d="M97.54,100.43c0,.15.06.32.09.48l.14,0a3.19,3.19,0,0,0,.54,0h0a5.18,5.18,0,0,1-.8-.55"/><path class="d" d="M71.25,25.1l-2.18.79c-.74.26-1.55.57-2.33.87A30.49,30.49,0,0,0,62,29.14c-3.09,1.92-5.52,4.61-6.27,7a28.49,28.49,0,0,0-2.23,7.6,24.37,24.37,0,0,0-.19,2.91,11.22,11.22,0,0,0,.22,2.45,20.66,20.66,0,0,1,.27,3.55c0,1.09-.06,2.09-.09,2.85A15.15,15.15,0,0,1,52,62.46,12.56,12.56,0,0,1,47.51,67c-3.59,1.82-4.48,5.13-7.31,8.22a26.14,26.14,0,0,0-1.79,2.58c-.51.88-1,1.73-1.41,2.61-.86,1.74-1.65,3.51-2.68,5.54a25.69,25.69,0,0,0-5.08,12,3.45,3.45,0,0,0,.56,1.8,1.51,1.51,0,0,1,.2.89c0,.35,0,.72,0,1a2.12,2.12,0,0,0,0,.37h0c-.61,1.81-1.56,3.55-2.3,5.38a15.39,15.39,0,0,0-.82,2.77,8.94,8.94,0,0,0-.11,1.37A7.32,7.32,0,0,0,26.9,113a3.19,3.19,0,0,0,1.17,1.77,3.14,3.14,0,0,1-1-1.66,6.29,6.29,0,0,1-.15-1.42,9.6,9.6,0,0,1,.11-1.42,15.39,15.39,0,0,1,.82-2.77c.73-1.82,1.68-3.57,2.29-5.37a2.05,2.05,0,0,1,0-.37c0-.31,0-.66,0-1a1.49,1.49,0,0,0-.21-.91,3.38,3.38,0,0,1-.55-1.8h0a25.56,25.56,0,0,1,5-12c1-2,1.8-3.8,2.66-5.54a27.86,27.86,0,0,1,3.19-5.19c2.82-3.09,3.71-6.4,7.3-8.23a12.51,12.51,0,0,0,4.54-4.49,15.31,15.31,0,0,0,1.64-7c0-.75.1-1.78.1-2.87v-.06h0v-.1a22.41,22.41,0,0,0-.26-3.41,11.28,11.28,0,0,1-.24-2.57A24.2,24.2,0,0,1,53.49,44a26.15,26.15,0,0,1,.79-3.81c.1-.34.19-.66.29-1s.23-.65.34-1c.2-.6.47-1.22.68-1.76a10.65,10.65,0,0,1,2.15-3.68,19.31,19.31,0,0,1,3.95-3.37,46.42,46.42,0,0,1,9.25-4.17l.33-.13h0"/><path class="e" d="M71.27,25.11l-.33.13a46.42,46.42,0,0,0-9.25,4.17,19.31,19.31,0,0,0-3.95,3.37,10.65,10.65,0,0,0-2.15,3.68c-.21.54-.48,1.16-.68,1.76-.11.31-.23.63-.34,1s-.19.63-.29,1A26.15,26.15,0,0,0,53.49,44a24.2,24.2,0,0,0-.16,2.68,11.28,11.28,0,0,0,.24,2.57,22.41,22.41,0,0,1,.26,3.41v.16c0,1.09-.09,2.12-.1,2.87a15.31,15.31,0,0,1-1.64,7,12.51,12.51,0,0,1-4.54,4.49c-3.59,1.83-4.48,5.14-7.3,8.23a27.86,27.86,0,0,0-3.19,5.19c-.86,1.74-1.63,3.51-2.66,5.54a25.56,25.56,0,0,0-5,12,3.38,3.38,0,0,0,.55,1.8,1.49,1.49,0,0,1,.21.91c0,.34,0,.69,0,1a2.05,2.05,0,0,0,0,.37h0c-.61,1.8-1.56,3.55-2.29,5.37a15.39,15.39,0,0,0-.82,2.77,9.6,9.6,0,0,0-.11,1.42A6.29,6.29,0,0,0,27,113.1a3.14,3.14,0,0,0,1,1.66,1.6,1.6,0,0,0,.95.36,1.14,1.14,0,0,0,.43-.09c5.36-2.2,9.29-5,13-7.56a10,10,0,0,0,3.35-3.81c.68-1.34,1.15-2.77,1.88-4.14.11-.7.24-1.39.39-2.09l-.28.1c-1.91.68-3.87,2-3.88,3.84,0,.08,0,.16,0,.25h0l-1.44,1.55c-.43.45-.93,1-1.44,1.55l-1.62,1.71a9.92,9.92,0,0,1-3.09,2.42,1.52,1.52,0,0,1-.51.09c-.67,0-1.21-.54-1.44-2l-.26-.66c-.16-.42-.38-1-.57-1.66a20.55,20.55,0,0,1-.91-4h0L33,99.37c.2-.81.56-2,1-3.32a50.91,50.91,0,0,1,4.39-9.53,40.28,40.28,0,0,1,6.49-8.36C47,76.15,48.67,75,49.4,75h0s1.57-1.15,3.78-3.11a38.06,38.06,0,0,0,7.35-8.51,21.41,21.41,0,0,0,2.57-6.16,15.84,15.84,0,0,0,.4-3.21v-.16h0v-.29c-.1-.41-.21-.8-.33-1.19-.21-.67-.43-1.36-.63-2.09A15.9,15.9,0,0,1,62,46c0-.29,0-.58,0-.88a11.91,11.91,0,0,1,.72-3.33,13,13,0,0,1,1.83-3.26A21.21,21.21,0,0,1,67,34.89a43.38,43.38,0,0,1,5.1-5.05s.54-.19,1.53-.46c.47-.11,1-.24,1.71-.37s1.35-.21,2.15-.29l.27,0a21.45,21.45,0,0,0-1.85-1.32,17.52,17.52,0,0,0-2.65-.52h0s.36-.18,1-.43a22.68,22.68,0,0,0-2.18-1l-.76-.31"/><path class="f" d="M78.82,28.62l-1.08.07-.27,0c-.8.08-1.49.17-2.15.29s-1.24.26-1.71.37c-1,.27-1.53.46-1.53.46A43.38,43.38,0,0,0,67,34.89a21.21,21.21,0,0,0-2.45,3.68,15.29,15.29,0,0,0-1,2.31,14.72,14.72,0,0,0-.77,4.85v.56a38.73,38.73,0,0,0,.46,4.1,21,21,0,0,1,.31,3.16V54a15.84,15.84,0,0,1-.4,3.21,21.41,21.41,0,0,1-2.57,6.16,38.06,38.06,0,0,1-7.35,8.51C51,73.84,49.44,75,49.44,75h0c-.73,0-2.44,1.17-4.5,3.18a40.28,40.28,0,0,0-6.49,8.36A50.91,50.91,0,0,0,34,96.05c-.45,1.36-.81,2.51-1,3.32l-.33,1.28a20.55,20.55,0,0,0,.91,4c.19.66.41,1.24.57,1.66l.26.66c.23,1.41.77,2,1.44,2a1.52,1.52,0,0,0,.51-.09,9.92,9.92,0,0,0,3.09-2.42l1.62-1.71c.51-.56,1-1.1,1.44-1.55L44,101.62c0-.09,0-.17,0-.25,0-1.82,2-3.16,3.88-3.84l.28-.1a17.78,17.78,0,0,1,3.51-.72h.24a6.48,6.48,0,0,0,.64-.25,20.4,20.4,0,0,0,4.28-3.23l2.69-2.45a1.76,1.76,0,0,0,.31,0,1.66,1.66,0,0,0,1-.44,7.08,7.08,0,0,0,1.29-1.69c.66-1.11,1.42-2.64,2.27-4.39,0-.15.09-.3.14-.46a73.14,73.14,0,0,1,3.09-8.07c1.37-3.12,3-6.48,4.48-9.24s3-4.95,4.5-5.3a8.88,8.88,0,0,0,1.53-2c.2-.32.41-.69.62-1.1s.24-1,.32-1.43l.13-.62-.39.08a20,20,0,0,0-5.26,1.88l-.56.33c-.19.1-.27.28-.4.42a6.75,6.75,0,0,0-.61.93h0s.25-.51.38-.85a15.8,15.8,0,0,0,.56-1.51c0-.12.07-.23.11-.34.14-.48.26-1,.35-1.44a14.43,14.43,0,0,0,.27-1.88c0-.28,0-.55,0-.8s0-.56,0-.8V52c0-.2,0-.38-.07-.54s0-.15,0-.21-.06-.24-.09-.33h0v0a.75.75,0,0,0,0-.16.25.25,0,0,0,0-.07l0-.09h0l0,0,0,0,.08.11.1.12.09.09.17.18h0l.06.06a4.68,4.68,0,0,1,.18-.48,6,6,0,0,1,.36-.72,9.82,9.82,0,0,1,.5-.88,16.41,16.41,0,0,1,3.77-3.87l.34-.26c.22-.3.48-.68.78-1.12a26,26,0,0,0,2.56-4.65,10,10,0,0,0,.78-3.73,7.23,7.23,0,0,0-.49-2.64,7.85,7.85,0,0,0-2.68-3.44,12.37,12.37,0,0,0-1.1-.74"/><path class="g" d="M73.42,50.94h0q0,.14.09.33h0c0-.12-.06-.22-.08-.31v0h0"/><path class="f" d="M73.28,50.55h0v0h0s0,.09.06.16l-.08-.2h0"/><path class="f" d="M73.28,50.55a.94.94,0,0,1,.08.2h0l0,0,.07.23s0,.06,0,.1l0,.05v0a1.62,1.62,0,0,0,0,.19.68.68,0,0,0,0,.14c0,.11,0,.22,0,.33s0,.3,0,.47v-.19a1.83,1.83,0,0,1,0-.33,6.31,6.31,0,0,1,.15-.67l0,0-.07-.06-.27-.29,0,0v0l0,0,0,0a.5.5,0,0,1-.09-.13h0"/><path class="f" d="M73.28,50.55h0"/><path class="f" d="M73.3,50.58h0l.08.11,0,0,0,0,.12.13-.09-.09-.1-.12-.08-.11"/><path class="f" d="M73.36,50.75a.75.75,0,0,1,0,.16v0h0q0,.14.09.33v-.05l0-.1a3.32,3.32,0,0,0-.09-.33l0,0h0"/><path class="f" d="M73.72,51.06l.07.06,0,0h0l0,0"/><path class="f" d="M73.54,51.41v.14a.68.68,0,0,1,0-.14"/><path class="f" d="M73.61,51.89V52s0,0,0,.06v.1a.64.64,0,0,1,0,.09v.13h0c0-.17,0-.32,0-.46"/><path class="f" d="M75.17,52.22l.1.07h0l-.08-.06"/><path class="f" d="M75.42,52.39c.3.2.63.41,1,.64L76.35,53c-.31-.18-.58-.36-.83-.52l-.1-.07"/><path class="f" d="M75.52,52.46c.25.16.52.34.83.52L76,52.77c-.17-.1-.33-.2-.47-.3h0"/><path class="f" d="M76.48,53.06l0,0h0l0,0"/><polyline class="f" points="76.52 53.08 76.53 53.09 76.53 53.09 76.52 53.08"/><path class="f" d="M77.3,53.52l.35.2.12.06-.21-.12-.26-.14"/><path class="f" d="M77.68,53.73l.16.09,0,0-.11-.06"/><path class="f" d="M77.85,53.83l.29.15L78,53.9l-.06,0-.08,0"/><polyline class="f" points="77.96 53.88 77.96 53.88 77.96 53.88 77.96 53.88"/><path class="f" d="M78.19,54l.14.08h0L78.19,54"/><path class="f" d="M73.36,55.61c-.1.47-.21,1-.35,1.42.13-.46.25-.94.35-1.42"/><path class="h" d="M84,24.53a26.48,26.48,0,0,0-6.55.83c-.65.16-1.21.33-1.73.51s-1,.34-1.34.48l-.16.07c-.61.25-1,.43-1,.43a17.52,17.52,0,0,1,2.65.52,12.29,12.29,0,0,1,4,2A7.85,7.85,0,0,1,82.6,32.8a7.23,7.23,0,0,1,.49,2.64,10,10,0,0,1-.78,3.73,26,26,0,0,1-2.56,4.65c-.3.44-.56.82-.78,1.12l-.56.79a14.65,14.65,0,0,0-4,4.22,6,6,0,0,0-.36.72,4.68,4.68,0,0,0-.18.48l-.06-.06,0,0,.08.09.25.21.14.11a13,13,0,0,0,1.22.9l.07,0c.14.1.3.2.47.3l.9.54h0a3.76,3.76,0,0,0-.39-.22l1.12.63-.35-.2h0l.26.14.4.22h0c1.1.58,2.41,1.21,4,1.93l-.33-.15h0c2.9-.41,5.74-.52,7.95-.62l4.84-.18c3.81-.23,5.92-4.5,6.41-9.32a17.59,17.59,0,0,0,.1-2,24.06,24.06,0,0,0-.52-4.93,23.33,23.33,0,0,0-1-3.43h0c0-.17,0-.35,0-.52a8.05,8.05,0,0,0-3.31-6.35A12.75,12.75,0,0,0,94.4,27.1l-.47-.25-.61-.3q-.6-.3-1.23-.54A20.65,20.65,0,0,0,87,24.72a22.89,22.89,0,0,0-3-.19"/><path class="h" d="M73.27,50.53l0,0v0h0v0l0,0"/><polyline class="h" points="73.28 50.54 73.28 50.55 73.28 50.55 73.28 50.54"/><path class="h" d="M73.29,50.56a.5.5,0,0,0,.09.13l-.08-.11h0v0"/><path class="h" d="M73.29,50.58h0"/><path class="h" d="M73.3,50.59l0,.09a.25.25,0,0,1,0,.07h0c0-.07,0-.13-.06-.16"/><path class="h" d="M73.38,50.69l0,0,0,0,0,0"/><path class="h" d="M73.42,50.73v0l0,0,0,0"/><polyline class="h" points="73.36 50.75 73.36 50.75 73.36 50.75 73.36 50.75"/><path class="h" d="M73.36,50.75l0,0,0,0"/><path class="h" d="M73.45,50.77l.27.29L73.64,51l-.07-.08-.12-.13"/><path class="h" d="M73.38,50.79a3.32,3.32,0,0,1,.09.33s0-.07,0-.1l-.07-.23"/><path class="h" d="M73.57,50.9l.07.08.08.08,0,0-.17-.18"/><path class="h" d="M73.74,51.08h0"/><path class="h" d="M73.47,51.12l0,.1v0l0-.05"/><path class="h" d="M73.79,51.12l0,0h0a6.31,6.31,0,0,0-.15.67,1.83,1.83,0,0,0,0,.33v.22h0v0c0,.17,0,.35,0,.54h0c0,.17,0,.36,0,.55a14.3,14.3,0,0,1-.29,2.17c-.1.48-.22,1-.35,1.42-.07.24-.15.47-.23.7,0,0,0-.08,0-.13s0,.09,0,.13c.08-.22.16-.46.23-.69,0,.11-.07.22-.11.34a15.8,15.8,0,0,1-.56,1.51c-.13.34-.38.84-.38.85h0a6.75,6.75,0,0,1,.61-.93c.13-.14.21-.32.4-.42l.56-.33a20,20,0,0,1,5.26-1.88l.39-.08.38-.08h0c-.07.24-.16.51-.26.79a13.9,13.9,0,0,1-.56,1.31v0c-.21.41-.42.78-.62,1.1a8.88,8.88,0,0,1-1.53,2c-1.54.35-3,2.57-4.5,5.3S69,72.64,67.6,75.76a73.14,73.14,0,0,0-3.09,8.07c-.05.16-.09.31-.14.46-.19.64-.32,1.18-.43,1.62a3.6,3.6,0,0,1,2-1.08,12,12,0,0,1,1.81-.25c.35,0,.62,0,.75,0h.09c.65-2,4-3.77,7.38-5.6l4.64-2.48,2.12-1.21A6.85,6.85,0,0,0,84,74.94a7.92,7.92,0,0,0,1.19-.62,9.1,9.1,0,0,0,2-1.84A15.57,15.57,0,0,0,88.93,70a21.71,21.71,0,0,0,1.18-2.85,25.21,25.21,0,0,0,1.08-5,8,8,0,0,0,0-.88,2.83,2.83,0,0,0-.09-.79h0a5.83,5.83,0,0,0-1.82-1.55l-.63-.24-.07,0-.45-.17-.6-.24-.71-.28-.2-.09-.28-.11-2.77-1.15c-.56-.23-1.09-.47-1.6-.7-1.44-.65-2.64-1.22-3.66-1.74h0L78.19,54h0l.16.08L78,53.9l.15.08h0l-.29-.15h0l-.16-.09c-.42-.22-.8-.43-1.15-.64h0l0,0,0,0c-.38-.23-.71-.44-1-.64l-.15-.1-.1-.07h0l.08.06.23.15a13,13,0,0,1-1.22-.9l.06,0h0l-.2-.16h0l-.25-.21-.08-.09"/><path class="i" d="M88.63,58.57h0l.07,0,.63.24h0l-.63-.24h0l-.07,0h0m-2-.78h0l.2.09.71.28h0l-.71-.28h0l-.2-.09h0M73,57h0l-.18.57s0,.09,0,.13c.08-.23.16-.46.23-.7h0m5.35-2.94h0c1,.52,2.22,1.09,3.66,1.74h0c-1.44-.65-2.64-1.22-3.66-1.74h0m-1.83-1h0c.35.21.73.42,1.15.64h0c-.42-.22-.8-.43-1.15-.64h0m-2.87-.2h0c0,.17,0,.36,0,.55h0a14.3,14.3,0,0,1-.29,2.17h0a14.3,14.3,0,0,0,.29-2.17c0-.19,0-.38,0-.55h0m.6-1.36h0a13,13,0,0,0,1.22.9h0a13,13,0,0,1-1.22-.9m-.47-.41h0l.08.09.25.21h0l-.25-.21-.08-.09"/><path class="h" d="M73.5,51.22v.05l0,.14a1.62,1.62,0,0,1,0-.19"/><path class="h" d="M73.51,51.27c0,.06,0,.13,0,.21v-.07l0-.14"/><path class="h" d="M73.55,51.48c0,.16,0,.34.07.54,0,0,0,0,0-.06v-.07c0-.12,0-.24,0-.34v-.07"/><path class="h" d="M73.56,51.55c0,.11,0,.22,0,.33,0-.11,0-.22,0-.33"/><path class="h" d="M73.62,52v0"/><path class="h" d="M73.62,52.12c0,.24,0,.51,0,.8s0,.52,0,.8a14.43,14.43,0,0,1-.27,1.88,14.18,14.18,0,0,0,.29-2.16c0-.19,0-.38,0-.55s0-.37,0-.54h0v-.13a.64.64,0,0,0,0-.09"/><path class="h" d="M86.67,57.79l.2.09.66.26-.86-.35"/><path class="h" d="M88.63,58.57l.07,0,.63.24-.09,0-.13,0-.48-.19"/><path class="h" d="M63.94,85.91a1.48,1.48,0,0,0-.3.91,2,2,0,0,0,0,.34s0-.31.19-.89c0-.11,0-.23.08-.36m9.33-35.38h0"/><path class="j" d="M97,19c.56.36,1.21.78,1.69,1.12L100,21l1,.72,1.46,1.16c1.56,1.28,2.94,2.56,4.24,3.84a13.71,13.71,0,0,1,6.09,8.34,2.82,2.82,0,0,1,.21,1.06,9.51,9.51,0,0,1-2.18,5c-.58.6-1.68.78-2.26,1.38-2,2.46-2.16,5-5.35,6.9-1.2.52-1.92,2.62-1.92,3.87v0c.17.93,4.49,3,8.87,5.38s8.74,4.84,9.09,5.42,1.7.08,2.13.51a4.64,4.64,0,0,1,.25,1.51c0,1.74-.87,3.57-1.57,5.4a6.31,6.31,0,0,0-.26,2c0,2.77,1.13,6.12,1.13,6.74a.22.22,0,0,1,0,.1c-2.11.42-4.44,1.43-6.51,1.43a4.87,4.87,0,0,1-1.32-.16h-.08a7.4,7.4,0,0,0-1.4.55,3.33,3.33,0,0,0-1.29,1.48v0h0a.36.36,0,0,0-.21-.13c-.08,0-.12.11-.12.3a14.36,14.36,0,0,0,.77,3.12c.52,1.57,1.17,3.1,1.56,3.1.11,0,.19-.11.26-.36h0a2.49,2.49,0,0,0,0,.46c0,2.32,3.51,3.33,4.45,5.82a4.08,4.08,0,0,1,.28,1.64c0,.77-.11,1.56-.11,2.31a3,3,0,0,0,.74,2.25l.39.52,2.25,3-6.21,2.71a6.4,6.4,0,0,1-2.38.72,1.79,1.79,0,0,1-1.5-.76,8.38,8.38,0,0,0-2.3-2c-2-.41-4.26.1-5.73-1.44-.67-.85-1.09-2.3-1.73-3.22a1.65,1.65,0,0,0-1.32-.85,1.51,1.51,0,0,0-.5.09,1.23,1.23,0,0,1-.42.07h0a3.19,3.19,0,0,1-.54,0l-.14,0-.38,0a.63.63,0,0,0-.61.32c.39.44.61,1.29,1.15,1.87.94,1.31,2.39,1.62,3.29,3a24.44,24.44,0,0,0,3.18,3.81A7.5,7.5,0,0,0,107,111a22.82,22.82,0,0,0,7.5,1.4l10.14.11-2.56-11a25,25,0,0,0-.83-2.8c-2.23-.66-1.52-3-2-4.49a1.27,1.27,0,0,1,0-.2c0-.42.2-.91.25-1.46-.18-1-1-1.9-.94-2.85a1.86,1.86,0,0,1,.35-1.06,35.36,35.36,0,0,0,5.29-9,34.77,34.77,0,0,0,1.24-7.45c.13-1.58.19-3.16.19-4.48a17.93,17.93,0,0,0-.16-2.87c-.38-3.25-3-5.24-3.91-8.1h0s.2-.1.53-.1h.13c-.18-.29-.37-.59-.57-.88-.32-.07-1.08-.57-1.39-.63a3,3,0,0,1-.24-1.22,7,7,0,0,1,.11-1.13,12.49,12.49,0,0,0,.79-4.52,27.3,27.3,0,0,0-.82-5.9c-.41-1.76-.87-3.48-1.25-5.28a48.56,48.56,0,0,1-1-5.84,11.2,11.2,0,0,0-3.17-6c-1.6-1.23-3.4-3.38-5.33-4.23a30.94,30.94,0,0,0-5.93-1.29c-1-.13-2-.23-3.07-.32-.52-.05-1-.05-1.54-.13L97,19"/><path class="k" d="M101.31,64.26v0m-.21-.75a1.76,1.76,0,0,1,.21.75,1.76,1.76,0,0,0-.21-.75m-2.73-1.28,1.51.55-1.51-.55m-4.18-1.52,4.18,1.52-4.18-1.52M82.92,56.23l3.75,1.56.2.09-.2-.09-3.75-1.56M76.5,53.07h0c.35.21.73.42,1.15.64l.11.06.14.08.06,0,.37.19c1,.52,2.22,1.09,3.66,1.74l.9.4L82,55.81c-1.61-.72-2.92-1.35-4-1.93h0l-.19-.1-.12-.06-1.12-.63h0"/><path class="k" d="M73.27,50.53h0m0,0h0l.08.2h0a.75.75,0,0,1,0,.16.75.75,0,0,0,0-.16h0a.94.94,0,0,0-.08-.2h0"/><path class="k" d="M86.87,57.88l.71.28,1,.41.07,0-.07,0-1.1-.43-.66-.26"/><path class="i" d="M88.63,58.57l.07,0h0l.63.24h0l-.63-.24-.07,0h0"/><path class="k" d="M88.7,58.6l.63.24,4.86,1.87-4.86-1.87-.63-.24"/><path class="l" d="M73.42,50.94h0v0c0,.09,0,.19.08.31h0q0-.2-.09-.33h0"/><path class="k" d="M73.43,51c0,.09,0,.19.08.31l0,.14a.68.68,0,0,0,0,.14c0,.1,0,.22,0,.34s0,.29,0,.46,0,.35,0,.54h0c0-.19,0-.37,0-.54s0-.32,0-.47,0-.22,0-.33a.68.68,0,0,1,0-.14l0-.14c0-.12-.06-.22-.08-.31"/><path class="k" d="M73.65,53.44a14.18,14.18,0,0,1-.29,2.16c-.09.48-.21,1-.35,1.44l-.18.56L73,57c.14-.47.25-1,.35-1.42a14.3,14.3,0,0,0,.29-2.17m0-.55c0,.17,0,.36,0,.55,0-.19,0-.38,0-.55m0,0h0"/><path class="i" d="M73,57h0c-.07.23-.15.47-.23.69,0,0,0-.08,0-.13L73,57"/><path class="k" d="M101.31,64.42v0"/><path class="k" d="M101.31,64.51v0"/><path class="a" d="M87.79,86.69c-.73.52-1.41,1-1.91,1.29l-1.08.65-.59.19h0l.59-.19h0L85.88,88h0l.06,0c.49-.29,1.15-.75,1.85-1.25h0"/><path class="k" d="M84.8,88.63l-.59.19a18,18,0,0,0-4.27,2,10.49,10.49,0,0,0-2.23,1.94,6.56,6.56,0,0,0-1.08,1.74,6.56,6.56,0,0,1,1.08-1.74,10.49,10.49,0,0,1,2.23-1.94,18.09,18.09,0,0,1,4.26-2l.6-.19M85.88,88l-1.08.65L85.88,88"/><path class="m" d="M77.71,92.75h0a6.56,6.56,0,0,0-1.08,1.74,6.77,6.77,0,0,0-.39,1.35,3.23,3.23,0,0,0,0,.6h0a3.23,3.23,0,0,1,0-.6h0a6.77,6.77,0,0,1,.39-1.35h0a6.56,6.56,0,0,1,1.08-1.74h0m23.6-28.21c0,.1,0,.2,0,.32a7.22,7.22,0,0,1-.12.85c-.09.6-.24,1.2-.38,1.81a33.91,33.91,0,0,1-1.09,3.65c-.45,1.18-.93,2.33-1.4,3.37s-1,1.93-1.36,2.66-.75,1.33-1,1.7l-.38.6c-.91.79-1.83,1.59-2.71,2.23a8,8,0,0,1-1.66,2.12,31.13,31.13,0,0,1-2.79,2.38l-.63.46h0l.63-.46h0l0,0a30.28,30.28,0,0,0,2.75-2.35h0a8,8,0,0,0,1.66-2.12l.08-.06c.86-.63,1.75-1.4,2.63-2.17h0l.38-.6h0c.24-.37.58-.93,1-1.7h0c.39-.72.86-1.62,1.34-2.61l0,0c.47-1,1-2.19,1.4-3.37a33.91,33.91,0,0,0,1.09-3.65h0c.14-.61.29-1.21.38-1.81h0a7.22,7.22,0,0,0,.12-.85h0c0-.12,0-.22,0-.32h0"/><path class="k" d="M76.24,95.84a3.23,3.23,0,0,0,0,.6h0a3.23,3.23,0,0,1,0-.6m12.18-9.61-.63.46c-.7.5-1.36,1-1.85,1.25.49-.29,1.15-.75,1.85-1.25l.63-.46m2.79-2.38a30.28,30.28,0,0,1-2.75,2.35,30.28,30.28,0,0,0,2.75-2.35m4.37-4.35c-.88.77-1.77,1.54-2.63,2.17.86-.63,1.75-1.4,2.63-2.17m.38-.6-.38.6.38-.6m1-1.7c-.41.77-.75,1.33-1,1.7.24-.37.58-.93,1-1.7m1.34-2.61c-.48,1-1,1.89-1.34,2.61.39-.72.86-1.62,1.34-2.61m2.89-8.88c-.09.6-.24,1.2-.38,1.81.14-.61.29-1.21.38-1.81m.13-1.17c0,.1,0,.2,0,.32,0-.11,0-.22,0-.32m0,0h0"/><path class="k" d="M76.29,97.64a.88.88,0,0,0,.07.26.88.88,0,0,1-.07-.26m-.09-.73a7.23,7.23,0,0,0,.09.73,7.23,7.23,0,0,1-.09-.73m0-.47h0"/><path class="n" d="M122.06,56.66c-.33,0-.53.05-.53.1h0c.95,2.86,3.53,4.85,3.91,8.1a17.93,17.93,0,0,1,.16,2.87c0,1.32-.06,2.9-.19,4.48a34.77,34.77,0,0,1-1.24,7.45,35.36,35.36,0,0,1-5.29,9,1.86,1.86,0,0,0-.35,1.06c0,1,.76,1.81.94,2.85h0c0,.55-.25,1-.25,1.46a1.27,1.27,0,0,0,0,.2c.45,1.48-.26,3.83,2,4.49a25,25,0,0,1,.83,2.8l2.56,11-10.14-.11A22.82,22.82,0,0,1,107,111a7.5,7.5,0,0,1-2.7-1.15,24.44,24.44,0,0,1-3.18-3.81c-.9-1.38-2.35-1.69-3.29-3-.54-.58-.76-1.43-1.15-1.87H96.5a1.57,1.57,0,0,1-.37,0,2.67,2.67,0,0,0-.35,0c-.15,0-.26.06-.28.27a1.41,1.41,0,0,0-.07.45,7,7,0,0,0,.38,1.58c1.19,2.39,2.23,5,3.82,7,3.8,4.52,9,7.78,14.75,8.29h.15a1.55,1.55,0,0,0,.31,0l20.37-3.77L128,99.72c-.35-.73-1.25-1.18-1.79-1.8-1.64-1.6-1.06-4.52-3.8-5.78a.7.7,0,0,1-.41-.71,1.75,1.75,0,0,1,0-.32,102.59,102.59,0,0,0,6-13.31,26,26,0,0,0,1.06-7.51c0-.64,0-1.27,0-1.87a44.48,44.48,0,0,0-.23-4.87c-1-3.71-2.88-5.49-4.48-6.29a5.64,5.64,0,0,0-2.37-.6"/><path d="M84.73,35.21c-1,.08-1.76.23-1,1.68l-1.89,1.48c2,1.29,3.8,2.58,5.71,3.75,3.56,2.19,5.74,5.75,8.62,8.61a81.19,81.19,0,0,1,16.85,25A62.82,62.82,0,0,1,118,93.57c.62,5.06,1.48,10.09,2.17,15.14a2.29,2.29,0,0,1-.75,1.77C118.18,86,110.46,64.58,92,47.86c2.09,2.51,4.33,4.9,6.22,7.54a54,54,0,0,1,5.63,9.11,118.48,118.48,0,0,1,6,16c1.43,5.13,2,10.5,2.9,15.77.87,5,2.2,9.89,1.8,15a50.17,50.17,0,0,1-.88,5.14l-.45-.08c.2-1.67.5-3.34.58-5,.28-5.74-1.31-11.21-2.5-16.75-.62-2.91-.81-5.9-1.31-8.83a82,82,0,0,0-8.57-24.24c-2.53-4.84-6.27-8.66-9.71-12.75-.74-.87-1-2.17-1.47-3.25a2.84,2.84,0,0,0-.86-1.15c-2.44-1.67-5-3.23-7.38-4.92-1.85-1.29-2,1.16-3.34,1.12,2.69,2,5.23,3.9,6.31,7.12l-2.61-3-.36.18a8.59,8.59,0,0,0,.55,1.36C87.67,54.75,91.16,64,94,73.58c1.69,5.78,3.91,11.41,5.48,17.21,1.79,6.63,3.35,13.33,4.57,20.08.56,3.14.09,6.45-.27,9.75a6.82,6.82,0,0,1-.29-1.64c.55-9.47-2-18.38-4.77-27.26-2.62-8.4-5.2-16.83-7.94-25.19a89,89,0,0,0-8.9-19.48,9.11,9.11,0,0,1-1.13-3.29C79,42.15,77.1,40.55,74.8,42.57c1.57,2.34,3.48,4.57,4.73,7.13,3.27,6.71,6.59,13.44,9.21,20.41,1.61,4.31,2,9.1,2.88,13.67,0,.28-.06.59-.47.94-.4-2.12-.82-4.24-1.2-6.37a50.17,50.17,0,0,0-5.17-15.09c-2.59-4.81-5.11-9.67-7.7-14.48-.38-.71-1.08-1.24-1.51-1.93a1.77,1.77,0,0,1,0-1.36C74.11,43,73,42.63,70.72,43.8q2.37,5.66,4.73,11.32l-.6.25Q72.93,51,71,46.68c-1.31-3-1.57-3-4.87-2.45a19.33,19.33,0,0,1-10-1.34A2.28,2.28,0,0,1,55,41.58a30.7,30.7,0,0,0,11.43,1.71,22.6,22.6,0,0,0,11.21-3.38,69.59,69.59,0,0,1-8.48,1.62,65.25,65.25,0,0,1-9-.31C58,41.08,57.9,39,56.9,37.75c-2.69-3.24-5.19-6.65-7.74-10a20.3,20.3,0,0,1-1.16-2l.37-.34a3.51,3.51,0,0,1,.91.6c3,4.06,6.06,8.11,9,12.24a5.53,5.53,0,0,0,4.81,2.42L53.57,25l.65-.55a7,7,0,0,1,1.13,1.18c2.81,4.71,5.54,9.47,8.4,14.15a2.67,2.67,0,0,0,2,.89c2.75-.12,5.49-.42,8.28-.66-.74-6.15-1.45-11.95-2.11-17.75,0-.44.28-.92.44-1.38.28.4.76.79.8,1.22.47,5.17.87,10.34,1.31,15.52a14.8,14.8,0,0,0,.45,2c1.66-.86,3.81-.37,4.53-2.68l-1.14.72v-16l.58,0v14.6h.7c.83-5.18,2.61-10.27,1.1-15.67l.63-.32c.46.7,1.39,1.46,1.3,2.08C81.93,27.23,81,32.09,80.17,37a4.56,4.56,0,0,0,0,.74l.47.32a7.6,7.6,0,0,0,1.15-1.74c1.62-5,3.18-10,4.75-15.07l.69,0a5.87,5.87,0,0,1,0,1.83C86,26.53,84.77,30,83.56,33.4c-.14.41-.26.82-.38,1.23l.45.19c1.93-4,3.87-8,6-12.28.08.64.36,1.26.18,1.66-1.29,2.8-2.68,5.56-4,8.33-.33.67-.69,1.33-1,2C84.72,34.75,84.72,35,84.73,35.21Z"/><path d="M66.68,44.65c.53.38,1.33.64,1.56,1.15.94,2.12,1.63,4.34,2.56,6.46,1.79,4.08,3.67,8.12,5.54,12.16,4.37,9.49,6.9,19.54,9.18,29.67.84,3.75,1.58,7.52,2.38,11.28a3.75,3.75,0,0,0,.64,1.45A165.43,165.43,0,0,0,73.57,47c.4.29,1,.51,1.15.9,2.5,6.22,5.23,12.37,7.33,18.72a137.25,137.25,0,0,1,6.5,27.56c.69,6,1,12.1,1.55,18.15.29,3.28.67,6.55,1,9.82a4.36,4.36,0,0,1-.26,1.25l-.68,0c-.2-1.71-.29-3.44-.62-5.13-1-5.37-2-10.76-3.29-16.1-1.92-8.25-3.78-16.54-6.12-24.68a125.5,125.5,0,0,0-9.42-22.62c-1.07-2.08-1.5-4.49-2.37-6.69a21,21,0,0,0-1.83-3Z"/><path d="M33.87,120.68c-1.26.28-1.61.15-2-1.3-1-3.44-2.06-6.88-2.77-10.38a55.1,55.1,0,0,1-.27-18.3A109.31,109.31,0,0,1,31,77.29,63.09,63.09,0,0,1,42.28,55.23c3-3.92,5.79-8.34,10.52-10.68a4.2,4.2,0,0,1,1.25-.17c-.16.42-.19,1-.5,1.23-6.86,4.3-11.11,10.94-15,17.65-4.38,7.49-7.43,15.56-8,24.39-.22,3.35-1,6.67-1.06,10a63.16,63.16,0,0,0,3.06,21A8.5,8.5,0,0,0,33.87,120.68Z"/><path d="M83.63,43.19a9.47,9.47,0,0,1,1.37.94c3.4,3.31,5.7,7.35,7.78,11.55C95.8,61.81,99,67.84,102,74c3.31,7,4.58,14.66,5.66,22.29.86,6.11,1.54,12.24,2.26,18.37a25.85,25.85,0,0,1,0,2.92l-.56.22c-.36-.62-1-1.24-1-1.86a59.08,59.08,0,0,0-3.37-18.66l.63-.24a18.77,18.77,0,0,1,.85,2c.25.81.39,1.65.57,2.48l.5-.09-1.38-8.54c-1-5.91-2-11.8-4.51-17.28-2.28-5-4.75-9.94-7.21-14.87-1.32-2.64-2.82-5.19-4.16-7.82a26.88,26.88,0,0,0-6.47-8.55,3.6,3.6,0,0,1-.49-.75Z"/><path d="M57.73,45.93c-2.95,4.38-6,8.32-8.43,12.6-4.8,8.38-8.74,17.22-10.6,26.73A65.81,65.81,0,0,0,40,116a31.1,31.1,0,0,1,1.29,3.33c-.53-.6-1.33-1.1-1.54-1.79a71.7,71.7,0,0,1-2.59-9.79A70.42,70.42,0,0,1,36.35,96a67.37,67.37,0,0,1,4-20.62A114.4,114.4,0,0,1,48,58.63c2.26-4.23,5.48-7.94,8.33-11.84C56.58,46.38,57.22,46.22,57.73,45.93Z"/><path d="M65.7,49.28c.45.49,1.11.91,1.34,1.49A123,123,0,0,1,74,75.2c1.27,7.46,2.6,14.93,3.31,22.46s.66,15.2.94,22.81a6,6,0,0,1-.46,1.12,9.18,9.18,0,0,1-.68-2.12c-.07-2.73,0-5.47-.08-8.2a231.31,231.31,0,0,0-2.47-26,160.36,160.36,0,0,0-5.52-25.4c-1-3.22-2.43-6.32-3.65-9.48a3.51,3.51,0,0,1-.11-.87Z"/><path d="M86.12,38.56a26.23,26.23,0,0,1,4,2.3c2.61,2.15,5.15,4.4,7.55,6.78,4.48,4.46,9.14,8.79,13.17,13.63a49.82,49.82,0,0,1,10.8,24.79c.88,5.79,1.35,11.65,1.93,17.49a5.68,5.68,0,0,1-.57,2.59Q121.88,99,120.81,91.9l.71.42c-1.41-17.14-9-31-22.13-41.9l-.34.76c-3.62-4.88-7.5-9.43-13.41-11.78Z"/><path d="M63.46,50.84c.21.34.6.69.61,1,.26,6.25.39,12.51.72,18.75.31,6,.82,11.89,1.25,17.83.37,5,1.06,10.06,1.07,15.1,0,7.6-.41,15.21-.72,22.81a7.87,7.87,0,0,1-1.06,3.42c0-.45,0-.9,0-1.35,0-4.18,0-8.35.07-12.52s.68-8.36.55-12.51c-.19-6.06-.86-12.1-1.28-18.15q-.48-7-.84-14C63.51,64.86,63.26,58.4,63,52a5.9,5.9,0,0,1,.11-.93Z"/><path d="M78.15,44.64c.68.85,1.4,1.67,2,2.54C84.41,53,86.75,59.61,89.1,66.25c2.57,7.29,5.33,14.54,6.43,22.25q1.39,9.75,2.55,19.53c.38,3.2.55,6.42.75,9.64,0,.43-.33.87-.51,1.31a4,4,0,0,1-.6-1.2c-.41-4.82-.63-9.66-1.18-14.46C95.43,93.75,94.37,84.17,91,75c-1.88-5.19-3.27-10.58-5.46-15.63-2-4.53-4.72-8.71-7.13-13-.26-.46-.56-.9-.84-1.34Z"/><path d="M59.65,49.41a5.28,5.28,0,0,1,.13,2c-1.59,4.28-3.46,8.48-4.86,12.82C53.45,68.7,52.27,73.33,51.21,78a51.28,51.28,0,0,0-.55,18.85,36.08,36.08,0,0,1,.12,3.61c.21,4.93.44,9.85.64,14.77,0,.22-.15.44-.59.67-.27-2-.68-4-.79-5.94-.33-5.82-.35-11.65-.84-17.46-.85-10.22,1.34-19.88,4.88-29.34,1.44-3.88,2.91-7.74,4.35-11.61.23-.64.38-1.31.56-2Z"/><path d="M45.77,97.13c.27.57.83,1.18.74,1.69-1.08,6.86.63,13.42,2.16,20,.6,2.57,1.54,5.07,2.42,7.86-.63-.83-1.53-1.54-1.77-2.43-1.26-4.61-2.62-9.22-3.41-13.92-.71-4.24-.73-8.59-1-12.89Z"/><path d="M59.55,126.69c-2.2-2.18-3.84-21.13-2-30,.15.48.51,1,.41,1.44-1.28,5.32-.72,10.63,0,16C58.52,118.26,59,122.49,59.55,126.69Z"/><path d="M69.8,98.69c2.41,2.33,4.91,23.82,3.37,29.22C74,117.94,71.48,108.38,69.8,98.69Z"/><path d="M95.58,124.9a8.29,8.29,0,0,1-.51-2.29c.56-8.45-1.24-16.63-2.87-24.83,0,0,.2-.12.43-.27C95.43,106.46,96,115.61,95.58,124.9Z"/><path d="M82.5,122.37a62.46,62.46,0,0,0-2.16-24.48A40.31,40.31,0,0,1,82.5,122.37Z"/><path d="M60.26,23.62c.38.25.94.42,1.11.78C63.69,29.46,66,34.55,68,39.76a110.15,110.15,0,0,1-8.11-15.67Z"/><path d="M84.73,35.21c0-.23,0-.46,0-.69,3-3.25,6-6.5,7.66-11,0,.9.37,2.08-.06,2.67-2.23,3.09-4.66,6-7,9C85.2,35.3,84.91,35.22,84.73,35.21Z"/><path d="M69.32,22.62c.8,4.93,1.57,9.69,2.33,14.44C69.85,35,68.19,23.46,69.32,22.62Z"/><path d="M75.57,20.06c.53.61,1.07,1,1.07,1.27-.09,4.77-.26,9.54-.4,14.3l-.67,0Z"/></svg>