<svg xmlns="http://www.w3.org/2000/svg" viewBox="0 0 150 150"><defs><style>.a{fill:#d9cdc5;}.b{fill:#d1c3ba;}.c{fill:#c4b4a7;}.d{fill:#a38b7a;}.e{fill:#9f8674;}.f{fill:#a99483;}.g{fill:#beac9e;}.h{fill:#e0d9d2;}.i{fill:#b9a698;}.j{fill:#c4b3a6;}.k{fill:#f3f1ed;}</style></defs><title>icon</title><path class="a" d="M90.1,121h0c-1.67,1.35-3.5,2.71-5.38,3.94h0c1.88-1.23,3.71-2.59,5.38-3.94h0m9.94-8.18h0l-.65.47h0l.65-.47m6.53-7.52h0a24.93,24.93,0,0,1-2.73,3.59l0,0,0,0c-.41.46-.82.89-1.2,1.29h0l-1.19,1.23h0l-1.26,1.27h0l-.07,0,.07,0,1.26-1.27,1.19-1.23c.39-.41.82-.86,1.24-1.33a24.75,24.75,0,0,0,2.77-3.64m2.73-4h0c-.12.33-.19.51-.19.52h0l-.07.08h0l.07-.08.19-.52h0m1.36-5.58h0v.08c-.1.76-.22,1.48-.38,2.17h0q.24-1.07.39-2.25h0m-1.89-7.23h0A3.64,3.64,0,0,1,110,89.92h0a3.64,3.64,0,0,0-1.27-1.42M108.25,86h0l0,.11c.07.6.17,1.18.25,1.61s.1.63.12.72h0c0-.09-.06-.35-.12-.72s-.18-1-.25-1.61l0-.11m.25-2.9a1.6,1.6,0,0,1,0,.4.46.46,0,0,0-.15.16h0a.46.46,0,0,1,.15-.16,1.6,1.6,0,0,0,0-.4h0M104,77.23h0a10,10,0,0,1,4.15,4.19,4.14,4.14,0,0,1,.38,1.49v.14h0v-.14a4.14,4.14,0,0,0-.38-1.49A10,10,0,0,0,104,77.23"/><path class="b" d="M64.75,26a5.3,5.3,0,0,0-4.14,2.71C59,31,57.7,33.4,56.42,35a5.29,5.29,0,0,1-2.19,1.84c.7.66,1.42,1.91,2,2.56a2,2,0,0,0,1.43.58,5.16,5.16,0,0,0,.78-.08,5.42,5.42,0,0,1,.8-.08,2.38,2.38,0,0,1,.46,0,4.85,4.85,0,0,1,1.34,1.91c.23.58.47.78.73.78.42,0,.87-.5,1.38-.78a.71.71,0,0,1,.47-.2c.32,0,.61.29.87.62.37.51.65,1.11,1.07,1.16a.58.58,0,0,0,.19,0,7.27,7.27,0,0,0,1.93-.78,2.39,2.39,0,0,1,.9-.23c.38,0,.65.19.66.71v0c0-.31.14-.44.33-.44a2,2,0,0,1,1.2.94,2.38,2.38,0,0,1,.47,1.27c0,.24-.08.39-.24.39h-.08a4.66,4.66,0,0,1-1.36,1.19c-.45.26-1.15.7-1.37.78A16.54,16.54,0,0,0,65.3,49l0,0,.06,0h0l-.08,0,0,0-.06,0,0,0h0l-.14.12-.14.11-.17.15-.07.07-.16.16-.13.14h0l0,0-.15.17,0,0-.15.19,0,0-.17.21-.06.09h0l0-.06,0,0a10,10,0,0,0-.59.9l0,.06,0,.11h0l0-.06,0-.06c.09-.16.17-.33.25-.5a10.23,10.23,0,0,0,.52-1.29h0l-.1,0H63.7c-.47.84-.58.95-.72.95l-.13,0c-.1,0-.2.06-.33.4s-.28,1.15-.4,1.15,0,0,0,0c-.25-.31-.61-.89-1.15-1.64l-.5.1-.12,0h-.05l-.09,0h0l-.54.1h0L59,51l-.35.06-.32,0-.27.05-.36,0h0l-.17,0-1.14.14h-.1l-.09,0H56.1l-.62.07h0l-.38,0-.91.08-.09,0,1,0a3,3,0,0,1,.65,0,11,11,0,0,1,1.65.71A14.68,14.68,0,0,1,60.75,55c2.14,2.37,4.18,4.78,4.18,5.54a.32.32,0,0,1-.06.18,6.4,6.4,0,0,1-3.28,1,3.83,3.83,0,0,1-.6,0,14.78,14.78,0,0,0-1.69-.1c-2.59,0-4.2.71-6.76.88h-.07a7.85,7.85,0,0,1-1.24-.14A7.08,7.08,0,0,0,50,62.2h-.06c-2.24.18-4.85.65-5.37,1.33a3.5,3.5,0,0,0-1.61,2.62,2.1,2.1,0,0,0,.3,1.08h0L43,69.5a16.85,16.85,0,0,0,2.79,2.15c1.5,1,2.66,1.37,2.65,1.71a.24.24,0,0,1-.09.16h0c0,.2,4.59,1,7,2.46.08,0,.58-.13,1.44-.38-.3-.15-.75-.39-1.26-.69a16.7,16.7,0,0,1-3-2.18A3.86,3.86,0,0,1,51,70.22c0-1,.88-1.9,3.25-2.53,0,0,7.52-5.59,13.66-5.59a7.63,7.63,0,0,1,3.24.65A125.57,125.57,0,0,1,83.66,69.6a52.09,52.09,0,0,1,8.79,6.65c2.41,2.46,4.07,5.27,4.09,8.25v.07a0,0,0,0,0,0,0,2,2,0,0,0,.38,1,17.83,17.83,0,0,0,3,3.43,11.12,11.12,0,0,1,.6,3.65c0,.26,0,.52,0,.79a8.3,8.3,0,0,1-1.15,3.77,5.75,5.75,0,0,1-3.47,2.6L90.3,104c-1.5,1.15-3.26,2.68-5.13,4.37s-3.89,3.51-5.5,5.2l-1.4.25c-.87.16-2.07.37-3.31.57s-2.51.39-3.64.68l-.82.23-.58.35-1.42.79h0a5.26,5.26,0,0,1,2-1.14,31.18,31.18,0,0,0,2.7-1.78A24.66,24.66,0,0,1,70,115.13a23.91,23.91,0,0,1-5.17,1.56,12.72,12.72,0,0,1-2,.19c-1.22,0-1.81-.33-2-1a24.74,24.74,0,0,1-3.35-1.12,11.28,11.28,0,0,1-4.16-2.72,57,57,0,0,1,4.06,10.52c.7,2.52,1.38,5.76,2.27,8.3A11.63,11.63,0,0,0,61.14,134a2.17,2.17,0,0,0,1.73,1,3.29,3.29,0,0,0,.42,0,66.83,66.83,0,0,0,12.1-4.67A71.44,71.44,0,0,0,84.66,125l.06,0q-.45.3-.9.57a62,62,0,0,1-5.93,3.29h0c-3.52,1.71-6,2.68-7.47,3.4h0c-1.47.68-2.2,1.1-2.23,1.12h0s.76-.44,2.23-1.12h0c1.52-.72,4-1.69,7.47-3.4h0a62,62,0,0,0,5.93-3.29q.45-.27.9-.57c2.74-1.87,5.16-3.82,7.38-5.6,2.7-2.27,5-4.38,7.29-6,.75-.69,1.43-1.35,2.07-2,1-1,1.78-1.77,2.59-2.72a24.79,24.79,0,0,0,2.2-3l.32-.3a4.22,4.22,0,0,0,.58-1.36c.65-.7,1.28-1.39,1.89-2.08.49-2.28,1.28-4.51,1.67-6.57.05-.55.08-1.1.08-1.63h0a8.36,8.36,0,0,0-.75-3.79,6.63,6.63,0,0,0-1.27-1.42l-.13-.08v0l-.1-.08a13.13,13.13,0,0,1-.29-2.36,11.94,11.94,0,0,1-.11-1.38h0a2,2,0,0,1,.17-1c0-.13,0-.25,0-.37v-.06a4.69,4.69,0,0,0-1.82-3.9c-.83-.72-1.69-1.39-2.53-2l-.75-.44.75.44h0l-.75-.44.75.44c-1.34-1-2.66-2-3.82-3-1.9-1.56-3.37-3.16-3.88-4.82A7.19,7.19,0,0,1,95.8,67a6.13,6.13,0,0,1,.72-2.83c.22-.62,5-2.55,6.55-3.12,1.08-.41,1.49-1,1.49-1.54a1.54,1.54,0,0,0-.12-.58,4.63,4.63,0,0,0-.87-1.24c-.39-.45-.87-.88-1.35-1.34-3.86-2.77-6.26-6-8.89-10.48a4.17,4.17,0,0,1-.17-1.28c0-.78.13-1.62.12-2.53a6.51,6.51,0,0,0-.3-2,14.22,14.22,0,0,0-5.55-5.84,37.93,37.93,0,0,0-6.65-2.92,18.36,18.36,0,0,0-4.45-2,14.44,14.44,0,0,0-3.21-.59l-.81,0a7.46,7.46,0,0,0-2.69.43,2.94,2.94,0,0,0-1.3.95s0,0-.07,0c-1.08-.2-1-3-2.5-3.76a3.52,3.52,0,0,0-1-.15"/><path class="c" d="M68.19,133.36h0M84.72,125l-.79.51-.11.06h0a62,62,0,0,1-5.93,3.29h0a62,62,0,0,0,5.93-3.29q.45-.27.9-.57h0M110,89.92h0a8.36,8.36,0,0,1,.75,3.79h0a8.36,8.36,0,0,0-.75-3.79h0m-1.4-1.53h0v0l.13.08h0l-.13-.08v0h0m-.5-3.82h0a11.94,11.94,0,0,0,.11,1.38h0a11.94,11.94,0,0,1-.11-1.38m-4.92-7.78.75.44h0l-.75-.44"/><path class="b" d="M65.39,48.94h0l-.07,0h0l.07,0M52,36.77a3.89,3.89,0,0,1,.25.4,2.39,2.39,0,0,0,.43-.2,4,4,0,0,1-.68-.2"/><path class="b" d="M65.2,49.06h0l0,0h0l0,0"/><path class="b" d="M63.89,49.7l0,0h0l0,0h0"/><path class="b" d="M63.81,50.47l0,0v0l0,0"/><path class="b" d="M60.41,50.71h-.09l.09,0"/><path class="b" d="M60.25,50.74h-.08l.08,0"/><path class="b" d="M58.64,51l-.14,0h-.1l.24,0"/><path class="b" d="M58,51.14l-.24,0h0l.28,0m.57-.09-.86.13h0l.77-.11h0"/><path class="b" d="M56.16,51.37h0m0,0h0"/><path class="b" d="M74.12,73.78l.37.15c2,.78,3.93,1.63,5.71,2.52A48.49,48.49,0,0,0,75.07,74l-.95-.17"/><path class="b" d="M58.49,74.72a5.66,5.66,0,0,0-.87.62L58.74,75l-.25-.27"/><path class="b" d="M65.74,78.91c1.51,1.49,3,3,4.38,4.64.56.66,1.12,1.34,1.65,2a10.23,10.23,0,0,0-1-2,15.23,15.23,0,0,0-5-4.7"/><polyline class="b" points="57.8 78.93 57.81 78.94 57.81 78.94 57.8 78.93"/><path class="b" d="M108.31,83.61a2,2,0,0,0-.17,1,11.94,11.94,0,0,0,.11,1.38v-.44c0-.7,0-1.32.06-1.9"/><path class="b" d="M87.48,83.8c0,.36,0,.79,0,1.26,0,.94,0,2,0,3a6,6,0,0,0,.41-2.21,8,8,0,0,0,0-.82,8.19,8.19,0,0,0-.29-1.27"/><path class="b" d="M108.64,88.39v0l.13.08-.13-.11"/><path class="b" d="M40.4,89a2.62,2.62,0,0,0-.34,1.25c0,.07,0,.14,0,.21A40.94,40.94,0,0,0,43.69,104c1.62,3.43,3.83,3.51,6.1,4.38a6.57,6.57,0,0,1,3,2.93,27.38,27.38,0,0,0-1.35-3.14l-1.63.09c-2.27-.86-4.48-.94-6.1-4.38a41,41,0,0,1-3.61-13.54,1.48,1.48,0,0,1,0-.21A2.39,2.39,0,0,1,40.4,89"/><path class="b" d="M110,89.92a8.36,8.36,0,0,1,.75,3.79h0c0,.53,0,1.07-.08,1.62a12.12,12.12,0,0,0,.22-2.12,6,6,0,0,0-.89-3.29"/><path class="b" d="M62.39,91.27l.08.17v0a.72.72,0,0,0-.07-.15"/><path class="b" d="M62.48,91.46v.06l0-.06"/><path class="b" d="M63,92.48l0,0h0l0,.07h0v0l0,0,0,0m-.39-.71.09.17,0-.06a.54.54,0,0,0-.05-.11"/><path class="b" d="M109,101.91c-.61.69-1.24,1.38-1.89,2.08a4.1,4.1,0,0,1-.58,1.35A19.1,19.1,0,0,0,109,102l0-.12"/><path class="b" d="M99.39,113.33c-2.28,1.67-4.59,3.78-7.29,6l1.25-1c2.5-1.9,4.43-3.57,6-5.06"/><polyline class="b" points="65.37 48.94 65.37 48.94 65.37 48.95 65.37 48.94"/><polyline class="b" points="65.37 48.95 65.36 48.95 65.37 48.95 65.37 48.95"/><path class="b" d="M65.34,49h0l0,0h0"/><path class="b" d="M65.34,49h0l0,0h0"/><polyline class="b" points="65.3 48.99 65.29 49 65.29 49 65.3 48.99 65.3 48.99"/><path class="b" d="M65.29,49h0"/><path class="b" d="M65.27,49h0"/><polyline class="b" points="65.27 49.01 65.26 49.02 65.26 49.02 65.27 49.01"/><path class="b" d="M65.24,49l-.06,0-.21.13h0l0,0,.3-.18"/><path class="b" d="M65.12,49.12h0l0,0"/><path class="b" d="M64.74,49.32h0l-.07,0,.08,0h0"/><path class="b" d="M64.84,49.34l0,0,0,0,.06-.06"/><path class="b" d="M64.55,49.61l-.19.21.11-.12.08-.09"/><path class="b" d="M64.27,49.91l-.2.23.06-.07h0l0,0,.11-.13"/><path class="b" d="M64.48,49.45l-.21.1.21-.1h0"/><path class="b" d="M63.68,49.79l-.45.16h0l-.08,0,.24-.08,0,0h0l.25-.08h0"/><path class="b" d="M62.57,50.16l0,0h0l0,0"/><path class="d" d="M55.3,76h0c1.5,1,.76,2,2.51,3C56.19,78,56.87,77,55.4,76L55.3,76"/><path class="d" d="M57.81,78.94A12.32,12.32,0,0,1,61.09,83c.9,1.6,1.52,3.2,2,4.11a7.75,7.75,0,0,1,1.13,3.51,3.12,3.12,0,0,1,0,.55c-.09.62-.48,1-.92,1a.82.82,0,0,1-.48-.15.61.61,0,0,1-.07-.14,1.24,1.24,0,0,0,.1.2.91.91,0,0,0,.52.18c.45,0,.84-.4.93-1a2.39,2.39,0,0,0,0-.55,7.67,7.67,0,0,0-1.11-3.52c-.49-.92-1.11-2.52-2-4.12A12.51,12.51,0,0,0,57.92,79l-.11-.06"/><path class="d" d="M41.74,88a1.52,1.52,0,0,0-.42.06,1.66,1.66,0,0,0-.92.95,1.58,1.58,0,0,1,.86-.84,1.51,1.51,0,0,1,.42-.05c1.65,0,3.17,2.33,4.91,3.1.31-.17.91,0,1.13-.45a1.65,1.65,0,0,1,.84-.82l.64,0a12.84,12.84,0,0,1,5.88,1.54,10.49,10.49,0,0,0,1.33.09c.63,0,1.22-.06,1.81-.11a18.22,18.22,0,0,1,1.93-.13,6.32,6.32,0,0,1,.91.06,1.86,1.86,0,0,0,.6.1,1.06,1.06,0,0,0,.69-.21h0s0,0,0,0-.07-.16-.07-.16v0h0a.86.86,0,0,1-.63.2,1.73,1.73,0,0,1-.59-.1,6.27,6.27,0,0,0-.9-.06,18.58,18.58,0,0,0-1.93.13c-.59,0-1.18.11-1.81.11a10.22,10.22,0,0,1-1.32-.09,12.84,12.84,0,0,0-5.89-1.54l-.63,0a1.72,1.72,0,0,0-.83.82c-.22.46-.82.29-1.13.46C44.91,90.32,43.39,88,41.74,88"/><path class="d" d="M62.47,91.44v0"/><path class="d" d="M62.5,91.52l.12.25-.12-.25"/><path class="e" d="M63,92.48h0l0,0,0,0v0h0l0-.07h0l0,0M58.74,75l-1.12.35a5.07,5.07,0,0,0-.46.47l-.42-.21c-.86.25-1.36.37-1.44.38l.1.06c1.47,1,.79,2,2.4,2.89h0l.11.06a12.51,12.51,0,0,1,3.28,4.11c.89,1.6,1.51,3.2,2,4.12a7.67,7.67,0,0,1,1.11,3.52,2.39,2.39,0,0,1,0,.55c-.09.62-.48,1-.93,1a.91.91,0,0,1-.52-.18,1.24,1.24,0,0,1-.1-.2l-.09-.17-.12-.25v-.08l-.08-.17s0,0,0,0h0a1.06,1.06,0,0,1-.69.21,1.86,1.86,0,0,1-.6-.1,6.32,6.32,0,0,0-.91-.06,18.22,18.22,0,0,0-1.93.13c-.59,0-1.18.11-1.81.11a10.49,10.49,0,0,1-1.33-.09,12.84,12.84,0,0,0-5.88-1.54l-.64,0a1.65,1.65,0,0,0-.84.82c-.22.46-.82.28-1.13.45-1.74-.77-3.26-3.1-4.91-3.1a1.51,1.51,0,0,0-.42.05,1.58,1.58,0,0,0-.86.84,2.39,2.39,0,0,0-.27,1.13,1.48,1.48,0,0,0,0,.21,41,41,0,0,0,3.61,13.54c1.62,3.44,3.83,3.52,6.1,4.38l1.63-.09-.13-.25c-.84-1.58-1.91-3.06-3.07-3.06a1.33,1.33,0,0,0-.43.07,29.6,29.6,0,0,1-3.42-4.1A7.23,7.23,0,0,1,43,97.28a1.44,1.44,0,0,1,1.13-1.49,23.82,23.82,0,0,1,3.41-2.18l8.31,1.71c2.1.46,4.4,1,5.91,1.45s2.59.81,3,1.3a3.87,3.87,0,0,0,.78.08h0a4.78,4.78,0,0,0,2-.43,6.92,6.92,0,0,0,2.53-2,10.6,10.6,0,0,0,1.84-3.46,9.82,9.82,0,0,0,.49-3.07,9.92,9.92,0,0,0-.65-3.59c-.53-.7-1.09-1.38-1.65-2-1.4-1.63-2.87-3.15-4.38-4.64a30,30,0,0,0-5.66-2.62A18.42,18.42,0,0,1,58.74,75"/><path class="f" d="M66.52,73.1c-3,0-6,.43-8,1.62l.25.27a18.42,18.42,0,0,0,1.34,1.3,30,30,0,0,1,5.66,2.62,15.23,15.23,0,0,1,5,4.7,10.23,10.23,0,0,1,1,2,9.92,9.92,0,0,1,.65,3.59,9.82,9.82,0,0,1-.49,3.07,10.6,10.6,0,0,1-1.84,3.46,6.92,6.92,0,0,1-2.53,2,4.78,4.78,0,0,1-2,.43h0a3.87,3.87,0,0,1-.78-.08c-.41-.49-1.47-.81-3-1.3s-3.81-1-5.91-1.45L47.5,93.61a23.82,23.82,0,0,0-3.41,2.18A1.44,1.44,0,0,0,43,97.28a7.23,7.23,0,0,0,1.47,3.54,29.6,29.6,0,0,0,3.42,4.1,1.33,1.33,0,0,1,.43-.07c1.16,0,2.23,1.48,3.07,3.06a26.56,26.56,0,0,1,1.48,3.39l.09.25a3.7,3.7,0,0,0,.38.53,11.28,11.28,0,0,0,4.16,2.72,24.74,24.74,0,0,0,3.35,1.12c.23.63.82,1,2,1a12.72,12.72,0,0,0,2-.19A23.91,23.91,0,0,0,70,115.13a24.66,24.66,0,0,0,3.18-1.63l.76-.58a23.46,23.46,0,0,0,2.61-2.38,21.15,21.15,0,0,0,2.26-2.84,22.93,22.93,0,0,0,2.67-5.61,44.77,44.77,0,0,0,1.1-4.46c.29-1.35.55-2.59.84-3.65.59-2.13,1.31-3.57,2.69-3.87a5,5,0,0,0,1-1.3,4.23,4.23,0,0,0,.32-.71c0-1,0-2.1,0-3,0-.47,0-.9,0-1.26a10.24,10.24,0,0,0-2.69-4,23,23,0,0,0-4.59-3.31c-1.78-.89-3.74-1.74-5.71-2.52l-.37-.15a49.09,49.09,0,0,0-6.62-.66l-1,0"/><path class="g" d="M67.9,62.1c-6.14,0-13.66,5.59-13.66,5.59-2.37.63-3.24,1.55-3.25,2.53a3.86,3.86,0,0,0,1.44,2.51,16.7,16.7,0,0,0,3,2.18c.51.3,1,.54,1.26.69l.42.21a5.07,5.07,0,0,1,.46-.47,5.66,5.66,0,0,1,.87-.62c2-1.19,5.07-1.62,8-1.62l1,0a49.09,49.09,0,0,1,6.62.66l.95.17a48.49,48.49,0,0,1,5.13,2.5,23,23,0,0,1,4.59,3.31,10.24,10.24,0,0,1,2.69,4,8.19,8.19,0,0,1,.29,1.27,8,8,0,0,1,0,.82,6,6,0,0,1-.41,2.21,4.23,4.23,0,0,1-.32.71,5,5,0,0,1-1,1.3c-1.38.3-2.1,1.74-2.69,3.87-.29,1.06-.55,2.3-.84,3.65a44.77,44.77,0,0,1-1.1,4.46,22.93,22.93,0,0,1-2.67,5.61,21.15,21.15,0,0,1-2.26,2.84A23.46,23.46,0,0,1,74,112.92l-.76.58a31.18,31.18,0,0,1-2.7,1.78l.82-.23c1.13-.29,2.38-.46,3.64-.68s2.44-.41,3.31-.57l1.4-.25c1.61-1.69,3.65-3.51,5.5-5.2s3.63-3.22,5.13-4.37l5.58-4.17a5.75,5.75,0,0,0,3.47-2.6,8.3,8.3,0,0,0,1.15-3.77c0-.27,0-.53,0-.79a11.12,11.12,0,0,0-.6-3.65,17.83,17.83,0,0,1-3-3.43,2,2,0,0,1-.38-1,0,0,0,0,1,0,0V84.5c0-3-1.68-5.79-4.09-8.25a52.09,52.09,0,0,0-8.79-6.65,125.57,125.57,0,0,0-12.52-6.85,7.63,7.63,0,0,0-3.24-.65"/><path class="g" d="M70.5,115.28a5.26,5.26,0,0,0-2,1.14l1.42-.79.58-.35"/><path class="h" d="M53.42,36.43a.69.69,0,0,0-.56.33.63.63,0,0,1-.22.21,2.39,2.39,0,0,1-.43.2c-.24.09-.44.2-.45.53,0,0,0,.07,0,.1h0c.4.25.86.93,1.38,1.27,1,.85,1.89.71,2.77,1.78s1.71,2.18,2.51,3a3.6,3.6,0,0,0,1.36.8c1.59.92,2.73,1.51,3.66,1.51.25-.65.49-.86.69-.86a.37.37,0,0,1,.22.08c.24.19.38.63.57.74a1.37,1.37,0,0,1,.07.6V47c.14.24.54,0,.54.38a1.81,1.81,0,0,1-.24.71c-.24.47-.49.91-.75,1.33l.1-.06.18-.09L65.3,49a16.54,16.54,0,0,1,2.9-1.75c.22-.08.92-.52,1.37-.78a4.66,4.66,0,0,0,1.36-1.19H71c.16,0,.24-.15.24-.39a2.38,2.38,0,0,0-.47-1.27,2,2,0,0,0-1.2-.94c-.19,0-.32.13-.33.44h0v0c0-.52-.28-.71-.66-.71a2.39,2.39,0,0,0-.9.23,7.27,7.27,0,0,1-1.93.78.58.58,0,0,1-.19,0c-.42,0-.7-.65-1.07-1.16-.26-.33-.55-.62-.87-.62a.71.71,0,0,0-.47.2c-.51.28-1,.78-1.38.78-.26,0-.5-.2-.73-.78a4.85,4.85,0,0,0-1.34-1.91,2.38,2.38,0,0,0-.46,0,5.42,5.42,0,0,0-.8.08,5.16,5.16,0,0,1-.78.08,2,2,0,0,1-1.43-.58c-.59-.65-1.31-1.9-2-2.56a1.25,1.25,0,0,0-.81-.43"/><path class="h" d="M65.39,48.94h0m0,0h0l-.07,0h0l.08,0"/><path class="h" d="M65.2,49.06h0l0,0,0,0"/><path class="h" d="M65.19,49.06l0,0h0l0,0"/><polyline class="h" points="65.16 49.09 65.15 49.09 65.15 49.09 65.16 49.09"/><path class="h" d="M65,49.21l0,0,0,0h0l0,0,0,0,.14-.11"/><path class="h" d="M64.7,49.47l-.07.07.07-.07"/><path class="h" d="M63.89,49.71l0,0-.05,0,.1,0h0"/><path class="h" d="M63.77,49.75l0,0h0"/><path class="h" d="M64.34,49.84l0,0,0,0h0"/><path class="h" d="M64,50.26l0,0-.09.1,0,.07,0,0,.17-.21,0,0"/><path class="h" d="M63.79,50.49v0h0l0,.06.06-.09"/><path class="h" d="M60.92,50.59l-.65.14h.14l.27-.07h0l.1,0,.13,0h0"/><path class="h" d="M60.92,50.59l-.23,0-.26.06.5-.1h0"/><path class="h" d="M60.17,50.76l-.17,0-.31.06h0l-.07,0,.54-.1h0m.1,0-.73.15h0l.13,0,.33-.06.17,0h0l.07,0"/><path class="h" d="M59.52,50.88h0l-.71.12-.12,0L59,51l.52-.09m0,0-.18,0-.13,0,.25,0h.06"/><path class="h" d="M59,51l-.45.08h0l.14,0h.13L59,51"/><path class="h" d="M58.33,51.08l-.27.05.27-.05m.17,0-.77.11.24,0,.43-.07h.1"/><path class="h" d="M57.73,51.17h0"/><path class="h" d="M57.66,51.18l-.3,0-.34,0-.2,0h-.06l.73-.09.17,0"/><path class="h" d="M56.91,51.28l-.74.09h0l.44,0,.09,0h.21"/><path class="h" d="M56.25,51.36h-.09l.09,0"/><path class="h" d="M56.16,51.38h0"/><path class="h" d="M55.43,51.45h-.19l.19,0"/><path class="h" d="M54.71,51.52l-.42,0h.2l.22,0"/><path class="h" d="M54.29,51.55h0l-.21,0,.19,0h.06"/><path class="h" d="M55.09,51.57l-1,0h0l.09,0-.27,0-.87.08h0l-1.33.08-.73,0-1,.06.06,0a.49.49,0,0,1,.14.34.71.71,0,0,1-.19.45s0,0,0,0-.29,0-.58-.09a1.8,1.8,0,0,0,0,.31,6.65,6.65,0,0,1,.85.49h0c-.13.28-.5.52-1.17.81-5.88,2-6.25,6.4-10.94,8.86-.68.51-1.65,1.24-1.66,2a1.07,1.07,0,0,0,0,.25c.31.67,0,1.49.62,2.09,1.51,1.12,3.84,2.23,5.65,3.28l.41-3.47a2.1,2.1,0,0,1-.3-1.08,3.5,3.5,0,0,1,1.61-2.62c.52-.68,3.13-1.15,5.37-1.33H50a7.08,7.08,0,0,1,1.26.15,7.85,7.85,0,0,0,1.24.14h.07c2.56-.17,4.17-.88,6.76-.88a14.78,14.78,0,0,1,1.69.1,3.83,3.83,0,0,0,.6,0,6.4,6.4,0,0,0,3.28-1,.32.32,0,0,0,.06-.18c0-.76-2-3.17-4.18-5.54a14.68,14.68,0,0,0-3.36-2.71,11,11,0,0,0-1.65-.71,3,3,0,0,0-.65,0"/><path class="h" d="M51.41,51.77H51.2l-1.82.1,1.06-.06.53,0,.44,0"/><path class="h" d="M65.36,49h0"/><path class="h" d="M65.34,49h0"/><path class="h" d="M65.3,49h0l-.11.06.06,0-.3.18h0l0,0-.11.06,0,0h0l-.09,0h0l-.08,0-.08,0h0c-.14.22-.29.44-.45.65l-.26.36,0,0,.21-.26.2-.23.09-.09.19-.21.23-.21,0,0,0,0,.06,0,.06,0,.13-.11h0a.51.51,0,0,1,.13-.09h0"/><path class="h" d="M65.27,49h0m0,0h0"/><path class="h" d="M64.55,49.42l0,0h0l.07,0h0"/><path class="h" d="M64.39,49.49l-.16.07.16-.07"/><polyline class="h" points="64.22 49.56 64.22 49.57 64.22 49.57 64.22 49.56"/><path class="h" d="M63.75,49.76h0"/><path class="h" d="M63.7,49.78h0l0,0h0"/><path class="h" d="M63.41,49.88h0l0,0,.06,0"/><path class="h" d="M62.76,50.11l-.15,0h0l0,0,.24-.07"/><path class="h" d="M61.72,50.4h0"/><path class="i" d="M110.79,93.71c0,.53,0,1.08-.08,1.63,0,.13,0,.26,0,.39a15.44,15.44,0,0,0,.13-2"/><path class="a" d="M110.66,95.73h0q-.15,1.18-.39,2.25h0c.16-.69.28-1.41.38-2.17v-.08h0"/><path class="i" d="M110.65,95.81c-.1.76-.22,1.48-.38,2.17.16-.69.28-1.41.38-2.17"/><path class="i" d="M110.27,98c-.17.73-.35,1.4-.51,2,.16-.56.34-1.23.51-2"/><path class="i" d="M109.76,99.94c-.16.55-.34,1-.46,1.37.12-.32.3-.82.46-1.37"/><path class="a" d="M109.3,101.31h0l-.19.52-.07.08h0l.07-.08h0s.07-.19.19-.52h0"/><path class="i" d="M109.3,101.31c-.12.33-.19.51-.19.52s.07-.19.19-.52"/><path class="a" d="M106.57,105.35h0A25.25,25.25,0,0,1,103.8,109c-.42.47-.85.92-1.24,1.33l-1.19,1.23-1.26,1.27-.07,0,.07,0h0l1.26-1.27h0l1.19-1.23h0c.38-.4.79-.83,1.2-1.29l0,0,0,0a25.46,25.46,0,0,0,2.73-3.58"/><path class="i" d="M101.37,111.54l-1.26,1.27,1.26-1.27m2.39-2.52c-.41.46-.82.89-1.2,1.29.38-.4.79-.83,1.2-1.29m3.39-5a4.22,4.22,0,0,1-.58,1.36,25.46,25.46,0,0,1-2.73,3.58,24.93,24.93,0,0,0,2.73-3.59,4.1,4.1,0,0,0,.58-1.35"/><path class="i" d="M100,112.86l-.65.47c-2.28,1.67-4.59,3.78-7.29,6-.64.55-1.31,1.1-2,1.66,3.59-2.9,6.47-5.64,9.29-7.71l.65-.47"/><path class="j" d="M84.72,125h0q-.45.3-.9.57a62,62,0,0,1-5.93,3.29h0a62,62,0,0,0,5.93-3.29h0l.11-.06.79-.51h0"/><path class="i" d="M83.82,125.55a62,62,0,0,1-5.93,3.29,62,62,0,0,0,5.93-3.29M90.1,121c-1.67,1.35-3.5,2.71-5.38,3.94l-.79.51.79-.51c1.88-1.23,3.71-2.59,5.38-3.94"/><path class="i" d="M77.89,128.84c-3.52,1.71-6,2.68-7.47,3.4,1.52-.72,4-1.69,7.47-3.4"/><path class="i" d="M70.42,132.24c-1.47.68-2.2,1.1-2.23,1.12s.76-.44,2.23-1.12"/><path class="k" d="M62.76,50.11h0l-.24.07h0l-.08,0-.7.19h0l.74-.2.16-.05.15,0h0m-11-12.31h0c-.16.23-.59.15-.59.43a.41.41,0,0,0,0,.19,5.82,5.82,0,0,0,1,1.69c1.6,1.68,3,3.75,4.32,5.2,1.49,1.65,2.75,3.14,3.67,4.36l.68.92h0l-.13,0-.1,0,.23,0c.54.76.91,1.34,1.16,1.65,0,0,0,0,0,0s.28-.8.4-1.15.23-.4.33-.4l.13,0c.14,0,.25-.11.72-.95l0,0-.25.08-.06,0-.24.08h0l.08,0h0l.47-.17.07-.12c.07-.12.11-.17.13-.17s0,0,0,0a.61.61,0,0,1,0,.16l-.14.06h0l0,0h0l.05,0h0l0,0h0A10.23,10.23,0,0,1,63.37,51c-.08.17-.16.34-.25.5l0-.06a10,10,0,0,1,.59-.9l0,0h0l0,0,0-.07,0,0,.26-.36c.16-.21.31-.43.45-.65l-.07,0-.21.1,0,0h0l.16-.07.09,0h0l0,0c.26-.42.51-.86.75-1.33a1.81,1.81,0,0,0,.24-.71c0-.34-.4-.14-.54-.38v-.28a1.37,1.37,0,0,0-.07-.6c-.19-.11-.33-.55-.57-.74a.37.37,0,0,0-.22-.08c-.2,0-.44.21-.69.86-.93,0-2.07-.59-3.66-1.51a3.6,3.6,0,0,1-1.36-.8c-.8-.82-1.59-2.08-2.51-3s-1.77-.93-2.77-1.78c-.52-.34-1-1-1.38-1.27"/><path class="k" d="M65.39,48.94h0l0,0,.07,0h0"/><path class="k" d="M65.38,48.94l-.06,0h.06"/><path class="k" d="M65.32,49l0,0-.47.28,0,0,.11-.06h0l.21-.13.11-.06h0l0,0"/><path class="k" d="M65.32,49h-.06l0,0h0"/><path class="k" d="M65.26,49h0a.51.51,0,0,0-.13.09l0,0-.13.11,0,0,0,0,.14-.12h0l0,0h0l.06,0"/><path class="k" d="M65,49.25l-.06,0,0,0h0"/><path class="k" d="M64.55,49.42h0m.28-.15-.18.09-.1.06h0l.08,0,.16-.08h0"/><path class="k" d="M64.9,49.3l-.06,0-.06.06-.23.21-.08.09.23-.23.17-.15,0,0"/><path class="k" d="M64.47,49.7l-.11.12-.09.09-.11.13.18-.2.13-.14"/><polyline class="k" points="63.74 49.77 63.7 49.78 63.7 49.78 63.7 49.78 63.7 49.78 63.74 49.77"/><path class="k" d="M64.16,50l0,0h0l0,0"/><path class="k" d="M64.13,50.07l-.06.07-.21.26.09-.1,0,0,.15-.19"/><path class="k" d="M60.69,50.64h0l-.27.07-.09,0h-.07l-.08,0-.17,0,.17,0,.09,0h.05l.12,0,.26-.06"/><path class="k" d="M60,50.79l-.33.06h0l.31-.06"/><path class="k" d="M59.67,50.85l-.13,0h.06l.07,0"/><path class="k" d="M59.48,50.89l-.25,0-.14,0L59,51l-.22,0,.71-.12"/><path class="k" d="M58.77,51h-.13l-.24,0-.43.07-.28,0h0l.63-.1.32,0,.12,0"/><path class="k" d="M57.69,51.18h0l-.45.06.15,0,.3,0h0"/><path class="k" d="M57.21,51.24h-.14l-.16,0h-.09l.2,0,.19,0"/><path class="k" d="M56.82,51.29h-.09l-.12,0-.44,0h.18l.47-.06"/><path class="k" d="M56.17,51.37l-.77.09h.08l.62-.07h.07"/><path class="k" d="M55.4,51.46l-.69.06-.22,0-.26,0-.19,0-.29,0h.17l.27,0,.91-.08.14,0h.16"/><path class="k" d="M63.12,51.51l0,.06,0,.06h0l0-.11"/><path class="k" d="M53.75,51.6l-1,.08h.28l.7-.07"/><path class="k" d="M52.77,51.68l-.52,0,.36,0,.16,0"/><path class="k" d="M52.25,51.72l-.84.05-.44,0,.73,0h.08l.47,0"/><path class="k" d="M51,51.79l-.53,0c-1,.06-1.94.1-2.84.12h-.78l.27,0,.69.17c.56.17,1.18.31,1.63.4.29.05.51.09.58.09s0,0,0,0a.71.71,0,0,0,.19-.45.49.49,0,0,0-.14-.34l-.06,0h0l1-.06"/><path d="M66.21,126.27c-1-1.86-1.87-3.83-3-5.66a17,17,0,0,0-8.47-7,28.27,28.27,0,0,0-7.2-1.91c-1.75-.19-3.61.48-5.41.84-1.51.3-3,.76-4.5,1-.85.16-1.41-.11-1.23-1.21A2.37,2.37,0,0,0,36,110.8c-2.12-3-4.25-6-6.5-8.86-.87-1.13-.58-1.62.55-2.1C38.42,96.26,42.7,89.13,44.91,81a32.22,32.22,0,0,0-2.66-23.47,28.52,28.52,0,0,0-9.86-10.77A25,25,0,0,0,28.25,45a42.7,42.7,0,0,0,5.81-13.7c.93.08,2.18.19,3.43.28A27.16,27.16,0,0,0,53.16,27.9c4.65-2.71,8.58-6.26,10-11.74A14.11,14.11,0,0,0,63.48,12c-.07-1.49.25-1.93,1.82-1.93.73,0,1.45-.08,2.18-.11,2.86-.14,3.21.07,4.07,2.83.75,2.38,1.3,4.84,2.13,7.19,1.5,4.28,4.68,6.93,8.8,8.59,3.13,1.26,6.31,2.28,9.72,1.63a17.21,17.21,0,0,0,3.7-1.42c1-.43,1.72-.62,2.53.45,1.82,2.39,3.76,4.68,5.69,7,1.09,1.31,2.21,2.6,3.38,3.83,1,1,.4,1.43-.53,1.79a21.07,21.07,0,0,0-8.72,6.83,32.61,32.61,0,0,0-7.17,15.22c-.41,2.46-.89,4.94-1.07,7.42a26.81,26.81,0,0,0,2.74,13.4c2.75,6,7.19,10.23,12.51,13.77.74.49.71.88.2,1.59-2,2.83-4,5.7-6,8.58-.66,1-1.18,2.05-1.9,3a1.39,1.39,0,0,1-1.33.18c-2.55-1.45-5.28-1.11-7.84-.5-5.74,1.35-11.1,3.71-15.06,8.29-1.17,1.36-2.82,2.84-2.28,5.15,0,.17-.63.66-1,.77C68.71,125.8,67.35,126,66.21,126.27ZM34.64,98.81l0,0c-.94.46-1.92.85-2.81,1.4-.65.4-1.32.86-.55,1.87,2.44,3.19,4.8,6.44,7.36,9.88,5.46-1.84,11.07-2.18,16.59.37s9.59,6.24,11.56,12.13c1.75.06,1.68,0,2.7-1.51,1.47-2.15,2.74-4.61,4.68-6.25a28.26,28.26,0,0,1,19.25-7.14,27.07,27.07,0,0,0,4.66-2c1.89-2.66,3.78-5.33,5.69-8-.52-.45-.85-.75-1.2-1-3.12-2.36-6.24-4.77-8.31-8.17-1.24-2-2-4.37-3.28-6.35C88.9,80.68,88.66,77,88.61,73.37c0-2.56.66-5.13.77-7.71.25-5.9,2.85-11,5.93-15.7,2.7-4.14,6.13-7.9,11-9.61-1.34-1.41-2.65-2.69-3.84-4.08-1.4-1.65-2.73-3.36-4-5.09-.93-1.23-2-1.17-3.24-.6a10.67,10.67,0,0,1-3.15.93,20.93,20.93,0,0,1-11.5-2.2,16.18,16.18,0,0,1-8.74-10.42c-.76-2.6-1.48-5.22-2.22-7.85l-3.75.34c-.83,2.76-1.28,5.39-2.38,7.71-2.56,5.38-7.1,8.74-12.42,11.11a28.81,28.81,0,0,1-14.42,2.35c-1.11-.09-1.59.2-1.82,1.34a16.51,16.51,0,0,1-1.23,3.26c-1.05,2.41-2.13,4.8-3.2,7.2a22.14,22.14,0,0,1,3.19,1.51A30.4,30.4,0,0,1,44.8,60a37.54,37.54,0,0,1,2,18.1c-.65,5.9-3.44,10.91-7,15.51A51.88,51.88,0,0,1,34.64,98.81Z"/><path d="M67.46,35.59c-2.76,0-5.41-2.14-5.55-4.3S64.6,27,66.4,27c3.19.09,5.45,1.77,5.45,4.24C71.85,34.07,70.31,35.58,67.46,35.59Zm3.05-4.92a3.81,3.81,0,0,0-.55-1.4c-1.24-1.51-5.28-1.16-6.3.53a2.89,2.89,0,0,0-.43,1.7c.2,1.57,2.72,3.23,4.49,3.07S70.48,33.21,70.51,30.67Z"/><path d="M89.82,85.71c1.53,1,2,2.44,1,4l-1.51-3.77Z"/><path d="M44.66,34.16c1-.28,1.7-.54,2.44-.69a2.86,2.86,0,0,1,1,.18c-.19.32-.36.87-.58.9C46.59,34.64,45.45,36.12,44.66,34.16Z"/><path d="M45.94,59.12l-2.51-3.21.5-.42,2.8,2.94Z"/><path d="M46.27,108.65c1.08-.65,2.15-1.25,3.27-.26l0,.66-3.24.18Z"/><path d="M36.07,33.64l1.39,1c-.5.69-.93,1.33-1.43,1.91-.07.09-.47-.09-.71-.14Z"/><path d="M59.29,28a16.73,16.73,0,0,1-1.35,1.76c-.18.19-.64.11-1,.15,0-.38-.25-1-.08-1.1a17.33,17.33,0,0,1,2-1.3Z"/><path d="M54,31.58a16.42,16.42,0,0,1-2,1.5c-.23.13-.74-.23-1.12-.37.19-.33.31-.84.59-.95a17,17,0,0,1,2.29-.57Z"/><path d="M41.05,108.55l3.39-.23.05.69c-1,1.35-2.3-.42-3.38.33Z"/><path d="M37,107.27c.67.35,1.36.66,2,1.07a1,1,0,0,1,.44.81.93.93,0,0,1-.55.69,1,1,0,0,1-.81-.41c-.48-.63-.89-1.32-1.32-2Z"/><path d="M78.39,111.68c1.23-1.84,2.17-2.06,3.38-.92Z"/><path d="M57.28,110.78l2.89,1.54c-1,1.06-1,1.06-3.08-1.07Z"/><path d="M98.77,103a10.21,10.21,0,0,1,.18-1.77,1.48,1.48,0,0,1,.75-.73.77.77,0,0,1,.66.33,1.48,1.48,0,0,1-.06,1,10.5,10.5,0,0,1-1.1,1.41Z"/><path d="M34.64,98.81l2.16-.67.36.26A6.58,6.58,0,0,1,36,99.76c-.34.23-.91.15-1.38.21,0-.4,0-.81,0-1.21Z"/><path d="M87.21,61.44c.28.39.75.76.82,1.18.12.78.16,1.71-1.1,1.64l-.12-2.42Z"/><path d="M43.72,88.37l1.72-2.29.46.16-.81,2.6Z"/><path d="M40.37,47.89a6.81,6.81,0,0,1-.58.47L37.73,47c.18-.18.46-.55.51-.52C38.92,46.9,39.57,47.35,40.37,47.89Z"/><path d="M88.3,34l-3.2-.47.16-.93,3.15.71Z"/><path d="M93.93,92.45l2,1.82-.46.61-2.27-1.55Z"/><path d="M64.6,116.85c-2,.79-1.95-1-2.83-1.59l.36-.44Z"/><path d="M38.54,96.18c.73-.5,1.45-1,2.21-1.55.38,1.4-.25,2-1.86,2Z"/><path d="M32.4,44.28c1.35-1.11,1.62-1,3.14.74Z"/><path d="M85.65,76.14l-.79-2.93C86.58,73.46,86.8,74.15,85.65,76.14Z"/><path d="M97.07,96.9c2-.26,2.51.54,2.82,1.66l-.32.4Z"/><path d="M42.21,35.19c-1,.39-2.07,1.11-3.33-.44h3.29Z"/><path d="M43.68,90.82l-.9,2.43-1.29-1,1.79-1.65Z"/><path d="M72.4,25.21l-1.62-2C72.26,22.6,72.64,23,72.4,25.21Z"/><path d="M81.67,32.79l-3.08-1.31c1.27-.65,1.27-.65,3.24.85Z"/><path d="M35.89,105a5.33,5.33,0,0,1-1.55-.51c-.22-.16-.13-.76-.18-1.16l2,.82Z"/><path d="M92.1,51.8l-2,2.35C90.2,51.65,90.37,51.44,92.1,51.8Z"/></svg>