<svg xmlns="http://www.w3.org/2000/svg" viewBox="0 0 150 150"><defs><style>.a{fill:#d8bacf;}.b{fill:#bc8fae;}.c{fill:#80416a;}.d{fill:#7d3c65;}.e{fill:#884b74;}.f{fill:#a3698e;}.g{fill:#d2b5ca;}.h{fill:#9a6288;}.i{fill:#ece0e8;}</style></defs><title>icon</title><path class="a" d="M73,63.62h0c-.51.39-1,.78-1.45,1.18h0c.45-.4.94-.79,1.45-1.18h0m7.11-4.23h0c-.27.2-.75.46-1.3.79l0,0h0L77,61.29h0l-.35.13h0l.35-.13L78.8,60.2c.57-.34,1.06-.61,1.34-.81m1-.33h0m0,0h0m0,0h0m0,0h0m.2-.19a2.38,2.38,0,0,1-.2.19h0a2.38,2.38,0,0,0,.2-.19h0m0-.11h0l0,.11h0l0-.11h0m-1-1.78h0v0a1.44,1.44,0,0,0,.07.31h0a1.44,1.44,0,0,1-.07-.31h0v0m.16-.2c0,.09,0,.1,0,.1h0l0-.05h0l0,.05h0s0,0,0-.1h0m0,0h0m0,0h0m0-.33h0c0,.17,0,.27,0,.33h0c0-.06,0-.17,0-.33"/><path class="b" d="M82.11,23.05a5.16,5.16,0,0,0-1.74.29c-.74,0-1.49.08-2.26.17l-.71.08a12,12,0,0,0-2.32,1.89c-1.24,1.15-1.29,1.86-2,1.86h0c-.26.07-.36,2.44-1.55,4.25l.87.43a7.6,7.6,0,0,1,.54-.87,10.93,10.93,0,0,1,2-2.21,5.82,5.82,0,0,1,3.45-1.39,3.35,3.35,0,0,1,2.62,1.26,10.91,10.91,0,0,1,1.47.76,14.93,14.93,0,0,1,2.78,2.1,6,6,0,0,1,2.15,3.93h0a2.29,2.29,0,0,1-.56,1.54s-.62.72-1.57,1.9S83.16,41.79,82,43.52a40.37,40.37,0,0,0-2.92,5.1l-.52,1.08c-.15.35-.29.67-.43.94a4,4,0,0,1-.75,1.24s-.07,0-.08.33v0a5.15,5.15,0,0,0,.5,1.76h0c0,.05,0,.28,0,.52h0a1.18,1.18,0,0,1-.06.43c-.07.21-.12.28-.45.37a1.92,1.92,0,0,1-.69.11,4.84,4.84,0,0,1-.91-.11,10,10,0,0,0-2.95.93,18.11,18.11,0,0,0-2.63,1.54,12.8,12.8,0,0,0-1.24,1,7.22,7.22,0,0,0-.94,1,10.42,10.42,0,0,0-1.78.31,4.53,4.53,0,0,0-1.7.73l-.17.22-.51.58h0a2.3,2.3,0,0,1,.68-.8c.23-.28.51-.63.82-1A17.75,17.75,0,0,1,62,62.55a6.08,6.08,0,0,1-2.73,1.08.76.76,0,0,1-.43-.11,18.27,18.27,0,0,1-3.47.55c-.31,0-.62,0-.93,0A8.79,8.79,0,0,1,51,63.53c.26.18.51.38.77.59,1.38,1.11,2.79,2.51,4.15,3.83a22.23,22.23,0,0,0,3.36,3.36,4.76,4.76,0,0,0,2.69.94,4.19,4.19,0,0,0,2-.52,17.33,17.33,0,0,0,2.81-2.08c.83-.79,1.63-1.59,2.39-2.4s1.57-1.68,2.42-2.45l-.39.35c-.51.45-1,.89-1.42,1.29h0c-.91.89-1.67,1.66-2.19,2.23l0,0c-.51.56-.79.91-.79.91h0s.28-.35.79-.91l0,0c.52-.57,1.28-1.34,2.19-2.23h0c.44-.4.91-.84,1.42-1.29l.39-.36a19.3,19.3,0,0,1,2.13-1.69,17.18,17.18,0,0,1,1.55-1,9.67,9.67,0,0,1,1.38-.66l1-.55c.95-.53,1.75-1,2.37-1.44l.15,0c.15-.11.24-.2.25-.27a3.56,3.56,0,0,1,.77-.06,1.42,1.42,0,0,1,.13-.25l0-.05v0c0-.06-.15-.19-.27-.38h0L81,58.25l-.52-.84,0,0h0l0,0a1,1,0,0,1,0-.28h0v-.12l0-.12,0,0,0,0a.93.93,0,0,0,.05-.35V56c0-.1,0-.22,0-.35s0-.39,0-.59h0a7.54,7.54,0,0,1,.06-.94v-.27h0v.27c.2-1.92,1-3.8,2.42-4.34a3.74,3.74,0,0,1,1.45-.31,3.32,3.32,0,0,1,1.5.37c.38.1,1.3,2.59,1.47,3.39.17.62.44.86.78.86l.21,0a3.53,3.53,0,0,0,1.42-.86A8.65,8.65,0,0,1,95,50.47c.62.12.88.91,1.51,1.2a3.94,3.94,0,0,0,.77.08c1.42,0,3-.65,4.42-.66a19.83,19.83,0,0,0,4.44.73,3.86,3.86,0,0,0,.66,0,1.49,1.49,0,0,0,.75-.31s0,0,0,0c.55.27.12,1.6.67,2.19a2.2,2.2,0,0,0,1.41.44,4.65,4.65,0,0,0,1.69-.36,15.26,15.26,0,0,1,4.66-1,4.5,4.5,0,0,1,1.73.3c-.2-.55-.2-1.32-.37-1.83-.43-1-1.54-1.13-2.37-1.77a3.55,3.55,0,0,1-.55-1.42c-.13-.93-1.1-.85-1.94-1-1.11,0-1.51-1.52-2.49-1.95a3.24,3.24,0,0,0-1.49-.26H108c-.71,0-1.35-.07-1.71-.67a.5.5,0,0,1,0,.15h0q0,.09-.12.09a6.11,6.11,0,0,1-1.92-.93c-.58-.37-1.06-.75-1.06-.88h0s0,0,.09,0h0c-.06,0-.08-.21-.08-.41h0a2.2,2.2,0,0,1,.07-.58c.14-.22.26-.62.4-.68,1.12-.5,1.78-2,2.61-3,0-.18-2.63-1.67-3.31-3.15-.46-1.22-.83-2.52-1.93-3.13h0a.94.94,0,0,0-.49.24,1,1,0,0,1-.49.24h0l-.19,0a15.09,15.09,0,0,0-1.79.19c-1.07.17-2.44.39-3.78.71s-2.63.67-3.63.91a8,8,0,0,1-1.69.33.72.72,0,0,1-.29-.05,2.79,2.79,0,0,1-1-1.74h0a.87.87,0,0,1,.05-.28,3.73,3.73,0,0,0,.07-.72c0-1.37-.81-2.26-1.11-3.58v-.1h0c0-.36.24-.77.23-1.13v-.08c-.29-1.13-1-2.45-1.84-2.73a6.79,6.79,0,0,0-3-.71"/><path class="b" d="M73,32.31l.65.34.25-.21a5,5,0,0,0-.9-.13"/><path class="b" d="M71.27,37.49a20.86,20.86,0,0,0-2.36,4.25c-.24.59-.44,1.18-.62,1.78.29-.51.57-1,.86-1.55a43.69,43.69,0,0,0,2.12-4.48"/><path class="b" d="M77.75,39.46l-.06.2c-.27.89-.5,1.86-.72,2.73l-.12.48c.27-.85.56-1.82.91-2.93h0s0-.21,0-.48"/><path class="b" d="M75,48c-.12.1-.27.21-.42.35s-.42.41-.63.63a2.25,2.25,0,0,0-.24.3c.1-.06.21-.12.32-.2a2.14,2.14,0,0,0,.64-.61A3.53,3.53,0,0,0,75,48"/><path class="b" d="M42,51.12a1.12,1.12,0,0,0-.45.61,11.81,11.81,0,0,0-.38,2.87c0,.34,0,.67,0,1a10.46,10.46,0,0,0,1,3.45c1.05,2.05,3.18,2.38,5.3,2.82a8.18,8.18,0,0,1,3,1.31l-.36-.41c-.26-.29-.61-.67-1-1.05q-.76.08-1.53.09c-2.12-.43-4.24-.76-5.29-2.81a10.13,10.13,0,0,1-1-3.44c0-.33-.05-.66-.05-1h0a11.35,11.35,0,0,1,.38-2.88,1.09,1.09,0,0,1,.39-.57"/><path class="b" d="M118.86,53.71a4.26,4.26,0,0,1,.35.38V54h0v-.17l-.09,0-.26-.09"/><path class="b" d="M80.51,56v.47a.91.91,0,0,0,0-.17c0-.09,0-.18,0-.3"/><path class="b" d="M80.4,56.79l0,.12V57a.2.2,0,0,1,.08-.15l0,0"/><path class="b" d="M80.44,57.35h0l0,0,0-.06"/><path class="b" d="M81,58.26l.07.1h0c.12.19.23.32.27.38h0c0-.06-.14-.18-.34-.48"/><path class="b" d="M81.16,59.06a3.56,3.56,0,0,0-.77.06c0,.07-.1.16-.25.27.34-.1.9-.26,1-.31v0"/><path class="b" d="M76.64,61.42a9.67,9.67,0,0,0-1.38.66,15.27,15.27,0,0,0-1.55,1c.16-.11.32-.22.49-.32l2.44-1.36"/><path class="c" d="M71.54,31.59c-.86,1.11-2.5,1.54-3.06,2.86a13.61,13.61,0,0,1-1.49,2c-.58.83-1.32,1.65-1.92,2.59a25.94,25.94,0,0,0-1.64,2.65,13.71,13.71,0,0,0-.87,2,18.92,18.92,0,0,1-1.47,3.93,4.43,4.43,0,0,1-2.24,1.92A3.16,3.16,0,0,0,57.8,50a5.22,5.22,0,0,0-.82.57,5.13,5.13,0,0,1-1.77,1.06c-1.43.52-2.39,1.2-4,1.37a27.13,27.13,0,0,0-4.32-.4,1,1,0,0,0-.56.37c-.17.21-.56.12-.77.16a4.55,4.55,0,0,1-.81-.57c-.25-.24-.48-.5-.7-.72a6.29,6.29,0,0,0-.64-.63,1.62,1.62,0,0,0-.72-.32h-.07a1.08,1.08,0,0,0-.62.26,1.08,1.08,0,0,1,.57-.22h.07a1.74,1.74,0,0,1,.72.32,7.79,7.79,0,0,1,.65.64c.22.22.45.48.69.72a4.47,4.47,0,0,0,.82.57h.27a.61.61,0,0,0,.5-.15,1,1,0,0,1,.56-.36,26.28,26.28,0,0,1,4.34.41,16.23,16.23,0,0,0,4-1.37A5.13,5.13,0,0,0,57,50.62a6.09,6.09,0,0,1,.83-.57,3.25,3.25,0,0,1,1-.43A4.43,4.43,0,0,0,61.1,47.7a18.46,18.46,0,0,0,1.47-3.92,12,12,0,0,1,.86-2,24.82,24.82,0,0,1,1.63-2.66c.59-.94,1.33-1.75,1.91-2.58a14.79,14.79,0,0,0,1.48-2c.55-1.33,2.18-1.76,3-2.88l0-.07h0"/><path class="d" d="M71.54,31.59l0,.07c-.87,1.12-2.5,1.55-3,2.88a14.79,14.79,0,0,1-1.48,2c-.58.83-1.32,1.64-1.91,2.58a24.82,24.82,0,0,0-1.63,2.66,12,12,0,0,0-.86,2A18.46,18.46,0,0,1,61.1,47.7a4.43,4.43,0,0,1-2.24,1.92,3.25,3.25,0,0,0-1,.43,6.09,6.09,0,0,0-.83.57,5.13,5.13,0,0,1-1.77,1.06,16.23,16.23,0,0,1-4,1.37,26.28,26.28,0,0,0-4.34-.41,1,1,0,0,0-.56.36.61.61,0,0,1-.5.15h-.27a4.47,4.47,0,0,1-.82-.57c-.24-.24-.47-.5-.69-.72a7.79,7.79,0,0,0-.65-.64,1.74,1.74,0,0,0-.72-.32H42.6a1.1,1.1,0,0,0-1,.79,11.35,11.35,0,0,0-.38,2.88c0,.33,0,.66.05,1a10.13,10.13,0,0,0,1,3.44c1.05,2,3.17,2.38,5.29,2.81q.77,0,1.53-.09L49,61.6a8.47,8.47,0,0,0-1.48-1.12,3,3,0,0,0-1.47-.41h-.21a9.45,9.45,0,0,1-1-.71,9.77,9.77,0,0,1-1.67-1.72,3.48,3.48,0,0,1-.79-1.76h0v0c0-.49.29-.74,1-.75,0,0,.46-.1,1-.25s1.18-.33,1.59-.44a14.59,14.59,0,0,0,1.81.33,22.17,22.17,0,0,0,2.65.16c.51,0,1,0,1.58-.06a23.92,23.92,0,0,0,4.5-.82l1.65-.44a4,4,0,0,1,.75-.12.42.42,0,0,1,.18,0l.62-.25a10.06,10.06,0,0,0,1.57-.88,16.46,16.46,0,0,0,4.06-4.19c.65-.91,1.26-1.9,1.87-2.94l.94-1.58.07-.14c.18-.6.38-1.19.62-1.78a20.86,20.86,0,0,1,2.36-4.25,29.58,29.58,0,0,0,1.19-3.69l.3-.32a9,9,0,0,1,.81-.78l.06-.05L73,32.31h-.72s0-.11.15-.29l-.87-.43"/><path class="e" d="M73.88,32.44l-.25.21-.06.05a9,9,0,0,0-.81.78l-.3.32a29.58,29.58,0,0,1-1.19,3.69A43.69,43.69,0,0,1,69.15,42c-.29.52-.57,1-.86,1.55l-.07.14-.94,1.58c-.61,1-1.22,2-1.87,2.94a16.46,16.46,0,0,1-4.06,4.19,10.06,10.06,0,0,1-1.57.88l-.62.25a.42.42,0,0,0-.18,0,4,4,0,0,0-.75.12L56.58,54a23.92,23.92,0,0,1-4.5.82c-.53,0-1.07.06-1.58.06a22.17,22.17,0,0,1-2.65-.16A14.59,14.59,0,0,1,46,54.42c-.41.11-1,.26-1.59.44s-1,.25-1,.25c-.74,0-1,.26-1,.75v0a3.48,3.48,0,0,0,.79,1.76,9.77,9.77,0,0,0,1.67,1.72,9.45,9.45,0,0,0,1,.71h.21a3,3,0,0,1,1.47.41A8.47,8.47,0,0,1,49,61.6c.45.42.85.85,1.14,1.17l.36.41.1.12a2.36,2.36,0,0,0,.39.23,8.79,8.79,0,0,0,3.41.58c.31,0,.62,0,.93,0a18.27,18.27,0,0,0,3.47-.55.76.76,0,0,0,.43.11A6.08,6.08,0,0,0,62,62.55a17.75,17.75,0,0,0,3.34-2.73l.27-.32c.47-.69,1-1.47,1.59-2.34s1-1.75,1.43-2.6a30.93,30.93,0,0,1,2.21-4c.52-.71,1-1,1.46-1a1,1,0,0,1,.44.1,2.18,2.18,0,0,0,.68-.14l.28-.14a2.25,2.25,0,0,1,.24-.3c.21-.22.43-.44.63-.63s.3-.25.42-.35a28.06,28.06,0,0,0,1.88-5.17l.12-.48c.22-.87.45-1.84.72-2.73l.06-.2c0-.19,0-.41,0-.68a13.48,13.48,0,0,0-.45-2.61,4.85,4.85,0,0,0-3.37-3.73"/><path class="f" d="M78.44,27.55A5.82,5.82,0,0,0,75,28.94a10.93,10.93,0,0,0-2,2.21,7.6,7.6,0,0,0-.54.87c-.1.18-.15.29-.15.29H73c2.65.16,3.76,2.09,4.27,3.86a13.48,13.48,0,0,1,.45,2.61c.06.66.06,1.1.06,1.16h0c-.35,1.11-.64,2.08-.91,2.93A28.06,28.06,0,0,1,75,48a3.53,3.53,0,0,1-.33.47,2.14,2.14,0,0,1-.64.61c-.11.08-.22.14-.32.2l-.28.14a2.18,2.18,0,0,1-.68.14,1,1,0,0,0-.44-.1c-.47,0-.94.34-1.46,1a30.93,30.93,0,0,0-2.21,4c-.43.85-.86,1.69-1.43,2.6s-1.12,1.65-1.59,2.34l-.27.32c-.31.4-.59.75-.82,1a4.53,4.53,0,0,1,1.7-.73A10.42,10.42,0,0,1,68,59.81a7.22,7.22,0,0,1,.94-1,12.8,12.8,0,0,1,1.24-1,18.11,18.11,0,0,1,2.63-1.54,10,10,0,0,1,2.95-.93,4.84,4.84,0,0,0,.91.11,1.92,1.92,0,0,0,.69-.11c.33-.09.38-.16.45-.37a1.18,1.18,0,0,0,.06-.43c0-.24,0-.47,0-.52h0a5.15,5.15,0,0,1-.5-1.76h0v0c0-.28.08-.33.08-.33a4,4,0,0,0,.75-1.24c.14-.27.28-.59.43-.94l.52-1.08A40.37,40.37,0,0,1,82,43.52c1.14-1.73,2.38-3.33,3.31-4.48s1.57-1.9,1.57-1.9a2.29,2.29,0,0,0,.56-1.54,6,6,0,0,0-2.15-3.93,14.93,14.93,0,0,0-2.78-2.1,10.91,10.91,0,0,0-1.47-.76,3.35,3.35,0,0,0-2.62-1.26"/><path class="f" d="M64.5,60.85a2.3,2.3,0,0,0-.68.8l.51-.58.17-.22"/><path class="g" d="M82.59,19.81a3.4,3.4,0,0,0-.45,0,13.17,13.17,0,0,0-2.78.55,22.2,22.2,0,0,0-3.55,3.43c.54-.11,1.07-.17,1.59-.23l.71-.08c.77-.09,1.52-.15,2.26-.17a5.16,5.16,0,0,1,1.74-.29,6.79,6.79,0,0,1,3,.71c.87.28,1.55,1.6,1.84,2.73v.08h0c0,.36-.23.77-.23,1.13v.1c.3,1.32,1.12,2.21,1.11,3.58h0a3.73,3.73,0,0,1-.07.72.87.87,0,0,0-.05.28,2.79,2.79,0,0,0,1,1.74.72.72,0,0,0,.29.05,8,8,0,0,0,1.69-.33c1-.24,2.31-.62,3.63-.91s2.71-.54,3.78-.71A15.09,15.09,0,0,1,99.89,32l.19,0h0a1,1,0,0,0,.49-.24.94.94,0,0,1,.49-.24h0c1.1.61,1.47,1.91,1.93,3.13.68,1.48,3.31,3,3.31,3.15h0c-.83,1-1.49,2.5-2.61,3-.14.06-.26.46-.4.68a2.2,2.2,0,0,0-.07.58c0,.2,0,.37.08.41h0c-.06,0-.09,0-.09,0s.48.51,1.06.88a6.11,6.11,0,0,0,1.92.93q.12,0,.12-.09a.5.5,0,0,0,0-.15h0c.36.6,1,.67,1.71.67h.59a3.24,3.24,0,0,1,1.49.26c1,.43,1.38,1.92,2.49,1.95.84.16,1.81.08,1.94,1a3.55,3.55,0,0,0,.55,1.42c.83.64,1.94.8,2.37,1.77.17.51.17,1.28.37,1.83a.84.84,0,0,0,.83.65h0l.2,0,.26.09a1.24,1.24,0,0,0,.41.12.27.27,0,0,0,.23-.1c-.16-.26-.19-.7-.39-1-.32-.75-1-1.12-1.18-1.91s-.4-1.6-.76-2.3a3.83,3.83,0,0,0-.92-1,13.58,13.58,0,0,0-3.93-2.94,1.14,1.14,0,0,1-.53.14c-.7,0-1.17-.78-1.7-1.11-.19-.14-.28-.44-.46-.69-.57-.44-1.42-.43-1.52-1.27a18.52,18.52,0,0,0-1-5.16,16.84,16.84,0,0,0-2-3.29,18.64,18.64,0,0,0-2.56-2.9,5.61,5.61,0,0,0-2.25-1.09,13.49,13.49,0,0,1-2.43-.84h0s.09-.12.24-.24L97.79,28c-.16.08-.68.13-.84.21a2.65,2.65,0,0,1-1-.86,10,10,0,0,0-4.7-3.84,49.71,49.71,0,0,1-5.9-2.9,6.18,6.18,0,0,0-2.71-.77"/><path class="h" d="M80.53,53.87v.22c0,.7,0,1.22,0,1.62v.06h0c0-.44,0-1.05,0-1.9"/><path class="a" d="M80.51,56.45h0c0,.16,0,.26,0,.33h0c0-.06,0-.16,0-.33m0-.66h0V56h0v-.19h0"/><path class="h" d="M80.51,55.79h0v.66c0,.16,0,.27,0,.33,0-.11,0-.34,0-.8v-.19h0"/><path class="h" d="M80.36,57a1.44,1.44,0,0,0,.07.31,1.61,1.61,0,0,1-.07-.31"/><path class="h" d="M80.43,57.32v0h0v0"/><path class="h" d="M80.44,57.36l0,0,.52.84.07.11-.07-.1-.52-.85,0,0"/><path class="h" d="M81.06,58.36c.12.19.23.32.27.38l0,0a4.41,4.41,0,0,1-.29-.4"/><path class="a" d="M80.14,59.39h0c-.28.2-.77.47-1.34.81L77,61.29l-.35.13h0l.35-.13h0L78.8,60.2h0l0,0c.55-.33,1-.59,1.3-.79m1-.33h0m0,0h0"/><path class="h" d="M77,61.29l-.35.13a9.67,9.67,0,0,0-1.38.66,9.67,9.67,0,0,1,1.38-.66l.35-.13M78.8,60.2,77,61.29,78.8,60.2m1.59-1.08c0,.07-.1.16-.25.27s-.75.46-1.3.79c.84-.5,1.52-.85,1.55-1.06"/><path class="h" d="M75.26,62.08a17.18,17.18,0,0,0-1.55,1l-.68.52a17.91,17.91,0,0,1,2.23-1.54"/><path class="h" d="M73,63.62c-.51.39-1,.78-1.45,1.17l-.39.36.39-.35c.45-.4.94-.79,1.45-1.18"/><path class="h" d="M71.19,65.15c-.51.45-1,.89-1.42,1.29.44-.4.91-.84,1.42-1.29"/><path class="h" d="M67.55,68.69c-.51.56-.79.91-.79.91s.28-.35.79-.91"/><path class="i" d="M100.43,27.56a3.64,3.64,0,0,0-2,.57c-.15.12-.24.21-.24.24h0a13.49,13.49,0,0,0,2.43.84,5.61,5.61,0,0,1,2.25,1.09,18.64,18.64,0,0,1,2.56,2.9,16.84,16.84,0,0,1,2,3.29,18.52,18.52,0,0,1,1,5.16c.1.84.95.83,1.52,1.27.18.25.27.55.46.69.53.33,1,1.11,1.7,1.11a1.14,1.14,0,0,0,.53-.14,13.58,13.58,0,0,1,3.93,2.94,3.83,3.83,0,0,1,.92,1c.36.7.46,1.55.76,2.3s.86,1.16,1.18,1.91c.2.35.23.79.39,1a.7.7,0,0,1,.26.08.55.55,0,0,0,.23.07.12.12,0,0,0,.12-.11,1,1,0,0,0,.09-.39c0-.22,0-.44-.06-.64-.36-1.3-.5-2.68-.88-3.82a13.78,13.78,0,0,0-4-6.39.76.76,0,0,0-.49-.14l-.4,0a2.85,2.85,0,0,1-.4,0h-.11a2.71,2.71,0,0,1-1.28-.43,2.85,2.85,0,0,0-1.36-.44,2,2,0,0,0-.61.1.18.18,0,0,1-.1,0,.45.45,0,0,1-.37-.27,58.45,58.45,0,0,0-2.07-7,12.59,12.59,0,0,0-2.1-3.25,24.22,24.22,0,0,0-2.43-2.59,6.05,6.05,0,0,0-3.33-1.14"/><path d="M68.72,75.94c-5,4.3-10.42,3.54-15.63,2.62A104.23,104.23,0,0,1,39,74.84,17.09,17.09,0,0,1,28,64.11c-1.51-4.1,0-7.55,4.67-9.46C37,52.88,41.65,51.82,46,50a35.27,35.27,0,0,0,7.46-4.54c2.81-2.1,5.36-4.53,8-6.81s5.19-4.58,7.88-6.74a32.86,32.86,0,0,1,16-7c7.9-1.15,15.5-.19,21.85,5a48.47,48.47,0,0,1,10.62,12.3c2.43,4,5.21,7.73,7.8,11.61,1.41,2.09,2.79,4.19,4.12,6.32,1.18,1.91,0,5.54-1.74,6.91-1.91,1.49-3.27,3.81-5.32,5a52.15,52.15,0,0,1-12.08,5.39c-4.52,1.17-9.36,1.27-14.08,1.54-3.15.18-6.34-.16-9.51-.25-.44,0-.87,0-1.44.07a32.11,32.11,0,0,0,.75,10.8q2.24,7.71,4.17,15.49c1.41,5.69,0,10.58-4.54,14.44-.52.44-1.24.65-1.77,1.08a19.86,19.86,0,0,0-1.65,1.69c-2.57.24-5.32.47-8,.81-.3,0-.51.76-.75,1.13l-1.16-1.72-.46.16c-.24,1.57-.47,3.14-.71,4.71h-.54c0-1.31.08-2.62,0-3.92a1.79,1.79,0,0,0-.83-1.35c-3.94-1.21-5.66-4.42-7.15-7.81-.61-1.38-1-2.87-1.51-4.28-1.73-4.43-.69-8.8,1-12.83A114.86,114.86,0,0,0,68.72,75.94ZM31.17,57.27l.18.67c2.91,1.11,5.78,2.37,8.76,3.26a20.54,20.54,0,0,0,6.31.94c6.47-.15,12.74-1.79,19-3.18,5.46-1.22,10.74-3.3,16.49-3,1.34.08,2.72-.51,4-.41,1.62.12,3.2.7,4.81,1,1.15.18,2.35,0,3.48.26,3,.6,6,1.61,9,1.92,3.85.41,7.8,0,11.64.47s7-1.6,10.88-2.3a42.87,42.87,0,0,1-2.92-3.49c-3.58-5.33-6.91-10.84-10.69-16A30.42,30.42,0,0,0,104.84,30a26,26,0,0,0-18.32-3.84,35.08,35.08,0,0,0-19.08,9.19c-4.85,4.44-9.79,8.78-14.88,12.93a22.6,22.6,0,0,1-6.32,3.28C42.48,53,38.59,54,34.8,55.37A26.15,26.15,0,0,0,31.17,57.27Zm50.77,62.42c3.47-.86,6.67-4.77,7.3-8.5a19,19,0,0,0-.86-8.57C87.12,98.31,85.9,94,84.59,89.46l-3,5.24-.52-.27c.8-1.82,1.34-3.83,2.49-5.39a3.11,3.11,0,0,0,.62-2.36c-.12-1.7-.31-3.4-.33-5.11,0-2.79-1.13-5.49-.43-8.37a5.34,5.34,0,0,0-.81-3.32c-1.35-2.55-3.77-3-6.34-2.65a6,6,0,0,0-5.2,4.17,27.26,27.26,0,0,0-.66,4.09,101.27,101.27,0,0,1-6.63,22.15C60.5,105.24,62.66,112,67,118.29c.78,1.14,2.35,1.74,3.55,2.58l.39-.59-1.2-.79.83-1.91.65-.07,1.45,3.9.53-.16a18.92,18.92,0,0,1-.08-2,5.28,5.28,0,0,1,.32-1.21c.3.38.77.72.87,1.14a10.76,10.76,0,0,1,0,2.14h2.89c-1.91-1.67-1.12-3.08-.3-4.52a7.57,7.57,0,0,0,.35-1.08c.26-.65.56-1.29.84-1.93a16.2,16.2,0,0,0,1.06,1.27,2.92,2.92,0,0,0,.78.46l-1.21,3.35-1.27-1a4.1,4.1,0,0,0-.1,1.24c.17.73.47,1.41.75,2.24l2.33-.76-.49-.23c.29-1.55.58-3.11.91-4.92C83.49,116.68,79.88,118.71,81.94,119.69ZM30.08,59.18l-.27.69a17,17,0,0,0,1.26,1.64c5.13,5.33,11.65,8,18.7,9.52A120,120,0,0,0,62.22,73.2c2.19.23,4.47-.44,7-.73-2.69-.82-5-1.22-7.06-2.22a72.81,72.81,0,0,1-9.06-5.32c-1.18-.81-2.12-1.59-3.67-1.53a26.71,26.71,0,0,1-7.05-.22c-2.91-.67-5.63-2.07-8.47-3.07A38,38,0,0,0,30.08,59.18ZM86.25,75.77l.11.52c4.12-.24,8.24-.47,12.36-.74a17.51,17.51,0,0,0,3-.42A32.48,32.48,0,0,0,118,66.2a75.17,75.17,0,0,0,4.78-6.13c-2.85.27-5.1.42-7.32.75a3.72,3.72,0,0,0-1.64,1.1c-2.09,1.91-4.12,3.9-6.23,5.79a27,27,0,0,1-12.77,6.07C92,74.39,89.11,75.1,86.25,75.77ZM68,74.19a28.76,28.76,0,0,1-5.06.33c-3.24-.36-6.44-1.07-9.68-1.53a45.19,45.19,0,0,1-20.48-8,36.61,36.61,0,0,1-3.18-2.88c-.1.28-.18.4-.17.51a4.58,4.58,0,0,0,.18.73c1.68,5.4,5.64,8.55,10.71,10.32a83.27,83.27,0,0,0,11.46,3,55.89,55.89,0,0,0,9.33.83A9.07,9.07,0,0,0,68,74.19ZM112.7,60.72c-1.78,0-3.52.41-4.92-.09-3-1-5-.2-6.72,2.17a8.56,8.56,0,0,1-.67.68,29.83,29.83,0,0,1-14.08,8.71c-1.29.38-1.27,1.11-1.1,2.13C96,73.11,105.71,70,112.7,60.72ZM96.29,77.45v.15c3.65-.27,7.33-.32,10.94-.88,7.26-1.13,13.69-4,18.6-9.75a6.28,6.28,0,0,0,1.42-6.65c-.23-.63-.82-1.55-1.28-1.58a2.35,2.35,0,0,0-1.72,1.2,29.27,29.27,0,0,1-7.36,9.21,25.43,25.43,0,0,1-11.11,6.12C102.62,76,99.45,76.72,96.29,77.45ZM85.12,71.08c6.9-1.56,12-5.55,16.43-11a46.75,46.75,0,0,1-5.4-1.36,2.06,2.06,0,0,0-2.85.95c-2.47,3.78-5.39,7.14-9.57,9.18ZM52.53,63a20.63,20.63,0,0,0,3.07,2.51q4.57,2.42,9.28,4.57c2.28,1,4.57.55,5.19-.68l-8.81-6.54c-.54-.4-1.13-1.18-1.62-1.13C57.42,62,55.22,62.47,52.53,63Zm9.15-1.7-.29.66c3,1.8,5.94,3.64,9,5.35a2.25,2.25,0,0,0,1.86-.18,1.62,1.62,0,0,0,.44-1.42c-.5-2.24-1.13-4.46-1.68-6.56ZM92.5,58l-6.34-.5c-1.26,3.33-2.5,6.65-4,10.5C87.15,65.8,90,62.33,92.5,58ZM81,66.16c1.65-2.62,3.12-5.33,3.17-8.73H78.88c0,2.17.08,4.29,0,6.4C78.78,65.35,79.39,66.07,81,66.16Zm-3.52-.75V57.5l-5.36,1c.75,2.66,1.46,5.15,2.16,7.64Z"/><path d="M108.39,53.54c.75-1.66,1.39-3,2-4.43.37-.86.61-1.79,1-2.62.15-.29.69-.37,1-.55.11.27.4.62.32.78-1.11,2.25-2.27,4.47-3.43,6.69C109.32,53.47,109.12,53.45,108.39,53.54Z"/><path d="M114.33,46.82c.23.76.6,1.32.45,1.61-1,1.93-2.13,3.82-3.28,5.68-.2.31-.74.41-1.49.79C111.49,52.12,112.75,49.79,114.33,46.82Z"/><path d="M106.58,49.16c.77-3.44,2.71-6.8,4-6.49l-3.41,6.79Z"/><path d="M107.14,51.36c1-2.28,2-4.56,3.09-6.82.11-.25.57-.33.87-.49.12.24.42.57.35.72-1.21,2.35-2.46,4.68-3.7,7Z"/><path d="M105.14,47.44c.54-1.35,1.08-2.7,1.61-4,.29-.76.49-1.56.84-2.29.12-.24.57-.32.87-.47.11.3.38.67.28.88-1,2.08-2,4.13-3,6.19Z"/><path d="M115.75,49.57a6.48,6.48,0,0,1-.26,2c-.62,1.26-.81,2.9-2.68,3.3.73-1.75,1.47-3.5,2.2-5.24Z"/><path d="M107.69,39l-2.62,5.8-.43-.2a31.65,31.65,0,0,1,2-6.13Z"/><path d="M115.09,54.76c.42-1.14.81-2.29,1.3-3.4.1-.22.58-.28.88-.41.06.31.26.69.15.92C116.9,53,116.28,54,115.7,55Z"/><path d="M76.53,81.32A6.79,6.79,0,0,1,76.87,80c1.15-2.36,2.31-4.73,3.55-7,.18-.34.78-.45,1.18-.67l.27.52q-2.36,4.33-4.73,8.66Z"/><path d="M82.13,79.48A5.1,5.1,0,0,1,82,81.06c-1.76,4.2-2.94,5.82-4.2,5.79l3.66-7.35Z"/><path d="M79.66,69.33,74.91,77C74.58,74.5,78,69.38,79.66,69.33Z"/><path d="M77.2,83.89c1.25-2.5,2.49-5,4.08-8.17.3.69.65,1.12.55,1.32-1.22,2.45-2.51,4.87-3.78,7.3Z"/><path d="M82.23,82.68c.29,2.92-1.61,5-3,7.35C79.29,87.24,81.21,85.13,82.23,82.68Z"/><path d="M80.35,71.4l-3.84,7-.44,0c0-.46-.16-1,0-1.38C79,71.2,79,71.2,80.35,71.4Z"/><path d="M76.36,69.15c0,.48.26,1,.09,1.43-.76,1.69-1.63,3.34-2.46,5-.94-.59-.94-.59,1.68-6.34Z"/><path d="M79.85,91.87c1-2,2-4,3-6C83.82,87.05,82.05,90.9,79.85,91.87Z"/><path d="M73,115.28a23.25,23.25,0,0,1,0-2.77c0-.36.51-.67.78-1,.23.41.68.83.66,1.22a14.74,14.74,0,0,1-.54,2.77,4.17,4.17,0,0,1-.58,1l-.73-1Z"/><path d="M75.11,116.77v-4.14a8.92,8.92,0,0,1,1.31.34c-.16,1.31-.4,2.61-.63,3.92Z"/></svg>