<svg xmlns="http://www.w3.org/2000/svg" viewBox="0 0 150 150"><defs><style>.a{fill:#f4f6c3;}.b{fill:#e8ec9a;}.c{fill:#e5ea8d;}.d{fill:#d5dd50;}.e{fill:#d2dc4b;}.f{fill:#d8e05a;}.g{fill:#e0e779;}.h{fill:#f2f4bc;}.i{fill:#f4f4c7;}.j{fill:#dde472;}.k{fill:#e5eb8c;}.l{fill:#f9f9e4;}</style></defs><title>icon</title><path class="a" d="M103,113.22h0l-3.89,2.39h0l3.89-2.39m1.78-1.12h0L103,113.22h0l1.78-1.12m9.12-6.16h0l-.29.21-.67.48h0l1-.69h0m5.7-6.73h0a43.69,43.69,0,0,1-3.84,4.86h0a43.69,43.69,0,0,0,3.84-4.86h0M123.47,92h0c-.18.46-.39.95-.62,1.46h0c-.47,1-1,2.13-1.7,3.27h0c.66-1.14,1.23-2.26,1.7-3.27.23-.51.44-1,.62-1.46m3.2-12.26h0a30.12,30.12,0,0,1-.21,3.48h0l-.14,1h0c0,.33-.1.62-.14.86h0c-.09.48-.13.75-.13.75l-.07.14h0l.07-.14s0-.27.13-.75c0-.24.09-.53.14-.86l.14-1a30.12,30.12,0,0,0,.21-3.48h0m-.07-1.71h0l0,.35c0,.43,0,.89,0,1.36h0c0-.47,0-.93,0-1.36h0l0-.35m-3.44-5.55h0c.11.3.19.52.22.59h0c0-.07-.11-.29-.22-.59h0m-.49-1.62h0a.83.83,0,0,0,0,.15h0a.83.83,0,0,1,0-.15M122.55,68v.13h0a.72.72,0,0,0-.12.21h0a.72.72,0,0,1,.12-.21V68h0m0,0h0m-5.88-8.65h0a16.19,16.19,0,0,1,5.21,6.09h0a16.19,16.19,0,0,0-5.21-6.09"/><path class="b" d="M71.78,27.85a4.53,4.53,0,0,0-1.64.33,9.25,9.25,0,0,0-3.73,3,84,84,0,0,1-8.09,11.31,3.41,3.41,0,0,1-2,.41,5.17,5.17,0,0,0-2.19.38c-3,2.29-3.42,6.45-4.75,9.41a22.25,22.25,0,0,0-2.05,3A14.47,14.47,0,0,0,46.17,58a7.77,7.77,0,0,0-.65,2.93V61a2.74,2.74,0,0,0,.38,1.46h0s0,0-.07,0c-.15.2-.4.24-.74.24h-.16c-.32,0-.67-.06-1.06-.08-.24,0-.49,0-.74,0a2.78,2.78,0,0,0-1.94.64,7.36,7.36,0,0,0-1.51,4.53v.31a9.94,9.94,0,0,0,1.34,5A12.58,12.58,0,0,0,43.17,76a9.31,9.31,0,0,0,2.67,1.91,9.51,9.51,0,0,0,4.17.89l.66,0c1.35-.06,2.46-.27,3.4-.31h.24a2.78,2.78,0,0,1-.22-.42,11.77,11.77,0,0,1-.66-2.74,2.2,2.2,0,0,0-.71-1.3c-.24-.22-.52-.42-.52-.68h0v-.07a1.62,1.62,0,0,1,.7-.43l.24-.07h.07l.15-.08.18-.12h0a1.58,1.58,0,0,0,.15-.12l.07-.06a.94.94,0,0,0,.1-.1c.1-.1.2-.2.29-.31a.45.45,0,0,1,.26-.35h0l0,0,.11-.18,0-.07,0,.06,0,0a.14.14,0,0,1,0-.06v0l0,0,0-.06v0h0v0L55,69.92l0-.16.07-.38,0-.21,0,.18a2,2,0,0,0,0,.34v0h0v.09a6.78,6.78,0,0,0,.2,1.54c.59-.1,1.28-.23,1.53-.65a4.73,4.73,0,0,0,.42-2.59c.06-.87.28-1.62,1.07-1.62h.2c-.25,0-.36-.15-.36-.29h0c0-.35.7-.92,1.49-1.35a5.12,5.12,0,0,1,1.79-.57c.19,0,.3.06.3.18h0a.35.35,0,0,1,0,.13h0A4.27,4.27,0,0,1,63,65.88a9.85,9.85,0,0,1,.76,1.39c.31,2,2.12,4.68,3.35,7,0,0,.1,0,.21,0h.56a3.66,3.66,0,0,1,2.94,1.27c.62.73,1.23,1.6,1.73,2.25A4.25,4.25,0,0,0,73.77,79s0,0,0-.07c0-.28-.24-1.17-.24-1.5h0a.2.2,0,0,1,0-.09c.1-.07.26-2,.9-4.22a7.7,7.7,0,0,0-2.71-2.61c-1.87-.68-1.27-1.58-2.88-1.92h0s.49-.12,1.38-.41c-.32,0-.79-.08-1.34-.11-.35,0-.73,0-1.12,0a13.6,13.6,0,0,0-2.09.15l-.06,0-.14,0-.08,0h0l.1,0,.12,0,.52-.13,1.16-.32.38-.11.29-.09.51-.16h0l.47-.17.45-.17.27-.1.26-.11,4.48-1.92.21-.09,1.1-.49h0l.92-.42.84-.39.14-.07.31-.15h0l-.31.15h0l-.09.05,0,0c.61-.29,1.1-.54,1.51-.76a7.11,7.11,0,0,1,.51-2s.16-.39.48-1.08.82-1.61,1.51-2.75c.35-.56.74-1.18,1.2-1.82a7,7,0,0,1,1.82-1.85,5.63,5.63,0,0,1,3.2-.94h.35a13.88,13.88,0,0,1,4.45,1c1.4.54,2.66,1.19,3.8,1.74.57.28,1.08.47,1.61.73s1.06.53,1.57.82A25.91,25.91,0,0,1,105.21,61c3.26,3.33,5.3,7.11,5.67,10.08,0,0,0,.32.5.92a11.48,11.48,0,0,0,3.49,2.52,6.06,6.06,0,0,1,.56.88,7.14,7.14,0,0,1,.79,2.63,9.48,9.48,0,0,1,.06,1.1h0a10.28,10.28,0,0,1-.56,3.33,8.72,8.72,0,0,1-3.27,4.45l-1.8,2.39a56.69,56.69,0,0,1-5,5.72A49.27,49.27,0,0,1,99,100.53l-2.93,2a16.41,16.41,0,0,0-2.16,1.83s-.43,0-1.09,0c-.46,0-1,0-1.6,0l-.82,0a10.26,10.26,0,0,0-2.64.37,5.89,5.89,0,0,0-.59.21c-.14.12-.27.24-.4.34l-1,.83h0a3.25,3.25,0,0,1,1.42-1.17c.49-.41,1.08-.94,1.75-1.56a24.78,24.78,0,0,1-6.42,3.41,10.94,10.94,0,0,1-3.3.64,2,2,0,0,1-1.77-.64,23,23,0,0,1-5.17-.78,10.84,10.84,0,0,1-5.09-2.92c.25.46.49.93.72,1.43,1.31,2.7,2.59,6,4,9.29l.72,2c.28.7.57,1.41.89,2.13A23.59,23.59,0,0,0,75.63,122c1.41,2,3.23,3.52,5.64,3.52a6.8,6.8,0,0,0,1.62-.21c3.74-1.16,7.15-3.45,10.69-5.91,1.76-1.24,3.56-2.49,5.54-3.79l-4,2.49h0l-.1.06c-1.06.68-1.94,1.24-2.76,1.79h0c-.85.57-1.53,1-2.11,1.45s-1,.76-1.34,1l-.45.36.45-.36h0l-.45.36.45-.36h0l-.45.36.45-.36c.31-.23.77-.58,1.34-1s1.26-.88,2.11-1.45h0c.82-.55,1.7-1.11,2.76-1.79l.1-.06h0l4-2.49c1.72-1.13,3.57-2.29,5.67-3.5,2.46-1.56,5.21-3.38,8.16-5.48a36.8,36.8,0,0,0,10.14-13.94c.09-.15.23-.37.38-.65s.21-.56.29-.8a7.85,7.85,0,0,0,.38-1.54c.35-.66.67-1.29,1-2l.84-1.69c.26-3.27.62-6,.62-7.94v-.05a6.44,6.44,0,0,0-.88-3,5.74,5.74,0,0,0-.74-.92,7.43,7.43,0,0,0-1.42-.93l-.17-.06v0l-.1,0a8.39,8.39,0,0,1-.61-2.16,9,9,0,0,1-.32-2h0a1.66,1.66,0,0,1,.08-.58,9,9,0,0,0-2.63-5.95c-1-1-2-2-3.13-3-.29-.22-.6-.44-.92-.66.32.22.63.44.92.66h0c-.29-.22-.6-.44-.92-.66.32.22.63.44.92.66h0c-.29-.22-.6-.44-.92-.66.32.22.63.44.92.66-1.72-1.63-3.51-3.27-5.29-4.9l-2.15-2-1.07-1c-.35-.34-.68-.65-1.09-1.12-.8-.91-1.73-2.11-3-3.61a35.55,35.55,0,0,0-5.41-5.23A26.45,26.45,0,0,0,94,38.67a24.92,24.92,0,0,0-4.19-1.5,30.33,30.33,0,0,0-4.43-.79,26.48,26.48,0,0,1-4.48-1c-.54-.11-1.72-1.41-3-2.77L74.46,29a3.67,3.67,0,0,0-2.68-1.17"/><path class="c" d="M92.22,120h0l0,0c-.83.56-1.5,1-2.07,1.43h0l-1.32,1h0l-.45.36.45-.36c.31-.23.77-.58,1.34-1s1.26-.88,2.11-1.45h0m2.86-1.85h0l-.1.06.1-.06h0m29.9-44h0a5.74,5.74,0,0,1,.74.92,6.44,6.44,0,0,1,.88,3h0a6.73,6.73,0,0,0-.85-3l0,0h0a5.74,5.74,0,0,0-.74-.92h0m-1.6-1h0v0l.17.06h0l-.14,0h0v0h0m-1-4.2h0a9,9,0,0,0,.32,2h0a9,9,0,0,1-.32-2m-6.6-10.23c.32.22.63.44.92.66h0c-.29-.22-.6-.44-.92-.66"/><path class="b" d="M87.76,63s-.35,0-.94.11l.39,0a28.91,28.91,0,0,1,6.26,1.32A22.86,22.86,0,0,0,87.76,63"/><path class="b" d="M77.56,63.52l-.27.13-.11.06h0l-.06,0,.11-.06a4,4,0,0,0,.36-.17"/><path class="b" d="M77,63.79h0"/><path class="b" d="M76.09,64.21l-.21.1-.08,0,.26-.11,0,0"/><path class="b" d="M75.91,64.29l-.14.06h0l.11,0,0,0"/><path class="b" d="M75.23,64.59l0,0h0l0,0"/><polyline class="b" points="75.21 64.61 75.2 64.61 75.2 64.61 75.21 64.61"/><path class="b" d="M75.19,64.61h0l-.53.24-.16.07.22-.1.47-.21"/><path class="b" d="M69.91,66.88l-.2.09h0l.19-.09"/><path class="b" d="M69.32,67.12l-.06,0,.06,0"/><path class="b" d="M69.15,67.19l-.16,0-.26.1-.1,0,.52-.19"/><path class="b" d="M68.34,67.47l-.35.11-.16,0,.51-.16"/><path class="b" d="M71.85,67.49a7.63,7.63,0,0,0-.76.45l1-.36-.28-.09"/><path class="b" d="M122.43,68.33a1.66,1.66,0,0,0-.08.58,9,9,0,0,0,.32,2c-.14-.87-.17-1.71-.24-2.57"/><path class="b" d="M79.6,69.48l.06,0v0l-.05,0"/><path class="b" d="M80.57,69.92l0,.25a51.06,51.06,0,0,1,4,3.55l2,1.89a15.38,15.38,0,0,0-1.31-1.94,13.87,13.87,0,0,0-4.66-3.75"/><path class="b" d="M54.56,71.35l-.14.23h0a1.45,1.45,0,0,0,.12-.19l0,0"/><path class="b" d="M101.81,71.54c0,.34.09.75.14,1.2.11.89.26,1.79.43,2.64a5.08,5.08,0,0,0,.12-1.07,5.86,5.86,0,0,0-.24-1.6,8.68,8.68,0,0,0-.45-1.17"/><path class="b" d="M53.84,72.27l-.07.07a1.74,1.74,0,0,1-.22.18h0l-.16.11a2.33,2.33,0,0,0,.46-.37"/><path class="b" d="M53.37,72.64h0l-.11,0a.34.34,0,0,0,.12-.06"/><polyline class="b" points="53.31 72.71 53.3 72.71 53.3 72.71 53.29 72.71 53.29 72.71 53.29 72.71 53.29 72.71 53.3 72.71 53.3 72.71 53.3 72.71 53.27 72.72 53.31 72.71"/><polyline class="b" points="53.3 72.71 53.3 72.71 53.3 72.71 53.3 72.71 53.3 72.71"/><path class="b" d="M53.12,72.76h0"/><path class="b" d="M53.11,72.77h0"/><path class="b" d="M53.11,72.77h0"/><path class="b" d="M56.88,73.68l.1,0,.34.17L57,73.73l-.11,0m66.5-.57v0l.17.06-.18-.09"/><path class="b" d="M78.64,78.89l0,.43c-.06.73-.19,1.59-.26,2.35l.09,0,.24.05.38-2.45-.42-.42M125,74.13a5.74,5.74,0,0,1,.74.92,6.44,6.44,0,0,1,.88,3c0-.28,0-.55,0-.8a3.91,3.91,0,0,0-.8-2.34,5.91,5.91,0,0,0-.79-.8"/><path class="b" d="M79.07,79.32l-.38,2.44h0c.14-.87.26-1.69.38-2.44h0"/><path class="b" d="M53.22,79.6a2.07,2.07,0,0,0-.31,1.05,1.61,1.61,0,0,0,.06.44,71.56,71.56,0,0,0,2.54,7.27c.87,2.16,1.71,4.12,2.52,6,1.5,3.43,3.41,3.64,5.69,4.72a7.38,7.38,0,0,1,3,3.19A31.17,31.17,0,0,0,65.49,99L63.79,99c-2.29-1.08-4.2-1.29-5.7-4.73-.81-1.86-1.65-3.83-2.52-6A71.66,71.66,0,0,1,53,81a1.67,1.67,0,0,1-.06-.44h0a2,2,0,0,1,.24-.93"/><path class="b" d="M126,86.06l-.84,1.69c-.33.66-.65,1.29-1,2a7.85,7.85,0,0,1-.38,1.54c-.08.24-.18.51-.29.8.11-.2.23-.42.35-.66.28-.54.61-1.22.91-1.89s.56-1.33.77-1.89a12.87,12.87,0,0,0,.46-1.37l0-.17"/><path class="b" d="M113,106.63c-3,2.1-5.69,3.92-8.16,5.47l1.14-.65a41.46,41.46,0,0,0,7-4.82"/><path class="d" d="M54.37,78.54a2.23,2.23,0,0,0-1.15,1.06,2,2,0,0,1,1.16-1h0l-.06-.09"/><path class="d" d="M56.77,78.68l-.12,0,0,.09a7.41,7.41,0,0,1,1.58.76,35.71,35.71,0,0,0,3.38,2.14c.38-.15,1.07.08,1.35-.37a2,2,0,0,1,1-.74,11.78,11.78,0,0,1,6.28,2,6.41,6.41,0,0,0,1.21.13,6.48,6.48,0,0,0,1.19-.12l.41-.08-.09-.1-.3.06a6.4,6.4,0,0,1-1.19.12,6.13,6.13,0,0,1-1.18-.13,11.73,11.73,0,0,0-6.26-2,2,2,0,0,0-1,.74c-.28.44-1,.22-1.35.37a35.62,35.62,0,0,1-3.37-2.14,7.57,7.57,0,0,0-1.57-.76"/><path class="d" d="M79.08,79.27v0c.72.74,1.07,1.29,1.07,1.74h0v0c0,.44-.38.71-1,.71a2.68,2.68,0,0,1-.46,0v.1a3.25,3.25,0,0,0,.51,0c.63,0,1-.28,1-.73v-.05c0-.48-.38-1.06-1.15-1.86"/><path class="e" d="M72.13,67.58l-1,.36a3.3,3.3,0,0,0-.4.32l-.44-.05c-.89.29-1.38.41-1.38.41,1.61.34,1,1.24,2.88,1.92a7.7,7.7,0,0,1,2.71,2.61c.14-.45.29-.91.47-1.37a16.13,16.13,0,0,1,1.6-3.25,19.47,19.47,0,0,0-2.9-.41s-.63-.27-1.43-.52l-.07,0"/><path class="e" d="M78.65,69.12a8.14,8.14,0,0,1,.08,1.1h0a5.33,5.33,0,0,1,0,.71c-.07,1-.1,1.79-.1,2.53,0,1.45.09,2.6.09,3.92h0c0,.48,0,1,0,1.51l.42.42v0l1-6,.31-1.86-.07.44-.13.79s0,.09,0,.1h0v0h0v-.22h0v0a2.85,2.85,0,0,0,0-.29L80,71.56c-.1-.65-.22-1.34-.33-2l-.06,0c-.31-.13-.62-.25-.95-.36"/><path class="e" d="M80.53,70.17c0,.32-.11.64-.16,1-.25,1.5-.49,3-.72,4.42-.2,1.28-.39,2.53-.58,3.77h0v0c.77.8,1.15,1.38,1.15,1.86h0v.05c0,.45-.41.73-1,.73a3.25,3.25,0,0,1-.51,0h0v-.1h0c-.27,1.76-.53,3.48-.79,5.14l0,.19s0,0,0,.08v0h0v-.12l0,.21a4.78,4.78,0,0,0-.06.53,3.73,3.73,0,0,1,1.93.59h.16l.69,0A8.29,8.29,0,0,0,85.66,86a7.64,7.64,0,0,0,2-3.6,8.35,8.35,0,0,0,.23-1.93A9.11,9.11,0,0,0,87.55,78a10.9,10.9,0,0,0-1-2.38l-2-1.89a51.06,51.06,0,0,0-4-3.55"/><path class="e" d="M54.43,78.63h0A2,2,0,0,0,53,80.53,1.67,1.67,0,0,0,53,81a71.66,71.66,0,0,0,2.53,7.27c.87,2.16,1.71,4.13,2.52,6,1.5,3.44,3.41,3.65,5.7,4.73l1.7.05-.12-.26c-.77-1.7-1.78-3.33-3-3.33a1.86,1.86,0,0,0-.33,0s-.47-.53-1.09-1.32-1.44-1.87-2.16-2.94a8,8,0,0,1-1.61-3.6h0c0-.67.36-1.2,1.3-1.44,0,0,.67-.42,1.52-.87a13.88,13.88,0,0,1,2.51-1.13s1.14.29,2.73.75S68.87,86,70.83,86.5a39.36,39.36,0,0,0,5.49,1.09l1.34.18a38,38,0,0,0-.94-4.47,2.43,2.43,0,0,0-.46-1.06v.23h0v.33a3.11,3.11,0,0,0,0,.34h0a.31.31,0,0,1-.13.06l0,.14c.06.42.14,1,.19,1.51s.08.73.08,1h0c0,.24,0,.38-.13.38s-.19-.08-.35-.26l-.61-.86c-.31-.4-.7-.89-1.18-1.43-.34-.37-.7-.75-1.08-1.13l-.41.08a6.48,6.48,0,0,1-1.19.12,6.41,6.41,0,0,1-1.21-.13,11.78,11.78,0,0,0-6.28-2,2,2,0,0,0-1,.74c-.28.45-1,.22-1.35.37a35.71,35.71,0,0,1-3.38-2.14,7.41,7.41,0,0,0-1.58-.76l0-.09a1.58,1.58,0,0,0-.83.25,1,1,0,0,1-.55.19,1.12,1.12,0,0,1-.84-.51"/><path class="e" d="M78.35,81.67c0,.09,0,.18,0,.27-.12,2.06-.36,4.42-.45,5.11l0-.15.53-3.48.25-1.66-.24-.05-.09,0"/><path class="f" d="M86.82,63.13c-.37,0-.82.11-1.35.2-1.06.18-2.39.47-3.82.83l-.07.31,0,.1c-.09.42-.17.83-.25,1.25l-.21,1.1-.18,1c-.12.67-.23,1.35-.35,2a13.87,13.87,0,0,1,4.66,3.75,15.38,15.38,0,0,1,1.31,1.94,10.9,10.9,0,0,1,1,2.38,9.11,9.11,0,0,1,.38,2.52h0a8.35,8.35,0,0,1-.23,1.93,7.64,7.64,0,0,1-2,3.6,8.29,8.29,0,0,1-5.1,2.31l-.69,0h-.16a3.73,3.73,0,0,0-1.93-.59,2.11,2.11,0,0,0,0,.26,3.54,3.54,0,0,0,0,.45v.36c0-.35,0-.7-.07-1.09l-1.34-.18a39.36,39.36,0,0,1-5.49-1.09c-2-.52-4-1.14-5.57-1.59s-2.73-.75-2.73-.75A13.88,13.88,0,0,0,60,85.29c-.85.45-1.52.87-1.52.87-.94.24-1.3.77-1.3,1.44a8,8,0,0,0,1.61,3.6c.72,1.07,1.52,2.14,2.16,2.94s1.09,1.32,1.09,1.32a1.86,1.86,0,0,1,.33,0c1.2,0,2.21,1.63,3,3.33a30.65,30.65,0,0,1,1.33,3.51l.08.25a3,3,0,0,0,.38.57A10.84,10.84,0,0,0,72.25,106a23,23,0,0,0,5.17.78,2,2,0,0,0,1.77.64,10.94,10.94,0,0,0,3.3-.64,24.78,24.78,0,0,0,6.42-3.41l.5-.48a34.69,34.69,0,0,0,7-9.37,29.82,29.82,0,0,0,2.21-6.15,48.19,48.19,0,0,0,.84-5c.33-2.75.73-4.33,2-4.88a5.53,5.53,0,0,0,.7-1.41,6.36,6.36,0,0,0,.2-.66c-.17-.85-.32-1.75-.43-2.64,0-.45-.1-.86-.14-1.2a12.33,12.33,0,0,0-3.24-4,18.87,18.87,0,0,0-5.1-3,28.91,28.91,0,0,0-6.26-1.32l-.39,0"/><path class="f" d="M78,63.32l-.31.15.31-.15"/><path class="f" d="M77.29,63.65l-.14.07h0l.11-.06m.38-.18-.14.07h0l.09-.05h0"/><path class="f" d="M77,63.8l-.44.2-.35.17L77,63.8h0"/><path class="f" d="M81.64,64.17h0c0,.1,0,.21-.07.32v0l.06-.3m-5-.24-.92.42.14-.06.63-.29.15-.07"/><path class="f" d="M81.56,64.56l0,.1,0-.09h0m-5.79-.21h0"/><path class="f" d="M75.29,64.57l-.08,0h0l0,0,.06,0"/><path class="f" d="M75.21,64.61h0"/><path class="f" d="M75.19,64.61h0m0,0h0l-.47.21-.22.1-.14.06.25-.11.6-.26"/><path class="f" d="M81.51,64.8c0,.21-.09.44-.14.7l0,.15.17-.85"/><path class="f" d="M79.05,64.9c-1.53.46-3.06,1-4.42,1.45-1.06.4-2,.76-2.78,1.14l.35.11c.8.25,1.43.52,1.43.52a19.47,19.47,0,0,1,2.9.41,2.9,2.9,0,0,1,.19-.29c.52-.73,1-1.21,1.24-1.21a.13.13,0,0,1,.1,0,6.49,6.49,0,0,1,.59,2.05c.33.11.64.23.95.36l.05,0c-.18-1.13-.37-2.3-.5-3.43-.05-.39-.08-.79-.1-1.17"/><path class="f" d="M74.45,64.94,70,66.86l.74-.31L74.27,65l.18-.08"/><path class="f" d="M70.57,66.6l-.66.28-.19.09h-.06l.14-.06.77-.33"/><path class="f" d="M69.65,67l-.06,0-.24.09.3-.11m.06,0-.27.1.15,0,.1,0h0"/><path class="f" d="M80.94,67.77v0"/><path class="g" d="M83,59.91h0m0,0h0m0,0h0m4.83-7.59a5.63,5.63,0,0,0-3.2.94,7,7,0,0,0-1.82,1.85c-.46.64-.85,1.26-1.2,1.82-.69,1.14-1.18,2.08-1.51,2.75s-.48,1.08-.48,1.08a7.11,7.11,0,0,0-.51,2c-.41.22-.9.47-1.51.76h0l.08,0A30.72,30.72,0,0,0,81,61.66c.35-.23.66-.44.9-.63a6.21,6.21,0,0,0,.79-.71,3.1,3.1,0,0,0,.21-.25l.06-.08,0-.07h0l0,0,0,.06-.06.11c-.06.11-.12.25-.19.41a10.25,10.25,0,0,0-.38,1c-.1.33-.21.72-.33,1.21l-.08.32-.13.52c0,.18-.07.36-.11.53,1.43-.36,2.76-.65,3.82-.83,1.39-.24,2.29-.31,2.29-.31a22.86,22.86,0,0,1,5.71,1.46,18.87,18.87,0,0,1,5.1,3,12.33,12.33,0,0,1,3.24,4,8.68,8.68,0,0,1,.45,1.17,5.86,5.86,0,0,1,.24,1.6h0a5.08,5.08,0,0,1-.12,1.07,6.36,6.36,0,0,1-.2.66,5.53,5.53,0,0,1-.7,1.41c-1.31.55-1.71,2.13-2,4.88a48.19,48.19,0,0,1-.84,5,29.82,29.82,0,0,1-2.21,6.15,34.69,34.69,0,0,1-7,9.37l-.5.48c-.67.62-1.26,1.15-1.75,1.56a5.89,5.89,0,0,1,.59-.21,10.26,10.26,0,0,1,2.64-.37l.82,0c.6,0,1.14,0,1.6,0,.66,0,1.09,0,1.09,0a16.41,16.41,0,0,1,2.16-1.83l2.93-2A49.27,49.27,0,0,0,105.64,95a56.69,56.69,0,0,0,5-5.72l1.8-2.39a8.72,8.72,0,0,0,3.27-4.45,10.28,10.28,0,0,0,.56-3.33,9.48,9.48,0,0,0-.06-1.1,7.14,7.14,0,0,0-.79-2.63,6.06,6.06,0,0,0-.56-.88A11.48,11.48,0,0,1,111.38,72c-.5-.6-.5-.92-.5-.92-.37-3-2.41-6.75-5.67-10.08a25.91,25.91,0,0,0-5.62-4.37c-.51-.29-1-.56-1.57-.82s-1-.45-1.61-.73c-1.14-.55-2.4-1.2-3.8-1.74a13.88,13.88,0,0,0-4.45-1h-.35"/><path class="g" d="M83,59.93a.77.77,0,0,1-.1.14h0a3.1,3.1,0,0,1-.21.25l-.14.15A10.71,10.71,0,0,1,81,61.64l0,0a20.12,20.12,0,0,1-1.88,1.09c-.41.22-.87.45-1.42.72l-.07,0h0a4,4,0,0,1-.36.17l-.11.06h0l-.08,0h0l-.78.37-.09,0h0l0,0-.26.11-.15.07-.36.16-.06,0,0,0-.6.26-.25.11-.31.14-.16.06-.11.06L70.57,66.6l-.77.33-.14.06h0l-.3.11h0l-.06,0-.11,0-.52.19-.29.09-.51.16-.31.09h0l.18,0-.38.11-1.16.32-.52.13.06,0a13.6,13.6,0,0,1,2.09-.15c.39,0,.77,0,1.12,0,.55,0,1,.07,1.34.11l.44.05a3.3,3.3,0,0,1,.4-.32,17.18,17.18,0,0,1,3.54-1.59c1.36-.49,2.89-1,4.42-1.45,0,.38,0,.78.1,1.17.13,1.14.32,2.32.51,3.45.11.7.23,1.39.33,2l.09.62a2.85,2.85,0,0,1,0,.29h0v.24h0s0,0,0-.1l.13-.79.07-.44.27-1.63.3-1.71,0-.09v0l0-.1v-.06l.06-.3c.12-.71.24-1.31.34-1.82l0-.15c0-.26.1-.49.14-.7l0-.14,0-.1v-.07c0-.11.05-.22.07-.32h0c0-.2.09-.37.12-.54l0-.21.08-.31c0-.07,0-.13,0-.19l0-.13,0-.23c.1-.38.2-.71.28-1a10.92,10.92,0,0,1,.38-1h0a4,4,0,0,1,.19-.41l0,0,0-.07L83,60v0"/><path class="g" d="M81.31,65.82l0,.15-.18,1,.21-1.1m-7-.8-3.56,1.53,3.18-1.37.38-.16"/><path class="g" d="M68.52,67.41h0"/><path class="g" d="M80.92,67.9v0l0,.12q-.24,1.42-.48,2.82l0,.26c.18-1.08.37-2.16.55-3.23"/><path class="g" d="M65.64,68.23l-.12,0-.1,0h0l.08,0,.14,0"/><path class="g" d="M80.1,72.72h0m0,0h0"/><path class="g" d="M80.1,72.72h0v0h0"/><path class="g" d="M87.16,104.93a3.25,3.25,0,0,0-1.42,1.17l1-.83c.13-.1.26-.22.4-.34"/><path class="h" d="M83,59.92l0,.07-.06.08h0a.77.77,0,0,0,.1-.14h0v0l0,0"/><path class="h" d="M83,60l0,.06L83,60"/><path class="h" d="M82.93,60l0,.07,0,0,.06-.11"/><path class="h" d="M82.87,60.07a3.1,3.1,0,0,1-.21.25,3.1,3.1,0,0,0,.21-.25"/><path class="h" d="M82.87,60.12a4,4,0,0,0-.19.41h0c.07-.16.13-.3.19-.41"/><path class="h" d="M82.66,60.32a6.21,6.21,0,0,1-.79.71c-.24.19-.55.4-.9.63l0,0a10.71,10.71,0,0,0,1.51-1.17l.14-.15"/><path class="h" d="M82.68,60.53a10.92,10.92,0,0,0-.38,1,10.25,10.25,0,0,1,.38-1"/><path class="h" d="M82.3,61.58c-.08.27-.18.6-.28,1l0,.23c.12-.49.23-.88.33-1.21"/><path class="h" d="M81,61.66a30.72,30.72,0,0,1-3.3,1.81c.55-.27,1-.5,1.42-.72A20.12,20.12,0,0,0,81,61.66"/><path class="h" d="M82,62.79l0,.13c0,.06,0,.12,0,.19l.08-.32"/><path class="h" d="M81.89,63.11l-.08.31,0,.21.13-.52"/><path class="h" d="M77.67,63.47l-.08,0h0l.07,0"/><path class="h" d="M77.59,63.51l0,0h0l-.84.39-.15.07.44-.2h0l.08,0h0l.2-.1.27-.13h0"/><path class="h" d="M81.76,63.63c0,.17-.07.34-.12.54l-.06.3.18-.84"/><path class="h" d="M76.54,64l-.63.29,0,0,.21-.1h0l.09,0,.35-.17"/><path class="h" d="M61.42,64.28a5.12,5.12,0,0,0-1.79.57c-.79.43-1.49,1-1.49,1.35,0,.14.11.24.36.29h-.2c-.79,0-1,.75-1.07,1.62a4.73,4.73,0,0,1-.42,2.59c-.25.42-.94.55-1.53.65a12.08,12.08,0,0,0,.65,1.92l.12,0c.44.18.92.4,1.44.67l0,0,.13.07.35.19h0l0,0,.1-.18c-.36-.36-.51-.62-.51-.82h0c0-.17.12-.3.31-.42.37-.22.92-.28,1.18-.52a.48.48,0,0,1,.18,0c.24,0,.58.1.87.11s.43-.47.66-.67a.6.6,0,0,1,.4-.16,1.48,1.48,0,0,1,.76.29c1.33.93,2.56,1.86,3.7,2.76s2.14,1.73,3.09,2.54c.38.33.94.75,1.55,1.23s1.29,1.07,1.88,1.62,1.15,1.12,1.57,1.58.72.82.87,1,.39.34.51.34a.32.32,0,0,0,.25-.15c.12-.08.24-.23.38-.23a.34.34,0,0,1,.24.12s0,.08,0,.22,0,.22.06.38a.31.31,0,0,0,.13-.06,3.11,3.11,0,0,1,0-.34h0v-.56h0a2.43,2.43,0,0,1,.46,1.06,38,38,0,0,1,.94,4.47c0,.39.06.74.07,1.09V88.5a3.54,3.54,0,0,1,0-.45,2.11,2.11,0,0,1,0-.26,4.78,4.78,0,0,1,.06-.53l0-.21c.09-.69.33-3,.45-5.11.06-.83.21-1.81.28-2.62s.07-1.34.07-1.94c0-1.32-.09-2.47-.09-3.92h0c0-.74,0-1.57.1-2.53a5.33,5.33,0,0,0,0-.71,8.14,8.14,0,0,0-.08-1.1,6.49,6.49,0,0,0-.59-2.05.13.13,0,0,0-.1,0c-.24,0-.72.48-1.24,1.21a2.9,2.9,0,0,0-.19.29,16.13,16.13,0,0,0-1.6,3.25,34.43,34.43,0,0,0-1.37,5.59.2.2,0,0,0,0,.09c0,.33.24,1.22.24,1.5h0s0,.05,0,.07a4.25,4.25,0,0,1-1.2-1.26c-.5-.65-1.11-1.52-1.73-2.25a3.66,3.66,0,0,0-2.94-1.27h-.56c-.11,0-.18,0-.21,0-1.23-2.27-3-5-3.35-7A9.85,9.85,0,0,0,63,65.88a4.27,4.27,0,0,0-1.32-1.29h0a.35.35,0,0,0,0-.13c0-.12-.11-.18-.3-.18"/><path class="h" d="M75.88,64.31l-.11,0h0l-1.1.49.53-.24h0l.08,0,.36-.16.15-.07.08,0"/><path class="h" d="M81.58,64.47v.09h0l0-.1"/><path class="h" d="M81.56,64.57l0,.09,0,.14-.17.85c-.1.51-.22,1.11-.34,1.82l-.06.3v.06l0,.1v0l.18-1,.18-1,0-.15c.08-.42.16-.83.25-1.25"/><path class="h" d="M74.66,64.85l-.21.09-.18.08-.38.16.16-.06.31-.14.14-.06.16-.07"/><path class="h" d="M73.89,65.18,70,66.86l-.26.11h0l.2-.09.66-.28,3.21-1.36.11-.06"/><polyline class="h" points="69.69 66.98 69.59 67.02 69.65 67 69.65 67 69.66 66.99 69.69 66.98"/><path class="h" d="M69.59,67l-.6.22.16,0,.11,0,.06,0h0l.24-.09"/><path class="h" d="M69,67.24l-.47.17h0l-.53.17.35-.11.29-.09.1,0,.26-.1"/><path class="h" d="M68,67.58l-.29.09-.18,0,.31-.09.16,0"/><path class="h" d="M80.91,67.93v0l0,.09,0-.12"/><path class="h" d="M80.89,68.05l-.3,1.71-.27,1.63L80,73.25l-1,6-.38,2.49-.25,1.66L77.9,86.9c.55-3.58,1.14-7.38,1.75-11.35.25-1.53.5-3.09.76-4.68q.24-1.4.48-2.82"/><path class="h" d="M54.68,71.09v0h0"/><path class="h" d="M54.62,71.22v0a.14.14,0,0,0,0,.06l0-.08"/><path class="h" d="M54.54,71.39a1.45,1.45,0,0,1-.12.19h0a3.22,3.22,0,0,1-.44.55.93.93,0,0,1-.14.14,2.33,2.33,0,0,1-.46.37h0a.34.34,0,0,1-.12.06l0,0h0l0,0h0l.17-.05h0l.19,0h.07a3.06,3.06,0,0,1,.47,0h.11c0-.15.05-.3.08-.45a4.87,4.87,0,0,1,.28-.84l0-.06"/><path class="h" d="M54.42,71.58a.45.45,0,0,0-.26.35c-.09.11-.19.21-.29.31a.57.57,0,0,0,.11-.11,4.24,4.24,0,0,0,.44-.55"/><path class="h" d="M53.56,72.69h-.28l-.16.05h0l.06,0h0l-.24.07a1.62,1.62,0,0,0-.7.43v.07c0,.26.28.46.52.68a2.2,2.2,0,0,1,.71,1.3A11.77,11.77,0,0,0,54.09,78c.28.64.69,1.11,1.18,1.11a1,1,0,0,0,.55-.19c.52-.42,1.35,0,1.43-.78-.35-.33-.68-1.09-1.12-1.54-.79-1-1.68-1.19-1.92-2.51a3.31,3.31,0,0,1-.1-.83h0a3.27,3.27,0,0,1,0-.54l-.1,0h0l.1,0H54a3.28,3.28,0,0,0-.48,0"/><path class="i" d="M53.11,72.77h0m.17-.06h0l-.15.05h0l.16-.05"/><polyline class="h" points="53.13 72.76 53.12 72.76 53.12 72.76 53.13 72.76 53.13 72.76"/><path class="h" d="M55.57,73.12l.36.14h0l-.36-.14"/><path class="h" d="M55.93,73.26h0l.3.13.65.29.11,0-.64-.29-.3-.13-.12,0"/><path class="h" d="M58,74.27h0c.29.16.58.33.88.52l.39.23c-.45-.28-.86-.53-1.27-.75"/><path class="h" d="M59.56,75.19l.13.09.33.22h0l-.45-.3"/><path class="h" d="M77.88,87.05h0m0-.15,0,.15v0l0-.19"/><path class="h" d="M77.87,87.09v.08s0,0,0-.08"/><path class="h" d="M77.86,87.17h0v0"/><path class="j" d="M121.88,65.43a7.51,7.51,0,0,1,.62,2,7.51,7.51,0,0,0-.62-2"/><path class="j" d="M122.5,67.43a3.82,3.82,0,0,1,0,.56,3.82,3.82,0,0,0,0-.56"/><path class="j" d="M122.55,68.12a.72.72,0,0,0-.12.21,1.66,1.66,0,0,0-.08.58h0a1.19,1.19,0,0,1,.2-.79"/><path class="j" d="M122.71,71.05c.15.57.32,1.11.45,1.47-.13-.36-.3-.9-.45-1.47"/><path class="k" d="M123.38,73.11v0h0l.14,0h0l-.17-.06v0h0"/><path class="k" d="M125,74.13a5.74,5.74,0,0,1,.74.92h0l0,0a6.73,6.73,0,0,1,.85,3h0a6.44,6.44,0,0,0-.88-3,5.74,5.74,0,0,0-.74-.92h0"/><path class="j" d="M123.42,73.15l.14,0a4,4,0,0,1,1.42.93,5.74,5.74,0,0,1,.74.92,5.74,5.74,0,0,0-.74-.92,4,4,0,0,0-1.42-.93l-.14,0"/><path class="j" d="M125.75,75.08a6.73,6.73,0,0,1,.85,3l0,.35a7.24,7.24,0,0,0-.88-3.34"/><path class="j" d="M126.32,84.31c0,.33-.1.62-.14.86,0-.24.09-.53.14-.86m.14-1-.14,1,.14-1m.21-3.48a30.12,30.12,0,0,1-.21,3.48,30.12,30.12,0,0,0,.21-3.48"/><path class="j" d="M122.85,93.5c-.47,1-1,2.12-1.7,3.27.66-1.14,1.23-2.26,1.7-3.27m.91-2.26c-.08.24-.18.51-.29.8-.18.46-.39.95-.62,1.46a23.72,23.72,0,0,0,.91-2.26m1.38-3.49c-.33.66-.65,1.29-1,2,.35-.66.67-1.29,1-2"/><path class="j" d="M121.15,96.77c-.47.8-1,1.63-1.54,2.44.56-.81,1.07-1.64,1.54-2.44"/><path class="j" d="M115.77,104.07c-1.09,1.15-1.84,1.85-1.86,1.87s.77-.72,1.86-1.87"/><path class="a" d="M113.91,105.94h0l-1,.69h0l.67-.48.29-.21h0"/><path class="j" d="M113.62,106.15l-.67.48c-3,2.1-5.7,3.92-8.16,5.48L103,113.22c2.9-1.79,6.26-4,9.94-6.59l.67-.48"/><path class="j" d="M103,113.22l-3.89,2.39-4,2.49,4-2.49,3.89-2.39"/><path class="j" d="M95,118.16c-1.06.68-1.94,1.24-2.76,1.79.82-.55,1.7-1.11,2.76-1.79"/><path class="k" d="M92.22,120h0c-.85.57-1.53,1-2.11,1.45s-1,.76-1.34,1l-.45.36.45-.36h0c.3-.23.76-.58,1.32-1h0c.57-.41,1.24-.87,2.07-1.43l0,0h0"/><path class="j" d="M90.11,121.4c-.56.4-1,.75-1.32,1l1.32-1M92.18,120c-.83.56-1.5,1-2.07,1.43.57-.41,1.24-.87,2.07-1.43"/><path class="l" d="M54.7,71.05h0m0,0h0m0,0h0m.43-1.88,0,.21-.07.38,0,.16-.29,1.14v.06l0,.06,0,0,0,.08,0,0,0,0,0,.06a4.87,4.87,0,0,0-.28.84c0,.15-.06.3-.08.45h0a3.27,3.27,0,0,0,0,.54,3.31,3.31,0,0,0,.1.83c.24,1.32,1.13,1.46,1.92,2.51.44.45.77,1.21,1.12,1.54h0c.24-.2.71,0,.71-.38,0,0,0-.07,0-.12a5.66,5.66,0,0,0-.68-1.86,17.2,17.2,0,0,1-1.34-2.55h0l-.36-.14h0l.36.14a12.08,12.08,0,0,1-.65-1.92,6.78,6.78,0,0,1-.2-1.54h0v-.11h0a2,2,0,0,1,0-.34l0-.18"/><path class="l" d="M54.59,71.29l0,.07-.11.18,0,0,.14-.23,0-.06"/><path class="l" d="M61.25,71.55a.6.6,0,0,0-.4.16c-.23.2-.35.54-.66.67s-.63-.11-.87-.11a.48.48,0,0,0-.18,0c-.26.24-.81.3-1.18.52-.19.12-.31.25-.31.42s.15.46.51.82h0l-.1.18,0,0h0c.41.22.82.47,1.27.75l.27.17.45.3.41.27.71.5.81.58,0-.08h0c0-.06.16-.21.28-.36a.94.94,0,0,0,.22-.63,2.82,2.82,0,0,0-.31-1.14.41.41,0,0,1,0-.17h0c0-.1.07-.14.18-.14l.18,0a35.7,35.7,0,0,1,4.79,2.94,34.43,34.43,0,0,1,4,3.42c.42.43.92.89,1.45,1.4s1,1,1.52,1.57.87,1,1.18,1.43L76,86c.16.18.27.26.35.26s.13-.14.13-.38,0-.6-.08-1-.13-1.09-.19-1.51c0-.22-.07-.4-.09-.52s0-.21,0-.22a.34.34,0,0,0-.24-.12c-.14,0-.26.15-.38.23a.32.32,0,0,1-.25.15c-.12,0-.28-.09-.51-.34s-.44-.48-.87-1-1-1-1.57-1.58S71,78.88,70.35,78.37s-1.17-.9-1.55-1.23c-1-.81-2-1.64-3.09-2.54s-2.37-1.83-3.7-2.76a1.48,1.48,0,0,0-.76-.29"/><path class="l" d="M54.42,71.58h0a4.24,4.24,0,0,1-.44.55,3.22,3.22,0,0,0,.44-.55h0"/><path class="l" d="M54,72.13c-.07.07-.14.15-.21.21l.07-.07a.93.93,0,0,0,.14-.14"/><path class="l" d="M53.77,72.34l-.07.06a1.58,1.58,0,0,1-.15.12,1.74,1.74,0,0,0,.22-.18"/><path class="l" d="M53.55,72.52h0"/><path class="l" d="M53.54,72.53l-.18.12h0l.16-.11"/><path class="l" d="M53.36,72.65l-.15.08h0l0,0,.11,0"/><path class="l" d="M53.57,72.69h0a3.28,3.28,0,0,1,.48,0,3.06,3.06,0,0,0-.47,0"/><path class="l" d="M53.5,72.69l-.19,0h.19"/><path class="l" d="M53.31,72.71h0"/><path class="l" d="M53.13,72.76h0m0,0h0m.17-.05-.17.05h0l.15-.05h0"/><polyline class="l" points="53.3 72.71 53.3 72.71 53.3 72.71 53.3 72.71"/><path class="l" d="M53.2,72.73h0l-.06,0h0l0,0h0"/><polyline class="l" points="53.13 72.76 53.13 72.76 53.12 72.76 53.13 72.76 53.13 72.76"/><path class="l" d="M55.93,73.26h0l.12,0-.12,0"/><path class="l" d="M56.05,73.31l.3.13c.39.17.79.36,1.19.57h0l0,0c-.52-.27-1-.49-1.44-.67"/><path class="l" d="M57.54,74l.41.22.07,0h0l-.35-.19L57.54,74"/><path d="M84.94,38.44c5.72-.8,11.27,1.17,16.75,3.69,2.57,1.18,5.74,1.48,7.87,3.16,9.19,7.27,12.61,15.12,10.11,26.18-2.53,11.25-8.17,20.57-18,27.07-2.15,1.42-4,3.51-6.31,4.41a124.37,124.37,0,0,1-15.14,4.67,68.48,68.48,0,0,1-10.44,1.3c-11.89,1-21.94-3-28.77-12.74-3.41-4.89-3.36-11-2-17.1A51,51,0,0,1,49.52,57.7,58.67,58.67,0,0,1,67.7,42.46C73,39.74,78.44,37.84,84.94,38.44Zm23.25,51.82c4.16-4.26,6.15-9.16,8.11-14.08a28.17,28.17,0,0,0,2.16-14.3c-.86-5.94-4.16-10.82-9-14.62-1.83-1.44-3.85-1.58-5.93-2.14-4.39-1.19-8.33-3.61-13-4.22-7.67-1-15-.52-21.76,3.39-13.53,7.77-23.3,18.5-27.1,34.09-2.43,10-.62,16.73,6,22.08a30,30,0,0,0,20.17,6.76,3.65,3.65,0,0,0,3.66-2.32c.67-1.43,1.56-2.75,2.35-4.11l.68.33-1.85,5.73c4-.91,3.46-5.31,6.74-7.47C78.56,102,78,104,77.33,105.9l.64.31,4.45-7.91.79.25c-.79,2.27-1.57,4.55-2.59,7.51,4.38-2.26,4.36-6.8,7.23-9.49-.66,2.58-1.32,5.16-2,7.8,4.34-.57,4-4.87,6.91-7.65-.32,2.09-.53,3.48-.75,4.93,2.55-.45,2.73-2.59,3.35-4.45s1.31-3.52,2-5.28l.52.15c-.31,2.33-.63,4.66-.94,7l.72.29c2.92-3.91,3.24-9.17,6-13.18l.67.22c-.86,3.13-1.72,6.27-2.57,9.4l.9.41,7.06-12.4.64.31C109.65,86,109,87.89,108.19,90.26Z"/><path d="M54.46,87a11.42,11.42,0,0,1,10.42,4.63c2.67,3.48,2.12,6.67-2,8.22-4.76,1.79-10.68,1-13.71-3.88a10.89,10.89,0,0,1-1.32-5.67C47.89,87.72,49.64,87,54.46,87Zm-4.08,3.51c-1,4.24,2.11,7.7,7.26,8C53.08,97.44,51.53,94.36,50.38,90.55Zm11.19.75c-1.7-1.07-4.44.69-5.11,3.6Zm-1.74,4.82.55.76a22.58,22.58,0,0,0,3-2.11c.28-.26,0-1.16-.14-2.37Z"/></svg>