<svg xmlns="http://www.w3.org/2000/svg" viewBox="0 0 150 150"><defs><style>.a{fill:#d9cdc5;}.b{fill:#bcab9e;}.c{fill:#b19d8f;}.d{fill:#816654;}.e{fill:#7e614e;}.f{fill:#89715d;}.g{fill:#a48c7d;}.h{fill:#d2c8be;}.i{fill:#b29e8f;}.j{fill:#9d8575;}.k{fill:#ece8e4;}</style></defs><title>icon</title><path class="a" d="M92.08,112.57h0c-.36.27-.71.55-1,.83s-.89.77-1.43,1.27h0l-1.28,1.22h0l1.28-1.22c.54-.5,1-.87,1.43-1.27s.69-.56,1-.83m12.48-9.85h0a25.2,25.2,0,0,1-3,3.31h0a42.32,42.32,0,0,1-3.66,3h0l-.65.3h0l.65-.3a45,45,0,0,0,3.66-3.06,25.2,25.2,0,0,0,3-3.31m2.85-3.28h0l-.08.08h0l.08-.08m2.16-6.15h0a27.92,27.92,0,0,1-1.34,4.3c-.47,1.14-.82,1.85-.82,1.85h0s.35-.71.82-1.85a27.92,27.92,0,0,0,1.34-4.3h0m-1-14.11h0a.62.62,0,0,0-.08.12h0a.62.62,0,0,1,.08-.12m.16-.88a3.35,3.35,0,0,1-.08.81h0a3.35,3.35,0,0,0,.08-.81h0m-4.23-7.22h0a11.49,11.49,0,0,1,4,5.46,6.35,6.35,0,0,1,.26,1.76h0a6.35,6.35,0,0,0-.26-1.76h0a11.49,11.49,0,0,0-4-5.46"/><path class="b" d="M72.36,23a12.18,12.18,0,0,0-4.34.85A57,57,0,0,0,63,26.43a15.38,15.38,0,0,0-5.11,1.94,8.26,8.26,0,0,0-2,1.65,3.38,3.38,0,0,0-.68,1.29s0,0,0,0h0c-.82,0-1.28-2.66-2.44-3.11a1.84,1.84,0,0,0-.33,0c-1.45,0-2.77,1.56-3.52,3.2A58.29,58.29,0,0,1,45,37.9,6.34,6.34,0,0,1,42.76,40a3.12,3.12,0,0,1,.37.29c.69.63,1.37,1.56,1.93,2.07a2.1,2.1,0,0,0,1.33.47,5.11,5.11,0,0,0,1-.14,5.11,5.11,0,0,1,1.05-.15l.26,0a5.32,5.32,0,0,1,1.63,1.78c.29.5.58.69.87.69.52,0,1.07-.62,1.67-1a1,1,0,0,1,.71-.3,3.06,3.06,0,0,1,1.43.6,3.11,3.11,0,0,0,1.47.6h.18c1.4-.08,2.65-2.36,3.82-2.36a1,1,0,0,1,.75.38.58.58,0,0,1-.15-.31h0c0-.26.41-.37,1-.37a5.63,5.63,0,0,1,1.12.12c1,.2,1.78.64,1.78.94h0a.21.21,0,0,1-.13.18,2.22,2.22,0,0,1,.11.94h0a6.44,6.44,0,0,1-.06.89,15,15,0,0,1-.35,1.54,13.43,13.43,0,0,0-1,3.43l0,0,0,0h0l.08,0,.27-.16.33-.21h0l.14-.09.34-.25.07-.06h0l.25-.22.07-.06,0,0h0l0,0h0l0,0h0l0,0-.05.08,0,0,0,.06a2,2,0,0,0-.16.24v0h0l0,0h0v0l-.14.23v0h0l-.25.51c-.07.14-.13.29-.21.46a.56.56,0,0,1,0,.12l0,.09,0,.06-.3.78h0l-.11.34c0,.08,0,.16-.08.25l0,0-.12.37V53l-.1.33a1.6,1.6,0,0,1,0,.21v0c.74.56,1.22,1.14,1.22,1.43h0a.19.19,0,0,1,0,.12,7.12,7.12,0,0,1-1.78,1l-.09.4,0,.11-.06.37v0l-.11.68,0,.12A14.76,14.76,0,0,1,68.61,56a7.07,7.07,0,0,1,2.33.38S72.55,57,75,58a71.27,71.27,0,0,1,9,4.52,34.25,34.25,0,0,1,9,7.53,15.06,15.06,0,0,1,3.64,9.17h0c0,.28,0,.57,0,.86a.2.2,0,0,0,0,.08,3.1,3.1,0,0,0,.28,1.09,18.67,18.67,0,0,0,2.68,4A12.3,12.3,0,0,1,99.84,88h0a12.18,12.18,0,0,1-.19,2.17c-.43,2.59-2,5.56-5.24,6.15l-5.92,3.66c-1.56,1-3.21,2-4.61,3a10.17,10.17,0,0,0-3.15,3.22s-.39,0-1,.14a14.92,14.92,0,0,0-2.59.7,31,31,0,0,0-4.74,2.2c-.3.23-.6.44-.88.63a20,20,0,0,1-1.82,1.1l-.71.36h0c1.17-.79,2.32-1.49,3.41-2.09a20.09,20.09,0,0,0,2.9-2.73,19.19,19.19,0,0,1-3.63,2.78,19.8,19.8,0,0,1-5.42,2.22,21.08,21.08,0,0,1-4.61.61H61.3a9.74,9.74,0,0,1-3.64-.45,1.41,1.41,0,0,1-.86-1.06s-5-2.29-6.66-5a50.26,50.26,0,0,1,2.25,11c.48,5.19.35,13.2,3.06,13.2h0a82.19,82.19,0,0,0,8.42-.68,43.17,43.17,0,0,0,8.16-2,37.33,37.33,0,0,0,7.7-3.83,49.29,49.29,0,0,0,8.58-7.34h0l-.49.47A60.56,60.56,0,0,1,83,120.6h0c-.78.6-1.61,1.21-2.49,1.79a39.17,39.17,0,0,1-4.13,2.42,41.82,41.82,0,0,1-6.84,2.76c-2,.6-3.31.91-4.22,1.13l-.1,0L64,129h0l1.24-.29.1,0c.91-.22,2.26-.53,4.22-1.13a41.82,41.82,0,0,0,6.84-2.76,39.17,39.17,0,0,0,4.13-2.42c.88-.58,1.71-1.19,2.49-1.79h0a60.56,60.56,0,0,0,4.85-4.24l.49-.47c.91-.93,1.67-1.69,2.29-2.21a15.27,15.27,0,0,1,1.47-1.11,30.85,30.85,0,0,1,5.14-3.18,28.11,28.11,0,0,0,7-6.39,4.22,4.22,0,0,0,.35-.28,4.11,4.11,0,0,0,.7-1.3l1.12-1,1-.88c.69-2.26,1.72-4.46,2.33-6.64a16.63,16.63,0,0,0,.35-3.09v-.11a8.51,8.51,0,0,0-.42-2.81,6.88,6.88,0,0,0-1.11-1.68l-.12-.1v0l-.09-.1c0-.6-.07-1.15-.07-1.68h0q0-.6,0-1.14v-.55h0v-.08h0a5.45,5.45,0,0,1,.28-2.21c0-.16,0-.3,0-.45s0-.52,0-.77a6.35,6.35,0,0,0-1.6-4.31c-.8-.93-1.63-1.83-2.46-2.69-.23-.19-.48-.38-.73-.57l.24.18-.24-.18.24.18-.24-.18c.25.19.5.38.73.57-3.46-3.59-6.92-6.65-7.93-9.8a10,10,0,0,1-.72-3.54h0a7.9,7.9,0,0,1,.45-2.6c0-.17.35-.47.82-.83l1.75-1.43c1.32-1.08,2.77-2.38,3.47-3.06a3.4,3.4,0,0,0,1.08-2.52,5.43,5.43,0,0,0-.42-2,13.88,13.88,0,0,0-3.5-4.79c-2.64-2-5.2-4.13-8-6.3a49.73,49.73,0,0,0-9.63-5.93,20.27,20.27,0,0,1-3-2.54,17.34,17.34,0,0,0-1.51-1.29,8.18,8.18,0,0,0-1.73-1A11.58,11.58,0,0,0,72.36,23"/><path class="c" d="M80.49,122.39h0a39.17,39.17,0,0,1-4.13,2.42h0a41.82,41.82,0,0,1-6.84,2.76h0c-1.91.58-3.25.89-4.16,1.11l-.06,0-.1,0,.1,0c.91-.22,2.26-.53,4.22-1.13a41.82,41.82,0,0,0,6.84-2.76,39.17,39.17,0,0,0,4.13-2.42m7.83-6.5-.49.47h0A60.56,60.56,0,0,1,83,120.6h0a60.56,60.56,0,0,0,4.85-4.24l.49-.47h0m21.27-29h0a8.51,8.51,0,0,1,.42,2.81h0a8.51,8.51,0,0,0-.42-2.81h0m-1.23-1.81h0v0l.12.1h0l0,0-.09-.07h0v0h0m-4.57-14.55c.25.19.5.38.73.57h0l-.49-.39-.24-.18"/><path class="b" d="M65.17,49.09h0M40.29,40.24c.11.11.22.23.32.35a2.46,2.46,0,0,0,.46-.28,4.34,4.34,0,0,1-.78-.07"/><polyline class="b" points="65.17 49.09 65.17 49.09 65.17 49.09 65.17 49.09"/><path class="b" d="M65.16,49.1l0,0h0l-.14.13,0,0h0a2.76,2.76,0,0,1-.28.22l-.09.07h0l-.16.11-.09.06-.06,0,0,0-.13.08A.41.41,0,0,1,64,50h0L63.9,50l-.2.12h0l-.2.11c-.19,1-.36,2-.52,3a2.93,2.93,0,0,1,.34.24l0-.14.06-.23v0c0-.11.07-.23.11-.35.13-.44.27-.84.4-1.19L64,51.4c.1-.26.2-.5.29-.72h0c0-.09.07-.17.11-.26v0l0-.08q.11-.23.21-.42l.1-.17.16-.28,0-.06,0-.06.1-.14,0,0v0h0l0,0"/><path class="b" d="M65.15,49.11l0,0h0l0,0h0"/><polyline class="b" points="65.15 49.11 65.15 49.11 65.15 49.11 65.15 49.11 65.15 49.11"/><polyline class="b" points="65.13 49.14 65.06 49.19 65.12 49.14 65.13 49.14"/><path class="b" d="M64.92,49.32l-.09.07-.07.06-.15.11.07-.05.07,0,.17-.14"/><path class="b" d="M64.88,49.52l0,.06,0,0v0"/><path class="b" d="M64.54,49.61l-.12.09-.11.07h0l.07,0h0l.12-.09"/><polyline class="b" points="64.24 49.82 64.23 49.82 64.24 49.82 64.24 49.82"/><path class="b" d="M64.68,49.86l0,0h0l0-.05h0"/><path class="b" d="M63.68,50.16h0"/><path class="b" d="M63.49,50.26l-.19.11h0l.19-.1h0"/><polyline class="b" points="64.4 50.4 64.4 50.41 64.4 50.41 64.4 50.4"/><path class="b" d="M62.74,50.65l0,0h0l0,0h0"/><path class="b" d="M64.21,50.84v0h0"/><path class="b" d="M62.29,50.86l-.76.33.33-.14.43-.19"/><path class="b" d="M62.16,50.92l-.3.13-.53.22-.24.09h0l1.06-.44"/><path class="b" d="M64,51.31h0l0,.09,0,.07.07-.16"/><path class="b" d="M63.93,51.53v0h0l0,0"/><path class="b" d="M59,52.09l-.19.06-.12,0-.15.05-.07,0,.11,0,.23-.06.22,0,0,0"/><path class="b" d="M58.09,52.36l-.53.14.53-.14"/><path class="b" d="M63.6,52.51l0,.1,0,.1.06-.18v0"/><polyline class="b" points="63.47 52.92 63.47 52.93 63.46 52.93 63.47 52.92"/><path class="b" d="M63.41,53.12v0l-.06.22,0-.08a1.54,1.54,0,0,0,0-.17"/><path class="b" d="M54.72,53.19l-.08,0-.15,0h0l.21-.05"/><path class="b" d="M63.23,53.78h0s0,.1,0,.16l0,0-.06.24-.09.39v0c0-.12.05-.25.08-.37s.1-.34.14-.51m-8.74-.54h0"/><path class="b" d="M63.07,54.37a1.46,1.46,0,0,1,0,.2v0c0-.08,0-.16,0-.23"/><path class="b" d="M60.66,56.4C57,56.4,55.42,57.55,52.4,58l-.48,0-.83,0c-.28,0-.56,0-.83,0a3.79,3.79,0,0,0-.49,0c-2.21.4-4.78,1.06-5.22,1.73a3.07,3.07,0,0,0-1.4,2.19,1.33,1.33,0,0,0,.38.94h0c0,.59-.09,1.14-.14,1.66A21.28,21.28,0,0,0,46.26,66c1.53.71,2.7,1,2.7,1.22h0s0,.08-.09.12h0c0,.07,1.17.27,2.63.63a20.61,20.61,0,0,1,4.37,1.49c.07,0,.57-.08,1.44-.26l-1.26-.62A22.53,22.53,0,0,1,53,66.76c-.88-.62-1.52-1.29-1.53-2h0c0-.74.83-1.48,3.1-2.17,0,0,.62-.47,1.66-1.17s2.47-1.66,4.11-2.61l1.21-.67a13.43,13.43,0,0,0-.43-1.46c0-.1-.07-.21-.11-.32h-.32"/><polyline class="b" points="62.53 56.93 62.53 56.94 62.53 56.95 62.53 56.93"/><path class="b" d="M74.69,67.55l.36.15a50.25,50.25,0,0,1,5.73,2.69,35.59,35.59,0,0,0-5.16-2.68s-.34-.07-.93-.16"/><path class="b" d="M59.06,68.45a6.06,6.06,0,0,0-.87.52l1.12-.28-.25-.24"/><polyline class="b" points="58.3 72.13 58.3 72.14 58.3 72.14 58.3 72.13"/><path class="b" d="M66.22,72.57a44.43,44.43,0,0,1,4.06,4.92c.51.72,1,1.46,1.46,2.23a10.1,10.1,0,0,0-.81-2.13,13.46,13.46,0,0,0-4.71-5"/><path class="b" d="M87.61,78.76c0,.41-.08.9-.13,1.44-.11,1-.25,2.24-.35,3.3a7.27,7.27,0,0,0,.66-3.07v-.2a8,8,0,0,0-.18-1.47"/><path class="b" d="M108.51,79.3a5.59,5.59,0,0,0-.28,2.24v.6c.06-1.07.2-2,.28-2.84"/><path class="b" d="M39.36,81a2.27,2.27,0,0,0-.46,1.36v0A44.11,44.11,0,0,0,41.51,96.3c1.3,3.59,3.51,3.93,5.68,5.09a6.4,6.4,0,0,1,2.61,3.33,27.05,27.05,0,0,0-.89-3.31l-1.65-.13c-2.17-1.16-4.37-1.49-5.68-5.09A44.1,44.1,0,0,1,39,82.35v-.06h0A2.31,2.31,0,0,1,39.36,81"/><path class="b" d="M108.36,85.06v0l.12.1-.12-.13"/><polyline class="b" points="61.6 86.59 61.6 86.6 61.6 86.59 61.6 86.59"/><path class="b" d="M109.59,86.87a8.51,8.51,0,0,1,.42,2.81h0v.11a16.63,16.63,0,0,1-.35,3.09c.09-.3.17-.61.23-.91a10.17,10.17,0,0,0,.28-2.29,6.71,6.71,0,0,0-.58-2.81"/><path class="b" d="M61.89,90.68a.22.22,0,0,0,0,.06h0v0h0"/><path class="b" d="M107.33,99.52l-1,.88-1.12,1a4.11,4.11,0,0,1-.7,1.3,19.65,19.65,0,0,0,2.73-3.09l0-.11"/><path class="c" d="M106.38,100.4h0l-1.12,1h0s0,0,0,.07a4.34,4.34,0,0,1-.68,1.23h0a4.11,4.11,0,0,0,.7-1.3l1.12-1"/><path class="b" d="M97.22,109.39a30.85,30.85,0,0,0-5.14,3.18l.73-.48c1.57-.89,3-1.77,4.41-2.7"/><path class="d" d="M55.87,69.43h0c1.49.92.71,1.75,2.44,2.69-1.59-.92-.87-1.74-2.34-2.64l-.09-.06"/><path class="d" d="M58.3,72.14a10,10,0,0,1,3,4.13c.76,1.68,1.19,3.42,1.57,4.44A9.48,9.48,0,0,1,63.62,84h0a2.85,2.85,0,0,1-2,3h0V86.6h0v.48a2.89,2.89,0,0,0,2.11-3A9.82,9.82,0,0,0,63,80.79c-.38-1-.81-2.76-1.56-4.45a10,10,0,0,0-3-4.14l-.11-.06"/><path class="d" d="M61.88,90.67h0v0h0a.14.14,0,0,0,0-.07M40.75,80.16h-.28a1.82,1.82,0,0,0-1.11.87,1.74,1.74,0,0,1,1-.76l.28,0c1.94,0,3.44,2.65,5.31,3.68a.91.91,0,0,1,.34,0h.26a.75.75,0,0,0,.69-.27,1.82,1.82,0,0,1,1-.69,14.11,14.11,0,0,1,6.9,2.52,15.77,15.77,0,0,0,3.41.55c.54,0,1.08.09,1.64.17a4.45,4.45,0,0,1,1.28.31l.07.1v-.12h0v0l0-.06a3.74,3.74,0,0,0-1.22-.29c-.56-.08-1.11-.13-1.65-.18a15.68,15.68,0,0,1-3.4-.55,14.3,14.3,0,0,0-6.91-2.53,1.88,1.88,0,0,0-1,.71.81.81,0,0,1-.71.26H46.4a1.25,1.25,0,0,0-.35,0c-1.87-1-3.36-3.67-5.3-3.67"/><path class="e" d="M61.89,90.68h0a.14.14,0,0,1,0,.07h0a.22.22,0,0,1,0-.06h0m-2.58-22L58.19,69a3.6,3.6,0,0,0-.47.39l-.41-.19c-.87.18-1.37.25-1.44.26l.09.06c1.47.9.75,1.72,2.34,2.64h0l.11.06a10,10,0,0,1,3,4.14C62.17,78,62.6,79.78,63,80.79a9.82,9.82,0,0,1,.72,3.29h0a2.89,2.89,0,0,1-2.11,3V86.6h0l-.07-.1a4.45,4.45,0,0,0-1.28-.31c-.56-.08-1.1-.12-1.64-.17a15.77,15.77,0,0,1-3.41-.55,14.11,14.11,0,0,0-6.9-2.52,1.82,1.82,0,0,0-1,.69.75.75,0,0,1-.69.27h-.26a.91.91,0,0,0-.34,0c-1.87-1-3.37-3.68-5.31-3.68l-.28,0a1.74,1.74,0,0,0-1,.76A2.31,2.31,0,0,0,39,82.29v.06a44.1,44.1,0,0,0,2.61,13.84c1.31,3.6,3.51,3.93,5.68,5.09l1.65.13c-.65-1.85-1.64-3.72-3-3.72a1.24,1.24,0,0,0-.27,0s-4.26-5.19-4.27-7.93h0a1.47,1.47,0,0,1,1.37-1.59,23.81,23.81,0,0,1,3.91-1.75s4.29,1.33,8.67,3c1.09.41,2.19.84,3.23,1.28a22.66,22.66,0,0,1,2.67,1.24c.61.35,1,.62,1.31.84a6.84,6.84,0,0,1,1,.57h.08a3.43,3.43,0,0,0,.68-.08,6.56,6.56,0,0,0,2.07-.93,12.65,12.65,0,0,0,4.8-5.66,11,11,0,0,0,.89-4.31,10.45,10.45,0,0,0-.34-2.64c-.47-.77-.95-1.51-1.46-2.23a44.43,44.43,0,0,0-4.06-4.92,24.67,24.67,0,0,0-5.59-2.7s-.57-.47-1.26-1.12l-.06-.06"/><path class="f" d="M67.66,67c-3.14,0-6.47.4-8.6,1.45l.25.24.06.06c.69.65,1.26,1.12,1.26,1.12a24.67,24.67,0,0,1,5.59,2.7,13.46,13.46,0,0,1,4.71,5,10.1,10.1,0,0,1,.81,2.13,10.45,10.45,0,0,1,.34,2.64h0a11,11,0,0,1-.89,4.31,12.65,12.65,0,0,1-4.8,5.66,6.56,6.56,0,0,1-2.07.93,3.43,3.43,0,0,1-.68.08h-.08a6.84,6.84,0,0,0-1-.57c-.36-.22-.7-.49-1.31-.84a22.66,22.66,0,0,0-2.67-1.24c-1-.44-2.14-.87-3.23-1.28-4.38-1.63-8.67-3-8.67-3a23.81,23.81,0,0,0-3.91,1.75,1.47,1.47,0,0,0-1.37,1.59c0,2.74,4.27,7.93,4.27,7.93a1.24,1.24,0,0,1,.27,0c2.32,0,3.61,5.74,3.86,7a2.12,2.12,0,0,1,.05.25,4.48,4.48,0,0,0,.29.58c1.62,2.74,6.66,5,6.66,5a1.41,1.41,0,0,0,.86,1.06,9.74,9.74,0,0,0,3.64.45h.32a21.08,21.08,0,0,0,4.61-.61,19.8,19.8,0,0,0,5.42-2.22,19.19,19.19,0,0,0,3.63-2.78c.2-.23.38-.46.56-.68a18.65,18.65,0,0,0,1.51-2.28c.41-.74.65-1.36,1-2,.61-1.38,1.17-2.84,1.67-4.29,2.07-5.84,2.84-11.22,5.64-11.64a5.17,5.17,0,0,0,1.1-1.31,6.14,6.14,0,0,0,.4-.73c.1-1.06.24-2.27.35-3.3,0-.54.09-1,.13-1.44-.54-2.52-2.43-5.55-6.83-8.37a50.25,50.25,0,0,0-5.73-2.69l-.36-.15A47.18,47.18,0,0,0,68,67h-.38"/><path class="g" d="M68.61,56a14.76,14.76,0,0,0-6.21,1.73v.06a.59.59,0,0,0,0,.13l-.15.9c0,.16,0,.31-.07.46-.12,1-.23,1.85-.32,2.55h0a9.12,9.12,0,0,0,.05-.92,11.53,11.53,0,0,0-.36-2.74l-1.21.67c-1.64,1-3.08,1.91-4.11,2.61s-1.66,1.17-1.66,1.17c-2.27.69-3.1,1.43-3.1,2.17s.65,1.33,1.53,2a22.53,22.53,0,0,0,3.08,1.79l1.26.62.41.19a3.6,3.6,0,0,1,.47-.39,6.06,6.06,0,0,1,.87-.52c2.13-1,5.46-1.45,8.6-1.45H68a47.18,47.18,0,0,1,6.65.54c.59.09.93.16.93.16a35.59,35.59,0,0,1,5.16,2.68c4.4,2.82,6.29,5.85,6.83,8.37a8,8,0,0,1,.18,1.47v.2h0a7.27,7.27,0,0,1-.66,3.07,6.14,6.14,0,0,1-.4.73,5.17,5.17,0,0,1-1.1,1.31c-2.8.42-3.57,5.8-5.64,11.64-.5,1.45-1.06,2.91-1.67,4.29-.32.69-.56,1.31-1,2a18.65,18.65,0,0,1-1.51,2.28c-.18.22-.36.45-.56.68a20.09,20.09,0,0,1-2.9,2.73,31,31,0,0,1,4.74-2.2,14.92,14.92,0,0,1,2.59-.7c.63-.11,1-.14,1-.14A10.17,10.17,0,0,1,83.88,103c1.4-1,3.05-2,4.61-3l5.92-3.66c3.28-.59,4.81-3.56,5.24-6.15a12.89,12.89,0,0,0-.08-4.83,18.67,18.67,0,0,1-2.68-4,3.1,3.1,0,0,1-.28-1.09h0a.2.2,0,0,1,0-.08c0-.29,0-.58,0-.86A15.06,15.06,0,0,0,93,70.05a34.25,34.25,0,0,0-9-7.53A71.27,71.27,0,0,0,75,58c-2.45-1-4.06-1.6-4.06-1.6A7.07,7.07,0,0,0,68.61,56"/><path class="g" d="M72.38,109.21c-1.09.6-2.24,1.3-3.41,2.09l.71-.36a20,20,0,0,0,1.82-1.1c.28-.19.58-.4.88-.63"/><path class="h" d="M42,39.63a.79.79,0,0,0-.67.43.85.85,0,0,1-.21.25,2.46,2.46,0,0,1-.46.28c-.22.13-.41.27-.41.54a.74.74,0,0,0,0,.19h0c.46.16,1,.74,1.62,1,1.13.68,2,.45,3,1.45,1,.82,1.86,2,2.73,2.8a3.5,3.5,0,0,0,1.5.69,11,11,0,0,0,4.29,1,8.26,8.26,0,0,0,1.1-.08c.27-.8.64-1,1-1,.57,0,1.23.48,1.76.52.29.07.56.49.91.76a1.39,1.39,0,0,0,.35,0,3.88,3.88,0,0,0,.48,0,3.8,3.8,0,0,1,.46,0c.38,0,.72.15,1,.85s.45,1.42.65,2.11h0l.41-.16.76-.33.36-.17h.05l0,0h0l.07,0,.41-.21.09-.06h0l.19-.11a13.43,13.43,0,0,1,1-3.43,15,15,0,0,0,.35-1.54,6.44,6.44,0,0,0,.06-.89,2.22,2.22,0,0,0-.11-.94h0a.21.21,0,0,0,.13-.18c0-.3-.81-.74-1.78-.94a5.63,5.63,0,0,0-1.12-.12c-.55,0-1,.11-1,.37a.58.58,0,0,0,.15.31h0a1,1,0,0,0-.75-.38c-1.17,0-2.42,2.28-3.82,2.36H56.5a3.11,3.11,0,0,1-1.47-.6,3.06,3.06,0,0,0-1.43-.6,1,1,0,0,0-.71.3c-.6.38-1.15,1-1.67,1-.29,0-.58-.19-.87-.69a5.32,5.32,0,0,0-1.63-1.78l-.26,0a5.11,5.11,0,0,0-1.05.15,5.11,5.11,0,0,1-1,.14,2.1,2.1,0,0,1-1.33-.47c-.56-.51-1.24-1.44-1.93-2.07a3.12,3.12,0,0,0-.37-.29,1.49,1.49,0,0,0-.81-.33"/><polyline class="h" points="65.19 49.07 65.17 49.09 65.18 49.08 65.19 49.07"/><polyline class="h" points="65.18 49.08 65.17 49.09 65.17 49.09 65.16 49.1 65.16 49.1 65.17 49.09 65.18 49.08"/><path class="h" d="M65.17,49.09l0,0h0"/><path class="h" d="M65.16,49.1h0l0,0,0,0h0"/><path class="h" d="M65.15,49.11l-.07.06-.25.22h0l.09-.07.06,0,.09-.08.05,0,0,0h0"/><path class="h" d="M65.14,49.12h0"/><polyline class="h" points="65.14 49.13 65.13 49.14 65.13 49.14 65.14 49.13"/><path class="h" d="M65.13,49.14v0h0"/><path class="h" d="M65.09,49.19l-.1.14.05-.07,0-.07"/><path class="h" d="M65.08,49.22l0,0v0l0-.06"/><path class="h" d="M65,49.26l0,0h0l0,0"/><path class="h" d="M65,49.39l0,.06-.16.28.08-.13v0l0-.06a.57.57,0,0,1,.08-.13"/><path class="h" d="M64.83,49.39l-.07.06.07-.06"/><path class="h" d="M64.76,49.45l-.34.25.12-.09a.18.18,0,0,0,.07,0l.15-.11"/><polyline class="h" points="64.59 49.58 64.58 49.59 64.58 49.59 64.59 49.58"/><path class="h" d="M64.83,49.59h0v0h0"/><path class="h" d="M64.42,49.7l-.14.09,0,0,.11-.07"/><path class="h" d="M64.27,49.8l0,0h0l0,0"/><path class="h" d="M64.24,49.82h0L64,50a.41.41,0,0,0,.11-.07l.13-.08"/><path class="h" d="M64.68,49.84v0h0v0"/><path class="h" d="M64.67,49.87l0,.05-.23.46h0l.25-.51h0"/><path class="h" d="M63.93,50l-.27.16h0l.25-.15"/><path class="h" d="M63.9,50l-.2.12.2-.12"/><path class="h" d="M63.66,50.17l-.08,0h0l.09,0h0"/><path class="h" d="M63.49,50.26h0m0,0,0,0h0l0,0"/><path class="h" d="M63.48,50.27l-.27.15-.41.21-.64.29-1.06.44a25.71,25.71,0,0,1,1.19,6.27h0v0c0,.13,0,.27,0,.42h0a1.84,1.84,0,0,1,0,.4s0,.24,0,.26h0a.69.69,0,0,0,0-.12,2,2,0,0,0,0-.26V58.3c.06-.36.13-.73.19-1.12,0-.08,0-.16,0-.24h0v-.09c.07-.4.16-.82.25-1.24l.12-.54,0-.16c0-.1,0-.2.07-.3v0a1.46,1.46,0,0,0,0-.2,2.68,2.68,0,0,0,.07-.27v0l.06-.2.09-.34a2.93,2.93,0,0,0-.34-.24h0c.16-1,.33-2,.52-3"/><path class="h" d="M64.44,50.32l0,.08h0v0l0-.06"/><path class="h" d="M64.4,50.4v0c0,.09-.08.17-.11.26,0-.1.08-.18.12-.27h0"/><path class="h" d="M64.27,50.68c-.09.22-.19.46-.29.72l0-.09h0l.09-.23.09-.21v0l.06-.16"/><path class="h" d="M64.12,51.06v.06l0-.06"/><path class="h" d="M61.33,51.27l-.21.08h0l.24-.09"/><path class="h" d="M64,51.4l-.06.16V51.5h0v0l0-.07"/><path class="h" d="M63.92,51.56c-.13.35-.27.75-.4,1.19v0l0-.1,0-.1,0-.12,0-.1.17-.51a1.72,1.72,0,0,0,.07-.21h0"/><polyline class="h" points="63.8 51.9 63.8 51.9 63.8 51.9 63.8 51.9"/><path class="h" d="M59,52.09l-.08,0,.08,0h0"/><path class="h" d="M58.87,52.11l-.57.18-.21.07-.53.14-.85.22c-.58.16-1.16.3-1.82.44l-.17,0-.21.05-.17,0c-.39.4-.67,1.25-1.07,1.25l-.08,0a5.15,5.15,0,0,1-1.52-.69l-.67.1-.27.05-.35.06-.7.13-1.44.22-3.34.46a4.51,4.51,0,0,0-2.18.78l-.47.35-.47.46c-.31.34-.62.84-1,1.24a9.55,9.55,0,0,1-2.64,2.21c-.61.48-1.49,1.13-1.48,1.73a.68.68,0,0,0,0,.23c.36.49.12,1.1.76,1.47,1.58.71,4,1.37,5.81,2,.09-.76.17-1.57.23-2.47a1.33,1.33,0,0,1-.38-.94h0a3.07,3.07,0,0,1,1.4-2.19c.44-.67,3-1.33,5.22-1.73a3.79,3.79,0,0,1,.49,0c.27,0,.55,0,.83,0l.83,0,.48,0c3-.49,4.62-1.64,8.26-1.64H61a30.74,30.74,0,0,0-2-4.28l-.22,0-.23.06-.11,0,.07,0,.15-.05.12,0,.11,0"/><path class="h" d="M63.69,52.24l0,0-.06.2c0-.09,0-.17.08-.25"/><path class="h" d="M63.47,52.9v0h0v0"/><path class="h" d="M63.41,53.1v0"/><path class="h" d="M63.4,53.15l-.06.23h0l.06-.22"/><path class="h" d="M63.31,53.5l-.08.28c0,.17-.09.34-.14.51s-.06.25-.08.37h0v0c0,.1-.05.19-.07.29l-.09.47-.06.23-.09.44a7.12,7.12,0,0,0,1.78-1,.19.19,0,0,0,0-.12c0-.29-.48-.87-1.22-1.43h0v0"/><path class="h" d="M63.23,53.78v.08l0,.08c0-.06,0-.11,0-.16"/><path class="h" d="M63.17,54l0,.08a.94.94,0,0,1,0,.16l.06-.24"/><path class="h" d="M62.6,56.55l-.06.36h0l.06-.37"/><path class="h" d="M62.53,57l0,.23c0,.15-.05.3-.07.45l.11-.68"/><path class="h" d="M62.37,57.94c0,.14,0,.28-.08.42l0,.26,0,.22.15-.9"/><path class="i" d="M103.79,70.51l.24.18.49.39h0c-.23-.19-.48-.38-.73-.57"/><path class="j" d="M108.49,76.54a6.35,6.35,0,0,1,.26,1.76h0a6.35,6.35,0,0,0-.26-1.76"/><path class="j" d="M104,70.69l.49.39a11.49,11.49,0,0,1,4,5.46A11.92,11.92,0,0,0,104,70.69"/><polyline class="j" points="108.65 79.13 108.64 79.13 108.65 79.13"/><path class="j" d="M108.59,79.18a.62.62,0,0,0-.08.12,5.45,5.45,0,0,0-.28,2.21v0h0a5.59,5.59,0,0,1,.28-2.24.62.62,0,0,1,.08-.12"/><path class="j" d="M108.23,81.54v0h0m0,0h0"/><path class="i" d="M108.36,85.06v0h0l.09.07,0,0h0l-.12-.1v0h0"/><path class="j" d="M108.23,82.29c0,1.29.12,2.54.13,2.77v0c0-.23-.1-1.48-.13-2.77"/><path class="j" d="M108.45,85.16l0,0a3.9,3.9,0,0,1,1.11,1.68,8.51,8.51,0,0,1,.42,2.81h0a8.51,8.51,0,0,0-.42-2.81,3.9,3.9,0,0,0-1.11-1.68l0,0"/><path class="j" d="M110,89.79a16.63,16.63,0,0,1-.35,3.09l-.09.41a16.44,16.44,0,0,0,.44-3.5"/><path class="j" d="M107.41,99.44l-.08.08-1,.88,1-.88.08-.08"/><path class="a" d="M92.08,112.57h0c-.36.27-.71.55-1,.83s-.89.77-1.43,1.27l-1.28,1.22h0l1.28-1.22h0c.54-.5,1-.87,1.43-1.27s.69-.56,1-.83m12.48-9.85h0a25.2,25.2,0,0,1-3,3.31,45,45,0,0,1-3.66,3.06l-.65.3h0l.65-.3h0a42.32,42.32,0,0,0,3.66-3h0a25.2,25.2,0,0,0,3-3.31"/><path class="i" d="M88.32,115.89h0l-.49.47A60.56,60.56,0,0,1,83,120.6h0a60.56,60.56,0,0,0,4.85-4.24h0l.49-.47h0m8.9-6.5h0a30.85,30.85,0,0,0-5.14,3.18h0a30.85,30.85,0,0,1,5.14-3.18h0m9.16-9-1.12,1a4.11,4.11,0,0,1-.7,1.3h0a4.34,4.34,0,0,0,.68-1.23s0,0,0-.07h0l1.12-1h0"/><path class="j" d="M101.53,106a42.32,42.32,0,0,1-3.66,3,42.32,42.32,0,0,0,3.66-3"/><path class="j" d="M89.6,114.67l-1.28,1.22-.49.47.49-.47,1.28-1.22"/><path class="j" d="M105.24,101.49a4.34,4.34,0,0,1-.68,1.23,25.2,25.2,0,0,1-3,3.31c1.77-1.64,3.46-3.6,3.71-4.54m1.14-1.09-1.12,1,1.12-1"/><path class="j" d="M83,120.6c-.78.6-1.61,1.21-2.49,1.79.88-.58,1.71-1.19,2.49-1.79"/><path class="i" d="M80.49,122.39a39.17,39.17,0,0,1-4.13,2.42,41.82,41.82,0,0,1-6.84,2.76c-2,.6-3.31.91-4.22,1.13l-.1,0,.1,0,.06,0c.91-.22,2.25-.53,4.16-1.11h0a41.82,41.82,0,0,0,6.84-2.76h0a39.17,39.17,0,0,0,4.13-2.42h0"/><path class="j" d="M69.52,127.57c-1.91.58-3.25.89-4.16,1.11.91-.22,2.25-.53,4.16-1.11m11-5.18a39.17,39.17,0,0,1-4.13,2.42,39.17,39.17,0,0,0,4.13-2.42"/><path class="j" d="M65.2,128.72,64,129l1.24-.29"/><path class="k" d="M40.23,41.32h0c-.13.25-.57.28-.57.51a.4.4,0,0,0,.08.22,6,6,0,0,0,1.36,1.46,36.85,36.85,0,0,1,4.8,4.64c2.38,2.41,4.05,4.54,5.77,5.66a5.15,5.15,0,0,0,1.52.69l.08,0c.4,0,.68-.85,1.07-1.25l0,0c1-1.14,2.37.29,3.54-1.87a.31.31,0,0,1,.28-.21.51.51,0,0,1,.37.2,31.84,31.84,0,0,1,2.54,5.36,13,13,0,0,1,.79,4.2h0a9.12,9.12,0,0,1-.05.92c.09-.7.2-1.56.32-2.55,0-.22.06-.44.1-.68a.69.69,0,0,1,0,.12h0s0-.22,0-.26a1.84,1.84,0,0,0,0-.4c0-.15,0-.29,0-.42h0v0a25.71,25.71,0,0,0-1.19-6.27h0c-.2-.69-.42-1.39-.65-2.11s-.59-.85-1-.85a3.8,3.8,0,0,0-.46,0,3.88,3.88,0,0,1-.48,0,1.39,1.39,0,0,1-.35,0c-.35-.27-.62-.69-.91-.76-.53,0-1.19-.52-1.76-.52-.41,0-.78.24-1,1a8.26,8.26,0,0,1-1.1.08,11,11,0,0,1-4.29-1,3.5,3.5,0,0,1-1.5-.69c-.87-.75-1.73-2-2.73-2.8-1-1-1.86-.77-3-1.45-.58-.27-1.16-.85-1.62-1"/><polyline class="k" points="65.2 49.05 65.17 49.09 65.17 49.09 65.17 49.09 65.17 49.09 65.17 49.09 65.17 49.09 65.18 49.08 65.19 49.06 65.2 49.05"/><path class="k" d="M65.17,49.09h0l0,0"/><path class="k" d="M65.16,49.09h0l0,0h0l-.05,0-.09.08-.06,0-.17.14-.07,0a3.31,3.31,0,0,0,.31-.25l.14-.13h0l0,0h0"/><path class="k" d="M65.15,49.11l0,0v0l0,0,0,.07,0,0,0,0,.05-.08"/><path class="k" d="M65,49.26l-.05.07,0,.06a.57.57,0,0,0-.08.13v0l.17-.26"/><path class="k" d="M64.68,49.51l-.07.05a.18.18,0,0,1-.07,0l-.12.09.17-.12.09-.07"/><path class="k" d="M64.87,49.54l0,0v0h0l0,0h0"/><path class="k" d="M64.83,49.6c-.07.1-.12.2-.18.3l0,0v0l.14-.23h0"/><path class="k" d="M64.42,49.7h0l-.07,0,.09-.06"/><path class="k" d="M64.33,49.76h0l0,0h0l-.33.21-.25.15h0l.2-.12L64,50h0l.23-.15h0l0,0,.06,0"/><path class="k" d="M64.65,49.9q-.11.2-.21.42l0,.06h0l.23-.46h0"/><path class="k" d="M63.68,50.16h0l-.09,0h0l0,0,0,0-.19.1-.09.06.27-.15.2-.11"/><path class="k" d="M64.41,50.38v0h0c0,.09-.08.17-.12.27h0l-.06.16h0l.21-.47"/><path class="k" d="M63.21,50.42l-.41.21.41-.21"/><path class="k" d="M62.8,50.63l-.12,0h0l-.36.17-.43.19.3-.13.64-.29"/><path class="k" d="M64.2,50.85v0l-.09.21v0l0-.09a.56.56,0,0,0,0-.12"/><path class="k" d="M61.86,51.05l-.33.14-.41.16.21-.08.53-.22"/><path class="k" d="M64.11,51.08l-.09.23-.07.16v0h0v0l0,0a1.72,1.72,0,0,1-.07.21l-.17.51,0,0,.11-.34h0l.3-.78v0"/><path class="k" d="M63.67,52.29l0,.1,0,.12v0l.08-.24"/><path class="k" d="M63.59,52.53l-.06.18v0c0,.12-.07.24-.11.35v0a1.54,1.54,0,0,1,0,.17l.1-.33v0h0v0l.12-.37"/><path class="k" d="M63.36,53.29l0,.08h0l0,.14-.09.34v-.08h0l.08-.28a1.6,1.6,0,0,0,0-.21"/><path class="k" d="M63.21,53.86l-.06.2,0-.08,0,0,0-.08"/><path class="k" d="M63.15,54.06v0a2.68,2.68,0,0,1-.07.27c0,.07,0,.15,0,.23s-.05.2-.07.3c0-.1,0-.19.07-.29l.09-.39a.94.94,0,0,0,0-.16"/><path class="k" d="M63,54.9l0,.16-.12.54.06-.23L63,54.9"/><path class="k" d="M62.8,55.6c-.09.42-.18.84-.25,1.24v.07l.06-.36,0-.11.09-.4.09-.44"/><path class="k" d="M62.54,56.91v0h0c0,.08,0,.16,0,.24l0-.23v0h0"/><path class="k" d="M62.49,57.18c-.06.39-.13.76-.19,1.12v.06c0-.14.05-.28.08-.42a.59.59,0,0,1,0-.13v-.06c0-.2.06-.38.09-.57"/><path class="k" d="M62.29,58.36a2,2,0,0,1,0,.26l0-.26"/><path d="M105.35,65.43c-3.19,5.61-2.13,11.09-1.5,16.55.56,5,1.09,9.92,1.57,14.88.23,2.45.16,4.94.52,7.37a6,6,0,0,0,1.65,3c2.1,2.15,1.81,5.39-.91,6.62a28.13,28.13,0,0,1-5.41,1.63c-4.16.94-8.31,1.91-12.51,2.58a59,59,0,0,1-9.57.8c-3.78,0-7.56-.47-11.34-.67s-7.73-.36-11.59-.47c-2.86-.07-5.75.17-8.59-.1C44.41,117.32,43,114,44,110.87a23,23,0,0,0,.75-7.81c-.36-6.52-1-13-1.62-19.52-.33-3.5-.7-7-1.31-10.46-.21-1.23-1.27-2.28-1.73-3.49-.25-.66-.39-1.76,0-2.17,1.3-1.46,1.06-3.12,1-4.78-.13-5.69-.25-11.39-.45-17.08A31.57,31.57,0,0,0,40,40.33a5.3,5.3,0,0,0-1.39-2.62c-1.44-1.4-2-3.23-1.26-4.79A9.53,9.53,0,0,1,41,29.57a6.69,6.69,0,0,1,3.11-.44q13.59-.48,27.2-.89C76.16,28.1,81,27.8,85.84,28a80.2,80.2,0,0,1,10.43,1.34c2.5.41,3.59,2.45,4.55,4.52a1.21,1.21,0,0,1,.16.82c-2.24,4.52-.18,9.07-.09,13.6.07,3.71.56,7.41.7,11.11C101.69,62,101.51,64.71,105.35,65.43ZM93,74.64l-.61,0c.15,2.08.29,4.15.47,6.66-1.76-2.27-.68-5.39-2.78-7l-.76.22v5.84l-.53,0c-.19-1.41-.45-2.82-.56-4.24s-.78-1.61-2-1.46c-1.88.23-3.79.24-5.65.58-9.09,1.65-18-1.17-27-.94a4.41,4.41,0,0,1-1.2-.33l-.94,2.45L50.47,74,50,74.1v5.06c-2-1.39.26-4.35-2.76-5.53L48.15,82l-.69,0c-.94-2-.17-4.65-1.9-6.46,0,4.37,1,8.7-.16,13l-1-13.31-.74.07c.94,10.34,1.89,20.68,2.86,31.33l.74-1.17.38.1v5.74H48l1-7.12.68.09v6.34h.43l.3-4,.25,0,1.11,5.65.61-.11.79-5,.38.1c.2,1.9.41,3.81.61,5.71l.79,0,.69-2.86.42,0,.38,2.61c5.8.4,11.42,1,17,1.08s11.33-.5,17-.78l.08.62a6.77,6.77,0,0,1-1.66.64c-4.52.49-9.05,1.28-13.58,1.29-5.52,0-11-.67-16.58-1-1.07-.06-2.22.56-3.25.38-3.26-.58-6.48-1.38-9.72-2.08-.07,0-.2.17-.29.27.55,2.38,1.41,3.07,4.58,3.17,4.07.13,8.15,0,12.22.12s8.14.5,12.21.62c5,.16,10.06.73,15.06-.68,3.69-1,7.51-1.62,11.26-2.46a27.94,27.94,0,0,0,4.82-1.34c2-.87,2.35-2.64.87-4.19-2.72,3.85-7,4.1-11.07,4.69a7.6,7.6,0,0,1,2.75-1.76,39.44,39.44,0,0,0,4-1.31c1.14-.58,2.75-1,2.6-2.82-.49-5.88-1-11.76-1.48-17.63-.25-2.86-.6-5.71-.91-8.56l-.44,0v5.45l-.43,0L100,72.65l-1,0v16l-.66,0-2.85-15-1.07.13c.26,3.07.53,6.13.79,9.2l-.51.06Zm-6.33-36,0-.55c-3.34.4-6.68,1.08-10,1.16-6.67.15-13.34.15-20-.12a43.66,43.66,0,0,1-17.63-4.86c-.29,1.55.83,2.34,2.14,2.7,3.64,1,7.29,2.38,11,2.61,7.21.43,14.45.16,21.68.23a4.46,4.46,0,0,1,1.57.64l-.17.63a83.88,83.88,0,0,1-25.55-.28c.12,1.93.23,3.76.34,5.59-2.25-5.7-2.37-6-3.41-6.08.14,3,.27,6.06.41,9.08-1.83-3.1-.19-7.16-3.76-9.53l1.49,12L44,52,42.36,41.59l-.34.08c.29,9.06.58,18.12.88,27.41a19.89,19.89,0,0,0,2.72.53c3.78.26,7.56.42,11.34.63,5,.27,9.93.79,14.9.76,6.53,0,13.08-.3,19.58-.89,3-.27,6-1.43,8.88-2.44,1.09-.38,2.8-1.29.5-2.7-.34-.22-.44-1-.48-1.52-.6-7.29-1.16-14.58-1.74-21.88l-.14,0-.32,4.11h-.48l-.87-6.81-.64,0v6.5h-.47l-1-6.88-.71.07v5.43l-.48.09c-.39-1.52-.78-3-1.16-4.57l-.5.08v4.27c-.94-.75-1.79-1.1-2.06-1.71-.89-2-2.23-2.44-4.24-1.85a17,17,0,0,1-4,.59,10.3,10.3,0,0,1-2.41-.44v-.76ZM44,34.18c8.25,5.78,44.6,4,51.85-.18l-4.91-2.1V34c-1.25.35-2.32.64-3.39.95-3.45,1-6.72-.34-7.48-2.83-6.12,0-12.14-.29-18.13.08S50,32,44,34.18Zm-1,37-.07.35c1.67.26,3.34.56,5,.75s3.48.31,5.22.43,3.34.18,5,.29,3.64.18,5.45.36c3.12.3,6.24,1,9.35.95a140.57,140.57,0,0,0,14-1.15c4.3-.53,8.58-1.3,12.83-2.15,1-.2,1.92-1.12,2.87-1.71l-.36-.58c-6.11,2.15-12.27,3.94-18.84,3.66-1.2,0-2.4,0-3.59,0-4.15.1-8.31.44-12.44.27C59.33,72.35,51.17,71.71,43,71.19ZM41.9,34.28c3.24-3.73,7.48-2.11,10.46-3.19-3,0-6.39-.07-9.82.05-.69,0-1.36.79-2,1.21Zm45.5-.53.18-.74c-1.55-1.33-3.17-1-4.8-.4l0,.79Zm10.31-.28c-.73-2.55-2.4-2.66-4.29-2.38C94.75,31.82,96.07,32.55,97.71,33.47Zm0,40.32-.62.09c.13,1,.23,2,.39,3.05s.38,2,.58,3l.25,0Z"/><path d="M88.4,90.43c-2.73,1.37-5.19,2.57-7.62,3.82-4.66,2.38-9.32,4.76-13.94,7.21-1.34.72-2.52,1.75-3.86,2.48a2.12,2.12,0,0,1-1.87,0c-3.23-3-6.37-6-9.54-9a9.21,9.21,0,0,0-1-.71C59.2,86.85,69.75,83.36,79.07,77.5,83.44,80.92,85.67,85.88,88.4,90.43ZM52.83,93.66c3.19,3,5.8,5.54,8.48,8A1.87,1.87,0,0,0,63,102C70.72,98,78.46,93.84,86.38,89.63c-1.69-2.64-3.4-5.35-5.15-8-1.13-1.74-2.59-2.19-4.48-1.12-2.06,1.17-4.18,2.24-6.25,3.38C64.59,87.12,58.69,90.41,52.83,93.66Z"/><path d="M60.06,97.6l8.12-5c2.51-1.52,5-3,7.56-4.49.44-.24,1.13,0,1.71,0l0,.62L60.55,98.54Z"/></svg>