<svg xmlns="http://www.w3.org/2000/svg" viewBox="0 0 150 150"><defs><style>.a{fill:#d9cdc5;}.b{fill:#d1c3ba;}.c{fill:#c4b4a7;}.d{fill:#9f8674;}.e{fill:#a38b7a;}.f{fill:#a99483;}.g{fill:#beac9e;}.h{fill:#e0d9d2;}.i{fill:#b9a698;}.j{fill:#c4b3a6;}.k{fill:#f3f1ed;}</style></defs><title>icon</title><path class="a" d="M68.27,116.4h0A6.8,6.8,0,0,1,65.59,118h0a6.8,6.8,0,0,0,2.68-1.63m5.3-1.65h0c-2.26.74-4.61,1.33-5.07,1.44h0c.46-.11,2.81-.7,5.07-1.44h0M39,114.09h0c.69.38,1.67.86,2.89,1.4a43,43,0,0,0,9.46,3l1,.16h0l-1-.16h0a43.35,43.35,0,0,1-9.17-2.83l-.29-.13-.06,0c-1.19-.53-2.15-1-2.83-1.38h0m-1.24-.74.18.14h0l-.18-.14h0M79,113.18h0M29.4,105.89h0c.52.56,1,1,1.48,1.47h0c-.47-.43-1-.91-1.48-1.47h0m59.26-2a14.56,14.56,0,0,1-5.12,7.21l-.26.19a12,12,0,0,1-4,2l-.22,0h0l.22,0a12,12,0,0,0,4-2,14.56,14.56,0,0,0,5.38-7.4h0M24.34,99.31h0l.11.18-.11-.18h0m-4-8.16.39,1c.41,1,.92,2.16,1.53,3.41h0l0-.06c-.6-1.23-1.1-2.37-1.5-3.35h0l-.39-1h0M19.17,63.23c-.34,1.9-.65,4-.87,6.36h0c-.08,1-.15,2.1-.19,3.18h0c0-1.08.11-2.13.19-3.18.22-2.34.53-4.46.87-6.36h0"/><path class="b" d="M62,40.26c-3.27.33-4.73,2.37-6.81,4.1a7.39,7.39,0,0,1-4.53,1.5,22,22,0,0,0,3.54.38l1-1.75c2-1.65,3.4-3.57,6.34-4a4.08,4.08,0,0,1,.42-.19"/><path class="b" d="M90.29,76.52h0M27.13,40.57a3,3,0,0,0-2.9,1.74,33.42,33.42,0,0,0-1.73,5.07q-.8,2.94-1.62,6.82c-.55,2.59-1.14,5.47-1.68,8.86l0,.17c.46-2.57,1-4.76,1.41-6.58h0c.75-3.09,1.3-5.3,1.58-6.78l0-.11c.07-.37.13-.71.19-1s.08-.51.11-.7c0-.38.07-.6.07-.6s0,.22-.07.6h0c0-.38.07-.6.07-.6s0,.22-.07.6c0,.19-.07.43-.11.7s-.12.64-.19,1l0,.11c-.28,1.48-.83,3.69-1.58,6.78h0c-.43,1.82-.95,4-1.41,6.58-.45,2.85-.84,6-1.06,9.54,0,.81-.05,1.64-.05,2.49,0,1.08,0,2.19.1,3.37.11,1.66.24,3.35.49,5l0,.17c.15,1.1.32,2.21.52,3.31q.15.61.33,1.2a38.86,38.86,0,0,0,1.41,4.19,40.62,40.62,0,0,0,9.32,14.09c.14.19.35.44.62.74s.58.52.85.75a11.61,11.61,0,0,0,1.75,1.28,56.87,56.87,0,0,0,4.27,4,60,60,0,0,0,14.58,5.26,38.14,38.14,0,0,0,5.93.48,29.74,29.74,0,0,0,4.18-.28,16.84,16.84,0,0,0,3.15-.78,10.9,10.9,0,0,0,2.68-1.63c0-.07.11-.13.16-.19l.07,0,.13-.12,5-1.35a41.58,41.58,0,0,1,5.23-1.53l.78-.27a12.62,12.62,0,0,0,6.82-5,43.69,43.69,0,0,0,2.17-4.07l-1.09-.18a4.47,4.47,0,0,1-1.85-.79.29.29,0,0,1-.16-.24c0-.22.37-.44.43-.72a.54.54,0,0,1-.12-.33c0-.46.65-.83.71-1.4s.6-.93,1.25-.93c1,0,2.52.57,3.54.62,1.88-.09,2.47-1.82,3.81-2.82a4.36,4.36,0,0,1,1.23-.16,11.73,11.73,0,0,1,1.47.11,2.27,2.27,0,0,0,.43,0c1.31,0,1.4-1.49,1.8-2.67.3-1.86,3-1.58,4.08-3,.75-.93.83-2.38.94-3.67s.26-2.39,1.42-3a.89.89,0,0,1-.3.08c-.13,0-.19-.09-.19-.24a16,16,0,0,1,1.07-3c.59-1.49,1.06-3.09,1.35-3.09.06,0,.12.07.16.23a3.4,3.4,0,0,1,1.86-.71c.52.09,1.35,0,1.57.25a8.56,8.56,0,0,0,3.35,2.09,36.26,36.26,0,0,1,3.89,1.56,20.89,20.89,0,0,0,1.23-5c.49-2.68.67-5.91,1.28-8,.28-.8.57-1.62.79-2.46.11-.41.21-.84.3-1.27a10.85,10.85,0,0,0,.13-1.44c0-.17,0-.34,0-.51a11.54,11.54,0,0,0-1.47-5.78,3.32,3.32,0,0,0-1.61-.9,3.92,3.92,0,0,1-1.67-.83,22.36,22.36,0,0,0-7.12-4.31,25.3,25.3,0,0,0-8.09-1.86c-.41,0-.83,0-1.25,0a21,21,0,0,0-3.4.27,17.26,17.26,0,0,0-3.89,1.12,15.07,15.07,0,0,0-4.63,3c-.92.93-1.67,1.79-2.33,2.54-1.29,1.5-2.14,2.51-2.61,2.53-1.21-.17-3.21-1.11-3.62-2.36-1.58-3.36-4.08-3.8-6.28-6a6.52,6.52,0,0,1-.77-1.59,11.79,11.79,0,0,0-2.39,1.42c-.07.38-.5.86-.5,1.3a.7.7,0,0,0,0,.25,1.64,1.64,0,0,1,.15.7,4.29,4.29,0,0,1-.08.71,19.65,19.65,0,0,1-2.1,2.89l.39.23,2.34.43a52.2,52.2,0,0,1,5.54,1.31A17,17,0,0,1,83.42,61,6.22,6.22,0,0,1,86,65.66s0,1.83.17,4.6c.09,2.46.34,5.64.34,9.13,0,.46,0,.93,0,1.4a27.53,27.53,0,0,1-3,12.71,19.44,19.44,0,0,1-4.69,5.79,19.24,19.24,0,0,1-7.52,3.86,3.2,3.2,0,0,0-.46.15c-.29.13-.75.33-1.36.67s-1.36.84-2.33,1.48L63.56,108h0a5.37,5.37,0,0,1-.74.17c-.52.09-1.27.21-2.21.32s-1.76.14-2.8.14a26.69,26.69,0,0,1-4.31-.34,21.68,21.68,0,0,1-7.94-2.89,15.28,15.28,0,0,1-3.16-2.6,10.3,10.3,0,0,1-2-3.17l-.62-.84c-.4-.56-.95-1.3-1.61-2.31a47.83,47.83,0,0,1-4.38-8.39,40.4,40.4,0,0,1-2.67-11.51C31,75,31,73.54,31,72.22s0-2.43,0-3.48c0-.54,0-1,0-1.53h0l2.59-3.71a18.38,18.38,0,0,0,2.1-3.59c0-.22.06-.43.08-.62.15-1,.23-1.52.23-1.52a3.4,3.4,0,0,1,0,.45,5,5,0,0,1-.34,1.69c-.11.79-.23,1.78-.31,3,.2-1.18.45-2.26.72-3.25a28.41,28.41,0,0,1,1.9-5c1.2-2.35,2.25-3.5,3.18-3.5l.21,0s.41-.4,1-.87,1.4-1.16,2.32-1.82a14.78,14.78,0,0,1,5.11-2.61,44.06,44.06,0,0,1-11.37-2.06c-2.51-.81-5.58-2.08-8.21-2.76a13.9,13.9,0,0,0-3-.5"/><path class="c" d="M18.11,72.77h0c0,.78-.05,1.58-.05,2.4v.09h0c0-.85,0-1.68.05-2.49h0m2.47-16.12h0c-.43,1.82-.95,4-1.41,6.58h0c.46-2.57,1-4.76,1.41-6.58h0m2-9.2s0,.22-.07.6h0c0,.19-.07.43-.11.7h0c-.06.3-.12.64-.19,1l0,.11,0-.11c.07-.37.13-.71.19-1s.08-.51.11-.7c0-.38.07-.6.07-.6"/><path class="b" d="M64.94,60.33c-.22.27-.43.55-.62.82,0,.16.06.32.08.47s.31.47.86,1.16c0-.32-.11-.79-.19-1.36,0-.35-.09-.71-.13-1.09"/><path class="b" d="M65.85,63.46c.23.26.48.53.78.82l.06-.33a9.52,9.52,0,0,0-.84-.49"/><path class="b" d="M66.75,72.12a16.54,16.54,0,0,1-3.14,5.52,10.53,10.53,0,0,1-2,1.91,6.23,6.23,0,0,0,2.1-1.25,9.22,9.22,0,0,0,3.06-6.18"/><path class="b" d="M18.11,72.77c0,.63-.07,1.26-.1,1.9s-.07,1.51-.08,2.27,0,1.58.09,2.36a36.47,36.47,0,0,0,.52,4.62c.18,1.08.4,2.17.66,3.22-.2-1.1-.37-2.21-.52-3.31l0-.17c-.25-1.68-.38-3.37-.49-5-.07-1.18-.1-2.29-.1-3.37h0c0-.85,0-1.68.05-2.49"/><path class="b" d="M76.05,76.51l.06.41a37.31,37.31,0,0,1,.31,4.61c0,.65,0,1.31-.07,2a23.93,23.93,0,0,0,.22-3.14,27.36,27.36,0,0,0-.16-2.93s-.12-.34-.36-.9"/><path class="b" d="M68.86,94.37c-.63.15-1.39.31-2.24.47a36.06,36.06,0,0,1-3.81.47c-.67,0-1.32.06-1.94.07h.07a16.58,16.58,0,0,0,1.85.18h.5a13.44,13.44,0,0,0,3.42-.44,12.88,12.88,0,0,0,2.15-.77"/><path class="b" d="M30.88,107.36c.65.73,1.63,1.76,2.68,2.73a33.56,33.56,0,0,0,3.94,3.14l.25.12a56.87,56.87,0,0,1-4.27-4,11.61,11.61,0,0,1-1.75-1.28c-.27-.23-.56-.48-.85-.75"/><path class="c" d="M30.88,107.36h0c.29.27.58.52.85.75a11.61,11.61,0,0,0,1.75,1.28,56.87,56.87,0,0,0,4.27,4h0a56.87,56.87,0,0,1-4.27-4h0a12.41,12.41,0,0,1-1.73-1.27h0c-.27-.23-.56-.48-.85-.75"/><path class="b" d="M78.89,113.19a41.58,41.58,0,0,0-5.23,1.53c2-.54,3.7-1,5.23-1.53"/><path class="b" d="M68.5,116.19l-.07,0c-.05.06-.11.12-.16.19l.23-.21"/><path class="b" d="M65.59,118a16.84,16.84,0,0,1-3.15.78,29.74,29.74,0,0,1-4.18.28,38.14,38.14,0,0,1-5.93-.48c.69.14,1.38.25,2.08.35a33.65,33.65,0,0,0,4.34.29,25.91,25.91,0,0,0,4.2-.39,14.32,14.32,0,0,0,2.64-.83"/><path class="c" d="M65.59,118a16.84,16.84,0,0,1-3.15.78,29.74,29.74,0,0,1-4.18.28H58a39.16,39.16,0,0,1-5.71-.48h0a38.14,38.14,0,0,0,5.93.48,29.74,29.74,0,0,0,4.18-.28,16.84,16.84,0,0,0,3.15-.78h0"/><path class="d" d="M61.6,40.45c-2.94.47-4.36,2.39-6.34,4l-1,1.75h.37c2.1,0,4.3-.42,4.84-2l.07,0A11.43,11.43,0,0,1,59.43,43v-.14c.11-.84,1.11-1.24,1.67-2a2.16,2.16,0,0,1,.5-.39"/><path class="e" d="M64.29,61c-.54.77-1,1.51-1.44,2.26a26.17,26.17,0,0,1-2.14,3.17,5.16,5.16,0,0,0-1.31,2.42,1.72,1.72,0,0,1-1.25,1.37c-.53.32-.79.65-.8.94a.52.52,0,0,0,.28.44,1.68,1.68,0,0,0,.86.2,4.63,4.63,0,0,0,2.27-.71,4.93,4.93,0,0,0,2.41-2.29,1.89,1.89,0,0,0,.11-.44l0-.22.1-.24a6,6,0,0,0,.34-1A7.19,7.19,0,0,0,64,64.85v0s0-.08,0-.12v0a7.89,7.89,0,0,1-.26,2,7.06,7.06,0,0,1-.33,1l-.11.24,0,.22a2,2,0,0,1-.09.45A4.91,4.91,0,0,1,60.84,71a4.67,4.67,0,0,1-2.29.73,1.56,1.56,0,0,1-.8-.17.5.5,0,0,1-.28-.42c0-.27.27-.59.79-.91a1.59,1.59,0,0,0,1.23-1.31,5.05,5.05,0,0,1,1.3-2.39,27,27,0,0,0,2.12-3.15c.44-.74.88-1.47,1.41-2.22l0-.17"/><path class="e" d="M64.39,61.61c0,.13,0,.24,0,.34a3.07,3.07,0,0,1-.06.59,4.74,4.74,0,0,1-.2.55,2.25,2.25,0,0,0-.17,1c0,.18,0,.39,0,.65,0-.2,0-.37,0-.51a2.29,2.29,0,0,1,.17-1,2.53,2.53,0,0,0,.27-1.15c0-.1,0-.21,0-.33s0-.08,0-.11h0"/><path class="d" d="M69.75,45.44A26,26,0,0,1,69.17,50s-3.63,4.16-7.6,8.3c-1,1-2,2.06-3,3s-1.87,1.79-2.65,2.51c-1.56,1.44-2.65,2.5-3.32,2.58a8.15,8.15,0,0,0-.64.8,8.61,8.61,0,0,0-1.22,2.48,7.65,7.65,0,0,0-.32,2.19,7.76,7.76,0,0,0,.26,2,8.23,8.23,0,0,0,2.89,4.26A8.65,8.65,0,0,0,59,80a7.76,7.76,0,0,0,2.58-.43,10.53,10.53,0,0,0,2-1.91,16.54,16.54,0,0,0,3.14-5.52,14.75,14.75,0,0,0,.1-1.79A20.93,20.93,0,0,0,66.36,66h0s0-.17.06-.46.11-.68.19-1.16l0-.08c-.3-.29-.55-.56-.78-.82l-.52-.24-.07-.44c-.55-.69-.83-1.11-.86-1.16s0,.07,0,.11,0,.23,0,.33a2.53,2.53,0,0,1-.27,1.15,2.29,2.29,0,0,0-.17,1c0,.14,0,.31,0,.51h0s0,.08,0,.12v0a7.19,7.19,0,0,1-.28,2.05,6,6,0,0,1-.34,1l-.1.24,0,.22a1.89,1.89,0,0,1-.11.44,4.93,4.93,0,0,1-2.41,2.29,4.63,4.63,0,0,1-2.27.71,1.68,1.68,0,0,1-.86-.2.52.52,0,0,1-.28-.44c0-.29.27-.62.8-.94a1.72,1.72,0,0,0,1.25-1.37,5.16,5.16,0,0,1,1.31-2.42,26.17,26.17,0,0,0,2.14-3.17c.45-.75.9-1.49,1.44-2.26l0,.17c.19-.27.4-.55.62-.82a18.16,18.16,0,0,1-.14-2.08c0-.11,0-.22,0-.32,0-1.14.27-2.1,1-2.49a1.8,1.8,0,0,1,.87-.2,5.76,5.76,0,0,1,2.76,1,19.65,19.65,0,0,0,2.1-2.89,4.29,4.29,0,0,0,.08-.71,1.64,1.64,0,0,0-.15-.7.7.7,0,0,1,0-.25c0-.44.43-.92.5-1.3a11.79,11.79,0,0,1,2.39-1.42,3,3,0,0,0-.43-.76A14.82,14.82,0,0,0,71.06,46a6.82,6.82,0,0,0-1.31-.6"/><path class="f" d="M59.5,44.18l-.07,0c-.54,1.62-2.74,2-4.84,2h-.37a22,22,0,0,1-3.54-.38l-.26,0a4.06,4.06,0,0,0-.68.08,14.78,14.78,0,0,0-5.11,2.61c-.92.66-1.73,1.32-2.32,1.82s-1,.87-1,.87l-.21,0c-.93,0-2,1.15-3.18,3.5a28.41,28.41,0,0,0-1.9,5c-.27,1-.52,2.07-.72,3.25,0,.27,0,.54,0,.83,0,.54,0,1.13,0,1.74A30.92,30.92,0,0,0,35.73,71a25.47,25.47,0,0,0,3.19,8.48,24.44,24.44,0,0,0,5.51,6.31A35.54,35.54,0,0,0,50,89.5c3.38,1.81,6,2.85,6.79,4.37A10.27,10.27,0,0,0,59.44,95c.43.12.91.24,1.43.34s1.27,0,1.94-.07a36.06,36.06,0,0,0,3.81-.47c.85-.16,1.61-.32,2.24-.47a12.67,12.67,0,0,0,5.3-4.68,15.6,15.6,0,0,0,2.19-6.21c.05-.64.07-1.3.07-2a37.31,37.31,0,0,0-.31-4.61l-.06-.41c-.14-.34-.33-.75-.55-1.23a37.55,37.55,0,0,0-2.6-4.63A28.65,28.65,0,0,0,69.14,66a15.62,15.62,0,0,0-2.45-2l-.06.33,0,.08c-.08.48-.14.88-.19,1.16s-.06.46-.06.46a20.93,20.93,0,0,1,.49,4.35,14.75,14.75,0,0,1-.1,1.79,9.22,9.22,0,0,1-3.06,6.18,6.23,6.23,0,0,1-2.1,1.25A7.76,7.76,0,0,1,59,80a8.65,8.65,0,0,1-5.43-1.9,8.23,8.23,0,0,1-2.89-4.26,7.76,7.76,0,0,1-.26-2,7.65,7.65,0,0,1,.32-2.19A8.61,8.61,0,0,1,52,67.17a8.15,8.15,0,0,1,.64-.8c.67-.08,1.76-1.14,3.32-2.58.78-.72,1.68-1.56,2.65-2.51s2-2,3-3c4-4.14,7.6-8.3,7.6-8.3a26,26,0,0,0,.58-4.52,3,3,0,0,0-.88-.15,1.29,1.29,0,0,0-.35,0h-.11c-2.49,0-4.43.86-5,2.19l-1.59.95c-.47.27-.81.46-1.15.63-.26-1-.54-2-.81-3.08a17.75,17.75,0,0,1-.32-1.84"/><path class="g" d="M66.68,55.24a1.8,1.8,0,0,0-.87.2c-.73.39-1,1.35-1,2.49,0,.1,0,.21,0,.32a26.36,26.36,0,0,0,.27,3.17c.08.57.15,1,.19,1.36l.07.44.52.24a9.52,9.52,0,0,1,.84.49,15.62,15.62,0,0,1,2.45,2,28.65,28.65,0,0,1,3.76,4.68,37.55,37.55,0,0,1,2.6,4.63c.22.48.41.89.55,1.23.24.56.36.9.36.9a27.36,27.36,0,0,1,.16,2.93,23.93,23.93,0,0,1-.22,3.14,15.6,15.6,0,0,1-2.19,6.21,12.67,12.67,0,0,1-5.3,4.68,12.88,12.88,0,0,1-2.15.77,13.44,13.44,0,0,1-3.42.44h-.5a16.58,16.58,0,0,1-1.85-.18c-.55-.1-1-.23-1.5-.35a10.27,10.27,0,0,1-2.65-1.17C56,92.35,53.38,91.31,50,89.5a35.54,35.54,0,0,1-5.57-3.67,24.44,24.44,0,0,1-5.51-6.31A25.47,25.47,0,0,1,35.73,71a30.92,30.92,0,0,1-.49-5.55c0-.61,0-1.2,0-1.74,0-.29,0-.56,0-.83.08-1.23.2-2.22.31-3a18.38,18.38,0,0,1-2.1,3.59L31,67.21c0,.48,0,1,0,1.53,0,1.05,0,2.21,0,3.48s0,2.76.17,4.32A40.4,40.4,0,0,0,33.8,88.05a47.83,47.83,0,0,0,4.38,8.39c.66,1,1.21,1.75,1.61,2.31l.62.84a10.3,10.3,0,0,0,2,3.17,15.28,15.28,0,0,0,3.16,2.6,21.68,21.68,0,0,0,7.94,2.89,26.69,26.69,0,0,0,4.31.34c1,0,2-.06,2.8-.14s1.69-.23,2.21-.32a5.37,5.37,0,0,0,.74-.17h0l3.56-2.51c1-.64,1.72-1.13,2.33-1.48s1.07-.54,1.36-.67a3.2,3.2,0,0,1,.46-.15,19.24,19.24,0,0,0,7.52-3.86,19.44,19.44,0,0,0,4.69-5.79,27.53,27.53,0,0,0,3-12.71c0-.47,0-.94,0-1.4,0-3.49-.25-6.67-.34-9.13-.13-2.77-.17-4.6-.17-4.6A6.22,6.22,0,0,0,83.42,61a17,17,0,0,0-5.71-2.81,52.2,52.2,0,0,0-5.54-1.31l-2.34-.43a6.33,6.33,0,0,0-3.15-1.19"/><path class="g" d="M36,57.77s-.08.55-.23,1.52c0,.19,0,.4-.08.62A5,5,0,0,0,36,58.22a3.4,3.4,0,0,0,0-.45"/><path class="h" d="M82.93,38.05a38.32,38.32,0,0,0-6.1.57c-2.28.38-4.36.84-6.31,1.14a23.05,23.05,0,0,1-3.39.29,14.71,14.71,0,0,1-2-.13,9.72,9.72,0,0,0-3.11.34,4.08,4.08,0,0,0-.42.19,2.16,2.16,0,0,0-.5.39c-.56.81-1.56,1.21-1.67,2V43a14.79,14.79,0,0,0,.39,3c.27,1,.55,2.1.81,3.08.34-.17.68-.36,1.15-.63l1.59-.95c.61-1.33,2.55-2.19,5-2.19h.11a1.29,1.29,0,0,1,.35,0,4.8,4.8,0,0,1,2.19.75,14.82,14.82,0,0,1,2.82,2.13c.53.63.67,1.72,1.2,2.35,2.2,2.22,4.7,2.66,6.28,6,.41,1.25,2.41,2.19,3.62,2.36.47,0,1.32-1,2.61-2.53.66-.75,1.41-1.61,2.33-2.54a15.07,15.07,0,0,1,4.63-3,17.26,17.26,0,0,1,3.89-1.12,21,21,0,0,1,3.4-.27c.42,0,.84,0,1.25,0a25.3,25.3,0,0,1,8.09,1.86,22.36,22.36,0,0,1,7.12,4.31,3.92,3.92,0,0,0,1.67.83,3.32,3.32,0,0,1,1.61.9,11.54,11.54,0,0,1,1.47,5.78c0,.17,0,.34,0,.51a10.85,10.85,0,0,1-.13,1.44c-.09.43-.19.86-.3,1.27-.22.84-.51,1.66-.79,2.46-.61,2.08-.79,5.31-1.28,8a20.89,20.89,0,0,1-1.23,5,36.26,36.26,0,0,0-3.89-1.56,8.56,8.56,0,0,1-3.35-2.09c-.22-.24-1-.16-1.57-.25a3.4,3.4,0,0,0-1.86.71c0-.16-.1-.23-.16-.23-.29,0-.76,1.6-1.35,3.09a16,16,0,0,0-1.07,3c0,.15.06.24.19.24a.89.89,0,0,0,.3-.08h0c-1.16.65-1.29,1.74-1.42,3s-.19,2.74-.94,3.67c-1,1.47-3.78,1.19-4.08,3-.4,1.18-.49,2.67-1.8,2.67a2.27,2.27,0,0,1-.43,0,11.73,11.73,0,0,0-1.47-.11,4.36,4.36,0,0,0-1.23.16c-1.34,1-1.93,2.73-3.81,2.82-1,0-2.49-.62-3.54-.62-.65,0-1.14.22-1.25.93s-.71.94-.71,1.4a.54.54,0,0,0,.12.33h.17a5.36,5.36,0,0,1,.74.08,5.67,5.67,0,0,0,.82.07H88a5.23,5.23,0,0,0,1.69-.34,5.16,5.16,0,0,1,1.66-.34,3,3,0,0,1,.42,0c1.18,0,2.42.25,3.59.25a4.55,4.55,0,0,0,2.91-1,17.11,17.11,0,0,0,6.22-4.82,2.13,2.13,0,0,1-.17-.79c0-1.33,1.64-1.62,2.47-2.51A8.89,8.89,0,0,1,108.3,92c1.06-1,1.28-2.71,3.06-3a16.85,16.85,0,0,0,11-5.49,17.08,17.08,0,0,0,2.5-3.84,28,28,0,0,0,2.32-6.59,30.48,30.48,0,0,0,.73-6.57c0-.31,0-.6,0-.89,0-.59-.06-1.15-.1-1.68,0-.27,0-.53-.07-.78s-.09-.56-.14-.82a19.35,19.35,0,0,0-.6-2.56,22.43,22.43,0,0,0-5.9-9.54c-.7-.73-1.55-1.5-2.38-2.21s-1.76-1.44-2.8-2.15A42.74,42.74,0,0,0,109.07,42s-.06,0-.06,0,.36-.17,1.07-.17h.07a30.25,30.25,0,0,0-3.9-1.32c-.46,0-1.5-.13-2.55-.16l-1.15,0a9.73,9.73,0,0,0-1.41.07c-3-.45-5.07-.71-7.47-1.11a39.55,39.55,0,0,0-9.78-1.14c-.32,0-.64,0-1,0"/><path class="i" d="M22.48,48.05c0,.19-.07.43-.11.7,0-.27.08-.51.11-.7"/><path class="i" d="M18.3,69.59c-.08,1-.15,2.1-.19,3.18,0,.78-.05,1.58-.05,2.4,0-.82,0-1.62.05-2.4,0-1.08.11-2.13.19-3.18m3.86-19.72c-.28,1.48-.83,3.69-1.58,6.78.75-3.09,1.3-5.3,1.58-6.78"/><path class="i" d="M20.58,56.65c-.43,1.82-.95,4-1.41,6.58-.34,1.9-.65,4-.87,6.36.22-2.34.53-4.46.87-6.36.46-2.57,1-4.76,1.41-6.58"/><path class="j" d="M18.06,75.26h0c0,1.08,0,2.19.1,3.37.11,1.66.24,3.35.49,5h0l0,.17h0l0-.17c-.25-1.68-.38-3.37-.49-5-.07-1.18-.1-2.29-.1-3.37m.05-2.49h0c0,.81-.05,1.64-.05,2.49h0v-.09c0-.82,0-1.62.05-2.4"/><path class="i" d="M18.68,83.83c.22,1.64.49,3.31.84,4.92-.11-.53-.22-1.07-.32-1.61-.2-1.1-.37-2.21-.52-3.31"/><path class="i" d="M19.52,88.75l.3.94-.3-.94"/><path class="i" d="M19.82,89.69c.12.38.29.88.5,1.46-.21-.58-.37-1.08-.5-1.46"/><path class="a" d="M20.32,91.15h0l.39,1h0c.4,1,.9,2.12,1.5,3.35l0,.06h0c-.61-1.25-1.12-2.42-1.53-3.41l-.39-1"/><path class="i" d="M20.71,92.17c.4,1,.9,2.12,1.5,3.35-.6-1.23-1.1-2.37-1.5-3.35m-.39-1,.39,1-.39-1"/><path class="i" d="M22.24,95.58c.61,1.22,1.31,2.45,2.1,3.73-.79-1.28-1.49-2.51-2.1-3.73"/><path class="i" d="M24.45,99.49a42.22,42.22,0,0,0,4.95,6.4,42.22,42.22,0,0,1-4.95-6.4"/><path class="a" d="M88.66,103.85a14.56,14.56,0,0,1-5.38,7.4,12,12,0,0,1-4,2l-.22,0h0l.22,0a12,12,0,0,0,4-2l.26-.19a14.56,14.56,0,0,0,5.12-7.21h0"/><path class="i" d="M88.66,103.85a14.56,14.56,0,0,1-5.12,7.21,14.56,14.56,0,0,0,5.12-7.21h0"/><path class="j" d="M30.88,107.36h0c.29.27.58.52.85.75h0a12.41,12.41,0,0,0,1.73,1.27h0a56.87,56.87,0,0,0,4.27,4h0a56.87,56.87,0,0,1-4.27-4,11.61,11.61,0,0,1-1.75-1.28c-.27-.23-.56-.48-.85-.75h0"/><path class="i" d="M31.73,108.11a12.41,12.41,0,0,0,1.73,1.27,12.41,12.41,0,0,1-1.73-1.27"/><path class="i" d="M79,113.18h-.14a41.58,41.58,0,0,0-5.23,1.53l-.09,0a42.46,42.46,0,0,1,5.32-1.56H79"/><path class="i" d="M37.93,113.49l1.06.6-1.06-.6"/><path class="a" d="M39,114.09h0c.68.37,1.64.85,2.83,1.38l.06,0,.29.13a43.35,43.35,0,0,0,9.17,2.83h0l1,.16h0l-1-.16a43,43,0,0,1-9.46-3c-1.22-.54-2.2-1-2.89-1.4h0"/><path class="i" d="M51.34,118.45l1,.16a39.16,39.16,0,0,0,5.71.48,39.16,39.16,0,0,1-5.71-.48l-1-.16m-9.17-2.83a43.35,43.35,0,0,0,9.17,2.83,43.35,43.35,0,0,1-9.17-2.83M39,114.09c.68.37,1.64.85,2.83,1.38-1.19-.53-2.15-1-2.83-1.38"/><path class="j" d="M65.59,118h0a16.84,16.84,0,0,1-3.15.78,29.74,29.74,0,0,1-4.18.28,38.14,38.14,0,0,1-5.93-.48h0a39.16,39.16,0,0,0,5.71.48h.22a29.74,29.74,0,0,0,4.18-.28,16.84,16.84,0,0,0,3.15-.78h0"/><path class="k" d="M110.08,41.76c-.71,0-1.07.1-1.07.17s0,0,.06,0a42.74,42.74,0,0,1,6.87,3.93c1,.71,1.9,1.4,2.8,2.15s1.68,1.48,2.38,2.21a22.43,22.43,0,0,1,5.9,9.54,19.35,19.35,0,0,1,.6,2.56c0,.26.09.54.14.82s0,.51.07.78c0,.53.09,1.09.1,1.68,0,.29,0,.58,0,.89a30.48,30.48,0,0,1-.73,6.57,28,28,0,0,1-2.32,6.59,17.08,17.08,0,0,1-2.5,3.84,16.85,16.85,0,0,1-11,5.49c-1.78.25-2,2-3.06,3a8.89,8.89,0,0,0-1.48.59c-.83.89-2.47,1.18-2.47,2.51a2.13,2.13,0,0,0,.17.79h0a17.11,17.11,0,0,1-6.22,4.82,4.55,4.55,0,0,1-2.91,1c-1.17,0-2.41-.24-3.59-.25a3,3,0,0,0-.42,0,5.16,5.16,0,0,0-1.66.34,5.23,5.23,0,0,1-1.69.34h-.31a5.67,5.67,0,0,1-.82-.07,5.36,5.36,0,0,0-.74-.08H86c-.06.28-.43.5-.43.72a.29.29,0,0,0,.16.24,4.47,4.47,0,0,0,1.85.79c2.45.35,5,1.06,7.2,1.16h1c4.67,0,8.78-.78,11.7-3,.36-.26.39-.76.39-1.27v-.33a3.66,3.66,0,0,1,0-.67,4.38,4.38,0,0,1,1.31-2.22,3.91,3.91,0,0,0,1-2.61,4.84,4.84,0,0,0,0-.53.45.45,0,0,1,0-.11c0-.36.33-.63.7-.77a20.09,20.09,0,0,0,8-2.52,25.86,25.86,0,0,0,4-2.9,31.75,31.75,0,0,0,3.71-3.79,17.74,17.74,0,0,0,2.63-4.51,31.16,31.16,0,0,0,2.05-7.22,35.8,35.8,0,0,0,.43-5.4c0-.79,0-1.56-.08-2.29a29.48,29.48,0,0,0-.35-3.14c-.19-1-.38-1.82-.54-2.36a26.8,26.8,0,0,0-6.39-10.52,25.31,25.31,0,0,0-8.09-5.52A20.63,20.63,0,0,0,113,42.13a13.77,13.77,0,0,0-2.4-.35l-.47,0"/><path d="M55.82,100.78c-.44-.43-1-.79-1.28-1.32-1.23-2.7-2.43-5.43-3.5-8.2a4.76,4.76,0,0,1,.86-5.13C54,83.57,56.52,81.06,55.21,77c-3.15-1.16-6.61-2.4-10-3.69-2.46-.92-4.21-.44-5.67,1.87-.87,1.37-1.87,1.75-3.48.9,2.77-1.12,3.28-5.59,7.52-4.58,1.56.37,3.62-3.55,3.19-5.7A35.27,35.27,0,0,1,46,61a6.11,6.11,0,0,1,6.51-6.6,3.07,3.07,0,0,0,.86,0c.54-.14,1.07-.35,1.43-.46.73-3.45-2-6.6-.28-10,.27-.56-.25-1.5-.38-2.27s-.65-1.94-.36-2.67c.65-1.64-.19-3.36.84-5.14.7-1.21-.39-3.47-.74-5.24a13.73,13.73,0,0,0-.74-1.94c2.33.14,2.45.46,3.39,7.81a6.74,6.74,0,0,0,6.35-3.92A11.91,11.91,0,0,1,66,27.29c1.73-1.39,3.23-1.09,4.58.68.5.65,1.07,1.25,1.6,1.86-1.56.71-1.56.71-4.14-2.24a36.46,36.46,0,0,0-3.82,4.08c-1.35,1.94-2.65,3.6-5.26,3.86-2.45.24-3.95,3.29-3.32,5.92a30.49,30.49,0,0,1,.3,4.08,43.82,43.82,0,0,0,1,7c.18.65,1.91.88,2.34,1.05,1.3-2.35,2.37-4.19,3.32-6.08a30.83,30.83,0,0,0,1.22-3.19c1.75.16,1.76.26,0,4.18l4.56-1.43a3.23,3.23,0,0,1-3.47,2.27c-2.48,0-2.86.33-2.9,2.76,0,.51,0,1,0,2,2.75.8,5.57,1.71,8.45,2.4a3.1,3.1,0,0,0,2.19-.79,43.18,43.18,0,0,0,4.31-3.92c2.82-3,1.61-5.83-.54-8.45a3.39,3.39,0,0,1-.5-4.12c1-1.94,1.46-3.8-.42-5.55-.24-.22-.15-.81-.2-1.23.43.06,1,0,1.27.21,2,1.67,2.7,3.72,1.51,5.77-1.47,2.54-.5,4.41.91,6.37.37.5.79,1,1,1.19a63.85,63.85,0,0,0,5.69-4.18c.79-.72,1-2.06,1.49-3.14,1.63-3.94,5.29-5.49,8.63-7.46.42,1.72.11,2.41-1.3,2.93-3.91,1.44-6,4.28-6.16,8.89,3,.78,6,1.64,9.1,2.36,2.88.68,3.56,1.57,3.53,4.62,0,1.85.21,3.7.29,5.54a6.45,6.45,0,0,1-.24,1.37l-.78.14a26.62,26.62,0,0,1-1-4.82c-.19-5.81-.13-4.65-5-6.06a55.28,55.28,0,0,1-6.57-2.25c-1.47-.62-2.28.23-2.93,1.06a2.23,2.23,0,0,0,0,2.17,16.53,16.53,0,0,0,3.22,2.57c.68.47,1.53.69,2.24,1.15.33.21.5.69.74,1-.42.05-.85.07-1.27.15-.59.12-1.18.28-1.87.45L82.06,46.7c-2.69,3-3.49,7.87-8.11,9.91,2.66,2.32,4.83,4.8,8.65,4a2.65,2.65,0,0,1,2.31.69c1.62,2.68,3,5.51,4.48,8.29l-.61.47c-.46-.33-.94-.64-1.37-1a2.22,2.22,0,0,1-.48-.71c-1-1.82-1.49-4.17-3-5.33s-3.7-.84-5.55-1.17c-.18.15-.34.23-.38.34-.2.71-.38,1.43-.56,2.15A9.14,9.14,0,0,1,76.62,62c-.14-1.45-2.67-4.23-4.1-4.3-1.68-.1-3.37-.22-5-.35s-2.55.06-2.65,2.18a15.65,15.65,0,0,1-2.09,6.18c-.56-3.27.2-6.34,1.1-9.68-2.69-.84-5.47-1.95-8.55-.74a6.17,6.17,0,0,1-2.08.42,5.39,5.39,0,0,0-5.37,7c1.05,3.44.75,6.26-1.32,9-.07.09,0,.27,0,.41,2.39,1,4.81,1.91,7.2,2.91a3.62,3.62,0,0,0,4.62-.94A20.52,20.52,0,0,1,62,70.7c.27,3.59-3.8,4.81-4.53,8,1.9.55,3.68,1,5.39,1.6a4.34,4.34,0,0,1,2.29,1.41,15.92,15.92,0,0,0,7.35,6.54c.4.19.58.86.85,1.3l-.43.61-6.24-3.6c-1.58,4.34-1.58,4.34-.41,6.65a5,5,0,0,1-1.64-.74c-.9-1-1.64-2.09-2.5-3.22a4.64,4.64,0,0,0,1.46-.91c2-2.4.55-6.36-2.53-7.14l-3.22-.84c-1.36,1.92-2.53,3.85-4,5.55-1.92,2.25-1.48,4.59-.59,7s2.07,4.94,3.12,7.41Z"/><path d="M69,106.46a28.44,28.44,0,0,1,2.67,3.16,55.06,55.06,0,0,1,2.92,5.47c1.08,2.29,3.13,2.52,5.28,2.87,4.38.7,8.73,1.62,13.1,2.4,1.46.26,2.19-.54,2.55-1.9.89-3.36,1.85-6.7,2.78-10l1.14.08c.12.61.57,1.44.32,1.79-2.08,3-2,6.64-2.91,10a2.53,2.53,0,0,1-1.57,1.44c-4,1.11-7.68-.43-11.45-1.33-1.84-.44-3.7-.82-5.75-1.27-.62,2.65-1.21,5.13-2,8.25-.48-.76-1.11-1.3-1.06-1.76.23-1.94.69-3.85,1-5.78.06-.36,0-1-.25-1.11-3.1-1.88-4-5.28-5.64-8.14a5.86,5.86,0,0,0-3.62-2.82,17,17,0,0,0-11.36-.13,1.94,1.94,0,0,1-1.52-.47c2.87-2.44,6.38-1.75,10.08-2-.36-1.61-.68-3.18-1.09-4.71-.25-1,.87-3.46,1.79-3.58.29,0,.64.4.86.55l-1.45,3,.46.41,3-1.7.47.54-3.16,2.78c.65,3.4,1.3,3.72,4.39,1.68a46.26,46.26,0,0,1,4.78-3.35c1.28-.63,2.88-.6,5-1-1.11-1.68-2-3.34-3.24-4.8-.93-1.14-1.08-1.75.48-2.27a62.76,62.76,0,0,0,6-2.15,5.69,5.69,0,0,0,3.49-5.66,8.33,8.33,0,0,1,4.42-8.07c.89-.51,1.71-1.12,1-2.38a1.07,1.07,0,0,1,.2-1c2-2.08,3.8-4.35,6.77-5,.46-.1,1.07.5,1.61.78a6.4,6.4,0,0,1-1.15,1.12c-1.49.89-3,1.67-4.53,2.56-.33.2-.74.75-.67,1,.54,2.41-1.14,3.46-2.71,4.56a7.85,7.85,0,0,0-3.28,7c0,4.17-3,5.83-6.15,7.32a22.36,22.36,0,0,1-3.6,1.08c.9,1.84,1.78,3.72,2.76,5.56.18.34.73.51,1.13.7.89.41,1.8.78,2.7,1.17l-.21.8a54.83,54.83,0,0,0-5.54-.6,7.09,7.09,0,0,0-3.48.74c-2,1.14-3.86,2.59-5.79,3.89a2.34,2.34,0,0,1-.85.17Z"/><path d="M115.85,89.09c-1.8-3.1-.4-5.85.54-8.78,1-3.26,3.78-4.52,6.77-6.65-.32,1-.34,1.55-.63,1.86A34.89,34.89,0,0,0,119,79a10.64,10.64,0,0,0-2,8.59l4.88,4-.5.64-3-2.08c-6.19,1.4-10.93,4.47-12.6,11.1l12,4.57-.35,1c-1.38-.38-2.78-.67-4.12-1.14a52.64,52.64,0,0,0-5.73-2.19,20.61,20.61,0,0,0-5.5-.18c-.33,0-.63.94-.93,1.46-.63,1.11-.79,2.79-2.76,2.23,0-.16-.15-.31-.12-.41.36-1,.75-2,1.13-3-1-.12-2.1-.31-3.16-.34s-2.1.07-3.33.13c.41,2.19-1.07,4.24.47,6.74l-3.79-.74,0-.65,1.67-.53v-3.94l-2.5-.16-.12-.93c3-.59,6.14-1.92,9-1.58,4.42.53,6.85-.9,8.3-4.89a16.37,16.37,0,0,1,2-3.18c-2.05-4.86-6.49-7.09-10.81-9.45l.19-.64c.6,0,1.39-.34,1.76-.07,3,2.24,6.29,4.25,8.7,7,1.63,1.87,2.34,1.67,4,.51A20.65,20.65,0,0,1,115.85,89.09Z"/><path d="M114.87,55.84c-1.26,4.83-5.57,6.48-9.27,9.44,5.84,1.47,9.73,5.15,13,9.82a16.28,16.28,0,0,1-2.68-1.42,10.81,10.81,0,0,1-2.15-2.37c-2-3-5.62-3.15-8.45-4.66-.23-.12-.79.51-1.24.6a15.76,15.76,0,0,1-2.18.13l0-.58,2.7-3c-1.29-1.82-2.56-3.63-3.83-5.44l.64-.5c2.5.59,2.27,4.05,5.28,4.89Z"/><path d="M83.24,68.64C84,71,81.31,70.7,80.16,71.79a3.63,3.63,0,0,1,.66,1,7.61,7.61,0,0,1,.17,2c0,.14-.43.26-.67.39a5.87,5.87,0,0,0-.77-1.52A20.13,20.13,0,0,0,77,71.2c-1.67-1.29-2.47-4.28-1.37-5.91.25-.38,1.05-.4,2-.7-.17,1.42-.28,2.46-.42,3.5-.26,1.84.68,2.75,2.39,2.17C80.73,69.87,81.85,69.26,83.24,68.64Z"/><path d="M61.57,77.36c1.5-2.19,3-4.39,4.52-6.56a3.33,3.33,0,0,1,1.54-1.11c-1.33,2.53-2.62,5.1-4.06,7.58-.23.4-1.13.42-1.72.62Z"/><path d="M64.05,78.37c1.59-2.21,3.08-4.31,4.58-6.41C68.35,75.18,65.78,78.51,64.05,78.37Z"/><path d="M70,77.25c-.07,3.23-1,4.46-2.67,3.92Z"/></svg>