<svg xmlns="http://www.w3.org/2000/svg" viewBox="0 0 150 150"><defs><style>.a{fill:#d9cdc5;}.b{fill:#bcab9e;}.c{fill:#b19d8f;}.d{fill:#816654;}.e{fill:#7e614e;}.f{fill:#89715d;}.g{fill:#a48c7d;}.h{fill:#d2c8be;}.i{fill:#b29e8f;}.j{fill:#9d8575;}.k{fill:#ece8e4;}</style></defs><title>icon</title><path class="a" d="M106.2,48.74h0a21.53,21.53,0,0,0,2.65,2.54h0a21.53,21.53,0,0,1-2.65-2.54m-10-10.84h0a21.18,21.18,0,0,1,3.48,2.64,31.46,31.46,0,0,1,3.08,3.19l.28.53h0l-.28-.53a31.46,31.46,0,0,0-3.08-3.19h0a21.18,21.18,0,0,0-3.48-2.64m-28.8-.22a6.27,6.27,0,0,0-1,.17,11.88,11.88,0,0,0-2.62,1l0,0a16.89,16.89,0,0,0-3.68,2.73h0l-.21.2h0l.21-.2a16.92,16.92,0,0,1,3.73-2.75,11.88,11.88,0,0,1,2.62-1,6.27,6.27,0,0,1,1-.17,1,1,0,0,0,.31.09h0a1,1,0,0,1-.31-.09m8.1-1.36L72,37.11h0l-.17,0h0l.17,0,3.59-.79h0m9.25-2.55h0l.56,0a29.92,29.92,0,0,1,5.07.91c1.29.35,2.1.64,2.1.64l.1.07h0l-.1-.07h0s-.81-.29-2.1-.64h0l-.09,0a31,31,0,0,0-5-.88h0l-.56,0"/><path class="b" d="M82.45,33.61a10.14,10.14,0,0,0-4.93,1.14,14.37,14.37,0,0,1,5.66-1h.15c.49,0,1,0,1.46.05-.36-.05-.72-.08-1.08-.11s-.84,0-1.26,0"/><path class="b" d="M63.25,88.86l.07,0h0l-.07,0M83.33,33.72h-.15a14.34,14.34,0,0,0-5.66,1,7.7,7.7,0,0,0-1.84,1.42l-.09.14h0l-.1.11c-1.33.31-2.53.53-3.66.71a24.45,24.45,0,0,1-3.75.64h-.28l-.64.12a12.35,12.35,0,0,0-7,3.85,35.35,35.35,0,0,0-3,3.95c-.15.28-.3.57-.44.87,0,0,0,.11-.07.17l0,0,0,0,0,0,0,0c0-.06.05-.12.07-.17.14-.3.29-.59.44-.87l-.77,1.15c-1,1.76-2,3.46-2.88,5.14a80.08,80.08,0,0,1-5,9A67.29,67.29,0,0,1,42,69.45a20.48,20.48,0,0,1-4.1,2.18c-1.93.93-4,2.16-5,2.75a6.19,6.19,0,0,0-2.61,5.39v.11h0V80A13.37,13.37,0,0,0,32,86.18c1,1.37,1.95,2.68,2.87,3.9s1.88,2.47,2.92,3.94,2.2,3.11,3.67,4.88a29.07,29.07,0,0,0,5.38,5.16c2.5,2.27,4.09,4.84,6.48,6.06a9.27,9.27,0,0,0,3.15.6,7.66,7.66,0,0,0,3.27-.75c1.42-.74,2.64-1.67,3.9-2.18,4.26-.42,6.1-1.52,7-2.29a3.41,3.41,0,0,0,.82-1.16s0,0,0,0c.75,0,.74,2.81,1.69,3.44a1.49,1.49,0,0,0,.55.1c1.16,0,2.34-1.26,3.13-2.64.67-1.07,1.35-2.15,2-3.14A13,13,0,0,1,81,99.55a9.47,9.47,0,0,1,2.27-1.68l.2-.1a3.17,3.17,0,0,1-.34-.3,13.61,13.61,0,0,1-1.58-2.27,1.67,1.67,0,0,0-1.32-.78,5.94,5.94,0,0,1-1.61-.15,5.76,5.76,0,0,1-1.11-2c-.19-.63-.44-.84-.73-.84s-.94.47-1.46.74a.83.83,0,0,1-.51.21c-.43,0-.82-.41-1.21-.82s-.78-.81-1.2-.81h-.11a3.29,3.29,0,0,0-1.65.87,3.33,3.33,0,0,1-1.58.86.77.77,0,0,1-.7-.52.83.83,0,0,1,.06.27h0c0,.22-.19.31-.48.31a3.94,3.94,0,0,1-1.37-.35c-.8-.33-1.51-.83-1.5-1.13h0a.21.21,0,0,1,.15-.18s0-.14,0-.31h0a6.83,6.83,0,0,1,.2-1.51c.12-.36.26-.88.38-1.22l-.33.1-.06,0-.53.18-.11,0-.45.18-.17.07-.26.13-.18.1-.11.06-.2.13h0l0,0,0,0h0l0,0h0l.08-.06h0a.47.47,0,0,1,.1-.09l.09-.09h0A5.4,5.4,0,0,0,64.1,88l.07-.09c.21-.27.46-.62.74-1.06l.27-.46.08-.14a.31.31,0,0,0,0-.1c.19-.34.41-.76.66-1.27l.15-.31.09-.2v0h0c.09-.22.19-.44.29-.66A10.7,10.7,0,0,1,64.07,82s-.29-.29-.78-.83a20,20,0,0,1-1.86-2.44,21,21,0,0,1-3.31-9.52c-.06-.63-.09-1.27-.09-1.93h0a19.33,19.33,0,0,1,3.24-10.81,18.61,18.61,0,0,1,2.33-2.8c.45-.42.92-.83,1.41-1.22.24-.2.49-.39.74-.57l.71-.5a15.09,15.09,0,0,1,6.22-2.47A3.4,3.4,0,0,0,74,48.34a23.5,23.5,0,0,0,4.13-3.44,13.3,13.3,0,0,1,1.63-.45,15.54,15.54,0,0,1,3.4-.36h.5c3,.13,6.3,1.36,7.18,4.57,0,0,2,2.59,4,5.4s3.9,5.77,5.92,6.39a14.79,14.79,0,0,0,.34,2.69,4,4,0,0,0,1.06,2.13l.36.13.93.34h0a1.88,1.88,0,0,1-1.29-.47l-1.65-.57c.55.3,1.1.61,1.61.94A16.74,16.74,0,0,1,105,67.88c1.35,1.3,2.21,2.72,2.21,3.68h0a1.11,1.11,0,0,1-.15.58s.27.57.63,1.53a21.63,21.63,0,0,1,1.06,3.91,15,15,0,0,1,.25,2.83h0a11.59,11.59,0,0,1-.13,1.81A7.19,7.19,0,0,1,108,84.8l1.16-1.3c1.11-1.19,2.26-2.52,3.48-3.9s2.4-2.88,3.54-4.38c1.83-2.19,4.23-4.75,5.57-7.64a10,10,0,0,0,1-4.17v-.28a6.69,6.69,0,0,0-1.68-4.22c-2.76-2.85-5.83-4.19-8.42-5.43a26.09,26.09,0,0,1-3.84-2.2,25.94,25.94,0,0,0,2.52,1.77,30,30,0,0,0,3.72,1.9c1,.44,1.66.68,1.66.68s-.66-.24-1.66-.68a30,30,0,0,1-3.72-1.9,25.94,25.94,0,0,1-2.52-1.77h0a25.94,25.94,0,0,0,2.52,1.77,30,30,0,0,0,3.72,1.9c1,.44,1.66.68,1.66.68s-.66-.24-1.66-.68a30,30,0,0,1-3.72-1.9,25.94,25.94,0,0,1-2.52-1.77h0a25.94,25.94,0,0,0,2.52,1.77,30,30,0,0,0,3.72,1.9c1,.44,1.66.68,1.66.68s-.66-.24-1.66-.68a30,30,0,0,1-3.72-1.9,25.94,25.94,0,0,1-2.52-1.77,12.93,12.93,0,0,1-2.65-2.54,25.07,25.07,0,0,1-3.12-4.48,23.72,23.72,0,0,0-6.54-6.06,2.78,2.78,0,0,0-.3-.3,3.92,3.92,0,0,0-1.4-.57c-.72-.64-1.44-1.28-2.22-1.9-2.51-.47-5.13-1.32-7.83-1.66-.48,0-1-.05-1.46-.05"/><path class="c" d="M108.85,51.28h0a25.94,25.94,0,0,0,2.52,1.77,30,30,0,0,0,3.72,1.9c1,.44,1.66.68,1.66.68s-.66-.24-1.66-.68a30,30,0,0,1-3.72-1.9,25.94,25.94,0,0,1-2.52-1.77h0M56.69,46.56h0l0,.12,0,0c0-.06.05-.12.07-.17m.44-.87h0c-.15.28-.3.57-.44.87h0c.14-.3.29-.59.44-.87h0m45.95-1.43h0a25.07,25.07,0,0,0,3.12,4.48h0a25.07,25.07,0,0,1-3.12-4.48h0m-31.3-7.12h0a24.45,24.45,0,0,1-3.75.64h0a24.45,24.45,0,0,0,3.75-.64h0m3.81-.83h0m.09-.14h0l-.09.14h0l.09-.14h0m16.94-.74h0c.78.62,1.5,1.26,2.22,1.9a3.92,3.92,0,0,1,1.4.57h0a4.13,4.13,0,0,0-1.35-.57h0c-.72-.64-1.44-1.28-2.22-1.9h0m-9.44-1.71h0a14.34,14.34,0,0,0-5.66,1h0a14.34,14.34,0,0,1,5.66-1m.15,0h0c.49,0,1,0,1.46.05h0c-.48,0-1-.05-1.46-.05m0,0h0"/><path class="b" d="M92.62,35.43c.78.62,1.5,1.26,2.22,1.9a4.05,4.05,0,0,1,1.4.56,19.05,19.05,0,0,0-3.49-2.43l-.13,0"/><path class="b" d="M75.68,36.17l-.14.15h0l.09-.14"/><path class="b" d="M71.78,37.14c-1.45.23-2.77.4-4,.63H68a24.45,24.45,0,0,0,3.75-.64"/><path class="b" d="M77,57.24a7.83,7.83,0,0,0-1.79.21,7.62,7.62,0,0,0-1.51.5c.45-.07,1-.15,1.55-.19,1.14-.13,2.45-.22,3.58-.29A7.2,7.2,0,0,0,77,57.24m26.06-13a25.07,25.07,0,0,0,3.12,4.48c-.16-.2-.31-.42-.47-.64-.86-1.35-1.72-2.63-2.65-3.84"/><path class="b" d="M67.19,67.28a16.62,16.62,0,0,0-.2,2.6A19.18,19.18,0,0,0,67.25,73s.11.33.34.88c0-.12,0-.25-.07-.38q-.24-1.27-.36-2.61-.06-.81-.06-1.62h0c0-.32,0-.65,0-1s0-.68.07-1"/><path class="b" d="M77.66,73.27a7.41,7.41,0,0,0-1.58,1.2,9.22,9.22,0,0,0-2.42,5.7,14.92,14.92,0,0,1,2.43-5,18,18,0,0,1,1.57-1.86"/><path class="b" d="M66.52,83.71l-.17.39v0a2.92,2.92,0,0,0,.14-.31l0-.05h0"/><path class="b" d="M66.53,83.71l-.17.36,0,.06L66,84.8l-.06.11c-.13.28-.26.53-.38.77l0,0-.13.24c-.12.22-.23.42-.35.61l-.26.44-.12.18-.31.46-.06.07a6.21,6.21,0,0,1-.5.62,2.91,2.91,0,0,1-.25.25l-.19.17h0l0,0h0l.07,0,.19-.1a.41.41,0,0,1,.11-.07h0l.07,0,.06,0,0,0,.21-.1c.19-.09.4-.17.62-.26l.08,0h0l.43-.15.16,0,.34-.1a1.37,1.37,0,0,1,.13-.27,16,16,0,0,0,1.53-3.37c-.3-.15-.59-.29-.87-.45"/><path class="b" d="M107.35,85.57c-.49.34-1.7,1.18-2.93,2.09.08.67.14,1.32.17,2h0c-.85,2.66-1.26,4.94-4.88,5.95a35.92,35.92,0,0,1-9.07,1.08c-1.48,0-3-.07-4.72-.22l0,.06H86c1.7.15,3.29.23,4.79.23a35.9,35.9,0,0,0,9.07-1.09c3.61-1,4-3.28,4.88-6a12,12,0,0,1,2.65-4.12"/><path class="b" d="M65.25,86.3l-.07.12v0s0-.1.08-.14"/><path class="b" d="M70.86,86.93h0"/><path class="b" d="M70.87,86.93h0"/><polyline class="b" points="70.8 86.93 70.79 86.93 70.79 86.93 70.8 86.93"/><polyline class="b" points="70.77 86.93 70.77 86.93 70.77 86.93 70.77 86.93"/><path class="b" d="M70.76,86.93h0"/><path class="b" d="M71.25,87h0l.25,0-.25,0"/><path class="b" d="M69,87.15h0"/><path class="b" d="M68.63,87.2l-.47.08c-.63.1-1.18.21-1.66.33l-.09,0c.54-.13,1.26-.28,2.22-.43"/><path class="b" d="M64.33,87.74,64.1,88a4.51,4.51,0,0,1-.32.37l.06-.06c.12-.14.27-.32.46-.57l0,0"/><path class="b" d="M74.43,88.16h0l0,0,.12.08-.15-.1"/><path class="b" d="M64.31,88.3l-.21.09-.24.11.23-.11.22-.09"/><path class="b" d="M63.83,88.52h0l0,0-.07,0h0l-.09,0h0l.14-.08,0,0"/><polyline class="b" points="74.98 88.57 74.98 88.57 74.98 88.57 74.98 88.57"/><path class="b" d="M63.55,88.63l0,0h0l0,0"/><path class="b" d="M63.51,88.66l-.08.08h0l0,0a.53.53,0,0,0,.12-.1"/><path class="b" d="M75.23,88.8l0,0,0,0h0"/><path class="b" d="M63.33,88.81h0m0,0h0"/><polyline class="b" points="63.33 88.81 63.33 88.81 63.33 88.81 63.33 88.81"/><polyline class="b" points="63.33 88.81 63.33 88.81 63.32 88.81 63.33 88.81 63.33 88.81"/><polyline class="b" points="63.32 88.81 63.32 88.82 63.3 88.83 63.3 88.83 63.31 88.82 63.32 88.81"/><polyline class="b" points="63.29 88.84 63.28 88.84 63.27 88.85 63.27 88.85 63.27 88.85 63.29 88.84"/><polyline class="b" points="63.28 88.85 63.26 88.86 63.27 88.85 63.28 88.85"/><polyline class="b" points="63.26 88.86 63.26 88.86 63.26 88.86 63.26 88.86"/><polyline class="b" points="63.26 88.86 63.26 88.86 63.26 88.86 63.26 88.86 63.26 88.86"/><polyline class="b" points="63.26 88.86 63.26 88.86 63.25 88.86 63.26 88.86"/><polyline class="b" points="63.26 88.86 63.26 88.86 63.25 88.86 63.26 88.86 63.26 88.86"/><polyline class="b" points="63.26 88.86 63.26 88.86 63.25 88.86 63.26 88.86"/><polyline class="b" points="63.25 88.86 63.25 88.86 63.25 88.86 63.25 88.86"/><polyline class="b" points="75.32 88.89 75.32 88.89 75.32 88.89 75.32 88.89 75.32 88.89"/><path class="b" d="M85.83,96.55c-.15.18-.32.35-.47.53.29-.1.6-.23.94-.38a3.68,3.68,0,0,1-.47-.15"/><path class="d" d="M82.14,80.25a5.65,5.65,0,0,0-3.22,1.33c-.34.26-.78.55-1.24.91l0,0c.42-.32.82-.6,1.14-.84a5.54,5.54,0,0,1,3.22-1.35,1.87,1.87,0,0,1,.34,0c.9.15,1.51.82,1.8,2a2.32,2.32,0,0,0,1,1.93c.5.37,1.07.7,1.23,1.36a4.71,4.71,0,0,0,.76,1.21,1.14,1.14,0,0,1,.33.7h0a.88.88,0,0,1,0,.21c-.86.88-1.37,1.34-1.37,2.33a1.93,1.93,0,0,0,0,.24,2.08,2.08,0,0,0,.8.49c.45.16.26.49.4.72h0c-.79,1-2.85,1.59-3.42,2.67H84l0,0c.6-1.06,2.63-1.7,3.41-2.66-.15-.22.06-.56-.4-.73a1.81,1.81,0,0,1-.79-.49,1.93,1.93,0,0,1,0-.24h0c0-1,.51-1.49,1.37-2.39a.82.82,0,0,0,0-.21,1.15,1.15,0,0,0-.34-.71,5.17,5.17,0,0,1-.77-1.23c-.15-.66-.73-1-1.23-1.37a2.3,2.3,0,0,1-1-1.93c-.3-1.23-.91-1.91-1.81-2.07a2.23,2.23,0,0,0-.37,0"/><path class="e" d="M81.28,72.34a7.4,7.4,0,0,0-3.62.93,18,18,0,0,0-1.57,1.86,14.92,14.92,0,0,0-2.43,5,12.62,12.62,0,0,0-.07,1.4c0,.5,0,1,.08,1.56a1.1,1.1,0,0,1,.31,0,2,2,0,0,1,.35,0l.35,0a1,1,0,0,0,.8-.36c.35-.32.71-1.1,1-1.1a.17.17,0,0,1,.1,0,4.92,4.92,0,0,1,1.07.78c.46-.36.9-.65,1.24-.91a5.65,5.65,0,0,1,3.22-1.33,2.23,2.23,0,0,1,.37,0c.9.16,1.51.84,1.81,2.07a2.3,2.3,0,0,0,1,1.93c.5.38,1.08.71,1.23,1.37a5.17,5.17,0,0,0,.77,1.23,1.15,1.15,0,0,1,.34.71h0a.82.82,0,0,1,0,.21c-.86.9-1.37,1.37-1.37,2.39a1.93,1.93,0,0,0,0,.24,1.81,1.81,0,0,0,.79.49c.46.17.25.51.4.73h0c-.78,1-2.81,1.6-3.41,2.66.57.15,1.24,0,1.9.2.2,0,.26.12.26.24h0c0,.22-.2.54-.22.8a.48.48,0,0,1,.16.37h0a1,1,0,0,1-.21.52c1.68.15,3.24.22,4.72.22a35.92,35.92,0,0,0,9.07-1.08c3.62-1,4-3.29,4.88-5.95,0-.64-.09-1.29-.17-2l-.24.17c-1.53,1.16-3,2.3-3,3.5a1.69,1.69,0,0,0,0,.38h0a13.5,13.5,0,0,1-1.33,1.06,15.76,15.76,0,0,1-3.07,1.73,8.73,8.73,0,0,1-3.15.78c-1,0-1.69-.35-1.87-1.22L91,92.93c-.41-.62-.9-1.28-1.11-1.68h0s.27-.69.58-1.64a14.81,14.81,0,0,0,.71-3.43c0-.15,0-.31,0-.48A14.34,14.34,0,0,0,90.55,82,11.9,11.9,0,0,1,90,79.31h0a1.15,1.15,0,0,1,.08-.48,8.93,8.93,0,0,0-1.32-2.46,10,10,0,0,0-5.15-3.68,7.58,7.58,0,0,0-2.3-.35"/><path class="e" d="M74.86,88.48h0l.11.09h0l0,0a.18.18,0,0,0-.07,0"/><path class="f" d="M78.85,57.47c-1.13.07-2.44.16-3.58.29-.57,0-1.1.12-1.55.19a11.41,11.41,0,0,0-1.45.78,10.84,10.84,0,0,0-2.85,2.88,14.05,14.05,0,0,0-2.06,4.75,9.32,9.32,0,0,0-.17.92c0,.33-.06.67-.07,1s0,.65,0,1q0,.81.06,1.62.12,1.34.36,2.61c0,.13,0,.26.07.38.14.34.31.77.53,1.25s.55,1.21.9,1.9v0c.17-.51.34-1,.5-1.53s.36-1.1.55-1.71v0l0,0h0l0,0,.81-2.6a.74.74,0,0,1,0-.14h0l0,.14a2.46,2.46,0,0,0-.07.6c0,.43.07.86.07,1.23h0V73a80.73,80.73,0,0,0,.92,9.12l1,1.7a1.63,1.63,0,0,1,.91-.72c0-.54-.08-1.06-.08-1.56h0a12.62,12.62,0,0,1,.07-1.4,9.22,9.22,0,0,1,2.42-5.7,7.25,7.25,0,0,1,5.2-2.13,7.58,7.58,0,0,1,2.3.35,10,10,0,0,1,5.15,3.68,8.93,8.93,0,0,1,1.32,2.46h0a1.15,1.15,0,0,0-.08.48A11.9,11.9,0,0,0,90.55,82a14.34,14.34,0,0,1,.65,3.74h0c0,.17,0,.33,0,.48a14.81,14.81,0,0,1-.71,3.43c-.31,1-.58,1.64-.58,1.64.21.4.7,1.06,1.11,1.68l.77,1.13c.18.87.9,1.22,1.87,1.22a8.73,8.73,0,0,0,3.15-.78,15.76,15.76,0,0,0,3.07-1.73,13.5,13.5,0,0,0,1.33-1.06,1.69,1.69,0,0,1,0-.38h0c0-1.2,1.5-2.34,3-3.5,1.31-1,2.65-1.9,3.17-2.26l.22-.16a2.84,2.84,0,0,0,.45-.61,7.19,7.19,0,0,0,.82-2.58,11.59,11.59,0,0,0,.13-1.81,15,15,0,0,0-.25-2.83,21.63,21.63,0,0,0-1.06-3.91c-.36-1-.63-1.53-.63-1.53h0a1.11,1.11,0,0,0,.15-.58c0-1-.86-2.38-2.21-3.68a16.74,16.74,0,0,0-2.88-2.24c-.51-.33-1.06-.64-1.61-.94l-.44-.14a71.79,71.79,0,0,0-7.37-1.89c-2.66-.55-5.31-1-7.4-1.47S81.62,60,81.2,58.64a5.55,5.55,0,0,0-1.52-.89,6.18,6.18,0,0,0-.83-.28"/><path class="f" d="M69.57,75.34l0,.13c-.17.55-.34,1.07-.5,1.55h0l.38-1.17.17-.51"/><path class="g" d="M83.18,44.09a15.54,15.54,0,0,0-3.4.36,13.3,13.3,0,0,0-1.63.45A23.5,23.5,0,0,1,74,48.34a3.4,3.4,0,0,1-1.34.57,15.09,15.09,0,0,0-6.22,2.47l-.71.5c-.25.18-.5.37-.74.57-.49.39-1,.8-1.41,1.22a18.61,18.61,0,0,0-2.33,2.8A19.33,19.33,0,0,0,58,67.28c0,.66,0,1.3.09,1.93a21,21,0,0,0,3.31,9.52,20,20,0,0,0,1.86,2.44c.49.54.78.83.78.83a10.7,10.7,0,0,0,2.45,1.71l0-.08.09-.21.06-.16.28-.67.34-.84.06-.17,0-.09,0-.07c.11-.27.21-.54.31-.81l.18-.48c.09-.25.17-.49.26-.73h0l.17-.48c0-.13.09-.26.14-.4q.26-.76.51-1.5c-.35-.69-.65-1.34-.9-1.9s-.39-.91-.53-1.25c-.23-.55-.34-.88-.34-.88A19.18,19.18,0,0,1,67,69.88h0a16.62,16.62,0,0,1,.2-2.6,9.32,9.32,0,0,1,.17-.92,14.05,14.05,0,0,1,2.06-4.75,10.84,10.84,0,0,1,2.85-2.88A11.41,11.41,0,0,1,73.72,58a7.62,7.62,0,0,1,1.51-.5A7.83,7.83,0,0,1,77,57.24a7.2,7.2,0,0,1,1.83.23,6.18,6.18,0,0,1,.83.28,5.55,5.55,0,0,1,1.52.89c.42,1.36,2,2,4.07,2.56s4.74.92,7.4,1.47A71.79,71.79,0,0,1,100,64.56l.44.14,1.65.57a4,4,0,0,1-1.06-2.13,14.79,14.79,0,0,1-.34-2.69c-2-.62-3.91-3.6-5.92-6.39s-4-5.4-4-5.4c-.88-3.21-4.22-4.44-7.18-4.57h-.5"/><path class="g" d="M102.13,65.27a1.88,1.88,0,0,0,1.29.47l-.93-.34-.36-.13"/><path class="g" d="M69,77q-.27.81-.51,1.5l-.05.16-.09.24,0,.13.11-.31.44-1.3L69,77h0"/><path class="g" d="M68.2,79.41c0,.11-.08.21-.11.31l-.06.16c-.1.29-.21.59-.32.89l-.13.33,0,.14-.12.3-.06.16,0,0c0,.12-.08.23-.13.35v0h0l-.18.43-.4,1a1.54,1.54,0,0,0-.08.19c.28.16.57.3.87.45.45-1.26.87-2.61,1.31-3.8h0c0-.14-.52-.46-.52-.84h0a.25.25,0,0,1,0-.08v0"/><path class="g" d="M67.88,80.31l0,.09,0,0,0,0"/><path class="g" d="M71.8,82.15q.15.94.33,1.92c.06.15.14.25.24.25s.14,0,.2-.17l.19-.3-1-1.7"/><path class="g" d="M66.58,83.59l0,0,0,.08h0l.06-.12"/><path class="g" d="M74.93,88.53l0,0h0l.09.07-.14-.11"/><polyline class="g" points="75.23 88.79 75.23 88.8 75.23 88.8 75.23 88.79"/><path class="g" d="M75.26,88.81l.06.08h0l-.06-.08"/><polyline class="g" points="75.25 88.81 75.27 88.83 75.27 88.84 75.25 88.81 75.25 88.81"/><polyline class="g" points="75.32 88.89 75.32 88.89 75.32 88.89 75.32 88.89"/><path class="h" d="M70.09,73.69l0,0v0l0,0h0"/><path class="h" d="M65.25,90.83h0m0,0h0m0,0h0m10.07-1.94h0m0,0-.06-.08h0l.06.08h0m-.09-.09h0l0,0h0l0,0M75,88.57l-.11-.09h0a.18.18,0,0,1,.07,0l.14.11h0L75,88.57M71.65,87h0m-.15,0-.25,0h0l.25,0h0m-.4,0h0m-.23,0h0m0,0h0m0,0h0M69.74,74.81v0l-.16.51-.17.51-.52,1.59-.44,1.3-.11.31c0,.12-.09.24-.13.36v0a.25.25,0,0,0,0,.08c0,.38.52.7.52.84h0c-.89,2.43-1.74,5.54-2.84,7.17a1.37,1.37,0,0,0-.13.27l-.34.1.16-.05h0c.22-.07.46-.13.71-.19.7-.18,1.45-.32,2.17-.43s1.18-.17,1.93-.26l.31,0h.08L69,87.15h0l-.5.08h-.07l-.23,0,.47-.08h0c-1,.15-1.68.3-2.22.43h0l.09,0-.21,0-.73.19-.15.05.33-.1h0c-.12.34-.26.86-.38,1.22a6.83,6.83,0,0,0-.2,1.51c0,.17,0,.29,0,.31h0a.21.21,0,0,0-.15.18c0,.3.7.8,1.5,1.13a3.94,3.94,0,0,0,1.37.35c.29,0,.48-.09.48-.31a.83.83,0,0,0-.06-.27h0a.77.77,0,0,0,.7.52,3.33,3.33,0,0,0,1.58-.86,3.29,3.29,0,0,1,1.65-.87h.11c.42,0,.81.41,1.2.81s.78.82,1.21.82a.83.83,0,0,0,.51-.21c.52-.27,1-.74,1.46-.74s.54.21.73.84a5.76,5.76,0,0,0,1.11,2,5.94,5.94,0,0,0,1.61.15,1.67,1.67,0,0,1,1.32.78,13.61,13.61,0,0,0,1.58,2.27,1.69,1.69,0,0,0,1.13.58,1,1,0,0,0,.89-.61,5.39,5.39,0,0,1,.75-1,1.05,1.05,0,0,0,.25-.58.48.48,0,0,0-.16-.37h0a1.4,1.4,0,0,1-.51.09,5.61,5.61,0,0,1-1.4-.27,10.35,10.35,0,0,1-1.32-.54,2.24,2.24,0,0,1-1-1,18.44,18.44,0,0,1-1.43-3.29l-.08-.18-.16-.17a3.84,3.84,0,0,0-.3-.28,2.37,2.37,0,0,0-.63-.36,7.68,7.68,0,0,0-4.48-1.78,3.65,3.65,0,0,1-.21.4l.15.1h0l-.12-.08,0,0c-.23.36-.45.49-.67.49-.49,0-1-.65-1.38-.77-.2-.11-.33-.57-.53-.89-.58-.33-1.4.34-1.54-1.13-.18-3.27-.28-6.18-.49-8.67,0-.26-.06-.57-.11-.91a4.9,4.9,0,0,1-.07-.67h0a3,3,0,0,1,0-.42c0-.09,0-.19,0-.28l0-.1"/><path class="h" d="M68.2,79.4c-.09.24-.17.48-.26.73,0-.07,0-.13.07-.2s.13-.35.19-.53h0"/><path class="h" d="M68.09,79.72l-.08.21-.08.24-.05.14,0,0,0,0-.13.37c.11-.3.22-.6.32-.89l.06-.16"/><path class="h" d="M67.58,81.1l0,.07,0,.07,0-.14m.18-.49c-.1.27-.2.54-.31.81a1.86,1.86,0,0,0,.1-.25l.21-.56"/><path class="h" d="M67.41,81.54l0,.13,0,.07,0,0,.06-.16"/><path class="h" d="M67.2,82.09v0h0v0m.19-.51-.06.17,0-.08,0-.09"/><path class="h" d="M67,82.59l-.28.67c.1-.22.19-.44.28-.67"/><path class="h" d="M66.65,83.42l-.09.21,0,0,.07-.17"/><path class="h" d="M66.34,84.13l-.19.41L66,84.8l.31-.67m.22-.5-.33.74.12-.27.21-.47"/><path class="h" d="M66.21,84.4l-.09.2,0-.06.06-.14"/><path class="h" d="M66,84.91a.89.89,0,0,1-.08.17l-.3.6c.12-.24.25-.49.38-.77m0,0c-.25.51-.47.93-.66,1.27h0c.2-.36.42-.77.65-1.26"/><path class="h" d="M65.44,86l-.12.21s0,.08-.07.13,0,.09-.08.14l-.08.13c.12-.19.23-.39.35-.61"/><path class="h" d="M64.83,87l-.12.19-.31.45.31-.46.12-.18m.08-.13c-.28.44-.53.79-.74,1.06L64.1,88l.23-.29.38-.54.2-.32"/><path class="h" d="M65.35,87.92l-.53.18.53-.18"/><path class="h" d="M64.1,88a5.4,5.4,0,0,1-.47.52h0l.16-.16A4.51,4.51,0,0,0,64.1,88"/><path class="h" d="M64.81,88.1h0l-.08,0,.09,0"/><path class="h" d="M64.71,88.14c-.15,0-.28.11-.4.16l-.22.09.17-.07.45-.18"/><path class="h" d="M64.09,88.39l-.23.11h0l.26-.13"/><path class="h" d="M63.85,88.51l-.06,0,0,0h0"/><path class="h" d="M63.79,88.54l-.07,0,.07,0"/><path class="h" d="M63.71,88.58a.41.41,0,0,0-.11.07l0,0,.09,0"/><path class="h" d="M63.59,88.59l0,0,0,0h0a.53.53,0,0,1-.12.1h0l.19-.17"/><path class="h" d="M63.54,88.68l-.13.08h0l0,0h0l.2-.13"/><path class="h" d="M63.33,88.81h0m.08-.06-.07,0h0l.06,0h0"/><path class="h" d="M63.39,88.77l0,0h0l0,0"/><polyline class="h" points="63.34 88.8 63.34 88.81 63.33 88.81 63.34 88.8"/><polyline class="h" points="63.33 88.81 63.33 88.81 63.33 88.81 63.33 88.81 63.33 88.81"/><polyline class="h" points="63.33 88.81 63.33 88.81 63.31 88.82 63.31 88.82 63.32 88.82 63.33 88.81"/><path class="h" d="M63.33,88.81h0m0,0h0"/><polyline class="h" points="63.32 88.82 63.32 88.82 63.29 88.83 63.3 88.83 63.32 88.82"/><polyline class="h" points="63.31 88.82 63.3 88.83 63.31 88.83 63.31 88.82"/><polyline class="h" points="63.31 88.82 63.31 88.83 63.28 88.84 63.31 88.82"/><polyline class="h" points="63.29 88.83 63.29 88.84 63.27 88.85 63.27 88.85 63.26 88.86 63.26 88.86 63.28 88.85 63.29 88.83"/><path class="h" d="M63.26,88.86h0m0,0h0"/><polyline class="h" points="63.27 88.85 63.26 88.86 63.26 88.86 63.26 88.86 63.26 88.86 63.26 88.86 63.27 88.85"/><path class="h" d="M63.26,88.86h0m0,0h0"/><polyline class="h" points="63.26 88.86 63.25 88.86 63.25 88.86 63.25 88.86 63.26 88.86"/><path class="h" d="M63.25,88.86h0m0,0h0"/><path class="a" d="M106.2,48.74h0a21.53,21.53,0,0,0,2.65,2.54h0a21.53,21.53,0,0,1-2.65-2.54m-10-10.85h0a21.85,21.85,0,0,1,3.48,2.65h0a31.46,31.46,0,0,1,3.08,3.19l.28.53h0l-.28-.53a31.46,31.46,0,0,0-3.08-3.19,21.85,21.85,0,0,0-3.48-2.65M84.79,33.77h0l.56,0h0a31,31,0,0,1,5,.88l.09,0h0c1.29.35,2.1.64,2.1.64h0l.1.07h0l-.1-.07s-.81-.29-2.1-.64a29.92,29.92,0,0,0-5.07-.91l-.56,0"/><path class="i" d="M92.62,35.43c.78.62,1.5,1.26,2.22,1.9h0a4.29,4.29,0,0,1,1.35.56h0a4.05,4.05,0,0,0-1.4-.56c-.72-.64-1.44-1.28-2.22-1.9h0"/><path class="j" d="M92.52,35.36l.1.07c.78.62,1.5,1.26,2.22,1.9-.72-.64-1.44-1.28-2.22-1.9l-.1-.07m-2.1-.64c1.29.35,2.1.64,2.1.64s-.81-.29-2.1-.64m-5.07-.91a31,31,0,0,1,5,.88,31,31,0,0,0-5-.88"/><path class="j" d="M94.89,37.33a4.13,4.13,0,0,1,1.35.57,21.18,21.18,0,0,1,3.48,2.64C98,39,95.88,37.46,94.89,37.33"/><path class="j" d="M83.18,33.72a14.37,14.37,0,0,0-5.66,1,4.45,4.45,0,0,0-1.84,1.42l-.09.14.09-.14a4.45,4.45,0,0,1,1.84-1.42,14.34,14.34,0,0,1,5.66-1"/><path class="a" d="M67.44,37.68a6.27,6.27,0,0,0-1,.17,11.88,11.88,0,0,0-2.62,1,16.6,16.6,0,0,0-3.73,2.75l-.21.2h0l.21-.2h0a16.89,16.89,0,0,1,3.68-2.73l0,0a11.88,11.88,0,0,1,2.62-1,6.27,6.27,0,0,1,1-.17,1,1,0,0,0,.31.09h0a1,1,0,0,1-.31-.09m8.1-1.36L72,37.11l-.17,0h0l.17,0h0l3.59-.79h0"/><path class="j" d="M60.09,41.64l-.21.2.21-.2m3.68-2.73a16.89,16.89,0,0,0-3.68,2.73,16.89,16.89,0,0,1,3.68-2.73"/><path class="j" d="M75.59,36.31l-3.64.8,3.59-.79h0"/><path class="j" d="M59.88,41.84l0,0,0,0"/><polyline class="j" points="59.84 41.88 59.84 41.88 59.84 41.88"/><path class="j" d="M59.84,41.88l-.05,0,.05,0"/><path class="j" d="M59.79,41.93a15.34,15.34,0,0,0-2.66,3.76c-.15.28-.3.57-.44.87.14-.3.29-.59.44-.87a15.34,15.34,0,0,1,2.66-3.76"/><path class="i" d="M56.69,46.56s0,.11-.07.17l0,0,0-.12h0"/><path class="k" d="M70.92,71a.74.74,0,0,0,0,.14l0-.14"/><path class="k" d="M69.77,74.7h0m0,0h0m0,0h0m0,0h0m0,0h0m0,0h0m1.09-3.52-.81,2.6v0c-.19.61-.38,1.18-.55,1.71l0-.13.16-.51v0h0l0,.1c0,.09,0,.19,0,.28a3,3,0,0,0,0,.42,4.9,4.9,0,0,0,.07.67c.05.34.09.65.11.91.21,2.49.31,5.4.49,8.67.14,1.47,1,.8,1.54,1.13.2.32.33.78.53.89.42.12.89.77,1.38.77.29,0,.58-.22.88-.89a7.68,7.68,0,0,1,4.48,1.78,2.37,2.37,0,0,1,.63.36,3.84,3.84,0,0,1,.3.28l.16.17.08.18a18.44,18.44,0,0,0,1.43,3.29,2.24,2.24,0,0,0,1,1,10.35,10.35,0,0,0,1.32.54,5.61,5.61,0,0,0,1.4.27,1.4,1.4,0,0,0,.51-.09c0-.26.22-.58.22-.8s-.06-.21-.26-.24c-.66-.18-1.33,0-1.9-.2l0,0h-.07a2.94,2.94,0,0,1-1.36-.69,3.39,3.39,0,0,1-.45-.52A9.12,9.12,0,0,1,81,90.63a18.38,18.38,0,0,1-.51-2.18c0-.35-.1-.71-.16-1.06l-.07-.64a5.79,5.79,0,0,0-.18-1.19c-.24-.37-.48-.73-.71-1.06a8.71,8.71,0,0,0-2.77-2.79.17.17,0,0,0-.1,0c-.32,0-.68.78-1,1.1a1,1,0,0,1-.8.36l-.35,0a2,2,0,0,0-.35,0,1.1,1.1,0,0,0-.31,0,1.63,1.63,0,0,0-.91.72l-.19.3c-.06.12-.14.17-.2.17s-.18-.1-.24-.25q-.18-1-.33-1.92A80.73,80.73,0,0,1,70.88,73h0V73c0-.37-.07-.8-.07-1.23h0a2.46,2.46,0,0,1,.07-.6"/><path class="k" d="M69.52,75.47c-.16.51-.33,1-.5,1.53v0q-.26.74-.51,1.5c.3-.88.64-1.88,1-3"/><path class="k" d="M68.51,78.52c-.05.14-.09.27-.14.4l.09-.24.05-.16"/><path class="k" d="M68.37,78.92l-.17.48c-.06.18-.13.36-.19.53l.08-.21c0-.1.07-.2.11-.31s.08-.24.13-.36l0-.13"/><path class="k" d="M68,79.93c0,.07-.05.13-.07.2l-.18.48-.21.56,0-.07.13-.33.13-.37,0-.09.05-.14.08-.24"/><path class="k" d="M67.55,81.17a1.86,1.86,0,0,1-.1.25l0,.07,0,.09,0,.09,0-.13.12-.3,0-.07"/><path class="k" d="M67.36,81.67l0,.08-.34.84c-.09.23-.18.45-.28.67l-.06.16-.07.17s0,.11-.08.17a2.92,2.92,0,0,1-.14.31c.09-.18.17-.37.25-.55l.4-1c.07-.15.13-.31.19-.46s.09-.23.13-.35l0-.07"/><path class="k" d="M66.36,84.07v0l-.12.27h0v0l-.06.14.19-.41,0-.06"/><path class="k" d="M66.15,84.54l0,.06-.15.31c-.23.49-.45.9-.65,1.26l.12-.21.13-.24,0,0,.3-.6a.89.89,0,0,0,.08-.17L66,84.8l.12-.26"/><path class="k" d="M65.32,86.17l-.06.11-.08.14.07-.12s0-.09.07-.13"/><path class="k" d="M65.18,86.42l-.27.46-.2.32.12-.19.26-.44.08-.13v0"/><path class="k" d="M70.81,86.93H70.7l-.31,0c-.75.09-1.35.17-1.93.26l.5-.08h0l1.78-.22h0"/><path class="k" d="M64.71,87.2l-.38.54,0,0c-.19.25-.34.43-.46.57a6.21,6.21,0,0,0,.5-.62l.37-.52"/><path class="k" d="M68.46,87.23c-.72.11-1.47.25-2.17.43l.21,0c.48-.12,1-.23,1.66-.33l.23,0h.07"/><path class="k" d="M66.29,87.66c-.25.06-.49.12-.71.19h0l.73-.19"/><path class="k" d="M65.56,87.85l-.16.05-.16,0-.43.15-.09,0c-.22.09-.43.17-.62.26l.21-.09c.12,0,.25-.11.4-.16l.11,0,.53-.18.06,0,.15-.05"/><path class="k" d="M63.84,88.34l-.06.06-.16.16-.09.09,0,0,0,0a2.91,2.91,0,0,0,.25-.25"/><path class="k" d="M64.1,88.39l-.21.1,0,0h0l.24-.11"/><path class="k" d="M63.84,88.51h0l0,0-.14.08.19-.11"/><path class="k" d="M63.65,88.62h0l0,0-.19.1h0l.13-.08.11-.06"/><path class="k" d="M63.53,88.65a.47.47,0,0,0-.1.09l.08-.08h0"/><polyline class="k" points="63.43 88.73 63.42 88.74 63.42 88.74 63.43 88.73"/><polyline class="k" points="63.42 88.74 63.34 88.8 63.34 88.8 63.33 88.81 63.33 88.81 63.32 88.82 63.32 88.82 63.32 88.81 63.33 88.81 63.34 88.81 63.34 88.8 63.39 88.77 63.39 88.76 63.39 88.76 63.39 88.76 63.42 88.74"/><path class="k" d="M63.41,88.76l-.06,0,0,0h0"/><path class="k" d="M63.35,88.8h0"/><polyline class="k" points="63.32 88.82 63.31 88.82 63.28 88.84 63.29 88.84 63.29 88.83 63.32 88.82"/><polyline class="k" points="63.31 88.83 63.29 88.83 63.28 88.85 63.27 88.85 63.26 88.86 63.25 88.86 63.31 88.83"/><polyline class="k" points="63.28 88.84 63.28 88.85 63.27 88.85 63.26 88.86 63.26 88.86 63.26 88.86 63.25 88.86 63.26 88.86 63.26 88.86 63.26 88.86 63.27 88.85 63.27 88.85 63.28 88.84"/><path d="M37.73,82.74c.09-6,1.13-11.65,4.16-16.87,1.58-2.71,2.8-5.71,4.75-8.1C51.36,52,57.22,47.83,65,46.9c3.1-.37,6.16-1.3,9.28-1.47s6-.09,8.81,1.6a4.56,4.56,0,0,0,2.64.31c2.17-.24,4.26-.39,6.11,1.12a1.7,1.7,0,0,0,1.21.29c1.79-.29,3.26-.56,4.63,1.45.81,1.19,3,1.55,4.61,2,2.55.76,4.61,1.56,5.73,4.56,1,2.56,3.25,4.62,5,6.9.08.11.27.2.27.3-.12,4.25,4.58,7,3.59,11.53-.11.5.32,1.14.57,1.68,1.09,2.36,1.61,4.7,0,7.05a3.34,3.34,0,0,0-.18,3.47c.46,1.21.83,3,.3,4-.86,1.64-.44,2.94.06,4.33,1.15,3.2.83,4.21-2.33,5.34-3,1.06-5.15,3.61-8.54,3.83-4.05.27-8.06,1-12.11,1.36-1.2.11-2.47-.44-3.69-.37-1.62.1-3.21.57-4.83.78-2,.26-4,.27-6,.64-2.78.51-5.52,1.23-8.28,1.9-3.2.78-6.31.24-9.41-.57-4-1-8.1-1.73-11.88-3.27-5.58-2.28-10.82-5.29-11.7-12.2C38.29,89.9,38.06,86.31,37.73,82.74ZM76.92,46.61c-2.61.38-5.4.69-8.16,1.21-5.37,1-10.58,2-15.3,5.53C46.41,58.58,43,65.78,40.52,73.64c-1.86,6-.94,12.27-.38,18.41a12.3,12.3,0,0,0,2.11,6,16,16,0,0,0,12.27,6.7,25.94,25.94,0,0,0-1.13-2.88c-.91-1.67-1.61-3.28-.57-5.2a3,3,0,0,0,.28-2.2,6.29,6.29,0,0,1,1.17-6.54A4.61,4.61,0,0,0,55,85.78c.26-1.56.4-3.14.62-4.71a12.41,12.41,0,0,0-.3-4.28c-.26-1.29.91-2.93,1.61-4.33.46-.93,1.29-1.66,1.79-2.57a17.57,17.57,0,0,0,1.25-3c.24-.72.67-1.62.43-2.22-1-2.49.39-3.88,2-5.29a2.89,2.89,0,0,0,1-1.64c.22-1.88,1.51-2.32,3-2.68.83-.19,1.94-.45,2.33-1.06A8.7,8.7,0,0,1,74,49.82c.39-.11.7-.6,1-.94C75.57,48.21,76.14,47.52,76.92,46.61ZM65,96.17l.1-.66c-.8-.6-1.59-1.22-2.4-1.8-1.23-.87-2.57-1.62-3.71-2.6-1.53-1.3-1.39-3.17-.92-4.82s2-1.92,3.53-1.84c.8,0,1.59.32,2.4.34,1.5,0,3.27.42,4.44-.23s2.14-1,3.31-.27c1,.64,1.93,1.31,2.88,2a8.89,8.89,0,0,0,6,2c1.43-.1,1.85-.82,1.91-2.14a19.07,19.07,0,0,1,.57-4.6c.57-1.89,3.64-4,5.28-3.68A26.13,26.13,0,0,1,92.89,79c4,1.45,5.66.94,8.15-2.69s6-4.86,10.27-3.44c.33.11.67.34,1,.3.79-.12,1.56-.36,2.33-.55a9.55,9.55,0,0,0-.71-2.42c-.74-1.21-1.9-2.2-2.52-3.46-1.33-2.65-2.45-3-4.45-.82a78.61,78.61,0,0,0-5.12,6.71c-2.56,3.53-6,4.52-10.13,3.33-1.75-.51-3.74-.24-5.63-.27s-3.57.15-5.33,0c-1.59-.16-1.8-1.22-.89-2.59a5.46,5.46,0,0,1,5-2.36c2.22,0,4.46.27,6.65.06,1.09-.1,2.69-.76,3-1.59,1.37-3.31,3.86-5.26,6.83-6.92C103.46,61,104,59.4,103.55,57a9.09,9.09,0,0,1,0-1.73l.48-.21a6.12,6.12,0,0,1,1,1.23,5.64,5.64,0,0,1-2.54,7.27,13.48,13.48,0,0,0-6.15,5.87,5.26,5.26,0,0,1-5.68,2.87,35.56,35.56,0,0,0-5.74-.29c-1.46.08-3,.38-3.78,2.3a5,5,0,0,0,1.73.07C86.5,73,90,73.8,93.56,74.78c2.77.77,5.88-1.1,7.3-3.62,2.06-3.67,4.24-7.33,9.18-8.61-1.28-1.77-3-3.25-3.53-5.08-.85-2.73-2.84-3.26-5-3.91-3.39-1-4.21-.3-3.82,3.33,0,.21.07.41.11.62.64,3.45.25,3.68-2.83,5.42-1.94,1.1-5.24.67-5.49,4.14,0,.24-.63.51-1,.65-2.23.79-3.9,0-5.33-2.45,1.74-2.79,1.49-3.55-1.61-4.85-1.65-.7-3.32-1.34-5.18-2.09a15.28,15.28,0,0,1,2.22,3.21c.31.9-.06,2-.13,3.06-.93-.28-2.11-.3-2.77-.9C73.8,62,72.2,60.1,70.45,58.33a6.32,6.32,0,0,0-2-1.33c-.29-.13-.81.31-1.23.49.16.35.22.81.48,1a26.47,26.47,0,0,0,3.72,2.91,9.43,9.43,0,0,1,4.37,9.82c-1.06,4.38-1.1,4.48,3,5.85a2.75,2.75,0,0,1,2,3.65c-.36,1.5-1.58,2.11-3.14,2.06-1.39-.06-2.78,0-4.17,0a9.3,9.3,0,0,1-6.7-2.25A2.64,2.64,0,0,0,65,79.92c-1.72.28-3.41,1.15-5.09,1.11-2.14,0-2.82.85-2.91,2.72a13.9,13.9,0,0,1-.3,2.66c-.32,1.24-.49,3.13-1.3,3.51-1.67.78-1.15,1.7-.92,2.78.36,1.69.72,3.34-.29,5a2.23,2.23,0,0,0-.09,1.74A45,45,0,0,0,56.23,104a1.64,1.64,0,0,0,1.16.55c2.26.21,4.67-.08,6.77.61,3.57,1.17,7.06,2.18,10.77,1a9,9,0,0,0,2.15-1.47,11.34,11.34,0,0,0-1.91-1.77,3.21,3.21,0,0,0-1.81-.13c-1.92.21-3.83.64-5.75.72-3.57.17-7.21.39-10-2.5-1.77-1.79-1.34-3.55,1.12-4.15a23.81,23.81,0,0,1,3.7-.22C63.27,96.52,64.13,96.32,65,96.17Zm13.72,10.06a4.79,4.79,0,0,1,1.37-.37c1.71.1,3.14-.62,3.07-2.28a4.3,4.3,0,0,0-2.1-2.94c-2.47-1.3-5.15-2.18-7.73-3.26-1-.42-2.35-.67-2.87-1.45-.66-1-1.27-3-.77-3.55,1.91-2.28,4.72-2.83,6.93-.5a11.63,11.63,0,0,0,8.26,4c4.55.23,4.54.39,5.65,4.65a1.72,1.72,0,0,0,2.77.91c1.67-1.1,1.56-2.75-.15-4.28s-3.47-3.32-5.22-5a4.09,4.09,0,0,1-1-4.94c.85-1.58,2.29-3.23,4.57-3.14a6.86,6.86,0,0,1,2.41.32c3.85,1.64,7.91,1.79,12,1.66a7.68,7.68,0,0,1,6.15,2.26c1.08,1.1,2.25,2.11,3.52,3.29.66-1.85.64-3.26-1.13-4.22-1.33-.73-3-1.19-3.88-2.29-1.47-1.82-2.76-2.21-4.87-1.19-1.24.61-2.37-.2-3.11-1.4s-.23-2.09.58-2.95c1.94-2.05,4.06-2.43,6.75-1.32a18,18,0,0,0,3.68,1.2c1.28.22,2-.63,1.86-1.87a24.36,24.36,0,0,0-.55-2.88c-1.5-.1-3.2.18-4.52-.4-3.23-1.42-5.23.38-7.29,2.25a17.52,17.52,0,0,0-1.67,2.12,6.58,6.58,0,0,1-7.61,2.18c-.91-.32-1.8-.66-2.71-1-3.41-1.28-6.22.31-6.85,3.91A27.15,27.15,0,0,0,83.92,87,2.85,2.85,0,0,1,81,89.85c-2.39-.22-4.77-.54-6.75-2.16a21.12,21.12,0,0,0-2.69-1.91c-.41-.25-1.25-.5-1.45-.3-2.22,2.18-4.64.77-7,.62-1.09-.07-2.75.19-3.18.9s.05,2.27.44,3.34c.19.53,1.07.79,1.61,1.21a49,49,0,0,1,4.4,3.57,1.27,1.27,0,0,1-.66,2.25,42.05,42.05,0,0,1-4.61.86c-.95.17-1.9.3-3.15.5,1.37,1.85,2.68,2.92,4.58,2.85,3.85-.14,7.69-.34,11.53-.52C77.64,100.9,79,102.35,78.73,106.23ZM113.4,92.49l.22-.51c-2-1.92-3.62-4.4-7.05-4.37a38.19,38.19,0,0,1-13.31-1.88,3.66,3.66,0,0,0-4.69,1.83c-1,1.72-.36,3.18.93,4.42,2,1.86,4.06,3.56,5.85,5.55a3.62,3.62,0,0,1,.77,3.1c-.5,1.29-1.28,2.74-3.28,2.66-2.57-.11-3.42-.62-4-3.2-.3-1.34-.63-2.48-2.33-2.5a14.93,14.93,0,0,1-11.32-5.12c-.51-.55-1.93-.59-2.79-.37-.55.14-1.36,1.49-1.18,1.81A4.86,4.86,0,0,0,73.43,96c2.46,1,5.09,1.61,7.55,2.61,3.2,1.3,4.46,3.8,3.6,6.76a42.62,42.62,0,0,1,4.86-.9c3.22-.22,6.47-.19,9.69-.39a53,53,0,0,0,8.75-.94c1.7-.4,3.16-1.84,4.76-2.83-.52-2.12-1.34-2.61-4.14-1.87a11.27,11.27,0,0,1-7.45-.11c-2.83-1.14-3.79-4.09-1.87-6.46s4.26-2.31,6.79-1.62S110.93,91.73,113.4,92.49ZM66.89,59.4l-3.11,1.35c-.14,1.15,0,2.24-.4,2.89-1.47,2.13-.9,4,1.67,4.54a10.51,10.51,0,0,1,6,3.74,2.63,2.63,0,0,1-.44,4,5.37,5.37,0,0,1-7.3-.39c-2.11-1.93-3.75-2-5.35-.22s.19,3.09.58,4.59a5.59,5.59,0,0,0,1-.1,2.29,2.29,0,0,0,.73-.37,6.15,6.15,0,0,1,7.86.11c3,2.3,6.33,2.09,9.71,2,.48,0,1.31-.74,1.32-1.16a3,3,0,0,0-1-1.72c-.23-.26-.77-.25-1.16-.4-3-1.11-4.66-3-3.1-6.32.92-1.91,1.23-4-.41-5.78C71.05,63.47,68.45,61,66.89,59.4Zm9.21-8.86c.32,1.33.93,2.5.79,3.56-.31,2.22.59,3.29,2.54,4.08A32.76,32.76,0,0,1,84.84,61a2.1,2.1,0,0,1,.65,3.31A1.74,1.74,0,0,0,85.64,66c.75.56,1.64.93,2.39-.37a8,8,0,0,1,2.4-2.62,15.21,15.21,0,0,1,4.07-1.88c1.62-.49,2-1.5,1.85-3-.16-1.83-.63-3.75-.26-5.48.31-1.51,0-2.39-1.22-2.66-1.61-.37-2.7.77-2.67,2.53a31.94,31.94,0,0,1,.24,3.88c-.14,1.09-.57,2.83-1.26,3C87.33,60.72,84,58,84,54c0-3.48,0-3.48-3.19-4.41C78.91,49,77,48.23,76.1,50.54Zm39,43.59c-2.38-.51-4.42-.93-6.46-1.38s-3.83-1-5.78-1.28c-1.76-.28-2.38,1.14-2.71,2.45-.37,1.5.11,2.86,1.88,3a18.76,18.76,0,0,0,5.65,0c3.17-.73,5.54-.17,7.23,3.63.61-.93,1.36-1.56,1.28-2.06A34.71,34.71,0,0,0,115.1,94.13Zm-55-22.22C62,73.07,63.62,74,65.13,75s3.43,1,4.34-.21c1.3-1.68-.16-2.53-1.13-3.42a6.6,6.6,0,0,0-2-1.08c-1.63-.67-3.28-1.28-5.21-2Zm25.8-22.54a30.07,30.07,0,0,0,0,4,10.21,10.21,0,0,0,1.13,4c.39.61,1.84.8,2.76.7.33,0,.68-1.45.73-2.24.09-1.59-.12-3.19,0-4.77.1-1.75-1-2.74-2.69-2.2C87.08,49,86.3,49.25,85.93,49.37Zm18.13,32.82a18.42,18.42,0,0,0,2.36-.38,4.21,4.21,0,0,1,4.43.74c1.2,1.13,2.38,2.28,3.83,3.67.88-2.32,1.57-4.12,2.25-5.92-2.55,1.29-3.92,1.25-7.13-.35C106.86,78.49,105.94,78.75,104.06,82.19ZM69.49,55.71l7.69,7.67C76.53,59.41,71.41,54.78,69.49,55.71Zm5.22.83.65-.19c-.33-1.48-.65-3-1-4.42l-3.84,1.74Zm-7.17,51.82.21-.58L61.6,106.3l-.17.7Z"/></svg>