<svg xmlns="http://www.w3.org/2000/svg" viewBox="0 0 150 150"><defs><style>.a{fill:#f9ca98;}.b{fill:#f9c18a;}.c{fill:#f5994e;}.d{fill:#f49448;}.e{fill:#f8a158;}.f{fill:#f8b577;}.g{fill:#fcddbc;}.h{fill:#f8b06f;}.i{fill:#ffefe2;}</style></defs><title>icon</title><path class="a" d="M51.6,33.44a11.63,11.63,0,0,0-9,4.44c-3.69,4.79-5,9.64-5.89,13.7-.47,2-.83,3.93-1.33,5.71v0l.15-.48h0c.37-1.15.7-2.3,1-3.41h0c.6-2.34,1.12-4.36,1.5-5.81h0c.39-1.56.64-2.51.64-2.53h0s-.25,1-.64,2.53h0c-.38,1.45-.9,3.47-1.5,5.81h0c-.3,1.11-.63,2.26-1,3.41h0l-.15.48a26.68,26.68,0,0,1-1.74,4.6,44.27,44.27,0,0,1-3,5.79c-.35.78-.66,1.55-1,2.34a27.59,27.59,0,0,0-1.76,8,3.28,3.28,0,0,0-.13.49c0,.13,0,.25,0,.37a4.69,4.69,0,0,0,.15,1.35h0c-.24,1.06-.47,2.14-.63,3.22.76,2.74,1.3,5.74,2.31,8.47A26.2,26.2,0,0,0,31.14,95a15.93,15.93,0,0,0,1.33,1.87h0A10.88,10.88,0,0,0,34,98.42a7.87,7.87,0,0,0,2.12,1l.18,0,0,0,.14,0c1,1.11,1.79,2.13,2.5,3.09a19.85,19.85,0,0,1,2.57,3.41l.43.53a14.89,14.89,0,0,0,2.85,2.69,11.62,11.62,0,0,0,1.81,1,12.47,12.47,0,0,0,2.26.78c1.08.25,2.13.45,3.2.62l1.8.23h.16l1,0h0l-1,0h-.16l1.45.16c2.1.23,4.28.28,6.3.35s4.08,0,6,.08h.4c.82,0,1.62,0,2.41,0s1.83.07,2.73.16a85.41,85.41,0,0,1,11.18,1.17c.64.06,2.17,1.21,3.89,2.37s3.61,2.38,4.55,3a4.65,4.65,0,0,0,2.41.67,5.94,5.94,0,0,0,2.91-.83,11.11,11.11,0,0,0,3.92-4.06c1.21-2.68,2.33-5.14,3.42-7.56.26-.59.53-1.18.8-1.76s.52-1.14.85-1.77c.63-1.23,1.22-2.47,1.82-3.74,1.11-1.51,3.28-2,4.7-4a14.63,14.63,0,0,0,1.53-6.87,17.27,17.27,0,0,0-.08-1.76,31.86,31.86,0,0,0-2.27-8.85,16,16,0,0,0-1.25-3.49A14.78,14.78,0,0,0,110.19,73a10.59,10.59,0,0,0-2.26-2.25,6.94,6.94,0,0,0-1.51-.81,6.66,6.66,0,0,0-1.1-.32,3.17,3.17,0,0,0-.64-.06,2.53,2.53,0,0,0-.57.06c-.13,0-.21.07-.25.07a0,0,0,0,1,0,0h0s0,0,0,0a.59.59,0,0,1-.11-.32h0c0-.77,1.17-2.14,1.17-3.3a1.33,1.33,0,0,0-.07-.45c-.69-1.32-2.42-1.91-4.11-1.91a6.86,6.86,0,0,0-1.45.15c-1.45.21-2.88.51-4.26.82s-2.59.71-3.68,1a15.93,15.93,0,0,1-2.24.48,2.49,2.49,0,0,0,0-.46,38.11,38.11,0,0,0-5-13c-2-3.22-4.27-3-6.66-3.53a9.88,9.88,0,0,1-3.93-2.3c.35.47,1.21,1.63,2.16,2.79.6-.14,1.18-.26,1.72-.37,2.4.53,4.64.31,6.67,3.53a38.52,38.52,0,0,1,5,13,2.49,2.49,0,0,1,0,.47h0a2.9,2.9,0,0,1-.39,1.44c.11.6.17,1.2.27,1.64a1.93,1.93,0,0,0,1,1.31,3.32,3.32,0,0,1,1.23.85,2.6,2.6,0,0,1,0,.4h0a5.28,5.28,0,0,1-.42,1.82,1.85,1.85,0,0,0-.19.69c0,.63.87.44,1.6.66.63,0,.76.54.76,1.13h0a1.09,1.09,0,0,1,0,.18c0,.3,0,.6,0,.88a1.39,1.39,0,0,0,.27.93c.43.62,1.49.73,2.32.89.6.11,1.11.33,1.12.67h0a.61.61,0,0,1-.24.43.57.57,0,0,1,.37-.18c.27,0,.44.33.44.75h0a1.9,1.9,0,0,1,0,.4c-.15.58-.58,1.05-.87,1.05A.23.23,0,0,1,96,82h-.08a6.59,6.59,0,0,1-1.69-.37c-.46-.17-1.18-.43-1.44-.54l-.36.1-.61.19-.29.1-.07,0-.53.2-.73.3-.35.15-.65.29-1.4.68-.84.42-.11.06,0,0,.07,0,.15-.08a6.48,6.48,0,0,0,1.12-.85.36.36,0,0,0,.11-.21c0-.06,0-.11-.15-.11l-.13,0a3.9,3.9,0,0,1-.63.06,1.31,1.31,0,0,1-1.19-.53c-.21-.26-.33-.53-.71-.53l-.24,0a4.75,4.75,0,0,0-.88.33c-.12.29-.24.45-.32.45a.08.08,0,0,1-.07,0,10,10,0,0,1-.68-3.69h0v-.09c0-1-.08-1.92-.12-2.71l-.15.2-.07.11-.08.1a15.22,15.22,0,0,0-.09,1.55c0,.08,0,.15,0,.23a39.24,39.24,0,0,0,.55,5.4,23.63,23.63,0,0,1,.29,3.2h0a8.34,8.34,0,0,1-.25,2.13s-.11.4-.34,1.09a22.08,22.08,0,0,1-1.21,2.86,20,20,0,0,1-20.43,10.71,18.58,18.58,0,0,1-12.54-6.94,3.62,3.62,0,0,0-1.17-1A25.79,25.79,0,0,0,42.65,93l-.35-.35a12.86,12.86,0,0,1-.87-1,17.62,17.62,0,0,1-2.23-3.56,11.79,11.79,0,0,1-1.14-4.8h0a6.39,6.39,0,0,1,1.71-4.58l.89-2.11c.58-1.29,1.33-3,2.2-4.77,1.64-3.57,3.85-7.25,3.84-9.86v0h0a17.69,17.69,0,0,0,2.53-1.69A6.48,6.48,0,0,0,51.14,58c0-.18,0-.34.06-.5.13-.83.2-1.3.2-1.3a3.46,3.46,0,0,1,0,.45h0A3.33,3.33,0,0,1,51.14,58c-.08.62-.15,1.37-.19,2.19a21.29,21.29,0,0,1,2.61-7c1.57-2.61,3.59-4.31,4.74-4.31a.88.88,0,0,1,.24,0,20.68,20.68,0,0,1,1.93-1.25,19.59,19.59,0,0,1,4.78-2,15,15,0,0,1,3.62-.47,10.4,10.4,0,0,1,1.28.07,6.77,6.77,0,0,1,2.52.74c-.42-.35-.85-.73-1.29-1.12a69.28,69.28,0,0,0-8.65-6.65c-2.39-1.69-5.29-3.87-8.86-4.63a10.53,10.53,0,0,0-2.27-.24"/><path class="b" d="M53.93,112h0M27.86,80.24c-.24,1.06-.47,2.14-.63,3.22h0c.16-1.08.39-2.16.63-3.22h0m-.14-1.72h0c0,.13,0,.25,0,.37h0c0-.12,0-.24,0-.37h0m5.87-16.6h0a44.27,44.27,0,0,1-3,5.79h0a44.27,44.27,0,0,0,3-5.79h0m1.89-5.08h0l-.15.48h0l.15-.48h0M38,47.62h0c-.38,1.45-.9,3.47-1.5,5.81h0c.6-2.34,1.12-4.36,1.5-5.81h0m.64-2.53h0"/><path class="a" d="M33.59,61.92c-.12.25-.25.5-.38.74-.76,1.27-1.37,2.47-2,3.71-.23.45-.44.9-.64,1.34a44.27,44.27,0,0,0,3-5.79"/><path class="a" d="M83,72.66l0,0h0l0,0"/><path class="a" d="M83.49,73.5c.08.13.18.31.28.49a7.42,7.42,0,0,1,.33.69l.05-.05,0,0h0a10.1,10.1,0,0,1,.73,2.65,8.69,8.69,0,0,1,.1,1.33h0a10.22,10.22,0,0,1-.22,2l.37-.49L86,79h0l0,0c0-.07.07-.13.16-.32a8.55,8.55,0,0,0,.44-1.11h0l-.25-.26a1.21,1.21,0,0,1-.16-.16l0,0h0L86.1,77l-.09-.1-.08-.09h0l-.09-.1h0l-.35-.48c-.59-.78-1.33-1.76-1.84-2.45v0l-.05-.06,0,0v0h0l0,0-.06-.09"/><path class="a" d="M83.17,73.92V74h0v0a1.48,1.48,0,0,1,0,.21,2,2,0,0,1,0,.23,1.38,1.38,0,0,1,0,.22c0,.15,0,.33-.08.52l0,.16.21-.11c0-.47,0-.91,0-1.35"/><path class="a" d="M83.11,74.78c0,.11,0,.23,0,.34v.1h0c0-.15,0-.3.07-.44"/><path class="a" d="M83,75.23v0m0-.1a2.38,2.38,0,0,1,0,.26h0l0-.09v-.08h0v-.09"/><path class="a" d="M83,75.81l0,.06h0l0-.07m-.14-.34-.63.34,0,0,.59-.32"/><path class="a" d="M82.83,76c-.18.21-.37.43-.56.67l.18-.16.37-.48v0"/><path class="a" d="M85.4,76.08l.1.12.27.37,0,0-.34-.45"/><path class="a" d="M27.72,78.52a25.22,25.22,0,0,0-.55,4.38c0,.16,0,.3,0,.42s0,.1,0,.14c.16-1.08.39-2.16.63-3.22a4.69,4.69,0,0,1-.15-1.35h0c0-.12,0-.24,0-.37"/><path class="a" d="M67.87,80a7.47,7.47,0,0,0,1.86,1,7.77,7.77,0,0,0,2.68.46,10.36,10.36,0,0,0,3.64-.7,13.61,13.61,0,0,1-2.58.23,16.42,16.42,0,0,1-3.16-.31A18,18,0,0,1,67.87,80"/><path class="a" d="M91.42,80.59l.08,0,.11,0-.19-.06"/><path class="a" d="M93.36,81h0"/><polyline class="a" points="93.35 80.97 93.35 80.97 93.35 80.97 93.35 80.97"/><path class="a" d="M53.36,86.36a7.12,7.12,0,0,0,.36,1.11,10,10,0,0,0,1.43,2.35A11.64,11.64,0,0,0,56.38,91c-.28-.39-.62-.86-1-1.38L54,87.37l-.61-1"/><path class="a" d="M73.82,89.4l-.31.25A22.94,22.94,0,0,1,69,92.38l-.92.38a18,18,0,0,0,5.13-2.63s.24-.26.62-.73"/><path class="a" d="M29.54,91.93q.21.58.45,1.14a13.91,13.91,0,0,0,2.56,4.08A9.45,9.45,0,0,0,34,98.42a10.88,10.88,0,0,1-1.57-1.55h0A15.93,15.93,0,0,1,31.14,95a26.2,26.2,0,0,1-1.6-3.07"/><path class="a" d="M36.16,99.45l.21.06,0,0-.18,0"/><path class="b" d="M36.16,99.45h0l.18,0,0,0h0l0,0h-.18"/><path class="a" d="M39,102.64c.18.24.35.47.51.7.74,1,1.4,1.87,2.06,2.71A19.85,19.85,0,0,0,39,102.64"/><polyline class="a" points="87.46 78.24 87.47 78.25 87.46 78.24 87.46 78.24"/><path class="a" d="M88.06,78.72l.22.16-.1-.08-.12-.08"/><path class="a" d="M88.85,79.27l.12.08.28.18h0l-.41-.26"/><path class="a" d="M90.71,80.3h.05l0,0-.08,0"/><path class="a" d="M91.33,80.56l.1,0h0l-.08,0"/><path class="a" d="M91.49,80.61h0"/><path class="a" d="M91.6,80.65h0"/><polyline class="a" points="93.35 80.97 93.35 80.97 93.35 80.97 93.35 80.97 93.34 80.97 93.35 80.97 93.35 80.97"/><path class="a" d="M92.12,81.29l-.14,0h0l.18,0"/><path class="a" d="M91.51,81.49h0l0,0"/><path class="a" d="M90.86,81.74l-.18.07,0,0,.22-.09"/><polyline class="a" points="93.36 80.97 93.35 80.97 93.35 80.97 93.36 80.97"/><polyline class="a" points="93.35 80.97 93.35 80.97 93.35 80.97 93.35 80.97 93.35 80.97"/><path class="c" d="M82.83,65.58c-.27.22-.86.11-1,.6a1.65,1.65,0,0,1-.67.92,10,10,0,0,1-1.83.2,5,5,0,0,1-3-.9h-.13c-.39,0-.5.12-.54.2a1,1,0,0,1-.54.39c-.48.12-.57.61-.73,1.09A2.3,2.3,0,0,1,73,69.51a2.38,2.38,0,0,0-1.25,1.94c0,1,.9,2.21,2.79,3.26l1.55.85a9.41,9.41,0,0,0,2,.74,4.52,4.52,0,0,0,1.06.17h.55a3,3,0,0,0,.51,0,5.75,5.75,0,0,0,2-.61l.06,0a5.62,5.62,0,0,1-2.63.64,6.16,6.16,0,0,1-1.4-.17,14,14,0,0,1-3.53-1.55c-1.89-1-2.8-2.19-2.8-3.23h0a2.37,2.37,0,0,1,1.24-1.93,2.27,2.27,0,0,0,1.41-1.42c.15-.47.24-1,.72-1.08s.46-.28.51-.37.13-.18.48-.18h.15a4.8,4.8,0,0,0,2.93.9,9.79,9.79,0,0,0,1.82-.19,1.71,1.71,0,0,0,.66-.92c.15-.49.73-.4,1-.6a6.4,6.4,0,0,1,1.73.94.31.31,0,0,1,.13-.06,7.35,7.35,0,0,0-1.82-1"/><path class="c" d="M83,75.39l-.14.08.14-.08h0"/><path class="d" d="M77.3,49.14c-.54.11-1.12.23-1.72.37.07.07.13.15.19.22,1.12,1.32,2.3,2.57,3.38,2.57a1.33,1.33,0,0,0,.61-.14,26.09,26.09,0,0,1,3.91,3.62,6.69,6.69,0,0,1,1.88,3.57h0a1.42,1.42,0,0,1-.93,1.37l-1.11,1.07a13.73,13.73,0,0,1-1.86,1.52l-2.49-.17c-1.39-.09-3-.23-4.3-.23H74.6a9,9,0,0,0-2,.2,7.77,7.77,0,0,0-1.94.77c-1.21.64-2.21,1.38-2.85,1.38h0a6.43,6.43,0,0,0-.61.55,9.18,9.18,0,0,0-1.33,1.75,10.33,10.33,0,0,0-1.46,5.26,9.32,9.32,0,0,0,.13,1.57A8.37,8.37,0,0,0,67.87,80a18,18,0,0,0,2.44.65,16.42,16.42,0,0,0,3.16.31,13.61,13.61,0,0,0,2.58-.23,16.88,16.88,0,0,0,5.08-3.13,13.34,13.34,0,0,0,1.09-.85l0,0c.19-.24.38-.46.56-.67h0l0-.07h0l.06-.18a1.94,1.94,0,0,1,0-.2v-.06l0-.08h0l-.14.08-.59.32,0,0-.06,0a5.75,5.75,0,0,1-2,.61,3,3,0,0,1-.51,0h-.55a4.52,4.52,0,0,1-1.06-.17,9.41,9.41,0,0,1-2-.74l-1.55-.85c-1.89-1-2.79-2.21-2.79-3.26h0A2.38,2.38,0,0,1,73,69.51a2.3,2.3,0,0,0,1.41-1.43c.16-.48.25-1,.73-1.09a1,1,0,0,0,.54-.39c0-.08.15-.2.54-.2h.13a5,5,0,0,0,3,.9,10,10,0,0,0,1.83-.2,1.65,1.65,0,0,0,.67-.92c.14-.49.73-.38,1-.6a7.35,7.35,0,0,1,1.82,1,1.56,1.56,0,0,0,.52-.2h0c0-.79,1-.45,1.51-.85a1.08,1.08,0,0,1,.55-.18c.5,0,.89.5,1.12,1.16a6.33,6.33,0,0,1,.29,1.1A2.9,2.9,0,0,0,89,66.18a2.49,2.49,0,0,0,0-.47,38.52,38.52,0,0,0-5-13c-2-3.22-4.27-3-6.67-3.53"/><polyline class="d" points="84.15 74.64 84.1 74.68 84.11 74.68 84.12 74.67 84.15 74.64"/><path class="d" d="M83.22,75.27l-.21.11v.1c0,.12,0,.26,0,.39l0-.06.23-.27c0-.09,0-.18,0-.27"/><path class="d" d="M82.89,75.82l0,.07a.41.41,0,0,1,0-.07"/><path class="e" d="M68.87,45.27a15,15,0,0,0-3.62.47,19.59,19.59,0,0,0-4.78,2A20.68,20.68,0,0,0,58.54,49a.88.88,0,0,0-.24,0c-1.15,0-3.17,1.7-4.74,4.31a21.29,21.29,0,0,0-2.61,7c0,.19,0,.38,0,.57,0,.38,0,.78,0,1.19a49.76,49.76,0,0,0,.69,7.89c.55,3.15,1.42,6.08,1.92,8.44a12.74,12.74,0,0,1,.43,3.12h0a3,3,0,0,1-.71,2.14,4,4,0,0,0-.1,1,8.13,8.13,0,0,0,.06.92c.05.29.1.6.17.93l.61,1,1.43,2.26c.36.52.7,1,1,1.38a9.23,9.23,0,0,0,1.43,1,12.54,12.54,0,0,0,5.84,1.48,14.55,14.55,0,0,0,4.42-.72l.92-.38a22.94,22.94,0,0,0,4.52-2.73l.31-.25c.24-.28.53-.64.85-1.06.86-1.11,1.94-2.68,3-4.37s2.06-3.34,3.12-5.06c.59-1,1.16-1.76,1.65-2.4l-.18.16,0,0a13.34,13.34,0,0,1-1.09.85,16.88,16.88,0,0,1-5.08,3.13,10.36,10.36,0,0,1-3.64.7,7.77,7.77,0,0,1-2.68-.46,7.47,7.47,0,0,1-1.86-1,8.37,8.37,0,0,1-3.36-5.57,9.32,9.32,0,0,1-.13-1.57h0a10.33,10.33,0,0,1,1.46-5.26,9.18,9.18,0,0,1,1.33-1.75,6.43,6.43,0,0,1,.61-.55h0c.64,0,1.64-.74,2.85-1.38a7.77,7.77,0,0,1,1.94-.77,9,9,0,0,1,2-.2h.26c1.34,0,2.91.14,4.3.23l2.49.17a13.73,13.73,0,0,0,1.86-1.52l1.11-1.07a1.42,1.42,0,0,0,.93-1.37,6.69,6.69,0,0,0-1.88-3.57,26.09,26.09,0,0,0-3.91-3.62,1.33,1.33,0,0,1-.61.14c-1.08,0-2.26-1.25-3.38-2.57-.06-.07-.12-.15-.19-.22-1-1.16-1.81-2.32-2.16-2.79l-.16-.23a3.83,3.83,0,0,0-.59-.41,6.77,6.77,0,0,0-2.52-.74,10.4,10.4,0,0,0-1.28-.07"/><path class="e" d="M83.08,75.8a.83.83,0,0,0-.08.12l-.07.09h0l.08-.1.07-.11"/><path class="f" d="M51.4,56.19s-.07.47-.2,1.3c0,.16,0,.32-.06.5a3.33,3.33,0,0,0,.28-1.35,3.46,3.46,0,0,0,0-.45"/><path class="f" d="M51.14,58a6.48,6.48,0,0,1-1.91,2.29A17.69,17.69,0,0,1,46.7,62v0h0c0,2.61-2.2,6.29-3.84,9.86-.87,1.77-1.62,3.48-2.2,4.77l-.89,2.11a6.39,6.39,0,0,0-1.71,4.58,11.79,11.79,0,0,0,1.14,4.8,17.62,17.62,0,0,0,2.23,3.56,12.86,12.86,0,0,0,.87,1l.35.35a25.79,25.79,0,0,1,5.1,2.24,3.62,3.62,0,0,1,1.17,1,18.58,18.58,0,0,0,12.54,6.94A19.68,19.68,0,0,0,81.89,92.47a22.08,22.08,0,0,0,1.21-2.86c.23-.69.34-1.09.34-1.09a8.34,8.34,0,0,0,.25-2.13,23.63,23.63,0,0,0-.29-3.2,39.24,39.24,0,0,1-.55-5.4c0-.08,0-.15,0-.23h0A15.22,15.22,0,0,1,82.93,76l.07-.09a.83.83,0,0,1,.08-.12l.15-.2v-.06l-.23.27,0,.07h0c0-.13,0-.27,0-.39v-.1l0-.16h0v.06a3.74,3.74,0,0,1-.13.53.41.41,0,0,0,0,.07l0,0-.07.23,0,0v0l0,.06-.09.22v0l.12-.22-.07.12,0,0,0,.08,0,.07,0,0v0l0-.06.14-.32.06-.18-.37.48c-.49.64-1.06,1.45-1.65,2.4-1.06,1.72-2.12,3.42-3.12,5.06s-2.15,3.26-3,4.37c-.32.42-.61.78-.85,1.06-.38.47-.62.73-.62.73a18,18,0,0,1-5.13,2.63,14.55,14.55,0,0,1-4.42.72A12.54,12.54,0,0,1,57.81,92a9.23,9.23,0,0,1-1.43-1,11.64,11.64,0,0,1-1.23-1.19,10,10,0,0,1-1.43-2.35,7.12,7.12,0,0,1-.36-1.11c-.07-.33-.12-.64-.17-.93a8.13,8.13,0,0,1-.06-.92h0a4,4,0,0,1,.1-1,3,3,0,0,0,.71-2.14,12.74,12.74,0,0,0-.43-3.12c-.5-2.36-1.37-5.29-1.92-8.44a49.76,49.76,0,0,1-.69-7.89h0c0-.41,0-.81,0-1.19,0-.19,0-.38,0-.57,0-.82.11-1.57.19-2.19"/><polyline class="f" points="83.06 75.11 83.05 75.13 83.04 75.22 83.05 75.14 83.06 75.12 83.06 75.11"/><polyline class="f" points="83.04 75.22 83.04 75.22 83.04 75.22 83.04 75.22"/><path class="f" d="M83,75.3l0,.09,0,.08a1.36,1.36,0,0,0,0-.17"/><path class="f" d="M83,75.53a1.94,1.94,0,0,0,0,.2,1.94,1.94,0,0,0,0-.2"/><path class="f" d="M82.86,75.91h0l0,.07v-.08"/><path class="g" d="M87.23,65.36a1.08,1.08,0,0,0-.55.18c-.52.4-1.47.06-1.51.85a10.41,10.41,0,0,1,1.2,1.47c.73,1,1.48,1.23,1.71,2.56a7.67,7.67,0,0,1,.17,1.74h0c0,.68,0,1.35-.09,1.89a4,4,0,0,0,.12,1.18,4.32,4.32,0,0,0,1.14,3.22,2.22,2.22,0,0,1,.77-.19c.9,0,.54,1.19.81,1.74,0,0,0,0,0,.07h0a.79.79,0,0,1-.08.32l.25.11a1,1,0,0,1,.21.08h0l.19.06h0l.33.1a2.61,2.61,0,0,0,.33.08h0l.11,0h-.09l.16,0,.15,0a2.83,2.83,0,0,0,.49,0h.19l-.1,0-.15,0c-.17,0-.3.07-.5.12l-.08,0-.08,0,.36-.1c.26.11,1,.37,1.44.54a6.59,6.59,0,0,0,1.69.37H96a.23.23,0,0,0,.21.13c.29,0,.72-.47.87-1.05a1.9,1.9,0,0,0,0-.4c0-.42-.17-.75-.44-.75a.57.57,0,0,0-.37.18h0a.61.61,0,0,0,.24-.43c0-.34-.52-.56-1.12-.67-.83-.16-1.89-.27-2.32-.89a1.39,1.39,0,0,1-.27-.93h0c0-.28,0-.58,0-.88a1.09,1.09,0,0,0,0-.18c0-.59-.13-1.09-.76-1.13-.73-.22-1.6,0-1.6-.66h0a1.85,1.85,0,0,1,.19-.69,5.28,5.28,0,0,0,.42-1.82,2.6,2.6,0,0,0,0-.4,3.32,3.32,0,0,0-1.23-.85,1.93,1.93,0,0,1-1-1.31,18,18,0,0,0-.56-2.74c-.23-.66-.62-1.16-1.12-1.16"/><path class="g" d="M83,72.65h0v0"/><path class="g" d="M83.05,72.68s0,.15.07.33a6.42,6.42,0,0,1,0,.84h0v.07c0,.44,0,.88,0,1.35,0,.88.09,1.85.13,3h0v.09A10,10,0,0,0,84,82.09a.08.08,0,0,0,.07,0c.08,0,.2-.16.32-.45a.94.94,0,0,1-.28.1s0,0,0,0h0a2.78,2.78,0,0,1,.52-.89l.1-.14a10.22,10.22,0,0,0,.22-2,8.69,8.69,0,0,0-.1-1.33,10.1,10.1,0,0,0-.73-2.65h0a7.42,7.42,0,0,0-.33-.69c-.1-.18-.2-.36-.28-.49l0,0-.11-.19,0-.05,0-.09L83.21,73h0l0,0L83.17,73l0-.11-.05-.13h0v0"/><path class="g" d="M83.54,73.58h0m-.11-.17,0,0,0,.05.05.07-.11-.17"/><path class="g" d="M83.56,73.61v0h0l0,0"/><path class="g" d="M83.58,73.64l0,0,.58.78-.6-.8"/><path class="g" d="M83.65,73.73v0c.51.69,1.25,1.67,1.84,2.45l-.1-.12-1.75-2.35"/><path class="g" d="M83.17,74h0m0,0h0m0,0v0h0v0"/><path class="g" d="M83.17,74.09v0"/><path class="g" d="M83.17,74.17c0,.15,0,.3,0,.44a.62.62,0,0,0,0-.13,2,2,0,0,0,0-.23v-.08"/><path class="g" d="M83.13,74.61v0s0,.09,0,.14,0,.29-.07.44h0v0h0c0-.19.06-.37.08-.52s0-.06,0-.09h0"/><path class="g" d="M83,75.27v0a1.36,1.36,0,0,1,0,.17v.06a1.94,1.94,0,0,1,0,.2l-.06.18v0l0,0,0-.07a3.74,3.74,0,0,0,.13-.53v0"/><path class="g" d="M82.85,75.93V76h0v0l-.06.18,0,0,.07-.23"/><path class="g" d="M85.5,76.2l.35.48h0l.09.1h0l.08.09L86,76.8h0l-.1-.11h0l-.35-.48"/><path class="g" d="M82.76,76.21l-.14.32,0,.06v0l0,0,0-.07v0l.09-.22,0-.06v0"/><polyline class="g" points="82.77 76.26 82.65 76.48 82.64 76.5 82.68 76.42 82.7 76.38 82.77 76.26"/><polyline class="g" points="85.87 76.7 85.95 76.79 85.95 76.8 86.06 76.91 86.05 76.9 85.87 76.7"/><path class="g" d="M86.1,77l.07.08,0,0v0l0,0"/><path class="g" d="M86.28,77.15a.23.23,0,0,0,.07.07l.25.26h0l-.06-.06-.26-.27m0,0,0,0,.06.07a.94.94,0,0,0-.1-.1"/><path class="g" d="M91.83,81.38l-.29.1.29-.1m-5.29-4h0"/><path class="g" d="M91.47,81.51h0l-.52.2.53-.2"/><path class="g" d="M90.21,82l-.35.15.35-.15"/><path class="g" d="M86.6,77.47h0l0,0,0,0"/><path class="g" d="M87.52,78.29l0,0,.49.38.14.1-.65-.5"/><path class="g" d="M90.06,80l.17.09L90.06,80M89,79.35l.25.16,0,0L89,79.35"/><path class="g" d="M90.5,80.2a1.33,1.33,0,0,0,.24.11h0l.08,0h0l0,0,.17.08h0l-.43-.19"/><path class="g" d="M90.93,80.4c-.07.19-.18.4-.25.58s.26.4.32.51a.09.09,0,0,1,0,.05h0s0,.09-.1.14a1.44,1.44,0,0,1-.23.13h0l.18-.07h0c.2-.09.4-.16.59-.23h.05l.43-.15h0l.14,0,.4-.13h.07c.23-.07.51-.13.66-.16h-.09a2.52,2.52,0,0,1-.42,0l-.22,0-.23-.06a2,2,0,0,1-.33-.08l-.33-.1h0l-.06,0h-.09l-.1,0h0l.08,0h0a1,1,0,0,0-.21-.08l-.25-.1"/><path class="h" d="M38.62,45.09s-.25,1-.64,2.53c.39-1.56.64-2.51.64-2.53"/><path class="h" d="M36.48,53.43c-.3,1.11-.63,2.26-1,3.41.37-1.15.7-2.3,1-3.41"/><path class="h" d="M30.16,68.35s-.23.58-.55,1.51c.32-.93.55-1.51.55-1.51"/><path class="h" d="M29.61,69.86a34.38,34.38,0,0,0-1.08,3.57,34.38,34.38,0,0,1,1.08-3.57"/><path class="h" d="M27.78,77.47q0,.56-.06,1c0,.13,0,.25,0,.37h0c0-.12,0-.24,0-.37q0-.49.06-1"/><path class="h" d="M35.48,56.84c-.37,1.16-.77,2.31-1.26,3.59.42-1.11.78-2.11,1.11-3.11l.15-.48"/><path class="h" d="M27.21,83.6s.09.67.3,1.75c-.21-1.08-.3-1.75-.3-1.75"/><path class="h" d="M27.51,85.35c0,.21.09.44.14.68,0-.24-.1-.47-.14-.68"/><path class="h" d="M27.65,86a32.74,32.74,0,0,0,1.58,5.18A32.74,32.74,0,0,1,27.65,86"/><path class="h" d="M29.33,91.44c.06.16.14.33.21.49A26.2,26.2,0,0,0,31.14,95a26.2,26.2,0,0,1-1.6-3.07c-.07-.16-.15-.33-.21-.49"/><path class="h" d="M31.14,95a15.93,15.93,0,0,0,1.33,1.87A15.93,15.93,0,0,1,31.14,95"/><path class="b" d="M36.16,99.45h.18l0,0h0l0,0-.18,0h0"/><path class="h" d="M32.47,96.87A10.88,10.88,0,0,0,34,98.42a4.63,4.63,0,0,0,2.12,1h0a4.63,4.63,0,0,1-2.12-1,10.88,10.88,0,0,1-1.57-1.55"/><path class="h" d="M38.87,102.47l.14.17c1.23,1.49,2.62,3,2.66,3.72a1.15,1.15,0,0,0-.09-.31A19.85,19.85,0,0,0,39,102.64l-.14-.17"/><path class="h" d="M42.36,107.27a13.56,13.56,0,0,0,2.25,1.9,13.56,13.56,0,0,1-2.25-1.9"/><path class="b" d="M53.93,112h0"/><path class="h" d="M51.73,111.81a17.31,17.31,0,0,0,2.2.14h0a17.31,17.31,0,0,1-2.2-.14"/><path class="h" d="M55.14,111.93l-1,0,1,0"/><path class="i" d="M90.06,80h0l.17.09h0L90.06,80h0M86,79h0m0,0h0m0,0h0m1.49-.72h0l.06.05a17,17,0,0,0,1.74,1.24h0l0,0L89,79.35l-.12-.08-.57-.39-.22-.16,0,0-.49-.38-.08-.07h0M85.17,66.39a1.56,1.56,0,0,1-.52.2c-.12,0-.2.1-.2.22a.41.41,0,0,0,0,.17,7.74,7.74,0,0,0,.92,1.74A10.17,10.17,0,0,1,87,74.41h0v.38a10,10,0,0,1-.44,2.68l.06.06h0l-.06,0h0a8.55,8.55,0,0,1-.44,1.11c-.09.19-.12.25-.16.32l0,0h0l-.88,1.25-.37.49-.1.14a2.78,2.78,0,0,0-.52.89h0s0,0,0,0a.94.94,0,0,0,.28-.1,4.75,4.75,0,0,1,.88-.33l.24,0c.38,0,.5.27.71.53a1.31,1.31,0,0,0,1.19.53,3.9,3.9,0,0,0,.63-.06l.13,0c.1,0,.15,0,.15.11h0a.36.36,0,0,1-.11.21,6.48,6.48,0,0,1-1.12.85l-.15.08-.07,0,0,0,.11-.06.84-.42,1.4-.68c.36-.17.7-.31,1-.44l.73-.3.52-.2c-.19.07-.39.14-.59.23h0l-.22.09h0l0,0a1.44,1.44,0,0,0,.23-.13c.07-.05.1-.1.1-.14a.09.09,0,0,0,0-.05c-.06-.11-.28-.22-.32-.51h0c.07-.18.18-.39.25-.58l-.17-.08h0a1.33,1.33,0,0,1-.24-.11h0l.43.19a.79.79,0,0,0,.08-.32s0,0,0-.07c-.27-.55.09-1.74-.81-1.74a2.22,2.22,0,0,0-.77.19,4.32,4.32,0,0,1-1.14-3.22,4,4,0,0,1-.12-1.18h0c0-.54.09-1.21.09-1.89a7.67,7.67,0,0,0-.17-1.74c-.23-1.33-1-1.51-1.71-2.56a10.41,10.41,0,0,0-1.2-1.47h0"/><path class="i" d="M83.21,73l.05.08s0,0,0,.08a1,1,0,0,0-.09-.16"/><path class="i" d="M83.3,73.2h0l0,.05.11.19,0,0v0l0,0a2.39,2.39,0,0,1-.13-.21"/><path class="i" d="M83.47,73.48l.07.1h0l0,0h0v0l0,0-.05-.07,0,0"/><path class="i" d="M83.58,73.64h0l0,0,.05.06,1.75,2.35.34.45.11.15h0l.1.11-.08-.09,0,0-1.67-2.24-.58-.78,0,0"/><polyline class="i" points="85.95 76.79 85.95 76.8 85.95 76.8 85.95 76.79"/><path class="i" d="M86,76.8l.06.06.09.1,0,0v0L86,76.8"/><path class="i" d="M86.14,77h0l0,0h0l0,0,.09.09.26.27h0l-.19-.19-.06-.07,0,0L86.14,77"/><path class="i" d="M86.54,77.42l.06.06h0l-.06,0"/><path class="i" d="M90.93,80.39h0l.25.1-.25-.11m0,0h0"/><path class="i" d="M91.18,80.5a1,1,0,0,1,.21.08,1,1,0,0,0-.21-.08"/><path class="i" d="M91.39,80.58h.11l-.08,0h0"/><path class="i" d="M91.5,80.62h0l.06,0h0l-.11,0"/><path class="i" d="M91.63,80.66l.33.1-.33-.1"/><path class="i" d="M92,80.76a2,2,0,0,0,.33.08,2.61,2.61,0,0,1-.33-.08"/><path class="i" d="M92.29,80.84l.23.06-.16,0h-.07"/><path class="i" d="M92.52,80.9l.22,0a2.52,2.52,0,0,0,.42,0,2.83,2.83,0,0,1-.49,0l-.15,0"/><path class="i" d="M93.4,81h0"/><path class="i" d="M93.35,81h0m0,0h0m0,0h-.11l.1,0h0"/><path class="i" d="M93.35,81h0"/><path class="i" d="M93.25,81c-.15,0-.43.09-.66.16h-.07l.08,0c.2,0,.33-.09.5-.12l.15,0"/><path class="i" d="M92.52,81.16l-.4.13-.18,0-.43.15,0,0h0l.07,0,.29-.1.61-.19.08,0"/><path d="M79.23,107.87a8,8,0,0,0,4.91,3.51c3,.88,6.1.33,9.18,0,4.39-.42,8.81-.63,13.22-.8,3.09-.11,6.19-.05,9.28,0,3.59.06,6.18,2,8.32,4.65a4.84,4.84,0,0,1,.59,2.91,11.26,11.26,0,0,0-9.87-6.31c-2.52-.15-5.06.07-7.58,0a95.35,95.35,0,0,0-17,1.35,13.24,13.24,0,0,1-11.39-3.45c-1.61-1.49-3.23-1.51-5.05-1.35a37.9,37.9,0,0,1-19.72-3.15c-3.25-1.53-6-4.07-8.92-6.31-4.59-3.56-8.12-8-9.58-13.69a30.92,30.92,0,0,1-.72-6.74c-.08-2.41.22-4.82.2-7.23a26.4,26.4,0,0,1,2.78-11.82,25.07,25.07,0,0,1,2.86-4.22A45.52,45.52,0,0,1,54.14,43.59a25.57,25.57,0,0,1,7.21-2.49A55,55,0,0,1,71.5,39.49a29.94,29.94,0,0,1,13.25,2.24,42.08,42.08,0,0,1,12.15,8A33.18,33.18,0,0,1,106,65.67c1.13,4.12,2.13,8.29,1.61,12.52A50.65,50.65,0,0,1,104.94,90c-1,2.66-3.18,5-5.13,7.16-4.36,4.89-10.34,7.25-16.16,9.77A22.28,22.28,0,0,1,79.23,107.87Zm17-9.47c1.23-.57,2.36-1.38,2-2.87a14,14,0,0,0-3.59-6.94c-1.39-1.46-2.51-3.18-3.76-4.79,3.5,3.29,7.26,6.37,8.67,11.36,1.28-1.52,1.55-2.54,1.09-4.23A19.48,19.48,0,0,0,89.4,77.73c-.4-.18-1.12-.3-1.38-.08-1.81,1.51-3.54,3.12-5.52,4.91,4.28,1.19,7,4.07,9.61,6.82,2.37,2.45,4.18,5.39,4.14,9.05-1.15.15-1.6-.32-1.52-1.51a4.22,4.22,0,0,0-.3-2.19c-2.49-4.56-5.78-8.36-10.68-10.49-1.44-.63-2.5-.48-3.3,1.05a33.85,33.85,0,0,1-2.24,3.31c5.52,2.85,9.84,6.48,10.13,13.19-1.19-6.11-5-9.85-10.75-12.21-.48,1-.88,2-1.38,2.93-.82,1.51-.74,2.53,1,3.53a11.85,11.85,0,0,1,5.57,7.08c.23.8.4,1.62.66,2.68,2.86-1.49,5.43-3,8.11-4.19,1.19-.55,1.08-1.19.67-2.07a30.19,30.19,0,0,0-7.26-9.13,19,19,0,0,1-1.39-1.57l.6-.53a30.73,30.73,0,0,1,10,12C95,99.53,95.59,99,96.22,98.4ZM85,43.64a6.17,6.17,0,0,0-2-.64c-3.2.16-6.49,0-9.56.8-7.77,1.9-13.75,6.5-19,12.55C48.38,63.16,46,70.94,45.91,79.63a63.89,63.89,0,0,0,.72,9c.67,5.21,2.06,10.12,7.22,13.34H52.16c1.32,2.18,3.37,2.53,5.22,3.14a47.72,47.72,0,0,1-3.47-6.35c-2.33-6.37-1.32-12.89-.11-19.28A47.47,47.47,0,0,1,64.63,56.74c1-1.16,2-2.36,3-3.55l.67.38A6,6,0,0,1,67.68,55c-2.29,3-5,5.78-6.86,9.05a54.42,54.42,0,0,0-6.9,28.49c0,1.59.37,3.18.56,4.77l.47,0a5.82,5.82,0,0,0,0-1.32,18.61,18.61,0,0,1,.67-9.54,66.17,66.17,0,0,1,2.5-6.28c1.6-4,2.93-8.06,4.85-11.87a41.34,41.34,0,0,1,11.1-13.47,29.44,29.44,0,0,1,12.45-6,53.07,53.07,0,0,1,7-.58c-1.64-.78-2.74-1.62-3.93-1.79a56.27,56.27,0,0,0-8.3-.64c-8.47,0-14.91,4.33-20.51,10.17-3.7,3.86-5.49,8.82-7.32,13.72l-1.56,4.25C52.43,62.32,63.76,43.44,85,43.64ZM63.43,93.43c.29-.33.42-.41.44-.51A10.58,10.58,0,0,0,64,91.79a24.22,24.22,0,0,1,3.23-10.15c3.29-6,7.31-11.29,13-15.18S92.46,60,99.72,61c1.09.16,2.16.51,3.31.78-1.5-5.18-3-6.28-8-6.87-4-.47-7.84,1-11.73,1.78a11.86,11.86,0,0,0-6.46,3.61c-1.42,1.47-2.92,2.86-4.38,4.29l-.36-.44c3.39-3.54,6.23-7.66,11.58-8.92,4.92-1.15,9.75-2.59,15-1-1.92-3.47-6.25-5.21-10.32-4.49a29.47,29.47,0,0,0-14.37,6.62c-3.63,3.11-7,6.57-8.93,11.1-1.79,4.16-3.47,8.38-5.5,12.43a31,31,0,0,0-3.48,17.49c.32,2.9.72,5.82,4.13,7.13l-.88,1.23,8.26,1.6c-4.59-7.38-6.87-14.78-5-23S71.1,65,74.62,64.56C67.32,72.83,63,82.06,63.43,93.43Zm40.34-29.57a7.61,7.61,0,0,0-2.26-1.1c-2.67-.29-5.42-.83-8-.48-6.63.89-12.11,4.32-17,8.75-4.16,3.77-6.69,8.69-9.22,13.54-1.88,3.59-2.88,7.57-1.58,11.65,1,3.18,2.44,6.18,5.29,8.28-.55,0-1.2.06-1.46-.24-1.68-1.93-3.29-3.93-4.49-5.4,2,6.51,4.28,9.31,9,8.18-.87-2.15-2.23-4.26-2.54-6.51-1.08-8,1.72-14.88,6.53-21.1a4.54,4.54,0,0,1,1.18-.77l.48.45c-3,4.09-5.62,8.43-6.69,13.43-1.19,5.61.36,12.87,3.23,14.66-.36-1-.55-1.67-.86-2.31-2.55-5.35-1.86-10.51.93-15.52a38.32,38.32,0,0,1,8.37-10.49c3.47-3,6.9-6.19,11.49-7.33,3.06-.76,6.25-1,9.46-1.46a9.91,9.91,0,0,1-.58-2.1,2.38,2.38,0,0,0-2.44-2.51c-2.48-.13-5-.57-7.43-.18C90.11,66.14,85,67.09,81,70.92c-1.66,1.63-3.29,3.3-4.86,5a39.11,39.11,0,0,0-8.07,12.48,11.06,11.06,0,0,1-.58,1.07,10.08,10.08,0,0,1,1-4c2.73-5.79,6.82-10.59,11.34-15A17.65,17.65,0,0,1,84.45,67C90.53,64.13,96.9,62.73,103.77,63.86ZM47.52,99.09l-1-1.35a22.3,22.3,0,0,1-4.9-13.6c0-2.79.06-5.58,0-8.37a23.49,23.49,0,0,1,4.29-13.5C48.77,58,52.09,54,55.21,49.84c.13-.16.41-.22,1.12-.58a8.82,8.82,0,0,1-.71,2.36,44.56,44.56,0,0,1-3.8,4.74,31.48,31.48,0,0,0-8.31,14.82,44.45,44.45,0,0,0-.12,17.2,18.7,18.7,0,0,0,5,9.87c-5.46-12.25-5.94-24.51.5-36.19C55.14,50.64,64.69,43,78.2,41.28c-1.37-.18-2.72,0-4-.21-5.47-.87-10.73.23-15.76,2.1A36.26,36.26,0,0,0,43.13,54.48c-3.64,4.42-6.34,9.3-6.49,15.21-.09,3.71.08,7.44-.07,11.15-.11,2.81.88,5.25,1.91,7.76C40.32,93.11,44.12,95.92,47.52,99.09Zm54.61-6.92c1.08-2.24,3.32-4,2.2-7.1-.45-1.25-.09-2.77-.36-4.12-.69-3.46-3.38-5.19-6-7.14-1.89-1.4-3-.62-4.4.37,4.77,3.54,6.24,5.8,5.82,9.36a11.6,11.6,0,0,0-7.58-8.65l-2.3,1.56C96.31,79.77,100.53,84.83,102.13,92.17ZM75.26,96.39l-.79.41c.7,3.14,1.39,6.28,2.19,9.89l1-2.34L79,106.41l3.38-.68A37.86,37.86,0,0,0,80.2,100,8.3,8.3,0,0,0,75.26,96.39ZM106,74.5c.22-2.78-3.39-3.74-8.09-2,3.92,2.31,7.2,5,7.44,10.06.45-1.87,1.1-3.84.66-5.52s-2-2.87-3-4.29l.5-.5Z"/></svg>