<svg xmlns="http://www.w3.org/2000/svg" viewBox="0 0 150 150"><defs><style>.a{fill:#fde2c1;}.b{fill:#fbdbb6;}.c{fill:#fbd1a3;}.d{fill:#f9b674;}.e{fill:#f8b36e;}.f{fill:#fabb7e;}.g{fill:#facb99;}.h{fill:#fde9d1;}.i{fill:#fac893;}.j{fill:#f9d0a1;}.k{fill:#fff5ec;}.l{fill:#f7bb80;}.m{fill:#f7ab6b;}.n{fill:#f7c594;}.o{fill:#f9d0a6;}.p{fill:#f4ac6c;}.q{fill:#f5b57b;}.r{fill:#f9be84;}.s{fill:#f5b377;}</style></defs><title>icon</title><path class="a" d="M127.77,125.14h0a8.31,8.31,0,0,0,1,.09l.32,0h0l-.32,0h0a8.31,8.31,0,0,1-1-.09h0m-2-.46.35.14s.81.19,1.62.31h0c-.81-.12-1.62-.31-1.62-.31h0l-.35-.14h0m5.43-.5h0s0,.06,0,.09h0a1.73,1.73,0,0,1-.65,1.08h0a1.73,1.73,0,0,0,.65-1.08s0-.06,0-.09m-7.83-.14a1.11,1.11,0,0,0-.76.23h0a1.11,1.11,0,0,1,.76-.23m0,0h0m6.17-3h0a6.59,6.59,0,0,1,1,1.13h0a6.59,6.59,0,0,0-1-1.13m-.32-1h0a5.15,5.15,0,0,0,.22.91h0a5.15,5.15,0,0,1-.22-.91m.43-.77h0c0,.14-.08.17-.08.17h0l-.13,0h0l.13,0s.07,0,.08-.17m-.15-.59a1.38,1.38,0,0,1,.16.55h0a1.38,1.38,0,0,0-.16-.55h0m-2.89-3.62h0a15.78,15.78,0,0,1,2.88,3.59v0l0-.06a16.45,16.45,0,0,0-2.85-3.53"/><path class="a" d="M84.6,85.53l-.52.16v0h0v0l.52-.16h0m2.75-9.89h0a.35.35,0,0,0-.11,0h0a.35.35,0,0,1,.11,0m.15-.41a.68.68,0,0,1-.11.42h0a.68.68,0,0,0,.11-.42h0m0,0v0h0v0M72.08,44.92v0h0v0m.76-2.63h0l-.15.35h0l.15-.35m0,0h0"/><path class="b" d="M79,78.79a2.58,2.58,0,0,1-1.6.42H77.3c.53.5,1.15,1.06,1.85,1.68,1.15,1,2.06,1.77,2.06,1.86s0,0,0,0a.15.15,0,0,1-.08,0h0s.23.19.59.48l1.51,1.19.63.5-1-3.87c-1.47-.9-3.07-1.85-3.85-2.25"/><path class="b" d="M89.24,81v0a2.52,2.52,0,0,1-.07.56,13.32,13.32,0,0,0,1.18,1.21l2.54,2.52A21.79,21.79,0,0,1,96,88.86a0,0,0,0,1,0,0h0a19.81,19.81,0,0,1-3.36-1.83c-2-1.31-3.29-2.07-4.68-2.86a7.71,7.71,0,0,1-1.23.41l-.23.16h0s2.35,1,5.37,2.5a52,52,0,0,1,9.23,5.45s5,4,9.74,8.68c4.61,4.44,9,9.49,9,11.43a1.5,1.5,0,0,1,0,.22s0,0,0,0,.15.61,2.62,3.19a4.18,4.18,0,0,1,.56,1.63v0a.55.55,0,0,1-.63.59,5.65,5.65,0,0,1-2.39-.94s-1.76-.7-3.46-1.23a10.63,10.63,0,0,0-2.52-.56c-.35,0-.56.1-.56.33a.39.39,0,0,0,0,.14h0s-1-.55-1.76-.9a2.83,2.83,0,0,0-.9-.28.22.22,0,0,0-.16,0l.2.57h0a1,1,0,0,1-.23-.48.12.12,0,0,1,0-.09c-.07-.19-.15-.43-.24-.7,0,1-.21,1.81-.83,1.81a1.63,1.63,0,0,1-.9-.39h-.31a9.28,9.28,0,0,1-4.31-1.08c2.38,1.56,5.55,3.93,8.66,6.28,3.69,2.85,9.15,7.31,10.41,7.31a.23.23,0,0,0,.24-.13,1.49,1.49,0,0,0,0-.21c0-.93-.78-2.45-.79-3.33a.84.84,0,0,1,.1-.44.88.88,0,0,0-.24.59v.06a5,5,0,0,0,.65,1.94h0a5,5,0,0,1-.65-1.94h0v-.06a.88.88,0,0,1,.24-.59.64.64,0,0,1,.59-.25l.31,0a7.55,7.55,0,0,1,2.26.64,11.37,11.37,0,0,0,2.74.49,2.75,2.75,0,0,0,.41,0l.19.06c.13,0,.21-.08.21-.15v0l1.16.31c.07-.5.51-.75.72-1.16a1.62,1.62,0,0,0,0-.22,3,3,0,0,0-.66-1.74,12.46,12.46,0,0,0-1-1.13l-.1-.1h0l-.08-.08a2.2,2.2,0,0,1-.14-.7v-.13a2.26,2.26,0,0,1,0-.25h0c0-.23,0-.39.21-.39h0a.84.84,0,0,0,.08-.37c0-.36-.23-.89-1.12-1.94-.59-.68-1.19-1.36-1.79-2l-.58-.59h0l.58.58c-2.53-2.85-4.94-5.54-5.23-6.86a2.09,2.09,0,0,1-.12-.65c0-.58.35-.89,1.09-1h0c.43,0,4.62,1.78,6,2.36a3.55,3.55,0,0,0,1.22.35c.2,0,.29-.08.29-.22,0-.4-.75-1.3-1.61-2.14a46,46,0,0,1-6.14-6.42v0c0-.12.14-.15.33-.15l.31,0h.31c.18,0,.33,0,.39-.11-.21-1-2.78-3.14-3.83-4.47a7.55,7.55,0,0,0-3.19-4.19h0s0,0,.07,0a7.69,7.69,0,0,1,1.46.49,7,7,0,0,0,1.6.48h0a.17.17,0,0,0,.12-.16c0-.38-1-1.26-2.12-2.07-2.69-2-5.47-4.12-5.48-4.88v0c-.79-.22-2.09-.72-2.83-.94a3,3,0,0,0-.62-.09c-.57,0-.35.43-.74.55a10.81,10.81,0,0,1-2-.55,2.45,2.45,0,0,0-.7-.18c-.09,0-.13,0-.13.08s.35.5.54.78q.15.17.15.24c0,.1-.13.12-.31.12l-.48,0-.48,0c-.19,0-.31,0-.32.12v0c0,.4,1.52,1.58,1.53,1.93,0,.06,0,.09-.16.09a1.16,1.16,0,0,1-.28,0c.38.1.52.26.52.42s-.49.59-.89.59a.5.5,0,0,1-.43-.19h0a12.66,12.66,0,0,1-1.62-.76c-.45-.27-1.18-.66-1.36-.8-1.51-1.15-4.32-2.72-6.52-4.06l-.12,0-.31,0a3.23,3.23,0,0,1-.48,0A5.6,5.6,0,0,1,92,82.21C91,81.8,90,81.35,89.24,81"/><path class="c" d="M129.32,125v0h0v0m-6.95-.11h0a5,5,0,0,0,.65,1.94h0a4.81,4.81,0,0,1-.65-1.93h0m.24-.65a.88.88,0,0,0-.24.59v.06h0v-.06a.88.88,0,0,1,.24-.59h0m7.94-2h0a3,3,0,0,1,.66,1.74h0a3,3,0,0,0-.66-1.74h0M129.44,121h0l.1.1h0l-.1-.1h0m-.23-1.16h0a2.26,2.26,0,0,0,0,.25h0a2.26,2.26,0,0,1,0-.25M126,114.5l.58.59h0l-.58-.59h0"/><path class="b" d="M112.64,85s0,.06,0,.09a.13.13,0,0,0,0,.06h.43c-.14,0-.28-.1-.43-.16"/><path class="b" d="M85.05,85.37l-.45.16c.75.62,1.49,1.25,2.06,1.78l1.22.72c-.58-.52-1.82-1.66-2.83-2.66"/><path class="b" d="M88.62,88.46l.95.53-.18-.2c-.28-.13-.54-.25-.77-.33"/><path class="b" d="M94.94,94q2.32,2.73,4.56,5.55A24.4,24.4,0,0,0,94.94,94"/><path class="b" d="M102.39,97.34l.27.24c1.52,1.29,3,2.62,4.37,3.86-1.09-1-2.38-2.21-3.9-3.53l-.74-.57"/><path class="b" d="M84.69,101.62a9.3,9.3,0,0,0,1,1.08A114,114,0,0,0,96,111.3c2.8,2,3.31,1.57,4.42,1.68a8.47,8.47,0,0,1,2.82,1.36c-.44-.32-1.51-1.11-2.61-1.86l-.28.41c-1.12-.11-1.62.33-4.42-1.69a110.79,110.79,0,0,1-10.37-8.6,8.07,8.07,0,0,1-.91-1"/><path class="b" d="M112.38,107.73a5.47,5.47,0,0,0-.18,1.28h0a.52.52,0,0,0,.37-.55,1.37,1.37,0,0,0,0-.19,2.37,2.37,0,0,0-.17-.55"/><path class="b" d="M129.42,119.43c-.16,0-.21.16-.21.39a2.26,2.26,0,0,0,0,.25,2.09,2.09,0,0,1,.22-.64h0"/><path class="b" d="M129.44,121h0l.1.1-.1-.11"/><path class="b" d="M130.55,122.22a3,3,0,0,1,.66,1.74h0a1.62,1.62,0,0,1,0,.22.93.93,0,0,0,.1-.42,2.73,2.73,0,0,0-.75-1.54"/><path class="b" d="M123.51,124l.27.06,2,.58a7.55,7.55,0,0,0-2.26-.64"/><path class="b" d="M129.32,125v0h0c0,.07-.08.12-.21.15a7,7,0,0,0,1.21.17l.16,0v0l-1.16-.31"/><path class="b" d="M86.66,84.61l-.22,0-.1.07.09,0,.23-.16"/><path class="b" d="M85,85.36l-.46.15,0,0,.45-.16h0"/><path class="d" d="M86.65,87.3c1.13,1.12.43,1,1.8,2.28,1.91,1.93,3.13,4.71,4,6.08a6.62,6.62,0,0,1,1.26,2.58c0,.31-.18.45-.56.45a3.23,3.23,0,0,1-.77-.12,2.26,2.26,0,0,0-.77-.18c-.7,0-.4.78-1.11.81-.73.21-.61.92-1.34,1.12a5.78,5.78,0,0,0-1.46-.25,1.08,1.08,0,0,0-1,.41,2.12,2.12,0,0,0,.44.73.52.52,0,0,1,.15.3c0,.07,0,.12,0,.18a.2.2,0,0,0,0,.07h0c-.78-.16-2.39-1.2-2.94-1.2-.13,0-.2,0-.19.17h0a2.44,2.44,0,0,0,.54.87,2.41,2.41,0,0,1-.47-.78h0c0-.12.07-.17.19-.17.55,0,2.16,1,3,1.2a.25.25,0,0,1,0-.07c0-.06,0-.1,0-.18a.57.57,0,0,0-.16-.3,2.12,2.12,0,0,1-.43-.72h0a1.06,1.06,0,0,1,1-.42,5.85,5.85,0,0,1,1.46.25c.73-.2.61-.91,1.34-1.12.71,0,.41-.81,1.11-.81a2.26,2.26,0,0,1,.77.18,3.71,3.71,0,0,0,.77.11c.38,0,.56-.14.56-.44a6.56,6.56,0,0,0-1.25-2.59c-.86-1.36-2.09-4.15-4-6.08-1.37-1.29-.66-1.16-1.8-2.28l-.07-.07h0"/><path class="e" d="M86.66,87.31l.07.07c1.14,1.12.43,1,1.8,2.28,1.91,1.93,3.14,4.72,4,6.08a6.56,6.56,0,0,1,1.25,2.59c0,.3-.18.44-.56.44a3.71,3.71,0,0,1-.77-.11,2.26,2.26,0,0,0-.77-.18c-.7,0-.4.78-1.11.81-.73.21-.61.92-1.34,1.12a5.85,5.85,0,0,0-1.46-.25,1.06,1.06,0,0,0-1,.42,2.12,2.12,0,0,0,.43.72.57.57,0,0,1,.16.3c0,.08,0,.12,0,.18a.25.25,0,0,0,0,.07h0c-.79-.16-2.4-1.2-3-1.2-.12,0-.2,0-.19.17h0a2.41,2.41,0,0,0,.47.78,8.07,8.07,0,0,0,.91,1A110.79,110.79,0,0,0,96,111.2c2.8,2,3.3,1.58,4.42,1.69l.28-.41-.21-.15a9.13,9.13,0,0,0-2.74-1.49c-.11,0-.18,0-.17.16v0h0a42,42,0,0,1-3.65-2.09c-1.82-1.16-3.62-2.57-3.69-3.4a19.85,19.85,0,0,1-.94-2.22h0s1.36-.26,3-.42c.57-.05,1.17-.09,1.76-.09a5.08,5.08,0,0,1,2.73.57,5.26,5.26,0,0,0,.93.08l.48,0a2.13,2.13,0,0,0,1.88-1.12,1.78,1.78,0,0,0,.12-.69,4.55,4.55,0,0,0-.63-2.06Q97.27,96.75,94.94,94c-1.2-1.17-2.65-2.47-4.4-3.93,0,0-.45-.49-1-1.1l-.95-.53-.43-.15L87.88,88l-1.22-.72"/><path class="f" d="M89.39,88.79l.18.2c.52.61,1,1.1,1,1.1,1.75,1.46,3.2,2.76,4.4,3.93a24.4,24.4,0,0,1,4.56,5.55,4.55,4.55,0,0,1,.63,2.06,1.78,1.78,0,0,1-.12.69,2.13,2.13,0,0,1-1.88,1.12l-.48,0a5.26,5.26,0,0,1-.93-.08,5.08,5.08,0,0,0-2.73-.57c-.59,0-1.19,0-1.76.09-1.6.16-3,.42-3,.42a19.85,19.85,0,0,0,.94,2.22c.07.83,1.87,2.24,3.69,3.4A42,42,0,0,0,97.55,111v0c0-.11.06-.16.17-.16a9.13,9.13,0,0,1,2.74,1.49c1.17.79,2.36,1.67,2.82,2l.19.15.5.3a9.28,9.28,0,0,0,4.31,1.08h.31a1.63,1.63,0,0,0,.9.39c.62,0,.83-.8.83-1.81-.29-.87-.65-2.06-.89-3.14a8.44,8.44,0,0,1-.22-1.66c0-.68.19-1.14.73-1.14a2.66,2.66,0,0,1,1.26.47,2.49,2.49,0,0,0,.65.1,1,1,0,0,0,.35,0h0a5.47,5.47,0,0,1,.18-1.28c-.48-1.08-1.92-3-5.35-6.29-1.36-1.24-2.85-2.57-4.37-3.86l-.27-.24c-1.07-.79-3.13-2.32-5.42-3.89a64.42,64.42,0,0,0-7.58-4.66"/><path class="g" d="M86.43,84.77a8.63,8.63,0,0,1-1.38.6c1,1,2.25,2.14,2.83,2.66l.31.28.43.15c.23.08.49.2.77.33A64.42,64.42,0,0,1,97,93.45c2.29,1.57,4.35,3.1,5.42,3.89l.74.57c1.52,1.32,2.81,2.49,3.9,3.53,3.43,3.28,4.87,5.21,5.35,6.29a2.37,2.37,0,0,1,.17.55,1.37,1.37,0,0,1,0,.19.52.52,0,0,1-.37.55,1,1,0,0,1-.35,0,2.49,2.49,0,0,1-.65-.1,2.66,2.66,0,0,0-1.26-.47c-.54,0-.73.46-.73,1.14a8.44,8.44,0,0,0,.22,1.66,36.57,36.57,0,0,0,1.13,3.84.22.22,0,0,1,.16,0,2.83,2.83,0,0,1,.9.28c.8.35,1.76.9,1.76.9a.39.39,0,0,1,0-.14c0-.23.21-.33.56-.33a10.63,10.63,0,0,1,2.52.56c1.7.53,3.46,1.23,3.46,1.23a5.65,5.65,0,0,0,2.39.94.55.55,0,0,0,.63-.59v0a4.18,4.18,0,0,0-.56-1.63c-2.47-2.58-2.62-3.1-2.62-3.19s0,0,0,0a1.5,1.5,0,0,0,0-.22c0-1.94-4.36-7-9-11.43-4.76-4.63-9.74-8.68-9.74-8.68a52,52,0,0,0-9.23-5.45c-3-1.47-5.37-2.5-5.37-2.5h0"/><path class="g" d="M110.56,115.14a.12.12,0,0,0,0,.09,1,1,0,0,0,.23.48l-.2-.57m0,0h0"/><path class="g" d="M86.34,84.72a7.15,7.15,0,0,1-1.3.64h0a8.63,8.63,0,0,0,1.38-.6l-.09,0"/><path class="h" d="M79.64,77.58A1.61,1.61,0,0,1,79,78.79c.78.4,2.38,1.35,3.85,2.25l-.56-2.26c-1.09-.53-1.95-.91-2.68-1.2"/><path class="h" d="M88.83,79.78A2.33,2.33,0,0,1,89.24,81c.79.32,1.78.77,2.72,1.18a5.6,5.6,0,0,0,2.21.52,3.23,3.23,0,0,0,.48,0l.31,0,.12,0c2.2,1.34,5,2.91,6.52,4.06.18.14.91.53,1.36.8a12.66,12.66,0,0,0,1.62.76h0a.5.5,0,0,0,.43.19c.4,0,.89-.3.89-.59s-.14-.32-.52-.42h0a1.16,1.16,0,0,0,.28,0c.11,0,.16,0,.16-.09,0-.35-1.53-1.53-1.53-1.93v0c0-.09.13-.12.32-.12l.48,0,.48,0c.18,0,.31,0,.31-.12s0-.13-.15-.24c-.19-.28-.53-.62-.54-.78s0-.08.13-.08a2.45,2.45,0,0,1,.7.18,10.81,10.81,0,0,0,2,.55c.39-.12.17-.55.74-.55a3,3,0,0,1,.62.09,29.45,29.45,0,0,0,3.39,1.05c.09,0,.13,0,.13-.06s0-.1-.12-.18a.28.28,0,0,1-.11-.2s0-.08,0-.12-.06-.16-.37-.33h0c-.36-.07-1.09-.34-1.57-.44-1.08-.28-1.27-.09-2.48-.46s-2.41-.78-3.34-1a4.62,4.62,0,0,0-.79-.09,1.23,1.23,0,0,0-.29,0h-.12c-1.15,0-1.84.21-1.94.73.56.38.75.58.75.68s-.63.08-.75.19h0c-.15,0-.51-.12-.77-.17s0,.36-.27.36a2.27,2.27,0,0,1-.75-.23C97,83,94.41,81.83,92.21,81c-.77-.3-2.08-.75-3.38-1.18"/><path class="h" d="M89.17,81.61l-.06.17a5,5,0,0,1-.79,2.16h-.06v0a1.84,1.84,0,0,1-.37.21c1.39.79,2.72,1.55,4.68,2.86a19.81,19.81,0,0,0,3.36,1.83h0a0,0,0,0,0,0,0,21.79,21.79,0,0,0-3.11-3.52l-2.54-2.52a13.32,13.32,0,0,1-1.18-1.21"/><path class="h" d="M89.11,81.78A11.24,11.24,0,0,0,88.26,84h.06a5,5,0,0,0,.79-2.16"/><path class="a" d="M126.61,115.08h0a16.4,16.4,0,0,1,2.85,3.54l0,.06v0a16,16,0,0,0-2.88-3.6"/><path class="i" d="M126,114.5l.58.59a16.45,16.45,0,0,1,2.85,3.53,16.4,16.4,0,0,0-2.85-3.54l-.58-.58"/><path class="i" d="M129.5,118.71a1.38,1.38,0,0,1,.16.55,1.38,1.38,0,0,0-.16-.55"/><path class="i" d="M129.65,119.3c0,.14-.08.17-.08.17s.07,0,.08-.17"/><path class="i" d="M131.21,124a1.62,1.62,0,0,1,0,.22s0,.06,0,.09,0-.06,0-.09a1.62,1.62,0,0,0,0-.22m0,0h0"/><path class="i" d="M126.12,124.82h0s.81.19,1.62.31c-.81-.12-1.62-.31-1.62-.31"/><path class="j" d="M122.37,124.92h0a4.81,4.81,0,0,0,.65,1.93h0a5,5,0,0,1-.65-1.94m.24-.65h0a.88.88,0,0,0-.24.59v.06h0v-.06a.88.88,0,0,1,.24-.59h0"/><path class="i" d="M122.37,124.92a4.81,4.81,0,0,0,.65,1.93,4.81,4.81,0,0,1-.65-1.93m0,0h0"/><path class="i" d="M127.77,125.14a8.31,8.31,0,0,0,1,.09,8.31,8.31,0,0,1-1-.09m1.55-.08h0"/><path class="k" d="M81.58,76.63c-.22,0-.31.06-.31.16s.34.57.78.95l-.27-1.1h-.2"/><path class="k" d="M87.9,78.65a5.37,5.37,0,0,1,.52.57,5.62,5.62,0,0,1,.41.56c1.3.43,2.61.88,3.38,1.18,2.2.87,4.81,2,7.72,3.26a2.27,2.27,0,0,0,.75.23c.27,0,0-.3.27-.36s.62.17.77.17h0c.12-.11.75,0,.75-.19s-.19-.3-.75-.68h0c.1-.52.79-.73,1.94-.73h.12a1.23,1.23,0,0,1,.29,0,4.62,4.62,0,0,1,.79.09c.93.22,2.27.7,3.34,1s1.4.18,2.48.46c.48.1,1.21.37,1.57.44h0a.12.12,0,0,1,0-.08s0-.06,0-.09,0-.09-.29-.2a19,19,0,0,0-1.79-.69c-2-.62-4.26-1.43-5.94-1.93A35.51,35.51,0,0,0,97,80a2.58,2.58,0,0,0-.53,0s0,0,0,0,.64.59.9.85.27.32.27.41-.09.19-.09.32.16.4.89.94c.11.08.15.13.15.16s0,0,0,0l-.18,0c-3.53-1.36-6.69-2.61-9.87-3.9l-.56-.22"/><path class="k" d="M87.84,78.62c.22.21.41.41.58.6a5.37,5.37,0,0,0-.52-.57l-.06,0"/><path class="b" d="M72.3,26a1.87,1.87,0,0,0,0,.25.09.09,0,0,0,0,.05,3.08,3.08,0,0,1,.48-.23L72.3,26"/><path class="b" d="M68.75,27h-.17c-1.49.16-1.11,1.18-1.72,1.82a5,5,0,0,1-1.6.18h-.81c-.55,0-.73.17-.73.43a4.82,4.82,0,0,0,.43,1.19.7.7,0,0,1,.12.35c0,.73-1.84.82-1.95,1.54a.52.52,0,0,0,0,.18c0,.8,1.36,2,1.36,2.72,0,.23-.16.4-.56.48h.14a.35.35,0,0,1,.4.39,2,2,0,0,1-.27.83c-.33.6-.89,1.21-1.22,1.21a.22.22,0,0,1-.21-.15h-.09a8.09,8.09,0,0,1-1.7-.35,12.21,12.21,0,0,1-1.45-.61c-1.54-1.22-4.56-2.34-6.89-3.45h0c-.16,0-.51.42-1.11.84a4.34,4.34,0,0,1-2.55.84H48c-1.06-.07-2.18-.18-3.08-.18a2.66,2.66,0,0,0-1.67.35c.09.25,1.25.82,1.34,1.07h0a54.64,54.64,0,0,0,3.55,4.9c1.52,2.06,2.93,4.13,2.93,4.7,0,.09,0,.14-.1.16h-.31a9,9,0,0,1-3.5-.79c-3.36-1.53-5.13-1.54-8-2.51-.76-.28-1.62-.81-2.4-1.09a22.79,22.79,0,0,0-4.92-1.18,1.19,1.19,0,0,0-.32,0c-1.28.1-2,.52-2,1.15a1.22,1.22,0,0,0,.12.5h0l-.65,1.19A23.63,23.63,0,0,0,31.13,46c1.16,1.13,2.14,1.75,2.14,2,0,.05,0,.08-.12.1h0c0,.07,1,.65,2.28,1.44a25.69,25.69,0,0,1,3.71,2.7l1.43.26a28.27,28.27,0,0,1-3.43-3.4,3.46,3.46,0,0,1-.89-1.78c0-.49.4-.8,1.42-.8a11,11,0,0,1,2.1.27s1-.07,2.59-.07c1,0,2.34,0,3.74.13,3.5.27,7.69,1,10.37,3,0,0,4.11,3,8.57,7,.18-.62.38-1.14.38-1.14a.51.51,0,0,1-.17,0c-.4,0-.57-.54-.57-1.31a9.63,9.63,0,0,1,.18-1.68l1.27,5.08.7.65c.85.79,1.69,1.61,2.51,2.44.51-1.6,1.11-3.26,1.76-4.88,1-2.53,2.46-5.74,3.48-8.2l7.21,28.8h0L73.94,45.17a3,3,0,0,1-1.11.56l-.17,0h0a.54.54,0,0,1-.33-.13c-.15-.06-.24-.23-.24-.52a2.32,2.32,0,0,1,0-.24,7,7,0,0,1,.61-2.22c.12-.37.22-.72.32-1v0h0l.91,3.61a7.7,7.7,0,0,0,.59-.5,7.7,7.7,0,0,1-.59.5h0a7.7,7.7,0,0,0,.59-.5,7.7,7.7,0,0,1-.59.5l7.88,31.48c.69.19,3.86,1.15,6,2l-.55-.48-.12-.08h0v0L87.08,78a3.56,3.56,0,0,1-.13-.91,2.81,2.81,0,0,1,0-.29,2.71,2.71,0,0,1,0-.29h0a1.09,1.09,0,0,1,.19-.74l.1-.07a2.46,2.46,0,0,0,.11-.66,3.56,3.56,0,0,0-1.2-2.27c-.65-.7-1.32-1.4-2-2.09l-.62-.55h0l.62.55c-2.77-2.92-5.34-5.77-5.55-7.78a5.38,5.38,0,0,1-.07-.78A2.93,2.93,0,0,1,80,59.52a3,3,0,0,1,1.16-.12c1.62,0,4.47.23,5.62.34a4,4,0,0,0,.48,0c.9,0,1.26-.29,1.26-.73a5,5,0,0,0-1.66-2.52,27.59,27.59,0,0,1-6.34-7.25v0c0-.61,1.35-.64,1.58-1.23-.1-1.68-2.75-3.87-3.76-5.66-.76-5.14-3-5.68-3-5.79s0,0,0,0,.23-.17.52-.17.67,0,1.07.09.82.08,1.17.08a1.58,1.58,0,0,0,.72-.12A.64.64,0,0,0,79,36c0-.71-1-1.71-2.06-2.55-2.65-2.21-5.31-4.57-5.32-6.09a1.34,1.34,0,0,1,0-.2h-.22c-.41,0-.89,0-1.36-.08s-1-.07-1.33-.07"/><path class="c" d="M87.17,78.06l.12.08h0l-.12-.08h0m0,0h0v0h0v0h0M83.55,70.1l.62.55h0l-.62-.55h0M72.3,45.62h0a.54.54,0,0,0,.33.13h0a.54.54,0,0,1-.33-.13h0m1.64-.45h0l7.88,31.48h0L73.94,45.17m0,0a3,3,0,0,1-1.11.56l-.17,0h0l.17,0a3,3,0,0,0,1.11-.56h0m.59-.5a7.7,7.7,0,0,1-.59.5h0a7.7,7.7,0,0,0,.59-.5"/><path class="b" d="M82.05,77.74l.27,1,0,0-.26-1,0,0"/><path class="b" d="M82.1,77.78l.26,1,.66.34a3.86,3.86,0,0,0,1,.39h0c-.18-.14-.48-.44-.67-.58h0a.27.27,0,0,1,0-.12l-.12-.09c-.35-.25-.8-.59-1.19-.92l0,0"/><path class="b" d="M83.85,84.91l.19.76h0L83.89,85l0,0"/><path class="b" d="M83.89,85l.18.71a3.8,3.8,0,0,0,.51-.15L83.89,85"/><path class="l" d="M87.9,80.6h0c.1.14,1.06.76,1.27,1,0-.07,0-.14,0-.21s0-.25,0-.38a4.58,4.58,0,0,0-1.22-.38"/><path class="l" d="M82.88,81l1,3.87,0,0-1-3.89,0,0"/><path class="l" d="M82.92,81.06l1,3.89.69.56.46-.15c-.17-.16-.32-.32-.47-.47a3.91,3.91,0,0,1-1-1.31c0-.07,0-.11.13-.11a9.16,9.16,0,0,1,2.64,1.25l.1-.07.22,0c.16-.12.25-.24.25-.35v0l.76-.15c-.71-.41-1.43-.83-2.27-1.36l-2.19-1.47-.29-.18"/><path class="m" d="M83.7,83.47c-.09,0-.13,0-.13.11a3.91,3.91,0,0,0,1,1.31c.15.15.3.31.47.47a7.15,7.15,0,0,0,1.3-.64,9.16,9.16,0,0,0-2.64-1.25"/><path class="n" d="M84.52,78.49c-.24,0-.27.12-.27.26v.08s0,.06,0,.09,0,.25-.26.25h0s-.21-.13-.5-.34a.27.27,0,0,0,0,.12c.19.14.49.44.67.58h0a3.86,3.86,0,0,1-1-.39l-.66-.34.56,2.26.29.18,2.19,1.47c.84.53,1.56,1,2.27,1.36l.59-.12a11.24,11.24,0,0,1,.85-2.17,1.49,1.49,0,0,0,0-.21c-.21-.21-1.17-.83-1.27-1h0a4.58,4.58,0,0,1,1.22.38,3.75,3.75,0,0,0-.37-1.23c-1.73-.57-3.43-1.11-3.85-1.2a1.69,1.69,0,0,0-.38-.06"/><path class="n" d="M82.32,78.78,82.88,81l0,0-.56-2.26,0,0"/><path class="o" d="M81.78,76.64l.27,1.1,0,0-.28-1.13h0"/><path class="o" d="M81.82,76.65l.28,1.13,0,0c.39.33.84.67,1.19.92s.62.43.62.43h0c.22,0,.26-.12.26-.25s0-.06,0-.09v-.08c0-.14,0-.26.27-.26a1.69,1.69,0,0,1,.38.06c.42.09,2.12.63,3.85,1.2a3.83,3.83,0,0,0-.33-.53c-.17-.19-.36-.39-.58-.6-2.16-.82-5.33-1.78-6-2"/><path class="b" d="M42.38,52.53a5.57,5.57,0,0,0-1,.09l1.12.17c-.06-.09-.12-.17-.17-.26"/><path class="b" d="M65,56.85c-.07.26-.14.53-.19.79a3.47,3.47,0,0,0-.08.67c0,.25,0,.44.16.51l.63-.22h0a.91.91,0,0,1-.5.26.28.28,0,0,1-.13,0c-.22.08-.49.16-.8.25l.66,0a2.63,2.63,0,0,1,1.83.67l-.49-2-1.09-1"/><path class="b" d="M57.1,57.64l.31.22c.89.63,1.77,1.28,2.62,1.93h.13c-.68-.54-1.42-1.11-2.22-1.7l-.84-.44"/><path class="b" d="M48.27,57.87Q50.64,61.1,53,64.38a16.51,16.51,0,0,0-4.69-6.51"/><path class="b" d="M60.25,59.78h-.09l.12.1,0-.1"/><path class="b" d="M66.79,60.5a1.93,1.93,0,0,1-.14.52,14.07,14.07,0,0,1,.73,1.87v0l-.6-2.41"/><path class="b" d="M67.76,64.39a8.53,8.53,0,0,1,.15,1.53c0,.15,0,.31,0,.46,0-.27.1-.54.16-.82l-.29-1.17"/><path class="b" d="M67.83,70.17a2.18,2.18,0,0,1-.2.34l.29.1c.74,1.21,1.72,1.71,1.71,4.5,0,.26,0,.54,0,.85a98.33,98.33,0,0,1-1.67,13.6,3.07,3.07,0,0,1-.56,1.24A3.18,3.18,0,0,0,68,89.47a99.79,99.79,0,0,0,1.66-13.61c0-.31,0-.59,0-.85,0-2.79-1-3.29-1.71-4.49a1.63,1.63,0,0,1-.17-.35"/><path class="b" d="M87.24,75.67l-.1.07a1.09,1.09,0,0,0-.19.74,2.71,2.71,0,0,0,0,.29,6.3,6.3,0,0,1,.28-1.1"/><path class="b" d="M87.17,78v0h0l.12.08-.12-.1"/><path class="l" d="M89.12,81c0,.13,0,.26,0,.38h0c0,.07,0,.14,0,.21s0,0,0,0h0a2.52,2.52,0,0,0,.07-.56v0l-.12,0"/><path class="n" d="M88.75,79.75A3.75,3.75,0,0,1,89.12,81l.12,0a2.33,2.33,0,0,0-.41-1.25l-.08,0"/><path class="n" d="M89.13,81.57a1.49,1.49,0,0,1,0,.21l.06-.17h0s0,0,0,0"/><path class="o" d="M88.42,79.22a3.83,3.83,0,0,1,.33.53l.08,0a5.62,5.62,0,0,0-.41-.56"/><path class="l" d="M87.67,84.07l-.76.15v0h0c0,.11-.09.23-.25.35a7.71,7.71,0,0,0,1.23-.41l-.22-.13"/><path class="n" d="M88.26,84l-.59.12.22.13a1.84,1.84,0,0,0,.37-.21v0"/><path class="b" d="M73,41.56h0v.07l.85,3.42h0c-.19.12-.39.24-.58.34a1.93,1.93,0,0,1-.8.27.38.38,0,0,1-.19,0,.54.54,0,0,0,.33.13h0l.17,0a3,3,0,0,0,1.11-.56L73,41.56"/><path class="b" d="M72.69,42.64a7,7,0,0,0-.61,2.22c0-.09,0-.19,0-.3.18-.67.38-1.32.56-1.92"/><path class="d" d="M39.12,52.22c1.18,1.22.25,1.71,1.71,3,2,2.13,2.86,6.54,3.7,8.35a9.22,9.22,0,0,1,1.08,3.48v.13l-.33,8.11,2.54.71c1.07.29,1.66,1,2.14,2.41.42,2.34,2.31,1.94,3.42,3.34,1.33,1.26,2.73,1.35,4.12,2.51a7.07,7.07,0,0,0,3.92,3.63,1.56,1.56,0,0,0,.93-.51.49.49,0,0,1,.37-.17,1.1,1.1,0,0,1,.27,0,1.18,1.18,0,0,0,.25,0h.1c1,1.29,1.45,4.23,3,4.23h0a1.63,1.63,0,0,0,1-.72,1.51,1.51,0,0,1-.9.62h0c-1.58,0-2-2.94-3-4.23l-.1,0a.79.79,0,0,1-.25,0,1.26,1.26,0,0,0-.27,0,.47.47,0,0,0-.37.18,1.54,1.54,0,0,1-.92.5,7,7,0,0,1-3.92-3.61c-1.39-1.17-2.78-1.25-4.11-2.51-1.11-1.4-3-1-3.43-3.33-.48-1.4-1.07-2.14-2.17-2.43l-2.39-.62.21-8.07v-.08a9.26,9.26,0,0,0-1.08-3.49c-.84-1.81-1.71-6.22-3.7-8.35-1.46-1.3-.53-1.79-1.71-3l-.08-.07h0"/><path class="e" d="M39.13,52.22l.08.07c1.18,1.23.25,1.72,1.71,3,2,2.13,2.86,6.54,3.7,8.35a9.26,9.26,0,0,1,1.08,3.49v.08l-.21,8.07,2.39.62c1.1.29,1.69,1,2.17,2.43.43,2.34,2.32,1.93,3.43,3.33,1.33,1.26,2.72,1.34,4.11,2.51a7,7,0,0,0,3.92,3.61,1.54,1.54,0,0,0,.92-.5.47.47,0,0,1,.37-.18,1.26,1.26,0,0,1,.27,0,.79.79,0,0,0,.25,0l.1,0c1,1.29,1.45,4.23,3,4.23h0a1.51,1.51,0,0,0,.9-.62,3.07,3.07,0,0,0,.56-1.24A98.33,98.33,0,0,0,69.61,76c0-.31,0-.59,0-.85,0-2.79-1-3.29-1.71-4.5l-.29-.1-.15.17c0,.16,0,.3,0,.44a.66.66,0,0,0,0,.14h0s-.21,0-.52,0c0,.4-.07.78-.07,1.12,0,1,.2,1.73.73,1.73h.07s.35,2.26.51,4.56c0,.48.06,1,.06,1.42,0,1.78-.3,3.29-1.51,3.4,0,0-.52.28-1.17.56a8.13,8.13,0,0,1-1.91.63A38.8,38.8,0,0,1,59,80.51c-2-2.12-3.71-4.61-3.7-5.93a1,1,0,0,1,0-.36,13.15,13.15,0,0,0-.74-1.49,11.79,11.79,0,0,0-2-2.55l-.17.29-.14-.57h0l.31.28A6.86,6.86,0,0,0,53.41,67,7.78,7.78,0,0,0,53,64.38q-2.33-3.28-4.69-6.51a42,42,0,0,0-4.75-3.75s-.46-.57-1-1.33l-1.12-.17a4.1,4.1,0,0,0-.53.15l-.34-.29-1.43-.26"/><path class="f" d="M42.51,52.53h-.13c0,.09.11.17.17.26.51.76,1,1.33,1,1.33a42,42,0,0,1,4.75,3.75A16.51,16.51,0,0,1,53,64.38,7.78,7.78,0,0,1,53.41,67a6.86,6.86,0,0,1-.81,3.23,11.79,11.79,0,0,1,2,2.55,13.15,13.15,0,0,1,.74,1.49h0a1,1,0,0,0,0,.36c0,1.32,1.69,3.81,3.7,5.93a38.8,38.8,0,0,0,4.71,4.19,8.13,8.13,0,0,0,1.91-.63c.65-.28,1.17-.56,1.17-.56,1.21-.11,1.51-1.62,1.51-3.4,0-.46,0-.94-.06-1.42-.16-2.3-.51-4.56-.51-4.56h-.07c-.53,0-.72-.73-.73-1.73,0-.34,0-.72.07-1.12.31,0,.52,0,.52,0a.66.66,0,0,1,0-.14c0-.14,0-.28,0-.44a2.5,2.5,0,0,1-1.23.68,3,3,0,0,0-.57-.06c-1.53,0-2,1.54-2,3.5,0,.36,0,.72,0,1.1h0l-4-16.11H60c-.85-.65-1.73-1.3-2.62-1.93l-.31-.22c-1.18-.62-3.47-1.77-6-2.83-3-1.21-6.23-2.28-8.56-2.28"/><path class="f" d="M64.12,59.07l-.47.14a17.72,17.72,0,0,1-3.4.57l0,.1c5.11,4.07,7.06,6.76,7.57,8.49l.13-.56a.77.77,0,0,0,0-.15,1.49,1.49,0,0,0-.19-.67h0l0-.09a6.37,6.37,0,0,0,.08-1,8.53,8.53,0,0,0-.15-1.53l-.37-1.48v0A14.07,14.07,0,0,0,66.65,61h0a1.93,1.93,0,0,0,.14-.52l-.18-.72a2.63,2.63,0,0,0-1.83-.67l-.66,0"/><path class="f" d="M52.29,69.9l.14.57.17-.29-.31-.28"/><path class="g" d="M37.66,46.5c-1,0-1.42.31-1.42.8a3.46,3.46,0,0,0,.89,1.78,28.27,28.27,0,0,0,3.43,3.4l.34.29a4.1,4.1,0,0,1,.53-.15,5.57,5.57,0,0,1,1-.09h.13c2.33,0,5.61,1.07,8.56,2.28,2.56,1.06,4.85,2.21,6,2.83l.84.44c.8.59,1.54,1.16,2.22,1.7a17.92,17.92,0,0,0,3.49-.57c.51-.14.95-.28,1.27-.39-.11-.07-.16-.26-.16-.51a3.47,3.47,0,0,1,.08-.67c0-.26.12-.53.19-.79-4.46-4-8.57-7-8.57-7-2.68-2-6.87-2.71-10.37-3-1.4-.1-2.69-.13-3.74-.13-1.57,0-2.59.07-2.59.07a11,11,0,0,0-2.1-.27"/><path class="g" d="M64.85,52.75a9.63,9.63,0,0,0-.18,1.68c0,.77.17,1.31.57,1.31a.51.51,0,0,0,.17,0h0s-.2.52-.38,1.14l1.09,1-1.27-5.08"/><path class="g" d="M66.12,57.83l.49,2,.18.72.6,2.41.37,1.48,3.83,15.29a37.15,37.15,0,0,1,4.47-.61,7.7,7.7,0,0,0,1.24.14L77,78.9l-.19.15-4.5-3.76c-.47-.44-.19-.43-.42-.71a.17.17,0,0,1,0,0s0,0,.06,0a6.83,6.83,0,0,1,1.42.57,48.39,48.39,0,0,0,6.31,2.52v0c0-.06,0-.12,0-.17a5.21,5.21,0,0,0-.56-2.08C76.4,72.93,76.2,72.16,76.2,72a.12.12,0,0,1,0,0,2.89,2.89,0,0,0,0-.52c0-3.16-4.62-8.44-9.43-12.93l-.7-.65"/><path class="p" d="M77.3,78.17c-.11,0-.17,0-.17.1a.79.79,0,0,0,.2.34h0L77,78.9l.32.31h.13a2.58,2.58,0,0,0,1.6-.42l-.4-.18a4.45,4.45,0,0,0-1.33-.44"/><path class="q" d="M71.91,74.49s-.06,0-.06,0a.17.17,0,0,0,0,0c.23.28-.05.27.42.71l4.5,3.76.54-.44a.79.79,0,0,1-.2-.34c0-.07.06-.1.17-.1a4.45,4.45,0,0,1,1.33.44l.4.18a1.61,1.61,0,0,0,.61-1.21,48.39,48.39,0,0,1-6.31-2.52,6.83,6.83,0,0,0-1.42-.57"/><path class="g" d="M65.55,58.6l-.63.22a.28.28,0,0,0,.13,0,.91.91,0,0,0,.5-.26"/><path class="g" d="M60.16,59.78h-.47l4,16.11c0-.38,0-.74,0-1.1,0-2,.48-3.5,2-3.5a3,3,0,0,1,.57.06,2.5,2.5,0,0,0,1.23-.68l.15-.17a1.93,1.93,0,0,0,.37-1.2v-.15a3.62,3.62,0,0,0-.15-.79c-.51-1.73-2.46-4.42-7.57-8.49l-.12-.1m0,0h0"/><path class="h" d="M72,25.48a2.76,2.76,0,0,1-.44,0H70.9a4.36,4.36,0,0,0-.65,0c-1.17.09-1.46.6-2.73.6h0c-.49,0-1,0-1.54,0h-.18a12.3,12.3,0,0,0-2,.1,2.55,2.55,0,0,0-1.26.61,5,5,0,0,0-2.69,3c.53.37.71.65.71.87,0,.44-.77.66-1,1-.14.14-.6.14-.93.25-.38.37.07,1.08-1,1.08a2.12,2.12,0,0,1-.34,0,77.49,77.49,0,0,0-8.6-.82h-.1a41,41,0,0,0-8.49,1.31c-1.46.49-.59,1.88-1.54,2.54h0a2.81,2.81,0,0,1-.53-.3,2,2,0,0,0-.09.33c.19.16.47.56.66.71h0a1.4,1.4,0,0,1-.95.21h-.34A17.58,17.58,0,0,0,35,36.9a14.29,14.29,0,0,0-4.38.74,13.91,13.91,0,0,1-4.26.74l-.75,0c-.77,0-1.92.11-1.91.65v0a.65.65,0,0,1,.05.27c0,.19-.06.36-.06.55a.87.87,0,0,0,.23.58c1.21,1.18,3.18,2.65,4.67,3.91l1-1.82a1.22,1.22,0,0,1-.12-.5c0-.63.72-1,2-1.15a1.19,1.19,0,0,1,.32,0A22.79,22.79,0,0,1,36.71,42c.78.28,1.64.81,2.4,1.09,2.91,1,4.68,1,8,2.51a9,9,0,0,0,3.5.79H51c.07,0,.1-.07.1-.16,0-.57-1.41-2.64-2.93-4.7a54.64,54.64,0,0,1-3.55-4.9h0c-.09-.25-1.25-.82-1.34-1.07h0a2.66,2.66,0,0,1,1.67-.35c.9,0,2,.11,3.08.18h.14a4.34,4.34,0,0,0,2.55-.84c.6-.42,1-.84,1.11-.84h0c2.33,1.11,5.35,2.23,6.89,3.45a12.21,12.21,0,0,0,1.45.61,8.09,8.09,0,0,0,1.7.35h.09a.22.22,0,0,0,.21.15c.33,0,.89-.61,1.22-1.21a2,2,0,0,0,.27-.83.35.35,0,0,0-.4-.39h-.14c.4-.08.55-.25.56-.48,0-.69-1.36-1.92-1.36-2.72a.52.52,0,0,1,0-.18c.11-.72,1.94-.81,1.95-1.54a.7.7,0,0,0-.12-.35,4.82,4.82,0,0,1-.43-1.19c0-.26.18-.43.73-.43h.81a5,5,0,0,0,1.6-.18c.61-.64.23-1.66,1.72-1.82h.17c.38,0,.85,0,1.33.07s1,.08,1.36.08h.22c.47,0,.79-.11.79-.35a.48.48,0,0,0-.1-.26.48.48,0,0,1-.09-.26c0-.13.06-.25.06-.37s-.07-.26-.35-.4h0"/><path class="i" d="M73,41.56l-.19.73.19-.73"/><path class="i" d="M72.84,42.29l-.15.35a7,7,0,0,0-.61,2.22v.06a6.68,6.68,0,0,1,.61-2.28l.15-.35"/><path class="j" d="M74.53,44.67a7.7,7.7,0,0,1-.59.5h0a7.7,7.7,0,0,0,.59-.5"/><path class="i" d="M72.08,45a.84.84,0,0,0,.22.67.54.54,0,0,0,.33.13.54.54,0,0,1-.33-.13.84.84,0,0,1-.22-.67"/><path class="i" d="M83.55,70.1l.62.55c2.81,2.56,3.31,3.92,3.33,4.55,0-.68-.59-2.19-4-5.1"/><path class="i" d="M87.14,75.74a1.09,1.09,0,0,0-.19.74h0a1.09,1.09,0,0,1,.19-.74"/><path class="j" d="M87.17,78v0h0v0h0"/><path class="i" d="M87,76.48A7.63,7.63,0,0,0,87.17,78v0A7.67,7.67,0,0,1,87,76.77a2.71,2.71,0,0,1,0-.29m0,0h0"/><path class="r" d="M87.9,78.65a5.37,5.37,0,0,1,.52.57,3.83,3.83,0,0,1,.33.53h0a3.83,3.83,0,0,0-.33-.53,5.37,5.37,0,0,0-.52-.57h0"/><path class="i" d="M87.17,78.06l.12.08a5.47,5.47,0,0,1,.61.51h0a5.67,5.67,0,0,0-.73-.59"/><path class="s" d="M88.75,79.75A3.75,3.75,0,0,1,89.12,81h0a3.75,3.75,0,0,0-.37-1.23h0"/><path class="k" d="M64,24.37h-.68c-4.22.22-7.52.83-8.92,2.26a.19.19,0,0,0-.06.13c0,.31.61.8.83,1.17a1,1,0,0,1,.21.58c0,.36-.24.67-.24,1.05s.18.72.82,1.26c.09.07.14.14.14.19s-.12.16-.29.18c-3.94-.16-7.49-.3-11.1-.39h-.35a33.45,33.45,0,0,0-7.57,1.32A1.39,1.39,0,0,0,36,33.29a2.42,2.42,0,0,0,.74,1.45,6.79,6.79,0,0,0,1.2,1,2.92,2.92,0,0,0,.65.38h0c1-.66.08-2,1.54-2.54a41,41,0,0,1,8.49-1.31h.1a77.49,77.49,0,0,1,8.6.82,2.12,2.12,0,0,0,.34,0c1,0,.57-.71,1-1.08.33-.11.79-.11.93-.25.19-.35,1-.57,1-1,0-.22-.18-.5-.71-.87h0a5,5,0,0,1,2.69-3,2.55,2.55,0,0,1,1.26-.61,12.3,12.3,0,0,1,2-.1h.18c.53,0,1,0,1.54,0h0c1.27,0,1.56-.51,2.73-.6a4.36,4.36,0,0,1,.65,0h.63a2.76,2.76,0,0,0,.44,0,.17.17,0,0,1,0-.1c0-.08,0-.17,0-.24s-.06-.15-.28-.22a8,8,0,0,0-1.91-.32c-1.93,0-4-.23-5.79-.23"/><path d="M77.68,123.22c-1,.23-1.72.2-1.7-1.08q.13-8.53.26-17.06a2.77,2.77,0,0,0-.42-1.78q-1,6-2.08,12l-.83-.14c.32-2.35.51-4.73,1-7,1.11-5.44.16-10.76-.64-16.1-.09-.63-.21-1.25-.3-1.87-.4-3.07-1.17-3.51-4.22-2.94a6.57,6.57,0,0,1-3.5-.41A37.65,37.65,0,0,1,59.88,84c-.39-.23-.41-1.07-.71-2-1.38.71-2.84,1.43-4.27,2.21-1.95,1.07-3.84,2.22-5.82,3.23a1.83,1.83,0,0,1-1.56-.12c-.25-.14-.29-.86-.23-1.3.84-6-2.38-10-8.45-9.59a2.52,2.52,0,0,1-1.41-.52c-.1-.07.08-.81.32-1.08,3.23-3.65,3.61-7.78,1.66-12a37.09,37.09,0,0,0-4.51-7.44c-1-1.26-1.46-2.15-.88-3.16a23,23,0,0,0,3.59,2,25.64,25.64,0,0,0,19-.61c2.29-1,3-3.12,3.44-5.23a9.45,9.45,0,0,0-1.66-7.75c-1.15-1.57-2.22-3.21-3.28-4.85A9.34,9.34,0,0,1,54.58,34c1.48.71,2.47,1.2,3.47,1.67,3.46,1.62,6.76-.29,7.33-4.09.71-4.68,1.2-9.34-.13-14,0-.11.08-.26.14-.45l1.45.22c.88,4.65,1.41,9.17,2.65,13.48s5.69,5.17,9,2.38A5.18,5.18,0,0,1,80,32.56a7.61,7.61,0,0,1-.21,1.59c-1.7,5.22-2.15,10.48.2,15.58,1.75,3.81,5.21,5.38,9.2,6.14,6,1.15,11-1,15.5-4.62a3.49,3.49,0,0,1,.71-.44c.11-.05.27,0,.89,0-.39.9-.65,1.73-1.06,2.46C103.15,57,100.4,60.43,100.49,65c.07,3.22,1.91,5.45,4.32,7.67-.56.32-1.09.87-1.37.76-4.87-1.81-9,.32-13.26,2.21-1.53.69-3.13,1.23-4.7,1.83l.15.64,5.13.49c-.08.36,0,.95-.29,1.17-2.18,1.87-4.21,4.08-6.71,5.36-1.68.86-4.08.62-6.12.41-3.08-.31-3.79.19-3.21,3.17.83,4.32,1.87,8.62,2.56,13a65.61,65.61,0,0,1,.53,8.19c.11,3.07.12,6.15.14,9.22,0,1.39,0,2.78,0,4.17Zm-14-39.06c2.54,2.58,5.4.4,7.81.84a6.71,6.71,0,0,1,3.08-1.29c2.26-.11,4.54.17,6.8.07C84,83.65,85.83,82.24,87.7,80H83.35c-.31-.81-.57-1.47-.88-2.26,5.76-3.27,11.33-7.18,18.65-6.38-3.82-6.77-2.46-9.91,1.13-16.3-7,3.5-13.84,4-19.89-.33C75.93,50.15,76.33,43,77.47,36c-4.44,1.3-6.06.28-10.18-6.19-1.63,8-3.63,7.79-8.36,8.12a51.49,51.49,0,0,1,2.7,6.7c1.31,5.16-1.3,9.27-6.16,11.12a23.56,23.56,0,0,1-15.39.59c-.79-.23-1.61-.34-2.61-.55,4.11,6,7,12,2.46,19,5.86.93,9.45,3.85,9,10.43,1.66-.86,3-1.5,4.25-2.22a18.12,18.12,0,0,1,11-2.68,2.4,2.4,0,0,1,1.59,1.3,5.54,5.54,0,0,1,0,2.18Z"/><path d="M77.62,123.28c3.5-1.39,5.16-4.52,6.44-7.63.55-1.34-.37-3.34-.77-5-.47-1.94-1.09-3.84-1.75-6.11l2.3.38c0-.13.15-.28.12-.39-1-3.92,2.19-7,2.18-10.7,0-.12.08-.35.16-.37,3.2-.71,2.88-4.67,5.6-6,1.6-.78,3.58-1.5,4.19-3.6,2.56.08,3.08-2.84,4.64-3.43a26.92,26.92,0,0,0,5-2.4c2.9-1.82,5.9-3.5,8.86-5.23,1.08-.63,1.69-.27,1.9.94.12.68.32,1.35.52,2.15l2-.14c-.86,6.39.85,13-2.87,19.24,1.35-.15,2.1-.29,2.85-.3a18.73,18.73,0,0,1,2.1.16,16.14,16.14,0,0,1-.64,1.85,36.12,36.12,0,0,1-6.81,10.46c-1.5,1.52-2.3,3.71-3.64,5.42-.5.64-1.64.78-2.69.84,1.21-2.46,4.92-3.26,3.81-6.58,4.2-2.37,5.83-6.35,7.8-10.88-1.1.37-1.73.6-2.36.79s-1.14.3-1.72.45a7.28,7.28,0,0,1,0-1.93c.61-2,1.33-3.92,2-5.88.06-.2.17-.46.1-.62-1.48-3.08,1.07-6,.25-9.08a6.17,6.17,0,0,0-.79-1.41,7.32,7.32,0,0,1-.58-.83c-1.17-2.63-1.26-2.81-3.78-1.37-3,1.73-5.88,3.81-8.81,5.73-.39.25-.89.73-1.2.64-1.44-.4-1.61.62-2,1.52-.56,1.23-1.06,2.7-2.93,1.26l-1.73,3.3c-1.59-.59-2.51.18-3.41,1.61-1.29,2-3,3.85-4.41,5.81a8.69,8.69,0,0,0-.71,2c-.56,1.44.24,3.28-1.39,4.43-.22.16,0,.92,0,1.4.13,1.37.67,2.83-1,3.77-.12.06-.07.51,0,.76.43,1.82,1,3.62,1.28,5.46a4.92,4.92,0,0,1-.46,2.53,21.2,21.2,0,0,1-1.6,2.65l.39.35c.67-.74,1.33-1.49,2-2.21,3.89.22,7.9.51,11.92.66a3.09,3.09,0,0,0,3.14-1.41c.83-1.19,2.84-1.57,4.36-2.24.16-.07.53.34.52.33a14.52,14.52,0,0,1-1,2.7,3.57,3.57,0,0,1-1.53,1c-3.75,1.74-7.63,1.43-11.56.76a27.65,27.65,0,0,0-4.56-.25,3.21,3.21,0,0,0-1.51.6c-2.71,1.77-5.4,3.57-8.09,5.36l-.36-.44.26-.9Z"/><path d="M107.76,89c-2.22,4.16-4,8.6-6.74,12.43C97.79,106,93.78,110,90.2,114.38c-.84,1-1.35,1-2.06.13,3.13-3.67,6.21-7.36,9.4-11a44.19,44.19,0,0,0,8.12-13.8c.2-.53.82-.91,1.24-1.36Z"/><path d="M110,85.44l2.58-5.7C113.69,81.34,112.64,83.82,110,85.44Z"/><path d="M68.26,37.72C72,51.84,75,66.07,73.28,81.18c-.64.24-1.25.35-1.22-1.3.13-5.69.13-11.39.08-17.08a27.36,27.36,0,0,0-.66-4.36C70.23,51.58,69,44.72,67.69,37.86Z"/><path d="M48.45,59.92c5.88.72,20.63,13,20.33,16.73-.39-.32-.81-.49-.94-.79-1.83-4.36-5.91-6.37-9.41-9C55.17,64.5,51.78,62.24,48.45,59.92Z"/><path d="M94.35,60.58c-5.26,4.53-10.51,9.09-15.8,13.59-.77.64-1.77,1.56-2.82-.13C83.06,70.92,87,63.39,94,60Z"/><path d="M84.82,71.39c3-2.53,6.66-3.4,10.35-4.22l.27.62L85.1,72.05Z"/><path d="M63,73.2l-10.08.88C54.84,72.14,60.57,71.42,63,73.2Z"/></svg>