<svg xmlns="http://www.w3.org/2000/svg" viewBox="0 0 150 150"><defs><style>.a{fill:#f9ca98;}.b{fill:#f5994e;}.c{fill:#f49448;}.d{fill:#f8a158;}.e{fill:#f8b577;}.f{fill:#fcddbc;}.g{fill:#f8b06f;}.h{fill:#ffefe2;}</style></defs><title>icon</title><path class="a" d="M111,86.83h0M95.31,51.17c-.73,0-3.68,3.49-7.23,4.56l.93,2.4a10.79,10.79,0,0,1,1.82-.57,15.45,15.45,0,0,1,2.67-.25h.22a.29.29,0,0,1,.16,0l.31.25.63.57a18.14,18.14,0,0,1,1.3,1.4,27.33,27.33,0,0,1,5.75-.71,13.94,13.94,0,0,1,2.53.21c2.58.44,4.52,1.75,4.9,4.14a5.36,5.36,0,0,1,.57.62c.33.41.81,1,1.28,1.69a13.5,13.5,0,0,1,2,5.24,9.55,9.55,0,0,1,.11,1.5h0a7.79,7.79,0,0,1-.94,3.83,9.2,9.2,0,0,1-4.64,3.86l-1.56.7c-1,.46-2.45,1.14-4.19,2a9.81,9.81,0,0,1-1.21.57l-1.19.53-2.52,1.14c-1.71.79-3.46,1.64-5.13,2.46-3.35,1.65-6.29,3.24-8.32,4.18a8.4,8.4,0,0,1-3,1,1.52,1.52,0,0,1-1-.34.12.12,0,0,0-.08,0,.25.25,0,0,0-.19.11,3.29,3.29,0,0,0-.43,1.43c.46-.1.94-.26,1.42-.34a1.8,1.8,0,0,1,.58-.11c1.5,0,2.57,2.07,4,2.33a3.06,3.06,0,0,0,.74.09,8.77,8.77,0,0,0,2.19-.41,8.23,8.23,0,0,1,2.13-.41,2,2,0,0,1,1.7.77.62.62,0,0,1-.14-.31h0c0-.15.15-.21.41-.21a12.1,12.1,0,0,1,2.81.67c1.5.5,3.1,1,3.1,1.32h0c0,.06-.08.11-.23.15a3.45,3.45,0,0,1,.62,1.89h0c-.1.51-.07,1.34-.31,1.55-1.91,1.64-2.35,4.8-3.46,7.23a20.2,20.2,0,0,0,4.23,1.29,63.71,63.71,0,0,1,7.54,2,20.35,20.35,0,0,0,4.85,1.82,10.57,10.57,0,0,0,2.22.23,11.29,11.29,0,0,0,3.81-.68c1.08-.7,1-2.09,2-2.87a21.64,21.64,0,0,0,4.83-5.56,27.55,27.55,0,0,0,1.54-2.71c.21-.44.57-1.09.88-1.76s.64-1.4.94-2.19a25.48,25.48,0,0,0,1.52-6,20.77,20.77,0,0,0,.17-2.6,19.13,19.13,0,0,0-1.09-6.43,18.45,18.45,0,0,0-1-2.3l-.3-.54a3.78,3.78,0,0,0-.28-.45l-.48-.64-.21-.26-.11-.06-.23-.13c-.16-.08-.31-.16-.48-.23a8.68,8.68,0,0,0-1.88-.69,19.57,19.57,0,0,0-3.55-.51c-2.12-.17-3.66-.22-3.86-.51a2,2,0,0,1-.1-.64h0a3.36,3.36,0,0,1,1.47-2.76c3.37-2.51,3-4.57,4.74-7.29.54-.7,1.83-1.21,2.38-1.91a11.41,11.41,0,0,0,1.4-3.29,5.13,5.13,0,0,0,.09-.93,2.49,2.49,0,0,0-.59-1.76,9.27,9.27,0,0,0-3.67-3.22,10.47,10.47,0,0,0-2.6-1c-.46-.12-.93-.22-1.38-.3a14.34,14.34,0,0,0-1.46-.11,59,59,0,0,0-7.27-1.5,45.68,45.68,0,0,0-7.92,2c-.54.17-1,.33-1.46.49l-.62.23-.29.11c-.06,0-.11.06-.16.06a.09.09,0,0,1-.08-.06c-.46-.44-.82-.73-1.13-1a3.83,3.83,0,0,1-.77-.84,4.17,4.17,0,0,1-.31-.6l-.15-.37a2.61,2.61,0,0,1-.22-.24.17.17,0,0,0-.1,0"/><path class="a" d="M89.58,59.61c.23.58.48,1.22.74,1.92l.65.09a17.69,17.69,0,0,0-1.39-2"/><path class="a" d="M82.37,66c-2.27.56-3.87,1.12-5.11,1.4a8.89,8.89,0,0,1-1.37.23,3.49,3.49,0,0,0,1.47.58,3.11,3.11,0,0,0,.43,0,6.58,6.58,0,0,0,3.63-1.52l1-.72"/><path class="a" d="M23.39,78.18a1.13,1.13,0,0,0-.14.58,1.63,1.63,0,0,0,.08.51,29.55,29.55,0,0,0,3.1,6.83c.33.54.68,1.05,1,1.55l1.17,1.57a30,30,0,0,0,2.72,3.1,10.07,10.07,0,0,0,7.44,3,29.09,29.09,0,0,0,3.91-.34,13.08,13.08,0,0,1,2-.14,23.5,23.5,0,0,1,4.21.43c-.58-.26-2.06-.92-3.75-1.54a24.17,24.17,0,0,1-2.43,1.11,29.7,29.7,0,0,1-3.93.35A12.15,12.15,0,0,1,37,95a9.76,9.76,0,0,1-5.59-2.8,29.89,29.89,0,0,1-2.72-3.09c-.83-1.1-1.54-2-2.21-3.09a29.58,29.58,0,0,1-3.11-6.83,1.69,1.69,0,0,1-.08-.52h0a1.27,1.27,0,0,1,.1-.5"/><path class="a" d="M89.07,80.27l-.31.3-.26.24-.21.14-.42.28-.81.55-1.52,1.06-.61.42c1-.57,2.22-1.3,3.67-2.24a2.78,2.78,0,0,0,.3-.46,3.09,3.09,0,0,1,.17-.29"/><path class="a" d="M77.58,82.86a5.16,5.16,0,0,0,1.26,1.63,3,3,0,0,0,.57.34l-.59-.62c-.43-.45-.88-1-1.24-1.35"/><path class="a" d="M70.19,87.85a1.44,1.44,0,0,0-.75.18,9.57,9.57,0,0,0,.78,1.24c1.32,1.36,3.09.83,4.76,1.31a11.39,11.39,0,0,0-1.69-1.48,5.86,5.86,0,0,0-3.1-1.25"/><path class="a" d="M64.32,88.85c-.07.1-.15.19-.22.28a2,2,0,0,1-1.47.88,1.31,1.31,0,0,1-.64-.17,4.64,4.64,0,0,0-1,.68c-.76.56-1.92,1.41-3.4,2.35a15.1,15.1,0,0,1-7.37,2.58H50c.61.13,1.23.28,1.86.43,3.37.83,7,2,10.56,3.13a75.67,75.67,0,0,0,8.9,2.8,14.76,14.76,0,0,0,3,.33c.3,0,.59,0,.86,0a45.9,45.9,0,0,1-6.61-7C67.25,93.33,66,91,64.41,89l-.09-.15"/><path class="a" d="M79.32,102.81a5.11,5.11,0,0,0-.48.29c.07.14.12.26.17.37a1.5,1.5,0,0,1,.07.2s0,.07,0,.07h0v0h0c.1.33.19.65.26,1a.44.44,0,0,1,0,.1.94.94,0,0,1,0-.12h0c0-.24,0-.67-.06-1.47,0-.12,0-.24,0-.38"/><path class="a" d="M79.08,103.67c.11.31.23.76.29,1-.07-.32-.16-.64-.26-1v0h0s0,0,0-.07m.25-.48c0,.8,0,1.23.06,1.47h0v-.06c0-.13,0-.5-.06-1.4"/><path class="a" d="M79.39,104.76h0v0"/><path class="a" d="M79.4,104.77v0h0"/><path class="b" d="M82.77,55.1a2.14,2.14,0,0,0-1.5.52,8.32,8.32,0,0,1-3,.7c-.38,0-.76,0-1.13,0a13.67,13.67,0,0,1-2-.14,16,16,0,0,0-2.31-.33,6.08,6.08,0,0,0-.71,0,8.88,8.88,0,0,0-3.44,1.45c-3,2-5.07,3.6-7.07,4.7a24.2,24.2,0,0,1-6.56,2.4,9.32,9.32,0,0,0-4.91,2.42c-1.36,1.16-2.54,2.51-4.06,3.75l-.2.16A23.33,23.33,0,0,0,43.83,73l-.91,1.08c-.22.29-.45.57-.67.85-.42.52-.81,1-1.21,1.41a8.73,8.73,0,0,1-1.41,1.16c-2.67.79-4.93,1.29-7.32,2a1.38,1.38,0,0,0-.55.88c0,.45-.79.38-1.07.56a12.08,12.08,0,0,1-3.64-1.75A8.48,8.48,0,0,0,24.1,77.7H24a.75.75,0,0,0-.65.48.72.72,0,0,1,.6-.4h.08A8.5,8.5,0,0,1,27,79.24,12.49,12.49,0,0,0,30.67,81c.28-.18,1-.1,1.08-.55a1.34,1.34,0,0,1,.55-.87c2.41-.67,4.68-1.18,7.37-2a7.9,7.9,0,0,0,.78-.58,7.08,7.08,0,0,0,.63-.59c.4-.41.79-.88,1.21-1.4l.66-.82q.44-.54.9-1.08A23.17,23.17,0,0,1,45.93,71l.28-.23c1.49-1.23,2.66-2.56,4-3.71a9.26,9.26,0,0,1,4.85-2.4,24.94,24.94,0,0,0,6.55-2.4c2-1.1,4-2.68,7-4.72A9.2,9.2,0,0,1,72.09,56a5.54,5.54,0,0,1,.78-.06,15.09,15.09,0,0,1,2.26.33,14.06,14.06,0,0,0,2,.14c.36,0,.72,0,1.08,0a8.2,8.2,0,0,0,3-.7,2.13,2.13,0,0,1,1.5-.53,9.08,9.08,0,0,1,2,.35,10,10,0,0,0,2.27.34,4.19,4.19,0,0,0,.93-.09l.16-.05h0a4.68,4.68,0,0,1-.91.09,9.85,9.85,0,0,1-2.31-.36,9.83,9.83,0,0,0-2.08-.35"/><path class="c" d="M82.67,55.18a2.13,2.13,0,0,0-1.5.53,8.2,8.2,0,0,1-3,.7c-.36,0-.72,0-1.08,0a14.06,14.06,0,0,1-2-.14A15.09,15.09,0,0,0,72.87,56a5.54,5.54,0,0,0-.78.06,9.2,9.2,0,0,0-3.45,1.48c-3,2-5,3.62-7,4.72a24.94,24.94,0,0,1-6.55,2.4A9.26,9.26,0,0,0,50.21,67c-1.34,1.15-2.51,2.48-4,3.71l-.28.23a23.17,23.17,0,0,0-2.08,2.16q-.47.54-.9,1.08l-.66.82c-.42.52-.81,1-1.21,1.4a7.08,7.08,0,0,1-.63.59,7.9,7.9,0,0,1-.78.58c-2.69.78-5,1.29-7.37,2a1.34,1.34,0,0,0-.55.87c-.05.45-.8.37-1.08.55A12.49,12.49,0,0,1,27,79.24a8.5,8.5,0,0,0-2.95-1.46H24a.72.72,0,0,0-.6.4,1.27,1.27,0,0,0-.1.5,1.69,1.69,0,0,0,.08.52A29.58,29.58,0,0,0,26.48,86c.67,1.09,1.38,2,2.21,3.09a29.89,29.89,0,0,0,2.72,3.09A9.76,9.76,0,0,0,37,95a12.15,12.15,0,0,0,1.81.13,29.7,29.7,0,0,0,3.93-.35,24.17,24.17,0,0,0,2.43-1.11l-.33-.12a16.38,16.38,0,0,0-5-1.17,4.23,4.23,0,0,0-1.73.32,16.9,16.9,0,0,1-2.33-.84,20.39,20.39,0,0,1-4.42-2.57c-.7-.55-1.31-1-1.82-1.52a7.05,7.05,0,0,1-1.11-1.39,1.61,1.61,0,0,1-.23-.72h0c0-.4.33-.65,1.09-.75l.39-.19.92-.52c.72-.43,1.54-1,2.13-1.28h.09c.23,0,.9,0,1.88-.11a19.86,19.86,0,0,0,4.71-1.1,22.33,22.33,0,0,0,5.29-3c1.64-1.17,3.7-3,5.33-4.09a9.79,9.79,0,0,1,4.24-1.9.82.82,0,0,1,.33,0l4.13-1.68c2.51-1,5.87-2.15,9.52-3.33l2.8-.91a7.17,7.17,0,0,1,2.18-.47,2.84,2.84,0,0,1,.66.08,5.54,5.54,0,0,1,1.89,1.09l.14.09a8.89,8.89,0,0,0,1.37-.23c1.24-.28,2.84-.84,5.11-1.4a53.88,53.88,0,0,0,4.89-4.56,9.38,9.38,0,0,1,1.17-.06,17,17,0,0,1,1.73.09l.16,0c-.26-.7-.51-1.34-.74-1.92a16,16,0,0,0-1.1-1.24h0a5.13,5.13,0,0,1,.53-.24l-.93-2.4-.16.05a4.19,4.19,0,0,1-.93.09,10,10,0,0,1-2.27-.34,9.08,9.08,0,0,0-2-.35"/><path class="d" d="M88.43,61.42a9.38,9.38,0,0,0-1.17.06A53.88,53.88,0,0,1,82.37,66l-1,.72a6.58,6.58,0,0,1-3.63,1.52,3.11,3.11,0,0,1-.43,0,3.65,3.65,0,0,1-1.61-.67,5.54,5.54,0,0,0-1.89-1.09,2.84,2.84,0,0,0-.66-.08,7.17,7.17,0,0,0-2.18.47l-2.8.91c-3.65,1.18-7,2.34-9.52,3.33L54.57,72.8a.82.82,0,0,0-.33,0A9.79,9.79,0,0,0,50,74.65c-1.63,1.07-3.69,2.92-5.33,4.09a22.33,22.33,0,0,1-5.29,3,19.86,19.86,0,0,1-4.71,1.1c-1,.1-1.65.11-1.88.11H32.7c-.59.3-1.41.85-2.13,1.28l-.92.52-.39.19c-.76.1-1.09.35-1.09.75a1.61,1.61,0,0,0,.23.72,7.05,7.05,0,0,0,1.11,1.39c.51.49,1.12,1,1.82,1.52a20.39,20.39,0,0,0,4.42,2.57,16.9,16.9,0,0,0,2.33.84,4.23,4.23,0,0,1,1.73-.32,16.38,16.38,0,0,1,5,1.17c1.83.66,3.46,1.38,4.08,1.66l.26.12a3.83,3.83,0,0,0,.86.1h.16a15.1,15.1,0,0,0,7.37-2.58c1.48-.94,2.64-1.79,3.4-2.35a4.64,4.64,0,0,1,1-.68,1.31,1.31,0,0,0,.64.17,2,2,0,0,0,1.47-.88c.07-.09.15-.18.22-.28a3.81,3.81,0,0,1-.73-1.72.38.38,0,0,1,0-.1h0c0-.4.65-.19,1-.39h0c.14-.67,1-.44,1.61-.65v0a14.33,14.33,0,0,1,2.73-4.53,9.7,9.7,0,0,1,4.6-3,3,3,0,0,1,.78-.11,1.79,1.79,0,0,1,1.29.48,4.24,4.24,0,0,1,1,2s.28.67.65,1.47c.1.2.2.4.31.6.36.39.81.9,1.24,1.35l.59.62a2.38,2.38,0,0,0,1,.18,4.46,4.46,0,0,0,1.4-.26,17.32,17.32,0,0,0,3.16-1.49l.61-.42,1.52-1.06.81-.55.42-.28.21-.14.26-.24.31-.3.67-1.22a31.79,31.79,0,0,0,2.22-5,14,14,0,0,0,.65-3,8.25,8.25,0,0,0,0-.86q0-.33,0-.66l0-.37v-.53q0-.54-.06-1.11c-.05-.77-.15-1.6-.29-2.48-.07-.44-.16-.9-.25-1.37a8,8,0,0,0-.47-1.08c-.16-.33-.34-.66-.53-1l-.65-.09-.16,0a17,17,0,0,0-1.73-.09"/><path class="e" d="M93.72,57.31H93.5a15.45,15.45,0,0,0-2.67.25,10.79,10.79,0,0,0-1.82.57,5.13,5.13,0,0,0-.53.24,16,16,0,0,1,1.1,1.24,17.69,17.69,0,0,1,1.39,2c.19.34.37.67.53,1A8,8,0,0,1,92,63.7c.09.47.18.93.25,1.37.14.88.24,1.71.29,2.48q0,.57.06,1.11v.53l0,.37q0,.33,0,.66h0a8.25,8.25,0,0,1,0,.86,14,14,0,0,1-.65,3,31.79,31.79,0,0,1-2.22,5l-.67,1.22a3.09,3.09,0,0,0-.17.29,2.78,2.78,0,0,1-.3.46c-1.45.94-2.65,1.67-3.67,2.24a17.32,17.32,0,0,1-3.16,1.49,4.46,4.46,0,0,1-1.4.26,2.38,2.38,0,0,1-1-.18,3,3,0,0,1-.57-.34,5.16,5.16,0,0,1-1.26-1.63c-.11-.2-.21-.4-.31-.6-.37-.8-.65-1.47-.65-1.47a4.24,4.24,0,0,0-1-2,1.79,1.79,0,0,0-1.29-.48,3,3,0,0,0-.78.11,9.7,9.7,0,0,0-4.6,3A14.33,14.33,0,0,0,66.19,86v0a1,1,0,0,0,.28-.13,1.43,1.43,0,0,1,.69-.21c1,0,1.65,1.25,2.29,2.38a1.44,1.44,0,0,1,.75-.18,5.86,5.86,0,0,1,3.1,1.25A11.39,11.39,0,0,1,75,90.58l.12,0a5.86,5.86,0,0,1,1.65,2.21,1.34,1.34,0,0,0,1.34,1,4,4,0,0,0,.75-.09,3.29,3.29,0,0,1,.43-1.43.25.25,0,0,1,.19-.11.12.12,0,0,1,.08,0,1.52,1.52,0,0,0,1,.34,8.4,8.4,0,0,0,3-1c2-.94,5-2.53,8.32-4.18,1.67-.82,3.42-1.67,5.13-2.46l2.52-1.14,1.19-.53a9.81,9.81,0,0,0,1.21-.57c1.74-.89,3.18-1.57,4.19-2l1.56-.7a9.2,9.2,0,0,0,4.64-3.86,7.79,7.79,0,0,0,.94-3.83,9.55,9.55,0,0,0-.11-1.5,13.5,13.5,0,0,0-2-5.24c-.47-.7-1-1.28-1.28-1.69a5.36,5.36,0,0,0-.57-.62c-.38-2.39-2.32-3.7-4.9-4.14a13.94,13.94,0,0,0-2.53-.21,27.33,27.33,0,0,0-5.75.71,18.14,18.14,0,0,0-1.3-1.4l-.63-.57-.31-.25a.29.29,0,0,0-.16,0"/><path class="f" d="M118.15,46.83h-.42c-4.6.73-9.33,2.53-13.34,4a75,75,0,0,1,11.4,2,14.34,14.34,0,0,1,1.46.11c.45.08.92.18,1.38.3a10.47,10.47,0,0,1,2.6,1,9.27,9.27,0,0,1,3.67,3.22,2.49,2.49,0,0,1,.59,1.76h0a5.13,5.13,0,0,1-.09.93A11.41,11.41,0,0,1,124,63.5c-.55.7-1.84,1.21-2.38,1.91-1.74,2.72-1.37,4.78-4.74,7.29a3.36,3.36,0,0,0-1.47,2.76,2,2,0,0,0,.1.64c.2.29,1.74.34,3.86.51a19.57,19.57,0,0,1,3.55.51,8.68,8.68,0,0,1,1.88.69c.17.07.32.15.48.23l.23.13.11.06.21.26.48.64a3.78,3.78,0,0,1,.28.45l.3.54a18.45,18.45,0,0,1,1,2.3A19.13,19.13,0,0,1,129,88.85h0a20.77,20.77,0,0,1-.17,2.6,25.48,25.48,0,0,1-1.52,6c-.3.79-.62,1.52-.94,2.19s-.67,1.32-.88,1.76a27.55,27.55,0,0,1-1.54,2.71,21.64,21.64,0,0,1-4.83,5.56c-1,.78-1,2.17-2,2.87a11.29,11.29,0,0,1-3.81.68,10.57,10.57,0,0,1-2.22-.23,20.35,20.35,0,0,1-4.85-1.82,63.71,63.71,0,0,0-7.54-2,20.2,20.2,0,0,1-4.23-1.29h0c1.11-2.43,1.55-5.59,3.46-7.23.24-.21.21-1,.31-1.55a3.45,3.45,0,0,0-.62-1.89h0c.15,0,.23-.09.23-.15,0-.29-1.6-.82-3.1-1.32a12.1,12.1,0,0,0-2.81-.67c-.26,0-.41.06-.41.21a.62.62,0,0,0,.14.31h0a2,2,0,0,0-1.7-.77,8.23,8.23,0,0,0-2.13.41,8.77,8.77,0,0,1-2.19.41,3.06,3.06,0,0,1-.74-.09c-1.46-.26-2.53-2.33-4-2.33a1.8,1.8,0,0,0-.58.11c-.48.08-1,.24-1.42.34a4,4,0,0,1-.75.09,1.34,1.34,0,0,1-1.34-1,5.86,5.86,0,0,0-1.65-2.21l-.12,0c-1.67-.48-3.44,0-4.76-1.31-.91-1.14-1.71-3.62-3.07-3.62a1.43,1.43,0,0,0-.69.21c-.64.43-1.73,0-1.89.78.46.32.86,1.09,1.45,1.54,1.08,1,2.37,1.13,3.25,2.39S71,93.12,72,94.12a5.77,5.77,0,0,0,2,1.14A22.63,22.63,0,0,0,81.08,98a1.62,1.62,0,0,1,1.23-.68c.88,0,1.66.92,2.43,1.22.33.18.55.7.9,1.09,1,.57,2.51.18,3,1.78A21,21,0,0,0,93,111.07a14.38,14.38,0,0,0,2.94,2.39,25.58,25.58,0,0,0,5.79,2.68,31,31,0,0,0,7,1.46c.84.07,1.64.1,2.39.1a21,21,0,0,0,3.13-.21,22.3,22.3,0,0,0,9.57-4,41.91,41.91,0,0,0,4.52-3.62c.73-.68,1.45-1.33,2.16-2.07l1.06-1.08.53-.54.68-.75s0,0,0,0,.05,0,.05.16h0v.1a4.72,4.72,0,0,1-.08.48c0,.11-.07.24-.1.36L133,106a31.06,31.06,0,0,0,2-2.9c.15-.45.61-1.48,1-2.69.21-.58.42-1.22.59-1.79a13.78,13.78,0,0,0,.36-1.38,36.45,36.45,0,0,0,2.08-6.66,31.73,31.73,0,0,0,.65-6.31c0-.86,0-1.77-.12-2.72a26.09,26.09,0,0,0-.56-4.26c-.15-.73-.34-1.43-.55-2.16-.11-.36-.23-.72-.35-1.09l-.19-.54-.11-.35c-.15-.46-.31-.92-.48-1.39a3.05,3.05,0,0,1-.11-.29h0v-.29a2.62,2.62,0,0,0,0-.28c0-.15,0-.31,0-.46a1.19,1.19,0,0,1,0-.33h0c0-.26,0-.55,0-.81a2,2,0,0,0,0-.36c-.05-.47-.12-.93-.2-1.38a20.22,20.22,0,0,0-1.67-5c-1.51-3.27-3.81-6.54-5.32-10.23A11.94,11.94,0,0,0,128.24,50a8.31,8.31,0,0,0-3.33-1.89,36,36,0,0,1-3.51-.88,16.52,16.52,0,0,0-3.25-.41"/><path class="g" d="M79.33,102.81h0v.38c0,.8,0,1.23.06,1.47v0c0-.24,0-.67-.06-1.47v-.38"/><path class="g" d="M79.39,104.68c0,.14,0,.19,0,.19s0-.05,0-.19"/><path class="h" d="M64.57,86.64c-.34.2-1,0-1,.39a.38.38,0,0,0,0,.1A4.43,4.43,0,0,0,64.41,89c1.59,2,2.84,4.33,4.18,6.06,3.21,3.93,5.92,7.09,9,8.49a.53.53,0,0,0,.25,0,2.14,2.14,0,0,0,1-.5h0a3.57,3.57,0,0,1,.62-.35,1.92,1.92,0,0,1,.85-.2,6.27,6.27,0,0,1,1.4.26,4.29,4.29,0,0,0,.83.1,3,3,0,0,0,1.81-.66.42.42,0,0,1,.29-.11.69.69,0,0,1,.53.36,33.13,33.13,0,0,0,7.18,12.83,13.48,13.48,0,0,0,3.36,2.51c.41.23.84.45,1.28.68s1,.44,1.58.65a31.48,31.48,0,0,0,3.44,1.12,34.29,34.29,0,0,0,7.18,1.13c.53,0,1.06,0,1.56,0s1,0,1.49,0c.9,0,1.64-.11,2.14-.17a26.44,26.44,0,0,0,10.45-4.34,22.24,22.24,0,0,0,5.84-5.93,13.41,13.41,0,0,0,1.91-4.18c0-.21.13-.49.18-.69a4.72,4.72,0,0,0,.08-.48v-.1c0-.11,0-.16-.05-.16s0,0,0,0l-.68.75-.53.54-1.06,1.08c-.71.74-1.43,1.39-2.16,2.07a41.91,41.91,0,0,1-4.52,3.62,22.3,22.3,0,0,1-9.57,4,21,21,0,0,1-3.13.21c-.75,0-1.55,0-2.39-.1a31,31,0,0,1-7-1.46,25.58,25.58,0,0,1-5.79-2.68A14.38,14.38,0,0,1,93,111.07a21,21,0,0,1-4.38-9.71c-.44-1.6-1.92-1.21-3-1.78-.35-.39-.57-.91-.9-1.09-.77-.3-1.55-1.22-2.43-1.22a1.62,1.62,0,0,0-1.23.68,22.63,22.63,0,0,1-7.16-2.69,5.77,5.77,0,0,1-2-1.14c-1-1-1.7-2.43-2.69-3.55S67.1,89.23,66,88.18c-.59-.45-1-1.22-1.45-1.54h0"/><path d="M93.69,88.07,93,85.37l-4.87,1.11-1-2c-.18-1.08,1.48-.76,2.35-1.66L87,78.6c-.58,1.47-.63,2.81-1.94,3.61-.44.27-.35,1.51-.4,2.31s.1,1.64,0,2.45c-.1,1.75-1.48,2.52-2.93,1.53a2.28,2.28,0,0,0-2.3-.37c-2.67,1.08-5.47.73-8.23.85-.45,0-1-.21-1.34,0-1.84.89-3.41-.43-5.11-.61-.36,0-.77-.79-.93-1.29-.43-1.31-.74-2.67-1.1-4-1.73.81-3.16,1.6-4.68,2.15s-2.29.27-3.23-1.12c-.75-1.11-1.52-2.22-2.25-3.35s-.94-2.07.35-2.91c.23-.16.33-.5.52-.73.43-.5.89-1.24,1.64-.69s.2,1.11-.17,1.72A12.79,12.79,0,0,0,54,80.37l2.74,4.21c1.22-.68,2.36-1.24,3.41-1.93,1.54-1,1.61-1.49.7-3.11-.25-.44-.46-.91-.76-1.52l2.82-1c.73.6,1.53,1.69,2.55,2s2.35-.19,3.41-.32c.59-1.71,1.12-3.25,1.71-5-.94-.37-2-.74-3-1.2-2.06-.94-4,.07-5.58,2.06a5.38,5.38,0,0,1-2.51,2.08A2.76,2.76,0,0,1,57,76.2c-1-.69-2.06-1.19-3-1.86-.52-.36-1.2-.84-1.31-1.37-.38-1.67-.52-3.39-.77-5.24h2.57l1-2c1.73-.88,2.89.36,4.38,1.43l1.05-1.48A16.3,16.3,0,0,0,68.15,71c-.11-1.27-.22-2.28-.27-3.29a2.53,2.53,0,0,1,1.58-2.55c-.22-2-1.76-2.72-3.29-3.29-1.11-.41-2.14.64-3.13,2.65-.21.44-.89,1-1.26.94-.79-.13-2.06.52-2.35-1.13A9.8,9.8,0,0,0,65,59.9a10.06,10.06,0,0,1,4.16,2,4.67,4.67,0,0,1,1,1.9,1.65,1.65,0,0,0,2.46,1c.79-.37,1.56-.76,2.32-1.13-.3-1.49-.63-3.07-1-4.87a5,5,0,0,0-1.27-.31c-2.16,0-2.7.78-1.9,2.79a11.87,11.87,0,0,1,.8,2.21c-1-2-3.73-3.08-3.14-5.91,1.41-.17,2.72-.42,4-.48,2.37-.1,2.78.41,3.08,2.76a47.23,47.23,0,0,0,1.17,4.91l-2,.77c.72,1.3,1.4,2.54,2.09,3.76.9,1.59.48,2.74-1.24,3.26a14.72,14.72,0,0,1-1.71.33c-.7-1.76-.7-1.76,1.5-2.34-1-3.92-1.76-4.42-5.51-3.63-.1.35-.23.76-.34,1.18s-.14.73-.24,1.27A3.48,3.48,0,0,1,72,72.32a4.23,4.23,0,0,0,2,2.55c.93.64,1.87,1.26,2.81,1.88,1.53,1,1.6,1.15,1,2.94-.26.83-.61,1.64-1.05,2.82.69-.21,1.26-.23,1.35-.45a10.53,10.53,0,0,0,.55-2.16c.29-1.73.37-1.85,2.21-2.54L81.2,73c-.94-.93-2.38.27-3-1.49l4.4-.9c.58,2.48-.28,4.68-.86,6.94,2.18.58,3.84-.35,5.55-.68.91-.18.9-1.61,0-2.42-.69-.64-1.47-1.19-2.27-1.83,1-1.25,1.92-.5,2.43,0a3.28,3.28,0,0,0,4.23.64,1.69,1.69,0,0,1,2.24.43,21.1,21.1,0,0,0,1.91,2.19,28.75,28.75,0,0,0,2.52,1.86c-.76,0-1.19.13-1.48,0a9.93,9.93,0,0,1-2.67-1.66c-1.49-1.6-3-1.47-4.61-.36-.72,2.21-1.18,4.4.77,6.47l1.13-.83,2.42,1c-.18,1.26-.75,2.66,1,3.82l4.66-.46C98.59,87,96.86,87.61,93.69,88.07Zm-10.48-.95.37-2.24-7.47-1.07-1.23,1.42L74.43,85l2.43-6.08c-1.21-1.56-2.56-2.55-4.55-2.25-.1-.26-.19-.46-.26-.67s-.15-.51-.36-1.24a11.58,11.58,0,0,0-.92,2.44A2.89,2.89,0,0,1,68.12,80a2.71,2.71,0,0,0,0,.43h2.27c-.88,2.08,2.42,2.31,1.73,4.63-2.67-2.3-5.43-3.95-9-4.07l-.21.73,3.17,2.81c-.44.49-1,.93-1,1.14a2.12,2.12,0,0,0,1,1.26,3.67,3.67,0,0,0,1.76-.09c1.9-.33,3.79-.69,5.81-1.06L73,87.43l4.13.44c.24-1.11.91-1.47,2.07-1.21A36.87,36.87,0,0,0,83.21,87.12ZM54.42,72.28c1,.78,2,1.44,2.95,2.2a3.41,3.41,0,0,0,3.39.81q.72-2.28,1.46-4.64c-1.92-1.48-3.54-3.15-5.87-3.71ZM83.09,83a21.41,21.41,0,0,0,.6-2.59c.1-.77-.75-1.43-1.27-1-1.14.94-3,1.32-2.88,3.59Z"/><path d="M14.68,88.2c4.25-2,8.59-3.16,13.26-1.31.31,1.86-.87,2.72-2.17,3.3a7.54,7.54,0,0,0-3.6,3.21,3.5,3.5,0,0,0,3,.9C27.8,94.17,30.42,94,33,94a7.41,7.41,0,0,1,2.86.4c2.34,1,4.55,2.27,7.68,2.06-1.87,1-3,1.35-4.6.51-3.45-1.84-7-1.89-10.74-1.44a30.51,30.51,0,0,1-3.83.14,7.85,7.85,0,0,1-2-.23c-1.89-.51-2.36-1.77-1.26-3.37a17.74,17.74,0,0,1,1.71-1.85c-1.88-.86-3.6.41-5.79,0,.49-.58.71-1.11,1-1.17,1.47-.25,3-.37,4.45-.57a10.42,10.42,0,0,0,2.51-.59C21.5,86.42,18.16,88.31,14.68,88.2Z"/><path d="M52.49,88.58l5.59-1.45c.31.58.74,1.39,1.19,2.26l3.38.15c-1,1.17-2.24,1.19-3.28,1.47-1.52.41-1.77-1-2.39-2-2.44-.2-4.56,1.16-7,1.66-.65-.69-1.22-1.78-2.08-2.08s-2,.19-3,.31a18.13,18.13,0,0,0-2.22.21,3.42,3.42,0,0,1-3.54-1.41,28.72,28.72,0,0,0-2.3-2.38c-1.21-1.08-1.14-1.59.36-2.24a6.59,6.59,0,0,0,1-.75,3.25,3.25,0,0,1,4.06.29l-3.77,1.47c.49.73.75,1.15,1,1.55C41.28,88,42,88.18,44.64,87.05c1.7-.72,3.38-1.48,5.4-2.36,1,.17.51,1.39.56,2.35L56,85.77C55.38,87.78,53.32,87.05,52.49,88.58Z"/><path d="M116.83,92.5a14.92,14.92,0,0,1-6.22,2.27c-1.43.24-2-.76-2.39-1.87-2.43.17-4.75.37-7.07.49-5.85.3-11.7.55-17.55.87-1.57.08-3.12.39-4.69.52-2.54.2-5.06.45-7.55-.62a4.66,4.66,0,0,0-2.62.15c-2.67.64-5.32,1.38-8.35,2.18.36-.58.48-1.07.74-1.17a26,26,0,0,1,3-.85,11,11,0,0,0,4.38-1.58c.66-.49,2.06-.32,3,0a17.43,17.43,0,0,0,8,.65c2.59-.36,5.23-.42,7.86-.58l21.55-1.24,1.68-.08.1,1.92Z"/><path d="M146.33,83.66c-8.54,2.31-17.2.61-25.76.64-1-1.73.78-2,1.3-3-1.24-1.23-3-1.08-4.5-1.58s-3.13-.78-4.68-1.16c.11-1.12.85-1,1.37-.86,2.91.72,5.81,1.47,8.7,2.3,1.13.32,1.23,1.12.36,2a7,7,0,0,1-.94.73A108.48,108.48,0,0,0,146.33,83.66Z"/><path d="M50.1,80.64l1.18,1.81-2.66,1.32-.12-1.92-1.89.26c-.13-.12-.29-.19-.33-.31-.36-.91-.72-1.81-1-2.73a17.43,17.43,0,0,1-.82-2.79c-.21-1.25-.46-2.89.92-3.39s2.88-.92,4.17.42c.26.28.79.3,1.19.45.76.28,1.51.58,2.33.9L52.68,77l-1.8-1.58-.58,1.23c-1.43-.7-2.24-2.57-4.22-2.21-.91,2.43.71,4.07,1.46,6.07Z"/><path d="M106.75,82.24l1.83.69a13.55,13.55,0,0,1-3.29,1.34,3,3,0,0,1-2.36-.87,8.35,8.35,0,0,1-2-4.32,4.42,4.42,0,0,0,2.7-.45c1.88-1.19,3.5.1,3.27,2.32C106.82,81.32,106.8,81.69,106.75,82.24Zm-4.06-2c1.13,3.08,1.13,3.08,3.27,2.18-.19-.76-.15-1.89-.67-2.29S103.73,80.14,102.69,80.22Z"/><path d="M101.86,84.32,99,84l-1.28-2.37c-.74-1.36-1-1.51-2.51-1.14a6.1,6.1,0,0,1-1.28.35c-.29,0-.58-.32-.87-.49.17-.28.3-.75.53-.81a22.85,22.85,0,0,1,3.08-.56c1.13-.13,1.6,1,2.39,1.38C100.64,81.17,100.92,82.71,101.86,84.32Z"/><path d="M75.59,66.58c1.77-1,3.28-1.93,4.86-2.72.3-.14,1.2.17,1.25.41.61,2.51,2.39,4.21,4.31,6-1.59,0-1.59,0-5.74-4.83-1.66-.16-2.21,2.08-3.91,1.77C76.18,67.2,76,67,75.59,66.58Z"/><path d="M35.64,89.3H32.39a3.06,3.06,0,0,1-.4-1.13c0-1,.69-1.3,1.47-.69C34.08,88,34.65,88.47,35.64,89.3Z"/><path d="M117.17,84.37a10.82,10.82,0,0,1-2.3.33c-.28,0-.52-.7-.77-1.07.36-.16.74-.5,1.07-.45a12.34,12.34,0,0,1,2,.64Z"/><path d="M65,75.82c-1-1.17-.35-1.67.34-2.36C65.91,74.4,65.28,75,65,75.82Z"/></svg>