<svg xmlns="http://www.w3.org/2000/svg" viewBox="0 0 150 150"><defs><style>.a{fill:#bcab9e;}.b{fill:#b19d8f;}.c{fill:#b19c8f;}.d{fill:#816654;}.e{fill:#7e614e;}.f{fill:#89715d;}.g{fill:#a48c7d;}.h{fill:#d2c8be;}.i{fill:#b29e8f;}.j{fill:#9d8575;}.k{fill:#ece8e4;}</style></defs><title>icon</title><path class="a" d="M59.89,80.86h0m0,0h0M88.73,24.16c-1.93,0-3.77,1.32-5.75,2l-.52,0a11.16,11.16,0,0,1-2.86-.48,2.39,2.39,0,0,0-.77-.13c-1.51,0-2.58,1.63-3.73,2.91-1.45,2.13-4.81,1.72-6.76,3.46a10.86,10.86,0,0,0-2.72,4.15c-.7,1.45-1.41,2.72-2.93,3.13l.24,0c.16,0,.23.05.23.15h0c0,.45-1.39,1.78-2.82,3s-2.92,2.51-3.29,2.51c0,0-.08,0-.08-.1h0a.7.7,0,0,1,.06-.23.54.54,0,0,1-.3.06,3.83,3.83,0,0,1-1.71-.5c-.36-.38-1.07-.82-1.09-1.15-.11-2.66-2.56-4.75-4-7h0a34.8,34.8,0,0,0-3.41,2.68c-1.8,1.43-3.92,3-5.69,3.54-2.83.63-5.74,1.06-7.7,3.35a.88.88,0,0,0-.05.33c0,.58.44,1.28.44,1.87h0a1,1,0,0,1-.05.3,6.22,6.22,0,0,0-.39,1.49c-.16.82-.37,2-.55,3.27a70.44,70.44,0,0,0-.58,9v.32h0v.15a79.41,79.41,0,0,0,.62,9.29c.17,1.35.31,2.52.42,3.44,0,.47.07.88.07,1.2h0a2.59,2.59,0,0,1-.08.72,11,11,0,0,1-1.78,2.43,2.81,2.81,0,0,1-1.76,1,1.07,1.07,0,0,1-.35-.06,4.44,4.44,0,0,0-.63,0A5.3,5.3,0,0,0,24.76,82c-1.19,1.14-2.17,2.71-3.58,3.72a1,1,0,0,1-.46.1,3.18,3.18,0,0,1-.88-.17,3.56,3.56,0,0,0-.88-.16,1,1,0,0,0-.45.09,9.55,9.55,0,0,0-2.74,3.62A9.83,9.83,0,0,0,14.92,93a7.19,7.19,0,0,0,.15,1.44A27.65,27.65,0,0,0,18,104.51a29.29,29.29,0,0,0,2.81,4.54,26.6,26.6,0,0,0,3.41,3.69A48.29,48.29,0,0,0,33.52,121c.31.13.63.24.94.36a30.69,30.69,0,0,0,4.69,1.23,27.6,27.6,0,0,0,4.43.42l1,0a23.16,23.16,0,0,0,3.71-.28,17.22,17.22,0,0,1,2.14-.27,3.15,3.15,0,0,1,1.46.35h.08c.46,0,1.48-.94,3-2.12a30.22,30.22,0,0,1,6-3.8l-1.73-1.55-.11,0a19.19,19.19,0,0,1-2.24,1,21.89,21.89,0,0,1-7.32,1.3c-.3,0-.6,0-.9,0a21.11,21.11,0,0,1-5.34-.88,20.85,20.85,0,0,1-2.73-1.07,15.31,15.31,0,0,1-2.58-1.5,15.77,15.77,0,0,1-2.32-1.92A16.49,16.49,0,0,1,33.7,110a12.21,12.21,0,0,1-2-5.41s-.26-.55-.63-1.51c-.19-.47-.41-1-.63-1.71S30,100,29.86,99.18a25.35,25.35,0,0,1-.47-2.53c-.1-.9-.17-1.83-.21-2.77,0-.22,0-.44,0-.66h0a17.39,17.39,0,0,1,.13-2.16,19.5,19.5,0,0,1,.42-2.7c.84-3.48,2.5-6.16,4.31-7.43a4.64,4.64,0,0,1,2.71-1,4.16,4.16,0,0,1,2.62,1s.39.33,1.17.89a26.29,26.29,0,0,0,3.27,2.07,16.38,16.38,0,0,0,2.3,1,15.69,15.69,0,0,0,2.62.75c.46.08.92.16,1.37.21a13.79,13.79,0,0,0,1.43.06h.2a10.58,10.58,0,0,0,2.53-.35,13.16,13.16,0,0,0,7.5-5.91c1.5-2.29,2.27-4.24,2.81-4.76h0s.07,0,.07-.27c0-.07,0-.15,0-.26a4,4,0,0,0-.07-.48,3.16,3.16,0,0,1-.09-.64h0v-.08a15.33,15.33,0,0,0-.31-2.38h0a5.08,5.08,0,0,1,.11-.69,3.18,3.18,0,0,1,.59-1.3,2.63,2.63,0,0,1,2.17-1,6.56,6.56,0,0,1,2.67.68,12.89,12.89,0,0,0,1.36.06,19.36,19.36,0,0,0,4.49-.53c3.22-.7,7.2-2.52,8.48-4.7,0,0,.19,0,.52,0,1.12,0,3.76-.15,5.1-1.46.5-.93.78-1.48.78-1.48h0A2.57,2.57,0,0,1,89.62,62c-.28.53-.64,1.18-1.05,1.92,3.31-4.39,6.47-8.1,8.25-8.1a1,1,0,0,1,.36.06s2.11-1.5,4.64-3a25,25,0,0,1,6.56-3.11h-.25c-.5,0-1,0-1.54-.07a37.07,37.07,0,0,1-10-2.59c-3.75-1.59-8.42-4.56-11.64-4.56a3.24,3.24,0,0,0-2.63,1.13c-2.21,3-3.15,7.36-6,10.24a13.86,13.86,0,0,0,1.88-2.1,13.13,13.13,0,0,0,2.23-4.7,13.13,13.13,0,0,1-2.23,4.7,13.86,13.86,0,0,1-1.88,2.1h0a13.86,13.86,0,0,0,1.88-2.1,13.13,13.13,0,0,0,2.23-4.7,13.13,13.13,0,0,1-2.23,4.7,13.86,13.86,0,0,1-1.88,2.1h0a13.86,13.86,0,0,0,1.88-2.1,13.13,13.13,0,0,0,2.23-4.7,13.13,13.13,0,0,1-2.23,4.7,13.86,13.86,0,0,1-1.88,2.1,9.29,9.29,0,0,1-2.86,2,11.88,11.88,0,0,1-5.18,1.45s-1.63.48-3.12.86c-.76.21-1.46.35-2,.53s-.9.32-1,.51h0a8.48,8.48,0,0,1-1.5-.29h0l-.11.06-.41.26a3.31,3.31,0,0,0-.39.3.93.93,0,0,0-.23.34l0,.15a2.06,2.06,0,0,0,0,.28l.74,1.59c.17.37.33.73.46,1.07.07.17.13.33.2.49s.09.23.14.33c.17.43.29.79.37,1,0,0,.75,2.15,2.08,6a4,4,0,0,0,0-.45h0v0h0v.07l0,.15h0c0,.11,0,.23.07.34h0c0,.18.13.49.21.74l.16.47h0l-.12-.34h0a.5.5,0,0,1,0-.13l-.29-.83v.29h0c0,.32,0,.74-.08,1.37a20.49,20.49,0,0,1-.51,2.66v0a20.49,20.49,0,0,0,.51-2.66c.06-.63.08-1.05.08-1.37v-.29c-1.33-3.87-2.08-6-2.08-6-.08-.23-.2-.59-.37-1-.05-.1-.09-.21-.14-.33s-.13-.32-.2-.49c-.13-.34-.29-.7-.46-1.07l-.74-1.59a2.06,2.06,0,0,1,0-.28h0l0-.15a.93.93,0,0,1,.23-.34,3.31,3.31,0,0,1,.39-.3l.41-.26.11-.06h0a8.48,8.48,0,0,0,1.5.29h0c.08-.2.46-.38,1-.51s1.25-.32,2-.53c1.49-.38,3.12-.86,3.12-.86a11.88,11.88,0,0,0,5.18-1.45,6.72,6.72,0,0,1-.67.28l-.79.25h0a16.65,16.65,0,0,1,.75-3.94c1.65-2.57,2.88-4.48,3.71-5.94a16,16,0,0,0,1.49-3.19,4,4,0,0,0,.17-1.05,4.79,4.79,0,0,0-.07-.57h0s0-.07.1-.07a.93.93,0,0,1,.6-.19,5,5,0,0,1,1.67.5,5.17,5.17,0,0,0,1.84.5,1.76,1.76,0,0,0,.46-.06c1.9-.84,2.81-3.18,3.21-5.26A20,20,0,0,1,89.51,29a8.56,8.56,0,0,1,3.6-2.68c-1.1-.52-2.23-1.59-3.36-2a4,4,0,0,0-1-.13"/><path class="b" d="M63.8,71.68a.5.5,0,0,0,0,.13h0a.5.5,0,0,1,0-.13h0m-.29-.54c0,.32,0,.74-.08,1.37h0a18,18,0,0,1-.5,2.61v0a20.49,20.49,0,0,0,.51-2.66c.06-.63.08-1.05.08-1.37h0m0-.29h0l.29.83h0l-.29-.83m0-.45h0a4,4,0,0,1,0,.45h0a4,4,0,0,0,0-.45m0,0v0m0,0h0m-4-10.32h0a2.06,2.06,0,0,0,0,.28l.74,1.59c.17.37.33.73.46,1.07.07.17.13.33.2.49s.09.23.14.33c.17.43.29.79.37,1,0,0,.75,2.15,2.08,6v.29h0v-.29h0c-1.33-3.87-2.08-6-2.08-6-.08-.23-.2-.59-.37-1h0c-.05-.1-.09-.21-.14-.33h0c-.07-.16-.13-.32-.2-.49h0c-.13-.34-.29-.7-.46-1.07h0c-.23-.48-.47-1-.72-1.54l0-.05h0a2.06,2.06,0,0,1,0-.28h0m1.06-1h0l-.41.26h0a3.31,3.31,0,0,0-.39.3.93.93,0,0,0-.23.34l0,.15h0l0-.15a.93.93,0,0,1,.23-.34,3.31,3.31,0,0,1,.39-.3l.41-.26m.11-.06h0m12.79-3.06h0a11.88,11.88,0,0,1-5.18,1.45s-1.63.48-3.12.86h0c-.75.2-1.43.34-2,.52h0c-.52.13-.9.32-1,.51h0c.08-.19.46-.38,1-.51s1.25-.32,2-.53c1.49-.38,3.12-.86,3.12-.86a11.88,11.88,0,0,0,5.18-1.45h0m7-8.81a13.13,13.13,0,0,1-2.23,4.7,13.86,13.86,0,0,1-1.88,2.1h0a13.86,13.86,0,0,0,1.88-2.1,13.13,13.13,0,0,0,2.23-4.7"/><path class="c" d="M73.44,55.88h0a11.88,11.88,0,0,1-5.18,1.45s-1.63.48-3.12.86h0c1.49-.38,3.12-.86,3.12-.86a11.88,11.88,0,0,0,5.18-1.45m7-8.81a13.13,13.13,0,0,1-2.23,4.7,13.86,13.86,0,0,1-1.88,2.1h0a13.86,13.86,0,0,0,1.88-2.1,13.13,13.13,0,0,0,2.23-4.7"/><path class="a" d="M96.61,25.67a6,6,0,0,0-.8.23,6.85,6.85,0,0,1,1.09.17c-.1-.13-.2-.26-.29-.4"/><path class="a" d="M134.62,40.22c-.9,0-1.77,0-2.63.09a69.27,69.27,0,0,0-7.45.91c-4.45.8-6.56,3.79-9.63,6.37a8.51,8.51,0,0,1-3.72,1.8,12.29,12.29,0,0,1-1.75.27,18.64,18.64,0,0,0,3.46.33h.38c.56-.74,1.11-1.49,1.66-2.24,3.07-2.58,5.2-5.57,9.64-6.36a69.43,69.43,0,0,1,7.46-.92c.85-.05,1.72-.08,2.6-.08a35.09,35.09,0,0,1,5.57.43,1.34,1.34,0,0,1,1,1,1.41,1.41,0,0,0-1-1.17,34.64,34.64,0,0,0-5.54-.43"/><polyline class="a" points="63.48 70.37 63.48 70.37 63.48 70.38 63.48 70.37"/><path class="a" d="M63.48,70.38v0h0a4,4,0,0,1,0,.45l.29.83c-.08-.25-.16-.56-.21-.74h0c0-.11-.05-.23-.07-.34h0l0-.15v-.07"/><path class="a" d="M63.8,71.68a.5.5,0,0,0,0,.13h0l.12.34h0l-.16-.47"/><path class="a" d="M70.13,81.81A7.33,7.33,0,0,0,67.69,83a7.68,7.68,0,0,0-.72.7c.25-.11.53-.27.84-.42a14.06,14.06,0,0,0,2.32-1.5"/><path class="a" d="M60.08,91.89a43.21,43.21,0,0,1-4.7,4.16s-.2.3-.52.82l.35-.27a32.15,32.15,0,0,0,4.87-4.71"/><path class="a" d="M78.16,95.48l-2.78,2.81c-2,2.1-4.42,4.32-6.84,6.56l-1.38,1.28,1-.61,1.26-.85c.83-.55,1.61-1.19,2.37-1.8s1.45-1.31,2.12-2,1.25-1.35,1.8-2.06a38.93,38.93,0,0,0,2.42-3.37"/><path class="a" d="M56.72,113.09l-.87.11a13.71,13.71,0,0,0,2.23,1.18c-.41-.38-.87-.81-1.36-1.29"/><path class="d" d="M141.2,41.82a3.76,3.76,0,0,1,.11.9h0a3.27,3.27,0,0,1-.21,1.21c-1.52,4-5.77,6-8.74,8.81-.22.64-1,1.54-1,2.18a.31.31,0,0,0,0,.1c0,.1,0,.21,0,.31h0a4.61,4.61,0,0,1-.44,1.65,36.61,36.61,0,0,1-10,9.67c-3.52,3.31-5.44,6.16-9.07,9.22-3.62,2.7-5.26,6.15-9.54,7.91A19.9,19.9,0,0,0,96,88.58a73.46,73.46,0,0,0-5.64,8.26,46,46,0,0,1-7.93,8.64A64.76,64.76,0,0,1,76.53,110c-2.12,1.38-4,2.49-5.27,3.38a6.82,6.82,0,0,1-2.17,1.36,19,19,0,0,1-2.59.76c-.91.18-1.84.33-2.74.54a14.69,14.69,0,0,0-2.68.78l-.2.09h0a13.88,13.88,0,0,1,2.68-.76c.91-.21,1.84-.36,2.75-.54a9.87,9.87,0,0,0,4.79-2.09c.62-.43,1.41-1,2.31-1.51s1.92-1.18,3-1.86a59.86,59.86,0,0,0,6-4.52,45.61,45.61,0,0,0,8-8.64A72,72,0,0,1,96,88.74a20,20,0,0,1,6.25-4.81c4.28-1.74,5.93-5.2,9.55-7.9,3.62-3,5.55-5.91,9.07-9.21a37.11,37.11,0,0,0,10-9.67,4.59,4.59,0,0,0,.43-1.66,1.1,1.1,0,0,0,0-.31v-.09h0c0-.65.81-1.55,1-2.18,3-2.86,7.23-4.83,8.75-8.81a3.36,3.36,0,0,0,.21-1.22,3.72,3.72,0,0,0-.15-1.06"/><path class="e" d="M134.64,40.38c-.88,0-1.75,0-2.6.08a69.43,69.43,0,0,0-7.46.92c-4.44.79-6.57,3.78-9.64,6.36-.55.75-1.1,1.5-1.66,2.24h.33c2.35-.11,5.06-.83,6.07-3,0,0,3.66-1.75,6.89-3a12.29,12.29,0,0,1,3.7-.93,2.72,2.72,0,0,1,.42,0,1.1,1.1,0,0,1,1,1.22h0a4.39,4.39,0,0,1-.41,1.61s-.23,1.2-.59,2.7A30.66,30.66,0,0,1,129.28,53l-1,1.1c-.61.71-1.51,1.69-2.62,2.84a112.61,112.61,0,0,1-8.48,8c-6.31,5.41-13.2,10.16-14.9,10.16h-.11s-2,1.11-4.82,3.13a97.56,97.56,0,0,0-10.29,8.52c-2.91,2.71-5.84,5.64-8.93,8.76a38.93,38.93,0,0,1-2.42,3.37c-.55.71-1.17,1.36-1.8,2.06s-1.37,1.34-2.12,2-1.54,1.25-2.37,1.8l-1.26.85-1,.61c-2,1.88-4.13,3.85-6.27,6,0,0-.38.13-1.06.31a21.82,21.82,0,0,1-2.89.61l-.22,0c.49.48,1,.91,1.36,1.29a16.3,16.3,0,0,0,1.75.62h0s-.23.14-.68.37l1.73,1.55.2-.09a14.69,14.69,0,0,1,2.68-.78c.9-.21,1.83-.36,2.74-.54a19,19,0,0,0,2.59-.76,6.82,6.82,0,0,0,2.17-1.36c1.24-.89,3.15-2,5.27-3.38a64.76,64.76,0,0,0,5.94-4.53,46,46,0,0,0,7.93-8.64A73.46,73.46,0,0,1,96,88.58a19.9,19.9,0,0,1,6.25-4.8c4.28-1.76,5.92-5.21,9.54-7.91,3.63-3.06,5.55-5.91,9.07-9.22a36.61,36.61,0,0,0,10-9.67,4.61,4.61,0,0,0,.44-1.65c0-.1,0-.21,0-.31a.31.31,0,0,1,0-.1h0c0-.64.81-1.54,1-2.18,3-2.86,7.22-4.82,8.74-8.81a3.27,3.27,0,0,0,.21-1.21,3.76,3.76,0,0,0-.11-.9,1.34,1.34,0,0,0-1-1,35.09,35.09,0,0,0-5.57-.43"/><path class="f" d="M130.27,43a12.29,12.29,0,0,0-3.7.93c-3.23,1.24-6.89,3-6.89,3-1,2.18-3.72,2.9-6.07,3h-.71a18.64,18.64,0,0,1-3.46-.33l-.27,0a4.82,4.82,0,0,0-.79.11,25,25,0,0,0-6.56,3.11c-2.53,1.53-4.64,3-4.64,3a1,1,0,0,0-.36-.06c-1.78,0-4.94,3.71-8.25,8.1l-.27.48c-1.3,2.31-3.25,5.53-5.2,8.47a35.36,35.36,0,0,1-5.91,7.23,6.21,6.21,0,0,1-3.63,1.79,2,2,0,0,1-1.15-.35h-.18a7.83,7.83,0,0,0-1.4.14c-.22,0-.45.09-.7.16a14.06,14.06,0,0,1-2.32,1.5c-.31.15-.59.31-.84.42-.74.78-1.65,1.93-2.92,3.55-1,1.26-2.25,2.83-4,4.61a32.15,32.15,0,0,1-4.87,4.71l-.35.27c-.2.32-.44.72-.71,1.18A22.33,22.33,0,0,0,52,102.89a10.56,10.56,0,0,0-.44,2.94,8,8,0,0,0,.77,3.47,9.58,9.58,0,0,0,2.62,3.24,10.11,10.11,0,0,0,.93.66l.87-.11.22,0a21.82,21.82,0,0,0,2.89-.61c.68-.18,1.06-.31,1.06-.31,2.14-2.15,4.24-4.12,6.27-6l1.38-1.28c2.42-2.24,4.8-4.46,6.84-6.56l2.78-2.81c3.09-3.12,6-6,8.93-8.76A97.56,97.56,0,0,1,97.38,78.2c2.86-2,4.82-3.13,4.82-3.13h.11c1.7,0,8.59-4.75,14.9-10.16a112.61,112.61,0,0,0,8.48-8c1.11-1.15,2-2.13,2.62-2.84l1-1.1a30.66,30.66,0,0,0,1.41-4.36c.36-1.5.59-2.7.59-2.7a4.39,4.39,0,0,0,.41-1.61,1.1,1.1,0,0,0-1-1.22,2.72,2.72,0,0,0-.42,0"/><path class="g" d="M90.4,60.5s-.28.55-.78,1.48a2.57,2.57,0,0,0,.78-1.48"/><path class="g" d="M89.62,62c-1.34,1.31-4,1.46-5.1,1.46-.33,0-.52,0-.52,0-1.28,2.18-5.26,4-8.48,4.7a19.36,19.36,0,0,1-4.49.53,12.89,12.89,0,0,1-1.36-.06A6.56,6.56,0,0,0,67,67.91a2.63,2.63,0,0,0-2.17,1,3.18,3.18,0,0,0-.59,1.3,5.08,5.08,0,0,0-.11.69,15.33,15.33,0,0,1,.31,2.38h0v.08a3.16,3.16,0,0,0,.09.64,4,4,0,0,1,.07.48c0,.11,0,.19,0,.26h0c0,.25-.07.26-.07.27h0c-.54.52-1.31,2.47-2.81,4.76a13.16,13.16,0,0,1-7.5,5.91,10.58,10.58,0,0,1-2.53.35h-.2a13.79,13.79,0,0,1-1.43-.06c-.45,0-.91-.13-1.37-.21A15.69,15.69,0,0,1,46.1,85a16.38,16.38,0,0,1-2.3-1,26.29,26.29,0,0,1-3.27-2.07c-.78-.56-1.17-.89-1.17-.89a4.16,4.16,0,0,0-2.62-1,4.64,4.64,0,0,0-2.71,1c-1.81,1.27-3.47,3.95-4.31,7.43a19.5,19.5,0,0,0-.42,2.7,17.39,17.39,0,0,0-.13,2.16c0,.22,0,.44,0,.66,0,.94.11,1.87.21,2.77a25.35,25.35,0,0,0,.47,2.53c.18.8.37,1.54.56,2.19s.44,1.24.63,1.71c.37,1,.63,1.51.63,1.51a12.21,12.21,0,0,0,2,5.41,16.49,16.49,0,0,0,1.91,2.31,15.77,15.77,0,0,0,2.32,1.92,15.31,15.31,0,0,0,2.58,1.5,20.85,20.85,0,0,0,2.73,1.07,21.11,21.11,0,0,0,5.34.88c.3,0,.6,0,.9,0a21.89,21.89,0,0,0,7.32-1.3,19.19,19.19,0,0,0,2.24-1c.52-.26.79-.42.79-.42a16.3,16.3,0,0,1-1.75-.62,13.49,13.49,0,0,1-3.16-1.84,9.58,9.58,0,0,1-2.62-3.24,8,8,0,0,1-.77-3.47h0a10.56,10.56,0,0,1,.44-2.94,22.33,22.33,0,0,1,2.18-4.84c.27-.46.51-.86.71-1.18.32-.52.52-.82.52-.82a43.21,43.21,0,0,0,4.7-4.16c1.72-1.78,2.94-3.35,4-4.61,1.27-1.62,2.18-2.77,2.92-3.55a7.68,7.68,0,0,1,.72-.7,7.33,7.33,0,0,1,2.44-1.22c.25-.07.48-.12.7-.16a7.83,7.83,0,0,1,1.4-.14h.18a2,2,0,0,0,1.15.35,6.21,6.21,0,0,0,3.63-1.79,35.36,35.36,0,0,0,5.91-7.23c2-2.94,3.9-6.16,5.2-8.47l.27-.48c.41-.74.77-1.39,1.05-1.92"/><path class="h" d="M85,20.93a9.75,9.75,0,0,0-3.2.5,29,29,0,0,0-11.41,5c-.26,2.49-3.06,2.8-4.62,3.92a11.59,11.59,0,0,1-1.92.53c-1.43.86-2.25,2.52-3.86,2.52l-.33,0a36.38,36.38,0,0,0-7.07-.75,27.33,27.33,0,0,0-4.48.36,37.69,37.69,0,0,0-8.52,3.32c-1.72.85-3.38,1.82-4.78,2.69a28.08,28.08,0,0,0-3.08,2.21A15.49,15.49,0,0,0,28.09,46c-.53,1-1.06,2-1.58,2.93a26.47,26.47,0,0,1-1.78,2.92,0,0,0,0,1,0,0c-.07,0-.22-.21-.35-.62-.24.48-.48,1-.69,1.49a1.63,1.63,0,0,1,0,.24h0c0,.43-.08,1.16-.08,1.62a2.18,2.18,0,0,0,0,.28h0a8.46,8.46,0,0,1-2.33,2.62c-4,2.31-7.33,7.25-9.58,14.12-.28.86-.55,1.72-.8,2.62s-.45,1.89-.66,2.84l-.3,1.44c-.09.49-.17,1-.25,1.52-.14,1-.28,2.06-.42,3.07S9.09,85.23,9,86.28s-.17,2.1-.18,3.21,0,2.18,0,3.25c0,.43,0,.86,0,1.29,0,.62,0,1.25,0,1.89.1.91.22,1.93.41,3,.09.55.2,1.12.32,1.71s.32,1.19.5,1.81a33.54,33.54,0,0,0,1.38,3.71,22.8,22.8,0,0,0,2,3.52l1.91,2.62c.71.91,1.45,1.84,2.21,2.73a23.51,23.51,0,0,0,4.6,4.34A38.53,38.53,0,0,0,39,124.22a49.42,49.42,0,0,1-14.81-11.48,26.6,26.6,0,0,1-3.41-3.69A29.29,29.29,0,0,1,18,104.51a27.65,27.65,0,0,1-2.88-10.06A7.19,7.19,0,0,1,14.92,93h0a9.83,9.83,0,0,1,.85-3.81,9.55,9.55,0,0,1,2.74-3.62,1,1,0,0,1,.45-.09,3.56,3.56,0,0,1,.88.16,3.18,3.18,0,0,0,.88.17,1,1,0,0,0,.46-.1c1.41-1,2.39-2.58,3.58-3.72a5.3,5.3,0,0,1,3.74-1.72,4.44,4.44,0,0,1,.63,0,1.07,1.07,0,0,0,.35.06,2.81,2.81,0,0,0,1.76-1A11,11,0,0,0,33,76.91a2.59,2.59,0,0,0,.08-.72c0-.32,0-.73-.07-1.2-.11-.92-.25-2.09-.42-3.44A79.41,79.41,0,0,1,32,62.26h0v-.47h0a70.44,70.44,0,0,1,.58-9c.18-1.29.39-2.45.55-3.27A6.22,6.22,0,0,1,33.51,48a1,1,0,0,0,.05-.3c0-.59-.45-1.29-.44-1.87h0a.88.88,0,0,1,.05-.33c2-2.29,4.87-2.72,7.7-3.35,1.77-.49,3.89-2.11,5.69-3.54A34.8,34.8,0,0,1,50,36h0c1.4,2.28,3.85,4.37,4,7,0,.33.73.77,1.09,1.15a3.83,3.83,0,0,0,1.71.5.54.54,0,0,0,.3-.06h0a.7.7,0,0,0-.06.23c0,.07,0,.1.08.1.37,0,1.85-1.24,3.29-2.51s2.82-2.6,2.82-3c0-.1-.07-.15-.23-.15l-.24,0h0c1.52-.41,2.23-1.68,2.93-3.13a10.86,10.86,0,0,1,2.72-4.15c2-1.74,5.31-1.33,6.76-3.46,1.15-1.28,2.22-2.91,3.73-2.91a2.39,2.39,0,0,1,.77.13,11.16,11.16,0,0,0,2.86.48l.52,0c2-.68,3.82-2,5.75-2a4,4,0,0,1,1,.13c1.52.55,3,2.29,4.48,2.29a1.83,1.83,0,0,0,1.17-.43c.68-.59,2-.36,2.16-1.15-.6-.24-1.2-.95-2-1.24-1.61-.78-3.36-.38-5-1.15-1.73-.57-3.35-1.48-5.28-1.67H85"/><path class="i" d="M73.44,55.88h0a11.88,11.88,0,0,1-5.18,1.45s-1.63.48-3.12.86c-.76.21-1.46.35-2,.53s-.9.31-1,.51h0c.08-.2.46-.38,1-.51h0c.55-.18,1.23-.32,2-.52h0c1.49-.38,3.12-.86,3.12-.86a11.88,11.88,0,0,0,5.18-1.45m7-8.81a13.13,13.13,0,0,1-2.23,4.7,13.86,13.86,0,0,1-1.88,2.1h0a13.86,13.86,0,0,0,1.88-2.1,13.13,13.13,0,0,0,2.23-4.7"/><path class="j" d="M63.13,58.72c-.52.13-.9.31-1,.51.08-.19.46-.38,1-.51m2-.52c-.75.2-1.43.34-2,.52.55-.18,1.23-.32,2-.52"/><path class="j" d="M60.65,58.94l-.11.06.11-.06"/><path class="j" d="M60.65,58.94a8.48,8.48,0,0,0,1.5.29,8.48,8.48,0,0,1-1.5-.29"/><path class="j" d="M60.54,59l-.41.26.41-.26"/><path class="i" d="M63.51,70.85v.29h0v-.29h0m-4-10.8h0a2.06,2.06,0,0,0,0,.28h0l0,.05c.25.54.49,1.06.72,1.54h0c.17.37.33.73.46,1.07h0c.07.17.13.33.2.49h0c0,.12.09.23.14.33h0c.17.43.29.79.37,1,0,0,.75,2.15,2.08,6h0c-1.33-3.87-2.08-6-2.08-6-.08-.23-.2-.59-.37-1-.05-.1-.09-.21-.14-.33s-.13-.32-.2-.49c-.13-.34-.29-.7-.46-1.07l-.74-1.59a2.06,2.06,0,0,1,0-.28"/><path class="j" d="M60.92,63.48c0,.12.09.23.14.33-.05-.1-.09-.21-.14-.33m-.2-.49c.07.17.13.33.2.49-.07-.16-.13-.32-.2-.49m-1.18-2.61c.25.54.49,1.06.72,1.54-.23-.48-.47-1-.72-1.54m-.06-.33a2.06,2.06,0,0,0,0,.28,2.06,2.06,0,0,1,0-.28"/><path class="j" d="M63.52,70.6c0,.11,0,.23.07.34,0-.11-.05-.23-.07-.34"/><path class="i" d="M63.51,71.14c0,.32,0,.74-.08,1.37a20.49,20.49,0,0,1-.51,2.66v0a18,18,0,0,0,.5-2.61h0c.06-.63.08-1.05.08-1.37h0m.08-.2h0c0,.18.13.49.21.74h0c-.08-.25-.16-.56-.21-.74h0"/><path class="j" d="M63.43,72.51a18,18,0,0,1-.5,2.61,18,18,0,0,0,.5-2.61"/><path class="j" d="M63.84,71.81l.12.34-.12-.34"/><path class="k" d="M81.35,16.62a25.59,25.59,0,0,0-10.79,2.3c-1.14.53-1.5,1.87-2.2,2.83-1.52,2.3-5,3.05-5.77,6.4-.06.45-.57.77-1.06.86-1.05,0-2.08-.06-3.11-.06a74.9,74.9,0,0,0-13.55,1.24,17.94,17.94,0,0,0-3.78,1.22,46.21,46.21,0,0,0-4.82,2.42,53.77,53.77,0,0,0-7.19,4.8,18.12,18.12,0,0,0-3.67,5.11c-.18.39-.33.75-.48,1.14s-.29.83-.4,1.22a12.46,12.46,0,0,0-.41,2.1c0,.34-.05.65-.05.94,0,1.78.5,2.71.64,2.71a0,0,0,0,0,0,0,26.47,26.47,0,0,0,1.78-2.92c.52-1,1-1.95,1.58-2.93a15.49,15.49,0,0,1,3.66-4.77A28.08,28.08,0,0,1,34.83,39c1.4-.87,3.06-1.84,4.78-2.69A37.69,37.69,0,0,1,48.13,33a27.33,27.33,0,0,1,4.48-.36,36.38,36.38,0,0,1,7.07.75l.33,0c1.61,0,2.43-1.66,3.86-2.52a11.59,11.59,0,0,0,1.92-.53c1.56-1.12,4.36-1.43,4.62-3.92a29,29,0,0,1,11.41-5,9.75,9.75,0,0,1,3.2-.5h.25c1.93.19,3.55,1.1,5.28,1.67,1.61.77,3.36.37,5,1.15.84.29,1.44,1,2,1.24h0c.39-.25,1.2-.11,1.2-.5a.6.6,0,0,0,0-.12c0-.7-.72-1.23-1.17-1.76C95.27,20.89,92.88,19,90.14,18a28.07,28.07,0,0,0-8.79-1.41"/><path d="M42,63.52c-1.09-2.41-.34-4,1.27-5.4,3.16-2.77,6.26-5.61,9.39-8.42.68-.6,1.35-1.22,2-1.82.33-.29.74-.83,1-.78,2.17.38,2.17-.93,2.13-2.46a4.38,4.38,0,0,1,1.68-3.56c4-3.49,7.88-7,11.74-10.67a5.94,5.94,0,0,1,5.57-1.49c5,.94,10.06,1.88,15.09,2.86.38.07.69.49,1.18.85.75-.8,1.59-1.39,2.93-.64a11.94,11.94,0,0,0,3.41.94c3.76.78,7.54,1.43,11.28,2.32.9.21,1.65,1.11,2.63,1.8.59-1.73,2-1.7,3.69-1.38,2.87.55,5.78.91,8.65,1.47s4.92,1.75,5.27,4.92c0,.39.48.73.72,1.11a5.59,5.59,0,0,1,.92,4.09,44.22,44.22,0,0,0-.34,4.57l-2.29-.45-.73-6.51c-2.16,1.13-2.38,1.58-2.1,3.82.15,1.25.2,2.51.32,4l1.79-1.58c.82,1.48.22,2.46-.55,3.38-2.3,2.74-4.63,5.44-6.92,8.18C117,68.39,112.2,74,107.58,79.81c-2.68,3.36-5.09,6.93-7.53,10.45-3.11,4.48-7.19,8-11,11.88-2.16,2.18-4.59,4.1-6.84,6.2-1.22,1.13-2.94,1.93-2.86,4.06,0,.41-.57.93-1,1.27a35.75,35.75,0,0,1-4.13,3.15,4.14,4.14,0,0,1-2.83.6c-6.94-1.83-14.08-2.34-21.12-3.45-2.17-.35-4.3-.93-6.45-1.39-5.27-1.14-10.54-2.31-15.83-3.38a17.9,17.9,0,0,0-3.34,0c-3.55-1.93-8.12-1.64-12.32-3.34-1.38-2.76-1-5.92-.46-8.88.26-1.36,1.15-2.63,1-4.22-.06-.49.52-1.12.92-1.59,2.6-3.07,5.24-6.11,7.84-9.19.71-.84,1.22-1.72,2.68-1.16.78.31,1.59-.32,1.35-1.44-.49-2.28.62-3.71,2.28-5.15,3.24-2.81,6.27-5.86,9.37-8.82.59-.56,1-1.2,2.05-1C40.06,64.52,40.85,63.93,42,63.52Zm-23,24.8.08-.09-1.67,2.36a16.53,16.53,0,0,0-1.94,1.79c-.87,1.12-.53,2.15.81,2.41,1.17.24,2.39.25,4.15.42-.92-1-1.34-1.76-2-2.13a2.36,2.36,0,0,1-1.09-2.54c.73.24,1.73.26,2.14.76a9.1,9.1,0,0,1,1.76,3.32c.24.94.6,1.53,1.45,1.73,2.2.51,4.43,1,6.65,1.39a2.86,2.86,0,0,0,3.12-1.15c2-2.67,4.16-5.27,6.22-7.92.18-.23.1-.66.16-1.17-1.2-.19-2.28-.31-3.34-.52-1.51-.3-3-.62-4.51-1-2.2-.57-4.37-1.23-6.58-1.78a2.75,2.75,0,0,0-3,.87C20.53,86.12,19.75,87.23,18.94,88.32ZM89.52,40.38l.08-.08a54.91,54.91,0,0,0-7.12,8.79,7.07,7.07,0,0,0,1.25.53c4.32.8,8.65,1.54,13,2.36A2.25,2.25,0,0,0,99,50.92c1.87-2.13,3.79-4.2,5.67-6.32,1.34-1.51,2.67-3,3.93-4.59A18.19,18.19,0,0,0,110,37.65a14.22,14.22,0,0,0-1.37-.47c-4.11-.88-8.21-1.83-12.34-2.55a3.61,3.61,0,0,0-2.65,1C92.11,37.08,90.87,38.78,89.52,40.38ZM39.19,91.49c-1.32,1.63-2.7,3.22-3.93,4.91-1.35,1.85-2.7,3.62-5.5,3.79.39,2.56.73,4.86,1.08,7.2l9.38.81c-.73-3-.54-5.76-3.64-7.25-1.74-.84-1.66-2.39-.5-4.16s2-3.59,3.05-5.39c.82-.68,1.68-1.3,2.43-2.05.56-.57.95-1.32,1.48-1.94.13-.15.5-.11.92-.18.28.74.56,1.45.79,2,1.89.33,3.61.56,5.31.94,3.29.72,6.57,1.52,9.86,2.29a2.19,2.19,0,0,1,1.92,2.57A7.62,7.62,0,0,1,61,97.92c-.89,1.59-2,3.07-2.95,4.62A2.63,2.63,0,0,1,55.29,104c-1.63-.21-3.26-.47-4.9-.65-1.3-.15-2.61-.2-4.11-.3.24,2.14.44,3.88.69,6-1.78-1-1.84-2.33-2.12-3.48-.68-2.77-1.36-3.28-4.4-2.88.49,1.95,1,3.88,1.51,5.95,7.11,1.15,14.19,1.84,21,4l-.1,1.39c1.81.28,3.53.51,5.24.82s3.22,1.27,4.77-.1c-.4-2.09-2.62-1-3.52-2.18l4.27-2.73c-2.25-3.08-5.52-2.13-8.45-3,.39,1.53.67,2.62.94,3.72l-.56.27a12.93,12.93,0,0,1-1.06-1.31c-.92-1.51-1.4-3.24-3-4.38-1.2-.85-1.07-2.32-.39-3.51,1.76-3.06,3.63-6,5.51-9.14C67.84,93,68.88,93.59,70,94s2.21.66,3.75,1.1c-3.25-3.75-3.3-4.92-.66-8.52.43-.59.93-1.13,1.34-1.74s.8-1.34,1.19-2l-.2-.12-8.93,8.88c-.07-2.31,1.62-3.41,2.66-4.92s2.17-2.94,3.32-4.36,2.45-2.87,4-4.63a22,22,0,0,0-2.91-1.52c-3.12-1-6.27-1.93-9.41-2.87-1.85-.56-1.95-.9-.59-2.67,4.16,1.45,8.38,3,12.62,4.38a2.68,2.68,0,0,1,2.07,2.57c0,.52.13,1,.25,2,1.33-1.62,2.41-2.92,3.62-4.38,2.46,2.37,5.58,3.1,8.6,4.1,2,.67,3.9,1.61,5.85,2.39a2.39,2.39,0,0,1,1.77,2.93,28.54,28.54,0,0,0,0,4.24l.77.53a5.42,5.42,0,0,1,.51-1.29c2.66-3.82,5.37-7.61,8-11.43.93-1.32.61-2.66-.2-4.56-1.62,1.77-3.09,3.16-4.3,4.74-1.74,2.29-4,2.29-6.4,1.7-1.77-.42-3.53-1-5.27-1.5-3.08-1-3.84-2.57-2.72-5.64.11-.28.2-.57.41-1.15a27.14,27.14,0,0,1-3.57,2.22c-1.88.79-3.66,1.74-6,.93-4-1.39-8.06-2.39-12.1-3.55-.26-.08-.54-.11-.79-.21a2.21,2.21,0,0,1-1.17-3.52,13.22,13.22,0,0,1,1.23-1.48c2.91-3.17,5.84-6.31,8.72-9.5,1.2-1.33,2.3-2.77,3.35-4a23.32,23.32,0,0,0,2.78,1.06c3.81.88,7.63,1.73,11.47,2.51a11.11,11.11,0,0,1,5.42,2.71c.7-.19,1.43-.66,2-.52,3.23.82,6.42,1.8,9.63,2.68,3,.82,4.33,3.3,3.24,6.21a4.8,4.8,0,0,0,0,3.34c3.1-1.9.84-5,2.06-7.27,1.59.81.53,2.54,1.35,3.8l6.15-7.07c-.47-1.75-.88-3.28-1.36-5l-3.37,2.85a5.73,5.73,0,0,1-6.11,1.06,18.36,18.36,0,0,0-2.67-.57c-2-.41-4-.73-5.9-1.26-2.22-.62-2.69-1.94-1.6-4,.29-.54.6-1.07.89-1.61l-.51-.34a20.38,20.38,0,0,0-2.56,2.8c-1.07,1.68-2.4,1.91-4.23,1.57-3.67-.68-7.23-2-11-1.93a6.15,6.15,0,0,1-2.37-.63c-2.21-.91-2.61-2.36-1.09-4.25,2.45-3.07,5-6.06,7.5-9.08a4.87,4.87,0,0,0,1.61-2.83,20.11,20.11,0,0,0-1.6,1.25c-1.54,1.56-3.1,3.11-4.58,4.74-2,2.15-4.11,4.18-4.85,7.2A2,2,0,0,1,78,49.58a3.61,3.61,0,0,1-3.63-.15c-3.07-1.9-6.42-1.23-9.74-.7a6,6,0,0,0,2.23.73c2,.33,4,.52,5.91,1a3.9,3.9,0,0,1,2.33,1.59c.63,1.13-.4,2-1.18,2.8-1.84,1.89-3.7,3.77-5.47,5.72s-3.24,3.74-4.86,5.61a4.8,4.8,0,0,1-4.05,1.92c-2.32-.17-4.64-.4-7-.63a1.49,1.49,0,0,0-1.89,1.35l5.55,1.23c1.63,2.49-.25,4.19-1.4,6.12a56,56,0,0,0,4.3-5c.45-.57.85-1.4,1.71-.83s.69,1.4.11,2.14S59.81,74,59.2,74.62c-2.53,2.77-5.09,5.51-7.61,8.29-.72.8-1.59,1.59-1.09,3.18l7.19,1.44L54.1,81.16c1.76-.15,1.8-.17,2.38.84a39,39,0,0,1,2.05,3.89,6.09,6.09,0,0,0,2.94,3.41c.54.26.89.92,1.65,1.76a8.72,8.72,0,0,1-1.9.09c-3.62-1-7.24-1.88-10.83-2.94a3.24,3.24,0,0,1-1.79-4.87c.3-.55.57-1.11.86-1.67-2.34,1.11-3.53,3.66-6.32,3.78-.25,0-.44.55-.72.77C40.67,87.57,40.42,89.82,39.19,91.49ZM67.1,67.36c3,.85,5.35,1.48,7.69,2.2,2.09.64,4.14,1.47,6.25,2,1,.26,2.38.5,3.1,0a19,19,0,0,0,3.92-3.78c2-2.47,3.9-5.07,5.8-7.64.51-.69.89-1.47,1.47-2.43C90,55.47,84.35,56,79.46,53.61Zm5.29-14.64c-1.54-.35-3.09-.77-4.67-1Q62.35,50.81,57,50.08a2.87,2.87,0,0,0-2,.4c-2.28,1.81-4.55,3.66-6.66,5.67-1.75,1.67-3.28,3.59-4.86,5.35,2.1,2.54,7.25,4.12,10.32,3.31-.88-2.59-3.05-4.64-3.23-7.53,2.68,2.21,3.88,5.22,4.59,8.25a8,8,0,0,1,2.46.16c2,.79,3.38,0,4.63-1.35,1.5-1.59,2.92-3.27,4.36-4.92C68.43,57.31,70.25,55.2,72.39,52.72Zm31.4.66c3.64.86,7.08,1.69,10.53,2.49a2.86,2.86,0,0,0,3.11-1.16c2.12-2.63,4.42-5.11,6.56-7.73,1.48-1.82,2.81-3.77,4.43-6a17.55,17.55,0,0,0-2.87-1.36c-2.12-.53-4.34-.74-6.42-1.39a4.22,4.22,0,0,0-5.06,1.49q-4.86,6.12-9.7,12.26A6.42,6.42,0,0,0,103.79,53.38ZM60.28,45.05c1.32.12,2.49.22,3.65.34,3.81.37,7.68.33,11.3,1.81,1.2.49,1.84.06,2.41-1A16.75,16.75,0,0,1,79.77,43c2.42-2.73,4.94-5.37,7.4-8.07A9.71,9.71,0,0,0,88,33.59c-3.65-.71-7.09-1.24-10.44-2.07a5.74,5.74,0,0,0-6.14,1.84,57.11,57.11,0,0,1-4.35,4.17c-1.57,1.38-3.29,2.59-4.85,4A4.35,4.35,0,0,0,60.28,45.05ZM38.71,67.32c-3.75,3.55-7.57,6.89-11.46,11A29.34,29.34,0,0,0,30.8,80c3,.92,6,1.5,8.91,2.61a5.08,5.08,0,0,0,6-1.13c2.69-2.6,5.41-5.18,8.1-7.79a10.92,10.92,0,0,0,1-1.39ZM92.53,69a34.27,34.27,0,0,0-2,3.6c-.62,1.52-.37,2,1.16,2.43,3.06.81,6.15,1.51,9.19,2.24,2-2.42,3.94-4.62,5.73-6.92s4.31-3.92,5.47-7a14.34,14.34,0,0,0-2.64-1.59c-2.92-1-5.89-1.77-9.1-2.72l-6.83,8.4c1.37,2.52,3,4.63,2.63,7.34l-.58.26ZM82.17,78.36a60.51,60.51,0,0,0-8,10.72c-1.35,2.22-1,3,1.43,3.75,2.28.66,4.6,1.19,6.87,1.87a2.49,2.49,0,0,0,2.83-1c2.47-2.56,5.1-5,7.68-7.43.82-.78,1.69-1.52,3-2.66ZM55.88,101.94c1.49-2.33,2.84-4.42,4.18-6.5-.47-.42-.64-.69-.87-.75-3.42-.92-6.85-1.86-10.29-2.69-1.42-.34-2.88-.44-4.32-.67a3.06,3.06,0,0,0-3.27,1.45c-1,1.52-2.15,3-3.1,4.5a8,8,0,0,0-.61,2.21C43.78,101.26,49.77,101.5,55.88,101.94Zm18.73,3.63c1.31-2.34,4.35-3,5.39-5.74-3.67-2.34-7.79-2.94-11.68-4.14a1.65,1.65,0,0,0-1.42.54c-1.37,1.93-2.7,3.9-3.92,5.93-.67,1.11-.09,1.94,1,2.33.6.22,1.25.26,1.87.42l8.73,2.14a2,2,0,0,0,.57,0C75,106.5,74.8,106,74.61,105.57Zm12.7-11a9.22,9.22,0,0,0-1.07.86A3.3,3.3,0,0,1,82,96.66a29,29,0,0,0-5-1.07L77,96l5.36,2.58c-.86,2.44-.57,4.49.34,7.07,1.35-2.72-.07-5.06.39-7.46,2.28.92.67,3.49,2.3,4.71.61-2.16-.41-4.37,1.18-6.67.24,1.91.41,3.37.63,5.17C88.06,99.46,88.07,97.79,87.31,94.6Zm-63.3,4c.24,2.43.32,4.76.74,7,.26,1.45,1.43,1.57,2.62,1.11-.4-2.29-.85-4.42-1.13-6.56C26.1,99.11,25.74,98.5,24,98.61Zm100-42,.71.17c.59-.95,1.63-1.9,1.66-2.87,0-1.56-.59-3.13-1-5.15l-2.55,3.11C123.21,53.7,123.59,55.16,124,56.63ZM18,97.08a22.71,22.71,0,0,0,1.43,6.81c.07.24.85.25,1.39.39C20.17,98,20.09,97.77,18,97.08ZM97,86.24c-2.58,1.32-2.83,2.37-1.63,7,.66-1.06,1.43-1.78,1.57-2.61A27.83,27.83,0,0,0,97,86.24ZM89.44,98.68c2-.76,1.5-2.12,1.44-3.31l-.18-3.84-.58-.13c-.38.64-1.07,1.27-1.08,1.91C89,95,89.27,96.69,89.44,98.68ZM111.6,68.35c-3,2.26-3,2.26-2,5.57C111.45,72.52,112.55,70.93,111.6,68.35ZM92.29,96.07a2.48,2.48,0,0,0,1.18-3.3c-.34-1,.24-2.32-1.18-3.36Zm-69.07,9.44c-.63-2.43.05-5.08-1.44-7.31A16,16,0,0,0,23.22,105.51ZM16,96.86l-.55.12a17.58,17.58,0,0,1,.76,3.35c.05,1.27-.24,2.54,1.44,3.57A23.31,23.31,0,0,0,16,96.86Zm63.56,10.82c1.7-1.35,1.66-3.08,0-4.68Zm-31.09,4-.06.47,6.82,1a1.47,1.47,0,0,0-1.15-.91C52.22,112,50.35,111.85,48.48,111.66Zm29.06-2.33c1-2.4.84-3.2-.51-4.24C77.21,106.58,77.38,108,77.54,109.33Zm-49-9.63c-.89,1.64-.67,3.18.29,5C28.69,102.81,28.6,101.26,28.51,99.7ZM13.87,98.18c-.48,3-.48,3,1.3,4.73C14.73,101.29,14.38,100,13.87,98.18ZM75.7,108.76c-.6,1.08-.6,1.08,0,2.53C76.67,110.37,76.67,110.37,75.7,108.76Zm-37-24.56c-1.36-1-1.84-.26-2.26.54,0,.08.15.29.34.61Zm9.7-16.06.59,0c-.05-.42-.11-.85-.16-1.27l-.43,0Z"/><path d="M134.05,46.65a12.36,12.36,0,0,1,1.52,2c.08.16-.83,1-.9,1A6.81,6.81,0,0,1,133,48.11C132.92,48,133.52,47.37,134.05,46.65Z"/><path d="M66.32,87c-2.18-.39-5.21-6-6.48-10.72.56.09,1.3,0,1.42.25C63,80,64.65,83.52,66.32,87Z"/><path d="M58.25,78.26a28.25,28.25,0,0,1,4.13,8.48c-1.71.21-1.84-1.08-2.29-1.91-.57-1-1.09-2.09-1.57-3.17C58.12,80.76,57,80,58.25,78.26Z"/><path d="M64,75.24c1.56,2,3.12,4.05,3.12,6.77C65.39,80.09,64,78,64,75.24Z"/><path d="M57.62,105.26c2.23.55,2,2.35,2.78,3.79C58.43,108.59,57.74,107.64,57.62,105.26Z"/><path d="M77.8,70c-.38-.67-.75-1.36-1.15-2-.92-1.56-1.81-3.15-2.81-4.67-.38-.57-.9-1.13-.15-1.56a1.84,1.84,0,0,1,1.6.43C76.78,63.48,78.22,67.36,77.8,70Z"/><path d="M81.25,68c-1.94-2.19-2.54-4.82-3.85-7-.27-.45-.1-1.16-.17-2.46.88.84,1.41,1.15,1.66,1.61C81.19,64.4,81.61,65.76,81.25,68Z"/><path d="M84.89,65.36c-2.58-1.31-4.56-4.55-5.38-8.27.54.08,1.27,0,1.39.23C82.19,59.78,83.39,62.28,84.89,65.36Z"/><path d="M84.7,56.45c1.87,1.84,1.35,3.69,1.62,5.33C84.62,60.6,84.27,59,84.7,56.45Z"/><path d="M56,52.17c.44.31.9.48,1.11.81q2.47,3.95,4.85,7.94c.14.24,0,.66,0,1.08C59.28,60.24,55.94,54.72,56,52.17Z"/><path d="M52.84,55c.86-.93,1.58-.77,2.11.06a29.33,29.33,0,0,1,3.15,8c-1.91-.68-2-2.54-2.74-3.92S53.68,56.32,52.84,55Z"/><path d="M51.3,63.52c-1.48-1.29-2.25-2.44-2-4.46A6.19,6.19,0,0,1,51.3,63.52Z"/><path d="M99.91,47.51c-2.49-1.76-4.75-8.14-4.31-11.11.26.08.69.1.74.24C97.49,40.06,98.6,43.49,99.91,47.51Z"/><path d="M92.28,38.78c.71.33,1.33.41,1.41.68.86,2.62,1.62,5.27,2.58,8.48C94.08,46.07,92.93,43.29,92.28,38.78Z"/><path d="M89.52,40.38a2.45,2.45,0,0,1,2,2.21c.11,1.31,1.48,2.48.52,4.25l-3-3.57c.13-.84.29-1.89.46-3Z"/><path d="M101.49,42.76a7.63,7.63,0,0,1-1.74-6.3C101.33,38.08,101.49,40.08,101.49,42.76Z"/><path d="M113.91,49.05c-1.35-1.34-1.14-2.87-1.38-4.23,0-.29.47-1,.6-1,.44.09,1.11.39,1.17.71C114.56,46,115,47.39,113.91,49.05Z"/><path d="M117.88,43.82c-.46,1.59-.85,2.93-1.26,4.37A1.64,1.64,0,0,1,115.29,46C115.65,44.84,116,43.44,117.88,43.82Z"/><path d="M73.5,41.41c-.11-1.78-.27-3.55-.27-5.33a1.4,1.4,0,0,1,1-1c.35,0,1,.64,1,.93C75,37.88,75.14,39.82,73.5,41.41Z"/><path d="M77.92,39.53c-.2-1.37-.47-2.73-.56-4.11,0-.37.51-.78.79-1.18.42.37,1.19.74,1.19,1.11a36.41,36.41,0,0,1-.42,4.16Z"/><path d="M41.65,79.49c-2.51-1.93-4.48-5.44-4.4-7.95A18.88,18.88,0,0,1,41.65,79.49Z"/><path d="M36,75c2.42,2.2,2.76,2.76,3.17,5A8.32,8.32,0,0,1,36,75Z"/><path d="M35,78.81l-2.4-3.47c.51-.17,1.07-.56,1.37-.42,1.59.76,1.37,2.3,1.59,3.64Z"/><path d="M99.34,69.41A2.8,2.8,0,0,1,96,66.83a1,1,0,0,1,.59-.76,1,1,0,0,1,.9.34C98.12,67.29,98.64,68.24,99.34,69.41Z"/><path d="M102.36,68.66c-1.84-.81-2.12-1.33-1.89-3.56C102.21,65.68,102.41,66.07,102.36,68.66Z"/><path d="M80.47,83.49c1.65,1.84,1.76,4.06,1.85,6.84C80.51,88.54,80.08,86.94,80.47,83.49Z"/><path d="M84.26,89.45c-1.48-2.36-1.71-4.63-.81-6.38C84.54,84.3,84.9,86.72,84.26,89.45Z"/><path d="M20.65,86.65c2.25.57,4.84,4.23,5.82,7.9C25.06,93.84,21.85,89.55,20.65,86.65Z"/><path d="M18.94,88.32a3.46,3.46,0,0,1,2.93,2.06c.7,1.53,1.49,3,2.46,5-1.71-.28-1.9-1.35-2.41-2.07a24.89,24.89,0,0,0-1.74-2.43A3.26,3.26,0,0,1,19,88.23Z"/><path d="M49.68,100.44,47,97.79c-.15.56-.27,1-.52,2L42,95.24c.38-2.23,2.95,0,3.21-2.53C47.34,95.4,49.36,97.36,49.68,100.44Z"/><path d="M71.15,98.68c.28,1.23.57,2.48.89,3.84-1.84.18-1.41-1.57-2.9-1.92a3,3,0,0,1-1.3.16c-.51-.09-1-.59-1.43-.91A4.6,4.6,0,0,1,67.78,99,27.44,27.44,0,0,1,71.15,98.68Z"/></svg>