<svg xmlns="http://www.w3.org/2000/svg" viewBox="0 0 150 150"><defs><style>.a{fill:#bcab9e;}.b{fill:#b19d8f;}.c{fill:#816654;}.d{fill:#7e614e;}.e{fill:#89715d;}.f{fill:#a48c7d;}.g{fill:#d2c8be;}.h{fill:#9d8575;}.i{fill:#b29e8f;}.j{fill:#ece8e4;}</style></defs><title>icon</title><path class="a" d="M108.68,57.89h0M56.25,46.79c-1,0-1.76,1.09-2.64,1.9-1.27,1.62-4,.4-5.77,1.53-1.21.66-1.91,2.06-2.6,3.3S44,55.79,42.63,56h.09c.24,0,.34.07.34.19h0c0,.41-1.18,1.44-2.32,2.5-.8.68-1.54,1.43-2.1,1.83a1.4,1.4,0,0,1-.61.36c-.06,0-.1,0-.1-.13h0a.61.61,0,0,1,0-.16.52.52,0,0,1-.33.07A4.78,4.78,0,0,1,36,60.26c-.4-.34-1.15-.7-1.22-1a7.94,7.94,0,0,0-1.9-3.45c-.89-1.07-1.93-2.08-2.69-3.18h0A21.71,21.71,0,0,0,26.84,56l-1.32,1.53c-.45.55-.91,1.1-1.37,1.63A21.83,21.83,0,0,1,21.5,62c-.68.56-1.36,1.14-2,1.75-.33.31-.66.62-1,1s-.6.73-.89,1.13a12.23,12.23,0,0,0-1.48,2.62,14.1,14.1,0,0,0-.8,3.37c.17,1.32,1.5,2,1.75,3.19a9.25,9.25,0,0,0,.75,2.39A23.58,23.58,0,0,0,20,81.61c.25.39.51.78.79,1.18l.43.63c.2.31.41.62.61.94a32.85,32.85,0,0,0,2.24,3.15,24.15,24.15,0,0,0,2,2.09c.39.36.8.72,1.25,1.08s.87.65,1.33.95.91.57,1.39.83,1,.52,1.55.75a18.23,18.23,0,0,0,3.24,1,18.63,18.63,0,0,0,3.16.41h.49a17.12,17.12,0,0,0,2.22-.13,15.16,15.16,0,0,0,6.52-2.37,12.77,12.77,0,0,0,2.73-2.42,10.12,10.12,0,0,0,.74-1,.78.78,0,0,0,0-.14c0-.12,0-.21,0-.33h0c0-.21,0-.42,0-.61h0a6.93,6.93,0,0,1,.1-1.15,4.22,4.22,0,0,1,.42-1.21c.14-.21.27-.34.38-.34l.07,0a4.93,4.93,0,0,1,1,1.47,7,7,0,0,1,.65,2c.35,1.81.73,3.08,1.05,4.31.21.78.38,1.52.53,2.34L58,100c.24-.41.58-1,1-1.58a14.39,14.39,0,0,1,3-3.49c0-.08.12-.58.25-1.46l-1.07.93c-.41.34-.86.75-1.31,1.16l-.67.6-.56.61c-.63.65-1.12,1.18-1.44,1.18a.27.27,0,0,1-.12,0c-.31-.14-.4-1-.43-3.2l-.11-.46c-.08-.31-.19-.75-.33-1.27a35.09,35.09,0,0,0-1.44-4.17c-.34-.82-.7-1.65-1.11-2.53s-.79-1.72-1.16-2.6a10.92,10.92,0,0,1-1-4h0a5,5,0,0,1,.15-1.22s.1-.43.34-1.18a20.85,20.85,0,0,1,1.3-3.09,25.41,25.41,0,0,1,7.46-8.65A28,28,0,0,1,75,60a29.49,29.49,0,0,1,3-.15,22.75,22.75,0,0,1,11.48,2.84,3.46,3.46,0,0,0,1.44.42,9.77,9.77,0,0,0,1.33.08,22.54,22.54,0,0,0,4-.42A18.06,18.06,0,0,1,101,64.94c.28.18.56.38.83.59l.21.16-.08-.08h0l.09.07a.7.7,0,0,1,.15.52h0a7.73,7.73,0,0,1-.81,2.6,16.86,16.86,0,0,0-.47,3.45c0,.15,0,.31,0,.47,0,1.78.49,3.71,1.39,4.1a.87.87,0,0,0,.88,0,6.35,6.35,0,0,0,.42,2c.21.53.61,1,1.07,1,.57-.31.88-.51.88-.51h0a1.15,1.15,0,0,1-.87.51h0l-.52.29-.65.35.28-.08a21.1,21.1,0,0,1,2.73-.6,8.24,8.24,0,0,1,1-.06c1.09,0,1.84.32,2,1.15l.23.09.71.26a1.28,1.28,0,0,1,.37.18l.11.1,0,.06v0h0c0-.22,0-.44,0-.65-.07-1.23-.1-2.12-.18-4.17,0-1,0-2-.08-2.93l-.09-4.56c0-1.84,0-3.67-.07-5.49v-.12h0v0a.51.51,0,0,0,0-.21l-.08-.33a3.07,3.07,0,0,0-.17-.31c-.21-.72-.3-1.14-.49-1.14h0c-.45.35-1,1.44-1.72,2.22-.44.46-.78.82-1,.86h.16a3,3,0,0,0,.41-.22h0l0,0a2.51,2.51,0,0,0,.31-.26l0,0h0a.46.46,0,0,1,.07-.07h0a5.5,5.5,0,0,0,.88-1.37h0a5.5,5.5,0,0,1-.88,1.37h0a.46.46,0,0,0-.07.07h0l0,0a2.51,2.51,0,0,1-.31.26l0,0h0a3,3,0,0,1-.41.22h-.2c-.14,0-.22-.15-.26-.5V64c0-.06,0-.13,0-.21h0a7.27,7.27,0,0,1,.41-2.09A17.86,17.86,0,0,1,108,59l.11-.19,0-.07h0l0,0h0c.17-.29.35-.56.54-.83h0a.43.43,0,0,1,0-.07l0,.06-.53-.47-.74-.62a14.75,14.75,0,0,0-5.76-2.56h-.44a8.08,8.08,0,0,0-1.72.19l-.15.06h0l-.13,0a26.15,26.15,0,0,1-3-1.48,13.46,13.46,0,0,1-3.28-2l-.56-.32a12.39,12.39,0,0,0-6.41-1.81c-.33,0-.68,0-1,0-1,.11-2.09.24-3.13.39l-1.8.28L78.86,50l1.06-.33h0L78.86,50l1.06-.33h0L78.86,50l1.06-.33-1.33.21-3.24.52L72.2,51c-2.48.47-4.87.94-7.26,1.29h0c.13-.22.26-.43.4-.64A8.94,8.94,0,0,1,68,48.85c-1-.37-2.2-1.35-3.11-1.75A2.94,2.94,0,0,0,64,47c-1.41,0-2.62,1-4.11,1.28a6.67,6.67,0,0,1-2.63-1.09,1.67,1.67,0,0,0-1-.35"/><path class="b" d="M107.51,64.38h0a3,3,0,0,1-.41.22h0a3,3,0,0,0,.41-.22h0m-.89-.57c0,.08,0,.15,0,.21h0c0-.06,0-.13,0-.21h0m2.2-1.18h0a5.72,5.72,0,0,1-.88,1.37h0a5.5,5.5,0,0,0,.88-1.37m-.64-3.93,0,0h0l0,0h0M99.5,54.43h0l-.15.06h0l.15-.06h0m2.16-.18h0a14.75,14.75,0,0,1,5.76,2.56h0a14.75,14.75,0,0,0-5.76-2.56h0m-8.8-3.19h0a13.46,13.46,0,0,0,3.28,2h0a13.46,13.46,0,0,1-3.28-2h0M79.92,49.64h0L78.86,50l1.06-.33h0"/><path class="a" d="M70.72,47.57a5.79,5.79,0,0,0-.58.43,7.3,7.3,0,0,1,1-.14,3.58,3.58,0,0,1-.39-.29"/><path class="a" d="M92.86,51.06a13.46,13.46,0,0,0,3.28,2c-1.19-.67-2.23-1.35-3.28-2"/><path class="a" d="M101.66,54.25a14.75,14.75,0,0,1,5.76,2.56l-.75-.57a9.48,9.48,0,0,0-5-2"/><path class="a" d="M99.5,54.43l-.19,0h0l.15-.06"/><polyline class="a" points="108.78 57.8 108.78 57.8 108.78 57.8 108.78 57.8"/><path class="a" d="M108.78,57.8l0,0,0,0h0"/><polyline class="a" points="108.7 57.91 108.7 57.91 108.85 58.04 108.7 57.91"/><path class="a" d="M108.69,57.91c-.19.27-.37.54-.54.83l0,0h0l0,.07c.16-.28.41-.67.54-.87"/><path class="a" d="M107,61.72a7.27,7.27,0,0,0-.41,2.09h0c0,.08,0,.15,0,.21h0a2.44,2.44,0,0,1,0-.26,13.78,13.78,0,0,1,.39-2"/><path class="a" d="M84.64,70.48c.45.27,1,.59,1.54,1l3.49,2.17a11.11,11.11,0,0,0-3.34-2.45,14.17,14.17,0,0,0-1.69-.67M115,68.06a1.77,1.77,0,0,0-1.13,1A37.09,37.09,0,0,0,112,76.72c-.32,2.42-.46,4.73-.8,6.85,0,.26-.07.5-.1.74l.06.61c0-.43.1-.89.18-1.4.34-2.11.48-4.42.8-6.84A36.4,36.4,0,0,1,114,69a1.69,1.69,0,0,1,1-1"/><path class="a" d="M71.66,71.92a24.14,24.14,0,0,0-5.15,3.56s-.19.31-.48.84l.3-.29a30.08,30.08,0,0,1,5.33-4.11"/><path class="a" d="M75.45,85.56a14.41,14.41,0,0,0-2,.13,14.22,14.22,0,0,0-4.12,1.21A43,43,0,0,1,77,86.24h.58c.87,0,1.75,0,2.63.06a16.1,16.1,0,0,0-4.71-.73m35.55-3q0,.65.09,1.2l0-.36-.06-.84"/><path class="a" d="M62.46,91.38l-.33.13a7.63,7.63,0,0,0,.23,1c0-.35.07-.73.1-1.15"/><path class="a" d="M53.33,92.76l.05.07-.05-.07"/><path class="a" d="M55.32,98.19a2.91,2.91,0,0,1,0,.31,7.05,7.05,0,0,1,.09.82c0,.34.06.66.07.94h0a17.65,17.65,0,0,0-.2-2.06"/><path class="a" d="M56.35,102.46l-.85.16c0,.1,0,.2,0,.3V103c0,.06,0,.12,0,.19-.05.62-.13,1.18-.21,1.64l0,.1v0c0,.13,0,.26-.07.37s0,.15,0,.22v0h0l0,.12h0l0-.18a20.83,20.83,0,0,1,1-2.54c.09-.18.18-.35.26-.52"/><path class="a" d="M55.24,104.86l-.12.6,0-.14c0-.11.05-.23.07-.37l0-.09"/><path class="a" d="M55.08,105.64l0,.12v-.12"/><path class="a" d="M55.05,105.76v0l0,.12v0l0-.06v-.06"/><path class="c" d="M115.93,67.87a2.59,2.59,0,0,0-1,.19,2.82,2.82,0,0,1,.86-.14,2,2,0,0,1,.83.16,9.63,9.63,0,0,1,3.89,4c1.13,1.84,2.14,4,3.28,6.24.65.53,1.36,2,2.06,2.39A5.54,5.54,0,0,1,127.75,83a17.26,17.26,0,0,1,1.05,5.84h0a17.68,17.68,0,0,1-.77,5A15.7,15.7,0,0,1,125.28,99a14.52,14.52,0,0,1-5.15,4.08,16.57,16.57,0,0,1-5.68,2,30.08,30.08,0,0,1-3.68.31h-1.45a36.93,36.93,0,0,1-4.21-.22,17.07,17.07,0,0,0-3.06-.23c-.85,0-1.69,0-2.53,0H99.1a8.26,8.26,0,0,1-4.85-1.26l-1-.56c-2-1.07-3.65-2.13-5.52-3a58.65,58.65,0,0,0-7.12-2.81c-1.68-.52-5.47-2.66-7.77-3a18.27,18.27,0,0,0-4.24-.59,6.57,6.57,0,0,0-2.4.38,3.12,3.12,0,0,1-1.59.43,5.12,5.12,0,0,1-.56,0l-.55,0a2.39,2.39,0,0,0-1.36.41l-.09.07h0a2.34,2.34,0,0,1,1.36-.42,4.71,4.71,0,0,1,.53,0c.18,0,.36,0,.55,0a3.1,3.1,0,0,0,1.6-.44,6.65,6.65,0,0,1,2.42-.38,17.9,17.9,0,0,1,4.2.58c.65.16,1.31.33,2,.53l.94.29c.47.24.81.39,1.2.57,1.51.69,2.76,1.28,3.66,1.59a57.08,57.08,0,0,1,7.18,2.85c1.88.93,3.53,2,5.57,3.12l1,.52A8.33,8.33,0,0,0,99,105.07h.42c.84,0,1.67,0,2.53,0a17.21,17.21,0,0,1,3.07.24,37.73,37.73,0,0,0,4.25.22l1.42,0a28.79,28.79,0,0,0,3.64-.28,16.67,16.67,0,0,0,5.68-1.87,14.45,14.45,0,0,0,5.27-4.06A15.65,15.65,0,0,0,128.1,94a17,17,0,0,0-.17-10.93,5.93,5.93,0,0,0-1.88-2.34c-.7-.35-1.41-1.87-2.06-2.42-1.14-2.29-2.15-4.45-3.29-6.3a9.75,9.75,0,0,0-3.91-4,2.09,2.09,0,0,0-.86-.17"/><path class="d" d="M115.81,67.92a2.82,2.82,0,0,0-.86.14,1.69,1.69,0,0,0-1,1,36.4,36.4,0,0,0-1.79,7.65c-.32,2.42-.46,4.73-.8,6.84-.08.51-.14,1-.18,1.4a31.38,31.38,0,0,0,.62,4c0,.2.09.38.13.55a3.15,3.15,0,0,0,1.2-.66,1.3,1.3,0,0,0,.49-.92.54.54,0,0,0-.23-.47h0a8,8,0,0,0,.45-1.63,14.43,14.43,0,0,0,.19-2.55c0-.48,0-1,0-1.49,0-.68-.07-1.36-.07-2h0a5.5,5.5,0,0,1,.23-1.84,1.18,1.18,0,0,1,1.15-.9,3.12,3.12,0,0,1,1.49.5,13.66,13.66,0,0,1,2.41,1,12.67,12.67,0,0,1,3.86,3s.06.15.18.41.3.72.51,1.3a14.94,14.94,0,0,1,.82,4.82v.13h0a14.63,14.63,0,0,1-1.5,6.53,12.31,12.31,0,0,1-2.54,3.46,11,11,0,0,1-4,2.37,10.88,10.88,0,0,1-3.34.5h-.51a15.89,15.89,0,0,1-2.76-.36c-1.64-.32-3.16-.65-4.47-1-2.61-.66-4.35-1.31-4.58-1.91,0,0-.54-.19-1.47-.46s-2.27-.56-3.84-1.14c-2-.67-4-2.35-6-4.17a27.12,27.12,0,0,0-7-4.86,18.68,18.68,0,0,0-2.37-.9c-.88,0-1.76-.06-2.63-.06H77a43,43,0,0,0-7.57.66,17.79,17.79,0,0,0-5.18,3.76l-1.65.68-.09,0c0,.42-.06.8-.1,1.15a4.84,4.84,0,0,0,.24.61h0l-.35.31c-.13.88-.23,1.38-.25,1.46l.09-.07a2.39,2.39,0,0,1,1.36-.41l.55,0a5.12,5.12,0,0,0,.56,0,3.12,3.12,0,0,0,1.59-.43,6.57,6.57,0,0,1,2.4-.38,18.27,18.27,0,0,1,4.24.59c2.3.34,6.09,2.48,7.77,3a58.65,58.65,0,0,1,7.12,2.81c1.87.92,3.52,2,5.52,3l1,.56A8.26,8.26,0,0,0,99.1,105h.42c.84,0,1.68,0,2.53,0a17.07,17.07,0,0,1,3.06.23,36.93,36.93,0,0,0,4.21.22h1.45a30.08,30.08,0,0,0,3.68-.31,16.57,16.57,0,0,0,5.68-2A14.52,14.52,0,0,0,125.28,99,15.7,15.7,0,0,0,128,93.83a17.68,17.68,0,0,0,.77-5A17.26,17.26,0,0,0,127.75,83a5.54,5.54,0,0,0-1.88-2.28c-.7-.35-1.41-1.86-2.06-2.39-1.14-2.26-2.15-4.4-3.28-6.24a9.63,9.63,0,0,0-3.89-4,2,2,0,0,0-.83-.16"/><polyline class="d" points="112.49 90.96 112.51 90.99 112.49 90.96 112.49 90.96"/><path class="e" d="M112.49,91h0l0,0,0,0M80.14,69.8a15.83,15.83,0,0,0-2,.12,19.44,19.44,0,0,0-6.46,2A30.08,30.08,0,0,0,66.33,76l-.3.29c-.17.32-.39.73-.62,1.2a37.31,37.31,0,0,0-3.24,10.81,15,15,0,0,0-.12,1.85,9.51,9.51,0,0,0,.08,1.33l.33-.13.09,0,1.65-.68a17.79,17.79,0,0,1,5.18-3.76,14.22,14.22,0,0,1,4.12-1.21,14.41,14.41,0,0,1,2-.13,16.1,16.1,0,0,1,4.71.73,18.68,18.68,0,0,1,2.37.9,27.12,27.12,0,0,1,7,4.86c2,1.82,4,3.5,6,4.17,1.57.58,2.91.86,3.84,1.14s1.47.46,1.47.46c.23.6,2,1.25,4.58,1.91,1.31.32,2.83.65,4.47,1a15.89,15.89,0,0,0,2.76.36h.51a10.88,10.88,0,0,0,3.34-.5,11,11,0,0,0,4-2.37,12.31,12.31,0,0,0,2.54-3.46,14.63,14.63,0,0,0,1.5-6.53v-.13a14.94,14.94,0,0,0-.82-4.82c-.21-.58-.39-1.06-.51-1.3s-.18-.41-.18-.41a12.67,12.67,0,0,0-3.86-3,13.66,13.66,0,0,0-2.41-1,3.12,3.12,0,0,0-1.49-.5,1.18,1.18,0,0,0-1.15.9,5.5,5.5,0,0,0-.23,1.84c0,.62,0,1.3.07,2,0,.5,0,1,0,1.49h0a14.43,14.43,0,0,1-.19,2.55,8,8,0,0,1-.45,1.63.54.54,0,0,1,.23.47h0a1.3,1.3,0,0,1-.49.92,3.15,3.15,0,0,1-1.2.66c0-.17-.09-.35-.13-.55a31.38,31.38,0,0,1-.62-4l-.06-.61c0-.52-.09-1.08-.13-1.7,0-.32,0-.65-.06-1a1.23,1.23,0,0,0,0-.14h0v0l0-.06-.11-.1a1.28,1.28,0,0,0-.37-.18l-.71-.26-.23-.09c-.2-.83-1-1.15-2-1.15a8.24,8.24,0,0,0-1,.06,21.1,21.1,0,0,0-2.73.6l-.28.08a14.67,14.67,0,0,1-2.85,1.28,6.39,6.39,0,0,1-2,.3,6.87,6.87,0,0,1-1.57-.18A10.62,10.62,0,0,1,94,80.38a7.14,7.14,0,0,1-2.15-1.91,2.65,2.65,0,0,1-.28-.52l-.1-.27,0-.13,0-.09a2.82,2.82,0,0,1-.19-1h0a2,2,0,0,1,0-.42,6.74,6.74,0,0,0-1-1.72,7.64,7.64,0,0,0-.63-.76l-3.49-2.17c-.56-.36-1.09-.68-1.54-1a14.69,14.69,0,0,0-4.5-.68"/><path class="f" d="M77.94,59.89A29.49,29.49,0,0,0,75,60,28,28,0,0,0,60.72,65.5a25.41,25.41,0,0,0-7.46,8.65A20.85,20.85,0,0,0,52,77.24c-.24.75-.34,1.18-.34,1.18a5,5,0,0,0-.15,1.22,10.92,10.92,0,0,0,1,4c.37.88.78,1.75,1.16,2.6s.77,1.71,1.11,2.53A35.09,35.09,0,0,1,56.21,93c.14.52.25,1,.33,1.27l.11.46c0,2.16.12,3.06.43,3.2a.27.27,0,0,0,.12,0c.32,0,.81-.53,1.44-1.18l.56-.61.67-.6c.45-.41.9-.82,1.31-1.16l1.07-.93.35-.31a4.84,4.84,0,0,1-.24-.61,7.82,7.82,0,0,1-.31-2.35h0a15,15,0,0,1,.12-1.85,37.31,37.31,0,0,1,3.24-10.81c.23-.47.45-.88.62-1.2.29-.53.48-.84.48-.84a24.14,24.14,0,0,1,5.15-3.56,19.44,19.44,0,0,1,6.46-2,15.83,15.83,0,0,1,2-.12,14.69,14.69,0,0,1,4.5.68,14.17,14.17,0,0,1,1.69.67,11.11,11.11,0,0,1,3.34,2.45,7.64,7.64,0,0,1,.63.76,6.74,6.74,0,0,1,1,1.72h0a2,2,0,0,0,0,.42,2.82,2.82,0,0,0,.19,1h0l0,.09,0,.13.1.27a2.65,2.65,0,0,0,.28.52A7.14,7.14,0,0,0,94,80.38a10.62,10.62,0,0,0,3.09,1.35,6.87,6.87,0,0,0,1.57.18,6.39,6.39,0,0,0,2-.3,14.67,14.67,0,0,0,2.85-1.28l.65-.35.52-.29c-.46,0-.86-.43-1.07-1a6.35,6.35,0,0,1-.42-2,.87.87,0,0,1-.88,0c-.9-.39-1.38-2.32-1.39-4.1h0c0-.16,0-.32,0-.47a16.86,16.86,0,0,1,.47-3.45,7.73,7.73,0,0,0,.81-2.6.7.7,0,0,0-.15-.52l-.09-.07h0l.08.08-.21-.16c-.27-.21-.55-.41-.83-.59a18.06,18.06,0,0,0-4.78-2.13,22.54,22.54,0,0,1-4,.42,9.77,9.77,0,0,1-1.33-.08,3.46,3.46,0,0,1-1.44-.42,22.75,22.75,0,0,0-11.48-2.84"/><path class="f" d="M105.51,79.18s-.31.2-.88.51h0a1.15,1.15,0,0,0,.87-.51"/><path class="g" d="M55.29,98h0l0,.2a17.65,17.65,0,0,1,.2,2.06v.06h0c0-.37,0-.7-.07-1a7.05,7.05,0,0,0-.09-.82.78.78,0,0,0,0-.16L55.29,98h0m-1.91-5.16-.05-.07h0l.05.07h0M59.7,43.46a4.75,4.75,0,0,0-1,.1,19.67,19.67,0,0,0-8.78,2c-.35,2.24-2.73,1.85-4.18,2.54a1.7,1.7,0,0,1-.61.08H44a12.92,12.92,0,0,0-2,1.33,2.7,2.7,0,0,1-1.59.6,2.36,2.36,0,0,1-.58-.07,23.16,23.16,0,0,0-6.62-1,19,19,0,0,0-5,.67,23.75,23.75,0,0,0-8.92,5.76c-.43.44-.87.88-1.29,1.33s-.83,1-1.23,1.48-.77,1-1.13,1.51-.69,1.08-1,1.6a24.3,24.3,0,0,0-2.46,5.4,20.41,20.41,0,0,0-.91,5.26v.44a28.5,28.5,0,0,0,.4,5.12A42.44,42.44,0,0,0,13,83.08l.85,2.65a27.73,27.73,0,0,0,2.19,5,.45.45,0,0,1,0,.13h0a0,0,0,0,1,0,0,1,1,0,0,1-.34-.25,12.75,12.75,0,0,1-1.07-1.13c.16.31.34.64.53,1a28.75,28.75,0,0,0,5.75,7.16,32.13,32.13,0,0,0,6.6,4,25,25,0,0,0,7.39,2,31.18,31.18,0,0,0,5.71.62h.61c1.27,0,2.57-.07,3.5-.15.58,0,1.22-.12,1.75-.19l1.51-.2,1.41-.21,1.35-.24c1.85-.17,3.41-.42,4.76-.67h0l.85-.16.84-.16,1.16-.23c.2,0,.34-.06.51-.09l.24,0,.12,0h0l-4.38-6.78c-.15-.82-.32-1.56-.53-2.34-.32-1.23-.7-2.5-1.05-4.31a7,7,0,0,0-.65-2,4.93,4.93,0,0,0-1-1.47l-.07,0c-.11,0-.24.13-.38.34a4.22,4.22,0,0,0-.42,1.21,6.93,6.93,0,0,0-.1,1.15c0,.19,0,.4,0,.61h0c0,.12,0,.21,0,.33h0a.78.78,0,0,1,0,.14,10.12,10.12,0,0,1-.74,1,12.77,12.77,0,0,1-2.73,2.42,15.16,15.16,0,0,1-6.52,2.37,17.12,17.12,0,0,1-2.22.13H38a18.63,18.63,0,0,1-3.16-.41,18.23,18.23,0,0,1-3.24-1c-.53-.23-1-.48-1.55-.75s-.94-.54-1.39-.83-.89-.61-1.33-.95-.86-.72-1.25-1.08a24.15,24.15,0,0,1-2-2.09,32.85,32.85,0,0,1-2.24-3.15c-.2-.32-.41-.63-.61-.94l-.43-.63c-.28-.4-.54-.79-.79-1.18a23.58,23.58,0,0,1-2.19-4.22A9.25,9.25,0,0,1,17.09,75c-.25-1.24-1.58-1.87-1.75-3.19h0a14.1,14.1,0,0,1,.8-3.37,12.23,12.23,0,0,1,1.48-2.62c.29-.4.58-.77.89-1.13s.64-.65,1-1c.66-.61,1.34-1.19,2-1.75a21.83,21.83,0,0,0,2.65-2.84c.46-.53.92-1.08,1.37-1.63L26.84,56a21.71,21.71,0,0,1,3.33-3.36h0c.76,1.1,1.8,2.11,2.69,3.18a7.94,7.94,0,0,1,1.9,3.45c.07.31.82.67,1.22,1a4.78,4.78,0,0,0,1.65.38.52.52,0,0,0,.33-.07h0a.61.61,0,0,0,0,.16c0,.09,0,.13.1.13a1.4,1.4,0,0,0,.61-.36c.56-.4,1.3-1.15,2.1-1.83,1.14-1.06,2.32-2.09,2.32-2.5,0-.12-.1-.19-.34-.19h-.09c1.35-.19,1.94-1.22,2.61-2.46s1.39-2.64,2.6-3.3c1.78-1.13,4.5.09,5.77-1.53.88-.81,1.66-1.9,2.64-1.9a1.67,1.67,0,0,1,1,.35,6.67,6.67,0,0,0,2.63,1.09C61.33,47.92,62.54,47,64,47a2.94,2.94,0,0,1,1,.15C66,47.6,67.56,49,68.75,49a1.28,1.28,0,0,0,1.13-.67c.34-.63,1.36-.83,1.36-1.44a.48.48,0,0,0,0-.2h0c-.57,0-1.3-.5-2-.6-1.46-.39-2.64.13-4-.58-1.4-.53-2.69-1.47-4.07-1.89a6.84,6.84,0,0,0-1.38-.15"/><path class="g" d="M55.5,102.62c0,.36,0,.69-.09,1,0-.15,0-.3.05-.45s0-.13,0-.19v-.06c0-.1,0-.2,0-.3"/><path class="g" d="M55.41,103.62c0,.19,0,.38-.07.55,0-.17,0-.35.07-.55"/><path class="g" d="M55.34,104.17a2,2,0,0,1,0,.26c0,.15,0,.29-.06.43l0,.09v0l0-.1c0-.17.06-.39.09-.64"/><path class="g" d="M55.22,105c0,.14,0,.26-.07.37,0-.11.05-.24.07-.37"/><path class="g" d="M55.15,105.32l0,.14,0,.18v0l0-.12v0c0-.07,0-.14,0-.22"/><path class="g" d="M55.07,105.69v0s0,.06,0,.08l0,.06v0l-.07.28v0l0-.08.11-.33v-.1h0"/><polyline class="g" points="54.94 106.2 54.91 106.3 54.91 106.3 54.94 106.2"/><path class="h" d="M92.68,50.81a1,1,0,0,0,.18.25,13.46,13.46,0,0,0,3.28,2l.12.06a14.09,14.09,0,0,1-3.4-2,1,1,0,0,1-.18-.25"/><path class="h" d="M96.26,53.09l2.12,1-2.12-1"/><path class="h" d="M98.41,54.08l.94.41h0l-.9-.4"/><path class="h" d="M107.75,57l.94.69-.94-.69"/><path class="h" d="M108.79,57.78v0h0a.44.44,0,0,0-.08.11h0c-.19.27-.37.54-.54.83h0c.17-.29.35-.56.54-.83h0a.44.44,0,0,1,.08-.11h0v0h0m0,0h0m0,0h0"/><polyline class="h" points="108.8 57.77 108.79 57.78 108.79 57.78 108.8 57.77"/><path class="h" d="M108.18,58.71l0,.07c-.08.17-.3.6-.49,1.08.24-.6.52-1.11.52-1.15"/><path class="i" d="M108.82,62.63a5.5,5.5,0,0,1-.88,1.37h0a5.72,5.72,0,0,0,.88-1.37h0M107,61.72h0a7.27,7.27,0,0,0-.41,2.09h0a7.27,7.27,0,0,1,.41-2.09h0"/><path class="h" d="M108.82,62.63a5.72,5.72,0,0,1-.88,1.37,5.72,5.72,0,0,0,.88-1.37"/><path class="h" d="M106.62,63.81c0,.08,0,.15,0,.21s0,0,0,.07a2.16,2.16,0,0,1,0-.28"/><path class="h" d="M107.94,64a.46.46,0,0,0-.07.07.46.46,0,0,1,.07-.07"/><polyline class="h" points="107.87 64.07 107.87 64.07 107.87 64.07"/><path class="h" d="M107.87,64.07l0,0,0,0"/><path class="h" d="M107.84,64.1a2.51,2.51,0,0,1-.31.26,2.51,2.51,0,0,0,.31-.26"/><path class="h" d="M107.53,64.36l0,0,0,0"/><path class="j" d="M53.38,38.32a13.49,13.49,0,0,0-3,.33c-.87.19-1.24,1.38-1.85,2.06a8,8,0,0,1-2.85,1.86,4.75,4.75,0,0,0-2.61,2.82c-.1.42-.57.59-1.08.64a35.55,35.55,0,0,0-6.44-.59c-.65,0-1.3,0-2,.05a34.36,34.36,0,0,0-8.84,1.65c-2,.52-5.87,2.89-9.31,6.7-.43.48-.85,1-1.26,1.45s-.8,1.06-1.18,1.59-.74,1.06-1.08,1.58-.65,1.11-.94,1.64a31.94,31.94,0,0,0-1.46,2.95c-.38.91-.65,1.66-.82,2.18s-.29,1.07-.41,1.59-.2,1.09-.28,1.62c-.15,1.07-.25,2.11-.3,3.09,0,.29,0,.57,0,.85a29.72,29.72,0,0,0,.38,4.73,28,28,0,0,0,1.23,4.42,18.65,18.65,0,0,0,1.59,3.14,17.08,17.08,0,0,0,1.53,2.08L14.22,89l.41.49a12.75,12.75,0,0,0,1.07,1.13,1,1,0,0,0,.34.25,0,0,0,0,0,0,0,.45.45,0,0,0,0-.13,27.73,27.73,0,0,1-2.19-5L13,83.08a42.44,42.44,0,0,1-1.31-5.45,28.5,28.5,0,0,1-.4-5.12h0v-.44a20.41,20.41,0,0,1,.91-5.26,24.3,24.3,0,0,1,2.46-5.4c.31-.52.64-1.07,1-1.6s.74-1,1.13-1.51.81-1,1.23-1.48.86-.89,1.29-1.33a23.75,23.75,0,0,1,8.92-5.76,19,19,0,0,1,5-.67,23.16,23.16,0,0,1,6.62,1,2.36,2.36,0,0,0,.58.07,2.7,2.7,0,0,0,1.59-.6,12.92,12.92,0,0,1,2-1.33h1.13a1.7,1.7,0,0,0,.61-.08c1.45-.69,3.83-.3,4.18-2.54a19.67,19.67,0,0,1,8.78-2,4.75,4.75,0,0,1,1-.1,6.84,6.84,0,0,1,1.38.15c1.38.42,2.67,1.36,4.07,1.89,1.37.71,2.55.19,4,.58.74.1,1.47.57,2,.6h0c.18-.3.73-.46.73-.73a.31.31,0,0,0-.1-.2c-.36-.6-1.12-.85-1.66-1.19-2.38-.9-4.56-2.43-6.5-3.34-3.54-1.59-6.81-2.9-10.29-2.9"/><path d="M83.24,65.32c3.32-.52,6.37-1.15,9.45-1.44a19.61,19.61,0,0,1,9.47,1.61,19.68,19.68,0,0,0,4.51,1.28c5.13.81,8.9,3.93,12.54,7.24a54.71,54.71,0,0,1,5.53,5.66c4.51,5.49,7.49,11.59,5.94,18.94-1.75,8.3-6.52,14.1-14.73,16.8-1.67.55-3.32,1.15-5,1.67-9.52,3-18,.35-25.75-5.19a37.41,37.41,0,0,1-7.53-7C72.26,98.17,69.76,90.41,71,81.65c.1-.74.17-1.49.3-2.66-1.82,1.12-3.33,1.94-4.73,2.93a21,21,0,0,1-7.21,2.9,75.7,75.7,0,0,0-8,3A29.61,29.61,0,0,1,33.52,89c-3.91-1-7.32-3.07-9.18-7a9.91,9.91,0,0,0-1.71-2.38c-3.31-3.66-3.42-8-2.55-12.45,1.3-6.66,4.88-12.08,9.53-16.88,1-1,1.78-2.27,2.75-3.34A49.29,49.29,0,0,1,54,32.45c4.45-1.44,8.89-1.22,13.36-.35a8.27,8.27,0,0,1,2.41,1C71.84,34.32,74,35.52,76,36.81a6.43,6.43,0,0,1,1.64,1.65,30.74,30.74,0,0,1,6,19C83.7,60,83.41,62.49,83.24,65.32ZM34.5,72.57c-3.37.62-4,3.19-4.57,5.66-.69,3,.59,4.45,3.71,4.41A41.92,41.92,0,0,0,45.17,81,46.62,46.62,0,0,0,61.3,73,67.36,67.36,0,0,0,69,65.44a51,51,0,0,0,5.83-7.32c2.88-4.62,4.57-9.6,2-15-1.23-2.5-2.44-5.13-5.24-6.51-1.12,1-2.09,2.55-3.16,2.61-1.75.12-2.25,1.19-3.06,2.2-.55.69-1.2,1.3-1.79,1.95l-6.3,6.85c-2.74-.66-3,1.82-3.58,4l-2.4-.87c-.3,1.3-.55,2.38-.86,3.74l-2.57-1.81c-.37,1.37-.64,2.37-.9,3.37s.63,2.22-1.16,2.53c-.26-1-.51-1.91-.88-3.3-1.34,2.61-.49,5.3-2.6,7.44-.1-1.65-.16-2.86-.25-4.39-2.16,1.64-1.13,4.35-2.85,6l-1-1.22c-1,1.07-.19,2.88-1.47,3.88l-1.45-1.58C35,69.72,34.75,71.06,34.5,72.57Zm45.34-2.64a43.19,43.19,0,0,0-2.57,3.88c-1.63,3.25-2.48,6.75-1.08,10.22,3.13,7.77,8.39,14.06,14.42,19.78,3.73,3.54,8.6,4.52,13.19,6.11.64.23,1.57-.5,2.28-.35.89.18,1.7,1.23,2.5,1.18a53.27,53.27,0,0,0,9-1.16c1.33-.32,3.17-1,3.46-2.71a12.89,12.89,0,0,0-.06-6.08C118.59,93,113.38,88,105.72,85.38,101.83,84.07,98,82.7,94,81.62a18.29,18.29,0,0,1-11.85-9.21A15.9,15.9,0,0,0,79.84,69.93ZM25.73,79.75A40.92,40.92,0,0,0,29.35,74c3.27-6.87,8.37-12.29,14-17.17a109.74,109.74,0,0,1,10.16-7.48,64.25,64.25,0,0,0,10.65-9.59A4.43,4.43,0,0,0,65,34.66c-.64-1.66-2.36-1.08-3.63-1.24a14.72,14.72,0,0,0-3.8.18C50.75,34.57,45,38,39.86,42.25a87,87,0,0,0-8.17,8.34C27.1,55.54,23.47,61.05,22.1,67.8,21.19,72.28,21.87,76.3,25.73,79.75ZM83,67.59c1.25,2.6,2.21,4.85,3.39,7a8.82,8.82,0,0,0,5.35,3.9c5,1.66,10.1,3.17,15.1,4.91,7.72,2.68,13.38,7.57,16,15.55.6,1.82,1.11,3.66,1.65,5.47,2.2-.59,3.16-2,3.73-4,2-7.35-.15-13.53-5-19-1.76-2-3.83-3.65-5.68-5.54a24.11,24.11,0,0,0-13.67-7.49c-2-.31-3.85-1.35-5.83-1.8A19.27,19.27,0,0,0,92.24,66C89.28,66.22,86.36,67,83,67.59Zm-3.79,0c1.62-2.75,2.27-5,1.37-7.66C80,58.21,80.2,56.25,80,54.4c-.06-.67-.21-1.34-.4-2.57-.67,1.8-1.12,3-1.53,4.16-.15.44-.45,1.07-.27,1.36,1.48,2.34.58,4.95.92,7.41C78.86,65.55,79,66.34,79.2,67.58Zm-4,4.17c1.83-1.45,2.51-2.64,2.28-4.4-.28-2.12-.31-4.28-.5-6.42a10.68,10.68,0,0,0-.54-1.73,4.73,4.73,0,0,0-1.35,4.43C75.53,66.07,75.2,68.65,75.2,71.75Zm-6.75,6.07.67.29c.79-1,2.14-2,2.25-3,.25-2.37-.53-4.66-2.43-7.06C68.76,71.67,68.6,74.74,68.45,77.82Zm32.46,38,3.08.21.56-3.18-3.25-1.22C101.15,113.21,101.05,114.34,100.91,115.86ZM90.69,106.5c-.31,1.64-.58,3-.79,4.27-.26,1.62.54,2.3,2.2,2.35C92.12,110.86,92.67,108.62,90.69,106.5ZM94.22,109c.49,1.87-1.81,4.46,1.58,6C95.94,112.64,97,110.45,94.22,109Zm-6-4.4c-2,2.9-2,5.08,0,6.74Zm-8.85-.39c1.79-5.71,1.85-6.81.49-8.51C79.67,98.47,77.9,100.92,79.41,104.25ZM73.07,64.54c-.68,4-.42,7.55.86,9.25-.14-3.18-.26-6.08-.41-9C73.51,64.72,73.23,64.63,73.07,64.54Zm4.19,35.76a33.66,33.66,0,0,0,.71-4c.07-1.2,1.18-2.51-.19-3.74C75.86,97.76,75.8,98.38,77.26,100.3Zm7.49,1c.44,2.43-2,4.85,0,7.66C86.13,103,86.13,103,84.75,101.29ZM66.72,71c-.46.83-1,1.38-1,1.86.2,2-.76,4.11,1,6ZM53.27,84.69c1.82.18,1.79-.82,1.8-1.86,0-2.17,0-2.28-1.49-3Zm30,14.4-.69-.15c-.51,2-1.06,4.1-1.49,6.17-.06.27.51.67,1.18,1.48ZM73,89.83l.75,0A10.45,10.45,0,0,0,73,83.1Zm25.9,25.62c.17-1.69,1.81-3.6-.76-5.35C98.06,112.25,96.83,114,98.89,115.45ZM63.3,74.39c0,2-1.42,3.9-.06,5.83A7.34,7.34,0,0,0,63.3,74.39Zm45.6,41.21,5.86-2.48C110.3,112.27,109.91,112.42,108.9,115.6Zm-60.64-29c.68-3.23.44-3.9-1.29-3.7C46.89,85.91,46.89,85.91,48.26,86.63Zm26.45,8.9c1.32-2.59,1.54-4.24.83-6.4C75.3,91.37,74.11,93,74.71,95.53ZM57.52,77.36c-1,2.38-1.09,4-.32,5.88C58.53,82,58.62,80.78,57.52,77.36Zm-6.61,3.57c-1.09,2.74-1,3.24.15,4.72C51.82,83.32,51.82,83.2,50.91,80.93Zm9.29,0c1-2.4,1-2.78,0-4.56ZM44.48,87.36l.85-.09a3.34,3.34,0,0,0-1.19-3.37C44.26,85.05,44.37,86.21,44.48,87.36ZM106,115.62c1.72-2,1.72-2,.15-2.55ZM42.27,84.69l-.65.06c0,.93-.46,2,1,2.69Zm-5.59,2.5.94-.25-.68-2.31-.75.19C36.35,85.61,36.52,86.4,36.68,87.19Z"/></svg>