<svg xmlns="http://www.w3.org/2000/svg" viewBox="0 0 150 150"><defs><style>.a{fill:#d9cdc5;}.b{fill:#8eca8f;}.c{fill:#7dc07f;}.d{fill:#409841;}.e{fill:#3a933c;}.f{fill:#4aa14b;}.g{fill:#68b569;}.h{fill:#b5ddb5;}.i{fill:#61b062;}.j{fill:#7cc17e;}.k{fill:#e0efe0;}.l{fill:#bcab9e;}.m{fill:#b19d8f;}.n{fill:#816654;}.o{fill:#7e614e;}.p{fill:#89715d;}.q{fill:#a48c7d;}.r{fill:#d2c8be;}.s{fill:#749b6a;}.t{fill:#9d8575;}.u{fill:#b29e8f;}.v{fill:#ece8e4;}</style></defs><title>icon</title><path class="a" d="M73.35,121.65h0l0,0a7,7,0,0,0,.79,0h0a7,7,0,0,1-.79,0h0l0,0m2.41-.07h0l-.15,0h0l.15,0m2.59-1.65h0a1.88,1.88,0,0,1-.52.77h0a1.88,1.88,0,0,0,.52-.77M69,119.51a1.7,1.7,0,0,1,.19.19s.66.41,1.4.78a9.25,9.25,0,0,0,1.39.58h0a9.25,9.25,0,0,1-1.39-.58h0c-.74-.37-1.4-.78-1.4-.78h0a1.7,1.7,0,0,0-.19-.19h0m10.44,0h0c-.52.16-1,.36-1.09.39h0c.08,0,.57-.23,1.09-.39M66,118a4.66,4.66,0,0,1,1.33.34h0A4.66,4.66,0,0,0,66,118h0m17.91-1.31h0a6.06,6.06,0,0,1-2.16,2.36,2.09,2.09,0,0,1-1,.32h0a2.09,2.09,0,0,0,1-.32,6.06,6.06,0,0,0,2.16-2.36"/><path class="a" d="M74.19,121.71h0m-.84-.06h0l0,0h0l0,0m-2.72-1.17h0a9.25,9.25,0,0,0,1.39.58h0a9.25,9.25,0,0,1-1.39-.58h0m-1.59-1a1.7,1.7,0,0,1,.19.19h0a1.7,1.7,0,0,0-.19-.19h0M66,118a4.66,4.66,0,0,1,1.33.34h0A4.66,4.66,0,0,0,66,118h0"/><path class="b" d="M101.77,56.57a1.38,1.38,0,0,0-.17.25,3.52,3.52,0,0,1,.39-.17l-.22-.08"/><path class="b" d="M71.69,57.07a1.38,1.38,0,0,0-.93.34l-1.26.16a9.09,9.09,0,0,0-.85,1.62c-.43.89-.48,1.5-.71,1.5a.13.13,0,0,1-.08,0h0c-.11,0-.1,2.36-.77,3.71,0,0,.15.27.41.66a12.24,12.24,0,0,1,1.3-2.46,2.07,2.07,0,0,1,1.51-1c.49,0,1,.35,1.63,1.26a22.81,22.81,0,0,1,2.95,2.38c1.25,1.23,2.5,2.77,2.49,4.32h0a2.7,2.7,0,0,1-.07.63,36.51,36.51,0,0,1-2.65,7.15c-1.79,3.68-4.78,7.59-8.34,8.22,0,0-.72.06-2.1,2.14,0,0-.25.14-.65.31a6.21,6.21,0,0,1-1.58.47,4.58,4.58,0,0,1-.83.08A3.08,3.08,0,0,1,58.36,87s-1.24-1-2.69-2-3-1.92-4.13-1.92h-.16A6.51,6.51,0,0,0,50.54,82a2.38,2.38,0,0,0-1.1-.78l-.78,0h0a1.35,1.35,0,0,1,.47-.09,1.1,1.1,0,0,1,.31,0l1-.07c-2.65-.19-5.06-.94-5.08-1.85l-.65-.45a16.19,16.19,0,0,1-1.44-1.18,8.06,8.06,0,0,1-2.09-2.76c0,.28.07.57.09.86.05.6.07,1.24.07,1.89h0c0,1.09,0,2.23-.11,3.34s-.36,2.64-.36,4a4.69,4.69,0,0,0,0,.53c.07,1.46.54,2.68,1.84,3.1a12.47,12.47,0,0,0,2.91.27l1.73,0a11.92,11.92,0,0,1,2.25.19A10.74,10.74,0,0,0,48,88.75c-.42,0-.82-.06-1.18-.06h0c-.35,0-.67,0-.93,0-.53,0-.86.1-.86.1h0s.33-.06.86-.1c.26,0,.56,0,.91,0h0q.54,0,1.17.06a10.74,10.74,0,0,1,1.56.28,6.26,6.26,0,0,1,1.78.64A9.68,9.68,0,0,1,53.5,91.1a13.84,13.84,0,0,0,3.72,1.77l.17.1a2.21,2.21,0,0,0,.5.08H58l1.11.6c.32,0,.64,0,1,0h2.14a5.69,5.69,0,0,0,2.63-.94,3.77,3.77,0,0,0,.61-.77.14.14,0,0,0,0-.07h0l0,0a6.83,6.83,0,0,1,1.31-.4A4.41,4.41,0,0,1,68,91.14a.53.53,0,0,1,.19,0,3.56,3.56,0,0,0,2.54-1.39c.37-.49.74-1,1.09-1.49a4.34,4.34,0,0,0,.23-.43,4.34,4.34,0,0,1-.23.43h0a4.34,4.34,0,0,0,.23-.43,4.34,4.34,0,0,1-.23.43h0a4.34,4.34,0,0,0,.23-.43,4.34,4.34,0,0,1-.23.43c1.51-2.08,2.92-4.1,4.69-5A7.2,7.2,0,0,1,80,82.45h.37c.45,0,2.52,1.56,3.44,2.21.25-.63.49-1.26.73-1.76.25-.34.66-.26,1-.47a.41.41,0,0,1,.19,0c.34,0,.7.37,1,.64a6.86,6.86,0,0,0,.54.62,5.32,5.32,0,0,0,.42-.67,31.56,31.56,0,0,1,3.61-6.39c.6-.49,1.51-.29,2.22-.74,1.46-1.37,1.59-3.49,2.28-5.07,1.78-2.36,2.11-3.65,2.18-4.33a1.15,1.15,0,0,0,0-.18,1.41,1.41,0,0,0-.12-.58h0s0,0,0,0a.39.39,0,0,1,.3-.11,2.66,2.66,0,0,1,.71.15,3.23,3.23,0,0,0,.79.15.84.84,0,0,0,.35-.07,2,2,0,0,0,.72-1.71,4.44,4.44,0,0,0-.11-1,20.47,20.47,0,0,1-.37-3.28h0a4,4,0,0,1,.58-2.34c-.53,0-1.23-.25-1.72-.27-.94.07-1.25.94-1.93,1.45a2.27,2.27,0,0,1-.59.08,5.78,5.78,0,0,1-.77-.07l-.23,0c-.64,0-.71.73-.93,1.3-.19.92-1.57.72-2.09,1.34-.74.76-.33,2.61-1.51,2.65.14,0,.2,0,.2.12h0c0,.2-.47.6-1,.94a3.45,3.45,0,0,1-1.21.54c-.06,0-.09,0-.09-.07h0a.13.13,0,0,1,0-.08h0a1.81,1.81,0,0,1-.76-.54,3.27,3.27,0,0,1-.42-.66c-.1-1.1-1.1-2.36-1.73-3.5h0a6.48,6.48,0,0,0-.65.19,3.87,3.87,0,0,1-1.13.19,1.88,1.88,0,0,1-1-.25c-.84-.54-1.64-1.24-2.16-1.24H81a.19.19,0,0,0,0,.08c0,.18.1.51.1.69h0a.22.22,0,0,1,0,.1,30.71,30.71,0,0,1-1.26,3.3c-.75,1.54-1.87,3-2.26,3h0a2.63,2.63,0,0,1-1.15-1.67c-.34-1.82-1.14-2.48-1.69-3.92-.12-.39-.1-.9-.22-1.3-.43-1-1-2.23-1.47-2.37a2.35,2.35,0,0,0-1.3-.45"/><path class="c" d="M46.83,88.69c-.35,0-.67,0-.93,0h0c-.53,0-.86.1-.86.1h0s.33-.06.86-.1c.26,0,.58,0,.93,0h0m0,0h0c.36,0,.76,0,1.18.06a10.74,10.74,0,0,1,1.56.28h0a10.76,10.76,0,0,0-1.36-.26l-.2,0h0c-.42,0-.82-.06-1.18-.06m25.22-.84a4.34,4.34,0,0,1-.23.43h0a4.34,4.34,0,0,0,.23-.43"/><path class="b" d="M42.24,60.76a1.32,1.32,0,0,0-.67.33,12,12,0,0,0-3.48,6.25,4,4,0,0,0-.08.75c0,1.6,1.07,2.63,2,3.8a5.27,5.27,0,0,1,1,2.5c0-.22.06-.71.06-1.28,0-.19,0-.38,0-.58-.34-.21-.67-.43-1-.66-.94-1.17-2-2.19-2-3.79h0a4.18,4.18,0,0,1,.08-.76,12,12,0,0,1,3.47-6.24,1.29,1.29,0,0,1,.61-.32"/><path class="b" d="M67.75,65.43l.36.51.15-.16a3.54,3.54,0,0,0-.51-.35"/><path class="b" d="M66.33,69.81a52.7,52.7,0,0,1-3.75,3.72,8.5,8.5,0,0,0,3.75-3.72"/><path class="b" d="M70.65,73.28a1.46,1.46,0,0,1-.05.2,27.92,27.92,0,0,1-1,3.13,18.2,18.2,0,0,0,1.06-2.85h0a1.87,1.87,0,0,0,0-.21c0-.07,0-.16,0-.27"/><path class="b" d="M65.72,81l-.75.13-1.79.32a4.07,4.07,0,0,0,.5,0,4.76,4.76,0,0,0,1.32-.2,5.06,5.06,0,0,0,.72-.28"/><path class="b" d="M51.35,89.67l.29.17c.65.45,1.25.87,1.86,1.26a9.68,9.68,0,0,0-2.15-1.43"/><path class="b" d="M68,91.14a4.41,4.41,0,0,0-1.14.23c.48-.1.92-.15,1.33-.21a.55.55,0,0,0-.19,0"/><path class="b" d="M65.52,91.82h0a.14.14,0,0,1,0,.07.59.59,0,0,0,0-.08"/><path class="b" d="M64.87,92.67a5.69,5.69,0,0,1-2.63.94,3.93,3.93,0,0,0,2.63-.94"/><path class="b" d="M57.39,93a8.58,8.58,0,0,0,1.68.68h.06L58,93h-.13a2.21,2.21,0,0,1-.5-.08"/><path class="d" d="M42.56,60.72a1.22,1.22,0,0,0-.32,0,1.1,1.1,0,0,1,.25,0,.66.66,0,0,1,.36.08c.75.52.37,2.06.92,3.08.15,0,.32.26.51.26a.27.27,0,0,0,.12,0,.81.81,0,0,1,.32-.07,1.35,1.35,0,0,1,.29,0,11.49,11.49,0,0,1,2.65,2.69A23.5,23.5,0,0,0,51,68.37c1.17.75,2.37.38,3.48,1.48a3.59,3.59,0,0,0,2.16.8,6.46,6.46,0,0,0,3.1-1.07c.62-.35,1.79-.85,2.9-1.48A8,8,0,0,0,65.3,66c.45-1,1.25-.73,1.75-1.59l0-.05h0c-.5.86-1.3.61-1.75,1.59A7.84,7.84,0,0,1,62.69,68c-1.11.63-2.28,1.13-2.89,1.48a6.49,6.49,0,0,1-3.1,1.08,3.59,3.59,0,0,1-2.16-.8c-1.11-1.1-2.3-.73-3.47-1.47a23.38,23.38,0,0,1-3.35-1.58,11.64,11.64,0,0,0-2.65-2.68,2.36,2.36,0,0,0-.29,0,.66.66,0,0,0-.32.07l-.12,0c-.19,0-.36-.21-.51-.25-.55-1-.16-2.56-.92-3.07a.56.56,0,0,0-.35-.09"/><path class="e" d="M42.49,60.74a1.1,1.1,0,0,0-.25,0,1.29,1.29,0,0,0-.61.32,12,12,0,0,0-3.47,6.24,4.18,4.18,0,0,0-.08.76c0,1.6,1.07,2.62,2,3.79.34.23.67.45,1,.66v-.15c-.07-1.13-.27-2.29-1.13-2.71a11.61,11.61,0,0,1-.42-2.8h0v-.31c0-1.16.38-2.14,1.05-2.14a1,1,0,0,1,.54.18l.87.2a11.09,11.09,0,0,1,1.37.36l.28.31c.18.2.43.49.77.82a27.08,27.08,0,0,0,2.65,2.39c2.07,1.7,4.63,3.14,4.79,3.79a9.7,9.7,0,0,0,1.78,1,12.13,12.13,0,0,0,4.62,1h.2a9.22,9.22,0,0,0,4.11-1,52.7,52.7,0,0,0,3.75-3.72,11.89,11.89,0,0,0,1.09-3.07s.28-.35.69-.8l-.36-.51-.35-.17h0l.09-.22c-.26-.39-.39-.63-.41-.66l0,.05c-.5.86-1.3.61-1.75,1.59a8,8,0,0,1-2.64,2.08c-1.11.63-2.28,1.13-2.9,1.48a6.46,6.46,0,0,1-3.1,1.07,3.59,3.59,0,0,1-2.16-.8c-1.11-1.1-2.31-.73-3.48-1.48a23.5,23.5,0,0,1-3.36-1.58A11.49,11.49,0,0,0,45,64.1a1.35,1.35,0,0,0-.29,0,.81.81,0,0,0-.32.07.27.27,0,0,1-.12,0c-.19,0-.36-.22-.51-.26-.55-1-.17-2.56-.92-3.08a.66.66,0,0,0-.36-.08"/><path class="f" d="M40.6,64.42c-.67,0-1,1-1.05,2.14v.31a11.61,11.61,0,0,0,.42,2.8c.86.42,1.06,1.58,1.13,2.71,0,.25,0,.5,0,.73h0c0,.79-.07,1.42-.07,1.42a3,3,0,0,0,.09.38,8.06,8.06,0,0,0,2.09,2.76,16.19,16.19,0,0,0,1.44,1.18l.65.45c0,.91,2.43,1.66,5.08,1.85l.3,0c1.2-.11,2.82-.26,4.37-.47a39.84,39.84,0,0,1,4.43-.42c1.17,0,2,.2,2.39.8a3.41,3.41,0,0,0,1.29.4L65,81.12l.75-.13a8.55,8.55,0,0,0,3.87-4.38,27.92,27.92,0,0,0,1-3.13,1.46,1.46,0,0,0,.05-.2A17.62,17.62,0,0,0,70.29,70a7.67,7.67,0,0,0-2-4.19l-.15.16c-.41.45-.69.8-.69.8a11.89,11.89,0,0,1-1.09,3.07,8.5,8.5,0,0,1-3.75,3.72,9.22,9.22,0,0,1-4.11,1h-.2a12.13,12.13,0,0,1-4.62-1,9.7,9.7,0,0,1-1.78-1c-.16-.65-2.72-2.09-4.79-3.79a27.08,27.08,0,0,1-2.65-2.39c-.34-.33-.59-.62-.77-.82l-.28-.31A11.09,11.09,0,0,0,42,64.8l-.87-.2a1,1,0,0,0-.54-.18"/><path class="g" d="M70.3,61.54a2.07,2.07,0,0,0-1.51,1A12.24,12.24,0,0,0,67.49,65l-.09.22.35.17c1.4.79,2.17,2.72,2.54,4.54a18.52,18.52,0,0,1,.37,3.58h0a1.87,1.87,0,0,1,0,.21h0a18.2,18.2,0,0,1-1.06,2.85A8.55,8.55,0,0,1,65.72,81a5.06,5.06,0,0,1-.72.28,4.76,4.76,0,0,1-1.32.2A3.63,3.63,0,0,1,61.89,81c-.34-.6-1.22-.8-2.39-.8a39.84,39.84,0,0,0-4.43.42c-1.55.21-3.17.36-4.37.47l-1.26.09a2.38,2.38,0,0,1,1.1.78,6.51,6.51,0,0,1,.84,1.17h.16c1.17,0,2.74,1,4.13,1.92s2.69,2,2.69,2a3.08,3.08,0,0,0,2.79,1.46,4.58,4.58,0,0,0,.83-.08A6.21,6.21,0,0,0,63.56,88c.4-.17.65-.31.65-.31,1.38-2.08,2.1-2.14,2.1-2.14,3.56-.63,6.55-4.54,8.34-8.22a36.51,36.51,0,0,0,2.65-7.15,2.7,2.7,0,0,0,.07-.63c0-1.55-1.24-3.09-2.49-4.32a22.81,22.81,0,0,0-2.95-2.38c-.59-.91-1.14-1.26-1.63-1.26"/><path class="g" d="M49.13,81.18a1.35,1.35,0,0,0-.47.09l.78,0a1.1,1.1,0,0,0-.31,0"/><path class="h" d="M71.22,53.85a.73.73,0,0,0-.29.07c-.32.25-.8.21-1,.58-.41.89-.7,2.14-1.06,3.16l.67-.09,1.26-.16a1.38,1.38,0,0,1,.93-.34,2.35,2.35,0,0,1,1.3.45c.44.14,1,1.33,1.47,2.37.12.4.1.91.22,1.3.55,1.44,1.35,2.1,1.69,3.92a2.63,2.63,0,0,0,1.15,1.67h0c.39,0,1.51-1.48,2.26-3a30.71,30.71,0,0,0,1.26-3.3.22.22,0,0,0,0-.1c0-.18-.1-.51-.1-.69h0a.19.19,0,0,1,0-.08h.08c.52,0,1.32.7,2.16,1.24a1.88,1.88,0,0,0,1,.25,3.87,3.87,0,0,0,1.13-.19A6.48,6.48,0,0,1,86,60.7h0c.63,1.14,1.63,2.4,1.73,3.5a3.27,3.27,0,0,0,.42.66,1.81,1.81,0,0,0,.76.54h0a.13.13,0,0,0,0,.08s0,.07.09.07A3.45,3.45,0,0,0,90.27,65c.52-.34,1-.74,1-.94s-.06-.11-.2-.12h0c1.18,0,.77-1.89,1.51-2.65.52-.62,1.9-.42,2.09-1.34.22-.57.29-1.3.93-1.3l.23,0a5.78,5.78,0,0,0,.77.07,2.27,2.27,0,0,0,.59-.08c.68-.51,1-1.38,1.93-1.45.5,0,1.22.27,1.74.27.36,0,.63-.11.69-.49s.36-.49.36-.73a.34.34,0,0,0-.07-.17h-.12l-.34,0a2.1,2.1,0,0,0-.36,0l-.2,0c-.68,0-1.09.39-1.74.39h-.25c-.28,0-.56,0-.85,0s-.57-.05-.84-.05l-.45,0a2.78,2.78,0,0,0-1.05.44,9.38,9.38,0,0,0-3.12,2.25,1,1,0,0,1,.07.36h0c0,.68-.84.74-1.21,1.06-.15.09-.42,0-.66.08-.37.21-.53.69-1,.69a.83.83,0,0,1-.35-.08c-1.54-.75-2.93-1.45-4.19-2-.52-.2-1.6-.47-2.56-.76l-1.3-.42a4.84,4.84,0,0,0-.78-.26.93.93,0,0,0-.27,0,1,1,0,0,0-.66.29,1.07,1.07,0,0,1-.65.28h-.08s0-.12-.07-.3a1.11,1.11,0,0,0-.19.09v0h0c0,.12-.08.36-.08.49h0c-.17,0-.35-.13-.6-.38a6.55,6.55,0,0,0-2.71-2.12,8.9,8.9,0,0,1-2.88-1.75,2.33,2.33,0,0,0-1.15-.53"/><path class="i" d="M68,91.14a.47.47,0,0,1,.3.07.47.47,0,0,0-.3-.07"/><path class="j" d="M51.35,89.67h0A9.68,9.68,0,0,1,53.5,91.1h0a9.68,9.68,0,0,0-2.15-1.43h0m-4.51-1h0q.54,0,1.17.06h0l.2,0a12.89,12.89,0,0,1,1.36.26h0A10.74,10.74,0,0,0,48,88.75q-.63-.06-1.17-.06"/><path class="i" d="M53.74,91.32h0s.77.44,1.69.88c-.92-.44-1.69-.88-1.69-.88m-5.53-2.55a10.76,10.76,0,0,1,1.36.26,9.36,9.36,0,0,1,1.78.64,9.69,9.69,0,0,1,2.39,1.65l-.24-.22a9.68,9.68,0,0,0-2.15-1.43A9.36,9.36,0,0,0,49.57,89a12.89,12.89,0,0,0-1.36-.26m-1.37-.08h0c.36,0,.76,0,1.18.06q-.63-.06-1.17-.06"/><path class="i" d="M45.9,88.72c-.53,0-.86.1-.86.1s.33-.06.86-.1m.91,0c-.35,0-.65,0-.91,0,.26,0,.58,0,.93,0h0"/><path class="k" d="M97.26,54.77c-2.5,0-4.66.33-6.14,1.3-.29.19-.14.72-.22,1.07-.1.81-1.06,1-1.07,1.93a1.71,1.71,0,0,0,0,.31s0,0,0,0h0c0,.13-.12.2-.27.2h0a40,40,0,0,1-5.71-2.07,7.2,7.2,0,0,0-1.1-.4l-1.29-.4c-.83-.27-1.52-.53-1.73-.6h-.14c-.64,0-.76.47-.81,1a2.09,2.09,0,0,0,0,.25,2.78,2.78,0,0,0,.12.93H79a1.07,1.07,0,0,0,.65-.28,1,1,0,0,1,.66-.29.93.93,0,0,1,.27,0,4.84,4.84,0,0,1,.78.26l1.3.42c1,.29,2,.56,2.56.76,1.26.51,2.65,1.21,4.19,2a.83.83,0,0,0,.35.08c.43,0,.59-.48,1-.69.24,0,.51,0,.66-.08.37-.32,1.21-.38,1.21-1.06a1,1,0,0,0-.07-.36h0a9.38,9.38,0,0,1,3.12-2.25,2.78,2.78,0,0,1,1.05-.44l.45,0c.27,0,.56,0,.84.05s.57,0,.85,0h.25c.65,0,1.06-.37,1.74-.39l.2,0a2.1,2.1,0,0,1,.36,0l.34,0h.12c0-.14.22-.26.22-.37a.14.14,0,0,0-.08-.12,2.37,2.37,0,0,0-.94-.37c-1.24-.13-2.54-.45-3.64-.48h-.13"/><path class="l" d="M85.86,85.63a1.06,1.06,0,0,0-.7.26l-1.19,0a10.39,10.39,0,0,0-1,1.55c-.5.84-.61,1.44-.84,1.44a.16.16,0,0,1-.1,0h0c-.12,0-.29,2.34-1.07,3.65a6.07,6.07,0,0,0,.37.69,11.12,11.12,0,0,1,1.5-2.35A2.18,2.18,0,0,1,84.33,90c.5,0,1,.39,1.52,1.4A25.09,25.09,0,0,1,88.38,94c1.05,1.28,2.11,2.83,2.11,4.33h0a3.49,3.49,0,0,1-.11.78,32.67,32.67,0,0,1-3,6.92c-2,3.51-5.06,7.08-8.14,7.56,0,0-.65,0-1.84,2.06a5.78,5.78,0,0,1-1.85.75,3.36,3.36,0,0,1-.71.08,2.4,2.4,0,0,1-2.24-1.38,25.83,25.83,0,0,0-2.25-1.78,6.55,6.55,0,0,0-3.14-1.43,1.42,1.42,0,0,0-.42.06,5.62,5.62,0,0,0-.8-1,1.68,1.68,0,0,0-1-.54l-.61.21h0a.84.84,0,0,1,.55-.22H65l.77-.27a15.89,15.89,0,0,1-2.27.19c-1.12,0-2-.2-2.08-.72a20.3,20.3,0,0,1-2-.86A7.41,7.41,0,0,1,57.06,107a24.11,24.11,0,0,1,1.67,5.56c.43,2.61.61,6.64,2.47,6.64h0c1.64-.13,3.19-1.2,4.75-1.2H66l-.42,0h0a5.09,5.09,0,0,0-.69,0,5.42,5.42,0,0,0-2.06.76,5.42,5.42,0,0,1,2.06-.76,5.09,5.09,0,0,1,.69,0h0l.42,0h0l-.42,0h0a5.09,5.09,0,0,0-.69,0,5.42,5.42,0,0,0-2.06.76,5.42,5.42,0,0,1,2.06-.76,5.09,5.09,0,0,1,.69,0h0l.42,0h0l-.42,0h0a5.09,5.09,0,0,0-.69,0,5.42,5.42,0,0,0-2.06.76,5.42,5.42,0,0,1,2.06-.76,5.09,5.09,0,0,1,.69,0h0l.42,0a3,3,0,0,1,1.33.34A5.58,5.58,0,0,1,69,119.51,10.09,10.09,0,0,0,71.89,121l.13.1a1.64,1.64,0,0,0,.34,0l.14,0,.85.56a7.23,7.23,0,0,1,1.05-.06h1.36a4.26,4.26,0,0,0,2.07-.88,3.57,3.57,0,0,0,.52-.77l0-.06h0l0,0a5.44,5.44,0,0,1,1.07-.34,3.61,3.61,0,0,1,.92-.18h0a.53.53,0,0,1,.23,0,3,3,0,0,0,2.24-1.21l1.06-1.41c.07-.13.15-.26.22-.4-.07.14-.15.27-.22.4h0c.07-.13.15-.26.22-.4-.07.14-.15.27-.22.4h0c.07-.13.15-.26.22-.4-.07.14-.15.27-.22.4,1.46-1.95,2.95-3.81,4.78-4.51a7.43,7.43,0,0,1,3-.64,7,7,0,0,1,.91,0c.46,0,2.62,2,3.36,2.59a1.61,1.61,0,0,0,1.06.43c1,0,1.86-1,2.41-1.89a23.88,23.88,0,0,1,3.7-5.86c.6-.41,1.45-.08,2.2-.45,1.63-1.2,2-3.34,2.83-4.89,2-2.28,2.44-3.71,2.55-4.38,0-.09,0-.16,0-.23a1.32,1.32,0,0,0-.12-.56h0s0,0,0,0a.48.48,0,0,1,.36-.13,2.94,2.94,0,0,1,.65.11,3.47,3.47,0,0,0,.72.1,1,1,0,0,0,.51-.12,2.22,2.22,0,0,0,.73-1.78,3.77,3.77,0,0,0-.19-1.17c-.34-1.41-.79-2.83-.94-4a5.3,5.3,0,0,1-.06-.77h0a3.42,3.42,0,0,1,.13-1c-.5.15-1.24.13-1.71.22-.85.26-.91,1.1-1.47,1.65a1.85,1.85,0,0,1-.82.15l-.46,0-.17,0c-.65,0-.58.67-.72,1.24-.09.86-1.41.65-1.86,1.19-.63.64-.27,2.42-1.34,2.42h0c.13,0,.18.06.18.13h0c0,.19-.46.54-1,.81a3.17,3.17,0,0,1-1.14.39c-.08,0-.12,0-.12-.07h0a.13.13,0,0,1,0-.08h0a1.85,1.85,0,0,1-.7-.63,3.34,3.34,0,0,1-.36-.7c0-1.06-.92-2.42-1.46-3.59h0c-.07,0-.22,0-.41.06a4.71,4.71,0,0,1-.71.06,2.19,2.19,0,0,1-1.37-.42c-.78-.66-1.51-1.48-2-1.48h0s0,.1,0,.17,0,.37,0,.53h0a.34.34,0,0,1,0,.19c-.13.07-.7,1.66-1.61,3.19s-2,2.84-2.34,2.84h0a2.67,2.67,0,0,1-1-1.76c-.23-1.83-.93-2.54-1.36-4-.1-.4,0-.91-.14-1.32a6,6,0,0,0-1.19-2.49,1.89,1.89,0,0,0-1.22-.57"/><path class="l" d="M113.36,86.36h-.24c0,.1-.05.2-.06.3a2.91,2.91,0,0,1,.3-.31"/><path class="l" d="M81.6,93.63l.32.53a1.07,1.07,0,0,1,.16-.14,2.93,2.93,0,0,0-.48-.39"/><path class="l" d="M50.66,94.35a1.06,1.06,0,0,0-.3.69v.26a17.9,17.9,0,0,0,1.31,6.8c.77,1.86,2.14,2.11,3.5,2.76a3.94,3.94,0,0,1,1.67,1.73,12.51,12.51,0,0,0-.6-1.68l-1-.1c-1.35-.65-2.72-.9-3.49-2.76a17.89,17.89,0,0,1-1.32-6.8h0a2.26,2.26,0,0,1,0-.26,1,1,0,0,1,.25-.64"/><path class="l" d="M79.89,97.92c-1.23,1.21-2.5,2.41-3.79,3.59a9.29,9.29,0,0,0,3.79-3.59"/><path class="l" d="M83.86,101.68a1.59,1.59,0,0,0-.07.2c-.34,1-.73,2.05-1.15,3a23,23,0,0,0,1.18-2.71s0-.17,0-.48"/><path class="l" d="M78.85,109.05c-.58.08-1.51.22-2.27.37a4.24,4.24,0,0,0,.53,0,4,4,0,0,0,1.08-.16,4.19,4.19,0,0,0,.66-.25"/><path class="l" d="M67.35,118.36l.24.14,1.45,1a5.58,5.58,0,0,0-1.69-1.15"/><path class="l" d="M80.4,119.29a3.61,3.61,0,0,0-.92.18c.42-.08.79-.1,1.15-.14a.53.53,0,0,0-.23,0h0"/><path class="m" d="M80.4,119.29h0a4,4,0,0,0-.88.18h0a3.61,3.61,0,0,1,.92-.18h0"/><path class="l" d="M78.39,119.86h0l0,.06,0-.07"/><path class="l" d="M77.83,120.7a4.26,4.26,0,0,1-2.07.88,2.88,2.88,0,0,0,2.07-.88"/><path class="l" d="M72,121.06a5.78,5.78,0,0,0,1.28.6h0l-.85-.56-.14,0a1.64,1.64,0,0,1-.34,0"/><path class="n" d="M81,92.53c-.56.81-1.38.53-1.9,1.48-1,1.4-4.54,2.78-5.8,3.52a6.93,6.93,0,0,1-3.43,1.27,4.36,4.36,0,0,1-2-.55c-1.34-.92-2.53-.33-3.92-.78s-2.56-.15-4-.52a10.17,10.17,0,0,0-4-1.38,1.1,1.1,0,0,0-.6.33.42.42,0,0,1-.33.12h-.29l-.13,0c-1.13-.6-2-2-3.14-2h0a1,1,0,0,0-.66.38,1,1,0,0,1,.61-.33h0c1.17,0,2,1.45,3.14,2l.14,0h.29a.39.39,0,0,0,.33-.12,1,1,0,0,1,.6-.32,10.26,10.26,0,0,1,4,1.37c1.46.38,2.55.2,4,.53s2.58-.14,3.92.77a4.38,4.38,0,0,0,2,.56,6.93,6.93,0,0,0,3.43-1.27c1.26-.74,4.77-2.13,5.8-3.52.52-.95,1.34-.67,1.9-1.48l0-.06h0"/><path class="o" d="M81,92.53l0,.06c-.56.81-1.38.53-1.9,1.48-1,1.39-4.54,2.78-5.8,3.52a6.93,6.93,0,0,1-3.43,1.27,4.38,4.38,0,0,1-2-.56c-1.34-.91-2.53-.33-3.92-.77s-2.56-.15-4-.53a10.26,10.26,0,0,0-4-1.37,1,1,0,0,0-.6.32.39.39,0,0,1-.33.12H54.6l-.14,0c-1.13-.6-2-2-3.14-2h0a1,1,0,0,0-.61.33,1,1,0,0,0-.25.64,2.26,2.26,0,0,0,0,.26,17.89,17.89,0,0,0,1.32,6.8c.77,1.86,2.14,2.11,3.49,2.76l1,.1-.06-.14c-.43-.91-1-1.81-1.85-1.81h-.11a16.2,16.2,0,0,1-1.84-2.36,3.73,3.73,0,0,1-.69-1.75h0c0-.42.24-.72.84-.77a16.31,16.31,0,0,1,2.33-.74L60,99c2.62.85,5.37,1.74,5.64,2.36a14.58,14.58,0,0,0,5.73,1.22l.61,0a10.22,10.22,0,0,0,4.11-1c1.29-1.18,2.56-2.38,3.79-3.59a13.61,13.61,0,0,0,1.28-3s.31-.34.75-.76l-.32-.53a3.9,3.9,0,0,0-.35-.19h0l.11-.22a6.07,6.07,0,0,1-.37-.69"/><path class="p" d="M82.08,94a1.07,1.07,0,0,0-.16.14c-.44.42-.75.76-.75.76a13.61,13.61,0,0,1-1.28,3,9.29,9.29,0,0,1-3.79,3.59,10.22,10.22,0,0,1-4.11,1l-.61,0a14.58,14.58,0,0,1-5.73-1.22c-.27-.62-3-1.51-5.64-2.36l-5.15-1.63a16.31,16.31,0,0,0-2.33.74c-.6,0-.84.35-.84.77a3.73,3.73,0,0,0,.69,1.75A16.2,16.2,0,0,0,54.22,103h.11c.8,0,1.42.9,1.85,1.81a13.21,13.21,0,0,1,.66,1.82l0,.13a2.49,2.49,0,0,0,.19.3,7.41,7.41,0,0,0,2.37,1.72,20.3,20.3,0,0,0,2,.86c.13.52,1,.72,2.08.72a15.89,15.89,0,0,0,2.27-.19c1-.33,2.36-.78,3.76-1.17a17,17,0,0,1,4-.71c.91,0,1.6.21,1.87.77a3,3,0,0,0,1.14.4c.76-.15,1.69-.29,2.27-.37a8.88,8.88,0,0,0,3.79-4.18c.42-.94.81-2,1.15-3a1.59,1.59,0,0,1,.07-.2c0-.28,0-.67,0-1.13a17.87,17.87,0,0,0-.13-2.2A7.44,7.44,0,0,0,82.08,94"/><path class="q" d="M84.33,90a2.18,2.18,0,0,0-1.47.92,11.12,11.12,0,0,0-1.5,2.35l-.11.22a3.9,3.9,0,0,1,.35.19c1.36.88,1.93,2.88,2.16,4.72a17.87,17.87,0,0,1,.13,2.2h0c0,.46,0,.85,0,1.13s0,.48,0,.48a23,23,0,0,1-1.18,2.71,8.88,8.88,0,0,1-3.79,4.18,4.19,4.19,0,0,1-.66.25,4,4,0,0,1-1.08.16,4.24,4.24,0,0,1-.53,0,3,3,0,0,1-1.14-.4c-.27-.56-1-.77-1.87-.77a17,17,0,0,0-4,.71c-1.4.39-2.78.84-3.76,1.17l-.77.27a1.68,1.68,0,0,1,1,.54,5.62,5.62,0,0,1,.8,1,1.42,1.42,0,0,1,.42-.06,6.55,6.55,0,0,1,3.14,1.43,25.83,25.83,0,0,1,2.25,1.78,2.4,2.4,0,0,0,2.24,1.38,3.36,3.36,0,0,0,.71-.08,5.78,5.78,0,0,0,1.85-.75c1.19-2,1.84-2.06,1.84-2.06,3.08-.48,6.09-4,8.14-7.56a32.67,32.67,0,0,0,3-6.92,3.49,3.49,0,0,0,.11-.78c0-1.5-1.06-3-2.11-4.33a25.09,25.09,0,0,0-2.53-2.64c-.5-1-1-1.4-1.52-1.4"/><path class="q" d="M64.94,110.39a.84.84,0,0,0-.55.22l.61-.21h-.06"/><path class="r" d="M102,95.56h0m0,0h0m0,0h0M87.22,83.66A3,3,0,0,1,85,85.14a1.77,1.77,0,0,1-1-.35l-.17-.12c-.17.44-.34.89-.52,1.29l.66,0,1.19,0a1.06,1.06,0,0,1,.7-.26,1.89,1.89,0,0,1,1.22.57,6,6,0,0,1,1.19,2.49c.1.41,0,.92.14,1.32.43,1.48,1.13,2.19,1.36,4a2.67,2.67,0,0,0,1,1.76h0c.39,0,1.5-1.38,2.34-2.84s1.48-3.12,1.61-3.19a.34.34,0,0,0,0-.19c0-.16,0-.37,0-.53h0c0-.07,0-.14,0-.17h0c.54,0,1.27.82,2,1.48a2.19,2.19,0,0,0,1.37.42,4.71,4.71,0,0,0,.71-.06c.19,0,.34-.06.41-.06h0c.54,1.17,1.43,2.53,1.46,3.59a3.34,3.34,0,0,0,.36.7,1.85,1.85,0,0,0,.7.63h0a.13.13,0,0,0,0,.08s0,.07.12.07a3.17,3.17,0,0,0,1.14-.39c.52-.27,1-.62,1-.81s-.05-.12-.18-.13h0c1.07,0,.71-1.78,1.34-2.42.45-.54,1.77-.33,1.86-1.19.14-.57.07-1.24.72-1.24l.17,0,.46,0a1.85,1.85,0,0,0,.82-.15c.56-.55.62-1.39,1.47-1.65.47-.09,1.21-.07,1.71-.22.31-.1.52-.26.52-.56a.76.76,0,0,0,0-.15.27.27,0,0,1,0-.13h0c0-.19.09-.39.09-.56a.29.29,0,0,0-.15-.26h0c-.22.15-.65.19-.94.36-.68.26-.9.78-1.64.89s-1.44.16-2.06.31a2.52,2.52,0,0,0-.83.48,8.15,8.15,0,0,0-2.42,2,1.05,1.05,0,0,1,.1.41h0c0,.54-.7.57-1,.8a.34.34,0,0,1-.18,0h-.41c-.32.14-.44.55-.8.55a.9.9,0,0,1-.38-.12l-3.76-2.45c-.45-.28-1.38-.7-2.21-1.16a16.83,16.83,0,0,0-1.9-.95.86.86,0,0,0-.34-.07,1.41,1.41,0,0,0-.68.25,1.47,1.47,0,0,1-.7.24H92.7a1,1,0,0,1,0-.3l-.21.08c0,.13-.13.38-.14.5-.18,0-.36-.14-.61-.41A7,7,0,0,0,89.17,85a9.26,9.26,0,0,1-2-1.35"/><path class="s" d="M85.7,82.4a.41.41,0,0,0-.19,0c-.29.21-.7.13-1,.47-.24.5-.48,1.13-.73,1.76l.17.12a1.77,1.77,0,0,0,1,.35,3,3,0,0,0,2.2-1.48,6.86,6.86,0,0,1-.54-.62c-.28-.27-.64-.64-1-.64"/><path class="a" d="M73.35,121.65h0l0,0h0a7,7,0,0,0,.79,0h0a7,7,0,0,1-.79,0h0l0,0M69,119.51a1.7,1.7,0,0,1,.19.19h0s.66.41,1.4.78h0a9.25,9.25,0,0,0,1.39.58h0a9.25,9.25,0,0,1-1.39-.58c-.74-.37-1.4-.78-1.4-.78h0a1.7,1.7,0,0,0-.19-.19h0M66,118a4.66,4.66,0,0,1,1.33.34h0A4.66,4.66,0,0,0,66,118h0"/><path class="t" d="M73.38,121.67h0a7,7,0,0,0,.79,0,7,7,0,0,1-.79,0m-4.15-2h0s.66.41,1.4.78c-.74-.37-1.4-.78-1.4-.78"/><path class="u" d="M77.83,120.7h0a4.26,4.26,0,0,1-2.07.88h0a4.26,4.26,0,0,0,2.07-.88h0m.56-.84h0l0,.06h0l0-.06h0m2-.57a3.61,3.61,0,0,0-.92.18h0a4,4,0,0,1,.88-.18h0"/><path class="t" d="M80.36,119.29a4,4,0,0,0-.88.18c-.52.16-1,.36-1.09.39h0c.08,0,.57-.23,1.09-.39a4,4,0,0,1,.88-.18"/><path class="t" d="M80.4,119.29a.41.41,0,0,1,.32.1.41.41,0,0,0-.32-.1"/><path class="t" d="M75.61,121.6a11.27,11.27,0,0,1-1.42.11,11.27,11.27,0,0,0,1.42-.11"/><path class="v" d="M93.66,85.29c-.85,0-1,1.07-1,1.7a1.74,1.74,0,0,0,0,.46h.13a1.47,1.47,0,0,0,.7-.24,1.41,1.41,0,0,1,.68-.25.86.86,0,0,1,.34.07,16.83,16.83,0,0,1,1.9.95c.83.46,1.76.88,2.21,1.16l3.76,2.45a.9.9,0,0,0,.38.12c.36,0,.48-.41.8-.55H104a.34.34,0,0,0,.18,0c.32-.23,1-.26,1-.8a1.05,1.05,0,0,0-.1-.41h0a8.15,8.15,0,0,1,2.42-2,2.52,2.52,0,0,1,.83-.48c.62-.15,1.38-.14,2.06-.31s1-.63,1.64-.89c.29-.17.72-.21.94-.36v0h0c0-.11.06-.23.06-.32s0-.11-.14-.12a.92.92,0,0,0-.29,0,5.45,5.45,0,0,0-.72.09,29.57,29.57,0,0,1-3.45.58c-2.3.43-4.08.52-5.12,1.18a.19.19,0,0,0-.08.18c0,.2.11.47.11.68v.07h0c0,.6-.69.66-.68,1.39a1.63,1.63,0,0,0,0,.41.14.14,0,0,1,0,.07h0c0,.09-.07.13-.17.13h-.07a25.89,25.89,0,0,1-5-2.8c-1-.69-3.14-1.85-3.57-2l-.26,0"/><path d="M113.78,57.63l5.65-1.91.22.5c-1.23,1.17-3.15,1.13-4.57,2.19l1.58,1.94c-.28.11-.5.24-.54.2-2.05-2-4.18-1.58-6.5-.46-1.76.85-3.66,1.39-5.48,2.12a18.46,18.46,0,0,0-2,1.09l5.07,5.49c3.29-.3,6-2.44,9.33-1.88l-7.73,3L110,72.17l-.24.18L107.3,70.4l-7.41,3.84c-.33-2.1,1.36-2.24,2.35-2.84,1.15-.69,2.43-1.16,4-1.89l-5.41-5.74c-1,.57-2.06,1.14-3.1,1.7S96,67.15,94.5,66.4c.44-1.27,1.59-1.59,2.44-2.17a20.68,20.68,0,0,1,3-1.4c-1.27-2.09-3-3.37-4.76-4.91-3.89,3.66-7.44,7.28-8.74,12.5-.16.64-.24,1.17-1.13.92-.15,0-.53.29-.62.51a11.21,11.21,0,0,0-.47,1.72c-.61,2.58-1.18,5.15-2.84,7.33a8.78,8.78,0,0,0-.74,1.71c.77,1,1.52,2,2.38,3.08-1.89.88-2.17-2.64-4.14-.8-.06-1.44.1-2.73-1.18-3.1L62.26,88.66c.76,2.07,3.51,2.71,4.2,5.36-2.87-.87-4-3.48-6.46-4.79-1.6.65-3.4,1.39-5.21,2.11A40.23,40.23,0,0,1,50,93.12c-.82.21-2.16.38-2.06-1.29C55,90.43,58.41,89,59.5,87.05c4.11.48,7.18-2,10.69-3.7L65.5,81.73c.78-1.84,2-.39,2.86-.67a8.79,8.79,0,0,0-5.2-2.43c-2.39-.26-4.23-1.51-6.3-3.28,2.39-.24,3.58,2.39,5.75,1.66-.92-2.27-.92-2.27-2.68-3.12.42.66.69,1.1,1,1.66-.3,0-.58.16-.71.07-1.45-1-2.92-2.06-4.28-3.21a2,2,0,0,0-2.32-.34C50,73.7,46.4,75.36,42.14,77.28l3.63,2.07-.2.44-8.32-3.46c1-1.18,1-1.18,3.91.52l3.42-2.4-5.76-5.31L36,70.72c-1.09-2.24,1-2.06,1.64-2.71V65.8a9.15,9.15,0,0,0,1.57.73,3.07,3.07,0,0,0,1.66.09c3.12-1.34,6.2-2.77,9.29-4.18a3.67,3.67,0,0,0,.56-.48c-1.48-1.67-3-3.33-4.46-5,1-.89,1.49-.24,2,.21a37.45,37.45,0,0,1,7.33,9.41,19.33,19.33,0,0,0,1.69,2.51c.77,1,1.61,2,2.51,3,.36-.23.9-.82,1.34-.76a3.14,3.14,0,0,1,1.65,1.06c.81.87,1.48,1.86,2.23,2.79,1.25,1.53,3.14,2.44,4,4.43.28.67,1.34,1,2,1.54a16.39,16.39,0,0,1,1.41,1.55c-.13-2,1.83-2.06,3.06-3.12-.84-2-2.72-3.14-4.09-4.67-.27-.3-1.25-.15-1.8,0a13.86,13.86,0,0,0-2,1.14c-.1.06-.3-.06-.61-.14.15-1.66,1.88-1.64,2.91-2.66C68.44,71.75,67,70.2,65.6,68.58l-3.28,1c.21-1.49,1.48-1.33,2.11-2.11-.57-1.59-2-2.62-3.08-3.85-.67-.74-.81-1.27.5-1.75.82,1,1.68,2,2.52,3.08,1.76,2.2,1.75,2.2,5,1.53l-2.25,1.71,4.1,4.69L74.72,72l.15.41-2.72,1.35c1.44,1.54,2.81,2.93,4.09,4.38.88,1,1.81.55,3.23.12L78,80l1.27,1.52a2.06,2.06,0,0,0,.49-.23c2.31-2.13,1.65-5.35,2.84-7.91.16-.34-.25-1.12-.6-1.51a22.47,22.47,0,0,1-5.89-17.66c.11-1.23.24-2.46.42-4.29.85,1.09,1.36,1.68,1.8,2.31,1.84,2.67,3.66,5.35,5.5,8a2.88,2.88,0,0,1,0,3.73,52.05,52.05,0,0,0-2.64,4.56l2.38,2.06C87,64.92,90.4,59.64,95.74,56c-.25-2.06-.48-4-.75-6.18l-6.16,2.14,2.24,2.45c-1.79.25-2.41-1.35-3.73-1.66l-4,2.14c-.86-.56-1.07-1.19-.12-1.74a25.81,25.81,0,0,1,3-1.3l-3.35-2.88a10,10,0,0,1,1.57-.17,1,1,0,0,1,.65.39c1.86,2.4,4.15,1.56,6.43.89l3-.87,5.6-6.66c1.1-1.3,2.2-2.61,3.33-3.88.31-.35.8-.87,1.13-.82.82.14,1-.09,1.15-.85a1.57,1.57,0,0,1,1.11-1c.83,0,1.13.62,1.07,1.41a1.72,1.72,0,0,1,0,.51c-.6,1.62-1.22,3.23-1.83,4.85l-.58-.09c.06-1.18.13-2.36.23-4.21l-4.22,4.68c.45.73,1.13,1.36,1.2,2.06a20.56,20.56,0,0,1-.22,3.66l-.69.05-1.16-4.53c-3.82,3.24-4.3,4.68-3.3,9.65l1.75-.52.32.42L97,56.62l4.15,5.53,11.06-4.28a59.65,59.65,0,0,1-4.6-4.21c-1.23-1.37-3.35-2-4-4.11a2.14,2.14,0,0,1,2.64.73C108.71,52.76,111.24,55.16,113.78,57.63ZM40.39,68l5.45,5.69,8.33-2.61-2.91-1.69.32-.64c.82.29,1.67.53,2.47.87s1.32,1.29,2.77,1c-.94-.82-1.64-1.41-2.31-2a8.37,8.37,0,0,1-1-1.07c-.85-1-1.65-2.12-2.51-3.15a1.58,1.58,0,0,0-2-.49ZM78,54.29a17.34,17.34,0,0,0,2.47,12.42l3.14-4.64c-.67-.94-1.33-1.85-2.09-2.9l-1.79,2.9c-1.65-2,.46-2.93.67-4.39Z"/><path d="M121.64,68.54c-2.76,2.64-5.59,5.21-8.28,7.93-3.14,3.17-7.13,4.88-11,6.75a175.33,175.33,0,0,1-20.19,8.64c-3.48,1.15-6.93,2.47-10.48,3.31-7.82,1.83-15.73,3-23.82,2.46A34.78,34.78,0,0,1,35,94.44c-3.43-1.66-5.92-4.55-8.11-7.64-.48-.68-.87-1.43-1.36-2.24-1.84.85-3.52,1.61-4.68,3.18s-1.09,2.27.31,3.51a4.69,4.69,0,0,0,1.71,1.07c2.63.7,4.7,2.35,6.91,3.79a36.61,36.61,0,0,0,3.28,2c1.51.76,3,1.64,4.71.19.28-.25.92-.08,1.45-.1-.57,2.12-2.84,3.46-4.64,2.74a37.38,37.38,0,0,1-4.35-2.15C27.12,97,24,95.25,21,93.37a6.75,6.75,0,0,1-2.28-2.29c-.86-1.51-1-3.16.54-4.42a33.22,33.22,0,0,1,3.82-2.88c1.41-.89,2.51-1.69,2.66-3.65.13-1.61,1.05-3.17,1.66-4.83l-2.49-.62c.65-.94.65-1,2.88-.57a13.53,13.53,0,0,0,3.68.33l-5.27-3.19c.42-1.2,1.11-.94,1.79-.46,2.72,1.92,5.5,3.76,8.09,5.82,2.89,2.3,6.31,3.23,9.7,4.31-1.53.35-2.12.26-4.65-.57-1.29-.43-2.6-.8-3.9-1.22-.32-.1-.79-.17-.91-.4-1.44-2.81-4.39-2.29-6.62-3.32a5.55,5.55,0,0,0-.59.81c-3.34,7.2-1.61,9.24,2.82,13.72,3.63,3.68,8.18,4.82,12.86,5.57a88.94,88.94,0,0,0,11.22.6,15.41,15.41,0,0,0,3.32-.21c4-.73,8-1.39,12-2.35a137.18,137.18,0,0,0,25.43-9.33c2.94-1.36,5.78-2.93,8.76-4.21,3.88-1.66,6.46-5,9.77-7.35A21,21,0,0,0,121.16,66a8,8,0,0,0,.37-8,17.28,17.28,0,0,1-1-2.36c-1.55-4.75-5-7.35-9.63-8.73a2.94,2.94,0,0,1-1.5-.88h4.32a1.75,1.75,0,0,1,1.54-1.9c1.65-.41,3.2-1.22,4.86-1.57A3.93,3.93,0,0,1,123,43c2.81,2.07,5.48,4.33,8.15,6.57A10.68,10.68,0,0,1,133,51.6c1.25,1.73.84,3.24-1.13,4a18.88,18.88,0,0,1-7,1.83c1.65-2.55,4.49-2.35,6.78-3.83A16.67,16.67,0,0,0,130,51.27c-1.09-1.07-2.33-2-3.52-3s-2.56-2-3.76-3.06a2.5,2.5,0,0,0-2.52-.85c-1.67.54-3.29,1.23-5.17,1.94,1.19.89,2.15,1.56,3.06,2.29a11.1,11.1,0,0,1,3.58,4.9c.38,1,.85,2,1.29,3.06,1.49,3.47,1.92,6.88-.43,10.2a14,14,0,0,0-.91,1.82Z"/><path d="M121.57,68.61c1.74-.67,2.62-.29,2.67,1.53a46.38,46.38,0,0,1-.46,6.1c-.27,2.45-.77,4.88-.91,7.34a7.16,7.16,0,0,1-2,4.83,12.39,12.39,0,0,0-3.06,4.89,12.75,12.75,0,0,1-5.61,6.76c-2.31,1.44-4.8,2.6-7.15,4a57.66,57.66,0,0,1-16.17,6.09c-5.61,1.29-11.25,3.14-17.13,2.31-4-.57-8-1.56-12-2.37-.92-.19-1.82-.5-2.75-.6-4.5-.5-8.18-2.74-11.71-5.35-1-.75-2.11-1.43-3.12-2.2s-2.24-1.3-2.05-3.24a10.07,10.07,0,0,1,1.87.71c2.28,1.5,4.59,3,6.75,4.63a19,19,0,0,0,8.17,3.39c3.84.78,7.66,1.66,11.47,2.53a26,26,0,0,0,9.63.62,92.94,92.94,0,0,0,22.18-5.91c3.13-1.29,6-3.3,9-4.81A15.91,15.91,0,0,0,115,95.21c.61-.81,1.15-1.68,1.71-2.54a28.45,28.45,0,0,1,1.92-3A10.5,10.5,0,0,0,121.29,83a71.85,71.85,0,0,1,1.07-8.1c.35-2.2.78-4.38-.71-6.35Z"/><path d="M83.87,79.34A6,6,0,0,1,85.76,75c4.67-4.15,10.22-6.54,16.81-8.29a13.46,13.46,0,0,1-1.29,2.64C98,73,94.58,76.6,89.86,78.55A12.17,12.17,0,0,1,83.87,79.34ZM89.65,77l3.76-2.09-.36-3.15C90,73.11,90,73.11,89.65,77Zm5.56-6.5-.71,3.58,6.29-5.58-.22-.33Zm-9.22,7c2.17-.38,2.17-.38,1.83-2.47Z"/><path d="M49.24,53.91a5,5,0,0,1,.95-.59C58,50.57,65.62,47.51,73.7,45.66c5.56-1.27,11-3,16.51-4.56a9,9,0,0,1,6,.45l-1.73.34c-.67.14-1.34.25-2,.41q-9,2.14-17.89,4.32c-6.8,1.65-13.28,4.29-19.88,6.57a45.31,45.31,0,0,1-5.31,1.19Z"/><path d="M79.85,75.53c-2.66-4.37-4.32-9.58-9.6-11.83l-.49,1.39c-2.79-3.9-5.49-7.52-6.15-12.27,4.74,1.72,8,5,11,9.52-2.36-.91-2.94-3.12-5-4.42A14.87,14.87,0,0,0,70.65,60c1.26,1.51,2.53,3,3.88,4.43a16.82,16.82,0,0,1,4.33,7.12,26.08,26.08,0,0,0,1.58,3.66Zm-8.24-13c-2.22-2-3.12-4.51-5.75-5.54L69,62.62c.38,0,.63.06.87.05C70.28,62.65,70.69,62.61,71.61,62.53Z"/><path d="M56.7,83l7.85,1.31-.06.53a31.59,31.59,0,0,1-8.67-.54c-.08-.51-.17-1-.26-1.63l-6.27-1.4c2.23-1.56,4.12.1,6.3,0-1.3-.56-2.61-1.1-3.91-1.67s-2.75-1.24-4.23-1.91c.26-.92.81-1.1,1.53-.79,1,.43,2,.94,3,1.43a7.6,7.6,0,0,0,4.36.88c2.73-.26,5.1,1.12,7.37,2.48a12.9,12.9,0,0,1,2.4,1.91C63,83.24,60,81.38,56.82,82.14Z"/><path d="M42.33,55.56l-7.49-5.45c.84-1,1.19-2,.07-3.17,3.15,1.07,4.72,3.59,6.76,5.5s3.95,3.89,4.64,6.73c-5-2.05-6.72-3.05-8.48-5,1-.43,1.55.43,2.22.85s1.27.75,1.9,1.11Z"/><path d="M46,92.83a16.15,16.15,0,0,1-2.76-1.47c-2.53-2-5-4.15-7.46-6.18-1.17-.94-2.48-1.71-3.67-2.62A7.32,7.32,0,0,1,31,81.27c.66-1.22,1.43-.94,2.14-.35,1.12.92,2.15,1.93,3.25,2.87l8.95,7.58a11,11,0,0,1,.94,1Z"/><path d="M54.17,82.72c-2.31,2.3-9,4.17-11.72,3.65,2-1.9,4.73-1.16,7.07-2.32l-7.18-.67a3,3,0,0,1-.18-.69c2.05-.91,4.11.22,6.14.07S52.21,82.72,54.17,82.72Z"/><path d="M34.09,64.24,42,58.45c2.1.27,2.1.27,5.15,3.59-.5-.28-1-.54-1.5-.82l-1.77-1-9.43,4.4Z"/><path d="M51.36,56.37c3.11.39,6.53,6.06,6.34,10.76C55.66,63.06,54.53,59.1,51.36,56.37Z"/><path d="M59.39,64.21l-5-8.56C56.51,56.34,59,60.44,59.39,64.21Z"/><path d="M98.69,47.62c.44.3,1,.51,1.28.92.49.76.13,3.34-.71,4.94-.44-2.07-.8-3.76-1.17-5.45Z"/><path d="M88.58,84l5-2.87c0,1.61-1,2.46-2.38,3C90.38,84.42,89.42,85.1,88.58,84Z"/></svg>