<svg xmlns="http://www.w3.org/2000/svg" viewBox="0 0 150 150"><defs><style>.a{fill:#e2dfde;}.b{fill:#c1bcb9;}.c{fill:#bfb8b5;}.d{fill:#c7c2bf;}.e{fill:#d5d1cf;}.f{fill:#edeceb;}.g{fill:#d2cdcb;}.h{fill:#f8f8f7;}</style></defs><title>icon</title><path class="a" d="M71.3,117.05A6.09,6.09,0,0,0,71,119c.41.35.83.7,1.26,1,.8.9,1.78,1.78,2.63,2.62a9.65,9.65,0,0,1,2.13,3,28.08,28.08,0,0,1,2.47,8.29c0,.26-.2.44-.53.53.38-.09.65-.27.63-.55a28,28,0,0,0-2.48-8.29,9.77,9.77,0,0,0-2.13-3c-.85-.83-1.83-1.71-2.64-2.61a4.33,4.33,0,0,1-1-2.92m10.75-9.16h0m0,0h0m-.43-.37,0,0h0a3.11,3.11,0,0,1,.41.31,3.05,3.05,0,0,0-.38-.32m-2.48-.62h0a2.07,2.07,0,0,0-.47.06l.22,0h.22A6.35,6.35,0,0,1,80,107a3.87,3.87,0,0,0-.83-.1m6.32-2.7a10.23,10.23,0,0,1-2.16,2.64l.38-.32a6.14,6.14,0,0,0,1.78-2.32m.32-1.21v.1h0s0-.07,0-.11m3.15-2.81a6.87,6.87,0,0,0-1.49,1.15l0,0h0l0,0-.17.16h0c.59-.51,1.18-.94,1.74-1.38M80.7,93.37l-1,.81c-.76.61-1.59,1.3-2.28,1.92a14,14,0,0,0,2.4-1.81c.29-.28.59-.58.9-.92m-4.1-10.7c-1,1.75-2.09,3.52-3.16,5.3-.43.71-.86,1.43-1.28,2.15.54-.63,1-1.27,1.54-1.93a18.65,18.65,0,0,0,2.9-5.52m8.32-1.56c0,.08,0,.16,0,.25a22.81,22.81,0,0,1-.19,4,17.81,17.81,0,0,0,.39-3.83s-.07-.17-.21-.45M78,76.83a6.5,6.5,0,0,0-.91.2l.76.09.15-.29m9.1-57.45-.31.1c-.31.09-.65.14-1,.23a4.49,4.49,0,0,0-.88.35c-1.3.87-1.56,2.75-2.1,4.35a8.7,8.7,0,0,1-1.3,1.75A2.17,2.17,0,0,0,81,27.84a18.73,18.73,0,0,0,.37,2,5.71,5.71,0,0,1,.06,2.57,7.22,7.22,0,0,0,0,2.66c.46,2.34,2.55,3.73,2.46,5.72,0-.17,0-.24.1-.24a8.88,8.88,0,0,1,1.12,2.61c.45,1.33.85,2.66.68,2.66s-.07,0-.13-.12a1.46,1.46,0,0,1-.57,1,3.64,3.64,0,0,1-.67.24.15.15,0,0,1-.09,0,2.78,2.78,0,0,0-1.41-.35c-.91,0-1.84.33-2.73.39,0,.07.32,1.2.64,2.48a8.9,8.9,0,0,1,.37,3.7c-.2.73-.45,1.42-.62,2.1a4.57,4.57,0,0,0-.09,2c.21.3.89.26,1.07.55s2.22,2.31,3.84,4.38a15,15,0,0,1,1.9,3,5.1,5.1,0,0,1,.42,1.2,1.2,1.2,0,0,1,0,.68,2.5,2.5,0,0,1-1.63.76,1,1,0,0,1-.44-.09A6,6,0,0,0,84,67.53c-.27,0-.53,0-.78,0s-.51,0-.77,0a4.81,4.81,0,0,1-1-.1c-.4-.09-.84-.36-1.24-.45-1-.18-2.19-.4-2.6-.4h-.08c-.77,0-1.14.22-1.13.86-.23.26-.51.57-.85.9,0,.59,0,1.28,0,2-.1,1.32.18,1.93-.33,2.09-.17.1.94,2.24.41,4.25l.94.16a27.46,27.46,0,0,1,.81-3.61,5.35,5.35,0,0,1,1.13-2.21A2,2,0,0,1,80,70.57a4.41,4.41,0,0,1,.85.08l1.21-.31c.76-.18,1.7-.47,2.76-.8L86.4,69A11.8,11.8,0,0,1,88,68.56a4.56,4.56,0,0,1,.81-.09,1.94,1.94,0,0,1,1.73.87s.15.22.39.64a11.34,11.34,0,0,1,.9,1.89,16.8,16.8,0,0,1,.95,7.48,26,26,0,0,1-3,9.81,24.81,24.81,0,0,1-6,7.65,2.58,2.58,0,0,0-.6.73A8.81,8.81,0,0,0,82,100.45a17.68,17.68,0,0,1-2,2.4,11.31,11.31,0,0,1-.92.79l-.22.15-.1,0-.22,0h-.11a3.69,3.69,0,0,1-1.36-.37,5.43,5.43,0,0,0-.94-.07,7.37,7.37,0,0,0-1.68.19c-1.42.28-3.06,1.23-3,2.08a5.09,5.09,0,0,0-1.42.58,1.54,1.54,0,0,0-.79,1,.75.75,0,0,0,.07.18,2.71,2.71,0,0,0,.21.46.7.7,0,0,1-.28-.64,4.67,4.67,0,0,1-.21-.84,5.85,5.85,0,0,0,0,.94,6.46,6.46,0,0,0,.47,1.75c.4,1,.69,1.67.28,2l.69,2.21a17.84,17.84,0,0,1,.89,3.24,6,6,0,0,1,.18-.84,8.47,8.47,0,0,1,2.8-3.94A24.67,24.67,0,0,1,78,109.46c1.19-.65,2.15-1,2-1.12a5.84,5.84,0,0,1-1.52-.59c-.23-.15-.34-.34-.29-.5a.27.27,0,0,0-.06.17l.06.18h0l0,0h0l0,0a1.39,1.39,0,0,0,.54.31,2,2,0,0,0,.44.11,2,2,0,0,1-.44-.11,1.39,1.39,0,0,1-.54-.31l0,0h0l0,0h0l-.06-.18h0a.27.27,0,0,1,.06-.17c0-.13.17-.23.44-.29a2.07,2.07,0,0,1,.47-.06h0a3.87,3.87,0,0,1,.83.1,5.35,5.35,0,0,1,1.53.47.24.24,0,0,1,.09.06h0l0,0h0a3.05,3.05,0,0,1,.38.32.23.23,0,0,1,0,0l0,0h0l.13-.1c.38-.28.77-.58,1.16-.89a10.23,10.23,0,0,0,2.16-2.64,4.55,4.55,0,0,0,.31-1.1h0V103h0v-.09a13.58,13.58,0,0,1,1.4-1.36h0l.17-.16,0,0h0l0,0a6.87,6.87,0,0,1,1.49-1.15,9.71,9.71,0,0,0,3.17-3.75c.38-.87.77-1.76,1.15-2.67.07-.22.14-.45.2-.68-.06.23-.13.46-.19.68.61-1.44,1.23-2.93,1.9-4.45,1.07-2.48,2.27-5,3.68-7.73a92.31,92.31,0,0,0,4.09-9.53,26.91,26.91,0,0,1,1.92-3.26l1.23-2.07c.35-.63.64-1.18.84-1.54A5,5,0,0,0,107.5,63a7.54,7.54,0,0,0-.22-2.36,11,11,0,0,0-.78-2.17,15.74,15.74,0,0,0-1.07-1.76c-2.7-3.06-5-5.53-7.13-8.34-.58-1.07-.4-2.31-.89-3.48a12.6,12.6,0,0,0-2.65-3.11l-1.43-1.26a15,15,0,0,1-1.26-1.27c-1-1.74-1.71-3.06-2.24-4a15.05,15.05,0,0,0-1.18-1.87c-.57-.71-.8-.49-.73-.67-.1-.83,1.17-1.32,1.41-2.27A5.26,5.26,0,0,0,88,27a8.41,8.41,0,0,1-1.71-4.85,5.13,5.13,0,0,1,.8-2.76m1.63-1.68a2.3,2.3,0,0,0-.35.41,3.51,3.51,0,0,1,.6-.33l-.25-.08"/><path class="b" d="M75.57,76.79c-.43,1.33-1.94,2-2.34,3.45a26.62,26.62,0,0,1-3.88,5.14l-2.54,3A31.18,31.18,0,0,0,64.64,91c-1.79,2.53-2.89,4.34-4,6s-2.28,3.05-3.72,5A8.15,8.15,0,0,0,55,106.45a14.43,14.43,0,0,0,.55,4.86,17.9,17.9,0,0,0,2.11,4.54c.87,1.36,1.78,2.69,2.89,4.22a24.47,24.47,0,0,0,3.07,4.35,24,24,0,0,0,1.95,2,23.78,23.78,0,0,0,2.17,1.75,3.05,3.05,0,0,0,1.29.42c.41,0,1.12.59,1.57.76,2.17,1.86,4,4.28,6.86,5.1a3.37,3.37,0,0,0,.8.1,2.58,2.58,0,0,0,.7-.09,3,3,0,0,1-.61.06,2.9,2.9,0,0,1-.79-.1c-2.85-.8-4.68-3.22-6.86-5.07-.45-.18-1.16-.75-1.56-.76a3.27,3.27,0,0,1-1.3-.41,27,27,0,0,1-2.16-1.74,24.34,24.34,0,0,1-5-6.29c-1.11-1.52-2-2.85-2.89-4.21a18,18,0,0,1-2.14-4.52,14.59,14.59,0,0,1-.58-4.84A8.16,8.16,0,0,1,56.89,102c1.44-1.9,2.59-3.33,3.71-5s2.23-3.43,4-6a32.84,32.84,0,0,1,2.17-2.66l2.54-3a27.19,27.19,0,0,0,3.89-5.15c.4-1.43,1.9-2.12,2.34-3.46a.31.31,0,0,0,0-.08h0"/><path class="c" d="M75.57,76.79a.31.31,0,0,1,0,.08c-.44,1.34-1.94,2-2.34,3.46a27.19,27.19,0,0,1-3.89,5.15l-2.54,3a32.84,32.84,0,0,0-2.17,2.66c-1.78,2.53-2.87,4.34-4,6s-2.27,3.06-3.71,5a8.16,8.16,0,0,0-1.83,4.53,14.59,14.59,0,0,0,.58,4.84,18,18,0,0,0,2.14,4.52c.87,1.36,1.78,2.69,2.89,4.21a24.34,24.34,0,0,0,5,6.29,27,27,0,0,0,2.16,1.74,3.27,3.27,0,0,0,1.3.41c.4,0,1.11.58,1.56.76,2.18,1.85,4,4.27,6.86,5.07a2.9,2.9,0,0,0,.79.1,3,3,0,0,0,.61-.06c.33-.09.55-.27.53-.53A28.08,28.08,0,0,0,77,125.6a9.65,9.65,0,0,0-2.13-3c-.85-.84-1.83-1.72-2.63-2.62-.43-.33-.85-.68-1.26-1v.18a4.88,4.88,0,0,0,.49,1.94,3.69,3.69,0,0,0,1.56,1.57s.33.56.84,1.31l1.73,2.64a6.3,6.3,0,0,1,1.07,2.25c0,.31-.15.51-.59.51a3.44,3.44,0,0,1-1.15-.27l-.52-.12a12.13,12.13,0,0,1-1.27-.33,18.53,18.53,0,0,1-2.94-1.07l-.79-.64c-.51-.42-1.19-1-2.07-1.84a37.38,37.38,0,0,1-5.53-6.61,26.17,26.17,0,0,1-3.51-7.57c-.55-2.26,0-4,.34-4.24a8.93,8.93,0,0,1,.37-1,15,15,0,0,1,1.42-2.57,53.19,53.19,0,0,1,5.95-6.89c1.84-1.88,3.92-3.89,5.75-6,.42-.72.85-1.44,1.28-2.15,1.07-1.78,2.15-3.55,3.16-5.3a11.82,11.82,0,0,0,.52-4s.3-.65.74-1.5L77.1,77c-.21.07-.42.14-.64.23,0,0,0-.11.05-.31l-.94-.16"/><path class="d" d="M78.82,76.76a4.59,4.59,0,0,0-.81.07l-.15.29c-.44.85-.74,1.5-.74,1.5a11.82,11.82,0,0,1-.52,4,18.65,18.65,0,0,1-2.9,5.52c-.49.66-1,1.3-1.54,1.93-1.83,2.16-3.91,4.17-5.75,6a53.19,53.19,0,0,0-5.95,6.89A15,15,0,0,0,59,105.63a8.93,8.93,0,0,0-.37,1c-.34.28-.89,2-.34,4.24a26.17,26.17,0,0,0,3.51,7.57,37.38,37.38,0,0,0,5.53,6.61c.88.84,1.56,1.42,2.07,1.84l.79.64a18.53,18.53,0,0,0,2.94,1.07,12.13,12.13,0,0,0,1.27.33l.52.12a3.44,3.44,0,0,0,1.15.27c.44,0,.61-.2.59-.51a6.3,6.3,0,0,0-1.07-2.25L73.9,124c-.51-.75-.84-1.31-.84-1.31a3.69,3.69,0,0,1-1.56-1.57,4.88,4.88,0,0,1-.49-1.94V119a6.09,6.09,0,0,1,.29-1.9l0-.12a2.48,2.48,0,0,0,0-.38,17.84,17.84,0,0,0-.89-3.24l-.69-2.21c.41-.3.12-1-.28-2a6.46,6.46,0,0,1-.47-1.75,5.85,5.85,0,0,1,0-.94l0-.23a8.18,8.18,0,0,1,.77-3.91,11.77,11.77,0,0,1,2.7-3.84A6.06,6.06,0,0,1,74,97.36a2.87,2.87,0,0,1,1.28-.4,1.09,1.09,0,0,1,.26,0,7.67,7.67,0,0,0,1.28-.54l.62-.35c.69-.62,1.52-1.31,2.28-1.92l1-.81a17.22,17.22,0,0,0,2.57-3.79,18.51,18.51,0,0,0,1.47-4.19,22.81,22.81,0,0,0,.19-4c0-.09,0-.17,0-.25s-.2-.37-.34-.6a9.85,9.85,0,0,0-1.71-2,6.14,6.14,0,0,0-4.05-1.72"/><path class="e" d="M69.19,107.28a.7.7,0,0,0,.28.64,2.71,2.71,0,0,1-.21-.46.75.75,0,0,1-.07-.18M88.77,68.47a4.56,4.56,0,0,0-.81.09A11.8,11.8,0,0,0,86.4,69l-1.59.54c-1.06.33-2,.62-2.76.8l-1.21.31a4.41,4.41,0,0,0-.85-.08,2,2,0,0,0-1.54.56,5.35,5.35,0,0,0-1.13,2.21A27.46,27.46,0,0,0,76.51,77c0,.2-.05.31-.05.31.22-.09.43-.16.64-.23a6.5,6.5,0,0,1,.91-.2,4.59,4.59,0,0,1,.81-.07,6.14,6.14,0,0,1,4.05,1.72,9.85,9.85,0,0,1,1.71,2c.14.23.25.43.34.6s.21.45.21.45a17.81,17.81,0,0,1-.39,3.83,18.51,18.51,0,0,1-1.47,4.19,17.22,17.22,0,0,1-2.57,3.79c-.31.34-.61.64-.9.92a14,14,0,0,1-2.4,1.81l-.62.35A7.67,7.67,0,0,1,75.5,97a1.09,1.09,0,0,0-.26,0,2.87,2.87,0,0,0-1.28.4,6.06,6.06,0,0,0-1.54,1.1,11.77,11.77,0,0,0-2.7,3.84,8.18,8.18,0,0,0-.77,3.91l0,.23a4.67,4.67,0,0,0,.21.84,1.54,1.54,0,0,1,.79-1,5.09,5.09,0,0,1,1.42-.58c0-.85,1.61-1.8,3-2.08a7.37,7.37,0,0,1,1.68-.19,5.43,5.43,0,0,1,.94.07,3.69,3.69,0,0,0,1.36.37h.11l.22,0,.1,0,.22-.15a11.31,11.31,0,0,0,.92-.79,17.68,17.68,0,0,0,2-2.4,8.81,8.81,0,0,1,1.06-2.91,2.58,2.58,0,0,1,.6-.73,24.81,24.81,0,0,0,6-7.65,26,26,0,0,0,3-9.81,16.8,16.8,0,0,0-.95-7.48,11.34,11.34,0,0,0-.9-1.89c-.24-.42-.39-.64-.39-.64a1.94,1.94,0,0,0-1.73-.87"/><path class="f" d="M89.12,17.08c-.38.11-.93,0-1.43.19a5.31,5.31,0,0,0-1.47.77,5.64,5.64,0,0,1-1.41.9,10.94,10.94,0,0,0-2.9,2,7,7,0,0,0-1.2,2.17,16.82,16.82,0,0,0-1.36,8.79,2.79,2.79,0,0,1,.7,2c.06.73,0,1.52.09,2.17A8.15,8.15,0,0,1,80,37.37c.14,1.21.88,2.31.45,3.3a18.57,18.57,0,0,0-1.29,3.13c-.17.54-.32,1.14-.45,1.66s-.25,1.07-.34,1.62a43.15,43.15,0,0,0-.15,5.06c0,2,0,3.86.09,4.56.11,1.88,1.24,3.17,1.29,4.58h-.07a1,1,0,0,1-.25,0c0,.15.08.3.13.44s.43.38.56.43a1.45,1.45,0,0,1-.39.92A25.2,25.2,0,0,1,77,65.32a3,3,0,0,1-1.19.28,3.58,3.58,0,0,1-1.21-.25c-.18-.06-.36-.13-.54-.18l-.17,0-.06.08c.07.08,0,.16,0,.25a.7.7,0,0,0,0,.38A10.57,10.57,0,0,1,74.89,69l.59-.56c.34-.33.62-.64.85-.9,0-.64.36-.85,1.13-.86h.08c.41,0,1.55.22,2.6.4.4.09.84.36,1.24.45a4.81,4.81,0,0,0,1,.1c.26,0,.51,0,.77,0s.51,0,.78,0a6,6,0,0,1,1.67.23,1,1,0,0,0,.44.09,2.5,2.5,0,0,0,1.63-.76,1.2,1.2,0,0,0,0-.68,5.1,5.1,0,0,0-.42-1.2,15,15,0,0,0-1.9-3c-1.62-2.07-3.69-4-3.84-4.38s-.86-.25-1.07-.55a4.57,4.57,0,0,1,.09-2c.17-.68.42-1.37.62-2.1a8.9,8.9,0,0,0-.37-3.7c-.32-1.28-.69-2.41-.64-2.48.89-.06,1.82-.39,2.73-.39a2.78,2.78,0,0,1,1.41.35.15.15,0,0,0,.09,0,3.64,3.64,0,0,0,.67-.24,1.46,1.46,0,0,0,.57-1c.06.08.11.12.13.12s-.23-1.33-.68-2.66A8.88,8.88,0,0,0,84,40.57s-.09.07-.1.24c.09-2-2-3.38-2.46-5.72a7.22,7.22,0,0,1,0-2.66,5.71,5.71,0,0,0-.06-2.57,18.73,18.73,0,0,1-.37-2,2.17,2.17,0,0,1,.52-1.68,8.7,8.7,0,0,0,1.3-1.75c.54-1.6.8-3.48,2.1-4.35a4.49,4.49,0,0,1,.88-.35c.33-.09.67-.14,1-.23l.31-.1a1.75,1.75,0,0,0,.51-.26,1.7,1.7,0,0,0,.6-.73,1.4,1.4,0,0,1,.17-.28,2.3,2.3,0,0,1,.35-.41l0,0c.22-.2.39-.39.34-.59h0"/><path class="g" d="M82.08,107.92h0m0,0h0m0,0h0m-3.82-.21a1.39,1.39,0,0,0,.54.31,2,2,0,0,0,.44.11,2,2,0,0,1-.44-.11,1.39,1.39,0,0,1-.54-.31m0,0,0,0,0,0m0,0h0m0,0,0,0,0,0m3.44-.09h0l0,0,0,0a3.05,3.05,0,0,1,.38.32l0,0h0l0,0a3.05,3.05,0,0,0-.38-.32h0m-3.5-.1h0l.06.18h0l-.06-.18m1-.52a2.07,2.07,0,0,0-.47.06.72.72,0,0,0-.44.29.27.27,0,0,0-.06.17h0a.27.27,0,0,1,.06-.17.72.72,0,0,1,.44-.29,2.07,2.07,0,0,1,.47-.06m0,0h0m0,0h0a3.87,3.87,0,0,1,.83.1l.25.06a5.38,5.38,0,0,1,.82.22,4,4,0,0,1,.55.25h0a4,4,0,0,0-.55-.25,5.38,5.38,0,0,0-.82-.22L80,107a3.87,3.87,0,0,0-.83-.1m6.63-3.81h0a2.48,2.48,0,0,1-.31,1.1,10.23,10.23,0,0,1-2.16,2.64l-.15.14c-.32.29-.59.54-.86.77l-.21.17,0,0h0l0,0h0l.21-.17c.27-.23.54-.48.86-.77l.15-.14a10.23,10.23,0,0,0,2.16-2.64,2.48,2.48,0,0,0,.31-1.1h0m0-.08h0v.08h0V103m1.42-1.45h0l-.07.07c-.37.35-.71.7-1,1s-.33.36-.38.4v0h0v0s.19-.19.38-.4.59-.61,1-1l.07-.07h0m.17-.16-.17.16.17-.16m0,0,0,0,0,0m0,0h0m0,0,0,0,0,0m1.67-1.2-.18.05a6.87,6.87,0,0,0-1.49,1.15,6.87,6.87,0,0,1,1.49-1.15l.18-.05m4.34-7c-.06.23-.13.46-.2.68a14,14,0,0,1-2.56,4.88,6.91,6.91,0,0,1-1.58,1.49h0a6.91,6.91,0,0,0,1.58-1.49,14.19,14.19,0,0,0,2.57-4.88c.06-.22.13-.45.19-.68"/><path class="h" d="M88.59,16a14,14,0,0,0-4,.53,8.86,8.86,0,0,0-1.27.57c-4,2.24-6.82,7.08-7.22,11.87a6.15,6.15,0,0,0,.65,2.46,15.33,15.33,0,0,1,.54,3,5.25,5.25,0,0,0,1.16,2.8,1.13,1.13,0,0,1,.2.92,41.05,41.05,0,0,0-1.38,4.93c-.18.84-.3,1.69-.44,2.56s-.27,1.6-.41,2.41a29.16,29.16,0,0,0-.08,5c.08,1.92.12,3.54.16,4.09a12.34,12.34,0,0,0,.34,1.39,6.81,6.81,0,0,0,.43,1,4.21,4.21,0,0,0,.49.73,3.78,3.78,0,0,0,.51.48,2.87,2.87,0,0,0,1,.5,1,1,0,0,0,.25,0h.07c0-1.41-1.18-2.7-1.29-4.58-.08-.7-.06-2.52-.09-4.56a43.15,43.15,0,0,1,.15-5.06c.09-.55.21-1.09.34-1.62s.28-1.12.45-1.66a18.57,18.57,0,0,1,1.29-3.13c.43-1-.31-2.09-.45-3.3a8.15,8.15,0,0,0,.11-1.31c-.1-.65,0-1.44-.09-2.17a2.79,2.79,0,0,0-.7-2,16.82,16.82,0,0,1,1.36-8.79A7,7,0,0,1,81.91,21a10.94,10.94,0,0,1,2.9-2,5.64,5.64,0,0,0,1.41-.9,5.31,5.31,0,0,1,1.47-.77c.5-.23,1-.08,1.43-.19h0c.18-.27.72-.52.52-.71s-.67-.3-1-.37"/><path d="M79.49,91.15a37.15,37.15,0,0,1-4.78,3.79,11.91,11.91,0,0,0-6.16,7.61c-.29,1.08-.74,2.12-1.14,3.26l15.91-6.35c-1.77,1.93-4.08,2.77-6.48,3.47a23.63,23.63,0,0,0-8,3.64c-1.66,1.28-1.79,1.45-1.3,3.58C69,116.5,73,120.89,78.38,124.25c1.58,1,3.33,1.72,5,2.58.31.16.61.35,1.14.65-1.41,1.12-2.47,1.34-3.75.94-3.56-1.11-7.13-2.17-10.61-3.23,1.06,2.23,3.81,2.35,6,4.05-.81.19-1.33.5-1.67.36-6.17-2.46-10.67-6.48-12.09-13.27a4,4,0,0,1,0-2.38c1.77-3.55,1.11-7.39,1.36-11.09a11.36,11.36,0,0,1,1.84-6.06,49.78,49.78,0,0,1,4.88-5.67,41.15,41.15,0,0,0,6.41-8.19,11.85,11.85,0,0,0,1.83-7.19c-.34-3.34-.71-6.69-1-10,2.09,6.38,3.22,12.74-.68,19l.54.25a47.51,47.51,0,0,0,3.52-3.72A129.51,129.51,0,0,0,89,70.46c2.59-4.23.43-9.83-4.07-11.91a14.14,14.14,0,0,1-7.47-8.2c2,3.43,5.08,5.68,8.7,7.56a9.17,9.17,0,0,0-.76-1.72C84.23,54.53,83,52.9,81.66,51.3c-.47-.58-.83-1-.35-1.85.24-.44-.14-1.35-.45-1.93a8.56,8.56,0,0,1-.94-5c1.18,2,1.38,4.46,3.2,6.77.28-4.32-1.49-8-.32-12.14.48,3.21.68,6.1,1.37,8.87,1.1,4.4,3.66,8.12,6.16,11.84,1,1.4,1.71,2.92,2.54,4.4A16.49,16.49,0,0,0,94,64.37c2.93,3.79,3.2,8,2.37,12.53a6.94,6.94,0,0,1-.83,2.47c0-4.19,1.18-8.45-1.18-12.49L91,77c-2,6-6,10.33-10.83,14-.19.15-.51.12-.77.18a8.24,8.24,0,0,1,1.1-1.64c2.5-2.26,5.18-4.35,6.77-7.44,1.19-2.3,2.41-4.59,3.59-6.89a12.09,12.09,0,0,0,.53-1.52l-2.75,2.09c.54-.93,1.09-1.85,1.62-2.78,1-1.72,1.95-3.46,1.86-5.49-.07-1.58.2-3.32-1.47-5A5.71,5.71,0,0,0,90.8,64c1.23,2.43.75,4.66-.61,6.86A73.29,73.29,0,0,1,77,87.06,27.62,27.62,0,0,0,73.37,91a11.76,11.76,0,0,0-2.67,5,14,14,0,0,0,1.8-1.9c2-2.19,3.6-4.89,6.45-6.25-.15,1.75-1.8,2.33-2.73,3.47-.77,1-1.93,1.64-2.11,3,1.34-.77,2.49-1.74,3.72-2.59A6.66,6.66,0,0,1,79.49,91.15ZM66,111.13c-1.14,3.32-.74,7.18,1,9.33,2.33,2.94,7,5.29,10,5C69.64,119.16,69.12,118.07,66,111.13Zm1.38-11c-2.19,2.24-3.26,6.33-2,8.52.34-1.63.72-3,.89-4.36S68.1,101.92,67.34,100.16Zm-1.54-.34c3.33-1.89,3.64-5,5-7.38A17.48,17.48,0,0,0,65.8,99.82ZM85,50.43c.19,3.63.19,3.64,2.18,4.64Zm3.73,7.5-.43.35c.76,2,.76,2,2.52,2.49Z"/><path d="M81.93,30.63a36.48,36.48,0,0,0-7.1,16.17,4.94,4.94,0,0,0,0,2.13c.57,2.09.29,4.47,2.07,6.16.17.16.18.49.24.74,0,.06-.09.14-.14.21-2.63-1.95-5.79-7.89-6-11.26.64,1.15,1.31,2.35,2.24,4a39.56,39.56,0,0,1,6-16.3c.64-1,1.31-1.91,2.67-1.85Z"/><path d="M63.85,93.3c-.22-2.17,1.39-3.58,2.2-5.33,1.12-2.41,2.24-4.81,3.3-7.25a21.23,21.23,0,0,0,1.87-10.4c0-.21.2-.44.5-1,1,9.49-2.82,17-7.93,24Z"/><path d="M93.43,96.59a64.28,64.28,0,0,1-3.93,5.3,29.19,29.19,0,0,1-4,3.39c-2,1.54-4,3-6.11,4.61-.68-.86-.1-1.59.73-2.21,1.57-1.18,3.11-2.41,4.77-3.43,2.85-1.75,5.46-3.7,7.09-6.72a7.78,7.78,0,0,1,1-1.2Z"/><path d="M63.79,93.25a1.94,1.94,0,0,1-.11.78c-2,3-2.65,6.42-3.61,9.74-.62,2.11-.6,4.4-.93,7.09a8,8,0,0,1-.59-2.12c.33-4.85,1.18-9.59,3.68-13.86a8.11,8.11,0,0,1,1.62-1.58Z"/><path d="M89.92,91.42c1.47-3.09,2.94-6.19,4.55-9.6A15.17,15.17,0,0,1,89.92,91.42Z"/><path d="M83.26,70.71l-2.6-9.17C82.76,64.18,84,67,83.26,70.71Z"/><path d="M100.36,85.05c-.3,1.19-.5,2.43-.91,3.58a9.84,9.84,0,0,1-4,5A9.26,9.26,0,0,1,96.38,92a12,12,0,0,0,3.14-6c0-.33.57-.58.88-.87Z"/><path d="M88.24,23.84l-2.83,2.43C86.26,24.47,86.26,24.47,88.24,23.84Z"/><path d="M96.35,65.07c1.86.21,2.19.61,2.26,2.74L96.4,65Z"/><path d="M88.62,45,89,41.71l.61.08L89,45Z"/><path d="M81.92,30.63c-.22-1.16-.42-2.3,1.45-2.57l-1.44,2.57Z"/><path d="M79.6,40V37.11h.21v3Z"/><path d="M100.4,85.06c-.91-1.25-.65-2.57-.07-3.9,0,1.28,0,2.57,0,3.87A.15.15,0,0,0,100.4,85.06Z"/><path d="M93.41,59.83l-1-2c1.48.39,1,1.33,1,2.1Z"/><path d="M93.33,59.9l1.46,1.23-.43.36-1-1.66Z"/><path d="M96.4,65c-.22-.61-.43-1.22-.71-2,1.41.46,1,1.24.68,2Z"/><path d="M88.46,94.71l-.94.8-.21-.18.81-1Z"/><path d="M75.85,62.9l-.74-1.36.35-.18.71,1.37Z"/><path d="M88.64,76.26c-.13,2-1.4,3.45-2.52,4.84a77.31,77.31,0,0,1-5.86,6.15,4.62,4.62,0,0,1-1.39.68c1.62-1.83,3.3-3.61,4.86-5.5,1.06-1.28,1.92-2.73,3-4.06C87.26,77.62,88,77,88.64,76.26Z"/></svg>