<svg xmlns="http://www.w3.org/2000/svg" viewBox="0 0 150 150"><defs><style>.a{fill:#fff9d6;}.b{fill:#fff3a9;}.c{fill:#fff2a6;}.d{fill:#fff4b0;}.e{fill:#fff7c4;}.f{fill:#fffce6;}.g{fill:#fff6c0;}.h{fill:#fffdf5;}</style></defs><title>icon</title><path class="a" d="M114.41,98.89c-.14.14-.31.29-.45.45l.89-.24a3.55,3.55,0,0,1-.44-.21M30.74,82.23l.29.84c.39,1,.7,2,1,2.82a4.77,4.77,0,0,0-.34-1.31l0,0c-.13-.36-.29-.74-.47-1.13h0l-.5-1.19m36.89-2.3-.39.09A32.8,32.8,0,0,1,61,80.9h.49a25.82,25.82,0,0,0,5.26-.58l.87-.4M28.92,78.19l.17.12,0,0h0l-.15-.07m20.25-7.61a7.25,7.25,0,0,0,0,1.22,8.45,8.45,0,0,0,.68,2.74,8.62,8.62,0,0,0,.83,1.54c-.17-.46-.36-1-.53-1.64-.38-1.21-.72-2.62-1-3.86M81,70.32c-.27.2-.56.42-.87.67h.3q.31-.35.57-.66M80,69l-.12,0h0L80,69m-15.09-.22a7.07,7.07,0,0,0,1.5,1.49,7.6,7.6,0,0,0,2.21,1.15,12.57,12.57,0,0,0,2.79.53c.35,0,.72,0,1.1,0h.1a19.46,19.46,0,0,1-5.56-1.85,18.77,18.77,0,0,1-2.14-1.36m-40.14-.21c0,.42,0,.84.08,1.25a12.79,12.79,0,0,0,2.27,6.61c-.11-.17-.22-.36-.33-.55a19.58,19.58,0,0,1-2-7.31M27.54,53.8c-.31.52-.7,1.28-1.09,2.1a18.76,18.76,0,0,0-1.14,2.91V59c.53-1.08,1.11-2.17,1.73-3.25a6.48,6.48,0,0,1,.51-1.93M80.69,40.69a27.22,27.22,0,0,0,1.47,3l1.47-.19a25.37,25.37,0,0,1,2.9.92,8,8,0,0,1,2.89,2.62c1.19,1.64,2.45,3.26,3.78,5.14a68.94,68.94,0,0,1,4.08,6.34,2,2,0,0,1,.18,1.38,2.1,2.1,0,0,0-.15-1.52,68.08,68.08,0,0,0-4.08-6.33c-1.33-1.89-2.59-3.5-3.79-5.14a8.13,8.13,0,0,0-2.88-2.62,27.91,27.91,0,0,0-2.88-.91,6.66,6.66,0,0,1-3-2.7M41.32,37.1l-1,.84c-1.44,1.14-2.82,2.31-4,3.46-.43.42-.87.85-1.29,1.28,2.27-1.87,4.31-3.75,6.3-5.58M65.24,18.93a6.49,6.49,0,0,0-2.28.43,28.7,28.7,0,0,0-5.91,3.41,60.28,60.28,0,0,0-5.58,4.67C49.66,29.15,47.78,31,46,32.74l.45-.42c1.19-1.13,2.4-2.17,3.5-3.16S52,27.35,52.9,26.58l2.26-2c1.06-.93,1.72-1.57,1.86-1.69h0c-.14.12-.8.76-1.86,1.69l-2.26,2c-.87.77-1.82,1.56-2.93,2.58s-2.31,2-3.5,3.16l-.45.42,0,0-2.75,2.63c-.61.57-1.27,1.14-1.93,1.71-2,1.83-4,3.71-6.3,5.58-.17.17-.33.34-.49.52-.55.59-1.08,1.19-1.6,1.82a32.38,32.38,0,0,0-5.08,8.3c-.09.12-.19.28-.31.48A6.48,6.48,0,0,0,27,55.73c-.62,1.08-1.2,2.17-1.73,3.25a82.71,82.71,0,0,0-.52,9.63,19.58,19.58,0,0,0,2,7.31c.11.19.22.38.33.55a8.14,8.14,0,0,0,1.79,1.72l.15.07h0l0,0,.13.08c.58,1.39,1.09,2.66,1.52,3.84l.5,1.19h0c.18.39.34.77.47,1.13l0,0a4.77,4.77,0,0,1,.34,1.31c.08.19.16.38.23.57a9.35,9.35,0,0,0,4.51,5.12,40.48,40.48,0,0,0,3.84,1.63c.33.08.66.15,1,.21-.34-.06-.67-.13-1-.21,2,.74,4,1.33,5.82,1.9,3,.94,5.53,1.73,7.49,3.18a16.59,16.59,0,0,1,5.49,6c.28.4.22,2.08.15,3.93s-.17,3.91-.21,4.87a3.32,3.32,0,0,0,2.1,3.43,6.09,6.09,0,0,0,2.35.42,9,9,0,0,0,1.89-.2,71.44,71.44,0,0,1,10.37-2.58c.72-.14,1.45-.26,2.19-.37,1.25.16,1.87,1.7,3.23,2.06h.25c3.35,0,6.39-2.79,9.18-4.06a25,25,0,0,0,5.61-1.55A6.75,6.75,0,0,0,99,108.75a3.67,3.67,0,0,0,.72-1.24l0,0h0c.77,0,1,2.73,2,3.28a1.58,1.58,0,0,0,.43.05c1.21,0,2.36-1.37,3.12-2.84a34.24,34.24,0,0,1,2-3.24,32.46,32.46,0,0,1,2.28-2.77,9.9,9.9,0,0,1,2.3-1.87l.21-.11a3.37,3.37,0,0,1-.38-.28,17.29,17.29,0,0,1-1.82-2.13,2,2,0,0,0-1.5-.65h-.09c-.31,0-.63,0-1,0a3.08,3.08,0,0,1-.73-.08,6.15,6.15,0,0,1-1.38-2c-.25-.59-.55-.79-.87-.79-.51,0-1.1.52-1.68.84a1,1,0,0,1-.64.25,2.7,2.7,0,0,1-1.41-.71,2.73,2.73,0,0,0-1.43-.7h-.1c-.73,0-1.45.81-2.18,1.43a2.32,2.32,0,0,1-1.3.68.82.82,0,0,1-.7-.42c.28.47-.1.64-.71.64A5.53,5.53,0,0,1,93,96c-1.13-.25-2.15-.79-1.58-1.07a4.16,4.16,0,0,1,0-1.82,11.12,11.12,0,0,1,.48-1.54c1.24-1.75,1.95-4.94,2.78-7.45,0-.28-2-1-1.84-3.32.14-1.83.57-3.82.34-4.51l-.05-.11c-.19.1-.83,1.28-1,1.37h0a39.91,39.91,0,0,1-4.89,3,13.21,13.21,0,0,1-4.72,1.36c-.37,0-.6-.08-.59-.24a7.68,7.68,0,0,1,2-3.44c2.56-2.66,3.3-4.29,5.35-6.56.56-.6,1.32-1.25,1.88-1.85,1.48-1.68,3.24-3.61,3.49-4a6.5,6.5,0,0,0,.78-1.17c.05-.14,0-.2-.22-.2l-.28,0a5.55,5.55,0,0,1-.27-.57L92,65.2c-1.36.65-2.39,1.16-2.51,1.16s0,0,.05-.07h0l-.69.33-1.73.81A26.33,26.33,0,0,1,82.88,69a12.38,12.38,0,0,0-1.18.75l4.43-1.25a6.26,6.26,0,0,1,1.37-.24c.86,0,.81.66-1.24,3l-.22.44-.66,1.14c-.57,1-1.33,2.32-2.16,3.88s-1.76,3.31-2.81,4.92a10.77,10.77,0,0,1-3.73,3.82l-1,.5c-.67.32-1.63.75-2.85,1.21A37.55,37.55,0,0,1,63,89.44a29.76,29.76,0,0,1-3,.16,22.89,22.89,0,0,1-9.07-1.73,15.62,15.62,0,0,1-8.85-8.93,4.09,4.09,0,0,0-.85-1.33A27.17,27.17,0,0,0,37,73.82a17.59,17.59,0,0,1-.78-1.71,18.06,18.06,0,0,1-1-4.28,13.13,13.13,0,0,1,.43-5.34,7.34,7.34,0,0,1,3.19-4.19l.43-.53c.28-.34.67-.81,1.19-1.41l1.77-2c.69-.73,1.45-1.53,2.22-2.36l2.48-2.47,2.52-2.41c.84-.78,1.57-1.54,2.26-2.27a12.57,12.57,0,0,0,1.7-2.15,28.13,28.13,0,0,0,3.53-.7,11.16,11.16,0,0,0,2.72-1,6.56,6.56,0,0,0,.59-.35l.39-.42,1-1.05a3.84,3.84,0,0,1-1.38,1.47c-.46.53-1,1.23-1.64,2a25.44,25.44,0,0,1,2.1-2q1.13-.9,2.25-1.65c.73-.45,1.45-.84,2.13-1.18a11.71,11.71,0,0,1,1.9-.76,10.57,10.57,0,0,1,1.57-.37l.48,0a1.76,1.76,0,0,1,1.38.49l.44,0c.21,0,.52,0,.86,0h.29a19.21,19.21,0,0,1,3.31.38,12.86,12.86,0,0,1,3.24,1.1,6.8,6.8,0,0,1,1.66,1.22c-1.72-2.67-3.49-6.46-5.41-10.12-.57-1.22-1.22-2.58-1.86-4-.35-.68-.67-1.37-1.08-2a17.72,17.72,0,0,0-1.29-1.84,8.59,8.59,0,0,0-3.13-2.62,6.32,6.32,0,0,0-2.13-.38"/><path class="b" d="M80.83,69A5.86,5.86,0,0,0,80,69c.28,0,.51-.05.69-.05a2.8,2.8,0,0,1,.68.08,2,2,0,0,0,.6.09,4.27,4.27,0,0,0,.8-.1l.1,0h0a4.36,4.36,0,0,1-.81.1,2.4,2.4,0,0,1-.59-.08,2.62,2.62,0,0,0-.66-.08m16.63-9.06a2.16,2.16,0,0,1-.8,1.26,3.37,3.37,0,0,1-1.79.48c-1.91,0-4.06-1.23-6-1.57-.37.23-1.15.15-1.38.65a2,2,0,0,1-.93.92,13.23,13.23,0,0,1-1.83.13,11,11,0,0,1-5-1.2l-.58,0a6.89,6.89,0,0,0-2,.33,5.77,5.77,0,0,1-1.58.32h0l-.19,0a1.35,1.35,0,0,0-.54.14c-.18.11-.3.27-.47.37a.67.67,0,0,1-.47.21h-.13a5.54,5.54,0,0,1-.84-.14h-.25c-1.89,0-2.21,2,.21,4.31a13.56,13.56,0,0,0,2.87,2.34,6,6,0,0,0,2,.68,4.44,4.44,0,0,0,.74.06h.29c.33,0,.66-.06,1-.07h.09l-.5,0a4,4,0,0,1-.5,0h-.35a3.64,3.64,0,0,1-.67,0,5.91,5.91,0,0,1-2-.65A13.63,13.63,0,0,1,73,66.12c-2.43-2.27-2.13-4.27-.26-4.27l.25,0a4.66,4.66,0,0,0,.89.14.65.65,0,0,0,.54-.22c.16-.09.28-.24.45-.36a1.33,1.33,0,0,1,.53-.13l.19,0h0A5.57,5.57,0,0,0,77.17,61a6.7,6.7,0,0,1,2-.32l.58,0a10.84,10.84,0,0,0,5,1.2,13.2,13.2,0,0,0,1.82-.13,1.93,1.93,0,0,0,.93-.92c.21-.49,1-.43,1.38-.65,2,.35,4.12,1.58,6,1.58a3.35,3.35,0,0,0,1.78-.47,2.23,2.23,0,0,0,.84-1.4"/><path class="c" d="M83.63,43.51l-1.47.19c0,.08.09.16.14.24.84,1.47,1.92,2.84,2.92,2.84a1.07,1.07,0,0,0,.49-.12s1.94,1.75,3.8,3.52S93.05,53.82,91,55a11.42,11.42,0,0,1-1.28,1.22,12.24,12.24,0,0,1-2.34,1.65s-.31,0-.82,0-1.26-.09-2.09-.2c-1.69-.18-3.78-.53-5.72-.83s-3.77-.53-5.26-.61-2.68,0-3.22-.42a5.38,5.38,0,0,0-.78.14,6.83,6.83,0,0,0-2,.83,8.74,8.74,0,0,0-4,5.75,8,8,0,0,0,1.38,6.36,18.77,18.77,0,0,0,2.14,1.36A19.46,19.46,0,0,0,72.62,72a21.4,21.4,0,0,0,5.92-1L80,71h.07c.31-.25.6-.47.87-.67a4.41,4.41,0,0,0,.29-.4l.44-.13A12.38,12.38,0,0,1,82.88,69l-.1,0a4.27,4.27,0,0,1-.8.1,2,2,0,0,1-.6-.09A2.8,2.8,0,0,0,80.7,69c-.18,0-.41,0-.69.05l-.09,0H79.8c-.36,0-.69.05-1,.07h-.29a4.44,4.44,0,0,1-.74-.06,6,6,0,0,1-2-.68,13.56,13.56,0,0,1-2.87-2.34c-2.42-2.31-2.1-4.31-.21-4.31h.25a5.54,5.54,0,0,0,.84.14h.13a.67.67,0,0,0,.47-.21c.17-.1.29-.26.47-.37a1.35,1.35,0,0,1,.54-.14l.19,0h0a5.77,5.77,0,0,0,1.58-.32,6.89,6.89,0,0,1,2-.33l.58,0a11,11,0,0,0,5,1.2,13.23,13.23,0,0,0,1.83-.13,2,2,0,0,0,.93-.92c.23-.5,1-.42,1.38-.65,2,.34,4.11,1.57,6,1.57a3.37,3.37,0,0,0,1.79-.48,2.16,2.16,0,0,0,.8-1.26,2,2,0,0,0-.18-1.38,68.94,68.94,0,0,0-4.08-6.34c-1.33-1.88-2.59-3.5-3.78-5.14a8,8,0,0,0-2.89-2.62,25.37,25.37,0,0,0-2.9-.92"/><path class="d" d="M69,36.73l-.48,0a10.57,10.57,0,0,0-1.57.37,11.71,11.71,0,0,0-1.9.76c-.68.34-1.4.73-2.13,1.18s-1.5,1-2.25,1.65a25.44,25.44,0,0,0-2.1,2l-.43.55a31.27,31.27,0,0,0-4.69,9.84c-2,7.21-1,13.18-3.51,14.68a5.65,5.65,0,0,0-.61,1.87,8.38,8.38,0,0,0-.12,1c.29,1.24.63,2.65,1,3.86.17.61.36,1.18.53,1.64a9.44,9.44,0,0,0,1.09,1.38,10.91,10.91,0,0,0,3.36,2.25A15.48,15.48,0,0,0,61,80.9,32.8,32.8,0,0,0,67.24,80l.39-.09c.33-.16.74-.36,1.21-.61a51.19,51.19,0,0,0,4.57-2.69,41.86,41.86,0,0,0,7-5.65H80l-1.49.06a21.4,21.4,0,0,1-5.92,1h-.1c-.38,0-.75,0-1.1,0a12.57,12.57,0,0,1-2.79-.53,7.6,7.6,0,0,1-2.21-1.15,7.07,7.07,0,0,1-1.5-1.49,8,8,0,0,1-1.38-6.36,8.74,8.74,0,0,1,4-5.75,6.83,6.83,0,0,1,2-.83,5.38,5.38,0,0,1,.78-.14c.54.39,1.75.34,3.22.42s3.31.3,5.26.61,4,.65,5.72.83c.83.11,1.58.16,2.09.2s.82,0,.82,0a12.24,12.24,0,0,0,2.34-1.65A11.42,11.42,0,0,0,91,55c2-1.15.31-3.07-1.51-4.79s-3.8-3.52-3.8-3.52a1.07,1.07,0,0,1-.49.12c-1,0-2.08-1.37-2.92-2.84,0-.08-.1-.16-.14-.24a27.22,27.22,0,0,1-1.47-3l-.11-.29a4.26,4.26,0,0,0-.44-.53,6.8,6.8,0,0,0-1.66-1.22,12.86,12.86,0,0,0-3.24-1.1,19.21,19.21,0,0,0-3.31-.38h-.29c-.34,0-.65,0-.86,0l-.44,0A1.76,1.76,0,0,0,69,36.73"/><path class="e" d="M60.17,40.66a6.56,6.56,0,0,1-.59.35,11.16,11.16,0,0,1-2.72,1,28.13,28.13,0,0,1-3.53.7,12.57,12.57,0,0,1-1.7,2.15c-.69.73-1.42,1.49-2.26,2.27l-2.52,2.41L44.37,52c-.77.83-1.53,1.63-2.22,2.36l-1.77,2c-.52.6-.91,1.07-1.19,1.41l-.43.53a7.34,7.34,0,0,0-3.19,4.19,13.13,13.13,0,0,0-.43,5.34,18.06,18.06,0,0,0,1,4.28A17.59,17.59,0,0,0,37,73.82a27.17,27.17,0,0,1,4.24,3.79,4.09,4.09,0,0,1,.85,1.33,15.62,15.62,0,0,0,8.85,8.93A22.89,22.89,0,0,0,60,89.6a29.76,29.76,0,0,0,3-.16,37.55,37.55,0,0,0,9.8-2.21C74,86.77,75,86.34,75.65,86l1-.5a10.77,10.77,0,0,0,3.73-3.82c1-1.61,2-3.36,2.81-4.92s1.59-2.92,2.16-3.88L86,71.76l.22-.44c2-2.36,2.1-3,1.24-3a6.26,6.26,0,0,0-1.37.24L81.7,69.79l-.44.13a4.41,4.41,0,0,1-.29.4q-.25.32-.57.66a41.86,41.86,0,0,1-7,5.65,51.19,51.19,0,0,1-4.57,2.69c-.47.25-.88.45-1.21.61l-.87.4a25.82,25.82,0,0,1-5.26.58H61a15.48,15.48,0,0,1-5.85-1.19,10.91,10.91,0,0,1-3.36-2.25,9.44,9.44,0,0,1-1.09-1.38,8.62,8.62,0,0,1-.83-1.54,8.45,8.45,0,0,1-.68-2.74,7.25,7.25,0,0,1,0-1.22,8.38,8.38,0,0,1,.12-1,5.65,5.65,0,0,1,.61-1.87c2.55-1.5,1.51-7.47,3.51-14.68a31.27,31.27,0,0,1,4.69-9.84l.43-.55c.61-.79,1.18-1.49,1.64-2m1.38-1.47-1,1.05-.39.42a3.84,3.84,0,0,0,1.38-1.47"/><path class="f" d="M91.45,94.93h0m8.89-34.47c-.1.08-.13.11-.18.11h-.06l-.1,0a.86.86,0,0,0-.41.16c-.68.4-1.54.92-2.41,1.46s-1.81,1.08-2.62,1.54a.64.64,0,0,0,0,.2,5.55,5.55,0,0,0,.27.57l.28,0c.22,0,.27.06.22.2a6.5,6.5,0,0,1-.78,1.17c-.25.41-2,2.34-3.49,4-.56.6-1.32,1.25-1.88,1.85-2,2.27-2.79,3.9-5.35,6.56a7.68,7.68,0,0,0-2,3.44c0,.16.22.24.59.24a13.21,13.21,0,0,0,4.72-1.36,39.91,39.91,0,0,0,4.89-3h0c.22-.09.86-1.27,1-1.37l.05.11c.23.69-.2,2.68-.34,4.51-.14,2.36,1.85,3,1.84,3.32-.83,2.51-1.54,5.7-2.78,7.45a11.12,11.12,0,0,0-.48,1.54,4.16,4.16,0,0,0,0,1.82c-.57.28.45.82,1.58,1.07a5.53,5.53,0,0,0,1.22.16c.61,0,1-.17.71-.64a.82.82,0,0,0,.7.42,2.32,2.32,0,0,0,1.3-.68c.73-.62,1.45-1.43,2.18-1.43h.1a2.73,2.73,0,0,1,1.43.7,2.7,2.7,0,0,0,1.41.71,1,1,0,0,0,.64-.25c.58-.32,1.17-.84,1.68-.84.32,0,.62.2.87.79a6.15,6.15,0,0,0,1.38,2,3.08,3.08,0,0,0,.73.08c.34,0,.66,0,1,0h.09a2,2,0,0,1,1.5.65,17.29,17.29,0,0,0,1.82,2.13,3.37,3.37,0,0,0,.38.28,1.62,1.62,0,0,0,.78.25,1,1,0,0,0,.88-.61,1.41,1.41,0,0,1,.22-.34c.14-.16.31-.31.45-.45s.46-.56.22-.91h-.17a9.17,9.17,0,0,1-1.72-.42c-.6-.22-1-.32-1.47-.46a2.39,2.39,0,0,1-1.22-.9,28.28,28.28,0,0,1-2-3.11,2.65,2.65,0,0,0-1.14-.91,8,8,0,0,0-1.34-.69,11.56,11.56,0,0,0-1.39-.49,8.53,8.53,0,0,0-2.28-.32h-.48c-.3.74-.65,1-1,1a1.19,1.19,0,0,1-.32,0c-.48-.13-1-.53-1.3-.58s-.4-.53-.64-.82a.79.79,0,0,0-.34-.06l-.28,0-.27,0c-.33,0-.62-.14-.75-.9-.42-3.21-.63-6-.83-8.44-.09-1-.4-2.73-.51-4.36S95.09,73.38,95,73a1,1,0,0,0-.11-.52c-.24-.46-1,0-1.07-.69a3.79,3.79,0,0,1,.35-.53.58.58,0,0,0-.17-.06c-.15.19-.47.46-.63.64a2.57,2.57,0,0,1,.34-1.2c1.32-2.7,2-4.14,2.61-5.35a14.36,14.36,0,0,1,2.91-3.8c.37-.38.91-.86,1.07-1m0,0,0,0h0l0,0"/><path class="g" d="M38.54,92.54a14.92,14.92,0,0,0,2.11.67c.33.08.66.15,1,.21-.34-.06-.67-.13-1-.21a14.92,14.92,0,0,1-2.11-.67m0,0h0m0,0h0m-4.82-3.41,0,0a12.56,12.56,0,0,0,4.79,3.37,12.56,12.56,0,0,1-4.79-3.37l0,0m-.07-.08.07.08-.07-.08m0,0,0,0,0,0m-1.23-2a9.83,9.83,0,0,0,1.23,2,9.83,9.83,0,0,1-1.23-2m-.32-.79a5.64,5.64,0,0,0,.32.79,5.64,5.64,0,0,1-.32-.79m0-.06h0a.28.28,0,0,0,0,.06.28.28,0,0,1,0-.06m0-.24a.83.83,0,0,1,0,.24.88.88,0,0,0,0-.24m-.37-1.42,0,0a4.77,4.77,0,0,1,.34,1.31.25.25,0,0,1,0,.08h0a.25.25,0,0,0,0-.08,4.77,4.77,0,0,0-.34-1.31l0,0m-.47-1.13c.18.39.34.77.47,1.13-.13-.36-.29-.74-.47-1.13M30.64,82l.1.23.5,1.19-.5-1.19-.1-.23m-1.57-3.74,0,0c.13.3.79,2,1.55,3.69-.76-1.74-1.42-3.39-1.55-3.69l0,0M26.8,75.92c.11.19.22.38.33.55a4.7,4.7,0,0,0,1.79,1.72l.15.07h0l-.15-.07a4.77,4.77,0,0,1-1.79-1.72c-.11-.17-.22-.36-.33-.55M24.73,68c0,.21,0,.42.05.63a19.58,19.58,0,0,0,2,7.31,19.58,19.58,0,0,1-2-7.31c0-.21,0-.42-.05-.63m-.1-2.38c0,.77,0,1.57.1,2.38-.07-.81-.1-1.61-.1-2.38m.2-3.71a35.93,35.93,0,0,0-.2,3.71,35.93,35.93,0,0,1,.2-3.71m5.54-13.45h0a31.32,31.32,0,0,0-2.83,5.36A6.48,6.48,0,0,0,27,55.73c-.62,1.08-1.2,2.17-1.73,3.25l-.06.13s-.23,1.08-.41,2.73v0c.18-1.65.41-2.73.41-2.73L25.3,59c.53-1.08,1.11-2.17,1.73-3.25a6.48,6.48,0,0,1,.51-1.93,31.32,31.32,0,0,1,2.83-5.36h0m1.36-2c-.44.61-.9,1.28-1.36,2,.46-.7.92-1.37,1.36-2M33,44.8h0c-.38.47-.81,1-1.28,1.66h0c.47-.63.9-1.19,1.28-1.66h0m1-1.17c-.23.26-.56.66-1,1.17l1-1.17m9.7-8.73-1,.93L41.32,37.1c-2,1.83-4,3.71-6.3,5.58l-.74.61-.29.34.29-.34.74-.61c2.27-1.87,4.31-3.75,6.3-5.58l1.37-1.27,1-.93M44.6,34l-.91.86L44.6,34m.19-.17L44.6,34h0l.19-.17m.06-.06-.06.06.06-.06M57,22.89c-.14.12-.8.76-1.86,1.69l-2.26,2c-.87.77-1.82,1.56-2.93,2.58s-2.31,2-3.5,3.16l-.45.42-1.17,1.07L46,32.74l.45-.42c1.19-1.13,2.4-2.17,3.5-3.16S52,27.35,52.9,26.58l2.26-2c1.06-.93,1.72-1.57,1.86-1.69m0,0h0m0,0h0m0,0h0m0,0h0"/><path class="h" d="M96.3,69c-.29,0-.78.57-1.28,1.18-.3.37-.59.76-.81,1.06h0a3.79,3.79,0,0,0-.35.53c.09.71.83.23,1.07.69A1,1,0,0,1,95,73c0,.41,0,1.91.13,3.53s.42,3.38.51,4.36c.2,2.39.41,5.23.83,8.44.13.76.42.9.75.9l.27,0,.28,0a.79.79,0,0,1,.34.06c.24.29.42.73.64.82s.82.45,1.3.58a1.19,1.19,0,0,0,.32,0c.37,0,.72-.23,1-1h.48a8.53,8.53,0,0,1,2.28.32,11.56,11.56,0,0,1,1.39.49,8,8,0,0,1,1.34.69,2.65,2.65,0,0,1,1.14.91,28.28,28.28,0,0,0,2,3.11,2.39,2.39,0,0,0,1.22.9c.42.14.87.24,1.47.46a9.17,9.17,0,0,0,1.72.42h.17c.08-.37.67-.74.18-1a12.78,12.78,0,0,0-1.85-.68c-2.22-.64-3.53-2.87-4.14-4.43a36.17,36.17,0,0,0-1.95-4.75,5.1,5.1,0,0,0-1.66-1.64,7.32,7.32,0,0,0-1.92-1l-.11,0c-.44,0-.83.82-1.26,1.17a1.6,1.6,0,0,1-1.25.44h-.49a1.66,1.66,0,0,0-.87.22,2.51,2.51,0,0,0-.71,1c0,.14-.12.2-.19.2s-.18-.09-.25-.22a43,43,0,0,1-1.55-10.68c0-1.16-.16-2.76-.16-4.17s.11-2.61.13-3a1,1,0,0,0-.12-.42A.19.19,0,0,0,96.3,69"/><path d="M91.42,29.45c-.06,1.68-.17,3.34-.15,5a2.73,2.73,0,0,0,.59,1.43C94.19,39,96.4,42.19,99,45.09A205.81,205.81,0,0,1,118.2,70.6c1.73,2.71,3.82,5.2,5.52,7.93a33.17,33.17,0,0,1,2.74,5.81,25.24,25.24,0,0,1,1.66,5.78c.65,5.18-.18,10.06-4.17,13.84-.9.85-2.27,1.18-3.38,1.82-3.08,1.76-6,3.75-9.2,5.33-9.63,4.78-19.33,9.41-29,14.09-3.28,1.6-6.59,3.14-9.85,4.78a4.77,4.77,0,0,1-6.36-1.27c-1.42-1.62-2.77-3.29-4.15-5-1.86-2.24-3.66-4.51-5.56-6.71C50.32,110,43.88,103.12,38.08,95.77c-5.45-6.91-10.24-14.35-15.33-21.55-.25-.34-.5-.83-.85-.94-3.19-1-3.51-4.14-4.72-6.55A5.15,5.15,0,0,1,18.24,61c3.3-3.35,5.24-7.58,8.09-11.17a65.31,65.31,0,0,1,6-6.21c4-3.88,8.06-7.8,13.28-10.12,5.69-2.53,11.43-4.85,17.76-5.35A14.5,14.5,0,0,0,68,26.85c4.06-1.81,8.17-2.6,12.55-1.36,1.23.35,2.53.42,3.78.7a19.52,19.52,0,0,1,3.72,1A25.5,25.5,0,0,1,91.42,29.45ZM78,113.75c4.4,1,3.18.89,7.86-1.36,5.32-2.56,10.52-5.36,15.71-8.2q8-4.38,15.9-9a28.22,28.22,0,0,0,4.89-3.66c2.14-2,2.94-4.49,1.62-7.32a29.93,29.93,0,0,0-2.41-4.55c-6.65-9.54-12.64-19.56-20.24-28.41a24.91,24.91,0,0,0-3.78-3,10.62,10.62,0,0,0-1-2.62c-1.62-2.28-3.38-4.46-5.13-6.64a4.45,4.45,0,0,0-1.64-1.46c-2.61-.94-2.6-.92-3.66-3-.29-.56-.92-1-1.6-1.63-.53,1.7-.92,3-1.31,4.26-1.33-.2-2.31-.46-1.5-1.83s.06-1.81-1-2.12a12,12,0,0,0-2.37-.2A4.65,4.65,0,0,1,79,34c.14.62.47,1.63.22,1.81-.83.61-1.35,0-1.54-.86-.38-1.74-1.47-1.08-2.4-.87a7.31,7.31,0,0,0,.84,6,2.19,2.19,0,0,1-3.27-.69c-.49-.88-.22-2.16-.29-3.32-3.5.75-.71,4.73-3.25,5.63l-4.55-2.31c1.91-2.16,2-2.15,4.7.27-1.93-1.46-.64-2.71.26-4.21a11.18,11.18,0,0,0-6.32,1.75c0,.35.08.54.09.73,0,.56.05,1.12.07,1.68a4.85,4.85,0,0,1-1.7-.28,6.44,6.44,0,0,1-1.32-1.5l-3.17,1.39.27,2.7c-.73-.08-1.3,0-1.53-.2-1.41-1.41-2.71-.92-4.36-.26C46.25,43.63,41.55,47,37.07,50.71a22.29,22.29,0,0,0-6.54,9.8,4.33,4.33,0,0,0-.28,2.76A22.52,22.52,0,0,0,33,68.22c1.87,2.5,4.08,4.75,5.92,7.27.92,1.26,1.81,2,3.39,1.69.23,0,.53.31.93.57l-1,2c1.14,2.54,2.45,4.58,5.57,4.84a2.76,2.76,0,0,0,.36,3.88c1.16,1.26,2.17,2.66,3.15,3.89l3.28-.67c.76,2.27-1.12,2-2,2.81,2.42,3,3.47,7.18,8,8a12.4,12.4,0,0,0,5,9.09l.23-2.7c2,.72,3.63,2.27,5.76.59v2.92a14.42,14.42,0,0,0-3-.67c-1.34,0-1.68,1.24-1.95,2.23-.09.32.91,1.34,1.07,1.27,2.21-1,3.52.64,5.1,1.55a1.68,1.68,0,0,0,1.48.13C75.46,116,76.51,115,78,113.75ZM31.2,82.84c5.28,8.12,35.7,43.65,39,45.44.25-2.87.49-5.65.72-8.31l-5.13-2c-1.22-2.16-2.19-4.2-3.45-6-3.71-5.4-7.51-10.73-11.32-16-2.89-4-5.86-8-8.77-12-2.47-3.39-4.83-6.85-7.38-10.17-2.22-2.89-3.15-3-6.45-1.14l-2.27-1.52c-1.47,2.41-1.43,2.46,3.62,3.85l-.93,1.49-2.29-1a18.49,18.49,0,0,1,2.87,4.47c.25.62,1.86.69,3.1,1.09ZM81.08,124c13.73-6.84,27.93-12.89,40.77-21.5l-.15-2h3A20.84,20.84,0,0,0,125,96c-.2-1.61.11-2.68,2.11-3.22l-1.87-1.25c-2,3-4.83,4.42-7.69,5.92-2.18,1.15-4.29,2.44-6.39,3.72-1.84,1.12-3.55,2.44-5.44,3.45-5,2.67-10.1,5.21-15.16,7.81a3.72,3.72,0,0,0-.58.37l.85,2.35-.51.37-2.83-1.81-6.75,3.69c-1.15-.11-3.38-.81-3.58,2.38,0,.2-.94.52-1.39.45a8.51,8.51,0,0,1-1.91-.75l-.2.38,2.4,1.85-3.4.87.72,3.22L75.19,124c1.53-.22,1.73,2.64,3.55.78,0-.76-1.49-1.75.19-2.73ZM60.1,30.8,60.58,34c-2.33-2.41-4.6-3.51-7.78-.83,1.15,1,2.13,2,3.25,2.8a2.77,2.77,0,0,0,2,.57c1.91-.49,3.76-1.23,5.78-1.92C63,32.85,63,30.73,60.1,30.8ZM38.53,40.65c3.57,3.26,4.75,3.4,7.51,1L41.2,38.45Zm16.65-3.11c-4.82-3.78-4.82-3.78-6.65-2.41C51.36,38.59,52.21,38.92,55.18,37.54Zm-11.75-.41c3.08,3.39,4.29,3.79,7.5,2.11C48,39,47.1,34.79,43.43,37.13ZM38.08,47.45c-3.67-2.74-4.34-2.79-5.91-.57C34,47.64,35.68,49,38.08,47.45ZM26.46,69.1c1.18,2,1.86,2.06,4.34.25l-1.37-1.67ZM67.79,29.28c.46,3.6.64,3.75,3,2.52C70.33,30.33,69.65,29.18,67.79,29.28ZM30,48.91l-.32.63,4.09,2C34,49.21,34,49.18,30,48.91Zm1.73,4.63c-2.48-2.18-3.66-2.18-4.71-.2Zm52-22.28.52-.2c0-.86-.09-1.73-.14-2.74L81,28Zm2.44-1.9c.5,2.22.5,2.22,2.8,3.32C88.77,30.6,88.77,30.6,86.25,29.36ZM41,45.47a6.18,6.18,0,0,0-5.31-2.59C37.34,44.52,38.67,45.47,41,45.47ZM67,33.78c-.9-1.54-.6-3.12-2.62-3.37C65,31.45,64.06,33.39,67,33.78ZM29.9,56.65l.17-1.16-2.73-.21-.1.84ZM74.81,32.07c-1.11-1.34-1.33-2.55-2.88-2.91C72.1,30.78,72.4,31.89,74.81,32.07ZM25.33,57.74c.77,1.4,1.69,1.44,2.73.22ZM76.9,30.58l-.38.59,1.65.81.26-.46Zm-.06-2.42.25-.85-2-.46-.17.55Z"/><path d="M57,88.41c.52-.16,1-.48,1.31-.37s.69.64,1,1c-.36.32-.68.85-1.07.91a8.83,8.83,0,0,1-2.81,0c-.48-.09-.87-.67-1.3-1a4.66,4.66,0,0,1,1.43-.86C56,88,56.57,88.29,57,88.41Z"/><path d="M69.52,100c1.48.58,3,1.13,4.44,1.76a.86.86,0,0,1,.19.82c-.2.29-.74.68-.91.59-1.4-.71-3.15-.91-4.11-2.32Z"/><path d="M53,83.13c-1.32.66-2.39,2-3.67,0C51.22,82.22,51.22,82.22,53,83.13Z"/><path d="M55.09,84.14c1.68-1.15,2.59-.78,3.49.67C57.19,85.41,56.18,85.5,55.09,84.14Z"/><path d="M79.81,111.83l1.48-1.4c.38.43.93.82,1.06,1.32.08.29-.57,1.1-.81,1.07A5.7,5.7,0,0,1,79.81,111.83Z"/><path d="M78.78,43.32l1.28,1.44c-.37.31-.83.93-1.1.86a2.27,2.27,0,0,1-1.18-1.09C77.7,44.39,78.31,43.86,78.78,43.32Z"/><path d="M77.32,110.09c-.63.57-1,1.09-1.51,1.26-.21.08-1-.74-1-.91A2.47,2.47,0,0,1,76,109.2C76.17,109.1,76.7,109.66,77.32,110.09Z"/><path d="M81.64,39.16l2.75.58C82.8,41.17,82.8,41.17,81.64,39.16Z"/><path d="M80.65,37.76c-.43.88-.78,1.69-1.84,1.23a1.35,1.35,0,0,1-.43-1.24C79,36.9,79.77,37.18,80.65,37.76Z"/><path d="M77.33,98.22l2.65.44c-1.47,1.25-1.47,1.25-2.8.31Z"/><path d="M66,102.64c.87-1.07,1.64-.88,2.3-.17a1.1,1.1,0,0,1-.17,1.06C67.26,104.09,66.56,103.75,66,102.64Z"/><path d="M61.75,95.48l2.67-.67c-.49,1.52-1.1,2.55-2.43,1.63Z"/><path d="M57.42,97.83c1.12-1.12,1.88-.72,2.52.1a.84.84,0,0,1-.16.82C58.78,99.33,58.05,99,57.42,97.83Z"/><path d="M57.64,77.79c.4.69.9,1.19.8,1.46-.18.48-.73.82-1.13,1.21-.3-.34-.91-.76-.84-1A6.59,6.59,0,0,1,57.64,77.79Z"/><path d="M54.37,44.43c-1.29-.3-1.67-1-1.27-1.92a1.16,1.16,0,0,1,1.06-.27C55.21,42.74,55,43.51,54.37,44.43Z"/><path d="M84.65,39.08c1.12-.93,1.9-1,2.55,0a.85.85,0,0,1-.2.8C86,40.72,85.39,40.12,84.65,39.08Z"/><path d="M91,49c-1.09.77-1.83.4-2.29-.67a.89.89,0,0,1,.41-.75C90.35,47.24,91,47.78,91,49Z"/><path d="M91.15,43.4A7.06,7.06,0,0,1,92.09,45c0,.19-.68.8-.77.75a4.25,4.25,0,0,1-1.24-1.15C90,44.52,90.62,44,91.15,43.4Z"/><path d="M94.52,53.82c-.7.39-1.14.84-1.52.8s-.72-.59-1.08-.91c.38-.29.75-.8,1.14-.81S93.85,53.37,94.52,53.82Z"/><path d="M41.16,73.19c.38.6.78,1,.8,1.34s-.63.77-.83.71c-.43-.12-.76-.56-1.13-.87Z"/><path d="M46.35,79.67l1.31,1.43c-.29.24-.66.74-.85.68a2.33,2.33,0,0,1-1.11-.9C45.6,80.74,46,80.27,46.35,79.67Z"/><path d="M48.84,46.37c-.53.39-1,.86-1.1.79A8,8,0,0,1,46.58,46c.31-.23.69-.69.92-.63C47.92,45.48,48.26,45.91,48.84,46.37Z"/><path d="M51.92,88.19a7.7,7.7,0,0,1-1.73.45c-.21,0-.41-.4-.62-.62a3.74,3.74,0,0,1,1.16-.76C51,87.21,51.3,87.68,51.92,88.19Z"/><path d="M51.77,79.09c-.58.35-1,.76-1.23.69A4.44,4.44,0,0,1,49.29,79c.35-.3.7-.85,1-.84S51.12,78.63,51.77,79.09Z"/><path d="M81.49,43.39c1-.56,1.79-.54,2.26.6a.86.86,0,0,1-.43.74C82.22,45,81.5,44.7,81.49,43.39Z"/><path d="M56.83,92.93c.41.61.79.95.85,1.36,0,.19-.57.73-.78.68a4.1,4.1,0,0,1-1.15-.81Z"/><path d="M56.82,44.6c.58-.43,1-.92,1.36-.94s.76.49,1.15.77c-.39.39-.72.94-1.19,1.1C57.88,45.62,57.4,45,56.82,44.6Z"/><path d="M65,103.27c-.71.31-1.12.65-1.5.61s-.8-.69-.74-.79c.23-.39.62-.86,1-.92S64.38,102.72,65,103.27Z"/><path d="M80.75,47.13l3.55-.57C82.66,48.43,82.66,48.43,80.75,47.13Z"/><path d="M66.78,45.11l-1.5,1-.71-1.3,1.73-.6Z"/><path d="M68.42,91.75c.71-.34,1.16-.75,1.53-.68s.66.6,1,.93c-.39.29-.77.79-1.15.79S69.06,92.26,68.42,91.75Z"/><path d="M75.33,89.64c-1,.81-1.7.91-2.3.07a.82.82,0,0,1,.13-.81C74.05,88.21,74.65,88.7,75.33,89.64Z"/><path d="M74.25,112.72c.36.65.83,1.13.74,1.44a1.39,1.39,0,0,1-1.07.82c-.29,0-.87-.66-.83-1S73.69,113.31,74.25,112.72Z"/><path d="M75.18,42.83c-.49.36-1,.83-1.06.76a4.52,4.52,0,0,1-.86-1c.31-.21.63-.59.93-.57S74.74,42.44,75.18,42.83Z"/><path d="M73.53,106l1.89,1c-.4.45-.55.73-.67.72C73.79,107.66,73.79,107.64,73.53,106Z"/><path d="M101.15,57c.51-.4.89-.88,1.08-.82a4.47,4.47,0,0,1,1.17.9c-.25.27-.55.8-.74.76A6,6,0,0,1,101.15,57Z"/><path d="M69,107.82h-3.2C67,106.26,67.7,106.69,69,107.82Z"/><path d="M87.53,42c.47.5.91.78,1,1.16s-.33.64-.52,1a9.71,9.71,0,0,1-1.25-1C86.74,43,87.17,42.46,87.53,42Z"/><path d="M65.32,88.14l-2-.87.34-.89,2.06.72Z"/><path d="M60.1,40.17l1.4,1.1c-.25.29-.66.87-.73.83a10.47,10.47,0,0,1-1.45-1.05Z"/><path d="M60.68,80.93c1.41-1.33,2.07-1.18,2.79-.09-.32.23-.55.53-.76.52A14.1,14.1,0,0,1,60.68,80.93Z"/><path d="M86.37,54c.33.46.76.81.71,1.07s-.51.59-.79.88c-.29-.29-.78-.56-.8-.87S86,54.46,86.37,54Z"/><path d="M30.46,78.81c.5-3.66,3.81-.53,4.26-3.68,1.17,2,.76,3,0,4C33.28,79.2,32.29,76.69,30.46,78.81Z"/><path d="M32.67,71.73c.34.88.69,1.37.63,1.81s-.56.95-.88,1a1.42,1.42,0,0,1-1-.84C31.29,73.42,31.81,73,32.67,71.73Z"/><path d="M37,81.61,38,82.92a3.82,3.82,0,0,1-1.15.71c-.21,0-.77-.55-.72-.75C36.19,82.5,36.59,82.18,37,81.61Z"/><path d="M36.74,88c.64-.3,1-.64,1.32-.57s.5.54.74.83c-.3.21-.62.59-.91.58S37.29,88.47,36.74,88Z"/><path d="M85.49,118.16l.91,1.9a7,7,0,0,1-1,.47,18,18,0,0,1-1-1.83Z"/><path d="M82.64,121.83l-2.28.2C81,120.43,81.68,120.3,82.64,121.83Z"/><path d="M123.8,97.08c-.35,1.44-1.1,1.3-2.14.59C122.14,96.49,122.8,96.28,123.8,97.08Z"/></svg>