<svg xmlns="http://www.w3.org/2000/svg" viewBox="0 0 150 150"><defs><style>.a{fill:#b9e2cc;}.b{fill:#e9b6bb;}.c{fill:#e2a3a9;}.d{fill:#d1747c;}.e{fill:#cf6e76;}.f{fill:#d67e84;}.g{fill:#df999f;}.h{fill:#f1d1d4;}.i{fill:#dd9399;}.j{fill:#e1a1a7;}.k{fill:#faeced;}.l{fill:#fbdbb6;}.m{fill:#f9b674;}.n{fill:#f8b36e;}.o{fill:#fabb7e;}.p{fill:#facb99;}.q{fill:#fde9d1;}.r{fill:#fac893;}.s{fill:#fff5ec;}.t{fill:#addbc1;}.u{fill:#9c9c8e;}.v{fill:#8d615d;}.w{fill:#8d5c59;}.x{fill:#8e6a62;}.y{fill:#a9c192;}.z{fill:#a8bb88;}.aa{fill:#a8b27b;}.ab{fill:#a8aa6e;}.ac{fill:#acc092;}.ad{fill:#a89f5f;}.ae{fill:#65b686;}.af{fill:#619a60;}.ag{fill:#618441;}.ah{fill:#618f51;}.ai{fill:#5fb382;}.aj{fill:#5c995b;}.ak{fill:#5b823f;}.al{fill:#5b8c4c;}.am{fill:#70bb90;}.an{fill:#6d9e66;}.ao{fill:#6c9355;}.ap{fill:#8dcba8;}.aq{fill:#7f8f79;}.ar{fill:#745b51;}.as{fill:#73574d;}.at{fill:#746257;}.au{fill:#89ac77;}.av{fill:#89a163;}.aw{fill:#cbe9d7;}.ax{fill:#c5c799;}.ay{fill:#c4b37a;}.az{fill:#86c8a3;}.ba{fill:#e6d1a8;}.bb{fill:#ebf5ef;}.bc{fill:#e3be89;}</style></defs><title>icon</title><path class="a" d="M48.39,60.12h0c0,.15.34.82,3.35,3.88h0c-3-3-3.34-3.72-3.35-3.88h0m0,0,0,0h0l0,0h0m-.25-.95c0,.06.25.39.38.67h0c-.13-.28-.35-.61-.38-.67h0m4.48-.29a.25.25,0,0,1-.16,0h0a.25.25,0,0,0,.16,0h0M47,58c.28.29.61.62,1,1h0c-.41-.38-.74-.71-1-1h0m2.7-.45h0M46.18,56h0a.3.3,0,0,0-.22.33h0a.3.3,0,0,1,.22-.33l0,0h0l0,0"/><path class="b" d="M42.32,57.41a.22.22,0,0,0-.19.08c-.34.63-.06,2-.54,2.42a.8.8,0,0,0,.3-.36,1.82,1.82,0,0,0,.13-.71V58.7h0a2.71,2.71,0,0,0,0-.37h0a2.71,2.71,0,0,1,0,.37h0v.14h0a1.82,1.82,0,0,1-.13.71.8.8,0,0,1-.3.36.56.56,0,0,1-.42.16l-.18,0a3.36,3.36,0,0,1-1.23-.4,5.51,5.51,0,0,0-1.67-.37H38l-.1,0c-.09,0-.16,0-.17.09l-.6-.23c-.17.3-.5.42-.72.65a1.46,1.46,0,0,0-.21.77,1.71,1.71,0,0,0,.06.43,5,5,0,0,0,.25.69.25.25,0,0,1,0,.07h0l0,.05h0a1.22,1.22,0,0,1-.17.51c-.07.19-.17.36-.29.36h0a.83.83,0,0,0-.26.64,3,3,0,0,0,.14.81c.13.46.27.92.4,1.38l.13.36,0-.06,0,.06-.13-.36a15.47,15.47,0,0,1,.73,3.72A2.18,2.18,0,0,1,37,70a1.26,1.26,0,0,1-1.29,1h0A17.56,17.56,0,0,1,33,69a1.23,1.23,0,0,0-.64-.35c-.22,0-.29.22-.29.55a5.06,5.06,0,0,0,.14,1,14.13,14.13,0,0,1,.73,4.07c0,.21,0,.41,0,.6a.18.18,0,0,1-.18.09,1.24,1.24,0,0,1-.31,0,1.13,1.13,0,0,0-.31-.06.24.24,0,0,0-.15,0,1.82,1.82,0,0,0-.18.91c0,.62.12,1.38.12,2a2.75,2.75,0,0,1,0,.41,4.94,4.94,0,0,0-.7,2.31,2.12,2.12,0,0,0,.16.83h-.06c-.25,0-1-1-1.33-1.07s-.33.3-.34.68A4.74,4.74,0,0,0,29.72,82a16.38,16.38,0,0,1,.36,2.81,1.69,1.69,0,0,1-.36,1.29c.35.27.81.81,1.13,1.06a.79.79,0,0,0,.44.16c.32,0,.51-.27.83-.32a3.73,3.73,0,0,1,.9.63c.17.15.28.21.37.21s.27-.4.38-.68a.27.27,0,0,1,.3-.26,2.35,2.35,0,0,1,.41.07,1.64,1.64,0,0,0,.41.08.31.31,0,0,0,.23-.08c.42-.28.09-1.66.59-1.66a.49.49,0,0,1,.2.06c-.11-.06-.15-.12-.15-.19,0-.26.73-.56,1.11-.56.14,0,.23,0,.23.14v0h0a3.27,3.27,0,0,1,.62.67,5.75,5.75,0,0,1,.4.68,20.66,20.66,0,0,0,1.7,3.46h.08l.29,0c.13,0,.28,0,.44,0A2.31,2.31,0,0,1,42,90c.74.57,1.52,1.25,2,1.25h.08v0c0-.16-.22-.6-.21-.76v0A10.28,10.28,0,0,0,44,88.23V88c0-1.68,0-3.61.28-3.61h0a4.13,4.13,0,0,1,1.41,1.35,25.25,25.25,0,0,0,2.75,3.19c.25.32.46.79.71,1.11.73.85,1.65,1.79,2,1.83a1.8,1.8,0,0,0,.74.19.62.62,0,0,0,.68-.52l.7-.42a8.9,8.9,0,0,0-.27-1.6c-.14-.71-.36-1.2-.36-1.39s0-.08.07-.08h0a26.62,26.62,0,0,1-1.47-3.34l-.57-.45a12.39,12.39,0,0,1,.53,2.39c0,.11,0,.22,0,.32,0,.53-.14.93-.53.93a2.54,2.54,0,0,1-1.38-.8,19.37,19.37,0,0,1-2.79-1.62,9.55,9.55,0,0,1-3.61-4S41.77,78.36,40.81,75a28.11,28.11,0,0,1-1.26-6.42A2.65,2.65,0,0,1,39.92,67s0,0,0-.17a6.19,6.19,0,0,0-.57-1.94v-.08a2.26,2.26,0,0,1,.2-1,.61.61,0,0,1,.56-.35,2.12,2.12,0,0,1,1.23.61,17,17,0,0,0,1.86.76,5.2,5.2,0,0,0,1.41.29c.33,0,.57-.1.61-.34a4,4,0,0,0,1.39.64.23.23,0,0,0,.17,0c0-.23,0-.37,0-.37a.67.67,0,0,1,0,.18.23.23,0,0,1-.08.19c0,.13,0,.29-.07.47.37-.74.8-1.32,1.25-1.32a.68.68,0,0,1,.45.19,6.85,6.85,0,0,1,1.23-.11,4.33,4.33,0,0,1,1.78.34,34.79,34.79,0,0,1-4.25-3.41C45.5,60,43.1,57.41,42.32,57.41"/><path class="c" d="M36.36,65.46h0l.13.36,0-.06c0-.1-.08-.2-.11-.3m0-3.18h0c-.07.19-.17.36-.29.36h0c.12,0,.22-.17.29-.36h0m.15-.57h0m-.14-2h0a1.46,1.46,0,0,0-.21.77h0a1.46,1.46,0,0,1,.21-.77h0m3.36-.1h0a3.36,3.36,0,0,0,1.23.4h0a3.36,3.36,0,0,1-1.23-.4h0m-2.64-.55h0l.6.23s.08-.08.17-.09h0c-.09,0-.16,0-.17.09l-.6-.23m4.9-.26a1.82,1.82,0,0,1-.13.71.8.8,0,0,1-.3.36h0a.8.8,0,0,0,.3-.36,1.82,1.82,0,0,0,.13-.71h0m0-.12v.12h0v-.12h0"/><path class="b" d="M37.17,59.08h-.05l.6.23s.08-.08.17-.09a3.27,3.27,0,0,0-.72-.16"/><path class="b" d="M39.76,59.65a3.36,3.36,0,0,0,1.23.4l-.16,0-1.07-.36"/><path class="b" d="M36.4,59.75a.8.8,0,0,0-.25.63,2,2,0,0,0,.1.57,1.71,1.71,0,0,1-.06-.43h0a1.46,1.46,0,0,1,.21-.77"/><path class="b" d="M36.5,61.64a.59.59,0,0,1,0,.08h0a.25.25,0,0,0,0-.07"/><path class="b" d="M36.39,62.28a1.8,1.8,0,0,1-.31.35h0c.12,0,.22-.17.29-.36"/><path class="b" d="M51.8,65.17c.21.16.75.58,1.33,1l.3-.29-.09-.1h0a3.46,3.46,0,0,1-1.5-.56"/><path class="b" d="M43.38,69.69a.93.93,0,0,0-.56.52,1.72,1.72,0,0,0-.11.38,8.42,8.42,0,0,0,.67-.9"/><path class="b" d="M43.51,74.91c.26.74.59,1.6,1,2.57l.25.41-.08-.18c-.41-.95-.82-1.91-1.17-2.8"/><path class="b" d="M48.28,75.91a6.14,6.14,0,0,0-.08,1,10.49,10.49,0,0,0,.51,3c-.13-1.34-.27-2.69-.43-4"/><path class="b" d="M49.85,83.62v.16a2.35,2.35,0,0,0,.45.18l-.45-.34"/><path class="b" d="M29,86.18l.15.17a.35.35,0,0,0,.11-.1,1.71,1.71,0,0,1-.26-.07"/><path class="d" d="M56.05,74.42a2.46,2.46,0,0,1-.39.22c-.74.21-.86,1-1.71,1l-.3,0h-.08c-1.24,0-1.56.62-1.7,2.51a38.75,38.75,0,0,0-.62,4,4.15,4.15,0,0,0,.06.73,1.77,1.77,0,0,1,.09.49c0,.41-.22.58-.22,1a1.33,1.33,0,0,0,0,.32v0h0a1.89,1.89,0,0,1,0-.31c0-.42.22-.59.22-1a1.77,1.77,0,0,0-.09-.49,3.37,3.37,0,0,1-.06-.73,38.75,38.75,0,0,1,.62-4c.14-1.9.46-2.52,1.71-2.52h.07a1.62,1.62,0,0,0,.3,0c.85,0,1-.77,1.71-1a3,3,0,0,0,.4-.23l0,0"/><path class="e" d="M53.43,65.83l-.3.29a6.59,6.59,0,0,0,1.09.59l-.79-.88"/><path class="e" d="M54.53,72.42a6.1,6.1,0,0,1-1.38.21,1.13,1.13,0,0,1-.65-.15,5.09,5.09,0,0,0-3.17,1.31,3.93,3.93,0,0,0-1,2.12c.16,1.33.3,2.68.43,4a22.12,22.12,0,0,0,1.09,2.85s0,.37.05.84l.45.34a1.5,1.5,0,0,0,.29.06s0,.08.07.22l.57.45v0a1.33,1.33,0,0,1,0-.32c0-.42.22-.59.22-1a1.77,1.77,0,0,0-.09-.49,4.15,4.15,0,0,1-.06-.73,38.75,38.75,0,0,1,.62-4c.14-1.89.46-2.51,1.7-2.51h.08l.3,0c.85,0,1-.78,1.71-1a2.46,2.46,0,0,0,.39-.22c-.44-.61-.94-1.27-1.52-2"/><path class="f" d="M48,64.54c-.45,0-.88.58-1.25,1.32A16,16,0,0,1,46.24,68c-.35,1.07-.88,2-1.54,2a1,1,0,0,1-.65-.27,1.16,1.16,0,0,0-.37-.06,1.08,1.08,0,0,0-.3,0,8.42,8.42,0,0,1-.67.9,2.87,2.87,0,0,0-.05.55,12.47,12.47,0,0,0,.85,3.77c.35.89.76,1.85,1.17,2.8l.08.18c.35.57,1,1.65,1.87,2.74a11.2,11.2,0,0,0,3.22,3.15v-.16c0-.47-.05-.84-.05-.84a22.12,22.12,0,0,1-1.09-2.85,10.49,10.49,0,0,1-.51-3,4.24,4.24,0,0,1,1.13-3.12,5.09,5.09,0,0,1,3.17-1.31,1.13,1.13,0,0,0,.65.15,6.1,6.1,0,0,0,1.38-.21c-.84-1-1.85-2.22-3.07-3.59a9.18,9.18,0,0,1-1.52-2.06.05.05,0,0,1,.06-.06,3.6,3.6,0,0,1,1.18.74c1.21.94,4.94,3.72,5.16,3.74a1.59,1.59,0,0,0,.47.09c.23,0,.34-.11.34-.32a1.62,1.62,0,0,0-.18-.62,17.65,17.65,0,0,0-2.75-3.63,6.59,6.59,0,0,1-1.09-.59c-.58-.37-1.12-.79-1.33-1l-.09-.08L51.46,65a4.33,4.33,0,0,0-1.78-.34,6.85,6.85,0,0,0-1.23.11.68.68,0,0,0-.45-.19"/><path class="g" d="M40.15,63.48a.61.61,0,0,0-.56.35,2.26,2.26,0,0,0-.2,1v.08A6.19,6.19,0,0,1,40,66.83c0,.14,0,.17,0,.17a2.65,2.65,0,0,0-.37,1.59A28.11,28.11,0,0,0,40.81,75c1,3.35,2.08,6.44,2.08,6.44a9.55,9.55,0,0,0,3.61,4,19.37,19.37,0,0,0,2.79,1.62,2.54,2.54,0,0,0,1.38.8c.39,0,.53-.4.53-.93,0-.1,0-.21,0-.32a12.39,12.39,0,0,0-.53-2.39c0-.14-.07-.22-.07-.22A1.5,1.5,0,0,1,50.3,84a2.35,2.35,0,0,1-.45-.18,11.2,11.2,0,0,1-3.22-3.15c-.83-1.09-1.52-2.17-1.87-2.74l-.25-.41c-.41-1-.74-1.83-1-2.57a12.47,12.47,0,0,1-.85-3.77,2.87,2.87,0,0,1,.05-.55,1.72,1.72,0,0,1,.11-.38.93.93,0,0,1,.56-.52,1.08,1.08,0,0,1,.3,0,1.16,1.16,0,0,1,.37.06,1,1,0,0,0,.65.27c.66,0,1.19-.93,1.54-2a16,16,0,0,0,.51-2.12c0-.18,0-.34.07-.47a.23.23,0,0,1-.17,0,4,4,0,0,1-1.39-.64c0,.24-.28.34-.61.34a5.2,5.2,0,0,1-1.41-.29,17,17,0,0,1-1.86-.76,2.12,2.12,0,0,0-1.23-.61"/><path class="g" d="M46.87,65s0,.14,0,.37a.23.23,0,0,0,.08-.19.67.67,0,0,0,0-.18"/><path class="h" d="M44.23,84.38C44,84.38,44,86.31,44,88v.24a10.28,10.28,0,0,1-.09,2.18v0c0,.16.21.6.21.76v0H44c-.48,0-1.26-.68-2-1.25a2.31,2.31,0,0,0-1.36-.41c-.16,0-.31,0-.44,0l-.29,0h-.08a20.66,20.66,0,0,1-1.7-3.46,5.75,5.75,0,0,0-.4-.68,3.27,3.27,0,0,0-.62-.67h0v0c0-.1-.09-.14-.23-.14-.38,0-1.11.3-1.11.56,0,.07,0,.13.15.19h0a.49.49,0,0,0-.2-.06c-.5,0-.17,1.38-.59,1.66a.31.31,0,0,1-.23.08,1.64,1.64,0,0,1-.41-.08,2.35,2.35,0,0,0-.41-.07.27.27,0,0,0-.3.26c-.11.28-.15.68-.38.68s-.2-.06-.37-.21a3.73,3.73,0,0,0-.9-.63c-.32,0-.51.32-.83.32a.79.79,0,0,1-.44-.16c-.32-.25-.78-.79-1.13-1.06A.62.62,0,0,0,29.4,86c-.07,0-.12,0-.14.17a.28.28,0,0,1,0,.11.35.35,0,0,1-.11.1.19.19,0,0,0-.09.15.41.41,0,0,0,0,.16h0c.17.1.44.4.67.54.48.36.76.25,1.26.68A17.75,17.75,0,0,0,32.46,89a1.49,1.49,0,0,0,.61.17h.1a4,4,0,0,0,.67.06,2.33,2.33,0,0,0,1.43-.43,1.34,1.34,0,0,1-.06-.35c0-.27.17-.32.36-.32h.24a.4.4,0,0,0,.19,0h0c.11,0,.28.13.44.18s.29-.26.49-.26a.6.6,0,0,1,.39.21,28.32,28.32,0,0,0,3.26,2.88A16.58,16.58,0,0,0,44.71,93l.2,0c.63,0,.78-.71,1.37-.75h0a1,1,0,0,1,.13.28l.15-.13c0-.12,0-.38,0-.5h.06a1.2,1.2,0,0,1,.58.26c2.3,1.92,3.63,1.06,5.75,2.35a2.4,2.4,0,0,0,.83.25.31.31,0,0,0,.3-.14c.09-.27.4-.35.4-.7v0c-.15-.87-.56-2-.83-3l-.38.23-.7.42a.62.62,0,0,1-.68.52,1.8,1.8,0,0,1-.74-.19c-.34,0-1.26-1-2-1.83-.25-.32-.46-.79-.71-1.11a25.25,25.25,0,0,1-2.75-3.19,4.13,4.13,0,0,0-1.41-1.35h0"/><path class="i" d="M42,58.33h0a2.71,2.71,0,0,1,0,.37,2.71,2.71,0,0,0,0-.37"/><path class="i" d="M36,62.61s-.16,0-.19.42c0-.38.19-.42.19-.42h0m.53-.9h0"/><path class="j" d="M36.36,65.46h0c0,.1.07.2.11.3l0,.06-.13-.36h0"/><path class="i" d="M35.81,63.18a7.2,7.2,0,0,0,.55,2.28c0,.1.07.2.11.3,0-.1-.08-.2-.11-.3a7.2,7.2,0,0,1-.55-2.28m0,0h0"/><path class="k" d="M29.06,86.66h0c0,.09-.14.09-.14.17A.24.24,0,0,0,29,87a3.56,3.56,0,0,0,.61.75c.81.74,1.65,1.62,2.39,2.2,1.56,1.17,3,1.92,4,1.92a1.27,1.27,0,0,0,.28,0c.13,0,.14-.21.14-.42v-.07a1.1,1.1,0,0,1,0-.27c.05-.6.71-.37.71-1.11a2.12,2.12,0,0,0,0-.33.13.13,0,0,1,0-.06c0-.06,0-.08.08-.08l.11,0c1.55,1.26,3,2.36,4.46,3.43a13.39,13.39,0,0,0,3.87,1.63.9.9,0,0,0,1-1,3,3,0,0,0-.32-1.29h0c-.59,0-.74.75-1.37.75l-.2,0a16.58,16.58,0,0,1-4.12-1.85,28.32,28.32,0,0,1-3.26-2.88.6.6,0,0,0-.39-.21c-.2,0-.28.23-.49.26s-.33-.18-.44-.18h0a.4.4,0,0,1-.19,0h-.24c-.19,0-.36,0-.36.32a1.34,1.34,0,0,0,.06.35h0a2.33,2.33,0,0,1-1.43.43,4,4,0,0,1-.67-.06h-.1a1.49,1.49,0,0,1-.61-.17A17.75,17.75,0,0,1,31,87.88c-.5-.43-.78-.32-1.26-.68-.23-.14-.5-.44-.67-.54"/><path class="l" d="M124.69,48.7c-.57.58-1.25,1.3-2,2.13-1.07,1.13-1.83,2-1.9,2h0a.17.17,0,0,1,0-.07h0s-.2.22-.5.58l-1.24,1.46c-1,1.11-2.12,2.45-3,3.34l-.79,1.17c.62-.65,2.09-2.19,3.19-3.23a4.38,4.38,0,0,1,1.28-1s.06,0,.06.08a9.85,9.85,0,0,1-1.52,2.66s-1.22,2.24-2.9,5.13a64,64,0,0,1-6,8.89s-4.19,4.84-8.89,9.5c-4.54,4.54-9.64,8.86-11.32,8.86H89c-.06,0-.4.1-2.1,1.6.2.27.4.54.61.79,1.1,1.22.69,1.27,1.23,2.08,1.9-1.61,3.52-2.88,4.38-3.11a1.91,1.91,0,0,1,.64-.13c.46,0,.68.28.68.9v.09h0c0,.29-1.87,3.89-2.69,5.47l.44.43.44.43c.24-.22.5-.46.75-.71a54.31,54.31,0,0,1,6.43-6h0c.07,0,.09.07.09.17s-.13.66-.13.92a.23.23,0,0,0,.06.18c.94-.22,3.11-2.72,4.4-3.75a8.45,8.45,0,0,0,4-3.14h0a.08.08,0,0,1,0,0s0,0,0,0c0,.32-1.19,2.45-1.24,3a.11.11,0,0,0,.12.11c.33,0,1.21-1,2.06-2.06,2.13-2.63,4.29-5.34,4.93-5.34h0c.3-.76.9-2,1.18-2.73a2.26,2.26,0,0,0,.18-.72c0-.39-.33-.24-.39-.57h0a14.59,14.59,0,0,1,.74-1.88,2.59,2.59,0,0,0,.26-.72s0-.08-.06-.08-.48.34-.74.53c-.11.1-.18.15-.23.15s-.07-.05-.07-.14c0-.28.21-.92.21-1.21,0-.1,0-.15-.08-.15s0,0,0,0-.56.38-1,.75-.77.76-.91.76-.07,0-.07-.09a1.25,1.25,0,0,1,.08-.33c-.14.37-.3.51-.44.51s-.39-.35-.39-.7a.66.66,0,0,1,.23-.54h0a14,14,0,0,1,.88-1.57c.29-.43.72-1.13.87-1.31,1.19-1.46,2.92-4.17,4.37-6.3a6.69,6.69,0,0,1,.85-3,28,28,0,0,0,2-3.93c-.14.11-.89,1.16-1,1.27h0a16.32,16.32,0,0,0-1.2,1.17l-2.52,2.5a25.77,25.77,0,0,1-3.48,3.07s0,0,0,0,0,0,0,0a24.09,24.09,0,0,1,2-3.23c2.2-3,3-4.42,4.75-6.92l1.58-2.11c1.27-1.82,2.72-4,2.91-4.4a4.12,4.12,0,0,0,.58-1.32c0-.06,0-.08-.06-.08a.68.68,0,0,0-.33.2l-.19-.31"/><path class="l" d="M103.6,57.27a11.39,11.39,0,0,0-1.09,1,130.92,130.92,0,0,0-9.05,10c-2.16,2.67-1.82,3.11-2,4.14A9.76,9.76,0,0,1,89.85,75c.35-.42,1.19-1.44,2-2.48l-.34-.24h0c.23-1-.11-1.46,2-4.13,2.36-2.89,5.13-6,9-10a12.85,12.85,0,0,1,1-.89"/><path class="l" d="M114.78,60l-.59.91.2-.18c.15-.26.28-.51.39-.73"/><path class="l" d="M109.06,66.18c-1.8,1.54-3.63,3-5.49,4.52a28.19,28.19,0,0,0,5.49-4.52"/><path class="l" d="M105.17,73.27l-.26.28c-1.34,1.48-2.7,2.94-4,4.27,1.06-1.07,2.26-2.33,3.63-3.81l.61-.74"/><path class="l" d="M89.35,75.66c-.42.56-.88,1.16-1.38,1.79l.38.24a9.74,9.74,0,0,1,1-2"/><path class="l" d="M88.92,81.48h-.1a2,2,0,0,1-.82.14,6.31,6.31,0,0,1-1.13-.12c-.71.25-.5,1-1.22,1.19-.71.06-.35.85-1.06.85a2.4,2.4,0,0,1-.76-.17,4.72,4.72,0,0,0-.61-.11l-.57.69,0,0a11.24,11.24,0,0,0,1.22,2.24c.47.74,1,1.9,1.66,3.15.28-.6.64-1.38,1-2.14a9,9,0,0,0,.81-2.54c0-.22-.06-.34-.21-.34a.4.4,0,0,0-.15,0h0a11.31,11.31,0,0,0,1.38-2.56.13.13,0,0,0,0-.1l-.54.21h0a1,1,0,0,1,.47-.23.08.08,0,0,1,.07,0l.66-.26"/><path class="l" d="M114.45,82.61h0c0,.11,0,.25-.07.4l.19-.4h-.07"/><path class="l" d="M93.72,83h-.16a.37.37,0,0,0,.4.32l.22,0a2.32,2.32,0,0,0,.5-.19,5.54,5.54,0,0,0-1-.11"/><path class="l" d="M77.07,99.05a1.48,1.48,0,0,0,0,.21,1.71,1.71,0,0,0-.07.18c0,.13,0,.2.1.2h0l-.41,1.1c.44,0,.61.45,1,.62h.15a2.82,2.82,0,0,0,1.57-.6q-1.14-.83-2.31-1.71"/><path class="l" d="M77,99.44a5.76,5.76,0,0,0-.31,1.25v0h0l.41-1.1h0c-.07,0-.1-.07-.1-.2"/><path class="l" d="M79.38,100.76a2.82,2.82,0,0,1-1.57.6h-.15a.74.74,0,0,0,.34.08,2.54,2.54,0,0,0,1.39-.66h0"/><path class="m" d="M104.49,56.72h0a3.1,3.1,0,0,0-.86.54,2.53,2.53,0,0,1,.77-.47h0c.08,0,.11.05.11.12,0,.45-1.2,2.05-1.44,2.79h.2c.06,0,.14,0,.3-.16a3,3,0,0,1,.71-.44.66.66,0,0,1,.27.61,5.06,5.06,0,0,1-.42,1.59c.08.65.73.5.83,1.15h0a.17.17,0,0,0,0,.07c0,.52.6.31.6.8a1.93,1.93,0,0,1-.27.81,2.78,2.78,0,0,0-.21.87c0,.23.1.34.3.34a6.91,6.91,0,0,0,2.49-1.3,35.49,35.49,0,0,0,5.88-4c1.32-1.34,1.11-.68,2.24-1.79l.07-.08h0c-1.13,1.11-.93.45-2.23,1.79A35.91,35.91,0,0,1,108,64a6.84,6.84,0,0,1-2.5,1.3c-.2,0-.29-.11-.3-.34a2.81,2.81,0,0,1,.22-.86,2.18,2.18,0,0,0,.27-.82c0-.49-.6-.28-.6-.8a.2.2,0,0,1,0-.07c-.1-.65-.75-.49-.83-1.15h0a4.84,4.84,0,0,0,.42-1.6.65.65,0,0,0-.27-.6,3.15,3.15,0,0,0-.71.45c-.16.13-.24.16-.3.16h-.07l-.07,0-.06,0h0c.24-.74,1.45-2.34,1.45-2.79a.11.11,0,0,0-.12-.12"/><path class="n" d="M104.4,56.79h0a2.53,2.53,0,0,0-.77.47,12.85,12.85,0,0,0-1,.89c-3.92,4-6.69,7.08-9,10-2.16,2.67-1.82,3.11-2,4.13l.34.24.16-.2a9.71,9.71,0,0,0,1.68-2.63c0-.08,0-.12-.11-.12h0s1-1.72,2.32-3.44,2.77-3.45,3.53-3.58a20,20,0,0,1,2.12-1s0,.61,0,1.49c0,.35,0,.76,0,1.18a8.11,8.11,0,0,1-1,4.14,5.16,5.16,0,0,0-.22,1.29.86.86,0,0,0,0,.16,1.49,1.49,0,0,0,.76,1.52,1.44,1.44,0,0,0,.49.08,4.36,4.36,0,0,0,2-.7c1.86-1.48,3.69-3,5.49-4.52,1.19-1.17,2.53-2.59,4-4.28,0,0,.49-.44,1.1-1l.59-.91c.07-.15.13-.28.18-.41l.3-.31.79-1.17-.07.08c-1.13,1.11-.92.45-2.24,1.79a35.49,35.49,0,0,1-5.88,4,6.91,6.91,0,0,1-2.49,1.3c-.2,0-.3-.11-.3-.34a2.78,2.78,0,0,1,.21-.87,1.93,1.93,0,0,0,.27-.81c0-.49-.6-.28-.6-.8a.17.17,0,0,1,0-.07c-.1-.65-.75-.5-.83-1.15h0a5.06,5.06,0,0,0,.42-1.59.66.66,0,0,0-.27-.61,3,3,0,0,0-.71.44c-.16.13-.24.16-.3.16h-.2c.24-.74,1.45-2.34,1.44-2.79,0-.07,0-.12-.11-.12"/><path class="o" d="M114.39,60.76l-.2.18c-.61.52-1.1,1-1.1,1-1.5,1.69-2.84,3.11-4,4.28a28.19,28.19,0,0,1-5.49,4.52,4.36,4.36,0,0,1-2,.7,1.44,1.44,0,0,1-.49-.08,1.49,1.49,0,0,1-.76-1.52.86.86,0,0,1,0-.16,5.16,5.16,0,0,1,.22-1.29,8.11,8.11,0,0,0,1-4.14c0-.42,0-.83,0-1.18,0-.88,0-1.49,0-1.49a20,20,0,0,0-2.12,1c-.76.13-2.26,1.85-3.53,3.58s-2.32,3.44-2.32,3.44h0c.07,0,.11,0,.11.12A9.71,9.71,0,0,1,92,72.3c-.85,1.11-1.78,2.23-2.15,2.68l-.17.2q-.18.24-.33.48a9.74,9.74,0,0,0-1,2l1.63,1a9,9,0,0,1,1.16.89,2.53,2.53,0,0,1,.67.77v.05a.19.19,0,0,1,0,.08h0a7.07,7.07,0,0,1,1.66-.29c.49,0,.8.14.8.52a2.68,2.68,0,0,1-.58,1.3,2.36,2.36,0,0,0-.19.79.77.77,0,0,0,0,.15h.16a5.54,5.54,0,0,1,1,.11c1-.48,2.92-1.91,6.25-5.25,1.28-1.33,2.64-2.79,4-4.27l.26-.28c.84-1,2.45-3,4.12-5.22a82.7,82.7,0,0,0,5.1-7.29"/><path class="o" d="M88.54,79.89a.16.16,0,0,1,0,.09s0,.08,0,.13,0,.16.19.3a2.08,2.08,0,0,1,.53.66h0a.86.86,0,0,1-.44.42h.1c.71-.26,1.64-.6,2.52-.86-.7-.05-2.19-.68-2.9-.73"/><path class="p" d="M119.73,55.07a4.38,4.38,0,0,0-1.28,1c-1.1,1-2.57,2.58-3.19,3.23l-.3.31c0,.13-.11.26-.18.41s-.24.47-.39.73a82.7,82.7,0,0,1-5.1,7.29c-1.67,2.2-3.28,4.19-4.12,5.22l-.61.74c-1.37,1.48-2.57,2.74-3.63,3.81-3.33,3.34-5.23,4.77-6.25,5.25a2.32,2.32,0,0,1-.5.19l-.22,0c-.32,0-.41-.22-.42-.47a2.36,2.36,0,0,1,.19-.79,2.68,2.68,0,0,0,.58-1.3c0-.38-.31-.52-.8-.52a7.07,7.07,0,0,0-1.66.29h0c0,.08-.14.11-.28.11h-.08c-.88.26-1.81.6-2.52.86l-.66.26a.13.13,0,0,1,0,.1,11.31,11.31,0,0,1-1.38,2.56.4.4,0,0,1,.15,0c.15,0,.22.12.21.34a9,9,0,0,1-.81,2.54c-.33.76-.69,1.54-1,2.14a21.14,21.14,0,0,0,1.42,2.39c1.7-1.5,2-1.6,2.1-1.6h.16c1.68,0,6.78-4.32,11.32-8.86,4.7-4.66,8.89-9.5,8.89-9.5a64,64,0,0,0,6-8.89c1.68-2.89,2.9-5.13,2.9-5.13a9.85,9.85,0,0,0,1.52-2.66s0-.08-.06-.08"/><path class="p" d="M88.19,81.72a1,1,0,0,0-.47.23l.54-.21a.08.08,0,0,0-.07,0"/><path class="q" d="M112.76,75h0m0,0h0m16.42-31.29-.05,0c-.28.23-.22,0-.66.44l-3.88,4.39.29.47a.68.68,0,0,1,.33-.2s.06,0,.06.08a4.12,4.12,0,0,1-.58,1.32c-.19.44-1.64,2.58-2.91,4.4l-1.58,2.11c-1.75,2.5-2.55,4-4.75,6.92a24.09,24.09,0,0,0-2,3.23s0,0,0,0,0,0,0,0a25.77,25.77,0,0,0,3.48-3.07l2.52-2.5a16.32,16.32,0,0,1,1.2-1.17h0c.15-.11.9-1.16,1-1.27h0a28,28,0,0,1-2,3.93,6.69,6.69,0,0,0-.85,3c-1.45,2.13-3.18,4.84-4.37,6.3-.15.18-.58.88-.87,1.31a14,14,0,0,0-.88,1.57h0a.66.66,0,0,0-.23.54c0,.35.17.7.39.7s.3-.14.44-.51h0a1.25,1.25,0,0,0-.08.33c0,.06,0,.09.07.09s.53-.38.91-.76.79-.75,1-.75,0,0,0,0,.08,0,.08.15c0,.29-.22.93-.21,1.21,0,.09,0,.14.07.14s.12-.05.23-.15c.26-.19.61-.53.74-.53s.06,0,.06.08a2.59,2.59,0,0,1-.26.72,14.59,14.59,0,0,0-.74,1.88c.06.33.39.18.39.57a2.26,2.26,0,0,1-.18.72,32.33,32.33,0,0,0-1.35,3.32s0,.07,0,.07.09,0,.18-.11a.27.27,0,0,1,.13-.1h.15c.06,0,.14-.05.33-.36h0c.11-.34.44-1.05.58-1.51.39-1,.25-1.22.73-2.38s1-2.33,1.3-3.23a3.7,3.7,0,0,0,.2-.93v-.09h0a8.36,8.36,0,0,0,.09-1c0-.56-.13-.89-.43-1-.4.55-.6.73-.69.73s-.07-.07-.07-.16,0-.31,0-.44,0-.09,0-.11h0a6.29,6.29,0,0,1,.26-.77c0-.19-.28,0-.28-.2a2.35,2.35,0,0,1,.3-.76c1.48-2.8,2.81-5.31,3.86-7.42.84-1.74,2.84-6.29,3.09-7a1.35,1.35,0,0,0,.11-.44c0-.13-.07-.16-.16-.16h-.2c-.09,0-.16,0-.16-.16a.74.74,0,0,1,0-.12s.14-.2.36-.48c0,0,0,0-.09,0h0l-.59.65h0a4.23,4.23,0,0,1,.49-1c3-4.92,2.52-5.37,4.9-9.23a7.63,7.63,0,0,0,.7-1.36s0,0,0,0"/><path class="r" d="M77,99a2.24,2.24,0,0,0,0,.34A2.24,2.24,0,0,1,77,99h0"/><path class="r" d="M77,99.41c0,.14,0,.23.1.23s-.1-.07-.1-.2v0"/><path class="r" d="M79.38,100.76a2.82,2.82,0,0,1-1.57.6,2.82,2.82,0,0,0,1.57-.6h0"/><path class="r" d="M76.69,100.78h0m0,0h0a1.28,1.28,0,0,0,.9.57,1.28,1.28,0,0,1-.9-.57"/><path class="s" d="M125.85,52.56c-.18,0-.57.4-1,.87s-.69.82-1,1.16l-.09.12c-.22.28-.36.48-.36.48a.74.74,0,0,0,0,.12c0,.13.07.16.16.16h.2c.09,0,.16,0,.16.16a1.35,1.35,0,0,1-.11.44c-.25.7-2.25,5.25-3.09,7-1,2.11-2.38,4.62-3.86,7.42a2.35,2.35,0,0,0-.3.76c0,.19.26,0,.28.2h0a6.29,6.29,0,0,0-.26.77h0s0,.06,0,.11,0,.31,0,.44,0,.16.07.16.29-.18.69-.73c.3.06.43.39.43,1a8.36,8.36,0,0,1-.09,1v.09a3.7,3.7,0,0,1-.2.93c-.31.9-.9,2.19-1.3,3.23s-.34,1.34-.73,2.38c-.14.46-.47,1.17-.58,1.51h0a.08.08,0,0,1,.07,0H115s.09,0,.21-.28a17.79,17.79,0,0,0,.83-1.73c.8-1.93,1.79-4.11,2.44-5.72,1.41-3.56,2.4-6.28,2.4-7.37v-.1a0,0,0,0,0,0,0c-.11,0-.58.63-.84.88s-.31.27-.39.27a.25.25,0,0,1-.12,0,.25.25,0,0,0-.12,0c-.14,0-.37.15-.94.88q-.12.15-.15.15s0,0,0,0a.49.49,0,0,1,.06-.19c1.64-3.4,3.15-6.43,4.7-9.48,1-2.08,2.61-5.79,2.85-6.39a1.53,1.53,0,0,0,0-.3c0-.12,0-.17-.1-.17"/><path class="t" d="M51,56s-.06,0-.06,0c.21.61,1.78,2.27,1.77,2.74a.07.07,0,0,1,0,.05.16.16,0,0,0,.06-.13l-.05-.21h0A7.19,7.19,0,0,0,51.54,57h0a7.19,7.19,0,0,1,1.12,1.47h0l.05.21h0a.16.16,0,0,1-.06.13s-.06.07-.14.07a1.43,1.43,0,0,1-.48-.13,11.91,11.91,0,0,1-2-1,17.6,17.6,0,0,0-2.58-1.18l-.16-.09h-.09l0,0,0,0-1-.54a.52.52,0,0,1,0,.11c0,.2-.21.24-.25.41a4.42,4.42,0,0,0,1.06,1.51c.27.27.6.6,1,1l.1.08h0l.08.08a1.87,1.87,0,0,1,.3.59,1,1,0,0,1,.11.31h0l0,.06h0l-.08,0a.22.22,0,0,0,0,.08c0,.21.18.57,1.32,1.77l1.89,2c.16.16.32.33.5.5h0c-.18-.17-.34-.34-.5-.5l1.6,1.73.12,0a8.1,8.1,0,0,1,1.2-.19,3.25,3.25,0,0,1,1.69.58l.58.37c-.4-.44-1-1.1-2.07-2.1a5.86,5.86,0,0,1-.81-1.3.78.78,0,0,1,0-.14.14.14,0,0,1,.16-.15,6.82,6.82,0,0,1,2.38,1.3s1.6.93,3.11,1.67a8.91,8.91,0,0,0,2.45,1c.11,0,.17,0,.17-.11a.32.32,0,0,0-.07-.17h0a14.54,14.54,0,0,0,2.56,1.34.08.08,0,0,0,.06,0c-.18-.29-.3-.46-.3-.46h0c.22.23.31.36.31.43a0,0,0,0,1,0,0c.1.16.23.35.36.57a3.12,3.12,0,0,1-.15-.81c0-.28.09-.45.33-.45a2,2,0,0,1,1,.42,12.37,12.37,0,0,1,4.27,1.33c-2.45-1.41-5.8-3.58-9.05-5.78-4-2.71-10-7-10.62-7"/><path class="t" d="M60.13,71.59h-.25c0,.12-.18.19-.18.33a.23.23,0,0,0,0,.11.75.75,0,0,1,.06.3,1.23,1.23,0,0,1,0,.2,3.28,3.28,0,0,1-2.3.86,8.1,8.1,0,0,0-1.39,1.07c.29.41.55.79.78,1.16v0a0,0,0,0,1,0,0,1.49,1.49,0,0,1-.49-.21,1.72,1.72,0,0,0-.51-.2l-.05,0c.18.81,2.3,3.32,3.12,4.73a10.88,10.88,0,0,0,2.39,4.42h0l0,0h0c-.22,0-2.07-1.77-2.56-2h0c-.07,0-.09,0-.09.09A8.64,8.64,0,0,0,60.09,85c2,2.58,3.89,5.28,3.89,6a.36.36,0,0,1,0,.1c.65.5,1.67,1.44,2.28,1.91a1.62,1.62,0,0,0,.77.39.34.34,0,0,0,.25-.13.35.35,0,0,1,.27-.13h0a13.74,13.74,0,0,1,1.64,1.19c.38.31.58.43.67.43s.07,0,.07-.09a4.53,4.53,0,0,0-.3-.83.51.51,0,0,1-.08-.23c0-.06,0-.09.1-.09a2.17,2.17,0,0,1,.64.24A2.24,2.24,0,0,0,71,94a.09.09,0,0,0,.1-.06s0-.05,0-.09c0-.41-1-1.77-1-2.12,0,0,0-.08.07-.08a.87.87,0,0,1,.35.15c-.3-.19-.41-.36-.41-.49s.29-.35.61-.35a.72.72,0,0,1,.68.34,14.31,14.31,0,0,1,1.38,1.15c.37.37,1,.93,1.12,1.11.82,1,2.2,2.42,3.57,3.81.13-.42.23-.72.23-.72s.12-.22.17-.33l.76-1.88c0-.09,0-.17.08-.25a2.36,2.36,0,0,0,0-.35.79.79,0,0,0-.13-.48.61.61,0,0,0-.32-.07,5.73,5.73,0,0,0-1.6.44,5.88,5.88,0,0,1-1.65.45H74.9a.16.16,0,0,1-.1-.17c0-.5,1.11-2,2.59-3.84a27,27,0,0,1-2.09-2l-8.74-9.64c-2.15-2.41-4.33-4.86-6-6.86l-.43,0"/><path class="u" d="M54.66,65.52a8.1,8.1,0,0,0-1.2.19l-.12,0,.09.1.06-.06a7.91,7.91,0,0,1,1.2-.2,3.2,3.2,0,0,1,1.68.59l.66.41-.1-.1-.58-.37a3.25,3.25,0,0,0-1.69-.58"/><path class="v" d="M60.11,71.53l-.25,0c0,.11-.18.18-.18.33a.44.44,0,0,0,0,.1.76.76,0,0,1,.07.3,1.52,1.52,0,0,1,0,.21,3.28,3.28,0,0,1-2.3.85,9.15,9.15,0,0,0-1.39,1.08l0,0a8.1,8.1,0,0,1,1.39-1.07,3.28,3.28,0,0,0,2.3-.86,1.23,1.23,0,0,0,0-.2.75.75,0,0,0-.06-.3.23.23,0,0,1,0-.11c0-.14.16-.21.18-.33h.25l.43,0-.05-.06-.4,0"/><path class="w" d="M54.69,65.57a7.91,7.91,0,0,0-1.2.2l-.06.06.79.88a1.33,1.33,0,0,0,.5.12.33.33,0,0,0,.33-.19,18.68,18.68,0,0,1,2.17.81l.49.23a.86.86,0,0,1-.09-.34h0s0-.15-.59-.77l-.66-.41a3.2,3.2,0,0,0-1.68-.59"/><path class="w" d="M59,69.64a5.37,5.37,0,0,1-.14,1.21S57.5,71.47,56,72c-.5.17-1,.33-1.51.45.58.73,1.08,1.39,1.52,2a9.15,9.15,0,0,1,1.39-1.08,3.28,3.28,0,0,0,2.3-.85,1.52,1.52,0,0,0,0-.21.76.76,0,0,0-.07-.3.44.44,0,0,1,0-.1c0-.15.16-.22.18-.33l.25,0,.4,0c-.59-.7-1.11-1.35-1.54-1.92"/><path class="x" d="M55.05,66.64a.33.33,0,0,1-.33.19,1.33,1.33,0,0,1-.5-.12A17.65,17.65,0,0,1,57,70.34a1.62,1.62,0,0,1,.18.62c0,.21-.11.32-.34.32a1.59,1.59,0,0,1-.47-.09c-.22,0-4-2.8-5.16-3.74A3.6,3.6,0,0,0,50,66.71a.05.05,0,0,0-.06.06,9.18,9.18,0,0,0,1.52,2.06c1.22,1.37,2.23,2.55,3.07,3.59.48-.12,1-.28,1.51-.45,1.46-.5,2.79-1.12,2.79-1.12A5.37,5.37,0,0,0,59,69.64a10.26,10.26,0,0,1-1.26-2l-.49-.23a18.68,18.68,0,0,0-2.17-.81"/><path class="t" d="M78.59,93.35a.79.79,0,0,1,.13.48h0a2.36,2.36,0,0,1,0,.35,1.64,1.64,0,0,0,.07-.44.43.43,0,0,0-.17-.39"/><path class="y" d="M78.72,93.83v0a1.91,1.91,0,0,1,0,.32h0a2.36,2.36,0,0,0,0-.35h0"/><path class="t" d="M88.62,94.76l-.16.14c.7.8,1.68,1.94,2.35,2.89a6.88,6.88,0,0,1,.56.87c.07-.15.14-.31.24-.49l.15-.3c-1-.93-2-2-2.7-2.81l-.44-.3"/><path class="t" d="M77.85,96.31c0,.11-.11.22-.17.33s-.1.3-.23.72h0c.11-.34.24-.69.38-1.06"/><path class="y" d="M77.85,96.31c0,.11-.11.22-.17.33h0s-.11.32-.23.72h0c.13-.42.23-.72.23-.72s.12-.22.17-.33h0"/><path class="t" d="M86.47,96.63l-.08.07-.78.71c1.22,1,2.3,1.75,3.7,2.92.62.53,1.32,1.24,1.94,1.78a30.18,30.18,0,0,0,4.27,3.14,3.5,3.5,0,0,0,1.33.47c.21,0,.32-.09.32-.25a.86.86,0,0,0-.1-.36h0l.55-.43c-.47-.68-1.09-1.48-1.83-2.35-1-1.2-1.78-2-1.78-2.15s0,0,0,0h.07a6.06,6.06,0,0,0-.53-.54l-.93-.9a3.32,3.32,0,0,1-1.35.88c-.1,0-.15-.06-.15-.19v0a10.93,10.93,0,0,1-2.4-1.47s-.9-.47-2.27-1.28"/><path class="t" d="M86.39,96.7l-.8.69,0,0,.78-.71"/><path class="t" d="M83.57,99.06a2.15,2.15,0,0,1-1.13.53.7.7,0,0,1-.3-.07l0,.13h0s0,.07.15.07h0a1.28,1.28,0,0,0,.54-.18h0a6.68,6.68,0,0,0,.77-.47h0"/><path class="t" d="M83.58,99.07a6.68,6.68,0,0,1-.77.47h0a1.28,1.28,0,0,1-.54.18h0c-.13,0-.15-.07-.15-.07h0l0-.13-.13,0a1,1,0,0,0-.41-.12,5.89,5.89,0,0,0-.67.17,7,7,0,0,1,1.25.71c1.54,1.1,3.23,2.37,3.74,2.37h0c-.06-.19-1-1.1-1-1.29h0a20.15,20.15,0,0,0-1.31-2.23"/><path class="t" d="M81.53,99.35a1.91,1.91,0,0,0-.67.15l.07,0a5.89,5.89,0,0,1,.67-.17h-.07"/><path class="z" d="M77.39,90.15C75.91,92,74.81,93.49,74.8,94a.16.16,0,0,0,.1.17H75a5.88,5.88,0,0,0,1.65-.45,5.73,5.73,0,0,1,1.6-.44.61.61,0,0,1,.32.07.64.64,0,0,0-.51-.19h0a5.15,5.15,0,0,0-1.89.7h0a5.15,5.15,0,0,1,1.89-.7h0a.64.64,0,0,1,.51.19.43.43,0,0,1,.17.39,1.64,1.64,0,0,1-.07.44,8.37,8.37,0,0,1-.84,2.13c-.14.37-.27.72-.38,1.06l1.7,1.74a11.28,11.28,0,0,1,1.69.39,1.91,1.91,0,0,1,.67-.15h.07l.27,0c.17,0,.28,0,.28.16h0v0a.7.7,0,0,0,.3.07,2.15,2.15,0,0,0,1.13-.53c-.44-.7-.95-1.51-1.46-2.29a29.17,29.17,0,0,1-2.4-4s0,0,0,0h0a20,20,0,0,1,3,2.32c1.08,1,2,1.73,2.77,2.38l.8-.69.08-.08c-.81-.48-1.78-1.08-2.83-1.76a57.79,57.79,0,0,1-6.25-4.71"/><path class="aa" d="M82.15,99.48v0h0v0h0m-3.46-5.3h0a8.37,8.37,0,0,1-.84,2.13h0a8.37,8.37,0,0,0,.84-2.13h0m-.61-1h0a5.22,5.22,0,0,0-1.89.69h0a5.15,5.15,0,0,1,1.89-.7m0,0h0a.64.64,0,0,1,.51.19h0a.64.64,0,0,0-.49-.19h0"/><path class="z" d="M87.89,94.27l.57.63.16-.14-.73-.49m-9.2-.09c0,.08,0,.16-.08.25l-.76,1.88a8.37,8.37,0,0,0,.84-2.13"/><path class="z" d="M86.47,96.62l-.08.08.08-.07h0"/><path class="z" d="M91.76,97.87l-.15.3c-.1.18-.17.34-.24.49a1.37,1.37,0,0,1,.22.58.17.17,0,0,1-.19.19,1.05,1.05,0,0,1-.26-.05v0c0,.13,0,.19.15.19a3.32,3.32,0,0,0,1.35-.88l-.44-.43-.44-.43"/><path class="z" d="M81.87,99.32l-.27,0a1,1,0,0,1,.41.12l.13,0v0c0-.12-.11-.16-.28-.16"/><path class="aa" d="M81.87,99.32l-.27,0h0l.27,0c.17,0,.28,0,.28.16h0c0-.12-.11-.16-.27-.16h0"/><path class="aa" d="M78.08,93.16h0a.63.63,0,0,1,.49.19h0a.64.64,0,0,0-.51-.19"/><path class="ab" d="M78.1,93.16a.64.64,0,0,1,.49.19.79.79,0,0,1,.13.48h0a.79.79,0,0,0-.13-.48.63.63,0,0,0-.49-.19"/><path class="aa" d="M78.08,93.16a5.15,5.15,0,0,0-1.89.7h0a5.22,5.22,0,0,1,1.89-.69h0"/><path class="ab" d="M78.08,93.16a5.22,5.22,0,0,0-1.89.69,5.22,5.22,0,0,1,1.89-.69"/><path class="ac" d="M77.85,96.31h0c0,.11-.11.22-.17.33s-.1.3-.23.72h0c.12-.4.22-.69.23-.72h0c.06-.11.12-.22.17-.33h0m.87-2.48a2.36,2.36,0,0,1,0,.35h0a1.91,1.91,0,0,0,0-.32v0h0"/><path class="ab" d="M77.68,96.64s-.11.32-.23.72h0c.12-.4.22-.69.23-.72m1-2.78a1.91,1.91,0,0,1,0,.32,8.37,8.37,0,0,1-.84,2.13c0,.11-.11.22-.17.33.06-.11.12-.22.17-.33a8.37,8.37,0,0,0,.84-2.13,1.91,1.91,0,0,0,0-.32m0,0h0"/><path class="aa" d="M81.87,99.32l-.27,0h0l.27,0h0c.16,0,.27,0,.27.16h0c0-.12-.11-.16-.28-.16"/><path class="ab" d="M81.88,99.32c.16,0,.27,0,.27.16h0c0-.12-.11-.16-.27-.16"/><path class="ab" d="M82.81,99.54a1.28,1.28,0,0,1-.54.18,1.28,1.28,0,0,0,.54-.18"/><path class="ab" d="M82.1,99.65h0m0,0h0s0,.07.15.07c-.13,0-.15-.07-.15-.07"/><path class="t" d="M46.22,56h0l1,.54,0,0,0,0h.09a7.17,7.17,0,0,0-1.1-.5"/><path class="t" d="M46,56.54v.05c0,.21.21.58,1,1.45a4.39,4.39,0,0,1-1-1.5"/><path class="t" d="M48.06,59l.11.09h0l-.1-.08m2-1.26a11.53,11.53,0,0,0,2,1l-.25-.11-1.72-.89"/><path class="t" d="M48.55,59.8a.69.69,0,0,1,0,.13,1,1,0,0,1,0,.21l.08,0h0l0-.06a1,1,0,0,0-.11-.31"/><path class="t" d="M71.25,69.17c.45.28,1.58,1,2.74,1.65l.15-.33c1,.13,1.34-.22,4.34,1.43,2.76,1.52,5.77,3.24,9.48,5.55v0c-3.75-2.34-6.8-4.08-9.57-5.61-3-1.65-3.33-1.3-4.35-1.42a10.44,10.44,0,0,1-2.8-1.25"/><path class="z" d="M88,77.45v0l.39.24v0L88,77.45"/><path class="ad" d="M88.35,77.69v0c.55.35,1.13.71,1.71,1.09a8.21,8.21,0,0,1,1.08.81A9,9,0,0,0,90,78.72l-1.63-1"/><path class="t" d="M64.61,72.14a.23.23,0,0,0-.24.25.65.65,0,0,0,0,.25,2.07,2.07,0,0,0,.22.46c0-.1,0-.24,0-.4a2.77,2.77,0,0,0,0-.56"/><path class="t" d="M69.81,79.18c1,1.11,2.3,2.4,3.76,3.89l.72.65L74,83.44c-1.44-1.46-2.89-2.92-4.2-4.26"/><path class="t" d="M76.93,82.09a29.33,29.33,0,0,0,3.41,4.56l.08-.09q-1.73-2.25-3.49-4.47"/><path class="z" d="M80.42,86.56l-.08.09,1,1.07-.88-1.16"/><path class="t" d="M63.13,90.92l.33.31a.18.18,0,0,0,0-.1v0a3.28,3.28,0,0,1-.36-.19"/><path class="z" d="M86.26,93.18l.15.23c.27.15.53.28.76.38l-.91-.61"/><path class="ae" d="M83,83.18c-.35,0-.52.13-.51.4a1.32,1.32,0,0,0,.1.46l0,0a1.16,1.16,0,0,1-.06-.34c0-.27.17-.39.52-.39h.15l0-.06-.29,0"/><path class="ae" d="M88.75,94.65h0L89,95l.07.08h0l-.32-.41"/><path class="af" d="M86.79,81.43c-.71.25-.51.95-1.23,1.19-.7.06-.34.84-1.06.84a2.33,2.33,0,0,1-.75-.16,3.58,3.58,0,0,0-.48-.09l0,.06a4.72,4.72,0,0,1,.61.11,2.4,2.4,0,0,0,.76.17c.71,0,.35-.79,1.06-.85.72-.23.51-.94,1.22-1.19a6.31,6.31,0,0,0,1.13.12,2,2,0,0,0,.82-.14h-.33a2.52,2.52,0,0,1-.58.06,6.21,6.21,0,0,1-1.12-.12"/><path class="af" d="M82.61,84l0,0a13.69,13.69,0,0,0,1.18,2.12c.48.76,1,2,1.72,3.27l0,0c-.66-1.25-1.19-2.41-1.66-3.15A11.24,11.24,0,0,1,82.61,84"/><path class="af" d="M86.91,91.78h0c.17.24.35.47.54.7,1.15,1.26.65,1.27,1.3,2.17h0c-.54-.81-.13-.86-1.23-2.08-.21-.25-.41-.52-.61-.79"/><path class="ag" d="M91.14,79.61a2.14,2.14,0,0,1,.58.69.13.13,0,0,1,0,.06c0,.13-.11.18-.3.18-.65,0-2.24-.67-3-.72a.13.13,0,0,1,0,.08s0,.08,0,.13,0,.15.19.3a2.25,2.25,0,0,1,.53.66h0a1,1,0,0,1-.69.5h.33a.86.86,0,0,0,.44-.42,2.08,2.08,0,0,0-.53-.66c-.15-.14-.19-.23-.19-.3s0-.09,0-.13a.16.16,0,0,0,0-.09h0c.71,0,2.2.68,2.9.73l.36-.11a.19.19,0,0,0,0-.08v-.05a2.53,2.53,0,0,0-.67-.77"/><path class="ah" d="M91.8,80.51l-.36.11h.08c.14,0,.24,0,.28-.11"/><path class="ah" d="M85.49,89.39l0,0a22.48,22.48,0,0,0,1.43,2.36h0a21.14,21.14,0,0,1-1.42-2.39"/><path class="ai" d="M74.14,70.49l-.15.33.22.13A11,11,0,0,0,77,72.25c.08,0,.13,0,.13-.08a.19.19,0,0,0,0-.07h0s1.86.77,3.79,1.7,3.93,2,4.16,2.82a15.46,15.46,0,0,1,1.29,2h0a18,18,0,0,1-2.79.62,12.94,12.94,0,0,1-1.77.14,5,5,0,0,1-2.55-.55,5.83,5.83,0,0,0-1.15-.12c-.72,0-1.57.16-1.81.86a1.26,1.26,0,0,0-.06.45,4.58,4.58,0,0,0,.71,2.08q1.77,2.22,3.49,4.47L82.57,84a1.32,1.32,0,0,1-.1-.46c0-.27.16-.4.51-.4l.29,0c1.67-2,3.31-4,4.69-5.74-3.71-2.31-6.72-4-9.48-5.55-3-1.65-3.32-1.3-4.34-1.43"/><path class="ai" d="M88.74,94.66l-.12.1.44.3L89,95l-.25-.32"/><path class="aj" d="M88,77.47c-1.38,1.74-3,3.74-4.69,5.74a3.58,3.58,0,0,1,.48.09,2.33,2.33,0,0,0,.75.16c.72,0,.36-.78,1.06-.84.72-.24.52-.94,1.23-1.19a6.21,6.21,0,0,0,1.12.12,2.52,2.52,0,0,0,.58-.06c-.65,0-1.11-.19-1.11-.6a1.64,1.64,0,0,1,.46-.93,9.24,9.24,0,0,1,.51-2.25L88,77.47"/><path class="aj" d="M82.57,84l-2.15,2.52.88,1.16c.93,1,2,2.15,3.25,3.41.11-.19.25-.39.39-.61,0,0,.22-.44.53-1.09-.69-1.3-1.24-2.51-1.72-3.27A13.69,13.69,0,0,1,82.57,84"/><path class="aj" d="M86.9,91.79c-.29.25-.61.55-1,.89l.35.5.91.61c.15.06.29.12.43.16l.29.32.73.49.12-.1c-.65-.9-.15-.91-1.3-2.17-.19-.23-.37-.46-.54-.7"/><path class="ak" d="M88.35,77.71A9.24,9.24,0,0,0,87.84,80a1.64,1.64,0,0,0-.46.93c0,.41.46.58,1.11.6a1,1,0,0,0,.69-.5,2.25,2.25,0,0,0-.53-.66c-.16-.15-.19-.23-.19-.3s0-.08,0-.13a.13.13,0,0,0,0-.08h0c.74.05,2.33.72,3,.72.19,0,.3-.05.3-.18a.13.13,0,0,0,0-.06,2.14,2.14,0,0,0-.58-.69,8.21,8.21,0,0,0-1.08-.81c-.58-.38-1.16-.74-1.71-1.09"/><path class="al" d="M85.47,89.43c-.31.65-.53,1.09-.53,1.09-.14.22-.28.42-.39.61.27.28.56.56.85.85h0s.22.29.51.7c.38-.34.7-.64,1-.89a22.48,22.48,0,0,1-1.43-2.36"/><path class="am" d="M65.39,67.05c-.24,0-.33.17-.33.45a3.12,3.12,0,0,0,.15.81,25.56,25.56,0,0,1,1.41,2.57,4.76,4.76,0,0,1,.52,1.68c0,.28-.1.45-.35.45a2.7,2.7,0,0,1-1.3-.62,2.46,2.46,0,0,0-.83-.25h0a2.77,2.77,0,0,1,0,.56c0,.16,0,.3,0,.4a42.63,42.63,0,0,0,5.17,6.08c1.31,1.34,2.76,2.8,4.2,4.26l.28.28c1,.89,2.84,2.55,4.89,4.29l1.16-1.36a29.33,29.33,0,0,1-3.41-4.56A4.58,4.58,0,0,1,76.22,80a1.26,1.26,0,0,1,.06-.45c.24-.7,1.09-.86,1.81-.86a5.83,5.83,0,0,1,1.15.12,5,5,0,0,0,2.55.55,12.94,12.94,0,0,0,1.77-.14,18,18,0,0,0,2.79-.62,15.46,15.46,0,0,0-1.29-2c-.23-.77-2.24-1.88-4.16-2.82s-3.79-1.7-3.79-1.7a.19.19,0,0,1,0,.07c0,.06,0,.08-.13.08A11,11,0,0,1,74.21,71L74,70.82c-1.16-.67-2.29-1.37-2.74-1.65L71.06,69l-.44-.24a12.37,12.37,0,0,0-4.27-1.33,2,2,0,0,0-1-.42"/><path class="an" d="M80.34,86.65,79.18,88l.1.08c1.6,1.35,3.31,2.73,4.83,3.83.11-.23.26-.49.44-.79-1.25-1.26-2.32-2.39-3.25-3.41l-1-1.07"/><path class="an" d="M85.91,92.68l-.08.08-.26.15.84.5-.15-.23-.35-.5"/><path class="ao" d="M84.55,91.13c-.18.3-.33.56-.44.79.51.36,1,.7,1.46,1l.26-.15.08-.08c-.29-.41-.5-.7-.51-.7h0c-.29-.29-.58-.57-.85-.85"/><path class="ap" d="M54.19,62.78a.14.14,0,0,0-.16.15.78.78,0,0,0,0,.14,5.86,5.86,0,0,0,.81,1.3c1,1,1.67,1.66,2.07,2.1a34.39,34.39,0,0,1,4.87,3.78,1.72,1.72,0,0,1,.42.61,1.27,1.27,0,0,1,.11.45.23.23,0,0,1,0,.13c-.11.23-.36.3-.67.3a5.2,5.2,0,0,1-.74-.08l-.33,0c1.67,2,3.85,4.45,6,6.86l8.74,9.64a27,27,0,0,0,2.09,2c.56-.68,1.17-1.41,1.79-2.14-2.05-1.74-3.91-3.4-4.89-4.29l-.72-.65c-1.46-1.49-2.71-2.78-3.76-3.89a42.63,42.63,0,0,1-5.17-6.08,2.07,2.07,0,0,1-.22-.46.65.65,0,0,1,0-.25c0-.19.12-.25.29-.25a2.46,2.46,0,0,1,.83.25,2.7,2.7,0,0,0,1.3.62c.25,0,.36-.17.35-.45a4.76,4.76,0,0,0-.52-1.68,25.56,25.56,0,0,0-1.41-2.57c-.13-.22-.26-.41-.36-.57a.08.08,0,0,1-.06,0,14.54,14.54,0,0,1-2.56-1.34.32.32,0,0,1,.07.17c0,.08-.06.11-.17.11a8.91,8.91,0,0,1-2.45-1c-1.51-.74-3.11-1.67-3.11-1.67a6.82,6.82,0,0,0-2.38-1.3"/><path class="aq" d="M56.93,66.47l.1.1a35,35,0,0,1,4.8,3.74,1.85,1.85,0,0,1,.39.55,1.72,1.72,0,0,0-.42-.61,34.39,34.39,0,0,0-4.87-3.78"/><path class="ar" d="M62.22,70.86a1.12,1.12,0,0,1,.09.39.29.29,0,0,1,0,.14.69.69,0,0,1-.67.29,5.18,5.18,0,0,1-.75-.08l-.35,0,.05.06.33,0a5.2,5.2,0,0,0,.74.08c.31,0,.56-.07.67-.3a.23.23,0,0,0,0-.13,1.27,1.27,0,0,0-.11-.45"/><path class="as" d="M57,66.57c.55.62.59.74.59.77h0a.86.86,0,0,0,.09.34c.73.39,1.33.84,1.32,1.33a.59.59,0,0,1-.05.23h0s0,.18,0,.39c.43.57,1,1.22,1.54,1.92l.35,0a5.18,5.18,0,0,0,.75.08.69.69,0,0,0,.67-.29.29.29,0,0,0,0-.14,1.12,1.12,0,0,0-.09-.39,1.85,1.85,0,0,0-.39-.55A35,35,0,0,0,57,66.57"/><path class="at" d="M57.71,67.68a10.26,10.26,0,0,0,1.26,2c0-.21,0-.37,0-.39h0A.59.59,0,0,0,59,69c0-.49-.59-.94-1.32-1.33"/><path class="ap" d="M88.46,94.9l-2,1.73c1.37.81,2.27,1.28,2.27,1.28a10.93,10.93,0,0,0,2.4,1.47,2.25,2.25,0,0,1,.23-.72,6.88,6.88,0,0,0-.56-.87c-.67-1-1.65-2.09-2.35-2.89"/><path class="au" d="M79.18,88c-.62.73-1.23,1.46-1.79,2.14a57.79,57.79,0,0,0,6.25,4.71c1,.68,2,1.28,2.83,1.76l.5-.48-.5.48h0l.5-.48-.5.48h0l2-1.73-.57-.63L87.6,94c-.14,0-.28-.1-.43-.16a12.24,12.24,0,0,1-1.6-.88,3.45,3.45,0,0,1-1.31.44h0c-.27,0-.46-.11-.46-.44a2.46,2.46,0,0,1,.31-1c-1.52-1.1-3.23-2.48-4.83-3.83l-.1-.08"/><path class="au" d="M91.37,98.66a2.25,2.25,0,0,0-.23.72,1.05,1.05,0,0,0,.26.05.17.17,0,0,0,.19-.19,1.37,1.37,0,0,0-.22-.58"/><path class="av" d="M84.11,91.92a2.46,2.46,0,0,0-.31,1c0,.33.19.44.46.44h0a3.45,3.45,0,0,0,1.31-.44c-.46-.29-.95-.63-1.46-1"/><path class="ap" d="M64.55,67.28s.12.17.3.46a0,0,0,0,0,0,0c0-.07-.09-.2-.31-.43"/><path class="aw" d="M63.41,90.74a0,0,0,0,0,0,0,.46.46,0,0,0,.07.18.43.43,0,0,1,.05.15v0c0,.07,0,.09,0,.15s0,.17.24.4h0c.3.21.88.73,1.27,1,.88.67,1.1.59,2.08,1.38s2,1.59,2.76,2.12a2.63,2.63,0,0,0,1,.44A4.48,4.48,0,0,0,72.2,97a.76.76,0,0,0,.71-.33,2.28,2.28,0,0,1-.53-.84c0-.07.05-.09.12-.09a1.25,1.25,0,0,1,.29.06,1.36,1.36,0,0,0,.29.06h.06a5.06,5.06,0,0,1,.72.39h0c.09,0,.12-.06.14-.13s0-.14.13-.14.31.1.72.44l2.33,1.88,0-.08h0c.07-.29.16-.58.24-.83-1.37-1.39-2.75-2.78-3.57-3.81-.15-.18-.75-.74-1.12-1.11a14.31,14.31,0,0,0-1.38-1.15A.72.72,0,0,0,70.7,91c-.32,0-.61.13-.61.35s.11.3.41.49h0a.87.87,0,0,0-.35-.15c-.05,0-.07,0-.07.08,0,.35,1,1.71,1,2.12,0,0,0,.07,0,.09A.09.09,0,0,1,71,94a2.24,2.24,0,0,1-.66-.24,2.17,2.17,0,0,0-.64-.24c-.07,0-.1,0-.1.09a.51.51,0,0,0,.08.23,4.53,4.53,0,0,1,.3.83c0,.06,0,.09-.07.09s-.29-.12-.67-.43a13.74,13.74,0,0,0-1.64-1.19h0a.35.35,0,0,0-.27.13.34.34,0,0,1-.25.13,1.62,1.62,0,0,1-.77-.39c-.61-.47-1.63-1.41-2.28-1.91a1.72,1.72,0,0,0-.55-.35"/><path class="aw" d="M77.45,97.36c-.08.25-.17.54-.24.83h0l0,.08h0c.07-.29.16-.59.27-.91h0"/><path class="aw" d="M85.59,97.39l-1.25,1.07c-.3.25-.55.45-.77.6h0a21,21,0,0,0,2-1.66l0,0"/><path class="aw" d="M85.61,97.41a21,21,0,0,1-2,1.66,20.15,20.15,0,0,1,1.31,2.23h0c.07.19,1,1.1,1,1.29h0c-.51,0-2.2-1.27-3.74-2.37a7,7,0,0,0-1.25-.71l-.17.06-.11.11c-.27.26-.51.49-.74.68.55.41,1.08.8,1.59,1.16a49.48,49.48,0,0,0,6.81,3.77,1.32,1.32,0,0,0,.44.1c.28,0,.34-.19.4-.39s.13-.4.4-.4h.08a1,1,0,0,1,.16.16l.26.29a.44.44,0,0,0,.08-.15c-.15-.19-.36-.56-.51-.74h0a2.7,2.7,0,0,1,1,.52c4.71,3.38,5.67,2.45,9.62,4.82a5,5,0,0,0,1.43.57c.11,0,.17,0,.16-.13v0a.61.61,0,0,1,0-.17c0-.13.06-.23.06-.36a.76.76,0,0,0-.17-.45c-1-1.28-2.59-3.07-3.82-4.5l-.29.23-.55.43a.86.86,0,0,1,.1.36c0,.16-.11.25-.32.25a3.5,3.5,0,0,1-1.33-.47,30.18,30.18,0,0,1-4.27-3.14c-.62-.54-1.32-1.25-1.94-1.78-1.4-1.17-2.48-2-3.7-2.92"/><path class="aw" d="M80.86,99.5h0l-.07.07.17-.06-.07,0"/><path class="aw" d="M80.65,99.69l-.75.67h0c.23-.19.47-.42.74-.68"/><path class="ax" d="M79.74,92.68s0,0,0,0a29.17,29.17,0,0,0,2.4,4c.51.78,1,1.59,1.46,2.29.22-.15.47-.35.77-.6l1.25-1.07C84.78,96.74,83.9,96,82.82,95a20,20,0,0,0-3-2.32h0"/><path class="ax" d="M80.76,99.58h0l-.09.1.11-.11m-3.29-2.21c-.11.32-.2.62-.27.91.94.74,1.84,1.44,2.7,2.08l.75-.67.09-.1h0l.07-.07h0a11.28,11.28,0,0,0-1.69-.39l-1.7-1.74"/><path class="ay" d="M77.45,97.36c-.08.25-.17.54-.24.83.07-.29.16-.58.24-.83h0"/><path class="ay" d="M77.21,98.19l0,.08h0l0-.08"/><path class="ay" d="M80.74,99.59l-.09.1c-.27.26-.51.49-.74.68h0c.26-.22.54-.48.83-.78"/><path class="a" d="M46.18,56a.3.3,0,0,0-.22.33h0a.3.3,0,0,1,.22-.33h0l0,0h0l0,0"/><path class="az" d="M47.21,56.56h0m-1-.56a.3.3,0,0,0-.22.33h0a.3.3,0,0,1,.22-.33"/><path class="az" d="M46,56.33c0,.28.22.79,1.08,1.71.28.29.61.62,1,1l.1.08-.1-.08c-.4-.38-.74-.71-1-1A4.42,4.42,0,0,1,46,56.54a.88.88,0,0,1,0-.21m0,0h0"/><path class="az" d="M47.23,56.5h.09a24.16,24.16,0,0,1,2.42,1.08,18,18,0,0,0-2.51-1.09"/><path class="az" d="M51.54,57a7.19,7.19,0,0,1,1.12,1.47A7.19,7.19,0,0,0,51.54,57"/><path class="az" d="M49.74,57.59l.32.19a11.91,11.91,0,0,0,2,1,1.53,1.53,0,0,0,.42.1,7.41,7.41,0,0,1-2.39-1.1l-.32-.19"/><path class="az" d="M48.42,60.08a.43.43,0,0,0,.19.09l-.08,0-.11-.06"/><path class="a" d="M48.39,60.12h0c0,.16.37.85,3.35,3.88h0c-3-3.06-3.35-3.73-3.35-3.88"/><path class="az" d="M48.39,60.12c0,.16.37.85,3.35,3.88.16.16.32.33.5.5-.18-.17-.34-.34-.5-.5-3-3-3.34-3.72-3.35-3.88m0,0h0"/><path class="ba" d="M79.51,100.67a.51.51,0,0,1-.13.09h0l.12-.1"/><path class="bb" d="M63.69,91.68a.1.1,0,0,1,0,.06c0,.05,0,.05,0,.09s0,.11.2.27c.47.52,1,.92,1.39,1.32,1.61,1.34,3.41,2.92,4.79,4,3.16,2.4,5.7,4,6.84,4h0s0,0,0-.05a6.8,6.8,0,0,0-.57-1.07.94.94,0,0,1-.14-.4c0-.22.22-.24.22-.47s-.13-.48-.58-1.09a.4.4,0,0,1-.1-.18s0,0,0,0a.48.48,0,0,1,.19.09L77,99c0-.22.1-.48.17-.74l-2.33-1.88c-.41-.34-.61-.44-.72-.44s-.1.07-.13.14-.05.13-.14.13h0a5.06,5.06,0,0,0-.72-.39h-.06a1.36,1.36,0,0,1-.29-.06,1.25,1.25,0,0,0-.29-.06c-.07,0-.12,0-.12.09a2.28,2.28,0,0,0,.53.84h0a.76.76,0,0,1-.71.33,4.48,4.48,0,0,1-1.43-.35,2.63,2.63,0,0,1-1-.44c-.8-.53-1.88-1.45-2.76-2.12s-1.2-.71-2.08-1.38c-.39-.28-1-.8-1.27-1"/><path class="bb" d="M77.19,98.27c-.07.26-.13.52-.17.74l0,0a4.59,4.59,0,0,1,.13-.77h0"/><path class="bb" d="M79.9,100.36l-.39.31.4-.3h0"/><path class="bb" d="M79.91,100.37l-.4.3-.12.1c1.76,1.29,3.47,2.52,5.2,3.73a38.57,38.57,0,0,0,6.34,3.37l.24,0c.31,0,.44-.14.44-.35a2.73,2.73,0,0,0-.53-1.19,13.71,13.71,0,0,0-.93-1.19l-.36-.4a1,1,0,0,0-.16-.16h-.08c-.27,0-.33.2-.4.4s-.12.39-.4.39a1.32,1.32,0,0,1-.44-.1,49.48,49.48,0,0,1-6.81-3.77c-.51-.36-1-.75-1.59-1.16"/><path class="ba" d="M77.2,98.28a4.59,4.59,0,0,0-.13.77q1.17.89,2.31,1.71l.13-.09.39-.31c-.86-.64-1.76-1.34-2.7-2.08"/><path class="bc" d="M77.19,98.27c-.07.26-.13.52-.17.74h0c0-.22.1-.48.17-.74h0"/><path class="bc" d="M79.91,100.37l-.4.3-.13.09h0a.51.51,0,0,0,.13-.09l.4-.3h0"/><path d="M72.28,106.12l3.26-1.54-.15-.41a4.38,4.38,0,0,0-1.37.12c-4.84,2-9.93,1.52-15,1.43a35,35,0,0,1-5.92-.81c-2.51-.47-3.55-2.29-3.85-4.62-.25-1.9-.39-3.82-.62-5.72-.08-.67-.26-1.32-.44-2.16a14,14,0,0,0-1.84.43c-6.28,2.44-12.6,2-19,.38a3.84,3.84,0,0,1-2.8-2.78c-.7-2-1.5-4-2.28-6.12l-1.46.7c-1-1.26-.76-2.29-.15-3.62,1.12-2.44,1.84-5.06,2.76-7.59a9.41,9.41,0,0,1,6.22-5.89q7.31-2.42,14.6-4.87a2.42,2.42,0,0,1,2.73.42,8.64,8.64,0,0,1-1.73,1.1c-4.23,1.32-8.44,2.72-12.72,3.82a10.66,10.66,0,0,0-7.36,6.07c-1.13,2.42-2,5-3,7.8.94.06,1.84.19,2.75.17a8.49,8.49,0,0,1,3,.18L24.29,84.1c.33,2.62,2,4.7,3.08,7a2,2,0,0,0,1.3.76c1.34.32,2.7.53,4.12.79l.83-1.91c2.16,2.47,4.45,2.72,6.91.91a9.71,9.71,0,0,0,2.38.87A7.47,7.47,0,0,0,45.17,92c-.65-.53-1.48-.88-1.56-1.35-.26-1.53-1.27-1.5-2.3-1.31s-1.8,0-2-1.37c3.23-.24,5.84.48,7.55,3.67.74-.46,1.75-.72,2.1-1.35,1.82-3.27,5.08-4.7,8-6.44a46.36,46.36,0,0,1,5-2,43.46,43.46,0,0,0,6.8-3.27c1-.66,1.24-2.37,1.85-3.6.46-.94,1-1.87,1.61-3.14a34,34,0,0,0-6.63-6.4,7,7,0,0,1-1.47-1.07c-1.34-1.74-3-1.87-4.85-1.1a3.23,3.23,0,0,1-.75.22c-2.8.43-5.69.56-8.1,3l-.36-1.89c-1.09.38-2.25.54-2.46,1.95-.59,3.76-2.58,7-4,10.41a6.7,6.7,0,0,0,1.53,7.88c.79.81,1.6,1.6,2.42,2.38s1,1.69.53,3.25l-6.26-7.12-1.16,2.87c-2.18.2-.59-1.66-1.32-2.49l-1.24,1.65c-.93-.88-.59-1.76-.38-2.61,1.24-.88,2.36-.45,3.89.33-1.62-3.84.09-6.75,1.58-9.8,1-2,1.41-4.28,2.26-6.36.72-1.75,1.59-3.45,3.85-3.75,3.09-.42,6.16-.91,9.23-1.46,1.44-.25,3-1.19,4.25-.92,1.12.23,1.92,1.79,3,2.66,3.19,2.7,6.46,5.3,9.11,8.8l-4.26,5,.35.51c.79-.4,1.57-.82,2.36-1.21,2.26-1.11,4.47-2.36,6.8-3.29a12.53,12.53,0,0,1,7.26-1c.46-2.2.85-4.41,1.41-6.58.41-1.6,1-1.8,2.38-.88a28.82,28.82,0,0,0,9.8,4.08,4.4,4.4,0,0,0,2,0c2.93-.79,5.85-1.65,8.76-2.53.28-.08.49-.4,1-.81-3.58-1.15-6.9-2.3-10.27-3.27a6.79,6.79,0,0,0-6.17,1.26,10.27,10.27,0,0,1-2.1,1,2.16,2.16,0,0,1-2.74-.7,14,14,0,0,1,1.24-.72A17.65,17.65,0,0,0,95.39,62c3.37-2.24,6.9-2.13,10.49-.77,3.15,1.2,6.12,3,9.63,3.1a2.22,2.22,0,0,1,1.28.81c3.35,3.77,7,7.24,9.62,11.65A9.71,9.71,0,0,1,127,77.9c.06.13,0,.32-.07.61-1-.27-1.58-1.19-2.89-1.13-1.1.06-2.32-1.3-3.4-2.15-2.47-1.92-4.86-4-7.34-5.85a3.72,3.72,0,0,0-2.12-.85A25.71,25.71,0,0,0,103.92,70c.24,3.38.43,6.39.69,9.39.17,2,.39,4,.72,5.94a4.91,4.91,0,0,0,7,3.59c3.44-1.63,7.13-2.71,10.7-4.07a15.05,15.05,0,0,0,1.81-1c.81,1.41.7,1.9-.72,2.4-1.64.57-3.35.94-5,1.55-2.44.91-4.84,1.93-7.24,2.93a7.5,7.5,0,0,1-6.73-.18,73.32,73.32,0,0,0-7.22-2.78c.16,1.55.24,2.63.41,3.7.13.88.29,1.76-.56,2.38a26.3,26.3,0,0,1-4.22,2.89,65.49,65.49,0,0,0-12.93,7.8,8.08,8.08,0,0,1-5.93,2.1c-.76-.06-1.53,0-2.29,0Zm28.88-35.34h0c-1.87-.26-4.15.76-5.32-1.73-.11-.24-.6-.31-.92-.44l-4.21-1.72c-.87,2.41-2.34,4.42-2.09,7.12,1.94,1.16,3.76,2.62,5.84,3.38,2.74,1,3.46,2.88,3.44,5.43,0,1.28,0,2.57,0,4l5.74,1.3c-.3-2.49-.58-4.68-.83-6.88-.09-.79-.16-1.49-1.12-1.83a2.68,2.68,0,0,1-1.09-1.22c1.1-1.31-.33-2.63,0-4h1.92C102.27,72.89,102.76,71.44,101.16,70.78ZM77.85,104.07C83.66,100.67,89.36,97.35,95,94A2,2,0,0,0,96,92.59c0-3.74,0-7.48-.14-11.21a2.71,2.71,0,0,0-1.1-1.86c-2.72-1.69-5.49-3.31-8.32-4.81a6.8,6.8,0,0,0-3-.6c-3,0-5.75,1.23-8.37,2.61-2.45,1.3-4.86,2.66-7.27,4-.19.1-.27.38-.52.75l2.52-.24-.13,2.87c-1.83.94-1-1.45-2.05-1.42-2.06,1.53-2.07,2.71,0,4.08.42.28,1.26.58,1.23.77-.3,1.95,1.38,2.67,2.3,3.83,2,2.44,4.1,4.86,4.26,8.16A6,6,0,0,0,77.85,104.07ZM50.36,93.14c.29,2.78.61,5.28.76,7.79.08,1.29.76,1.75,1.82,2.2a19,19,0,0,0,7.44,1,54.33,54.33,0,0,1,6.51.06,14.78,14.78,0,0,0,5.93-.51c1.63-.46,1.85-.77,1.6-2.39a14.08,14.08,0,0,0-2.92-6.89c-2.57-3.17-5.12-6.37-7.69-9.54-1.24-1.53-2.19-1.91-3.8-1-2.56,1.45-5,3.11-7.48,4.73C50.82,89.73,50.57,91.58,50.36,93.14Zm68.4-22.23.43-.5c-1.18-1.16-2.34-2.35-3.57-3.45-.19-.17-.74.06-1.12.11.06.31,0,.77.18.91C116,69,117.39,69.94,118.76,70.91Z"/><path d="M39.26,90.25l-4,.55-.2-1.68C36.5,89.66,37.92,88.37,39.26,90.25Z"/><path d="M124.28,78.31c1.63,1,1.63,1,1.2,3C124.4,80.66,124.11,79.77,124.28,78.31Z"/><path d="M73.75,88.37c-1.5-1.07-.48-2.37-1.39-3.54C74.52,85.4,74.52,85.4,73.75,88.37Z"/><path d="M74.24,80.64l-1.95,2.73s-.15,0-.42,0c-.07-1.05-.28-2.13.62-2.91C72.75,80.27,73.43,80.55,74.24,80.64Z"/><path d="M75.16,89.32,74,90.79c-.26-.28-.79-.76-.75-.81a12.07,12.07,0,0,1,1.22-1.26Z"/><path d="M74.07,93.39c.52-.24.87-.53,1-.45a3.48,3.48,0,0,1,.83.8c-.25.19-.56.57-.75.52S74.59,93.82,74.07,93.39Z"/><path d="M75.53,83.45c.8-.65,1.37-.58,1.8.13a.71.71,0,0,1-.23.65C76.19,84.72,76,84,75.53,83.45Z"/><path d="M70.29,86l.56,2.11C69.43,87.67,69.48,87.12,70.29,86Z"/><path d="M77.52,78.18c-1.34.44-1.84.2-1.89-1.06a3.18,3.18,0,0,1,1,.14C76.89,77.4,77.07,77.7,77.52,78.18Z"/><path d="M99.12,71.88c-.21,1.22-.32,2.1-.55,3-.06.19-.55.34-.85.34s-.54-.37-.5-.46C97.55,73.78,97.25,72.46,99.12,71.88Z"/><path d="M101.16,70.78c-.33.61,1,1.4-.2,1.89-.19.07-.6,0-.68-.13-.59-1,.4-1.26.9-1.76Z"/></svg>