<svg xmlns="http://www.w3.org/2000/svg" viewBox="0 0 150 150"><defs><style>.a{fill:#edc1c5;}.b{fill:#e9b6bb;}.c{fill:#e2a3a9;}.d{fill:#d1747c;}.e{fill:#cf6e76;}.f{fill:#d67e84;}.g{fill:#df999f;}.h{fill:#f1d1d4;}.i{fill:#dd9399;}.j{fill:#e1a1a7;}.k{fill:#faeced;}</style></defs><title>icon</title><path class="a" d="M57.18,40.65a7.79,7.79,0,0,0,1,2.32h0a7.79,7.79,0,0,1-1-2.32h0m0-.22h0l0,.22h0l0-.22m.11-.35s-.11.07-.11.35h0c0-.28.11-.35.11-.35h0m.31-.77v.2h0v-.2h0m0,0v0h0v0m-.49-.91a2.83,2.83,0,0,0,.37.43h0a2.83,2.83,0,0,1-.37-.43h0m0-2.3h0a1.82,1.82,0,0,0-.35.88v0h0v0a1.82,1.82,0,0,1,.35-.88h0m2.59-1-.16,0h0l-.9.33h0l.9-.33.2,0h0"/><path class="a" d="M87.65,87.08a9.37,9.37,0,0,0,1.19,1.5h0a9.37,9.37,0,0,1-1.19-1.5h0m-.43-1.15h0a1.31,1.31,0,0,0,.08.42h0v0a1.46,1.46,0,0,1-.07-.4h0m0,0h0m.15-.32-.08,0h0a.46.46,0,0,0-.06.26h0a.46.46,0,0,1,.06-.26l.08,0h0m0-1.47a5.38,5.38,0,0,1,.12.77h0a5.38,5.38,0,0,0-.12-.77h0m-.63-.56a2.49,2.49,0,0,0,.56.5h0a2.49,2.49,0,0,1-.56-.5h0M86.32,82h0v0h0v0h0m.31-1.26h0m2.59-2-.21.08s-.46.3-.89.63h0a4.65,4.65,0,0,0-.74.65h0a4.65,4.65,0,0,1,.74-.65c.43-.33.89-.63.89-.63l.21-.08h0m1.67-1.53a1.56,1.56,0,0,1-.39.72h0a1.56,1.56,0,0,0,.39-.72h0"/><path class="b" d="M80.48,18.3a.75.75,0,0,0-.46.15,39.67,39.67,0,0,0-5.16,5.14,3.81,3.81,0,0,0-1,2,16.56,16.56,0,0,0-.25,1.82A2.87,2.87,0,0,1,72.27,29a8,8,0,0,0,1.52-.82c0-.27-.09-.55-.15-.82h0c.1-.62.1-1.22.25-1.83a3.92,3.92,0,0,1,1-2,41.1,41.1,0,0,1,5.17-5.13.69.69,0,0,1,.46-.15l.22,0a1.55,1.55,0,0,0-.29,0"/><path class="b" d="M71.92,29.27c-.22.13-.45.25-.69.37A18,18,0,0,1,66.64,31c-1.27.19-2.93.32-4.23.45s-2.2.24-2.21.57h0a2.13,2.13,0,0,0,.44.65,6,6,0,0,1,.53.75,1.19,1.19,0,0,1,.23.63.68.68,0,0,1,0,.14.66.66,0,0,0,.06-.27v0l0-.23a1.9,1.9,0,0,0-.41-.71,1.46,1.46,0,0,0-.31-.28,1.46,1.46,0,0,1,.31.28,1.9,1.9,0,0,1,.41.71l0,.23h0l0-.23a1.9,1.9,0,0,0-.41-.71,1.46,1.46,0,0,0-.31-.28,1.46,1.46,0,0,1,.31.28,1.9,1.9,0,0,1,.41.71l0,.23h0v0a.66.66,0,0,1-.06.27.71.71,0,0,1-.39.5,2.7,2.7,0,0,1-1.29.45,6.93,6.93,0,0,0-1.74.69h-.1a.32.32,0,0,0-.11.14h0v0h0l-.65.1a3.19,3.19,0,0,1-.38.91,1.36,1.36,0,0,0,0,.29,1.94,1.94,0,0,0,.39,1.11c.1.13.23.27.37.42l.1.09h0l0,0a1.85,1.85,0,0,1,0,.23,1.4,1.4,0,0,1,0,.37c0,.26-.07.5-.22.53a.3.3,0,0,0,0,.08.86.86,0,0,0-.11.43,2.37,2.37,0,0,0,.36,1.07c.21.42.44.86.66,1.31l.12.21.08.13-.08-.13h0l.08.13-.08-.13L58.22,43A11,11,0,0,1,59,45.09a7.26,7.26,0,0,1,.24,1.73A3,3,0,0,1,59,48.13a3.09,3.09,0,0,1-2,1.89H57a14.45,14.45,0,0,1-3.32-1.3,1.43,1.43,0,0,0-.66-.2c-.64,0-.78.78-.77,1.62v.39a13,13,0,0,1,.18,2.08,9.3,9.3,0,0,1-.64,3.45c-.34.39-1.07.09-1.53.38-.93,1-.91,2.88-1.56,4.16-2.19,2.29-2.45,3.38-2.44,3.82a2.4,2.4,0,0,0,0,.25l0,0h0a.2.2,0,0,1-.13,0,1.75,1.75,0,0,1-.78-.44,1.78,1.78,0,0,0-.91-.44h0c-.78.2-1.11,1.23-1.2,2.19-.27,2-.75,4.22-2,5,.47.22,1,.72,1.44.93a1.28,1.28,0,0,0,.46.08c.64,0,1.16-.49,1.82-.66a3.08,3.08,0,0,1,1.25.48.89.89,0,0,0,.44.15c.45,0,.74-.56,1.08-1,.46-.79,1.72-.2,2.42-.67.92-.52,1-2.28,2-2.28h.16c-.12,0-.17-.07-.17-.13,0-.35,1.88-1.19,2.39-1.19.07,0,.12,0,.12.06a.16.16,0,0,1,0,.09h0a1.9,1.9,0,0,1,.73.6,3.71,3.71,0,0,1,.37.69h0a.22.22,0,0,0,0,.08c0,1.11.83,2.43,1.28,3.63h0a9.11,9.11,0,0,0,1-.29,6.4,6.4,0,0,1,1.74-.29,2.56,2.56,0,0,1,.79.11,7.76,7.76,0,0,0,2.43.73,1.49,1.49,0,0,0,.62-.12.41.41,0,0,0,0-.21c0-.18-.06-.42-.06-.6a.4.4,0,0,1,0-.2,24.7,24.7,0,0,0,1.59-4.27c.66-2.06,1.24-4.08,1.64-4.16h0a2.51,2.51,0,0,1,1.89.9C69.75,65,70.91,65.1,72.15,66c.31.27.5.78.81,1a5.32,5.32,0,0,0,2.47,1.09,1,1,0,0,0,.31,0,3.32,3.32,0,0,0,2.65-1.82c.47-.44.93-.91,1.39-1.38a9.29,9.29,0,0,0,.09-1.31c0-.31,0-.61,0-.92,0-.9-.21-1.43-.21-1.75a.34.34,0,0,1,.21-.35v0c0-.26-1.36-2-1.67-3.65l-.83-.06a6.86,6.86,0,0,1,.19.82,10.4,10.4,0,0,1,.15,1.69c0,.22,0,.45,0,.68a3.38,3.38,0,0,1-.85,2.15,2,2,0,0,1-1.43.55,3.57,3.57,0,0,1-1.05-.17s-.52.07-1.3.11l-.75,0a13.72,13.72,0,0,1-2.13-.17c-2.11-.31-4.21-1.25-4.63-3,0,0-.79-3.43-1.67-7.31-.22-.93-.43-1.9-.65-2.85s-.39-1.84-.57-2.66a19,19,0,0,1-.31-2.24,2.72,2.72,0,0,1,0-.28,3.94,3.94,0,0,1,.23-1.43.21.21,0,0,0,0-.11,1.22,1.22,0,0,0-.06-.29,5.4,5.4,0,0,0-1-1.66,3.29,3.29,0,0,1-.14-.9,1.81,1.81,0,0,1,0-.4c.06-.55.42-1,1.47-1l.43,0a10.79,10.79,0,0,0,2.14-.65,5.82,5.82,0,0,0,1.4-.86,1.25,1.25,0,0,0,.48-.84.51.51,0,0,0,0-.17h0a4.71,4.71,0,0,0,1.09-.32c.3-.15.55-.34.6-.58-.11-.29-.18-.45-.18-.45h0a.6.6,0,0,1,.19.37s0,.06,0,.08l.21.59c0-.22,0-.43,0-.63s0-.24,0-.35c0-.28,0-.54,0-.77v0h0c0-.67.25-1.14.72-1.22a11.38,11.38,0,0,1,.72-1.39,6.75,6.75,0,0,1,1.39-1.9"/><path class="b" d="M61,34.65a.77.77,0,0,1-.18.1l-1.11.35A2.7,2.7,0,0,0,61,34.65"/><path class="b" d="M57.86,35.8a3.39,3.39,0,0,0-.75.26v0l.65-.1v0h0a.32.32,0,0,1,.11-.14"/><path class="b" d="M56.73,37a1,1,0,0,0-.08.39,1.66,1.66,0,0,0,.44,1,1.89,1.89,0,0,1-.39-1.1h0a1.36,1.36,0,0,1,0-.29"/><path class="c" d="M56.7,37.28h0a1.89,1.89,0,0,0,.39,1.1h0a1.93,1.93,0,0,1-.39-1.06v0"/><path class="b" d="M57.46,38.81l.1.1h0l-.1-.09"/><path class="b" d="M67.08,43.38a2.71,2.71,0,0,0-.56,1.13,2.26,2.26,0,0,0-.09.55c.06-.14.14-.31.23-.48a10,10,0,0,0,.42-1.2m-9.51-3.83a2.35,2.35,0,0,1-.22.53c.15,0,.2-.27.22-.53"/><path class="b" d="M74.16,46.94c0,.3,0,.6,0,.91a14.49,14.49,0,0,0,.74,4.52,37.8,37.8,0,0,0-.71-5.43"/><path class="b" d="M67.69,50.1c.33.8.74,1.7,1.22,2.72l.32.36-.1-.18c-.48-1-1-2-1.44-2.9"/><path class="b" d="M76.16,56.77l0,.24a3.07,3.07,0,0,0,.68-.2l-.65,0"/><path class="b" d="M39.79,71.32l.17.17a1.75,1.75,0,0,0,.25-.16h-.16l-.26,0"/><path class="d" d="M80.77,18.34a1.22,1.22,0,0,1,.68.49,3.17,3.17,0,0,1,.44,1.66,4.87,4.87,0,0,1,0,.65,21.06,21.06,0,0,0-.29,2.41v0c.14.23.16.72.42.85a1.28,1.28,0,0,1,.54.59,7.7,7.7,0,0,1,.24,2c0,.22,0,.44,0,.66a9.91,9.91,0,0,1-.51,2.59c0,.91-.11,1.67-.12,2.45v0a9.29,9.29,0,0,1-.3,2.38,18.15,18.15,0,0,0-.45,2.32,3.75,3.75,0,0,1-1,2.15,6.46,6.46,0,0,0-1.26,2.64A10.65,10.65,0,0,0,79,44.09c0,.53,0,1.12.08,1.82v.14a28.8,28.8,0,0,1-.3,3.74c-.12,1.2-.3,2.4-.3,3.33a4.58,4.58,0,0,0,.06.78,1.47,1.47,0,0,1,.09.57c0,.75-.49,1.32-.49,2.11a1.14,1.14,0,0,0,0,.26v.07h0a2.26,2.26,0,0,1,0-.26c0-.8.5-1.37.5-2.13a1.89,1.89,0,0,0-.1-.55,4.58,4.58,0,0,1-.06-.78c0-.93.18-2.13.31-3.33a29.38,29.38,0,0,0,.31-3.75V46c-.06-.73-.09-1.35-.09-1.91a6.4,6.4,0,0,1,1.4-4.35,3.67,3.67,0,0,0,1-2.14,18.05,18.05,0,0,1,.46-2.33,9.82,9.82,0,0,0,.3-2.38v0h0c0-.77.07-1.54.12-2.45a9.71,9.71,0,0,0,.29-5.31,1.34,1.34,0,0,0-.54-.59c-.27-.13-.28-.62-.42-.85v0c0-1,.33-2.09.33-3.12a2.85,2.85,0,0,0-.43-1.61,1.27,1.27,0,0,0-.75-.51"/><path class="e" d="M80.55,18.32a.69.69,0,0,0-.46.15,41.1,41.1,0,0,0-5.17,5.13,3.92,3.92,0,0,0-1,2c-.15.61-.15,1.21-.25,1.83.06.27.11.55.15.82l.11-.07a3.93,3.93,0,0,0,1-1,1.27,1.27,0,0,0,.22-.68.8.8,0,0,0-.11-.42h0l1.43-2.54c.5-.82,1.05-1.6,1.59-1.6.24,0,.48.16.71.55,0,0,.33.32.72.75.2.22.41.46.6.7a4.91,4.91,0,0,1,.42.69s0,.19,0,.53.07.79.07,1.34v.08c0,.58-.05,1.26-.07,2s-.18,1.5-.29,2.26c-.52,3.07-1.82,5.88-2.47,6l-.28.48c-.17.31-.41.75-.71,1.28s-.56,1.18-.9,1.87-.61,1.47-.91,2.29a16.71,16.71,0,0,0-.86,4.2,37.8,37.8,0,0,1,.71,5.43,18.76,18.76,0,0,0,1.35,3.15v.25c0,.21,0,.55,0,.94v.06l.65,0a3.11,3.11,0,0,0,.45-.22,1.62,1.62,0,0,1,.08.26l.83.06v-.07a1.14,1.14,0,0,1,0-.26c0-.79.49-1.36.49-2.11a1.47,1.47,0,0,0-.09-.57,4.58,4.58,0,0,1-.06-.78c0-.93.18-2.13.3-3.33a28.8,28.8,0,0,0,.3-3.74v-.14c0-.7-.08-1.29-.08-1.82a10.65,10.65,0,0,1,.13-1.79,6.46,6.46,0,0,1,1.26-2.64,3.75,3.75,0,0,0,1-2.15,18.15,18.15,0,0,1,.45-2.32,9.29,9.29,0,0,0,.3-2.38v0h0c0-.78.07-1.54.12-2.45a9.91,9.91,0,0,0,.51-2.59c0-.22,0-.44,0-.66a7.7,7.7,0,0,0-.24-2,1.28,1.28,0,0,0-.54-.59c-.26-.13-.28-.62-.42-.85v0a21.06,21.06,0,0,1,.29-2.41,4.87,4.87,0,0,0,0-.65,3.17,3.17,0,0,0-.44-1.66,1.22,1.22,0,0,0-.68-.49l-.22,0"/><path class="f" d="M78.08,21.89c-.54,0-1.09.78-1.59,1.6L75.06,26a.8.8,0,0,1,.11.42,1.27,1.27,0,0,1-.22.68,3.93,3.93,0,0,1-1,1,8.55,8.55,0,0,1-1.63.89l-.11.05-.24.18a6.75,6.75,0,0,0-1.39,1.9,11.38,11.38,0,0,0-.72,1.39c-.47.08-.69.55-.72,1.22v0c0,.23,0,.49,0,.77,0,.11,0,.23,0,.35s0,.41,0,.63a1.42,1.42,0,0,0,0,.16,12.85,12.85,0,0,1,.48,2.84q0,.3,0,.6a7.92,7.92,0,0,1-.36,2.4c-.31.75-.73,1.26-1.32,1.26h-.14a2,2,0,0,0-.58.35l-.22.22a10,10,0,0,1-.42,1.2c-.09.17-.17.34-.23.48s0,.2,0,.3a13.54,13.54,0,0,0,1.27,4.74c.46.92,1,1.9,1.44,2.9l.1.18a18.46,18.46,0,0,0,2.41,2.3,6.55,6.55,0,0,0,3.81,1.6,3.21,3.21,0,0,0,.68-.07c0-.1,0-.2,0-.3,0-.39,0-.73,0-.94v-.25a18.76,18.76,0,0,1-1.35-3.15,14.49,14.49,0,0,1-.74-4.52A16.15,16.15,0,0,1,75,42.74c.3-.82.59-1.59.91-2.29s.62-1.33.9-1.87.54-1,.71-1.28l.28-.48c.65-.16,2-3,2.47-6,.11-.76.23-1.53.29-2.26s0-1.41.07-2v-.08c0-.55-.06-1-.07-1.34s0-.53,0-.53a4.91,4.91,0,0,0-.42-.69c-.19-.24-.4-.48-.6-.7-.39-.43-.72-.75-.72-.75-.23-.39-.47-.55-.71-.55"/><path class="g" d="M68.75,34.52s.07.16.18.45c0,0,0,0,0-.08a.6.6,0,0,0-.19-.37"/><path class="g" d="M68.93,35c-.05.24-.3.43-.6.58a4.71,4.71,0,0,1-1.09.32.51.51,0,0,1,0,.17,1.25,1.25,0,0,1-.48.84,5.82,5.82,0,0,1-1.4.86,10.79,10.79,0,0,1-2.14.65l-.43,0c-1,0-1.41.46-1.47,1a1.81,1.81,0,0,0,0,.4,3.29,3.29,0,0,0,.14.9,5.4,5.4,0,0,1,1,1.66,1.22,1.22,0,0,1,.06.29.21.21,0,0,1,0,.11,3.94,3.94,0,0,0-.23,1.43,2.72,2.72,0,0,0,0,.28,19,19,0,0,0,.31,2.24c.18.82.39,1.73.57,2.66s.43,1.92.65,2.85c.88,3.88,1.67,7.31,1.67,7.31.42,1.77,2.52,2.71,4.63,3a13.72,13.72,0,0,0,2.13.17l.75,0c.78,0,1.3-.11,1.3-.11a3.57,3.57,0,0,0,1.05.17,2,2,0,0,0,1.43-.55A3.38,3.38,0,0,0,77.65,60c0-.23,0-.46,0-.68a10.4,10.4,0,0,0-.15-1.69,6.86,6.86,0,0,0-.19-.82,1.62,1.62,0,0,0-.08-.26,3.11,3.11,0,0,1-.45.22,3.07,3.07,0,0,1-.68.2,3.21,3.21,0,0,1-.68.07,6.55,6.55,0,0,1-3.81-1.6,18.46,18.46,0,0,1-2.41-2.3l-.32-.36c-.48-1-.89-1.92-1.22-2.72a13.54,13.54,0,0,1-1.27-4.74c0-.1,0-.2,0-.3a2.26,2.26,0,0,1,.09-.55,2.71,2.71,0,0,1,.56-1.13l.22-.22a2,2,0,0,1,.58-.35H68c.59,0,1-.51,1.32-1.26a7.92,7.92,0,0,0,.36-2.4q0-.3,0-.6a12.85,12.85,0,0,0-.48-2.84,1.42,1.42,0,0,1,0-.16L68.93,35m0,0h0"/><path class="h" d="M66.75,62.64h0c-.4.08-1,2.1-1.64,4.16a24.7,24.7,0,0,1-1.59,4.27.4.4,0,0,0,0,.2c0,.18.06.42.06.6a.41.41,0,0,1,0,.21,1.49,1.49,0,0,1-.62.12,7.76,7.76,0,0,1-2.43-.73,2.56,2.56,0,0,0-.79-.11,6.4,6.4,0,0,0-1.74.29,9.11,9.11,0,0,1-1,.29h0c-.45-1.2-1.28-2.52-1.28-3.63a.22.22,0,0,1,0-.08h0a3.71,3.71,0,0,0-.37-.69,1.9,1.9,0,0,0-.73-.6h0a.16.16,0,0,0,0-.09s0-.06-.12-.06c-.51,0-2.39.84-2.39,1.19,0,.06,0,.11.17.13H52c-1,0-1,1.76-2,2.28-.7.47-2-.12-2.42.67-.34.41-.63,1-1.08,1a.89.89,0,0,1-.44-.15,3.08,3.08,0,0,0-1.25-.48c-.66.17-1.18.66-1.82.66a1.28,1.28,0,0,1-.46-.08c-.43-.21-1-.71-1.44-.93a.89.89,0,0,0-.39-.11.46.46,0,0,0-.42.26.41.41,0,0,1-.12.14c-.19.16-.49.22-.49.46,0,0,0,.06,0,.09h0c.26.07.57.35.91.44.66.28,1.21.06,1.86.43a17.89,17.89,0,0,0,2,.93,3.75,3.75,0,0,0,.56,0,2.17,2.17,0,0,0,.57-.07,8.43,8.43,0,0,0,3.8-1.11c0-1.09,1-.85,1.59-1.1h.11c.17,0,.38.07.59.08.41-.12.69-.52,1.1-.52a.8.8,0,0,1,.43.14,18.87,18.87,0,0,0,4.23,2.38,14.53,14.53,0,0,0,3.21.53c.6,0,1.2.08,1.73.08a8.56,8.56,0,0,0,1.36-.08c1.35-.19,2-1.41,3.15-1.86h0s.07.12.1.31l.33-.27c0-.15.16-.51.16-.66a1.12,1.12,0,0,1,.51-.11,2.5,2.5,0,0,1,.51.06,5.8,5.8,0,0,0,2,.35c2.43,0,4.74-1.37,7.32-1.38a2.81,2.81,0,0,0,2-.91c.29-.53.91-1,1-1.54v-.35a29.32,29.32,0,0,0-.4-3.53l-.73.75c-.46.47-.92.94-1.39,1.38a3.32,3.32,0,0,1-2.65,1.82,1,1,0,0,1-.31,0A5.32,5.32,0,0,1,73,67.07c-.31-.27-.5-.78-.81-1-1.24-.92-2.4-1-3.51-2.48a2.51,2.51,0,0,0-1.89-.9"/><path class="i" d="M61.44,33.88a1,1,0,0,1-.3.64,1,1,0,0,0,.24-.37.66.66,0,0,0,.06-.27"/><path class="a" d="M59.7,35.1l-.2,0-.9.33h0l.9-.33h0l.16,0h0m1.44-.58h0a.64.64,0,0,1-.15.13h0a.64.64,0,0,0,.15-.13h0"/><path class="i" d="M61.14,34.52a.64.64,0,0,1-.15.13,2.7,2.7,0,0,1-1.29.45l-.16,0,.16,0A2.7,2.7,0,0,0,61,34.65a.64.64,0,0,0,.15-.13"/><path class="i" d="M58.6,35.45a4,4,0,0,0-.74.35.32.32,0,0,0-.11.14.32.32,0,0,1,.11-.14,4,4,0,0,1,.74-.35"/><path class="j" d="M57.46,38.81h0l.1.09h0l-.1-.09h0m-.76-1.53h0v0a2,2,0,0,0,.39,1.07h0a1.94,1.94,0,0,1-.39-1.11"/><path class="i" d="M56.7,37.32a1.93,1.93,0,0,0,.39,1.06,2.83,2.83,0,0,0,.37.43l.1.09h0l-.1-.09a2.79,2.79,0,0,1-.37-.42,2,2,0,0,1-.39-1.07m0,0h0"/><path class="i" d="M57.56,38.9h0a3.71,3.71,0,0,1,0,.39c0-.19,0-.34,0-.38h0m0,0h0"/><path class="i" d="M57.57,39.51v0c0,.27-.08.52-.24.53h0c.15,0,.2-.27.22-.53v0"/><path class="i" d="M57.18,40.65a7.79,7.79,0,0,0,1,2.32l.12.21L58.22,43a7.79,7.79,0,0,1-1-2.32"/><path class="k" d="M52.81,71c-.41,0-.69.4-1.1.52-.21,0-.42-.08-.59-.08H51c-.55.25-1.58,0-1.59,1.1a8.43,8.43,0,0,1-3.8,1.11,2.17,2.17,0,0,1-.57.07,3.75,3.75,0,0,1-.56,0,17.89,17.89,0,0,1-2-.93c-.65-.37-1.2-.15-1.86-.43-.34-.09-.65-.37-.91-.44h0c-.08.13-.33.15-.33.28a.22.22,0,0,0,0,.1,2.19,2.19,0,0,0,.7.72c1.06.64,2.1,1.45,3.1,1.92a12.31,12.31,0,0,0,4.82,1.21,6.43,6.43,0,0,0,1.65-.21c.37-.11.42-.66.64-1,.43-.84,1.66-.67,1.87-2a.26.26,0,0,1,.28-.22h.1a57.67,57.67,0,0,0,6,2.63,12.25,12.25,0,0,0,3.87.45,15.7,15.7,0,0,0,2.14-.11A3,3,0,0,0,67,72.83a2.92,2.92,0,0,0,0-.33c0-.19-.07-.31-.1-.31h0c-1.17.45-1.8,1.67-3.15,1.86a8.56,8.56,0,0,1-1.36.08c-.53,0-1.13,0-1.73-.08a14.53,14.53,0,0,1-3.21-.53,18.87,18.87,0,0,1-4.23-2.38.8.8,0,0,0-.43-.14"/><path class="b" d="M112.07,63a1,1,0,0,0-.28.05,27.39,27.39,0,0,0-6.34,3.33A3.62,3.62,0,0,0,104,68c-.25.57-.34,1.16-.54,1.75A3,3,0,0,1,102,71.31a12.81,12.81,0,0,0,1.6-.66c0-.28,0-.57,0-.85h0c.2-.59.29-1.18.54-1.75a3.62,3.62,0,0,1,1.42-1.67,27.48,27.48,0,0,1,6.35-3.33.87.87,0,0,1,.28,0,1.16,1.16,0,0,1,.41.09,1.14,1.14,0,0,0-.48-.12"/><path class="b" d="M101.64,71.5A19.33,19.33,0,0,1,96.23,73c-2.54.35-6.48.38-6.5,1.35,0,0,0,0,0,0,.17.85,1.17,1.86,1.16,2.76a.53.53,0,0,1,0,.13,1.39,1.39,0,0,0,0-.35,1.73,1.73,0,0,0,0-.32,2.59,2.59,0,0,0-.72-1.27,2.59,2.59,0,0,1,.72,1.27,1.73,1.73,0,0,1,0,.32h0a1.73,1.73,0,0,0,0-.32,2.59,2.59,0,0,0-.72-1.27,2.59,2.59,0,0,1,.72,1.27,1.73,1.73,0,0,1,0,.32h0a1.39,1.39,0,0,1,0,.35,1.11,1.11,0,0,1-.39.72,3.25,3.25,0,0,1-1.28.81,6.83,6.83,0,0,0-1.73,1.31l-.11,0v0a.3.3,0,0,0-.09.19v0l-.66.33h0a6.74,6.74,0,0,1-.31,1.31v.26h0v0a2.08,2.08,0,0,0,.46,1.22,4.53,4.53,0,0,0,.54.49l.08.05h0l0,0a2.44,2.44,0,0,1,.07.56v.35h0a.69.69,0,0,1-.15.53,1.77,1.77,0,0,0-.07.46,2.08,2.08,0,0,0,.57,1.3c.32.4.65.8,1,1.22l.28.28h0a3.5,3.5,0,0,1-.27-.28c1.21,1.59,2.27,3.26,2.27,4.65a2,2,0,0,1,0,.25A3.3,3.3,0,0,1,89.91,96a5.33,5.33,0,0,1-1.91.19c-.69,0-1.39,0-1.75-.06h-.16c-.69,0-.93.32-.93.77a3.68,3.68,0,0,0,.48,1.5,11.21,11.21,0,0,1,1.92,5.16h0c-.13.48-.9.51-1.18,1a2.09,2.09,0,0,0-.09.67c0,1.12.6,2.45.63,3.58h0a11.87,11.87,0,0,0-.52,3,2,2,0,0,0,.39,1.45s0,0,0,0-.16.12-.3.12a3.19,3.19,0,0,1-.62-.09,4.24,4.24,0,0,0-.68-.09.84.84,0,0,0-.37.08,1.11,1.11,0,0,0-.34.87,3.89,3.89,0,0,0,.39,1.5,11.28,11.28,0,0,1,1,3.84,2.51,2.51,0,0,1-.29,1.25,5.31,5.31,0,0,1,.84.1,4.54,4.54,0,0,0,.82.11h0c.89-.09,1.06-.91,1.63-1.42a2.36,2.36,0,0,1,.79-.11h.5l.16,0c.68,0,.61-.74.72-1.32,0-.87,1.36-.86,1.71-1.54a1.51,1.51,0,0,0,.2-.85c0-.32,0-.66,0-1,0-.46.09-.83.56-1h-.09c-.09,0-.13,0-.13-.12a2,2,0,0,1,.48-.89c.39-.5.9-1,1.08-1s.07,0,.07.09v0l.07,0a2.3,2.3,0,0,1,.84.25,3.06,3.06,0,0,1,.65.46c.48,1,1.85,1.82,2.82,2.69h0c.18,0,1.46-1.6,2.82-1.69,1.11,0,2.3.07,2.87-.53v0c0-.22-.44-.6-.44-.82v0a.36.36,0,0,0,0-.18c0-.57-.29-2.29-.58-4a28.17,28.17,0,0,1-.46-3.5c0-.3,0-.49.13-.55a2.39,2.39,0,0,1,.78-.11,2.24,2.24,0,0,1,1.26.33c1.59.94,2.64.7,4.12,1.15.38.15.75.52,1.13.67a8.23,8.23,0,0,0,2.08.35,1.3,1.3,0,0,0,.79-.18,2.37,2.37,0,0,0,1.61-2.09v0h0l.72-1.43a8.66,8.66,0,0,0-.78-1.84c-.41-.86-.84-1.26-.85-1.51a.21.21,0,0,1,.1-.17h0c0-.17-1.93-1.39-2.75-2.72l-.79.09a9.7,9.7,0,0,1,1.37,2.58,3.78,3.78,0,0,1,.2,1.12c0,1-.54,1.72-2.18,1.72h-.1a16.21,16.21,0,0,1-3.74,1,12.18,12.18,0,0,1-1.6.12,4.58,4.58,0,0,1-3.75-1.41l-1.33-1.8c-.79-1.1-1.86-2.6-2.92-4.2-2-3-4-6.19-4-8.37a2.74,2.74,0,0,1,0-.5.06.06,0,0,0,0,0,.81.81,0,0,0-.13-.37,5.61,5.61,0,0,0-1.35-1.5,3.61,3.61,0,0,1-.31-1.34V83.5c0-.7.39-1.39,1.79-1.52a13.35,13.35,0,0,0,2.07-1.11c.9-.6,1.74-1.38,1.74-2a1.43,1.43,0,0,0,0-.22h0a4.92,4.92,0,0,0,1.06-.44,1.13,1.13,0,0,0,.58-.66L98.31,77h0a.53.53,0,0,1,.19.41v.06l.23.61a12.82,12.82,0,0,1-.11-1.56c0-.91.17-1.56.72-1.66a12.57,12.57,0,0,1,.77-1.48,6.07,6.07,0,0,1,1.53-1.92"/><path class="b" d="M90.5,78l-.17.15-1.11.66A3.25,3.25,0,0,0,90.5,78"/><path class="b" d="M87.38,80.17a3.55,3.55,0,0,0-.75.56v0l.66-.33v0h0a.3.3,0,0,1,.09-.19v0"/><path class="b" d="M86.32,82.07a1.58,1.58,0,0,0,0,.38,1.61,1.61,0,0,0,.5,1.12,2.08,2.08,0,0,1-.45-1.21v0h0v-.12h0v-.14"/><path class="b" d="M87.33,84.07l.07.06h0l-.07-.05"/><path class="b" d="M87.52,84.9a6.11,6.11,0,0,1-.15.7.69.69,0,0,0,.15-.53V84.9"/><path class="b" d="M97.69,86.38a2.5,2.5,0,0,0-.31,1.23v.07a3,3,0,0,0,0,.5l.11-.53c.07-.4.13-.86.16-1.27"/><path class="b" d="M105.33,88.48a11.25,11.25,0,0,0,2.06,4.7q-.94-2.42-2.06-4.7"/><path class="b" d="M100,92.68c.55.65,1.2,1.37,2,2.16l.41.25-.15-.15c-.77-.76-1.54-1.53-2.24-2.26"/><path class="b" d="M110.56,96.61l-.61.09c0,.06,0,.14,0,.21a2.73,2.73,0,0,0,.56-.3"/><path class="b" d="M84.93,121.37a3,3,0,0,1-.36.17l.23.07a1.36,1.36,0,0,0,.13-.24"/><path class="d" d="M112.55,63.09a1.06,1.06,0,0,1,.51.52,2,2,0,0,1,.09.58c0,1.09-.9,2.22-1.17,3.32.1.2,0,.61.27.75a1.06,1.06,0,0,1,.43.56q0,.34,0,.66a8.85,8.85,0,0,1-.87,3.76,18.56,18.56,0,0,0-.2,2.09,8.72,8.72,0,0,1-.27,2.07,10.2,10.2,0,0,0-.33,2,3.14,3.14,0,0,1-.78,1.9,4.48,4.48,0,0,0-.92,2.65,10.57,10.57,0,0,0,.56,2.94c.42,1.41.56,5.36,1.38,6.94a1.68,1.68,0,0,1,.34,1.09c0,.18,0,.36,0,.54a1.86,1.86,0,0,0,.2.91l0,.06h0a1.84,1.84,0,0,1-.2-.91c0-.18,0-.35,0-.53a1.68,1.68,0,0,0-.34-1.09c-.82-1.58-1-5.53-1.38-7a11.16,11.16,0,0,1-.55-2.92,4.52,4.52,0,0,1,.92-2.67,3.11,3.11,0,0,0,.78-1.91,10.15,10.15,0,0,1,.34-2c.39-1.51.19-2.64.47-4.17a8.85,8.85,0,0,0,.87-3.76q0-.33,0-.66a1.06,1.06,0,0,0-.43-.56c-.24-.14-.17-.55-.27-.76h0c.27-1.1,1.18-2.23,1.18-3.32a1.69,1.69,0,0,0-.1-.58,1.06,1.06,0,0,0-.57-.55"/><path class="e" d="M112.14,63a.87.87,0,0,0-.28,0,27.48,27.48,0,0,0-6.35,3.33,3.62,3.62,0,0,0-1.42,1.67c-.25.57-.34,1.16-.54,1.75,0,.28,0,.57,0,.85l.12-.06c.79-.42,1.5-1,1.5-1.64a.84.84,0,0,0,0-.27h0l.59-.69c.35-.4.81-.93,1.3-1.4a3.28,3.28,0,0,1,1.77-1.12c.3,0,.54.18.7.62,0,0,.25.33.54.76a6.69,6.69,0,0,1,.73,1.34h0a34.85,34.85,0,0,1-.94,5.33c-.67,2.66-1.75,5.21-2.4,5.39l-.25.45c-.15.28-.35.7-.59,1.2a18.06,18.06,0,0,0-1.26,4,13.18,13.18,0,0,0-.19,2.13,11.64,11.64,0,0,0,.15,1.82q1.11,2.28,2.06,4.7a16.8,16.8,0,0,0,2.21,2.45,7.57,7.57,0,0,1,.33,1l0,.06.61-.09a3,3,0,0,0,.35-.27l.15.21.79-.09,0-.06a1.86,1.86,0,0,1-.2-.91c0-.18,0-.36,0-.54a1.68,1.68,0,0,0-.34-1.09c-.82-1.58-1-5.53-1.38-6.94a10.57,10.57,0,0,1-.56-2.94,4.48,4.48,0,0,1,.92-2.65,3.14,3.14,0,0,0,.78-1.9,10.2,10.2,0,0,1,.33-2,8.72,8.72,0,0,0,.27-2.07,18.56,18.56,0,0,1,.2-2.09,8.85,8.85,0,0,0,.87-3.76q0-.32,0-.66a1.06,1.06,0,0,0-.43-.56c-.24-.14-.17-.55-.27-.75h0c.27-1.1,1.18-2.23,1.17-3.32a2,2,0,0,0-.09-.58,1.06,1.06,0,0,0-.51-.52,1.16,1.16,0,0,0-.41-.09"/><path class="f" d="M108.84,65.47a3.28,3.28,0,0,0-1.77,1.12c-.49.47-.95,1-1.3,1.4l-.59.69a.84.84,0,0,1,0,.27c0,.62-.71,1.22-1.5,1.64a10.58,10.58,0,0,1-1.72.72l-.12,0-.24.16a6.07,6.07,0,0,0-1.53,1.92,12.57,12.57,0,0,0-.77,1.48c-.55.1-.72.75-.72,1.66a12.82,12.82,0,0,0,.11,1.56,17.71,17.71,0,0,1,.78,3A10.77,10.77,0,0,1,99.68,83c0,1.44-.36,2.61-1.31,2.67a2.15,2.15,0,0,0-.68.73c0,.41-.09.87-.16,1.27l-.11.53c.16,1,.85,2.48,2.54,4.5.7.73,1.47,1.5,2.24,2.26l.15.15a21.13,21.13,0,0,0,3,1.43,9.22,9.22,0,0,0,3.11.66,4.13,4.13,0,0,0,1.54-.27c0-.07,0-.15,0-.21l0-.06a7.57,7.57,0,0,0-.33-1,16.8,16.8,0,0,1-2.21-2.45,11.25,11.25,0,0,1-2.06-4.7,11.64,11.64,0,0,1-.15-1.82,13.18,13.18,0,0,1,.19-2.13,18.06,18.06,0,0,1,1.26-4c.24-.5.44-.92.59-1.2l.25-.45c.65-.18,1.73-2.73,2.4-5.39a34.85,34.85,0,0,0,.94-5.33,6.69,6.69,0,0,0-.73-1.34c-.29-.43-.54-.76-.54-.76-.16-.44-.4-.62-.7-.62"/><path class="g" d="M98.31,77l.19.47v-.06a.53.53,0,0,0-.19-.41"/><path class="g" d="M98.5,77.51a1.13,1.13,0,0,1-.58.66,4.92,4.92,0,0,1-1.06.44,1.43,1.43,0,0,1,0,.22c0,.66-.84,1.44-1.74,2A13.35,13.35,0,0,1,93.09,82c-1.4.13-1.79.82-1.79,1.52v0h0v.06a3.61,3.61,0,0,0,.31,1.34A5.61,5.61,0,0,1,93,86.42a.81.81,0,0,1,.13.37.06.06,0,0,1,0,0,2.74,2.74,0,0,0,0,.5c0,2.18,2,5.38,4,8.37,1.06,1.6,2.13,3.1,2.92,4.2l1.33,1.8a4.58,4.58,0,0,0,3.75,1.41,12.18,12.18,0,0,0,1.6-.12,16.21,16.21,0,0,0,3.74-1h.1c1.64,0,2.18-.76,2.18-1.72a3.78,3.78,0,0,0-.2-1.12,9.7,9.7,0,0,0-1.37-2.58l-.15-.21a3,3,0,0,1-.35.27,2.73,2.73,0,0,1-.56.3,4.13,4.13,0,0,1-1.54.27,9.22,9.22,0,0,1-3.11-.66,21.13,21.13,0,0,1-3-1.43l-.41-.25c-.78-.79-1.43-1.51-2-2.16-1.69-2-2.38-3.45-2.54-4.5a3,3,0,0,1,0-.5v-.07a2.5,2.5,0,0,1,.31-1.23,2.15,2.15,0,0,1,.68-.73c.95-.06,1.32-1.23,1.31-2.67a10.77,10.77,0,0,0-.17-1.84,17.71,17.71,0,0,0-.78-3l-.23-.61m0,0h0"/><path class="h" d="M116.5,102l-.37.75-.72,1.43v0a2.37,2.37,0,0,1-1.61,2.09,1.3,1.3,0,0,1-.79.18,8.23,8.23,0,0,1-2.08-.35c-.38-.15-.75-.52-1.13-.67-1.48-.45-2.53-.21-4.12-1.15a2.24,2.24,0,0,0-1.26-.33,2.39,2.39,0,0,0-.78.11c-.1.06-.13.25-.13.55a28.17,28.17,0,0,0,.46,3.5c.29,1.68.58,3.4.58,4a.36.36,0,0,1,0,.18v0c0,.22.44.6.44.82v0c-.57.6-1.76.5-2.87.53-1.36.09-2.64,1.69-2.82,1.69h0c-1-.87-2.34-1.71-2.82-2.69a3.06,3.06,0,0,0-.65-.46,2.3,2.3,0,0,0-.84-.25l-.07,0h0v0c0-.06,0-.09-.07-.09s-.69.51-1.08,1a2,2,0,0,0-.48.89c0,.08,0,.12.13.12h.09c-.47.13-.56.5-.56,1,0,.3,0,.64,0,1a1.51,1.51,0,0,1-.2.85c-.35.68-1.7.67-1.71,1.54-.11.58,0,1.32-.72,1.32l-.16,0h-.5a2.36,2.36,0,0,0-.79.11c-.57.51-.74,1.33-1.63,1.42h0a4.54,4.54,0,0,1-.82-.11,5.31,5.31,0,0,0-.84-.1h0c-.35,0-.6.1-.61.46h0a.33.33,0,0,1,0,.15c-.07.18-.22.32-.22.48a.26.26,0,0,0,.08.18h.13l.31,0,.33,0h.21c.66,0,1-.39,1.65-.39h.34l.64,0,.63,0a3.32,3.32,0,0,0,.64,0,2.3,2.3,0,0,0,1-.48,7,7,0,0,0,2.65-2.47,1,1,0,0,1-.14-.48c0-.54.68-.73,1-1.08.13-.11.4-.12.62-.21.36-.33.34-.93,1-.93h.16a22.44,22.44,0,0,0,4.07.44h.64a19.57,19.57,0,0,0,5.57-1.77c1-.61,1-1.84,1.82-2.58h0a.66.66,0,0,1,.21.23c.06-.11.12-.22.17-.33s-.1-.48-.16-.6h0A1.35,1.35,0,0,1,109,111h.07c3.23,0,4.7-2.57,7.55-3.31.51-.22,1.27-.57,1.41-1.19,0-.43.31-.85.31-1.27a.76.76,0,0,0,0-.21A23.33,23.33,0,0,0,116.5,102"/><path class="i" d="M88.12,79.52a4.65,4.65,0,0,0-.74.65v0a4.65,4.65,0,0,1,.74-.65m2.81-2.59h0"/><path class="i" d="M87.37,80.2a.3.3,0,0,0-.09.19.3.3,0,0,1,.09-.19"/><path class="i" d="M86.6,80.77A3.78,3.78,0,0,0,86.32,82a3.78,3.78,0,0,1,.28-1.25"/><path class="i" d="M86.31,82.21v0m0,0h0"/><path class="i" d="M86.31,82.26v0"/><polyline class="i" points="86.31 82.33 86.31 82.33 86.31 82.33"/><path class="i" d="M86.31,82.33v0"/><path class="i" d="M86.32,82.36a2.08,2.08,0,0,0,.45,1.21,2.49,2.49,0,0,0,.56.5l.07.05-.08-.05a2.59,2.59,0,0,1-.54-.49,2.08,2.08,0,0,1-.46-1.22"/><path class="i" d="M87.29,85.63a.46.46,0,0,0-.06.26.46.46,0,0,1,.06-.26h0m.23-.56h0"/><path class="a" d="M87.22,85.93h0a1.46,1.46,0,0,0,.07.4v0h0a1.36,1.36,0,0,1-.08-.42"/><path class="i" d="M87.22,85.93a1.46,1.46,0,0,0,.07.4,1.46,1.46,0,0,1-.07-.4m0,0h0"/><path class="i" d="M87.3,86.35a3.32,3.32,0,0,0,.35.73,3.32,3.32,0,0,1-.35-.73"/><path class="i" d="M87.65,87.08a9.37,9.37,0,0,0,1.19,1.5,3.5,3.5,0,0,0,.27.28l-.28-.28a9.8,9.8,0,0,1-1.18-1.5"/><path class="k" d="M107.94,112.09h0c-.79.74-.77,2-1.82,2.58a19.57,19.57,0,0,1-5.57,1.77H99.9a22.44,22.44,0,0,1-4.07-.44h-.16c-.62,0-.6.6-1,.93-.22.09-.49.1-.62.21-.28.35-1,.54-1,1.08a1,1,0,0,0,.14.48h0a7,7,0,0,1-2.65,2.47,2.3,2.3,0,0,1-1,.48,3.32,3.32,0,0,1-.64,0l-.63,0-.64,0h-.34c-.64,0-1,.36-1.65.39h-.21l-.33,0-.31,0h-.13c0,.13-.15.23-.15.34s0,.08.09.12a2.36,2.36,0,0,0,.94.33c1.19.11,2.45.38,3.51.38h0c2.46-.07,4.59-.54,5.94-1.75a.46.46,0,0,0,.13-.36c0-.22-.08-.48-.08-.7v-.09c0-.7.73-1.06.73-1.83a1.53,1.53,0,0,0-.11-.55.16.16,0,0,1,0-.09c0-.12.1-.2.24-.23,1,0,1.88.05,2.79.05,1.19,0,2.36,0,3.55-.09a16.48,16.48,0,0,0,5.22-1.8,2.55,2.55,0,0,0,1-2,2.36,2.36,0,0,0-.7-1.69"/><path d="M124.26,79.86A28.18,28.18,0,0,1,122.08,92,123.56,123.56,0,0,1,106,119.36a64,64,0,0,1-7.79,8.72c-3.8,3.39-8.33,5.6-13.66,5.18-2.63-.21-5.24-.72-7.84-1.19a3.86,3.86,0,0,1-3-2,1.18,1.18,0,0,0-.87-.54c-1.44.11-1.79-.88-2.27-1.92-2.15-4.62-1.74-9.45-1.13-14.26.88-6.92,3.06-13.53,5.37-20.08.64-1.82,1.78-3.47,2.56-5.26A174.51,174.51,0,0,1,88.7,66.27c1-1.59,2-3.14,3-4.74,2.62-4.48,6.94-5.85,11.68-6.24a22.3,22.3,0,0,1,6.53.29,17.73,17.73,0,0,1,5.49,2.47,16.57,16.57,0,0,1,6.85,9.14A42.09,42.09,0,0,1,124.26,79.86Zm-46.32,50a7,7,0,0,0,.69.53c1.9,1.15,4,.94,6.12,1.09,5,.35,9.11-1.63,12.52-4.88a85,85,0,0,0,8.44-9.72,128.58,128.58,0,0,0,13.5-22.74,32.86,32.86,0,0,0,3-19.15c0-.38-.06-1-.26-1.08-1.11-.44-.66-1.25-.61-2A10.51,10.51,0,0,0,118.77,65c-.77.68-.33,2.16-1.93,2.73.19-1.32.42-2.37.48-3.44A3.65,3.65,0,0,0,117,62a6.09,6.09,0,0,0-3.76-2.61c-.82,1.61-1.57,3.15-2.37,4.66s-1.18,3.07-2.64,4l-.47-.24q1.92-4.71,3.84-9.39c-.56-.71-1.22-.92-1.81-.25a10.63,10.63,0,0,0-1.57,2.3c-1.11,2.23-2.11,4.52-3.19,6.77-.35.72-.83,1.39-1.24,2.09l-.5-.25c.25-3.08,2.28-5.66,2.92-8.7h-1.5c.28-1,.54-1.93.79-2.85-2-.24-2.07-.26-2.75,1-.85,1.58-1.68,3.18-2.39,4.83-1.48,3.44-2.88,6.92-4.33,10.38a4,4,0,0,1-2,2.34c1.78-6.12,4.4-11.9,6.63-18.12a14.14,14.14,0,0,0-1.59.23c-3.34.88-5.53,3.27-7.2,6C89,69.05,86.24,74,83.6,78.92c-1.88,3.5-3.55,7.13-5.2,10.75C77.18,92.36,76,95.1,75,97.89c-.89,2.49-1.5,5.09-2.25,7.64-2,6.68-3,13.37-1,20.29.63,2.11,1.65,3.33,3.55,3.83,1.55-4.46,2.93-8.85,4.6-13.13s3.56-8.26,5.36-12.39l.48.19a78.2,78.2,0,0,1-3.49,10.84c-1.35,3.33-2.61,6.69-3.87,10a10.45,10.45,0,0,0-.35,1.88,1.51,1.51,0,0,0,2.41-.29c.7-.85,1.22-1.94,2.68-2.31-.12,1.57-1.11,2.5-1.81,3.55C80.15,129.83,80.13,129.82,77.94,129.82Z"/><path d="M82.73,18.36c-1.78-.63-3.11.17-4.45,1s-2.68,1.63-4,2.39a2.52,2.52,0,0,1-1.58.23c1.42-2.06,3.45-3.37,5.74-4.82a12.8,12.8,0,0,0-4.26-.89,22,22,0,0,0-16.57,5.12,106.06,106.06,0,0,0-8.57,8c-3.33,3.37-5.46,7.57-7.56,11.75-3.62,7.19-7.16,14.42-10.78,21.6-.81,1.59-1.84,3.06-2.91,4.84,1.53-.18,2.27-1.74,4-1.42-2.29,2.42-4.75,4.39-6.22,7.48,3.18-.21,5.25-2.93,8.67-3.07-.51.64-.7,1.08-1,1.26-2.25,1.26-4.53,2.46-6.78,3.7a18.13,18.13,0,0,0-2.19,1.35c-.89.67-.39,1.17.47,1.7a3.44,3.44,0,0,1,3-2.7c1.06-.19,2.15-1.11,3.42.17l-5,2.59.17.49a35.13,35.13,0,0,0,7.42-1.2c2.46-.6,4.74-1.85,7.76-2.2C39.46,78.37,36.44,78.19,34,80c4.14.15,7.8.4,11.42-.28,5.64-1,11.16-2.55,16-5.83,3.54-2.43,6.93-5.09,10.3-7.76a51.84,51.84,0,0,0,5.21-4.72,18.64,18.64,0,0,0,3.42-4.43c2.62-5.32,5.89-10.34,7.79-16a36.22,36.22,0,0,0,2-10.55,1.2,1.2,0,0,0-.28-.8c-1.08,3.63-1,7.61-3.58,10.69-.53.63-1.13,1.22-1.69,1.82l-.44-.27c.36-.73.69-1.48,1.1-2.18,2.51-4.28,2.78-9.06,3.07-13.82a4.77,4.77,0,0,0-1.8-3.68l-3-2.82a5.39,5.39,0,0,1,3.41,1.23c4.3,3.42,5.47,7.91,4.71,13.17-1,6.87-3.86,13-7.19,19-1,1.77-1.86,3.62-2.84,5.4a27.29,27.29,0,0,1-7,7.85c-4.13,3.34-8.34,6.61-12.69,9.64-3.75,2.62-8.15,3.87-12.53,5.12-5,1.41-10,1.38-15.11,1.12-2.42-.13-4.85-.18-7.25-.44a7.7,7.7,0,0,1-5.12-2.58,3.21,3.21,0,0,1-.61-3.89c.39-.76.82-1.5,1.27-2.23,2.9-4.82,5.95-9.55,8.68-14.47,2.19-4,3.86-8.2,6-12.19,2.75-5.17,5.54-10.34,8.68-15.28a35,35,0,0,1,6-6.55,60.75,60.75,0,0,1,6.79-5.38,23,23,0,0,1,21-3.24A4.62,4.62,0,0,1,82.73,18.36Z"/><path d="M74.85,56A6.19,6.19,0,0,1,74,57.49C68,63.38,62.25,69.6,54.71,73.66c-2,1.06-3.91,2.16-6.34,2.26.84-.54,1.65-1.13,2.52-1.61A74.6,74.6,0,0,0,69.18,60.22c1.28-1.36,2.6-2.69,3.88-4A1.09,1.09,0,0,1,74.85,56Z"/><path d="M51.13,57c4.38-4.51,8.91-8.9,13.11-13.58A77.21,77.21,0,0,0,74.76,27.79,1.72,1.72,0,0,1,75,30.15l-3.67,6C66.76,43.65,60.51,49.62,54,55.34a28.89,28.89,0,0,1-2.64,1.84Z"/><path d="M55.22,41a10.92,10.92,0,0,1-2.47,5.67A105,105,0,0,1,34.34,66.26a5.75,5.75,0,0,1-2.43,1.13A136,136,0,0,0,55.22,41Z"/><path d="M85.24,23c1.83,1.74,1.17,3.34.77,4.61-2.24,7.1-5.09,13.9-10.52,19.27a1.11,1.11,0,0,1-.84.29c.77-2.15,2.31-3.78,3.47-5.65a53.64,53.64,0,0,0,3.16-5.7,53.11,53.11,0,0,0,2.4-6.33C84.3,27.46,84.67,25.39,85.24,23Z"/><path d="M48.6,40.22C52.49,31.9,59.5,26.5,66.34,20.93c.92.69.69,1.21.16,1.68-.87.78-1.73,1.59-2.66,2.29A65.18,65.18,0,0,0,51,37.72c-.69.92-1.33,1.89-2,2.83Z"/><path d="M75.12,50.73A73.77,73.77,0,0,1,81,43.18C81.23,45.72,78.06,49.59,75.12,50.73Z"/><path d="M49,65.55c-.09.41,0,1-.29,1.18-2.4,1.64-4.61,3.61-7.44,4.49L41,70.79l7.47-5.61Z"/><path d="M67.53,56.94c0,.41.17.94,0,1.2A24.92,24.92,0,0,1,60.78,64l-.35-.38,6.64-6.74Z"/><path d="M83.18,18.86c-.12,2.3-1.75,3.69-4.8,4.44A19.77,19.77,0,0,1,83.18,18.86Z"/><path d="M59.87,54.87a9,9,0,0,1-4.17,4.56C55.87,57.79,58.2,55.23,59.87,54.87Z"/><path d="M73.48,127.37a17.61,17.61,0,0,1,.09-5.57,106.19,106.19,0,0,1,4.08-17.31A61.46,61.46,0,0,1,81.48,94a62.56,62.56,0,0,1,4.39-6.49l.45.28a6.37,6.37,0,0,1-.54,1.15A40.14,40.14,0,0,0,79.2,104c-1.06,5-3.09,9.84-3.63,15-.23,2.26-.49,4.51-.68,6.76C74.81,126.81,74.86,126.81,73.48,127.37Z"/><path d="M90.81,127.27c2.22-2.38,4.58-4.65,6.61-7.18A82.06,82.06,0,0,0,103,112c1.72-2.79,3.28-5.68,4.77-8.61s2.72-5.82,4.07-8.74l.46.09c.1.38.36.82.26,1.15a19.74,19.74,0,0,1-1.22,3.54c-3.08,6.23-6.13,12.49-10.22,18.15a34.91,34.91,0,0,1-7.6,8.21,27.63,27.63,0,0,0-2.21,2Z"/><path d="M104.73,101.9a2.33,2.33,0,0,1,.06-.88c4-8.83,6.63-18.17,10-27.25,0-.09.27-.09.58-.18a2.05,2.05,0,0,1,.14,2.11c-1.64,5-3.23,10-5,14.89-1.11,3.16-2.41,6.26-3.71,9.35a12.48,12.48,0,0,1-1.53,2.21Z"/><path d="M97.78,98.3c2.18-5.89,4.39-11.77,6.52-17.68.89-2.47,1.6-5,2.38-7.52.21-.69.38-1.47,1.33-1.19.77.23.74.86.51,1.54-.75,2.13-1.4,4.29-2.2,6.4-1.82,4.8-3.69,9.58-5.56,14.36-.61,1.57-1.12,3.21-2.45,4.36Z"/><path d="M85.59,120.47c2.53-5.34,5.84-10.34,7-16.28l.55,0c.22.39.66.8.64,1.18a8.9,8.9,0,0,1-.54,2.25,50.15,50.15,0,0,1-5.44,11.34A13.53,13.53,0,0,1,86,120.82Z"/><path d="M92.71,95.53c0-3.33,2.08-10.37,3.1-11.5.18.13.52.28.51.39A34.26,34.26,0,0,1,92.71,95.53Z"/><path d="M86.3,129.89c-.09-.35-.37-.88-.25-1A35.68,35.68,0,0,1,90.48,125c-.52,2.26-2.3,3.5-3.6,5.1Z"/><path d="M93.66,67.16l1.19-1.68.35.23-1.08,1.74Z"/></svg>