<svg xmlns="http://www.w3.org/2000/svg" viewBox="0 0 150 150"><defs><style>.a{fill:#fdfac7;}.b{fill:#fdf8bd;}.c{fill:#fcf6aa;}.d{fill:#faf17e;}.e{fill:#faf179;}.f{fill:#faf287;}.g{fill:#fbf5a0;}.h{fill:#fdfbd6;}.i{fill:#f8dca2;}.j{fill:#fbf5a9;}.k{fill:#fbf59b;}.l{fill:#fffded;}.m{fill:#f7bb80;}.n{fill:#f1b45f;}.o{fill:#f0af3e;}.p{fill:#f1af3d;}.q{fill:#f1af44;}.r{fill:#f1b66a;}.s{fill:#f4b876;}.t{fill:#f1b350;}.u{fill:#f1ae60;}.v{fill:#ed7a25;}.w{fill:#e97817;}.x{fill:#e9781b;}.y{fill:#f07b2f;}.z{fill:#ed7921;}.aa{fill:#e97517;}.ab{fill:#e87417;}.ac{fill:#e87519;}.ad{fill:#e8771d;}.ae{fill:#ed7a26;}.af{fill:#f5893e;}.ag{fill:#f58c41;}.ah{fill:#ee832c;}.ai{fill:#ef811d;}.aj{fill:#ee801d;}.ak{fill:#ee8020;}.al{fill:#ef8027;}.am{fill:#ee8331;}.an{fill:#f5a15c;}.ao{fill:#ee9942;}.ap{fill:#ef972c;}.aq{fill:#ee952a;}.ar{fill:#ee952f;}.as{fill:#ee9a4b;}.at{fill:#f29e55;}.au{fill:#fbd2a8;}.av{fill:#f7cc7e;}.aw{fill:#f5c74e;}.ax{fill:#f7ce8c;}.ay{fill:#f6ce9c;}.az{fill:#f58d43;}.ba{fill:#f59c53;}.bb{fill:#ee9745;}.bc{fill:#f2994d;}.bd{fill:#ee973d;}.be{fill:#f9dda1;}.bf{fill:#f1ae5f;}.bg{fill:#ffe9d8;}.bh{fill:#fde29f;}.bi{fill:#fde5b3;}.bj{fill:#ffe7c6;}</style></defs><title>icon</title><path class="a" d="M18.14,93.82h0a19.14,19.14,0,0,0,.46,2,27.84,27.84,0,0,0,2.16,5.33,34.45,34.45,0,0,0,2.17,3.39A25.62,25.62,0,0,0,26,108a22.1,22.1,0,0,0,6.64,4.38h0A22.1,22.1,0,0,1,26,108h0a25,25,0,0,1-3-3.42l0,0h0a34.45,34.45,0,0,1-2.17-3.39h0a27.84,27.84,0,0,1-2.16-5.33h0a19.14,19.14,0,0,1-.46-2m0,0h0M16.72,78.88v.42c0,.33,0,.79.06,1.35s.08,1.28.12,2c0,.37.06.76.09,1.15s.09.87.13,1.3l0,.19h0l0-.19h0c0-.43-.09-.87-.13-1.3h0c0-.39-.06-.78-.09-1.15h0c0-.75-.08-1.44-.12-2h0v0c0-.55,0-1-.06-1.33h0v-.42h0m-1.08-2.65a6.55,6.55,0,0,0,1,2.43h0a6.55,6.55,0,0,1-1-2.43h0m-.12-.63c0,.22.08.43.12.63h0v0c0-.19-.08-.39-.11-.59h0m3.7-18.34h0l-.08.08h0s-.09.2-.27.55h0c-.16.36-.39.82-.67,1.51v0A39.78,39.78,0,0,0,16.33,65h0c0,.19-.1.39-.14.59h0c0-.2.09-.4.14-.59A39.32,39.32,0,0,1,18.2,59.4c.28-.69.51-1.15.67-1.51s.27-.55.27-.55l.08-.08m8.68-8.35-.56.28h0c-.09.07-1.54,1.22-2.93,2.47h0c-.74.66-1.44,1.31-2,1.91h0a7.37,7.37,0,0,0-.47.58h0c.16-.21.33-.43.48-.59.55-.6,1.25-1.25,2-1.91,1.44-1.29,2.93-2.47,2.93-2.47l.56-.28h0m6.6-6.07a19.17,19.17,0,0,1-2.46,3h0a19.17,19.17,0,0,0,2.46-3h0"/><path class="b" d="M46.74,26.15a7.78,7.78,0,0,0-1.61.16,6.86,6.86,0,0,0-2.05.79,7.08,7.08,0,0,0-1.78,1.55c-2.39,3.19-3.59,6.71-4.8,9.82a29.25,29.25,0,0,1-2,4.37A27.44,27.44,0,0,0,36.14,40a37.81,37.81,0,0,0,1.79-4.39c.38-1.15.57-1.89.57-1.89s-.19.74-.57,1.89h0c.38-1.15.57-1.89.57-1.89s-.19.74-.57,1.89A37.11,37.11,0,0,1,36.14,40a27.44,27.44,0,0,1-1.64,2.89,12.73,12.73,0,0,1-2.46,3,16.41,16.41,0,0,1-4.14,3,31,31,0,0,0-5.63,5l-.33.26-.25.38a2.58,2.58,0,0,0-.37.8h0l-.07,0c-.66.59-1.32,1.17-2,1.83l0,0c-.78,2.38-2.11,5.11-3,8.32a31.41,31.41,0,0,0-.89,7v0a18.06,18.06,0,0,0,.22,3,12.68,12.68,0,0,0,1.08,3.06l.1.12,0,0v.07l.09.17c.1,2.16.19,4.24.34,6.27.09.81.19,1.64.28,2.43h0c.11.78.22,1.54.32,2.24l.05.33c.12.8.2,1.49.28,2.1,0,.27.05.51.07.73.09.45.19.9.3,1.34A25.41,25.41,0,0,0,26.06,108a35.31,35.31,0,0,0,6.56,4.44c.5.21,1,.39,1.52.56l-.36-.12.36.12c-.51-.17-1-.35-1.52-.56.62.32,1.23.62,1.84.89a41.36,41.36,0,0,0,7.69,2.58c1.19.29,2.35.53,3.44.72s2.14.36,3.18.56,2.07.36,3.08.59,2,.46,3,.7a73.39,73.39,0,0,1,11.78,3.5c.63.19,1.94,1.67,3.29,3.23s2.76,3.26,3.38,4.06a4.32,4.32,0,0,0,2.12,1.44,4.53,4.53,0,0,0,1.27.18,6,6,0,0,0,1.11-.11A9.66,9.66,0,0,0,82,128.42a49.2,49.2,0,0,1,10.35-9,1.79,1.79,0,0,1,.51-.07,2.28,2.28,0,0,1,.45,0c.31.06.75.17,1.38.26a16,16,0,0,0,1.76.11,14.49,14.49,0,0,0,4.7-.84,21.28,21.28,0,0,0,2.8-1.38,19.25,19.25,0,0,0,2.66-1.86A17.11,17.11,0,0,0,110,112a11.28,11.28,0,0,0,1.35-2.78,5.94,5.94,0,0,0,.29-1.82c0-1.08,0-2.13,0-3.17v-.49a21.53,21.53,0,0,1,.12-2.56,29.8,29.8,0,0,0,1.41-7.6c0-.24,0-.46,0-.68a10.91,10.91,0,0,0-.37-3,2.93,2.93,0,0,0-.88-1.42s0-.05,0-.08c.32-1.21,3.12-1,4-2.46a4.07,4.07,0,0,0,.33-1.64,7.3,7.3,0,0,0-2-4.57l-.27-.34c-.17.24-.36.48-.56.71a18.18,18.18,0,0,1-4.92,2.94,13.47,13.47,0,0,1-4.92,1.09,6.3,6.3,0,0,1-.79,0c-1-.11-2-.26-2.9-.45a5.3,5.3,0,0,0-1.51,2.07,2.82,2.82,0,0,0-.12.87,14.43,14.43,0,0,0,.43,2.59,6.42,6.42,0,0,1,.1,1A1.7,1.7,0,0,1,98,92a.78.78,0,0,1,.26-.06c.16,0,.22.09.22.26a1.43,1.43,0,0,1-.09.44,7.26,7.26,0,0,1-1.13,2c-.78,1.09-1.73,2-2.06,2-.08,0-.13-.05-.13-.17a.34.34,0,0,1,0-.09.25.25,0,0,1-.17,0,3.87,3.87,0,0,1-1.65-.54l-.12-.09.16.56a7.46,7.46,0,0,0,.39,1l0,0,0,.06,0,0,0,0v0h0l0,0v0l0,0h0v0h0l0,0a4.37,4.37,0,0,0-.28-.4l-.17-.23-.08-.08,0,0c-.19-.22-.42-.47-.72-.78l-.36-.34-.41-.38c-.25-.23-.55-.49-.88-.77l-.06-.05-.66-.54-.67-.54-1.52-1.17-.64-.48L87,91.52l-1-.7-.74-.54-.78-.56L82.93,88.6l-.8-.57L80.59,87c-1,.89-2.12,1.73-3.09,2.4a10.25,10.25,0,0,1-1.74,3.16h0a1.56,1.56,0,0,1-.67.47h0l0,0h0v-.17h0l0-1.08,0-1a2.39,2.39,0,0,1-.83.24.36.36,0,0,1-.24-.08,5.55,5.55,0,0,1-.77-2.83A3.74,3.74,0,0,1,73.45,87a20.13,20.13,0,0,0,.46-4.42,27.37,27.37,0,0,1,.26-4c.1-.55.31-1.16.47-1.75l-.35,0h0a4,4,0,0,0-.52,0,1.78,1.78,0,0,0-.65.2c-.56.36-.69.83-1.59,1.72-.09.27-.2.58-.31.92a4.52,4.52,0,0,0-.07.48c0,.29,0,.73-.06,1.3,0,.13,0,.27,0,.42,0,.47,0,1,.08,1.58,0,.4.07.81.11,1.22s.13.87.2,1.3c.25,1.84.72,3.8.82,5.74,0,.34,0,.69,0,1a6.61,6.61,0,0,1-1.21,4.17s-.27.35-.79.95A28.28,28.28,0,0,1,68,100.28a26.8,26.8,0,0,1-9.76,5.86,26.16,26.16,0,0,1-3.54.89,26.88,26.88,0,0,1-3.91.37,19.86,19.86,0,0,1-9-2.16A21.73,21.73,0,0,1,37,101.92a23.78,23.78,0,0,1-2.22-2.35c-.68-.85-1.31-1.75-1.92-2.68a25.9,25.9,0,0,1-3.86-12,12.25,12.25,0,0,0-.46-2.39c-.22-.78-.54-1.77-1-2.88-.22-.57-.48-1.21-.77-1.88s-.61-1.36-1-2.13c0,0,0-.24,0-.68s0-.78,0-1.32v-.39c0-.36,0-.76,0-1.18s.05-.81.1-1.25.1-.9.17-1.37.16-.89.26-1.35a14,14,0,0,1,2-5A7.38,7.38,0,0,1,30,61.41a6,6,0,0,1,2.19-.93l1.77-1.09c1-.56,2.36-1.35,3.78-2.31,2.82-1.93,5.9-4.43,6.55-6.82a13.91,13.91,0,0,0,2.84-.91,5.72,5.72,0,0,0,2.32-1.74c0-.17.1-.32.15-.47L50,46h0a2.92,2.92,0,0,1-.53,1.65c-.18.57-.39,1.26-.62,2a32.55,32.55,0,0,1,3.5-6.07c1.56-2.08,3.16-3.42,4.2-3.42a.92.92,0,0,1,.29,0s.6-.44,1.56-1.07A31,31,0,0,1,62.22,37a18.1,18.1,0,0,1,7-1.82,5.33,5.33,0,0,1,.71,0c-.57-.18-1.16-.38-1.76-.59C64.94,33.49,61.44,31.93,58,30.4c-2.51-1.26-5.47-3.09-8.47-3.86a11.07,11.07,0,0,0-2.82-.39"/><path class="c" d="M32.62,112.39h0c.5.21,1,.39,1.52.56l-.36-.12c-.39-.13-.78-.28-1.16-.44M16.19,65.57h0a31.41,31.41,0,0,0-.89,7h0a31.41,31.41,0,0,1,.89-7h0m3.07-8.35h0l0,0h0l0,0m2.68-3.06h0l-.25.38h0a2.94,2.94,0,0,0-.37.78v0h0a2.58,2.58,0,0,1,.37-.8l.25-.38h0M32,45.88h0a16.41,16.41,0,0,1-4.14,3h0a16.41,16.41,0,0,0,4.14-3h0M38.5,33.67s-.19.74-.57,1.89h0A37.11,37.11,0,0,1,36.14,40h0a27.44,27.44,0,0,1-1.64,2.89h0A27.44,27.44,0,0,0,36.14,40a37.11,37.11,0,0,0,1.79-4.39c.38-1.15.57-1.89.57-1.89"/><path class="b" d="M71.05,35.55c.54.31,1.91,1.08,3.5,1.81.81-.4,1.63-.77,2.47-1.11,1-.12,1.92-.25,2.85-.32l0-.13c-.93.07-1.87.19-2.84.3a10.05,10.05,0,0,1-1.56.11,17.51,17.51,0,0,1-4.45-.66"/><path class="b" d="M32,45.88c-.18.16-.36.32-.56.47-1.28.92-2.47,1.75-3.58,2.56a16.41,16.41,0,0,0,4.14-3"/><path class="b" d="M21.94,54.16c-.32.28-.75.69-1.18,1.13a14.86,14.86,0,0,0-1.49,1.83.93.93,0,0,0,0,.13l0,0c.68-.66,1.33-1.24,2-1.83l.07,0h0a2.48,2.48,0,0,1,.37-.8l.25-.38"/><path class="b" d="M16.19,65.57c-.13.45-.26.91-.37,1.37a21.23,21.23,0,0,0-.66,5.2,16.14,16.14,0,0,0,.36,3.46,18.06,18.06,0,0,1-.22-3v0h0a31.41,31.41,0,0,1,.89-7"/><path class="b" d="M38.5,75.83a13.89,13.89,0,0,0-.81,4.81c0,.24,0,.48,0,.72a16,16,0,0,0,.3,2.47l0,.09c0-.24,0-.48,0-.74s0-.71,0-1.08,0-.52,0-.77a52.91,52.91,0,0,1,.48-5.5"/><path class="b" d="M74,76.76h0"/><path class="b" d="M16.6,78.66l.12.22v-.07l0,0-.1-.12"/><path class="c" d="M16.7,78.78l0,0v.07h0v-.07h0l0,0"/><path class="b" d="M54.07,78.93a10.14,10.14,0,0,0,.76,2.66,7.6,7.6,0,0,0,1.42,2.11c.08-.24.16-.49.22-.73a11.26,11.26,0,0,1-1-1.34c-.2-.32-.4-.65-.58-1a1,1,0,0,1-.08-.11v0q-.41-.75-.75-1.56"/><path class="b" d="M68.59,81h0l-.42.45.43-.46"/><path class="b" d="M67.47,82.15l0,0,0,0h0"/><path class="b" d="M66.89,82.69a1.14,1.14,0,0,1-.11.11l-.15.13.08-.07.18-.16h0"/><path class="b" d="M66.32,83.21l-.06.05-.19.15,0,0,.26-.21,0,0"/><path class="b" d="M91.37,83.45a1,1,0,0,0-.31.7,1.06,1.06,0,0,0,0,.29,9.16,9.16,0,0,0,.27.93l.25,0c0-.36-.07-.72-.11-1.07l0-.44a2,2,0,0,1-.11-.38"/><path class="b" d="M66,83.49l-.19.15.06,0L66,83.5h0"/><path class="b" d="M65.64,83.76l0,0h0l0,0"/><path class="b" d="M83,84.89l-.76.67c1.11.1,2.24.16,3.39.17-.83-.23-1.71-.51-2.63-.84m8.51-1.1v0h0v0"/><path class="b" d="M17.15,85.32a61.33,61.33,0,0,0,1,7.83c0-.22,0-.46-.07-.73-.08-.6-.16-1.3-.28-2.1L17.75,90c-.1-.7-.21-1.46-.32-2.24h0c-.09-.79-.19-1.62-.28-2.43"/><path class="b" d="M91.62,85.34h0l.12,1.33v-.29l-.08-.83,0-.21"/><path class="b" d="M91.78,87.06v0"/><path class="b" d="M81.46,87.55l.52.37.15.11.14.1.66.47,1.38,1-1.17-.84-1.68-1.19"/><path class="b" d="M91.9,88.18l.06.56.05.42v.09l0,.44,0-.42h0l-.12-1.09"/><path class="b" d="M77.5,89.35l-.1.07-.57,1.34a5.15,5.15,0,0,1-1,1.62,1.61,1.61,0,0,1-.45.33l-.23.08-.08,0h0V93h0l0,0h0a1.56,1.56,0,0,0,.67-.47h0a10.25,10.25,0,0,0,1.74-3.16"/><path class="b" d="M92.05,89.53l.09.8,0,.09v-.07l-.07-.57,0-.25"/><path class="b" d="M86.28,89.6a1.61,1.61,0,0,0-.53.35,1.85,1.85,0,0,1-.45.3h-.06l1.2.88.08.05.1.07.26.2h0c.51.37,1,.71,1.35,1l.15.12.29.22c.62.47,1.12.87,1.54,1.22l.08.06.31.26.59.5h0l.06.05,0,0,.13.11.31.28.53.49A11.64,11.64,0,0,1,93.33,97l.18.23.09.12.1.14,0,.06h0l0,0,0-.1h0v0l0,0,0-.09a8.42,8.42,0,0,1-.42-1.19,1.82,1.82,0,0,1-.07-.25A6.35,6.35,0,0,1,92,94.92C91,93,88.28,91.26,86.3,89.6h0"/><path class="b" d="M86.79,91.38l.18.14.08.06.2.15.49.36-.86-.64-.09-.07"/><path class="b" d="M87.75,92.1l.14.11.39.29,1,.75-.58-.45-.44-.34-.48-.36"/><path class="b" d="M92.54,93.11c0,.09,0,.19,0,.28s.06.33.09.48c0-.24-.09-.49-.13-.76"/><path class="b" d="M89.29,93.29l.12.09.08.06-.2-.15"/><path class="b" d="M89.57,93.5l.7.57-.06,0-.64-.52"/><path class="b" d="M92.61,93.56c.11.62.21,1.1.31,1.52l0-.1c-.06-.24-.12-.51-.17-.81s-.08-.4-.12-.61"/><path class="b" d="M56.66,94.15l-.38.16a16.18,16.18,0,0,1-5.54,1.25l-.55,0-.64,0a12.29,12.29,0,0,0,1.49.09,13.86,13.86,0,0,0,4.86-.91,9.26,9.26,0,0,0,.76-.59"/><path class="b" d="M90.69,94.41l0,0,.21.17-.26-.22"/><path class="b" d="M91.15,94.8l.12.11h0l-.07-.06,0,0"/><path class="b" d="M91.64,95.24l0,0,.23.2-.27-.24"/><path class="b" d="M91.91,95.49l.54.51c.27.27.48.51.65.7-.22-.25-.49-.54-.85-.9l-.34-.31"/><path class="b" d="M93.45,96.91l.13.32v0l-.12-.29"/><path class="b" d="M93.45,97.12a4.73,4.73,0,0,1,.27.4h0l0-.06-.19-.26-.06-.09"/><path class="b" d="M93.64,97.36l0,0h0v0h0"/><path class="b" d="M93.7,97.46h0v0h0v0"/><path class="b" d="M93.74,97.55h0v0"/><path class="d" d="M65.22,83.38l0,0a3,3,0,0,0,.4.4l0,0a3.76,3.76,0,0,1-.38-.41"/><path class="d" d="M65.79,83.64l-.12.09,0,0,.15-.12"/><path class="e" d="M63.94,58.31A25,25,0,0,0,61.05,61a30.51,30.51,0,0,0-5.47,8.62A20.19,20.19,0,0,0,54,75.53,14.28,14.28,0,0,0,53.92,77a12.58,12.58,0,0,0,.15,1.94q.34.81.75,1.56a10.66,10.66,0,0,1-.22-2.12h0a11.47,11.47,0,0,1,.25-2.24,9.24,9.24,0,0,1,1.88-3.89c.52-1.23.82-2.17,1.12-3A7.44,7.44,0,0,1,59,66.84c1.28-1.16.69-3,3-3.51,1.58-.65,2.2-1.41,2.21-2.89a11.32,11.32,0,0,0-.27-2.13M79.87,35.93c-.93.07-1.88.2-2.85.32-.84.34-1.66.71-2.47,1.11l.3.13a14,14,0,0,0,4.29,1.28,26.17,26.17,0,0,0,.73-2.84"/><path class="e" d="M54.91,80.64c.18.34.38.67.58,1a11.26,11.26,0,0,0,1,1.34c0-.19.08-.37.11-.56-.26-.25-.24-.93-.75-1.07a1.59,1.59,0,0,1-.92-.7"/><path class="e" d="M65.17,83.41c-1,.66-2,1.35-3.08,2l.28-.06a9.62,9.62,0,0,0,1.57-.48l.18-.11.07,0,.22-.13.09-.06.29-.19.17-.11.64-.48.25-.2-.06,0-.15.12,0,0h0l0,0a3,3,0,0,1-.4-.4"/><path class="e" d="M65.65,83.75l-.05,0-.58.43h0c.18-.13.39-.28.61-.46"/><path class="e" d="M64.32,84.69l-.13.07,0,0,0,0-.18.11h0l.05,0,.33-.19"/><path class="e" d="M64.12,84.83h0l-.05,0,0,0h0"/><path class="d" d="M63.71,85l-.11,0,.1,0h0l-.07,0,0,0h.05"/><path class="e" d="M63.68,85h0"/><path class="d" d="M63.6,85.08h0"/><polyline class="e" points="63.59 85.09 63.59 85.09 63.57 85.1 63.58 85.09 63.59 85.09"/><path class="f" d="M63.71,85h0l0,0h0l.12-.06h0m.36-.18.05,0h0l0,0h0M69.23,35.2a18.1,18.1,0,0,0-7,1.82,31,31,0,0,0-3.86,2.12c-1,.63-1.56,1.07-1.56,1.07a.92.92,0,0,0-.29,0c-1,0-2.64,1.34-4.2,3.42a32.55,32.55,0,0,0-3.5,6.07c-.05.18-.11.36-.16.55-.73,2.51-1.51,5.75-2.24,8.85a58.39,58.39,0,0,1-2.47,8.56c-1,2.54-2.17,4.6-3.64,5.06,0,0-.15.16-.4.48a8.38,8.38,0,0,0-.9,1.52,9.86,9.86,0,0,0-.5,1.15,52.91,52.91,0,0,0-.48,5.5c0,.25,0,.51,0,.77s0,.75,0,1.08,0,.5,0,.74a18.88,18.88,0,0,0,.77,2.63A15.33,15.33,0,0,0,42.34,92a12.84,12.84,0,0,0,6.13,3.42c.36.07.72.14,1.08.18l.64,0,.55,0a16.18,16.18,0,0,0,5.54-1.25l.38-.16c.29-.23.63-.54,1-.9a37.88,37.88,0,0,0,3.61-3.89c1.27-1.55,2.5-3.29,3.66-4.7.29-.36.58-.68.87-1s.29-.29.43-.42l0,0-.26.21-.38.31c-.22.18-.43.33-.61.46h0l-.1.07,0,0h0l-.55.37-.33.19-.05,0h0a9.62,9.62,0,0,1-1.57.48l-.28.06c-1.24.78-2.58,1.57-4.05,2.37a3.66,3.66,0,0,1-1.43.41h-.33a1.15,1.15,0,0,1-.82-.22,1.22,1.22,0,0,1-.3-.86h0a13.24,13.24,0,0,1,1.09-3.46,7.6,7.6,0,0,1-1.42-2.11,10.14,10.14,0,0,1-.76-2.66A12.58,12.58,0,0,1,53.92,77,14.28,14.28,0,0,1,54,75.53a20.19,20.19,0,0,1,1.58-5.88A30.51,30.51,0,0,1,61.05,61a25,25,0,0,1,2.89-2.72c-.08-.35-.16-.74-.26-1.15a13.86,13.86,0,0,1-.26-2c0-.39-.06-.82-.09-1.26,0-.16,0-.32,0-.5h0a4.1,4.1,0,0,1,.18-1.16A9.87,9.87,0,0,1,65,49.32a14.57,14.57,0,0,1,3.67-3.57,28.9,28.9,0,0,1,4.3-2.32,19.27,19.27,0,0,0,2.48-1.24,7.84,7.84,0,0,1,1.53-1,5,5,0,0,0,.83-.47,2.5,2.5,0,0,0,1.1-1.24h0c.09-.23.18-.47.27-.73a14,14,0,0,1-4.29-1.28l-.3-.13c-1.59-.73-3-1.5-3.5-1.81l-.25-.14a3.64,3.64,0,0,0-.86-.17,5.33,5.33,0,0,0-.71,0"/><path class="f" d="M68.05,81.57l0,0-.54.55h0l0,0-.55.51h0l-.18.16c.41-.36.85-.79,1.34-1.29"/><path class="f" d="M65,84.27l-.17.11.08-.06,0,0,0,0"/><path class="f" d="M64.5,84.57l-.09.06,0,0,0,0"/><path class="g" d="M50,46l-.38,1.18c0,.15-.1.3-.15.47A2.92,2.92,0,0,0,50,46"/><path class="g" d="M49.43,47.61a5.72,5.72,0,0,1-2.32,1.74,13.91,13.91,0,0,1-2.84.91c-.65,2.39-3.73,4.89-6.55,6.82-1.42,1-2.78,1.75-3.78,2.31l-1.77,1.09a6,6,0,0,0-2.19.93,7.38,7.38,0,0,0-1.68,1.71,14,14,0,0,0-2,5c-.1.46-.19.91-.26,1.35s-.13.94-.17,1.37-.08.86-.1,1.25,0,.82,0,1.18v.39q0,.81,0,1.32c0,.44,0,.68,0,.68.37.77.7,1.48,1,2.13s.55,1.31.77,1.88c.43,1.11.75,2.1,1,2.88A12.25,12.25,0,0,1,29,84.93a25.9,25.9,0,0,0,3.86,12c.61.93,1.24,1.83,1.92,2.68A23.78,23.78,0,0,0,37,101.92a21.73,21.73,0,0,0,4.76,3.32,19.86,19.86,0,0,0,9,2.16,26.88,26.88,0,0,0,3.91-.37,26.16,26.16,0,0,0,3.54-.89A26.8,26.8,0,0,0,68,100.28a28.28,28.28,0,0,0,2.34-2.43c.52-.6.79-.95.79-.95a6.61,6.61,0,0,0,1.21-4.17c0-.33,0-.68,0-1-.1-1.94-.57-3.9-.82-5.74-.07-.43-.13-.87-.2-1.3s-.07-.82-.11-1.22c-.05-.59-.08-1.11-.08-1.58,0-.15,0-.29,0-.42,0-.57,0-1,.06-1.3a4.52,4.52,0,0,1,.07-.48c.11-.34.22-.65.31-.92a15.84,15.84,0,0,1-2,1.6l-.91.64-.43.46,0,0-.06.07a22.8,22.8,0,0,1-1.78,1.67l0,0h0l0,0,0,0c-.14.13-.29.27-.43.42s-.58.62-.87,1c-1.16,1.41-2.39,3.15-3.66,4.7a37.88,37.88,0,0,1-3.61,3.89c-.39.36-.73.67-1,.9a9.26,9.26,0,0,1-.76.59,13.86,13.86,0,0,1-4.86.91,12.29,12.29,0,0,1-1.49-.09c-.36,0-.72-.11-1.08-.18A12.84,12.84,0,0,1,42.34,92a15.33,15.33,0,0,1-3.54-5.41A18.88,18.88,0,0,1,38,83.92l0-.09a16,16,0,0,1-.3-2.47c0-.24,0-.48,0-.72a13.89,13.89,0,0,1,.81-4.81,9.86,9.86,0,0,1,.5-1.15,8.38,8.38,0,0,1,.9-1.52c.25-.32.4-.48.4-.48,1.47-.46,2.62-2.52,3.64-5.06a58.39,58.39,0,0,0,2.47-8.56c.73-3.1,1.51-6.34,2.24-8.85.05-.19.11-.37.16-.55.23-.79.44-1.48.62-2"/><path class="g" d="M66.27,83.24l-.08.07-.21.18h0l-.11.09-.25.2.05,0,.38-.31,0,0,.14-.11.06-.06"/><path class="g" d="M65.6,83.79l-.64.48,0,0,.1-.07.58-.43"/><path class="g" d="M64.92,84.29l0,0h0l0,0"/><path class="g" d="M64.87,84.32l-.08.06-.29.19,0,0-.27.16.13-.07.55-.37"/><path class="g" d="M64.19,84.76l-.07,0,0,0,0,0"/><path class="g" d="M64.12,84.8l-.18.11h0l.18-.11"/><path class="h" d="M74.64,76.81c-.16.59-.37,1.2-.47,1.75a27.37,27.37,0,0,0-.26,4A20.13,20.13,0,0,1,73.45,87a3.74,3.74,0,0,0-.16,1.14,5.55,5.55,0,0,0,.77,2.83.36.36,0,0,0,.24.08,2.39,2.39,0,0,0,.83-.24l.05-1c0-1.1.1-2.18.14-3.24,0-.56.06-1.09.08-1.6,0-1.24.11-2.47.16-3.71a4.1,4.1,0,0,1-.76-.59c-.14-.12-.19-.2-.19-.26h0c0-.12.17-.17.17-.32v0h0a.61.61,0,0,1-.19-.38h0a.39.39,0,0,1,.08-.21l-.38-.26h0l.29,0h.23a.43.43,0,0,0,0-.11.52.52,0,0,0,0-.11.71.71,0,0,1,0-.14h0c0-.19.1-.27.28-.27a1.83,1.83,0,0,1,.58.15l0,0c0-.56,0-1.12.07-1.68v0l-.86-.14h-.1l-.13,0"/><path class="h" d="M96.94,82.9a.78.78,0,0,1,0,.22,1.4,1.4,0,0,1-.15.6l.05.09c.25.37.6.79.91,1.18.16.18.28.4.42.53l.17.18.08.06,0,0h0l-.25-.12-.62-.28-1.5-.68a3.31,3.31,0,0,0-.46.69c-.19.29-.7.44-1.11.7A6.61,6.61,0,0,0,94,87.47a1.22,1.22,0,0,1-1.27.76h0l-.84,0c0,.36.09.73.13,1.09l0,.42,0,.23.12,1c.13,1,.25,1.83.36,2.51,0-.09,0-.19,0-.28h0c0,.27.09.52.13.76s.13.66.19.93l0,.17c.07.31.14.59.21.83l.12.09a3.87,3.87,0,0,0,1.65.54.25.25,0,0,0,.17,0h0a.34.34,0,0,0,0,.09c0,.12,0,.17.13.17.33,0,1.28-.93,2.06-2a7.26,7.26,0,0,0,1.13-2,1.43,1.43,0,0,0,.09-.44c0-.17-.06-.26-.22-.26A.78.78,0,0,0,98,92h0a1.7,1.7,0,0,0,1-1.73,6.42,6.42,0,0,0-.1-1,14.43,14.43,0,0,1-.43-2.59,2.82,2.82,0,0,1,.12-.87A5.3,5.3,0,0,1,100,83.66c-1.05-.21-2.08-.47-3.1-.76"/><path class="h" d="M91.45,83.51v.09l0,.23h0v-.15l0-.17"/><path class="h" d="M80.05,83.62c-.26.49-.52,1-.78,1.56l.71.11q1.09.17,2.22.27l.76-.67c-.26-.09-.53-.19-.79-.3-.66-.26-1.37-.6-2.12-1"/><path class="h" d="M75.4,85c0,.51-.05,1-.08,1.6,0,1-.09,2.12-.14,3.22l.2-4.4,0-.42"/><path class="i" d="M75.4,85c0,.51-.05,1-.08,1.6h0v.19c0,1-.09,2-.14,3h0c0-1.1.1-2.17.14-3.22,0-.56.06-1.09.08-1.6h0"/><path class="h" d="M91.62,85.34h0l0,.21.08.83-.1-1m0-.26,0,.26h0l0-.26"/><path class="h" d="M79,85.82c-.35.74-.69,1.52-1,2.31-.15.45-.3.86-.45,1.22,1-.67,2-1.51,3.09-2.4L79,85.82"/><path class="h" d="M81.19,87.37l.07,0,.14.1.06,0,1.68,1.19,1.17.84.53.38.08.06,0,0,.27.19h.06a1.85,1.85,0,0,0,.45-.3,1.61,1.61,0,0,1,.53-.35h0C88.28,91.26,91,93,92,94.92a6.35,6.35,0,0,0,1.13.88,1.82,1.82,0,0,0,.07.25c-.09-.31-.18-.66-.28-1.08v-.06c0-.23-.1-.47-.15-.74,0,.3.11.57.17.81l0,.1h0c-.1-.42-.2-.9-.31-1.52s-.26-1.64-.42-2.84l-.09-.8,0-.14.07.57v.07h0l0-.09-.09-.8,0-.23,0-.2V89l-.09-.79c-3.08-.19-5.83-.49-8.24-.68-.54,0-1.35,0-2.22,0l-.15,0-.06,0,0,0h0"/><path class="h" d="M78,88.13c-.18.43-.36.86-.55,1.29l.1-.07c.15-.36.3-.77.45-1.22"/><path class="h" d="M84.5,89.72l.78.56L84.92,90l-.42-.3m7.46-1,0,.36,0,.15v-.09L92,88.74"/><path class="h" d="M86,90.82l1,.7-.18-.14L86,90.82"/><path class="h" d="M86.44,91.13l.18.12-.1-.07-.08-.05"/><path class="h" d="M87,91.52l.28.21-.2-.15L87,91.52"/><path class="h" d="M87.25,91.73l.64.48-.14-.11h0l-.49-.36"/><path class="h" d="M87.89,92.21l1.52,1.17-.12-.09,0,0-1-.75-.39-.29"/><path class="h" d="M89.41,93.38l.67.54.66.54,0,0-.42-.34-.7-.57-.08-.06-.08-.06"/><path class="h" d="M90.29,94.08l.31.26-.31-.26"/><path class="h" d="M90.74,94.46l.06.05c.33.28.63.54.88.77l0,0-.37-.33-.12-.11-.2-.17-.21-.17"/><path class="h" d="M91.28,94.92l.13.11-.13-.11"/><path class="h" d="M91.68,95.28l.41.38.36.34-.54-.51h0l-.23-.2"/><path class="h" d="M92.45,96c.3.31.53.56.72.78l-.07-.08c-.17-.19-.38-.43-.65-.7"/><path class="h" d="M93.27,96.89l.17.23h0l-.17-.22m0-.53.17.49,0,.06.12.29v0l0,.07,0,.06h0a7.46,7.46,0,0,1-.39-1"/><path class="h" d="M93.33,97l.11.13h0l.06.09L93.33,97"/><path class="h" d="M93.59,97.24l0,.09v0l0-.06m-.08,0,.19.26-.1-.14-.09-.12"/><path class="h" d="M93.65,97.37v0l0,0,0,0"/><path class="h" d="M93.66,97.39l0,.1v0h0a.43.43,0,0,1,0-.07"/><path class="h" d="M93.7,97.47l0,.06h0v0l0,0h0l0-.06"/><path class="h" d="M93.71,97.49l0,0v0h0"/><path class="h" d="M93.73,97.52l0,0h0v0h0v0l0,0"/><path class="a" d="M27.9,48.91l-.56.28s-1.49,1.18-2.93,2.47c-.74.66-1.44,1.31-2,1.91-.15.16-.32.38-.48.59h0a7.37,7.37,0,0,1,.47-.58h0c.55-.6,1.25-1.25,2-1.91h0c1.39-1.25,2.84-2.4,2.93-2.47h0l.56-.28h0m6.6-6.07a19.17,19.17,0,0,1-2.46,3h0a19.17,19.17,0,0,0,2.46-3h0"/><path class="j" d="M21.94,54.16h0l-.25.38a2.48,2.48,0,0,0-.37.8h0v0a2.94,2.94,0,0,1,.37-.78h0l.25-.38M32,45.88h0a16.41,16.41,0,0,1-4.14,3h0a16.41,16.41,0,0,0,4.14-3M38.5,33.67s-.19.74-.57,1.89A37.81,37.81,0,0,1,36.14,40a27.44,27.44,0,0,1-1.64,2.89h0A27.44,27.44,0,0,0,36.14,40h0a37.81,37.81,0,0,0,1.79-4.39h0c.38-1.15.57-1.89.57-1.89"/><path class="k" d="M21.69,54.54a2.94,2.94,0,0,0-.37.78,2.94,2.94,0,0,1,.37-.78m.72-1a7.37,7.37,0,0,0-.47.58l-.25.38.25-.38a7.37,7.37,0,0,1,.47-.58m4.93-4.39c-.09.07-1.54,1.22-2.93,2.47,1.39-1.25,2.84-2.4,2.93-2.47M37.93,35.56A37.81,37.81,0,0,1,36.14,40a37.11,37.11,0,0,0,1.79-4.39"/><path class="k" d="M21.25,55.39c-.66.59-1.31,1.17-2,1.83.67-.66,1.33-1.24,2-1.83"/><path class="k" d="M19.26,57.22l0,0h0l0,0"/><path class="a" d="M19.22,57.26l-.08.08s-.09.2-.27.55-.39.82-.67,1.51A39.32,39.32,0,0,0,16.33,65c0,.19-.1.39-.14.59h0c0-.2.09-.4.14-.59h0a39.78,39.78,0,0,1,1.86-5.55v0c.28-.69.51-1.15.67-1.51h0c.18-.35.27-.55.27-.55h0l.08-.08h0"/><path class="k" d="M18.19,59.43A39.78,39.78,0,0,0,16.33,65a39.78,39.78,0,0,1,1.86-5.55m.95-2.09s-.09.2-.27.55c.18-.35.27-.55.27-.55m.08-.08-.08.08.08-.08"/><path class="a" d="M15.52,75.6c0,.2.07.4.11.59v0h0c0-.2-.09-.41-.12-.63h0"/><path class="k" d="M15.3,72.63a18.06,18.06,0,0,0,.22,3c0,.2.07.4.11.59,0-.19-.08-.39-.11-.59a18.06,18.06,0,0,1-.22-3m0,0h0"/><path class="k" d="M15.64,76.23a6.55,6.55,0,0,0,1,2.43l.1.12-.1-.12a6.55,6.55,0,0,1-1-2.43"/><path class="a" d="M16.72,78.88v.42h0c0,.32,0,.78.06,1.33v0h0c0,.59.08,1.28.12,2h0c0,.37.06.76.09,1.15h0c0,.43.09.87.13,1.3h0l0,.19h0l0-.19c0-.43-.09-.87-.13-1.3s-.06-.78-.09-1.15c0-.75-.08-1.44-.12-2s0-1-.06-1.35v-.42h0"/><path class="j" d="M17.15,85.32h0c.09.81.19,1.64.28,2.43h0c-.09-.79-.19-1.62-.28-2.43h0m-.45-6.54,0,0h0v.07h0v-.07l0,0"/><path class="k" d="M17,83.83c0,.43.09.87.13,1.3,0-.43-.09-.87-.13-1.3m-.21-3.18c0,.59.08,1.28.12,2,0-.75-.08-1.44-.12-2m-.06-1.35c0,.32,0,.78.06,1.33,0-.55,0-1-.06-1.33m0-.49v0"/><path class="k" d="M17.43,87.75c.11.78.22,1.54.32,2.24-.1-.7-.21-1.46-.32-2.24"/><path class="k" d="M18.08,92.42c0,.27.05.51.07.73s0,.25,0,.36h0c0-.11,0-.23,0-.36s0-.46-.07-.73m-.28-2.1c.12.8.2,1.5.28,2.1-.08-.61-.16-1.3-.28-2.1M17.75,90l.05.33L17.75,90"/><path class="k" d="M18.16,93.51a1.47,1.47,0,0,1,0,.31h0a1.47,1.47,0,0,0,0-.31m0,0h0"/><path class="a" d="M18.14,93.82h0a19.14,19.14,0,0,0,.46,2h0a27.84,27.84,0,0,0,2.16,5.33h0a34.45,34.45,0,0,0,2.17,3.39h0l0,0A25.61,25.61,0,0,0,26,108h0a22.1,22.1,0,0,0,6.64,4.38h0A22.1,22.1,0,0,1,26,108a25.62,25.62,0,0,1-3.05-3.47,34.45,34.45,0,0,1-2.17-3.39,27.84,27.84,0,0,1-2.16-5.33,19.14,19.14,0,0,1-.46-2"/><path class="j" d="M32.62,112.39h0c.38.16.77.31,1.16.44l.36.12c-.51-.17-1-.35-1.52-.56h0"/><path class="k" d="M26,108a22.1,22.1,0,0,0,6.64,4.38c.38.16.77.31,1.16.44-.39-.13-.78-.28-1.16-.44A22.1,22.1,0,0,1,26,108m-3-3.42A25,25,0,0,0,26,108a25.61,25.61,0,0,1-3-3.42m-2.21-3.44a34.45,34.45,0,0,0,2.17,3.39,34.45,34.45,0,0,1-2.17-3.39m-2.62-7.33h0m0,0h0a19.14,19.14,0,0,0,.46,2,19.14,19.14,0,0,1-.46-2"/><path class="l" d="M96.58,82.79a.16.16,0,0,0,0,.07l.06-.06h0"/><path class="l" d="M91.78,87.06h0v.1h0v-.1h0m0-4.27a1.65,1.65,0,0,1-.43.66,2,2,0,0,0,.11.38v-.32h0l0,.17v.16a3.32,3.32,0,0,0,.49.85.37.37,0,0,1,.11.24c0,.17-.16.32-.37.4h-.09l.11,1.22v.11h0l-.12-1.33-.25,0a1.1,1.1,0,0,1,.06.33h0a.26.26,0,0,1-.13.25,5.14,5.14,0,0,1-2,.35,14.71,14.71,0,0,1-3.69-.57A41,41,0,0,1,80,85.29l-.71-.11c-.1.21-.2.42-.29.64L82.13,88,82,87.92l-.52-.37-.06,0-.14-.1-.07,0h0l0,0,.06,0,.15,0c.87,0,1.68,0,2.22,0,2.41.19,5.16.49,8.24.68L92,89v.13l0-.36-.06-.56h0l.84,0h0A1.22,1.22,0,0,0,94,87.47a6.61,6.61,0,0,1,.54-1.37c.41-.26.92-.41,1.11-.7a3.31,3.31,0,0,1,.46-.69l-2.58-1.15-1.75-.77"/><path class="l" d="M96.6,82.8l-.06.06a.51.51,0,0,0,0,.13,1.56,1.56,0,0,0,.3.73,1.4,1.4,0,0,0,.15-.6.78.78,0,0,0,0-.22l-.34-.1"/><path class="l" d="M91.48,83.84h0m0,0,0,.44c0,.35.07.71.11,1.07h0l0-.26-.12-1.24h0"/><path class="l" d="M82.13,88l.8.57-.66-.47-.14-.1"/><path class="l" d="M82.93,88.6l1.57,1.12.42.3L84.84,90l-.53-.38-1.38-1"/><path class="l" d="M92,89.1l0,.2,0,.23,0,.25,0,.14,0-.23c0-.19,0-.39-.07-.59"/><path class="l" d="M92.1,89.92l.09.8c.16,1.2.29,2.1.42,2.84,0,.21.08.42.12.61s.1.51.15.74V95l0-.17c-.06-.27-.12-.58-.19-.93-.14-.76-.29-1.72-.45-3l-.12-1"/><path class="l" d="M84.92,90l.36.26.74.54.77.56.09.07-.44-.32-1.2-.88L85,90.06l0,0"/><path class="l" d="M86.88,91.45l.86.64h0l.48.36c-.4-.3-.84-.64-1.35-1h0"/><path class="l" d="M88.23,92.46l.44.34-.29-.22-.15-.12"/><path class="l" d="M88.67,92.8l.58.45,0,0,.2.15.08.06.64.52c-.42-.35-.92-.75-1.54-1.22"/><path class="l" d="M90.21,94l.06,0,.42.34.26.22.2.17,0,0c-.26-.23-.56-.48-.9-.76L90.21,94"/><path class="l" d="M91.19,94.84l.07.06-.06-.05h0"/><path class="l" d="M91.26,94.9h0l.37.33.27.24h0l.34.31-.53-.49-.44-.39,0,0"/><path class="l" d="M92.89,95c.1.42.19.77.28,1.08a8.42,8.42,0,0,0,.42,1.19l0,.06,0-.07-.13-.32,0-.06-.17-.49-.16-.56c-.07-.24-.14-.52-.21-.83"/><path class="l" d="M92.25,95.8c.36.36.63.65.85.9l.07.08,0,0,.08.08.17.22L93.33,97a11.64,11.64,0,0,0-1.08-1.18"/><path class="l" d="M93.44,97.11c.12.16.21.3.28.41a4.73,4.73,0,0,0-.27-.4h0"/><path class="l" d="M93.62,97.3l0,.06v0l0,0,0-.06"/><path class="l" d="M93.66,97.39h0a.43.43,0,0,0,0,.07v0l0-.06,0,0h0"/><path class="l" d="M93.71,97.48v0h0l0,0h0l0,0,0,0"/><path class="l" d="M93.72,97.52l0,0h0v0h0"/><path class="l" d="M93.75,97.56h0"/><polyline class="l" points="93.76 97.57 93.76 97.58 93.76 97.58 93.78 97.61 93.77 97.59 93.76 97.57"/><path class="l" d="M93.76,97.58h0m0,0v0h0"/><polyline class="l" points="93.77 97.59 93.77 97.6 93.77 97.59"/><path class="m" d="M85.3,26.8a1,1,0,0,0-.71.33l-1.39-.19a20.26,20.26,0,0,0-1.37,2.86c-.68,1.54-.9,2.71-1.14,2.71,0,0-.07,0-.11-.09h0c-.07,0-.24,1.17-.53,2.65,0,.23-.1.48-.15.73.47,0,.93-.06,1.39-.06h.32a1.62,1.62,0,0,1,1.1-.75c.35,0,.68.29,1,1A8.35,8.35,0,0,1,88,38.45a28.07,28.07,0,0,1,3.59,4.84,6.33,6.33,0,0,0-1-2.65,14,14,0,0,1-2.21-4.3,1.1,1.1,0,0,1,0-.18h0c0-.73.61-1.52.61-2.25a.81.81,0,0,0,0-.16c-.39-1.16-.94-2.4-1.37-3.41s-.48-1.77-.72-2c-.47-1-1-1.52-1.57-1.52"/><path class="m" d="M86.68,61.21h0m8-9.76c0,.17.07.34.1.5a2,2,0,0,1,0,.34,1.81,1.81,0,0,1-.25.93,1.1,1.1,0,0,1-.83.65h-.12a6.21,6.21,0,0,1-2.82-1.26c-.45-.28-.91-.57-1.39-.83a4.15,4.15,0,0,1-.19.93A7.12,7.12,0,0,1,87.79,55a6.75,6.75,0,0,0-.7,1,13.59,13.59,0,0,0-1.2,2.81c-.76,2.33-1.81,5.43-3,8.59l2.68,2,2.92,2.15,4.87,3.55c1.54-1.58,3.52-3.22,5.75-5.14,1.57-1.3,3.72-2.61,5.52-4.24-.22-.48-.47-.95-.72-1.41a37.38,37.38,0,0,0-1.77-3.95,31.26,31.26,0,0,0-2.51-4.11,20,20,0,0,0-3.25-3.49c-.64-.55-1.22-1-1.65-1.3"/><path class="n" d="M81.29,35.74c-.46,0-.92,0-1.39.06l0,.13c.47,0,.93-.06,1.38-.06h.26l.1-.14h-.32"/><path class="n" d="M83.68,36l.06.15A8.3,8.3,0,0,1,88,38.57a23.85,23.85,0,0,1,2.39,3c.37.55.7,1,1,1.55l.26.44a1.64,1.64,0,0,0,0-.22A28.07,28.07,0,0,0,88,38.45,8.35,8.35,0,0,0,83.68,36"/><path class="n" d="M94.6,51.38c.05.22.09.44.14.66a2.38,2.38,0,0,1,0,.36,1.77,1.77,0,0,1-.2.82,1.81,1.81,0,0,0,.25-.93,2,2,0,0,0,0-.34c0-.16-.06-.33-.1-.5l-.09-.07"/><path class="n" d="M106.35,70.32a13.51,13.51,0,0,0-1.43,1,3.51,3.51,0,0,0-.92,2.33,12.71,12.71,0,0,1-.31,2.58,4.43,4.43,0,0,1-.51.55,15.29,15.29,0,0,0,2.29-.25,3.87,3.87,0,0,0,2.47-1.5v0c0-.53-1-1.23-1-1.73h0a.56.56,0,0,0,0-.19,12.61,12.61,0,0,0-.57-2.74"/><path class="o" d="M89.42,51.66s0,.08,0,.13c.48.26.94.55,1.39.83a6.21,6.21,0,0,0,2.82,1.26h.12a1.1,1.1,0,0,0,.83-.65,1,1,0,0,1-.78.56h-.11a6.23,6.23,0,0,1-2.84-1.26c-.46-.3-.93-.59-1.42-.86"/><path class="p" d="M81.25,35.87c-.45,0-.91,0-1.38.06a26.17,26.17,0,0,1-.73,2.84H80a15.05,15.05,0,0,1,1.53-2.89h-.26"/><path class="p" d="M83.74,36.14a11.1,11.1,0,0,1,.48,2s.3.65.71,1.72a17.64,17.64,0,0,1,2.7,1.73,8.67,8.67,0,0,1,2.66,2.94,1.81,1.81,0,0,1,.16.68c0,.52-.37.9-1.23,1.09l-.42.28-.91.6a11.46,11.46,0,0,1,1.28,2.67,5.1,5.1,0,0,1,.25,1.59h0v.22c.49.27,1,.56,1.42.86a6.23,6.23,0,0,0,2.84,1.26h.11a1,1,0,0,0,.78-.56,1.77,1.77,0,0,0,.2-.82,2.38,2.38,0,0,0,0-.36c0-.22-.09-.44-.14-.66a4.89,4.89,0,0,1-.54-.47c-.81-1-1.77-2.19-2.39-3.17A3.57,3.57,0,0,1,91,46h0a.93.93,0,0,1,.23-.64,3.71,3.71,0,0,0,.41-1.69v-.16l-.26-.44c-.33-.53-.66-1-1-1.55a23.85,23.85,0,0,0-2.39-3,8.3,8.3,0,0,0-4.21-2.43"/><path class="q" d="M80,38.77h-.84c-.09.26-.18.5-.27.73,0,.07.1.57.28,1.43.16-.48.46-1.29.83-2.16"/><path class="q" d="M84.93,39.86a44.49,44.49,0,0,1,1.43,4.23,11.32,11.32,0,0,0,1.53,3.09l.91-.6.42-.28c.86-.19,1.23-.57,1.23-1.09a1.81,1.81,0,0,0-.16-.68,8.67,8.67,0,0,0-2.66-2.94,17.64,17.64,0,0,0-2.7-1.73"/><path class="r" d="M105.4,67.56c-.63,1-.77,2-1.83,2.85-1,1-2.49,1.78-3.44,2.76A5.41,5.41,0,0,0,99,75.09a32,32,0,0,0-1.51,3.06l.6.44.57-.38a12.34,12.34,0,0,1,1.59-.88,5.38,5.38,0,0,1,1.91-.53l1,0a4.43,4.43,0,0,0,.51-.55,12.71,12.71,0,0,0,.31-2.58,3.51,3.51,0,0,1,.92-2.33,13.51,13.51,0,0,1,1.43-1c0-.1,0-.19-.08-.29-.22-.74-.52-1.59-.87-2.47"/><path class="s" d="M104.59,65.71c-1.8,1.63-4,2.94-5.52,4.24-2.23,1.92-4.21,3.56-5.75,5.14l4.2,3.06A32,32,0,0,1,99,75.09a5.41,5.41,0,0,1,1.1-1.92c1-1,2.4-1.73,3.44-2.76,1.06-.8,1.2-1.84,1.83-2.85-.24-.61-.51-1.23-.81-1.85"/><path class="q" d="M79.34,41.8c.07.33.15.7.24,1.1l.18-.26a6.57,6.57,0,0,0-.42-.84"/><path class="p" d="M76.28,51.12c-.32.14-.65.29-1,.45l-.06,0c-.41.33-.85.68-1.31,1.09a9.23,9.23,0,0,0-1.72,2,4.84,4.84,0,0,0-.69,2.05c0,.14,0,.29,0,.43A5.59,5.59,0,0,0,72,59.25c0-.27,0-.56,0-.88h0A6.29,6.29,0,0,1,72,57.14a5.42,5.42,0,0,1,.55-1.52A8.28,8.28,0,0,1,73.73,54c.91-1,1.82-1.89,2.51-2.83l0-.06"/><path class="q" d="M76.92,50.09a12.37,12.37,0,0,1-1.67,1.51l.06,0c.32-.16.65-.31,1-.45a7.35,7.35,0,0,0,.64-1"/><path class="m" d="M80.27,58.21l-.09.37c-.48,1.9-1,3.8-1.51,5.55h0c.48-1.42,1-3.07,1.48-5,0,0,0-.35.11-.95"/><path class="m" d="M79.51,64.81l.28.22.86.68.24.18-1.38-1.08"/><path class="n" d="M74.05,76.76h0"/><polyline class="n" points="74.12 76.77 74.12 76.77 74.12 76.77 74.12 76.77 74.12 76.77 74.12 76.77 74.12 76.77 74.12 76.77 74.12 76.77 74.12 76.77 74.12 76.77"/><path class="m" d="M68.78,80.78c-1.14.81-2.32,1.66-3.6,2.55l0,0c1.19-.83,2.3-1.63,3.36-2.38l.2-.22"/><path class="n" d="M73.88,76.77c-.33,0-.67,0-1,0L73,77h0c-.52.34-.67.77-1.41,1.54l-.06.17c.9-.89,1-1.36,1.59-1.72a1.78,1.78,0,0,1,.65-.2,4,4,0,0,1,.52,0h-.37"/><path class="n" d="M68.79,80.78h0l-.2.22h0l.2-.21"/><path class="o" d="M65.18,83.33l-.05,0,0,0,0,0,0,0"/><path class="p" d="M65.13,83.36c-1,.69-2,1.4-3.19,2.12l.15,0c1.1-.69,2.12-1.38,3.08-2l0,0"/><path class="q" d="M62.09,85.45l-.15,0c-1.23.77-2.56,1.56-4,2.35a4,4,0,0,1-1.31.4A3.66,3.66,0,0,0,58,87.82c1.47-.8,2.81-1.59,4.05-2.37"/><path class="t" d="M71.55,78.58a14.12,14.12,0,0,1-2.18,1.78l-.58.42-.2.21.91-.64a15.84,15.84,0,0,0,2-1.6l.06-.17"/><path class="n" d="M74.23,76.77h0"/><path class="r" d="M74.77,76.83h.1l.86.14v0h0c0,.56,0,1.12-.07,1.68l0,0h0l0-.59,0-1.16-1-.15"/><path class="r" d="M74.28,79.19l.38.26a.77.77,0,0,0,.14-.25h-.23l-.29,0"/><path class="m" d="M91.64,81.09c-.13,0-.21,0-.22.15a.37.37,0,0,0,.07.19l.13.28a2.54,2.54,0,0,0,.12-.61h-.1"/><path class="r" d="M96.82,83.72s0,.11-.08.16a6,6,0,0,0,1,1.07,6,6,0,0,1-1-1.07h0a6,6,0,0,0,1,1.07,6,6,0,0,1-1-1.07h0a6,6,0,0,0,1,1.07,6,6,0,0,1-1-1.07h0a6,6,0,0,0,1,1.07,6,6,0,0,1-1-1.07,7.08,7.08,0,0,1-.61.83l1.5.68.62.28.25.12h0l0,0-.08-.06-.17-.18c-.14-.13-.26-.35-.42-.53-.31-.39-.66-.81-.91-1.18l-.05-.09"/><path class="s" d="M91.74,81.1a2.54,2.54,0,0,1-.12.61,2.09,2.09,0,0,1,.21.82h0a1,1,0,0,1,0,.26l1.75.77,2.58,1.15a7.08,7.08,0,0,0,.61-.83,2.12,2.12,0,0,1-.25-.5l0-.23h0a.48.48,0,0,1,.09-.29.16.16,0,0,1,0-.07c-1.6-.48-3.18-1.05-4.81-1.68h0"/><path class="s" d="M96.54,82.86a.48.48,0,0,0-.09.29l0,.23a2.12,2.12,0,0,0,.25.5s.05-.11.08-.16a1.56,1.56,0,0,1-.3-.73h0a.51.51,0,0,1,0-.13"/><path class="r" d="M75.56,81.24c0,1.24-.11,2.47-.16,3.71,0-.65.06-1.25.09-1.82s.05-1.31.07-1.88h0"/><path class="n" d="M77.4,89.42a15.61,15.61,0,0,1-2.27,1.36c0,.68-.06,1.36-.09,2.06h0l.08,0,.23-.08a1.61,1.61,0,0,0,.45-.33,5.15,5.15,0,0,0,1-1.62l.57-1.34"/><path class="r" d="M75.56,81.25c0,.57,0,1.2-.07,1.88S75.43,84.3,75.4,85l0,.42-.2,4.4-.05,1a15.61,15.61,0,0,0,2.27-1.36c.19-.43.37-.86.55-1.29.09-.24.17-.49.26-.75h0c-.09.26-.17.51-.26.75.34-.79.68-1.57,1-2.31l-1.1-.77,0,0h0l0,0h0l.06,0,.14,0,.29,0,.58,0,.32,0c.26-.54.52-1.07.78-1.56-1.19-.6-2.46-1.29-3.66-1.88l-.83-.49"/><path class="u" d="M75.18,89.77h0l-.05,1h0l.05-1h0m.38-8.52c0,.57,0,1.2-.07,1.88v.05c0,.55,0,1.14-.08,1.77h0c0-.65.06-1.25.09-1.82s.05-1.31.07-1.88h0"/><polyline class="s" points="77.82 85.01 77.82 85.01 77.83 85.01 77.83 85.02 77.84 85.03 77.85 85.03 77.82 85.01"/><path class="s" d="M77.85,85l0,0,1.1.77c.09-.22.19-.43.29-.64l-.32,0-.58,0-.29,0-.14,0-.06,0h0"/><path class="n" d="M75.13,90.78h0l0,1,0,1.08h0c0-.7.06-1.38.09-2.06"/><path class="r" d="M75.18,89.79l-.05,1h0l.05-1"/><path class="m" d="M79.5,64.8l.16.13.09.07,0,0-.28-.22h0"/><path class="m" d="M82.85,67.39h0l1.93,1.45h0L85,69l.56.41-2.68-2"/><path class="m" d="M82.85,67.39h0l1.61,1.21L84,68.27l-1.17-.88"/><path class="m" d="M88.49,71.56,92,74.15l1.31.95h0l-4.83-3.53"/><path class="r" d="M97.52,78.15c-.16.37-.31.73-.44,1.1a6.76,6.76,0,0,0,1-.66l-.6-.44"/><path class="s" d="M93.32,75.09h0l2.21,1.61.14.1h0l0,.05,0,.25v0h0a.48.48,0,0,1-.49.54c.61.52,1.22,1,1.77,1.56h.06c.13-.37.28-.73.44-1.1l-4.2-3.06"/><path class="m" d="M82.48,75.8v0"/><path class="r" d="M82.49,75.84v0c0,.22,0,.43,0,.63h0a4.15,4.15,0,0,1-.14,1.18c-.14.42-.32.61-.67.61a2.3,2.3,0,0,1-.77-.18,2,2,0,0,1-.39.05h0a1.82,1.82,0,0,1-.38,0l-.25,0-.14,0L79.46,78l-1.4-.42a20,20,0,0,1-1.25,1.77c.56.31,1.14.64,1.57.82a2.39,2.39,0,0,0,.62.11c.83,0,1-.78,1.62-1.06a7.15,7.15,0,0,1,2.06.71,1.74,1.74,0,0,0,.7.22c.34,0,.41-.3.41-.68,0-.22,0-.48,0-.71h0v-.09a1,1,0,0,1,0-.17h0c0-1,2-.18,2.4-.85a.89.89,0,0,0,.16-.56,4.22,4.22,0,0,0-.11-.81c-.21.1-.33.23-.33.41a.43.43,0,0,0,0,.19h0a13.16,13.16,0,0,0-2-.42,3.4,3.4,0,0,0-.53,0c-.31,0-.56,0-.63.19.17.37.28.59.28.59h0c-.21-.22-.3-.38-.3-.5h0a.29.29,0,0,1,0-.09l-.31-.72"/><path class="r" d="M75.7,78.14l0,.59h0l0-.59"/><path class="v" d="M54.82,80.49v0a1,1,0,0,0,.08.11l-.09-.15"/><path class="v" d="M56.47,83c-.06.24-.14.49-.22.73l.09.1c.09-.24.16-.48.23-.71l-.1-.12"/><path class="w" d="M64,58.28l0,0a11.32,11.32,0,0,1,.27,2.13h0c0,1.48-.63,2.24-2.21,2.89-2.27.56-1.68,2.35-3,3.51a7.44,7.44,0,0,0-1.19,2.35c-.3.88-.6,1.82-1.12,3a9.24,9.24,0,0,0-1.88,3.89,11.47,11.47,0,0,0-.25,2.24,10.66,10.66,0,0,0,.22,2.12l.09.15a1.59,1.59,0,0,0,.92.7c.51.14.49.82.75,1.07h0c0,.19-.07.37-.11.56l.1.12a5.34,5.34,0,0,0,.13-.65c-.25-.25-.23-.93-.74-1.06a1.78,1.78,0,0,1-1-.8,10.12,10.12,0,0,1-.23-2.15h0A10.46,10.46,0,0,1,55,76.22a9.1,9.1,0,0,1,1.86-3.89c.52-1.22.81-2.17,1.12-3a7.4,7.4,0,0,1,1.17-2.35c1.29-1.16.7-3,3-3.51,1.58-.65,2.2-1.4,2.2-2.88a10.74,10.74,0,0,0-.3-2.26"/><path class="x" d="M78.87,39.49a2.5,2.5,0,0,1-1.1,1.24,5,5,0,0,1-.83.47,7.84,7.84,0,0,0-1.53,1,19.27,19.27,0,0,1-2.48,1.24,28.9,28.9,0,0,0-4.3,2.32A14.57,14.57,0,0,0,65,49.32a9.87,9.87,0,0,0-1.47,2.92,4.1,4.1,0,0,0-.18,1.16c0,.18,0,.34,0,.5,0,.44.06.87.09,1.26a13.86,13.86,0,0,0,.26,2c.1.41.18.8.26,1.15l0,0c-.06-.32-.14-.66-.23-1a13.89,13.89,0,0,1-.26-2c0-.4-.06-.83-.09-1.26,0-.2,0-.38,0-.6h0a3.81,3.81,0,0,1,.16-1,9.62,9.62,0,0,1,1.38-2.86A14.57,14.57,0,0,1,68.44,46a22.43,22.43,0,0,1,2.33-1.42c.73-.39,1.39-.7,2-1a23.43,23.43,0,0,0,2.53-1.26,18.31,18.31,0,0,1,2.45-1.48,2.51,2.51,0,0,0,1.11-1.24,1,1,0,0,0,0-.1h0"/><path class="x" d="M56.25,83.7a13.24,13.24,0,0,0-1.09,3.46,1.22,1.22,0,0,0,.3.86,1.15,1.15,0,0,0,.82.22h.11a1.14,1.14,0,0,1-.81-.22,1.21,1.21,0,0,1-.3-.85h0a13,13,0,0,1,1.06-3.36l-.09-.1"/><path class="y" d="M72,59.88a15.56,15.56,0,0,0-1.71,2.36,7.9,7.9,0,0,1-2.94,2.92,8.89,8.89,0,0,0-3.23,4,4.59,4.59,0,0,1,2.27-1l.27,0a11.56,11.56,0,0,0,1.85-1.12,8.76,8.76,0,0,0,2.87-3.35A7.13,7.13,0,0,0,72,61.08c0-.13,0-.26,0-.39s0-.53,0-.81"/><path class="y" d="M71.84,76.93c-1.21.22-2.18.67-2.18,1a.27.27,0,0,0,.11.21h0s-.44.29-1.08.82-1.46,1.28-2.31,2.06c-.57.51-1.15,1-1.72,1.45a4.9,4.9,0,0,0,.52.81c1.28-.89,2.46-1.74,3.6-2.55l.49-.56.07-.08c.36-.41.72-.85,1.1-1.32.09-.12.19-.24.28-.37l-.06.08h0l.36-.47.52-.7.22-.3,0,0,.06-.09"/><path class="y" d="M71.77,77v0l-.21.28.13-.17.09-.14"/><path class="z" d="M72.87,76.81l-.25,0-.54.07a5.5,5.5,0,0,1-.18.56c-.08.28-.2.65-.35,1.12.74-.77.89-1.2,1.41-1.54l-.09-.23"/><path class="z" d="M69.34,80.14l-.07.08-.49.56h0l.55-.64"/><path class="z" d="M56.57,83.09c-.07.23-.14.47-.23.71a6,6,0,0,0,2.8,1.6,6.25,6.25,0,0,0,1.15.17,6.29,6.29,0,0,1-2.52-1.28,10.46,10.46,0,0,1-1.2-1.2"/><path class="aa" d="M72,59.72a14,14,0,0,0-1.74,2.4,8,8,0,0,1-3,2.92A8.76,8.76,0,0,0,64,69.27l.09-.06.06,0a8.89,8.89,0,0,1,3.23-4,7.9,7.9,0,0,0,2.94-2.92A15.56,15.56,0,0,1,72,59.88c0-.06,0-.11,0-.16"/><path class="aa" d="M64.66,82.52l0,0a4.88,4.88,0,0,0,.51.81l.05,0a4.9,4.9,0,0,1-.52-.81"/><path class="ab" d="M75.25,51.6a49.42,49.42,0,0,0-6.82,4.1c-1.9,1.31-3.36,2.36-4.08,2.36h-.07l-.3.22a10.74,10.74,0,0,1,.3,2.26h0c0,1.48-.62,2.23-2.2,2.88-2.26.56-1.67,2.35-3,3.51A7.4,7.4,0,0,0,58,69.28c-.31.88-.6,1.83-1.12,3A9.1,9.1,0,0,0,55,76.22a10.46,10.46,0,0,0-.24,2.21A10.12,10.12,0,0,0,55,80.58a1.78,1.78,0,0,0,1,.8c.51.13.49.81.74,1.06h0a5.34,5.34,0,0,1-.13.65,10.46,10.46,0,0,0,1.2,1.2,6.29,6.29,0,0,0,2.52,1.28l.43,0a7.47,7.47,0,0,0,1.22-.11c1.14-.72,2.2-1.43,3.19-2.12a4.88,4.88,0,0,1-.51-.81,3.66,3.66,0,0,1-2,.87,1.26,1.26,0,0,1-.9-.38,11.71,11.71,0,0,1-1.2-.63A6.41,6.41,0,0,1,58.81,81s0-.2,0-.57h0a20.31,20.31,0,0,1,.11-2,14.82,14.82,0,0,1,.58-2.81,11.83,11.83,0,0,1,1.27-2.79A12.39,12.39,0,0,1,64,69.27,8.76,8.76,0,0,1,67.3,65a8,8,0,0,0,3-2.92A14,14,0,0,1,72,59.72l0-.3v-.17a5.59,5.59,0,0,1-.44-2.11h0c0-.14,0-.29,0-.43a4.84,4.84,0,0,1,.69-2.05,9.23,9.23,0,0,1,1.72-2c.46-.41.9-.76,1.31-1.09"/><path class="ac" d="M78.87,39.5a1,1,0,0,1,0,.1,2.51,2.51,0,0,1-1.11,1.24,18.31,18.31,0,0,0-2.45,1.48,23.43,23.43,0,0,1-2.53,1.26c-.58.27-1.24.58-2,1A22.43,22.43,0,0,0,68.44,46a14.57,14.57,0,0,0-3.53,3.55,9.62,9.62,0,0,0-1.38,2.86,3.81,3.81,0,0,0-.16,1c0,.22,0,.4,0,.6,0,.43.06.86.09,1.26a13.89,13.89,0,0,0,.26,2c.09.36.17.7.23,1l.3-.22h.07c.72,0,2.18-1.05,4.08-2.36a49.42,49.42,0,0,1,6.82-4.1,12.37,12.37,0,0,0,1.67-1.51l.18-.38c.2-.52.38-1.06.56-1.63.37-1.15.71-2.41,1-3.8,0,0,.36-.63.88-1.38-.09-.4-.17-.77-.24-1.1a4.38,4.38,0,0,0-.33-.45h0s0-.16.14-.42c-.18-.86-.27-1.36-.28-1.43"/><path class="ac" d="M56.34,83.8a13,13,0,0,0-1.06,3.36,1.21,1.21,0,0,0,.3.85,1.14,1.14,0,0,0,.81.22h.22a4,4,0,0,0,1.31-.4c1.46-.79,2.79-1.58,4-2.35a7.47,7.47,0,0,1-1.22.11l-.43,0a6.25,6.25,0,0,1-1.15-.17,6,6,0,0,1-2.8-1.6"/><path class="ad" d="M72.08,76.9l-.24,0-.07.1-.09.14-.13.17,0,.06c-.26.36-.52.71-.79,1-.09.13-.19.25-.28.37-.38.47-.74.91-1.1,1.32l-.55.64.58-.42a14.12,14.12,0,0,0,2.18-1.78c.15-.47.27-.84.35-1.12a5.5,5.5,0,0,0,.18-.56"/><path class="ad" d="M71.84,76.93h0l-.06.09.06-.09"/><path class="ad" d="M71.54,77.36l-.52.7.49-.66,0,0"/><path class="ae" d="M71.84,76.93h0l-.08.13v0l.07-.1"/><path class="ae" d="M71.76,77.06l-.22.3,0,0,0-.06.21-.28"/><path class="ae" d="M71.51,77.4c-.28.39-.57.77-.85,1.13l.06-.08c.27-.34.53-.69.79-1"/><path class="af" d="M80.64,54c-.76.16-1.55.3-2.4.45-2.45,1.27-3.36,3-5.51,4.83a6.4,6.4,0,0,0-.72.65q0,.42,0,.81h0c0,.13,0,.26,0,.39a7.13,7.13,0,0,1-.64,2.67,8.76,8.76,0,0,1-2.87,3.35,11.56,11.56,0,0,1-1.85,1.12l-.27,0a4.59,4.59,0,0,0-2.27,1c0,.12-.09.24-.13.37a12.29,12.29,0,0,0-.57,3q-.06.7-.06,1.47a17.62,17.62,0,0,0,.16,2.35c.06.67.16,1.66.27,2.79a12.92,12.92,0,0,0,.73,3.06c0,.1.09.19.13.29.57-.42,1.15-.94,1.72-1.45.85-.78,1.67-1.55,2.31-2.06s1.08-.82,1.08-.82a.27.27,0,0,1-.11-.21h0c0-.38,1-.83,2.18-1l.08-.1,0,0,.22-.32.25-.37.11-.16,1.25-1.85.09-.13h0l.07-.12.1-.16.08-.14.05-.1,0-.06h0l.13-.21h0v0a3.24,3.24,0,0,0,.17-.32h0l.09-.19.1-.21.06-.14c0-.06.08-.17.14-.3l.15-.3c0-.06,0-.11.07-.17a5.55,5.55,0,0,0,.24-.56l0,0,.19-.5a.56.56,0,0,1,0-.12l0-.06,0,0a1.12,1.12,0,0,1,0-.13l0-.13v0h0c.08-.19.15-.39.22-.57v-.43c0-.88,0-1.74,0-2.59V64.41l0-.88V63.4c0-.26,0-.49,0-.69s-.06-.54-.09-.77h0a1.45,1.45,0,0,0,0-.22,1.58,1.58,0,0,0,0-.25,2.33,2.33,0,0,0-.08-.31l0-.06,0-.09h0v0h0l.09.19h0l0,.09,0,0a2.8,2.8,0,0,0,.19.28c.07.09.15.19.25.3s.21.24.36.4l.1.1.06.06.29.29h0l.31.28.26.24.62.54.31.26.06,0,.05,0h0c.52-1.75,1-3.65,1.51-5.55l.09-.37c.11-.93.26-2.46.37-4.26"/><path class="ag" d="M75.89,61.94h0c0,.23.06.47.09.77h0c0-.29-.06-.53-.09-.75v0h0m0,0h0m-.24-1v0h0v0h0"/><path class="af" d="M75.79,69.91h0v0"/><path class="af" d="M75.74,70h0l0,.06,0-.07"/><path class="af" d="M75.34,71.07c0,.06,0,.12-.08.19s0-.13.08-.19"/><path class="af" d="M75.07,71.68v0l0,.08,0-.11"/><path class="af" d="M74.73,72.4h0c-.06.14-.13.27-.19.4h0l-.09.19.29-.59"/><polyline class="af" points="74.43 73 74.42 73.01 74.43 73"/><path class="af" d="M74.35,73.15h0l-.13.21h0a.89.89,0,0,0-.09.16l0,0,.25-.43"/><polyline class="af" points="73.92 73.88 73.92 73.89 73.92 73.88 73.92 73.88"/><path class="af" d="M72.77,75.59l-.24.35-.06.1.08-.13.22-.32"/><path class="af" d="M72.1,76.57l-.08.12v0l.07-.1"/><path class="ah" d="M74.23,76.77h0m-.19,0h0m1.85-7.12-.1.27v0l0,.1h0l0,.07-.06.14c0,.1-.06.17-.1.26h0c0,.13-.09.25-.14.37l0,0a.78.78,0,0,1,0,.14c0,.06,0,.12-.08.19s-.1.23-.16.35l0,0v0l0,.11c-.1.21-.2.41-.29.61l-.29.59h0l0,.1,0,0-.25.43h0c-.06.1-.11.19-.18.29h0l0,0,0,0v0l-1.09,1.61-.22.32-.08.13-.19.28,0,0h0l-.16.23-.07.1h0a.13.13,0,0,1,0,.08s0,.08,0,.15l.54-.07.25,0c.34,0,.68,0,1,0h.41l.35,0c.08-.27.15-.54.2-.8.18-1.11.31-2.28.49-3.27s.31-1.71.31-2h0a3.88,3.88,0,0,1,.18-.86l.07-.27"/><path class="ah" d="M75.68,70.18l0,0,0,.06v0l0-.07"/><path class="ah" d="M75.6,70.39l-.19.5,0,0,0,0,.14-.37,0-.07a.14.14,0,0,1,0-.06"/><path class="ah" d="M75.15,71.49c0,.06-.05.11-.07.17h0c0-.05,0-.1.07-.16"/><path class="ah" d="M74.36,73.12v0"/><path class="ah" d="M74.05,73.67l-.1.16,0,0,.06-.11"/><polyline class="ah" points="73.88 73.95 73.87 73.96 73.88 73.95 73.88 73.95"/><path class="ah" d="M72.42,76.1l-.25.37.09-.13.16-.24"/><path class="ai" d="M80.64,53.82c-.76.15-1.56.3-2.42.44-2.45,1.28-3.39,3-5.53,4.84a5.25,5.25,0,0,0-.7.62c0,.05,0,.1,0,.16a6.4,6.4,0,0,1,.72-.65c2.15-1.85,3.06-3.56,5.51-4.83.85-.15,1.64-.29,2.4-.45v-.13"/><path class="ai" d="M64.13,69.17l-.06,0-.09.06s0,.1,0,.14a12.29,12.29,0,0,0-.57,3c0,.49-.06,1-.06,1.54a18.32,18.32,0,0,0,.15,2.29,22.46,22.46,0,0,0,1,5.89c.06.14.12.27.19.4l0,0c0-.1-.09-.19-.13-.29a12.92,12.92,0,0,1-.73-3.06c-.11-1.13-.21-2.12-.27-2.79A17.62,17.62,0,0,1,63.37,74q0-.77.06-1.47a12.29,12.29,0,0,1,.57-3c0-.13.08-.25.13-.37"/><path class="aj" d="M80.75,49.59a30.42,30.42,0,0,0-4.47,1.53l0,.06c-.69.94-1.6,1.8-2.51,2.83a8.28,8.28,0,0,0-1.16,1.61A5.42,5.42,0,0,0,72,57.14a6.29,6.29,0,0,0-.12,1.23c0,.32,0,.61,0,.88v.17l0,.3a5.25,5.25,0,0,1,.7-.62c2.14-1.85,3.08-3.56,5.53-4.84.86-.14,1.66-.29,2.42-.44.07-1.13.11-2.35.11-3.58v-.65"/><path class="aj" d="M64,69.27a12.39,12.39,0,0,0-3.23,3.48,11.83,11.83,0,0,0-1.27,2.79,14.82,14.82,0,0,0-.58,2.81,20.31,20.31,0,0,0-.11,2c0,.37,0,.57,0,.57a6.41,6.41,0,0,0,1.74,1.46,11.71,11.71,0,0,0,1.2.63,1.26,1.26,0,0,0,.9.38,3.66,3.66,0,0,0,2-.87c-.07-.13-.13-.26-.19-.4a22.46,22.46,0,0,1-1-5.89A18.32,18.32,0,0,1,63.3,74c0-.53,0-1,.06-1.54a12.29,12.29,0,0,1,.57-3s0-.09,0-.14"/><path class="ak" d="M79.76,42.64l-.18.26c-.52.75-.88,1.38-.88,1.38-.33,1.39-.67,2.65-1,3.8-.18.57-.36,1.11-.56,1.63l-.18.38a7.35,7.35,0,0,1-.64,1,30.42,30.42,0,0,1,4.47-1.53,20.79,20.79,0,0,0-1-7"/><path class="al" d="M72,76.66h0l0,0-.18.24.24,0c0-.07,0-.12,0-.15a.13.13,0,0,0,0-.08h0"/><path class="al" d="M71.92,76.83l-.08.1h0l.08-.1"/><path class="am" d="M76,69.31c-.07.18-.14.38-.22.57l0,0h0l.1-.27h0l-.07.27a3.88,3.88,0,0,0-.18.86h0c0,.25-.14,1-.31,2S75,74.9,74.84,76c0,.26-.12.53-.2.8l.13,0,1,.15.18-4.4c0-1.09.07-2.19.1-3.27"/><path class="am" d="M75.78,69.92l0,.13h0l0-.1h0"/><path class="am" d="M75.73,70.05a1.12,1.12,0,0,0,0,.13l0,.07.06-.14,0-.06"/><path class="am" d="M75.65,70.25v0a.56.56,0,0,0,0,.12.14.14,0,0,0,0,.06l0,.07h0c0-.09.06-.16.1-.26"/><path class="am" d="M75.55,70.52l-.14.37c0-.12.09-.24.14-.37"/><path class="am" d="M75.41,70.89l0,0a5.55,5.55,0,0,1-.24.56c0,.06-.05.11-.07.16l0,0c.06-.12.11-.24.16-.35s0-.13.08-.19a.78.78,0,0,0,0-.14l0,0"/><path class="am" d="M75.08,71.65l-.15.31c-.06.13-.12.24-.14.3l-.06.14h0c.09-.2.19-.4.29-.61l0-.08v-.06"/><path class="am" d="M74.73,72.4l-.1.21-.09.19c.06-.13.13-.26.19-.4"/><polyline class="am" points="74.54 72.8 74.53 72.8 74.54 72.8"/><path class="am" d="M74.53,72.8a3.24,3.24,0,0,1-.17.32v0h0l0,0,0-.1h0l.09-.19"/><path class="am" d="M74.35,73.15l-.13.21.13-.21"/><polyline class="am" points="74.22 73.36 74.22 73.37 74.22 73.37 74.22 73.36"/><path class="am" d="M74.22,73.37l0,.06-.05.1a.89.89,0,0,1,.09-.16"/><path class="am" d="M74.13,73.53l-.08.14-.06.11,0,0-.07.12h0l0,0,0,0h0c.07-.1.12-.19.18-.29h0l0,0"/><path class="am" d="M73.87,74l-.09.14-1.25,1.85.24-.35L73.86,74v0"/><path class="am" d="M72.53,75.94l-.11.16-.16.24,0,0,.19-.28.06-.1"/><path class="am" d="M72.26,76.34l-.09.13-.22.32,0,0-.08.1h0l.18-.24.08-.12.16-.23h0"/><polyline class="af" points="75.65 61 75.65 61 75.66 61.01 75.65 61 75.65 61"/><path class="af" d="M75.68,61.06v0l0,.11c0-.05,0-.1,0-.14"/><path class="af" d="M75.79,61.44h0v0"/><path class="af" d="M75.84,61.7h0v0"/><path class="af" d="M76.19,61.79c.11.13.25.3.46.51l0,0-.36-.4-.07-.08"/><path class="af" d="M76,63q0,.18,0,.39v.13c0,.15,0,.31,0,.48,0-.4,0-.73,0-1"/><path class="af" d="M77.72,63.31l0,0,0,0-.08-.07"/><path class="af" d="M78.59,64.06h0l0,0h0l0,0"/><path class="af" d="M76.06,64.14v.41c0-.15,0-.28,0-.41"/><path class="af" d="M76.07,64.57v0"/><path class="af" d="M79.79,65l0,0,.71.57.12.09L79.79,65"/><path class="af" d="M76.08,65.55v0"/><path class="af" d="M76.08,66.27v0"/><path class="af" d="M81.85,66.64l.14.1.05,0-.19-.13"/><path class="af" d="M76.07,66.78l0,1.76c0-.65,0-1.24,0-1.76"/><path class="am" d="M76,69.32c0,.43,0,.88,0,1.32h0c0-.47,0-.9,0-1.31"/><path class="af" d="M75.64,61v0h0l0,.09.07.13,0,0,0-.08h0L75.64,61"/><path class="af" d="M75.65,61h0v.05s0,.09,0,.14a1.37,1.37,0,0,1,.07.24v.07a.94.94,0,0,1,0,.16v.06c0,.18.07.39.1.67s0,.37,0,.6,0,.61,0,1v.13c0,.13,0,.26,0,.41h0v.55h0v.18h0v.39h0v1.09c0,.52,0,1.11,0,1.76v.76a1.46,1.46,0,0,0,.07-.19c.07-.18.13-.36.19-.54h0v0c0-.08,0-.15.07-.23l.12-.41v-.06l0,0h0a.28.28,0,0,1,0,.06l0,0h0l0-.07.07-.24.11-.3q.09-.3.18-.57c.07-.24.15-.49.22-.74l.14-.52h0c0,.18-.09.35-.14.52l0,.13A8.62,8.62,0,0,0,77,67.22v.11a5.62,5.62,0,0,0,.14.82c.49-1.09,1-2.41,1.55-4l-.05,0,0,0h0l-.1-.08,0,0-.64-.55,0,0,0,0-.52-.47-.41-.39,0,0,0,0-.06-.07a6.85,6.85,0,0,1-.51-.56,4.18,4.18,0,0,1-.27-.36,2.61,2.61,0,0,1-.2-.32h0l0-.08"/><path class="ah" d="M76.51,67.8l0,0v.06l0,0a.28.28,0,0,0,0-.06h0"/><path class="ah" d="M76.48,67.9l-.12.41.12-.41h0"/><path class="ah" d="M76.28,68.57c-.06.18-.12.36-.19.54,0-.07,0-.15.08-.22s.07-.22.11-.32"/><path class="am" d="M77.22,65.46l-.14.52c0-.17.1-.34.14-.52"/><path class="am" d="M77.08,66c-.07.25-.15.5-.22.74s-.12.37-.18.57l-.11.3-.07.24,0,.07-.12.41c0,.08,0,.15-.07.23v0h0c0,.1-.07.21-.11.32L76,69.3v0c0,.41,0,.84,0,1.31l0-.13a7,7,0,0,1,.66-1.37c.15-.3.31-.63.47-1a5.62,5.62,0,0,1-.14-.82v-.11a8.62,8.62,0,0,1,.06-1.11l0-.13"/><path class="af" d="M75.83,61.31l.06.09a1.67,1.67,0,0,0,.12.16l-.18-.25"/><polyline class="af" points="75.88 61.92 75.88 61.93 75.88 61.93 75.88 61.92"/><path class="af" d="M75.89,61.94c0,.23.06.47.09.77,0-.12,0-.22,0-.31s0-.32-.06-.46"/><path class="af" d="M77.38,63l.19.18.07.06L77.38,63"/><path class="af" d="M78.26,63.78l.18.15.13.11-.31-.26"/><path class="af" d="M79.22,64.58h0l0,0"/><path class="af" d="M79.42,64.74l.24.19-.16-.13-.08-.06"/><path class="af" d="M79.75,65l.57.45.21.17-.71-.57,0,0,0,0"/><path class="af" d="M76.08,65.11v0"/><path class="af" d="M82.85,67.39l-.08.2-.27.69h.16a2.46,2.46,0,0,1,1.06.29h.67l0,0h0l-1.61-1.21"/><path class="af" d="M84.78,68.84h0"/><path class="af" d="M76,68.88v0"/><path class="af" d="M81.28,71.21c-.36.84-.74,1.66-1.12,2.45.25.49.49,1,.74,1.63s.67,1,1.12,1.12a5.55,5.55,0,0,1,.46-.55V75.8a16.81,16.81,0,0,1-1.07-3.59c-.06-.34-.1-.68-.13-1"/><path class="am" d="M80.16,73.66c-.5,1-1,2-1.54,2.94-.19.32-.37.63-.56.93l1.4.42.25.07.14,0,.25,0a1.82,1.82,0,0,0,.38,0h0a2,2,0,0,0,.39-.05,2.3,2.3,0,0,0,.77.18c.35,0,.53-.19.67-.61a4.15,4.15,0,0,0,.14-1.18c0-.2,0-.41,0-.63a5.55,5.55,0,0,0-.46.55c-.45-.11-.76-.46-1.12-1.12s-.49-1.14-.74-1.63"/><path class="an" d="M82.71,35a1.62,1.62,0,0,0-1.1.75,10.94,10.94,0,0,1,1.14.09,7.54,7.54,0,0,1,.93.16c-.29-.71-.62-1-1-1"/><path class="an" d="M81.85,66.64h0l.19.13h0l-.05,0-.14-.1h0M87.32,51c-.29.23-1,.18-1.11.68a1.66,1.66,0,0,1-.62,1,35.75,35.75,0,0,1-5,1.31c-.11,1.8-.26,3.33-.37,4.26-.06.6-.11.95-.11.95-.51,1.9-1,3.55-1.48,5h0l-.05,0h0l.54.44.34.28,1.38,1.08h0l-.36-.27.25.19,1.2.93.87.65c1.23-3.16,2.28-6.26,3-8.59A13.59,13.59,0,0,1,87.09,56a6.75,6.75,0,0,1,.7-1,7.12,7.12,0,0,0,1.43-2.28,4.15,4.15,0,0,0,.19-.93A7,7,0,0,0,87.32,51"/><path class="ao" d="M81.61,35.74l-.1.14a9.23,9.23,0,0,1,1.18.08,9.6,9.6,0,0,1,1,.18L83.68,36a7.54,7.54,0,0,0-.93-.16,10.94,10.94,0,0,0-1.14-.09"/><path class="ap" d="M87.35,50.86c-.3.23-1,.17-1.12.68a1.65,1.65,0,0,1-.63,1,36.91,36.91,0,0,1-5,1.3V54a35.75,35.75,0,0,0,5-1.31,1.66,1.66,0,0,0,.62-1c.09-.5.82-.45,1.11-.68a7,7,0,0,1,2.09.81s0-.09,0-.13a7.25,7.25,0,0,0-2.07-.8"/><path class="aq" d="M81.51,35.88A15.05,15.05,0,0,0,80,38.77a3.86,3.86,0,0,0,1.35-.36l.63.19c.39.13.94.34,1.57.6.44.18.91.41,1.4.66-.41-1.07-.71-1.72-.71-1.72a11.1,11.1,0,0,0-.48-2,9.6,9.6,0,0,0-1-.18,9.23,9.23,0,0,0-1.18-.08"/><path class="aq" d="M87.89,47.18l-.09.06-1.18.86a10,10,0,0,1-1.07.72l-.88.08a20.16,20.16,0,0,0-2.34.34c-.49.09-1,.21-1.58.35v.65h0c0,1.23,0,2.45-.11,3.58a36.91,36.91,0,0,0,5-1.3,1.65,1.65,0,0,0,.63-1c.09-.51.82-.45,1.12-.68a7.25,7.25,0,0,1,2.07.8v-.22a5.1,5.1,0,0,0-.25-1.59,11.46,11.46,0,0,0-1.28-2.67"/><path class="ar" d="M81.33,38.41a3.86,3.86,0,0,1-1.35.36c-.37.87-.67,1.68-.83,2.16-.09.26-.14.42-.14.42a4.38,4.38,0,0,1,.33.45c1,1.63,1.37,4.69,1.41,7.79.56-.14,1.09-.26,1.58-.35a20.16,20.16,0,0,1,2.34-.34l.88-.08a10,10,0,0,0,1.07-.72l1.18-.86.09-.06a11.32,11.32,0,0,1-1.53-3.09,44.49,44.49,0,0,0-1.43-4.23c-.49-.25-1-.48-1.4-.66-.63-.26-1.18-.47-1.57-.6l-.63-.19"/><path class="an" d="M75.65,61h0m0,0h0"/><path class="an" d="M75.65,61h0m0,0h0"/><path class="an" d="M75.65,61l0,.09v0l0-.05h0"/><path class="an" d="M75.69,61.09l0,.06a2.33,2.33,0,0,1,.08.31h0c0-.09-.05-.17-.07-.24l0-.11"/><path class="an" d="M75.78,61.24l0,0,0,0"/><path class="an" d="M75.79,61.46a1.58,1.58,0,0,1,0,.25h0a.9.9,0,0,0,0-.19v0"/><path class="an" d="M76,61.57l0,0h0l.15.19.07.08c-.1-.11-.18-.21-.25-.3"/><path class="an" d="M75.84,61.71a1.45,1.45,0,0,1,0,.22l0-.2v0"/><path class="an" d="M76.26,61.87l.36.4c-.15-.16-.27-.29-.36-.4"/><polyline class="an" points="75.88 61.93 75.89 61.94 75.89 61.94 75.88 61.93"/><path class="an" d="M76.62,62.27l0,0,.07.07-.1-.1"/><path class="an" d="M76.78,62.43l.29.29-.29-.29"/><path class="an" d="M76,62.71c0,.2,0,.43,0,.69q0-.21,0-.39c0-.11,0-.21,0-.3"/><path class="an" d="M77.07,62.72l.1.09h0l.21.19-.31-.28"/><path class="an" d="M77.64,63.24l.08.07.08.07.46.4-.62-.54"/><path class="an" d="M76,63.4v0"/><path class="an" d="M76,63.53l0,.88V64c0-.17,0-.33,0-.48"/><path class="an" d="M78.57,64l0,0,0,0-.06,0"/><path class="an" d="M76.06,64.41v0"/><path class="an" d="M76.07,64.86v0"/><path class="an" d="M76.08,65.31v0"/><path class="an" d="M76.08,66.29c0,.85,0,1.71,0,2.59,0-.11,0-.22,0-.34l0-1.76c0-.16,0-.31,0-.46v0"/><path class="an" d="M76,68.92v.39h0c0-.13,0-.26,0-.38"/><path class="as" d="M76,69.3h0c0,1.08-.07,2.18-.1,3.27-.08,1.85-.15,3.7-.22,5.56,0-.82,0-1.24,0-1.24.11-2.52.18-4.57.23-6.27h0c0-.44,0-.89,0-1.32v0"/><path class="an" d="M85.53,69.39l.81.6h0l2.11,1.55-2.92-2.15"/><path class="an" d="M75.65,61h0l0,.08,0-.09"/><path class="an" d="M75.66,61l0,.05V61"/><path class="an" d="M75.69,61.08h0a2.61,2.61,0,0,0,.2.32l-.06-.09a.35.35,0,0,1,0-.08l0,0-.07-.13"/><path class="an" d="M75.72,61.2c0,.07,0,.15.07.24a1.37,1.37,0,0,0-.07-.24"/><path class="an" d="M75.89,61.4a4.18,4.18,0,0,0,.27.36c0-.06-.09-.11-.12-.16h0l0,0a1.67,1.67,0,0,1-.12-.16"/><path class="an" d="M75.8,61.51a.9.9,0,0,1,0,.19v0a.94.94,0,0,0,0-.16"/><path class="an" d="M75.85,61.73l0,.2h0c0,.14,0,.29.06.46,0-.28-.07-.49-.1-.67"/><path class="an" d="M76.67,62.32l.06.07,0,0-.1-.1"/><path class="an" d="M76,62.4c0,.09,0,.19,0,.31s0,.19,0,.29c0-.23,0-.43,0-.6"/><path class="an" d="M76.79,62.45l.41.39.52.47-.08-.07-.07-.06L77.38,63l-.21-.19h0l-.38-.36"/><path class="an" d="M77.8,63.38l.64.55-.18-.15-.46-.4"/><path class="an" d="M78.44,63.93l0,0,.1.08,0,0-.13-.11"/><path class="an" d="M76.05,64v0"/><path class="an" d="M82.5,68.28l.27-.69.08-.2,1.17.88.44.33h0l0,0h-.67a2.46,2.46,0,0,0-1.06-.29H82.5m-3.28-3.7h0l0,0h0m-.59-.49.05,0h0c-.54,1.61-1.06,2.93-1.55,4a5.23,5.23,0,0,0,.55,1.31c.62,1.11,1.54,2.32,2.48,4.2.38-.79.76-1.61,1.12-2.45,0,.32.07.66.13,1a16.81,16.81,0,0,0,1.07,3.59v0a1.18,1.18,0,0,0,.24-.31l.61,0a5.89,5.89,0,0,1,.94-1.67,3.9,3.9,0,0,1,3.13-1.44,1.91,1.91,0,0,1,.86-.38.22.22,0,0,1,.24.22h0a6.62,6.62,0,0,1,1.64.75,10.55,10.55,0,0,1,1.25,1,10.34,10.34,0,0,0,1.43,1.66l.45-.47L92,74.15l-3.51-2.59c-.72-.52-1.44-1-2.15-1.57h0l-.81-.6L85,69a1.33,1.33,0,0,0-.19-.14l-1.93-1.45h0L82,66.74l-1.2-.93-.25-.19-.21-.17L79.75,65l-.09-.07-.24-.19h0l.08.06h0l-.34-.28-.54-.44"/><path class="as" d="M77.13,68.15c-.16.35-.32.68-.47,1A7,7,0,0,0,76,70.5l0,.13c0,1.7-.12,3.75-.23,6.27,0,0,0,.42,0,1.24l0,.59c.34.14.73.35,1.14.57a21,21,0,0,0,1.81-2.7c.52-.9,1-1.89,1.54-2.94-.94-1.88-1.86-3.09-2.48-4.2a5.23,5.23,0,0,1-.55-1.31"/><path class="as" d="M83.34,75.48l-.61,0a1.18,1.18,0,0,1-.24.31l.31.72c.07-.14.32-.19.63-.19a3.4,3.4,0,0,1,.53,0,13.16,13.16,0,0,1,2,.42.43.43,0,0,1,0-.19h0c0-.18.12-.31.33-.41a1.6,1.6,0,0,1,0-.21l-.42.06a9.94,9.94,0,0,1-1.5.16,3.19,3.19,0,0,1-1-.15s0,0,0,0a2.15,2.15,0,0,1,.14-.57"/><path class="at" d="M87.41,72.37a3.9,3.9,0,0,0-3.13,1.44,5.89,5.89,0,0,0-.94,1.67,2.15,2.15,0,0,0-.14.57s0,0,0,0a3.19,3.19,0,0,0,1,.15,9.94,9.94,0,0,0,1.5-.16l.42-.06a6.68,6.68,0,0,1-.25-1.3h0c0-.36.13-.6.54-.6h.2c-.3,0-.42-.19-.42-.36h0c0-.3.34-.7.75-1.06.14-.12.29-.23.44-.34"/><path class="at" d="M93.31,75.1l-.45.47c.72.69,1.56,1.41,2.39,2.12a.48.48,0,0,0,.49-.54v0l0-.25,0-.05h0l-.14-.1L93.31,75.1"/><path class="an" d="M76.07,64.55v0h0"/><path class="an" d="M76.07,65v0"/><path class="an" d="M76.08,65.23v0m0,0h0"/><path class="an" d="M76.08,66v0"/><path class="an" d="M76.08,66.32c0,.15,0,.3,0,.46v-.46"/><path class="an" d="M76,68.54c0,.12,0,.23,0,.34v-.34"/><path class="an" d="M76,68.9v0c0,.12,0,.25,0,.38h0v-.4"/><path class="as" d="M76,69.3h0v0"/><path class="as" d="M82.8,76.56a.29.29,0,0,0,0,.09c0,.12.09.28.3.5,0,0-.11-.22-.28-.59"/><path class="au" d="M86,20.36a.35.35,0,0,0-.17,0c-.42.33-.93.07-1.3.69-.71,1.55-1.41,3.91-2.08,5.75l2.14.29a1,1,0,0,1,.71-.33c.54,0,1.1.53,1.57,1.52.24.25.26,1,.72,2s1,2.25,1.37,3.41a.81.81,0,0,1,0,.16h0c0,.73-.61,1.52-.61,2.25a1.1,1.1,0,0,0,0,.18,14,14,0,0,0,2.21,4.3,6.33,6.33,0,0,1,1,2.65,26.35,26.35,0,0,1,3.08,8.16c.43.33,1,.75,1.65,1.3a20,20,0,0,1,3.25,3.49,31.26,31.26,0,0,1,2.51,4.11,37.38,37.38,0,0,1,1.77,3.95c.25.46.5.93.72,1.41l.27-.24a4.45,4.45,0,0,1,1.8-1l.13,0c.37,0,.21.66.43,1h0c.41.06.51.4.59.81.15-.07.29-.15.43-.23h0a6.58,6.58,0,0,0-.29.89,1.32,1.32,0,0,0,.18.4,1.37,1.37,0,0,1,.25.77,1.61,1.61,0,0,1-.57,1.13,9.86,9.86,0,0,0,1.37,3.61,33.07,33.07,0,0,0,2.41,3.4c0,.08.11.15.17.23a10.71,10.71,0,0,0,.74-2,29.76,29.76,0,0,1,1.35-4.36l0,0a1.38,1.38,0,0,1,.51.41c.08-.36.15-.74.21-1.13-.18-.28-.4-1.22-.6-1.5h0a5.1,5.1,0,0,1,1.44-2.14l.29-.21a3.24,3.24,0,0,0,.29-.34c.19-.23.38-.47.56-.73a12.07,12.07,0,0,0,1-1.75,15.24,15.24,0,0,0,1.26-4.83,22.16,22.16,0,0,0,.12-2.25,25.54,25.54,0,0,0-.57-5.13,30.25,30.25,0,0,0-4.47-10.42,35,35,0,0,0-10.34-10,41.17,41.17,0,0,0-5.6-3c-1.68-.74-3.21-1.29-4.46-1.72a42.42,42.42,0,0,1-5.09-1.87c-1-.51-.93-1-1.18-1.57s-.74-1.59-1.22-1.59"/><path class="av" d="M91.61,43.29a1.64,1.64,0,0,1,0,.22c.23.4.44.8.64,1.2a26.56,26.56,0,0,1,2.33,6.67l.09.07a26.35,26.35,0,0,0-3.08-8.16"/><path class="av" d="M108.24,66c-.14.08-.28.16-.43.23a5.18,5.18,0,0,0,.14.66,6.58,6.58,0,0,1,.29-.89"/><path class="av" d="M107.81,69.23a8.54,8.54,0,0,1-1.46,1.09,12.61,12.61,0,0,1,.57,2.74h0a.56.56,0,0,1,0,.19h0c0,.5,1,1.2,1,1.73h0v0a3.87,3.87,0,0,1-2.47,1.5,15.29,15.29,0,0,1-2.29.25,6.83,6.83,0,0,1-1.7,1.08,1.31,1.31,0,0,0-1,1.29c0,.06,0,.11,0,.16a6,6,0,0,0,.21,1.18l.47.34,1,.72a16.18,16.18,0,0,0,2.91-.62,14.79,14.79,0,0,0,5.36-2.75,5.2,5.2,0,0,0,1.29-1.65l0,0c-.06-.08-.12-.15-.17-.23a33.07,33.07,0,0,1-2.41-3.4,9.86,9.86,0,0,1-1.37-3.61"/><path class="aw" d="M91.63,43.51v.16h0a3.71,3.71,0,0,1-.41,1.69A.93.93,0,0,0,91,46a3.57,3.57,0,0,0,.68,1.74c.62,1,1.58,2.14,2.39,3.17a4.89,4.89,0,0,0,.54.47,26.56,26.56,0,0,0-2.33-6.67c-.2-.4-.41-.8-.64-1.2"/><path class="ax" d="M107.22,65.46h0c-.3.5-1,1-1.42,1.57a4.61,4.61,0,0,0-.4.53c.35.88.65,1.73.87,2.47,0,.1.06.19.08.29,1-.64,2-1.34,2-2.22a1.37,1.37,0,0,0-.25-.77,1.32,1.32,0,0,1-.18-.4,5.18,5.18,0,0,1-.14-.66c-.08-.41-.18-.75-.59-.81"/><path class="ax" d="M103.18,76.76l-1,0a5.38,5.38,0,0,0-1.91.53,12.34,12.34,0,0,0-1.59.88l-.57.38.93.68h0l1.66,1.2a6,6,0,0,1-.21-1.18c0-.05,0-.1,0-.16a1.31,1.31,0,0,1,1-1.29,6.83,6.83,0,0,0,1.7-1.08"/><path class="ay" d="M106.79,64.48l-.13,0a4.45,4.45,0,0,0-1.8,1l-.27.24c.3.62.57,1.24.81,1.85a4.61,4.61,0,0,1,.4-.53c.4-.62,1.12-1.07,1.42-1.57h0c-.22-.32-.06-1-.43-1"/><path class="au" d="M88.27,72a1.91,1.91,0,0,0-.86.38h0a7.23,7.23,0,0,1,1.82.26L90,73c.15.08.33.16.49.26l.15.16,0,0v0h0v.18l.06.74c.09,1.2.19,2.41.28,3.62a14.79,14.79,0,0,1,1.87-2.43,10.34,10.34,0,0,1-1.43-1.66,10.55,10.55,0,0,0-1.25-1,6.62,6.62,0,0,0-1.64-.75h0a.22.22,0,0,0-.24-.22"/><polyline class="au" points="90.93 77.35 90.94 77.45 90.93 77.35 90.93 77.35"/><path class="au" d="M91,78h0"/><path class="av" d="M100.71,80.47c.07.27.14.55.19.82a1.51,1.51,0,0,1,.08.34c.37,0,.77,0,1.2-.1l-1-.72-.47-.34"/><path class="av" d="M87.43,80.69c-.08.2-.15.4-.23.57a2.66,2.66,0,0,0,.34-.4,1.63,1.63,0,0,1-.11-.17"/><path class="ax" d="M87.32,75.92a7.49,7.49,0,0,0-1.17.1,5.09,5.09,0,0,1,.16,1h0a.89.89,0,0,1-.16.56c-.39.67-2.4-.11-2.4.85a1,1,0,0,0,0,.17h0v.09c0,.23,0,.49,0,.71h0c0,.38-.07.68-.41.68a1.74,1.74,0,0,1-.7-.22,7.15,7.15,0,0,0-2.06-.71c-.65.28-.79,1.06-1.62,1.06a2.39,2.39,0,0,1-.62-.11c-.43-.18-1-.51-1.57-.82-.41-.22-.8-.43-1.14-.57h0c0,.47,0,1-.07,1.68a4.42,4.42,0,0,0,.74.3c1.11.41,1.55.06,2.74.61s2.38,1.1,3.42,1.36a4.48,4.48,0,0,0,.68.07,1.7,1.7,0,0,0,.71-.13,5.31,5.31,0,0,0,3.31-1.36c.08-.17.15-.37.23-.57a1.54,1.54,0,0,1-.27-.72h0c0-.61,1-.46,1.31-.74a.25.25,0,0,1,.13,0c.22,0,.56.1.84.11.43-.2.39-.85,1-.85a1.4,1.4,0,0,1,.31,0,.56.56,0,0,1,0-.12c.07-.13.14-.26.22-.39h0l0-.37,0-.18V77.3l-.07-.1A1.24,1.24,0,0,0,90.6,77L90,76.71a7.24,7.24,0,0,0-.86-.4,4.25,4.25,0,0,0-1.85-.39"/><path class="ax" d="M98.12,78.59a6.76,6.76,0,0,1-1,.66c-.2.55-.37,1.09-.52,1.65a21.06,21.06,0,0,0,2.91.68,7.26,7.26,0,0,0,1,.06H101a1.51,1.51,0,0,0-.08-.34c-.05-.27-.12-.55-.19-.82l-1.66-1.2h0l-.93-.68"/><path class="ay" d="M87.44,72.37h0c-.15.11-.3.22-.44.34-.41.36-.75.76-.75,1.06s.12.31.42.36h-.2c-.41,0-.54.24-.54.6a6.68,6.68,0,0,0,.25,1.3,7.49,7.49,0,0,1,1.17-.1,4.25,4.25,0,0,1,1.85.39,7.24,7.24,0,0,1,.86.4l.57.31a1.24,1.24,0,0,1,.25.18l.07.1v0h0v.1l0,.18L91,78h0c-.08.13-.15.26-.22.39a.56.56,0,0,0,0,.12,2.12,2.12,0,0,1,.38.15,37.76,37.76,0,0,0,5.45,2.23c.15-.56.32-1.1.52-1.65H97c-1.29-1.21-2.91-2.47-4.16-3.68A14.79,14.79,0,0,0,91,78c-.09-1.21-.19-2.42-.28-3.62l-.06-.74v-.18h0v0l0,0-.15-.16c-.16-.1-.34-.18-.49-.26l-.71-.34a7.23,7.23,0,0,0-1.82-.26"/><path class="ax" d="M75.07,78.57c-.18,0-.28.08-.28.27a.71.71,0,0,0,0,.14.52.52,0,0,1,0,.11h0a.43.43,0,0,1,0,.11c0,.18-.21.28-.22.46a.61.61,0,0,0,.19.38h0a6.57,6.57,0,0,1,.83.37c0-.65.05-1.21.07-1.68h0a1.83,1.83,0,0,0-.58-.15"/><path class="az" d="M75.89,61.94v0c0,.22.06.46.09.75h0c0-.3-.06-.54-.09-.77h0"/><path class="ba" d="M75.89,62c0,.22.06.46.09.75,0,.09,0,.19,0,.3,0,.27,0,.6,0,1v.13c0,.13,0,.26,0,.41v1.14h0V64.55c0-.15,0-.28,0-.41V64c0-.4,0-.73,0-1,0-.1,0-.2,0-.29,0-.29-.06-.53-.09-.75"/><path class="ba" d="M75.73,61.15l0,.08a.35.35,0,0,0,0,.08l.18.25,0,0,0,0a2.8,2.8,0,0,1-.19-.28l0,0,0-.09"/><path class="ba" d="M76,61.6s.08.1.12.16a6.85,6.85,0,0,0,.51.56l.1.1,0,0,.38.36-.1-.09h0l-.29-.29-.06-.06-.07-.07c-.21-.21-.35-.38-.46-.51L76,61.6"/><path class="ba" d="M86.34,70c.71.53,1.43,1.05,2.15,1.57l4.83,3.53h0l-7-5.1"/><path class="bb" d="M97.52,78.15h0l1.53,1.12-.93-.68-.6-.44"/><path class="bc" d="M93.32,75.09h0l4.2,3.06h0l-4.2-3.06"/><path class="bd" d="M75.13,90.78h0c0,.68-.06,1.36-.09,2.06V93h0c0-.75.07-1.5.1-2.23"/><path class="bb" d="M75.32,86.74c0,1-.1,2-.14,3.05l-.05,1h0l.05-1c0-1,.09-2,.14-3"/><path class="be" d="M75.4,85h0c0,.51-.05,1-.08,1.6,0,1.06-.09,2.14-.14,3.24h0c0-1,.09-2.05.14-3.05v-.19h0c0-.56.06-1.09.08-1.6h0"/><path class="bf" d="M75.56,81.25c0,.57,0,1.2-.07,1.88S75.43,84.3,75.4,85h0c0-.63.06-1.22.08-1.77v-.05c0-.68.05-1.31.07-1.88h0"/><path class="bb" d="M75.48,83.18c0,1-.1,2.13-.16,3.37,0-.56.06-1.09.08-1.6s.06-1.22.08-1.77"/><path class="bc" d="M96.6,82.8l-.06.06a.48.48,0,0,0-.09.29h0a.48.48,0,0,1,.09-.29l.06-.06h0"/><path class="bd" d="M77.5,89.35h0a10.25,10.25,0,0,1-1.74,3.16,10.25,10.25,0,0,0,1.74-3.16"/><path class="bb" d="M78.21,87.38c-.09.26-.17.51-.26.75-.15.45-.3.86-.45,1.22h0c.23-.56.46-1.22.71-2"/><path class="bd" d="M75.76,92.51a1.56,1.56,0,0,1-.67.47,1.56,1.56,0,0,0,.67-.47"/><path class="bg" d="M113.88,70.12l0,0a29.76,29.76,0,0,0-1.35,4.36,10.71,10.71,0,0,1-.74,2c.75,1,1.58,2,2.37,3a8.5,8.5,0,0,0,1.63-4.9,6.47,6.47,0,0,0-.25-1.85,4.11,4.11,0,0,0-1.63-2.55"/><path class="bg" d="M91.1,79.44l.07.76,0,.4,0-.19,0-.25,0-.71h0"/><path class="bg" d="M91.11,79.45l0,.71.06.61c0,.15,0,.31,0,.47l0,.36.09,1.09a2.71,2.71,0,0,1,.09-.41c0-.19.1-.38.15-.57l-.13-.28a.37.37,0,0,1-.07-.19h0c0-.1.09-.15.22-.15h.1a.76.76,0,0,0,0-.15,1.55,1.55,0,0,0-.19-.75,3.73,3.73,0,0,0-.45-.75"/><path class="bh" d="M111.76,76.47l0,0a5.2,5.2,0,0,1-1.29,1.65,14.79,14.79,0,0,1-5.36,2.75,16.18,16.18,0,0,1-2.91.62h0c-.43,0-.83.08-1.2.1a1.21,1.21,0,0,1,0,.19,2.82,2.82,0,0,1-.91,1.79l0,0c.95.19,1.91.34,2.9.45a6.3,6.3,0,0,0,.79,0,13.47,13.47,0,0,0,4.92-1.09,18.18,18.18,0,0,0,4.92-2.94c.2-.23.39-.47.56-.71-.79-1-1.62-2-2.37-3"/><path class="bh" d="M87.86,80c-.18.09-.31.39-.43.71a1.63,1.63,0,0,0,.11.17h0a2.66,2.66,0,0,1-.34.4.81.81,0,0,1-.32.42A27.49,27.49,0,0,0,83,84.89c.92.33,1.8.61,2.63.84h.25a44.7,44.7,0,0,0,5.53-.36,9.16,9.16,0,0,1-.27-.93,1.06,1.06,0,0,1,0-.29h0a1,1,0,0,1,.31-.7,2.19,2.19,0,0,1,0-.36.28.28,0,0,1,0-.09c0-.09-.08-.19-.13-.29a9.81,9.81,0,0,0-1-1.26A4.48,4.48,0,0,0,87.86,80"/><path class="bh" d="M91.17,80.2l.21,2.5h0l-.15-1.8,0-.3,0-.4"/><path class="bh" d="M91.22,80.77v.13l.06.7,0-.36c0-.16,0-.32,0-.47"/><path class="bi" d="M90.42,78.47c-.59,0-.55.65-1,.85-.28,0-.62-.11-.84-.11a.25.25,0,0,0-.13,0c-.34.28-1.3.13-1.31.74a1.54,1.54,0,0,0,.27.72c.12-.32.25-.62.43-.71a4.48,4.48,0,0,1,2.32,1.47,9.81,9.81,0,0,1,1,1.26c0,.1.09.2.13.29a1.53,1.53,0,0,1,0-.3l-.21-2.5-.07-.76a1.67,1.67,0,0,1-.38-.82s0-.07,0-.1a1.4,1.4,0,0,0-.31,0"/><path class="bi" d="M74.77,80v0h0c0,.15-.16.2-.17.32s0,.14.19.26a8.06,8.06,0,0,0,1.59,1.09c2,1,4.07,2.17,5.78,2.85.26.11.53.21.79.3a27.49,27.49,0,0,1,3.92-3.21.81.81,0,0,0,.32-.42,5.31,5.31,0,0,1-3.31,1.36,1.7,1.7,0,0,1-.71.13,4.48,4.48,0,0,1-.68-.07c-1-.26-2.31-1-3.42-1.36s-1.63-.2-2.74-.61a4.42,4.42,0,0,1-.74-.3h0a6.57,6.57,0,0,0-.83-.37"/><path class="bi" d="M96.56,80.9c-.09.34-.17.69-.24,1a1.78,1.78,0,0,1,.62,1c1,.29,2,.55,3.1.76l0,0a2.82,2.82,0,0,0,.91-1.79,1.21,1.21,0,0,0,0-.19h-.49a7.26,7.26,0,0,1-1-.06,21.06,21.06,0,0,1-2.91-.68"/><path class="bj" d="M90.73,78.52s0,.06,0,.1a1.67,1.67,0,0,0,.38.82h0l0,.71,0-.71h0a3.73,3.73,0,0,1,.45.75,1.55,1.55,0,0,1,.19.75.76.76,0,0,1,0,.15h0c1.75.68,3.45,1.29,5.17,1.79a1.78,1.78,0,0,0-.62-1h0c.07-.35.15-.7.24-1a37.76,37.76,0,0,1-5.45-2.23,2.12,2.12,0,0,0-.38-.15"/><path class="bj" d="M91.16,80.16l0,.25,0,.19,0,.3v-.13l-.06-.61"/><path class="bj" d="M91.23,80.9l.15,1.8h0a1.53,1.53,0,0,0,0,.3.28.28,0,0,0,0,.09,2.19,2.19,0,0,0,0,.36,1.3,1.3,0,0,0,.46-.92,2.09,2.09,0,0,0-.21-.82c-.05.19-.11.38-.15.57a2.71,2.71,0,0,0-.09.41l-.15-1.79"/><path class="bj" d="M91.37,85.37a44.7,44.7,0,0,1-5.53.36h-.25a14.71,14.71,0,0,0,3.69.57,5.14,5.14,0,0,0,2-.35.26.26,0,0,0,.13-.25,1.1,1.1,0,0,0-.06-.33"/><path d="M24,88.13c.27-5,.38-8.82.71-12.58a57.64,57.64,0,0,1,1.1-5.75,27.15,27.15,0,0,0,.45-2.7,30.32,30.32,0,0,1,5-13.59,75.54,75.54,0,0,0,5-9.74,16.19,16.19,0,0,1,4.4-6.12c3.84-3.12,7.82-6.07,11.8-9,2.2-1.62,4.84-2.2,7.46-2.8s5.45-1.25,8.15-2c2.38-.65,4.67-1.71,7.08-2.1a25.79,25.79,0,0,1,7.18-.13c3,.38,6,1.21,9,1.88,2.8.63,5.63,1.16,8.35,2a37.22,37.22,0,0,1,6.64,2.8,32.24,32.24,0,0,1,8.45,6.87c2.74,3,5.32,6.1,6.92,9.87a30.79,30.79,0,0,1,2.72,14.63c-.45,5.87-1.79,11.58-2.84,17.34-.33,1.79-.67,3.57-1,5.36a33.52,33.52,0,0,1-4,11.15c-2.58,4.44-5.07,9-7.79,13.31-1.47,2.36-2.83,4.87-5.09,6.63-3.22,2.52-6.43,5.06-10.4,6.41a19.74,19.74,0,0,1-9.09.51,48.67,48.67,0,0,1-8.77-1.92,36.75,36.75,0,0,1-10.23-4.66,14.86,14.86,0,0,0-10.59-3.13c-2.77.33-5.6.24-8.36.61a18.4,18.4,0,0,1-4.8.18,12,12,0,0,1-6.16-2.73A46.8,46.8,0,0,1,29,103.49,14.85,14.85,0,0,1,25,96C24.51,93,24.22,89.93,24,88.13Zm98.81-29.25c.43-6.38-1.54-10.92-3.67-15.4-1.42-3-3.93-5.17-5.88-7.77a19.42,19.42,0,0,0-4.66-4.11c-1.07-.75-2.2-1.4-3.3-2.1a19.42,19.42,0,0,0-6.86-2.7c-1.14-.22-2.26-.57-3.4-.83-2.53-.57-5.1-1-7.61-1.7A33.17,33.17,0,0,0,78,23.07a1.34,1.34,0,0,1-.57-.1c-1.08-.59-2,0-3,.35-1.69.66-3.37,1.34-5.09,1.89-2.79.9-5.68,1.51-8.39,2.58-6,2.39-11.63,5.56-16.12,10.38a13,13,0,0,0-2.53,3.2C39.83,47,37.36,52.69,36.64,59a55.5,55.5,0,0,1-4.08,14.44,46,46,0,0,0-3.25,14.8C29,93,30.64,97.54,32.63,101.91a12.75,12.75,0,0,0,9.69,7.39,10.53,10.53,0,0,0,4.64,0,10.16,10.16,0,0,1,2.81-.3c2.27,0,4.53.12,6.79.2a8.91,8.91,0,0,1,2.14.11c3,.85,6,1.72,8.54,3.9,3.3,2.79,7.6,3.88,11.8,4.84,1.46.33,2.94.59,4.42.83,4.47.71,8.77.58,12.83-1.91,4.22-2.59,8.06-5.51,10.62-9.86,2.74-4.65,5.55-9.27,8.21-14a29.65,29.65,0,0,0,2.6-5.88c.85-2.79,1.39-5.67,2-8.53.39-1.85.52-3.76,1-5.59A68.23,68.23,0,0,0,122.81,58.88ZM32.23,104.72c-1.12-2.77-2.21-5.13-3-7.58A20.78,20.78,0,0,1,27.93,87a47.85,47.85,0,0,0,.89-5.4,23.78,23.78,0,0,1,2.07-7.67,87.9,87.9,0,0,0,4-12.63c.53-2.35.62-4.8,1.28-7.1,1-3.56,2.37-7,3.56-10.53A14,14,0,0,1,43,38.31c.4-.42.75-.9,1.12-1.35a15.41,15.41,0,0,0-6.41,6.89,87.74,87.74,0,0,1-6.58,12.42,20.81,20.81,0,0,0-3.47,10.84,21.5,21.5,0,0,1-.31,2.51c-.43,2.57-1.09,5.12-1.27,7.7-.41,5.65-1,11.29,0,17C26.72,98.5,28.87,101.73,32.23,104.72Zm20.83-75,.12.26a3.53,3.53,0,0,0,.56-.25,2.16,2.16,0,0,0,.41-.39L54,29.19Z"/><path d="M77,86.9l1-.62c-.35-2.48-.7-4.9-1-7.32,1.43,1.65,1.51,3.74,2.24,5.89l1.16-2a4.11,4.11,0,0,1-.34-5c.26,1.31.46,2.35.72,3.67,2.11-1.91,2-4.37,2.62-6.52s1-4.52,1.82-6.78a23.08,23.08,0,0,1,0,3.22Q84.7,75.18,84,78.81A8.79,8.79,0,0,1,83,80.94c-.56,1.1-1.18,2.17-1.72,3.28a13.11,13.11,0,0,1-4,4.45c-1,.81-2.2,1.5-3.35,2.28-.76-1.41.48-1.75.83-2.42-1.29-1.9-.77-4.22-1.74-6.42,1.27,1,1.58,1.64,2.85,5.74l1.15-1Z"/><path d="M85.69,116.66a3.08,3.08,0,0,1,1.07-.1c2.3.69,4.42-.31,6.47-.92a14.72,14.72,0,0,0,7.16-5.21c2.23-2.8,4.35-5.69,6.58-8.48A38.44,38.44,0,0,0,113,91.75a9.45,9.45,0,0,1,.6-1c.23.7.52,1.11.42,1.36a24.94,24.94,0,0,1-2.33,5.14q-5.07,7.17-10.49,14.08a18.91,18.91,0,0,1-11.76,6.78c-1.5.3-2.58-.54-3.84-.9Z"/><path d="M114,38.93c1.23.83,1.54,2,2.07,3.1.35.69.61,1.44,1,2.11a26.71,26.71,0,0,1,3.75,16.07c-.28,3.17-.85,6.31-1.35,9.45a3.59,3.59,0,0,1-1,1.83c0-.33,0-.66,0-1,.33-3.75.71-7.5,1-11.26a24.86,24.86,0,0,0-2.84-13.33c-1-2-1.74-4-2.57-6.08A3.17,3.17,0,0,1,114,38.93Z"/><path d="M91.13,75.67c.82-1.81,1.65-3.37,2.24-5,1-2.93.19-5.81-.55-8.64-.94-3.65-2-7.26-3.11-11.14.43.06,1,0,1.14.19a4.78,4.78,0,0,1,.87,1.71c1.1,4,2.09,8.06,3.23,12.06,1.24,4.34-.64,7.75-3.07,11a1.45,1.45,0,0,1-.42.4,26.82,26.82,0,0,0-3,1.41A31.14,31.14,0,0,0,85.68,80c.18-1.74,1.42-2.27,2.14-3.13S89.46,75,91.13,75.67Z"/><path d="M61.77,95.34l-3.22,3a10,10,0,0,0,1.54,0c2.72-.6,5.39-.82,8,.46a18.12,18.12,0,0,0,3.12.83c-.35-3.28-.67-6.24-1-9.2l.41-.18c.23.3.6.57.66.89.24,1.28.35,2.58.57,3.87.12.76.37,1.5.52,2.26a7.36,7.36,0,0,1,.21,1.91c-.12,1.3-.76,1.83-2.08,1.75a5,5,0,0,1-1.88-.43,12.06,12.06,0,0,0-8.35-.9,3.32,3.32,0,0,1-2-.32,1.43,1.43,0,0,1-.34-2.43,19,19,0,0,1,2.45-2.21c.26-.19.85.09,1.29.15Z"/><path d="M51.23,36.32a2.58,2.58,0,0,1,1.56-2.25c3.06-1.72,5.92-3.84,9.31-4.88,4.53-1.39,8.7-3.81,13.38-4.76a5.88,5.88,0,0,1,.94,0c0,.89-.61,1.05-1.11,1.23C72.2,26.8,69.07,27.91,66,29c-1.23.43-2.48.79-3.69,1.25-3.68,1.4-6.86,3.69-10.21,5.67C51.85,36.05,51.64,36.13,51.23,36.32Z"/><path d="M59.11,69.11a6.58,6.58,0,0,1,.35-5.33A15.29,15.29,0,0,1,65.41,57c1.21-.77,2.24-1.78,3.4-2.63A9.89,9.89,0,0,1,71,53.11c.25-.11.73.33,1.1.52-.19.31-.3.81-.56.9-2.56.87-4.27,2.94-6.41,4.4-3.32,2.28-4.69,5.76-5.67,9.45C59.42,68.5,59.34,68.61,59.11,69.11Z"/><path d="M57.11,72.05c-.33,6.17.4,12,5.25,16.6a1.87,1.87,0,0,1-2.28-.73,15.29,15.29,0,0,1-3.86-8.17A15.82,15.82,0,0,1,56.33,73c.09-.3.21-.59.31-.88Z"/><path d="M74.73,52.22c.43-.29.76-.66,1.15-.73,2.73-.52,5.47-1,8.22-1.43a6,6,0,0,1,1.93.15c.85.15,1.57.35,1.62,1.53,0,.67.66,1.3,1.07,2a2.42,2.42,0,0,1-2.13-1.34,1.73,1.73,0,0,0-1.81-.84l-8.08,1C76.11,52.71,75.47,53.24,74.73,52.22Z"/><path d="M78.27,90.08c1.56-.62,3.17-1.13,4.66-1.89s2.82-1.78,4.28-2.73a1.38,1.38,0,0,1-.53,1.68,29.07,29.07,0,0,1-3.15,2.25c-1.11.66-2.32,1.14-3.48,1.7C79.07,91.57,78.79,91.43,78.27,90.08Z"/><path d="M76.35,92c2,.73,3.59.1,5.18-.73,1-.51,2-1,3-1.47a2.8,2.8,0,0,1,1.64-.13c-2.48,1.76-4.87,3.64-8,4.1C76.7,94,76.31,93.62,76.35,92Z"/><path d="M70.12,99a10.38,10.38,0,0,1-.92-1.57,18,18,0,0,1-1-3.36A20.68,20.68,0,0,0,66.29,89c-.12-.28-.26-.55-.41-.85.86-.71,1.38-.19,1.62.38a32.9,32.9,0,0,1,1.42,4c.52,1.74.93,3.51,1.38,5.27a9.69,9.69,0,0,1,.16,1.06Z"/><path d="M66.51,74.6c-1.85-3.82-3.49-10.31-3-12,1.33,1,.8,2.65,1.29,3.88a21.37,21.37,0,0,1,1,4C66,71.74,66.93,73,66.51,74.6Z"/><path d="M83.91,53.28c1.55.16,2.08,1.58,2.74,2.64,1,1.63,2.09,3.32,2.15,5.33l-.44.22c-.49-.87-1-1.73-1.46-2.6s-1-2-1.58-2.89a27,27,0,0,0-1.86-2.29Z"/><path d="M63.9,88c-2.78-.81-4.45-4.75-3.36-8.08,1.08,1.31.81,2.92,1.37,4.21S63.2,86.68,63.9,88Z"/><path d="M62,66.17c.15.1.4.19.42.32.72,3.89,1.42,7.79,2,11.71a47.45,47.45,0,0,1-3-11.88Z"/><path d="M69,71.16c-1.23-4-2.7-7.84-2.83-12l.37-.17c.21.26.57.52.6.79a50.48,50.48,0,0,0,2.22,10.46,2.23,2.23,0,0,1,0,.73S69.27,71,69,71.16Z"/><path d="M68.74,57.42c.49,0,.61,0,.74,0a.4.4,0,0,1,.17.09c.08.1.2.2.22.31.52,3.12,1,6.25,1.54,9.38,0,.07-.16.17-.39.41A39.61,39.61,0,0,1,68.74,57.42Z"/><path d="M87,70.1c3.72-4.39,4.48-5,5.73-5-.1.37-.07.85-.28,1C90.73,67.49,89.24,69.3,87,70.1Z"/><path d="M70.65,56c.28,0,.46,0,.52.06a1.35,1.35,0,0,1,.4.63c.34,2.34.65,4.68,1,7.14C71.22,62.32,70.28,58.37,70.65,56Z"/><path d="M77,86.86c-.75.15-1.09-.27-1.2-.92A63.15,63.15,0,0,1,75,79.62c1.21,2.27,2.35,4.56,2,7.28Z"/><path d="M87.69,73.12c1.28-1.37,2.53-2.74,3.83-4,.16-.16.71-.06,1,.09a.91.91,0,0,1,0,.82c-1.43,1.18-2.9,2.31-4.37,3.44C88.14,73.46,88,73.31,87.69,73.12Z"/><path d="M76.63,99c-.86-1-1.73-2-2.52-3.11a1.24,1.24,0,0,1,0-1,.92.92,0,0,1,.84-.14,6.41,6.41,0,0,1,1.62,1.85C76.87,97.32,77.4,98.26,76.63,99Z"/><path d="M67.93,97.25c-.29-.06-.63,0-.71-.17a19.54,19.54,0,0,1-2-5C66.53,92.38,67,93.27,67.93,97.25Z"/><path d="M64.14,93.67c1.39.43,1.66.93,2.12,3.61C65.07,96.83,64.79,96.37,64.14,93.67Z"/><path d="M61.77,95.72c.75-.36,1.24-.81,1.53-.7,1,.38.75,1.31.89,2.63Z"/><path d="M75.89,46.79c.59-.84,1.09-.64,1.82,0Z"/></svg>