<svg xmlns="http://www.w3.org/2000/svg" viewBox="0 0 150 150"><defs><style>.a{fill:#fdfac7;}.b{fill:#fdf8bd;}.c{fill:#fcf6aa;}.d{fill:#faf17e;}.e{fill:#faf179;}.f{fill:#faf287;}.g{fill:#fbf5a0;}.h{fill:#fdfbd6;}.i{fill:#fcfbe0;}.j{fill:#fbf59b;}.k{fill:#fbf5a9;}.l{fill:#fffded;}</style></defs><title>icon</title><path class="a" d="M30.36,118.33a4.67,4.67,0,0,1,.26.72,20.39,20.39,0,0,0,1.3,2.09,29.46,29.46,0,0,0,1.88,2.37,29.79,29.79,0,0,0,3,2.95,31.28,31.28,0,0,0,10.11,5.84,27.32,27.32,0,0,0,6.73,1.43c.46,0,.92,0,1.36,0a17,17,0,0,0,2.65-.2h0a17,17,0,0,1-2.65.2h0c-.44,0-.9,0-1.36,0h0a27,27,0,0,1-6.63-1.4l-.1,0a31.28,31.28,0,0,1-10.11-5.84,29.79,29.79,0,0,1-3-2.95h0a29.46,29.46,0,0,1-1.88-2.37h0a20.39,20.39,0,0,1-1.3-2.09h0a4.67,4.67,0,0,0-.26-.72h0m-6-16.09a54.38,54.38,0,0,0,2.17,7.38l.16.42h0l-.12-.33,0-.09h0a54.38,54.38,0,0,1-2.17-7.38h0m-1.87-4A9.74,9.74,0,0,0,24.13,102h0a9.74,9.74,0,0,1-1.68-3.72h0m5-26.31-.1.1h0s-.56.87-1.39,2.52l-.08.16A41,41,0,0,0,23,82.48c-.07.28-.13.55-.2.82h0c.07-.27.13-.54.2-.82a41,41,0,0,1,2.9-7.78A30.47,30.47,0,0,1,27.34,72l.1-.1h0m10-7.63-.23,0-.25,0-.85.36h0l-.89.39h0c-.34.17-.72.38-1.12.63a16.38,16.38,0,0,0-2.48,1.9h0c-.23.23-.46.45-.65.67h0c.19-.22.42-.44.65-.67a16.38,16.38,0,0,1,2.48-1.9c.4-.25.78-.46,1.12-.63l.89-.39.85-.36.48-.06h0"/><path class="b" d="M45.63,53.92a1.14,1.14,0,0,0-1.13.54c-.76,2-.17,5.16-1.63,7.25a5.49,5.49,0,0,0,.9-1.49A6,6,0,0,0,44.21,58v-.09h0a1.34,1.34,0,0,0,0-.21v0a5.92,5.92,0,0,0-.08-.8h0a5.92,5.92,0,0,1,.08.8v0a1.34,1.34,0,0,1,0,.21h0V58h0a6,6,0,0,1-.44,2.27,5.34,5.34,0,0,1-.9,1.49,4.2,4.2,0,0,1-1.81,1.46,10.72,10.72,0,0,1-3.58,1.12c-.47.16-.93.33-1.38.5a9.72,9.72,0,0,0-2.21,1.14A15.2,15.2,0,0,0,31.4,68L31,68.3a5,5,0,0,0-.93,1.33,33.8,33.8,0,0,0-2.64,2.29c-.77,1.68-1.73,3.55-2.68,5.77a46.43,46.43,0,0,0-2,5.61c-.14.59-.27,1.18-.38,1.8-.17.93-.31,1.82-.41,2.76-.05.47-.1.94-.13,1.4s-.05,1-.08,1.49,0,1,0,1.47,0,1.16.06,1.7a22.27,22.27,0,0,0,.65,4.31A15.43,15.43,0,0,0,24.13,102l.17.19,0,.1c0,.07.09.13.13.19a75.34,75.34,0,0,0,2.2,7.61c.68,1.8,1.5,3.65,2.26,5.22L30,117.53c.13.29.26.56.36.8.27.47.55.93.83,1.38a35,35,0,0,0,2.68,3.67,30.74,30.74,0,0,0,3.42,3.43,28.17,28.17,0,0,0,9.65,5.39,33,33,0,0,0,7.32,1.4c.53,0,1,0,1.53,0,.65,0,1.26,0,1.84-.07a14.45,14.45,0,0,0,1.77-.39,14.45,14.45,0,0,1-1.77.39h0a14.45,14.45,0,0,0,1.77-.39,14.45,14.45,0,0,1-1.77.39,19.41,19.41,0,0,0,2.26-.3c3.06-.62,4.61-1.67,5.35-2.58,1.83-1.84,3.68-3.26,5.59-3.7a9.19,9.19,0,0,1,2.58-.39,7.93,7.93,0,0,1,3.51.83c.7.24,2.84,5.09,3.48,6.68.46,1.11,1.1,1.54,1.79,1.54a1.91,1.91,0,0,0,.62-.1,4.42,4.42,0,0,0,1.41-.83,7.93,7.93,0,0,0,.68-.62,3,3,0,0,1,.92-.67c1.33-.92,3.93-1.58,7.58-3a29.66,29.66,0,0,0,5.47-2.79c.86-.57,1.69-1.17,2.48-1.81s1.49-1.31,2.18-2a23.06,23.06,0,0,0,6.55-14.93c.53-2.57,2.15-4.28,2.4-6.64-.34-4-3.66-6.6-5.4-9.46-1.8-5.44-3.75-7.31-4.79-8.09s-1.45-.46-1.45-.58a.39.39,0,0,1,0-.06.51.51,0,0,1,0-.17c0-.93,2.29-2,2.38-3.4a3.34,3.34,0,0,0-1.46-2.29A7,7,0,0,0,99,77L95,76a29,29,0,0,1-3.49-1.18,6.66,6.66,0,0,1-2.44-1.66.8.8,0,0,1-.15-.17,4,4,0,0,1-.2.42c-.45.84-1.19,1.75-1.52,2.45a2.39,2.39,0,0,0-.17.87,2.45,2.45,0,0,0,0,.27,11.84,11.84,0,0,1,2,3.43,4.17,4.17,0,0,0,.56.81,1.24,1.24,0,0,1,.21.25l0,0v0h0v.07l0,.63c-.2,2.55-.4,5.15-.6,7.84l.65.54a2.17,2.17,0,0,1,1,1.47,1.17,1.17,0,0,1-.28.74.46.46,0,0,1,.32-.19c.32,0,.48.76.48,1.66,0,.2,0,.4,0,.6-.09,1.14-.42,2.24-.72,2.24-.06,0-.12,0-.17-.13a3.74,3.74,0,0,1-1.66.48c0,.22,0,.43,0,.65l0,.43v.91c0,.21,0,.4,0,.56,0,.66,0,1.17,0,1.58s0,.52,0,.73v0a.67.67,0,0,1,0-.1h0v0a.88.88,0,0,0,0,.17c0,.24,0,.43.08.6l.05.3v0h0v0h0l0,0v0h0v0h0v0h0v0h0v.06h0v-.06h0v0h0v0h0v0h0a.28.28,0,0,1,0-.08l-.11-.15-.16-.19h0l-.21-.22-.25-.23-.08-.06-.14-.11-.16-.13-.65-.44-.13-.08-.08,0-.08-.05-.71-.39-.8-.38-.7-.29c-.35-.14-.7-.26-1.06-.39l-.41-.13c-.33-.11-.7-.22-1.1-.33s-.89-.23-1.39-.34l-1-.2h0a6.65,6.65,0,0,1-.79,2.94,116.4,116.4,0,0,1-8,12.27c-1.17,1.54-2.41,3.09-3.71,4.55l-1,1.07a6.41,6.41,0,0,1-1.1,1,9.09,9.09,0,0,1-4.11,1.48,15.13,15.13,0,0,1-1.85.12,14.24,14.24,0,0,1-1.43-.07,19.45,19.45,0,0,1-4-.8,23.61,23.61,0,0,1-7.4-3.8A25.08,25.08,0,0,1,41,112.41a23.84,23.84,0,0,1-3.11-6.11s-.07-.23-.25-.66-.46-1-.89-1.88c-.82-1.68-2.26-4.05-4.13-7.93a20.24,20.24,0,0,1-.28-3.48v-.72c0-.29,0-.57,0-.87,0-.53,0-1.13.09-1.7A25.57,25.57,0,0,1,33,85.41,17.77,17.77,0,0,1,35.77,79,6.68,6.68,0,0,1,40.24,76s.82-.45,2-1,2.68-1.17,4.06-1.66c2.71-.87,5.46-2,5.82-3.64a10.85,10.85,0,0,0,1.4.09,9,9,0,0,0,1-.06A2.53,2.53,0,0,0,56.29,69l.06-.31c.09-.5.12-.77.12-.77a2,2,0,0,1,.05.4,1,1,0,0,1-.23.68c-.07.38-.15.85-.26,1.39a24.75,24.75,0,0,1,1.89-3.7c.7-1.06,1.43-1.74,2.17-1.74a1.29,1.29,0,0,1,.46.09,28.06,28.06,0,0,1,2.82-1.76,12.12,12.12,0,0,1,4.43-1.55c-.49,0-1-.12-1.52-.22a45.69,45.69,0,0,1-9.13-2.91c-3.9-1.66-9.14-4.7-11.52-4.7"/><path class="c" d="M59.4,133.18a14.45,14.45,0,0,1-1.77.39h0a14.45,14.45,0,0,0,1.77-.39M22.77,83.3h0c-.14.59-.27,1.18-.38,1.8h0c-.17.93-.31,1.82-.41,2.76h0c-.05.47-.1.94-.13,1.4h0c0,.5-.05,1-.08,1.49h0c0,.49,0,1,0,1.47h0c0-.48,0-1,0-1.47s.06-1,.08-1.49.08-.93.13-1.4c.1-.94.24-1.83.41-2.76.11-.62.24-1.21.38-1.8h0M31,68.3h0a4.89,4.89,0,0,0-.92,1.32h0a33.8,33.8,0,0,0-2.64,2.29h0a33.8,33.8,0,0,1,2.64-2.29A5,5,0,0,1,31,68.3h0m10.05-5.13h0a10.72,10.72,0,0,1-3.58,1.12h0a10.72,10.72,0,0,0,3.58-1.12h0M44.21,58h0a6,6,0,0,1-.44,2.27h0a5.34,5.34,0,0,1-.9,1.49h0a5.34,5.34,0,0,0,.9-1.49A6,6,0,0,0,44.21,58h0m0-.09h0V58h0v-.09h0"/><path class="b" d="M92.8,55.87a67.59,67.59,0,0,0-7.18.4c-2.33.25-4.53.52-6.54.78-3.82.47-4.6,2.25-6.43,3.79a5.29,5.29,0,0,1-3.51,1h-.47a21.36,21.36,0,0,0,3.36.54q.36-.7.69-1.41c1.84-1.54,2.63-3.32,6.45-3.79,2-.26,4.21-.54,6.54-.78A69.24,69.24,0,0,1,92.82,56h.64a1.64,1.64,0,0,1,1.23.61,1.71,1.71,0,0,0-1.32-.72H92.8"/><path class="b" d="M41.06,63.17a4.7,4.7,0,0,1-.45.17L38.32,64l-.84.28a10.72,10.72,0,0,0,3.58-1.12"/><path class="b" d="M31,68.31a17.88,17.88,0,0,0-3.48,3.45l-.08.16a33.8,33.8,0,0,1,2.64-2.29A4.89,4.89,0,0,1,31,68.31"/><path class="b" d="M88.15,71l-.1.15.15.16c0-.1,0-.2,0-.31"/><path class="b" d="M79.79,80.62c-.28.34-.58.68-.92,1-1.87,1.56-2.34,3.66-4.3,4.84a35.6,35.6,0,0,1,3.85,6.82c.58-.31,1.16-.65,1.75-1,0-.11,0-.22,0-.33a12.41,12.41,0,0,0,.14-1.84V90a1.78,1.78,0,0,1-.25-.52c-.17-.51-.19-1.07-.86-1.35-.51-.27-1.47-.33-1.48-.77h0c0-1.57.84-3.47,2-5.79a3.85,3.85,0,0,0,.06-.66v0a2.29,2.29,0,0,0,0-.25"/><path class="b" d="M22.77,83.3c-.19.67-.35,1.36-.5,2.06s-.28,1.4-.38,2.11-.17,1.44-.22,2.15l-.06,1.19q0,.6,0,1.2v.07a21.09,21.09,0,0,0,.14,2.44,19.2,19.2,0,0,0,.73,3.71,22.27,22.27,0,0,1-.65-4.31c0-.54-.06-1.12-.06-1.7h0q0-.73,0-1.47c0-.49.06-1,.08-1.49s.08-.93.13-1.4c.1-.94.24-1.83.41-2.76.11-.62.24-1.21.38-1.8"/><path class="b" d="M45.31,93.51v0a14.91,14.91,0,0,0-.32,2c0,.41,0,.82,0,1.25a13.82,13.82,0,0,0,1.39,6.09,23.35,23.35,0,0,1-.66-2.73,25.62,25.62,0,0,1-.42-4.57v-.15c0-.34,0-.69,0-1s0-.62,0-.88"/><path class="b" d="M88.93,93.85V94c0,.48,0,1-.08,1.52l.09-1.66"/><path class="b" d="M61.05,95.47a4.23,4.23,0,0,0,1.14,1.77,4.37,4.37,0,0,0,3.88,1.1l0-.12v0h-.26l-.37,0a5.86,5.86,0,0,1-2.66-1,7.71,7.71,0,0,1-1.19-1,8.79,8.79,0,0,1-.6-.74"/><path class="b" d="M79.38,96.3h0a11.1,11.1,0,0,1,.29,2.47c0,.12,0,.25,0,.38l.47.09.25.05.28.06.12,0,.85.2c.4.1.8.21,1.19.34s.57.17.77.25l.49.16.67.26.31.13h0l.78.36a9.28,9.28,0,0,1,.83.44l.06,0c.17.1.33.19.46.28a5.09,5.09,0,0,1,.45.31l.46.35.18.16v0l.19.17.16.17.12.16.14.2h0v-.05h0v0h0v0h0v0h0v-.06h0v.06h0v0h0v-.06l0-.15h0c0-.09,0-.19,0-.27s0-.26,0-.35v-.14c0-.21,0-.44,0-.73s0-.78,0-1.31h0v-1c0-.19,0-.38,0-.58v-.6l0-.65h-.14A9.14,9.14,0,0,1,87,97.36c-1.85-.92-5.06-.83-7.65-1.06"/><path class="b" d="M66.61,96.38c-.08.36-.16.67-.23.94l.17-.68.06-.26"/><path class="b" d="M88.76,97.29v0h0v0"/><path class="b" d="M79.66,99.15h0l.67.13-.09,0-.13,0-.47-.09"/><path class="b" d="M81.32,99.5l.72.19.23.07c-.21-.07-.43-.12-.64-.18l-.31-.08"/><path class="b" d="M83.44,100.12l.11,0,.08,0h0l-.15,0"/><path class="b" d="M83.67,100.19l.6.22,0,0-.15-.06-.41-.14"/><path class="b" d="M85.73,101l.38.19.48.25-.72-.37-.14-.07"/><path class="b" d="M24.13,102l.19.29,0-.1-.17-.19"/><path class="c" d="M24.13,102h0l.17.19,0,.1h0l0-.1h0l0,0-.13-.15"/><path class="b" d="M87.93,102.34l.09.07h0l-.07-.06"/><path class="b" d="M88.82,102.64c0,.17,0,.31.06.44h0v0a4.2,4.2,0,0,1-.07-.48"/><path class="b" d="M88.59,103h0l0,0"/><polyline class="b" points="88.91 103.28 88.91 103.28 88.91 103.28 88.91 103.28 88.91 103.28"/><polyline class="b" points="88.91 103.28 88.91 103.28 88.91 103.28 88.91 103.28 88.91 103.28 88.91 103.28"/><polyline class="b" points="88.91 103.28 88.91 103.28 88.91 103.28 88.91 103.28"/><polyline class="b" points="88.91 103.28 88.91 103.28 88.91 103.28 88.91 103.28"/><polyline class="b" points="88.91 103.28 88.91 103.28 88.91 103.28 88.91 103.28 88.91 103.28 88.91 103.28"/><polyline class="b" points="88.91 103.28 88.91 103.28 88.91 103.28 88.91 103.28"/><polyline class="b" points="88.91 103.28 88.91 103.28 88.91 103.28"/><polyline class="b" points="88.91 103.28 88.91 103.28 88.91 103.28 88.91 103.28 88.91 103.28"/><polyline class="b" points="88.91 103.28 88.91 103.29 88.91 103.29 88.91 103.29 88.91 103.29 88.91 103.28 88.91 103.28"/><polyline class="b" points="88.91 103.28 88.91 103.29 88.91 103.29 88.91 103.28 88.91 103.28"/><path class="b" d="M88.91,103.28h0"/><polyline class="b" points="88.91 103.29 88.91 103.29 88.91 103.29 88.91 103.29"/><polyline class="b" points="88.91 103.3 88.92 103.31 88.92 103.32 88.91 103.3"/><polyline class="b" points="88.93 103.35 88.93 103.36 88.93 103.37 88.93 103.36 88.93 103.35"/><polyline class="b" points="88.93 103.35 88.93 103.36 88.93 103.35 88.93 103.35"/><path class="b" d="M88.93,103.35v.05h0v0h0"/><path class="b" d="M88.93,103.36v0h0v0h0"/><path class="b" d="M88.94,103.38h0v0h0v0h0"/><polyline class="b" points="88.93 103.39 88.94 103.39 88.94 103.39 88.93 103.39"/><polyline class="b" points="88.94 103.4 88.94 103.4 88.94 103.4 88.94 103.4 88.94 103.4"/><polyline class="b" points="88.94 103.4 88.94 103.41 88.94 103.41 88.94 103.4 88.94 103.4"/><path class="b" d="M88.94,103.4v0h0"/><path class="b" d="M88.94,103.41h0"/><path class="b" d="M88.94,103.42h0v0h0v0"/><path class="b" d="M89,103.44h0"/><polyline class="b" points="88.95 103.44 88.95 103.45 88.95 103.45 88.95 103.44"/><polyline class="b" points="88.97 103.51 88.97 103.52 88.97 103.52 88.97 103.52 88.97 103.52 88.97 103.52 88.97 103.52 88.97 103.52 88.97 103.51"/><path class="b" d="M66.2,104.63,66,105a12,12,0,0,1-3.37,4.33,7.18,7.18,0,0,1-1,.65A9.36,9.36,0,0,0,66,105.59s.1-.35.24-1"/><path class="b" d="M26.65,110c.2.58.41,1.14.62,1.7.57,1.44,1.1,2.75,1.77,4.1.33.67.66,1.31,1,2,.1.18.2.36.31.54-.1-.24-.23-.51-.36-.8-.31-.64-.68-1.4-1.09-2.27-.76-1.57-1.58-3.42-2.26-5.22"/><path class="c" d="M26.65,110h0c.68,1.8,1.5,3.65,2.26,5.22.41.87.78,1.63,1.09,2.27.13.29.26.56.36.8h0c-.1-.22-.21-.47-.34-.74l0-.06,0,0-1.07-2.24h0c-.76-1.57-1.58-3.42-2.26-5.22"/><path class="d" d="M94.69,56.59A2.41,2.41,0,0,1,95.23,58s0,.09,0,.14a6.11,6.11,0,0,1-2.16,3.78c-1.14,1-2.4,2-3.35,3.06,0,.38-.33.89-.34,1.34a.73.73,0,0,0,.09.35,1.65,1.65,0,0,1,.23.91c0,.18,0,.36,0,.54a16.87,16.87,0,0,1-1.53,2.68,1.1,1.1,0,0,1,0,.18,16.8,16.8,0,0,0,1.58-2.74c0-.18,0-.36,0-.54a1.65,1.65,0,0,0-.23-.91.72.72,0,0,1-.08-.35c0-.44.32-1,.34-1.34.95-1.06,2.2-2,3.35-3.06a6.15,6.15,0,0,0,2.17-3.79v-.14a2.42,2.42,0,0,0-.62-1.49"/><path class="e" d="M92.82,56a69.24,69.24,0,0,0-7.11.39c-2.33.24-4.53.52-6.54.78-3.82.47-4.61,2.25-6.45,3.79q-.33.7-.69,1.41l.28,0,.67,0c1.77,0,3.42-.44,3.62-1.7l1.63-.6c1-.35,2.27-.84,3.56-1.24a11.71,11.71,0,0,1,3.2-.69c1,0,1.71.41,1.71,1.64,0,.1,0,.19,0,.3s.15.83.27,1.89a15.39,15.39,0,0,1,.11,1.8A10.49,10.49,0,0,1,87,65.13a8.07,8.07,0,0,1-.53.8c-.35.49-.85,1.2-1.47,2-.95,1.21-2.17,2.67-3.53,4.11.77.69,1.58,1.3,2.39,1.93.41-.73.81-1.48,1.15-2.24a5.26,5.26,0,0,1,1.2-1.6.37.37,0,0,1,.22-.12c.23,0,.34.42.6.52h0a.73.73,0,0,1,.26-.06c.33,0,.52.33.77.6l.1-.15a1.1,1.1,0,0,0,0-.18h0a16.87,16.87,0,0,0,1.53-2.68c0-.18,0-.36,0-.54a1.65,1.65,0,0,0-.23-.91.73.73,0,0,1-.09-.35c0-.45.33-1,.34-1.34,1-1.06,2.21-2,3.35-3.06a6.11,6.11,0,0,0,2.16-3.78s0-.1,0-.14a2.41,2.41,0,0,0-.54-1.38A1.64,1.64,0,0,0,93.46,56h-.64"/><path class="e" d="M78.19,75.25c-3.11,2.79-6.14,4.91-7.36,4.91l-.18,0a25.19,25.19,0,0,0-8.43,8.08,10.61,10.61,0,0,0-1.51,4.61c0,.15,0,.31,0,.46a6.39,6.39,0,0,0,.36,2.18,8.79,8.79,0,0,0,.6.74,7.71,7.71,0,0,0,1.19,1,5.86,5.86,0,0,0,2.66,1l.37,0h.26v0h0l0-.1,0-.17v0l.08-.24,0-.13a4.26,4.26,0,0,0,.11-.42c.13-.5.26-1,.41-1.77v0h0c.1-.49.19-1,.28-1.44v0l0-.16c0-.27.08-.54.13-.8l.19-1.26c0-.1,0-.21,0-.31l.22-1.57c0-.24.06-.48.1-.73l.32-2.53.41-3.5,0-.34,0-.08.06-.15a1.12,1.12,0,0,1,.59-.47,3.15,3.15,0,0,1,1.24-.29,2,2,0,0,1,.35,0c1,.17,2,1.11,2.6,3.31,0,0,.45.56,1.11,1.49,2-1.18,2.43-3.28,4.3-4.84.34-.34.64-.68.92-1-.19-2.18-.67-4.65-1.43-5.17,0-.07-.11-.13-.17-.2"/><path class="e" d="M67.21,93.29l-.06.39v0c0-.14,0-.27.07-.41"/><path class="e" d="M66.73,95.86c-.1.45-.2.87-.3,1.24v.07c0,.12-.07.24-.1.35l0,.08c0-.08,0-.18.08-.28.07-.27.15-.58.23-.94h0l-.06.26q.09-.36.18-.78"/><path class="e" d="M66.19,98l0,.1v0a.5.5,0,0,1,0-.13"/><path class="f" d="M85,58.16a11.71,11.71,0,0,0-3.2.69c-1.29.4-2.56.89-3.56,1.24l-1.63.6c-.2,1.26-1.85,1.7-3.62,1.7l-.67,0-.28,0a21.36,21.36,0,0,1-3.36-.54l-.24-.06H67.8a12.12,12.12,0,0,0-4.43,1.55,28.06,28.06,0,0,0-2.82,1.76,1.29,1.29,0,0,0-.46-.09c-.74,0-1.47.68-2.17,1.74A24.75,24.75,0,0,0,56,70.41c0,.12-.05.24-.07.36a63.2,63.2,0,0,1-1.72,6.39,46.84,46.84,0,0,1-3.14,7.35c-1.28,2.42-2.54,4.67-4,5.26a3.82,3.82,0,0,0-.41.57,9.15,9.15,0,0,0-.91,1.8,13.89,13.89,0,0,0-.44,1.37c0,.26,0,.57,0,.88s0,.69,0,1v.15a25.62,25.62,0,0,0,.42,4.57,23.35,23.35,0,0,0,.66,2.73,14.23,14.23,0,0,0,1.5,2.46,14,14,0,0,0,5.25,4.25A11.72,11.72,0,0,0,58,110.71a9.55,9.55,0,0,0,2.55-.34,7.37,7.37,0,0,0,1.06-.37,7.18,7.18,0,0,0,1-.65A12,12,0,0,0,66,105l.19-.39c.08-.35.17-.79.26-1.29a45.57,45.57,0,0,0,.65-5.27c.16-2,0-4.14.29-5.94l-.06.38c0,.28-.09.54-.13.78s0,.27-.07.41v.16c-.1.56-.19,1-.28,1.44v0c0,.18-.07.35-.11.53-.13.59-.25,1.07-.35,1.46,0,.1-.06.2-.08.28l0,.11,0,.05-.06.23a.5.5,0,0,0,0,.13l0,0v0c-.17.52-.3.83-.4,1.08l.06-.11-.06.1h0c.12-.29.17-.42.28-.71,0-.08,0-.16.07-.24a4.37,4.37,0,0,1-3.88-1.1,4.23,4.23,0,0,1-1.14-1.77,6.39,6.39,0,0,1-.36-2.18c0-.15,0-.31,0-.46a10.61,10.61,0,0,1,1.51-4.61,25.19,25.19,0,0,1,8.43-8.08l.18,0c1.22,0,4.25-2.12,7.36-4.91a4,4,0,0,0-2.91-1.51,2.54,2.54,0,0,0-1.14.26l-4-.54h0A63.85,63.85,0,0,1,74,67.93c.69-.58,1.63-.26,2.41-.54a1,1,0,0,1,.24,0c.92,0,1.77,1,2.35,1.73a12.11,12.11,0,0,0,2.45,3C82.82,70.63,84,69.17,85,68c.62-.83,1.12-1.54,1.47-2a8.07,8.07,0,0,0,.53-.8,10.49,10.49,0,0,0,.08-1.34A15.39,15.39,0,0,0,87,62c-.12-1.06-.27-1.89-.27-1.89h0c0-.11,0-.2,0-.3,0-1.23-.69-1.64-1.71-1.64"/><path class="f" d="M67.74,89.74l-.22,1.57c.07-.48.14-1,.22-1.57"/><path class="f" d="M67.47,91.62l-.19,1.26.06-.37c0-.28.09-.58.13-.89"/><path class="f" d="M67.12,93.84v0h0v0"/><path class="f" d="M66.84,95.3h0v0h0"/><path class="f" d="M66.29,97.65l-.08.24v0l0-.16,0-.11"/><path class="f" d="M66.12,98.19v0h0v0"/><path class="g" d="M56.47,67.94s0,.27-.12.77l-.06.31a1,1,0,0,0,.23-.68,2,2,0,0,0-.05-.4"/><path class="g" d="M56.29,69a2.53,2.53,0,0,1-1.76.73,9,9,0,0,1-1,.06,10.85,10.85,0,0,1-1.4-.09c-.36,1.6-3.11,2.77-5.82,3.64-1.38.49-2.9,1.11-4.06,1.66s-2,1-2,1A6.68,6.68,0,0,0,35.77,79,17.77,17.77,0,0,0,33,85.41a25.57,25.57,0,0,0-.58,3.65c-.06.57-.08,1.17-.09,1.7,0,.3,0,.58,0,.87v.72a20.24,20.24,0,0,0,.28,3.48c1.87,3.88,3.31,6.25,4.13,7.93.43.83.72,1.46.89,1.88s.25.66.25.66A23.84,23.84,0,0,0,41,112.41a25.08,25.08,0,0,0,5.35,5.52,23.61,23.61,0,0,0,7.4,3.8,19.45,19.45,0,0,0,4,.8,14.24,14.24,0,0,0,1.43.07,15.13,15.13,0,0,0,1.85-.12A9.09,9.09,0,0,0,65.05,121a6.41,6.41,0,0,0,1.1-1l1-1.07c1.3-1.46,2.54-3,3.71-4.55a116.4,116.4,0,0,0,8-12.27,6.65,6.65,0,0,0,.79-2.94l-.55-.1-.5-.08-.51-.07h-.23l-.22,0-1.38-.13-2.7-.25-3.75-.35h0l1.34.13h0l-4-.37h0l.06,0,.12,0,.26-.08c1.4-.45,3-1.15,4.12-1.51a39.86,39.86,0,0,0,6.7-2.91,35.6,35.6,0,0,0-3.85-6.82c-.66-.93-1.11-1.49-1.11-1.49-.65-2.2-1.57-3.14-2.6-3.31a2,2,0,0,0-.35,0,3.15,3.15,0,0,0-1.24.29,1.12,1.12,0,0,0-.59.47l-.06.15,0,.08,0,.34-.41,3.5L67.84,89c0,.25-.07.49-.1.73-.08.57-.15,1.09-.22,1.57,0,.1,0,.21,0,.31,0,.31-.09.61-.13.89l.06-.38h0c-.24,1.8-.13,3.94-.29,5.94a45.57,45.57,0,0,1-.65,5.27c-.09.5-.18.94-.26,1.29-.14.61-.24,1-.24,1A9.36,9.36,0,0,1,61.61,110a7.37,7.37,0,0,1-1.06.37,9.55,9.55,0,0,1-2.55.34,11.72,11.72,0,0,1-4.93-1.13,14,14,0,0,1-5.25-4.25,14.23,14.23,0,0,1-1.5-2.46,13.82,13.82,0,0,1-1.39-6.09c0-.43,0-.84,0-1.25a14.91,14.91,0,0,1,.32-2v0a13.89,13.89,0,0,1,.44-1.37,9.15,9.15,0,0,1,.91-1.8,3.82,3.82,0,0,1,.41-.57c1.49-.59,2.75-2.84,4-5.26a46.84,46.84,0,0,0,3.14-7.35A63.2,63.2,0,0,0,56,70.77c0-.12,0-.24.07-.36.11-.54.19-1,.26-1.39"/><path class="g" d="M67.34,92.51c-.07.39-.13.77-.19,1.17l.06-.39c0-.24.08-.5.13-.78"/><path class="g" d="M67.15,93.68l0,.16v-.16"/><path class="g" d="M67.12,93.86h0c-.09.47-.18,1-.28,1.44h0c.09-.41.18-.88.28-1.44"/><path class="g" d="M66.84,95.3c-.15.76-.28,1.29-.41,1.8.1-.37.2-.79.3-1.24,0-.18.07-.35.11-.53v0"/><path class="g" d="M79.38,96.3a11.93,11.93,0,0,0-.77,1.39,4.81,4.81,0,0,1-.91,1l-.14.11h.13l.54.07.26,0,.71.11h.1l.36.07c0-.13,0-.26,0-.38a11.1,11.1,0,0,0-.29-2.47"/><path class="g" d="M66.43,97.1a4.26,4.26,0,0,1-.11.42c0-.11.06-.23.1-.35V97.1"/><path class="g" d="M66.32,97.52l0,.13,0,.11,0-.05,0-.11,0-.08"/><path class="g" d="M66.25,97.76l-.09.33,0-.1.06-.23"/><path class="g" d="M66.16,98.09l0,.1v0l0,0v0"/><path class="g" d="M71.18,98.23h0l4,.38-4-.38m-5.06,0h0l0,.12c0,.08,0,.16-.07.24-.11.29-.16.42-.28.71h0l.06-.1-.06.11h0c.1-.25.23-.56.4-1.08"/><path class="g" d="M77.51,98.82l.14,0h0l-.17,0"/><path class="g" d="M78.13,98.9l.25,0-.15,0h-.1"/><path class="g" d="M78.67,99l.44.07h.09L78.67,99"/><path class="g" d="M79.33,99.09l.33.06h0c-.11,0-.22-.05-.33-.06"/><path class="h" d="M76.66,67.37a1,1,0,0,0-.24,0c-.78.28-1.72,0-2.41.54a63.85,63.85,0,0,0-3.85,5.53l4,.54a2.54,2.54,0,0,1,1.14-.26,4.15,4.15,0,0,1,3.08,1.71c.79.54,1.28,3.18,1.45,5.42v0a3.85,3.85,0,0,1-.06.66c.57-1.15,1.21-2.4,1.89-3.76.6-1.14,1.43-2.43,2.21-3.79A16.88,16.88,0,0,1,79,69.1c-.58-.71-1.43-1.73-2.35-1.73"/><path class="h" d="M88.76,97.29h0v0h0v0h0m.17-3.44h0l-.09,1.66h0c0-.53.06-1,.08-1.52v-.14h0M87.28,70.5a.73.73,0,0,0-.26.06h0c-.07.5-.53,1.2-.64,1.84-.46,1.32.06,2.2-.66,3.46-.54,1.25-1.46,2.45-1.93,3.59a5.31,5.31,0,0,0-.22,1.38,3.25,3.25,0,0,0,0,.44h0c0,.61-.08,1.18-.08,1.73a11,11,0,0,0,.67,4c1,.09,1.26.52,1.26,1s-.21,1-.21,1.41v.09h0c0,.28-.38.6-.61,1a.49.49,0,0,0,0,.12c0,.4.23.78.23,1.15s-.16.6-.73.89c-1.51.69-3,1.3-4.32,1.86L76,96.07c-.46.2-1.12.53-1.88.88s-1.58.73-2.38,1l-.3.12-.15.06-.07,0h0l4,.38,2.13.19.23,0h0l.14-.11a4.81,4.81,0,0,0,.91-1,11,11,0,0,1,.77-1.39c2.59.23,5.8.14,7.65,1.06a9.14,9.14,0,0,0,1.58.11h.14l0,.65c0-.22,0-.43,0-.65A3.74,3.74,0,0,0,90.41,97c0,.09.11.13.17.13.3,0,.63-1.1.72-2.24,0-.2,0-.4,0-.6,0-.9-.16-1.66-.48-1.66a.46.46,0,0,0-.32.19h0a1.17,1.17,0,0,0,.28-.74,2.17,2.17,0,0,0-1-1.47l-.65-.54h0c.2-2.69.4-5.29.6-7.84l0-.63v-.07h0v0l0,0a1.24,1.24,0,0,0-.21-.25,4.17,4.17,0,0,1-.56-.81,11.84,11.84,0,0,0-2-3.43,2.45,2.45,0,0,1,0-.27,2.39,2.39,0,0,1,.17-.87c.33-.7,1.07-1.61,1.52-2.45a2.32,2.32,0,0,0,.34-1.1.84.84,0,0,0-.59-.83c-.54-.18-.72-.93-1.22-.93"/><path class="h" d="M80.36,90v.15A12.41,12.41,0,0,1,80.22,92c0,.11,0,.22,0,.33q.8-.48,1.62-1A.47.47,0,0,0,82,91c0-.1-.08-.18-.25-.21A2.1,2.1,0,0,1,80.36,90"/><path class="h" d="M88.73,98.11v.43l0-.43"/><path class="h" d="M88.71,98.54v0"/><path class="h" d="M76.27,98.71l1.38.13-.14,0-.29,0h.09l-1-.1"/><path class="h" d="M88.71,98.71c0,.2,0,.39,0,.58v-.58"/><path class="h" d="M77.65,98.84l.22,0-.18,0h0"/><path class="h" d="M78,98.88h0m-.31,0h0l.37,0h.17l-.54-.07"/><path class="h" d="M78.23,98.91l.15,0,.11,0-.26,0"/><path class="h" d="M78.61,99l.5.08L78.67,99h-.06"/><path class="h" d="M79.11,99.05l.57.1-.35-.06-.13,0h-.09"/><path class="h" d="M79.2,99.06l.1,0h-.1"/><path class="h" d="M79.68,99.15l1,.2-.3-.07-.67-.13"/><path class="h" d="M80.66,99.35l.66.15.31.08-.85-.2-.12,0"/><path class="h" d="M88.7,99.45V100c0-.16,0-.35,0-.56"/><path class="h" d="M81.63,99.58c.21.06.43.11.64.18s.38.1.55.16c-.39-.13-.79-.24-1.19-.34"/><path class="h" d="M88.69,100v.27c0,.53,0,1,0,1.31,0-.41,0-.92,0-1.58m0,0h0"/><path class="h" d="M83.14,100l.41.13-.11,0a2.64,2.64,0,0,0-.3-.1"/><path class="h" d="M83.55,100.15c.36.13.71.25,1.06.39l-.34-.13-.6-.22h0l-.08,0"/><path class="h" d="M84.75,100.59l.31.13-.31-.13"/><path class="h" d="M85.06,100.72h0"/><path class="h" d="M85.31,100.83l.8.38-.38-.19-.42-.19"/><path class="h" d="M86.11,101.21l.71.39-.09,0-.14-.09-.48-.25"/><path class="h" d="M86.7,101.53l0,0a1.75,1.75,0,0,1,.27.16l.22.13c-.13-.09-.29-.18-.46-.28l-.06,0"/><path class="h" d="M87,101.69l.13.08-.11-.06,0,0m1.75-.1c0,.29,0,.52,0,.73,0-.21,0-.45,0-.73"/><path class="h" d="M87.76,102.21l.16.13h0l-.16-.12m-.09-.06.25.18h0l.07.06h0l.11.09-.46-.35"/><path class="h" d="M88.78,102.32v0"/><path class="h" d="M88.06,102.45l.08.06-.08-.06"/><path class="h" d="M88.8,102.46a1.1,1.1,0,0,0,0,.18,4.2,4.2,0,0,0,.07.48l0,.18v.06h0l-.05-.3c0-.17-.06-.36-.08-.6"/><path class="h" d="M88.32,102.68l.1.09.07.07h0l-.19-.17"/><path class="h" d="M88.39,102.74l.21.22h0l-.17-.18,0,0"/><path class="h" d="M88.6,103h0"/><path class="h" d="M88.62,103l.16.19,0,0-.12-.13h0"/><path class="h" d="M88.91,103.24v.07h0v-.06m-.24-.22.07.09.05.07-.12-.16"/><path class="h" d="M88.91,103.28h0m0,0v0h0v0"/><polyline class="i" points="88.91 103.28 88.91 103.28 88.91 103.28 88.91 103.28 88.91 103.28 88.91 103.28 88.91 103.28 88.91 103.28 88.91 103.28"/><polyline class="h" points="88.91 103.28 88.91 103.28 88.91 103.28 88.91 103.28"/><polyline class="h" points="88.91 103.28 88.91 103.28 88.91 103.28 88.91 103.28"/><polyline class="h" points="88.91 103.28 88.91 103.28 88.91 103.28 88.91 103.28 88.91 103.28 88.91 103.28"/><path class="h" d="M88.91,103.28h0m0,0h0"/><polyline class="h" points="88.91 103.28 88.91 103.28 88.91 103.28 88.91 103.28"/><polyline class="h" points="88.91 103.28 88.91 103.28 88.91 103.28 88.91 103.28 88.91 103.28 88.91 103.28 88.91 103.28 88.91 103.28 88.91 103.28"/><polyline class="h" points="88.91 103.28 88.91 103.28 88.91 103.28 88.91 103.28 88.91 103.28"/><polyline class="h" points="88.91 103.28 88.91 103.28 88.91 103.28 88.91 103.28 88.91 103.28 88.91 103.28 88.91 103.29 88.91 103.28"/><path class="h" d="M88.91,103.29h0"/><polyline class="h" points="88.91 103.29 88.91 103.29 88.91 103.29 88.91 103.29"/><polyline class="h" points="88.91 103.29 88.91 103.3 88.92 103.31 88.91 103.3 88.91 103.3 88.91 103.29"/><polyline class="h" points="88.92 103.3 88.92 103.3 88.92 103.3 88.92 103.3"/><polyline class="h" points="88.92 103.31 88.92 103.32 88.92 103.32 88.92 103.32 88.92 103.31"/><path class="h" d="M88.89,103.31a.28.28,0,0,0,0,.08h0l0-.08"/><polyline class="h" points="88.92 103.34 88.92 103.34 88.93 103.35 88.93 103.35 88.92 103.34"/><path class="h" d="M88.93,103.35h0v0h0v0h0v0h0"/><path class="h" d="M88.93,103.36h0"/><path class="h" d="M88.94,103.37v0h0v0"/><polyline class="h" points="88.93 103.38 88.93 103.39 88.93 103.39 88.93 103.38"/><polyline class="h" points="88.94 103.39 88.94 103.39 88.95 103.4 88.94 103.39"/><polyline class="h" points="88.94 103.39 88.94 103.4 88.94 103.4 88.94 103.39 88.94 103.39"/><polyline class="h" points="88.94 103.4 88.94 103.4 88.94 103.4 88.94 103.4 88.94 103.4"/><path class="h" d="M88.94,103.42h0m0,0h0"/><path class="h" d="M88.94,103.41h0v0h0v0h0"/><path class="h" d="M89,103.42h0m0,0h0v0h0v0h0"/><path class="h" d="M89,103.43h0"/><path class="h" d="M89,103.44h0v0h0"/><path class="h" d="M89,103.45v.06h0v0h0"/><path class="h" d="M89,103.47h0v0h0v0h0v0h0"/><polyline class="h" points="88.96 103.47 88.96 103.47 88.96 103.48 88.96 103.47 88.96 103.47"/><path class="h" d="M89,103.48h0"/><polyline class="h" points="88.96 103.5 88.97 103.5 88.97 103.5 88.96 103.5"/><path class="h" d="M89,103.5v0h0"/><path class="j" d="M44.12,56.81h0a5.92,5.92,0,0,1,.08.8,5.92,5.92,0,0,0-.08-.8"/><path class="a" d="M27.44,71.92l-.1.1a30.47,30.47,0,0,0-1.47,2.68A41,41,0,0,0,23,82.48c-.07.28-.13.55-.2.82h0c.07-.27.13-.54.2-.82a41,41,0,0,1,2.9-7.78l.08-.16c.83-1.65,1.39-2.52,1.39-2.52h0l.1-.1h0m10-7.63-.48.06-.85.36-.89.39c-.34.17-.72.38-1.12.63a16.38,16.38,0,0,0-2.48,1.9c-.23.23-.46.45-.66.68h0c.2-.23.43-.45.66-.68h0a16.38,16.38,0,0,1,2.48-1.9c.4-.25.78-.46,1.12-.63h0l.89-.39h0l.85-.36.25,0,.23,0h0m5.39-2.58a6.5,6.5,0,0,1-1.81,1.46h0a6.5,6.5,0,0,0,1.81-1.46h0"/><path class="k" d="M22.77,83.3h0c-.14.59-.27,1.18-.38,1.8-.17.93-.31,1.82-.41,2.76-.05.47-.1.94-.13,1.4s-.05,1-.08,1.49,0,1,0,1.47h0q0-.73,0-1.47h0c0-.49.06-1,.08-1.49h0c0-.46.08-.93.13-1.4h0c.1-.94.24-1.83.41-2.76h0c.11-.62.24-1.21.38-1.8m8.23-15h0a4.89,4.89,0,0,0-.92,1.32,33.8,33.8,0,0,0-2.64,2.29h0a33.8,33.8,0,0,1,2.64-2.29h0A4.87,4.87,0,0,1,31,68.31"/><path class="j" d="M21.77,90.75q0,.73,0,1.47h0c0-.48,0-1,0-1.47m.08-1.49c0,.5-.05,1-.08,1.49,0-.49.06-1,.08-1.49m.54-4.16c-.17.93-.31,1.82-.41,2.76.1-.94.24-1.83.41-2.76M27.34,72s-.56.87-1.39,2.52c.83-1.65,1.39-2.52,1.39-2.52m2.74-2.39a33.8,33.8,0,0,0-2.64,2.29l-.1.1.1-.1a33.8,33.8,0,0,1,2.64-2.29m1.58-2c-.23.23-.46.45-.66.68a4.87,4.87,0,0,0-.91,1.31A4.89,4.89,0,0,1,31,68.3c.19-.22.42-.44.65-.67m4.49-2.92-.89.39.89-.39m7.62-4.49a5.49,5.49,0,0,1-.9,1.49,6.5,6.5,0,0,1-1.81,1.46,10.72,10.72,0,0,1-3.58,1.12l-.23,0,.23,0a10.72,10.72,0,0,0,3.58-1.12,6.5,6.5,0,0,0,1.81-1.46,5.34,5.34,0,0,0,.9-1.49M44.21,58a6,6,0,0,1-.44,2.27A6,6,0,0,0,44.21,58m0,0h0"/><path class="a" d="M30.36,118.33a4.67,4.67,0,0,1,.26.72h0a20.39,20.39,0,0,0,1.3,2.09h0a29.46,29.46,0,0,0,1.88,2.37h0a29.79,29.79,0,0,0,3,2.95,31.28,31.28,0,0,0,10.11,5.84l.1,0a27,27,0,0,0,6.63,1.4h0c.46,0,.92,0,1.36,0h0a17,17,0,0,0,2.65-.2h0a17,17,0,0,1-2.65.2c-.44,0-.9,0-1.36,0a27.32,27.32,0,0,1-6.73-1.43,31.28,31.28,0,0,1-10.11-5.84,29.79,29.79,0,0,1-3-2.95,29.46,29.46,0,0,1-1.88-2.37,20.39,20.39,0,0,1-1.3-2.09,4.67,4.67,0,0,0-.26-.72h0m-6-16.09a54.38,54.38,0,0,0,2.17,7.38h0l0,.09.12.33h0l-.16-.42a54.38,54.38,0,0,1-2.17-7.38h0"/><path class="k" d="M59.4,133.18a14.45,14.45,0,0,1-1.77.39h0a14.45,14.45,0,0,0,1.77-.39M26.65,110h0c.68,1.8,1.5,3.65,2.26,5.22h0L30,117.5l0,0,0,.06c.13.27.24.52.34.74h0c-.1-.24-.23-.51-.36-.8l-1.09-2.27c-.76-1.57-1.58-3.42-2.26-5.22h0M24.13,102h0l.13.15,0,0h0l0,.1h0l0-.1-.17-.19h0m-2.39-9.73h0c0,.58,0,1.16.06,1.7h0a22.27,22.27,0,0,0,.65,4.31h0a22.27,22.27,0,0,1-.65-4.31c0-.54-.06-1.12-.06-1.7"/><path class="j" d="M53.62,133.73c.46,0,.92,0,1.36,0-.44,0-.9,0-1.36,0M47,132.33a27,27,0,0,0,6.63,1.4,27,27,0,0,1-6.63-1.4M31.92,121.14a29.46,29.46,0,0,0,1.88,2.37,29.46,29.46,0,0,1-1.88-2.37M30,117.59c.13.27.24.52.34.74a4.67,4.67,0,0,1,.26.72,4.67,4.67,0,0,0-.26-.72c-.1-.22-.21-.47-.34-.74m-1.11-2.33L30,117.5l-1.07-2.24m-2.38-5.55.12.33c.68,1.8,1.5,3.65,2.26,5.22-.76-1.57-1.58-3.42-2.26-5.22l-.12-.33m-2.23-7.57,0,.1a54.38,54.38,0,0,0,2.17,7.38,54.38,54.38,0,0,1-2.17-7.38l0-.1m-2.5-8.22a22.27,22.27,0,0,0,.65,4.31A9.74,9.74,0,0,0,24.13,102l.13.15-.13-.15a9.74,9.74,0,0,1-1.68-3.72,22.27,22.27,0,0,1-.65-4.31m-.06-1.7h0"/><path class="l" d="M86.42,70a.37.37,0,0,0-.22.12,5.26,5.26,0,0,0-1.2,1.6c-.34.76-.74,1.51-1.15,2.24-.78,1.36-1.61,2.65-2.21,3.79-.68,1.36-1.32,2.61-1.89,3.76-1.14,2.32-2,4.22-2,5.79,0,.44,1,.5,1.48.77.67.28.69.84.86,1.35a1.78,1.78,0,0,0,.25.52,2.1,2.1,0,0,0,1.34.78c.17,0,.25.11.25.21a.47.47,0,0,1-.16.31c-1.14.75-2.26,1.42-3.37,2a39.86,39.86,0,0,1-6.7,2.91c-1.13.36-2.72,1.06-4.12,1.51l-.26.08-.12,0-.06,0,4,.37h.06l.07,0,.15-.06.3-.12c.8-.32,1.64-.69,2.38-1s1.42-.68,1.88-.88l3.79-1.54c1.37-.56,2.81-1.17,4.32-1.86.57-.29.73-.58.73-.89s-.23-.75-.23-1.15a.49.49,0,0,1,0-.12c.23-.36.58-.68.61-1v-.09c0-.4.21-.94.21-1.41s-.25-.93-1.26-1a11,11,0,0,1-.67-4c0-.55,0-1.12.08-1.73a3.25,3.25,0,0,1,0-.44,5.31,5.31,0,0,1,.22-1.38c.47-1.14,1.39-2.34,1.93-3.59.72-1.26.2-2.14.66-3.46.11-.64.57-1.34.64-1.84h0c-.26-.1-.37-.52-.6-.52"/><path class="l" d="M71.17,98.23h0m-1.35-.12,3.75.35,2.7.25,1,.1h-.09l.29,0,.17,0h-.15l-.23,0-2.13-.19-4-.38h0l-1.34-.13"/><path class="l" d="M77.69,98.84l.18,0h.23l.51.07h.06l.53.08L78.49,99l-.11,0-.25,0h-.07l-.37,0"/><path class="l" d="M79.2,99.06h0l.13,0,.8.15-.93-.18h0"/><path class="l" d="M80.13,99.24l.13,0,.09,0,.3.07c.5.11,1,.23,1.39.34l-.72-.19-.66-.15-.28-.06-.25-.05"/><path class="l" d="M82,99.69c.4.11.77.22,1.1.33a2.64,2.64,0,0,1,.3.1l.15,0c-.2-.08-.46-.16-.77-.25s-.35-.11-.55-.16L82,99.69"/><path class="l" d="M83.59,100.17h.08l.41.14-.49-.16"/><path class="l" d="M84.08,100.33l.15.06,0,0,.34.13.7.29.42.19.14.07c-.25-.12-.52-.25-.81-.37h0l-.31-.13-.67-.26"/><path class="l" d="M85.87,101.09l.72.37.14.09,0,0a9.28,9.28,0,0,0-.83-.44"/><path class="l" d="M86.73,101.55l.09,0,.08.05.08,0,0,0a1.75,1.75,0,0,0-.27-.16"/><path class="l" d="M87,101.71l.11.06.65.44.16.12-.25-.18a5.09,5.09,0,0,0-.45-.31l-.22-.13"/><path class="l" d="M88.78,102.26h0a.67.67,0,0,0,0,.1v.1c0,.09,0,.21,0,.35s0,.18,0,.27c0-.13,0-.27-.06-.44a1.1,1.1,0,0,1,0-.18.88.88,0,0,1,0-.17v0"/><path class="l" d="M87.92,102.33h0l.14.11.08.06.25.23,0,0-.1-.09v0l-.18-.16-.11-.09-.09-.07h0"/><path class="l" d="M88.42,102.77l.17.18,0,0,.12.13-.07-.09-.16-.17h0l-.07-.07"/><polyline class="l" points="88.88 103.08 88.88 103.09 88.88 103.09 88.88 103.08"/><path class="l" d="M88.88,103.09l0,.15v.06l0-.18v0"/><path class="l" d="M88.74,103.11l0,0,.11.15,0,.08h0l-.14-.2-.05-.07"/><path class="l" d="M88.91,103.28h0m0-.06v.06h0v-.06"/><polyline class="l" points="88.91 103.27 88.91 103.28 88.91 103.28 88.91 103.28 88.91 103.28 88.91 103.28 88.91 103.28 88.91 103.27"/><path class="l" d="M88.91,103.28h0m0,0h0m0,0h0"/><polyline class="l" points="88.91 103.28 88.91 103.28 88.91 103.28 88.91 103.28 88.91 103.28 88.91 103.28 88.91 103.28"/><path class="l" d="M88.91,103.28h0m0,0h0m0,0h0"/><path class="l" d="M88.93,103.35h0m0-.07h0v0h0v0h0v0h0v.05h0v-.05h0v0h0v0h0v0"/><path class="l" d="M88.91,103.28h0m0,0h0"/><path class="l" d="M88.92,103.3v0h0v-.06"/><path class="l" d="M88.93,103.36h0v0h0v0h0"/><path class="l" d="M88.94,103.37h0m0,0v0h0v0h0v0h0v0h0v0h0l0,0h0v0h0v0h0v0h0v0h0"/><path class="l" d="M88.94,103.4h0m0,0h0"/><path class="l" d="M89,103.47h0m0-.07h0m0,0v0h0v0h0v0h0v0h0v0h0"/><path class="l" d="M89,103.47h0v0"/><path class="l" d="M89,103.48h0m0,0h0"/><path class="l" d="M89,103.5h0m0,0,0,.07v0h0v0h0"/><path d="M78.7,35.72c.35-2.11.79-4.53,1.12-6.95a47.72,47.72,0,0,1,3-9.92c.86-2.31,1.67-4.65,3.35-6.54A12.4,12.4,0,0,1,87.4,11c2.24-1.89,3.75-.89,5.52.85.2.2.07,1.05-.19,1.36-1.46,1.73-3.14,3.27-4.5,5.07a29.37,29.37,0,0,0-6.4,18c1.76,1.66,3.4,3.18,5,4.72a2.4,2.4,0,0,1,.52,2.62,8.2,8.2,0,0,0,.13,4.66c.84,3.77,1.22,7.61,2.42,11.32a104.75,104.75,0,0,0,5.38,13.32c1.53,3.18,3.29,6.26,4.64,9.51,1.27,3.06,2.15,6.29,3.2,9.44a30.76,30.76,0,0,1,1.08,3.42,38.51,38.51,0,0,1,.89,6.1c.11,3.52,1.31,6.78,2.15,10.13.32,1.29.73,2.55,1,3.85a4.52,4.52,0,0,1-.08,2c-.61,2.25-1.27,4.49-2,6.7a5.29,5.29,0,0,1-1.12,1.86c-1.24,1.38-2.55,2.7-3.85,4-1.84,1.87-4.2,2.23-6.69,2.55-2.73.35-5.06-.52-7.51-1.43-3.29-1.24-6.67-2.25-10-3.31a2.5,2.5,0,0,0-1.53,0c-3,1.18-5.86.6-8.68-.73a4.33,4.33,0,0,0-2.26-.4c-1.91.23-3.82.59-5.7,1-4.28.94-8.41.9-12.17-1.73a14,14,0,0,1-4.55-4.68A10.15,10.15,0,0,0,41,119.55a8.41,8.41,0,0,1-1.89-3.91,14.11,14.11,0,0,0-.87-2.86,14.88,14.88,0,0,1-.54-10c1.6-5.64,3.63-11.09,7.3-15.84,3.54-4.57,6.77-9.39,10.2-14.06,1.77-2.41,3.75-4.68,5.52-7.1s3.67-5.23,5.41-7.9a18.17,18.17,0,0,0,1.67-3.4c1.24-3.3,2.35-6.65,3.6-9.94a28,28,0,0,1,2-4.32,9.57,9.57,0,0,1,2.14-2.31C76.47,37.13,77.52,36.52,78.7,35.72ZM45.46,89.07l1.65-1.9-.42-.29c-.39.75-.79,1.49-1.19,2.23C44,90.46,42.82,92.54,43,94.2ZM66.32,60.66a7.42,7.42,0,0,0-2.51,3.5c1-1,2.32-1.89,2.48-3.54a5,5,0,0,0,1.1-1A35.72,35.72,0,0,0,71,51c.26-1.09.57-2.16.85-3.24l-.4-.11c-.24.74-.48,1.48-.7,2.22a41.25,41.25,0,0,1-3.28,8.51C67.09,59.14,66.71,59.9,66.32,60.66Zm38.06,50.71c0-.83.05-1.56,0-2.27-.29-3.45-.28-7-1-10.33a72.34,72.34,0,0,0-6.25-18.68q-1-2-2-4.11-1.86-4-3.66-8A63.09,63.09,0,0,1,87,54c-.71-3.79-1.47-7.58-2.23-11.36a6.41,6.41,0,0,0-2.83-4.19,3.34,3.34,0,0,0-4.3.32A13.16,13.16,0,0,0,74,45.52a66.12,66.12,0,0,1-1.64,7,38.12,38.12,0,0,1-10,16,23.09,23.09,0,0,0-2.51,3.06c-2.56,3.57-4.86,7.35-7.68,10.69-2,2.31-3.42,4.9-5.14,7.32a56.75,56.75,0,0,0-3.89,7,22.75,22.75,0,0,0-2.88,9.08A20.5,20.5,0,0,0,45,120.84a13.35,13.35,0,0,0,8.24,4.51,30.24,30.24,0,0,0,9.54-.18c4.73-.84,9.32,0,13.89.65a112,112,0,0,1,12.41,3,25.79,25.79,0,0,0,6.11.79,9.81,9.81,0,0,0,6.58-2.44c2.25-1.8,3.09-4.3,4.09-6.9,1.27-3.31.35-6.18-.47-9.24Zm-13-98.84c-1.61-1.25-1.63-1.28-2.75-.42a8.25,8.25,0,0,0-1.39,1.38C84.43,16.94,83.46,21.2,82,25.25c-.34,1-.54,2-.81,3l.37.16A35,35,0,0,1,91.36,12.53ZM57.28,73.13l-.39-.31-1,1.59.32.21C56.55,74.13,56.91,73.63,57.28,73.13ZM86.45,43.9h.22l0-1-.23,0Zm-32.64,34-.3-.22-.77,1.05L53,79Z"/><path d="M77.82,103l-3.51.22a15.65,15.65,0,0,1-.75,9.78v-5.28l-.68.31v-4.44l-3.36,1a3.36,3.36,0,0,1-4.18-1.8,5.51,5.51,0,0,1,.12-6.07c1.7-2.53,3.57-5,5.48-7.34s4-4.77,4.73-8a10.78,10.78,0,0,1,1.06-2.48c1.46-2.86,1.33-6.08,2-9.11a9.53,9.53,0,0,1,.88-2.55c-.45,3.89.53,8-1.45,11.64a2.9,2.9,0,0,0,0,1.44c0,.56.17,1.12.3,1.94l-1.2-.39c-.93,1.67-1.72,3.41-2.79,5C73,89,71.33,90.94,69.78,93a32,32,0,0,0-2.61,3.76,9.59,9.59,0,0,0-1,3.19,2.69,2.69,0,0,0,3.66,3c1.14-.37,2.24-.86,3.37-1.23a5.33,5.33,0,0,1,4.67.69Z"/><path d="M73.44,92.06a15.13,15.13,0,0,1,2.21,2.85A5.19,5.19,0,0,0,78,97.47c.59.34,1.4.62,1.07,1.7-.7.29-1.21-.19-1.78-.48s-1.05-.52-1.54-.76a20.08,20.08,0,0,1-2.42,1.53,6.24,6.24,0,0,1-2.46.58,2.13,2.13,0,0,1-2-1.65,1.7,1.7,0,0,1,.92-2.17A8.13,8.13,0,0,0,73.44,92.06ZM74,94.84,70.3,98c1.1.94,1.63,1,2.43.28a10.13,10.13,0,0,0,1.66-2.18C74.5,95.87,74.18,95.4,74,94.84Z"/><path d="M78.89,101.8c.8-.19,1.16-.3,1.52-.37,1.62-.3,2.07-.91,1.54-2.5a16.1,16.1,0,0,0-1.51-3.23,36.85,36.85,0,0,1-3.3-8.3,4.89,4.89,0,0,1,.17-1.3A13.42,13.42,0,0,1,78.85,89c1,2.09,2,4.16,3,6.25a23.76,23.76,0,0,1,1.7,3.8A3,3,0,0,1,80,102.67C79.69,102.58,79.48,102.29,78.89,101.8Z"/></svg>