<svg xmlns="http://www.w3.org/2000/svg" viewBox="0 0 150 150"><defs><style>.a{fill:#f1f3b7;}.b{fill:#ecf0a5;}.c{fill:#e3e876;}.d{fill:#e0e871;}.e{fill:#e4eb80;}.f{fill:#ebef9b;}.g{fill:#f7f8d1;}.h{fill:#f4f6c3;}.i{fill:#edf0a3;}.j{fill:#e9ed95;}.k{fill:#fbfbed;}</style></defs><title>icon</title><path class="a" d="M122.61,42.06l-.43.2a4.2,4.2,0,0,0,.14.59,5,5,0,0,1,.29-.79"/><path class="a" d="M122.24,44.8c-.74.72-2.07,1.37-2.77,2a2.77,2.77,0,0,0-.7,2c0,.55.08,1.12.07,1.7a4,4,0,0,1-.06.77,5.82,5.82,0,0,1-1.92,1.81,1.24,1.24,0,0,0-.75,1.09,6.35,6.35,0,0,0,.87,2.14,1.3,1.3,0,0,1,.26.77,2.62,2.62,0,0,1-.49,1.32,4.18,4.18,0,0,0-.9,1.93.37.37,0,0,0,0,.11h0v0c0,.92.79,1.89,1.39,2.86a3.64,3.64,0,0,1,.64,1.68,1.08,1.08,0,0,1-.45.89.48.48,0,0,1,.27-.1c.25,0,.35.36.35.87a7.7,7.7,0,0,1-.24,1.73c-.28,1.13-.78,2.15-1.08,2.15-.08,0-.15-.07-.19-.22,0,0-.18.07-.39.07a5.38,5.38,0,0,1-1.46-.23,8.29,8.29,0,0,1-1.51-.72c-1.62-1.69-4.79-2.81-7.25-4h0c-.16,0-.44.6-1,1.16a3.16,3.16,0,0,1-2.23.94,3.87,3.87,0,0,1-.48,0c-.82-.14-1.66-.35-2.42-.52a10,10,0,0,0-1.94-.33,1.21,1.21,0,0,0-.5.09c.06.25,1.14,1.13,1.17,1.4h0v0a32.65,32.65,0,0,1,1.65,6,15.55,15.55,0,0,1,.15,2.12c0,2.13-.44,3.88-.94,3.88h-.05a7.07,7.07,0,0,1-3.15-2.78c-2-3.21-3.6-4.33-5.37-6.94-.46-.7-.87-1.63-1.34-2.33-1.32-1.89-2.82-4.1-3.2-4.47-.61-.72-1-1.11-1.17-1.11s-.14.1-.14.31A.49.49,0,0,0,85,63h-.53c.09.81.19,1.8.25,2.93,0,.94.07,1.75.07,2.26,0,.35,0,.56-.09.56s0,0-.08-.06h0s0,0,0,.06,0,.36,0,.7.08,1.15.11,1.91c0,.24,0,.5,0,.76a12.41,12.41,0,0,1-.6,3.84c0,.06.24.54.66,1.34.09-.32.23-.8.39-1.39s.21-1,.33-1.66.22-1.18.34-1.69c.28-1,.5-1.82,1-1.82s1.12.71,2.28,2.57l1.41,1.3c.89.83,2.16,1.91,3.64,3.14s3.12,2.54,4.55,4a9,9,0,0,1,2.84,4.67s.07.41.15,1.16a30.13,30.13,0,0,1,.16,3.18h0A31.22,31.22,0,0,1,100,101a29,29,0,0,1-7.36,11.25q-.66.61-1.35,1.17L90,114.43a18.93,18.93,0,0,1-2.64,1.76,15.86,15.86,0,0,1-5.65,2,2.58,2.58,0,0,0-1.2.51,17.88,17.88,0,0,0-3.61,3.49,13.37,13.37,0,0,1-1.42.53,13.82,13.82,0,0,1-3.43.66c-.26,0-.54,0-.81,0-2.46,0-5.12-.85-6.36-3.53l-1.48-1.38c-.9-.86-2.14-2-3.43-3.12-2.61-2.31-5.45-4.67-7.65-4.7,0,0-.12-.33-.34-.8a14.45,14.45,0,0,0-.91-1.67,4.24,4.24,0,0,0-1.84-1.71h-.41l-1,0h0a2.17,2.17,0,0,1,.7-.11,2.12,2.12,0,0,1,.75.14l1.8,0c-4.77-.82-8.93-2.48-8.92-4.21a.28.28,0,0,0,0-.09s-.44-.36-1.09-.93-1.51-1.43-2.37-2.37a21.79,21.79,0,0,1-2.32-3.08,8.91,8.91,0,0,1-1-2.27c0,.43,0,.87,0,1.33v.36a72.35,72.35,0,0,1-1.11,10.12c-.61,3-1.69,6.8-1.69,9.85,0,2.31.62,4.18,2.52,4.95a21.12,21.12,0,0,0,4.11.76l4.17.27a18.49,18.49,0,0,1,3.9.66,18.2,18.2,0,0,0-2.61-.74,19.69,19.69,0,0,0-3.62-.36H40.8a12.57,12.57,0,0,0-1.57.1,12.57,12.57,0,0,1,1.57-.1h0a12.57,12.57,0,0,0-1.57.1,12.57,12.57,0,0,1,1.57-.1H41a19.6,19.6,0,0,1,3.61.36,18.2,18.2,0,0,1,2.61.74,10.5,10.5,0,0,1,3.19,1.6,17.61,17.61,0,0,1,3.85,3.39,25.86,25.86,0,0,0,7,4.35,2.19,2.19,0,0,0,.33.24,3.53,3.53,0,0,0,1.17.28h.11L65,133.14c2.16,0,4.42.49,6.62.57A15.16,15.16,0,0,0,76,133a7.7,7.7,0,0,0,1.56-.71A7,7,0,0,0,79,130.83a1.09,1.09,0,0,0,.08-.15h0l.08-.11a21.27,21.27,0,0,1,3-.66,12.77,12.77,0,0,1,2.51-.39h0a2.06,2.06,0,0,1,.54.06l.51-.06a8.57,8.57,0,0,0,5.51-2.72c.3-.33.57-.66.89-1l1-1c.38-.38.75-.76,1.11-1.15q.28-.39.57-.81l.06-.08-.06.08h0l.06-.08-.06.08q-.29.42-.57.81l.88-.94L99,118.61a35.69,35.69,0,0,1,7.46-6.58,32.08,32.08,0,0,1,9.36-4.23,1.94,1.94,0,0,1,.55-.06,27.57,27.57,0,0,1,4,.56c2.07.4,4.28.75,5.36.94a5.73,5.73,0,0,0,.81.06,4.69,4.69,0,0,0,3.75-1.94,9.7,9.7,0,0,0,1.78-4.73,145,145,0,0,1,.9-14.88,3.09,3.09,0,0,1,.34-.68c.7-1,2-1.73,2.59-3.09a8.64,8.64,0,0,0,.22-2,14.3,14.3,0,0,0-.74-4.23c-.61-2-1.46-3.93-2-5.79a31.66,31.66,0,0,0-1.2-7.22,11.7,11.7,0,0,0-1.43-3.22,3.44,3.44,0,0,0-1.23-1.11s0,0,0-.07v0c0-1.12,2.74-1.44,3.27-3a3.42,3.42,0,0,0,.06-.62,3.52,3.52,0,0,0-.73-2.08,7.93,7.93,0,0,0-2.2-2,34.28,34.28,0,0,1-6.08-5,6.58,6.58,0,0,1-1.6-3"/><path class="a" d="M36.38,65.3a2.35,2.35,0,0,0-1.24.87A31.35,31.35,0,0,0,29.93,79.5a8.7,8.7,0,0,0-.07,1.11c0,3.26,2,5,3.74,7.22a8.71,8.71,0,0,1,1.64,4.72,28.86,28.86,0,0,0,.31-3.6l-1.82-1.16C32,85.59,30,83.83,30,80.57a8.86,8.86,0,0,1,.07-1.12,31.34,31.34,0,0,1,5.2-13.32,2.32,2.32,0,0,1,1.11-.83"/><path class="a" d="M85.25,78.13c.14.26.29.53.44.83l.1.19c0-.09.11-.18.16-.28a5.81,5.81,0,0,0-.38-.46c-.1-.1-.21-.19-.32-.28"/><path class="a" d="M82.9,86.82a54.18,54.18,0,0,1-4.92,5c-.73.65-1.48,1.29-2.26,1.91A12.8,12.8,0,0,0,78,92.51a14.54,14.54,0,0,0,4.86-5.69"/><path class="a" d="M90.85,93.78c0,.13,0,.26-.07.39a34.61,34.61,0,0,1-1.7,6.18,25,25,0,0,0,1.84-5.62s0-.35-.07-1"/><path class="a" d="M80.91,109.06l-1.56.17c-1.16.14-2.5.25-3.67.38a8.52,8.52,0,0,0,1.68.17,8.94,8.94,0,0,0,2-.24,9.82,9.82,0,0,0,1.52-.48"/><path class="a" d="M50.43,123.42c.2.15.4.3.59.47,1.11,1,2.18,2,3.26,2.92a17.64,17.64,0,0,0-3.85-3.39"/><path class="a" d="M84.76,129.51h0a12.77,12.77,0,0,0-2.51.39c1.12-.16,2.12-.23,3.08-.33a2.06,2.06,0,0,0-.54-.06"/><path class="a" d="M79.15,130.67h0a1.09,1.09,0,0,1-.08.15l.12-.16"/><path class="a" d="M61.58,131.4a18.54,18.54,0,0,0,3.34,1.74H65l-2.17-1.46h-.11a3.58,3.58,0,0,1-1.17-.28"/><path class="b" d="M61.58,131.4h0a3.58,3.58,0,0,0,1.17.28h.11L65,133.14h0l-2.17-1.46h-.18a3.68,3.68,0,0,1-1.1-.28"/><path class="a" d="M77.59,132.27A7.7,7.7,0,0,1,76,133a15.16,15.16,0,0,1-4.38.73h1a8.41,8.41,0,0,0,5-1.45"/><path class="c" d="M37.22,65.15a2.62,2.62,0,0,0-.84.15,2.74,2.74,0,0,1,.72-.11,1.23,1.23,0,0,1,.59.13c1.9,1,1.69,4.31,3,6.37.34.07.72.5,1.13.5a.63.63,0,0,0,.22,0,1.66,1.66,0,0,1,.65-.14,4.34,4.34,0,0,1,.63.07,20,20,0,0,1,5.46,5.6c2.16,1.74,4.15,2.13,6.43,3.63,2.11,1.68,4.5,1.19,6.34,3.58A6.32,6.32,0,0,0,66.06,87a12.42,12.42,0,0,0,5.27-1.54c1.19-.58,3.38-1.38,5.4-2.46s3.87-2.44,4.64-3.84a3,3,0,0,1,1.39-1.59,2.92,2.92,0,0,0,1.35-1.42.49.49,0,0,0,0-.11h0c-.72,1.65-2,1.13-2.73,3-.77,1.4-2.6,2.75-4.62,3.85s-4.2,1.88-5.39,2.47a12.46,12.46,0,0,1-5.27,1.55,6.32,6.32,0,0,1-4.52-2.07c-1.84-2.39-4.22-1.9-6.34-3.57C53,79.73,51,79.34,48.87,77.6A20.07,20.07,0,0,0,43.41,72,4.07,4.07,0,0,0,42.8,72a1.55,1.55,0,0,0-.67.14.6.6,0,0,1-.22,0c-.41,0-.79-.42-1.12-.49-1.29-2-1.08-5.33-3-6.36a1.27,1.27,0,0,0-.6-.13"/><path class="d" d="M37.1,65.19a2.74,2.74,0,0,0-.72.11,2.32,2.32,0,0,0-1.11.83,31.34,31.34,0,0,0-5.2,13.32A8.86,8.86,0,0,0,30,80.57c0,3.26,2,5,3.73,7.22L35.55,89c0-.1,0-.2,0-.3,0-2.15-.32-4.43-2-5.09a27.38,27.38,0,0,1-1-5.94c0-.15,0-.29,0-.44,0-2.17.49-4,1.84-4a2.17,2.17,0,0,1,1,.26s.82.1,1.8.25a22,22,0,0,1,2.82.58l.59.63,1.59,1.63c1.35,1.33,3.17,3.13,5.13,4.87,3.87,3.55,8.37,6.84,8.5,8.18,0,0,.28.26.81.68A19,19,0,0,0,59,91.86a21.17,21.17,0,0,0,8.44,3A18.92,18.92,0,0,0,69.6,95a15.53,15.53,0,0,0,6.12-1.21c.78-.62,1.53-1.26,2.26-1.91a54.18,54.18,0,0,0,4.92-5,21.62,21.62,0,0,0,1.88-6.08l1-1.51,0-.08-.1-.19c-.15-.3-.3-.57-.44-.83a4.85,4.85,0,0,0-.57-.35h0s0-.16.13-.45c-.42-.8-.63-1.28-.66-1.34a.49.49,0,0,1,0,.11,2.92,2.92,0,0,1-1.35,1.42,3,3,0,0,0-1.39,1.59c-.77,1.4-2.61,2.74-4.64,3.84s-4.21,1.88-5.4,2.46A12.42,12.42,0,0,1,66.06,87a6.32,6.32,0,0,1-4.54-2.07c-1.84-2.39-4.23-1.9-6.34-3.58-2.28-1.5-4.27-1.89-6.43-3.63a20,20,0,0,0-5.46-5.6,4.34,4.34,0,0,0-.63-.07,1.66,1.66,0,0,0-.65.14.63.63,0,0,1-.22,0c-.41,0-.79-.43-1.13-.5-1.28-2.06-1.07-5.33-3-6.37a1.23,1.23,0,0,0-.59-.13"/><path class="e" d="M34.48,73.17c-1.35,0-1.84,1.84-1.84,4,0,.15,0,.29,0,.44a27.38,27.38,0,0,0,1,5.94c1.63.66,1.93,2.94,2,5.09h0a27.71,27.71,0,0,1-.37,4.17,4.89,4.89,0,0,0,.12.7,8.91,8.91,0,0,0,1,2.27,21.79,21.79,0,0,0,2.32,3.08c.86.94,1.71,1.78,2.37,2.37s1.09.93,1.09.93h0a.28.28,0,0,1,0,.09c0,1.73,4.15,3.39,8.92,4.21h2.24c2,0,4.3,0,6.63-.06,1.38,0,2.78,0,4.12,0,1.57,0,3.06,0,4.35.16,2.41.21,4.21.78,4.8,2.07a6,6,0,0,0,1.67.79,8.16,8.16,0,0,0,.88.21c1.17-.13,2.51-.24,3.67-.38l1.56-.17a12.84,12.84,0,0,0,4.73-3.38,19.54,19.54,0,0,0,3-4.42c.16-.3.31-.6.46-.91a34.61,34.61,0,0,0,1.7-6.18c0-.13,0-.26.07-.39q0-.56-.15-1.35a40.47,40.47,0,0,0-1.08-5.2,35.11,35.11,0,0,0-2.07-5.66,16.54,16.54,0,0,0-1.29-2.27c-.1-.15-.2-.29-.31-.43,0,.1-.11.19-.16.28l0,.08-1,1.51a21.62,21.62,0,0,1-1.88,6.08A14.54,14.54,0,0,1,78,92.51a12.8,12.8,0,0,1-2.32,1.26A15.53,15.53,0,0,1,69.6,95a18.92,18.92,0,0,1-2.14-.13,21.17,21.17,0,0,1-8.44-3,19,19,0,0,1-2.33-1.61c-.53-.42-.81-.68-.81-.68-.13-1.34-4.63-4.63-8.5-8.18-2-1.74-3.78-3.54-5.13-4.87l-1.59-1.63-.59-.63a22,22,0,0,0-2.82-.58c-1-.15-1.8-.25-1.8-.25a2.17,2.17,0,0,0-1-.26"/><path class="f" d="M86.83,70.77c-.46,0-.68.78-1,1.82-.12.51-.23,1.1-.34,1.69s-.23,1.18-.33,1.66-.3,1.07-.39,1.39-.13.45-.13.45a4.85,4.85,0,0,1,.57.35c.11.09.22.18.32.28a7.21,7.21,0,0,1,.69.89,16.54,16.54,0,0,1,1.29,2.27,35.11,35.11,0,0,1,2.07,5.66,40.47,40.47,0,0,1,1.08,5.2c.19,1.39.22,2.3.22,2.3h0a25,25,0,0,1-1.84,5.62c-.15.31-.3.61-.46.91a19.54,19.54,0,0,1-3,4.42,12.84,12.84,0,0,1-4.73,3.38,9.82,9.82,0,0,1-1.52.48,8.94,8.94,0,0,1-2,.24,8.52,8.52,0,0,1-1.68-.17,8.16,8.16,0,0,1-.88-.21,6,6,0,0,1-1.67-.79c-.59-1.29-2.39-1.86-4.8-2.07-1.29-.13-2.78-.16-4.35-.16-1.34,0-2.74,0-4.12,0-2.33,0-4.65.06-6.63.06H51l-1.8,0A4.24,4.24,0,0,1,51,108.16a14.45,14.45,0,0,1,.91,1.67c.22.47.34.8.34.8,2.2,0,5,2.39,7.65,4.7,1.29,1.14,2.53,2.26,3.43,3.12l1.48,1.38c1.24,2.68,3.9,3.53,6.36,3.53.27,0,.55,0,.81,0a13.82,13.82,0,0,0,3.43-.66,13.37,13.37,0,0,0,1.42-.53,17.88,17.88,0,0,1,3.61-3.49,2.58,2.58,0,0,1,1.2-.51,15.86,15.86,0,0,0,5.65-2A18.93,18.93,0,0,0,90,114.43l1.36-1.06q.69-.56,1.35-1.17A29,29,0,0,0,100,101a31.22,31.22,0,0,0,1.83-10.19,30.13,30.13,0,0,0-.16-3.18c-.08-.75-.15-1.16-.15-1.16a9,9,0,0,0-2.84-4.67c-1.43-1.43-3.09-2.75-4.55-4s-2.75-2.31-3.64-3.14l-1.41-1.3c-1.16-1.86-1.83-2.57-2.28-2.57"/><path class="f" d="M48.44,106.31a2.17,2.17,0,0,0-.7.11l1,0h.41a2.12,2.12,0,0,0-.75-.14"/><path class="g" d="M121.6,41.59h0c-.3.43-1,.84-1.43,1.41-1,1-.93,2.2-2.1,3.12-1,1-2.34,1.83-3.2,2.86a4.89,4.89,0,0,0-.86,2,20.6,20.6,0,0,0-1.07,3.57,14.84,14.84,0,0,0-.24,1.74c0,.31,0,.6,0,.88s0,.4,0,.62c.74.34,1,.73,1,1.13,0,.62-.56,1.27-.63,1.8-.1.27-.53.47-.83.76a1.49,1.49,0,0,0-.07.47c0,.21,0,.42,0,.62,0,.45-.12.83-.92.95-3.23.32-6.09.4-8.54.49-.86,0-2.35.26-3.85.31-.34,0-.68,0-1,0-1.13,0-2.18-.08-2.83-.14-.28,0-.48,0-.6,0H94.3a.75.75,0,0,0-.86.59c-.12.33-.22.7-.71.71h0a4.1,4.1,0,0,1-.46-.46.57.57,0,0,0-.12.18c.15.2.34.61.48.81h0a2.74,2.74,0,0,1-1.16-.53c-2.53-1.86-3.91-2.79-5-3.7A12.22,12.22,0,0,1,83.19,58c-.28-.46-.6-1.1-.7-1.31.12.3,0,.1.25.69A33.79,33.79,0,0,1,84.16,63H85a.49.49,0,0,1,0-.12c0-.21,0-.31.14-.31s.56.39,1.17,1.11c.38.37,1.88,2.58,3.2,4.47.47.7.88,1.63,1.34,2.33,1.77,2.61,3.37,3.73,5.37,6.94a7.07,7.07,0,0,0,3.15,2.78h.05c.5,0,.94-1.75.94-3.88a15.55,15.55,0,0,0-.15-2.12,32.65,32.65,0,0,0-1.65-6v0c0-.27-1.11-1.15-1.17-1.4h0a1.21,1.21,0,0,1,.5-.09,10,10,0,0,1,1.94.33c.76.17,1.6.38,2.42.52a3.87,3.87,0,0,0,.48,0,3.16,3.16,0,0,0,2.23-.94c.58-.56.86-1.16,1-1.16h0c2.46,1.22,5.63,2.34,7.25,4a8.29,8.29,0,0,0,1.51.72,5.38,5.38,0,0,0,1.46.23c.21,0,.36,0,.39-.07,0,.15.11.22.19.22.3,0,.8-1,1.08-2.15a7.7,7.7,0,0,0,.24-1.73c0-.51-.1-.87-.35-.87a.48.48,0,0,0-.27.1h0a1.08,1.08,0,0,0,.45-.89,3.64,3.64,0,0,0-.64-1.68c-.6-1-1.39-1.94-1.39-2.86v0a.37.37,0,0,1,0-.11,4.18,4.18,0,0,1,.9-1.93,2.62,2.62,0,0,0,.49-1.32,1.3,1.3,0,0,0-.26-.77,6.35,6.35,0,0,1-.87-2.14,1.24,1.24,0,0,1,.75-1.09,5.82,5.82,0,0,0,1.92-1.81,4,4,0,0,0,.06-.77c0-.58-.07-1.15-.07-1.7a2.77,2.77,0,0,1,.7-2c1-.93,3.31-1.87,3.3-3a1,1,0,0,0-.26-.65.84.84,0,0,1-.19-.31,4.2,4.2,0,0,1-.14-.59c-.07-.34-.17-.63-.58-.67"/><path class="g" d="M82.46,56.59l0,.06v0l0,0"/><path class="h" d="M65,133.14l.09.06h0s.73.14,1.86.28h0a26.86,26.86,0,0,0,3.55.25h0a26.86,26.86,0,0,1-3.55-.25c-1.13-.14-1.86-.28-1.86-.28h0l-.09-.06h0m14-2.31h0a4.05,4.05,0,0,1-1.44,1.44h0A4.05,4.05,0,0,0,79,130.83"/><path class="i" d="M77.59,132.27h0A7.7,7.7,0,0,1,76,133a15.16,15.16,0,0,1-4.38.73h0A15.16,15.16,0,0,0,76,133a7.7,7.7,0,0,0,1.56-.71h0m-16-.87h0a3.68,3.68,0,0,0,1.1.28h.18L65,133.14h0l-2.17-1.46h-.11a3.53,3.53,0,0,1-1.17-.28h0m17.53-.72h0a1.09,1.09,0,0,1-.08.15h0a1.09,1.09,0,0,0,.08-.15h0m-28.68-7.26h0a17.61,17.61,0,0,1,3.85,3.39h0a17.61,17.61,0,0,0-3.85-3.39h0M41,120.72h0a19.6,19.6,0,0,1,3.61.36h0a18.2,18.2,0,0,1,2.61.74h0a18.2,18.2,0,0,0-2.61-.74,19.6,19.6,0,0,0-3.61-.36"/><path class="j" d="M65.12,133.2h0s.73.14,1.86.28c-1.13-.14-1.86-.28-1.86-.28M58,129.58a21.83,21.83,0,0,0,3.55,1.82,3.68,3.68,0,0,0,1.1.28,3.68,3.68,0,0,1-1.1-.28A21.43,21.43,0,0,1,58,129.58M55.65,128c.62.44,1.44,1,2.38,1.59-.94-.55-1.76-1.15-2.38-1.59m-1-.73h0l1,.73-1-.73m-10-6.18a18.2,18.2,0,0,1,2.61.74,16.41,16.41,0,0,1,3.19,1.6,17.64,17.64,0,0,1,3.85,3.39l.38.45-.38-.45a17.61,17.61,0,0,0-3.85-3.39,16.41,16.41,0,0,0-3.19-1.6,18.2,18.2,0,0,0-2.61-.74M41,120.72h0a19.69,19.69,0,0,1,3.62.36,19.6,19.6,0,0,0-3.61-.36"/><path class="j" d="M94.93,122.82q-.29.42-.57.81a16.07,16.07,0,0,1-1.26,1.5,17.24,17.24,0,0,0,1.83-2.31"/><path class="j" d="M93.1,125.13c-.32.34-.65.66-1,1,.32-.3.65-.62,1-1"/><path class="j" d="M88.41,128.92a9,9,0,0,1-2.09.7,9,9,0,0,0,2.09-.7"/><path class="j" d="M84.73,129.51a12.77,12.77,0,0,0-2.51.39L82,130a13.79,13.79,0,0,1,2.73-.44"/><path class="j" d="M86.32,129.62a5.24,5.24,0,0,1-.7.06,5.24,5.24,0,0,0,.7-.06"/><path class="j" d="M82,130c-1.34.29-2.61.65-2.85.72h0c.24-.07,1.51-.43,2.85-.72"/><path class="k" d="M121.19,40.75l-.13,0a4.62,4.62,0,0,0-1.81.87c-1.88,1.58-4.12,2.94-5.7,4.36-3.58,3.38-6.29,6.52-7.08,9.75a.53.53,0,0,0,0,.13.91.91,0,0,0,.4.69,6.38,6.38,0,0,1,.79.62,1.51,1.51,0,0,1,.44,1.26v.17c0,.07,0,.13,0,.2,0,.57.16,1.14,1.2,1.84.14.08.19.17.19.26a.37.37,0,0,1-.22.3,34,34,0,0,1-9.21,1.3l-1.57,0c-.46,0-1,0-1.58,0h-.29c-.6,0-1.24,0-1.85,0a24.83,24.83,0,0,1-3.21-.34L91.11,62c-.46,0-.64.15-.64.38a3,3,0,0,0,.67,1.26c.33.44.72.9,1,1.24a4.31,4.31,0,0,0,.56.58h0c.49,0,.59-.38.71-.71a.75.75,0,0,1,.86-.59h.11c.12,0,.32,0,.6,0,.65.06,1.7.14,2.83.14.33,0,.67,0,1,0,1.5,0,3-.27,3.85-.31,2.45-.09,5.31-.17,8.54-.49.8-.12.92-.5.92-.95,0-.2,0-.41,0-.62a1.49,1.49,0,0,1,.07-.47c.3-.29.73-.49.83-.76.07-.53.63-1.18.63-1.8,0-.4-.24-.79-1-1.13,0-.22,0-.42,0-.62s0-.57,0-.88a14.84,14.84,0,0,1,.24-1.74A20.6,20.6,0,0,1,114,50.93a4.89,4.89,0,0,1,.86-2c.86-1,2.2-1.85,3.2-2.86,1.17-.92,1.13-2.07,2.1-3.12.4-.57,1.13-1,1.43-1.41h0c-.21-.27,0-.84-.41-.84"/><path d="M52.55,60.8c2.81,3.23,4.44,7.29,7.9,9.87a11,11,0,0,0,3.62,2,40.3,40.3,0,0,0,9,1.54,22.67,22.67,0,0,0,9.48-1.5,7.91,7.91,0,0,0,2.62-2.28c2-2.44,3.61-5.12,3.57-8.43a53.15,53.15,0,0,0-1.2-12.32c-.1-.44-.25-1.18,0-1.34,1.86-1.38,1.43-3.88,2.79-5.47s2.8-3.12,4.06-4.78c1.52-2,2.91-4,4.31-6.1A19.67,19.67,0,0,0,100,29.56c1.31-2.72,3.95-3.93,6.27-5.44s4.87-2.79,7.54-4.29a8.66,8.66,0,0,1,1.69,1.28c3.68,4.34,7.46,8.62,10.93,13.14a31.39,31.39,0,0,1,6.49,15.36c.65,5.27,1,10.58,1.4,15.88a91.27,91.27,0,0,1,.48,12.13c-.28,4.47-.38,9-2.87,13.13-1.81,3-2.93,6.38-4.54,9.49a25.21,25.21,0,0,1-5.74,7.36,65.73,65.73,0,0,1-17.22,11.12c-3.86,1.66-7.64,3.52-11.45,5.29a3.3,3.3,0,0,1-.41.23c-4.4,1.06-8.75,2.56-13.21,3-3.33.35-6.8-.69-10.22-1-4.12-.34-7.78-2.17-11.62-3.43S49.8,120.39,46,119a60.19,60.19,0,0,1-8.22-3.39,24.54,24.54,0,0,1-5.11-4c-3-2.87-5.21-6.4-7.4-9.91a28.87,28.87,0,0,0-2.41-3.46,35.39,35.39,0,0,1-5.75-9.59c-.68-1.64-1.81-3.1-2.58-4.71s-1.2-3.23-.09-4.89a2.57,2.57,0,0,0,.34-1.12c.26-3.15,2.16-5.38,4.21-7.51,1-1.06,2.16-2,3.23-3,2-1.92,4.5-2.33,7.11-2.54a48.65,48.65,0,0,0,12.11-2.48,51.89,51.89,0,0,0,5-2A4.16,4.16,0,0,1,50,60.12,18.66,18.66,0,0,0,52.55,60.8Zm61.22-38.93c-1.35.86-2.26,1.47-3.19,2s-1.93,1-2.83,1.65c-1.75,1.18-3.43,2.45-5.18,3.62s-1.43,3.33-2.27,4.94c-.15.28.45,1,.69,1.43-.88.79-1.84-.51-2.7.55-1.92,2.34-4.09,4.48-6.08,6.77a1.9,1.9,0,0,0,0,2.57,13.31,13.31,0,0,1,1.51,2.36c2.84,5.77,2.31,11.68.47,17.56a9.37,9.37,0,0,1-2.91,4.47,4.74,4.74,0,0,0-1.06,2.44c-.2.74,0,1.58-.22,2.32s-.08,1.55-1.17,1.79l-.18-2.43H87.41l-.32-1.66a15.33,15.33,0,0,0-3.38,2c-.76.8-1,2.06-1.77,3.58l-.69-2.56c-1.87-.33-2.3,1.49-3.56,2.2l-.32-1.6c-6.85.13-13.3-.31-19-4.55L57,72.66c-2.07-.6.22-1.66-.44-2.42l-1.88,1.55-.44-.38c.57-1,1.13-1.92,1.73-3l-2.1-3.12c-1,0-1.93,1.17-2.7-.26l1.34-1.26c-1.18-2.47-3-1.11-4.61-.83l.33-1.49a3.11,3.11,0,0,0-.75.17c-5.35,3.06-11.19,4.21-17.25,4.73a13.59,13.59,0,0,0-5.39,1.33c-2.89,1.62-4.94,4.28-7,6.87a2,2,0,0,0-.34,1.7c.66,1.63,1.52,3.17,2.42,5,.83-.89,1.44-1.58,2.1-2.23.1-.1.39,0,.71,0l-.84,1.73h1.58a16.19,16.19,0,0,0-.89,1.39c-.83,1.68-1.46,3.35-.36,5.21,1,1.68,1.72,3.52,2.78,5.15a38.39,38.39,0,0,0,4,5.16c1.48,1.59,3.24,2.92,4.84,4.33l1.49-.86c.17,2.53.17,2.53,2.32,2.28,2.45,2.54,5.35,4.17,8,6.17a36.73,36.73,0,0,0,8.56,5.28c.17-1.63.3-2.9.49-4.76a9.94,9.94,0,0,1,1.06,1.76,15.67,15.67,0,0,1,.48,2.53,2.13,2.13,0,0,0,1.6,2.06c.9.26,1.75.71,2.66.88,3.06.58,6.13,1.22,9.22,1.57,4.14.47,8.22-.51,12.32-.78.12-1.14.22-2.07.32-3l.51,0,1.11,2.66a25.23,25.23,0,0,0,2.86-.24c3-.6,6-1.19,8.91-2,1.93-.5,1.85-.65,1.75-2.63a22.91,22.91,0,0,1,.2-2.86l.51,0,.54,2.27,1.83-2.17,2.12,1.7s.06.43.15,1.11c1.16-.65,2.18-1.19,3.16-1.78a46.8,46.8,0,0,0,9.62-8.18c2.37-2.49,4.58-5.12,6.89-7.66.94-1,2-2,2.9-3-.09-2.37-2.19-4-2-6.55l3.82,5a24.72,24.72,0,0,0,3.59-8.25c.52-2.88.63-5.84.91-8.76h.41l.56,1.85a1.52,1.52,0,0,0,.43-1.09c-.24-4.21-.52-8.42-.75-12.63-.1-1.89-.31-3.7-2.11-4.88-.34-.22-.5-.73-.73-1.09.4-.44.65-.9,1-1.09a5,5,0,0,1,1.61-.21c-.7-3.35-1.18-6.69-2.14-9.9a28.17,28.17,0,0,0-5.63-10.43c-1.38-1.59-2.79-3.15-4.15-4.76C118.07,27.06,115.94,24.48,113.77,21.87ZM73.33,120.73l-2.3.19-.28,4c2,.21,3.82.4,5.67.61a8.92,8.92,0,0,0,2.29.33,58.81,58.81,0,0,0,14.71-3.76c4.16-1.81,8.3-3.66,12.38-5.64a54.21,54.21,0,0,0,11.66-7.39c.34-.29.8-.64.87-1a16.41,16.41,0,0,0-.11-4.81c-1.32,1.7-.08,3.82-2,4.94l-.34-2.58c-3.09.88-1.68,3.7-2.66,5.85-.49-1-.82-1.75-1.12-2.41-2.47,1.6-4.72,3.32-7.2,4.6a48.73,48.73,0,0,1-18,5.52c-2,.18-3.43.77-4.05,2.78,0,.07-.28.06-.42.09l-.63-2.26c-1.65,1-.5,2.88-1.61,3.79-1.6-.52.22-3.15-2.22-3.26l-.64,3.87c-1.52-1-.41-2.86-1.82-3.67-1,1.08-.09,2.86-1.68,4C73.63,123.17,73.5,122.14,73.33,120.73ZM36.74,109.22c1.74,1-.54,2.7,1,3.62l1.48-2.43c1.19,1.57-.65,2.9.31,4.27,1-.69.62-2.77,2.59-2.4l-1.07,3.35,21.68,7.24V120c-2.38-.86-4.58-1.64-6.77-2.44a35.5,35.5,0,0,1-10.11-5.75A70.32,70.32,0,0,0,37.15,106a24.57,24.57,0,0,1-3.7-2.31c-1.39-1.15-2.61-2.61-4.5-3.31L28.06,103l1.78,2.33,1.71-1.75c.8,1.65-.94,3.21.48,4.69l1.38-2.67c1.29,1.59-.66,2.93.11,4.33,1-.62.35-2.54,2.1-2.47l-.37,3.76.46.08ZM91.88,48.1c-.45,1.2-.51,2.26-1.06,2.67-1.08.8-.77,1.7-.71,2.66.21,3,.45,6,.61,9.08a7.72,7.72,0,0,1-1,4.47,15.93,15.93,0,0,0-.81,2.09,6.27,6.27,0,0,0,3.54-4c1.88-5.53,2.34-11.1,0-16.64a20.35,20.35,0,0,0-1.33-2.22l-1.61,3Zm30.46,56.66c.82-1,1.42-1.75,1.78-2.19-.34-1.93-.6-3.49-.9-5.18C122.28,98.41,122.11,99.9,122.34,104.76ZM69.68,124.53a21.83,21.83,0,0,0-.24-3.1,1.39,1.39,0,0,0-1-.9,1.46,1.46,0,0,0-1,1,17.85,17.85,0,0,0-.29,2.79Zm50.53-23.76c-.84,2-.44,4.11-.7,6.27C121.48,105.74,121.67,104.46,120.21,100.77Zm4.56.34c1.76-2,1.85-3.73.37-5.93-.13.09-.36.18-.36.27C124.76,97.29,124.77,99.13,124.77,101.11ZM17.94,81.68c-1,3.76-1,3.76,0,4.74C19.46,85,19.09,83.46,17.94,81.68ZM63.85,123.4l1.88.27c0-1.36.24-2.57-.77-3.68C64,120.94,64.4,122.12,63.85,123.4ZM22.28,90.5l-1.42-1.66-.45,3.32.41.14Zm2,3.86L22.9,92c-.16,1.26-1.27,2.51.25,3.61ZM16.75,78.92l-.56.1-.27,3.22,1.74-1.16Zm2.88,6.92a5.34,5.34,0,0,0-.4,3.28C20.44,87.59,20.43,87.58,19.63,85.84ZM127,93.37c-.12,1.77-.12,1.77.78,2.85C127.78,95.25,128.29,94.18,127,93.37Zm1.85-.47.66.2.67-2.62-.6-.16C129.28,91.18,129,92,128.8,92.9ZM26,96.93l-.46,2.45.54.12C26,98.75,27.63,98.45,26,96.93Z"/></svg>