<svg xmlns="http://www.w3.org/2000/svg" viewBox="0 0 150 150"><defs><style>.a{fill:#f9ca98;}.b{fill:#f9c18a;}.c{fill:#f7c088;}.d{fill:#f5994e;}.e{fill:#f49448;}.f{fill:#f8a158;}.g{fill:#f8b577;}.h{fill:#f8b472;}.i{fill:#f8b272;}.j{fill:#fcddbc;}.k{fill:#f8b06f;}.l{fill:#f8b474;}.m{fill:#ffefe2;}</style></defs><title>icon</title><path class="a" d="M63,88.38l.16,0h0l-.07,0,0,0h0m-.28-19.77h0l.15.18-.1-.11,0-.05,0,0M56.24,41.79a25.27,25.27,0,0,0-5.65,1.37,49.13,49.13,0,0,0-5,2.06c-1.68.75-3.2,1.58-4.42,2a29.84,29.84,0,0,0-5.42,2.14,11.9,11.9,0,0,0-4.25,3.69,1.41,1.41,0,0,0-.07.45c0,.71.47,1.42.48,2.07h0a1.06,1.06,0,0,1,0,.31,11.42,11.42,0,0,0-.34,3.32c0,.45,0,.92,0,1.41a72.36,72.36,0,0,0,1,7.69c.8,4.63,2.06,8.94,2.07,10.71h0a1.41,1.41,0,0,1-.12.66c-.76.91-2.35,2.11-3.56,2.11a1.36,1.36,0,0,1-.54-.09A7.5,7.5,0,0,0,29,81.54a6.85,6.85,0,0,0-3.08.77,29.87,29.87,0,0,1-4.09,2l-.23,0a3.66,3.66,0,0,1-1.08-.25,3.37,3.37,0,0,0-1.08-.25.78.78,0,0,0-.22,0c-2.27.77-4.94,2.66-5.32,5.18a18.59,18.59,0,0,0-.73,5.27q0,.94.09,1.92a20.82,20.82,0,0,0,2,7.27,51.17,51.17,0,0,0,3.81,9.2,27.19,27.19,0,0,0,6.92,5.2,20.72,20.72,0,0,0,4.53,1.93,3.58,3.58,0,0,1,2.14,1.43.59.59,0,0,0,.43.11,29.92,29.92,0,0,0,3.13-.49,31,31,0,0,1,5.21-.5c.54,0,1.1,0,1.66.06l-.17-.54c-.12-.36-.28-.91-.48-1.62h-.12A17.8,17.8,0,0,1,40,118a20.75,20.75,0,0,1-7.24-2.56,17.11,17.11,0,0,1-6.67-6.77,12.4,12.4,0,0,1-1.36-4.64c0-.28,0-.55,0-.83h0a8.79,8.79,0,0,1,.83-3.86h0A25,25,0,0,1,26.18,95a22,22,0,0,1,3.44-7.62,12.88,12.88,0,0,1,5.58-4.62,6.23,6.23,0,0,1,2.18-.42,4.67,4.67,0,0,1,3.1,1.15l1,.87c.66.55,1.62,1.34,2.82,2.22,2.38,1.74,5.83,3.88,9.48,4.51a13.45,13.45,0,0,0,2.18.18,12.29,12.29,0,0,0,7.09-2.1,8.75,8.75,0,0,0,1-.86,1.73,1.73,0,0,0,0-.22h0c0-.08,0-.16,0-.24l0,0L64,87.63l0,0L63.48,87l-.09-.11q-.37-.47-.78-.93l-.42-.46-.12-.14h0l-.17-.19-.24-.29-.85-1c-.58-.64-1.17-1.26-1.77-1.85l-1.25-1.32-1.33-1.35h0c-.43-.44-.86-.86-1.29-1.27s-.88-.84-1.32-1.24l-.45-.44-.26-.26-.05-.05h0l.06,0,.1.06.21.12a2,2,0,0,0,.56.07l.3.09h.08l.15-.07.28-.13L56,75.75c.72-.38,1.48-.88,2.17-1.32,1.4-.93,2.68-1.88,3.88-2.83,1-.76,1.85-1.52,2.7-2.26a3.67,3.67,0,0,1,.65-1q.45-.25.93-.48h0c-.45.45-.9.89-1.36,1.32,1.21-1.06,2.32-2.09,3.34-3.06l.08-.07c1.75-1.66,3.24-3.07,4.26-4.14h0c.51-.56,1-1,1.22-1.25h0l.43-.46h0l-.43.46h0c-.27.3-.71.69-1.22,1.25h0c-1,1.07-2.51,2.48-4.26,4.14l-.08.07c-1,1-2.13,2-3.34,3.06l-.23.22h0v0c-.85.74-1.75,1.5-2.7,2.26-1.2,1-2.48,1.9-3.88,2.83-.69.44-1.45.94-2.17,1.32l-1.13.57-.28.13-.15.07h-.08l-.3-.09a2,2,0,0,1-.56-.07l-.21-.12-.1-.06-.06,0h0l.05.05.26.26.45.44c.44.4.88.81,1.32,1.24s.86.83,1.29,1.27h0l1.33,1.35L59,82.06c.6.59,1.19,1.21,1.77,1.85l.85,1,.24.29-.1-.13h0l0,0a4.63,4.63,0,0,0,.47.39c.21.09.43.16.65.24a6.53,6.53,0,0,0,.78,0,6.05,6.05,0,0,0,.89-.14h0a2.19,2.19,0,0,0,.62-.34L66,84.8c.47-.31,1-.68,1.41-1a17.91,17.91,0,0,0,4.23-4.12A20.34,20.34,0,0,0,75,79.14a9.4,9.4,0,0,0,3.21-1.36l.39-.46.25-.29a13.64,13.64,0,0,1-3.59.45,24.21,24.21,0,0,1-3.87-.35c-.63-.24-1.41-.41-1.79-1a.31.31,0,0,1-.11-.22h0c0-.26.49-.46.62-.77a.66.66,0,0,1-.06-.27h0a.91.91,0,0,1,.3-.61,1.78,1.78,0,0,0,.57-.93,1.28,1.28,0,0,1,.65-.93,3.75,3.75,0,0,1,1.3-.26l1.62-.06A6.34,6.34,0,0,0,76,71.82a4,4,0,0,0,1.94-2.42c.39-1,.56-2.17.91-3.27a7.06,7.06,0,0,1,1-1.22c.36-.39.77-.8,1.26-1.28A2.16,2.16,0,0,0,81.8,62a3.63,3.63,0,0,0-.12-.85,12.8,12.8,0,0,0-1.28-2.81,4.28,4.28,0,0,1-.76-1.76A18.63,18.63,0,0,0,79,54.1a6.84,6.84,0,0,0-2.24-3,6.58,6.58,0,0,0-3.34-1.34,5.44,5.44,0,0,0-.67,0,4.43,4.43,0,0,0-2,.45c-.65.3-1.29.68-1.91,1a5.55,5.55,0,0,1-2.5.84,2.71,2.71,0,0,1-1.2-.29c.19.11.28.21.28.3h0c0,.41-1.81.56-3.7.78-1.4.13-2.88.38-3.56.38-.25,0-.39,0-.4-.11h0c0-.05.06-.13.18-.23h0a3.49,3.49,0,0,1-1.58-1.32,7.62,7.62,0,0,1-.47-1.36h0a.41.41,0,0,1,0-.16,7,7,0,0,0,.71-3.31c0-.23,0-.47,0-.71,0-1.16-.23-2.35-.23-3.5h0c0-.24,0-.48,0-.71h-.1"/><path class="a" d="M91.07,59.77a19.24,19.24,0,0,1-2.94,9.89,18.35,18.35,0,0,1-4.24,4.68,11.17,11.17,0,0,1,4.42-1.23,2.11,2.11,0,0,1,1.33.35s.82-.13,2.12-.23,3-.18,4.94-.2a10.14,10.14,0,0,1,1.41.32l.56.23c.18.08.46.11.69.18a12.62,12.62,0,0,1,1.91.61,11.12,11.12,0,0,1-1.16-1,15.83,15.83,0,0,1-1.52-1.62,9.1,9.1,0,0,1-1.32-2c-.68-1.42-1.45-2.93-2.11-4.44-.28-.59-.56-1.23-.84-1.88a2.41,2.41,0,0,0-.69-.94c-.3-.3-.57-.61-.83-.92-.55-.64-1.12-1.28-1.73-1.88"/><path class="a" d="M111.48,69.91a.18.18,0,0,0-.11,0l-1.22.29c-.8.21-1.32.94-1.92,1.89A10.52,10.52,0,0,1,105.94,75a2.43,2.43,0,0,1-1.59.54,4.89,4.89,0,0,1-2.32-.7c.15.14.38.36.69.61a9.85,9.85,0,0,0,1.92,1.28A9.09,9.09,0,0,0,106,75.16a10.16,10.16,0,0,0,2.33-2.88c.6-1,1.13-1.69,2-1.9l1.23-.28.14,0,.25.07.51.16,1.07.46A24.19,24.19,0,0,1,116,72.15c.91.61,1.94,1.34,3.11,2.19a9.39,9.39,0,0,1,1.36,1.34c-.23-.28-.48-.56-.72-.81s-.44-.54-.78-.69c-1.18-.86-2.21-1.58-3.12-2.2a26.45,26.45,0,0,0-2.5-1.4l-1.07-.46a3.46,3.46,0,0,0-.75-.21"/><path class="a" d="M80.21,76.54l-.32.14c-.27.11-.54.2-.81.28a5.25,5.25,0,0,1-.88.82c-.47.56-1,1.26-1.63,2.09a27,27,0,0,1,2.09-2.06c.51-.46,1-.88,1.55-1.27"/><path class="a" d="M62.06,85.35h0"/><path class="a" d="M63.49,87l.45.58,0,0c-.15-.21-.32-.42-.48-.63"/><polyline class="a" points="64.11 87.21 64.11 87.21 64.11 87.22 64.11 87.21 64.11 87.21"/><path class="a" d="M64.11,87.21h0v0"/><path class="a" d="M64.11,87.22h0v0h0"/><path class="a" d="M64.11,88.07h0a1.73,1.73,0,0,1,0,.22h0l0-.23"/><path class="b" d="M64.11,88.07h0a1.49,1.49,0,0,1,0,.22h0a1.73,1.73,0,0,0,0-.22h0"/><polyline class="c" points="64.1 88.08 64.1 88.08 64.1 88.08 64.1 88.08 64.1 88.08 64.1 88.08 64.1 88.08 64.1 88.08 64.1 88.08"/><path class="a" d="M65,89h0M65,88.9h0l0,0,0,0h0l0,0,0,0h0l0,0h0l0,0"/><polyline class="a" points="65 88.95 65 88.95 65 88.95 65.03 88.99 65 88.95"/><path class="a" d="M65,89l0,0,0,0h0"/><path class="a" d="M63.93,89v0h0v0"/><path class="a" d="M63.92,89.05h0l0,.12v0a1.42,1.42,0,0,0,.05-.16"/><path class="a" d="M63.92,89.05s0,.09,0,.14l0-.12h0"/><path class="a" d="M63.92,89.06h0l0,.12h0l0-.12h0"/><path class="a" d="M64.21,93.16a1.28,1.28,0,0,0-.71.23,2.69,2.69,0,0,0-.52.4,4.14,4.14,0,0,0,.5-.09,3.79,3.79,0,0,0,1.13-.46,1.1,1.1,0,0,0-.4-.08"/><path class="a" d="M55.3,98.61a34.18,34.18,0,0,1-5.76,1.62s-.32.17-.85.48l.42-.09a28.8,28.8,0,0,0,6.19-2"/><path class="a" d="M67,108.89c-1,.53-2.13,1-3.26,1.54a73.09,73.09,0,0,1-8.33,3L53.6,114a22.88,22.88,0,0,0,10.19-2.89,19.71,19.71,0,0,0,3.16-2.2"/><path class="a" d="M40.85,114.85a12.17,12.17,0,0,0,1.2,2c-.14-.52-.28-1.1-.43-1.73-.25-.09-.5-.2-.77-.31"/><path class="d" d="M120.42,75.68l.1.11c.26.32.5.64.7.92a4.38,4.38,0,0,1,.37.79,3.49,3.49,0,0,1,.22,1.26h0a4,4,0,0,1-.92,2.42c-.78,1-1.81,2-2.79,3.32a13.59,13.59,0,0,0-.71,2.29s0,0,0,.07,0,.19,0,.28h0a3.62,3.62,0,0,1-.09.82,8.69,8.69,0,0,1-.37,1,12.93,12.93,0,0,1-5.19,4.44,14.76,14.76,0,0,1-3.2,1.1A23.9,23.9,0,0,1,105,95L102,95.7c-.66.14-1.28.3-1.9.47-1.24.33-2.47.65-4,1A6.9,6.9,0,0,0,92.49,99,9.06,9.06,0,0,1,89,101.1a9.21,9.21,0,0,0-2.36,1.48,9.46,9.46,0,0,0-1,1l-.52.63c-.18.24-.36.49-.55.73-.74,1-1.49,2.2-2.45,3.62a37.23,37.23,0,0,1-4,4.85,28.44,28.44,0,0,1-10.79,6.41A40.89,40.89,0,0,1,60,121.56c-2.41.38-4.61.48-6.14.73a6.15,6.15,0,0,1-1.72.23c-.28,0-.56,0-.85,0a15.72,15.72,0,0,1-2.65-.58,34.5,34.5,0,0,0-5.29-1.47l-.22,0v0a34.28,34.28,0,0,1,5.29,1.49,12.31,12.31,0,0,0,3.58.65,6.15,6.15,0,0,0,1.66-.22c1.53-.24,3.74-.33,6.16-.69a41.16,41.16,0,0,0,7.53-1.76,28.42,28.42,0,0,0,10.86-6.37,36.41,36.41,0,0,0,4-4.84c1-1.43,1.75-2.62,2.49-3.64.37-.5.76-1,1.1-1.39a8.34,8.34,0,0,1,.94-.94A9.49,9.49,0,0,1,89,101.24a8.86,8.86,0,0,0,3.47-2.09,6.85,6.85,0,0,1,3.55-1.87c1.51-.33,2.73-.65,4-1,.62-.16,1.24-.32,1.89-.46l3-.66a24.23,24.23,0,0,0,3.56-.5,14.82,14.82,0,0,0,3.21-1.09A13,13,0,0,0,117,89.16a4.71,4.71,0,0,0,.47-1.82,2.83,2.83,0,0,0,0-.29V87h0a13,13,0,0,1,.73-2.29c1-1.32,2-2.28,2.82-3.32a4.12,4.12,0,0,0,1-2.49,3.63,3.63,0,0,0-.21-1.21,4.38,4.38,0,0,0-.37-.79,8.54,8.54,0,0,0-.69-.93l-.23-.27"/><path class="e" d="M111.6,70.07l-.14,0-1.23.28c-.82.21-1.35,1-2,1.9A10.16,10.16,0,0,1,106,75.16a9.09,9.09,0,0,1-1.31,1.58l.24.12a5.23,5.23,0,0,0,1.27.41,3,3,0,0,0,.59.06,3.36,3.36,0,0,0,.63-.06,2.11,2.11,0,0,0,1.56-1.78,13.26,13.26,0,0,0,1.19-.72A15.64,15.64,0,0,0,112,73.18a1.94,1.94,0,0,1,1.06-.32h0a1.78,1.78,0,0,1,1,.3,2.94,2.94,0,0,1,1,1.11,5.46,5.46,0,0,1,.66,2.2,18.25,18.25,0,0,1,.44,2.92,10.45,10.45,0,0,1,.05,1.13h0a13.78,13.78,0,0,1-.43,3.55s-.24.39-.7,1a15.76,15.76,0,0,1-2.32,2.48,15.35,15.35,0,0,1-4.27,2.57,20.42,20.42,0,0,1-2.74.88,26.43,26.43,0,0,1-3,.58c-.5.08-1,.13-1.45.17l-1.15.06-2.35.08c-1.55,0-3,.14-4.38.3-2.21.27-3.86.78-4.72.78a1,1,0,0,1-.43-.07l-.31.12a6.72,6.72,0,0,0-.86.39,16.52,16.52,0,0,0-2.9,1.85,39.1,39.1,0,0,0-3.83,3.44C79,100.09,77.58,101.57,76,103a43.71,43.71,0,0,1-9,5.9,19.71,19.71,0,0,1-3.16,2.2A22.88,22.88,0,0,1,53.6,114c-2.56.74-5.28,1.46-8.1,2.3a21.8,21.8,0,0,1-3.68-1l-.2-.07c.15.63.29,1.21.43,1.73a16.48,16.48,0,0,0,1.12,1.37h-.74c.2.71.36,1.26.48,1.62l.17.54.22,0a34.5,34.5,0,0,1,5.29,1.47,15.72,15.72,0,0,0,2.65.58c.29,0,.57,0,.85,0a6.15,6.15,0,0,0,1.72-.23c1.53-.25,3.73-.35,6.14-.73a40.89,40.89,0,0,0,7.49-1.79,28.44,28.44,0,0,0,10.79-6.41,37.23,37.23,0,0,0,4-4.85c1-1.42,1.71-2.6,2.45-3.62.19-.24.37-.49.55-.73l.52-.63a9.46,9.46,0,0,1,1-1A9.21,9.21,0,0,1,89,101.1,9.06,9.06,0,0,0,92.49,99a6.9,6.9,0,0,1,3.58-1.86c1.52-.33,2.75-.65,4-1,.62-.17,1.24-.33,1.9-.47L105,95a23.9,23.9,0,0,0,3.54-.51,14.76,14.76,0,0,0,3.2-1.1A12.93,12.93,0,0,0,117,89a8.69,8.69,0,0,0,.37-1,3.62,3.62,0,0,0,.09-.82c0-.09,0-.19,0-.28s0,0,0-.07h0a13.59,13.59,0,0,1,.71-2.29c1-1.33,2-2.29,2.79-3.32a4,4,0,0,0,.92-2.42,3.49,3.49,0,0,0-.22-1.26,4.38,4.38,0,0,0-.37-.79c-.2-.28-.44-.6-.7-.92l-.1-.11a9.39,9.39,0,0,0-1.36-1.34c-1.17-.85-2.2-1.58-3.11-2.19a24.19,24.19,0,0,0-2.52-1.39l-1.07-.46-.51-.16-.25-.07"/><path class="f" d="M113.13,72.86h0a1.94,1.94,0,0,0-1.06.32,15.64,15.64,0,0,1-1.91,1.59,13.26,13.26,0,0,1-1.19.72,2.11,2.11,0,0,1-1.56,1.78,3.36,3.36,0,0,1-.63.06,3,3,0,0,1-.59-.06,5.23,5.23,0,0,1-1.27-.41l-.24-.12a9.85,9.85,0,0,1-1.92-1.28c-.31-.25-.54-.47-.69-.61l-.18-.18a4.51,4.51,0,0,0-.58-.3,12.62,12.62,0,0,0-1.91-.61c-.23-.07-.51-.1-.69-.18l-.56-.23A10.14,10.14,0,0,0,96.7,73c-1.89,0-3.64.08-4.94.2s-2.12.23-2.12.23a2.11,2.11,0,0,0-1.33-.35,11.17,11.17,0,0,0-4.42,1.23,17.83,17.83,0,0,1-3.68,2.2c-.52.39-1,.81-1.55,1.27a27,27,0,0,0-2.09,2.06l-.41.58c-1,1.34-2,3-3,4.72l-1.54,2.74-.76,1.39L70.5,90l-.19.34a1.56,1.56,0,0,0-.11.24c-.51,1.19-.92,2.13-1.25,2.78l-.24.44-.21.35a2.86,2.86,0,0,1-.55.55A1.76,1.76,0,0,1,67,95a1.51,1.51,0,0,1-1.37-1.09,3.28,3.28,0,0,0-.69-.54,2,2,0,0,0-.3-.14,3.79,3.79,0,0,1-1.13.46,4.14,4.14,0,0,1-.5.09,21.54,21.54,0,0,1-2.77,2.29,24.22,24.22,0,0,1-4.91,2.53,28.8,28.8,0,0,1-6.19,2l-.42.09c-.33.18-.72.41-1.18.69a26.24,26.24,0,0,0-4.28,3.14A9.57,9.57,0,0,0,40.1,110a7.15,7.15,0,0,0-.09,1.15,9.11,9.11,0,0,0,.84,3.69c.27.11.52.22.77.31l.2.07a21.8,21.8,0,0,0,3.68,1c2.82-.84,5.54-1.56,8.1-2.3l1.76-.52a73.09,73.09,0,0,0,8.33-3c1.13-.5,2.22-1,3.26-1.54a43.71,43.71,0,0,0,9-5.9c1.61-1.42,3-2.9,4.43-4.26a39.1,39.1,0,0,1,3.83-3.44,16.52,16.52,0,0,1,2.9-1.85,6.72,6.72,0,0,1,.86-.39l.31-.12a1,1,0,0,0,.43.07c.86,0,2.51-.51,4.72-.78,1.33-.16,2.83-.25,4.38-.3l2.35-.08,1.15-.06c.46,0,1-.09,1.45-.17a26.43,26.43,0,0,0,3-.58,20.42,20.42,0,0,0,2.74-.88,15.35,15.35,0,0,0,4.27-2.57,15.76,15.76,0,0,0,2.32-2.48c.46-.64.7-1,.7-1a13.78,13.78,0,0,0,.43-3.55,10.45,10.45,0,0,0-.05-1.13,18.25,18.25,0,0,0-.44-2.92,5.46,5.46,0,0,0-.66-2.2,2.94,2.94,0,0,0-1-1.11,1.78,1.78,0,0,0-1-.3"/><path class="g" d="M79.08,77l-.24.07-.25.29-.39.46a5.25,5.25,0,0,0,.88-.82"/><path class="g" d="M64.61,87.67h0m0,0h0m0,0h0M78.2,77.78A9.4,9.4,0,0,1,75,79.14a20.34,20.34,0,0,1-3.38.53,17.91,17.91,0,0,1-4.23,4.12c-.45.33-.94.7-1.41,1l-.72.47a2.19,2.19,0,0,1-.62.34h0a6.05,6.05,0,0,1-.89.14,6.53,6.53,0,0,1-.78,0c-.22-.08-.44-.15-.65-.24a4.63,4.63,0,0,1-.47-.39l0,0h0l.1.13.17.19h0l.3.34c.39.42.76.86,1.1,1.29h0c.16.21.33.42.48.63h0l.14.18a.76.76,0,0,0,0-.15,3.94,3.94,0,0,0,0-.43h0v0h0v0h0v0l.29.75h0a4.21,4.21,0,0,1,.4-.57h0a4.21,4.21,0,0,0-.4.57c.08.16.18.35.28.51h0l.25.37L65,89l0,0h0l0,0,0,0h0l0,0h0l0,0c-.19-.26-.39-.51-.59-.77-.09.17-.17.33-.22.45h0l-.08.18h0l-.12.32a1.42,1.42,0,0,1-.05.16h0v0h0s0-.1,0-.14a2.5,2.5,0,0,1,.07-.26c0-.19.07-.36.09-.49a8.75,8.75,0,0,1-1,.86A12.29,12.29,0,0,1,56,91.26a13.45,13.45,0,0,1-2.18-.18c-3.65-.63-7.1-2.77-9.48-4.51-1.2-.88-2.16-1.67-2.82-2.22l-1-.87a4.67,4.67,0,0,0-3.1-1.15,6.23,6.23,0,0,0-2.18.42,12.88,12.88,0,0,0-5.58,4.62A22,22,0,0,0,26.18,95a25,25,0,0,0-.67,4.38h0a8.79,8.79,0,0,0-.83,3.86c0,.28,0,.55,0,.83a12.4,12.4,0,0,0,1.36,4.64,17.11,17.11,0,0,0,6.67,6.77A20.75,20.75,0,0,0,40,118a17.8,17.8,0,0,0,2.33.22h.86a16.48,16.48,0,0,1-1.12-1.37,12.17,12.17,0,0,1-1.2-2,9.11,9.11,0,0,1-.84-3.69h0A7.15,7.15,0,0,1,40.1,110a9.57,9.57,0,0,1,3.13-5.47,26.24,26.24,0,0,1,4.28-3.14c.46-.28.85-.51,1.18-.69.53-.31.85-.48.85-.48a34.18,34.18,0,0,0,5.76-1.62,24.22,24.22,0,0,0,4.91-2.53A21.54,21.54,0,0,0,63,93.79a2.69,2.69,0,0,1,.52-.4,1.28,1.28,0,0,1,.71-.23,1.1,1.1,0,0,1,.4.08,2,2,0,0,1,.3.14,3.28,3.28,0,0,1,.69.54A1.51,1.51,0,0,0,67,95a1.76,1.76,0,0,0,1-.34,2.86,2.86,0,0,0,.55-.55l.21-.35.24-.44c.33-.65.74-1.59,1.25-2.78a1.56,1.56,0,0,1,.11-.24L70.5,90l.37-.67.76-1.39,1.54-2.74c1-1.76,2-3.38,3-4.72l.41-.58c.61-.83,1.16-1.53,1.63-2.09"/><path class="h" d="M63.88,89.19h0m.16-.46h0l-.12.32h0l.12-.32h0m.3-.63h0c.2.26.4.51.59.77l0,0h0l0,0h0c-.19-.26-.39-.51-.59-.77m.46-.68a4.21,4.21,0,0,0-.4.57h0a4.21,4.21,0,0,1,.4-.57h0m0,0h0m-.69-.18a3.94,3.94,0,0,1,0,.43h0a3.94,3.94,0,0,0,0-.43h0m0,0h0m0,0h0"/><path class="i" d="M64.8,87.42a4.21,4.21,0,0,0-.4.57h0a4.21,4.21,0,0,1,.4-.57h0m0,0h0"/><path class="g" d="M61.89,85.16l.17.19-.17-.19"/><path class="g" d="M62.07,85.36l.12.14.42.46q.41.47.78.93l.09.11h0c-.34-.43-.71-.87-1.1-1.29l-.3-.34"/><path class="g" d="M64.11,87.2h0v0h0v0"/><polyline class="g" points="64.11 87.22 64.11 87.22 64.11 87.22 64.11 87.22 64.11 87.22"/><path class="g" d="M64.11,87.24a3.94,3.94,0,0,1,0,.43h0a.76.76,0,0,1,0,.15l.22.28v0h0L64.4,88h0l-.29-.75"/><path class="g" d="M64,87.63l.12.15,0,0h0c0,.08,0,.16,0,.24a1.78,1.78,0,0,0,0-.25L64,87.64h0"/><path class="g" d="M64.12,87.82a1.78,1.78,0,0,1,0,.25l0,.23h0c0,.13,0,.3-.09.49a2.5,2.5,0,0,0-.07.26v0h0v0l.12-.32h0l.08-.18h0c0-.12.13-.28.22-.45l-.22-.28"/><path class="g" d="M64.4,88l-.05.09h0v0c.2.26.4.51.59.77l-.25-.37h0c-.1-.16-.2-.35-.28-.51"/><path class="g" d="M64.93,88.87l0,0L65,89h0l-.08-.1"/><polyline class="g" points="63.88 89.19 63.88 89.2 63.88 89.19 63.88 89.19"/><path class="j" d="M58,52.81h0m0,0h0m0,0h0m-5.32-15h-1a27.14,27.14,0,0,0-8.33,1.65,32.74,32.74,0,0,0-4.52,2.06A37.85,37.85,0,0,0,35,44a32.13,32.13,0,0,0-4.56,3.91,20,20,0,0,0-4.27,6.78,44.28,44.28,0,0,1-2.3,5.47l0,0c-.06,0-.24-.17-.45-.5-.14.4-.28.81-.4,1.22.13.33.18,1.41.32,1.73h0a5.35,5.35,0,0,1-1.84,2.07,14.29,14.29,0,0,0-4.6,3.81A27.43,27.43,0,0,0,15,71.05c-.29.46-.56.93-.83,1.4s-.54,1-.81,1.53c-2.11,4.19-3.84,9.64-5.9,15a24.24,24.24,0,0,0-.83,4.39c0,.5-.06,1-.06,1.54a15.42,15.42,0,0,0,.5,4c.88,2.81,1.69,6.65,3.33,9.1,3.26,4.22,7.51,6.93,11.28,9.11q-1.42-2.13-2.65-4.42a51.17,51.17,0,0,1-3.81-9.2,20.82,20.82,0,0,1-2-7.27q-.09-1-.09-1.92h0A18.59,18.59,0,0,1,13.87,89c.38-2.52,3.05-4.41,5.32-5.18a.78.78,0,0,1,.22,0,3.37,3.37,0,0,1,1.08.25,3.66,3.66,0,0,0,1.08.25l.23,0a29.87,29.87,0,0,0,4.09-2A6.85,6.85,0,0,1,29,81.54a7.5,7.5,0,0,1,1.44.15,1.36,1.36,0,0,0,.54.09c1.21,0,2.8-1.2,3.56-2.11a1.41,1.41,0,0,0,.12-.66c0-1.77-1.27-6.08-2.07-10.71a72.36,72.36,0,0,1-1-7.69c0-.49,0-1,0-1.41h0a11.42,11.42,0,0,1,.34-3.32,1.06,1.06,0,0,0,0-.31c0-.65-.48-1.36-.48-2.07h0a1.41,1.41,0,0,1,.07-.45,11.9,11.9,0,0,1,4.25-3.69,29.84,29.84,0,0,1,5.42-2.14c1.22-.42,2.74-1.25,4.42-2a49.13,49.13,0,0,1,5-2.06,25.27,25.27,0,0,1,5.65-1.37h.1c0,.23,0,.47,0,.71,0,1.15.18,2.34.23,3.5,0,.24,0,.48,0,.71h0A7,7,0,0,1,55.85,50a.41.41,0,0,0,0,.16,7.62,7.62,0,0,0,.47,1.36,3.49,3.49,0,0,0,1.58,1.32h0c-.12.1-.18.18-.18.23s.15.11.4.11c.68,0,2.16-.25,3.56-.38,1.89-.22,3.71-.37,3.7-.78,0-.09-.09-.19-.28-.3h0a2.71,2.71,0,0,0,1.2.29,5.55,5.55,0,0,0,2.5-.84c.62-.34,1.26-.72,1.91-1a4.43,4.43,0,0,1,2-.45,5.44,5.44,0,0,1,.67,0,6.58,6.58,0,0,1,3.34,1.34,6.84,6.84,0,0,1,2.24,3,18.63,18.63,0,0,1,.69,2.43,4.28,4.28,0,0,0,.76,1.76,12.8,12.8,0,0,1,1.28,2.81,3.63,3.63,0,0,1,.12.85h0a2.16,2.16,0,0,1-.75,1.68c-.49.48-.9.89-1.26,1.28a7.06,7.06,0,0,0-1,1.22c-.35,1.1-.52,2.24-.91,3.27A4,4,0,0,1,76,71.82a6.34,6.34,0,0,1-1.51.26l-1.62.06a3.75,3.75,0,0,0-1.3.26,1.28,1.28,0,0,0-.65.93,1.78,1.78,0,0,1-.57.93.91.91,0,0,0-.3.61.66.66,0,0,0,.06.27h.07a5.49,5.49,0,0,1,.75.08,6.11,6.11,0,0,0,.87.08,2.77,2.77,0,0,0,.49,0c1.63-.15,2.65-1.37,4.31-1.77,1.61-.62,3.42-1.07,4.87-2.4a7.37,7.37,0,0,0,1.11-1.45A7.53,7.53,0,0,0,83.33,68a17.32,17.32,0,0,0,1.6-6.82v-.05c0-.58,0-1.17-.05-1.75s-.15-1.21-.25-1.82a16.47,16.47,0,0,0-1.28-3.89,11.1,11.1,0,0,1-2.15-1.92,17.83,17.83,0,0,0-3-2.69,13.59,13.59,0,0,0-3.6-1.71,11.38,11.38,0,0,0-2.44-.49,5.34,5.34,0,0,1-1.7-.8,2.92,2.92,0,0,0-.6,0,8.24,8.24,0,0,0-.85,0c-.28,0-.56.05-.84.05a2.28,2.28,0,0,1-1.88-.79,22.48,22.48,0,0,0-4-4.15,16.38,16.38,0,0,0-5.65-2.9,10,10,0,0,0-1.92-.35q-.63-.07-1.35-.12h-.66"/><path class="k" d="M74.26,60.17l-.43.46.43-.46"/><path class="k" d="M72.61,61.88c-1,1.07-2.51,2.48-4.26,4.14,1.75-1.66,3.24-3.07,4.26-4.14"/><path class="k" d="M58.13,74.43c-.69.44-1.45.94-2.17,1.32.72-.38,1.48-.88,2.17-1.32"/><path class="k" d="M53.84,76.88c.44.4.88.81,1.32,1.24-.44-.43-.88-.84-1.32-1.24"/><path class="k" d="M55.16,78.12c.43.41.86.83,1.29,1.27-.43-.44-.86-.86-1.29-1.27"/><path class="k" d="M63.47,87l.47.59L63.49,87h0m-1.1-1.29c.39.42.76.86,1.1,1.29-.34-.43-.71-.87-1.1-1.29m-4.59-5L59,82.06l-1.25-1.32"/><path class="l" d="M64.8,87.42h0m0,0a4.21,4.21,0,0,0-.4.57h0a4.21,4.21,0,0,1,.4-.57h0"/><path class="k" d="M63.94,87.58l0,0h0l0,0"/><path class="k" d="M64.13,87.67a.76.76,0,0,1,0,.15h0a.76.76,0,0,0,0-.15"/><path class="b" d="M64.11,88.07h0a1.73,1.73,0,0,1,0,.22h0a1.49,1.49,0,0,0,0-.22h0"/><path class="k" d="M64,88.79a2.5,2.5,0,0,0-.07.26h0a2.68,2.68,0,0,1,.07-.27m.11-.71a1.49,1.49,0,0,1,0,.22c0,.13,0,.3-.09.49,0-.19.07-.36.09-.49a1.49,1.49,0,0,0,0-.22m0-.26a1,1,0,0,1,0,.26h0a1.78,1.78,0,0,0,0-.25h0m0,0h0m0,0h0"/><path class="k" d="M64.34,88.1c-.09.17-.17.33-.22.45,0-.12.13-.28.22-.45h0m0,0h0"/><path class="k" d="M64.68,88.5l.25.37h0l0,0L65,89h0l0-.06,0,0h0l-.25-.37"/><path class="k" d="M64.12,88.55l-.08.18.08-.18"/><path class="m" d="M51.93,33.79c-.68,0-1.45,0-2.24.1a31.06,31.06,0,0,0-8.93,2.3,37.58,37.58,0,0,0-4.64,2.39,43.53,43.53,0,0,0-3.83,2.62A40.37,40.37,0,0,0,27.94,45a24.07,24.07,0,0,0-4.66,7.62,11.09,11.09,0,0,0-.71,3.72c0,.27,0,.53,0,.76.23,2,1.09,3,1.25,3l0,0a44.28,44.28,0,0,0,2.3-5.47,20,20,0,0,1,4.27-6.78A32.13,32.13,0,0,1,35,44a37.85,37.85,0,0,1,3.85-2.44,32.74,32.74,0,0,1,4.52-2.06A27.14,27.14,0,0,1,51.7,37.8h1.62q.72,0,1.35.12a10,10,0,0,1,1.92.35,16.38,16.38,0,0,1,5.65,2.9,22.48,22.48,0,0,1,4,4.15,2.28,2.28,0,0,0,1.88.79c.28,0,.56,0,.84-.05a8.24,8.24,0,0,1,.85,0,2.92,2.92,0,0,1,.6,0,5.34,5.34,0,0,0,1.7.8,11.38,11.38,0,0,1,2.44.49,13.59,13.59,0,0,1,3.6,1.71,17.83,17.83,0,0,1,3,2.69,11.1,11.1,0,0,0,2.15,1.92,16.47,16.47,0,0,1,1.28,3.89c.1.61.19,1.21.25,1.82s.05,1.17.05,1.75h0v.05A17.32,17.32,0,0,1,83.33,68a7.53,7.53,0,0,1-.76,1.65,7.37,7.37,0,0,1-1.11,1.45c-1.45,1.33-3.26,1.78-4.87,2.4-1.66.4-2.68,1.62-4.31,1.77a2.77,2.77,0,0,1-.49,0,6.11,6.11,0,0,1-.87-.08,5.49,5.49,0,0,0-.75-.08H70.1c-.13.31-.62.51-.62.77a.31.31,0,0,0,.11.22c.38.59,1.16.76,1.79,1a24.21,24.21,0,0,0,3.87.35A13.64,13.64,0,0,0,78.84,77l.24-.07c.27-.08.54-.17.81-.28l.32-.14a17.83,17.83,0,0,0,3.68-2.2,18.35,18.35,0,0,0,4.24-4.68,19.38,19.38,0,0,0,3-10.19c0-.61,0-1.23-.09-1.85a4.8,4.8,0,0,0-.91-2.3c-.23-.34-.48-.66-.72-1a12,12,0,0,1-.73-1.06c-.64-.93-1.25-2.21-2.4-3.91A17.92,17.92,0,0,0,84,46.62,15.63,15.63,0,0,0,80.44,44,13.75,13.75,0,0,0,74,42.22h-.06a3.8,3.8,0,0,0-2.91.9.6.6,0,0,1-.47.2,1.26,1.26,0,0,1-.63-.2,33.18,33.18,0,0,0-6-5.17,26.8,26.8,0,0,0-8.66-3.79A11.17,11.17,0,0,0,53,33.83c-.33,0-.69,0-1.08,0"/><path d="M91,96.65c.4,3.12-.86,5.59-2.46,7.95A10.49,10.49,0,0,1,83.26,109,107.7,107.7,0,0,0,72,113.64a30.44,30.44,0,0,1-7.07,2.3c-1.76.39-3.49.86-5.21,1.39a37.25,37.25,0,0,1-17.86.61c-3.17-.59-6.18-2.13-9.23-3.32a4.34,4.34,0,0,1-1.87-1.37,19.65,19.65,0,0,1-4.09-8.81,10,10,0,0,1,.62-4.79c.88-2.29,1.62-4.74,3.88-6.25a8.67,8.67,0,0,0,1.63-2c.52,1.63.48,2.35-.8,3.51-2.15,2-3.06,4.52-3.76,7.17a6,6,0,0,0,.2,3.4,23.6,23.6,0,0,0,2.68,5.45,8.58,8.58,0,0,0,3.37,2.77,32.5,32.5,0,0,0,7.06,2.4,27.75,27.75,0,0,0,6.32.16c1.71,0,3.46-.66,5.12-.44,5,.68,9.46-.91,14-2.48,3.76-1.3,7.59-2.4,11.32-3.79a32.26,32.26,0,0,0,5.78-2.91,8.48,8.48,0,0,0,3.36-4.1c.53-1.29.41-3,1.93-3.82.22-.12.27-.73.22-1.09C89,93.05,87.88,88.72,84,85.55c-.4.22-.87.68-1.15.59-2.19-.73-4.12.21-6.08.89Q71.38,88.94,66,90.92c-1.42.53-2.8,1.2-4.4,1.89v-2c-2.19,0-3.93,1-5.75,2.17.39.7.77,1.41,1.17,2.11A5.29,5.29,0,0,0,61.33,98c2.89.17,5.77.26,8.49-1.1,1.24-.63,1.59-.5,4.37.44-.07.13-.12.36-.22.38-3.2.65-6.4,1.35-9.63,1.87a9.51,9.51,0,0,1-6.16-1,5.47,5.47,0,0,1-3.27-5c-4,1.79-7.61,4.44-12.28,3.32.25-1.41,1.15-1.18,2-1.11a8.89,8.89,0,0,0,2.25,0c-.87-.48-2.52-.22-1.48-2.07-2.88-.72-5.31.11-7.67,1.42-.74.4-1.61,1.57-2.31.25-.57-1.09.74-1.29,1.42-1.71a2.14,2.14,0,0,0,1-1l-3.32.62.52-1.4-1.13-.53.84-1.47c-3.88-1.56-5.49-5-7.06-8.41a9.21,9.21,0,0,1-.7-5c.25-2.17.31-4.37.46-6.55a17.88,17.88,0,0,1,4.81-11.37c2.13-2.26,4.18-4.6,6.28-6.89a2.87,2.87,0,0,1,1-.61c3-1.38,6-2.67,8.9-4.13a30.69,30.69,0,0,0,5-3,26.3,26.3,0,0,1,10.36-4.61c3.15-.72,6.47-1,9.44-2.55a6.35,6.35,0,0,1,5.42-.37c2.18.8,4.56,1.09,6.81,1.74a9.23,9.23,0,0,1,3.11,1.45,28.17,28.17,0,0,1,4.1,3.84,11.22,11.22,0,0,1,1.86,3.46c.94,2.55,1.7,5.17,2.64,8.09,1.27-.32,2.73-.73,4.21-1.07,3-.72,6-1.63,9.22-1.5,3.54.15,6.81,1,9.51,3.38a38.56,38.56,0,0,1,5.23,5,27.41,27.41,0,0,1,4,7.11c2,5.53.85,10.8-2.37,15.6a52.92,52.92,0,0,1-10.27,10.87,17.62,17.62,0,0,1-13,4.35C99.41,98.35,95.18,98.3,91,96.65Zm-44.84-5.2c7.73-.1,14.52-2.34,21.28-4.47a32.53,32.53,0,0,0,12-7,42.67,42.67,0,0,1,3.87-3.39c4.13-2.92,6.52-7.09,8.51-11.54.92-2.06,1.62-4.22,2.34-6.36a9.73,9.73,0,0,0,.06-6.87c-.49-1.23-.82-2.52-1.27-3.77-1.57-4.3-4.42-7.34-8.89-8.57-2.48-.69-5-1.11-7.57-1.57a7.12,7.12,0,0,0-5.21.8,6.59,6.59,0,0,1-1.93.83c-2.49.62-5,1-7.49,1.78a28.5,28.5,0,0,0-4.93,2.09c-4.23,2.16-8,5.2-12.55,6.74a9.64,9.64,0,0,0-3.33,2.12c-2.25,2-4.38,4.22-6.52,6.38a15.47,15.47,0,0,0-2.59,3c-1.76,3.07-3.18,6.27-3.2,9.93,0,1.88-.3,3.75-.28,5.63a12.28,12.28,0,0,0,5.1,10.08C37.38,90,41.75,91.79,46.16,91.45ZM79,82.57c4.41.81,6.17,1.69,8,4a19.45,19.45,0,0,1,3.48,7.33,2,2,0,0,0,1.79,1.73,80.84,80.84,0,0,0,13.27,1.21c3.47.13,6.27-1.26,8.85-3.18a47.18,47.18,0,0,0,11.46-12c2.61-4,3.48-8.45,1.83-13a24,24,0,0,0-9.42-11.94,13.86,13.86,0,0,0-6-2.38c-5.61-.7-10.8.82-15.34,2.68-1.92,4.41-3.5,8.39-5.37,12.23a20.76,20.76,0,0,1-6.22,7.78C83.24,78.69,81.35,80.55,79,82.57ZM72.1,86.66l.31.55,6.88-2.89c-1.22-.08-2.14-.4-2.8-.12A44.17,44.17,0,0,0,72.1,86.66Z"/><path d="M64.32,106.07a1.35,1.35,0,0,1,1.18-1.54,20.7,20.7,0,0,1,7.16-1c-.48,1.63-1.6,1.45-2.54,1.61s-2,.46-3,.52S65.38,106.86,64.32,106.07Z"/><path d="M34.9,98.11c.77,1.65,2.1,1.69,3.54,1.58a12.54,12.54,0,0,1,2.35.33c-2,1.85-4,.93-5.84,1.14C34.65,100.13,33.68,99.3,34.9,98.11Z"/><path d="M59.63,95.71c1.86,0,3.77-.66,5.84.48C63.27,97.16,60.68,97,59.63,95.71Z"/><path d="M39.6,112.48l4.25,1.08c-1.44,1.32-2.93,1-4.33.58C38.73,113.87,39,113.18,39.6,112.48Z"/><path d="M78.25,101.2l-.11-1.3.78,0-.19,1.35Z"/><path d="M60.32,50.93a20.89,20.89,0,0,1-2.38,1.63,30.88,30.88,0,0,0-7.52,4.69A8.74,8.74,0,0,0,47.65,63c-.17,1.8.71,2.63,2.52,2.38a9,9,0,0,0,1.55-.49c.92-.29,1.83-1,2.7.22.18.25,1,.19,1.52,0,2.24-.68,4.5-1.33,6.67-2.2a13.29,13.29,0,0,0,2.57-1.93,3.15,3.15,0,0,1,1.35-.75c2.12-.11,4.24-.09,6.38-.13a5.69,5.69,0,0,1-4.44,2c-1.39,0-2.59.09-3.53,1.33a3.55,3.55,0,0,1-1.63.86C60.88,65.18,58.43,66,56,66.8s-4.8.42-7.19.16a2.91,2.91,0,0,1-2.48-3.21,10.31,10.31,0,0,1,4.67-9,47.44,47.44,0,0,1,5.36-2.87c1.16-.58,2.37-1.06,3.56-1.58Z"/><path d="M70.27,74.64c-2.59,2.08-4.8,4.79-8.7,4.59a8,8,0,0,0-3,.42c-4.4,1.56-8.63.67-12.85-.67-2.15-.68-4.37-1.15-6.44-2-3.11-1.32-4.3-4.07-3.61-7.73.21.11.55.21.55.3,0,2.09,1.29,3.64,2.43,5.13a5.55,5.55,0,0,0,3,1.69c3.77.93,7.58,1.76,11.41,2.44a11.3,11.3,0,0,0,3.45-.45,46.33,46.33,0,0,1,5.31-.8,9.74,9.74,0,0,0,5-1.68c1-.65,2.07-1.21,3.11-1.81Z"/><path d="M72.48,45.42C71,46,70,47.41,68,46.8c-1.28-.37-2.88.34-4.33.6a15.13,15.13,0,0,1-1.57.41,1.22,1.22,0,0,1-.85-.54c-.09-.12.12-.61.31-.74A3,3,0,0,1,62.79,46c1.93-.18,3.87-.26,5.81-.44a15.65,15.65,0,0,0,2-.43l1.72-.37Z"/><path d="M63.47,73.94C61,76,58,76.6,56.33,75.47,58.66,74.88,60.75,73.34,63.47,73.94Z"/><path d="M39.39,65.1h5.68a6.72,6.72,0,0,1-5,1.41c-.36,0-.67-.59-1-.9Z"/><path d="M86.21,54.41c.1-.48.23-.95.31-1.43.14-.82.21-1.65.4-2.45a4.38,4.38,0,0,1,.63-1c.34.35,1,.71,1,1a7,7,0,0,1-.61,2.41,10.57,10.57,0,0,1-1.21,1.73Z"/><path d="M57.78,86.5c.37,1.48.21,1.92-.89,2a33.29,33.29,0,0,1-3.52,0C54.64,86.61,56.48,87.26,57.78,86.5Z"/><path d="M85.37,66.31c.18-1.82,1.93-2.58,2.22-4.2C89.14,63.56,88.42,64.87,85.37,66.31Z"/><path d="M38.56,70.35l4.82,3.43C41,74.34,39.27,73.2,38.56,70.35Z"/><path d="M75.83,41.45c1.41-1.4,4.12-1.41,6.2,0Z"/><path d="M71.08,71c-.58,1.61-1.85,2-3.52,2C68,70.84,69.86,71.45,71.08,71Z"/><path d="M74,80l-3.06,1.53c-.45-1.59.83-1.84,1.51-2.37S73.61,79,74,80Z"/><path d="M84.5,47.62c.89-.36,1.63-.35,1.76.68,0,.36-.51,1.16-.74,1.14C84.44,49.33,84.39,48.5,84.5,47.62Z"/><path d="M39.81,88.86a1.71,1.71,0,0,1,2.12-.68c.2.09.18.64.25,1l-2.27.36Z"/><path d="M32.5,73.13l1.44,2.35C32.06,75.6,31.87,75.34,32.5,73.13Z"/><path d="M82.81,63.23c.71-.81,1.08-1.28,1.49-1.7a1.82,1.82,0,0,1,.63-.27C84.89,62.87,84.89,62.87,82.81,63.23Z"/><path d="M41.61,81.56l1.74-.07c0,.37,0,.69-.1.78C42.46,82.89,41.91,82.75,41.61,81.56Z"/><path d="M106.35,68.67c-2,1.52-6.35,1.9-7.95.8A3.13,3.13,0,0,1,97,66.89c-.16-3.4,1.75-5.58,4.4-7.18,2.44-1.46,5.22-1.37,7.95-1.14a17.7,17.7,0,0,1,3.42.74,4.93,4.93,0,0,1,1.38.83c.7.48,1.23,1.15.59,1.94s-1.39.37-2-.25a5.67,5.67,0,0,0-4.48-1.63c-1.25,0-2.5.09-3.73.24a7.26,7.26,0,0,0-5.4,3.71c-1.43,2.33-.19,4.39,2.53,4.39,1,0,2-.2,3-.22A7.88,7.88,0,0,1,106.35,68.67Z"/><path d="M97.33,90c.23-1.72,1.32-1.47,2.2-1.43a22.34,22.34,0,0,0,8-1.2,19.54,19.54,0,0,0,10.23-8.15,25.71,25.71,0,0,1,1.83-2.2,1.31,1.31,0,0,1,.29,2.2c-3,3.87-6.26,7.49-11.12,9.34a27.43,27.43,0,0,1-9.57,1.76A10.48,10.48,0,0,1,97.33,90Z"/><path d="M109.31,68.08c1.71-.56,3.12-2.1,5.32-2C113.74,67.73,111.87,68.39,109.31,68.08Z"/><path d="M100.53,72.26c-1.23,1-2.07,1.35-3.37,1C98,72,98.93,71.93,100.53,72.26Z"/></svg>