<svg xmlns="http://www.w3.org/2000/svg" viewBox="0 0 150 150"><defs><style>.a{fill:#fdfac7;}.b{fill:#fdf8bd;}.c{fill:#fcf6aa;}.d{fill:#faf17e;}.e{fill:#faf179;}.f{fill:#faf287;}.g{fill:#fbf5a0;}.h{fill:#fdfbd6;}.i{fill:#fbf59b;}.j{fill:#fbf5a9;}.k{fill:#fffded;}</style></defs><title>icon</title><path class="a" d="M47.88,108.78a14.76,14.76,0,0,0,3.44,2.34,14.48,14.48,0,0,0,7,1.79,13.08,13.08,0,0,0,1.63-.1h0a13.08,13.08,0,0,1-1.63.1,14.48,14.48,0,0,1-7-1.79l-.16-.08a14.36,14.36,0,0,1-3.28-2.26h0m-.24-.3a2.2,2.2,0,0,1,.23.29h0a2.2,2.2,0,0,0-.22-.28h0M42,103l0,0c.28.29.6.64.94,1s.77.72,1.17,1.1l.11.1h0l-.11-.1h0c-.4-.38-.81-.74-1.17-1.1h0c-.34-.37-.66-.72-.94-1l0,0m-2.74-2.23A5.85,5.85,0,0,0,41,102h0a5.85,5.85,0,0,1-1.76-1.26h0m-5.2-7.72c.07.13.13.26.19.4h0c-.06-.14-.12-.27-.19-.4h0m-1.91-4.8,0,.12a39.3,39.3,0,0,0,1.87,4.68h0a36,36,0,0,1-1.83-4.56l0-.12,0-.12m-1.22-10h0c0,1,.06,2.09.12,3,0,.31.06.61.1.88h0c0-.27-.07-.57-.1-.88h0c-.06-.9-.12-2-.12-3v0m.33-4.85c0,.15-.07.29-.1.44h0s0,.44-.11,1.14v.09h0c-.05.75-.08,1.77-.11,2.85v0h0v.28h0V78c0-1.1.06-2.14.11-2.9s.12-1.23.12-1.23.07-.29.1-.44h0m1.06-8.74c0,1.15-.1,2.38-.24,3.67h0c.14-1.29.21-2.52.24-3.67h0"/><path class="b" d="M66.26,34.79c-2.9,0-5.76,1.6-8.79,3.32a21.7,21.7,0,0,1-4.78,2l.69,0c.52,0,1.19-.1,1.95-.22.69-.59,1.39-1.15,2.09-1.69,3-1.72,5.89-3.32,8.79-3.32q.32,0,.63,0a15.52,15.52,0,0,1,8.67,3.14.36.36,0,0,1,.13.31,1,1,0,0,1-.14.45,1.19,1.19,0,0,0,.2-.56.35.35,0,0,0-.13-.29,15.56,15.56,0,0,0-8.67-3.15c-.21,0-.43,0-.64,0"/><path class="b" d="M99.82,38.81a1.09,1.09,0,0,1,.07.3c.24.13.48.3.71.44-.24-.25-.5-.5-.78-.74"/><path class="b" d="M51.83,40.41l-1.33.35c-1.2.3-2.42.57-3.64.8s-2.42.5-3.58.75c-1.7.31-3.75.34-5.68,1.29a8,8,0,0,0-2.79,2.14,10.51,10.51,0,0,0-2.1,4.11A27.82,27.82,0,0,0,32,56.53c0,1.39.08,2.69.16,3.91.1,1.5.19,2.79.21,4.2,0-.41,0-.81,0-1.19,0-.6,0-1.16,0-1.7v-.1c0-1.62-.14-3.12-.19-4.23h0C32,56.27,32,55.59,32,55.59s0,.68.11,1.83h0C32,56.27,32,55.59,32,55.59s0,.68.11,1.83h0c.06,1.11.14,2.61.19,4.23v.1c0,.54,0,1.1,0,1.7h0c0,.38,0,.78,0,1.19v.06h0a28.17,28.17,0,0,1-.24,3.61,43.3,43.3,0,0,1-.82,5.07A35.08,35.08,0,0,0,30.94,78a34.36,34.36,0,0,0,.21,3.68h0v.42a9.11,9.11,0,0,0,.3,1.41h0c0,.87.06,1.77.14,2.69l.63,1.91L33,90.26c.24.71.53,1.43.83,2.15l.45,1c.15.31.31.64.49,1l0,0c.3.55.61,1.09.93,1.61a25.61,25.61,0,0,0,2,2.87,17,17,0,0,0,1.63,1.82A9.17,9.17,0,0,0,41,102l.12,0h0l0,.05.11,0,1.92,2.07,1,1c.78.72,1.52,1.51,2.19,2.09.51.45.93.85,1.2,1.14l.57.49a20.22,20.22,0,0,0,3.33,2.24,12.21,12.21,0,0,0,4,1.37,22.66,22.66,0,0,0,3.39.26c.34,0,.67,0,1,0s.71-.09,1.07-.16c-.36.07-.72.12-1.07.16h0c.35,0,.71-.09,1.07-.16-.36.07-.72.12-1.07.16.45,0,.91,0,1.37-.11a25,25,0,0,0,5.58-1.36c.92-.33,1.84-.73,2.74-1.07s1.81-.79,2.71-1.15c1.79-.77,3.61-1.5,5.33-2.15L80,106c.74-.29,1.47-.56,2.21-.81,1.48-.53,3-1,4.54-1.42a6,6,0,0,1,1.56-.13c.58,0,1.26,0,2,0l3.9.11h.12c2.82,0,5.65-2.84,7.06-5.15,1-2,2.12-3.93,3.17-5.89s2.15-3.93,3.23-6.09c.94-1.38,2.36-2.26,3.39-3.87a16.81,16.81,0,0,0,1.76-5.87c.06-.48.11-1,.16-1.43l.09-1.42c.08-.94.08-1.9.17-2.87a26.3,26.3,0,0,0,.44-4.74,23.42,23.42,0,0,0-.22-3.21,12.78,12.78,0,0,0-.89-3.51c-.51-1.12-.75-.95-.75-1.1a.2.2,0,0,1,0-.07,1.56,1.56,0,0,1,0-.3c0-1.08,1-1.83,1-3.29v-.2a8.62,8.62,0,0,0-2.94-5.16,59.65,59.65,0,0,1-5.08-5c-.79-.93-1.57-1.89-2.34-2.87l-.21-.25a2.76,2.76,0,0,1,.06.4v.26c0,.67-.15,1.32-.15,1.91v0a9.15,9.15,0,0,0,.7,2.5,28.13,28.13,0,0,1,1,2.71c0,.22,0,.42,0,.63a7.77,7.77,0,0,1-.23,1.72,1.49,1.49,0,0,0-.09.59c0,1,.75,2.07,1.26,3.2a4.34,4.34,0,0,1,.47,2.1c0,.9-.15,1.83-.15,2.72a4.72,4.72,0,0,0,0,.65,11,11,0,0,0,.3,1.73c.13.56.32,1.11.42,1.67a6.18,6.18,0,0,1,.18,1.4,3.27,3.27,0,0,1-.45,1.75c.09-.13.15-.19.19-.19s.08.08.08.23a11.11,11.11,0,0,1-.73,2.89,8.54,8.54,0,0,1-1.49,2.76s0,0,0-.07a1.15,1.15,0,0,1,0-.14,1.28,1.28,0,0,1-.9.32l-.21,0c-.22-.15-.64-.24-.67-.43-.32-1.58-1.86-2.1-2.88-3-.12,0-.55,1-1.32,1.93a10.58,10.58,0,0,1-1.27,1.41,4.76,4.76,0,0,1-1.39.88c-1.46.4-2.83.51-3.91,1.4a.51.51,0,0,0,0,.25c0,.21.08.47.08.7a.53.53,0,0,1-.07.28,41.57,41.57,0,0,1-3.28,6c-1.93,2.83-4.66,5.45-5.42,5.54h-.15c-.92,0-2.13-.43-2.16-1.08-.51-1.78-2.18-2-3.2-3.24-.22-.35-.1-.93-.33-1.28-.75-.85-1.87-1.77-2.76-1.77h-.1c-.3,0-.61,0-.92,0a9.28,9.28,0,0,0-1.58.14l-.53.11-.19.07a.5.5,0,0,0-.29.26l-.61.08c-.18.46-.42,1-.75,1.66-.51.86-.83,1.47-1,1.47a.09.09,0,0,1-.09-.07h0c-.1,0-1.11,2.45-2.63,3v0a6.61,6.61,0,0,0,.07.93l.74-.4a12.49,12.49,0,0,0,2-1.36,4.52,4.52,0,0,1,1.74-1.12h.15c.48,0,1,.33,1.6,1.16l.34.14a8.61,8.61,0,0,0,1,.36c1.16.2,2.68.5,4.16.85,2.48.63,4.92,1.43,4.93,3a2,2,0,0,1-.24.94A31,31,0,0,1,79.88,95c-.58.85-1.31,1.84-2.2,2.93-.45.53-.93,1.09-1.46,1.67s-1.23,1.19-2,1.8a33.93,33.93,0,0,1-5.39,3.68,16.06,16.06,0,0,1-7,2.28h-.56a14.74,14.74,0,0,1-6.78-1.75,20.35,20.35,0,0,1-3.37-2.07c-.53-.41-1.07-.81-1.57-1.26s-1-1-1.43-1.43c0,0-.1-.11-.31-.3l-1-.82C46,99,44.59,98,42.55,96.58c0,0-.12-.16-.36-.42s-.56-.67-.92-1.2-.8-1.15-1.25-1.87c-.21-.35-.47-.76-.66-1.12s-.37-.72-.56-1.08a18.89,18.89,0,0,1-1.63-4.57,13.3,13.3,0,0,1-.2-2.13,5.9,5.9,0,0,1,.32-2.06s0-.77.11-2,.22-2.86.43-4.6c.27-2.76.69-5.73.69-8a13.58,13.58,0,0,0-.11-1.66h0a14.9,14.9,0,0,0,1-2.21,9.25,9.25,0,0,0,.6-2.6c-.09-1-.13-1.64-.13-1.64h0A4.65,4.65,0,0,1,40,60.65c0,.14,0,.27,0,.41,0,.57.12,1.25.22,2,0-.69,0-1.37,0-2.07v-.22a31.7,31.7,0,0,1,.35-4.66c.45-2.92,1.41-5.16,2-5.47,0,0,.34-.7.9-1.76A25.92,25.92,0,0,1,46,45.23a18.72,18.72,0,0,1,5.8-4.82"/><path class="b" d="M31.15,82.12a26.57,26.57,0,0,0,.39,4l.05.13c-.08-.92-.14-1.82-.14-2.69h0a9.11,9.11,0,0,1-.3-1.41m.93-13.81c0,.25-.07.51-.12.76-.27,1.49-.52,2.9-.7,4.31a43.3,43.3,0,0,0,.82-5.07"/><path class="c" d="M31.15,82.12h0a9.11,9.11,0,0,0,.3,1.41h0a7.9,7.9,0,0,1-.3-1.4"/><path class="b" d="M53.13,86.51A13.42,13.42,0,0,0,55,88.57a8.72,8.72,0,0,0,5.53,2.51,17.41,17.41,0,0,1-5.31-2.78,20.33,20.33,0,0,1-2.12-1.79"/><path class="b" d="M65.31,89.2c0,.23.1.49.18.75l.28,0c-.14-.23-.3-.47-.46-.71m-3-2.19h0"/><path class="b" d="M46.66,91.22a18.56,18.56,0,0,0,2.77,4.28A16.85,16.85,0,0,0,50.87,97c-.4-.46-.87-1-1.36-1.66a40.88,40.88,0,0,1-2.85-4.13"/><path class="b" d="M34.25,93.45c.17.37.35.77.57,1.19a21.26,21.26,0,0,0,4.44,6.13A18.12,18.12,0,0,1,37.64,99a25.61,25.61,0,0,1-2-2.87c-.32-.52-.63-1.06-.93-1.61l0,0c-.18-.34-.34-.66-.49-1"/><path class="c" d="M34.74,94.42l0,0c.3.55.61,1.09.93,1.61a25.61,25.61,0,0,0,2,2.87,18.12,18.12,0,0,0,1.62,1.82h0A18.12,18.12,0,0,1,37.64,99h0l0,0a25.82,25.82,0,0,1-1.92-2.83h0c-.32-.52-.63-1.06-.93-1.61h0l0,0"/><path class="b" d="M66.18,98.4l-.22.23a9.6,9.6,0,0,1-3.41,2.07q-.4.14-.81.24a8.47,8.47,0,0,0,4.18-2,4,4,0,0,0,.26-.52"/><path class="b" d="M41,102l.16.09,0-.05h0L41,102"/><path class="c" d="M41,102h0l.12,0h0l-.09,0h0"/><path class="b" d="M44.25,105.25,45,106a30,30,0,0,0,2.65,2.48c-.27-.29-.69-.69-1.2-1.14-.67-.58-1.41-1.37-2.19-2.09"/><path class="d" d="M75.5,38.82a3.32,3.32,0,0,1-1,1C72,41.33,69,41.37,66.33,42.51c-.36.33-1.19.72-1.33,1.11a3.39,3.39,0,0,1-.82,1c-1.37,1-2.67,1.88-3.84,2.78-.63.43-1.16.9-1.77,1.33s-1.17.9-1.7,1.41a13.63,13.63,0,0,0-2.24,3.48c-.22.6-.49,1.19-.71,1.82s-.42,1.31-.64,2.07c-.92,2.91-.35,5.76-1.19,9.06a18.43,18.43,0,0,0-.3,3.2A15.62,15.62,0,0,0,52,72.61,20.78,20.78,0,0,0,54.55,79c.39.62.86,1.56,1.5,2.55.3.51.66,1,1,1.53.18.26.36.51.54.73l.54.59A7.75,7.75,0,0,0,62.23,87h.07a7.67,7.67,0,0,1-4.06-2.59,9.07,9.07,0,0,1-1.08-1.29,16.94,16.94,0,0,1-1-1.53c-.65-1-1.13-1.91-1.51-2.53a21.2,21.2,0,0,1-2.53-6.38,17.05,17.05,0,0,1-.25-2.85,17.8,17.8,0,0,1,.3-3.15c.84-3.3.26-6.15,1.17-9.07.22-.76.42-1.44.63-2.07s.49-1.21.7-1.81a14,14,0,0,1,2.22-3.48c.53-.51,1.16-.93,1.69-1.41s1.14-.9,1.76-1.33c1.17-.9,2.46-1.77,3.83-2.78a3.23,3.23,0,0,0,.81-1c.14-.38,1-.78,1.33-1.1,2.68-1.15,5.63-1.19,8.13-2.72a3.25,3.25,0,0,0,1.08-1.07"/><path class="d" d="M62.54,87h-.09a2.55,2.55,0,0,1,1.24.38,2.76,2.76,0,0,0,1.07.32,1.35,1.35,0,0,0,.33,0l.06,0h0a1.4,1.4,0,0,1-.34,0,2.9,2.9,0,0,1-1.05-.32A2.57,2.57,0,0,0,62.54,87"/><path class="e" d="M66.21,34.89c-2.9,0-5.76,1.6-8.79,3.32-.7.54-1.4,1.1-2.09,1.69l.25,0A11.39,11.39,0,0,0,61,37.77s.79-.24,1.91-.47a25.94,25.94,0,0,1,3.79-.57l1,0c1.16,0,2,.17,2,.62,0,.3-.36.73-1.23,1.3L67,40c-.84.75-1.79,1.67-2.47,2.23l-.93.53c-.6.33-1.41.84-2.39,1.46a31,31,0,0,0-6.37,5.43,22.09,22.09,0,0,0-4.23,7.47c-.81,2.41-1.2,4.31-1.54,4.65a38.38,38.38,0,0,0-.68,4.62c-.08,1-.14,2-.14,3.22a36,36,0,0,0,.84,7.79,25.81,25.81,0,0,0,2.21,6.14,21.67,21.67,0,0,0,1.85,3,20.33,20.33,0,0,0,2.12,1.79,17.41,17.41,0,0,0,5.31,2.78h.22a5.67,5.67,0,0,0,3.33-1h.08A11,11,0,0,0,65.42,90h.07c-.08-.26-.13-.52-.18-.75s-.21-.32-.33-.48h0l.24-.12a6.61,6.61,0,0,1-.07-.93v0l-.06,0a1.35,1.35,0,0,1-.33,0,2.76,2.76,0,0,1-1.07-.32A2.55,2.55,0,0,0,62.45,87h-.22a7.75,7.75,0,0,1-4.07-2.62l-.54-.59c-.18-.22-.36-.47-.54-.73-.37-.51-.73-1-1-1.53-.64-1-1.11-1.93-1.5-2.55A20.78,20.78,0,0,1,52,72.61a15.62,15.62,0,0,1-.25-2.81,18.43,18.43,0,0,1,.3-3.2c.84-3.3.27-6.15,1.19-9.06.22-.76.43-1.44.64-2.07s.49-1.22.71-1.82a13.63,13.63,0,0,1,2.24-3.48c.53-.51,1.16-.94,1.7-1.41s1.14-.9,1.77-1.33c1.17-.9,2.47-1.78,3.84-2.78a3.39,3.39,0,0,0,.82-1c.14-.39,1-.78,1.33-1.11C69,41.37,72,41.33,74.47,39.8a3.32,3.32,0,0,0,1-1,1,1,0,0,0,.14-.45.36.36,0,0,0-.13-.31,15.52,15.52,0,0,0-8.67-3.14q-.32,0-.63,0"/><path class="f" d="M67.72,36.7l-1,0a25.94,25.94,0,0,0-3.79.57c-1.12.23-1.91.47-1.91.47a11.39,11.39,0,0,1-5.42,2.09,21.54,21.54,0,0,1-2.2.26l-.69,0h-.22a4.9,4.9,0,0,0-.64.25A18.72,18.72,0,0,0,46,45.23a25.92,25.92,0,0,0-2.56,3.67c-.56,1.06-.9,1.76-.9,1.76-.64.31-1.6,2.55-2,5.47a31.7,31.7,0,0,0-.35,4.66V61c0,.7,0,1.38,0,2.07l.06.5c.32,2.43.82,5.68,1.55,9s1.66,6.67,2.48,9.42c.22.69.4,1.34.56,1.94s.35,1.16.46,1.67a9.6,9.6,0,0,1,.28,1.84,1.68,1.68,0,0,1-.06.47s0,.18.11.55c.05.18.11.41.17.67s.21.6.35,1,.29.72.48,1.13a40.88,40.88,0,0,0,2.85,4.13c.49.63,1,1.2,1.36,1.66a16.16,16.16,0,0,0,5.59,3.35,11.4,11.4,0,0,0,3.78.69c.27,0,.55,0,.82,0l.68-.08q.4-.1.81-.24A9.6,9.6,0,0,0,66,98.63l.22-.23a7.16,7.16,0,0,0,.3-.73,10.22,10.22,0,0,0,.6-2.84c0-.19,0-.37,0-.55a7.36,7.36,0,0,0-.43-2.56,10.5,10.5,0,0,0-.9-1.81l-.28,0h-.07a11,11,0,0,1-1.23.08h-.08a5.67,5.67,0,0,1-3.33,1h-.22A8.72,8.72,0,0,1,55,88.57a13.42,13.42,0,0,1-1.9-2.06,21.67,21.67,0,0,1-1.85-3,25.81,25.81,0,0,1-2.21-6.14,36,36,0,0,1-.84-7.79c0-1.18.06-2.27.14-3.22a38.38,38.38,0,0,1,.68-4.62c.34-.34.73-2.24,1.54-4.65a22.09,22.09,0,0,1,4.23-7.47,31,31,0,0,1,6.37-5.43c1-.62,1.79-1.13,2.39-1.46l.93-.53c.68-.56,1.63-1.48,2.47-2.23l1.5-1.37c.87-.57,1.23-1,1.23-1.3,0-.45-.83-.62-2-.62"/><path class="g" d="M39.87,59.42s0,.63.13,1.64c0-.14,0-.27,0-.41a4.65,4.65,0,0,0-.14-1.23"/><path class="g" d="M40,61.06a9.25,9.25,0,0,1-.6,2.6,14.9,14.9,0,0,1-1,2.21,13.58,13.58,0,0,1,.11,1.66c0,2.28-.42,5.25-.69,8-.21,1.74-.31,3.39-.43,4.6s-.11,2-.11,2A5.9,5.9,0,0,0,37,84.19a13.3,13.3,0,0,0,.2,2.13,18.89,18.89,0,0,0,1.63,4.57c.19.36.38.72.56,1.08s.45.77.66,1.12c.45.72.88,1.35,1.25,1.87s.7.92.92,1.2.36.42.36.42C44.59,98,46,99,46.9,99.71l1,.82c.21.19.31.3.31.3.47.48.95,1,1.43,1.43s1,.85,1.57,1.26a20.35,20.35,0,0,0,3.37,2.07,14.74,14.74,0,0,0,6.78,1.75h.56a16.06,16.06,0,0,0,7-2.28,33.93,33.93,0,0,0,5.39-3.68c.73-.61,1.39-1.22,2-1.8s1-1.14,1.46-1.67c.89-1.09,1.62-2.08,2.2-2.93a31,31,0,0,0,1.69-2.79,2,2,0,0,0,.24-.94c0-1.59-2.45-2.39-4.93-3-1.48-.35-3-.65-4.16-.85a8.61,8.61,0,0,1-1-.36l-.34-.14c-.65-.83-1.12-1.16-1.6-1.16h-.15a4.52,4.52,0,0,0-1.74,1.12,12.49,12.49,0,0,1-2,1.36l-.74.4-.24.12q.18.24.33.48a12.07,12.07,0,0,1,1.36,2.52,7.36,7.36,0,0,1,.43,2.56c0,.18,0,.36,0,.55a10.22,10.22,0,0,1-.6,2.84,7.16,7.16,0,0,1-.3.73,4,4,0,0,1-.26.52,8.47,8.47,0,0,1-4.18,2l-.68.08c-.27,0-.55,0-.82,0a11.4,11.4,0,0,1-3.78-.69A16.16,16.16,0,0,1,50.87,97a16.85,16.85,0,0,1-1.44-1.51,18.56,18.56,0,0,1-2.77-4.28c-.19-.41-.34-.79-.48-1.13s-.26-.68-.35-1-.12-.49-.17-.67c-.08-.37-.11-.55-.11-.55h0a1.68,1.68,0,0,0,.06-.47,9.6,9.6,0,0,0-.28-1.84c-.11-.51-.27-1.07-.46-1.67s-.34-1.25-.56-1.94c-.82-2.75-1.77-6.11-2.48-9.42s-1.23-6.56-1.55-9l-.06-.5c-.1-.77-.17-1.45-.22-2m0,0h0"/><path class="h" d="M99.05,38.81a.32.32,0,0,0-.2.06,6.11,6.11,0,0,1,1,1.46c.57,1.06,1.33,2.12,1.32,3.25v.05c0,.15,0,.29,0,.44,0,1-.19,1.82-.19,2.83v.17a11.89,11.89,0,0,0,.46,2.39c.59,3,1.21,5.74,1.79,8.39a2.35,2.35,0,0,1,.77,2c0,.66-.11,1.33-.11,1.87a5.17,5.17,0,0,1-.4,1.16c0,.54,0,1.1-.09,1.61a1.63,1.63,0,0,1-.59,1.29C101,67,99.33,67.87,97.69,68.86c-.65.42-2.06,1.54-3.53,2.46s-3,1.73-3.5,2.09c-1.5.9-2.23,2.53-3.73,3.34h0s-.06-.12-.08-.33l-.45.39c0,.17-.29.62-.32.8a2.15,2.15,0,0,1-1.14.25h-.19a9.19,9.19,0,0,0-2.15-.23A30,30,0,0,0,78.9,78a27.17,27.17,0,0,1-3.37.27,10,10,0,0,1-2.7-.33,10,10,0,0,0-1.44-.13,3.57,3.57,0,0,0-1.48.27.63.63,0,0,1-.2.2.05.05,0,0,0,0,0,1.8,1.8,0,0,1,0,.2,5.09,5.09,0,0,1,0,.58,8.48,8.48,0,0,1-.4,2.52l.32,0,.61-.08a.5.5,0,0,1,.29-.26l.19-.07.53-.11a9.28,9.28,0,0,1,1.58-.14c.31,0,.62,0,.92,0h.1c.89,0,2,.92,2.76,1.77.23.35.11.93.33,1.28,1,1.26,2.69,1.46,3.2,3.24,0,.65,1.24,1.08,2.16,1.08h.15c.76-.09,3.49-2.71,5.42-5.54a41.57,41.57,0,0,0,3.28-6,.53.53,0,0,0,.07-.28c0-.23-.08-.49-.08-.7a.51.51,0,0,1,0-.25c1.08-.89,2.45-1,3.91-1.4a4.76,4.76,0,0,0,1.39-.88,10.58,10.58,0,0,0,1.27-1.41c.77-1,1.2-1.91,1.32-1.93,1,.86,2.56,1.38,2.88,3,0,.19.45.28.67.43l.21,0a1.28,1.28,0,0,0,.9-.32h0a1.15,1.15,0,0,0,0,.14c0,.05,0,.07,0,.07a8.54,8.54,0,0,0,1.49-2.76,11.11,11.11,0,0,0,.73-2.89c0-.15,0-.23-.08-.23s-.1.06-.19.19h0a3.27,3.27,0,0,0,.45-1.75,6.18,6.18,0,0,0-.18-1.4c-.1-.56-.29-1.11-.42-1.67a11,11,0,0,1-.3-1.73,4.72,4.72,0,0,1,0-.65c0-.89.15-1.82.15-2.72a4.34,4.34,0,0,0-.47-2.1c-.51-1.13-1.26-2.18-1.26-3.2a1.49,1.49,0,0,1,.09-.59A7.77,7.77,0,0,0,104,50c0-.21,0-.41,0-.63a28.13,28.13,0,0,0-1-2.71,9.15,9.15,0,0,1-.7-2.5v0c0-.59.15-1.24.15-1.91v-.26a2.76,2.76,0,0,0-.06-.4,2.44,2.44,0,0,0-1.3-1.74l-.41-.24c-.23-.14-.47-.31-.71-.44l-.07,0a1.94,1.94,0,0,0-.77-.26"/><path class="i" d="M32.11,57.42c0,1.11.14,2.61.19,4.23,0-1.62-.13-3.12-.19-4.23"/><path class="i" d="M32.3,61.75c0,.54,0,1.1,0,1.7h0c0-.6,0-1.16,0-1.7m0-.1v0"/><path class="a" d="M31.26,73.38c0,.15-.07.29-.1.44s-.05.48-.12,1.23-.08,1.8-.11,2.9v.28h0V78h0v0c0-1.08.06-2.1.11-2.85h0V75c.07-.7.11-1.14.11-1.14h0c0-.15.07-.29.1-.44h0m1.06-8.74c0,1.15-.1,2.38-.24,3.67h0c.14-1.29.21-2.52.24-3.67h0"/><path class="i" d="M30.93,78v.28h0V78m.11-2.9c-.05.75-.08,1.77-.11,2.85,0-1.08.06-2.1.11-2.85m.12-1.23s0,.44-.11,1.14c.07-.7.11-1.14.11-1.14m1.17-10.37h0"/><path class="a" d="M30.93,78.23h0v0c0,1,.06,2.07.12,3h0c0,.31.06.61.1.88h0c0-.27-.07-.57-.1-.88-.06-.92-.12-2-.12-3"/><path class="j" d="M31.15,82.12h0a7.9,7.9,0,0,0,.3,1.4h0a9.11,9.11,0,0,1-.3-1.41h0"/><path class="i" d="M31.05,81.24c0,.31.06.61.1.88a7.9,7.9,0,0,0,.3,1.4,7.9,7.9,0,0,1-.3-1.4c0-.27-.07-.57-.1-.88m-.12-3c0,1,.06,2.07.12,3-.06-.9-.12-2-.12-3m0,0h0"/><path class="i" d="M31.45,83.53c0,.91.07,1.84.15,2.79v-.1c-.08-.92-.13-1.82-.14-2.69"/><path class="i" d="M31.6,86.32s.17.75.55,1.93c-.38-1.18-.55-1.93-.55-1.93"/><path class="a" d="M32.15,88.25l0,.12,0,.12a36,36,0,0,0,1.83,4.56h0a39.3,39.3,0,0,1-1.87-4.68l0-.12"/><path class="i" d="M32.23,88.49a36,36,0,0,0,1.83,4.56,36,36,0,0,1-1.83-4.56"/><path class="i" d="M34.06,93.05c.07.13.13.26.19.4.15.31.31.63.49,1-.18-.34-.34-.67-.49-1-.06-.13-.12-.26-.19-.39"/><path class="j" d="M41,102h0l.09,0h0L41,102h0m-6.28-7.61,0,0h0c.3.55.61,1.09.93,1.61h0a25.82,25.82,0,0,0,1.92,2.83l0,0h0a17,17,0,0,0,1.63,1.82h0A17,17,0,0,1,37.64,99a25.61,25.61,0,0,1-2-2.87c-.32-.52-.63-1.06-.93-1.61l0,0"/><path class="i" d="M37.64,99a18.12,18.12,0,0,0,1.62,1.82A5.85,5.85,0,0,0,41,102h0a5.54,5.54,0,0,1-1.75-1.26A17,17,0,0,1,37.64,99m-2-2.87a25.82,25.82,0,0,0,1.92,2.83,25.82,25.82,0,0,1-1.92-2.83m-.93-1.61c.3.55.61,1.09.93,1.61-.32-.52-.63-1.06-.93-1.61"/><path class="i" d="M41.14,102.07,42,103c-.41-.45-.71-.77-.82-.88l0-.05"/><path class="a" d="M47.64,108.48a3.24,3.24,0,0,1,.22.28h0a2.2,2.2,0,0,0-.23-.29h0M42,103l0,0c.28.29.6.64.94,1h0c.36.36.77.72,1.17,1.1h0l.11.1h0l-.11-.1c-.4-.38-.81-.74-1.17-1.1s-.66-.72-.94-1l0,0"/><path class="i" d="M46.44,107.34c.51.45.93.85,1.2,1.14a2.2,2.2,0,0,1,.22.28,3.24,3.24,0,0,0-.22-.28c-.27-.29-.69-.69-1.2-1.14m-2.3-2.19.11.1c.78.72,1.52,1.51,2.19,2.09-.67-.58-1.41-1.37-2.19-2.09l-.11-.1M43,104.05c.36.36.77.72,1.17,1.1-.4-.38-.81-.74-1.17-1.1"/><path class="a" d="M47.88,108.78h0A14.36,14.36,0,0,0,51.16,111l.16.08a14.48,14.48,0,0,0,7,1.79,13.08,13.08,0,0,0,1.63-.1h0a13.08,13.08,0,0,1-1.63.1,14.48,14.48,0,0,1-7-1.79,14.76,14.76,0,0,1-3.44-2.34"/><path class="i" d="M47.88,108.78A14.36,14.36,0,0,0,51.16,111a14.36,14.36,0,0,1-3.28-2.26"/><path class="k" d="M97.79,38.62c-.1,0-.16,0-.16.11h0a.36.36,0,0,0,0,.11c0,.31.39.67.52,1A4.38,4.38,0,0,1,99,42.14q0,.44,0,.84c0,.46,0,.92,0,1.37v.25c0,1.08-.07,2.18-.07,3.4,0,.64,0,1.32.08,2a59.87,59.87,0,0,0,.66,6c.12.71.72,1.18,1,1.77a5.72,5.72,0,0,1,.62,2.33,4.91,4.91,0,0,0,.76,2.33.46.46,0,0,1,.1.31,1,1,0,0,1-.11.45,21.81,21.81,0,0,1-6.38,5c-.75.37-2,1.34-3.31,2.14s-2.52,1.5-3,1.74A6.14,6.14,0,0,0,87,75.24a3.25,3.25,0,0,0-.16,1c0,.33.06.53.09.53h0c1.5-.81,2.23-2.44,3.73-3.34.55-.36,2-1.14,3.5-2.09s2.88-2,3.53-2.46c1.64-1,3.34-1.91,5.13-3.08a1.63,1.63,0,0,0,.59-1.29c.06-.51,0-1.07.09-1.61a5.17,5.17,0,0,0,.4-1.16c0-.54.11-1.21.11-1.87a2.35,2.35,0,0,0-.77-2c-.58-2.65-1.2-5.39-1.79-8.39a11.89,11.89,0,0,1-.46-2.39V46.9c0-1,.19-1.88.19-2.83,0-.15,0-.29,0-.44h0v-.05c0-1.13-.75-2.19-1.32-3.25a6.11,6.11,0,0,0-1-1.46h0a7.58,7.58,0,0,0-1.06-.25"/><path d="M23.8,71c0-1.49-.05-3,0-4.45.14-3.76,2.06-6.85,3.93-9.92a39.43,39.43,0,0,1,8-9.43A62.63,62.63,0,0,1,44.52,41c4.62-2.74,9.47-5.1,14.14-7.78,2.77-1.59,5.35-3.5,8-5.22a22.29,22.29,0,0,1,17.34-2.85A17.33,17.33,0,0,1,88,26.72a114.85,114.85,0,0,1,10.4,5.39,123.14,123.14,0,0,1,10.14,7.53c3.57,2.81,6,6.67,8.17,10.5a23.89,23.89,0,0,1,2.39,7.55,54.33,54.33,0,0,1,.61,14.47A41.36,41.36,0,0,1,115.6,86a48.19,48.19,0,0,1-7.79,11.33c-.78.88-1.49,1.81-2.22,2.73a38.09,38.09,0,0,1-9.28,7.83c-3.52,2.31-7,4.68-10.36,7.25-5.14,3.92-11,6.69-17.55,7.11a32.73,32.73,0,0,1-8.85-.5c-3.71-.81-7.6-1.28-11-3.28-2.14-1.26-4.15-2.74-6.23-4.1A18.06,18.06,0,0,1,35,105.54a46,46,0,0,0-5.55-9.77c-3.21-4.64-4.53-9.93-5.22-15.39-.39-3.1-.44-6.23-.64-9.35Zm42.13,49.45c.47,0,.94,0,1.41,0,7.16-.58,13.35-3.49,19-7.83,2.65-2,5.44-3.92,8.27-5.72a36.38,36.38,0,0,0,8.62-7.16c1.1-1.31,2.3-2.56,3.34-3.92,3-3.89,6.08-7.73,7.94-12.35s3.42-9.24,3.34-14.27a76.68,76.68,0,0,0-.33-9.11,26.87,26.87,0,0,0-2.65-9.19c-4.42-8.23-11.52-13.6-19.43-18.09-2-1.15-4.16-2.16-6.18-3.35A21.06,21.06,0,0,0,78,26.7a18.07,18.07,0,0,0-6.64,1.11,56.86,56.86,0,0,0-7.65,4.49C61.81,33.49,60,34.89,58.05,36c-3,1.65-6.12,3.11-9.2,4.62A46.31,46.31,0,0,0,29.78,57.07a28.74,28.74,0,0,0-3.49,6.82,20,20,0,0,0-.61,6.74,121.37,121.37,0,0,0,1,12.35,26,26,0,0,0,4.22,11.55c2.59,3.7,5.35,7.32,6.6,11.79a5.15,5.15,0,0,0,.47.81c2.6,5,7.24,7.72,12,9.94A39.9,39.9,0,0,0,65.93,120.47Z"/><path d="M83.12,75.22l6-1c0,.17.11.34.17.51a4.11,4.11,0,0,1-1.18.73c-3,.59-6,1.94-9.2,1-1.21-.34-1.53.84-2.55,1.15.36.26.81.46.79.58-.41,2.7,1.94,4,2.9,6.06,0,.07.12.11,0,0,2.87-.36,3.68,2,5.51,3.36-2.22.61-3.11-1.35-4.63-1.62-.11,1.34-.21,2.6-.31,3.86-.68.5-1.13.19-1.52-.42-1.33-2.1-2.68-4.19-4-6.3-.42-.68-.68-1.47-1.87-.85.09.25.2.5.28.76s.1.44.22,1c-2.21.31-4.24,1.38-6.55.65-.28-.08-.74-.24-.84-.12-1.39,1.57-1.94-.05-2.74-.69a1.33,1.33,0,0,1-.14-.19c-2-2.64-1.73-3.54,1.31-4.77a10.29,10.29,0,0,0,1-.6,8,8,0,0,0-4.42-.71c-2.24.31-4.27-.54-6.36-1-.14,0-.22-.36-.43-.75a25.15,25.15,0,0,0,9.93-.67c0-2.33,1.2-3.95,2.8-5.42a2.32,2.32,0,0,0,.58-1.65c-.1-1.43.75-1.9,1.88-2.27s2.16-.85,3.24-1.26a5.85,5.85,0,0,1,5.38.23c-.17,1.09-.46,1.84-1.63,1.54s-1.69.16-2.44,1.08S72.06,68.71,71,69.45s-1.8,1.42-2.9,2.31c2.52,2.47.87,5.44,1.35,8.12l3.36-2.95c-.67-2.41,1.92-4.51.84-7a1.6,1.6,0,0,1,2.29-.54c1.2.53.51,1.62.59,2.66l1.88,1c.92-.56,1.53-1.23,2.08-1.19A3,3,0,0,1,82.31,73,7.67,7.67,0,0,1,83.12,75.22ZM79.25,86l-1.87-2.82-.51.32C77.64,84.13,76.88,85.7,79.25,86Z"/><path d="M33.61,96.26a15.66,15.66,0,0,1-1.45-2.49c-1.59-4.56-3.34-9.09-4.57-13.75a27.43,27.43,0,0,1,.58-15.23c.37-1.19.71-2.39,1-3.59.18-.66.5-1.27,1.25-1.08s1,.93.7,1.69-.52,1.31-.74,2a29.82,29.82,0,0,0,.55,21c1.27,3.18,2.12,6.53,3.13,9.8A6.71,6.71,0,0,1,34.22,96Z"/><path d="M78.56,113.1c-1.26,1.22-2.51,2.45-3.79,3.66-.21.21-.57.48-.8.43-2.46-.53-4.68.74-7,.87a1.84,1.84,0,0,1-1.35-.75,10.66,10.66,0,0,1,1.5-.6c2.27-.54,4.56-1,6.81-1.59a6,6,0,0,0,1.52-1l2.62-1.7Z"/><path d="M65.76,86.74c1.34,0,1.9.47,1.72,1.3-.6,2.81-1.29,5.6-2,8.38,0,.15-.34.24-.86.57C64.42,93.34,65.75,90.17,65.76,86.74Z"/><path d="M80.12,65.08c0-1.13-.19-1.78,0-2.21,1.24-2.3,2.73-4.41,5.31-5.62a10.7,10.7,0,0,1-.57,1.35c-1,1.73-2.07,3.46-3.16,5.15A9.2,9.2,0,0,1,80.12,65.08Z"/><path d="M76.69,53a6.67,6.67,0,0,1-.09,1.49c-.49,1.72-1,3.44-1.59,5.13-.14.4-.68.66-1,1-.25-.5-.81-1.09-.7-1.48a16,16,0,0,1,2.91-6.24Z"/><path d="M60.83,69h2.23c0-1.84-2.07-2.69-2.16-4.49,1.69.4,3.28,2.14,4.45,4.85l-1.83,1.48A4,4,0,0,1,60.83,69Z"/><path d="M69.65,64.37c-.79.89-1.46.6-1.83-.07-1.28-2.36-2.48-4.77-3.75-7.27C66,57.67,67.83,60.1,69.65,64.37Z"/><path d="M72.7,94c-1.56-1.86-.12-4.13-1.07-6,1.83-.66,2.2-.54,2.08.8C73.54,90.52,73.8,92.34,72.7,94Z"/><path d="M63,60a13.42,13.42,0,0,1,3.26,5.46,1,1,0,0,1-.4.93,1,1,0,0,1-1-.23c-.88-1.94-1.69-3.91-2.52-5.87Z"/><path d="M58.33,90.29c.89-.92,1.76-1.87,2.68-2.76a1.59,1.59,0,0,1,1-.47,1.33,1.33,0,0,1,.91.5.85.85,0,0,1-.21.79c-1.33.81-2.39,2.13-4,2.41Z"/><path d="M86.36,68.1c-.49,1.15-.87,2-2,1.78a1.1,1.1,0,0,1-.76-.67,1,1,0,0,1,.56-.82A15.31,15.31,0,0,1,86.36,68.1Z"/></svg>