<svg xmlns="http://www.w3.org/2000/svg" viewBox="0 0 150 150"><defs><style>.a{fill:#d8bacf;}.b{fill:#d1aec5;}.c{fill:#c39ab5;}.d{fill:#a2678e;}.e{fill:#9e618a;}.f{fill:#a87197;}.g{fill:#bd8ead;}.h{fill:#e0cbdb;}.i{fill:#c299b5;}.j{fill:#b787a8;}.k{fill:#f3ebf1;}</style></defs><title>icon</title><path class="a" d="M87.21,96.32v0a4.27,4.27,0,0,1-.2.7h0a4.27,4.27,0,0,0,.2-.7v0M87.3,95c0,.15,0,.32,0,.52h0c0-.2,0-.37,0-.52h0m0,0h0v0h0v0m0-.39v0c0,.1,0,.23,0,.37h0c0-.14,0-.27,0-.37v0m.12-.37h0l.06,0h0l-.06,0m.13-.71a1.36,1.36,0,0,1,.11.41h0a1.36,1.36,0,0,0-.11-.41h0M87,93l.61.52h0L87,93h0m-.43-.33c0,.05,0,.09.1.09h0c-.05,0-.08,0-.1-.09h0m0-1.07h0l0,.15h0l0-.15h0m.52-2.6h0s-.08.36-.19.92v0c.11-.56.19-.92.19-.92h0m2.39-7.12h0c0,.09-.39,1.25-.78,2.52h0c-.21.69-.42,1.42-.6,2h0v0c0,.17-.09.33-.12.48h0l.13-.51c.18-.61.39-1.34.6-2,.41-1.32.79-2.52.79-2.52h0m1.13-4V78s0,.07,0,.1,0-.07,0-.1V77.8h0m-.09-1.08a6,6,0,0,1,.09,1.08h0a6,6,0,0,0-.09-1.08h0"/><path class="b" d="M89,28.24a.31.31,0,0,0-.21.07,9.59,9.59,0,0,0-3,3.49,16.16,16.16,0,0,0-1.39,5.05,7.72,7.72,0,0,0,0,1c0,3.26,1.77,6.63,3.43,9.94A16.12,16.12,0,0,1,89.42,53a13.13,13.13,0,0,0,.09-1.67c0-.33,0-.7,0-1.09-.55-.79-1.09-1.59-1.63-2.4-1.66-3.31-3.44-6.66-3.44-9.92a7.72,7.72,0,0,1,0-1,15.82,15.82,0,0,1,1.38-5.05,9.5,9.5,0,0,1,3-3.5.37.37,0,0,1,.21-.06.85.85,0,0,1,.53.26,1,1,0,0,0-.61-.34"/><path class="b" d="M89.52,53.79c0,.54.07,1.07.07,1.59a19.89,19.89,0,0,1-1.1,6.39c-.59,1.43-1.56,2.95-2.1,4.5a6.74,6.74,0,0,0-.49,2.24v0h0v0a4.93,4.93,0,0,0,.15,1.08,3.32,3.32,0,0,0,.44,1.06,26.8,26.8,0,0,0,1.65,2.15l.74.95a6.74,6.74,0,0,1,.69.93,6.26,6.26,0,0,1,.91,1.92v0a1.57,1.57,0,0,0,0-.23h0a6,6,0,0,0-.18-.64h0L90,75.26h0a7.12,7.12,0,0,0-.56-1h0c-.23-.31-.45-.57-.63-.77h0l-.25-.28a1.69,1.69,0,0,1-.19-.19l-.19-.16h0l.19.16s.11.12.19.19l.25.28h0c.18.2.4.46.63.77h0a7.12,7.12,0,0,1,.56,1h0l.27.59h0a6,6,0,0,1,.18.64h0a1.57,1.57,0,0,1,0,.23,4.28,4.28,0,0,1,.12,1,5.55,5.55,0,0,1-.08.89,8.87,8.87,0,0,1-.91,2.87A53.09,53.09,0,0,0,88,86.67l-.11.23a3.22,3.22,0,0,0-.12.69v.1h0c-.25.43-.48.86-.73,1.23a9.86,9.86,0,0,1-.28,1.75c-.11.37-.21.74-.29,1l0,.23v.34a1.78,1.78,0,0,0,0,.35l.1.09h0L87,93a3.89,3.89,0,0,1,.61.51h0l0,0a.58.58,0,0,1,.07.29V94h0l0,.14-.12.14h0a.82.82,0,0,0-.13.23,4.52,4.52,0,0,0-.06,1.12v.09a5.08,5.08,0,0,1-.08.85A3.63,3.63,0,0,1,87,97c-.05.14-.11.29-.17.43.06-.14.12-.29.17-.43h0c-.05.14-.11.29-.17.43.06-.14.12-.29.17-.43a4,4,0,0,1-.25.45,6.84,6.84,0,0,1-1.65,1.81,7.45,7.45,0,0,1-2.36,1.22,6.65,6.65,0,0,1-2.13.33l-.74,0a14.86,14.86,0,0,1-7.09-2.48c-.86-.45-3-4.13-3.67-5.35-1.18-2.19-4.65-3-7.13-3.2h-.42A39,39,0,0,1,56,89.38a53.24,53.24,0,0,1-6.11-1.3,5.57,5.57,0,0,1-1.62-1.17l-.69-.67c-.24-.22-.47-.42-.62-.53-1.33-.62-2.89-.84-4.39-1.6a7.51,7.51,0,0,1-.94-.56,5.79,5.79,0,0,1-.83-.74,15.88,15.88,0,0,1-1.91-4.75c-.28-1.2-.44-2-.58-2.51a2.31,2.31,0,0,0-.47-1,.13.13,0,0,1,0-.07c.2-1.08,1.67-1.18,2.32-2.29a11.75,11.75,0,0,0,.93-5v0h0a18.09,18.09,0,0,1,1.66-7.1,15.26,15.26,0,0,1,2.36-3.59c-.91.37-1.9.42-2.75.8-1.72.91-3,3-4.5,4.75a13.55,13.55,0,0,1-2.28,1.64c-1.34.7-1.84,2.68-2.34,4.54a15.19,15.19,0,0,1-1.29,3.4,11.52,11.52,0,0,0-1.17,3.7,7.19,7.19,0,0,0-.05.92,13,13,0,0,0,.7,3.84,15.89,15.89,0,0,1,.95,4.14h0c0-.22,0-.32.07-.32s.33.52.61,1.28A25.06,25.06,0,0,0,34.93,89a21.44,21.44,0,0,1,1.34,2.12s0,0,0,0-.1,0-.23-.15a1.28,1.28,0,0,1,.15.7,1.38,1.38,0,0,1-.12.64c-.2.12-.39.43-.61.43l-.08,0a4.33,4.33,0,0,0-1.62-.33c-1.17,0-2.08.53-3.18.62a22,22,0,0,0,3,3.79c.87.93,1.86,1.89,2.79,2.78.46.44.94.89,1.28,1.24a9.45,9.45,0,0,1,.84,1c1.28,1.89,2.35,3.67,4.26,4.91a1,1,0,0,0,.34.06,2.23,2.23,0,0,0,.5-.07,2.73,2.73,0,0,1,.5-.06,1,1,0,0,1,.34,0c.6.31,5.05,1.24,9.53,2.25s9.15,2.13,9.94,2.71A4.54,4.54,0,0,1,65.31,114a.46.46,0,0,1-.17.39,1.92,1.92,0,0,0-.36,1.14c0,1.21,1,2.48,1.17,3.79h0c0,.43-.72.68-.75,1.11a5.45,5.45,0,0,0,2.59,3.84,18.79,18.79,0,0,0,9,3,45.79,45.79,0,0,0,6.31.7,24.73,24.73,0,0,0,5.5-1.63,19.24,19.24,0,0,0,3-1.53,3.93,3.93,0,0,1,1.8-.63c.28-.07.7-.75,1.48-1.77a27,27,0,0,1,3.32-3.61c-.09,0-.64,0-1.67-.06l-.07.06A14.32,14.32,0,0,1,95.13,120,21.43,21.43,0,0,1,90,122.77,17.25,17.25,0,0,1,83.91,124l-.72,0a9.72,9.72,0,0,1-6-2.2l-.78-.38c-.5-.24-1.17-.62-1.94-1.08a26.8,26.8,0,0,1-4.83-3.7c-1.86-1.83-3.16-3.75-3.15-5,0-.74.45-1.28,1.47-1.45l3.45-.63a58.35,58.35,0,0,0,8.08-2,28.81,28.81,0,0,0,8.12-4.3,13.27,13.27,0,0,0,2.49-2.51c.63-.8,1.15-1.54,1.63-2.23A2.55,2.55,0,0,1,92,98a1.16,1.16,0,0,0,.14-.56,3.53,3.53,0,0,0-.75-2.08l0-.14a1.68,1.68,0,0,1,0-.29v-.11a14.11,14.11,0,0,1,.18-1.7,7.94,7.94,0,0,1,2.26-4.69s.28-.48.69-1.32a30.47,30.47,0,0,0,1.38-3.44,17.81,17.81,0,0,0,1.07-5.49,5.27,5.27,0,0,0-.3-1.94h0a6.8,6.8,0,0,0,.6-1.81,5.34,5.34,0,0,0,.07-.71,5.86,5.86,0,0,0-.09-.93,2.59,2.59,0,0,0-.09-.4L96.94,72a6.25,6.25,0,0,0-.35-.57l-.13-.19h0a2.13,2.13,0,0,1,.65,1.08c.22.39.49.87.79,1.45-.68-1.77-1.5-3.42-2.2-4.89-.48-1-.86-1.84-1.17-2.54a3.73,3.73,0,0,1-.33-1.25,1,1,0,0,1,0-.26s-.25-.53-.62-1.38-.92-2-1.5-3.28a44.32,44.32,0,0,1-2.6-6.42"/><path class="c" d="M87,97h0c-.05.14-.11.29-.17.43.06-.14.12-.29.17-.43h0M87.67,94l0,.14-.12.14h0l.12-.14,0-.14h0m-.11-.47h0m0,0h0m-1-1.77h0l0,.23v.34h0v-.34l0-.23m1.3-4h0c-.25.43-.48.86-.73,1.23h0c.25-.37.48-.8.73-1.23m.11-.79h0a3.22,3.22,0,0,0-.12.69h0a3.22,3.22,0,0,1,.12-.69h0m2.6-8.26h0a8.87,8.87,0,0,1-.91,2.87h0a8.87,8.87,0,0,0,.91-2.87h0m-.08-2.15h0a1.57,1.57,0,0,1,0,.23h0a1.57,1.57,0,0,0,0-.23h0M90,75.26h0l.27.59h0L90,75.26h0M88.81,73.5h0c.18.2.4.46.63.77h0c-.23-.31-.45-.57-.63-.77h0m-.63-.63h0m0,0h0l.19.16a1.69,1.69,0,0,0,.19.19h0a1.69,1.69,0,0,1-.19-.19h0l-.19-.16h0"/><path class="b" d="M47.64,54.08c-.18.2-.39.4-.56.61q.42-.31.87-.6h-.09l-.22,0"/><path class="b" d="M90.53,78.64l-.09.41c-.26.83-.54,1.64-.82,2.46a8.87,8.87,0,0,0,.91-2.87"/><path class="b" d="M87.93,86.9c-.26.54-.72,1.63-.84,2v.06c.25-.37.48-.8.73-1.23h0v-.1h0a3.22,3.22,0,0,1,.12-.69"/><path class="b" d="M86.52,91.71c0,.09,0,.18-.06.25a1.22,1.22,0,0,0,0,.35.48.48,0,0,0,.11.32,1.78,1.78,0,0,1,0-.35h0v-.34l0-.23"/><path class="b" d="M86.62,92.72,87,93l-.31-.24h0"/><polyline class="b" points="87.56 93.48 87.56 93.48 87.56 93.48 87.56 93.48"/><polyline class="b" points="87.56 93.48 87.56 93.48 87.56 93.48 87.56 93.48"/><path class="b" d="M87.67,93.89a.84.84,0,0,1,0,.17l-.13.16h0l.12-.14,0-.14v-.06"/><path class="b" d="M97.39,97.26h0c-.54.94-1.08,2.06-1.81,3.52a10.72,10.72,0,0,0,.68-1,11.81,11.81,0,0,0,1.13-2.53"/><path class="b" d="M105.06,99.39a37,37,0,0,1-3.34,9.59c-.46.87-.94,1.72-1.43,2.56a20.74,20.74,0,0,0,4.17-8.36,23.46,23.46,0,0,0,.6-3.79"/><path class="b" d="M90.89,108.28c-.1.13-.21.26-.31.4-.78.9-1.66,1.92-2.67,2.94,0,0-.06.18-.14.49l.09-.09a33.9,33.9,0,0,0,2.46-2.94c.2-.26.39-.53.57-.8"/><path class="b" d="M104.78,112.9h0v0l0,0"/><path class="b" d="M94.18,118.54l-.63.33a13.41,13.41,0,0,0,2-.2c-.41,0-.86-.07-1.35-.13"/><path class="d" d="M89.56,28.58a3,3,0,0,1,.72,1.16c.18.67.41,1.35.53,2,.07.35.12.71.16,1.07l.19,1.09a20.82,20.82,0,0,0,1.09,4.58c.34.43.78,1.39,1.17,1.62a5.32,5.32,0,0,1,1.13,1.07,105.82,105.82,0,0,1,6,10.51c2.29,3.82,4.34,6.41,6.27,10.76.41,1.07.88,2,1.25,3s.84,1.93,1.12,2.95a23.33,23.33,0,0,1,.83,3.06,15.88,15.88,0,0,1,.24,2.71c0,.19,0,.38,0,.58,0,3,0,5.37.1,7.94s.43,5.23.64,9.1c0,.33,0,.72,0,1.15a36.22,36.22,0,0,1-1.13,8.87c-.13.52-.26,1-.44,1.56s-.35,1.09-.55,1.61c-.39,1-.85,2-1.3,3-.9,1.87-1.92,3.37-2.55,4.47a2,2,0,0,0-.19.28.83.83,0,0,0-.07.13c.07-.11.14-.22.27-.39.66-1.12,1.69-2.63,2.58-4.49a29.84,29.84,0,0,0,1.29-3c.21-.52.39-1.07.56-1.6s.31-1,.44-1.54A36.62,36.62,0,0,0,111.05,93c0-.4,0-.75,0-1.06-.21-3.87-.53-6.53-.63-9.11-.07-1.5-.08-2.94-.08-4.47v-2.1c0-.45,0-.9,0-1.37h0c0-.22,0-.43,0-.64a15.48,15.48,0,0,0-.24-2.66,23.86,23.86,0,0,0-.81-3.07c-.29-1-.74-2-1.12-3s-.84-2-1.25-3c-1.92-4.36-4-7-6.27-10.78a103,103,0,0,0-6-10.52,5.09,5.09,0,0,0-1.13-1.07c-.39-.22-.83-1.18-1.17-1.61-1.21-3.12-1-6.16-2-8.77a3,3,0,0,0-.79-1.23"/><path class="d" d="M104.76,112.93a10.34,10.34,0,0,1-2.75,3c-1.21,1-2.53,1.82-3.63,2.74l-.12.11h0c.55-.46,1.16-.88,1.77-1.34s1.26-.89,1.87-1.38a9.88,9.88,0,0,0,2.85-3.15"/><path class="e" d="M89,28.32a.37.37,0,0,0-.21.06,9.5,9.5,0,0,0-3,3.5,15.82,15.82,0,0,0-1.38,5.05,7.72,7.72,0,0,0,0,1c0,3.26,1.78,6.61,3.44,9.92.54.81,1.08,1.61,1.63,2.4,0-.08,0-.17,0-.25a13.83,13.83,0,0,0-.57-3,9.68,9.68,0,0,0-1.49-3.07s-.24-.92-.51-2.18a21.31,21.31,0,0,1-.37-2.11,19,19,0,0,1-.21-2.21c0-.13,0-.25,0-.38,0-1.64.2-2.85.7-2.85.32,0,.75.45,1.32,1.54,0,0,.54.83,1.35,1.82l1.2,1.56c.43.52.82,1,1.12,1.43l.14.29c.09.19.23.47.42.82.4.71.9,1.72,1.61,2.94,1.37,2.44,3.39,5.71,5.36,9.15a68,68,0,0,1,4.92,10.13c.26.76.53,1.45.71,2.1s.32,1.24.43,1.75a6.93,6.93,0,0,1,.24,1.58,1.62,1.62,0,0,1,0,.38s.06.38.18,1.08a28.42,28.42,0,0,1,.44,3,62.63,62.63,0,0,1,.31,6.38c0,1.12,0,2.3-.08,3.52a98.47,98.47,0,0,1-1.57,15.81,23.46,23.46,0,0,1-.6,3.79,20.74,20.74,0,0,1-4.17,8.36c-1.06,1.79-2.19,3.5-3.23,5.18a20.09,20.09,0,0,1-2.72,1.74l-.16.08c.49.06.94.1,1.35.13s1-.19,1.47-.32h0l-.41.39c1,.06,1.58.06,1.67.06l.12-.11c1.1-.92,2.42-1.77,3.63-2.74a10.34,10.34,0,0,0,2.75-3v0h0a.83.83,0,0,1,.07-.13,2,2,0,0,1,.19-.28c.63-1.1,1.65-2.6,2.55-4.47.45-.93.91-1.93,1.3-3,.2-.52.38-1.07.55-1.61s.31-1,.44-1.56A36.22,36.22,0,0,0,111,93c0-.43,0-.82,0-1.15-.21-3.87-.53-6.53-.64-9.1s-.08-4.93-.1-7.94h0c0-.2,0-.39,0-.58a15.88,15.88,0,0,0-.24-2.71,23.33,23.33,0,0,0-.83-3.06c-.28-1-.74-1.95-1.12-2.95s-.84-2-1.25-3c-1.93-4.35-4-6.94-6.27-10.76a105.82,105.82,0,0,0-6-10.51,5.32,5.32,0,0,0-1.13-1.07c-.39-.23-.83-1.19-1.17-1.62a20.82,20.82,0,0,1-1.09-4.58L91,32.85c0-.36-.09-.72-.16-1.07-.12-.69-.35-1.37-.53-2a3,3,0,0,0-.72-1.16.85.85,0,0,0-.53-.26"/><path class="f" d="M87,34.16c-.5,0-.7,1.21-.7,2.85,0,.13,0,.25,0,.38a19,19,0,0,0,.21,2.21,21.31,21.31,0,0,0,.37,2.11c.27,1.26.51,2.18.51,2.18A9.68,9.68,0,0,1,88.89,47a13.83,13.83,0,0,1,.57,3c0,.48.05.94.05,1.34a13.9,13.9,0,0,1-.11,1.85,4.42,4.42,0,0,0,.12.64,44.32,44.32,0,0,0,2.6,6.42c.58,1.27,1.14,2.44,1.5,3.28s.62,1.38.62,1.38h0a1,1,0,0,0,0,.26,3.73,3.73,0,0,0,.33,1.25c.31.7.69,1.57,1.17,2.54.7,1.47,1.52,3.12,2.2,4.89l.15.3a26.35,26.35,0,0,1,2.13,7.45,39.83,39.83,0,0,1,.39,5.55,27.79,27.79,0,0,1-.18,3.43c-.31,2.54-1,4.29-1.81,4.69,0,0-.52.8-1.19,2a11.81,11.81,0,0,1-1.13,2.53,10.72,10.72,0,0,1-.68,1c-.17.35-.35.72-.55,1.11a41,41,0,0,1-2.51,4.18c-.47.71-1,1.42-1.63,2.2-.18.27-.37.54-.57.8A33.9,33.9,0,0,1,87.86,112l-.09.09c0,.19-.09.43-.14.7a8,8,0,0,0-.11,1.28,5.77,5.77,0,0,0,.18,1.39A4.16,4.16,0,0,0,90,118.16a7.25,7.25,0,0,0,2.73.68c.22,0,.44,0,.68,0h.16l.63-.33.16-.08a20.09,20.09,0,0,0,2.72-1.74c1-1.68,2.17-3.39,3.23-5.18.49-.84,1-1.69,1.43-2.56a37,37,0,0,0,3.34-9.59,98.47,98.47,0,0,0,1.57-15.81c.05-1.22.08-2.4.08-3.52a62.63,62.63,0,0,0-.31-6.38,28.42,28.42,0,0,0-.44-3c-.12-.7-.18-1.08-.18-1.08h0a1.62,1.62,0,0,0,0-.38,6.93,6.93,0,0,0-.24-1.58c-.11-.51-.26-1.09-.43-1.75s-.45-1.34-.71-2.1a68,68,0,0,0-4.92-10.13c-2-3.44-4-6.71-5.36-9.15-.71-1.22-1.21-2.23-1.61-2.94-.19-.35-.33-.63-.42-.82L92,40.51c-.3-.41-.69-.91-1.12-1.43l-1.2-1.56c-.81-1-1.35-1.82-1.35-1.82-.57-1.09-1-1.54-1.32-1.54"/><path class="g" d="M96.46,71.28l.13.19a6.25,6.25,0,0,1,.35.57l.17.32a2.13,2.13,0,0,0-.65-1.08"/><path class="g" d="M97.11,72.36a2.59,2.59,0,0,1,.09.4,5.86,5.86,0,0,1,.09.93,5.34,5.34,0,0,1-.07.71,6.8,6.8,0,0,1-.6,1.81,5.27,5.27,0,0,1,.3,1.94,17.81,17.81,0,0,1-1.07,5.49,30.47,30.47,0,0,1-1.38,3.44c-.41.84-.69,1.32-.69,1.32a7.94,7.94,0,0,0-2.26,4.69,14.11,14.11,0,0,0-.18,1.7v.11a1.68,1.68,0,0,0,0,.29l0,.14a3.53,3.53,0,0,1,.75,2.08h0A1.16,1.16,0,0,1,92,98a2.55,2.55,0,0,0-.3.41c-.48.69-1,1.43-1.63,2.23a13.27,13.27,0,0,1-2.49,2.51,28.81,28.81,0,0,1-8.12,4.3,58.35,58.35,0,0,1-8.08,2l-3.45.63c-1,.17-1.46.71-1.47,1.45,0,1.28,1.29,3.2,3.15,5a26.8,26.8,0,0,0,4.83,3.7c.77.46,1.44.84,1.94,1.08l.78.38a9.72,9.72,0,0,0,6,2.2l.72,0A17.25,17.25,0,0,0,90,122.77,21.43,21.43,0,0,0,95.13,120a14.32,14.32,0,0,0,1.39-1.15l.48-.45a14.83,14.83,0,0,1-3.45.52h-.16c-.24,0-.46,0-.68,0a7.25,7.25,0,0,1-2.73-.68,4.16,4.16,0,0,1-2.28-2.68,5.77,5.77,0,0,1-.18-1.39,8,8,0,0,1,.11-1.28c.05-.27.1-.51.14-.7s.14-.49.14-.49c1-1,1.89-2,2.67-2.94.1-.14.21-.27.31-.4.62-.78,1.16-1.49,1.63-2.2A41,41,0,0,0,95,101.9c.2-.39.38-.76.55-1.11.73-1.46,1.27-2.58,1.81-3.52h0c.67-1.23,1.19-2,1.19-2,.8-.4,1.5-2.15,1.81-4.69a27.79,27.79,0,0,0,.18-3.43,39.83,39.83,0,0,0-.39-5.55,26.35,26.35,0,0,0-2.13-7.45l-.15-.3c-.3-.58-.57-1.06-.79-1.45"/><path class="h" d="M48.21,53.17c-.51.26-1.1.3-1.78.65-1.32.55-2.5,1.71-3.76,2.16a28,28,0,0,0-3.89,1.8,13.48,13.48,0,0,0-2.26,2.08,24.47,24.47,0,0,0-6.26,10.25,3.56,3.56,0,0,1,.08.8,9,9,0,0,1-.36,2.2,21.67,21.67,0,0,0-.72,3.2c-.11.61-.32,1.18-.49,1.94,0,.18,0,.35,0,.53,0,1.23.27,2.43.27,3.48a3.77,3.77,0,0,1-.15,1.13,16.58,16.58,0,0,0-.93,5.4,15.65,15.65,0,0,0,.63,4.37v0a17.49,17.49,0,0,0,1.59,3.49,27.52,27.52,0,0,0,3.51,4.73c.35.39.72.78,1.1,1.15l1.07,1.06c.61.61,1.19,1.16,1.71,1.64,1.05,1,1.89,1.68,2.38,2a19.41,19.41,0,0,0,3.85,2.35,30.48,30.48,0,0,1,3.81,2.09s0,0,0,0-.12.09-.36.14l.91.46h0a4.89,4.89,0,0,1,.64.1,4.8,4.8,0,0,0,.63.1h0a5.58,5.58,0,0,1,1.5,1.45c1.21,2.28,3.52,4.4,6.43,6.62s6.32,4.4,9.18,6.62a16.31,16.31,0,0,0,5.69,2.51c.88.14,1.88.35,2.88.51a15.6,15.6,0,0,0,2.56.25H78A33.26,33.26,0,0,0,86.57,128q-.79,0-1.59,0a46,46,0,0,1-8.16-.74,18.79,18.79,0,0,1-9-3,5.45,5.45,0,0,1-2.59-3.84h0c0-.43.73-.68.75-1.11-.16-1.31-1.17-2.58-1.17-3.79a1.92,1.92,0,0,1,.36-1.14.46.46,0,0,0,.17-.39,4.54,4.54,0,0,0-1.47-2.34c-.79-.58-5.51-1.71-9.94-2.71s-8.93-1.94-9.53-2.25a1,1,0,0,0-.34,0,2.73,2.73,0,0,0-.5.06,2.23,2.23,0,0,1-.5.07,1,1,0,0,1-.34-.06c-1.91-1.24-3-3-4.26-4.91a9.45,9.45,0,0,0-.84-1c-.34-.35-.82-.8-1.28-1.24-.93-.89-1.92-1.85-2.79-2.78a22,22,0,0,1-3-3.79h0c1.1-.09,2-.62,3.18-.62a4.33,4.33,0,0,1,1.62.33l.08,0c.22,0,.41-.31.61-.43a1.38,1.38,0,0,0,.12-.64A1.28,1.28,0,0,0,36,91h0c.13.1.2.15.23.15s0,0,0,0A21.44,21.44,0,0,0,34.93,89,25.06,25.06,0,0,1,33,85.2c-.28-.76-.5-1.28-.61-1.28s-.07.1-.07.32h0a15.89,15.89,0,0,0-.95-4.14,13,13,0,0,1-.7-3.84,7.19,7.19,0,0,1,.05-.92,11.52,11.52,0,0,1,1.17-3.7,15.19,15.19,0,0,0,1.29-3.4c.5-1.86,1-3.84,2.34-4.54a13.55,13.55,0,0,0,2.28-1.64c1.48-1.79,2.78-3.84,4.5-4.75.85-.38,1.84-.43,2.75-.8a3.37,3.37,0,0,0,1.72-1.44,3,3,0,0,1,.27-.39c.46-.55,1.13-1.1,1.13-1.47v0h0"/><path class="i" d="M88.18,72.87h0l.19.16h0s.11.12.19.19h0c-.08-.07-.14-.14-.19-.19l-.19-.16h0m0,0h0"/><path class="j" d="M88.37,73a1.69,1.69,0,0,0,.19.19c-.08-.07-.14-.14-.19-.19m-.19-.16.19.16-.19-.16m0,0h0"/><path class="j" d="M88.56,73.22l.25.28-.25-.28"/><path class="j" d="M89.44,74.27a7.12,7.12,0,0,1,.56,1,7.12,7.12,0,0,0-.56-1"/><path class="j" d="M90.27,75.85a6,6,0,0,1,.18.64,6,6,0,0,0-.18-.64"/><path class="j" d="M90.57,78.12c0,.17,0,.34,0,.52a9.17,9.17,0,0,1-1.08,3.2c.06-.11.12-.22.17-.33a8.87,8.87,0,0,0,.91-2.87c0-.18,0-.35,0-.52"/><path class="a" d="M89.45,81.84h0s-.38,1.2-.79,2.52c-.21.69-.42,1.42-.6,2l-.13.51h0c0-.15.08-.31.12-.48v0h0c.18-.61.39-1.34.6-2h0c.39-1.27.76-2.43.78-2.52h0"/><path class="j" d="M88.05,86.42c0,.17-.09.33-.12.48a3.22,3.22,0,0,0-.12.69h0a3.22,3.22,0,0,1,.12-.69c0-.15.08-.31.12-.48m.61-2.06c-.21.69-.42,1.42-.6,2,.18-.61.39-1.34.6-2m.78-2.52c0,.09-.39,1.25-.78,2.52.39-1.27.76-2.43.78-2.52"/><path class="j" d="M87.82,87.69c-.26.45-.5.89-.76,1.27l0,0c.25-.37.48-.8.73-1.23"/><path class="j" d="M86.86,89.9c-.11.5-.23,1.16-.32,1.66.09-.5.21-1.16.32-1.66"/><path class="j" d="M87.56,93.48h0m0,0h0m-.92-.76L87,93l.61.52h0c-.24-.21-.44-.38-.61-.51l-.31-.25m-.16-.44a1.78,1.78,0,0,0,0,.35c0,.05,0,.09.1.09h0c-.05,0-.08,0-.1-.09a1.78,1.78,0,0,1,0-.35m0,0h0"/><path class="j" d="M87.43,94.19s-.1,0-.12.37c0-.36.12-.37.12-.37"/><path class="j" d="M87.28,95.52c0,.25,0,.47-.07.8,0-.33.07-.55.07-.8"/><path class="k" d="M48.5,52c-.26,0-.59.07-.85.09a49.74,49.74,0,0,0-6,1.73,29.92,29.92,0,0,0-6.83,4.13,24.33,24.33,0,0,0-5.85,7,10.44,10.44,0,0,0-.79,3.49c-.08.69-.27,1.37-.43,2.1s-.34,1.41-.51,2.27A13.78,13.78,0,0,0,27,75.23a7.12,7.12,0,0,0,.35,2.26,1.76,1.76,0,0,1,.09.6,5,5,0,0,1-.1.89,23.64,23.64,0,0,0-.49,15.3l.09.27a16.45,16.45,0,0,0,1.83,3.81,29.09,29.09,0,0,0,3.81,4.8c.37.4.76.78,1.15,1.14l1.08,1c.61.57,1.18,1.09,1.68,1.53,1,.9,1.76,1.52,2.16,1.83a22.71,22.71,0,0,0,4,2.32,11.61,11.61,0,0,0,2.81.86,6.86,6.86,0,0,0,1.09.1c.7,0,1.06-.14,1.06-.2s0,0,0,0a30.48,30.48,0,0,0-3.81-2.09,19.41,19.41,0,0,1-3.85-2.35c-.49-.37-1.33-1.08-2.38-2-.52-.48-1.1-1-1.71-1.64l-1.07-1.06c-.38-.37-.75-.76-1.1-1.15a27.52,27.52,0,0,1-3.51-4.73,17.49,17.49,0,0,1-1.59-3.49v0a15.65,15.65,0,0,1-.63-4.37,16.58,16.58,0,0,1,.93-5.4A3.77,3.77,0,0,0,29,82.26c0-1.05-.27-2.25-.27-3.48,0-.18,0-.35,0-.53.17-.76.38-1.33.49-1.94a21.67,21.67,0,0,1,.72-3.2,9,9,0,0,0,.36-2.2,3.56,3.56,0,0,0-.08-.8h0a24.47,24.47,0,0,1,6.26-10.25,13.48,13.48,0,0,1,2.26-2.08A28,28,0,0,1,42.67,56c1.26-.45,2.44-1.61,3.76-2.16.68-.35,1.27-.39,1.78-.65.22-.34.79-.76.78-1a.07.07,0,0,0-.05-.08A.52.52,0,0,0,48.5,52"/><path d="M79.1,118c-3.52-.52-7.71-.56-11.49-1.84-4.61-1.55-9.5-2.4-13.82-4.71-3.64-2-7.15-4.15-10.66-6.34-2-1.28-4-2.67-5.93-4.14-2.8-2.16-4.35-5.26-5.86-8.34a31.41,31.41,0,0,1-3.21-14,21,21,0,0,1,1.8-8.4A77.32,77.32,0,0,1,38.4,55.91c2.14-3,5-5.11,7.76-7.37A77.35,77.35,0,0,1,53,43.26a42.47,42.47,0,0,1,6.29-3c4.56-2,9.18-3.9,13.73-5.94A13.58,13.58,0,0,0,77.9,30c1.17-1.47,2.4-2.89,3.66-4.26,2.25-2.44,4.92-2.55,7.36-.38a3.35,3.35,0,0,1,1.33,3.08,27,27,0,0,0-.34,4.2,17.29,17.29,0,0,0,4.23,11.33c2.27,2.57,4.57,5.14,6.91,7.66a57.25,57.25,0,0,1,12.16,19.57c2.82,7.76,2.63,15.45-1.35,22.91a58.45,58.45,0,0,1-11.92,15.21,33.93,33.93,0,0,1-14,7.68A51.91,51.91,0,0,1,79.1,118ZM64.37,101.67c.7-1.61.68-1.67-.93-2.63.53,1.73-.84,1.22-1.68,1.34.23.5.38.85.57,1.25h2.09c0,.78,0,1.61,1.2.78a5,5,0,0,0-.63-.5A4.19,4.19,0,0,0,64.37,101.67Zm-5.11-4.73C58,94.87,58,94.87,55.64,95.5l-1,2.36c.47-.11,1-.08,1.11-.29,1.07-1.4,1-1.41,2.67-.79a3.32,3.32,0,0,0,.9.09c-.08,1.1.58,1.54,1.84,2-.17-1-.3-1.64-.43-2.34Zm-3,7.61.07-.07c-.77.15-1.71,0-1.55,1.38,0,.4-.82.9-1.38,1.47l4.31,2.75c2.2-1.93,3.23-4,1.43-6.52l1.53-.89v-.49l-1.54-.38-1.62,1.68c-.06-1.27-.09-2-.13-2.72H57c-.1.61-.19,1.22-.29,1.84-1.44-.08-1.14-1.17-1.4-1.84l-1.73,1.41c.4.92.87,1.35,1.82,1.19S56.35,103.87,56.28,104.55ZM75.72,50.34l.07-.08a3.82,3.82,0,0,1-1.16.58c-.16,0-.62-.76-.56-.83,1-1.16-.17-2.34,0-3.24.43-.9,2.16,0,1.62-1.63l-3.74-.4c.31,1.22,1.7,2,.57,3.38-1.78-.46-1.26-2.77-2.86-3.57a21.77,21.77,0,0,0-2.86,1.19A71.93,71.93,0,0,0,52.82,56.62c-1.43,1.41-3,2.67-4.51,4a38.42,38.42,0,0,0-4.43,4.1c-2.34,2.9-4.25,5.89-3.69,10.09a9.69,9.69,0,0,1-1.81,7.51A2.32,2.32,0,0,0,38,83.65c0,1.56,0,3.12,0,4.68a3.58,3.58,0,0,0,2.38,3.44,16.14,16.14,0,0,0,2.92.79c1.14.26,2.28.48,3.43.69l5.67,1c.54-2.19,2.26-2.79,4-3.41l-.09-.07c0,1-.16,2,1,2.3l1.49-2c.85,1.93,1.46,3.61,3.69,3.37.29,0,.64.54,1,.85,1.37,1.29,2.18,3.33,4.84,3.14-.47.77-.76,1.24-1.07,1.77a36.29,36.29,0,0,0,2,3.18c.5.67,1.17,1.52,1.88,1.64a34.23,34.23,0,0,0,6.23.5,17.85,17.85,0,0,0,3.89-.81c1.19-.29,2.37-.66,3.87-1.08-1-.83-1.75-1.49-.42-2.45l1.22,1.75a11.85,11.85,0,0,0,6.27-5,43.05,43.05,0,0,1,2.79-4.32c4.45-5.27,6-11.56,6.55-18.21.37-4.38-1.2-8.47-2.14-12.64-.16-.71-1-1.28-1.36-1.74l-.76-3.2c-1-.28-2-.28-2.22-.69s.11-1.34.18-1.83L93.35,53l-.54,1.57c-1.71-.6-1.38-1.58-.58-2.69L90.67,50.8l-.49-.39c-2.27-3.09-3.77-3.76-6.59-3a20.16,20.16,0,0,0-2.39-1.55c-.25-.12-.75.26-1.13.41l1.42,2.21c-1.1-.2-2-.12-2.19-.43-1-1.83-2.22-1.05-3.51-.66C76.3,48.78,76.3,48.78,75.72,50.34Zm17-.15c.19.16.48.4.77.66a20.27,20.27,0,0,1,4.94,5.56,50.08,50.08,0,0,1,3.82,10.49c1.95,7.28.81,14.16-2,20.84C98.1,93,94.6,97.41,91.06,101.8a8.82,8.82,0,0,1-1.64,1.31c-3.84,2.84-8.51,3.33-12.92,4.55a3.72,3.72,0,0,1-1.4-.08c-1-.12-2-.36-3-.39a5,5,0,0,1-3.72-1.63c-.46-.51-.84-1.09-1.25-1.64l-.26.51a4.82,4.82,0,0,1-1.83.27,2.11,2.11,0,0,0-2.73,1.18c-.43,1-1.2,2.34.1,3.46a17.42,17.42,0,0,1,1.51,1.47c.56.62,1.07,1.29,1.88,2.26a15.14,15.14,0,0,0,2.34.33c2.58,0,5.17.08,7.74-.06a24.5,24.5,0,0,0,16.18-7c1.91-1.85,3.93-3.59,5.83-5.45a46.53,46.53,0,0,0,10-13.73,13.55,13.55,0,0,0,.92-7.55c-.7-5.85-2.41-11.46-4.11-17.07a25.27,25.27,0,0,0-5.5-9.72c-2.5-2.79-5-5.57-7.65-8.22a10.23,10.23,0,0,1-2.72-5.32c-.76-3.48-.54-7-.6-10.51,0-1.83-.14-2.11-1.78-2.86-1.43-.66-2.16-.58-3.32.69-1.37,1.48-2.67,3-3.9,4.64a16.69,16.69,0,0,1-5.87,4.91c-4.07,2-8.28,3.62-12.41,5.48a52,52,0,0,0-8.18,4c-3.55,2.41-6.77,5.29-10.09,8a11.76,11.76,0,0,0-2,2.26,88.13,88.13,0,0,0-5,7.34c-1.67,2.9-3.05,6-4.47,9a11.59,11.59,0,0,0-.69,2.71C28.88,84.15,32.1,92,37.74,99a11.87,11.87,0,0,0,4.36,3.46,43.33,43.33,0,0,1,4.83,3.05c0-1.54-2.58-1.43-1.34-3.25,1.53.45,3.08.89,4.25-.72l-.9-1.17,2.18-.82c-.25-2.62-1.52-4.17-4.23-4.5-1.62-.2-3.19-.69-4.79-1-2-.42-4-1.06-4.9-2.9-1.42-3-1.15-6.2-.37-9.36,0-.08.09-.13.12-.2.28-.79.57-1.57.83-2.37a20.62,20.62,0,0,0,.66-8.12,4.35,4.35,0,0,1,1.5-4,5.67,5.67,0,0,0,1.32-1.92,14.43,14.43,0,0,1,5.05-5.41,21.33,21.33,0,0,0,5.76-5.07,6.07,6.07,0,0,1,1.11-1.21,101.93,101.93,0,0,1,13.67-9.85,7,7,0,0,1,4.23-1.07c2.41.21,4.8.58,7.19,1a32.61,32.61,0,0,0,4.16.84,8.64,8.64,0,0,1,4.71,1.13c1.48,1,2.84,2.12,4,3l1.58-.3ZM107.6,65.12c.64,2.47,1.38,4.93,1.89,7.43a88.85,88.85,0,0,1,1.43,9c.3,3.18-1.39,6-1.93,9.11a1.49,1.49,0,0,1-.7.77c-.86-.5-.85.32-1.12.68-1.46,2-2.67,4.29-4.4,6A168.16,168.16,0,0,1,90.09,110a22.46,22.46,0,0,1-12.87,5.14c-.63,0-1.25.1-1.87.16l-1.58.14c4.68.68,9.33,1.12,13.88-.64,3.37-1.3,6.72-2.65,9.5-5a62.19,62.19,0,0,0,5.69-5.56c4.93-5.34,9.06-11.16,10.21-18.57a43.34,43.34,0,0,0,.16-5.59c-1.89-2-1.66-4.76-2.34-7.2C110.11,70.16,109.49,67.41,107.6,65.12ZM51.94,104.5c-.9.54-1.41,1.23-2.42.89a2.93,2.93,0,0,0-1.08.11v.4l3.77.9c.69-1.88.69-1.88,0-4.54l-1.85,1.37Zm.94-7.91-.62-.06c0,.88-.23,1.8.76,2.56C53,98.25,52.93,97.42,52.88,96.59Zm7.37,13.51c.31,1.3.31,1.3,1,1.46Z"/><path d="M90.67,50.8c-.23.65-.46,1.3-.8,2.24-1-2-1-2,.31-2.63Z"/><path d="M71.19,80l-.88,1.56c-3.76,0-4.5-2.76-5.44-5.45v2.29c-1.88.26-3.67.47-5.46-.51-.1.17-.28.34-.3.53-.11.68-.3,1.34-1.15,1s-.88-1-.53-1.72c.62-1.37,1.86-1.49,3.19-1.4.05-.69.09-1.21.14-1.8l1.58-.14c.1.7.19,1.34.35,2.53,1-2,1.7-3.69,4.07-3.35-.21.62-.4,1.13-.73,2.08l2.68-1.69c.77.52,1.62,1.2,2.73.27-.66-.94-2.67-1.25-1.44-3.11l2.47.48c-.26-.62-.38-.91-.52-1.2s-.55-.84-.46-.94c.81-.93.59-2.42,1.8-3.15a9.57,9.57,0,0,0,1.87-1.56c.42-.42.81-.87.23-1.6-.27-.35,0-1.08,0-1.9A2.16,2.16,0,0,1,76.87,64a25.74,25.74,0,0,1-1.34,4.9c-.23.6-1.12.95-1.77,1.46L75.71,72l-.78,1.72,1.7,1.09-2.81,2.38c.69,1.09.64,2.47,2,3.26.39.23.06,1.7.06,2.9l2.5.28a1.8,1.8,0,0,1-.88,2.28c-1.08.57-.79,1.34-.86,2.11l1.71,1.15c-.78.3-1.24.67-1.61.59-.82-.18-3.49-2.92-3.44-3.38s.18-1.2.33-2.18a9.5,9.5,0,0,1-1.64.69c-.45.09-1.18.19-1.35,0-.39-.52,0-1,.56-1.26a3.08,3.08,0,0,0,.62-.39C71.58,81.94,71.37,80.88,71.19,80Zm-.09-1.52.56-.54c-.32-.27-.64-.54-1-.8,0,0-.28.26-.26.3C70.62,77.75,70.87,78.09,71.1,78.43Z"/><path d="M87,60.81c-.14.23-.26.65-.44.68s-.94-.06-1-.23a27.92,27.92,0,0,1-.7-3.39c0-.15.41-.49.65-.51s.69.34.67.43C85.88,58.92,86.59,59.78,87,60.81Z"/><path d="M62.52,93.54c3.3-1.78,3.44-1.77,4.69.31-.17.14-.46.42-.49.39C65.58,93.23,64,94.45,62.52,93.54Z"/><path d="M87.4,52.25l1.85,1.6a9.43,9.43,0,0,1-1,1.64c-.26.27-.76.32-1.15.47-.15-.39-.45-.8-.41-1.16A20,20,0,0,1,87.4,52.25Z"/><path d="M56.37,90.84c-.15-2.41,1.75-2.62,3.8-3.41-1.15,1.31-1.94,2.27-2.81,3.16-.21.21-.71.13-1.07.18Z"/><path d="M69.68,51.41c-1.06-1.65.46-1.83,1.18-2.69l1.3,1.61Z"/><path d="M82.55,93.65A22.79,22.79,0,0,1,84,91c.14-.18.7-.15,1-.07.12,0,.23.57.14.8a5.11,5.11,0,0,1-.93,1.68C84,93.69,83.37,93.57,82.55,93.65Z"/><path d="M49.58,73.06c0-.61-.24-1.47.06-1.79s1.26-.41,1.91-.59l.24.47-1.58,2Z"/><path d="M53.2,79.36l-1.61,2c-.92-.09-1.14-.72-.92-1.32C51,79.07,51.83,79,53.2,79.36Z"/><path d="M82.08,48.41l1.28,2.51c-1.12.7-1.51.06-1.89-.51S80.9,49.13,82.08,48.41Z"/><path d="M75.76,70c.32-.27.42-.43.55-.46.73-.13,1.54-.4,2,.5a.82.82,0,0,1-.31.76A1.46,1.46,0,0,1,75.76,70Z"/><path d="M58.62,74.59c-.8,1.12-1.37,1.9-1.95,2.72C55.39,75.63,55.77,75,58.62,74.59Z"/><path d="M46.53,71.47c-.07-.53-.37-1.16-.17-1.55.43-.88,1.22-1,2.38-.35l-1.71,2Z"/><path d="M55.41,66.93,54.14,68.3c-.74-.65-1.31-1.26-.53-2S54.81,66.33,55.41,66.93Z"/><path d="M44.06,69c-.52-2.63-.38-2.79,1.76-2.41C45.76,67.7,44.75,68,44.06,69Z"/><path d="M51.13,77.22a9.2,9.2,0,0,1-1.76.37,1.25,1.25,0,0,1-.82-.63.83.83,0,0,1,.11-.81,1.37,1.37,0,0,1,1-.18,10.77,10.77,0,0,1,1.55.79Z"/><path d="M42.83,83.19c.3-1,.22-2.3,1.74-2.66C44.93,82.16,43.82,82.65,42.83,83.19Z"/><path d="M62.09,52.71c-.46.22-.75.47-1,.44a4.5,4.5,0,0,1-1.38-.51,1.16,1.16,0,0,1,.19-.81c.54-.61,1.11-.4,1.62.08A4.85,4.85,0,0,1,62.09,52.71Z"/><path d="M41.1,82.7l-1.61,2.53c-.46-1.75-.46-1.75,1.2-2.9Z"/><path d="M83.54,74.08c-1,.24-1.85.56-2.2-.62-.06-.22.13-.72.3-.77C82.61,72.41,83.26,72.76,83.54,74.08Z"/><path d="M67.46,54.28c-.09,1-.32,1.75-1.35,1.58a1.06,1.06,0,0,1-.54-.9C65.85,53.82,66.69,54.33,67.46,54.28Z"/><path d="M68.31,47.75c-.73.48-1.36.47-1.7-.36-.09-.23.21-.88.41-.91C67.93,46.32,68.15,47,68.31,47.75Z"/><path d="M91.87,55.33c.42.54.86.87.86,1.19s-.45.64-.7,1c-.29-.29-.76-.55-.82-.88S91.55,55.91,91.87,55.33Z"/><path d="M57.6,81.36c-.36.88-.58,1.41-.9,2.21-.47-.49-1-.76-1-1.1C55.5,81.29,56.31,81.31,57.6,81.36Z"/><path d="M70.92,88.65l1.39-.88c.68.55.7,1.15.2,1.59S71.4,89.56,70.92,88.65Z"/><path d="M52.1,85.91c-.19.11-.25.18-.31.18-.93,0-1.41-.47-1.28-1.4a.83.83,0,0,1,.67-.42C52.15,84.48,52.18,85.19,52.1,85.91Z"/><path d="M75.72,50.34c1,.22,2,.47,1.8,1.85-1.73,0-1.73,0-1.74-1.93Z"/><path d="M87.6,87.49a8.2,8.2,0,0,1,1.23,1.09c.06.08-.32.73-.56.77a1,1,0,0,1-1.26-1C87,88.13,87.31,87.89,87.6,87.49Z"/><path d="M77.7,63a1.25,1.25,0,0,1,0-2,1,1,0,0,1,.93.26C79,62.08,78.56,62.64,77.7,63Z"/><path d="M84.69,48.1A15.24,15.24,0,0,1,85.42,50c0,.08-.59.46-.65.41a3.74,3.74,0,0,1-.93-1.14C83.77,49.09,84.21,48.72,84.69,48.1Z"/><path d="M47.62,75.75l-1.47.87c-.64-.36-.94-.92-.47-1.47S46.87,74.65,47.62,75.75Z"/><path d="M42.72,76.41c.36.61.78,1,.72,1.3s-.55.61-.85.91c-.24-.34-.66-.67-.68-1S42.33,77,42.72,76.41Z"/><path d="M86.83,76.5c-2,1.13-2,1.13-2.74-.79Z"/><path d="M65.56,52.67c-.22,1-.81,1.35-1.66,1.11a1,1,0,0,1-.32-.94C64.1,51.94,64.79,52.23,65.56,52.67Z"/><path d="M49.13,91.21c.41.45.9.75.9,1.06s-.52.58-.81.87c-.25-.31-.63-.59-.72-1C48.45,92,48.83,91.65,49.13,91.21Z"/><path d="M88.35,75.26c-1,.28-1.67.29-1.84-.75,0-.22.21-.69.38-.71C87.77,73.69,88.29,74.11,88.35,75.26Z"/><path d="M87.81,65.31c.35.57.76.94.72,1.26s-.53.56-.82.84c-.25-.32-.69-.63-.7-1S87.43,65.81,87.81,65.31Z"/><path d="M84.2,57.07c-.42-.48-.8-.75-.92-1.11,0-.19.4-.76.57-.74a4,4,0,0,1,1.14.56Z"/><path d="M83,61.27c-1.08.13-1.51-.3-1.31-1.28,0-.21.45-.55.62-.51C83.33,59.72,83.19,60.46,83,61.27Z"/><path d="M43.61,72.66c-.63.38-1.16.81-1.26.73a2.83,2.83,0,0,1-.79-1.18c0-.08.58-.61.76-.55A5.78,5.78,0,0,1,43.61,72.66Z"/><path d="M71.89,59.9l2,2C71.69,61.94,71.65,61.89,71.89,59.9Z"/><path d="M76.31,81.26c.52-.32.89-.71,1.1-.63s.6.54.89.84c-.27.22-.58.66-.81.62S76.82,81.65,76.31,81.26Z"/><path d="M90.29,82.85c.36.47.73.76.81,1.12,0,.17-.57.71-.71.65a2.07,2.07,0,0,1-.9-.86C89.43,83.66,89.91,83.27,90.29,82.85Z"/><path d="M90.48,59.32a9.66,9.66,0,0,1,.86,1.53c0,.13-.34.41-.53.62a5.61,5.61,0,0,1-1-1C89.73,60.33,90.12,59.92,90.48,59.32Z"/><path d="M78.6,74.44c.59-.36,1-.78,1.28-.73s.52.57.78.89c-.27.22-.57.65-.81.62S79.16,74.82,78.6,74.44Z"/><path d="M79.09,90.36c.32.43.74.77.68,1-.11.36-.51.63-.79.94-.28-.28-.81-.59-.78-.83S78.7,90.8,79.09,90.36Z"/><path d="M76.82,57.8c.52-.34.89-.78,1.18-.74s.79.61.75.88a1.24,1.24,0,0,1-.87.82C77.6,58.78,77.28,58.25,76.82,57.8Z"/><path d="M76.37,78.44c.52-.38.84-.79,1-.74a1.72,1.72,0,0,1,1,.76c.08.14-.43.84-.51.81A8.54,8.54,0,0,1,76.37,78.44Z"/><path d="M82.4,82.56c-.36,1.43-.7,2-1.58,1.6-.25-.11-.33-.59-.48-.9Z"/><path d="M88.8,96.11c.22,0,.56,0,.65.16a2,2,0,0,1,.4,1.09c0,.15-.6.27-.92.4a6.11,6.11,0,0,1-.42-1.15c0-.16.23-.37.36-.57Z"/><path d="M75.05,93.21c.26.67.56,1.06.49,1.37a1.44,1.44,0,0,1-.78.86c-.18.08-.55-.32-.84-.5Z"/><path d="M72.49,55.89c-.41.35-.7.78-.93.75s-.66-.41-1-.64c.24-.31.48-.88.7-.87S72,55.54,72.49,55.89Z"/><path d="M70.6,64.37a9.32,9.32,0,0,1,1,1.43c0,.08-.59.62-.72.56A1.82,1.82,0,0,1,70,65.5C69.94,65.3,70.29,64.94,70.6,64.37Z"/><path d="M83.66,96.26c.61-.28,1-.64,1.32-.56s.5.62.57,1c0,.12-.56.54-.77.48S84.16,96.69,83.66,96.26Z"/><path d="M69.65,60.16c-.52.33-.89.75-1.21.72s-.68-.59-.68-.92a1.1,1.1,0,0,1,.81-.71C68.91,59.3,69.19,59.75,69.65,60.16Z"/><path d="M67.45,48.32c.36.58.72.92.74,1.27s-.44.52-.69.78c-.25-.31-.63-.6-.71-.95S67.11,48.86,67.45,48.32Z"/><path d="M46.89,89.59c-.26,1-.41,1.6-.6,2.31C45,90.6,45,90.55,46.89,89.59Z"/><path d="M45.71,82c.53-.21.95-.54,1.21-.44a4.28,4.28,0,0,1,1.1.92c-.31.28-.62.76-1,.78S46.49,82.8,45.71,82Z"/><path d="M50.48,64.35c.38.52.83.87.82,1.18s-.53.57-.82.85a3.13,3.13,0,0,1-.61-1C49.83,65.13,50.18,64.82,50.48,64.35Z"/><path d="M84.44,81.66c.4.49.88.81.87,1.1s-.48.64-.75,1c-.29-.27-.77-.52-.81-.83S84.11,82.2,84.44,81.66Z"/><path d="M47.13,85.13l2,.55c-.59.51-.88,1-1.21,1C46.9,86.79,47,86.08,47.13,85.13Z"/><path d="M52.15,62.39c-.49.34-.85.75-1,.68a1.64,1.64,0,0,1-.81-.85c0-.1.49-.69.67-.65C51.33,61.66,51.64,62,52.15,62.39Z"/><path d="M54.07,86c-.19-.85-.3-1.36-.41-1.87.35,0,.82-.25,1-.09C55.28,84.51,55.09,85.06,54.07,86Z"/><path d="M55.29,72.88a4.16,4.16,0,0,1-1.07.87c-.11,0-.66-.52-.62-.72a1.39,1.39,0,0,1,.74-.84C54.49,72.13,54.86,72.56,55.29,72.88Z"/><path d="M63.29,51.82c-.32-.51-.66-.82-.69-1.16s.55-.69.64-.64a1.69,1.69,0,0,1,.8.83C64.1,51,63.67,51.36,63.29,51.82Z"/><path d="M65.7,95.33l2.44,1.24a8.26,8.26,0,0,1-1.25.49C65.84,97.26,65.54,96.74,65.7,95.33Z"/><path d="M70.63,51.72c.92-.07,1.54.14,1.41,1.08a1,1,0,0,1-.89.5C70.09,53.08,70.47,52.37,70.63,51.72Z"/><path d="M85,51.7a16.62,16.62,0,0,1,.48,1.93c0,.06-.74.38-.9.26C83.88,53.4,83.93,52.78,85,51.7Z"/><path d="M76,97.42l1.68-1.22C77.84,98.13,77.73,98.21,76,97.42Z"/><path d="M95.46,61.24c.8,0,1.35.25,1.26,1.11,0,.2-.61.53-.84.47C95,62.56,95,62,95.46,61.24Z"/><path d="M90.86,79.82c-.41.3-.69.66-1,.66s-.58-.35-.86-.54c.29-.3.53-.71.89-.85C90.08,79,90.45,79.48,90.86,79.82Z"/><path d="M81.91,68.77c-1-.49-1.13-1-.55-1.72.11-.14.48-.25.59-.17C82.73,67.43,82.43,68,81.91,68.77Z"/><path d="M88.14,90a8.83,8.83,0,0,1,1.46.18,5,5,0,0,1-.06,1L88,90.88Z"/><path d="M81.37,54.25l-.18-1.67c.94-.27,1.52.05,1.42.75,0,.33-.86.56-1.33.83Z"/><path d="M84.55,78.8c.33.45.74.83.67,1a1.93,1.93,0,0,1-.89.85c-.11,0-.72-.52-.67-.69C83.76,79.57,84.14,79.29,84.55,78.8Z"/><path d="M85.86,100.47c-.39-.46-.81-.74-.78-1s.38-.7.6-1c.26.22.75.44.75.67A4.41,4.41,0,0,1,85.86,100.47Z"/><path d="M89.69,58.3c-1.33.3-1.79,0-1.7-.76,0-.24.48-.44.73-.66Z"/><path d="M82,86.29c.36.42.59.69.83.95-.27.23-.54.65-.78.63a1.08,1.08,0,0,1-.75-.68C81.28,87,81.7,86.69,82,86.29Z"/><path d="M41.12,89c-.49-.75-.68-1.42,1-1.85l-.36,1.94Z"/><path d="M81.28,54.16c.06.22.2.46.15.66a4.44,4.44,0,0,1-.44.87l-1-.61c.18-.29.29-.68.55-.85s.58,0,.88,0Z"/><path d="M60.83,91.17l.9.83c-.24.24-.47.66-.74.68s-.56-.34-.84-.54Z"/><path d="M80.66,77l.85,1.1c-.27.21-.62.64-.79.58a1.68,1.68,0,0,1-.81-.83C79.85,77.75,80.3,77.4,80.66,77Z"/><path d="M79.83,93.13c.25.5.56.84.5,1.08a1,1,0,0,1-.73.66c-.22,0-.73-.5-.68-.62A5.22,5.22,0,0,1,79.83,93.13Z"/><path d="M74.47,54.45c.47-.35.76-.72,1-.7a1.11,1.11,0,0,1,.8.62c.06.19-.37.77-.54.75A4.34,4.34,0,0,1,74.47,54.45Z"/><path d="M78.35,51.31a5.37,5.37,0,0,1,.71-.66,8.4,8.4,0,0,1,.9.89c-.22.18-.5.55-.66.5C79,52,78.74,51.64,78.35,51.31Z"/><path d="M74.66,56.94c-.9.16-1.29-.17-1.28-.91a.62.62,0,0,1,.4-.43C74.61,55.56,74.75,56.09,74.66,56.94Z"/><path d="M61.08,88.77c.23.35.52.62.47.76a2.73,2.73,0,0,1-.62.75l-.73-.69Z"/><path d="M81.53,58.39c-.5.24-.82.54-1.07.49a.92.92,0,0,1-.56-.72.87.87,0,0,1,.69-.56C80.86,57.63,81.09,58,81.53,58.39Z"/><path d="M44.92,87.5c-.7-.3-1-.77-.44-1.39a1,1,0,0,1,1,0C46,86.74,45.53,87.18,44.92,87.5Z"/><path d="M82.32,80.25c-.46.34-.82.77-1,.7-.35-.12-.59-.52-.87-.81.2-.19.44-.58.58-.55A6,6,0,0,1,82.32,80.25Z"/><path d="M80.6,100.37c.44-.36.69-.74,1-.74s.52.36.79.57c-.21.25-.4.66-.65.71S81.11,100.64,80.6,100.37Z"/><path d="M87.92,48.27c.29.81.48,1.28.6,1.77,0,0-.57.34-.72.25C87.19,49.93,87.05,49.4,87.92,48.27Z"/><path d="M88.87,96l-1.56-1.17c1.66-.31,1.66-.31,1.49,1.24Z"/><path d="M94.79,90.67c-.51.43-.76.8-1,.8s-.52-.35-.77-.55c.18-.21.34-.55.54-.58S94.17,90.49,94.79,90.67Z"/><path d="M86,86.94c0-.41-.07-.83-.11-1.24h.84l-.12,1.25Z"/><path d="M65.82,52.23l-1.18-2C66,50.58,66.37,50.92,65.82,52.23Z"/><path d="M51.16,88.89c-.38.31-.57.58-.79.6s-.52-.29-.51-.45a.78.78,0,0,1,.43-.6C50.48,88.4,50.74,88.66,51.16,88.89Z"/><path d="M56.28,104.55c2-.15,2.3,0,3,1.69-1.35-.13-2.48-.3-2.9-1.76Z"/><path d="M57.87,107.09c-.77.88-1.35.6-1.85,0a.66.66,0,0,1,.11-.63C56.93,105.81,57.38,106.35,57.87,107.09Z"/></svg>