<svg xmlns="http://www.w3.org/2000/svg" viewBox="0 0 150 150"><defs><style>.a{fill:#d8bacf;}.b{fill:#a87699;}.c{fill:#65294f;}.d{fill:#62244a;}.e{fill:#6e3259;}.f{fill:#8b4e74;}.g{fill:#c4a1bb;}.h{fill:#82476e;}.i{fill:#e7d6e1;}</style></defs><title>icon</title><path class="a" d="M62.08,125.26h0c-1.63.33-3.23.68-4.78,1h0c1.55-.35,3.15-.7,4.78-1m11.06-2.1h0c-2.2.61-4.39,1.07-4.39,1.07l-.68.07h0l.68-.07s2.19-.46,4.39-1.07h0m4-1.22h0c-.25.1-.52.19-.81.29l-.09,0,.09,0c.29-.1.56-.19.81-.29M81,120.72h0l-.1,0h0l.1,0m.51-.24h0l-.51.24h0l.51-.24h0m5.5-3h0c-.74.46-1.49.9-2.18,1.3l-.07,0,0,0-1.89,1h0l1.92-1c.72-.41,1.48-.86,2.25-1.34h0m6.76-6.11h0a5,5,0,0,1-1,1.57h0a5,5,0,0,0,1-1.57m0,0h0m.66-.65h0l-.59.51h0l.59-.51m2.27-2h0l-.19.18h0l0,0-1.84,1.65h0l-.2.17h0l.2-.17,1.88-1.68.19-.18M99.88,106h0l-.17.1h0l.17-.1m.86-.73h0c-.47.45-.75.68-.76.69h0s.29-.23.76-.69h0m2-2.23-.11.14-.07.09.07-.09.11-.14"/><path class="b" d="M93.33,49.84h0m9.35-14.77c-.4,0-.76,0-1.08,0a11,11,0,0,0-1.56.24c-.41.09-.62.19-.94.28L91.73,38c-1.85.38-3.67,0-5.75.46a17.34,17.34,0,0,0-1.72.58l-.81.33-.87.38A30.2,30.2,0,0,0,79,41.56a28,28,0,0,0-5.81,4.63,15.56,15.56,0,0,0-3.6,4.87A26.64,26.64,0,0,0,68,55.13a19.31,19.31,0,0,0-.88,4.09c0,.22,0,.4,0,.55a2,2,0,0,0,.13.8h0a.17.17,0,0,1,0,.11c-.54,1.33-2,1.32-3,2.86A12.18,12.18,0,0,0,63,69c0,.32,0,.63,0,.92,0,.83,0,1.68,0,2.54h0a27.46,27.46,0,0,1-1.59,10.13c.75-.72,1.69-1.16,2.39-1.83,1.37-1.5,2-4,3.15-6.1a10.18,10.18,0,0,1,2-2.08c1.21-.89,1.48-2.87,2-4.7.45-2.34,2.45-4.17,3.33-6.46a11.1,11.1,0,0,0,.4-1.14c.09-.33.16-.67.23-1,.13-.68.22-1.38.36-2a4.88,4.88,0,0,1,1.82-3.34.47.47,0,0,1-.24.11.05.05,0,0,1-.06-.06h0a1.62,1.62,0,0,1,.41-.66,7.12,7.12,0,0,1,2.46-1.79,11.59,11.59,0,0,1,3.5-1c.09,0,.14,0,.15,0h0s-.06.07-.18.13h0a1.76,1.76,0,0,1,1.1.6,3.76,3.76,0,0,1,.21.65h0a.16.16,0,0,1,0,.12,2.22,2.22,0,0,0-.51,1.45,17.09,17.09,0,0,0,.52,2.58h0c.22,0,1.18-.22,2.28-.31l.44,0,.47,0a19.14,19.14,0,0,1,2.66-5.52l.14-.24.1-.09h3.83l.88,0,.69,0,.5,0c.6,0,1.1-.08,1.54-.13l.39,0,.44-.07h0c.26,0,.64-.12,1-.21l.44-.13.05,0a4.53,4.53,0,0,0,.52-.21l.08,0,.18-.1h0l.12-.09.06-.05h0l0,0h0l0,0,0,.06-.14.27c0,.12-.11.29-.19.54l0,.11c0,.12-.07.25-.11.39h0v0c0,.1,0,.21-.07.33s0,.18,0,.29,0,.19-.05.29c0,.26-.08.55-.12.89l-.06.57c0,.15,0,.3,0,.47s0,.47,0,.72l0,.77,0,1.14c0,.12,0,.24,0,.37v.32l0,.84,0,1.9v.13h0c0,.47,0,.95,0,1.44l0,0-.27.08a10.12,10.12,0,0,1-1.32.28c-.31.05-.65.09-1,.12-.4.93-1.19,1.94-1.77,1.94a.53.53,0,0,1-.24-.06,2.06,2.06,0,0,0-.59-.09c-1.45,0-2.43,1.52-3.85,1.93H91a1.28,1.28,0,0,1-.57-.19,1.38,1.38,0,0,0-.56-.19h-.08a5.08,5.08,0,0,0-3,2.26,10.46,10.46,0,0,0-1.64,4.62A11.75,11.75,0,0,1,84.48,73l-.24.46c.06.78.15,1.61.28,2.53,0,.77.12,1.32.16,1.71a.66.66,0,0,1,0,.14h0a.72.72,0,0,1-.32.67.07.07,0,0,0,0,0c0,.18.28.7.54,1.46a6.93,6.93,0,0,1,.32,2h0a5.38,5.38,0,0,1-.13,1.17A8.41,8.41,0,0,0,86.18,83c0-.28.09-.69.17-1.18s.14-1,.23-1.57.21-1.16.3-1.76.27-1.18.4-1.75a12.31,12.31,0,0,1,.6-1.58,5.78,5.78,0,0,1,2.62-2.43s.53-.59,1.31-1.58,1.82-2.41,2.89-3.84c1.52-2,3.14-4,4.45-4,.5,0,1,.31,1.35,1,0,0,.67,1.24,1.57,3.42a34.09,34.09,0,0,1,2.48,9.49,24.64,24.64,0,0,1,.13,2.63h0a29.78,29.78,0,0,1-2.4,11.64,32.87,32.87,0,0,1-9.37,12.63,7.28,7.28,0,0,0-1.13,1.15,28.27,28.27,0,0,0-2.8,4A33.27,33.27,0,0,1,84.33,113c-2.47,1.62-5.49,3-7.93,3-.21,0-.42,0-.62,0l-2,.35c-1.23.21-2.95.53-4.87.92A97.17,97.17,0,0,0,57.42,120s-1.34-.2-3.08-.29c-.46,0-1,0-1.46,0a18,18,0,0,0-2.07.1l-.61.14c-1,.22-1.5.31-1.5.31h0a11,11,0,0,1,2.11-.45c.7-.16,1.54-.39,2.47-.67a35,35,0,0,1-7.84,1c-.32,0-.64,0-.95,0-3.63-.09-6.33-1-6.81-1.53l-.61-.21c-.39-.14-.94-.33-1.61-.62A26.23,26.23,0,0,1,30.58,115l-1.3-1a16.75,16.75,0,0,1-1.69-1.51,10.62,10.62,0,0,1-1.93-2.65,9,9,0,0,1-1-3.71c0-.13,0-.26,0-.39h0a8.51,8.51,0,0,1,.43-2.69,8.4,8.4,0,0,1,.88-1.91,8.22,8.22,0,0,1,.83-1.1,10.1,10.1,0,0,0-1.63,1.87,9.3,9.3,0,0,0-1.54,4.47,7.13,7.13,0,0,0,0,.8,12.4,12.4,0,0,0,1,4.68,30.21,30.21,0,0,0,1.84,3.58,16.73,16.73,0,0,1,1.15,2.28,21.72,21.72,0,0,0,2.68,6.11,11.78,11.78,0,0,0,8.08,4.6,32,32,0,0,0,4.09.26,44,44,0,0,0,9.1-1.07c2-.43,3.9-.91,5.76-1.35-1.38.3-2.71.6-4,.85-2.32.48-4.33.82-5.76,1l-2.28.37,2.28-.37c1.43-.23,3.44-.57,5.76-1,1.27-.25,2.6-.55,4-.85h0c-1.38.3-2.71.6-4,.85-2.32.48-4.33.82-5.76,1l-2.28.37,2.28-.37c1.43-.23,3.44-.57,5.76-1,1.27-.25,2.6-.55,4-.85h0c-1.38.3-2.71.6-4,.85-2.32.48-4.33.82-5.76,1l-2.28.37,2.28-.37c1.43-.23,3.44-.57,5.76-1,1.27-.25,2.6-.55,4-.85h0c-1.38.3-2.71.6-4,.85-2.32.48-4.33.82-5.76,1l-2.28.37,2.28-.37c1.43-.23,3.44-.57,5.76-1,1.27-.25,2.6-.55,4-.85,1.6-.39,3.17-.74,4.78-1,2-.39,4-.74,6-1A56.65,56.65,0,0,0,76.7,122l.4-.09a8.17,8.17,0,0,0,1.27-.57h0c.83-.19,1.68-.41,2.52-.63,2-1.16,4.4-2.29,6.58-3.6a27.4,27.4,0,0,0,5.26-4.24,8.55,8.55,0,0,0,1-1.58.76.76,0,0,0,0-.11h0l0,0,0-.1c1-.88,1.94-1.71,2.81-2.44,1.17-1,2.37-2.14,3-2.56.17-.14.33-.29.49-.44a19.51,19.51,0,0,0,4.71-6.16c.61-1.33,1.18-2.7,1.69-4.1q.15-.5.27-1h0q-.12.52-.27,1a69.2,69.2,0,0,0,2.14-6.91l.39-1.42.32-1.46c.21-1,.47-1.93.65-2.92.4-2,.75-3.89,1.1-5.8.72-4.35,1.18-8,2-11.59.24-1.26,2.86-5.53,3.74-6.87a7.34,7.34,0,0,0,1-3.92c0-.18,0-.35,0-.53a15.9,15.9,0,0,0-.3-2.4c-.07-.29-.16-1-.28-1.71s-.28-1.63-.53-2.62a20,20,0,0,0-2.71-5.94A15.05,15.05,0,0,0,111,38a14,14,0,0,0-3.79-2.14,13.19,13.19,0,0,0-4.54-.83"/><path class="b" d="M101.34,48.65h0a.68.68,0,0,1-.18.13l-.26.14a6,6,0,0,1-.57.23l-.44.13-.36.08c-.2.05-.42.09-.65.13h0l-.83.12h-.14l-1.17.11-.68,0h-.24l0,0L96,50a1,1,0,0,1,.1.28l.09.42c.42,2.18.83,4.39,1.12,6.22a1.29,1.29,0,0,1,.59-.42,6.49,6.49,0,0,0,1-.27l.87-.29a2.2,2.2,0,0,0,.43-.16l.07-.08v0h0v-.49c0-.12,0-.24,0-.35v-.27l0-.6v-.43h0c0-.29,0-.55.06-.79v-.06c.06-.67.13-1.2.2-1.64l0-.17c0-.21.07-.39.11-.56s0-.16,0-.23a1.09,1.09,0,0,1,0-.17,5.89,5.89,0,0,1,.18-.58c0-.05,0-.09,0-.13l.06-.14s0-.11.08-.15v0a.15.15,0,0,1,0-.06.43.43,0,0,1,0-.07h0"/><path class="b" d="M101.33,48.67h0v0h0"/><polyline class="b" points="101.25 48.79 101.25 48.8 101.25 48.79 101.25 48.79"/><path class="b" d="M101.21,48.86l-.07.14v0c0-.06.06-.11.08-.16"/><path class="b" d="M101.12,49l0,.1v0s0-.07,0-.11v0"/><polyline class="b" points="95.78 49.79 95.76 49.79 95.77 49.79 95.78 49.79"/><polyline class="b" points="100.84 49.85 100.84 49.85 100.84 49.85 100.84 49.85"/><path class="b" d="M100.74,50.27a.29.29,0,0,1,0,.09l0-.09"/><path class="b" d="M100.64,50.82l0,.16c0,.18-.06.38-.09.59,0-.19,0-.37.08-.52a1.85,1.85,0,0,1,0-.23"/><path class="b" d="M100.45,52.27l0,.29v-.05l0-.24"/><path class="b" d="M100.4,52.74v.08l-.05.59.05-.67"/><path class="b" d="M100.35,53.48h0l0,.23h0l0-.22"/><path class="b" d="M100.25,55.59v0h0v0"/><path class="b" d="M100.19,57.69v1.48h0V57.69"/><path class="b" d="M87.94,82.26a11.19,11.19,0,0,0-1.07.62l.91-.21c0-.13.11-.27.16-.41"/><path class="b" d="M96.25,84l0,.31c.06.61.09,1.24.09,1.87h0a21.34,21.34,0,0,1-.25,3.26,18.88,18.88,0,0,0,.44-4q0-.49,0-1a4.59,4.59,0,0,0-.28-.44"/><path class="b" d="M49.5,84.86c-2.84,0-5.84,1.09-8.88,2.56-3.23,1.61-5.61,4.92-8.4,8.1a16.63,16.63,0,0,1-3.08,2.78l-.83.56c-.18.13-.37.26-.56.41l.8-.35a17.71,17.71,0,0,0,1.94-.79l0,0,1.69-2.45c2.8-3.18,5.18-6.48,8.4-8.09A21.08,21.08,0,0,1,49.48,85a10.18,10.18,0,0,1,1.11.06c.23,0,.32.23.32.54h0a1.28,1.28,0,0,1,0,.19,1.82,1.82,0,0,0,0-.32c0-.3-.09-.51-.32-.54a10.32,10.32,0,0,0-1.11-.06"/><path class="b" d="M86.08,89.56a56.64,56.64,0,0,1-5,6.8c-.76.9-1.54,1.78-2.35,2.65.93-.78,1.81-1.59,2.63-2.43a21.75,21.75,0,0,0,4.69-7m-25.9-4.35c-.2.32-.4.64-.62,1a1.88,1.88,0,0,1,.3-.12c.11-.27.23-.55.32-.83"/><path class="b" d="M89.6,100.92c-.49.39-1.07.87-1.72,1.34-1.27,1-2.76,2-4,2.93.41-.22.85-.48,1.31-.77A23.79,23.79,0,0,0,88,102.35c.52-.43,1-.91,1.58-1.43"/><path class="b" d="M99.71,106.08c-.65.42-1.85,1.53-3,2.56l.59-.48c.86-.75,1.67-1.4,2.43-2.08"/><path class="b" d="M93.83,111.18l0,0h0a.76.76,0,0,1,0,.11s0-.1.07-.14"/><path class="b" d="M92.73,112.9a27,27,0,0,1-5.26,4.24c.28-.16.56-.33.83-.51a17.78,17.78,0,0,0,4.43-3.73"/><path class="b" d="M80.89,120.74c-.84.22-1.69.44-2.52.63h0a8.17,8.17,0,0,1-1.27.57,32.93,32.93,0,0,0,3.69-1.14l.1-.06"/><path class="b" d="M68.07,124.3c-2,.22-4,.57-6,1l1-.16c1.8-.25,3.45-.51,5-.8"/><path class="c" d="M85.09,83.15h0c-.51,1.66-2.28,2.87-2.9,4.53a25.47,25.47,0,0,1-5.59,6.23C74,96.2,71,98.32,69.46,99.48A44.43,44.43,0,0,1,62,104.34a21.42,21.42,0,0,1-7.08,2.08c-2,.13-3.76.42-5.47.66a24.47,24.47,0,0,1-3.11.23,12.91,12.91,0,0,1-2.21-.18,27.59,27.59,0,0,1-5.06-1.1,14.44,14.44,0,0,1-2.2-.92l-.25-.13h0l.29-.36c1.36-1.66,2.67-3.41,4-5.35a5.29,5.29,0,0,0,.64-1.62,10.39,10.39,0,0,1,1.14-2c2.53-2.87,5.6-4.91,7.53-8.1a4.48,4.48,0,0,0,.65-1.77,4.9,4.9,0,0,1-.63,1.65c-1.93,3.18-5,5.23-7.54,8.1a10.8,10.8,0,0,0-1.13,2A5.54,5.54,0,0,1,41,99.15c-1.33,1.93-2.65,3.68-4,5.35l-.41.49.25.13a14.13,14.13,0,0,0,2.2.94,28.18,28.18,0,0,0,5.06,1.12,12.54,12.54,0,0,0,2.26.19,25.94,25.94,0,0,0,3.07-.22c1.71-.23,3.45-.53,5.48-.65a21.41,21.41,0,0,0,7.08-2.06,45.38,45.38,0,0,0,7.45-4.85c1.52-1.17,4.5-3.29,7.14-5.58a25.44,25.44,0,0,0,5.61-6.23c.62-1.66,2.41-2.86,2.92-4.53l0-.1"/><path class="d" d="M87.78,82.67l-.91.21c-.24.15-.48.32-.73.5h0s0-.14,0-.37a8.41,8.41,0,0,1-1.09.14l0,.1c-.51,1.67-2.3,2.87-2.92,4.53A25.44,25.44,0,0,1,76.53,94c-2.64,2.29-5.62,4.41-7.14,5.58a45.38,45.38,0,0,1-7.45,4.85,21.41,21.41,0,0,1-7.08,2.06c-2,.12-3.77.42-5.48.65a25.94,25.94,0,0,1-3.07.22,12.54,12.54,0,0,1-2.26-.19A28.18,28.18,0,0,1,39,106.06a14.13,14.13,0,0,1-2.2-.94l-.25-.13h0l.41-.49c1.35-1.67,2.67-3.42,4-5.35a5.54,5.54,0,0,0,.65-1.63,10.8,10.8,0,0,1,1.13-2c2.54-2.87,5.61-4.92,7.54-8.1a4.9,4.9,0,0,0,.63-1.65,1.28,1.28,0,0,0,0-.19c0-.31-.09-.52-.32-.54A10.18,10.18,0,0,0,49.48,85a21.08,21.08,0,0,0-8.88,2.56c-3.22,1.61-5.6,4.91-8.4,8.09l-1.69,2.45,0,0,.24-.12a11.9,11.9,0,0,0,5-4.41s6.71-5.66,8.38-5.66a.34.34,0,0,1,.38.38h0a4.65,4.65,0,0,1-.79,1.88s-1.85,4.13-3,6.13l-3.15,4-1.55,2c-.53.68-1.19,1.46-1.57,2A5.61,5.61,0,0,0,34,105l-.09.18s0,0-.12,0a.06.06,0,0,1,0,0h0a2.17,2.17,0,0,0,.55.6,19.78,19.78,0,0,0,4.73,2.67A27,27,0,0,0,44,109.91c3.07.56,5.41.55,5.89.81h.17c.23,0,.69,0,1.36,0a30.46,30.46,0,0,0,4.13-.51,50.89,50.89,0,0,0,12.76-4.54A53.62,53.62,0,0,0,78.76,99c.81-.87,1.59-1.75,2.35-2.65a56.64,56.64,0,0,0,5-6.8,12.07,12.07,0,0,0,.86-4.31c0-.19,0-.37,0-.55h0a5.06,5.06,0,0,0,.23-.54c.14-.35.34-.83.58-1.39l0-.1"/><path class="e" d="M91.3,81.35a7.27,7.27,0,0,0-3.36.91c0,.14-.11.28-.16.41l0,.1c-.24.56-.44,1-.58,1.39a5.06,5.06,0,0,1-.23.54c0,.18,0,.36,0,.55h0a12.07,12.07,0,0,1-.86,4.31,21.75,21.75,0,0,1-4.69,7c-.82.84-1.7,1.65-2.63,2.43a53.62,53.62,0,0,1-10.46,6.62,50.89,50.89,0,0,1-12.76,4.54,30.46,30.46,0,0,1-4.13.51c-.67,0-1.13,0-1.36,0h-.17c-.48-.26-2.82-.25-5.89-.81a27,27,0,0,1-4.92-1.38,19.78,19.78,0,0,1-4.73-2.67,2.17,2.17,0,0,1-.55-.6h0a.06.06,0,0,0,0,0h0c.13,0,.08,0,.12,0L34,105a5.61,5.61,0,0,1,.44-.71c.38-.54,1-1.32,1.57-2l1.55-2,3.15-4c1.13-2,3-6.13,3-6.13a4.65,4.65,0,0,0,.79-1.88.34.34,0,0,0-.38-.38c-1.67,0-8.38,5.66-8.38,5.66a11.9,11.9,0,0,1-5,4.41,16.75,16.75,0,0,1-2.18.91l-.8.35-.22.11a5.34,5.34,0,0,0-.73.68,8.22,8.22,0,0,0-.83,1.1,8.4,8.4,0,0,0-.88,1.91,8.51,8.51,0,0,0-.43,2.69c0,.13,0,.26,0,.39a9,9,0,0,0,1,3.71,10.62,10.62,0,0,0,1.93,2.65A16.75,16.75,0,0,0,29.28,114l1.3,1a26.23,26.23,0,0,0,4.88,2.67c.67.29,1.22.48,1.61.62l.61.21c.48.58,3.18,1.44,6.81,1.53.31,0,.63,0,.95,0a35,35,0,0,0,7.84-1l.76-.23a66.26,66.26,0,0,0,10.49-4.5c3.6-1.88,6.93-3.83,9.81-5.31,2.73-1.41,5-2.45,6.11-2.45h.16a14.55,14.55,0,0,0,2.16-.88c.33-.15.68-.33,1.06-.53,1.29-.9,2.78-2,4-2.93.65-.47,1.23-1,1.72-1.34a24.18,24.18,0,0,0,4.3-5.6,21.59,21.59,0,0,0,2.22-5.86,21.34,21.34,0,0,0,.25-3.26c0-.63,0-1.26-.09-1.87l0-.31c-.11-.15-.26-.34-.44-.55a6.47,6.47,0,0,0-2.13-1.59,5.73,5.73,0,0,0-2.38-.53"/><path class="f" d="M99.15,63.28c-1.31,0-2.93,2-4.45,4-1.07,1.43-2.1,2.86-2.89,3.84s-1.31,1.58-1.31,1.58a5.78,5.78,0,0,0-2.62,2.43,12.31,12.31,0,0,0-.6,1.58c-.13.57-.29,1.15-.4,1.75s-.2,1.19-.3,1.76-.14,1.11-.23,1.57-.14.9-.17,1.18,0,.37,0,.37c.25-.18.49-.35.73-.5a11.19,11.19,0,0,1,1.07-.62,7.27,7.27,0,0,1,3.36-.91,5.73,5.73,0,0,1,2.38.53,6.47,6.47,0,0,1,2.13,1.59c.18.21.33.4.44.55a4.59,4.59,0,0,1,.28.44q0,.5,0,1h0a18.88,18.88,0,0,1-.44,4,21.59,21.59,0,0,1-2.22,5.86,24.18,24.18,0,0,1-4.3,5.6c-.53.52-1.06,1-1.58,1.43a23.79,23.79,0,0,1-2.88,2.07c-.46.29-.9.55-1.31.77s-.73.38-1.06.53a14.55,14.55,0,0,1-2.16.88h-.16c-1.16,0-3.38,1-6.11,2.45-2.88,1.48-6.21,3.43-9.81,5.31A66.26,66.26,0,0,1,54,118.85l-.76.23c-.93.28-1.77.51-2.47.67a18,18,0,0,1,2.07-.1c.5,0,1,0,1.46,0,1.74.09,3.08.29,3.08.29a97.17,97.17,0,0,1,11.45-2.75c1.92-.39,3.64-.71,4.87-.92l2-.35c.2,0,.41,0,.62,0,2.44,0,5.46-1.39,7.93-3A33.27,33.27,0,0,0,89,109.32a28.27,28.27,0,0,1,2.8-4,7.28,7.28,0,0,1,1.13-1.15,32.87,32.87,0,0,0,9.37-12.63,29.78,29.78,0,0,0,2.4-11.64,24.64,24.64,0,0,0-.13-2.63,34.09,34.09,0,0,0-2.48-9.49c-.9-2.18-1.57-3.42-1.57-3.42-.39-.72-.85-1-1.35-1"/><path class="f" d="M50.81,119.75a11,11,0,0,0-2.11.45s.55-.09,1.5-.31l.61-.14"/><path class="g" d="M101.35,48.64h0v0h0"/><path class="g" d="M101.34,48.65h0v0h0l0,0"/><path class="g" d="M101.34,48.65l-.06.05-.12.09h0a.68.68,0,0,0,.18-.13h0"/><polyline class="g" points="101.33 48.66 101.33 48.66 101.33 48.66"/><polyline class="g" points="101.32 48.68 101.32 48.68 101.32 48.68 101.32 48.68"/><path class="g" d="M101.32,48.68v0l0,0,0,0"/><path class="g" d="M101.28,48.75a.15.15,0,0,0,0,.06h0l0,0"/><path class="g" d="M101.15,48.79l-.18.1-.08,0,.26-.14"/><path class="g" d="M101.22,48.85s0,.1-.08.15l.07-.14h0"/><path class="g" d="M100.89,48.93a4.53,4.53,0,0,1-.52.21l-.05,0a6,6,0,0,0,.57-.23"/><path class="g" d="M101.14,49l-.06.14,0-.1v0"/><path class="g" d="M101.08,49.14s0,.08,0,.13a.42.42,0,0,1,0-.1v0"/><path class="g" d="M100.32,49.16l-.44.13.44-.13"/><path class="g" d="M99.88,49.29c-.37.09-.75.16-1,.21.23,0,.45-.08.65-.13l.36-.08"/><path class="g" d="M98.87,49.5h0"/><path class="g" d="M98.85,49.5l-.44.07-.39,0,.83-.12"/><path class="g" d="M100.92,49.6l0,.06a1.05,1.05,0,0,0-.05.19h0c0,.06,0,.13,0,.2h0v0c0-.14.07-.27.11-.39l0-.11"/><path class="g" d="M98,49.62c-.44.05-.94.09-1.54.13l-.5,0h0l.68,0,1.17-.11H98"/><path class="g" d="M95.78,49.79h0m.2,0-.69,0-.88,0H90.58l-.1.09-.14.24a19.14,19.14,0,0,0-2.66,5.52l-.47,0-.44,0c-1.1.09-2.06.31-2.28.31h0a17.09,17.09,0,0,1-.52-2.58h0A2.22,2.22,0,0,1,84.44,52a.16.16,0,0,0,0-.12,3.76,3.76,0,0,0-.21-.65,1.76,1.76,0,0,0-1.1-.6h0c.12-.06.18-.1.18-.13s-.06,0-.15,0a11.59,11.59,0,0,0-3.5,1,7.12,7.12,0,0,0-2.46,1.79,1.62,1.62,0,0,0-.41.66.05.05,0,0,0,.06.06.47.47,0,0,0,.24-.11h0a4.88,4.88,0,0,0-1.82,3.34c-.14.67-.23,1.37-.36,2-.07.33-.14.67-.23,1a11.1,11.1,0,0,1-.4,1.14c-.88,2.29-2.88,4.12-3.33,6.46-.5,1.83-.77,3.81-2,4.7a10.18,10.18,0,0,0-2,2.08c-1.11,2.15-1.78,4.6-3.15,6.1-.7.67-1.64,1.11-2.39,1.83a3.85,3.85,0,0,0-1.15,2.11,3.17,3.17,0,0,1-.12.49c-.09.28-.21.56-.32.83a2.59,2.59,0,0,0-.26.93.36.36,0,0,0,0,.19h0c.39-.46.94-.75,1.46-1.36,1-1.08,1.78-2.68,2.85-3.59,1-1.07,2.13-1.81,3.17-3.06a17.28,17.28,0,0,0,1.65-2.6,71.52,71.52,0,0,0,5.17-10.22,3.25,3.25,0,0,1,0-.44h0c0-1.64,1.37-3.33,2-4.81A8.17,8.17,0,0,1,76.84,60c.58-1.06.83-2.52,1.85-2.76a12,12,0,0,1,1.89-.15,15.55,15.55,0,0,1,4.28.65l1.72.42a9.9,9.9,0,0,0,2.66.51c2.45.22,4.81.61,5.77.68a11.62,11.62,0,0,0,1.31.07c.82,0,1.62-.07,2.43-.14l.92-.07.44,0h.07V56.78c0-.17,0-.34,0-.51v-.6l-.07.08a2.2,2.2,0,0,1-.43.16l-.87.29a6.49,6.49,0,0,1-1,.27,1.29,1.29,0,0,0-.59.42c-.29-1.83-.7-4-1.12-6.22l-.09-.42A1,1,0,0,0,96,50l-.12-.15,0,0H96"/><path class="g" d="M100.8,50c0,.07,0,.15,0,.23s0-.13,0-.19v0"/><path class="g" d="M100.77,50.14l0,.13,0,.09a.43.43,0,0,1,0,.11c0-.12,0-.23.07-.33"/><path class="g" d="M100.64,50.81l0,.17,0-.16h0"/><path class="g" d="M100.61,51c-.07.44-.14,1-.2,1.64v-.06l0-.29c0-.26,0-.49.07-.7s.06-.41.09-.59"/><path class="g" d="M100.41,52.68c0,.24,0,.5-.06.79h0v-.07l.05-.59v-.14"/><path class="g" d="M100.35,53.48h0v.22l0-.23"/><path class="g" d="M100.29,54.52v.27c0-.09,0-.18,0-.27"/><path class="g" d="M100.26,55.18v.41c0-.14,0-.27,0-.41"/><polyline class="g" points="100.25 55.63 100.25 55.64 100.25 55.63 100.25 55.63"/><path class="g" d="M100.24,56v.29l0,.74v.13l0-.84V56"/><path class="g" d="M86.45,59.78a29,29,0,0,1-1,2.94,12.44,12.44,0,0,1-1.83,3.38,7.6,7.6,0,0,0-1.32,2.77c0,.63-.26,1.25-.26,1.75a.92.92,0,0,0,0,.29c.22.56.52,1.1.79,1.71l.43.93c.11.32.21.63.3,1A15,15,0,0,0,84.48,73a11.75,11.75,0,0,0,.68-1.63,10.46,10.46,0,0,1,1.64-4.62,5.08,5.08,0,0,1,3-2.26h.08a1.38,1.38,0,0,1,.56.19,1.28,1.28,0,0,0,.57.19h.07c1.42-.41,2.4-1.93,3.85-1.93a2.06,2.06,0,0,1,.59.09.53.53,0,0,0,.24.06c.58,0,1.37-1,1.77-1.94-.57,0-1.2.08-1.9.08h-.74c-.72-.07-2.82-.36-5.06-.54L89,60.6c-.24,0-.66,0-.67-.1a7.58,7.58,0,0,0-.81-.34l-1-.38"/><path class="h" d="M106.87,94.36q-.12.52-.27,1a23.23,23.23,0,0,1-3.87,7.64,23.13,23.13,0,0,0,4.14-8.66"/><path class="h" d="M102.55,103.25a19.3,19.3,0,0,1-1.81,2,19.3,19.3,0,0,0,1.81-2"/><path class="a" d="M100.74,105.25h0c-.47.46-.76.69-.76.69h0s.29-.24.76-.69h0"/><path class="h" d="M100.74,105.25c-.47.45-.75.68-.76.69s.29-.24.76-.69"/><path class="a" d="M96.69,108.64h0l-.19.18-1.88,1.68-.2.17h0l.2-.17h0l1.84-1.65,0,0h0l.19-.18"/><path class="h" d="M99.88,106l-.17.1c-.65.42-1.85,1.53-3,2.56l-.19.18a40.76,40.76,0,0,1,3.21-2.74l.17-.1"/><path class="h" d="M96.46,108.85l-1.84,1.65,1.84-1.65"/><path class="h" d="M94.42,110.67l-.59.51,0,0,0,0,.59-.51"/><path class="h" d="M93.76,111.33a4.86,4.86,0,0,1-1,1.57,27.4,27.4,0,0,1-5.26,4.24l-.47.3a28.16,28.16,0,0,0,5.73-4.54,5,5,0,0,0,1-1.57"/><path class="a" d="M87,117.44h0c-.77.48-1.53.93-2.25,1.34l-1.92,1h0l1.89-1,0,0,.07,0c.69-.4,1.44-.84,2.18-1.3h0"/><path class="h" d="M87,117.44c-.74.46-1.49.9-2.18,1.3.69-.4,1.44-.84,2.18-1.3"/><path class="h" d="M84.72,118.8l-1.89,1,1.89-1"/><path class="h" d="M82.81,119.82c-.55.29-1,.51-1.31.66.31-.15.76-.37,1.31-.66"/><path class="h" d="M81,120.72l-.1,0c-.84.22-1.69.44-2.52.63.83-.19,1.68-.41,2.52-.63l.1,0"/><path class="h" d="M76.2,122.26c-.9.29-2,.61-3.06.9,1.08-.29,2.16-.61,3.06-.9"/><path class="i" d="M101.34,48.65h0v0h0v0h0"/><path class="i" d="M101.32,48.68a.43.43,0,0,0,0,.07l0,0h0l0-.06,0,0v0"/><path class="i" d="M101.25,48.79h0v0h0s0,.1-.08.16v0l.14-.27"/><path class="i" d="M101.11,49.06s0,.07,0,.11a.42.42,0,0,0,0,.1,5.89,5.89,0,0,0-.18.58h0a1.05,1.05,0,0,1,.05-.19l0-.06c.08-.25.14-.42.19-.54"/><path class="i" d="M100.85,49.85a1.09,1.09,0,0,0,0,.17v0h0c0-.07,0-.14,0-.2h0"/><path class="i" d="M100.79,50.06c0,.06,0,.13,0,.19s-.08.35-.11.56h0a1.85,1.85,0,0,0,0,.23c0-.1,0-.2.05-.29s0-.2,0-.29a.43.43,0,0,0,0-.11.29.29,0,0,0,0-.09l0-.13v0h0v0"/><path class="i" d="M100.6,51.05c0,.15,0,.33-.08.52s0,.44-.07.7l0,.24.06-.57c0-.34.08-.63.12-.89"/><path class="i" d="M100.42,52.51v.23l-.05.67v.07h0l0,.22c0-.25,0-.49,0-.72s0-.32,0-.47"/><path class="i" d="M100.33,53.7h0v.21l0,.6c0,.09,0,.18,0,.27s0,.23,0,.35v0c0,.14,0,.27,0,.41v0l0-1.14,0-.77"/><path class="i" d="M100.25,55.61v0h0V56c0-.13,0-.25,0-.37"/><path class="i" d="M100.23,56.27c0,.17,0,.34,0,.51V57l0-.74"/><path class="i" d="M100.21,57v2l0-2"/><path class="i" d="M80.58,57.08a12,12,0,0,0-1.89.15c-1,.24-1.27,1.7-1.85,2.76A8.17,8.17,0,0,0,76,61.08c-.67,1.48-2,3.17-2,4.81a3.25,3.25,0,0,0,0,.44h0a71.52,71.52,0,0,1-5.17,10.22,17.28,17.28,0,0,1-1.65,2.6c-1,1.25-2.12,2-3.17,3.06-1.07.91-1.8,2.51-2.85,3.59-.52.61-1.07.9-1.46,1.36-.08.39-.41,1-.41,1.2,0,.06,0,.11.09.11a.34.34,0,0,0,.17,0c.3,0,.73-.34,1.07-.52,1.74-1.43,3.5-2.53,5.09-4.06A51.78,51.78,0,0,0,75.31,71a10.94,10.94,0,0,0,.62-3,16.79,16.79,0,0,1,1.24-3.51,15.13,15.13,0,0,0,.64-1.82,7.88,7.88,0,0,0,.2-.94c0-.07,0-.13,0-.19a5.16,5.16,0,0,0,0-.54.3.3,0,0,1,0-.1h0a1.05,1.05,0,0,1,.35-.68A10.22,10.22,0,0,1,82.19,59c.23,0,.46,0,.69,0a8.37,8.37,0,0,1,3.14.66c.38.17.92.35,1.47.55a7.58,7.58,0,0,1,.81.34c0,.08.43.06.67.1l.85.06c2.24.18,4.34.47,5.06.54h.74c.7,0,1.33,0,1.9-.08.36,0,.7-.07,1-.12a10.12,10.12,0,0,0,1.32-.28l.27-.08,0,0c0-.49,0-1,0-1.44h-.07l-.44,0-.92.07c-.81.07-1.61.14-2.43.14A11.62,11.62,0,0,1,95,59.34c-1-.07-3.32-.46-5.77-.68a9.9,9.9,0,0,1-2.66-.51l-1.72-.42a15.55,15.55,0,0,0-4.28-.65"/><path class="i" d="M100.18,59v.13h0V59"/><path d="M52.8,66.46c2.9-.75,4.89-2.66,6.88-4.47,2.3-2.09,4.4-4.42,6.55-6.67,1.34-1.4,3.13-2.34,4-4.18s1.89-3.58,2.81-5.37c1.57-3.08,3.46-5.86,6.59-7.59,1.16-.65,2.18-1.54,3.37-2.1a57,57,0,0,1,5.63-2.26c2.87-1,5.77-1.92,8.67-2.83,3.84-1.21,7.52-.3,11.28.69,2.44.64,3.54,2.07,4.42,4.22,1.06,2.58,2.5,5,3.7,7.54a12.16,12.16,0,0,1,1.55,4.07c.23,3.32.17,6.67.07,10-.14,4.7-2.77,8.55-4.61,12.65a54.75,54.75,0,0,0-3.53,8.64c-.53,2.08-1.76,4-2.53,6a19.12,19.12,0,0,0-1.07,4.29A17.58,17.58,0,0,1,102.76,98,54,54,0,0,1,91.7,108.09,41.14,41.14,0,0,1,84,111.9c-3.23,1.37-6.6,2.39-9.81,3.82-4.84,2.15-10,2.6-15.11,2.55-2.94,0-5.89-1.06-8.81-1A47.63,47.63,0,0,1,40,116.15a23.3,23.3,0,0,1-5.1-1.63c-2.07-.89-4.06-2-6.05-3.06A7.21,7.21,0,0,1,27,110.08c-1.33-1.39-1.38-2.11-.59-3.79.57-1.2,1.12-2.4,1.6-3.64A27.61,27.61,0,0,1,33,95a26,26,0,0,0,4-6.25c2.85-6.29,6-12.37,11.22-17.14A23.85,23.85,0,0,1,50.16,70C51.42,69,52.58,68,52.8,66.46Zm35.08,41.6.33.39a5,5,0,0,0,.75-.33,53.63,53.63,0,0,0,11.23-9.52,18.06,18.06,0,0,0,4.68-10,27.39,27.39,0,0,1,1.24-4.46c.56-1.82,1.92-3.42,1.36-5.55-.08-.33.32-.81.55-1.19s.76-1,1-1.55c2.19-4.48,4.37-9,6.5-13.49a5.22,5.22,0,0,0,.56-3.78q-1.89,2.16-3.77,4.34c-.06-1.9.94-3.16,2-4.4a7.64,7.64,0,0,0,2.08-5.79c-.22-2.16-.3-4.35-.72-6.48A29.16,29.16,0,0,0,114,41.45c-.28-.72-.8-1.35-1.06-2.08a11,11,0,0,0-4.54-5.63c-3.07-2.11-6.14-2.08-9.37-1.23-3.53.93-7,2.11-10.49,3.19a29.54,29.54,0,0,0-10.28,5.88c-1.14,1-1.91,2.08-1.29,3.7-1.48.57-1.87,1.78-2.27,3.09-.68,2.22-1.49,4.39-2.31,6.56-.13.35-.55.59-.84.88l-.4-.17c.06-.78.13-1.55.21-2.59-.45.37-.74.58-1,.83C67.2,57,64,60.05,60.84,63.2s-6.37,5.94-7.75,10.33a20.27,20.27,0,0,1-2.31,4l-.54-.25c.76-2.39,1.53-4.78,2.29-7.17a5.23,5.23,0,0,0-2,1.48c-.52.57-.92,1.25-1.47,1.78A46.39,46.39,0,0,0,38.48,89.51c-.71,1.72-1.26,3.5-2.63,4.93a30,30,0,0,0-7.4,12.81c-.37,1.3-.06,2,1,2.46a25.59,25.59,0,0,1,3.41,1.52c3.88,2.69,8.37,3.35,12.84,4,3.93.55,7.93.63,11.87,1.1,4.68.56,9.17.3,13.37-2.09.5-.29,1.45-.62,1.69-.39.91.83,1.61.19,2.36-.09,2-.77,4.1-1.51,6.09-2.41A15.1,15.1,0,0,0,85,109a26,26,0,0,0,4-4.62A10.19,10.19,0,0,1,93,101.05c.32-.16.78,0,1.23,0Z"/><path d="M77.2,67.17c.42.84.79,1.24.73,1.54a4.07,4.07,0,0,1-.77,1.43,29.48,29.48,0,0,1-5.69,5.8c-3.6,2.84-7.36,5.61-9.65,9.72A68.09,68.09,0,0,0,59,92.09a14.45,14.45,0,0,1-6.63,7.59,38.24,38.24,0,0,0-4,2.84c.18-.86.13-1.42.39-1.71a9.4,9.4,0,0,1,2.27-2c3.85-2.06,5.91-5.53,7.23-9.42C60.39,83.22,64.77,79,69.7,75.21,72.47,73.06,75.26,70.92,77.2,67.17Z"/><path d="M82.25,78.89c2.16-3.67,3.91-7.65,8.23-9.48a14.47,14.47,0,0,0,3.83-3c2.23-2.07,4.33-4.26,6.54-6.35a8.41,8.41,0,0,0,2.48-5.18c.51-4.13,2.43-7.71,4-11.44a19,19,0,0,1,1-2.34,13.78,13.78,0,0,1,1.39-1.69c.82,1.11.19,1.77-.11,2.44-1.08,2.42-2.31,4.79-3.27,7.26a56.94,56.94,0,0,0-2,6.43,12.35,12.35,0,0,1-3.12,5.67c-2.9,2.94-5.77,5.91-8.67,8.84a6.05,6.05,0,0,1-1.55,1.05A14.5,14.5,0,0,0,86,75.52C85,76.86,84,78.26,82.25,78.89Z"/><path d="M83,57.25a2.52,2.52,0,0,1,.34-3.17A18.83,18.83,0,0,1,87,50.56a9.4,9.4,0,0,0,3.46-4,5.7,5.7,0,0,1,1.34-1.85c.23-.21.88-.13,1.24,0,.16.07.22.77.07,1-1.43,2.39-2.59,4.94-5.19,6.46A11.4,11.4,0,0,0,83,57.25Z"/><path d="M82.4,95.09c-.34-1.11.43-1.58,1-2a50.46,50.46,0,0,1,5.09-3.26,8.64,8.64,0,0,0,4.59-5c.06-.19.29-.34.44-.52,1.18.08,1.3.84.93,1.63a9.89,9.89,0,0,1-1.73,2.73,16.89,16.89,0,0,1-3.45,2.75C87.09,92.73,84.79,93.83,82.4,95.09Z"/><path d="M76.57,105.17c-1.34,1.16-2.59,2.33-4.32,2.53a16.13,16.13,0,0,0-5.19,2,22.5,22.5,0,0,1-4.82,1.5c-.43.1-1-.37-1.89-.74.77-.44,1.08-.76,1.39-.77A12.78,12.78,0,0,0,68,107.4a10.13,10.13,0,0,1,2.34-1c1.64-.46,3.31-.83,5-1.2A5.61,5.61,0,0,1,76.57,105.17Z"/><path d="M40.72,104.18c.55-2.07,1.23-3.77,3.2-4.93a12.87,12.87,0,0,0,5.56-5.32c.28.93.63,1.44.49,1.72a6.65,6.65,0,0,1-1.48,2.06c-1.41,1.22-3,2.27-4.39,3.45C43,102.08,41.93,103.1,40.72,104.18Z"/><path d="M100.89,47c1,.21,1.36.87,1,1.7a7.36,7.36,0,0,1-3.32,3.7Z"/></svg>