<svg xmlns="http://www.w3.org/2000/svg" viewBox="0 0 150 150"><defs><style>.a{fill:#d8bacf;}.b{fill:#d1aec5;}.c{fill:#a2678e;}.d{fill:#9e618a;}.e{fill:#a87197;}.f{fill:#bd8ead;}.g{fill:#e0cbdb;}.h{fill:#b787a8;}.i{fill:#f3ebf1;}.j{fill:#b68aa8;}</style></defs><title>icon</title><path class="a" d="M67.69,49.86h0V50a7.65,7.65,0,0,0,.94,2.25h0a7.94,7.94,0,0,1-.93-2.21v-.2m.11-.3s-.11,0-.11.3h0c0-.26.11-.3.11-.3l.06,0h0l-.06,0m.3-.71a2.49,2.49,0,0,1,0,.37h0a2.49,2.49,0,0,0,0-.37h0m0-.07v.07h0v-.07h0M67.66,48a3.45,3.45,0,0,0,.39.62h0a3.45,3.45,0,0,1-.39-.62h0m4.66-1.67a.87.87,0,0,1-.52.22h0a.87.87,0,0,0,.52-.22h0m-1.95,0h0m-1.3-.1h0a2,2,0,0,0-.3,0h0a1.39,1.39,0,0,1,.32,0l.42,0h0l-.42,0M68,46.2h0"/><path class="a" d="M81.42,85.14h0c0,.2.22.74,1.83,2h0c-1.61-1.28-1.83-1.82-1.83-2m.1-.11h-.07l0,.1h0l0-.1h.07m-.11-.9a4.44,4.44,0,0,1,.18.5h0a4.44,4.44,0,0,0-.18-.5h0m-.66-.48a3.51,3.51,0,0,0,.57.42h0a3.51,3.51,0,0,1-.57-.42h0m-.53-1.09h0v.08h0v-.08m.24-.68h0a1.19,1.19,0,0,0-.21.68h0a1.19,1.19,0,0,1,.21-.68h0m2.25-.63a7,7,0,0,0-1.54.43h0a7,7,0,0,1,1.54-.43h0m1.84-.55a.77.77,0,0,1-.42.36h0a.77.77,0,0,0,.42-.36h0"/><path class="b" d="M46.12,84.08s0,0,0,0a1.2,1.2,0,0,0,0,.17h0l-.14,0c.12.39.26.87.41,1.43s.33,1.23.33,1.34a0,0,0,0,1,0,0s0,0,0,0h0s0,.16.1.37.15.56.25.93a17.26,17.26,0,0,1,.46,2.22s.11.27.29.67c-.06-.44-.21-1.49-.32-2.29a6,6,0,0,1,0-.63c0-.14,0-.22.07-.22s.36.36.88,1.31l.83,1.1c.52.68,1.22,1.57,1.94,2.49a12,12,0,0,1,2,3.32l.22.75a25.31,25.31,0,0,1,1,6.75c0,.26,0,.52,0,.78-.09,3-1.14,6-2.84,6.59,0,0-.11,0-.28.31a8.05,8.05,0,0,0-.63,1.88,3.26,3.26,0,0,1-1.2.9,1.9,1.9,0,0,1-.67.13,1.75,1.75,0,0,1-1.56-1.23h0A11.11,11.11,0,0,1,46,111.7c-.57-.73-1.22-1.45-1.64-1.45a.29.29,0,0,0-.23.1s-.48-1.4-.87-1.4h0l-.24.27h0c.07-.19.15-.27.24-.27l.32-.33a3,3,0,0,1-1.28.44.61.61,0,0,1-.65-.55,5.34,5.34,0,0,1-2.13-2,40.43,40.43,0,0,1,1.26,5.28c.41,2.47.83,6.31,1.55,6.31h.05c.66-.31,1.22-1.55,1.87-1.64h0a.89.89,0,0,0-.42.12,2.45,2.45,0,0,0-.79.94,2.45,2.45,0,0,1,.79-.94.89.89,0,0,1,.42-.12h0a.89.89,0,0,0-.42.12,2.45,2.45,0,0,0-.79.94,2.45,2.45,0,0,1,.79-.94.89.89,0,0,1,.42-.12h.11a.71.71,0,0,1,.49.24,3.81,3.81,0,0,1,.81,1A4.31,4.31,0,0,0,47.16,119l.07.07a.63.63,0,0,0,.21,0h0l.16,0,.73.5c.6-.17,1.29-.15,1.93-.27a2.74,2.74,0,0,0,1.5-1,3.38,3.38,0,0,0,.29-.82v-.06h0v-.06a3.32,3.32,0,0,1,.77-.45,1.72,1.72,0,0,1,.73-.29h0l.07,0a1.94,1.94,0,0,0,1.43-1.49c.15-.5.28-1,.41-1.5,0-.14,0-.28,0-.44,0,.16,0,.3,0,.44h0c0-.14,0-.28,0-.44,0,.16,0,.3,0,.44.53-2.1.91-4.12,1.77-5.07A3,3,0,0,1,59,107.44a2.7,2.7,0,0,1,.41-.06h0a23.77,23.77,0,0,1,3,1.8,1.24,1.24,0,0,0,.66.24.65.65,0,0,0,.59-.38,2.09,2.09,0,0,0,.21-.74c0-.12,0-.25,0-.38a.81.81,0,0,0-.1-.45c-.45-.87-.83-1.61-1.17-2.25a8.92,8.92,0,0,1-.75-1.61h0s0,0,0,0,.13.09.22.18.19.18.24.18h0a2.37,2.37,0,0,0,.06-.68c0-.33,0-.72,0-1.12a6,6,0,0,1,.1-1.26,5.23,5.23,0,0,0,1.16-2.39,1.7,1.7,0,0,0,0-.22,2.06,2.06,0,0,0-.06-.45s0,0,0,0h.06c.28,0,.9,1.08,1.36,1.13s.63-.66.63-1.33a3.92,3.92,0,0,0,0-.59c-.11-1.23-.32-2.45-.38-3.3,0-.13,0-.24,0-.35a1.22,1.22,0,0,1,.15-.73A9.3,9.3,0,0,1,64,91.92a.86.86,0,0,0-.37-.11c-.3,0-.37.26-.65.3a3,3,0,0,1-.82-.65c-.17-.17-.28-.24-.34-.24s-.12.34-.2.57-.07.21-.16.21a1,1,0,0,1-.4-.16,1.11,1.11,0,0,0-.42-.16.13.13,0,0,0-.1,0c-.34.17-.2,1.46-.59,1.46a.35.35,0,0,1-.22-.1.27.27,0,0,1,.11.19c0,.22-.48.36-.86.36-.23,0-.43-.06-.43-.18s0,0,0,0a2.93,2.93,0,0,1-.49-.76c-.09-.25-.27-.62-.29-.74a23,23,0,0,0-1.08-3.7,3.44,3.44,0,0,0-.79-.07,3.18,3.18,0,0,1-1.55-.51,4.16,4.16,0,0,0-2.19-1.2,1.24,1.24,0,0,0-.27,0,.29.29,0,0,0,0,.17c0,.18.07.45.07.63s0,.12,0,.15a3.24,3.24,0,0,0-.37,1.21,8.69,8.69,0,0,0-.12,1.08c0,.16,0,.33,0,.5v.07a2.7,2.7,0,0,0,.12.49A10,10,0,0,1,51.94,93c0,.15,0,.23-.06.23h0a6,6,0,0,1-1.15-1.53c-.71-1.32-1.21-2-1.77-2.89l-.42-.71L47.9,87c-.56-1-1.2-2.1-1.34-2.29a2.25,2.25,0,0,0-.44-.59"/><path class="b" d="M48,91.59c.07.15.15.32.24.49V92a4.37,4.37,0,0,0-.25-.36"/><path class="b" d="M65.88,92.17a1.07,1.07,0,0,0-.07.15,1.15,1.15,0,0,1,.28-.06l-.21-.09"/><path class="b" d="M35.12,95.21a1.88,1.88,0,0,0-.06.49,1.93,1.93,0,0,0,0,.24,36.14,36.14,0,0,0,1.52,6.65,2.88,2.88,0,0,0,1.87,2.09,3,3,0,0,1,.92,1.45c-.07-.26-.23-.92-.44-1.56l-.47.05a2.89,2.89,0,0,1-1.86-2.09,35.34,35.34,0,0,1-1.52-6.65,2.29,2.29,0,0,1,0-.25,1.86,1.86,0,0,1,0-.42"/><path class="b" d="M48.51,95.8a22,22,0,0,1-.88,3.67,6.33,6.33,0,0,0,.88-3.61V95.8"/><path class="b" d="M51.19,99.27a1,1,0,0,1,0,.17,22.48,22.48,0,0,1,.29,2.88,20.14,20.14,0,0,0-.19-2.61s0-.16-.12-.44"/><path class="b" d="M50.38,106.74c-.34.12-.86.32-1.29.52h.18A1.41,1.41,0,0,0,50,107a3,3,0,0,0,.35-.3"/><path class="b" d="M53.58,116.61h0a1.72,1.72,0,0,0-.73.29c.29-.12.56-.19.81-.27l-.07,0"/><path class="b" d="M44.82,116.7a.69.69,0,0,1,.11.13c.24.31.47.61.7.89a3.81,3.81,0,0,0-.81-1"/><path class="b" d="M52.06,117.41h0v0"/><path class="b" d="M51.76,118.3a2.74,2.74,0,0,1-1.5,1,1.92,1.92,0,0,0,1.5-1"/><path class="b" d="M47.23,119.11a3.46,3.46,0,0,0,1.06.52h0l-.73-.5-.16,0h0a.63.63,0,0,1-.21,0"/><path class="c" d="M47.51,90.52a1.86,1.86,0,0,1,0,.22c0,.48-.18.43-.18,1,0,.07,0,.15,0,.25v.1A8,8,0,0,1,46,95.61a3.4,3.4,0,0,1-.58.91,1.65,1.65,0,0,1-.58.46.74.74,0,0,1-.32.07,1.46,1.46,0,0,1-.89-.42,1,1,0,0,0-.8-.42c-.12,0-.24,0-.36,0a2.2,2.2,0,0,1-.36,0,1,1,0,0,1-.4-.08,2.15,2.15,0,0,0-.49,0,3.91,3.91,0,0,0-.49,0,3.89,3.89,0,0,1-.49,0,2.1,2.1,0,0,1-.48-.06,2.87,2.87,0,0,0-1.8-.75h-.26a.81.81,0,0,0-.24.42c-.06.24-.25.16-.34.25-.55-.35-1.08-1.44-1.59-1.44a.47.47,0,0,0-.17,0,.84.84,0,0,0-.26.52.75.75,0,0,1,.24-.46.35.35,0,0,1,.17,0c.51,0,1,1.09,1.59,1.44.09-.09.28,0,.34-.25a.72.72,0,0,1,.25-.42H38a2.83,2.83,0,0,1,1.79.75,2.1,2.1,0,0,0,.48.06,4,4,0,0,0,.5,0,3.91,3.91,0,0,1,.49,0,2.06,2.06,0,0,1,.48.05,1,1,0,0,0,.4.08,2.21,2.21,0,0,0,.37,0c.12,0,.24,0,.36,0a1,1,0,0,1,.8.41,1.44,1.44,0,0,0,.88.43.78.78,0,0,0,.33-.07,1.74,1.74,0,0,0,.57-.46,3.58,3.58,0,0,0,.59-.91,8.14,8.14,0,0,0,1.35-3.52v-.1a2.36,2.36,0,0,1,0-.25c0-.57.18-.52.18-1,0-.06,0-.13,0-.21v0h0"/><path class="d" d="M47.51,90.53v0c0,.08,0,.15,0,.21,0,.49-.18.44-.18,1a2.36,2.36,0,0,0,0,.25v.1A8.14,8.14,0,0,1,46,95.67a3.58,3.58,0,0,1-.59.91,1.74,1.74,0,0,1-.57.46.78.78,0,0,1-.33.07,1.44,1.44,0,0,1-.88-.43,1,1,0,0,0-.8-.41c-.12,0-.24,0-.36,0a2.21,2.21,0,0,1-.37,0,1,1,0,0,1-.4-.08,2.06,2.06,0,0,0-.48-.05,3.91,3.91,0,0,0-.49,0,4,4,0,0,1-.5,0,2.1,2.1,0,0,1-.48-.06A2.83,2.83,0,0,0,38,95.47h-.26a.72.72,0,0,0-.25.42c-.06.24-.25.16-.34.25-.54-.35-1.08-1.44-1.59-1.44a.35.35,0,0,0-.17,0,.75.75,0,0,0-.24.46,1.86,1.86,0,0,0,0,.42,2.29,2.29,0,0,0,0,.25,35.34,35.34,0,0,0,1.52,6.65,2.89,2.89,0,0,0,1.86,2.09l.47-.05c-.27-.82-.63-1.63-1-1.63a.22.22,0,0,0-.13,0s-1.65-2.51-1.65-3.82a.71.71,0,0,1,.3-.67,7.11,7.11,0,0,1,1-1.15s5.06,1.35,5.4,2.54a4.34,4.34,0,0,0,2.4.84,3.15,3.15,0,0,0,.61-.06,2.79,2.79,0,0,0,1.76-1.19,22,22,0,0,0,.88-3.67,16.37,16.37,0,0,0-.31-3h0s0-.35,0-.76c-.09-.17-.17-.34-.24-.49l-.15-.19,0-.2c-.18-.4-.28-.63-.29-.67"/><path class="e" d="M48.23,92v.13c0,.41,0,.75,0,.76h0a16.17,16.17,0,0,1,.31,3,6.33,6.33,0,0,1-.88,3.61,2.79,2.79,0,0,1-1.76,1.19,3.15,3.15,0,0,1-.61.06,4.34,4.34,0,0,1-2.4-.84c-.34-1.19-5.4-2.54-5.4-2.54a7.11,7.11,0,0,0-1,1.15.71.71,0,0,0-.3.67c0,1.31,1.65,3.82,1.65,3.82a.22.22,0,0,1,.13,0c.62,0,1.27,2.59,1.42,3.19,0,.08,0,.13,0,.13a2.06,2.06,0,0,0,.12.26,5.34,5.34,0,0,0,2.13,2,.61.61,0,0,0,.65.55,3,3,0,0,0,1.28-.44l.09-.09a12.74,12.74,0,0,1,1.49-1.33,4,4,0,0,1,2.16-.94,1,1,0,0,1,1,.67,1.56,1.56,0,0,0,.74.33c.43-.2.95-.4,1.29-.52.58-.63,1.12-1.93,1.12-4.34v-.08a22.48,22.48,0,0,0-.29-2.88,1,1,0,0,0,0-.17c-.19-.64-.57-1.89-1.07-3.2A27.67,27.67,0,0,0,48.23,92"/><path class="f" d="M47.5,88.06s-.07.08-.07.22a6,6,0,0,0,0,.63c.11.8.26,1.85.32,2.29l0,.2.15.19a4.37,4.37,0,0,1,.25.36,27.67,27.67,0,0,1,1.89,4.12c.5,1.31.88,2.56,1.07,3.2.08.28.12.44.12.44a20.14,20.14,0,0,1,.19,2.61v.08c0,2.41-.54,3.71-1.12,4.34a3,3,0,0,1-.35.3,1.41,1.41,0,0,1-.76.23h-.18a1.56,1.56,0,0,1-.74-.33,1,1,0,0,0-1-.67,4,4,0,0,0-2.16.94,12.74,12.74,0,0,0-1.49,1.33l-.09.09-.32.33h0c.39,0,.87,1.4.87,1.4a.29.29,0,0,1,.23-.1c.42,0,1.07.72,1.64,1.45a11.11,11.11,0,0,0,1.15,1.44h0a1.75,1.75,0,0,0,1.56,1.23,1.9,1.9,0,0,0,.67-.13,3.26,3.26,0,0,0,1.2-.9,8.05,8.05,0,0,1,.63-1.88c.17-.29.28-.31.28-.31,1.7-.64,2.75-3.56,2.84-6.59,0-.26,0-.52,0-.78a25.31,25.31,0,0,0-1-6.75l-.22-.75a12,12,0,0,0-2-3.32c-.72-.92-1.42-1.81-1.94-2.49l-.83-1.1c-.52-1-.77-1.31-.88-1.31"/><path class="f" d="M43.26,109c-.09,0-.17.08-.24.27l.24-.27"/><path class="g" d="M44.77,81.13c0,.12.08.17.15.35.31.73.73,1.87,1,2.77H46l.14,0a1.2,1.2,0,0,1,0-.17s0,0,0,0a2.25,2.25,0,0,1,.44.59c.14.19.78,1.33,1.34,2.29l.61,1.18.42.71c.56.91,1.06,1.57,1.77,2.89a6,6,0,0,0,1.15,1.53h0s.06-.08.06-.23a10,10,0,0,0-.43-2.29,2.7,2.7,0,0,1-.12-.49v-.07c0-.17,0-.34,0-.5a8.69,8.69,0,0,1,.12-1.08,3.24,3.24,0,0,1,.37-1.21s0-.08,0-.15-.07-.45-.07-.63a.29.29,0,0,1,0-.17,1.24,1.24,0,0,1,.27,0,4.16,4.16,0,0,1,2.19,1.2,3.18,3.18,0,0,0,1.55.51,3.44,3.44,0,0,1,.79.07,23,23,0,0,1,1.08,3.7c0,.12.2.49.29.74a2.93,2.93,0,0,0,.49.76h0s0,0,0,0,.2.18.43.18c.38,0,.86-.14.86-.36a.27.27,0,0,0-.11-.19h0a.35.35,0,0,0,.22.1c.39,0,.25-1.29.59-1.46a.13.13,0,0,1,.1,0,1.11,1.11,0,0,1,.42.16,1,1,0,0,0,.4.16c.09,0,.15-.06.16-.21s.05-.57.2-.57.17.07.34.24a3,3,0,0,0,.82.65c.28,0,.35-.3.65-.3a.86.86,0,0,1,.37.11,5.53,5.53,0,0,0,1.63.77.17.17,0,0,0,.19-.19v-.06a.2.2,0,0,1,0-.07c0-.13.1-.21.1-.31s0-.12-.12-.2h0c-.21,0-.57-.16-.83-.2-.56-.15-.76,0-1.31-.32a11.72,11.72,0,0,1-1.47-1,1.58,1.58,0,0,0-.49-.23,2.21,2.21,0,0,0-.86-.26.68.68,0,0,0-.44.14,1.78,1.78,0,0,1,.06.38c0,.14-.06.19-.14.19a.91.91,0,0,1-.21,0,.58.58,0,0,0-.21,0h0c-.08,0-.23-.18-.36-.28h0a.33.33,0,0,0-.18.08.33.33,0,0,1-.17.07c-.08,0-.19-.07-.35-.3a24.17,24.17,0,0,0-2.59-3.45,7.54,7.54,0,0,0-2.11-1.4,6.51,6.51,0,0,0-2.34-.65h-.18a2.27,2.27,0,0,0-1.38.58,3.34,3.34,0,0,1-1.14.72h0s-.07-.11-.12-.28a1.84,1.84,0,0,0-.22.17.19.19,0,0,1,0,.08c0,.11,0,.26,0,.37a.25.25,0,0,0,0,.09h0a.23.23,0,0,1-.11,0c-.15,0-.23-.14-.41-.33a31,31,0,0,1-2.53-3.21c-.16-.26-.34-.57-.54-1l-.34-.66"/><path class="h" d="M54.49,116.22a1.17,1.17,0,0,1-.73.45,1.17,1.17,0,0,0,.73-.45"/><path class="h" d="M53.57,116.61a1.72,1.72,0,0,0-.73.29l-.05,0a1.86,1.86,0,0,1,.78-.32"/><path class="h" d="M45.74,117.92a9.2,9.2,0,0,0,.73.7,9.2,9.2,0,0,1-.73-.7"/><path class="h" d="M46.5,118.65a3.09,3.09,0,0,0,.73.46.63.63,0,0,0,.21,0,.63.63,0,0,1-.21,0,3.09,3.09,0,0,1-.73-.46"/><path class="i" d="M51,82.86h-.1a2.78,2.78,0,0,0-1.53.73,1.86,1.86,0,0,0-.53,1c0,.1,0,.2,0,.3a1.78,1.78,0,0,0,.21.93h0a3.34,3.34,0,0,0,1.14-.72,2.27,2.27,0,0,1,1.38-.58h.18a6.51,6.51,0,0,1,2.34.65,7.54,7.54,0,0,1,2.11,1.4,24.17,24.17,0,0,1,2.59,3.45c.16.23.27.3.35.3a.33.33,0,0,0,.17-.07.33.33,0,0,1,.18-.08h0c.13.1.28.27.36.28h0a.58.58,0,0,1,.21,0,.91.91,0,0,0,.21,0c.08,0,.14,0,.14-.19a1.78,1.78,0,0,0-.06-.38h0a.68.68,0,0,1,.44-.14,2.21,2.21,0,0,1,.86.26,1.58,1.58,0,0,1,.49.23,11.72,11.72,0,0,0,1.47,1c.55.31.75.17,1.31.32.26,0,.62.19.83.2h0v0c0-.07.06-.11.06-.16s0-.08-.11-.12a7.29,7.29,0,0,0-.9-.38,10.42,10.42,0,0,1-2.79-1.42c-1.64-1.13-2.35-2.44-2.8-2.65h0s0,0,0,0,.1.42.12.58a.28.28,0,0,1,0,.09c0,.36-.37.08-.37.67a2.47,2.47,0,0,0,0,.34s0,0,0,.06,0,.06,0,.06a.17.17,0,0,1-.11-.06,42.55,42.55,0,0,0-3.51-4.26,6,6,0,0,0-2.16-1.3A6.61,6.61,0,0,0,51.85,83a3.74,3.74,0,0,0-.84-.1"/><path class="b" d="M72.32,43.89c-.12,0-.2,0-.23.12s0,.1,0,.16c0,.5.33,1.26.33,1.78a.72.72,0,0,1-.08.37.72.72,0,0,0,.17-.4V45.8a2.38,2.38,0,0,0-.29-1,2.38,2.38,0,0,1,.29,1h0a2.38,2.38,0,0,0-.29-1,2.38,2.38,0,0,1,.29,1h0v.12a.72.72,0,0,1-.17.4.58.58,0,0,1-.52.22h-.2a3.76,3.76,0,0,1-1-.18,7.8,7.8,0,0,0-1.27-.14,2,2,0,0,0-.43,0l-.1,0c-.09,0-.14,0-.14.1h0L68,46.2c-.08.29-.33.43-.48.65v0a1.16,1.16,0,0,0,0,.34h0a1.72,1.72,0,0,0,.19.75c.1.18.23.39.39.62h0l0,.06h0l0,0v.14a1,1,0,0,1,0,.36c0,.2-.09.37-.2.37h0a.72.72,0,0,0-.14.42,2.57,2.57,0,0,0,.3,1c.21.43.42.87.62,1.31l.17.31h0l-.17-.31a11.37,11.37,0,0,1,1.23,3.88,1.85,1.85,0,0,1-.07.51,1.2,1.2,0,0,1-1.22,1.06h0a15.85,15.85,0,0,1-2.74-1.85,1.24,1.24,0,0,0-.65-.34c-.17,0-.24.16-.24.4a4.63,4.63,0,0,0,.21,1.14A12,12,0,0,1,66,61.16c0,.18,0,.36,0,.54a.2.2,0,0,1-.19.09,1.17,1.17,0,0,1-.3,0,1.21,1.21,0,0,0-.31-.06.33.33,0,0,0-.15,0,2.09,2.09,0,0,0-.2,1.05c0,.51.06,1.1.06,1.63a3.47,3.47,0,0,1,0,.66,4.93,4.93,0,0,0-.9,2.53,2.1,2.1,0,0,0,.1.64H64c-.25,0-.91-1-1.28-1.14s-.44.46-.44,1a6,6,0,0,0,0,.71c0,.53.08,1.07.08,1.58,0,1.22-.18,2.26-.69,2.57.33.31.73.89,1,1.17a.85.85,0,0,0,.5.2c.33,0,.59-.25.93-.29a3.13,3.13,0,0,1,.91.67.58.58,0,0,0,.39.23c.25,0,.36-.41.52-.69a.36.36,0,0,1,.38-.26,1.82,1.82,0,0,1,.44.07,2,2,0,0,0,.45.08.44.44,0,0,0,.28-.08c.52-.31.31-1.73.87-1.73a.52.52,0,0,1,.22.06q-.15-.08-.15-.18c0-.28.9-.64,1.32-.64.13,0,.22,0,.22.11s0,0,0,.05h0a2.84,2.84,0,0,1,.63.66,4.69,4.69,0,0,1,.38.69,19,19,0,0,0,1.56,3.54h.06c.08,0,.24,0,.44-.06a5.13,5.13,0,0,1,.73-.06,2.48,2.48,0,0,1,1.27.31A5.48,5.48,0,0,0,77.19,78a.58.58,0,0,0,.19,0,.35.35,0,0,0,0-.06c0-.18-.18-.57-.18-.75,0,0,0,0,0-.06a16.16,16.16,0,0,0,.37-3.4c.11-1.6.17-3.14.45-3.14h0a3.46,3.46,0,0,1,1.57,1.19c1.09,1.49,2,1.84,3.07,2.91.28.3.5.76.78,1.06a5.88,5.88,0,0,0,2.25,1.56h0a2.2,2.2,0,0,0,.5.06,1.11,1.11,0,0,0,1.2-.81l.86-.66A7.59,7.59,0,0,0,88,74.1c-.17-.75-.42-1.23-.42-1.44s0-.11.12-.12h0A24.36,24.36,0,0,1,86,69.27l-.67-.34A10.4,10.4,0,0,1,86,71.42c0,.12,0,.24,0,.35,0,.66-.22,1.17-.82,1.17a2.89,2.89,0,0,1-1.41-.55s-.38-.09-1-.27a13.72,13.72,0,0,1-2.2-.87c-1.66-.8-3.4-2.07-4-3.64l-.76-2-1.68-4.42c-1-2.69-2-5.47-2-7a2,2,0,0,1,.17-.87s0,0,0-.07a4.78,4.78,0,0,0-.91-1.9,2.9,2.9,0,0,1-.07-.6,1.21,1.21,0,0,1,.06-.43.54.54,0,0,1,.58-.44,2.64,2.64,0,0,1,1.17.4,13,13,0,0,0,2,.38,5.9,5.9,0,0,0,.72,0c.68,0,1.22-.13,1.23-.51v0h0a5.6,5.6,0,0,0,1,.28l.29,0a.44.44,0,0,0,.36-.12c0-.24,0-.38,0-.38h0a.68.68,0,0,1,.08.26.16.16,0,0,1,0,.12c0,.13,0,.28.05.46.2-.9.51-1.63,1-1.63a.79.79,0,0,1,.32.08,6.92,6.92,0,0,1,1.09-.46,5.28,5.28,0,0,1,1.58-.28h.34a27.52,27.52,0,0,1-5.1-2c-2-1-4.87-2.67-5.72-2.67"/><path class="b" d="M68.14,46.17l-.13,0h0l.61.15h0c0-.05,0-.08.14-.1a4.57,4.57,0,0,0-.61-.07"/><path class="b" d="M70.56,46.37a3.64,3.64,0,0,0,1,.18h0l-1.07-.17"/><path class="b" d="M67.53,46.85a.64.64,0,0,0-.12.38,1.65,1.65,0,0,0,.25.76,1.72,1.72,0,0,1-.19-.75h0a1.16,1.16,0,0,1,0-.34v0"/><path class="b" d="M68.05,48.61l0,.06h0l0-.06h0m19.37-.87a3.62,3.62,0,0,0-2.13.83,1.5,1.5,0,0,1-.79.17,5.43,5.43,0,0,1-1-.11,16.15,16.15,0,0,0,1.57.47c.09-.16.17-.32.25-.49a3.68,3.68,0,0,1,2.13-.82,5.11,5.11,0,0,1,.81.07A35.34,35.34,0,0,1,95,49.6a1.36,1.36,0,0,1,.55.38,1.37,1.37,0,0,0-.59-.43,36.93,36.93,0,0,0-6.69-1.74,5.11,5.11,0,0,0-.81-.07"/><path class="b" d="M76.16,55.4a1,1,0,0,0-.48.63,2,2,0,0,0-.06.39,7.35,7.35,0,0,0,.54-1m-8.08-6.18a1.38,1.38,0,0,1-.22.36h0c.11,0,.17-.17.2-.37"/><path class="b" d="M82.09,60.65c0,.13,0,.26,0,.39a10.2,10.2,0,0,0,.84,3.76c-.23-1.4-.51-2.79-.83-4.15"/><path class="b" d="M76.94,60.67c.34.73.76,1.55,1.26,2.49l.3.39-.1-.18c-.5-.92-1-1.84-1.46-2.7"/><path class="b" d="M84.38,68.48v.17a2.43,2.43,0,0,0,.52.08l-.52-.25"/><path class="b" d="M60.84,73l.12.19a.42.42,0,0,0,.14-.09,1.06,1.06,0,0,1-.26-.1"/><path class="c" d="M95.51,50a.81.81,0,0,1,.23.47.07.07,0,0,1,0,0c-.15.83-1.66.86-2.4,1.36h0c0,.11-.1.23-.1.36a.27.27,0,0,0,0,.16.76.76,0,0,1,.17.51h0a4.14,4.14,0,0,1-2.16,1.92c-.72.69-.83,1.45-1.59,2.11s-.7,1.57-1.94,1.75c-1.27.38-1.57,1-1.57,2.67,0,.19,0,.39,0,.6v.19c0,.91-.33,2.54-.33,3.89A4.79,4.79,0,0,0,86,67.22a1.43,1.43,0,0,1,.13.58c0,.39-.21.63-.21,1a1.2,1.2,0,0,0,0,.36l0,.06h0a1.24,1.24,0,0,1,0-.36c0-.42.21-.66.22-1a1.62,1.62,0,0,0-.13-.58,4.82,4.82,0,0,1-.13-1.19c0-1.35.34-3,.34-3.89V62c0-.2,0-.38,0-.56,0-1.68.29-2.33,1.57-2.71,1.24-.18,1.13-1.21,1.94-1.76s.88-1.42,1.6-2.11A4.17,4.17,0,0,0,93.49,53a.74.74,0,0,0-.17-.51.27.27,0,0,1,0-.16c0-.13.1-.25.1-.36h0c.74-.5,2.25-.53,2.4-1.36a.07.07,0,0,0,0,0,.9.9,0,0,0-.27-.52"/><path class="d" d="M87.46,47.79a3.68,3.68,0,0,0-2.13.82c-.08.17-.16.33-.25.49l.14,0a5.24,5.24,0,0,0,1.12.15c.44,0,.76-.11.78-.4,0,0,1-.09,2.06-.09h.33c1.13,0,2.27.21,2.28,1v.09a7.61,7.61,0,0,1,.3,1.62v.12l-.77.76a18.11,18.11,0,0,1-1.8,1.6,7.69,7.69,0,0,1-3.34,1.88.6.6,0,0,1-.2,0,9.83,9.83,0,0,0-1.11.56,5.88,5.88,0,0,0-2,1.79,4.94,4.94,0,0,0-.83,2.5c.32,1.36.6,2.75.83,4.15a23.52,23.52,0,0,0,1.37,2.78s.06.38.09.9l.52.25h.33l.08.21.67.34,0-.06a1.2,1.2,0,0,1,0-.36c0-.42.21-.66.21-1a1.43,1.43,0,0,0-.13-.58A4.79,4.79,0,0,1,85.87,66c0-1.35.33-3,.33-3.89V62c0-.21,0-.41,0-.6,0-1.65.3-2.29,1.57-2.67,1.24-.18,1.12-1.21,1.94-1.75s.87-1.42,1.59-2.11a4.14,4.14,0,0,0,2.16-1.92.76.76,0,0,0-.17-.51.27.27,0,0,1,0-.16c0-.13.1-.25.1-.36h0c.74-.5,2.25-.53,2.4-1.36a.07.07,0,0,0,0,0,.81.81,0,0,0-.23-.47A1.36,1.36,0,0,0,95,49.6a35.34,35.34,0,0,0-6.69-1.74,5.11,5.11,0,0,0-.81-.07"/><path class="e" d="M82.8,48.53a5.28,5.28,0,0,0-1.58.28,6.92,6.92,0,0,0-1.09.46.79.79,0,0,0-.32-.08c-.54,0-.85.73-1,1.63a.61.61,0,0,0,0,.14c0,.22,0,.45,0,.7a11.38,11.38,0,0,1-.08,1.4c-.13,1.24-.56,2.38-1.33,2.38a1.16,1.16,0,0,1-.53-.15h-.13a1.31,1.31,0,0,0-.56.12,7.35,7.35,0,0,1-.54,1v.12a11,11,0,0,0,1.32,4.13c.45.86,1,1.78,1.46,2.7l.1.18c.41.52,1.22,1.51,2.18,2.5a9.19,9.19,0,0,0,3.7,2.6v-.17c0-.52-.09-.9-.09-.9a23.52,23.52,0,0,1-1.37-2.78A10.2,10.2,0,0,1,82.08,61a5,5,0,0,1,.84-2.89,5.88,5.88,0,0,1,2-1.79A9.83,9.83,0,0,1,86,55.8a.6.6,0,0,0,.2,0A7.69,7.69,0,0,0,89.52,54a18.11,18.11,0,0,0,1.8-1.6l.77-.76v-.12a7.61,7.61,0,0,0-.3-1.62h0v-.09c0-.76-1.15-.94-2.28-1h-.33c-1.06,0-2.06.09-2.06.09,0,.29-.34.4-.78.4a5.24,5.24,0,0,1-1.12-.15l-.14,0a16.15,16.15,0,0,1-1.57-.47l-.11,0-.26-.05H82.8"/><path class="f" d="M72,49.88a.54.54,0,0,0-.58.44,1.21,1.21,0,0,0-.06.43,2.9,2.9,0,0,0,.07.6,4.78,4.78,0,0,1,.91,1.9c0,.06,0,.07,0,.07a2,2,0,0,0-.17.87c0,1.57,1,4.35,2,7l1.68,4.42.76,2c.62,1.57,2.36,2.84,4,3.64a13.72,13.72,0,0,0,2.2.87c.59.18,1,.27,1,.27a2.89,2.89,0,0,0,1.41.55c.6,0,.82-.51.82-1.17,0-.11,0-.23,0-.35a10.4,10.4,0,0,0-.66-2.49l-.08-.21H84.9a2.43,2.43,0,0,1-.52-.08,9.19,9.19,0,0,1-3.7-2.6c-1-1-1.77-2-2.18-2.5l-.3-.39c-.5-.94-.92-1.76-1.26-2.49a11,11,0,0,1-1.32-4.13v-.12a2,2,0,0,1,.06-.39,1,1,0,0,1,.48-.63,1.31,1.31,0,0,1,.56-.12h.13a1.16,1.16,0,0,0,.53.15c.77,0,1.2-1.14,1.33-2.38a11.38,11.38,0,0,0,.08-1.4c0-.25,0-.48,0-.7a.61.61,0,0,1,0-.14c0-.18,0-.33-.05-.46a.44.44,0,0,1-.36.12l-.29,0a5.6,5.6,0,0,1-1-.28v0c0,.38-.55.51-1.23.51a5.9,5.9,0,0,1-.72,0,13,13,0,0,1-2-.38,2.64,2.64,0,0,0-1.17-.4"/><path class="f" d="M78.67,50s0,.14,0,.38a.16.16,0,0,0,0-.12.68.68,0,0,0-.08-.26"/><path class="g" d="M78,70.51c-.28,0-.34,1.54-.45,3.14a16.16,16.16,0,0,1-.37,3.4s0,0,0,.06c0,.18.18.57.18.75a.35.35,0,0,1,0,.06.58.58,0,0,1-.19,0,5.48,5.48,0,0,1-2.13-1.1,2.48,2.48,0,0,0-1.27-.31,5.13,5.13,0,0,0-.73.06c-.2,0-.36.06-.44.06h-.06A19,19,0,0,1,71,73.11a4.69,4.69,0,0,0-.38-.69,2.84,2.84,0,0,0-.63-.66h0s0,0,0-.05-.09-.11-.22-.11c-.42,0-1.32.36-1.32.64q0,.11.15.18h0a.52.52,0,0,0-.22-.06c-.56,0-.35,1.42-.87,1.73a.44.44,0,0,1-.28.08,2,2,0,0,1-.45-.08,1.82,1.82,0,0,0-.44-.07.36.36,0,0,0-.38.26c-.16.28-.27.69-.52.69a.58.58,0,0,1-.39-.23,3.13,3.13,0,0,0-.91-.67c-.34,0-.6.29-.93.29a.85.85,0,0,1-.5-.2c-.32-.28-.72-.86-1-1.17a.62.62,0,0,0-.34-.19c-.07,0-.13,0-.17.16a.2.2,0,0,1-.06.11.42.42,0,0,1-.14.09.2.2,0,0,0-.12.19.49.49,0,0,0,0,.12h0c.17.12.4.45.63.61.46.4.79.31,1.27.78a14.92,14.92,0,0,0,1.44,1.26,1.52,1.52,0,0,0,.67.2H65a4.85,4.85,0,0,0,.83.08A3,3,0,0,0,67.42,76a2.32,2.32,0,0,1,0-.24c0-.42.24-.47.5-.47h.21a.66.66,0,0,0,.25,0h0a2.91,2.91,0,0,1,.47.18c.25,0,.38-.29.61-.29a.64.64,0,0,1,.41.22,21.21,21.21,0,0,0,3.4,2.84,12.9,12.9,0,0,0,2.41,1,9.86,9.86,0,0,0,2.25.52H78c.87,0,1.14-.88,1.88-1h0A.61.61,0,0,1,80,79l.2-.17a.28.28,0,0,1,0-.1c0-.1,0-.22,0-.32a.41.41,0,0,0,0-.12h0l.16,0a1.43,1.43,0,0,1,.58.18,5.56,5.56,0,0,0,3,.95,1.89,1.89,0,0,1-.31-.72h0c0-.15.2-.21.53-.21a35,35,0,0,1,5,1c.16-.26.45-.45.45-.81a27.36,27.36,0,0,0-.88-3.12l-.46.36-.86.66a1.11,1.11,0,0,1-1.2.81,2.2,2.2,0,0,1-.5-.06h0a5.88,5.88,0,0,1-2.25-1.56c-.28-.3-.5-.76-.78-1.06-1.1-1.07-2-1.42-3.07-2.91a3.46,3.46,0,0,0-1.57-1.19h0"/><path class="h" d="M68,46.2a1.2,1.2,0,0,0-.44.61A1.2,1.2,0,0,1,68,46.2"/><path class="a" d="M69.07,46.21a1.39,1.39,0,0,0-.32,0h0a2,2,0,0,1,.3,0h0l.42,0h0l-.42,0"/><path class="h" d="M69.05,46.21a2,2,0,0,0-.3,0c-.09,0-.14,0-.14.1h0c0-.05,0-.08.14-.1a2,2,0,0,1,.3,0"/><path class="h" d="M69.49,46.23c.42,0,.85.07.88.08s-.46-.06-.88-.08"/><path class="h" d="M70.37,46.31l.18.06a3.76,3.76,0,0,0,1,.18,3.64,3.64,0,0,1-1-.18l-.19-.06"/><path class="h" d="M67.54,46.81v0"/><path class="h" d="M67.52,46.9a1.16,1.16,0,0,0,0,.34,1.16,1.16,0,0,1,0-.34"/><path class="h" d="M67.47,47.24a1.72,1.72,0,0,0,.19.75,3.45,3.45,0,0,0,.39.62h0a3.45,3.45,0,0,1-.39-.62,1.72,1.72,0,0,1-.19-.75"/><path class="h" d="M68.1,48.67h0v0h0"/><path class="a" d="M67.69,49.86h0v.2a7.94,7.94,0,0,0,.93,2.21h0A7.65,7.65,0,0,1,67.7,50v-.16"/><path class="h" d="M67.71,50.06a7.94,7.94,0,0,0,.93,2.21l.17.31-.17-.31a7.94,7.94,0,0,1-.93-2.21m0-.2h0"/><path class="i" d="M60.85,73.47h0c0,.1-.18.08-.18.19a.36.36,0,0,0,0,.11,3.38,3.38,0,0,0,.52.82c.74.81,1.51,1.78,2.23,2.41a7.38,7.38,0,0,0,4.28,2.12l.35,0c.24,0,.21-.54.32-.81.19-.67,1-.36,1-1.41v-.14c0-.09,0-.13.11-.13a.24.24,0,0,1,.13,0A51.66,51.66,0,0,0,74.4,80a12.52,12.52,0,0,0,4.43,1.29h0a1.41,1.41,0,0,0,1.33-1.5,2.26,2.26,0,0,0-.27-1.13h0c-.74.16-1,1-1.88,1h-.1a9.86,9.86,0,0,1-2.25-.52,12.9,12.9,0,0,1-2.41-1,21.21,21.21,0,0,1-3.4-2.84.64.64,0,0,0-.41-.22c-.23,0-.36.26-.61.29a2.91,2.91,0,0,0-.47-.18h0a.66.66,0,0,1-.25,0H67.9c-.26,0-.5,0-.5.47a2.32,2.32,0,0,0,0,.24h0a3,3,0,0,1-1.63.42,4.85,4.85,0,0,1-.83-.08h-.1a1.52,1.52,0,0,1-.67-.2,14.92,14.92,0,0,1-1.44-1.26c-.48-.47-.81-.38-1.27-.78-.23-.16-.46-.49-.63-.61"/><path class="b" d="M84,79.35a3.14,3.14,0,0,1,.61,1.24.36.36,0,0,1,0,.11.53.53,0,0,0,.06-.24l0-.16a2.16,2.16,0,0,0-.6-1h0"/><path class="b" d="M84,79.35a2.16,2.16,0,0,1,.6,1l0,.16h0a.53.53,0,0,1-.06.24c0,.16-.16.28-.42.36a3.39,3.39,0,0,1-1.22.19,5.07,5.07,0,0,0-1.64.42h-.1c-.06,0-.1.07-.1.11v0l-.62.06v.05a3,3,0,0,1-.23.71,1.49,1.49,0,0,0,.52,1,5.3,5.3,0,0,0,.57.42l.08.05h0l0,0a1.15,1.15,0,0,1,.14.47l0,.16v0h0c0,.1,0,.17-.1.18a1.1,1.1,0,0,0,0,.18c0,.22.12.49.69,1l1.06.94.3.23-.3-.23h0l.3.23-.3-.23c1.44,1.3,2.74,2.6,2.87,3.45a1.89,1.89,0,0,1,0,.39,1,1,0,0,1-.65.92.23.23,0,0,1-.11,0,24.54,24.54,0,0,1-3.14-.63,2,2,0,0,0-.51-.08c-.22,0-.31.07-.32.2s.37.72.79,1.16a12.87,12.87,0,0,1,2.91,3.6h0c0,.27-.66.14-.79.37v0c0,.7,1.16,1.91,1.55,2.8.06,2.31,1,2.84,1,2.89h0s0,0-.09,0a3.13,3.13,0,0,1-.72-.22,3.17,3.17,0,0,0-.78-.21h-.07a.25.25,0,0,0-.13.23,2.89,2.89,0,0,0,.77,1.33c1,1.23,1.94,2.56,1.94,3.3a.51.51,0,0,1,0,.25c.42.11,1.06.4,1.46.49a.71.71,0,0,0,.2,0c.52,0,.51-.44.83-.64h.08a4.16,4.16,0,0,1,1,.2,1.11,1.11,0,0,0,.3.06c.17,0,.22-.1.22-.24s-.06-.35-.08-.53a.35.35,0,0,1,0-.13c0-.41,1-.22,1.11-.58a.31.31,0,0,0,0-.17c0-.38-.42-1-.42-1.3,0-.14.08-.23.3-.23h0c-.17,0-.24-.08-.24-.18a1.34,1.34,0,0,1,.86-.9.13.13,0,0,1,.13.09h0a4,4,0,0,1,.84.32,7.69,7.69,0,0,1,.67.42,22.29,22.29,0,0,0,3.1,2.29h0a3.63,3.63,0,0,0,.56-.32,2.45,2.45,0,0,1,1.17-.32l.33,0a12.65,12.65,0,0,0,1.87.29.88.88,0,0,0,.53-.13c0-.14-.56-.5-.58-.64h0a20.08,20.08,0,0,0-1.41-2.75,11,11,0,0,1-1.21-2.52s0-.08,0-.09h0a4.3,4.3,0,0,1,1.84.52,25.19,25.19,0,0,0,3.94,1.5c.37.16.78.46,1.15.63a9.63,9.63,0,0,0,2.45.68l.18,0c.7-.06,1.1-.35,1.1-.75a.89.89,0,0,0,0-.22h0l.4-.7a8.18,8.18,0,0,0-1-1.26c-.54-.61-1-.94-1-1.08s0,0,.07-.06h0a30.53,30.53,0,0,1-2.94-2.17l-.72-.12a12.24,12.24,0,0,1,1.66,1.8,1.89,1.89,0,0,1,.39.92c0,.3-.21.5-.77.5a4.93,4.93,0,0,1-1-.15s-.36,0-1,0a20.32,20.32,0,0,1-2.25-.13,10,10,0,0,1-5.08-1.82s-2.47-2.14-5-4.51S87,88.31,87,87.05V87h0c0-.06-.08-.37-1.56-1.45a2.22,2.22,0,0,1-.4-.92v-.07c0-.3.19-.54.85-.54a3.92,3.92,0,0,1,.76.08,16.24,16.24,0,0,0,1.94-.19c.86-.14,1.67-.4,1.67-.78a.27.27,0,0,0,0-.12h0s.26,0,.58,0,1,0,1-.24l-.16-.32h0a.42.42,0,0,1,.17.27.09.09,0,0,1,0,0c.06.11.12.24.19.4a4.74,4.74,0,0,1,0-.63c0-.6.16-1,.65-1h.18a5.37,5.37,0,0,1,2.61-1.2A36.05,36.05,0,0,1,90,79.56l-.84-.18a.64.64,0,0,0-.08.14.72.72,0,0,1-.66.28,3.93,3.93,0,0,1-.71-.09,6.8,6.8,0,0,0-2.43-.36H84"/><path class="j" d="M84.18,78.42c-.33,0-.52.06-.53.21a1.89,1.89,0,0,0,.31.72h0v0h0v0h1.33a6.8,6.8,0,0,1,2.43.36,3.93,3.93,0,0,0,.71.09.72.72,0,0,0,.66-.28.64.64,0,0,1,.08-.14,35,35,0,0,0-5-1"/><path class="b" d="M100.08,78.86a3,3,0,0,0-2.59,1.08,2.79,2.79,0,0,1-1.67.35,16.12,16.12,0,0,0,1.62.13c0-.15.07-.3.1-.45a3,3,0,0,1,2.59-1.08,38.9,38.9,0,0,1,6.82.57,2.06,2.06,0,0,1,.63.24,1.85,1.85,0,0,0-.69-.27,38.73,38.73,0,0,0-6.81-.57"/><path class="b" d="M84.13,81.06l-.15,0-1.07.15a3.39,3.39,0,0,0,1.22-.19"/><path class="b" d="M81.17,81.68a2.57,2.57,0,0,0-.71.18v0l.62-.06v0h0s0-.07.1-.11"/><path class="b" d="M80.23,82.64a.47.47,0,0,0,0,.16c0,.22.12.49.54.85a1.49,1.49,0,0,1-.52-1"/><path class="b" d="M81.32,84.07l.09.06h0l-.08-.05"/><path class="b" d="M81.59,84.63v0a1.36,1.36,0,0,1-.07.38c.07,0,.1-.08.1-.18h0v0l0-.16"/><path class="b" d="M91.29,87.68a.67.67,0,0,0-.2.51.71.71,0,0,0,0,.14,1.89,1.89,0,0,0,.1.35,6.12,6.12,0,0,0,.09-.94v-.06"/><path class="b" d="M98.65,90.58a9.35,9.35,0,0,0,2.43,3.16c-.79-1.07-1.6-2.12-2.43-3.16"/><path class="b" d="M94.11,91.87c.6.51,1.32,1.07,2.16,1.71l.42.23-.16-.12c-.83-.61-1.67-1.23-2.42-1.82"/><path class="b" d="M103.92,96.33l.09.14a3.16,3.16,0,0,0,.47-.06l-.56-.08m.91-1.31h0"/><path class="b" d="M87.4,107.29a1,1,0,0,1-.26,0l.21.1a.5.5,0,0,0,.05-.13"/><path class="c" d="M107.58,79.7c.2.14.34.3.34.4s0,0,0,.05c0,.63-1.37.84-1.92,1.32a.14.14,0,0,1,0,.07s0,.1,0,.16a.24.24,0,0,0,.11.2.67.67,0,0,1,.31.39h0A3,3,0,0,1,105,84.13c-.44.66-.33,1.28-.79,1.94s-.11,1.38-1.17,1.75c-.57.31-.84.64-.84,1.11a4.38,4.38,0,0,0,.66,1.82c.48.89,1,3.13,2,4.23l0,0c-1-1.1-1.47-3.34-2-4.23a4.23,4.23,0,0,1-.66-1.83c0-.47.26-.79.84-1.1,1.06-.38.61-1.17,1.17-1.75s.35-1.28.79-2a2.94,2.94,0,0,0,1.45-1.84.7.7,0,0,0-.31-.39.22.22,0,0,1-.11-.2s0-.11,0-.16a.19.19,0,0,0,0-.07h0c.56-.48,1.92-.68,1.93-1.32a.43.43,0,0,1,0-.05c0-.11-.16-.28-.39-.43"/><path class="c" d="M104.83,95c.67.63.21.91.78,1.53l0,0h0c-.58-.63-.09-.91-.82-1.57"/><path class="d" d="M100.13,78.89A3,3,0,0,0,97.54,80c0,.15-.07.3-.1.45h.34c.8,0,1.53-.1,1.54-.45,0,0,0,0,0-.07h0a21.1,21.1,0,0,1,2.24-.42,8.87,8.87,0,0,1,1-.07c.74,0,1.35.15,1.44.63a7,7,0,0,1,.76,1.37h0a23.45,23.45,0,0,1-1.7,2.28c-.91,1.09-2,2.12-2.62,2.12h-.06a4.57,4.57,0,0,0-1.95,2.54,3.08,3.08,0,0,0-.09.75,3.81,3.81,0,0,0,.31,1.47c.83,1,1.64,2.09,2.43,3.16a24.7,24.7,0,0,0,2.38,1.9s.22.29.46.69l.56.08a1.31,1.31,0,0,0,.28-.09l.17.15.72.12,0,0c-.57-.62-.11-.9-.78-1.53h0l0,0c-1-1.1-1.47-3.34-2-4.23a4.38,4.38,0,0,1-.66-1.82c0-.47.27-.8.84-1.11,1.06-.37.62-1.17,1.17-1.75s.35-1.28.79-1.94a3,3,0,0,0,1.45-1.84.67.67,0,0,0-.31-.39.24.24,0,0,1-.11-.2c0-.06,0-.11,0-.16a.14.14,0,0,0,0-.07h0c.55-.48,1.92-.69,1.92-1.32,0,0,0,0,0-.05s-.14-.26-.34-.4a2.06,2.06,0,0,0-.63-.24,38.9,38.9,0,0,0-6.82-.57"/><path class="e" d="M102.56,79.42a8.87,8.87,0,0,0-1,.07,21.1,21.1,0,0,0-2.24.42s0,0,0,.07c0,.35-.74.45-1.54.45h-.34a16.12,16.12,0,0,1-1.62-.13h-.39a5.37,5.37,0,0,0-2.61,1.2h-.18c-.49,0-.65.43-.65,1a4.74,4.74,0,0,0,0,.63,12.78,12.78,0,0,1,.73,1.91A5.47,5.47,0,0,1,93,86.36c0,.62-.22,1.06-.82,1.06l-.29,0a1.1,1.1,0,0,0-.57.29v.06a6.12,6.12,0,0,1-.09.94,10.13,10.13,0,0,0,2.91,3.19c.75.59,1.59,1.21,2.42,1.82l.16.12c.59.32,1.72.92,3,1.47a12.28,12.28,0,0,0,4.22,1.19H104l-.09-.14c-.24-.4-.46-.69-.46-.69a24.7,24.7,0,0,1-2.38-1.9,9.35,9.35,0,0,1-2.43-3.16,3.81,3.81,0,0,1-.31-1.47,3.08,3.08,0,0,1,.09-.75,4.57,4.57,0,0,1,1.95-2.54h.06c.62,0,1.71-1,2.62-2.12a23.45,23.45,0,0,0,1.7-2.28,7,7,0,0,0-.76-1.37c-.09-.48-.7-.63-1.44-.63"/><path class="f" d="M91.68,82.42l.16.32a.09.09,0,0,0,0,0,.42.42,0,0,0-.17-.27"/><path class="f" d="M91.84,82.74c-.07.2-.6.24-1,.24s-.58,0-.58,0a.27.27,0,0,1,0,.12c0,.38-.81.64-1.67.78a16.24,16.24,0,0,1-1.94.19,3.92,3.92,0,0,0-.76-.08c-.66,0-.85.24-.85.54v.07a2.22,2.22,0,0,0,.4.92C86.92,86.58,87,86.89,87,87h0v.09c0,1.26,2.47,3.75,4.9,6.06s5,4.51,5,4.51A10,10,0,0,0,102,99.44a20.32,20.32,0,0,0,2.25.13c.59,0,1,0,1,0a4.93,4.93,0,0,0,1,.15c.56,0,.77-.2.77-.5a1.89,1.89,0,0,0-.39-.92,12.24,12.24,0,0,0-1.66-1.8l-.17-.15a1.31,1.31,0,0,1-.28.09,3.16,3.16,0,0,1-.47.06h-.12a12.28,12.28,0,0,1-4.22-1.19c-1.26-.55-2.39-1.15-3-1.47l-.42-.23c-.84-.64-1.56-1.2-2.16-1.71a10.13,10.13,0,0,1-2.91-3.19,1.89,1.89,0,0,1-.1-.35.71.71,0,0,1,0-.14c0-.68.77-.8.77-.8l.29,0c.6,0,.81-.44.82-1.06a5.47,5.47,0,0,0-.21-1.31A12.78,12.78,0,0,0,92,83.14c-.07-.16-.13-.29-.19-.4m0,0h0"/><path class="g" d="M99.53,99.52h0s0,0,0,.09a11,11,0,0,0,1.21,2.52,20.08,20.08,0,0,1,1.41,2.75h0c0,.14.56.5.58.64h0a.88.88,0,0,1-.53.13,12.65,12.65,0,0,1-1.87-.29l-.33,0a2.45,2.45,0,0,0-1.17.32,3.63,3.63,0,0,1-.56.32h0a22.29,22.29,0,0,1-3.1-2.29,7.69,7.69,0,0,0-.67-.42,4,4,0,0,0-.84-.32h0a.13.13,0,0,0-.13-.09,1.34,1.34,0,0,0-.86.9c0,.1.07.17.24.18h0c-.22,0-.3.09-.3.23,0,.33.42.92.42,1.3a.31.31,0,0,1,0,.17c-.13.36-1.1.17-1.11.58a.35.35,0,0,0,0,.13c0,.18.08.38.08.53s0,.24-.22.24a1.11,1.11,0,0,1-.3-.06,4.16,4.16,0,0,0-1-.2h-.08c-.32.2-.31.64-.83.64a.71.71,0,0,1-.2,0c-.4-.09-1-.38-1.46-.49a1.29,1.29,0,0,0-.25,0c-.1,0-.17,0-.17.13a.37.37,0,0,0,0,.09.13.13,0,0,1,0,.08v0c0,.08-.08.14-.08.22s0,.11.13.2h0c.19,0,.56.18.82.22a2.07,2.07,0,0,0,.4,0h.46a1.73,1.73,0,0,1,.54.09c.58.12,1.26.37,1.8.42h0a1.16,1.16,0,0,0,.65-.14,2.46,2.46,0,0,0,1.67-1.17.76.76,0,0,1-.26-.45c0-.26.44-.28.57-.45a.42.42,0,0,1,.17,0h.32c.2-.13.1-.46.44-.46a1.11,1.11,0,0,1,.3.06A28.54,28.54,0,0,0,99.54,107a9.36,9.36,0,0,0,1.35.08,13.93,13.93,0,0,0,3.12-.27c.79-.21.5-1,1-1.35h0a1.57,1.57,0,0,1,.24.18,1,1,0,0,0,.07-.18c-.08-.09-.19-.32-.27-.41h0a.55.55,0,0,1,.37-.1l.3,0a6.65,6.65,0,0,0,1.44.16,7.13,7.13,0,0,0,2.2-.4,7,7,0,0,1,2.25-.41h.28c.42,0,1-.1,1-.45a.25.25,0,0,1,0-.08c0-.17.08-.32.08-.48A.46.46,0,0,0,113,103c-.54-.68-1.48-1.5-2.18-2.2l-.22.38-.4.7a.89.89,0,0,1,0,.22c0,.4-.4.69-1.1.75l-.18,0a9.63,9.63,0,0,1-2.45-.68c-.37-.17-.78-.47-1.15-.63a25.19,25.19,0,0,1-3.94-1.5,4.3,4.3,0,0,0-1.84-.52"/><path class="a" d="M82.71,81.25a7,7,0,0,0-1.54.43h0a7,7,0,0,1,1.54-.43h0m1.84-.55a.77.77,0,0,1-.42.36h0a.77.77,0,0,0,.42-.36h0"/><path class="h" d="M81.4,84.12h0a4.44,4.44,0,0,1,.18.5l0,.16,0-.16a4.44,4.44,0,0,0-.18-.5h0m-1.18-1.56h0"/><path class="i" d="M105.05,105.41h0c-.53.33-.24,1.14-1,1.35a13.93,13.93,0,0,1-3.12.27,9.36,9.36,0,0,1-1.35-.08,28.54,28.54,0,0,1-4.18-1.13,1.11,1.11,0,0,0-.3-.06c-.34,0-.24.33-.44.46H94.3a.42.42,0,0,0-.17,0c-.13.17-.58.19-.57.45a.76.76,0,0,0,.26.45h0a2.46,2.46,0,0,1-1.67,1.17,1.16,1.16,0,0,1-.65.14h0c-.54,0-1.22-.3-1.8-.42a1.73,1.73,0,0,0-.54-.09h-.46a2.07,2.07,0,0,1-.4,0c-.26,0-.63-.2-.82-.22v0c0,.05-.06.09-.06.14s0,.07.11.12a4.13,4.13,0,0,0,.87.43c1,.33,2.17.79,3.07,1a13.16,13.16,0,0,0,2.77.36,3.43,3.43,0,0,0,1.87-.42.14.14,0,0,0,0-.11,4.58,4.58,0,0,0-.27-.63.59.59,0,0,1,0-.21c0-.28.25-.42.26-.72a1,1,0,0,0-.28-.61.19.19,0,0,1,0-.1s.06-.07.14-.07h0c1.94.45,3.69.81,5.49,1.1a5,5,0,0,0,1,.08,14.18,14.18,0,0,0,3.15-.37.86.86,0,0,0,.54-.78c0-.74-1-1.54-1-1.54"/><path d="M110.75,89.8,111.88,88a4.86,4.86,0,0,1,0,4.4,18.31,18.31,0,0,1-2.5,4.47,69,69,0,0,1-5.84,6.37,11.64,11.64,0,0,1-3.08,1.59A23.46,23.46,0,0,0,94.52,109a11.73,11.73,0,0,1-8.76,3,3.73,3.73,0,0,1-2.42-1.18c-1.34-1.52-2.47-3.2-2.34-5.44a13.69,13.69,0,0,0-1.2-6.15,7.73,7.73,0,0,1,1.43-8.89,15.88,15.88,0,0,0,2-3.63c1.78-3.62,4-6.87,7.59-8.93a6.46,6.46,0,0,1,3.5-1,10.1,10.1,0,0,0,5.87-1.12,3.81,3.81,0,0,1,4.74.36c1.65,1.4,3.61,2.44,5.23,3.87a8.31,8.31,0,0,1,2,3.1,3.4,3.4,0,0,1-1,4.23C110.26,88.11,110.33,88.2,110.75,89.8ZM95,97.32c1.16.62,1,1.64.66,2.61a10.57,10.57,0,0,1-1.3,2.22c-1.1,1.52-1,3.12-.59,5a36.19,36.19,0,0,0,4.4-3,4.81,4.81,0,0,0,1.11-2.68,16.76,16.76,0,0,0-.19-2.8A9.57,9.57,0,0,1,99.34,97h.54l1,5.59c1.27-.16,1.34-1.1,1.39-2.05.11-2.19.2-4.38.33-6.56a5.65,5.65,0,0,1,.34-1.16c.41,2.6.28,5.18.86,7.87a8.6,8.6,0,0,0,.89-.57c1.61-1.47,1.69-3.42,1.75-5.4s.18-4.14.27-6.21l.64,0c.27,2.35.06,4.77.51,7.5.51-.55.91-.79,1-1.08.59-4.12,0-8.2-.36-12.37.38.89.76,1.79,1.19,2.78l1.27-.76a31.65,31.65,0,0,1-1.86-3.41c-.67-1.23-2.32-2-3.62-2.82a30.85,30.85,0,0,0-3.14-1.54c-1.13.47-2.56,1-4,1.67a9.59,9.59,0,0,0-2,1.07c-.87.68-1.63,1.51-2.44,2.28l-.39-.26L95,78.37a6,6,0,0,0-5.38,2.12,60.51,60.51,0,0,0-4.29,6.4c-1,1.58-1.72,3.36-2.86,4.82a6.67,6.67,0,0,0-1.06,7,47.9,47.9,0,0,1,1.34,5.65,9.89,9.89,0,0,0,.32,1c.86-.61.77-2,2.35-1.76a7.41,7.41,0,0,1-2.11,4.32,3.51,3.51,0,0,0,3,2.59,10.41,10.41,0,0,0,5.84-1.38,7.79,7.79,0,0,1-.22-1c-.1-2.17-.48-4.33.83-6.36C93.62,100.38,94.24,98.88,95,97.32Z"/><path d="M65,106.94c-1.52-1.09-2.76-.28-4,.8-.94.81-1.88,1.88-3,2.14a22.91,22.91,0,0,1-5.74.4c-2.45,0-4.81-.75-7.35-.65-2,.07-4.33.12-6.28-1.17a10.38,10.38,0,0,0-3-1.23,5.49,5.49,0,0,1-3.25-2.49c-1.85-2.79-1.7-5.41.89-7.46,2.12-1.68,3.94-3.83,6.7-4.63.41-.11,1-.47,1.07-.78.29-2.06,2-2.26,3.45-2.65a28.14,28.14,0,0,0,5.38-2.16c4.1-2.08,8.25-1.69,12.39.1,1.63.7,3.42,1,5.08,1.63s3.37,1.52,5,2.3a1,1,0,0,1,.32.33c.94,1.45.89,4.68-.32,6a2.8,2.8,0,0,0-.93,2.47,3.69,3.69,0,0,1-1.06,2.73A11.83,11.83,0,0,1,65,106.94Zm-17.18-4.73.36.32a3.82,3.82,0,0,1-.45,1A6.87,6.87,0,0,1,43.34,106a2.83,2.83,0,0,0-2.63,1.66l6.94.49,4-5.25c-.29,2-1.85,3.42-1.82,5.65l2.52.13c1.16-2.48,1.93-5,4.11-6.62l-3,6.74,2.57-.11c1.4-2.71,2.12-5.66,4.87-7.25q-1.72,3.28-3.43,6.57l.49.34c.5-.52,1-1.06,1.52-1.56,1.48-1.39,3-2.56,5.31-2.12a2.48,2.48,0,0,0,1.92-.6c1.16-1.23,2.14-2.64,3.25-4a7.29,7.29,0,0,1-.39-1.75,2.18,2.18,0,0,1,.54-1.4c1.92-1.93,1.95-1.94.86-4.27-3.77-2.24-7.33-4.37-11.75-3.38l-.38-1.52a11.62,11.62,0,0,0-8.58,1.18A11.44,11.44,0,0,1,46,90.57a2.88,2.88,0,0,0-2.35,1.31A14.92,14.92,0,0,1,46,91.71c.38,0,.72.42,1.07.65-.33.33-.63.87-1,1a27.8,27.8,0,0,1-3,.34c-3.78.39-6.37,2.88-8.75,5.42a3.94,3.94,0,0,0,1.43,6.39c1.21.46,2.45.86,3.68,1.28.35-1.62,1.76-1.81,3-2.11a10.28,10.28,0,0,0,4.45-2A4,4,0,0,1,47.81,102.21Z"/><path d="M67,78.13c0-.45,0-1.11.19-1.29a9.58,9.58,0,0,1,2.65-1.38c1.11-.33,2.32-.33,3.46-.57A36.78,36.78,0,0,0,76.94,74a2.36,2.36,0,0,0,1.82-2.37c.1-1.28,0-2.82,1.58-3.91l-.42,3.6.44.2c.26-.36.67-.7.75-1.1.3-1.6.48-3.23.76-4.84a1.69,1.69,0,0,1,.87-1.13v4.39a2.64,2.64,0,0,0,2-2.56,31.74,31.74,0,0,1,1-6.21c.85,2.07-.12,4.31.62,6.42,1.45.07,1.83-.9,2-2.06A27.85,27.85,0,0,1,89,60.5c.93,1.19.28,2.59.64,3.94,1,.14,1.37-.49,1.51-1.28a8.29,8.29,0,0,0,.19-2.57c-.33-2.36.65-4.4,1.59-6.36,1.36-2.83.76-5.34-.74-7.77-.91-1.46-2.48-1.56-4-1.28-2.07.39-4.09,1-6.17,1.4a40.15,40.15,0,0,1-6.27.64c-2.65,0-4.52,1-5.44,3.55a6.85,6.85,0,0,1-2.78,3.36c-1.48,1-3.3,1.95-3.16,4.25a.59.59,0,0,1-.19.41c-1.12,1-2.25,2-3.46,3.12a1.51,1.51,0,0,1-.14-2.19c1.1-1.52,2.14-3.08,3.26-4.57a4.71,4.71,0,0,1,1.56-1.39,9,9,0,0,0,4-4.44c1.33-2.73,3.55-3.76,6.52-3.53A17,17,0,0,0,82.12,45a73.59,73.59,0,0,1,8.25-1.71,2.33,2.33,0,0,1,1.48.55,8.21,8.21,0,0,1,2.76,9.74,9.53,9.53,0,0,0-.5,5.55c.68,3.39-2.17,7.12-5.87,8.45a12.46,12.46,0,0,0-3.16,2,18.92,18.92,0,0,0-2.75,2.54,12.21,12.21,0,0,1-8.17,4.11c-2.32.29-4.66.58-6.57,2.2Z"/><path d="M66.52,78.54c-.85.95-1.57,1.19-2.52.39a9.38,9.38,0,0,0-4.48-1.79c-3.18-.59-4.26-1.92-4.61-5.2a8.53,8.53,0,0,1,2.2-6.88c.75-.84.78-.82,1.8.1a19.24,19.24,0,0,0-2.19,3.73,8.64,8.64,0,0,0-.15,3.89,3.18,3.18,0,0,0,2.61,2.68,22,22,0,0,1,3.82,1A28,28,0,0,1,66.52,78.54Z"/><path d="M71.46,73a21,21,0,0,1,2.42-1.21,3.58,3.58,0,0,0,2.63-3.7,6.68,6.68,0,0,1,2.33-5.37,6.46,6.46,0,0,1,2.69-1.07c.34-.08.82.45,1.6.92A15.13,15.13,0,0,1,80.9,64a3.81,3.81,0,0,0-2.46,3.15c-.11.54-.26,1.06-.34,1.6C77.58,72.33,75.32,74,71.46,73Z"/><path d="M78.93,50.06a7.07,7.07,0,0,1-2.82,4.39,7,7,0,0,1-2,1.18c-2.45.84-4.85,1.73-5.94,4.52l-.45-.24a4.12,4.12,0,0,1-.14-1.41,4.07,4.07,0,0,1,2.81-2.91c3.2-.91,5.84-2.48,7.45-5.5.09-.16.38-.21.58-.31Z"/><path d="M87.67,52.18c2-.37,2.73.22,2.38,1.54A3.17,3.17,0,0,1,89.42,55c-1.07,1.22-1.8,2.5-1.26,4.2,0,.14-.22.37-.45.71a4.26,4.26,0,0,1-1.51-3.22c0-.49.18-1.23.52-1.43A2,2,0,0,0,87.67,52.18Z"/><path d="M69.21,72.13a6.28,6.28,0,0,1-.88.91q-1.8,1.26-3.66,2.42a.93.93,0,0,1-.84-.07.87.87,0,0,1-.21-.8c.36-.92,4.16-3,5.25-3C69,71.65,69,71.88,69.21,72.13Z"/><path d="M66,64.75c-.24,1.22-1.3,1.57-2.15,2.08,0,0-.71-.6-.66-.84C63.36,65.11,64.57,64.61,66,64.75Z"/><path d="M90.06,84.19l-1.25,1.62A1.1,1.1,0,0,1,88.59,84c.21-.29.83-.27,1.26-.4Z"/><path d="M53.39,99.66l1.87-.9c-.24-3.65,1.05-4.47,3.42-3.82A8.7,8.7,0,0,0,57,97.19a10.48,10.48,0,0,0-.06,3C55.69,100.55,54.64,101,53.39,99.66Z"/><path d="M48.62,98.79c-1.79.34-3.48.66-5.17.95-.07,0-.18-.22-.4-.5,1-1.21,2.54-1.17,3.91-1.4A1.34,1.34,0,0,1,48.62,98.79Z"/></svg>