<?xml version="1.0" encoding="utf-8"?>
<!-- Generator: Adobe Illustrator 23.0.1, SVG Export Plug-In . SVG Version: 6.00 Build 0)  -->
<svg version="1.1" id="Layer_1" xmlns="http://www.w3.org/2000/svg" xmlns:xlink="http://www.w3.org/1999/xlink" x="0px" y="0px"
	 viewBox="0 0 150 150" style="enable-background:new 0 0 150 150;" xml:space="preserve">
<style type="text/css">
	.st0{fill:#F49AB4;}
	.st1{fill:#F28DA7;}
	.st2{fill:#E85072;}
	.st3{fill:#E84B6F;}
	.st4{fill:#EB5A7D;}
	.st5{fill:#EF7994;}
	.st6{fill:#F8BCCD;}
	.st7{fill:#F38CA8;}
	.st8{fill:#EF728F;}
	.st9{fill:#FCE4EB;}
	.st10{fill:#F0CCCF;}
	.st11{fill:#DE8D95;}
	.st12{fill:#EBBABF;}
	.st13{fill:#E7ACB2;}
	.st14{fill:#E39DA3;}
	.st15{fill:#F5DEE0;}
	.st16{fill:#D97A83;}
	.st17{fill:#E4A6AD;}
	.st18{fill:#E9B6BB;}
	.st19{fill:#DA9197;}
	.st20{fill:#CC7077;}
	.st21{fill:#C9646C;}
	.st22{fill:#D4848B;}
	.st23{fill:#D17A81;}
	.st24{fill:#DD9EA3;}
	.st25{fill:#C65760;}
	.st26{fill:#D48189;}
	.st27{fill:#CF6E76;}
	.st28{fill:#C1575F;}
	.st29{fill:#B8424B;}
	.st30{fill:#B33C43;}
	.st31{fill:#BB4952;}
	.st32{fill:#C65E66;}
	.st33{fill:#BC4F57;}
	.st34{fill:#B0353D;}
	.st35{fill:#D67E84;}
	.st36{fill:#C6636B;}
	.st37{fill:#CA6C72;}
	.st38{fill:#B9454D;}
	.st39{fill:#C05B63;}
	.st40{fill:#C0545B;}
	.st41{fill:#BE4C53;}
	.st42{fill:#B43C44;}
	.st43{fill:#DF999F;}
	.st44{fill:#D27980;}
	.st45{fill:#C1555D;}
	.st46{fill:#CB6F76;}
	.st47{fill:#C8676E;}
	.st48{fill:#D5838A;}
	.st49{fill:#C65D64;}
	.st50{fill:#F1D1D4;}
	.st51{fill:#D38087;}
	.st52{fill:#CF737C;}
	.st53{fill:#D98C94;}
	.st54{fill:#E6B3B9;}
	.st55{fill:#D8898F;}
	.st56{fill:#C66269;}
	.st57{fill:#C96A72;}
	.st58{fill:#DD9399;}
	.st59{fill:#CF747B;}
	.st60{fill:#D48188;}
	.st61{fill:#D37D85;}
	.st62{fill:#DC9298;}
	.st63{fill:#D8838B;}
	.st64{fill:#FAECED;}
	.st65{fill:#EFCBD0;}
	.st66{fill:#EDC1C5;}
	.st67{fill:#D28089;}
	.st68{fill:#CB747D;}
	.st69{fill:#A8343C;}
	.st70{fill:#A62F37;}
	.st71{fill:#B03E44;}
	.st72{fill:#C25C63;}
	.st73{fill:#E1A8AC;}
	.st74{fill:#BE535C;}
	.st75{fill:#CE727C;}
	.st76{fill:#F5D8DA;}
	.st77{fill:#D8BAE7;}
	.st78{fill:#BC8FD2;}
	.st79{fill:#B17FC9;}
	.st80{fill:#7D3CA4;}
	.st81{fill:#884BAE;}
	.st82{fill:#A369BF;}
	.st83{fill:#D2B5E2;}
	.st84{fill:#9A62BC;}
	.st85{fill:#B17ECB;}
	.st86{fill:#ECE0F2;}
	.st87{fill:#FBCBC8;}
	.st88{fill:#F5908C;}
	.st89{fill:#F28580;}
	.st90{fill:#E64640;}
	.st91{fill:#E5413B;}
	.st92{fill:#E74E49;}
	.st93{fill:#ED6D68;}
	.st94{fill:#F7B5B0;}
	.st95{fill:#ED6660;}
	.st96{fill:#F48580;}
	.st97{fill:#FBDFDF;}
	.st98{fill:#F9C1C0;}
	.st99{fill:#F7B7B6;}
	.st100{fill:#EF7573;}
	.st101{fill:#EF6F6D;}
	.st102{fill:#F17F7C;}
	.st103{fill:#F4A19F;}
	.st104{fill:#F39998;}
	.st105{fill:#EC7271;}
	.st106{fill:#FAD1CF;}
	.st107{fill:#FADCDC;}
	.st108{fill:#F39391;}
	.st109{fill:#FDECEC;}
	.st110{fill:#FCDDDD;}
	.st111{fill:#ED8280;}
	.st112{fill:#E66160;}
	.st113{fill:#F18784;}
	.st114{fill:#F19593;}
	.st115{fill:#EB7675;}
	.st116{fill:#E86867;}
	.st117{fill:#F28785;}
	.st118{fill:#F3A7A7;}
	.st119{fill:#F08C8B;}
	.st120{fill:#F08785;}
	.st121{fill:#E55D5B;}
	.st122{fill:#E86D6C;}
	.st123{fill:#E85F5D;}
	.st124{fill:#E75958;}
	.st125{fill:#EA6664;}
	.st126{fill:#E76260;}
	.st127{fill:#E04948;}
	.st128{fill:#ED7371;}
	.st129{fill:#EA6B6A;}
	.st130{fill:#EB6763;}
	.st131{fill:#E45352;}
	.st132{fill:#E54E4C;}
	.st133{fill:#DE3635;}
	.st134{fill:#E65958;}
	.st135{fill:#E0413E;}
	.st136{fill:#EA6D6A;}
	.st137{fill:#EE9493;}
	.st138{fill:#EA6866;}
	.st139{fill:#F2A8A6;}
	.st140{fill:#E14543;}
	.st141{fill:#E3413F;}
	.st142{fill:#E64A48;}
	.st143{fill:#E56967;}
	.st144{fill:#E33F3D;}
	.st145{fill:#EB7775;}
	.st146{fill:#EE8483;}
	.st147{fill:#E64845;}
	.st148{fill:#E75655;}
	.st149{fill:#E65451;}
	.st150{fill:#EA7473;}
	.st151{fill:#E55B57;}
	.st152{fill:#E75756;}
	.st153{fill:#EB7472;}
	.st154{fill:#EE8C8A;}
	.st155{fill:#F5A3A2;}
	.st156{fill:#E14A49;}
	.st157{fill:#E14D4C;}
	.st158{fill:#E14B49;}
	.st159{fill:#DE3E3D;}
	.st160{fill:#E45350;}
	.st161{fill:#E14544;}
	.st162{fill:#E54E4B;}
	.st163{fill:#E34240;}
	.st164{fill:#E75C5A;}
	.st165{fill:#EB7C7B;}
	.st166{fill:#F3A2A1;}
	.st167{fill:#EA7877;}
	.st168{fill:#E66B6A;}
	.st169{fill:#E96A69;}
	.st170{fill:#E56160;}
	.st171{fill:#E44845;}
	.st172{fill:#EC7473;}
	.st173{fill:#F9C0D3;}
	.st174{fill:#F298B5;}
	.st175{fill:#EE89A7;}
	.st176{fill:#E54D73;}
	.st177{fill:#E44771;}
	.st178{fill:#E7567E;}
	.st179{fill:#EC7797;}
	.st180{fill:#F8BCCF;}
	.st181{fill:#EB6D8F;}
	.st182{fill:#F089A8;}
	.st183{fill:#FCE2EB;}
	.st184{fill:#E55B7F;}
	.st185{fill:#E6708E;}
	.st186{fill:#EB87A2;}
	.st187{fill:#E25677;}
	.st188{fill:#E7678B;}
	.st189{fill:#FBD7E3;}
	.st190{fill:#ED80A1;}
	.st191{fill:#E24166;}
	.st192{fill:#E13B65;}
	.st193{fill:#E34870;}
	.st194{fill:#E76486;}
	.st195{fill:#F49DB8;}
	.st196{fill:#F7BFD1;}
	.st197{fill:#E65C7F;}
	.st198{fill:#F6ABC4;}
	.st199{fill:#F6A7C2;}
	.st200{fill:#EA6189;}
	.st201{fill:#DB3258;}
	.st202{fill:#DA2E55;}
	.st203{fill:#F7B2C9;}
	.st204{fill:#EA6A8D;}
	.st205{fill:#DC355B;}
	.st206{fill:#DB3159;}
	.st207{fill:#DF3C63;}
	.st208{fill:#F9C5D6;}
	.st209{fill:#EB7697;}
	.st210{fill:#DE3B61;}
	.st211{fill:#DE375F;}
	.st212{fill:#E1426A;}
	.st213{fill:#FDE7EE;}
	.st214{fill:#EE89A9;}
	.st215{fill:#E2456B;}
	.st216{fill:#E14069;}
	.st217{fill:#E44D75;}
	.st218{fill:#E86B8C;}
	.st219{fill:#EE7A9C;}
	.st220{fill:#F5A8C0;}
	.st221{fill:#FACBDA;}
	.st222{fill:#E65A7D;}
	.st223{fill:#E04169;}
	.st224{fill:#FEF5F9;}
	.st225{fill:#F191B0;}
	.st226{fill:#EA7292;}
	.st227{fill:#F6B4C9;}
	.st228{fill:#FBD8E5;}
	.st229{fill:#E96C8F;}
	.st230{fill:#E35477;}
	.st231{fill:#EA7396;}
	.st232{fill:#EB7A9D;}
	.st233{fill:#E8698D;}
	.st234{fill:#EB7094;}
	.st235{fill:#E04B6E;}
	.st236{fill:#E66085;}
	.st237{fill:#EB7294;}
	.st238{fill:#E7678C;}
	.st239{fill:#EA6D91;}
	.st240{fill:#E14C71;}
	.st241{fill:#EE7A9D;}
	.st242{fill:#F393B2;}
	.st243{fill:#DC3F64;}
	.st244{fill:#EF82A3;}
	.st245{fill:#F39DB9;}
	.st246{fill:#DF466B;}
	.st247{fill:#DF4469;}
	.st248{fill:#F29A98;}
	.st249{fill:#E64F4D;}
	.st250{fill:#E74947;}
	.st251{fill:#E85956;}
	.st252{fill:#EC7775;}
	.st253{fill:#F8BCBA;}
	.st254{fill:#EC6F6D;}
	.st255{fill:#FCE2E2;}
	.st256{fill:#F8C8C6;}
	.st257{fill:#F08B89;}
	.st258{fill:#F18A89;}
	.st259{fill:#B093A4;}
	.st260{fill:#A38295;}
	.st261{fill:#6F455A;}
	.st262{fill:#694055;}
	.st263{fill:#794F64;}
	.st264{fill:#936F83;}
	.st265{fill:#CDB7C1;}
	.st266{fill:#B596A5;}
	.st267{fill:#A58394;}
	.st268{fill:#8C667A;}
	.st269{fill:#B696A7;}
	.st270{fill:#E8E0E7;}
	.st271{fill:#E1BCC2;}
	.st272{fill:#A9666E;}
	.st273{fill:#681C23;}
	.st274{fill:#641920;}
	.st275{fill:#73242D;}
	.st276{fill:#8D3F48;}
	.st277{fill:#C69197;}
	.st278{fill:#893841;}
	.st279{fill:#E3CCCE;}
	.st280{fill:#6F292E;}
	.st281{fill:#A15A63;}
	.st282{fill:#944952;}
	.st283{fill:#944953;}
	.st284{fill:#964A53;}
	.st285{fill:#984B54;}
	.st286{fill:#974A53;}
	.st287{fill:#A25A62;}
	.st288{fill:#D2BCC8;}
	.st289{fill:#C8B2BE;}
	.st290{fill:#936A80;}
	.st291{fill:#8E667B;}
	.st292{fill:#9B7589;}
	.st293{fill:#B293A3;}
	.st294{fill:#916B7F;}
	.st295{fill:#DDCCD6;}
	.st296{fill:#AC8B9C;}
	.st297{fill:#F1EBEF;}
	.st298{fill:#9C7A8C;}
	.st299{fill:#8F6C80;}
	.st300{fill:#B99DAC;}
	.st301{fill:#A27F91;}
	.st302{fill:#C2A7B6;}
	.st303{fill:#AB8E9F;}
	.st304{fill:#936D82;}
	.st305{fill:#856174;}
	.st306{fill:#B99DAB;}
	.st307{fill:#C2A9B6;}
	.st308{fill:#A38091;}
	.st309{fill:#BBA3B0;}
	.st310{fill:#7A5468;}
	.st311{fill:#855F73;}
	.st312{fill:#AE8E9F;}
	.st313{fill:#7C556A;}
	.st314{fill:#7B5066;}
	.st315{fill:#855C71;}
	.st316{fill:#AF8E9F;}
	.st317{fill:#734B60;}
	.st318{fill:#694256;}
	.st319{fill:#916A80;}
	.st320{fill:#886378;}
	.st321{fill:#875C71;}
	.st322{fill:#714B5E;}
	.st323{fill:#582F42;}
	.st324{fill:#795066;}
	.st325{fill:#5E3A4B;}
	.st326{fill:#8A6578;}
	.st327{fill:#A98E9D;}
	.st328{fill:#B9A1B1;}
	.st329{fill:#B08F9F;}
	.st330{fill:#B898AA;}
	.st331{fill:#896578;}
	.st332{fill:#653C50;}
	.st333{fill:#623A4E;}
	.st334{fill:#6C4257;}
	.st335{fill:#B28FA1;}
	.st336{fill:#80596E;}
	.st337{fill:#7F586C;}
	.st338{fill:#765063;}
	.st339{fill:#683F53;}
	.st340{fill:#774E63;}
	.st341{fill:#704B5F;}
	.st342{fill:#674355;}
	.st343{fill:#7F5A6E;}
	.st344{fill:#815A6E;}
	.st345{fill:#6A4558;}
	.st346{fill:#5D374A;}
	.st347{fill:#926D80;}
	.st348{fill:#70475B;}
	.st349{fill:#72495E;}
	.st350{fill:#673D52;}
	.st351{fill:#673D51;}
	.st352{fill:#60364B;}
	.st353{fill:#795265;}
	.st354{fill:#683F52;}
	.st355{fill:#7A5368;}
	.st356{fill:#987387;}
	.st357{fill:#70475C;}
	.st358{fill:#A07D92;}
	.st359{fill:#81596E;}
	.st360{fill:#926C7F;}
	.st361{fill:#80596D;}
	.st362{fill:#CDC0E4;}
	.st363{fill:#A998CF;}
	.st364{fill:#644DA1;}
	.st365{fill:#5E479E;}
	.st366{fill:#6F56A9;}
	.st367{fill:#755CAC;}
	.st368{fill:#8975BA;}
	.st369{fill:#C4BAE0;}
	.st370{fill:#755DAD;}
	.st371{fill:#846DB7;}
	.st372{fill:#E7E2F2;}
	.st373{fill:#9B89C5;}
	.st374{fill:#8871B8;}
	.st375{fill:#9C89C6;}
	.st376{fill:#8673B9;}
	.st377{fill:#B9E1BA;}
	.st378{fill:#ADDBAE;}
	.st379{fill:#99D09A;}
	.st380{fill:#65B567;}
	.st381{fill:#5FB261;}
	.st382{fill:#70BB71;}
	.st383{fill:#8DCB8E;}
	.st384{fill:#CBE9CB;}
	.st385{fill:#86C687;}
	.st386{fill:#98D099;}
	.st387{fill:#EBF5EB;}
	.st388{fill:#B9D6C9;}
	.st389{fill:#8EBD9E;}
	.st390{fill:#7DB18E;}
	.st391{fill:#408251;}
	.st392{fill:#3A7F4C;}
	.st393{fill:#4A8C5B;}
	.st394{fill:#68A279;}
	.st395{fill:#B5D4BE;}
	.st396{fill:#7CB38B;}
	.st397{fill:#619D71;}
	.st398{fill:#E0ECE4;}
	.st399{fill:#74A38C;}
	.st400{fill:#679880;}
	.st401{fill:#669780;}
	.st402{fill:#669881;}
	.st403{fill:#285E41;}
	.st404{fill:#235A3C;}
	.st405{fill:#31684A;}
	.st406{fill:#4D8268;}
	.st407{fill:#A1C2B0;}
	.st408{fill:#679981;}
	.st409{fill:#467B62;}
	.st410{fill:#D6E5DF;}
	.st411{fill:#8ECA8F;}
	.st412{fill:#7DC07F;}
	.st413{fill:#409841;}
	.st414{fill:#3A933C;}
	.st415{fill:#4AA14B;}
	.st416{fill:#68B569;}
	.st417{fill:#7CC07D;}
	.st418{fill:#B5DDB5;}
	.st419{fill:#61B062;}
	.st420{fill:#7CC17E;}
	.st421{fill:#E0EFE0;}
	.st422{fill:#EBF5DE;}
	.st423{fill:#D4EAB8;}
	.st424{fill:#D2E9B4;}
	.st425{fill:#D8ECBE;}
	.st426{fill:#E2F0CE;}
	.st427{fill:#F3F9EA;}
	.st428{fill:#DFF0CA;}
	.st429{fill:#FAFDF7;}
	.st430{fill:#D3C9BE;}
	.st431{fill:#CBBEB3;}
	.st432{fill:#BBAC9F;}
	.st433{fill:#97826F;}
	.st434{fill:#947E69;}
	.st435{fill:#9F8A79;}
	.st436{fill:#B5A495;}
	.st437{fill:#DED6CE;}
	.st438{fill:#BBAD9F;}
	.st439{fill:#AE9E8D;}
	.st440{fill:#F2EFEC;}
	.st441{fill:#B1A091;}
	.st442{fill:#B1A090;}
	.st443{fill:#D8BACF;}
	.st444{fill:#976286;}
	.st445{fill:#905778;}
	.st446{fill:#4F1939;}
	.st447{fill:#4C1637;}
	.st448{fill:#5A2144;}
	.st449{fill:#773B60;}
	.st450{fill:#B88FAD;}
	.st451{fill:#6E345A;}
	.st452{fill:#8E567D;}
	.st453{fill:#E1CCDA;}
	.st454{fill:#C4E2A7;}
	.st455{fill:#93C35F;}
	.st456{fill:#8EC15A;}
	.st457{fill:#9AC868;}
	.st458{fill:#B0D587;}
	.st459{fill:#DCEBC3;}
	.st460{fill:#C8E0AA;}
	.st461{fill:#ABD280;}
	.st462{fill:#CAE2A9;}
	.st463{fill:#EFF8E7;}
	.st464{fill:#FFF6C0;}
	.st465{fill:#FFEC97;}
	.st466{fill:#FFDC4B;}
	.st467{fill:#FFD945;}
	.st468{fill:#FFDD54;}
	.st469{fill:#FFE774;}
	.st470{fill:#FFF4BA;}
	.st471{fill:#FFE46C;}
	.st472{fill:#FFF9E2;}
	.st473{fill:#FDE2C1;}
	.st474{fill:#F9CA98;}
	.st475{fill:#F9C18A;}
	.st476{fill:#F5994E;}
	.st477{fill:#F49448;}
	.st478{fill:#F8A158;}
	.st479{fill:#F8B577;}
	.st480{fill:#FCDDBC;}
	.st481{fill:#F8B06F;}
	.st482{fill:#FFEFE2;}
	.st483{fill:#F8A7A4;}
	.st484{fill:#EF8262;}
	.st485{fill:#EC605A;}
	.st486{fill:#EB5B55;}
	.st487{fill:#EC6964;}
	.st488{fill:#F28783;}
	.st489{fill:#F9C4C1;}
	.st490{fill:#F2817A;}
	.st491{fill:#EB6449;}
	.st492{fill:#FCE7E7;}
	.st493{fill:#FFEA88;}
	.st494{fill:#FFEB87;}
	.st495{fill:#FDF2E3;}
	.st496{fill:#FDEFDD;}
	.st497{fill:#F9E1C4;}
	.st498{fill:#FADEB9;}
	.st499{fill:#FADDB7;}
	.st500{fill:#FAE0BF;}
	.st501{fill:#FBE9CF;}
	.st502{fill:#F9DAB8;}
	.st503{fill:#FDF5EB;}
	.st504{fill:#FBE6CB;}
	.st505{fill:#FFFBF7;}
	.st506{fill:#FBDFBE;}
	.st507{fill:#F7D8B5;}
	.st508{fill:#FBE8CF;}
	.st509{fill:#FBE3C8;}
	.st510{fill:#F9E8CF;}
	.st511{fill:#F8DBB7;}
	.st512{fill:#FADBB5;}
	.st513{fill:#F7D5AE;}
	.st514{fill:#FDE9D5;}
	.st515{fill:#FAE3C8;}
	.st516{fill:#F7D1A4;}
	.st517{fill:#F5CD9D;}
	.st518{fill:#F7D8B0;}
	.st519{fill:#F8D4A9;}
	.st520{fill:#F8D3A6;}
	.st521{fill:#F8D8AF;}
	.st522{fill:#F7CD9E;}
	.st523{fill:#F4C896;}
	.st524{fill:#FBE3C5;}
	.st525{fill:#F7DBB8;}
	.st526{fill:#F7D8B1;}
	.st527{fill:#F7D7B0;}
	.st528{fill:#F8CD9F;}
	.st529{fill:#F8CD9E;}
	.st530{fill:#F1BE84;}
	.st531{fill:#F8D0A3;}
	.st532{fill:#F1C38D;}
	.st533{fill:#F8D8B1;}
	.st534{fill:#FBE2C8;}
	.st535{fill:#F9EAD3;}
	.st536{fill:#F9D3AA;}
	.st537{fill:#F7C896;}
	.st538{fill:#F7C794;}
	.st539{fill:#F7CA9A;}
	.st540{fill:#F7D3AB;}
	.st541{fill:#F8D8B5;}
	.st542{fill:#F9E6CF;}
	.st543{fill:#F7C897;}
	.st544{fill:#F8D3AA;}
	.st545{fill:#F7CEA2;}
	.st546{fill:#F4CD9E;}
	.st547{fill:#F5D2A5;}
	.st548{fill:#FBE2C2;}
	.st549{fill:#F5D1A8;}
	.st550{fill:#F8D5AB;}
	.st551{fill:#F2C695;}
	.st552{fill:#F8D3A8;}
	.st553{fill:#F5C998;}
	.st554{fill:#F5C894;}
	.st555{fill:#F2C997;}
	.st556{fill:#F2C48D;}
	.st557{fill:#F4C694;}
	.st558{fill:#F5CE9D;}
	.st559{fill:#F4C594;}
	.st560{fill:#F5C995;}
	.st561{fill:#F4C48F;}
	.st562{fill:#F7D2A6;}
	.st563{fill:#F8DFBB;}
	.st564{fill:#FBE2C3;}
	.st565{fill:#F8CC9E;}
	.st566{fill:#FADFC1;}
	.st567{fill:#F9D8B5;}
	.st568{fill:#F4C997;}
	.st569{fill:#F9DDB8;}
	.st570{fill:#FDFCED;}
	.st571{fill:#FBF7D2;}
	.st572{fill:#F9F6CB;}
	.st573{fill:#F4EBA8;}
	.st574{fill:#F5E9A6;}
	.st575{fill:#F5EDAC;}
	.st576{fill:#F7F5C0;}
	.st577{fill:#FBFBE1;}
	.st578{fill:#F7F0BE;}
	.st579{fill:#FAF6CE;}
	.st580{fill:#FFFBF5;}
	.st581{fill:#BDDB97;}
	.st582{fill:#BBDC99;}
	.st583{fill:#BDDD99;}
	.st584{fill:#B0D484;}
	.st585{fill:#AFD484;}
	.st586{fill:#FFEA87;}
	.st587{fill:#D3E9BA;}
	.st588{fill:#E1EECE;}
	.st589{fill:#D3E8BB;}
	.st590{fill:#E3EECE;}
	.st591{opacity:0.9;}
	.st592{fill:#FFF8CD;}
	.st593{opacity:0.9;fill:#FFEE8A;}
	.st594{fill:#FFF19E;}
	.st595{fill:#FFF5B6;}
	.st596{fill:#FFFBE0;}
	.st597{fill:none;stroke:#FFF4B1;stroke-width:0;}
	.st598{fill:#FFFDF3;}
	.st599{fill:#FACEDD;}
	.st600{opacity:0.9;fill:#F38CAF;}
	.st601{fill:#F5A0BD;}
	.st602{fill:#F8B8CD;}
	.st603{fill:#FCE1EA;}
	.st604{fill:none;stroke:#F7B2C9;stroke-width:0;}
	.st605{fill:#FEF3F7;}
	.st606{fill:#FBDBB6;}
	.st607{fill:#FBD1A3;}
	.st608{fill:#F9B674;}
	.st609{fill:#F8B36E;}
	.st610{fill:#FABB7E;}
	.st611{fill:#FACB99;}
	.st612{fill:#FDE9D1;}
	.st613{fill:#FAC893;}
	.st614{fill:#F9D0A1;}
	.st615{fill:#FFF5EC;}
	.st616{fill:#D7ECC0;}
	.st617{fill:#B1D684;}
	.st618{fill:#ADD680;}
	.st619{fill:#B7D98D;}
	.st620{fill:#C8E2A7;}
	.st621{fill:#E8F2D6;}
	.st622{fill:#C3E0A0;}
	.st623{fill:#F5FAEF;}
	.st624{fill:#A87699;}
	.st625{fill:#A9716E;}
	.st626{fill:#9F698A;}
	.st627{fill:#9F698D;}
	.st628{fill:#65294F;}
	.st629{fill:#632638;}
	.st630{fill:#62244A;}
	.st631{fill:#612335;}
	.st632{fill:#6E3259;}
	.st633{fill:#6D2F40;}
	.st634{fill:#8B4E74;}
	.st635{fill:#C4A1BB;}
	.st636{fill:#9D688D;}
	.st637{fill:#82476E;}
	.st638{fill:#E7D6E1;}
	.st639{fill:#FFF9D6;}
	.st640{fill:#FFF2A6;}
	.st641{fill:#FFF4B0;}
	.st642{fill:#FFF7C4;}
	.st643{fill:#FFFCE6;}
	.st644{fill:#FFF3B5;}
	.st645{fill:#FFED8B;}
	.st646{fill:#FFED94;}
	.st647{fill:#FFF1A4;}
	.st648{fill:#FFF5BF;}
	.st649{fill:#FFF6CD;}
	.st650{fill:#FFE46E;}
	.st651{fill:#FFED98;}
	.st652{fill:#FFF3A9;}
	.st653{fill:#FFEC8D;}
	.st654{fill:#FFE66B;}
	.st655{fill:#FFEC8A;}
	.st656{fill:#FFE66D;}
	.st657{fill:#FFE571;}
	.st658{fill:#FFEF94;}
	.st659{fill:#FFEF9E;}
	.st660{fill:#FFED93;}
	.st661{fill:#FFE873;}
	.st662{fill:#FFE97A;}
	.st663{fill:#FFEC87;}
	.st664{fill:#FFF19F;}
	.st665{fill:#FFF1A8;}
	.st666{fill:#FFEA7E;}
	.st667{fill:#FFEB86;}
	.st668{fill:#FFEF97;}
	.st669{fill:#FFF2B0;}
	.st670{fill:#FFF4BC;}
	.st671{fill:#FFF5C1;}
	.st672{fill:#FFF8CF;}
	.st673{fill:#FFF8DC;}
	.st674{fill:#FFF0A0;}
	.st675{fill:#FFEE92;}
	.st676{fill:#FFF6CE;}
	.st677{fill:#FFFADD;}
	.st678{fill:#FFFBEC;}
	.st679{fill:#FFFDF5;}
	.st680{fill:#F49C52;}
	.st681{fill:#F69D52;}
	.st682{fill:#F8A55E;}
	.st683{fill:#F8B472;}
	.st684{fill:#F59D54;}
	.st685{fill:#F8A65F;}
	.st686{fill:#F8B474;}
	.st687{fill:#FDF3E9;}
	.st688{fill:#FAE8D1;}
	.st689{fill:#FAE8CF;}
	.st690{fill:#FAEBD4;}
	.st691{fill:#F9EDD7;}
	.st692{fill:#FBEFDE;}
	.st693{fill:#FBEFDD;}
	.st694{fill:#FDF8F1;}
	.st695{fill:#FBEDD7;}
	.st696{fill:#FBEFDC;}
	.st697{fill:#FFFBFA;}
	.st698{fill:#FFE771;}
	.st699{fill:#FFEB83;}
	.st700{fill:#FFED90;}
	.st701{fill:#F7B6CB;}
	.st702{fill:#F4A2BB;}
	.st703{fill:#EE7397;}
	.st704{fill:#ED6D94;}
	.st705{fill:#EF7C9F;}
	.st706{fill:#F399B5;}
	.st707{fill:#FAD1DE;}
	.st708{fill:#F291AE;}
	.st709{fill:#F3A1BB;}
	.st710{fill:#FDECF2;}
</style>
<g>
	<g>
		<g>
			<g class="st591">
				<g class="st591">
					<path class="st592" d="M99.28,57.67c-0.82-0.62-1.61-0.93-2.32-1.08c-0.73-0.15-1.42-0.16-2.02-0.09
						c-1.17,0.16-2.15,0.47-2.63,0.24c-0.45-0.15-0.82-0.11-1.13,0.08c-0.33,0.17-0.61,0.47-0.84,0.89
						c-0.45,0.88-0.89,2.01-1.27,3.3c-0.22,0.62-0.44,1.22-0.64,1.77c-0.11,0.29-0.21,0.56-0.31,0.82
						c-0.11,0.24-0.21,0.46-0.32,0.66c-0.41,0.8-0.75,1.22-0.95,0.8c-0.53-1.22-2.51-4.41-4.27-7.53c-1.78-3.09-3.28-6-3.54-6.2
						c-0.71-0.59-1.01-0.37-1.16,0.61c-0.17,0.88-0.12,2.56-0.22,4.7c-0.15,1.88-0.07,3.16-0.4,2.81c-0.06-0.02,0.03,1.17,0.05,2.69
						c0.03,1.53-0.05,3.38-0.41,4.7c-0.54,1.66-1.64,1.12-2.23,3.04c-0.62,1.4-2.15,2.84-3.88,4.08c-1.72,1.24-3.62,2.29-4.6,3.06
						c-3.74,2.89-5.72,3.34-8.43,1.5c-1.97-1.84-3.75-0.71-5.7-1.66c-2.02-0.75-3.56-0.51-5.39-1.44c-1.44-1.68-2.62-2.76-4.19-3.4
						c-0.29,0.04-0.58,0.07-0.96,0.4c-0.38,0.32-0.71-0.07-1.02-0.03c-0.43-0.78-0.59-1.87-0.73-2.86
						c-0.14-0.99-0.33-1.79-0.97-2.05c-0.34-0.15-1.47,0.31-2.1,1.22c-3.12,4.61-4.68,8.87-5.18,13.08
						c-0.23,1.97,0.28,3.28,1.01,4.41c0.79,1.06,1.78,1.93,2.86,2.88c0.74,0.66,1.29,1.6,1.74,2.71c0.44,1.12,0.79,2.52,1.06,3.98
						c0.54,2.97,0.86,6.56,1.09,10c0.09,2.66,0.02,6.04,0.46,8.79c0.22,1.37,0.58,2.6,1.16,3.52c0.59,0.93,1.38,1.53,2.4,1.61
						c2.48,0.07,4.81-0.83,6.99-1.38c2.18-0.56,4.18-0.79,6.18,0.58c1.36,1.04,2.65,2.05,3.86,2.89c0.62,0.42,1.25,0.82,1.89,1.16
						c0.62,0.34,1.27,0.62,1.96,0.85c0.42,0.36,1.85,1.25,2.35,1.37c1.48-0.32,3.19-0.02,4.84-0.27c1.64-0.25,3.24-1.06,4.3-3.55
						c3.7-1.85,6.08-0.08,8.97-3.9c3.58-5.1,6.71-10.99,10.77-13.61c2.33-1.57,4.5-2.57,7.18-2.87c0.45-0.11,1.87,0.53,3.45,1.28
						c1.61,0.79,3.31,1.62,4.13,2.03c1.51,0.73,2.72,0.29,3.6-0.67c0.44-0.48,0.8-1.08,1.07-1.74c0.26-0.68,0.44-1.4,0.56-2.09
						c0.34-4.97,1.03-8.78,2.27-12.42c0.68-0.98,2.35-0.73,3.34-1.62c0.88-1.34,1.1-3,1.18-4.64c0.08-1.64-0.09-3.37,0.14-4.82
						c1.96-4.49,1.91-6.86,1.64-8.07c-0.28-1.21-0.83-1.31-0.58-1.36c0.42-0.77,2.99,0.41,4.02-0.35c1.08-1.21,0.56-3.27-0.5-4.9
						c-1.35-2.31-2.64-4.57-3.38-6.53c-0.35-0.98-0.5-1.86-0.35-2.65c0.11-0.8,0.51-1.5,1.35-2.11c-0.63,0.02-1.43-0.15-1.55,0.04
						c-0.57,0.41-1.17,0.78-1.78,1.12c-0.62,0.34-1.3,0.62-1.96,0.9c-1.34,0.54-2.59,1.01-3.86,1.43c-1.25,0.43-2.31,0.88-3.23,1.42
						c-0.94,0.53-1.59,1.2-1.99,2.12c0.14,0.53,0.4,1.29,0.24,1.75c-0.46,0.71-0.64,1.52-0.9,2.29c-0.37,0.57-2.25,0.29-4.37-0.52
						C103.03,60.06,100.71,58.76,99.28,57.67z"/>
					<path class="st593" d="M35.52,89.01c-1.07-0.95-2.07-1.82-2.86-2.87c-0.74-1.12-1.23-2.44-1.01-4.4
						c0.5-4.21,2.05-8.47,5.17-13.08c0.63-0.92,1.75-1.38,2.09-1.23c0.64,0.26,0.83,1.05,0.97,2.04c0.14,0.98,0.29,2.08,0.73,2.85
						c0.3-0.03,0.65,0.35,1.02,0.03c0.37-0.33,0.66-0.36,0.95-0.41c1.56,0.64,2.74,1.71,4.18,3.39c1.81,0.93,3.37,0.68,5.38,1.44
						c1.95,0.94,3.73-0.19,5.69,1.65c2.71,1.83,4.68,1.38,8.42-1.51c0.99-0.76,2.88-1.81,4.6-3.06c1.73-1.24,3.26-2.68,3.87-4.08
						c0.59-1.92,1.68-1.38,2.22-3.04c0,0,0.19,0.49,0.61,1.38c0.42,0.89,1.04,2.17,1.96,3.75c-1.72,3.74-4.19,7.4-7.02,10.92
						c-2.85,3.52-5.96,6.92-9.21,10.27c-4.39,0.11-8.91,0.03-13.55-0.49C45.08,91.98,40.28,91.02,35.52,89.01z"/>
					<path class="st594" d="M77.62,71.47c0,0,0.32-0.66,0.77-1.49c0.44-0.83,0.99-1.82,1.51-2.5c0.53-0.67,0.99-1.06,1.55-0.58
						c0.54,0.47,1.16,1.76,1.75,4.37c0,0,0.18,1.66,0.26,4.2c0.08,2.54,0.03,6.02-0.44,9.5c-0.45,3.49-1.28,7.04-2.4,9.76
						c-1.11,2.72-2.49,4.63-3.84,4.88c0,0-0.96,0.18-2.18,0.41c-1.21,0.24-2.65,0.54-3.62,0.85c0,0-0.91-1.06-2.26-1.79
						c-1.37-0.73-3.06-1.13-5.04,0.21c0,0-3.88,1.65-8.35,2.5c-2.22,0.44-4.59,0.64-6.46,0.47c-1.88-0.19-3.22-0.73-3.35-1.71
						c0,0-0.44-0.21-1.12-0.59c-0.68-0.37-1.58-0.89-2.53-1.58c-0.94-0.67-1.89-1.45-2.67-2.32c-0.77-0.85-1.35-1.71-1.55-2.56
						c0,0-0.04-2.04-0.35-4.08c-0.16-1-0.37-2.09-0.73-2.89c-0.36-0.81-0.86-1.38-1.59-1.55c0,0-0.26-0.7-0.54-1.71
						c-0.27-1.02-0.5-2.42-0.55-3.7c-0.07-2.66,0.68-4.98,2.43-4.42c0,0,0.16-0.01,0.43-0.04c0.26-0.03,0.63-0.07,1.03-0.11
						c0.4-0.04,0.82-0.07,1.2-0.1c0.4-0.04,0.77-0.07,1.04-0.05c0,0,0.66,0.63,1.73,1.46c1.05,0.86,2.62,1.94,4.37,2.99
						c3.47,2.13,7.71,4,8.06,5.23c0,0,0.27,0.17,0.77,0.44c0.5,0.27,1.22,0.61,2.13,0.93c1.81,0.67,4.38,1.25,7.16,1.04
						c2.77-0.2,5.8-1.15,8.34-3.54C75.11,81.04,77.07,77.2,77.62,71.47z"/>
					<path class="st595" d="M77.44,68.53c0,0,0.59-3.11,1.19-5.19c0.15-0.52,0.32-0.98,0.5-1.31c0.16-0.34,0.35-0.56,0.58-0.58
						c0.46-0.06,1.11,0.73,2.13,2.61c0,0,0.5,0.54,1.25,1.34c0.78,0.84,1.88,2.04,3.09,3.31c1.21,1.3,2.55,2.77,3.65,4.32
						c1.1,1.54,1.96,3.19,2.08,4.9c0,0,0.15,1.66,0.07,4.31c-0.07,2.68-0.46,6.22-1.55,10.03c-0.54,1.91-1.29,3.76-2.2,5.62
						c-0.92,1.86-2.01,3.59-3.22,5.12c-2.42,3.06-5.36,5.28-8.19,5.85c0,0-0.31,0.02-0.87,0.56c-0.56,0.54-1.37,1.59-2.42,3.65
						c0,0-1.48,1.13-3.27,1.55c-1.78,0.42-3.8,0.14-4.95-2.57c0,0-0.42-0.46-1.12-1.13c-0.7-0.67-1.63-1.54-2.7-2.4
						c-1.05-0.85-2.2-1.67-3.3-2.22c-1.08-0.53-2.13-0.81-2.96-0.52c0,0-0.57-1.12-1.38-2.04c-0.82-0.93-1.84-1.61-2.88-0.74
						c0,0,4.51-1.54,9.2-3.15c4.44-1.45,8.65-2.48,9.75,0.02c0,0,1.85,1.52,4.72,0.49c1.42-0.51,3.08-1.67,4.66-3.98
						c1.57-2.31,3.07-5.78,3.84-10.82c0,0-0.05-0.91-0.22-2.3c-0.17-1.39-0.48-3.27-0.95-5.22C81.02,74.12,79.54,69.93,77.44,68.53z
						"/>
					<path class="st596" d="M77.36,53.67c-0.1-1.93-0.45-4.31-0.68-5.86c-0.07-0.63,0.17-0.5,0.19-0.87
						c0.07-0.33,0.62,0.65,1.02,1.21c0.57,0.97,1.12,1.67,1.67,2.26c0.55,0.58,1.08,0.95,1.67,1.4c0.31,0.23,0.62,0.47,0.93,0.7
						c0.32,0.23,0.66,0.48,1.02,0.78c0.73,0.59,1.58,1.37,2.61,2.44c0.51,0.43,0.83,0.63,1.07,0.61c-0.08-0.23-0.12-0.7-0.2-0.92
						c0.22-0.26,0.53-0.37,0.78-0.56c0.25-0.19,0.48-0.41,0.58-0.77c0.08-0.69,0.64-0.74,1.53-0.48c0.9,0.27,2.16,0.89,3.43,1.44
						c1.34,0.53,2.58,0.65,3.85,0.82c2.2,0.3,7.31,4.36,9.07,3.75c0.8-0.16,1.3-0.56,1.58-1.09c0.26-0.54,0.35-1.19,0.41-1.83
						c0.03-0.32,0.06-0.64,0.11-0.95c0.03-0.32,0.07-0.63,0.15-0.91c0.16-0.57,0.48-1.05,1.15-1.38c0.9-0.32,1.62-0.73,2.46-1.08
						c0.41-0.18,0.87-0.35,1.35-0.52c0.47-0.17,0.99-0.33,1.6-0.46c1.09-0.13,2.03-0.38,2.96-0.69c0.92-0.31,1.76-0.69,2.77-1.04
						c0.42-0.17,2.9-0.23,3.4-0.07c0.68,0.35,0,0.95,0.26,1.52c0.28,0.77-0.37,1.08-1.27,1.21c-0.92,0.12-2.08,0.07-2.83,0.21
						c-1.63,0.43-1.41,1.88-2.3,2.83c-0.59,0.28-1.34,0.34-2.37,0.33c-1.6-0.11-1.15,1.13-1.14,2.21c0.32,1.53-2.27,1.35-2.75,2.4
						c-0.39,0.67-0.13,1.74-0.04,2.69c0.1,0.95,0.04,1.8-0.94,1.88c1.87,0.02-3.02,4.06-2.7,2.59c0.09,0.24-1.01-0.32-1.64-0.85
						c-0.36-0.38-0.99-0.9-1.09-1.14c-0.77-1.88-3.17-4.01-4.9-5.95c-0.12-0.06-0.72,0.26-1.54,0.49c-0.41,0.11-0.87,0.2-1.37,0.2
						c-0.51-0.02-1.05-0.14-1.59-0.41c-1.78-0.97-3.5-2.16-4.33-2.01c-0.05,0.25,0.67,1.32,0.62,1.59
						c-0.09,0.08-0.02,0.87,0.05,2.05c0.04,1.12,0.08,2.65,0,4.21c-0.1,1.49-0.3,3.04-0.58,4.18c-0.29,1.09-0.63,1.81-0.9,1.72
						c-0.76-0.41-2.04-1.8-2.46-3.03c-1.44-3.38-2.79-4.62-4.17-7.35c-0.35-0.74-0.62-1.7-0.98-2.45c-1.03-1.98-2.26-4.27-2.68-4.59
						c-0.95-1.12-1.51-1.45-1.65-0.56C78.13,53.6,77.74,53.6,77.36,53.67z"/>
					<path class="st597" d="M46.96,119.17c0,0,0.47-0.26,1.25-0.54c0.39-0.14,0.86-0.29,1.39-0.42c0.51-0.14,1.08-0.26,1.69-0.32
						c2.48-0.24,5.39,0.21,8.22,3.42c0,0,1.18,0.8,2.52,1.55c1.28,0.73,2.74,1.41,3.22,1.19c0.48,0.38,0.94,0.77,1.44,1.15
						c0,0,1.75,0.2,3.84-0.18c2.06-0.37,4.48-1.37,5.09-3.55c0,0,0.25-0.11,0.62-0.27c0.37-0.16,0.88-0.37,1.42-0.56
						c1.06-0.37,2.26-0.69,2.62-0.32c0,0,0.86,0.05,2.17-0.77c1.3-0.81,3.1-2.51,4.67-5.98"/>
					<path class="st598" d="M87.21,51.73c0.36,0.08,1.61,0.54,3.09,1.01c1.43,0.44,3.2,0.97,4.28,1.45c1.64,0.7,3.32,1.34,5.11,1.95
						c1.74,0.57,3.57,1.1,5.56,1.59c0.29,0.01,0.49-0.12,0.31-0.4c-1.26-2.03,0.65-2.12,0.17-3.47c-0.14-0.54-0.79-1.3-0.46-1.57
						c0.93-0.71,2.14-1.23,3.82-1.63c1.65-0.41,3.56-0.77,5.83-1.13c1.9-0.3,4.41-0.36,6.72-0.79c0.62-0.02,1.32-0.17,1.99,0.04
						c0.54,0.1,0.09,0.5,0.2,0.81c-0.43,0.21-1.26,0.23-1.83,0.48c-1.28,0.37-1.58,1.23-3.02,1.39c-1.29,0.28-2.8,0.27-3.93,0.58
						c-0.64,0.26-1.1,0.52-1.46,0.89c-0.89,0.56-1.59,1.16-2.22,1.78c-0.65,0.61-1.15,1.29-1.49,2.07c1.25,1.57-0.54,1.72-1.03,2.32
						c-0.2,0.16-0.67,0.11-1.07,0.17c-0.62,0.42-0.43,1.52-1.83,1.04c-3.03-1.19-5.82-2.41-8.14-3.26
						c-0.93-0.33-2.91-0.86-4.58-1.33c-1.72-0.5-3.26-1.06-3.72-1.1c-0.71-0.16-1.03,0.09-1.3,0.44c-0.13,0.17-0.26,0.36-0.41,0.51
						c-0.16,0.13-0.36,0.21-0.62,0.2c-0.02,0-0.17-0.27-0.35-0.67c-0.18-0.4-0.39-0.93-0.53-1.44
						C85.99,52.58,85.95,51.63,87.21,51.73z"/>
				</g>
			</g>
		</g>
	</g>
</g>
<g>
	<g>
		<g>
			<g class="st591">
				<g class="st591">
					<path class="st592" d="M99.28,57.67c-0.82-0.62-1.61-0.93-2.32-1.08c-0.73-0.15-1.42-0.16-2.02-0.09
						c-1.17,0.16-2.15,0.47-2.63,0.24c-0.45-0.15-0.82-0.11-1.13,0.08c-0.33,0.17-0.61,0.47-0.84,0.89
						c-0.45,0.88-0.89,2.01-1.27,3.3c-0.22,0.62-0.44,1.22-0.64,1.77c-0.11,0.29-0.21,0.56-0.31,0.82
						c-0.11,0.24-0.21,0.46-0.32,0.66c-0.41,0.8-0.75,1.22-0.95,0.8c-0.53-1.22-2.51-4.41-4.27-7.53c-1.78-3.09-3.28-6-3.54-6.2
						c-0.71-0.59-1.01-0.37-1.16,0.61c-0.17,0.88-0.12,2.56-0.22,4.7c-0.15,1.88-0.07,3.16-0.4,2.81c-0.06-0.02,0.03,1.17,0.05,2.69
						c0.03,1.53-0.05,3.38-0.41,4.7c-0.54,1.66-1.64,1.12-2.23,3.04c-0.62,1.4-2.15,2.84-3.88,4.08c-1.72,1.24-3.62,2.29-4.6,3.06
						c-3.74,2.89-5.72,3.34-8.43,1.5c-1.97-1.84-3.75-0.71-5.7-1.66c-2.02-0.75-3.56-0.51-5.39-1.44c-1.44-1.68-2.62-2.76-4.19-3.4
						c-0.29,0.04-0.58,0.07-0.96,0.4c-0.38,0.32-0.71-0.07-1.02-0.03c-0.43-0.78-0.59-1.87-0.73-2.86
						c-0.14-0.99-0.33-1.79-0.97-2.05c-0.34-0.15-1.47,0.31-2.1,1.22c-3.12,4.61-4.68,8.87-5.18,13.08
						c-0.23,1.97,0.28,3.28,1.01,4.41c0.79,1.06,1.78,1.93,2.86,2.88c0.74,0.66,1.29,1.6,1.74,2.71c0.44,1.12,0.79,2.52,1.06,3.98
						c0.54,2.97,0.86,6.56,1.09,10c0.09,2.66,0.02,6.04,0.46,8.79c0.22,1.37,0.58,2.6,1.16,3.52c0.59,0.93,1.38,1.53,2.4,1.61
						c2.48,0.07,4.81-0.83,6.99-1.38c2.18-0.56,4.18-0.79,6.18,0.58c1.36,1.04,2.65,2.05,3.86,2.89c0.62,0.42,1.25,0.82,1.89,1.16
						c0.62,0.34,1.27,0.62,1.96,0.85c0.42,0.36,1.85,1.25,2.35,1.37c1.48-0.32,3.19-0.02,4.84-0.27c1.64-0.25,3.24-1.06,4.3-3.55
						c3.7-1.85,6.08-0.08,8.97-3.9c3.58-5.1,6.71-10.99,10.77-13.61c2.33-1.57,4.5-2.57,7.18-2.87c0.45-0.11,1.87,0.53,3.45,1.28
						c1.61,0.79,3.31,1.62,4.13,2.03c1.51,0.73,2.72,0.29,3.6-0.67c0.44-0.48,0.8-1.08,1.07-1.74c0.26-0.68,0.44-1.4,0.56-2.09
						c0.34-4.97,1.03-8.78,2.27-12.42c0.68-0.98,2.35-0.73,3.34-1.62c0.88-1.34,1.1-3,1.18-4.64c0.08-1.64-0.09-3.37,0.14-4.82
						c1.96-4.49,1.91-6.86,1.64-8.07c-0.28-1.21-0.83-1.31-0.58-1.36c0.42-0.77,2.99,0.41,4.02-0.35c1.08-1.21,0.56-3.27-0.5-4.9
						c-1.35-2.31-2.64-4.57-3.38-6.53c-0.35-0.98-0.5-1.86-0.35-2.65c0.11-0.8,0.51-1.5,1.35-2.11c-0.63,0.02-1.43-0.15-1.55,0.04
						c-0.57,0.41-1.17,0.78-1.78,1.12c-0.62,0.34-1.3,0.62-1.96,0.9c-1.34,0.54-2.59,1.01-3.86,1.43c-1.25,0.43-2.31,0.88-3.23,1.42
						c-0.94,0.53-1.59,1.2-1.99,2.12c0.14,0.53,0.4,1.29,0.24,1.75c-0.46,0.71-0.64,1.52-0.9,2.29c-0.37,0.57-2.25,0.29-4.37-0.52
						C103.03,60.06,100.71,58.76,99.28,57.67z"/>
					<path class="st593" d="M35.52,89.01c-1.07-0.95-2.07-1.82-2.86-2.87c-0.74-1.12-1.23-2.44-1.01-4.4
						c0.5-4.21,2.05-8.47,5.17-13.08c0.63-0.92,1.75-1.38,2.09-1.23c0.64,0.26,0.83,1.05,0.97,2.04c0.14,0.98,0.29,2.08,0.73,2.85
						c0.3-0.03,0.65,0.35,1.02,0.03c0.37-0.33,0.66-0.36,0.95-0.41c1.56,0.64,2.74,1.71,4.18,3.39c1.81,0.93,3.37,0.68,5.38,1.44
						c1.95,0.94,3.73-0.19,5.69,1.65c2.71,1.83,4.68,1.38,8.42-1.51c0.99-0.76,2.88-1.81,4.6-3.06c1.73-1.24,3.26-2.68,3.87-4.08
						c0.59-1.92,1.68-1.38,2.22-3.04c0,0,0.19,0.49,0.61,1.38c0.42,0.89,1.04,2.17,1.96,3.75c-1.72,3.74-4.19,7.4-7.02,10.92
						c-2.85,3.52-5.96,6.92-9.21,10.27c-4.39,0.11-8.91,0.03-13.55-0.49C45.08,91.98,40.28,91.02,35.52,89.01z"/>
					<path class="st594" d="M77.62,71.47c0,0,0.32-0.66,0.77-1.49c0.44-0.83,0.99-1.82,1.51-2.5c0.53-0.67,0.99-1.06,1.55-0.58
						c0.54,0.47,1.16,1.76,1.75,4.37c0,0,0.18,1.66,0.26,4.2c0.08,2.54,0.03,6.02-0.44,9.5c-0.45,3.49-1.28,7.04-2.4,9.76
						c-1.11,2.72-2.49,4.63-3.84,4.88c0,0-0.96,0.18-2.18,0.41c-1.21,0.24-2.65,0.54-3.62,0.85c0,0-0.91-1.06-2.26-1.79
						c-1.37-0.73-3.06-1.13-5.04,0.21c0,0-3.88,1.65-8.35,2.5c-2.22,0.44-4.59,0.64-6.46,0.47c-1.88-0.19-3.22-0.73-3.35-1.71
						c0,0-0.44-0.21-1.12-0.59c-0.68-0.37-1.58-0.89-2.53-1.58c-0.94-0.67-1.89-1.45-2.67-2.32c-0.77-0.85-1.35-1.71-1.55-2.56
						c0,0-0.04-2.04-0.35-4.08c-0.16-1-0.37-2.09-0.73-2.89c-0.36-0.81-0.86-1.38-1.59-1.55c0,0-0.26-0.7-0.54-1.71
						c-0.27-1.02-0.5-2.42-0.55-3.7c-0.07-2.66,0.68-4.98,2.43-4.42c0,0,0.16-0.01,0.43-0.04c0.26-0.03,0.63-0.07,1.03-0.11
						c0.4-0.04,0.82-0.07,1.2-0.1c0.4-0.04,0.77-0.07,1.04-0.05c0,0,0.66,0.63,1.73,1.46c1.05,0.86,2.62,1.94,4.37,2.99
						c3.47,2.13,7.71,4,8.06,5.23c0,0,0.27,0.17,0.77,0.44c0.5,0.27,1.22,0.61,2.13,0.93c1.81,0.67,4.38,1.25,7.16,1.04
						c2.77-0.2,5.8-1.15,8.34-3.54C75.11,81.04,77.07,77.2,77.62,71.47z"/>
					<path class="st595" d="M77.44,68.53c0,0,0.59-3.11,1.19-5.19c0.15-0.52,0.32-0.98,0.5-1.31c0.16-0.34,0.35-0.56,0.58-0.58
						c0.46-0.06,1.11,0.73,2.13,2.61c0,0,0.5,0.54,1.25,1.34c0.78,0.84,1.88,2.04,3.09,3.31c1.21,1.3,2.55,2.77,3.65,4.32
						c1.1,1.54,1.96,3.19,2.08,4.9c0,0,0.15,1.66,0.07,4.31c-0.07,2.68-0.46,6.22-1.55,10.03c-0.54,1.91-1.29,3.76-2.2,5.62
						c-0.92,1.86-2.01,3.59-3.22,5.12c-2.42,3.06-5.36,5.28-8.19,5.85c0,0-0.31,0.02-0.87,0.56c-0.56,0.54-1.37,1.59-2.42,3.65
						c0,0-1.48,1.13-3.27,1.55c-1.78,0.42-3.8,0.14-4.95-2.57c0,0-0.42-0.46-1.12-1.13c-0.7-0.67-1.63-1.54-2.7-2.4
						c-1.05-0.85-2.2-1.67-3.3-2.22c-1.08-0.53-2.13-0.81-2.96-0.52c0,0-0.57-1.12-1.38-2.04c-0.82-0.93-1.84-1.61-2.88-0.74
						c0,0,4.51-1.54,9.2-3.15c4.44-1.45,8.65-2.48,9.75,0.02c0,0,1.85,1.52,4.72,0.49c1.42-0.51,3.08-1.67,4.66-3.98
						c1.57-2.31,3.07-5.78,3.84-10.82c0,0-0.05-0.91-0.22-2.3c-0.17-1.39-0.48-3.27-0.95-5.22C81.02,74.12,79.54,69.93,77.44,68.53z
						"/>
					<path class="st596" d="M77.36,53.67c-0.1-1.93-0.45-4.31-0.68-5.86c-0.07-0.63,0.17-0.5,0.19-0.87
						c0.07-0.33,0.62,0.65,1.02,1.21c0.57,0.97,1.12,1.67,1.67,2.26c0.55,0.58,1.08,0.95,1.67,1.4c0.31,0.23,0.62,0.47,0.93,0.7
						c0.32,0.23,0.66,0.48,1.02,0.78c0.73,0.59,1.58,1.37,2.61,2.44c0.51,0.43,0.83,0.63,1.07,0.61c-0.08-0.23-0.12-0.7-0.2-0.92
						c0.22-0.26,0.53-0.37,0.78-0.56c0.25-0.19,0.48-0.41,0.58-0.77c0.08-0.69,0.64-0.74,1.53-0.48c0.9,0.27,2.16,0.89,3.43,1.44
						c1.34,0.53,2.58,0.65,3.85,0.82c2.2,0.3,7.31,4.36,9.07,3.75c0.8-0.16,1.3-0.56,1.58-1.09c0.26-0.54,0.35-1.19,0.41-1.83
						c0.03-0.32,0.06-0.64,0.11-0.95c0.03-0.32,0.07-0.63,0.15-0.91c0.16-0.57,0.48-1.05,1.15-1.38c0.9-0.32,1.62-0.73,2.46-1.08
						c0.41-0.18,0.87-0.35,1.35-0.52c0.47-0.17,0.99-0.33,1.6-0.46c1.09-0.13,2.03-0.38,2.96-0.69c0.92-0.31,1.76-0.69,2.77-1.04
						c0.42-0.17,2.9-0.23,3.4-0.07c0.68,0.35,0,0.95,0.26,1.52c0.28,0.77-0.37,1.08-1.27,1.21c-0.92,0.12-2.08,0.07-2.83,0.21
						c-1.63,0.43-1.41,1.88-2.3,2.83c-0.59,0.28-1.34,0.34-2.37,0.33c-1.6-0.11-1.15,1.13-1.14,2.21c0.32,1.53-2.27,1.35-2.75,2.4
						c-0.39,0.67-0.13,1.74-0.04,2.69c0.1,0.95,0.04,1.8-0.94,1.88c1.87,0.02-3.02,4.06-2.7,2.59c0.09,0.24-1.01-0.32-1.64-0.85
						c-0.36-0.38-0.99-0.9-1.09-1.14c-0.77-1.88-3.17-4.01-4.9-5.95c-0.12-0.06-0.72,0.26-1.54,0.49c-0.41,0.11-0.87,0.2-1.37,0.2
						c-0.51-0.02-1.05-0.14-1.59-0.41c-1.78-0.97-3.5-2.16-4.33-2.01c-0.05,0.25,0.67,1.32,0.62,1.59
						c-0.09,0.08-0.02,0.87,0.05,2.05c0.04,1.12,0.08,2.65,0,4.21c-0.1,1.49-0.3,3.04-0.58,4.18c-0.29,1.09-0.63,1.81-0.9,1.72
						c-0.76-0.41-2.04-1.8-2.46-3.03c-1.44-3.38-2.79-4.62-4.17-7.35c-0.35-0.74-0.62-1.7-0.98-2.45c-1.03-1.98-2.26-4.27-2.68-4.59
						c-0.95-1.12-1.51-1.45-1.65-0.56C78.13,53.6,77.74,53.6,77.36,53.67z"/>
					<path class="st597" d="M46.96,119.17c0,0,0.47-0.26,1.25-0.54c0.39-0.14,0.86-0.29,1.39-0.42c0.51-0.14,1.08-0.26,1.69-0.32
						c2.48-0.24,5.39,0.21,8.22,3.42c0,0,1.18,0.8,2.52,1.55c1.28,0.73,2.74,1.41,3.22,1.19c0.48,0.38,0.94,0.77,1.44,1.15
						c0,0,1.75,0.2,3.84-0.18c2.06-0.37,4.48-1.37,5.09-3.55c0,0,0.25-0.11,0.62-0.27c0.37-0.16,0.88-0.37,1.42-0.56
						c1.06-0.37,2.26-0.69,2.62-0.32c0,0,0.86,0.05,2.17-0.77c1.3-0.81,3.1-2.51,4.67-5.98"/>
					<path class="st598" d="M87.21,51.73c0.36,0.08,1.61,0.54,3.09,1.01c1.43,0.44,3.2,0.97,4.28,1.45c1.64,0.7,3.32,1.34,5.11,1.95
						c1.74,0.57,3.57,1.1,5.56,1.59c0.29,0.01,0.49-0.12,0.31-0.4c-1.26-2.03,0.65-2.12,0.17-3.47c-0.14-0.54-0.79-1.3-0.46-1.57
						c0.93-0.71,2.14-1.23,3.82-1.63c1.65-0.41,3.56-0.77,5.83-1.13c1.9-0.3,4.41-0.36,6.72-0.79c0.62-0.02,1.32-0.17,1.99,0.04
						c0.54,0.1,0.09,0.5,0.2,0.81c-0.43,0.21-1.26,0.23-1.83,0.48c-1.28,0.37-1.58,1.23-3.02,1.39c-1.29,0.28-2.8,0.27-3.93,0.58
						c-0.64,0.26-1.1,0.52-1.46,0.89c-0.89,0.56-1.59,1.16-2.22,1.78c-0.65,0.61-1.15,1.29-1.49,2.07c1.25,1.57-0.54,1.72-1.03,2.32
						c-0.2,0.16-0.67,0.11-1.07,0.17c-0.62,0.42-0.43,1.52-1.83,1.04c-3.03-1.19-5.82-2.41-8.14-3.26
						c-0.93-0.33-2.91-0.86-4.58-1.33c-1.72-0.5-3.26-1.06-3.72-1.1c-0.71-0.16-1.03,0.09-1.3,0.44c-0.13,0.17-0.26,0.36-0.41,0.51
						c-0.16,0.13-0.36,0.21-0.62,0.2c-0.02,0-0.17-0.27-0.35-0.67c-0.18-0.4-0.39-0.93-0.53-1.44
						C85.99,52.58,85.95,51.63,87.21,51.73z"/>
				</g>
			</g>
		</g>
	</g>
</g>
<path d="M17.31,79.52c1.54-1.46,2.86-2.48,3.89-3.74c2.6-3.19,3.49-3.39,6.47-0.52c1.9,1.83,4.02,2.78,6.71,3.02
	c0.8-4.47,0.09-8.64-1.67-12.91c2.02-0.51,3.62-0.91,5.32-1.34c0.6,0.5,1.39,0.88,1.76,1.51c3.1,5.19,8.32,6.66,13.66,7.3
	c5.16,0.62,10.36,1.42,15.63,0.4c8.34-1.61,16.74-2.87,25.07-4.54c3.82-0.76,6.4-3.42,8.04-6.95c1.5-3.23,3.43-6.16,6.14-8.51
	c0.58-0.51,1.12-1.28,1.8-1.44c3.87-0.92,4.45-4.01,4.94-7.18c0.3-1.93,0.63-3.88,0.71-5.83c0.04-1.05-0.36-2.36,0.97-2.55
	c1.3-0.19,3.16-0.25,3.95,0.5c1.87,1.77,3.21,1.46,4.86-0.07c1.87-1.74,3.6-0.44,5.41,0.36c0.15,2.5-1.46,4.18-2.51,6.07
	c-1.46,2.61-2.92,5.23-4.54,7.74c-1.14,1.76-0.87,3.14,0.49,4.56c5.43,5.64,6.27,12.48,4.76,19.72
	c-2.7,12.95-10.96,21.66-22.13,27.94c-5.63,3.17-11.66,5.27-18.09,6.18c-3.62,0.51-7.24,1.08-10.82,1.82
	c-7.59,1.56-15.13,0.6-22.66-0.32c-2.17-0.27-4.25-1.23-6.37-1.88c-0.75-0.23-1.5-0.65-2.25-0.65c-4.75-0.04-8.34-2.75-12.08-5.14
	c-0.65-0.41-1.31-0.89-1.78-1.49c-4.25-5.43-8.77-10.65-11.78-16.97C20.32,82.72,18.62,81.19,17.31,79.52z M25.56,85.07
	c-0.22,0.14-0.44,0.27-0.66,0.41c0.24,0.56,0.39,1.18,0.73,1.68c2.12,3.12,4.42,6.13,6.4,9.34c2.9,4.72,7.17,7.48,12.28,9.12
	c2.12,0.68,4.33,1.05,6.46,1.69c4.92,1.5,9.9,2.27,15.06,2.46c9.01,0.32,17.77-1.17,26.41-3.28c7.9-1.94,15.48-4.85,21.46-10.78
	c2.13-2.12,4.47-4.06,6.35-6.37c5.61-6.89,8.35-14.67,6.96-23.69c-0.76-4.94-3.3-8.42-7.73-10.59c-4.97-2.44-5.17-2.37-9.92,0.95
	c-0.72,0.5-1.25,1.33-1.73,2.1c-1.59,2.54-3.07,5.15-4.69,7.67c-3.31,5.14-7.69,9.18-13.03,12.14c-6.91,3.83-14.07,6.93-22.16,6.99
	c-6.02,0.04-12.05,0.17-18.06-0.08c-2.67-0.11-5.35-0.92-7.95-1.66c-3.74-1.06-7.41-2.36-11.52-3.69c-0.36,1.68-0.6,2.79-0.86,4.01
	c-0.41,0-0.99,0-1.64,0c1.49,4.39,8.59,10.01,13.69,12.57c6.72,3.38,13.96,5.04,21.49,5.36c2.1,0.09,4.21-0.03,6.3,0.11
	c8.34,0.57,16.5-0.15,24.26-3.46c2.38-1.02,4.72-2.19,6.93-3.55c5.6-3.43,9.35-8.7,13.24-13.78c3.65-4.78,7.24-9.62,8.39-15.75
	c0.05-0.28,0.5-0.49,1.02-0.97c0.54,4.2-0.14,7.78-2.52,10.96c-2.96,3.97-5.98,7.88-8.89,11.88c-7.81,10.73-18.99,15.41-31.57,16.82
	c-7.65,0.85-15.47,0.71-23.13-0.72c-5.51-1.02-10.94-2.16-16.05-4.85C34.74,94.85,29.62,90.65,25.56,85.07z M94.66,71.25
	c-1.77,0.24-2.54,0.3-3.3,0.46c-9.21,1.95-18.39,4.2-27.88,4.3c-6.31,0.06-12.61-0.49-18.41-3.2c-2.43-1.13-4.35-1.41-6.59,1.11
	c1.83,1.86,3.69,3.74,6.18,6.27c-2.42-0.62-4.09-1.06-5.77-1.49c2.89,2.67,6.43,3.59,10,3.88c4.7,0.38,9.45,0.13,14.18,0.33
	c8.19,0.35,15.87-1.38,22.95-5.49C88.8,75.8,91.84,74.47,94.66,71.25z M126.96,40.55c-2.33-0.58-3.71,0.42-4.45,2.24
	c-0.48,1.19,0.31,1.89,1.41,2.09C124.9,43.49,125.8,42.2,126.96,40.55z M117.51,44.8c0.41,0.03,0.82,0.07,1.23,0.1
	c0-1.98,0-3.95,0-5.93c-0.19-0.03-0.39-0.06-0.58-0.09C117.94,40.86,117.72,42.83,117.51,44.8z M39.14,69.07
	c-3.02,0.43-1.85,1.85-1.76,3.76C38.13,71.23,38.54,70.36,39.14,69.07z M27.24,78.18c-0.64,1.03-1.06,1.72-1.78,2.89
	C27.64,80.77,28.35,80.25,27.24,78.18z M122.16,45.77c-0.38,0.24-0.78,0.44-0.76,0.48c0.17,0.43,0.4,0.83,0.61,1.24
	c0.21-0.12,0.61-0.28,0.59-0.36C122.52,46.68,122.33,46.25,122.16,45.77z"/>
</svg>
