<?xml version="1.0" encoding="utf-8"?>
<!-- Generator: Adobe Illustrator 23.0.1, SVG Export Plug-In . SVG Version: 6.00 Build 0)  -->
<svg version="1.1" id="Layer_1" xmlns="http://www.w3.org/2000/svg" xmlns:xlink="http://www.w3.org/1999/xlink" x="0px" y="0px"
	 viewBox="0 0 150 150" style="enable-background:new 0 0 150 150;" xml:space="preserve">
<style type="text/css">
	.st0{fill:#F49AB4;}
	.st1{fill:#F28DA7;}
	.st2{fill:#E85072;}
	.st3{fill:#E84B6F;}
	.st4{fill:#EB5A7D;}
	.st5{fill:#EF7994;}
	.st6{fill:#F8BCCD;}
	.st7{fill:#F38CA8;}
	.st8{fill:#EF728F;}
	.st9{fill:#FCE4EB;}
	.st10{fill:#F0CCCF;}
	.st11{fill:#DE8D95;}
	.st12{fill:#EBBABF;}
	.st13{fill:#E7ACB2;}
	.st14{fill:#E39DA3;}
	.st15{fill:#F5DEE0;}
	.st16{fill:#D97A83;}
	.st17{fill:#E4A6AD;}
	.st18{fill:#E9B6BB;}
	.st19{fill:#DA9197;}
	.st20{fill:#CC7077;}
	.st21{fill:#C9646C;}
	.st22{fill:#D4848B;}
	.st23{fill:#D17A81;}
	.st24{fill:#DD9EA3;}
	.st25{fill:#C65760;}
	.st26{fill:#D48189;}
	.st27{fill:#CF6E76;}
	.st28{fill:#C1575F;}
	.st29{fill:#B8424B;}
	.st30{fill:#B33C43;}
	.st31{fill:#BB4952;}
	.st32{fill:#C65E66;}
	.st33{fill:#BC4F57;}
	.st34{fill:#B0353D;}
	.st35{fill:#D67E84;}
	.st36{fill:#C6636B;}
	.st37{fill:#CA6C72;}
	.st38{fill:#B9454D;}
	.st39{fill:#C05B63;}
	.st40{fill:#C0545B;}
	.st41{fill:#BE4C53;}
	.st42{fill:#B43C44;}
	.st43{fill:#DF999F;}
	.st44{fill:#D27980;}
	.st45{fill:#C1555D;}
	.st46{fill:#CB6F76;}
	.st47{fill:#C8676E;}
	.st48{fill:#D5838A;}
	.st49{fill:#C65D64;}
	.st50{fill:#F1D1D4;}
	.st51{fill:#D38087;}
	.st52{fill:#CF737C;}
	.st53{fill:#D98C94;}
	.st54{fill:#E6B3B9;}
	.st55{fill:#D8898F;}
	.st56{fill:#C66269;}
	.st57{fill:#C96A72;}
	.st58{fill:#DD9399;}
	.st59{fill:#CF747B;}
	.st60{fill:#D48188;}
	.st61{fill:#D37D85;}
	.st62{fill:#DC9298;}
	.st63{fill:#D8838B;}
	.st64{fill:#FAECED;}
	.st65{fill:#EFCBD0;}
	.st66{fill:#EDC1C5;}
	.st67{fill:#D28089;}
	.st68{fill:#CB747D;}
	.st69{fill:#A8343C;}
	.st70{fill:#A62F37;}
	.st71{fill:#B03E44;}
	.st72{fill:#C25C63;}
	.st73{fill:#E1A8AC;}
	.st74{fill:#BE535C;}
	.st75{fill:#CE727C;}
	.st76{fill:#F5D8DA;}
	.st77{fill:#D8BAE7;}
	.st78{fill:#BC8FD2;}
	.st79{fill:#B17FC9;}
	.st80{fill:#7D3CA4;}
	.st81{fill:#884BAE;}
	.st82{fill:#A369BF;}
	.st83{fill:#D2B5E2;}
	.st84{fill:#9A62BC;}
	.st85{fill:#B17ECB;}
	.st86{fill:#ECE0F2;}
	.st87{fill:#FBCBC8;}
	.st88{fill:#F5908C;}
	.st89{fill:#F28580;}
	.st90{fill:#E64640;}
	.st91{fill:#E5413B;}
	.st92{fill:#E74E49;}
	.st93{fill:#ED6D68;}
	.st94{fill:#F7B5B0;}
	.st95{fill:#ED6660;}
	.st96{fill:#F48580;}
	.st97{fill:#FBDFDF;}
	.st98{fill:#F9C1C0;}
	.st99{fill:#F7B7B6;}
	.st100{fill:#EF7573;}
	.st101{fill:#EF6F6D;}
	.st102{fill:#F17F7C;}
	.st103{fill:#F4A19F;}
	.st104{fill:#F39998;}
	.st105{fill:#EC7271;}
	.st106{fill:#FAD1CF;}
	.st107{fill:#FADCDC;}
	.st108{fill:#F39391;}
	.st109{fill:#FDECEC;}
	.st110{fill:#FCDDDD;}
	.st111{fill:#ED8280;}
	.st112{fill:#E66160;}
	.st113{fill:#F18784;}
	.st114{fill:#F19593;}
	.st115{fill:#EB7675;}
	.st116{fill:#E86867;}
	.st117{fill:#F28785;}
	.st118{fill:#F3A7A7;}
	.st119{fill:#F08C8B;}
	.st120{fill:#F08785;}
	.st121{fill:#E55D5B;}
	.st122{fill:#E86D6C;}
	.st123{fill:#E85F5D;}
	.st124{fill:#E75958;}
	.st125{fill:#EA6664;}
	.st126{fill:#E76260;}
	.st127{fill:#E04948;}
	.st128{fill:#ED7371;}
	.st129{fill:#EA6B6A;}
	.st130{fill:#EB6763;}
	.st131{fill:#E45352;}
	.st132{fill:#E54E4C;}
	.st133{fill:#DE3635;}
	.st134{fill:#E65958;}
	.st135{fill:#E0413E;}
	.st136{fill:#EA6D6A;}
	.st137{fill:#EE9493;}
	.st138{fill:#EA6866;}
	.st139{fill:#F2A8A6;}
	.st140{fill:#E14543;}
	.st141{fill:#E3413F;}
	.st142{fill:#E64A48;}
	.st143{fill:#E56967;}
	.st144{fill:#E33F3D;}
	.st145{fill:#EB7775;}
	.st146{fill:#EE8483;}
	.st147{fill:#E64845;}
	.st148{fill:#E75655;}
	.st149{fill:#E65451;}
	.st150{fill:#EA7473;}
	.st151{fill:#E55B57;}
	.st152{fill:#E75756;}
	.st153{fill:#EB7472;}
	.st154{fill:#EE8C8A;}
	.st155{fill:#F5A3A2;}
	.st156{fill:#E14A49;}
	.st157{fill:#E14D4C;}
	.st158{fill:#E14B49;}
	.st159{fill:#DE3E3D;}
	.st160{fill:#E45350;}
	.st161{fill:#E14544;}
	.st162{fill:#E54E4B;}
	.st163{fill:#E34240;}
	.st164{fill:#E75C5A;}
	.st165{fill:#EB7C7B;}
	.st166{fill:#F3A2A1;}
	.st167{fill:#EA7877;}
	.st168{fill:#E66B6A;}
	.st169{fill:#E96A69;}
	.st170{fill:#E56160;}
	.st171{fill:#E44845;}
	.st172{fill:#EC7473;}
	.st173{fill:#F9C0D3;}
	.st174{fill:#F298B5;}
	.st175{fill:#EE89A7;}
	.st176{fill:#E54D73;}
	.st177{fill:#E44771;}
	.st178{fill:#E7567E;}
	.st179{fill:#EC7797;}
	.st180{fill:#F8BCCF;}
	.st181{fill:#EB6D8F;}
	.st182{fill:#F089A8;}
	.st183{fill:#FCE2EB;}
	.st184{fill:#E55B7F;}
	.st185{fill:#E6708E;}
	.st186{fill:#EB87A2;}
	.st187{fill:#E25677;}
	.st188{fill:#E7678B;}
	.st189{fill:#FBD7E3;}
	.st190{fill:#ED80A1;}
	.st191{fill:#E24166;}
	.st192{fill:#E13B65;}
	.st193{fill:#E34870;}
	.st194{fill:#E76486;}
	.st195{fill:#F49DB8;}
	.st196{fill:#F7BFD1;}
	.st197{fill:#E65C7F;}
	.st198{fill:#F6ABC4;}
	.st199{fill:#F6A7C2;}
	.st200{fill:#EA6189;}
	.st201{fill:#DB3258;}
	.st202{fill:#DA2E55;}
	.st203{fill:#F7B2C9;}
	.st204{fill:#EA6A8D;}
	.st205{fill:#DC355B;}
	.st206{fill:#DB3159;}
	.st207{fill:#DF3C63;}
	.st208{fill:#F9C5D6;}
	.st209{fill:#EB7697;}
	.st210{fill:#DE3B61;}
	.st211{fill:#DE375F;}
	.st212{fill:#E1426A;}
	.st213{fill:#FDE7EE;}
	.st214{fill:#EE89A9;}
	.st215{fill:#E2456B;}
	.st216{fill:#E14069;}
	.st217{fill:#E44D75;}
	.st218{fill:#E86B8C;}
	.st219{fill:#EE7A9C;}
	.st220{fill:#F5A8C0;}
	.st221{fill:#FACBDA;}
	.st222{fill:#E65A7D;}
	.st223{fill:#E04169;}
	.st224{fill:#FEF5F9;}
	.st225{fill:#F191B0;}
	.st226{fill:#EA7292;}
	.st227{fill:#F6B4C9;}
	.st228{fill:#FBD8E5;}
	.st229{fill:#E96C8F;}
	.st230{fill:#E35477;}
	.st231{fill:#EA7396;}
	.st232{fill:#EB7A9D;}
	.st233{fill:#E8698D;}
	.st234{fill:#EB7094;}
	.st235{fill:#E04B6E;}
	.st236{fill:#E66085;}
	.st237{fill:#EB7294;}
	.st238{fill:#E7678C;}
	.st239{fill:#EA6D91;}
	.st240{fill:#E14C71;}
	.st241{fill:#EE7A9D;}
	.st242{fill:#F393B2;}
	.st243{fill:#DC3F64;}
	.st244{fill:#EF82A3;}
	.st245{fill:#F39DB9;}
	.st246{fill:#DF466B;}
	.st247{fill:#DF4469;}
	.st248{fill:#F29A98;}
	.st249{fill:#E64F4D;}
	.st250{fill:#E74947;}
	.st251{fill:#E85956;}
	.st252{fill:#EC7775;}
	.st253{fill:#F8BCBA;}
	.st254{fill:#EC6F6D;}
	.st255{fill:#FCE2E2;}
	.st256{fill:#F8C8C6;}
	.st257{fill:#F08B89;}
	.st258{fill:#F18A89;}
	.st259{fill:#B093A4;}
	.st260{fill:#A38295;}
	.st261{fill:#6F455A;}
	.st262{fill:#694055;}
	.st263{fill:#794F64;}
	.st264{fill:#936F83;}
	.st265{fill:#CDB7C1;}
	.st266{fill:#B596A5;}
	.st267{fill:#A58394;}
	.st268{fill:#8C667A;}
	.st269{fill:#B696A7;}
	.st270{fill:#E8E0E7;}
	.st271{fill:#E1BCC2;}
	.st272{fill:#A9666E;}
	.st273{fill:#681C23;}
	.st274{fill:#641920;}
	.st275{fill:#73242D;}
	.st276{fill:#8D3F48;}
	.st277{fill:#C69197;}
	.st278{fill:#893841;}
	.st279{fill:#E3CCCE;}
	.st280{fill:#6F292E;}
	.st281{fill:#A15A63;}
	.st282{fill:#944952;}
	.st283{fill:#944953;}
	.st284{fill:#964A53;}
	.st285{fill:#984B54;}
	.st286{fill:#974A53;}
	.st287{fill:#A25A62;}
	.st288{fill:#D2BCC8;}
	.st289{fill:#C8B2BE;}
	.st290{fill:#936A80;}
	.st291{fill:#8E667B;}
	.st292{fill:#9B7589;}
	.st293{fill:#B293A3;}
	.st294{fill:#916B7F;}
	.st295{fill:#DDCCD6;}
	.st296{fill:#AC8B9C;}
	.st297{fill:#F1EBEF;}
	.st298{fill:#9C7A8C;}
	.st299{fill:#8F6C80;}
	.st300{fill:#B99DAC;}
	.st301{fill:#A27F91;}
	.st302{fill:#C2A7B6;}
	.st303{fill:#AB8E9F;}
	.st304{fill:#936D82;}
	.st305{fill:#856174;}
	.st306{fill:#B99DAB;}
	.st307{fill:#C2A9B6;}
	.st308{fill:#A38091;}
	.st309{fill:#BBA3B0;}
	.st310{fill:#7A5468;}
	.st311{fill:#855F73;}
	.st312{fill:#AE8E9F;}
	.st313{fill:#7C556A;}
	.st314{fill:#7B5066;}
	.st315{fill:#855C71;}
	.st316{fill:#AF8E9F;}
	.st317{fill:#734B60;}
	.st318{fill:#694256;}
	.st319{fill:#916A80;}
	.st320{fill:#886378;}
	.st321{fill:#875C71;}
	.st322{fill:#714B5E;}
	.st323{fill:#582F42;}
	.st324{fill:#795066;}
	.st325{fill:#5E3A4B;}
	.st326{fill:#8A6578;}
	.st327{fill:#A98E9D;}
	.st328{fill:#B9A1B1;}
	.st329{fill:#B08F9F;}
	.st330{fill:#B898AA;}
	.st331{fill:#896578;}
	.st332{fill:#653C50;}
	.st333{fill:#623A4E;}
	.st334{fill:#6C4257;}
	.st335{fill:#B28FA1;}
	.st336{fill:#80596E;}
	.st337{fill:#7F586C;}
	.st338{fill:#765063;}
	.st339{fill:#683F53;}
	.st340{fill:#774E63;}
	.st341{fill:#704B5F;}
	.st342{fill:#674355;}
	.st343{fill:#7F5A6E;}
	.st344{fill:#815A6E;}
	.st345{fill:#6A4558;}
	.st346{fill:#5D374A;}
	.st347{fill:#926D80;}
	.st348{fill:#70475B;}
	.st349{fill:#72495E;}
	.st350{fill:#673D52;}
	.st351{fill:#673D51;}
	.st352{fill:#60364B;}
	.st353{fill:#795265;}
	.st354{fill:#683F52;}
	.st355{fill:#7A5368;}
	.st356{fill:#987387;}
	.st357{fill:#70475C;}
	.st358{fill:#A07D92;}
	.st359{fill:#81596E;}
	.st360{fill:#926C7F;}
	.st361{fill:#80596D;}
	.st362{fill:#CDC0E4;}
	.st363{fill:#A998CF;}
	.st364{fill:#644DA1;}
	.st365{fill:#5E479E;}
	.st366{fill:#6F56A9;}
	.st367{fill:#755CAC;}
	.st368{fill:#8975BA;}
	.st369{fill:#C4BAE0;}
	.st370{fill:#755DAD;}
	.st371{fill:#846DB7;}
	.st372{fill:#E7E2F2;}
	.st373{fill:#9B89C5;}
	.st374{fill:#8871B8;}
	.st375{fill:#9C89C6;}
	.st376{fill:#8673B9;}
	.st377{fill:#B9E1BA;}
	.st378{fill:#ADDBAE;}
	.st379{fill:#99D09A;}
	.st380{fill:#65B567;}
	.st381{fill:#5FB261;}
	.st382{fill:#70BB71;}
	.st383{fill:#8DCB8E;}
	.st384{fill:#CBE9CB;}
	.st385{fill:#86C687;}
	.st386{fill:#98D099;}
	.st387{fill:#EBF5EB;}
	.st388{fill:#B9D6C9;}
	.st389{fill:#8EBD9E;}
	.st390{fill:#7DB18E;}
	.st391{fill:#408251;}
	.st392{fill:#3A7F4C;}
	.st393{fill:#4A8C5B;}
	.st394{fill:#68A279;}
	.st395{fill:#B5D4BE;}
	.st396{fill:#7CB38B;}
	.st397{fill:#619D71;}
	.st398{fill:#E0ECE4;}
	.st399{fill:#74A38C;}
	.st400{fill:#679880;}
	.st401{fill:#669780;}
	.st402{fill:#669881;}
	.st403{fill:#285E41;}
	.st404{fill:#235A3C;}
	.st405{fill:#31684A;}
	.st406{fill:#4D8268;}
	.st407{fill:#A1C2B0;}
	.st408{fill:#679981;}
	.st409{fill:#467B62;}
	.st410{fill:#D6E5DF;}
	.st411{fill:#8ECA8F;}
	.st412{fill:#7DC07F;}
	.st413{fill:#409841;}
	.st414{fill:#3A933C;}
	.st415{fill:#4AA14B;}
	.st416{fill:#68B569;}
	.st417{fill:#7CC07D;}
	.st418{fill:#B5DDB5;}
	.st419{fill:#61B062;}
	.st420{fill:#7CC17E;}
	.st421{fill:#E0EFE0;}
	.st422{fill:#EBF5DE;}
	.st423{fill:#D4EAB8;}
	.st424{fill:#D2E9B4;}
	.st425{fill:#D8ECBE;}
	.st426{fill:#E2F0CE;}
	.st427{fill:#F3F9EA;}
	.st428{fill:#DFF0CA;}
	.st429{fill:#FAFDF7;}
	.st430{fill:#D3C9BE;}
	.st431{fill:#CBBEB3;}
	.st432{fill:#BBAC9F;}
	.st433{fill:#97826F;}
	.st434{fill:#947E69;}
	.st435{fill:#9F8A79;}
	.st436{fill:#B5A495;}
	.st437{fill:#DED6CE;}
	.st438{fill:#BBAD9F;}
	.st439{fill:#AE9E8D;}
	.st440{fill:#F2EFEC;}
	.st441{fill:#B1A091;}
	.st442{fill:#B1A090;}
	.st443{fill:#D8BACF;}
	.st444{fill:#976286;}
	.st445{fill:#905778;}
	.st446{fill:#4F1939;}
	.st447{fill:#4C1637;}
	.st448{fill:#5A2144;}
	.st449{fill:#773B60;}
	.st450{fill:#B88FAD;}
	.st451{fill:#6E345A;}
	.st452{fill:#8E567D;}
	.st453{fill:#E1CCDA;}
	.st454{fill:#C4E2A7;}
	.st455{fill:#93C35F;}
	.st456{fill:#8EC15A;}
	.st457{fill:#9AC868;}
	.st458{fill:#B0D587;}
	.st459{fill:#DCEBC3;}
	.st460{fill:#C8E0AA;}
	.st461{fill:#ABD280;}
	.st462{fill:#CAE2A9;}
	.st463{fill:#EFF8E7;}
	.st464{fill:#FFF6C0;}
	.st465{fill:#FFEC97;}
	.st466{fill:#FFDC4B;}
	.st467{fill:#FFD945;}
	.st468{fill:#FFDD54;}
	.st469{fill:#FFE774;}
	.st470{fill:#FFF4BA;}
	.st471{fill:#FFE46C;}
	.st472{fill:#FFF9E2;}
	.st473{fill:#FDE2C1;}
	.st474{fill:#F9CA98;}
	.st475{fill:#F9C18A;}
	.st476{fill:#F5994E;}
	.st477{fill:#F49448;}
	.st478{fill:#F8A158;}
	.st479{fill:#F8B577;}
	.st480{fill:#FCDDBC;}
	.st481{fill:#F8B06F;}
	.st482{fill:#FFEFE2;}
	.st483{fill:#F8A7A4;}
	.st484{fill:#EF8262;}
	.st485{fill:#EC605A;}
	.st486{fill:#EB5B55;}
	.st487{fill:#EC6964;}
	.st488{fill:#F28783;}
	.st489{fill:#F9C4C1;}
	.st490{fill:#F2817A;}
	.st491{fill:#EB6449;}
	.st492{fill:#FCE7E7;}
	.st493{fill:#FFEA88;}
	.st494{fill:#FFEB87;}
	.st495{fill:#FDF2E3;}
	.st496{fill:#FDEFDD;}
	.st497{fill:#F9E1C4;}
	.st498{fill:#FADEB9;}
	.st499{fill:#FADDB7;}
	.st500{fill:#FAE0BF;}
	.st501{fill:#FBE9CF;}
	.st502{fill:#F9DAB8;}
	.st503{fill:#FDF5EB;}
	.st504{fill:#FBE6CB;}
	.st505{fill:#FFFBF7;}
	.st506{fill:#FBDFBE;}
	.st507{fill:#F7D8B5;}
	.st508{fill:#FBE8CF;}
	.st509{fill:#FBE3C8;}
	.st510{fill:#F9E8CF;}
	.st511{fill:#F8DBB7;}
	.st512{fill:#FADBB5;}
	.st513{fill:#F7D5AE;}
	.st514{fill:#FDE9D5;}
	.st515{fill:#FAE3C8;}
	.st516{fill:#F7D1A4;}
	.st517{fill:#F5CD9D;}
	.st518{fill:#F7D8B0;}
	.st519{fill:#F8D4A9;}
	.st520{fill:#F8D3A6;}
	.st521{fill:#F8D8AF;}
	.st522{fill:#F7CD9E;}
	.st523{fill:#F4C896;}
	.st524{fill:#FBE3C5;}
	.st525{fill:#F7DBB8;}
	.st526{fill:#F7D8B1;}
	.st527{fill:#F7D7B0;}
	.st528{fill:#F8CD9F;}
	.st529{fill:#F8CD9E;}
	.st530{fill:#F1BE84;}
	.st531{fill:#F8D0A3;}
	.st532{fill:#F1C38D;}
	.st533{fill:#F8D8B1;}
	.st534{fill:#FBE2C8;}
	.st535{fill:#F9EAD3;}
	.st536{fill:#F9D3AA;}
	.st537{fill:#F7C896;}
	.st538{fill:#F7C794;}
	.st539{fill:#F7CA9A;}
	.st540{fill:#F7D3AB;}
	.st541{fill:#F8D8B5;}
	.st542{fill:#F9E6CF;}
	.st543{fill:#F7C897;}
	.st544{fill:#F8D3AA;}
	.st545{fill:#F7CEA2;}
	.st546{fill:#F4CD9E;}
	.st547{fill:#F5D2A5;}
	.st548{fill:#FBE2C2;}
	.st549{fill:#F5D1A8;}
	.st550{fill:#F8D5AB;}
	.st551{fill:#F2C695;}
	.st552{fill:#F8D3A8;}
	.st553{fill:#F5C998;}
	.st554{fill:#F5C894;}
	.st555{fill:#F2C997;}
	.st556{fill:#F2C48D;}
	.st557{fill:#F4C694;}
	.st558{fill:#F5CE9D;}
	.st559{fill:#F4C594;}
	.st560{fill:#F5C995;}
	.st561{fill:#F4C48F;}
	.st562{fill:#F7D2A6;}
	.st563{fill:#F8DFBB;}
	.st564{fill:#FBE2C3;}
	.st565{fill:#F8CC9E;}
	.st566{fill:#FADFC1;}
	.st567{fill:#F9D8B5;}
	.st568{fill:#F4C997;}
	.st569{fill:#F9DDB8;}
	.st570{fill:#FDFCED;}
	.st571{fill:#FBF7D2;}
	.st572{fill:#F9F6CB;}
	.st573{fill:#F4EBA8;}
	.st574{fill:#F5E9A6;}
	.st575{fill:#F5EDAC;}
	.st576{fill:#F7F5C0;}
	.st577{fill:#FBFBE1;}
	.st578{fill:#F7F0BE;}
	.st579{fill:#FAF6CE;}
	.st580{fill:#FFFBF5;}
	.st581{fill:#BDDB97;}
	.st582{fill:#BBDC99;}
	.st583{fill:#BDDD99;}
	.st584{fill:#B0D484;}
	.st585{fill:#AFD484;}
	.st586{fill:#FFEA87;}
	.st587{fill:#D3E9BA;}
	.st588{fill:#E1EECE;}
	.st589{fill:#D3E8BB;}
	.st590{fill:#E3EECE;}
	.st591{opacity:0.9;}
	.st592{fill:#FFF8CD;}
	.st593{opacity:0.9;fill:#FFEE8A;}
	.st594{fill:#FFF19E;}
	.st595{fill:#FFF5B6;}
	.st596{fill:#FFFBE0;}
	.st597{fill:none;stroke:#FFF4B1;stroke-width:0;}
	.st598{fill:#FFFDF3;}
	.st599{fill:#FACEDD;}
	.st600{opacity:0.9;fill:#F38CAF;}
	.st601{fill:#F5A0BD;}
	.st602{fill:#F8B8CD;}
	.st603{fill:#FCE1EA;}
	.st604{fill:none;stroke:#F7B2C9;stroke-width:0;}
	.st605{fill:#FEF3F7;}
	.st606{fill:#FBDBB6;}
	.st607{fill:#FBD1A3;}
	.st608{fill:#F9B674;}
	.st609{fill:#F8B36E;}
	.st610{fill:#FABB7E;}
	.st611{fill:#FACB99;}
	.st612{fill:#FDE9D1;}
	.st613{fill:#FAC893;}
	.st614{fill:#F9D0A1;}
	.st615{fill:#FFF5EC;}
	.st616{fill:#D7ECC0;}
	.st617{fill:#B1D684;}
	.st618{fill:#ADD680;}
	.st619{fill:#B7D98D;}
	.st620{fill:#C8E2A7;}
	.st621{fill:#E8F2D6;}
	.st622{fill:#C3E0A0;}
	.st623{fill:#F5FAEF;}
	.st624{fill:#A87699;}
	.st625{fill:#A9716E;}
	.st626{fill:#9F698A;}
	.st627{fill:#9F698D;}
	.st628{fill:#65294F;}
	.st629{fill:#632638;}
	.st630{fill:#62244A;}
	.st631{fill:#612335;}
	.st632{fill:#6E3259;}
	.st633{fill:#6D2F40;}
	.st634{fill:#8B4E74;}
	.st635{fill:#C4A1BB;}
	.st636{fill:#9D688D;}
	.st637{fill:#82476E;}
	.st638{fill:#E7D6E1;}
	.st639{fill:#FFF9D6;}
	.st640{fill:#FFF2A6;}
	.st641{fill:#FFF4B0;}
	.st642{fill:#FFF7C4;}
	.st643{fill:#FFFCE6;}
	.st644{fill:#FFF3B5;}
	.st645{fill:#FFED8B;}
	.st646{fill:#FFED94;}
	.st647{fill:#FFF1A4;}
	.st648{fill:#FFF5BF;}
	.st649{fill:#FFF6CD;}
	.st650{fill:#FFE46E;}
	.st651{fill:#FFED98;}
	.st652{fill:#FFF3A9;}
	.st653{fill:#FFEC8D;}
	.st654{fill:#FFE66B;}
	.st655{fill:#FFEC8A;}
	.st656{fill:#FFE66D;}
	.st657{fill:#FFE571;}
	.st658{fill:#FFEF94;}
	.st659{fill:#FFEF9E;}
	.st660{fill:#FFED93;}
	.st661{fill:#FFE873;}
	.st662{fill:#FFE97A;}
	.st663{fill:#FFEC87;}
	.st664{fill:#FFF19F;}
	.st665{fill:#FFF1A8;}
	.st666{fill:#FFEA7E;}
	.st667{fill:#FFEB86;}
	.st668{fill:#FFEF97;}
	.st669{fill:#FFF2B0;}
	.st670{fill:#FFF4BC;}
	.st671{fill:#FFF5C1;}
	.st672{fill:#FFF8CF;}
	.st673{fill:#FFF8DC;}
	.st674{fill:#FFF0A0;}
	.st675{fill:#FFEE92;}
	.st676{fill:#FFF6CE;}
	.st677{fill:#FFFADD;}
	.st678{fill:#FFFBEC;}
	.st679{fill:#FFFDF5;}
	.st680{fill:#F49C52;}
	.st681{fill:#F69D52;}
	.st682{fill:#F8A55E;}
	.st683{fill:#F8B472;}
	.st684{fill:#F59D54;}
	.st685{fill:#F8A65F;}
	.st686{fill:#F8B474;}
	.st687{fill:#FDF3E9;}
	.st688{fill:#FAE8D1;}
	.st689{fill:#FAE8CF;}
	.st690{fill:#FAEBD4;}
	.st691{fill:#F9EDD7;}
	.st692{fill:#FBEFDE;}
	.st693{fill:#FBEFDD;}
	.st694{fill:#FDF8F1;}
	.st695{fill:#FBEDD7;}
	.st696{fill:#FBEFDC;}
	.st697{fill:#FFFBFA;}
	.st698{fill:#FFE771;}
	.st699{fill:#FFEB83;}
	.st700{fill:#FFED90;}
	.st701{fill:#F7B6CB;}
	.st702{fill:#F4A2BB;}
	.st703{fill:#EE7397;}
	.st704{fill:#ED6D94;}
	.st705{fill:#EF7C9F;}
	.st706{fill:#F399B5;}
	.st707{fill:#FAD1DE;}
	.st708{fill:#F291AE;}
	.st709{fill:#F3A1BB;}
	.st710{fill:#FDECF2;}
</style>
<g>
	<g>
		<g>
			<g class="st591">
				<g class="st591">
					<path class="st599" d="M92.13,82.96c-1-0.31-1.83,0.1-2.5,0.55c-0.73,0.43-1.22,0.95-1.55,0.93c-1.09,0.13-1.5,1.85-2.19,3.61
						c-0.68,1.71-1.54,3.37-1.79,3c-0.34-0.56-1.69-1.96-2.91-3.28c-1.24-1.32-2.31-2.53-2.58-2.59c-0.64-0.13-1,0.17-1.29,0.72
						c-0.26,0.61-0.43,1.46-0.57,2.61c-0.17,1.04-0.1,1.63-0.37,1.5c-0.1-0.01,0.28,2.39-0.25,3.79c-0.39,0.84-1.15,0.69-1.55,1.65
						c-0.21,0.35-0.58,0.72-1.04,1.09c-0.46,0.38-1.02,0.64-1.6,0.96c-0.59,0.33-1.19,0.49-1.74,0.72c-0.55,0.22-1.06,0.37-1.42,0.5
						c-2.74,1-4.29,0.79-5.96-0.69c-1.15-1.36-2.6-1.26-3.92-2.31c-1.43-0.98-2.65-1.33-4.04-2.45c-1.1-1.37-2.2-2.47-3.73-3.46
						c-0.25-0.07-0.5-0.14-0.78-0.05c-0.28,0.09-0.61-0.25-0.86-0.33c-0.98-1.21-1.28-3.07-2.63-3.75c-0.36-0.2-1.18-0.11-1.42,0.41
						c-1.16,2.6-1.47,4.98-1.46,7.27c0.03,2.14,1.38,3.15,2.57,4.51c1.66,1.83,1.33,5.59,0.79,9.12c-0.5,2.66-1.89,6.52,0.52,7.62
						c0.7,0.28,1.49,0.45,2.26,0.58c0.76,0.14,1.56,0.23,2.34,0.36c0.77,0.13,1.53,0.3,2.28,0.57c0.75,0.27,1.45,0.67,2.17,1.23
						c0.49,0.43,0.96,0.83,1.42,1.23c0.48,0.38,0.97,0.75,1.46,1.1c0.97,0.72,2.08,1.29,3.34,1.8c0.32,0.26,1.78,0.94,2.3,1.09
						c1.55,0.09,3.39,0.37,5.02,0.38c1.64-0.09,3.17-0.45,4.18-1.71c1.67-0.54,2.96-0.57,4.11-0.83c1.15-0.26,2.23-0.58,3.31-1.7
						c2.74-2.95,4.69-6.32,7.46-8.24c0.77-0.61,1.52-1.12,2.32-1.55c0.78-0.44,1.58-0.85,2.46-1.16c0.31-0.12,1.25-0.03,2.27,0.07
						c1.02,0.11,2.13,0.26,2.67,0.33c1.95,0.19,3.08-1.92,3.33-3.66c0.1-1.49,0.27-2.8,0.46-4.13c0.21-1.3,0.51-2.53,0.81-3.84
						c0.4-0.79,1.41-1.06,1.92-1.93c0.47-1.09,0.57-2.19,0.48-3.31c-0.08-1.1-0.19-2.16-0.23-3.15c0.33-1.7,0.38-2.86,0.35-3.69
						c-0.03-0.84-0.15-1.34-0.27-1.69c-0.25-0.67-0.53-0.62-0.41-0.7c0.16-0.55,1.54-0.33,2.01-0.89c0.47-0.82,0.05-1.85-0.51-2.68
						c-0.71-1.17-1.35-2.49-1.48-3.72c-0.12-1.22,0.31-2.38,1.49-2.85c-0.32-0.09-0.67-0.3-0.79-0.19c-3.28,1.48-7.31,3.5-8.21,7.05
						c0.08,0.39,0.25,0.91,0.17,1.32c-0.23,0.7-0.31,1.36-0.38,2.01c-0.16,0.53-1.21,0.95-2.43,1.1
						C94.36,83.35,92.99,83.24,92.13,82.96z"/>
					<path class="st600" d="M46.64,97.84c-1.19-1.36-2.53-2.37-2.57-4.51c-0.01-2.3,0.3-4.66,1.46-7.27c0.23-0.52,1.05-0.6,1.42-0.4
						c1.35,0.68,1.65,2.54,2.63,3.75c0.25,0.08,0.58,0.42,0.86,0.33c0.28-0.09,0.53-0.02,0.78,0.04c1.52,0.99,2.62,2.09,3.72,3.46
						c1.39,1.11,2.62,1.46,4.04,2.44c1.33,1.04,2.77,0.94,3.92,2.3c1.66,1.48,3.21,1.68,5.94,0.68c0.36-0.13,0.86-0.28,1.41-0.5
						c0.55-0.22,1.15-0.39,1.74-0.72c1.17-0.55,2.21-1.34,2.63-2.05c0.4-0.96,1.16-0.81,1.54-1.65c0,0,0.15,0.24,0.45,0.64
						c0.31,0.4,0.78,0.98,1.48,1.69c-1.3,2.15-3.04,4.08-5.19,5.85c-0.54,0.42-1.11,0.85-1.7,1.27c-0.59,0.37-1.21,0.75-1.86,1.11
						c-1.29,0.72-2.67,1.35-4.12,1.88C58.28,104.77,52.17,101.4,46.64,97.84z"/>
					<path class="st601" d="M76.69,96.08c0,0,0.23-0.35,0.56-0.84c0.33-0.49,0.76-0.99,1.17-1.46c0.42-0.44,0.86-0.68,1.3-0.54
						c0.43,0.13,0.89,0.7,1.29,1.98c0,0,0.1,0.86,0.13,2.2c0.02,1.3-0.06,3.08-0.38,4.95c-0.33,1.84-0.93,3.71-1.77,5.22
						c-0.85,1.42-1.92,2.57-3.02,2.7c0,0-0.79,0.12-1.78,0.28c-1,0.14-2.22,0.23-3.07,0.38c0,0-0.2-0.13-0.51-0.34
						c-0.33-0.21-0.79-0.48-1.35-0.71c-1.14-0.46-2.58-0.88-4.31-0.56c0,0-0.21,0-0.58,0.01c-0.37,0.01-0.91,0.01-1.54-0.03
						c-1.28-0.05-2.99-0.22-4.67-0.56c-3.39-0.66-6.56-2-6.48-3.03c0,0-0.26-0.2-0.63-0.54c-0.37-0.34-0.86-0.82-1.36-1.34
						c-0.97-1.07-1.93-2.38-2.04-3.3c0,0,0.13-1.04,0.05-2.17c-0.09-1.13-0.39-2.35-1.34-2.76c0,0-0.69-1.69-0.98-3.21
						c-0.29-1.52-0.21-2.87,1.21-2.22c0,0,1.94,0.33,2.81,0.66c0,0,2.35,2.18,4.83,4.34c2.45,2.18,5.18,4.21,5.29,4.9
						c0,0,0.67,0.64,1.9,1.39c1.23,0.73,3.03,1.61,5.14,1.91c0.52,0.1,1.07,0.11,1.61,0.13c0.54,0.03,1.1-0.03,1.65-0.12
						c0.55-0.1,1.09-0.19,1.62-0.39c0.53-0.21,1.04-0.45,1.52-0.73c0.96-0.55,1.81-1.44,2.45-2.41
						C76.05,98.77,76.5,97.52,76.69,96.08z"/>
					<path class="st602" d="M76.55,94.6c0,0,0.4-1.66,0.91-2.77c0.26-0.6,0.56-1.08,0.98-1.17c0.42-0.11,0.94,0.1,1.73,0.95
						c0,0,0.1,0.05,0.26,0.13c0.17,0.09,0.42,0.21,0.71,0.35c0.59,0.28,1.41,0.68,2.3,1.16c1.7,0.9,3.79,2.06,3.9,3.89
						c0,0,0.06,0.9-0.03,2.37c-0.04,0.75-0.16,1.57-0.35,2.53c-0.19,0.94-0.44,2.02-0.85,3.06c-0.77,2.14-2.04,4.39-3.8,6.21
						c-0.89,0.89-1.87,1.75-2.97,2.33c-1.09,0.62-2.24,1.09-3.44,1.26c0,0-0.26,0.02-0.74,0.31c-0.48,0.3-1.19,0.86-2.2,1.85
						c0,0-0.34,0.14-0.89,0.29c-0.56,0.15-1.33,0.36-2.19,0.37c-0.86,0.03-1.8-0.04-2.65-0.31c-0.82-0.29-1.52-0.79-1.97-1.55
						c0,0-1.44-1.16-3.05-2.44c-1.6-1.28-3.32-2.63-4.6-2.78c0,0-0.28-0.7-0.75-1.33c-0.47-0.64-1.08-1.26-1.92-1.08
						c0,0,0.88,0.1,2.2,0.25c1.34,0.14,3.11,0.31,4.94,0.42c0.91,0.06,1.82,0.13,2.71,0.17c0.87,0.07,1.71,0.11,2.45,0.2
						c1.47,0.19,2.65,0.41,3.04,1.09c0,0,0.1,0.06,0.28,0.14c0.18,0.08,0.45,0.19,0.8,0.25c0.69,0.13,1.7,0.25,2.89-0.03
						c2.33-0.54,5.48-2.72,6.62-8.08c0,0-0.17-1.84-0.88-3.71c-0.35-0.95-0.81-1.89-1.39-2.67C78,95.46,77.33,94.83,76.55,94.6z"/>
					<path class="st603" d="M76.58,86.99c0.02-0.5,0-1.05-0.03-1.58c-0.03-0.54-0.07-1.08-0.08-1.5c0.03-0.37,0.32-0.32,0.41-0.58
						c0.16-0.26,0.64,0.1,0.99,0.32c0.91,0.75,1.8,0.94,2.69,1.07c0.94,0.18,1.85,0.27,3.24,1.01c0.34,0.12,0.55,0.15,0.73,0.06
						c-0.04-0.12-0.05-0.4-0.1-0.52c0.37-0.42,0.79-0.75,0.96-1.26c0.08-0.96,1.48-0.82,3.03-0.88c0.86-0.03,1.44-0.38,2.22-0.62
						c1.28-0.5,4.31,0.56,5.26-0.47c1.76-1.63,0.29-4.3,1.99-6.46c1.14-1.17,2.03-2.35,3.61-3.14c1.37-0.47,2.46-1.15,3.8-1.48
						c0.29-0.11,1.58,0.21,1.76,0.4c0.22,0.32-0.3,0.57-0.32,0.96c-0.07,0.49-0.46,0.6-0.96,0.64c-0.5,0.03-1.13-0.03-1.56,0.09
						c-1,0.36-1.17,1.49-1.73,2.33c-0.35,0.3-0.77,0.47-1.36,0.66c-0.91,0.24-0.71,1.2-0.72,2.02c0.15,1.07-1.23,1.67-1.46,2.63
						c-0.39,1.23,0.83,2.81-0.25,3.55c0.49-0.3,0.19,0.64-0.27,1.49c-0.5,0.82-1.1,1.56-1.05,1.05c0.07,0.13-0.57,0.1-0.96-0.05
						c-0.22-0.14-0.61-0.29-0.67-0.41c-0.55-1-2.02-1.66-3.09-2.4c-0.08-0.01-0.37,0.39-0.81,0.79c-0.49,0.38-1.1,0.75-1.73,0.74
						c-1.1-0.1-2.2-0.39-2.68-0.02c-0.04,0.17,0.41,0.64,0.36,0.82c-0.06,0.08-0.03,0.55,0,1.26c0.02,0.7-0.03,1.6-0.1,2.58
						c-0.14,0.91-0.3,1.89-0.54,2.61c-0.25,0.7-0.5,1.19-0.69,1.2c-0.51-0.04-1.42-0.57-1.68-1.17c-0.93-1.59-1.89-1.97-2.83-3.18
						c-0.24-0.33-0.39-0.82-0.63-1.16c-0.71-0.88-1.57-1.83-1.93-1.91c-0.78-0.43-1.31-0.32-1.56,0.15l-0.63,0.22
						C77.01,86.9,76.79,86.93,76.58,86.99z"/>
					<path class="st604" d="M50.18,115.15c0,0,1.31-0.05,3.04,0.42c0.85,0.25,1.86,0.59,2.84,1.19c1.04,0.56,2.03,1.39,3.08,2.48
						c0,0,0.24,0.17,0.61,0.42c0.38,0.25,0.87,0.6,1.45,0.9c1.14,0.63,2.44,1.26,2.98,1.22l1.42,0.81c0,0,0.11,0.02,0.31,0.06
						c0.2,0.04,0.49,0.09,0.87,0.13c0.75,0.08,1.77,0.16,2.83,0.15c2.12-0.04,4.38-0.55,4.99-1.64c0,0,0.88-0.26,1.81-0.49
						c0.94-0.23,1.93-0.43,2.22-0.29c0,0,0.7-0.04,1.75-0.55c1.05-0.48,2.39-1.56,3.52-3.47"/>
					<path class="st605" d="M84.91,82.72c0.23-0.05,1.03-0.13,1.88-0.28c0.91-0.12,1.84-0.34,2.5-0.34
						c1.95-0.04,3.93-0.57,6.18-1.28c0.16-0.1,0.26-0.28,0.15-0.44c-0.72-1.2,0.34-2.05,0.15-3.15c-0.05-0.45-0.36-0.99-0.12-1.42
						c1.24-2.24,3.69-4.23,6.63-5.13c1.25-0.36,2.7-0.28,4.02-0.22c0.32,0.08,0.71,0.1,0.95,0.36c0.22,0.16-0.12,0.32-0.17,0.53
						c-0.27,0.06-0.71-0.06-1.08,0.05c-0.79,0.12-1.24,0.7-2.05,0.83c-0.77,0.23-1.65,0.32-2.38,0.73
						c-0.45,0.31-0.78,0.63-1.04,1.03c-1.22,1.37-2.04,2.85-2.48,4.38c0.7,0.91-0.27,1.57-0.53,2.22c-0.11,0.19-0.37,0.3-0.59,0.5
						c-0.31,0.55-0.15,1.29-0.95,1.42c-1.77,0.16-3.33,0.35-4.72,0.46c-0.58,0.05-1.6,0.34-2.66,0.5c-0.99,0.2-1.97,0.3-2.26,0.4
						c-0.22,0.05-0.37,0.16-0.49,0.28c-0.14,0.11-0.24,0.25-0.34,0.4c-0.2,0.29-0.33,0.64-0.71,0.76c-0.04,0.01-0.36-0.49-0.52-1.08
						c-0.08-0.29-0.12-0.6-0.03-0.86c0.05-0.13,0.12-0.25,0.24-0.36C84.57,82.91,84.71,82.81,84.91,82.72z"/>
				</g>
			</g>
		</g>
	</g>
</g>
<g>
	<g>
		<g>
			<g class="st591">
				<g class="st591">
					<path class="st599" d="M92.13,82.96c-1-0.31-1.83,0.1-2.5,0.55c-0.73,0.43-1.22,0.95-1.55,0.93c-1.09,0.13-1.5,1.85-2.19,3.61
						c-0.68,1.71-1.54,3.37-1.79,3c-0.34-0.56-1.69-1.96-2.91-3.28c-1.24-1.32-2.31-2.53-2.58-2.59c-0.64-0.13-1,0.17-1.29,0.72
						c-0.26,0.61-0.43,1.46-0.57,2.61c-0.17,1.04-0.1,1.63-0.37,1.5c-0.1-0.01,0.28,2.39-0.25,3.79c-0.39,0.84-1.15,0.69-1.55,1.65
						c-0.21,0.35-0.58,0.72-1.04,1.09c-0.46,0.38-1.02,0.64-1.6,0.96c-0.59,0.33-1.19,0.49-1.74,0.72c-0.55,0.22-1.06,0.37-1.42,0.5
						c-2.74,1-4.29,0.79-5.96-0.69c-1.15-1.36-2.6-1.26-3.92-2.31c-1.43-0.98-2.65-1.33-4.04-2.45c-1.1-1.37-2.2-2.47-3.73-3.46
						c-0.25-0.07-0.5-0.14-0.78-0.05c-0.28,0.09-0.61-0.25-0.86-0.33c-0.98-1.21-1.28-3.07-2.63-3.75c-0.36-0.2-1.18-0.11-1.42,0.41
						c-1.16,2.6-1.47,4.98-1.46,7.27c0.03,2.14,1.38,3.15,2.57,4.51c1.66,1.83,1.33,5.59,0.79,9.12c-0.5,2.66-1.89,6.52,0.52,7.62
						c0.7,0.28,1.49,0.45,2.26,0.58c0.76,0.14,1.56,0.23,2.34,0.36c0.77,0.13,1.53,0.3,2.28,0.57c0.75,0.27,1.45,0.67,2.17,1.23
						c0.49,0.43,0.96,0.83,1.42,1.23c0.48,0.38,0.97,0.75,1.46,1.1c0.97,0.72,2.08,1.29,3.34,1.8c0.32,0.26,1.78,0.94,2.3,1.09
						c1.55,0.09,3.39,0.37,5.02,0.38c1.64-0.09,3.17-0.45,4.18-1.71c1.67-0.54,2.96-0.57,4.11-0.83c1.15-0.26,2.23-0.58,3.31-1.7
						c2.74-2.95,4.69-6.32,7.46-8.24c0.77-0.61,1.52-1.12,2.32-1.55c0.78-0.44,1.58-0.85,2.46-1.16c0.31-0.12,1.25-0.03,2.27,0.07
						c1.02,0.11,2.13,0.26,2.67,0.33c1.95,0.19,3.08-1.92,3.33-3.66c0.1-1.49,0.27-2.8,0.46-4.13c0.21-1.3,0.51-2.53,0.81-3.84
						c0.4-0.79,1.41-1.06,1.92-1.93c0.47-1.09,0.57-2.19,0.48-3.31c-0.08-1.1-0.19-2.16-0.23-3.15c0.33-1.7,0.38-2.86,0.35-3.69
						c-0.03-0.84-0.15-1.34-0.27-1.69c-0.25-0.67-0.53-0.62-0.41-0.7c0.16-0.55,1.54-0.33,2.01-0.89c0.47-0.82,0.05-1.85-0.51-2.68
						c-0.71-1.17-1.35-2.49-1.48-3.72c-0.12-1.22,0.31-2.38,1.49-2.85c-0.32-0.09-0.67-0.3-0.79-0.19c-3.28,1.48-7.31,3.5-8.21,7.05
						c0.08,0.39,0.25,0.91,0.17,1.32c-0.23,0.7-0.31,1.36-0.38,2.01c-0.16,0.53-1.21,0.95-2.43,1.1
						C94.36,83.35,92.99,83.24,92.13,82.96z"/>
					<path class="st600" d="M46.64,97.84c-1.19-1.36-2.53-2.37-2.57-4.51c-0.01-2.3,0.3-4.66,1.46-7.27c0.23-0.52,1.05-0.6,1.42-0.4
						c1.35,0.68,1.65,2.54,2.63,3.75c0.25,0.08,0.58,0.42,0.86,0.33c0.28-0.09,0.53-0.02,0.78,0.04c1.52,0.99,2.62,2.09,3.72,3.46
						c1.39,1.11,2.62,1.46,4.04,2.44c1.33,1.04,2.77,0.94,3.92,2.3c1.66,1.48,3.21,1.68,5.94,0.68c0.36-0.13,0.86-0.28,1.41-0.5
						c0.55-0.22,1.15-0.39,1.74-0.72c1.17-0.55,2.21-1.34,2.63-2.05c0.4-0.96,1.16-0.81,1.54-1.65c0,0,0.15,0.24,0.45,0.64
						c0.31,0.4,0.78,0.98,1.48,1.69c-1.3,2.15-3.04,4.08-5.19,5.85c-0.54,0.42-1.11,0.85-1.7,1.27c-0.59,0.37-1.21,0.75-1.86,1.11
						c-1.29,0.72-2.67,1.35-4.12,1.88C58.28,104.77,52.17,101.4,46.64,97.84z"/>
					<path class="st601" d="M76.69,96.08c0,0,0.23-0.35,0.56-0.84c0.33-0.49,0.76-0.99,1.17-1.46c0.42-0.44,0.86-0.68,1.3-0.54
						c0.43,0.13,0.89,0.7,1.29,1.98c0,0,0.1,0.86,0.13,2.2c0.02,1.3-0.06,3.08-0.38,4.95c-0.33,1.84-0.93,3.71-1.77,5.22
						c-0.85,1.42-1.92,2.57-3.02,2.7c0,0-0.79,0.12-1.78,0.28c-1,0.14-2.22,0.23-3.07,0.38c0,0-0.2-0.13-0.51-0.34
						c-0.33-0.21-0.79-0.48-1.35-0.71c-1.14-0.46-2.58-0.88-4.31-0.56c0,0-0.21,0-0.58,0.01c-0.37,0.01-0.91,0.01-1.54-0.03
						c-1.28-0.05-2.99-0.22-4.67-0.56c-3.39-0.66-6.56-2-6.48-3.03c0,0-0.26-0.2-0.63-0.54c-0.37-0.34-0.86-0.82-1.36-1.34
						c-0.97-1.07-1.93-2.38-2.04-3.3c0,0,0.13-1.04,0.05-2.17c-0.09-1.13-0.39-2.35-1.34-2.76c0,0-0.69-1.69-0.98-3.21
						c-0.29-1.52-0.21-2.87,1.21-2.22c0,0,1.94,0.33,2.81,0.66c0,0,2.35,2.18,4.83,4.34c2.45,2.18,5.18,4.21,5.29,4.9
						c0,0,0.67,0.64,1.9,1.39c1.23,0.73,3.03,1.61,5.14,1.91c0.52,0.1,1.07,0.11,1.61,0.13c0.54,0.03,1.1-0.03,1.65-0.12
						c0.55-0.1,1.09-0.19,1.62-0.39c0.53-0.21,1.04-0.45,1.52-0.73c0.96-0.55,1.81-1.44,2.45-2.41
						C76.05,98.77,76.5,97.52,76.69,96.08z"/>
					<path class="st602" d="M76.55,94.6c0,0,0.4-1.66,0.91-2.77c0.26-0.6,0.56-1.08,0.98-1.17c0.42-0.11,0.94,0.1,1.73,0.95
						c0,0,0.1,0.05,0.26,0.13c0.17,0.09,0.42,0.21,0.71,0.35c0.59,0.28,1.41,0.68,2.3,1.16c1.7,0.9,3.79,2.06,3.9,3.89
						c0,0,0.06,0.9-0.03,2.37c-0.04,0.75-0.16,1.57-0.35,2.53c-0.19,0.94-0.44,2.02-0.85,3.06c-0.77,2.14-2.04,4.39-3.8,6.21
						c-0.89,0.89-1.87,1.75-2.97,2.33c-1.09,0.62-2.24,1.09-3.44,1.26c0,0-0.26,0.02-0.74,0.31c-0.48,0.3-1.19,0.86-2.2,1.85
						c0,0-0.34,0.14-0.89,0.29c-0.56,0.15-1.33,0.36-2.19,0.37c-0.86,0.03-1.8-0.04-2.65-0.31c-0.82-0.29-1.52-0.79-1.97-1.55
						c0,0-1.44-1.16-3.05-2.44c-1.6-1.28-3.32-2.63-4.6-2.78c0,0-0.28-0.7-0.75-1.33c-0.47-0.64-1.08-1.26-1.92-1.08
						c0,0,0.88,0.1,2.2,0.25c1.34,0.14,3.11,0.31,4.94,0.42c0.91,0.06,1.82,0.13,2.71,0.17c0.87,0.07,1.71,0.11,2.45,0.2
						c1.47,0.19,2.65,0.41,3.04,1.09c0,0,0.1,0.06,0.28,0.14c0.18,0.08,0.45,0.19,0.8,0.25c0.69,0.13,1.7,0.25,2.89-0.03
						c2.33-0.54,5.48-2.72,6.62-8.08c0,0-0.17-1.84-0.88-3.71c-0.35-0.95-0.81-1.89-1.39-2.67C78,95.46,77.33,94.83,76.55,94.6z"/>
					<path class="st603" d="M76.58,86.99c0.02-0.5,0-1.05-0.03-1.58c-0.03-0.54-0.07-1.08-0.08-1.5c0.03-0.37,0.32-0.32,0.41-0.58
						c0.16-0.26,0.64,0.1,0.99,0.32c0.91,0.75,1.8,0.94,2.69,1.07c0.94,0.18,1.85,0.27,3.24,1.01c0.34,0.12,0.55,0.15,0.73,0.06
						c-0.04-0.12-0.05-0.4-0.1-0.52c0.37-0.42,0.79-0.75,0.96-1.26c0.08-0.96,1.48-0.82,3.03-0.88c0.86-0.03,1.44-0.38,2.22-0.62
						c1.28-0.5,4.31,0.56,5.26-0.47c1.76-1.63,0.29-4.3,1.99-6.46c1.14-1.17,2.03-2.35,3.61-3.14c1.37-0.47,2.46-1.15,3.8-1.48
						c0.29-0.11,1.58,0.21,1.76,0.4c0.22,0.32-0.3,0.57-0.32,0.96c-0.07,0.49-0.46,0.6-0.96,0.64c-0.5,0.03-1.13-0.03-1.56,0.09
						c-1,0.36-1.17,1.49-1.73,2.33c-0.35,0.3-0.77,0.47-1.36,0.66c-0.91,0.24-0.71,1.2-0.72,2.02c0.15,1.07-1.23,1.67-1.46,2.63
						c-0.39,1.23,0.83,2.81-0.25,3.55c0.49-0.3,0.19,0.64-0.27,1.49c-0.5,0.82-1.1,1.56-1.05,1.05c0.07,0.13-0.57,0.1-0.96-0.05
						c-0.22-0.14-0.61-0.29-0.67-0.41c-0.55-1-2.02-1.66-3.09-2.4c-0.08-0.01-0.37,0.39-0.81,0.79c-0.49,0.38-1.1,0.75-1.73,0.74
						c-1.1-0.1-2.2-0.39-2.68-0.02c-0.04,0.17,0.41,0.64,0.36,0.82c-0.06,0.08-0.03,0.55,0,1.26c0.02,0.7-0.03,1.6-0.1,2.58
						c-0.14,0.91-0.3,1.89-0.54,2.61c-0.25,0.7-0.5,1.19-0.69,1.2c-0.51-0.04-1.42-0.57-1.68-1.17c-0.93-1.59-1.89-1.97-2.83-3.18
						c-0.24-0.33-0.39-0.82-0.63-1.16c-0.71-0.88-1.57-1.83-1.93-1.91c-0.78-0.43-1.31-0.32-1.56,0.15l-0.63,0.22
						C77.01,86.9,76.79,86.93,76.58,86.99z"/>
					<path class="st604" d="M50.18,115.15c0,0,1.31-0.05,3.04,0.42c0.85,0.25,1.86,0.59,2.84,1.19c1.04,0.56,2.03,1.39,3.08,2.48
						c0,0,0.24,0.17,0.61,0.42c0.38,0.25,0.87,0.6,1.45,0.9c1.14,0.63,2.44,1.26,2.98,1.22l1.42,0.81c0,0,0.11,0.02,0.31,0.06
						c0.2,0.04,0.49,0.09,0.87,0.13c0.75,0.08,1.77,0.16,2.83,0.15c2.12-0.04,4.38-0.55,4.99-1.64c0,0,0.88-0.26,1.81-0.49
						c0.94-0.23,1.93-0.43,2.22-0.29c0,0,0.7-0.04,1.75-0.55c1.05-0.48,2.39-1.56,3.52-3.47"/>
					<path class="st605" d="M84.91,82.72c0.23-0.05,1.03-0.13,1.88-0.28c0.91-0.12,1.84-0.34,2.5-0.34
						c1.95-0.04,3.93-0.57,6.18-1.28c0.16-0.1,0.26-0.28,0.15-0.44c-0.72-1.2,0.34-2.05,0.15-3.15c-0.05-0.45-0.36-0.99-0.12-1.42
						c1.24-2.24,3.69-4.23,6.63-5.13c1.25-0.36,2.7-0.28,4.02-0.22c0.32,0.08,0.71,0.1,0.95,0.36c0.22,0.16-0.12,0.32-0.17,0.53
						c-0.27,0.06-0.71-0.06-1.08,0.05c-0.79,0.12-1.24,0.7-2.05,0.83c-0.77,0.23-1.65,0.32-2.38,0.73
						c-0.45,0.31-0.78,0.63-1.04,1.03c-1.22,1.37-2.04,2.85-2.48,4.38c0.7,0.91-0.27,1.57-0.53,2.22c-0.11,0.19-0.37,0.3-0.59,0.5
						c-0.31,0.55-0.15,1.29-0.95,1.42c-1.77,0.16-3.33,0.35-4.72,0.46c-0.58,0.05-1.6,0.34-2.66,0.5c-0.99,0.2-1.97,0.3-2.26,0.4
						c-0.22,0.05-0.37,0.16-0.49,0.28c-0.14,0.11-0.24,0.25-0.34,0.4c-0.2,0.29-0.33,0.64-0.71,0.76c-0.04,0.01-0.36-0.49-0.52-1.08
						c-0.08-0.29-0.12-0.6-0.03-0.86c0.05-0.13,0.12-0.25,0.24-0.36C84.57,82.91,84.71,82.81,84.91,82.72z"/>
				</g>
			</g>
		</g>
	</g>
</g>
<g>
	<path d="M29.55,88.28c-0.2-1.98-0.22-3.73-0.56-5.41c-1.59-7.91-2.14-15.99,0.11-23.67c3.08-10.46,8.03-20.14,17.53-26.46
		c4.93-3.28,10.21-5.59,16.46-5.88c6.09-0.28,12.23-0.67,17.96,1.13c9.72,3.04,19.06,7.09,25.29,15.89c1.63,2.3,3.3,4.57,5.02,6.81
		c0.6,0.78,1.47,1.35,2.03,2.15c1.01,1.44,2.24,2.87,2.71,4.5c0.66,2.29,0.69,4.76,1.01,7.15c0.08,0.63,0.01,1.41,0.35,1.85
		c2.41,3.1,1.89,6.96,2.02,10.33c0.11,3.07,0.91,6.55-0.94,9.58c-0.59,0.98-1.08,2.03-1.51,3.09c-0.31,0.77-0.46,1.61-0.65,2.43
		c-0.33,1.45-0.3,3.09-1,4.33c-1.37,2.43-3.05,4.56-3.92,7.39c-0.59,1.92-2.99,3.31-4.68,4.84c-0.74,0.67-1.91,0.91-2.56,1.64
		c-1.81,2.02-4.11,2.84-6.62,3.64c-1.84,0.59-3.25,2.44-5.07,3.17c-1.72,0.69-3.96,0.23-5.57,1.06c-2.06,1.06-4.02,1.52-6.27,1.41
		c-1.8-0.09-3.68-0.2-5.4,0.22c-2.38,0.58-4.53,0.01-6.77-0.46c-2.26-0.47-4.53-0.86-6.81-1.23c-3.58-0.57-6.33-2.71-9.17-4.69
		c-1.58-1.1-3.17-2.19-4.78-3.24c-3.39-2.2-6.17-5-8.5-8.3c-0.79-1.12-1.83-2.05-2.75-3.08c-1.25-1.4-2.65-2.71-3.68-4.25
		C31.57,92.33,30.62,90.25,29.55,88.28z M106.75,60.7c0.49-0.44,1.09-0.9,1.6-1.45c2.64-2.79,2.85-4.05,0.98-7.54
		c-0.89-1.67-2.05-3.2-3.14-4.76c-3.69-5.27-8.5-9.27-14.12-12.32c-9.36-5.09-19.33-6.58-29.87-5.55
		c-7.69,0.76-14.05,4.04-19.24,9.51c-8.81,9.28-13.23,20.44-12.95,33.25c0.09,4.06,1.05,8.11,1.51,11.45
		c1.88,0.66,3.22,1.1,4.54,1.59c1.18,0.44,2.41,1.43,3.5,1.29c1.87-0.25,3.53-0.36,5.22,0.61c0.41,0.24,1.28,0.11,1.71-0.18
		c1.51-1.04,2.86-0.46,4.38-0.03c2.76,0.79,5.55,2.15,8.44,0.12c0.48-0.34,1.46,0.11,2.21,0.08c0.68-0.02,1.35-0.18,2.02-0.3
		c1.1-0.19,2.37-0.84,3.27-0.5c3.04,1.13,4.83-0.51,6.66-2.42c1.61-1.68,3.2-3.11,5.97-2.57c2.07,0.4,4.3,0.03,6.46-0.02
		c0.89-0.02,2,0.2,2.64-0.24c2.17-1.46,4.34-2.99,6.17-4.84c1.03-1.03,1.8-1.44,3.26-1.36c3.5,0.18,6.18-2.12,8.74-3.95
		c1.38-0.99,1.97-3.6,2.16-5.56C108.99,63.81,107.68,62.47,106.75,60.7z M114.16,73.3c2.9-2.33,2.88-2.31,1.16-5.83
		c-0.32-0.65-0.52-1.48-0.42-2.18c0.46-3.26-1.33-4.88-4.19-6.16c-0.43,0.87-0.79,1.59-1.25,2.51c0.69,0.11,1.03,0.18,1.38,0.21
		c0.67,0.07,1.35,0.11,2.02,0.17c-0.16,0.67-0.22,1.38-0.51,1.99c-0.75,1.62-2.08,3.13-2.27,4.8c-0.26,2.25-1.47,4.04-2.86,5.15
		c-1.51,1.21-2.18,2.57-2.71,5.17c-1.11-1.54-1.7-2.36-2.29-3.18c-5.07,0.47-5.61,0.79-7.03,4.37c-1.73-1.03-3.01-0.34-3.81,1.28
		c-0.83,1.67-2.07,2.12-3.81,1.83c-0.72-0.12-1.49,0.06-2.14,0.1c-0.36,0.97-0.64,1.71-1.23,3.32c-1.07-1.82-1.72-2.91-2.48-4.19
		c-1,0.44-2.06,1.37-3.02,1.27c-3.6-0.38-4.86,1.88-5.73,4.99c-2.44-0.36-4.7-0.69-6.99-1.02c-0.52,0.64-1.08,1.33-1.54,1.9
		c-1.42-0.19-3.02-0.92-3.79-0.41c-1.94,1.3-3.77,0.4-5.59,0.29c-1.64-0.09-3.25-0.72-4.89-1.01c-0.54-0.1-1.46-0.08-1.64,0.22
		c-0.97,1.64-2.11,0.92-3.34,0.5c-1.35-0.46-2.58-1.92-4.24-0.49c-0.28,0.25-1.2-0.15-1.79-0.35c-1.69-0.57-3.37-1.18-5.23-1.84
		c-0.11,0.77-0.41,1.45-0.25,1.99c0.88,2.88,1.27,6.01,4.13,7.9c2.05,1.36,3.57,3.2,4.96,5.29c1.31,1.99,3.11,4.02,5.18,5.05
		c2.97,1.47,5.32,3.54,7.76,5.62c2.11,1.79,4.42,3.12,7.35,2.94c0.74-0.04,1.53,0.2,2.26,0.43c5.41,1.67,10.94,1.22,16.46,1
		c0.88-0.04,1.76-0.38,2.63-0.61c1.48-0.38,2.94-0.98,4.44-1.14c2.03-0.2,3.73-0.85,5.16-2.31c0.53-0.54,1.18-1.27,1.83-1.33
		c5.01-0.47,8-4.35,11.81-6.83c0.56-0.37,0.9-1.07,1.32-1.59c-0.66-1.11-2.8-0.1-2.29-2.27c1.02-0.16,2.11-0.32,3.17-0.48
		c0.27-0.7,0.37-1.4,0.76-1.86c2.16-2.55,4.46-4.95,3.74-8.78c-0.13-0.68,0.73-1.57,1.19-2.33c1.17-1.93,2.01-3.86,0.89-6.15
		c-0.24-0.5-0.18-1.25-0.03-1.81C117.57,75.39,117.59,75.39,114.16,73.3z M114.14,59.7c-0.01-2.67-0.01-2.67-1.67-2.14
		C112.93,58.17,113.36,58.71,114.14,59.7z"/>
	<path d="M65.73,113.01c2.52,0.36,4.82,0.68,7.12,1C70.86,116.11,68.73,115.86,65.73,113.01z"/>
	<path d="M60.49,109.14c-2.22,0.4-2.83-0.87-3.31-2.62C59.72,105.9,60.03,107.63,60.49,109.14z"/>
	<path d="M40.78,95.5c-2.08-0.86-3.33-1.48-2.9-3.21c0.11-0.45,1.03-0.69,1.9-1.23C40.12,92.56,40.37,93.67,40.78,95.5z"/>
	<path d="M85.55,112.29c-2.75,0.94-3.32-0.7-4.64-1.87C83.38,109.23,83.95,111.11,85.55,112.29z"/>
	<path d="M46.91,92.04c-0.65,0.98-1.3,1.95-2.46,3.7c-0.18-1.82-0.58-2.97-0.26-3.87c0.18-0.49,1.58-0.54,2.42-0.79
		C46.71,91.4,46.81,91.72,46.91,92.04z"/>
	<path d="M89.93,109.39c1.8,0,2.97,0,4.18,0C92.61,111.98,92.61,111.98,89.93,109.39z"/>
	<path d="M67.07,107.54c0.58,1.31,1.04,2.35,1.67,3.78C65.41,110.1,65.41,110.1,67.07,107.54z"/>
	<path d="M90.85,105.69c-0.37-0.93-0.74-1.86-1.12-2.79c0.44-0.15,1.24-0.49,1.28-0.42c0.47,0.89,0.83,1.84,1.21,2.77
		C91.77,105.38,91.31,105.54,90.85,105.69z"/>
	<path d="M47.15,99.57c-0.96-0.2-1.97-0.31-2.86-0.68c-0.17-0.07,0.1-1.2,0.21-2.16c1.21,0.85,2.08,1.45,2.95,2.06
		C47.35,99.05,47.25,99.31,47.15,99.57z"/>
	<path d="M52.52,91.81c-0.28,1.79-0.45,2.82-0.64,4.03C49.29,94.08,49.29,94.08,52.52,91.81z"/>
	<path d="M88.45,107.84c-2.03,1.81-2.03,1.81-4.1-0.31C85.82,107.64,86.78,107.72,88.45,107.84z"/>
	<path d="M83.74,103.89c-1.94,1.39-3.1,1.58-4.57-0.95C81.01,103.32,82.1,103.55,83.74,103.89z"/>
	<path d="M61.81,101.78c1.38,0.63,2.41,1.11,3.67,1.68C62.61,104.91,62.61,104.91,61.81,101.78z"/>
	<path d="M54.42,103.96c-1.76,0.84-2.85,0.94-3.3-0.55c-0.12-0.39,0.44-0.98,0.69-1.48C52.59,102.54,53.37,103.15,54.42,103.96z"/>
	<path d="M99.18,100.23c-1.04,2.25-1.81,3.13-3.29,2.39c-0.21-0.1-0.32-0.92-0.26-0.95C96.53,101.25,97.47,100.9,99.18,100.23z"/>
	<path d="M77.85,94.55c-0.44-0.85-0.89-1.69-1.33-2.54c0.31-0.16,0.84-0.5,0.89-0.44c0.6,0.72,1.12,1.49,1.67,2.25
		C78.66,94.07,78.26,94.31,77.85,94.55z"/>
	<path d="M78.64,88.88c-1.87,0.19-2.52-0.5-2.35-2.35C77.99,86.54,78.59,87.28,78.64,88.88z"/>
	<path d="M61.05,95.9c-0.91-1.45-1.47-2.34-2.38-3.8C61.4,92.96,61.4,92.96,61.05,95.9z"/>
	<path d="M111.74,81.78c-1.29-0.16-2.04-0.65-1.81-1.93c0.04-0.24,0.65-0.61,0.87-0.54C112.06,79.72,112.13,80.62,111.74,81.78z"/>
	<path d="M56.75,97.36c0.76,0.64,1.51,1.28,2.49,2.11C57.01,99.96,57.01,99.96,56.75,97.36z"/>
	<path d="M71.53,104.09c-1.63,1.05-2.27,0.07-2.77-1.29C70.41,102.38,70.41,102.38,71.53,104.09z"/>
	<path d="M77.68,112.07c-1.64,0.57-2.54,0.14-2.85-1.83C76.51,109.98,77.36,110.5,77.68,112.07z"/>
	<path d="M77.52,106.53c-1.31,1.3-2.15,1.11-2.78,0.13c-0.16-0.26,0.17-0.84,0.28-1.27C75.8,105.75,76.57,106.1,77.52,106.53z"/>
	<path d="M105.79,82.68c-0.43-0.91-0.86-1.81-1.44-3.03C107.11,79.66,106.83,81.09,105.79,82.68z"/>
	<path d="M101.62,97.08c1.06-0.2,2.12-0.4,3.38-0.64C103.97,98.35,103.97,98.35,101.62,97.08z"/>
	<path d="M66.43,96.51c0.95,0.25,1.9,0.49,3.44,0.89c-1.88,1.35-2.84,1.07-3.7,0.06C66.25,97.14,66.34,96.83,66.43,96.51z"/>
	<path d="M72.08,92.05c-1.71,2.51-2.32,0.87-2.93-0.67C70.03,91.58,70.91,91.78,72.08,92.05z"/>
	<path d="M100.94,83.12c-0.93-0.71-1.58-1.21-2.64-2.03C100.57,80.4,101.5,80.55,100.94,83.12z"/>
	<path d="M109.96,93.17c-1.33,1.56-2.24,1.52-4.03,0C107.66,93.17,108.57,93.17,109.96,93.17z"/>
	<path d="M113.8,71.35c-0.61-0.3-1.23-0.61-1.84-0.91c0.2-0.39,0.39-0.78,0.59-1.16c0.55,0.35,1.09,0.7,1.64,1.05
		C114.06,70.67,113.93,71.01,113.8,71.35z"/>
	<path d="M111.05,76.62c-1.58-0.86-2.25-1.67-1.08-3.22C111.53,74.08,111.7,75.08,111.05,76.62z"/>
	<path d="M98.43,104.84c0.76,0,1.52,0,2.51,0C100.13,106.45,99.32,106.31,98.43,104.84z"/>
	<path d="M113.23,84.78c-1.33,2.23-2.18,2.67-3.28,0.56C110.92,85.17,111.76,85.03,113.23,84.78z"/>
	<path d="M114.11,80.69c-0.64-0.87-1.08-1.47-1.63-2.23C114.34,78.48,114.34,78.48,114.11,80.69z"/>
	<path d="M104.68,85.99c0.62,0.27,1.24,0.53,1.84,0.83c0.03,0.02-0.17,0.6-0.19,0.6c-0.67-0.14-1.32-0.32-1.98-0.49
		C104.46,86.62,104.57,86.31,104.68,85.99z"/>
	<path d="M92.33,86.77c-1.09,0.38-1.56,0.71-1.91,0.61c-0.33-0.1-0.52-0.64-0.78-0.99c0.31-0.17,0.64-0.49,0.94-0.46
		C90.98,85.97,91.36,86.28,92.33,86.77z"/>
</g>
</svg>
