<?xml version="1.0" encoding="utf-8"?>
<!-- Generator: Adobe Illustrator 23.0.1, SVG Export Plug-In . SVG Version: 6.00 Build 0)  -->
<svg version="1.1" id="Layer_1" xmlns="http://www.w3.org/2000/svg" xmlns:xlink="http://www.w3.org/1999/xlink" x="0px" y="0px"
	 viewBox="0 0 150 150" style="enable-background:new 0 0 150 150;" xml:space="preserve">
<style type="text/css">
	.st0{fill:#F49AB4;}
	.st1{fill:#F28DA7;}
	.st2{fill:#E85072;}
	.st3{fill:#E84B6F;}
	.st4{fill:#EB5A7D;}
	.st5{fill:#EF7994;}
	.st6{fill:#F8BCCD;}
	.st7{fill:#F38CA8;}
	.st8{fill:#EF728F;}
	.st9{fill:#FCE4EB;}
	.st10{fill:#F0CCCF;}
	.st11{fill:#DE8D95;}
	.st12{fill:#EBBABF;}
	.st13{fill:#E7ACB2;}
	.st14{fill:#E39DA3;}
	.st15{fill:#F5DEE0;}
	.st16{fill:#D97A83;}
	.st17{fill:#E4A6AD;}
	.st18{fill:#E9B6BB;}
	.st19{fill:#DA9197;}
	.st20{fill:#CC7077;}
	.st21{fill:#C9646C;}
	.st22{fill:#D4848B;}
	.st23{fill:#D17A81;}
	.st24{fill:#DD9EA3;}
	.st25{fill:#C65760;}
	.st26{fill:#D48189;}
	.st27{fill:#CF6E76;}
	.st28{fill:#C1575F;}
	.st29{fill:#B8424B;}
	.st30{fill:#B33C43;}
	.st31{fill:#BB4952;}
	.st32{fill:#C65E66;}
	.st33{fill:#BC4F57;}
	.st34{fill:#B0353D;}
	.st35{fill:#D67E84;}
	.st36{fill:#C6636B;}
	.st37{fill:#CA6C72;}
	.st38{fill:#B9454D;}
	.st39{fill:#C05B63;}
	.st40{fill:#C0545B;}
	.st41{fill:#BE4C53;}
	.st42{fill:#B43C44;}
	.st43{fill:#DF999F;}
	.st44{fill:#D27980;}
	.st45{fill:#C1555D;}
	.st46{fill:#CB6F76;}
	.st47{fill:#C8676E;}
	.st48{fill:#D5838A;}
	.st49{fill:#C65D64;}
	.st50{fill:#F1D1D4;}
	.st51{fill:#D38087;}
	.st52{fill:#CF737C;}
	.st53{fill:#D98C94;}
	.st54{fill:#E6B3B9;}
	.st55{fill:#D8898F;}
	.st56{fill:#C66269;}
	.st57{fill:#C96A72;}
	.st58{fill:#DD9399;}
	.st59{fill:#CF747B;}
	.st60{fill:#D48188;}
	.st61{fill:#D37D85;}
	.st62{fill:#DC9298;}
	.st63{fill:#D8838B;}
	.st64{fill:#FAECED;}
	.st65{fill:#EFCBD0;}
	.st66{fill:#EDC1C5;}
	.st67{fill:#D28089;}
	.st68{fill:#CB747D;}
	.st69{fill:#A8343C;}
	.st70{fill:#A62F37;}
	.st71{fill:#B03E44;}
	.st72{fill:#C25C63;}
	.st73{fill:#E1A8AC;}
	.st74{fill:#BE535C;}
	.st75{fill:#CE727C;}
	.st76{fill:#F5D8DA;}
	.st77{fill:#D8BAE7;}
	.st78{fill:#BC8FD2;}
	.st79{fill:#B17FC9;}
	.st80{fill:#7D3CA4;}
	.st81{fill:#884BAE;}
	.st82{fill:#A369BF;}
	.st83{fill:#D2B5E2;}
	.st84{fill:#9A62BC;}
	.st85{fill:#B17ECB;}
	.st86{fill:#ECE0F2;}
	.st87{fill:#FBCBC8;}
	.st88{fill:#F5908C;}
	.st89{fill:#F28580;}
	.st90{fill:#E64640;}
	.st91{fill:#E5413B;}
	.st92{fill:#E74E49;}
	.st93{fill:#ED6D68;}
	.st94{fill:#F7B5B0;}
	.st95{fill:#ED6660;}
	.st96{fill:#F48580;}
	.st97{fill:#FBDFDF;}
	.st98{fill:#F9C1C0;}
	.st99{fill:#F7B7B6;}
	.st100{fill:#EF7573;}
	.st101{fill:#EF6F6D;}
	.st102{fill:#F17F7C;}
	.st103{fill:#F4A19F;}
	.st104{fill:#F39998;}
	.st105{fill:#EC7271;}
	.st106{fill:#FAD1CF;}
	.st107{fill:#FADCDC;}
	.st108{fill:#F39391;}
	.st109{fill:#FDECEC;}
	.st110{fill:#FCDDDD;}
	.st111{fill:#ED8280;}
	.st112{fill:#E66160;}
	.st113{fill:#F18784;}
	.st114{fill:#F19593;}
	.st115{fill:#EB7675;}
	.st116{fill:#E86867;}
	.st117{fill:#F28785;}
	.st118{fill:#F3A7A7;}
	.st119{fill:#F08C8B;}
	.st120{fill:#F08785;}
	.st121{fill:#E55D5B;}
	.st122{fill:#E86D6C;}
	.st123{fill:#E85F5D;}
	.st124{fill:#E75958;}
	.st125{fill:#EA6664;}
	.st126{fill:#E76260;}
	.st127{fill:#E04948;}
	.st128{fill:#ED7371;}
	.st129{fill:#EA6B6A;}
	.st130{fill:#EB6763;}
	.st131{fill:#E45352;}
	.st132{fill:#E54E4C;}
	.st133{fill:#DE3635;}
	.st134{fill:#E65958;}
	.st135{fill:#E0413E;}
	.st136{fill:#EA6D6A;}
	.st137{fill:#EE9493;}
	.st138{fill:#EA6866;}
	.st139{fill:#F2A8A6;}
	.st140{fill:#E14543;}
	.st141{fill:#E3413F;}
	.st142{fill:#E64A48;}
	.st143{fill:#E56967;}
	.st144{fill:#E33F3D;}
	.st145{fill:#EB7775;}
	.st146{fill:#EE8483;}
	.st147{fill:#E64845;}
	.st148{fill:#E75655;}
	.st149{fill:#E65451;}
	.st150{fill:#EA7473;}
	.st151{fill:#E55B57;}
	.st152{fill:#E75756;}
	.st153{fill:#EB7472;}
	.st154{fill:#EE8C8A;}
	.st155{fill:#F5A3A2;}
	.st156{fill:#E14A49;}
	.st157{fill:#E14D4C;}
	.st158{fill:#E14B49;}
	.st159{fill:#DE3E3D;}
	.st160{fill:#E45350;}
	.st161{fill:#E14544;}
	.st162{fill:#E54E4B;}
	.st163{fill:#E34240;}
	.st164{fill:#E75C5A;}
	.st165{fill:#EB7C7B;}
	.st166{fill:#F3A2A1;}
	.st167{fill:#EA7877;}
	.st168{fill:#E66B6A;}
	.st169{fill:#E96A69;}
	.st170{fill:#E56160;}
	.st171{fill:#E44845;}
	.st172{fill:#EC7473;}
	.st173{fill:#F9C0D3;}
	.st174{fill:#F298B5;}
	.st175{fill:#EE89A7;}
	.st176{fill:#E54D73;}
	.st177{fill:#E44771;}
	.st178{fill:#E7567E;}
	.st179{fill:#EC7797;}
	.st180{fill:#F8BCCF;}
	.st181{fill:#EB6D8F;}
	.st182{fill:#F089A8;}
	.st183{fill:#FCE2EB;}
	.st184{fill:#E55B7F;}
	.st185{fill:#E6708E;}
	.st186{fill:#EB87A2;}
	.st187{fill:#E25677;}
	.st188{fill:#E7678B;}
	.st189{fill:#FBD7E3;}
	.st190{fill:#ED80A1;}
	.st191{fill:#E24166;}
	.st192{fill:#E13B65;}
	.st193{fill:#E34870;}
	.st194{fill:#E76486;}
	.st195{fill:#F49DB8;}
	.st196{fill:#F7BFD1;}
	.st197{fill:#E65C7F;}
	.st198{fill:#F6ABC4;}
	.st199{fill:#F6A7C2;}
	.st200{fill:#EA6189;}
	.st201{fill:#DB3258;}
	.st202{fill:#DA2E55;}
	.st203{fill:#F7B2C9;}
	.st204{fill:#EA6A8D;}
	.st205{fill:#DC355B;}
	.st206{fill:#DB3159;}
	.st207{fill:#DF3C63;}
	.st208{fill:#F9C5D6;}
	.st209{fill:#EB7697;}
	.st210{fill:#DE3B61;}
	.st211{fill:#DE375F;}
	.st212{fill:#E1426A;}
	.st213{fill:#FDE7EE;}
	.st214{fill:#EE89A9;}
	.st215{fill:#E2456B;}
	.st216{fill:#E14069;}
	.st217{fill:#E44D75;}
	.st218{fill:#E86B8C;}
	.st219{fill:#EE7A9C;}
	.st220{fill:#F5A8C0;}
	.st221{fill:#FACBDA;}
	.st222{fill:#E65A7D;}
	.st223{fill:#E04169;}
	.st224{fill:#FEF5F9;}
	.st225{fill:#F191B0;}
	.st226{fill:#EA7292;}
	.st227{fill:#F6B4C9;}
	.st228{fill:#FBD8E5;}
	.st229{fill:#E96C8F;}
	.st230{fill:#E35477;}
	.st231{fill:#EA7396;}
	.st232{fill:#EB7A9D;}
	.st233{fill:#E8698D;}
	.st234{fill:#EB7094;}
	.st235{fill:#E04B6E;}
	.st236{fill:#E66085;}
	.st237{fill:#EB7294;}
	.st238{fill:#E7678C;}
	.st239{fill:#EA6D91;}
	.st240{fill:#E14C71;}
	.st241{fill:#EE7A9D;}
	.st242{fill:#F393B2;}
	.st243{fill:#DC3F64;}
	.st244{fill:#EF82A3;}
	.st245{fill:#F39DB9;}
	.st246{fill:#DF466B;}
	.st247{fill:#DF4469;}
	.st248{fill:#F29A98;}
	.st249{fill:#E64F4D;}
	.st250{fill:#E74947;}
	.st251{fill:#E85956;}
	.st252{fill:#EC7775;}
	.st253{fill:#F8BCBA;}
	.st254{fill:#EC6F6D;}
	.st255{fill:#FCE2E2;}
	.st256{fill:#F8C8C6;}
	.st257{fill:#F08B89;}
	.st258{fill:#F18A89;}
	.st259{fill:#B093A4;}
	.st260{fill:#A38295;}
	.st261{fill:#6F455A;}
	.st262{fill:#694055;}
	.st263{fill:#794F64;}
	.st264{fill:#936F83;}
	.st265{fill:#CDB7C1;}
	.st266{fill:#B596A5;}
	.st267{fill:#A58394;}
	.st268{fill:#8C667A;}
	.st269{fill:#B696A7;}
	.st270{fill:#E8E0E7;}
	.st271{fill:#E1BCC2;}
	.st272{fill:#A9666E;}
	.st273{fill:#681C23;}
	.st274{fill:#641920;}
	.st275{fill:#73242D;}
	.st276{fill:#8D3F48;}
	.st277{fill:#C69197;}
	.st278{fill:#893841;}
	.st279{fill:#E3CCCE;}
	.st280{fill:#6F292E;}
	.st281{fill:#A15A63;}
	.st282{fill:#944952;}
	.st283{fill:#944953;}
	.st284{fill:#964A53;}
	.st285{fill:#984B54;}
	.st286{fill:#974A53;}
	.st287{fill:#A25A62;}
	.st288{fill:#D2BCC8;}
	.st289{fill:#C8B2BE;}
	.st290{fill:#936A80;}
	.st291{fill:#8E667B;}
	.st292{fill:#9B7589;}
	.st293{fill:#B293A3;}
	.st294{fill:#916B7F;}
	.st295{fill:#DDCCD6;}
	.st296{fill:#AC8B9C;}
	.st297{fill:#F1EBEF;}
	.st298{fill:#9C7A8C;}
	.st299{fill:#8F6C80;}
	.st300{fill:#B99DAC;}
	.st301{fill:#A27F91;}
	.st302{fill:#C2A7B6;}
	.st303{fill:#AB8E9F;}
	.st304{fill:#936D82;}
	.st305{fill:#856174;}
	.st306{fill:#B99DAB;}
	.st307{fill:#C2A9B6;}
	.st308{fill:#A38091;}
	.st309{fill:#BBA3B0;}
	.st310{fill:#7A5468;}
	.st311{fill:#855F73;}
	.st312{fill:#AE8E9F;}
	.st313{fill:#7C556A;}
	.st314{fill:#7B5066;}
	.st315{fill:#855C71;}
	.st316{fill:#AF8E9F;}
	.st317{fill:#734B60;}
	.st318{fill:#694256;}
	.st319{fill:#916A80;}
	.st320{fill:#886378;}
	.st321{fill:#875C71;}
	.st322{fill:#714B5E;}
	.st323{fill:#582F42;}
	.st324{fill:#795066;}
	.st325{fill:#5E3A4B;}
	.st326{fill:#8A6578;}
	.st327{fill:#A98E9D;}
	.st328{fill:#B9A1B1;}
	.st329{fill:#B08F9F;}
	.st330{fill:#B898AA;}
	.st331{fill:#896578;}
	.st332{fill:#653C50;}
	.st333{fill:#623A4E;}
	.st334{fill:#6C4257;}
	.st335{fill:#B28FA1;}
	.st336{fill:#80596E;}
	.st337{fill:#7F586C;}
	.st338{fill:#765063;}
	.st339{fill:#683F53;}
	.st340{fill:#774E63;}
	.st341{fill:#704B5F;}
	.st342{fill:#674355;}
	.st343{fill:#7F5A6E;}
	.st344{fill:#815A6E;}
	.st345{fill:#6A4558;}
	.st346{fill:#5D374A;}
	.st347{fill:#926D80;}
	.st348{fill:#70475B;}
	.st349{fill:#72495E;}
	.st350{fill:#673D52;}
	.st351{fill:#673D51;}
	.st352{fill:#60364B;}
	.st353{fill:#795265;}
	.st354{fill:#683F52;}
	.st355{fill:#7A5368;}
	.st356{fill:#987387;}
	.st357{fill:#70475C;}
	.st358{fill:#A07D92;}
	.st359{fill:#81596E;}
	.st360{fill:#926C7F;}
	.st361{fill:#80596D;}
	.st362{fill:#CDC0E4;}
	.st363{fill:#A998CF;}
	.st364{fill:#644DA1;}
	.st365{fill:#5E479E;}
	.st366{fill:#6F56A9;}
	.st367{fill:#755CAC;}
	.st368{fill:#8975BA;}
	.st369{fill:#C4BAE0;}
	.st370{fill:#755DAD;}
	.st371{fill:#846DB7;}
	.st372{fill:#E7E2F2;}
	.st373{fill:#9B89C5;}
	.st374{fill:#8871B8;}
	.st375{fill:#9C89C6;}
	.st376{fill:#8673B9;}
	.st377{fill:#B9E1BA;}
	.st378{fill:#ADDBAE;}
	.st379{fill:#99D09A;}
	.st380{fill:#65B567;}
	.st381{fill:#5FB261;}
	.st382{fill:#70BB71;}
	.st383{fill:#8DCB8E;}
	.st384{fill:#CBE9CB;}
	.st385{fill:#86C687;}
	.st386{fill:#98D099;}
	.st387{fill:#EBF5EB;}
	.st388{fill:#B9D6C9;}
	.st389{fill:#8EBD9E;}
	.st390{fill:#7DB18E;}
	.st391{fill:#408251;}
	.st392{fill:#3A7F4C;}
	.st393{fill:#4A8C5B;}
	.st394{fill:#68A279;}
	.st395{fill:#B5D4BE;}
	.st396{fill:#7CB38B;}
	.st397{fill:#619D71;}
	.st398{fill:#E0ECE4;}
	.st399{fill:#74A38C;}
	.st400{fill:#679880;}
	.st401{fill:#669780;}
	.st402{fill:#669881;}
	.st403{fill:#285E41;}
	.st404{fill:#235A3C;}
	.st405{fill:#31684A;}
	.st406{fill:#4D8268;}
	.st407{fill:#A1C2B0;}
	.st408{fill:#679981;}
	.st409{fill:#467B62;}
	.st410{fill:#D6E5DF;}
	.st411{fill:#8ECA8F;}
	.st412{fill:#7DC07F;}
	.st413{fill:#409841;}
	.st414{fill:#3A933C;}
	.st415{fill:#4AA14B;}
	.st416{fill:#68B569;}
	.st417{fill:#7CC07D;}
	.st418{fill:#B5DDB5;}
	.st419{fill:#61B062;}
	.st420{fill:#7CC17E;}
	.st421{fill:#E0EFE0;}
	.st422{fill:#EBF5DE;}
	.st423{fill:#D4EAB8;}
	.st424{fill:#D2E9B4;}
	.st425{fill:#D8ECBE;}
	.st426{fill:#E2F0CE;}
	.st427{fill:#F3F9EA;}
	.st428{fill:#DFF0CA;}
	.st429{fill:#FAFDF7;}
	.st430{fill:#D3C9BE;}
	.st431{fill:#CBBEB3;}
	.st432{fill:#BBAC9F;}
	.st433{fill:#97826F;}
	.st434{fill:#947E69;}
	.st435{fill:#9F8A79;}
	.st436{fill:#B5A495;}
	.st437{fill:#DED6CE;}
	.st438{fill:#BBAD9F;}
	.st439{fill:#AE9E8D;}
	.st440{fill:#F2EFEC;}
	.st441{fill:#B1A091;}
	.st442{fill:#B1A090;}
	.st443{fill:#D8BACF;}
	.st444{fill:#976286;}
	.st445{fill:#905778;}
	.st446{fill:#4F1939;}
	.st447{fill:#4C1637;}
	.st448{fill:#5A2144;}
	.st449{fill:#773B60;}
	.st450{fill:#B88FAD;}
	.st451{fill:#6E345A;}
	.st452{fill:#8E567D;}
	.st453{fill:#E1CCDA;}
	.st454{fill:#C4E2A7;}
	.st455{fill:#93C35F;}
	.st456{fill:#8EC15A;}
	.st457{fill:#9AC868;}
	.st458{fill:#B0D587;}
	.st459{fill:#DCEBC3;}
	.st460{fill:#C8E0AA;}
	.st461{fill:#ABD280;}
	.st462{fill:#CAE2A9;}
	.st463{fill:#EFF8E7;}
	.st464{fill:#FFF6C0;}
	.st465{fill:#FFEC97;}
	.st466{fill:#FFDC4B;}
	.st467{fill:#FFD945;}
	.st468{fill:#FFDD54;}
	.st469{fill:#FFE774;}
	.st470{fill:#FFF4BA;}
	.st471{fill:#FFE46C;}
	.st472{fill:#FFF9E2;}
	.st473{fill:#FDE2C1;}
	.st474{fill:#F9CA98;}
	.st475{fill:#F9C18A;}
	.st476{fill:#F5994E;}
	.st477{fill:#F49448;}
	.st478{fill:#F8A158;}
	.st479{fill:#F8B577;}
	.st480{fill:#FCDDBC;}
	.st481{fill:#F8B06F;}
	.st482{fill:#FFEFE2;}
	.st483{fill:#F8A7A4;}
	.st484{fill:#EF8262;}
	.st485{fill:#EC605A;}
	.st486{fill:#EB5B55;}
	.st487{fill:#EC6964;}
	.st488{fill:#F28783;}
	.st489{fill:#F9C4C1;}
	.st490{fill:#F2817A;}
	.st491{fill:#EB6449;}
	.st492{fill:#FCE7E7;}
	.st493{fill:#FFEA88;}
	.st494{fill:#FFEB87;}
	.st495{fill:#FDF2E3;}
	.st496{fill:#FDEFDD;}
	.st497{fill:#F9E1C4;}
	.st498{fill:#FADEB9;}
	.st499{fill:#FADDB7;}
	.st500{fill:#FAE0BF;}
	.st501{fill:#FBE9CF;}
	.st502{fill:#F9DAB8;}
	.st503{fill:#FDF5EB;}
	.st504{fill:#FBE6CB;}
	.st505{fill:#FFFBF7;}
	.st506{fill:#FBDFBE;}
	.st507{fill:#F7D8B5;}
	.st508{fill:#FBE8CF;}
	.st509{fill:#FBE3C8;}
	.st510{fill:#F9E8CF;}
	.st511{fill:#F8DBB7;}
	.st512{fill:#FADBB5;}
	.st513{fill:#F7D5AE;}
	.st514{fill:#FDE9D5;}
	.st515{fill:#FAE3C8;}
	.st516{fill:#F7D1A4;}
	.st517{fill:#F5CD9D;}
	.st518{fill:#F7D8B0;}
	.st519{fill:#F8D4A9;}
	.st520{fill:#F8D3A6;}
	.st521{fill:#F8D8AF;}
	.st522{fill:#F7CD9E;}
	.st523{fill:#F4C896;}
	.st524{fill:#FBE3C5;}
	.st525{fill:#F7DBB8;}
	.st526{fill:#F7D8B1;}
	.st527{fill:#F7D7B0;}
	.st528{fill:#F8CD9F;}
	.st529{fill:#F8CD9E;}
	.st530{fill:#F1BE84;}
	.st531{fill:#F8D0A3;}
	.st532{fill:#F1C38D;}
	.st533{fill:#F8D8B1;}
	.st534{fill:#FBE2C8;}
	.st535{fill:#F9EAD3;}
	.st536{fill:#F9D3AA;}
	.st537{fill:#F7C896;}
	.st538{fill:#F7C794;}
	.st539{fill:#F7CA9A;}
	.st540{fill:#F7D3AB;}
	.st541{fill:#F8D8B5;}
	.st542{fill:#F9E6CF;}
	.st543{fill:#F7C897;}
	.st544{fill:#F8D3AA;}
	.st545{fill:#F7CEA2;}
	.st546{fill:#F4CD9E;}
	.st547{fill:#F5D2A5;}
	.st548{fill:#FBE2C2;}
	.st549{fill:#F5D1A8;}
	.st550{fill:#F8D5AB;}
	.st551{fill:#F2C695;}
	.st552{fill:#F8D3A8;}
	.st553{fill:#F5C998;}
	.st554{fill:#F5C894;}
	.st555{fill:#F2C997;}
	.st556{fill:#F2C48D;}
	.st557{fill:#F4C694;}
	.st558{fill:#F5CE9D;}
	.st559{fill:#F4C594;}
	.st560{fill:#F5C995;}
	.st561{fill:#F4C48F;}
	.st562{fill:#F7D2A6;}
	.st563{fill:#F8DFBB;}
	.st564{fill:#FBE2C3;}
	.st565{fill:#F8CC9E;}
	.st566{fill:#FADFC1;}
	.st567{fill:#F9D8B5;}
	.st568{fill:#F4C997;}
	.st569{fill:#F9DDB8;}
	.st570{fill:#FDFCED;}
	.st571{fill:#FBF7D2;}
	.st572{fill:#F9F6CB;}
	.st573{fill:#F4EBA8;}
	.st574{fill:#F5E9A6;}
	.st575{fill:#F5EDAC;}
	.st576{fill:#F7F5C0;}
	.st577{fill:#FBFBE1;}
	.st578{fill:#F7F0BE;}
	.st579{fill:#FAF6CE;}
	.st580{fill:#FFFBF5;}
	.st581{fill:#BDDB97;}
	.st582{fill:#BBDC99;}
	.st583{fill:#BDDD99;}
	.st584{fill:#B0D484;}
	.st585{fill:#AFD484;}
	.st586{fill:#FFEA87;}
	.st587{fill:#D3E9BA;}
	.st588{fill:#E1EECE;}
	.st589{fill:#D3E8BB;}
	.st590{fill:#E3EECE;}
	.st591{opacity:0.9;}
	.st592{fill:#FFF8CD;}
	.st593{opacity:0.9;fill:#FFEE8A;}
	.st594{fill:#FFF19E;}
	.st595{fill:#FFF5B6;}
	.st596{fill:#FFFBE0;}
	.st597{fill:none;stroke:#FFF4B1;stroke-width:0;}
	.st598{fill:#FFFDF3;}
	.st599{fill:#FACEDD;}
	.st600{opacity:0.9;fill:#F38CAF;}
	.st601{fill:#F5A0BD;}
	.st602{fill:#F8B8CD;}
	.st603{fill:#FCE1EA;}
	.st604{fill:none;stroke:#F7B2C9;stroke-width:0;}
	.st605{fill:#FEF3F7;}
	.st606{fill:#FBDBB6;}
	.st607{fill:#FBD1A3;}
	.st608{fill:#F9B674;}
	.st609{fill:#F8B36E;}
	.st610{fill:#FABB7E;}
	.st611{fill:#FACB99;}
	.st612{fill:#FDE9D1;}
	.st613{fill:#FAC893;}
	.st614{fill:#F9D0A1;}
	.st615{fill:#FFF5EC;}
	.st616{fill:#D7ECC0;}
	.st617{fill:#B1D684;}
	.st618{fill:#ADD680;}
	.st619{fill:#B7D98D;}
	.st620{fill:#C8E2A7;}
	.st621{fill:#E8F2D6;}
	.st622{fill:#C3E0A0;}
	.st623{fill:#F5FAEF;}
	.st624{fill:#A87699;}
	.st625{fill:#A9716E;}
	.st626{fill:#9F698A;}
	.st627{fill:#9F698D;}
	.st628{fill:#65294F;}
	.st629{fill:#632638;}
	.st630{fill:#62244A;}
	.st631{fill:#612335;}
	.st632{fill:#6E3259;}
	.st633{fill:#6D2F40;}
	.st634{fill:#8B4E74;}
	.st635{fill:#C4A1BB;}
	.st636{fill:#9D688D;}
	.st637{fill:#82476E;}
	.st638{fill:#E7D6E1;}
	.st639{fill:#FFF9D6;}
	.st640{fill:#FFF2A6;}
	.st641{fill:#FFF4B0;}
	.st642{fill:#FFF7C4;}
	.st643{fill:#FFFCE6;}
	.st644{fill:#FFF3B5;}
	.st645{fill:#FFED8B;}
	.st646{fill:#FFED94;}
	.st647{fill:#FFF1A4;}
	.st648{fill:#FFF5BF;}
	.st649{fill:#FFF6CD;}
	.st650{fill:#FFE46E;}
	.st651{fill:#FFED98;}
	.st652{fill:#FFF3A9;}
	.st653{fill:#FFEC8D;}
	.st654{fill:#FFE66B;}
	.st655{fill:#FFEC8A;}
	.st656{fill:#FFE66D;}
	.st657{fill:#FFE571;}
	.st658{fill:#FFEF94;}
	.st659{fill:#FFEF9E;}
	.st660{fill:#FFED93;}
	.st661{fill:#FFE873;}
	.st662{fill:#FFE97A;}
	.st663{fill:#FFEC87;}
	.st664{fill:#FFF19F;}
	.st665{fill:#FFF1A8;}
	.st666{fill:#FFEA7E;}
	.st667{fill:#FFEB86;}
	.st668{fill:#FFEF97;}
	.st669{fill:#FFF2B0;}
	.st670{fill:#FFF4BC;}
	.st671{fill:#FFF5C1;}
	.st672{fill:#FFF8CF;}
	.st673{fill:#FFF8DC;}
	.st674{fill:#FFF0A0;}
	.st675{fill:#FFEE92;}
	.st676{fill:#FFF6CE;}
	.st677{fill:#FFFADD;}
	.st678{fill:#FFFBEC;}
	.st679{fill:#FFFDF5;}
	.st680{fill:#F49C52;}
	.st681{fill:#F69D52;}
	.st682{fill:#F8A55E;}
	.st683{fill:#F8B472;}
	.st684{fill:#F59D54;}
	.st685{fill:#F8A65F;}
	.st686{fill:#F8B474;}
	.st687{fill:#FDF3E9;}
	.st688{fill:#FAE8D1;}
	.st689{fill:#FAE8CF;}
	.st690{fill:#FAEBD4;}
	.st691{fill:#F9EDD7;}
	.st692{fill:#FBEFDE;}
	.st693{fill:#FBEFDD;}
	.st694{fill:#FDF8F1;}
	.st695{fill:#FBEDD7;}
	.st696{fill:#FBEFDC;}
	.st697{fill:#FFFBFA;}
	.st698{fill:#FFE771;}
	.st699{fill:#FFEB83;}
	.st700{fill:#FFED90;}
	.st701{fill:#F7B6CB;}
	.st702{fill:#F4A2BB;}
	.st703{fill:#EE7397;}
	.st704{fill:#ED6D94;}
	.st705{fill:#EF7C9F;}
	.st706{fill:#F399B5;}
	.st707{fill:#FAD1DE;}
	.st708{fill:#F291AE;}
	.st709{fill:#F3A1BB;}
	.st710{fill:#FDECF2;}
</style>
<g>
	<g>
		<g>
			<g class="st591">
				<g class="st591">
					<path class="st592" d="M40.32,50.25c-1.88-0.94-4.97,1.01-7.48,3.69c-2.56,2.63-4.5,5.92-5.3,6.52
						c-1.53,1.48-2.9,4.57-3.54,8.55c-0.68,3.95-0.64,8.73,0.17,13.23c0.22,1.14,0.42,2.22,0.71,3.3c0.29,1.08,0.6,2.11,0.9,3.08
						c0.71,1.97,1.37,3.71,2.09,5.16c0.34,0.72,0.64,1.37,0.91,1.95c0.29,0.57,0.54,1.06,0.73,1.47c0.37,0.82,0.5,1.31,0.29,1.41
						c-0.64,0.18-1.69,1.01-2.81,2.34c-1.1,1.34-2.26,3.25-2.86,5.79c-0.62,2.5-0.63,5.69,0.4,8.91c0.96,3.2,3.15,6.36,5.09,7.96
						c2.4,2.04,4.88,3.6,7.25,4.78c0.59,0.3,1.21,0.59,1.7,0.8l0.78,0.33l0.65,0.26c0.48,0.19,0.96,0.36,1.45,0.51
						c1.96,0.6,3.98,0.85,6,0.8c4.05-0.15,8.05-1.44,11.48-3.49c3.35-1.78,3.78-3.18,5.16-2.81c0.56,0.04,2.25-4.88,5.59-7.84
						c1.16-0.98,2.51-1.45,3.82-1.97c1.3-0.55,2.55-1.17,3.39-2.33c0.87-0.9,2.22-2.02,3.78-3.18c1.53-1.23,3.28-2.5,4.9-3.9
						c1.65-1.33,3.18-2.77,4.47-4.02c1.26-1.31,2.3-2.4,2.9-3.27c0.58-0.79,1.11-1.54,1.62-2.24c0.48-0.71,0.94-1.36,1.38-1.95
						c0.9-1.17,1.66-2.25,2.52-3.13c0.84-0.91,1.69-1.74,2.71-2.49c0.97-0.8,2.09-1.55,3.39-2.38c1.91-1.03,3.15-2.39,4.14-3.87
						c0.98-1.48,1.72-3.07,2.63-4.76c0.21-0.39,0.43-0.79,0.67-1.21c1.05-2.1,1.52-4.07,1.8-6.05c0.28-1.98,0.4-3.97,0.59-6.3
						c1.12-4.35,1.02-8.67-0.4-13.39c-0.35-0.59-0.7-1.18-1.29-1.5c-0.58-0.33-0.79-1.54-1.18-2.1c-0.25-1.95-0.13-4-0.28-6.03
						c-0.1-1.06-0.19-1.96-0.43-2.87c-0.24-0.89-0.61-1.74-1.18-2.5c-0.6-0.86-2.34-1.59-3.13-0.75c-3.99,4.16-6.4,8.4-8.74,12.22
						c-1.07,1.77-1.41,3.23-1.49,4.65c-0.08,1.41,0.1,2.79,0,4.21c-0.07,1.96-1.8,3.75-4.38,4.94c-2.58,1.21-6,1.85-9.4,2.04
						c-2.64,0.12-6.03-0.04-8.7-0.24c-2.69-0.18-4.65-0.48-4.53-0.27c0.13,0.14,0.42,0.34,0.73,0.57c0.56,0.42,1.21,0.99,1.42,1.44
						c0.21,0.44-0.03,0.75-1.03,0.41c-1.95-0.72-3.38-1.84-4.03-2.41c-0.25-0.24-0.79-0.88-0.84-0.98c0.16,0.25,0,0.02,0.07,0.18
						c0.02,0.06,0.12,0.3,0.28,0.76c0.14,0.43,0.37,1.14,0.66,2.26c0.03,0.81-0.21,0.77-0.35,0.93c-0.16,0.16-0.23,0.51-0.45,2.15
						c-0.27,2.22-0.96,4.58-2.01,6.51c-1.03,1.91-2.46,3.45-3.79,3.77c-0.19,0.06-0.38,0.1-0.56,0.12l-0.14,0.01
						c-0.05-0.01,0,0.02,0.04,0.04l0.1,0.07l0.21,0.14c-1.53,3.61-3.06,7.21-4.59,10.8c-0.43,0.95-0.8,1.45-0.97,1.65l-0.04,0.04
						l-0.01,0.01l-0.07,0.08l0.01-0.01l0.04-0.05l0.17-0.18c0.13-0.13,0.28-0.28,0.46-0.43c0.36-0.33,0.84-0.71,1.46-1.15
						c1.3-0.9,2.98-1.92,6.51-3.62c0.34-0.16,0.73-0.34,1.18-0.55c0.51-0.23,1.07-0.49,1.7-0.77c0.32-0.14,0.66-0.29,1.02-0.45
						c0.04-0.01,0.08-0.04,0.13-0.06c0.1-0.05,0.2-0.1,0.31-0.15c0.23-0.11,0.49-0.22,0.77-0.33c0.13-0.05,0.27-0.1,0.41-0.15
						l0.04-0.01c0.15-0.05,0.36-0.12,0.49-0.15c0.19-0.04,0.35-0.08,0.45-0.1c0.25-0.06,0.47-0.08,0.77-0.12
						c0.37-0.06,0.75-0.1,1.1-0.11c0.4-0.02,0.9-0.06,1.29-0.04l0.13,0.01l-0.17,0c-0.12,0-0.22-0.02-0.34-0.03
						c-0.25-0.03-0.5-0.06-0.74-0.09c-3.94-0.55-6.4-2.51-7.49-5.06c0-0.78,1.46-0.84,1.81-1.51c0.26-1.91-1.63-4.97-1.37-7.67
						c0.88-2.04,1.64-3.65,2.15-4.9c0.5-1.26,0.77-2.16,0.85-2.81c0.18-1.31-0.3-1.56-0.03-1.55c0.8-0.68,2.77,1.26,4.1,0.97
						c1.57-0.69,2.16-2.89,2.29-4.91c0.6-5.58,2.57-11.86,8-11.97c-0.54-0.38-1.02-1.05-1.34-0.94c-3.78,0.14-7.6-0.43-11.32-0.37
						c-3.71,0.06-7.38,0.75-10.44,3.39c-0.37,0.81-0.76,1.88-1.41,2.56c-1.3,1.04-2.26,2.25-3.17,3.48
						c-0.92,0.92-3.35,0.95-6.06,0.71c-1.34-0.11-2.76-0.31-4.05-0.58C42.31,50.94,41.14,50.66,40.32,50.25z"/>
					<path class="st593" d="M96.39,55.9c0.1-1.43-0.08-2.81,0-4.22c0.08-1.42,0.42-2.88,1.49-4.65c2.34-3.82,4.76-8.06,8.75-12.22
						c0.79-0.85,2.53-0.11,3.13,0.76c2.24,2.98,1.42,7.57,1.88,11.42c0.38,0.55,0.6,1.78,1.18,2.1c0.59,0.32,0.95,0.91,1.3,1.51
						c1.41,4.73,1.5,9.06,0.37,13.42c-0.19,2.33-0.32,4.33-0.61,6.31c-0.29,1.98-0.78,3.95-1.83,6.06
						c-0.21,0.38-0.42,0.75-0.62,1.11c-0.93,1.71-1.68,3.32-2.68,4.82c-1,1.49-2.25,2.88-4.19,3.91c-1.31,0.83-2.42,1.59-3.4,2.38
						c-1.02,0.76-1.87,1.59-2.72,2.5c-0.87,0.89-1.63,1.96-2.54,3.13c-0.45,0.6-0.9,1.25-1.39,1.95c-0.51,0.7-1.05,1.45-1.63,2.24
						c-0.6,0.87-1.66,1.96-2.92,3.27c-1.3,1.24-2.83,2.68-4.49,4.01c-1.63,1.39-3.38,2.66-4.92,3.89c-1.56,1.16-2.92,2.29-3.8,3.18
						c-0.84,1.16-2.1,1.79-3.4,2.33c-1.31,0.51-2.67,0.99-3.82,1.96c0,0-0.49-0.45-1.46-1.28c-0.96-0.85-2.38-2-4.12-3.63
						c6.65-3.8,11.91-8.69,15.61-13.71c0.94-1.23,1.75-2.57,2.5-3.79c0.37-0.64,0.7-1.3,1.04-1.92c0.34-0.61,0.66-1.2,0.95-1.83
						c0.58-1.23,1.1-2.42,1.5-3.65c0.43-1.19,0.74-2.41,0.99-3.58c2.01-1.59,3.87-3.35,5.56-5.24c1.67-1.9,3.17-3.97,4.19-6.28
						c1.14-2.54,1.56-5.36,1.49-8.13C97.72,61.27,97.17,58.53,96.39,55.9z"/>
					<path class="st594" d="M68.98,112.32c0,0-1.06,0.76-2.73,1.69c-0.84,0.48-1.83,0.94-2.91,1.39c-1.08,0.44-2.24,0.87-3.4,1.12
						c-1.16,0.27-2.31,0.46-3.34,0.46c-1.03-0.02-1.95-0.19-2.64-0.55c-1.4-0.7-1.83-2.21-0.76-4.76c0,0,0.31-0.37,0.87-1.04
						c0.55-0.68,1.33-1.65,2.24-2.84c0.91-1.2,1.94-2.57,2.99-4.12c1.05-1.56,2.12-3.25,3.13-4.95c1-1.69,1.94-3.36,2.79-4.93
						c0.84-1.6,1.59-3.13,2.26-4.44c0.66-1.35,1.24-2.49,1.78-3.35c0.54-0.89,1.05-1.47,1.6-1.68c0,0,0.8-0.33,1.76-0.82
						c0.46-0.27,0.98-0.56,1.47-0.84c0.47-0.33,0.9-0.65,1.24-0.94c0,0,0.29,0.17,0.76,0.31c0.47,0.15,1.14,0.3,1.9,0.31
						c1.47,0,3.41-0.65,4.06-2.74c0,0,1.15-1.84,2.17-4.1c1.06-2.27,1.91-4.87,2.56-6.7c0.47-1.25,0.97-2.13,2-2.15
						c0,0,0.2-0.3,0.53-0.78c0.31-0.48,0.75-1.16,1.2-1.92c0.93-1.5,1.93-3.39,3.22-4.31c0,0,1.85-0.71,3.42-2.01
						c1.58-1.28,2.83-3.27,1.84-4.92c0,0,1.18-3.38,2.1-6.03c1.05-2.88,2.28-5.55,4.35-2.59c0,0,0.82,0.76,1.77,1.81
						c0.95,1.05,2.02,2.41,2.58,3.4c0,0,0.26,1.17,0.55,3.07c0.29,1.9,0.58,4.52,0.54,7.4c-0.02,2.87-0.41,5.99-1.25,8.8
						c-0.84,2.82-2.16,5.3-3.54,7.02c-1.55,1.95-3.02,3.01-3.68,3.06c0,0-1.57,1.34-3.99,3.2c-2.46,1.85-5.61,4.23-8.94,6.8
						c-3.35,2.59-6.78,5.48-10.22,9.2C75.81,101.62,72.23,106.19,68.98,112.32z"/>
					<path class="st595" d="M68.55,115.34c0,0-0.71,0.85-1.97,1.98c-1.26,1.16-3.12,2.47-5.31,3.53c-1.09,0.52-2.27,0.9-3.46,1.17
						c-0.6,0.13-1.2,0.23-1.79,0.27c-0.59,0.02-1.18,0-1.75-0.07c-1.14-0.15-2.24-0.46-3.18-1.1c-0.94-0.63-1.72-1.54-2.28-2.76
						c0,0-1.11-0.86-2.47-2.38c-0.17-0.19-0.34-0.4-0.52-0.61l-0.27-0.33l-0.14-0.17l-0.28-0.23c-0.7-0.6-1.54-1.33-2.36-2.15
						c-1.63-1.63-3.23-3.73-4.25-5.9c-1.01-2.15-1.3-4.1-1.22-5.66c0.09-1.56,0.52-2.78,1.11-3.69c1.2-1.81,2.9-2.52,4.9-2.11
						c0,0,0.49,0.11,1.39,0.26c0.89,0.14,2.19,0.34,3.68,0.21c1.49-0.11,3.07-0.74,4.3-1.83c0.31-0.27,0.61-0.56,0.92-0.87
						c0.35-0.29,0.77-0.57,1.16-0.88c0.79-0.61,1.58-1.28,2.35-1.99c3.11-2.85,5.77-6.11,7.68-8.75c1.95-2.66,3.15-4.71,4.44-5.45
						c0,0,0.16-0.05,0.31-0.58c0.15-0.51,0.28-1.62,0.02-3.5c0,0,0.05-0.25,0.14-0.64c0.08-0.38,0.23-0.75,0.42-1.06
						c0.41-0.59,1.05-0.66,3.11,1.04c0,0,1.73,0.96,3.86,1.27c1.06,0.18,2.18,0.17,3.09-0.02c0.88-0.21,1.55-0.6,1.59-1.16
						c0,0,1.2,0.26,2.34,0.18c1.13-0.06,2.18-0.51,1.59-1.46c0,0,0.14,0.89,0,2.26c-0.13,1.36-0.58,3.22-1.5,5.02
						c-0.9,1.8-2.26,3.55-3.71,4.56c-0.72,0.51-1.45,0.83-2.1,0.94c-0.67,0.08-1.26-0.05-1.75-0.47c0,0-0.14-0.03-0.37-0.05
						c-0.23-0.01-0.56-0.04-0.95-0.02c-0.39,0.02-0.83,0.1-1.29,0.29c-0.48,0.14-0.98,0.39-1.5,0.81c-1.06,0.78-2.18,2.13-3.68,4.46
						c-1.5,2.37-3.39,5.67-6.38,10.45c0,0-0.06,0.23-0.17,0.62c-0.1,0.4-0.25,0.98-0.4,1.68c-0.3,1.41-0.65,3.31-0.69,5.32
						c-0.04,2,0.23,4.14,1.3,5.89C63.55,113.43,65.46,114.9,68.55,115.34z"/>
					<path class="st596" d="M56.37,130.52c-1.49,0.91-3.05,1.83-4.7,2.69c-1.65,0.86-3.39,1.67-5.15,2.12
						c-1.87,0.3-4.36-0.57-6.42-0.9c-0.33-0.07-0.66-0.17-0.99-0.29l-0.48-0.19l-0.68-0.3l-1.06-0.49
						c-0.35-0.17-0.67-0.33-1.09-0.55c-0.8-0.42-1.52-0.83-2.3-1.32c-3.04-1.88-5.87-4.34-7.93-6.55c-2.31-2.65-4.36-5.6-5.83-8.3
						c-1.5-2.73-2.49-5.21-3.2-7.37c-0.34-1.07-0.61-2.05-0.82-2.95c-0.21-0.89-0.34-1.7-0.5-2.56c-0.3-1.69-0.59-3.38-0.69-5.05
						c-0.6-6.69,0.42-12.88,3.37-16.56c0.63-1.25,1.07-2.1,1.26-3.36c-0.21-0.36-0.53-1.75-0.7-2.1c0.26-3.85,1.38-7.3,1.9-10.62
						c0.14-1.4,0.56-2.68,1.12-3.91c0.58-1.21,1.36-2.29,2.22-3.3c0.89-0.99,1.9-1.87,2.95-2.68c1.07-0.79,2.21-1.48,3.33-2.12
						c1.22-0.73,2.43-1.59,3.64-2.45c1.25-0.83,2.43-1.7,3.72-2.38c2.18-1.25,4.49-0.66,6.64-0.1c2.16,0.55,4.18,1.18,5.79,0.32
						c2.75-1.17,4.31-3.16,5.96-5.22c1.63-2.04,3.35-4.05,6-4.79c3.25-0.57,5.87-1.3,9.18-0.82c2.64,0.73,5.06,0.73,7.69,1.25
						c0.59,0.08,2.74,1.59,2.95,2.07c0.17,0.77-1.06,0.9-1.47,1.59c-1.2,1.78-3.51-0.49-5.25-1c-2.05-0.4-3.52,1.24-5.42,1.98
						c-0.92,0.07-1.8-0.13-2.98-0.51c-1.75-0.69-2.59,1.11-3.62,2.45c-1.05,1.95-4.1,1.41-5.7,2.97c-1.11,0.94-1.57,2.47-2.03,3.8
						c-0.48,1.33-0.96,2.49-2.32,2.84c1.21-0.24-0.23,1.36-1.73,2.94c-0.37,0.4-0.77,0.78-1.12,1.13c-0.34,0.36-0.67,0.67-0.94,0.9
						c-0.54,0.45-0.86,0.57-0.67,0.01c0.08,0.29-1.26,0.16-2.01-0.18c-0.41-0.33-1.16-0.67-1.24-0.98
						c-0.56-2.48-3.21-4.28-4.88-6.37c-0.17,0-1.47,1.38-2.99,3.06c-1.56,1.65-3.34,3.63-4.98,4.5c-2.66,1.21-5.46,2.41-6.82,5.38
						c-0.11,0.84,1.03,1.64,0.97,2.47c-0.26,0.88,0.62,7.58,3.2,13.61c0.32,0.74,0.65,1.48,0.96,2.21c0.35,0.72,0.72,1.43,1.07,2.1
						c0.67,1.34,1.48,2.57,2.1,3.61c1.36,2.1,2.35,3.54,2.38,4.16c-0.09,0.77-0.39,1.76-0.81,2.6c-0.41,0.84-0.92,1.56-1.61,1.62
						c-1.77,0.55-2.74,1.68-3.36,3.22c-0.64,1.53-0.83,3.53-1.52,5.22c-0.48,0.76-2.05,0.17-2.55,0.91c-0.46,1.33-0.7,3.16-0.2,5.34
						c0.25,1.09,0.69,2.26,1.38,3.44c0.67,1.18,1.63,2.4,2.73,3.43c1.75,1.88,3.82,3.57,5.88,4.9c0.53,0.35,1.05,0.66,1.55,0.95
						c0.49,0.28,1.08,0.6,1.52,0.82c0.46,0.23,0.92,0.46,1.39,0.67l0.71,0.35c1.72,0.81,3.55,1.22,5.18,1.19
						c1.62,0.39,3.26,0.71,4.93,0.9C53,130.22,54.67,130.46,56.37,130.52z"/>
					<path class="st597" d="M70.19,63.04c0,0,1.15,0.66,1.33,1.28c0.1,0.3-0.05,0.56-0.57,0.55c-0.52-0.01-1.41-0.28-2.69-1.15
						c0,0-0.68-0.38-1.23-0.81c-0.57-0.42-0.99-0.88-0.88-0.71c-0.24-0.27-0.47-0.56-0.68-0.85c-0.01,0-0.09-0.16,0.06,0.12
						c0.07,0.14,0.16,0.36,0.33,0.88c0.14,0.43,0.34,1.13,0.61,2.11c0,0,0.01,0.11,0.01,0.24c0,0.13-0.01,0.31-0.04,0.46
						c-0.05,0.31-0.18,0.53-0.29,0.18c0,0-0.1-0.09-0.2,0.55c-0.12,0.65-0.23,2.06-0.91,5.11"/>
					<path class="st598" d="M19.84,60.31c0.4-0.57,1.23-1.66,2.34-2.93c1.14-1.23,2.51-2.69,4.04-3.97
						c1.49-1.32,3.13-2.49,4.56-3.42c1.48-0.9,2.8-1.54,3.71-1.81c1.43-0.44,2.84-0.84,4.2-1.14c1.35-0.24,2.68-0.45,4-0.59
						c2.65-0.27,5.25-0.32,7.89-0.17c0.45-0.08,0.89-0.36,0.91-0.79c0.17-1.59,1.08-2.52,2.05-3.34c0.98-0.79,2.03-1.48,2.59-2.54
						c0.54-0.87,0.71-2.14,1.65-2.58c4.95-2.34,10.44-2.11,15.86-0.64c2.33,0.68,4.69,2.12,7.12,3.16c0.54,0.38,1.29,0.69,1.57,1.33
						c0.32,0.45-0.49,0.53-0.76,0.89c-0.59-0.08-1.3-0.59-2.08-0.7c-1.54-0.42-2.85,0.2-4.36-0.39c-1.55-0.39-3.04-1.17-4.65-1.33
						c-1.03,0-1.87,0.12-2.75,0.47c-3.41,0.76-6.56,2.12-9.28,4.31c0.02,2.34-2.48,2.51-3.8,3.52c-0.43,0.26-1.07,0.25-1.72,0.45
						c-0.66,0.4-1.13,1.05-1.66,1.56c-0.53,0.5-1.11,0.85-1.99,0.75c-3.76-0.71-7.38-0.92-11.25,0.2c-0.77,0.22-1.99,0.77-3.45,1.56
						c-1.41,0.82-3.09,1.86-4.64,3.1c-1.6,1.2-3.07,2.59-4.31,3.83c-1.2,1.28-2.14,2.42-2.61,3.13c-0.65,0.95-1.15,1.96-1.56,3
						c-0.39,1.06-0.65,2.17-0.9,3.27c-0.45,2.25-0.75,4.49-1.36,6.8c-0.03,0.21-1.19-0.79-1.76-3.32c-0.13-0.63-0.23-1.35-0.26-2.17
						c-0.04-0.83,0.01-1.74,0.18-2.72C17.67,65.09,18.43,62.79,19.84,60.31z"/>
				</g>
			</g>
		</g>
	</g>
</g>
<g>
	<path d="M120.34,39.51c0.52,2.11,0.71,4.14,1.52,5.88c1.5,3.23,1.56,6.54,1.35,9.95c-0.11,1.77-0.11,3.55-0.13,5.32
		c-0.03,5.25-1.58,10.12-3.31,15.03c-1.7,4.84-3.93,9.32-7.33,13.1c-2.98,3.31-6.11,6.53-9.48,9.44
		c-5.23,4.52-10.54,8.96-16.13,13.01c-4.33,3.14-9.22,5.13-14.65,6.24c-6.16,1.26-12.26,1-18.31,0.5
		c-5.31-0.44-10.76-0.82-15.85-2.94c-2.48-1.03-5.08-1.87-7.69-2.5c-5.19-1.25-8.73-4.26-10.6-9.23
		c-1.92-5.09-3.11-10.21-2.63-15.79c0.57-6.68,3.38-12.41,6.69-17.92c5.33-8.88,12.47-16.22,21.01-22.03
		c4.04-2.75,8.59-4.8,13.04-6.89c4.32-2.03,8.69-4.06,13.24-5.46c6.61-2.04,13.32-4.01,20.13-5.07c4.9-0.76,9.92-0.28,14.98,1.18
		c4.73,1.36,7.84,4.52,11.1,6.91c2.19-0.47,4.01-0.74,5.76-1.27c0.92-0.28,1.71-0.98,2.79-1.63c-1.22-1.26-2.93-2.27-1.26-3.93
		c1.12-1.11,2.16-0.57,4.04,1.97c3.38,0.25,5.57-2.73,8.71-3.4c-1.9,2.78-4.29,4.39-7.07,4.89c-0.77,0.14-1.91,0.18-2.22,0.67
		C126.29,38.34,123.49,39.06,120.34,39.51z M71.75,107.9c1.62,0.6,1.09,2.11,1.47,3.28c0.38,1.15,0.93,2.64,1.85,3.11
		c1.18,0.61,2.75,0.21,3.5-0.98c-0.87-2.62-1.65-4.96-2.5-7.5c-1.57,0.82-2.89,1.52-4.21,2.22c-1.21,0.27-2.41,0.54-3.55,0.79
		c0.13,3.91,0.31,4.55,1.95,7.08c1.01-0.23,2.09-0.47,3.26-0.73C71.74,111.87,71.74,111.87,71.75,107.9z M88.7,105.76
		c-2.51-0.85-1.49-4.03-3.72-5.51c-0.66,0.69-1.94,1.41-1.92,2.1c0.07,2.56-0.47,5.4,2.02,7.53c0.96-0.55,1.81-1.16,2.76-1.57
		c1.4-0.61,1.04-1.61,0.76-2.63c3.5,0.72,4.63-0.38,3.96-3.7c-0.39-1.9-1.14-3.52-2.76-4.87c-1.02,0.66-1.98,1.28-2.88,1.86
		C87.54,101.35,88.12,103.55,88.7,105.76z M95.32,32.12c-4.5-0.56-9.1,0.57-13.67,1.8c-7.51,2.02-14.92,4.44-21.96,7.76
		c-5.21,2.46-10.7,4.76-15.15,8.29c-8.97,7.11-16.63,15.45-21.8,26.01c-4.54,9.28-4.63,18.32-0.65,27.56
		c0.76,1.78,2.01,3.73,3.59,4.7c4.03,2.48,8.61,4.03,13.36,4.03c7.77,0,15.45-0.58,22.96-3.31c6.97-2.54,13.99-4.74,20.16-9.05
		c6.93-4.84,14.21-9.22,19.67-15.9c3.5-4.28,7.59-8.06,10.4-12.92c1.29-2.23,2.8-4.41,4.56-6.28c2.75-2.9,3.06-6.76,4.55-10.15
		c0.17-0.4,0.11-0.96,0-1.4c-0.63-2.69-1.27-5.38-2-8.04c-0.24-0.9-0.57-1.86-1.13-2.57c-2.79-3.53-5.93-6.65-10.18-8.47
		C104.06,32.47,99.96,31.61,95.32,32.12z M120.07,63.97c-1.26,1.54-2.68,2.97-3.74,4.63c-3.41,5.36-6.85,10.69-11.54,15.06
		c-1.85,1.72-2.84,3.64-2.35,6.24c0.2,1.07,0.03,2.2,0.03,3.3c-0.24,0.01-0.47,0.02-0.71,0.04c-0.14-1.54-0.29-3.08-0.47-5
		c-1.45,1.11-2.52,1.93-3.59,2.76c0.5,2.6,0.98,5.05,1.47,7.59C110.64,89.48,118.92,78.82,120.07,63.97z M94.05,102.92
		c2.45-1.22,3.91-2.28,3.84-3.42c-0.16-2.38-0.65-4.74-1.1-7.7c-2.12,1.63-3.65,2.81-5.2,3.99
		C92.46,98.31,93.25,100.61,94.05,102.92z M77.52,105.09c0.33,1.67,0.46,2.84,0.8,3.95c0.36,1.18,0.9,2.31,1.5,3.79
		c1.61-0.84,2.81-1.46,3.82-1.99c-0.85-2.69-1.61-5.11-2.43-7.74C79.94,103.79,78.73,104.43,77.52,105.09z M63.51,110.92
		c-2.59,0.4-2.72,0.55-2.44,2.69c0.34,2.49,0.97,2.95,3.61,2.57C64.31,114.51,63.94,112.84,63.51,110.92z M59.35,112.31
		c-1.69-0.02-3.22-0.22-3.14,1.94c0.06,1.67,0.97,2.1,4.03,2C59.96,115.02,59.69,113.81,59.35,112.31z M68.36,116.53
		c-0.03-2.77-1.1-4.69-2.61-6.85C65.33,115.22,65.44,115.52,68.36,116.53z M51.2,113.84c0.55,2.75,2.32,1.83,3.89,1.93
		C54.67,113.33,53.31,113.16,51.2,113.84z M47.9,114.16c0.48,1.78,1.24,1.55,2.46,0.62C49.28,114.51,48.59,114.34,47.9,114.16z"/>
	<path d="M100.91,50.94c-1.62,2.17-2.91,4.47-4.72,6.22c-5.58,5.41-11.38,10.59-17.04,15.91c-0.67,0.63-1.05,1.59-1.68,2.59
		c-0.73,0.28-2.03,0.44-2.9,1.15c-3.93,3.19-7.56,6.75-11.63,9.75c-5.55,4.09-10.4,9.29-17.21,11.45
		c-3.68,1.16-7.31,1.78-10.66-1.15c-2.3-2.01-2.75-4.26-2.45-7.21c0.57-5.59,4.17-9.39,7.41-13.35c2.28-2.79,5.08-5.16,7.68-7.68
		c0.28-0.27,0.83-0.24,1.23-0.42c0.84-0.37,1.88-0.59,2.45-1.22c3.68-4.09,9.01-5.25,13.6-7.66c5.71-3.01,11.72-5.51,17.71-7.94
		c4.2-1.7,8.6-2.94,12.92-4.33c1.24-0.4,2.33,0,3.14,1.05C99.34,48.83,99.9,49.58,100.91,50.94z M39.64,96.99
		c3.46,0.24,6.24-0.65,7.86-2.82c-3.14,0.31-5.4,2.01-7.93,2.93c-0.1-0.44-0.08-1.16-0.33-1.26c-2.1-0.88-3.05-2.41-3.08-4.66
		c0-0.29-0.78-0.56-1.31-0.92C34.47,94.11,35.62,95.66,39.64,96.99z M74.27,67.9c0.93-1.54,0.38-2.97-0.14-4.78
		c-0.98,0.73-1.66,1.23-2.59,1.92c1.06,1.07,1.93,1.95,2.79,2.82c0.06,0.1,0.15,0.2,0.15,0.31c0,0.09-0.11,0.28-0.15,0.27
		c-0.55-0.09-1.25-0.04-1.6-0.36c-1.5-1.35-3.03-2.44-5.2-2.44c-0.59,0-1.18-0.69-1.77-1.06c-0.95-0.59-1.9-1.17-2.92-1.8
		c-0.67,3.09-0.42,3.48,2.02,4.06c0.59,0.14,1.1,0.66,1.64,1.01c-2.49-0.52-5.37,0.33-7.5-2.24c0.66,1.65-0.58,3.68,1.65,4.75
		c0.34,0.17,0.44,1.24,0.33,1.85c-0.17,0.98-0.6,1.91-1.05,3.25c1.31-0.55,2.34-0.98,3.45-1.45c0.17,2.25,2.2,0.91,3.23,1.7
		c-1.31,1.53-1.29,3.07-0.06,4.59c2.76-0.49,0.97-2.84,1.85-4.09c1.29-0.13,2.95,0.5,3.36-1.51c-0.68-1.97-2.31-1.24-3.62-1.31
		c-2.84-0.17-5.02-1.81-6.03-4.67c1.57-0.52,2.73,0.11,3.74,1.23c1.06,2.63,1.24,2.69,4.38,1.55c-1.69,0.07-2.39-2.62-4.48-1.45
		c0.21-0.75,0.42-1.51,0.62-2.27c1.7-0.54,3.24-0.73,3.83,1.55c0.09,0.34,0.52,0.64,0.85,0.88c1.39,1,2.8,1.97,4.44,3.12
		c0.28-0.22,0.89-0.68,1.38-1.06c-0.39-1.24-0.57-2.29-1.05-3.18C75.56,68.54,74.8,68.28,74.27,67.9z M58.91,76.73
		c-1.52,1.75-2.75,3.16-4.07,4.69c0.54,0.17,0.87,0.28,1.2,0.38c0.42,0.12,0.84,0.22,1.46,0.39c-2.8,1.42-4.76,1.57-5.47,0
		c-1.07-2.34-3.24-3.42-4.77-5.19c-0.71,0.76-1.4,1.52-2.16,2.34c0.26,0.43,0.45,1.14,0.72,1.17c2.8,0.31,4.35,2.91,6.89,3.71
		c0.3,0.1,0.3,1.15,0.4,1.55c1.53,0.87,2.98,1.69,5.12,2.9c-0.59-1.75-0.98-2.93-1.33-3.97c0.52-1.08,1.16-2.01,1.41-3.04
		C58.64,80.29,58.67,78.85,58.91,76.73z M51.4,88.08c0.77,2.77-1.44,3.67-2.76,5.46c3.9-1.34,4.56-2.89,3.36-6.29
		c-1.99-0.81-3.77-1.53-5.61-2.28c-0.27,0.64-0.47,1.19-0.73,1.71c-0.25,0.49-0.49,1.04-0.88,1.4c-1.93,1.75-2.05,2.35-0.66,4.6
		c0.13,0.21,0.56,0.25,1.2,0.5c-0.42-1.02-0.7-1.71-1.13-2.75c2.84,0.58,2.05-1.92,2.91-2.96C48.57,87.68,49.98,87.88,51.4,88.08z
		 M94.67,56.09c-0.43-1.96-0.84-3.8-1.26-5.67c-0.87,0-1.85,0-3.38,0c1.19,0.76,1.89,1.2,2.58,1.64c-0.07,0.18-0.14,0.36-0.21,0.54
		c-2.07-0.16-4.13-0.32-6.19-0.48c0.14,0.43,0.27,0.85,0.4,1.27c-0.8,0.4-1.57,0.78-2.33,1.16c1.46,0.29,2.65-0.18,3.88-0.26
		c1-0.06,1.99,1.53,2.91,0C92.54,54.57,92.73,57.35,94.67,56.09z M87.48,58.36c1.58-0.1,1.8,2.95,3.8,0.68
		c-2.19-0.53-3.04-3.47-5.88-2.52c-0.41,2.61,0.01,4.85,1.78,7.03c0.64-0.53,1.15-0.95,1.56-1.29
		C88.57,60.76,85.99,60.2,87.48,58.36z M85.55,65.05c-1.34-1.45-2.37-2.56-3.42-3.71c-0.91,0.25-1.76,0.48-2.7,0.74
		c0.4,2.36,1.59,3.87,3.77,4.24C83.82,66.43,84.6,65.59,85.55,65.05z M52.94,73.31c-1.39,5.24-1.21,5.87,1.61,6.09
		C56.3,75.25,56.22,74.88,52.94,73.31z M41.77,77.75c-1.34,1.22-1.34,1.22,0.64,6.24C44.44,82.57,45.07,82.48,41.77,77.75z
		 M60.35,83.67c0.13,0.2,0.26,0.41,0.4,0.61c1.28-0.56,2.56-1.11,4.09-1.78c-1.1-1.38-1.96-2.47-2.97-3.75
		c-0.77,0.85-1.48,1.63-2.24,2.47c0.85,0.56,1.49,0.98,2.21,1.46C61.23,83.08,60.79,83.37,60.35,83.67z M79.64,55.36
		c0.29,2.21,1.56,2.51,3.24,2.44C82.61,54.91,82.61,54.91,79.64,55.36z M53.31,69.47c-0.18,0.28-0.37,0.56-0.55,0.84
		c1.13,0.92,1.38,2.96,3.45,2.63c0.41-0.07,0.7-0.89,1.11-1.47C55.8,70.71,54.55,70.09,53.31,69.47z M36.83,84.31
		c-0.37,0.69-0.78,1.48-1.2,2.27c1.62-1.02,2.7-1.02,3.8,0.5c0.25,0.35,1.16,0.22,2.15,0.37C39.81,86.28,38.43,85.37,36.83,84.31z
		 M76.02,56.64c0.84,1.41,0.55,3.47,2.49,4.32C78.7,58.47,78.04,57.23,76.02,56.64z M57.5,65.49c-2.28,2.37-2.28,2.41-0.3,4.14
		C57.29,68.41,57.37,67.31,57.5,65.49z M67.65,61.67c0.32,0.89,0.58,1.72,0.94,2.5c0.09,0.19,0.53,0.22,0.89,0.34
		c0-1.11,0-2.09,0-3.14C68.8,61.48,68.35,61.56,67.65,61.67z M80.79,69.14c-0.17-0.21-0.34-0.42-0.51-0.62
		c-0.63,0.49-1.26,0.99-1.89,1.48c0.11,0.15,0.22,0.29,0.33,0.44C79.41,70,80.1,69.57,80.79,69.14z"/>
</g>
</svg>
