<?xml version="1.0" encoding="utf-8"?>
<!-- Generator: Adobe Illustrator 23.0.1, SVG Export Plug-In . SVG Version: 6.00 Build 0)  -->
<svg version="1.1" id="Layer_1" xmlns="http://www.w3.org/2000/svg" xmlns:xlink="http://www.w3.org/1999/xlink" x="0px" y="0px"
	 viewBox="0 0 150 150" style="enable-background:new 0 0 150 150;" xml:space="preserve">
<style type="text/css">
	.st0{fill:#F49AB4;}
	.st1{fill:#F28DA7;}
	.st2{fill:#E85072;}
	.st3{fill:#E84B6F;}
	.st4{fill:#EB5A7D;}
	.st5{fill:#EF7994;}
	.st6{fill:#F8BCCD;}
	.st7{fill:#F38CA8;}
	.st8{fill:#EF728F;}
	.st9{fill:#FCE4EB;}
	.st10{fill:#F0CCCF;}
	.st11{fill:#DE8D95;}
	.st12{fill:#EBBABF;}
	.st13{fill:#E7ACB2;}
	.st14{fill:#E39DA3;}
	.st15{fill:#F5DEE0;}
	.st16{fill:#D97A83;}
	.st17{fill:#E4A6AD;}
	.st18{fill:#E9B6BB;}
	.st19{fill:#DA9197;}
	.st20{fill:#CC7077;}
	.st21{fill:#C9646C;}
	.st22{fill:#D4848B;}
	.st23{fill:#D17A81;}
	.st24{fill:#DD9EA3;}
	.st25{fill:#C65760;}
	.st26{fill:#D48189;}
	.st27{fill:#CF6E76;}
	.st28{fill:#C1575F;}
	.st29{fill:#B8424B;}
	.st30{fill:#B33C43;}
	.st31{fill:#BB4952;}
	.st32{fill:#C65E66;}
	.st33{fill:#BC4F57;}
	.st34{fill:#B0353D;}
	.st35{fill:#D67E84;}
	.st36{fill:#C6636B;}
	.st37{fill:#CA6C72;}
	.st38{fill:#B9454D;}
	.st39{fill:#C05B63;}
	.st40{fill:#C0545B;}
	.st41{fill:#BE4C53;}
	.st42{fill:#B43C44;}
	.st43{fill:#DF999F;}
	.st44{fill:#D27980;}
	.st45{fill:#C1555D;}
	.st46{fill:#CB6F76;}
	.st47{fill:#C8676E;}
	.st48{fill:#D5838A;}
	.st49{fill:#C65D64;}
	.st50{fill:#F1D1D4;}
	.st51{fill:#D38087;}
	.st52{fill:#CF737C;}
	.st53{fill:#D98C94;}
	.st54{fill:#E6B3B9;}
	.st55{fill:#D8898F;}
	.st56{fill:#C66269;}
	.st57{fill:#C96A72;}
	.st58{fill:#DD9399;}
	.st59{fill:#CF747B;}
	.st60{fill:#D48188;}
	.st61{fill:#D37D85;}
	.st62{fill:#DC9298;}
	.st63{fill:#D8838B;}
	.st64{fill:#FAECED;}
	.st65{fill:#EFCBD0;}
	.st66{fill:#EDC1C5;}
	.st67{fill:#D28089;}
	.st68{fill:#CB747D;}
	.st69{fill:#A8343C;}
	.st70{fill:#A62F37;}
	.st71{fill:#B03E44;}
	.st72{fill:#C25C63;}
	.st73{fill:#E1A8AC;}
	.st74{fill:#BE535C;}
	.st75{fill:#CE727C;}
	.st76{fill:#F5D8DA;}
	.st77{fill:#D8BAE7;}
	.st78{fill:#BC8FD2;}
	.st79{fill:#B17FC9;}
	.st80{fill:#7D3CA4;}
	.st81{fill:#884BAE;}
	.st82{fill:#A369BF;}
	.st83{fill:#D2B5E2;}
	.st84{fill:#9A62BC;}
	.st85{fill:#B17ECB;}
	.st86{fill:#ECE0F2;}
	.st87{fill:#FBCBC8;}
	.st88{fill:#F5908C;}
	.st89{fill:#F28580;}
	.st90{fill:#E64640;}
	.st91{fill:#E5413B;}
	.st92{fill:#E74E49;}
	.st93{fill:#ED6D68;}
	.st94{fill:#F7B5B0;}
	.st95{fill:#ED6660;}
	.st96{fill:#F48580;}
	.st97{fill:#FBDFDF;}
	.st98{fill:#F9C1C0;}
	.st99{fill:#F7B7B6;}
	.st100{fill:#EF7573;}
	.st101{fill:#EF6F6D;}
	.st102{fill:#F17F7C;}
	.st103{fill:#F4A19F;}
	.st104{fill:#F39998;}
	.st105{fill:#EC7271;}
	.st106{fill:#FAD1CF;}
	.st107{fill:#FADCDC;}
	.st108{fill:#F39391;}
	.st109{fill:#FDECEC;}
	.st110{fill:#FCDDDD;}
	.st111{fill:#ED8280;}
	.st112{fill:#E66160;}
	.st113{fill:#F18784;}
	.st114{fill:#F19593;}
	.st115{fill:#EB7675;}
	.st116{fill:#E86867;}
	.st117{fill:#F28785;}
	.st118{fill:#F3A7A7;}
	.st119{fill:#F08C8B;}
	.st120{fill:#F08785;}
	.st121{fill:#E55D5B;}
	.st122{fill:#E86D6C;}
	.st123{fill:#E85F5D;}
	.st124{fill:#E75958;}
	.st125{fill:#EA6664;}
	.st126{fill:#E76260;}
	.st127{fill:#E04948;}
	.st128{fill:#ED7371;}
	.st129{fill:#EA6B6A;}
	.st130{fill:#EB6763;}
	.st131{fill:#E45352;}
	.st132{fill:#E54E4C;}
	.st133{fill:#DE3635;}
	.st134{fill:#E65958;}
	.st135{fill:#E0413E;}
	.st136{fill:#EA6D6A;}
	.st137{fill:#EE9493;}
	.st138{fill:#EA6866;}
	.st139{fill:#F2A8A6;}
	.st140{fill:#E14543;}
	.st141{fill:#E3413F;}
	.st142{fill:#E64A48;}
	.st143{fill:#E56967;}
	.st144{fill:#E33F3D;}
	.st145{fill:#EB7775;}
	.st146{fill:#EE8483;}
	.st147{fill:#E64845;}
	.st148{fill:#E75655;}
	.st149{fill:#E65451;}
	.st150{fill:#EA7473;}
	.st151{fill:#E55B57;}
	.st152{fill:#E75756;}
	.st153{fill:#EB7472;}
	.st154{fill:#EE8C8A;}
	.st155{fill:#F5A3A2;}
	.st156{fill:#E14A49;}
	.st157{fill:#E14D4C;}
	.st158{fill:#E14B49;}
	.st159{fill:#DE3E3D;}
	.st160{fill:#E45350;}
	.st161{fill:#E14544;}
	.st162{fill:#E54E4B;}
	.st163{fill:#E34240;}
	.st164{fill:#E75C5A;}
	.st165{fill:#EB7C7B;}
	.st166{fill:#F3A2A1;}
	.st167{fill:#EA7877;}
	.st168{fill:#E66B6A;}
	.st169{fill:#E96A69;}
	.st170{fill:#E56160;}
	.st171{fill:#E44845;}
	.st172{fill:#EC7473;}
	.st173{fill:#F9C0D3;}
	.st174{fill:#F298B5;}
	.st175{fill:#EE89A7;}
	.st176{fill:#E54D73;}
	.st177{fill:#E44771;}
	.st178{fill:#E7567E;}
	.st179{fill:#EC7797;}
	.st180{fill:#F8BCCF;}
	.st181{fill:#EB6D8F;}
	.st182{fill:#F089A8;}
	.st183{fill:#FCE2EB;}
	.st184{fill:#E55B7F;}
	.st185{fill:#E6708E;}
	.st186{fill:#EB87A2;}
	.st187{fill:#E25677;}
	.st188{fill:#E7678B;}
	.st189{fill:#FBD7E3;}
	.st190{fill:#ED80A1;}
	.st191{fill:#E24166;}
	.st192{fill:#E13B65;}
	.st193{fill:#E34870;}
	.st194{fill:#E76486;}
	.st195{fill:#F49DB8;}
	.st196{fill:#F7BFD1;}
	.st197{fill:#E65C7F;}
	.st198{fill:#F6ABC4;}
	.st199{fill:#F6A7C2;}
	.st200{fill:#EA6189;}
	.st201{fill:#DB3258;}
	.st202{fill:#DA2E55;}
	.st203{fill:#F7B2C9;}
	.st204{fill:#EA6A8D;}
	.st205{fill:#DC355B;}
	.st206{fill:#DB3159;}
	.st207{fill:#DF3C63;}
	.st208{fill:#F9C5D6;}
	.st209{fill:#EB7697;}
	.st210{fill:#DE3B61;}
	.st211{fill:#DE375F;}
	.st212{fill:#E1426A;}
	.st213{fill:#FDE7EE;}
	.st214{fill:#EE89A9;}
	.st215{fill:#E2456B;}
	.st216{fill:#E14069;}
	.st217{fill:#E44D75;}
	.st218{fill:#E86B8C;}
	.st219{fill:#EE7A9C;}
	.st220{fill:#F5A8C0;}
	.st221{fill:#FACBDA;}
	.st222{fill:#E65A7D;}
	.st223{fill:#E04169;}
	.st224{fill:#FEF5F9;}
	.st225{fill:#F191B0;}
	.st226{fill:#EA7292;}
	.st227{fill:#F6B4C9;}
	.st228{fill:#FBD8E5;}
	.st229{fill:#E96C8F;}
	.st230{fill:#E35477;}
	.st231{fill:#EA7396;}
	.st232{fill:#EB7A9D;}
	.st233{fill:#E8698D;}
	.st234{fill:#EB7094;}
	.st235{fill:#E04B6E;}
	.st236{fill:#E66085;}
	.st237{fill:#EB7294;}
	.st238{fill:#E7678C;}
	.st239{fill:#EA6D91;}
	.st240{fill:#E14C71;}
	.st241{fill:#EE7A9D;}
	.st242{fill:#F393B2;}
	.st243{fill:#DC3F64;}
	.st244{fill:#EF82A3;}
	.st245{fill:#F39DB9;}
	.st246{fill:#DF466B;}
	.st247{fill:#DF4469;}
	.st248{fill:#F29A98;}
	.st249{fill:#E64F4D;}
	.st250{fill:#E74947;}
	.st251{fill:#E85956;}
	.st252{fill:#EC7775;}
	.st253{fill:#F8BCBA;}
	.st254{fill:#EC6F6D;}
	.st255{fill:#FCE2E2;}
	.st256{fill:#F8C8C6;}
	.st257{fill:#F08B89;}
	.st258{fill:#F18A89;}
	.st259{fill:#B093A4;}
	.st260{fill:#A38295;}
	.st261{fill:#6F455A;}
	.st262{fill:#694055;}
	.st263{fill:#794F64;}
	.st264{fill:#936F83;}
	.st265{fill:#CDB7C1;}
	.st266{fill:#B596A5;}
	.st267{fill:#A58394;}
	.st268{fill:#8C667A;}
	.st269{fill:#B696A7;}
	.st270{fill:#E8E0E7;}
	.st271{fill:#E1BCC2;}
	.st272{fill:#A9666E;}
	.st273{fill:#681C23;}
	.st274{fill:#641920;}
	.st275{fill:#73242D;}
	.st276{fill:#8D3F48;}
	.st277{fill:#C69197;}
	.st278{fill:#893841;}
	.st279{fill:#E3CCCE;}
	.st280{fill:#6F292E;}
	.st281{fill:#A15A63;}
	.st282{fill:#944952;}
	.st283{fill:#944953;}
	.st284{fill:#964A53;}
	.st285{fill:#984B54;}
	.st286{fill:#974A53;}
	.st287{fill:#A25A62;}
	.st288{fill:#D2BCC8;}
	.st289{fill:#C8B2BE;}
	.st290{fill:#936A80;}
	.st291{fill:#8E667B;}
	.st292{fill:#9B7589;}
	.st293{fill:#B293A3;}
	.st294{fill:#916B7F;}
	.st295{fill:#DDCCD6;}
	.st296{fill:#AC8B9C;}
	.st297{fill:#F1EBEF;}
	.st298{fill:#9C7A8C;}
	.st299{fill:#8F6C80;}
	.st300{fill:#B99DAC;}
	.st301{fill:#A27F91;}
	.st302{fill:#C2A7B6;}
	.st303{fill:#AB8E9F;}
	.st304{fill:#936D82;}
	.st305{fill:#856174;}
	.st306{fill:#B99DAB;}
	.st307{fill:#C2A9B6;}
	.st308{fill:#A38091;}
	.st309{fill:#BBA3B0;}
	.st310{fill:#7A5468;}
	.st311{fill:#855F73;}
	.st312{fill:#AE8E9F;}
	.st313{fill:#7C556A;}
	.st314{fill:#7B5066;}
	.st315{fill:#855C71;}
	.st316{fill:#AF8E9F;}
	.st317{fill:#734B60;}
	.st318{fill:#694256;}
	.st319{fill:#916A80;}
	.st320{fill:#886378;}
	.st321{fill:#875C71;}
	.st322{fill:#714B5E;}
	.st323{fill:#582F42;}
	.st324{fill:#795066;}
	.st325{fill:#5E3A4B;}
	.st326{fill:#8A6578;}
	.st327{fill:#A98E9D;}
	.st328{fill:#B9A1B1;}
	.st329{fill:#B08F9F;}
	.st330{fill:#B898AA;}
	.st331{fill:#896578;}
	.st332{fill:#653C50;}
	.st333{fill:#623A4E;}
	.st334{fill:#6C4257;}
	.st335{fill:#B28FA1;}
	.st336{fill:#80596E;}
	.st337{fill:#7F586C;}
	.st338{fill:#765063;}
	.st339{fill:#683F53;}
	.st340{fill:#774E63;}
	.st341{fill:#704B5F;}
	.st342{fill:#674355;}
	.st343{fill:#7F5A6E;}
	.st344{fill:#815A6E;}
	.st345{fill:#6A4558;}
	.st346{fill:#5D374A;}
	.st347{fill:#926D80;}
	.st348{fill:#70475B;}
	.st349{fill:#72495E;}
	.st350{fill:#673D52;}
	.st351{fill:#673D51;}
	.st352{fill:#60364B;}
	.st353{fill:#795265;}
	.st354{fill:#683F52;}
	.st355{fill:#7A5368;}
	.st356{fill:#987387;}
	.st357{fill:#70475C;}
	.st358{fill:#A07D92;}
	.st359{fill:#81596E;}
	.st360{fill:#926C7F;}
	.st361{fill:#80596D;}
	.st362{fill:#CDC0E4;}
	.st363{fill:#A998CF;}
	.st364{fill:#644DA1;}
	.st365{fill:#5E479E;}
	.st366{fill:#6F56A9;}
	.st367{fill:#755CAC;}
	.st368{fill:#8975BA;}
	.st369{fill:#C4BAE0;}
	.st370{fill:#755DAD;}
	.st371{fill:#846DB7;}
	.st372{fill:#E7E2F2;}
	.st373{fill:#9B89C5;}
	.st374{fill:#8871B8;}
	.st375{fill:#9C89C6;}
	.st376{fill:#8673B9;}
	.st377{fill:#B9E1BA;}
	.st378{fill:#ADDBAE;}
	.st379{fill:#99D09A;}
	.st380{fill:#65B567;}
	.st381{fill:#5FB261;}
	.st382{fill:#70BB71;}
	.st383{fill:#8DCB8E;}
	.st384{fill:#CBE9CB;}
	.st385{fill:#86C687;}
	.st386{fill:#98D099;}
	.st387{fill:#EBF5EB;}
	.st388{fill:#B9D6C9;}
	.st389{fill:#8EBD9E;}
	.st390{fill:#7DB18E;}
	.st391{fill:#408251;}
	.st392{fill:#3A7F4C;}
	.st393{fill:#4A8C5B;}
	.st394{fill:#68A279;}
	.st395{fill:#B5D4BE;}
	.st396{fill:#7CB38B;}
	.st397{fill:#619D71;}
	.st398{fill:#E0ECE4;}
	.st399{fill:#74A38C;}
	.st400{fill:#679880;}
	.st401{fill:#669780;}
	.st402{fill:#669881;}
	.st403{fill:#285E41;}
	.st404{fill:#235A3C;}
	.st405{fill:#31684A;}
	.st406{fill:#4D8268;}
	.st407{fill:#A1C2B0;}
	.st408{fill:#679981;}
	.st409{fill:#467B62;}
	.st410{fill:#D6E5DF;}
	.st411{fill:#8ECA8F;}
	.st412{fill:#7DC07F;}
	.st413{fill:#409841;}
	.st414{fill:#3A933C;}
	.st415{fill:#4AA14B;}
	.st416{fill:#68B569;}
	.st417{fill:#7CC07D;}
	.st418{fill:#B5DDB5;}
	.st419{fill:#61B062;}
	.st420{fill:#7CC17E;}
	.st421{fill:#E0EFE0;}
	.st422{fill:#EBF5DE;}
	.st423{fill:#D4EAB8;}
	.st424{fill:#D2E9B4;}
	.st425{fill:#D8ECBE;}
	.st426{fill:#E2F0CE;}
	.st427{fill:#F3F9EA;}
	.st428{fill:#DFF0CA;}
	.st429{fill:#FAFDF7;}
	.st430{fill:#D3C9BE;}
	.st431{fill:#CBBEB3;}
	.st432{fill:#BBAC9F;}
	.st433{fill:#97826F;}
	.st434{fill:#947E69;}
	.st435{fill:#9F8A79;}
	.st436{fill:#B5A495;}
	.st437{fill:#DED6CE;}
	.st438{fill:#BBAD9F;}
	.st439{fill:#AE9E8D;}
	.st440{fill:#F2EFEC;}
	.st441{fill:#B1A091;}
	.st442{fill:#B1A090;}
	.st443{fill:#D8BACF;}
	.st444{fill:#976286;}
	.st445{fill:#905778;}
	.st446{fill:#4F1939;}
	.st447{fill:#4C1637;}
	.st448{fill:#5A2144;}
	.st449{fill:#773B60;}
	.st450{fill:#B88FAD;}
	.st451{fill:#6E345A;}
	.st452{fill:#8E567D;}
	.st453{fill:#E1CCDA;}
	.st454{fill:#C4E2A7;}
	.st455{fill:#93C35F;}
	.st456{fill:#8EC15A;}
	.st457{fill:#9AC868;}
	.st458{fill:#B0D587;}
	.st459{fill:#DCEBC3;}
	.st460{fill:#C8E0AA;}
	.st461{fill:#ABD280;}
	.st462{fill:#CAE2A9;}
	.st463{fill:#EFF8E7;}
	.st464{fill:#FFF6C0;}
	.st465{fill:#FFEC97;}
	.st466{fill:#FFDC4B;}
	.st467{fill:#FFD945;}
	.st468{fill:#FFDD54;}
	.st469{fill:#FFE774;}
	.st470{fill:#FFF4BA;}
	.st471{fill:#FFE46C;}
	.st472{fill:#FFF9E2;}
	.st473{fill:#FDE2C1;}
	.st474{fill:#F9CA98;}
	.st475{fill:#F9C18A;}
	.st476{fill:#F5994E;}
	.st477{fill:#F49448;}
	.st478{fill:#F8A158;}
	.st479{fill:#F8B577;}
	.st480{fill:#FCDDBC;}
	.st481{fill:#F8B06F;}
	.st482{fill:#FFEFE2;}
	.st483{fill:#F8A7A4;}
	.st484{fill:#EF8262;}
	.st485{fill:#EC605A;}
	.st486{fill:#EB5B55;}
	.st487{fill:#EC6964;}
	.st488{fill:#F28783;}
	.st489{fill:#F9C4C1;}
	.st490{fill:#F2817A;}
	.st491{fill:#EB6449;}
	.st492{fill:#FCE7E7;}
	.st493{fill:#FFEA88;}
	.st494{fill:#FFEB87;}
	.st495{fill:#FDF2E3;}
	.st496{fill:#FDEFDD;}
	.st497{fill:#F9E1C4;}
	.st498{fill:#FADEB9;}
	.st499{fill:#FADDB7;}
	.st500{fill:#FAE0BF;}
	.st501{fill:#FBE9CF;}
	.st502{fill:#F9DAB8;}
	.st503{fill:#FDF5EB;}
	.st504{fill:#FBE6CB;}
	.st505{fill:#FFFBF7;}
	.st506{fill:#FBDFBE;}
	.st507{fill:#F7D8B5;}
	.st508{fill:#FBE8CF;}
	.st509{fill:#FBE3C8;}
	.st510{fill:#F9E8CF;}
	.st511{fill:#F8DBB7;}
	.st512{fill:#FADBB5;}
	.st513{fill:#F7D5AE;}
	.st514{fill:#FDE9D5;}
	.st515{fill:#FAE3C8;}
	.st516{fill:#F7D1A4;}
	.st517{fill:#F5CD9D;}
	.st518{fill:#F7D8B0;}
	.st519{fill:#F8D4A9;}
	.st520{fill:#F8D3A6;}
	.st521{fill:#F8D8AF;}
	.st522{fill:#F7CD9E;}
	.st523{fill:#F4C896;}
	.st524{fill:#FBE3C5;}
	.st525{fill:#F7DBB8;}
	.st526{fill:#F7D8B1;}
	.st527{fill:#F7D7B0;}
	.st528{fill:#F8CD9F;}
	.st529{fill:#F8CD9E;}
	.st530{fill:#F1BE84;}
	.st531{fill:#F8D0A3;}
	.st532{fill:#F1C38D;}
	.st533{fill:#F8D8B1;}
	.st534{fill:#FBE2C8;}
	.st535{fill:#F9EAD3;}
	.st536{fill:#F9D3AA;}
	.st537{fill:#F7C896;}
	.st538{fill:#F7C794;}
	.st539{fill:#F7CA9A;}
	.st540{fill:#F7D3AB;}
	.st541{fill:#F8D8B5;}
	.st542{fill:#F9E6CF;}
	.st543{fill:#F7C897;}
	.st544{fill:#F8D3AA;}
	.st545{fill:#F7CEA2;}
	.st546{fill:#F4CD9E;}
	.st547{fill:#F5D2A5;}
	.st548{fill:#FBE2C2;}
	.st549{fill:#F5D1A8;}
	.st550{fill:#F8D5AB;}
	.st551{fill:#F2C695;}
	.st552{fill:#F8D3A8;}
	.st553{fill:#F5C998;}
	.st554{fill:#F5C894;}
	.st555{fill:#F2C997;}
	.st556{fill:#F2C48D;}
	.st557{fill:#F4C694;}
	.st558{fill:#F5CE9D;}
	.st559{fill:#F4C594;}
	.st560{fill:#F5C995;}
	.st561{fill:#F4C48F;}
	.st562{fill:#F7D2A6;}
	.st563{fill:#F8DFBB;}
	.st564{fill:#FBE2C3;}
	.st565{fill:#F8CC9E;}
	.st566{fill:#FADFC1;}
	.st567{fill:#F9D8B5;}
	.st568{fill:#F4C997;}
	.st569{fill:#F9DDB8;}
	.st570{fill:#FDFCED;}
	.st571{fill:#FBF7D2;}
	.st572{fill:#F9F6CB;}
	.st573{fill:#F4EBA8;}
	.st574{fill:#F5E9A6;}
	.st575{fill:#F5EDAC;}
	.st576{fill:#F7F5C0;}
	.st577{fill:#FBFBE1;}
	.st578{fill:#F7F0BE;}
	.st579{fill:#FAF6CE;}
	.st580{fill:#FFFBF5;}
	.st581{fill:#BDDB97;}
	.st582{fill:#BBDC99;}
	.st583{fill:#BDDD99;}
	.st584{fill:#B0D484;}
	.st585{fill:#AFD484;}
	.st586{fill:#FFEA87;}
	.st587{fill:#D3E9BA;}
	.st588{fill:#E1EECE;}
	.st589{fill:#D3E8BB;}
	.st590{fill:#E3EECE;}
	.st591{opacity:0.9;}
	.st592{fill:#FFF8CD;}
	.st593{opacity:0.9;fill:#FFEE8A;}
	.st594{fill:#FFF19E;}
	.st595{fill:#FFF5B6;}
	.st596{fill:#FFFBE0;}
	.st597{fill:none;stroke:#FFF4B1;stroke-width:0;}
	.st598{fill:#FFFDF3;}
	.st599{fill:#FACEDD;}
	.st600{opacity:0.9;fill:#F38CAF;}
	.st601{fill:#F5A0BD;}
	.st602{fill:#F8B8CD;}
	.st603{fill:#FCE1EA;}
	.st604{fill:none;stroke:#F7B2C9;stroke-width:0;}
	.st605{fill:#FEF3F7;}
	.st606{fill:#FBDBB6;}
	.st607{fill:#FBD1A3;}
	.st608{fill:#F9B674;}
	.st609{fill:#F8B36E;}
	.st610{fill:#FABB7E;}
	.st611{fill:#FACB99;}
	.st612{fill:#FDE9D1;}
	.st613{fill:#FAC893;}
	.st614{fill:#F9D0A1;}
	.st615{fill:#FFF5EC;}
	.st616{fill:#D7ECC0;}
	.st617{fill:#B1D684;}
	.st618{fill:#ADD680;}
	.st619{fill:#B7D98D;}
	.st620{fill:#C8E2A7;}
	.st621{fill:#E8F2D6;}
	.st622{fill:#C3E0A0;}
	.st623{fill:#F5FAEF;}
	.st624{fill:#A87699;}
	.st625{fill:#A9716E;}
	.st626{fill:#9F698A;}
	.st627{fill:#9F698D;}
	.st628{fill:#65294F;}
	.st629{fill:#632638;}
	.st630{fill:#62244A;}
	.st631{fill:#612335;}
	.st632{fill:#6E3259;}
	.st633{fill:#6D2F40;}
	.st634{fill:#8B4E74;}
	.st635{fill:#C4A1BB;}
	.st636{fill:#9D688D;}
	.st637{fill:#82476E;}
	.st638{fill:#E7D6E1;}
	.st639{fill:#FFF9D6;}
	.st640{fill:#FFF2A6;}
	.st641{fill:#FFF4B0;}
	.st642{fill:#FFF7C4;}
	.st643{fill:#FFFCE6;}
	.st644{fill:#FFF3B5;}
	.st645{fill:#FFED8B;}
	.st646{fill:#FFED94;}
	.st647{fill:#FFF1A4;}
	.st648{fill:#FFF5BF;}
	.st649{fill:#FFF6CD;}
	.st650{fill:#FFE46E;}
	.st651{fill:#FFED98;}
	.st652{fill:#FFF3A9;}
	.st653{fill:#FFEC8D;}
	.st654{fill:#FFE66B;}
	.st655{fill:#FFEC8A;}
	.st656{fill:#FFE66D;}
	.st657{fill:#FFE571;}
	.st658{fill:#FFEF94;}
	.st659{fill:#FFEF9E;}
	.st660{fill:#FFED93;}
	.st661{fill:#FFE873;}
	.st662{fill:#FFE97A;}
	.st663{fill:#FFEC87;}
	.st664{fill:#FFF19F;}
	.st665{fill:#FFF1A8;}
	.st666{fill:#FFEA7E;}
	.st667{fill:#FFEB86;}
	.st668{fill:#FFEF97;}
	.st669{fill:#FFF2B0;}
	.st670{fill:#FFF4BC;}
	.st671{fill:#FFF5C1;}
	.st672{fill:#FFF8CF;}
	.st673{fill:#FFF8DC;}
	.st674{fill:#FFF0A0;}
	.st675{fill:#FFEE92;}
	.st676{fill:#FFF6CE;}
	.st677{fill:#FFFADD;}
	.st678{fill:#FFFBEC;}
	.st679{fill:#FFFDF5;}
	.st680{fill:#F49C52;}
	.st681{fill:#F69D52;}
	.st682{fill:#F8A55E;}
	.st683{fill:#F8B472;}
	.st684{fill:#F59D54;}
	.st685{fill:#F8A65F;}
	.st686{fill:#F8B474;}
	.st687{fill:#FDF3E9;}
	.st688{fill:#FAE8D1;}
	.st689{fill:#FAE8CF;}
	.st690{fill:#FAEBD4;}
	.st691{fill:#F9EDD7;}
	.st692{fill:#FBEFDE;}
	.st693{fill:#FBEFDD;}
	.st694{fill:#FDF8F1;}
	.st695{fill:#FBEDD7;}
	.st696{fill:#FBEFDC;}
	.st697{fill:#FFFBFA;}
	.st698{fill:#FFE771;}
	.st699{fill:#FFEB83;}
	.st700{fill:#FFED90;}
	.st701{fill:#F7B6CB;}
	.st702{fill:#F4A2BB;}
	.st703{fill:#EE7397;}
	.st704{fill:#ED6D94;}
	.st705{fill:#EF7C9F;}
	.st706{fill:#F399B5;}
	.st707{fill:#FAD1DE;}
	.st708{fill:#F291AE;}
	.st709{fill:#F3A1BB;}
	.st710{fill:#FDECF2;}
</style>
<g>
	<path class="st464" d="M63.74,45.02L63.74,45.02c-0.05,0.38-0.02,0.78-0.18,1.1c-0.08,0.17-0.2,0.31-0.35,0.36l0,0
		c0.15-0.05,0.27-0.18,0.35-0.36C63.72,45.8,63.69,45.4,63.74,45.02L63.74,45.02 M63.76,44.76C63.76,44.76,63.76,44.76,63.76,44.76
		C63.76,44.76,63.76,44.76,63.76,44.76L63.76,44.76 M63.75,44.74L63.75,44.74l0.01,0.02l0,0L63.75,44.74 M61.98,44.56
		c0.18,0.92,0.44,1.45,0.69,1.71l0,0C62.42,46,62.16,45.48,61.98,44.56L61.98,44.56 M61.93,44.23
		C61.93,44.23,61.93,44.24,61.93,44.23c0.01,0.07,0.02,0.13,0.03,0.2l0,0C61.95,44.37,61.94,44.3,61.93,44.23
		C61.93,44.24,61.93,44.23,61.93,44.23 M59.77,44.21l-0.01,0.04l0,0l0,0L59.77,44.21 M59.76,44.2c-0.02,0-0.06,0.04-0.17,0.19l0,0
		c-0.22,0.3-0.78,1.1-1.66,2.51c-0.01,0.02-0.03,0.04-0.04,0.07c0.9-1.45,1.47-2.27,1.7-2.58C59.7,44.24,59.75,44.2,59.76,44.2
		l0.01,0.01L59.76,44.2 M60.13,44.09c-0.04,0.04-0.23,0.28-0.35,0.39l0,0l-0.02,0.02l0,0l0.02-0.02
		C59.9,44.38,60.09,44.14,60.13,44.09L60.13,44.09 M64.35,44.09L64.35,44.09c0,0-0.11,0.12-0.33,0.34l0,0
		c-0.07,0.09-0.27,0.24-0.27,0.3l0,0c0-0.07,0.2-0.22,0.27-0.3C64.24,44.21,64.35,44.09,64.35,44.09 M60.92,42.63
		c-0.2,0.38-0.44,0.82-0.73,1.35l0,0C60.47,43.45,60.72,43.01,60.92,42.63L60.92,42.63 M61.79,40.82L61.79,40.82
		c-0.01,0.04-0.02,0.08-0.02,0.12l0,0C61.77,40.9,61.78,40.86,61.79,40.82 M61.81,40.73c0,0-0.01,0.02-0.03,0.1
		c-0.02,0.05-0.04,0.12-0.08,0.23l0,0c0.04-0.1,0.07-0.18,0.08-0.23C61.8,40.75,61.81,40.73,61.81,40.73L61.81,40.73 M61.81,40.73
		L61.81,40.73l-0.01,0.06c0,0.01,0,0.02-0.01,0.03l0,0c0-0.01,0-0.02,0.01-0.03L61.81,40.73"/>
	<polyline class="st465" points="85.33,39.47 85.33,39.47 85.34,39.48 85.33,39.47 	"/>
	<path class="st465" d="M85.34,39.48c-0.16,0.25-0.31,0.49-0.45,0.72c-0.3,0.48-0.57,0.93-0.83,1.35c-0.5,0.83-0.92,1.54-1.27,2.15
		c1.09,0.2,2.46,0.44,3.84,0.69c2.55,0.46,5.11,0.92,5.85,1.05l-0.07-0.02c-0.22-0.06-0.57-0.2-1.05-0.51
		c-0.46-0.29-1-0.7-1.83-1.42c-0.24-0.21-0.44-0.39-0.7-0.63c-0.31-0.28-0.62-0.57-0.92-0.86c-0.45-0.42-0.92-0.88-1.36-1.32
		l-1.1-1.09L85.34,39.48"/>
	<path class="st465" d="M71.42,40.63c-0.79,0-1.64,0.18-2.59,0.58c-0.57,0.27-1.1,0.56-1.62,0.86c1.62,0.02,3.49,0.02,5.59,0.11
		c0.08,0,0.16,0,0.23,0c0.28,0,0.45-0.01,0.6-0.02c0.15-0.01,0.28-0.02,0.47-0.02c0.1,0,0.21,0,0.34,0.01
		c0.26,0.01,0.54,0.03,0.83,0.05C74.17,41.28,72.92,40.63,71.42,40.63"/>
	<polyline class="st465" points="61.79,40.81 61.79,40.81 61.79,40.82 61.79,40.81 	"/>
	<path class="st465" d="M61.79,40.81c0,0.01-0.01,0.02-0.01,0.04C61.78,40.84,61.79,40.83,61.79,40.81
		C61.79,40.82,61.79,40.81,61.79,40.81"/>
	<path class="st465" d="M61.78,40.86c-0.02,0.09-0.03,0.11-0.03,0.11c0,0,0-0.01-0.01-0.02c0,0-0.01,0.02-0.05,0.11
		c-0.06,0.15-0.16,0.37-0.31,0.68c-0.12,0.25-0.27,0.54-0.47,0.9c-0.2,0.37-0.43,0.82-0.73,1.35c-0.02,0.04-0.04,0.07-0.06,0.11
		c0,0,0,0-0.01,0.01c-0.02,0.03-0.04,0.06-0.05,0.1c-0.18,0.23-0.27,0.31-0.32,0.31l-0.1,0.06l-0.02-0.02l0,0l0,0l0,0l0,0l0,0l0,0
		l0,0l0,0c0-0.03,0.02-0.08,0.06-0.16c0-0.01,0-0.02-0.01-0.02c0-0.01-0.01-0.02-0.02-0.02c-0.05,0-0.22,0.23-0.72,0.99
		c-0.81,1.22-1.42,2.19-1.56,2.64c-0.02,0.07-0.03,0.13-0.03,0.18c0,0.09,0.04,0.14,0.13,0.14c0.15,0,0.44-0.15,0.85-0.45
		c0.84-0.58,1.92-1.48,2.95-2.5c0.13-0.12,0.4-0.49,0.66-0.9c-0.23-0.93-0.3-1.79-0.31-2.32l0,0l0,0l0,0l0,0
		c0-0.05,0.01-0.12,0.01-0.19c0-0.04,0-0.06-0.01-0.07c0,0,0,0,0,0l-0.01,0.04l0,0l0,0l0,0l0,0l0,0c0.03-0.32,0.08-0.64,0.14-0.96
		C61.77,40.91,61.78,40.88,61.78,40.86"/>
	<path class="st493" d="M59.76,44.5L59.76,44.5l-0.1,0.06l-0.02-0.02l0,0l0.02,0.02L59.76,44.5 M60.19,43.98L60.19,43.98
		c-0.02,0.04-0.04,0.07-0.06,0.11c0,0,0,0,0,0c0,0,0,0-0.01,0.01l0,0l0,0c0,0,0.01-0.01,0.01-0.01
		C60.15,44.05,60.17,44.02,60.19,43.98L60.19,43.98 M61.64,41.86l-0.01,0.04l0,0L61.64,41.86C61.64,41.86,61.64,41.86,61.64,41.86
		C61.64,41.86,61.64,41.86,61.64,41.86 M61.69,41.05L61.69,41.05c-0.06,0.15-0.16,0.37-0.31,0.68c-0.12,0.25-0.27,0.54-0.47,0.9l0,0
		l0,0c0.19-0.36,0.35-0.65,0.47-0.9C61.54,41.43,61.63,41.21,61.69,41.05L61.69,41.05"/>
	<path class="st465" d="M61.76,40.94c-0.06,0.32-0.1,0.64-0.14,0.96l0.01-0.04c0,0,0,0,0,0c0,0.01,0.01,0.03,0.01,0.07
		C61.68,41.62,61.73,41.17,61.76,40.94"/>
	<path class="st465" d="M61.69,41.05c-0.03,0.08-0.09,0.2-0.19,0.41c-0.12,0.25-0.3,0.63-0.59,1.17c0.19-0.36,0.35-0.65,0.47-0.9
		C61.54,41.43,61.63,41.21,61.69,41.05"/>
	<path class="st465" d="M64.49,42c-0.37,0-0.71,0.02-0.96,0.07c-0.37,0.08-0.58,0.25-0.71,0.64c-0.06,0.22-0.26,0.7-0.59,1.27
		c-0.09,0.15-0.18,0.3-0.28,0.45c0.01,0.04,0.02,0.09,0.02,0.13c0.13,0.5,0.31,1.01,0.56,1.51c0.04,0.08,0.09,0.15,0.13,0.2
		c0.05,0.06,0.11,0.1,0.16,0.14c0.09,0.06,0.18,0.09,0.27,0.09c0.04,0,0.08-0.01,0.11-0.02c0.18-0.13,0.31-0.47,0.35-0.86
		c0.03-0.19,0.04-0.4,0.04-0.6c0-0.01,0-0.01,0-0.02l0,0l0,0l0,0l0,0c0.1-0.26-0.16-0.36,0.75-0.97c0.87-0.67,1.81-1.33,2.87-1.95
		c-0.79-0.01-1.53-0.03-2.2-0.07C64.84,42,64.66,42,64.49,42"/>
	<path class="st465" d="M82.47,43.64L82.47,43.64c0.08,0.01,0.17,0.03,0.26,0.05l0,0l0,0l0,0l0,0l-0.01,0.01l-0.05,0.1l-0.04,0.05
		L82.47,43.64L82.47,43.64L82.47,43.64 M75.29,42.2c0.18,0.14,0.35,0.3,0.52,0.45c1.54,1.49,2.9,3.49,4.15,5.18
		c0.32,0.12,0.62,0.21,0.89,0.21c0.2,0,0.38-0.05,0.53-0.18c0.07,0,0.09-0.02,0.09-0.06c0-0.07-0.06-0.21-0.06-0.5l0,0
		c0-0.21,0.03-0.49,0.15-0.86c0.17-0.62,0.54-1.47,1.23-2.72c0-0.01,0.01-0.02,0.01-0.02c-0.11-0.02-0.21-0.04-0.32-0.06l0,0
		c-0.24-0.28-0.61-0.51-1.02-0.66c-0.84-0.31-1.75-0.42-2.6-0.49C77.51,42.37,76.3,42.27,75.29,42.2"/>
	<path class="st465" d="M60.19,43.98c-0.02,0.04-0.04,0.08-0.06,0.11c0,0,0.01-0.01,0.01-0.01C60.15,44.05,60.17,44.02,60.19,43.98"
		/>
	<path class="st465" d="M59.7,44.38c-0.04,0.08-0.06,0.14-0.06,0.16l0.02,0.02l0.1-0.06c0,0-0.01,0-0.01,0
		C59.7,44.51,59.71,44.43,59.7,44.38"/>
	<path class="st465" d="M61.96,44.43c0,0,0,0.01-0.01,0.01c0.01,0.04,0.02,0.08,0.03,0.12C61.98,44.52,61.97,44.47,61.96,44.43"/>
	<path class="st465" d="M92.47,45.44L92.47,45.44l0.04,0.01l0.02,0C92.51,45.45,92.49,45.44,92.47,45.44"/>
	<polyline class="st465" points="92.52,45.45 92.52,45.45 92.52,45.45 92.52,45.45 	"/>
	<path class="st465" d="M92.52,45.45L92.52,45.45c0.11,0.02,0.16,0.03,0.16,0.03C92.68,45.48,92.63,45.47,92.52,45.45"/>
	<path class="st465" d="M103.2,45.51l-0.05,0c-0.09,0.01-0.18,0.02-0.26,0.03c-0.16,0.02-0.31,0.03-0.44,0.05
		c-0.25,0.03-0.42,0.05-0.46,0.08c-0.6,0.2-2.68,0.42-5.53,1.32c-0.25,0.09-0.5,0.18-0.75,0.28c-0.06,0.12-0.13,0.23-0.19,0.32
		c-0.47,0.7-0.88,1.08-1.09,1.35c-0.23,0.27-0.36,0.49-0.36,0.62c0,0.08,0.06,0.13,0.18,0.13c0.06,0,0.13-0.01,0.22-0.03l0,0l0,0
		l0,0l0,0c-1.28,0.38-1.88,1.45-2.46,2.7c-0.11,0.23-0.22,0.47-0.33,0.71c0.15-0.2,0.3-0.4,0.48-0.61c0.46-0.22,1.7-0.91,2.14-1.1
		c0.41-0.35,0.8-0.68,1.17-0.98c-0.3,0.06-0.52,0.08-0.64,0.08c-0.07,0-0.1-0.01-0.1-0.02l0,0c0,0,0-0.01,0.01-0.01
		c0.64-0.63,1.38-1.28,2.1-1.67c0.37-0.21,0.75-0.48,1.12-0.63l1.12-0.5c0.37-0.19,0.73-0.27,1.08-0.41
		c0.35-0.11,0.69-0.27,1.01-0.36c0.64-0.18,1.21-0.4,1.64-0.53c0.36-0.13,0.86-0.29,1.41-0.45c0.13-0.03,0.27-0.06,0.41-0.09
		l0.21-0.05l0.05-0.01l0.03-0.01c0.01,0,0,0,0.02,0c0.01,0,0.03,0,0.06,0l0.74,0.05c0.86,0.06,1.74,0.12,2.62,0.19
		c0.03-0.04,0.06-0.07,0.09-0.1l-0.08,0.03c-0.46-0.03-0.91-0.07-1.35-0.1c-0.94-0.07-1.84-0.14-2.69-0.2
		c-0.22-0.02-0.43-0.03-0.63-0.05l-0.31-0.02L103.2,45.51"/>
	<path class="st465" d="M109.04,45.6c0,0-0.01,0.01-0.03,0.02c0.01,0,0.01,0.01,0.02,0.01C109.04,45.61,109.05,45.6,109.04,45.6
		C109.05,45.6,109.05,45.6,109.04,45.6"/>
	<path class="st465" d="M108.33,45.96c-0.01,0.01-0.02,0.03-0.04,0.04c0,0,0,0.01,0,0.01l0,0c0,0,0,0.01,0,0.01l0.16,0.01l0.27,0.02
		l0.04-0.04l0.02-0.02l-0.14-0.01C108.53,45.97,108.43,45.97,108.33,45.96"/>
	<path class="st465" d="M62.67,46.27c0.14,0.18,0.27,0.26,0.38,0.26c0.06,0,0.11-0.02,0.16-0.05c-0.04,0.01-0.07,0.02-0.11,0.02
		c-0.08,0-0.17-0.03-0.27-0.09C62.78,46.37,62.73,46.33,62.67,46.27"/>
	<path class="st465" d="M91.67,53.07c-0.22,0.31-0.42,0.6-0.6,0.91c-0.15,0.25-0.28,0.5-0.42,0.77c-0.06,0.13-0.12,0.25-0.17,0.38
		C90.97,54.5,91.33,53.78,91.67,53.07 M79.95,47.83L79.95,47.83L79.95,47.83L79.95,47.83L79.95,47.83 M77.92,47.24
		c-0.14,0-0.29,0.02-0.42,0.06c-1.62,0.73-2.39,2.71-2.74,4.49c-0.26,1.1-0.59,2.22-1.01,3.31c0.5-0.21,1.01-0.44,1.52-0.68
		c0.51-0.23,1.05-0.51,1.56-0.74c0.5-0.23,1.01-0.48,1.51-0.74c0.5-0.25,1.02-0.57,1.5-0.8c0.47-0.22,0.95-0.46,1.42-0.7
		c0.4-0.21,0.8-0.41,1.19-0.61c-0.66-0.73-1.3-1.48-1.93-2.24c-0.18-0.24-0.37-0.49-0.56-0.75c-0.16-0.06-0.33-0.13-0.5-0.19
		C78.94,47.44,78.41,47.24,77.92,47.24"/>
	<path class="st465" d="M108.3,53.46c-0.03,0.05-0.07,0.1-0.1,0.15c1.17,0.07,2.39,0.23,3.74,0.55c0.39,0.08,0.71,0.51,0.93,1.07
		c-0.23-0.63-0.58-1.14-1-1.24C110.61,53.7,109.43,53.54,108.3,53.46"/>
	<path class="st465" d="M90.48,55.13c-0.23,0.29-0.48,0.56-0.77,0.79c-0.22,0.2-0.47,0.37-0.73,0.51c0.22,0.18,0.48,0.39,0.79,0.61
		c0.16-0.42,0.29-0.83,0.41-1.25C90.28,55.56,90.38,55.34,90.48,55.13"/>
	<path class="st465" d="M30.46,90.77L30.46,90.77L30.46,90.77L30.46,90.77L30.46,90.77 M33.34,86.54c-0.46,0.59-0.97,1.35-1.48,2.04
		c-0.75,1.17-1.22,1.92-1.4,2.19c-0.03,0.07-0.08,0.16-0.13,0.27c-0.11,0.22-0.24,0.48-0.4,0.81c-0.16,0.32-0.35,0.69-0.47,1.15
		c-0.16,0.53-0.36,1.01-0.44,1.54c-0.07,0.54-0.13,1.05-0.15,1.55c0.01,0.1,0.02,0.2,0.03,0.3c0.71,0.21,1.63,0.54,2.81,0.97
		c0.33,0.42,0.75,0.78,1.25,1.06c0.64,0.31,1.36,0.55,2.13,0.69l0.29,0.05l0.37,0.04c0.25,0.03,0.5,0.05,0.75,0.06
		c0.27,0.01,0.55,0.02,0.82,0.02c0.24,0,0.47-0.01,0.71-0.02c0.26-0.01,0.5-0.03,0.79-0.06c0.32-0.03,0.64-0.07,0.96-0.12
		c0.64-0.1,1.27-0.22,1.9-0.38c0.71-0.05,1.38-0.29,2.27-0.73c0.85-0.43,1.64-1.01,2.51-1.72c0.85-0.71,1.6-1.49,2.36-2.35
		c0.76-0.86,1.42-1.74,1.97-2.6c0.17-0.39,0.22-0.8,0.22-1.22c0-0.53-0.07-1.06-0.07-1.59l0,0c0-0.27,0.02-0.54,0.08-0.8
		c-1.09,0.32-2.36,0.61-3.76,0.83c-1.29,0.21-2.68,0.34-4.07,0.37c-0.29,0.01-0.59,0.01-0.88,0.01c-1.1,0-2.21-0.08-3.13-0.4
		c-1.16-0.42-1.67-0.91-2.1-1.18c-0.38-0.28-0.83-0.46-1.11-0.46c-0.1,0.03-0.19,0.05-0.27,0.05c-0.1,0-0.19-0.02-0.27-0.05
		c-0.47,0.25-0.82,0.4-1.15,0.42c-0.14,0-0.24,0.02-0.33,0.02c-0.07,0-0.13-0.01-0.2-0.03c-0.13-0.04-0.27-0.15-0.32-0.23
		c-0.05-0.1-0.1-0.27-0.1-0.45l0,0C33.33,86.59,33.33,86.57,33.34,86.54"/>
	<path class="st465" d="M30.54,90.63c0,0-0.03,0.05-0.08,0.14C30.52,90.68,30.54,90.63,30.54,90.63
		C30.54,90.63,30.54,90.63,30.54,90.63"/>
	<path class="st465" d="M30.47,90.76c-0.01,0.01-0.02,0.03-0.03,0.04C30.45,90.79,30.45,90.78,30.47,90.76
		C30.46,90.77,30.46,90.77,30.47,90.76"/>
	<path class="st466" d="M112.88,55.23c0.17,0.48,0.27,1.03,0.27,1.51l0,0c0,0.22-0.02,0.43-0.06,0.61
		c-0.39,2.02-1.65,3.55-3.15,4.76c-1.5,1.23-3.25,2.17-4.9,3.27c-0.37,0.58-1.42,1.28-1.57,1.88c-0.13,0.62-0.59,1.14-1.06,1.65
		c-1.03,0.74-2.05,1.35-3.15,1.88c-1.11,0.54-2.19,0.94-3.26,1.28c-2.13,0.64-4.16,0.95-6.18,1.08c-2.02,0.46-3.59,0.96-5.05,1.48
		c-1.48,0.52-2.76,1.01-4.41,1.51c-0.41,0.1-0.79,0.22-1.18,0.36c-0.37,0.14-0.68,0.27-1.16,0.5c0.01,0.03,0.01,0.07,0.02,0.1
		c0.18-0.08,0.36-0.17,0.55-0.25c0.18-0.07,0.37-0.15,0.56-0.22c0.38-0.15,0.77-0.26,1.17-0.37c1.66-0.51,2.92-0.99,4.4-1.51
		c1.46-0.51,3.03-1.02,5.04-1.47c2-0.12,4.04-0.43,6.17-1.07c1.07-0.33,2.15-0.73,3.26-1.27c1.11-0.52,2.14-1.14,3.17-1.87
		c0.47-0.51,0.93-1.03,1.07-1.65c0.15-0.6,1.2-1.3,1.58-1.87c1.66-1.1,3.41-2.03,4.92-3.26c1.5-1.22,2.79-2.73,3.19-4.76
		c0.05-0.19,0.07-0.4,0.07-0.63C113.21,56.36,113.09,55.74,112.88,55.23"/>
	<path class="st467" d="M108.21,53.61c-0.29,0.44-0.58,0.83-0.86,1.17c-0.58,0.71-1.12,1.24-1.6,1.66c0.08,0.12,0.14,0.27,0.17,0.44
		c0.02,0.1,0.03,0.21,0.03,0.32l0,0c0,0.42-0.11,0.96-0.42,1.63c0,0-0.27,1.14-0.86,2.47c-0.57,1.34-1.48,2.85-2.23,3.73
		c0,0-0.42,0.27-1.15,0.76c-0.75,0.46-1.84,1.08-3.22,1.69c-2.85,1.29-6.63,2.24-10.16,2.85c-1.71,0.28-3.44,0.57-5.08,0.84
		c-1.59,0.26-3.04,0.54-4.37,0.81c-0.48,0.1-0.94,0.19-1.37,0.28l0.08,0.41c0.29,1.44,0.58,2.88,0.87,4.33
		c0.48-0.23,0.8-0.36,1.16-0.5c0.38-0.15,0.77-0.26,1.18-0.36c1.65-0.5,2.93-0.99,4.41-1.51c1.47-0.51,3.04-1.02,5.05-1.48
		c2.01-0.12,4.05-0.43,6.18-1.08c1.07-0.34,2.15-0.74,3.26-1.28c1.1-0.53,2.13-1.14,3.15-1.88c0.47-0.51,0.93-1.03,1.06-1.65
		c0.15-0.6,1.2-1.3,1.57-1.88c1.65-1.1,3.39-2.04,4.9-3.27c1.5-1.22,2.76-2.74,3.15-4.76c0.04-0.18,0.06-0.39,0.06-0.61
		c0-0.49-0.1-1.03-0.27-1.51c-0.22-0.55-0.55-0.99-0.93-1.07C110.6,53.85,109.37,53.68,108.21,53.61"/>
	<path class="st467" d="M95.5,58.28c-0.26,0.06-0.53,0.19-0.7,0.37c0.34-0.07,0.66-0.19,0.95-0.37
		C95.66,58.28,95.58,58.28,95.5,58.28"/>
	<path class="st466" d="M57.97,77.56c-2.46,0.83-5.17,1.71-8.05,2.29c-0.92,0.19-1.86,0.37-2.82,0.52
		c-1.01,0.34-2.06,0.68-3.08,0.82c-0.24,0.03-0.48,0.05-0.71,0.05c-0.07,0-0.14,0-0.2,0c-0.2,0.13-0.38,0.26-0.55,0.39
		c-0.99,0.68-1.89,1.17-2.37,1.54c-0.53,0.34-0.83,0.54-0.83,0.54c-0.61,0.66-1.24,1.19-1.74,1.65c-0.5,0.46-0.96,0.82-1.39,1.1
		c-0.27,0.16-0.51,0.3-0.72,0.41c0.09,0.04,0.19,0.06,0.29,0.06c0.08,0,0.17-0.01,0.27-0.05c0.29,0.01,0.72,0.18,1.1,0.46
		c0.44,0.27,0.96,0.76,2.12,1.16c0.91,0.3,1.98,0.37,3.05,0.37c0.31,0,0.62-0.01,0.93-0.02c1.38-0.04,2.75-0.16,4.04-0.38
		c1.39-0.22,2.66-0.52,3.76-0.83c0.03-0.12,0.08-0.25,0.13-0.37c1.33-2.36,3.26-4.28,4.86-6.46C56.84,79.77,57.5,78.71,57.97,77.56"
		/>
	<path class="st467" d="M35.49,86.86c-0.02,0.01-0.04,0.02-0.06,0.03c0.08,0.04,0.18,0.05,0.27,0.05c0.08,0,0.17-0.01,0.27-0.05
		c0.28,0,0.73,0.18,1.11,0.46c0.44,0.27,0.95,0.76,2.1,1.18c0.93,0.31,2.03,0.4,3.13,0.4c0.3,0,0.59-0.01,0.88-0.01
		c1.39-0.04,2.78-0.16,4.07-0.37c1.39-0.22,2.67-0.52,3.76-0.83c0.01-0.02,0.01-0.05,0.02-0.07c-1.09,0.32-2.37,0.62-3.76,0.83
		c-1.28,0.21-2.66,0.34-4.04,0.38c-0.31,0.01-0.62,0.02-0.93,0.02c-1.07,0-2.14-0.08-3.05-0.37c-1.16-0.4-1.68-0.89-2.12-1.16
		c-0.38-0.28-0.81-0.46-1.1-0.46c-0.09,0.03-0.18,0.05-0.27,0.05C35.68,86.92,35.58,86.9,35.49,86.86"/>
	<path class="st466" d="M38.27,78.33c-0.04,0.03-0.07,0.06-0.09,0.12c-0.11,0.17-0.21,0.33-0.32,0.5
		C38,78.74,38.14,78.53,38.27,78.33"/>
	<path class="st466" d="M37.83,78.99c-0.15,0.24-0.29,0.47-0.43,0.69C37.55,79.44,37.7,79.21,37.83,78.99"/>
	<path class="st466" d="M35.65,82.75c-0.22,0.4-0.41,0.75-0.58,1.07c-0.01,0.02-0.02,0.03-0.02,0.05c0.14-0.13,0.21-0.21,0.21-0.21
		C35.36,83.35,35.5,83.05,35.65,82.75"/>
	<path class="st468" d="M88.98,56.43c-1.67,0.93-3.93,0.95-5,2.51c-0.98,1.1-1.89,2.5-3.18,2.5c-0.2,0-0.4-0.03-0.62-0.1
		c-0.88-0.21-1.6-0.36-2.32-0.36c-0.18,0-0.36,0.01-0.54,0.03c-1.74,0.63-3.28,1.87-4.98,1.87c-0.22,0-0.44-0.02-0.66-0.06
		c-0.45-0.13-0.91-0.38-1.38-0.64c0.06,0.46,0.11,0.92,0.17,1.38l0.04,0.33l0.02,0.16l0.01,0.06c0.2,0.04,0.39,0.1,0.59,0.18
		c1.47,0.36,2.85,1.06,4.44,1.17c1.04,0,1.9-0.16,2.83-0.48c3.51-0.78,6.73-2.21,9.54-4.33c0.01-0.02,0.03-0.04,0.04-0.06
		c0.09-0.76,0.47-1.29,0.97-1.69c0.35-0.67,0.62-1.26,0.83-1.82C89.46,56.83,89.2,56.62,88.98,56.43"/>
	<path class="st468" d="M105.74,56.44c-0.25,0.22-0.49,0.4-0.71,0.56c-0.65,0.47-1.2,0.76-1.6,0.91L102.55,58
		c-1.94,0.19-3.88,0.29-5.85,0.29c-0.32,0-0.64,0-0.96-0.01c-0.29,0.18-0.61,0.3-0.95,0.37c-0.1,0.11-0.17,0.24-0.19,0.38
		c-0.62,2.84-3.61,3.52-4.88,5.5c-0.6,0.8-0.9,1.95-1.86,2.41c-2.38,1.13-4.91,1.75-7.46,1.95c-0.86,0.69-1.76,1.37-2.71,2.01
		l-0.48,0.32l-0.24,0.16l-0.06,0.04c0,0,0,0,0,0.01c0,0.07,0.05,0.26,0.07,0.38l0.09,0.45c0.43-0.09,0.89-0.18,1.37-0.28
		c1.33-0.27,2.77-0.55,4.37-0.81c1.64-0.27,3.36-0.56,5.08-0.84c3.53-0.61,7.31-1.56,10.16-2.85c1.38-0.61,2.47-1.23,3.22-1.69
		c0.74-0.48,1.15-0.76,1.15-0.76c0.76-0.88,1.66-2.39,2.23-3.73c0.59-1.33,0.86-2.47,0.86-2.47c0.31-0.66,0.42-1.21,0.42-1.63
		c0-0.12-0.01-0.23-0.03-0.32C105.88,56.71,105.82,56.56,105.74,56.44"/>
	<path class="st468" d="M69.72,57.4c-0.65,0.36-0.96,0.62-1.46,0.99c-0.32,0.25-0.65,0.51-0.98,0.8c-0.01,0.02-0.03,0.03-0.04,0.05
		c-0.89,1.08-2.22,2.6-3.89,4.07c-1.49,1.32-3.27,2.56-4.94,3.29c-1.71,3.17-4.7,6.4-7.71,8.97c-0.77,0.67-1.5,1.3-2.28,1.89
		c-0.76,0.59-1.59,1.15-2.22,1.64c-0.79,0.59-1.58,1.12-2.3,1.59c0.08,0,0.17,0.01,0.25,0.01c0.14,0,0.29-0.01,0.43-0.02
		c0.84-0.08,1.69-0.19,2.52-0.32c0.95-0.15,1.89-0.32,2.82-0.52c2.88-0.58,5.59-1.46,8.05-2.29c0.02-0.04,0.03-0.08,0.05-0.13
		c0.47-1.14,0.72-2.34,0.72-3.64c0-0.09,0-0.17,0-0.26c-0.03-0.12-0.04-0.25-0.04-0.38l0,0c0-0.9,0.67-2.09,1.5-3.27
		c1-1.38,2.26-2.78,3.38-3.79c0.39-0.28,1.18-0.55,2.31-0.83c-0.2-0.11-0.4-0.21-0.6-0.32c-0.44-0.37-1.1-0.71-1.23-1.28
		c-0.02-0.05-0.03-0.09-0.03-0.13l0,0c0-0.29,0.67-0.31,0.96-0.57l0,0c0.01-0.67,1.21-0.66,1.74-1.24c0.37-0.36,0.77-0.5,1.17-0.5
		c0.77,0,1.59,0.5,2.39,0.95c-0.17-1.36-0.34-2.76-0.51-4.19L69.72,57.4"/>
	<path class="st468" d="M49.39,61.65c-0.18,0-0.41,0.12-0.62,0.28c-0.22,0.15-0.41,0.36-0.58,0.58c0.15-0.15,0.32-0.23,0.5-0.23
		c0.06,0,0.13,0.01,0.19,0.03c0.09,0.03,0.24,0.1,0.33,0.18c0.11,0.09,0.24,0.2,0.32,0.33c0.13,0.13,0.21,0.28,0.3,0.45
		c-0.01-0.1-0.01-0.2-0.01-0.28c-0.01-0.32-0.02-0.51-0.02-0.51l0,0l0,0l0,0l0,0c0-0.02,0-0.04,0-0.06
		C49.8,61.86,49.63,61.65,49.39,61.65"/>
	<path class="st468" d="M47.99,62.79c-0.07,0.1-0.14,0.2-0.19,0.31l-0.09,0.21l-0.04,0.1l-0.02,0.05l-0.1,0.17
		c-0.03,0.05-0.06,0.11-0.09,0.16c0.24-0.4,0.39-0.64,0.39-0.64C47.89,63.01,47.93,62.9,47.99,62.79"/>
	<path class="st468" d="M53.09,64.81c-0.27,0.06-0.57,0.1-0.88,0.13c0.19,0.08,0.36,0.16,0.52,0.25c0.32,0.17,0.55,0.36,0.71,0.49
		c0.16,0.14,0.23,0.24,0.23,0.24c0.02,0.31,0.1,0.55,0.25,0.75c0.3,0.43,0.87,0.63,1.61,0.63c0.67,0,1.47-0.17,2.34-0.5
		c0.18-0.07,0.36-0.14,0.54-0.22c0.03-0.06,0.07-0.13,0.1-0.19c-0.8,0.5-1.56,0.72-2.23,0.72c-0.02,0-0.03,0-0.05,0
		c-0.94,0-1.68-0.41-2.17-0.89C53.34,65.59,53.09,64.81,53.09,64.81"/>
	<path class="st468" d="M36.4,81.31c-0.04,0.02-0.04,0.07-0.07,0.07l0.02,0.02C36.37,81.37,36.38,81.34,36.4,81.31"/>
	<path class="st469" d="M58.89,51.13c-0.08,0-0.16,0.01-0.25,0.04c-0.4,0.12-0.89,0.48-1.3,0.78c-0.44,0.35-0.73,0.57-0.73,0.57
		c-0.31,0.44-0.59,0.79-0.84,1.09c0.24-0.05,0.5-0.11,0.77-0.18c0.31-0.09,0.6-0.17,0.88-0.24c0.15-0.05,0.3-0.09,0.43-0.13
		l0.21-0.07l0.05-0.01l0.01,0.12l0.03,0.24c0.15,1.27,0.45,2.44,0.76,3.26c0.29,0.82,0.54,1.3,0.54,1.3
		c0.38,0.84,0.62,1.86,0.62,3.02l0,0c0,0.19-0.01,0.38-0.02,0.58c-0.09,1.39-0.58,3-1.39,4.63c-0.05,0.1-0.1,0.19-0.15,0.29
		c-0.03,0.06-0.07,0.13-0.1,0.19c1.67-0.73,3.45-1.96,4.94-3.29c1.67-1.47,3-2.99,3.89-4.07c0.01-0.02,0.03-0.03,0.04-0.05
		c0.31-0.38,0.57-0.71,0.77-0.97c-0.14,0.07-0.3,0.1-0.47,0.1c-0.32,0-0.66-0.11-0.97-0.28c-0.76-0.41-1.33-1.14-1.33-1.14
		c-0.32,0.41-0.78,0.59-1.3,0.59c-0.83,0-1.79-0.46-2.47-1.15c-1.17-1.09-1.67-2.72-1.67-2.72C59.71,51.69,59.39,51.13,58.89,51.13"
		/>
	<path class="st469" d="M55.76,53.61c-0.29,0.06-0.55,0.11-0.79,0.15c-0.34,0.05-0.61,0.07-0.82,0.07c-0.21,0-0.35-0.02-0.43-0.04
		c0.03,0.03,0.07,0.06,0.11,0.12c0.1,0.15,0.23,0.44,0.32,1.02c0,0,0,0,0,0c0,0,0,0.02,0.01,0.04c0.01,0.02,0.02,0.04,0.06,0.04
		c0.04,0,0.09-0.02,0.17-0.07c0.13-0.08,0.33-0.24,0.69-0.59C55.26,54.16,55.49,53.92,55.76,53.61"/>
	<path class="st469" d="M53.65,53.74C53.65,53.74,53.65,53.74,53.65,53.74C53.65,53.74,53.65,53.75,53.65,53.74
		c0,0.01,0.02,0.03,0.07,0.04C53.69,53.75,53.66,53.74,53.65,53.74"/>
	<path class="st469" d="M68.61,57.46c0,0-0.19,0.27-0.56,0.75C68.3,58.09,68.5,57.86,68.61,57.46"/>
	<path class="st469" d="M48.69,62.29c-0.18,0-0.36,0.08-0.5,0.23c-0.07,0.07-0.14,0.16-0.19,0.27c-0.05,0.1-0.1,0.22-0.13,0.36
		c0,0-0.14,0.24-0.39,0.64c-0.2,0.33-0.47,0.78-0.78,1.3c-0.79,1.31-1.94,3.2-3.29,5.36c-0.68,1.08-1.41,2.21-2.16,3.36
		c-0.69,1.05-1.42,2.18-2.26,3.47c-0.22,0.34-0.46,0.68-0.7,1.05c-0.13,0.2-0.27,0.4-0.41,0.61c0,0,0,0.01-0.01,0.01
		c-0.01,0.01-0.01,0.02-0.02,0.03c-0.14,0.22-0.28,0.45-0.43,0.69c-0.18,0.29-0.37,0.6-0.56,0.91c-0.15,0.24-0.3,0.48-0.44,0.72
		c-0.02,0.03-0.03,0.06-0.05,0.09c-0.14,0.25-0.28,0.5-0.4,0.75c-0.1,0.21-0.2,0.41-0.3,0.6c-0.15,0.3-0.3,0.59-0.39,0.91
		c0,0-0.08,0.07-0.21,0.21c-0.01,0.01-0.02,0.02-0.03,0.03c-0.13,0.15-0.31,0.36-0.53,0.62c-0.23,0.23-0.44,0.54-0.63,0.85
		c-0.09,0.16-0.21,0.29-0.28,0.46c-0.06,0.17-0.12,0.33-0.17,0.47c-0.04,0.08-0.06,0.17-0.07,0.25c0,0.02,0,0.05,0,0.07
		c0,0.18,0.05,0.35,0.1,0.45c0.05,0.09,0.19,0.2,0.32,0.23c0.07,0.02,0.13,0.03,0.2,0.03c0.09,0,0.18-0.01,0.33-0.02
		c0.5-0.04,1.03-0.34,1.93-0.87c0.43-0.27,0.89-0.64,1.39-1.1c0.5-0.46,1.13-0.99,1.74-1.65c0,0,0.3-0.2,0.83-0.54
		c0.48-0.37,1.38-0.86,2.37-1.54c0.93-0.68,2.31-1.51,3.65-2.51c0.63-0.5,1.46-1.05,2.22-1.64c0.78-0.59,1.5-1.22,2.28-1.89
		c3.02-2.57,6-5.79,7.71-8.97c-0.18,0.08-0.36,0.15-0.54,0.22c-0.86,0.33-1.67,0.5-2.34,0.5c-0.74,0-1.31-0.21-1.61-0.63
		c-0.15-0.21-0.23-0.45-0.25-0.75c0,0-0.08-0.1-0.23-0.24c-0.16-0.13-0.39-0.32-0.71-0.49c-0.15-0.09-0.32-0.17-0.52-0.25
		c-0.2-0.08-0.43-0.16-0.68-0.24c-0.47-0.14-1.08-0.39-1.35-0.83c-0.3-0.41-0.39-0.78-0.65-1.05c-0.08-0.13-0.21-0.24-0.32-0.33
		c-0.08-0.08-0.23-0.15-0.33-0.18C48.81,62.3,48.75,62.29,48.69,62.29"/>
	<path class="st470" d="M94.01,44.06c-0.01,0-0.02,0-0.02,0c0,0,0.11,0.02,0.37,0.03l0,0l0,0l0,0l0,0c0,0-0.01,0-0.01,0
		c-0.01,0-0.01,0-0.01,0c0,0.01,0.2,0.04,0.49,0.07c-0.2-0.05-0.37-0.08-0.51-0.09C94.16,44.07,94.06,44.06,94.01,44.06"/>
	<path class="st470" d="M94.83,44.17c0.12,0.03,0.24,0.07,0.37,0.13c0.37,0.15,0.7,0.42,0.9,0.94c0.04,0.13,0.06,0.26,0.08,0.4
		c0,0.02,0,0.05,0,0.07l0,0c0,0.11-0.01,0.22-0.05,0.39c-0.02,0.1-0.04,0.2-0.07,0.29c0.64-0.03,1.37-0.03,1.81-0.09
		c1.3-0.41,1.47-0.69,1.47-0.91c0-0.08-0.02-0.14-0.02-0.21l0,0c0-0.01,0-0.01,0-0.02l0.1-0.05l0.1-0.03
		c0.21,0.01,0.43,0.03,0.65,0.04c0.91,0.06,1.89,0.13,2.92,0.2l0.2,0.01l0.09,0.01l0.01,0l0.02-0.01l0.06-0.02l0.15-0.04
		c0.11-0.03,0.25-0.04,0.39-0.06c0.17-0.02,0.35-0.03,0.52-0.03c-2.41-0.31-4.95-0.58-7.65-0.79c-0.48-0.05-1.07-0.11-1.57-0.16
		C95.14,44.21,94.97,44.19,94.83,44.17"/>
	<path class="st470" d="M104.86,45.17c-0.1,0-0.21,0.01-0.34,0.01c0.23,0.03,0.45,0.06,0.68,0.09c0,0,0,0,0,0c0,0,0.01,0,0.01,0
		C105.21,45.24,105.07,45.17,104.86,45.17"/>
	<path class="st470" d="M110.13,45.75l-0.04,0.18l-0.03,0.16l-0.01,0.06l0.25,0.02l0.89,0.06l0.19,0.01l-0.03-0.01l-0.07-0.02
		l-0.54-0.18c-0.34-0.11-0.48-0.2-0.55-0.27L110.13,45.75"/>
	<path class="st470" d="M108.29,46.02c-0.03,0.06-0.33,0.09-0.43,0.16c0.01,0,0.02-0.01,0.03-0.01l0.22-0.05l0.11-0.02
		c0.26,0.02,0.52,0.04,0.79,0.06c0.34,0.03,0.68,0.05,1.03,0.08c0.01-0.01,0-0.03,0.01-0.04l0.01-0.04l-1.6-0.11L108.29,46.02"/>
	<path class="st470" d="M90.48,55.13L90.48,55.13L90.48,55.13L90.48,55.13L90.48,55.13 M91.67,53.07L91.67,53.07L91.67,53.07
		L91.67,53.07L91.67,53.07 M107.86,46.18c-0.13,0.03-0.26,0.06-0.38,0.09c-0.54,0.16-1,0.29-1.26,0.4c-2.54,0.7-5.46,1.88-7.77,2.78
		c-0.28,0.1-0.55,0.17-0.82,0.26c-0.27,0.11-0.52,0.2-0.75,0.28c-0.47,0.16-0.88,0.27-1.21,0.34c-0.08,0.02-0.15,0.03-0.22,0.04
		c-0.37,0.3-0.76,0.63-1.17,0.98c-0.43,0.19-1.68,0.88-2.14,1.1c-0.17,0.21-0.33,0.42-0.48,0.61c-0.33,0.71-0.7,1.44-1.19,2.06
		c-0.1,0.21-0.2,0.43-0.3,0.66c-0.28,0.97-0.62,1.89-1.24,3.08c0.87-0.69,2.11-1.04,2.93-1.65c0.43-0.25,1.02-0.26,1.63-0.48
		c1.22-0.76,1.91-2.21,3.3-2.21c0.08,0,0.16,0,0.24,0.01c0.82,0.14,1.64,0.25,2.46,0.33l0.61,0.06c0,0,0,0,0.01,0
		c0.07,0,0.13,0.01,0.19,0.02c0.06,0.01,0.12,0.02,0.19,0.02c0.08,0,0.17-0.01,0.29-0.05c0.56-0.13,1.27-0.43,2.12-1.05
		c0.83-0.62,1.92-1.64,2.91-3.47c0.25-0.5,0.48-0.96,0.7-1.57l0.28-0.84l0.16-0.34c0.06-0.15,0.09-0.15,0.13-0.19l0.11-0.12
		c0.07-0.08,0.13-0.16,0.19-0.24c0.24-0.32,0.38-0.62,0.46-0.85c-0.01-0.01-0.02-0.02-0.02-0.03l0,0
		C107.83,46.21,107.84,46.19,107.86,46.18"/>
	<path class="st470" d="M96.06,46.4c-0.34,0.02-0.67,0.04-0.91,0.08c-0.16,0.05-0.67,0.12-1.45,0.31c-0.39,0.08-0.85,0.18-1.35,0.28
		c-0.52,0.14-1.09,0.3-1.7,0.46c-2.21,0.62-4.99,1.68-8.22,3.29c-0.39,0.19-0.79,0.4-1.19,0.61c-0.47,0.24-0.94,0.48-1.42,0.7
		c-0.48,0.24-1,0.55-1.5,0.8c-0.51,0.26-1.01,0.51-1.51,0.74c-0.5,0.24-1.04,0.52-1.56,0.74c-0.51,0.24-1.02,0.46-1.52,0.68
		c-0.53,0.23-1.06,0.44-1.58,0.64c-0.5,0.18-0.99,0.36-1.47,0.53c-0.24,0.08-0.47,0.16-0.7,0.23l-0.34,0.11c0,0-0.01-0.01-0.01-0.01
		c-0.01,0-0.01,0.02-0.01,0.04c0,0.05,0.01,0.14,0.02,0.21l0.05,0.37l0.09,0.74c0.18,1.43,0.35,2.83,0.51,4.19
		c0.47,0.26,0.93,0.51,1.38,0.64c0.22,0.04,0.44,0.06,0.66,0.06c1.7,0,3.24-1.23,4.98-1.87c0.18-0.02,0.36-0.03,0.54-0.03
		c0.72,0,1.43,0.15,2.32,0.36c0.22,0.07,0.42,0.1,0.62,0.1c1.29,0,2.2-1.39,3.18-2.5c1.24-1.8,4.07-1.54,5.73-3.02
		c0.29-0.23,0.54-0.5,0.77-0.79c0.06-0.13,0.12-0.26,0.17-0.38c0.13-0.27,0.27-0.52,0.42-0.77c0.18-0.3,0.37-0.6,0.6-0.91
		c0.11-0.24,0.22-0.48,0.33-0.71c0.58-1.25,1.18-2.32,2.46-2.7c-0.09,0.02-0.16,0.03-0.22,0.03c-0.12,0-0.18-0.05-0.18-0.13l0,0
		c0-0.13,0.14-0.35,0.36-0.62c0.21-0.27,0.62-0.65,1.09-1.35c0.06-0.1,0.13-0.2,0.19-0.32C95.84,47.02,95.97,46.74,96.06,46.4"/>
	<path class="st470" d="M87.97,60.56c-0.01,0.02-0.03,0.04-0.04,0.06c0.01-0.01,0.02-0.02,0.03-0.03
		C87.96,60.59,87.96,60.57,87.97,60.56"/>
	<path class="st470" d="M70.3,62.16L70.3,62.16L70.3,62.16L70.3,62.16L70.3,62.16 M67.91,61.21c-0.41,0-0.8,0.14-1.17,0.5
		c-0.53,0.58-1.74,0.57-1.74,1.24c0.55,0.13,1.14,0.63,1.88,0.77c1.23,0.4,2.45,0.1,3.66,0.36l-0.01-0.06l-0.02-0.16l-0.04-0.33
		c-0.06-0.45-0.11-0.91-0.17-1.38C69.5,61.71,68.68,61.21,67.91,61.21"/>
	<path class="st470" d="M65.89,65.25c-1.13,0.28-1.91,0.55-2.31,0.83c-1.13,1.01-2.39,2.42-3.38,3.79c-0.83,1.18-1.5,2.37-1.5,3.27
		c0,0.13,0.01,0.26,0.04,0.38c0,0.09,0,0.18,0,0.26l0,0c0,1.3-0.25,2.5-0.72,3.64c-0.02,0.04-0.03,0.08-0.05,0.13
		c-0.48,1.15-1.14,2.21-1.92,3.26c-1.6,2.18-3.53,4.1-4.86,6.46c-0.06,0.12-0.1,0.24-0.13,0.37c-0.01,0.02-0.01,0.05-0.02,0.07
		c-0.06,0.26-0.08,0.53-0.08,0.8c0,0.52,0.07,1.06,0.07,1.59l0,0c0,0.42-0.05,0.83-0.22,1.22c-0.55,0.86-1.22,1.75-1.97,2.6
		c-0.75,0.85-1.5,1.64-2.36,2.35c-0.87,0.71-1.67,1.28-2.51,1.72c-0.89,0.44-1.56,0.68-2.27,0.73c-0.62,0.16-1.26,0.28-1.9,0.38
		c-0.32,0.05-0.64,0.09-0.96,0.12c-0.28,0.03-0.52,0.05-0.79,0.06c-0.24,0.01-0.48,0.02-0.71,0.02c-0.28,0-0.55-0.01-0.82-0.02
		c-0.25-0.01-0.51-0.03-0.75-0.06l-0.37-0.04l-0.29-0.05c-0.77-0.14-1.49-0.38-2.13-0.69c-0.5-0.28-0.91-0.64-1.25-1.06
		c-1.19-0.44-2.1-0.76-2.81-0.97c-0.37-0.11-0.69-0.19-0.96-0.23c-0.15,0.59-0.31,1.19-0.47,1.79c-0.09,0.32-0.17,0.65-0.26,0.97
		l-0.17,1.06c-0.11,0.71-0.21,1.44-0.29,2.15c0,0.75,0.04,1.49,0.11,2.19c0.04,0.16,0.09,0.3,0.16,0.44
		c0.06,0.13,0.14,0.26,0.28,0.4c0.25,0.27,0.54,0.5,0.83,0.74c0.32,0.24,0.56,0.44,0.95,0.7c0.4,0.26,0.78,0.54,1.11,0.85
		c0.23,0.18,0.48,0.33,0.74,0.46c0.13,0.06,0.26,0.12,0.39,0.17c0.16,0.05,0.35,0.1,0.53,0.15c0.72,0.17,1.46,0.26,2.19,0.29
		c0.18,0.01,0.36,0.01,0.54,0.01c0.18,0,0.36,0,0.54-0.01c0.45-0.02,0.89-0.06,1.31-0.1c0.85-0.08,1.63-0.19,2.32-0.29
		c0.41-0.11,0.83-0.22,1.25-0.33c0.48-0.12,0.97-0.23,1.46-0.35c0.5-0.11,1-0.22,1.51-0.33c0.54-0.11,1.09-0.23,1.65-0.35
		c1.18-0.24,2.38-0.48,3.59-0.73c0.67-0.14,1.35-0.28,2.03-0.43c0.69-0.15,1.34-0.29,2.14-0.49c0.43-0.1,0.86-0.21,1.29-0.31
		c-0.36-1.1-0.59-2.31-0.63-3.67c0-0.01,0-0.01,0-0.02l0,0l0,0c0-0.22,0.12-0.41,0.28-0.56c0.19-0.19,0.44-0.32,0.63-0.32
		c0,0,0,0,0.01,0c0,0,0.01,0,0.01,0c1.17,0,2.07,1.24,3.23,1.74c0.04-0.01,0.08-0.01,0.12-0.01c0.04,0,0.09,0,0.14,0
		c0.05,0,0.09,0,0.14,0c0.14,0,0.27-0.02,0.35-0.1c0.16-0.18,0.37-0.23,0.58-0.28c1.21,0.1,2.27,0.35,3.36,0.76
		c0.2-0.07,0.39-0.13,0.59-0.2c3.82-1.46,7.87-3.16,12.12-5.63c2.07-1.1,4.22-2.51,6.27-3.77l0.19-0.12l0.08-0.09l-0.09-0.45
		l-0.36-1.79l-0.72-3.57c-0.48-2.36-0.95-4.72-1.43-7.07c-0.47-2.33-0.94-4.66-1.41-6.98l-0.17-0.87c-0.02-0.12-0.07-0.32-0.07-0.38
		l0,0c0,0,0,0,0-0.01l0.06-0.04l0.24-0.16l0.48-0.32c0.95-0.65,1.85-1.32,2.71-2.01c-0.61,0.05-1.22,0.07-1.82,0.07
		c-2.28,0-4.56-0.32-6.77-0.9C69.77,67.47,67.84,66.3,65.89,65.25"/>
	<path class="st494" d="M60.19,43.98L60.19,43.98c-0.02,0.04-0.04,0.07-0.06,0.11c0,0,0,0-0.01,0.01l0,0c0,0,0-0.01,0.01-0.01
		c0,0,0,0,0,0C60.15,44.05,60.17,44.02,60.19,43.98"/>
	<path class="st471" d="M60.14,44.09c-0.01,0.01-0.23,0.28-0.36,0.4C59.9,44.38,60.09,44.14,60.14,44.09
		C60.13,44.09,60.14,44.09,60.14,44.09"/>
	<path class="st471" d="M61.65,41.86c0.02,0.03-0.01,0.56,0.05,1.1C61.64,42.42,61.66,41.89,61.65,41.86"/>
	<path class="st471" d="M61.7,42.95c0.06,0.62,0.22,1.25,0.23,1.28C61.92,44.2,61.76,43.58,61.7,42.95"/>
	<path class="st471" d="M64.35,44.09c0,0-0.11,0.12-0.33,0.34C64.24,44.21,64.35,44.09,64.35,44.09"/>
	<path class="st464" d="M59.76,44.2c-0.02,0-0.06,0.04-0.17,0.19c-0.23,0.31-0.8,1.13-1.7,2.58c0.01-0.02,0.03-0.05,0.04-0.07
		c0.88-1.41,1.43-2.21,1.66-2.51l0,0C59.7,44.24,59.75,44.2,59.76,44.2l0.01,0.01L59.76,44.2"/>
	<path class="st471" d="M59.59,44.39c-0.22,0.3-0.78,1.1-1.66,2.51C58.81,45.49,59.37,44.7,59.59,44.39"/>
	<path class="st471" d="M59.76,44.26c-0.03,0.05-0.05,0.09-0.06,0.12c-0.04,0.08-0.06,0.14-0.06,0.16
		C59.64,44.5,59.68,44.41,59.76,44.26"/>
	<path class="st471" d="M63.76,44.77c-0.01,0.07-0.01,0.16-0.02,0.25C63.75,44.92,63.75,44.84,63.76,44.77"/>
	<path class="st472" d="M108.88,45.58c-0.13,0-0.25,0.09-0.39,0.22c-0.02,0.02-0.04,0.04-0.06,0.06c-0.03,0.03-0.06,0.06-0.09,0.1
		c0.1,0.01,0.2,0.01,0.31,0.02l0.72,0.05l0.36,0.03l0.17,0.01l-0.01-0.01l-0.1-0.06c-0.27-0.17-0.51-0.28-0.71-0.36
		c-0.01,0-0.01-0.01-0.02-0.01c-0.01,0-0.01-0.01-0.02-0.01C108.97,45.59,108.92,45.58,108.88,45.58"/>
	<path class="st472" d="M104.91,45.71c-0.02,0-0.01,0-0.02,0l-0.03,0.01l-0.05,0.01l-0.21,0.05c-0.14,0.03-0.28,0.06-0.41,0.09
		c-0.55,0.16-1.05,0.32-1.41,0.45c-0.43,0.13-1,0.35-1.64,0.53c-0.32,0.09-0.66,0.24-1.01,0.36c-0.35,0.13-0.71,0.22-1.08,0.41
		l-1.12,0.5c-0.37,0.15-0.75,0.43-1.12,0.63c-0.72,0.38-1.46,1.04-2.1,1.67c0,0-0.01,0.01-0.01,0.01c0,0.01,0.04,0.02,0.1,0.02
		c0.12,0,0.34-0.02,0.64-0.08c0.07-0.01,0.14-0.03,0.22-0.04c0.33-0.07,0.74-0.18,1.21-0.34c0.24-0.08,0.49-0.17,0.75-0.28
		c0.26-0.1,0.53-0.16,0.82-0.26c2.3-0.9,5.23-2.08,7.77-2.78c0.27-0.12,0.72-0.24,1.26-0.4c0.12-0.03,0.25-0.06,0.38-0.09
		c0.1-0.07,0.44-0.11,0.43-0.17c0,0,0-0.01,0-0.01l0,0l0,0l0,0l0,0c0.01-0.01,0.02-0.03,0.04-0.04c-0.88-0.06-1.76-0.13-2.62-0.19
		l-0.74-0.05C104.94,45.71,104.92,45.71,104.91,45.71"/>
	<path class="st472" d="M112.65,45.97c-0.02,0-0.03,0-0.05,0c-0.14,0.01-0.29,0.08-0.44,0.17c-0.1,0.06-0.19,0.13-0.29,0.23
		c0.13,0.01,0.25,0.02,0.38,0.03c0.53,0.04,1.07,0.08,1.61,0.12l0.18,0.01l-0.02-0.01l-0.03-0.02l-0.06-0.03
		c-0.32-0.18-0.62-0.31-0.91-0.41C112.89,46.03,112.77,45.97,112.65,45.97"/>
	<path class="st472" d="M107.86,46.18L107.86,46.18L107.86,46.18L107.86,46.18L107.86,46.18 M108.22,46.1l-0.11,0.02l-0.22,0.05
		c-0.01,0-0.02,0.01-0.03,0.01c-0.02,0.01-0.03,0.03-0.03,0.04c0,0.01,0,0.02,0.02,0.03l0,0l0,0l0,0l0,0
		c-0.08,0.23-0.22,0.53-0.46,0.85c-0.05,0.08-0.12,0.16-0.19,0.24l-0.11,0.12c-0.04,0.05-0.07,0.05-0.13,0.19l-0.16,0.34l-0.28,0.84
		c-0.22,0.6-0.44,1.07-0.7,1.57c-0.99,1.83-2.08,2.85-2.91,3.47c-0.85,0.62-1.57,0.92-2.12,1.05c-0.11,0.04-0.21,0.05-0.29,0.05
		c-0.07,0-0.13-0.01-0.19-0.02c-0.06-0.01-0.12-0.02-0.19-0.02c0,0,0,0-0.01,0l-0.61-0.06c-0.82-0.08-1.64-0.2-2.46-0.33
		c-0.08-0.01-0.16-0.01-0.24-0.01c-1.39,0-2.08,1.44-3.3,2.21c-0.61,0.22-1.2,0.23-1.63,0.48c-0.82,0.62-2.07,0.96-2.93,1.65
		c-0.51,0.4-0.88,0.93-0.97,1.69c0,0.01,0,0.02,0,0.03c-2.81,2.13-6.05,3.56-9.57,4.35c-0.93,0.32-1.79,0.48-2.83,0.48
		c-1.59-0.1-2.97-0.8-4.44-1.17c-0.2-0.08-0.39-0.14-0.59-0.18c-1.21-0.26-2.43,0.05-3.66-0.36c-0.74-0.14-1.34-0.65-1.88-0.77l0,0
		c-0.3,0.25-0.96,0.28-0.96,0.57c0,0.04,0.01,0.08,0.03,0.13c0.13,0.58,0.79,0.91,1.23,1.28c2.16,1.12,4.26,2.48,6.52,3.12
		c2.21,0.58,4.49,0.9,6.77,0.9c0.61,0,1.22-0.02,1.82-0.07c2.56-0.2,5.08-0.82,7.46-1.95c0.96-0.46,1.26-1.61,1.86-2.41
		c1.27-1.98,4.25-2.67,4.88-5.5c0.02-0.14,0.09-0.27,0.19-0.38c0.17-0.19,0.44-0.32,0.7-0.37c0.4,0.01,0.81,0.01,1.21,0.01
		c1.97,0,3.91-0.1,5.85-0.29l0.88-0.09c0.4-0.14,0.95-0.43,1.6-0.91c0.65-0.48,1.44-1.15,2.31-2.23c0.86-1.07,1.87-2.59,2.63-4.79
		c0.1-0.28,0.18-0.57,0.27-0.85l0.12-0.43c0.03-0.11,0.04-0.12,0.07-0.18c0.07-0.18,0.17-0.5,0.21-0.5c0,0,0,0,0,0
		c0.1-0.13,0.19-0.27,0.27-0.4c0.16-0.27,0.26-0.51,0.34-0.73c0.04-0.11,0.06-0.2,0.08-0.29c0.02-0.09,0.49-0.11,0.48-0.18
		c0.02-0.02,0.03-0.04,0.05-0.05c-0.97-0.07-1.92-0.14-2.86-0.21C108.74,46.14,108.48,46.12,108.22,46.1"/>
	<path class="st624" d="M114.56,84.21c-0.04,0-0.08,0-0.12,0c-0.03,0-0.06,0-0.09,0c-0.03,0.09-0.07,0.19-0.09,0.29
		C114.35,84.4,114.45,84.3,114.56,84.21"/>
	<path class="st624" d="M113.76,85.37c-0.44,0.16-1.08,0.16-1.5,0.28c-0.78,0.32-0.9,1.17-1.42,1.78c-0.3,0.19-0.68,0.26-1.17,0.31
		c-0.75,0.02-0.7,0.74-0.86,1.36c-0.09,0.85-1.3,0.92-1.73,1.55c-0.61,0.79-0.17,2.38-1.24,2.59c0.02,0,0.04,0,0.06,0
		c0.08,0,0.12,0.03,0.12,0.08l0,0l0,0c0,0.18-0.41,0.61-0.88,0.97c-0.45,0.36-0.95,0.65-1.12,0.65c-0.04,0-0.06-0.02-0.06-0.05l0,0
		l0,0c0-0.02,0.01-0.04,0.02-0.07c-0.01,0-0.02,0.01-0.03,0.01c-0.13,0-0.49-0.18-0.69-0.37c-0.13-0.18-0.38-0.41-0.4-0.53
		c-0.1-0.96-1.03-1.94-1.62-2.86c0,0-0.01,0-0.01,0c-0.07,0-0.35,0.16-0.73,0.32c-0.38,0.16-0.85,0.32-1.31,0.32
		c-0.2,0-0.39-0.03-0.58-0.1c-0.73-0.3-1.44-0.73-1.97-0.73c-0.09,0-0.17,0.01-0.25,0.04c-0.01,0.02-0.02,0.06-0.02,0.09
		c0,0.16,0.09,0.41,0.09,0.57l0,0l0,0c0,0.04-0.01,0.08-0.02,0.11c-0.14,0.09-0.51,1.62-1.26,3.13c-0.7,1.48-1.69,2.91-2.05,2.91
		c-0.01,0-0.01,0-0.02,0c-0.44-0.15-1.11-0.72-1.2-1.27c-0.44-1.49-1.23-1.94-1.84-3.09c-0.14-0.31-0.15-0.75-0.3-1.07
		c-0.46-0.83-1.1-1.76-1.51-1.84c-0.34-0.17-0.68-0.25-1-0.25c-0.4,0-0.76,0.13-1.03,0.39l-1.2,0.27c-0.27,0.42-0.52,0.91-0.74,1.46
		c-0.39,0.81-0.4,1.34-0.65,1.34c-0.02,0-0.04,0-0.07-0.01c-0.12,0,0.02,2-0.58,3.21c0.02,0.03,0.17,0.21,0.45,0.51
		c0.06-0.15,0.15-0.37,0.27-0.62c0.21-0.48,0.52-1.09,0.89-1.59c0.43-0.58,0.94-1.04,1.55-1.04c0.44,0,0.94,0.25,1.49,0.9
		c0,0,1.46,0.69,2.88,1.69c1.3,0.93,2.64,2.11,2.64,3.5l0,0l0,0c0,0.12-0.01,0.25-0.03,0.38c0,0-0.54,3.05-2.12,6.36
		c-1.53,3.3-4.16,6.85-7.27,7.72c0,0-0.17,0.03-0.46,0.3c-0.29,0.26-0.7,0.78-1.21,1.7c0,0-0.79,0.57-1.82,0.89
		c-0.37,0.11-0.78,0.18-1.18,0.18c-0.72,0-1.44-0.23-2-0.9c0,0-1.16-0.66-2.5-1.24c-1.07-0.48-2.25-0.9-3.15-0.9
		c-0.24,0-0.45,0.03-0.64,0.09c0,0-0.4-0.44-0.91-0.78c-0.32-0.2-0.68-0.37-1.03-0.37c-0.01,0-0.02,0-0.02,0
		c-0.38,0.14-0.6,0.22-0.6,0.22l0,0l0,0l0,0l0,0l0,0l0,0c0.19-0.15,0.39-0.22,0.6-0.22c0.21-0.08,0.48-0.17,0.78-0.28
		c-1.05,0.21-2.07,0.34-2.88,0.34c-0.86,0-1.48-0.15-1.62-0.51c0,0-1-0.21-2.1-0.62c-0.96-0.34-1.99-0.83-2.54-1.36
		c0.86,1.25,1.52,2.96,2.09,4.62c0.62,2.15,1.1,5.46,2.98,5.46c0.03,0,0.06,0,0.09,0c1.73-0.21,3.28-1.24,4.93-1.34
		c-0.42,0-0.81,0.05-1.16,0.12l0,0c-1.2,0.22-2.03,0.73-2.08,0.77c0,0,0,0,0,0s0,0,0,0l0,0l0,0c0,0,0,0,0,0s0,0,0,0l0,0l0,0
		c0,0,0,0,0,0s0,0,0,0l0,0l0,0c0,0,0,0,0,0s0,0,0,0c0.06-0.04,0.88-0.54,2.08-0.77l0,0c0.36-0.07,0.75-0.12,1.16-0.12
		c0.09-0.01,0.17-0.01,0.26-0.01c0.37,0,0.74,0.05,1.13,0.17c0.6,0.15,1.24,0.4,1.89,0.81c1.01,0.42,1.99,0.77,3.11,0.9
		c0.03,0.02,0.08,0.04,0.15,0.06c0.09,0.01,0.17,0.01,0.24,0.01c0.11,0,0.2-0.01,0.26-0.04l0.95,0.36c0.8-0.2,1.69-0.23,2.52-0.38
		c0.64-0.18,1.29-0.44,1.77-0.79c0.1-0.07,0.19-0.14,0.27-0.22c0.18-0.2,0.34-0.44,0.47-0.73c0.01-0.02,0.01-0.04,0.02-0.06
		c0,0,0,0,0.01-0.01c0.01-0.02,0.01-0.03,0.02-0.05c0.37-0.2,0.71-0.33,1.03-0.44c0.42-0.17,0.86-0.32,1.13-0.32c0,0,0,0,0,0
		c0.03,0,0.05,0,0.08,0c0.79-0.2,1.47-0.44,2.18-1.39c0.31-0.45,0.62-0.91,0.92-1.37c0.06-0.12,0.12-0.24,0.18-0.37
		c-0.06,0.13-0.12,0.25-0.18,0.37l0,0c0.06-0.12,0.12-0.24,0.18-0.37c-0.06,0.13-0.12,0.25-0.18,0.37l0,0
		c0.06-0.12,0.12-0.24,0.18-0.37c-0.06,0.13-0.12,0.25-0.18,0.37l0,0c0.06-0.12,0.12-0.24,0.18-0.37c-0.06,0.13-0.12,0.25-0.18,0.37
		c0.48-0.72,0.95-1.43,1.45-2.07c0.81-1.09,1.67-1.99,2.72-2.56c1.18-0.7,2.35-1.1,3.72-1.23c0.01,0,0.03,0,0.05,0
		c0.54,0,2.74,1.15,3.5,1.5c0.26,0.13,0.5,0.18,0.74,0.18c1.07,0,1.95-1.12,2.41-2.14c0.75-2.25,1.67-4.04,2.81-5.82
		c0.51-0.48,1.32-0.42,1.95-0.88c1.27-1.37,1.35-3.25,1.95-4.76c1.59-2.38,1.84-3.67,1.89-4.3c0-0.03,0-0.07,0-0.1
		c0-0.42-0.13-0.53-0.13-0.58l0,0l0,0c0-0.01,0.01-0.02,0.04-0.03c0.11-0.15,0.3-0.19,0.54-0.19c0.1,0,0.21,0.01,0.32,0.01
		c0.11,0.01,0.23,0.01,0.34,0.01c0.27,0,0.53-0.03,0.74-0.18c0.39-0.41,0.55-0.97,0.55-1.54c0-0.39-0.07-0.78-0.19-1.13
		c-0.32-1.23-0.68-2.49-0.76-3.6c-0.01-0.14-0.01-0.28-0.01-0.41l0,0l0,0C113.56,86.18,113.62,85.76,113.76,85.37"/>
	<path class="st624" d="M83.71,97.67c0.12,0.12,0.24,0.25,0.39,0.39c0.04-0.05,0.09-0.1,0.13-0.15
		C84.07,97.81,83.9,97.73,83.71,97.67"/>
	<path class="st624" d="M53.75,104.78c-0.02,0-0.04,0.01-0.05,0.01c0.27,0.82,0.61,1.59,0.99,2.32c0.86,1.57,2.27,1.79,3.69,2.31
		c0.68,0.23,1.28,0.74,1.81,1.43c-0.1-0.23-0.35-0.81-0.72-1.4c-0.35-0.02-0.7-0.04-1.05-0.07c-1.41-0.52-2.82-0.74-3.69-2.31
		C54.35,106.35,54.01,105.59,53.75,104.78"/>
	<path class="st625" d="M53.34,100.55c-0.16,0.15-0.28,0.34-0.28,0.56c0,0.01,0,0.01,0,0.02c0.04,1.36,0.27,2.57,0.63,3.67
		c0.02,0,0.04-0.01,0.05-0.01c-0.36-1.11-0.6-2.32-0.64-3.7c0-0.01,0-0.01,0-0.02l0,0l0,0C53.11,100.87,53.21,100.69,53.34,100.55"
		/>
	<path class="st624" d="M82.56,101.51c-1.07,1.2-2.18,2.38-3.35,3.54C80.56,104.26,81.75,103.11,82.56,101.51"/>
	<path class="st624" d="M86.96,103.97c-0.01,0.06-0.03,0.11-0.04,0.17c-0.21,0.93-0.47,1.87-0.78,2.73c0.31-0.72,0.6-1.55,0.85-2.5
		C86.98,104.37,86.98,104.22,86.96,103.97"/>
	<path class="st624" d="M82.83,110.93c-0.58,0.16-1.51,0.41-2.26,0.64c0.45-0.01,1-0.09,1.62-0.33
		C82.39,111.16,82.61,111.06,82.83,110.93"/>
	<path class="st624" d="M85.75,119.21c-0.27,0-0.71,0.15-1.13,0.32c0.43-0.14,0.83-0.22,1.21-0.32
		C85.81,119.21,85.78,119.21,85.75,119.21"/>
	<path class="st626" d="M85.75,119.21L85.75,119.21c-0.01,0-0.03,0-0.05,0c-0.27,0.02-0.69,0.16-1.08,0.32l0,0
		C85.04,119.36,85.49,119.21,85.75,119.21c0.03,0,0.05,0,0.08,0l0,0C85.81,119.21,85.78,119.21,85.75,119.21"/>
	<path class="st626" d="M85.75,119.21L85.75,119.21c-0.01,0-0.03,0-0.05,0l0,0l0,0C85.72,119.21,85.74,119.21,85.75,119.21
		L85.75,119.21L85.75,119.21L85.75,119.21"/>
	<path class="st627" d="M85.75,119.21L85.75,119.21c-0.01,0-0.03,0-0.05,0l0,0l0,0C85.72,119.21,85.74,119.21,85.75,119.21
		L85.75,119.21L85.75,119.21L85.75,119.21"/>
	<path class="st624" d="M83.58,120.02c-0.01,0-0.01,0.01-0.01,0.01c0,0.02-0.01,0.04-0.02,0.06
		C83.56,120.06,83.57,120.04,83.58,120.02"/>
	<path class="st624" d="M71.91,120.09c0.1,0.03,0.19,0.06,0.29,0.1c0.56,0.24,1.08,0.48,1.6,0.7
		C73.15,120.49,72.52,120.24,71.91,120.09"/>
	<path class="st624" d="M83.07,120.81c-0.08,0.08-0.17,0.15-0.27,0.22c-0.48,0.35-1.13,0.6-1.77,0.79
		C81.81,121.68,82.53,121.42,83.07,120.81"/>
	<path class="st624" d="M77.57,121.84c-0.06,0.03-0.15,0.04-0.26,0.04c-0.07,0-0.15,0-0.24-0.01c0.37,0.14,1.13,0.34,1.41,0.35
		c0.01,0,0.03-0.01,0.04-0.01L77.57,121.84"/>
	<path class="st626" d="M77.57,121.84c-0.06,0.03-0.15,0.04-0.26,0.04c-0.02,0-0.03,0-0.05,0c-0.06,0-0.12-0.01-0.19-0.01l0,0
		c0.09,0.01,0.17,0.01,0.24,0.01C77.42,121.88,77.51,121.87,77.57,121.84l0.95,0.36l0,0L77.57,121.84"/>
	<path class="st628" d="M82.98,96.85c-0.45,0.76-1.27,0.68-1.67,1.53c-0.83,1.33-4.14,2.95-5.32,3.71
		c-1.51,0.99-2.56,1.45-3.67,1.45c-0.52,0-1.06-0.1-1.66-0.3c-0.58-0.27-1.1-0.33-1.62-0.33c-0.24,0-0.48,0.01-0.72,0.03
		c-0.24,0.01-0.48,0.03-0.73,0.03c-0.29,0-0.59-0.02-0.91-0.08c-1.49-0.2-2.56,0.02-4.03-0.25c-0.25-0.11-0.5-0.2-0.74-0.29
		c-0.03,0.01-0.06,0.02-0.09,0.03c0.26,0.1,0.52,0.2,0.79,0.31c1.48,0.27,2.55,0.04,4.04,0.25c0.32,0.06,0.62,0.08,0.91,0.08
		c0.25,0,0.49-0.01,0.73-0.03c0.24-0.01,0.48-0.03,0.71-0.03c0.52,0,1.05,0.06,1.63,0.33c0.61,0.2,1.14,0.3,1.67,0.3
		c1.11,0,2.17-0.46,3.67-1.45c1.18-0.76,4.5-2.37,5.33-3.7c0.4-0.86,1.22-0.77,1.67-1.53C82.97,96.89,82.98,96.87,82.98,96.85
		C82.99,96.85,82.98,96.85,82.98,96.85"/>
	<path class="st629" d="M54,100.23c0,0-0.01,0-0.01,0c0,0,0,0-0.01,0c-0.19,0-0.45,0.12-0.63,0.32c0.18-0.17,0.42-0.27,0.59-0.27
		c0,0,0,0,0.01,0c0,0,0.01,0,0.01,0c1.17,0,2.07,1.24,3.23,1.75c0.04-0.01,0.08-0.01,0.12-0.01c0.04,0,0.09,0,0.14,0
		c0.05,0,0.1,0,0.15,0c0.13,0,0.26-0.02,0.34-0.1c0.16-0.18,0.37-0.23,0.58-0.28c1.2,0.1,2.24,0.35,3.31,0.74
		c0.03-0.01,0.06-0.02,0.09-0.03c-1.09-0.4-2.15-0.65-3.36-0.76c-0.21,0.05-0.41,0.1-0.58,0.28c-0.08,0.09-0.21,0.1-0.35,0.1
		c-0.05,0-0.09,0-0.14,0c-0.05,0-0.09,0-0.14,0c-0.04,0-0.09,0-0.12,0.01C56.07,101.47,55.17,100.23,54,100.23"/>
	<path class="st630" d="M82.99,96.85c-0.01,0.02-0.02,0.03-0.03,0.05c-0.45,0.77-1.28,0.68-1.67,1.53c-0.83,1.33-4.15,2.95-5.33,3.7
		c-1.51,0.99-2.56,1.45-3.67,1.45c-0.53,0-1.06-0.1-1.67-0.3c-0.58-0.27-1.11-0.33-1.63-0.33c-0.24,0-0.47,0.01-0.71,0.03
		c-0.24,0.01-0.48,0.03-0.73,0.03c-0.29,0-0.6-0.02-0.91-0.08c-1.49-0.2-2.56,0.02-4.04-0.25c-0.27-0.11-0.53-0.22-0.79-0.31
		c-1.01,0.35-2.04,0.7-3.02,1.01c1,0.25,2.52,0.61,4.08,0.96c2.68,0.62,5.52,1.16,5.83,1.66c0,0,0.74,0.22,1.92,0.4
		c0.66,0.1,1.47,0.17,2.36,0.17c0.69,0,1.44-0.05,2.2-0.17c1.34-0.2,2.74-0.62,4.01-1.37c1.17-1.16,2.29-2.34,3.35-3.54
		c0.4-0.79,0.71-1.68,0.89-2.7c0,0,0.25-0.31,0.61-0.71c0.01-0.01,0.02-0.02,0.03-0.04c-0.14-0.14-0.27-0.27-0.39-0.39
		c-0.11-0.04-0.23-0.07-0.36-0.1l0,0l0,0l0,0l0,0l0,0l0,0c0,0,0.03-0.07,0.08-0.2C83.16,97.07,83.01,96.88,82.99,96.85"/>
	<path class="st630" d="M54.58,104.58c-0.28,0.07-0.56,0.14-0.84,0.2c0.27,0.81,0.6,1.57,0.98,2.29c0.86,1.57,2.27,1.79,3.69,2.31
		c0.35,0.03,0.7,0.05,1.05,0.07c-0.02-0.04-0.05-0.07-0.07-0.11c-0.49-0.75-1.15-1.5-1.95-1.5c-0.05,0-0.09,0-0.14,0.01
		c0,0-0.3-0.23-0.69-0.61c-0.39-0.37-0.89-0.87-1.29-1.38C54.96,105.41,54.68,104.95,54.58,104.58"/>
	<path class="st631" d="M53.95,100.28c0,0-0.01,0-0.01,0c0,0,0,0-0.01,0c-0.17,0-0.41,0.11-0.59,0.27
		c-0.14,0.14-0.23,0.32-0.23,0.52c0,0.01,0,0.01,0,0.02c0.04,1.37,0.27,2.59,0.64,3.7c0.28-0.07,0.56-0.14,0.84-0.2
		c-0.02-0.09-0.03-0.17-0.03-0.25l0,0l0,0c0-0.34,0.23-0.57,0.81-0.6c0,0,1.54-0.52,2.29-0.63c0,0,0.44,0.11,1.16,0.29
		c0.98-0.31,2.01-0.67,3.02-1.01c-1.08-0.4-2.12-0.64-3.31-0.74c-0.21,0.05-0.41,0.1-0.58,0.28c-0.08,0.09-0.21,0.1-0.34,0.1
		c-0.05,0-0.1,0-0.15,0c-0.05,0-0.1,0-0.14,0c-0.04,0-0.09,0-0.12,0.01C56.02,101.52,55.12,100.28,53.95,100.28"/>
	<path class="st632" d="M84.23,97.91c-0.05,0.05-0.09,0.1-0.13,0.15c-0.01,0.01-0.02,0.02-0.03,0.04c-0.37,0.4-0.61,0.71-0.61,0.71
		c-0.19,1.02-0.49,1.92-0.89,2.7c-0.81,1.6-2.01,2.75-3.35,3.54c-1.27,0.74-2.66,1.17-4.01,1.37c-0.76,0.12-1.5,0.17-2.2,0.17
		c-0.89,0-1.69-0.08-2.36-0.17c-1.18-0.18-1.92-0.4-1.92-0.4c-0.32-0.5-3.15-1.04-5.83-1.66c-1.57-0.35-3.09-0.71-4.08-0.96
		c-0.57,0.18-1.12,0.34-1.64,0.48l-1.26,0.36c-0.42,0.12-0.85,0.25-1.22,0.33c-0.03,0.01-0.07,0.02-0.1,0.02
		c0.09,0.37,0.38,0.83,0.74,1.27c0.4,0.5,0.9,1,1.29,1.38c0.4,0.38,0.69,0.61,0.69,0.61c0.05,0,0.09-0.01,0.14-0.01
		c0.8,0,1.46,0.75,1.95,1.5c0.4,0.62,0.68,1.26,0.79,1.51c0.03,0.07,0.04,0.1,0.04,0.1c0.06,0.08,0.13,0.17,0.22,0.25
		c0.55,0.54,1.58,1.02,2.54,1.36c1.1,0.42,2.1,0.62,2.1,0.62c0.15,0.36,0.76,0.51,1.62,0.51c0.81,0,1.83-0.13,2.88-0.34
		c0.97-0.35,2.35-0.84,3.75-1.31c1.74-0.56,3.51-1.09,4.72-1.09c0.6,0,1.07,0.13,1.32,0.45c0,0,0.44,0.18,1.14,0.18
		c0.02,0,0.05,0,0.07,0c0.75-0.23,1.68-0.49,2.26-0.64c1.11-0.64,2.34-1.84,3.31-4.06c0.31-0.87,0.57-1.81,0.78-2.73
		c0.01-0.06,0.03-0.11,0.04-0.17c-0.05-0.56-0.18-1.64-0.52-2.75C86.03,99.91,85.35,98.57,84.23,97.91"/>
	<path class="st633" d="M57.64,103.1c-0.75,0.11-2.29,0.63-2.29,0.63c-0.58,0.03-0.8,0.27-0.81,0.6c0,0.08,0.01,0.16,0.03,0.25
		c0.03-0.01,0.07-0.02,0.1-0.02c0.36-0.08,0.8-0.21,1.22-0.33l1.26-0.36c0.52-0.13,1.07-0.3,1.64-0.48
		C58.09,103.21,57.64,103.1,57.64,103.1"/>
	<path class="st634" d="M86.14,94.11c-0.6,0-1.11,0.47-1.55,1.04c-0.37,0.51-0.68,1.11-0.89,1.59c-0.12,0.26-0.21,0.47-0.27,0.62
		c-0.05,0.12-0.08,0.2-0.08,0.2c0.12,0.03,0.24,0.06,0.36,0.1c1.43,0.51,2.26,2.05,2.72,3.55c0.5,1.61,0.55,3.15,0.55,3.15l0,0l0,0
		l0,0l0,0l0,0l0,0c-0.25,0.95-0.53,1.78-0.85,2.5c-0.97,2.21-2.19,3.42-3.31,4.06c-0.22,0.13-0.44,0.23-0.65,0.31
		c-0.61,0.24-1.17,0.32-1.62,0.33c-0.02,0-0.05,0-0.07,0c-0.7,0-1.14-0.18-1.14-0.18c-0.25-0.32-0.71-0.45-1.32-0.45
		c-1.21,0-2.98,0.53-4.72,1.09c-1.39,0.47-2.77,0.96-3.75,1.31c-0.3,0.11-0.56,0.21-0.78,0.28c0.01,0,0.02,0,0.02,0
		c0.35,0,0.71,0.17,1.03,0.37c0.51,0.33,0.91,0.78,0.91,0.78c0.19-0.06,0.41-0.09,0.64-0.09c0.9,0,2.08,0.42,3.15,0.9
		c1.34,0.57,2.5,1.24,2.5,1.24c0.56,0.67,1.28,0.9,2,0.9c0.41,0,0.81-0.07,1.18-0.18c1.03-0.32,1.82-0.89,1.82-0.89
		c0.51-0.93,0.92-1.44,1.21-1.7c0.29-0.27,0.46-0.3,0.46-0.3c3.11-0.87,5.74-4.42,7.27-7.72c1.58-3.31,2.12-6.36,2.12-6.36
		c0.02-0.13,0.03-0.25,0.03-0.38c0-1.38-1.34-2.57-2.64-3.5c-1.42-1-2.88-1.69-2.88-1.69C87.07,94.36,86.58,94.11,86.14,94.11"/>
	<path class="st634" d="M68.8,113.63c-0.21,0-0.41,0.07-0.6,0.22C68.2,113.86,68.42,113.77,68.8,113.63"/>
	<path class="st635" d="M114.3,83.78c-0.21,0.13-0.58,0.16-0.85,0.33c-0.59,0.26-0.88,0.77-1.51,0.93c-0.61,0.22-1.3,0.26-1.86,0.51
		c-0.33,0.19-0.6,0.37-0.81,0.62c-0.97,0.79-1.76,1.59-2.39,2.54c0.06,0.14,0.09,0.27,0.09,0.38l0,0l0,0c0,0.55-0.69,0.73-0.98,1.05
		c-0.12,0.11-0.36,0.1-0.58,0.17c-0.34,0.25-0.44,0.76-0.91,0.76c-0.07,0-0.14-0.01-0.22-0.03c-1.4-0.45-2.66-0.88-3.82-1.15
		c-0.48-0.12-1.47-0.19-2.4-0.3c-0.89-0.1-1.71-0.21-2.04-0.21c-0.01,0-0.03,0-0.04,0c-0.01,0-0.03,0-0.04,0
		c-0.8,0-1.07,0.76-1.8,0.86c0,0,0,0,0,0c-0.01,0-0.05-0.1-0.07-0.25c-0.07,0.04-0.14,0.08-0.2,0.13c0,0,0,0,0,0.01l0,0l0,0
		c0,0.11-0.09,0.35-0.09,0.46c-0.03,0.01-0.07,0.01-0.1,0.01c-0.16,0-0.32-0.07-0.55-0.22c-1-0.86-1.9-1.13-2.83-1.36
		c-0.93-0.23-1.89-0.41-2.82-1.11c-0.27-0.14-0.64-0.34-0.97-0.34c-0.12,0-0.23,0.03-0.33,0.09c-0.27,0.23-0.72,0.26-0.93,0.59
		c-0.34,0.78-0.57,1.88-0.86,2.77l0.64-0.14l1.2-0.27c0.27-0.26,0.63-0.39,1.03-0.39c0.32,0,0.66,0.08,1,0.25
		c0.41,0.08,1.05,1.01,1.51,1.84c0.15,0.32,0.15,0.76,0.3,1.07c0.61,1.15,1.41,1.6,1.84,3.09c0.09,0.54,0.76,1.11,1.2,1.27
		c0.01,0,0.01,0,0.02,0c0.36,0,1.35-1.43,2.05-2.91c0.75-1.5,1.12-3.03,1.26-3.13c0.02-0.03,0.02-0.06,0.02-0.11
		c0-0.16-0.09-0.42-0.09-0.57l0,0l0,0c0-0.04,0.01-0.07,0.02-0.09c0.08-0.03,0.16-0.04,0.25-0.04c0.53,0,1.25,0.43,1.97,0.73
		c0.18,0.07,0.38,0.1,0.58,0.1c0.46,0,0.94-0.16,1.31-0.32c0.38-0.16,0.66-0.32,0.73-0.32c0,0,0.01,0,0.01,0
		c0.59,0.92,1.52,1.9,1.62,2.86c0.01,0.12,0.27,0.36,0.4,0.53c0.21,0.19,0.56,0.37,0.69,0.37c0.01,0,0.02,0,0.03-0.01l0,0l0,0l0,0
		l0,0l0,0l0,0c-0.01,0.03-0.02,0.05-0.02,0.07c0,0.03,0.02,0.05,0.06,0.05c0.17,0,0.67-0.29,1.12-0.65
		c0.47-0.36,0.88-0.79,0.88-0.97c0-0.05-0.04-0.08-0.12-0.08c-0.02,0-0.04,0-0.06,0l0,0l0,0l0,0l0,0l0,0l0,0
		c1.07-0.21,0.63-1.8,1.24-2.59c0.43-0.62,1.64-0.7,1.73-1.55c0.16-0.62,0.11-1.35,0.86-1.36c0.49-0.05,0.86-0.11,1.17-0.31
		c0.52-0.61,0.64-1.46,1.42-1.78c0.42-0.12,1.05-0.12,1.5-0.28c0.3-0.11,0.5-0.29,0.5-0.63c0-0.02,0-0.03,0-0.05
		c0-0.02-0.01-0.05-0.01-0.07l0,0l0,0c0-0.22,0.15-0.46,0.15-0.64C114.4,83.9,114.37,83.83,114.3,83.78L114.3,83.78"/>
	<path class="st636" d="M83.07,120.81L83.07,120.81c-0.08,0.08-0.17,0.15-0.27,0.22l0,0C82.9,120.96,82.99,120.89,83.07,120.81
		L83.07,120.81 M85.76,119.21C85.76,119.21,85.76,119.21,85.76,119.21c-0.27,0-0.71,0.15-1.13,0.32l0,0l0,0
		c0.39-0.16,0.81-0.31,1.08-0.32C85.72,119.21,85.74,119.21,85.76,119.21L85.76,119.21C85.76,119.21,85.76,119.21,85.76,119.21
		c0.03,0,0.05,0,0.08,0l0,0l0,0C85.81,119.21,85.78,119.21,85.76,119.21"/>
	<path class="st637" d="M85.76,119.21C85.76,119.21,85.76,119.21,85.76,119.21c0.07,0,0.14,0.01,0.18,0.04
		C85.89,119.22,85.83,119.21,85.76,119.21"/>
	<path class="st637" d="M85.71,119.21c-0.27,0.02-0.69,0.16-1.08,0.32c-0.5,0.21-0.97,0.44-1.05,0.49c-0.01,0-0.01,0.01-0.01,0.01
		c0,0,0,0,0.01-0.01c0.08-0.04,0.55-0.28,1.05-0.49C85.02,119.37,85.44,119.22,85.71,119.21"/>
	<path class="st637" d="M83.56,120.02c0,0.02-0.01,0.04-0.02,0.06c-0.08,0.28-0.25,0.52-0.47,0.73c-0.08,0.08-0.17,0.15-0.27,0.22
		c0.1-0.07,0.19-0.14,0.27-0.22c0.22-0.21,0.39-0.45,0.47-0.73C83.55,120.06,83.56,120.04,83.56,120.02"/>
	<path class="st637" d="M75.56,121.54c0.53,0.15,1.09,0.28,1.5,0.32c0.07,0.01,0.13,0.01,0.19,0.01c-0.06,0-0.12-0.01-0.19-0.01
		C76.65,121.82,76.09,121.69,75.56,121.54"/>
	<path class="st636" d="M77.57,121.84c-0.06,0.03-0.15,0.04-0.26,0.04c-0.07,0-0.15,0-0.24-0.01l0,0l0,0
		c0.07,0.01,0.13,0.01,0.19,0.01c0.02,0,0.03,0,0.05,0C77.42,121.88,77.51,121.87,77.57,121.84l0.95,0.36l0,0L77.57,121.84"/>
	<path class="st637" d="M69.36,120.05c-1.2,0.22-2.03,0.73-2.08,0.77C67.34,120.79,68.16,120.28,69.36,120.05"/>
	<path class="st637" d="M82.8,121.03c-0.48,0.35-1.13,0.6-1.77,0.79c-0.05,0.02-0.11,0.03-0.16,0.04
		C81.57,121.68,82.28,121.41,82.8,121.03"/>
	<path class="st638" d="M114,83.24c-0.19,0-0.39,0.05-0.57,0.06c-1.05,0.31-2.18,0.42-3.09,0.68c-2.1,0.66-3.84,1.28-4.98,2.34
		c-0.08,0.07-0.1,0.18-0.1,0.3c0,0.18,0.05,0.38,0.05,0.56l0,0l0,0c0,0.03,0,0.06,0,0.08c0,0.69-0.76,0.95-0.76,1.74
		c0,0.11,0.01,0.23,0.05,0.36c0.01,0.02,0.01,0.04,0.01,0.06l0,0l0,0c0,0.11-0.11,0.19-0.24,0.2c-1.87-0.23-3.54-0.6-5.15-1.05
		c-0.54-0.18-1.45-0.25-2.26-0.34c-0.82-0.09-1.52-0.17-1.75-0.19c-0.83,0.13-1.06,0.62-1.14,1.16c-0.02,0.11-0.02,0.23-0.02,0.34
		c0,0.39,0.08,0.7,0.1,0.7c0,0,0,0,0,0c0.73-0.1,1-0.86,1.8-0.86c0.01,0,0.03,0,0.04,0c0.01,0,0.03,0,0.04,0
		c0.33,0,1.15,0.12,2.04,0.21c0.93,0.11,1.92,0.18,2.4,0.3c1.16,0.27,2.42,0.7,3.82,1.15c0.08,0.02,0.15,0.03,0.22,0.03
		c0.47,0,0.57-0.51,0.91-0.76c0.22-0.07,0.45-0.07,0.58-0.17c0.3-0.31,0.98-0.5,0.98-1.05c0-0.11-0.03-0.23-0.09-0.38l0,0l0,0l0,0
		l0,0l0,0l0,0c0.63-0.95,1.42-1.75,2.39-2.54c0.21-0.25,0.48-0.43,0.81-0.62c0.56-0.25,1.26-0.29,1.86-0.51
		c0.64-0.15,0.92-0.66,1.51-0.93c0.28-0.17,0.64-0.2,0.85-0.33c0-0.01,0-0.01,0-0.02l0,0l0,0c0-0.12,0.09-0.27,0.1-0.36
		c0-0.05-0.02-0.09-0.1-0.1C114.21,83.25,114.1,83.24,114,83.24"/>
</g>
<g>
	<path d="M87.56,38.16c7.98-0.75,15.62,0.43,23.03,3.06c2.28,0.81,4.46,1.95,6.63,3.06c3.42,1.75,5.39,4.73,7.15,8.08
		c2.92,5.55,3.59,11.56,3.64,17.55c0.05,6.24-1.91,12.18-4.5,17.94c-4.42,9.85-12.68,15.43-21.74,20.13
		c-4.61,2.39-9.34,4.62-14.2,6.43c-10.59,3.95-21.45,5.36-32.32,1.29c-6.12-2.3-11.65-5.89-16.87-9.84
		c-3.24-2.45-6.37-5.04-9.45-7.68c-2.59-2.21-4.77-4.94-5.93-8.06c-1.21-3.25-1.17-6.85-0.07-10.25c0.63-1.92,1.51-3.76,2.32-5.62
		c0.73-1.68,1.41-3.39,2.28-5c1.2-2.2,2.38-4.46,3.89-6.44c5.77-7.59,13.44-13.01,21.64-17.55c5.49-3.04,11.45-5.13,17.8-6.04
		C76.46,38.41,82.01,37.7,87.56,38.16z M125.08,61.95c-2.14,3.17-3.85,6.19-6.03,8.83c-5.21,6.31-10.93,12.1-18.34,15.91
		c-1.88,0.97-3.64,2.16-5.54,3.08c-2.19,1.07-4.4,2.16-6.71,2.87c-5.85,1.78-11.73,3.47-17.66,4.97
		c-7.03,1.78-14.17,3.08-21.45,3.17c-5.7,0.06-11.36-0.63-16.97-2.18c0.73,0.96,1.52,1.82,2.44,2.52c2.03,1.55,4.05,3.15,6.22,4.49
		c4.49,2.79,8.9,5.81,13.68,8.02c6.14,2.84,12.83,3.1,19.52,2.44c4.7-0.46,9.22-1.71,13.57-3.51c3.29-1.37,6.53-2.86,9.82-4.25
		c6.07-2.57,11.51-6.16,16.34-10.59c2.16-1.97,4.36-4.17,5.69-6.71c2.11-4.02,4.06-8.13,5.18-12.68
		C126.19,72.85,126.22,67.56,125.08,61.95z M51.32,99.1c1.83-0.27,5.42-0.97,9.06-1.31c5.52-0.51,10.87-1.63,16.07-3.54
		c1.24-0.45,2.5-0.85,3.78-1.17c4.73-1.21,9.49-2.3,13.92-4.5c7-3.46,13.29-7.85,18.76-13.46c3-3.09,5.37-6.62,7.93-10.04
		c1.91-2.56,3.02-5.23,2.62-8.5c-0.21-1.69-1.22-2.99-1.73-4.47c-1.38-4.05-4.57-5.99-8.01-7.74c-1.17-0.59-2.46-0.96-3.72-1.34
		c-2.83-0.85-5.63-2.02-8.52-2.4c-9.58-1.26-19.22-1.08-28.8-0.01c-3.71,0.41-7.42,1.44-10.94,2.71C54.49,45.94,48.06,50,42,54.77
		c-5.47,4.31-9.89,9.35-12.93,15.61c-0.8,1.65-1.74,3.25-2.46,4.94c-1.56,3.66-2.9,7.33-2.26,11.5c0.69,4.48,3.12,7.43,7.17,9.14
		C37.26,98.38,43.36,98.73,51.32,99.1z"/>
	<path d="M89.46,45.14c7.34,0.02,14.24,1.9,20.92,4.55c1.4,0.56,2.53,2.28,3.35,3.72c1.53,2.69,2.4,5.49,1.25,8.75
		c-1.83,5.23-5.33,8.9-9.97,11.57c-3.87,2.23-7.88,4.2-11.84,6.29c-4.24,2.24-8.47,4.52-12.74,6.69c-6.28,3.2-12.81,5.69-19.71,7.32
		c-4.6,1.09-9.18,1.78-13.91,1.9c-5.72,0.14-10.7-1.48-14.52-5.75c-1.29-1.44-2.4-3.48-2.63-5.36c-0.35-2.98-0.34-6.04,0.97-9.01
		c2.6-5.91,6.48-10.69,11.41-14.82c3.48-2.91,7.22-5.3,11.27-7.24c1.5-0.72,3.18-1.07,4.78-1.58c0.57-0.18,1.19-0.27,1.71-0.55
		c5.68-2.98,11.84-4.29,18.1-5.21C81.74,45.85,85.61,45.56,89.46,45.14z M32.04,79.31c-1.5,4.72-0.05,8.25,3.35,11.37
		c2.7,2.48,6.03,3,9.31,3.26c6.04,0.47,12-0.27,17.86-2.09c4.17-1.29,8.38-2.32,12.3-4.37c5.68-2.96,11.55-5.56,17.22-8.54
		c4.69-2.46,9.29-5.12,13.78-7.92c3.16-1.97,5.28-4.85,6.85-8.36c2.02-4.5-0.61-11.15-6.07-12.61c-1.57-0.42-3.13-0.92-4.71-1.31
		c-9.22-2.3-18.56-1.76-27.67,0.07c-6.72,1.35-13.28,3.83-19.65,6.45c-6.05,2.49-11.36,6.37-15.76,11.33
		c-2.34,2.65-4.67,5.32-5.89,8.98c0.99,0.3,1.81,0.55,2.61,0.79C35.25,78.5,34.86,78.82,32.04,79.31z"/>
	<path d="M80.55,61.97c-0.73-0.79-1.63-1.34-1.6-1.83c0.06-0.78,0.56-1.92,1.18-2.18c1.24-0.52,2.68-0.68,4.05-0.74
		c1.14-0.05,1.71,1.18,0.87,1.87C83.78,60.15,82.26,60.91,80.55,61.97z"/>
	<path d="M64.05,69.21c2.26-3.79,5.61-3.92,9.4-4.1c-2.01,1.44-3.54,2.86-5.34,3.72C66.97,69.38,65.42,69.11,64.05,69.21z"/>
	<path d="M44.76,75.88c2.53-3.22,3.7-3.64,6.69-2.52C49.61,76.65,47.06,77.68,44.76,75.88z"/>
	<path d="M78.03,77.66c3.1-2.8,3.31-2.88,5.99-2.24c-0.11,2-0.58,2.51-3.04,3.32C79.53,79.22,79.33,79.15,78.03,77.66z"/>
	<path d="M61.96,57.53c-1.73,1.96-4.03,2.2-6.43,2.15c0.05-2.04,0.46-2.48,2.96-3.33C60.11,55.8,60.7,56,61.96,57.53z"/>
	<path d="M49.82,68.5c1.47-3.69,2.86-4.52,5.79-3.62C55.13,67.72,53.22,68.97,49.82,68.5z"/>
	<path d="M40.85,86.35c-1.18,0.71-2.08,1.38-3.09,1.81c-1.1,0.46-2.5-0.21-2.82-1.16c-0.4-1.22,0.56-1.64,1.32-2.09
		C37.97,83.88,38.54,84.06,40.85,86.35z"/>
	<path d="M63.42,61.64c-0.55-1.39,0.06-2.37,1.25-2.97c1.42-0.72,2.72-0.38,3.77,0.81C67.3,62.15,66.28,62.59,63.42,61.64z"/>
	<path d="M44.4,77.02c-1.06,2.05-2.29,3.35-4.15,3.83c-0.58,0.15-1.54,0.02-1.85-0.36c-0.27-0.34-0.12-1.51,0.25-1.8
		c1.09-0.86,2.33-1.59,3.62-2.1C42.81,76.38,43.62,76.85,44.4,77.02z M42.49,78.85c-0.11-0.22-0.23-0.44-0.34-0.65
		c-0.74,0.38-1.47,0.77-2.21,1.15c0.12,0.23,0.24,0.45,0.35,0.68C41.03,79.63,41.76,79.24,42.49,78.85z"/>
	<path d="M107.81,56.99c0.54,0.34,1.28,0.54,1.44,0.96c0.16,0.42-0.1,1.22-0.45,1.58c-0.55,0.56-1.28,1.12-2.02,1.26
		c-0.65,0.12-1.71-0.14-2.01-0.61c-0.26-0.4,0.1-1.54,0.55-1.97C105.93,57.62,106.9,57.41,107.81,56.99z"/>
	<path d="M57.61,86.3c-0.41-0.44-1.25-1.02-1.61-1.82c-0.4-0.9,1.15-2.19,2.6-2.35c1.35-0.14,2.45,0.56,2.51,1.6
		C61.18,84.71,59.43,86.19,57.61,86.3z M57.26,83.76c0.93,1.51,1.47,1.1,2.28-0.27C58.6,83.6,58.03,83.66,57.26,83.76z"/>
	<path d="M62.49,75.56c-2.34,3.04-3.05,3.25-5.79,1.88C58.7,74.73,59.69,74.38,62.49,75.56z"/>
	<path d="M95.29,55.5c2.37-1.81,3-1.94,5.9-1.18c-0.45,2.09-2.18,2.44-3.82,2.77C96.23,57.32,95.44,56.74,95.29,55.5z"/>
	<path d="M93.02,71.08c2.93-1.84,3.16-1.89,5.95-1.11c-0.56,1.94-2.33,2.05-3.77,2.49C94.26,72.74,93.99,72.45,93.02,71.08z"/>
	<path d="M70.46,78.72c-1.02,1.05-2.1,1.97-3.67,1.73c-0.53-0.08-1.24-0.51-1.41-0.96c-0.14-0.36,0.29-1.13,0.69-1.46
		C67.63,76.69,68.64,76.87,70.46,78.72z"/>
	<path d="M49.24,90.22c-1.41,1.8-3.29,1.86-4.95,2.27c-0.33,0.08-0.86-0.62-1.3-0.96C44.99,89.26,45.62,89.12,49.24,90.22z"/>
	<path d="M78.75,51.98c-0.47,2.17-2.04,2.59-3.37,3.16c-0.38,0.16-1.28-0.2-1.5-0.58c-0.23-0.4-0.15-1.33,0.17-1.64
		C75.28,51.74,76.76,51.26,78.75,51.98z"/>
	<path d="M43.48,67.84c-0.11,1.66-1.58,2.89-2.78,2.78c-1.11-0.1-1.6-0.73-1.5-1.83c0.1-1.01,1.46-2.3,2.49-2.07
		C42.41,66.88,43.02,67.54,43.48,67.84z"/>
	<path d="M93.57,62.75c-1.46,1.85-2.92,2.92-4.94,2.5c-1.1-0.23-1.26-1.2-0.74-2.42C89.62,63.01,91.35,61.67,93.57,62.75z"/>
	<path d="M65.78,87.28c-1.03,1.89-2.34,2.66-3.93,2.49c-0.54-0.06-1.01-0.76-1.51-1.16c0.45-0.44,0.85-1.2,1.35-1.27
		C63.03,87.17,64.41,87.28,65.78,87.28z"/>
	<path d="M92.06,75.4c-0.23,2.37-1.91,2.63-2.94,3.5c-0.21,0.18-0.95-0.07-1.28-0.33c-0.22-0.17-0.32-0.91-0.15-1.07
		c0.7-0.68,1.46-1.34,2.31-1.81C90.51,75.42,91.22,75.51,92.06,75.4z"/>
	<path d="M69.91,85.16c1.14-2.46,2.95-2.22,4.94-1.87C73.88,85.58,72.15,86.25,69.91,85.16z"/>
	<path d="M82.25,70.11c-2.43,2.31-2.48,2.31-4.05-0.11C80.2,68.1,80.28,68.1,82.25,70.11z"/>
	<path d="M46.73,64.11c-0.37-0.4-0.8-0.87-1.25-1.35c2.22-1.94,3.41-2.43,5.58-2.2C49.61,61.75,48.34,62.79,46.73,64.11z"/>
	<path d="M52.04,82.76c-2.21,0.58-4.13,1.08-6.17,1.62C47.41,81.5,49.65,80.79,52.04,82.76z"/>
	<path d="M88.48,52.08c0.53-2.34,0.53-2.34,4.24-2.28C92.06,51.88,90.39,51.91,88.48,52.08z"/>
	<path d="M107.85,66.01c-2.11,0.6-3.7,1.06-5.44,1.55c1.18-1.84,3.2-3.26,4.35-2.95C107.16,64.71,107.4,65.41,107.85,66.01z"/>
	<path d="M68.59,74.61c-0.7-0.7-0.45-1.32,0.42-1.83c1.59-0.94,2.43-0.85,3.84,0.41C71.55,73.62,70.23,74.06,68.59,74.61z"/>
	<path d="M56.29,68.94c1.19,0.33,2.24,0.62,3.27,0.92c0.07,0.02,0.11,0.16,0.4,0.65c-0.92,0.3-1.81,0.87-2.59,0.75
		C56.59,71.13,55.68,70.44,56.29,68.94z"/>
	<path d="M66.4,56.83c0.2-1.22,0.35-2.18,0.5-3.14c1.8,0.4,2.26,0.92,1.97,2.3C68.57,57.48,67.58,57.18,66.4,56.83z"/>
	<path d="M99.26,62.88c-1.24,0.51-2.28,0.93-3.38,1.38c-0.86-0.66-0.49-1.49,0.18-1.93C97.06,61.67,98.25,61.14,99.26,62.88z"/>
	<path d="M79.5,65.87c-1.29,0.82-2.2,1.39-3.17,2.01C76.3,65.37,76.88,64.93,79.5,65.87z"/>
	<path d="M88.56,71.49c-0.15-0.68-0.32-1.36-0.41-2.04c-0.01-0.07,0.58-0.36,0.72-0.27c0.93,0.58,0.95,1.35,0.5,2.16
		C89.1,71.38,88.83,71.43,88.56,71.49z"/>
</g>
</svg>
