<?xml version="1.0" encoding="utf-8"?>
<!-- Generator: Adobe Illustrator 23.0.1, SVG Export Plug-In . SVG Version: 6.00 Build 0)  -->
<svg version="1.1" id="Layer_1" xmlns="http://www.w3.org/2000/svg" xmlns:xlink="http://www.w3.org/1999/xlink" x="0px" y="0px"
	 viewBox="0 0 150 150" style="enable-background:new 0 0 150 150;" xml:space="preserve">
<style type="text/css">
	.st0{fill:#F49AB4;}
	.st1{fill:#F28DA7;}
	.st2{fill:#E85072;}
	.st3{fill:#E84B6F;}
	.st4{fill:#EB5A7D;}
	.st5{fill:#EF7994;}
	.st6{fill:#F8BCCD;}
	.st7{fill:#F38CA8;}
	.st8{fill:#EF728F;}
	.st9{fill:#FCE4EB;}
	.st10{fill:#F0CCCF;}
	.st11{fill:#DE8D95;}
	.st12{fill:#EBBABF;}
	.st13{fill:#E7ACB2;}
	.st14{fill:#E39DA3;}
	.st15{fill:#F5DEE0;}
	.st16{fill:#D97A83;}
	.st17{fill:#E4A6AD;}
	.st18{fill:#E9B6BB;}
	.st19{fill:#DA9197;}
	.st20{fill:#CC7077;}
	.st21{fill:#C9646C;}
	.st22{fill:#D4848B;}
	.st23{fill:#D17A81;}
	.st24{fill:#DD9EA3;}
	.st25{fill:#C65760;}
	.st26{fill:#D48189;}
	.st27{fill:#CF6E76;}
	.st28{fill:#C1575F;}
	.st29{fill:#B8424B;}
	.st30{fill:#B33C43;}
	.st31{fill:#BB4952;}
	.st32{fill:#C65E66;}
	.st33{fill:#BC4F57;}
	.st34{fill:#B0353D;}
	.st35{fill:#D67E84;}
	.st36{fill:#C6636B;}
	.st37{fill:#CA6C72;}
	.st38{fill:#B9454D;}
	.st39{fill:#C05B63;}
	.st40{fill:#C0545B;}
	.st41{fill:#BE4C53;}
	.st42{fill:#B43C44;}
	.st43{fill:#DF999F;}
	.st44{fill:#D27980;}
	.st45{fill:#C1555D;}
	.st46{fill:#CB6F76;}
	.st47{fill:#C8676E;}
	.st48{fill:#D5838A;}
	.st49{fill:#C65D64;}
	.st50{fill:#F1D1D4;}
	.st51{fill:#D38087;}
	.st52{fill:#CF737C;}
	.st53{fill:#D98C94;}
	.st54{fill:#E6B3B9;}
	.st55{fill:#D8898F;}
	.st56{fill:#C66269;}
	.st57{fill:#C96A72;}
	.st58{fill:#DD9399;}
	.st59{fill:#CF747B;}
	.st60{fill:#D48188;}
	.st61{fill:#D37D85;}
	.st62{fill:#DC9298;}
	.st63{fill:#D8838B;}
	.st64{fill:#FAECED;}
	.st65{fill:#EFCBD0;}
	.st66{fill:#EDC1C5;}
	.st67{fill:#D28089;}
	.st68{fill:#CB747D;}
	.st69{fill:#A8343C;}
	.st70{fill:#A62F37;}
	.st71{fill:#B03E44;}
	.st72{fill:#C25C63;}
	.st73{fill:#E1A8AC;}
	.st74{fill:#BE535C;}
	.st75{fill:#CE727C;}
	.st76{fill:#F5D8DA;}
	.st77{fill:#D8BAE7;}
	.st78{fill:#BC8FD2;}
	.st79{fill:#B17FC9;}
	.st80{fill:#7D3CA4;}
	.st81{fill:#884BAE;}
	.st82{fill:#A369BF;}
	.st83{fill:#D2B5E2;}
	.st84{fill:#9A62BC;}
	.st85{fill:#B17ECB;}
	.st86{fill:#ECE0F2;}
	.st87{fill:#FBCBC8;}
	.st88{fill:#F5908C;}
	.st89{fill:#F28580;}
	.st90{fill:#E64640;}
	.st91{fill:#E5413B;}
	.st92{fill:#E74E49;}
	.st93{fill:#ED6D68;}
	.st94{fill:#F7B5B0;}
	.st95{fill:#ED6660;}
	.st96{fill:#F48580;}
	.st97{fill:#FBDFDF;}
	.st98{fill:#F9C1C0;}
	.st99{fill:#F7B7B6;}
	.st100{fill:#EF7573;}
	.st101{fill:#EF6F6D;}
	.st102{fill:#F17F7C;}
	.st103{fill:#F4A19F;}
	.st104{fill:#F39998;}
	.st105{fill:#EC7271;}
	.st106{fill:#FAD1CF;}
	.st107{fill:#FADCDC;}
	.st108{fill:#F39391;}
	.st109{fill:#FDECEC;}
	.st110{fill:#FCDDDD;}
	.st111{fill:#ED8280;}
	.st112{fill:#E66160;}
	.st113{fill:#F18784;}
	.st114{fill:#F19593;}
	.st115{fill:#EB7675;}
	.st116{fill:#E86867;}
	.st117{fill:#F28785;}
	.st118{fill:#F3A7A7;}
	.st119{fill:#F08C8B;}
	.st120{fill:#F08785;}
	.st121{fill:#E55D5B;}
	.st122{fill:#E86D6C;}
	.st123{fill:#E85F5D;}
	.st124{fill:#E75958;}
	.st125{fill:#EA6664;}
	.st126{fill:#E76260;}
	.st127{fill:#E04948;}
	.st128{fill:#ED7371;}
	.st129{fill:#EA6B6A;}
	.st130{fill:#EB6763;}
	.st131{fill:#E45352;}
	.st132{fill:#E54E4C;}
	.st133{fill:#DE3635;}
	.st134{fill:#E65958;}
	.st135{fill:#E0413E;}
	.st136{fill:#EA6D6A;}
	.st137{fill:#EE9493;}
	.st138{fill:#EA6866;}
	.st139{fill:#F2A8A6;}
	.st140{fill:#E14543;}
	.st141{fill:#E3413F;}
	.st142{fill:#E64A48;}
	.st143{fill:#E56967;}
	.st144{fill:#E33F3D;}
	.st145{fill:#EB7775;}
	.st146{fill:#EE8483;}
	.st147{fill:#E64845;}
	.st148{fill:#E75655;}
	.st149{fill:#E65451;}
	.st150{fill:#EA7473;}
	.st151{fill:#E55B57;}
	.st152{fill:#E75756;}
	.st153{fill:#EB7472;}
	.st154{fill:#EE8C8A;}
	.st155{fill:#F5A3A2;}
	.st156{fill:#E14A49;}
	.st157{fill:#E14D4C;}
	.st158{fill:#E14B49;}
	.st159{fill:#DE3E3D;}
	.st160{fill:#E45350;}
	.st161{fill:#E14544;}
	.st162{fill:#E54E4B;}
	.st163{fill:#E34240;}
	.st164{fill:#E75C5A;}
	.st165{fill:#EB7C7B;}
	.st166{fill:#F3A2A1;}
	.st167{fill:#EA7877;}
	.st168{fill:#E66B6A;}
	.st169{fill:#E96A69;}
	.st170{fill:#E56160;}
	.st171{fill:#E44845;}
	.st172{fill:#EC7473;}
	.st173{fill:#F9C0D3;}
	.st174{fill:#F298B5;}
	.st175{fill:#EE89A7;}
	.st176{fill:#E54D73;}
	.st177{fill:#E44771;}
	.st178{fill:#E7567E;}
	.st179{fill:#EC7797;}
	.st180{fill:#F8BCCF;}
	.st181{fill:#EB6D8F;}
	.st182{fill:#F089A8;}
	.st183{fill:#FCE2EB;}
	.st184{fill:#E55B7F;}
	.st185{fill:#E6708E;}
	.st186{fill:#EB87A2;}
	.st187{fill:#E25677;}
	.st188{fill:#E7678B;}
	.st189{fill:#FBD7E3;}
	.st190{fill:#ED80A1;}
	.st191{fill:#E24166;}
	.st192{fill:#E13B65;}
	.st193{fill:#E34870;}
	.st194{fill:#E76486;}
	.st195{fill:#F49DB8;}
	.st196{fill:#F7BFD1;}
	.st197{fill:#E65C7F;}
	.st198{fill:#F6ABC4;}
	.st199{fill:#F6A7C2;}
	.st200{fill:#EA6189;}
	.st201{fill:#DB3258;}
	.st202{fill:#DA2E55;}
	.st203{fill:#F7B2C9;}
	.st204{fill:#EA6A8D;}
	.st205{fill:#DC355B;}
	.st206{fill:#DB3159;}
	.st207{fill:#DF3C63;}
	.st208{fill:#F9C5D6;}
	.st209{fill:#EB7697;}
	.st210{fill:#DE3B61;}
	.st211{fill:#DE375F;}
	.st212{fill:#E1426A;}
	.st213{fill:#FDE7EE;}
	.st214{fill:#EE89A9;}
	.st215{fill:#E2456B;}
	.st216{fill:#E14069;}
	.st217{fill:#E44D75;}
	.st218{fill:#E86B8C;}
	.st219{fill:#EE7A9C;}
	.st220{fill:#F5A8C0;}
	.st221{fill:#FACBDA;}
	.st222{fill:#E65A7D;}
	.st223{fill:#E04169;}
	.st224{fill:#FEF5F9;}
	.st225{fill:#F191B0;}
	.st226{fill:#EA7292;}
	.st227{fill:#F6B4C9;}
	.st228{fill:#FBD8E5;}
	.st229{fill:#E96C8F;}
	.st230{fill:#E35477;}
	.st231{fill:#EA7396;}
	.st232{fill:#EB7A9D;}
	.st233{fill:#E8698D;}
	.st234{fill:#EB7094;}
	.st235{fill:#E04B6E;}
	.st236{fill:#E66085;}
	.st237{fill:#EB7294;}
	.st238{fill:#E7678C;}
	.st239{fill:#EA6D91;}
	.st240{fill:#E14C71;}
	.st241{fill:#EE7A9D;}
	.st242{fill:#F393B2;}
	.st243{fill:#DC3F64;}
	.st244{fill:#EF82A3;}
	.st245{fill:#F39DB9;}
	.st246{fill:#DF466B;}
	.st247{fill:#DF4469;}
	.st248{fill:#F29A98;}
	.st249{fill:#E64F4D;}
	.st250{fill:#E74947;}
	.st251{fill:#E85956;}
	.st252{fill:#EC7775;}
	.st253{fill:#F8BCBA;}
	.st254{fill:#EC6F6D;}
	.st255{fill:#FCE2E2;}
	.st256{fill:#F8C8C6;}
	.st257{fill:#F08B89;}
	.st258{fill:#F18A89;}
	.st259{fill:#B093A4;}
	.st260{fill:#A38295;}
	.st261{fill:#6F455A;}
	.st262{fill:#694055;}
	.st263{fill:#794F64;}
	.st264{fill:#936F83;}
	.st265{fill:#CDB7C1;}
	.st266{fill:#B596A5;}
	.st267{fill:#A58394;}
	.st268{fill:#8C667A;}
	.st269{fill:#B696A7;}
	.st270{fill:#E8E0E7;}
	.st271{fill:#E1BCC2;}
	.st272{fill:#A9666E;}
	.st273{fill:#681C23;}
	.st274{fill:#641920;}
	.st275{fill:#73242D;}
	.st276{fill:#8D3F48;}
	.st277{fill:#C69197;}
	.st278{fill:#893841;}
	.st279{fill:#E3CCCE;}
	.st280{fill:#6F292E;}
	.st281{fill:#A15A63;}
	.st282{fill:#944952;}
	.st283{fill:#944953;}
	.st284{fill:#964A53;}
	.st285{fill:#984B54;}
	.st286{fill:#974A53;}
	.st287{fill:#A25A62;}
	.st288{fill:#D2BCC8;}
	.st289{fill:#C8B2BE;}
	.st290{fill:#936A80;}
	.st291{fill:#8E667B;}
	.st292{fill:#9B7589;}
	.st293{fill:#B293A3;}
	.st294{fill:#916B7F;}
	.st295{fill:#DDCCD6;}
	.st296{fill:#AC8B9C;}
	.st297{fill:#F1EBEF;}
	.st298{fill:#9C7A8C;}
	.st299{fill:#8F6C80;}
	.st300{fill:#B99DAC;}
	.st301{fill:#A27F91;}
	.st302{fill:#C2A7B6;}
	.st303{fill:#AB8E9F;}
	.st304{fill:#936D82;}
	.st305{fill:#856174;}
	.st306{fill:#B99DAB;}
	.st307{fill:#C2A9B6;}
	.st308{fill:#A38091;}
	.st309{fill:#BBA3B0;}
	.st310{fill:#7A5468;}
	.st311{fill:#855F73;}
	.st312{fill:#AE8E9F;}
	.st313{fill:#7C556A;}
	.st314{fill:#7B5066;}
	.st315{fill:#855C71;}
	.st316{fill:#AF8E9F;}
	.st317{fill:#734B60;}
	.st318{fill:#694256;}
	.st319{fill:#916A80;}
	.st320{fill:#886378;}
	.st321{fill:#875C71;}
	.st322{fill:#714B5E;}
	.st323{fill:#582F42;}
	.st324{fill:#795066;}
	.st325{fill:#5E3A4B;}
	.st326{fill:#8A6578;}
	.st327{fill:#A98E9D;}
	.st328{fill:#B9A1B1;}
	.st329{fill:#B08F9F;}
	.st330{fill:#B898AA;}
	.st331{fill:#896578;}
	.st332{fill:#653C50;}
	.st333{fill:#623A4E;}
	.st334{fill:#6C4257;}
	.st335{fill:#B28FA1;}
	.st336{fill:#80596E;}
	.st337{fill:#7F586C;}
	.st338{fill:#765063;}
	.st339{fill:#683F53;}
	.st340{fill:#774E63;}
	.st341{fill:#704B5F;}
	.st342{fill:#674355;}
	.st343{fill:#7F5A6E;}
	.st344{fill:#815A6E;}
	.st345{fill:#6A4558;}
	.st346{fill:#5D374A;}
	.st347{fill:#926D80;}
	.st348{fill:#70475B;}
	.st349{fill:#72495E;}
	.st350{fill:#673D52;}
	.st351{fill:#673D51;}
	.st352{fill:#60364B;}
	.st353{fill:#795265;}
	.st354{fill:#683F52;}
	.st355{fill:#7A5368;}
	.st356{fill:#987387;}
	.st357{fill:#70475C;}
	.st358{fill:#A07D92;}
	.st359{fill:#81596E;}
	.st360{fill:#926C7F;}
	.st361{fill:#80596D;}
	.st362{fill:#CDC0E4;}
	.st363{fill:#A998CF;}
	.st364{fill:#644DA1;}
	.st365{fill:#5E479E;}
	.st366{fill:#6F56A9;}
	.st367{fill:#755CAC;}
	.st368{fill:#8975BA;}
	.st369{fill:#C4BAE0;}
	.st370{fill:#755DAD;}
	.st371{fill:#846DB7;}
	.st372{fill:#E7E2F2;}
	.st373{fill:#9B89C5;}
	.st374{fill:#8871B8;}
	.st375{fill:#9C89C6;}
	.st376{fill:#8673B9;}
	.st377{fill:#B9E1BA;}
	.st378{fill:#ADDBAE;}
	.st379{fill:#99D09A;}
	.st380{fill:#65B567;}
	.st381{fill:#5FB261;}
	.st382{fill:#70BB71;}
	.st383{fill:#8DCB8E;}
	.st384{fill:#CBE9CB;}
	.st385{fill:#86C687;}
	.st386{fill:#98D099;}
	.st387{fill:#EBF5EB;}
	.st388{fill:#B9D6C9;}
	.st389{fill:#8EBD9E;}
	.st390{fill:#7DB18E;}
	.st391{fill:#408251;}
	.st392{fill:#3A7F4C;}
	.st393{fill:#4A8C5B;}
	.st394{fill:#68A279;}
	.st395{fill:#B5D4BE;}
	.st396{fill:#7CB38B;}
	.st397{fill:#619D71;}
	.st398{fill:#E0ECE4;}
	.st399{fill:#74A38C;}
	.st400{fill:#679880;}
	.st401{fill:#669780;}
	.st402{fill:#669881;}
	.st403{fill:#285E41;}
	.st404{fill:#235A3C;}
	.st405{fill:#31684A;}
	.st406{fill:#4D8268;}
	.st407{fill:#A1C2B0;}
	.st408{fill:#679981;}
	.st409{fill:#467B62;}
	.st410{fill:#D6E5DF;}
	.st411{fill:#8ECA8F;}
	.st412{fill:#7DC07F;}
	.st413{fill:#409841;}
	.st414{fill:#3A933C;}
	.st415{fill:#4AA14B;}
	.st416{fill:#68B569;}
	.st417{fill:#7CC07D;}
	.st418{fill:#B5DDB5;}
	.st419{fill:#61B062;}
	.st420{fill:#7CC17E;}
	.st421{fill:#E0EFE0;}
	.st422{fill:#EBF5DE;}
	.st423{fill:#D4EAB8;}
	.st424{fill:#D2E9B4;}
	.st425{fill:#D8ECBE;}
	.st426{fill:#E2F0CE;}
	.st427{fill:#F3F9EA;}
	.st428{fill:#DFF0CA;}
	.st429{fill:#FAFDF7;}
	.st430{fill:#D3C9BE;}
	.st431{fill:#CBBEB3;}
	.st432{fill:#BBAC9F;}
	.st433{fill:#97826F;}
	.st434{fill:#947E69;}
	.st435{fill:#9F8A79;}
	.st436{fill:#B5A495;}
	.st437{fill:#DED6CE;}
	.st438{fill:#BBAD9F;}
	.st439{fill:#AE9E8D;}
	.st440{fill:#F2EFEC;}
	.st441{fill:#B1A091;}
	.st442{fill:#B1A090;}
	.st443{fill:#D8BACF;}
	.st444{fill:#976286;}
	.st445{fill:#905778;}
	.st446{fill:#4F1939;}
	.st447{fill:#4C1637;}
	.st448{fill:#5A2144;}
	.st449{fill:#773B60;}
	.st450{fill:#B88FAD;}
	.st451{fill:#6E345A;}
	.st452{fill:#8E567D;}
	.st453{fill:#E1CCDA;}
	.st454{fill:#C4E2A7;}
	.st455{fill:#93C35F;}
	.st456{fill:#8EC15A;}
	.st457{fill:#9AC868;}
	.st458{fill:#B0D587;}
	.st459{fill:#DCEBC3;}
	.st460{fill:#C8E0AA;}
	.st461{fill:#ABD280;}
	.st462{fill:#CAE2A9;}
	.st463{fill:#EFF8E7;}
	.st464{fill:#FFF6C0;}
	.st465{fill:#FFEC97;}
	.st466{fill:#FFDC4B;}
	.st467{fill:#FFD945;}
	.st468{fill:#FFDD54;}
	.st469{fill:#FFE774;}
	.st470{fill:#FFF4BA;}
	.st471{fill:#FFE46C;}
	.st472{fill:#FFF9E2;}
	.st473{fill:#FDE2C1;}
	.st474{fill:#F9CA98;}
	.st475{fill:#F9C18A;}
	.st476{fill:#F5994E;}
	.st477{fill:#F49448;}
	.st478{fill:#F8A158;}
	.st479{fill:#F8B577;}
	.st480{fill:#FCDDBC;}
	.st481{fill:#F8B06F;}
	.st482{fill:#FFEFE2;}
	.st483{fill:#F8A7A4;}
	.st484{fill:#EF8262;}
	.st485{fill:#EC605A;}
	.st486{fill:#EB5B55;}
	.st487{fill:#EC6964;}
	.st488{fill:#F28783;}
	.st489{fill:#F9C4C1;}
	.st490{fill:#F2817A;}
	.st491{fill:#EB6449;}
	.st492{fill:#FCE7E7;}
	.st493{fill:#FFEA88;}
	.st494{fill:#FFEB87;}
	.st495{fill:#FDF2E3;}
	.st496{fill:#FDEFDD;}
	.st497{fill:#F9E1C4;}
	.st498{fill:#FADEB9;}
	.st499{fill:#FADDB7;}
	.st500{fill:#FAE0BF;}
	.st501{fill:#FBE9CF;}
	.st502{fill:#F9DAB8;}
	.st503{fill:#FDF5EB;}
	.st504{fill:#FBE6CB;}
	.st505{fill:#FFFBF7;}
	.st506{fill:#FBDFBE;}
	.st507{fill:#F7D8B5;}
	.st508{fill:#FBE8CF;}
	.st509{fill:#FBE3C8;}
	.st510{fill:#F9E8CF;}
	.st511{fill:#F8DBB7;}
	.st512{fill:#FADBB5;}
	.st513{fill:#F7D5AE;}
	.st514{fill:#FDE9D5;}
	.st515{fill:#FAE3C8;}
	.st516{fill:#F7D1A4;}
	.st517{fill:#F5CD9D;}
	.st518{fill:#F7D8B0;}
	.st519{fill:#F8D4A9;}
	.st520{fill:#F8D3A6;}
	.st521{fill:#F8D8AF;}
	.st522{fill:#F7CD9E;}
	.st523{fill:#F4C896;}
	.st524{fill:#FBE3C5;}
	.st525{fill:#F7DBB8;}
	.st526{fill:#F7D8B1;}
	.st527{fill:#F7D7B0;}
	.st528{fill:#F8CD9F;}
	.st529{fill:#F8CD9E;}
	.st530{fill:#F1BE84;}
	.st531{fill:#F8D0A3;}
	.st532{fill:#F1C38D;}
	.st533{fill:#F8D8B1;}
	.st534{fill:#FBE2C8;}
	.st535{fill:#F9EAD3;}
	.st536{fill:#F9D3AA;}
	.st537{fill:#F7C896;}
	.st538{fill:#F7C794;}
	.st539{fill:#F7CA9A;}
	.st540{fill:#F7D3AB;}
	.st541{fill:#F8D8B5;}
	.st542{fill:#F9E6CF;}
	.st543{fill:#F7C897;}
	.st544{fill:#F8D3AA;}
	.st545{fill:#F7CEA2;}
	.st546{fill:#F4CD9E;}
	.st547{fill:#F5D2A5;}
	.st548{fill:#FBE2C2;}
	.st549{fill:#F5D1A8;}
	.st550{fill:#F8D5AB;}
	.st551{fill:#F2C695;}
	.st552{fill:#F8D3A8;}
	.st553{fill:#F5C998;}
	.st554{fill:#F5C894;}
	.st555{fill:#F2C997;}
	.st556{fill:#F2C48D;}
	.st557{fill:#F4C694;}
	.st558{fill:#F5CE9D;}
	.st559{fill:#F4C594;}
	.st560{fill:#F5C995;}
	.st561{fill:#F4C48F;}
	.st562{fill:#F7D2A6;}
	.st563{fill:#F8DFBB;}
	.st564{fill:#FBE2C3;}
	.st565{fill:#F8CC9E;}
	.st566{fill:#FADFC1;}
	.st567{fill:#F9D8B5;}
	.st568{fill:#F4C997;}
	.st569{fill:#F9DDB8;}
	.st570{fill:#FDFCED;}
	.st571{fill:#FBF7D2;}
	.st572{fill:#F9F6CB;}
	.st573{fill:#F4EBA8;}
	.st574{fill:#F5E9A6;}
	.st575{fill:#F5EDAC;}
	.st576{fill:#F7F5C0;}
	.st577{fill:#FBFBE1;}
	.st578{fill:#F7F0BE;}
	.st579{fill:#FAF6CE;}
	.st580{fill:#FFFBF5;}
	.st581{fill:#BDDB97;}
	.st582{fill:#BBDC99;}
	.st583{fill:#BDDD99;}
	.st584{fill:#B0D484;}
	.st585{fill:#AFD484;}
	.st586{fill:#FFEA87;}
	.st587{fill:#D3E9BA;}
	.st588{fill:#E1EECE;}
	.st589{fill:#D3E8BB;}
	.st590{fill:#E3EECE;}
	.st591{opacity:0.9;}
	.st592{fill:#FFF8CD;}
	.st593{opacity:0.9;fill:#FFEE8A;}
	.st594{fill:#FFF19E;}
	.st595{fill:#FFF5B6;}
	.st596{fill:#FFFBE0;}
	.st597{fill:none;stroke:#FFF4B1;stroke-width:0;}
	.st598{fill:#FFFDF3;}
	.st599{fill:#FACEDD;}
	.st600{opacity:0.9;fill:#F38CAF;}
	.st601{fill:#F5A0BD;}
	.st602{fill:#F8B8CD;}
	.st603{fill:#FCE1EA;}
	.st604{fill:none;stroke:#F7B2C9;stroke-width:0;}
	.st605{fill:#FEF3F7;}
	.st606{fill:#FBDBB6;}
	.st607{fill:#FBD1A3;}
	.st608{fill:#F9B674;}
	.st609{fill:#F8B36E;}
	.st610{fill:#FABB7E;}
	.st611{fill:#FACB99;}
	.st612{fill:#FDE9D1;}
	.st613{fill:#FAC893;}
	.st614{fill:#F9D0A1;}
	.st615{fill:#FFF5EC;}
	.st616{fill:#D7ECC0;}
	.st617{fill:#B1D684;}
	.st618{fill:#ADD680;}
	.st619{fill:#B7D98D;}
	.st620{fill:#C8E2A7;}
	.st621{fill:#E8F2D6;}
	.st622{fill:#C3E0A0;}
	.st623{fill:#F5FAEF;}
	.st624{fill:#A87699;}
	.st625{fill:#A9716E;}
	.st626{fill:#9F698A;}
	.st627{fill:#9F698D;}
	.st628{fill:#65294F;}
	.st629{fill:#632638;}
	.st630{fill:#62244A;}
	.st631{fill:#612335;}
	.st632{fill:#6E3259;}
	.st633{fill:#6D2F40;}
	.st634{fill:#8B4E74;}
	.st635{fill:#C4A1BB;}
	.st636{fill:#9D688D;}
	.st637{fill:#82476E;}
	.st638{fill:#E7D6E1;}
	.st639{fill:#FFF9D6;}
	.st640{fill:#FFF2A6;}
	.st641{fill:#FFF4B0;}
	.st642{fill:#FFF7C4;}
	.st643{fill:#FFFCE6;}
	.st644{fill:#FFF3B5;}
	.st645{fill:#FFED8B;}
	.st646{fill:#FFED94;}
	.st647{fill:#FFF1A4;}
	.st648{fill:#FFF5BF;}
	.st649{fill:#FFF6CD;}
	.st650{fill:#FFE46E;}
	.st651{fill:#FFED98;}
	.st652{fill:#FFF3A9;}
	.st653{fill:#FFEC8D;}
	.st654{fill:#FFE66B;}
	.st655{fill:#FFEC8A;}
	.st656{fill:#FFE66D;}
	.st657{fill:#FFE571;}
	.st658{fill:#FFEF94;}
	.st659{fill:#FFEF9E;}
	.st660{fill:#FFED93;}
	.st661{fill:#FFE873;}
	.st662{fill:#FFE97A;}
	.st663{fill:#FFEC87;}
	.st664{fill:#FFF19F;}
	.st665{fill:#FFF1A8;}
	.st666{fill:#FFEA7E;}
	.st667{fill:#FFEB86;}
	.st668{fill:#FFEF97;}
	.st669{fill:#FFF2B0;}
	.st670{fill:#FFF4BC;}
	.st671{fill:#FFF5C1;}
	.st672{fill:#FFF8CF;}
	.st673{fill:#FFF8DC;}
	.st674{fill:#FFF0A0;}
	.st675{fill:#FFEE92;}
	.st676{fill:#FFF6CE;}
	.st677{fill:#FFFADD;}
	.st678{fill:#FFFBEC;}
	.st679{fill:#FFFDF5;}
	.st680{fill:#F49C52;}
	.st681{fill:#F69D52;}
	.st682{fill:#F8A55E;}
	.st683{fill:#F8B472;}
	.st684{fill:#F59D54;}
	.st685{fill:#F8A65F;}
	.st686{fill:#F8B474;}
	.st687{fill:#FDF3E9;}
	.st688{fill:#FAE8D1;}
	.st689{fill:#FAE8CF;}
	.st690{fill:#FAEBD4;}
	.st691{fill:#F9EDD7;}
	.st692{fill:#FBEFDE;}
	.st693{fill:#FBEFDD;}
	.st694{fill:#FDF8F1;}
	.st695{fill:#FBEDD7;}
	.st696{fill:#FBEFDC;}
	.st697{fill:#FFFBFA;}
	.st698{fill:#FFE771;}
	.st699{fill:#FFEB83;}
	.st700{fill:#FFED90;}
	.st701{fill:#F7B6CB;}
	.st702{fill:#F4A2BB;}
	.st703{fill:#EE7397;}
	.st704{fill:#ED6D94;}
	.st705{fill:#EF7C9F;}
	.st706{fill:#F399B5;}
	.st707{fill:#FAD1DE;}
	.st708{fill:#F291AE;}
	.st709{fill:#F3A1BB;}
	.st710{fill:#FDECF2;}
</style>
<g>
	<path class="st606" d="M96.54,67.32c-0.33,0-0.67,0.1-0.91,0.34c-1.45,1.45-2.64,2.85-3.67,4.19c-0.52,0.67-0.99,1.32-1.44,1.96
		c-0.44,0.63-0.89,1.25-1.33,1.88c-0.79,1.14-1,2.01-1.09,2.85c-0.01,0.15-0.02,0.29-0.02,0.44c0,0.52,0.06,1.03,0.06,1.55
		c0,0.14,0,0.28-0.02,0.42c0,0.01,0,0.02,0,0.03c0,0.78-0.56,1.63-1.45,2.45c0.34-0.21,1.16-0.74,1.95-1.45
		c-0.13-0.34-0.26-0.68-0.41-1.02l0,0l0,0c0.01-0.19,0.01-0.38,0.01-0.58c0-0.22-0.01-0.43-0.02-0.64
		c-0.02-0.25-0.04-0.51-0.04-0.76c0-0.14,0.01-0.29,0.02-0.44c0.09-0.84,0.31-1.71,1.09-2.85c0.45-0.63,0.89-1.26,1.34-1.89
		c0.45-0.64,0.93-1.29,1.44-1.96c1.03-1.34,2.22-2.74,3.67-4.18c0.24-0.24,0.57-0.34,0.91-0.34c0.01,0,0.01,0,0.02,0
		C96.62,67.33,96.58,67.32,96.54,67.32"/>
	<path class="st606" d="M67.39,82.78c-0.08,0.07-0.18,0.13-0.24,0.22c0.07-0.01,0.14-0.01,0.21-0.01c0.09,0,0.18,0.01,0.28,0.02
		C67.56,82.94,67.48,82.86,67.39,82.78"/>
	<path class="st606" d="M77.31,101.63L77.31,101.63l0.02-0.03c0-0.01,0.01-0.02,0.01-0.03l0,0l0,0L77.31,101.63 M63.89,82.84
		c-0.67,0.03-1.1,0.42-1.44,0.89c-0.33,0.49-0.57,1.05-0.91,1.56c-0.47,0.34-1.03,0.55-1.83,0.88c-0.62,0.21-0.82,0.65-0.82,1.17
		c0,0.53,0.21,1.15,0.38,1.67c0.12,0.24,0.16,0.47,0.16,0.71c0,0.4-0.14,0.81-0.3,1.24c-0.19,0.52-0.4,1.07-0.39,1.59
		c0,0.15,0.02,0.3,0.06,0.45c0.19,0.86,0.97,1.46,1.62,1.98c0.53,0.43,0.98,0.82,0.97,1.37c0,0.12-0.02,0.26-0.07,0.4
		c0.06-0.15,0.13-0.21,0.21-0.21c0.27,0,0.61,0.83,0.87,1.65c0.19,0.61,0.33,1.24,0.33,1.59c0,0.18-0.03,0.28-0.12,0.28
		c-0.03,0-0.07-0.02-0.12-0.06c0,0,0,0,0,0.01c0,0.14-0.53,0.67-0.97,0.94c-0.33,0.13-0.82,0.43-1.03,0.43c-0.01,0-0.02,0-0.02,0
		c-0.14-0.02-0.29-0.03-0.43-0.03c-1.51,0-3.39,0.87-5.04,1.3c-0.01,0.01-0.02,0.04-0.02,0.08c0,0.25,0.19,0.98,0.35,1.9
		c0.11,0.65,0.22,1.39,0.22,2.11c0,0.48-0.05,0.94-0.18,1.35c-0.43,1.15-0.92,2.34-0.92,3.48c0,0.49,0.09,0.97,0.32,1.44
		c0.12,0.1,0.29,0.12,0.49,0.12c0.1,0,0.21-0.01,0.32-0.01c0.11-0.01,0.22-0.01,0.32-0.01c0.18,0,0.35,0.02,0.46,0.11
		c0.16,0.19,1.09,0.67,2.43,1.19c0.67,0.26,1.45,0.53,2.28,0.78c0.84,0.25,1.68,0.46,2.63,0.72c1.88,0.51,4.05,0.97,5.76,1.13
		c1.74,0.19,2.78,0.11,3.06,0.36c0.47,0.57,0.97,1.6,0.97,2.43c0,0.24-0.04,0.46-0.13,0.65c-0.22,0.63-0.3,1.2-0.3,1.73
		c0,1.59,0.74,2.86,0.85,4.54l0,0l0,0c-0.01,0.6-0.51,1.23-0.52,1.83c0.16,1.66,0.81,3.65,1.65,4.11c0.69,0.61,1.32,1.02,1.89,1.23
		c0.35,0.12,0.73,0.18,1.13,0.18c0.34,0,0.69-0.04,1.04-0.14c1,0.12,2.17,0.24,3.53,0.3c0.11-0.05,0.21-0.09,0.32-0.14
		c1.12-0.52,2.37-1.21,3.55-2.06c2.39-1.51,2.71-2.56,3.98-2.56c0.02,0,0.04,0,0.07,0c0.27-0.04,0.63-1.01,1.2-2.3
		c0.32-0.67,0.69-1.42,1.14-2.2c0.46-0.77,0.96-1.55,1.61-2.39c-0.04-0.01-0.19-0.02-0.46-0.06c-0.31-0.03-0.75-0.1-1.31-0.21
		c-0.02,0.02-0.04,0.05-0.05,0.08c-0.25,0.35-0.64,0.86-1.13,1.39c-1,1.11-2.52,2.4-4.13,3.3c-1.5,0.85-3.06,1.38-4.38,1.38
		c-0.1,0-0.21,0-0.31-0.01c-1.4-0.09-2.49-0.8-3.15-2.41c0,0-0.58-0.51-1.21-1.34c-0.34-0.42-0.62-0.91-0.99-1.46
		c-0.37-0.56-0.76-1.18-1.16-1.84c-0.78-1.32-1.51-2.84-1.71-4.25c-0.04-0.28-0.06-0.55-0.06-0.82c0-1.1,0.35-2.08,1.04-2.89
		c0,0,0.86-0.97,2.01-2.55c0.55-0.78,1.21-1.7,1.95-2.72c0.73-1.01,1.54-2.08,2.28-3.19c0.41-0.62,0.81-1.25,1.15-1.89l-0.05-0.04
		c-0.4-0.29-0.91-0.65-1.57-1.1l-0.68-0.45c0,0-0.01-0.01-0.04-0.03c-0.41-0.26-0.81-0.52-1.2-0.77c-0.23-0.14-0.49-0.3-0.78-0.48
		c-0.47-0.29-0.93-0.57-1.37-0.85c-0.18-0.11-0.38-0.23-0.59-0.35c-0.01-0.01-0.03-0.02-0.04-0.02c-0.01-0.01-0.02-0.01-0.03-0.02
		c-0.66-0.4-1.3-0.78-1.92-1.15l0,0c-0.04-0.03-0.09-0.05-0.13-0.08c-1.06-0.61-2.05-1.19-2.97-1.73c-0.03-0.02-0.05-0.03-0.08-0.05
		c-0.82-0.47-1.57-0.91-2.23-1.29l0,0l-0.04-0.04l-0.03-0.05l0,0c-0.63-0.42-1.05-0.78-1.33-1.06c-0.01-0.01-0.02-0.02-0.03-0.03
		l0,0c-0.08-0.08-0.14-0.16-0.2-0.23c-0.04-0.05-0.08-0.1-0.1-0.15c-0.08-0.11-0.14-0.21-0.17-0.3c-0.02-0.07-0.03-0.14-0.03-0.19
		l0,0l0,0l0,0l0,0l0,0l0,0l0,0c0-0.19,0.11-0.29,0.11-0.29c0.28,0.04,0.56,0.07,0.86,0.09l-0.02-0.03l0,0l0,0l0,0c0,0,0,0,0-0.01
		c0.02-0.08,0.43-0.11,0.93-0.16l0,0c0.29-0.02,0.55-0.06,0.76-0.08c0.21-0.03,0.35-0.04,0.35-0.04l0,0h0.06
		c0.93,0,1.5-0.13,1.85-0.29c-0.06,0.02-0.13,0.05-0.21,0.07c-0.16,0.03-0.32,0.07-0.48,0.09c-0.31-0.25-0.58-0.43-0.83-0.59
		c-0.53-0.33-0.96-0.5-1.3-0.61c-0.6-0.19-0.94-0.12-0.94-0.16c0-0.01,0.01-0.01,0.02-0.02c0-0.01,0-0.01,0-0.02
		c0-0.29,1.31-0.54,1.96-0.72l0,0l0,0c-0.01,0.01-0.01,0.02-0.01,0.03c0,0.01,0,0.02,0.01,0.03c0.32,0.27,1.13,0.55,1.73,0.92
		c0.26,0.18,0.46,0.38,0.48,0.57c0,0,0,0.01,0,0.01c0-0.02,0.01-0.04,0.01-0.07c0-0.12-0.06-0.23-0.13-0.34l0,0
		c-0.14-0.22-0.51-0.39-0.77-0.5l0,0c-0.28-0.11-0.5-0.17-0.5-0.17s0.23,0.05,0.5,0.17l0,0l0,0l0,0l0,0
		c-0.28-0.11-0.5-0.17-0.5-0.17s0.23,0.05,0.5,0.17l0,0c0.27,0.11,0.63,0.29,0.77,0.5l0,0c0.07,0.1,0.13,0.22,0.13,0.34l0,0l0,0l0,0
		l0,0l0,0l0,0c0,0.02,0,0.04-0.01,0.07c0,0.01,0,0.02,0,0.04c0,0.14-0.15,0.27-0.43,0.37c-0.35,0.17-0.92,0.29-1.85,0.29h-0.06
		c0,0-0.14,0.02-0.35,0.04c-0.21,0.03-0.46,0.06-0.76,0.08l0,0c-0.5,0.04-0.91,0.08-0.93,0.16c0,0,0,0,0,0.01l0.02,0.03l0,0l0,0l0,0
		c-0.29-0.02-0.58-0.05-0.86-0.09c0,0-0.11,0.09-0.11,0.29c0,0.05,0.01,0.12,0.03,0.19c0.03,0.08,0.09,0.18,0.17,0.3
		c0.03,0.05,0.06,0.1,0.1,0.15c0.05,0.07,0.12,0.15,0.2,0.23l0,0c0.01,0.01,0.02,0.02,0.03,0.03c0.28,0.28,0.7,0.64,1.33,1.06l0,0
		l0.03,0.05l0.04,0.04l0,0c0.66,0.38,1.41,0.82,2.23,1.29c0.03,0.02,0.05,0.03,0.08,0.05c0.92,0.54,1.92,1.11,2.97,1.73
		c0.04,0.03,0.09,0.05,0.13,0.08l0,0c0.61,0.37,1.26,0.75,1.92,1.15c-0.31-0.2-0.77-0.89-1.87-1.81c0,0-0.12-0.19-0.24-0.44
		c-0.1-0.25-0.26-0.58-0.29-0.86c0-0.02,0-0.04,0-0.06c0-0.42,0.23-0.75,1.3-0.75c0.27,0,0.6,0.02,1,0.07c0,0,0.37-0.03,0.87-0.12
		c0.51-0.09,1.22-0.24,1.89-0.49c0.64-0.25,1.3-0.58,1.72-0.95c0.29-0.27,0.47-0.56,0.47-0.83c0-0.1-0.03-0.19-0.08-0.28l0,0l0,0
		c0,0,0.21-0.04,0.48-0.12c0.27-0.08,0.63-0.21,0.94-0.37c0.39-0.2,0.72-0.46,0.74-0.73c-0.03-0.05-0.07-0.09-0.1-0.13
		c-0.18-0.21-0.27-0.33-0.27-0.33l0,0l0,0c0.27,0.14,0.37,0.29,0.37,0.45c0,0.01,0,0.01,0,0.02c0.13,0.18,0.28,0.41,0.46,0.69
		c-0.3-0.95-0.57-1.81-0.57-2.46c0-0.55,0.2-0.96,0.74-1.13c0,0,0.08-0.2,0.18-0.53c0.11-0.33,0.28-0.78,0.52-1.29
		c0.19-0.51,0.44-1.07,0.75-1.6c0.23-0.39,0.46-0.76,0.73-1.08c-0.27,0.22-0.55,0.43-0.86,0.63c-1.67,1.12-3.94,2.1-6.17,2.86
		c-1.73,0.56-4.06,1.13-5.86,1.58c-1.2,0.3-2.18,0.54-2.67,0.74c0-0.03-0.03-0.06-0.07-0.1c-0.07-0.05-0.23-0.09-0.41-0.16
		c-0.37-0.14-0.9-0.37-1.43-0.64c-1.43-0.74-2.64-2.08-2.9-3.41c-0.04-0.19-0.07-0.39-0.07-0.57c0-0.49,0.15-0.94,0.43-1.26
		c-0.1-0.03-0.2-0.06-0.31-0.1C65.25,83.19,64.47,82.87,63.89,82.84"/>
	<path class="st607" d="M81.21,101.95L81.21,101.95c0.66,0.45,1.17,0.8,1.57,1.1l0,0C82.38,102.76,81.88,102.4,81.21,101.95
		L81.21,101.95 M79.28,100.7L79.28,100.7c0.4,0.25,0.8,0.51,1.2,0.77l0,0l0,0C80.08,101.21,79.68,100.96,79.28,100.7L79.28,100.7
		 M77.13,99.37L77.13,99.37c0.45,0.28,0.91,0.56,1.37,0.85l0,0l0,0C78.04,99.93,77.58,99.65,77.13,99.37L77.13,99.37 M76.5,98.99
		L76.5,98.99c0.01,0.01,0.03,0.02,0.04,0.02l0,0l0,0C76.53,99.01,76.51,99,76.5,98.99L76.5,98.99 M74.55,97.83L74.55,97.83
		c0.61,0.37,1.26,0.75,1.92,1.15l0,0l0,0C75.81,98.58,75.16,98.19,74.55,97.83L74.55,97.83 M71.37,95.98
		c0.03,0.02,0.05,0.03,0.08,0.05c0.92,0.54,1.92,1.11,2.97,1.73l0,0c-1.06-0.61-2.05-1.19-2.97-1.73l0,0
		C71.42,96.01,71.39,95.99,71.37,95.98 M69.06,94.6L69.06,94.6l0.03,0.05l0.04,0.04l0,0l0,0l-0.04-0.04L69.06,94.6L69.06,94.6
		 M67.71,93.51L67.71,93.51c0.01,0.01,0.02,0.02,0.03,0.03C67.72,93.53,67.72,93.52,67.71,93.51L67.71,93.51 M67.2,92.64L67.2,92.64
		c0,0.05,0.01,0.12,0.03,0.19c0.03,0.08,0.09,0.18,0.17,0.3c0.03,0.05,0.06,0.1,0.1,0.15l0,0c-0.04-0.05-0.08-0.1-0.1-0.15l0,0l0,0
		c-0.08-0.11-0.14-0.21-0.17-0.3l0,0C67.21,92.76,67.2,92.7,67.2,92.64 M68.15,92.42L68.15,92.42l0.02,0.03l0,0L68.15,92.42
		 M68.15,92.41C68.15,92.41,68.15,92.41,68.15,92.41L68.15,92.41C68.15,92.41,68.15,92.41,68.15,92.41 M67.31,92.36
		C67.31,92.36,67.31,92.36,67.31,92.36c0,0-0.11,0.09-0.11,0.29l0,0C67.2,92.45,67.31,92.36,67.31,92.36
		c0.28,0.04,0.56,0.07,0.86,0.09l0,0C67.87,92.42,67.59,92.39,67.31,92.36 M72.09,91.83L72.09,91.83c-0.35,0.17-0.92,0.29-1.85,0.29
		h-0.06l0,0c0,0-0.14,0.02-0.35,0.04l0,0l0,0c-0.21,0.03-0.46,0.06-0.76,0.08l0,0l0,0l0,0c0.29-0.02,0.55-0.06,0.76-0.08
		c0.21-0.03,0.35-0.04,0.35-0.04h0.06C71.17,92.13,71.74,92,72.09,91.83L72.09,91.83 M72.52,91.36c0,0.02,0,0.04-0.01,0.07l0,0
		C72.52,91.4,72.52,91.38,72.52,91.36L72.52,91.36 M72.39,91.02L72.39,91.02c0.07,0.1,0.13,0.22,0.13,0.34l0,0
		C72.52,91.24,72.46,91.12,72.39,91.02L72.39,91.02 M71.12,90.35c0,0,0.23,0.05,0.5,0.17l0,0l0,0
		C71.34,90.41,71.12,90.35,71.12,90.35"/>
	<path class="st606" d="M76.5,98.99c0.01,0.01,0.03,0.02,0.04,0.02C76.53,99.01,76.51,99,76.5,98.99
		C76.5,98.99,76.5,98.99,76.5,98.99"/>
	<path class="st606" d="M77.13,99.37c0.44,0.27,0.9,0.55,1.36,0.84c-0.05-0.03-0.11-0.07-0.16-0.1c-0.35-0.22-0.73-0.45-1.14-0.7
		C77.17,99.39,77.15,99.38,77.13,99.37"/>
	<path class="st606" d="M79.29,100.7c0.4,0.25,0.8,0.51,1.2,0.77c-0.1-0.07-0.39-0.25-0.86-0.56
		C79.52,100.85,79.41,100.78,79.29,100.7"/>
	<path class="st606" d="M82.81,100.79c-0.27,0.29-0.5,0.7-0.54,1.31c0,0.03,0,0.07,0,0.1c0,0.14,0.03,0.28,0.08,0.4
		c0,0,0.01,0.01,0.01,0.01c0.01-0.08,0.05-0.21,0.11-0.42C82.59,101.75,82.73,101.24,82.81,100.79"/>
	<path class="st606" d="M81.21,101.95c0.66,0.44,1.16,0.8,1.56,1.09l-0.09-0.06l-0.02-0.01l-0.02-0.01l-0.59-0.43l-0.69-0.47
		L81.21,101.95"/>
	<path class="st606" d="M82.63,102.94L82.63,102.94l0.02,0.02l0,0l0.03,0.02l0.08,0.05c0.02,0.02,0.05,0.04,0.07,0.05c0,0,0,0,0,0
		C82.77,103.04,82.71,102.99,82.63,102.94"/>
	<path class="st606" d="M83.1,103.28c0.05,0.04,0.11,0.08,0.16,0.12c0.02,0.02,0.04,0.03,0.06,0.04l-0.17-0.13L83.1,103.28"/>
	<path class="st606" d="M83.27,103.42c0.17,0.13,0.32,0.25,0.46,0.36l-0.08-0.06c-0.05-0.04-0.1-0.08-0.16-0.12
		C83.43,103.54,83.35,103.48,83.27,103.42"/>
	<path class="st606" d="M83.4,103.51c0.03,0.03,0.06,0.05,0.1,0.07c-0.01-0.01-0.02-0.02-0.03-0.03L83.4,103.51"/>
	<path class="st606" d="M83.89,103.9c0.09,0.07,0.17,0.14,0.25,0.21c-0.03-0.02-0.05-0.04-0.08-0.07c-0.03-0.02-0.05-0.04-0.08-0.06
		c-0.02-0.01-0.03-0.03-0.05-0.04c0,0-0.01-0.01-0.01-0.01L83.89,103.9"/>
	<path class="st606" d="M83.93,103.94c0.02,0.01,0.04,0.03,0.05,0.04c-0.01-0.01-0.02-0.02-0.04-0.03
		C83.94,103.95,83.94,103.94,83.93,103.94"/>
	<path class="st606" d="M84.06,104.05c0.03,0.02,0.05,0.05,0.08,0.07c0.03,0.03,0.07,0.06,0.1,0.09c-0.03-0.03-0.06-0.05-0.09-0.08
		c-0.02-0.02-0.04-0.03-0.06-0.05C84.08,104.06,84.07,104.05,84.06,104.05"/>
	<path class="st606" d="M84.41,104.35c0.05,0.05,0.1,0.09,0.15,0.14c0.01,0.01,0.01,0.01,0.02,0.02c-0.03-0.03-0.07-0.07-0.11-0.1
		c0,0-0.01-0.01-0.01-0.01C84.44,104.38,84.43,104.36,84.41,104.35"/>
	<path class="st606" d="M85.12,104.92l0.01,0.03c0,0.01,0.01,0.02,0.01,0.02l0.03,0.06l0.01,0.02c-0.01-0.02-0.02-0.05-0.04-0.07
		L85.12,104.92"/>
	<path class="st606" d="M85.14,104.95L85.14,104.95l0.01,0.01C85.14,104.96,85.14,104.95,85.14,104.95"/>
	<path class="st606" d="M93.23,105.39c0.02,0.6,0.06,1.21,0.13,1.85c0.08,0.72,0.25,1.43,0.37,2.25c0.13,0.82,0.23,1.75,0.24,2.8
		c0,0.03,0,0.07,0,0.1c0,0.37-0.01,0.75-0.04,1.14c0.3-0.98,0.42-1.89,0.42-2.71c0-0.21-0.01-0.42-0.02-0.62
		c-0.06-1.04-0.31-1.9-0.53-2.79C93.64,106.73,93.44,106.05,93.23,105.39"/>
	<path class="st606" d="M85.66,106.98c0.01,0.14,0.01,0.28,0.01,0.42c0,1.03-0.2,2.23-0.57,3.57c0,0-0.01,0.25-0.02,0.69
		c0.03-0.09,0.05-0.19,0.08-0.28c0.32-1.22,0.53-2.45,0.53-3.6c0-0.03,0-0.06,0-0.08l0,0l0,0c0-0.02,0-0.04,0-0.05
		C85.69,107.42,85.68,107.2,85.66,106.98"/>
	<path class="st606" d="M90.4,121.7c-0.16,0.12-0.32,0.23-0.48,0.35c0.31,0.05,0.65,0.08,1.01,0.08c0.23,0,0.47-0.01,0.73-0.04
		C91.26,121.98,90.84,121.86,90.4,121.7"/>
	<path class="st608" d="M96.66,67.33c0.42,0.03,0.81,0.2,1.01,0.43c0.66,0.72,0.85,1.69,0.85,2.73c0,0.04,0,0.08,0,0.13
		c0,0.01,0,0.02,0,0.03c0,0.71-0.04,1.43-0.04,2.13c0,0.36,0.01,0.71,0.05,1.05c0.25,0.24,0.38,0.86,0.78,0.95
		c0.4,0.08,0.66,0.33,0.88,0.6c0.45,1.15,0.81,2.25,0.91,3.4c0.06,0.55,0.09,1.1,0.09,1.66c0,0.02,0,0.04,0,0.05
		c-0.01,0.58-0.09,1.17-0.17,1.76c0.13,1.2,0.29,2.2,0.46,3.21c0.15,0.77,0.22,1.55,0.22,2.42c0,0.26-0.01,0.54-0.02,0.82
		c-0.09,0.51-0.11,0.99-0.11,1.46c0,0.59,0.04,1.15,0.05,1.72l0,0l0,0c-0.05,1.01-0.13,2.05-0.89,3.06
		c-0.39,0.69-0.68,1.3-0.86,1.91c-0.22,0.6-0.34,1.2-0.37,1.85c0,0.11,0,0.22,0,0.34c0,0.55,0.03,1.14,0.11,1.8
		c0.1,0.8,0.29,1.71,0.44,2.78c0.08,0.56,0.16,1.38,0.17,2.32l0,0l0,0c-0.01,0.93-0.03,2.02-0.08,3.12
		c-0.08,1.08-0.14,2.18-0.17,3.22c-0.06,1.06-0.31,2.34-0.46,3.34c0,1.12-0.68,2.29-1.66,3.44c-0.96,1.15-2.27,2.26-3.23,3.41
		c-0.04,0.05-0.07,0.1-0.11,0.14c0.01,0,0.01,0,0.01,0c0.97-1.13,2.29-2.24,3.28-3.39c1-1.15,1.7-2.33,1.72-3.46
		c0.16-1,0.43-2.3,0.5-3.38c0.04-1.04,0.09-2.14,0.18-3.23c0.06-1.09,0.07-2.19,0.09-3.12c0-0.01,0-0.01,0-0.02
		c0-0.93-0.08-1.75-0.16-2.31c-0.15-1.07-0.34-1.98-0.44-2.79c-0.08-0.64-0.1-1.2-0.1-1.74c0-0.14,0-0.27,0-0.4
		c0.03-0.65,0.15-1.24,0.38-1.85c0.19-0.61,0.47-1.23,0.86-1.92c0.77-1.02,0.85-2.05,0.9-3.07c0-0.58-0.05-1.15-0.04-1.75
		c0-0.46,0.03-0.94,0.11-1.44c0.02-0.26,0.02-0.52,0.02-0.77c0-2.02-0.49-3.56-0.67-5.69l0,0l0,0c0.08-0.59,0.16-1.19,0.17-1.76
		c0-0.02,0-0.04,0-0.05c0-0.56-0.03-1.11-0.09-1.66c-0.09-1.15-0.45-2.25-0.9-3.41c-0.23-0.27-0.48-0.52-0.88-0.6
		c-0.4-0.08-0.54-0.7-0.78-0.95c-0.04-0.34-0.05-0.68-0.05-1.03c0-0.7,0.05-1.42,0.05-2.13c0-0.02,0-0.03,0-0.05l0,0l0,0
		c0-0.04,0-0.09,0-0.13c0-1.04-0.19-2.02-0.85-2.74C97.56,67.52,97.11,67.33,96.66,67.33"/>
	<path class="st609" d="M96.64,67.33c-0.33,0-0.66,0.1-0.91,0.34c-1.45,1.44-2.64,2.85-3.67,4.18c-0.52,0.67-0.99,1.32-1.44,1.96
		c-0.44,0.63-0.89,1.25-1.34,1.89c-0.78,1.14-1,2.01-1.09,2.85c-0.01,0.15-0.02,0.3-0.02,0.44c0,0.26,0.02,0.51,0.04,0.76
		c0.01,0.21,0.02,0.42,0.02,0.64c0,0.19,0,0.38-0.01,0.58c0.14,0.34,0.28,0.68,0.41,1.02c0.05-0.05,0.11-0.1,0.16-0.15
		c0.75-0.72,1.41-1.63,1.41-2.37c0-0.25-0.07-0.48-0.24-0.67l0,0l0,0c0,0,0.19-0.49,0.46-1.17c0.15-0.36,0.32-0.77,0.5-1.19
		c0.17-0.43,0.35-0.88,0.55-1.32c0.59-1.29,1.27-2.52,2.09-2.52c0.29,0,0.6,0.16,0.93,0.52c0,0,0.52,0.31,1.15,0.75
		c0.61,0.44,1.3,1.04,1.68,1.49c0,0,0.07,0.24,0.18,0.67c0.1,0.43,0.22,1.06,0.37,1.8c0.16,0.74,0.27,1.62,0.36,2.57
		c0.12,0.94,0.14,1.96,0.16,2.97c0,0.13,0.01,0.25,0.01,0.38c0,0.88-0.1,1.78-0.16,2.6c-0.11,0.95-0.3,1.85-0.46,2.61
		c-0.43,1.54-0.89,2.59-1.34,2.78c0,0-0.12,0.24-0.3,0.67c-0.19,0.43-0.39,1.04-0.68,1.78c-0.14,0.37-0.29,0.77-0.43,1.19
		c-0.07,0.21-0.13,0.43-0.2,0.66c-0.08,0.22-0.16,0.45-0.24,0.69c-0.15,0.47-0.29,0.96-0.42,1.48c-0.15,0.51-0.29,1.03-0.4,1.58
		c-0.33,1.48-0.54,3.09-0.54,4.85c0,0.25,0,0.49,0.01,0.75c0.22,0.66,0.41,1.34,0.57,2.02c0.22,0.89,0.47,1.76,0.53,2.79
		c0.01,0.2,0.02,0.41,0.02,0.62c0,0.82-0.11,1.73-0.42,2.71c-0.05,0.71-0.14,1.46-0.28,2.24c-0.22,1.25-0.6,2.58-0.97,3.88
		c0,0-0.05,0.06-0.15,0.16c-0.1,0.11-0.25,0.26-0.43,0.44c-0.37,0.36-0.93,0.86-1.59,1.36c-0.04,0.03-0.08,0.06-0.12,0.09
		c0.44,0.16,0.86,0.28,1.25,0.39c0.43-0.04,0.89-0.12,1.38-0.25l0,0l0,0l0,0l0,0l0,0l0,0c0,0-0.1,0.18-0.32,0.48
		c0.56,0.12,1,0.18,1.31,0.21c0.26,0.03,0.42,0.05,0.46,0.06c0.04-0.05,0.07-0.1,0.11-0.14c0.97-1.15,2.27-2.26,3.23-3.41
		c0.98-1.15,1.66-2.32,1.66-3.44c0.15-1,0.41-2.28,0.46-3.34c0.03-1.03,0.09-2.13,0.17-3.22c0.05-1.09,0.07-2.18,0.08-3.12
		c-0.01-0.94-0.08-1.76-0.17-2.32c-0.15-1.07-0.34-1.98-0.44-2.78c-0.08-0.66-0.11-1.24-0.11-1.8c0-0.11,0-0.23,0-0.34
		c0.03-0.65,0.16-1.24,0.37-1.85c0.19-0.61,0.47-1.23,0.86-1.91c0.76-1.01,0.84-2.05,0.89-3.06c-0.01-0.57-0.05-1.13-0.05-1.72
		c0-0.47,0.02-0.96,0.11-1.46c0.01-0.28,0.02-0.55,0.02-0.82c0-0.86-0.06-1.65-0.22-2.42c-0.17-1.01-0.33-2.02-0.46-3.21l0,0l0,0
		c0.08-0.59,0.16-1.19,0.17-1.76c0-0.02,0-0.04,0-0.05c0-0.56-0.03-1.11-0.09-1.66c-0.09-1.15-0.46-2.25-0.91-3.4
		c-0.22-0.27-0.48-0.52-0.88-0.6c-0.4-0.08-0.53-0.7-0.78-0.95c-0.04-0.34-0.05-0.7-0.05-1.05c0-0.7,0.04-1.42,0.04-2.13
		c0-0.01,0-0.02,0-0.03l0,0l0,0c0-0.04,0-0.09,0-0.13c0-1.04-0.2-2.01-0.85-2.73c-0.19-0.23-0.59-0.4-1.01-0.43
		C96.65,67.33,96.65,67.33,96.64,67.33"/>
	<path class="st610" d="M93.55,72.6c-0.82,0-1.51,1.23-2.09,2.52c-0.2,0.44-0.38,0.89-0.55,1.32c-0.18,0.42-0.35,0.83-0.5,1.19
		c-0.27,0.68-0.46,1.17-0.46,1.17c0.17,0.2,0.24,0.43,0.24,0.67c0,0.74-0.67,1.65-1.41,2.37c-0.83,0.78-1.75,1.38-2.11,1.6
		c-0.1,0.06-0.15,0.09-0.15,0.09c-0.11,0.1-0.22,0.2-0.32,0.31c-0.28,0.31-0.5,0.69-0.73,1.08c-0.31,0.53-0.56,1.1-0.75,1.6
		c-0.23,0.51-0.4,0.96-0.52,1.29c-0.1,0.33-0.18,0.53-0.18,0.53c-0.54,0.17-0.74,0.57-0.74,1.13c0,0.65,0.27,1.51,0.57,2.46
		c0.02,0.03,0.04,0.06,0.06,0.1c0.12,0.2,0.26,0.42,0.4,0.65c0.13,0.23,0.24,0.48,0.36,0.75c0.12,0.27,0.24,0.55,0.36,0.84
		c0.12,0.29,0.19,0.59,0.28,0.89c0.22,0.76,0.34,1.56,0.34,2.29c0,1.5-0.5,2.7-1.63,2.7c-0.04,0-0.07,0-0.11,0l0.02,0.2
		c0.03,0.29,0.08,0.59,0.13,0.88l0.1,0.57c0.15,0.72,0.29,1.29,0.42,1.75c0.16,0.5,0.32,0.91,0.45,1.21
		c0.02,0.04,0.04,0.07,0.05,0.11c0.01,0.03,0.02,0.05,0.04,0.08l-0.01-0.03l0.03,0.06c0.01,0.02,0.02,0.05,0.04,0.07l0,0l0,0
		l-0.01-0.02l-0.03-0.06c0.01,0.03,0.03,0.05,0.04,0.08l0,0l0,0c0.01,0.01,0.02,0.03,0.02,0.04l0.17,0.29l0-0.01l0,0c0,0,0,0,0,0
		l0,0.01l0,0l0,0l0,0l0,0c0,0,0-0.01-0.01-0.01l-0.01-0.01l-0.03-0.04l-0.05-0.07c0.05,0.11,0.08,0.22,0.12,0.33
		c0.08,0.26,0.16,0.54,0.19,0.84c0.03,0.18,0.04,0.36,0.05,0.55c0.02,0.22,0.03,0.44,0.03,0.66c0,0.02,0,0.04,0,0.05
		c0,0.03,0,0.06,0,0.08c0,1.15-0.21,2.38-0.53,3.6c-0.02,0.09-0.05,0.19-0.08,0.28c-0.01,0.26-0.01,0.59-0.01,0.97
		c0,1.01,0.01,2.38,0.23,3.81c0.23,1.42,0.62,2.93,1.69,4.09c0.52,0.59,1.24,1.07,2.2,1.36c0.23,0.07,0.47,0.12,0.72,0.16
		c0.17-0.11,0.33-0.23,0.48-0.35c0.04-0.03,0.08-0.06,0.12-0.09c0.66-0.5,1.22-1,1.59-1.36c0.18-0.17,0.33-0.33,0.43-0.44
		c0.1-0.11,0.15-0.16,0.15-0.16c0.36-1.31,0.74-2.64,0.97-3.88c0.15-0.78,0.24-1.53,0.28-2.24c0.03-0.39,0.04-0.78,0.04-1.14
		c0-0.03,0-0.07,0-0.1c-0.01-1.05-0.11-1.98-0.24-2.8c-0.12-0.82-0.29-1.54-0.37-2.25c-0.07-0.63-0.12-1.25-0.13-1.85
		c-0.01-0.25-0.01-0.5-0.01-0.75c0-1.76,0.21-3.37,0.54-4.85c0.11-0.55,0.25-1.07,0.4-1.58c0.12-0.51,0.26-1.01,0.42-1.48
		c0.08-0.23,0.16-0.46,0.24-0.69c0.07-0.23,0.14-0.45,0.2-0.66c0.14-0.43,0.29-0.83,0.43-1.19c0.29-0.73,0.49-1.35,0.68-1.78
		c0.18-0.43,0.3-0.67,0.3-0.67c0.45-0.19,0.91-1.24,1.34-2.78c0.17-0.77,0.35-1.66,0.46-2.61c0.06-0.83,0.16-1.72,0.16-2.6
		c0-0.13,0-0.25-0.01-0.38c-0.02-1.01-0.03-2.03-0.16-2.97c-0.09-0.94-0.2-1.83-0.36-2.57c-0.15-0.74-0.26-1.37-0.37-1.8
		c-0.12-0.42-0.18-0.67-0.18-0.67c-0.38-0.45-1.07-1.04-1.68-1.49c-0.63-0.44-1.15-0.75-1.15-0.75
		C94.15,72.76,93.84,72.6,93.55,72.6"/>
	<path class="st610" d="M83.77,100.13c0,0-0.35,0.11-0.69,0.41c-0.09,0.07-0.18,0.15-0.27,0.25c-0.08,0.45-0.22,0.96-0.34,1.4
		c-0.07,0.21-0.1,0.34-0.11,0.42c0.04,0.06,0.08,0.13,0.14,0.19l0.1,0.09l0.05,0.04c0.07,0.05,0.14,0.1,0.21,0.15
		c0.27-0.5,0.5-0.99,0.67-1.49c0.18-0.49,0.29-0.99,0.34-1.46C83.82,100.14,83.8,100.14,83.77,100.13"/>
	<path class="st610" d="M84.17,101.8l0.04,0.2c0.11,0.59,0.25,1.1,0.39,1.54C84.46,103.09,84.32,102.52,84.17,101.8"/>
	<path class="st610" d="M83.46,103.56c0.01,0.01,0.02,0.02,0.03,0.03c0.03,0.03,0.07,0.05,0.1,0.08l-0.04-0.03L83.46,103.56"/>
	<path class="st610" d="M83.5,103.59c0.05,0.04,0.11,0.08,0.16,0.12l-0.06-0.05C83.57,103.64,83.54,103.62,83.5,103.59"/>
	<path class="st610" d="M83.95,103.95c0.01,0.01,0.02,0.02,0.04,0.03c0.02,0.01,0.04,0.03,0.05,0.04
		C84.01,104,83.98,103.97,83.95,103.95"/>
	<path class="st610" d="M83.98,103.98c0.03,0.02,0.05,0.04,0.08,0.06c0,0-0.01-0.01-0.01-0.01c0,0-0.01,0-0.01-0.01
		C84.02,104.01,84,104,83.98,103.98"/>
	<path class="st610" d="M84.05,104.03c0.01,0,0.01,0.01,0.02,0.01c0.01,0.01,0.02,0.02,0.03,0.03
		C84.08,104.06,84.06,104.05,84.05,104.03"/>
	<path class="st610" d="M84.15,104.12c0.03,0.03,0.06,0.06,0.09,0.08c0.02,0.02,0.04,0.03,0.05,0.05
		C84.25,104.21,84.2,104.16,84.15,104.12"/>
	<path class="st610" d="M84.46,104.39c0,0,0.01,0.01,0.01,0.01C84.47,104.4,84.47,104.4,84.46,104.39
		C84.46,104.39,84.46,104.39,84.46,104.39"/>
	<path class="st610" d="M85.05,104.76c0.06,0.14,0.12,0.25,0.17,0.35l-0.03-0.05l-0.01-0.01l0,0c-0.01-0.03-0.03-0.06-0.04-0.09
		l0-0.01l0-0.01c-0.01-0.03-0.03-0.06-0.04-0.08C85.08,104.83,85.07,104.8,85.05,104.76"/>
	<polyline class="st610" points="85.19,105.05 85.19,105.05 85.19,105.06 85.19,105.05 	"/>
	<path class="st610" d="M85.2,105.08l0.01,0.01l0,0C85.21,105.09,85.21,105.08,85.2,105.08"/>
	<path class="st610" d="M85.22,105.11l0.06,0.11c0,0.01,0.01,0.02,0.01,0.03c0.03,0.03,0.05,0.06,0.06,0.08c0,0,0,0,0,0.01
		C85.32,105.3,85.28,105.22,85.22,105.11"/>
	<path class="st610" d="M85.28,105.24l0.01,0.02c0,0,0,0,0,0C85.28,105.25,85.28,105.24,85.28,105.24"/>
	<path class="st610" d="M85.29,105.25C85.29,105.25,85.29,105.25,85.29,105.25c0.03,0.04,0.05,0.06,0.06,0.08
		C85.33,105.31,85.31,105.29,85.29,105.25"/>
	<polyline class="st610" points="85.37,105.36 85.38,105.38 85.38,105.37 85.37,105.36 	"/>
	<polyline class="st610" points="85.38,105.38 85.38,105.39 85.38,105.38 85.38,105.38 	"/>
	<path class="st611" d="M83.02,90.78c0,0,0.1,0.12,0.27,0.33c0.03,0.04,0.06,0.08,0.1,0.13c0-0.01,0-0.01,0-0.02
		C83.39,91.07,83.28,90.92,83.02,90.78"/>
	<path class="st611" d="M85.22,105.11L85.22,105.11L85.22,105.11L85.22,105.11 M83.39,91.24c-0.01,0.27-0.35,0.53-0.74,0.73
		c-0.31,0.16-0.66,0.29-0.94,0.37c-0.27,0.08-0.48,0.12-0.48,0.12c0.05,0.09,0.08,0.18,0.08,0.28c0,0.27-0.18,0.56-0.47,0.83
		c-0.42,0.37-1.08,0.7-1.72,0.95c-0.67,0.24-1.38,0.4-1.89,0.49c-0.5,0.09-0.87,0.12-0.87,0.12c-0.39-0.05-0.72-0.07-1-0.07
		c-1.06,0-1.3,0.32-1.3,0.75c0,0.02,0,0.04,0,0.06c0.04,0.28,0.19,0.61,0.29,0.86c0.12,0.25,0.24,0.44,0.24,0.44
		c1.1,0.92,1.56,1.61,1.87,1.81c0.01,0.01,0.02,0.01,0.03,0.02c0,0,0,0,0,0c0.01,0.01,0.03,0.02,0.04,0.02
		c0.19,0.11,0.38,0.23,0.57,0.34l0,0c0.01,0,0.01,0.01,0.02,0.01c0.02,0.01,0.03,0.02,0.05,0.03c0.41,0.26,0.79,0.49,1.14,0.7
		c0.06,0.03,0.11,0.07,0.16,0.1c0.19,0.12,0.38,0.24,0.58,0.36l0,0l0,0c0.07,0.05,0.14,0.09,0.22,0.14
		c0.12,0.08,0.23,0.15,0.34,0.21c0.48,0.31,0.76,0.49,0.86,0.56c0.02,0.01,0.04,0.03,0.07,0.04l0,0c0.03,0.02,0.07,0.04,0.1,0.07
		c0.2,0.13,0.38,0.25,0.56,0.37l0.16,0.11l0.69,0.47l0.59,0.43l-0.01-0.01l-0.01-0.01l-0.05-0.04l-0.1-0.09
		c-0.06-0.06-0.1-0.13-0.14-0.19c0,0-0.01-0.01-0.01-0.01c-0.06-0.12-0.08-0.25-0.08-0.4c0-0.03,0-0.07,0-0.1
		c0.04-0.61,0.27-1.02,0.54-1.31c0.09-0.09,0.18-0.17,0.27-0.25c0.34-0.3,0.69-0.41,0.69-0.41c0.03,0,0.06,0.01,0.08,0.01l0,0l0,0
		c-0.04,0.47-0.15,0.96-0.34,1.46c-0.18,0.49-0.41,0.99-0.67,1.49c-0.02-0.02-0.05-0.04-0.07-0.05l-0.08-0.05l0.09,0.06
		c0.18,0.13,0.34,0.25,0.48,0.36c-0.05-0.04-0.1-0.08-0.16-0.12l0,0l0,0l0.05,0.04l0.17,0.13c0.03,0.02,0.06,0.05,0.09,0.07
		l0.06,0.05l0.1,0.07l0.04,0.03c0.03,0.02,0.05,0.04,0.08,0.06l0,0c0.09,0.07,0.17,0.14,0.25,0.21c0.01,0,0.01,0.01,0.02,0.01
		c0.03,0.02,0.06,0.05,0.09,0.07c0,0,0,0,0.01,0c0,0,0,0,0,0c0.02,0.01,0.03,0.03,0.05,0.04c0.02,0.02,0.04,0.03,0.06,0.05
		c0.05,0.04,0.1,0.09,0.15,0.13l0,0l0,0c-0.02-0.02-0.04-0.03-0.05-0.05c-0.03-0.03-0.07-0.06-0.1-0.09
		c0.02,0.02,0.04,0.03,0.05,0.05c0.04,0.04,0.08,0.07,0.12,0.11l0,0l0,0c0.13,0.11,0.23,0.21,0.29,0.26l0,0c0,0,0,0,0,0
		c0.01,0.02,0.14,0.13,0.33,0.32l0,0c0.08,0.08,0.16,0.17,0.23,0.25c0.04,0.05,0.09,0.1,0.12,0.14c0-0.01-0.01-0.02-0.01-0.03
		l-0.06-0.11c-0.05-0.09-0.11-0.21-0.17-0.35c-0.04-0.09-0.09-0.19-0.13-0.29l0,0c-0.11-0.26-0.22-0.56-0.33-0.93
		c-0.14-0.44-0.27-0.95-0.39-1.54l-0.04-0.2c-0.01-0.04-0.02-0.08-0.02-0.12l0,0l0,0c0.01,0.04,0.02,0.08,0.02,0.12l-0.1-0.57
		c-0.05-0.29-0.1-0.59-0.13-0.88l-0.02-0.2l0,0c0.04,0,0.07,0,0.11,0c1.13,0,1.63-1.2,1.63-2.7c0-0.73-0.12-1.53-0.34-2.29
		c-0.09-0.31-0.16-0.6-0.28-0.89c-0.12-0.29-0.24-0.57-0.36-0.84c-0.12-0.27-0.24-0.52-0.36-0.75c-0.14-0.23-0.27-0.45-0.4-0.65
		c-0.02-0.03-0.04-0.06-0.06-0.1C83.67,91.65,83.52,91.42,83.39,91.24 M83.39,91.24L83.39,91.24L83.39,91.24L83.39,91.24
		L83.39,91.24"/>
	<path class="st611" d="M76.47,98.97c0.01,0.01,0.02,0.01,0.03,0.02C76.49,98.99,76.48,98.98,76.47,98.97"/>
	<path class="st611" d="M76.54,99.02c0.21,0.13,0.41,0.24,0.59,0.35c-0.01,0-0.01-0.01-0.02-0.01l0,0
		C76.92,99.24,76.73,99.13,76.54,99.02"/>
	<path class="st611" d="M78.51,100.22c0.29,0.18,0.55,0.34,0.78,0.48c-0.07-0.05-0.14-0.09-0.21-0.14l0,0l0,0
		C78.88,100.45,78.69,100.33,78.51,100.22"/>
	<path class="st611" d="M80.49,101.47c0.03,0.02,0.04,0.03,0.04,0.03l0.68,0.45c-0.17-0.12-0.36-0.24-0.56-0.37
		c-0.03-0.02-0.07-0.04-0.1-0.07l0,0C80.53,101.5,80.51,101.49,80.49,101.47"/>
	<polyline class="st611" points="82.66,102.96 82.67,102.97 82.69,102.98 82.66,102.96 82.66,102.96 	"/>
	<path class="st611" d="M85.29,105.26L85.29,105.26L85.29,105.26 M84.58,104.5c-0.01-0.01-0.01-0.01-0.02-0.02
		c-0.05-0.04-0.1-0.09-0.15-0.14l0,0l0,0c0.02,0.02,0.03,0.03,0.05,0.04c0,0,0,0,0,0C84.5,104.43,84.54,104.47,84.58,104.5
		L84.58,104.5L84.58,104.5 M82.79,103.05l0.05,0.04l0,0c-0.34,0.63-0.74,1.27-1.15,1.89c-0.74,1.11-1.55,2.19-2.28,3.19
		c-0.73,1.03-1.39,1.95-1.95,2.72c-1.15,1.57-2.01,2.55-2.01,2.55c-0.69,0.8-1.04,1.79-1.04,2.89c0,0.27,0.02,0.54,0.06,0.82
		c0.19,1.41,0.92,2.93,1.71,4.25c0.4,0.67,0.79,1.28,1.16,1.84c0.37,0.56,0.66,1.05,0.99,1.46c0.64,0.83,1.21,1.34,1.21,1.34
		c0.66,1.61,1.75,2.32,3.15,2.41c0.1,0.01,0.2,0.01,0.31,0.01c1.32,0,2.88-0.53,4.38-1.38c1.61-0.9,3.12-2.19,4.13-3.3
		c0.49-0.54,0.88-1.04,1.13-1.39c0.25-0.35,0.37-0.56,0.37-0.56c-0.78,0.2-1.48,0.28-2.11,0.28c-0.66,0-1.23-0.09-1.73-0.24
		c-0.97-0.29-1.68-0.78-2.2-1.36c-1.07-1.16-1.46-2.67-1.69-4.09c-0.21-1.43-0.22-2.8-0.23-3.81l0,0l0,0c0-0.38,0.01-0.71,0.01-0.97
		c0.01-0.43,0.02-0.69,0.02-0.69c0.37-1.34,0.57-2.54,0.57-3.57c0-0.14,0-0.28-0.01-0.42c-0.01-0.19-0.03-0.37-0.05-0.55
		c-0.03-0.3-0.11-0.59-0.19-0.84c-0.04-0.12-0.07-0.23-0.12-0.33l-0.01-0.02l0,0c0,0.01,0.01,0.01,0.01,0.02c0,0,0,0,0,0
		c-0.03-0.04-0.07-0.09-0.12-0.14c-0.07-0.08-0.15-0.17-0.23-0.25l0,0c-0.19-0.2-0.31-0.31-0.33-0.32c0,0,0,0,0,0l0,0
		c-0.06-0.06-0.16-0.15-0.29-0.26l0,0l0,0c-0.04-0.03-0.08-0.07-0.12-0.11c-0.02-0.02-0.04-0.03-0.06-0.05
		c-0.08-0.07-0.16-0.14-0.25-0.21l0,0l0,0l0.03,0.02c0,0,0.01,0.01,0.01,0.01c-0.08-0.07-0.17-0.14-0.25-0.21l0,0
		c-0.03-0.02-0.05-0.04-0.08-0.06l0.14,0.11l0,0c-0.14-0.11-0.29-0.23-0.46-0.36C83.13,103.31,82.97,103.18,82.79,103.05"/>
	<path class="st611" d="M84.04,104.02C84.04,104.03,84.04,104.03,84.04,104.02C84.05,104.03,84.04,104.03,84.04,104.02
		C84.04,104.03,84.04,104.03,84.04,104.02 M84.6,103.55c0.11,0.37,0.22,0.67,0.33,0.93l0,0c0.04,0.09,0.08,0.2,0.13,0.29
		C84.91,104.46,84.75,104.05,84.6,103.55"/>
	<polyline class="st611" points="85.18,105.04 85.19,105.05 85.19,105.05 85.19,105.05 85.18,105.04 	"/>
	<polyline class="st611" points="85.19,105.05 85.19,105.05 85.19,105.05 85.19,105.05 	"/>
	<path class="st611" d="M85.19,105.05l0.03,0.05c0.06,0.11,0.11,0.19,0.14,0.23l0,0l0,0c0,0,0,0,0-0.01c0,0,0,0,0,0.01l0,0
		l0.01,0.02l0.01,0.01c-0.05-0.08-0.09-0.16-0.14-0.24c-0.01-0.01-0.01-0.02-0.02-0.03l0,0l-0.01-0.01
		C85.2,105.07,85.2,105.07,85.19,105.05L85.19,105.05"/>
	<path class="st611" d="M85.21,105.1c0.01,0.01,0.01,0.02,0.02,0.03c0.05,0.08,0.1,0.16,0.14,0.24l0,0l0,0.01L85.21,105.1"/>
	<path class="st611" d="M85.29,105.25C85.29,105.26,85.29,105.26,85.29,105.25l0.06,0.07l0.03,0.04l-0.01-0.02l0,0c0,0,0,0,0-0.01
		C85.33,105.32,85.31,105.29,85.29,105.25"/>
	<path class="st612" d="M65.68,81.6c-0.27,0-0.52,0.04-0.78,0.08c-0.26,0.04-0.53,0.08-0.83,0.08c-0.15,0-0.3-0.01-0.46-0.03
		c-0.45-0.01-0.93-0.04-1.42-0.04c-0.65,0-1.32,0.06-1.94,0.31c-0.67,0.35-1.16,0.77-1.57,1.35c-0.9,0.97-1.59,2.13-2.02,3.39
		c-0.21,0.62-0.36,1.3-0.43,1.94c-0.04,0.37-0.06,0.73-0.06,1.09c0,0.26,0.01,0.53,0.04,0.79c0.69,0.45,0.83,0.99,0.83,1.57
		c0,0.01,0,0.03,0,0.04c-0.01,0.47-0.11,0.97-0.11,1.41c0,0.12,0.01,0.23,0.02,0.34c0,0,0,0.01,0,0.02c0,0.32-0.22,0.66-0.32,1.07
		c0.05,0.66,0.47,1.19,0.47,1.76c0,0.25-0.08,0.5-0.31,0.77c-1.75,1.86-3.15,3.79-4.15,5.72c-0.41,0.78-0.92,2.65-1.11,4.72
		c-0.07,0.65-0.1,1.31-0.1,1.95c0,1.38,0.14,2.61,0.32,3.2c0.26,1.19,0.95,2.15,1.74,3.05c0.78,0.91,1.65,1.76,2.31,2.82
		c0,0,0,0.01,0,0.01c0,0.04-0.17,0.11-0.46,0.14c0.2,0.21,0.4,0.42,0.62,0.63c0.24,0.02,0.94,0.31,1.19,0.32
		c0.39,0.52,0.56,1.04,0.78,1.87c0.11,1.5,0.79,3.12,2.13,4.81c0.66,0.84,1.49,1.68,2.45,2.5c0.97,0.82,2.06,1.58,3.07,2.23
		c2.02,1.3,3.87,2.25,5.32,3.11c1.46,0.86,2.61,1.66,3.4,2.59c0.36,0.31,0.8,0.69,1.2,0.97c0.21,0.14,0.41,0.26,0.59,0.33
		c0.14,0.06,0.34,0.1,0.54,0.1c0.05,0,0.09,0,0.14-0.01c0.2-0.04,0.43-0.05,0.67-0.05c0.12,0,0.24,0,0.37,0.01
		c0.13,0,0.26,0.01,0.39,0.01c0.45,0,0.93-0.03,1.36-0.21c1.68-1,3.52-2.64,5.41-4.05c-0.18,0-0.35,0-0.53,0
		c-2.17,0-3.91-0.17-5.34-0.34c-0.34,0.09-0.69,0.14-1.04,0.14c-0.4,0-0.79-0.06-1.13-0.18c-0.57-0.2-1.2-0.62-1.89-1.23
		c-0.84-0.46-1.49-2.45-1.65-4.11l0,0l0,0c0.01-0.6,0.51-1.23,0.52-1.83c-0.11-1.68-0.85-2.95-0.85-4.54c0-0.53,0.08-1.1,0.3-1.73
		c0.09-0.19,0.13-0.41,0.13-0.65c0-0.83-0.5-1.86-0.97-2.43c-0.29-0.26-1.32-0.18-3.06-0.36c-1.71-0.17-3.88-0.62-5.76-1.13
		c-0.95-0.25-1.8-0.47-2.63-0.72c-0.83-0.25-1.6-0.52-2.28-0.78c-1.34-0.52-2.27-1-2.43-1.19c-0.11-0.09-0.28-0.11-0.46-0.11
		c-0.1,0-0.21,0.01-0.32,0.01c-0.11,0.01-0.22,0.01-0.32,0.01c-0.2,0-0.37-0.02-0.49-0.12c-0.23-0.46-0.32-0.94-0.32-1.44
		c0-1.14,0.49-2.34,0.92-3.48c0.13-0.41,0.18-0.88,0.18-1.35c0-0.72-0.11-1.46-0.22-2.11c-0.16-0.92-0.35-1.66-0.35-1.9
		c0-0.04,0.01-0.07,0.02-0.08c1.65-0.43,3.53-1.3,5.04-1.3c0.15,0,0.29,0.01,0.43,0.03c0.01,0,0.02,0,0.02,0
		c0.21,0,0.69-0.29,1.03-0.43c0.44-0.27,0.97-0.8,0.97-0.94c0,0,0-0.01,0-0.01l0,0l0,0c0.05,0.04,0.09,0.06,0.12,0.06
		c0.08,0,0.12-0.11,0.12-0.28c0-0.35-0.14-0.98-0.33-1.59c-0.26-0.83-0.59-1.65-0.87-1.65c-0.08,0-0.15,0.07-0.21,0.21l0,0l0,0
		c0.05-0.14,0.07-0.27,0.07-0.4c0-0.55-0.44-0.94-0.97-1.37c-0.65-0.52-1.44-1.12-1.62-1.98c-0.04-0.14-0.06-0.29-0.06-0.45
		c0-0.52,0.2-1.07,0.39-1.59c0.16-0.43,0.3-0.83,0.3-1.24c0-0.23-0.05-0.47-0.16-0.71c-0.17-0.52-0.38-1.14-0.38-1.67
		c0-0.52,0.2-0.96,0.82-1.17c0.79-0.32,1.36-0.53,1.83-0.88c0.34-0.51,0.59-1.07,0.91-1.56c0.34-0.48,0.77-0.86,1.44-0.89
		c0.59,0.03,1.36,0.35,1.99,0.57c0.29,0.1,0.54,0.17,0.74,0.17c0.23,0,0.39-0.1,0.46-0.39c0.06-0.38,0.54-0.41,0.54-0.75
		c0-0.05-0.01-0.11-0.04-0.18l0,0c-0.32-0.11-0.78-0.47-1.26-0.57C66.09,81.63,65.88,81.6,65.68,81.6"/>
	<path class="st613" d="M71.62,90.52c0.27,0.11,0.63,0.29,0.77,0.5C72.25,90.8,71.89,90.63,71.62,90.52"/>
	<path class="st613" d="M69.83,92.17c-0.21,0.03-0.46,0.06-0.76,0.08C69.37,92.23,69.62,92.2,69.83,92.17 M70.19,92.13
		c0,0-0.14,0.02-0.35,0.04C70.05,92.14,70.19,92.13,70.19,92.13L70.19,92.13 M72.52,91.36L72.52,91.36L72.52,91.36L72.52,91.36
		L72.52,91.36"/>
	<path class="st613" d="M69.08,92.25c-0.5,0.04-0.91,0.08-0.93,0.16C68.17,92.33,68.58,92.3,69.08,92.25"/>
	<path class="st614" d="M67.31,92.36c0,0-0.11,0.09-0.11,0.29l0,0C67.2,92.45,67.31,92.36,67.31,92.36
		C67.31,92.36,67.31,92.36,67.31,92.36c0.28,0.04,0.56,0.07,0.86,0.09l0,0C67.87,92.42,67.59,92.39,67.31,92.36"/>
	<path class="st613" d="M68.16,92.45L68.16,92.45L68.16,92.45L68.16,92.45 M67.31,92.36c0,0-0.11,0.09-0.11,0.29l0,0
		C67.2,92.45,67.31,92.36,67.31,92.36"/>
	<path class="st613" d="M67.4,93.13c0.03,0.05,0.06,0.1,0.1,0.15C67.47,93.23,67.43,93.18,67.4,93.13 M67.23,92.83
		c0.03,0.08,0.09,0.18,0.17,0.3C67.33,93.01,67.26,92.92,67.23,92.83 M67.2,92.64L67.2,92.64L67.2,92.64L67.2,92.64L67.2,92.64
		L67.2,92.64"/>
	<path class="st613" d="M67.51,93.28c0.05,0.07,0.12,0.15,0.2,0.23C67.63,93.43,67.56,93.35,67.51,93.28"/>
	<path class="st613" d="M67.73,93.54c0.28,0.28,0.7,0.64,1.33,1.06C68.43,94.18,68.01,93.82,67.73,93.54"/>
	<path class="st613" d="M69.13,94.69c0.66,0.38,1.41,0.82,2.23,1.29C70.55,95.5,69.8,95.07,69.13,94.69"/>
	<path class="st613" d="M71.45,96.02c0.92,0.54,1.92,1.11,2.97,1.73C73.36,97.14,72.36,96.56,71.45,96.02"/>
	<path class="st613" d="M77.11,99.36c0.01,0,0.01,0.01,0.02,0.01c0.45,0.28,0.91,0.56,1.37,0.85c0.19,0.11,0.37,0.23,0.56,0.35
		c-0.19-0.12-0.39-0.24-0.58-0.36c-0.46-0.28-0.92-0.56-1.36-0.84C77.13,99.37,77.12,99.36,77.11,99.36"/>
	<path class="st613" d="M79.07,100.56c0.07,0.05,0.14,0.09,0.21,0.14c0.4,0.25,0.8,0.51,1.2,0.77c0.02,0.01,0.04,0.03,0.07,0.04
		c-0.02-0.01-0.04-0.03-0.07-0.04c-0.4-0.26-0.81-0.52-1.2-0.77C79.22,100.66,79.14,100.61,79.07,100.56"/>
	<path class="st613" d="M80.65,101.58c0.2,0.13,0.38,0.25,0.56,0.37c0.66,0.45,1.17,0.8,1.57,1.1c0.18,0.13,0.34,0.25,0.49,0.36
		c0.08,0.06,0.16,0.12,0.23,0.18c0.03,0.03,0.07,0.05,0.1,0.08c0.03,0.02,0.05,0.04,0.08,0.06c-0.03-0.02-0.05-0.04-0.08-0.06
		c-0.03-0.03-0.07-0.05-0.1-0.08c-0.03-0.02-0.06-0.05-0.1-0.07c-0.03-0.02-0.06-0.04-0.09-0.07c-0.02-0.01-0.04-0.03-0.06-0.04
		c-0.14-0.11-0.3-0.23-0.48-0.36c-0.4-0.29-0.9-0.65-1.56-1.09C81.04,101.83,80.85,101.71,80.65,101.58"/>
	<path class="st613" d="M84.15,101.68c0.01,0.04,0.02,0.08,0.02,0.12c0.15,0.72,0.28,1.28,0.42,1.74c0.11,0.37,0.22,0.67,0.33,0.93
		c-0.11-0.26-0.22-0.56-0.33-0.93c-0.14-0.46-0.28-1.02-0.42-1.75C84.17,101.76,84.16,101.72,84.15,101.68"/>
	<path class="st613" d="M84.04,104.03C84.04,104.03,84.05,104.03,84.04,104.03c0.03,0.03,0.07,0.06,0.1,0.08
		c0.02,0.02,0.04,0.03,0.06,0.05c-0.02-0.02-0.04-0.03-0.05-0.05c-0.03-0.02-0.05-0.05-0.08-0.07
		C84.06,104.04,84.05,104.04,84.04,104.03C84.05,104.03,84.04,104.03,84.04,104.03"/>
	<path class="st613" d="M84.2,104.16c0.04,0.04,0.08,0.07,0.12,0.11C84.28,104.23,84.24,104.2,84.2,104.16"/>
	<path class="st613" d="M84.32,104.27c0.13,0.11,0.23,0.21,0.29,0.26C84.55,104.47,84.45,104.38,84.32,104.27"/>
	<path class="st613" d="M85.1,104.86c0.01,0.03,0.02,0.06,0.04,0.08c0,0,0,0.01,0.01,0.01c0.01,0.03,0.03,0.06,0.04,0.09
		c0,0,0,0,0,0.01c0,0,0,0,0,0.01c0,0.01,0.01,0.01,0.01,0.02c0,0.01,0.01,0.01,0.01,0.02c0.01,0.01,0.01,0.02,0.02,0.03
		c-0.01-0.01-0.01-0.02-0.02-0.03c-0.01-0.01-0.02-0.03-0.02-0.04c0,0,0,0,0,0c-0.01-0.03-0.03-0.05-0.04-0.08
		c0-0.01-0.01-0.02-0.01-0.02C85.12,104.92,85.11,104.89,85.1,104.86 M84.92,104.47c0.04,0.1,0.08,0.2,0.13,0.29
		c0.02,0.04,0.03,0.07,0.05,0.1C85.04,104.75,84.97,104.61,84.92,104.47"/>
	<path class="st613" d="M84.61,104.53c0.01,0.02,0.14,0.13,0.33,0.32C84.75,104.66,84.62,104.55,84.61,104.53"/>
	<path class="st613" d="M84.94,104.86c0.08,0.08,0.16,0.17,0.23,0.25C85.1,105.03,85.02,104.94,84.94,104.86"/>
	<path class="st613" d="M85.17,105.11c0.04,0.05,0.09,0.1,0.12,0.14c0.03,0.03,0.05,0.06,0.06,0.08c0,0,0,0,0,0.01c0,0,0,0,0-0.01
		c-0.02-0.02-0.04-0.05-0.06-0.08C85.25,105.21,85.21,105.16,85.17,105.11"/>
	<path class="st615" d="M61.81,79.07c-0.03,0-0.07,0-0.11,0c-2.12,0.08-4.33,0.88-6.13,2.36c-1.81,1.47-3.21,3.62-3.76,6.14
		c-0.03,0.13-0.04,0.26-0.04,0.39c0,0.79,0.53,1.43,0.77,2.1c0.4,0.88,0.4,1.84,0.56,2.75c0.15,0.91,0.45,1.78,1.37,2.32
		c0.17,0.08,0.24,0.26,0.24,0.45c0,0.1-0.02,0.2-0.05,0.29c-1.98,2.95-3.4,5.88-4.82,8.71c-0.51,0.91-0.89,2.82-0.93,4.84
		c-0.01,0.2-0.01,0.41-0.01,0.61c0,1.81,0.27,3.58,0.44,4.22c0.5,1.38,1.22,2.43,1.98,3.18c0.75,0.75,1.54,1.2,2.21,1.44
		c0.6,0.22,1.11,0.28,1.5,0.28c0.48,0,0.76-0.1,0.76-0.15c0,0,0-0.01,0-0.01c-0.66-1.06-1.53-1.91-2.31-2.82
		c-0.79-0.91-1.48-1.87-1.74-3.05c-0.18-0.59-0.32-1.83-0.32-3.2c0-0.64,0.03-1.3,0.1-1.95c0.19-2.07,0.7-3.94,1.11-4.72
		c0.99-1.93,2.39-3.86,4.15-5.72c0.23-0.27,0.31-0.52,0.31-0.77c0-0.56-0.42-1.09-0.47-1.76l0,0l0,0c0.1-0.41,0.32-0.76,0.32-1.07
		c0-0.01,0-0.01,0-0.02c-0.02-0.11-0.02-0.22-0.02-0.34c0-0.44,0.1-0.93,0.11-1.41c0-0.01,0-0.03,0-0.04c0-0.58-0.15-1.13-0.83-1.57
		c-0.02-0.26-0.04-0.52-0.04-0.79c0-0.36,0.02-0.73,0.06-1.09c0.07-0.64,0.22-1.32,0.43-1.94c0.43-1.26,1.12-2.42,2.02-3.39
		c0.41-0.58,0.9-1.01,1.57-1.35c0.63-0.25,1.29-0.31,1.94-0.31c0.49,0,0.97,0.03,1.42,0.04c0.16,0.02,0.32,0.03,0.46,0.03
		c0.3,0,0.57-0.04,0.83-0.08c0.26-0.04,0.52-0.08,0.78-0.08c0.2,0,0.41,0.02,0.64,0.09c0.48,0.09,0.93,0.46,1.26,0.57l0,0
		c0.08-0.17,0.37-0.19,0.37-0.37c0-0.04-0.02-0.09-0.06-0.16c-0.2-0.46-0.65-0.73-1-1.02C65.39,79.89,63.6,79.07,61.81,79.07"/>
	<path class="st428" d="M105.26,50.77L105.26,50.77c-0.32,0.47-1.76,1.39-1.79,1.41c0,0,0,0,0,0l0,0c-0.09,0.03-0.17,0.07-0.25,0.1
		l0,0c0.08-0.03,0.17-0.07,0.25-0.1C103.48,52.18,104.94,51.24,105.26,50.77 M106.1,50.09L106.1,50.09l-0.03,0.02l0,0L106.1,50.09
		L106.1,50.09 M106.12,49.81c0,0.01,0,0.01,0,0.02C106.12,49.82,106.12,49.82,106.12,49.81L106.12,49.81 M105.91,49L105.91,49
		c0.17,0.31,0.21,0.61,0.21,0.82l0,0C106.12,49.6,106.09,49.3,105.91,49 M103.59,47.87L103.59,47.87c0.41,0.04,0.76,0.1,1.05,0.2
		l0,0C104.34,47.98,104,47.91,103.59,47.87 M102.85,46.74l-0.01,0.04l0,0l0,0L102.85,46.74L102.85,46.74 M99.19,45.35L99.19,45.35
		c3.43,0.62,3.66,1.24,3.66,1.39l0,0C102.85,46.59,102.62,45.96,99.19,45.35"/>
	<path class="st616" d="M78.53,28.34c-0.88,0-0.64,0.62-1.03,0.95c-0.21,0.05-0.47,0.06-0.79,0.06c-0.21,0-0.46-0.01-0.74-0.02
		c-0.06,0-0.12-0.01-0.17-0.01c-0.37,0-0.5,0.1-0.5,0.26c0,0.21,0.25,0.52,0.39,0.78c0.08,0.09,0.12,0.17,0.12,0.25
		c0,0.43-1.21,0.58-1.21,1.05c0,0,0,0,0,0.01l0,0l0,0c0,0.02,0,0.03,0,0.05c0,0.56,1.38,1.22,1.38,1.64c0,0.11-0.09,0.2-0.3,0.27
		c0.07-0.02,0.13-0.03,0.18-0.03c0.2,0,0.28,0.14,0.28,0.34c0,0.14-0.04,0.31-0.1,0.47c-0.13,0.36-0.38,0.72-0.59,0.72
		c-0.05,0-0.09-0.02-0.13-0.06c-0.04,0.05-0.65,0.1-1.16,0.1c-0.05,0-0.09,0-0.14,0c-0.37-0.04-0.96-0.05-1.13-0.11
		c-1.31-0.47-3.61-0.64-5.44-0.94c-0.23,0.04-0.64,1.54-2.25,2.06c-1.36,0.38-2.9,0.78-3.15,1.34c0.12,0.15,1.05,0.23,1.17,0.37
		c0.02,0.18,1.89,1.23,3.71,2.12c1.68,0.84,3.31,1.58,3.31,1.84c0,0.02-0.01,0.04-0.03,0.05c-0.48,0.23-1.73,0.55-2.65,0.55
		c-0.02,0-0.05,0-0.07,0c-2.65,0.06-3.81,0.5-5.99,0.72c-0.22,0.02-0.46,0.02-0.71,0.02c-0.08,0-0.16,0-0.23,0
		c-0.07,0-0.15,0-0.22,0c-0.25,0-0.5,0-0.73,0.02c-1.59,0.18-3.43,0.48-3.76,0.74c-0.65,0.3-1,0.62-1,0.91
		c0,0.15,0.09,0.29,0.29,0.41l0,0l0,0l-0.05,0.78c0.58,0.21,1.3,0.4,2.12,0.58c1.15,0.29,2,0.34,2.01,0.47
		c0,0.02-0.02,0.04-0.05,0.06c0,0,0,0,0,0c0,0.04,0.85,0.06,1.92,0.14c1.06,0.07,2.33,0.18,3.24,0.39c0.05-0.01,0.4-0.09,1-0.24
		c-1.06-0.19-4.46-0.86-4.46-1.63c0-0.32,0.58-0.66,2.17-0.99c0,0,5.85-2.66,10.44-2.66c0.46,0,0.92,0.03,1.35,0.09
		c0,0,18.43,2.53,19.63,5.5c0,0,0.01,0.32,2.93,0.8c0,0,1.2,0.57,1.2,1.21c0,0.39-0.45,0.82-1.92,1.15c0,0-4.24,1.86-4.24,2.83
		c0,0.1,0.04,0.19,0.14,0.26l0,0l0,0c0,0-2.03,0.57-2.02,1.02c0,0,0,0,0,0c0.24,0.18,0.39,0.28,0.39,0.28l0,0l0,0
		c-0.27-0.08-0.38-0.18-0.39-0.28c-0.13-0.1-0.29-0.22-0.47-0.36c0.36,0.54,0.61,1.05,0.61,1.46c0,0.38-0.22,0.66-0.79,0.76
		c0,0-1.12,1.76-2.9,2.47c2-0.56,4.82-1.07,7.6-1.5c3.56-0.51,9.08-1.02,9.08-1.85c0-0.02,0-0.04-0.01-0.06
		c-0.44-0.75-2.2-1.39-2.32-2.13c0,0.01,0,0.03,0,0.04l0,0c0,0.82,1.46,1.36,1.49,1.37c0,0,0,0,0,0s0,0,0,0l0,0l0,0c0,0,0,0,0,0
		s0,0,0,0c-0.03-0.01-1.49-0.55-1.49-1.37l0,0l0,0l0,0l0,0l0,0l0,0l0,0l0,0l0,0c0-0.01,0-0.03,0-0.04c0-0.03-0.01-0.05-0.01-0.08
		c0-0.18,0.11-0.38,0.36-0.58c0.02-0.02,0.04-0.03,0.06-0.05c0.29-0.27,0.76-0.55,1.46-0.84c0.82-0.48,1.51-0.93,1.91-1.44
		c0.04-0.02,0.08-0.04,0.13-0.07c0.04-0.06,0.06-0.11,0.06-0.15l-0.03-0.07l0.77-0.43c-0.2-0.35-0.08-0.75-0.16-1.12
		c-0.2-0.35-0.58-0.71-1.28-0.93c-0.28-0.07-0.63-0.14-1.05-0.2c-0.04,0-0.07-0.01-0.11-0.01c0,0,0,0,0,0c0,0,0,0,0,0
		c0,0,0,0-0.01,0c-0.03,0-0.05-0.01-0.08-0.01c-0.24-0.17-0.38-0.34-0.46-0.49c-0.13-0.15-0.23-0.3-0.23-0.41l0,0l0,0l0,0l0,0l0,0
		l0,0l0,0l0,0l0,0c0-0.05,0.02-0.09,0.06-0.12c-0.09-0.36-0.28-0.67-1.63-1.02c-0.64-0.15-1.29-0.3-1.94-0.46
		c-0.18-0.03-0.37-0.06-0.56-0.1c0.2,0.03,0.39,0.06,0.56,0.1l0,0c-0.18-0.03-0.37-0.06-0.56-0.1c0.2,0.03,0.39,0.06,0.56,0.1
		c-2.69-0.64-5.24-1.32-5.98-2.17c-0.33-0.33-0.5-0.65-0.5-0.98c0-0.27,0.12-0.54,0.36-0.82c0.12-0.2,3.42-1.06,4.5-1.27
		c0.7-0.16,0.98-0.31,0.98-0.46c0-0.27-0.9-0.51-1.84-0.69c-1.43-0.21-2.62-0.43-3.63-0.7c-1-0.24-1.83-0.53-2.54-0.82
		c-0.02-0.02-0.03-0.04-0.03-0.06c0-0.18,0.76-0.32,0.77-0.5c-0.48-0.48-2.79-0.97-3.87-1.54c-1.62-1.66-3.16-1.98-3.17-2.01
		c0,0,0,0,0.02,0c0,0,0.01,0,0.01,0c0-0.04,0.08-0.05,0.21-0.05c0.23,0,0.63,0.05,1.02,0.09c0.39,0.05,0.78,0.09,1.01,0.09
		c0.04,0,0.08,0,0.11-0.01c0.04-0.02,0.06-0.04,0.06-0.07c0-0.2-0.88-0.64-1.8-1.1c-1.43-0.73-2.79-1.6-3.54-2.38
		c-0.36-0.37-0.56-0.71-0.56-0.96c0-0.03,0-0.05,0.01-0.08c-0.59-0.12-1.54-0.43-2.11-0.5C78.63,28.34,78.58,28.34,78.53,28.34"/>
	<path class="st616" d="M81.23,28.39c-0.01,0.04-0.03,0.08-0.03,0.12c0,0.01,0,0.02,0,0.02c0.07-0.01,0.15-0.02,0.24-0.02
		c0.03,0,0.06,0,0.09,0C81.43,28.48,81.33,28.44,81.23,28.39"/>
	<path class="st616" d="M77.64,45.83c1.54,0.17,3.1,0.36,4.51,0.56c-1.09-0.19-2.36-0.37-3.83-0.55
		C78.32,45.83,78.07,45.83,77.64,45.83"/>
	<path class="st616" d="M102.76,46.82c-0.04,0.03-0.06,0.08-0.06,0.12l0,0c0,0.12,0.1,0.27,0.23,0.41
		C102.82,47.17,102.8,46.99,102.76,46.82"/>
	<path class="st616" d="M66.53,47.02c-0.21,0.09-0.41,0.18-0.58,0.28c0.23-0.06,0.49-0.13,0.77-0.2
		C66.66,47.08,66.6,47.05,66.53,47.02"/>
	<path class="st616" d="M103.47,47.86C103.47,47.86,103.47,47.86,103.47,47.86C103.47,47.86,103.47,47.86,103.47,47.86
		C103.47,47.86,103.47,47.86,103.47,47.86c0.05,0.01,0.08,0.01,0.12,0.02C103.55,47.87,103.51,47.86,103.47,47.86"/>
	<path class="st616" d="M72.02,48.12l5.09,1.89C76.08,49.28,74.47,48.62,72.02,48.12 M104.63,48.07c0.7,0.22,1.08,0.58,1.28,0.93
		C105.84,48.64,105.57,48.31,104.63,48.07"/>
	<path class="st616" d="M87.96,48.17c0.1,0.29,0.28,0.76,0.5,1.13c0.04-0.09,0.06-0.18,0.06-0.28
		C88.52,48.77,88.38,48.48,87.96,48.17"/>
	<path class="st616" d="M106.07,50.11l-0.77,0.43l0.03,0.07l0,0l0,0l0,0c0,0.04-0.02,0.09-0.06,0.15c0.29-0.17,0.75-0.51,0.82-0.64
		C106.08,50.12,106.07,50.12,106.07,50.11"/>
	<path class="st616" d="M103.22,52.28c-0.7,0.29-1.17,0.58-1.46,0.84c-0.02,0.02-0.04,0.04-0.06,0.05c0.05-0.04,0.11-0.09,0.18-0.13
		C102.35,52.78,102.8,52.53,103.22,52.28"/>
	<path class="st616" d="M86.45,59.54c-0.38,0.07-1.32,0.27-2.26,0.52l0.07,0.53l0,0c-0.61,0.77-0.62,1.49-3.04,2.17
		c-2.63,0.71-5.59,1.36-9.57,1.81c-0.12,0.01-0.25,0.02-0.37,0.02c-0.21,0-0.42-0.02-0.61-0.05c0.21,0.04,0.45,0.07,0.69,0.07
		c0.12,0,0.24-0.01,0.36-0.02c3.98-0.45,6.95-1.1,9.57-1.81c2.42-0.67,2.43-1.39,3.04-2.17C84.61,60.23,85.37,59.88,86.45,59.54"/>
	<path class="st617" d="M64.34,47.69C64.34,47.69,64.33,47.7,64.34,47.69c1.14,0.3,0.7,0.78,2.05,1.04
		c1.96,0.53,3.94,2.42,5.07,3.06c1.37,0.77,2.03,1.31,2.03,1.88c0,0.32-0.21,0.66-0.62,1.05c-0.5,0.34-0.62,0.65-0.62,0.94
		c0,0.26,0.1,0.52,0.1,0.8c0,0.15-0.03,0.31-0.12,0.48c-0.07,0.21-0.09,0.4-0.09,0.59c0,0.37,0.09,0.7,0.09,1.07
		c0,0.18-0.02,0.38-0.09,0.59c-0.73,0.72-1.12,1.38-1.12,2.1c0,0.09,0.01,0.18,0.02,0.27c0.13,0.11,0.26,0.21,0.6,0.27
		c0.34,0.06,0.22,0.28,0.35,0.39l0,0l0,0c-0.51,0.63-2.1,1.26-2.09,1.85c0,0.06,0.02,0.12,0.06,0.18c0.05,0.1,0.34,0.22,0.72,0.29
		c-0.34-0.07-0.59-0.18-0.64-0.27c-0.04-0.06-0.05-0.12-0.06-0.18c0-0.59,1.58-1.22,2.09-1.85c-0.13-0.11-0.01-0.32-0.35-0.39
		c-0.34-0.06-0.47-0.17-0.6-0.27c-0.01-0.09-0.02-0.18-0.02-0.27c0-0.72,0.39-1.38,1.11-2.1c0.07-0.21,0.09-0.4,0.09-0.59
		c0-0.37-0.09-0.7-0.09-1.07c0-0.18,0.02-0.38,0.09-0.59c0.09-0.17,0.12-0.32,0.12-0.48c0-0.28-0.1-0.53-0.1-0.8
		c0-0.3,0.12-0.6,0.61-0.94c0.42-0.39,0.63-0.72,0.62-1.05c0-0.57-0.66-1.11-2.03-1.88c-1.13-0.64-3.12-2.53-5.07-3.06
		c-1.36-0.26-0.91-0.74-2.06-1.04C64.39,47.71,64.36,47.7,64.34,47.69"/>
	<path class="st618" d="M66.72,47.1c-0.28,0.07-0.54,0.14-0.77,0.2c-0.11,0.07-0.21,0.14-0.3,0.21c0,0-0.12-0.02-0.31-0.05
		c-0.6,0.15-0.95,0.23-1,0.24c0.03,0.01,0.05,0.01,0.08,0.02c1.15,0.3,0.7,0.78,2.06,1.04c1.96,0.53,3.94,2.42,5.07,3.06
		c1.37,0.77,2.03,1.31,2.03,1.88c0,0.32-0.21,0.66-0.62,1.05c-0.5,0.34-0.61,0.65-0.61,0.94c0,0.26,0.1,0.52,0.1,0.8
		c0,0.15-0.03,0.31-0.12,0.48c-0.07,0.21-0.09,0.4-0.09,0.59c0,0.37,0.09,0.7,0.09,1.07c0,0.18-0.02,0.38-0.09,0.59
		c-0.73,0.72-1.12,1.38-1.11,2.1c0,0.09,0.01,0.18,0.02,0.27c0.13,0.11,0.26,0.21,0.6,0.27c0.34,0.07,0.22,0.28,0.35,0.39l0,0l0,0
		c-0.51,0.63-2.09,1.26-2.09,1.85c0,0.06,0.02,0.12,0.06,0.18c0.05,0.09,0.3,0.2,0.64,0.27c0.18,0.03,0.39,0.05,0.61,0.05
		c0.12,0,0.24-0.01,0.37-0.02c3.98-0.45,6.95-1.1,9.57-1.81c2.42-0.67,2.43-1.39,3.04-2.17l-0.07-0.53
		c-1.18,0.32-2.35,0.74-2.35,1.14c0,0.05,0.02,0.1,0.06,0.15l0,0l0,0c0,0-3.66,1.94-5.53,1.94c-0.42,0-0.75-0.1-0.93-0.34
		c0,0-1.29-0.73-1.64-1.12l0,0l0,0c0,0,2.03-5.82,3.74-6.23c0,0,1.26-1.28,1.26-2.85c0-0.89-0.4-1.86-1.67-2.75l-5.09-1.89
		c-1.21-0.25-2.61-0.45-4.25-0.61C67.77,47.51,67.3,47.35,66.72,47.1"/>
	<path class="st619" d="M77.36,45.83c-2.31,0-8.17,0.11-10.82,1.2c0.07,0.03,0.13,0.06,0.19,0.08c0.57,0.24,1.05,0.41,1.05,0.41
		c1.64,0.16,3.05,0.36,4.25,0.61c2.44,0.5,4.05,1.16,5.09,1.89c1.26,0.88,1.67,1.86,1.67,2.75c0,1.56-1.26,2.85-1.26,2.85
		c-1.71,0.4-3.74,6.23-3.74,6.23c0.35,0.39,1.64,1.12,1.64,1.12c0.18,0.24,0.51,0.34,0.93,0.34c1.87,0,5.53-1.94,5.53-1.94
		c-0.04-0.05-0.06-0.1-0.06-0.15c0.01-0.72,3.76-1.49,4.62-1.66c0.11-0.02,0.17-0.03,0.17-0.03c0.13-0.04,0.25-0.08,0.38-0.13
		c1.78-0.71,2.9-2.47,2.9-2.47c0.56-0.1,0.79-0.38,0.79-0.76c0-0.4-0.25-0.92-0.61-1.46c-1.21-0.94-3.26-2.71-3.26-3.84
		c0-0.43,0.3-0.77,1.07-0.94c0,0,0.42-0.23,0.57-0.6c-0.22-0.37-0.4-0.84-0.5-1.13c-0.76-0.56-2.43-1.2-5.8-1.78
		c-1.42-0.2-2.97-0.39-4.51-0.56C77.55,45.83,77.46,45.83,77.36,45.83"/>
	<path class="st620" d="M73.49,42.18c-4.59,0-10.44,2.66-10.44,2.66c-1.58,0.33-2.17,0.67-2.17,0.99c0,0.77,3.4,1.44,4.46,1.63
		c0.2,0.04,0.31,0.05,0.31,0.05c0.09-0.07,0.19-0.14,0.3-0.21c0.17-0.1,0.36-0.2,0.58-0.28c2.65-1.08,8.51-1.2,10.82-1.2
		c0.1,0,0.2,0,0.29,0c0.43,0,0.68,0.01,0.68,0.01c1.47,0.18,2.74,0.36,3.83,0.55c3.37,0.59,5.04,1.22,5.8,1.78
		c0.42,0.31,0.56,0.6,0.56,0.85c0,0.1-0.02,0.19-0.06,0.28c-0.16,0.37-0.57,0.6-0.57,0.6c-0.76,0.16-1.07,0.5-1.07,0.94
		c0,1.13,2.05,2.9,3.26,3.84c0.18,0.14,0.34,0.26,0.47,0.36c0,0,0,0,0,0c0-0.45,2.02-1.02,2.02-1.02c-0.1-0.08-0.14-0.17-0.14-0.26
		c0-0.97,4.24-2.83,4.24-2.83c1.46-0.34,1.92-0.76,1.92-1.15c0-0.64-1.2-1.21-1.2-1.21c-2.92-0.47-2.93-0.8-2.93-0.8
		c-1.2-2.97-19.63-5.5-19.63-5.5C74.4,42.21,73.95,42.18,73.49,42.18"/>
	<path class="st620" d="M90.56,55.04c0,0.1,0.12,0.2,0.39,0.28C90.94,55.32,90.79,55.22,90.56,55.04"/>
	<path class="st621" d="M75.65,27.49c-0.12,0-0.24,0-0.35,0.01c-0.43,0.08-0.72,0.2-0.92,0.4c-1.06,0.57-1.71,1.36-1.83,2.26
		c0.44,0.23,0.59,0.42,0.59,0.58c0,0.29-0.48,0.49-0.58,0.75c-0.08,0.11-0.4,0.16-0.62,0.28c-0.06,0.09-0.07,0.18-0.07,0.27
		c0,0.05,0,0.1,0,0.16c0,0.22-0.06,0.42-0.68,0.48c-2.31,0.17-4.4,0.52-6.14,1.04c-1.45,0.42-5.07,2.6-5.58,3.23
		c-0.29,0.26-0.37,0.53-0.37,0.79c0,0.35,0.14,0.68,0.14,1.01c0,0.15-0.03,0.3-0.12,0.45c0,0-0.01,0.01-0.03,0.01
		c-0.06,0-0.21-0.02-0.41-0.06c0.01,0.08,0.02,0.17,0.04,0.25c0.17,0.05,0.46,0.25,0.63,0.29l0,0l0,0
		c-0.08,0.18-0.33,0.31-0.79,0.49c-4.11,1.15-4.09,2.97-7.29,3.96c-0.44,0.2-1.06,0.49-1.06,0.75c0,0.04,0.01,0.07,0.04,0.11
		c0.26,0.21,0.1,0.5,0.57,0.67c1.15,0.3,2.88,0.55,4.24,0.8l0.08-1.19c-0.19-0.12-0.29-0.26-0.29-0.41c0-0.29,0.35-0.61,1-0.91
		c0.33-0.26,2.17-0.56,3.76-0.74c0.23-0.02,0.47-0.02,0.73-0.02c0.07,0,0.15,0,0.22,0c0.08,0,0.16,0,0.23,0c0.25,0,0.49,0,0.71-0.02
		c2.18-0.23,3.35-0.66,5.99-0.72c0.02,0,0.05,0,0.07,0c0.92,0,2.16-0.32,2.65-0.55c0.02-0.01,0.03-0.03,0.03-0.05
		c0-0.26-1.63-1-3.31-1.84c-1.82-0.89-3.69-1.94-3.71-2.12c-0.13-0.15-1.05-0.23-1.17-0.37l0,0l0,0c0.26-0.56,1.79-0.96,3.15-1.34
		c1.61-0.52,2.02-2.02,2.25-2.06c1.83,0.3,4.13,0.47,5.44,0.94c0.16,0.06,0.76,0.07,1.13,0.11c0.05,0,0.09,0,0.14,0
		c0.5,0,1.12-0.05,1.16-0.1c0.04,0.04,0.09,0.06,0.13,0.06c0.21,0,0.46-0.36,0.59-0.72c0.06-0.16,0.1-0.33,0.1-0.47
		c0-0.2-0.08-0.34-0.28-0.34c-0.05,0-0.11,0.01-0.18,0.03l0,0l0,0c0.22-0.07,0.3-0.16,0.3-0.27c0-0.42-1.38-1.08-1.38-1.64
		c0-0.02,0-0.03,0-0.05c0,0,0,0,0-0.01c0-0.47,1.21-0.62,1.21-1.05c0-0.07-0.03-0.15-0.12-0.25c-0.15-0.26-0.39-0.57-0.39-0.78
		c0-0.15,0.12-0.26,0.5-0.26c0.05,0,0.11,0,0.17,0.01c0.28,0.01,0.52,0.02,0.74,0.02c0.33,0,0.58-0.02,0.79-0.06
		c0.39-0.32,0.15-0.95,1.03-0.95c0.05,0,0.09,0,0.14,0.01c0.71,0.09,2,0.55,2.46,0.55c0.11,0,0.18-0.03,0.18-0.09
		c0-0.04-0.02-0.08-0.06-0.14c-0.04-0.06-0.06-0.1-0.06-0.14c0-0.07,0.04-0.12,0.04-0.18c0-0.07-0.04-0.14-0.22-0.27l0,0
		c-0.27-0.05-0.79-0.25-1.15-0.29c-0.2-0.04-0.37-0.05-0.52-0.05c-0.15,0-0.28,0.01-0.42,0.03c-0.13,0.01-0.27,0.03-0.43,0.03
		c-0.16,0-0.34-0.01-0.57-0.05C77.22,27.64,76.36,27.49,75.65,27.49"/>
	<path class="st622" d="M102.85,46.78c-0.04,0.01-0.07,0.03-0.09,0.05c-0.04,0.03-0.06,0.08-0.06,0.12c0-0.05,0.02-0.09,0.06-0.12
		C102.78,46.8,102.81,46.79,102.85,46.78"/>
	<path class="st622" d="M102.7,46.95c0,0.12,0.1,0.27,0.23,0.41c0.04,0.04,0.08,0.09,0.12,0.13C102.87,47.31,102.7,47.1,102.7,46.95
		"/>
	<path class="st622" d="M103.05,47.49c0.17,0.17,0.34,0.31,0.4,0.36C103.39,47.8,103.22,47.65,103.05,47.49"/>
	<path class="st622" d="M106.12,49.83c0,0.16-0.03,0.26-0.03,0.26C106.1,50.09,106.12,49.99,106.12,49.83"/>
	<path class="st428" d="M105.26,50.77L105.26,50.77c-0.33,0.47-1.79,1.41-1.79,1.41c-0.09,0.03-0.17,0.07-0.25,0.1l0,0
		c0.08-0.03,0.17-0.07,0.25-0.1l0,0c0,0,0,0,0,0C103.5,52.16,104.94,51.24,105.26,50.77"/>
	<path class="st622" d="M103.48,52.18c-0.09,0.03-0.17,0.07-0.25,0.1c-0.7,0.29-1.17,0.58-1.46,0.84c0.29-0.27,0.76-0.55,1.46-0.84
		C103.3,52.25,103.39,52.21,103.48,52.18"/>
	<path class="st622" d="M105.33,50.62c0,0.04-0.02,0.09-0.06,0.15c-0.32,0.47-1.76,1.39-1.79,1.41c0.03-0.02,1.46-0.94,1.79-1.41
		C105.3,50.71,105.33,50.66,105.33,50.62 M105.33,50.62L105.33,50.62L105.33,50.62"/>
	<path class="st622" d="M101.76,53.12c-0.02,0.02-0.04,0.04-0.06,0.05c-0.24,0.23-0.34,0.45-0.35,0.66c0,0.01,0,0.03,0,0.04
		c0-0.01,0-0.03,0-0.04C101.37,53.61,101.49,53.38,101.76,53.12"/>
	<path class="st622" d="M101.35,53.87c0,0.82,1.46,1.36,1.49,1.37C102.81,55.23,101.35,54.69,101.35,53.87"/>
	<path class="st623" d="M74.14,26.09c-2.61,0-4.71,0.73-5.63,1.98c-0.03,0.04-0.04,0.08-0.04,0.12c0,0.26,0.46,0.61,0.63,0.89
		c0.14,0.19,0.18,0.36,0.18,0.53c0,0.17-0.05,0.34-0.07,0.51c-0.01,0.06-0.01,0.12-0.01,0.18c0,0.29,0.12,0.6,0.72,0.95
		c0.09,0.05,0.13,0.1,0.13,0.14c0,0.06-0.07,0.12-0.18,0.15c-1.41,0.23-2.75,0.52-4.04,0.84c-1.3,0.33-2.57,0.7-3.82,1.11
		c-1.74,0.52-4.68,2.79-5.14,3.29c-0.19,0.3-0.28,0.57-0.28,0.81c0,0.55,0.43,0.94,0.93,1.18c0.36,0.18,0.77,0.3,1.08,0.37
		c0.04,0.01,0.07,0.02,0.1,0.02c0.2,0.04,0.34,0.06,0.41,0.06c0.02,0,0.03,0,0.03-0.01c0.09-0.15,0.12-0.3,0.12-0.45
		c0-0.33-0.14-0.67-0.14-1.01c0-0.26,0.08-0.53,0.37-0.79c0.52-0.63,4.14-2.81,5.58-3.23c1.73-0.52,3.82-0.86,6.14-1.04
		c0.62-0.06,0.68-0.26,0.68-0.48c0-0.05,0-0.1,0-0.16c0-0.09,0.01-0.19,0.07-0.27c0.22-0.11,0.54-0.17,0.62-0.28
		c0.09-0.26,0.58-0.46,0.58-0.75c0-0.16-0.15-0.35-0.59-0.58l0,0l0,0c0.12-0.9,0.76-1.69,1.83-2.26c0.2-0.2,0.49-0.32,0.92-0.4
		c0.11-0.01,0.23-0.01,0.35-0.01c0.7,0,1.56,0.16,2.27,0.23c0.23,0.04,0.41,0.05,0.57,0.05c0.16,0,0.3-0.01,0.43-0.03
		c0.13-0.01,0.27-0.03,0.42-0.03c0.15,0,0.31,0.01,0.52,0.05c0.36,0.04,0.89,0.25,1.15,0.29l0,0C81,28.04,81,28.02,81,28.01
		c0-0.05,0.04-0.08,0.04-0.12c0-0.04-0.04-0.09-0.18-0.17c-0.42-0.27-0.86-0.41-1.26-0.56c-1.46-0.43-3.17-0.93-4.49-1.03
		C74.78,26.1,74.45,26.09,74.14,26.09"/>
</g>
<path d="M73.26,67.58c-0.35-1.79-0.4-3.14-0.88-4.31c-1.24-3.01-3.55-5.06-6.64-5.96c-1.12-0.33-1.56-0.83-1.81-1.86
	c3.11-0.34,5.9,0.88,9.13,1.88c-3.11-6.35-8.43-10.19-13.37-14.58c4.79-0.16,5.5,0.25,11.84,6.8c-0.12-1.11-0.04-1.96-0.32-2.67
	c-1.46-3.61-1.29-7.42-1.5-11.19c-0.08-1.38,0.02-2.82-0.37-4.11c-0.46-1.51-1.36-2.88-2.13-4.42c0.38-0.64,0.9-0.78,1.5-0.04
	c2.33,2.86,4.65,5.72,6.96,8.6c0.3,0.38,0.54,0.81,1.18,1.78c1.01-4.65,1.94-8.71,2.75-12.8c0.45-2.28,0.71-4.59,1.05-6.89
	c0.32-2.23,0.54-4.43-0.05-6.68c-0.4-1.52-0.21-1.64,1.2-2.12c0.11,0.12,0.31,0.25,0.31,0.37c-0.04,4.53,1.18,8.85,2.1,13.23
	c0.5,2.41,0.68,4.99,0.41,7.42c-0.32,2.93-0.58,5.78,0.26,9.04c2.39-2.79,4.63-5.4,6.87-8.02c0.12,0.04,0.25,0.08,0.37,0.12
	c-0.81,3.05-1.61,6.1-2.45,9.27c3.93-2.33,4.32-2.41,5.6-1.31c-1.51,2-3.02,4-4.53,6c0.13,0.11,0.25,0.22,0.38,0.33
	c0.63-0.55,1.32-1.04,1.86-1.66c2.28-2.61,5.56-3.78,8.33-5.67c1.25-0.85,3.03-0.93,4.49-1.33c0.76,1.2,0.24,1.79-0.57,2.06
	c-4.52,1.52-7.44,4.84-9.91,8.69c-1.39,2.16-2.81,4.3-4.61,7.05c3.49-1.58,6.46-2.59,9.62-1.04c-2.29,1.09-4.18,2.58-6.13,4.05
	c-2.06,1.55-3.45,3.56-5.04,5.61c1.85,1.36,3.53,2.64,5.26,3.83c0.3,0.21,0.83,0.11,1.26,0.12c0.34,0,0.94-0.18,0.99-0.07
	c0.79,1.73,2.78,1.03,4,2.03c1.35,1.11,2.05,2.47,2.79,3.95c0.82,1.63,1.98,3.08,2.92,4.64c0.76,1.26-0.11,2.63,0.69,3.86
	c1.52,2.32,1.38,4.72,0.58,7.19c-0.51,1.59-1.46,3.13,0.16,4.75c0.4,0.4,0.3,1.55,0.08,2.25c-1.07,3.45-0.52,7.01-2.11,10.22
	c-0.81,1.64-0.59,3.25-1.06,4.82c-0.4,1.36,0.56,5.41-0.29,6.51c-1.07,1.39-2.09,2.82-3.13,4.24c-0.17-0.11-0.35-0.23-0.52-0.34
	c0.71-1.32,1.32-2.69,2.13-3.95c2.69-4.17,0.95-9.32-2.96-12.55c-1.46,0.39-3.05,0.74-4.6,1.23c-1.67,0.53-2.51,1.74-2.58,3.5
	c-0.07,1.78-0.17,3.55-0.27,5.52c1.16-0.07,3.84,2.72,5.23,2.64c0.71,1.25,1.36,2.55,2.15,3.76c1.25,1.94,1.9,3.66-0.25,6.05
	c-0.97,1.08-2.23,1.9-3.28,2.92c-1.27,1.24-4.01-0.5-4.96,1.15c0.19,1.95,2.9,4.7-6.13,3.07c-1.41-0.25-3.04,0.17-4.45,0.65
	c-2.57,0.87-5.02,1.26-7.41-0.32c-2.61,1.95-6.65,1.24-9.45-1.28c-0.19-0.17-0.35-0.39-0.49-0.6c-1-1.51-2.28-2.49-4.02-3.24
	c-1.96-0.85-2.84-2.89-2.31-5.01c0.36-1.43-0.03-2.5-0.51-3.71c-1.11-2.8-2.19-5.61-3.15-8.46c-0.21-0.64-0.08-1.52,0.2-2.16
	c0.45-1.02,0.54-1.96,0.16-3c-1.31-3.56-0.97-7.12,0.33-10.57c0.51-1.35,0.53-2.63,0.6-4.01c0.2-3.68,0.26-7.61,2.3-10.7
	c1.67-2.52,2.62-5.4,4.47-7.76c1.86-2.36,3.62-4.82,6.23-6.49C69.39,66.85,71.01,66.24,73.26,67.58z M83.4,92.01
	c0.16,0.65,0.32,1.29,0.49,2.01c1.9-1.11,3.96-1.93,5.53-3.31c2.69-2.36,4.67-0.45,6.85,0.66c0.42,0.22,0.73,0.65,0.89,0.8
	c2.89-1.43,4.11-2.75,6.8-4.08c0.55,0.9,1.14,1.86,1.98,3.23c0.71-2.99,1.87-5.4,0.44-7.96c-1.1-1.96-0.73-3.94-1.87-5.87
	c-0.28-0.48-0.78-0.83-1.34-1.41c-0.9,0.76-1.64,1.46-2.45,2.06c-1.75,1.3-2.53,2.68-1.72,5.05c0.73,2.15,0.09,4.16-1.24,5.96
	c0.48-3.05,0.51-5.49-0.91-7.73c-1.41-2.23-3.65-3.32-5.77-4.7c-0.93,0.74-1.71,1.59-2.67,2.08c-3.09,1.57-5.07,3.69-4.22,7.45
	c0.06,0.25,0.19,0.54,0.12,0.76c-0.49,1.67,0.51,3.62-0.95,5.11c-0.07-0.49-0.16-0.99-0.2-1.48c-0.17-2.14-0.17-4.31-0.51-6.43
	c-0.54-3.4-3.26-5.09-6.65-4.35c-0.57,0.12-1.15,0.24-1.87,0.39c-0.08,0.65-0.17,1.38-0.25,2.1c-0.17-0.05-0.33-0.1-0.5-0.15
	c-0.3-0.47-0.6-0.94-0.92-1.43c-2.65,1.06-3.97,2.81-3.64,5.65c0.11,0.94,0.05,1.9,0.01,2.85c-0.02,0.41-0.18,0.82-0.27,1.22
	c-0.49-0.68-0.61-1.34-0.7-2c-0.21-1.54-0.14-3.17-0.65-4.59c-1.18-3.29-2.36-4.25-5.44-3.42c-1.6,0.43-2.68,1.33-3.44,2.51
	c-1.88,2.89-1.87,6.24-2.19,9.94c2.03-1.14,3.59-2.01,5.12-2.87c1.9,2.65,4.61,3.51,7.34,4.29c0.36,0.1,0.86-0.07,1.22-0.26
	c2.37-1.24,4.78-2.44,7.06-3.83c1.09-0.66,1.76-0.62,2.28,0.5c0.72,1.57,2.01,2.2,3.52,2.47C82.98,92.73,83.19,92.37,83.4,92.01z
	 M82.05,18.74c-1.62,8-3.14,15.49-4.76,23.47c-1.15-2.32-1.96-4.14-2.93-5.86c-0.97-1.7-1.42-3.86-3.56-4.7
	c0.12,7.16,1.02,14.09,3.3,20.85c-2.09,0.73-2.26-1.24-3.48-1.64c2.46,2.96,4.8,5.97,4.68,10.06c-1.69-1.2-3.34-2.37-5-3.55
	c-0.14,0.12-0.27,0.25-0.41,0.37c3.92,3.03,4.71,7.39,5.25,12.19c1.38-0.87,2.56-1.62,3.62-2.28c-0.53-2.37-1.51-4.35-1.04-6.63
	c0.64-0.13,1.19-0.24,1.96-0.4c-0.05-1.18-0.12-2.28-0.15-3.39c-0.1-3.35-0.21-6.71-0.25-10.06c-0.01-0.52,0.3-1.05,0.47-1.58
	c0.53,0.26,1.07,0.52,1.6,0.77c1.71-2.51,2.38-5.27,2.05-8.3c-0.25-2.28-0.26-4.51,0.1-6.84C84.11,27.23,83.4,23.21,82.05,18.74z
	 M67.26,106.64c0.52-0.5,1.17-0.97,1.61-1.59c0.42-0.6,0.86-1.34,0.88-2.03c0.07-2.26-0.3-4.48-1.43-6.49
	c-0.23-0.42-0.6-0.86-1.01-1.06c-2.41-1.14-4.85-2.2-7.26-3.28c-5.1,2.29-7.32,11.06-4.43,15.57c0.75-0.73,1.41-1.55,2.24-2.11
	c0.74-0.5,1.76-1.11,2.51-0.96C62.7,105.16,64.96,105.96,67.26,106.64z M85.5,102.23c0.05-0.92,0.07-2.03,0.17-3.14
	c0.14-1.57-0.5-2.67-1.9-3.35c-0.77-0.38-1.56-0.72-2.3-1.14c-1.3-0.73-2.58-1.51-4.25-2.49c-2.05,1.19-5.14,1.44-7.14,3.86
	c0.35,2.39,0.69,4.73,1.02,7.01c1.66,0.18,3.25,0.11,4.68,0.56c1.39,0.45,2.62,1.44,3.9,2.18C81.44,104.67,83.31,103.54,85.5,102.23
	z M77.21,118.96c1.25-0.83,2.75-1.14,2.94-2.81c0.24-2.09,0.92-4.2-0.8-6.11c-0.78-0.86-1.09-2.12-1.72-3.13
	c-0.43-0.68-0.96-1.53-1.64-1.76c-1.11-0.37-2.38-0.45-3.56-0.37c-2.85,0.18-4.84,2.99-4.37,5.8c0.2,1.17,0.19,2.39,0.13,3.58
	c-0.09,1.68-0.31,3.34-0.55,5.73c1.96-1.65,3.45-2.9,4.83-4.05C74.09,116.91,75.64,117.92,77.21,118.96z M85.52,94.99
	c1.63,2.15,1.18,4.51,0.99,6.61c2.11,1.5,4.11,2.91,6.18,4.37c1.67-0.83,3.49-1.73,5.25-2.6c-0.14-2.11-0.42-4.08-0.35-6.04
	c0.08-2.17-1.11-3.63-2.56-4.77c-1-0.79-2.63-1.59-3.68-1.31C89.24,91.81,87.17,92.88,85.52,94.99z M60.3,106.06
	c-0.15-0.16-0.29-0.32-0.44-0.48c-1.41,1.36-2.79,2.75-4.23,4.08c-1.36,1.25-1.4,2.65-0.73,4.24c0.69,1.67,1.27,3.38,1.94,5.05
	c0.31,0.77,0.73,1.49,1.27,2.58c0.74-1.35,1.31-2.38,1.86-3.41c0.53-1,1.19-1.32,2.32-0.81c1.45,0.65,2.98,1.14,4.8,1.81
	c-0.26-3.28-0.45-6.11-0.73-8.93c-0.22-2.2-0.59-2.55-2.7-3.13C62.52,106.76,61.41,106.4,60.3,106.06z M86.51,118.34
	c1.08-0.54,1.96-1,2.87-1.42c1.58-0.72,2.38-1.82,2.19-3.65c-0.18-1.7-0.11-3.42-0.23-5.12c-0.11-1.65-2.98-4.45-4.53-4.15
	c-2.68,0.52-5.44,1.11-6.97,4.09c2.05,1.91,2.04,4.36,1.67,6.66C83.3,116.03,84.93,117.21,86.51,118.34z M83.09,81.6
	c0.97-0.93,1.76-1.85,2.7-2.58c2.11-1.64,2.15-3.8,1.48-6c-0.44-1.45-1.32-2.77-1.96-4.06c-1.98,0.09-3.85-0.12-5.53,0.35
	c-1.76,0.49-3.33,1.65-4.64,2.33c-0.22,2.56-0.39,4.59-0.58,6.85C77.87,78.02,81.31,77.59,83.09,81.6z M73.32,69.16
	c-3.33-1.68-3.9-1.58-6.49,1.19c-0.82,0.88-1.68,1.73-2.53,2.59c-1.65,1.68-2.46,3.82-3.58,6.2c0.75-0.15,1.14-0.24,1.54-0.3
	c2.38-0.41,4.67-0.6,5.72,2.32c0.09,0.25,0.51,0.37,0.71,0.51c0.95-0.57,1.71-1.19,2.58-1.51c1.71-0.64,2.38-1.75,2.26-3.57
	C73.36,74.14,73.38,71.69,73.32,69.16z M98.61,93.28c0.09,3.49,0.18,6.6,0.26,9.9c1.38-0.59,2.19-0.26,2.9,0.93
	c0.64,1.07,1.68,1.91,2.68,3.01c1.32-3.49,0.96-6.89,1.75-10.41c0.43-1.94-0.07-3.37-1.25-4.74c-0.5-0.58-1.06-1.09-1.68-1.72
	C101.14,91.31,100.46,92.36,98.61,93.28z M89.65,36.33c-0.19-0.08-0.37-0.15-0.56-0.23c-2.28,2.35-4.55,4.71-4.85,8.24
	c-0.03,0.36-0.3,0.89-0.6,1c-1.13,0.45-1.09,1.47-1.31,2.36c-0.44,1.79-0.43,1.79-2.36,1.51c0.51,4.75,1.07,9.48,0.9,14.37
	c-0.73-0.06-1.24-0.11-1.87-0.16c0.4,1.55,0.74,2.88,1.11,4.31c1.06-0.03,2.24-0.06,3.01-0.07c0.98-2.33,1.85-4.41,2.94-7.03
	c-1.49,1.02-2.32,2.34-3.76,1.42c1.25-2.91,2.44-5.66,3.76-8.72c-2.04,0.4-2.12,2.89-4.39,2.5C84.36,49.3,87.01,42.82,89.65,36.33z
	 M61.19,118.47c-1,2.3-2.49,3.86-2.66,5.94c0.49,0.38,0.88,0.68,1.39,1.08c-0.47,0.39-0.82,0.68-1.18,0.98
	c1.09,2.33,1.17,2.38,5.25,3.28c2.01-1.23,3.86-2.36,5.9-3.61c0.1-1.59,0.35-3.23-1.93-4.73C65.8,119.98,63.56,119.5,61.19,118.47z
	 M92.28,128.7c2.53,0,4.72-0.31,6.23-2.04c0.64-0.73,0.28-1.77,0.57-2.73c0.5-1.72-0.51-2.96-1.62-4.07
	c-1.06-1.05-3.75-3.84-5.01-3.23c-1.76,0.85-3.5,1.73-5.68,2.81c2.11,1.43,3.15,3.31,3.14,5.21
	C89.89,126.48,90.64,127.73,92.28,128.7z M88.89,76.47c0.64-0.27,0.9-0.33,1.11-0.47c1.62-1.05,1.56-0.98,3.07,0.24
	c1.45,1.16,3.04,2.14,4.97,3.48c0.39-1.29,0.92-2.15,0.84-2.96c-0.17-1.88-0.61-3.73-1.01-5.58c-0.14-0.66-0.37-1.38-0.79-1.88
	c-0.31-0.38-1.26-0.76-1.46-0.6c-0.81,0.68-1.63,0.24-2.44,0.33c-1.27,0.14-2.58,0.32-3.76,0.77c-0.59,0.23-1.31,1.12-1.3,1.69
	C88.19,73.07,88.59,74.65,88.89,76.47z M72.42,117.39c-1.01,1.05-1.83,1.89-2.78,2.87c2.52,2.11,0.7,4.84,1.5,7.27
	c3.1,2.07,3.08,2.05,6.13-0.26c0.72-0.54,1.63-0.84,2.43-1.23C79.58,121.26,75.77,119.71,72.42,117.39z M86.96,63.52
	c2.66-3.48,5.57-6.62,9.82-9.15c-3.63-0.44-5.59,1.51-8.06,3.27c-0.07-0.86-0.28-1.44-0.12-1.88c0.3-0.8,0.74-1.56,1.25-2.26
	c2.79-3.87,4.97-8.2,8.37-11.7c-3.25,1.54-6.28,3.62-8.25,6.49c-2.03,2.96-3.12,6.57-4.62,9.9c0.13,0.09,0.25,0.17,0.38,0.26
	c0.49-0.52,0.99-1.04,1.83-1.93C88.5,59.18,86.88,61.21,86.96,63.52z M78.43,119.78c2.29,2.2,2.4,4.86,2.6,7.52
	c0.04,0.46,0.52,0.88,0.78,1.3c2.26-1.45,5.01-2.75,7.14-4.12c-0.33-2.81-4.35-6.67-7.19-7.33
	C80.76,117.93,79.77,118.72,78.43,119.78z M78.58,128.21c-2.3,1.09-4.31,2.46-4.79,5.34c2.48,2.01,4.95,1.32,7.4,0.3
	C82.03,130.13,81.76,129.99,78.58,128.21z M72.54,134.88c0.03-0.93,0.01-1.78,0.09-2.62c0.17-1.65-0.69-2.45-2.09-3.14
	c-1.45-0.72-2.62-0.62-3.78,0.4c-0.32,0.28-0.61,0.6-0.93,0.89c-1.43,1.28-1.41,1.75,0.15,2.96
	C67.88,134.85,70.1,134.89,72.54,134.88z M82.71,132.99c8.37,2.3,6.95,0.3,6.95-0.9c1.17-1.05,1.48-1.85,0.58-3.12
	c-0.67-0.95-1.67-1.66-2.5-2.46C83.93,129.47,83.21,129.47,82.71,132.99z M84.21,52.41c4.2-2.98,4.95-8.16,8.14-11.78
	c-2,0.16-3.15,1.35-3.94,2.9c-1.01,1.98-1.93,4-2.88,6.01C85.08,50.49,84.65,51.45,84.21,52.41z M89.08,64.87
	c-0.06,0.18-0.13,0.36-0.19,0.54c-1.09,0.63-2.19,1.25-3.29,1.88c0.45,0.49,1.11,1.22,1.66,1.83c1.92-0.54,3.64-1.02,5.37-1.5
	c0.02-0.2,0.04-0.4,0.07-0.6C91.49,66.3,90.28,65.58,89.08,64.87z M99.75,77.3c1.17-1.28,2.06-2.24,3.01-3.28
	c-0.8-1.56-0.95-3.65-3.54-3.87C99.39,72.5,99.55,74.65,99.75,77.3z M64.99,45.71c1.55,1.41,3.11,2.83,4.66,4.24
	C68.41,48.23,67.46,46.18,64.99,45.71z"/>
</svg>
