<?xml version="1.0" encoding="utf-8"?>
<!-- Generator: Adobe Illustrator 23.0.1, SVG Export Plug-In . SVG Version: 6.00 Build 0)  -->
<svg version="1.1" id="Layer_1" xmlns="http://www.w3.org/2000/svg" xmlns:xlink="http://www.w3.org/1999/xlink" x="0px" y="0px"
	 viewBox="0 0 150 150" style="enable-background:new 0 0 150 150;" xml:space="preserve">
<style type="text/css">
	.st0{fill:#F49AB4;}
	.st1{fill:#F28DA7;}
	.st2{fill:#E85072;}
	.st3{fill:#E84B6F;}
	.st4{fill:#EB5A7D;}
	.st5{fill:#EF7994;}
	.st6{fill:#F8BCCD;}
	.st7{fill:#F38CA8;}
	.st8{fill:#EF728F;}
	.st9{fill:#FCE4EB;}
	.st10{fill:#F0CCCF;}
	.st11{fill:#DE8D95;}
	.st12{fill:#EBBABF;}
	.st13{fill:#E7ACB2;}
	.st14{fill:#E39DA3;}
	.st15{fill:#F5DEE0;}
	.st16{fill:#D97A83;}
	.st17{fill:#E4A6AD;}
	.st18{fill:#E9B6BB;}
	.st19{fill:#DA9197;}
	.st20{fill:#CC7077;}
	.st21{fill:#C9646C;}
	.st22{fill:#D4848B;}
	.st23{fill:#D17A81;}
	.st24{fill:#DD9EA3;}
	.st25{fill:#C65760;}
	.st26{fill:#D48189;}
	.st27{fill:#CF6E76;}
	.st28{fill:#C1575F;}
	.st29{fill:#B8424B;}
	.st30{fill:#B33C43;}
	.st31{fill:#BB4952;}
	.st32{fill:#C65E66;}
	.st33{fill:#BC4F57;}
	.st34{fill:#B0353D;}
	.st35{fill:#D67E84;}
	.st36{fill:#C6636B;}
	.st37{fill:#CA6C72;}
	.st38{fill:#B9454D;}
	.st39{fill:#C05B63;}
	.st40{fill:#C0545B;}
	.st41{fill:#BE4C53;}
	.st42{fill:#B43C44;}
	.st43{fill:#DF999F;}
	.st44{fill:#D27980;}
	.st45{fill:#C1555D;}
	.st46{fill:#CB6F76;}
	.st47{fill:#C8676E;}
	.st48{fill:#D5838A;}
	.st49{fill:#C65D64;}
	.st50{fill:#F1D1D4;}
	.st51{fill:#D38087;}
	.st52{fill:#CF737C;}
	.st53{fill:#D98C94;}
	.st54{fill:#E6B3B9;}
	.st55{fill:#D8898F;}
	.st56{fill:#C66269;}
	.st57{fill:#C96A72;}
	.st58{fill:#DD9399;}
	.st59{fill:#CF747B;}
	.st60{fill:#D48188;}
	.st61{fill:#D37D85;}
	.st62{fill:#DC9298;}
	.st63{fill:#D8838B;}
	.st64{fill:#FAECED;}
	.st65{fill:#EFCBD0;}
	.st66{fill:#EDC1C5;}
	.st67{fill:#D28089;}
	.st68{fill:#CB747D;}
	.st69{fill:#A8343C;}
	.st70{fill:#A62F37;}
	.st71{fill:#B03E44;}
	.st72{fill:#C25C63;}
	.st73{fill:#E1A8AC;}
	.st74{fill:#BE535C;}
	.st75{fill:#CE727C;}
	.st76{fill:#F5D8DA;}
	.st77{fill:#D8BAE7;}
	.st78{fill:#BC8FD2;}
	.st79{fill:#B17FC9;}
	.st80{fill:#7D3CA4;}
	.st81{fill:#884BAE;}
	.st82{fill:#A369BF;}
	.st83{fill:#D2B5E2;}
	.st84{fill:#9A62BC;}
	.st85{fill:#B17ECB;}
	.st86{fill:#ECE0F2;}
	.st87{fill:#FBCBC8;}
	.st88{fill:#F5908C;}
	.st89{fill:#F28580;}
	.st90{fill:#E64640;}
	.st91{fill:#E5413B;}
	.st92{fill:#E74E49;}
	.st93{fill:#ED6D68;}
	.st94{fill:#F7B5B0;}
	.st95{fill:#ED6660;}
	.st96{fill:#F48580;}
	.st97{fill:#FBDFDF;}
	.st98{fill:#F9C1C0;}
	.st99{fill:#F7B7B6;}
	.st100{fill:#EF7573;}
	.st101{fill:#EF6F6D;}
	.st102{fill:#F17F7C;}
	.st103{fill:#F4A19F;}
	.st104{fill:#F39998;}
	.st105{fill:#EC7271;}
	.st106{fill:#FAD1CF;}
	.st107{fill:#FADCDC;}
	.st108{fill:#F39391;}
	.st109{fill:#FDECEC;}
	.st110{fill:#FCDDDD;}
	.st111{fill:#ED8280;}
	.st112{fill:#E66160;}
	.st113{fill:#F18784;}
	.st114{fill:#F19593;}
	.st115{fill:#EB7675;}
	.st116{fill:#E86867;}
	.st117{fill:#F28785;}
	.st118{fill:#F3A7A7;}
	.st119{fill:#F08C8B;}
	.st120{fill:#F08785;}
	.st121{fill:#E55D5B;}
	.st122{fill:#E86D6C;}
	.st123{fill:#E85F5D;}
	.st124{fill:#E75958;}
	.st125{fill:#EA6664;}
	.st126{fill:#E76260;}
	.st127{fill:#E04948;}
	.st128{fill:#ED7371;}
	.st129{fill:#EA6B6A;}
	.st130{fill:#EB6763;}
	.st131{fill:#E45352;}
	.st132{fill:#E54E4C;}
	.st133{fill:#DE3635;}
	.st134{fill:#E65958;}
	.st135{fill:#E0413E;}
	.st136{fill:#EA6D6A;}
	.st137{fill:#EE9493;}
	.st138{fill:#EA6866;}
	.st139{fill:#F2A8A6;}
	.st140{fill:#E14543;}
	.st141{fill:#E3413F;}
	.st142{fill:#E64A48;}
	.st143{fill:#E56967;}
	.st144{fill:#E33F3D;}
	.st145{fill:#EB7775;}
	.st146{fill:#EE8483;}
	.st147{fill:#E64845;}
	.st148{fill:#E75655;}
	.st149{fill:#E65451;}
	.st150{fill:#EA7473;}
	.st151{fill:#E55B57;}
	.st152{fill:#E75756;}
	.st153{fill:#EB7472;}
	.st154{fill:#EE8C8A;}
	.st155{fill:#F5A3A2;}
	.st156{fill:#E14A49;}
	.st157{fill:#E14D4C;}
	.st158{fill:#E14B49;}
	.st159{fill:#DE3E3D;}
	.st160{fill:#E45350;}
	.st161{fill:#E14544;}
	.st162{fill:#E54E4B;}
	.st163{fill:#E34240;}
	.st164{fill:#E75C5A;}
	.st165{fill:#EB7C7B;}
	.st166{fill:#F3A2A1;}
	.st167{fill:#EA7877;}
	.st168{fill:#E66B6A;}
	.st169{fill:#E96A69;}
	.st170{fill:#E56160;}
	.st171{fill:#E44845;}
	.st172{fill:#EC7473;}
	.st173{fill:#F9C0D3;}
	.st174{fill:#F298B5;}
	.st175{fill:#EE89A7;}
	.st176{fill:#E54D73;}
	.st177{fill:#E44771;}
	.st178{fill:#E7567E;}
	.st179{fill:#EC7797;}
	.st180{fill:#F8BCCF;}
	.st181{fill:#EB6D8F;}
	.st182{fill:#F089A8;}
	.st183{fill:#FCE2EB;}
	.st184{fill:#E55B7F;}
	.st185{fill:#E6708E;}
	.st186{fill:#EB87A2;}
	.st187{fill:#E25677;}
	.st188{fill:#E7678B;}
	.st189{fill:#FBD7E3;}
	.st190{fill:#ED80A1;}
	.st191{fill:#E24166;}
	.st192{fill:#E13B65;}
	.st193{fill:#E34870;}
	.st194{fill:#E76486;}
	.st195{fill:#F49DB8;}
	.st196{fill:#F7BFD1;}
	.st197{fill:#E65C7F;}
	.st198{fill:#F6ABC4;}
	.st199{fill:#F6A7C2;}
	.st200{fill:#EA6189;}
	.st201{fill:#DB3258;}
	.st202{fill:#DA2E55;}
	.st203{fill:#F7B2C9;}
	.st204{fill:#EA6A8D;}
	.st205{fill:#DC355B;}
	.st206{fill:#DB3159;}
	.st207{fill:#DF3C63;}
	.st208{fill:#F9C5D6;}
	.st209{fill:#EB7697;}
	.st210{fill:#DE3B61;}
	.st211{fill:#DE375F;}
	.st212{fill:#E1426A;}
	.st213{fill:#FDE7EE;}
	.st214{fill:#EE89A9;}
	.st215{fill:#E2456B;}
	.st216{fill:#E14069;}
	.st217{fill:#E44D75;}
	.st218{fill:#E86B8C;}
	.st219{fill:#EE7A9C;}
	.st220{fill:#F5A8C0;}
	.st221{fill:#FACBDA;}
	.st222{fill:#E65A7D;}
	.st223{fill:#E04169;}
	.st224{fill:#FEF5F9;}
	.st225{fill:#F191B0;}
	.st226{fill:#EA7292;}
	.st227{fill:#F6B4C9;}
	.st228{fill:#FBD8E5;}
	.st229{fill:#E96C8F;}
	.st230{fill:#E35477;}
	.st231{fill:#EA7396;}
	.st232{fill:#EB7A9D;}
	.st233{fill:#E8698D;}
	.st234{fill:#EB7094;}
	.st235{fill:#E04B6E;}
	.st236{fill:#E66085;}
	.st237{fill:#EB7294;}
	.st238{fill:#E7678C;}
	.st239{fill:#EA6D91;}
	.st240{fill:#E14C71;}
	.st241{fill:#EE7A9D;}
	.st242{fill:#F393B2;}
	.st243{fill:#DC3F64;}
	.st244{fill:#EF82A3;}
	.st245{fill:#F39DB9;}
	.st246{fill:#DF466B;}
	.st247{fill:#DF4469;}
	.st248{fill:#F29A98;}
	.st249{fill:#E64F4D;}
	.st250{fill:#E74947;}
	.st251{fill:#E85956;}
	.st252{fill:#EC7775;}
	.st253{fill:#F8BCBA;}
	.st254{fill:#EC6F6D;}
	.st255{fill:#FCE2E2;}
	.st256{fill:#F8C8C6;}
	.st257{fill:#F08B89;}
	.st258{fill:#F18A89;}
	.st259{fill:#B093A4;}
	.st260{fill:#A38295;}
	.st261{fill:#6F455A;}
	.st262{fill:#694055;}
	.st263{fill:#794F64;}
	.st264{fill:#936F83;}
	.st265{fill:#CDB7C1;}
	.st266{fill:#B596A5;}
	.st267{fill:#A58394;}
	.st268{fill:#8C667A;}
	.st269{fill:#B696A7;}
	.st270{fill:#E8E0E7;}
	.st271{fill:#E1BCC2;}
	.st272{fill:#A9666E;}
	.st273{fill:#681C23;}
	.st274{fill:#641920;}
	.st275{fill:#73242D;}
	.st276{fill:#8D3F48;}
	.st277{fill:#C69197;}
	.st278{fill:#893841;}
	.st279{fill:#E3CCCE;}
	.st280{fill:#6F292E;}
	.st281{fill:#A15A63;}
	.st282{fill:#944952;}
	.st283{fill:#944953;}
	.st284{fill:#964A53;}
	.st285{fill:#984B54;}
	.st286{fill:#974A53;}
	.st287{fill:#A25A62;}
	.st288{fill:#D2BCC8;}
	.st289{fill:#C8B2BE;}
	.st290{fill:#936A80;}
	.st291{fill:#8E667B;}
	.st292{fill:#9B7589;}
	.st293{fill:#B293A3;}
	.st294{fill:#916B7F;}
	.st295{fill:#DDCCD6;}
	.st296{fill:#AC8B9C;}
	.st297{fill:#F1EBEF;}
	.st298{fill:#9C7A8C;}
	.st299{fill:#8F6C80;}
	.st300{fill:#B99DAC;}
	.st301{fill:#A27F91;}
	.st302{fill:#C2A7B6;}
	.st303{fill:#AB8E9F;}
	.st304{fill:#936D82;}
	.st305{fill:#856174;}
	.st306{fill:#B99DAB;}
	.st307{fill:#C2A9B6;}
	.st308{fill:#A38091;}
	.st309{fill:#BBA3B0;}
	.st310{fill:#7A5468;}
	.st311{fill:#855F73;}
	.st312{fill:#AE8E9F;}
	.st313{fill:#7C556A;}
	.st314{fill:#7B5066;}
	.st315{fill:#855C71;}
	.st316{fill:#AF8E9F;}
	.st317{fill:#734B60;}
	.st318{fill:#694256;}
	.st319{fill:#916A80;}
	.st320{fill:#886378;}
	.st321{fill:#875C71;}
	.st322{fill:#714B5E;}
	.st323{fill:#582F42;}
	.st324{fill:#795066;}
	.st325{fill:#5E3A4B;}
	.st326{fill:#8A6578;}
	.st327{fill:#A98E9D;}
	.st328{fill:#B9A1B1;}
	.st329{fill:#B08F9F;}
	.st330{fill:#B898AA;}
	.st331{fill:#896578;}
	.st332{fill:#653C50;}
	.st333{fill:#623A4E;}
	.st334{fill:#6C4257;}
	.st335{fill:#B28FA1;}
	.st336{fill:#80596E;}
	.st337{fill:#7F586C;}
	.st338{fill:#765063;}
	.st339{fill:#683F53;}
	.st340{fill:#774E63;}
	.st341{fill:#704B5F;}
	.st342{fill:#674355;}
	.st343{fill:#7F5A6E;}
	.st344{fill:#815A6E;}
	.st345{fill:#6A4558;}
	.st346{fill:#5D374A;}
	.st347{fill:#926D80;}
	.st348{fill:#70475B;}
	.st349{fill:#72495E;}
	.st350{fill:#673D52;}
	.st351{fill:#673D51;}
	.st352{fill:#60364B;}
	.st353{fill:#795265;}
	.st354{fill:#683F52;}
	.st355{fill:#7A5368;}
	.st356{fill:#987387;}
	.st357{fill:#70475C;}
	.st358{fill:#A07D92;}
	.st359{fill:#81596E;}
	.st360{fill:#926C7F;}
	.st361{fill:#80596D;}
	.st362{fill:#CDC0E4;}
	.st363{fill:#A998CF;}
	.st364{fill:#644DA1;}
	.st365{fill:#5E479E;}
	.st366{fill:#6F56A9;}
	.st367{fill:#755CAC;}
	.st368{fill:#8975BA;}
	.st369{fill:#C4BAE0;}
	.st370{fill:#755DAD;}
	.st371{fill:#846DB7;}
	.st372{fill:#E7E2F2;}
	.st373{fill:#9B89C5;}
	.st374{fill:#8871B8;}
	.st375{fill:#9C89C6;}
	.st376{fill:#8673B9;}
	.st377{fill:#B9E1BA;}
	.st378{fill:#ADDBAE;}
	.st379{fill:#99D09A;}
	.st380{fill:#65B567;}
	.st381{fill:#5FB261;}
	.st382{fill:#70BB71;}
	.st383{fill:#8DCB8E;}
	.st384{fill:#CBE9CB;}
	.st385{fill:#86C687;}
	.st386{fill:#98D099;}
	.st387{fill:#EBF5EB;}
	.st388{fill:#B9D6C9;}
	.st389{fill:#8EBD9E;}
	.st390{fill:#7DB18E;}
	.st391{fill:#408251;}
	.st392{fill:#3A7F4C;}
	.st393{fill:#4A8C5B;}
	.st394{fill:#68A279;}
	.st395{fill:#B5D4BE;}
	.st396{fill:#7CB38B;}
	.st397{fill:#619D71;}
	.st398{fill:#E0ECE4;}
	.st399{fill:#74A38C;}
	.st400{fill:#679880;}
	.st401{fill:#669780;}
	.st402{fill:#669881;}
	.st403{fill:#285E41;}
	.st404{fill:#235A3C;}
	.st405{fill:#31684A;}
	.st406{fill:#4D8268;}
	.st407{fill:#A1C2B0;}
	.st408{fill:#679981;}
	.st409{fill:#467B62;}
	.st410{fill:#D6E5DF;}
	.st411{fill:#8ECA8F;}
	.st412{fill:#7DC07F;}
	.st413{fill:#409841;}
	.st414{fill:#3A933C;}
	.st415{fill:#4AA14B;}
	.st416{fill:#68B569;}
	.st417{fill:#7CC07D;}
	.st418{fill:#B5DDB5;}
	.st419{fill:#61B062;}
	.st420{fill:#7CC17E;}
	.st421{fill:#E0EFE0;}
	.st422{fill:#EBF5DE;}
	.st423{fill:#D4EAB8;}
	.st424{fill:#D2E9B4;}
	.st425{fill:#D8ECBE;}
	.st426{fill:#E2F0CE;}
	.st427{fill:#F3F9EA;}
	.st428{fill:#DFF0CA;}
	.st429{fill:#FAFDF7;}
	.st430{fill:#D3C9BE;}
	.st431{fill:#CBBEB3;}
	.st432{fill:#BBAC9F;}
	.st433{fill:#97826F;}
	.st434{fill:#947E69;}
	.st435{fill:#9F8A79;}
	.st436{fill:#B5A495;}
	.st437{fill:#DED6CE;}
	.st438{fill:#BBAD9F;}
	.st439{fill:#AE9E8D;}
	.st440{fill:#F2EFEC;}
	.st441{fill:#B1A091;}
	.st442{fill:#B1A090;}
	.st443{fill:#D8BACF;}
	.st444{fill:#976286;}
	.st445{fill:#905778;}
	.st446{fill:#4F1939;}
	.st447{fill:#4C1637;}
	.st448{fill:#5A2144;}
	.st449{fill:#773B60;}
	.st450{fill:#B88FAD;}
	.st451{fill:#6E345A;}
	.st452{fill:#8E567D;}
	.st453{fill:#E1CCDA;}
	.st454{fill:#C4E2A7;}
	.st455{fill:#93C35F;}
	.st456{fill:#8EC15A;}
	.st457{fill:#9AC868;}
	.st458{fill:#B0D587;}
	.st459{fill:#DCEBC3;}
	.st460{fill:#C8E0AA;}
	.st461{fill:#ABD280;}
	.st462{fill:#CAE2A9;}
	.st463{fill:#EFF8E7;}
	.st464{fill:#FFF6C0;}
	.st465{fill:#FFEC97;}
	.st466{fill:#FFDC4B;}
	.st467{fill:#FFD945;}
	.st468{fill:#FFDD54;}
	.st469{fill:#FFE774;}
	.st470{fill:#FFF4BA;}
	.st471{fill:#FFE46C;}
	.st472{fill:#FFF9E2;}
	.st473{fill:#FDE2C1;}
	.st474{fill:#F9CA98;}
	.st475{fill:#F9C18A;}
	.st476{fill:#F5994E;}
	.st477{fill:#F49448;}
	.st478{fill:#F8A158;}
	.st479{fill:#F8B577;}
	.st480{fill:#FCDDBC;}
	.st481{fill:#F8B06F;}
	.st482{fill:#FFEFE2;}
	.st483{fill:#F8A7A4;}
	.st484{fill:#EF8262;}
	.st485{fill:#EC605A;}
	.st486{fill:#EB5B55;}
	.st487{fill:#EC6964;}
	.st488{fill:#F28783;}
	.st489{fill:#F9C4C1;}
	.st490{fill:#F2817A;}
	.st491{fill:#EB6449;}
	.st492{fill:#FCE7E7;}
	.st493{fill:#FFEA88;}
	.st494{fill:#FFEB87;}
	.st495{fill:#FDF2E3;}
	.st496{fill:#FDEFDD;}
	.st497{fill:#F9E1C4;}
	.st498{fill:#FADEB9;}
	.st499{fill:#FADDB7;}
	.st500{fill:#FAE0BF;}
	.st501{fill:#FBE9CF;}
	.st502{fill:#F9DAB8;}
	.st503{fill:#FDF5EB;}
	.st504{fill:#FBE6CB;}
	.st505{fill:#FFFBF7;}
	.st506{fill:#FBDFBE;}
	.st507{fill:#F7D8B5;}
	.st508{fill:#FBE8CF;}
	.st509{fill:#FBE3C8;}
	.st510{fill:#F9E8CF;}
	.st511{fill:#F8DBB7;}
	.st512{fill:#FADBB5;}
	.st513{fill:#F7D5AE;}
	.st514{fill:#FDE9D5;}
	.st515{fill:#FAE3C8;}
	.st516{fill:#F7D1A4;}
	.st517{fill:#F5CD9D;}
	.st518{fill:#F7D8B0;}
	.st519{fill:#F8D4A9;}
	.st520{fill:#F8D3A6;}
	.st521{fill:#F8D8AF;}
	.st522{fill:#F7CD9E;}
	.st523{fill:#F4C896;}
	.st524{fill:#FBE3C5;}
	.st525{fill:#F7DBB8;}
	.st526{fill:#F7D8B1;}
	.st527{fill:#F7D7B0;}
	.st528{fill:#F8CD9F;}
	.st529{fill:#F8CD9E;}
	.st530{fill:#F1BE84;}
	.st531{fill:#F8D0A3;}
	.st532{fill:#F1C38D;}
	.st533{fill:#F8D8B1;}
	.st534{fill:#FBE2C8;}
	.st535{fill:#F9EAD3;}
	.st536{fill:#F9D3AA;}
	.st537{fill:#F7C896;}
	.st538{fill:#F7C794;}
	.st539{fill:#F7CA9A;}
	.st540{fill:#F7D3AB;}
	.st541{fill:#F8D8B5;}
	.st542{fill:#F9E6CF;}
	.st543{fill:#F7C897;}
	.st544{fill:#F8D3AA;}
	.st545{fill:#F7CEA2;}
	.st546{fill:#F4CD9E;}
	.st547{fill:#F5D2A5;}
	.st548{fill:#FBE2C2;}
	.st549{fill:#F5D1A8;}
	.st550{fill:#F8D5AB;}
	.st551{fill:#F2C695;}
	.st552{fill:#F8D3A8;}
	.st553{fill:#F5C998;}
	.st554{fill:#F5C894;}
	.st555{fill:#F2C997;}
	.st556{fill:#F2C48D;}
	.st557{fill:#F4C694;}
	.st558{fill:#F5CE9D;}
	.st559{fill:#F4C594;}
	.st560{fill:#F5C995;}
	.st561{fill:#F4C48F;}
	.st562{fill:#F7D2A6;}
	.st563{fill:#F8DFBB;}
	.st564{fill:#FBE2C3;}
	.st565{fill:#F8CC9E;}
	.st566{fill:#FADFC1;}
	.st567{fill:#F9D8B5;}
	.st568{fill:#F4C997;}
	.st569{fill:#F9DDB8;}
	.st570{fill:#FDFCED;}
	.st571{fill:#FBF7D2;}
	.st572{fill:#F9F6CB;}
	.st573{fill:#F4EBA8;}
	.st574{fill:#F5E9A6;}
	.st575{fill:#F5EDAC;}
	.st576{fill:#F7F5C0;}
	.st577{fill:#FBFBE1;}
	.st578{fill:#F7F0BE;}
	.st579{fill:#FAF6CE;}
	.st580{fill:#FFFBF5;}
	.st581{fill:#BDDB97;}
	.st582{fill:#BBDC99;}
	.st583{fill:#BDDD99;}
	.st584{fill:#B0D484;}
	.st585{fill:#AFD484;}
	.st586{fill:#FFEA87;}
	.st587{fill:#D3E9BA;}
	.st588{fill:#E1EECE;}
	.st589{fill:#D3E8BB;}
	.st590{fill:#E3EECE;}
	.st591{opacity:0.9;}
	.st592{fill:#FFF8CD;}
	.st593{opacity:0.9;fill:#FFEE8A;}
	.st594{fill:#FFF19E;}
	.st595{fill:#FFF5B6;}
	.st596{fill:#FFFBE0;}
	.st597{fill:none;stroke:#FFF4B1;stroke-width:0;}
	.st598{fill:#FFFDF3;}
	.st599{fill:#FACEDD;}
	.st600{opacity:0.9;fill:#F38CAF;}
	.st601{fill:#F5A0BD;}
	.st602{fill:#F8B8CD;}
	.st603{fill:#FCE1EA;}
	.st604{fill:none;stroke:#F7B2C9;stroke-width:0;}
	.st605{fill:#FEF3F7;}
	.st606{fill:#FBDBB6;}
	.st607{fill:#FBD1A3;}
	.st608{fill:#F9B674;}
	.st609{fill:#F8B36E;}
	.st610{fill:#FABB7E;}
	.st611{fill:#FACB99;}
	.st612{fill:#FDE9D1;}
	.st613{fill:#FAC893;}
	.st614{fill:#F9D0A1;}
	.st615{fill:#FFF5EC;}
	.st616{fill:#D7ECC0;}
	.st617{fill:#B1D684;}
	.st618{fill:#ADD680;}
	.st619{fill:#B7D98D;}
	.st620{fill:#C8E2A7;}
	.st621{fill:#E8F2D6;}
	.st622{fill:#C3E0A0;}
	.st623{fill:#F5FAEF;}
	.st624{fill:#A87699;}
	.st625{fill:#A9716E;}
	.st626{fill:#9F698A;}
	.st627{fill:#9F698D;}
	.st628{fill:#65294F;}
	.st629{fill:#632638;}
	.st630{fill:#62244A;}
	.st631{fill:#612335;}
	.st632{fill:#6E3259;}
	.st633{fill:#6D2F40;}
	.st634{fill:#8B4E74;}
	.st635{fill:#C4A1BB;}
	.st636{fill:#9D688D;}
	.st637{fill:#82476E;}
	.st638{fill:#E7D6E1;}
	.st639{fill:#FFF9D6;}
	.st640{fill:#FFF2A6;}
	.st641{fill:#FFF4B0;}
	.st642{fill:#FFF7C4;}
	.st643{fill:#FFFCE6;}
	.st644{fill:#FFF3B5;}
	.st645{fill:#FFED8B;}
	.st646{fill:#FFED94;}
	.st647{fill:#FFF1A4;}
	.st648{fill:#FFF5BF;}
	.st649{fill:#FFF6CD;}
	.st650{fill:#FFE46E;}
	.st651{fill:#FFED98;}
	.st652{fill:#FFF3A9;}
	.st653{fill:#FFEC8D;}
	.st654{fill:#FFE66B;}
	.st655{fill:#FFEC8A;}
	.st656{fill:#FFE66D;}
	.st657{fill:#FFE571;}
	.st658{fill:#FFEF94;}
	.st659{fill:#FFEF9E;}
	.st660{fill:#FFED93;}
	.st661{fill:#FFE873;}
	.st662{fill:#FFE97A;}
	.st663{fill:#FFEC87;}
	.st664{fill:#FFF19F;}
	.st665{fill:#FFF1A8;}
	.st666{fill:#FFEA7E;}
	.st667{fill:#FFEB86;}
	.st668{fill:#FFEF97;}
	.st669{fill:#FFF2B0;}
	.st670{fill:#FFF4BC;}
	.st671{fill:#FFF5C1;}
	.st672{fill:#FFF8CF;}
	.st673{fill:#FFF8DC;}
	.st674{fill:#FFF0A0;}
	.st675{fill:#FFEE92;}
	.st676{fill:#FFF6CE;}
	.st677{fill:#FFFADD;}
	.st678{fill:#FFFBEC;}
	.st679{fill:#FFFDF5;}
	.st680{fill:#F49C52;}
	.st681{fill:#F69D52;}
	.st682{fill:#F8A55E;}
	.st683{fill:#F8B472;}
	.st684{fill:#F59D54;}
	.st685{fill:#F8A65F;}
	.st686{fill:#F8B474;}
	.st687{fill:#FDF3E9;}
	.st688{fill:#FAE8D1;}
	.st689{fill:#FAE8CF;}
	.st690{fill:#FAEBD4;}
	.st691{fill:#F9EDD7;}
	.st692{fill:#FBEFDE;}
	.st693{fill:#FBEFDD;}
	.st694{fill:#FDF8F1;}
	.st695{fill:#FBEDD7;}
	.st696{fill:#FBEFDC;}
	.st697{fill:#FFFBFA;}
	.st698{fill:#FFE771;}
	.st699{fill:#FFEB83;}
	.st700{fill:#FFED90;}
	.st701{fill:#F7B6CB;}
	.st702{fill:#F4A2BB;}
	.st703{fill:#EE7397;}
	.st704{fill:#ED6D94;}
	.st705{fill:#EF7C9F;}
	.st706{fill:#F399B5;}
	.st707{fill:#FAD1DE;}
	.st708{fill:#F291AE;}
	.st709{fill:#F3A1BB;}
	.st710{fill:#FDECF2;}
</style>
<g>
	<path class="st473" d="M15.23,101.87L15.23,101.87c0.93,1.56,2.15,3.21,3.74,4.82l0,0C17.38,105.08,16.16,103.43,15.23,101.87
		L15.23,101.87L15.23,101.87 M12.76,96.03c0.07,0.26,0.14,0.54,0.23,0.83l0,0l0,0l0,0C12.91,96.58,12.83,96.3,12.76,96.03
		L12.76,96.03 M12.27,92.57L12.27,92.57c0,0.2,0.01,0.53,0.05,0.97l0,0l0,0C12.28,93.1,12.27,92.77,12.27,92.57 M12.41,91.99
		c-0.03,0.15-0.07,0.27-0.13,0.36c0,0,0,0,0,0c0,0,0,0.08,0,0.22l0,0c0-0.15,0-0.22,0-0.22C12.33,92.26,12.37,92.14,12.41,91.99
		L12.41,91.99 M11.98,84.19c0,0.03,0,0.06,0.01,0.08c0.04,0.43,0.07,1.04,0.12,1.48c0.05,0.47,0.1,0.97,0.15,1.49
		c0.01,0.08,0.02,0.16,0.02,0.24l0,0c-0.01-0.08-0.01-0.16-0.02-0.24l0,0l0,0c-0.05-0.51-0.11-1.02-0.15-1.49l0,0
		c-0.06-0.45-0.09-1.05-0.12-1.48C11.99,84.24,11.98,84.21,11.98,84.19 M10.53,80.08c0.28,1.1,0.68,1.99,1.21,2.57l0,0
		C11.21,82.06,10.81,81.17,10.53,80.08L10.53,80.08 M13.14,59.17c-0.02,0.03-0.04,0.05-0.06,0.08c-0.01,0.02-0.03,0.04-0.04,0.05
		c0,0-0.45,1.15-1.01,2.99c-0.55,1.84-1.2,4.37-1.58,7.09c-0.04,0.24-0.07,0.48-0.1,0.72l0,0c0.03-0.24,0.07-0.48,0.1-0.72
		c0.39-2.72,1.04-5.25,1.58-7.09c0.57-1.83,1.01-2.99,1.01-2.99C13.07,59.26,13.11,59.22,13.14,59.17L13.14,59.17 M25.43,43.79
		c-0.26,0.16-0.52,0.33-0.78,0.49c0,0,0,0-0.01,0.01c0,0,0.01-0.01,0.01-0.01C24.91,44.12,25.18,43.96,25.43,43.79L25.43,43.79
		 M36.17,35.57c-0.96,0.85-1.97,1.73-3.05,2.61c-0.47,0.39-0.95,0.78-1.44,1.17l0,0c0.49-0.39,0.97-0.78,1.44-1.17
		C34.2,37.29,35.21,36.42,36.17,35.57L36.17,35.57"/>
	<path class="st473" d="M12.41,91.99c-0.03,0.15-0.07,0.27-0.13,0.36c0,0,0,0,0,0l0,0l0,0c0,0,0,0,0,0
		C12.33,92.26,12.37,92.14,12.41,91.99L12.41,91.99"/>
	<path class="st474" d="M55.41,20.77c-1.29,0-2.65,0.3-4.05,1.02c-4.18,2.35-7.44,5.69-10.52,8.94c-1.55,1.65-3.05,3.28-4.67,4.83
		c1.25-1.12,2.4-2.2,3.44-3.21l0,0c1.84-1.78,3.36-3.35,4.43-4.49l0,0c1.06-1.15,1.66-1.85,1.66-1.85s0,0,0,0c0,0,0,0,0,0s0,0,0,0
		c0,0,0,0,0,0s-0.6,0.7-1.66,1.85l0,0c-1.07,1.14-2.59,2.7-4.43,4.49l0,0c-1.04,1.01-2.19,2.09-3.44,3.21
		c-1.38,1.32-2.84,2.59-4.49,3.78c-1.89,1.49-3.96,2.99-6.25,4.45c-0.79,0.65-1.56,1.31-2.31,2.01c-2.32,2.16-4.43,4.61-6.3,7.7
		c-0.11,0.1-0.24,0.25-0.4,0.44c-0.44,0.76-0.75,1.42-0.87,1.89c-0.01,0.04-0.02,0.08-0.03,0.12c-0.82,1.04-1.6,2.12-2.38,3.22
		c-0.95,3.52-2.14,7.23-2.79,10.92C10.12,71.74,10,73.43,10,75.02c0,1.89,0.17,3.64,0.53,5.05c0.29,0.91,0.69,1.77,1.21,2.57
		c0.04,0.05,0.09,0.09,0.13,0.13l0,0c0,0,0,0.02,0.01,0.07c0.03,0.05,0.06,0.09,0.09,0.13c0.05,0.57,0.09,1.12,0.13,1.65
		c0.03,0.49,0.07,0.96,0.1,1.41c0.04,0.49,0.06,0.97,0.08,1.44c0.11,1.14,0.21,2.36,0.21,3.32l0,0l0,0l0,0l0,0l0,0l0,0l0,0l0,0l0,0
		l0,0c0,0.48-0.03,0.89-0.09,1.19c0.01,0.26,0.02,0.52,0.04,0.78c0.18,2.86,0.7,5.74,2.89,9.09c1.13,1.64,2.35,3.25,3.64,4.84
		c0.33,0.33,0.67,0.66,1.03,0.98c-0.07-0.06-0.13-0.12-0.2-0.18c0.07,0.06,0.13,0.12,0.2,0.18c-0.07-0.06-0.13-0.12-0.2-0.18
		c0.07,0.06,0.13,0.12,0.2,0.18c-0.36-0.33-0.7-0.65-1.03-0.98c0.37,0.46,0.75,0.91,1.13,1.37c0.89,1.02,1.77,2.04,2.66,3.06
		c0.58,0.65,1.16,1.28,1.75,1.9c1.32-3.59,2.41-7.41,4.43-10.46c-0.25-0.39-0.49-0.78-0.73-1.18c-2.65-4.5-4.05-9.37-4.14-13.6l0,0
		l0,0l0,0l0,0c0,0,0,0,0-0.01c0-0.04,0-0.18-0.04-0.41c-0.05-0.28-0.15-0.68-0.37-1.27c-0.41-1.31-1.27-3.25-2.95-6.12
		c0,0-0.16-0.9-0.27-2.35c-0.05-0.67-0.08-1.45-0.08-2.32l0,0c0-1.01,0.05-2.13,0.18-3.29c0.24-2.16,0.79-4.45,1.74-6.41
		c0.96-1.95,2.31-3.55,4.06-4.32c0,0,0.78-0.76,2.02-1.98c1.24-1.2,2.94-2.78,4.82-4.39c1.87-1.62,3.89-3.28,5.7-4.82
		c1.83-1.54,3.42-2.98,4.36-4.4c0,0,1.71-0.17,3.58-0.7c1.17-0.34,2.42-0.78,3.4-1.51c0.14-0.17,0.28-0.33,0.4-0.48
		c0.66-0.75,1.03-1.18,1.03-1.18l0,0l0,0l0,0l0,0c-0.34,0.68-0.84,1.22-1.43,1.66c-0.49,0.59-1.09,1.32-1.74,2.18
		c0.72-0.77,1.46-1.49,2.22-2.17c1.58-1.4,3.21-2.59,4.73-3.5c2.29-1.38,4.33-2.09,5.59-2.09c0.41,0,0.74,0.08,0.96,0.23
		c0,0,0.37-0.08,1.01-0.21c0.63-0.14,1.54-0.3,2.61-0.43c1.24-0.16,2.7-0.26,4.21-0.26c1.1,0,2.22,0.05,3.3,0.18
		c2.15,0.25,4.11,0.77,5.41,1.44c-2.11-1.6-4.23-3.52-6.35-5.51c-1.37-1.27-2.72-2.55-4.04-3.83c-2.05-2.15-4.3-4.96-7.06-6.82
		C59.39,21.55,57.49,20.77,55.41,20.77"/>
	<path class="st475" d="M18.97,106.69L18.97,106.69c0.33,0.33,0.67,0.66,1.03,0.98c-0.07-0.06-0.13-0.12-0.2-0.18
		C19.52,107.23,19.24,106.96,18.97,106.69 M12.5,90.8c0,0.48-0.03,0.89-0.09,1.19l0,0C12.47,91.69,12.5,91.28,12.5,90.8L12.5,90.8
		 M12.5,90.8L12.5,90.8L12.5,90.8L12.5,90.8L12.5,90.8 M10.34,70.09L10.34,70.09C10.12,71.74,10,73.43,10,75.02l0,0
		C10,73.43,10.12,71.74,10.34,70.09L10.34,70.09 M15.55,55.83c-0.01,0.04-0.02,0.08-0.03,0.12l0,0c-0.82,1.04-1.6,2.12-2.38,3.22
		l0,0l0,0c0.78-1.1,1.56-2.18,2.38-3.22C15.53,55.91,15.54,55.87,15.55,55.83 M16.42,53.94L16.42,53.94
		c-0.44,0.76-0.75,1.42-0.87,1.89l0,0C15.67,55.36,15.98,54.7,16.42,53.94L16.42,53.94 M31.68,39.34L31.68,39.34
		c-1.89,1.49-3.96,2.99-6.25,4.45l0,0l0,0C27.72,42.33,29.79,40.83,31.68,39.34L31.68,39.34 M39.61,32.36L39.61,32.36
		c-1.04,1.01-2.19,2.09-3.44,3.21l0,0l0,0C37.42,34.45,38.57,33.37,39.61,32.36L39.61,32.36 M45.7,26.02
		C45.7,26.02,45.7,26.02,45.7,26.02c-0.03,0.03-0.62,0.73-1.66,1.85l0,0l0,0l0,0C45.1,26.72,45.7,26.02,45.7,26.02"/>
	<path class="st474" d="M31.68,39.34c-0.28,0.2-0.56,0.39-0.84,0.59c-1.95,1.24-3.73,2.51-5.4,3.86
		C27.72,42.33,29.79,40.83,31.68,39.34"/>
	<path class="st474" d="M79.52,39.59c0.43,0.52,1.53,1.81,2.89,3.17c1.07,0.01,2.14,0.05,3.21,0.12c2.23,0.65,4.38,1.24,6.29,2.22
		c1.9,0.98,3.53,2.36,4.55,4.49c0.53,1.15,0.97,2.32,1.3,3.52c0.18,0.6,0.28,1.19,0.46,1.8c0.21,0.61,0.5,1.27,1.2,1.85
		c0.5,0.44,1.39,0.79,2.43,0.79c0.33,0,0.67-0.03,1.02-0.11c0,0,0.01,0,0.01,0c0.27,0,0.95-0.37,1.42-0.74
		c0.49-0.38,0.96-0.91,1.28-1.39c0.69-1.05,1.02-2.01,1.23-2.94c0.14-0.66,0.22-1.29,0.21-1.93c0-0.25-0.01-0.51-0.04-0.76
		c-0.03-0.44-0.15-0.95-0.27-1.42c-0.07-0.25-0.19-0.53-0.3-0.78c-0.13-0.27-0.21-0.49-0.42-0.81c-0.39-0.59-0.75-1.12-1.52-1.75
		c-0.17-0.15-0.35-0.29-0.54-0.42c-0.18-0.13-0.36-0.26-0.63-0.41c-0.5-0.28-1.03-0.52-1.58-0.71c-0.88-0.32-2.04-0.49-3.1-0.49
		c-0.23,0-0.45,0.01-0.67,0.02c-0.6,0.04-1.22,0.14-1.81,0.28c-0.3,0.07-0.59,0.16-0.87,0.25c-0.25,0.08-0.45,0.14-0.67,0.22
		c-0.37,0.14-0.62,0.22-0.74,0.22c-0.07,0-0.11-0.02-0.11-0.07l0,0c0-0.03,0.01-0.07,0.04-0.12c0.07-0.13,0.24-0.33,0.52-0.58
		c0.14-0.12,0.31-0.26,0.5-0.39c0.25-0.17,0.56-0.35,0.9-0.52c0.69-0.35,1.53-0.69,2.56-0.91c0.68-0.15,1.5-0.23,2.33-0.23
		c0.44,0,0.89,0.02,1.32,0.08c0.6,0.07,1.22,0.19,1.85,0.37c0.31,0.09,0.65,0.2,0.93,0.31c0.11,0.04,0.23,0.09,0.34,0.13
		c-0.06-0.02-0.11-0.05-0.17-0.07c-0.24-0.09-0.64-0.24-0.97-0.34c-0.34-0.1-0.69-0.19-1.03-0.27c-0.74-0.16-1.57-0.25-2.4-0.25
		c-0.62,0-1.23,0.05-1.8,0.14c-1.32,0.21-2.36,0.61-3.29,1.08c-0.22,0.12-0.45,0.24-0.64,0.36c-0.15,0.1-0.29,0.2-0.44,0.3
		c-0.28,0.2-0.53,0.4-0.75,0.59c-0.44,0.39-0.76,0.74-0.99,1.03l-0.03,0.06l0.01,0.02l0.03,0.04l0.06,0.08
		c0.08,0.11,0.18,0.21,0.3,0.29c0.79-0.47,1.64-0.86,2.53-1.13c0.56-0.19,1.16-0.33,1.76-0.42c0.49-0.07,0.96-0.11,1.47-0.11
		c0.12,0,0.24,0,0.37,0.01c2.75,0.08,4.71,1.34,5.82,2.53c0.97,1.11,1.44,2.24,1.6,3.13c0.11,0.51,0.15,0.99,0.15,1.46l0,0
		c0,0.4-0.03,0.8-0.08,1.2c-0.13,0.88-0.36,1.76-0.86,2.74c-0.49,0.97-1.35,2-2.42,2.53c-0.56,0.21-1.08,0.29-1.55,0.29
		c-0.86,0-1.56-0.28-2.06-0.61c-0.76-0.54-1.08-1.2-1.3-1.81c-0.21-0.62-0.29-1.21-0.47-1.8c-0.33-1.2-0.77-2.37-1.3-3.52
		c-1.02-2.13-2.66-3.52-4.56-4.5c-1.91-0.99-4.06-1.59-6.3-2.24C83.58,42.18,81.55,41.05,79.52,39.59"/>
	<path class="st474" d="M16.42,53.94c-0.97,1.19-2.75,3.91-3.23,5.05c-0.02,0.06-0.03,0.12-0.05,0.18c0.78-1.1,1.56-2.18,2.38-3.22
		c0.01-0.04,0.02-0.08,0.03-0.12C15.67,55.36,15.98,54.7,16.42,53.94"/>
	<path class="st474" d="M77.92,60.38c-1.21,0-2.26,0.82-3.33,1.39c-0.7,0.54-1.68,0.61-2.77,0.61c-0.25,0-0.5,0-0.75-0.01
		c-0.21,0-0.42-0.01-0.63-0.01c-0.38,0-0.76,0.01-1.13,0.04c-1.39,0.43-2.42,1.27-3.43,2.06c-0.21,0.17-0.42,0.33-0.64,0.49
		c-0.31,0.54-0.56,1.12-0.78,1.68c-0.58,1.43-1.06,2.74-2.34,3.33c0.11-0.04,0.2-0.06,0.26-0.06c0.12,0,0.18,0.07,0.18,0.19l0,0
		c0,0.52-0.93,1.98-1.71,3.49c-0.84,1.59-1.63,3.19-1.92,3.19c-0.07,0-0.11-0.1-0.12-0.34c-0.06,0.11-0.31,0.17-0.63,0.17
		c-0.12,0-0.26-0.01-0.39-0.02c0.07,0.43,0.16,0.88,0.26,1.34c0.34,1.58,0.8,4.37,1.69,6.84c0.44,1.24,0.95,2.4,1.53,3.35
		c0.29,0.43,0.59,0.98,0.9,1.44c0.32,0.44,0.63,0.82,0.97,1.09c1.83,1.14,1.24,2.57,2.91,3.25l0,0l0,0l0,0l0,0
		c0,0-0.49,0.2-1.35,0.64c0.02,0.01,0.05,0.01,0.07,0.02c0.32,0.09,0.78,0.19,1.31,0.3c1.01,0.21,2.27,0.38,3.26,0.38
		c0.03,0,0.06,0,0.09,0c0.86-0.1,1.49-0.3,1.57-0.32c0.19-0.1,0.36-0.18,0.5-0.25c0.11-0.05,0.2-0.09,0.28-0.12l0,0l0,0l0,0l0,0
		c-0.08,0.03-0.17,0.07-0.28,0.12c-0.14,0.07-0.31,0.15-0.49,0.24h0c0,0,0,0,0,0l0,0c0,0,0,0,0,0c-0.38,0.2-0.84,0.46-1.32,0.78
		c-0.07,0.05-0.14,0.1-0.22,0.15c-0.1,0.07-0.19,0.14-0.29,0.2l-0.25,0.18c-0.03,0.02-0.06,0.04-0.09,0.07c0,0-0.01,0.01-0.01,0.01
		c-0.13,0.1-0.26,0.2-0.39,0.31c0,0-0.01,0.01-0.03,0.02c-0.12,0.1-0.25,0.21-0.37,0.31c-0.03,0.02-0.06,0.05-0.08,0.08
		c-0.06,0.06-0.13,0.12-0.21,0.19c-0.12,0.11-0.24,0.22-0.35,0.34c-0.01,0.01-0.01,0.01-0.02,0.02c0,0-0.01,0.01-0.01,0.01
		c-0.24,0.24-0.48,0.49-0.69,0.73c-0.44,0.51-0.78,0.97-0.96,1.26c-0.1,0.17-0.17,0.27-0.24,0.39c-0.01,0.03-0.03,0.05-0.04,0.08
		c0,0.01-0.01,0.01-0.01,0.02c-0.01,0.01-0.01,0.02-0.02,0.03c-0.01,0.01-0.01,0.02-0.02,0.03c-0.05,0.09-0.09,0.17-0.14,0.29l0,0
		l-0.11,0.05c-0.42,0.76-0.8,1.62-1.07,2.57l-14.87,9.95c0.85-0.36,1.7-0.57,2.52-0.57c0.9,0,1.77,0.24,2.58,0.78
		c0,0,0.82,0.54,2.17,1.49c1.23-0.43,2.23-0.95,2.98-1.44l0,0l0,0l0,0l-2.58,1.73c-0.14-0.1-0.27-0.19-0.4-0.28
		c-1.38,0.48-3.04,0.84-4.98,0.91c-0.25,0.01-0.51,0.02-0.78,0.02c-1.45,0-3.02-0.17-4.65-0.54l-0.39,0.26l0,0l0,0
		c0.11-0.1,0.21-0.19,0.32-0.28c-1.74-0.4-3.54-1.02-5.32-1.88c-1.66,0.64-3,1.69-4.9,2.25c-0.12,0.02-0.25,0.03-0.37,0.03
		c-0.3,0-0.62-0.06-0.95-0.11c-0.32-0.06-0.64-0.11-0.95-0.11c-0.13,0-0.25,0.01-0.37,0.03c-0.45,0.15-0.92,0.32-1.39,0.53l0,0l0,0
		l0,0l7.43-3.41c-0.03-0.01-0.05-0.03-0.08-0.04c-0.23-0.13-0.47-0.27-0.7-0.41c-0.03,0.01-0.07,0.02-0.1,0.03l0,0l0,0l0,0
		l0.09-0.04c-0.49-0.3-0.97-0.61-1.45-0.95l-10.54,3.93c3.55,3.54,7.21,6.8,11.26,10.35c3.82,3.21,7.91,6.03,12.56,8.47l25.24,13.23
		l3.89-32.73c0.08-0.64,0.19-1.29,0.37-1.93c0.14-0.98,4.79-4.27,6.34-5.16c1.05-0.64,1.45-1.43,1.45-2.25
		c0-1.38-1.13-2.88-2.33-4.09c-0.98-0.23-1.86-0.7-2.66-1.14c-0.8-0.46-1.52-0.97-2.17-1.52c-1.3-1.11-2.31-2.41-3.11-3.88
		c-0.01-0.05-0.01-0.1-0.01-0.15l0,0c0-0.8,1.21-1.03,1.35-1.8c-0.16-1.15-0.9-2.55-1.65-4.12c-0.75-1.56-1.51-3.3-1.68-4.88l0,0
		l0,0l0,0l0,0c0.36-2.38,1.01-4.06,1.51-5.24c0.49-1.2,0.83-1.94,0.94-2.52c0.06-0.24,0.08-0.44,0.08-0.62
		c0-0.45-0.14-0.7-0.14-0.78l0,0c0-0.02,0.01-0.03,0.03-0.03c0.02,0,0.04,0,0.07,0.01c0.06-0.02,0.13-0.03,0.2-0.03
		c1.02,0,2.94,2.15,4.24,2.43c0.04,0,0.08,0,0.12,0c0.28,0,0.53-0.05,0.76-0.14c-0.78-0.27-1.8-0.53-2.15-0.84
		c-0.01-0.01-0.01-0.02-0.01-0.04l0,0c0-0.25,1.51-0.54,3.63-0.84c0.18-0.43,0.31-0.9,0.43-1.38c0.66-2.3,1.91-4.71,3.84-6.35
		c0.96-0.82,2.07-1.44,3.27-1.75c0.1-0.03,0.21-0.05,0.31-0.07c-0.95-0.69-1.82-1.97-2.82-2.6c-0.73-0.38-1.48-0.5-2.25-0.5
		c-0.69,0-1.39,0.1-2.1,0.2c-0.72,0.1-1.45,0.2-2.19,0.2c-0.04,0-0.07,0-0.11,0c-1.08-0.27-2.05-0.78-3.36-1.53
		C78.95,60.53,78.42,60.38,77.92,60.38"/>
	<path class="st474" d="M10.34,70.09c-0.09,0.51-0.17,1.02-0.24,1.53c-0.17,1.22-0.26,2.43-0.26,3.61c0,1.71,0.21,3.35,0.69,4.85
		C10.17,78.66,10,76.91,10,75.02l0,0l0,0l0,0l0,0l0,0l0,0l0,0l0,0l0,0l0,0C10,73.43,10.12,71.74,10.34,70.09"/>
	<path class="st474" d="M49.02,81.82c0.23,1.11,0.55,2.19,0.96,3.22c0.45,1.14,1.02,2.19,1.71,3.2c0.68,1.04,1.5,2,2.43,2.84
		c0.36,0.32,0.73,0.62,1.12,0.91c-0.82-1-1.6-2.09-2.35-3.25c-0.78-1.22-1.54-2.38-2.25-3.7C50.08,84.03,49.54,82.95,49.02,81.82"/>
	<path class="st474" d="M11.74,82.64c0.04,0.07,0.09,0.13,0.13,0.2c0-0.04-0.01-0.07-0.01-0.07l0,0
		C11.83,82.73,11.79,82.69,11.74,82.64"/>
	<path class="st474" d="M12.29,87.48c0.01,0.3,0.02,0.6,0.03,0.9c0.03,1.24,0.04,2.43,0.09,3.61c0.07-0.3,0.09-0.71,0.09-1.19
		C12.5,89.84,12.39,88.62,12.29,87.48"/>
	<path class="st475" d="M12.29,87.48L12.29,87.48c0.11,1.14,0.21,2.36,0.21,3.32l0,0c0-0.01,0-0.02,0-0.02
		C12.5,89.82,12.39,88.61,12.29,87.48"/>
	<path class="st474" d="M63.87,94.98c-0.31,0.17-0.64,0.37-1,0.59c0.1,0.06,0.2,0.12,0.31,0.18C63.44,95.5,63.67,95.25,63.87,94.98"
		/>
	<path class="st474" d="M69.8,95.62c-0.09,0.06-0.18,0.12-0.28,0.18c0.05-0.04,0.1-0.07,0.16-0.11
		C69.72,95.67,69.76,95.64,69.8,95.62"/>
	<path class="st474" d="M67.74,97.21c-0.28,0.25-0.62,0.58-0.99,1c-0.53,0.57-1.1,1.33-1.61,2.23l0.11-0.04
		c0.04-0.09,0.08-0.19,0.14-0.29c0.01-0.02,0.02-0.04,0.03-0.06c0.02-0.04,0.04-0.07,0.05-0.1c0.07-0.13,0.13-0.22,0.22-0.36
		c0.01-0.01,0.01-0.02,0.02-0.03c0.01-0.01,0.01-0.02,0.02-0.03c0.21-0.35,0.54-0.78,0.95-1.23c0.21-0.24,0.44-0.49,0.69-0.73
		c0.01-0.01,0.02-0.02,0.03-0.03C67.5,97.44,67.62,97.32,67.74,97.21"/>
	<path class="st474" d="M43.93,100.66c0.04,0.08,0.07,0.15,0.11,0.23c1.17,0.55,2.44,1.01,3.82,1.34c0,0,0.36-0.02,0.96-0.11
		c-0.14-0.03-0.28-0.05-0.42-0.08C46.9,101.73,45.39,101.26,43.93,100.66"/>
	<path class="st476" d="M105.05,41.96c0.48,0.2,0.97,0.44,1.45,0.72c0.59,0.34,0.92,0.58,1.33,0.89c0.38,0.29,0.83,0.68,1.12,0.96
		c0.6,0.57,1.2,1.28,1.6,1.87c0.9,1.28,1.49,2.55,1.9,4.07c0.2,0.79,0.34,1.55,0.38,2.52c0.01,0.25,0.02,0.46,0.02,0.69l0,0
		c0,0.22-0.01,0.46-0.03,0.74c-0.04,0.53-0.11,1.06-0.2,1.58c-0.09,0.5-0.27,1.16-0.47,1.72c-0.2,0.58-0.42,1.11-0.74,1.72
		c-0.62,1.18-1.39,2.22-2.31,3.13c-0.21,0.2-0.42,0.4-0.63,0.59c-0.21,0.18-0.48,0.4-0.55,0.46c-0.24,0.19-0.49,0.37-0.74,0.54
		c-0.5,0.35-1.04,0.65-1.59,0.93c-0.55,0.28-1.09,0.49-1.65,0.69c-0.54,0.18-1.06,0.32-1.6,0.43c-1.04,0.21-1.95,0.28-2.75,0.28
		c-0.79,0-1.47-0.07-2.05-0.15c-1.58-0.25-2.71-0.67-3.21-0.91c-0.05,0.03-0.1,0.05-0.16,0.07l0.04,0.03
		c0.05,0.03,0.24,0.1,0.35,0.15c0.58,0.22,1.33,0.48,2.39,0.69c0.69,0.13,1.53,0.24,2.57,0.24c0.56,0,1.18-0.04,1.87-0.12
		c1.91-0.23,4.4-1.1,6.36-2.61l0.45-0.35c0.25-0.2,0.5-0.42,0.74-0.65c0.48-0.46,0.93-0.96,1.34-1.49c0.79-1.03,1.51-2.36,1.89-3.47
		c0.56-1.59,0.75-2.97,0.75-4.21c0-0.69-0.06-1.35-0.15-1.96c-0.27-1.66-0.79-3.02-1.51-4.29c-0.36-0.63-0.8-1.26-1.28-1.85
		c-0.27-0.32-0.55-0.63-0.84-0.92c-0.26-0.26-0.63-0.6-1.01-0.9c-0.38-0.31-0.75-0.56-1.16-0.83c-0.49-0.31-1-0.59-1.51-0.82
		C105.32,42.07,105.18,42.01,105.05,41.96"/>
	<path class="st477" d="M100.6,41.06c-0.83,0-1.64,0.09-2.33,0.23c-1.03,0.22-1.87,0.56-2.56,0.91c-0.34,0.17-0.65,0.35-0.9,0.52
		c-0.19,0.14-0.36,0.27-0.5,0.39c-0.28,0.25-0.45,0.45-0.52,0.58c-0.02,0.05-0.04,0.09-0.04,0.12c0,0.05,0.03,0.07,0.11,0.07
		c0.13,0,0.37-0.08,0.74-0.22c0.22-0.08,0.43-0.15,0.67-0.22c0.29-0.09,0.58-0.18,0.87-0.25c0.59-0.15,1.21-0.24,1.81-0.28
		c0.22-0.02,0.44-0.02,0.67-0.02c1.06,0,2.22,0.17,3.1,0.49c0.54,0.19,1.08,0.43,1.58,0.71c0.27,0.15,0.45,0.27,0.63,0.41
		c0.18,0.13,0.36,0.28,0.54,0.42c0.77,0.63,1.13,1.16,1.52,1.75c0.21,0.32,0.29,0.54,0.42,0.81c0.11,0.26,0.23,0.54,0.3,0.78
		c0.13,0.47,0.25,0.98,0.27,1.42c0.02,0.26,0.04,0.51,0.04,0.76l0,0c0,0.64-0.07,1.28-0.21,1.93c-0.21,0.93-0.53,1.89-1.23,2.94
		c-0.32,0.48-0.79,1-1.28,1.39c-0.47,0.37-1.15,0.74-1.42,0.74c0,0-0.01,0-0.01,0c-0.35,0.08-0.69,0.11-1.02,0.11
		c-1.04,0-1.93-0.35-2.43-0.79c-0.7-0.58-0.99-1.24-1.2-1.85c-0.18-0.61-0.28-1.21-0.46-1.8c-0.33-1.2-0.77-2.37-1.3-3.52
		c-1.02-2.13-2.66-3.51-4.55-4.49c-1.91-0.98-4.06-1.57-6.29-2.22c-1.07-0.08-2.14-0.12-3.21-0.12c0.09,0.09,0.18,0.17,0.27,0.26
		c1.91,1.84,4.11,3.71,6.55,3.71c0.01,0,0.01,0,0.02,0c0,0,0.22,0.17,0.58,0.44c0.36,0.29,0.86,0.71,1.42,1.21
		c1.12,1.03,2.43,2.41,3.38,3.83c0.95,1.38,1.55,2.76,1.55,3.72l0,0c0,0.02,0,0.03,0,0.05c-0.02,0.85-0.49,1.36-1.61,1.36
		c-0.16,0-0.34-0.01-0.53-0.03c0,0-0.81,0.14-1.85,0.32c0.03,0.03,0.06,0.06,0.1,0.08c0.49,0.44,0.98,0.9,1.46,1.37
		c0.97,0.95,1.94,1.94,2.97,2.85c0.4,0.54,1.04,1.08,1.08,1.79c0.01,0.04,0.02,0.08,0.02,0.11l0,0c0,0.39-0.76,0.24-1.14,0.47l0,0
		l0,0c-0.14,0.78-1.44,0.48-2.14,0.99c-0.07,0.04-0.13,0.08-0.2,0.12c0.5,0.24,1.63,0.66,3.21,0.91c0.58,0.08,1.26,0.15,2.05,0.15
		c0.8,0,1.72-0.07,2.75-0.28c0.54-0.12,1.06-0.25,1.6-0.43c0.56-0.2,1.1-0.41,1.65-0.69c0.55-0.27,1.09-0.58,1.59-0.93
		c0.25-0.17,0.5-0.35,0.74-0.54c0.08-0.06,0.35-0.28,0.55-0.46c0.22-0.19,0.43-0.39,0.63-0.59c0.92-0.9,1.69-1.95,2.31-3.13
		c0.32-0.61,0.54-1.14,0.74-1.72c0.19-0.55,0.37-1.21,0.47-1.72c0.1-0.52,0.17-1.05,0.2-1.58c0.02-0.28,0.03-0.51,0.03-0.74
		c0-0.23-0.01-0.45-0.02-0.69c-0.05-0.96-0.19-1.73-0.38-2.52c-0.41-1.52-1-2.79-1.9-4.07c-0.41-0.58-1-1.3-1.6-1.87
		c-0.29-0.28-0.74-0.67-1.12-0.96c-0.41-0.31-0.75-0.54-1.33-0.89c-0.48-0.28-0.97-0.52-1.45-0.72c-0.11-0.05-0.23-0.09-0.34-0.13
		c-0.28-0.11-0.62-0.22-0.93-0.31c-0.63-0.18-1.26-0.3-1.85-0.37C101.49,41.09,101.04,41.06,100.6,41.06"/>
	<path class="st477" d="M61.12,58.16c0,0-0.48,0.16-1.3,0.52c-0.57,0.27-1.32,0.64-2.16,1.17c0.53-0.03,1.07-0.04,1.61-0.04
		c0.27,0,0.54,0,0.8,0.01c0.51-0.09,1.03-0.41,1.11-0.83c0.07-0.28,0.17-0.53,0.28-0.77C61.33,58.22,61.21,58.19,61.12,58.16"/>
	<path class="st477" d="M69.3,62.41c-0.78,0.06-1.52,0.22-2.12,0.57c-0.87,0.45-1.48,1.17-1.94,1.99c0.21-0.16,0.43-0.33,0.64-0.49
		C66.89,63.68,67.91,62.83,69.3,62.41"/>
	<path class="st477" d="M50.21,68.91c-0.2,0.5-0.39,1.01-0.56,1.53c-0.71,2.16-1.08,4.55-1.08,6.95c0,1.49,0.15,2.99,0.45,4.44
		c0.51,1.13,1.06,2.2,1.62,3.22c0.71,1.32,1.47,2.47,2.25,3.7c0.75,1.16,1.53,2.25,2.35,3.25c1.68,1.22,3.7,2.1,6.04,2.53
		c0,0,0.66,0.48,1.52,1c0.03,0.02,0.05,0.03,0.08,0.05c0.36-0.22,0.69-0.42,1-0.59c0.13-0.18,0.26-0.36,0.36-0.55
		c0,0,0.16,0.04,0.45,0.11c0.86-0.44,1.35-0.64,1.35-0.64c-1.67-0.69-1.08-2.11-2.91-3.25c-0.33-0.27-0.65-0.65-0.97-1.09
		c-0.31-0.46-0.61-1-0.9-1.44c-0.58-0.95-1.09-2.11-1.53-3.35c-0.89-2.47-1.35-5.26-1.69-6.84c-0.1-0.46-0.19-0.9-0.26-1.34
		c-0.27-0.03-0.56-0.1-0.8-0.2c-0.44-0.33-1.19-0.64-1.32-0.99C54.66,72.69,52.08,70.99,50.21,68.91"/>
	<path class="st478" d="M69.82,37.23c-1.51,0-2.97,0.1-4.21,0.26c-1.07,0.14-1.98,0.29-2.61,0.43c-0.64,0.14-1.01,0.21-1.01,0.21
		c-0.23-0.15-0.55-0.23-0.96-0.23c-1.26,0-3.29,0.71-5.59,2.09c-1.52,0.91-3.15,2.1-4.73,3.5c-0.76,0.68-1.5,1.41-2.22,2.17
		c-0.14,0.18-0.28,0.37-0.42,0.57c-2.03,2.73-4.39,6.62-6.11,10.82c-1.64,3.93-2.78,8.03-3.69,11.4c2.1-2.41,4.35-4.28,5.74-4.88
		c2.54-1.25,5.09-2.19,7.73-2.84c1.9-0.47,3.86-0.79,5.9-0.9c0.84-0.53,1.59-0.9,2.16-1.17c0.82-0.36,1.3-0.52,1.3-0.52
		c0.09,0.04,0.21,0.06,0.35,0.07c0.55-1.11,1.57-1.81,2.67-2.33c1.32-0.65,2.75-1.04,3.69-1.9c0.86-0.67,1.39-1.8,2.71-1.97
		c1.03-0.13,2.09-0.19,3.15-0.19c2.49,0,5.02,0.34,7.45,0.95c3.47,0.86,6.7,2.14,9.53,3.73c0.3,0.18,0.6,0.36,0.87,0.56
		c0.22,0.18,0.43,0.36,0.65,0.55c1.05-0.18,1.85-0.32,1.85-0.32c0.19,0.02,0.36,0.03,0.53,0.03c1.12,0,1.59-0.51,1.61-1.36
		c0-0.02,0-0.03,0-0.05c0-0.96-0.6-2.34-1.55-3.72c-0.95-1.42-2.26-2.8-3.38-3.83c-0.56-0.5-1.06-0.92-1.42-1.21
		c-0.37-0.28-0.58-0.44-0.58-0.44c-0.01,0-0.01,0-0.02,0c-2.44,0-4.64-1.87-6.55-3.71c-0.09-0.09-0.18-0.18-0.27-0.26
		c-1.36-1.36-2.46-2.65-2.89-3.17c-0.12-0.15-0.19-0.23-0.19-0.23c-0.23-0.17-0.49-0.34-0.8-0.5c-1.3-0.68-3.26-1.2-5.41-1.44
		C72.04,37.28,70.92,37.23,69.82,37.23"/>
	<path class="st478" d="M50.05,68.73c-0.17,0.01-1.12,1.7-2.23,3.72c-1.12,2.01-2.41,4.36-3.77,5.46c-2.29,1.54-4.73,3.04-5.58,6.3
		c0.04,0.92,1.23,1.7,1.29,2.59l0,0l0,0l0,0l0,0c0,0.02,0,0.04,0,0.07c0,0.59,0.38,2.52,1.06,5.01c0.34,1.3,0.78,2.75,1.26,4.24
		c0.12,0.38,0.24,0.76,0.37,1.15l0.19,0.59c0.06,0.19,0.13,0.3,0.2,0.46c0.27,0.59,0.55,1.19,0.83,1.79
		c0.09,0.19,0.18,0.38,0.27,0.57c1.45,0.61,2.96,1.08,4.46,1.37c0.14,0.03,0.28,0.06,0.42,0.08c0.37-0.05,0.82-0.13,1.34-0.24
		c1.38-0.29,3.2-0.82,5.07-1.57c1.87-0.76,3.77-1.67,5.39-2.66c0.99-0.62,1.88-1.22,2.57-1.88c-0.1-0.06-0.21-0.12-0.31-0.18
		c-0.03-0.02-0.05-0.03-0.08-0.05c-0.86-0.52-1.52-1-1.52-1c-2.34-0.43-4.35-1.31-6.04-2.53c-0.39-0.28-0.77-0.59-1.12-0.91
		c-0.93-0.85-1.75-1.8-2.43-2.84c-0.68-1-1.26-2.06-1.71-3.2c-0.41-1.03-0.73-2.11-0.96-3.22c-0.3-1.45-0.45-2.94-0.45-4.44l0,0
		c0-2.4,0.37-4.79,1.08-6.95c0.17-0.53,0.36-1.04,0.56-1.53C50.16,68.85,50.11,68.79,50.05,68.73"/>
	<path class="st479" d="M51.66,41.83c0,0-0.37,0.43-1.03,1.18c-0.12,0.15-0.26,0.31-0.4,0.48C50.82,43.05,51.32,42.51,51.66,41.83"
		/>
	<path class="st479" d="M50.23,43.49c-0.99,0.73-2.23,1.17-3.4,1.51c-1.87,0.52-3.58,0.7-3.58,0.7c-0.94,1.42-2.53,2.86-4.36,4.4
		c-1.81,1.54-3.84,3.2-5.7,4.82c-1.87,1.61-3.58,3.2-4.82,4.39c-1.24,1.22-2.02,1.98-2.02,1.98c-1.76,0.77-3.1,2.37-4.06,4.32
		c-0.95,1.95-1.51,4.25-1.74,6.41c-0.14,1.16-0.18,2.28-0.18,3.29c0,0.86,0.04,1.65,0.08,2.32c0.11,1.45,0.27,2.35,0.27,2.35
		c1.68,2.87,2.54,4.81,2.95,6.12c0.21,0.59,0.32,0.99,0.37,1.27c0.04,0.23,0.04,0.37,0.04,0.41l0,0c0,0.01,0,0.01,0,0.01
		c0.1,4.23,1.49,9.1,4.14,13.6c0.23,0.4,0.47,0.79,0.73,1.18c0.84-1.27,1.85-2.41,3.1-3.35c0.35-0.38,0.62-0.71,0.82-1.06
		c0.1-0.17,0.19-0.35,0.26-0.53c0.04-0.09,0.07-0.19,0.1-0.28c0.03-0.09,0.06-0.28,0.09-0.43c-0.1-0.19-0.24-0.62-0.36-1.06
		c-0.13-0.42-0.26-0.84-0.36-1.02l0,0l0,0l0,0l0,0c0.02-0.55,0.05-1.1,0.1-1.64c-0.41-0.5-0.95-1.42-1.36-2.84
		c-0.33-1.14-0.58-2.6-0.59-4.39l0,0c0-0.2,0-0.41,0.01-0.62c0.05-2.07,0.45-4.55,1.38-7.32c0.59-1.29,2.46-4.93,4.9-8
		c0.41-0.53,0.83-1.05,1.26-1.54c0.91-3.37,2.05-7.47,3.69-11.4c1.71-4.2,4.08-8.09,6.11-10.82c0.14-0.2,0.28-0.39,0.42-0.57
		C49.14,44.81,49.74,44.08,50.23,43.49"/>
	<path class="st479" d="M64.24,94.43c-0.11,0.19-0.23,0.37-0.36,0.55c-0.2,0.27-0.43,0.52-0.69,0.77c-0.69,0.66-1.58,1.27-2.57,1.88
		c-1.62,0.99-3.52,1.9-5.39,2.66c-1.86,0.76-3.69,1.29-5.07,1.57c-0.52,0.11-0.98,0.19-1.34,0.24c-0.6,0.09-0.96,0.11-0.96,0.11
		c-1.38-0.34-2.65-0.79-3.82-1.34c1.11,2.35,2.21,4.6,2.95,6.34l18.14-6.77c0.51-0.91,1.09-1.66,1.61-2.23
		c0.37-0.42,0.72-0.75,0.99-1c0.01-0.01,0.01-0.01,0.02-0.02c0.34-0.32,0.69-0.61,1.01-0.85c0.2-0.16,0.4-0.3,0.57-0.42
		c0.06-0.04,0.12-0.08,0.18-0.12c0.09-0.06,0.18-0.13,0.28-0.18c0.45-0.29,0.86-0.53,1.2-0.7c-0.09,0.03-0.71,0.22-1.57,0.32
		c-0.03,0-0.06,0-0.09,0c-1,0-2.25-0.17-3.26-0.38c-0.52-0.1-0.98-0.21-1.31-0.3c-0.02-0.01-0.05-0.01-0.07-0.02
		C64.4,94.47,64.24,94.43,64.24,94.43"/>
	<polyline class="st479" points="71,94.91 71,94.91 71,94.91 71,94.91 71,94.91 	"/>
	<path class="st479" d="M69.46,95.84c-0.01,0.01-0.02,0.01-0.03,0.02c-0.03,0.02-0.06,0.04-0.09,0.06c-0.14,0.1-0.28,0.2-0.42,0.3
		l0.25-0.18C69.27,95.98,69.37,95.91,69.46,95.84"/>
	<path class="st479" d="M68.83,96.3c-0.02,0.01-0.04,0.03-0.05,0.04c-0.12,0.09-0.24,0.19-0.36,0.29c0.02-0.01,0.03-0.02,0.03-0.02
		C68.57,96.51,68.7,96.4,68.83,96.3"/>
	<path class="st479" d="M68.04,96.94c-0.1,0.08-0.19,0.17-0.28,0.25c0,0-0.01,0.01-0.01,0.01c0.08-0.07,0.15-0.13,0.21-0.19
		C67.99,96.99,68.02,96.97,68.04,96.94"/>
	<path class="st479" d="M65.13,100.46l-17.6,8.08c0.25,0.68,0.39,1.21,0.39,1.56l0,0c0,0.11-0.01,0.2-0.04,0.27
		c-0.65,1.02-2.2,2.33-3.45,2.33c-0.12,0-0.23-0.01-0.34-0.04c-0.21-0.01-0.42-0.02-0.61-0.02c-1.08,0-1.98,0.21-2.8,0.53
		c1.78,0.87,3.58,1.49,5.32,1.88l0,0l0,0l0,0l0,0c-0.11,0.09-0.21,0.19-0.32,0.28l0.39-0.26c1.62,0.37,3.19,0.54,4.65,0.54
		c0.26,0,0.52-0.01,0.78-0.02c1.93-0.07,3.6-0.43,4.98-0.91c-1.35-0.95-2.17-1.49-2.17-1.49c-0.82-0.54-1.69-0.78-2.58-0.78
		c-0.83,0-1.67,0.21-2.52,0.57l0,0l0,0l0,0l14.87-9.95C64.33,102.08,64.7,101.22,65.13,100.46"/>
	<path class="st479" d="M46.99,107.22l-10.07,3.76c0.71,0.5,1.43,0.96,2.17,1.37c0.03,0.01,0.05,0.03,0.08,0.04l8.36-3.84
		C47.38,108.15,47.2,107.7,46.99,107.22"/>
	<path class="st479" d="M59.45,113.24c-0.75,0.49-1.75,1.01-2.98,1.44c0.13,0.09,0.26,0.19,0.4,0.28L59.45,113.24"/>
	<path class="st480" d="M77.78,57.46c-2.85,0-5.59,0.35-8.08,1.17c-0.24,1.05-1.1,1.44-2.12,1.73c-1.03,0.27-2.22,0.45-3.05,0.89
		c-0.54,0.23-1.28,0.17-2.02,0.39c-1.56,0.84-2.26,2.68-3.97,2.68c-0.02,0-0.05,0-0.07,0c-0.86-0.08-1.71-0.12-2.55-0.12
		c-2.87,0-5.63,0.5-8.26,1.72c-1.39,0.62-4.29,2.9-6.81,5.87c-2.55,2.91-4.68,6.53-5.33,8.15c-0.96,2.1-1.28,4.46-1.47,6.79
		c-0.2,2.33-0.27,4.65-0.8,6.9c0,0.02-0.01,0.02-0.03,0.02c-0.08,0-0.28-0.15-0.54-0.47c-0.04,0.54-0.08,1.09-0.1,1.64
		c0.1,0.18,0.23,0.6,0.36,1.02c0.13,0.44,0.26,0.87,0.36,1.06l0,0l0,0l0,0l0,0c-0.03,0.15-0.06,0.33-0.09,0.43
		c-0.03,0.1-0.06,0.19-0.1,0.28c-0.07,0.18-0.16,0.36-0.26,0.53c-0.2,0.34-0.47,0.68-0.82,1.06c-5.14,3.84-6.1,11.1-8.78,16.87
		l23.73-8.85c-0.75-1.74-1.85-3.99-2.95-6.34c-0.04-0.08-0.07-0.15-0.11-0.23c-0.09-0.19-0.18-0.38-0.27-0.57
		c-0.28-0.6-0.56-1.2-0.83-1.79c-0.07-0.16-0.14-0.28-0.2-0.46l-0.19-0.59c-0.13-0.39-0.25-0.77-0.37-1.15
		c-0.48-1.49-0.92-2.94-1.26-4.24c-0.68-2.49-1.06-4.42-1.06-5.01l0,0c0-0.03,0-0.05,0-0.07c-0.05-0.89-1.25-1.67-1.29-2.59l0,0l0,0
		l0,0l0,0c0.85-3.26,3.29-4.76,5.58-6.3c1.36-1.09,2.64-3.45,3.77-5.46c1.11-2.02,2.06-3.71,2.23-3.72
		c0.05,0.06,0.11,0.12,0.16,0.18c1.87,2.08,4.45,3.79,5.45,6.5c0.13,0.35,0.89,0.66,1.32,0.99c0.24,0.1,0.52,0.16,0.8,0.2
		c0.14,0.02,0.27,0.02,0.39,0.02c0.32,0,0.58-0.06,0.63-0.17c0,0.23,0.04,0.34,0.12,0.34c0.29,0,1.08-1.6,1.92-3.19
		c0.78-1.5,1.71-2.97,1.71-3.49c0-0.13-0.05-0.19-0.18-0.19c-0.07,0-0.15,0.02-0.26,0.06l0,0l0,0l0,0l0,0
		c1.28-0.59,1.76-1.9,2.34-3.33c0.57-1.42,1.28-2.93,2.73-3.67c0.6-0.35,1.34-0.5,2.12-0.57c0.37-0.03,0.75-0.04,1.13-0.04
		c0.21,0,0.42,0,0.63,0.01c0.25,0,0.5,0.01,0.75,0.01c1.09,0,2.07-0.08,2.77-0.61c1.07-0.56,2.13-1.39,3.33-1.39
		c0.5,0,1.03,0.14,1.6,0.51c1.31,0.75,2.28,1.26,3.36,1.53c0.04,0,0.07,0,0.11,0c0.75,0,1.48-0.1,2.19-0.2
		c0.72-0.1,1.42-0.2,2.1-0.2c0.77,0,1.52,0.12,2.25,0.5c1,0.63,1.87,1.91,2.82,2.6c0.39,0.28,0.79,0.47,1.22,0.47
		c0.3,0,0.62-0.09,0.96-0.31c0.7-0.51,2-0.21,2.14-0.99c-0.56-0.28-1.09-1-1.85-1.37c-1.41-0.92-2.94-0.8-4.36-1.86
		c-1.52-0.9-2.92-2.13-4.76-2.83c-1.2-0.35-2.26-0.52-3.42-0.52c-0.01,0-0.02,0-0.04,0C80.74,57.55,79.24,57.46,77.78,57.46"/>
	<path class="st480" d="M71.78,94.55c-0.08,0.03-0.17,0.07-0.28,0.12C71.61,94.62,71.7,94.58,71.78,94.55"/>
	<path class="st480" d="M71.5,94.67c-0.14,0.07-0.31,0.15-0.5,0.25c-0.34,0.18-0.75,0.41-1.2,0.7c-0.04,0.03-0.08,0.05-0.12,0.08
		c0.48-0.32,0.94-0.58,1.32-0.78c0,0,0,0,0,0C71.19,94.82,71.35,94.74,71.5,94.67"/>
	<path class="st480" d="M69.68,95.7c-0.05,0.03-0.1,0.07-0.16,0.11c-0.06,0.04-0.12,0.08-0.18,0.12c0.03-0.02,0.06-0.04,0.09-0.06
		c0.01-0.01,0.02-0.01,0.03-0.02C69.54,95.79,69.61,95.74,69.68,95.7"/>
	<path class="st480" d="M69.34,95.92c-0.17,0.12-0.37,0.26-0.57,0.42c0.02-0.01,0.04-0.03,0.05-0.04c0,0,0.01-0.01,0.01-0.01
		c0.03-0.02,0.06-0.04,0.09-0.07C69.07,96.12,69.21,96.02,69.34,95.92"/>
	<path class="st480" d="M68.77,96.34c-0.33,0.24-0.67,0.54-1.01,0.85c0.09-0.08,0.19-0.17,0.28-0.25c0.12-0.11,0.25-0.21,0.37-0.31
		C68.53,96.53,68.66,96.43,68.77,96.34"/>
	<path class="st480" d="M67.76,97.19c-0.01,0.01-0.01,0.01-0.02,0.02c-0.12,0.11-0.24,0.22-0.34,0.33
		C67.51,97.42,67.64,97.31,67.76,97.19"/>
	<path class="st480" d="M67.39,97.54c-0.01,0.01-0.02,0.02-0.03,0.03c0,0,0.01-0.01,0.01-0.01C67.38,97.55,67.39,97.55,67.39,97.54"
		/>
	<path class="st480" d="M67.37,97.57c-0.25,0.24-0.49,0.49-0.69,0.73C66.89,98.06,67.12,97.81,67.37,97.57"/>
	<path class="st480" d="M66.67,98.3c-0.4,0.45-0.74,0.89-0.95,1.23c-0.01,0.01-0.01,0.02-0.02,0.03
		C65.89,99.28,66.23,98.81,66.67,98.3"/>
	<path class="st480" d="M65.71,99.57c-0.01,0.01-0.01,0.02-0.02,0.03c-0.09,0.14-0.15,0.23-0.22,0.36
		C65.53,99.84,65.6,99.73,65.71,99.57"/>
	<path class="st480" d="M65.47,99.96c-0.02,0.03-0.04,0.07-0.05,0.1c0-0.01,0.01-0.01,0.01-0.02
		C65.44,100.01,65.45,99.98,65.47,99.96"/>
	<path class="st480" d="M65.41,100.06c-0.01,0.02-0.02,0.04-0.03,0.06c0.01-0.01,0.01-0.02,0.02-0.03
		C65.4,100.08,65.41,100.07,65.41,100.06"/>
	<path class="st480" d="M65.38,100.12c-0.05,0.1-0.1,0.2-0.14,0.29C65.29,100.29,65.33,100.22,65.38,100.12"/>
	<path class="st480" d="M65.24,100.41l-0.11,0.04l-18.14,6.77c0.21,0.48,0.39,0.93,0.53,1.33l17.6-8.08L65.24,100.41"/>
	<path class="st480" d="M47.53,108.54l-15.79,7.25c0.46-0.2,0.93-0.38,1.39-0.53c0.12-0.02,0.25-0.03,0.37-0.03
		c0.31,0,0.63,0.06,0.95,0.11c0.32,0.06,0.64,0.11,0.95,0.11c0.13,0,0.25-0.01,0.37-0.03c2.85-0.83,4.43-2.78,7.71-2.78
		c0.2,0,0.4,0.01,0.61,0.02c0.11,0.02,0.23,0.04,0.34,0.04c1.25,0,2.8-1.31,3.45-2.33c0.03-0.07,0.04-0.16,0.04-0.27
		C47.92,109.76,47.78,109.22,47.53,108.54 M47.53,108.54L47.53,108.54L47.53,108.54L47.53,108.54"/>
	<path class="st475" d="M45.7,26.02c0,0-0.6,0.7-1.66,1.85l0,0l0,0l0,0C45.07,26.75,45.67,26.05,45.7,26.02
		C45.7,26.02,45.7,26.02,45.7,26.02"/>
	<path class="st481" d="M45.7,26.02c-0.03,0.03-0.62,0.73-1.65,1.85C45.07,26.75,45.67,26.05,45.7,26.02"/>
	<path class="st481" d="M44.04,27.87c-1.07,1.14-2.59,2.7-4.43,4.49C41.46,30.57,42.98,29,44.04,27.87"/>
	<path class="st481" d="M24.64,44.29c-0.14,0.12-2.35,2.06-4.5,4.55C22.3,46.34,24.51,44.41,24.64,44.29"/>
	<path class="st481" d="M20.14,48.84c-1.45,1.66-2.84,3.58-3.72,5.1c-0.44,0.76-0.75,1.42-0.87,1.89c0.12-0.48,0.43-1.13,0.87-1.89
		C17.3,52.42,18.69,50.5,20.14,48.84"/>
	<path class="st473" d="M13.14,59.17c-0.03,0.04-0.06,0.09-0.1,0.13c0,0-0.45,1.15-1.01,2.99c-0.55,1.84-1.2,4.37-1.58,7.09
		c-0.04,0.24-0.07,0.48-0.1,0.72l0,0c0.03-0.24,0.07-0.48,0.1-0.72c0.39-2.72,1.04-5.25,1.58-7.09c0.57-1.83,1.01-2.99,1.01-2.99
		c0.01-0.02,0.03-0.04,0.04-0.05C13.1,59.23,13.12,59.2,13.14,59.17L13.14,59.17"/>
	<path class="st481" d="M15.52,55.95c-0.84,1.06-1.64,2.17-2.44,3.3c0.02-0.03,0.04-0.05,0.06-0.08
		C13.92,58.07,14.7,56.99,15.52,55.95"/>
	<path class="st481" d="M11.87,82.78c0,0,0.04,0.55,0.11,1.41c-0.05-0.68-0.09-1.17-0.1-1.34C11.87,82.8,11.87,82.78,11.87,82.78"/>
	<path class="st475" d="M12.29,87.48L12.29,87.48c0.1,1.13,0.21,2.34,0.21,3.29c0,0.01,0,0.02,0,0.02l0,0
		C12.5,89.84,12.39,88.62,12.29,87.48L12.29,87.48"/>
	<path class="st481" d="M12.27,87.24c0.01,0.08,0.02,0.16,0.02,0.24c0.1,1.13,0.21,2.34,0.21,3.29c0-0.95-0.1-2.16-0.21-3.29
		C12.28,87.4,12.27,87.32,12.27,87.24 M12.11,85.75c0.05,0.47,0.1,0.97,0.15,1.49C12.21,86.73,12.16,86.22,12.11,85.75"/>
	<path class="st473" d="M12.41,91.99c-0.03,0.15-0.07,0.27-0.13,0.36c0,0,0,0.08,0,0.22l0,0c0-0.14,0-0.22,0-0.22c0,0,0,0,0,0
		C12.33,92.26,12.37,92.14,12.41,91.99L12.41,91.99"/>
	<path class="st481" d="M12.28,92.35c0,0,0,0.08,0,0.22l0,0C12.27,92.43,12.28,92.35,12.28,92.35"/>
	<path class="st481" d="M12.32,93.54c0.05,0.61,0.18,1.45,0.44,2.49C12.5,95,12.38,94.15,12.32,93.54"/>
	<path class="st481" d="M12.76,96.03c0.07,0.26,0.14,0.54,0.23,0.83C12.91,96.58,12.83,96.3,12.76,96.03"/>
	<path class="st481" d="M12.99,96.86c0.43,1.42,1.12,3.13,2.23,5.01C14.11,100,13.42,98.28,12.99,96.86"/>
	<path class="st475" d="M18.97,106.69L18.97,106.69c0.27,0.27,0.55,0.54,0.83,0.8c0.07,0.06,0.13,0.12,0.2,0.18
		C19.64,107.35,19.3,107.02,18.97,106.69L18.97,106.69"/>
	<path class="st481" d="M15.23,101.87c0.93,1.56,2.15,3.21,3.74,4.82c0.27,0.27,0.55,0.54,0.83,0.8c-0.29-0.27-0.57-0.53-0.83-0.8
		C17.38,105.08,16.16,103.43,15.23,101.87"/>
	<path class="st482" d="M73.68,51.83c-1.06,0-2.12,0.06-3.15,0.19c-1.32,0.17-1.85,1.3-2.71,1.97c-0.94,0.87-2.37,1.25-3.69,1.9
		c-1.32,0.63-2.54,1.52-2.95,3.09c-0.08,0.42-0.6,0.74-1.11,0.83c-0.27-0.01-0.54-0.01-0.8-0.01c-0.54,0-1.08,0.01-1.61,0.04
		c-2.04,0.11-4,0.43-5.9,0.9c-2.65,0.65-5.19,1.59-7.73,2.84c-1.39,0.6-3.65,2.47-5.74,4.88c-0.43,0.49-0.85,1.01-1.26,1.54
		c-2.44,3.07-4.3,6.71-4.9,8c-0.93,2.77-1.33,5.25-1.38,7.32c-0.01,0.21-0.01,0.42-0.01,0.62c0,1.79,0.25,3.25,0.59,4.39
		c0.67,2.32,1.71,3.31,1.91,3.31c0.02,0,0.03-0.01,0.03-0.02c0.52-2.25,0.59-4.57,0.8-6.9c0.19-2.33,0.5-4.68,1.47-6.79
		c0.65-1.62,2.78-5.24,5.33-8.15c2.52-2.97,5.42-5.25,6.81-5.87c2.63-1.22,5.38-1.72,8.26-1.72c0.84,0,1.69,0.04,2.55,0.12
		c0.02,0,0.05,0,0.07,0c1.71,0,2.42-1.84,3.97-2.68c0.74-0.22,1.48-0.17,2.02-0.39c0.83-0.44,2.02-0.62,3.05-0.89
		c1.03-0.29,1.89-0.68,2.12-1.73c2.48-0.82,5.23-1.17,8.08-1.17c1.47,0,2.96,0.09,4.46,0.26c0.01,0,0.02,0,0.04,0
		c1.16,0,2.22,0.17,3.42,0.52c1.84,0.7,3.24,1.92,4.76,2.83c1.42,1.07,2.95,0.95,4.36,1.86c0.75,0.37,1.28,1.09,1.85,1.37l0,0
		c0.38-0.23,1.15-0.08,1.14-0.47c0-0.03-0.01-0.07-0.02-0.11c-0.04-0.7-0.68-1.25-1.08-1.79c-1.03-0.91-2-1.9-2.97-2.85
		c-0.49-0.47-0.97-0.94-1.46-1.37c-0.25-0.22-0.49-0.43-0.74-0.63c-0.27-0.2-0.57-0.39-0.87-0.56c-2.83-1.59-6.06-2.87-9.53-3.73
		C78.7,52.17,76.17,51.83,73.68,51.83"/>
	<path class="st483" d="M125.49,61.78c-0.27,0-0.55,0.02-0.83,0.08c-5.47,1.12-9.5,2.45-13.06,3.81c-3.28,1.27-3.21,2.36-3.98,3.55
		c-0.34,0.58-1.38,1.15-2.86,1.7c0.5-0.12,1.83-0.46,3.13-0.91c-0.05-0.26-0.1-0.51-0.15-0.77l0,0l0,0l0,0l0,0
		c0.78-1.19,0.71-2.28,3.99-3.55c3.56-1.36,7.59-2.68,13.06-3.81c0.28-0.06,0.56-0.08,0.83-0.08c0.19,0,0.36,0.01,0.53,0.03
		C125.95,61.79,125.72,61.78,125.49,61.78"/>
	<path class="st483" d="M95.04,83.66c-0.06-0.06-0.11-0.12-0.16-0.17l0,0l0,0l0,0l0,0C94.95,83.56,95.01,83.62,95.04,83.66
		L95.04,83.66L95.04,83.66L95.04,83.66L95.04,83.66 M104.06,71.15c-2.74,0.91-6.67,1.72-10.55,2.33c-2.75,0.41-6.36,0.82-9.01,1.2
		c-0.3,0.74-0.72,1.35-1.32,1.65c0.24,0.08,0.46,0.17,0.61,0.28c0.12,0.08,0.2,0.16,0.2,0.25l0,0l0,0l0,0l0,0l0,0l0,0l0,0l0,0l0,0
		l0,0c0,0.01,0,0.02,0,0.03c0,0,0,0.01,0,0.01c0,0.01,0,0.02,0,0.03l0,0c0,0.1-0.16,0.19-0.56,0.27c-0.41,0.09-1.07,0.15-2.07,0.15
		l0,0c-0.04,0-0.09,0-0.13,0c-0.16,0-0.31,0.01-0.46,0.01c-0.11,0-0.22,0-0.33,0c-0.22-0.01-0.44-0.01-0.65-0.02
		c-0.06,0-0.12,0-0.19-0.01c-0.06,0-0.11,0-0.17,0c0.49,0.06,0.99,0.12,1.4,0.17c0.02,0,0.03,0,0.04,0.01c0.01,0,0.02,0,0.03,0
		c0.04,0.01,0.11,0.02,0.19,0.03c0.05,0.01,0.09,0.01,0.12,0.02l0.26,0.04c0.09,0.01,0.17,0.03,0.22,0.03
		c0.6,0.09,1.36,0.25,2.07,0.42c0.1,0.02,0.2,0.05,0.3,0.07c0.44,0.11,0.86,0.22,1.19,0.32c0.26,0.07,0.49,0.14,0.71,0.21
		c0.02,0.01,0.04,0.01,0.06,0.02c0,0,0.01,0,0.01,0c0.02,0.01,0.03,0.01,0.05,0.02c0.38,0.12,0.71,0.23,1.03,0.34
		c0.19,0.07,0.75,0.27,1.45,0.56c0.05,0.02,0.11,0.04,0.16,0.06c0.25,0.11,0.5,0.21,0.74,0.33c0.09,0.04,0.18,0.08,0.28,0.13l0,0
		l0,0l0,0l0,0c-0.09-0.04-0.18-0.08-0.27-0.12c0.47,0.21,0.93,0.44,1.37,0.67c0.17,0.1,0.34,0.19,0.51,0.28
		c0.15,0.08,0.29,0.16,0.43,0.24c0.17,0.1,0.33,0.2,0.49,0.29c0.58,0.36,1,0.63,1.25,0.83c0.66,1.23,1.07,2.31,1.31,3.31l0,0l0,0
		l0,0l0,0c-0.01,0.05-0.03,0.07-0.06,0.07c-0.09,0-0.28-0.17-0.46-0.33c-0.19-0.17-0.38-0.33-0.49-0.33c-0.01,0-0.03,0-0.04,0.01
		c-0.02,0.1-0.03,0.23-0.03,0.39c0,1.09,0.52,3.41,0.52,5.01l0,0c0,0.17-0.01,0.33-0.02,0.49C93.34,92.7,93,94.15,93,95.1
		c0,0.03,0,0.06,0,0.09c0,0.77,0.16,1.21,0.16,1.28l0,0c0,0.01,0,0.01-0.01,0.01c-0.01,0-0.02-0.01-0.03-0.02
		c-0.01,0.01-0.02,0.01-0.04,0.01c-0.36,0-1.4-2.37-1.96-2.72c-0.03-0.01-0.05-0.01-0.08-0.01c-0.41,0-0.55,0.74-0.55,1.72
		c0,0.45,0.03,0.94,0.07,1.45c0.08,1.06,0.13,2.13,0.13,3.13l0,0c0,2.29-0.26,4.19-1.01,4.6c0.48,0.7,1.09,1.97,1.55,2.62
		c0.37,0.46,0.67,0.58,0.94,0.58c0.18,0,0.35-0.06,0.52-0.11c0.17-0.06,0.35-0.11,0.54-0.11c0.05,0,0.1,0,0.15,0.01
		c0.4,0.3,0.81,0.85,1.37,1.65c0.28,0.44,0.49,0.6,0.65,0.6c0.34,0,0.5-0.68,0.72-1.13c0.07-0.28,0.21-0.39,0.39-0.39
		c0.24,0,0.55,0.18,0.86,0.36c0.31,0.18,0.63,0.36,0.88,0.36c0.08,0,0.16-0.02,0.22-0.06c0.77-0.34,0.49-2.92,1.23-2.92
		c0.11,0,0.25,0.06,0.43,0.21c-0.16-0.14-0.23-0.27-0.23-0.39l0,0c0-0.42,0.89-0.68,1.58-0.68c0.45,0,0.82,0.11,0.83,0.36l0,0
		c0,0.03,0,0.06-0.01,0.09c0.1,0.01,0.68,0.85,1.02,1.5c0.21,0.48,0.59,1.21,0.63,1.45c0.26,1.94,1.62,4.86,2.48,7.29
		c0.17,0.26,2.49-0.34,4.45,1.12c1.43,1.19,2.96,2.53,4.13,2.53c0.11,0,0.22-0.01,0.32-0.04c0.03-0.04,0.04-0.11,0.04-0.18
		c0-0.38-0.27-1.08-0.27-1.45l0,0c0-0.07,0.01-0.12,0.03-0.16c0.28-0.2,0.85-3.61,1.04-6.95c0.1-1.66,0.12-3.3,0.15-4.51
		c0.02-1.22,0.09-1.98,0.39-1.99c0.84,0.13,2.64,0.85,3.51,1.81c2.63,2.59,4.61,2.86,7.23,4.45c0.68,0.46,1.25,1.33,1.93,1.8
		c1.6,0.94,3.6,1.78,4.79,1.78c0.25,0,0.47-0.04,0.64-0.12c2.08-0.39,3.58-1.81,3.67-3.4c0.55-0.8,1.08-1.61,1.58-2.41
		c-0.28-1.14-0.77-2.32-1.46-3.48c-0.82-1.6-1.72-2.34-1.72-2.75l0,0c0-0.1,0.05-0.18,0.18-0.24c0,0,0-0.01,0-0.01
		c0-0.26-3.87-2.72-5.7-4.84c-0.06,0-0.58-0.03-1.49-0.07c0.24,0.24,0.59,0.61,0.98,1.07c0.71,0.85,1.54,2.01,2.05,3.2
		c0.28,0.66,0.45,1.33,0.45,1.93l0,0c0,1.22-0.68,2.17-2.52,2.17c-0.51,0-1.11-0.07-1.8-0.23c0,0-0.83,0.13-2.11,0.17
		c-0.2,0.01-0.41,0.01-0.63,0.01c-1.21,0-2.69-0.1-4.24-0.42c-1.83-0.37-3.7-1.04-5.33-2.01c-1.63-0.96-2.99-2.21-3.94-3.58
		c0,0-0.23-0.33-0.64-0.93c-0.42-0.59-1.03-1.43-1.79-2.41c-1.51-1.96-3.7-4.46-6.15-6.71c-2.44-2.26-5.15-4.27-7.36-5.68
		c-2.2-1.42-3.89-2.26-4.17-2.63l0,0l0,0l0,0l0,0c0,0,0,0,0,0c0,0-0.01-0.04-0.45-0.23c-0.46-0.19-1.41-0.58-3.33-1.15
		c0,0-1.01-0.36-1.36-0.53c-0.08-0.04-0.12-0.08-0.12-0.1l0,0c0-0.04,0.09-0.05,0.31-0.05c0.37,0,1.12,0.05,2.44,0.18
		c0,0,0.3,0.01,0.78,0.01c0.11,0,0.22,0,0.34,0c0.67-0.01,1.55-0.03,2.39-0.18c1.41-0.2,2.68-0.65,2.68-1.05
		c0-0.08-0.05-0.16-0.17-0.23l0,0l0,0l0,0l0,0c0,0,1.09-0.13,1.93-0.36c0.53-0.14,0.96-0.32,0.96-0.51
		c-0.32-0.2-0.52-0.32-0.52-0.32l0,0l0,0l0,0l0,0c0.37,0.1,0.52,0.21,0.52,0.32l0,0c0,0,0,0,0,0c0.18,0.11,0.39,0.25,0.63,0.41
		c-0.44-0.58-0.76-1.13-0.76-1.58l0,0c0-0.45,0.31-0.78,1.12-0.91c0,0,0.45-0.6,1.23-1.35C101.98,72.46,102.91,71.66,104.06,71.15"
		/>
	<path class="st483" d="M83.17,76.33c-0.05,0.02-0.1,0.05-0.15,0.07c0.08,0.03,0.15,0.05,0.22,0.08c0.4,0.14,0.69,0.29,0.73,0.43
		c0,0,0-0.01,0-0.01c0-0.01,0-0.02,0-0.03c0-0.09-0.08-0.17-0.2-0.25C83.63,76.5,83.41,76.41,83.17,76.33"/>
	<path class="st484" d="M84.5,74.68c-2.12,0.3-3.64,0.59-3.63,0.84c0,0.01,0,0.02,0.01,0.04c0.35,0.31,1.37,0.57,2.15,0.84
		c0.05-0.02,0.1-0.04,0.15-0.07c-0.55-0.19-1.18-0.29-1.18-0.29l0,0l0,0l0,0l0,0l0,0c0,0,0.63,0.11,1.18,0.29
		C83.78,76.03,84.19,75.42,84.5,74.68"/>
	<path class="st483" d="M83.42,77.19c-0.07,0.01-0.16,0.03-0.25,0.04c-0.68,0.06-1.34,0.1-1.95,0.12c0.04,0,0.09,0,0.13,0l0,0
		C82.35,77.35,83.01,77.29,83.42,77.19"/>
	<path class="st483" d="M79.33,77.32c0.52,0.06,1.03,0.12,1.54,0.18c-0.01,0-0.03,0-0.04-0.01c-0.41-0.05-0.91-0.11-1.4-0.17
		C79.39,77.32,79.36,77.32,79.33,77.32"/>
	<path class="st483" d="M79.62,77.33c0.04,0,0.08,0,0.13,0C79.71,77.33,79.66,77.33,79.62,77.33"/>
	<path class="st483" d="M81.1,77.53c0.12,0.02,0.26,0.04,0.38,0.06l-0.26-0.04C81.19,77.54,81.15,77.54,81.1,77.53"/>
	<path class="st483" d="M83.77,78.04c0.1,0.02,0.2,0.05,0.3,0.07C83.97,78.09,83.87,78.07,83.77,78.04"/>
	<path class="st483" d="M85.97,78.65c0.04,0.01,0.08,0.02,0.12,0.04c-0.02-0.01-0.03-0.01-0.05-0.02c0,0-0.01,0-0.01,0
		C86.01,78.66,85.99,78.65,85.97,78.65"/>
	<path class="st483" d="M87.11,79.03c0.48,0.17,0.93,0.35,1.44,0.56C87.86,79.3,87.31,79.1,87.11,79.03"/>
	<path class="st483" d="M101.02,82.29c-0.1,0.08-0.17,0.19-0.17,0.32c0,0.11,0.05,0.24,0.15,0.39c0.08,0.12,0.2,0.25,0.36,0.41
		C101.32,83.13,101.22,82.68,101.02,82.29"/>
	<path class="st483" d="M116.46,85.75c1.06,1.55,2.81,3.37,5.56,5.65C120.32,89.28,118.45,87.4,116.46,85.75"/>
	<path class="st483" d="M108.09,88.16c1.26,0.87,2.71,1.9,4.37,3.14c0,0,0.29,0.16,0.79,0.45c-0.09-0.07-0.18-0.13-0.27-0.2
		C111.33,90.34,109.65,89.19,108.09,88.16"/>
	<path class="st483" d="M127.8,96.74c0.05,0.11,0.1,0.22,0.15,0.33c0.36-0.06,0.71-0.15,1.03-0.28
		C128.62,96.77,128.23,96.76,127.8,96.74"/>
	<path class="st483" d="M88.46,104.29c0.06,0.13,0.12,0.27,0.18,0.42c0.07-0.04,0.15-0.06,0.21-0.13
		C88.73,104.5,88.6,104.41,88.46,104.29"/>
	<path class="st485" d="M126.15,61.83c0.48,0.07,0.84,0.22,0.92,0.36c0.07,0.11,0.1,0.22,0.1,0.34l0,0c0,0.92-2.04,2.08-2.66,3.13
		c0.2,0.16,0.06,0.53,0.53,0.61c0.48,0.08,0.67,0.24,0.87,0.41c0.05,0.25,0.07,0.49,0.07,0.73l0,0c0,1.11-0.48,2.19-1.36,3.36
		c-0.07,0.3-0.09,0.59-0.09,0.86c0,0.71,0.16,1.34,0.15,2.05l0,0c0,0.32-0.03,0.66-0.13,1.03c-0.14,0.31-0.18,0.61-0.18,0.91
		c0,0.44,0.09,0.86,0.09,1.28l0,0c0,0.58-0.17,1.16-0.96,1.77c-0.7,0.73-1.05,1.33-1.05,1.99c0,0.97,0.77,2.05,2.26,3.86
		c0.65,0.8,1.45,2.32,2.26,4c0.83,1.66,1.66,3.5,2.69,4.64c1.52,1.34,0.52,2.22,1.63,3.66c0.03,0.03,0.05,0.06,0.08,0.09
		c0,0,0.01,0,0.01,0c-1.1-1.44-0.11-2.32-1.62-3.67c-1.03-1.15-1.86-2.99-2.69-4.66c-0.81-1.68-1.6-3.21-2.25-4.01
		c-1.48-1.81-2.25-2.9-2.25-3.87l0,0c0-0.65,0.34-1.26,1.05-1.99c0.79-0.61,0.96-1.19,0.96-1.77c0-0.42-0.09-0.85-0.09-1.28l0,0
		c0-0.3,0.04-0.6,0.18-0.91c0.09-0.37,0.13-0.71,0.13-1.03c0-0.71-0.15-1.35-0.15-2.06l0,0c0-0.27,0.02-0.56,0.09-0.87
		c0.88-1.17,1.36-2.26,1.37-3.37c0-0.24-0.02-0.49-0.07-0.73c-0.19-0.17-0.39-0.33-0.87-0.41c-0.48-0.08-0.34-0.45-0.53-0.61l0,0
		l0,0l0,0l0,0c0.62-1.05,2.65-2.2,2.66-3.13c0-0.12-0.03-0.23-0.11-0.34C127.1,62.05,126.69,61.89,126.15,61.83"/>
	<path class="st486" d="M125.61,61.79c-0.27,0-0.55,0.02-0.83,0.08c-5.47,1.12-9.5,2.45-13.06,3.81c-3.28,1.27-3.21,2.36-3.99,3.55
		c0.05,0.26,0.1,0.52,0.15,0.77c0.08-0.03,0.16-0.06,0.25-0.09c1.51-0.53,2.92-1.2,2.92-1.77c0-0.08-0.03-0.17-0.09-0.25l0,0l0,0
		l0,0l0,0c0,0,1.83-1.23,3.84-2.25c1.36-0.69,2.81-1.28,3.83-1.28c0.49,0,0.88,0.13,1.13,0.45c0,0,1.89,1.03,2.42,1.64l0,0l0,0l0,0
		l0,0c0,0-0.51,2.42-1.43,4.94c-0.9,2.53-2.3,5.06-3.51,5.29c0,0-0.59,0.63-1.14,1.59c-0.53,0.93-1.07,2.13-1.06,3.5
		c0,0.06,0,0.11,0,0.17c0.04,1.13,0.43,2.35,1.43,3.81c1.99,1.65,3.86,3.53,5.56,5.65c1.37,1.14,2.99,2.39,4.89,3.77
		c0,0,0.41,0.61,0.85,1.5c0.01,0.02,0.02,0.05,0.03,0.07c0.43,0.02,0.82,0.04,1.18,0.05c0.2-0.08,0.39-0.18,0.57-0.29
		c0,0,0.13,0.12,0.33,0.33c0.91,0.04,1.43,0.06,1.49,0.07c-0.03-0.03-0.05-0.06-0.08-0.09c-1.11-1.44-0.12-2.32-1.63-3.66
		c-1.03-1.15-1.86-2.98-2.69-4.64c-0.81-1.68-1.61-3.2-2.26-4c-1.49-1.8-2.25-2.89-2.26-3.86l0,0c0-0.65,0.34-1.25,1.05-1.99
		c0.79-0.61,0.96-1.19,0.96-1.77c0-0.42-0.09-0.84-0.09-1.28l0,0c0-0.3,0.04-0.6,0.18-0.91c0.09-0.37,0.13-0.7,0.13-1.03
		c0-0.71-0.16-1.35-0.15-2.05l0,0c0-0.27,0.02-0.56,0.09-0.86c0.88-1.17,1.36-2.25,1.36-3.36c0-0.24-0.02-0.49-0.07-0.73
		c-0.19-0.17-0.38-0.33-0.87-0.41c-0.48-0.08-0.34-0.45-0.53-0.61l0,0l0,0l0,0l0,0c0.62-1.05,2.66-2.21,2.66-3.13
		c0-0.12-0.03-0.23-0.1-0.34c-0.08-0.14-0.44-0.29-0.92-0.36C125.98,61.8,125.8,61.79,125.61,61.79"/>
	<path class="st487" d="M118.63,64.36c-1.03,0-2.47,0.59-3.83,1.28c-2.01,1.03-3.84,2.25-3.84,2.25c0.06,0.08,0.09,0.16,0.09,0.25
		l0,0c0,0.57-1.41,1.25-2.92,1.77c-1.38,0.49-2.85,0.86-3.38,0.99c-0.13,0.03-0.21,0.05-0.21,0.05c-0.17,0.06-0.33,0.12-0.49,0.19
		c-1.15,0.51-2.08,1.3-2.77,1.97c-0.78,0.75-1.23,1.35-1.23,1.35c-0.81,0.13-1.12,0.47-1.12,0.91c0,0.45,0.32,1,0.76,1.58
		c0.77,0.52,1.8,1.28,2.6,2.1c0.78,0.78,1.34,1.6,1.34,2.18l0,0c0,0.45-0.35,0.75-1.21,0.75c-0.14,0-0.3-0.01-0.48-0.03
		c0,0-0.41,0.04-0.72,0.19c-0.08,0.04-0.15,0.08-0.21,0.13c0.2,0.39,0.3,0.84,0.34,1.12c0.46,0.44,1.29,1.05,2.63,1.96
		c1.04,0.71,2.39,1.61,4.1,2.79c1.56,1.02,3.24,2.17,4.88,3.38c0.09,0.07,0.18,0.13,0.27,0.2c0.32,0.18,0.74,0.42,1.21,0.69
		c1.23,0.68,2.9,1.59,4.71,2.44c2.55,1.2,5.42,2.27,7.76,2.27c0.35,0,0.69-0.02,1.02-0.08c-0.05-0.11-0.1-0.22-0.15-0.33
		c-0.01-0.02-0.02-0.05-0.03-0.07c-0.44-0.89-0.85-1.5-0.85-1.5c-1.9-1.39-3.52-2.64-4.89-3.77c-2.75-2.28-4.5-4.1-5.56-5.65
		c-1-1.46-1.39-2.68-1.43-3.81c0-0.06,0-0.11,0-0.17l0,0c0-1.37,0.53-2.57,1.06-3.5c0.56-0.96,1.14-1.59,1.14-1.59
		c1.21-0.23,2.61-2.76,3.51-5.29c0.92-2.53,1.43-4.94,1.43-4.94c-0.53-0.61-2.42-1.64-2.42-1.64
		C119.51,64.5,119.12,64.36,118.63,64.36"/>
	<path class="st488" d="M98.56,76.24c0,0,0.2,0.12,0.52,0.32c0,0,0,0,0,0C99.08,76.45,98.93,76.34,98.56,76.24"/>
	<path class="st488" d="M99.08,76.56c0,0.18-0.43,0.37-0.96,0.51c-0.84,0.23-1.93,0.36-1.93,0.36c0.11,0.07,0.17,0.15,0.17,0.23l0,0
		c0,0.39-1.28,0.85-2.68,1.05c-0.84,0.15-1.72,0.18-2.39,0.18c-0.12,0-0.24,0-0.34,0c-0.47,0-0.78-0.01-0.78-0.01
		c-1.32-0.12-2.07-0.18-2.44-0.18c-0.22,0-0.31,0.02-0.31,0.05c0,0.03,0.05,0.06,0.12,0.1c0.35,0.17,1.36,0.53,1.36,0.53
		c1.92,0.57,2.88,0.97,3.33,1.15c0.44,0.19,0.45,0.22,0.45,0.23l0,0c0,0,0,0,0,0c0.27,0.37,1.96,1.22,4.17,2.63
		c2.21,1.41,4.92,3.42,7.36,5.68c2.46,2.26,4.64,4.76,6.15,6.71c0.76,0.98,1.37,1.82,1.79,2.41c0.41,0.59,0.64,0.93,0.64,0.93
		c0.95,1.37,2.31,2.62,3.94,3.58c1.63,0.97,3.5,1.64,5.33,2.01c1.55,0.32,3.03,0.42,4.24,0.42c0.22,0,0.43,0,0.63-0.01
		c1.28-0.04,2.11-0.17,2.11-0.17c0.7,0.16,1.29,0.23,1.8,0.23c1.83,0,2.52-0.95,2.52-2.17c0-0.61-0.17-1.28-0.45-1.93
		c-0.51-1.18-1.34-2.35-2.05-3.2c-0.39-0.46-0.74-0.82-0.98-1.07c-0.21-0.21-0.33-0.33-0.33-0.33c-0.18,0.11-0.37,0.21-0.57,0.29
		c-0.32,0.13-0.67,0.22-1.03,0.28c-0.33,0.05-0.67,0.08-1.02,0.08c-2.34,0-5.22-1.06-7.76-2.27c-1.82-0.85-3.49-1.76-4.71-2.44
		c-0.48-0.27-0.89-0.51-1.21-0.69c-0.5-0.28-0.79-0.45-0.79-0.45c-1.66-1.23-3.11-2.26-4.37-3.14c-1.71-1.19-3.06-2.08-4.1-2.79
		c-1.34-0.91-2.17-1.52-2.63-1.96c-0.16-0.15-0.28-0.29-0.36-0.41c-0.11-0.16-0.15-0.28-0.15-0.39l0,0c0-0.21,0.17-0.35,0.38-0.45
		c0.32-0.14,0.72-0.19,0.72-0.19c0.17,0.02,0.33,0.03,0.48,0.03c0.86,0,1.21-0.3,1.21-0.75c0-0.57-0.55-1.4-1.34-2.18
		c-0.8-0.82-1.82-1.58-2.6-2.1C99.47,76.81,99.26,76.67,99.08,76.56 M99.08,76.56L99.08,76.56L99.08,76.56L99.08,76.56L99.08,76.56"
		/>
	<path class="st489" d="M89.16,104.14c-0.09,0-0.16,0.08-0.21,0.26c-0.02,0.08-0.05,0.14-0.09,0.18c-0.06,0.07-0.14,0.1-0.21,0.13
		c-0.1,0.05-0.18,0.11-0.18,0.32c0,0.06,0.01,0.14,0.02,0.23l0,0c0.25,0.3,0.59,1.01,0.93,1.4c0.68,0.94,1.18,0.89,1.88,1.98
		c0.7,0.93,1.42,2.18,2.14,2.94c0.45,0.4,0.81,0.61,1.16,0.66c0.85,0.41,1.63,0.63,2.35,0.63c0.5,0,0.96-0.1,1.38-0.32
		c-0.02-0.17-0.03-0.32-0.03-0.45l0,0c0-0.57,0.19-0.73,0.44-0.73c0.15,0,0.31,0.05,0.48,0.1c0.16,0.05,0.33,0.1,0.46,0.1
		c0.03,0,0.06,0,0.09-0.01c0.18,0.02,0.48,0.36,0.76,0.55c0.01,0,0.03,0,0.04,0c0.16,0,0.28-0.08,0.4-0.16
		c0.12-0.08,0.24-0.16,0.38-0.16c0.19,0,0.41,0.14,0.74,0.59c1.82,2.68,3.6,4.99,5.46,6.74c0.75,0.72,2.43,1.83,4.23,2.68
		c1.79,0.85,3.69,1.42,4.4,1.42c0,0,0,0,0,0c0.1,0.01,0.2,0.02,0.3,0.02c1.77,0,2.53-1.83,4.23-2.28c0,0,0,0,0,0
		c0.03,0,0.14,0.22,0.23,0.58c0.17-0.13,0.34-0.26,0.5-0.4c0-0.02,0-0.04,0-0.07l0,0c0-0.26,0.11-0.73,0.11-1c0-0.03,0-0.06,0-0.08
		l0,0l0,0l0,0l0,0c0.18-0.07,0.37-0.11,0.58-0.11c0.31,0,0.67,0.07,1.13,0.21c1.39,0.68,2.74,0.94,4.07,0.94
		c1.43,0,2.84-0.31,4.23-0.76c2.7-0.83,5.22-2.02,8.26-2.26c1.1-0.27,2.75-0.74,3.25-1.97c0.22-0.91,0.98-1.75,0.99-2.69
		c0-0.07,0-0.13-0.01-0.2c-0.62-2.05-2.04-4.35-3.19-6.23c-0.25,0.43-0.51,0.86-0.77,1.29c-0.5,0.81-1.03,1.61-1.58,2.41
		c-0.09,1.59-1.59,3.01-3.67,3.4c-0.17,0.08-0.39,0.12-0.64,0.12c-1.19,0-3.19-0.84-4.79-1.78c-0.68-0.47-1.26-1.34-1.93-1.8
		c-2.62-1.59-4.61-1.86-7.23-4.45c-0.87-0.96-2.67-1.68-3.51-1.81c-0.29,0.01-0.37,0.78-0.39,1.99c-0.03,1.21-0.04,2.84-0.15,4.51
		c-0.19,3.34-0.76,6.75-1.04,6.95c-0.02,0.04-0.03,0.1-0.03,0.16c0,0.37,0.27,1.07,0.27,1.45l0,0c0,0.08-0.01,0.14-0.04,0.18
		c-0.1,0.03-0.21,0.04-0.32,0.04c-1.17,0-2.7-1.35-4.13-2.53c-1.96-1.47-4.28-0.86-4.45-1.12c-0.86-2.44-2.21-5.35-2.48-7.29
		c-0.03-0.24-0.42-0.97-0.63-1.45c-0.34-0.65-0.92-1.49-1.02-1.5l0,0l0,0l0,0l0,0c0.01-0.03,0.01-0.06,0.01-0.09
		c0-0.25-0.37-0.36-0.83-0.36c-0.7,0-1.58,0.26-1.58,0.68c0,0.12,0.07,0.25,0.23,0.39l0,0l0,0l0,0l0,0
		c-0.17-0.14-0.31-0.21-0.43-0.21c-0.74,0-0.46,2.58-1.23,2.92c-0.07,0.04-0.14,0.06-0.22,0.06c-0.25,0-0.56-0.18-0.88-0.36
		c-0.31-0.18-0.62-0.36-0.86-0.36c-0.18,0-0.32,0.1-0.39,0.39c-0.22,0.45-0.38,1.13-0.72,1.13c-0.17,0-0.37-0.16-0.65-0.6
		c-0.56-0.8-0.97-1.35-1.37-1.65c-0.05-0.01-0.1-0.01-0.15-0.01c-0.19,0-0.36,0.06-0.54,0.11c-0.17,0.06-0.34,0.11-0.52,0.11
		c-0.27,0-0.57-0.13-0.94-0.58c-0.47-0.65-1.07-1.91-1.55-2.62C89.49,104.34,89.3,104.14,89.16,104.14"/>
	<path class="st490" d="M83.17,76.33L83.17,76.33c0.24,0.08,0.46,0.17,0.61,0.28C83.63,76.5,83.41,76.41,83.17,76.33"/>
	<path class="st491" d="M81.99,76.03L81.99,76.03c0,0,0.63,0.11,1.18,0.29l0,0C82.62,76.14,81.99,76.03,81.99,76.03"/>
	<path class="st490" d="M83.98,76.89c0,0,0,0.01,0,0.01c-0.03,0.11-0.2,0.21-0.55,0.29c-0.41,0.09-1.07,0.15-2.07,0.15
		c1,0,1.66-0.06,2.07-0.15C83.79,77.11,83.96,77,83.98,76.89"/>
	<path class="st490" d="M79.41,77.32c0.06,0,0.12,0,0.18,0.01c0.06,0,0.12,0,0.19,0.01c0.46,0.01,0.88,0.01,1.04,0.01
		c-0.18,0-0.69,0-1.21-0.02C79.55,77.32,79.48,77.32,79.41,77.32"/>
	<path class="st490" d="M80.89,77.34c0.16,0,0.31,0,0.46,0c-0.04,0-0.09,0-0.13,0C81.12,77.35,81.01,77.34,80.89,77.34"/>
	<path class="st490" d="M85.23,78.42c0,0,0.36,0.11,0.74,0.22c0.02,0.01,0.04,0.01,0.06,0.02c-0.02-0.01-0.04-0.01-0.06-0.02
		C85.58,78.53,85.23,78.42,85.23,78.42"/>
	<path class="st490" d="M87.04,79c0.01,0,0.03,0.01,0.07,0.03c0.19,0.07,0.74,0.27,1.44,0.56c0.28,0.12,0.59,0.25,0.91,0.39
		c0.09,0.04,0.18,0.08,0.27,0.12c-0.09-0.04-0.19-0.09-0.28-0.13c-0.32-0.14-0.62-0.27-0.9-0.39c-0.7-0.29-1.26-0.49-1.45-0.56
		C87.07,79.01,87.05,79,87.04,79"/>
	<path class="st492" d="M88.49,105.25L88.49,105.25c-0.06,0.18-0.28,0.07-0.28,0.28c0,0.05,0.01,0.13,0.05,0.23
		c0.17,0.68,0.51,1.24,0.77,1.77c1.1,1.84,2.25,4,3.33,5.47c2.5,3.33,4.99,5.58,6.97,5.77c0.01,0,0.01,0,0.02,0
		c0.36,0,0.32-0.95,0.47-1.42c0.29-1.22,1.59-0.25,1.59-2.26c0-0.06,0-0.12,0-0.19c0-0.02,0-0.04,0-0.06l0,0
		c0-0.14,0.05-0.2,0.12-0.2c0.06,0,0.15,0.05,0.24,0.12c2.46,3.07,4.84,5.73,7.59,8.24c0.89,0.87,2.6,1.82,4.33,2.48
		c1.74,0.65,3.5,1.01,4.09,1.03c2.21-0.24,3.1-1.75,3.27-3.08c0.03-0.23,0.05-0.45,0.05-0.67c0-1.03-0.32-1.83-0.38-1.83
		c0,0,0,0,0,0c-1.69,0.45-2.46,2.28-4.23,2.28c-0.1,0-0.2-0.01-0.3-0.02c0,0,0,0,0,0c-0.71,0-2.61-0.57-4.4-1.42
		c-1.8-0.84-3.48-1.96-4.23-2.68c-1.86-1.75-3.63-4.06-5.46-6.74c-0.33-0.45-0.55-0.59-0.74-0.59c-0.14,0-0.26,0.08-0.38,0.16
		c-0.12,0.08-0.25,0.16-0.4,0.16c-0.01,0-0.02,0-0.04,0c-0.29-0.19-0.58-0.53-0.76-0.55c-0.03,0.01-0.06,0.01-0.09,0.01
		c-0.14,0-0.3-0.05-0.46-0.1c-0.16-0.05-0.33-0.1-0.48-0.1c-0.25,0-0.44,0.15-0.44,0.73c0,0.13,0.01,0.28,0.03,0.45l0,0l0,0l0,0l0,0
		c-0.42,0.22-0.88,0.32-1.38,0.32c-0.72,0-1.5-0.22-2.35-0.63c-0.35-0.05-0.71-0.27-1.16-0.66c-0.72-0.76-1.44-2-2.14-2.94
		c-0.7-1.09-1.2-1.03-1.88-1.98C89.08,106.27,88.73,105.55,88.49,105.25"/>
</g>
<g>
	<path d="M76.11,25.63c4.32,0.39,8.72-0.63,12.98,0.72c1.85,0.59,3.74,1.11,5.52,1.87c4.54,1.94,9.58,2.49,13.93,4.9
		c2.22,1.23,4.33,2.71,6.4,4.19c2.73,1.95,5.46,3.92,8.05,6.05c2.88,2.37,5.24,5.14,6.43,8.82c0.81,2.51,2.05,4.89,2.99,7.36
		c1.86,4.91,3.05,10,3.27,15.23c0.18,4.53,0.1,9.08-0.13,13.6c-0.08,1.61-0.74,3.28-1.47,4.76c-2.07,4.14-4.91,7.77-7.94,11.23
		c-2.51,2.86-5.11,5.68-7.92,8.23c-5.71,5.18-12.21,8.95-19.81,10.83c-4.74,1.17-9.5,2.05-14.35,2.49c-1.4,0.13-2.8,0.51-4.15,0.92
		c-3.85,1.18-7.7,1.04-11.6,0.25c-2.08-0.42-4.19-0.72-6.29-1.03c-7.98-1.16-15.47-3.89-22.52-7.68c-4.96-2.67-8.93-6.59-12.2-11.25
		c-3.58-5.09-5.48-10.88-7.34-16.68c-0.6-1.88-0.24-4.06-0.34-6.11c-0.06-1.24-0.12-2.48-0.24-3.72c-0.43-4.39-0.6-8.75,0.86-13.04
		c1.14-3.35,1.82-6.9,3.31-10.07c1.87-3.98,4.27-7.73,6.58-11.49c4.08-6.66,10.43-10.66,17.07-14.32c3.5-1.93,7.06-3.64,10.98-4.56
		c5.47-1.28,10.99-1.95,16.61-1.62C75.23,25.55,75.67,25.6,76.11,25.63z M74.75,126.05c2.4,0.61,5.53-0.78,8.76-1.2
		c3.68-0.48,7.39-0.9,11.01-1.66c6.54-1.38,12.66-3.81,18.16-7.72c6.07-4.32,10.79-9.94,15.43-15.67c3.43-4.23,5.67-8.93,5.86-14.49
		c0.09-2.65,0.63-5.31,0.5-7.95c-0.17-3.59-0.71-7.16-1.58-10.7c-1.17-4.74-2.62-9.36-4.69-13.76c-0.86-1.83-1.94-3.58-3.09-5.25
		c-3.12-4.48-8.04-6.87-12.15-10.19c-1.62-1.31-3.71-2.03-5.48-3.17c-2.67-1.73-5.73-2.3-8.7-3.15c-2.21-0.64-4.53-1.04-6.58-2.03
		c-1.8-0.87-3.57-1.55-5.52-1.64c-6.55-0.32-13.12-0.72-19.65-0.23c-3.85,0.29-7.73,1.12-11.44,2.24c-6,1.81-11.11,5.48-16.21,8.98
		c-5.69,3.9-9.11,9.84-12.56,15.61c-1.61,2.69-2.62,5.77-3.69,8.75c-0.95,2.65-2.24,5.38-2.29,8.1c-0.15,7.58-1.07,15.28,1.6,22.68
		c0.51,1.4,1.12,2.77,1.64,4.17c2,5.41,5.32,9.98,9.09,14.25c0.69,0.79,1.57,1.42,2.41,2.06c4.62,3.51,9.71,6.09,15.26,7.82
		C58.33,124.22,65.9,125.95,74.75,126.05z"/>
	<path d="M65.24,33.2c2.26-0.3,4.3-0.57,6.3-0.83c0.05-0.59,0.09-1,0.14-1.57c1.35,0.21,2.58,0.34,3.78,0.6
		c1.75,0.37,3.47,0.59,5.23,0c0.96-0.32,1.92-0.33,2.75,0.93c-0.69,0.49-1.32,1.12-2.07,1.43c-2.62,1.08-5.3,2.1-8.2,1.75
		c-2.44-0.29-4.86-0.82-7.28-1.31C65.66,34.17,65.53,33.68,65.24,33.2z M74.2,33.05c2.25,0.97,2.49,0.95,4.42-0.3
		C76.9,32.87,75.55,32.96,74.2,33.05z"/>
	<path d="M109.52,85.53c-1.86,0.26-3.72,0.56-5.59,0.74c-0.26,0.03-0.58-0.51-1.13-1.04c2.46-0.64,4.58-0.43,6.7-0.38
		C109.5,85.08,109.51,85.3,109.52,85.53z"/>
	<path d="M117.33,77.28c2.01-1.17,4.63-1.66,6.87-1.39C121.31,77.38,118.96,77.92,117.33,77.28z"/>
	<path d="M113.84,92.05c2.32,0.34,4.01,0.59,5.97,0.88C117.6,94.25,115.51,94.04,113.84,92.05z"/>
	<path d="M112.29,101.96c-1.97,0.88-3.63,1.42-5.84,0.56C109.21,101.23,109.53,101.2,112.29,101.96z"/>
	<path d="M114.02,82.54c2.01-0.56,4.01-0.93,6.03-0.27C118.05,82.77,116.08,83.65,114.02,82.54z"/>
	<path d="M111.47,94.3c-1.52,0.58-3.04,1.05-5.04-0.09C108.47,93.19,109.96,94.17,111.47,94.3z"/>
	<path d="M104.28,113.82c-1.84,0-3.68,0-6.04,0c2.3-1.79,4.17-0.89,6.01-0.57C104.25,113.44,104.26,113.63,104.28,113.82z"/>
	<path d="M92.69,117.89c1.8-0.85,3.57-0.28,5.34,0.57c-1.76,0-3.52,0-5.28,0C92.73,118.27,92.71,118.08,92.69,117.89z"/>
	<path d="M124.33,85.27c1.46-1.55,2.71-0.58,4.53-0.14C127.05,85.91,125.81,85.9,124.33,85.27z"/>
	<path d="M117.82,99.78c2.12-0.24,3.63-0.42,4.99,0.6C121.24,100.96,119.69,101.46,117.82,99.78z"/>
	<path d="M123.56,70.49c0.99-1.6,2.61-1.14,4.2-0.86c-1.3,0.47-2.6,0.93-3.9,1.4C123.76,70.85,123.66,70.67,123.56,70.49z"/>
	<path d="M124.8,65.8c-0.02-2.18,1.26-1.74,2.58-1.27C126.52,64.96,125.66,65.38,124.8,65.8z"/>
	<path d="M102.12,107.07c-1.01,0.58-2.01,0.94-3.36,0.13C100.05,106.23,101.14,106.99,102.12,107.07z"/>
	<path d="M110.03,109.67c1.06-0.13,2.12-0.25,3.18-0.38c0.04,0.23,0.08,0.45,0.12,0.68c-1.04,0.22-2.09,0.44-3.13,0.67
		C110.14,110.32,110.08,109.99,110.03,109.67z"/>
	<path d="M130.74,75.94c-0.76,0.84-1.69,1.14-3.21,1.31C128.55,75.42,129.65,75.69,130.74,75.94z"/>
	<path d="M86.18,116.13c0.59-0.08,1.18-0.15,1.97-0.25C87.35,116.77,87.35,116.77,86.18,116.13z"/>
	<path d="M103.17,98.39c-0.21-0.58-0.44-0.91-0.41-1.2c0.03-0.22,0.38-0.57,0.59-0.57c0.25,0,0.5,0.3,0.76,0.47
		C103.93,97.34,103.76,97.58,103.17,98.39z"/>
</g>
</svg>
