<?xml version="1.0" encoding="utf-8"?>
<!-- Generator: Adobe Illustrator 23.0.1, SVG Export Plug-In . SVG Version: 6.00 Build 0)  -->
<svg version="1.1" id="Layer_1" xmlns="http://www.w3.org/2000/svg" xmlns:xlink="http://www.w3.org/1999/xlink" x="0px" y="0px"
	 viewBox="0 0 150 150" style="enable-background:new 0 0 150 150;" xml:space="preserve">
<style type="text/css">
	.st0{fill:#F49AB4;}
	.st1{fill:#F28DA7;}
	.st2{fill:#E85072;}
	.st3{fill:#E84B6F;}
	.st4{fill:#EB5A7D;}
	.st5{fill:#EF7994;}
	.st6{fill:#F8BCCD;}
	.st7{fill:#F38CA8;}
	.st8{fill:#EF728F;}
	.st9{fill:#FCE4EB;}
	.st10{fill:#F0CCCF;}
	.st11{fill:#DE8D95;}
	.st12{fill:#EBBABF;}
	.st13{fill:#E7ACB2;}
	.st14{fill:#E39DA3;}
	.st15{fill:#F5DEE0;}
	.st16{fill:#D97A83;}
	.st17{fill:#E4A6AD;}
	.st18{fill:#E9B6BB;}
	.st19{fill:#DA9197;}
	.st20{fill:#CC7077;}
	.st21{fill:#C9646C;}
	.st22{fill:#D4848B;}
	.st23{fill:#D17A81;}
	.st24{fill:#DD9EA3;}
	.st25{fill:#C65760;}
	.st26{fill:#D48189;}
	.st27{fill:#CF6E76;}
	.st28{fill:#C1575F;}
	.st29{fill:#B8424B;}
	.st30{fill:#B33C43;}
	.st31{fill:#BB4952;}
	.st32{fill:#C65E66;}
	.st33{fill:#BC4F57;}
	.st34{fill:#B0353D;}
	.st35{fill:#D67E84;}
	.st36{fill:#C6636B;}
	.st37{fill:#CA6C72;}
	.st38{fill:#B9454D;}
	.st39{fill:#C05B63;}
	.st40{fill:#C0545B;}
	.st41{fill:#BE4C53;}
	.st42{fill:#B43C44;}
	.st43{fill:#DF999F;}
	.st44{fill:#D27980;}
	.st45{fill:#C1555D;}
	.st46{fill:#CB6F76;}
	.st47{fill:#C8676E;}
	.st48{fill:#D5838A;}
	.st49{fill:#C65D64;}
	.st50{fill:#F1D1D4;}
	.st51{fill:#D38087;}
	.st52{fill:#CF737C;}
	.st53{fill:#D98C94;}
	.st54{fill:#E6B3B9;}
	.st55{fill:#D8898F;}
	.st56{fill:#C66269;}
	.st57{fill:#C96A72;}
	.st58{fill:#DD9399;}
	.st59{fill:#CF747B;}
	.st60{fill:#D48188;}
	.st61{fill:#D37D85;}
	.st62{fill:#DC9298;}
	.st63{fill:#D8838B;}
	.st64{fill:#FAECED;}
	.st65{fill:#EFCBD0;}
	.st66{fill:#EDC1C5;}
	.st67{fill:#D28089;}
	.st68{fill:#CB747D;}
	.st69{fill:#A8343C;}
	.st70{fill:#A62F37;}
	.st71{fill:#B03E44;}
	.st72{fill:#C25C63;}
	.st73{fill:#E1A8AC;}
	.st74{fill:#BE535C;}
	.st75{fill:#CE727C;}
	.st76{fill:#F5D8DA;}
	.st77{fill:#D8BAE7;}
	.st78{fill:#BC8FD2;}
	.st79{fill:#B17FC9;}
	.st80{fill:#7D3CA4;}
	.st81{fill:#884BAE;}
	.st82{fill:#A369BF;}
	.st83{fill:#D2B5E2;}
	.st84{fill:#9A62BC;}
	.st85{fill:#B17ECB;}
	.st86{fill:#ECE0F2;}
	.st87{fill:#FBCBC8;}
	.st88{fill:#F5908C;}
	.st89{fill:#F28580;}
	.st90{fill:#E64640;}
	.st91{fill:#E5413B;}
	.st92{fill:#E74E49;}
	.st93{fill:#ED6D68;}
	.st94{fill:#F7B5B0;}
	.st95{fill:#ED6660;}
	.st96{fill:#F48580;}
	.st97{fill:#FBDFDF;}
	.st98{fill:#F9C1C0;}
	.st99{fill:#F7B7B6;}
	.st100{fill:#EF7573;}
	.st101{fill:#EF6F6D;}
	.st102{fill:#F17F7C;}
	.st103{fill:#F4A19F;}
	.st104{fill:#F39998;}
	.st105{fill:#EC7271;}
	.st106{fill:#FAD1CF;}
	.st107{fill:#FADCDC;}
	.st108{fill:#F39391;}
	.st109{fill:#FDECEC;}
	.st110{fill:#FCDDDD;}
	.st111{fill:#ED8280;}
	.st112{fill:#E66160;}
	.st113{fill:#F18784;}
	.st114{fill:#F19593;}
	.st115{fill:#EB7675;}
	.st116{fill:#E86867;}
	.st117{fill:#F28785;}
	.st118{fill:#F3A7A7;}
	.st119{fill:#F08C8B;}
	.st120{fill:#F08785;}
	.st121{fill:#E55D5B;}
	.st122{fill:#E86D6C;}
	.st123{fill:#E85F5D;}
	.st124{fill:#E75958;}
	.st125{fill:#EA6664;}
	.st126{fill:#E76260;}
	.st127{fill:#E04948;}
	.st128{fill:#ED7371;}
	.st129{fill:#EA6B6A;}
	.st130{fill:#EB6763;}
	.st131{fill:#E45352;}
	.st132{fill:#E54E4C;}
	.st133{fill:#DE3635;}
	.st134{fill:#E65958;}
	.st135{fill:#E0413E;}
	.st136{fill:#EA6D6A;}
	.st137{fill:#EE9493;}
	.st138{fill:#EA6866;}
	.st139{fill:#F2A8A6;}
	.st140{fill:#E14543;}
	.st141{fill:#E3413F;}
	.st142{fill:#E64A48;}
	.st143{fill:#E56967;}
	.st144{fill:#E33F3D;}
	.st145{fill:#EB7775;}
	.st146{fill:#EE8483;}
	.st147{fill:#E64845;}
	.st148{fill:#E75655;}
	.st149{fill:#E65451;}
	.st150{fill:#EA7473;}
	.st151{fill:#E55B57;}
	.st152{fill:#E75756;}
	.st153{fill:#EB7472;}
	.st154{fill:#EE8C8A;}
	.st155{fill:#F5A3A2;}
	.st156{fill:#E14A49;}
	.st157{fill:#E14D4C;}
	.st158{fill:#E14B49;}
	.st159{fill:#DE3E3D;}
	.st160{fill:#E45350;}
	.st161{fill:#E14544;}
	.st162{fill:#E54E4B;}
	.st163{fill:#E34240;}
	.st164{fill:#E75C5A;}
	.st165{fill:#EB7C7B;}
	.st166{fill:#F3A2A1;}
	.st167{fill:#EA7877;}
	.st168{fill:#E66B6A;}
	.st169{fill:#E96A69;}
	.st170{fill:#E56160;}
	.st171{fill:#E44845;}
	.st172{fill:#EC7473;}
	.st173{fill:#F9C0D3;}
	.st174{fill:#F298B5;}
	.st175{fill:#EE89A7;}
	.st176{fill:#E54D73;}
	.st177{fill:#E44771;}
	.st178{fill:#E7567E;}
	.st179{fill:#EC7797;}
	.st180{fill:#F8BCCF;}
	.st181{fill:#EB6D8F;}
	.st182{fill:#F089A8;}
	.st183{fill:#FCE2EB;}
	.st184{fill:#E55B7F;}
	.st185{fill:#E6708E;}
	.st186{fill:#EB87A2;}
	.st187{fill:#E25677;}
	.st188{fill:#E7678B;}
	.st189{fill:#FBD7E3;}
	.st190{fill:#ED80A1;}
	.st191{fill:#E24166;}
	.st192{fill:#E13B65;}
	.st193{fill:#E34870;}
	.st194{fill:#E76486;}
	.st195{fill:#F49DB8;}
	.st196{fill:#F7BFD1;}
	.st197{fill:#E65C7F;}
	.st198{fill:#F6ABC4;}
	.st199{fill:#F6A7C2;}
	.st200{fill:#EA6189;}
	.st201{fill:#DB3258;}
	.st202{fill:#DA2E55;}
	.st203{fill:#F7B2C9;}
	.st204{fill:#EA6A8D;}
	.st205{fill:#DC355B;}
	.st206{fill:#DB3159;}
	.st207{fill:#DF3C63;}
	.st208{fill:#F9C5D6;}
	.st209{fill:#EB7697;}
	.st210{fill:#DE3B61;}
	.st211{fill:#DE375F;}
	.st212{fill:#E1426A;}
	.st213{fill:#FDE7EE;}
	.st214{fill:#EE89A9;}
	.st215{fill:#E2456B;}
	.st216{fill:#E14069;}
	.st217{fill:#E44D75;}
	.st218{fill:#E86B8C;}
	.st219{fill:#EE7A9C;}
	.st220{fill:#F5A8C0;}
	.st221{fill:#FACBDA;}
	.st222{fill:#E65A7D;}
	.st223{fill:#E04169;}
	.st224{fill:#FEF5F9;}
	.st225{fill:#F191B0;}
	.st226{fill:#EA7292;}
	.st227{fill:#F6B4C9;}
	.st228{fill:#FBD8E5;}
	.st229{fill:#E96C8F;}
	.st230{fill:#E35477;}
	.st231{fill:#EA7396;}
	.st232{fill:#EB7A9D;}
	.st233{fill:#E8698D;}
	.st234{fill:#EB7094;}
	.st235{fill:#E04B6E;}
	.st236{fill:#E66085;}
	.st237{fill:#EB7294;}
	.st238{fill:#E7678C;}
	.st239{fill:#EA6D91;}
	.st240{fill:#E14C71;}
	.st241{fill:#EE7A9D;}
	.st242{fill:#F393B2;}
	.st243{fill:#DC3F64;}
	.st244{fill:#EF82A3;}
	.st245{fill:#F39DB9;}
	.st246{fill:#DF466B;}
	.st247{fill:#DF4469;}
	.st248{fill:#F29A98;}
	.st249{fill:#E64F4D;}
	.st250{fill:#E74947;}
	.st251{fill:#E85956;}
	.st252{fill:#EC7775;}
	.st253{fill:#F8BCBA;}
	.st254{fill:#EC6F6D;}
	.st255{fill:#FCE2E2;}
	.st256{fill:#F8C8C6;}
	.st257{fill:#F08B89;}
	.st258{fill:#F18A89;}
	.st259{fill:#B093A4;}
	.st260{fill:#A38295;}
	.st261{fill:#6F455A;}
	.st262{fill:#694055;}
	.st263{fill:#794F64;}
	.st264{fill:#936F83;}
	.st265{fill:#CDB7C1;}
	.st266{fill:#B596A5;}
	.st267{fill:#A58394;}
	.st268{fill:#8C667A;}
	.st269{fill:#B696A7;}
	.st270{fill:#E8E0E7;}
	.st271{fill:#E1BCC2;}
	.st272{fill:#A9666E;}
	.st273{fill:#681C23;}
	.st274{fill:#641920;}
	.st275{fill:#73242D;}
	.st276{fill:#8D3F48;}
	.st277{fill:#C69197;}
	.st278{fill:#893841;}
	.st279{fill:#E3CCCE;}
	.st280{fill:#6F292E;}
	.st281{fill:#A15A63;}
	.st282{fill:#944952;}
	.st283{fill:#944953;}
	.st284{fill:#964A53;}
	.st285{fill:#984B54;}
	.st286{fill:#974A53;}
	.st287{fill:#A25A62;}
	.st288{fill:#D2BCC8;}
	.st289{fill:#C8B2BE;}
	.st290{fill:#936A80;}
	.st291{fill:#8E667B;}
	.st292{fill:#9B7589;}
	.st293{fill:#B293A3;}
	.st294{fill:#916B7F;}
	.st295{fill:#DDCCD6;}
	.st296{fill:#AC8B9C;}
	.st297{fill:#F1EBEF;}
	.st298{fill:#9C7A8C;}
	.st299{fill:#8F6C80;}
	.st300{fill:#B99DAC;}
	.st301{fill:#A27F91;}
	.st302{fill:#C2A7B6;}
	.st303{fill:#AB8E9F;}
	.st304{fill:#936D82;}
	.st305{fill:#856174;}
	.st306{fill:#B99DAB;}
	.st307{fill:#C2A9B6;}
	.st308{fill:#A38091;}
	.st309{fill:#BBA3B0;}
	.st310{fill:#7A5468;}
	.st311{fill:#855F73;}
	.st312{fill:#AE8E9F;}
	.st313{fill:#7C556A;}
	.st314{fill:#7B5066;}
	.st315{fill:#855C71;}
	.st316{fill:#AF8E9F;}
	.st317{fill:#734B60;}
	.st318{fill:#694256;}
	.st319{fill:#916A80;}
	.st320{fill:#886378;}
	.st321{fill:#875C71;}
	.st322{fill:#714B5E;}
	.st323{fill:#582F42;}
	.st324{fill:#795066;}
	.st325{fill:#5E3A4B;}
	.st326{fill:#8A6578;}
	.st327{fill:#A98E9D;}
	.st328{fill:#B9A1B1;}
	.st329{fill:#B08F9F;}
	.st330{fill:#B898AA;}
	.st331{fill:#896578;}
	.st332{fill:#653C50;}
	.st333{fill:#623A4E;}
	.st334{fill:#6C4257;}
	.st335{fill:#B28FA1;}
	.st336{fill:#80596E;}
	.st337{fill:#7F586C;}
	.st338{fill:#765063;}
	.st339{fill:#683F53;}
	.st340{fill:#774E63;}
	.st341{fill:#704B5F;}
	.st342{fill:#674355;}
	.st343{fill:#7F5A6E;}
	.st344{fill:#815A6E;}
	.st345{fill:#6A4558;}
	.st346{fill:#5D374A;}
	.st347{fill:#926D80;}
	.st348{fill:#70475B;}
	.st349{fill:#72495E;}
	.st350{fill:#673D52;}
	.st351{fill:#673D51;}
	.st352{fill:#60364B;}
	.st353{fill:#795265;}
	.st354{fill:#683F52;}
	.st355{fill:#7A5368;}
	.st356{fill:#987387;}
	.st357{fill:#70475C;}
	.st358{fill:#A07D92;}
	.st359{fill:#81596E;}
	.st360{fill:#926C7F;}
	.st361{fill:#80596D;}
	.st362{fill:#CDC0E4;}
	.st363{fill:#A998CF;}
	.st364{fill:#644DA1;}
	.st365{fill:#5E479E;}
	.st366{fill:#6F56A9;}
	.st367{fill:#755CAC;}
	.st368{fill:#8975BA;}
	.st369{fill:#C4BAE0;}
	.st370{fill:#755DAD;}
	.st371{fill:#846DB7;}
	.st372{fill:#E7E2F2;}
	.st373{fill:#9B89C5;}
	.st374{fill:#8871B8;}
	.st375{fill:#9C89C6;}
	.st376{fill:#8673B9;}
	.st377{fill:#B9E1BA;}
	.st378{fill:#ADDBAE;}
	.st379{fill:#99D09A;}
	.st380{fill:#65B567;}
	.st381{fill:#5FB261;}
	.st382{fill:#70BB71;}
	.st383{fill:#8DCB8E;}
	.st384{fill:#CBE9CB;}
	.st385{fill:#86C687;}
	.st386{fill:#98D099;}
	.st387{fill:#EBF5EB;}
	.st388{fill:#B9D6C9;}
	.st389{fill:#8EBD9E;}
	.st390{fill:#7DB18E;}
	.st391{fill:#408251;}
	.st392{fill:#3A7F4C;}
	.st393{fill:#4A8C5B;}
	.st394{fill:#68A279;}
	.st395{fill:#B5D4BE;}
	.st396{fill:#7CB38B;}
	.st397{fill:#619D71;}
	.st398{fill:#E0ECE4;}
	.st399{fill:#74A38C;}
	.st400{fill:#679880;}
	.st401{fill:#669780;}
	.st402{fill:#669881;}
	.st403{fill:#285E41;}
	.st404{fill:#235A3C;}
	.st405{fill:#31684A;}
	.st406{fill:#4D8268;}
	.st407{fill:#A1C2B0;}
	.st408{fill:#679981;}
	.st409{fill:#467B62;}
	.st410{fill:#D6E5DF;}
	.st411{fill:#8ECA8F;}
	.st412{fill:#7DC07F;}
	.st413{fill:#409841;}
	.st414{fill:#3A933C;}
	.st415{fill:#4AA14B;}
	.st416{fill:#68B569;}
	.st417{fill:#7CC07D;}
	.st418{fill:#B5DDB5;}
	.st419{fill:#61B062;}
	.st420{fill:#7CC17E;}
	.st421{fill:#E0EFE0;}
	.st422{fill:#EBF5DE;}
	.st423{fill:#D4EAB8;}
	.st424{fill:#D2E9B4;}
	.st425{fill:#D8ECBE;}
	.st426{fill:#E2F0CE;}
	.st427{fill:#F3F9EA;}
	.st428{fill:#DFF0CA;}
	.st429{fill:#FAFDF7;}
	.st430{fill:#D3C9BE;}
	.st431{fill:#CBBEB3;}
	.st432{fill:#BBAC9F;}
	.st433{fill:#97826F;}
	.st434{fill:#947E69;}
	.st435{fill:#9F8A79;}
	.st436{fill:#B5A495;}
	.st437{fill:#DED6CE;}
	.st438{fill:#BBAD9F;}
	.st439{fill:#AE9E8D;}
	.st440{fill:#F2EFEC;}
	.st441{fill:#B1A091;}
	.st442{fill:#B1A090;}
	.st443{fill:#D8BACF;}
	.st444{fill:#976286;}
	.st445{fill:#905778;}
	.st446{fill:#4F1939;}
	.st447{fill:#4C1637;}
	.st448{fill:#5A2144;}
	.st449{fill:#773B60;}
	.st450{fill:#B88FAD;}
	.st451{fill:#6E345A;}
	.st452{fill:#8E567D;}
	.st453{fill:#E1CCDA;}
	.st454{fill:#C4E2A7;}
	.st455{fill:#93C35F;}
	.st456{fill:#8EC15A;}
	.st457{fill:#9AC868;}
	.st458{fill:#B0D587;}
	.st459{fill:#DCEBC3;}
	.st460{fill:#C8E0AA;}
	.st461{fill:#ABD280;}
	.st462{fill:#CAE2A9;}
	.st463{fill:#EFF8E7;}
	.st464{fill:#FFF6C0;}
	.st465{fill:#FFEC97;}
	.st466{fill:#FFDC4B;}
	.st467{fill:#FFD945;}
	.st468{fill:#FFDD54;}
	.st469{fill:#FFE774;}
	.st470{fill:#FFF4BA;}
	.st471{fill:#FFE46C;}
	.st472{fill:#FFF9E2;}
	.st473{fill:#FDE2C1;}
	.st474{fill:#F9CA98;}
	.st475{fill:#F9C18A;}
	.st476{fill:#F5994E;}
	.st477{fill:#F49448;}
	.st478{fill:#F8A158;}
	.st479{fill:#F8B577;}
	.st480{fill:#FCDDBC;}
	.st481{fill:#F8B06F;}
	.st482{fill:#FFEFE2;}
	.st483{fill:#F8A7A4;}
	.st484{fill:#EF8262;}
	.st485{fill:#EC605A;}
	.st486{fill:#EB5B55;}
	.st487{fill:#EC6964;}
	.st488{fill:#F28783;}
	.st489{fill:#F9C4C1;}
	.st490{fill:#F2817A;}
	.st491{fill:#EB6449;}
	.st492{fill:#FCE7E7;}
	.st493{fill:#FFEA88;}
	.st494{fill:#FFEB87;}
	.st495{fill:#FDF2E3;}
	.st496{fill:#FDEFDD;}
	.st497{fill:#F9E1C4;}
	.st498{fill:#FADEB9;}
	.st499{fill:#FADDB7;}
	.st500{fill:#FAE0BF;}
	.st501{fill:#FBE9CF;}
	.st502{fill:#F9DAB8;}
	.st503{fill:#FDF5EB;}
	.st504{fill:#FBE6CB;}
	.st505{fill:#FFFBF7;}
	.st506{fill:#FBDFBE;}
	.st507{fill:#F7D8B5;}
	.st508{fill:#FBE8CF;}
	.st509{fill:#FBE3C8;}
	.st510{fill:#F9E8CF;}
	.st511{fill:#F8DBB7;}
	.st512{fill:#FADBB5;}
	.st513{fill:#F7D5AE;}
	.st514{fill:#FDE9D5;}
	.st515{fill:#FAE3C8;}
	.st516{fill:#F7D1A4;}
	.st517{fill:#F5CD9D;}
	.st518{fill:#F7D8B0;}
	.st519{fill:#F8D4A9;}
	.st520{fill:#F8D3A6;}
	.st521{fill:#F8D8AF;}
	.st522{fill:#F7CD9E;}
	.st523{fill:#F4C896;}
	.st524{fill:#FBE3C5;}
	.st525{fill:#F7DBB8;}
	.st526{fill:#F7D8B1;}
	.st527{fill:#F7D7B0;}
	.st528{fill:#F8CD9F;}
	.st529{fill:#F8CD9E;}
	.st530{fill:#F1BE84;}
	.st531{fill:#F8D0A3;}
	.st532{fill:#F1C38D;}
	.st533{fill:#F8D8B1;}
	.st534{fill:#FBE2C8;}
	.st535{fill:#F9EAD3;}
	.st536{fill:#F9D3AA;}
	.st537{fill:#F7C896;}
	.st538{fill:#F7C794;}
	.st539{fill:#F7CA9A;}
	.st540{fill:#F7D3AB;}
	.st541{fill:#F8D8B5;}
	.st542{fill:#F9E6CF;}
	.st543{fill:#F7C897;}
	.st544{fill:#F8D3AA;}
	.st545{fill:#F7CEA2;}
	.st546{fill:#F4CD9E;}
	.st547{fill:#F5D2A5;}
	.st548{fill:#FBE2C2;}
	.st549{fill:#F5D1A8;}
	.st550{fill:#F8D5AB;}
	.st551{fill:#F2C695;}
	.st552{fill:#F8D3A8;}
	.st553{fill:#F5C998;}
	.st554{fill:#F5C894;}
	.st555{fill:#F2C997;}
	.st556{fill:#F2C48D;}
	.st557{fill:#F4C694;}
	.st558{fill:#F5CE9D;}
	.st559{fill:#F4C594;}
	.st560{fill:#F5C995;}
	.st561{fill:#F4C48F;}
	.st562{fill:#F7D2A6;}
	.st563{fill:#F8DFBB;}
	.st564{fill:#FBE2C3;}
	.st565{fill:#F8CC9E;}
	.st566{fill:#FADFC1;}
	.st567{fill:#F9D8B5;}
	.st568{fill:#F4C997;}
	.st569{fill:#F9DDB8;}
	.st570{fill:#FDFCED;}
	.st571{fill:#FBF7D2;}
	.st572{fill:#F9F6CB;}
	.st573{fill:#F4EBA8;}
	.st574{fill:#F5E9A6;}
	.st575{fill:#F5EDAC;}
	.st576{fill:#F7F5C0;}
	.st577{fill:#FBFBE1;}
	.st578{fill:#F7F0BE;}
	.st579{fill:#FAF6CE;}
	.st580{fill:#FFFBF5;}
	.st581{fill:#BDDB97;}
	.st582{fill:#BBDC99;}
	.st583{fill:#BDDD99;}
	.st584{fill:#B0D484;}
	.st585{fill:#AFD484;}
	.st586{fill:#FFEA87;}
	.st587{fill:#D3E9BA;}
	.st588{fill:#E1EECE;}
	.st589{fill:#D3E8BB;}
	.st590{fill:#E3EECE;}
	.st591{opacity:0.9;}
	.st592{fill:#FFF8CD;}
	.st593{opacity:0.9;fill:#FFEE8A;}
	.st594{fill:#FFF19E;}
	.st595{fill:#FFF5B6;}
	.st596{fill:#FFFBE0;}
	.st597{fill:none;stroke:#FFF4B1;stroke-width:0;}
	.st598{fill:#FFFDF3;}
	.st599{fill:#FACEDD;}
	.st600{opacity:0.9;fill:#F38CAF;}
	.st601{fill:#F5A0BD;}
	.st602{fill:#F8B8CD;}
	.st603{fill:#FCE1EA;}
	.st604{fill:none;stroke:#F7B2C9;stroke-width:0;}
	.st605{fill:#FEF3F7;}
	.st606{fill:#FBDBB6;}
	.st607{fill:#FBD1A3;}
	.st608{fill:#F9B674;}
	.st609{fill:#F8B36E;}
	.st610{fill:#FABB7E;}
	.st611{fill:#FACB99;}
	.st612{fill:#FDE9D1;}
	.st613{fill:#FAC893;}
	.st614{fill:#F9D0A1;}
	.st615{fill:#FFF5EC;}
	.st616{fill:#D7ECC0;}
	.st617{fill:#B1D684;}
	.st618{fill:#ADD680;}
	.st619{fill:#B7D98D;}
	.st620{fill:#C8E2A7;}
	.st621{fill:#E8F2D6;}
	.st622{fill:#C3E0A0;}
	.st623{fill:#F5FAEF;}
	.st624{fill:#A87699;}
	.st625{fill:#A9716E;}
	.st626{fill:#9F698A;}
	.st627{fill:#9F698D;}
	.st628{fill:#65294F;}
	.st629{fill:#632638;}
	.st630{fill:#62244A;}
	.st631{fill:#612335;}
	.st632{fill:#6E3259;}
	.st633{fill:#6D2F40;}
	.st634{fill:#8B4E74;}
	.st635{fill:#C4A1BB;}
	.st636{fill:#9D688D;}
	.st637{fill:#82476E;}
	.st638{fill:#E7D6E1;}
	.st639{fill:#FFF9D6;}
	.st640{fill:#FFF2A6;}
	.st641{fill:#FFF4B0;}
	.st642{fill:#FFF7C4;}
	.st643{fill:#FFFCE6;}
	.st644{fill:#FFF3B5;}
	.st645{fill:#FFED8B;}
	.st646{fill:#FFED94;}
	.st647{fill:#FFF1A4;}
	.st648{fill:#FFF5BF;}
	.st649{fill:#FFF6CD;}
	.st650{fill:#FFE46E;}
	.st651{fill:#FFED98;}
	.st652{fill:#FFF3A9;}
	.st653{fill:#FFEC8D;}
	.st654{fill:#FFE66B;}
	.st655{fill:#FFEC8A;}
	.st656{fill:#FFE66D;}
	.st657{fill:#FFE571;}
	.st658{fill:#FFEF94;}
	.st659{fill:#FFEF9E;}
	.st660{fill:#FFED93;}
	.st661{fill:#FFE873;}
	.st662{fill:#FFE97A;}
	.st663{fill:#FFEC87;}
	.st664{fill:#FFF19F;}
	.st665{fill:#FFF1A8;}
	.st666{fill:#FFEA7E;}
	.st667{fill:#FFEB86;}
	.st668{fill:#FFEF97;}
	.st669{fill:#FFF2B0;}
	.st670{fill:#FFF4BC;}
	.st671{fill:#FFF5C1;}
	.st672{fill:#FFF8CF;}
	.st673{fill:#FFF8DC;}
	.st674{fill:#FFF0A0;}
	.st675{fill:#FFEE92;}
	.st676{fill:#FFF6CE;}
	.st677{fill:#FFFADD;}
	.st678{fill:#FFFBEC;}
	.st679{fill:#FFFDF5;}
	.st680{fill:#F49C52;}
	.st681{fill:#F69D52;}
	.st682{fill:#F8A55E;}
	.st683{fill:#F8B472;}
	.st684{fill:#F59D54;}
	.st685{fill:#F8A65F;}
	.st686{fill:#F8B474;}
	.st687{fill:#FDF3E9;}
	.st688{fill:#FAE8D1;}
	.st689{fill:#FAE8CF;}
	.st690{fill:#FAEBD4;}
	.st691{fill:#F9EDD7;}
	.st692{fill:#FBEFDE;}
	.st693{fill:#FBEFDD;}
	.st694{fill:#FDF8F1;}
	.st695{fill:#FBEDD7;}
	.st696{fill:#FBEFDC;}
	.st697{fill:#FFFBFA;}
	.st698{fill:#FFE771;}
	.st699{fill:#FFEB83;}
	.st700{fill:#FFED90;}
	.st701{fill:#F7B6CB;}
	.st702{fill:#F4A2BB;}
	.st703{fill:#EE7397;}
	.st704{fill:#ED6D94;}
	.st705{fill:#EF7C9F;}
	.st706{fill:#F399B5;}
	.st707{fill:#FAD1DE;}
	.st708{fill:#F291AE;}
	.st709{fill:#F3A1BB;}
	.st710{fill:#FDECF2;}
</style>
<g>
	<path class="st464" d="M79.5,128.74L79.5,128.74c-1.37,0.25-2.69,0.5-3.95,0.73l0,0C76.81,129.23,78.13,128.99,79.5,128.74
		 M81.36,128.41L81.36,128.41c-0.58,0.1-1.15,0.2-1.71,0.3c-0.05,0.01-0.1,0.02-0.15,0.03c0.05-0.01,0.1-0.02,0.15-0.03
		C80.21,128.61,80.78,128.51,81.36,128.41 M90.11,127.2L90.11,127.2c-0.31,0.03-0.61,0.06-0.91,0.09l0,0
		C89.5,127.26,89.8,127.23,90.11,127.2L90.11,127.2 M96.22,125.02c-0.02,0.01-0.04,0.02-0.06,0.02l0,0l0,0
		C96.19,125.04,96.2,125.03,96.22,125.02 M111.34,114.73L111.34,114.73c-0.23,0.23-0.46,0.46-0.66,0.67
		c-0.38,0.36-0.74,0.7-1.07,1.01c-1.41,1.32-2.35,2.14-2.35,2.14l-0.15,0.07l0,0l0.15-0.07c0,0,0.94-0.82,2.35-2.14
		c0.33-0.31,0.69-0.65,1.07-1.01C110.89,115.18,111.11,114.96,111.34,114.73L111.34,114.73 M112.75,113.17L112.75,113.17
		c-0.01,0.01-0.01,0.02-0.02,0.03C112.74,113.19,112.74,113.18,112.75,113.17L112.75,113.17 M115.71,107.27L115.71,107.27
		c-0.01,0.25-0.04,0.5-0.09,0.75l0,0C115.68,107.77,115.71,107.52,115.71,107.27 M115.72,107.13c0,0.05,0,0.09,0,0.14
		C115.72,107.23,115.72,107.18,115.72,107.13L115.72,107.13 M115.57,106.1L115.57,106.1c0.1,0.33,0.15,0.68,0.15,1.04l0,0
		C115.72,106.78,115.67,106.43,115.57,106.1 M117.06,103.49L117.06,103.49c-0.02,0.03-0.04,0.06-0.06,0.09
		c-0.01,0.01-0.01,0.02-0.02,0.03c-0.72,1.05-1.32,2.1-1.44,2.3l0,0c0.11-0.2,0.72-1.25,1.44-2.3
		C117,103.57,117.03,103.53,117.06,103.49 M120.06,100.45L120.06,100.45c-0.15,0.14-0.23,0.22-0.23,0.22l0,0
		c-0.1,0.03-0.22,0.08-0.34,0.16l0,0c0.13-0.08,0.24-0.14,0.34-0.16C119.83,100.67,119.91,100.59,120.06,100.45L120.06,100.45
		 M127.58,80.46c0,1.01-0.06,2.01-0.18,3.01c-0.21,1.96-0.68,3.86-1.17,5.5c-1,3.29-2.22,5.7-3.2,7.39c-0.99,1.7-1.81,2.76-2.35,3.4
		c-0.01,0.01-0.02,0.02-0.03,0.03c0.01-0.01,0.02-0.02,0.03-0.03c0.53-0.64,1.36-1.7,2.35-3.4c0.97-1.69,2.19-4.1,3.2-7.39
		c0.49-1.64,0.96-3.54,1.17-5.5C127.52,82.47,127.58,81.46,127.58,80.46L127.58,80.46 M127.57,79.54L127.57,79.54
		c0.01,0.31,0.02,0.61,0.02,0.92l0,0C127.58,80.15,127.58,79.84,127.57,79.54"/>
	<path class="st465" d="M84.65,23.46c-1.78,0-3.64,1.37-5.02,2.79c-3.25,4.14-6.64,6.94-10.76,9.13c-0.2,0.05-0.4,0.07-0.59,0.07
		c-0.6,0-1.16-0.2-1.8-0.41c-0.64-0.2-1.36-0.41-2.27-0.41c-0.14,0-0.28,0-0.43,0.02c-2.72,0.57-5.45,1.92-8.24,3.86
		c-2.74,1.94-5.72,4.45-8.59,8c-1.47,1.5-2.63,3.23-3.47,4.86c-0.84,1.67-1.4,3.35-1.67,4.83c-0.25,1.29-0.34,2.44-0.34,3.46
		c0,1.36,0.17,2.5,0.36,3.45c0.77,3.31,1.83,4.72,2.52,5.58c1.39,1.56,1.76,0.98,1.76,1.34l0,0c0,0.01,0,0.03,0,0.05
		c0.07,0.17,0.11,0.33,0.14,0.49l0,0l0,0l0,0l0,0c-0.4,0.75-0.81,1.56-1.21,2.43c-0.23,0.5-0.46,1.01-0.69,1.52
		c-0.25,0.57-0.35,0.91-0.9,2c-0.88,1.84-1.67,3.65-2.36,5.46c-1.28,3.35-1.78,5.91-1.92,8.19c-0.03,0.48-0.04,0.95-0.04,1.41
		c0,1.72,0.19,3.34,0.43,5.07c0.35,2.07,0.39,4.65,0.75,7.37c0-0.79,0.03-2.74,0.16-5.03c0-0.01-0.01-0.02-0.01-0.03
		c-0.3-0.77-0.57-1.55-0.81-2.34c-0.24-1.76-0.43-3.39-0.43-5.13l0,0c0-0.44,0.01-0.9,0.04-1.36c0.14-2.28,0.63-4.83,1.91-8.19
		c0.69-1.8,1.48-3.62,2.36-5.46l0.34-0.69l0.17-0.42l0.34-0.8c0.22-0.53,0.46-1.03,0.69-1.52c0.91-1.96,1.82-3.6,2.67-4.99
		c0.1-0.16,0.16-0.23,0.19-0.23c0.02,0,0.03,0.02,0.03,0.07l0,0c0,0.12-0.07,0.4-0.15,0.68c-0.3,0.97-0.72,2.23-1.14,3.71
		c-0.38,1.33-0.76,2.83-0.98,4.26c0.59,1.1,1.42,1.86,2.31,2.35c1.01,0.57,2.1,0.79,3.11,0.87c1.67,0.2,3.3,0.4,4.77,0.89l5.79,2.87
		c1.54-1.75,2.99-3.36,4.55-4.58c0.09-0.07,0.19-0.15,0.28-0.22c-0.01-0.03-0.01-0.05-0.02-0.08l-0.03-0.13l-0.13-0.8
		c-0.04-0.25-0.09-0.5-0.13-0.75c-0.58-0.35-1.13-0.71-1.63-0.93c-0.42-0.13-0.82-0.19-1.22-0.19c-0.51,0-1.01,0.09-1.52,0.21
		c0,0.06,0.01,0.11,0.01,0.17c0.18,0.51,0.39,1.01,0.61,1.51l0,0l0,0l0,0l-2.44-1.21l0,0l0,0c0.63-0.14,1.23-0.32,1.82-0.47
		c-0.01-0.13-0.01-0.26-0.01-0.39l0,0c0-0.69,0.11-1.38,0.29-2.18l-3.19-1.58l0,0l0,0c0.63,0.03,1.24,0.16,1.96,0.37
		c0.46,0.19,0.91,0.42,1.36,0.67c0-0.01,0-0.02,0.01-0.03c0.07-0.22,0.11-0.43,0.12-0.63l-3.8-1.88l0,0l0,0
		c0.88,0.3,1.8,0.64,2.84,1.1c0.31,0.18,0.63,0.35,0.95,0.49c-0.14-1.32-1.61-2.08-2.65-2.94c-0.65-0.38-0.96-1-1.08-1.65
		c-0.3-0.16-0.6-0.32-0.89-0.47l0,0l0,0l0,0l0.88,0.44c-0.04-0.24-0.06-0.49-0.06-0.72l0,0c0-0.03,0-0.07,0-0.1
		c0.01-0.61,0.11-1.21,0.11-1.73c0-0.27-0.03-0.52-0.11-0.75c-0.24-0.89-1.13-1.53-1.69-2.38c-0.26-0.37-0.43-0.79-0.43-1.16l0,0
		c0-0.44,0.23-0.79,0.79-0.89c-0.04,0-0.08,0.01-0.12,0.01c-0.23,0-0.33-0.1-0.33-0.27l0,0c0-0.1,0.04-0.22,0.11-0.37
		c0.21-0.42,0.78-0.94,1.53-1.29c0.76-0.36,1.64-0.52,2.22-0.52c0.39,0,0.64,0.07,0.64,0.2l0,0c0,0.05-0.04,0.11-0.13,0.18
		c0.22,0.01,0.85,0.88,1.08,1.57c0.08,0.45,0.28,1.11,0.28,1.44l0,0c0,0.05,0,0.09-0.01,0.12c-0.1,0.34-0.14,0.7-0.14,1.09
		c0,0.19,0.01,0.39,0.03,0.59l0.16,0.02l0.12,0.01c0,0,0,0,0,0l0.01,0l-0.01,0c0,0,0,0,0,0c0.22,0.01,0.46,0.02,0.71,0.02
		c0,0,0.01,0,0.01,0c0.41,0,1.09-0.03,1.43-0.08c0.42-0.07,0.71-0.1,0.91-0.1c0.22,0,0.33,0.04,0.4,0.1l2.32-0.52l0,0h0l0.16-0.04
		l0.66-0.14c2.63-0.59,5.25-1.18,7.86-1.77c2.16-0.5,4.32-1.01,6.47-1.51c0.06-0.01,0.11-0.03,0.17-0.04
		c1.13-0.28,2.25-0.55,3.37-0.82c0.03-0.01,0.05-0.01,0.08-0.02c0.31-0.08,0.62-0.16,0.93-0.23c0.16-0.04,0.32-0.09,0.48-0.13
		l1.51-0.41c0.05-0.01,0.11-0.03,0.16-0.04L91,56.5l0.82-0.24c0.18-0.06,0.36-0.11,0.54-0.17c0.02-0.01,0.04-0.01,0.05-0.02
		L93,55.89c0.03-0.01,0.06-0.02,0.08-0.03l0.4-0.14c0.02-0.01,0.05-0.02,0.07-0.03c0.03-0.01,0.05-0.02,0.08-0.03l0.1-0.04
		c0.17-0.06,0.33-0.12,0.48-0.18c0.07-0.03,0.13-0.05,0.2-0.08c0.01-0.01,0.03-0.01,0.04-0.02c0.14-0.06,0.26-0.11,0.39-0.16
		c0.08-0.04,0.15-0.07,0.22-0.1c0.02-0.01,0.04-0.02,0.06-0.03c0.08-0.04,0.15-0.07,0.22-0.1c0.08-0.04,0.15-0.08,0.22-0.11
		c0.16-0.08,0.3-0.17,0.43-0.24c0.13-0.08,0.24-0.16,0.34-0.23c0.09-0.2,0.19-0.41,0.3-0.64c0.24-0.45,0.54-0.99,1.2-1.28
		c0.25-0.11,0.54-0.16,0.86-0.16c0.54,0,1.14,0.15,1.73,0.41c0.94,0.4,1.86,1.05,2.74,1.54c1.77,0.95,3.68,2.08,5.59,3.63
		c1.91,1.55,3.83,3.52,5.43,6.29c1.52,2.67,2.72,6.24,2.72,10.57l0,0c0,0.12,0,0.24,0,0.37c-0.03,2.22-0.44,4.67-1.12,6.94
		c-0.67,2.26-1.53,4.25-2.4,5.97c-0.86,1.7-1.75,3.15-2.52,4.31c-0.8,1.18-1.44,2.06-2.08,2.78c0,0-0.88,0.82-0.88,4.12
		c0,0.62,0.03,1.33,0.1,2.14l0,0l0,0l0,0l0,0c0,0-0.82,2.23-2.45,4.31c-0.41,0.52-0.87,1.03-1.37,1.48
		c-0.26,0.24-0.5,0.43-0.82,0.67c-0.44,0.35-0.89,0.69-1.35,0.99c-1.77,1.19-3.63,1.98-5.48,1.98c-0.07,0-0.15,0-0.22,0
		c0,0-1.04,0.36-2.71,0.93c-1.65,0.56-3.87,1.28-6.23,1.95c-2.36,0.68-4.88,1.31-7.21,1.87c-2.33,0.58-4.5,1.02-6.03,1.74
		c0,0-1.64-0.71-3.59-1.32c-1.18-0.35-2.46-0.69-3.66-0.69c-0.05,0-0.1,0-0.14,0c-0.21,0.06-0.4,0.11-0.58,0.16
		c-0.95,0.24-1.49,0.37-1.49,0.37l0,0l0,0l0,0l0,0c0.63-0.36,1.34-0.51,2.08-0.53c0.72-0.2,1.6-0.45,2.59-0.78
		c-2.41,0.52-4.83,0.71-7.04,0.71c-0.66,0-1.3-0.02-1.91-0.05c-3.63-0.22-6.29-0.85-6.82-1.83c0,0-0.22-0.05-0.6-0.15
		c-0.19-0.05-0.42-0.11-0.69-0.18c-0.13-0.04-0.28-0.07-0.43-0.12c-0.11-0.04-0.22-0.08-0.34-0.12c-0.47-0.17-1.03-0.37-1.65-0.59
		c-0.65-0.23-1.14-0.47-2.19-0.8c-0.57-0.18-1.01-0.35-1.48-0.55c-0.46-0.2-0.92-0.41-1.37-0.65c-0.89-0.47-1.72-1.04-2.4-1.68
		c-1.02-0.95-1.6-2.06-1.89-3.05c0.13,0.73,0.28,1.47,0.48,2.21c0.53,1.99,1.3,3.92,2.08,5.79c0.81,1.88,1.6,3.72,2.36,5.49
		c0.13,0.35,0.26,0.7,0.39,1.06c0.17,0.37,0.34,0.74,0.51,1.12c0.31,0.75,0.61,1.52,0.84,2.28c0.39,1.51,0.65,3.01,1.1,4.36
		c0.21,0.67,0.45,1.31,0.72,1.88c0.14,0.29,0.28,0.56,0.44,0.81c0.08,0.13,0.16,0.25,0.24,0.37l0.12,0.17l0.06,0.08l0.13,0.09
		c1.38,0.93,3.12,1.56,5.23,1.7c0.5,0.02,1,0.03,1.5,0.03c4.41,0,8.53-0.82,12.41-1.81c2.15-0.53,4.26-1.09,6.44-1.58
		c-1.63,0.31-3.16,0.6-4.56,0.89l0,0c-2.03,0.41-3.8,0.8-5.2,1.13c-0.34,0.08-0.66,0.15-0.95,0.23l0,0
		c-0.05,0.01-0.11,0.03-0.16,0.04c-1.42,0.35-2.24,0.6-2.24,0.6l0,0l0,0l0,0l0,0c0,0,0.83-0.25,2.24-0.6
		c0.05-0.01,0.1-0.03,0.16-0.04l0,0c0.29-0.07,0.61-0.15,0.95-0.23c1.4-0.33,3.18-0.72,5.2-1.13l0,0c1.4-0.29,2.92-0.58,4.56-0.89
		c1.86-0.42,3.78-0.79,5.81-1.06c2.47-0.42,5.08-0.82,7.83-1.12c1-0.22,1.98-0.48,2.96-0.78c3.03-0.93,6-2.26,9.07-4.33
		c0.14-0.05,0.33-0.13,0.55-0.24c0.8-0.56,1.41-1.07,1.73-1.47l0,0l3.61-1.86c0.68-0.74,1.39-1.46,2.12-2.17
		c0.39-0.38,0.79-0.75,1.19-1.13l0.65-0.61c0.65-0.6,1.3-1.19,1.91-1.81c1.23-1.51,2.33-3.25,2.65-4.87
		c0.03-0.24,0.04-0.49,0.04-0.75c0-0.38-0.03-0.77-0.1-1.18c-0.02-0.05-0.03-0.11-0.05-0.16l0,0l0,0l0,0l0,0l0,0l0,0l0,0l0,0l0,0
		l0,0c0,0,0.01-0.01,0.02-0.03c-0.01-0.04-0.02-0.08-0.02-0.12l0,0l0,0l0,0l0,0c0.49-0.91,1.02-1.65,1.54-2.3
		c0.37-0.54,0.79-1.09,1.29-1.63c0.4-0.43,0.8-0.81,1.14-1.02c0.17-0.19,0.35-0.38,0.53-0.58c0.99-1.12,2.08-2.46,3.15-4.25
		c1.07-1.81,2.15-4.08,2.97-7.08c0.49-1.92,0.93-4.01,1.16-6.04c0.14-1.02,0.22-2.03,0.25-3.01c0-0.11,0.01-0.22,0.01-0.33
		c-0.02-0.67-0.07-1.34-0.15-2c0.07,0.67,0.12,1.33,0.15,2l0,0c-0.02-0.67-0.07-1.34-0.15-2c0.07,0.67,0.12,1.33,0.15,2l0,0
		c-0.02-0.67-0.07-1.34-0.15-2c0.07,0.67,0.12,1.33,0.15,2c0.02-0.54,0.04-1.07,0.04-1.6c0-0.33-0.01-0.66-0.02-0.98
		c-0.1-3.79-0.74-7.18-1.59-10.05c-1.71-5.78-3.97-9.78-5.25-13.33c-0.19-0.48-0.38-0.96-0.56-1.43c-0.16-0.44-0.33-0.88-0.49-1.32
		c-0.08-0.22-0.13-0.38-0.25-0.79l-0.44-1.51c-0.39-1.21-0.92-2.9-2.11-5.13c-0.58-1.09-1.4-2.39-2.43-3.67
		c-1.07-1.33-2.39-2.68-3.98-3.89c-1.57-1.21-3.41-2.26-5.13-2.96c-1.73-0.72-3.32-1.14-4.67-1.41c-2.71-0.51-4.42-0.49-5.44-0.55
		c-0.52-0.02-0.81-0.04-0.96-0.07l-0.58-0.11c-1.1-0.12-5.22-4.56-6.47-6.02C86.45,23.82,85.56,23.46,84.65,23.46"/>
	<path class="st465" d="M93.06,55.87c-0.02,0.01-0.03,0.01-0.05,0.02l0.03-0.01L93.06,55.87"/>
	<path class="st465" d="M92.09,56.18c-0.03,0.01-0.07,0.02-0.1,0.03l-0.16,0.05c-0.07,0.02-0.14,0.04-0.2,0.06
		C91.78,56.28,91.93,56.23,92.09,56.18"/>
	<path class="st465" d="M90.22,56.73l-0.1,0.03c-0.2,0.06-0.4,0.11-0.61,0.17c-0.3,0.08-0.6,0.16-0.9,0.24l-0.34,0.09l1.67-0.44
		L90.22,56.73"/>
	<path class="st465" d="M87.12,57.54c0,0-0.01,0-0.01,0c-0.43,0.11-0.85,0.21-1.28,0.32c0.07-0.02,0.14-0.03,0.21-0.05
		C86.4,57.72,86.76,57.63,87.12,57.54"/>
	<path class="st465" d="M82.57,58.65c-1.76,0.41-3.52,0.82-5.29,1.23c-0.06,0.01-0.13,0.03-0.19,0.04c-0.14,0.03-0.28,0.06-0.42,0.1
		l-6.48,1.46l-0.97,0.21c-0.03,0.01-0.06,0.01-0.08,0.02l-0.74,0.17l0,0l0,0.01l-0.01,0.05l-0.04,0.18l-0.06,0.35
		c-0.03,0.24-0.05,0.43-0.06,0.62c0,0.05,0,0.11,0,0.16c0,0.13,0.01,0.24,0.02,0.35c0.34,0.12,0.63,0.3,0.77,0.65
		c0.06,0.17,0.13,0.34,0.2,0.52c0.04,0,0.07-0.01,0.11-0.01c0,0,0,0,0,0l0,0c0.06-0.01,0.13-0.01,0.19-0.02l0.21-0.02l2.19-0.18
		l0.22-0.02c0.09-0.01,0.17-0.01,0.26-0.02l0.01,0l0,0c0.45-0.03,0.89-0.06,1.33-0.08l0.04,0l0.08,0c0.19-0.01,0.39-0.02,0.58-0.02
		l0.02,0c0.19-0.01,0.37-0.01,0.56-0.02l0.08,0c0.42-0.02,0.83-0.04,1.25-0.05c0.01,0,0.01,0,0.02,0c0.01,0,0.02,0,0.02,0
		c0.12,0,0.24,0,0.36-0.01c0,0-0.01,0-0.01,0c-0.01,0-0.01,0-0.01,0l0,0c0,0,0.01,0,0.01,0c0,0,0,0,0,0l0,0l0,0l0,0l0.01,0
		c0.08-0.06,0.89-0.66,2.88-1.72c0,0,0.13-0.15,0.37-0.45c0.25-0.28,0.58-0.74,1-1.32c0.21-0.31,0.43-0.65,0.67-1
		c0.12-0.19,0.24-0.39,0.36-0.58l0.19-0.3c0.06-0.1,0.13-0.22,0.21-0.24L82.57,58.65"/>
	<polyline class="st465" points="60.44,61.97 60.45,61.97 60.44,61.97 60.44,61.97 	"/>
	<path class="st465" d="M77.38,64.31l0.32,0c0.16,0,0.32,0,0.48,0c0.05,0,0.1,0,0.15,0l0.04,0L77.38,64.31"/>
	<path class="st465" d="M78.39,64.32c-0.02,0-0.04,0-0.06,0l-0.4,0.01l-0.23,0c-0.43,0-0.86,0-1.29,0c-0.02,0-0.03,0-0.05,0
		c-0.44,0.02-0.89,0.04-1.33,0.05l-0.2,0.01l-0.35,0.01l-0.01,0c0,0-0.01,0-0.01,0c0,0-0.01,0-0.01,0l-0.58,0.02
		c-0.04,0-0.08,0-0.12,0.01l-1.33,0.08c0,0-0.01,0-0.01,0l-0.48,0.04l-0.94,0.08l-1.25,0.09l-0.4,0.03c0,0,0,0,0,0
		c-0.04,0-0.08,0.01-0.11,0.01c0.77,2.01,1.79,5.04,2.15,8.67c0.48,0.21,0.99,0.44,1.25,0.88c0.07,0.07,0.09,0.13,0.09,0.19l0,0
		c0,0.06-0.03,0.12-0.07,0.17c0.27,0.09,0.55,0.15,0.84,0.18c0.56-0.2,0.78-1.5,1.34-1.71c0.56-0.05,3.65-2.15,7.15-4.46
		c0.38-1.05,0.63-1.99,0.67-2.75c-0.03-0.22-0.04-0.42-0.04-0.61l0,0c0-0.29,0.03-0.55,0.07-0.78c-0.01,0-0.02,0-0.03,0
		c-0.34-0.04-0.77-0.09-1.15-0.12l-0.83-0.04l-0.22-0.01l-0.46-0.03l-0.63-0.03c-0.02,0-0.04,0-0.06,0l-0.85-0.01L78.39,64.32"/>
	<path class="st465" d="M78.81,64.32c0.16,0,0.33,0,0.49,0.01l0.02,0c-0.17,0-0.33-0.01-0.5-0.01L78.81,64.32"/>
	<path class="st465" d="M79.34,64.33l0.02,0c0.11,0,0.22,0.01,0.33,0.01l0.3,0.02l0.22,0.01C79.92,64.35,79.63,64.34,79.34,64.33"/>
	<path class="st465" d="M99.81,67.42c0.11,0.09,0.23,0.18,0.34,0.28c1.49,1.23,2.79,2.8,3.72,4.72c0.19,0.38,0.35,0.77,0.5,1.17
		c-0.63-2.2-1.87-4.22-3.65-5.82C100.72,67.78,100.39,67.63,99.81,67.42"/>
	<path class="st465" d="M86.73,81.7l-0.26,1.06c0.16-0.31,0.31-0.61,0.46-0.93C86.86,81.79,86.79,81.74,86.73,81.7"/>
	<path class="st465" d="M102.04,88.95c-1.04,1.15-2.68,3.01-3.94,4.58c0.94-0.68,2-1.66,2.97-3.03
		C101.41,90.03,101.74,89.51,102.04,88.95"/>
	<path class="st465" d="M119.49,100.83c-0.34,0.21-0.74,0.59-1.14,1.02c-0.5,0.55-0.92,1.1-1.29,1.63c0.13-0.16,0.26-0.32,0.4-0.47
		C117.99,102.39,118.7,101.68,119.49,100.83"/>
	<path class="st465" d="M115.54,105.9c-0.01,0.02-0.02,0.03-0.02,0.03c0.02,0.05,0.04,0.11,0.05,0.16
		C115.56,106.03,115.55,105.97,115.54,105.9"/>
	<path class="st465" d="M115.63,108.03c-0.32,1.63-1.42,3.36-2.65,4.87c0.2-0.2,0.39-0.41,0.58-0.62
		C114.62,111.06,115.44,109.71,115.63,108.03"/>
	<path class="st465" d="M107.11,118.62l-3.61,1.86l0,0c-0.32,0.4-0.93,0.91-1.73,1.47c1.4-0.68,4.25-2.41,5.2-3.18
		C107.02,118.72,107.07,118.67,107.11,118.62"/>
	<path class="st465" d="M89.19,127.3c-2.76,0.29-5.37,0.69-7.83,1.12c0.39-0.05,0.79-0.1,1.2-0.14
		C84.9,128.08,87.08,127.77,89.19,127.3"/>
	<polyline class="st465" points="60.44,61.97 60.45,61.97 60.45,61.97 60.44,61.97 	"/>
	<path class="st466" d="M45.63,76.52c-0.03,0.17-0.05,0.33-0.07,0.5c0,0.04,0,0.1,0,0.16l0,0c0,0.15,0,0.34,0,0.52
		c0,0.3,0.01,0.57,0.09,0.57c0,0,0,0,0,0c0,0,0.01,0,0.01,0c0.14,0,0.19,0.29,0.26,0.56c0.09,1.5,0.21,3.01,0.45,4.64
		c0.13,0.81,0.35,1.66,0.77,2.41c0.42,0.76,1.03,1.37,1.7,1.89c0.38,0.17,0.75,0.29,1.12,0.37c0.4,0.09,0.62,0.13,1.06,0.18
		c0.91,0.11,1.83,0.19,2.72,0.27c0.4,0.04,0.8,0.07,1.2,0.1c0.35,0.04,0.7,0.07,1.06,0.11c0.72,0.09,1.46,0.21,2.28,0.41
		c1.56,0.49,2.97,0.5,4.35,0.54c1.4,0.03,2.79,0.12,4.57,0.62c0.36,0.05,0.7,0.08,1.02,0.08c1.79,0,3.18-0.74,4.33-1.96
		c1.3-1.41,2.32-3.51,3.24-6.23c-0.02,0.01-0.05,0.01-0.07,0.02c-0.89,2.63-1.89,4.68-3.16,6.06c-1.15,1.24-2.54,1.98-4.35,1.98
		c-0.31,0-0.64-0.02-0.97-0.07c-1.78-0.49-3.17-0.57-4.56-0.6c-1.38-0.03-2.78-0.04-4.34-0.53c-0.81-0.19-1.55-0.32-2.27-0.41
		c-0.36-0.04-0.71-0.08-1.06-0.11c-0.39-0.03-0.78-0.07-1.17-0.1c-0.9-0.08-1.8-0.16-2.73-0.27c-0.18-0.03-0.37-0.05-0.56-0.08
		c-0.17-0.03-0.33-0.07-0.5-0.1c-0.37-0.08-0.75-0.2-1.12-0.36c-0.67-0.5-1.28-1.1-1.71-1.85c-0.43-0.74-0.65-1.59-0.79-2.39
		c-0.25-1.63-0.37-3.13-0.46-4.62c-0.08-0.27-0.12-0.55-0.26-0.55c0,0-0.01,0-0.01,0c0,0,0,0,0,0c-0.08,0-0.09-0.29-0.09-0.61l0,0
		c0-0.16,0-0.32,0-0.45c0-0.07,0-0.14,0-0.19l0,0l0,0l0,0l0,0c0.02-0.15,0.04-0.3,0.06-0.46C45.65,76.55,45.64,76.53,45.63,76.52"/>
	<path class="st467" d="M82.68,64.55c-0.04,0.23-0.07,0.49-0.07,0.78c0,0.19,0.01,0.39,0.04,0.61l0,0l0,0l0,0l0,0
		c-0.05,0.76-0.3,1.7-0.67,2.75c1.58-1.05,3.25-2.14,4.8-3.11c-0.11-0.11-0.23-0.22-0.35-0.32l0,0c0,0,0,0,0,0
		c-0.11-0.04-0.22-0.07-0.34-0.1c-0.22-0.06-0.48-0.13-0.77-0.19c-0.29-0.06-0.61-0.12-0.98-0.19c-0.19-0.03-0.4-0.06-0.65-0.1
		c-0.08-0.01-0.16-0.02-0.24-0.04c-0.01,0-0.02,0-0.03,0c-0.1-0.01-0.21-0.03-0.32-0.04c-0.13-0.01-0.25-0.03-0.37-0.04
		C82.71,64.56,82.69,64.55,82.68,64.55"/>
	<path class="st467" d="M47.9,67.84c-0.03,0-0.09,0.07-0.19,0.23c-0.85,1.39-1.76,3.04-2.67,4.99c-0.23,0.49-0.46,0.99-0.69,1.52
		l-0.34,0.8l-0.17,0.42l-0.34,0.69c-0.87,1.84-1.67,3.66-2.36,5.46c-1.28,3.36-1.77,5.91-1.91,8.19c-0.03,0.46-0.04,0.91-0.04,1.36
		c0,1.74,0.18,3.37,0.43,5.13c0.24,0.79,0.52,1.57,0.81,2.34c0,0.01,0.01,0.02,0.01,0.03c0.01-0.15,0.02-0.3,0.03-0.45
		c0.08-2.05,0.26-4.36,0.26-6.19c0-1.01-0.05-1.88-0.2-2.48l0,0l0,0l0,0l0,0c0,0,0.14-1.35,0.52-3.33c0.37-1.98,1.05-4.59,1.92-7.06
		c0.31-0.95,0.59-1.83,0.83-2.56c0.23-0.69,0.46-1.23,0.61-1.58c0.13-0.28,0.22-0.43,0.27-0.43c0.03,0,0.04,0.05,0.04,0.16l0,0
		c0,0.17-0.04,0.49-0.11,0.98c0,0-0.03,0.38-0.03,0.91c0,0.16,0,0.34,0.01,0.52c0.02,0.79,0.1,1.7,0.17,2.39l0,0l0,0l0,0l0,0
		c0,0-0.05,0.64-0.05,1.76c0,0.66,0.02,1.48,0.07,2.43c0.11,1.27,0.16,2.82,0.66,4.4c0.25,0.79,0.7,1.54,1.34,2.1
		c0.63,0.57,1.39,0.95,2.17,1.24c1.39,0.54,3.47,0.98,5.14,1.49c1.56,0.47,3.08,0.96,4.44,1.42c2.72,0.95,4.85,1.79,5.36,2.41
		c0,0,0.5,0.18,1.42,0.41c0.82,0.19,1.97,0.42,3.37,0.42c0.17,0,0.34,0,0.52-0.01c1.63-0.05,3.48-0.6,5.27-1.65
		c1.79-1.05,3.54-2.56,5.22-4.29c2.6-2.69,4.99-5.77,6.78-9.25l0.26-1.06c-0.97-0.68-1.87-1.48-2.67-2.47
		c-0.72-0.61-1.26-0.94-2-1.02c-0.19,0.25-0.94,0.69-1.13,0.93c-0.33,0.04-0.65,0.07-0.98,0.09c-0.46,0.88-1.71,2.44-4.17,3.02
		c-0.92,2.72-1.94,4.83-3.24,6.23c-1.15,1.23-2.54,1.96-4.33,1.96c-0.33,0-0.67-0.02-1.02-0.08c-1.79-0.49-3.18-0.58-4.57-0.62
		c-1.39-0.04-2.79-0.05-4.35-0.54c-0.81-0.19-1.56-0.32-2.28-0.41c-0.36-0.04-0.71-0.08-1.06-0.11c-0.4-0.04-0.8-0.07-1.2-0.1
		c-0.89-0.08-1.81-0.16-2.72-0.27c-0.43-0.05-0.65-0.09-1.06-0.18c-0.37-0.09-0.75-0.2-1.12-0.37c-0.67-0.51-1.28-1.13-1.7-1.89
		c-0.42-0.76-0.63-1.6-0.77-2.41c-0.23-1.63-0.36-3.14-0.45-4.64c-0.07-0.28-0.12-0.56-0.26-0.56c0,0-0.01,0-0.01,0c0,0,0,0,0,0
		c-0.07,0-0.09-0.27-0.09-0.57l0,0c0-0.18,0-0.37,0-0.52c0-0.06,0-0.12,0-0.16l0,0l0,0l0,0l0,0c0.02-0.17,0.05-0.33,0.07-0.5
		c0.01,0.01,0.02,0.03,0.02,0.04c0.22-1.43,0.6-2.94,0.98-4.26c0.42-1.48,0.84-2.74,1.14-3.71c0.08-0.28,0.15-0.56,0.15-0.68
		C47.93,67.86,47.92,67.84,47.9,67.84"/>
	<path class="st468" d="M82.73,64.56c0.11,0.01,0.24,0.02,0.37,0.04C82.97,64.58,82.85,64.57,82.73,64.56"/>
	<path class="st468" d="M83.41,64.63c0.01,0,0.02,0,0.03,0c0.08,0.01,0.16,0.02,0.24,0.04c-0.03-0.01-0.07-0.01-0.1-0.02
		C83.52,64.65,83.46,64.64,83.41,64.63"/>
	<path class="st468" d="M84.32,64.78c0.37,0.06,0.69,0.12,0.98,0.19c-0.06-0.01-0.12-0.03-0.18-0.04
		C84.85,64.86,84.61,64.82,84.32,64.78"/>
	<path class="st468" d="M86.13,64.93c0.25,0.15,0.52,0.3,0.78,0.45c0,0,0,0,0.01,0C86.69,65.25,86.43,65.1,86.13,64.93"/>
	<path class="st468" d="M86.08,65.16c0.12,0.03,0.23,0.07,0.34,0.1c0,0,0,0,0,0l-0.1-0.03l-0.03-0.01l0.04,0.01l0.03,0.01
		C86.27,65.21,86.18,65.19,86.08,65.16"/>
	<path class="st468" d="M86.36,65.24c0.09,0.03,0.17,0.05,0.24,0.07c0.09,0.03,0.18,0.06,0.28,0.1c0,0,0.01,0,0.01,0
		c0,0,0.01,0,0.01,0c0.03,0.01,0.06,0.02,0.09,0.03c0.01-0.01,0.02-0.01,0.03-0.02c-0.04-0.02-0.07-0.04-0.11-0.06
		c-0.06-0.01-0.13-0.03-0.2-0.04l-0.31-0.08L86.36,65.24"/>
	<path class="st468" d="M86.42,65.26c0.12,0.1,0.24,0.21,0.35,0.32c0.07-0.04,0.14-0.09,0.21-0.13c-0.03-0.01-0.06-0.02-0.09-0.03
		c-0.01,0-0.01,0-0.02-0.01c-0.08-0.03-0.18-0.06-0.28-0.1C86.54,65.3,86.48,65.28,86.42,65.26L86.42,65.26"/>
	<path class="st468" d="M86.92,65.37c0.04,0.02,0.07,0.04,0.1,0.06c0.01-0.01,0.03-0.02,0.04-0.03
		C87.01,65.39,86.96,65.38,86.92,65.37"/>
	<path class="st468" d="M95.22,66.33C95.22,66.33,95.22,66.33,95.22,66.33c0,0.1,0,0.2,0,0.3c0,1.69,0.45,2.93,1.01,4.09
		c0.14,0.3,0.32,0.59,0.37,0.89l-0.01-0.17l-0.07-1.56l-0.13-3.36C96.02,66.46,95.62,66.39,95.22,66.33"/>
	<path class="st468" d="M96.4,66.53c0.1,2.42,0.2,4.84,0.3,7.27c0.17,3.72,0.34,7.45,0.52,11.17l0.05,1.09
		c0.01,0.18,0.01,0.26,0.01,0.3l0,0.01v0c0,0.02,0,0.02,0,0.02l0,0c0,0,0,0,0,0v0l0,0c0,0,0,0,0,0c0,0,0-0.01,0-0.01c0,0,0,0,0,0v0
		v0l0,0l0,0c0-0.01,0-0.01,0-0.01l0,0c0,0,0,0,0,0c0,0,0,0,0,0.01v-0.01c0,0,0,0,0-0.01l0-0.01l-0.23-0.13
		c-1.5-0.66-3.07-1.2-4.62-1.77c-1.92-0.71-3.81-1.48-5.5-2.62c-0.15,0.31-0.3,0.62-0.46,0.93c-1.79,3.48-4.18,6.55-6.78,9.25
		c-1.68,1.73-3.43,3.24-5.22,4.29c-1.79,1.06-3.64,1.6-5.27,1.65c-0.18,0.01-0.35,0.01-0.52,0.01c-1.4,0-2.55-0.23-3.37-0.42
		c-0.92-0.22-1.42-0.41-1.42-0.41c-0.5-0.62-2.64-1.46-5.36-2.41c-1.36-0.47-2.88-0.95-4.44-1.42c-1.67-0.51-3.74-0.95-5.14-1.49
		c-0.78-0.29-1.54-0.68-2.17-1.24c-0.63-0.56-1.08-1.32-1.34-2.1c-0.5-1.58-0.55-3.13-0.66-4.4c-0.06-0.95-0.07-1.77-0.07-2.43l0,0
		c0-1.11,0.05-1.76,0.05-1.76c-0.07-0.69-0.15-1.6-0.17-2.39c-0.01-0.18-0.01-0.36-0.01-0.52l0,0c0-0.53,0.03-0.91,0.03-0.91
		c0.07-0.49,0.11-0.81,0.11-0.98c0-0.11-0.01-0.16-0.04-0.16c-0.05,0-0.14,0.15-0.27,0.43c-0.16,0.35-0.38,0.89-0.61,1.58
		c-0.24,0.73-0.52,1.61-0.83,2.56c-0.88,2.47-1.55,5.08-1.92,7.06c-0.38,1.98-0.52,3.33-0.52,3.33c0.15,0.6,0.2,1.47,0.2,2.48l0,0
		c0,1.83-0.17,4.14-0.26,6.19c-0.17,2.75-0.18,5.09-0.18,5.7c0,0,0,0,0,0l0,0c0,0,0,0,0,0c0,0.1,0,0.15,0,0.15
		c0.04,0.32,0.11,0.66,0.21,1.02c0.29,1,0.87,2.1,1.89,3.05c0.67,0.65,1.51,1.21,2.4,1.68c0.44,0.24,0.9,0.45,1.37,0.65
		c0.47,0.2,0.91,0.37,1.48,0.55c1.04,0.33,1.54,0.57,2.19,0.8c0.61,0.22,1.17,0.42,1.65,0.59c0.12,0.04,0.23,0.08,0.34,0.12
		c0.15,0.04,0.29,0.08,0.43,0.12c0.27,0.07,0.5,0.13,0.69,0.18c0.39,0.1,0.6,0.15,0.6,0.15c0.53,0.99,3.19,1.61,6.82,1.83
		c0.61,0.03,1.25,0.05,1.91,0.05c2.21,0,4.63-0.2,7.04-0.71c0.22-0.08,0.45-0.15,0.69-0.24c1.57-0.55,3.39-1.33,5.23-2.4
		c1.85-1.07,3.68-2.47,5.37-4.03c3.39-3.12,6.29-6.78,8.87-9.37c0.64-0.65,1.26-1.24,1.87-1.75c0.3-0.26,0.59-0.5,0.88-0.71
		c0.27-0.2,0.47-0.32,0.7-0.46c0.68-0.39,1.31-0.61,1.9-0.61c0.19,0,0.37,0.02,0.54,0.07c0,0,1.22-0.33,2.76-1.46
		c1.25-1.57,2.9-3.43,3.94-4.58c0.28-0.52,0.55-1.09,0.81-1.72c0.53-1.32,1.16-3.03,1.6-5.14c0.27-1.29,0.47-2.74,0.47-4.29
		c0-0.97-0.08-1.98-0.27-3.01c-0.07-0.41-0.17-0.81-0.28-1.2c-0.15-0.4-0.32-0.79-0.5-1.17c-0.93-1.92-2.23-3.5-3.72-4.72
		c-0.11-0.09-0.23-0.19-0.34-0.28c-0.35-0.12-0.78-0.26-1.29-0.4C97.9,66.85,97.18,66.68,96.4,66.53"/>
	<path class="st469" d="M98.67,52.29c-0.32,0-0.61,0.05-0.86,0.16c-0.66,0.29-0.96,0.83-1.2,1.28c-0.11,0.23-0.2,0.44-0.3,0.64
		c-0.1,0.07-0.21,0.15-0.34,0.23c0.06-0.04,0.11-0.07,0.16-0.1c0.32-0.21,0.49-0.37,0.58-0.47l0.06-0.07
		c0.01-0.02,0.02-0.03,0.02-0.03l0,0l0,0l0,0l0,0c0,0,0,0,0,0l0.02-0.03l0,0l0,0l0,0l0,0l0,0c-0.03,0.05-0.1,0.2-0.18,0.43
		c-0.01,0.03-0.02,0.06-0.03,0.1c-0.06,0.21-0.12,0.48-0.17,0.8c-0.01,0.06-0.02,0.13-0.03,0.2c-0.02,0.13-0.04,0.28-0.05,0.44
		c0,0,0,0,0,0.01c0,0,0,0.01,0,0.01c-0.01,0.08-0.02,0.21-0.04,0.37c0,0.02,0,0.05-0.01,0.07c-0.01,0.14-0.02,0.32-0.03,0.44
		c0,0,0,0.01,0,0.01c0,0.02,0,0.04,0,0.05c-0.01,0.15-0.02,0.31-0.02,0.49l-0.02,0.61l-0.01,0.4l0,0.33l0,0.65l0.01,1.03l0,0.22
		l0.02,1l0.1,3.71l0.03,0.66c0,0.1,0.01,0.19,0.01,0.29c0,0.1,0.01,0.2,0.01,0.31c0.79,0.15,1.51,0.32,2.12,0.49
		c0.51,0.14,0.94,0.28,1.29,0.4c0.58,0.21,0.91,0.36,0.91,0.36c1.78,1.59,3.02,3.61,3.65,5.82c0.11,0.4,0.21,0.8,0.28,1.2
		c0.19,1.02,0.27,2.03,0.27,3.01l0,0c0,1.54-0.2,3-0.47,4.29c-0.45,2.11-1.07,3.82-1.6,5.14c-0.25,0.63-0.52,1.2-0.81,1.72
		c-0.31,0.57-0.63,1.08-0.96,1.55c-0.98,1.37-2.04,2.35-2.97,3.03c-1.54,1.12-2.76,1.46-2.76,1.46c-0.17-0.05-0.36-0.07-0.54-0.07
		c-0.58,0-1.22,0.22-1.9,0.61c-0.23,0.14-0.43,0.26-0.7,0.46c-0.29,0.22-0.58,0.46-0.88,0.71c-0.6,0.51-1.22,1.1-1.87,1.75
		c-2.57,2.59-5.48,6.26-8.87,9.37c-1.69,1.56-3.52,2.96-5.37,4.03c-1.84,1.07-3.66,1.85-5.23,2.4c-0.23,0.08-0.46,0.16-0.69,0.24
		c-0.99,0.33-1.87,0.59-2.59,0.78c0.05,0,0.1,0,0.14,0c1.2,0,2.48,0.33,3.66,0.69c1.95,0.61,3.59,1.32,3.59,1.32
		c1.53-0.72,3.7-1.16,6.03-1.74c2.34-0.56,4.85-1.19,7.21-1.87c2.36-0.67,4.58-1.39,6.23-1.95c1.67-0.57,2.71-0.93,2.71-0.93
		c0.07,0,0.15,0,0.22,0c1.85,0,3.71-0.8,5.48-1.98c0.46-0.31,0.91-0.64,1.35-0.99c0.32-0.24,0.56-0.43,0.82-0.67
		c0.51-0.46,0.97-0.97,1.37-1.48c1.63-2.07,2.45-4.31,2.45-4.31c-0.07-0.81-0.1-1.51-0.1-2.14l0,0c0-3.3,0.88-4.12,0.88-4.12
		c0.63-0.72,1.28-1.6,2.08-2.78c0.77-1.16,1.66-2.61,2.52-4.31c0.87-1.73,1.73-3.71,2.4-5.97c0.68-2.27,1.09-4.72,1.12-6.94
		c0-0.12,0-0.25,0-0.37c0-4.33-1.2-7.89-2.72-10.57c-1.59-2.76-3.52-4.73-5.43-6.29c-1.92-1.55-3.83-2.68-5.59-3.63
		c-0.88-0.49-1.8-1.14-2.74-1.54C99.82,52.43,99.21,52.29,98.67,52.29"/>
	<path class="st469" d="M96.8,53.93l-0.01,0.02l-0.01,0.01c-0.01,0.02-0.03,0.04-0.06,0.07l-0.01,0.02
		c-0.1,0.11-0.28,0.27-0.56,0.45c-0.22,0.15-0.52,0.32-0.9,0.5c-0.17,0.08-0.35,0.16-0.55,0.25c-0.04,0.02-0.08,0.03-0.12,0.05
		c-0.37,0.16-0.82,0.33-1.4,0.53c-0.04,0.01-0.08,0.03-0.12,0.04l-0.02,0.01l-0.03,0.01c-0.04,0.01-0.08,0.03-0.12,0.04
		c-0.25,0.08-0.51,0.17-0.81,0.26c-0.16,0.05-0.31,0.1-0.47,0.14c-0.01,0-0.03,0.01-0.04,0.01c-0.31,0.09-0.62,0.18-0.94,0.27
		c-0.03,0.01-0.05,0.01-0.08,0.02l-0.12,0.03l-0.23,0.06l-0.29,0.08l-1.67,0.44l-0.06,0.02c-0.04,0.01-0.07,0.02-0.11,0.03
		c-0.06,0.02-0.12,0.03-0.18,0.05c-0.26,0.06-0.53,0.13-0.79,0.19c-0.36,0.09-0.72,0.18-1.08,0.27c-0.07,0.02-0.14,0.03-0.21,0.05
		c-0.44,0.11-0.88,0.22-1.33,0.33c-0.3,0.07-0.6,0.14-0.9,0.21c-0.28,0.07-0.57,0.14-0.85,0.21c-0.06,0.01-0.12,0.03-0.18,0.04
		l-0.12,0.05c-0.08,0.02-0.15,0.14-0.21,0.24l-0.19,0.3c-0.12,0.2-0.25,0.39-0.36,0.58c-0.24,0.35-0.46,0.69-0.67,1
		c-0.42,0.58-0.75,1.04-1,1.32c-0.24,0.3-0.37,0.45-0.37,0.45c-1.99,1.06-2.8,1.66-2.88,1.72l-0.01,0c0,0,0,0,0,0l0,0
		c0,0-0.01,0-0.01,0c0,0,0,0,0.01,0c0,0,0.01,0,0.01,0c0.12,0,0.25,0,0.37,0c0.08,0,0.15,0,0.23,0l0.01,0l0.99,0l0.03,0l0.02,0
		c0.05,0,0.1,0,0.15,0c0.08,0,0.16,0,0.24,0l0.01,0c0.17,0,0.33,0,0.5,0.01l0.01,0l0.01,0c0.29,0.01,0.58,0.02,0.87,0.04l0.85,0.04
		l-0.39-0.02l0.83,0.04c0.38,0.03,0.81,0.08,1.15,0.12c0.01,0,0.02,0,0.03,0c0.02,0,0.03,0,0.05,0c0.12,0.01,0.24,0.02,0.37,0.04
		c0.11,0.01,0.21,0.02,0.32,0.04c0.05,0.01,0.11,0.01,0.16,0.02c0.03,0.01,0.07,0.01,0.1,0.02c0.25,0.04,0.46,0.07,0.65,0.1
		c0.29,0.05,0.53,0.09,0.8,0.15c0.06,0.01,0.12,0.03,0.18,0.04c0.3,0.07,0.55,0.13,0.77,0.19c0.1,0.03,0.2,0.06,0.28,0.08l0.04,0.01
		l0.31,0.08c0.07,0.01,0.13,0.03,0.2,0.04c-0.27-0.14-0.53-0.3-0.78-0.45l0,0l0,0l0,0l0,0c0.3,0.18,0.56,0.32,0.79,0.45
		c0.05,0.01,0.1,0.02,0.14,0.03c2.58-1.6,4.78-2.81,5.65-2.81c0.08,0,0.16,0.01,0.21,0.03c1.01,0.6,2.32,2.16,2.32,3.42l0,0
		c0,0.09-0.01,0.19-0.02,0.28c0.4,0.06,0.8,0.13,1.18,0.2l-0.02-0.59c-0.04-1.1-0.08-2.21-0.1-3.31l-0.02-1.06l-0.02-0.64l0-0.35
		l0-0.07l0-0.16l-0.01-0.71l0-0.32l0-0.3l0-0.35l0-0.02l0-0.31l0.01-0.42c0.01-0.51,0.03-0.93,0.05-1.29c0.03-0.53,0.08-1,0.15-1.4
		c0.05-0.35,0.11-0.6,0.17-0.8c0.06-0.2,0.11-0.36,0.17-0.45C96.78,53.95,96.79,53.94,96.8,53.93"/>
	<path class="st469" d="M95.33,54.96c-0.07,0.03-0.14,0.07-0.22,0.1C95.18,55.03,95.26,54.99,95.33,54.96"/>
	<path class="st469" d="M94.83,55.19c-0.12,0.05-0.25,0.11-0.39,0.16c0.04-0.02,0.09-0.03,0.13-0.05c0.04-0.02,0.08-0.03,0.12-0.05
		C94.74,55.23,94.79,55.21,94.83,55.19"/>
	<path class="st469" d="M94.21,55.45c-0.15,0.06-0.31,0.12-0.48,0.18l-0.1,0.04C93.83,55.6,94.03,55.52,94.21,55.45"/>
	<path class="st469" d="M96.36,55.81c0,0,0,0.03-0.01,0.07c0,0,0-0.01,0-0.01C96.36,55.83,96.36,55.81,96.36,55.81 M93.48,55.72
		l-0.4,0.14c0.03-0.01,0.07-0.02,0.1-0.03C93.28,55.79,93.38,55.76,93.48,55.72"/>
	<path class="st469" d="M96.35,55.88c-0.02,0.22-0.05,0.46-0.06,0.76c0,0.03,0,0.07-0.01,0.1c0.01-0.15,0.02-0.28,0.03-0.4
		c0-0.01,0-0.02,0-0.03c0-0.01,0-0.03,0-0.04C96.33,56.12,96.34,56,96.35,55.88C96.35,55.89,96.35,55.89,96.35,55.88"/>
	<path class="st469" d="M93,55.89l-0.58,0.19c0.17-0.05,0.33-0.1,0.48-0.15C92.93,55.91,92.96,55.9,93,55.89"/>
	<path class="st469" d="M96.28,56.74c0,0.03,0,0.06,0,0.09c0-0.01,0-0.03,0-0.04C96.28,56.76,96.28,56.75,96.28,56.74 M91,56.5
		l-0.73,0.21c0.1-0.03,0.19-0.05,0.29-0.08L91,56.5"/>
	<path class="st469" d="M88.12,57.29c-0.31,0.08-0.62,0.16-0.93,0.23c0.3-0.07,0.6-0.15,0.91-0.22
		C88.1,57.29,88.11,57.29,88.12,57.29"/>
	<path class="st469" d="M83.74,58.37c-0.06,0.01-0.11,0.03-0.17,0.04c0.01,0,0.02-0.01,0.03-0.01
		C83.65,58.39,83.69,58.38,83.74,58.37"/>
	<path class="st469" d="M78.42,64.32c-0.01,0-0.02,0-0.03,0l0.05,0L78.42,64.32"/>
	<path class="st469" d="M86.36,65.24L86.36,65.24L86.36,65.24 M86.29,65.22l0.03,0.01l0.1,0.03l0,0l0.01,0
		c0.06,0.02,0.11,0.03,0.17,0.05c-0.07-0.02-0.15-0.05-0.24-0.07l-0.03-0.01L86.29,65.22"/>
	<path class="st469" d="M86.6,65.31c0.11,0.03,0.2,0.07,0.28,0.1C86.78,65.37,86.69,65.34,86.6,65.31"/>
	<path class="st469" d="M86.92,65.37L86.92,65.37L86.92,65.37L86.92,65.37L86.92,65.37 M86.91,65.37c0.04,0.02,0.07,0.04,0.11,0.06
		c0,0,0,0,0,0C86.99,65.41,86.95,65.39,86.91,65.37C86.91,65.37,86.91,65.37,86.91,65.37"/>
	<path class="st469" d="M86.88,65.41c0.01,0,0.01,0,0.02,0.01C86.89,65.42,86.89,65.41,86.88,65.41
		C86.89,65.41,86.88,65.41,86.88,65.41"/>
	<path class="st469" d="M86.9,65.42c0.03,0.01,0.06,0.02,0.09,0.03c0,0,0,0,0,0C86.95,65.44,86.93,65.43,86.9,65.42"/>
	<path class="st469" d="M66.72,115.26c-0.74,0.02-1.45,0.17-2.08,0.53c0,0,0.54-0.13,1.49-0.37
		C66.31,115.37,66.51,115.32,66.72,115.26"/>
	<path class="st470" d="M96.8,53.93L96.8,53.93L96.8,53.93L96.8,53.93 M96.81,53.91l-0.02,0.03c0,0-0.01,0.02-0.03,0.05
		c-0.05,0.09-0.11,0.24-0.17,0.45c0.01-0.03,0.02-0.07,0.03-0.1C96.71,54.1,96.78,53.96,96.81,53.91"/>
	<path class="st470" d="M96.8,53.93c0,0-0.01,0.01-0.02,0.03l0.01-0.01L96.8,53.93C96.8,53.93,96.8,53.93,96.8,53.93"/>
	<path class="st470" d="M96.78,53.96l-0.06,0.07C96.75,54,96.77,53.97,96.78,53.96"/>
	<path class="st470" d="M96.72,54.03c-0.09,0.1-0.26,0.26-0.58,0.47c0.29-0.19,0.47-0.35,0.56-0.45L96.72,54.03"/>
	<path class="st470" d="M96.6,54.44c-0.06,0.2-0.12,0.45-0.17,0.8C96.49,54.92,96.54,54.65,96.6,54.44"/>
	<path class="st470" d="M96.14,54.5c-0.05,0.03-0.1,0.07-0.16,0.1c-0.13,0.08-0.27,0.16-0.43,0.24c-0.07,0.03-0.14,0.07-0.22,0.11
		c-0.07,0.04-0.15,0.07-0.22,0.1c-0.02,0.01-0.04,0.02-0.06,0.03c-0.07,0.03-0.14,0.07-0.22,0.1c-0.05,0.02-0.09,0.04-0.14,0.06
		c0.2-0.09,0.38-0.17,0.55-0.25C95.62,54.82,95.92,54.65,96.14,54.5"/>
	<path class="st470" d="M96.43,55.24c-0.06,0.4-0.12,0.87-0.15,1.4c0.02-0.29,0.04-0.54,0.06-0.76c0-0.05,0.01-0.07,0.01-0.07l0,0
		l0,0l0,0l0,0c0,0,0,0.02-0.01,0.06c0.02-0.16,0.04-0.3,0.05-0.44C96.41,55.37,96.42,55.3,96.43,55.24"/>
	<path class="st470" d="M94.69,55.25c-0.04,0.02-0.08,0.03-0.12,0.05C94.61,55.28,94.65,55.27,94.69,55.25"/>
	<path class="st470" d="M94.58,55.3c-0.04,0.02-0.09,0.04-0.13,0.05c-0.01,0.01-0.03,0.01-0.04,0.02c-0.06,0.03-0.13,0.05-0.2,0.08
		c-0.18,0.07-0.38,0.15-0.58,0.22c-0.03,0.01-0.05,0.02-0.08,0.03c-0.02,0.01-0.05,0.02-0.07,0.03c-0.1,0.04-0.2,0.07-0.3,0.11
		C93.76,55.63,94.2,55.46,94.58,55.3"/>
	<path class="st470" d="M93.18,55.83c-0.03,0.01-0.07,0.02-0.1,0.03c-0.03,0.01-0.05,0.02-0.08,0.03c-0.03,0.01-0.07,0.02-0.1,0.03
		c0.04-0.01,0.08-0.03,0.12-0.04c0.02-0.01,0.03-0.01,0.05-0.02C93.1,55.85,93.14,55.84,93.18,55.83"/>
	<path class="st470" d="M96.35,55.88L96.35,55.88L96.35,55.88L96.35,55.88L96.35,55.88 M96.35,55.87
		C96.35,55.88,96.35,55.88,96.35,55.87c0,0.01,0,0.01,0,0.02C96.35,55.89,96.35,55.88,96.35,55.87
		C96.35,55.88,96.35,55.88,96.35,55.87"/>
	<path class="st470" d="M96.35,55.89c-0.01,0.11-0.02,0.23-0.04,0.37C96.33,56.1,96.34,55.97,96.35,55.89"/>
	<path class="st470" d="M92.9,55.92c-0.16,0.05-0.34,0.11-0.53,0.17c-0.18,0.06-0.36,0.11-0.54,0.17l0.16-0.05
		c0.03-0.01,0.07-0.02,0.1-0.03C92.38,56.09,92.65,56,92.9,55.92"/>
	<path class="st470" d="M91.82,56.26L91,56.5l-0.44,0.13c0.03-0.01,0.05-0.01,0.08-0.02c0.31-0.09,0.63-0.18,0.94-0.27
		c0.01,0,0.03-0.01,0.04-0.01C91.69,56.3,91.76,56.28,91.82,56.26"/>
	<path class="st470" d="M96.31,56.26c0,0.01,0,0.03,0,0.04c0,0.01,0,0.02,0,0.03C96.31,56.31,96.31,56.29,96.31,56.26"/>
	<path class="st470" d="M96.28,56.74L96.28,56.74L96.28,56.74L96.28,56.74L96.28,56.74 M96.31,56.34c-0.01,0.12-0.02,0.25-0.03,0.4
		c0,0.01,0,0.03,0,0.04C96.29,56.66,96.3,56.48,96.31,56.34"/>
	<path class="st470" d="M90.57,56.63c-0.15,0.04-0.3,0.08-0.45,0.12l0.1-0.03l0.23-0.06L90.57,56.63"/>
	<path class="st470" d="M96.29,56.64c-0.02,0.35-0.04,0.77-0.05,1.29l-0.01,0.42l0.01-0.4l0.02-0.61c0.01-0.18,0.01-0.34,0.02-0.49
		c0-0.01,0-0.03,0-0.05c0,0,0-0.01,0-0.01c0,0.02,0,0.03,0,0.04l0,0l0,0l0,0l0,0c0-0.03,0-0.06,0-0.09
		C96.28,56.7,96.28,56.67,96.29,56.64"/>
	<path class="st470" d="M90.12,56.75l-1.51,0.41c0.3-0.08,0.6-0.16,0.9-0.24C89.71,56.87,89.92,56.81,90.12,56.75"/>
	<path class="st470" d="M88.61,57.16c-0.16,0.04-0.32,0.09-0.48,0.13c-0.01,0-0.02,0.01-0.03,0.01c0.04-0.01,0.07-0.02,0.11-0.03
		l0.06-0.02L88.61,57.16"/>
	<path class="st470" d="M60.6,57.23c-0.58,0-1.47,0.16-2.22,0.52c-0.74,0.34-1.32,0.86-1.53,1.29c-0.07,0.15-0.11,0.27-0.11,0.37
		c0,0.17,0.11,0.27,0.33,0.27c0.04,0,0.07,0,0.12-0.01l0,0l0,0l0,0l0,0c-0.56,0.09-0.79,0.45-0.79,0.89c0,0.37,0.16,0.79,0.43,1.16
		c0.56,0.86,1.45,1.5,1.69,2.38c0.08,0.22,0.11,0.48,0.11,0.75l0,0c0,0.52-0.1,1.11-0.11,1.73c0,0.03,0,0.07,0,0.1
		c0,0.24,0.02,0.48,0.06,0.72l5.38,2.66c0.23,0.11,0.47,0.23,0.71,0.35c-0.08-0.27-0.16-0.53-0.24-0.78
		c-0.04-0.12-0.08-0.24-0.12-0.35c-0.04-0.13-0.08-0.26-0.11-0.39c-0.03-0.08-0.05-0.16-0.07-0.24c-0.06-0.19-0.12-0.37-0.18-0.55
		c-0.02-0.05-0.04-0.09-0.05-0.14c0,0,0,0.01,0,0.01l0,0l0,0l0,0l0,0c-0.01-0.04-0.03-0.08-0.04-0.11c-0.52-1.02-1-1.86-1.42-2.56
		c-0.05,0-0.11,0-0.16,0c-0.93,0-1.23-0.38-1.28-0.87c-0.01-0.05-0.01-0.1-0.01-0.14l0,0c0-0.46,0.2-0.9,0.2-1.17c0,0,0-0.01,0-0.01
		l0,0l0,0l0,0l0,0c0.02-0.08,0.09-0.16,0.19-0.23c-0.14-0.18-0.24-0.3-0.33-0.4c-0.01-0.01-0.03-0.03-0.04-0.04
		c-0.01-0.02-0.03-0.03-0.04-0.05l-0.13-0.13l-0.08-0.07l-0.05-0.04c-0.04-0.02-0.08-0.05-0.12-0.07c-0.01,0-0.02-0.01-0.02-0.01
		c-0.04-0.03-0.08-0.05-0.1-0.06l0,0l0,0l0,0c0,0-0.01,0-0.01,0l0,0l0,0l0,0l0,0c0,0,0,0,0.01,0c-0.05-0.03-0.07-0.04-0.07-0.04l0,0
		l0,0l0,0l0,0c0,0,0.03,0.02,0.07,0.04h0l0,0c0,0,0,0,0.01,0l0.05,0.02l0.01,0l0.18,0.08l0.01,0.01l0.23,0.08
		c0.07,0.02,0.21,0.06,0.36,0.1c0.07,0.02,0.15,0.03,0.23,0.05c0.03,0.01,0.06,0.01,0.09,0.01l0.24,0.04c0.01,0,0.02,0,0.02,0
		l0.04,0.01l0,0c0.22,0.03,0.47,0.06,0.73,0.08c0,0,0,0,0,0l-0.12-0.01l-0.16-0.02c-0.02-0.2-0.03-0.4-0.03-0.59l0,0
		c0-0.38,0.04-0.75,0.14-1.09c0.01-0.03,0.01-0.07,0.01-0.12c0-0.33-0.21-0.99-0.28-1.44c-0.23-0.69-0.86-1.56-1.08-1.57l0,0l0,0
		l0,0l0,0c0.09-0.07,0.13-0.13,0.13-0.18C61.24,57.3,60.98,57.23,60.6,57.23"/>
	<path class="st470" d="M88.09,57.3c-0.33,0.08-0.66,0.16-0.99,0.25c0,0,0.01,0,0.01,0c0.26-0.06,0.53-0.13,0.79-0.19
		C87.97,57.33,88.03,57.31,88.09,57.3"/>
	<path class="st470" d="M87.11,57.54c-1.12,0.27-2.24,0.55-3.37,0.82c-0.05,0.01-0.09,0.02-0.14,0.03c0.3-0.07,0.6-0.14,0.9-0.21
		c0.44-0.11,0.88-0.22,1.33-0.33C86.25,57.75,86.68,57.65,87.11,57.54"/>
	<polyline class="st470" points="96.23,58.34 96.22,58.65 96.22,58.67 96.23,58.34 	"/>
	<path class="st470" d="M83.6,58.4c-2.17,0.51-4.34,1.01-6.51,1.52c0.06-0.01,0.13-0.03,0.19-0.04c1.77-0.41,3.53-0.82,5.29-1.23
		c0.06-0.01,0.12-0.03,0.18-0.04C83.03,58.54,83.32,58.47,83.6,58.4"/>
	<polyline class="st470" points="96.22,58.67 96.22,59.02 96.22,59.32 96.22,58.67 	"/>
	<path class="st470" d="M96.22,59.32l0,0.32l0.01,0.71L96.22,59.32 M96.22,59.32L96.22,59.32"/>
	<path class="st470" d="M77.09,59.92c-2.61,0.59-5.23,1.18-7.86,1.77l0.97-0.21l6.48-1.46C76.82,59.98,76.96,59.95,77.09,59.92"/>
	<polyline class="st470" points="96.22,60.35 96.22,60.51 96.23,60.57 96.22,60.35 	"/>
	<polyline class="st470" points="96.23,60.57 96.23,60.93 96.25,61.57 96.23,60.57 	"/>
	<path class="st470" d="M96.25,61.57l0.02,1.06c0.02,1.1,0.06,2.2,0.1,3.31l-0.03-0.66L96.25,61.57"/>
	<path class="st470" d="M69.24,61.69l-0.66,0.14l-0.16,0.04h0l0,0l0.74-0.17C69.18,61.7,69.21,61.7,69.24,61.69"/>
	<path class="st470" d="M68.41,61.87l-2.32,0.52c0.19,0.18,0.04,0.55,0.97,0.87c0.32,0.14,0.79,0.18,1.19,0.33
		c-0.01-0.11-0.02-0.23-0.02-0.35l0,0c0-0.05,0-0.1,0-0.16c0.01-0.19,0.03-0.38,0.06-0.62l0.06-0.35l0.04-0.18l0.01-0.05
		L68.41,61.87L68.41,61.87"/>
	<polyline class="st470" points="62.64,62.45 62.64,62.45 62.65,62.45 62.64,62.45 	"/>
	<path class="st470" d="M92.71,62.59c-0.87,0-3.09,1.22-5.69,2.84c0,0,0,0,0,0c-0.01,0.01-0.02,0.01-0.03,0.02c0,0,0,0,0,0
		c-4.99,3.1-11.33,7.63-12.16,7.7c-0.56,0.2-0.78,1.51-1.34,1.71c-0.29-0.03-0.57-0.1-0.84-0.18c-0.18,0.22-0.63,0.41-0.82,0.68
		c0,0,0,0,0,0c-0.65,0-1.44-0.43-2.28-0.49c-0.41-0.08-0.8-0.1-1.19-0.1c-0.24,0-0.48,0.01-0.71,0.02c-0.24,0.01-0.47,0.02-0.7,0.02
		c-0.16,0-0.32,0-0.48-0.02c0.02,0.11,0.05,0.21,0.07,0.32c0.08,0.25,0.15,0.49,0.21,0.71l0,0l0,0l0,0l-0.1-0.05l0.27,0.29
		c0.2,0.18,0.37,0.34,0.57,0.51c0.23,0.17,0.4,0.33,0.67,0.48c0.3,0.15,0.6,0.29,0.88,0.42c1.13,0.53,2.08,0.93,2.62,1.08
		c0.8,0.28,1.59,0.38,2.37,0.38c0.81,0,1.62-0.1,2.42-0.21c0.8-0.1,1.6-0.21,2.4-0.21c0.43,0,0.86,0.03,1.29,0.1
		c0.01,0,0.02,0.02,0.02,0.04l0,0c0,0.09-0.07,0.3-0.21,0.58c0.33-0.02,0.65-0.05,0.98-0.09c0.19-0.24,0.94-0.69,1.13-0.93
		c0.74,0.08,1.28,0.41,2,1.02c2.23,2.77,5.26,4.08,8.37,5.23c1.55,0.58,3.12,1.11,4.62,1.77l0.23,0.13l0,0.01
		c0-0.04-0.01-0.13-0.01-0.3l-0.05-1.09c-0.17-3.73-0.34-7.45-0.52-11.17c-0.1-2.43-0.2-4.85-0.3-7.27c0-0.1-0.01-0.2-0.01-0.31
		c0-0.1-0.01-0.19-0.01-0.29l0.15,3.95l0.07,1.56l0.01,0.17l0,0l0,0c-0.05-0.3-0.23-0.59-0.37-0.89c-0.56-1.16-1.01-2.39-1.01-4.09
		l0,0c0-0.1,0-0.2,0-0.3c0.02-0.09,0.02-0.19,0.02-0.28c0-1.26-1.3-2.82-2.32-3.42C92.87,62.6,92.79,62.59,92.71,62.59"/>
	<path class="st470" d="M77.14,64.31c-0.12,0-0.25,0-0.37,0c-0.12,0-0.24,0-0.36,0.01c0.43,0,0.86,0,1.29,0l-0.32,0l-0.01,0
		C77.29,64.31,77.22,64.31,77.14,64.31"/>
	<path class="st470" d="M78.57,64.32c-0.05,0-0.1,0-0.15,0l0.87,0.01c-0.16,0-0.33-0.01-0.49-0.01
		C78.73,64.32,78.65,64.32,78.57,64.32"/>
	<path class="st470" d="M78.4,64.32l-0.07,0c0.03,0,0.06,0,0.09,0L78.4,64.32"/>
	<path class="st470" d="M78.33,64.32c-0.05,0-0.1,0-0.15,0c-0.16,0-0.32,0-0.48,0l0.23,0L78.33,64.32"/>
	<path class="st470" d="M76.41,64.32c-0.01,0-0.02,0-0.02,0c-0.01,0-0.01,0-0.02,0C76.38,64.32,76.4,64.32,76.41,64.32"/>
	<path class="st470" d="M76.37,64.32c-0.42,0.01-0.84,0.03-1.25,0.05l-0.08,0C75.48,64.36,75.92,64.34,76.37,64.32"/>
	<path class="st470" d="M79.3,64.33c0.02,0,0.04,0,0.06,0l-0.02,0l-0.01,0l-0.01,0L79.3,64.33"/>
	<path class="st470" d="M79.36,64.33l0.63,0.03l-0.3-0.02C79.58,64.34,79.47,64.33,79.36,64.33"/>
	<polyline class="st470" points="79.99,64.36 80.44,64.38 80.66,64.39 81.06,64.41 80.21,64.37 79.99,64.36 	"/>
	<path class="st470" d="M75.03,64.38c-0.19,0.01-0.37,0.01-0.56,0.02l0.01,0l0.35-0.01L75.03,64.38"/>
	<path class="st470" d="M74.47,64.4l-0.02,0c0,0,0.01,0,0.01,0C74.46,64.4,74.47,64.4,74.47,64.4"/>
	<path class="st470" d="M74.45,64.4c-0.19,0.01-0.39,0.01-0.58,0.02L74.45,64.4"/>
	<path class="st470" d="M73.87,64.42l-0.08,0l-0.04,0C73.79,64.42,73.83,64.42,73.87,64.42"/>
	<path class="st470" d="M73.75,64.43c-0.44,0.02-0.89,0.05-1.33,0.08L73.75,64.43"/>
	<path class="st470" d="M72.42,64.5L72.42,64.5l-0.01,0C72.41,64.5,72.41,64.5,72.42,64.5"/>
	<path class="st470" d="M72.41,64.5c-0.09,0.01-0.17,0.01-0.26,0.02l-0.22,0.02L72.41,64.5"/>
	<polyline class="st470" points="71.93,64.54 69.74,64.72 70.99,64.62 71.93,64.54 	"/>
	<path class="st470" d="M69.74,64.72l-0.21,0.02c-0.06,0.01-0.13,0.01-0.19,0.02L69.74,64.72"/>
	<polyline class="st470" points="69.34,64.75 69.34,64.75 69.34,64.75 69.34,64.75 	"/>
	<path class="st470" d="M69.34,64.75c-0.04,0-0.07,0.01-0.11,0.01c0,0,0,0,0,0C69.26,64.76,69.3,64.75,69.34,64.75"/>
	<path class="st470" d="M58.58,67.42c0.12,0.65,0.43,1.27,1.08,1.65c1.04,0.86,2.51,1.62,2.65,2.94l0,0l0,0l0,0l0,0
		c-0.32-0.15-0.63-0.31-0.95-0.49c-1.04-0.46-1.96-0.8-2.84-1.1l3.8,1.88l0,0l0,0c-0.01,0.2-0.05,0.41-0.12,0.63
		c0,0.01,0,0.02-0.01,0.03c0.91,0.51,1.82,1.08,2.83,1.45c0.22,0.11,0.44,0.19,0.66,0.25c-0.03-0.14-0.05-0.28-0.08-0.42
		c-0.02-0.11-0.04-0.21-0.07-0.32c-0.01-0.02-0.01-0.03-0.02-0.05l-0.02-0.14l-0.06-0.27c-0.05-0.23-0.11-0.45-0.16-0.67
		c-0.06-0.24-0.12-0.46-0.17-0.67c-0.01-0.03-0.02-0.07-0.03-0.1c-0.02-0.07-0.03-0.13-0.05-0.2c-0.06-0.24-0.12-0.47-0.17-0.69
		c-0.06-0.24-0.12-0.46-0.19-0.69c0,0,0-0.01,0-0.01c0-0.01,0-0.01,0-0.02l-0.71-0.35c-0.03-0.01-0.06-0.03-0.08-0.04
		C61.89,69.14,60.13,68.24,58.58,67.42"/>
	<path class="st470" d="M62.07,73.5c-0.18,0.8-0.29,1.48-0.29,2.18c0,0.13,0,0.26,0.01,0.39c0.5-0.12,1-0.21,1.52-0.21
		c0.4,0,0.8,0.05,1.22,0.19c0.5,0.21,1.06,0.58,1.63,0.93c-0.07-0.37-0.14-0.74-0.22-1.11c-0.04-0.17-0.07-0.34-0.11-0.5L62.07,73.5
		"/>
	<path class="st470" d="M61.79,76.07c-0.59,0.14-1.19,0.33-1.82,0.47l2.44,1.21c-0.22-0.5-0.43-1-0.61-1.51
		C61.8,76.18,61.8,76.13,61.79,76.07 M61.79,76.07L61.79,76.07L61.79,76.07L61.79,76.07L61.79,76.07"/>
	<polyline class="st470" points="97.28,86.36 97.28,86.37 97.28,86.37 97.28,86.36 	"/>
	<path class="st470" d="M97.28,86.38L97.28,86.38L97.28,86.38L97.28,86.38 M97.28,86.37C97.28,86.37,97.28,86.37,97.28,86.37
		c0,0,0,0,0,0.01L97.28,86.37L97.28,86.37C97.28,86.37,97.28,86.37,97.28,86.37"/>
	<path class="st470" d="M97.28,86.37L97.28,86.37c0,0.01,0,0.01,0,0.01c0,0.01,0,0.01,0,0.01c0,0,0,0,0,0v0l0,0c0,0,0,0,0,0
		C97.28,86.39,97.28,86.38,97.28,86.37"/>
	<polyline class="st470" points="60.44,61.97 60.44,61.97 60.44,61.97 60.44,61.97 	"/>
	<polyline class="st470" points="60.45,61.97 60.45,61.97 60.45,61.97 60.45,61.97 	"/>
	<path class="st470" d="M60.45,61.97c0.03,0.02,0.06,0.04,0.09,0.06c0.03,0.02,0.06,0.04,0.09,0.05c0.02,0.01,0.03,0.02,0.05,0.03
		l-0.01-0.01l0.01,0.01l-0.01-0.01l0.02,0.02l0.01,0.01c0.08,0.05,0.14,0.08,0.14,0.08l0,0l0,0l0,0l0,0c0,0-0.02-0.01-0.07-0.04
		c0,0,0.01,0,0.01,0l0,0l0,0l0,0l0,0c0,0,0,0-0.01,0h0l0,0l-0.01,0l0,0l0,0l-0.03-0.02l-0.01-0.01c0,0,0,0,0,0l0.03,0.03l0.01,0.01
		l0.01,0.01l0.07,0.07l0.02,0.02c0.04,0.04,0.08,0.07,0.11,0.11l0.01,0.01c0.01,0.01,0.02,0.02,0.03,0.04
		c0.01,0.01,0.03,0.03,0.04,0.04c0.09,0.1,0.2,0.23,0.33,0.39c0.16-0.12,0.37-0.22,0.54-0.3l0.03-0.14l-0.04-0.03
		c-0.01,0-0.03,0-0.04-0.01l-0.02,0l-0.01,0c-0.12-0.02-0.22-0.04-0.33-0.06c-0.07-0.01-0.15-0.03-0.23-0.05
		c-0.11-0.02-0.2-0.05-0.29-0.08c-0.1-0.02-0.24-0.08-0.31-0.1l0,0l-0.1-0.04L60.5,62l0,0l0,0l-0.03-0.02L60.45,61.97"/>
	<polyline class="st470" points="60.69,62.11 60.7,62.12 60.7,62.12 60.69,62.12 60.69,62.11 	"/>
	<path class="st470" d="M60.7,62.12l0.01,0.01l0.03,0.02l0.01,0l0,0l0,0C60.76,62.15,60.73,62.14,60.7,62.12"/>
	<polyline class="st470" points="60.77,62.16 60.77,62.16 60.77,62.16 60.77,62.16 	"/>
	<path class="st470" d="M61.41,62.9c0.02,0.02,0.03,0.04,0.05,0.07c-0.01-0.01-0.01-0.02-0.02-0.03
		C61.43,62.92,61.42,62.91,61.41,62.9"/>
	<path class="st470" d="M61.89,63.59c0.08,0.12,0.15,0.25,0.23,0.39C62.05,63.85,61.97,63.72,61.89,63.59"/>
	<path class="st470" d="M62.42,64.53c0.1,0.18,0.2,0.38,0.3,0.59C62.63,64.92,62.53,64.72,62.42,64.53"/>
	<path class="st470" d="M63.26,66.31c0.07,0.16,0.13,0.33,0.21,0.52C63.4,66.64,63.33,66.47,63.26,66.31"/>
	<path class="st470" d="M63.68,67.4c0.02,0.04,0.03,0.09,0.05,0.13c0.02,0.04,0.02,0.06,0.03,0.06c0,0,0,0,0,0c0,0,0,0,0,0
		C63.73,67.52,63.7,67.46,63.68,67.4"/>
	<path class="st470" d="M63.82,67.76c0.01,0.03,0.02,0.06,0.03,0.1c0,0,0,0.01,0.01,0.01C63.85,67.83,63.83,67.8,63.82,67.76"/>
	<path class="st470" d="M63.86,67.87c0.08,0.23,0.17,0.47,0.25,0.72c0,0.02,0.01,0.03,0.01,0.05c0.02,0.07,0.05,0.15,0.07,0.22
		c0,0.01,0,0.02,0.01,0.02c0.07,0.24,0.15,0.49,0.23,0.74c0.02,0.05,0.03,0.1,0.05,0.16c0.07,0.21,0.13,0.42,0.19,0.63
		c0.13,0.06,0.25,0.13,0.38,0.19l0.09,0.04c-0.21-0.52-0.43-1.02-0.65-1.48C64.27,68.7,64.06,68.27,63.86,67.87"/>
	<path class="st470" d="M64.66,70.41c0,0.01,0.01,0.02,0.01,0.03c0.07,0.23,0.13,0.46,0.19,0.69c0.06,0.22,0.11,0.45,0.17,0.69
		c0.02,0.1,0.05,0.2,0.07,0.3c0.06,0.22,0.12,0.44,0.17,0.67c0,0.01,0,0.02,0.01,0.02c0.09,0.36,0.18,0.74,0.26,1.11
		c0.06,0.17,0.12,0.34,0.19,0.51c0.05,0.09,0.1,0.18,0.15,0.28c0.2,0.04,0.39,0.06,0.59,0.08c-0.36-1.54-0.84-2.92-1.34-4.14
		c-0.03-0.02-0.06-0.03-0.09-0.05L64.66,70.41"/>
	<path class="st470" d="M65.13,70.64C65.13,70.64,65.13,70.64,65.13,70.64c1.07,0.55,2.2,1.16,3.41,1.69L65.13,70.64"/>
	<path class="st470" d="M65.69,74.66c0.02,0.1,0.04,0.21,0.06,0.31c0.03,0.13,0.05,0.26,0.08,0.39l0.82,0.4l-0.22-0.24l-0.4-0.55
		c-0.05-0.09-0.1-0.18-0.15-0.28C65.82,74.69,65.75,74.67,65.69,74.66"/>
	<path class="st471" d="M120.66,99.78c-0.27,0.32-0.46,0.52-0.61,0.67C120.2,100.3,120.39,100.1,120.66,99.78"/>
	<path class="st471" d="M119.83,100.67c-0.1,0.03-0.22,0.08-0.34,0.16c-0.34,0.21-0.74,0.59-1.14,1.02c0.4-0.43,0.8-0.81,1.14-1.02
		C119.61,100.75,119.73,100.69,119.83,100.67"/>
	<path class="st464" d="M117.06,103.49L117.06,103.49c-0.03,0.04-0.06,0.08-0.08,0.12c-0.72,1.05-1.32,2.1-1.44,2.3l0,0
		c0.11-0.2,0.72-1.25,1.44-2.3c0.01-0.01,0.01-0.02,0.02-0.03C117.01,103.55,117.04,103.52,117.06,103.49"/>
	<path class="st471" d="M118.35,101.85c-0.5,0.55-0.92,1.1-1.29,1.63c-0.02,0.03-0.04,0.06-0.06,0.09
		C117.38,103.01,117.81,102.43,118.35,101.85"/>
	<path class="st471" d="M115.71,107.27c-0.01,0.25-0.04,0.5-0.09,0.75c-0.32,1.63-1.42,3.36-2.65,4.87
		c-0.08,0.09-0.15,0.18-0.23,0.27c1.32-1.57,2.54-3.42,2.88-5.15C115.68,107.77,115.71,107.52,115.71,107.27"/>
	<path class="st471" d="M112.73,113.2c-0.46,0.55-0.94,1.07-1.39,1.53C111.79,114.26,112.27,113.75,112.73,113.2"/>
	<path class="st471" d="M103.5,120.49c-0.32,0.4-0.93,0.91-1.73,1.47c-1.46,1.02-3.54,2.19-5.55,3.07
		C99.34,123.66,102.61,121.6,103.5,120.49"/>
	<path class="st471" d="M96.17,125.05c-3.13,1.41-6.06,2.16-6.06,2.16C90.11,127.2,93.04,126.45,96.17,125.05"/>
	<path class="st471" d="M79.5,128.74c-1.37,0.25-2.69,0.5-3.95,0.73c-1.63,0.31-3.16,0.6-4.56,0.89c1.4-0.29,2.92-0.58,4.56-0.89
		C76.81,129.23,78.13,128.99,79.5,128.74"/>
	<path class="st471" d="M70.99,130.36c-2.03,0.41-3.8,0.8-5.2,1.13C67.2,131.16,68.97,130.77,70.99,130.36"/>
	<path class="st471" d="M65.79,131.49c-0.34,0.08-0.66,0.15-0.95,0.23C65.14,131.64,65.45,131.56,65.79,131.49"/>
	<path class="st471" d="M64.68,131.75c-1.42,0.35-2.24,0.6-2.24,0.6C62.44,132.35,63.27,132.1,64.68,131.75"/>
	<path class="st472" d="M60.37,61.92c0,0,0.02,0.01,0.07,0.04h0C60.4,61.94,60.37,61.92,60.37,61.92"/>
	<path class="st472" d="M60.44,61.97L60.44,61.97L60.44,61.97L60.44,61.97L60.44,61.97 M60.44,61.97L60.44,61.97L60.44,61.97
		L60.44,61.97 M60.44,61.97L60.44,61.97L60.44,61.97L60.44,61.97 M60.44,61.97L60.44,61.97L60.44,61.97L60.44,61.97L60.44,61.97
		L60.44,61.97 M60.44,61.96C60.44,61.96,60.44,61.96,60.44,61.96C60.44,61.97,60.44,61.97,60.44,61.96L60.44,61.96
		C60.44,61.97,60.44,61.97,60.44,61.96L60.44,61.96C60.44,61.96,60.44,61.96,60.44,61.96"/>
	<path class="st472" d="M60.44,61.97L60.44,61.97C60.45,61.97,60.45,61.97,60.44,61.97C60.45,61.97,60.45,61.97,60.44,61.97
		L60.44,61.97c0.03,0.02,0.06,0.04,0.1,0.06C60.51,62.01,60.48,61.99,60.44,61.97L60.44,61.97L60.44,61.97L60.44,61.97l0.02,0.01
		l0.03,0.02L60.44,61.97C60.45,61.97,60.45,61.97,60.44,61.97"/>
	<path class="st472" d="M60.45,61.97L60.45,61.97L60.45,61.97 M60.45,61.97L60.45,61.97L60.45,61.97
		C60.45,61.97,60.45,61.97,60.45,61.97L60.45,61.97"/>
	<polyline class="st472" points="60.5,61.99 60.5,62 60.5,62 60.5,61.99 	"/>
	<polyline class="st472" points="60.5,62 60.59,62.04 60.69,62.08 60.5,62 	"/>
	<path class="st472" d="M60.69,62.11L60.69,62.11 M60.55,62.03c0.01,0,0.02,0.01,0.02,0.01c0.04,0.03,0.09,0.05,0.12,0.07l0.05,0.04
		l-0.01-0.01l-0.03-0.03l0,0l0,0c0,0,0,0,0,0l0.01,0.01l0.03,0.02l0,0l-0.03-0.02l-0.01-0.01l0,0l0,0c0.03,0.02,0.05,0.03,0.06,0.04
		l0,0h0c0,0,0.01,0,0.01,0c0,0,0,0-0.01,0l0,0l0,0l0,0l0,0c0.05,0.03,0.07,0.04,0.07,0.04c0,0-0.06-0.04-0.14-0.08l-0.01-0.01l0,0
		l0,0l0,0c0,0,0,0,0,0l-0.01-0.01l-0.01-0.01l0.01,0.01l0,0l0,0c-0.02-0.01-0.03-0.02-0.05-0.03
		C60.61,62.06,60.58,62.05,60.55,62.03"/>
	<path class="st472" d="M60.69,62.08L60.69,62.08c0.07,0.03,0.21,0.08,0.31,0.1c0.09,0.03,0.18,0.05,0.29,0.08
		c-0.15-0.04-0.28-0.08-0.36-0.1l-0.23-0.08L60.69,62.08"/>
	<polyline class="st472" points="60.67,62.1 60.69,62.11 60.69,62.12 60.67,62.1 	"/>
	<polyline class="st472" points="60.75,62.15 60.76,62.16 60.76,62.16 60.76,62.16 60.75,62.15 	"/>
	<polyline class="st472" points="60.74,62.16 60.82,62.23 60.75,62.17 60.74,62.16 	"/>
	<path class="st472" d="M60.77,62.16L60.77,62.16L60.77,62.16 M60.76,62.16L60.76,62.16L60.76,62.16
		C60.77,62.16,60.77,62.16,60.76,62.16L60.76,62.16"/>
	<path class="st472" d="M60.82,62.23l0.13,0.13c-0.03-0.04-0.07-0.07-0.11-0.11L60.82,62.23"/>
	<path class="st472" d="M61.29,62.26c0.07,0.02,0.15,0.04,0.23,0.05C61.43,62.29,61.36,62.27,61.29,62.26"/>
	<path class="st472" d="M63.47,66.83c-0.07-0.2-0.14-0.37-0.21-0.52l0,0l0,0l0,0l0,0C63.33,66.47,63.4,66.64,63.47,66.83
		L63.47,66.83L63.47,66.83L63.47,66.83L63.47,66.83 M62.72,65.12c-0.1-0.21-0.2-0.41-0.3-0.59l0,0l0,0l0,0l0,0
		C62.53,64.72,62.63,64.92,62.72,65.12L62.72,65.12L62.72,65.12L62.72,65.12L62.72,65.12 M62.12,63.98
		c-0.08-0.14-0.16-0.27-0.23-0.39l0,0l0,0l0,0l0,0C61.97,63.72,62.05,63.85,62.12,63.98L62.12,63.98L62.12,63.98L62.12,63.98
		L62.12,63.98 M61.46,62.96c-0.02-0.02-0.03-0.04-0.05-0.07l0,0l0,0l0,0l0,0c0.01,0.01,0.02,0.03,0.03,0.04
		C61.44,62.94,61.45,62.95,61.46,62.96L61.46,62.96L61.46,62.96L61.46,62.96L61.46,62.96 M65.69,62.29c-0.2,0-0.48,0.03-0.91,0.1
		c-0.35,0.05-1.03,0.07-1.43,0.08c0,0-0.01,0-0.01,0c-0.25,0-0.49-0.01-0.71-0.02c-0.26-0.02-0.51-0.04-0.73-0.08l0.04,0.03
		l-0.03,0.14c-0.16,0.08-0.38,0.18-0.54,0.3c-0.13-0.16-0.24-0.29-0.33-0.39c0.09,0.1,0.18,0.22,0.33,0.4l0,0l0,0l0,0l0,0
		c-0.1,0.07-0.17,0.15-0.19,0.23c0,0,0,0.01,0,0.01l0,0c0,0.27-0.2,0.72-0.2,1.17c0,0.05,0,0.1,0.01,0.14
		c0.05,0.49,0.35,0.87,1.28,0.87c0.05,0,0.1,0,0.16,0c0.43,0.7,0.91,1.54,1.42,2.56c0,0,0,0,0,0c-0.04-0.11-0.08-0.21-0.12-0.31
		c-0.02-0.04-0.03-0.09-0.05-0.13l0,0l0,0l0,0l0,0c0.02,0.06,0.05,0.12,0.07,0.19c0.02,0.06,0.05,0.12,0.07,0.18
		c0.01,0.04,0.03,0.07,0.04,0.11c0.2,0.4,0.41,0.83,0.63,1.29c0.21,0.46,0.43,0.96,0.65,1.48l3.41,1.69l0,0l0,0
		c-1.21-0.53-2.34-1.14-3.41-1.69c0.5,1.22,0.98,2.6,1.34,4.14c0.16,0.01,0.32,0.02,0.48,0.02c0.23,0,0.46-0.01,0.7-0.02
		c0.24-0.01,0.47-0.02,0.71-0.02c0.39,0,0.78,0.02,1.19,0.1c0.84,0.06,1.62,0.49,2.28,0.49c0,0,0,0,0,0
		c0.24-0.34,0.89-0.56,0.89-0.85c0-0.06-0.03-0.12-0.09-0.19c-0.26-0.44-0.77-0.66-1.25-0.88c-0.36-3.63-1.38-6.66-2.15-8.67
		c0,0,0,0,0,0c-0.07-0.18-0.14-0.36-0.2-0.52c-0.14-0.35-0.44-0.53-0.77-0.65c-0.41-0.14-0.87-0.19-1.19-0.33
		c-0.93-0.32-0.78-0.69-0.97-0.87C66.02,62.33,65.91,62.29,65.69,62.29"/>
	<path class="st472" d="M61.51,62.3c0.1,0.02,0.21,0.04,0.33,0.06l-0.24-0.04C61.57,62.31,61.54,62.31,61.51,62.3"/>
	<path class="st472" d="M61.84,62.36L61.84,62.36l0.02,0C61.85,62.36,61.84,62.36,61.84,62.36"/>
	<path class="st472" d="M60.96,62.36c0.01,0.01,0.03,0.03,0.04,0.05C60.99,62.4,60.98,62.38,60.96,62.36L60.96,62.36"/>
	<path class="st472" d="M61.86,62.36c0.01,0,0.03,0,0.04,0.01l0,0L61.86,62.36"/>
	<path class="st472" d="M61,62.41c0.01,0.01,0.03,0.03,0.04,0.04C61.03,62.44,61.01,62.42,61,62.41"/>
	<path class="st472" d="M57.69,66.96c0.29,0.15,0.58,0.31,0.89,0.47c1.55,0.82,3.31,1.72,5.29,2.59c0.03,0.01,0.06,0.03,0.08,0.04
		l-5.38-2.66L57.69,66.96"/>
	<path class="st472" d="M63.84,67.84c0.01,0.03,0.03,0.07,0.04,0.1c0.02,0.05,0.03,0.09,0.05,0.14c0.06,0.18,0.12,0.36,0.18,0.55
		c0-0.02-0.01-0.03-0.01-0.05c-0.08-0.25-0.16-0.49-0.25-0.72c0,0,0-0.01-0.01-0.01C63.85,67.85,63.85,67.85,63.84,67.84"/>
	<path class="st472" d="M64.12,68.63c0.02,0.08,0.05,0.16,0.07,0.24c0-0.01,0-0.02-0.01-0.02C64.17,68.78,64.14,68.71,64.12,68.63"
		/>
	<path class="st472" d="M64.19,68.88c0.04,0.13,0.07,0.26,0.11,0.39c0.04,0.12,0.08,0.23,0.12,0.35
		C64.34,69.36,64.27,69.12,64.19,68.88"/>
	<path class="st472" d="M64.42,69.62c0.08,0.25,0.16,0.52,0.24,0.78l0,0l0,0l0,0l0,0c-0.24-0.12-0.48-0.24-0.71-0.35l0.71,0.35
		c0,0.01,0,0.01,0,0.02c0,0,0,0.01,0,0.01c0-0.01-0.01-0.02-0.01-0.03l0,0l0,0l0,0l0.38,0.19c-0.13-0.07-0.26-0.13-0.38-0.19
		c-0.06-0.21-0.12-0.42-0.19-0.63C64.46,69.72,64.44,69.67,64.42,69.62"/>
	<path class="st472" d="M64.67,70.43c0.06,0.22,0.13,0.45,0.19,0.69C64.8,70.89,64.74,70.67,64.67,70.43"/>
	<path class="st472" d="M65.13,70.64L65.13,70.64L65.13,70.64 M65.04,70.59c0.03,0.02,0.06,0.03,0.09,0.05c0,0,0,0,0,0L65.04,70.59"
		/>
	<path class="st472" d="M64.86,71.12c0.06,0.22,0.11,0.45,0.17,0.69C64.97,71.58,64.92,71.35,64.86,71.12"/>
	<path class="st472" d="M65.03,71.82c0.02,0.07,0.03,0.13,0.05,0.2c0.01,0.03,0.02,0.06,0.03,0.1
		C65.08,72.01,65.05,71.91,65.03,71.82"/>
	<path class="st472" d="M58.87,71.92l6.96,3.44c-0.03-0.13-0.06-0.26-0.08-0.39c-0.02-0.11-0.04-0.21-0.06-0.31
		c-0.22-0.06-0.44-0.14-0.66-0.25c-1.01-0.37-1.93-0.94-2.83-1.45c-0.45-0.25-0.91-0.49-1.36-0.67
		C60.11,72.08,59.5,71.95,58.87,71.92"/>
	<path class="st472" d="M65.1,72.11c0.05,0.21,0.11,0.43,0.17,0.67C65.22,72.56,65.16,72.33,65.1,72.11"/>
	<path class="st472" d="M65.28,72.78c0.06,0.22,0.11,0.45,0.16,0.67l0.06,0.27l0.02,0.14c0.01,0.02,0.01,0.03,0.02,0.05
		c-0.08-0.38-0.17-0.75-0.26-1.11C65.28,72.8,65.28,72.79,65.28,72.78"/>
	<path class="st472" d="M65.54,73.92c0.02,0.11,0.04,0.21,0.07,0.32c0.03,0.14,0.05,0.28,0.08,0.42c0.06,0.02,0.13,0.03,0.19,0.04
		c-0.05-0.09-0.1-0.19-0.15-0.28C65.66,74.25,65.6,74.08,65.54,73.92"/>
	<path class="st472" d="M66.47,74.78L66.47,74.78L66.47,74.78L66.47,74.78L66.47,74.78 M65.88,74.7c0.05,0.09,0.1,0.18,0.15,0.28
		l0.4,0.55l0.22,0.24l0.1,0.05c-0.05-0.22-0.13-0.47-0.21-0.71c-0.02-0.11-0.05-0.22-0.07-0.32C66.27,74.77,66.08,74.74,65.88,74.7"
		/>
	<path class="st472" d="M66.65,75.77L66.65,75.77 M65.83,75.36c0.04,0.17,0.07,0.33,0.11,0.5c0.13,0.61,0.24,1.23,0.35,1.86
		l0.13,0.8l0.03,0.13c0.08,0.35,0.24,0.68,0.45,1c0.23,0.32,0.52,0.62,0.86,0.91c0.2,0.14,0.34,0.28,0.57,0.41
		c0.28,0.12,0.56,0.24,0.81,0.35c1.04,0.45,1.87,0.77,2.29,0.91c0.85,0.17,1.63,0.24,2.33,0.24c0.72,0,1.36-0.08,1.94-0.21
		c0.02-0.01,0.05-0.01,0.07-0.02c2.45-0.58,3.71-2.14,4.17-3.02c0.15-0.28,0.21-0.49,0.21-0.58c0-0.03-0.01-0.04-0.02-0.04
		c-0.43-0.08-0.86-0.1-1.29-0.1c-0.8,0-1.6,0.1-2.4,0.21c-0.8,0.1-1.61,0.21-2.42,0.21c-0.78,0-1.57-0.1-2.37-0.38
		c-0.55-0.15-1.49-0.54-2.62-1.08c-0.28-0.14-0.58-0.28-0.88-0.42c-0.27-0.15-0.43-0.31-0.67-0.48c-0.2-0.17-0.37-0.33-0.57-0.51
		l-0.27-0.29L65.83,75.36"/>
</g>
<g>
	<path d="M74.89,121.82c-4.89-0.58-9.79-1.17-14.68-1.73c-3.47-0.4-6.88-1.53-10.42-1.12c-2.23,0.26-4.51,0.39-6.64,1.05
		c-2.95,0.91-5.77,0.74-8.59-0.24c-2.72-0.94-4.26-3.02-4.43-6.15c-0.09-1.52-0.2-3.08-0.02-4.58c0.27-2.34-0.24-4.48-0.97-6.62
		c-0.74-2.19-1.64-4.34-2.15-6.59c-0.4-1.73-0.35-3.59-0.45-5.39c-0.33-6.41,1.24-12.28,4.06-17.9c1.13-2.25,2.74-4.24,3.15-6.98
		c0.21-1.35,1.39-2.64,2.37-3.71c2.74-3.02,5.53-5.99,8.44-8.82c2.91-2.84,5.96-5.52,9-8.2c4.06-3.58,8.84-5.69,13.7-7.63
		c3.57-1.43,7.14-2.88,10.73-4.24c1.25-0.47,2.58-0.85,3.89-0.96c2.82-0.25,5.65-0.38,8.48-0.43c3.09-0.06,6.18,0.07,9.21,0.9
		c1.21,0.33,2.46,0.5,3.63,0.93c4.01,1.47,8,3.01,11.99,4.56c3.37,1.3,5.99,3.32,6.88,7.45c0.6,2.79,1.62,5.47,2.52,8.17
		c0.39,1.17,0.97,2.25,1.41,3.4c1.84,4.8,2.96,9.77,2.73,15.01c-0.32,7.2-2.28,13.87-6.12,19.73c-2.64,4.03-5.56,7.85-8.59,11.54
		c-1.47,1.79-3.41,3.19-5.26,4.56c-3.86,2.83-7.67,5.78-11.97,7.8c-3.2,1.51-6.42,3.01-9.73,4.13
		C83.12,121.1,79.04,121.56,74.89,121.82z M127.17,72.51c0.12-6.73-0.81-10.97-2.66-15.03c-0.8-1.76-1.38-3.66-2-5.51
		c-0.81-2.45-1.57-4.93-2.33-7.4c-0.69-2.25-2.3-3.68-4.14-4.45c-4.08-1.71-8.35-2.76-12.39-4.76c-3.29-1.63-7.03-2.18-10.74-2.18
		c-1.58,0-3.15-0.2-4.73-0.21c-3.95-0.03-7.76,0.72-11.47,2.25c-3.1,1.28-6.22,2.56-9.42,3.51c-4.56,1.35-8.79,3.33-12.44,6.6
		c-4.36,3.91-8.71,7.83-12.97,11.87c-2.86,2.7-5.57,5.59-6.24,9.95c-0.05,0.33-0.31,0.64-0.52,0.91c-3.59,4.8-5.66,10.29-6.87,16.33
		c-1.16,5.77-0.02,11.07,1.82,16.34c1.19,3.41,2.15,6.76,1.4,10.52c-0.69,3.47,1.53,6.85,4.75,7.34c1.87,0.28,3.94,0.51,5.69-0.07
		c4.7-1.57,9.44-1.04,14.1-0.53c6.75,0.73,13.39,2.36,20.29,1.91c5.65-0.36,11.08-1.27,16.21-3.89c2.18-1.11,4.38-2.17,6.5-3.39
		c1.9-1.1,3.69-2.42,5.54-3.61c8.08-5.22,13.81-12.78,18.66-21.36C126.26,82.23,127.07,76.4,127.17,72.51z"/>
	<path d="M67.29,114.29c2.48-0.24,4.6-0.44,6.72-0.64c0.05,0.13,0.1,0.25,0.15,0.38c-1.12,0.54-2.2,1.26-3.37,1.56
		C69.6,115.87,68.18,116.18,67.29,114.29z"/>
	<path d="M101.74,103.99c1.5-1.1,2.69-1.97,4.04-2.96C105.05,103.52,103.71,104.58,101.74,103.99z"/>
	<path d="M86.44,108.61c-1.28,0.53-2.55,1.12-3.86,1.54c-0.25,0.08-0.68-0.48-1.43-1.06c2.03-0.48,3.47-1.45,5.16-1.07
		C86.36,108.22,86.4,108.41,86.44,108.61z"/>
	<path d="M92.77,110.61c-0.61,1.81-1.96,1.77-2.97,2.24c-0.24,0.11-0.68-0.31-1.64-0.79C89.96,111.49,91.2,111.1,92.77,110.61z"/>
	<path d="M112.99,92.94c-0.51,1.66-0.86,3.46-2.86,4.35C110.14,94.89,112.15,94.34,112.99,92.94z"/>
	<path d="M122.44,79.77c0.38,2.04-0.48,3.19-1.13,4.86C120.64,82.72,120.87,81.85,122.44,79.77z"/>
	<path d="M100.35,99.14c1.55-1.34,2.74-2.35,4.1-3.52C103.65,98.1,102.48,99.19,100.35,99.14z"/>
	<path d="M91.03,105.37c0.39-2.39,2.17-2.39,3.14-3.39C93.73,103.59,93.66,103.66,91.03,105.37z"/>
	<path d="M117.64,79.81c0.39,2.17-0.72,3.2-1.16,4.6C115.77,83.11,115.77,83.11,117.64,79.81z"/>
	<path d="M96.76,105.81c-1.31,2.02-1.49,2.08-3.55,1.24C94.63,106.56,95.69,106.18,96.76,105.81z"/>
	<path d="M82.28,114.77c-1.01,0.1-2.03,0.2-3.04,0.3c1.07-1.09,1.07-1.09,2.99-0.86C82.24,114.4,82.26,114.58,82.28,114.77z"/>
	<path d="M108.47,90.47c0.64-0.96,1.28-1.93,2.04-3.09C110.75,89.28,110.42,89.82,108.47,90.47z"/>
	<path d="M37.11,117c0.82,0,1.65,0,2.69,0c-0.9,0.88-1.75,0.87-2.64,0.63C37.14,117.42,37.12,117.21,37.11,117z"/>
	<path d="M120.99,62.79c0.52,1.15,1.09,2.28,0.33,3.75c-0.3-1.17-0.59-2.33-0.89-3.5C120.62,62.96,120.8,62.87,120.99,62.79z"/>
	<path d="M120.4,73.35c-1.43-0.89-0.89-1.51,0.14-2.66C120.47,71.98,120.43,72.67,120.4,73.35z"/>
	<path d="M119.77,46.94c-1.62,0.29-2.45,0.18-2.75-1.89C118.06,45.77,118.67,46.19,119.77,46.94z"/>
	<path d="M42.58,115.57c-0.54,0.65-1.15,1.6-2.49,0.43C41.2,115.81,41.89,115.69,42.58,115.57z"/>
	<path d="M56.59,113.29c0.63,0.21,1.27,0.41,1.9,0.62c-0.03,0.15-0.06,0.31-0.09,0.46c-0.64-0.1-1.28-0.2-1.92-0.29
		C56.52,113.81,56.56,113.55,56.59,113.29z"/>
	<path d="M46.69,112.8c-0.19,0.39-0.36,0.79-0.59,1.15c-0.03,0.04-0.39-0.18-0.6-0.27c0.2-0.4,0.4-0.79,0.6-1.19
		C46.3,112.59,46.49,112.7,46.69,112.8z"/>
</g>
</svg>
