<?xml version="1.0" encoding="utf-8"?>
<!-- Generator: Adobe Illustrator 23.0.1, SVG Export Plug-In . SVG Version: 6.00 Build 0)  -->
<svg version="1.1" id="Layer_1" xmlns="http://www.w3.org/2000/svg" xmlns:xlink="http://www.w3.org/1999/xlink" x="0px" y="0px"
	 viewBox="0 0 150 150" style="enable-background:new 0 0 150 150;" xml:space="preserve">
<style type="text/css">
	.st0{fill:#F49AB4;}
	.st1{fill:#F28DA7;}
	.st2{fill:#E85072;}
	.st3{fill:#E84B6F;}
	.st4{fill:#EB5A7D;}
	.st5{fill:#EF7994;}
	.st6{fill:#F8BCCD;}
	.st7{fill:#F38CA8;}
	.st8{fill:#EF728F;}
	.st9{fill:#FCE4EB;}
	.st10{fill:#F0CCCF;}
	.st11{fill:#DE8D95;}
	.st12{fill:#EBBABF;}
	.st13{fill:#E7ACB2;}
	.st14{fill:#E39DA3;}
	.st15{fill:#F5DEE0;}
	.st16{fill:#D97A83;}
	.st17{fill:#E4A6AD;}
	.st18{fill:#E9B6BB;}
	.st19{fill:#DA9197;}
	.st20{fill:#CC7077;}
	.st21{fill:#C9646C;}
	.st22{fill:#D4848B;}
	.st23{fill:#D17A81;}
	.st24{fill:#DD9EA3;}
	.st25{fill:#C65760;}
	.st26{fill:#D48189;}
	.st27{fill:#CF6E76;}
	.st28{fill:#C1575F;}
	.st29{fill:#B8424B;}
	.st30{fill:#B33C43;}
	.st31{fill:#BB4952;}
	.st32{fill:#C65E66;}
	.st33{fill:#BC4F57;}
	.st34{fill:#B0353D;}
	.st35{fill:#D67E84;}
	.st36{fill:#C6636B;}
	.st37{fill:#CA6C72;}
	.st38{fill:#B9454D;}
	.st39{fill:#C05B63;}
	.st40{fill:#C0545B;}
	.st41{fill:#BE4C53;}
	.st42{fill:#B43C44;}
	.st43{fill:#DF999F;}
	.st44{fill:#D27980;}
	.st45{fill:#C1555D;}
	.st46{fill:#CB6F76;}
	.st47{fill:#C8676E;}
	.st48{fill:#D5838A;}
	.st49{fill:#C65D64;}
	.st50{fill:#F1D1D4;}
	.st51{fill:#D38087;}
	.st52{fill:#CF737C;}
	.st53{fill:#D98C94;}
	.st54{fill:#E6B3B9;}
	.st55{fill:#D8898F;}
	.st56{fill:#C66269;}
	.st57{fill:#C96A72;}
	.st58{fill:#DD9399;}
	.st59{fill:#CF747B;}
	.st60{fill:#D48188;}
	.st61{fill:#D37D85;}
	.st62{fill:#DC9298;}
	.st63{fill:#D8838B;}
	.st64{fill:#FAECED;}
	.st65{fill:#EFCBD0;}
	.st66{fill:#EDC1C5;}
	.st67{fill:#D28089;}
	.st68{fill:#CB747D;}
	.st69{fill:#A8343C;}
	.st70{fill:#A62F37;}
	.st71{fill:#B03E44;}
	.st72{fill:#C25C63;}
	.st73{fill:#E1A8AC;}
	.st74{fill:#BE535C;}
	.st75{fill:#CE727C;}
	.st76{fill:#F5D8DA;}
	.st77{fill:#D8BAE7;}
	.st78{fill:#BC8FD2;}
	.st79{fill:#B17FC9;}
	.st80{fill:#7D3CA4;}
	.st81{fill:#884BAE;}
	.st82{fill:#A369BF;}
	.st83{fill:#D2B5E2;}
	.st84{fill:#9A62BC;}
	.st85{fill:#B17ECB;}
	.st86{fill:#ECE0F2;}
	.st87{fill:#FBCBC8;}
	.st88{fill:#F5908C;}
	.st89{fill:#F28580;}
	.st90{fill:#E64640;}
	.st91{fill:#E5413B;}
	.st92{fill:#E74E49;}
	.st93{fill:#ED6D68;}
	.st94{fill:#F7B5B0;}
	.st95{fill:#ED6660;}
	.st96{fill:#F48580;}
	.st97{fill:#FBDFDF;}
	.st98{fill:#F9C1C0;}
	.st99{fill:#F7B7B6;}
	.st100{fill:#EF7573;}
	.st101{fill:#EF6F6D;}
	.st102{fill:#F17F7C;}
	.st103{fill:#F4A19F;}
	.st104{fill:#F39998;}
	.st105{fill:#EC7271;}
	.st106{fill:#FAD1CF;}
	.st107{fill:#FADCDC;}
	.st108{fill:#F39391;}
	.st109{fill:#FDECEC;}
	.st110{fill:#FCDDDD;}
	.st111{fill:#ED8280;}
	.st112{fill:#E66160;}
	.st113{fill:#F18784;}
	.st114{fill:#F19593;}
	.st115{fill:#EB7675;}
	.st116{fill:#E86867;}
	.st117{fill:#F28785;}
	.st118{fill:#F3A7A7;}
	.st119{fill:#F08C8B;}
	.st120{fill:#F08785;}
	.st121{fill:#E55D5B;}
	.st122{fill:#E86D6C;}
	.st123{fill:#E85F5D;}
	.st124{fill:#E75958;}
	.st125{fill:#EA6664;}
	.st126{fill:#E76260;}
	.st127{fill:#E04948;}
	.st128{fill:#ED7371;}
	.st129{fill:#EA6B6A;}
	.st130{fill:#EB6763;}
	.st131{fill:#E45352;}
	.st132{fill:#E54E4C;}
	.st133{fill:#DE3635;}
	.st134{fill:#E65958;}
	.st135{fill:#E0413E;}
	.st136{fill:#EA6D6A;}
	.st137{fill:#EE9493;}
	.st138{fill:#EA6866;}
	.st139{fill:#F2A8A6;}
	.st140{fill:#E14543;}
	.st141{fill:#E3413F;}
	.st142{fill:#E64A48;}
	.st143{fill:#E56967;}
	.st144{fill:#E33F3D;}
	.st145{fill:#EB7775;}
	.st146{fill:#EE8483;}
	.st147{fill:#E64845;}
	.st148{fill:#E75655;}
	.st149{fill:#E65451;}
	.st150{fill:#EA7473;}
	.st151{fill:#E55B57;}
	.st152{fill:#E75756;}
	.st153{fill:#EB7472;}
	.st154{fill:#EE8C8A;}
	.st155{fill:#F5A3A2;}
	.st156{fill:#E14A49;}
	.st157{fill:#E14D4C;}
	.st158{fill:#E14B49;}
	.st159{fill:#DE3E3D;}
	.st160{fill:#E45350;}
	.st161{fill:#E14544;}
	.st162{fill:#E54E4B;}
	.st163{fill:#E34240;}
	.st164{fill:#E75C5A;}
	.st165{fill:#EB7C7B;}
	.st166{fill:#F3A2A1;}
	.st167{fill:#EA7877;}
	.st168{fill:#E66B6A;}
	.st169{fill:#E96A69;}
	.st170{fill:#E56160;}
	.st171{fill:#E44845;}
	.st172{fill:#EC7473;}
	.st173{fill:#F9C0D3;}
	.st174{fill:#F298B5;}
	.st175{fill:#EE89A7;}
	.st176{fill:#E54D73;}
	.st177{fill:#E44771;}
	.st178{fill:#E7567E;}
	.st179{fill:#EC7797;}
	.st180{fill:#F8BCCF;}
	.st181{fill:#EB6D8F;}
	.st182{fill:#F089A8;}
	.st183{fill:#FCE2EB;}
	.st184{fill:#E55B7F;}
	.st185{fill:#E6708E;}
	.st186{fill:#EB87A2;}
	.st187{fill:#E25677;}
	.st188{fill:#E7678B;}
	.st189{fill:#FBD7E3;}
	.st190{fill:#ED80A1;}
	.st191{fill:#E24166;}
	.st192{fill:#E13B65;}
	.st193{fill:#E34870;}
	.st194{fill:#E76486;}
	.st195{fill:#F49DB8;}
	.st196{fill:#F7BFD1;}
	.st197{fill:#E65C7F;}
	.st198{fill:#F6ABC4;}
	.st199{fill:#F6A7C2;}
	.st200{fill:#EA6189;}
	.st201{fill:#DB3258;}
	.st202{fill:#DA2E55;}
	.st203{fill:#F7B2C9;}
	.st204{fill:#EA6A8D;}
	.st205{fill:#DC355B;}
	.st206{fill:#DB3159;}
	.st207{fill:#DF3C63;}
	.st208{fill:#F9C5D6;}
	.st209{fill:#EB7697;}
	.st210{fill:#DE3B61;}
	.st211{fill:#DE375F;}
	.st212{fill:#E1426A;}
	.st213{fill:#FDE7EE;}
	.st214{fill:#EE89A9;}
	.st215{fill:#E2456B;}
	.st216{fill:#E14069;}
	.st217{fill:#E44D75;}
	.st218{fill:#E86B8C;}
	.st219{fill:#EE7A9C;}
	.st220{fill:#F5A8C0;}
	.st221{fill:#FACBDA;}
	.st222{fill:#E65A7D;}
	.st223{fill:#E04169;}
	.st224{fill:#FEF5F9;}
	.st225{fill:#F191B0;}
	.st226{fill:#EA7292;}
	.st227{fill:#F6B4C9;}
	.st228{fill:#FBD8E5;}
	.st229{fill:#E96C8F;}
	.st230{fill:#E35477;}
	.st231{fill:#EA7396;}
	.st232{fill:#EB7A9D;}
	.st233{fill:#E8698D;}
	.st234{fill:#EB7094;}
	.st235{fill:#E04B6E;}
	.st236{fill:#E66085;}
	.st237{fill:#EB7294;}
	.st238{fill:#E7678C;}
	.st239{fill:#EA6D91;}
	.st240{fill:#E14C71;}
	.st241{fill:#EE7A9D;}
	.st242{fill:#F393B2;}
	.st243{fill:#DC3F64;}
	.st244{fill:#EF82A3;}
	.st245{fill:#F39DB9;}
	.st246{fill:#DF466B;}
	.st247{fill:#DF4469;}
	.st248{fill:#F29A98;}
	.st249{fill:#E64F4D;}
	.st250{fill:#E74947;}
	.st251{fill:#E85956;}
	.st252{fill:#EC7775;}
	.st253{fill:#F8BCBA;}
	.st254{fill:#EC6F6D;}
	.st255{fill:#FCE2E2;}
	.st256{fill:#F8C8C6;}
	.st257{fill:#F08B89;}
	.st258{fill:#F18A89;}
	.st259{fill:#B093A4;}
	.st260{fill:#A38295;}
	.st261{fill:#6F455A;}
	.st262{fill:#694055;}
	.st263{fill:#794F64;}
	.st264{fill:#936F83;}
	.st265{fill:#CDB7C1;}
	.st266{fill:#B596A5;}
	.st267{fill:#A58394;}
	.st268{fill:#8C667A;}
	.st269{fill:#B696A7;}
	.st270{fill:#E8E0E7;}
	.st271{fill:#E1BCC2;}
	.st272{fill:#A9666E;}
	.st273{fill:#681C23;}
	.st274{fill:#641920;}
	.st275{fill:#73242D;}
	.st276{fill:#8D3F48;}
	.st277{fill:#C69197;}
	.st278{fill:#893841;}
	.st279{fill:#E3CCCE;}
	.st280{fill:#6F292E;}
	.st281{fill:#A15A63;}
	.st282{fill:#944952;}
	.st283{fill:#944953;}
	.st284{fill:#964A53;}
	.st285{fill:#984B54;}
	.st286{fill:#974A53;}
	.st287{fill:#A25A62;}
	.st288{fill:#D2BCC8;}
	.st289{fill:#C8B2BE;}
	.st290{fill:#936A80;}
	.st291{fill:#8E667B;}
	.st292{fill:#9B7589;}
	.st293{fill:#B293A3;}
	.st294{fill:#916B7F;}
	.st295{fill:#DDCCD6;}
	.st296{fill:#AC8B9C;}
	.st297{fill:#F1EBEF;}
	.st298{fill:#9C7A8C;}
	.st299{fill:#8F6C80;}
	.st300{fill:#B99DAC;}
	.st301{fill:#A27F91;}
	.st302{fill:#C2A7B6;}
	.st303{fill:#AB8E9F;}
	.st304{fill:#936D82;}
	.st305{fill:#856174;}
	.st306{fill:#B99DAB;}
	.st307{fill:#C2A9B6;}
	.st308{fill:#A38091;}
	.st309{fill:#BBA3B0;}
	.st310{fill:#7A5468;}
	.st311{fill:#855F73;}
	.st312{fill:#AE8E9F;}
	.st313{fill:#7C556A;}
	.st314{fill:#7B5066;}
	.st315{fill:#855C71;}
	.st316{fill:#AF8E9F;}
	.st317{fill:#734B60;}
	.st318{fill:#694256;}
	.st319{fill:#916A80;}
	.st320{fill:#886378;}
	.st321{fill:#875C71;}
	.st322{fill:#714B5E;}
	.st323{fill:#582F42;}
	.st324{fill:#795066;}
	.st325{fill:#5E3A4B;}
	.st326{fill:#8A6578;}
	.st327{fill:#A98E9D;}
	.st328{fill:#B9A1B1;}
	.st329{fill:#B08F9F;}
	.st330{fill:#B898AA;}
	.st331{fill:#896578;}
	.st332{fill:#653C50;}
	.st333{fill:#623A4E;}
	.st334{fill:#6C4257;}
	.st335{fill:#B28FA1;}
	.st336{fill:#80596E;}
	.st337{fill:#7F586C;}
	.st338{fill:#765063;}
	.st339{fill:#683F53;}
	.st340{fill:#774E63;}
	.st341{fill:#704B5F;}
	.st342{fill:#674355;}
	.st343{fill:#7F5A6E;}
	.st344{fill:#815A6E;}
	.st345{fill:#6A4558;}
	.st346{fill:#5D374A;}
	.st347{fill:#926D80;}
	.st348{fill:#70475B;}
	.st349{fill:#72495E;}
	.st350{fill:#673D52;}
	.st351{fill:#673D51;}
	.st352{fill:#60364B;}
	.st353{fill:#795265;}
	.st354{fill:#683F52;}
	.st355{fill:#7A5368;}
	.st356{fill:#987387;}
	.st357{fill:#70475C;}
	.st358{fill:#A07D92;}
	.st359{fill:#81596E;}
	.st360{fill:#926C7F;}
	.st361{fill:#80596D;}
	.st362{fill:#CDC0E4;}
	.st363{fill:#A998CF;}
	.st364{fill:#644DA1;}
	.st365{fill:#5E479E;}
	.st366{fill:#6F56A9;}
	.st367{fill:#755CAC;}
	.st368{fill:#8975BA;}
	.st369{fill:#C4BAE0;}
	.st370{fill:#755DAD;}
	.st371{fill:#846DB7;}
	.st372{fill:#E7E2F2;}
	.st373{fill:#9B89C5;}
	.st374{fill:#8871B8;}
	.st375{fill:#9C89C6;}
	.st376{fill:#8673B9;}
	.st377{fill:#B9E1BA;}
	.st378{fill:#ADDBAE;}
	.st379{fill:#99D09A;}
	.st380{fill:#65B567;}
	.st381{fill:#5FB261;}
	.st382{fill:#70BB71;}
	.st383{fill:#8DCB8E;}
	.st384{fill:#CBE9CB;}
	.st385{fill:#86C687;}
	.st386{fill:#98D099;}
	.st387{fill:#EBF5EB;}
	.st388{fill:#B9D6C9;}
	.st389{fill:#8EBD9E;}
	.st390{fill:#7DB18E;}
	.st391{fill:#408251;}
	.st392{fill:#3A7F4C;}
	.st393{fill:#4A8C5B;}
	.st394{fill:#68A279;}
	.st395{fill:#B5D4BE;}
	.st396{fill:#7CB38B;}
	.st397{fill:#619D71;}
	.st398{fill:#E0ECE4;}
	.st399{fill:#74A38C;}
	.st400{fill:#679880;}
	.st401{fill:#669780;}
	.st402{fill:#669881;}
	.st403{fill:#285E41;}
	.st404{fill:#235A3C;}
	.st405{fill:#31684A;}
	.st406{fill:#4D8268;}
	.st407{fill:#A1C2B0;}
	.st408{fill:#679981;}
	.st409{fill:#467B62;}
	.st410{fill:#D6E5DF;}
	.st411{fill:#8ECA8F;}
	.st412{fill:#7DC07F;}
	.st413{fill:#409841;}
	.st414{fill:#3A933C;}
	.st415{fill:#4AA14B;}
	.st416{fill:#68B569;}
	.st417{fill:#7CC07D;}
	.st418{fill:#B5DDB5;}
	.st419{fill:#61B062;}
	.st420{fill:#7CC17E;}
	.st421{fill:#E0EFE0;}
	.st422{fill:#EBF5DE;}
	.st423{fill:#D4EAB8;}
	.st424{fill:#D2E9B4;}
	.st425{fill:#D8ECBE;}
	.st426{fill:#E2F0CE;}
	.st427{fill:#F3F9EA;}
	.st428{fill:#DFF0CA;}
	.st429{fill:#FAFDF7;}
	.st430{fill:#D3C9BE;}
	.st431{fill:#CBBEB3;}
	.st432{fill:#BBAC9F;}
	.st433{fill:#97826F;}
	.st434{fill:#947E69;}
	.st435{fill:#9F8A79;}
	.st436{fill:#B5A495;}
	.st437{fill:#DED6CE;}
	.st438{fill:#BBAD9F;}
	.st439{fill:#AE9E8D;}
	.st440{fill:#F2EFEC;}
	.st441{fill:#B1A091;}
	.st442{fill:#B1A090;}
	.st443{fill:#D8BACF;}
	.st444{fill:#976286;}
	.st445{fill:#905778;}
	.st446{fill:#4F1939;}
	.st447{fill:#4C1637;}
	.st448{fill:#5A2144;}
	.st449{fill:#773B60;}
	.st450{fill:#B88FAD;}
	.st451{fill:#6E345A;}
	.st452{fill:#8E567D;}
	.st453{fill:#E1CCDA;}
	.st454{fill:#C4E2A7;}
	.st455{fill:#93C35F;}
	.st456{fill:#8EC15A;}
	.st457{fill:#9AC868;}
	.st458{fill:#B0D587;}
	.st459{fill:#DCEBC3;}
	.st460{fill:#C8E0AA;}
	.st461{fill:#ABD280;}
	.st462{fill:#CAE2A9;}
	.st463{fill:#EFF8E7;}
	.st464{fill:#FFF6C0;}
	.st465{fill:#FFEC97;}
	.st466{fill:#FFDC4B;}
	.st467{fill:#FFD945;}
	.st468{fill:#FFDD54;}
	.st469{fill:#FFE774;}
	.st470{fill:#FFF4BA;}
	.st471{fill:#FFE46C;}
	.st472{fill:#FFF9E2;}
	.st473{fill:#FDE2C1;}
	.st474{fill:#F9CA98;}
	.st475{fill:#F9C18A;}
	.st476{fill:#F5994E;}
	.st477{fill:#F49448;}
	.st478{fill:#F8A158;}
	.st479{fill:#F8B577;}
	.st480{fill:#FCDDBC;}
	.st481{fill:#F8B06F;}
	.st482{fill:#FFEFE2;}
	.st483{fill:#F8A7A4;}
	.st484{fill:#EF8262;}
	.st485{fill:#EC605A;}
	.st486{fill:#EB5B55;}
	.st487{fill:#EC6964;}
	.st488{fill:#F28783;}
	.st489{fill:#F9C4C1;}
	.st490{fill:#F2817A;}
	.st491{fill:#EB6449;}
	.st492{fill:#FCE7E7;}
	.st493{fill:#FFEA88;}
	.st494{fill:#FFEB87;}
	.st495{fill:#FDF2E3;}
	.st496{fill:#FDEFDD;}
	.st497{fill:#F9E1C4;}
	.st498{fill:#FADEB9;}
	.st499{fill:#FADDB7;}
	.st500{fill:#FAE0BF;}
	.st501{fill:#FBE9CF;}
	.st502{fill:#F9DAB8;}
	.st503{fill:#FDF5EB;}
	.st504{fill:#FBE6CB;}
	.st505{fill:#FFFBF7;}
	.st506{fill:#FBDFBE;}
	.st507{fill:#F7D8B5;}
	.st508{fill:#FBE8CF;}
	.st509{fill:#FBE3C8;}
	.st510{fill:#F9E8CF;}
	.st511{fill:#F8DBB7;}
	.st512{fill:#FADBB5;}
	.st513{fill:#F7D5AE;}
	.st514{fill:#FDE9D5;}
	.st515{fill:#FAE3C8;}
	.st516{fill:#F7D1A4;}
	.st517{fill:#F5CD9D;}
	.st518{fill:#F7D8B0;}
	.st519{fill:#F8D4A9;}
	.st520{fill:#F8D3A6;}
	.st521{fill:#F8D8AF;}
	.st522{fill:#F7CD9E;}
	.st523{fill:#F4C896;}
	.st524{fill:#FBE3C5;}
	.st525{fill:#F7DBB8;}
	.st526{fill:#F7D8B1;}
	.st527{fill:#F7D7B0;}
	.st528{fill:#F8CD9F;}
	.st529{fill:#F8CD9E;}
	.st530{fill:#F1BE84;}
	.st531{fill:#F8D0A3;}
	.st532{fill:#F1C38D;}
	.st533{fill:#F8D8B1;}
	.st534{fill:#FBE2C8;}
	.st535{fill:#F9EAD3;}
	.st536{fill:#F9D3AA;}
	.st537{fill:#F7C896;}
	.st538{fill:#F7C794;}
	.st539{fill:#F7CA9A;}
	.st540{fill:#F7D3AB;}
	.st541{fill:#F8D8B5;}
	.st542{fill:#F9E6CF;}
	.st543{fill:#F7C897;}
	.st544{fill:#F8D3AA;}
	.st545{fill:#F7CEA2;}
	.st546{fill:#F4CD9E;}
	.st547{fill:#F5D2A5;}
	.st548{fill:#FBE2C2;}
	.st549{fill:#F5D1A8;}
	.st550{fill:#F8D5AB;}
	.st551{fill:#F2C695;}
	.st552{fill:#F8D3A8;}
	.st553{fill:#F5C998;}
	.st554{fill:#F5C894;}
	.st555{fill:#F2C997;}
	.st556{fill:#F2C48D;}
	.st557{fill:#F4C694;}
	.st558{fill:#F5CE9D;}
	.st559{fill:#F4C594;}
	.st560{fill:#F5C995;}
	.st561{fill:#F4C48F;}
	.st562{fill:#F7D2A6;}
	.st563{fill:#F8DFBB;}
	.st564{fill:#FBE2C3;}
	.st565{fill:#F8CC9E;}
	.st566{fill:#FADFC1;}
	.st567{fill:#F9D8B5;}
	.st568{fill:#F4C997;}
	.st569{fill:#F9DDB8;}
	.st570{fill:#FDFCED;}
	.st571{fill:#FBF7D2;}
	.st572{fill:#F9F6CB;}
	.st573{fill:#F4EBA8;}
	.st574{fill:#F5E9A6;}
	.st575{fill:#F5EDAC;}
	.st576{fill:#F7F5C0;}
	.st577{fill:#FBFBE1;}
	.st578{fill:#F7F0BE;}
	.st579{fill:#FAF6CE;}
	.st580{fill:#FFFBF5;}
	.st581{fill:#BDDB97;}
	.st582{fill:#BBDC99;}
	.st583{fill:#BDDD99;}
	.st584{fill:#B0D484;}
	.st585{fill:#AFD484;}
	.st586{fill:#FFEA87;}
	.st587{fill:#D3E9BA;}
	.st588{fill:#E1EECE;}
	.st589{fill:#D3E8BB;}
	.st590{fill:#E3EECE;}
	.st591{opacity:0.9;}
	.st592{fill:#FFF8CD;}
	.st593{opacity:0.9;fill:#FFEE8A;}
	.st594{fill:#FFF19E;}
	.st595{fill:#FFF5B6;}
	.st596{fill:#FFFBE0;}
	.st597{fill:none;stroke:#FFF4B1;stroke-width:0;}
	.st598{fill:#FFFDF3;}
	.st599{fill:#FACEDD;}
	.st600{opacity:0.9;fill:#F38CAF;}
	.st601{fill:#F5A0BD;}
	.st602{fill:#F8B8CD;}
	.st603{fill:#FCE1EA;}
	.st604{fill:none;stroke:#F7B2C9;stroke-width:0;}
	.st605{fill:#FEF3F7;}
	.st606{fill:#FBDBB6;}
	.st607{fill:#FBD1A3;}
	.st608{fill:#F9B674;}
	.st609{fill:#F8B36E;}
	.st610{fill:#FABB7E;}
	.st611{fill:#FACB99;}
	.st612{fill:#FDE9D1;}
	.st613{fill:#FAC893;}
	.st614{fill:#F9D0A1;}
	.st615{fill:#FFF5EC;}
	.st616{fill:#D7ECC0;}
	.st617{fill:#B1D684;}
	.st618{fill:#ADD680;}
	.st619{fill:#B7D98D;}
	.st620{fill:#C8E2A7;}
	.st621{fill:#E8F2D6;}
	.st622{fill:#C3E0A0;}
	.st623{fill:#F5FAEF;}
	.st624{fill:#A87699;}
	.st625{fill:#A9716E;}
	.st626{fill:#9F698A;}
	.st627{fill:#9F698D;}
	.st628{fill:#65294F;}
	.st629{fill:#632638;}
	.st630{fill:#62244A;}
	.st631{fill:#612335;}
	.st632{fill:#6E3259;}
	.st633{fill:#6D2F40;}
	.st634{fill:#8B4E74;}
	.st635{fill:#C4A1BB;}
	.st636{fill:#9D688D;}
	.st637{fill:#82476E;}
	.st638{fill:#E7D6E1;}
	.st639{fill:#FFF9D6;}
	.st640{fill:#FFF2A6;}
	.st641{fill:#FFF4B0;}
	.st642{fill:#FFF7C4;}
	.st643{fill:#FFFCE6;}
	.st644{fill:#FFF3B5;}
	.st645{fill:#FFED8B;}
	.st646{fill:#FFED94;}
	.st647{fill:#FFF1A4;}
	.st648{fill:#FFF5BF;}
	.st649{fill:#FFF6CD;}
	.st650{fill:#FFE46E;}
	.st651{fill:#FFED98;}
	.st652{fill:#FFF3A9;}
	.st653{fill:#FFEC8D;}
	.st654{fill:#FFE66B;}
	.st655{fill:#FFEC8A;}
	.st656{fill:#FFE66D;}
	.st657{fill:#FFE571;}
	.st658{fill:#FFEF94;}
	.st659{fill:#FFEF9E;}
	.st660{fill:#FFED93;}
	.st661{fill:#FFE873;}
	.st662{fill:#FFE97A;}
	.st663{fill:#FFEC87;}
	.st664{fill:#FFF19F;}
	.st665{fill:#FFF1A8;}
	.st666{fill:#FFEA7E;}
	.st667{fill:#FFEB86;}
	.st668{fill:#FFEF97;}
	.st669{fill:#FFF2B0;}
	.st670{fill:#FFF4BC;}
	.st671{fill:#FFF5C1;}
	.st672{fill:#FFF8CF;}
	.st673{fill:#FFF8DC;}
	.st674{fill:#FFF0A0;}
	.st675{fill:#FFEE92;}
	.st676{fill:#FFF6CE;}
	.st677{fill:#FFFADD;}
	.st678{fill:#FFFBEC;}
	.st679{fill:#FFFDF5;}
	.st680{fill:#F49C52;}
	.st681{fill:#F69D52;}
	.st682{fill:#F8A55E;}
	.st683{fill:#F8B472;}
	.st684{fill:#F59D54;}
	.st685{fill:#F8A65F;}
	.st686{fill:#F8B474;}
	.st687{fill:#FDF3E9;}
	.st688{fill:#FAE8D1;}
	.st689{fill:#FAE8CF;}
	.st690{fill:#FAEBD4;}
	.st691{fill:#F9EDD7;}
	.st692{fill:#FBEFDE;}
	.st693{fill:#FBEFDD;}
	.st694{fill:#FDF8F1;}
	.st695{fill:#FBEDD7;}
	.st696{fill:#FBEFDC;}
	.st697{fill:#FFFBFA;}
	.st698{fill:#FFE771;}
	.st699{fill:#FFEB83;}
	.st700{fill:#FFED90;}
	.st701{fill:#F7B6CB;}
	.st702{fill:#F4A2BB;}
	.st703{fill:#EE7397;}
	.st704{fill:#ED6D94;}
	.st705{fill:#EF7C9F;}
	.st706{fill:#F399B5;}
	.st707{fill:#FAD1DE;}
	.st708{fill:#F291AE;}
	.st709{fill:#F3A1BB;}
	.st710{fill:#FDECF2;}
</style>
<g>
	<path class="st464" d="M63.09,35.15c0,0-0.73,0.14-1.81,0.83l0,0l0,0C62.37,35.29,63.09,35.15,63.09,35.15l0.13,0.02l0,0l0,0
		L63.09,35.15 M67.02,33.65c-0.14,0.07-0.86,0.44-1.69,0.81l0,0c-0.04,0.02-0.07,0.03-0.11,0.05l0,0c0.04-0.02,0.07-0.03,0.11-0.05
		C66.16,34.08,66.89,33.71,67.02,33.65L67.02,33.65 M67.76,32.62c-0.32,0.29-0.56,0.6-0.69,0.93l0,0
		C67.2,33.22,67.44,32.91,67.76,32.62L67.76,32.62 M85.15,30.68c-0.52,0.15-1.09,0.25-1.71,0.26l0,0
		C84.06,30.93,84.63,30.84,85.15,30.68L85.15,30.68 M77.07,30.12c-0.18,0-0.35,0-0.51,0.02l0,0C76.71,30.12,76.89,30.12,77.07,30.12
		c0.47,0,1.02,0.03,1.53,0.07c0.55,0.05,1.07,0.1,1.43,0.15c0.37,0.05,0.62,0.08,0.62,0.08c0.1,0.04,0.19,0.07,0.29,0.11l0,0
		c-0.1-0.03-0.19-0.07-0.29-0.11l0,0l0,0c0,0-0.24-0.03-0.62-0.08l0,0l0,0c-0.36-0.04-0.87-0.1-1.41-0.15c-0.01,0-0.02,0-0.03,0l0,0
		c-0.49-0.04-1.02-0.07-1.48-0.07C77.1,30.12,77.08,30.12,77.07,30.12 M74.48,30.01c0,0-1.57,0.27-3.33,0.87
		c-0.08,0.03-0.15,0.05-0.23,0.08l0,0c0.08-0.03,0.15-0.05,0.23-0.08C72.92,30.28,74.48,30.01,74.48,30.01l0.05,0.01l0,0
		L74.48,30.01"/>
	<path class="st465" d="M91.11,26.95c-0.28,0-0.56,0.06-0.83,0.2c-1.77,1.03-3.21,2.85-5.13,3.54c0.49-0.14,0.94-0.34,1.33-0.55
		c1.39-0.75,2.11-1.72,2.11-1.72s0,0,0,0c0,0,0,0,0,0s0,0,0,0c0,0,0,0,0,0s-0.73,0.97-2.11,1.72c-0.4,0.21-0.84,0.41-1.33,0.55
		c-0.47,0.17-0.98,0.27-1.52,0.27c-0.06,0-0.13,0-0.19,0c-0.04,0-0.08,0-0.12,0c-0.73,0-1.53-0.12-2.39-0.42
		c-1.14-0.2-2.26-0.37-3.51-0.37c-0.22,0-0.44,0-0.66,0.02c-0.05-0.01-0.12-0.03-0.21-0.04c-0.3,0.02-0.54,0.06-0.67,0.13
		l-1.35-0.25c-1.09,0.39-2.38,0.59-3.61,0.94c-1.17,0.41-2.4,0.98-3.16,1.66c-0.26,0.27-0.49,0.58-0.69,0.93
		c-0.01,0.03-0.02,0.06-0.03,0.08c0,0-0.01,0-0.02,0.01c-0.01,0.02-0.02,0.04-0.03,0.06c-0.62,0.34-1.21,0.59-1.76,0.79
		c-0.62,0.27-1.28,0.54-1.73,0.63c0,0,0,0,0,0c0,0,0,0,0,0c0,0-0.01,0-0.01,0c0,0,0,0-0.01,0c0,0,0,0-0.01,0c0,0,0,0,0,0
		c-0.07,0.01-0.13,0.02-0.18,0.02c0,0-0.01,0-0.01,0c0,0-0.01,0-0.01,0c-1.33,0.45-2.53,0.96-3.77,2.36
		c-0.55,0.65-1.09,1.33-1.63,2.01c-0.08,0.13-0.17,0.27-0.25,0.41c-0.02,0.04-0.05,0.08-0.07,0.12c0.02-0.04,0.05-0.08,0.07-0.12
		l0,0l0,0c-0.02,0.04-0.05,0.08-0.07,0.12c0.02-0.04,0.05-0.08,0.07-0.12l0,0l0,0c-0.02,0.04-0.05,0.08-0.07,0.12
		c0.02-0.04,0.05-0.08,0.07-0.12c0.08-0.14,0.17-0.28,0.25-0.41c-2.25,2.83-4.49,5.77-7.27,7.93c-2,1.54-3.8,2.88-5.99,3.91
		c-0.68,0.43-4.52,0.49-5.76,0.55c-2.2,0.16-3.65,2.64-4.05,4.65c-0.49,3.34-1.21,6.23-2.29,9.33c-0.53,0.99-1.65,1.45-2.37,2.47
		c-0.64,1.34-0.87,2.69-1.01,3.98c-0.14,1.3-0.09,2.62-0.32,3.89c-1.08,3.36-1.33,5.37-1.33,6.57c0,0.38,0.03,0.68,0.06,0.92
		c0.11,0.79,0.34,0.85,0.34,0.93l0,0c0,0.02-0.01,0.03-0.04,0.06c-0.26,0.85-1.73,0.76-2.27,1.81c-0.21,0.55-0.31,1.14-0.31,1.71
		c0,0.94,0.25,1.85,0.66,2.56c0.82,1.68,1.52,3.4,2.06,5.12c0.23,0.79,0.36,1.57,0.36,2.36l0,0c0,0.07,0,0.13,0,0.2
		c0,0.07,0.01,0.15,0.01,0.22c0.06-0.08,0.13-0.16,0.21-0.23c0.46-0.42,1.05-0.76,1.42-1.15c0.8-1.02,0.57-2.47,1.05-3.78
		c0.31-0.51,0.71-0.87,1.27-1.28c0.59-0.39,0.68-1.05,0.68-1.79c0-0.27-0.01-0.55-0.01-0.83l0,0c0-0.04,0-0.08,0-0.13
		c0-0.06-0.01-0.12-0.01-0.18l0,0c0-0.62,0.27-1.18,0.66-1.7c0.42-0.57,0.89-1.13,1.07-1.78c0.15-0.42,0.17-0.88,0.19-1.32
		c0.03-0.44,0.02-0.88,0.03-1.32c0.02-0.86,0.11-1.67,0.75-2.22c-0.08,0.06-0.15,0.08-0.19,0.08c-0.05,0-0.07-0.04-0.07-0.1l0,0
		c0-0.28,0.4-1.08,0.88-1.88c0.59-0.99,1.28-1.98,1.47-1.98c0.03,0,0.05,0.03,0.05,0.08l0,0c0,0.03,0,0.06-0.01,0.1
		c0.05-0.07,0.25-0.11,0.48-0.11c0.2,0,0.42,0.03,0.58,0.09c0.21,0.16,0.6,0.3,0.64,0.46c0.3,1.31,1.73,2.02,2.71,2.94
		c0.07-0.01,0.6-0.68,1.28-1.4c0.34-0.36,0.73-0.73,1.12-1.04c0.41-0.3,0.85-0.51,1.25-0.6c1.33-0.2,2.55-0.25,3.42-0.99
		c0.01-0.03,0.02-0.07,0.02-0.11c0-0.24-0.21-0.59-0.22-0.84l0,0c0-0.04,0.01-0.09,0.02-0.12c0.1-0.14,0.25-0.83,0.44-1.84
		c0.25-0.95,0.56-2.21,0.92-3.52c0.42-1.23,0.9-2.5,1.34-3.49c0.49-0.93,0.93-1.59,1.19-1.67c0.1-0.01,0.21-0.02,0.32-0.02
		c0.68,0,1.54,0.27,1.76,0.8c0.97,1.55,2.29,1.65,3.44,2.72c0.28,0.3,0.39,0.83,0.67,1.13c0.81,0.71,1.85,1.44,2.46,1.44
		c0.04,0,0.09,0,0.13-0.01c0.05,0,0.1,0,0.15,0c0.52,0,1.03-0.05,1.46-0.19c0.48-0.16,0.87-0.44,1.13-0.82
		c0.51-0.25,1.03-0.47,1.55-0.69c0.29-0.58,0.54-1.26,0.8-1.98c0.5-1.16,0.45-1.81,0.89-1.81c0.01,0,0.03,0,0.04,0
		c0.18-0.04-0.19-2.4,0.73-4.05c-0.04-0.03-0.28-0.2-0.74-0.49c-0.25,0.56-0.88,1.9-1.67,3.02c-0.53,0.72-1.09,1.38-1.78,1.67
		c-0.24,0.1-0.5,0.16-0.78,0.16c-0.53,0-1.14-0.19-1.83-0.58c0,0-0.55-0.04-1.4-0.16c-0.87-0.13-2.03-0.31-3.18-0.48
		c-1.17-0.21-2.38-0.51-3.31-1.01c-0.86-0.45-1.47-1.1-1.47-2.08l0,0c0-0.05,0-0.1,0-0.15c0,0,0.06-1,0.36-2.66
		c0.16-0.82,0.35-1.85,0.68-2.93c0.34-1.07,0.77-2.26,1.32-3.51c0.53-1.28,1.28-2.47,2.1-3.75c0.83-1.28,1.8-2.48,2.87-3.58
		c2.14-2.2,4.66-3.97,7.23-4.87c0,0,1.13-0.31,2.68-2.78c0,0,1.26-0.87,2.84-1.44c0.82-0.3,1.71-0.52,2.58-0.52
		c0.81,0,1.59,0.19,2.27,0.7c0,0,1.77,0.52,3.79,0.85c0.93,0.15,1.9,0.26,2.8,0.26c1.05,0,2-0.15,2.62-0.55c0,0,0.67,0.36,1.49,0.53
		c0.25,0.05,0.52,0.09,0.79,0.09c0.27,0,0.54-0.04,0.79-0.12c0.48-0.34,0.75-0.54,0.75-0.54l0,0l0,0l0,0l0,0
		c-0.2,0.27-0.46,0.44-0.75,0.54c-0.27,0.19-0.6,0.42-0.99,0.68c2.42-1.22,4.67-2.32,5.77-2.32c0.22,0,0.39,0.04,0.51,0.14
		c0,0,1.44-0.35,3.13-0.68c1.26-0.24,2.66-0.49,3.71-0.49c0.17,0,0.34,0.01,0.49,0.02c-1.94-0.57-3.86-1.85-5.48-3.23
		C94.92,29.65,92.95,26.95,91.11,26.95"/>
	<path class="st493" d="M57.61,39.94c-0.02,0.04-0.05,0.08-0.07,0.12C57.56,40.02,57.59,39.98,57.61,39.94 M57.86,39.53L57.86,39.53
		c-0.08,0.13-0.17,0.27-0.25,0.41l0,0C57.69,39.8,57.78,39.66,57.86,39.53L57.86,39.53 M63.27,35.16L63.27,35.16c0,0-0.01,0-0.01,0
		l0,0l0,0C63.26,35.17,63.27,35.16,63.27,35.16 M65.22,34.5L65.22,34.5c-0.62,0.27-1.28,0.54-1.73,0.63l0,0
		C63.94,35.04,64.6,34.78,65.22,34.5L65.22,34.5 M67.07,33.55L67.07,33.55c-0.01,0.03-0.02,0.06-0.03,0.08c0,0-0.01,0-0.02,0.01l0,0
		l0,0c0.01-0.01,0.02-0.01,0.02-0.01C67.05,33.61,67.06,33.58,67.07,33.55L67.07,33.55 M70.92,30.96L70.92,30.96
		c-1.17,0.41-2.4,0.98-3.16,1.66l0,0l0,0C68.53,31.93,69.75,31.37,70.92,30.96L70.92,30.96 M80.93,30.53L80.93,30.53
		c0.85,0.3,1.65,0.42,2.39,0.42c0.04,0,0.08,0,0.12,0l0,0l0,0c-0.04,0-0.08,0-0.12,0l0,0C82.58,30.95,81.79,30.82,80.93,30.53
		L80.93,30.53 M74.54,30.02L74.54,30.02l1.35,0.25c0.14-0.07,0.38-0.11,0.67-0.13l0,0l0,0c-0.3,0.02-0.54,0.06-0.67,0.13
		L74.54,30.02 M88.6,28.41C88.6,28.41,88.6,28.41,88.6,28.41c-0.05,0.07-0.77,1-2.11,1.72l0,0c-0.4,0.21-0.84,0.41-1.33,0.55l0,0
		l0,0c0.49-0.14,0.94-0.34,1.33-0.55C87.87,29.38,88.6,28.41,88.6,28.41"/>
	<path class="st465" d="M74.85,29.99c-0.1,0-0.19,0-0.26,0.01c-0.02,0.01-0.04,0.01-0.06,0.02l1.35,0.25
		c0.14-0.07,0.38-0.11,0.67-0.13C76.14,30.06,75.33,29.99,74.85,29.99"/>
	<path class="st465" d="M80.93,30.53c0.85,0.3,1.65,0.42,2.39,0.42c0.04,0,0.08,0,0.12,0c-0.12-0.01-0.25-0.02-0.37-0.03
		C82.32,30.79,81.62,30.65,80.93,30.53"/>
	<path class="st465" d="M70.92,30.96c-1.19,0.33-2.32,0.79-3.16,1.66C68.53,31.93,69.75,31.37,70.92,30.96"/>
	<path class="st465" d="M117.41,32.02c-0.66,0-1.29,0.06-1.94,0.15c-1.14,0.15-2.3,0.38-3.52,0.45c-2.31,0.2-3.64,1.13-5.86,1.87
		c-0.61,0.22-1.24,0.32-1.88,0.32c-0.49,0-0.99-0.06-1.49-0.17c0.28,0.15,1,0.52,1.9,0.78c0.48-0.28,0.97-0.56,1.45-0.85
		c2.24-0.75,3.57-1.67,5.89-1.87c1.23-0.07,2.4-0.29,3.54-0.44c0.64-0.09,1.28-0.15,1.94-0.15c0.52,0,1.06,0.04,1.63,0.13
		c0.22,0.03,0.42,0.28,0.56,0.62c-0.15-0.39-0.36-0.7-0.61-0.73C118.46,32.06,117.93,32.02,117.41,32.02"/>
	<path class="st465" d="M67.07,33.55c-0.02,0.03-0.03,0.06-0.05,0.1c0.01-0.01,0.02-0.01,0.02-0.01
		C67.05,33.61,67.06,33.58,67.07,33.55"/>
	<path class="st465" d="M72.23,43.14c-0.74,0.11-1.66,0.33-2.68,0.77c-0.35,0.15-0.71,0.32-1.07,0.53c0.33-0.11,0.72-0.24,1.14-0.39
		C70.47,43.76,71.42,43.43,72.23,43.14 M65.22,34.5c-0.7,0.26-1.34,0.45-1.96,0.66c0,0,0.01,0,0.01,0c0,0,0.01,0,0.01,0
		c0.05,0,0.11-0.01,0.18-0.02c0,0,0,0,0,0c0,0,0,0,0.01,0c0,0,0,0,0.01,0c0,0,0.01,0,0.01,0c0,0,0,0,0,0c0,0,0,0,0,0
		C63.94,35.04,64.6,34.78,65.22,34.5"/>
	<path class="st465" d="M62.94,50.31c-0.51,0.99-0.96,2.1-1.32,3.34c0,0,0.02,0.18,0.07,0.47c0.02-0.07,0.04-0.14,0.06-0.21
		C62.03,52.71,62.44,51.47,62.94,50.31"/>
	<path class="st465" d="M74.74,50.67c-0.63,0.35-1.24,0.73-1.83,1.15c-1.53,1.08-2.85,2.39-3.82,3.95
		C70.87,54.03,72.79,52.34,74.74,50.67"/>
	<path class="st465" d="M66.66,60.41c-0.07,0.07-0.13,0.14-0.2,0.21c0.26,0.07,0.54,0.12,0.83,0.14
		C67.1,60.65,66.89,60.53,66.66,60.41"/>
	<path class="st465" d="M28.11,100.38c-0.06,0.22-0.13,0.43-0.22,0.65c0.07-0.05,0.15-0.09,0.23-0.13c0-0.02,0-0.03,0-0.05l0,0
		c0-0.04,0-0.07,0-0.11C28.12,100.62,28.12,100.5,28.11,100.38"/>
	<path class="st466" d="M119.64,32.87c0.11,0.31,0.18,0.68,0.18,1.01l0,0c0,0.15-0.01,0.3-0.04,0.42c-0.3,1.37-1.23,2.44-2.32,3.25
		c-1.12,0.82-2.35,1.4-3.6,2.11c-0.31,0.36-1.07,0.79-1.21,1.16c-0.13,0.38-0.46,0.69-0.8,0.99l-0.52,0.32l-0.46,0.26
		c-0.31,0.16-0.61,0.33-0.91,0.49c-0.61,0.3-1.21,0.58-1.82,0.83c-1.22,0.5-2.47,0.88-3.79,1.2c-2.63,1.04-4.36,2.11-7.06,2.97
		c-2.58,0.67-4.41,2-7.13,2c-0.03,0-0.05,0-0.08,0c-3.57,0.22-5.62,1.02-9.5,3.44c-1.01,0.64-3.03,1.64-4.92,2.72
		c-1.9,1.07-3.66,2.24-4.37,3.14c-0.66,1.16-2.05,1.24-2.75,2.3c-0.01,0.02-0.03,0.05-0.04,0.07c0,0,0,0,0,0
		c0.7-1.06,2.08-1.14,2.74-2.3c0.71-0.9,2.46-2.07,4.36-3.14c1.89-1.08,3.91-2.08,4.92-2.72c3.88-2.42,5.93-3.22,9.5-3.44
		c0.03,0,0.06,0,0.09,0c2.72,0,4.55-1.33,7.13-2c2.7-0.86,4.43-1.93,7.07-2.96c1.32-0.32,2.57-0.7,3.79-1.2
		c0.61-0.24,1.21-0.53,1.82-0.83c0.3-0.16,0.6-0.32,0.91-0.49l0.46-0.26l0.52-0.32c0.33-0.3,0.66-0.62,0.8-0.99
		c0.14-0.37,0.9-0.8,1.21-1.15c1.25-0.71,2.49-1.28,3.62-2.1c1.11-0.81,2.04-1.87,2.35-3.25c0.04-0.14,0.05-0.29,0.05-0.46
		C119.85,33.6,119.77,33.2,119.64,32.87"/>
	<path class="st467" d="M117.44,32.12c-0.66,0-1.3,0.06-1.94,0.15c-1.15,0.15-2.32,0.37-3.54,0.44c-2.31,0.19-3.65,1.12-5.89,1.87
		c-0.48,0.29-0.96,0.57-1.45,0.85c0.06,0.02,0.12,0.03,0.18,0.05c0.51,0.14,1.08,0.23,1.65,0.23c0.81,0,1.6-0.19,2.16-0.71
		c0,0,2.17-0.22,4.02-0.72c0.75-0.19,1.43-0.38,1.9-0.38c0.1,0,0.19,0.01,0.27,0.03c0.24,0.06,0.4,0.23,0.4,0.55l0,0
		c0,0.28-0.13,0.66-0.44,1.17c0,0-0.29,0.71-0.81,1.53c-0.5,0.81-1.28,1.76-1.85,2.29c0,0-0.3,0.18-0.82,0.46
		c-0.26,0.14-0.58,0.3-0.94,0.48c-0.34,0.16-0.72,0.33-1.15,0.53c-1.68,0.76-3.95,1.71-6.31,2.53c-4.01,1.43-8.23,2.39-9.82,2.39
		c-0.27,0-0.47-0.03-0.57-0.09c0,0-1.31,0.17-3.34,0.53c-2.03,0.37-4.77,0.88-7.68,1.71c-2.24,0.64-4.6,1.49-6.73,2.69
		c-1.96,1.67-3.88,3.36-5.65,5.1c-0.66,1.06-1.16,2.24-1.43,3.53c0,0-0.41,0.48-1.01,1.1c0.23,0.13,0.44,0.25,0.63,0.36
		c0.17,0.02,0.35,0.02,0.53,0.02c0.02,0,0.04,0,0.06,0l0,0l0,0l0,0l0,0l0,0l0,0l0,0l0,0l0,0l0,0c0,0-0.04,0.1-0.12,0.27
		c0.46,0.29,0.7,0.46,0.74,0.49c0.01-0.02,0.03-0.05,0.04-0.07c0.7-1.06,2.09-1.14,2.75-2.3c0.71-0.9,2.47-2.07,4.37-3.14
		c1.89-1.08,3.91-2.08,4.92-2.72c3.88-2.42,5.93-3.22,9.5-3.44c0.03,0,0.05,0,0.08,0c2.72,0,4.55-1.33,7.13-2
		c2.7-0.86,4.43-1.93,7.06-2.97c1.33-0.32,2.57-0.7,3.79-1.2c0.61-0.24,1.21-0.53,1.82-0.83c0.3-0.16,0.6-0.32,0.91-0.49l0.46-0.26
		l0.52-0.32c0.33-0.31,0.66-0.62,0.8-0.99c0.14-0.37,0.9-0.8,1.21-1.16c1.24-0.71,2.48-1.28,3.6-2.11c1.1-0.81,2.02-1.88,2.32-3.25
		c0.03-0.13,0.04-0.27,0.04-0.42c0-0.33-0.07-0.7-0.18-1.01c-0.14-0.34-0.34-0.6-0.56-0.62C118.5,32.16,117.96,32.12,117.44,32.12"
		/>
	<path class="st468" d="M114.53,33.9c-0.47,0-1.15,0.19-1.9,0.38c-1.84,0.5-4.02,0.72-4.02,0.72c-0.56,0.52-1.36,0.71-2.16,0.71
		c-0.57,0-1.14-0.09-1.65-0.23c-0.06-0.02-0.12-0.03-0.18-0.05c-0.9-0.26-1.62-0.63-1.9-0.78c-0.08-0.04-0.13-0.07-0.13-0.07
		c-0.13-0.03-0.27-0.06-0.43-0.07c-0.15-0.01-0.32-0.02-0.49-0.02c-1.05,0-2.45,0.25-3.71,0.49c-1.69,0.33-3.13,0.68-3.13,0.68
		c-0.12-0.09-0.29-0.14-0.51-0.14c-1.1,0-3.34,1.1-5.77,2.32c-1.24,0.83-3.03,1.95-5,2.91c-2.89,1.43-6.18,2.64-8.1,2.64
		c-0.54,0-0.97-0.1-1.25-0.31c0,0-0.26-0.04-0.73-0.04c-0.32,0-0.75,0.02-1.25,0.09c-0.81,0.3-1.77,0.62-2.61,0.91
		c-0.42,0.14-0.82,0.28-1.14,0.39c-1.05,0.58-2.16,1.41-3.23,2.56c-0.83,0.89-1.63,1.99-2.32,3.32c-0.5,1.16-0.9,2.39-1.2,3.6
		c-0.02,0.07-0.04,0.14-0.06,0.21c0.11,0.67,0.39,1.94,1.03,3.18c0.75,1.45,1.91,2.84,3.73,3.31c0.07-0.07,0.14-0.14,0.2-0.21
		c0.59-0.63,1.01-1.1,1.01-1.1c0.28-1.29,0.77-2.47,1.43-3.53c0.97-1.56,2.29-2.87,3.82-3.95c0.58-0.42,1.2-0.8,1.83-1.15
		c2.14-1.19,4.49-2.04,6.73-2.69c2.91-0.83,5.65-1.34,7.68-1.71c2.03-0.36,3.34-0.53,3.34-0.53c0.1,0.06,0.3,0.09,0.57,0.09
		c1.59,0,5.81-0.96,9.82-2.39c2.35-0.82,4.63-1.77,6.31-2.53c0.42-0.19,0.8-0.37,1.15-0.53c0.37-0.18,0.68-0.34,0.94-0.48
		c0.52-0.27,0.82-0.46,0.82-0.46c0.57-0.53,1.35-1.47,1.85-2.29c0.52-0.81,0.81-1.53,0.81-1.53c0.32-0.51,0.44-0.89,0.44-1.17
		c0-0.32-0.16-0.49-0.4-0.55C114.72,33.91,114.63,33.9,114.53,33.9"/>
	<path class="st469" d="M75.01,35.4c-0.87,0-1.76,0.22-2.58,0.52c-1.58,0.58-2.84,1.44-2.84,1.44c-1.56,2.47-2.68,2.78-2.68,2.78
		c-2.57,0.9-5.09,2.66-7.23,4.87c-1.07,1.1-2.04,2.3-2.87,3.58c-0.82,1.28-1.57,2.46-2.1,3.75c-0.55,1.26-0.98,2.44-1.32,3.51
		c-0.34,1.07-0.53,2.11-0.68,2.93c-0.3,1.66-0.36,2.66-0.36,2.66c0,0.05,0,0.1,0,0.15c0,0.97,0.61,1.63,1.47,2.08
		c0.92,0.5,2.14,0.8,3.31,1.01c1.15,0.17,2.31,0.35,3.18,0.48c0.85,0.11,1.4,0.16,1.4,0.16c0.69,0.39,1.3,0.58,1.83,0.58
		c0.28,0,0.54-0.05,0.78-0.16c0.69-0.29,1.25-0.95,1.78-1.67c1.03-1.45,1.78-3.29,1.78-3.29c-0.02,0-0.04,0-0.06,0
		c-0.18,0-0.36-0.01-0.53-0.02c-0.29-0.03-0.57-0.08-0.83-0.14c-1.82-0.47-2.98-1.86-3.73-3.31c-0.64-1.24-0.92-2.51-1.03-3.18
		c-0.05-0.3-0.07-0.47-0.07-0.47l0,0l0,0l0,0l0,0c0.36-1.25,0.81-2.36,1.32-3.34c0.69-1.33,1.49-2.43,2.32-3.32
		c1.07-1.15,2.18-1.98,3.23-2.56c0.37-0.2,0.73-0.38,1.07-0.53c1.02-0.43,1.93-0.66,2.68-0.77c0.5-0.07,0.92-0.09,1.25-0.09
		c0.46,0,0.73,0.04,0.73,0.04c0.28,0.21,0.71,0.31,1.25,0.31c1.91,0,5.21-1.21,8.1-2.64c1.97-0.97,3.76-2.08,5-2.91
		c0.39-0.26,0.72-0.49,0.99-0.68c-0.25,0.09-0.51,0.12-0.79,0.12c-0.27,0-0.53-0.03-0.79-0.09c-0.82-0.16-1.49-0.53-1.49-0.53
		c-0.62,0.4-1.56,0.55-2.62,0.55c-0.9,0-1.87-0.11-2.8-0.26c-2.02-0.33-3.79-0.85-3.79-0.85C76.6,35.6,75.82,35.4,75.01,35.4"/>
	<path class="st469" d="M90.3,36.62c0,0-0.27,0.21-0.75,0.54C89.84,37.06,90.1,36.89,90.3,36.62"/>
	<path class="st470" d="M53.29,65c-0.11,0-0.22,0.01-0.32,0.02c-0.26,0.08-0.7,0.74-1.19,1.67c-0.44,0.99-0.92,2.26-1.34,3.49
		c-0.36,1.3-0.67,2.56-0.92,3.52c-0.19,1.01-0.34,1.7-0.44,1.84c-0.02,0.04-0.02,0.08-0.02,0.12c0,0.25,0.22,0.6,0.22,0.84l0,0
		c0,0.04-0.01,0.08-0.02,0.11c-0.87,0.74-2.1,0.79-3.42,0.99c-0.4,0.09-0.85,0.3-1.25,0.6c-0.39,0.31-0.78,0.68-1.12,1.04
		c-0.68,0.72-1.22,1.39-1.28,1.4c-0.98-0.92-2.41-1.63-2.71-2.94c-0.04-0.16-0.43-0.31-0.64-0.46c-0.16-0.06-0.38-0.09-0.58-0.09
		c-0.23,0-0.43,0.04-0.48,0.11l0,0l0,0l0,0l0,0c0.01-0.04,0.01-0.08,0.01-0.1c0-0.06-0.02-0.08-0.05-0.08
		c-0.18,0-0.88,0.99-1.47,1.98c-0.47,0.8-0.88,1.6-0.88,1.88c0,0.07,0.02,0.1,0.07,0.1c0.04,0,0.1-0.03,0.19-0.08l0,0l0,0l0,0l0,0
		c-0.64,0.55-0.73,1.36-0.75,2.22c-0.01,0.43,0,0.88-0.03,1.32c-0.02,0.45-0.05,0.9-0.19,1.32c-0.18,0.65-0.65,1.21-1.07,1.78
		c-0.4,0.52-0.66,1.08-0.66,1.7c0,0.06,0,0.12,0.01,0.18l0,0l0,0l0,0l0,0c0,0.04,0,0.08,0,0.13c0,0.28,0.01,0.56,0.01,0.83l0,0
		c0,0.74-0.08,1.41-0.68,1.79c-0.56,0.41-0.96,0.77-1.27,1.28c-0.48,1.31-0.25,2.77-1.05,3.78c-0.37,0.4-0.96,0.73-1.42,1.15
		c-0.32,0.32-0.56,0.69-0.56,1.15c0,0.15,0.02,0.31,0.08,0.48c0.07,0.19,0.08,0.43,0.08,0.67l0,0c0,0.04,0,0.08,0,0.11
		c0,0.33,0.01,0.62,0.22,0.71l0,0l0,0l0,0c0.19-0.34,0.59-0.61,0.84-1.05c0.6-0.79,0.61-1.8,1.35-2.44
		c0.64-0.74,1.41-1.27,1.97-2.04c0.16-0.27,0.29-0.52,0.4-0.77c0.13-0.25,0.24-0.51,0.33-0.78c0.48-0.97,0.84-1.93,1.21-2.88
		c0.39-0.95,0.71-1.9,0.93-2.9c-0.15-0.24-0.2-0.47-0.2-0.69l0,0c0-0.79,0.73-1.53,0.99-2.2c0.14-0.26,0.41-0.44,0.69-0.71
		c0.45-0.74,0.44-1.74,1.31-1.98c0.94-0.2,1.86-0.4,2.76-0.59c0.89-0.21,1.74-0.44,2.55-0.73c0.62-0.26,2.12-0.95,3.44-1.66
		c1.36-0.69,2.71-1.29,3.14-1.63c0.64-0.4,1.1-0.91,1.48-1.48c0.39-0.57,0.76-1.16,1.36-1.53c0,0,0,0,0.01,0
		c0.03,0,0.09,0.1,0.14,0.28c0.11-0.12,0.21-0.23,0.31-0.35c0-0.01,0-0.03,0-0.04l0,0c0-0.16,0.08-0.48,0.08-0.64
		c0-0.01,0-0.03,0-0.04l0,0l0,0l0,0l0,0c0.29-0.22,0.59-0.28,1.04-0.3c0.5,0.09,0.98,0.13,1.45,0.13c0.34,0,0.67-0.02,1-0.07
		c0.76-0.11,1.47-0.31,2.22-0.45c0.74-0.15,1.43-0.35,2.15-0.42c0.18-0.01,0.37-0.02,0.55-0.02c0.54,0,1.08,0.05,1.61,0.2
		c0.25,0.01,0.56,0.05,0.86,0.05c0.35,0,0.69-0.05,0.92-0.27c0.3-0.36,0.84-0.57,1.03-1.02c0.27-0.98,0.36-2.35,0.61-3.52
		c-0.27,0.13-0.55,0.25-0.83,0.36c-0.52,0.22-1.04,0.43-1.55,0.69c-0.27,0.38-0.66,0.65-1.13,0.82c-0.44,0.14-0.94,0.19-1.46,0.19
		c-0.05,0-0.1,0-0.15,0c-0.04,0.01-0.08,0.01-0.13,0.01c-0.61,0-1.65-0.73-2.46-1.44c-0.28-0.3-0.39-0.83-0.67-1.13
		c-1.15-1.07-2.47-1.16-3.44-2.72C54.83,65.27,53.97,65,53.29,65"/>
	<path class="st464" d="M77.07,30.12c-0.18,0-0.35,0-0.51,0.02l0,0C76.71,30.12,76.89,30.12,77.07,30.12c0.01,0,0.03,0,0.04,0
		c0.46,0,0.99,0.03,1.48,0.07l0,0c0.01,0,0.02,0,0.03,0c0.54,0.05,1.05,0.1,1.41,0.15l0,0l0,0c0.37,0.05,0.62,0.08,0.62,0.08l0,0
		l0,0c0.1,0.04,0.19,0.07,0.29,0.11l0,0c-0.1-0.03-0.19-0.07-0.29-0.11c0,0-0.24-0.03-0.62-0.08c-0.37-0.04-0.89-0.1-1.43-0.15
		C78.09,30.15,77.54,30.12,77.07,30.12 M74.48,30.01c0,0-1.57,0.27-3.33,0.87c-0.08,0.03-0.15,0.05-0.23,0.08l0,0
		c0.08-0.03,0.15-0.05,0.23-0.08C72.92,30.28,74.48,30.01,74.48,30.01l0.05,0.01l0,0L74.48,30.01"/>
	<path class="st471" d="M65.34,34.45c-0.04,0.02-0.07,0.03-0.11,0.05c-0.62,0.27-1.28,0.54-1.73,0.63c0.44-0.09,1.1-0.36,1.73-0.63
		C65.26,34.49,65.3,34.47,65.34,34.45 M80.64,30.42c0.1,0.04,0.19,0.07,0.29,0.11c0.85,0.3,1.65,0.42,2.39,0.42
		c-0.73,0-1.53-0.12-2.39-0.42C80.84,30.49,80.74,30.46,80.64,30.42 M80.03,30.34c0.37,0.05,0.62,0.08,0.62,0.08
		S80.4,30.39,80.03,30.34 M78.62,30.19c0.54,0.05,1.05,0.1,1.41,0.15C79.67,30.3,79.16,30.24,78.62,30.19 M77.11,30.12
		c0.46,0,0.99,0.03,1.48,0.07C78.1,30.15,77.58,30.12,77.11,30.12"/>
	<path class="st494" d="M88.6,28.41c0,0-0.73,0.97-2.11,1.72c-0.4,0.21-0.84,0.41-1.33,0.55l0,0c0.49-0.14,0.94-0.34,1.33-0.55l0,0
		C87.83,29.41,88.55,28.48,88.6,28.41C88.6,28.41,88.6,28.41,88.6,28.41"/>
	<path class="st471" d="M88.6,28.41c-0.05,0.06-0.77,1-2.11,1.72C87.83,29.41,88.55,28.48,88.6,28.41"/>
	<path class="st471" d="M63.47,35.14c-0.07,0.01-0.13,0.02-0.18,0.02C63.34,35.16,63.4,35.15,63.47,35.14"/>
	<polyline class="st471" points="63.28,35.16 63.27,35.16 63.28,35.16 	"/>
	<path class="st471" d="M63.27,35.16c-0.02,0-0.03,0-0.05,0c0.01,0,0.02,0,0.04,0C63.26,35.17,63.27,35.16,63.27,35.16"/>
	<path class="st471" d="M61.28,35.98c-0.97,0.62-2.27,1.72-3.42,3.54c-0.08,0.13-0.17,0.27-0.25,0.41c0.08-0.14,0.17-0.28,0.25-0.41
		C59.01,37.7,60.31,36.6,61.28,35.98"/>
	<path class="st472" d="M52.9,75.49C52.9,75.49,52.89,75.49,52.9,75.49c-0.61,0.37-0.98,0.96-1.36,1.53
		c-0.38,0.57-0.84,1.09-1.48,1.48c-0.43,0.34-1.78,0.94-3.14,1.63c-1.31,0.71-2.82,1.4-3.44,1.66c-0.81,0.29-1.66,0.52-2.55,0.73
		c-0.9,0.19-1.82,0.39-2.76,0.59c-0.87,0.25-0.86,1.25-1.31,1.98c-0.28,0.26-0.55,0.45-0.69,0.71c-0.27,0.67-0.99,1.41-0.99,2.2
		c0,0.23,0.06,0.46,0.2,0.69l0,0l0,0l0,0l0,0c-0.23,0.99-0.54,1.95-0.93,2.9c-0.37,0.95-0.72,1.91-1.21,2.88
		c-0.09,0.28-0.2,0.53-0.33,0.78c-0.11,0.25-0.24,0.51-0.4,0.77c-0.56,0.77-1.33,1.3-1.97,2.04c-0.74,0.65-0.75,1.66-1.35,2.44
		c-0.25,0.44-0.65,0.71-0.84,1.05c0.02,0.07,0.03,0.16,0.03,0.26l0,0c0,0.08,0,0.17,0,0.25c0,0.16,0.02,0.28,0.13,0.28
		c0.01,0,0.02,0,0.04,0c0.02,0,0.03,0,0.05,0c0.33,0,0.64-0.34,0.93-0.53c1.08-1.14,2.31-2.03,3.21-3.05
		c1.15-1.21,2.08-2.41,2.96-3.61c0.93-1.19,1.55-2.43,2.18-3.72c0.05-0.12,0.07-0.24,0.07-0.37c0-0.39-0.2-0.81-0.25-1.22
		c-0.02-0.1-0.02-0.2-0.02-0.3l0,0c0-0.9,0.61-1.73,0.61-2.72c0-0.28-0.05-0.57-0.18-0.88c-0.02-0.04-0.03-0.09-0.03-0.13l0,0
		c0-0.17,0.13-0.34,0.28-0.45c1.26-0.54,2.43-1.01,3.57-1.46c1.2-0.41,2.35-0.8,3.5-1.17c0.73-0.23,2.13-0.89,3.3-1.55
		c1.22-0.64,2.38-1.2,2.72-1.44c1.32-1.03,1.71-2.05,1.74-2.91c0.01-0.1,0.01-0.19,0.01-0.28C53.16,75.94,52.95,75.49,52.9,75.49"/>
</g>
<g>
	<path d="M109.74,33.03c-0.83,0-1.6-0.04-2.37,0.01c-0.75,0.04-1.59-0.01-2.24,0.3c-1.44,0.68-2.6,0.59-3.85-0.46
		c-1.01-0.85-2.17-0.91-3.15,0.27c-1.05,1.26-2.38,1.77-4.05,1.52c-0.53-0.08-1.44,0.12-1.63,0.48c-0.91,1.78-2.84,1.28-4.08,2.16
		c-2.59-2.97-3.83-6.99-7.87-8.17c0.69-4.35,0.98-4.59,4.5-5.47c1.01-0.25,2.07-0.84,2.79-1.59c0.84-0.87,1.58-1.13,2.66-0.69
		c1.4,0.56,2.62,0.07,4.03-0.35c2.32-0.7,4.83-0.81,7.28-1.01c0.6-0.05,1.24,0.59,1.89,0.81c0.74,0.25,1.67,0.75,2.26,0.51
		c1.87-0.77,2.99,0.29,4.4,1.15c1.38,0.85,3.02,1.27,4.57,1.82c2.78,0.99,5.04,2.38,5.58,5.67c0.18,1.1,0.93,2.18,1.65,3.09
		c1.37,1.72,2.6,3.22,1.07,5.64c-0.61,0.96-0.4,2.57-0.27,3.86c0.29,2.87-0.72,4.51-3.98,5.99c-1,0.45-2.14,0.75-2.96,1.42
		c-1.77,1.45-3.79,1.45-5.77,1.15c-1.79-0.27-3.11,0.25-4.47,1.28c-1.28,0.96-2.7,1.74-4.1,2.52c-0.49,0.27-1.14,0.47-1.68,0.41
		c-1.43-0.14-2.79,0.51-4.02,0.57c-2.54,0.11-4.58,1.28-6.83,1.98c-0.52,0.16-1.18,0.05-1.74-0.11c-2.52-0.7-5.03-1.43-7.53-2.2
		c-1.17-0.36-2.21-0.24-3.08,0.64c-0.75,0.77-1.54,1.15-2.69,0.97c-1.69-0.26-2.97,0.63-3.77,2.02c-0.51,0.89-1.07,1.46-2.08,1.45
		c-3.59-0.02-6.01,2.42-8.63,4.29c-1.13,0.81-2.06,1.76-3.48,2.23c-1.1,0.36-2.22,1.16-2.92,2.09c-0.91,1.2-2,1.54-3.52,1.52
		c-0.32,1.52-0.66,2.98-2.48,3.38c-0.96,0.21-1.43,0.79-1.07,2.03c0.19,0.66-0.71,1.57-0.8,2.4c-0.18,1.58-0.42,3.24-0.11,4.76
		c0.33,1.63-0.23,3.31,0.14,4.68c0.62,2.36,2.04,4.51,2.08,7.08c2.28,1.25,1.79,4.09,3.3,5.8c0.66,0.74,1.24,1.63,1.59,2.55
		c0.52,1.4,1.47,2.13,2.85,2.43c0.2,0.04,0.46,0.01,0.58,0.13c2.07,2.05,4.86,3.18,6.93,5.05c2.03,1.83,4.3,3.27,6.45,4.85
		c1.28,0.94,1.68,1.73,1.13,2.91c-1.1,2.35-2.17,4.71-4.69,6.08c-2.88,1.56-5.25,3.73-6.34,6.89c-2.27,0.89-3.86-0.5-5.29-1.6
		c-1.01-0.77-1.85-1.33-3.14-1.49c-2.25-0.29-4.16-1.18-5.33-3.4c-0.57-1.08-1.7-1.87-2.57-2.8c-0.27-0.29-0.71-0.61-0.7-0.92
		c0.01-2.12-1.73-2.8-3.03-3.86c-0.53-0.43-1.07-0.9-1.46-1.45c-1.42-2.04-2.65-4.23-4.19-6.16c-1.72-2.16-3.69-4.13-5.57-6.16
		c-1.41-1.53-2.41-4.52-2.45-7.62c-0.4-0.35-0.83-0.77-1.3-1.14c-1.07-0.83-1.14-1.75-0.49-2.92c0.42-0.76,0.9-1.68,0.83-2.48
		c-0.15-1.78-0.22-3.41,1.16-4.81c0.25-0.25,0.07-0.9,0.16-1.35c0.16-0.77,0.13-1.76,0.61-2.25c1.5-1.54,1.69-3.49,2.16-5.4
		c0.21-0.85,0.46-1.98,1.08-2.38c2.95-1.92,3.96-5.46,6.58-7.64c0.53-0.44,0.87-1.36,0.93-2.09c0.18-2.3,1.29-3.58,3.5-4.28
		c0.92-0.29,1.61-1.37,2.35-2.14c1.2-1.26,3.07-1.95,3.32-4.03c0.04-0.31,0.49-0.71,0.83-0.82c1.45-0.46,2.24-1.57,3.03-2.76
		c0.3-0.46,0.98-1.01,1.43-0.96c1.95,0.2,3.01-1.24,4.04-2.31c1.44-1.49,2.81-2.46,4.97-2.21c0.86,0.1,1.85-0.17,2.65-0.54
		c2.55-1.17,5.11-1.05,7.84-0.37c1.4-0.99,2.84-2.18,4.77-0.69c0.44,0.34,1.45,0.27,2.04,0.02c1.51-0.63,2.93-1.5,4.32,0.17
		c0.05,0.06,0.21,0.11,0.25,0.08c1.97-1.81,3.94-0.6,5.95-0.07c0.54,0.14,1.23-0.02,1.77-0.24c1.64-0.67,3.25-1.01,4.96-0.24
		c0.34,0.15,0.97,0.25,1.16,0.06c1.52-1.49,3.51-1.27,5.35-1.7c0.94-0.22,1.7-1.21,2.53-1.87c0.16-0.12,0.25-0.35,0.42-0.43
		C107.26,37.5,108.74,35.45,109.74,33.03z M32.87,107.45c1.61-2.79,2.07-3.93,1.52-5.16c-1.41-3.17-0.61-6.12,0.6-9.08
		c0.3-0.74,0.84-1.49,0.82-2.22c-0.1-3.15,1.73-5.69,2.62-8.51c0.34-1.07,1.3-2.18,2.28-2.74c1.75-0.99,2.33-2.6,3.23-4.18
		c0.9-1.58,2.31-2.86,3.49-4.28c0.05-0.07-0.01-0.23,0.05-0.29c0.36-0.43,0.66-0.97,1.11-1.25c3.92-2.4,8.28-4.14,11.48-7.63
		c0.19-0.21,0.49-0.38,0.77-0.45c2.32-0.61,3.97-2.86,6.64-2.64c0.27,0.02,0.57-0.48,0.86-0.72c1.82-1.5,3.36-3.55,6.21-2.95
		c0.29,0.06,0.71-0.3,1.03-0.53c1.54-1.1,3.21-1.11,4.93-0.61c1.84,0.53,3.65,1.21,5.51,1.64c1.34,0.31,2.79,0.76,4.04-0.38
		c1.2-1.11,2.61-1.26,4.21-1.26c2.06,0,4.02-1.27,6.21-0.63c0.35,0.1,0.9-0.39,1.33-0.65c1.6-0.98,3.12-2.14,4.82-2.91
		c1.01-0.46,2.44-0.75,3.43-0.4c2.29,0.8,3.88-0.43,5.61-1.37c0.6-0.33,1.03-1.02,1.65-1.23c3.31-1.17,3.66-1.64,3.73-5.1
		c0.03-1.68-0.26-3.36,0.76-4.99c0.56-0.89,0.41-2.04-0.83-2.85c-1.39-0.91-2.1-2.36-2.27-4.09c-0.22-2.21-1.77-3.11-4.1-3.73
		c0.32,1.55,0.56,2.77,0.68,3.34c-0.77,1.94-1.33,3.35-1.93,4.88c-0.77,0.07-1.66,0.15-2.73,0.25c-0.4,1.25-0.8,2.48-1.22,3.78
		c-1.79,0.33-3.61,0.65-4.25,2.79c-0.08,0.27-0.62,0.51-0.98,0.57c-3.58,0.55-6.83,2.83-10.67,2.05c-0.46-0.09-1.04,0.01-1.47,0.22
		c-2.35,1.15-4.61,0.95-6.79-0.38c-0.71,0.41-1.33,1.08-1.93,1.06c-2.41-0.08-4.81-0.64-7.22-0.03c-1.39-1.32-2.72-0.87-4.11,0.06
		c-0.38,0.25-1.03,0.37-1.45,0.23c-2.67-0.91-5.11,0.03-7.49,0.96c-1.56,0.61-3.21,0.32-4.66,0.71c-1.41,0.38-2.39,2.3-3.81,2.74
		c-2.45,0.76-3.56,3.13-5.75,4.08c-0.42,0.18-0.78,0.67-1.01,1.11c-1.51,2.94-3.79,5.11-6.71,6.58c-1.21,0.61-2.02,1.46-1.91,2.79
		c0.13,1.51-0.56,2.56-1.6,3.39c-2.41,1.93-3.26,5.16-5.89,6.92c-0.59,0.4-1.01,1.27-1.2,2.01c-0.55,2.09-0.5,4.4-2.39,5.98
		c-0.22,0.18-0.06,0.77-0.16,1.15c-0.29,1.03-0.64,2.04-0.95,3.07c-0.17,0.54-0.56,1.17-0.42,1.63c0.64,2.07-0.31,3.68-1.39,5.39
		c0.75,0.65,1.49,1.29,2.33,2C26.5,100.68,30.49,103.46,32.87,107.45z M43.26,80.32c-2.71,1.06-3.18,2.22-4.05,4.9
		c-0.81,2.51-2.53,4.82-2.03,7.71c0.07,0.41-0.34,0.93-0.59,1.36c-1.04,1.82-1.31,3.7-0.84,5.77c0.5,2.18,0.75,4.43-0.31,6.54
		c-0.86,1.72-0.55,3.15,0.89,4.32c2.48,2.02,3.02,5.71,6.21,7.15c0.42,0.19,0.46,1.1,0.82,1.56c1.86,2.32,3.75,4.61,5.67,6.88
		c0.22,0.26,0.74,0.39,1.11,0.39c2.23-0.01,3.99,0.76,5.61,2.38c1.29,1.29,1.84,0.87,3.13-0.58c1.32-1.49,2.72-3.13,4.45-3.97
		c3-1.47,4.21-4.1,5.63-6.67c-2.43-2.5-5.84-3.48-7.88-6.22c-0.2-0.27-0.71-0.43-1.08-0.43c-1.4,0-2.09-0.98-2.96-1.83
		c-0.98-0.96-2.19-1.7-3.29-2.53c-0.93-0.7-2.13-1.22-2.72-2.13c-1.43-2.24-3.27-4.3-3.66-7.1c-0.05-0.33-0.37-0.78-0.67-0.9
		c-1.44-0.57-1.38-1.78-1.51-3.01c-0.12-1.05-0.36-2.17-0.9-3.05c-0.75-1.24-1.84-2.48-0.9-3.84c1.17-1.68-1.5-2.66-0.45-4.16
		c0.22-0.32,0.37-0.73,0.42-1.12C43.42,81.33,43.31,80.92,43.26,80.32z M103.95,31.99c0.5-0.38,1.2-0.91,1.88-1.43
		c1.73,0.68,1.93,0.7,4.9,0.37c1.79-0.2,2.52-1,2.27-2.66c-0.24-1.59-0.49-3.22-2.54-3.61c-0.47-0.09-0.89-0.44-1.32-0.7
		c-2.5-1.51-5.51-1.11-8.13-2.15c-0.15-0.06-0.43,0.03-0.57,0.15c-0.96,0.76-1.87,0.72-3.02,0.24c-0.59-0.24-1.51,0.3-2.28,0.53
		c-0.66,0.19-1.32,0.65-1.96,0.62c-1.99-0.1-4.03-0.69-5.44,1.48c-0.18,0.28-0.94,0.2-1.44,0.26c-0.78,0.09-1.57,0.17-2.58,0.27
		c0.07,0.92-0.15,1.9,0.24,2.41c1.86,2.4,2.76,5.5,5.45,7.52c1.25-1.61,2.85-2.11,4.8-2.04c0.87,0.03,1.95-0.49,2.6-1.11
		c1.01-0.96,2.1-1.18,3.33-0.98C101.36,31.32,102.52,31.66,103.95,31.99z"/>
	<path d="M107.98,42.27c1.11,1.71,1.9,2.93,2.76,4.26C108.49,46.6,107.5,45.23,107.98,42.27z"/>
	<path d="M35.14,78.61c-0.42-1.39-0.85-2.79-1.42-4.68C36.6,76.53,36.68,76.89,35.14,78.61z"/>
	<path d="M30.03,91.57c0-1.29,0-2.42,0-3.58C32.13,88.36,32.13,88.36,30.03,91.57z"/>
	<path d="M87.03,51.86c-0.82-0.58-1.63-1.16-2.78-1.98c2.57-1.21,2.36,0.83,3.31,1.22C87.38,51.36,87.21,51.61,87.03,51.86z"/>
	<path d="M100.68,46.72c-1,0.23-2.01,0.68-2.45-0.72c-0.06-0.2,0.14-0.68,0.32-0.74C99.83,44.82,100.3,45.66,100.68,46.72z"/>
	<path d="M45.66,66.16c-0.45,0.66-0.89,1.33-1.47,2.19C43.61,66.51,43.61,66.51,45.66,66.16z"/>
	<path d="M55.57,58.97c-0.84-2.49-0.84-2.49,1.08-2.77C56.25,57.22,55.91,58.1,55.57,58.97z"/>
	<path d="M31.11,83.98c-0.35-1.18-0.13-2.07,1.2-2.53C32.96,82.91,31.96,83.41,31.11,83.98z"/>
	<path d="M60.37,54.79c0.25-1.01,0.45-2.1,2.44-1.13c-0.77,0.74-1.32,1.27-1.88,1.81C60.75,55.24,60.56,55.01,60.37,54.79z"/>
	<path d="M90.36,49c0.79,1.06,1.27,1.7,1.75,2.35C90.8,51.32,89.38,51.41,90.36,49z"/>
	<path d="M98.36,47.97c0.78,0.71,1.35,1.23,2.4,2.17C98.96,50.04,97.76,50.22,98.36,47.97z"/>
	<path d="M41.96,66.96c-0.81,1.04-1.26,1.63-1.97,2.54C39.76,67.96,39.44,66.9,41.96,66.96z"/>
	<path d="M107.27,48.23c-0.85-0.12-1.69-0.24-2.54-0.36C105.83,46.6,106.63,46.96,107.27,48.23z"/>
	<path d="M115.98,41.53c0-0.81,0-1.61,0-2.68C116.92,40.07,116.92,40.07,115.98,41.53z"/>
	<path d="M39.38,74.36c0.47-1.26,0.73-1.95,1.2-3.19C41.47,72.83,41.13,73.48,39.38,74.36z"/>
	<path d="M70.32,50.29c0.94,0.35,1.56,0.59,2.23,0.84c-0.24,0.43-0.33,0.73-0.43,0.74C71.03,51.93,71.03,51.92,70.32,50.29z"/>
	<path d="M113.57,42.05c0,0.78,0,1.56,0,2.34c-0.23,0.02-0.45,0.03-0.68,0.05c-0.1-0.78-0.2-1.57-0.3-2.35
		C112.92,42.08,113.25,42.07,113.57,42.05z"/>
	<path d="M68.66,51.34c-0.32,0.66-0.58,1.2-0.91,1.86c-0.35-0.3-0.69-0.45-0.72-0.64C66.9,51.51,67.2,50.87,68.66,51.34z"/>
	<path d="M63.96,55.62c0.62-0.08,1.15-0.14,1.88-0.23C64.9,56.74,64.9,56.74,63.96,55.62z"/>
	<path d="M96.71,50.4c-0.44,0.23-0.87,0.47-1.32,0.67c-0.03,0.01-0.29-0.4-0.27-0.42c0.37-0.31,0.77-0.6,1.16-0.89
		C96.43,49.97,96.57,50.18,96.71,50.4z"/>
	<path d="M46.73,61.49c-0.47,0-0.94,0-1.41,0c0.02-0.18,0.02-0.52,0.05-0.52c0.45-0.03,0.91-0.02,1.37-0.02
		C46.73,61.12,46.73,61.31,46.73,61.49z"/>
	<path d="M34.71,83.77c0.24-0.48,0.48-0.95,0.74-1.41c0.01-0.01,0.46,0.17,0.45,0.21c-0.12,0.51-0.28,1.01-0.43,1.51
		C35.21,83.97,34.96,83.87,34.71,83.77z"/>
</g>
</svg>
