<?xml version="1.0" encoding="utf-8"?>
<!-- Generator: Adobe Illustrator 23.0.1, SVG Export Plug-In . SVG Version: 6.00 Build 0)  -->
<svg version="1.1" id="Layer_1" xmlns="http://www.w3.org/2000/svg" xmlns:xlink="http://www.w3.org/1999/xlink" x="0px" y="0px"
	 viewBox="0 0 150 150" style="enable-background:new 0 0 150 150;" xml:space="preserve">
<style type="text/css">
	.st0{fill:#F49AB4;}
	.st1{fill:#F28DA7;}
	.st2{fill:#E85072;}
	.st3{fill:#E84B6F;}
	.st4{fill:#EB5A7D;}
	.st5{fill:#EF7994;}
	.st6{fill:#F8BCCD;}
	.st7{fill:#F38CA8;}
	.st8{fill:#EF728F;}
	.st9{fill:#FCE4EB;}
	.st10{fill:#F0CCCF;}
	.st11{fill:#DE8D95;}
	.st12{fill:#EBBABF;}
	.st13{fill:#E7ACB2;}
	.st14{fill:#E39DA3;}
	.st15{fill:#F5DEE0;}
	.st16{fill:#D97A83;}
	.st17{fill:#E4A6AD;}
	.st18{fill:#E9B6BB;}
	.st19{fill:#DA9197;}
	.st20{fill:#CC7077;}
	.st21{fill:#C9646C;}
	.st22{fill:#D4848B;}
	.st23{fill:#D17A81;}
	.st24{fill:#DD9EA3;}
	.st25{fill:#C65760;}
	.st26{fill:#D48189;}
	.st27{fill:#CF6E76;}
	.st28{fill:#C1575F;}
	.st29{fill:#B8424B;}
	.st30{fill:#B33C43;}
	.st31{fill:#BB4952;}
	.st32{fill:#C65E66;}
	.st33{fill:#BC4F57;}
	.st34{fill:#B0353D;}
	.st35{fill:#D67E84;}
	.st36{fill:#C6636B;}
	.st37{fill:#CA6C72;}
	.st38{fill:#B9454D;}
	.st39{fill:#C05B63;}
	.st40{fill:#C0545B;}
	.st41{fill:#BE4C53;}
	.st42{fill:#B43C44;}
	.st43{fill:#DF999F;}
	.st44{fill:#D27980;}
	.st45{fill:#C1555D;}
	.st46{fill:#CB6F76;}
	.st47{fill:#C8676E;}
	.st48{fill:#D5838A;}
	.st49{fill:#C65D64;}
	.st50{fill:#F1D1D4;}
	.st51{fill:#D38087;}
	.st52{fill:#CF737C;}
	.st53{fill:#D98C94;}
	.st54{fill:#E6B3B9;}
	.st55{fill:#D8898F;}
	.st56{fill:#C66269;}
	.st57{fill:#C96A72;}
	.st58{fill:#DD9399;}
	.st59{fill:#CF747B;}
	.st60{fill:#D48188;}
	.st61{fill:#D37D85;}
	.st62{fill:#DC9298;}
	.st63{fill:#D8838B;}
	.st64{fill:#FAECED;}
	.st65{fill:#EFCBD0;}
	.st66{fill:#EDC1C5;}
	.st67{fill:#D28089;}
	.st68{fill:#CB747D;}
	.st69{fill:#A8343C;}
	.st70{fill:#A62F37;}
	.st71{fill:#B03E44;}
	.st72{fill:#C25C63;}
	.st73{fill:#E1A8AC;}
	.st74{fill:#BE535C;}
	.st75{fill:#CE727C;}
	.st76{fill:#F5D8DA;}
	.st77{fill:#D8BAE7;}
	.st78{fill:#BC8FD2;}
	.st79{fill:#B17FC9;}
	.st80{fill:#7D3CA4;}
	.st81{fill:#884BAE;}
	.st82{fill:#A369BF;}
	.st83{fill:#D2B5E2;}
	.st84{fill:#9A62BC;}
	.st85{fill:#B17ECB;}
	.st86{fill:#ECE0F2;}
	.st87{fill:#FBCBC8;}
	.st88{fill:#F5908C;}
	.st89{fill:#F28580;}
	.st90{fill:#E64640;}
	.st91{fill:#E5413B;}
	.st92{fill:#E74E49;}
	.st93{fill:#ED6D68;}
	.st94{fill:#F7B5B0;}
	.st95{fill:#ED6660;}
	.st96{fill:#F48580;}
	.st97{fill:#FBDFDF;}
	.st98{fill:#F9C1C0;}
	.st99{fill:#F7B7B6;}
	.st100{fill:#EF7573;}
	.st101{fill:#EF6F6D;}
	.st102{fill:#F17F7C;}
	.st103{fill:#F4A19F;}
	.st104{fill:#F39998;}
	.st105{fill:#EC7271;}
	.st106{fill:#FAD1CF;}
	.st107{fill:#FADCDC;}
	.st108{fill:#F39391;}
	.st109{fill:#FDECEC;}
	.st110{fill:#FCDDDD;}
	.st111{fill:#ED8280;}
	.st112{fill:#E66160;}
	.st113{fill:#F18784;}
	.st114{fill:#F19593;}
	.st115{fill:#EB7675;}
	.st116{fill:#E86867;}
	.st117{fill:#F28785;}
	.st118{fill:#F3A7A7;}
	.st119{fill:#F08C8B;}
	.st120{fill:#F08785;}
	.st121{fill:#E55D5B;}
	.st122{fill:#E86D6C;}
	.st123{fill:#E85F5D;}
	.st124{fill:#E75958;}
	.st125{fill:#EA6664;}
	.st126{fill:#E76260;}
	.st127{fill:#E04948;}
	.st128{fill:#ED7371;}
	.st129{fill:#EA6B6A;}
	.st130{fill:#EB6763;}
	.st131{fill:#E45352;}
	.st132{fill:#E54E4C;}
	.st133{fill:#DE3635;}
	.st134{fill:#E65958;}
	.st135{fill:#E0413E;}
	.st136{fill:#EA6D6A;}
	.st137{fill:#EE9493;}
	.st138{fill:#EA6866;}
	.st139{fill:#F2A8A6;}
	.st140{fill:#E14543;}
	.st141{fill:#E3413F;}
	.st142{fill:#E64A48;}
	.st143{fill:#E56967;}
	.st144{fill:#E33F3D;}
	.st145{fill:#EB7775;}
	.st146{fill:#EE8483;}
	.st147{fill:#E64845;}
	.st148{fill:#E75655;}
	.st149{fill:#E65451;}
	.st150{fill:#EA7473;}
	.st151{fill:#E55B57;}
	.st152{fill:#E75756;}
	.st153{fill:#EB7472;}
	.st154{fill:#EE8C8A;}
	.st155{fill:#F5A3A2;}
	.st156{fill:#E14A49;}
	.st157{fill:#E14D4C;}
	.st158{fill:#E14B49;}
	.st159{fill:#DE3E3D;}
	.st160{fill:#E45350;}
	.st161{fill:#E14544;}
	.st162{fill:#E54E4B;}
	.st163{fill:#E34240;}
	.st164{fill:#E75C5A;}
	.st165{fill:#EB7C7B;}
	.st166{fill:#F3A2A1;}
	.st167{fill:#EA7877;}
	.st168{fill:#E66B6A;}
	.st169{fill:#E96A69;}
	.st170{fill:#E56160;}
	.st171{fill:#E44845;}
	.st172{fill:#EC7473;}
	.st173{fill:#F9C0D3;}
	.st174{fill:#F298B5;}
	.st175{fill:#EE89A7;}
	.st176{fill:#E54D73;}
	.st177{fill:#E44771;}
	.st178{fill:#E7567E;}
	.st179{fill:#EC7797;}
	.st180{fill:#F8BCCF;}
	.st181{fill:#EB6D8F;}
	.st182{fill:#F089A8;}
	.st183{fill:#FCE2EB;}
	.st184{fill:#E55B7F;}
	.st185{fill:#E6708E;}
	.st186{fill:#EB87A2;}
	.st187{fill:#E25677;}
	.st188{fill:#E7678B;}
	.st189{fill:#FBD7E3;}
	.st190{fill:#ED80A1;}
	.st191{fill:#E24166;}
	.st192{fill:#E13B65;}
	.st193{fill:#E34870;}
	.st194{fill:#E76486;}
	.st195{fill:#F49DB8;}
	.st196{fill:#F7BFD1;}
	.st197{fill:#E65C7F;}
	.st198{fill:#F6ABC4;}
	.st199{fill:#F6A7C2;}
	.st200{fill:#EA6189;}
	.st201{fill:#DB3258;}
	.st202{fill:#DA2E55;}
	.st203{fill:#F7B2C9;}
	.st204{fill:#EA6A8D;}
	.st205{fill:#DC355B;}
	.st206{fill:#DB3159;}
	.st207{fill:#DF3C63;}
	.st208{fill:#F9C5D6;}
	.st209{fill:#EB7697;}
	.st210{fill:#DE3B61;}
	.st211{fill:#DE375F;}
	.st212{fill:#E1426A;}
	.st213{fill:#FDE7EE;}
	.st214{fill:#EE89A9;}
	.st215{fill:#E2456B;}
	.st216{fill:#E14069;}
	.st217{fill:#E44D75;}
	.st218{fill:#E86B8C;}
	.st219{fill:#EE7A9C;}
	.st220{fill:#F5A8C0;}
	.st221{fill:#FACBDA;}
	.st222{fill:#E65A7D;}
	.st223{fill:#E04169;}
	.st224{fill:#FEF5F9;}
	.st225{fill:#F191B0;}
	.st226{fill:#EA7292;}
	.st227{fill:#F6B4C9;}
	.st228{fill:#FBD8E5;}
	.st229{fill:#E96C8F;}
	.st230{fill:#E35477;}
	.st231{fill:#EA7396;}
	.st232{fill:#EB7A9D;}
	.st233{fill:#E8698D;}
	.st234{fill:#EB7094;}
	.st235{fill:#E04B6E;}
	.st236{fill:#E66085;}
	.st237{fill:#EB7294;}
	.st238{fill:#E7678C;}
	.st239{fill:#EA6D91;}
	.st240{fill:#E14C71;}
	.st241{fill:#EE7A9D;}
	.st242{fill:#F393B2;}
	.st243{fill:#DC3F64;}
	.st244{fill:#EF82A3;}
	.st245{fill:#F39DB9;}
	.st246{fill:#DF466B;}
	.st247{fill:#DF4469;}
	.st248{fill:#F29A98;}
	.st249{fill:#E64F4D;}
	.st250{fill:#E74947;}
	.st251{fill:#E85956;}
	.st252{fill:#EC7775;}
	.st253{fill:#F8BCBA;}
	.st254{fill:#EC6F6D;}
	.st255{fill:#FCE2E2;}
	.st256{fill:#F8C8C6;}
	.st257{fill:#F08B89;}
	.st258{fill:#F18A89;}
	.st259{fill:#B093A4;}
	.st260{fill:#A38295;}
	.st261{fill:#6F455A;}
	.st262{fill:#694055;}
	.st263{fill:#794F64;}
	.st264{fill:#936F83;}
	.st265{fill:#CDB7C1;}
	.st266{fill:#B596A5;}
	.st267{fill:#A58394;}
	.st268{fill:#8C667A;}
	.st269{fill:#B696A7;}
	.st270{fill:#E8E0E7;}
	.st271{fill:#E1BCC2;}
	.st272{fill:#A9666E;}
	.st273{fill:#681C23;}
	.st274{fill:#641920;}
	.st275{fill:#73242D;}
	.st276{fill:#8D3F48;}
	.st277{fill:#C69197;}
	.st278{fill:#893841;}
	.st279{fill:#E3CCCE;}
	.st280{fill:#6F292E;}
	.st281{fill:#A15A63;}
	.st282{fill:#944952;}
	.st283{fill:#944953;}
	.st284{fill:#964A53;}
	.st285{fill:#984B54;}
	.st286{fill:#974A53;}
	.st287{fill:#A25A62;}
	.st288{fill:#D2BCC8;}
	.st289{fill:#C8B2BE;}
	.st290{fill:#936A80;}
	.st291{fill:#8E667B;}
	.st292{fill:#9B7589;}
	.st293{fill:#B293A3;}
	.st294{fill:#916B7F;}
	.st295{fill:#DDCCD6;}
	.st296{fill:#AC8B9C;}
	.st297{fill:#F1EBEF;}
	.st298{fill:#9C7A8C;}
	.st299{fill:#8F6C80;}
	.st300{fill:#B99DAC;}
	.st301{fill:#A27F91;}
	.st302{fill:#C2A7B6;}
	.st303{fill:#AB8E9F;}
	.st304{fill:#936D82;}
	.st305{fill:#856174;}
	.st306{fill:#B99DAB;}
	.st307{fill:#C2A9B6;}
	.st308{fill:#A38091;}
	.st309{fill:#BBA3B0;}
	.st310{fill:#7A5468;}
	.st311{fill:#855F73;}
	.st312{fill:#AE8E9F;}
	.st313{fill:#7C556A;}
	.st314{fill:#7B5066;}
	.st315{fill:#855C71;}
	.st316{fill:#AF8E9F;}
	.st317{fill:#734B60;}
	.st318{fill:#694256;}
	.st319{fill:#916A80;}
	.st320{fill:#886378;}
	.st321{fill:#875C71;}
	.st322{fill:#714B5E;}
	.st323{fill:#582F42;}
	.st324{fill:#795066;}
	.st325{fill:#5E3A4B;}
	.st326{fill:#8A6578;}
	.st327{fill:#A98E9D;}
	.st328{fill:#B9A1B1;}
	.st329{fill:#B08F9F;}
	.st330{fill:#B898AA;}
	.st331{fill:#896578;}
	.st332{fill:#653C50;}
	.st333{fill:#623A4E;}
	.st334{fill:#6C4257;}
	.st335{fill:#B28FA1;}
	.st336{fill:#80596E;}
	.st337{fill:#7F586C;}
	.st338{fill:#765063;}
	.st339{fill:#683F53;}
	.st340{fill:#774E63;}
	.st341{fill:#704B5F;}
	.st342{fill:#674355;}
	.st343{fill:#7F5A6E;}
	.st344{fill:#815A6E;}
	.st345{fill:#6A4558;}
	.st346{fill:#5D374A;}
	.st347{fill:#926D80;}
	.st348{fill:#70475B;}
	.st349{fill:#72495E;}
	.st350{fill:#673D52;}
	.st351{fill:#673D51;}
	.st352{fill:#60364B;}
	.st353{fill:#795265;}
	.st354{fill:#683F52;}
	.st355{fill:#7A5368;}
	.st356{fill:#987387;}
	.st357{fill:#70475C;}
	.st358{fill:#A07D92;}
	.st359{fill:#81596E;}
	.st360{fill:#926C7F;}
	.st361{fill:#80596D;}
	.st362{fill:#CDC0E4;}
	.st363{fill:#A998CF;}
	.st364{fill:#644DA1;}
	.st365{fill:#5E479E;}
	.st366{fill:#6F56A9;}
	.st367{fill:#755CAC;}
	.st368{fill:#8975BA;}
	.st369{fill:#C4BAE0;}
	.st370{fill:#755DAD;}
	.st371{fill:#846DB7;}
	.st372{fill:#E7E2F2;}
	.st373{fill:#9B89C5;}
	.st374{fill:#8871B8;}
	.st375{fill:#9C89C6;}
	.st376{fill:#8673B9;}
	.st377{fill:#B9E1BA;}
	.st378{fill:#ADDBAE;}
	.st379{fill:#99D09A;}
	.st380{fill:#65B567;}
	.st381{fill:#5FB261;}
	.st382{fill:#70BB71;}
	.st383{fill:#8DCB8E;}
	.st384{fill:#CBE9CB;}
	.st385{fill:#86C687;}
	.st386{fill:#98D099;}
	.st387{fill:#EBF5EB;}
	.st388{fill:#B9D6C9;}
	.st389{fill:#8EBD9E;}
	.st390{fill:#7DB18E;}
	.st391{fill:#408251;}
	.st392{fill:#3A7F4C;}
	.st393{fill:#4A8C5B;}
	.st394{fill:#68A279;}
	.st395{fill:#B5D4BE;}
	.st396{fill:#7CB38B;}
	.st397{fill:#619D71;}
	.st398{fill:#E0ECE4;}
	.st399{fill:#74A38C;}
	.st400{fill:#679880;}
	.st401{fill:#669780;}
	.st402{fill:#669881;}
	.st403{fill:#285E41;}
	.st404{fill:#235A3C;}
	.st405{fill:#31684A;}
	.st406{fill:#4D8268;}
	.st407{fill:#A1C2B0;}
	.st408{fill:#679981;}
	.st409{fill:#467B62;}
	.st410{fill:#D6E5DF;}
	.st411{fill:#8ECA8F;}
	.st412{fill:#7DC07F;}
	.st413{fill:#409841;}
	.st414{fill:#3A933C;}
	.st415{fill:#4AA14B;}
	.st416{fill:#68B569;}
	.st417{fill:#7CC07D;}
	.st418{fill:#B5DDB5;}
	.st419{fill:#61B062;}
	.st420{fill:#7CC17E;}
	.st421{fill:#E0EFE0;}
	.st422{fill:#EBF5DE;}
	.st423{fill:#D4EAB8;}
	.st424{fill:#D2E9B4;}
	.st425{fill:#D8ECBE;}
	.st426{fill:#E2F0CE;}
	.st427{fill:#F3F9EA;}
	.st428{fill:#DFF0CA;}
	.st429{fill:#FAFDF7;}
	.st430{fill:#D3C9BE;}
	.st431{fill:#CBBEB3;}
	.st432{fill:#BBAC9F;}
	.st433{fill:#97826F;}
	.st434{fill:#947E69;}
	.st435{fill:#9F8A79;}
	.st436{fill:#B5A495;}
	.st437{fill:#DED6CE;}
	.st438{fill:#BBAD9F;}
	.st439{fill:#AE9E8D;}
	.st440{fill:#F2EFEC;}
	.st441{fill:#B1A091;}
	.st442{fill:#B1A090;}
	.st443{fill:#D8BACF;}
	.st444{fill:#976286;}
	.st445{fill:#905778;}
	.st446{fill:#4F1939;}
	.st447{fill:#4C1637;}
	.st448{fill:#5A2144;}
	.st449{fill:#773B60;}
	.st450{fill:#B88FAD;}
	.st451{fill:#6E345A;}
	.st452{fill:#8E567D;}
	.st453{fill:#E1CCDA;}
	.st454{fill:#C4E2A7;}
	.st455{fill:#93C35F;}
	.st456{fill:#8EC15A;}
	.st457{fill:#9AC868;}
	.st458{fill:#B0D587;}
	.st459{fill:#DCEBC3;}
	.st460{fill:#C8E0AA;}
	.st461{fill:#ABD280;}
	.st462{fill:#CAE2A9;}
	.st463{fill:#EFF8E7;}
	.st464{fill:#FFF6C0;}
	.st465{fill:#FFEC97;}
	.st466{fill:#FFDC4B;}
	.st467{fill:#FFD945;}
	.st468{fill:#FFDD54;}
	.st469{fill:#FFE774;}
	.st470{fill:#FFF4BA;}
	.st471{fill:#FFE46C;}
	.st472{fill:#FFF9E2;}
	.st473{fill:#FDE2C1;}
	.st474{fill:#F9CA98;}
	.st475{fill:#F9C18A;}
	.st476{fill:#F5994E;}
	.st477{fill:#F49448;}
	.st478{fill:#F8A158;}
	.st479{fill:#F8B577;}
	.st480{fill:#FCDDBC;}
	.st481{fill:#F8B06F;}
	.st482{fill:#FFEFE2;}
	.st483{fill:#F8A7A4;}
	.st484{fill:#EF8262;}
	.st485{fill:#EC605A;}
	.st486{fill:#EB5B55;}
	.st487{fill:#EC6964;}
	.st488{fill:#F28783;}
	.st489{fill:#F9C4C1;}
	.st490{fill:#F2817A;}
	.st491{fill:#EB6449;}
	.st492{fill:#FCE7E7;}
	.st493{fill:#FFEA88;}
	.st494{fill:#FFEB87;}
	.st495{fill:#FDF2E3;}
	.st496{fill:#FDEFDD;}
	.st497{fill:#F9E1C4;}
	.st498{fill:#FADEB9;}
	.st499{fill:#FADDB7;}
	.st500{fill:#FAE0BF;}
	.st501{fill:#FBE9CF;}
	.st502{fill:#F9DAB8;}
	.st503{fill:#FDF5EB;}
	.st504{fill:#FBE6CB;}
	.st505{fill:#FFFBF7;}
	.st506{fill:#FBDFBE;}
	.st507{fill:#F7D8B5;}
	.st508{fill:#FBE8CF;}
	.st509{fill:#FBE3C8;}
	.st510{fill:#F9E8CF;}
	.st511{fill:#F8DBB7;}
	.st512{fill:#FADBB5;}
	.st513{fill:#F7D5AE;}
	.st514{fill:#FDE9D5;}
	.st515{fill:#FAE3C8;}
	.st516{fill:#F7D1A4;}
	.st517{fill:#F5CD9D;}
	.st518{fill:#F7D8B0;}
	.st519{fill:#F8D4A9;}
	.st520{fill:#F8D3A6;}
	.st521{fill:#F8D8AF;}
	.st522{fill:#F7CD9E;}
	.st523{fill:#F4C896;}
	.st524{fill:#FBE3C5;}
	.st525{fill:#F7DBB8;}
	.st526{fill:#F7D8B1;}
	.st527{fill:#F7D7B0;}
	.st528{fill:#F8CD9F;}
	.st529{fill:#F8CD9E;}
	.st530{fill:#F1BE84;}
	.st531{fill:#F8D0A3;}
	.st532{fill:#F1C38D;}
	.st533{fill:#F8D8B1;}
	.st534{fill:#FBE2C8;}
	.st535{fill:#F9EAD3;}
	.st536{fill:#F9D3AA;}
	.st537{fill:#F7C896;}
	.st538{fill:#F7C794;}
	.st539{fill:#F7CA9A;}
	.st540{fill:#F7D3AB;}
	.st541{fill:#F8D8B5;}
	.st542{fill:#F9E6CF;}
	.st543{fill:#F7C897;}
	.st544{fill:#F8D3AA;}
	.st545{fill:#F7CEA2;}
	.st546{fill:#F4CD9E;}
	.st547{fill:#F5D2A5;}
	.st548{fill:#FBE2C2;}
	.st549{fill:#F5D1A8;}
	.st550{fill:#F8D5AB;}
	.st551{fill:#F2C695;}
	.st552{fill:#F8D3A8;}
	.st553{fill:#F5C998;}
	.st554{fill:#F5C894;}
	.st555{fill:#F2C997;}
	.st556{fill:#F2C48D;}
	.st557{fill:#F4C694;}
	.st558{fill:#F5CE9D;}
	.st559{fill:#F4C594;}
	.st560{fill:#F5C995;}
	.st561{fill:#F4C48F;}
	.st562{fill:#F7D2A6;}
	.st563{fill:#F8DFBB;}
	.st564{fill:#FBE2C3;}
	.st565{fill:#F8CC9E;}
	.st566{fill:#FADFC1;}
	.st567{fill:#F9D8B5;}
	.st568{fill:#F4C997;}
	.st569{fill:#F9DDB8;}
	.st570{fill:#FDFCED;}
	.st571{fill:#FBF7D2;}
	.st572{fill:#F9F6CB;}
	.st573{fill:#F4EBA8;}
	.st574{fill:#F5E9A6;}
	.st575{fill:#F5EDAC;}
	.st576{fill:#F7F5C0;}
	.st577{fill:#FBFBE1;}
	.st578{fill:#F7F0BE;}
	.st579{fill:#FAF6CE;}
	.st580{fill:#FFFBF5;}
	.st581{fill:#BDDB97;}
	.st582{fill:#BBDC99;}
	.st583{fill:#BDDD99;}
	.st584{fill:#B0D484;}
	.st585{fill:#AFD484;}
	.st586{fill:#FFEA87;}
	.st587{fill:#D3E9BA;}
	.st588{fill:#E1EECE;}
	.st589{fill:#D3E8BB;}
	.st590{fill:#E3EECE;}
	.st591{opacity:0.9;}
	.st592{fill:#FFF8CD;}
	.st593{opacity:0.9;fill:#FFEE8A;}
	.st594{fill:#FFF19E;}
	.st595{fill:#FFF5B6;}
	.st596{fill:#FFFBE0;}
	.st597{fill:none;stroke:#FFF4B1;stroke-width:0;}
	.st598{fill:#FFFDF3;}
	.st599{fill:#FACEDD;}
	.st600{opacity:0.9;fill:#F38CAF;}
	.st601{fill:#F5A0BD;}
	.st602{fill:#F8B8CD;}
	.st603{fill:#FCE1EA;}
	.st604{fill:none;stroke:#F7B2C9;stroke-width:0;}
	.st605{fill:#FEF3F7;}
	.st606{fill:#FBDBB6;}
	.st607{fill:#FBD1A3;}
	.st608{fill:#F9B674;}
	.st609{fill:#F8B36E;}
	.st610{fill:#FABB7E;}
	.st611{fill:#FACB99;}
	.st612{fill:#FDE9D1;}
	.st613{fill:#FAC893;}
	.st614{fill:#F9D0A1;}
	.st615{fill:#FFF5EC;}
	.st616{fill:#D7ECC0;}
	.st617{fill:#B1D684;}
	.st618{fill:#ADD680;}
	.st619{fill:#B7D98D;}
	.st620{fill:#C8E2A7;}
	.st621{fill:#E8F2D6;}
	.st622{fill:#C3E0A0;}
	.st623{fill:#F5FAEF;}
	.st624{fill:#A87699;}
	.st625{fill:#A9716E;}
	.st626{fill:#9F698A;}
	.st627{fill:#9F698D;}
	.st628{fill:#65294F;}
	.st629{fill:#632638;}
	.st630{fill:#62244A;}
	.st631{fill:#612335;}
	.st632{fill:#6E3259;}
	.st633{fill:#6D2F40;}
	.st634{fill:#8B4E74;}
	.st635{fill:#C4A1BB;}
	.st636{fill:#9D688D;}
	.st637{fill:#82476E;}
	.st638{fill:#E7D6E1;}
	.st639{fill:#FFF9D6;}
	.st640{fill:#FFF2A6;}
	.st641{fill:#FFF4B0;}
	.st642{fill:#FFF7C4;}
	.st643{fill:#FFFCE6;}
	.st644{fill:#FFF3B5;}
	.st645{fill:#FFED8B;}
	.st646{fill:#FFED94;}
	.st647{fill:#FFF1A4;}
	.st648{fill:#FFF5BF;}
	.st649{fill:#FFF6CD;}
	.st650{fill:#FFE46E;}
	.st651{fill:#FFED98;}
	.st652{fill:#FFF3A9;}
	.st653{fill:#FFEC8D;}
	.st654{fill:#FFE66B;}
	.st655{fill:#FFEC8A;}
	.st656{fill:#FFE66D;}
	.st657{fill:#FFE571;}
	.st658{fill:#FFEF94;}
	.st659{fill:#FFEF9E;}
	.st660{fill:#FFED93;}
	.st661{fill:#FFE873;}
	.st662{fill:#FFE97A;}
	.st663{fill:#FFEC87;}
	.st664{fill:#FFF19F;}
	.st665{fill:#FFF1A8;}
	.st666{fill:#FFEA7E;}
	.st667{fill:#FFEB86;}
	.st668{fill:#FFEF97;}
	.st669{fill:#FFF2B0;}
	.st670{fill:#FFF4BC;}
	.st671{fill:#FFF5C1;}
	.st672{fill:#FFF8CF;}
	.st673{fill:#FFF8DC;}
	.st674{fill:#FFF0A0;}
	.st675{fill:#FFEE92;}
	.st676{fill:#FFF6CE;}
	.st677{fill:#FFFADD;}
	.st678{fill:#FFFBEC;}
	.st679{fill:#FFFDF5;}
	.st680{fill:#F49C52;}
	.st681{fill:#F69D52;}
	.st682{fill:#F8A55E;}
	.st683{fill:#F8B472;}
	.st684{fill:#F59D54;}
	.st685{fill:#F8A65F;}
	.st686{fill:#F8B474;}
	.st687{fill:#FDF3E9;}
	.st688{fill:#FAE8D1;}
	.st689{fill:#FAE8CF;}
	.st690{fill:#FAEBD4;}
	.st691{fill:#F9EDD7;}
	.st692{fill:#FBEFDE;}
	.st693{fill:#FBEFDD;}
	.st694{fill:#FDF8F1;}
	.st695{fill:#FBEDD7;}
	.st696{fill:#FBEFDC;}
	.st697{fill:#FFFBFA;}
	.st698{fill:#FFE771;}
	.st699{fill:#FFEB83;}
	.st700{fill:#FFED90;}
	.st701{fill:#F7B6CB;}
	.st702{fill:#F4A2BB;}
	.st703{fill:#EE7397;}
	.st704{fill:#ED6D94;}
	.st705{fill:#EF7C9F;}
	.st706{fill:#F399B5;}
	.st707{fill:#FAD1DE;}
	.st708{fill:#F291AE;}
	.st709{fill:#F3A1BB;}
	.st710{fill:#FDECF2;}
</style>
<g>
	<path class="st454" d="M103.81,28.79L97,34.67c-2.17,1.87-6.19,5.84-9.78,9.42c-3.6,3.57-6.8,6.76-7.83,6.8
		c-1.5-0.14-3.78-1.15-3.95-2.47c-1.1-3.55-4.01-4.09-6.06-6.51c-0.47-0.69-0.33-1.83-0.8-2.53c-1.47-1.63-3.64-3.27-5.34-3.27
		c-0.12,0-0.25,0.01-0.36,0.03c-0.17-0.01-0.33-0.01-0.5-0.01c-3.02,0-6.11,1.07-8,2.79l-3.74,1.73l-1.14,0.54
		c-0.09,0.12-0.18,0.24-0.27,0.37c-0.26,0.35-0.44,0.66-0.75,1.05c-0.44,0.46-0.87,0.92-1.28,1.39c-0.81,0.92-1.54,1.88-2.21,2.83
		c-2.79,3.54-2.44,4.86-4.25,5.48c-0.33,0.17-0.21,1.5-0.26,3.35c-0.05,1.81-0.25,4.08-1.12,6.4c0.11,0,0.88-0.02,2.34-0.05
		c0.16-0.51,0.42-1.28,0.83-2.21c0.75-1.72,2.04-4.02,4-6.17c0.98-1.07,2.08-2.15,3.31-3.12c0.61-0.48,1.27-0.94,1.95-1.36
		c0.53-0.35,0.91-0.58,1.41-0.81c0.92-0.42,1.91-0.66,2.97-0.66c1.11,0,2.29,0.27,3.53,0.89c0,0,5.48,0.16,10.54,1.56
		c4.51,1.22,8.64,3.39,8.64,6.7l0,0c0,0.41-0.07,0.85-0.2,1.3c0,0-0.52,1.72-1.47,4.46c-0.45,1.3-0.99,2.83-1.62,4.52
		c1.39-1.02,2.94-1.82,4.87-2.22c2.52-0.52,5.13-0.91,7.78-1.05c0.62-0.03,1.24-0.05,1.87-0.05c2.07,0,4.21,0.19,6.41,0.66
		c0.7,0.14,0.98,0.97,0.98,1.84l0,0c0,0.58-0.12,1.18-0.34,1.63c-0.9,2.05-2.54,3.55-4.26,4.97c-1.79,1.38-3.66,2.69-5.31,4.24
		c-0.28,0.67-1.19,1.67-1.19,2.37c0,0.03,0,0.05,0,0.08c0.01,0.07,0.01,0.13,0.01,0.2l0,0c0,0.64-0.28,1.26-0.56,1.89
		c-3.26,4.5-6.77,7.81-11.08,10.82c-2.43,2.28-4.23,4.36-6.23,6.41c0.24,0.23,0.5,0.48,0.79,0.73c0,0,0.18,0.31,0.38,0.72
		c0.2,0.41,0.43,0.92,0.49,1.38l0.02,0.17l-0.02,0.17l-0.04,0.23c-0.04,0.21-0.08,0.4-0.13,0.59c0.6,0.24,1.21,0.43,1.78,0.48
		c0,0,0.01,0,0.01,0c1.32,0,2.51-0.64,3.6-1.47c0.37-0.28,0.73-0.58,1.09-0.89c-0.37-0.72-1.11-2-2.11-4.5c1,2.5,1.74,3.77,2.11,4.5
		l0,0c-0.37-0.72-1.11-2-2.11-4.5c1,2.5,1.74,3.77,2.11,4.5l0,0c-0.37-0.72-1.11-2-2.11-4.5c1,2.5,1.74,3.77,2.11,4.5
		c0.71-0.61,1.4-1.24,2.14-1.8c1.11-0.5,2.17-0.67,3.59-0.79c2.14-0.01,2.9-2.37,3.91-4.33c1-2.63,4.51-3.36,6.12-5.73
		c2.29-3.04,1.36-7.49,4.27-9.22c-0.16,0.08-0.28,0.12-0.36,0.12c-0.1,0-0.15-0.06-0.15-0.17l0,0c0-0.54,1.13-2.27,2.3-3.96
		c1.27-1.8,2.61-3.55,2.94-3.55c0.05,0,0.08,0.04,0.08,0.13l0,0c0,0.05-0.01,0.12-0.03,0.21c0.12-0.15,0.58-0.24,1.09-0.24
		c0.35,0,0.73,0.04,1.02,0.14c0.43,0.31,1.22,0.57,1.3,0.91c0.6,2.75,3.43,4.24,5.26,6.21c0.19-0.02,1.39-1.69,2.92-3.61
		c1.54-1.92,3.38-4.09,5.07-5c0.69-0.32,1.36-0.64,2.03-0.96l1-0.5l0.49-0.26c0.17-0.11,0.42-0.41,0.62-0.61
		c0.85-0.93,1.67-2.04,2.42-3.57c0.74-1.55,1.46-3.46,1.77-6.51c0-0.04,0-0.07,0-0.11c0-1.55-0.39-2.94-0.88-4.32
		c-0.27-0.78-0.55-1.5-0.87-2.33c-0.36-0.97-0.72-1.92-1.12-2.98c-0.29-0.79-0.77-2.07-1.94-3.93c-0.56-0.9-1.29-1.9-2.21-2.94
		c-0.92-1.06-1.98-2.01-3.24-3L103.81,28.79"/>
	<path class="st454" d="M45.57,61.36c-0.77,0.13-1.57,0.34-2.4,0.63c0.06,0,0.11,0,0.17,0c0.52,0,1.1,0,1.72,0.02
		C45.22,61.8,45.39,61.58,45.57,61.36"/>
	<path class="st454" d="M34.6,71.28c-0.9,1.57-1.66,3.27-2.61,4.81c-0.67,1.1-1.42,2.14-2.38,2.95c-0.02,0.02-0.04,0.04-0.07,0.06
		c0.78-0.59,1.43-1.24,1.96-1.89c0.92-1.13,1.54-2.23,1.89-3.08c0.36-0.84,0.49-1.4,0.49-1.4s-0.13,0.55-0.49,1.4
		c-0.35,0.86-0.97,1.95-1.89,3.08c-0.54,0.65-1.19,1.3-1.96,1.89l0,0c0.78-0.59,1.43-1.24,1.96-1.89c0.92-1.13,1.54-2.23,1.89-3.08
		c0.36-0.84,0.49-1.4,0.49-1.4s-0.13,0.55-0.49,1.4c-0.35,0.86-0.97,1.95-1.89,3.08c-0.54,0.65-1.19,1.3-1.96,1.89l0,0
		c0.78-0.59,1.43-1.24,1.96-1.89c0.92-1.13,1.54-2.23,1.89-3.08c0.36-0.84,0.49-1.4,0.49-1.4s-0.13,0.55-0.49,1.4
		c-0.35,0.86-0.97,1.95-1.89,3.08c-0.54,0.65-1.19,1.3-1.96,1.89c-0.46,0.39-0.95,0.74-1.5,1.03c-0.37,0.19-0.77,0.35-1.19,0.48
		c-1.22,0.47-2.62,0.76-4.21,0.76c-0.16,0-0.32,0-0.48-0.01c-0.56,0.07-1.11,0.15-1.65,0.24l11.76,6.44
		c0.06-0.74,0.13-1.49,0.19-2.23c0.25-2.82,0.59-5.7,1.02-8.22c0.42-2.53,0.91-4.7,1.13-6.23C34.6,71.33,34.6,71.3,34.6,71.28"/>
	<path class="st454" d="M59.22,71.44c-0.13,1.73-0.2,3.44-0.23,5.08c0.06-0.03,0.12-0.06,0.18-0.1c0.1-1.25,0.22-2.6,0.35-4.07
		C59.52,72.36,59.42,72.02,59.22,71.44"/>
	<path class="st454" d="M42.54,73.82C42.54,73.82,42.54,73.83,42.54,73.82c-0.72,2.54-1,5.18-1,7.79c0,0.54,0.01,1.08,0.04,1.61
		c0.08,1.74,0.25,3.44,0.47,5.08c0.07-0.05,0.13-0.1,0.19-0.15c0.06-0.1,0.13-0.2,0.18-0.29c0-0.01,0.01-0.01,0.01-0.02
		c-0.01-1.25-0.03-2.53-0.06-3.84c-0.02-1.05-0.04-2.1-0.04-3.16l0,0C42.35,78.51,42.41,76.15,42.54,73.82
		C42.54,73.83,42.54,73.82,42.54,73.82"/>
	<path class="st454" d="M26.85,80.6c-0.24,0.07-0.49,0.14-0.74,0.19c-1.38,0.25-2.7,0.39-3.95,0.56c0.16,0.01,0.32,0.01,0.48,0.01
		C24.23,81.36,25.63,81.07,26.85,80.6"/>
	<path class="st454" d="M20.5,81.6c-0.02,0-0.03,0.01-0.05,0.01l11.8,6.46c0-0.01,0-0.02,0-0.02L20.5,81.6"/>
	<path class="st454" d="M42.44,87.96c-0.06,0.06-0.13,0.12-0.2,0.18c-0.06,0.09-0.12,0.18-0.18,0.28c0.02,0.12,0.03,0.25,0.05,0.37
		c0.11-0.12,0.22-0.24,0.32-0.36c0-0.01,0-0.03,0-0.04C42.44,88.25,42.44,88.11,42.44,87.96"/>
	<path class="st455" d="M39.34,62.05c-0.01,0-0.01,0-0.01,0c-0.94,2.1-2.71,3.92-3.81,6.01c-0.53,1.03-0.9,2.1-0.92,3.22
		c0,0,0-0.01,0.01-0.01c0.06-1.1,0.45-2.14,0.97-3.16c1.09-2.03,2.79-3.81,3.69-5.86C39.29,62.18,39.32,62.11,39.34,62.05"/>
	<path class="st455" d="M32.26,88.06c-0.05,0.63-0.11,1.26-0.16,1.88c-0.02,0.33-0.05,0.66-0.07,0.99
		c-0.01,0.28-0.02,0.55-0.03,0.83c0,0.07,0,0.15-0.01,0.22c0.03-0.01,0.05-0.02,0.08-0.03c0-0.01,0-0.02,0-0.03
		c0.01-0.27,0.02-0.55,0.02-0.82c0.02-0.32,0.04-0.64,0.07-0.97c0.06-0.67,0.12-1.35,0.17-2.03L32.26,88.06"/>
	<path class="st455" d="M31.94,94.57c0,0.11,0,0.21,0,0.32c0,1.49,0.05,2.82,0.15,3.81c0.49,5,1.16,8.81,1.69,12.3l2.03,13.26
		l9.06-8.03c1.13-1,2.29-1.84,3.57-2.6c1.26-0.78,2.64-1.5,4.23-2.2c2.64-0.96,4.53-2.45,6.35-4.09l-0.11-0.05
		c-1.77,1.59-3.63,3.04-6.2,3.97c-1.61,0.71-3.01,1.43-4.28,2.23c-1.29,0.77-2.46,1.63-3.61,2.65l-8.86,7.93l-2.06-13.09
		c-0.54-3.43-1.21-7.2-1.71-12.13c-0.11-1.02-0.16-2.37-0.16-3.9l0,0c0-0.12,0-0.24,0-0.36L31.94,94.57"/>
	<path class="st456" d="M43.34,61.99c-0.06,0-0.11,0-0.17,0c-0.55,0.19-1.11,0.43-1.68,0.7l0,0l0,0l0,0l0,0c0,0,0.06-0.25,0.19-0.69
		c-1.45,0.03-2.23,0.04-2.34,0.05c-0.02,0.07-0.05,0.13-0.07,0.2c-0.9,2.05-2.6,3.83-3.69,5.86c-0.53,1.01-0.91,2.06-0.97,3.16
		c0,0,0,0.01-0.01,0.01c0,0.03,0,0.05,0,0.08c-0.21,1.53-0.71,3.71-1.13,6.23c-0.43,2.52-0.76,5.4-1.02,8.22
		c-0.06,0.75-0.13,1.49-0.19,2.23l3.52,1.93c0.26-0.23,0.48-0.48,0.66-0.74c0,0,0.65,0.1,1.56,0.1c0.45,0,0.96-0.02,1.48-0.09
		c0.91-0.12,1.85-0.41,2.56-0.93c-0.22-1.64-0.4-3.34-0.47-5.08c-0.02-0.53-0.04-1.07-0.04-1.61l0,0c0-2.6,0.28-5.25,1-7.78
		c0,0,0,0,0,0c0.15-2.52,0.33-5,0.33-7.53c0-0.31,0-0.62-0.01-0.94l0,0l0,0l0,0l0,0c0,0,0.71-1.37,2.08-3.19
		c0.04-0.05,0.08-0.11,0.12-0.16C44.44,62,43.87,61.99,43.34,61.99"/>
	<path class="st456" d="M90.07,63.79c-0.63,0-1.25,0.02-1.87,0.05c-2.66,0.14-5.27,0.53-7.78,1.05c-1.92,0.39-3.47,1.2-4.87,2.22
		c-0.67,1.81-1.43,3.8-2.28,5.9c0.61-0.48,1.14-1.08,1.51-1.8c0,0,0.98-0.53,2.41-1.23c1.44-0.69,3.28-1.6,5.02-2.3
		c1.5-0.6,2.92-1.06,3.9-1.06c0.82,0,1.34,0.32,1.34,1.14l0,0c0,0.47-0.17,1.1-0.55,1.93c0,0-0.34,1.29-0.83,2.89
		c-0.47,1.61-1.18,3.48-1.75,4.7c0,0-0.37,0.46-1.07,1.21c-0.7,0.76-1.68,1.86-2.89,3.14c-2.45,2.56-5.81,5.89-9.42,9.03
		c-1.37,1.19-2.77,2.35-4.16,3.44c-0.09,0.55-0.18,1.06-0.31,1.53c0,0-0.02,0.03-0.02,0.12c0,0.12,0.03,0.34,0.2,0.71
		c0.24,0.51,0.74,1.34,1.83,2.42c2-2.05,3.8-4.13,6.23-6.41c4.32-3.01,7.82-6.32,11.08-10.82c0.27-0.63,0.56-1.26,0.56-1.89
		c0-0.07,0-0.13-0.01-0.2c0-0.02,0-0.05,0-0.08l0,0c0-0.7,0.91-1.7,1.19-2.37c1.65-1.56,3.52-2.86,5.31-4.24
		c1.72-1.42,3.36-2.92,4.26-4.97c0.21-0.44,0.34-1.05,0.34-1.63c0-0.88-0.29-1.7-0.98-1.84C94.28,63.99,92.14,63.79,90.07,63.79"/>
	<path class="st456" d="M32.26,88.04c0,0.01,0,0.02,0,0.02l0.08,0.04l0,0l0,0c-0.06,0.68-0.12,1.36-0.17,2.03
		c-0.02,0.33-0.04,0.65-0.07,0.97c-0.01,0.28-0.02,0.55-0.02,0.82c0,0.01,0,0.02,0,0.03c1.49-0.52,2.82-1.18,3.71-1.99L32.26,88.04"
		/>
	<path class="st456" d="M42.07,88.42c-0.29,0.45-0.62,0.98-1.01,1.57c0.36-0.4,0.71-0.8,1.06-1.2
		C42.1,88.67,42.09,88.55,42.07,88.42"/>
	<path class="st456" d="M32.02,94.6c0,0.12,0,0.24,0,0.36c0,1.53,0.05,2.89,0.16,3.9c0.5,4.92,1.17,8.69,1.71,12.13l2.06,13.09
		l8.86-7.93c1.14-1.02,2.31-1.88,3.61-2.65c1.27-0.8,2.67-1.52,4.28-2.23c2.57-0.93,4.43-2.38,6.2-3.97l-5.81-2.74
		c0.04,0.66,0.2,1.32,0.49,1.97c0,0,0.08,0.34,0.24,0.89c0.16,0.54,0.42,1.28,0.76,2.04l0,0l0,0l0,0L53.66,109
		c0.06,0.17,0.13,0.33,0.2,0.49l0,0l0,0l0,0l-7.06-3.33c-1.69,1.02-3.58,2.19-5.58,3.5c0.01,0.26,0.02,0.52,0.03,0.77l0,0l0,0l0,0
		l-0.7-0.33l0,0l0,0c0.22-0.15,0.45-0.3,0.67-0.44c-0.01-0.37-0.02-0.74-0.02-1.11l0,0c0-1.59,0.09-3.24,0.21-4.93l-8.15-3.85l0,0
		l0,0c0.09-0.09,0.17-0.18,0.26-0.28l-0.68-0.32l0,0l0,0c0.8-0.87,1.7-1.87,2.65-2.93L32.02,94.6"/>
	<path class="st457" d="M47.68,61.18c-0.67,0-1.37,0.06-2.1,0.18c-0.18,0.22-0.35,0.44-0.51,0.65c-0.04,0.05-0.08,0.11-0.12,0.16
		c-1.38,1.82-2.08,3.19-2.08,3.19c0.01,0.31,0.01,0.63,0.01,0.94l0,0c0,2.54-0.18,5.01-0.33,7.53c0,0,0,0,0,0.01
		c-0.14,2.32-0.2,4.68-0.2,7.01c0,1.06,0.01,2.12,0.04,3.16c0.03,1.3,0.05,2.58,0.06,3.84c0.47-0.75,0.74-1.18,0.74-1.18l0,0l0,0
		l0,0l0,0c-0.13,0.52-0.39,0.95-0.73,1.3c0,0.14,0,0.29,0,0.43l0,0c0,0.01,0,0.03,0,0.04c-0.11,0.12-0.21,0.24-0.32,0.36
		c-0.35,0.39-0.71,0.79-1.06,1.2c-0.21,0.32-0.44,0.64-0.68,0.98c-0.24,0.35-0.5,0.71-0.77,1.09l14.31,7.84
		c0.13-0.32,0.27-0.61,0.42-0.88c0.48-0.85,1.09-1.5,1.71-1.54c0,0,1.01-0.83,1.68-2.44c0.34-0.81,0.58-1.83,0.69-3.14
		c0.12-1.31,0.11-2.93,0.15-4.91c0.07-2.75,0.22-5.96,0.6-10.57c-0.06,0.03-0.12,0.06-0.18,0.1l0,0l0,0l0,0l0,0
		c0.02-1.64,0.1-3.35,0.23-5.08c-0.12-0.35-0.28-0.77-0.48-1.26c-0.54-1.3-1.34-3.02-2.56-4.64c-1.23-1.62-2.89-3.12-5.31-3.89
		C49.92,61.35,48.86,61.18,47.68,61.18"/>
	<path class="st457" d="M86.13,66.63c-0.98,0-2.4,0.46-3.9,1.06c-1.75,0.7-3.58,1.61-5.02,2.3c-1.43,0.7-2.41,1.23-2.41,1.23
		c-0.38,0.72-0.9,1.32-1.51,1.8c-0.03,0.08-0.06,0.16-0.1,0.24c-0.84,2.07-1.75,4.22-2.74,6.39c-0.25,0.54-0.5,1.08-0.76,1.62
		c-0.23,0.53-0.57,1.11-0.73,1.59c-0.23,0.92-0.46,1.82-0.64,2.67c-0.77,3.41-1.12,6.06-1.46,8.27c-0.02,0.11-0.03,0.22-0.05,0.32
		c1.38-1.1,2.79-2.25,4.16-3.44c3.61-3.14,6.97-6.47,9.42-9.03c1.21-1.29,2.19-2.38,2.89-3.14c0.7-0.76,1.07-1.21,1.07-1.21
		c0.57-1.22,1.28-3.09,1.75-4.7c0.49-1.6,0.83-2.89,0.83-2.89c0.38-0.83,0.55-1.46,0.55-1.93C87.47,66.95,86.96,66.63,86.13,66.63"
		/>
	<path class="st457" d="M39.61,92.06c-1,1.39-2.18,2.92-3.48,4.48L53,104.5c0.02-0.78,0.1-1.56,0.24-2.3
		c0.15-0.83,0.38-1.62,0.67-2.3L39.61,92.06"/>
	<path class="st457" d="M35.5,96.25c-0.95,1.07-1.85,2.06-2.65,2.93l0.68,0.32c0.9-0.97,1.78-1.97,2.6-2.96L35.5,96.25"/>
	<path class="st457" d="M41.42,103.62c-0.13,1.69-0.21,3.33-0.21,4.93c0,0.37,0,0.75,0.02,1.11c1.99-1.32,3.89-2.49,5.58-3.5
		L41.42,103.62"/>
	<path class="st457" d="M53,104.5c0,0.12,0,0.25,0,0.37c0,1.46,0.22,2.91,0.66,4.12l0.93,0.44c-0.34-0.76-0.6-1.49-0.76-2.04
		c-0.16-0.54-0.24-0.89-0.24-0.89c-0.29-0.64-0.44-1.3-0.49-1.97L53,104.5"/>
	<path class="st457" d="M41.22,109.66c-0.22,0.15-0.44,0.29-0.67,0.44l0.7,0.33C41.24,110.18,41.23,109.92,41.22,109.66
		 M41.22,109.66L41.22,109.66L41.22,109.66L41.22,109.66L41.22,109.66"/>
	<path class="st458" d="M56.14,47.68c-1.06,0-2.05,0.24-2.97,0.66c-0.5,0.23-0.88,0.46-1.41,0.81c-0.68,0.42-1.34,0.88-1.95,1.36
		c-1.22,0.97-2.33,2.05-3.31,3.12c-1.96,2.15-3.24,4.44-4,6.17c-0.41,0.93-0.67,1.7-0.83,2.21c-0.14,0.44-0.19,0.69-0.19,0.69
		c0.57-0.27,1.14-0.51,1.68-0.7c0.83-0.3,1.63-0.5,2.4-0.63c0.74-0.13,1.44-0.18,2.1-0.18c1.18,0,2.25,0.18,3.19,0.47
		c2.42,0.77,4.09,2.28,5.31,3.89c1.22,1.62,2.02,3.35,2.56,4.64c0.2,0.49,0.36,0.92,0.48,1.26c0.2,0.57,0.3,0.92,0.3,0.92l0,0l0,0
		l0,0l0,0c-0.14,1.47-0.25,2.82-0.35,4.07c-0.37,4.61-0.52,7.82-0.6,10.57c-0.04,1.98-0.03,3.6-0.15,4.91
		c-0.11,1.31-0.36,2.33-0.69,3.14c-0.67,1.6-1.68,2.44-1.68,2.44c-0.62,0.04-1.23,0.69-1.71,1.54c-0.15,0.27-0.29,0.56-0.42,0.88
		l8.14,4.46c-0.07-0.17-0.11-0.34-0.11-0.51l0,0c0-0.09,0.01-0.17,0.03-0.26c0,0,0-0.01,0-0.01l0,0c0-0.24,0.17-0.29,0.4-0.29
		c0.08,0,0.18,0.01,0.27,0.01c0.1,0.01,0.19,0.01,0.29,0.01c0.13,0,0.26-0.01,0.38-0.06l0,0c0.25-0.75,1.56-0.31,2.27-0.93
		c0.43-0.33,0.85-0.46,1.28-0.46c0.5,0,1.02,0.17,1.59,0.39c0.49,0.2,1.02,0.44,1.55,0.65c0.05-0.19,0.09-0.38,0.13-0.59l0.04-0.23
		l0.02-0.17l-0.02-0.17c-0.06-0.46-0.29-0.97-0.49-1.38c-0.2-0.41-0.38-0.72-0.38-0.72c-1.66-1.44-2.34-2.53-2.63-3.16
		c-0.16-0.37-0.2-0.59-0.2-0.71l0,0c0-0.09,0.02-0.12,0.02-0.12c0.13-0.47,0.23-0.98,0.31-1.53c0.02-0.11,0.03-0.21,0.05-0.32
		c0.34-2.21,0.69-4.86,1.46-8.27c0.19-0.85,0.41-1.75,0.64-2.67c0.16-0.48,0.49-1.07,0.73-1.59c0.25-0.55,0.51-1.09,0.76-1.62
		c0.98-2.17,1.9-4.32,2.74-6.39c0.03-0.08,0.06-0.16,0.1-0.24c0.84-2.09,1.61-4.09,2.28-5.9c0.63-1.69,1.17-3.22,1.62-4.52
		c0.95-2.74,1.47-4.46,1.47-4.46c0.14-0.45,0.2-0.88,0.2-1.3c0.01-3.31-4.12-5.48-8.64-6.7c-5.06-1.39-10.54-1.56-10.54-1.56
		C58.43,47.95,57.25,47.68,56.14,47.68"/>
	<path class="st458" d="M43.18,86.66c0,0-0.27,0.44-0.75,1.2c-0.06,0.09-0.12,0.19-0.18,0.29C42.69,87.77,43.02,87.28,43.18,86.66"
		/>
	<path class="st458" d="M42.24,88.15c-0.06,0.05-0.13,0.1-0.19,0.15c-0.72,0.53-1.66,0.81-2.56,0.93c-0.52,0.07-1.03,0.09-1.48,0.09
		c-0.91,0-1.56-0.1-1.56-0.1c-0.18,0.26-0.4,0.5-0.66,0.74l3.83,2.1c0.27-0.38,0.53-0.74,0.77-1.09c0.24-0.34,0.47-0.67,0.68-0.98
		C41.53,89.28,41.92,88.65,42.24,88.15"/>
	<path class="st458" d="M35.78,89.97c-1.59,1.44-4.52,2.4-7.36,2.94l7.7,3.63c1.3-1.56,2.48-3.09,3.48-4.48L35.78,89.97"/>
	<path class="st458" d="M36.13,96.54c-0.9,1.08-1.86,2.17-2.86,3.23l20.59,9.71c-0.07-0.16-0.13-0.32-0.2-0.49
		c-0.44-1.21-0.66-2.66-0.66-4.12l0,0c0-0.12,0-0.25,0-0.37L36.13,96.54 M36.13,96.54L36.13,96.54L36.13,96.54"/>
	<path class="st458" d="M53.92,99.9c-0.28,0.69-0.51,1.47-0.67,2.3c-0.14,0.74-0.23,1.52-0.24,2.3l0.09,0.04l9.14,4.31
		c0.79-0.58,1.74-1.15,2.55-1.62c-0.73-0.51-1.39-1.07-1.98-1.65c-0.25-0.39-0.58-0.8-0.74-1.22L53.92,99.9"/>
	<path class="st459" d="M108.08,23.45l-13.05,5.33c-1.53,0.62-3.05,1.24-4.67,1.52c0,0,0,0-0.01,0c-0.02,0-0.04-0.04-0.04-0.11l0,0
		c0-0.11,0.04-0.31,0.12-0.57c-0.41,0.15-0.82,0.31-1.22,0.48c-0.18,0.31-1,1.04-1.18,1.35c-0.36,0.08-0.69,0.12-1.03,0.12
		c-0.55,0-1.11-0.1-1.79-0.29c-2.42-1.16-5.15-1.52-7.98-1.52c-1.38,0-2.78,0.08-4.2,0.2c-2.89,0.23-5.81,0.59-8.6,0.59
		c-1.37,0-2.72-0.09-4.02-0.32c-0.34-0.01-0.72-0.02-1.12-0.02c-1.49,0-3.29,0.16-4.67,1.06c-1.27,0.98-3.2,1.64-4.12,2.8
		c-0.76,1.24-1.38,2.67-1.95,4.1c-0.28,0.72-0.55,1.44-0.82,2.15l-0.1,0.27c-0.04,0.09-0.14,0.21-0.21,0.32l-0.46,0.65
		c-0.3,0.43-0.6,0.85-0.89,1.27l2.71-1.33l0.72-0.34l1.14-0.54l3.74-1.73c1.89-1.72,4.98-2.79,8-2.79c0.17,0,0.33,0,0.5,0.01
		c0.12-0.02,0.24-0.03,0.36-0.03c1.7,0,3.87,1.65,5.34,3.27c0.47,0.69,0.33,1.84,0.8,2.53c2.05,2.43,4.97,2.97,6.06,6.51
		c0.17,1.33,2.45,2.34,3.95,2.47c1.03-0.04,4.23-3.22,7.83-6.8c3.59-3.58,7.61-7.55,9.78-9.42l6.82-5.88l12.21,9.54
		c1.26,0.98,2.33,1.94,3.24,3c0.92,1.04,1.65,2.04,2.21,2.94c1.17,1.86,1.64,3.14,1.94,3.93c0.4,1.06,0.76,2.01,1.12,2.98
		c0.31,0.83,0.6,1.55,0.87,2.33c0.49,1.39,0.88,2.77,0.88,4.32l0,0c0,0.04,0,0.07,0,0.11c-0.31,3.05-1.04,4.96-1.77,6.51
		c-0.75,1.53-1.58,2.64-2.42,3.57c-0.2,0.2-0.45,0.51-0.62,0.61l-0.49,0.26l-1,0.5c-0.67,0.32-1.35,0.63-2.03,0.96
		c-1.68,0.9-3.53,3.08-5.07,5c-1.53,1.92-2.74,3.59-2.92,3.61c-1.84-1.97-4.66-3.46-5.26-6.21c-0.08-0.34-0.87-0.61-1.3-0.91
		c-0.29-0.1-0.67-0.14-1.02-0.14c-0.51,0-0.97,0.09-1.09,0.24l0,0l0,0l0,0l0,0c0.02-0.09,0.03-0.16,0.03-0.21
		c0-0.09-0.03-0.13-0.08-0.13c-0.33,0-1.67,1.76-2.94,3.55c-1.18,1.69-2.3,3.42-2.3,3.96c0,0.11,0.05,0.17,0.15,0.17
		c0.08,0,0.2-0.04,0.36-0.12l0,0l0,0l0,0l0,0c-2.92,1.74-1.99,6.18-4.27,9.22c-1.61,2.37-5.12,3.1-6.12,5.73
		c-1.01,1.96-1.77,4.31-3.91,4.33c-1.41,0.12-2.48,0.3-3.59,0.79c-0.74,0.56-1.44,1.2-2.14,1.8c0.01,0.03,0.03,0.06,0.04,0.09
		c0.22,0.41,0.3,0.63,0.32,0.74c0,0,0,0,0,0c0,0,0,0,0,0c0,0.01,0,0.02,0,0.03c0,0,0,0,0,0c0,0,0,0,0,0c0,0,0,0,0,0c0,0,0,0,0,0
		c0,0,0,0.01,0,0.01l0,0l0,0l0,0l0,0l0,0l0,0l0,0l0,0l-0.03,0.07l-0.02,0.01l-0.19-0.07l-0.09,0.11c0,0.1,0.05,0.24,0.13,0.39
		c0.18,0.34,0.49,0.67,0.49,0.67c1.09,0.7,1.81,1.13,2.29,1.39c0.54-0.27,1.05-0.59,1.55-0.96c1.07-0.62,2.13-1.32,3.04-1.98
		c0.92-0.67,1.83-1.35,2.67-2.09c1.71-1.46,3.27-3.07,4.66-4.85c-0.02-0.13-0.02-0.26-0.02-0.38l0,0c0-2.33,2.56-3.51,3.83-5.03
		c0.46-0.45,1.14-0.68,1.83-1.13c1.34-1.39,1.81-3.5,3.71-3.79c4.08-0.35,7.91-1.11,11.66-2.76c1.51-0.67,4.8-2.88,7.88-5.44
		c1.54-1.28,3.05-2.61,4.26-3.81c0.3-0.3,0.59-0.59,0.87-0.86c0.13-0.14,0.27-0.27,0.39-0.4l0.18-0.19l0.09-0.09l0.13-0.2
		c0.74-1.1,1.34-2.24,1.74-3.1c0.64-1.33,1.22-2.86,1.69-4.72c0.45-1.85,0.82-4.08,0.82-6.88c0-0.08,0-0.16,0-0.24
		c-0.02-2.84-0.49-6.66-2.19-10.79c-0.21-0.51-0.42-1-0.67-1.52c-0.26-0.53-0.53-1.05-0.82-1.56c-0.57-1.03-1.19-2.02-1.92-2.99
		c-1.43-1.97-3.04-3.62-4.79-5.11L108.08,23.45"/>
	<path class="st459" d="M76.48,101.03c-0.36,0.31-0.72,0.61-1.09,0.89c-1.09,0.82-2.28,1.47-3.6,1.47c0,0-0.01,0-0.01,0
		c-1.09-0.09-2.28-0.7-3.33-1.13c-0.57-0.22-1.09-0.39-1.59-0.39c-0.43,0-0.85,0.13-1.28,0.46c-0.71,0.63-2.01,0.18-2.27,0.93
		c0.55,0.36,1.08,1.11,2.02,1.46c0.78,0.37,1.68,0.46,2.56,0.46c0.09,0,0.18,0,0.27,0c0.44-0.01,0.88-0.02,1.33-0.02
		c0.53,0,1.07,0.03,1.6,0.13c1.29,0.1,2.56,0.29,3.87,0.29c0.78,0,1.57-0.07,2.39-0.25c0.76-0.24,1.44-0.51,2.08-0.84
		c-0.48-0.26-1.2-0.69-2.29-1.39c0,0-0.31-0.33-0.49-0.67c-0.08-0.15-0.13-0.3-0.13-0.39l0,0l0,0l0,0l0,0l0,0l0,0l0.09-0.11
		l0.19,0.07l0.02-0.01l0.03-0.07c0,0,0-0.01,0-0.01c0,0,0,0,0,0c0,0,0,0,0,0c0,0,0,0,0,0c0,0,0,0,0,0c0-0.01,0-0.02,0-0.03
		c0,0,0,0,0,0c0,0,0,0,0,0c-0.02-0.12-0.1-0.33-0.32-0.74C76.51,101.08,76.49,101.06,76.48,101.03"/>
	<path class="st460" d="M76.53,102.03L76.53,102.03c0,0.1,0.05,0.24,0.13,0.39c0.18,0.34,0.49,0.67,0.49,0.67
		c1.09,0.7,1.81,1.13,2.29,1.39l0,0c-0.47-0.25-1.16-0.67-2.2-1.33c-0.03-0.02-0.06-0.04-0.09-0.06c0,0-0.31-0.33-0.49-0.67
		C76.58,102.27,76.53,102.12,76.53,102.03 M76.48,101.03L76.48,101.03L76.48,101.03c0.01,0.03,0.03,0.06,0.04,0.09
		c0.22,0.41,0.3,0.63,0.32,0.74l0,0c-0.02-0.12-0.1-0.33-0.32-0.74l0,0C76.51,101.08,76.49,101.06,76.48,101.03"/>
	<path class="st461" d="M21.6,81.32c0.36,0.03,0.7,0.04,1.04,0.04c-0.16,0-0.32,0-0.48-0.01C21.97,81.35,21.79,81.34,21.6,81.32"/>
	<path class="st461" d="M76.52,101.11c0.22,0.41,0.3,0.63,0.32,0.74C76.82,101.74,76.74,101.52,76.52,101.11"/>
	<polyline class="st461" points="76.85,101.89 76.85,101.89 76.85,101.89 	"/>
	<path class="st462" d="M76.53,102.03L76.53,102.03c0,0.1,0.05,0.24,0.13,0.39c0.18,0.34,0.49,0.67,0.49,0.67
		c0.03,0.02,0.06,0.04,0.09,0.06c1.04,0.66,1.74,1.08,2.2,1.33l0,0c-0.48-0.26-1.2-0.69-2.29-1.39c0,0-0.31-0.33-0.49-0.67
		C76.58,102.27,76.53,102.12,76.53,102.03"/>
	<path class="st461" d="M77.24,103.14c1.04,0.66,1.74,1.08,2.2,1.33l0,0C78.97,104.22,78.28,103.81,77.24,103.14"/>
	<path class="st463" d="M106.41,18.04l-12.43,7.61c-2.29,1.4-3.24,3.06-3.55,3.97c-0.09,0.26-0.12,0.46-0.12,0.57
		c0,0.07,0.01,0.11,0.04,0.11c0,0,0,0,0.01,0c1.63-0.28,3.15-0.89,4.67-1.52l13.05-5.33l11.96,10.14c1.76,1.49,3.36,3.15,4.79,5.11
		c0.72,0.97,1.34,1.96,1.92,2.99c0.29,0.51,0.56,1.04,0.82,1.56c0.25,0.52,0.46,1,0.67,1.52c1.7,4.13,2.17,7.95,2.19,10.79
		c0,0.08,0,0.16,0,0.24l0,0c0,2.8-0.37,5.03-0.82,6.88c-0.47,1.86-1.05,3.39-1.69,4.72c-0.41,0.87-1.01,2-1.74,3.1l-0.13,0.2
		l-0.09,0.09l-0.18,0.19c-0.13,0.13-0.26,0.26-0.39,0.4c-0.27,0.27-0.56,0.56-0.87,0.86c-1.21,1.2-2.73,2.54-4.26,3.81
		c-3.07,2.56-6.37,4.77-7.88,5.44c-3.75,1.65-7.58,2.42-11.66,2.76c-1.9,0.28-2.37,2.4-3.71,3.79c-0.69,0.46-1.37,0.68-1.83,1.13
		c-1.27,1.53-3.83,2.71-3.83,5.03c0,0.12,0.01,0.25,0.02,0.38l0,0l0,0l0,0l0,0c-1.39,1.78-2.95,3.39-4.66,4.85
		c-0.84,0.74-1.75,1.42-2.67,2.09c-0.92,0.66-1.97,1.36-3.04,1.98c-0.5,0.37-1.01,0.68-1.55,0.96l0,0c-0.64,0.33-1.33,0.6-2.08,0.84
		c-0.82,0.19-1.61,0.25-2.39,0.25c-1.31,0-2.58-0.19-3.87-0.29c-0.54-0.11-1.07-0.13-1.6-0.13c-0.44,0-0.88,0.02-1.33,0.02
		c-0.09,0-0.18,0-0.27,0c-0.89,0-1.78-0.09-2.56-0.46c-0.94-0.35-1.47-1.1-2.02-1.46l0,0c-0.11,0.05-0.24,0.06-0.38,0.06
		c-0.1,0-0.2-0.01-0.29-0.01c-0.1-0.01-0.19-0.01-0.27-0.01c-0.23,0-0.4,0.05-0.4,0.29c0,0,0,0.01,0,0.01l0,0l0,0l0,0l0,0
		c-0.02,0.09-0.03,0.17-0.03,0.26c0,0.17,0.04,0.34,0.11,0.51l0,0c0.17,0.42,0.49,0.84,0.74,1.22c2.23,2.18,5.51,4.05,9.08,4.3
		c0.44,0.03,0.88,0.04,1.32,0.04c3.79,0,7.46-0.92,10.69-2.24c0.91-0.37,1.77-0.78,2.61-1.21l1.22-0.66
		c0.37-0.21,0.75-0.42,1.11-0.64c1.48-0.88,2.88-1.9,4.2-3.05c0.99-0.9,1.03-2.33,1.51-3.5c0.97-2.78,4.31-4.61,4.32-8.2
		c0-0.02,0-0.04,0-0.06l0,0c0-0.46,0.43-0.9,0.88-1.13c5.71-1.45,10.97-3.27,16.41-5.73c1.77-0.74,4.99-3.1,7.86-5.7
		c1.43-1.3,2.82-2.63,3.91-3.78c0.54-0.58,1.03-1.1,1.44-1.54l0.15-0.16c0.05-0.05,0.15-0.23,0.22-0.34
		c0.15-0.25,0.29-0.49,0.43-0.71c0.27-0.46,0.49-0.87,0.67-1.21c0.85-1.79,1.63-3.81,2.23-6.3c0.51-2.15,0.91-4.68,0.91-7.72
		c0-0.47-0.01-0.94-0.03-1.44c-0.15-3.66-1-8.15-3.12-12.58c-1.1-2.26-2.38-4.32-3.9-6.2c-1.51-1.9-3.09-3.39-4.75-4.76
		L106.41,18.04"/>
</g>
<g>
	<path d="M72.79,120.82c-4.89-0.58-9.79-1.17-14.68-1.73c-3.47-0.4-6.88-1.53-10.42-1.12c-2.23,0.26-4.51,0.39-6.64,1.05
		c-2.95,0.91-5.77,0.74-8.59-0.24c-2.72-0.94-4.26-3.02-4.43-6.15c-0.09-1.52-0.2-3.08-0.02-4.58c0.27-2.34-0.24-4.48-0.97-6.62
		c-0.74-2.19-1.64-4.34-2.15-6.59c-0.4-1.73-0.35-3.59-0.45-5.39c-0.33-6.41,1.24-12.28,4.06-17.9c1.13-2.25,2.74-4.24,3.15-6.98
		c0.21-1.35,1.39-2.64,2.37-3.71c2.74-3.02,5.53-5.99,8.44-8.82c2.91-2.84,5.96-5.52,9-8.2c4.06-3.58,8.84-5.69,13.7-7.63
		c3.57-1.43,7.14-2.88,10.73-4.24c1.25-0.47,2.58-0.85,3.89-0.96c2.82-0.25,5.65-0.38,8.48-0.43c3.09-0.06,6.18,0.07,9.21,0.9
		c1.21,0.33,2.46,0.5,3.63,0.93c4.01,1.47,8,3.01,11.99,4.56c3.37,1.3,5.99,3.32,6.88,7.45c0.6,2.79,1.62,5.47,2.52,8.17
		c0.39,1.17,0.97,2.25,1.41,3.4c1.84,4.8,2.96,9.77,2.73,15.01c-0.32,7.2-2.28,13.87-6.12,19.73c-2.64,4.03-5.56,7.85-8.59,11.54
		c-1.47,1.79-3.41,3.19-5.26,4.56c-3.86,2.83-7.67,5.78-11.97,7.8c-3.2,1.51-6.42,3.01-9.73,4.13
		C81.02,120.1,76.94,120.56,72.79,120.82z M125.07,71.51c0.12-6.73-0.81-10.97-2.66-15.03c-0.8-1.76-1.38-3.66-2-5.51
		c-0.81-2.45-1.57-4.93-2.33-7.4c-0.69-2.25-2.3-3.68-4.14-4.45c-4.08-1.71-8.35-2.76-12.39-4.76c-3.29-1.63-7.03-2.18-10.74-2.18
		c-1.58,0-3.15-0.2-4.73-0.21c-3.95-0.03-7.76,0.72-11.47,2.25c-3.1,1.28-6.22,2.56-9.42,3.51c-4.56,1.35-8.79,3.33-12.44,6.6
		c-4.36,3.91-8.71,7.83-12.97,11.87c-2.86,2.7-5.57,5.59-6.24,9.95c-0.05,0.33-0.31,0.64-0.52,0.91c-3.59,4.8-5.66,10.29-6.87,16.33
		c-1.16,5.77-0.02,11.07,1.82,16.34c1.19,3.41,2.15,6.76,1.4,10.52c-0.69,3.47,1.53,6.85,4.75,7.34c1.87,0.28,3.94,0.51,5.69-0.07
		c4.7-1.57,9.44-1.04,14.1-0.53c6.75,0.73,13.39,2.36,20.29,1.91c5.65-0.36,11.08-1.27,16.21-3.89c2.18-1.11,4.38-2.17,6.5-3.39
		c1.9-1.1,3.69-2.42,5.54-3.61c8.08-5.22,13.81-12.78,18.66-21.36C124.16,81.23,124.97,75.4,125.07,71.51z"/>
	<path d="M65.19,113.29c2.48-0.24,4.6-0.44,6.72-0.64c0.05,0.13,0.1,0.25,0.15,0.38c-1.12,0.54-2.2,1.26-3.37,1.56
		C67.5,114.87,66.08,115.18,65.19,113.29z"/>
	<path d="M99.64,102.99c1.5-1.1,2.69-1.97,4.04-2.96C102.94,102.52,101.61,103.58,99.64,102.99z"/>
	<path d="M84.34,107.61c-1.28,0.53-2.55,1.12-3.86,1.54c-0.25,0.08-0.68-0.48-1.43-1.06c2.03-0.48,3.47-1.45,5.16-1.07
		C84.26,107.22,84.3,107.41,84.34,107.61z"/>
	<path d="M90.67,109.61c-0.61,1.81-1.96,1.77-2.97,2.24c-0.24,0.11-0.68-0.31-1.64-0.79C87.86,110.49,89.1,110.1,90.67,109.61z"/>
	<path d="M110.89,91.94c-0.51,1.66-0.86,3.46-2.86,4.35C108.04,93.89,110.05,93.34,110.89,91.94z"/>
	<path d="M120.33,78.77c0.38,2.04-0.48,3.19-1.13,4.86C118.54,81.72,118.77,80.85,120.33,78.77z"/>
	<path d="M98.25,98.14c1.55-1.34,2.74-2.35,4.1-3.52C101.55,97.1,100.38,98.19,98.25,98.14z"/>
	<path d="M88.93,104.37c0.39-2.39,2.17-2.39,3.14-3.39C91.63,102.59,91.56,102.66,88.93,104.37z"/>
	<path d="M115.54,78.81c0.39,2.17-0.72,3.2-1.16,4.6C113.66,82.11,113.66,82.11,115.54,78.81z"/>
	<path d="M94.66,104.81c-1.31,2.02-1.49,2.08-3.55,1.24C92.52,105.56,93.59,105.18,94.66,104.81z"/>
	<path d="M80.18,113.77c-1.01,0.1-2.03,0.2-3.04,0.3c1.07-1.09,1.07-1.09,2.99-0.86C80.14,113.4,80.16,113.58,80.18,113.77z"/>
	<path d="M106.37,89.47c0.64-0.96,1.28-1.93,2.04-3.09C108.65,88.28,108.32,88.82,106.37,89.47z"/>
	<path d="M35.01,116c0.82,0,1.65,0,2.69,0c-0.9,0.88-1.75,0.87-2.64,0.63C35.04,116.42,35.02,116.21,35.01,116z"/>
	<path d="M118.89,61.79c0.52,1.15,1.09,2.28,0.33,3.75c-0.3-1.17-0.59-2.33-0.89-3.5C118.52,61.96,118.7,61.87,118.89,61.79z"/>
	<path d="M118.3,72.35c-1.43-0.89-0.89-1.51,0.14-2.66C118.37,70.98,118.33,71.67,118.3,72.35z"/>
	<path d="M117.67,45.94c-1.62,0.29-2.45,0.18-2.75-1.89C115.96,44.77,116.57,45.19,117.67,45.94z"/>
	<path d="M40.48,114.57c-0.54,0.65-1.15,1.6-2.49,0.43C39.1,114.81,39.79,114.69,40.48,114.57z"/>
	<path d="M54.49,112.29c0.63,0.21,1.27,0.41,1.9,0.62c-0.03,0.15-0.06,0.31-0.09,0.46c-0.64-0.1-1.28-0.2-1.92-0.29
		C54.42,112.81,54.46,112.55,54.49,112.29z"/>
	<path d="M44.59,111.8c-0.19,0.39-0.36,0.79-0.59,1.15c-0.03,0.04-0.39-0.18-0.6-0.27c0.2-0.4,0.4-0.79,0.6-1.19
		C44.19,111.59,44.39,111.7,44.59,111.8z"/>
</g>
</svg>
