<?xml version="1.0" encoding="utf-8"?>
<!-- Generator: Adobe Illustrator 23.0.1, SVG Export Plug-In . SVG Version: 6.00 Build 0)  -->
<svg version="1.1" id="Layer_1" xmlns="http://www.w3.org/2000/svg" xmlns:xlink="http://www.w3.org/1999/xlink" x="0px" y="0px"
	 viewBox="0 0 150 150" style="enable-background:new 0 0 150 150;" xml:space="preserve">
<style type="text/css">
	.st0{fill:#F49AB4;}
	.st1{fill:#F28DA7;}
	.st2{fill:#E85072;}
	.st3{fill:#E84B6F;}
	.st4{fill:#EB5A7D;}
	.st5{fill:#EF7994;}
	.st6{fill:#F8BCCD;}
	.st7{fill:#F38CA8;}
	.st8{fill:#EF728F;}
	.st9{fill:#FCE4EB;}
	.st10{fill:#F0CCCF;}
	.st11{fill:#DE8D95;}
	.st12{fill:#EBBABF;}
	.st13{fill:#E7ACB2;}
	.st14{fill:#E39DA3;}
	.st15{fill:#F5DEE0;}
	.st16{fill:#D97A83;}
	.st17{fill:#E4A6AD;}
	.st18{fill:#E9B6BB;}
	.st19{fill:#DA9197;}
	.st20{fill:#CC7077;}
	.st21{fill:#C9646C;}
	.st22{fill:#D4848B;}
	.st23{fill:#D17A81;}
	.st24{fill:#DD9EA3;}
	.st25{fill:#C65760;}
	.st26{fill:#D48189;}
	.st27{fill:#CF6E76;}
	.st28{fill:#C1575F;}
	.st29{fill:#B8424B;}
	.st30{fill:#B33C43;}
	.st31{fill:#BB4952;}
	.st32{fill:#C65E66;}
	.st33{fill:#BC4F57;}
	.st34{fill:#B0353D;}
	.st35{fill:#D67E84;}
	.st36{fill:#C6636B;}
	.st37{fill:#CA6C72;}
	.st38{fill:#B9454D;}
	.st39{fill:#C05B63;}
	.st40{fill:#C0545B;}
	.st41{fill:#BE4C53;}
	.st42{fill:#B43C44;}
	.st43{fill:#DF999F;}
	.st44{fill:#D27980;}
	.st45{fill:#C1555D;}
	.st46{fill:#CB6F76;}
	.st47{fill:#C8676E;}
	.st48{fill:#D5838A;}
	.st49{fill:#C65D64;}
	.st50{fill:#F1D1D4;}
	.st51{fill:#D38087;}
	.st52{fill:#CF737C;}
	.st53{fill:#D98C94;}
	.st54{fill:#E6B3B9;}
	.st55{fill:#D8898F;}
	.st56{fill:#C66269;}
	.st57{fill:#C96A72;}
	.st58{fill:#DD9399;}
	.st59{fill:#CF747B;}
	.st60{fill:#D48188;}
	.st61{fill:#D37D85;}
	.st62{fill:#DC9298;}
	.st63{fill:#D8838B;}
	.st64{fill:#FAECED;}
	.st65{fill:#EFCBD0;}
	.st66{fill:#EDC1C5;}
	.st67{fill:#D28089;}
	.st68{fill:#CB747D;}
	.st69{fill:#A8343C;}
	.st70{fill:#A62F37;}
	.st71{fill:#B03E44;}
	.st72{fill:#C25C63;}
	.st73{fill:#E1A8AC;}
	.st74{fill:#BE535C;}
	.st75{fill:#CE727C;}
	.st76{fill:#F5D8DA;}
	.st77{fill:#D8BAE7;}
	.st78{fill:#BC8FD2;}
	.st79{fill:#B17FC9;}
	.st80{fill:#7D3CA4;}
	.st81{fill:#884BAE;}
	.st82{fill:#A369BF;}
	.st83{fill:#D2B5E2;}
	.st84{fill:#9A62BC;}
	.st85{fill:#B17ECB;}
	.st86{fill:#ECE0F2;}
	.st87{fill:#FBCBC8;}
	.st88{fill:#F5908C;}
	.st89{fill:#F28580;}
	.st90{fill:#E64640;}
	.st91{fill:#E5413B;}
	.st92{fill:#E74E49;}
	.st93{fill:#ED6D68;}
	.st94{fill:#F7B5B0;}
	.st95{fill:#ED6660;}
	.st96{fill:#F48580;}
	.st97{fill:#FBDFDF;}
	.st98{fill:#F9C1C0;}
	.st99{fill:#F7B7B6;}
	.st100{fill:#EF7573;}
	.st101{fill:#EF6F6D;}
	.st102{fill:#F17F7C;}
	.st103{fill:#F4A19F;}
	.st104{fill:#F39998;}
	.st105{fill:#EC7271;}
	.st106{fill:#FAD1CF;}
	.st107{fill:#FADCDC;}
	.st108{fill:#F39391;}
	.st109{fill:#FDECEC;}
	.st110{fill:#FCDDDD;}
	.st111{fill:#ED8280;}
	.st112{fill:#E66160;}
	.st113{fill:#F18784;}
	.st114{fill:#F19593;}
	.st115{fill:#EB7675;}
	.st116{fill:#E86867;}
	.st117{fill:#F28785;}
	.st118{fill:#F3A7A7;}
	.st119{fill:#F08C8B;}
	.st120{fill:#F08785;}
	.st121{fill:#E55D5B;}
	.st122{fill:#E86D6C;}
	.st123{fill:#E85F5D;}
	.st124{fill:#E75958;}
	.st125{fill:#EA6664;}
	.st126{fill:#E76260;}
	.st127{fill:#E04948;}
	.st128{fill:#ED7371;}
	.st129{fill:#EA6B6A;}
	.st130{fill:#EB6763;}
	.st131{fill:#E45352;}
	.st132{fill:#E54E4C;}
	.st133{fill:#DE3635;}
	.st134{fill:#E65958;}
	.st135{fill:#E0413E;}
	.st136{fill:#EA6D6A;}
	.st137{fill:#EE9493;}
	.st138{fill:#EA6866;}
	.st139{fill:#F2A8A6;}
	.st140{fill:#E14543;}
	.st141{fill:#E3413F;}
	.st142{fill:#E64A48;}
	.st143{fill:#E56967;}
	.st144{fill:#E33F3D;}
	.st145{fill:#EB7775;}
	.st146{fill:#EE8483;}
	.st147{fill:#E64845;}
	.st148{fill:#E75655;}
	.st149{fill:#E65451;}
	.st150{fill:#EA7473;}
	.st151{fill:#E55B57;}
	.st152{fill:#E75756;}
	.st153{fill:#EB7472;}
	.st154{fill:#EE8C8A;}
	.st155{fill:#F5A3A2;}
	.st156{fill:#E14A49;}
	.st157{fill:#E14D4C;}
	.st158{fill:#E14B49;}
	.st159{fill:#DE3E3D;}
	.st160{fill:#E45350;}
	.st161{fill:#E14544;}
	.st162{fill:#E54E4B;}
	.st163{fill:#E34240;}
	.st164{fill:#E75C5A;}
	.st165{fill:#EB7C7B;}
	.st166{fill:#F3A2A1;}
	.st167{fill:#EA7877;}
	.st168{fill:#E66B6A;}
	.st169{fill:#E96A69;}
	.st170{fill:#E56160;}
	.st171{fill:#E44845;}
	.st172{fill:#EC7473;}
	.st173{fill:#F9C0D3;}
	.st174{fill:#F298B5;}
	.st175{fill:#EE89A7;}
	.st176{fill:#E54D73;}
	.st177{fill:#E44771;}
	.st178{fill:#E7567E;}
	.st179{fill:#EC7797;}
	.st180{fill:#F8BCCF;}
	.st181{fill:#EB6D8F;}
	.st182{fill:#F089A8;}
	.st183{fill:#FCE2EB;}
	.st184{fill:#E55B7F;}
	.st185{fill:#E6708E;}
	.st186{fill:#EB87A2;}
	.st187{fill:#E25677;}
	.st188{fill:#E7678B;}
	.st189{fill:#FBD7E3;}
	.st190{fill:#ED80A1;}
	.st191{fill:#E24166;}
	.st192{fill:#E13B65;}
	.st193{fill:#E34870;}
	.st194{fill:#E76486;}
	.st195{fill:#F49DB8;}
	.st196{fill:#F7BFD1;}
	.st197{fill:#E65C7F;}
	.st198{fill:#F6ABC4;}
	.st199{fill:#F6A7C2;}
	.st200{fill:#EA6189;}
	.st201{fill:#DB3258;}
	.st202{fill:#DA2E55;}
	.st203{fill:#F7B2C9;}
	.st204{fill:#EA6A8D;}
	.st205{fill:#DC355B;}
	.st206{fill:#DB3159;}
	.st207{fill:#DF3C63;}
	.st208{fill:#F9C5D6;}
	.st209{fill:#EB7697;}
	.st210{fill:#DE3B61;}
	.st211{fill:#DE375F;}
	.st212{fill:#E1426A;}
	.st213{fill:#FDE7EE;}
	.st214{fill:#EE89A9;}
	.st215{fill:#E2456B;}
	.st216{fill:#E14069;}
	.st217{fill:#E44D75;}
	.st218{fill:#E86B8C;}
	.st219{fill:#EE7A9C;}
	.st220{fill:#F5A8C0;}
	.st221{fill:#FACBDA;}
	.st222{fill:#E65A7D;}
	.st223{fill:#E04169;}
	.st224{fill:#FEF5F9;}
	.st225{fill:#F191B0;}
	.st226{fill:#EA7292;}
	.st227{fill:#F6B4C9;}
	.st228{fill:#FBD8E5;}
	.st229{fill:#E96C8F;}
	.st230{fill:#E35477;}
	.st231{fill:#EA7396;}
	.st232{fill:#EB7A9D;}
	.st233{fill:#E8698D;}
	.st234{fill:#EB7094;}
	.st235{fill:#E04B6E;}
	.st236{fill:#E66085;}
	.st237{fill:#EB7294;}
	.st238{fill:#E7678C;}
	.st239{fill:#EA6D91;}
	.st240{fill:#E14C71;}
	.st241{fill:#EE7A9D;}
	.st242{fill:#F393B2;}
	.st243{fill:#DC3F64;}
	.st244{fill:#EF82A3;}
	.st245{fill:#F39DB9;}
	.st246{fill:#DF466B;}
	.st247{fill:#DF4469;}
	.st248{fill:#F29A98;}
	.st249{fill:#E64F4D;}
	.st250{fill:#E74947;}
	.st251{fill:#E85956;}
	.st252{fill:#EC7775;}
	.st253{fill:#F8BCBA;}
	.st254{fill:#EC6F6D;}
	.st255{fill:#FCE2E2;}
	.st256{fill:#F8C8C6;}
	.st257{fill:#F08B89;}
	.st258{fill:#F18A89;}
	.st259{fill:#B093A4;}
	.st260{fill:#A38295;}
	.st261{fill:#6F455A;}
	.st262{fill:#694055;}
	.st263{fill:#794F64;}
	.st264{fill:#936F83;}
	.st265{fill:#CDB7C1;}
	.st266{fill:#B596A5;}
	.st267{fill:#A58394;}
	.st268{fill:#8C667A;}
	.st269{fill:#B696A7;}
	.st270{fill:#E8E0E7;}
	.st271{fill:#E1BCC2;}
	.st272{fill:#A9666E;}
	.st273{fill:#681C23;}
	.st274{fill:#641920;}
	.st275{fill:#73242D;}
	.st276{fill:#8D3F48;}
	.st277{fill:#C69197;}
	.st278{fill:#893841;}
	.st279{fill:#E3CCCE;}
	.st280{fill:#6F292E;}
	.st281{fill:#A15A63;}
	.st282{fill:#944952;}
	.st283{fill:#944953;}
	.st284{fill:#964A53;}
	.st285{fill:#984B54;}
	.st286{fill:#974A53;}
	.st287{fill:#A25A62;}
	.st288{fill:#D2BCC8;}
	.st289{fill:#C8B2BE;}
	.st290{fill:#936A80;}
	.st291{fill:#8E667B;}
	.st292{fill:#9B7589;}
	.st293{fill:#B293A3;}
	.st294{fill:#916B7F;}
	.st295{fill:#DDCCD6;}
	.st296{fill:#AC8B9C;}
	.st297{fill:#F1EBEF;}
	.st298{fill:#9C7A8C;}
	.st299{fill:#8F6C80;}
	.st300{fill:#B99DAC;}
	.st301{fill:#A27F91;}
	.st302{fill:#C2A7B6;}
	.st303{fill:#AB8E9F;}
	.st304{fill:#936D82;}
	.st305{fill:#856174;}
	.st306{fill:#B99DAB;}
	.st307{fill:#C2A9B6;}
	.st308{fill:#A38091;}
	.st309{fill:#BBA3B0;}
	.st310{fill:#7A5468;}
	.st311{fill:#855F73;}
	.st312{fill:#AE8E9F;}
	.st313{fill:#7C556A;}
	.st314{fill:#7B5066;}
	.st315{fill:#855C71;}
	.st316{fill:#AF8E9F;}
	.st317{fill:#734B60;}
	.st318{fill:#694256;}
	.st319{fill:#916A80;}
	.st320{fill:#886378;}
	.st321{fill:#875C71;}
	.st322{fill:#714B5E;}
	.st323{fill:#582F42;}
	.st324{fill:#795066;}
	.st325{fill:#5E3A4B;}
	.st326{fill:#8A6578;}
	.st327{fill:#A98E9D;}
	.st328{fill:#B9A1B1;}
	.st329{fill:#B08F9F;}
	.st330{fill:#B898AA;}
	.st331{fill:#896578;}
	.st332{fill:#653C50;}
	.st333{fill:#623A4E;}
	.st334{fill:#6C4257;}
	.st335{fill:#B28FA1;}
	.st336{fill:#80596E;}
	.st337{fill:#7F586C;}
	.st338{fill:#765063;}
	.st339{fill:#683F53;}
	.st340{fill:#774E63;}
	.st341{fill:#704B5F;}
	.st342{fill:#674355;}
	.st343{fill:#7F5A6E;}
	.st344{fill:#815A6E;}
	.st345{fill:#6A4558;}
	.st346{fill:#5D374A;}
	.st347{fill:#926D80;}
	.st348{fill:#70475B;}
	.st349{fill:#72495E;}
	.st350{fill:#673D52;}
	.st351{fill:#673D51;}
	.st352{fill:#60364B;}
	.st353{fill:#795265;}
	.st354{fill:#683F52;}
	.st355{fill:#7A5368;}
	.st356{fill:#987387;}
	.st357{fill:#70475C;}
	.st358{fill:#A07D92;}
	.st359{fill:#81596E;}
	.st360{fill:#926C7F;}
	.st361{fill:#80596D;}
	.st362{fill:#CDC0E4;}
	.st363{fill:#A998CF;}
	.st364{fill:#644DA1;}
	.st365{fill:#5E479E;}
	.st366{fill:#6F56A9;}
	.st367{fill:#755CAC;}
	.st368{fill:#8975BA;}
	.st369{fill:#C4BAE0;}
	.st370{fill:#755DAD;}
	.st371{fill:#846DB7;}
	.st372{fill:#E7E2F2;}
	.st373{fill:#9B89C5;}
	.st374{fill:#8871B8;}
	.st375{fill:#9C89C6;}
	.st376{fill:#8673B9;}
	.st377{fill:#B9E1BA;}
	.st378{fill:#ADDBAE;}
	.st379{fill:#99D09A;}
	.st380{fill:#65B567;}
	.st381{fill:#5FB261;}
	.st382{fill:#70BB71;}
	.st383{fill:#8DCB8E;}
	.st384{fill:#CBE9CB;}
	.st385{fill:#86C687;}
	.st386{fill:#98D099;}
	.st387{fill:#EBF5EB;}
	.st388{fill:#B9D6C9;}
	.st389{fill:#8EBD9E;}
	.st390{fill:#7DB18E;}
	.st391{fill:#408251;}
	.st392{fill:#3A7F4C;}
	.st393{fill:#4A8C5B;}
	.st394{fill:#68A279;}
	.st395{fill:#B5D4BE;}
	.st396{fill:#7CB38B;}
	.st397{fill:#619D71;}
	.st398{fill:#E0ECE4;}
	.st399{fill:#74A38C;}
	.st400{fill:#679880;}
	.st401{fill:#669780;}
	.st402{fill:#669881;}
	.st403{fill:#285E41;}
	.st404{fill:#235A3C;}
	.st405{fill:#31684A;}
	.st406{fill:#4D8268;}
	.st407{fill:#A1C2B0;}
	.st408{fill:#679981;}
	.st409{fill:#467B62;}
	.st410{fill:#D6E5DF;}
	.st411{fill:#8ECA8F;}
	.st412{fill:#7DC07F;}
	.st413{fill:#409841;}
	.st414{fill:#3A933C;}
	.st415{fill:#4AA14B;}
	.st416{fill:#68B569;}
	.st417{fill:#7CC07D;}
	.st418{fill:#B5DDB5;}
	.st419{fill:#61B062;}
	.st420{fill:#7CC17E;}
	.st421{fill:#E0EFE0;}
	.st422{fill:#EBF5DE;}
	.st423{fill:#D4EAB8;}
	.st424{fill:#D2E9B4;}
	.st425{fill:#D8ECBE;}
	.st426{fill:#E2F0CE;}
	.st427{fill:#F3F9EA;}
	.st428{fill:#DFF0CA;}
	.st429{fill:#FAFDF7;}
	.st430{fill:#D3C9BE;}
	.st431{fill:#CBBEB3;}
	.st432{fill:#BBAC9F;}
	.st433{fill:#97826F;}
	.st434{fill:#947E69;}
	.st435{fill:#9F8A79;}
	.st436{fill:#B5A495;}
	.st437{fill:#DED6CE;}
	.st438{fill:#BBAD9F;}
	.st439{fill:#AE9E8D;}
	.st440{fill:#F2EFEC;}
	.st441{fill:#B1A091;}
	.st442{fill:#B1A090;}
	.st443{fill:#D8BACF;}
	.st444{fill:#976286;}
	.st445{fill:#905778;}
	.st446{fill:#4F1939;}
	.st447{fill:#4C1637;}
	.st448{fill:#5A2144;}
	.st449{fill:#773B60;}
	.st450{fill:#B88FAD;}
	.st451{fill:#6E345A;}
	.st452{fill:#8E567D;}
	.st453{fill:#E1CCDA;}
	.st454{fill:#C4E2A7;}
	.st455{fill:#93C35F;}
	.st456{fill:#8EC15A;}
	.st457{fill:#9AC868;}
	.st458{fill:#B0D587;}
	.st459{fill:#DCEBC3;}
	.st460{fill:#C8E0AA;}
	.st461{fill:#ABD280;}
	.st462{fill:#CAE2A9;}
	.st463{fill:#EFF8E7;}
	.st464{fill:#FFF6C0;}
	.st465{fill:#FFEC97;}
	.st466{fill:#FFDC4B;}
	.st467{fill:#FFD945;}
	.st468{fill:#FFDD54;}
	.st469{fill:#FFE774;}
	.st470{fill:#FFF4BA;}
	.st471{fill:#FFE46C;}
	.st472{fill:#FFF9E2;}
	.st473{fill:#FDE2C1;}
	.st474{fill:#F9CA98;}
	.st475{fill:#F9C18A;}
	.st476{fill:#F5994E;}
	.st477{fill:#F49448;}
	.st478{fill:#F8A158;}
	.st479{fill:#F8B577;}
	.st480{fill:#FCDDBC;}
	.st481{fill:#F8B06F;}
	.st482{fill:#FFEFE2;}
	.st483{fill:#F8A7A4;}
	.st484{fill:#EF8262;}
	.st485{fill:#EC605A;}
	.st486{fill:#EB5B55;}
	.st487{fill:#EC6964;}
	.st488{fill:#F28783;}
	.st489{fill:#F9C4C1;}
	.st490{fill:#F2817A;}
	.st491{fill:#EB6449;}
	.st492{fill:#FCE7E7;}
	.st493{fill:#FFEA88;}
	.st494{fill:#FFEB87;}
	.st495{fill:#FDF2E3;}
	.st496{fill:#FDEFDD;}
	.st497{fill:#F9E1C4;}
	.st498{fill:#FADEB9;}
	.st499{fill:#FADDB7;}
	.st500{fill:#FAE0BF;}
	.st501{fill:#FBE9CF;}
	.st502{fill:#F9DAB8;}
	.st503{fill:#FDF5EB;}
	.st504{fill:#FBE6CB;}
	.st505{fill:#FFFBF7;}
	.st506{fill:#FBDFBE;}
	.st507{fill:#F7D8B5;}
	.st508{fill:#FBE8CF;}
	.st509{fill:#FBE3C8;}
	.st510{fill:#F9E8CF;}
	.st511{fill:#F8DBB7;}
	.st512{fill:#FADBB5;}
	.st513{fill:#F7D5AE;}
	.st514{fill:#FDE9D5;}
	.st515{fill:#FAE3C8;}
	.st516{fill:#F7D1A4;}
	.st517{fill:#F5CD9D;}
	.st518{fill:#F7D8B0;}
	.st519{fill:#F8D4A9;}
	.st520{fill:#F8D3A6;}
	.st521{fill:#F8D8AF;}
	.st522{fill:#F7CD9E;}
	.st523{fill:#F4C896;}
	.st524{fill:#FBE3C5;}
	.st525{fill:#F7DBB8;}
	.st526{fill:#F7D8B1;}
	.st527{fill:#F7D7B0;}
	.st528{fill:#F8CD9F;}
	.st529{fill:#F8CD9E;}
	.st530{fill:#F1BE84;}
	.st531{fill:#F8D0A3;}
	.st532{fill:#F1C38D;}
	.st533{fill:#F8D8B1;}
	.st534{fill:#FBE2C8;}
	.st535{fill:#F9EAD3;}
	.st536{fill:#F9D3AA;}
	.st537{fill:#F7C896;}
	.st538{fill:#F7C794;}
	.st539{fill:#F7CA9A;}
	.st540{fill:#F7D3AB;}
	.st541{fill:#F8D8B5;}
	.st542{fill:#F9E6CF;}
	.st543{fill:#F7C897;}
	.st544{fill:#F8D3AA;}
	.st545{fill:#F7CEA2;}
	.st546{fill:#F4CD9E;}
	.st547{fill:#F5D2A5;}
	.st548{fill:#FBE2C2;}
	.st549{fill:#F5D1A8;}
	.st550{fill:#F8D5AB;}
	.st551{fill:#F2C695;}
	.st552{fill:#F8D3A8;}
	.st553{fill:#F5C998;}
	.st554{fill:#F5C894;}
	.st555{fill:#F2C997;}
	.st556{fill:#F2C48D;}
	.st557{fill:#F4C694;}
	.st558{fill:#F5CE9D;}
	.st559{fill:#F4C594;}
	.st560{fill:#F5C995;}
	.st561{fill:#F4C48F;}
	.st562{fill:#F7D2A6;}
	.st563{fill:#F8DFBB;}
	.st564{fill:#FBE2C3;}
	.st565{fill:#F8CC9E;}
	.st566{fill:#FADFC1;}
	.st567{fill:#F9D8B5;}
	.st568{fill:#F4C997;}
	.st569{fill:#F9DDB8;}
	.st570{fill:#FDFCED;}
	.st571{fill:#FBF7D2;}
	.st572{fill:#F9F6CB;}
	.st573{fill:#F4EBA8;}
	.st574{fill:#F5E9A6;}
	.st575{fill:#F5EDAC;}
	.st576{fill:#F7F5C0;}
	.st577{fill:#FBFBE1;}
	.st578{fill:#F7F0BE;}
	.st579{fill:#FAF6CE;}
	.st580{fill:#FFFBF5;}
	.st581{fill:#BDDB97;}
	.st582{fill:#BBDC99;}
	.st583{fill:#BDDD99;}
	.st584{fill:#B0D484;}
	.st585{fill:#AFD484;}
	.st586{fill:#FFEA87;}
	.st587{fill:#D3E9BA;}
	.st588{fill:#E1EECE;}
	.st589{fill:#D3E8BB;}
	.st590{fill:#E3EECE;}
	.st591{opacity:0.9;}
	.st592{fill:#FFF8CD;}
	.st593{opacity:0.9;fill:#FFEE8A;}
	.st594{fill:#FFF19E;}
	.st595{fill:#FFF5B6;}
	.st596{fill:#FFFBE0;}
	.st597{fill:none;stroke:#FFF4B1;stroke-width:0;}
	.st598{fill:#FFFDF3;}
	.st599{fill:#FACEDD;}
	.st600{opacity:0.9;fill:#F38CAF;}
	.st601{fill:#F5A0BD;}
	.st602{fill:#F8B8CD;}
	.st603{fill:#FCE1EA;}
	.st604{fill:none;stroke:#F7B2C9;stroke-width:0;}
	.st605{fill:#FEF3F7;}
	.st606{fill:#FBDBB6;}
	.st607{fill:#FBD1A3;}
	.st608{fill:#F9B674;}
	.st609{fill:#F8B36E;}
	.st610{fill:#FABB7E;}
	.st611{fill:#FACB99;}
	.st612{fill:#FDE9D1;}
	.st613{fill:#FAC893;}
	.st614{fill:#F9D0A1;}
	.st615{fill:#FFF5EC;}
	.st616{fill:#D7ECC0;}
	.st617{fill:#B1D684;}
	.st618{fill:#ADD680;}
	.st619{fill:#B7D98D;}
	.st620{fill:#C8E2A7;}
	.st621{fill:#E8F2D6;}
	.st622{fill:#C3E0A0;}
	.st623{fill:#F5FAEF;}
	.st624{fill:#A87699;}
	.st625{fill:#A9716E;}
	.st626{fill:#9F698A;}
	.st627{fill:#9F698D;}
	.st628{fill:#65294F;}
	.st629{fill:#632638;}
	.st630{fill:#62244A;}
	.st631{fill:#612335;}
	.st632{fill:#6E3259;}
	.st633{fill:#6D2F40;}
	.st634{fill:#8B4E74;}
	.st635{fill:#C4A1BB;}
	.st636{fill:#9D688D;}
	.st637{fill:#82476E;}
	.st638{fill:#E7D6E1;}
	.st639{fill:#FFF9D6;}
	.st640{fill:#FFF2A6;}
	.st641{fill:#FFF4B0;}
	.st642{fill:#FFF7C4;}
	.st643{fill:#FFFCE6;}
	.st644{fill:#FFF3B5;}
	.st645{fill:#FFED8B;}
	.st646{fill:#FFED94;}
	.st647{fill:#FFF1A4;}
	.st648{fill:#FFF5BF;}
	.st649{fill:#FFF6CD;}
	.st650{fill:#FFE46E;}
	.st651{fill:#FFED98;}
	.st652{fill:#FFF3A9;}
	.st653{fill:#FFEC8D;}
	.st654{fill:#FFE66B;}
	.st655{fill:#FFEC8A;}
	.st656{fill:#FFE66D;}
	.st657{fill:#FFE571;}
	.st658{fill:#FFEF94;}
	.st659{fill:#FFEF9E;}
	.st660{fill:#FFED93;}
	.st661{fill:#FFE873;}
	.st662{fill:#FFE97A;}
	.st663{fill:#FFEC87;}
	.st664{fill:#FFF19F;}
	.st665{fill:#FFF1A8;}
	.st666{fill:#FFEA7E;}
	.st667{fill:#FFEB86;}
	.st668{fill:#FFEF97;}
	.st669{fill:#FFF2B0;}
	.st670{fill:#FFF4BC;}
	.st671{fill:#FFF5C1;}
	.st672{fill:#FFF8CF;}
	.st673{fill:#FFF8DC;}
	.st674{fill:#FFF0A0;}
	.st675{fill:#FFEE92;}
	.st676{fill:#FFF6CE;}
	.st677{fill:#FFFADD;}
	.st678{fill:#FFFBEC;}
	.st679{fill:#FFFDF5;}
	.st680{fill:#F49C52;}
	.st681{fill:#F69D52;}
	.st682{fill:#F8A55E;}
	.st683{fill:#F8B472;}
	.st684{fill:#F59D54;}
	.st685{fill:#F8A65F;}
	.st686{fill:#F8B474;}
	.st687{fill:#FDF3E9;}
	.st688{fill:#FAE8D1;}
	.st689{fill:#FAE8CF;}
	.st690{fill:#FAEBD4;}
	.st691{fill:#F9EDD7;}
	.st692{fill:#FBEFDE;}
	.st693{fill:#FBEFDD;}
	.st694{fill:#FDF8F1;}
	.st695{fill:#FBEDD7;}
	.st696{fill:#FBEFDC;}
	.st697{fill:#FFFBFA;}
	.st698{fill:#FFE771;}
	.st699{fill:#FFEB83;}
	.st700{fill:#FFED90;}
	.st701{fill:#F7B6CB;}
	.st702{fill:#F4A2BB;}
	.st703{fill:#EE7397;}
	.st704{fill:#ED6D94;}
	.st705{fill:#EF7C9F;}
	.st706{fill:#F399B5;}
	.st707{fill:#FAD1DE;}
	.st708{fill:#F291AE;}
	.st709{fill:#F3A1BB;}
	.st710{fill:#FDECF2;}
</style>
<g>
	<path class="st473" d="M64.28,36.24c0,0-0.77,0.15-1.88,0.83l0,0l0,0C63.5,36.4,64.28,36.24,64.28,36.24l0.14,0.02
		c0.01,0,0.02,0,0.03,0l0,0c-0.01,0-0.02,0-0.03,0L64.28,36.24 M66.65,35.53L66.65,35.53c-0.04,0.02-0.08,0.03-0.12,0.05l0,0
		C66.57,35.56,66.61,35.54,66.65,35.53L66.65,35.53 M68.59,34.53c-0.01,0.03-0.03,0.05-0.04,0.08l0,0
		C68.56,34.59,68.58,34.56,68.59,34.53 M88.89,32.92L88.89,32.92c0.26,0.03,0.52,0.06,0.77,0.07c0.36,0.03,0.7,0.04,1.02,0.04
		c0.21,0,0.41-0.01,0.61-0.01l0,0c-0.2,0.01-0.4,0.01-0.61,0.01c-0.33,0-0.67-0.01-1.02-0.04c-0.03,0-0.06,0-0.09-0.01
		C89.34,32.97,89.12,32.95,88.89,32.92 M82.37,31.5c0.08,0.01,0.17,0.02,0.25,0.03c1.41,0.2,2.67,0.45,2.67,0.45
		c0.13,0.05,0.25,0.1,0.38,0.15l0,0c-0.13-0.05-0.25-0.1-0.38-0.15l0,0c0,0-1.26-0.25-2.67-0.45l0,0
		C82.54,31.52,82.46,31.51,82.37,31.5L82.37,31.5 M77.4,31.11C77.4,31.11,77.4,31.11,77.4,31.11C77.4,31.11,77.4,31.11,77.4,31.11
		l0.06,0.01l0,0L77.4,31.11"/>
	<path class="st474" d="M97.56,30.89c-0.09,0-0.18,0.01-0.27,0.03c-1.54,0.52-3.44,1.84-6.01,2.09c0.63-0.03,1.19-0.11,1.68-0.22
		l0,0c1.75-0.37,2.62-1.1,2.64-1.12c0,0,0,0,0,0s0,0,0,0l0,0l0,0c0,0,0,0,0,0s0,0,0,0l0,0l0,0c0,0,0,0,0,0s0,0,0,0
		c-0.02,0.02-0.89,0.74-2.64,1.12l0,0c-0.49,0.11-1.05,0.18-1.68,0.22c-0.27,0.03-0.55,0.04-0.84,0.04c-0.49,0-1.01-0.04-1.56-0.14
		c-1.01-0.13-2.1-0.37-3.21-0.79c-1.75-0.42-3.46-0.72-5.43-0.74c-0.06-0.02-0.14-0.04-0.25-0.06c-0.39,0-0.7,0.03-0.89,0.09
		l-1.66-0.3c-1.38,0.34-2.91,0.52-4.35,0.85c-1.41,0.4-2.84,0.98-3.74,1.68c-0.31,0.28-0.58,0.59-0.82,0.96
		c-0.01,0.03-0.02,0.05-0.03,0.08c0,0-0.01,0-0.02,0.01c-0.01,0.02-0.03,0.04-0.04,0.07c-0.69,0.34-1.33,0.6-1.93,0.81
		c-0.82,0.33-1.67,0.67-2.09,0.68c-0.11,0.04-0.22,0.07-0.33,0.11c-1.25,0.42-2.39,0.97-3.54,2.25c-0.56,0.66-1.11,1.33-1.65,2.01
		c-0.08,0.13-0.17,0.27-0.25,0.41c-0.02,0.03-0.04,0.07-0.06,0.1c0.02-0.03,0.04-0.07,0.06-0.1l0,0l0,0
		c-0.02,0.03-0.04,0.07-0.06,0.1c0.02-0.03,0.04-0.07,0.06-0.1l0,0l0,0c-0.02,0.03-0.04,0.07-0.06,0.1c0.02-0.03,0.04-0.07,0.06-0.1
		c0.08-0.14,0.17-0.28,0.25-0.41c-2.24,2.78-4.41,5.56-7.28,7.52c-2.01,1.46-3.96,2.56-6.19,3.5c-0.27,0.13-0.91,0.17-1.68,0.17
		c-0.33,0-0.68-0.01-1.05-0.02c-1.2,0-2.48-0.05-3.09-0.08c-0.06,0-0.11-0.01-0.17-0.01c-1.06,0-1.99,0.62-2.74,1.43
		c-0.8,0.85-1.36,1.97-1.7,2.96c-0.87,3.34-1.86,6.26-3.3,9.33c-0.63,0.98-1.81,1.39-2.62,2.41c-1.57,2.69-1.46,5.42-2.05,8.04
		c-0.94,2.25-1.32,3.97-1.6,5.19c-0.16,0.97-0.21,1.66-0.21,2.16c0,0.14,0,0.27,0.01,0.39c0.06,0.82,0.29,0.89,0.28,0.97l0,0
		c0,0.02-0.01,0.04-0.04,0.06c-0.28,0.89-1.7,0.8-2.34,1.87c-0.28,0.56-0.37,1.19-0.37,1.8c0,0.19,0.01,0.39,0.02,0.58
		c0.08,0.79,0.26,1.51,0.58,2.12c0.38,0.88,0.77,1.77,1.11,2.66c0.36,0.89,0.73,1.79,0.96,2.67c0.21,0.88,0.45,1.76,0.47,2.65
		c0,0.03,0,0.06,0,0.08l0,0c0,0.05,0,0.1,0,0.15c0.43-0.57,1.16-1.01,1.55-1.5c0.34-0.54,0.54-1.17,0.63-1.85
		c0.1-0.67,0.13-1.4,0.37-2.07c0.31-0.53,0.71-0.9,1.27-1.32c0.63-0.4,0.71-1.1,0.71-1.88c0-0.26-0.01-0.53-0.01-0.8l0,0
		c0-0.04,0-0.09,0-0.13c0-0.04-0.01-0.09-0.01-0.13l0,0c0-0.65,0.37-1.22,0.75-1.77c0.4-0.59,0.9-1.14,1.13-1.8
		c0.34-0.86,0.27-1.81,0.36-2.69c0.08-0.87,0.18-1.73,0.92-2.23c-0.08,0.06-0.15,0.08-0.19,0.08c-0.05,0-0.07-0.03-0.07-0.09l0,0
		c0-0.29,0.51-1.21,1.08-2.08c0.67-0.91,1.4-1.77,1.57-1.77c0.02,0,0.04,0.02,0.04,0.05l0,0c0,0.03-0.01,0.07-0.02,0.12
		c0.05-0.06,0.21-0.09,0.4-0.09c0.21,0,0.47,0.04,0.65,0.12c0.2,0.17,0.58,0.34,0.61,0.51c0.23,1.37,1.62,2.18,2.52,3.16
		c0.15-0.01,2.21-2.66,3.9-2.87c0.66-0.07,1.32-0.08,1.91-0.17c0.61-0.09,1.17-0.23,1.62-0.59c0.02-0.05,0.03-0.1,0.03-0.16
		c0-0.24-0.15-0.56-0.15-0.8l0,0c0-0.06,0.01-0.11,0.03-0.16c0.23-0.25,0.87-2.77,1.93-5.3c1.05-2.47,2.58-4.97,3.15-5.08
		c0.04,0,0.09,0,0.14,0c0.73,0,1.76,0.34,1.94,0.94c0.85,1.66,2.17,1.76,3.28,2.9c0.26,0.32,0.31,0.87,0.57,1.19
		c0.78,0.76,1.83,1.55,2.5,1.55c0.04,0,0.08,0,0.12-0.01c0.12,0.01,0.25,0.01,0.38,0.01c0.5,0,1-0.06,1.44-0.2
		c0.55-0.18,1.03-0.48,1.4-0.84l1.43-0.61l0.46-0.17c0.41-0.61,0.78-1.3,1.12-2.04c0.66-1.19,0.62-1.85,1.11-1.85
		c0.01,0,0.02,0,0.03,0c0.19-0.05-0.1-2.43,0.91-4.09c-0.04-0.03-0.29-0.2-0.77-0.49c-0.28,0.57-0.98,1.92-1.9,3.07
		c-0.84,1.03-1.84,1.89-3.1,1.89c-0.56,0-1.18-0.17-1.86-0.58c0,0-0.61-0.08-1.51-0.19c-0.9-0.12-2.13-0.34-3.33-0.59
		c-2.28-0.54-4.62-1.28-4.63-3.15l0,0c0-0.12,0.01-0.24,0.03-0.36c0,0,0.15-1.05,0.61-2.68c0.45-1.67,1.25-3.92,2.51-6.35
		c1.27-2.4,3.01-5,5.19-7.15c2.17-2.19,4.75-3.96,7.49-4.88c0,0,0.3-0.08,0.82-0.47c0.52-0.39,1.25-1.11,2.16-2.33
		c0,0,0.35-0.21,0.93-0.5c0.58-0.3,1.39-0.66,2.31-0.92c0.88-0.27,1.85-0.46,2.79-0.46c1.03,0,2.02,0.22,2.81,0.81
		c0,0,0.51,0.15,1.31,0.38c0.8,0.23,1.89,0.5,3.07,0.8c1.72,0.4,3.65,0.79,5.15,0.79c0.55,0,1.04-0.05,1.45-0.17
		c0,0,0.68,0.5,1.51,0.86c0.48,0.21,1.01,0.37,1.52,0.37c0.05,0,0.11,0,0.16-0.01c0.59-0.2,0.92-0.33,0.92-0.33l0,0l0,0l0,0l0,0
		c-0.28,0.21-0.59,0.31-0.92,0.33c-0.33,0.11-0.74,0.25-1.22,0.41c1.49-0.3,2.85-0.54,3.92-0.7c0.63-0.09,1.16-0.14,1.59-0.14
		c0.56,0,0.94,0.09,1.12,0.34c0,0,1.29,0.01,2.76,0.03c0.72,0.02,1.45,0,2.13,0.04c0.45,0.03,0.88,0.08,1.25,0.17
		c-0.26-0.11-0.51-0.25-0.75-0.41c-0.33-0.22-0.63-0.46-0.93-0.73c-0.32-0.27-0.63-0.56-0.92-0.86c-0.6-0.62-1.12-1.31-1.61-2.02
		c-0.71-1.11-1.42-2.62-2.07-3.79C98.81,31.67,98.28,30.89,97.56,30.89"/>
	<path class="st474" d="M77.74,31.1c-0.08,0-0.14,0-0.2,0.01c-0.03,0.01-0.05,0.01-0.08,0.02l1.66,0.3c0.18-0.06,0.5-0.09,0.89-0.09
		C79.44,31.22,78.33,31.1,77.74,31.1"/>
	<path class="st474" d="M73.11,31.97c-1.42,0.32-2.75,0.79-3.74,1.68C70.27,32.95,71.7,32.37,73.11,31.97"/>
	<path class="st474" d="M85.68,32.13c1.11,0.42,2.2,0.67,3.21,0.79c-0.14-0.03-0.29-0.06-0.44-0.09
		C87.49,32.58,86.58,32.34,85.68,32.13"/>
	<path class="st474" d="M121.55,33.05c-0.06,0-0.11,0.02-0.17,0.05c-1.36,0.8-2.57,1.67-3.78,2.43c-1.22,0.76-2.38,1.4-3.58,1.84
		c-1.08,0.43-1.86,0.93-2.62,1.5c-0.75,0.56-1.49,1.18-2.38,1.66c-0.48,0.26-1.02,0.39-1.57,0.39c-0.42,0-0.86-0.07-1.28-0.21
		c0.24,0.16,0.89,0.56,1.74,0.79c0.39-0.28,0.76-0.57,1.1-0.88c0.89-0.47,1.64-1.1,2.4-1.66c0.77-0.56,1.54-1.07,2.64-1.5
		c1.2-0.44,2.36-1.08,3.6-1.83c0.61-0.39,1.22-0.79,1.84-1.19c0.61-0.41,1.26-0.83,1.95-1.22c0.05-0.04,0.11-0.05,0.17-0.05
		c0.18,0,0.36,0.16,0.51,0.41C121.95,33.26,121.75,33.05,121.55,33.05"/>
	<path class="st474" d="M68.55,34.61c-0.02,0.03-0.04,0.06-0.05,0.09c0.02-0.01,0.02-0.01,0.02-0.01
		C68.53,34.66,68.54,34.64,68.55,34.61"/>
	<path class="st474" d="M73.73,44.25c-0.8,0.1-1.79,0.3-2.87,0.74c-0.38,0.15-0.77,0.33-1.17,0.54c0.35-0.11,0.78-0.25,1.24-0.39
		C71.82,44.85,72.85,44.54,73.73,44.25 M66.53,35.58c-0.75,0.27-1.44,0.47-2.09,0.68C64.87,36.25,65.72,35.9,66.53,35.58"/>
	<path class="st474" d="M63.88,51.46c-0.54,0.98-1.02,2.08-1.42,3.32c0,0,0.01,0.18,0.05,0.49c0.02-0.07,0.04-0.15,0.06-0.22
		C62.92,53.84,63.36,52.62,63.88,51.46"/>
	<path class="st474" d="M76.06,51.84c-0.67,0.34-1.31,0.71-1.92,1.12c-1.6,1.07-2.99,2.39-4.01,3.96
		C71.99,55.17,73.97,53.47,76.06,51.84"/>
	<polyline class="st474" points="72.3,60.38 72.3,60.38 72.3,60.38 72.3,60.38 	"/>
	<path class="st474" d="M67.51,61.57c-0.07,0.07-0.15,0.15-0.22,0.22c0.28,0.07,0.57,0.11,0.88,0.14
		C67.98,61.82,67.76,61.7,67.51,61.57"/>
	<path class="st474" d="M25.75,100.97c-0.04,0.23-0.1,0.46-0.17,0.7c0.07-0.06,0.14-0.1,0.22-0.15
		C25.79,101.34,25.78,101.15,25.75,100.97"/>
	<path class="st476" d="M122.12,33.56c0.24,0.43,0.41,1.05,0.41,1.58l0,0c0,0.02,0,0.04,0,0.06c0,0.03,0,0.06,0,0.09l0,0
		c0,1.79-0.71,3.41-1.61,4.75c-0.92,1.38-2.05,2.48-3.11,3.57c-0.21,0.48-0.9,1.13-0.96,1.56c-0.06,0.42-0.34,0.84-0.63,1.26
		c-1.31,1.33-2.72,2.33-4.21,3.07c-1.47,0.75-3.11,1.25-4.65,1.49c-3.18,0.9-5.36,1.56-8.39,1.74c-2.01,0.01-3.66,0.38-5.36,0.38
		c-0.73,0-1.48-0.07-2.26-0.27c-0.88-0.14-1.67-0.22-2.44-0.22c-2.22,0-4.2,0.64-7.16,2.18c-1.04,0.55-3.07,1.42-4.98,2.44
		c-1.92,1.01-3.71,2.18-4.44,3.07c-0.01,0.02-0.03,0.05-0.04,0.07c0.74-0.89,2.52-2.06,4.44-3.07c1.91-1.02,3.94-1.9,4.98-2.44
		c2.96-1.55,4.94-2.19,7.16-2.19c0.76,0,1.56,0.08,2.43,0.22c0.79,0.2,1.53,0.27,2.27,0.27c1.7,0,3.35-0.38,5.35-0.38
		c3.03-0.18,5.21-0.83,8.4-1.72c1.54-0.24,3.18-0.74,4.66-1.48c1.49-0.74,2.91-1.73,4.23-3.06c0.29-0.42,0.57-0.85,0.64-1.26
		c0.05-0.43,0.75-1.08,0.96-1.56c1.07-1.08,2.2-2.19,3.13-3.56c0.93-1.35,1.64-3,1.64-4.83c0-0.04,0-0.07,0-0.11
		C122.58,34.65,122.39,33.98,122.12,33.56"/>
	<path class="st476" d="M72.3,60.38c-0.69,1.11-2.09,1.17-2.82,2.25c-0.01,0.02-0.03,0.05-0.04,0.07c0,0,0,0,0,0
		C70.18,61.61,71.62,61.56,72.3,60.38"/>
	<path class="st477" d="M121.61,33.15c-0.06,0-0.11,0.02-0.17,0.05c-0.68,0.39-1.33,0.81-1.95,1.22c-0.62,0.4-1.23,0.8-1.84,1.19
		c-1.24,0.75-2.39,1.39-3.6,1.83c-1.09,0.43-1.86,0.93-2.64,1.5c-0.76,0.56-1.51,1.19-2.4,1.66c-0.35,0.31-0.72,0.61-1.1,0.88
		c0.05,0.01,0.11,0.03,0.16,0.04c0.33,0.08,0.68,0.13,1.04,0.13c0.92,0,1.85-0.31,2.37-1.12c0,0,0.5-0.19,1.22-0.51
		c0.71-0.33,1.64-0.82,2.47-1.34c0.84-0.52,1.6-1.06,2.09-1.14c0.04-0.01,0.08-0.01,0.12-0.01c0.27,0,0.47,0.21,0.47,0.7l0,0
		c0,0.26-0.05,0.59-0.17,1.02c0,0-0.11,0.82-0.41,1.83c-0.29,1.01-0.81,2.17-1.28,2.88c0,0-1.02,1.12-2.82,2.36
		c-0.89,0.63-2,1.26-3.24,1.8c-1.25,0.56-2.61,0.99-3.95,1.28c-2.2,0.49-4.39,0.66-6.23,0.66c-0.42,0-0.83-0.01-1.21-0.03
		c-2.05-0.08-3.49-0.32-3.79-0.6c0,0-1.35-0.2-3.47-0.31c-0.63-0.03-1.34-0.05-2.1-0.05c-1.78,0-3.86,0.12-6.02,0.51
		c-2.38,0.41-4.87,1.13-7.11,2.26c-2.09,1.63-4.07,3.33-5.93,5.08c-0.69,1.06-1.21,2.24-1.53,3.54c0,0-0.41,0.46-1.03,1.06
		c-0.02,0.02-0.04,0.04-0.06,0.06c0.24,0.13,0.46,0.25,0.66,0.36c0.16,0.01,0.32,0.02,0.49,0.02c0.04,0,0.08,0,0.13,0l0,0l0,0l0,0
		l0,0l0,0l0,0l0,0l0,0l0,0l0,0c0,0-0.04,0.1-0.13,0.27c0.48,0.29,0.73,0.46,0.77,0.49c0.01-0.02,0.03-0.05,0.04-0.07
		c0.73-1.08,2.13-1.14,2.82-2.25c0,0,0,0,0,0c0,0,0,0,0,0c0.01-0.02,0.03-0.05,0.04-0.07c0.74-0.89,2.53-2.05,4.44-3.07
		c1.91-1.02,3.94-1.89,4.98-2.44c2.96-1.54,4.93-2.18,7.16-2.18c0.77,0,1.56,0.08,2.44,0.22c0.79,0.2,1.53,0.27,2.26,0.27
		c1.7,0,3.36-0.38,5.36-0.38c3.03-0.18,5.21-0.84,8.39-1.74c1.54-0.24,3.18-0.75,4.65-1.49c1.49-0.75,2.9-1.74,4.21-3.07
		c0.29-0.42,0.57-0.84,0.63-1.26c0.05-0.43,0.75-1.08,0.96-1.56c1.06-1.09,2.19-2.19,3.11-3.57c0.9-1.33,1.6-2.95,1.61-4.75
		c0-0.03,0-0.06,0-0.09l0,0l0,0l0,0l0,0c0-0.02,0-0.04,0-0.06c0-0.53-0.17-1.15-0.41-1.58C121.97,33.31,121.79,33.15,121.61,33.15"
		/>
	<path class="st478" d="M117.39,37.53c-0.04,0-0.08,0-0.12,0.01c-0.49,0.09-1.26,0.63-2.09,1.14c-0.83,0.53-1.76,1.02-2.47,1.34
		c-0.72,0.32-1.22,0.51-1.22,0.51c-0.51,0.81-1.45,1.12-2.37,1.12c-0.36,0-0.72-0.05-1.04-0.13c-0.05-0.01-0.11-0.03-0.16-0.04
		c-0.85-0.23-1.5-0.62-1.74-0.79c-0.07-0.05-0.11-0.07-0.11-0.07c-0.11-0.04-0.23-0.08-0.36-0.11c-0.37-0.09-0.8-0.13-1.25-0.17
		c-0.68-0.04-1.4-0.02-2.13-0.04c-1.47-0.02-2.76-0.03-2.76-0.03c-0.18-0.24-0.56-0.34-1.12-0.34c-0.43,0-0.96,0.06-1.59,0.14
		c-1.07,0.15-2.43,0.4-3.92,0.7c-0.11,0.03-0.22,0.07-0.33,0.1c-1.53,0.48-3.8,1.13-6.09,1.75c-3.46,0.95-7.02,1.95-9.12,1.95
		c-0.68,0-1.21-0.1-1.53-0.35c0,0-0.36-0.07-1-0.07c-0.13,0-0.27,0-0.42,0.01c-0.22,0.02-0.46,0.04-0.71,0.07
		c-0.88,0.29-1.91,0.6-2.8,0.89c-0.46,0.15-0.89,0.28-1.24,0.39c-1.97,1.04-4.15,2.88-5.81,5.93c-0.53,1.15-0.97,2.38-1.3,3.59
		c-0.02,0.07-0.04,0.15-0.06,0.22c0.09,0.67,0.34,1.95,0.96,3.19c0.73,1.47,1.91,2.87,3.82,3.33c0.08-0.08,0.15-0.15,0.22-0.22
		c0.02-0.02,0.04-0.04,0.06-0.06c0.62-0.6,1.03-1.06,1.03-1.06c0.31-1.3,0.84-2.48,1.53-3.54c1.02-1.57,2.41-2.88,4.01-3.96
		c0.61-0.41,1.26-0.79,1.92-1.12c2.24-1.13,4.73-1.85,7.11-2.26c2.17-0.38,4.24-0.51,6.02-0.51c0.76,0,1.47,0.02,2.1,0.05
		c2.12,0.12,3.47,0.31,3.47,0.31c0.3,0.27,1.74,0.51,3.79,0.6c0.38,0.02,0.79,0.03,1.21,0.03c1.84,0,4.04-0.17,6.23-0.66
		c1.34-0.29,2.7-0.72,3.95-1.28c1.24-0.55,2.34-1.18,3.24-1.8c1.8-1.24,2.82-2.36,2.82-2.36c0.47-0.71,0.99-1.87,1.28-2.88
		c0.3-1.01,0.41-1.83,0.41-1.83c0.12-0.42,0.18-0.76,0.17-1.02C117.86,37.74,117.66,37.53,117.39,37.53"/>
	<path class="st479" d="M77.17,36.55c-0.94,0-1.91,0.19-2.79,0.46c-0.91,0.27-1.73,0.63-2.31,0.92c-0.58,0.29-0.93,0.5-0.93,0.5
		c-0.91,1.22-1.64,1.95-2.16,2.33c-0.52,0.39-0.82,0.47-0.82,0.47c-2.74,0.92-5.32,2.69-7.49,4.88c-2.18,2.15-3.92,4.75-5.19,7.15
		c-1.26,2.43-2.06,4.69-2.51,6.35c-0.47,1.64-0.61,2.68-0.61,2.68c-0.02,0.13-0.03,0.25-0.03,0.36c0.01,1.87,2.35,2.61,4.63,3.15
		c1.2,0.25,2.43,0.47,3.33,0.59c0.9,0.11,1.51,0.19,1.51,0.19c0.68,0.41,1.3,0.58,1.86,0.58c1.26,0,2.26-0.87,3.1-1.89
		c1.2-1.49,2.02-3.33,2.02-3.33c-0.04,0-0.08,0-0.13,0c-0.17,0-0.33-0.01-0.49-0.02c-0.31-0.02-0.6-0.07-0.88-0.14
		c-1.91-0.46-3.09-1.85-3.82-3.33c-0.62-1.24-0.87-2.52-0.96-3.19c-0.04-0.3-0.05-0.49-0.05-0.49l0,0l0,0l0,0l0,0
		c0.4-1.24,0.89-2.34,1.42-3.32c1.66-3.04,3.84-4.89,5.81-5.93c0.4-0.21,0.79-0.39,1.17-0.54c1.08-0.44,2.07-0.64,2.87-0.74
		c0.26-0.03,0.5-0.05,0.71-0.07c0.15-0.01,0.29-0.01,0.42-0.01c0.64,0,1,0.07,1,0.07c0.32,0.24,0.85,0.35,1.53,0.35
		c2.1,0,5.66-1,9.12-1.95c2.29-0.63,4.56-1.28,6.09-1.75c0.11-0.04,0.22-0.07,0.33-0.1c0.48-0.15,0.9-0.29,1.22-0.41
		c-0.05,0-0.11,0.01-0.16,0.01c-0.5,0-1.03-0.16-1.52-0.37c-0.84-0.36-1.51-0.86-1.51-0.86c-0.4,0.12-0.9,0.17-1.45,0.17
		c-1.5,0-3.43-0.39-5.15-0.79c-1.18-0.3-2.27-0.57-3.07-0.8c-0.8-0.24-1.31-0.38-1.31-0.38C79.19,36.77,78.2,36.55,77.17,36.55"/>
	<path class="st479" d="M95.08,40.05c0,0-0.33,0.13-0.92,0.33C94.49,40.36,94.8,40.26,95.08,40.05"/>
	<path class="st480" d="M52.75,65.93c-0.05,0-0.09,0-0.14,0c-0.57,0.11-2.09,2.61-3.15,5.08c-1.06,2.53-1.7,5.04-1.93,5.3
		c-0.02,0.05-0.03,0.1-0.03,0.16c0,0.24,0.15,0.56,0.15,0.8l0,0c0,0.06-0.01,0.11-0.03,0.16c-0.45,0.37-1.02,0.51-1.62,0.59
		c-0.59,0.09-1.25,0.11-1.91,0.17c-1.69,0.21-3.75,2.86-3.9,2.87c-0.9-0.98-2.29-1.79-2.52-3.16c-0.03-0.17-0.41-0.34-0.61-0.51
		c-0.18-0.08-0.43-0.12-0.65-0.12c-0.19,0-0.35,0.03-0.4,0.09l0,0l0,0l0,0l0,0c0.02-0.05,0.02-0.09,0.02-0.12
		c0-0.04-0.01-0.05-0.04-0.05c-0.17,0-0.9,0.85-1.57,1.77c-0.57,0.87-1.08,1.79-1.08,2.08c0,0.06,0.02,0.09,0.07,0.09
		c0.04,0,0.1-0.03,0.19-0.08l0,0l0,0l0,0l0,0c-0.73,0.5-0.84,1.35-0.92,2.23c-0.09,0.88-0.02,1.83-0.36,2.69
		c-0.24,0.65-0.73,1.2-1.13,1.8c-0.38,0.55-0.76,1.11-0.75,1.77c0,0.04,0,0.09,0.01,0.13l0,0l0,0l0,0l0,0c0,0.04,0,0.09,0,0.13
		c0,0.27,0.01,0.54,0.01,0.8l0,0c0,0.78-0.08,1.48-0.71,1.88c-0.56,0.42-0.96,0.79-1.27,1.32c-0.24,0.67-0.27,1.4-0.37,2.07
		c-0.09,0.68-0.29,1.3-0.63,1.85c-0.58,0.73-1.89,1.33-1.89,2.43c0,0.17,0.03,0.35,0.1,0.54c0.22,0.52,0.01,1.38,0.4,1.53l0,0l0,0
		l0,0c0.16-0.36,0.55-0.67,0.77-1.13c0.49-0.85,0.6-1.88,1.26-2.58c0.29-0.39,0.62-0.73,0.94-1.07c0.34-0.34,0.68-0.68,0.96-1.08
		c0.33-0.54,0.53-1.03,0.7-1.59c0.93-1.98,1.62-3.86,2.25-5.83c-0.14-0.24-0.2-0.47-0.2-0.7l0,0c0-0.3,0.09-0.58,0.23-0.86
		c0.27-0.48,0.66-0.93,0.86-1.36c0.15-0.26,0.45-0.43,0.71-0.7c0.49-0.73,0.54-1.75,1.42-1.96c0.96-0.16,1.93-0.29,2.81-0.46
		c0.89-0.17,1.74-0.37,2.61-0.59c0.35-0.09,0.89-0.31,1.5-0.59c0.62-0.26,1.35-0.57,2.07-0.88c0.69-0.32,1.43-0.58,2-0.83
		c0.59-0.25,1.03-0.47,1.29-0.6c0.71-0.33,1.16-0.87,1.62-1.41c0.47-0.52,0.91-1.09,1.52-1.45c0,0,0,0,0,0
		c0.02,0,0.08,0.11,0.12,0.3c0.12-0.11,0.23-0.23,0.35-0.34c0,0,0,0,0,0l0,0c0-0.15,0.15-0.55,0.15-0.71
		c0.26-0.16,0.53-0.22,0.88-0.22c0.07,0,0.14,0,0.21,0.01c0.68,0.18,1.32,0.25,1.95,0.25c0.97,0,1.91-0.17,2.89-0.35
		c1-0.18,1.99-0.36,2.98-0.36c0.58,0,1.16,0.06,1.74,0.22c0.26,0.02,0.59,0.06,0.92,0.06c0.42,0,0.84-0.07,1.15-0.32
		c0.39-0.41,1.09-0.59,1.38-1.08c0.44-1.09,0.75-2.5,1.17-3.69l-1.02,0.38l-0.46,0.17l-1.43,0.61c-0.37,0.37-0.85,0.66-1.4,0.84
		c-0.44,0.15-0.94,0.2-1.44,0.2c-0.13,0-0.25,0-0.38-0.01c-0.04,0.01-0.08,0.01-0.12,0.01c-0.67,0-1.72-0.79-2.5-1.55
		c-0.27-0.32-0.31-0.87-0.57-1.19c-1.11-1.15-2.43-1.25-3.28-2.9C54.51,66.27,53.48,65.93,52.75,65.93"/>
	<path class="st481" d="M80.03,31.33c-0.01,0-0.01,0-0.02,0c-0.39,0-0.7,0.03-0.89,0.09C79.31,31.36,79.63,31.33,80.03,31.33
		C80.03,31.33,80.03,31.33,80.03,31.33"/>
	<path class="st481" d="M77.39,31.11c-0.13,0.01-2.04,0.22-4.08,0.8C75.35,31.34,77.26,31.13,77.39,31.11"/>
	<path class="st481" d="M80.04,31.33C80.04,31.33,80.04,31.33,80.04,31.33c0.64,0,1.5,0.07,2.32,0.17
		C81.54,31.4,80.69,31.33,80.04,31.33"/>
	<polyline class="st481" points="82.36,31.5 82.37,31.5 82.36,31.5 	"/>
	<polyline class="st481" points="82.37,31.5 82.37,31.5 82.37,31.5 	"/>
	<path class="st481" d="M85.3,31.98c0.13,0.05,0.25,0.1,0.38,0.15c1.11,0.42,2.2,0.67,3.21,0.79c0.23,0.03,0.45,0.05,0.67,0.07
		c-0.22-0.02-0.44-0.04-0.67-0.07c-1.01-0.13-2.1-0.37-3.21-0.79C85.55,32.08,85.43,32.03,85.3,31.98 M82.37,31.5
		c0.08,0.01,0.17,0.02,0.25,0.03C82.54,31.52,82.46,31.51,82.37,31.5"/>
	<path class="st473" d="M88.89,32.92L88.89,32.92c0.23,0.03,0.45,0.05,0.67,0.07c0.03,0,0.06,0,0.09,0.01
		c0.36,0.03,0.7,0.04,1.02,0.04c0.21,0,0.41-0.01,0.61-0.01l0,0c-0.2,0.01-0.4,0.01-0.61,0.01c-0.33,0-0.67-0.01-1.02-0.04
		C89.41,32.97,89.15,32.95,88.89,32.92"/>
	<path class="st481" d="M95.61,31.68c-0.02,0.02-0.89,0.74-2.64,1.12C94.72,32.42,95.59,31.7,95.61,31.68"/>
	<path class="st481" d="M73.31,31.92c-0.07,0.02-0.13,0.04-0.2,0.06c-1.41,0.4-2.84,0.98-3.74,1.68c-0.35,0.28-0.62,0.57-0.78,0.88
		c0.16-0.31,0.43-0.61,0.78-0.88c0.9-0.7,2.33-1.28,3.74-1.68C73.18,31.95,73.24,31.94,73.31,31.92"/>
	<path class="st481" d="M68.52,34.69c0,0-0.43,0.21-1.01,0.47c0.5-0.23,0.89-0.41,0.99-0.46C68.51,34.69,68.52,34.69,68.52,34.69"/>
	<path class="st481" d="M67.51,35.16c-0.26,0.12-0.55,0.24-0.85,0.37C66.95,35.4,67.25,35.27,67.51,35.16"/>
	<path class="st481" d="M62.4,37.07c-1.01,0.66-2.32,1.71-3.48,3.55c-0.08,0.13-0.17,0.27-0.25,0.41c0.08-0.14,0.17-0.28,0.25-0.41
		C60.08,38.79,61.38,37.73,62.4,37.07"/>
	<path class="st482" d="M51.39,76.52C51.39,76.52,51.39,76.52,51.39,76.52c-0.62,0.36-1.05,0.93-1.53,1.45
		c-0.46,0.54-0.9,1.09-1.62,1.41c-0.26,0.13-0.71,0.35-1.29,0.6c-0.58,0.25-1.32,0.51-2,0.83c-0.72,0.31-1.45,0.61-2.07,0.88
		c-0.61,0.27-1.15,0.49-1.5,0.59c-0.87,0.22-1.72,0.42-2.61,0.59c-0.89,0.17-1.86,0.3-2.81,0.46c-0.88,0.21-0.93,1.23-1.42,1.96
		c-0.26,0.27-0.56,0.44-0.71,0.7c-0.2,0.44-0.59,0.88-0.86,1.36c-0.13,0.28-0.23,0.56-0.23,0.86c0,0.23,0.06,0.46,0.2,0.7l0,0l0,0
		l0,0l0,0c-0.62,1.97-1.32,3.85-2.25,5.83c-0.17,0.56-0.37,1.05-0.7,1.59c-0.28,0.4-0.62,0.74-0.96,1.08
		c-0.32,0.34-0.65,0.68-0.94,1.07c-0.66,0.7-0.77,1.73-1.26,2.58c-0.22,0.47-0.6,0.77-0.77,1.13c0.1,0.28-0.01,0.8,0.2,0.8
		c0.01,0,0.03,0,0.04-0.01c0.01,0,0.01,0,0.01,0c0.34,0,0.64-0.39,0.92-0.61c1.01-1.24,2.11-2.21,3.06-3.28
		c2.02-2.56,3.86-4.83,5.01-7.39c0.05-0.12,0.07-0.23,0.07-0.36c0-0.4-0.19-0.82-0.2-1.23c-0.01-0.07-0.01-0.15-0.01-0.22l0,0
		c0-0.55,0.22-1.09,0.4-1.64c0.16-0.41,0.29-0.82,0.29-1.28c0-0.24-0.04-0.49-0.12-0.76c-0.02-0.04-0.02-0.09-0.02-0.13l0,0
		c0-0.17,0.12-0.35,0.28-0.46c2.56-0.99,4.83-1.7,7.24-2.27c0.4-0.08,0.93-0.28,1.51-0.53c0.6-0.25,1.28-0.53,1.9-0.82
		c1.27-0.57,2.47-1.06,2.83-1.27c0.73-0.46,1.19-0.96,1.49-1.44c0.33-0.46,0.49-0.93,0.55-1.35c0.03-0.18,0.04-0.35,0.04-0.5
		C51.58,76.89,51.44,76.52,51.39,76.52"/>
</g>
<g>
	<path d="M109.97,35.32c-0.83,0-1.6-0.04-2.37,0.01c-0.75,0.04-1.59-0.01-2.24,0.3c-1.44,0.68-2.6,0.59-3.85-0.46
		c-1.01-0.85-2.17-0.91-3.15,0.27c-1.05,1.26-2.38,1.77-4.05,1.52c-0.53-0.08-1.44,0.12-1.63,0.48c-0.91,1.78-2.84,1.28-4.08,2.16
		c-2.59-2.97-3.83-6.99-7.87-8.17c0.69-4.35,0.98-4.59,4.5-5.47c1.01-0.25,2.07-0.84,2.79-1.59c0.84-0.87,1.58-1.13,2.66-0.69
		c1.4,0.56,2.62,0.07,4.03-0.35c2.32-0.7,4.83-0.81,7.28-1.01c0.6-0.05,1.24,0.59,1.89,0.81c0.74,0.25,1.67,0.75,2.26,0.51
		c1.87-0.77,2.99,0.29,4.4,1.15c1.38,0.85,3.02,1.27,4.57,1.82c2.78,0.99,5.04,2.38,5.58,5.67c0.18,1.1,0.93,2.18,1.65,3.09
		c1.37,1.72,2.6,3.22,1.07,5.64c-0.61,0.96-0.4,2.57-0.27,3.86c0.29,2.87-0.72,4.51-3.98,5.99c-1,0.45-2.14,0.75-2.96,1.42
		c-1.77,1.45-3.79,1.45-5.77,1.15c-1.79-0.27-3.11,0.25-4.47,1.28c-1.28,0.96-2.7,1.74-4.1,2.52c-0.49,0.27-1.14,0.47-1.68,0.41
		c-1.43-0.14-2.79,0.51-4.02,0.57c-2.54,0.11-4.58,1.28-6.83,1.98c-0.52,0.16-1.18,0.05-1.74-0.11c-2.52-0.7-5.03-1.43-7.53-2.2
		c-1.17-0.36-2.21-0.24-3.08,0.64c-0.75,0.77-1.54,1.15-2.69,0.97c-1.69-0.26-2.97,0.63-3.77,2.02c-0.51,0.89-1.07,1.46-2.08,1.45
		c-3.59-0.02-6.01,2.42-8.63,4.29c-1.13,0.81-2.06,1.76-3.48,2.23c-1.1,0.36-2.22,1.16-2.92,2.09c-0.91,1.2-2,1.54-3.52,1.52
		c-0.32,1.52-0.66,2.98-2.48,3.38c-0.96,0.21-1.43,0.79-1.07,2.03c0.19,0.66-0.71,1.57-0.8,2.4c-0.18,1.58-0.42,3.24-0.11,4.76
		c0.33,1.63-0.23,3.31,0.14,4.68c0.62,2.36,2.04,4.51,2.08,7.08c2.28,1.25,1.79,4.09,3.3,5.8c0.66,0.74,1.24,1.63,1.59,2.55
		c0.52,1.4,1.47,2.13,2.85,2.43c0.2,0.04,0.46,0.01,0.58,0.13c2.07,2.05,4.86,3.18,6.93,5.05c2.03,1.83,4.3,3.27,6.45,4.85
		c1.28,0.94,1.68,1.73,1.13,2.91c-1.1,2.35-2.17,4.71-4.69,6.08c-2.88,1.56-5.25,3.73-6.34,6.89c-2.27,0.89-3.86-0.5-5.29-1.6
		c-1.01-0.77-1.85-1.33-3.14-1.49c-2.25-0.29-4.16-1.18-5.33-3.4c-0.57-1.08-1.7-1.87-2.57-2.8c-0.27-0.29-0.71-0.61-0.7-0.92
		c0.01-2.12-1.73-2.8-3.03-3.86c-0.53-0.43-1.07-0.9-1.46-1.45c-1.42-2.04-2.65-4.23-4.19-6.16c-1.72-2.16-3.69-4.13-5.57-6.16
		c-1.41-1.53-2.41-4.52-2.45-7.62c-0.4-0.35-0.83-0.77-1.3-1.14c-1.07-0.83-1.14-1.75-0.49-2.92c0.42-0.76,0.9-1.68,0.83-2.48
		c-0.15-1.78-0.22-3.41,1.16-4.81c0.25-0.25,0.07-0.9,0.16-1.35c0.16-0.77,0.13-1.76,0.61-2.25c1.5-1.54,1.69-3.49,2.16-5.4
		c0.21-0.85,0.46-1.98,1.08-2.38c2.95-1.92,3.96-5.46,6.58-7.64c0.53-0.44,0.87-1.36,0.93-2.09c0.18-2.3,1.29-3.58,3.5-4.28
		c0.92-0.29,1.61-1.37,2.35-2.14c1.2-1.26,3.07-1.95,3.32-4.03c0.04-0.31,0.49-0.71,0.83-0.82c1.45-0.46,2.24-1.57,3.03-2.76
		c0.3-0.46,0.98-1.01,1.43-0.96c1.95,0.2,3.01-1.24,4.04-2.31c1.44-1.49,2.81-2.46,4.97-2.21c0.86,0.1,1.85-0.17,2.65-0.54
		c2.55-1.17,5.11-1.05,7.84-0.37c1.4-0.99,2.84-2.18,4.77-0.69c0.44,0.34,1.45,0.27,2.04,0.02c1.51-0.63,2.93-1.5,4.32,0.17
		c0.05,0.06,0.21,0.11,0.25,0.08c1.97-1.81,3.94-0.6,5.95-0.07c0.54,0.14,1.23-0.02,1.77-0.24c1.64-0.67,3.25-1.01,4.96-0.24
		c0.34,0.15,0.97,0.25,1.16,0.06c1.52-1.49,3.51-1.27,5.35-1.7c0.94-0.22,1.7-1.21,2.53-1.87c0.16-0.12,0.25-0.35,0.42-0.43
		C107.49,39.79,108.97,37.74,109.97,35.32z M33.1,109.74c1.61-2.79,2.07-3.93,1.52-5.16c-1.41-3.17-0.61-6.12,0.6-9.08
		c0.3-0.74,0.84-1.49,0.82-2.22c-0.1-3.15,1.73-5.69,2.62-8.51c0.34-1.07,1.3-2.18,2.28-2.74c1.75-0.99,2.33-2.6,3.23-4.18
		c0.9-1.58,2.31-2.86,3.49-4.28c0.05-0.07-0.01-0.23,0.05-0.29c0.36-0.43,0.66-0.97,1.11-1.25c3.92-2.4,8.28-4.14,11.48-7.63
		c0.19-0.21,0.49-0.38,0.77-0.45c2.32-0.61,3.97-2.86,6.64-2.64c0.27,0.02,0.57-0.48,0.86-0.72c1.82-1.5,3.36-3.55,6.21-2.95
		c0.29,0.06,0.71-0.3,1.03-0.53c1.54-1.1,3.21-1.11,4.93-0.61c1.84,0.53,3.65,1.21,5.51,1.64c1.34,0.31,2.79,0.76,4.04-0.38
		c1.2-1.11,2.61-1.26,4.21-1.26c2.06,0,4.02-1.27,6.21-0.63c0.35,0.1,0.9-0.39,1.33-0.65c1.6-0.98,3.12-2.14,4.82-2.91
		c1.01-0.46,2.44-0.75,3.43-0.4c2.29,0.8,3.88-0.43,5.61-1.37c0.6-0.33,1.03-1.02,1.65-1.23c3.31-1.17,3.66-1.64,3.73-5.1
		c0.03-1.68-0.26-3.36,0.76-4.99c0.56-0.89,0.41-2.04-0.83-2.85c-1.39-0.91-2.1-2.36-2.27-4.09c-0.22-2.21-1.77-3.11-4.1-3.73
		c0.32,1.55,0.56,2.77,0.68,3.34c-0.77,1.94-1.33,3.35-1.93,4.88c-0.77,0.07-1.66,0.15-2.73,0.25c-0.4,1.25-0.8,2.48-1.22,3.78
		c-1.79,0.33-3.61,0.65-4.25,2.79c-0.08,0.27-0.62,0.51-0.98,0.57c-3.58,0.55-6.83,2.83-10.67,2.05c-0.46-0.09-1.04,0.01-1.47,0.22
		c-2.35,1.15-4.61,0.95-6.79-0.38c-0.71,0.41-1.33,1.08-1.93,1.06c-2.41-0.08-4.81-0.64-7.22-0.03c-1.39-1.32-2.72-0.87-4.11,0.06
		c-0.38,0.25-1.03,0.37-1.45,0.23c-2.67-0.91-5.11,0.03-7.49,0.96c-1.56,0.61-3.21,0.32-4.66,0.71c-1.41,0.38-2.39,2.3-3.81,2.74
		c-2.45,0.76-3.56,3.13-5.75,4.08c-0.42,0.18-0.78,0.67-1.01,1.11c-1.51,2.94-3.79,5.11-6.71,6.58c-1.21,0.61-2.02,1.46-1.91,2.79
		c0.13,1.51-0.56,2.56-1.6,3.39c-2.41,1.93-3.26,5.16-5.89,6.92c-0.59,0.4-1.01,1.27-1.2,2.01c-0.55,2.09-0.5,4.4-2.39,5.98
		c-0.22,0.18-0.06,0.77-0.16,1.15c-0.29,1.03-0.64,2.04-0.95,3.07c-0.17,0.54-0.56,1.17-0.42,1.63c0.64,2.07-0.31,3.68-1.39,5.39
		c0.75,0.65,1.49,1.29,2.33,2C26.73,102.97,30.72,105.75,33.1,109.74z M43.48,82.61c-2.71,1.06-3.18,2.22-4.05,4.9
		c-0.81,2.51-2.53,4.82-2.03,7.71c0.07,0.41-0.34,0.93-0.59,1.36c-1.04,1.82-1.31,3.7-0.84,5.77c0.5,2.18,0.75,4.43-0.31,6.54
		c-0.86,1.72-0.55,3.15,0.89,4.32c2.48,2.02,3.02,5.71,6.21,7.15c0.42,0.19,0.46,1.1,0.82,1.56c1.86,2.32,3.75,4.61,5.67,6.88
		c0.22,0.26,0.74,0.39,1.11,0.39c2.23-0.01,3.99,0.76,5.61,2.38c1.29,1.29,1.84,0.87,3.13-0.58c1.32-1.49,2.72-3.13,4.45-3.97
		c3-1.47,4.21-4.1,5.63-6.67c-2.43-2.5-5.84-3.48-7.88-6.22c-0.2-0.27-0.71-0.43-1.08-0.43c-1.4,0-2.09-0.98-2.96-1.83
		c-0.98-0.96-2.19-1.7-3.29-2.53c-0.93-0.7-2.13-1.22-2.72-2.13c-1.43-2.24-3.27-4.3-3.66-7.1c-0.05-0.33-0.37-0.78-0.67-0.9
		c-1.44-0.57-1.38-1.78-1.51-3.01c-0.12-1.05-0.36-2.17-0.9-3.05c-0.75-1.24-1.84-2.48-0.9-3.84c1.17-1.68-1.5-2.66-0.45-4.16
		c0.22-0.32,0.37-0.73,0.42-1.12C43.65,83.62,43.54,83.21,43.48,82.61z M104.18,34.27c0.5-0.38,1.2-0.91,1.88-1.43
		c1.73,0.68,1.93,0.7,4.9,0.37c1.79-0.2,2.52-1,2.27-2.66c-0.24-1.59-0.49-3.22-2.54-3.61c-0.47-0.09-0.89-0.44-1.32-0.7
		c-2.5-1.51-5.51-1.11-8.13-2.15c-0.15-0.06-0.43,0.03-0.57,0.15c-0.96,0.76-1.87,0.72-3.02,0.24c-0.59-0.24-1.51,0.3-2.28,0.53
		c-0.66,0.19-1.32,0.65-1.96,0.62c-1.99-0.1-4.03-0.69-5.44,1.48c-0.18,0.28-0.94,0.2-1.44,0.26c-0.78,0.09-1.57,0.17-2.58,0.27
		c0.07,0.92-0.15,1.9,0.24,2.41c1.86,2.4,2.76,5.5,5.45,7.52c1.25-1.61,2.85-2.11,4.8-2.04c0.87,0.03,1.95-0.49,2.6-1.11
		c1.01-0.96,2.1-1.18,3.33-0.98C101.58,33.61,102.75,33.95,104.18,34.27z"/>
	<path d="M108.21,44.56c1.11,1.71,1.9,2.93,2.76,4.26C108.72,48.89,107.73,47.52,108.21,44.56z"/>
	<path d="M35.36,80.9c-0.42-1.39-0.85-2.79-1.42-4.68C36.83,78.82,36.91,79.18,35.36,80.9z"/>
	<path d="M30.25,93.86c0-1.29,0-2.42,0-3.58C32.36,90.65,32.36,90.65,30.25,93.86z"/>
	<path d="M87.25,54.15c-0.82-0.58-1.63-1.16-2.78-1.98c2.57-1.21,2.36,0.83,3.31,1.22C87.61,53.65,87.43,53.9,87.25,54.15z"/>
	<path d="M100.91,49.01c-1,0.23-2.01,0.68-2.45-0.72c-0.06-0.2,0.14-0.68,0.32-0.74C100.06,47.11,100.53,47.95,100.91,49.01z"/>
	<path d="M45.89,68.45c-0.45,0.66-0.89,1.33-1.47,2.19C43.84,68.8,43.84,68.8,45.89,68.45z"/>
	<path d="M55.8,61.26c-0.84-2.49-0.84-2.49,1.08-2.77C56.48,59.51,56.14,60.39,55.8,61.26z"/>
	<path d="M31.33,86.26c-0.35-1.18-0.13-2.07,1.2-2.53C33.19,85.19,32.18,85.7,31.33,86.26z"/>
	<path d="M60.6,57.08c0.25-1.01,0.45-2.1,2.44-1.13c-0.77,0.74-1.32,1.27-1.88,1.81C60.98,57.53,60.79,57.3,60.6,57.08z"/>
	<path d="M90.59,51.29c0.79,1.06,1.27,1.7,1.75,2.35C91.02,53.6,89.61,53.69,90.59,51.29z"/>
	<path d="M98.59,50.26c0.78,0.71,1.35,1.23,2.4,2.17C99.19,52.32,97.98,52.51,98.59,50.26z"/>
	<path d="M42.18,69.24c-0.81,1.04-1.26,1.63-1.97,2.54C39.98,70.25,39.67,69.19,42.18,69.24z"/>
	<path d="M107.49,50.52c-0.85-0.12-1.69-0.24-2.54-0.36C106.05,48.89,106.85,49.25,107.49,50.52z"/>
	<path d="M116.21,43.82c0-0.81,0-1.61,0-2.68C117.14,42.36,117.14,42.36,116.21,43.82z"/>
	<path d="M39.61,76.65c0.47-1.26,0.73-1.95,1.2-3.19C41.7,75.12,41.36,75.77,39.61,76.65z"/>
	<path d="M70.54,52.58c0.94,0.35,1.56,0.59,2.23,0.84c-0.24,0.43-0.33,0.73-0.43,0.74C71.26,54.22,71.26,54.21,70.54,52.58z"/>
	<path d="M113.8,44.34c0,0.78,0,1.56,0,2.34c-0.23,0.02-0.45,0.03-0.68,0.05c-0.1-0.78-0.2-1.57-0.3-2.35
		C113.15,44.36,113.47,44.35,113.8,44.34z"/>
	<path d="M68.88,53.63c-0.32,0.66-0.58,1.2-0.91,1.86c-0.35-0.3-0.69-0.45-0.72-0.64C67.13,53.8,67.43,53.16,68.88,53.63z"/>
	<path d="M64.18,57.91c0.62-0.08,1.15-0.14,1.88-0.23C65.12,59.03,65.12,59.03,64.18,57.91z"/>
	<path d="M96.93,52.68c-0.44,0.23-0.87,0.47-1.32,0.67c-0.03,0.01-0.29-0.4-0.27-0.42c0.37-0.31,0.77-0.6,1.16-0.89
		C96.65,52.26,96.79,52.47,96.93,52.68z"/>
	<path d="M46.95,63.78c-0.47,0-0.94,0-1.41,0c0.02-0.18,0.02-0.52,0.05-0.52c0.45-0.03,0.91-0.02,1.37-0.02
		C46.96,63.41,46.96,63.59,46.95,63.78z"/>
	<path d="M34.93,86.05c0.24-0.48,0.48-0.95,0.74-1.41c0.01-0.01,0.46,0.17,0.45,0.21c-0.12,0.51-0.28,1.01-0.43,1.51
		C35.44,86.26,35.19,86.16,34.93,86.05z"/>
</g>
</svg>
