<?xml version="1.0" encoding="utf-8"?>
<!-- Generator: Adobe Illustrator 21.0.0, SVG Export Plug-In . SVG Version: 6.00 Build 0)  -->
<svg version="1.1" id="Слой_1" xmlns="http://www.w3.org/2000/svg" xmlns:xlink="http://www.w3.org/1999/xlink" x="0px" y="0px"
	 viewBox="0 0 300 300" style="enable-background:new 0 0 300 300;" xml:space="preserve">
<style type="text/css">
	.st0{opacity:0.9;clip-path:url(#SVGID_2_);}
	.st1{opacity:0.9;clip-path:url(#SVGID_4_);}
	.st2{clip-path:url(#SVGID_6_);fill:#FDE8CF;}
	.st3{opacity:0.9;clip-path:url(#SVGID_6_);}
	.st4{clip-path:url(#SVGID_8_);fill:#FBC98D;}
	.st5{clip-path:url(#SVGID_6_);fill:#FCD3A1;}
	.st6{clip-path:url(#SVGID_6_);fill:#FCDDB8;}
	.st7{clip-path:url(#SVGID_6_);fill:#FFF1E1;}
	.st8{clip-path:url(#SVGID_6_);fill:none;stroke:#FCDBB3;stroke-width:0;}
	.st9{clip-path:url(#SVGID_6_);fill:#FFFAF3;}
	.st10{fill:#020203;}
	.st11{opacity:0.9;clip-path:url(#SVGID_10_);}
	.st12{opacity:0.9;clip-path:url(#SVGID_12_);}
	.st13{clip-path:url(#SVGID_14_);fill:#FDE8CF;}
	.st14{opacity:0.9;clip-path:url(#SVGID_14_);}
	.st15{clip-path:url(#SVGID_16_);fill:#FBC98D;}
	.st16{clip-path:url(#SVGID_14_);fill:#FCD3A1;}
	.st17{clip-path:url(#SVGID_14_);fill:#FCDDB8;}
	.st18{clip-path:url(#SVGID_14_);fill:#FFF1E1;}
	.st19{clip-path:url(#SVGID_14_);fill:none;stroke:#FCDBB3;stroke-width:0;}
	.st20{clip-path:url(#SVGID_14_);fill:#FFFAF3;}
	.st21{opacity:0.9;clip-path:url(#SVGID_18_);}
	.st22{opacity:0.9;clip-path:url(#SVGID_20_);}
	.st23{clip-path:url(#SVGID_22_);fill:#FDE8CF;}
	.st24{opacity:0.9;clip-path:url(#SVGID_22_);}
	.st25{clip-path:url(#SVGID_24_);fill:#FBC98D;}
	.st26{clip-path:url(#SVGID_22_);fill:#FCD3A1;}
	.st27{clip-path:url(#SVGID_22_);fill:#FCDDB8;}
	.st28{clip-path:url(#SVGID_22_);fill:#FFF1E1;}
	.st29{clip-path:url(#SVGID_22_);fill:none;stroke:#FCDBB3;stroke-width:0;}
	.st30{clip-path:url(#SVGID_22_);fill:#FFFAF3;}
</style>
<g>
	<defs>
		
			<rect id="SVGID_1_" x="37.6" y="60.5" transform="matrix(0.2062 -0.9785 0.9785 0.2062 -35.4063 256.3555)" width="205.3" height="179"/>
	</defs>
	<clipPath id="SVGID_2_">
		<use xlink:href="#SVGID_1_"  style="overflow:visible;"/>
	</clipPath>
	<g class="st0">
		<g>
			<defs>
				
					<rect id="SVGID_3_" x="37.6" y="60.5" transform="matrix(0.2062 -0.9785 0.9785 0.2062 -35.4063 256.3555)" width="205.3" height="179"/>
			</defs>
			<clipPath id="SVGID_4_">
				<use xlink:href="#SVGID_3_"  style="overflow:visible;"/>
			</clipPath>
			<g class="st1">
				<g>
					<defs>
						
							<rect id="SVGID_5_" x="37.6" y="60.5" transform="matrix(0.2062 -0.9785 0.9785 0.2062 -35.4063 256.3555)" width="205.3" height="179"/>
					</defs>
					<clipPath id="SVGID_6_">
						<use xlink:href="#SVGID_5_"  style="overflow:visible;"/>
					</clipPath>
					<path class="st2" d="M61.7,143.1c-1,0.2-1.9,0.8-2.7,1.8c-0.8,1-1.4,2.3-1.9,3.9c-1,3.3-1.2,8-0.3,13.1
						c0.8,5.2,2.9,10.7,5.2,15.1c2.2,4.3,4.2,7.2,4.7,8.5c1.3,2.7,3.7,5.7,6.6,8.5c3,2.8,6.5,5.3,10.1,7.4c1.8,1,3.5,1.9,5.3,2.7
						c1.7,0.8,3.4,1.4,5.1,2.1c3.4,1.3,6.9,2.4,10.4,3.3c6.9,1.9,13.4,3,18.2,3.9c4.9,0.9,8.2,1.5,7.9,2.3
						c-1.1,2.1-0.8,9.4,1.8,16.6c0.6,1.8,1.4,3.6,2.3,5.3c0.9,1.7,1.9,3.3,2.9,4.7c1.1,1.4,2.2,2.6,3.3,3.6c1.1,0.9,2.3,1.6,3.3,1.9
						c9.9,3.1,22,3.6,33.7,0.8c11.7-2.8,21-8.6,27.2-15.4c3.2-3.2,4.4-5.5,5.5-7.1c1-1.6,1.8-2.5,3.6-3.1c0.7-0.3,0.5-2.8,0.5-6.4
						c0.1-3.5,0.3-8,1.8-12.5c1.1-3,3.1-5.7,4.8-8.6c0.9-1.4,1.6-2.9,2.1-4.4c0.5-1.5,0.7-3,0.6-4.6c0.1-2.8,0.7-6.6,0.8-11
						c0.2-4.3,0-9.2-0.8-13.8c-1.5-9.3-5.6-17.7-8.7-21.5c-2.8-3.6-5.7-6.6-8.1-8.9c-2.5-2.3-4.5-4.1-6.2-5.8
						c-0.4-0.4-0.8-0.8-1.2-1.3l-1.1-1.2c-0.6-0.7-1.1-1.3-1.5-2c-0.9-1.4-1.6-3-2.1-4.7c-0.3-2.9-1.6-4.8-2.8-6.9
						c-1.3-2.1-2.5-4.3-2.3-7c-0.1-2.8-0.3-5-0.5-7.4c-0.1-1.1-0.2-2.3-0.2-3.5c-0.1-1.8-0.1-3.6-0.2-5.6c0.3-2.3,0.4-4.3,0.3-6.4
						c-0.1-2-0.4-4.1-1-6c-1.1-4-3.4-7.7-6.9-10.9c-0.6-0.4-1.2-0.7-1.9-1c-0.7-0.3-1.4-0.5-2.2-0.6c-1.5-0.3-3.1-1.7-4.4-2.2
						c-2.3-2.3-3.8-4.5-5.5-6.2c-1.8-1.7-3.8-3-7-2.8c-0.4,0-1,0.1-1.7,0.3c-0.6,0.2-1.4,0.5-2.1,0.8c-0.7,0.3-1.5,0.7-2.1,1
						c-0.7,0.4-1.2,0.5-1.7,1.1c-2.1,1.7-3.9,3.2-5.5,4.5c-1.5,1.4-2.7,2.6-3.7,3.8c-0.5,0.6-0.9,1.2-1.3,1.7
						c-0.3,0.5-0.8,1.2-0.7,1.4c0,0.7,0.1,1.5,0.1,2.2c0.1,1.5,1.4,2.7,3,4.1c1.6,1.4,3.7,3,4.9,5.2c1.8,3-0.7,6.7-5.3,9.5
						c-1.2,0.7-2.4,1.4-3.8,2c-1.4,0.6-2.8,1.2-4.3,1.5c-3.1,0.6-6.3,1.3-9.6,1.8c-1.3,0.2-2.6,0.5-4,0.7c-0.7,0-1.4,0.4-2.1,0.8
						c-0.7,0.4-1.4,0.7-2.1,1.1c-2.9,1.4-5.7,2.9-8.2,4.7c-5,3.6-8.5,8.7-6.8,15.6c2.3,8,7.3,14.9,12.2,21.5
						c5,6.6,10.1,12.7,13.6,20.5c1.1,2.8,2.3,5.5,3.4,8c0.3,0.6,0.5,1.2,0.8,1.9c0.1,0.3,0.3,0.6,0.4,0.9l-0.1,0.3l-0.2,0.7
						c0,0.1-0.1,0.2-0.1,0.3l-0.2,0.2l-0.4,0.4l-0.1,0.1l0,0c0,0,0,0,0,0l0.3-0.2l1.2-0.7l3-1.8c2-1.2,4-2.3,6.1-3.5l3-1.6l2-1.1
						c1.4-0.7,2.8-1.5,4.2-2.2c1.2-0.6,2.3-1.1,3.5-1.7c1-0.5,2-0.9,3.1-1.4l3.1-1.3l-0.1,0l-0.2,0.1c-0.2,0.1-1.5,0.5-1.8,0.5
						c-1.1,0.2-1.9,0.2-1.7,0.2c0.1,0,1,0.1,1.7,0.4c0.6,0.2,1.2,0.4,1.7,0.7l0.4,0.2l-0.3-0.2c-0.2-0.1-0.4-0.3-0.6-0.4
						c-0.8-0.5-1.5-1.1-1.9-1.5c-0.5-0.5-0.3-0.5,0.1,0.4c0.2,0.4,0.4,1,0.6,1.7l0.1,0.5l0,0.3l0,0.1l0,0.1l0,0l0,0l-0.3-2.4l0-0.1
						c-0.1-0.4-0.1-0.8-0.1-1.3c-0.1-0.5-0.1-1.2-0.1-1.5c0,1.5-1.9,1.4-3.9-0.7c-0.9-0.5-1.2-9.5-1.2-12.5c0-5.3-4.3-3.7-8.5-1.8
						c-1.8,1.1-3.6,1.9-5.4,2.7c-1.8,0.7-3.5,1.3-5,1.8c-3,1.1-5.2,2-6.7,3.1l-0.1,0.1l-0.8,0.6l-1.3,1c-1,0.7-1.6,1.1-2.4,1.6
						c-0.6,0.4-1.4,0.8-1.9,1.1l-0.8,0.4l-0.4,0.2l-0.1,0l0,0l0.5-0.2l0.1,0c0.3-0.1,0.4-0.1,1-0.4c0.3-0.1,0.5-0.1,0.7-0.2
						c0.4-0.1,0.8-0.2,1.1-0.3c0.6-0.1,1.7-0.4,2.7-0.5l0.7-0.1c0.3,0,0.8-0.1,0.5-0.1l-0.8,0c-2.2,0-4.8-1.1-6.2-2.9
						c-0.6-1.6-1-3.4-1.4-5c-0.4-1.8-0.8-3.3-1.1-4.6c-0.2-0.7-0.3-1.4-0.5-1.9c-0.1-0.2-0.2-0.4-0.3-0.5c-0.1-0.1-0.1-0.1-0.2-0.1
						c0,0-0.1,0-0.1,0c-0.6-0.2-1.2-0.3-1.8-0.5c-2.1-0.5-3.7-1-4.8-1.3c-0.5-0.2-1-0.3-1.5-0.5c-0.4-0.1-0.8-0.3-1.2-0.4
						c-0.7-0.2-1.2-0.5-1.6-0.6c-0.5-0.2-0.8-0.3-1.1-0.5c-1.1-0.5-1.5-0.8-1.7-1c-0.2-0.1-0.3-0.2-0.3-0.2c0,0-0.2-0.2-0.1-0.1
						c0.4,0.4,1.2,1.4,1.9,3.2c0.4,1,0.8,2.1,1.3,4.1c0.1,0.6,0.3,1.1,0.4,1.7c0.2,0.7,0.3,1.5,0.5,2.2c0.2,1,0.4,2,0.6,3.1
						c0.1,0.9,0.1,0.6,0.1,0.7c0,0,0,0.1,0,0.1c0.5,0.3,0.9-0.2,1.6-1.1c0.9-1.3,1.8-2.5,2.5-3.5c2.7-3.4,7.4-6.1,12.2-6.1
						c2.3,0,4.7,0.6,6.4,1.8c1.8,1.2,3,3.1,3.1,5.3c0.7-0.9,1.9-1.9,1.7-2.4c-1.2-6.5-4.1-14-10.3-20.1c-3.1-3-7.1-5.6-11.8-7.2
						c-2.4-0.8-4.9-1.3-7.5-1.5c-1.4,0-2.6-0.1-4.1,0c-1.5,0.1-3.4,0.4-5.6,1.1c-1.6,0.9-3.6,2.1-5.6,3.9c-1,0.9-1.9,2-2.7,3
						c-0.8,1.1-1.4,2.1-1.9,3.1c-1.9,3.3-2.1,5.7-2.2,7.1c-0.1,1.3,0,2.7,0,4c-0.3,2.3-4.2,4.7-8.8,7.4
						C70.6,139.3,65.3,142.2,61.7,143.1"/>
					<g class="st3">
						<g>
							<defs>
								
									<rect id="SVGID_7_" x="110.4" y="74.7" transform="matrix(0.2062 -0.9785 0.9785 0.2062 19.941 279.7689)" width="144.1" height="105.9"/>
							</defs>
							<clipPath id="SVGID_8_">
								<use xlink:href="#SVGID_7_"  style="overflow:visible;"/>
							</clipPath>
							<path class="st4" d="M149.7,76.1c-1.2-2.2-3.2-3.8-4.8-5.3c-1.6-1.4-2.9-2.7-3-4.2c0-0.8-0.1-1.5-0.1-2.3l0-0.3l0.2-0.4
								l0.5-0.8c0.4-0.5,0.8-1.1,1.3-1.7c0.9-1.2,2.2-2.4,3.7-3.8c1.5-1.3,3.4-2.8,5.5-4.5c0.8-0.7,2.3-1.5,3.8-2.1
								c0.7-0.3,1.4-0.6,2.1-0.8c0.7-0.2,1.3-0.3,1.7-0.3c3.2-0.2,5.3,1.1,7,2.8c1.8,1.8,3.3,4,5.5,6.3c1.3,0.5,2.9,2,4.4,2.2
								c1.6,0.2,2.8,0.9,4,1.7c3.4,3.2,5.7,7,6.8,11c0.6,2,0.9,4,1,6.1c0.1,2-0.1,4.1-0.3,6.4c0.1,2,0.1,3.8,0.2,5.5
								c0,1.2,0.1,2.3,0.2,3.5c0.2,2.3,0.4,4.6,0.5,7.3c-0.2,2.7,1.1,4.9,2.4,7c1.3,2.1,2.6,4.1,2.9,6.9c0.5,1.8,1.2,3.3,2.1,4.7
								c0.4,0.7,1,1.4,1.5,2c0.6,0.8,1.5,1.6,2.3,2.5c1.7,1.7,3.8,3.6,6.3,5.8c2.5,2.3,5.3,5.3,8.1,9c3.1,3.8,7.2,12.2,8.6,21.6
								c0.8,4.7,0.9,9.5,0.7,13.8c-0.2,4.4-0.8,8.2-0.9,11c0.3,3.1-1,6.1-2.8,8.9c-1.7,2.9-3.7,5.6-4.9,8.6c0,0-0.4,0-1.2,0.1
								c-0.8,0.1-1.9,0.1-3.5,0.2c-3,0.1-7.6,0.2-13.2-0.2c4.8-6.5,7.8-13.5,8.9-20.5c1.2-7,0.4-13.8-1.9-19.5
								c-2.2-5.8-5.7-10.7-9.8-14.3c-2.1-1.8-4.3-3.4-6.5-4.6c-2.3-1.2-4.6-2-6.9-2.7c-0.7-0.9-1.4-1.9-2.3-2.9
								c-0.4-0.5-0.8-1-1.3-1.5l-1.6-1.7c-2.5-2.7-5.1-5.5-7.5-8.4c-4.8-5.7-8.9-12.1-10.6-19c-0.9-3.4-1.4-6.9-1.7-10.5l-0.4-5.3
								l-0.2-2.6c-0.1-0.6-0.1-1.3-0.2-1.8c-0.2-1.2-0.3-2.1-0.7-3.4c-0.3-1.2-0.7-2.4-1.2-3.5C153.1,80,151.6,77.9,149.7,76.1"/>
						</g>
					</g>
					<path class="st5" d="M208.6,198.5c0,0-1,2.6-3.4,6c-2.3,3.4-6.2,7.6-11,10.7c-4.8,3.1-10.4,5.1-14.7,4.8
						c-4.4-0.3-7-2.5-6.9-7.4c0,0,0.4-0.8,1.1-2.2c0.7-1.4,1.6-3.5,2.4-6c1.8-5,3.2-11.9,3-18.7c-0.1-6.8-1.8-13.4-4.1-18.1
						c-2.1-4.7-4.6-7.4-4.4-8.2c0,0,0.2-0.6,0.1-1.6c0-0.9-0.4-2.1-0.9-2.9c0,0,0.6-0.1,1.3-0.4c0.7-0.3,1.6-0.8,2.3-1.5
						c0.7-0.7,1-1.6,0.8-2.5c-0.3-0.9-1.1-1.5-2.8-1.8c0,0-0.3-0.1-0.9-0.4c-0.6-0.3-1.5-0.8-2.8-1.6c-0.6-0.4-1.4-0.9-2.3-1.5
						c-1.3-1.1-2.7-2.2-4.1-3.3c-2.9-2.4-6-5.1-8.8-8c-2.8-2.9-5.5-6-7.5-9.2c-2.1-3.2-3.6-6.4-4.5-9.3c-1.9-5.8-1.7-10.4,0-11.6
						c0,0,0.1-1.5,0.3-3.8c0.3-2.3,0.8-5.4,1.4-8.7c0.4-0.9,0.7-1.6,1.2-2.3c0.2-0.3,0.4-0.6,0.6-0.9c0.2-0.3,0.4-0.8,0.6-1.1
						c0.8-1.6,1.6-3,2.7-4c0,0,0.8-0.4,1.9-1.2c1.1-0.8,2.4-1.9,3.5-3.2c0.5-0.6,0.9-1.3,1.3-2c0.3-0.7,0.4-1.4,0.4-2.1
						c-0.1-1.4-1-2.7-2.9-3.5c0,0-0.3-1-1-2.4c-0.6-1.3-1.6-2.9-2.4-4c-0.4-0.6-0.3-1.3-0.2-2c0.1-0.6,0.4-1.2,1-1.7
						c0.6-0.5,1.4-1,2.6-1.2c1.2-0.3,2.7-0.5,4.6-0.2c0,0,2.7,0,5.9,0.4c3.3,0.4,6.9,1.6,9.1,2.6c0,0,0.7,0.6,1.8,1.7
						c1.1,1.1,2.6,2.8,4,5.1c1.4,2.3,2.8,5.2,3.5,8.5c0.4,1.6,0.6,3.4,0.7,5.1c0.1,1.7,0.1,3.8,0,5.5c0,0.9-0.1,1.8-0.2,2.6l-0.3,2
						c-0.2,1.4-0.5,2.8-0.7,4.1c-0.5,2.7-0.9,5.4-1,7.8c-0.3,4.8,0.3,8.3-0.5,9.3c0,0,0,0.2,0.1,0.6c0.1,0.4,0.2,1,0.4,1.7
						c0.4,1.4,1.3,3.4,2.6,5.8c1.3,2.4,3.2,5.1,5.4,8.1c2.2,3,4.6,6.1,6.8,9.5c4.4,6.8,7.7,14.9,10.2,24.5c1.3,4.8,2.2,10,2.9,15.8
						C207.4,185.9,207.8,192,208.6,198.5"/>
					<path class="st6" d="M211.6,203.4c0,0-0.1,0.5-0.3,1.5c-0.3,1-0.6,2.4-1.3,4c-1.3,3.3-3.7,7.6-7.7,11.5
						c-3.9,3.9-9.5,7.4-15.8,8.8c-3.2,0.7-6.4,0.9-9.7,0.4c-3.2-0.5-6.4-1.5-9-3.3c0,0-3.8-0.9-8.4-3c-4.7-2.1-10-5.3-13.8-9.1
						c-3.9-3.8-6.4-8-7.1-11.6c-0.7-3.7,0.3-6.8,3.4-8.9c0,0,0.7-0.5,2.1-1.4c1.3-0.9,3.2-2.3,5.4-4c4.3-3.4,9.8-8.6,12.4-14.6
						c2.5-6,1.9-12.6-0.4-17c-0.6-1.1-1.2-2-1.9-2.8l-0.4-0.5l0.2,0.2l0.5,0.4c0.4,0.3,0.8,0.6,1.3,0.9c0.3,0.1,0.5,0.3,0.8,0.4
						c-0.3-0.2-0.5-0.3-0.8-0.4c0,0-0.2-0.1-0.7-0.3c-0.4-0.2-1.1-0.4-1.7-0.5c0,0-0.9-0.1-0.7-0.1c0.1,0,1.7-0.1,2.7-0.5
						c0,0,0.4-0.1,0.9-0.3l0.1,0l0.1,0l0,0l0,0l-2.5,1l-0.2,0.1c-0.7,0.3-1.3,0.5-2,0.8c-0.7,0.3-1.4,0.6-2.1,1
						c-0.4,0.2-0.7,0.4-1.1,0.5c-0.2,0.1-1.4,0.7-1,0.5c0.3-0.2,0.6-0.4,1-0.7c0.2-0.3,0.5-0.7,0.7-1c0.2-0.4,0.3-0.9,0.4-1.3
						c0.1-0.5,0-1.1,0-1.6c0.1-0.2-0.2-0.8-0.4-1.2l-0.7-1.4c-0.4-0.9-1-2-1.5-2.9c-2.1-3.7-4.2-7-6.6-9.1c0,0,0.4-2.9,0.2-6.1
						c-0.2-3.3-1-6.9-4.1-9.2c0,0,0.7,0.8,1.8,2.2c1.2,1.4,3,3.3,5.3,5.5c2.3,2.2,5.1,4.7,8.2,7.2c1.6,1.2,3.2,2.5,4.8,3.8
						c0.8,0.6,1.6,1.3,2.5,1.9l1.2,0.9l0.6,0.5c0.2,0.2,0.3,0.2,0.4,0.3c2.2,1.4,3.9,2.5,5,3.3c0.3,0.2,0.5,0.4,0.8,0.6
						c0.2,0.2,0.4,0.3,0.6,0.5c0.4,0.4,0.7,0.8,0.9,1.2c0.9,1.7,0.2,3.4-2.3,3.8c0,0-0.7,0.4-1.3,1c-0.6,0.6-1,1.3-0.5,2.5
						c0.4,1.2,2.1,2.8,4.1,6.8c1.9,4,4.2,10.5,4.3,20.3c0,0,0.5,1.6,1.6,4c1,2.4,2.4,5.6,4.6,8.8c2.2,3.1,5.2,6.1,9.6,7.7
						C198.6,206.9,204.7,207,211.6,203.4"/>
					<path class="st7" d="M201.5,240.3c-5.7,5.7-12.6,11.9-22.1,15.9c-5.4,1.8-13.3,1.7-19.2,2c-3.9,0.1-7.7-0.6-11.1-1.5
						c-3.3-1-6.2-2.2-8.4-3.3c-9.8-5.8-19.9-11.1-27.4-16.5c-0.9-0.7-1.8-1.4-2.7-2c-0.8-0.7-1.7-1.3-2.5-2
						c-1.6-1.4-3.1-2.8-4.4-4.3c-2.7-3-4.8-6.1-5.8-9.6c-1-1.8-1.9-3-3.4-4.1c-0.7,0.1-2.8-0.2-3.5-0.2c-1.3-0.7-2.6-1.4-3.8-2.1
						c-1.2-0.7-2.5-1.5-3.8-2.3c-2.6-1.7-5.5-3.5-8.8-5.5c-5.6-2.9-10.8-8.2-14.8-15.1c-2-3.4-3.6-7.2-4.7-11.2
						c-1.1-3.9-1.6-7.8-1.7-11.4c-0.4-8.1,0.1-16.3,2.2-22.2c1.8-5.1,6.2-6.9,10.3-8.5c4.2-1.5,8.1-2.8,9.7-5.7
						c1.5-2.3,2.2-4.4,2.5-6.5c0.2-1.2,0.4-3.1,1.3-6c0.5-1.4,1.2-3.1,2.4-4.8c1.1-1.7,2.8-3.6,4.6-5.1c3.7-3,7.5-4.4,10.4-5.3
						c3-0.9,5.1-1.2,7-1.4c3.9-0.5,8-0.1,11.9,1.2c4.4,1.8,8.2,3.8,11.5,6.2c3.3,2.3,6,5.1,7.9,8.4c2.3,5.5,4.7,10.4,4.8,15.7
						c0.1,0.6-0.5,2-1.3,3.1c-0.7,1.2-1.7,2.2-2.2,2.4c-0.7,0.1-1.2-0.3-1.7-0.8c-0.4-0.5-0.9-1.2-1.6-1.4c-0.9-0.4-1.4-0.9-1.6-1.5
						c-0.2-0.7-0.1-1.5,0-2.4c0.2-1,0.3-1.9,0.5-2.8c0.1-1,0.2-1.9,0-2.8c-0.6-1.9-2.2-3.3-4-4.4c-1.9-1.1-4.1-1.9-6.1-2.9
						c-0.8-0.6-1.4-1.3-2-2.2c-0.7-0.8-1.3-1.7-2.1-2.7c-1-1.6-2.8-2.2-4.7-2.2c-2,0-4.1,0.6-6,1.1c-1.2,0.5-2.4,0.6-3.7,0.6
						c-1.4,0-3-0.1-5.1,0.2c-2,0.2-4.6,1-6.7,2.7c-2.1,1.6-3.4,3.6-3.9,5.3c-0.8,2.2-0.5,3.6-0.2,4.8c0.3,1.3,0.9,2.5,1.3,3.8
						c0.9,2.5,1.5,4.7-0.3,6.7c1.7-1.6,1.2,2.3,0.9,6.4c-0.4,4.1-0.3,8.6-1.4,6.4c0.5,0.3-1.6,1.9-3.1,2.4c-1,0-2.6,0.5-3.2,0.1
						c-2.2-1.6-4.9-2.4-7.7-2.9c-2.8-0.5-5.7-0.6-8.4-1.4c-0.2,0.3-0.4,4.5,0.6,10.6c0.5,3,1.3,6.4,2.2,9.6c0.9,3.2,2,6.2,2.3,8.5
						c0.5,3.6,1,7,2.2,10.3c1.2,3.3,3,6.4,5.7,8.9c1.8,1,4.1-0.2,5.7,0.5c0.8,0.6,4.7,1.8,9.2,2.5c4.5,0.7,10,1.2,15.5,1.5
						c11,0.6,21.4-0.1,23.2,1.3c1.8,2,3.9,6,2.5,8c-1.4,3-1.2,5.6-0.4,8.1c0.7,2.5,2.1,5.1,2.4,8c0,1.5-1.8,2.9-1.9,4.4
						c0.7,4.3,3.4,9.7,8.3,11.4c3.9,2,8.8,3.5,13.9,4.1c5.2,0.7,10.6,0.5,15.1-0.5C182.5,245.3,192.4,243.4,201.5,240.3"/>
					<path class="st8" d="M133.4,166.6c0,0-0.3,1-0.6,1.4c-0.1,0.1-0.2,0.2-0.3,0.3l-0.2,0.2l-0.1,0.1l0,0c0,0,0,0,0.1-0.1l0.6-0.3
						l1-0.6c1.9-1.2,3.8-2.3,5.9-3.5c1-0.6,2.1-1.2,3.2-1.7c1-0.5,2-1.1,3.1-1.6c1.4-0.8,2.8-1.6,4.3-2.3l2.2-1.1l1.1-0.5l0.8-0.4
						c1-0.5,2-1,3-1.4c0.5-0.2,1-0.4,1.5-0.6c1-0.4,2-0.8,3-1.3l-0.1,0c-0.4,0.2-0.8,0.3-1,0.4c-0.4,0.1-0.8,0.2-1.1,0.3
						c0,0-1.5,0.2-1.6,0.2c-0.3-0.1,1.2,0.2,1.7,0.4c0,0,0.6,0.2,1.4,0.5c0.2,0.1,0.4,0.2,0.5,0.2l0.2,0.1c-0.1,0-0.2-0.1-0.3-0.1
						c-0.3-0.2-0.5-0.3-0.6-0.4c0,0-0.1-0.1-0.3-0.2c-0.2-0.1-0.5-0.3-0.8-0.6c-0.6-0.5-1.2-1.1-1.1-1.1"/>
					<path class="st9" d="M61.6,199.5c-1.2-1.5-3.4-4.6-6-9.2c-1.3-2.3-2.6-4.9-3.8-7.8c-1.2-2.9-2.2-6-3-9.1
						c-1.5-6.1-1.7-12-1.3-16.5c0.3-2.2,0.6-4.3,1.1-5.8c0.5-1.6,1-2.9,1.5-3.8c3-5.9,6.8-10.1,10.7-13.5c3.9-3.4,8.1-6,12.4-8.2
						c0.6-0.5,0.9-1.3,0.4-1.9c-0.9-1-1.2-2.7-0.7-5.4c0.5-2.6,2.1-6.6,5.9-10.7c1.9-2,4.3-3.8,6.5-5c2.2-1.3,4.4-2.2,6.2-2.8
						c3.8-1.3,6.5-1.8,8.6-2.6c0.9-0.3,1.6-0.6,2.4-0.8c0.7-0.3,1.5-0.6,2.2-0.8c1.5-0.6,3.1-0.8,4.9-0.6c9.2,1.1,17,5,22.7,10
						c5.7,5,9.4,11.2,10.8,17.3c1.1,5.3-0.4,10.5-2.2,15c-0.7,1-1.3,2.3-2.6,2.7c-0.9,0.5-1.1-0.9-1.8-1.3c0.2-1,1-2.3,1-3.7
						c0.3-2.9-1.7-5.2-1.9-8.3c-0.6-3.1-0.8-6.4-2.9-9.5c-0.8-1-1.6-1.8-2.5-2.5c-0.9-0.8-1.8-1.4-3-2c-3.8-2.6-8.2-4.5-12.9-5.6
						c-1.2-0.3-2.4-0.5-3.6-0.7c-1.2-0.1-2.4-0.2-3.7-0.3c-2.6,0-4.6-0.1-8.1,0.6c-1.2,1.1-2.7,1.9-4.6,3c-1.9,1-4.3,2.3-6.4,4.2
						c-2.2,1.9-3.7,3.9-4.7,5.6c-1,1.7-1.6,3-1.9,4c-0.5,1.3-1.4,1.7-2.2,2.6c-1,2.4,0.1,5.5-3,7c-3.4,1.4-6.7,3-9.7,5.3
						c-3,2.2-5.7,4.9-7.8,8.6c-0.4,0.7-0.9,1.8-1.4,3.2c-0.2,0.7-0.5,1.5-0.7,2.3c-0.2,0.9-0.4,1.8-0.6,2.8c-0.7,4-0.9,9.3,0.2,15.2
						c0.6,2.9,1.3,5.9,2.4,8.7c1,2.8,2.2,5.4,3.4,7.7c2.4,4.6,4.7,7.8,6.1,9.6c3.6,4.8,8,7.9,11.8,10.3c4,2.4,7.2,4,10,6.3
						c0.2,0.2-2.1,1.4-6.3,1c-2.2-0.3-5-1-8.6-3C71.3,208.7,66.8,205.5,61.6,199.5"/>
				</g>
			</g>
		</g>
	</g>
</g>
<g>
	<g>
		<path class="st10" d="M179.2,103.8c-3-4.4-7.3-7-12.4-8.6c-5.6-1.7-12.5-3.3-18.3-2.4c-7.2,1.1-14.4,5.6-20.5,9.1
			c-5.9,3.4-11.5,7.3-16.7,11.7c-21.1,17.8-35.6,46-28.5,74c3,11.7,9.8,22.4,19.4,29.8c10.8,8.2,24.5,10.2,37.6,11.9
			c16.1,2,32.2-0.6,47.2-7c12.1-5.1,20.6-16.3,25.5-28.2c5.9-14.4,6.7-30.8-0.7-44.7c-8.8-16.4-21.2-31.1-32.7-45.6
			c-0.5-0.6-1.3,0.2-0.8,0.8c9.4,11.9,18.7,23.8,27,36.5c3.4,5.2,6.8,10.6,8.8,16.5c2.3,7.2,2.3,15.2,1.1,22.7
			c-2.1,12.7-8.3,25.2-17.8,34c-5.6,5.1-12.2,7.7-19.3,9.8c-7.2,2.2-14.5,4.3-22.1,4.7c-7.3,0.4-14.6-0.4-21.7-1.6
			c-6.8-1.1-13.9-2.1-20.4-4.6c-11-4.3-19.9-13-25.4-23.4c-12.8-24.4-4.6-54.1,12.7-74c9.1-10.5,20.6-18.9,32.9-25.3
			c3.7-1.9,7.7-4.1,11.8-5.3c4.4-1.3,8.3-0.8,12.7-0.1c7.5,1.3,15.1,3.2,19.6,9.8C178.6,105.1,179.6,104.5,179.2,103.8L179.2,103.8z
			"/>
	</g>
</g>
<g>
	<g>
		<path class="st10" d="M184.2,212.6c1.6,0,3.2-0.2,4.8-0.5c0.8-0.1,0.4-1.3-0.3-1.2c-1.5,0.3-3,0.4-4.5,0.4
			C183.4,211.4,183.4,212.6,184.2,212.6L184.2,212.6z"/>
	</g>
</g>
<g>
	<g>
		<path class="st10" d="M184.9,207.9c2.1-0.3,4-1,5.8-2.1c0.7-0.4,0.1-1.4-0.6-1c-1.7,1.1-3.5,1.7-5.5,2
			C183.8,206.9,184.1,208.1,184.9,207.9L184.9,207.9z"/>
	</g>
</g>
<g>
	<g>
		<path class="st10" d="M188.9,196.6c1.6-0.9,3.1-1.9,4.7-2.8c0.7-0.4,0.1-1.4-0.6-1c-1.6,0.9-3.1,1.8-4.7,2.8
			C187.6,196,188.2,197,188.9,196.6L188.9,196.6z"/>
	</g>
</g>
<g>
	<g>
		<path class="st10" d="M202.4,176c-1,0.9-1.9,1.7-3,2.5c-0.6,0.5,0.3,1.3,0.8,0.8c1-0.8,2-1.6,3-2.5
			C203.8,176.4,203,175.5,202.4,176L202.4,176z"/>
	</g>
</g>
<g>
	<g>
		<path class="st10" d="M202.7,184.7c-1.3,1.3-2.7,2.4-4.3,3.4c-0.6,0.4,0,1.5,0.6,1c1.6-1.1,3.1-2.3,4.5-3.6
			C204.1,185,203.3,184.2,202.7,184.7L202.7,184.7z"/>
	</g>
</g>
<g>
	<g>
		<path class="st10" d="M200.6,194c-0.8,2.3-3.3,4-5,5.6c-0.6,0.5,0.3,1.4,0.8,0.8c1.9-1.8,4.4-3.6,5.3-6.2
			C202,193.6,200.8,193.3,200.6,194L200.6,194z"/>
	</g>
</g>
<g>
	<g>
		<path class="st10" d="M200.7,206.5c-1.8,0.9-3.6,1.6-5.5,2.1c-0.7,0.2-0.4,1.4,0.3,1.2c2-0.5,3.9-1.3,5.8-2.3
			C202,207.2,201.4,206.1,200.7,206.5L200.7,206.5z"/>
	</g>
</g>
<g>
	<g>
		<path class="st10" d="M190.4,198.9c-1.5,1-3,1.9-4.5,2.9c-0.7,0.4,0,1.5,0.6,1c1.5-1,3-1.9,4.5-2.9
			C191.6,199.5,191,198.4,190.4,198.9L190.4,198.9z"/>
	</g>
</g>
<g>
	<g>
		<path class="st10" d="M185.2,216.9c-2.4,0.9-4.7,1.8-7.1,2.8c-0.7,0.3-0.4,1.4,0.3,1.2c2.4-0.9,4.7-1.8,7.1-2.8
			C186.2,217.8,185.9,216.6,185.2,216.9L185.2,216.9z"/>
	</g>
</g>
<g>
	<g>
		<path class="st10" d="M179,212.7c-1.5,0.6-3,1.1-4.5,1.7c-0.7,0.3-0.4,1.4,0.3,1.2c1.5-0.6,3-1.1,4.5-1.7
			C180,213.6,179.7,212.5,179,212.7L179,212.7z"/>
	</g>
</g>
<g>
	<g>
		<path class="st10" d="M194.5,181.1c-1,0.6-2,1.3-2.8,2.2c-0.5,0.6,0.3,1.4,0.8,0.8c0.8-0.8,1.6-1.4,2.6-2
			C195.8,181.7,195.2,180.7,194.5,181.1L194.5,181.1z"/>
	</g>
</g>
<g>
	<g>
		<path class="st10" d="M202.9,163.1c-1.3,1.2-2.7,2.4-4,3.6c-0.6,0.5,0.3,1.4,0.8,0.8c1.3-1.2,2.7-2.4,4-3.6
			C204.3,163.4,203.5,162.6,202.9,163.1L202.9,163.1z"/>
	</g>
</g>
<g>
	<g>
		<path class="st10" d="M151.2,96.1c1.3,0.4,2.6,1,3.9,1.6c0.2-0.4,0.3-0.7,0.5-1.1c-1.2-0.4-2.5-0.8-3.7-1.1
			c-0.1,0.4-0.2,0.8-0.3,1.2c1.2,0.2,2.3,0.4,3.5,0.6c0.1-0.4,0.1-0.8,0.2-1.2c-0.7,0.1-1.4,0.1-2.1,0.1c0,0.4,0,0.8,0,1.2
			c0.2,0,0.5,0,0.7,0c-0.1-0.4-0.2-0.7-0.3-1.1c-0.5,0.2-1.1,0.5-1.6,0.7c0.2,0.3,0.4,0.7,0.6,1c0.6-0.3,1.1-0.4,1.7-0.2
			c0-0.4-0.1-0.7-0.1-1.1c-0.7,0.4-1.3,0.7-2.1,0.9c0.2,0.4,0.3,0.7,0.5,1.1c0.2-0.1,1.4-0.8,1-0.4c0.3,0.3,0.6,0.6,0.8,0.8
			c0.3-0.2,0.6-0.3,0.9-0.5c0.5-0.1,0.8-0.6,0.4-1c-0.9-0.9-1.8-1.8-2.8-2.6c-0.5-0.4-1.3,0.5-0.7,0.9c0.9,0.8,1.9,1.3,3.1,1.6
			c0.1-0.4,0.1-0.8,0.2-1.2c-0.4,0-0.8-0.1-1.2-0.3c-0.1,0.4-0.2,0.7-0.3,1.1c1.3-0.2,2.7-0.2,4,0c-0.1-0.4-0.1-0.8-0.2-1.2
			c-1.3,0.3-2.6,0.2-3.8-0.3c-0.1,0.4-0.1,0.8-0.2,1.2c1.1,0.1,2.2,0.4,3.2,0.8c0.1-0.4,0.1-0.8,0.2-1.2c-1,0-1.9,0-2.9,0
			c0,0.4,0,0.8,0,1.2c0.4-0.1,0.8,0,1.2,0.1c0.8,0.2,1.1-1,0.3-1.2c-0.5-0.1-1-0.2-1.6-0.1c-0.8,0-0.8,1.2,0,1.2c1,0,1.9,0,2.9,0
			c0.7,0,0.8-0.9,0.2-1.2c-1.2-0.5-2.3-0.8-3.6-0.9c-0.7-0.1-0.8,1-0.2,1.2c1.5,0.5,2.9,0.6,4.4,0.3c0.7-0.2,0.5-1.1-0.2-1.2
			c-1.3-0.2-2.7-0.2-4,0c-0.5,0.1-0.9,0.8-0.3,1.1c0.6,0.3,1.1,0.5,1.8,0.5c0.7,0,0.8-1,0.2-1.2c-1-0.3-1.8-0.7-2.6-1.3
			c-0.2,0.3-0.5,0.6-0.7,0.9c0.9,0.7,1.8,1.5,2.6,2.4c0.1-0.3,0.3-0.7,0.4-1c-0.8,0.1-1.3,0.3-1.8,0.9c-0.5,0.6,0.3,1.4,0.8,0.8
			c0.6-0.5,1-1.4,0.3-2c-0.7-0.6-2,0.1-2.7,0.5c-0.6,0.4-0.2,1.3,0.5,1.1c0.8-0.2,1.6-0.5,2.4-1c0.5-0.3,0.3-0.9-0.1-1.1
			c-0.9-0.3-1.8-0.2-2.6,0.3c-0.7,0.4-0.1,1.3,0.6,1c0.5-0.2,1.1-0.5,1.6-0.7c0.6-0.2,0.3-1.1-0.3-1.1c-0.2,0-0.5,0-0.7,0
			c-0.8,0-0.8,1.2,0,1.2c0.7,0,1.4-0.1,2.1-0.1c0.6-0.1,0.9-1.1,0.2-1.2c-1.2-0.2-2.3-0.4-3.5-0.6c-0.7-0.1-1.1,0.9-0.3,1.2
			c1.2,0.4,2.5,0.8,3.7,1.1c0.6,0.2,1.1-0.8,0.5-1.1c-1.3-0.7-2.7-1.3-4.2-1.7C150.8,94.7,150.5,95.9,151.2,96.1L151.2,96.1z"/>
	</g>
</g>
<g>
	<g>
		<path class="st10" d="M199.4,169.6c-1.3,1.7-2.9,3-4.8,3.8c-0.7,0.3-0.1,1.3,0.6,1c2.1-1,3.9-2.4,5.3-4.3
			C200.9,169.6,199.9,169,199.4,169.6L199.4,169.6z"/>
	</g>
</g>
<g>
	<g>
		<path class="st10" d="M207.2,172.9c-1,2.6-2.8,4.6-5.2,6c-0.7,0.4-0.1,1.4,0.6,1c2.7-1.5,4.6-3.8,5.7-6.7
			C208.7,172.5,207.5,172.2,207.2,172.9L207.2,172.9z"/>
	</g>
</g>
<g>
	<g>
		<path class="st10" d="M207.6,188.5c-1,1.5-2.2,2.7-3.7,3.7c-0.6,0.4,0,1.5,0.6,1c1.7-1.1,3-2.5,4.1-4.1
			C209,188.5,208,187.9,207.6,188.5L207.6,188.5z"/>
	</g>
</g>
<g>
	<g>
		<defs>
			
				<rect id="SVGID_9_" x="37.6" y="60.5" transform="matrix(0.2062 -0.9785 0.9785 0.2062 -35.4063 256.3555)" width="205.3" height="179"/>
		</defs>
		<clipPath id="SVGID_10_">
			<use xlink:href="#SVGID_9_"  style="overflow:visible;"/>
		</clipPath>
		<g class="st11">
			<g>
				<defs>
					
						<rect id="SVGID_11_" x="37.6" y="60.5" transform="matrix(0.2062 -0.9785 0.9785 0.2062 -35.4063 256.3555)" width="205.3" height="179"/>
				</defs>
				<clipPath id="SVGID_12_">
					<use xlink:href="#SVGID_11_"  style="overflow:visible;"/>
				</clipPath>
				<g class="st12">
					<g>
						<defs>
							
								<rect id="SVGID_13_" x="37.6" y="60.5" transform="matrix(0.2062 -0.9785 0.9785 0.2062 -35.4063 256.3555)" width="205.3" height="179"/>
						</defs>
						<clipPath id="SVGID_14_">
							<use xlink:href="#SVGID_13_"  style="overflow:visible;"/>
						</clipPath>
						<path class="st13" d="M61.7,143.1c-1,0.2-1.9,0.8-2.7,1.8c-0.8,1-1.4,2.3-1.9,3.9c-1,3.3-1.2,8-0.3,13.1
							c0.8,5.2,2.9,10.7,5.2,15.1c2.2,4.3,4.2,7.2,4.7,8.5c1.3,2.7,3.7,5.7,6.6,8.5c3,2.8,6.5,5.3,10.1,7.4c1.8,1,3.5,1.9,5.3,2.7
							c1.7,0.8,3.4,1.4,5.1,2.1c3.4,1.3,6.9,2.4,10.4,3.3c6.9,1.9,13.4,3,18.2,3.9c4.9,0.9,8.2,1.5,7.9,2.3
							c-1.1,2.1-0.8,9.4,1.8,16.6c0.6,1.8,1.4,3.6,2.3,5.3c0.9,1.7,1.9,3.3,2.9,4.7c1.1,1.4,2.2,2.6,3.3,3.6
							c1.1,0.9,2.3,1.6,3.3,1.9c9.9,3.1,22,3.6,33.7,0.8c11.7-2.8,21-8.6,27.2-15.4c3.2-3.2,4.4-5.5,5.5-7.1c1-1.6,1.8-2.5,3.6-3.1
							c0.7-0.3,0.5-2.8,0.5-6.4c0.1-3.5,0.3-8,1.8-12.5c1.1-3,3.1-5.7,4.8-8.6c0.9-1.4,1.6-2.9,2.1-4.4c0.5-1.5,0.7-3,0.6-4.6
							c0.1-2.8,0.7-6.6,0.8-11c0.2-4.3,0-9.2-0.8-13.8c-1.5-9.3-5.6-17.7-8.7-21.5c-2.8-3.6-5.7-6.6-8.1-8.9
							c-2.5-2.3-4.5-4.1-6.2-5.8c-0.4-0.4-0.8-0.8-1.2-1.3l-1.1-1.2c-0.6-0.7-1.1-1.3-1.5-2c-0.9-1.4-1.6-3-2.1-4.7
							c-0.3-2.9-1.6-4.8-2.8-6.9c-1.3-2.1-2.5-4.3-2.3-7c-0.1-2.8-0.3-5-0.5-7.4c-0.1-1.1-0.2-2.3-0.2-3.5c-0.1-1.8-0.1-3.6-0.2-5.6
							c0.3-2.3,0.4-4.3,0.3-6.4c-0.1-2-0.4-4.1-1-6c-1.1-4-3.4-7.7-6.9-10.9c-0.6-0.4-1.2-0.7-1.9-1c-0.7-0.3-1.4-0.5-2.2-0.6
							c-1.5-0.3-3.1-1.7-4.4-2.2c-2.3-2.3-3.8-4.5-5.5-6.2c-1.8-1.7-3.8-3-7-2.8c-0.4,0-1,0.1-1.7,0.3c-0.6,0.2-1.4,0.5-2.1,0.8
							c-0.7,0.3-1.5,0.7-2.1,1c-0.7,0.4-1.2,0.5-1.7,1.1c-2.1,1.7-3.9,3.2-5.5,4.5c-1.5,1.4-2.7,2.6-3.7,3.8
							c-0.5,0.6-0.9,1.2-1.3,1.7c-0.3,0.5-0.8,1.2-0.7,1.4c0,0.7,0.1,1.5,0.1,2.2c0.1,1.5,1.4,2.7,3,4.1c1.6,1.4,3.7,3,4.9,5.2
							c1.8,3-0.7,6.7-5.3,9.5c-1.2,0.7-2.4,1.4-3.8,2c-1.4,0.6-2.8,1.2-4.3,1.5c-3.1,0.6-6.3,1.3-9.6,1.8c-1.3,0.2-2.6,0.5-4,0.7
							c-0.7,0-1.4,0.4-2.1,0.8c-0.7,0.4-1.4,0.7-2.1,1.1c-2.9,1.4-5.7,2.9-8.2,4.7c-5,3.6-8.5,8.7-6.8,15.6
							c2.3,8,7.3,14.9,12.2,21.5c5,6.6,10.1,12.7,13.6,20.5c1.1,2.8,2.3,5.5,3.4,8c0.3,0.6,0.5,1.2,0.8,1.9c0.1,0.3,0.3,0.6,0.4,0.9
							l-0.1,0.3l-0.2,0.7c0,0.1-0.1,0.2-0.1,0.3l-0.2,0.2l-0.4,0.4l-0.1,0.1l0,0c0,0,0,0,0,0l0.3-0.2l1.2-0.7l3-1.8
							c2-1.2,4-2.3,6.1-3.5l3-1.6l2-1.1c1.4-0.7,2.8-1.5,4.2-2.2c1.2-0.6,2.3-1.1,3.5-1.7c1-0.5,2-0.9,3.1-1.4l3.1-1.3l-0.1,0
							l-0.2,0.1c-0.2,0.1-1.5,0.5-1.8,0.5c-1.1,0.2-1.9,0.2-1.7,0.2c0.1,0,1,0.1,1.7,0.4c0.6,0.2,1.2,0.4,1.7,0.7l0.4,0.2l-0.3-0.2
							c-0.2-0.1-0.4-0.3-0.6-0.4c-0.8-0.5-1.5-1.1-1.9-1.5c-0.5-0.5-0.3-0.5,0.1,0.4c0.2,0.4,0.4,1,0.6,1.7l0.1,0.5l0,0.3l0,0.1
							l0,0.1l0,0l0,0l-0.3-2.4l0-0.1c-0.1-0.4-0.1-0.8-0.1-1.3c-0.1-0.5-0.1-1.2-0.1-1.5c0,1.5-1.9,1.4-3.9-0.7
							c-0.9-0.5-1.2-9.5-1.2-12.5c0-5.3-4.3-3.7-8.5-1.8c-1.8,1.1-3.6,1.9-5.4,2.7c-1.8,0.7-3.5,1.3-5,1.8c-3,1.1-5.2,2-6.7,3.1
							l-0.1,0.1l-0.8,0.6l-1.3,1c-1,0.7-1.6,1.1-2.4,1.6c-0.6,0.4-1.4,0.8-1.9,1.1l-0.8,0.4l-0.4,0.2l-0.1,0l0,0l0.5-0.2l0.1,0
							c0.3-0.1,0.4-0.1,1-0.4c0.3-0.1,0.5-0.1,0.7-0.2c0.4-0.1,0.8-0.2,1.1-0.3c0.6-0.1,1.7-0.4,2.7-0.5l0.7-0.1
							c0.3,0,0.8-0.1,0.5-0.1l-0.8,0c-2.2,0-4.8-1.1-6.2-2.9c-0.6-1.6-1-3.4-1.4-5c-0.4-1.8-0.8-3.3-1.1-4.6
							c-0.2-0.7-0.3-1.4-0.5-1.9c-0.1-0.2-0.2-0.4-0.3-0.5c-0.1-0.1-0.1-0.1-0.2-0.1c0,0-0.1,0-0.1,0c-0.6-0.2-1.2-0.3-1.8-0.5
							c-2.1-0.5-3.7-1-4.8-1.3c-0.5-0.2-1-0.3-1.5-0.5c-0.4-0.1-0.8-0.3-1.2-0.4c-0.7-0.2-1.2-0.5-1.6-0.6c-0.5-0.2-0.8-0.3-1.1-0.5
							c-1.1-0.5-1.5-0.8-1.7-1c-0.2-0.1-0.3-0.2-0.3-0.2c0,0-0.2-0.2-0.1-0.1c0.4,0.4,1.2,1.4,1.9,3.2c0.4,1,0.8,2.1,1.3,4.1
							c0.1,0.6,0.3,1.1,0.4,1.7c0.2,0.7,0.3,1.5,0.5,2.2c0.2,1,0.4,2,0.6,3.1c0.1,0.9,0.1,0.6,0.1,0.7c0,0,0,0.1,0,0.1
							c0.5,0.3,0.9-0.2,1.6-1.1c0.9-1.3,1.8-2.5,2.5-3.5c2.7-3.4,7.4-6.1,12.2-6.1c2.3,0,4.7,0.6,6.4,1.8c1.8,1.2,3,3.1,3.1,5.3
							c0.7-0.9,1.9-1.9,1.7-2.4c-1.2-6.5-4.1-14-10.3-20.1c-3.1-3-7.1-5.6-11.8-7.2c-2.4-0.8-4.9-1.3-7.5-1.5c-1.4,0-2.6-0.1-4.1,0
							c-1.5,0.1-3.4,0.4-5.6,1.1c-1.6,0.9-3.6,2.1-5.6,3.9c-1,0.9-1.9,2-2.7,3c-0.8,1.1-1.4,2.1-1.9,3.1c-1.9,3.3-2.1,5.7-2.2,7.1
							c-0.1,1.3,0,2.7,0,4c-0.3,2.3-4.2,4.7-8.8,7.4C70.6,139.3,65.3,142.2,61.7,143.1"/>
						<g class="st14">
							<g>
								<defs>
									
										<rect id="SVGID_15_" x="110.4" y="74.7" transform="matrix(0.2062 -0.9785 0.9785 0.2062 19.941 279.7689)" width="144.1" height="105.9"/>
								</defs>
								<clipPath id="SVGID_16_">
									<use xlink:href="#SVGID_15_"  style="overflow:visible;"/>
								</clipPath>
								<path class="st15" d="M149.7,76.1c-1.2-2.2-3.2-3.8-4.8-5.3c-1.6-1.4-2.9-2.7-3-4.2c0-0.8-0.1-1.5-0.1-2.3l0-0.3l0.2-0.4
									l0.5-0.8c0.4-0.5,0.8-1.1,1.3-1.7c0.9-1.2,2.2-2.4,3.7-3.8c1.5-1.3,3.4-2.8,5.5-4.5c0.8-0.7,2.3-1.5,3.8-2.1
									c0.7-0.3,1.4-0.6,2.1-0.8c0.7-0.2,1.3-0.3,1.7-0.3c3.2-0.2,5.3,1.1,7,2.8c1.8,1.8,3.3,4,5.5,6.3c1.3,0.5,2.9,2,4.4,2.2
									c1.6,0.2,2.8,0.9,4,1.7c3.4,3.2,5.7,7,6.8,11c0.6,2,0.9,4,1,6.1c0.1,2-0.1,4.1-0.3,6.4c0.1,2,0.1,3.8,0.2,5.5
									c0,1.2,0.1,2.3,0.2,3.5c0.2,2.3,0.4,4.6,0.5,7.3c-0.2,2.7,1.1,4.9,2.4,7c1.3,2.1,2.6,4.1,2.9,6.9c0.5,1.8,1.2,3.3,2.1,4.7
									c0.4,0.7,1,1.4,1.5,2c0.6,0.8,1.5,1.6,2.3,2.5c1.7,1.7,3.8,3.6,6.3,5.8c2.5,2.3,5.3,5.3,8.1,9c3.1,3.8,7.2,12.2,8.6,21.6
									c0.8,4.7,0.9,9.5,0.7,13.8c-0.2,4.4-0.8,8.2-0.9,11c0.3,3.1-1,6.1-2.8,8.9c-1.7,2.9-3.7,5.6-4.9,8.6c0,0-0.4,0-1.2,0.1
									c-0.8,0.1-1.9,0.1-3.5,0.2c-3,0.1-7.6,0.2-13.2-0.2c4.8-6.5,7.8-13.5,8.9-20.5c1.2-7,0.4-13.8-1.9-19.5
									c-2.2-5.8-5.7-10.7-9.8-14.3c-2.1-1.8-4.3-3.4-6.5-4.6c-2.3-1.2-4.6-2-6.9-2.7c-0.7-0.9-1.4-1.9-2.3-2.9
									c-0.4-0.5-0.8-1-1.3-1.5l-1.6-1.7c-2.5-2.7-5.1-5.5-7.5-8.4c-4.8-5.7-8.9-12.1-10.6-19c-0.9-3.4-1.4-6.9-1.7-10.5l-0.4-5.3
									l-0.2-2.6c-0.1-0.6-0.1-1.3-0.2-1.8c-0.2-1.2-0.3-2.1-0.7-3.4c-0.3-1.2-0.7-2.4-1.2-3.5C153.1,80,151.6,77.9,149.7,76.1"/>
							</g>
						</g>
						<path class="st16" d="M208.6,198.5c0,0-1,2.6-3.4,6c-2.3,3.4-6.2,7.6-11,10.7c-4.8,3.1-10.4,5.1-14.7,4.8
							c-4.4-0.3-7-2.5-6.9-7.4c0,0,0.4-0.8,1.1-2.2c0.7-1.4,1.6-3.5,2.4-6c1.8-5,3.2-11.9,3-18.7c-0.1-6.8-1.8-13.4-4.1-18.1
							c-2.1-4.7-4.6-7.4-4.4-8.2c0,0,0.2-0.6,0.1-1.6c0-0.9-0.4-2.1-0.9-2.9c0,0,0.6-0.1,1.3-0.4c0.7-0.3,1.6-0.8,2.3-1.5
							c0.7-0.7,1-1.6,0.8-2.5c-0.3-0.9-1.1-1.5-2.8-1.8c0,0-0.3-0.1-0.9-0.4c-0.6-0.3-1.5-0.8-2.8-1.6c-0.6-0.4-1.4-0.9-2.3-1.5
							c-1.3-1.1-2.7-2.2-4.1-3.3c-2.9-2.4-6-5.1-8.8-8c-2.8-2.9-5.5-6-7.5-9.2c-2.1-3.2-3.6-6.4-4.5-9.3c-1.9-5.8-1.7-10.4,0-11.6
							c0,0,0.1-1.5,0.3-3.8c0.3-2.3,0.8-5.4,1.4-8.7c0.4-0.9,0.7-1.6,1.2-2.3c0.2-0.3,0.4-0.6,0.6-0.9c0.2-0.3,0.4-0.8,0.6-1.1
							c0.8-1.6,1.6-3,2.7-4c0,0,0.8-0.4,1.9-1.2c1.1-0.8,2.4-1.9,3.5-3.2c0.5-0.6,0.9-1.3,1.3-2c0.3-0.7,0.4-1.4,0.4-2.1
							c-0.1-1.4-1-2.7-2.9-3.5c0,0-0.3-1-1-2.4c-0.6-1.3-1.6-2.9-2.4-4c-0.4-0.6-0.3-1.3-0.2-2c0.1-0.6,0.4-1.2,1-1.7
							c0.6-0.5,1.4-1,2.6-1.2c1.2-0.3,2.7-0.5,4.6-0.2c0,0,2.7,0,5.9,0.4c3.3,0.4,6.9,1.6,9.1,2.6c0,0,0.7,0.6,1.8,1.7
							c1.1,1.1,2.6,2.8,4,5.1c1.4,2.3,2.8,5.2,3.5,8.5c0.4,1.6,0.6,3.4,0.7,5.1c0.1,1.7,0.1,3.8,0,5.5c0,0.9-0.1,1.8-0.2,2.6l-0.3,2
							c-0.2,1.4-0.5,2.8-0.7,4.1c-0.5,2.7-0.9,5.4-1,7.8c-0.3,4.8,0.3,8.3-0.5,9.3c0,0,0,0.2,0.1,0.6c0.1,0.4,0.2,1,0.4,1.7
							c0.4,1.4,1.3,3.4,2.6,5.8c1.3,2.4,3.2,5.1,5.4,8.1c2.2,3,4.6,6.1,6.8,9.5c4.4,6.8,7.7,14.9,10.2,24.5c1.3,4.8,2.2,10,2.9,15.8
							C207.4,185.9,207.8,192,208.6,198.5"/>
						<path class="st17" d="M211.6,203.4c0,0-0.1,0.5-0.3,1.5c-0.3,1-0.6,2.4-1.3,4c-1.3,3.3-3.7,7.6-7.7,11.5
							c-3.9,3.9-9.5,7.4-15.8,8.8c-3.2,0.7-6.4,0.9-9.7,0.4c-3.2-0.5-6.4-1.5-9-3.3c0,0-3.8-0.9-8.4-3c-4.7-2.1-10-5.3-13.8-9.1
							c-3.9-3.8-6.4-8-7.1-11.6c-0.7-3.7,0.3-6.8,3.4-8.9c0,0,0.7-0.5,2.1-1.4c1.3-0.9,3.2-2.3,5.4-4c4.3-3.4,9.8-8.6,12.4-14.6
							c2.5-6,1.9-12.6-0.4-17c-0.6-1.1-1.2-2-1.9-2.8l-0.4-0.5l0.2,0.2l0.5,0.4c0.4,0.3,0.8,0.6,1.3,0.9c0.3,0.1,0.5,0.3,0.8,0.4
							c-0.3-0.2-0.5-0.3-0.8-0.4c0,0-0.2-0.1-0.7-0.3c-0.4-0.2-1.1-0.4-1.7-0.5c0,0-0.9-0.1-0.7-0.1c0.1,0,1.7-0.1,2.7-0.5
							c0,0,0.4-0.1,0.9-0.3l0.1,0l0.1,0l0,0l0,0l-2.5,1l-0.2,0.1c-0.7,0.3-1.3,0.5-2,0.8c-0.7,0.3-1.4,0.6-2.1,1
							c-0.4,0.2-0.7,0.4-1.1,0.5c-0.2,0.1-1.4,0.7-1,0.5c0.3-0.2,0.6-0.4,1-0.7c0.2-0.3,0.5-0.7,0.7-1c0.2-0.4,0.3-0.9,0.4-1.3
							c0.1-0.5,0-1.1,0-1.6c0.1-0.2-0.2-0.8-0.4-1.2l-0.7-1.4c-0.4-0.9-1-2-1.5-2.9c-2.1-3.7-4.2-7-6.6-9.1c0,0,0.4-2.9,0.2-6.1
							c-0.2-3.3-1-6.9-4.1-9.2c0,0,0.7,0.8,1.8,2.2c1.2,1.4,3,3.3,5.3,5.5c2.3,2.2,5.1,4.7,8.2,7.2c1.6,1.2,3.2,2.5,4.8,3.8
							c0.8,0.6,1.6,1.3,2.5,1.9l1.2,0.9l0.6,0.5c0.2,0.2,0.3,0.2,0.4,0.3c2.2,1.4,3.9,2.5,5,3.3c0.3,0.2,0.5,0.4,0.8,0.6
							c0.2,0.2,0.4,0.3,0.6,0.5c0.4,0.4,0.7,0.8,0.9,1.2c0.9,1.7,0.2,3.4-2.3,3.8c0,0-0.7,0.4-1.3,1c-0.6,0.6-1,1.3-0.5,2.5
							c0.4,1.2,2.1,2.8,4.1,6.8c1.9,4,4.2,10.5,4.3,20.3c0,0,0.5,1.6,1.6,4c1,2.4,2.4,5.6,4.6,8.8c2.2,3.1,5.2,6.1,9.6,7.7
							C198.6,206.9,204.7,207,211.6,203.4"/>
						<path class="st18" d="M201.5,240.3c-5.7,5.7-12.6,11.9-22.1,15.9c-5.4,1.8-13.3,1.7-19.2,2c-3.9,0.1-7.7-0.6-11.1-1.5
							c-3.3-1-6.2-2.2-8.4-3.3c-9.8-5.8-19.9-11.1-27.4-16.5c-0.9-0.7-1.8-1.4-2.7-2c-0.8-0.7-1.7-1.3-2.5-2
							c-1.6-1.4-3.1-2.8-4.4-4.3c-2.7-3-4.8-6.1-5.8-9.6c-1-1.8-1.9-3-3.4-4.1c-0.7,0.1-2.8-0.2-3.5-0.2c-1.3-0.7-2.6-1.4-3.8-2.1
							c-1.2-0.7-2.5-1.5-3.8-2.3c-2.6-1.7-5.5-3.5-8.8-5.5c-5.6-2.9-10.8-8.2-14.8-15.1c-2-3.4-3.6-7.2-4.7-11.2
							c-1.1-3.9-1.6-7.8-1.7-11.4c-0.4-8.1,0.1-16.3,2.2-22.2c1.8-5.1,6.2-6.9,10.3-8.5c4.2-1.5,8.1-2.8,9.7-5.7
							c1.5-2.3,2.2-4.4,2.5-6.5c0.2-1.2,0.4-3.1,1.3-6c0.5-1.4,1.2-3.1,2.4-4.8c1.1-1.7,2.8-3.6,4.6-5.1c3.7-3,7.5-4.4,10.4-5.3
							c3-0.9,5.1-1.2,7-1.4c3.9-0.5,8-0.1,11.9,1.2c4.4,1.8,8.2,3.8,11.5,6.2c3.3,2.3,6,5.1,7.9,8.4c2.3,5.5,4.7,10.4,4.8,15.7
							c0.1,0.6-0.5,2-1.3,3.1c-0.7,1.2-1.7,2.2-2.2,2.4c-0.7,0.1-1.2-0.3-1.7-0.8c-0.4-0.5-0.9-1.2-1.6-1.4
							c-0.9-0.4-1.4-0.9-1.6-1.5c-0.2-0.7-0.1-1.5,0-2.4c0.2-1,0.3-1.9,0.5-2.8c0.1-1,0.2-1.9,0-2.8c-0.6-1.9-2.2-3.3-4-4.4
							c-1.9-1.1-4.1-1.9-6.1-2.9c-0.8-0.6-1.4-1.3-2-2.2c-0.7-0.8-1.3-1.7-2.1-2.7c-1-1.6-2.8-2.2-4.7-2.2c-2,0-4.1,0.6-6,1.1
							c-1.2,0.5-2.4,0.6-3.7,0.6c-1.4,0-3-0.1-5.1,0.2c-2,0.2-4.6,1-6.7,2.7c-2.1,1.6-3.4,3.6-3.9,5.3c-0.8,2.2-0.5,3.6-0.2,4.8
							c0.3,1.3,0.9,2.5,1.3,3.8c0.9,2.5,1.5,4.7-0.3,6.7c1.7-1.6,1.2,2.3,0.9,6.4c-0.4,4.1-0.3,8.6-1.4,6.4c0.5,0.3-1.6,1.9-3.1,2.4
							c-1,0-2.6,0.5-3.2,0.1c-2.2-1.6-4.9-2.4-7.7-2.9c-2.8-0.5-5.7-0.6-8.4-1.4c-0.2,0.3-0.4,4.5,0.6,10.6c0.5,3,1.3,6.4,2.2,9.6
							c0.9,3.2,2,6.2,2.3,8.5c0.5,3.6,1,7,2.2,10.3c1.2,3.3,3,6.4,5.7,8.9c1.8,1,4.1-0.2,5.7,0.5c0.8,0.6,4.7,1.8,9.2,2.5
							c4.5,0.7,10,1.2,15.5,1.5c11,0.6,21.4-0.1,23.2,1.3c1.8,2,3.9,6,2.5,8c-1.4,3-1.2,5.6-0.4,8.1c0.7,2.5,2.1,5.1,2.4,8
							c0,1.5-1.8,2.9-1.9,4.4c0.7,4.3,3.4,9.7,8.3,11.4c3.9,2,8.8,3.5,13.9,4.1c5.2,0.7,10.6,0.5,15.1-0.5
							C182.5,245.3,192.4,243.4,201.5,240.3"/>
						<path class="st19" d="M108.4,125.1c0,0,0.3,0.3,0.8,0.9c0.5,0.6,1.1,1.5,2,2.6c1.8,2.3,4,5.5,6.7,9.3
							c2.7,3.8,5.7,8.2,8.6,13.2c1.4,2.5,2.9,5.1,4.2,7.9c0.6,1.4,1.3,2.9,1.8,4.3c0.2,0.7,0.5,1.5,0.7,2.2l0.2,0.6l0.1,0.3
							c0,0.1,0,0.1,0,0.1l-0.3,0.5c0,0-0.1,0.5-0.4,1c-0.1,0.1-0.2,0.2-0.3,0.3l-0.2,0.2l-0.1,0.1l0,0c0,0,0,0,0.1-0.1l0.6-0.3
							l1-0.6c1.9-1.2,3.8-2.3,5.9-3.5c1-0.6,2.1-1.2,3.2-1.7c1-0.5,2-1.1,3.1-1.6c1.4-0.8,2.8-1.6,4.3-2.3l2.2-1.1l1.1-0.5l0.8-0.4
							c1-0.5,2-1,3-1.4c0.5-0.2,1-0.4,1.5-0.6c1-0.4,2-0.8,3-1.3l-0.1,0c-0.4,0.2-0.8,0.3-1,0.4c-0.4,0.1-0.8,0.2-1.1,0.3
							c0,0-1.5,0.2-1.6,0.2c-0.3-0.1,1.2,0.2,1.7,0.4c0,0,0.6,0.2,1.4,0.5c0.2,0.1,0.4,0.2,0.5,0.2l0.2,0.1c-0.1,0-0.2-0.1-0.3-0.1
							c-0.3-0.2-0.5-0.3-0.6-0.4c0,0-0.1-0.1-0.3-0.2c-0.2-0.1-0.5-0.3-0.8-0.6c-0.6-0.5-1.2-1.1-1.1-1.1"/>
						<path class="st20" d="M61.6,199.5c-1.2-1.5-3.4-4.6-6-9.2c-1.3-2.3-2.6-4.9-3.8-7.8c-1.2-2.9-2.2-6-3-9.1
							c-1.5-6.1-1.7-12-1.3-16.5c0.3-2.2,0.6-4.3,1.1-5.8c0.5-1.6,1-2.9,1.5-3.8c3-5.9,6.8-10.1,10.7-13.5c3.9-3.4,8.1-6,12.4-8.2
							c0.6-0.5,0.9-1.3,0.4-1.9c-0.9-1-1.2-2.7-0.7-5.4c0.5-2.6,2.1-6.6,5.9-10.7c1.9-2,4.3-3.8,6.5-5c2.2-1.3,4.4-2.2,6.2-2.8
							c3.8-1.3,6.5-1.8,8.6-2.6c0.9-0.3,1.6-0.6,2.4-0.8c0.7-0.3,1.5-0.6,2.2-0.8c1.5-0.6,3.1-0.8,4.9-0.6c9.2,1.1,17,5,22.7,10
							c5.7,5,9.4,11.2,10.8,17.3c1.1,5.3-0.4,10.5-2.2,15c-0.7,1-1.3,2.3-2.6,2.7c-0.9,0.5-1.1-0.9-1.8-1.3c0.2-1,1-2.3,1-3.7
							c0.3-2.9-1.7-5.2-1.9-8.3c-0.6-3.1-0.8-6.4-2.9-9.5c-0.8-1-1.6-1.8-2.5-2.5c-0.9-0.8-1.8-1.4-3-2c-3.8-2.6-8.2-4.5-12.9-5.6
							c-1.2-0.3-2.4-0.5-3.6-0.7c-1.2-0.1-2.4-0.2-3.7-0.3c-2.6,0-4.6-0.1-8.1,0.6c-1.2,1.1-2.7,1.9-4.6,3c-1.9,1-4.3,2.3-6.4,4.2
							c-2.2,1.9-3.7,3.9-4.7,5.6c-1,1.7-1.6,3-1.9,4c-0.5,1.3-1.4,1.7-2.2,2.6c-1,2.4,0.1,5.5-3,7c-3.4,1.4-6.7,3-9.7,5.3
							c-3,2.2-5.7,4.9-7.8,8.6c-0.4,0.7-0.9,1.8-1.4,3.2c-0.2,0.7-0.5,1.5-0.7,2.3c-0.2,0.9-0.4,1.8-0.6,2.8
							c-0.7,4-0.9,9.3,0.2,15.2c0.6,2.9,1.3,5.9,2.4,8.7c1,2.8,2.2,5.4,3.4,7.7c2.4,4.6,4.7,7.8,6.1,9.6c3.6,4.8,8,7.9,11.8,10.3
							c4,2.4,7.2,4,10,6.3c0.2,0.2-2.1,1.4-6.3,1c-2.2-0.3-5-1-8.6-3C71.3,208.7,66.8,205.5,61.6,199.5"/>
					</g>
				</g>
			</g>
		</g>
	</g>
</g>
<g>
	<g>
		<defs>
			
				<rect id="SVGID_17_" x="37.6" y="60.5" transform="matrix(0.2062 -0.9785 0.9785 0.2062 -35.4063 256.3555)" width="205.3" height="179"/>
		</defs>
		<clipPath id="SVGID_18_">
			<use xlink:href="#SVGID_17_"  style="overflow:visible;"/>
		</clipPath>
		<g class="st21">
			<g>
				<defs>
					
						<rect id="SVGID_19_" x="37.6" y="60.5" transform="matrix(0.2062 -0.9785 0.9785 0.2062 -35.4063 256.3555)" width="205.3" height="179"/>
				</defs>
				<clipPath id="SVGID_20_">
					<use xlink:href="#SVGID_19_"  style="overflow:visible;"/>
				</clipPath>
				<g class="st22">
					<g>
						<defs>
							
								<rect id="SVGID_21_" x="37.6" y="60.5" transform="matrix(0.2062 -0.9785 0.9785 0.2062 -35.4063 256.3555)" width="205.3" height="179"/>
						</defs>
						<clipPath id="SVGID_22_">
							<use xlink:href="#SVGID_21_"  style="overflow:visible;"/>
						</clipPath>
						<path class="st23" d="M61.7,143.1c-1,0.2-1.9,0.8-2.7,1.8c-0.8,1-1.4,2.3-1.9,3.9c-1,3.3-1.2,8-0.3,13.1
							c0.8,5.2,2.9,10.7,5.2,15.1c2.2,4.3,4.2,7.2,4.7,8.5c1.3,2.7,3.7,5.7,6.6,8.5c3,2.8,6.5,5.3,10.1,7.4c1.8,1,3.5,1.9,5.3,2.7
							c1.7,0.8,3.4,1.4,5.1,2.1c3.4,1.3,6.9,2.4,10.4,3.3c6.9,1.9,13.4,3,18.2,3.9c4.9,0.9,8.2,1.5,7.9,2.3
							c-1.1,2.1-0.8,9.4,1.8,16.6c0.6,1.8,1.4,3.6,2.3,5.3c0.9,1.7,1.9,3.3,2.9,4.7c1.1,1.4,2.2,2.6,3.3,3.6
							c1.1,0.9,2.3,1.6,3.3,1.9c9.9,3.1,22,3.6,33.7,0.8c11.7-2.8,21-8.6,27.2-15.4c3.2-3.2,4.4-5.5,5.5-7.1c1-1.6,1.8-2.5,3.6-3.1
							c0.7-0.3,0.5-2.8,0.5-6.4c0.1-3.5,0.3-8,1.8-12.5c1.1-3,3.1-5.7,4.8-8.6c0.9-1.4,1.6-2.9,2.1-4.4c0.5-1.5,0.7-3,0.6-4.6
							c0.1-2.8,0.7-6.6,0.8-11c0.2-4.3,0-9.2-0.8-13.8c-1.5-9.3-5.6-17.7-8.7-21.5c-2.8-3.6-5.7-6.6-8.1-8.9
							c-2.5-2.3-4.5-4.1-6.2-5.8c-0.4-0.4-0.8-0.8-1.2-1.3l-1.1-1.2c-0.6-0.7-1.1-1.3-1.5-2c-0.9-1.4-1.6-3-2.1-4.7
							c-0.3-2.9-1.6-4.8-2.8-6.9c-1.3-2.1-2.5-4.3-2.3-7c-0.1-2.8-0.3-5-0.5-7.4c-0.1-1.1-0.2-2.3-0.2-3.5c-0.1-1.8-0.1-3.6-0.2-5.6
							c0.3-2.3,0.4-4.3,0.3-6.4c-0.1-2-0.4-4.1-1-6c-1.1-4-3.4-7.7-6.9-10.9c-0.6-0.4-1.2-0.7-1.9-1c-0.7-0.3-1.4-0.5-2.2-0.6
							c-1.5-0.3-3.1-1.7-4.4-2.2c-2.3-2.3-3.8-4.5-5.5-6.2c-1.8-1.7-3.8-3-7-2.8c-0.4,0-1,0.1-1.7,0.3c-0.6,0.2-1.4,0.5-2.1,0.8
							c-0.7,0.3-1.5,0.7-2.1,1c-0.7,0.4-1.2,0.5-1.7,1.1c-2.1,1.7-3.9,3.2-5.5,4.5c-1.5,1.4-2.7,2.6-3.7,3.8
							c-0.5,0.6-0.9,1.2-1.3,1.7c-0.3,0.5-0.8,1.2-0.7,1.4c0,0.7,0.1,1.5,0.1,2.2c0.1,1.5,1.4,2.7,3,4.1c1.6,1.4,3.7,3,4.9,5.2
							c1.8,3-0.7,6.7-5.3,9.5c-1.2,0.7-2.4,1.4-3.8,2c-1.4,0.6-2.8,1.2-4.3,1.5c-3.1,0.6-6.3,1.3-9.6,1.8c-1.3,0.2-2.6,0.5-4,0.7
							c-0.7,0-1.4,0.4-2.1,0.8c-0.7,0.4-1.4,0.7-2.1,1.1c-2.9,1.4-5.7,2.9-8.2,4.7c-5,3.6-8.5,8.7-6.8,15.6
							c2.3,8,7.3,14.9,12.2,21.5c5,6.6,10.1,12.7,13.6,20.5c1.1,2.8,2.3,5.5,3.4,8c0.3,0.6,0.5,1.2,0.8,1.9c0.1,0.3,0.3,0.6,0.4,0.9
							l-0.1,0.3l-0.2,0.7c0,0.1-0.1,0.2-0.1,0.3l-0.2,0.2l-0.4,0.4l-0.1,0.1l0,0c0,0,0,0,0,0l0.3-0.2l1.2-0.7l3-1.8
							c2-1.2,4-2.3,6.1-3.5l3-1.6l2-1.1c1.4-0.7,2.8-1.5,4.2-2.2c1.2-0.6,2.3-1.1,3.5-1.7c1-0.5,2-0.9,3.1-1.4l3.1-1.3l-0.1,0
							l-0.2,0.1c-0.2,0.1-1.5,0.5-1.8,0.5c-1.1,0.2-1.9,0.2-1.7,0.2c0.1,0,1,0.1,1.7,0.4c0.6,0.2,1.2,0.4,1.7,0.7l0.4,0.2l-0.3-0.2
							c-0.2-0.1-0.4-0.3-0.6-0.4c-0.8-0.5-1.5-1.1-1.9-1.5c-0.5-0.5-0.3-0.5,0.1,0.4c0.2,0.4,0.4,1,0.6,1.7l0.1,0.5l0,0.3l0,0.1
							l0,0.1l0,0l0,0l-0.3-2.4l0-0.1c-0.1-0.4-0.1-0.8-0.1-1.3c-0.1-0.5-0.1-1.2-0.1-1.5c0,1.5-1.9,1.4-3.9-0.7
							c-0.9-0.5-1.2-9.5-1.2-12.5c0-5.3-4.3-3.7-8.5-1.8c-1.8,1.1-3.6,1.9-5.4,2.7c-1.8,0.7-3.5,1.3-5,1.8c-3,1.1-5.2,2-6.7,3.1
							l-0.1,0.1l-0.8,0.6l-1.3,1c-1,0.7-1.6,1.1-2.4,1.6c-0.6,0.4-1.4,0.8-1.9,1.1l-0.8,0.4l-0.4,0.2l-0.1,0l0,0l0.5-0.2l0.1,0
							c0.3-0.1,0.4-0.1,1-0.4c0.3-0.1,0.5-0.1,0.7-0.2c0.4-0.1,0.8-0.2,1.1-0.3c0.6-0.1,1.7-0.4,2.7-0.5l0.7-0.1
							c0.3,0,0.8-0.1,0.5-0.1l-0.8,0c-2.2,0-4.8-1.1-6.2-2.9c-0.6-1.6-1-3.4-1.4-5c-0.4-1.8-0.8-3.3-1.1-4.6
							c-0.2-0.7-0.3-1.4-0.5-1.9c-0.1-0.2-0.2-0.4-0.3-0.5c-0.1-0.1-0.1-0.1-0.2-0.1c0,0-0.1,0-0.1,0c-0.6-0.2-1.2-0.3-1.8-0.5
							c-2.1-0.5-3.7-1-4.8-1.3c-0.5-0.2-1-0.3-1.5-0.5c-0.4-0.1-0.8-0.3-1.2-0.4c-0.7-0.2-1.2-0.5-1.6-0.6c-0.5-0.2-0.8-0.3-1.1-0.5
							c-1.1-0.5-1.5-0.8-1.7-1c-0.2-0.1-0.3-0.2-0.3-0.2c0,0-0.2-0.2-0.1-0.1c0.4,0.4,1.2,1.4,1.9,3.2c0.4,1,0.8,2.1,1.3,4.1
							c0.1,0.6,0.3,1.1,0.4,1.7c0.2,0.7,0.3,1.5,0.5,2.2c0.2,1,0.4,2,0.6,3.1c0.1,0.9,0.1,0.6,0.1,0.7c0,0,0,0.1,0,0.1
							c0.5,0.3,0.9-0.2,1.6-1.1c0.9-1.3,1.8-2.5,2.5-3.5c2.7-3.4,7.4-6.1,12.2-6.1c2.3,0,4.7,0.6,6.4,1.8c1.8,1.2,3,3.1,3.1,5.3
							c0.7-0.9,1.9-1.9,1.7-2.4c-1.2-6.5-4.1-14-10.3-20.1c-3.1-3-7.1-5.6-11.8-7.2c-2.4-0.8-4.9-1.3-7.5-1.5c-1.4,0-2.6-0.1-4.1,0
							c-1.5,0.1-3.4,0.4-5.6,1.1c-1.6,0.9-3.6,2.1-5.6,3.9c-1,0.9-1.9,2-2.7,3c-0.8,1.1-1.4,2.1-1.9,3.1c-1.9,3.3-2.1,5.7-2.2,7.1
							c-0.1,1.3,0,2.7,0,4c-0.3,2.3-4.2,4.7-8.8,7.4C70.6,139.3,65.3,142.2,61.7,143.1"/>
						<g class="st24">
							<g>
								<defs>
									
										<rect id="SVGID_23_" x="110.4" y="74.7" transform="matrix(0.2062 -0.9785 0.9785 0.2062 19.941 279.7689)" width="144.1" height="105.9"/>
								</defs>
								<clipPath id="SVGID_24_">
									<use xlink:href="#SVGID_23_"  style="overflow:visible;"/>
								</clipPath>
								<path class="st25" d="M149.7,76.1c-1.2-2.2-3.2-3.8-4.8-5.3c-1.6-1.4-2.9-2.7-3-4.2c0-0.8-0.1-1.5-0.1-2.3l0-0.3l0.2-0.4
									l0.5-0.8c0.4-0.5,0.8-1.1,1.3-1.7c0.9-1.2,2.2-2.4,3.7-3.8c1.5-1.3,3.4-2.8,5.5-4.5c0.8-0.7,2.3-1.5,3.8-2.1
									c0.7-0.3,1.4-0.6,2.1-0.8c0.7-0.2,1.3-0.3,1.7-0.3c3.2-0.2,5.3,1.1,7,2.8c1.8,1.8,3.3,4,5.5,6.3c1.3,0.5,2.9,2,4.4,2.2
									c1.6,0.2,2.8,0.9,4,1.7c3.4,3.2,5.7,7,6.8,11c0.6,2,0.9,4,1,6.1c0.1,2-0.1,4.1-0.3,6.4c0.1,2,0.1,3.8,0.2,5.5
									c0,1.2,0.1,2.3,0.2,3.5c0.2,2.3,0.4,4.6,0.5,7.3c-0.2,2.7,1.1,4.9,2.4,7c1.3,2.1,2.6,4.1,2.9,6.9c0.5,1.8,1.2,3.3,2.1,4.7
									c0.4,0.7,1,1.4,1.5,2c0.6,0.8,1.5,1.6,2.3,2.5c1.7,1.7,3.8,3.6,6.3,5.8c2.5,2.3,5.3,5.3,8.1,9c3.1,3.8,7.2,12.2,8.6,21.6
									c0.8,4.7,0.9,9.5,0.7,13.8c-0.2,4.4-0.8,8.2-0.9,11c0.3,3.1-1,6.1-2.8,8.9c-1.7,2.9-3.7,5.6-4.9,8.6c0,0-0.4,0-1.2,0.1
									c-0.8,0.1-1.9,0.1-3.5,0.2c-3,0.1-7.6,0.2-13.2-0.2c4.8-6.5,7.8-13.5,8.9-20.5c1.2-7,0.4-13.8-1.9-19.5
									c-2.2-5.8-5.7-10.7-9.8-14.3c-2.1-1.8-4.3-3.4-6.5-4.6c-2.3-1.2-4.6-2-6.9-2.7c-0.7-0.9-1.4-1.9-2.3-2.9
									c-0.4-0.5-0.8-1-1.3-1.5l-1.6-1.7c-2.5-2.7-5.1-5.5-7.5-8.4c-4.8-5.7-8.9-12.1-10.6-19c-0.9-3.4-1.4-6.9-1.7-10.5l-0.4-5.3
									l-0.2-2.6c-0.1-0.6-0.1-1.3-0.2-1.8c-0.2-1.2-0.3-2.1-0.7-3.4c-0.3-1.2-0.7-2.4-1.2-3.5C153.1,80,151.6,77.9,149.7,76.1"/>
							</g>
						</g>
						<path class="st26" d="M208.6,198.5c0,0-1,2.6-3.4,6c-2.3,3.4-6.2,7.6-11,10.7c-4.8,3.1-10.4,5.1-14.7,4.8
							c-4.4-0.3-7-2.5-6.9-7.4c0,0,0.4-0.8,1.1-2.2c0.7-1.4,1.6-3.5,2.4-6c1.8-5,3.2-11.9,3-18.7c-0.1-6.8-1.8-13.4-4.1-18.1
							c-2.1-4.7-4.6-7.4-4.4-8.2c0,0,0.2-0.6,0.1-1.6c0-0.9-0.4-2.1-0.9-2.9c0,0,0.6-0.1,1.3-0.4c0.7-0.3,1.6-0.8,2.3-1.5
							c0.7-0.7,1-1.6,0.8-2.5c-0.3-0.9-1.1-1.5-2.8-1.8c0,0-0.3-0.1-0.9-0.4c-0.6-0.3-1.5-0.8-2.8-1.6c-0.6-0.4-1.4-0.9-2.3-1.5
							c-1.3-1.1-2.7-2.2-4.1-3.3c-2.9-2.4-6-5.1-8.8-8c-2.8-2.9-5.5-6-7.5-9.2c-2.1-3.2-3.6-6.4-4.5-9.3c-1.9-5.8-1.7-10.4,0-11.6
							c0,0,0.1-1.5,0.3-3.8c0.3-2.3,0.8-5.4,1.4-8.7c0.4-0.9,0.7-1.6,1.2-2.3c0.2-0.3,0.4-0.6,0.6-0.9c0.2-0.3,0.4-0.8,0.6-1.1
							c0.8-1.6,1.6-3,2.7-4c0,0,0.8-0.4,1.9-1.2c1.1-0.8,2.4-1.9,3.5-3.2c0.5-0.6,0.9-1.3,1.3-2c0.3-0.7,0.4-1.4,0.4-2.1
							c-0.1-1.4-1-2.7-2.9-3.5c0,0-0.3-1-1-2.4c-0.6-1.3-1.6-2.9-2.4-4c-0.4-0.6-0.3-1.3-0.2-2c0.1-0.6,0.4-1.2,1-1.7
							c0.6-0.5,1.4-1,2.6-1.2c1.2-0.3,2.7-0.5,4.6-0.2c0,0,2.7,0,5.9,0.4c3.3,0.4,6.9,1.6,9.1,2.6c0,0,0.7,0.6,1.8,1.7
							c1.1,1.1,2.6,2.8,4,5.1c1.4,2.3,2.8,5.2,3.5,8.5c0.4,1.6,0.6,3.4,0.7,5.1c0.1,1.7,0.1,3.8,0,5.5c0,0.9-0.1,1.8-0.2,2.6l-0.3,2
							c-0.2,1.4-0.5,2.8-0.7,4.1c-0.5,2.7-0.9,5.4-1,7.8c-0.3,4.8,0.3,8.3-0.5,9.3c0,0,0,0.2,0.1,0.6c0.1,0.4,0.2,1,0.4,1.7
							c0.4,1.4,1.3,3.4,2.6,5.8c1.3,2.4,3.2,5.1,5.4,8.1c2.2,3,4.6,6.1,6.8,9.5c4.4,6.8,7.7,14.9,10.2,24.5c1.3,4.8,2.2,10,2.9,15.8
							C207.4,185.9,207.8,192,208.6,198.5"/>
						<path class="st27" d="M211.6,203.4c0,0-0.1,0.5-0.3,1.5c-0.3,1-0.6,2.4-1.3,4c-1.3,3.3-3.7,7.6-7.7,11.5
							c-3.9,3.9-9.5,7.4-15.8,8.8c-3.2,0.7-6.4,0.9-9.7,0.4c-3.2-0.5-6.4-1.5-9-3.3c0,0-3.8-0.9-8.4-3c-4.7-2.1-10-5.3-13.8-9.1
							c-3.9-3.8-6.4-8-7.1-11.6c-0.7-3.7,0.3-6.8,3.4-8.9c0,0,0.7-0.5,2.1-1.4c1.3-0.9,3.2-2.3,5.4-4c4.3-3.4,9.8-8.6,12.4-14.6
							c2.5-6,1.9-12.6-0.4-17c-0.6-1.1-1.2-2-1.9-2.8l-0.4-0.5l0.2,0.2l0.5,0.4c0.4,0.3,0.8,0.6,1.3,0.9c0.3,0.1,0.5,0.3,0.8,0.4
							c-0.3-0.2-0.5-0.3-0.8-0.4c0,0-0.2-0.1-0.7-0.3c-0.4-0.2-1.1-0.4-1.7-0.5c0,0-0.9-0.1-0.7-0.1c0.1,0,1.7-0.1,2.7-0.5
							c0,0,0.4-0.1,0.9-0.3l0.1,0l0.1,0l0,0l0,0l-2.5,1l-0.2,0.1c-0.7,0.3-1.3,0.5-2,0.8c-0.7,0.3-1.4,0.6-2.1,1
							c-0.4,0.2-0.7,0.4-1.1,0.5c-0.2,0.1-1.4,0.7-1,0.5c0.3-0.2,0.6-0.4,1-0.7c0.2-0.3,0.5-0.7,0.7-1c0.2-0.4,0.3-0.9,0.4-1.3
							c0.1-0.5,0-1.1,0-1.6c0.1-0.2-0.2-0.8-0.4-1.2l-0.7-1.4c-0.4-0.9-1-2-1.5-2.9c-2.1-3.7-4.2-7-6.6-9.1c0,0,0.4-2.9,0.2-6.1
							c-0.2-3.3-1-6.9-4.1-9.2c0,0,0.7,0.8,1.8,2.2c1.2,1.4,3,3.3,5.3,5.5c2.3,2.2,5.1,4.7,8.2,7.2c1.6,1.2,3.2,2.5,4.8,3.8
							c0.8,0.6,1.6,1.3,2.5,1.9l1.2,0.9l0.6,0.5c0.2,0.2,0.3,0.2,0.4,0.3c2.2,1.4,3.9,2.5,5,3.3c0.3,0.2,0.5,0.4,0.8,0.6
							c0.2,0.2,0.4,0.3,0.6,0.5c0.4,0.4,0.7,0.8,0.9,1.2c0.9,1.7,0.2,3.4-2.3,3.8c0,0-0.7,0.4-1.3,1c-0.6,0.6-1,1.3-0.5,2.5
							c0.4,1.2,2.1,2.8,4.1,6.8c1.9,4,4.2,10.5,4.3,20.3c0,0,0.5,1.6,1.6,4c1,2.4,2.4,5.6,4.6,8.8c2.2,3.1,5.2,6.1,9.6,7.7
							C198.6,206.9,204.7,207,211.6,203.4"/>
						<path class="st28" d="M201.5,240.3c-5.7,5.7-12.6,11.9-22.1,15.9c-5.4,1.8-13.3,1.7-19.2,2c-3.9,0.1-7.7-0.6-11.1-1.5
							c-3.3-1-6.2-2.2-8.4-3.3c-9.8-5.8-19.9-11.1-27.4-16.5c-0.9-0.7-1.8-1.4-2.7-2c-0.8-0.7-1.7-1.3-2.5-2
							c-1.6-1.4-3.1-2.8-4.4-4.3c-2.7-3-4.8-6.1-5.8-9.6c-1-1.8-1.9-3-3.4-4.1c-0.7,0.1-2.8-0.2-3.5-0.2c-1.3-0.7-2.6-1.4-3.8-2.1
							c-1.2-0.7-2.5-1.5-3.8-2.3c-2.6-1.7-5.5-3.5-8.8-5.5c-5.6-2.9-10.8-8.2-14.8-15.1c-2-3.4-3.6-7.2-4.7-11.2
							c-1.1-3.9-1.6-7.8-1.7-11.4c-0.4-8.1,0.1-16.3,2.2-22.2c1.8-5.1,6.2-6.9,10.3-8.5c4.2-1.5,8.1-2.8,9.7-5.7
							c1.5-2.3,2.2-4.4,2.5-6.5c0.2-1.2,0.4-3.1,1.3-6c0.5-1.4,1.2-3.1,2.4-4.8c1.1-1.7,2.8-3.6,4.6-5.1c3.7-3,7.5-4.4,10.4-5.3
							c3-0.9,5.1-1.2,7-1.4c3.9-0.5,8-0.1,11.9,1.2c4.4,1.8,8.2,3.8,11.5,6.2c3.3,2.3,6,5.1,7.9,8.4c2.3,5.5,4.7,10.4,4.8,15.7
							c0.1,0.6-0.5,2-1.3,3.1c-0.7,1.2-1.7,2.2-2.2,2.4c-0.7,0.1-1.2-0.3-1.7-0.8c-0.4-0.5-0.9-1.2-1.6-1.4
							c-0.9-0.4-1.4-0.9-1.6-1.5c-0.2-0.7-0.1-1.5,0-2.4c0.2-1,0.3-1.9,0.5-2.8c0.1-1,0.2-1.9,0-2.8c-0.6-1.9-2.2-3.3-4-4.4
							c-1.9-1.1-4.1-1.9-6.1-2.9c-0.8-0.6-1.4-1.3-2-2.2c-0.7-0.8-1.3-1.7-2.1-2.7c-1-1.6-2.8-2.2-4.7-2.2c-2,0-4.1,0.6-6,1.1
							c-1.2,0.5-2.4,0.6-3.7,0.6c-1.4,0-3-0.1-5.1,0.2c-2,0.2-4.6,1-6.7,2.7c-2.1,1.6-3.4,3.6-3.9,5.3c-0.8,2.2-0.5,3.6-0.2,4.8
							c0.3,1.3,0.9,2.5,1.3,3.8c0.9,2.5,1.5,4.7-0.3,6.7c1.7-1.6,1.2,2.3,0.9,6.4c-0.4,4.1-0.3,8.6-1.4,6.4c0.5,0.3-1.6,1.9-3.1,2.4
							c-1,0-2.6,0.5-3.2,0.1c-2.2-1.6-4.9-2.4-7.7-2.9c-2.8-0.5-5.7-0.6-8.4-1.4c-0.2,0.3-0.4,4.5,0.6,10.6c0.5,3,1.3,6.4,2.2,9.6
							c0.9,3.2,2,6.2,2.3,8.5c0.5,3.6,1,7,2.2,10.3c1.2,3.3,3,6.4,5.7,8.9c1.8,1,4.1-0.2,5.7,0.5c0.8,0.6,4.7,1.8,9.2,2.5
							c4.5,0.7,10,1.2,15.5,1.5c11,0.6,21.4-0.1,23.2,1.3c1.8,2,3.9,6,2.5,8c-1.4,3-1.2,5.6-0.4,8.1c0.7,2.5,2.1,5.1,2.4,8
							c0,1.5-1.8,2.9-1.9,4.4c0.7,4.3,3.4,9.7,8.3,11.4c3.9,2,8.8,3.5,13.9,4.1c5.2,0.7,10.6,0.5,15.1-0.5
							C182.5,245.3,192.4,243.4,201.5,240.3"/>
						<path class="st29" d="M108.4,125.1c0,0,0.3,0.3,0.8,0.9c0.5,0.6,1.1,1.5,2,2.6c1.8,2.3,4,5.5,6.7,9.3
							c2.7,3.8,5.7,8.2,8.6,13.2c1.4,2.5,2.9,5.1,4.2,7.9c0.6,1.4,1.3,2.9,1.8,4.3c0.2,0.7,0.5,1.5,0.7,2.2l0.2,0.6l0.1,0.3
							c0,0.1,0,0.1,0,0.1l-0.3,0.5c0,0-0.1,0.5-0.4,1c-0.1,0.1-0.2,0.2-0.3,0.3l-0.2,0.2l-0.1,0.1l0,0c0,0,0,0,0.1-0.1l0.6-0.3
							l1-0.6c1.9-1.2,3.8-2.3,5.9-3.5c1-0.6,2.1-1.2,3.2-1.7c1-0.5,2-1.1,3.1-1.6c1.4-0.8,2.8-1.6,4.3-2.3l2.2-1.1l1.1-0.5l0.8-0.4
							c1-0.5,2-1,3-1.4c0.5-0.2,1-0.4,1.5-0.6c1-0.4,2-0.8,3-1.3l-0.1,0c-0.4,0.2-0.8,0.3-1,0.4c-0.4,0.1-0.8,0.2-1.1,0.3
							c0,0-1.5,0.2-1.6,0.2c-0.3-0.1,1.2,0.2,1.7,0.4c0,0,0.6,0.2,1.4,0.5c0.2,0.1,0.4,0.2,0.5,0.2l0.2,0.1c-0.1,0-0.2-0.1-0.3-0.1
							c-0.3-0.2-0.5-0.3-0.6-0.4c0,0-0.1-0.1-0.3-0.2c-0.2-0.1-0.5-0.3-0.8-0.6c-0.6-0.5-1.2-1.1-1.1-1.1"/>
						<path class="st30" d="M61.6,199.5c-1.2-1.5-3.4-4.6-6-9.2c-1.3-2.3-2.6-4.9-3.8-7.8c-1.2-2.9-2.2-6-3-9.1
							c-1.5-6.1-1.7-12-1.3-16.5c0.3-2.2,0.6-4.3,1.1-5.8c0.5-1.6,1-2.9,1.5-3.8c3-5.9,6.8-10.1,10.7-13.5c3.9-3.4,8.1-6,12.4-8.2
							c0.6-0.5,0.9-1.3,0.4-1.9c-0.9-1-1.2-2.7-0.7-5.4c0.5-2.6,2.1-6.6,5.9-10.7c1.9-2,4.3-3.8,6.5-5c2.2-1.3,4.4-2.2,6.2-2.8
							c3.8-1.3,6.5-1.8,8.6-2.6c0.9-0.3,1.6-0.6,2.4-0.8c0.7-0.3,1.5-0.6,2.2-0.8c1.5-0.6,3.1-0.8,4.9-0.6c9.2,1.1,17,5,22.7,10
							c5.7,5,9.4,11.2,10.8,17.3c1.1,5.3-0.4,10.5-2.2,15c-0.7,1-1.3,2.3-2.6,2.7c-0.9,0.5-1.1-0.9-1.8-1.3c0.2-1,1-2.3,1-3.7
							c0.3-2.9-1.7-5.2-1.9-8.3c-0.6-3.1-0.8-6.4-2.9-9.5c-0.8-1-1.6-1.8-2.5-2.5c-0.9-0.8-1.8-1.4-3-2c-3.8-2.6-8.2-4.5-12.9-5.6
							c-1.2-0.3-2.4-0.5-3.6-0.7c-1.2-0.1-2.4-0.2-3.7-0.3c-2.6,0-4.6-0.1-8.1,0.6c-1.2,1.1-2.7,1.9-4.6,3c-1.9,1-4.3,2.3-6.4,4.2
							c-2.2,1.9-3.7,3.9-4.7,5.6c-1,1.7-1.6,3-1.9,4c-0.5,1.3-1.4,1.7-2.2,2.6c-1,2.4,0.1,5.5-3,7c-3.4,1.4-6.7,3-9.7,5.3
							c-3,2.2-5.7,4.9-7.8,8.6c-0.4,0.7-0.9,1.8-1.4,3.2c-0.2,0.7-0.5,1.5-0.7,2.3c-0.2,0.9-0.4,1.8-0.6,2.8
							c-0.7,4-0.9,9.3,0.2,15.2c0.6,2.9,1.3,5.9,2.4,8.7c1,2.8,2.2,5.4,3.4,7.7c2.4,4.6,4.7,7.8,6.1,9.6c3.6,4.8,8,7.9,11.8,10.3
							c4,2.4,7.2,4,10,6.3c0.2,0.2-2.1,1.4-6.3,1c-2.2-0.3-5-1-8.6-3C71.3,208.7,66.8,205.5,61.6,199.5"/>
					</g>
				</g>
			</g>
		</g>
	</g>
</g>
</svg>
