<?xml version="1.0" encoding="utf-8"?>
<!-- Generator: Adobe Illustrator 23.0.1, SVG Export Plug-In . SVG Version: 6.00 Build 0)  -->
<svg version="1.1" id="Layer_1" xmlns="http://www.w3.org/2000/svg" xmlns:xlink="http://www.w3.org/1999/xlink" x="0px" y="0px"
	 viewBox="0 0 150 150" style="enable-background:new 0 0 150 150;" xml:space="preserve">
<style type="text/css">
	.st0{fill:#F49AB4;}
	.st1{fill:#F28DA7;}
	.st2{fill:#E85072;}
	.st3{fill:#E84B6F;}
	.st4{fill:#EB5A7D;}
	.st5{fill:#EF7994;}
	.st6{fill:#F8BCCD;}
	.st7{fill:#F38CA8;}
	.st8{fill:#EF728F;}
	.st9{fill:#FCE4EB;}
	.st10{fill:#F0CCCF;}
	.st11{fill:#DE8D95;}
	.st12{fill:#EBBABF;}
	.st13{fill:#E7ACB2;}
	.st14{fill:#E39DA3;}
	.st15{fill:#F5DEE0;}
	.st16{fill:#D97A83;}
	.st17{fill:#E4A6AD;}
	.st18{fill:#E9B6BB;}
	.st19{fill:#DA9197;}
	.st20{fill:#CC7077;}
	.st21{fill:#C9646C;}
	.st22{fill:#D4848B;}
	.st23{fill:#D17A81;}
	.st24{fill:#DD9EA3;}
	.st25{fill:#C65760;}
	.st26{fill:#D48189;}
	.st27{fill:#CF6E76;}
	.st28{fill:#C1575F;}
	.st29{fill:#B8424B;}
	.st30{fill:#B33C43;}
	.st31{fill:#BB4952;}
	.st32{fill:#C65E66;}
	.st33{fill:#BC4F57;}
	.st34{fill:#B0353D;}
	.st35{fill:#D67E84;}
	.st36{fill:#C6636B;}
	.st37{fill:#CA6C72;}
	.st38{fill:#B9454D;}
	.st39{fill:#C05B63;}
	.st40{fill:#C0545B;}
	.st41{fill:#BE4C53;}
	.st42{fill:#B43C44;}
	.st43{fill:#DF999F;}
	.st44{fill:#D27980;}
	.st45{fill:#C1555D;}
	.st46{fill:#CB6F76;}
	.st47{fill:#C8676E;}
	.st48{fill:#D5838A;}
	.st49{fill:#C65D64;}
	.st50{fill:#F1D1D4;}
	.st51{fill:#D38087;}
	.st52{fill:#CF737C;}
	.st53{fill:#D98C94;}
	.st54{fill:#E6B3B9;}
	.st55{fill:#D8898F;}
	.st56{fill:#C66269;}
	.st57{fill:#C96A72;}
	.st58{fill:#DD9399;}
	.st59{fill:#CF747B;}
	.st60{fill:#D48188;}
	.st61{fill:#D37D85;}
	.st62{fill:#DC9298;}
	.st63{fill:#D8838B;}
	.st64{fill:#FAECED;}
	.st65{fill:#EFCBD0;}
	.st66{fill:#EDC1C5;}
	.st67{fill:#D28089;}
	.st68{fill:#CB747D;}
	.st69{fill:#A8343C;}
	.st70{fill:#A62F37;}
	.st71{fill:#B03E44;}
	.st72{fill:#C25C63;}
	.st73{fill:#E1A8AC;}
	.st74{fill:#BE535C;}
	.st75{fill:#CE727C;}
	.st76{fill:#F5D8DA;}
	.st77{fill:#D8BAE7;}
	.st78{fill:#BC8FD2;}
	.st79{fill:#B17FC9;}
	.st80{fill:#7D3CA4;}
	.st81{fill:#884BAE;}
	.st82{fill:#A369BF;}
	.st83{fill:#D2B5E2;}
	.st84{fill:#9A62BC;}
	.st85{fill:#B17ECB;}
	.st86{fill:#ECE0F2;}
	.st87{fill:#FBCBC8;}
	.st88{fill:#F5908C;}
	.st89{fill:#F28580;}
	.st90{fill:#E64640;}
	.st91{fill:#E5413B;}
	.st92{fill:#E74E49;}
	.st93{fill:#ED6D68;}
	.st94{fill:#F7B5B0;}
	.st95{fill:#ED6660;}
	.st96{fill:#F48580;}
	.st97{fill:#FBDFDF;}
	.st98{fill:#F9C1C0;}
	.st99{fill:#F7B7B6;}
	.st100{fill:#EF7573;}
	.st101{fill:#EF6F6D;}
	.st102{fill:#F17F7C;}
	.st103{fill:#F4A19F;}
	.st104{fill:#F39998;}
	.st105{fill:#EC7271;}
	.st106{fill:#FAD1CF;}
	.st107{fill:#FADCDC;}
	.st108{fill:#F39391;}
	.st109{fill:#FDECEC;}
	.st110{fill:#FCDDDD;}
	.st111{fill:#ED8280;}
	.st112{fill:#E66160;}
	.st113{fill:#F18784;}
	.st114{fill:#F19593;}
	.st115{fill:#EB7675;}
	.st116{fill:#E86867;}
	.st117{fill:#F28785;}
	.st118{fill:#F3A7A7;}
	.st119{fill:#F08C8B;}
	.st120{fill:#F08785;}
	.st121{fill:#E55D5B;}
	.st122{fill:#E86D6C;}
	.st123{fill:#E85F5D;}
	.st124{fill:#E75958;}
	.st125{fill:#EA6664;}
	.st126{fill:#E76260;}
	.st127{fill:#E04948;}
	.st128{fill:#ED7371;}
	.st129{fill:#EA6B6A;}
	.st130{fill:#EB6763;}
	.st131{fill:#E45352;}
	.st132{fill:#E54E4C;}
	.st133{fill:#DE3635;}
	.st134{fill:#E65958;}
	.st135{fill:#E0413E;}
	.st136{fill:#EA6D6A;}
	.st137{fill:#EE9493;}
	.st138{fill:#EA6866;}
	.st139{fill:#F2A8A6;}
	.st140{fill:#E14543;}
	.st141{fill:#E3413F;}
	.st142{fill:#E64A48;}
	.st143{fill:#E56967;}
	.st144{fill:#E33F3D;}
	.st145{fill:#EB7775;}
	.st146{fill:#EE8483;}
	.st147{fill:#E64845;}
	.st148{fill:#E75655;}
	.st149{fill:#E65451;}
	.st150{fill:#EA7473;}
	.st151{fill:#E55B57;}
	.st152{fill:#E75756;}
	.st153{fill:#EB7472;}
	.st154{fill:#EE8C8A;}
	.st155{fill:#F5A3A2;}
	.st156{fill:#E14A49;}
	.st157{fill:#E14D4C;}
	.st158{fill:#E14B49;}
	.st159{fill:#DE3E3D;}
	.st160{fill:#E45350;}
	.st161{fill:#E14544;}
	.st162{fill:#E54E4B;}
	.st163{fill:#E34240;}
	.st164{fill:#E75C5A;}
	.st165{fill:#EB7C7B;}
	.st166{fill:#F3A2A1;}
	.st167{fill:#EA7877;}
	.st168{fill:#E66B6A;}
	.st169{fill:#E96A69;}
	.st170{fill:#E56160;}
	.st171{fill:#E44845;}
	.st172{fill:#EC7473;}
	.st173{fill:#F9C0D3;}
	.st174{fill:#F298B5;}
	.st175{fill:#EE89A7;}
	.st176{fill:#E54D73;}
	.st177{fill:#E44771;}
	.st178{fill:#E7567E;}
	.st179{fill:#EC7797;}
	.st180{fill:#F8BCCF;}
	.st181{fill:#EB6D8F;}
	.st182{fill:#F089A8;}
	.st183{fill:#FCE2EB;}
	.st184{fill:#E55B7F;}
	.st185{fill:#E6708E;}
	.st186{fill:#EB87A2;}
	.st187{fill:#E25677;}
	.st188{fill:#E7678B;}
	.st189{fill:#FBD7E3;}
	.st190{fill:#ED80A1;}
	.st191{fill:#E24166;}
	.st192{fill:#E13B65;}
	.st193{fill:#E34870;}
	.st194{fill:#E76486;}
	.st195{fill:#F49DB8;}
	.st196{fill:#F7BFD1;}
	.st197{fill:#E65C7F;}
	.st198{fill:#F6ABC4;}
	.st199{fill:#F6A7C2;}
	.st200{fill:#EA6189;}
	.st201{fill:#DB3258;}
	.st202{fill:#DA2E55;}
	.st203{fill:#F7B2C9;}
	.st204{fill:#EA6A8D;}
	.st205{fill:#DC355B;}
	.st206{fill:#DB3159;}
	.st207{fill:#DF3C63;}
	.st208{fill:#F9C5D6;}
	.st209{fill:#EB7697;}
	.st210{fill:#DE3B61;}
	.st211{fill:#DE375F;}
	.st212{fill:#E1426A;}
	.st213{fill:#FDE7EE;}
	.st214{fill:#EE89A9;}
	.st215{fill:#E2456B;}
	.st216{fill:#E14069;}
	.st217{fill:#E44D75;}
	.st218{fill:#E86B8C;}
	.st219{fill:#EE7A9C;}
	.st220{fill:#F5A8C0;}
	.st221{fill:#FACBDA;}
	.st222{fill:#E65A7D;}
	.st223{fill:#E04169;}
	.st224{fill:#FEF5F9;}
	.st225{fill:#F191B0;}
	.st226{fill:#EA7292;}
	.st227{fill:#F6B4C9;}
	.st228{fill:#FBD8E5;}
	.st229{fill:#E96C8F;}
	.st230{fill:#E35477;}
	.st231{fill:#EA7396;}
	.st232{fill:#EB7A9D;}
	.st233{fill:#E8698D;}
	.st234{fill:#EB7094;}
	.st235{fill:#E04B6E;}
	.st236{fill:#E66085;}
	.st237{fill:#EB7294;}
	.st238{fill:#E7678C;}
	.st239{fill:#EA6D91;}
	.st240{fill:#E14C71;}
	.st241{fill:#EE7A9D;}
	.st242{fill:#F393B2;}
	.st243{fill:#DC3F64;}
	.st244{fill:#EF82A3;}
	.st245{fill:#F39DB9;}
	.st246{fill:#DF466B;}
	.st247{fill:#DF4469;}
	.st248{fill:#F29A98;}
	.st249{fill:#E64F4D;}
	.st250{fill:#E74947;}
	.st251{fill:#E85956;}
	.st252{fill:#EC7775;}
	.st253{fill:#F8BCBA;}
	.st254{fill:#EC6F6D;}
	.st255{fill:#FCE2E2;}
	.st256{fill:#F8C8C6;}
	.st257{fill:#F08B89;}
	.st258{fill:#F18A89;}
	.st259{fill:#B093A4;}
	.st260{fill:#A38295;}
	.st261{fill:#6F455A;}
	.st262{fill:#694055;}
	.st263{fill:#794F64;}
	.st264{fill:#936F83;}
	.st265{fill:#CDB7C1;}
	.st266{fill:#B596A5;}
	.st267{fill:#A58394;}
	.st268{fill:#8C667A;}
	.st269{fill:#B696A7;}
	.st270{fill:#E8E0E7;}
	.st271{fill:#E1BCC2;}
	.st272{fill:#A9666E;}
	.st273{fill:#681C23;}
	.st274{fill:#641920;}
	.st275{fill:#73242D;}
	.st276{fill:#8D3F48;}
	.st277{fill:#C69197;}
	.st278{fill:#893841;}
	.st279{fill:#E3CCCE;}
	.st280{fill:#6F292E;}
	.st281{fill:#A15A63;}
	.st282{fill:#944952;}
	.st283{fill:#944953;}
	.st284{fill:#964A53;}
	.st285{fill:#984B54;}
	.st286{fill:#974A53;}
	.st287{fill:#A25A62;}
	.st288{fill:#D2BCC8;}
	.st289{fill:#C8B2BE;}
	.st290{fill:#936A80;}
	.st291{fill:#8E667B;}
	.st292{fill:#9B7589;}
	.st293{fill:#B293A3;}
	.st294{fill:#916B7F;}
	.st295{fill:#DDCCD6;}
	.st296{fill:#AC8B9C;}
	.st297{fill:#F1EBEF;}
	.st298{fill:#9C7A8C;}
	.st299{fill:#8F6C80;}
	.st300{fill:#B99DAC;}
	.st301{fill:#A27F91;}
	.st302{fill:#C2A7B6;}
	.st303{fill:#AB8E9F;}
	.st304{fill:#936D82;}
	.st305{fill:#856174;}
	.st306{fill:#B99DAB;}
	.st307{fill:#C2A9B6;}
	.st308{fill:#A38091;}
	.st309{fill:#BBA3B0;}
	.st310{fill:#7A5468;}
	.st311{fill:#855F73;}
	.st312{fill:#AE8E9F;}
	.st313{fill:#7C556A;}
	.st314{fill:#7B5066;}
	.st315{fill:#855C71;}
	.st316{fill:#AF8E9F;}
	.st317{fill:#734B60;}
	.st318{fill:#694256;}
	.st319{fill:#916A80;}
	.st320{fill:#886378;}
	.st321{fill:#875C71;}
	.st322{fill:#714B5E;}
	.st323{fill:#582F42;}
	.st324{fill:#795066;}
	.st325{fill:#5E3A4B;}
	.st326{fill:#8A6578;}
	.st327{fill:#A98E9D;}
	.st328{fill:#B9A1B1;}
	.st329{fill:#B08F9F;}
	.st330{fill:#B898AA;}
	.st331{fill:#896578;}
	.st332{fill:#653C50;}
	.st333{fill:#623A4E;}
	.st334{fill:#6C4257;}
	.st335{fill:#B28FA1;}
	.st336{fill:#80596E;}
	.st337{fill:#7F586C;}
	.st338{fill:#765063;}
	.st339{fill:#683F53;}
	.st340{fill:#774E63;}
	.st341{fill:#704B5F;}
	.st342{fill:#674355;}
	.st343{fill:#7F5A6E;}
	.st344{fill:#815A6E;}
	.st345{fill:#6A4558;}
	.st346{fill:#5D374A;}
	.st347{fill:#926D80;}
	.st348{fill:#70475B;}
	.st349{fill:#72495E;}
	.st350{fill:#673D52;}
	.st351{fill:#673D51;}
	.st352{fill:#60364B;}
	.st353{fill:#795265;}
	.st354{fill:#683F52;}
	.st355{fill:#7A5368;}
	.st356{fill:#987387;}
	.st357{fill:#70475C;}
	.st358{fill:#A07D92;}
	.st359{fill:#81596E;}
	.st360{fill:#926C7F;}
	.st361{fill:#80596D;}
	.st362{fill:#CDC0E4;}
	.st363{fill:#A998CF;}
	.st364{fill:#644DA1;}
	.st365{fill:#5E479E;}
	.st366{fill:#6F56A9;}
	.st367{fill:#755CAC;}
	.st368{fill:#8975BA;}
	.st369{fill:#C4BAE0;}
	.st370{fill:#755DAD;}
	.st371{fill:#846DB7;}
	.st372{fill:#E7E2F2;}
	.st373{fill:#9B89C5;}
	.st374{fill:#8871B8;}
	.st375{fill:#9C89C6;}
	.st376{fill:#8673B9;}
	.st377{fill:#B9E1BA;}
	.st378{fill:#ADDBAE;}
	.st379{fill:#99D09A;}
	.st380{fill:#65B567;}
	.st381{fill:#5FB261;}
	.st382{fill:#70BB71;}
	.st383{fill:#8DCB8E;}
	.st384{fill:#CBE9CB;}
	.st385{fill:#86C687;}
	.st386{fill:#98D099;}
	.st387{fill:#EBF5EB;}
	.st388{fill:#B9D6C9;}
	.st389{fill:#8EBD9E;}
	.st390{fill:#7DB18E;}
	.st391{fill:#408251;}
	.st392{fill:#3A7F4C;}
	.st393{fill:#4A8C5B;}
	.st394{fill:#68A279;}
	.st395{fill:#B5D4BE;}
	.st396{fill:#7CB38B;}
	.st397{fill:#619D71;}
	.st398{fill:#E0ECE4;}
	.st399{fill:#74A38C;}
	.st400{fill:#679880;}
	.st401{fill:#669780;}
	.st402{fill:#669881;}
	.st403{fill:#285E41;}
	.st404{fill:#235A3C;}
	.st405{fill:#31684A;}
	.st406{fill:#4D8268;}
	.st407{fill:#A1C2B0;}
	.st408{fill:#679981;}
	.st409{fill:#467B62;}
	.st410{fill:#D6E5DF;}
	.st411{fill:#8ECA8F;}
	.st412{fill:#7DC07F;}
	.st413{fill:#409841;}
	.st414{fill:#3A933C;}
	.st415{fill:#4AA14B;}
	.st416{fill:#68B569;}
	.st417{fill:#7CC07D;}
	.st418{fill:#B5DDB5;}
	.st419{fill:#61B062;}
	.st420{fill:#7CC17E;}
	.st421{fill:#E0EFE0;}
	.st422{fill:#EBF5DE;}
	.st423{fill:#D4EAB8;}
	.st424{fill:#D2E9B4;}
	.st425{fill:#D8ECBE;}
	.st426{fill:#E2F0CE;}
	.st427{fill:#F3F9EA;}
	.st428{fill:#DFF0CA;}
	.st429{fill:#FAFDF7;}
	.st430{fill:#D3C9BE;}
	.st431{fill:#CBBEB3;}
	.st432{fill:#BBAC9F;}
	.st433{fill:#97826F;}
	.st434{fill:#947E69;}
	.st435{fill:#9F8A79;}
	.st436{fill:#B5A495;}
	.st437{fill:#DED6CE;}
	.st438{fill:#BBAD9F;}
	.st439{fill:#AE9E8D;}
	.st440{fill:#F2EFEC;}
	.st441{fill:#B1A091;}
	.st442{fill:#B1A090;}
	.st443{fill:#D8BACF;}
	.st444{fill:#976286;}
	.st445{fill:#905778;}
	.st446{fill:#4F1939;}
	.st447{fill:#4C1637;}
	.st448{fill:#5A2144;}
	.st449{fill:#773B60;}
	.st450{fill:#B88FAD;}
	.st451{fill:#6E345A;}
	.st452{fill:#8E567D;}
	.st453{fill:#E1CCDA;}
	.st454{fill:#C4E2A7;}
	.st455{fill:#93C35F;}
	.st456{fill:#8EC15A;}
	.st457{fill:#9AC868;}
	.st458{fill:#B0D587;}
	.st459{fill:#DCEBC3;}
	.st460{fill:#C8E0AA;}
	.st461{fill:#ABD280;}
	.st462{fill:#CAE2A9;}
	.st463{fill:#EFF8E7;}
	.st464{fill:#FFF6C0;}
	.st465{fill:#FFEC97;}
	.st466{fill:#FFDC4B;}
	.st467{fill:#FFD945;}
	.st468{fill:#FFDD54;}
	.st469{fill:#FFE774;}
	.st470{fill:#FFF4BA;}
	.st471{fill:#FFE46C;}
	.st472{fill:#FFF9E2;}
	.st473{fill:#FDE2C1;}
	.st474{fill:#F9CA98;}
	.st475{fill:#F9C18A;}
	.st476{fill:#F5994E;}
	.st477{fill:#F49448;}
	.st478{fill:#F8A158;}
	.st479{fill:#F8B577;}
	.st480{fill:#FCDDBC;}
	.st481{fill:#F8B06F;}
	.st482{fill:#FFEFE2;}
	.st483{fill:#F8A7A4;}
	.st484{fill:#EF8262;}
	.st485{fill:#EC605A;}
	.st486{fill:#EB5B55;}
	.st487{fill:#EC6964;}
	.st488{fill:#F28783;}
	.st489{fill:#F9C4C1;}
	.st490{fill:#F2817A;}
	.st491{fill:#EB6449;}
	.st492{fill:#FCE7E7;}
	.st493{fill:#FFEA88;}
	.st494{fill:#FFEB87;}
	.st495{fill:#FDF2E3;}
	.st496{fill:#FDEFDD;}
	.st497{fill:#F9E1C4;}
	.st498{fill:#FADEB9;}
	.st499{fill:#FADDB7;}
	.st500{fill:#FAE0BF;}
	.st501{fill:#FBE9CF;}
	.st502{fill:#F9DAB8;}
	.st503{fill:#FDF5EB;}
	.st504{fill:#FBE6CB;}
	.st505{fill:#FFFBF7;}
	.st506{fill:#FBDFBE;}
	.st507{fill:#F7D8B5;}
	.st508{fill:#FBE8CF;}
	.st509{fill:#FBE3C8;}
	.st510{fill:#F9E8CF;}
	.st511{fill:#F8DBB7;}
	.st512{fill:#FADBB5;}
	.st513{fill:#F7D5AE;}
	.st514{fill:#FDE9D5;}
	.st515{fill:#FAE3C8;}
	.st516{fill:#F7D1A4;}
	.st517{fill:#F5CD9D;}
	.st518{fill:#F7D8B0;}
	.st519{fill:#F8D4A9;}
	.st520{fill:#F8D3A6;}
	.st521{fill:#F8D8AF;}
	.st522{fill:#F7CD9E;}
	.st523{fill:#F4C896;}
	.st524{fill:#FBE3C5;}
	.st525{fill:#F7DBB8;}
	.st526{fill:#F7D8B1;}
	.st527{fill:#F7D7B0;}
	.st528{fill:#F8CD9F;}
	.st529{fill:#F8CD9E;}
	.st530{fill:#F1BE84;}
	.st531{fill:#F8D0A3;}
	.st532{fill:#F1C38D;}
	.st533{fill:#F8D8B1;}
	.st534{fill:#FBE2C8;}
	.st535{fill:#F9EAD3;}
	.st536{fill:#F9D3AA;}
	.st537{fill:#F7C896;}
	.st538{fill:#F7C794;}
	.st539{fill:#F7CA9A;}
	.st540{fill:#F7D3AB;}
	.st541{fill:#F8D8B5;}
	.st542{fill:#F9E6CF;}
	.st543{fill:#F7C897;}
	.st544{fill:#F8D3AA;}
	.st545{fill:#F7CEA2;}
	.st546{fill:#F4CD9E;}
	.st547{fill:#F5D2A5;}
	.st548{fill:#FBE2C2;}
	.st549{fill:#F5D1A8;}
	.st550{fill:#F8D5AB;}
	.st551{fill:#F2C695;}
	.st552{fill:#F8D3A8;}
	.st553{fill:#F5C998;}
	.st554{fill:#F5C894;}
	.st555{fill:#F2C997;}
	.st556{fill:#F2C48D;}
	.st557{fill:#F4C694;}
	.st558{fill:#F5CE9D;}
	.st559{fill:#F4C594;}
	.st560{fill:#F5C995;}
	.st561{fill:#F4C48F;}
	.st562{fill:#F7D2A6;}
	.st563{fill:#F8DFBB;}
	.st564{fill:#FBE2C3;}
	.st565{fill:#F8CC9E;}
	.st566{fill:#FADFC1;}
	.st567{fill:#F9D8B5;}
	.st568{fill:#F4C997;}
	.st569{fill:#F9DDB8;}
	.st570{fill:#FDFCED;}
	.st571{fill:#FBF7D2;}
	.st572{fill:#F9F6CB;}
	.st573{fill:#F4EBA8;}
	.st574{fill:#F5E9A6;}
	.st575{fill:#F5EDAC;}
	.st576{fill:#F7F5C0;}
	.st577{fill:#FBFBE1;}
	.st578{fill:#F7F0BE;}
	.st579{fill:#FAF6CE;}
	.st580{fill:#FFFBF5;}
	.st581{fill:#BDDB97;}
	.st582{fill:#BBDC99;}
	.st583{fill:#BDDD99;}
	.st584{fill:#B0D484;}
	.st585{fill:#AFD484;}
	.st586{fill:#FFEA87;}
	.st587{fill:#D3E9BA;}
	.st588{fill:#E1EECE;}
	.st589{fill:#D3E8BB;}
	.st590{fill:#E3EECE;}
	.st591{opacity:0.9;}
	.st592{fill:#FFF8CD;}
	.st593{opacity:0.9;fill:#FFEE8A;}
	.st594{fill:#FFF19E;}
	.st595{fill:#FFF5B6;}
	.st596{fill:#FFFBE0;}
	.st597{fill:none;stroke:#FFF4B1;stroke-width:0;}
	.st598{fill:#FFFDF3;}
	.st599{fill:#FACEDD;}
	.st600{opacity:0.9;fill:#F38CAF;}
	.st601{fill:#F5A0BD;}
	.st602{fill:#F8B8CD;}
	.st603{fill:#FCE1EA;}
	.st604{fill:none;stroke:#F7B2C9;stroke-width:0;}
	.st605{fill:#FEF3F7;}
	.st606{fill:#FBDBB6;}
	.st607{fill:#FBD1A3;}
	.st608{fill:#F9B674;}
	.st609{fill:#F8B36E;}
	.st610{fill:#FABB7E;}
	.st611{fill:#FACB99;}
	.st612{fill:#FDE9D1;}
	.st613{fill:#FAC893;}
	.st614{fill:#F9D0A1;}
	.st615{fill:#FFF5EC;}
	.st616{fill:#D7ECC0;}
	.st617{fill:#B1D684;}
	.st618{fill:#ADD680;}
	.st619{fill:#B7D98D;}
	.st620{fill:#C8E2A7;}
	.st621{fill:#E8F2D6;}
	.st622{fill:#C3E0A0;}
	.st623{fill:#F5FAEF;}
	.st624{fill:#A87699;}
	.st625{fill:#A9716E;}
	.st626{fill:#9F698A;}
	.st627{fill:#9F698D;}
	.st628{fill:#65294F;}
	.st629{fill:#632638;}
	.st630{fill:#62244A;}
	.st631{fill:#612335;}
	.st632{fill:#6E3259;}
	.st633{fill:#6D2F40;}
	.st634{fill:#8B4E74;}
	.st635{fill:#C4A1BB;}
	.st636{fill:#9D688D;}
	.st637{fill:#82476E;}
	.st638{fill:#E7D6E1;}
	.st639{fill:#FFF9D6;}
	.st640{fill:#FFF2A6;}
	.st641{fill:#FFF4B0;}
	.st642{fill:#FFF7C4;}
	.st643{fill:#FFFCE6;}
	.st644{fill:#FFF3B5;}
	.st645{fill:#FFED8B;}
	.st646{fill:#FFED94;}
	.st647{fill:#FFF1A4;}
	.st648{fill:#FFF5BF;}
	.st649{fill:#FFF6CD;}
	.st650{fill:#FFE46E;}
	.st651{fill:#FFED98;}
	.st652{fill:#FFF3A9;}
	.st653{fill:#FFEC8D;}
	.st654{fill:#FFE66B;}
	.st655{fill:#FFEC8A;}
	.st656{fill:#FFE66D;}
	.st657{fill:#FFE571;}
	.st658{fill:#FFEF94;}
	.st659{fill:#FFEF9E;}
	.st660{fill:#FFED93;}
	.st661{fill:#FFE873;}
	.st662{fill:#FFE97A;}
	.st663{fill:#FFEC87;}
	.st664{fill:#FFF19F;}
	.st665{fill:#FFF1A8;}
	.st666{fill:#FFEA7E;}
	.st667{fill:#FFEB86;}
	.st668{fill:#FFEF97;}
	.st669{fill:#FFF2B0;}
	.st670{fill:#FFF4BC;}
	.st671{fill:#FFF5C1;}
	.st672{fill:#FFF8CF;}
	.st673{fill:#FFF8DC;}
	.st674{fill:#FFF0A0;}
	.st675{fill:#FFEE92;}
	.st676{fill:#FFF6CE;}
	.st677{fill:#FFFADD;}
	.st678{fill:#FFFBEC;}
	.st679{fill:#FFFDF5;}
	.st680{fill:#F49C52;}
	.st681{fill:#F69D52;}
	.st682{fill:#F8A55E;}
	.st683{fill:#F8B472;}
	.st684{fill:#F59D54;}
	.st685{fill:#F8A65F;}
	.st686{fill:#F8B474;}
	.st687{fill:#FDF3E9;}
	.st688{fill:#FAE8D1;}
	.st689{fill:#FAE8CF;}
	.st690{fill:#FAEBD4;}
	.st691{fill:#F9EDD7;}
	.st692{fill:#FBEFDE;}
	.st693{fill:#FBEFDD;}
	.st694{fill:#FDF8F1;}
	.st695{fill:#FBEDD7;}
	.st696{fill:#FBEFDC;}
	.st697{fill:#FFFBFA;}
	.st698{fill:#FFE771;}
	.st699{fill:#FFEB83;}
	.st700{fill:#FFED90;}
	.st701{fill:#F7B6CB;}
	.st702{fill:#F4A2BB;}
	.st703{fill:#EE7397;}
	.st704{fill:#ED6D94;}
	.st705{fill:#EF7C9F;}
	.st706{fill:#F399B5;}
	.st707{fill:#FAD1DE;}
	.st708{fill:#F291AE;}
	.st709{fill:#F3A1BB;}
	.st710{fill:#FDECF2;}
</style>
<g>
	<path class="st288" d="M76.33,132.62c0.47,0.07,0.94,0.13,1.41,0.19c0,0,1.26,0.1,3.29,0.12c1.02,0,2.24-0.03,3.59-0.12
		c0.11-0.01,0.23-0.02,0.34-0.03l0,0c-0.11,0.01-0.23,0.02-0.34,0.03l0,0c-0.03,0-0.06,0-0.09,0.01c-1.31,0.09-2.5,0.11-3.49,0.11
		l0,0l0,0c-2.04-0.02-3.29-0.12-3.29-0.12l0,0c-0.07-0.01-0.14-0.02-0.21-0.03C77.13,132.72,76.73,132.67,76.33,132.62L76.33,132.62
		 M89.3,132.22c-0.07,0.01-0.15,0.03-0.22,0.04l0,0l0,0C89.15,132.24,89.22,132.23,89.3,132.22 M53.29,126.79
		c1.05,0.46,2.14,0.87,3.27,1.24c1.63,0.52,3.33,0.98,5.07,1.44c0.72,0.18,1.44,0.37,2.17,0.56l0,0c-0.73-0.19-1.46-0.37-2.17-0.56
		l0,0l0,0c-1.7-0.44-3.36-0.89-4.95-1.4c-0.04-0.01-0.08-0.02-0.11-0.04c-0.06-0.02-0.13-0.04-0.19-0.06
		C55.31,127.61,54.28,127.22,53.29,126.79L53.29,126.79 M111.33,121.21L111.33,121.21c-0.07,0.06-0.14,0.13-0.21,0.19l0,0
		C111.19,121.34,111.26,121.27,111.33,121.21 M112.61,119.84L112.61,119.84c-0.8,0.9-1.28,1.37-1.28,1.37l0,0l0,0
		C111.33,121.21,111.81,120.74,112.61,119.84L112.61,119.84 M115.71,115.81c-0.02,0.03-0.04,0.07-0.07,0.1
		c0,0.01-0.01,0.01-0.01,0.02c0-0.01,0.01-0.01,0.01-0.02C115.66,115.87,115.69,115.84,115.71,115.81 M121.52,102.96L121.52,102.96
		c-0.09,0.3-0.18,0.61-0.27,0.92c-0.62,2.04-1.42,4.2-2.38,6.28l0,0l0,0c0.97-2.08,1.76-4.24,2.38-6.28
		C121.35,103.57,121.44,103.27,121.52,102.96 M123.79,89.03L123.79,89.03c0,0.41-0.01,0.85-0.04,1.31l0,0
		C123.78,89.88,123.79,89.44,123.79,89.03 M123.79,89.03L123.79,89.03L123.79,89.03L123.79,89.03L123.79,89.03L123.79,89.03
		 M124.24,79.71L124.24,79.71c-0.01,0.1-0.01,0.2-0.02,0.3c0,0.08-0.01,0.16-0.01,0.24c-0.11,1.79-0.26,3.45-0.38,4.64l0,0l0,0l0,0
		c0.13-1.25,0.29-3,0.4-4.88C124.23,79.92,124.24,79.82,124.24,79.71 M124.4,70.61c0,0.01,0,0.01,0,0.02
		C124.4,70.62,124.4,70.62,124.4,70.61L124.4,70.61 M124.21,68.36L124.21,68.36c0.17,1.45,0.19,2.25,0.19,2.25l0,0
		C124.4,70.61,124.38,69.81,124.21,68.36L124.21,68.36 M112.13,45.61L112.13,45.61c2.93,2.4,5.18,5.17,6.84,7.83
		c0.06,0.1,0.13,0.2,0.19,0.3c-0.06-0.1-0.12-0.2-0.19-0.3C117.31,50.79,115.06,48.01,112.13,45.61"/>
	<path class="st259" d="M89.46,37.11c-2.38,0-4.76,0.25-7.11,0.75c-1.93,0.46-3.84,1.01-5.71,1.8l-1.38,0.59l-1.32,0.67
		c-0.9,0.43-1.72,0.96-2.57,1.46c-1.91,1.22-3.63,2.56-5.19,3.97c-0.29-0.04-0.59-0.07-0.88-0.09c-1.09-0.1-2.24-0.15-3.37-0.15
		c-0.76,0-1.52,0.02-2.25,0.05c-1,0.07-2.18,0.2-3.48,0.7c-1.33,0.49-2.58,1.41-3.45,2.33c-1.5,1.61-2.31,3.11-3.03,4.3
		c-0.7,1.24-1.5,2.39-2.14,3.56c-0.55,0.93-1.11,1.82-1.63,2.71c0.45-0.55,1.67-2.05,3.27-4.09c0.02-0.04,0.04-0.08,0.06-0.12
		c0.43-0.95,0.81-1.88,1.28-2.85c0.5-0.99,1.09-2.09,2.02-3.21c0.84-0.94,2.01-1.88,3.36-2.44c1.32-0.56,2.54-0.72,3.56-0.8
		c0.8-0.05,1.46-0.06,2.19-0.06c0.21,0,0.43,0,0.65,0c0.96,0.01,1.91,0.05,2.84,0.13c3.43,0.3,6.64,1.27,9,3.05
		c0.81-0.81,1.72-1.59,2.73-2.34c1.75-1.29,3.89-2.46,6.28-3.25c2.25-0.74,4.78-1.16,7.42-1.16c1.94,0,3.94,0.23,5.93,0.71
		c4.74,1.1,9.56,3.85,13.22,7.91c3.62,3.99,6.04,8.84,7.36,13.75c0.67,2.45,1.08,5,1.25,7.43c0.08,1.08,0.12,2.15,0.12,3.2l0,0
		c0,1.31-0.06,2.6-0.15,3.85c0,0-0.09,1.09-0.13,3.14c-0.01,0.67-0.02,1.43-0.02,2.3c0,1.78,0.04,3.96,0.17,6.46l0,0l0,0l0,0l0,0
		c0,0-0.13,1.2-0.4,3.06c-0.29,1.87-0.72,4.65-1.75,8.1c-1.02,3.42-2.8,7.64-5.71,11.35c-2.92,3.78-6.58,6.32-9.46,7.44
		c0,0-0.12,0.06-0.35,0.19c-0.23,0.12-0.56,0.3-1,0.5c-0.87,0.42-2.13,1-3.7,1.55c-3.12,1.15-7.43,2.16-12.08,2.38
		c-0.77,0.04-1.54,0.06-2.31,0.06c-3.82,0-7.62-0.47-10.99-1.09c-2.03-0.37-3.92-0.79-5.64-1.17c-2.13-0.49-4.09-0.94-5.78-1.32
		c0,0-0.68-0.33-1.77-0.91c-1.08-0.59-2.57-1.44-4.09-2.64c-1.53-1.18-3.05-2.79-4.31-4.55c-0.32-0.45-0.63-0.9-0.93-1.35
		c-0.28-0.38-0.53-0.74-0.76-1.07c-0.59-0.89-1.02-1.61-1.29-2.12c-0.27-0.51-0.41-0.78-0.41-0.78l0,0l0,0l0,0l0,0
		c0.75,1.28,1.56,2.64,2.45,3.98c0.96,1.29,2.25,2.8,4.07,4.11c-1.78-1.35-3.22-3.07-4.4-4.89c-1.28-1.93-2.15-4.06-3.1-6.04
		c-0.5-1.05-0.71-1.75-1.04-2.56c-0.3-0.78-0.61-1.54-0.83-2.3c-0.47-1.5-0.92-2.9-1.2-4.21c-0.31-1.3-0.57-2.47-0.69-3.49
		c-0.15-1.02-0.25-1.89-0.28-2.57c0-0.09,0-0.18,0-0.26l0,0c0-0.55,0.03-0.95,0.11-1.19c0,0-0.03-0.38-0.09-1.06
		c-0.07-0.68-0.12-1.66-0.15-2.85c-0.02-0.6-0.03-1.25-0.05-1.94l0,0l0,0l0,0l0,0c0.02-0.69,0.04-1.43,0.06-2.2
		c0.01-1.53,0.21-3.19,0.36-4.89c0.44-3.39,1.1-6.93,2.07-9.91c0.42-1.5,1-2.84,1.44-3.99c0.23-0.56,0.47-1.06,0.7-1.51
		c-0.49,0.8-0.97,1.59-1.4,2.37c-2.49,4.19-4.67,7.83-6.55,10.98c-0.37,0.55-0.76,1.1-1.15,1.65c-0.37,0.56-0.75,1.13-1.14,1.7
		c-0.78,1.18-1.54,2.47-2.13,4.02c-0.79,1.96-1.37,4.37-1.37,7.44c0,1.77,0.19,3.75,0.65,5.99c0.35,1.79,0.93,3.53,1.42,5.24
		c0.6,1.7,1.18,3.38,1.89,5.01c0.36,0.82,0.73,1.64,1.09,2.45l0.31,0.69l0.43,0.84l0.86,1.68c0.58,1.11,1.11,2.25,1.73,3.32
		c0.63,1.07,1.31,2.09,2.04,3.08c2.88,3.94,6.8,7.08,11.35,9.01c0.07,0.03,0.14,0.06,0.2,0.09c-0.45-0.2-0.9-0.4-1.33-0.62
		c-2.88-1.41-5.36-3.26-7.32-5.27l0,0c-0.03-0.03-0.07-0.07-0.1-0.1c-0.03-0.03-0.07-0.07-0.1-0.1c-1.86-1.94-3.29-3.99-4.45-5.91
		c0-0.01-0.01-0.02-0.01-0.02c-1.14-2.04-2.02-3.9-2.84-5.4c-1.14-2.34-1.8-3.68-1.8-3.68s0.66,1.34,1.8,3.68l0,0l0,0
		c-1.14-2.34-1.8-3.68-1.8-3.68s0.66,1.34,1.8,3.68l0,0l0,0c-1.14-2.34-1.8-3.68-1.8-3.68s0.66,1.34,1.8,3.68
		c0.81,1.5,1.7,3.36,2.84,5.4c0,0.01,0.01,0.02,0.01,0.02c1.15,1.92,2.58,3.97,4.45,5.91c0.03,0.03,0.07,0.07,0.1,0.1
		c0.03,0.03,0.07,0.07,0.1,0.1l0,0c1.96,2.01,4.44,3.86,7.32,5.27c0.44,0.22,0.89,0.43,1.36,0.63c2.19,0.95,4.55,1.62,6.94,2.28
		c1.17,0.31,2.35,0.63,3.55,0.94c0.55,0.14,1.11,0.28,1.67,0.43c1.22,0.31,2.5,0.6,3.8,0.89c2.22,0.48,4.57,0.92,7.06,1.27
		c1.66,0.17,3.36,0.27,5.11,0.27c0.03,0,0.05,0,0.08,0c2.69,0,5.63-0.25,8.6-0.84c3-0.6,6.11-1.55,9.35-3.02
		c0.26-0.1,0.65-0.26,1.11-0.47c1.67-0.83,3-1.66,3.78-2.24l0,0l0,0c2.33-1.34,4.62-2.98,6.77-4.92c1.44-1.54,2.86-3.27,4.06-5.02
		c1.31-1.89,2.39-3.81,3.31-5.67c1.35-2.77,2.32-5.39,3.03-7.75c0.49-1.71,0.86-3.32,1.16-4.79c0.35-1.74,0.57-3.19,0.76-4.6l0,0
		c0.15-1.14,0.26-2.25,0.31-3.24c0.01-0.27,0.01-0.53,0.01-0.79c0-0.83-0.04-1.64-0.12-2.43c-0.01-0.05-0.02-0.09-0.03-0.14
		c0-0.01-0.01-0.02-0.01-0.04l0,0l0,0l0,0l0,0l0,0l0,0l0,0l0,0l0,0l0,0l0,0l0,0c0,0,0-0.03,0.01-0.09
		c-0.01-0.06-0.01-0.12-0.02-0.18l0,0l0,0l0,0l0,0c0.27-2.43,0.5-4.73,0.65-6.96c0.09-1.71,0.14-3.53,0.14-5.11l0-0.23
		c0-1-0.02-1.89-0.02-2.59l0,0l0,0l0,0l0,0l0,0l0,0l0,0l0,0l0,0l0,0l0,0l0,0l0,0c0-0.17,0-0.33,0-0.48c-0.03-0.5-0.06-0.99-0.1-1.48
		c-0.23-2.71-0.69-5.34-1.5-8.04c-0.81-2.69-2-5.46-3.84-8.31c-1.85-2.82-4.07-5.48-6.8-7.86c-0.58-0.47-1.19-0.93-1.82-1.38
		c0.63,0.44,1.24,0.9,1.82,1.38l0,0c-0.58-0.47-1.19-0.93-1.82-1.38c0.63,0.44,1.24,0.9,1.82,1.38l0,0
		c-0.58-0.47-1.19-0.93-1.82-1.38c0.63,0.44,1.24,0.9,1.82,1.38c0,0-0.01-0.01-0.01-0.01c-2.71-2.4-5.78-4.31-9.04-5.71
		c-3.3-1.4-6.66-2.25-10.15-2.61C91.77,37.17,90.62,37.11,89.46,37.11"/>
	<path class="st260" d="M44.64,120.9L44.64,120.9c1.96,2.01,4.44,3.86,7.32,5.27c0.44,0.21,0.88,0.42,1.33,0.62l0,0
		c-0.45-0.2-0.9-0.4-1.33-0.62l0,0c-0.08-0.04-0.16-0.08-0.24-0.12C48.94,124.66,46.54,122.86,44.64,120.9L44.64,120.9L44.64,120.9
		 M35.34,105.68c0,0,0.66,1.34,1.8,3.68c0.81,1.5,1.7,3.36,2.84,5.4c0,0.01,0.01,0.02,0.01,0.02c0-0.01-0.01-0.02-0.01-0.02
		c-0.04-0.06-0.07-0.13-0.11-0.19c-1.09-1.96-1.94-3.76-2.73-5.21l0,0C36,107.02,35.34,105.68,35.34,105.68 M123.61,86.98
		c0.01,0.04,0.02,0.09,0.03,0.14l0,0l0,0C123.63,87.07,123.62,87.03,123.61,86.98L123.61,86.98 M123.6,86.95L123.6,86.95
		c0,0.01,0.01,0.02,0.01,0.04C123.61,86.97,123.6,86.96,123.6,86.95 M124.36,71.79L124.36,71.79c0,0.69,0.02,1.59,0.02,2.59l0,0.23
		l0,0l0-0.23C124.38,73.37,124.36,72.48,124.36,71.79 M110.3,44.24c0.63,0.44,1.24,0.9,1.82,1.38l0,0l0,0l0,0
		C111.55,45.14,110.94,44.68,110.3,44.24"/>
	<path class="st259" d="M97.6,52.03c0,0-0.16,0.02-0.41,0.1c-0.06,0.02-0.13,0.04-0.2,0.07c0.3,0.05,0.61,0.12,0.92,0.19
		c2.15,0.5,4.43,1.55,6.52,3.14c0.33,0.25,0.66,0.51,0.98,0.79C103.16,54.24,100.42,52.67,97.6,52.03"/>
	<path class="st259" d="M64.06,54.45c-0.72,0-1.42,0.04-1.78,0.19c-0.16,0.06-0.34,0.12-0.52,0.17c-0.2,0.05-0.48,0.1-0.7,0.15
		c-0.47,0.09-0.86,0.18-1.08,0.27c-0.11,0.02-0.19,0.04-0.23,0.06l-0.01,0.01l-0.02,0.02c-0.12,0.1-0.48,0.57-0.87,1.29
		c-0.2,0.35-0.41,0.81-0.61,1.25c-0.21,0.44-0.42,0.87-0.62,1.31c-0.45,0.85-0.75,1.76-1.14,2.63c-1.44,3.53-2.57,7.14-3.4,11.03
		c-0.43,2.66-0.6,5.12-0.6,7.48c0,1.33,0.05,2.62,0.14,3.92c0.27,3.6,0.83,7.17,1.87,11.25c0.26,0.96,0.5,1.92,0.8,2.83
		c0.32,0.88,0.65,1.84,0.95,2.6c0.63,1.42,1.21,2.83,2.01,4.11c0.78,1.29,1.85,2.42,3.21,3.14c1.35,0.74,2.85,1.2,4.44,1.8
		c0.27,0.09,0.54,0.17,0.8,0.26c0.31,0.09,0.62,0.18,0.92,0.27c0.62,0.17,1.23,0.33,1.83,0.47c1.2,0.28,2.37,0.5,3.53,0.66
		c1.4,0.19,2.78,0.29,4.15,0.29c0.89,0,1.77-0.04,2.66-0.13c2.27-0.23,4.52-0.77,6.82-1.78c2.27-1.01,4.57-2.51,6.43-4.63
		c0.97-1.14,2.16-2.75,3.08-5.16c0.94-2.38,1.61-5.48,2.13-8.92c0.53-3.51,0.99-7.01,1.13-9.85c0.04-0.73,0.05-1.41,0.05-2.06
		c0-1.9-0.15-3.42-0.37-4.47c-0.08-0.28-0.15-0.56-0.22-0.85c-0.17,1.19-0.41,2.57-0.69,3.95c-0.71,3.59-1.74,6.95-1.88,6.95
		c-0.01,0-0.02-0.02-0.02-0.06l0,0c0-0.07,0.02-0.2,0.05-0.4c-0.15,0.46-0.76,1.1-1.1,1.1c-0.01,0-0.03,0-0.04,0
		c-0.17-0.24-0.54-0.29-0.54-0.69l0,0c0-0.01,0-0.01,0-0.02c0-0.06,0-0.12,0-0.17c0-1.56-0.36-2.44-0.81-3.1
		c-0.46-0.68-1.02-1.15-1.46-1.78c-0.1,0.07-0.57,2.04-1.48,4.06c-0.46,1.01-1.04,2.01-1.7,2.76c-0.65,0.76-1.37,1.26-1.95,1.39
		c-0.3,0.05-0.59,0.07-0.88,0.07c-0.59,0-1.18-0.08-1.76-0.18c-0.44-0.07-0.88-0.15-1.33-0.21c-0.44,0.22-0.89,0.42-1.33,0.61
		c-0.81,0.39-1.67,0.74-2.59,0.96c-0.43,0.11-0.87,0.18-1.25,0.18c-0.44,0-0.79-0.08-0.96-0.26c-0.13-0.09-0.24-0.29-0.33-0.55
		c-0.01,0-0.01,0-0.02,0c-0.98-0.04-2.2-0.11-3.36-0.57c-1.19-0.44-2.01-1.42-2.52-2.52c-1.02-2.2-1.86-4.99-2.22-7.49
		c-0.17-1.19-0.24-2.29-0.25-3.19l0,0c0-0.99,0.09-1.73,0.22-2.07c0.14-0.36,0.39-0.88,0.64-1.32c0.24-0.46,0.54-0.86,0.81-1.19
		c0.39-0.47,0.77-0.76,1.04-0.76c0.1,0,0.19,0.04,0.25,0.13c0.25,0.16,0.49,0.22,0.74,0.22c0.57,0,1.15-0.35,1.77-0.72
		c0.74-0.5,1.49-0.95,2.25-1.12c-0.42-0.8-0.85-1.89-1.13-2.71c-0.2-0.57-0.39-1.13-0.58-1.68c-2.05,1.58-3.82,3.37-5.11,4.44
		c-0.53,0.43-1.01,0.69-1.4,0.69c-0.57,0-0.94-0.56-0.97-1.98v0l0,0c0,0,0-0.18,0-0.51c0-0.02,0-0.04,0-0.07l0,0
		c0-0.34,0.03-0.8,0.08-1.41c0.11-1.28,0.35-3.2,1.13-5.57c0.34-1.02,0.78-2.14,1.35-3.32c-1.13-0.73-2.46-1.23-3.87-1.47
		C65.23,54.48,64.64,54.45,64.06,54.45"/>
	<path class="st259" d="M83.47,59.83c-0.12,0-1.09,0.01-2.67,0.45c-0.48,0.13-1.02,0.31-1.59,0.56c0,0.5-0.03,0.97-0.06,1.43
		c-0.26,2.46-0.89,4.73-1.81,6.43c0.08,0.07,0.17,0.12,0.28,0.13c0.89-0.11,1.97-0.34,2.87-0.73c0.62-1.67,1.65-3.14,2.88-3.99
		c0.72-0.52,1.5-0.78,2.3-0.91c0.34-0.05,0.68-0.08,1.04-0.08c0.47,0,0.96,0.04,1.47,0.11c2.4,0.37,5.03,1.43,7.43,2.65
		c0.36,0.19,0.73,0.39,1.09,0.59c-0.07-0.11-0.15-0.21-0.22-0.31l0,0l0,0l0,0l0,0c0,0,0.1-0.5,0.14-1.54
		c-0.23-0.21-0.55-0.49-0.95-0.8c-0.82-0.67-1.97-1.4-3.1-1.81c-1.19-0.47-2.37-0.7-3.6-0.92c-1.24-0.21-2.26-0.34-3.45-0.64
		c-0.62-0.12-1.31-0.37-2.03-0.62C83.48,59.83,83.48,59.83,83.47,59.83"/>
	<path class="st259" d="M96.02,61.88c0.18,0.53,0.38,1.1,0.58,1.75c-0.01-0.38-0.05-0.81-0.11-1.28
		C96.34,62.19,96.18,62.04,96.02,61.88"/>
	<path class="st259" d="M97.16,69.01c0,0-0.01,0.01-0.03,0.01C97.15,69.02,97.16,69.02,97.16,69.01L97.16,69.01L97.16,69.01
		L97.16,69.01L97.16,69.01L97.16,69.01L97.16,69.01L97.16,69.01L97.16,69.01L97.16,69.01L97.16,69.01
		C97.16,69.02,97.16,69.02,97.16,69.01C97.16,69.02,97.16,69.02,97.16,69.01"/>
	<polyline class="st259" points="97.14,69.03 97.13,69.03 97.13,69.03 97.13,69.03 97.13,69.03 97.14,69.03 97.14,69.03 	"/>
	<path class="st259" d="M124.36,71.31c0,0.15,0,0.31,0,0.48c0,0.69,0.02,1.59,0.02,2.59l0,0.23l0,0l0,0l0,0l0,0l0,0
		c0,1.59-0.05,3.4-0.14,5.11c0.13-1.83,0.2-3.61,0.2-5.37C124.44,73.33,124.42,72.32,124.36,71.31"/>
	<path class="st259" d="M102.92,71.46c0.76,3.13,1.03,6.53,1.03,10.05l0,0c0,1.91-0.08,3.85-0.21,5.79
		c-0.16,2.27-0.32,4.55-0.55,6.81c0.4-2.34,0.66-4.68,0.92-6.96c0.2-1.94,0.3-3.85,0.31-5.69c0-2.84-0.26-5.51-0.86-7.87
		C103.38,72.85,103.17,72.14,102.92,71.46"/>
	<path class="st259" d="M78.25,77c-0.45,0.92-0.96,2.07-1.61,3.54c-0.13,0.43-0.21,0.79-0.21,1.13c0,0.23,0.04,0.45,0.12,0.66
		c0.25-1.46,0.64-2.68,1.23-4.08C77.95,77.86,78.1,77.44,78.25,77"/>
	<path class="st259" d="M113.67,80.35c-0.12,1.23-0.3,2.69-0.55,4.24c-0.32,2.1-0.75,4.34-1.16,6.44c-0.18,0.93-0.37,1.85-0.55,2.75
		c0.22-0.84,0.45-1.74,0.67-2.7c0.43-1.89,0.88-4.07,1.21-6.57C113.47,83.2,113.6,81.81,113.67,80.35"/>
	<path class="st259" d="M123.61,86.86c-0.01,0.06-0.01,0.09-0.01,0.09c0,0.01,0.01,0.02,0.01,0.04c0.01,0.04,0.02,0.09,0.03,0.14
		C123.63,87.03,123.62,86.95,123.61,86.86"/>
	<path class="st259" d="M123.75,90.34c-0.05,0.99-0.16,2.09-0.31,3.24l0,0c-0.18,1.4-0.41,2.85-0.76,4.6
		c-0.29,1.46-0.67,3.08-1.16,4.79c0.24-0.81,0.46-1.59,0.65-2.33c0.37-1.46,0.67-2.82,0.88-4.03c0.22-1.22,0.37-2.3,0.49-3.44
		C123.66,92.21,123.72,91.27,123.75,90.34"/>
	<path class="st259" d="M111.13,121.4c-2.15,1.94-4.44,3.58-6.77,4.92l0,0l0,0c-0.78,0.58-2.11,1.4-3.77,2.24
		c1.15-0.51,2.8-1.33,4.46-2.39c2.35-1.43,4.65-3.36,5.75-4.42C110.9,121.63,111.02,121.52,111.13,121.4"/>
	<path class="st259" d="M63.81,130.03c0.75,0.2,1.51,0.4,2.27,0.6c3.33,0.91,6.71,1.62,10.26,1.99c-2.49-0.35-4.84-0.8-7.06-1.27
		c-1.31-0.29-2.59-0.58-3.8-0.89C64.91,130.31,64.36,130.17,63.81,130.03"/>
	<path class="st259" d="M88.98,77.65c-0.09,0.16-0.19,0.3-0.28,0.42c-0.03,0.21-0.05,0.42-0.08,0.63c0.06-0.08,0.12-0.15,0.17-0.22
		C88.85,78.21,88.92,77.93,88.98,77.65"/>
	<polyline class="st259" points="97.13,69.03 97.13,69.03 97.13,69.03 97.13,69.03 97.13,69.03 	"/>
	<path class="st262" d="M61.68,46.17c-0.73,0-1.39,0.01-2.19,0.06c-1.02,0.08-2.24,0.24-3.56,0.8c-1.35,0.56-2.52,1.51-3.36,2.44
		c-0.93,1.12-1.52,2.22-2.02,3.21c-0.47,0.97-0.85,1.9-1.28,2.85c-0.02,0.04-0.04,0.08-0.06,0.12c0.11-0.14,0.22-0.28,0.33-0.43
		c0.58-0.72,1.12-1.47,1.78-2.34c0.67-0.87,1.44-1.88,2.53-2.86c1.04-0.99,2.67-1.85,4.13-2.11c0.73-0.15,1.43-0.22,2.08-0.28
		c0.64-0.05,1.29-0.1,1.94-0.15c0,0,0.45,0.03,1.2,0.12c0.75,0.08,1.81,0.22,3,0.48c2.09,0.44,4.61,1.33,6.57,2.79
		c0.42-0.52,0.89-1.03,1.39-1.53c-2.36-1.79-5.57-2.76-9-3.05c-0.93-0.09-1.88-0.13-2.84-0.13C62.11,46.17,61.89,46.17,61.68,46.17"
		/>
	<path class="st262" d="M65.89,53.01c-0.99,0-1.94,0.06-2.72,0.12c0,0-0.2,0-0.58-0.01c-0.39,0-0.91,0-1.73,0.03
		c-0.76,0.03-1.53,0.11-1.97,0.27c-0.21,0.08-0.38,0.16-0.63,0.37c-0.25,0.21-0.54,0.54-0.85,1.01c-0.62,0.91-1.3,2.44-2.01,3.87
		c-0.65,1.49-1.35,3.07-1.9,4.78c-1.18,3.38-2.11,7.14-2.65,11.01c-0.38,2.73-0.58,5.51-0.58,8.23c0,1.13,0.03,2.24,0.1,3.34
		c0.22,3.75,0.79,7.27,1.48,10.33c0.19,0.76,0.37,1.5,0.55,2.2c0.18,0.71,0.41,1.36,0.59,2c0.36,1.29,0.75,2.32,1.07,3.26
		c0.61,1.88,1.17,3.12,1.27,3.58c0,0,0.12,0.24,0.37,0.67c0.26,0.43,0.65,1.06,1.29,1.76c0.64,0.7,1.56,1.43,2.76,2.02
		c1.2,0.6,2.66,1.06,4.3,1.52c3.28,0.92,7.3,1.87,11.81,2.12c0.67,0.04,1.36,0.06,2.06,0.06c3.95,0,8.21-0.66,12.21-2.49
		c2.34-1.07,4.58-2.51,6.45-4.37c1.9-1.83,3.34-4.1,4.37-6.5c1.1-2.61,1.77-5.34,2.25-8.09c0.24-2.26,0.4-4.55,0.55-6.81
		c0.13-1.95,0.21-3.89,0.21-5.79c0-3.51-0.27-6.92-1.03-10.05c-1.03-2.84-2.59-5.02-4.29-6.35c0,0-0.14-0.26-0.44-0.66
		c-0.28-0.41-0.69-0.99-1.23-1.59c-0.15-0.17-0.31-0.34-0.47-0.52c0.06,0.47,0.1,0.89,0.11,1.28c0.13,0.42,0.26,0.87,0.39,1.36l0,0
		l0,0l0,0l0,0c0,0-0.14-0.14-0.39-0.37c-0.04,1.04-0.14,1.54-0.14,1.54c0.08,0.1,0.15,0.2,0.22,0.31c0.23,0.13,0.45,0.26,0.67,0.39
		c0.54,0.33,0.98,0.65,1.26,0.99c0.15,0.18,0.22,0.29,0.32,0.54c0.11,0.29,0.17,0.6,0.19,0.91c0.01,0.09,0.01,0.18,0.01,0.26l0,0
		c0,0.54-0.1,1.08-0.24,1.62c0.1-0.39,0.17-0.57,0.21-0.57c0.03,0,0.05,0.1,0.05,0.29l0,0c0,0.52-0.12,1.69-0.32,3.14
		c0.07,0.29,0.14,0.57,0.22,0.85c0.22,1.04,0.37,2.57,0.37,4.47l0,0c0,0.65-0.02,1.33-0.05,2.06c-0.13,2.83-0.59,6.34-1.13,9.85
		c-0.51,3.44-1.18,6.55-2.13,8.92c-0.92,2.4-2.11,4.02-3.08,5.16c-1.86,2.13-4.16,3.62-6.43,4.63c-2.29,1.01-4.55,1.55-6.82,1.78
		c-0.89,0.09-1.77,0.13-2.66,0.13c-1.37,0-2.75-0.1-4.15-0.29c-1.15-0.16-2.32-0.38-3.53-0.66c-0.6-0.14-1.21-0.3-1.83-0.47
		c-0.3-0.09-0.61-0.18-0.92-0.27c-0.26-0.09-0.53-0.17-0.8-0.26c-1.58-0.6-3.08-1.06-4.44-1.8c-1.37-0.72-2.43-1.86-3.21-3.14
		c-0.81-1.28-1.38-2.68-2.01-4.11c-0.3-0.76-0.63-1.72-0.95-2.6c-0.3-0.91-0.54-1.86-0.8-2.83c-1.04-4.08-1.6-7.65-1.87-11.25
		c-0.09-1.29-0.14-2.59-0.14-3.92l0,0c0-2.36,0.17-4.82,0.6-7.48c0.83-3.88,1.96-7.5,3.4-11.03c0.39-0.87,0.7-1.78,1.14-2.63
		c0.21-0.43,0.41-0.87,0.62-1.31c0.2-0.44,0.42-0.9,0.61-1.25c0.38-0.72,0.74-1.19,0.87-1.29l0.02-0.02l0.01-0.01
		c0.04-0.01,0.12-0.04,0.23-0.06c0.23-0.09,0.61-0.18,1.08-0.27c0.22-0.05,0.5-0.1,0.7-0.15c0.18-0.05,0.36-0.11,0.52-0.17
		c0.36-0.15,1.07-0.19,1.78-0.19c0.58,0,1.16,0.03,1.58,0.04c1.42,0.25,2.74,0.74,3.87,1.47c0.36-0.74,0.78-1.51,1.26-2.28
		c-0.76-0.23-1.71-0.46-2.74-0.56C67.33,53.04,66.59,53.01,65.89,53.01"/>
	<path class="st262" d="M79.21,60.84c-1.42,0.6-3.06,1.54-4.58,2.7c-0.06,0.05-0.13,0.1-0.19,0.14c0.19,0.55,0.38,1.11,0.58,1.68
		c0.28,0.82,0.71,1.91,1.13,2.71c0.13-0.03,0.27-0.05,0.4-0.06c0.33,0.04,0.52,0.47,0.79,0.69c0.92-1.71,1.56-3.98,1.81-6.43
		C79.18,61.81,79.21,61.33,79.21,60.84"/>
	<path class="st263" d="M62.01,47.5c-0.65,0.05-1.3,0.1-1.94,0.15c-0.66,0.05-1.35,0.13-2.08,0.28c-1.46,0.26-3.09,1.12-4.13,2.11
		c-1.09,0.98-1.85,1.99-2.53,2.86c-0.67,0.87-1.2,1.62-1.78,2.34c-1.76,2.27-3.12,3.93-3.6,4.52c-0.13,0.15-0.19,0.23-0.19,0.23
		c-0.2,0.34-0.43,0.75-0.67,1.23c-0.23,0.45-0.47,0.95-0.7,1.51c-0.44,1.16-1.02,2.5-1.44,3.99c-0.96,2.98-1.63,6.52-2.07,9.91
		c-0.15,1.7-0.34,3.36-0.36,4.89c-0.02,0.77-0.04,1.5-0.06,2.2c0.02,0.69,0.03,1.34,0.05,1.94c0.02,1.19,0.07,2.17,0.15,2.85
		c0.06,0.68,0.09,1.06,0.09,1.06l0,0l0,0l0,0l0,0c-0.07,0.24-0.11,0.65-0.11,1.19c0,0.08,0,0.17,0,0.26
		c0.03,0.68,0.14,1.54,0.28,2.57c0.12,1.03,0.39,2.2,0.69,3.49c0.27,1.3,0.73,2.7,1.2,4.21c0.22,0.76,0.53,1.51,0.83,2.3
		c0.33,0.81,0.54,1.51,1.04,2.56c0.95,1.97,1.82,4.11,3.1,6.04c1.17,1.82,2.61,3.54,4.4,4.89c0.44,0.32,0.91,0.62,1.41,0.91
		c1.58,0.91,3.44,1.62,5.48,2.15c1.02,0.27,2.08,0.48,3.17,0.7c1.08,0.21,2.28,0.42,3.08,0.53c2.97,0.43,6.24,0.75,9.67,0.75
		c0.73,0,1.47-0.01,2.22-0.05c4.2-0.16,8.66-0.96,12.69-2.5c4.03-1.51,7.67-3.77,10.52-6.43c1.42-1.31,2.66-2.74,3.66-4.11
		c1-1.37,1.77-2.67,2.41-3.81c1.28-2.3,2.05-3.97,2.66-4.79c0,0,0.79-1.65,1.64-4.44c0.21-0.68,0.42-1.41,0.63-2.2
		c0.18-0.89,0.37-1.82,0.55-2.75c0.42-2.1,0.84-4.34,1.16-6.44c0.25-1.55,0.42-3.01,0.55-4.24c0.03-0.7,0.05-1.42,0.05-2.15
		c0-0.67-0.01-1.34-0.05-2.03c-0.08-1.52-0.23-3.1-0.52-4.71c-0.29-1.63-0.71-3.28-1.28-4.9c-1.13-3.25-2.89-6.45-5.35-9.09
		c-0.36-0.39-0.73-0.77-1.12-1.13c-0.32-0.28-0.65-0.54-0.98-0.79c-2.09-1.59-4.37-2.64-6.52-3.14c-0.31-0.07-0.62-0.14-0.92-0.19
		c-0.22,0.08-0.47,0.19-0.72,0.34c-0.69,0.4-1.38,1.09-1.67,2.09c-0.12,0.38-0.17,0.78-0.17,1.23c0,0.74,0.16,1.59,0.45,2.58
		c0.24,0.79,0.53,1.67,0.88,2.69c0.08,0.24,0.17,0.49,0.26,0.75c0.16,0.16,0.32,0.31,0.47,0.47c0.17,0.17,0.32,0.35,0.47,0.52
		c0.53,0.6,0.94,1.18,1.23,1.59c0.3,0.4,0.44,0.66,0.44,0.66c1.7,1.33,3.26,3.51,4.29,6.35c0.24,0.67,0.46,1.38,0.64,2.13
		c0.6,2.36,0.86,5.03,0.86,7.87l0,0c0,1.84-0.11,3.75-0.31,5.69c-0.26,2.28-0.52,4.63-0.92,6.96c-0.47,2.74-1.14,5.48-2.25,8.09
		c-1.02,2.4-2.47,4.67-4.37,6.5c-1.87,1.85-4.11,3.3-6.45,4.37c-4,1.83-8.27,2.49-12.21,2.49c-0.7,0-1.38-0.02-2.06-0.06
		c-4.51-0.25-8.53-1.2-11.81-2.12c-1.64-0.46-3.1-0.92-4.3-1.52c-1.21-0.59-2.13-1.32-2.76-2.02c-0.64-0.7-1.03-1.33-1.29-1.76
		c-0.25-0.43-0.37-0.67-0.37-0.67c-0.1-0.47-0.66-1.71-1.27-3.58c-0.32-0.94-0.71-1.97-1.07-3.26c-0.18-0.64-0.41-1.29-0.59-2
		c-0.17-0.7-0.36-1.44-0.55-2.2c-0.69-3.05-1.27-6.58-1.48-10.33c-0.07-1.1-0.1-2.21-0.1-3.34l0,0c0-2.72,0.19-5.5,0.58-8.23
		c0.54-3.86,1.47-7.62,2.65-11.01c0.56-1.7,1.26-3.28,1.9-4.78c0.71-1.43,1.38-2.97,2.01-3.87c0.31-0.47,0.6-0.8,0.85-1.01
		c0.26-0.21,0.42-0.3,0.63-0.37c0.44-0.16,1.21-0.25,1.97-0.27c0.82-0.03,1.34-0.03,1.73-0.03c0.38,0,0.58,0.01,0.58,0.01
		c0.78-0.06,1.72-0.12,2.72-0.12c0.71,0,1.44,0.03,2.15,0.11c1.03,0.1,1.99,0.33,2.74,0.56c0.51-0.82,1.1-1.66,1.77-2.5
		c0.08-0.1,0.16-0.2,0.24-0.3c-1.96-1.46-4.48-2.35-6.57-2.79c-1.19-0.26-2.25-0.4-3-0.48C62.46,47.53,62.01,47.5,62.01,47.5"/>
	<path class="st264" d="M90.6,42.61c-2.64,0-5.17,0.42-7.42,1.16c-2.39,0.79-4.53,1.96-6.28,3.25c-1.01,0.75-1.92,1.53-2.73,2.34
		c-0.5,0.5-0.96,1.01-1.39,1.53c-0.08,0.1-0.16,0.2-0.24,0.3c-0.67,0.84-1.26,1.67-1.77,2.5c-1.25,2.01-2.05,3.93-2.61,5.6
		c-0.77,2.37-1.02,4.29-1.13,5.57c-0.05,0.61-0.08,1.07-0.08,1.41c0,0.02,0,0.04,0,0.07l0,0l0,0l0,0l0,0c0,0.33,0,0.51,0,0.51v0
		c0.03,1.41,0.4,1.98,0.97,1.98c0.39,0,0.87-0.26,1.4-0.69c1.34-1.1,3.17-2.97,5.3-4.59c1.52-1.16,3.16-2.1,4.58-2.7
		c0.57-0.24,1.1-0.43,1.59-0.56c1.59-0.43,2.56-0.45,2.67-0.45c0.01,0,0.01,0,0.01,0c0.71,0.24,1.4,0.5,2.03,0.62
		c1.19,0.3,2.21,0.43,3.45,0.64c1.24,0.22,2.42,0.45,3.6,0.92c1.13,0.42,2.28,1.15,3.1,1.81c0.39,0.31,0.72,0.59,0.95,0.8
		c0.25,0.23,0.39,0.37,0.39,0.37c-0.13-0.49-0.26-0.93-0.39-1.36c-0.2-0.64-0.4-1.22-0.58-1.75c-0.09-0.26-0.18-0.51-0.26-0.75
		c-0.36-1.02-0.65-1.9-0.88-2.69c-0.29-0.98-0.45-1.83-0.45-2.58l0,0c0-0.45,0.06-0.85,0.17-1.23c0.29-0.99,0.98-1.69,1.67-2.09
		c0.34-0.2,0.68-0.33,0.93-0.41c0.25-0.07,0.41-0.1,0.41-0.1c2.82,0.64,5.56,2.2,7.81,4.29c0.39,0.36,0.76,0.74,1.12,1.13
		c2.46,2.65,4.22,5.85,5.35,9.09c0.57,1.62,0.99,3.27,1.28,4.9c0.29,1.61,0.44,3.19,0.52,4.71c0.03,0.69,0.05,1.37,0.05,2.03l0,0
		c0,0.73-0.02,1.45-0.05,2.15c-0.07,1.47-0.21,2.86-0.38,4.16c-0.32,2.5-0.77,4.68-1.21,6.57c-0.22,0.96-0.45,1.86-0.67,2.7
		c-0.21,0.79-0.42,1.52-0.63,2.2c-0.86,2.8-1.64,4.44-1.64,4.44c-0.62,0.82-1.39,2.5-2.66,4.79c-0.64,1.14-1.42,2.44-2.41,3.81
		c-0.99,1.37-2.23,2.8-3.66,4.11c-2.85,2.65-6.5,4.91-10.52,6.43c-4.02,1.54-8.48,2.33-12.69,2.5c-0.75,0.03-1.49,0.05-2.22,0.05
		c-3.42,0-6.69-0.32-9.67-0.75c-0.8-0.11-2.01-0.32-3.08-0.53c-1.08-0.22-2.15-0.43-3.17-0.7c-2.04-0.53-3.89-1.24-5.48-2.15
		c-0.5-0.29-0.97-0.59-1.41-0.91c-1.82-1.31-3.12-2.82-4.07-4.11c0.3,0.46,0.61,0.91,0.93,1.35c1.26,1.76,2.77,3.36,4.31,4.55
		c1.52,1.2,3.01,2.05,4.09,2.64c1.09,0.58,1.77,0.91,1.77,0.91c1.69,0.39,3.65,0.83,5.78,1.32c1.71,0.38,3.6,0.8,5.64,1.17
		c3.37,0.62,7.17,1.09,10.99,1.09c0.77,0,1.54-0.02,2.31-0.06c4.64-0.23,8.95-1.23,12.08-2.38c1.56-0.55,2.83-1.13,3.7-1.55
		c0.44-0.2,0.77-0.38,1-0.5c0.23-0.12,0.35-0.19,0.35-0.19c2.88-1.11,6.54-3.65,9.46-7.44c2.91-3.7,4.69-7.93,5.71-11.35
		c1.03-3.46,1.46-6.23,1.75-8.1c0.27-1.86,0.4-3.06,0.4-3.06c-0.14-2.5-0.17-4.68-0.17-6.46l0,0c0-0.86,0.01-1.63,0.02-2.3
		c0.04-2.04,0.13-3.14,0.13-3.14c0.1-1.26,0.15-2.54,0.15-3.85c0-1.05-0.04-2.12-0.12-3.2c-0.18-2.43-0.59-4.99-1.25-7.43
		c-1.32-4.91-3.74-9.76-7.36-13.75c-3.66-4.06-8.48-6.8-13.22-7.91C94.54,42.84,92.54,42.61,90.6,42.61"/>
	<path class="st264" d="M45.65,108.98c0,0,0.14,0.27,0.41,0.78c0.27,0.51,0.7,1.23,1.29,2.12c0.23,0.33,0.48,0.69,0.76,1.07
		C47.22,111.62,46.4,110.25,45.65,108.98"/>
	<path class="st265" d="M96.33,84.31L96.33,84.31L96.33,84.31 M96.33,84.31L96.33,84.31L96.33,84.31 M96.33,84.31L96.33,84.31
		L96.33,84.31 M78.25,77L78.25,77c-0.14,0.45-0.3,0.86-0.48,1.25c-0.58,1.39-0.98,2.62-1.23,4.08c-0.08-0.21-0.12-0.42-0.12-0.66
		l0,0c0-0.33,0.08-0.7,0.21-1.13C77.29,79.07,77.79,77.91,78.25,77L78.25,77L78.25,77L78.25,77 M79.01,82.32
		c0.26-2.5,0.72-4.94,1.38-7.31c0.44-1.61,0.99-3.19,1.61-4.73c0.62-1.56,1.28-2.92,2-3.88c0.22-1.07,0.96-1.81,1.92-1.98
		c0.21-0.05,0.44-0.08,0.68-0.08c0.79,0,1.7,0.26,2.62,0.58c0.72,0.28,1.35,0.77,2.21,1.39c1.12,0.66,2.36,1.39,3.49,2.19
		c0.59,0.41,1.08,0.8,1.2,1.01l0.01,0.02c0.09-0.04,0.18-0.09,0.27-0.13c0.28-0.14,0.56-0.27,0.69-0.34l0.01-0.01l0.04-0.02l0.01,0
		l0,0l0,0c0.02-0.01,0.03-0.01,0.03-0.01c0,0,0,0,0,0l0,0l0,0l0,0l0,0c0,0-0.01,0-0.03,0.01l0,0C97.65,68.77,98,68.6,98,68.6l0,0
		l0,0l0,0l0,0l0,0l0,0l0,0l0,0l0,0l0,0c0,0-0.25,0.12-0.87,0.43l0,0c-0.01,0.01-0.02,0.01-0.03,0.02l-0.04,0.02l-0.13,0.07
		l-0.04,0.02c-0.06,0.04-0.13,0.08-0.21,0.14c-0.03,0.02-0.07,0.05-0.11,0.07c-0.02,0.02-0.04,0.03-0.07,0.05
		c-0.04,0.03-0.08,0.06-0.12,0.09c-0.01,0.01-0.02,0.02-0.03,0.02l-0.17,0.14l-0.01,0.01c-0.14,0.11-0.29,0.24-0.46,0.39
		c-0.01,0.04-0.02,0.09-0.03,0.13c-0.05,0.23-0.13,0.45-0.21,0.67c-0.17,0.44-0.39,0.87-0.61,1.29c-0.44,0.83-0.87,1.6-1.29,2.33
		c-0.84,1.46-1.67,2.73-2.45,3.91c-0.66,0.97-1.9,3.33-3.47,4.66c-0.78,0.69-1.66,1.13-2.45,1.33c-0.08,0.02-0.15,0.04-0.22,0.05
		c-0.56,0.78-1.21,1.44-1.87,1.87c-1.01,0.75-2.04,1.17-3.02,1.35c-0.25,0.05-0.5,0.08-0.75,0.1c-0.11,0.03-0.21,0.07-0.31,0.1
		c-0.08,0.03-0.16,0.06-0.23,0.08c-0.04,0.02-0.09,0.04-0.14,0.05c-0.28,0.11-0.49,0.22-0.64,0.31c-0.03,0.02-0.06,0.04-0.09,0.05
		c-0.1,0.06-0.16,0.11-0.21,0.15c-0.01,0.01-0.02,0.02-0.03,0.02l-0.06,0.06c0,0-0.01,0.01-0.01,0.01l-0.02,0.03l0.01-0.02
		c0.01-0.01,0.01-0.02,0.02-0.03c0.02-0.02,0.04-0.06,0.06-0.12c0-0.01,0-0.01,0.01-0.02c0.04-0.08,0.08-0.19,0.12-0.34c0,0,0,0,0,0
		c0.02-0.07,0.03-0.14,0.05-0.23c0.02-0.11,0.03-0.22,0.04-0.28c0.02-0.19,0.04-0.39,0.04-0.62c0-0.02,0-0.04,0-0.06
		c0-0.3-0.01-0.63-0.05-0.97l-0.07-0.52l0.02,0.04c0.05,0.04,0.23,0.04,0.35,0.06c0.09,0.01,0.19,0.02,0.28,0.02
		c0.11,0,0.22-0.01,0.34-0.02c0-0.16,0-0.31-0.01-0.47l0,0l0,0l0,0l0,0c0.02-0.4,0.04-0.79,0.06-1.19
		c-0.43-0.18-0.84-0.41-1.19-0.74c0,0,0-0.01,0-0.01l0,0C77.68,83.02,78.24,82.65,79.01,82.32 M86.7,63.12
		c-0.35,0-0.7,0.02-1.04,0.08c-0.79,0.13-1.58,0.38-2.3,0.91c-1.23,0.85-2.26,2.32-2.88,3.99c-0.89,0.39-1.97,0.62-2.87,0.73
		c-0.44-0.04-0.63-0.76-1.07-0.81c-0.9,0.08-1.79,0.6-2.65,1.18c-0.62,0.38-1.2,0.72-1.77,0.72c-0.25,0-0.49-0.06-0.74-0.22
		c-0.06-0.09-0.15-0.13-0.25-0.13c-0.27,0-0.65,0.29-1.04,0.76c-0.26,0.33-0.57,0.73-0.81,1.19c-0.25,0.45-0.5,0.96-0.64,1.32
		c-0.13,0.34-0.22,1.08-0.22,2.07c0,0.9,0.07,2,0.25,3.19c0.36,2.5,1.2,5.29,2.22,7.49c0.5,1.1,1.33,2.08,2.52,2.52
		c1.16,0.46,2.38,0.52,3.36,0.57c0.01,0,0.01,0,0.02,0c0.09,0.26,0.2,0.45,0.33,0.55c0.17,0.18,0.52,0.26,0.96,0.26
		c0.38,0,0.82-0.06,1.25-0.18c0.92-0.22,1.78-0.57,2.59-0.96c0.44-0.19,0.89-0.39,1.33-0.61c0.46,0.07,0.89,0.14,1.33,0.21
		c0.58,0.09,1.16,0.18,1.76,0.18c0.29,0,0.59-0.02,0.88-0.07c0.58-0.13,1.3-0.63,1.95-1.39c0.66-0.75,1.24-1.76,1.7-2.76
		c0.91-2.02,1.38-3.99,1.48-4.06c0.45,0.63,1,1.1,1.46,1.78c0.44,0.66,0.81,1.54,0.81,3.1l0,0c0,0.06,0,0.11,0,0.17
		c0,0.01,0,0.01,0,0.02c0,0.4,0.37,0.45,0.54,0.69c0.01,0,0.02,0,0.04,0c0.34,0,0.95-0.64,1.1-1.1l0,0l0,0l0,0l0,0
		c-0.04,0.2-0.05,0.33-0.05,0.4c0,0.04,0.01,0.06,0.02,0.06c0.14,0,1.17-3.36,1.88-6.95c0.63-3.05,1.02-6.15,1.02-7.09
		c0-0.19-0.02-0.29-0.05-0.29c-0.04,0-0.11,0.18-0.21,0.57l0,0l0,0l0,0l0,0c0.14-0.54,0.24-1.08,0.24-1.62c0-0.09,0-0.18-0.01-0.26
		c-0.02-0.31-0.08-0.62-0.19-0.91c-0.1-0.25-0.17-0.36-0.32-0.54c-0.28-0.33-0.72-0.66-1.26-0.99c-0.21-0.13-0.44-0.26-0.67-0.39
		c-0.36-0.2-0.73-0.4-1.09-0.59c-2.4-1.22-5.03-2.28-7.43-2.65C87.65,63.16,87.17,63.12,86.7,63.12"/>
	<path class="st265" d="M86.53,67.13l-0.05,0.02c-0.06,0.03-0.13,0.08-0.24,0.19c-0.21,0.21-0.51,0.66-0.71,1.29
		c-0.02,0.06-0.04,0.12-0.07,0.18c0.32-0.15,0.59-0.29,0.73-0.43c0.12-0.21,0.26-0.24,0.33-0.34l0-0.07l-0.01-0.17l-0.02-0.26
		c0,0,0-0.01,0-0.01l0,0C86.5,67.41,86.51,67.27,86.53,67.13"/>
	<path class="st265" d="M88.71,75.83c-0.29,1.13-0.77,2.03-1.26,3.47c-0.17,0.44-0.34,0.89-0.53,1.34c0.63-0.57,1.21-1.31,1.69-1.94
		c0.03-0.21,0.06-0.42,0.08-0.63c0.07-0.58,0.12-1.12,0.12-1.54C88.82,76.21,88.79,75.96,88.71,75.83L88.71,75.83"/>
	<polyline class="st265" points="97.14,69.03 97.13,69.03 97.14,69.03 97.14,69.03 	"/>
	<polyline class="st265" points="97.13,69.03 97.13,69.03 97.13,69.03 97.13,69.03 97.13,69.03 97.13,69.03 97.13,69.03 	"/>
	<polyline class="st265" points="97.13,69.03 97.13,69.03 97.13,69.03 97.13,69.03 	"/>
	<polyline class="st265" points="97.13,69.03 97.13,69.03 97.13,69.03 97.13,69.03 	"/>
	<path class="st265" d="M97.13,69.03c-0.01,0.01-0.03,0.02-0.06,0.03l0,0c0.01-0.01,0.02-0.01,0.03-0.02l0.01,0L97.13,69.03"/>
	<path class="st265" d="M97.07,69.06c-0.28,0.14-0.61,0.3-0.96,0.47l0.05,0.11l-0.01,0.04l0.02-0.01c0.08-0.06,0.15-0.12,0.22-0.17
		c0.07-0.05,0.13-0.1,0.19-0.14c0.04-0.03,0.07-0.05,0.11-0.07c0.08-0.05,0.15-0.1,0.22-0.14l0.03-0.02l0.11-0.06L97.07,69.06
		L97.07,69.06"/>
	<path class="st265" d="M96.11,69.54c-0.13,0.07-0.26,0.13-0.35,0.17l0,0C95.88,69.65,96,69.59,96.11,69.54L96.11,69.54"/>
	<path class="st265" d="M95.77,69.61l-0.01,0.08l0,0.01c0.03-0.02,0.07-0.04,0.11-0.06l0,0l-0.01-0.01l-0.05-0.02L95.77,69.61"/>
	<path class="st265" d="M77.92,87.54c0,0-0.01,0.02-0.01,0.05c-0.01,0.1-0.03,0.2-0.04,0.28c-0.01,0.09-0.03,0.17-0.05,0.23
		c-0.03,0.1-0.05,0.19-0.08,0.26c-0.01,0.03-0.02,0.06-0.04,0.08c0,0.01,0,0.01-0.01,0.02c-0.02,0.05-0.04,0.09-0.06,0.12
		c-0.01,0.01-0.02,0.02-0.02,0.03c0,0,0.01-0.01,0.02-0.02l0-0.01l0,0c0.02-0.02,0.05-0.05,0.09-0.09c0.07-0.05,0.16-0.12,0.3-0.2
		c0.12-0.07,0.26-0.14,0.45-0.22c0.06-0.03,0.13-0.06,0.2-0.08c0.04-0.02,0.09-0.04,0.14-0.05c0,0,0.01,0,0.01-0.01l0.01-0.02
		c0.01-0.03,0.01-0.08,0.01-0.15c-0.07,0-0.14,0-0.21,0c0,0-0.01,0-0.01,0c-0.25,0-0.44-0.03-0.57-0.08l-0.13-0.09
		C77.92,87.56,77.92,87.54,77.92,87.54"/>
	<path class="st268" d="M119.16,53.74c1.9,3.09,3.04,6.03,3.78,8.51C122.19,59.78,121.06,56.84,119.16,53.74"/>
	<path class="st268" d="M122.94,62.26c0.76,2.57,1.1,4.66,1.27,6.11C124.04,66.92,123.7,64.82,122.94,62.26"/>
	<path class="st268" d="M124.4,70.63c-0.02,0.17-0.03,0.4-0.03,0.68c0,0.15,0,0.31,0,0.48C124.36,71.29,124.37,70.89,124.4,70.63"/>
	<path class="st288" d="M124.24,79.71L124.24,79.71c-0.01,0.1-0.01,0.2-0.02,0.3c-0.11,1.88-0.26,3.64-0.4,4.88l0,0l0,0l0,0
		c0.13-1.19,0.28-2.85,0.38-4.64c0-0.08,0.01-0.16,0.01-0.24C124.23,79.92,124.24,79.82,124.24,79.71"/>
	<path class="st268" d="M124.21,80.26c-0.11,1.79-0.26,3.45-0.38,4.64C123.96,83.71,124.1,82.05,124.21,80.26"/>
	<path class="st268" d="M123.83,84.9c-0.01,0.11-0.02,0.22-0.04,0.33C123.8,85.12,123.81,85.01,123.83,84.9"/>
	<path class="st268" d="M123.79,85.23c-0.09,0.83-0.16,1.41-0.18,1.63c-0.01,0.06-0.01,0.09-0.01,0.09l0,0
		C123.6,86.95,123.67,86.28,123.79,85.23"/>
	<path class="st268" d="M123.61,86.98c0.01,0.04,0.02,0.09,0.03,0.14c0.1,0.49,0.15,1.14,0.15,1.91
		C123.79,88.19,123.73,87.49,123.61,86.98"/>
	<path class="st268" d="M123.79,89.03c0,0.41-0.01,0.85-0.04,1.31c-0.05,0.99-0.16,2.09-0.31,3.24c0.15-1.14,0.26-2.25,0.31-3.24
		C123.78,89.88,123.79,89.44,123.79,89.03"/>
	<path class="st267" d="M35.34,105.68c0,0,0.66,1.34,1.8,3.68l0,0c0.79,1.45,1.64,3.25,2.73,5.21c0.04,0.06,0.07,0.13,0.11,0.19
		c0,0.01,0.01,0.02,0.01,0.02c0-0.01-0.01-0.02-0.01-0.02c-1.14-2.04-2.02-3.9-2.84-5.4C36,107.02,35.34,105.68,35.34,105.68
		 M123.44,93.58L123.44,93.58c-0.18,1.4-0.41,2.85-0.76,4.6c-0.29,1.46-0.67,3.08-1.16,4.79l0,0l0,0c0.49-1.71,0.86-3.32,1.16-4.79
		C123.03,96.43,123.25,94.98,123.44,93.58L123.44,93.58"/>
	<path class="st268" d="M37.14,109.36c0.79,1.45,1.64,3.25,2.73,5.21C38.78,112.61,37.93,110.81,37.14,109.36"/>
	<path class="st268" d="M118.87,110.16c-0.94,2.04-2.06,4-3.17,5.65C116.82,114.16,117.93,112.2,118.87,110.16"/>
	<path class="st268" d="M39.99,114.78c1.15,1.92,2.58,3.97,4.45,5.91C42.57,118.75,41.14,116.7,39.99,114.78"/>
	<path class="st268" d="M115.63,115.92c-1.11,1.67-2.23,3.01-3.02,3.92C113.4,118.93,114.52,117.59,115.63,115.92"/>
	<path class="st268" d="M44.44,120.69c0.03,0.03,0.07,0.07,0.1,0.1C44.5,120.76,44.47,120.73,44.44,120.69"/>
	<path class="st268" d="M44.53,120.79c0.03,0.03,0.07,0.07,0.1,0.1C44.6,120.86,44.57,120.83,44.53,120.79"/>
	<path class="st288" d="M53.31,126.8c0.98,0.43,2.01,0.82,3.06,1.17c0.06,0.02,0.13,0.04,0.19,0.06c0.04,0.01,0.08,0.02,0.11,0.04
		c1.59,0.51,3.26,0.96,4.95,1.4l0,0l0,0c0.72,0.18,1.44,0.37,2.17,0.56l0,0c-0.73-0.19-1.45-0.37-2.17-0.56
		c-1.74-0.45-3.44-0.92-5.07-1.44C55.44,127.66,54.35,127.25,53.31,126.8L53.31,126.8"/>
	<path class="st268" d="M61.63,129.47c0.72,0.18,1.44,0.37,2.17,0.56c0.55,0.14,1.1,0.28,1.66,0.43c-0.56-0.14-1.11-0.29-1.67-0.43
		C63.07,129.84,62.35,129.65,61.63,129.47 M56.68,128.07c1.59,0.51,3.26,0.96,4.95,1.4C59.94,129.03,58.28,128.58,56.68,128.07"/>
	<path class="st288" d="M76.33,132.62c0.4,0.06,0.8,0.11,1.2,0.16c0.07,0.01,0.14,0.02,0.21,0.03l0,0l0,0c0,0,1.26,0.1,3.29,0.12
		l0,0l0,0c1,0,2.18-0.03,3.49-0.11c0.03,0,0.06,0,0.09-0.01l0,0c0.11-0.01,0.23-0.02,0.34-0.03l0,0c-0.11,0.01-0.23,0.02-0.34,0.03
		c-1.35,0.09-2.57,0.12-3.59,0.12c-2.04-0.02-3.29-0.12-3.29-0.12l0,0C77.27,132.74,76.8,132.68,76.33,132.62L76.33,132.62"/>
	<path class="st268" d="M84.53,132.81c-1.31,0.09-2.5,0.11-3.49,0.11C82.04,132.92,83.22,132.89,84.53,132.81 M77.74,132.8
		L77.74,132.8c0,0,1.26,0.1,3.29,0.12C79,132.91,77.74,132.8,77.74,132.8 M84.97,132.77c-0.11,0.01-0.23,0.02-0.34,0.03
		C84.74,132.79,84.85,132.78,84.97,132.77"/>
	<path class="st267" d="M44.64,120.9L44.64,120.9L44.64,120.9c1.91,1.96,4.3,3.76,7.09,5.16c0.08,0.04,0.16,0.08,0.24,0.12l0,0
		c0.44,0.22,0.89,0.43,1.36,0.63l0,0l0,0c-0.46-0.2-0.91-0.41-1.36-0.63C49.07,124.76,46.6,122.91,44.64,120.9L44.64,120.9"/>
	<path class="st268" d="M51.96,126.17c1.39,0.68,2.86,1.28,4.42,1.8c-1.06-0.35-2.08-0.74-3.06-1.17
		C52.85,126.6,52.4,126.39,51.96,126.17 M44.64,120.9c1.91,1.96,4.3,3.76,7.09,5.16C48.94,124.66,46.54,122.86,44.64,120.9"/>
	<path class="st268" d="M69.27,131.34c2.57,0.55,5.32,1.07,8.26,1.43c-0.4-0.05-0.8-0.1-1.2-0.16
		C73.84,132.27,71.49,131.82,69.27,131.34"/>
	<path class="st268" d="M111.33,121.21c-0.07,0.06-0.14,0.13-0.21,0.19c-2.15,1.94-4.44,3.58-6.77,4.92
		c2.33-1.34,4.62-2.98,6.77-4.92C111.19,121.34,111.26,121.27,111.33,121.21"/>
	<path class="st268" d="M104.35,126.32c-0.78,0.58-2.11,1.4-3.78,2.24c-0.73,0.36-1.53,0.73-2.37,1.08
		C100.98,128.49,103.23,127.16,104.35,126.32"/>
	<path class="st268" d="M98.21,129.64c-2.7,1.14-5.88,2.04-8.91,2.58C92.33,131.68,95.51,130.78,98.21,129.64"/>
	<path class="st268" d="M89.08,132.25c-1.42,0.25-2.81,0.41-4.11,0.52C86.26,132.66,87.66,132.51,89.08,132.25"/>
	<path class="st270" d="M95.76,69.71l0-0.01l0.01-0.08l0.04,0.01l0.05,0.02l0.01,0.01l0,0l0,0l0,0
		C95.83,69.67,95.8,69.69,95.76,69.71L95.76,69.71L95.76,69.71L95.76,69.71 M86.53,67.13l0.17-0.07c0.13-0.04,0.37-0.09,0.81-0.09
		c0.06,0,0.12,0,0.19,0c0.55,0.01,1.32,0.11,2.17,0.22c0.44,0.01,1.14,0.44,1.61,0.84c0.52,0.59,1.03,1.18,1.55,1.82l0.69,0.86l0,0
		l0,0c-0.34,0.17-0.56,0.28-0.56,0.28c0,0,0,0,0,0l0,0c0,0,0.02-0.01,0.06-0.03l0-0.01l-0.03-0.04l-0.12-0.18l0,0.1l-0.02,0.22
		c-0.08,0.59-0.34,1.18-0.6,1.71c-1.05,2.16-2.11,3.84-3.15,5.09c-0.15,0.17-0.32,0.39-0.5,0.62c-0.06,0.07-0.11,0.15-0.17,0.22
		c-0.49,0.63-1.06,1.37-1.69,1.94l0,0l0,0l0,0l0,0c0.18-0.46,0.36-0.91,0.53-1.34c0.5-1.44,0.98-2.34,1.26-3.47
		c0-0.01,0-0.03,0-0.04l0,0c0-0.65,0.12-1.63,0.12-2.18c0-0.25-0.02-0.42-0.1-0.42c-0.01,0-0.02,0-0.03,0.01
		c-0.02-0.01-0.04-0.01-0.06-0.01c-0.33,0-0.7,1.11-1.03,1.74c-0.96,2.73-2.16,5.12-3.62,6.98c-0.04,0-0.08,0-0.11,0
		c-0.25,0-0.44-0.02-0.56-0.04c-0.31,0.03-0.61,0.04-0.89,0.04c-0.19,0-0.38,0-0.55-0.01l0,0l0,0l0,0l0,0
		c0.52-3.06,1.36-6.1,2.5-9.07c0.31-0.8,0.51-1.58,0.67-2.32c0.16-0.71,0.28-1.35,0.48-1.87c0.21-0.62,0.51-1.08,0.71-1.29
		c0.1-0.11,0.18-0.17,0.24-0.19L86.53,67.13 M86.59,64.35c-0.24,0-0.46,0.02-0.68,0.08c-0.96,0.17-1.7,0.91-1.92,1.98
		c-0.72,0.96-1.38,2.31-2,3.88c-0.62,1.54-1.17,3.12-1.61,4.73c-0.65,2.37-1.12,4.81-1.38,7.31c-0.77,0.32-1.32,0.69-1.32,0.78
		c0,0,0,0.01,0,0.01c0.35,0.33,0.75,0.56,1.19,0.74l0,0l0,0l0,0l0,0c-0.03,0.4-0.05,0.79-0.06,1.19c0,0.16,0,0.31,0.01,0.47l0,0l0,0
		l0,0l0,0c-0.12,0.01-0.23,0.02-0.34,0.02c-0.1,0-0.19-0.01-0.28-0.02c-0.12-0.02-0.3-0.02-0.35-0.06l-0.02-0.04l0.07,0.52
		c0.04,0.34,0.05,0.67,0.05,0.97l0,0c0,0.02,0,0.04,0,0.06c0,0.23-0.02,0.44-0.04,0.62c0-0.03,0.01-0.05,0.01-0.05
		c0,0,0,0.01,0,0.04l0.13,0.09c0.13,0.05,0.33,0.08,0.57,0.08c0,0,0.01,0,0.01,0c0.07,0,0.14,0,0.21,0l0,0l0,0l0,0l0,0
		c0,0.07,0,0.12-0.01,0.15l-0.01,0.02c0,0-0.01,0-0.01,0.01c0.07-0.03,0.15-0.06,0.23-0.08c0.1-0.03,0.2-0.07,0.31-0.1
		c0.25-0.02,0.5-0.05,0.75-0.1c0.99-0.18,2.02-0.6,3.02-1.35c0.66-0.43,1.31-1.09,1.87-1.87c0.07-0.02,0.15-0.03,0.22-0.05
		c0.79-0.2,1.67-0.64,2.45-1.33c1.57-1.32,2.81-3.69,3.47-4.66c0.78-1.17,1.6-2.45,2.45-3.91c0.42-0.73,0.85-1.5,1.29-2.33
		c0.22-0.41,0.44-0.84,0.61-1.29c0.08-0.22,0.16-0.45,0.21-0.67c0.01-0.04,0.02-0.09,0.03-0.13c0.17-0.15,0.32-0.28,0.46-0.39
		l-0.02,0.01l0.01-0.04l-0.05-0.11c-0.11,0.06-0.23,0.11-0.35,0.17l0,0l0,0l0,0l0,0c0.09-0.04,0.21-0.11,0.35-0.17l-0.01-0.02
		c-0.12-0.2-0.61-0.6-1.2-1.01c-1.13-0.8-2.37-1.54-3.49-2.19c-0.86-0.62-1.49-1.11-2.21-1.39C88.29,64.61,87.38,64.35,86.59,64.35"
		/>
	<path class="st270" d="M97.13,69.03L97.13,69.03L97.13,69.03L97.13,69.03 M97.14,69.03L97.14,69.03
		C97.13,69.03,97.13,69.03,97.14,69.03L97.14,69.03 M97.14,69.03L97.14,69.03L97.14,69.03 M98,68.6c0,0-0.35,0.17-0.87,0.43l0,0
		C97.75,68.72,98,68.6,98,68.6"/>
	<path class="st270" d="M97.16,69.02c0,0-0.01,0-0.02,0.01l0,0l0,0l0,0C97.15,69.02,97.16,69.02,97.16,69.02"/>
	<polyline class="st270" points="97.14,69.03 97.13,69.03 97.13,69.03 97.13,69.03 97.14,69.03 97.14,69.03 97.14,69.03 	"/>
	<path class="st270" d="M97.13,69.03L97.13,69.03L97.13,69.03L97.13,69.03l-0.01,0.01l-0.04,0.02l-0.01,0.01
		C97.09,69.05,97.11,69.04,97.13,69.03L97.13,69.03L97.13,69.03C97.13,69.03,97.13,69.03,97.13,69.03
		C97.13,69.03,97.13,69.03,97.13,69.03C97.13,69.03,97.13,69.03,97.13,69.03C97.13,69.03,97.13,69.03,97.13,69.03"/>
	<path class="st270" d="M97.13,69.03L97.13,69.03L97.13,69.03 M97.13,69.03L97.13,69.03L97.13,69.03L97.13,69.03 M97.13,69.03
		L97.13,69.03C97.13,69.03,97.13,69.03,97.13,69.03l-0.02,0.01l-0.01,0C97.11,69.04,97.12,69.04,97.13,69.03"/>
	<path class="st270" d="M97.07,69.06L97.07,69.06L97.07,69.06 M97.1,69.05c-0.01,0.01-0.02,0.01-0.03,0.02l-0.01,0L97.1,69.05"/>
	<path class="st270" d="M97.07,69.06c-0.14,0.07-0.41,0.2-0.69,0.34c-0.09,0.04-0.18,0.09-0.27,0.13l0,0
		C96.45,69.37,96.78,69.2,97.07,69.06L97.07,69.06"/>
	<polyline class="st270" points="97.06,69.07 97.04,69.08 96.93,69.14 97.06,69.07 	"/>
	<path class="st270" d="M96.93,69.14l-0.03,0.02c-0.06,0.04-0.14,0.08-0.22,0.14c0.08-0.05,0.15-0.1,0.21-0.14L96.93,69.14"/>
	<path class="st270" d="M96.68,69.3c-0.04,0.02-0.07,0.05-0.11,0.07C96.61,69.35,96.65,69.32,96.68,69.3"/>
	<path class="st270" d="M96.57,69.37c-0.06,0.04-0.12,0.09-0.19,0.14c0.04-0.03,0.08-0.06,0.12-0.09
		C96.53,69.4,96.55,69.39,96.57,69.37"/>
	<path class="st270" d="M96.39,69.51c-0.07,0.05-0.14,0.11-0.22,0.17l0.01-0.01l0.17-0.14C96.36,69.52,96.37,69.52,96.39,69.51"/>
	<path class="st270" d="M77.91,87.59c-0.01,0.06-0.02,0.18-0.04,0.28C77.88,87.79,77.89,87.7,77.91,87.59"/>
	<path class="st270" d="M77.86,87.88c-0.02,0.08-0.03,0.16-0.05,0.23C77.83,88.05,77.85,87.97,77.86,87.88"/>
	<path class="st270" d="M78.81,87.93c-0.05,0.02-0.09,0.04-0.14,0.05C78.72,87.97,78.77,87.95,78.81,87.93"/>
	<path class="st270" d="M78.67,87.99c-0.07,0.03-0.14,0.05-0.2,0.08c-0.18,0.08-0.33,0.15-0.45,0.22
		C78.18,88.2,78.39,88.1,78.67,87.99"/>
	<path class="st270" d="M77.81,88.1C77.81,88.11,77.81,88.11,77.81,88.1c-0.04,0.15-0.08,0.26-0.12,0.35
		c0.01-0.02,0.02-0.05,0.04-0.08C77.76,88.29,77.79,88.21,77.81,88.1"/>
	<path class="st270" d="M78.02,88.3c-0.14,0.08-0.23,0.15-0.3,0.2c0.05-0.04,0.12-0.09,0.21-0.15
		C77.97,88.33,77.99,88.31,78.02,88.3"/>
	<path class="st270" d="M77.7,88.45c0,0.01,0,0.01-0.01,0.02C77.69,88.46,77.69,88.46,77.7,88.45"/>
	<path class="st270" d="M77.69,88.47c-0.02,0.05-0.04,0.09-0.06,0.12C77.65,88.56,77.66,88.52,77.69,88.47"/>
	<path class="st270" d="M77.73,88.5c-0.05,0.04-0.08,0.07-0.09,0.09l0.06-0.06C77.71,88.52,77.72,88.51,77.73,88.5"/>
	<path class="st270" d="M77.63,88.58c-0.01,0.01-0.01,0.02-0.02,0.03l-0.01,0.02l0.02-0.03c-0.01,0.01-0.01,0.02-0.02,0.02l0,0l0,0
		l0,0l0,0C77.61,88.61,77.62,88.6,77.63,88.58"/>
	<polyline class="st270" points="77.63,88.58 77.63,88.59 77.63,88.59 77.63,88.58 	"/>
</g>
<g>
	<path d="M124.41,87.55c1.29-6.24,2.11-12.57,0.29-18.75c-1.47-4.98-3.19-10.03-5.74-14.52c-4-7.03-8.71-13.66-16.78-16.82
		c-5.72-2.24-11.6-3.23-17.65-2.13c-4.02,0.73-7.94,2.03-11.94,2.92c-0.96,0.21-2.84,0.06-2.96-0.34
		c-1.33-4.27-4.55-8.29-2.17-13.18c0.17-0.34,0.3-0.82,0.19-1.15c-0.57-1.71-1.14-3.43-1.87-5.08c-0.72-1.61-2.38-1.6-3.37-0.14
		c-0.27,0.4-0.72,0.77-1.17,0.93c-1.54,0.55-1.84,1.58-1.3,2.98c0.69,1.8,1.53,3.56,2.09,5.4c1.18,3.82,2.22,7.67,3.29,11.41
		c-1.11,0.42-2.34,0.9-3.58,1.34c-0.57,0.2-1.18,0.45-1.76,0.45c-5.14-0.03-10.37-0.49-14.37,3.8c-2.18,2.34-4.91,4.34-6.51,7.02
		c-3.03,5.06-5.33,10.53-6.55,16.39c-1.67,7.96-4.26,15.76-3.48,24.09c0.75,8.03,2.39,15.76,6.99,22.56
		c5.39,7.98,12.76,13.49,22.07,15.81c4.07,1.02,8.57,2.15,12.79,0.37c4.39-1.85,8.62-2.44,13.51-1.94
		c12.6,1.29,22.04-5.31,30.22-14.01c4.37-4.65,6.05-10.67,7.6-16.65C123.12,94.79,123.67,91.14,124.41,87.55z M62.56,24.69
		c-0.22-1.12-0.43-2.15-0.64-3.23c0.58-0.45,1.13-0.89,1.91-1.5c0.11,1.07,0.1,1.78,0.28,2.43c0.15,0.55,0.53,1.05,0.84,1.64
		C64.25,24.22,63.58,24.41,62.56,24.69z M77.67,39.11c0.04,0.1,0.09,0.21,0.13,0.31c-1.87,1.02-3.73,2.04-5.79,3.16
		c-0.36-0.59-0.69-1.13-1.13-1.85C73.21,40.17,75.44,39.64,77.67,39.11z M117.36,106.32c-1.36,4.31-4.57,7.3-7.54,10.46
		c-3.86,4.1-8.74,6.58-13.8,8.77c-4.4,1.91-8.99,1.59-13.56,1.38c-0.02-0.25-0.05-0.51-0.07-0.76c0.96-0.13,1.92-0.26,2.89-0.39
		c0.04,0.18,0.09,0.35,0.13,0.53c0.55-0.84,1.1-1.69,1.65-2.53c0.07,0.03,0.14,0.07,0.2,0.1c-0.2,0.7-0.4,1.4-0.59,2.11
		c0.12,0.06,0.23,0.12,0.35,0.18c0.86-1.29,1.72-2.58,2.94-4.42c-2.62,0.18-4.82,0.34-7.55,0.53c8.1-8.36,10.3-18.2,10.61-28.69
		c-0.21-0.08-0.41-0.16-0.62-0.24c-0.29,0.72-0.83,1.45-0.82,2.17c0.1,7.43-2.95,13.85-6.46,20.09c-0.79,1.41-2.18,2.48-3.25,3.74
		c-0.81,0.95-1.92,1.84-2.28,2.96c-1.08,3.32-3.7,4.6-6.62,5.6c-8.95,3.07-17.11,1.14-24.75-3.98
		c-6.93-4.65-12.04-10.75-14.57-18.78c-1.91-6.04-3.29-12.29-2.32-18.58c1.15-7.52,2.78-14.99,4.73-22.34
		c1.52-5.72,3.86-11.16,8.01-15.69c4.94-5.38,10.83-6.62,17.67-4.88c3.94,1,8.07,1.46,11.82,2.92c6.95,2.7,12.27,7.42,15.03,14.56
		c0.85,2.2,1.72,0.69,2.81,0.2c-4.99-9.22-9.24-13.39-17.95-17.35c4.06-1.97,7.65-3.89,11.38-5.5c6.79-2.94,13.23-0.91,19.09,2.43
		c7.27,4.13,11.73,10.97,15.31,18.36c2.73,5.63,4.8,11.55,4.26,17.85c-0.52,6.16-1.6,12.3-2.81,18.38
		C119.92,99.18,118.49,102.72,117.36,106.32z"/>
	<path d="M50.02,52.95c-2.86,2.63-4.86,5.8-6.6,9.23c-1.87,3.7-1.69,7.66-1.79,11.59c-0.04,1.84,0.13,3.69,0.18,5.08
		c1.77-1.1,3.18-1.97,5.18-3.22c-1.59-0.01-2.52-0.01-3.9-0.01c1.92-0.97,3.45-1.75,4.98-2.52c-0.06-0.18-0.11-0.37-0.17-0.55
		c-1.79,0.47-3.58,0.93-5.36,1.4c-0.11-0.22-0.23-0.44-0.34-0.66c2.3-1.17,4.6-2.34,6.9-3.52c-0.05-0.13-0.1-0.26-0.15-0.4
		c-1.95,0.48-3.89,0.97-5.84,1.45c-0.05-0.15-0.1-0.3-0.16-0.45c1.92-0.94,3.85-1.88,5.77-2.82c-0.04-0.12-0.08-0.23-0.12-0.35
		c-1.52,0.35-3.04,0.7-4.56,1.05c-0.05-0.17-0.1-0.34-0.15-0.51c2.07-0.86,4.13-1.72,6.2-2.58c-0.04-0.14-0.07-0.28-0.11-0.42
		c-1.46,0.27-2.93,0.54-4.39,0.81c-0.04-0.2-0.08-0.39-0.12-0.59c1.92-0.6,3.85-1.19,5.77-1.79c-0.05-0.17-0.11-0.34-0.16-0.51
		c-2.07,0.49-4.14,0.98-6.21,1.48c-0.05-0.13-0.1-0.26-0.15-0.39c2.18-0.98,4.36-1.96,7.15-3.21c-1.86,0.27-3.13,0.46-4.4,0.64
		c-0.03-0.13-0.06-0.26-0.09-0.4c1.61-0.53,3.22-1.05,4.83-1.58c-0.02-0.1-0.04-0.2-0.06-0.3c-1.01,0.13-2.02,0.26-3.04,0.39
		c-0.02-0.15-0.04-0.29-0.06-0.44c1.3-0.23,2.6-0.45,3.9-0.68c-0.02-0.11-0.05-0.22-0.07-0.33c-1.09-0.06-2.17-0.12-3.26-0.18
		c-0.01-0.1-0.03-0.2-0.04-0.3c1.14-0.34,2.29-0.68,4.04-1.19c-1.41-0.11-2.2-0.18-3.14-0.25c1.28-0.49,2.42-0.93,3.57-1.37
		c-0.02-0.1-0.04-0.19-0.06-0.29c-0.82,0.07-1.64,0.14-2.46,0.22c-0.03-0.15-0.06-0.3-0.09-0.45c1.29-0.39,2.58-0.78,3.87-1.17
		C53.57,53.15,51.83,51.29,50.02,52.95z"/>
	<path d="M77.26,113.05c0.52-0.03,0.87-0.06,1.07-0.07c-0.55,0.83-1.11,1.65-1.66,2.48c0.17,0.11,0.33,0.22,0.5,0.33
		c-0.94,0.43-1.88,0.85-2.82,1.28c0.05,0.12,0.1,0.24,0.15,0.36c0.44,0.02,0.88,0.04,2.07,0.09c-1.73,0.96-2.83,1.57-3.93,2.18
		c0.06,0.15,0.13,0.3,0.19,0.45c1.04-0.29,2.09-0.58,3.13-0.87c0.03,0.1,0.06,0.2,0.09,0.3c-1.62,0.94-3.25,1.88-4.87,2.82
		c0.06,0.12,0.13,0.24,0.19,0.35c0.49-0.01,0.99-0.02,1.69-0.03c-1.15,0.86-2.1,1.56-3.05,2.27c0.08,0.1,0.17,0.21,0.25,0.31
		c0.51-0.13,1.02-0.25,1.74-0.43c-0.6,0.75-1.02,1.27-1.44,1.79c7.45-4.22,10.35-11.61,13.68-19.26
		C80.83,108.29,78.61,110.01,77.26,113.05z"/>
	<path d="M96.59,123.05c1.67-0.99,3.07-1.84,4.9-2.93C98.85,119.5,96.83,120.89,96.59,123.05z"/>
</g>
</svg>
