<?xml version="1.0" encoding="utf-8"?>
<!-- Generator: Adobe Illustrator 23.0.1, SVG Export Plug-In . SVG Version: 6.00 Build 0)  -->
<svg version="1.1" id="Layer_1" xmlns="http://www.w3.org/2000/svg" xmlns:xlink="http://www.w3.org/1999/xlink" x="0px" y="0px"
	 viewBox="0 0 150 150" style="enable-background:new 0 0 150 150;" xml:space="preserve">
<style type="text/css">
	.st0{fill:#F49AB4;}
	.st1{fill:#F28DA7;}
	.st2{fill:#E85072;}
	.st3{fill:#E84B6F;}
	.st4{fill:#EB5A7D;}
	.st5{fill:#EF7994;}
	.st6{fill:#F8BCCD;}
	.st7{fill:#F38CA8;}
	.st8{fill:#EF728F;}
	.st9{fill:#FCE4EB;}
	.st10{fill:#F0CCCF;}
	.st11{fill:#DE8D95;}
	.st12{fill:#EBBABF;}
	.st13{fill:#E7ACB2;}
	.st14{fill:#E39DA3;}
	.st15{fill:#F5DEE0;}
	.st16{fill:#D97A83;}
	.st17{fill:#E4A6AD;}
	.st18{fill:#E9B6BB;}
	.st19{fill:#DA9197;}
	.st20{fill:#CC7077;}
	.st21{fill:#C9646C;}
	.st22{fill:#D4848B;}
	.st23{fill:#D17A81;}
	.st24{fill:#DD9EA3;}
	.st25{fill:#C65760;}
	.st26{fill:#D48189;}
	.st27{fill:#CF6E76;}
	.st28{fill:#C1575F;}
	.st29{fill:#B8424B;}
	.st30{fill:#B33C43;}
	.st31{fill:#BB4952;}
	.st32{fill:#C65E66;}
	.st33{fill:#BC4F57;}
	.st34{fill:#B0353D;}
	.st35{fill:#D67E84;}
	.st36{fill:#C6636B;}
	.st37{fill:#CA6C72;}
	.st38{fill:#B9454D;}
	.st39{fill:#C05B63;}
	.st40{fill:#C0545B;}
	.st41{fill:#BE4C53;}
	.st42{fill:#B43C44;}
	.st43{fill:#DF999F;}
	.st44{fill:#D27980;}
	.st45{fill:#C1555D;}
	.st46{fill:#CB6F76;}
	.st47{fill:#C8676E;}
	.st48{fill:#D5838A;}
	.st49{fill:#C65D64;}
	.st50{fill:#F1D1D4;}
	.st51{fill:#D38087;}
	.st52{fill:#CF737C;}
	.st53{fill:#D98C94;}
	.st54{fill:#E6B3B9;}
	.st55{fill:#D8898F;}
	.st56{fill:#C66269;}
	.st57{fill:#C96A72;}
	.st58{fill:#DD9399;}
	.st59{fill:#CF747B;}
	.st60{fill:#D48188;}
	.st61{fill:#D37D85;}
	.st62{fill:#DC9298;}
	.st63{fill:#D8838B;}
	.st64{fill:#FAECED;}
	.st65{fill:#EFCBD0;}
	.st66{fill:#EDC1C5;}
	.st67{fill:#D28089;}
	.st68{fill:#CB747D;}
	.st69{fill:#A8343C;}
	.st70{fill:#A62F37;}
	.st71{fill:#B03E44;}
	.st72{fill:#C25C63;}
	.st73{fill:#E1A8AC;}
	.st74{fill:#BE535C;}
	.st75{fill:#CE727C;}
	.st76{fill:#F5D8DA;}
	.st77{fill:#D8BAE7;}
	.st78{fill:#BC8FD2;}
	.st79{fill:#B17FC9;}
	.st80{fill:#7D3CA4;}
	.st81{fill:#884BAE;}
	.st82{fill:#A369BF;}
	.st83{fill:#D2B5E2;}
	.st84{fill:#9A62BC;}
	.st85{fill:#B17ECB;}
	.st86{fill:#ECE0F2;}
	.st87{fill:#FBCBC8;}
	.st88{fill:#F5908C;}
	.st89{fill:#F28580;}
	.st90{fill:#E64640;}
	.st91{fill:#E5413B;}
	.st92{fill:#E74E49;}
	.st93{fill:#ED6D68;}
	.st94{fill:#F7B5B0;}
	.st95{fill:#ED6660;}
	.st96{fill:#F48580;}
	.st97{fill:#FBDFDF;}
	.st98{fill:#F9C1C0;}
	.st99{fill:#F7B7B6;}
	.st100{fill:#EF7573;}
	.st101{fill:#EF6F6D;}
	.st102{fill:#F17F7C;}
	.st103{fill:#F4A19F;}
	.st104{fill:#F39998;}
	.st105{fill:#EC7271;}
	.st106{fill:#FAD1CF;}
	.st107{fill:#FADCDC;}
	.st108{fill:#F39391;}
	.st109{fill:#FDECEC;}
	.st110{fill:#FCDDDD;}
	.st111{fill:#ED8280;}
	.st112{fill:#E66160;}
	.st113{fill:#F18784;}
	.st114{fill:#F19593;}
	.st115{fill:#EB7675;}
	.st116{fill:#E86867;}
	.st117{fill:#F28785;}
	.st118{fill:#F3A7A7;}
	.st119{fill:#F08C8B;}
	.st120{fill:#F08785;}
	.st121{fill:#E55D5B;}
	.st122{fill:#E86D6C;}
	.st123{fill:#E85F5D;}
	.st124{fill:#E75958;}
	.st125{fill:#EA6664;}
	.st126{fill:#E76260;}
	.st127{fill:#E04948;}
	.st128{fill:#ED7371;}
	.st129{fill:#EA6B6A;}
	.st130{fill:#EB6763;}
	.st131{fill:#E45352;}
	.st132{fill:#E54E4C;}
	.st133{fill:#DE3635;}
	.st134{fill:#E65958;}
	.st135{fill:#E0413E;}
	.st136{fill:#EA6D6A;}
	.st137{fill:#EE9493;}
	.st138{fill:#EA6866;}
	.st139{fill:#F2A8A6;}
	.st140{fill:#E14543;}
	.st141{fill:#E3413F;}
	.st142{fill:#E64A48;}
	.st143{fill:#E56967;}
	.st144{fill:#E33F3D;}
	.st145{fill:#EB7775;}
	.st146{fill:#EE8483;}
	.st147{fill:#E64845;}
	.st148{fill:#E75655;}
	.st149{fill:#E65451;}
	.st150{fill:#EA7473;}
	.st151{fill:#E55B57;}
	.st152{fill:#E75756;}
	.st153{fill:#EB7472;}
	.st154{fill:#EE8C8A;}
	.st155{fill:#F5A3A2;}
	.st156{fill:#E14A49;}
	.st157{fill:#E14D4C;}
	.st158{fill:#E14B49;}
	.st159{fill:#DE3E3D;}
	.st160{fill:#E45350;}
	.st161{fill:#E14544;}
	.st162{fill:#E54E4B;}
	.st163{fill:#E34240;}
	.st164{fill:#E75C5A;}
	.st165{fill:#EB7C7B;}
	.st166{fill:#F3A2A1;}
	.st167{fill:#EA7877;}
	.st168{fill:#E66B6A;}
	.st169{fill:#E96A69;}
	.st170{fill:#E56160;}
	.st171{fill:#E44845;}
	.st172{fill:#EC7473;}
	.st173{fill:#F9C0D3;}
	.st174{fill:#F298B5;}
	.st175{fill:#EE89A7;}
	.st176{fill:#E54D73;}
	.st177{fill:#E44771;}
	.st178{fill:#E7567E;}
	.st179{fill:#EC7797;}
	.st180{fill:#F8BCCF;}
	.st181{fill:#EB6D8F;}
	.st182{fill:#F089A8;}
	.st183{fill:#FCE2EB;}
	.st184{fill:#E55B7F;}
	.st185{fill:#E6708E;}
	.st186{fill:#EB87A2;}
	.st187{fill:#E25677;}
	.st188{fill:#E7678B;}
	.st189{fill:#FBD7E3;}
	.st190{fill:#ED80A1;}
	.st191{fill:#E24166;}
	.st192{fill:#E13B65;}
	.st193{fill:#E34870;}
	.st194{fill:#E76486;}
	.st195{fill:#F49DB8;}
	.st196{fill:#F7BFD1;}
	.st197{fill:#E65C7F;}
	.st198{fill:#F6ABC4;}
	.st199{fill:#F6A7C2;}
	.st200{fill:#EA6189;}
	.st201{fill:#DB3258;}
	.st202{fill:#DA2E55;}
	.st203{fill:#F7B2C9;}
	.st204{fill:#EA6A8D;}
	.st205{fill:#DC355B;}
	.st206{fill:#DB3159;}
	.st207{fill:#DF3C63;}
	.st208{fill:#F9C5D6;}
	.st209{fill:#EB7697;}
	.st210{fill:#DE3B61;}
	.st211{fill:#DE375F;}
	.st212{fill:#E1426A;}
	.st213{fill:#FDE7EE;}
	.st214{fill:#EE89A9;}
	.st215{fill:#E2456B;}
	.st216{fill:#E14069;}
	.st217{fill:#E44D75;}
	.st218{fill:#E86B8C;}
	.st219{fill:#EE7A9C;}
	.st220{fill:#F5A8C0;}
	.st221{fill:#FACBDA;}
	.st222{fill:#E65A7D;}
	.st223{fill:#E04169;}
	.st224{fill:#FEF5F9;}
	.st225{fill:#F191B0;}
	.st226{fill:#EA7292;}
	.st227{fill:#F6B4C9;}
	.st228{fill:#FBD8E5;}
	.st229{fill:#E96C8F;}
	.st230{fill:#E35477;}
	.st231{fill:#EA7396;}
	.st232{fill:#EB7A9D;}
	.st233{fill:#E8698D;}
	.st234{fill:#EB7094;}
	.st235{fill:#E04B6E;}
	.st236{fill:#E66085;}
	.st237{fill:#EB7294;}
	.st238{fill:#E7678C;}
	.st239{fill:#EA6D91;}
	.st240{fill:#E14C71;}
	.st241{fill:#EE7A9D;}
	.st242{fill:#F393B2;}
	.st243{fill:#DC3F64;}
	.st244{fill:#EF82A3;}
	.st245{fill:#F39DB9;}
	.st246{fill:#DF466B;}
	.st247{fill:#DF4469;}
	.st248{fill:#F29A98;}
	.st249{fill:#E64F4D;}
	.st250{fill:#E74947;}
	.st251{fill:#E85956;}
	.st252{fill:#EC7775;}
	.st253{fill:#F8BCBA;}
	.st254{fill:#EC6F6D;}
	.st255{fill:#FCE2E2;}
	.st256{fill:#F8C8C6;}
	.st257{fill:#F08B89;}
	.st258{fill:#F18A89;}
	.st259{fill:#B093A4;}
	.st260{fill:#A38295;}
	.st261{fill:#6F455A;}
	.st262{fill:#694055;}
	.st263{fill:#794F64;}
	.st264{fill:#936F83;}
	.st265{fill:#CDB7C1;}
	.st266{fill:#B596A5;}
	.st267{fill:#A58394;}
	.st268{fill:#8C667A;}
	.st269{fill:#B696A7;}
	.st270{fill:#E8E0E7;}
	.st271{fill:#E1BCC2;}
	.st272{fill:#A9666E;}
	.st273{fill:#681C23;}
	.st274{fill:#641920;}
	.st275{fill:#73242D;}
	.st276{fill:#8D3F48;}
	.st277{fill:#C69197;}
	.st278{fill:#893841;}
	.st279{fill:#E3CCCE;}
	.st280{fill:#6F292E;}
	.st281{fill:#A15A63;}
	.st282{fill:#944952;}
	.st283{fill:#944953;}
	.st284{fill:#964A53;}
	.st285{fill:#984B54;}
	.st286{fill:#974A53;}
	.st287{fill:#A25A62;}
	.st288{fill:#D2BCC8;}
	.st289{fill:#C8B2BE;}
	.st290{fill:#936A80;}
	.st291{fill:#8E667B;}
	.st292{fill:#9B7589;}
	.st293{fill:#B293A3;}
	.st294{fill:#916B7F;}
	.st295{fill:#DDCCD6;}
	.st296{fill:#AC8B9C;}
	.st297{fill:#F1EBEF;}
	.st298{fill:#9C7A8C;}
	.st299{fill:#8F6C80;}
	.st300{fill:#B99DAC;}
	.st301{fill:#A27F91;}
	.st302{fill:#C2A7B6;}
	.st303{fill:#AB8E9F;}
	.st304{fill:#936D82;}
	.st305{fill:#856174;}
	.st306{fill:#B99DAB;}
	.st307{fill:#C2A9B6;}
	.st308{fill:#A38091;}
	.st309{fill:#BBA3B0;}
	.st310{fill:#7A5468;}
	.st311{fill:#855F73;}
	.st312{fill:#AE8E9F;}
	.st313{fill:#7C556A;}
	.st314{fill:#7B5066;}
	.st315{fill:#855C71;}
	.st316{fill:#AF8E9F;}
	.st317{fill:#734B60;}
	.st318{fill:#694256;}
	.st319{fill:#916A80;}
	.st320{fill:#886378;}
	.st321{fill:#875C71;}
	.st322{fill:#714B5E;}
	.st323{fill:#582F42;}
	.st324{fill:#795066;}
	.st325{fill:#5E3A4B;}
	.st326{fill:#8A6578;}
	.st327{fill:#A98E9D;}
	.st328{fill:#B9A1B1;}
	.st329{fill:#B08F9F;}
	.st330{fill:#B898AA;}
	.st331{fill:#896578;}
	.st332{fill:#653C50;}
	.st333{fill:#623A4E;}
	.st334{fill:#6C4257;}
	.st335{fill:#B28FA1;}
	.st336{fill:#80596E;}
	.st337{fill:#7F586C;}
	.st338{fill:#765063;}
	.st339{fill:#683F53;}
	.st340{fill:#774E63;}
	.st341{fill:#704B5F;}
	.st342{fill:#674355;}
	.st343{fill:#7F5A6E;}
	.st344{fill:#815A6E;}
	.st345{fill:#6A4558;}
	.st346{fill:#5D374A;}
	.st347{fill:#926D80;}
	.st348{fill:#70475B;}
	.st349{fill:#72495E;}
	.st350{fill:#673D52;}
	.st351{fill:#673D51;}
	.st352{fill:#60364B;}
	.st353{fill:#795265;}
	.st354{fill:#683F52;}
	.st355{fill:#7A5368;}
	.st356{fill:#987387;}
	.st357{fill:#70475C;}
	.st358{fill:#A07D92;}
	.st359{fill:#81596E;}
	.st360{fill:#926C7F;}
	.st361{fill:#80596D;}
	.st362{fill:#CDC0E4;}
	.st363{fill:#A998CF;}
	.st364{fill:#644DA1;}
	.st365{fill:#5E479E;}
	.st366{fill:#6F56A9;}
	.st367{fill:#755CAC;}
	.st368{fill:#8975BA;}
	.st369{fill:#C4BAE0;}
	.st370{fill:#755DAD;}
	.st371{fill:#846DB7;}
	.st372{fill:#E7E2F2;}
	.st373{fill:#9B89C5;}
	.st374{fill:#8871B8;}
	.st375{fill:#9C89C6;}
	.st376{fill:#8673B9;}
	.st377{fill:#B9E1BA;}
	.st378{fill:#ADDBAE;}
	.st379{fill:#99D09A;}
	.st380{fill:#65B567;}
	.st381{fill:#5FB261;}
	.st382{fill:#70BB71;}
	.st383{fill:#8DCB8E;}
	.st384{fill:#CBE9CB;}
	.st385{fill:#86C687;}
	.st386{fill:#98D099;}
	.st387{fill:#EBF5EB;}
	.st388{fill:#B9D6C9;}
	.st389{fill:#8EBD9E;}
	.st390{fill:#7DB18E;}
	.st391{fill:#408251;}
	.st392{fill:#3A7F4C;}
	.st393{fill:#4A8C5B;}
	.st394{fill:#68A279;}
	.st395{fill:#B5D4BE;}
	.st396{fill:#7CB38B;}
	.st397{fill:#619D71;}
	.st398{fill:#E0ECE4;}
	.st399{fill:#74A38C;}
	.st400{fill:#679880;}
	.st401{fill:#669780;}
	.st402{fill:#669881;}
	.st403{fill:#285E41;}
	.st404{fill:#235A3C;}
	.st405{fill:#31684A;}
	.st406{fill:#4D8268;}
	.st407{fill:#A1C2B0;}
	.st408{fill:#679981;}
	.st409{fill:#467B62;}
	.st410{fill:#D6E5DF;}
	.st411{fill:#8ECA8F;}
	.st412{fill:#7DC07F;}
	.st413{fill:#409841;}
	.st414{fill:#3A933C;}
	.st415{fill:#4AA14B;}
	.st416{fill:#68B569;}
	.st417{fill:#7CC07D;}
	.st418{fill:#B5DDB5;}
	.st419{fill:#61B062;}
	.st420{fill:#7CC17E;}
	.st421{fill:#E0EFE0;}
	.st422{fill:#EBF5DE;}
	.st423{fill:#D4EAB8;}
	.st424{fill:#D2E9B4;}
	.st425{fill:#D8ECBE;}
	.st426{fill:#E2F0CE;}
	.st427{fill:#F3F9EA;}
	.st428{fill:#DFF0CA;}
	.st429{fill:#FAFDF7;}
	.st430{fill:#D3C9BE;}
	.st431{fill:#CBBEB3;}
	.st432{fill:#BBAC9F;}
	.st433{fill:#97826F;}
	.st434{fill:#947E69;}
	.st435{fill:#9F8A79;}
	.st436{fill:#B5A495;}
	.st437{fill:#DED6CE;}
	.st438{fill:#BBAD9F;}
	.st439{fill:#AE9E8D;}
	.st440{fill:#F2EFEC;}
	.st441{fill:#B1A091;}
	.st442{fill:#B1A090;}
	.st443{fill:#D8BACF;}
	.st444{fill:#976286;}
	.st445{fill:#905778;}
	.st446{fill:#4F1939;}
	.st447{fill:#4C1637;}
	.st448{fill:#5A2144;}
	.st449{fill:#773B60;}
	.st450{fill:#B88FAD;}
	.st451{fill:#6E345A;}
	.st452{fill:#8E567D;}
	.st453{fill:#E1CCDA;}
	.st454{fill:#C4E2A7;}
	.st455{fill:#93C35F;}
	.st456{fill:#8EC15A;}
	.st457{fill:#9AC868;}
	.st458{fill:#B0D587;}
	.st459{fill:#DCEBC3;}
	.st460{fill:#C8E0AA;}
	.st461{fill:#ABD280;}
	.st462{fill:#CAE2A9;}
	.st463{fill:#EFF8E7;}
	.st464{fill:#FFF6C0;}
	.st465{fill:#FFEC97;}
	.st466{fill:#FFDC4B;}
	.st467{fill:#FFD945;}
	.st468{fill:#FFDD54;}
	.st469{fill:#FFE774;}
	.st470{fill:#FFF4BA;}
	.st471{fill:#FFE46C;}
	.st472{fill:#FFF9E2;}
	.st473{fill:#FDE2C1;}
	.st474{fill:#F9CA98;}
	.st475{fill:#F9C18A;}
	.st476{fill:#F5994E;}
	.st477{fill:#F49448;}
	.st478{fill:#F8A158;}
	.st479{fill:#F8B577;}
	.st480{fill:#FCDDBC;}
	.st481{fill:#F8B06F;}
	.st482{fill:#FFEFE2;}
	.st483{fill:#F8A7A4;}
	.st484{fill:#EF8262;}
	.st485{fill:#EC605A;}
	.st486{fill:#EB5B55;}
	.st487{fill:#EC6964;}
	.st488{fill:#F28783;}
	.st489{fill:#F9C4C1;}
	.st490{fill:#F2817A;}
	.st491{fill:#EB6449;}
	.st492{fill:#FCE7E7;}
	.st493{fill:#FFEA88;}
	.st494{fill:#FFEB87;}
	.st495{fill:#FDF2E3;}
	.st496{fill:#FDEFDD;}
	.st497{fill:#F9E1C4;}
	.st498{fill:#FADEB9;}
	.st499{fill:#FADDB7;}
	.st500{fill:#FAE0BF;}
	.st501{fill:#FBE9CF;}
	.st502{fill:#F9DAB8;}
	.st503{fill:#FDF5EB;}
	.st504{fill:#FBE6CB;}
	.st505{fill:#FFFBF7;}
	.st506{fill:#FBDFBE;}
	.st507{fill:#F7D8B5;}
	.st508{fill:#FBE8CF;}
	.st509{fill:#FBE3C8;}
	.st510{fill:#F9E8CF;}
	.st511{fill:#F8DBB7;}
	.st512{fill:#FADBB5;}
	.st513{fill:#F7D5AE;}
	.st514{fill:#FDE9D5;}
	.st515{fill:#FAE3C8;}
	.st516{fill:#F7D1A4;}
	.st517{fill:#F5CD9D;}
	.st518{fill:#F7D8B0;}
	.st519{fill:#F8D4A9;}
	.st520{fill:#F8D3A6;}
	.st521{fill:#F8D8AF;}
	.st522{fill:#F7CD9E;}
	.st523{fill:#F4C896;}
	.st524{fill:#FBE3C5;}
	.st525{fill:#F7DBB8;}
	.st526{fill:#F7D8B1;}
	.st527{fill:#F7D7B0;}
	.st528{fill:#F8CD9F;}
	.st529{fill:#F8CD9E;}
	.st530{fill:#F1BE84;}
	.st531{fill:#F8D0A3;}
	.st532{fill:#F1C38D;}
	.st533{fill:#F8D8B1;}
	.st534{fill:#FBE2C8;}
	.st535{fill:#F9EAD3;}
	.st536{fill:#F9D3AA;}
	.st537{fill:#F7C896;}
	.st538{fill:#F7C794;}
	.st539{fill:#F7CA9A;}
	.st540{fill:#F7D3AB;}
	.st541{fill:#F8D8B5;}
	.st542{fill:#F9E6CF;}
	.st543{fill:#F7C897;}
	.st544{fill:#F8D3AA;}
	.st545{fill:#F7CEA2;}
	.st546{fill:#F4CD9E;}
	.st547{fill:#F5D2A5;}
	.st548{fill:#FBE2C2;}
	.st549{fill:#F5D1A8;}
	.st550{fill:#F8D5AB;}
	.st551{fill:#F2C695;}
	.st552{fill:#F8D3A8;}
	.st553{fill:#F5C998;}
	.st554{fill:#F5C894;}
	.st555{fill:#F2C997;}
	.st556{fill:#F2C48D;}
	.st557{fill:#F4C694;}
	.st558{fill:#F5CE9D;}
	.st559{fill:#F4C594;}
	.st560{fill:#F5C995;}
	.st561{fill:#F4C48F;}
	.st562{fill:#F7D2A6;}
	.st563{fill:#F8DFBB;}
	.st564{fill:#FBE2C3;}
	.st565{fill:#F8CC9E;}
	.st566{fill:#FADFC1;}
	.st567{fill:#F9D8B5;}
	.st568{fill:#F4C997;}
	.st569{fill:#F9DDB8;}
	.st570{fill:#FDFCED;}
	.st571{fill:#FBF7D2;}
	.st572{fill:#F9F6CB;}
	.st573{fill:#F4EBA8;}
	.st574{fill:#F5E9A6;}
	.st575{fill:#F5EDAC;}
	.st576{fill:#F7F5C0;}
	.st577{fill:#FBFBE1;}
	.st578{fill:#F7F0BE;}
	.st579{fill:#FAF6CE;}
	.st580{fill:#FFFBF5;}
	.st581{fill:#BDDB97;}
	.st582{fill:#BBDC99;}
	.st583{fill:#BDDD99;}
	.st584{fill:#B0D484;}
	.st585{fill:#AFD484;}
	.st586{fill:#FFEA87;}
	.st587{fill:#D3E9BA;}
	.st588{fill:#E1EECE;}
	.st589{fill:#D3E8BB;}
	.st590{fill:#E3EECE;}
	.st591{opacity:0.9;}
	.st592{fill:#FFF8CD;}
	.st593{opacity:0.9;fill:#FFEE8A;}
	.st594{fill:#FFF19E;}
	.st595{fill:#FFF5B6;}
	.st596{fill:#FFFBE0;}
	.st597{fill:none;stroke:#FFF4B1;stroke-width:0;}
	.st598{fill:#FFFDF3;}
	.st599{fill:#FACEDD;}
	.st600{opacity:0.9;fill:#F38CAF;}
	.st601{fill:#F5A0BD;}
	.st602{fill:#F8B8CD;}
	.st603{fill:#FCE1EA;}
	.st604{fill:none;stroke:#F7B2C9;stroke-width:0;}
	.st605{fill:#FEF3F7;}
	.st606{fill:#FBDBB6;}
	.st607{fill:#FBD1A3;}
	.st608{fill:#F9B674;}
	.st609{fill:#F8B36E;}
	.st610{fill:#FABB7E;}
	.st611{fill:#FACB99;}
	.st612{fill:#FDE9D1;}
	.st613{fill:#FAC893;}
	.st614{fill:#F9D0A1;}
	.st615{fill:#FFF5EC;}
	.st616{fill:#D7ECC0;}
	.st617{fill:#B1D684;}
	.st618{fill:#ADD680;}
	.st619{fill:#B7D98D;}
	.st620{fill:#C8E2A7;}
	.st621{fill:#E8F2D6;}
	.st622{fill:#C3E0A0;}
	.st623{fill:#F5FAEF;}
	.st624{fill:#A87699;}
	.st625{fill:#A9716E;}
	.st626{fill:#9F698A;}
	.st627{fill:#9F698D;}
	.st628{fill:#65294F;}
	.st629{fill:#632638;}
	.st630{fill:#62244A;}
	.st631{fill:#612335;}
	.st632{fill:#6E3259;}
	.st633{fill:#6D2F40;}
	.st634{fill:#8B4E74;}
	.st635{fill:#C4A1BB;}
	.st636{fill:#9D688D;}
	.st637{fill:#82476E;}
	.st638{fill:#E7D6E1;}
	.st639{fill:#FFF9D6;}
	.st640{fill:#FFF2A6;}
	.st641{fill:#FFF4B0;}
	.st642{fill:#FFF7C4;}
	.st643{fill:#FFFCE6;}
	.st644{fill:#FFF3B5;}
	.st645{fill:#FFED8B;}
	.st646{fill:#FFED94;}
	.st647{fill:#FFF1A4;}
	.st648{fill:#FFF5BF;}
	.st649{fill:#FFF6CD;}
	.st650{fill:#FFE46E;}
	.st651{fill:#FFED98;}
	.st652{fill:#FFF3A9;}
	.st653{fill:#FFEC8D;}
	.st654{fill:#FFE66B;}
	.st655{fill:#FFEC8A;}
	.st656{fill:#FFE66D;}
	.st657{fill:#FFE571;}
	.st658{fill:#FFEF94;}
	.st659{fill:#FFEF9E;}
	.st660{fill:#FFED93;}
	.st661{fill:#FFE873;}
	.st662{fill:#FFE97A;}
	.st663{fill:#FFEC87;}
	.st664{fill:#FFF19F;}
	.st665{fill:#FFF1A8;}
	.st666{fill:#FFEA7E;}
	.st667{fill:#FFEB86;}
	.st668{fill:#FFEF97;}
	.st669{fill:#FFF2B0;}
	.st670{fill:#FFF4BC;}
	.st671{fill:#FFF5C1;}
	.st672{fill:#FFF8CF;}
	.st673{fill:#FFF8DC;}
	.st674{fill:#FFF0A0;}
	.st675{fill:#FFEE92;}
	.st676{fill:#FFF6CE;}
	.st677{fill:#FFFADD;}
	.st678{fill:#FFFBEC;}
	.st679{fill:#FFFDF5;}
	.st680{fill:#F49C52;}
	.st681{fill:#F69D52;}
	.st682{fill:#F8A55E;}
	.st683{fill:#F8B472;}
	.st684{fill:#F59D54;}
	.st685{fill:#F8A65F;}
	.st686{fill:#F8B474;}
	.st687{fill:#FDF3E9;}
	.st688{fill:#FAE8D1;}
	.st689{fill:#FAE8CF;}
	.st690{fill:#FAEBD4;}
	.st691{fill:#F9EDD7;}
	.st692{fill:#FBEFDE;}
	.st693{fill:#FBEFDD;}
	.st694{fill:#FDF8F1;}
	.st695{fill:#FBEDD7;}
	.st696{fill:#FBEFDC;}
	.st697{fill:#FFFBFA;}
	.st698{fill:#FFE771;}
	.st699{fill:#FFEB83;}
	.st700{fill:#FFED90;}
	.st701{fill:#F7B6CB;}
	.st702{fill:#F4A2BB;}
	.st703{fill:#EE7397;}
	.st704{fill:#ED6D94;}
	.st705{fill:#EF7C9F;}
	.st706{fill:#F399B5;}
	.st707{fill:#FAD1DE;}
	.st708{fill:#F291AE;}
	.st709{fill:#F3A1BB;}
	.st710{fill:#FDECF2;}
</style>
<g>
	<path class="st259" d="M86.09,74.96L86.09,74.96l0.02,0.02l0,0L86.09,74.96 M74.39,60.87C74.39,60.87,74.39,60.87,74.39,60.87
		C74.39,60.87,74.39,60.87,74.39,60.87L74.39,60.87C74.39,60.87,74.39,60.87,74.39,60.87L74.39,60.87L74.39,60.87L74.39,60.87
		L74.39,60.87C74.39,60.87,74.39,60.87,74.39,60.87 M74.39,60.86C74.39,60.86,74.39,60.86,74.39,60.86
		C74.39,60.86,74.39,60.86,74.39,60.86L74.39,60.86C74.39,60.86,74.39,60.86,74.39,60.86L74.39,60.86L74.39,60.86L74.39,60.86
		L74.39,60.86 M45.3,42.68c-1.29,0-2.62,0.27-3.85,0.95c-2.66,1.1-5.62,3.02-8.3,5.49c-2.68,2.44-5.06,5.56-6.6,8.56
		c-1.93,2.83-4,6.3-5.78,11.16c-0.53,1.45-1.02,3.07-1.43,4.78c-0.07,0.58-0.12,1.17-0.16,1.77c-0.06,0.85-0.09,1.68-0.09,2.5
		c0,2.25,0.22,4.35,0.57,6.24c0.48,2.59,1.22,4.82,2.06,6.73c0.78,1.89,1.52,3.17,2.15,4.13c0.63,0.97,1.17,1.63,1.61,2.2
		c0.88,1.11,1.35,1.82,1.61,3.04c0.17,0.47,1.59,0.97,3.65,1.84c2,0.86,4.51,2.08,7.13,3.98c0-0.12,0.02-1.01,0.06-2.71
		c-0.57-0.39-1.42-1.01-2.43-1.88c-0.93-0.82-2.01-1.84-3.09-3.12c-1.09-1.24-2.21-2.8-3.25-4.86c-1.02-2.05-1.96-4.6-2.42-7.73
		c-0.18-1.24-0.29-2.56-0.29-3.95l0,0c0-0.35,0.01-0.71,0.02-1.08c0.07-1.77,0.33-3.68,0.78-5.46c0.89-3.54,2.34-6.32,3.93-8.35
		c1.6-2.04,3.33-3.24,5.22-4.13c0,0,0.51-0.44,1.4-1.14c0.88-0.72,2.18-1.59,3.71-2.51c3.08-1.83,7.1-3.32,10.69-3.82
		c1.19-0.17,2.33-0.26,3.4-0.26c2.19,0,4.09,0.35,5.48,0.99c1.62,0.75,2.57,1.86,2.57,3.39l0,0c0,0.44-0.08,0.91-0.24,1.42
		c0,0-0.18,0.55-0.51,1.57c-0.33,1.01-0.8,2.48-1.3,4.27c-0.49,1.81-1,3.94-1.29,6.22c-0.13,1.05-0.21,2.14-0.21,3.22
		c0,1.26,0.11,2.52,0.35,3.71c0.13,0.56,0.26,1.1,0.42,1.61c0.17,0.51,0.39,0.97,0.67,1.34c0.24,0.32,0.51,0.58,0.82,0.76
		c0.39,0.04,0.86,0.07,1.42,0.07c0.11,0,0.22,0,0.33,0l0.76-0.03l0.41-0.03l0,0c-0.34-1-0.53-1.89-0.53-2.47l0,0
		c0-0.07,0-0.14,0.01-0.21c0.01-0.05,0.02-0.1,0.04-0.14c-0.14-0.25-0.26-0.49-0.37-0.73c-0.14-0.27-0.19-0.51-0.26-0.68
		c-0.02-0.18-0.04-0.32-0.04-0.45l0,0c0-0.01,0-0.03,0-0.04c0-0.01,0-0.02,0.01-0.02c-0.11-0.23-0.19-0.45-0.25-0.67
		c-0.05-0.21-0.08-0.46-0.08-0.74l0,0c0-0.12,0.01-0.24,0.02-0.37c0-0.16,0.02-0.35,0.16-0.52c-0.52-0.62-0.84-1.26-0.96-1.88
		c-0.04-0.2-0.06-0.4-0.06-0.6l0,0c0-0.24,0.03-0.47,0.08-0.7c0.06-0.17,0.26-0.4,0.69-0.4c0.07,0,0.14,0.01,0.22,0.02l0,0l0,0l0,0
		l0,0c-0.01,0-0.01,0-0.01,0.01c0,0,0.01,0,0.02,0c0.05,0,0.23-0.02,0.44-0.05c0.21-0.02,0.45-0.05,0.62-0.05c0.01,0,0.01,0,0.02,0
		c0.07,0,0.14,0,0.21,0c0.35,0,0.68,0.02,0.94,0.06c0.66,0.09,1.08,0.22,1.38,0.33c0.3,0.12,0.36,0.2,0.5,0.29l0.37,0.27
		c2.77,2.16,4.37,4.98,5.52,7.8c0.67,0.23,1.36,0.47,2.09,0.71c0.45,0.15,0.89,0.35,1.31,0.57c-0.15-0.89-0.32-1.86-0.52-2.9
		l-0.63-3.24l-0.39-1.92l-0.15-0.72c0-0.01,0-0.01-0.01-0.02l-0.01-0.04l0.01,0.06c0.06,0.18,0.27,0.31,0.43,0.46
		c0.05-0.06,0.13-0.08,0.23-0.08c0.38,0,1.12,0.32,1.93,0.6c1.02,0.37,2.1,0.66,2.1,0.66c1.06,0.63,2.05,0.88,2.91,0.88l0,0
		c0.42,0,0.81-0.06,1.16-0.16l0,0c0.54-0.15,0.98-0.42,1.34-0.73c0.15-0.15,0.37-0.36,0.43-0.47l0.04-0.13l0-0.04l-0.02-0.02
		l0.02,0.01l0,0.01l0.58,0.56l0,0c3.32,3.15,5.66,5.06,7.56,6.49c0.04,0.03,0.08,0.06,0.11,0.08l0,0c0.44,0.34,0.97,0.69,1.34,0.96
		l0,0c0.39,0.28,0.78,0.54,1.16,0.77c0.01,0.01,0.02,0.01,0.03,0.02c0.33,0.22,0.63,0.41,0.93,0.59l0,0
		c0.13,0.07,0.25,0.15,0.37,0.22c-0.08-0.45-0.19-0.99-0.31-1.59c-0.18-0.94-0.37-1.96-0.54-2.97c-0.17-1.01-0.33-2.04-0.47-3.03
		c-0.03-0.23-0.08-0.52-0.08-0.69l0,0c0,0,0-0.01,0-0.01c-0.01-0.19-0.01-0.37-0.02-0.55c-0.01-0.38-0.02-0.75-0.03-1.11
		c0-0.25-0.01-0.5-0.01-0.74l0,0c0-1.18,0.06-2.27,0.28-3.11c0,0,0.91-1.55,1.4-3.83c0.03-0.16,0.07-0.32,0.1-0.48
		c-0.62-0.94-1.28-1.83-2.04-2.66c-0.41-0.7-0.88-1.35-1.39-1.94c-0.14-0.16-0.28-0.31-0.42-0.46c-1.02-0.48-2.08-1.01-3.1-1.6
		c-1.13-0.64-2.17-1.36-3.18-2.11c-0.47-0.39-0.93-0.78-1.38-1.15l-0.17-0.14c0,0,0,0,0,0c-0.04,0-0.17-0.28-0.33-0.57
		c-0.36-0.64-0.82-1.57-1.9-2.92c-0.53-0.66-1.3-1.48-2.34-2.27c-1.02-0.79-2.44-1.6-4.01-2.08c-1.22-0.39-2.58-0.58-3.8-0.58
		c-0.3,0-0.6,0.01-0.88,0.03c-1.4,0.1-2.49,0.42-3.23,0.68c-1.52,0.58-1.92,0.92-1.94,0.96c-0.13,0.12-0.25,0.23-0.37,0.35
		c-0.25,0.22-0.48,0.44-0.71,0.64c-0.46,0.41-0.89,0.77-1.27,1.08c-0.77,0.61-1.39,1.01-1.76,1.08c-0.24,0.02-0.5,0.03-0.76,0.03
		c-1.81,0-4.07-0.49-4.24-1.68c-1.29-3.52-5.23-3.17-8.14-4.93c-0.65-0.56-0.36-1.9-1.01-2.47C48.97,43.26,47.17,42.68,45.3,42.68"
		/>
	<path class="st260" d="M86.22,75.1l0.02,0.02l0,0.04l0-0.04L86.22,75.1 M75.65,74.14l0.15,0.72l0.39,1.92l0.63,3.24
		c0.19,1.04,0.37,2.01,0.52,2.9l0,0c-0.15-0.89-0.32-1.86-0.52-2.9l-0.63-3.24l-0.39-1.92L75.65,74.14L75.65,74.14 M75.64,74.08
		l0.01,0.04c0,0.01,0,0.01,0.01,0.02l0,0c0,0,0,0,0,0c0-0.01,0-0.01,0-0.02L75.64,74.08"/>
	<path class="st259" d="M75.64,74.08l0.01,0.04c0,0.01,0,0.01,0.01,0.02L75.64,74.08"/>
	<path class="st259" d="M75.65,74.14l0.15,0.72l0.39,1.92l0.63,3.24c0.19,1.04,0.37,2.01,0.52,2.9c1.1,0.58,2.13,1.36,3.18,2.09
		c0.08-0.05,0.18-0.1,0.27-0.16c0.17-0.09,0.34-0.22,0.51-0.3l0.1-0.08l0.03-0.05l0.01-0.01c0.07-0.2,0.14-0.4,0.21-0.61l0.51-1.45
		l0.58-1.56l0.21-0.55l-0.04,0.11l0,0l-0.01,0.01l0.01-0.02l0,0l0.01-0.02l0.05-0.12c0.01-0.02,0.02-0.04,0.02-0.06l0.07-0.19
		l0.16-0.41l0.02-0.06l0.02-0.06l0-0.01c0.02-0.06,0.04-0.11,0.05-0.14l0.03-0.08h0l0,0l0,0l0,0l0,0l0,0l0,0l0,0l0,0
		c0,0-0.01,0.02-0.03,0.08l-0.06,0.14l-0.01,0.02l-0.02,0.04l-0.25,0.64c0.11-0.27,0.23-0.52,0.34-0.73
		c0.25-0.48,0.44-0.76,0.52-0.89c0,0,0.05-0.08,0.14-0.19l0.12-0.16l-0.16,0.18c-0.12,0.12-0.23,0.19-0.27,0.19l-0.01-0.01l0,0l0,0
		l0,0l0,0l0,0c0-0.02,0.04-0.07,0.14-0.16l0,0l0.01-0.01l0,0l0,0c-0.01,0-0.09,0.04-0.47,0.28l0,0c-0.01,0-0.02,0.01-0.03,0.02
		c-0.57,0.33-1.84,1.1-4.88,1.84l0,0l0,0l0,0l0,0c3.04-0.74,4.31-1.51,4.88-1.84c0.01-0.01,0.02-0.01,0.03-0.02l0,0
		c0.38-0.23,0.46-0.28,0.47-0.28l0,0l0,0l-0.01,0.01l0,0l0,0l0,0l0,0l0,0l0,0c-0.1,0.09-0.14,0.14-0.14,0.16l0.01,0.01
		c0.03,0,0.14-0.07,0.27-0.19l0.16-0.18l-0.12,0.16c-0.08,0.12-0.14,0.19-0.14,0.19c-0.08,0.12-0.28,0.4-0.52,0.89
		c-0.11,0.21-0.23,0.46-0.34,0.73l-0.04,0.1l-0.21,0.55l-0.58,1.56l-0.51,1.45c-0.07,0.21-0.14,0.41-0.21,0.61l0.01-0.01l-0.19,0.55
		c-0.05,0.15-0.1,0.31-0.15,0.46c0.28,0.19,0.57,0.37,0.86,0.54c1.5,0.94,3.29,1.67,5.09,2.19c0.82-0.04,1.62-0.14,2.38-0.33
		c1.54-0.39,2.84-1.1,3.44-2.05c0,0,0.34,0.08,0.87,0.12c0.23,0.02,0.5,0.04,0.8,0.04c0.37,0,0.78-0.02,1.19-0.09
		c0.91-0.1,1.71-0.34,2.01-0.69c0.01-0.09,0.02-0.16,0.01-0.23c0-0.01,0-0.01,0-0.02c0-0.31-0.08-0.43-0.11-0.46
		c0,0-0.01-0.01-0.01-0.01l0,0l0,0l0,0l0,0c0,0,0,0,0.01,0.01c0.14,0.15,0.21,0.28,0.21,0.41l0,0c0,0.1-0.04,0.2-0.12,0.29
		c-0.04,0.33-0.18,0.8-0.49,1.45c0.39-0.55,0.67-1.02,0.81-1.36c0.07-0.17,0.12-0.31,0.12-0.4l-0.01-0.1l-0.02-0.02l0.19,0.11
		c0,0,0,0,0,0c-0.12-0.07-0.25-0.14-0.37-0.22l0,0c-0.31-0.18-0.6-0.37-0.93-0.59c-0.01-0.01-0.02-0.01-0.03-0.02
		c-0.38-0.24-0.77-0.5-1.16-0.77l0,0c-0.36-0.27-0.9-0.62-1.34-0.96l0,0c-0.04-0.03-0.08-0.06-0.11-0.08
		c-1.9-1.42-4.25-3.34-7.56-6.49l0,0l-0.58-0.56l0,0.04L86.2,75.3c-0.07,0.11-0.28,0.32-0.43,0.47c-0.36,0.31-0.8,0.57-1.34,0.73
		l0,0c-0.35,0.1-0.74,0.16-1.16,0.16l0,0c-0.86,0-1.85-0.25-2.91-0.88c0,0-1.09-0.29-2.1-0.66c-0.81-0.28-1.54-0.6-1.93-0.6
		c-0.11,0-0.19,0.02-0.23,0.08C75.92,74.45,75.71,74.32,75.65,74.14"/>
	<path class="st260" d="M97.97,84.59L97.97,84.59c0.13,0.07,0.25,0.15,0.37,0.22l0,0l0,0C98.22,84.74,98.09,84.66,97.97,84.59
		L97.97,84.59 M95.84,83.21L95.84,83.21c0.39,0.28,0.78,0.54,1.16,0.77c0.01,0.01,0.02,0.01,0.03,0.02
		c-0.01-0.01-0.02-0.01-0.03-0.02C96.62,83.74,96.23,83.48,95.84,83.21L95.84,83.21 M94.39,82.16c0.04,0.03,0.08,0.06,0.11,0.08l0,0
		l0,0C94.46,82.22,94.42,82.19,94.39,82.16 M82.89,80.36L82.89,80.36L82.89,80.36l-0.01,0.02L82.89,80.36L82.89,80.36 M82.94,80.24
		l-0.04,0.11L82.94,80.24 M82.94,80.24L82.94,80.24l-0.21,0.55l-0.58,1.56l-0.51,1.45l0,0c-0.07,0.21-0.14,0.41-0.21,0.61l0,0
		c0.07-0.2,0.14-0.4,0.21-0.61l0.51-1.45l0.58-1.56L82.94,80.24 M82.98,80.14L82.98,80.14l-0.04,0.1L82.98,80.14 M83.23,79.49
		L83.23,79.49l-0.25,0.64l0,0L83.23,79.49 M83.25,79.43L83.25,79.43l-0.01,0.02l-0.02,0.04l0.02-0.04L83.25,79.43 M83.31,79.28
		L83.31,79.28l-0.06,0.14L83.31,79.28 M83.34,79.21L83.34,79.21c0,0-0.01,0.02-0.03,0.08l0,0C83.33,79.23,83.34,79.21,83.34,79.21
		 M83.33,78.64L83.33,78.64c-0.01,0-0.02,0.01-0.03,0.02C83.31,78.65,83.32,78.64,83.33,78.64L83.33,78.64 M83.8,78.38
		c-0.1,0.09-0.14,0.14-0.14,0.16l0,0C83.66,78.52,83.7,78.47,83.8,78.38L83.8,78.38 M83.8,78.37L83.8,78.37L83.8,78.37L83.8,78.37
		L83.8,78.37 M83.8,78.36l-0.01,0.01L83.8,78.36 M83.8,78.36L83.8,78.36L83.8,78.36L83.8,78.36L83.8,78.36 M84.09,78.17l-0.16,0.18
		c-0.12,0.12-0.23,0.19-0.27,0.19l-0.01-0.01l0,0l0.01,0.01c0.03,0,0.14-0.07,0.27-0.19L84.09,78.17 M84.09,78.17L84.09,78.17
		l-0.12,0.16c0,0-0.01,0.01-0.01,0.01c-0.08,0.11-0.13,0.18-0.13,0.18l0,0l0,0c-0.08,0.12-0.28,0.4-0.52,0.89l0,0l0,0
		c-0.11,0.21-0.23,0.46-0.34,0.73l0,0c0.11-0.27,0.23-0.52,0.34-0.73c0.25-0.48,0.44-0.76,0.52-0.89c0,0,0.05-0.08,0.14-0.19
		L84.09,78.17 M86.25,75.16L86.2,75.3c-0.07,0.11-0.28,0.32-0.43,0.47c-0.36,0.31-0.8,0.57-1.34,0.73l0,0l0,0
		c0.54-0.15,0.98-0.42,1.34-0.73c0.15-0.15,0.37-0.36,0.43-0.47L86.25,75.16 M86.24,75.12L86.24,75.12l0.58,0.56l0,0l0,0
		L86.24,75.12 M75.65,74.14L75.65,74.14c0.06,0.18,0.27,0.31,0.43,0.46c0.05-0.06,0.13-0.08,0.23-0.08c0.38,0,1.12,0.32,1.93,0.6
		c1.02,0.37,2.1,0.66,2.1,0.66c1.06,0.63,2.05,0.88,2.91,0.88l0,0l0,0l0,0c-0.84,0-1.8-0.23-2.84-0.83
		c-0.02-0.01-0.05-0.03-0.07-0.04c0,0,0,0,0,0c-0.03-0.01-1.1-0.3-2.1-0.66l0,0c-0.81-0.28-1.54-0.6-1.93-0.6
		c-0.11,0-0.19,0.02-0.23,0.08l0,0C75.92,74.45,75.71,74.32,75.65,74.14"/>
	<polyline class="st259" points="86.22,75.1 86.24,75.12 86.24,75.11 86.22,75.1 	"/>
	<path class="st259" d="M83.34,79.21L83.34,79.21l-0.03,0.08C83.33,79.23,83.34,79.21,83.34,79.21"/>
	<path class="st259" d="M83.31,79.28c-0.01,0.03-0.03,0.08-0.05,0.14l0,0.01L83.31,79.28"/>
	<polyline class="st259" points="83.25,79.43 83.23,79.49 83.24,79.45 83.25,79.43 	"/>
	<path class="st259" d="M83.23,79.49l-0.02,0.06l-0.16,0.41l-0.07,0.19c0-0.01,0.01-0.01,0.01-0.02L83.23,79.49"/>
	<path class="st259" d="M82.98,80.14c0,0.01-0.01,0.01-0.01,0.02l-0.03,0.08L82.98,80.14"/>
	<path class="st259" d="M82.97,80.16c-0.01,0.02-0.02,0.04-0.02,0.06l-0.05,0.12l-0.01,0.02l0,0l0.04-0.11L82.97,80.16"/>
	<polyline class="st259" points="82.89,80.36 82.88,80.37 82.89,80.36 82.89,80.36 	"/>
	<path class="st259" d="M72.19,81.02c0.24,0.45,0.47,1.16,0.59,1.83c0.08,0.42,0.11,0.82,0.11,1.16l0,0c0,0.38-0.05,0.67-0.13,0.79
		c0.53,0.21,1.09,0.43,1.65,0.66c0.21-0.21,0.28-0.52,0.28-0.86c0-0.46-0.12-0.98-0.18-1.42c-0.18-0.51-0.38-1.02-0.59-1.53
		C73.32,81.43,72.74,81.22,72.19,81.02"/>
	<path class="st259" d="M61.55,83.46c0.02,0,0.04,0.01,0.06,0.01L61.55,83.46"/>
	<path class="st259" d="M72.74,84.79c0,0.01,0.01,0.01,0.01,0.02l0,0c0,0,0.01-0.01,0.01-0.01C72.75,84.8,72.75,84.79,72.74,84.79"
		/>
	<path class="st259" d="M49.96,87.06c0.15,0.08,0.29,0.17,0.44,0.25c2.34,1.26,4.8,2.2,7.14,2.92c-1.99-0.79-4.19-1.78-6.59-3.08
		C50.95,87.15,50.58,87.1,49.96,87.06"/>
	<polyline class="st259" points="78.7,96.35 78.7,96.36 78.7,96.36 78.7,96.35 78.7,96.35 	"/>
	<polyline class="st259" points="78.7,96.36 78.7,96.36 78.7,96.36 78.7,96.36 	"/>
	<path class="st259" d="M78.7,96.36l0,0.03l0,0.09l0,0.02l0,0.01l0,0.04l0-0.07c0-0.02,0-0.05,0-0.07L78.7,96.36
		C78.7,96.36,78.7,96.36,78.7,96.36"/>
	<path class="st259" d="M78.7,96.43c0,0.02,0,0.04,0,0.05l0,0l0-0.01L78.7,96.43"/>
	<path class="st259" d="M37.45,98.53c0.08,0.96,0.26,1.99,0.54,3.08c0.03-0.67,0.07-1.4,0.14-2.21
		C37.91,99.12,37.68,98.83,37.45,98.53"/>
	<path class="st259" d="M51.39,106.59c4.46,2.61,9.19,4.24,13.79,4.94c1.74,0.27,3.46,0.4,5.14,0.4c0.13,0,0.26,0,0.39,0
		c-1.78-0.29-3.58-0.61-5.36-1.05c-3.92-0.92-7.82-2.16-11.73-3.5C52.89,107.12,52.14,106.86,51.39,106.59"/>
	<path class="st261" d="M103.04,46.74c0.02,0.05,0.05,0.1,0.07,0.14c0.43,0.2,0.82,0.36,1.13,0.39c0.93,0.06,1.94,0.57,2.9,1.14
		l0.12,0.1c3.17,2.62,5.32,5.87,6.98,9.23c1.65,3.35,2.85,6.94,3.69,10.52c0.57,1.65,1.1,3.12,1.62,4.51
		c0.03,0.08,0.06,0.16,0.09,0.23c0.08,0.09,0.15,0.17,0.23,0.26c-0.05-0.13-0.1-0.26-0.15-0.39c-0.52-1.39-1.05-2.86-1.61-4.51
		c-0.08-0.38-0.2-0.85-0.32-1.31c-0.13-0.46-0.25-0.91-0.38-1.37c-0.26-0.91-0.54-1.8-0.85-2.69c-0.61-1.78-1.32-3.52-2.16-5.22
		c-1.67-3.39-3.84-6.67-7.04-9.33l-0.03-0.02c-0.95-0.57-1.94-1.08-2.86-1.14C104.09,47.25,103.58,47.02,103.04,46.74"/>
	<path class="st261" d="M122.04,79.12c-0.04,0.01-0.07,0.03-0.11,0.04c0.27,0.85,0.54,1.78,0.76,2.82c0.27,1.29,0.49,2.78,0.49,4.44
		l0,0c0,1-0.08,2.05-0.27,3.15c-0.53,2.75-1.49,5.08-2.52,7.03c-1.04,1.96-2.18,3.59-3.36,5c-1.18,1.42-2.43,2.64-3.73,3.65
		c-1.29,1.03-2.74,1.92-4.36,2.65c-4.17,2.13-7.45,3.76-10.96,5.78c-1.77,1.03-3.62,2.09-5.66,3.28c-2.1,1.19-4.38,2.47-7.29,3.82
		c-1.57,0.68-4.22,1.7-8.21,1.96c-0.59,0.04-1.17,0.05-1.76,0.05c-3.3,0-6.58-0.53-9.48-1.23c-3.52-0.83-6.95-2.07-9.88-3.36
		c-2.93-1.29-5.41-2.58-7.14-3.35c-1.98-0.58-3.76-2.08-5.45-3.72c-1.68-1.67-3.25-3.5-5.03-4.92c-0.07-0.05-0.15-0.11-0.22-0.16
		c0,0.01,0,0.01,0,0.01c0,0,0,0,0,0c1.76,1.43,3.34,3.26,5.01,4.95c1.69,1.66,3.46,3.16,5.44,3.76c1.72,0.78,4.21,2.08,7.14,3.4
		c2.93,1.31,6.36,2.58,9.88,3.42c1.74,0.44,3.52,0.77,5.42,1.01c1.4,0.17,2.85,0.28,4.29,0.28c0.5,0,1.01-0.01,1.5-0.04
		c1.96-0.09,3.71-0.42,5.07-0.78c1.38-0.37,2.43-0.77,3.24-1.12c2.95-1.35,5.22-2.62,7.34-3.81c2.05-1.18,3.91-2.24,5.69-3.27
		c3.53-2.01,6.82-3.64,11-5.76c1.63-0.73,3.08-1.61,4.38-2.64c1.3-1,2.55-2.22,3.74-3.63c1.19-1.42,2.33-3.02,3.39-4.97
		c1.05-1.93,2.03-4.26,2.61-7c0.23-1.2,0.32-2.35,0.32-3.43c0-1.58-0.2-3.02-0.45-4.26C122.62,81.05,122.34,80.04,122.04,79.12"/>
	<path class="st262" d="M103.1,46.89c0.08,0.18,0.16,0.35,0.23,0.51l0.23,0.53l0.18,0.45l0.3,0.79l0.2,0.58l-0.02,0.04l-0.08,0.17
		c-0.11,0.22-0.23,0.45-0.37,0.68c0.28,0.24,0.57,0.5,0.89,0.8c1.08,1.03,2.33,2.46,3.52,4.27c1.2,1.8,2.34,3.97,3.4,6.33
		c0.31,0.69,0.61,1.4,0.9,2.13c0.15,0.29,0.3,0.58,0.46,0.88c0.18,0.33,0.37,0.67,0.56,1.02c0.02,0.12,0.4,0.51,0.63,0.79l0.8,0.9
		c1.66,1.81,3.28,3.6,4.71,5.24c-0.03-0.08-0.06-0.16-0.09-0.23c-0.52-1.39-1.05-2.87-1.62-4.51c-0.85-3.58-2.04-7.17-3.69-10.52
		c-1.66-3.36-3.82-6.61-6.98-9.23l-0.12-0.1c-0.96-0.57-1.96-1.09-2.9-1.14C103.92,47.24,103.53,47.09,103.1,46.89"/>
	<path class="st262" d="M94.8,61.65c0.14,0.15,0.28,0.3,0.42,0.46c0.52,0.59,0.99,1.24,1.39,1.94c0.75,0.83,1.42,1.73,2.04,2.66
		c0.11-0.64,0.18-1.33,0.18-2.04c0-0.45-0.03-0.91-0.09-1.37c-0.19-0.07-0.38-0.14-0.58-0.22C97.16,62.68,96,62.2,94.8,61.65"/>
	<path class="st262" d="M121.93,79.16c-0.23,0.08-0.46,0.17-0.69,0.25c0.06,0.06,0.11,0.12,0.17,0.18l0.28,0.31l0.14,0.16
		l-0.01,0.04l-0.07,0.02l-0.55,0.16c-0.37,0.11-0.74,0.21-1.1,0.31c0.11,0.21,0.18,0.4,0.18,0.55l0,0c0,0.27-0.21,0.42-0.75,0.42
		c-0.01,0-0.03,0-0.04,0c-0.58,0.24-1.18,0.49-1.78,0.74c0.1,0.66,0.17,1.32,0.21,2c0.02,0.34,0.03,0.67,0.03,1.01l0,0
		c0,1.01-0.09,2.03-0.28,2.99c-0.26,1.28-0.69,2.42-1.17,3.38c-0.98,1.93-2.13,3.21-3.04,4.05c-0.92,0.84-1.64,1.25-2.01,1.3
		c0,0-0.63,0.53-1.78,1.39c-1.15,0.86-2.82,2.01-4.9,3.33c-4.17,2.65-10.09,5.68-16.85,8.03c-1.69,0.58-3.44,1.16-5.23,1.65
		c-1.79,0.49-3.64,0.89-5.6,0.97c-0.32,0.01-0.64,0.02-0.96,0.02c-1.63,0-3.29-0.17-4.92-0.4c-0.17-0.03-0.33-0.05-0.5-0.08
		c-0.13,0-0.26,0-0.39,0c-1.68,0-3.4-0.13-5.14-0.4c-4.61-0.7-9.33-2.33-13.79-4.94c-3.17-1.12-6.36-2.27-9.6-3.31
		c0,0-1.55-1.3-3.48-3.67c-0.06-0.07-0.12-0.14-0.17-0.21c-0.06,0.81-0.11,1.54-0.14,2.21c0.19,0.71,0.42,1.46,0.7,2.23l0,0l0,0l0,0
		l0,0c0,0-0.28-0.16-0.76-0.5c-0.04,1.7-0.06,2.59-0.06,2.71c0.07,0.05,0.15,0.11,0.22,0.16c1.77,1.42,3.35,3.25,5.03,4.92
		c1.69,1.65,3.46,3.14,5.45,3.72c1.73,0.77,4.21,2.06,7.14,3.35c2.93,1.29,6.36,2.54,9.88,3.36c2.89,0.7,6.18,1.23,9.48,1.23
		c0.59,0,1.17-0.02,1.76-0.05c3.99-0.25,6.64-1.28,8.21-1.96c2.91-1.36,5.19-2.63,7.29-3.82c2.05-1.18,3.89-2.25,5.66-3.28
		c3.51-2.02,6.8-3.65,10.96-5.78c1.62-0.73,3.07-1.62,4.36-2.65c1.3-1.01,2.55-2.23,3.73-3.65c1.18-1.42,2.32-3.05,3.36-5
		c1.03-1.95,1.99-4.28,2.52-7.03c0.19-1.1,0.27-2.16,0.27-3.15c0-1.66-0.22-3.16-0.49-4.44C122.47,80.94,122.21,80.01,121.93,79.16"
		/>
	<path class="st263" d="M103.77,50.64c0,0.01-0.01,0.01-0.01,0.02c-0.3,0.49-0.51,1.03-0.88,1.62c-0.34,0.59-0.66,1.22-1.11,1.9
		c-0.19,0.44-0.28,0.8-0.28,1.14c0,0.24,0.04,0.46,0.12,0.68c0.26,0,0.97,0.25,1.25,0.25c0.01,0,0.01,0,0.02,0
		c0.17,0.19,0.34,0.4,0.52,0.61c0.31-0.06,0.71-0.11,1.16-0.11c0.28,0,0.59,0.02,0.9,0.07c1.57,0.25,3.29,1.08,5.36,4.08
		c0.2,0.41,0.65,1.24,1.17,2.34c0.16,0.3,0.32,0.62,0.49,0.94c-0.29-0.72-0.59-1.43-0.9-2.13c-1.06-2.36-2.2-4.53-3.4-6.33
		c-1.19-1.81-2.44-3.24-3.52-4.27C104.35,51.15,104.05,50.88,103.77,50.64"/>
	<path class="st263" d="M98.75,63.3c0.06,0.46,0.09,0.92,0.09,1.37l0,0c0,0.89-0.11,1.75-0.28,2.52c-0.49,2.29-1.4,3.83-1.4,3.83
		c-0.22,0.84-0.28,1.92-0.28,3.11c0,0.24,0,0.49,0.01,0.74c0.01,0.36,0.02,0.73,0.03,1.11c0.01,0.18,0.01,0.37,0.02,0.55l0,0l0,0
		l0,0l0,0c0,0,0,0.01,0,0.01c0,0.17,0.06,0.46,0.08,0.69c0.14,0.98,0.29,2.01,0.47,3.03c0.17,1.01,0.36,2.03,0.54,2.97
		c0.12,0.6,0.23,1.14,0.31,1.59c0.16,0.09,0.31,0.18,0.46,0.27l0,0c1.89,1.04,2.62,1.26,2.75,1.31c4.9-1.82,9.35-3.35,13.37-4.75
		c-0.89-0.74-1.98-1.64-3.13-2.64c-1.4-1.25-2.92-2.6-4.19-4.02l-0.24-0.27c-0.09-0.09-0.16-0.18-0.18-0.23
		c-0.08-0.12-0.16-0.25-0.24-0.37c-0.15-0.24-0.3-0.48-0.42-0.72c-0.24-0.48-0.42-0.95-0.52-1.39c-0.53-2.83-0.5-5.59-1.99-7.52
		c-0.11-0.06-0.23-0.08-0.38-0.08c-0.23,0-0.49,0.06-0.75,0.12s-0.52,0.12-0.75,0.12c-0.15,0-0.28-0.03-0.39-0.09
		c-0.13-0.12-0.54-0.31-1.17-0.55C100.07,63.8,99.45,63.57,98.75,63.3"/>
	<path class="st263" d="M117.72,82.3c-0.43,0.18-0.86,0.36-1.3,0.55c0.46,0.38,0.73,0.63,0.73,0.69l0,0l0,0l0,0l0,0
		c-2.84,0.96-5.14,2.95-8.53,2.95c-0.04,0-0.09,0-0.13,0c-0.7,0.34-1.4,0.7-2.12,1.06c-0.17,0.34-0.25,0.8-0.25,1.19
		c0,0.36,0.07,0.67,0.21,0.79c0.04,0.02,0.09,0.04,0.14,0.06l0,0l0,0l0,0l0,0c-0.05,0-0.1-0.02-0.14-0.06
		c-0.18-0.07-0.3-0.11-0.37-0.11c-0.06,0-0.08,0.02-0.08,0.06c0,0.12,0.27,0.43,0.73,0.85c0.2,0.19,0.45,0.4,0.71,0.63
		c0.14,0.11,0.28,0.23,0.42,0.36l0,0l0,0l0,0l0,0c-0.13,0.08-0.34,0.16-0.52,0.24c-0.74,0.33-1.55,0.66-2.35,0.98
		c-2.22,0.9-4.42,1.58-4.87,1.58c-0.06,0-0.08-0.01-0.08-0.03l0,0c0-0.06,0.21-0.19,0.69-0.42c-1.74,0.8-2.93,1.1-3.98,1.1
		c-0.4,0-0.78-0.04-1.16-0.12c-0.68-0.13-1.38-0.36-2.2-0.56c-0.21-0.05-0.42-0.11-0.65-0.15l-0.17-0.03l-0.09-0.02l-0.04-0.01
		l-0.02,0l-0.09,0.09l-0.9,0.95l-0.46,0.48l-0.06,0.05l-0.03,0l-0.05,0c-0.4,0.01-0.83,0.04-1.29,0.07
		c-1.23,0.92-2.53,1.76-3.87,2.45c-0.85,0.45-1.71,0.83-2.55,1.15c-0.83,0.31-1.72,0.6-2.39,0.75c-0.6,0.15-1.07,0.21-1.41,0.21
		c-0.04,0-0.08,0-0.11,0c-0.37-0.02-0.52-0.1-0.71-0.23c-0.39-0.28-0.77-0.78-0.85-1.46c0,0-0.08-0.12-0.26-0.31
		c-0.18-0.19-0.48-0.46-0.94-0.78c-0.22-0.16-0.46-0.33-0.73-0.5c-1.11-0.29-2.38-0.78-3.44-1.39c-0.54-0.3-1.02-0.6-1.42-0.87
		c-1.61-0.56-3.6-1.15-6.13-1.92c-1.97-0.62-4.33-1.33-7.06-2.41c-2.34-0.72-4.8-1.67-7.14-2.92c-0.15-0.08-0.29-0.16-0.44-0.25
		c-0.38-0.03-0.85-0.05-1.39-0.07c-0.26-0.01-0.54-0.01-0.83-0.01c-1.31,0-2.88,0.09-4.46,0.6c-1.92,0.62-3.86,2.01-4.98,4.72
		c-0.56,1.35-0.9,2.95-0.9,4.85c0,0.04,0,0.09,0,0.14c0,0.4,0.02,0.82,0.06,1.24c0.23,0.3,0.46,0.59,0.68,0.87
		c0.06,0.07,0.12,0.14,0.17,0.21c1.93,2.37,3.48,3.67,3.48,3.67c3.25,1.04,6.44,2.19,9.6,3.31c0.75,0.26,1.49,0.53,2.24,0.78
		c3.91,1.34,7.81,2.58,11.73,3.5c1.94,0.49,3.92,0.82,5.86,1.13c1.63,0.24,3.28,0.4,4.92,0.4c0.32,0,0.64-0.01,0.96-0.02
		c1.95-0.07,3.81-0.48,5.6-0.97c1.79-0.5,3.53-1.07,5.23-1.65c6.77-2.34,12.69-5.38,16.85-8.03c2.09-1.32,3.75-2.47,4.9-3.33
		c1.15-0.86,1.78-1.39,1.78-1.39c0.37-0.05,1.09-0.46,2.01-1.3c0.91-0.84,2.07-2.12,3.04-4.05c0.48-0.96,0.91-2.1,1.17-3.38
		c0.19-0.96,0.28-1.97,0.28-2.99c0-0.34-0.01-0.68-0.03-1.01C117.89,83.62,117.81,82.96,117.72,82.3"/>
	<path class="st263" d="M98.15,84.7l0.02,0.02l0.01,0.1l0,0l0,0c-0.01,0.09-0.06,0.23-0.12,0.4c-0.15,0.34-0.42,0.81-0.81,1.36
		c-0.07,0.14-0.15,0.29-0.24,0.45c-0.26,0.46-0.56,0.94-0.9,1.45c0.01-0.01,0.02-0.03,0.03-0.04l1.5-1.74l0.37-0.43l0.18-0.21
		l0.09-0.11l0.02,0L98.34,86c0.15,0.16,0.29,0.32,0.41,0.5c0.13,0.25,0.48,0.34,0.92,0.34c0.3,0,0.64-0.05,0.97-0.12
		c0.31-0.12,0.61-0.23,0.92-0.34c-0.13-0.05-0.86-0.27-2.75-1.31l0,0c-0.15-0.09-0.31-0.18-0.46-0.27c0,0,0,0,0,0l0,0l0,0l0,0
		L98.15,84.7"/>
	<path class="st264" d="M61.62,83.47c-0.02,0-0.04-0.01-0.06-0.01l0,0l0,0l0,0L61.62,83.47L61.62,83.47L61.62,83.47 M55.6,55.07
		c-1.07,0-2.21,0.08-3.4,0.26c-3.59,0.5-7.61,2-10.69,3.82c-1.53,0.92-2.83,1.79-3.71,2.51c-0.89,0.7-1.4,1.14-1.4,1.14
		c-1.9,0.88-3.62,2.09-5.22,4.13c-1.59,2.02-3.05,4.81-3.93,8.35c-0.45,1.78-0.71,3.68-0.78,5.46c-0.02,0.36-0.02,0.72-0.02,1.08
		c0,1.39,0.11,2.71,0.29,3.95c0.46,3.13,1.4,5.68,2.42,7.73c1.04,2.06,2.15,3.61,3.25,4.86c1.07,1.28,2.16,2.3,3.09,3.12
		c1.89,1.61,3.2,2.38,3.2,2.38c-0.28-0.77-0.51-1.51-0.7-2.23c-0.28-1.09-0.46-2.12-0.54-3.08c-0.04-0.43-0.06-0.84-0.06-1.24l0,0
		c0-0.05,0-0.09,0-0.14c0-1.9,0.35-3.49,0.9-4.85c1.12-2.71,3.06-4.1,4.98-4.72c1.58-0.51,3.15-0.6,4.46-0.6
		c0.29,0,0.57,0,0.83,0.01c0.54,0.02,1.01,0.04,1.39,0.07c0.62,0.04,0.99,0.09,0.99,0.09c2.4,1.3,4.6,2.29,6.59,3.08
		c2.74,1.09,5.09,1.8,7.06,2.41c2.53,0.77,4.52,1.36,6.13,1.92c0.57,0.2,1.08,0.39,1.56,0.59c1.38,0.58,2.46,1.14,3.3,1.67
		c0.27,0.17,0.51,0.34,0.73,0.5c0.46,0.32,0.75,0.59,0.94,0.78c0.18,0.19,0.26,0.31,0.26,0.31c0.07,0.67,0.45,1.18,0.85,1.46
		c0.19,0.13,0.34,0.22,0.71,0.23c0.04,0,0.07,0,0.11,0c0.34,0,0.81-0.06,1.41-0.21c0.67-0.15,1.56-0.45,2.39-0.75
		c0.84-0.33,1.7-0.71,2.55-1.15c1.33-0.69,2.64-1.53,3.87-2.45c-0.15,0.01-0.3,0.02-0.45,0.04c-1.42,0.1-3.15,0.3-4.83,0.3
		c-0.51,0-1.02-0.02-1.52-0.07c-1.39-0.12-2.64-0.38-3.79-0.93c-0.07,0.58-0.11,1.13-0.12,1.49l0,0.06l0,0.02c0,0.01,0,0.03,0,0.04
		l0,0l0,0l0,0l0,0l0,0l0,0l0,0l0,0l0,0l0,0l0,0l0,0c0-0.01,0-0.02,0-0.02l0,0.07l0-0.04l0-0.01l0-0.02l0-0.09l0,0l0-0.02
		c0.01-0.26,0.01-0.53,0.01-0.81c0-0.23,0-0.47-0.01-0.71c-0.58-0.28-1.13-0.64-1.65-1.09c-2.5-1.83-5.09-4.38-6.43-4.38
		c-0.06,0-0.12,0.01-0.18,0.02c-0.09,0-0.18,0.01-0.27,0.01c-0.81,0-1.39-0.18-2.1-0.8c-1.02-1.16-1.91-2.73-2.51-4.19
		c-0.11-0.28-0.22-0.55-0.31-0.82l0,0l-0.41,0.03l-0.76,0.03c-0.11,0-0.22,0-0.33,0c-0.56,0-1.03-0.03-1.42-0.07
		c-0.31-0.17-0.58-0.43-0.82-0.76c-0.27-0.37-0.49-0.83-0.67-1.34c-0.15-0.51-0.29-1.05-0.42-1.61c-0.24-1.19-0.35-2.45-0.35-3.71
		l0,0c0-1.08,0.08-2.16,0.21-3.22c0.29-2.28,0.81-4.42,1.29-6.22c0.5-1.79,0.97-3.26,1.3-4.27c0.33-1.02,0.51-1.57,0.51-1.57
		c0.16-0.51,0.24-0.98,0.24-1.42c0-1.53-0.95-2.64-2.57-3.39C59.69,55.42,57.79,55.07,55.6,55.07"/>
	<path class="st264" d="M81.43,84.4l-0.01,0.01c-0.12,0.34-0.23,0.67-0.33,1c0,0,0,0,0,0c0.05-0.15,0.1-0.3,0.15-0.46L81.43,84.4"/>
	<path class="st264" d="M81.43,84.41l-0.01,0.01l-0.03,0.05l-0.1,0.08c-0.16,0.08-0.34,0.21-0.51,0.3c-0.1,0.06-0.19,0.11-0.27,0.16
		c0.19,0.14,0.39,0.27,0.59,0.4C81.2,85.08,81.31,84.75,81.43,84.41"/>
	<path class="st264" d="M97.62,84.42C97.63,84.43,97.63,84.43,97.62,84.42C97.63,84.43,97.62,84.42,97.62,84.42"/>
	<path class="st264" d="M97.63,84.43c0.03,0.03,0.11,0.15,0.11,0.46c0,0.01,0,0.01,0,0.02l0,0c0,0.07,0,0.14-0.01,0.23
		c0.08-0.09,0.12-0.19,0.12-0.29C97.84,84.72,97.78,84.58,97.63,84.43"/>
	<path class="st264" d="M97.73,85.13c-0.29,0.34-1.1,0.58-2.01,0.69c-0.41,0.07-0.82,0.09-1.19,0.09c-0.29,0-0.56-0.02-0.8-0.04
		c-0.52-0.04-0.87-0.12-0.87-0.12c-0.6,0.95-1.9,1.66-3.44,2.05c-0.75,0.19-1.56,0.3-2.38,0.33c0.93,0.27,1.88,0.48,2.79,0.64
		c1.33,0.23,2.56,0.36,3.61,0.52c0.53,0.08,1.01,0.17,1.44,0.28c0.01-0.01,0.03-0.01,0.04-0.01c0.02,0,0.03,0.02,0.04,0.03
		c0.01,0.02,0.02,0.03,0.04,0.03c0.07,0,0.28-0.18,1.08-1.14c0.34-0.51,0.64-0.99,0.9-1.45c0.09-0.16,0.17-0.31,0.24-0.45
		C97.55,85.94,97.69,85.46,97.73,85.13"/>
	<path class="st264" d="M78.71,94.83c0.01,0.24,0.01,0.48,0.01,0.71l0,0l0,0l0,0l0,0l0,0l0,0l0,0l0,0l0,0l0,0
		c0,0.28,0,0.56-0.01,0.81l0,0l0-0.01v0l0,0.02c0.01-0.36,0.05-0.91,0.12-1.49C78.78,94.87,78.75,94.85,78.71,94.83"/>
	<path class="st264" d="M78.7,96.46l0,0.02l0,0c0,0.01,0,0.02,0,0.02C78.7,96.49,78.7,96.48,78.7,96.46"/>
	<path class="st265" d="M74.18,28.63c-2.03,0-3.88,0.19-5.43,0.45c-2.47,0.42-4.32,0.99-5.67,1.47c-1.35,0.48-2.25,0.87-2.75,1.08
		c-0.23,0.1-0.42,0.18-0.47,0.19l-0.12,0.02l-0.24,0.04l-0.47,0.09c-0.62,0.11-1.27,0.25-1.96,0.41c-2.69,0.61-5.72,1.47-8.97,2.5
		c-3.25,1.03-6.72,2.25-10.2,3.44c-0.73,0.33-1.55,0.71-2.42,1.15c-0.9,0.48-1.86,1.04-2.82,1.66c-0.98,0.65-2,1.43-2.96,2.25
		c-0.98,0.86-1.94,1.85-2.79,2.87c-1.27,1.68-2.8,3.52-4.19,5.54c-0.7,0.97-1.34,2.01-1.91,3.02c-0.57,1.01-1.04,1.94-1.42,2.93
		c-1.2,3.67-2.2,8.07-2.54,13.09c-0.08,1.13-0.12,2.3-0.12,3.48c0,1.42,0.06,2.84,0.2,4.17c0.24,2.44,0.68,4.7,1.22,6.71
		c-0.01-0.42-0.02-0.84-0.02-1.27l0,0c0-2.18,0.16-4.51,0.54-6.92c0.18-1.14,0.4-2.27,0.66-3.36c0.41-1.71,0.9-3.32,1.43-4.78
		c1.78-4.85,3.85-8.33,5.78-11.16c1.54-3,3.92-6.12,6.6-8.56c2.67-2.47,5.64-4.39,8.3-5.49c1.22-0.68,2.55-0.95,3.85-0.95
		c1.87,0,3.66,0.57,4.96,1.32c0.65,0.57,0.36,1.91,1.01,2.47c2.91,1.75,6.85,1.41,8.14,4.93c0.17,1.19,2.43,1.68,4.24,1.68
		c0.27,0,0.52-0.01,0.76-0.03c0.37-0.07,0.99-0.47,1.76-1.08c0.38-0.3,0.82-0.67,1.27-1.08c0.23-0.2,0.46-0.42,0.71-0.64
		c0.12-0.11,0.24-0.23,0.37-0.35c0.02-0.04,0.42-0.39,1.94-0.96c0.74-0.26,1.83-0.58,3.23-0.68c0.28-0.02,0.58-0.03,0.88-0.03
		c1.22,0,2.58,0.19,3.8,0.58c1.57,0.48,2.98,1.29,4.01,2.08c1.04,0.79,1.8,1.62,2.34,2.27c1.08,1.35,1.55,2.28,1.9,2.92
		c0.16,0.29,0.3,0.57,0.33,0.57c0,0,0,0,0,0l0.17,0.14c0.44,0.37,0.9,0.75,1.38,1.15c1.01,0.74,2.05,1.47,3.18,2.11
		c1.03,0.6,2.08,1.13,3.1,1.6c1.2,0.56,2.36,1.03,3.37,1.43c0.2,0.08,0.39,0.15,0.58,0.22c0.71,0.27,1.32,0.5,1.82,0.69
		c0.64,0.24,1.05,0.43,1.17,0.55c0.11,0.07,0.24,0.09,0.39,0.09c0.23,0,0.49-0.06,0.75-0.12s0.52-0.12,0.75-0.12
		c0.14,0,0.27,0.02,0.38,0.08c1.49,1.93,1.47,4.68,1.99,7.52c0.1,0.44,0.29,0.91,0.52,1.39c0.12,0.24,0.27,0.48,0.42,0.72
		c0.08,0.12,0.16,0.24,0.24,0.37c0.03,0.05,0.1,0.13,0.18,0.23l0.24,0.27c1.28,1.43,2.8,2.77,4.19,4.02c1.14,1,2.23,1.9,3.13,2.64
		c1.66-0.58,3.25-1.13,4.77-1.67c-0.46-0.64-1.12-1.39-1.65-2.14c-1.52-1.93-3.44-4.24-5.48-6.63c-0.48-0.6-1.06-1.26-1.46-1.81
		c-0.2-0.39-0.4-0.77-0.6-1.15c-0.36-0.73-0.72-1.44-1.04-2.09c-0.59-1.28-1.11-2.28-1.4-2.8c-0.19-0.37-0.4-0.71-0.64-1.02
		c-0.21-0.31-0.44-0.6-0.69-0.87c-0.51-0.54-0.99-1.01-1.51-1.47c-0.54-0.46-0.96-0.9-1.43-1.37c-0.42-0.47-0.76-0.97-1.02-1.52
		c0,0,0,0,0-0.01l0,0c0-0.05,0.23-0.14,0.61-0.22c-0.17-0.21-0.34-0.41-0.52-0.61c-0.01,0-0.01,0-0.02,0
		c-0.28,0-0.99-0.25-1.25-0.25c-0.08-0.22-0.12-0.45-0.12-0.68l0,0c0-0.33,0.09-0.7,0.28-1.14c0.45-0.68,0.77-1.32,1.11-1.9
		c0.37-0.59,0.58-1.12,0.88-1.62c0.14-0.25,0.27-0.48,0.38-0.71l0.08-0.17l0.02-0.04l-0.2-0.58l-0.3-0.79l-0.18-0.45l-0.23-0.53
		c-0.07-0.16-0.15-0.33-0.23-0.51c-0.02-0.05-0.04-0.09-0.07-0.14c-0.27-0.58-0.61-1.25-1.01-1.95c-0.62-1.09-1.32-2.22-2.42-3.66
		c-1.01-1.33-2.52-3.05-4.39-4.66c-0.51-0.45-1.05-0.88-1.59-1.29l-0.83-0.61l-0.94-0.64c-0.64-0.42-1.28-0.81-1.96-1.19
		c-0.72-0.4-1.45-0.78-2.2-1.12c-1.47-0.69-3.15-1.31-4.78-1.77c-1.66-0.46-3.31-0.8-5.05-1C76.59,28.69,75.36,28.63,74.18,28.63"/>
	<path class="st265" d="M63.95,76.53c-0.14,0.17-0.15,0.36-0.16,0.52c-0.01,0.13-0.02,0.25-0.02,0.37c0,0.28,0.03,0.53,0.08,0.74
		c0.06,0.22,0.15,0.44,0.25,0.67c0.03-0.14,0.04-0.27,0.09-0.42c0.05-0.11,0.18-0.35,0.6-0.35c0.06,0,0.13,0.01,0.21,0.02l0.11,0.03
		c0.04,0,0.08,0,0.11,0c0.07,0,0.14,0,0.2,0.01c0.18,0.01,0.33,0.04,0.47,0.07c-0.45-0.29-0.84-0.58-1.18-0.88
		C64.42,77.05,64.16,76.79,63.95,76.53"/>
	<path class="st265" d="M65.89,78.18c0.51,0.33,1.09,0.65,1.75,0.97c-0.09-0.06-0.18-0.12-0.27-0.18c-0.25-0.17-0.5-0.34-0.74-0.5
		c-0.16-0.09-0.38-0.2-0.68-0.27C65.93,78.19,65.91,78.19,65.89,78.18"/>
	<path class="st265" d="M67.63,79.15c0.39,0.25,0.8,0.51,1.2,0.78c0.99,0.64,1.93,1.36,2.57,2.28c0.75,0.89,0.91,1.89,1.33,2.58
		c0.01,0,0.01,0.01,0.02,0.01c0.09-0.12,0.13-0.41,0.13-0.79c0-0.34-0.04-0.74-0.11-1.16c-0.12-0.67-0.35-1.38-0.59-1.83
		C70.41,80.38,68.89,79.77,67.63,79.15"/>
	<path class="st265" d="M121.24,79.41c-0.51,0.18-1.02,0.37-1.54,0.55c0.17,0.23,0.31,0.44,0.41,0.63c0.36-0.1,0.73-0.21,1.1-0.31
		l0.55-0.16l0.07-0.02l0.01-0.04l-0.14-0.16l-0.28-0.31C121.35,79.53,121.3,79.47,121.24,79.41"/>
	<path class="st265" d="M64.77,80.77c-0.02,0.04-0.03,0.09-0.04,0.14c-0.01,0.06-0.01,0.13-0.01,0.21c0,0.72,0.3,1.96,0.84,3.28
		c0.6,1.47,1.49,3.04,2.51,4.19c0.71,0.61,1.3,0.8,2.1,0.8c0.09,0,0.17,0,0.27-0.01c0.06-0.01,0.12-0.02,0.18-0.02
		c1.34,0,3.93,2.55,6.43,4.38c0.53,0.45,1.08,0.8,1.65,1.09c-0.01-0.26-0.01-0.52-0.03-0.79c0-0.03,0-0.06,0-0.09
		c-0.05-1.31-0.18-2.76-0.34-4.16c-0.38-0.16-0.76-0.33-1.13-0.49c-1.62-0.69-3.11-1.38-4.49-2.06c-2.75-1.36-4.96-2.79-6.49-4.46
		C65.61,82.03,65.13,81.39,64.77,80.77"/>
	<path class="st265" d="M116.41,82.85c-2.48,1.07-5.13,2.26-7.93,3.64c0.04,0,0.09,0,0.13,0c3.39,0,5.69-1.99,8.53-2.95
		C117.14,83.48,116.87,83.24,116.41,82.85"/>
	<path class="st265" d="M72.76,84.8c0,0-0.01,0.01-0.01,0.01c0.52,0.14,1.11,0.8,1.45,0.8c0.08,0,0.15-0.04,0.2-0.14
		c0,0,0,0,0.01-0.01C73.85,85.23,73.29,85.01,72.76,84.8 M72.76,84.8L72.76,84.8L72.76,84.8L72.76,84.8L72.76,84.8"/>
	<path class="st265" d="M106.37,87.56c-0.73,0.37-1.46,0.76-2.21,1.16c-1.7,0.88-2.96,0.99-4.31,0.99c-0.24,0-0.48,0-0.73-0.01
		c-0.25,0-0.5-0.01-0.76-0.01c-0.35,0-0.71,0.01-1.09,0.03c-0.6,0.14-1.19,0.3-1.74,0.45c-0.13,0.04-0.27,0.07-0.4,0.11l-0.1,0.03
		l-0.06,0.03l-0.25,0.28l-0.99,1.12l-0.97,1.1l-0.12,0.14l-0.04,0.03l-0.05,0.01l-0.09,0.02l-0.35,0.07
		c-1.27,0.15-2.92,0.5-4.56,0.5c-0.2,0-0.41-0.01-0.61-0.02c-1.84-0.09-3.53-0.75-4.65-2.17c-0.89-0.34-1.77-0.7-2.63-1.06
		c-0.46,1.87-0.7,3.29-0.83,4.42c0,0.03-0.01,0.07-0.01,0.1c1.15,0.54,2.4,0.81,3.79,0.93c0.5,0.05,1.01,0.07,1.52,0.07
		c1.68,0,3.41-0.21,4.83-0.3c0.15-0.01,0.3-0.03,0.45-0.04c0.46-0.03,0.88-0.06,1.29-0.07l0.05,0l0.03,0l0.06-0.05l0.46-0.48
		l0.9-0.95l0.09-0.09l0.02,0l0.04,0.01l0.09,0.02l0.17,0.03c0.22,0.05,0.44,0.1,0.65,0.15c0.82,0.2,1.52,0.44,2.2,0.56
		c0.38,0.08,0.76,0.12,1.16,0.12c1.04,0,2.24-0.3,3.98-1.1l0,0l0,0l0,0l0,0c-0.48,0.23-0.69,0.37-0.69,0.42
		c0,0.02,0.03,0.03,0.08,0.03c0.45,0,2.66-0.68,4.87-1.58c0.8-0.32,1.61-0.66,2.35-0.98c0.17-0.08,0.39-0.16,0.52-0.24
		c-0.15-0.12-0.29-0.24-0.42-0.36c-0.27-0.23-0.51-0.44-0.71-0.63c-0.45-0.42-0.73-0.73-0.73-0.85l0,0c0-0.04,0.03-0.06,0.08-0.06
		c0.07,0,0.19,0.03,0.37,0.11c-0.14-0.13-0.21-0.44-0.21-0.79l0,0C106.12,88.35,106.2,87.9,106.37,87.56"/>
	<path class="st266" d="M79.66,90.37c-0.46,1.87-0.7,3.29-0.83,4.42l0,0c0,0.01,0,0.02,0,0.03c0,0.02-0.01,0.05-0.01,0.07l0,0
		c0-0.03,0.01-0.07,0.01-0.1C78.97,93.66,79.21,92.23,79.66,90.37L79.66,90.37"/>
	<path class="st265" d="M78.34,89.8c0.16,1.39,0.29,2.84,0.34,4.16c0,0.03,0,0.06,0,0.09c0.01,0.27,0.02,0.53,0.03,0.79
		c0.04,0.02,0.08,0.04,0.12,0.06c0-0.03,0.01-0.07,0.01-0.1c0.13-1.13,0.37-2.55,0.83-4.42C79.22,90.18,78.77,89.99,78.34,89.8
		 M106.33,89.54c0.04,0.04,0.09,0.06,0.14,0.06C106.42,89.58,106.37,89.56,106.33,89.54"/>
	<path class="st267" d="M75.64,74.08l0.01,0.04c0,0.01,0,0.01,0,0.02c0,0,0,0,0,0l0,0c0-0.01,0-0.01-0.01-0.02L75.64,74.08"/>
	<path class="st268" d="M75.65,74.14L75.65,74.14L75.65,74.14L75.65,74.14L75.65,74.14 M75.65,74.14L75.65,74.14L75.65,74.14
		L75.65,74.14 M75.65,74.14C75.65,74.14,75.65,74.14,75.65,74.14L75.65,74.14C75.65,74.14,75.65,74.14,75.65,74.14"/>
	<path class="st267" d="M75.65,74.14L75.65,74.14c0.06,0.18,0.27,0.31,0.43,0.46l0,0c0.05-0.06,0.13-0.08,0.23-0.08
		c0.38,0,1.12,0.32,1.93,0.6l0,0c1,0.37,2.08,0.66,2.1,0.66c0,0,0,0,0,0c0.02,0.01,0.05,0.03,0.07,0.04c1.03,0.6,2,0.83,2.84,0.83
		l0,0l0,0l0,0c-0.86,0-1.85-0.25-2.91-0.88c0,0-1.09-0.29-2.1-0.66c-0.81-0.28-1.54-0.6-1.93-0.6c-0.11,0-0.19,0.02-0.23,0.08
		C75.92,74.45,75.71,74.32,75.65,74.14 M75.64,74.08L75.64,74.08l0.01,0.06l0,0L75.64,74.08"/>
	<path class="st268" d="M80.43,75.82c1.03,0.6,2,0.83,2.84,0.83C82.43,76.65,81.46,76.42,80.43,75.82 M78.25,75.11
		c1,0.37,2.08,0.66,2.1,0.66C80.33,75.77,79.25,75.48,78.25,75.11 M75.65,74.14L75.65,74.14c0.06,0.18,0.27,0.31,0.43,0.46
		C75.92,74.45,75.71,74.32,75.65,74.14"/>
	<path class="st268" d="M86.82,75.67c3.32,3.15,5.66,5.06,7.56,6.49C92.49,80.74,90.14,78.82,86.82,75.67"/>
	<path class="st268" d="M84.43,76.49c-0.35,0.1-0.74,0.16-1.16,0.16C83.69,76.65,84.08,76.59,84.43,76.49"/>
	<path class="st267" d="M84.09,78.17L84.09,78.17l-0.12,0.16c-0.08,0.12-0.14,0.19-0.14,0.19c-0.08,0.12-0.28,0.4-0.52,0.89
		c-0.11,0.21-0.23,0.46-0.34,0.73l0,0c0.11-0.27,0.23-0.52,0.34-0.73l0,0l0,0c0.25-0.48,0.44-0.76,0.52-0.89l0,0l0,0
		c0,0,0.05-0.07,0.13-0.18c0,0,0.01-0.01,0.01-0.01L84.09,78.17"/>
	<path class="st268" d="M82.98,80.14L82.98,80.14L82.98,80.14L82.98,80.14L82.98,80.14 M83.32,79.41c-0.11,0.21-0.23,0.46-0.34,0.73
		l0,0C83.09,79.87,83.21,79.62,83.32,79.41 M83.84,78.52c-0.08,0.12-0.28,0.4-0.52,0.89C83.56,78.92,83.76,78.64,83.84,78.52
		 M83.97,78.34c-0.08,0.11-0.13,0.18-0.13,0.18C83.84,78.52,83.89,78.45,83.97,78.34"/>
	<path class="st268" d="M83.8,78.36c-0.01,0-0.09,0.04-0.47,0.28C83.71,78.4,83.79,78.36,83.8,78.36"/>
	<path class="st268" d="M83.31,78.65c-0.57,0.33-1.84,1.1-4.88,1.84C81.46,79.75,82.73,78.98,83.31,78.65"/>
	<path class="st268" d="M82.98,80.14c0,0.01-0.01,0.01-0.01,0.02l0,0l0,0c-0.01,0.02-0.02,0.04-0.02,0.06
		c0.01-0.02,0.02-0.04,0.02-0.06l0,0l0,0C82.97,80.15,82.97,80.15,82.98,80.14L82.98,80.14"/>
	<path class="st268" d="M81.64,83.8c-0.07,0.21-0.14,0.41-0.21,0.61c-0.12,0.34-0.23,0.67-0.33,1l0,0c0.11-0.32,0.22-0.66,0.33-1
		C81.5,84.21,81.57,84.01,81.64,83.8"/>
	<path class="st268" d="M94.5,82.24c0.44,0.34,0.97,0.69,1.34,0.96C95.47,82.93,94.94,82.59,94.5,82.24"/>
	<path class="st268" d="M97.03,84c0.33,0.22,0.63,0.41,0.93,0.59C97.66,84.41,97.36,84.22,97.03,84"/>
	<path class="st268" d="M98.8,85.08c1.89,1.04,2.62,1.26,2.75,1.31l0,0C101.43,86.33,100.7,86.12,98.8,85.08"/>
	<path class="st268" d="M78.34,89.8c0.16,1.39,0.29,2.84,0.34,4.16C78.63,92.64,78.49,91.19,78.34,89.8L78.34,89.8"/>
	<path class="st269" d="M79.66,90.37c-0.46,1.87-0.7,3.29-0.83,4.42c0,0.03-0.01,0.07-0.01,0.1l0,0l0,0c0-0.02,0.01-0.05,0.01-0.07
		c0-0.01,0-0.02,0-0.03l0,0C78.97,93.66,79.21,92.23,79.66,90.37L79.66,90.37"/>
	<path class="st268" d="M78.7,96.39L78.7,96.39c0,0,0,0.01,0,0.01l0,0C78.7,96.4,78.7,96.39,78.7,96.39 M78.83,94.82
		c-0.07,0.61-0.11,1.19-0.13,1.57c0,0,0,0.01,0,0.01c0-0.01,0-0.01,0-0.02c0.01-0.36,0.05-0.92,0.12-1.49
		C78.83,94.87,78.83,94.84,78.83,94.82 M79.66,90.37c-0.46,1.87-0.7,3.29-0.83,4.42C78.97,93.66,79.21,92.23,79.66,90.37
		L79.66,90.37"/>
	<path class="st268" d="M78.7,96.39c0,0.01,0,0.01,0,0.02c0,0.03,0,0.05,0,0.07c0,0.01,0,0.02,0,0.02l0,0c0-0.01,0-0.02,0-0.02
		c0-0.02,0-0.03,0-0.05c0-0.01,0-0.02,0-0.03C78.7,96.4,78.7,96.39,78.7,96.39"/>
	<path class="st270" d="M65.22,72.89c-0.07,0-0.14,0-0.21,0c-0.01,0-0.01,0-0.02,0c-0.17,0-0.41,0.02-0.62,0.05
		c-0.21,0.02-0.39,0.05-0.44,0.05c-0.01,0-0.02,0-0.02,0l0,0c0,0,0,0,0.01-0.01c-0.08-0.01-0.15-0.02-0.22-0.02
		c-0.43,0-0.63,0.24-0.69,0.4c-0.05,0.23-0.08,0.46-0.08,0.7c0,0.2,0.02,0.4,0.06,0.6c0.17,0.88,0.73,1.79,1.72,2.65
		c0.34,0.3,0.73,0.59,1.18,0.88c0.02,0,0.04,0.01,0.05,0.01c0.3,0.08,0.51,0.18,0.68,0.27c0.24,0.16,0.49,0.33,0.74,0.5
		c0.09,0.06,0.18,0.12,0.27,0.18c1.26,0.62,2.77,1.23,4.56,1.87c0.55,0.2,1.13,0.41,1.74,0.62c-1.15-2.82-2.75-5.64-5.52-7.8
		l-0.37-0.27c-0.14-0.09-0.2-0.17-0.5-0.29c-0.3-0.11-0.72-0.25-1.38-0.33C65.9,72.91,65.57,72.89,65.22,72.89"/>
	<path class="st270" d="M104.56,56.74c-0.45,0-0.86,0.05-1.16,0.11c-0.38,0.08-0.61,0.18-0.61,0.22c0,0,0,0.01,0,0.01
		c0.26,0.56,0.6,1.05,1.02,1.52c0.47,0.47,0.88,0.91,1.43,1.37c0.52,0.46,1,0.93,1.51,1.47c0.25,0.27,0.47,0.56,0.69,0.87
		c0.23,0.31,0.45,0.65,0.64,1.02c0.29,0.53,0.81,1.52,1.4,2.8c0.32,0.65,0.68,1.36,1.04,2.09c0.2,0.38,0.4,0.76,0.6,1.15
		c0.4,0.55,0.98,1.21,1.46,1.81c2.05,2.39,3.97,4.71,5.48,6.63c0.53,0.74,1.18,1.5,1.65,2.14c1.21-0.43,2.38-0.85,3.51-1.27
		c0.12-0.05,0.25-0.09,0.4-0.15l0.21-0.07l0.11-0.04l-0.04-0.11c-0.23-0.34-0.5-0.72-0.8-1.13c-0.6-0.81-1.35-1.73-2.19-2.73
		c-1.69-2-3.8-4.33-5.97-6.7l-0.8-0.9c-0.23-0.28-0.61-0.67-0.63-0.79c-0.19-0.35-0.38-0.69-0.56-1.02
		c-0.34-0.65-0.66-1.27-0.95-1.83c-0.52-1.1-0.97-1.93-1.17-2.34c-2.06-3-3.79-3.82-5.36-4.08
		C105.15,56.76,104.84,56.74,104.56,56.74"/>
	<path class="st270" d="M67.63,79.15L67.63,79.15L67.63,79.15L67.63,79.15L67.63,79.15 M65.89,78.18L65.89,78.18L65.89,78.18
		L65.89,78.18L65.89,78.18 M64.79,78.06c-0.42,0-0.55,0.24-0.6,0.35c-0.05,0.16-0.06,0.29-0.09,0.45c0,0.01,0,0.03,0,0.04
		c0,0.13,0.03,0.28,0.04,0.45c0.08,0.18,0.12,0.41,0.26,0.68c0.1,0.25,0.23,0.49,0.37,0.73c0.36,0.62,0.84,1.26,1.46,2.03
		c1.53,1.67,3.74,3.09,6.49,4.46c1.38,0.68,2.87,1.37,4.49,2.06c0.37,0.16,0.74,0.33,1.13,0.49l0,0c1.27,0.55,2.59,1.1,3.96,1.63
		c1.12,1.42,2.81,2.08,4.65,2.17c0.2,0.01,0.4,0.02,0.61,0.02c1.64,0,3.29-0.34,4.56-0.5l0.35-0.07l0.09-0.02l0.05-0.01l0.04-0.03
		l0.12-0.14l0.97-1.1l0.99-1.12l0.25-0.28l0.06-0.03l0.1-0.03c0.13-0.04,0.26-0.07,0.4-0.11c0.54-0.15,1.14-0.31,1.74-0.45
		c0.38-0.02,0.75-0.03,1.09-0.03c0.26,0,0.52,0,0.76,0.01c0.25,0,0.49,0.01,0.73,0.01c1.35,0,2.61-0.11,4.31-0.99
		c0.75-0.4,1.48-0.78,2.21-1.16c0.71-0.37,1.42-0.72,2.12-1.06c3.99-1.96,7.67-3.56,11.01-4.93c0.01,0,0.03,0,0.04,0
		c0.54,0,0.75-0.16,0.75-0.42c0-0.15-0.07-0.34-0.18-0.55c-0.1-0.19-0.24-0.4-0.41-0.63c-1.52,0.54-3.11,1.09-4.77,1.67
		c-4.03,1.4-8.48,2.94-13.37,4.75l0,0c-0.3,0.11-0.61,0.23-0.92,0.34c-0.33,0.07-0.67,0.12-0.97,0.12c-0.43,0-0.79-0.1-0.92-0.34
		c-0.12-0.18-0.26-0.35-0.41-0.5l-0.06-0.06l-0.02,0l-0.09,0.11l-0.18,0.21l-0.37,0.43l-1.5,1.74c-0.01,0.01-0.02,0.03-0.03,0.04
		c-0.8,0.96-1.01,1.14-1.08,1.14c-0.02,0-0.03-0.02-0.04-0.03c-0.01-0.02-0.02-0.03-0.04-0.03c-0.01,0-0.02,0-0.04,0.01
		c-0.43-0.11-0.92-0.2-1.44-0.28c-1.05-0.16-2.28-0.29-3.61-0.52c-0.91-0.16-1.85-0.37-2.79-0.64c-1.81-0.52-3.59-1.24-5.09-2.19
		c-0.29-0.17-0.58-0.35-0.86-0.54l0,0c-0.2-0.13-0.39-0.26-0.59-0.4c-1.05-0.73-2.08-1.51-3.18-2.09l0,0
		c-0.42-0.22-0.86-0.42-1.31-0.57c-0.73-0.24-1.43-0.48-2.09-0.71c0.21,0.51,0.4,1.03,0.59,1.53c0.06,0.44,0.18,0.96,0.18,1.42l0,0
		c0,0.34-0.07,0.65-0.28,0.86c0,0,0,0-0.01,0.01c-0.05,0.1-0.12,0.14-0.2,0.14c-0.34,0-0.93-0.66-1.45-0.8l0,0
		c0-0.01-0.01-0.01-0.01-0.02c-0.42-0.7-0.58-1.69-1.33-2.58c-0.64-0.92-1.59-1.64-2.57-2.28c-0.41-0.26-0.81-0.52-1.2-0.78
		c-0.65-0.32-1.23-0.64-1.75-0.97c-0.14-0.03-0.29-0.06-0.47-0.07c-0.06-0.01-0.13-0.01-0.2-0.01c-0.04,0-0.08,0-0.11,0L65,78.07
		C64.92,78.06,64.85,78.06,64.79,78.06"/>
</g>
<g>
	<path d="M55.94,121.33c-5.37,1.49-8.9-0.21-11.06-5.12c-5.95-0.1-8.85-2.54-9.29-7.88c-3.83,0.04-5.92-2.57-6.91-5.62
		c-0.88-2.75-0.94-5.92,1.54-8.46c-2.77-1.95-4.09-4.82-4.51-8.27c-0.41-3.3-0.41-6.46,1.4-9.43c0.34-0.56,0.43-1.5,0.22-2.12
		c-1.37-4.19-1.01-8.38,0.53-12.33c0.66-1.7,2.44-3.03,3.91-4.31c1.32-1.15,2.05-2.36,2.21-4.15c0.27-3.05,1.92-5.29,4.32-7.29
		c2.03-1.69,3.73-3.9,5.21-6.12c2.76-4.14,5.06-8.52,10.23-10.4c3.08-1.12,5.81-3.19,8.87-4.4c3.73-1.48,7.62-1.98,11.49-0.08
		c0.51,0.25,1.38,0.01,1.98-0.24c2.54-1.08,4.9-0.91,7.13,0.77c2.05,1.55,4.1,3.1,6.18,4.6c0.35,0.25,0.9,0.27,1.36,0.35
		c5.12,0.87,8.91,3.5,11.76,7.93c0.89,1.38,3.23,1.8,4.88,2.73c3.12,1.75,6.47,3.52,7.08,7.42c0.39,2.51,1.79,3.26,3.75,4.27
		c4.44,2.29,6.08,6.66,7.29,11.18c0.09,0.32-0.07,0.84-0.3,1.1c-1.97,2.27-0.95,3.77,0.69,5.91c3.74,4.88,3.81,10.5,1.84,16.23
		c-1.26,3.65-3.29,6.6-6.96,8.19c-1.3,0.57-2.61,1.14-3.88,1.77c-3.45,1.71-4.19,5.56-6.46,8.22c-2.05,2.41-4.65,3.58-7.61,4.38
		c-1.52,0.41-3.39,1.04-4.23,2.2c-3.84,5.3-9.07,8.19-15.36,8.84c-3.61,0.37-6.36,2.37-9.55,3.46c-3.38,1.16-6.95,2.15-10.49,2.36
		C59.64,127.23,56.95,125.16,55.94,121.33z M91.41,65.59c0.59,0.76,1.18,1.52,1.76,2.29c0.11-0.07,0.21-0.14,0.32-0.21
		c-0.48-2.09-0.96-4.19-1.43-6.28c0.23-0.05,0.45-0.1,0.68-0.15c0.85,3.85,1.69,7.71,2.54,11.56c0.34-0.06,0.69-0.12,1.03-0.18
		c-0.57-4.04-1.13-8.09-1.7-12.13c0.15-0.02,0.3-0.04,0.44-0.07c0.75,4.04,1.5,8.08,2.24,12.12c1.43-1.85-2.21-20.06-3.64-21.31
		c0.27,2.11,0.52,4.11,0.78,6.1c-1.75-2.92-0.93-6.63-3.05-9.32c-0.22,0.06-0.44,0.12-0.65,0.18c0.57,3.63,1.13,7.26,1.7,10.9
		c-0.18,0.03-0.37,0.06-0.55,0.09c-0.89-3.97-1.78-7.93-2.72-12.13c-0.49,0.43-0.71,0.55-0.69,0.62c0.59,3.42,1.23,6.84,1.77,10.27
		c0.11,0.69-0.15,1.43-0.24,2.15c-1-4.42-2-8.85-2.99-13.27c-0.14,0.03-0.28,0.07-0.42,0.1c-0.01,1.33-0.01,2.65-0.02,3.98
		c-0.14-0.01-0.27-0.03-0.41-0.04c-0.47-1.9-0.94-3.79-1.41-5.69c-0.24,0.06-0.48,0.12-0.72,0.18c0.23,2.67,0.45,5.35,0.68,8.02
		c-0.13,0.01-0.26,0.02-0.4,0.03c-0.81-3.95-1.62-7.9-2.43-11.84c-0.29,0.06-0.57,0.12-0.86,0.18c0.55,3.47,0.93,6.98,1.7,10.4
		c0.43,1.91,1.18,3.91,2.35,5.44c1.43,1.89,2.2,5.02,1.15,6.74c1.42,0.58,2.88,1.21,4.38,1.76C90.78,66.15,91.13,65.77,91.41,65.59z
		 M69.75,46.79c-1.86-0.04-3.91-0.59-5.55-0.01c-2.55,0.91-4.93,2.42-7.17,3.98c-2.68,1.88-5.03,4.73-4.87,7.81
		c0.27,5.25,2.92,8.98,9.31,6.16c4.19-1.84,8.02-4.64,11.74-7.37c2.88-2.11,2.79-5.19,0.25-7.73c-1.04-1.04-2.18-1.99-3.27-2.98
		c0.16-1.35,0.33-2.7,0.47-4.05c0.24-2.28-1.14-3.29-3.08-3.63c-2.79-0.49-5.61-0.92-8.43-1.19c-3.66-0.36-6.58,1.09-8.81,4.01
		c-1.66,2.18-1.83,5.85-0.01,7.76c1.16,1.22,2.58,1.74,4.29,0.3c3.59-3.03,7.54-5.44,12.54-5.15
		C68.49,44.77,69.71,45.08,69.75,46.79z M71.52,75.61c0.12,0.17,0.24,0.33,0.36,0.5c3.8-2.75,7.8-5.28,11.31-8.37
		c1.51-1.33,3.02-3.36,1.83-6.16c-2.02-4.75-6.49-5.91-10.62-2.78c-3.29,2.49-6.98,4.45-10.37,6.82c-1.04,0.73-2.4,2.13-2.33,3.13
		C62.02,73.45,65.21,78.68,71.52,75.61z M104.22,77.36c-0.22-0.3-0.57-0.91-1.05-1.41c-1.85-1.95-4.21-1.74-6.39-1.05
		c-0.84,0.27-1.44,1.69-1.88,2.7c-1.73,3.9-4.99,6.46-7.91,9.33c-0.65,0.64-1.39,1.57-1.44,2.41c-0.3,5.34,6.11,9,10.9,6.7
		c3.16-1.52,4.92-4.16,6.24-7.13C104.28,85.35,105.33,81.66,104.22,77.36z M62.01,75.46c-5.17,3.07-7.23,7.86-6.23,13.08
		c0.87,4.56,3.41,7.53,8.04,6.69c2.75-0.5,5.45-1.75,7.93-3.11c1.18-0.65,2.03-2.27,2.5-3.64c0.19-0.56-1.02-1.58-1.54-2.43
		c-0.25-0.4-0.44-0.87-0.53-1.33c-0.41-2.2-0.78-4.41-1.19-6.73C67.56,78.99,64.33,78.66,62.01,75.46z M74.82,83.58
		c0.95,2.8,5.97,4.59,8.71,2.99c3.48-2.02,6.49-4.57,8.62-8.06c2.31-3.78,1.75-7.14-0.81-9.81c-1.41-1.47-5-1.93-6.03-0.98
		c-2.41,2.22-4.76,4.51-7.33,6.52C75.17,76.42,73.7,80.28,74.82,83.58z M103.66,95.22c0.38,0.3,1.17,0.92,1.97,1.53
		c3.14,2.37,8.44,1.38,10.64-1.76c2.91-4.16,3.82-8.57,2.57-13.51c-0.77-3.04-2.63-4.38-6.35-4.21c-2.61,0.12-4.03,1.75-4.64,4.47
		c-0.45,2.01-1.5,3.89-2.33,5.81C104.56,89.78,102.57,91.72,103.66,95.22z M52.82,83.68c-1.47-0.34-3.35-0.96-5.27-1.16
		c-1.18-0.13-2.74-0.02-3.58,0.66c-3.34,2.69-4.05,6.36-2.78,10.3c1.17,3.63,3.43,6.42,7.35,7.36c0.54,0.13,1.39-0.12,1.79-0.51
		c1.88-1.85,3.65-3.81,5.27-5.53C54.74,91.3,53.81,87.62,52.82,83.68z M66.12,97.04c-0.39,5.42,2.93,8.7,8.37,8.07
		c1.41-0.16,2.87-0.77,4.08-1.53c2.87-1.83,5.6-3.87,8.04-5.59c-1.76-2.76-3.16-4.96-4.3-6.75c-2.41-0.17-4.49-0.31-6.74-0.46
		C73.32,94.46,69.71,96.09,66.12,97.04z M89.75,98.19c-3.06,2.2-5.67,4.16-8.37,5.96c-1.33,0.88-1.68,1.7-0.69,3.05
		c1.67,2.28,3.78,3.47,6.69,3.22c4.11-0.36,7.28-2.65,10.23-5.16c2.03-1.72,3.91-3.76,5.3-6c0.47-0.77-0.76-2.6-1.24-3.94
		c-0.04-0.1-0.24-0.14-0.45-0.26C97.83,98.75,93.68,99.5,89.75,98.19z M59.35,67.96c-1.98-0.67-4.35-0.85-5.76-2.11
		c-2.22-1.97-3.2-0.58-4.49,0.76c-0.53,0.56-1.04,1.14-1.57,1.7c-2.83,2.98-3.17,7.73-0.78,10.65c2.73,3.32,6.91,3.02,9.14-0.45
		c0.95-1.47,2.52-2.54,3.73-3.86c0.4-0.44,0.83-1.15,0.76-1.67C60.12,71.15,59.64,69.35,59.35,67.96z M56.03,35.99
		c5.17-0.39,9.95,0.7,14.67,2.3c0.58,0.2,1.98-0.64,2.32-1.34c1.61-3.27,1.21-6.62-0.22-9.86c-0.19-0.43-1.03-0.84-1.54-0.81
		c-2.73,0.15-5.6-0.02-8.14,0.79C58.1,28.66,55.77,31,56.03,35.99z M97.45,47.92c1.15,3.3,2.79,5.23,6.34,7.58
		c2.23,1.48,5.71,1.02,7.66-1c1.76-1.83,1.77-4.52,0.16-6.93c-1.96-2.93-4.97-4.39-8.04-5.59c-1.68-0.65-3.55-0.29-4.98,1.28
		C97.25,44.74,96.35,46.19,97.45,47.92z M62.93,98.06c0.15-0.19,0.29-0.38,0.44-0.56c-1.01-0.06-2.19,0.2-3-0.23
		c-2.74-1.45-4.48,0.29-6.29,1.73c-3.05,2.42-3.17,5.54-0.65,8.41c2.06,2.34,4.81,2.81,7.55,2.62c2.75-0.19,5.29-1.34,6.57-3.21
		C65.85,103.59,64.39,100.83,62.93,98.06z M112.81,74.37c4.38,1.02,7.48,2.75,8.11,7.51c0.42,3.17,0.16,6.43,0.22,10.1
		c0.7-0.32,1.91-0.48,2.24-1.1c1.2-2.28,2.42-4.63,3.06-7.1c1.05-4.08,0.32-8.03-2.24-11.47c-1.78-2.39-4.14-3.56-7.22-2.94
		C114.3,69.92,112.69,71.32,112.81,74.37z M43.47,71.13c-3.13-1.83-4.58-1.85-6.49,0.06c-2.63,2.62-4.19,5.8-4.15,9.54
		c0.06,4.54,2.21,8,5.62,7.02c1.36-3.05,2.25-6.51,6.18-7.44C42.58,76.68,42.58,76.68,43.47,71.13z M100.39,39.75
		c-2.12-3.77-4.7-6.05-8.55-6.71c-1.59-0.27-3.72,0.17-5,1.12c-1.6,1.18-2.66,3.23-2.05,5.49c0.83,3.09,5.19,6.3,8.45,6.22
		c0.6-0.01,1.66-0.42,1.72-0.78C95.48,42.05,97.99,41.09,100.39,39.75z M49.3,57.88c-3.54-0.09-6.68-1.26-9.15-4
		c-0.61-0.67-2.05-1.64-2.24-1.47c-0.93,0.81-2.09,1.91-2.2,3c-0.4,3.93,0.84,7.53,3.47,10.49c1.02,1.14,2.51,1.87,3.78,2.79
		c-0.05-0.33-0.11-0.66-0.16-0.99c2.21-2,4.42-3.99,6.85-6.18C49.58,60.72,49.45,59.41,49.3,57.88z M122.33,64.85
		c1.41-3.7-3.14-9.31-7.76-9.71c-0.37-0.03-0.8,0.09-1.13,0.28c-4.1,2.37-5.08,4.47-4.3,9.16c0.41,2.48,2.47,3.61,4.89,2.81
		C116.63,66.52,119.28,65.77,122.33,64.85z M49.3,103.31c-1.25-0.4-2.41-0.71-3.53-1.14c-1.21-0.47-2.64-1.72-3.51-1.4
		c-1.14,0.42-1.82,2.06-2.69,3.18c-0.34,0.44-0.69,0.87-0.97,1.34c-1.22,2.1-0.83,4.23,0.16,6.23c1.07,2.16,3.27,2.3,5.32,2.5
		c0.32,0.03,0.78-0.42,1.03-0.75c1.64-2.14,3.23-4.31,5.07-6.79C49.97,105.72,49.59,104.36,49.3,103.31z M96.79,111.71
		c-1.04-0.24-1.56-0.5-2.05-0.44c-1.32,0.17-2.65,0.4-3.93,0.74c-3.25,0.86-6.35,0.98-9.4-0.85c-0.56-0.33-1.75,0.01-2.45,0.39
		c-0.81,0.44-1.69,1.15-2.02,1.95c-0.47,1.15-0.87,2.62-0.52,3.7c0.27,0.84,1.68,1.71,2.68,1.84
		C86.12,119.99,91.55,116.86,96.79,111.71z M79.29,108.15c-0.33-0.43-0.84-1.61-1.27-1.58c-2.85,0.18-5.92,0.04-8.44,1.13
		c-2.23,0.96-3.85,3.36-5.71,5.15c-1.33,1.28-1.23,3.73,0.15,4.52c2.37,1.36,6.18,1.05,8.13-0.99
		C74.59,113.82,76.79,111.05,79.29,108.15z M59.8,117.31c-0.04-0.28-0.08-0.56-0.12-0.83c-0.09-0.69-0.44-1.48-0.23-2.06
		c0.61-1.68-0.49-2.07-1.61-2.51c-2.13-0.84-4.26-1.65-6.84-2.64c-0.52,0.49-1.54,1.35-2.43,2.32c-1.25,1.38-2.06,3.07-0.88,4.75
		c1.86,2.64,2.68,4.09,5.54,3.24C55.46,118.92,57.62,118.07,59.8,117.31z M37.74,67.55c-0.65-1.03-1.65-2.32-2.34-3.76
		c-0.73-1.53-1.16-3.2-1.76-4.91c-5.64,4.92-6.66,14.34-2.4,16.38C33.46,72.63,35.6,70.09,37.74,67.55z M36.16,93.54
		c-0.4,0.14-0.92,0.33-1.43,0.5c-2.03,0.68-3.84,1.6-4.19,4.02c-0.42,2.89,0.16,5.55,2.56,7.37c0.66,0.5,2.48,0.59,2.9,0.11
		c1.68-1.9,3.02-4.11,4.32-5.95C38.92,97.56,37.65,95.7,36.16,93.54z M47.08,41.47c-0.46,0.26-1.33,0.74-2.18,1.25
		c-2.72,1.66-4.09,5.04-3.13,7.7c0.89,2.48,5.49,5.62,7.86,5.15c0.77-0.15,1.59-0.95,1.98-1.67c0.15-0.28-0.81-1.19-1.3-1.78
		c-0.98-1.18-2.53-2.22-2.85-3.55C46.94,46.3,47.17,43.84,47.08,41.47z M75.2,121.41c-1.1-1.92-2.88-1.82-4.48-1.59
		c-3.03,0.43-5.85,0.28-8.73-1.02c-0.8-0.36-2.59,0.49-3.32,1.32c-0.44,0.5-0.05,2.34,0.57,3.01c0.84,0.9,2.28,1.77,3.45,1.75
		C67.13,124.84,71.45,124.12,75.2,121.41z M86.86,30.97c-1.42-3.23-6.77-5.32-9.64-3.95c0.81,2.31,1.43,4.66,2.47,6.81
		c0.45,0.93,1.66,1.61,2.68,2.07c0.28,0.13,1.15-0.93,1.67-1.52C84.95,33.35,85.8,32.26,86.86,30.97z M110.81,100.96
		c-6.27-1.06-9.21,3.6-13.09,7.13C103.88,109.08,108.79,106.32,110.81,100.96z M28.55,78.5c-1.31,3.8-1.34,7.2-0.02,10.45
		c1.58,3.87,4.4,4.54,7.54,2.11C30.96,88.44,30.87,86.61,28.55,78.5z M96.9,54.13c-0.23,0.06-0.46,0.11-0.7,0.17
		c0.59,5.88,1.14,11.78,3.74,17.28c-0.13-1.47-0.26-2.95-0.39-4.42c0.08-0.01,0.17-0.02,0.25-0.02c0.51,1.8,1.01,3.61,1.52,5.41
		c0.27-0.06,0.53-0.12,0.8-0.18c-0.95-5.26-1.9-10.51-2.85-15.77c-0.26,0.03-0.52,0.07-0.79,0.1c0.05,1.08,0.1,2.17,0.15,3.25
		c-0.14,0.02-0.27,0.04-0.41,0.06C97.78,58.05,97.34,56.09,96.9,54.13z M74.89,39.91c-1.66,4.33,2.04,13.62,5.31,14.9
		c-1.1-5.46-2.15-10.73-3.21-16.01c-0.27,0.05-0.54,0.1-0.82,0.15c0.56,3.96,1.12,7.92,1.68,11.88c-0.15,0.03-0.31,0.05-0.46,0.08
		C76.61,47.46,75.82,44,74.89,39.91z M104.38,74.75c0.22-0.11,0.44-0.23,0.66-0.34c-1.61-5.58-1.92-11.5-4.32-16.87
		c0.44,4.59,1.06,9.14,1.9,13.64C102.86,72.43,103.78,73.56,104.38,74.75z M78.99,39.32c-0.23,0.07-0.47,0.14-0.7,0.21
		c0.98,4.9,1.93,9.8,2.97,14.69c0.13,0.61,0.72,1.12,1.1,1.68c0.14-0.11,0.27-0.22,0.41-0.33C81.5,50.15,80.24,44.74,78.99,39.32z
		 M103.43,58.59c-0.27,0.06-0.54,0.12-0.81,0.18c1.07,5.21,2.14,10.42,3.21,15.63c0.34-0.07,0.67-0.15,1.01-0.22
		C106.65,68.78,103.95,63.93,103.43,58.59z M47.97,37.02c2.53-0.29,4.21-1.39,4.72-3.65c-0.2-0.2-0.39-0.39-0.59-0.59
		C50.72,34.2,49.35,35.61,47.97,37.02z"/>
	<path d="M86.67,52.02c0.74,3.94,1.49,7.89,2.23,11.83c-0.27,0.05-0.55,0.1-0.82,0.15c-0.7-3.92-1.41-7.83-2.11-11.75
		C86.2,52.18,86.44,52.1,86.67,52.02z"/>
</g>
</svg>
