<?xml version="1.0" encoding="utf-8"?>
<!-- Generator: Adobe Illustrator 23.0.1, SVG Export Plug-In . SVG Version: 6.00 Build 0)  -->
<svg version="1.1" id="Layer_1" xmlns="http://www.w3.org/2000/svg" xmlns:xlink="http://www.w3.org/1999/xlink" x="0px" y="0px"
	 viewBox="0 0 150 150" style="enable-background:new 0 0 150 150;" xml:space="preserve">
<style type="text/css">
	.st0{fill:#F49AB4;}
	.st1{fill:#F28DA7;}
	.st2{fill:#E85072;}
	.st3{fill:#E84B6F;}
	.st4{fill:#EB5A7D;}
	.st5{fill:#EF7994;}
	.st6{fill:#F8BCCD;}
	.st7{fill:#F38CA8;}
	.st8{fill:#EF728F;}
	.st9{fill:#FCE4EB;}
	.st10{fill:#F0CCCF;}
	.st11{fill:#DE8D95;}
	.st12{fill:#EBBABF;}
	.st13{fill:#E7ACB2;}
	.st14{fill:#E39DA3;}
	.st15{fill:#F5DEE0;}
	.st16{fill:#D97A83;}
	.st17{fill:#E4A6AD;}
	.st18{fill:#E9B6BB;}
	.st19{fill:#DA9197;}
	.st20{fill:#CC7077;}
	.st21{fill:#C9646C;}
	.st22{fill:#D4848B;}
	.st23{fill:#D17A81;}
	.st24{fill:#DD9EA3;}
	.st25{fill:#C65760;}
	.st26{fill:#D48189;}
	.st27{fill:#CF6E76;}
	.st28{fill:#C1575F;}
	.st29{fill:#B8424B;}
	.st30{fill:#B33C43;}
	.st31{fill:#BB4952;}
	.st32{fill:#C65E66;}
	.st33{fill:#BC4F57;}
	.st34{fill:#B0353D;}
	.st35{fill:#D67E84;}
	.st36{fill:#C6636B;}
	.st37{fill:#CA6C72;}
	.st38{fill:#B9454D;}
	.st39{fill:#C05B63;}
	.st40{fill:#C0545B;}
	.st41{fill:#BE4C53;}
	.st42{fill:#B43C44;}
	.st43{fill:#DF999F;}
	.st44{fill:#D27980;}
	.st45{fill:#C1555D;}
	.st46{fill:#CB6F76;}
	.st47{fill:#C8676E;}
	.st48{fill:#D5838A;}
	.st49{fill:#C65D64;}
	.st50{fill:#F1D1D4;}
	.st51{fill:#D38087;}
	.st52{fill:#CF737C;}
	.st53{fill:#D98C94;}
	.st54{fill:#E6B3B9;}
	.st55{fill:#D8898F;}
	.st56{fill:#C66269;}
	.st57{fill:#C96A72;}
	.st58{fill:#DD9399;}
	.st59{fill:#CF747B;}
	.st60{fill:#D48188;}
	.st61{fill:#D37D85;}
	.st62{fill:#DC9298;}
	.st63{fill:#D8838B;}
	.st64{fill:#FAECED;}
	.st65{fill:#EFCBD0;}
	.st66{fill:#EDC1C5;}
	.st67{fill:#D28089;}
	.st68{fill:#CB747D;}
	.st69{fill:#A8343C;}
	.st70{fill:#A62F37;}
	.st71{fill:#B03E44;}
	.st72{fill:#C25C63;}
	.st73{fill:#E1A8AC;}
	.st74{fill:#BE535C;}
	.st75{fill:#CE727C;}
	.st76{fill:#F5D8DA;}
	.st77{fill:#D8BAE7;}
	.st78{fill:#BC8FD2;}
	.st79{fill:#B17FC9;}
	.st80{fill:#7D3CA4;}
	.st81{fill:#884BAE;}
	.st82{fill:#A369BF;}
	.st83{fill:#D2B5E2;}
	.st84{fill:#9A62BC;}
	.st85{fill:#B17ECB;}
	.st86{fill:#ECE0F2;}
	.st87{fill:#FBCBC8;}
	.st88{fill:#F5908C;}
	.st89{fill:#F28580;}
	.st90{fill:#E64640;}
	.st91{fill:#E5413B;}
	.st92{fill:#E74E49;}
	.st93{fill:#ED6D68;}
	.st94{fill:#F7B5B0;}
	.st95{fill:#ED6660;}
	.st96{fill:#F48580;}
	.st97{fill:#FBDFDF;}
	.st98{fill:#F9C1C0;}
	.st99{fill:#F7B7B6;}
	.st100{fill:#EF7573;}
	.st101{fill:#EF6F6D;}
	.st102{fill:#F17F7C;}
	.st103{fill:#F4A19F;}
	.st104{fill:#F39998;}
	.st105{fill:#EC7271;}
	.st106{fill:#FAD1CF;}
	.st107{fill:#FADCDC;}
	.st108{fill:#F39391;}
	.st109{fill:#FDECEC;}
	.st110{fill:#FCDDDD;}
	.st111{fill:#ED8280;}
	.st112{fill:#E66160;}
	.st113{fill:#F18784;}
	.st114{fill:#F19593;}
	.st115{fill:#EB7675;}
	.st116{fill:#E86867;}
	.st117{fill:#F28785;}
	.st118{fill:#F3A7A7;}
	.st119{fill:#F08C8B;}
	.st120{fill:#F08785;}
	.st121{fill:#E55D5B;}
	.st122{fill:#E86D6C;}
	.st123{fill:#E85F5D;}
	.st124{fill:#E75958;}
	.st125{fill:#EA6664;}
	.st126{fill:#E76260;}
	.st127{fill:#E04948;}
	.st128{fill:#ED7371;}
	.st129{fill:#EA6B6A;}
	.st130{fill:#EB6763;}
	.st131{fill:#E45352;}
	.st132{fill:#E54E4C;}
	.st133{fill:#DE3635;}
	.st134{fill:#E65958;}
	.st135{fill:#E0413E;}
	.st136{fill:#EA6D6A;}
	.st137{fill:#EE9493;}
	.st138{fill:#EA6866;}
	.st139{fill:#F2A8A6;}
	.st140{fill:#E14543;}
	.st141{fill:#E3413F;}
	.st142{fill:#E64A48;}
	.st143{fill:#E56967;}
	.st144{fill:#E33F3D;}
	.st145{fill:#EB7775;}
	.st146{fill:#EE8483;}
	.st147{fill:#E64845;}
	.st148{fill:#E75655;}
	.st149{fill:#E65451;}
	.st150{fill:#EA7473;}
	.st151{fill:#E55B57;}
	.st152{fill:#E75756;}
	.st153{fill:#EB7472;}
	.st154{fill:#EE8C8A;}
	.st155{fill:#F5A3A2;}
	.st156{fill:#E14A49;}
	.st157{fill:#E14D4C;}
	.st158{fill:#E14B49;}
	.st159{fill:#DE3E3D;}
	.st160{fill:#E45350;}
	.st161{fill:#E14544;}
	.st162{fill:#E54E4B;}
	.st163{fill:#E34240;}
	.st164{fill:#E75C5A;}
	.st165{fill:#EB7C7B;}
	.st166{fill:#F3A2A1;}
	.st167{fill:#EA7877;}
	.st168{fill:#E66B6A;}
	.st169{fill:#E96A69;}
	.st170{fill:#E56160;}
	.st171{fill:#E44845;}
	.st172{fill:#EC7473;}
	.st173{fill:#F9C0D3;}
	.st174{fill:#F298B5;}
	.st175{fill:#EE89A7;}
	.st176{fill:#E54D73;}
	.st177{fill:#E44771;}
	.st178{fill:#E7567E;}
	.st179{fill:#EC7797;}
	.st180{fill:#F8BCCF;}
	.st181{fill:#EB6D8F;}
	.st182{fill:#F089A8;}
	.st183{fill:#FCE2EB;}
	.st184{fill:#E55B7F;}
	.st185{fill:#E6708E;}
	.st186{fill:#EB87A2;}
	.st187{fill:#E25677;}
	.st188{fill:#E7678B;}
	.st189{fill:#FBD7E3;}
	.st190{fill:#ED80A1;}
	.st191{fill:#E24166;}
	.st192{fill:#E13B65;}
	.st193{fill:#E34870;}
	.st194{fill:#E76486;}
	.st195{fill:#F49DB8;}
	.st196{fill:#F7BFD1;}
	.st197{fill:#E65C7F;}
	.st198{fill:#F6ABC4;}
	.st199{fill:#F6A7C2;}
	.st200{fill:#EA6189;}
	.st201{fill:#DB3258;}
	.st202{fill:#DA2E55;}
	.st203{fill:#F7B2C9;}
	.st204{fill:#EA6A8D;}
	.st205{fill:#DC355B;}
	.st206{fill:#DB3159;}
	.st207{fill:#DF3C63;}
	.st208{fill:#F9C5D6;}
	.st209{fill:#EB7697;}
	.st210{fill:#DE3B61;}
	.st211{fill:#DE375F;}
	.st212{fill:#E1426A;}
	.st213{fill:#FDE7EE;}
	.st214{fill:#EE89A9;}
	.st215{fill:#E2456B;}
	.st216{fill:#E14069;}
	.st217{fill:#E44D75;}
	.st218{fill:#E86B8C;}
	.st219{fill:#EE7A9C;}
	.st220{fill:#F5A8C0;}
	.st221{fill:#FACBDA;}
	.st222{fill:#E65A7D;}
	.st223{fill:#E04169;}
	.st224{fill:#FEF5F9;}
	.st225{fill:#F191B0;}
	.st226{fill:#EA7292;}
	.st227{fill:#F6B4C9;}
	.st228{fill:#FBD8E5;}
	.st229{fill:#E96C8F;}
	.st230{fill:#E35477;}
	.st231{fill:#EA7396;}
	.st232{fill:#EB7A9D;}
	.st233{fill:#E8698D;}
	.st234{fill:#EB7094;}
	.st235{fill:#E04B6E;}
	.st236{fill:#E66085;}
	.st237{fill:#EB7294;}
	.st238{fill:#E7678C;}
	.st239{fill:#EA6D91;}
	.st240{fill:#E14C71;}
	.st241{fill:#EE7A9D;}
	.st242{fill:#F393B2;}
	.st243{fill:#DC3F64;}
	.st244{fill:#EF82A3;}
	.st245{fill:#F39DB9;}
	.st246{fill:#DF466B;}
	.st247{fill:#DF4469;}
	.st248{fill:#F29A98;}
	.st249{fill:#E64F4D;}
	.st250{fill:#E74947;}
	.st251{fill:#E85956;}
	.st252{fill:#EC7775;}
	.st253{fill:#F8BCBA;}
	.st254{fill:#EC6F6D;}
	.st255{fill:#FCE2E2;}
	.st256{fill:#F8C8C6;}
	.st257{fill:#F08B89;}
	.st258{fill:#F18A89;}
	.st259{fill:#B093A4;}
	.st260{fill:#A38295;}
	.st261{fill:#6F455A;}
	.st262{fill:#694055;}
	.st263{fill:#794F64;}
	.st264{fill:#936F83;}
	.st265{fill:#CDB7C1;}
	.st266{fill:#B596A5;}
	.st267{fill:#A58394;}
	.st268{fill:#8C667A;}
	.st269{fill:#B696A7;}
	.st270{fill:#E8E0E7;}
	.st271{fill:#E1BCC2;}
	.st272{fill:#A9666E;}
	.st273{fill:#681C23;}
	.st274{fill:#641920;}
	.st275{fill:#73242D;}
	.st276{fill:#8D3F48;}
	.st277{fill:#C69197;}
	.st278{fill:#893841;}
	.st279{fill:#E3CCCE;}
	.st280{fill:#6F292E;}
	.st281{fill:#A15A63;}
	.st282{fill:#944952;}
	.st283{fill:#944953;}
	.st284{fill:#964A53;}
	.st285{fill:#984B54;}
	.st286{fill:#974A53;}
	.st287{fill:#A25A62;}
	.st288{fill:#D2BCC8;}
	.st289{fill:#C8B2BE;}
	.st290{fill:#936A80;}
	.st291{fill:#8E667B;}
	.st292{fill:#9B7589;}
	.st293{fill:#B293A3;}
	.st294{fill:#916B7F;}
	.st295{fill:#DDCCD6;}
	.st296{fill:#AC8B9C;}
	.st297{fill:#F1EBEF;}
	.st298{fill:#9C7A8C;}
	.st299{fill:#8F6C80;}
	.st300{fill:#B99DAC;}
	.st301{fill:#A27F91;}
	.st302{fill:#C2A7B6;}
	.st303{fill:#AB8E9F;}
	.st304{fill:#936D82;}
	.st305{fill:#856174;}
	.st306{fill:#B99DAB;}
	.st307{fill:#C2A9B6;}
	.st308{fill:#A38091;}
	.st309{fill:#BBA3B0;}
	.st310{fill:#7A5468;}
	.st311{fill:#855F73;}
	.st312{fill:#AE8E9F;}
	.st313{fill:#7C556A;}
	.st314{fill:#7B5066;}
	.st315{fill:#855C71;}
	.st316{fill:#AF8E9F;}
	.st317{fill:#734B60;}
	.st318{fill:#694256;}
	.st319{fill:#916A80;}
	.st320{fill:#886378;}
	.st321{fill:#875C71;}
	.st322{fill:#714B5E;}
	.st323{fill:#582F42;}
	.st324{fill:#795066;}
	.st325{fill:#5E3A4B;}
	.st326{fill:#8A6578;}
	.st327{fill:#A98E9D;}
	.st328{fill:#B9A1B1;}
	.st329{fill:#B08F9F;}
	.st330{fill:#B898AA;}
	.st331{fill:#896578;}
	.st332{fill:#653C50;}
	.st333{fill:#623A4E;}
	.st334{fill:#6C4257;}
	.st335{fill:#B28FA1;}
	.st336{fill:#80596E;}
	.st337{fill:#7F586C;}
	.st338{fill:#765063;}
	.st339{fill:#683F53;}
	.st340{fill:#774E63;}
	.st341{fill:#704B5F;}
	.st342{fill:#674355;}
	.st343{fill:#7F5A6E;}
	.st344{fill:#815A6E;}
	.st345{fill:#6A4558;}
	.st346{fill:#5D374A;}
	.st347{fill:#926D80;}
	.st348{fill:#70475B;}
	.st349{fill:#72495E;}
	.st350{fill:#673D52;}
	.st351{fill:#673D51;}
	.st352{fill:#60364B;}
	.st353{fill:#795265;}
	.st354{fill:#683F52;}
	.st355{fill:#7A5368;}
	.st356{fill:#987387;}
	.st357{fill:#70475C;}
	.st358{fill:#A07D92;}
	.st359{fill:#81596E;}
	.st360{fill:#926C7F;}
	.st361{fill:#80596D;}
	.st362{fill:#CDC0E4;}
	.st363{fill:#A998CF;}
	.st364{fill:#644DA1;}
	.st365{fill:#5E479E;}
	.st366{fill:#6F56A9;}
	.st367{fill:#755CAC;}
	.st368{fill:#8975BA;}
	.st369{fill:#C4BAE0;}
	.st370{fill:#755DAD;}
	.st371{fill:#846DB7;}
	.st372{fill:#E7E2F2;}
	.st373{fill:#9B89C5;}
	.st374{fill:#8871B8;}
	.st375{fill:#9C89C6;}
	.st376{fill:#8673B9;}
	.st377{fill:#B9E1BA;}
	.st378{fill:#ADDBAE;}
	.st379{fill:#99D09A;}
	.st380{fill:#65B567;}
	.st381{fill:#5FB261;}
	.st382{fill:#70BB71;}
	.st383{fill:#8DCB8E;}
	.st384{fill:#CBE9CB;}
	.st385{fill:#86C687;}
	.st386{fill:#98D099;}
	.st387{fill:#EBF5EB;}
	.st388{fill:#B9D6C9;}
	.st389{fill:#8EBD9E;}
	.st390{fill:#7DB18E;}
	.st391{fill:#408251;}
	.st392{fill:#3A7F4C;}
	.st393{fill:#4A8C5B;}
	.st394{fill:#68A279;}
	.st395{fill:#B5D4BE;}
	.st396{fill:#7CB38B;}
	.st397{fill:#619D71;}
	.st398{fill:#E0ECE4;}
	.st399{fill:#74A38C;}
	.st400{fill:#679880;}
	.st401{fill:#669780;}
	.st402{fill:#669881;}
	.st403{fill:#285E41;}
	.st404{fill:#235A3C;}
	.st405{fill:#31684A;}
	.st406{fill:#4D8268;}
	.st407{fill:#A1C2B0;}
	.st408{fill:#679981;}
	.st409{fill:#467B62;}
	.st410{fill:#D6E5DF;}
	.st411{fill:#8ECA8F;}
	.st412{fill:#7DC07F;}
	.st413{fill:#409841;}
	.st414{fill:#3A933C;}
	.st415{fill:#4AA14B;}
	.st416{fill:#68B569;}
	.st417{fill:#7CC07D;}
	.st418{fill:#B5DDB5;}
	.st419{fill:#61B062;}
	.st420{fill:#7CC17E;}
	.st421{fill:#E0EFE0;}
	.st422{fill:#EBF5DE;}
	.st423{fill:#D4EAB8;}
	.st424{fill:#D2E9B4;}
	.st425{fill:#D8ECBE;}
	.st426{fill:#E2F0CE;}
	.st427{fill:#F3F9EA;}
	.st428{fill:#DFF0CA;}
	.st429{fill:#FAFDF7;}
	.st430{fill:#D3C9BE;}
	.st431{fill:#CBBEB3;}
	.st432{fill:#BBAC9F;}
	.st433{fill:#97826F;}
	.st434{fill:#947E69;}
	.st435{fill:#9F8A79;}
	.st436{fill:#B5A495;}
	.st437{fill:#DED6CE;}
	.st438{fill:#BBAD9F;}
	.st439{fill:#AE9E8D;}
	.st440{fill:#F2EFEC;}
	.st441{fill:#B1A091;}
	.st442{fill:#B1A090;}
	.st443{fill:#D8BACF;}
	.st444{fill:#976286;}
	.st445{fill:#905778;}
	.st446{fill:#4F1939;}
	.st447{fill:#4C1637;}
	.st448{fill:#5A2144;}
	.st449{fill:#773B60;}
	.st450{fill:#B88FAD;}
	.st451{fill:#6E345A;}
	.st452{fill:#8E567D;}
	.st453{fill:#E1CCDA;}
	.st454{fill:#C4E2A7;}
	.st455{fill:#93C35F;}
	.st456{fill:#8EC15A;}
	.st457{fill:#9AC868;}
	.st458{fill:#B0D587;}
	.st459{fill:#DCEBC3;}
	.st460{fill:#C8E0AA;}
	.st461{fill:#ABD280;}
	.st462{fill:#CAE2A9;}
	.st463{fill:#EFF8E7;}
	.st464{fill:#FFF6C0;}
	.st465{fill:#FFEC97;}
	.st466{fill:#FFDC4B;}
	.st467{fill:#FFD945;}
	.st468{fill:#FFDD54;}
	.st469{fill:#FFE774;}
	.st470{fill:#FFF4BA;}
	.st471{fill:#FFE46C;}
	.st472{fill:#FFF9E2;}
	.st473{fill:#FDE2C1;}
	.st474{fill:#F9CA98;}
	.st475{fill:#F9C18A;}
	.st476{fill:#F5994E;}
	.st477{fill:#F49448;}
	.st478{fill:#F8A158;}
	.st479{fill:#F8B577;}
	.st480{fill:#FCDDBC;}
	.st481{fill:#F8B06F;}
	.st482{fill:#FFEFE2;}
	.st483{fill:#F8A7A4;}
	.st484{fill:#EF8262;}
	.st485{fill:#EC605A;}
	.st486{fill:#EB5B55;}
	.st487{fill:#EC6964;}
	.st488{fill:#F28783;}
	.st489{fill:#F9C4C1;}
	.st490{fill:#F2817A;}
	.st491{fill:#EB6449;}
	.st492{fill:#FCE7E7;}
	.st493{fill:#FFEA88;}
	.st494{fill:#FFEB87;}
	.st495{fill:#FDF2E3;}
	.st496{fill:#FDEFDD;}
	.st497{fill:#F9E1C4;}
	.st498{fill:#FADEB9;}
	.st499{fill:#FADDB7;}
	.st500{fill:#FAE0BF;}
	.st501{fill:#FBE9CF;}
	.st502{fill:#F9DAB8;}
	.st503{fill:#FDF5EB;}
	.st504{fill:#FBE6CB;}
	.st505{fill:#FFFBF7;}
	.st506{fill:#FBDFBE;}
	.st507{fill:#F7D8B5;}
	.st508{fill:#FBE8CF;}
	.st509{fill:#FBE3C8;}
	.st510{fill:#F9E8CF;}
	.st511{fill:#F8DBB7;}
	.st512{fill:#FADBB5;}
	.st513{fill:#F7D5AE;}
	.st514{fill:#FDE9D5;}
	.st515{fill:#FAE3C8;}
	.st516{fill:#F7D1A4;}
	.st517{fill:#F5CD9D;}
	.st518{fill:#F7D8B0;}
	.st519{fill:#F8D4A9;}
	.st520{fill:#F8D3A6;}
	.st521{fill:#F8D8AF;}
	.st522{fill:#F7CD9E;}
	.st523{fill:#F4C896;}
	.st524{fill:#FBE3C5;}
	.st525{fill:#F7DBB8;}
	.st526{fill:#F7D8B1;}
	.st527{fill:#F7D7B0;}
	.st528{fill:#F8CD9F;}
	.st529{fill:#F8CD9E;}
	.st530{fill:#F1BE84;}
	.st531{fill:#F8D0A3;}
	.st532{fill:#F1C38D;}
	.st533{fill:#F8D8B1;}
	.st534{fill:#FBE2C8;}
	.st535{fill:#F9EAD3;}
	.st536{fill:#F9D3AA;}
	.st537{fill:#F7C896;}
	.st538{fill:#F7C794;}
	.st539{fill:#F7CA9A;}
	.st540{fill:#F7D3AB;}
	.st541{fill:#F8D8B5;}
	.st542{fill:#F9E6CF;}
	.st543{fill:#F7C897;}
	.st544{fill:#F8D3AA;}
	.st545{fill:#F7CEA2;}
	.st546{fill:#F4CD9E;}
	.st547{fill:#F5D2A5;}
	.st548{fill:#FBE2C2;}
	.st549{fill:#F5D1A8;}
	.st550{fill:#F8D5AB;}
	.st551{fill:#F2C695;}
	.st552{fill:#F8D3A8;}
	.st553{fill:#F5C998;}
	.st554{fill:#F5C894;}
	.st555{fill:#F2C997;}
	.st556{fill:#F2C48D;}
	.st557{fill:#F4C694;}
	.st558{fill:#F5CE9D;}
	.st559{fill:#F4C594;}
	.st560{fill:#F5C995;}
	.st561{fill:#F4C48F;}
	.st562{fill:#F7D2A6;}
	.st563{fill:#F8DFBB;}
	.st564{fill:#FBE2C3;}
	.st565{fill:#F8CC9E;}
	.st566{fill:#FADFC1;}
	.st567{fill:#F9D8B5;}
	.st568{fill:#F4C997;}
	.st569{fill:#F9DDB8;}
	.st570{fill:#FDFCED;}
	.st571{fill:#FBF7D2;}
	.st572{fill:#F9F6CB;}
	.st573{fill:#F4EBA8;}
	.st574{fill:#F5E9A6;}
	.st575{fill:#F5EDAC;}
	.st576{fill:#F7F5C0;}
	.st577{fill:#FBFBE1;}
	.st578{fill:#F7F0BE;}
	.st579{fill:#FAF6CE;}
	.st580{fill:#FFFBF5;}
	.st581{fill:#BDDB97;}
	.st582{fill:#BBDC99;}
	.st583{fill:#BDDD99;}
	.st584{fill:#B0D484;}
	.st585{fill:#AFD484;}
	.st586{fill:#FFEA87;}
	.st587{fill:#D3E9BA;}
	.st588{fill:#E1EECE;}
	.st589{fill:#D3E8BB;}
	.st590{fill:#E3EECE;}
	.st591{opacity:0.9;}
	.st592{fill:#FFF8CD;}
	.st593{opacity:0.9;fill:#FFEE8A;}
	.st594{fill:#FFF19E;}
	.st595{fill:#FFF5B6;}
	.st596{fill:#FFFBE0;}
	.st597{fill:none;stroke:#FFF4B1;stroke-width:0;}
	.st598{fill:#FFFDF3;}
	.st599{fill:#FACEDD;}
	.st600{opacity:0.9;fill:#F38CAF;}
	.st601{fill:#F5A0BD;}
	.st602{fill:#F8B8CD;}
	.st603{fill:#FCE1EA;}
	.st604{fill:none;stroke:#F7B2C9;stroke-width:0;}
	.st605{fill:#FEF3F7;}
	.st606{fill:#FBDBB6;}
	.st607{fill:#FBD1A3;}
	.st608{fill:#F9B674;}
	.st609{fill:#F8B36E;}
	.st610{fill:#FABB7E;}
	.st611{fill:#FACB99;}
	.st612{fill:#FDE9D1;}
	.st613{fill:#FAC893;}
	.st614{fill:#F9D0A1;}
	.st615{fill:#FFF5EC;}
	.st616{fill:#D7ECC0;}
	.st617{fill:#B1D684;}
	.st618{fill:#ADD680;}
	.st619{fill:#B7D98D;}
	.st620{fill:#C8E2A7;}
	.st621{fill:#E8F2D6;}
	.st622{fill:#C3E0A0;}
	.st623{fill:#F5FAEF;}
	.st624{fill:#A87699;}
	.st625{fill:#A9716E;}
	.st626{fill:#9F698A;}
	.st627{fill:#9F698D;}
	.st628{fill:#65294F;}
	.st629{fill:#632638;}
	.st630{fill:#62244A;}
	.st631{fill:#612335;}
	.st632{fill:#6E3259;}
	.st633{fill:#6D2F40;}
	.st634{fill:#8B4E74;}
	.st635{fill:#C4A1BB;}
	.st636{fill:#9D688D;}
	.st637{fill:#82476E;}
	.st638{fill:#E7D6E1;}
	.st639{fill:#FFF9D6;}
	.st640{fill:#FFF2A6;}
	.st641{fill:#FFF4B0;}
	.st642{fill:#FFF7C4;}
	.st643{fill:#FFFCE6;}
	.st644{fill:#FFF3B5;}
	.st645{fill:#FFED8B;}
	.st646{fill:#FFED94;}
	.st647{fill:#FFF1A4;}
	.st648{fill:#FFF5BF;}
	.st649{fill:#FFF6CD;}
	.st650{fill:#FFE46E;}
	.st651{fill:#FFED98;}
	.st652{fill:#FFF3A9;}
	.st653{fill:#FFEC8D;}
	.st654{fill:#FFE66B;}
	.st655{fill:#FFEC8A;}
	.st656{fill:#FFE66D;}
	.st657{fill:#FFE571;}
	.st658{fill:#FFEF94;}
	.st659{fill:#FFEF9E;}
	.st660{fill:#FFED93;}
	.st661{fill:#FFE873;}
	.st662{fill:#FFE97A;}
	.st663{fill:#FFEC87;}
	.st664{fill:#FFF19F;}
	.st665{fill:#FFF1A8;}
	.st666{fill:#FFEA7E;}
	.st667{fill:#FFEB86;}
	.st668{fill:#FFEF97;}
	.st669{fill:#FFF2B0;}
	.st670{fill:#FFF4BC;}
	.st671{fill:#FFF5C1;}
	.st672{fill:#FFF8CF;}
	.st673{fill:#FFF8DC;}
	.st674{fill:#FFF0A0;}
	.st675{fill:#FFEE92;}
	.st676{fill:#FFF6CE;}
	.st677{fill:#FFFADD;}
	.st678{fill:#FFFBEC;}
	.st679{fill:#FFFDF5;}
	.st680{fill:#F49C52;}
	.st681{fill:#F69D52;}
	.st682{fill:#F8A55E;}
	.st683{fill:#F8B472;}
	.st684{fill:#F59D54;}
	.st685{fill:#F8A65F;}
	.st686{fill:#F8B474;}
	.st687{fill:#FDF3E9;}
	.st688{fill:#FAE8D1;}
	.st689{fill:#FAE8CF;}
	.st690{fill:#FAEBD4;}
	.st691{fill:#F9EDD7;}
	.st692{fill:#FBEFDE;}
	.st693{fill:#FBEFDD;}
	.st694{fill:#FDF8F1;}
	.st695{fill:#FBEDD7;}
	.st696{fill:#FBEFDC;}
	.st697{fill:#FFFBFA;}
	.st698{fill:#FFE771;}
	.st699{fill:#FFEB83;}
	.st700{fill:#FFED90;}
	.st701{fill:#F7B6CB;}
	.st702{fill:#F4A2BB;}
	.st703{fill:#EE7397;}
	.st704{fill:#ED6D94;}
	.st705{fill:#EF7C9F;}
	.st706{fill:#F399B5;}
	.st707{fill:#FAD1DE;}
	.st708{fill:#F291AE;}
	.st709{fill:#F3A1BB;}
	.st710{fill:#FDECF2;}
</style>
<g>
	<path class="st362" d="M78.97,84.49c0.33,0.12,0.76,0.28,1.3,0.52l0,0C79.73,84.78,79.3,84.61,78.97,84.49L78.97,84.49
		 M78.44,84.29L78.44,84.29c0.13,0.07,0.3,0.12,0.5,0.19c0.01,0,0.02,0.01,0.03,0.01c-0.01,0-0.02-0.01-0.03-0.01c0,0-0.01,0-0.01,0
		C78.74,84.4,78.58,84.36,78.44,84.29L78.44,84.29L78.44,84.29 M77.89,83.5L77.89,83.5c0,0.1,0.03,0.29,0.24,0.52
		c0,0,0,0.01,0.01,0.01c0,0,0-0.01-0.01-0.01l0,0C77.93,83.79,77.89,83.6,77.89,83.5L77.89,83.5 M77.97,83.38
		c-0.02,0.02-0.03,0.04-0.06,0.05c0,0,0,0-0.01,0l-0.01,0.07l0,0l0.01-0.07C77.93,83.42,77.95,83.4,77.97,83.38L77.97,83.38
		 M77.85,82.51L77.85,82.51c0.01,0.01,0.01,0.03,0.02,0.04l0,0C77.86,82.54,77.86,82.53,77.85,82.51L77.85,82.51 M76.65,81.09
		c0.21,0.22,0.47,0.39,0.77,0.49l0,0C77.11,81.47,76.86,81.3,76.65,81.09L76.65,81.09 M75.4,76.88L75.4,76.88
		c0,0,0.01,1.02,0.26,2.11c0.01,0.04,0.02,0.08,0.03,0.12l0,0c-0.01-0.04-0.02-0.07-0.03-0.11c0,0,0-0.01,0-0.01
		C75.41,77.9,75.4,76.88,75.4,76.88 M75.42,76.85l-0.02,0.04l0,0L75.42,76.85L75.42,76.85 M76.21,74.1L76.21,74.1
		c0,0.01-0.01,0.03-0.01,0.04C76.2,74.13,76.21,74.11,76.21,74.1L76.21,74.1 M76.88,72.38c-0.05,0.07-0.1,0.15-0.15,0.22
		c0,0,0,0,0,0c0,0,0,0,0,0C76.78,72.53,76.83,72.46,76.88,72.38L76.88,72.38 M77.7,69.81l-0.01,0.23c-0.01,0.14-0.02,0.29-0.05,0.44
		l0,0c0.02-0.15,0.04-0.29,0.05-0.44L77.7,69.81L77.7,69.81 M77.63,69.08c0.03,0.2,0.06,0.47,0.06,0.73l0,0
		C77.7,69.54,77.67,69.28,77.63,69.08L77.63,69.08 M80.1,68.43c0,0-0.01,0-0.01,0l-1.19,0.26l1.19-0.26
		C80.09,68.43,80.09,68.43,80.1,68.43L80.1,68.43"/>
	<path class="st362" d="M50.77,96.19c0,0,0.01,0.01,0.01,0.01l0,0C50.78,96.2,50.77,96.2,50.77,96.19L50.77,96.19 M50.75,96.18
		C50.75,96.18,50.75,96.18,50.75,96.18L50.75,96.18C50.75,96.18,50.75,96.18,50.75,96.18L50.75,96.18 M50.75,96.17L50.75,96.17
		l0.03,0.04l0,0L50.75,96.17 M50.83,96.03l-0.02,0.05l-0.06-0.01l0.06,0.01L50.83,96.03L50.83,96.03 M49.76,95.68L49.76,95.68
		c0.01,0,0.01,0.01,0.02,0.01l0,0C49.78,95.69,49.77,95.68,49.76,95.68L49.76,95.68 M50.56,95.38
		C50.56,95.38,50.56,95.38,50.56,95.38c0.08,0.14,0.12,0.26,0.17,0.34c0.08,0.18,0.1,0.27,0.1,0.31l0,0c0,0,0,0,0-0.01
		c0-0.05-0.02-0.14-0.1-0.31l0,0c0,0,0-0.01,0-0.01C50.68,95.63,50.64,95.52,50.56,95.38L50.56,95.38
		C50.56,95.38,50.56,95.38,50.56,95.38 M48.99,95.29c0.16,0.08,0.34,0.17,0.54,0.27l0,0C49.33,95.46,49.15,95.37,48.99,95.29
		L48.99,95.29 M47.95,94.81L47.95,94.81c0.07,0.03,0.15,0.07,0.22,0.1c0,0,0.31,0.14,0.77,0.36l0,0c-0.46-0.21-0.77-0.36-0.77-0.36
		l0,0C48.1,94.88,48.03,94.85,47.95,94.81 M49.68,93.33L49.68,93.33c0.31,0.59,0.52,1.08,0.66,1.49c0.04,0.12,0.07,0.23,0.1,0.34
		c0.04,0.09,0.08,0.15,0.12,0.22l0,0c-0.03-0.07-0.08-0.13-0.12-0.22l0,0l0,0c-0.03-0.11-0.07-0.22-0.1-0.34l0,0l0,0
		C50.2,94.4,49.99,93.92,49.68,93.33"/>
	<path class="st363" d="M77.45,67.73c-0.27,0-0.6,0.03-1,0.12c-1.07,0.2-2.19,0.78-3.36,1.32c-1.17,0.55-2.42,1.07-3.83,1.38
		c-0.04,0.01-0.08,0.01-0.13,0.01c-0.19,0-0.37-0.1-0.52-0.26c0.16,0.19,0.37,0.32,0.58,0.32c0.04,0,0.08,0,0.12-0.01
		c1.41-0.32,2.66-0.83,3.83-1.38c1.17-0.54,2.28-1.12,3.35-1.32c0.41-0.09,0.74-0.13,1.01-0.13c0.38,0,0.62,0.07,0.76,0.17
		c0.24,0.16,0.63,0.1,1.47,0.17c0.32,0.01,0.64,0.07,0.96,0.18l0,0l0,0l0,0l-0.59,0.13c0.42-0.09,0.85-0.19,1.27-0.28
		c-0.11-0.12-0.24-0.24-0.37-0.36c-0.42,0.08-0.83,0.17-1.24,0.26c-0.85-0.06-1.27-0.01-1.52-0.15
		C78.08,67.8,77.84,67.73,77.45,67.73"/>
	<path class="st363" d="M74.63,104.81C74.63,104.81,74.64,104.81,74.63,104.81L74.63,104.81L74.63,104.81L74.63,104.81L74.63,104.81
		L74.63,104.81C74.64,104.81,74.63,104.81,74.63,104.81L74.63,104.81L74.63,104.81L74.63,104.81L74.63,104.81 M78.89,104.14
		L78.89,104.14L78.89,104.14l-0.01,0L78.89,104.14 M81.36,68.15c-0.42,0.09-0.84,0.19-1.27,0.28l-0.03,0.01l-1.18,0.26l-1.28,0.28
		l0,0c0.01,0.03,0.01,0.06,0.02,0.1c0.06,0.23,0.09,0.46,0.09,0.71l0,0c0,0.22-0.03,0.45-0.08,0.69c-0.1,0.6-0.33,1.24-0.76,1.91
		c-0.42,1.01-0.79,1.95-0.96,2.99c-0.02,0.03-0.05,0.08-0.08,0.14c-0.01,0.08-0.02,0.15-0.02,0.22l0,0c0,0.1,0.01,0.18,0.04,0.23
		c0,0,0,0,0,0l0,0l0,0l0,0l0,0l0,0l0,0l-0.46,0.87c0.21,0.73,0.18,1.52,0.27,2.27c0.18,0.72,0.46,1.47,0.96,1.97
		c0.21,0.18,0.46,0.34,0.77,0.49c0.02,0.01,0.04,0.01,0.07,0.02l0,0c0,0,0,0,0.01,0.01c0.02,0.01,0.04,0.02,0.05,0.02
		c0.17,0.36,0.27,0.66,0.33,0.92c0.08,0.24,0.15,0.47,0.15,0.63l0,0l0,0l0,0l0,0l0,0l0,0l0,0l0,0l0,0l0,0
		c0,0.08-0.01,0.14-0.05,0.19c0,0.04,0.01,0.08,0.01,0.12c0.02,0.21,0.08,0.39,0.22,0.56c0.07,0.09,0.17,0.18,0.3,0.25
		c0.13,0.06,0.29,0.11,0.5,0.18c0.43,0.14,0.86,0.32,1.28,0.52c0.11,0.05,0.23,0.1,0.35,0.16l0,0l0,0l0,0l0,0
		c-0.12-0.06-0.24-0.11-0.35-0.16c0.39,0.19,0.76,0.42,1.11,0.66c1.1,0.77,1.84,1.82,1.84,2.69l0,0c0,0.05,0,0.11-0.01,0.16
		c-0.09,0.95-0.68,1.8-1.68,2.37c-0.06,0.05-0.2,0.07-0.39,0.07c-0.85,0-2.75-0.4-3.43-0.62c-0.2-0.06-0.38-0.08-0.53-0.08
		c-0.46,0-0.71,0.23-0.84,0.59l0,0l0,0l0,0l0,0c0.04-0.21,0.1-0.42,0.18-0.62c-0.55,0.21-1.32,0.24-1.84,0.48
		c-0.99,0.57-1.11,1.82-1.62,2.86c-0.35,0.38-0.75,0.64-1.33,0.96c-0.53,0.24-0.66,0.71-0.66,1.26c0,0.38,0.06,0.8,0.09,1.19
		c0.02,0.11,0.04,0.22,0.04,0.33l0,0c0,1.06-1.06,2.01-1.1,3.14c0,0.06-0.01,0.12-0.01,0.18c0,0.75,0.34,1.47,0.62,2.13
		c0.15,0.36,0.29,0.7,0.34,1.03c0.01,0.1,0.02,0.19,0.02,0.29l0,0c0,0.25-0.05,0.51-0.15,0.83c0.05-0.13,0.1-0.19,0.15-0.19
		c0.08,0,0.14,0.19,0.22,0.5c0.11,0.47,0.39,1.44,1.12,2.11c0.7,0.7,1.55,0.96,2.01,1.12c0.3,0.1,0.48,0.17,0.48,0.23l0,0
		c0,0.03-0.05,0.05-0.17,0.07c0.18,0.04,0.54,0.56,0.64,0.93l0,0l0,0l0,0l0,0c-0.01,0.05-0.01,0.1-0.01,0.15
		c0,0.09,0.01,0.2,0.01,0.29l0,0c0,0.15-0.02,0.29-0.11,0.35c-0.71,0.46-1.23,1.01-1.65,1.63c-0.42,0.62-0.76,1.28-1.4,1.77
		c0.05,0.05,0.72,0.3,1.61,0.48c0.86,0.17,1.9,0.26,2.9,0.26c0.02,0,0.03,0,0.05,0c0.03,0,0.05,0,0.08,0c0.98,0,2-0.09,2.87-0.18
		c0.18-0.01,0.35-0.01,0.52-0.01c0.48,0,0.92,0.03,1.28,0.11c0.98,0.27,1.97,0.56,2.97,0.56c0.56,0,1.13-0.09,1.69-0.33
		c0.34-0.29,0.2-0.96,0.52-1.24c0.2-0.13,0.81-0.87,1.49-1.93c0.68-1.06,1.41-2.42,2.02-3.76c1.23-2.69,1.97-5.27,2.49-5.52
		c0.26-0.08,0.61-0.13,0.95-0.13c0.54,0,1.08,0.13,1.31,0.46c1.27,1.35,2.69,0.96,4.18,1.53c0.37,0.19,0.56,0.75,0.93,0.94
		c0.56,0.2,1.23,0.33,1.86,0.33c0.61,0,1.19-0.13,1.57-0.47c0.78-0.46,1.52-1.14,2.12-1.91c0.59-0.75,1.11-1.75,1.35-2.6
		c0.59-1.08,1.13-2.19,1.61-3.32c0.01-0.17,0.01-0.34,0.01-0.51c0-1.01-0.12-2-0.35-2.95c-0.02-0.11-0.04-0.21-0.06-0.29
		c-0.3-1.32-0.69-1.83-0.69-2.3l0,0c0-0.14,0.03-0.28,0.11-0.43c0-0.01,0-0.01,0-0.02c0-0.32-2.03-1.63-3.07-3.62
		c-0.04,0.03-0.31,0.26-0.78,0.65c0.16,0.25,0.39,0.67,0.64,1.21c0.43,0.93,0.86,2.26,0.94,3.7c0.01,0.15,0.01,0.29,0.01,0.44l0,0
		c0,2.22-0.99,4.57-3.42,5.19c0,0-0.16,0.12-0.43,0.32c-0.27,0.2-0.69,0.49-1.16,0.75c-0.95,0.54-2.22,1.12-3.49,1.43
		c-0.75,0.19-1.5,0.29-2.19,0.29c-1.67,0-3-0.59-3.32-1.97c0,0-0.11-0.46-0.29-1.26c-0.19-0.79-0.46-1.9-0.83-3.16
		c-0.7-2.56-2.08-5.4-3.61-7.4c-0.66-0.89-1.32-1.62-1.84-2.25c-0.5-0.75-0.87-1.56-0.99-2.48c0,0,0-0.65-2.07-1.93
		c0,0-0.57-0.87-0.84-1.94c-0.08-0.33-0.14-0.68-0.14-1.04l0,0c0-0.79,0.27-1.59,1.13-2.24c0,0,0.78-1.22,1.39-2.74
		c0.31-0.77,0.58-1.63,0.68-2.4c-0.66-0.23-1.25-0.51-1.61-0.83C82.3,69.31,81.94,68.76,81.36,68.15"/>
	<path class="st363" d="M78.89,68.7l-0.66,0.14l-0.63,0.14l0,0l0,0l0,0.01l0.02,0.08c0,0,0,0.01,0,0.01
		c-0.01-0.04-0.01-0.07-0.02-0.1l0,0L78.89,68.7"/>
	<path class="st363" d="M77.64,70.47c-0.02,0.09-0.05,0.18-0.08,0.28c-0.23,0.58-0.46,1.12-0.68,1.63
		C77.31,71.72,77.54,71.07,77.64,70.47"/>
	<path class="st363" d="M75.85,75.52c-0.17,0.34-0.42,1.04-0.44,1.29c0,0.01,0.01,0.03,0.01,0.04l0.46-0.87c0,0,0,0,0,0
		c-0.03-0.06-0.04-0.14-0.04-0.23l0,0l0,0l0,0l0,0l0,0l0,0l0,0l0,0l0,0l0,0l0,0l0,0l0,0l0,0C75.83,75.67,75.84,75.6,75.85,75.52"/>
	<path class="st363" d="M95.75,78.44c0.23,0.55,0.48,1.09,0.76,1.63c0.75,1.4,1.68,2.75,2.87,4.08c-0.78-1.51-1.67-2.85-2.54-4.15
		C96.48,79.47,96.12,78.95,95.75,78.44"/>
	<path class="st363" d="M75.69,79.12c0.09,0.73,0.3,1.41,0.96,1.97C76.15,80.59,75.87,79.83,75.69,79.12"/>
	<path class="st363" d="M87.88,79.41c-0.01,0.14-0.02,0.29-0.02,0.46c0,0.44,0.05,0.94,0.19,1.49c0.06,0.26,0.15,0.52,0.25,0.78
		c-0.02-0.23-0.06-0.5-0.1-0.81C88.12,80.72,88.01,80.01,87.88,79.41"/>
	<path class="st363" d="M77.42,81.57c0.02,0.01,0.05,0.02,0.07,0.03c0-0.01-0.01-0.01-0.01-0.01
		C77.46,81.59,77.44,81.58,77.42,81.57"/>
	<path class="st363" d="M77.87,82.56c0.07,0.33,0.08,0.59,0.1,0.82c0.03-0.05,0.05-0.11,0.05-0.19
		C78.02,83.02,77.95,82.8,77.87,82.56"/>
	<path class="st363" d="M92.07,86.92c0.64,0.64,1.36,1.37,2.16,2.22c0,0,0.16,0.09,0.45,0.23C93.84,88.46,92.93,87.65,92.07,86.92"
		/>
	<path class="st363" d="M103.25,88.06c-0.19,0.16-0.39,0.33-0.62,0.52c0.03,0.11,0.05,0.23,0.07,0.36
		C102.89,88.68,103.08,88.39,103.25,88.06"/>
	<path class="st363" d="M77.42,88.77c-0.06,0.12-0.12,0.24-0.16,0.36c0.12-0.12,0.26-0.23,0.4-0.34
		C77.58,88.79,77.5,88.78,77.42,88.77"/>
	<path class="st364" d="M80.68,58.76c-0.13,0-0.26,0-0.39,0c-0.55,0.01-1.11,0.05-1.67,0.13c-0.54,0.07-1.2,0.18-2.04,0.43
		c-0.42,0.21-0.89,0.46-1.16,0.83c-0.26,0.34-1.31,0.76-1.8,1.24c-1.77,0.98-3.24,2.51-4.12,3.92c-0.88,1.41-1.32,2.7-1.32,3.84
		c0,0.02,0,0.04,0,0.05l0,0l0,0l0,0l0,0c0,0,0,0,0,0.01c0,0.38,0.17,0.81,0.43,1.08c-0.23-0.27-0.38-0.66-0.38-1.01
		c0-0.03,0-0.05,0-0.08l0,0c0-1.12,0.43-2.4,1.29-3.78c0.85-1.39,2.29-2.92,4.04-3.92c0.48-0.49,1.53-0.92,1.79-1.26
		c0.27-0.37,0.74-0.63,1.17-0.84c0.84-0.25,1.51-0.37,2.05-0.44c0.56-0.08,1.12-0.12,1.67-0.13c0.13,0,0.26,0,0.4,0
		c0.97,0,1.94,0.09,2.94,0.26c0.01,0,0.03,0,0.04,0c0.84,0,1.59-0.04,2.31-0.09c0.73-0.04,1.43-0.09,2.17-0.09
		c0.58,0,1.19,0.03,1.85,0.1c0.28,0.05,0.55,0.09,0.82,0.11c0.3,0.03,0.68,0.05,1.17,0.12c0.49,0.08,1.09,0.2,1.79,0.5
		c0.69,0.29,1.47,0.83,2.02,1.45c1.11,1.27,1.36,2.41,1.49,3.12c0.04,0.26,0.05,0.46,0.05,0.64l0,0c0,0.08,0,0.16-0.01,0.24
		c-0.01,0.26-0.04,0.53-0.09,0.8c-0.05,0.48-0.07,0.92-0.07,1.34c0,2.15,0.64,3.76,2.18,6.61c0.49,0.9,1.18,2.68,1.88,4.48
		c0.7,1.78,1.42,3.62,2.08,4.62c0.93,1,0.56,2.52,1.21,3.86c0.01,0.03,0.03,0.06,0.04,0.08c0,0,0.01,0,0.01,0
		c-0.65-1.35-0.27-2.86-1.2-3.87c-0.66-1.01-1.38-2.85-2.08-4.63c-0.7-1.8-1.39-3.59-1.88-4.48c-1.55-2.85-2.18-4.47-2.18-6.62l0,0
		c0-0.42,0.02-0.86,0.07-1.34c0.06-0.28,0.08-0.55,0.1-0.81c0-0.09,0.01-0.18,0.01-0.26c0-0.17-0.01-0.35-0.05-0.59
		c-0.12-0.69-0.34-1.79-1.41-3.08c-0.52-0.62-1.3-1.21-2.01-1.53c-0.71-0.33-1.35-0.47-1.85-0.56c-0.51-0.08-0.92-0.11-1.23-0.14
		c-0.29-0.03-0.54-0.06-0.83-0.11c-0.67-0.08-1.29-0.1-1.88-0.1c-0.73,0-1.43,0.04-2.15,0.08c-0.72,0.04-1.46,0.08-2.29,0.08
		c-0.02,0-0.04,0-0.06,0C82.62,58.85,81.65,58.76,80.68,58.76"/>
	<path class="st365" d="M80.64,58.83c-0.13,0-0.26,0-0.4,0c-0.55,0.01-1.11,0.06-1.67,0.13c-0.54,0.07-1.21,0.19-2.05,0.44
		c-0.42,0.21-0.89,0.47-1.17,0.84c-0.26,0.34-1.31,0.78-1.79,1.26c-1.75,1-3.19,2.53-4.04,3.92c-0.86,1.38-1.29,2.65-1.29,3.78
		c0,0.03,0,0.05,0,0.08c0,0.35,0.15,0.74,0.38,1.01c0.15,0.16,0.33,0.26,0.52,0.26c0.04,0,0.08,0,0.13-0.01
		c1.41-0.32,2.66-0.83,3.83-1.38c1.17-0.54,2.29-1.12,3.36-1.32c0.41-0.08,0.74-0.12,1-0.12c0.38,0,0.63,0.07,0.78,0.17
		c0.26,0.14,0.68,0.09,1.52,0.15c0.41-0.09,0.82-0.18,1.24-0.26c-0.04-0.04-0.08-0.07-0.12-0.11c-0.64-0.57-1.52-1.09-2.18-1.09
		c-0.21,0-0.39,0.05-0.54,0.17c0,0-0.34-0.14-0.85-0.25c-0.15-0.04-0.32-0.06-0.52-0.06c-0.45,0-1.01,0.11-1.54,0.35
		c-0.77,0.33-1.45,0.79-1.94,0.85c-0.04,0-0.07,0.01-0.1,0.01c-0.3,0-0.54-0.19-0.54-0.73l0,0c0-0.2,0.03-0.46,0.11-0.77
		c0,0,0.01-0.19,0.08-0.51c0.07-0.32,0.18-0.78,0.42-1.3c0.23-0.52,0.59-1.08,1.03-1.56c0.44-0.48,0.91-0.84,1.28-1.08
		c0,0,0.38-0.16,0.97-0.31c0.6-0.16,1.39-0.28,2.15-0.34c0.97-0.08,2.16-0.13,3.43-0.13c0.7,0,1.43,0.02,2.16,0.06
		c2.04,0.11,4.09,0.39,5.65,0.76c0.4,0.1,0.73,0.18,1.12,0.29c0.38,0.11,0.77,0.26,1.1,0.46c0.65,0.38,0.92,0.9,0.93,1.12l0,0
		c0,0.01,0,0.03,0,0.04c0,0,0.21,0.34,0.31,0.88c0.11,0.55,0.08,1.22,0.12,2.04c0.06,1.65,0.22,3.87,0.64,6.24
		c0.33,1.83,0.81,3.76,1.58,5.62c0.37,0.51,0.73,1.03,1.09,1.56c0.87,1.3,1.76,2.65,2.54,4.15c0.8,0.91,1.71,1.8,2.75,2.71
		c0,0,0.23,0.6,0.45,1.54c0.01,0.06,0.03,0.12,0.04,0.18c0.23-0.19,0.43-0.36,0.62-0.52c0.11-0.22,0.22-0.45,0.31-0.7
		c0,0,0.07,0.1,0.18,0.28c0.47-0.4,0.74-0.62,0.78-0.65c-0.01-0.03-0.03-0.06-0.04-0.08c-0.65-1.34-0.28-2.85-1.21-3.86
		c-0.66-1-1.38-2.84-2.08-4.62c-0.7-1.8-1.4-3.58-1.88-4.48c-1.55-2.85-2.19-4.47-2.18-6.61l0,0c0-0.42,0.02-0.86,0.07-1.34
		c0.05-0.28,0.08-0.54,0.09-0.8c0-0.08,0.01-0.16,0.01-0.24c0-0.18-0.01-0.38-0.05-0.64c-0.13-0.71-0.38-1.84-1.49-3.12
		c-0.55-0.62-1.33-1.16-2.02-1.45c-0.7-0.3-1.3-0.42-1.79-0.5c-0.49-0.07-0.88-0.09-1.17-0.12c-0.27-0.02-0.54-0.06-0.82-0.11
		c-0.66-0.07-1.27-0.1-1.85-0.1c-0.74,0-1.44,0.04-2.17,0.09c-0.73,0.04-1.48,0.09-2.31,0.09c-0.01,0-0.03,0-0.04,0
		C82.58,58.92,81.61,58.83,80.64,58.83"/>
	<path class="st366" d="M91.34,65.14L91.34,65.14L91.34,65.14 M91.34,65.14L91.34,65.14L91.34,65.14 M91.34,65.14L91.34,65.14
		L91.34,65.14 M82.15,60.93c-1.27,0-2.46,0.06-3.43,0.13c-0.76,0.06-1.56,0.18-2.15,0.34c-0.59,0.15-0.97,0.31-0.97,0.31
		c-0.38,0.24-0.85,0.6-1.28,1.08c-0.44,0.48-0.8,1.04-1.03,1.56c-0.24,0.52-0.35,0.98-0.42,1.3c-0.07,0.32-0.08,0.51-0.08,0.51
		c-0.08,0.31-0.11,0.57-0.11,0.77c0,0.54,0.24,0.73,0.54,0.73c0.03,0,0.07,0,0.1-0.01c0.49-0.06,1.17-0.53,1.94-0.85
		c0.53-0.25,1.08-0.35,1.54-0.35c0.19,0,0.37,0.02,0.52,0.06c0.51,0.11,0.85,0.25,0.85,0.25c0.15-0.12,0.34-0.17,0.54-0.17
		c0.66,0,1.54,0.51,2.18,1.09c0.18,0.16,0.34,0.32,0.49,0.47c0.43-0.1,0.86-0.19,1.28-0.29c0.57-0.13,1.14-0.26,1.71-0.39l0,0
		c0.75-0.18,1.51-0.37,2.28-0.56c0.28-0.07,0.55-0.14,0.82-0.21c0,0,0,0,0.01,0l0.05-0.01c0.29-0.08,0.58-0.17,0.87-0.25
		c0.19-0.06,0.39-0.12,0.58-0.18c0.3-0.09,0.57-0.19,0.78-0.27c0.05-0.02,0.1-0.04,0.15-0.06c0.09-0.03,0.17-0.07,0.25-0.1
		c0.2-0.08,0.36-0.16,0.5-0.23c0,0,0,0,0,0c0.21-0.11,0.35-0.2,0.46-0.27c0.09-0.06,0.15-0.12,0.19-0.16l0.06-0.06l0,0c0,0,0,0,0,0
		l0,0l0,0l0,0l-0.24,0.47c-0.12,0.31-0.25,0.76-0.34,1.34c-0.17,0.91-0.31,2.2-0.44,4.08l0,0c-0.17,2.75-0.26,4.33-0.27,4.43
		c0,0,0,0.01,0,0.01s0,0,0-0.01l0,0l0,0c0,0,0,0.01,0,0.01s0,0,0-0.01l0,0l0,0c0,0,0,0.01,0,0.01s0,0,0-0.01
		c0.01-0.11,0.1-1.68,0.27-4.43l0,0c0.14-1.88,0.27-3.17,0.44-4.08c0.1-0.58,0.23-1.04,0.34-1.34l0,0l0,0l0,0
		c0.02-0.05,0.04-0.09,0.05-0.13c0.04-0.08,0.07-0.15,0.1-0.21c0.04-0.07,0.07-0.11,0.09-0.13c0,0,0,0,0,0c0,0-0.01,0.01-0.02,0.03
		c-0.04,0.04-0.11,0.11-0.27,0.22c0,0-0.01,0.01-0.01,0.01c-0.05,0.03-0.1,0.07-0.16,0.1c-0.02,0.01-0.04,0.02-0.06,0.03
		c-0.01,0.01-0.02,0.01-0.03,0.02c-0.13,0.07-0.28,0.15-0.47,0.23c-0.12,0.06-0.27,0.12-0.43,0.18c-0.19,0.07-0.42,0.16-0.69,0.25
		c-0.33,0.11-0.73,0.23-1.24,0.38c-0.1,0.03-0.21,0.06-0.31,0.09c-0.22,0.06-0.46,0.12-0.72,0.19c-0.03,0.01-0.05,0.01-0.08,0.02
		l-0.11,0.03l-0.32,0.08c-0.06,0.02-0.13,0.03-0.19,0.05l-0.81,0.2l0.02,0l0.09,0.07c0.07,0.11,0.16,0.27,0.24,0.42
		c0.16,0.3,0.34,0.62,0.52,0.95c0.35,0.66,0.7,1.39,1.03,2.14c0.86,1.94,1.49,4.06,1.49,5.52l0,0c0,0.79-0.18,1.39-0.6,1.67
		c0,0-0.25,0.54-0.32,1.42c0.13,0.61,0.24,1.31,0.32,1.92c0.04,0.31,0.07,0.58,0.1,0.81c0.3,0.76,0.78,1.57,1.52,2.44
		c0.5,0.61,1.11,1.22,1.85,1.94c0.13,0.13,0.26,0.26,0.4,0.4c0.86,0.73,1.77,1.54,2.61,2.45c0.19,0.09,0.42,0.2,0.7,0.32
		c0.81,0.35,1.95,0.79,3.2,0.92c0.19,0.02,0.39,0.03,0.59,0.03c1.22,0,2.54-0.41,3.54-1.71c-0.02-0.12-0.05-0.24-0.07-0.36
		c-0.01-0.06-0.03-0.12-0.04-0.18c-0.22-0.94-0.45-1.54-0.45-1.54c-1.04-0.9-1.95-1.8-2.75-2.71c-1.18-1.34-2.12-2.69-2.87-4.08
		c-0.28-0.53-0.54-1.08-0.76-1.63c-0.77-1.86-1.26-3.79-1.58-5.62c-0.42-2.37-0.58-4.59-0.64-6.24c-0.04-0.82-0.01-1.5-0.12-2.04
		c-0.1-0.54-0.31-0.88-0.31-0.88l0,0l0,0l0,0l0,0c0-0.01,0-0.02,0-0.04c0-0.22-0.28-0.74-0.93-1.12c-0.33-0.2-0.72-0.34-1.1-0.46
		c-0.39-0.11-0.72-0.2-1.12-0.29c-1.56-0.37-3.61-0.65-5.65-0.76C83.58,60.94,82.85,60.93,82.15,60.93"/>
	<path class="st367" d="M90.06,75.43C90.06,75.44,90.06,75.44,90.06,75.43C90.06,75.44,90.06,75.44,90.06,75.43 M86.85,66.86
		L86.85,66.86l-0.11,0.03l-0.32,0.08l0,0l0.32-0.08L86.85,66.86 M89.89,65.94L89.89,65.94c-0.19,0.07-0.42,0.16-0.69,0.25l0,0l0,0
		C89.48,66.1,89.7,66.01,89.89,65.94L89.89,65.94 M91.12,65.58L91.12,65.58c-0.12,0.31-0.25,0.76-0.34,1.34l0,0
		c-0.01,0.04-0.01,0.07-0.02,0.11c-0.16,0.9-0.29,2.16-0.42,3.97l0,0l0,0l0,0c0.14-1.88,0.27-3.17,0.44-4.08
		C90.87,66.34,91,65.89,91.12,65.58L91.12,65.58 M91.36,65.11L91.36,65.11L91.36,65.11L91.36,65.11"/>
	<path class="st366" d="M91.36,65.11l-0.06,0.06c0.01-0.01,0.03-0.02,0.03-0.03C91.34,65.13,91.35,65.12,91.36,65.11
		C91.36,65.12,91.36,65.12,91.36,65.11L91.36,65.11L91.36,65.11L91.36,65.11L91.36,65.11L91.36,65.11L91.36,65.11L91.36,65.11
		L91.36,65.11L91.36,65.11L91.36,65.11C91.36,65.12,91.36,65.12,91.36,65.11C91.36,65.12,91.36,65.12,91.36,65.11L91.36,65.11"/>
	<path class="st366" d="M91.27,65.25c-0.03,0.05-0.07,0.12-0.1,0.21C91.21,65.37,91.24,65.3,91.27,65.25"/>
	<path class="st367" d="M91.27,65.25C91.27,65.25,91.27,65.26,91.27,65.25c-0.03,0.06-0.07,0.13-0.1,0.21l0,0
		C91.2,65.37,91.24,65.3,91.27,65.25L91.27,65.25"/>
	<path class="st366" d="M91.1,65.34c-0.1,0.07-0.25,0.16-0.45,0.27c0.06-0.03,0.11-0.05,0.15-0.08c0.03-0.02,0.06-0.03,0.09-0.05
		c0.07-0.04,0.12-0.08,0.17-0.11C91.07,65.36,91.08,65.35,91.1,65.34"/>
	<path class="st366" d="M90.64,65.61c-0.14,0.07-0.3,0.15-0.5,0.23c0.06-0.03,0.12-0.05,0.18-0.08
		C90.45,65.71,90.55,65.65,90.64,65.61"/>
	<path class="st366" d="M89.89,65.94c-0.01,0-0.02,0.01-0.04,0.01c-0.04,0.01-0.07,0.03-0.12,0.04c-0.16,0.06-0.33,0.12-0.53,0.19
		C89.48,66.1,89.7,66.02,89.89,65.94"/>
	<path class="st366" d="M88.38,66.44c-0.29,0.08-0.58,0.16-0.87,0.25l-0.05,0.01c0.06-0.02,0.13-0.03,0.19-0.05
		c0.11-0.03,0.21-0.06,0.31-0.09c0.12-0.03,0.24-0.07,0.36-0.11C88.34,66.45,88.36,66.45,88.38,66.44"/>
	<path class="st366" d="M86.85,66.86c-0.07,0.02-0.14,0.04-0.22,0.05c-0.07,0.02-0.14,0.04-0.21,0.06l0.32-0.08L86.85,66.86"/>
	<path class="st366" d="M84.36,67.47c-0.57,0.13-1.14,0.26-1.71,0.39c-0.43,0.1-0.86,0.19-1.28,0.29c0.58,0.61,0.93,1.16,0.93,1.16
		c0.36,0.33,0.95,0.6,1.61,0.83c0.03-0.24,0.05-0.48,0.05-0.7c0-0.46-0.08-0.86-0.26-1.17l0,0l0,0l0,0l0,0c0,0,0.11-0.13,0.26-0.34
		c0.07-0.1,0.15-0.23,0.24-0.36L84.36,67.47"/>
	<path class="st368" d="M91.36,65.12C91.36,65.12,91.36,65.12,91.36,65.12l-0.08,0.12c0,0,0,0.01-0.01,0.01
		c-0.03,0.05-0.06,0.12-0.1,0.21c-0.02,0.04-0.03,0.08-0.05,0.13L91.36,65.12"/>
	<path class="st368" d="M91.36,65.12L91.36,65.12L91.36,65.12L91.36,65.12L91.36,65.12 M91.36,65.12
		C91.36,65.12,91.36,65.12,91.36,65.12c-0.02,0.02-0.05,0.07-0.09,0.13c0,0,0-0.01,0.01-0.01L91.36,65.12"/>
	<polyline class="st368" points="91.36,65.12 91.36,65.12 91.36,65.12 91.36,65.12 	"/>
	<path class="st368" d="M91.36,65.12c-0.01,0.01-0.01,0.01-0.02,0.03C91.35,65.13,91.35,65.12,91.36,65.12"/>
	<path class="st368" d="M91.33,65.14c-0.01,0.01-0.02,0.02-0.03,0.03l-0.01,0.01l0,0c-0.04,0.04-0.1,0.09-0.19,0.15
		c-0.01,0.01-0.02,0.02-0.04,0.03C91.22,65.25,91.3,65.18,91.33,65.14"/>
	<path class="st368" d="M91.3,65.18c-0.04,0.04-0.1,0.09-0.19,0.16c0.09-0.06,0.14-0.11,0.18-0.15l0,0L91.3,65.18"/>
	<path class="st368" d="M91.06,65.36c-0.05,0.03-0.11,0.07-0.17,0.11c0.06-0.04,0.11-0.07,0.16-0.1
		C91.05,65.37,91.05,65.37,91.06,65.36"/>
	<path class="st368" d="M91.17,65.46c-0.02,0.04-0.03,0.08-0.05,0.13l0,0C91.13,65.54,91.15,65.5,91.17,65.46"/>
	<path class="st368" d="M90.89,65.47c-0.03,0.02-0.06,0.03-0.09,0.05c0.01-0.01,0.02-0.01,0.03-0.02
		C90.85,65.5,90.87,65.49,90.89,65.47"/>
	<path class="st368" d="M90.8,65.53c-0.05,0.02-0.09,0.05-0.15,0.08c0,0,0,0,0,0l0,0l0,0c0,0,0,0,0,0c-0.09,0.05-0.2,0.1-0.32,0.15
		C90.51,65.68,90.67,65.6,90.8,65.53"/>
	<polyline class="st368" points="90.65,65.61 90.64,65.61 90.64,65.61 90.64,65.61 90.64,65.61 90.65,65.61 	"/>
	<path class="st368" d="M90.32,65.76c-0.06,0.03-0.12,0.05-0.18,0.08c-0.08,0.03-0.16,0.07-0.25,0.1
		C90.06,65.88,90.2,65.82,90.32,65.76"/>
	<path class="st368" d="M90.14,65.84c-0.08,0.03-0.16,0.07-0.25,0.1c-0.05,0.02-0.1,0.04-0.15,0.06c0.04-0.01,0.08-0.03,0.12-0.04
		c0.01,0,0.02-0.01,0.04-0.01C89.98,65.91,90.06,65.87,90.14,65.84"/>
	<path class="st368" d="M89.74,66c-0.21,0.08-0.48,0.17-0.78,0.27c-0.19,0.06-0.38,0.12-0.58,0.18c0.07-0.02,0.13-0.04,0.19-0.06
		c0.05-0.01,0.09-0.03,0.13-0.04c0.18-0.06,0.35-0.11,0.5-0.16C89.4,66.12,89.58,66.06,89.74,66"/>
	<path class="st368" d="M89.21,66.19c-0.15,0.05-0.32,0.1-0.5,0.16c-0.04,0.01-0.09,0.03-0.13,0.04c-0.07,0.02-0.13,0.04-0.2,0.06
		c-0.02,0.01-0.04,0.01-0.05,0.02c-0.12,0.04-0.24,0.07-0.36,0.11C88.48,66.42,88.88,66.3,89.21,66.19"/>
	<path class="st368" d="M87.96,66.57c-0.1,0.03-0.2,0.06-0.31,0.09C87.76,66.62,87.86,66.59,87.96,66.57"/>
	<path class="st368" d="M87.65,66.65c-0.06,0.02-0.13,0.03-0.19,0.05l-0.61,0.16c0.03-0.01,0.05-0.01,0.08-0.02
		C87.19,66.78,87.43,66.71,87.65,66.65"/>
	<path class="st368" d="M87.46,66.7C87.46,66.7,87.46,66.7,87.46,66.7c-0.28,0.07-0.55,0.14-0.83,0.22
		c0.07-0.02,0.14-0.04,0.22-0.05L87.46,66.7"/>
	<path class="st368" d="M86.63,66.92c-0.77,0.19-1.53,0.37-2.28,0.56l0,0c0.05-0.01,0.11-0.02,0.16-0.04l1.34-0.33l0.56-0.14
		C86.49,66.95,86.56,66.94,86.63,66.92"/>
	<path class="st368" d="M86.42,66.97l-0.56,0.14l-1.34,0.33c-0.05,0.01-0.11,0.02-0.16,0.04l-0.15,0.11
		c-0.09,0.13-0.17,0.26-0.24,0.36c-0.15,0.21-0.26,0.34-0.26,0.34c0.18,0.31,0.26,0.71,0.26,1.17l0,0c0,0.93-0.32,2.08-0.74,3.1
		c-0.6,1.52-1.39,2.74-1.39,2.74c-0.86,0.65-1.14,1.46-1.13,2.24c0,0.35,0.06,0.71,0.14,1.04c0.27,1.07,0.84,1.94,0.84,1.94
		c2.08,1.28,2.07,1.93,2.07,1.93c0.12,0.92,0.49,1.73,0.99,2.48c0.52,0.63,1.18,1.36,1.84,2.25c1.53,2.01,2.92,4.85,3.61,7.4
		c0.38,1.25,0.65,2.37,0.83,3.16c0.19,0.79,0.29,1.26,0.29,1.26c0.31,1.38,1.65,1.97,3.32,1.97c0.69,0,1.43-0.1,2.19-0.29
		c1.28-0.31,2.55-0.89,3.49-1.43c0.46-0.26,0.89-0.56,1.16-0.75c0.28-0.21,0.43-0.32,0.43-0.32c2.42-0.62,3.42-2.97,3.42-5.19
		c0-0.15,0-0.29-0.01-0.44c-0.08-1.44-0.51-2.77-0.94-3.7c-0.25-0.54-0.48-0.95-0.64-1.21c-0.11-0.18-0.18-0.28-0.18-0.28
		c-0.1,0.25-0.2,0.48-0.31,0.7c-0.17,0.33-0.35,0.62-0.55,0.87c-1,1.3-2.31,1.71-3.54,1.71c-0.2,0-0.4-0.01-0.59-0.03
		c-1.24-0.12-2.39-0.57-3.2-0.92c-0.28-0.12-0.52-0.23-0.7-0.32c-0.29-0.14-0.45-0.23-0.45-0.23c-0.8-0.85-1.52-1.58-2.16-2.22
		c-0.14-0.14-0.27-0.27-0.4-0.4c-0.74-0.72-1.35-1.33-1.85-1.94c-0.74-0.88-1.22-1.68-1.52-2.44c-0.11-0.27-0.19-0.53-0.25-0.78
		c-0.14-0.55-0.19-1.05-0.19-1.49l0,0c0-1.15,0.34-1.87,0.34-1.87c0.42-0.29,0.6-0.89,0.6-1.67c0-1.46-0.63-3.58-1.49-5.52
		c-0.33-0.75-0.68-1.47-1.03-2.14c-0.18-0.33-0.35-0.65-0.52-0.95c-0.08-0.14-0.17-0.31-0.24-0.42l-0.09-0.07l-0.02,0l0.81-0.2
		C86.29,67.01,86.36,66.99,86.42,66.97"/>
	<path class="st369" d="M77.46,88.22c-0.28,0.14-0.74,0.13-1.11,0.34c-0.8,0.31-1.2,1.04-2.02,1.32c-0.78,0.38-1.64,0.61-2.37,1.17
		c-0.42,0.4-0.74,0.79-0.99,1.29c-1.15,1.69-1.91,3.56-2.17,5.55c0.26,0.29,0.35,0.6,0.35,0.92l0,0c0,0.68-0.43,1.38-0.5,2.01
		c-0.06,0.28-0.3,0.52-0.46,0.86c-0.04,0.19-0.05,0.38-0.05,0.57c0,0.2,0.01,0.4,0.01,0.59l0,0c0,0.44-0.06,0.85-0.44,1.17
		c-0.39,0.3-0.78,0.71-1.09,1.34c-0.27,0.56-0.5,1.31-0.5,2.29c0,0.12,0,0.24,0.01,0.36c0.08,1.18,0.45,2.51,1.21,3.78
		c0.76,1.26,1.85,2.37,3.01,3.19c0.9,0.67,2.64,1.5,4.31,1.92c1.56,0.41,3.12,0.61,4.68,0.61c0.15,0,0.3,0,0.45-0.01l0.65-0.03
		c0.06,0,0.11-0.01,0.16-0.01c0.06,0,0.1,0,0.15,0c0.05,0,0.09,0,0.14,0c0.01,0,0.01,0,0.02,0c0.29,0,0.57,0,0.85,0.01
		c0.56-0.01,1.09-0.04,1.58-0.07c0.97-0.08,1.77-0.21,2.21-0.33c2.45-0.54,4-2.32,5.84-3.29c0,0,0,0,0.01,0
		c0.02,0,0.05,0.07,0.05,0.2l0,0c0,0.04,0,0.09-0.01,0.14c0.2-0.15,0.39-0.3,0.58-0.46c0.05-0.18,0.38-0.69,0.41-0.88
		c0.46-0.28,0.86-0.39,1.44-0.46c0.12,0.01,0.25,0.01,0.37,0.01c1.96,0,3.88-0.87,5.68-1.87c1.96-1.1,3.95-2.56,6.07-3.56
		c0.81-0.5,2.06-1.38,2.67-2.65c0.43-1.03,1.28-2.31,1.41-3.33c0.01-0.16,0.01-0.32,0.01-0.48c0-1.81-0.45-3.59-0.82-5.18
		c-0.22,0.62-0.46,1.24-0.72,1.84c-0.48,1.14-1.02,2.24-1.61,3.32c-0.24,0.85-0.76,1.85-1.35,2.6c-0.6,0.77-1.34,1.45-2.12,1.91
		c-0.39,0.34-0.96,0.47-1.57,0.47c-0.62,0-1.29-0.14-1.86-0.33c-0.37-0.19-0.56-0.75-0.93-0.94c-1.49-0.57-2.91-0.17-4.18-1.53
		c-0.23-0.33-0.77-0.46-1.31-0.46c-0.35,0-0.69,0.05-0.95,0.13c-0.52,0.26-1.25,2.83-2.49,5.52c-0.61,1.34-1.34,2.71-2.02,3.76
		c-0.68,1.05-1.29,1.8-1.49,1.93c-0.32,0.29-0.19,0.96-0.52,1.24c-0.57,0.24-1.13,0.33-1.69,0.33c-1,0-1.99-0.29-2.97-0.56
		c-0.36-0.08-0.8-0.11-1.28-0.11c-0.17,0-0.34,0-0.52,0.01c-0.87,0.09-1.89,0.18-2.87,0.18c-0.03,0-0.05,0-0.08,0
		c-0.02,0-0.03,0-0.05,0c-1,0-2.03-0.09-2.9-0.26c-0.89-0.18-1.55-0.42-1.61-0.48l0,0l0,0l0,0l0,0c0.64-0.49,0.98-1.15,1.4-1.77
		c0.42-0.62,0.95-1.17,1.65-1.63c0.09-0.06,0.11-0.19,0.11-0.35c0-0.09-0.01-0.2-0.01-0.29l0,0c0-0.05,0-0.11,0.01-0.15
		c-0.1-0.37-0.46-0.89-0.64-0.93l0,0l0,0l0,0l0,0c0.12-0.02,0.17-0.04,0.17-0.07c0-0.06-0.19-0.13-0.48-0.23
		c-0.47-0.17-1.31-0.43-2.01-1.12c-0.73-0.67-1.01-1.64-1.12-2.11c-0.08-0.31-0.14-0.5-0.22-0.5c-0.04,0-0.09,0.06-0.15,0.19l0,0
		l0,0l0,0l0,0c0.1-0.32,0.15-0.58,0.15-0.83c0-0.1-0.01-0.2-0.02-0.29c-0.05-0.33-0.19-0.68-0.34-1.03
		c-0.28-0.66-0.62-1.37-0.62-2.13l0,0c0-0.06,0-0.12,0.01-0.18c0.04-1.14,1.1-2.08,1.1-3.14c0-0.11-0.01-0.22-0.04-0.33
		c-0.03-0.39-0.09-0.81-0.09-1.19l0,0c0-0.54,0.13-1.01,0.66-1.26c0.58-0.31,0.99-0.57,1.33-0.96c0.51-1.04,0.64-2.29,1.62-2.86
		c0.52-0.24,1.29-0.27,1.84-0.48c0.39-0.15,0.67-0.39,0.69-0.86c0,0,0-0.01,0-0.01l0,0c0-0.34,0.31-0.68,0.31-0.95
		C77.53,88.34,77.51,88.28,77.46,88.22L77.46,88.22"/>
	<path class="st370" d="M91.12,65.58L91.12,65.58c-0.12,0.31-0.25,0.76-0.34,1.34c-0.17,0.91-0.31,2.2-0.44,4.08l0,0l0,0l0,0
		c0.13-1.81,0.26-3.06,0.42-3.97c0.01-0.04,0.01-0.07,0.02-0.11l0,0C90.87,66.34,91,65.89,91.12,65.58 M91.27,65.25L91.27,65.25
		c-0.03,0.05-0.07,0.12-0.1,0.21l0,0l0,0C91.2,65.38,91.24,65.31,91.27,65.25C91.27,65.26,91.27,65.25,91.27,65.25L91.27,65.25"/>
	<path class="st371" d="M90.75,67.04c-0.16,0.9-0.29,2.16-0.42,3.97C90.46,69.2,90.59,67.94,90.75,67.04 M91.27,65.26
		c-0.03,0.05-0.06,0.12-0.1,0.2c-0.02,0.04-0.03,0.08-0.05,0.13c-0.12,0.31-0.25,0.76-0.34,1.34c0.1-0.58,0.23-1.04,0.34-1.34
		c0.02-0.05,0.03-0.09,0.05-0.13C91.2,65.38,91.24,65.31,91.27,65.26"/>
	<path class="st371" d="M91.29,65.19c-0.04,0.04-0.1,0.09-0.18,0.15c-0.1,0.07-0.25,0.16-0.46,0.27c0,0,0,0,0,0c0,0,0,0,0,0
		c0.2-0.11,0.35-0.19,0.45-0.27C91.19,65.28,91.25,65.23,91.29,65.19"/>
	<path class="st371" d="M90.64,65.61C90.64,65.61,90.64,65.61,90.64,65.61c-0.15,0.07-0.31,0.15-0.51,0.23
		c-0.08,0.03-0.16,0.07-0.25,0.1c-0.19,0.07-0.41,0.15-0.68,0.24c-0.15,0.05-0.32,0.1-0.5,0.16c0.18-0.06,0.35-0.11,0.5-0.16
		c0.27-0.09,0.49-0.17,0.69-0.25c0.09-0.04,0.17-0.07,0.25-0.1C90.34,65.75,90.5,65.68,90.64,65.61
		C90.64,65.61,90.64,65.61,90.64,65.61"/>
	<path class="st371" d="M88.57,66.39c-0.35,0.1-0.71,0.2-1.06,0.3c0.29-0.08,0.58-0.16,0.87-0.25
		C88.44,66.42,88.51,66.41,88.57,66.39"/>
	<path class="st371" d="M90.33,71c-0.17,2.75-0.26,4.33-0.27,4.43C90.07,75.33,90.16,73.76,90.33,71"/>
	<path class="st371" d="M76.73,72.6c-0.01,0.03-0.28,0.74-0.52,1.49C76.46,73.34,76.72,72.64,76.73,72.6"/>
	<path class="st371" d="M76.2,74.14c-0.16,0.49-0.3,1.01-0.35,1.38c-0.01,0.08-0.02,0.15-0.02,0.22c0-0.07,0.01-0.14,0.02-0.22
		C75.9,75.15,76.04,74.64,76.2,74.14"/>
	<path class="st371" d="M75.83,75.74c0,0.1,0.01,0.18,0.04,0.23C75.85,75.92,75.83,75.84,75.83,75.74"/>
	<path class="st362" d="M75.4,76.88L75.4,76.88c0,0,0.01,1.02,0.26,2.11c0,0,0,0.01,0,0.01c0.01,0.04,0.02,0.07,0.03,0.11l0,0
		c-0.01-0.04-0.02-0.08-0.03-0.12C75.41,77.9,75.4,76.88,75.4,76.88"/>
	<path class="st371" d="M77.48,81.6L77.48,81.6c0,0,0.02,0.05,0.05,0.12c-0.02-0.05-0.04-0.09-0.05-0.11
		C77.48,81.6,77.48,81.6,77.48,81.6 M75.66,79.01c0.01,0.04,0.02,0.07,0.03,0.11c0.18,0.72,0.46,1.47,0.96,1.97
		c0.21,0.22,0.47,0.39,0.77,0.49c0.02,0.01,0.04,0.01,0.07,0.02c-0.02-0.01-0.04-0.01-0.07-0.02c-0.3-0.1-0.55-0.27-0.77-0.49
		c-0.5-0.5-0.78-1.25-0.96-1.97C75.68,79.08,75.67,79.04,75.66,79.01"/>
	<path class="st371" d="M77.54,81.72c0.07,0.17,0.21,0.49,0.32,0.79C77.75,82.21,77.61,81.89,77.54,81.72"/>
	<path class="st362" d="M77.97,83.38c-0.02,0.02-0.04,0.04-0.07,0.05l-0.01,0.07l0,0l0.01-0.07c0,0,0.01,0,0.01,0
		C77.93,83.42,77.95,83.4,77.97,83.38L77.97,83.38"/>
	<path class="st371" d="M78.02,83.19c0,0.12-0.03,0.2-0.11,0.24C77.98,83.39,78.02,83.3,78.02,83.19"/>
	<path class="st371" d="M77.89,83.5c0,0.1,0.03,0.29,0.24,0.52C77.93,83.79,77.89,83.6,77.89,83.5"/>
	<path class="st371" d="M78.14,84.03c0.07,0.08,0.17,0.17,0.3,0.26C78.32,84.21,78.22,84.11,78.14,84.03"/>
	<path class="st362" d="M78.44,84.29L78.44,84.29L78.44,84.29c0.13,0.07,0.29,0.11,0.49,0.19c0,0,0.01,0,0.01,0
		c0.01,0,0.02,0.01,0.03,0.01c-0.01,0-0.02-0.01-0.03-0.01C78.74,84.41,78.58,84.36,78.44,84.29L78.44,84.29"/>
	<path class="st371" d="M78.44,84.29c0.13,0.07,0.29,0.11,0.49,0.19C78.74,84.4,78.58,84.36,78.44,84.29"/>
	<path class="st371" d="M78.97,84.49c0.33,0.12,0.76,0.28,1.3,0.52c0.11,0.05,0.23,0.1,0.35,0.16c-0.12-0.06-0.24-0.11-0.35-0.16
		C79.73,84.78,79.3,84.61,78.97,84.49"/>
	<path class="st372" d="M77.03,87.45c-0.08,0-0.17,0-0.25,0.01c-0.08,0-0.16,0.01-0.24,0.01c0,0,0,0-0.01,0
		c-1.37,0.28-2.81,0.48-4.04,1.05c-2.83,1.39-5.24,3.7-6.33,6.75c-0.05,0.13-0.07,0.25-0.07,0.38c0,0.46,0.24,0.92,0.31,1.36
		c0.05,0.2,0.07,0.41,0.07,0.62l0,0c0,0.66-0.18,1.35-0.18,2.04c0,0.53,0.1,1.05,0.46,1.56c0.06,0.07,0.08,0.17,0.08,0.27l0,0
		c0,0.14-0.05,0.28-0.12,0.4c-0.49,0.49-0.97,0.99-1.42,1.51c-0.23,0.27-0.45,0.5-0.67,0.81c-0.21,0.33-0.42,0.78-0.58,1.42
		c-0.11,0.46-0.19,1.02-0.19,1.7c0,0.24,0.01,0.5,0.03,0.77c0.08,1.01,0.42,2.27,0.94,3.4c0.52,1.16,1.29,2.28,2.2,3.25
		c0.88,0.94,1.9,1.74,2.85,2.34c1.24,0.83,3.21,1.63,5.09,2c1.39,0.29,2.73,0.42,4.05,0.42c0.5,0,1-0.02,1.5-0.06l0.66-0.06
		l0.43-0.01c0.29-0.01,0.57-0.02,0.85-0.03c0.55-0.03,1.07-0.08,1.54-0.13c0.93-0.12,1.68-0.25,2.04-0.34
		c2.97-0.94,4.3-2.37,4.92-3.39c0.4-0.68,0.5-1.23,0.5-1.5c0-0.13-0.02-0.2-0.05-0.2c0,0,0,0-0.01,0c-1.84,0.97-3.39,2.75-5.84,3.29
		c-0.44,0.12-1.24,0.25-2.21,0.33c-0.5,0.03-1.03,0.06-1.58,0.07c-0.28,0-0.56-0.01-0.85-0.01c-0.01,0-0.01,0-0.02,0
		c-0.05,0-0.1,0-0.14,0c-0.05,0-0.09,0-0.15,0c-0.04,0-0.1,0-0.16,0.01l-0.65,0.03c-0.15,0-0.3,0.01-0.45,0.01
		c-1.56,0-3.12-0.2-4.68-0.61c-1.68-0.42-3.41-1.25-4.31-1.92c-1.16-0.82-2.25-1.93-3.01-3.19c-0.76-1.27-1.14-2.6-1.21-3.78
		c-0.01-0.12-0.01-0.24-0.01-0.36l0,0c0-0.99,0.22-1.74,0.5-2.29c0.31-0.63,0.7-1.04,1.09-1.34c0.38-0.32,0.44-0.73,0.44-1.17
		c0-0.19-0.01-0.39-0.01-0.59l0,0c0-0.19,0.01-0.38,0.05-0.57c0.16-0.34,0.4-0.58,0.46-0.86c0.07-0.63,0.5-1.34,0.5-2.01
		c0-0.31-0.09-0.62-0.35-0.92l0,0l0,0l0,0l0,0c0.26-1.99,1.02-3.86,2.17-5.55c0.25-0.49,0.57-0.88,0.99-1.29
		c0.73-0.56,1.59-0.79,2.37-1.17c0.82-0.28,1.22-1.01,2.02-1.32c0.37-0.21,0.82-0.2,1.11-0.34c0.02-0.18,0.21-0.38,0.21-0.51
		c0-0.05-0.03-0.09-0.09-0.12C77.42,87.48,77.23,87.45,77.03,87.45"/>
	<path class="st363" d="M58.15,78.16C58.15,78.16,58.16,78.16,58.15,78.16c0.03-0.02,0.05-0.03,0.06-0.03l0,0l0,0l0,0l0,0
		C58.18,78.15,58.16,78.16,58.15,78.16C58.15,78.16,58.15,78.16,58.15,78.16L58.15,78.16 M58.7,77.75L58.7,77.75
		C58.7,77.75,58.7,77.76,58.7,77.75L58.7,77.75L58.7,77.75L58.7,77.75L58.7,77.75C58.7,77.76,58.7,77.75,58.7,77.75L58.7,77.75
		L58.7,77.75L58.7,77.75 M49.09,63.66c-0.13,0-0.25,0.01-0.38,0.03c-0.32,0.17-0.31,0.84-0.61,1.03c-0.39,0.11-2.4,2.14-3.82,4.31
		c-1.49,2.16-2.4,4.34-2.86,4.42c-0.01,0-0.02,0-0.02,0c-0.61,0-1.66-0.3-1.95-0.89c-1.03-1.54-2.32-1.56-3.6-2.47
		c-0.32-0.27-0.45-0.81-0.76-1.08c-0.76-0.51-1.76-0.96-2.5-0.96c-0.19,0-0.37,0.03-0.52,0.1c-1.4,0.32-2.62,1.25-3.07,2.3
		c-0.53,0.53-1.03,1.07-1.52,1.6c-0.07,0.43-0.11,0.88-0.11,1.32c0,0.34,0.02,0.68,0.06,1.01c0.05,0.92,0.26,1.44,0.26,1.76l0,0
		c0,0.15-0.05,0.25-0.19,0.32c-0.01,0.01-0.01,0.01-0.01,0.03c0,0.26,1.47,1.94,1.77,3.6c0.01,0,0.05,0,0.12,0
		c0.14,0,0.39,0,0.73,0.03c-0.15-0.48-0.43-1.56-0.43-2.71l0,0c0-0.15,0-0.31,0.02-0.46c0.09-1.49,0.8-3,2.62-3
		c0.26,0,0.54,0.03,0.85,0.1c0,0,1.54-0.37,3.37-0.37c0.37,0,0.74,0.01,1.12,0.05c2.29,0.18,4.45,1.16,4.72,3
		c0,0,0.38,2.61,1.09,5.69c1.75-1.1,3.74-2.04,6.34-2.57c0.05-0.01,0.1-0.02,0.16-0.02c0.5,0,0.96,0.47,1.02,0.8
		c0.02,0.12,0.04,0.23,0.04,0.35l0,0c0,1.18-1.12,2.31-1.49,3.53c0.09,0.22,0,0.65,0.24,0.81c0.23,0.16,0.32,0.38,0.41,0.6
		c0.01,0.14,0.01,0.28,0.01,0.42l0,0c0,0.09,0,0.17,0,0.26c0.09-0.03,0.19-0.06,0.29-0.08c0.01,0,0.02-0.01,0.04-0.01
		c0.18,0,0.74,0.28,1.3,0.66c0.61,0.41,1.22,0.92,1.51,1.19c0.31,0.29,0.5,0.41,0.62,0.41c0.13,0,0.17-0.14,0.17-0.35
		c0-0.27-0.07-0.67-0.11-1.09c-0.14-0.71-0.21-1.36-0.21-1.95l0,0c0-1.07,0.22-1.96,0.6-2.69c0.04-0.03,0.08-0.04,0.12-0.04
		c0.12,0,0.25,0.1,0.38,0.21c0.13,0.1,0.25,0.21,0.36,0.21c0.01,0,0.01,0,0.02,0c0.57-0.4,1.07-2.03,1.94-2.7
		c0.18-0.06,0.29-0.12,0.36-0.19l0.07-0.11c0.08-0.24,0.22-0.64,0.3-0.86c0.04-0.11,0.09-0.22,0.13-0.32c0.01,0,0.02,0.01,0.03,0.01
		c1.06,0.38,1.88,1.51,2.05,2.57c0.03,0.16,0.04,0.32,0.04,0.47l0,0c0,0.41-0.09,0.8-0.29,1.13c0.04,0,0.08,0,0.12,0
		c0.2,0,0.42,0.02,0.65,0.05c0.22,0.02,0.45,0.05,0.66,0.05c0.11,0,0.21-0.01,0.31-0.02c0.96-0.25,1.14-1.29,1.61-2.14
		c0.32-0.31,0.72-0.53,1.27-0.88c0.38-0.21,0.51-0.53,0.51-0.9c0-0.48-0.23-1.04-0.44-1.52c-0.31-0.53-0.27-1.09-0.29-1.75
		c-0.02-0.65-0.11-1.41-0.59-1.98c-0.6-0.78-1.65-1.06-2.43-1.1c-0.81-0.05-1.4,0.01-1.88-0.49c0.06,0.07,0.08,0.12,0.08,0.16l0,0
		c0,0.08-0.1,0.11-0.26,0.11c-0.31,0-0.86-0.12-1.38-0.22c-0.76-0.16-1.55-0.33-1.55-0.48l0,0c0-0.03,0.03-0.06,0.1-0.08
		c-0.11-0.03-0.33-0.54-0.38-0.91l0,0l0,0l0,0l0,0c0-0.06,0.01-0.12,0.01-0.18c0-0.08,0-0.16,0-0.24l0,0c0-0.16,0.01-0.31,0.06-0.37
		c0.8-0.91,0.85-2.52,1.25-3.79c-0.04-0.07-0.92-0.24-1.96-0.41c-1.05-0.2-2.25-0.4-2.99-0.85C51.35,64.44,50.3,63.66,49.09,63.66"
		/>
	<path class="st363" d="M31.32,79.91c-0.23,0.05-0.46,0.13-0.68,0.23c0.2,0.01,0.42,0.01,0.66,0.02
		C31.3,80.08,31.31,79.99,31.32,79.91"/>
	<path class="st363" d="M38.37,83.46c0.03,0.06,0.07,0.13,0.1,0.19c0.5,0.97,1.01,1.95,1.46,2.87c-0.33-0.81-0.73-1.71-1.23-2.7
		C38.7,83.83,38.59,83.69,38.37,83.46"/>
	<path class="st363" d="M32.59,84.7c0.06,1.46,0.23,2.91,0.58,4.28c0.14,0.55,0.31,1.08,0.52,1.59c-0.07-0.49-0.13-1-0.19-1.51
		C33.31,87.69,33.07,86.24,32.59,84.7 M59.19,83.8c-0.12,0.07-0.25,0.13-0.39,0.18c0.07,0.02,0.15,0.05,0.22,0.08
		C59.08,83.98,59.14,83.9,59.19,83.8"/>
	<path class="st363" d="M49.14,91.89c-0.1,0.46-0.24,0.94-0.43,1.43c-0.21,0.55-0.47,1.04-0.75,1.49c0.11,0.05,0.22,0.1,0.32,0.15
		c0.24,0.1,0.46,0.21,0.67,0.31c0,0,0.01,0,0.01,0l0,0c0.01,0,0.02,0.01,0.03,0.02c0.17,0.09,0.34,0.17,0.52,0.26
		c0.07,0.03,0.14,0.07,0.21,0.1c0.02,0.01,0.05,0.02,0.07,0.04c0.31,0.15,0.64,0.32,0.97,0.5c0,0,0,0,0,0l0-0.02l-0.07-0.08
		l0.04-0.03l0.03,0.01l0-0.04c0-0.01,0-0.01,0-0.02l0,0c0-0.01,0-0.02,0-0.03c0-0.07,0-0.17-0.07-0.3c-0.05-0.2-0.24-0.39-0.39-0.89
		c-0.21-0.48-0.42-0.97-0.62-1.45c-0.06-0.11-0.12-0.22-0.18-0.34c0.01,0.02,0.02,0.04,0.03,0.05c-0.01-0.02-0.02-0.03-0.03-0.05
		c0.01,0.02,0.02,0.04,0.03,0.05c-0.01-0.02-0.02-0.03-0.03-0.05c0.07,0.12,0.13,0.23,0.18,0.34C49.48,92.85,49.3,92.36,49.14,91.89
		"/>
	<path class="st373" d="M50.68,96.09L50.68,96.09l0.07,0.08L50.68,96.09 M49.49,92.99c0.07,0.12,0.13,0.23,0.18,0.34l0,0l0,0
		c-0.05-0.09-0.1-0.19-0.16-0.29C49.51,93.02,49.5,93,49.49,92.99"/>
	<path class="st363" d="M48.95,95.27c0.01,0.01,0.02,0.01,0.04,0.02C48.98,95.28,48.97,95.28,48.95,95.27L48.95,95.27
		C48.95,95.27,48.95,95.27,48.95,95.27"/>
	<path class="st363" d="M49.52,95.56c0.06,0.03,0.12,0.06,0.19,0.09C49.64,95.62,49.58,95.59,49.52,95.56"/>
	<path class="st363" d="M49.78,95.69c0.06,0.03,0.12,0.06,0.17,0.09c0.27,0.14,0.54,0.28,0.79,0.41
		C50.42,96.01,50.09,95.84,49.78,95.69"/>
	<polyline class="st363" points="50.72,96.06 50.68,96.09 50.75,96.17 50.75,96.07 50.72,96.06 	"/>
	<path class="st363" d="M50.75,96.18L50.75,96.18c0.01,0,0.01,0.01,0.02,0.01l0,0C50.76,96.19,50.76,96.19,50.75,96.18 M50.75,96.18
		L50.75,96.18L50.75,96.18L50.75,96.18"/>
	<path class="st363" d="M50.75,96.18L50.75,96.18l0.02,0.01C50.76,96.19,50.76,96.19,50.75,96.18"/>
	<path class="st364" d="M29.27,80.09C29.26,80.09,29.26,80.09,29.27,80.09c0,0.06,0,0.12,0,0.17l0,0c0,0.94-0.61,1.71-0.61,2.65
		c0,0.18,0.02,0.37,0.08,0.56c0.03,0.2,0.04,0.43,0.04,0.69l0,0c0,1.14-0.22,2.76-0.25,4.56c0,0.14-0.01,0.29-0.01,0.44
		c0,0.96,0.08,1.97,0.23,2.87c0.19,1.05,0.48,1.96,0.78,2.54c0.54,1.13,1.17,1.95,1.77,2.71c0.67,0.8,1.45,1.71,2.84,2.38
		c0.68,0.33,1.53,0.5,2.2,0.51c0.04,0,0.08,0,0.12,0c0.63,0,1.13-0.09,1.53-0.16c0.89-0.19,1.26-0.22,1.93-0.26
		c0.06,0,0.12,0,0.18,0c1.89,0,2.93-1.25,4.6-1.95c0.92-0.48,1.88-1.18,2.8-2.35c0.16-0.2,0.31-0.42,0.46-0.65
		c-0.02-0.01-0.04-0.02-0.05-0.02c-0.13,0.2-0.26,0.4-0.4,0.57c-0.91,1.18-1.87,1.88-2.79,2.37c-1.67,0.7-2.7,1.95-4.6,1.95
		c-0.05,0-0.11,0-0.17,0c-0.31,0.02-0.61,0.04-0.89,0.08c-0.26,0.02-0.59,0.1-1.01,0.18c-0.42,0.08-0.94,0.18-1.59,0.18
		c-0.02,0-0.04,0-0.06,0c-0.64,0-1.44-0.14-2.12-0.44c-1.42-0.64-2.22-1.55-2.9-2.35c-0.34-0.42-0.59-0.76-0.92-1.2
		c-0.28-0.44-0.61-0.93-0.87-1.49c-0.3-0.58-0.61-1.49-0.79-2.53c-0.17-0.92-0.25-1.96-0.25-2.94l0,0c0-0.12,0-0.24,0-0.36
		c0.02-1.8,0.23-3.41,0.23-4.55c0-0.26-0.01-0.5-0.04-0.71c-0.05-0.2-0.08-0.39-0.08-0.57l0,0c0-0.94,0.61-1.71,0.61-2.65
		c0-0.06,0-0.12-0.01-0.17C29.27,80.14,29.27,80.11,29.27,80.09"/>
	<path class="st364" d="M50.18,86.61c-0.02,0.01-0.04,0.01-0.06,0.02c-0.02,0.56-0.07,1.09-0.17,1.62c-0.15,0.78-0.32,1.36-0.7,2.69
		c-0.04,0.26-0.09,0.54-0.15,0.83c0.01,0.04,0.03,0.08,0.04,0.12c0.07-0.31,0.12-0.6,0.17-0.88c0.21-0.65,0.33-1.18,0.44-1.58
		c0.11-0.39,0.2-0.76,0.27-1.14C50.11,87.75,50.17,87.19,50.18,86.61"/>
	<path class="st364" d="M47.9,94.78C47.9,94.79,47.9,94.79,47.9,94.78c0.01,0.01,0.03,0.02,0.05,0.03c0,0,0,0,0-0.01
		C47.94,94.8,47.92,94.79,47.9,94.78"/>
	<path class="st365" d="M49.97,79.84c-0.05,0-0.1,0.01-0.16,0.02c-2.6,0.53-4.59,1.47-6.34,2.57c0.11,0.49,0.23,0.99,0.36,1.49
		c0.82-0.91,1.87-1.91,2.59-1.91c0.34,0,0.6,0.22,0.73,0.76c0,0,0.88,1.56,1.12,2.37l0,0l0,0l0,0l0,0c0,0-0.1,0.71-0.26,1.8
		c-0.08,0.54-0.18,1.17-0.29,1.86c-0.12,0.65-0.19,1.45-0.49,2.56c-0.15,0.54-0.39,1.15-0.75,1.69c-0.18,0.28-0.39,0.54-0.59,0.76
		c0.08,0.07,0.19,0.14,0.32,0.23c0.12,0.07,0.28,0.14,0.45,0.22l0.14,0.06l0.03,0.01c0.13,0.05,0.25,0.1,0.37,0.15
		c0.23,0.1,0.46,0.2,0.7,0.31c0,0,0,0,0-0.01c0.02,0.01,0.04,0.02,0.05,0.02c0.28-0.44,0.54-0.94,0.75-1.49
		c0.19-0.49,0.33-0.98,0.43-1.43c-0.01-0.04-0.03-0.08-0.04-0.12l0,0l0,0l0,0l0,0c0.06-0.29,0.11-0.57,0.15-0.83
		c0.38-1.33,0.55-1.91,0.7-2.69c0.1-0.53,0.15-1.06,0.17-1.62c0.02-0.01,0.04-0.01,0.06-0.02c0-0.09,0-0.17,0-0.26
		c0-0.14,0-0.28-0.01-0.42c-0.09-0.22-0.18-0.44-0.41-0.6c-0.23-0.16-0.15-0.59-0.24-0.81l0,0l0,0l0,0l0,0
		c0.37-1.23,1.49-2.35,1.49-3.53c0-0.12-0.01-0.23-0.04-0.35C50.93,80.31,50.47,79.84,49.97,79.84"/>
	<path class="st365" d="M29.38,80.09c-0.07,0-0.11,0-0.12,0c0,0.03,0.01,0.05,0.01,0.08c0,0.06,0.01,0.12,0.01,0.17l0,0
		c0,0.94-0.61,1.71-0.61,2.65c0,0.18,0.02,0.37,0.08,0.57c0.03,0.21,0.04,0.44,0.04,0.71l0,0c0,1.13-0.21,2.75-0.23,4.55
		c0,0.12,0,0.24,0,0.36c0,0.98,0.08,2.02,0.25,2.94c0.18,1.04,0.5,1.95,0.79,2.53c0.26,0.55,0.59,1.04,0.87,1.49
		c0.33,0.45,0.58,0.78,0.92,1.2c0.68,0.8,1.48,1.71,2.9,2.35c0.67,0.3,1.48,0.44,2.12,0.44c0.02,0,0.04,0,0.06,0
		c0.66,0,1.18-0.1,1.59-0.18c0.42-0.08,0.75-0.16,1.01-0.18c0.28-0.03,0.57-0.06,0.89-0.08c0.06,0,0.11,0,0.17,0
		c1.9,0,2.93-1.25,4.6-1.95c0.92-0.49,1.88-1.19,2.79-2.37c0.14-0.18,0.27-0.37,0.4-0.57c-0.24-0.11-0.47-0.21-0.7-0.31
		c-0.11-0.05-0.24-0.1-0.37-0.15l0.01,0l-0.06-0.02l-0.06-0.02c-0.05-0.02-0.1-0.04-0.14-0.06c-0.15-0.05-0.3-0.11-0.43-0.16
		c0,0,0,0,0,0c-0.12-0.05-0.24-0.09-0.36-0.14c-0.15,0.15-0.3,0.29-0.45,0.41c-0.81,0.64-1.56,0.95-2.18,1.16
		c-0.84,0.28-1.54,0.42-1.99,0.42c-0.21,0-0.36-0.03-0.45-0.09c0,0-0.85,0.14-2.1,0.38c-0.59,0.09-1.31,0.33-2.03,0.33
		c-0.03,0-0.07,0-0.1,0c-0.75-0.03-1.28-0.72-1.64-1.53c-0.63-1.23-0.92-2.75-1.15-4.45c-0.21-0.51-0.38-1.05-0.52-1.59
		c-0.35-1.37-0.51-2.82-0.58-4.28c-0.32-1.05-0.75-2.14-1.34-3.28l0,0l0,0c0,0,0-0.13,0-0.35c0-0.21,0.01-0.51,0.03-0.85
		c0-0.02,0-0.04,0-0.06c-0.24-0.01-0.46-0.01-0.66-0.02c-0.15,0.07-0.29,0.14-0.44,0.23c0,0-0.03-0.09-0.08-0.25
		C29.77,80.09,29.52,80.09,29.38,80.09"/>
	<path class="st365" d="M45.79,93.92C45.79,93.92,45.79,93.92,45.79,93.92c0.11,0.05,0.23,0.09,0.35,0.14
		C46.12,94.05,45.99,94,45.79,93.92"/>
	<path class="st365" d="M46.58,94.23c0.05,0.02,0.09,0.04,0.14,0.05l-0.06-0.02C46.63,94.25,46.6,94.24,46.58,94.23"/>
	<polyline class="st365" points="36.42,95.32 36.42,95.32 36.42,95.32 36.42,95.32 36.42,95.32 	"/>
	<path class="st366" d="M32.15,79.82c-0.28,0-0.55,0.03-0.83,0.09c-0.01,0.09-0.02,0.17-0.02,0.25c0,0.02,0,0.04,0,0.06
		c-0.02,0.35-0.03,0.64-0.03,0.85c0,0.22,0,0.34,0,0.35l0,0c0.59,1.14,1.01,2.23,1.34,3.28c0.47,1.54,0.72,2.99,0.9,4.36
		c0.06,0.52,0.13,1.02,0.19,1.51c0.23,1.69,0.52,3.22,1.15,4.45c0.36,0.8,0.89,1.49,1.64,1.53c0.03,0,0.07,0,0.1,0
		c0.72,0,1.43-0.24,2.03-0.33c1.25-0.25,2.1-0.38,2.1-0.38c0.09,0.06,0.24,0.09,0.45,0.09c0.45,0,1.15-0.14,1.99-0.42
		c0.62-0.22,1.37-0.52,2.18-1.16c0.15-0.12,0.3-0.26,0.45-0.41c-0.01,0-0.01,0-0.02-0.01l0,0l0,0c-0.12-0.05-0.25-0.09-0.38-0.13
		c-0.05-0.02-0.1-0.03-0.15-0.05c-0.09-0.03-0.18-0.06-0.28-0.09l0,0c-0.17-0.05-0.32-0.11-0.48-0.16c-0.11-0.03-0.23-0.07-0.35-0.1
		c-0.3-0.08-0.56-0.15-0.82-0.21c-0.22-0.05-0.45-0.1-0.67-0.14c-0.77-0.14-1.37-0.18-1.82-0.19l-0.06,0l-0.05,0
		c-0.15,0-0.28,0.01-0.39,0.02c-0.06,0.01-0.09,0.01-0.09,0.01l-0.17,0.02l-0.16,0.03l-0.06,0.01l-0.02,0.01
		c-0.04,0.02-0.06,0.03-0.06,0.03l0,0l0,0l0,0l0,0c0,0,0.02-0.01,0.06-0.03l0,0c-0.06,0.03-0.14,0.07-0.24,0.12
		c-0.34,0.16-0.69,0.33-1.04,0.49l-0.17,0.08l-0.02,0.01c-0.1,0.05-0.2,0.11-0.3,0.16c-0.4,0.22-0.78,0.49-1.07,0.75
		c-0.08,0.07-0.15,0.14-0.21,0.2c0,0,0,0,0,0c0,0,0,0,0,0c-0.08,0.08-0.14,0.16-0.19,0.22c-0.06,0.09-0.11,0.16-0.14,0.22
		c0,0,0,0.01-0.01,0.01l-0.04,0.1l0-0.01l0.02-0.12c0.01-0.05,0.01-0.11,0.01-0.18c0-0.02,0-0.03,0-0.05c0,0,0-0.01,0-0.01
		c0-0.14-0.01-0.32-0.04-0.55c0-0.01,0-0.02,0-0.03c-0.02-0.14-0.05-0.29-0.08-0.46c-0.03-0.14-0.07-0.3-0.11-0.49
		c0-0.02-0.01-0.03-0.01-0.05c-0.02-0.07-0.03-0.13-0.05-0.2c-0.07-0.26-0.16-0.57-0.27-0.95c0-0.01-0.01-0.03-0.01-0.04l-0.07-0.21
		c-0.09-0.26-0.17-0.53-0.25-0.79c-0.1-0.29-0.2-0.57-0.29-0.86c-0.08-0.23-0.16-0.47-0.24-0.7c-0.49-1.35-0.97-2.69-1.45-4.01
		c-0.56-1.5-1.12-2.99-1.67-4.48l0,0l0,0l0,0l0,0l0,0l0,0l0.03,0.02l0.06,0.04l0.23,0.11l0.18,0.03c0.19,0,0.33-0.11,0.42-0.26
		c0.1-0.18,0.13-0.41,0.13-0.61c0-0.26-0.05-0.47-0.05-0.47l0,0l0,0l0,0l0,0c0,0,0.05,0.21,0.05,0.47l0,0l0,0l0,0l0,0l0,0l0,0l0,0
		l0,0l0,0l0,0l0,0l0,0c0,0.2-0.03,0.43-0.13,0.61c-0.09,0.15-0.22,0.26-0.42,0.26l-0.18-0.03l-0.23-0.11l-0.06-0.04l-0.03-0.02
		c0.55,1.49,1.11,2.98,1.67,4.48c0.48,1.32,0.96,2.66,1.45,4.01c-0.03-0.1-0.07-0.2-0.1-0.3c-0.16-0.45-0.32-0.9-0.48-1.35
		l-0.25-0.69l-0.03-0.08l0,0l0,0l0,0l0.05,0.02c0.03,0,0.06,0,0.09,0c0.06,0,0.12,0,0.18-0.02c0.17-0.03,0.3-0.11,0.39-0.24
		c0,0,0.41,0.41,0.87,0.66c0.2,0.11,0.41,0.18,0.58,0.18c0.08,0,0.15-0.01,0.21-0.05c0.14-0.26,0.21-0.41,0.21-0.41l0,0l0,0l0,0l0,0
		c-0.01,0.22-0.09,0.35-0.21,0.41c-0.1,0.17-0.23,0.39-0.39,0.64c-0.2,0.31-0.46,0.66-0.76,1.01l-0.24,0.27l-0.05,0.11l0.45,1.32
		l0.04,0.12c0.03,0.08,0.05,0.15,0.08,0.23l0,0c0.08,0.26,0.15,0.48,0.21,0.68c0,0,0,0,0,0.01c0,0.01,0.01,0.02,0.01,0.02l0.01,0.02
		c0.04,0.12,0.07,0.24,0.11,0.35c0.05,0.15,0.08,0.29,0.12,0.42c0.09,0.31,0.15,0.57,0.2,0.78c0.01,0.06,0.02,0.11,0.03,0.16
		c0.03,0.16,0.06,0.3,0.08,0.43c0.01,0.04,0.01,0.07,0.02,0.11c0.02,0.16,0.03,0.29,0.04,0.4c0,0.04,0,0.07,0,0.1l0,0
		c0,0.09-0.01,0.17-0.01,0.23l0,0c0,0.03-0.01,0.05-0.01,0.07l0,0c-0.01,0.03-0.01,0.04-0.01,0.04c0,0,0,0,0,0c0,0,0,0,0,0l0,0
		c0-0.01,0.01-0.04,0.03-0.08l0,0c0,0,0-0.01,0-0.01c0.02-0.04,0.06-0.11,0.12-0.2c0.04-0.06,0.1-0.13,0.16-0.2
		c0.08-0.09,0.17-0.18,0.27-0.27c0.1-0.09,0.22-0.19,0.36-0.29l0,0c0.14-0.1,0.29-0.2,0.45-0.3c0.08-0.05,0.16-0.1,0.25-0.14
		c0,0,0,0,0.01,0c0.09-0.05,0.17-0.09,0.26-0.14l0.05-0.02c0.02-0.01,0.03-0.02,0.05-0.03c0.03-0.01,0.06-0.03,0.09-0.04l0.05-0.02
		l0.01,0c0.23-0.11,0.43-0.2,0.59-0.28l0.67-0.32l-0.01,0l0,0h0l0,0l0.01,0l0.06-0.03v0c0.09-0.04,0.12-0.06,0.12-0.06l0,0l0,0l0,0
		l0,0l0,0l0,0l0,0l0,0l0,0l0,0c0,0-0.06,0.03-0.12,0.06c0,0,0,0,0,0v0l0,0l0,0l0,0l0,0l0,0l0,0l-0.01,0l-0.03,0.01l-0.01,0l0,0
		l0.02-0.01l0.02,0l0.01,0l0,0l0,0c0.03-0.01,0.1-0.03,0.21-0.04c0,0,0,0,0-0.01l0,0c0-0.01,0.03-0.05,0.1-0.09
		c0.09-0.05,0.25-0.09,0.47-0.09c0.06,0,0.13,0,0.21,0.01c0.03-0.05,0.66,0.05,0.66-0.78c0-0.03,0-0.07,0-0.11
		c-0.02-0.48-0.18-1.27-0.6-2.55c-0.25-0.73-0.57-1.66-1.02-2.77c-0.45-0.92-0.95-1.91-1.46-2.87c-0.03-0.06-0.07-0.13-0.1-0.19
		c-0.46-0.49-1.37-1.4-2.49-2.2C34.8,80.48,33.48,79.82,32.15,79.82"/>
	<path class="st367" d="M36.46,95.23L36.46,95.23l-0.04,0.1L36.46,95.23 M36.44,95.2L36.44,95.2c0,0.02-0.01,0.04-0.01,0.06
		c0,0,0,0,0,0.01l0,0l0,0l0,0C36.43,95.25,36.44,95.22,36.44,95.2L36.44,95.2 M36.45,94.96c0,0,0,0.01,0,0.01l0,0
		C36.45,94.96,36.45,94.96,36.45,94.96 M36.79,94.78L36.79,94.78c-0.08,0.08-0.14,0.16-0.19,0.22l0,0l0,0
		C36.65,94.93,36.71,94.86,36.79,94.78L36.79,94.78 M37,94.57L37,94.57c-0.08,0.07-0.15,0.14-0.21,0.2l0,0l0,0
		C36.85,94.71,36.92,94.64,37,94.57L37,94.57 M44.96,93.65c0.09,0.03,0.19,0.06,0.28,0.09l0,0l0,0
		C45.15,93.71,45.06,93.68,44.96,93.65L44.96,93.65 M38.56,93.57L38.56,93.57l-0.17,0.08L38.56,93.57 M44.49,93.49L44.49,93.49
		c0.15,0.05,0.31,0.1,0.48,0.16l0,0l0,0l0,0C44.79,93.6,44.64,93.54,44.49,93.49L44.49,93.49 M36.21,93.42
		c0.05,0.19,0.08,0.35,0.11,0.49l0,0l0,0C36.29,93.78,36.25,93.61,36.21,93.42L36.21,93.42 M43.32,93.18L43.32,93.18
		c0.25,0.06,0.52,0.13,0.82,0.21l0,0l0,0C43.84,93.31,43.58,93.24,43.32,93.18L43.32,93.18 M36.14,93.18L36.14,93.18
		c0.02,0.07,0.04,0.14,0.05,0.2c0,0.02,0.01,0.03,0.01,0.05l0,0c0-0.01-0.01-0.02-0.01-0.04c0,0,0-0.01,0-0.01
		C36.18,93.31,36.16,93.24,36.14,93.18L36.14,93.18 M39.82,92.96L39.82,92.96L39.82,92.96L39.82,92.96L39.82,92.96L39.82,92.96
		 M39.83,92.96L39.83,92.96L39.83,92.96 M39.84,92.96L39.84,92.96L39.84,92.96L39.84,92.96L39.84,92.96 M39.86,92.95L39.86,92.95
		l-0.02,0.01l0,0L39.86,92.95 M39.9,92.93L39.9,92.93L39.9,92.93l-0.01,0.01l-0.03,0.01l-0.01,0l0.01,0l0.03-0.01L39.9,92.93
		L39.9,92.93L39.9,92.93 M40.34,92.87L40.34,92.87c-0.06,0.01-0.09,0.01-0.09,0.01l-0.17,0.02l0.17-0.02
		C40.25,92.89,40.28,92.88,40.34,92.87L40.34,92.87 M40.84,92.86l-0.06,0l-0.05,0l0,0l0.05,0L40.84,92.86L40.84,92.86 M35.86,92.19
		L35.86,92.19c0,0.01,0.01,0.03,0.01,0.04l0,0l0,0C35.87,92.21,35.86,92.2,35.86,92.19L35.86,92.19 M35.24,90.33L35.24,90.33
		c0.1,0.28,0.2,0.57,0.29,0.86l0,0l0,0C35.44,90.9,35.34,90.62,35.24,90.33L35.24,90.33 M31.88,81.15c0.55,1.49,1.11,2.98,1.67,4.48
		c0.48,1.32,0.96,2.66,1.45,4.01l0,0l0,0c-0.49-1.35-0.97-2.69-1.45-4.01C32.99,84.12,32.44,82.63,31.88,81.15L31.88,81.15
		 M32.94,80.48L32.94,80.48c0,0.2-0.03,0.43-0.13,0.61l0,0c-0.09,0.15-0.22,0.26-0.42,0.26l-0.18-0.03l-0.23-0.11l-0.06-0.04
		l-0.03-0.02l0,0l0.03,0.02l0.06,0.04l0.23,0.11l0.18,0.03c0.19,0,0.33-0.11,0.42-0.26C32.91,80.91,32.94,80.68,32.94,80.48
		L32.94,80.48"/>
	<path class="st366" d="M46.42,82.01c-0.72,0-1.78,1-2.59,1.91c0.02,0.08,0.04,0.16,0.06,0.24c0.46,1.9,0.99,3.86,1.28,5.61
		c0.16,0.86,0.17,1.78,0.3,2.34c0.07,0.48,0.13,0.86,0.13,1.13l0,0c0,0.07,0,0.14-0.01,0.19c0,0,0,0,0,0.01
		c0,0.02,0.02,0.09,0.15,0.23c0.04,0.04,0.1,0.09,0.17,0.14c0.21-0.22,0.41-0.47,0.59-0.76c0.35-0.54,0.59-1.15,0.75-1.69
		c0.3-1.11,0.36-1.91,0.49-2.56c0.11-0.68,0.21-1.32,0.29-1.86c0.16-1.08,0.26-1.8,0.26-1.8c-0.23-0.81-1.12-2.37-1.12-2.37
		C47.02,82.22,46.76,82.01,46.42,82.01"/>
	<path class="st366" d="M35.25,90.35c0.1,0.28,0.19,0.56,0.29,0.84c-0.01-0.03-0.02-0.07-0.03-0.1
		C35.42,90.84,35.33,90.59,35.25,90.35"/>
	<path class="st366" d="M35.56,91.25l0.23,0.72c0.02,0.06,0.04,0.12,0.06,0.18c-0.06-0.2-0.13-0.42-0.21-0.68l0,0
		C35.61,91.41,35.58,91.33,35.56,91.25"/>
	<path class="st366" d="M35.86,92.19c0,0.01,0.01,0.03,0.01,0.04C35.87,92.22,35.86,92.2,35.86,92.19L35.86,92.19"/>
	<path class="st366" d="M35.97,92.56c0.04,0.15,0.08,0.29,0.12,0.42C36.06,92.85,36.02,92.72,35.97,92.56"/>
	<path class="st366" d="M40.8,92.86c-0.02,0-0.04,0-0.06,0l0.05,0l0.06,0C40.82,92.86,40.81,92.86,40.8,92.86"/>
	<path class="st366" d="M40.34,92.87c-0.09,0.01-0.17,0.02-0.23,0.02c0,0,0,0,0.01,0c0,0,0,0,0.01,0l0,0l0,0l0,0l0,0l0,0l0,0
		c0,0,0,0,0,0l-0.04,0.01l0.17-0.02C40.25,92.89,40.28,92.88,40.34,92.87"/>
	<path class="st366" d="M39.9,92.93l-0.06,0.03l0,0C39.86,92.95,39.88,92.94,39.9,92.93L39.9,92.93L39.9,92.93L39.9,92.93
		L39.9,92.93C39.9,92.93,39.9,92.93,39.9,92.93L39.9,92.93"/>
	<polyline class="st366" points="39.9,92.93 39.9,92.93 39.89,92.93 39.9,92.93 39.9,92.93 39.9,92.93 	"/>
	<polyline class="st366" points="39.9,92.93 39.89,92.93 39.89,92.94 39.86,92.95 39.86,92.95 39.85,92.95 39.86,92.95 39.89,92.94 
		39.89,92.93 39.9,92.93 	"/>
	<path class="st366" d="M39.9,92.93c-0.02,0.01-0.03,0.02-0.05,0.02l0,0C39.86,92.95,39.88,92.94,39.9,92.93L39.9,92.93"/>
	<path class="st366" d="M39.89,92.93c-0.02,0.01-0.04,0.02-0.05,0.02l0,0l0.01,0L39.89,92.93L39.89,92.93"/>
	<polyline class="st366" points="39.9,92.94 39.9,92.94 39.9,92.94 39.88,92.95 39.9,92.94 39.9,92.94 	"/>
	<polyline class="st366" points="39.86,92.95 39.85,92.96 39.85,92.96 39.84,92.96 39.84,92.96 39.86,92.95 	"/>
	<polyline class="st366" points="39.84,92.96 39.84,92.96 39.84,92.96 39.84,92.96 39.84,92.96 	"/>
	<polyline class="st366" points="39.84,92.96 39.84,92.96 39.83,92.96 39.83,92.96 39.84,92.96 	"/>
	<polyline class="st366" points="39.84,92.96 39.82,92.96 39.83,92.96 39.84,92.96 	"/>
	<path class="st366" d="M39.83,92.96L39.83,92.96l-0.67,0.32c0.17-0.08,0.32-0.15,0.43-0.2C39.67,93.04,39.75,93,39.83,92.96"/>
	<polyline class="st366" points="39.82,92.96 39.82,92.96 39.82,92.96 39.82,92.96 	"/>
	<path class="st366" d="M36.14,93.18c0.02,0.07,0.04,0.14,0.05,0.2c0,0.02,0.01,0.03,0.01,0.05c0.05,0.19,0.08,0.35,0.11,0.49
		c-0.01-0.05-0.02-0.1-0.03-0.15C36.25,93.6,36.2,93.4,36.14,93.18"/>
	<path class="st366" d="M43.32,93.18c0.25,0.06,0.52,0.13,0.82,0.21C43.88,93.32,43.6,93.25,43.32,93.18"/>
	<path class="st366" d="M44.49,93.49c0.15,0.05,0.31,0.1,0.48,0.16l0,0c0.09,0.03,0.17,0.05,0.26,0.08
		c-0.07-0.02-0.14-0.04-0.21-0.07C44.85,93.61,44.67,93.55,44.49,93.49"/>
	<path class="st366" d="M38.56,93.57c-0.01,0.01-0.03,0.01-0.04,0.02l-0.12,0.06L38.56,93.57"/>
	<path class="st366" d="M38.37,93.66l-0.05,0.02c-0.09,0.04-0.17,0.09-0.26,0.14c0,0,0,0,0,0c0.09-0.05,0.18-0.1,0.28-0.15
		L38.37,93.66C38.37,93.66,38.37,93.66,38.37,93.66"/>
	<path class="st366" d="M45.41,93.79c0.12,0.04,0.25,0.08,0.36,0.13l0,0l0,0c0.01,0,0.01,0,0.02,0.01c0,0,0,0,0,0
		C45.68,93.88,45.56,93.84,45.41,93.79"/>
	<path class="st366" d="M36.32,93.93c0.03,0.16,0.05,0.29,0.07,0.42c0,0,0,0,0,0C36.38,94.22,36.36,94.09,36.32,93.93"/>
	<path class="st366" d="M37.81,93.97c-0.16,0.1-0.31,0.2-0.45,0.3l0,0c-0.13,0.1-0.25,0.19-0.35,0.28
		C37.24,94.35,37.53,94.15,37.81,93.97"/>
	<path class="st366" d="M36.41,94.41c0.03,0.23,0.04,0.4,0.04,0.54c0,0,0,0.01,0,0.01l0,0l0,0l0,0l0,0l0,0l0,0l0,0l0,0l0,0l0,0
		c0,0.02,0,0.03,0,0.05c0-0.02,0-0.03,0-0.05c0-0.03,0-0.06,0-0.1c0-0.11-0.01-0.24-0.04-0.4C36.41,94.45,36.41,94.43,36.41,94.41"
		/>
	<path class="st366" d="M36.99,94.57c-0.07,0.07-0.14,0.13-0.2,0.19C36.85,94.71,36.92,94.64,36.99,94.57"/>
	<path class="st366" d="M36.78,94.79c-0.07,0.07-0.13,0.14-0.17,0.2C36.65,94.93,36.71,94.86,36.78,94.79"/>
	<path class="st366" d="M36.58,95.03c-0.06,0.08-0.1,0.15-0.12,0.19C36.48,95.17,36.52,95.1,36.58,95.03"/>
	<path class="st366" d="M36.44,95.2L36.44,95.2C36.44,95.2,36.44,95.21,36.44,95.2c-0.01,0.04-0.01,0.06-0.01,0.07l0,0
		C36.43,95.25,36.44,95.22,36.44,95.2"/>
	<polyline class="st366" points="36.46,95.23 36.45,95.23 36.42,95.31 36.42,95.31 36.42,95.32 36.42,95.32 36.42,95.32 
		36.42,95.32 36.42,95.32 36.42,95.32 36.42,95.32 36.42,95.33 36.46,95.23 	"/>
	<path class="st368" d="M36.54,73.68c-1.83,0-3.37,0.37-3.37,0.37c-0.31-0.07-0.59-0.1-0.85-0.1c-1.82,0-2.53,1.51-2.62,3
		c-0.01,0.15-0.02,0.31-0.02,0.46c0,1.15,0.29,2.24,0.43,2.71c0.05,0.16,0.08,0.25,0.08,0.25c0.14-0.09,0.29-0.17,0.44-0.23
		c0.23-0.1,0.45-0.18,0.68-0.23c0.28-0.06,0.55-0.09,0.83-0.09c1.33,0,2.65,0.66,3.74,1.45c1.12,0.8,2.03,1.71,2.49,2.2
		c0.21,0.23,0.33,0.36,0.33,0.36c0.5,0.99,0.9,1.89,1.23,2.7c0.45,1.11,0.77,2.05,1.02,2.77c0.42,1.28,0.59,2.06,0.6,2.55
		c0,0.04,0,0.07,0,0.11l0,0c0,0.82-0.63,0.73-0.66,0.78c-0.08-0.01-0.14-0.01-0.21-0.01c-0.22,0-0.38,0.05-0.47,0.09
		c-0.07,0.04-0.1,0.07-0.1,0.09c0,0,0,0.01,0,0.01c0.06-0.01,0.14-0.02,0.23-0.02c0.07-0.01,0.18-0.02,0.31-0.02l0.08,0
		c0.02,0,0.04,0,0.06,0c0.01,0,0.03,0,0.04,0l0.13,0l0,0c0.18,0,0.37,0.01,0.58,0.04l0,0c0.18,0.01,0.37,0.03,0.56,0.06
		c0.17,0.03,0.33,0.06,0.51,0.09c0.04,0.01,0.07,0.01,0.11,0.02l0,0c0.01,0,0.03,0.01,0.04,0.01c0.18,0.03,0.37,0.07,0.55,0.12
		c0.28,0.06,0.55,0.14,0.82,0.21c0.02,0,0.04,0.01,0.05,0.01l0,0c0.1,0.03,0.2,0.06,0.29,0.09c0.18,0.06,0.36,0.11,0.52,0.17
		c0.07,0.02,0.15,0.05,0.21,0.07c0.06,0.02,0.13,0.04,0.19,0.06c0.44,0.15,0.7,0.26,0.73,0.27c0.07,0.03,0.13,0.05,0.2,0.08
		c0.08,0.03,0.16,0.06,0.24,0.09c0.03,0.01,0.05,0.02,0.08,0.03l0.06,0.02c0.04,0.02,0.08,0.03,0.12,0.05l-0.03-0.01l-0.14-0.06
		c-0.17-0.08-0.33-0.15-0.45-0.22c-0.24-0.15-0.39-0.27-0.49-0.36c-0.14-0.14-0.15-0.21-0.15-0.23l0,0c0-0.01,0-0.01,0-0.01
		c0.01-0.06,0.01-0.12,0.01-0.19c0-0.27-0.05-0.65-0.13-1.13c-0.13-0.56-0.14-1.48-0.3-2.34c-0.29-1.75-0.81-3.7-1.28-5.61
		c-0.02-0.08-0.04-0.16-0.06-0.24c-0.13-0.5-0.25-1-0.36-1.49c-0.7-3.09-1.09-5.69-1.09-5.69c-0.27-1.85-2.43-2.83-4.72-3
		C37.28,73.69,36.91,73.68,36.54,73.68"/>
	<path class="st368" d="M34.85,86.99c-0.09,0.13-0.22,0.21-0.39,0.24c-0.06,0.01-0.12,0.02-0.18,0.02c-0.03,0-0.06,0-0.09,0
		l-0.05-0.02l0,0l0,0l0,0l0.03,0.08l0.25,0.69c0.16,0.45,0.32,0.89,0.48,1.35c0.03,0.1,0.07,0.2,0.1,0.3
		c0.01,0.03,0.02,0.05,0.03,0.08c0.01,0.02,0.01,0.04,0.02,0.05c0.07,0.19,0.13,0.39,0.2,0.58c0.09,0.25,0.17,0.5,0.26,0.75
		c0.01,0.03,0.02,0.07,0.03,0.1c0.01,0.02,0.01,0.04,0.02,0.06l-0.04-0.12l-0.45-1.32l0.05-0.11l0.24-0.27
		c0.31-0.36,0.56-0.71,0.76-1.01c0.16-0.25,0.29-0.47,0.39-0.64c-0.06,0.03-0.13,0.05-0.21,0.05c-0.18,0-0.38-0.07-0.58-0.18
		C35.26,87.4,34.85,86.99,34.85,86.99"/>
	<path class="st368" d="M36.73,87.37c0,0-0.07,0.16-0.21,0.41C36.63,87.72,36.71,87.59,36.73,87.37"/>
	<path class="st368" d="M35,89.63c0.08,0.23,0.16,0.47,0.24,0.7c-0.06-0.19-0.13-0.38-0.19-0.57c-0.01-0.02-0.01-0.04-0.02-0.05
		C35.02,89.68,35.01,89.66,35,89.63"/>
	<path class="st368" d="M35.54,91.19c0.08,0.26,0.17,0.52,0.25,0.79l-0.23-0.72C35.55,91.23,35.54,91.21,35.54,91.19"/>
	<path class="st368" d="M35.79,91.98l0.07,0.21c0-0.01-0.01-0.02-0.01-0.03C35.83,92.1,35.81,92.04,35.79,91.98"/>
	<path class="st368" d="M35.85,92.16c0,0.01,0.01,0.02,0.01,0.03l0,0C35.86,92.18,35.85,92.17,35.85,92.16
		C35.85,92.16,35.85,92.16,35.85,92.16"/>
	<path class="st368" d="M35.86,92.19c0,0.01,0.01,0.03,0.01,0.04c0.04,0.12,0.07,0.23,0.1,0.33c-0.03-0.11-0.07-0.23-0.11-0.35
		L35.86,92.19"/>
	<path class="st368" d="M35.87,92.23c0.11,0.37,0.2,0.68,0.27,0.95c-0.02-0.06-0.03-0.13-0.05-0.19c-0.04-0.13-0.08-0.27-0.12-0.42
		C35.94,92.46,35.91,92.35,35.87,92.23"/>
	<path class="st368" d="M40.97,92.85l-0.13,0c0.45,0,1.05,0.05,1.82,0.19c0.22,0.04,0.44,0.09,0.67,0.14
		c-0.19-0.05-0.37-0.09-0.55-0.12c-0.01,0-0.03-0.01-0.04-0.01l0,0c-0.04-0.01-0.07-0.01-0.11-0.02c-0.17-0.03-0.34-0.06-0.51-0.09
		c-0.19-0.03-0.37-0.05-0.56-0.06l0,0C41.34,92.87,41.15,92.85,40.97,92.85L40.97,92.85"/>
	<path class="st368" d="M40.65,92.86c-0.13,0-0.24,0.01-0.31,0.02c0.11-0.01,0.24-0.02,0.39-0.02L40.65,92.86"/>
	<path class="st368" d="M40.02,92.87c0,0-0.03,0.02-0.12,0.06v0c0,0,0,0,0,0C39.96,92.9,40.02,92.87,40.02,92.87"/>
	<polyline class="st368" points="40.12,92.9 40.12,92.9 40.12,92.9 	"/>
	<path class="st368" d="M40.11,92.9c-0.11,0.02-0.18,0.03-0.21,0.04l0.14-0.03l0.04,0l0.04-0.01C40.12,92.9,40.12,92.9,40.11,92.9
		C40.11,92.9,40.11,92.9,40.11,92.9 M40.11,92.9L40.11,92.9L40.11,92.9L40.11,92.9L40.11,92.9"/>
	<polyline class="st368" points="40.08,92.91 40.04,92.91 39.9,92.94 39.9,92.94 39.88,92.95 39.86,92.95 39.92,92.94 40.08,92.91 	
		"/>
	<path class="st368" d="M39.9,92.93L39.9,92.93L39.9,92.93 M39.9,92.93C39.9,92.93,39.9,92.93,39.9,92.93L39.9,92.93
		C39.9,92.93,39.9,92.93,39.9,92.93L39.9,92.93"/>
	<path class="st368" d="M39.89,92.93L39.89,92.93L39.89,92.93 M39.9,92.93C39.9,92.93,39.9,92.93,39.9,92.93L39.9,92.93L39.9,92.93
		L39.9,92.93L39.9,92.93"/>
	<path class="st368" d="M39.9,92.93c-0.02,0.01-0.04,0.02-0.06,0.03l0,0C39.86,92.95,39.88,92.94,39.9,92.93L39.9,92.93"/>
	<path class="st368" d="M39.9,92.93c-0.02,0.01-0.04,0.02-0.05,0.02l0,0C39.86,92.95,39.88,92.94,39.9,92.93L39.9,92.93"/>
	<polyline class="st368" points="39.89,92.94 39.86,92.95 39.86,92.95 39.89,92.94 	"/>
	<polyline class="st368" points="39.88,92.95 39.87,92.95 39.85,92.96 39.85,92.95 39.85,92.96 39.85,92.96 39.86,92.95 
		39.88,92.95 	"/>
	<polyline class="st368" points="39.86,92.95 39.85,92.96 39.85,92.95 39.86,92.95 	"/>
	<polyline class="st368" points="39.84,92.96 39.84,92.96 39.84,92.96 39.84,92.96 39.84,92.96 	"/>
	<polyline class="st368" points="39.84,92.96 39.84,92.96 39.83,92.96 39.84,92.96 39.84,92.96 	"/>
	<path class="st368" d="M39.84,92.96L39.84,92.96c-0.03,0.02-0.06,0.03-0.06,0.03S39.79,92.98,39.84,92.96"/>
	<path class="st368" d="M39.84,92.96L39.84,92.96c-0.08,0.04-0.16,0.08-0.24,0.12C39.69,93.03,39.77,92.99,39.84,92.96"/>
	<path class="st368" d="M36.09,92.98c0.02,0.07,0.04,0.13,0.05,0.19c0.06,0.23,0.11,0.42,0.14,0.59
		C36.24,93.55,36.18,93.3,36.09,92.98"/>
	<path class="st368" d="M39.59,93.08c-0.11,0.05-0.26,0.12-0.43,0.2l-0.6,0.28l-0.01,0C38.9,93.4,39.25,93.24,39.59,93.08"/>
	<path class="st368" d="M39.16,93.28c-0.17,0.08-0.36,0.17-0.59,0.28l-0.01,0l-0.05,0.02c0.01-0.01,0.03-0.01,0.04-0.02l0.01,0
		L39.16,93.28"/>
	<path class="st368" d="M44.14,93.39c0.12,0.03,0.23,0.07,0.35,0.1c-0.09-0.03-0.19-0.06-0.29-0.09l0,0
		C44.18,93.4,44.16,93.4,44.14,93.39"/>
	<path class="st374" d="M44.19,93.41L44.19,93.41c0.1,0.03,0.2,0.06,0.29,0.09l0,0c-0.09-0.03-0.17-0.05-0.27-0.08
		C44.21,93.41,44.2,93.41,44.19,93.41L44.19,93.41"/>
	<path class="st368" d="M38.51,93.59c-0.03,0.01-0.06,0.03-0.09,0.04c-0.02,0.01-0.03,0.02-0.05,0.03l0.02-0.01L38.51,93.59"/>
	<polyline class="st368" points="38.39,93.65 38.37,93.66 38.37,93.66 38.39,93.65 	"/>
	<path class="st368" d="M45.24,93.73c0.05,0.02,0.1,0.03,0.15,0.05C45.34,93.77,45.29,93.75,45.24,93.73 M38.37,93.66l-0.03,0.01
		c-0.09,0.05-0.18,0.1-0.28,0.15C38.17,93.77,38.27,93.71,38.37,93.66"/>
	<path class="st368" d="M36.29,93.77c0.01,0.05,0.02,0.1,0.03,0.15c0,0,0,0.01,0,0.01C36.31,93.88,36.3,93.82,36.29,93.77"/>
	<path class="st368" d="M38.07,93.82C38.07,93.82,38.07,93.82,38.07,93.82c-0.09,0.05-0.17,0.1-0.25,0.15
		c-0.29,0.18-0.57,0.38-0.8,0.58c-0.01,0-0.01,0.01-0.02,0.01C37.28,94.32,37.67,94.05,38.07,93.82"/>
	<path class="st368" d="M38.07,93.82C38.06,93.82,38.06,93.83,38.07,93.82c-0.09,0.05-0.17,0.1-0.25,0.15
		C37.9,93.92,37.98,93.87,38.07,93.82"/>
	<path class="st368" d="M36.32,93.92c0.04,0.18,0.06,0.33,0.08,0.46c0,0.01,0,0.02,0,0.03c0-0.01,0-0.02,0-0.03l0,0l0,0
		c0-0.01,0-0.01,0-0.02c0,0,0,0,0,0c-0.02-0.13-0.04-0.27-0.07-0.42C36.32,93.93,36.32,93.92,36.32,93.92"/>
	<path class="st368" d="M46.14,94.06C46.15,94.06,46.15,94.06,46.14,94.06c0.13,0.06,0.29,0.11,0.43,0.17
		c-0.08-0.03-0.16-0.06-0.24-0.09C46.27,94.11,46.21,94.09,46.14,94.06"/>
	<path class="st368" d="M46.72,94.28l0.06,0.02l0.06,0.02l-0.01,0C46.8,94.31,46.76,94.3,46.72,94.28"/>
	<path class="st368" d="M36.4,94.36c0,0.01,0,0.01,0,0.02l0,0l0,0c0,0.01,0,0.03,0.01,0.04c0,0.02,0,0.03,0.01,0.05
		C36.41,94.43,36.4,94.39,36.4,94.36"/>
	<path class="st368" d="M36.41,94.46c0.02,0.16,0.03,0.29,0.04,0.4C36.45,94.76,36.44,94.62,36.41,94.46"/>
	<path class="st368" d="M36.79,94.77C36.79,94.77,36.79,94.78,36.79,94.77C36.79,94.78,36.79,94.78,36.79,94.77
		C36.79,94.77,36.79,94.77,36.79,94.77 M37.01,94.56c-0.1,0.09-0.19,0.18-0.27,0.27c-0.06,0.07-0.12,0.14-0.16,0.2
		c0.01-0.01,0.02-0.02,0.02-0.03c0.05-0.06,0.11-0.13,0.17-0.2c0.01-0.01,0.01-0.01,0.02-0.02c0.06-0.06,0.13-0.13,0.2-0.19
		C37,94.57,37.01,94.56,37.01,94.56"/>
	<path class="st368" d="M36.45,94.87c0,0.04,0,0.07,0,0.1l0,0c0,0.02,0,0.03,0,0.05c0,0.07-0.01,0.13-0.01,0.18l0,0
		c0.01-0.06,0.01-0.13,0.01-0.23C36.45,94.94,36.45,94.9,36.45,94.87"/>
	<path class="st368" d="M36.6,95c-0.01,0.01-0.01,0.02-0.02,0.03c-0.05,0.08-0.09,0.14-0.12,0.19c0,0,0,0,0,0l0,0l0,0
		c0,0,0-0.01,0.01-0.01C36.49,95.16,36.54,95.08,36.6,95"/>
	<path class="st368" d="M36.45,95.02c0,0.07-0.01,0.14-0.01,0.18l0,0C36.44,95.15,36.45,95.09,36.45,95.02"/>
	<path class="st368" d="M36.44,95.2l-0.02,0.12l0.01-0.05C36.43,95.25,36.43,95.23,36.44,95.2C36.44,95.21,36.44,95.2,36.44,95.2"/>
	<polyline class="st368" points="36.46,95.22 36.45,95.23 36.45,95.23 36.46,95.23 36.46,95.22 36.46,95.22 36.46,95.22 	"/>
	<path class="st368" d="M36.45,95.23c-0.02,0.04-0.03,0.07-0.03,0.08L36.45,95.23"/>
	<path class="st368" d="M36.43,95.27l-0.01,0.05l0,0l0,0l0,0l0,0c0,0,0,0,0,0c0,0,0,0,0,0l0,0C36.42,95.31,36.42,95.3,36.43,95.27"
		/>
	<polyline class="st368" points="36.42,95.31 36.42,95.31 36.42,95.31 	"/>
	<path class="st369" d="M56.43,71.87L56.43,71.87L56.43,71.87 M56.43,71.87L56.43,71.87L56.43,71.87 M56.43,71.87L56.43,71.87
		L56.43,71.87 M49.21,61.62c-1.88,0-3.38,1.1-5.04,1.47c0,0,0,0,0,0c-0.01,0-0.02-0.03-0.02-0.08l0,0c0-0.06,0.01-0.15,0.04-0.26
		c-0.2,0.08-0.39,0.17-0.58,0.27c-0.07,0.16-0.44,0.55-0.51,0.71c-0.25,0.07-0.47,0.11-0.7,0.11c-0.2,0-0.41-0.02-0.66-0.07
		c-0.68-0.25-1.41-0.35-2.15-0.35c-1.27,0-2.58,0.3-3.83,0.68c-2,0.61-3.9,1.44-5.78,1.64c-0.73,0.19-1.83,0.5-2.38,1.27
		c-0.37,0.62-1.06,1.18-1.21,1.82c-0.02,0.23-0.03,0.46-0.03,0.69c0,1.13,0.23,2.33,0.37,3.38c0.25-0.28,0.5-0.57,0.76-0.85
		c0.49-0.53,0.99-1.07,1.52-1.6c0.45-1.05,1.67-1.98,3.07-2.3c0.15-0.07,0.33-0.1,0.52-0.1c0.74,0,1.73,0.45,2.5,0.96
		c0.32,0.27,0.45,0.81,0.76,1.08c1.28,0.91,2.57,0.92,3.6,2.47c0.29,0.58,1.34,0.89,1.95,0.89c0.01,0,0.02,0,0.02,0
		c0.46-0.08,1.37-2.26,2.86-4.42c1.42-2.16,3.42-4.2,3.82-4.31c0.3-0.19,0.29-0.86,0.61-1.03c0.13-0.02,0.26-0.03,0.38-0.03
		c1.21,0,2.26,0.78,3.28,1.48c0.74,0.46,1.95,0.66,2.99,0.85c1.04,0.18,1.92,0.34,1.96,0.41l0,0l0,0l0,0l0,0
		c-0.4,1.27-0.45,2.88-1.25,3.79c-0.05,0.06-0.06,0.21-0.06,0.37c0,0.08,0,0.16,0,0.24l0,0c0,0.06,0,0.13-0.01,0.18
		c0.05,0.36,0.27,0.88,0.38,0.91l0,0l0,0l0,0l0,0c-0.07,0.03-0.1,0.05-0.1,0.08c0,0.15,0.78,0.32,1.55,0.48
		c0.52,0.1,1.07,0.22,1.38,0.22c0.16,0,0.26-0.03,0.26-0.11c0-0.04-0.03-0.09-0.08-0.16l0,0l0,0l0,0l0,0
		c0.47,0.5,1.07,0.43,1.88,0.49c0.78,0.04,1.83,0.32,2.43,1.1c0.49,0.56,0.58,1.33,0.59,1.98c0.02,0.66-0.02,1.23,0.29,1.75
		c0.21,0.48,0.44,1.04,0.44,1.52l0,0c0,0.37-0.13,0.69-0.51,0.9c-0.55,0.36-0.95,0.58-1.27,0.88c-0.47,0.85-0.65,1.89-1.61,2.14
		c-0.1,0.02-0.2,0.02-0.31,0.02c-0.21,0-0.44-0.02-0.66-0.05c-0.22-0.02-0.45-0.05-0.65-0.05c-0.04,0-0.08,0-0.12,0
		c-0.37,0.02-0.63,0.14-0.67,0.52c0,0.06-0.02,0.13-0.05,0.18c-0.09,0.2-0.28,0.36-0.28,0.54c0,0.06,0.02,0.11,0.07,0.17l0,0
		c0.05-0.01,0.11-0.01,0.17-0.01c0.09,0,0.18,0.01,0.28,0.01s0.2,0.01,0.3,0.01c0.1,0,0.19-0.01,0.29-0.03
		c0.74-0.06,1.15-0.54,1.93-0.58c0.75-0.13,1.59-0.14,2.33-0.54c0.45-0.3,0.78-0.64,1.05-1.11c0.6-0.76,1.1-1.84,1.3-2.94
		c0.08-0.43,0.12-0.87,0.12-1.32c0-0.7-0.1-1.42-0.34-2.14c-0.58-0.34-0.86-0.86-1.1-1.47c-0.25-0.61-0.51-1.31-0.94-1.8
		c-0.24-0.31-0.35-0.74-0.68-1.17c-0.46-0.46-1.05-0.71-1.53-0.95c-0.48-0.23-0.87-0.45-1.09-0.9c-0.41-0.97-0.91-1.85-1.41-2.65
		c-0.49-0.78-1.08-1.53-1.79-2.17c-0.57-0.54-2.18-1.48-3.95-2.12c-1.76-0.66-3.64-1.01-4.38-1.02
		C49.43,61.62,49.31,61.62,49.21,61.62"/>
	<path class="st371" d="M32.9,80.02c0,0,0.05,0.21,0.05,0.47l0,0C32.94,80.23,32.9,80.02,32.9,80.02"/>
	<path class="st371" d="M32.94,80.48c0,0.2-0.03,0.43-0.13,0.61C32.91,80.91,32.94,80.68,32.94,80.48"/>
	<path class="st371" d="M35.05,89.77c0.06,0.19,0.13,0.38,0.19,0.57c0.1,0.28,0.2,0.57,0.29,0.86c0.01,0.02,0.01,0.04,0.02,0.06
		c0.03,0.08,0.05,0.15,0.08,0.23c-0.03-0.08-0.05-0.15-0.08-0.23c-0.01-0.02-0.01-0.04-0.02-0.06c-0.1-0.28-0.19-0.56-0.29-0.84
		C35.18,90.15,35.12,89.96,35.05,89.77"/>
	<path class="st370" d="M36.14,93.18c0.02,0.07,0.04,0.14,0.05,0.2c0,0,0,0.01,0,0.01c0,0.01,0.01,0.02,0.01,0.04l0,0
		c0-0.02-0.01-0.03-0.01-0.05C36.18,93.31,36.16,93.24,36.14,93.18L36.14,93.18"/>
	<path class="st371" d="M40.97,92.85c0.18,0,0.37,0.01,0.58,0.04C41.34,92.87,41.15,92.85,40.97,92.85"/>
	<path class="st371" d="M42.11,92.95c0.17,0.03,0.34,0.06,0.51,0.09C42.44,93.01,42.27,92.98,42.11,92.95 M41.55,92.89
		c0.18,0.01,0.37,0.03,0.56,0.06C41.92,92.92,41.73,92.9,41.55,92.89"/>
	<path class="st375" d="M49.49,92.99c0.01,0.02,0.02,0.04,0.03,0.05c0.05,0.1,0.11,0.2,0.16,0.29l0,0
		C49.62,93.22,49.56,93.1,49.49,92.99"/>
	<path class="st371" d="M50.44,95.15c0.04,0.09,0.08,0.15,0.12,0.22C50.53,95.31,50.48,95.25,50.44,95.15 M50.34,94.81
		c0.04,0.12,0.07,0.23,0.1,0.34C50.41,95.05,50.37,94.93,50.34,94.81 M49.52,93.04c0.05,0.1,0.11,0.2,0.16,0.29
		c0.31,0.59,0.52,1.08,0.66,1.49C50.18,94.34,49.92,93.76,49.52,93.04"/>
	<path class="st371" d="M42.77,93.06c0.18,0.03,0.37,0.07,0.55,0.12c0.25,0.06,0.52,0.13,0.82,0.21c0.02,0,0.04,0.01,0.05,0.01
		c-0.02,0-0.04-0.01-0.05-0.01c-0.3-0.08-0.56-0.15-0.82-0.21C43.13,93.14,42.95,93.1,42.77,93.06"/>
	<path class="st376" d="M44.19,93.41L44.19,93.41c0.01,0,0.02,0,0.03,0.01c0.09,0.03,0.18,0.05,0.27,0.08l0,0l0,0
		C44.39,93.46,44.3,93.43,44.19,93.41L44.19,93.41"/>
	<path class="st371" d="M44.22,93.41c0.26,0.07,0.48,0.15,0.74,0.24c-0.17-0.05-0.32-0.11-0.48-0.16
		C44.4,93.47,44.31,93.44,44.22,93.41"/>
	<path class="st371" d="M36.21,93.42c0.05,0.19,0.08,0.35,0.11,0.49c0,0,0,0.01,0,0.01c0.03,0.16,0.06,0.29,0.07,0.42
		c0,0.01,0,0.01,0,0.02c0-0.01,0-0.01,0-0.02c-0.02-0.13-0.04-0.27-0.08-0.43c0,0,0-0.01,0-0.01
		C36.29,93.77,36.25,93.61,36.21,93.42"/>
	<path class="st371" d="M44.96,93.65c0.09,0.03,0.19,0.06,0.28,0.09c0.18,0.06,0.36,0.12,0.53,0.18c-0.12-0.04-0.24-0.09-0.36-0.13
		c-0.06-0.02-0.12-0.04-0.19-0.06C45.14,93.7,45.05,93.67,44.96,93.65"/>
	<path class="st371" d="M45.77,93.92c0.01,0,0.01,0,0.02,0.01c0.12,0.05,0.23,0.09,0.36,0.14c0.07,0.03,0.13,0.05,0.2,0.07
		c-0.07-0.02-0.13-0.05-0.2-0.08C46.02,94.01,45.89,93.97,45.77,93.92"/>
	<path class="st371" d="M48.18,94.91c0,0,0.31,0.14,0.77,0.36c0,0,0.01,0,0.01,0c0,0-0.01,0-0.01,0
		C48.48,95.05,48.18,94.91,48.18,94.91 M46.34,94.14c0.08,0.03,0.16,0.06,0.24,0.09c0.05,0.02,0.1,0.04,0.14,0.06
		c0.04,0.02,0.08,0.03,0.12,0.05c0.13,0.05,0.25,0.1,0.37,0.15c-0.11-0.05-0.24-0.1-0.37-0.15c-0.04-0.02-0.08-0.03-0.12-0.05
		c-0.05-0.02-0.09-0.04-0.14-0.05C46.5,94.2,46.42,94.17,46.34,94.14"/>
	<path class="st371" d="M37.37,94.27c-0.14,0.1-0.25,0.19-0.36,0.29c-0.01,0.01-0.01,0.01-0.02,0.02c-0.07,0.07-0.14,0.13-0.2,0.19
		c-0.01,0.01-0.01,0.01-0.02,0.02c-0.07,0.07-0.13,0.14-0.17,0.2c-0.01,0.01-0.02,0.02-0.02,0.03c-0.06,0.09-0.1,0.15-0.12,0.2
		c0,0,0,0,0,0c0,0,0,0,0,0c0.02-0.04,0.06-0.11,0.12-0.19c0.01-0.01,0.01-0.02,0.02-0.03c0.05-0.06,0.11-0.14,0.19-0.22
		c0,0,0,0,0.01-0.01c0.06-0.06,0.13-0.13,0.21-0.2c0.01,0,0.01-0.01,0.02-0.01C37.12,94.46,37.23,94.37,37.37,94.27"/>
	<path class="st371" d="M36.4,94.38c0.04,0.24,0.05,0.43,0.05,0.58c0-0.14-0.01-0.32-0.04-0.54C36.41,94.4,36.4,94.39,36.4,94.38"/>
	<path class="st370" d="M36.44,95.2L36.44,95.2c0,0.03-0.01,0.05-0.01,0.07l0,0l0,0l0,0c0,0,0,0,0-0.01
		C36.43,95.24,36.44,95.22,36.44,95.2"/>
	<path class="st371" d="M36.45,94.97c0,0.02,0,0.03,0,0.05c0,0.07-0.01,0.13-0.01,0.18c0,0.02-0.01,0.04-0.01,0.06
		c0-0.02,0.01-0.04,0.01-0.06c0.01-0.05,0.01-0.11,0.01-0.18C36.45,95,36.45,94.99,36.45,94.97"/>
	<path class="st371" d="M48.96,95.27c0.01,0,0.02,0.01,0.03,0.01c0.16,0.08,0.34,0.17,0.54,0.27c0.08,0.04,0.16,0.08,0.24,0.12
		c-0.02-0.01-0.03-0.02-0.05-0.03c-0.07-0.04-0.14-0.07-0.21-0.1c-0.19-0.09-0.36-0.18-0.52-0.26
		C48.98,95.28,48.97,95.28,48.96,95.27"/>
	<path class="st362" d="M50.56,95.38C50.56,95.38,50.56,95.38,50.56,95.38L50.56,95.38c0.08,0.13,0.12,0.25,0.16,0.33
		c0,0,0,0.01,0,0.01l0,0c0.08,0.17,0.1,0.26,0.1,0.31c0,0,0,0,0,0.01l0,0c0-0.05-0.02-0.14-0.1-0.31
		C50.68,95.64,50.64,95.52,50.56,95.38C50.56,95.38,50.56,95.38,50.56,95.38"/>
	<path class="st371" d="M50.73,95.72c0.08,0.17,0.1,0.26,0.1,0.31C50.83,95.98,50.81,95.89,50.73,95.72 M50.56,95.39
		c0.07,0.13,0.12,0.24,0.16,0.33C50.68,95.63,50.64,95.52,50.56,95.39"/>
	<path class="st372" d="M49.42,59.78c-2.52,0.11-3.91,1.05-4.6,1.83c-0.38,0.45-0.57,0.87-0.64,1.14c-0.03,0.11-0.04,0.2-0.04,0.26
		c0,0.05,0.01,0.08,0.02,0.08c0,0,0,0,0,0c1.66-0.37,3.16-1.47,5.04-1.47c0.11,0,0.22,0,0.33,0.01c0.75,0,2.62,0.36,4.38,1.02
		c1.77,0.64,3.39,1.57,3.95,2.12c0.71,0.64,1.3,1.39,1.79,2.17c0.5,0.8,1,1.68,1.41,2.65c0.22,0.44,0.61,0.66,1.09,0.9
		c0.48,0.24,1.07,0.49,1.53,0.95c0.33,0.42,0.44,0.86,0.68,1.17c0.43,0.5,0.69,1.2,0.94,1.8c0.24,0.61,0.51,1.13,1.1,1.47
		c0.23,0.72,0.34,1.44,0.34,2.14l0,0c0,0.45-0.04,0.89-0.12,1.32c-0.2,1.11-0.7,2.18-1.3,2.94c-0.27,0.47-0.61,0.81-1.05,1.11
		c-0.75,0.4-1.58,0.41-2.33,0.54c-0.78,0.04-1.19,0.53-1.93,0.58c-0.09,0.02-0.19,0.03-0.29,0.03c-0.1,0-0.2-0.01-0.3-0.01
		s-0.19-0.01-0.28-0.01c-0.06,0-0.12,0-0.17,0.01c-0.02,0.14-0.21,0.27-0.21,0.38c0,0.04,0.02,0.08,0.08,0.12
		c0.26,0.24,0.64,0.26,0.95,0.34c0.91,0.07,1.87,0.22,2.78,0.22c0.34,0,0.67-0.02,0.99-0.07c1.37-0.26,2.77-0.85,3.98-2.04
		c1.19-1.09,2.23-3.2,2.32-5.39c0-0.03,0-0.05,0-0.08c0-0.82-0.53-1.46-0.88-2.16c-0.46-0.82-0.75-1.82-1.31-2.84
		c-0.55-1-1.43-1.99-2.62-2.32c-0.3-0.07-0.67-0.4-0.89-0.71c-0.89-1.77-2.15-3.15-3.19-4.29c-0.5-0.53-0.99-1.06-1.48-1.59
		c-0.49-0.51-1.01-0.99-1.57-1.46c-0.69-0.65-2.46-1.51-4.28-2.03C51.86,60.04,50.03,59.8,49.42,59.78"/>
</g>
<g>
	<path d="M21.54,87.61c1.55,11.63,6.55,20.22,18.67,23.15c5.1,1.24,10.75,0.21,16.65,0.21c3.23,9.68,11.68,13.19,21.87,13.72
		c10.42,0.54,18.04-4.59,24.06-13.22c5.75,4.59,11.2,9.06,16.78,13.36c4.08,3.14,9.72,1.44,12.02-3.17
		c4.78-9.56,0.8-24.06-6.71-30.74c-2.25-2-4.57-3.94-7.04-5.65c-2.35-1.62-4.93-2.9-7.67-4.49c4.12-8.37-0.18-15.12-5.21-21.85
		c0.19-0.3,0.37-0.71,0.65-1.01c3.17-3.32,3.16-3.29-1.05-5.4c-0.6-0.3-0.89-1.31-1.5-1.52c-1.51-0.53-3.46-1.54-4.62-1.01
		c-2.27,1.04-4.2,1.04-6.64,0.72c-6.93-0.9-13.42,0.94-19.45,4.41c-0.75,0.43-1.5,0.88-1.77,1.04c-2.8-5.22-4.69-10.69-8.18-14.78
		c-5.15-6.04-10.96-11.72-18.95-14.28c-5.29-1.7-10.81,0.76-13.42,5.77c-2.22,4.28-1.18,8.54-0.36,12.75
		c0.68,3.45,1.81,6.87,3.17,10.12c1.36,3.25,3.26,6.28,4.77,9.12c-2.92,2.02-6,4.13-9.05,6.28C22.81,75.16,20.6,80.6,21.54,87.61z
		 M61.9,66.2c-1.29-1.06-2.37-2.17-2.91-3.49c-2.16-5.33-6.45-11.57-10.04-13.95c2.73,5.14,5.26,9.89,7.96,14.99
		c-1.22,0.16-1.75,0.31-2.27,0.28c-2.88-0.15-5.92-1.02-8.59-0.36c-3.54,0.87-5.35-0.34-7.25-2.96c-4.52-6.27-6.2-13.55-7.21-20.89
		c-0.88-6.41,5.89-13.7,13.14-9.12c5.41,3.41,10.84,7.18,15.14,11.82c3.15,3.41,4.86,8.36,6.54,12.88
		C68.05,59.81,63.57,62.37,61.9,66.2z M100.93,87.87c-8.01-8.7-18.02-9.92-29.24-6.88c0.13-6.07-3.65-9.87-7.39-13.78
		c3.97-4.49,7.42-8.79,13.03-11.54c7.89-3.87,15.52-0.87,23.3-0.19c-0.03-0.3-0.06-0.61-0.08-0.91c0.73,0.44,1.46,0.88,2.58,1.56
		c-3.81,2.29-1.71,3.81,0.22,5.93C111.64,71.22,110.44,81,100.93,87.87z M105.02,107.39c0.43-3.95,1.1-7.87,1.69-11.89
		c3.8,0.23,6.05,4.04,9.03,7.78c-0.04-5.73-4.01-9.71-9.83-10.95c-1.06-0.23-2.05-0.8-4.06-1.61c2.65-2.45,4.29-4.32,6.28-5.66
		c1.01-0.67,3.15-1.01,3.95-0.41c5.64,4.23,12.33,7.32,15.5,14.31c2.93,6.46,4.69,12.91,2.25,19.99c-1.49,4.31-5.66,6.45-8.42,3.52
		c-3.96-4.21-8.2-7.76-13.53-10c-0.79-0.33-1.65-0.96-2.03-1.69C105.34,109.75,104.9,108.48,105.02,107.39z M57.78,102.26
		c0.38-8.29,4.78-13.74,12.43-17.48c8.9-4.36,21.7-2.93,28.97,5.58c3.26,3.81,5.67,8.41,4.16,13.21
		c-3.01,9.57-10.88,18.61-23.37,18.74c-2.3-0.34-4.67-0.44-6.9-1.06C63.6,118.59,57.38,111.13,57.78,102.26z M28.62,74.85
		c0.25-0.25,0.51-0.49,0.76-0.74c0.25-0.36,0.44-0.79,0.76-1.07c6.68-5.99,14.54-7.49,23.26-6.43c8.33,1.01,13.45,5.35,15.21,13.51
		c0.18,0.82-0.36,2.34-1.03,2.72c-8.45,4.87-13.3,11.74-12.55,21.82c0.14,1.93-0.4,3.08-2.37,3.24c-3.21,0.26-6.48,0.86-9.64,0.54
		c-5.75-0.59-10.51-3.29-14.05-8.03c-3.21-4.3-4.04-9.26-4.59-14.42C23.89,81.45,24.61,77.59,28.62,74.85z"/>
	<path d="M29.38,74.12c-0.25,0.25-0.51,0.49-0.76,0.74c0.36,1.04,0.71,2.07,1.12,3.25c-1.22,1.46-3.76,3.16,0.62,4.39
		c0.85,0.24,1.39,1.62,2.19,2.63c1.52-0.94,3.32-0.87,4.63-1.21c1.98-0.53,3.8-3.1,4.85-5.22c0.76-1.52,0.15-3.72,0.15-5.02
		c-1.74-0.82-3.03-1.51-4.39-2.02c-0.43-0.16-1.37-0.02-1.5,0.26C34.74,75.15,31.87,74,29.38,74.12z M32.81,79.27
		c0.7-1.31,1.56-2.93,2.33-4.37c1.66,0.74,2.95,1.32,4.44,1.98c-0.81,1.47-1.64,2.97-2.28,4.14C35.87,80.46,34.48,79.92,32.81,79.27
		z"/>
	<path d="M79.41,86.65c-1.82,2.07-2.98,3.4-4.44,5.07c0.11,1.05,0.29,2.75,0.58,5.48c1.55-1.83,2.84-3.03,3.72-4.47
		c1.57-2.54,3.03-3.18,4.65-1.72c-2.65,0.79-4.51,2.02-2.35,5.59c-1.62,0.29-2.85,0.52-4.59,0.84c2.46,3.1,5.53,2.58,8.63,2.65
		c2.79,0.07,2.78,0.43,7.13-4.13c-0.86-0.68-1.7-1.34-2.54-2.01c1.56-2.84,0.16-5.25-3.12-5.71C84.22,87.85,81.4,87.08,79.41,86.65z
		 M83.44,93.97c0.17-0.97,0.38-1.92,0.58-2.89c1.7,1.28,3.4,2.55,5.1,3.83c-0.66,0.66-1.25,1.8-1.98,1.89
		c-1.31,0.16-2.7-0.27-4.01-0.61C83.03,96.16,83.3,94.74,83.44,93.97z"/>
	<path d="M49.98,97.95c-0.47,2.74-0.94,5.49-1.42,8.23c-0.4-0.01-0.81-0.02-1.21-0.04c0.3-2.8,0.59-5.61,0.89-8.41
		C48.82,97.8,49.4,97.87,49.98,97.95z"/>
	<path d="M53.44,98.93c-0.56,2.34-1.11,4.69-1.79,7.58C50.12,100.92,50.81,98.62,53.44,98.93z"/>
	<path d="M45.21,104.89c-0.27,0.02-0.53,0.05-0.8,0.07c0-2.53,0-5.07,0-7.6c0.27,0.01,0.53,0.02,0.8,0.04
		C45.21,99.89,45.21,102.39,45.21,104.89z"/>
	<path d="M72.46,76.57c0.43-2.72,0.86-5.45,1.29-8.17c0.46,0.07,0.92,0.15,1.38,0.22c-0.5,2.68-0.99,5.36-1.49,8.05
		C73.25,76.63,72.85,76.6,72.46,76.57z"/>
	<path d="M78.4,77.53c0.36-2.61,0.73-5.23,1.09-7.84c0.48,0.07,0.97,0.15,1.45,0.22c-0.52,2.61-1.03,5.23-1.55,7.84
		C79.06,77.68,78.73,77.61,78.4,77.53z"/>
	<path d="M75.45,77.15c0.34-2.8,0.68-5.6,1.01-8.39c0.5,0.11,1,0.21,1.5,0.32c-0.54,2.73-1.07,5.46-1.61,8.19
		C76.05,77.23,75.75,77.19,75.45,77.15z"/>
</g>
</svg>
