<svg xmlns="http://www.w3.org/2000/svg" viewBox="0 0 150 150"><defs><style>.a{fill:#fee9ca;}.b{fill:#fde4c0;}.c{fill:#fcc784;}.d{fill:#fbc580;}.e{fill:#fbcc8d;}.f{fill:#fdd7a7;}.g{fill:#fdedd6;}.h{fill:#fdd6a0;}.i{fill:#fff8ef;}.j{fill:#fef1de;}.k{fill:#fcd8a7;}.l{fill:#fbbb73;}.m{fill:#f9ba6f;}.n{fill:#f9c17a;}.o{fill:#fccb91;}.p{fill:#fce0bb;}.q{fill:#fcd3a1;}.r{fill:#fcd3a0;}.s{fill:#fcc98c;}.t{fill:#fdeace;}.u{fill:#fde0b4;}.v{fill:#fbc887;}.w{fill:#f9ae5a;}.x{fill:#fee2b8;}.y{fill:#fcc889;}.z{fill:#fbb05f;}.aa{fill:#f9ae5c;}.ab{fill:#f9b564;}.ac{fill:#faaf5d;}.ad{fill:#f9b363;}.ae{fill:#f9b768;}.af{fill:#fbc07d;}.ag{fill:#fde4be;}.ah{fill:#fbca8f;}.ai{fill:#fab262;}.aj{fill:#f9b05e;}.ak{fill:#fbd3a0;}.al{fill:#fdddb1;}.am{fill:#feebce;}.an{fill:#fcd9ad;}.ao{fill:#f9bb72;}.ap{fill:#fcc487;}.aq{fill:#fcd19c;}.ar{fill:#fbb86b;}.as{fill:#f9b667;}.at{fill:#fde4bf;}.au{fill:#fef6ea;}.av{fill:#fcdaaf;}.aw{fill:#f9bd75;}.ax{fill:#f9c381;}.ay{fill:#fce4c3;}.az{fill:#fdeedb;}.ba{fill:#fcc484;}.bb{fill:#fcd099;}.bc{fill:#f9bb70;}.bd{fill:#fffcf7;}.be{fill:#fde1bb;}.bf{fill:#fde9ce;}.bg{fill:#f7b17f;}.bh{fill:#f2894e;}.bi{fill:#f28c56;}.bj{fill:#f59567;}.bk{fill:#f58b5a;}.bl{fill:#f59a73;}.bm{fill:#f5a588;}.bn{fill:#ee8045;}.bo{fill:#ee834c;}.bp{fill:#f29c6f;}.bq{fill:#f28953;}.br{fill:#ee7838;}.bs{fill:#ee7a3d;}.bt{fill:#ee7d3d;}.bu{fill:#f29d76;}.bv{fill:#f28a59;}.bw{fill:#f27a3d;}.bx{fill:#ee7a39;}.by{fill:#ee7d3f;}.bz{fill:#f2834d;}.ca{fill:#f29263;}.cb{fill:#f5a180;}.cc{fill:#f58f61;}.cd{fill:#ee7b3f;}.ce{fill:#ee8146;}.cf{fill:#f58753;}.cg{fill:#f5956a;}.ch{fill:#ee8249;}.ci{fill:#ee844e;}.cj{fill:#f1895c;}.ck{fill:#f18961;}.cl{fill:#e8572e;}.cm{fill:#e74f22;}.cn{fill:#e85329;}.co{fill:#e8552b;}.cp{fill:#ea562c;}.cq{fill:#e64d20;}.cr{fill:#e94f25;}.cs{fill:#ea522a;}.ct{fill:#ea5f35;}.cu{fill:#e95f34;}.cv{fill:#e9592e;}.cw{fill:#ea6339;}.cx{fill:#ea5e32;}.cy{fill:#ef7647;}.cz{fill:#f0825b;}.da{fill:#f07545;}.db{fill:#ed6932;}.dc{fill:#f06e3b;}.dd{fill:#f0794c;}.de{fill:#f38763;}.df{fill:#ef784c;}.dg{fill:#ef6f41;}.dh{fill:#ef7d53;}.di{fill:#f19c59;}.dj{fill:#f19454;}.dk{fill:#f49e5d;}.dl{fill:#f7c0a4;}.dm{fill:#f18a45;}.dn{fill:#f7b187;}.do{fill:#f49f64;}.dp{fill:#f18a44;}.dq{fill:#f7b48d;}.dr{fill:#f4a06a;}.ds{fill:#f48f4b;}.dt{fill:#f18c46;}.du{fill:#f1934c;}.dv{fill:#f4985c;}.dw{fill:#f4895d;}.dx{fill:#ed774b;}.dy{fill:#ed7a55;}.dz{fill:#ed774d;}.ea{fill:#f48960;}.eb{fill:#f9cfac;}.ec{fill:#f5b271;}.ed{fill:#fbdcc4;}.ee{fill:#f7b679;}.ef{fill:#f39d52;}.eg{fill:#f9caa1;}.eh{fill:#f5b677;}.ei{fill:#f39d51;}.ej{fill:#f9ceaa;}.ek{fill:#f4a058;}.el{fill:#f3a055;}.em{fill:#f3a65d;}.en{fill:#f3aa66;}</style></defs><title>icon</title><path class="a" d="M92.52,123.72h0l-.8.38h0l.8-.38h0m-32.17-3h0l.43.66a20.34,20.34,0,0,0,1.56,2c.29.33.68.72,1,1.06a12.47,12.47,0,0,0,1.18,1,18,18,0,0,0,2.92,1.93,18.3,18.3,0,0,0,3.44,1.42,19.53,19.53,0,0,0,3.58.69,16.82,16.82,0,0,0,1.73.08c.4,0,.81,0,1.2,0h0c-.39,0-.8,0-1.2,0a16.82,16.82,0,0,1-1.73-.08h-.06a19.91,19.91,0,0,1-3.52-.68h0l-.11,0a17.81,17.81,0,0,1-3.33-1.38h0l-.1,0a18,18,0,0,1-2.82-1.88h0a12.47,12.47,0,0,1-1.18-1h0l0,0c-.34-.33-.72-.71-1-1h0a20.34,20.34,0,0,1-1.56-2h0l-.43-.66m37.27-.35,0,0h0l0,0m4.61-3.74h0l-.88.81h0l.88-.81m4.49-4.17h0a.57.57,0,0,1-.11.11h0a.57.57,0,0,0,.11-.11m0,0h0m5.79-8.32h0l0,0a51.64,51.64,0,0,1-3.86,5.89h0c-.55.76-1,1.34-1.37,1.75h0c.34-.41.82-1,1.37-1.75a51.65,51.65,0,0,0,3.89-5.94h0m4.16-11.87a10.05,10.05,0,0,1-.21,1.87h0a10.05,10.05,0,0,0,.21-1.87h0m0-.63h0a4,4,0,0,1,0,.63h0a4,4,0,0,0,0-.63m1.12-5.27,0,.13c-.27,1.29-.5,2.57-.74,3.48h0c.24-.91.47-2.19.74-3.48l0-.13m1.08-6.32h0a3.87,3.87,0,0,0-.13.5h0a3.87,3.87,0,0,1,.13-.5m.15-1.42h0a11.12,11.12,0,0,1-.15,1.42h0a11.12,11.12,0,0,0,.15-1.42h0m-3.25-14.73h0a28.1,28.1,0,0,1,3.2,10.85c.07.8.09,1.52.09,2.16h0c0-.64,0-1.36-.09-2.16a28.1,28.1,0,0,0-3.2-10.85"/><path class="b" d="M65,118.13c.36,0,.71,0,1.06,0H66l-1,0m-8.15-2.26.56.76a5.29,5.29,0,0,1-.13-.54l-.43-.22m-7-47a1.64,1.64,0,0,1-.26.2l-.67.54-.33.3-.17.15-.18.33-1.39,2.59c-.92,1.71-1.81,3.41-2.68,5.21a1.6,1.6,0,0,0,0,1.15c1.06,1.9.84,4.21,1.48,6,.1-.14.19-.28.29-.41A21.71,21.71,0,0,1,50.13,81a15.37,15.37,0,0,1-.38-3.12,8.47,8.47,0,0,1,.19-1.8c-.06.25-.12.36-.16.36s-.17-.78-.17-1.92c0-.93,0-2.09.11-3.25.05-.83.11-1.67.17-2.41m6.39-4.14-.09,0h0a2.73,2.73,0,0,1-.2.91,1.69,1.69,0,0,1-1.67,1.19l-.5,0a5.15,5.15,0,0,0-.9.08c.86.94,2,1,2.91,1.66.07-.09.22-1.76.49-3.86M71,29.22H70.8a18.86,18.86,0,0,0-2,.09c-.67.09-1.34.21-2,.35A23.18,23.18,0,0,0,63,30.86a28.86,28.86,0,0,0-3.2,1.61l-2.11,1.47c-.35.23-.69.51-1,.76s-.67.51-1.1.8c-.79.54-1.6,1.2-2.38,1.8L52,38.23l-1.13,1c-.48.41-1,.82-1.41,1.25l.32-.18c.2-.1.39-.21.52-.29l.85-.56,1.71-1.07a18.66,18.66,0,0,1,5.47-2,13.87,13.87,0,0,1,2.47-.24,8.35,8.35,0,0,1,3.29.6c.88.37,2.75,1.21,4.52,2a37.65,37.65,0,0,0,4.25,1.92,79.37,79.37,0,0,1,13.29,4.71c1,.47,1.91,1,2.85,1.46a24.12,24.12,0,0,1,3,.66,26.27,26.27,0,0,1,3.12,1.15c.52.25,1.06.53,1.61.83a14.74,14.74,0,0,1,1.66,1A31.18,31.18,0,0,1,109.9,64.44a33.9,33.9,0,0,1,2.83,13.66,33,33,0,0,1-.75,7,15.24,15.24,0,0,0-.33,2.18c-.17,1.45-.35,3.62-.52,6.61,0,0,0,.24-.18.64s-.33,1-.58,1.72a25.89,25.89,0,0,1-1,2.47,29.5,29.5,0,0,1-1.42,2.89c-2.16,4-5.58,8.09-8.67,9.43,0,0-3.59,2.69-8,5.37-2.2,1.36-4.61,2.72-6.82,4a26,26,0,0,1-3.07,1.64,14,14,0,0,1-2.73.86,12.5,12.5,0,0,1-2.6.27c-.32,0-.65,0-1,0a12.42,12.42,0,0,1-6.58-2.55,14.1,14.1,0,0,1-2.42-2.42h0c-.35,0-.7,0-1.06,0l-.36,0a20.32,20.32,0,0,1-3-.44,25.62,25.62,0,0,0,1,3.31,7.39,7.39,0,0,1,.27,1.21.36.36,0,0,1-.11.3s0,.05-.07.05c-.22,0-.84-.77-1.29-1.11h0c-.33,0-.89-.61-1.46-1.23l.13.24.19.29v0h0a19,19,0,0,0,4,4.63,19.65,19.65,0,0,0,2,1.45A20,20,0,0,0,68.72,128a22.41,22.41,0,0,0,2.53.91,23.81,23.81,0,0,0,2.54.52,19.51,19.51,0,0,0,2.52.17c.38,0,.75,0,1.12,0a18.91,18.91,0,0,0,3.78-.61h0a22.89,22.89,0,0,0,4.3-1.63h0c1-.52,1.82-1,2.38-1.29h0l.38-.21.27-.15.55-.28,1.13-.56,1.5-.73c.85-.47,1.69-1,2.52-1.48a50.11,50.11,0,0,0,7.58-5.67l.41-.31.56-.53a9.52,9.52,0,0,0,.94-1h0l.14-.12c.91-.78,1.85-1.54,2.74-2.39a86.54,86.54,0,0,0,6.14-8.86,41.14,41.14,0,0,0,2.94-6.64c0-.08,0-.15.07-.22a25.37,25.37,0,0,0,.7-2.71,14.52,14.52,0,0,0,.17-2.13v-.37l0-.13v0h0l0-.07a.57.57,0,0,1,0-.13h0c.29-1.15.56-2.23.77-3.27.13-.6.26-1.17.38-1.74.24-1.27.43-2.64.63-3.74h0c.11-.81.21-1.51.31-2l.12-1c.07-1,.12-2,.12-3.07a23,23,0,0,0-1.12-7.34,55.32,55.32,0,0,0-2.09-5.23c-.22-.4-.44-.79-.68-1.19.24.4.46.79.68,1.19h0c-.22-.4-.44-.79-.68-1.19.24.4.46.79.68,1.19a60.08,60.08,0,0,0-4.49-8,67.83,67.83,0,0,0-10.08-11.83,23.38,23.38,0,0,0-1.77-1.53c-.61-.48-1.18-1-1.8-1.43-1.26-.87-2.46-1.78-3.77-2.52a48.43,48.43,0,0,0-8-3.91c-1-.37-3.13-1.59-5.45-2.63-1.16-.52-2.35-1.05-3.4-1.42s-2-.74-2.55-.92A11.39,11.39,0,0,0,71,29.22"/><path class="b" d="M83.08,81.34l-.07,0a9.93,9.93,0,0,1-4.73,4.33l-.11,0c-.2,0-.37-.23-.49-.57.12.41.3.7.54.7l.1,0a9.79,9.79,0,0,0,4.62-4.12l.14-.36"/><path class="b" d="M118.7,80.56c-.1.48-.2,1.18-.31,2h0c-.2,1.1-.39,2.47-.63,3.74.09-.41.17-.83.24-1.25.18-1,.37-1.93.5-2.84.07-.55.13-1.1.2-1.64"/><path class="b" d="M107.07,86.28v0"/><path class="b" d="M116.62,91.43l0,.07h0v0l0,.13a1.62,1.62,0,0,1,0-.22"/><path class="b" d="M116.46,94.15a25.37,25.37,0,0,1-.7,2.71c0,.07-.05.14-.07.22a40.67,40.67,0,0,1-2.94,6.63c.3-.5.58-1,.85-1.53a26.19,26.19,0,0,0,2.86-8"/><path class="b" d="M106.61,112.58c-.89.85-1.83,1.61-2.74,2.39l-.14.12h0a9.52,9.52,0,0,1-.94,1l-.56.53a42,42,0,0,0,4.27-3.91l.11-.15"/><path class="b" d="M59.58,119.71l.79,1.19a1,1,0,0,1,0-.17l-.19-.29L60,120.2l-.45-.49"/><path class="b" d="M91.72,124.1l-1.5.73-1.13.56-.55.28-.27.15-.38.21h0c-.56.32-1.33.77-2.38,1.29h0a22.89,22.89,0,0,1-4.3,1.63h0a18.91,18.91,0,0,1-3.78.61c.51,0,1-.07,1.47-.14a19.82,19.82,0,0,0,4-1,24.8,24.8,0,0,0,3.53-1.53l1.89-1,2-1,1.36-.75"/><path class="c" d="M77.57,80.6c-.29.73-.58,1.48-.85,2.25A32.07,32.07,0,0,0,75.8,90c0,.65,0,1.31,0,2v.43l.06-.06v-.4c0-.61,0-1.21,0-1.81a32.67,32.67,0,0,1,.9-7.13c.24-.67.48-1.32.73-2h0c0,.73-.08,1.46-.09,2.21v0a6,6,0,0,0,.29,1.87,6.14,6.14,0,0,1-.24-1.71v-.07c0-.93.06-1.85.13-2.76"/><path class="d" d="M77.46,75.76a37.05,37.05,0,0,0-3.6,11.63,61.53,61.53,0,0,0-.61,7.21,26.38,26.38,0,0,0,2.52-2.22V92c0-.66,0-1.32,0-2a32.07,32.07,0,0,1,.92-7.13c.27-.77.56-1.52.85-2.25h0c-.07.91-.12,1.83-.13,2.76v.07a6.14,6.14,0,0,0,.24,1.71c.12.34.29.57.49.57l.11,0A9.93,9.93,0,0,0,83,81.36a2,2,0,0,1-.35.07h-.08c-.15,0-.06-.14-.15-.19h0c-.18,0-.22-.07-.24-.16l-.22.07h0a1,1,0,0,0,.17-.21L82,80.87c-.08,0-.11-.09-.11-.14h0c0-.1.11-.19.29-.28-.22-.73-2-1.28-3.69-1.92-.75-.24-1.45-.64-1.45-1.07h0a.69.69,0,0,1,0-.13c.25-.35,1.63-.43,1.63-.69h0l0,0a2.07,2.07,0,0,1-1.29-.85"/><path class="e" d="M77,115.32l-.57.22-2.05.87a24.17,24.17,0,0,1-3.88,1.24c-.5.11-1,.21-1.6.3h0c.52-.07,1-.16,1.47-.26l.11,0,.21,0A26.45,26.45,0,0,0,75.33,116h0l1.16-.51h0l.48-.19m15.17-7.06-.44.25a41.55,41.55,0,0,1-7,3.91c-.72.32-1.44.62-2.17.91l.64-.2h0s2.17-.89,4.56-2.18c1.19-.62,2.43-1.4,3.47-2.06h0l.89-.63m1.28-.8c-.48.31-.93.59-1.28.79s-.57.42-.89.64h0c-1,.66-2.28,1.44-3.47,2.06-2.39,1.29-4.56,2.18-4.56,2.18h0l-.64.2c-1.57.62-3.17,1.18-4.88,1.73l-.72.26-.49.19h0l-1.16.51h0a26.45,26.45,0,0,1-4.66,1.61l-.21,0-.11,0c-.46.1-.95.19-1.47.26l.36.33a9.88,9.88,0,0,0,2.55,1.63,9.17,9.17,0,0,0,1.55.54,12,12,0,0,0,1.57.27c.28,0,.55,0,.83,0A10,10,0,0,0,78,120.5a10.43,10.43,0,0,0,2.28-.84A12.94,12.94,0,0,0,82.79,118c.95-.82,1.92-1.64,2.86-2.52a95.24,95.24,0,0,0,7.77-8M75.09,72.71a7.46,7.46,0,0,1-.19,1.34,11.41,11.41,0,0,1-2.51,5,7.62,7.62,0,0,1-4,2.37H68.3c-.24,0-.43-.23-.57-.54a3.3,3.3,0,0,1-.3-1.33c0-.16,0-.32,0-.47-.37.72-.72,1.48-1.05,2.29a18.59,18.59,0,0,0-.56,5.44c0,1.81.22,3.66.42,5.93.07,1.08.22,2.12.39,3.15.12.66.27,1.54.38,2,.36-.13.76-.3,1.1-.43.62-.25,1.19-.52,1.75-.81a21,21,0,0,0,3.16-2l.23-.17a61.53,61.53,0,0,1,.61-7.21,37.05,37.05,0,0,1,3.6-11.63A6.85,6.85,0,0,1,76.51,74a17.18,17.18,0,0,0-1.42-1.29"/><path class="f" d="M68.87,118a22,22,0,0,1-2.77.21h0l.59,0h0a18.6,18.6,0,0,0,2.19-.19h0m33.65-19.82a70.4,70.4,0,0,1-6.21,7.17l.1-.06s.76-.71,1.9-1.89h0c.55-.61,1.2-1.32,1.88-2.13l0,0h0c.69-.87,1.43-1.77,2.13-2.82h0l.16-.23m4.54-11.45a12.48,12.48,0,0,1-.26,2.46c0-.15.06-.29.1-.43h0a7.41,7.41,0,0,0,.19-1.57h0a3.33,3.33,0,0,0,0-.46m1.27-5.53c-.12.6-.26,1.22-.41,1.85s-.25,1.16-.4,1.68-.29,1-.45,1.6v.19c0-.18.2-.7.4-1.42l0,0c.12-.42.25-1,.39-1.61h0v0c.13-.63.27-1.3.42-2h0a1.7,1.7,0,0,1,0-.22m-4.66-22.26a34.57,34.57,0,0,1,3.16,4.88,21.82,21.82,0,0,1,2.28,10.44c0,.32,0,.65,0,1a4,4,0,0,1,.1-.45h0s0-.31,0-.87h0c0-.18,0-.38,0-.6h0v-.05a21.07,21.07,0,0,0-.44-3.92h0a22.82,22.82,0,0,0-5.07-10.4M89,46.89a52.44,52.44,0,0,1,8.68,5.82,39.85,39.85,0,0,1,6,6.18,22.82,22.82,0,0,1,5.07,10.4h0a21.07,21.07,0,0,1,.44,3.92v.05h0c0,.22,0,.42,0,.6h0c0,.56,0,.87,0,.87h0a4,4,0,0,0-.1.45,36.74,36.74,0,0,1-.51,4.67c-.06.42-.14.86-.22,1.3a1.7,1.7,0,0,0,0,.22h0c-.15.69-.29,1.36-.42,2v0h0c-.14.63-.27,1.19-.39,1.61l0,0c-.2.72-.35,1.24-.4,1.42v.21a3.23,3.23,0,0,1,0,.46h0a7.41,7.41,0,0,1-.19,1.57h0c0,.14-.07.28-.1.44a22.64,22.64,0,0,1-3.26,7.49c-.33.51-.67,1-1,1.49l-.16.23h0c-.7,1-1.44,2-2.13,2.82h0l0,0c-.68.81-1.33,1.52-1.88,2.13h0c-1.14,1.18-1.9,1.89-1.9,1.89l-.1.06-.13.14c-.45.39-1.38,1.07-2.3,1.72l-.46.3a95.24,95.24,0,0,1-7.77,8c-.94.88-1.91,1.7-2.86,2.52a12.94,12.94,0,0,1-2.51,1.68,10.43,10.43,0,0,1-2.28.84,10,10,0,0,1-2.26.26c-.28,0-.55,0-.83,0a12,12,0,0,1-1.57-.27,9.17,9.17,0,0,1-1.55-.54,9.88,9.88,0,0,1-2.55-1.63l-.36-.33a18.6,18.6,0,0,1-2.19.19h0l-.59,0a14.1,14.1,0,0,0,2.42,2.42,12.42,12.42,0,0,0,6.58,2.55c.33,0,.66,0,1,0a12.5,12.5,0,0,0,2.6-.27,14,14,0,0,0,2.73-.86,26,26,0,0,0,3.07-1.64c2.21-1.28,4.62-2.64,6.82-4,4.4-2.68,8-5.37,8-5.37,3.09-1.34,6.51-5.42,8.67-9.43a29.5,29.5,0,0,0,1.42-2.89,25.89,25.89,0,0,0,1-2.47c.25-.72.44-1.31.58-1.72s.18-.64.18-.64c.17-3,.35-5.16.52-6.61A15.24,15.24,0,0,1,112,85.1a33,33,0,0,0,.75-7,33.9,33.9,0,0,0-2.83-13.66A31.18,31.18,0,0,0,98.42,50.51a14.74,14.74,0,0,0-1.66-1c-.55-.3-1.09-.58-1.61-.83A26.27,26.27,0,0,0,92,47.55a24.12,24.12,0,0,0-3-.66"/><path class="g" d="M58.33,116.59a22.83,22.83,0,0,0,1.35,3l.35.62c.57.62,1.13,1.23,1.46,1.23h0c-.4-.65-.5-1.39-1-2.26-.29-.7-.68-1.42-1.06-2.13-.38-.14-.75-.29-1.13-.45m-1.06-.5a5.29,5.29,0,0,0,.13.54,5.69,5.69,0,0,0,1.7,2.61c.15.13.31.3.48.47l.45.49-.35-.62a22.83,22.83,0,0,1-1.35-3l-.35-.16c-.24-.1-.48-.22-.71-.34m.67-52.17a1.83,1.83,0,0,0-.33,0c-.14.15-.71.46-.84.61l-.49.14c-.27,2.1-.42,3.77-.49,3.86-.92-.61-2-.72-2.91-1.66a3,3,0,0,0-1,.34,13.56,13.56,0,0,0-2,1.6c-.06.74-.12,1.58-.17,2.41-.07,1.16-.11,2.32-.11,3.25,0,1.14,0,1.92.17,1.92s.1-.11.16-.36h0a8.47,8.47,0,0,0-.19,1.8A15.37,15.37,0,0,0,50.13,81l.5-.42c.77-.76,1.58-1.54,2.41-2.34l.07-.14a62,62,0,0,0,4.32-8.51c.27-.65.65-1.83,1.09-3.29.19-.65.39-1.36.61-2.1a3.3,3.3,0,0,0-1.19-.25"/><path class="h" d="M119,76.92c0,.67,0,1.25,0,1.72,0-.47,0-1,0-1.72"/><path class="h" d="M118.83,80.06a3.87,3.87,0,0,0-.13.5c-.1.48-.2,1.18-.31,2,.11-.81.21-1.51.31-2a3.87,3.87,0,0,1,.13-.5"/><path class="h" d="M118.39,82.55c-.2,1.1-.39,2.47-.63,3.74v.09c.24-1.29.44-2.7.64-3.83"/><path class="h" d="M117,90c-.23.9-.38,1.5-.38,1.51s.15-.61.38-1.51"/><path class="h" d="M116.6,91.52l0,.13a4,4,0,0,1,0,.63,3.45,3.45,0,0,0-.07-.76"/><path class="h" d="M115.69,97.08a41.14,41.14,0,0,1-2.94,6.64l-.24.43a40.67,40.67,0,0,0,3.18-7.07"/><path class="a" d="M60.35,120.73h0l.43.66h0a20.34,20.34,0,0,0,1.56,2h0c.28.32.66.7,1,1l0,0h0a12.47,12.47,0,0,0,1.18,1h0a18,18,0,0,0,2.82,1.88l.1,0h0a17.81,17.81,0,0,0,3.33,1.38l.11,0h0a19.91,19.91,0,0,0,3.52.68h.06a16.82,16.82,0,0,0,1.73.08c.4,0,.81,0,1.2,0h0c-.39,0-.8,0-1.2,0a16.82,16.82,0,0,1-1.73-.08,19.53,19.53,0,0,1-3.58-.69,19,19,0,0,1-3.44-1.42,18,18,0,0,1-2.92-1.93,12.47,12.47,0,0,1-1.18-1c-.36-.34-.75-.73-1-1.06a20.34,20.34,0,0,1-1.56-2l-.43-.66"/><path class="h" d="M70.92,128.83a19.91,19.91,0,0,0,3.52.68,19.91,19.91,0,0,1-3.52-.68m-3.44-1.42a17.81,17.81,0,0,0,3.33,1.38,17.81,17.81,0,0,1-3.33-1.38m-2.92-1.93a18,18,0,0,0,2.82,1.88,18,18,0,0,1-2.82-1.88m-1.18-1a12.47,12.47,0,0,0,1.18,1,12.47,12.47,0,0,1-1.18-1m-1-1.06c.28.32.66.7,1,1-.34-.33-.72-.71-1-1m-1.56-2a20.34,20.34,0,0,0,1.56,2,20.34,20.34,0,0,1-1.56-2m-.62-1,.19.29.43.66-.43-.66-.19-.29"/><path class="a" d="M112.51,104.15h0a51.65,51.65,0,0,1-3.89,5.94c-.55.76-1,1.34-1.37,1.75h0c.34-.41.82-1,1.37-1.75h0a51.64,51.64,0,0,0,3.86-5.89l0,0h0"/><path class="h" d="M112.48,104.2a51.64,51.64,0,0,1-3.86,5.89,51.64,51.64,0,0,0,3.86-5.89"/><path class="h" d="M107.25,111.84l-.53.63s.2-.24.53-.63"/><path class="h" d="M106.72,112.47a.57.57,0,0,1-.11.11c-.89.85-1.83,1.61-2.74,2.39.91-.78,1.85-1.54,2.74-2.39a.57.57,0,0,0,.11-.11"/><path class="h" d="M103.73,115.09a9.52,9.52,0,0,1-.94,1,9.52,9.52,0,0,0,.94-1"/><path class="h" d="M102.79,116.11l-.56.53-.88.81.88-.81.56-.53"/><path class="h" d="M101.35,117.45c-1.11.93-2.42,2-3.73,2.93,1.31-.92,2.62-2,3.73-2.93"/><path class="h" d="M97.59,120.4c-2.57,1.87-5,3.27-5.07,3.32.08,0,2.5-1.45,5.07-3.32"/><path class="h" d="M87.89,126c-.56.32-1.33.77-2.38,1.29,1-.52,1.82-1,2.38-1.29"/><path class="h" d="M85.51,127.32a22.89,22.89,0,0,1-4.3,1.63,22.89,22.89,0,0,0,4.3-1.63"/><path class="i" d="M59.46,117c.38.71.77,1.43,1.06,2.13.48.87.58,1.61,1,2.26.45.34,1.07,1.11,1.29,1.11,0,0,.05,0,.07-.05a.36.36,0,0,0,.11-.3A7.39,7.39,0,0,0,62.7,121a25.62,25.62,0,0,1-1-3.31,18.71,18.71,0,0,1-2.2-.63m-.33-52.87c-.22.74-.42,1.45-.61,2.1-.44,1.46-.82,2.64-1.09,3.29a62,62,0,0,1-4.32,8.51l-.07.14c1.26-1.21,2.59-2.46,4-3.74l.82-.77c.58-1.4,1.17-2.81,1.77-4.27a31.82,31.82,0,0,0,1.12-3.37c.09-.3.18-.62.27-.94a11.32,11.32,0,0,1-1.73-.9l-.12,0"/><path class="j" d="M76,111.06h0m3.8-3.94L77,108.29l0,.38.06.41a26.78,26.78,0,0,0,2.66-2M48,105.61a21.9,21.9,0,0,0,1.38,2.83A20,20,0,0,0,54.14,114a17.82,17.82,0,0,0,2.64,1.76c-1-1.33-2-2.62-3-3.9l-3.2-4A9.22,9.22,0,0,0,49.4,107a4,4,0,0,1-1.42-1.4m10.3-32.34-.46.43-.15.36c.21-.29.41-.56.61-.79M69.43,57.56a.64.64,0,0,1,0,.64,3.06,3.06,0,0,0,.28,2.3,7.4,7.4,0,0,1,.76,2.19,2.39,2.39,0,0,1-.36.85l1.28-.79,1,1.8a9,9,0,0,0,2.28-.34,2.29,2.29,0,0,0,.77-1.79,34.7,34.7,0,0,0-2.39-3.08l-.55-.62c-1-.35-2.1-.71-3.11-1.16m-20-17.09-.25.13c-.76.4-1.43.84-2.14,1.27s-1.4.83-2.08,1.28l-2,1.34c-.68.44-1.31,1-2,1.43a31.19,31.19,0,0,0-3.79,3.15c-.93.76-1.9,1.41-2.84,2.18a10.11,10.11,0,0,0-2.5,2.86,15.84,15.84,0,0,0-1.11,8.61c.12,1.37.35,2.72.53,4l.27,2,.06.49.07.37.12.77c.34,7.72,1.45,11.25,2,12.7s.85,1.06.8,1.4c.24,1.57-1,2.45-.83,4.57a12.21,12.21,0,0,0,3.6,6.67c2.06,2.06,4.38,4.09,6.68,6.07,1.19,1.05,2.35,2.09,3.49,3.2a24.27,24.27,0,0,0,1.24,2.75,20.71,20.71,0,0,0,3.33,4.6,19.43,19.43,0,0,0,4.7,3.58l-.06-.08A17.82,17.82,0,0,1,54.14,114a20,20,0,0,1-4.78-5.59A21.9,21.9,0,0,1,48,105.61a4.8,4.8,0,0,1-.54-1.48l0-.06c0-.18-.11-.35-.16-.53h0A17.25,17.25,0,0,1,44.14,97c-.17-.32-.32-.64-.46-1a7.82,7.82,0,0,1-.22-2.82c.21-1.44-.91-3-1.63-4.69-1.06-2.1-.37-4.71-.68-7.07-.31-3.16-2-5.93-1.18-8.71-.06.21-.12.3-.16.3-.21,0-.17-2.15,0-4.17a30.07,30.07,0,0,1,.46-3.39c-.17-.94-.32-1.89-.45-2.87s-.13-2.1-.13-3.21c0-.81,0-1.65.11-2.5.51-3.39,2-5.8,3.41-8.4a23.25,23.25,0,0,1,3.41-5.13,31.49,31.49,0,0,1,2.84-2.93"/><path class="k" d="M61.65,117.67h0a20.32,20.32,0,0,0,3,.44l.36,0a18.71,18.71,0,0,1-2.51-.3l-.83-.16m-4.87-1.88.06.08.43.22,0,0-.47-.25m2.88-6.59c.31,1.52.66,3,1.06,4.52.34,1.33.6,2.63.93,4l.83.16a18.71,18.71,0,0,0,2.51.3l1,0h.14c-.34-.43-.61-.84-.86-1.21L65,116.3c-.09-.22-.15-.43-.24-.71s-.18-.59-.25-.89a17.86,17.86,0,0,1-.45-3.44h0a12.77,12.77,0,0,1-3.76-1.64c-.2-.13-.39-.26-.58-.41M44.14,97a17.25,17.25,0,0,0,3.1,6.51h0c-.13-.41-.24-.81-.34-1.19l-.18-.77c0-.16,0-.19-.06-.22l0-.13,0-.14c-.68-1.3-1.67-2.61-2.45-4.06m6-16.06A21.71,21.71,0,0,0,46,84.88c-.1.13-.19.27-.29.41a5.22,5.22,0,0,0,.25.59,10.33,10.33,0,0,1,1.19,2.28,101.81,101.81,0,0,0,3.43,13.6,47.23,47.23,0,0,0,2.1,6c.12.45.46,1.09.21,1.34a.1.1,0,0,1-.09.06c-.21,0-.76-.53-1.16-.72h-.09a2.21,2.21,0,0,1-1-.58l3.2,4c1,1.28,2,2.57,3,3.9l.47.25c-.21-1-.2-2-.4-3-.64-2.39-2.31-5-3.21-7.88a11.42,11.42,0,0,1-.19-2c0-.44,0-.9.07-1.39a2.92,2.92,0,0,0,0-.51c0-1.62-1-3.51-1.61-5.52a11.57,11.57,0,0,1-.62-4.29c0-.82,0-1.64,0-2.45a18.48,18.48,0,0,0-.1-2.12A51.79,51.79,0,0,0,50.13,81M60.81,36.15a13.87,13.87,0,0,0-2.47.24,18.66,18.66,0,0,0-5.47,2l-1.71,1.07-.85.56c-.13.08-.32.19-.52.29l-.32.18a31.49,31.49,0,0,0-2.84,2.93,23.25,23.25,0,0,0-3.41,5.13c-1.45,2.6-2.9,5-3.41,8.4-.08.85-.11,1.69-.11,2.5,0,1.11.06,2.19.13,3.21s.28,1.93.45,2.87c0-.23.1-.36.14-.36s.06.08.08.26a1.07,1.07,0,0,1,.89-.61h0c.26.14.67.16.77.39.82,1.81,2.42,2,3.66,2.76.09,0,.23-1.09.54-2.22a4,4,0,0,1,.81-1.55,2.23,2.23,0,0,1,1.37-.77c.2,0,.4,0,.6,0,.48,0,1,0,1.39.08s.87.08,1.26.08a3,3,0,0,0,.86-.1c.2-.18,0-.79.21-1s.57-.61,1.34-1.34l.64-.58a2.56,2.56,0,0,1,.39-.32l.61-.37c.85-.47,1.76-1,2.72-1.42a26.29,26.29,0,0,1,3-1.25.35.35,0,0,1,.08-.16c.17-.12.6-.81,1.43-1.77a7.29,7.29,0,0,1,.73-.76,6,6,0,0,1,.54-.46,7.79,7.79,0,0,1,.65-.48,26.22,26.22,0,0,1,3-1.84A25.77,25.77,0,0,1,72.2,50a5.38,5.38,0,0,1,.71-1h0l0,0a3.48,3.48,0,0,1,1-.38,4.69,4.69,0,0,1,1-.45,10.44,10.44,0,0,1,1.2-.29h.22l1.39-.16.2,0a2.1,2.1,0,0,0,.81-.52c.67-.84.53-2.36,1.14-3.39a.67.67,0,0,1,.53-.22c1.11,0,3.26,1.85,4.91,3.22H86.9a19.15,19.15,0,0,1,2.11.19c-.94-.5-1.89-1-2.85-1.46a79.37,79.37,0,0,0-13.29-4.71,37.65,37.65,0,0,1-4.25-1.92c-1.77-.84-3.64-1.68-4.52-2a8.35,8.35,0,0,0-3.29-.6"/><path class="k" d="M100.13,63.52l.28.23a23.57,23.57,0,0,1,3.9,4.39,20.89,20.89,0,0,0-3.64-4.5,3.21,3.21,0,0,0-.54-.12"/><path class="k" d="M107.33,84.88c-.19.82-.43,1.79-.77,2.82a60,60,0,0,1-2.3,6.22,28.59,28.59,0,0,0,2.47-6.24c.12-.43.23-.87.33-1.33v-.07c.1-.45.19-.92.26-1.4"/><path class="k" d="M76,111.05v0h0"/><path class="l" d="M80,107.05l-.17.07a26.78,26.78,0,0,1-2.66,2l-.06-.41,0-.38-.06,0,0,.28c0,.22,0,.42.07.61A27.76,27.76,0,0,0,80,107.05"/><path class="m" d="M76,111.05h0v0h0m14.06-8.58-.48.14-2.19,1.11-2.33,1.11-2.81,1.26-2.28,1a27.76,27.76,0,0,1-2.89,2.15c0-.19,0-.39-.07-.61l0-.28-.75.32c-1,.42-1.88.8-2.7,1.21l-.24.12a5.73,5.73,0,0,0,1,2.52,2.33,2.33,0,0,0,1.38.87,2,2,0,0,0,.49.05,3.31,3.31,0,0,0,1.32-.31,10.67,10.67,0,0,0,1.74-1c.57-.4,1.16-.79,1.75-1.21a51.89,51.89,0,0,0,7.1-6.15c.69-.71,1.37-1.46,2-2.24"/><path class="n" d="M100,63.49a24.57,24.57,0,0,1,3,10.06c0,.08,0,.13.09.22a0,0,0,0,1,0,0h0s0,0-.08,0a23.93,23.93,0,0,1-.44,6.21,18.24,18.24,0,0,0-.34,2.19c-.19,1.42-.38,3.46-.66,6.3,0,0-.29.83-.84,2.15a30.46,30.46,0,0,1-2.6,4.7c-2.15,3.25-5.3,6.18-8,7.09-.65.78-1.33,1.53-2,2.24a51.89,51.89,0,0,1-7.1,6.15c-.59.42-1.18.81-1.75,1.21a10.67,10.67,0,0,1-1.74,1,3.31,3.31,0,0,1-1.32.31,2,2,0,0,1-.49-.05,2.33,2.33,0,0,1-1.38-.87,5.73,5.73,0,0,1-1-2.52,23.29,23.29,0,0,1-3.88,1.65l-.6,0c-.29,0-.68,0-1.19,0H67a13.82,13.82,0,0,1-1.76-.18,16.86,16.86,0,0,0,1.34,3.36A12,12,0,0,0,68.87,118c.57-.09,1.1-.19,1.6-.3a24.17,24.17,0,0,0,3.88-1.24l2.05-.87.57-.22.42-.17h0l1.86-.7h0c1.07-.39,2.18-.76,3.33-1.12.73-.29,1.45-.59,2.17-.91a41.55,41.55,0,0,0,7-3.91l.44-.25a12.22,12.22,0,0,0,1.37-1.13h0l.43-.27c.62-.73,1.22-1.43,1.78-2.12,2.72-3.35,4.68-6.09,5.85-6.83l.52-.64a20.08,20.08,0,0,0,1.32-1.9c.27-.43.56-.91.85-1.45a60,60,0,0,0,2.3-6.22c.34-1,.58-2,.77-2.82a27.47,27.47,0,0,0,.35-4.35,24.45,24.45,0,0,0-.48-4.91,22.68,22.68,0,0,0-2.89-7.48,23.57,23.57,0,0,0-3.9-4.39l-.28-.23-.18,0"/><path class="o" d="M64.05,111.26a17.86,17.86,0,0,0,.45,3.44c.07.3.16.61.25.89s.15.49.24.71l.25.65c.25.37.52.78.86,1.21a22,22,0,0,0,2.77-.21,12,12,0,0,1-2.31-3.08,16.86,16.86,0,0,1-1.34-3.36,10.2,10.2,0,0,1-1.17-.25m43-24.91c-.1.46-.21.9-.33,1.33a28.59,28.59,0,0,1-2.47,6.24c-.29.54-.58,1-.85,1.45a20.08,20.08,0,0,1-1.32,1.9l-.52.64c-1.17.74-3.13,3.48-5.85,6.83-.56.69-1.16,1.39-1.78,2.12.79-.5,1.58-1,2.37-1.56a70.4,70.4,0,0,0,6.21-7.17,33.35,33.35,0,0,0,1.86-3h0a28.44,28.44,0,0,0,1.55-3.27l0-.1,0-.07a19.17,19.17,0,0,0,.8-2.53,12.48,12.48,0,0,0,.26-2.46.68.68,0,0,0,0-.14h0l0-.07v-.12M85.83,46.69h-.45l.39.32c1.32,1,2.68,2.06,3.83,2.81.22.14.42.27.63.39l.27.14.1.08a3.74,3.74,0,0,0,1.59.57h.15a9.93,9.93,0,0,1,1.17-.16h.09a2.91,2.91,0,0,1,1.66.8,23.71,23.71,0,0,1,4.48,5.11,2.34,2.34,0,0,1,.31.69,1.52,1.52,0,0,1,.07.42h0s0,.09,0,.11a.24.24,0,0,1-.24.14c-.42,0-1.2-.58-1.74-.64,0,.1-.13.13-.13.26a.52.52,0,0,0,0,.11.84.84,0,0,1,.07.33h0a.66.66,0,0,1,0,.14,2,2,0,0,1-1.42.42h-.17a22.64,22.64,0,0,1,1.75,2.1A24.35,24.35,0,0,1,100,63.49l.18,0a3.21,3.21,0,0,1,.54.12,20.89,20.89,0,0,1,3.64,4.5,22.68,22.68,0,0,1,2.89,7.48,24.45,24.45,0,0,1,.48,4.91,27.47,27.47,0,0,1-.35,4.35c-.07.48-.16,1-.26,1.4.16-.55.3-1.08.45-1.6s.27-1.13.4-1.68.29-1.25.41-1.85c.2-1.28.38-2.6.5-3.71V77.3h0c.08-.88.14-1.62.22-2.12,0-.32,0-.65,0-1a21.82,21.82,0,0,0-2.28-10.44,34.57,34.57,0,0,0-3.16-4.88c-.2-.23-.42-.46-.63-.69l-.17-.16.17.16c.21.23.43.46.63.69a39.85,39.85,0,0,0-6-6.18A52.44,52.44,0,0,0,89,46.89a19.15,19.15,0,0,0-2.11-.19H85.83"/><path class="p" d="M58.31,116.54l0,0c.38.16.75.31,1.13.45l0,0c-.38-.14-.76-.29-1.13-.46m-1.06-.5,0,0c.23.12.47.24.71.34l.35.16,0,0c-.36-.15-.71-.32-1.06-.5m-2-12.92q.09.31.18.69c.33,1.28.76,3.07,1.15,5.12.09.51.18,1,.28,1.59,0,.24.07.48.11.73s.1.59.15.9c.12.61.26,1.28.44,2s.42,1.5.74,2.39c.37.17.75.32,1.13.46a11,11,0,0,1-1.2-3c-.46-1.75-.51-3.25-.9-5.1-.33-1.22-.63-2.28-1-3.48l0-.09a15,15,0,0,1-.94-2l-.08-.21M53,78.21c-.83.8-1.64,1.58-2.41,2.34l-.5.42a51.79,51.79,0,0,1,1.13,5.87,18.48,18.48,0,0,1,.1,2.12c0,.81,0,1.63,0,2.45A11.57,11.57,0,0,0,52,95.7c.64,2,1.61,3.9,1.61,5.52a2.92,2.92,0,0,1,0,.51c0,.49-.07,1-.07,1.39a11.42,11.42,0,0,0,.19,2c.9,2.88,2.57,5.49,3.21,7.88.2,1,.19,2,.4,3,.35.18.7.35,1.06.5-.32-.89-.54-1.67-.74-2.39s-.32-1.39-.44-2q-.08-.47-.15-.9c0-.25-.08-.49-.11-.73-.1-.55-.19-1.08-.28-1.59-.39-2.05-.82-3.84-1.15-5.12q-.09-.37-.18-.69c-.15-.42-.28-.83-.4-1.21s-.23-.7-.32-1-.11-.39-.16-.56l-.07-.25,0-.11c-.05-.15-.09-.28-.13-.38s-.1-.32-.1-.32a4.41,4.41,0,0,1,.24.54l.1.28.15.58c.09.38.2.78.32,1.21l.23.57c-.13-.46-.21-.71-.21-.71s.08.25.21.71h0c-.13-.46-.21-.71-.21-.71s.08.25.21.71a13.92,13.92,0,0,0,.76,1.59l.17.28-.09-.33a14.52,14.52,0,0,1-1.09-2.78c-.12-.41-.23-.92-.29-1.22s-.1-.42-.14-.63c-.1-.42-.19-.83-.27-1.24-.18-.82-.33-1.63-.46-2.4a26.92,26.92,0,0,1-.42-4,9.12,9.12,0,0,1-.68-4.2c0-.33,0-.65,0-1s0-.75,0-1.1h0a20.61,20.61,0,0,1,.28-2.07v-.12c0-1-.13-2.12-.13-3.1a5.15,5.15,0,0,1,.33-2M72.2,50A25.77,25.77,0,0,0,68,51.71a26.22,26.22,0,0,0-3,1.84,7.79,7.79,0,0,0-.65.48,6,6,0,0,0-.54.46,7.29,7.29,0,0,0-.73.76c-.83,1-1.26,1.65-1.43,1.77a.35.35,0,0,0-.08.16A20.36,20.36,0,0,1,67.14,56a1.45,1.45,0,0,1,.59.08,3.55,3.55,0,0,1,1.7,1.52c1,.45,2.07.81,3.11,1.16a17.51,17.51,0,0,1-2.22-2.85c-.58-1-.59-2,.72-2.57l.92-.36.45-.16,0,0a2,2,0,0,1-.43-.69,1.82,1.82,0,0,1-.19-.8h0A1.79,1.79,0,0,1,72,50.4s0-.09,0-.13a2.75,2.75,0,0,1,.14-.3"/><path class="q" d="M58.31,116.54l0,0h0l0,0h0m-3.05-13.42q.09.31.18.69c.33,1.28.76,3.07,1.15,5.12.09.51.18,1,.28,1.59,0,.24.07.48.11.73s.1.59.15.9c.12.61.26,1.28.44,2s.42,1.5.74,2.39h0c-.32-.89-.54-1.67-.74-2.39s-.32-1.39-.44-2q-.08-.47-.15-.9h0c0-.25-.08-.49-.11-.73h0c-.1-.53-.19-1-.27-1.54v0c-.39-2.05-.82-3.84-1.15-5.12q-.09-.37-.18-.69h0m-.38-1.35s.08.25.21.71h0c-.13-.46-.21-.71-.21-.71"/><path class="r" d="M58.31,116.54l0,0h0l0,0h0m-3.05-13.42q.09.31.18.69c.33,1.28.76,3.07,1.15,5.12v0c.08.5.17,1,.27,1.54h0c0,.24.07.48.11.73h0q.08.44.15.9c.12.61.26,1.28.44,2s.42,1.5.74,2.39h0c-.32-.89-.54-1.67-.74-2.39s-.32-1.39-.44-2q-.08-.47-.15-.9c0-.25-.08-.49-.11-.73-.1-.55-.19-1.08-.28-1.59-.39-2.05-.82-3.84-1.15-5.12q-.09-.37-.18-.69h0m-.38-1.35s.08.25.21.71h0c-.13-.46-.21-.71-.21-.71"/><path class="s" d="M56.87,110.52c0,.24.07.48.11.73,0-.25-.08-.49-.11-.73M56.6,109c.08.5.17,1,.27,1.54-.1-.53-.19-1-.27-1.54"/><path class="t" d="M59.44,117l0,0a18.71,18.71,0,0,0,2.2.63h0a19.17,19.17,0,0,1-2.21-.67m-3.16-11.63,0,.09c.4,1.2.7,2.26,1,3.48.39,1.85.44,3.35.9,5.1a11,11,0,0,0,1.2,3,19.17,19.17,0,0,0,2.21.67c-.33-1.32-.59-2.62-.93-4-.4-1.5-.75-3-1.06-4.52A11.86,11.86,0,0,1,57,106.53c-.28-.39-.53-.78-.75-1.16M55.93,104l.09.33a11.76,11.76,0,0,0,1.41,2,11.55,11.55,0,0,0,1,1A12.18,12.18,0,0,1,56,104.2l-.09-.18M57.82,73.7l-.82.77c-1.37,1.28-2.7,2.53-4,3.74a5.15,5.15,0,0,0-.33,2c0,1,.13,2.05.13,3.1v.12a20.61,20.61,0,0,0-.28,2.07c0,.35,0,.72,0,1.1s0,.64,0,1a9.12,9.12,0,0,0,.68,4.2,4.76,4.76,0,0,1,.29-2.29s0-.83.08-2.17a33.79,33.79,0,0,1,.72-5.19,25.84,25.84,0,0,1,2-5.83,18.27,18.27,0,0,1,1.33-2.26l.15-.36"/><path class="o" d="M93.13,65.07l0,.08a5.73,5.73,0,0,1,.45.39c-.15-.16-.31-.32-.48-.47"/><path class="j" d="M65.34,66.72c-.38.31-.75.64-1.12,1l-5.14,4.82c.17-.1.43-.25.76-.46L62,70.76a23.9,23.9,0,0,1,2.22-2.92c.41-.38.82-.74,1.24-1.1l-.07,0"/><path class="n" d="M75,72.62a8.22,8.22,0,0,1-.17,1.32,11.39,11.39,0,0,1-2.49,5,7.45,7.45,0,0,1-4,2.38h-.08c-.22,0-.4-.18-.53-.44.14.31.33.54.57.54h.08a7.62,7.62,0,0,0,4-2.37,11.41,11.41,0,0,0,2.51-5,7.46,7.46,0,0,0,.19-1.34l-.1-.09"/><path class="o" d="M109.06,75.18c-.08.5-.14,1.25-.22,2.12h0v.14c-.12,1.11-.3,2.43-.5,3.71.08-.44.16-.88.22-1.3a36.74,36.74,0,0,0,.51-4.67"/><path class="j" d="M88.86,78.77,88.4,79a21,21,0,0,1-.23,2.31,24.3,24.3,0,0,1-.81,3.48,17.38,17.38,0,0,0,1.15-3.44,13.28,13.28,0,0,0,.35-2.6"/><path class="k" d="M97.88,79.85c0,.1,0,.2-.07.3v.11c0-.13,0-.27.07-.41"/><path class="m" d="M97.81,80.15a23.17,23.17,0,0,1-.67,2.26,37.49,37.49,0,0,1-2.39,5.48A20.31,20.31,0,0,0,97.3,82.4a16,16,0,0,0,.51-2.14v-.11"/><path class="o" d="M106.8,89.15a19.53,19.53,0,0,1-.8,2.52l0,.07,0,.1a28.44,28.44,0,0,1-1.55,3.27h0a33.35,33.35,0,0,1-1.86,3c.35-.48.69-1,1-1.49a22.64,22.64,0,0,0,3.26-7.49m.26-2.68,0,.07h0a.68.68,0,0,1,0,.14v-.21"/><path class="j" d="M47.25,103.54c0,.18.11.35.16.53l0,.06a3.58,3.58,0,0,1-.09-.45l-.1-.14"/><path class="k" d="M46.59,101.09l0,.14,0,.13s0,.06.06.22l.18.77c.1.38.21.78.34,1.19l.1.14a14.6,14.6,0,0,0-.32-1.6,8.57,8.57,0,0,0-.44-1"/><path class="n" d="M93.94,106.86l-.43.27h0a11.33,11.33,0,0,1-1.37,1.12c.35-.2.8-.48,1.28-.79l.52-.6"/><path class="o" d="M96.31,105.3c-.79.55-1.58,1.06-2.37,1.56l-.52.6.46-.3c.92-.65,1.85-1.33,2.3-1.72l.13-.14"/><path class="n" d="M82.58,113.33c-1.15.36-2.26.73-3.33,1.12h0l-1.86.7h0l-.41.17.72-.26c1.71-.55,3.31-1.11,4.88-1.73"/><path class="k" d="M76.18,47.8s-.59.11-1.2.29a4.69,4.69,0,0,0-1,.45l.13,0a5.69,5.69,0,0,1,2.31-.71h-.22m2.62-.72a2.1,2.1,0,0,1-.81.52,1.51,1.51,0,0,0,.81-.52"/><path class="k" d="M72.94,48.94h0a5.38,5.38,0,0,0-.71,1l.1,0a5.3,5.3,0,0,0,.64-1"/><path class="p" d="M72,52.06a2,2,0,0,0,.43.69,4,4,0,0,1-.43-.69m.34-2.12-.1,0a2.75,2.75,0,0,0-.14.3s0,.08,0,.13c.09-.16.19-.31.29-.46"/><path class="u" d="M72.28,67.63c.07.23.14.48.2.74a3.17,3.17,0,0,0,.7.37l.12-.14c-.31-.31-.65-.64-1-1m-6.87-.89c-.42.36-.83.72-1.24,1.1A23.9,23.9,0,0,0,62,70.76l.26-.16c1.44-.92,3.11-1.95,4.75-3.21a15.7,15.7,0,0,0-1.5-.63l0,0m6-4-1.28.79a1,1,0,0,0-.11.4c.06.43.14.92.25,1.37l.06,0c0-.32.24-.57.88-.63l1.23-.1-1-1.8"/><path class="v" d="M73.3,68.6l-.12.14a1.86,1.86,0,0,0,.31.1l0,0-.21-.21"/><path class="w" d="M73.51,68.81l0,0h.05l0,0"/><path class="x" d="M83.05,81.53l-.11.17A34,34,0,0,1,79,88.46a31.5,31.5,0,0,1-3.18,3.86v.06A30.54,30.54,0,0,0,79,88.57a33.54,33.54,0,0,0,4.08-7"/><path class="y" d="M83.12,81.32l0,0-.14.36.11-.17c0-.07,0-.13.07-.2h0"/><path class="z" d="M75.83,92.32l-.06.06v.06l.06-.06v-.06"/><path class="aa" d="M75.77,92.38a26.38,26.38,0,0,1-2.52,2.22v.07a24.21,24.21,0,0,0,2.53-2.23v-.06"/><path class="ab" d="M65.86,99.51v0h0m1.63-20.66c-.41.78-.79,1.6-1.15,2.47a18.59,18.59,0,0,0-.58,5.44c0,1.81.21,3.66.41,5.93.07,1.08.21,2.12.38,3.15.1.51.19,1,.28,1.52L67,98v0c.34-.12.73-.29,1.07-.42.61-.25,1.2-.51,1.75-.8a20.65,20.65,0,0,0,3.17-2l.28-.21V94.6l-.23.17a21,21,0,0,1-3.16,2c-.56.29-1.13.56-1.75.81-.34.13-.74.3-1.1.43-.11-.49-.26-1.37-.38-2-.17-1-.32-2.07-.39-3.15-.2-2.27-.39-4.12-.42-5.93a18.59,18.59,0,0,1,.56-5.44c.33-.81.68-1.57,1.05-2.29,0,.15,0,.31,0,.47a3.3,3.3,0,0,0,.3,1.33,3.32,3.32,0,0,1-.25-1.25c0-.27,0-.55,0-.83"/><path class="u" d="M88.4,79c-.53.27-1.14.57-1.83.89s-2,.77-3,1.24c-.14,0-.27.1-.42.15l-.13.23a33.54,33.54,0,0,1-4.08,7,30.54,30.54,0,0,1-3.14,3.81c0,1.54.06,3.16.12,5a42.17,42.17,0,0,0,3.56-2.66,32.42,32.42,0,0,0,5.65-6,23,23,0,0,0,2.2-3.84,24.3,24.3,0,0,0,.81-3.48A21,21,0,0,0,88.4,79M69.6,72.45c-.41.38-.83.83-1.27,1.33a17.56,17.56,0,0,0-2.06,3l1.11-1.24L68.67,74a9.78,9.78,0,0,1,.6-.78,1.48,1.48,0,0,0,.18-.13l.34-.39-.13-.2-.06-.09"/><path class="v" d="M68.67,74l-1.29,1.47-1.11,1.24a20.75,20.75,0,0,0-2.23,6,40.85,40.85,0,0,0-.58,9.62c0-.33.08-1.18.2-2.36a48.87,48.87,0,0,1,1-5.89,36.8,36.8,0,0,1,2.11-6.54,20.49,20.49,0,0,1,2-3.58"/><path class="v" d="M69.79,72.74l-.34.39.39-.31,0-.08"/><path class="v" d="M83.18,81.3l-.06,0h0c0,.07-.05.13-.07.2l.13-.23"/><path class="ac" d="M75.83,92.38l-.06.06c0,1.53.06,3.15.12,4.94l.06,0c-.06-1.8-.11-3.42-.12-5"/><path class="w" d="M75.77,92.44a24.21,24.21,0,0,1-2.53,2.23c0,1.45,0,2.83,0,4.09V99h0c.88-.5,1.79-1,2.7-1.65-.06-1.79-.11-3.41-.12-4.94"/><path class="ad" d="M65.85,99.53v0h0m8.92-29.14A10.52,10.52,0,0,0,73,71a13,13,0,0,1,0,3c-.17,1.23-.55,2.1-.91,2.27a.43.43,0,0,1-.14,0c-.32,0-.62-.56-1-1.84,0,0-.38-.76-1-1.69l-.39.31a1.48,1.48,0,0,1-.18.13,9.78,9.78,0,0,0-.6.78,20.49,20.49,0,0,0-2,3.58,36.8,36.8,0,0,0-2.11,6.54,48.87,48.87,0,0,0-1,5.89c-.12,1.18-.18,2-.2,2.36s0,.82,0,1.22c.08,1.57.15,2.94.18,4a10.38,10.38,0,0,1-.07,1.87,2.56,2.56,0,0,0,.07.36,3.52,3.52,0,0,0,.38.94,2.29,2.29,0,0,0,1.18,1,2.69,2.69,0,0,0,1,.18,3.89,3.89,0,0,0,1.22-.2A39.08,39.08,0,0,0,73.19,99v-.27c0-1.26,0-2.64,0-4.09l-.28.21a20.65,20.65,0,0,1-3.17,2c-.55.29-1.14.55-1.75.8-.34.13-.73.3-1.07.42v0l-.13-.67c-.09-.5-.18-1-.28-1.52-.17-1-.31-2.07-.38-3.15-.2-2.27-.38-4.12-.41-5.93a18.59,18.59,0,0,1,.58-5.44c.36-.87.74-1.69,1.15-2.47,0,.28,0,.56,0,.83a3.32,3.32,0,0,0,.25,1.25c.13.26.31.44.53.44h.08a7.45,7.45,0,0,0,4-2.38,11.39,11.39,0,0,0,2.49-5A8.22,8.22,0,0,0,75,72.62a2.76,2.76,0,0,1-.93-1.3h0c.08-.37.71-.56.71-.9v0"/><path class="ae" d="M94.5,66.54l0,.06c-.06.13-.13.27-.19.42.44.49.17.63.7,1.14h0a10.24,10.24,0,0,0,1.19.9,16.67,16.67,0,0,0-1.67-2.52"/><path class="af" d="M93.16,65.15a5.07,5.07,0,0,0,1,1.69l.17.18c.06-.15.13-.29.19-.42l0-.06c-.28-.35-.58-.68-.89-1a5.73,5.73,0,0,0-.45-.39"/><path class="ag" d="M92.94,75.58l-1.37.18c-.87.12-1.77.27-2.72.45-.06,0-.11.06-.11.09s0,0,.1.07c.56.18.61.36.61.52h0V77c0,.11,0,.22.22.33s.61.21.61.32h0s0,0,0,0a3.58,3.58,0,0,1-1.31,1l-.1.06a13.28,13.28,0,0,1-.35,2.6,17.38,17.38,0,0,1-1.15,3.44,23,23,0,0,1-2.2,3.84,32.42,32.42,0,0,1-5.65,6A42.17,42.17,0,0,1,76,97.34v.25a59,59,0,0,0,.65,7.11l.67-.52a100.66,100.66,0,0,0,9.18-8c1.63-1.56,3-3,4.05-4,.56-1.24,1.1-2.55,1.55-3.87a26.68,26.68,0,0,0,1.43-7.78,8.25,8.25,0,0,0-.16-1.74,7.4,7.4,0,0,1-.28-1.46c0-.51,0-1-.1-1.57a1.62,1.62,0,0,0,0-.22M67,67.39c-1.64,1.26-3.31,2.29-4.75,3.21l-.26.16-2.11,1.3c-.33.21-.59.36-.76.46l-.19.11a6.38,6.38,0,0,0-.61.64c-.2.23-.4.5-.61.79-1.17,2.86-2.3,5.66-3.4,8.65a3,3,0,0,0-.07.69,1.77,1.77,0,0,0,.14.77,14.4,14.4,0,0,1,1,4.19A10.33,10.33,0,0,1,56.19,87a31.47,31.47,0,0,1,4.75-4.61c1.66-1.69,3.45-3.56,5.33-5.63a17.56,17.56,0,0,1,2.06-3c.44-.5.86-1,1.27-1.33l.06.09.13.2L71,71.27a.64.64,0,0,1-.28-.17,1.44,1.44,0,0,1-.29-.31c-.14-.28-.38-.54-.52-.81a6,6,0,0,0-3-2.59m3.36-2.11-.06,0c0,.15.07.29.11.43A2.81,2.81,0,0,0,71.06,67a8.49,8.49,0,0,0,1.42,1.37c-.06-.26-.13-.51-.2-.74l-1.07-.91a2.44,2.44,0,0,1-.89-1.44h0"/><path class="ah" d="M66.27,76.75c-1.88,2.07-3.67,3.94-5.33,5.63A31.47,31.47,0,0,0,56.19,87a10.33,10.33,0,0,0-.87,1.37,18.24,18.24,0,0,0,.84,4.43A17.68,17.68,0,0,1,57.38,96c.67,4.21,1.27,8.21,2,12.13a8.6,8.6,0,0,0,.84.53A10.85,10.85,0,0,0,64,109.89c0-.45,0-.73.06-1.1,0-.2,0-.4,0-.6s0-.6,0-.9,0-.5-.07-.76l-.52-2.15h0a8.56,8.56,0,0,1,.52,2.15l.69,2.89v0c-.19-1.11-.39-2.2-.58-3.26-.36-2.15-.67-4.25-.85-6.15A41.15,41.15,0,0,1,63,95.84a7.4,7.4,0,0,1,.44-3.27v-.16A40.85,40.85,0,0,1,64,82.79a20.75,20.75,0,0,1,2.23-6"/><path class="ah" d="M71,71.27l-1.24,1.47,0,.08a3.09,3.09,0,0,0,.31-.25c.39-.3.86-.69,1.4-1.15h0l-.22-.11-.28,0h0"/><path class="ah" d="M97.53,77.31c.14.93.23,1.88.28,2.84,0-.1,0-.2.07-.3s.07-.48.1-.73,0-.24-.08-.36a13.37,13.37,0,0,0-.37-1.45"/><path class="ai" d="M76,97.34l-.06,0v.08a59.81,59.81,0,0,0,.67,7.28l0,0A59,59,0,0,1,76,97.59v-.25M93,75.57h0a1.62,1.62,0,0,1,0,.22c.06.54,0,1.06.1,1.57a7.4,7.4,0,0,0,.28,1.46,8.25,8.25,0,0,1,.16,1.74,26.68,26.68,0,0,1-1.43,7.78c-.45,1.32-1,2.63-1.55,3.87l.07-.07a33.83,33.83,0,0,0,1.47-3.67,25.7,25.7,0,0,0,1.46-7.85A7.78,7.78,0,0,0,93.36,79a8.33,8.33,0,0,1-.27-1.47c0-.51,0-1-.09-1.57,0-.11,0-.22,0-.34"/><path class="aj" d="M75.89,97.38c-.91.6-1.82,1.15-2.7,1.65h0v.33c0,1.11,0,2.11,0,3A15.22,15.22,0,0,1,73,105.6s0,.59.06,1.65c1.13-.79,2.3-1.63,3.47-2.51a59.81,59.81,0,0,1-.67-7.28v-.08M96.58,75.06l-.28.06c-.7.12-1.51.28-2.1.33L93,75.57c0,.12,0,.23,0,.34.06.54,0,1.06.09,1.57A8.33,8.33,0,0,0,93.36,79a7.78,7.78,0,0,1,.15,1.68,25.7,25.7,0,0,1-1.46,7.85,33.83,33.83,0,0,1-1.47,3.67,6.17,6.17,0,0,1,1.54-1.1l.5-.5A15.7,15.7,0,0,0,93.94,89c.25-.33.53-.71.81-1.14a37.49,37.49,0,0,0,2.39-5.48,23.17,23.17,0,0,0,.67-2.26c0-1-.14-1.91-.28-2.84a13.33,13.33,0,0,0-1-2.25"/><path class="ae" d="M63.46,92.41v.16A7.4,7.4,0,0,0,63,95.84a41.15,41.15,0,0,0,.23,4.14c.18,1.9.49,4,.85,6.15.19,1.06.39,2.15.58,3.26v0l.13.55q.36,0,.72,0a10.71,10.71,0,0,0,2.32-.25,12.48,12.48,0,0,0,4.47-2l.76-.52c0-1.06-.06-1.65-.06-1.65h0a15.22,15.22,0,0,0,.17-3.27c0-.86,0-1.86,0-3V99a39.08,39.08,0,0,1-5.7,2.74,3.89,3.89,0,0,1-1.22.2,2.69,2.69,0,0,1-1-.18,2.29,2.29,0,0,1-1.18-1,3.52,3.52,0,0,1-.38-.94,2.56,2.56,0,0,1-.07-.36,10.38,10.38,0,0,0,.07-1.87c0-1-.1-2.4-.18-4,0-.4,0-.8,0-1.22M98,74.74a.45.45,0,0,1-.17.1c-.14,0-.62.12-1.21.22a13.17,13.17,0,0,1,1.32,3.7c0,.12,0,.24.08.36a18.89,18.89,0,0,0,0-4.38M73,71l-.93.44a.32.32,0,0,1-.13,0h-.1a.54.54,0,0,1-.25-.06c-.54.46-1,.85-1.4,1.15a3.09,3.09,0,0,1-.31.25c.59.93,1,1.69,1,1.69.43,1.28.73,1.84,1,1.84a.43.43,0,0,0,.14,0c.36-.17.74-1,.91-2.27a13,13,0,0,0,0-3"/><path class="af" d="M64,106.53c0,.26,0,.51.07.76s0,.6,0,.9,0,.4,0,.6c0,.37,0,.65-.06,1.1h.09c.24,0,.47.06.71.07l-.13-.55L64,106.53"/><path class="af" d="M63.48,104.38l.52,2.15a8.56,8.56,0,0,0-.52-2.15"/><path class="ak" d="M53.26,91.8a26.92,26.92,0,0,0,.42,4c.13.77.28,1.58.46,2.4.08.41.17.82.27,1.24,0,.21.09.42.14.63s.17.81.29,1.22A14.52,14.52,0,0,0,55.93,104c-1-3.93-1.73-7.81-2.41-11.81a2.19,2.19,0,0,1-.26-.41"/><path class="al" d="M57.67,74.06a18.27,18.27,0,0,0-1.33,2.26,25.84,25.84,0,0,0-2,5.83,33.79,33.79,0,0,0-.72,5.19c-.08,1.34-.08,2.17-.08,2.17a4.76,4.76,0,0,0-.29,2.29,2.19,2.19,0,0,0,.26.41c.68,4,1.41,7.88,2.41,11.81l.09.18a12.18,12.18,0,0,0,2.4,3.09,10.4,10.4,0,0,0,1,.79c-.78-3.92-1.38-7.92-2-12.13a17.68,17.68,0,0,0-1.22-3.16,18.24,18.24,0,0,1-.84-4.43,14.4,14.4,0,0,0-1-4.19,1.77,1.77,0,0,1-.14-.77,3,3,0,0,1,.07-.69c1.1-3,2.23-5.79,3.4-8.65"/><path class="ae" d="M96.62,73.41a.5.5,0,0,0-.29,0c.1.05.28.17.39.22h0s0,.06,0,.09l.07,0a5.13,5.13,0,0,1,.68.32,1.93,1.93,0,0,1,.46.3c0-.31-.1-.61-.16-.91l-.84-.09h-.3"/><path class="am" d="M72.54,58.72l.55.62a34.7,34.7,0,0,1,2.39,3.08v-.3a6.23,6.23,0,0,0-1.2-2.8c-.56-.21-1.15-.4-1.74-.6"/><path class="an" d="M72.41,52.78l-.45.16L71,53.3c-1.31.6-1.3,1.54-.72,2.57a17.51,17.51,0,0,0,2.22,2.85c.59.2,1.18.39,1.74.6-.37-.58-.79-1.2-1.21-1.82a5.16,5.16,0,0,1-1.23-2.36,2.29,2.29,0,0,1,0-.25h0a.81.81,0,0,1,.13-.51h0a.12.12,0,0,0,.08,0,7.46,7.46,0,0,0,.32-.74,6.46,6.46,0,0,0,.08-.8l0,0"/><path class="ao" d="M99.23,63.45a5.12,5.12,0,0,0-2.41.58,5.35,5.35,0,0,0-2.32,2.51,16.67,16.67,0,0,1,1.67,2.52l.65.43.81.51a2.21,2.21,0,0,1,.32.21h0s0,0,0,0a9.74,9.74,0,0,0,1.11.86c.46.34.87.64,1.19.9l.1-.15c.79.54,1.83,1.15,2.51,1.58a.7.7,0,0,1,.15.14,24.57,24.57,0,0,0-3-10.06l-.53,0h-.19"/><path class="ap" d="M96.2,58.71c-.6.27-.78.74-1.36,1s-.54.89-1.36.89H93.3c-.73,0-1.08.32-1.08,1A4.59,4.59,0,0,0,92.54,63c.15.48.32,1.27.59,2.06.17.15.33.31.48.47.31.32.61.65.89,1A5.35,5.35,0,0,1,96.82,64a5.12,5.12,0,0,1,2.41-.58h.19l.53,0a24.35,24.35,0,0,0-1.72-2.67,22.64,22.64,0,0,0-1.75-2.1H96.2"/><path class="am" d="M90.51,92.22c-1.07,1-2.42,2.4-4.05,4a100.66,100.66,0,0,1-9.18,8l-.67.52c0,.16,0,.32.07.48.07.62.15,1.24.23,1.86l.12,1.25,2.76-1.17c.3-.25.61-.51.91-.79A36.08,36.08,0,0,0,87.41,98c.58-1,1.43-2.41,2.29-4.07.27-.53.54-1.09.81-1.66"/><path class="aq" d="M59.43,108.08c.07.38.15.75.23,1.12.19.15.38.28.58.41A12.77,12.77,0,0,0,64,111.25h0c0-.26,0-.52,0-.79v-.58a10.85,10.85,0,0,1-3.75-1.28,8.6,8.6,0,0,1-.84-.53"/><path class="aq" d="M98,79.12c0,.25-.06.49-.1.73s0,.28-.07.41c0,.49,0,1,0,1.49a37.33,37.33,0,0,1-.46,5.71,39.87,39.87,0,0,1-.86,4.13,27.83,27.83,0,0,0,1.22-4.14,23.93,23.93,0,0,0,.53-5,18.21,18.21,0,0,0-.3-3.37"/><path class="ar" d="M76.61,104.7l0,0c0,.1,0,.21,0,.31.08.62.15,1.24.23,1.86,0,.46.09.93.14,1.4l.06,0L76.91,107c-.08-.62-.16-1.24-.23-1.86,0-.16-.05-.32-.07-.48m14-12.55-.07.07c-.27.57-.54,1.13-.81,1.66C88.84,95.54,88,97,87.41,98a36.08,36.08,0,0,1-6.71,8.38c-.3.28-.61.54-.91.79l.17-.07.67-.58a36.33,36.33,0,0,0,6.74-8.38c.58-1,1.43-2.41,2.31-4.07.3-.6.6-1.22.9-1.87"/><path class="as" d="M76.56,104.74c-1.17.88-2.34,1.72-3.47,2.51v.31a19.9,19.9,0,0,0,.16,2.24.78.78,0,0,1,0,.16l.24-.12c.82-.41,1.75-.79,2.7-1.21l.75-.32c0-.47-.09-.94-.14-1.4-.08-.62-.15-1.24-.23-1.86,0-.1,0-.21,0-.31M97.81,80.26a16,16,0,0,1-.51,2.14,20.31,20.31,0,0,1-2.55,5.49c-.28.43-.56.81-.81,1.14a15.7,15.7,0,0,1-1.32,1.52l-.5.5a6.17,6.17,0,0,0-1.54,1.1c-.3.65-.6,1.27-.9,1.87-.88,1.66-1.73,3.08-2.31,4.07a36.33,36.33,0,0,1-6.74,8.38l-.67.58,2.28-1,2.81-1.26,2.33-1.11,2.19-1.11.48-.14a41.67,41.67,0,0,0,4.09-5.82,34.23,34.23,0,0,0,2.39-5.06,39.87,39.87,0,0,0,.86-4.13,37.33,37.33,0,0,0,.46-5.71c0-.5,0-1,0-1.49"/><path class="ao" d="M73.09,107.25l-.76.52a12.48,12.48,0,0,1-4.47,2,10.71,10.71,0,0,1-2.32.25q-.36,0-.72,0l0,.14c.1.45.21.91.36,1.4a13.82,13.82,0,0,0,1.76.18h.63c.51,0,.9,0,1.19,0l.6,0A23.29,23.29,0,0,0,73.28,110a.78.78,0,0,0,0-.16,19.9,19.9,0,0,1-.16-2.24v-.31M97.76,73.51c.06.3.12.6.16.91a.27.27,0,0,1,.11.19h0a.16.16,0,0,1-.07.13,18.89,18.89,0,0,1,0,4.38,18.21,18.21,0,0,1,.3,3.37,23.93,23.93,0,0,1-.53,5,27.83,27.83,0,0,1-1.22,4.14,34.23,34.23,0,0,1-2.39,5.06,41.67,41.67,0,0,1-4.09,5.82c2.74-.91,5.89-3.84,8-7.09a30.46,30.46,0,0,0,2.6-4.7c.55-1.32.84-2.15.84-2.15.28-2.84.47-4.88.66-6.3a18.24,18.24,0,0,1,.34-2.19,23.93,23.93,0,0,0,.44-6.21h0a5.09,5.09,0,0,1-.68-.1,7.59,7.59,0,0,0-1.77-.21l-.66,0-.86,0a11.12,11.12,0,0,1-1.2-.06"/><path class="ap" d="M64,109.89v.58c0,.27,0,.53,0,.79a10.2,10.2,0,0,0,1.17.25c-.15-.49-.26-1-.36-1.4l0-.14c-.24,0-.47,0-.71-.07H64"/><path class="an" d="M55.09,102.48c0,.19.11.4.17.64l.08.21a15,15,0,0,0,.94,2c-.09-.34-.18-.68-.26-1l-.17-.28a13.92,13.92,0,0,1-.76-1.59m-.23-.57c.12.38.25.79.4,1.21-.06-.24-.12-.45-.17-.64l-.23-.57"/><path class="at" d="M56,104.35c.08.34.17.68.26,1s.47.77.75,1.16a11.86,11.86,0,0,0,2.63,2.67c-.08-.37-.16-.74-.23-1.12a10.4,10.4,0,0,1-1-.79,11.55,11.55,0,0,1-1-1,11.76,11.76,0,0,1-1.41-2"/><path class="an" d="M54.05,99.3s0,.11.1.32.08.23.13.38l0,.11.07.25c0,.17.1.36.16.56s.19.62.32,1c-.12-.43-.23-.83-.32-1.21l-.15-.58-.1-.28a4.41,4.41,0,0,0-.24-.54M72,54.36a.12.12,0,0,1-.08,0h0a.81.81,0,0,0-.13.51,2.29,2.29,0,0,0,0,.25,5.16,5.16,0,0,0,1.23,2.36c-.27-.41-.54-.83-.8-1.25a2.26,2.26,0,0,1-.4-1.19h0a1.64,1.64,0,0,1,.17-.7m.4-1.54a6.46,6.46,0,0,1-.08.8,2.75,2.75,0,0,0,.12-.76l0,0"/><path class="au" d="M47.35,103.68a3.58,3.58,0,0,0,.09.45c.15.47.33,1,.54,1.48A4,4,0,0,0,49.4,107a9.22,9.22,0,0,1,1.16.85c-1.12-1.41-2.2-2.81-3.21-4.18M40.28,65.51a30.07,30.07,0,0,0-.46,3.39c-.18,2-.22,4.17,0,4.17,0,0,.1-.09.16-.3-.8,2.78.87,5.55,1.18,8.71.31,2.36-.38,5,.68,7.07.72,1.73,1.84,3.25,1.63,4.69a7.82,7.82,0,0,0,.22,2.82c.14.33.29.65.46,1a14.07,14.07,0,0,1-.28-1.6c0-.14,0-.28,0-.41,0-1.72.7-2.66.87-3.86-.19-.69-.37-1.39-.55-2.08-.07-.17-.15-.37-.24-.61a28.34,28.34,0,0,1-.83-3.16,6.49,6.49,0,0,1-.63-3.67c-.29-2.16-.56-4.89-.75-8.32-.34-2.49-.86-4.76-1.3-7.09-.05-.24-.1-.48-.14-.72M68,57.27a3.13,3.13,0,0,0-.66.08c-.13.18-.7.58-.83.74l-.65.3-.11,0,0,.09c-.06.26-.14.58-.24.92a2.89,2.89,0,0,1-.53,1,5.38,5.38,0,0,1-1.16.89,4.77,4.77,0,0,0-1.9,1.61,7.48,7.48,0,0,0-.57.81L61,65.12c1.41.62,2.93,1.06,4.36,1.6l.07,0,0,0a15.7,15.7,0,0,1,1.5.63,6,6,0,0,1,3,2.59c.14.27.38.53.52.81a1.44,1.44,0,0,0,.29.31.64.64,0,0,0,.28.17c.7-.81,1.41-1.66,2.15-2.53a3.17,3.17,0,0,1-.7-.37A8.49,8.49,0,0,1,71.06,67a2.81,2.81,0,0,1-.69-1.26c0-.14-.08-.28-.11-.43-.11-.45-.19-.94-.25-1.37a1,1,0,0,1,.11-.4,2.39,2.39,0,0,0,.36-.85,7.4,7.4,0,0,0-.76-2.19,3.06,3.06,0,0,1-.28-2.3.64.64,0,0,0,0-.64l-.29-.13A5,5,0,0,0,68,57.27"/><path class="av" d="M44.72,91.16c-.17,1.2-.87,2.14-.87,3.86,0,.13,0,.27,0,.41a14.07,14.07,0,0,0,.28,1.6c.78,1.45,1.77,2.76,2.45,4.06l-.17-.5c-.13-.4-.26-.78-.38-1.1h0L46,99.34c-.33-.91-.56-1.46-.56-1.46h0s.23.55.56,1.46l.06.15h0c.12.33.25.7.38,1.1l.17.5a8.57,8.57,0,0,1,.44,1,14.6,14.6,0,0,1,.32,1.6c1,1.37,2.09,2.77,3.21,4.18a2.21,2.21,0,0,0,1,.58h.09c-.39-.5-.52-1.14-1-1.82-.73-1.36-2-2.62-2.33-4-.52-1.4-.61-2.68-1.06-4.13-.34-1-.65-1.77-1.07-2.68-.58-1.55-1.07-3.1-1.51-4.64M43.1,85.31a28.34,28.34,0,0,0,.83,3.16c.09.24.17.44.24.61-.28-1.14-.55-2.28-.8-3.44a2.16,2.16,0,0,1-.27-.33M61.64,57.18a26.29,26.29,0,0,0-3,1.25c-1,.43-1.87,1-2.72,1.42l-.61.37a2.56,2.56,0,0,0-.39.32l-.64.58c-.77.73-1.18,1.28-1.34,1.34s0,.81-.21,1a3,3,0,0,1-.86.1c-.39,0-.81,0-1.26-.08s-.91-.08-1.39-.08c-.2,0-.4,0-.6,0a2.23,2.23,0,0,0-1.37.77,4,4,0,0,0-.81,1.55c-.31,1.13-.45,2.18-.54,2.22-1.24-.71-2.84-1-3.66-2.76-.1-.23-.51-.25-.77-.39h0a1.07,1.07,0,0,0-.89.61c0-.18,0-.26-.08-.26s-.09.13-.14.36.09.48.14.72c.44,2.33,1,4.6,1.3,7.09.19,3.43.46,6.16.75,8.32,0-.43,0-.85,0-1.23a13.41,13.41,0,0,1,.29-1.65c.05-1.55-.37-3.22.35-4.29s1.58-2.1,2.33-3.2c.18-.28.36-.56.55-.84l.27-.43a1.51,1.51,0,0,1,.26-.29l1-1c.26-.25.62-.71,1-1.18a7.9,7.9,0,0,1,1.39-1.38,3.83,3.83,0,0,1,.92-.48,1.42,1.42,0,0,1,.48-.38,1,1,0,0,0,.25,0h.1a.55.55,0,0,1,.35.07c.48-.06.86-.07,1.07-.09a3.6,3.6,0,0,0,1.61-.48,5.78,5.78,0,0,1,.72-.31,1.83,1.83,0,0,1,.59-.12h.14a1.05,1.05,0,0,1,0,.31h0l.09,0c0-.24.06-.49.1-.74l.06-.46.06-.3.13-.56a8,8,0,0,1,.3-1.05,3.6,3.6,0,0,1,.9-1.52c1.2-.92,2.64-1.19,3.77-1.9a.41.41,0,0,0,.06-.25c0-.17,0-.37,0-.55a.55.55,0,0,1,0-.18"/><path class="av" d="M73.18,68.74c-.74.87-1.45,1.72-2.15,2.53h0l.28,0,.22.11h0l.83-.68h0c.35-.64.71-1.27,1.1-1.89a1.86,1.86,0,0,1-.31-.1"/><path class="aw" d="M73.49,68.84c-.39.62-.75,1.25-1.1,1.89.49-.43,1-.88,1.61-1.37l-.46-.51h-.05"/><path class="ax" d="M74,69.36l-1.62,1.38-.83.68a.54.54,0,0,0,.25.06h.1a.32.32,0,0,0,.13,0L73,71a10.52,10.52,0,0,1,1.81-.64v0a11.27,11.27,0,0,0-.77-1"/><path class="ay" d="M51.31,65.31a1.42,1.42,0,0,0-.48.38,4.17,4.17,0,0,1,.92-.24l.26,0a.55.55,0,0,0-.35-.07h-.1a1,1,0,0,1-.25,0M67.14,56a20.36,20.36,0,0,0-5.5,1.22.55.55,0,0,0,0,.18c0,.18,0,.38,0,.55a.41.41,0,0,1-.06.25c-1.13.71-2.57,1-3.77,1.9a3.6,3.6,0,0,0-.9,1.52,8,8,0,0,0-.3,1.05l-.13.56-.06.3-.06.46c0,.25-.07.5-.1.74l.49-.14c.13-.15.7-.46.84-.61a1.83,1.83,0,0,1,.33,0,3.3,3.3,0,0,1,1.19.25l.08-.27.09-.32.08-.15.16-.28.32-.53a7.69,7.69,0,0,1,1.34-1.7,6.12,6.12,0,0,1,1.12-.82A12.44,12.44,0,0,0,64,59a9.24,9.24,0,0,1,.8-.53l.44-.2a1.38,1.38,0,0,1,.26-.07l.34-.09h0s0,0,0,0a1.3,1.3,0,0,1-.08.32l.11,0,.65-.3c.13-.16.7-.56.83-.74a3.13,3.13,0,0,1,.66-.08,5,5,0,0,1,1.11.16l.29.13A3.55,3.55,0,0,0,67.73,56a1.45,1.45,0,0,0-.59-.08"/><path class="az" d="M65.84,58.08h0l-.34.09a1.38,1.38,0,0,0-.26.07l-.44.2A9.24,9.24,0,0,0,64,59a12.44,12.44,0,0,1-1.67,1.13,6.12,6.12,0,0,0-1.12.82,7.69,7.69,0,0,0-1.34,1.7l-.32.53-.16.28-.08.15-.09.32-.08.27.12,0a11.32,11.32,0,0,0,1.73.9l.38-1.4a7.48,7.48,0,0,1,.57-.81,4.77,4.77,0,0,1,1.9-1.61A5.38,5.38,0,0,0,65,60.41a2.89,2.89,0,0,0,.53-1c.1-.34.18-.66.24-.92a1.89,1.89,0,0,0,.1-.41s0,0,0,0"/><path class="au" d="M47.44,104.13a4.8,4.8,0,0,0,.54,1.48c-.21-.52-.39-1-.54-1.48"/><path class="ba" d="M104.38,95.11h0a33.35,33.35,0,0,1-1.86,3l-.16.23h0l.16-.23a33.35,33.35,0,0,0,1.86-3h0m1.55-3.27a28.44,28.44,0,0,1-1.55,3.27,28.44,28.44,0,0,0,1.55-3.27m.07-.17,0,.07,0,.1,0-.1,0-.07m.9-3c0,.14-.07.28-.1.43a19.17,19.17,0,0,1-.8,2.53,19.53,19.53,0,0,0,.8-2.52c0-.16.06-.3.1-.44m.19-1.57a7.41,7.41,0,0,1-.19,1.57,7.41,7.41,0,0,0,.19-1.57m0-.6a.68.68,0,0,1,0,.14,3.33,3.33,0,0,1,0,.46,3.23,3.23,0,0,0,0-.46.68.68,0,0,0,0-.14m.44-1.54,0,0c-.2.72-.35,1.24-.4,1.42l0,.07h0l0-.07c0-.18.2-.7.4-1.42l0,0m.39-1.61c-.14.63-.27,1.19-.39,1.61.12-.42.25-1,.39-1.61m0,0v0h0v0m.42-2c-.15.69-.29,1.36-.42,2,.13-.63.27-1.3.42-2m.54-3.93c-.12,1.11-.3,2.43-.5,3.71a1.7,1.7,0,0,0,0,.22,1.7,1.7,0,0,1,0-.22c.2-1.28.38-2.6.5-3.71m0-.14h0v0h0m.32-2.57a4,4,0,0,0-.1.45c-.08.5-.14,1.24-.22,2.12.08-.87.14-1.62.22-2.12a4,4,0,0,1,.1-.45m0-.87c0,.56,0,.87,0,.87h0s0-.31,0-.87h0m0-.6c0,.22,0,.42,0,.6,0-.18,0-.38,0-.6m0-.05v.05h0v-.05m-.44-3.92a21.07,21.07,0,0,1,.44,3.92,21.07,21.07,0,0,0-.44-3.92M103,58.2c.21.23.43.46.63.69a22.82,22.82,0,0,1,5.07,10.4,22.82,22.82,0,0,0-5.07-10.4c-.2-.23-.42-.46-.63-.69m-.17-.16.17.16-.17-.16"/><path class="bb" d="M45.42,97.88h0s.23.55.56,1.46c-.33-.91-.56-1.46-.56-1.46"/><path class="ba" d="M102.36,98.36c-.7,1-1.44,2-2.13,2.82.69-.87,1.43-1.77,2.13-2.82"/><path class="bb" d="M46,99.49c.12.32.25.7.38,1.1-.13-.4-.26-.77-.38-1.1M46,99.34l.06.15L46,99.34"/><path class="a" d="M47.25,103.54c0,.18.11.35.16.53l0,.06c.15.47.33,1,.54,1.48a21.9,21.9,0,0,0,1.38,2.83A20,20,0,0,0,54.14,114a17.82,17.82,0,0,0,2.64,1.76h0A17.82,17.82,0,0,1,54.14,114a20,20,0,0,1-4.78-5.59A21.9,21.9,0,0,1,48,105.61c-.21-.52-.39-1-.54-1.48l0-.06c0-.18-.11-.35-.16-.53h0"/><path class="bb" d="M61.65,117.67h0l.83.16a18.71,18.71,0,0,0,2.51.3c.36,0,.71,0,1.06,0h0c-.35,0-.7,0-1.06,0a18.71,18.71,0,0,1-2.51-.3l-.83-.16m-4.87-1.88h0l.47.25h0l-.47-.25m-10.36-15.2.17.5,0,.14,0,.13s0,.06.06.22l.18.77c.1.38.21.78.34,1.19h0c-.13-.41-.24-.81-.34-1.19l-.18-.77c0-.16,0-.19-.06-.22l0-.13,0-.14-.17-.5"/><path class="ba" d="M100.19,101.22c-.68.81-1.33,1.52-1.88,2.13.55-.61,1.2-1.32,1.88-2.13m0,0h0l0,0,0,0h0"/><path class="bc" d="M70.35,117.7c-.46.1-.95.19-1.47.26h0c.52-.07,1-.16,1.47-.26m.32-.07-.21,0-.11,0,.11,0,.21,0M75.33,116a26.45,26.45,0,0,1-4.66,1.61A26.45,26.45,0,0,0,75.33,116m1.16-.51-1.16.51,1.16-.51m.9-.36-.42.17-.48.19.49-.19.41-.17m1.86-.7-1.86.7,1.86-.7m4-1.32-.64.2c-1.15.36-2.26.73-3.33,1.12,1.07-.39,2.18-.76,3.33-1.12l.64-.2m8-4.24h0c-1,.66-2.28,1.44-3.47,2.06-2.39,1.29-4.56,2.18-4.56,2.18h0s2.17-.89,4.56-2.18c1.19-.62,2.43-1.4,3.47-2.06h0m2.26-1.76a12.22,12.22,0,0,1-1.37,1.13l-.89.63c.32-.22.62-.43.89-.64a11.33,11.33,0,0,0,1.37-1.12"/><path class="ba" d="M68.88,118a18.6,18.6,0,0,1-2.19.19,18.6,18.6,0,0,0,2.19-.19h0"/><path class="bd" d="M44.17,89.08c.18.69.36,1.39.55,2.08a2.74,2.74,0,0,0,0-.5,4.49,4.49,0,0,0,0-.51h0v-.09c0-.2-.16,0-.56-1m-1.7-7.44a6.49,6.49,0,0,0,.63,3.67c-.21-1-.42-2.2-.63-3.67"/><path class="be" d="M50.83,65.69a3.83,3.83,0,0,0-.92.48,7.9,7.9,0,0,0-1.39,1.38c-.4.47-.76.93-1,1.18l-1,1a1.51,1.51,0,0,0-.26.29l-.27.43c-.19.28-.37.56-.55.84-.75,1.1-1.52,2.14-2.33,3.2s-.3,2.74-.35,4.29a13.41,13.41,0,0,0-.29,1.65c0,.38,0,.8,0,1.23.21,1.47.42,2.68.63,3.67a2.16,2.16,0,0,0,.27.33c.25,1.16.52,2.3.8,3.44.4.93.56.78.56,1v.09a4.49,4.49,0,0,1,0,.51,2.74,2.74,0,0,1,0,.5c.44,1.54.93,3.09,1.51,4.64.42.91.73,1.72,1.07,2.68.45,1.45.54,2.73,1.06,4.13.34,1.38,1.6,2.64,2.33,4,.46.68.59,1.32,1,1.82h0c.4.19.95.72,1.16.72a.1.1,0,0,0,.09-.06c.25-.25-.09-.89-.21-1.34a47.23,47.23,0,0,1-2.1-6,101.81,101.81,0,0,1-3.43-13.6A10.33,10.33,0,0,0,46,85.88a5.22,5.22,0,0,1-.25-.59c-.64-1.78-.42-4.09-1.48-6a1.6,1.6,0,0,1,0-1.15c.87-1.8,1.76-3.5,2.68-5.21l1.39-2.59.18-.33.17-.15.33-.3.67-.54a1.64,1.64,0,0,0,.26-.2,10.53,10.53,0,0,1,.4-2.64s.05.1.07.31a1.87,1.87,0,0,1,.47-.81M56,64.41a1.83,1.83,0,0,0-.59.12,5.78,5.78,0,0,0-.72.31,3.6,3.6,0,0,1-1.61.48c-.21,0-.59,0-1.07.09a.31.31,0,0,1,.08.11,4.09,4.09,0,0,0,.79,1.37,5.15,5.15,0,0,1,.9-.08l.5,0A1.69,1.69,0,0,0,56,65.64a2.73,2.73,0,0,0,.2-.91,1.05,1.05,0,0,0,0-.31H56"/><path class="bf" d="M52,65.41l-.26,0a4.17,4.17,0,0,0-.92.24,1.87,1.87,0,0,0-.47.81c0-.21,0-.31-.07-.31a10.53,10.53,0,0,0-.4,2.64,13.56,13.56,0,0,1,2-1.6,3,3,0,0,1,1-.34,4.09,4.09,0,0,1-.79-1.37.31.31,0,0,0-.08-.11"/><path class="bg" d="M72.94,48.94h0a5.38,5.38,0,0,0-.71,1h0a5.38,5.38,0,0,1,.71-1h0m3.24-1.14a10.44,10.44,0,0,0-1.2.29,4.69,4.69,0,0,0-1,.45h0a4.69,4.69,0,0,1,1-.45c.61-.18,1.2-.29,1.2-.29h0m2.62-.72a2.1,2.1,0,0,1-.81.52h0a2.1,2.1,0,0,0,.81-.52h0"/><path class="bg" d="M76.18,47.8a10.44,10.44,0,0,0-1.2.29,4.69,4.69,0,0,0-1,.45h0a4.69,4.69,0,0,1,1-.45c.61-.18,1.2-.29,1.2-.29h0m2.62-.72a2.1,2.1,0,0,1-.81.52h0a2.1,2.1,0,0,0,.81-.52h0"/><path class="bh" d="M79.36,72.64a26.44,26.44,0,0,0-1.78,2.9l-.12.22a2.07,2.07,0,0,0,1.29.85h0l0,0h0c0,.26-1.38.34-1.63.69a.69.69,0,0,0,0,.13c0,.43.7.83,1.45,1.07,1.69.64,3.47,1.19,3.69,1.92.35-.18.94-.37,1.32-.53A11.11,11.11,0,0,0,84,77.19a3.16,3.16,0,0,0,0-.81c0-.25-.05-.48-.07-.69a5.06,5.06,0,0,0-.31-1.08,3.39,3.39,0,0,1-.33-.66q0,.61-.09,1.2a7.85,7.85,0,0,1-1,3.75.36.36,0,0,1-.25.14c-.33,0-.62-.73-1-2.48,0,0-.41-1.26-1-2.75-.16-.38-.34-.78-.53-1.17"/><path class="bi" d="M75.63,69.83h-.81c0,.11.05.23.07.34l.12.18h-.08a10.49,10.49,0,0,1,.16,2.35A17.18,17.18,0,0,1,76.51,74a6.85,6.85,0,0,0,.95,1.76l.12-.22a26.44,26.44,0,0,1,1.78-2.9c.19.39.37.79.53,1.17.64,1.49,1,2.75,1,2.75.38,1.75.67,2.48,1,2.48a.36.36,0,0,0,.25-.14,7.85,7.85,0,0,0,1-3.75q.06-.59.09-1.2c-.14-.39-.21-.79-.31-1.18a3.65,3.65,0,0,0-.29-.92,1.87,1.87,0,0,0-.54-.78h0a4.44,4.44,0,0,0-2.78-.81,6,6,0,0,0-.65,0l-.41,0c-.08,0-.11,0-.11,0,0-.39-.61-.31-1.76-.43h-.86"/><path class="bj" d="M80.47,43.47a.67.67,0,0,0-.53.22c-.61,1-.47,2.55-1.14,3.39a2.66,2.66,0,0,0,.43-.6A3.46,3.46,0,0,0,79.55,45v-.15h0V45h0a3.46,3.46,0,0,1-.32,1.46,2.66,2.66,0,0,1-.43.6,1.51,1.51,0,0,1-.81.52,3.72,3.72,0,0,1-1.32.21H76.4a5.69,5.69,0,0,0-2.31.71l-.13,0a.5.5,0,0,0-.22.25l-.8.15a5.3,5.3,0,0,1-.64,1,21.11,21.11,0,0,1,2.19-.54,16.52,16.52,0,0,1,2.82-.28,3.68,3.68,0,0,1,1.16.13,5.12,5.12,0,0,1,1.5,1.2,1.61,1.61,0,0,1,.38.87.58.58,0,0,1,0,.19c.8,0,1.64.08,2.53.19a23.47,23.47,0,0,1-1.4-2.23,2.71,2.71,0,0,1-.32-1.14c0-.61.38-1.08,1.41-1.32l.29,0,.83-.12L85,46.7h.35c-1.65-1.37-3.8-3.22-4.91-3.22"/><path class="bk" d="M85.38,46.69H85l-1.37.14-.83.12-.29,0c-1,.24-1.41.71-1.41,1.32a2.71,2.71,0,0,0,.32,1.14,23.47,23.47,0,0,0,1.4,2.23l.13,0a.66.66,0,0,0,.18-.34,6.25,6.25,0,0,0,1,.26l.33,0a.61.61,0,0,0,.43-.13L85,51.1a.81.81,0,0,1,0,.19h0a.34.34,0,0,1-.1.25l-.07.53h0c.43-1,1-1.82,1.57-1.82a.62.62,0,0,1,.37.13,8.13,8.13,0,0,1,1.35-.32A7.18,7.18,0,0,1,89,50a3.28,3.28,0,0,1,1.21.21c-.21-.12-.41-.25-.63-.39C88.45,49.07,87.09,48,85.77,47l-.39-.32"/><path class="bl" d="M77.31,49.12a16.52,16.52,0,0,0-2.82.28,21.11,21.11,0,0,0-2.19.54c-.1.15-.2.3-.29.46a3,3,0,0,0-.17,1,1.93,1.93,0,0,0,.12.71,4,4,0,0,0,.43.69l0,0a18.71,18.71,0,0,1,2.23-.65,22.81,22.81,0,0,1,5.25-.62h.43a.58.58,0,0,0,0-.19,1.61,1.61,0,0,0-.38-.87,5.12,5.12,0,0,0-1.5-1.2,3.68,3.68,0,0,0-1.16-.13"/><path class="bm" d="M75.48,62.42a2.29,2.29,0,0,1-.77,1.79,9,9,0,0,1-2.28.34l.59,1a16.74,16.74,0,0,1,1,2.13l.68-.8c.6-.7,1.23-1.36,1.88-2,0-.22-.06-.45-.08-.69l-.22-.42a9.84,9.84,0,0,0-.66-1.1l-.18-.28"/><path class="bj" d="M76.62,64.91c-.65.63-1.28,1.29-1.88,2l-.68.8.06.17.57-.81a27.38,27.38,0,0,1,2-2.07l0-.08"/><path class="bn" d="M76.64,65a27.38,27.38,0,0,0-2,2.07l-.57.81c.14.35.26.7.37,1.06.3-.26.59-.52.89-.8.59-.51,1.18-1,1.78-1.61A4.11,4.11,0,0,1,76.64,65"/><path class="bo" d="M77.16,66.52c-.6.57-1.19,1.1-1.78,1.61-.3.28-.59.54-.89.8A10.9,10.9,0,0,1,74.77,70l.12.15c0-.11,0-.23-.07-.34h1.67c1.15.12,1.77,0,1.76.43,0,0,0,0,.11,0l.41,0a6,6,0,0,1,.65,0,4.44,4.44,0,0,1,2.78.81l.15-.17a4.7,4.7,0,0,0,.42-.57l0,0-.78-.49c-.31-.2-.73-.4-1.09-.62l-1.21-.66a6.75,6.75,0,0,1-2.1-1.5,2.82,2.82,0,0,1-.38-.51"/><path class="bn" d="M83.18,68.84c0,.18-.05.36-.08.55a2.36,2.36,0,0,1,0,.28c.07-.13.15-.27.22-.43l.06-.14-.24-.26"/><path class="bo" d="M74.93,70.36l-.09,0A9.49,9.49,0,0,1,75,72.62l.1.09a10.49,10.49,0,0,0-.16-2.35m8.17-1,0,.42s.05-.09.07-.14a2.36,2.36,0,0,0,0-.28"/><path class="bm" d="M87.72,73.58c.1.3.18.6.26.91l.19,0c-.14-.33-.29-.64-.45-.94"/><path class="bp" d="M72.43,64.55l-1.23.1c-.64.06-.88.31-.88.63l1-.44.56,1.53c.11.31.27.75.43,1.26.37.33.71.66,1,1l.76-.9a16.74,16.74,0,0,0-1-2.13l-.59-1"/><path class="bq" d="M74.06,67.7l-.76.9.21.21c.2-.31.4-.63.61-.94l-.06-.17"/><path class="br" d="M74.12,67.87c-.21.31-.41.63-.61.94l0,0h.06l.49.42.4-.35c-.11-.36-.23-.71-.37-1.06"/><path class="bs" d="M74.49,68.93l-.4.35a6.53,6.53,0,0,1,.68.74,10.9,10.9,0,0,0-.28-1.09"/><path class="br" d="M83.33,73.89V74a3.39,3.39,0,0,0,.33.66A5.06,5.06,0,0,1,84,75.69c0,.21,0,.44.07.69a3.16,3.16,0,0,1,0,.81,11.11,11.11,0,0,1-.49,2.73l0,0a11.1,11.1,0,0,0,.47-2.61,5.64,5.64,0,0,0-.35-2.61,4.78,4.78,0,0,1-.38-.79"/><path class="bt" d="M82.2,71.06h0a1.87,1.87,0,0,1,.54.78,3.65,3.65,0,0,1,.29.92c.1.39.17.79.31,1.18v-.06l0-.12c-.07-.31-.15-.62-.23-.94a3.25,3.25,0,0,0-.27-.92c-.07-.15-.13-.29-.21-.43a2.82,2.82,0,0,0-.33-.36l-.06-.06"/><path class="bp" d="M85.2,76.05c0,.18-.08.36-.12.54-.18.68-.38,1.33-.61,2,.16-.07.36-.14.59-.22s.38-.17.38-.26-.26-.32-.43-.5a.23.23,0,0,1-.13-.2h0c0-.27.69-.55.69-.83v0c0-.14-.17-.3-.37-.45m0-5.17a17.56,17.56,0,0,1,.22,2.66c0,.14,0,.29,0,.43h0l.42,0a5.93,5.93,0,0,1,.78.13,8,8,0,0,0,1.33.37c-.08-.31-.16-.61-.26-.91a7.18,7.18,0,0,0-2.5-2.7"/><path class="bq" d="M84,79.34c-.06.13-.11.26-.17.38a.49.49,0,0,0,.17-.38M85.11,76c0,.16-.07.31-.11.47a19.48,19.48,0,0,1-.68,2.16l.15-.07c.23-.62.43-1.27.61-2,0-.18.09-.36.12-.54L85.11,76m0-5.16a17.56,17.56,0,0,1,.22,2.66c0,.17,0,.33,0,.49h.09c0-.14,0-.29,0-.43a17.56,17.56,0,0,0-.22-2.66l-.09-.06"/><path class="br" d="M83.42,69.1l-.06.14c-.07.16-.15.3-.22.43a26.54,26.54,0,0,1,.21,3.3c0,.31,0,.61,0,.92a4.78,4.78,0,0,0,.38.79,5.64,5.64,0,0,1,.35,2.61,11.1,11.1,0,0,1-.47,2.61l.06,0a1,1,0,0,0,.21-.16c.06-.12.11-.25.17-.38v0A2.71,2.71,0,0,1,84,79h0a.63.63,0,0,1,0-.26,1.81,1.81,0,0,1,.25-.16A19.48,19.48,0,0,0,85,76.45c0-.16.08-.31.11-.47-.3-.22-.62-.43-.63-.62h0c0-.08.06-.15.2-.22l-.14,0c-.13,0-.18-.1-.18-.25h0a1.21,1.21,0,0,1,.07-.35c.1-.31.29-.61.44-.61A.14.14,0,0,1,85,74a1.38,1.38,0,0,1,.37,0c0-.16,0-.32,0-.49a17.56,17.56,0,0,0-.22-2.66l-.6-.32-.28-.38c-.19-.24-.48-.57-.76-1l-.07-.07"/><path class="bs" d="M74.84,70.38h-.07v0h0c0,.34-.63.53-.71.9a2.76,2.76,0,0,0,.93,1.3,9.49,9.49,0,0,0-.15-2.24m8.3-.71s0,.09-.07.14c0,.22,0,.45,0,.68l-.26-.17a4.7,4.7,0,0,1-.42.57l-.15.17.06.06a2.82,2.82,0,0,1,.33.36c.08.14.14.28.21.43a3.25,3.25,0,0,1,.27.92c.08.32.16.63.23.94l0,.12c0-.31,0-.61,0-.92a26.54,26.54,0,0,0-.21-3.3"/><path class="bu" d="M84.11,66.63a23.82,23.82,0,0,1,1.11,4.25,7.18,7.18,0,0,1,2.5,2.7c.16.3.31.61.45.94.73.15,1.54.26,2.24.39.17,0,.44-.75,1.61-.82l.75,0a6,6,0,0,0-.4-1.3h0l-.09-.16c-.31-.23-.64-.5-1-.77a16.26,16.26,0,0,1-1.37-1.28,2.49,2.49,0,0,1-.28-.34c-.71-.37-1.25-.52-1.28-.67h0a.17.17,0,0,0,0-.07.88.88,0,0,0-.06-.33,6.7,6.7,0,0,1-1.63-.71S86,68,85,67.26l-.8-.59-.08,0M71.29,64.84l-1,.44h0a2.44,2.44,0,0,0,.89,1.44l1.07.91c-.16-.51-.32-.95-.43-1.26l-.56-1.53"/><path class="bv" d="M92.28,72.6l.09.16,0-.06-.13-.1m-4-3.46a.88.88,0,0,1,.06.33.17.17,0,0,1,0,.07c0,.15.57.3,1.28.67a.51.51,0,0,1-.13-.26h0s0,0,0,0h.14a5.26,5.26,0,0,1,1.76.36c.25.1.49.18.71.25l-.51-.73a21.07,21.07,0,0,1-3.34-.63"/><path class="bv" d="M84,66.59a23.62,23.62,0,0,1,1.11,4.23l.09.06a23.82,23.82,0,0,0-1.11-4.25l-.09,0"/><path class="bv" d="M93.51,70c-.05.29-.09.58-.13.89h.05c.09-.2.19-.42.28-.65l.08-.2v0l-.27,0"/><path class="bw" d="M92.37,72.76h0a6,6,0,0,1,.4,1.3h0a6.45,6.45,0,0,0-.37-1.2l-.06-.1"/><path class="bx" d="M92.41,72.7l0,.06.06.1a6.45,6.45,0,0,1,.37,1.2,3.51,3.51,0,0,0,1.49-.18l-.77-.33a4.94,4.94,0,0,0-.73-.56c-.12-.09-.25-.18-.38-.29M93.79,70l-.08.2c-.09.23-.19.45-.28.65l.79.2c-.11-.28-.23-.59-.38-.92,0,0,0-.08,0-.13m-10-3.5a9.34,9.34,0,0,0-.65,2.33l.24.26.07.07c.28.38.57.71.76,1l.28.38.6.32A23.62,23.62,0,0,0,84,66.59l-.19-.08"/><path class="by" d="M94.3,67.93c.35.3,1.19,1,1.73,1.55.3.31.52.57.52.73h0c0,.1-.08.16-.3.16a5.75,5.75,0,0,1-1.32-.26L93.78,70l.06.15c.15.33.27.64.38.92.4.1.81.21,1.28.36s.84.35,1.23.48l.69.21c-.07-.23-.15-.47-.23-.7a16.21,16.21,0,0,0-1-2.35,10.24,10.24,0,0,1-1.19-.9l-.68-.23"/><path class="bz" d="M91.67,69.77l.51.73c.44.15.83.26,1.2.35,0-.31.08-.6.13-.89L91.9,69.8l-.23,0"/><path class="ca" d="M83.87,66.42l0,.09.19.08.09,0,.08,0a3.92,3.92,0,0,0-.32-.25"/><path class="cb" d="M74.28,59.32a6.23,6.23,0,0,1,1.2,2.8v.23h0v.07l.18.28a9.84,9.84,0,0,1,.66,1.1l.22.42c0,.24,0,.47.08.69.35-.33.69-.66,1-1l1.09-1a3.86,3.86,0,0,0-.94-1.62,9.17,9.17,0,0,0-2.35-1.52c-.38-.17-.77-.33-1.18-.48"/><path class="cc" d="M80.32,51.51a.64.64,0,0,1-.08.14,2.31,2.31,0,0,0-.21.68l.77,0a4.37,4.37,0,0,0,2.1-.51l-.05-.08c-.89-.11-1.73-.17-2.53-.19"/><path class="cc" d="M78.75,62.94l-1.09,1c-.35.31-.69.64-1,1l0,.08c.35-.34.71-.68,1.06-1l1.07-1s0-.06,0-.08"/><path class="cd" d="M78.77,63,77.7,64c-.35.32-.71.66-1.06,1a4.11,4.11,0,0,0,.52,1.53c.51-.48,1-1,1.55-1.52l.49-.5a6,6,0,0,1-.4-1.2,2.4,2.4,0,0,0,0-.28"/><path class="cd" d="M82.3,66l.22.4a23.93,23.93,0,0,1,.58,3h0c0-.19.05-.37.08-.55a9.34,9.34,0,0,1,.65-2.33A11.93,11.93,0,0,0,82.3,66"/><path class="ce" d="M79.2,64.5l-.49.5c-.52.53-1,1-1.55,1.52a2.82,2.82,0,0,0,.38.51,6.75,6.75,0,0,0,2.1,1.5l1.21.66c.36.22.78.42,1.09.62l.78.49,0,0,.26.17c0-.23,0-.46,0-.68l0-.42h0a23.93,23.93,0,0,0-.58-3L82.3,66c-.56-.15-1.1-.27-1.58-.36a1.39,1.39,0,0,1-.64-.45,6.84,6.84,0,0,0-.58-.44.67.67,0,0,1-.3-.25"/><path class="cf" d="M82.85,51.7l.05.08.08-.06-.13,0"/><path class="cg" d="M79.89,51.51a22.81,22.81,0,0,0-5.25.62,18.71,18.71,0,0,0-2.23.65l0,0h0l0,0h0a2.75,2.75,0,0,1-.12.76c-.06.33-.16.66-.32.74a1.64,1.64,0,0,0-.17.7,2.26,2.26,0,0,0,.4,1.19c.26.42.53.84.8,1.25l.3.35-.05-.06.05.06-.05-.06.05.06-.3-.35c.42.62.84,1.24,1.21,1.82.41.15.8.31,1.18.48a9.17,9.17,0,0,1,2.35,1.52,3.38,3.38,0,0,1,1,2,6,6,0,0,0,.4,1.2.67.67,0,0,0,.3.25,6.84,6.84,0,0,1,.58.44,1.39,1.39,0,0,0,.64.45c.48.09,1,.21,1.58.36a11.93,11.93,0,0,1,1.53.51l0-.09a30.9,30.9,0,0,1-2.46-2.17c-2.21-2.13-4.1-4.92-4.1-6.83h0a2.45,2.45,0,0,1,.12-.78.12.12,0,0,0,0-.08c0-.16-.12-.67-1.1-2a3.48,3.48,0,0,1-.06-.66h0a2.44,2.44,0,0,1,.1-.74,1.3,1.3,0,0,1,1.31-.94,3,3,0,0,1,.86.15s.65,0,1.47,0a2.31,2.31,0,0,1,.21-.68.64.64,0,0,0,.08-.14h-.43"/><path class="cf" d="M84.9,52.07v0l0,0h0"/><path class="ce" d="M96.17,69.06a16.21,16.21,0,0,1,1,2.35c.08.23.16.47.23.7a11.61,11.61,0,0,0,1.85.46h0l.42,0c.26,0,.41,0,.41-.15a.29.29,0,0,0-.11-.19h0l.19-.28c-.32-.26-.73-.56-1.19-.9a9.74,9.74,0,0,1-1.11-.86h0s0,0,0,0h0a2.21,2.21,0,0,0-.32-.21l-.81-.51-.65-.43"/><path class="ch" d="M73.54,68.85l.46.51.09-.08-.49-.42h-.06"/><path class="ci" d="M74.09,69.28l-.09.08a11.27,11.27,0,0,1,.77,1v0h.07l.09,0H75l-.12-.18L74.77,70a6.53,6.53,0,0,0-.68-.74"/><path class="cj" d="M74,48.54h0a.5.5,0,0,0-.22.25l-.8.15h0l.8-.15a.5.5,0,0,1,.22-.25h0m4-.94h0a3.72,3.72,0,0,1-1.32.21h0A3.72,3.72,0,0,0,78,47.6h0M79.55,45a3.46,3.46,0,0,1-.32,1.46,2.66,2.66,0,0,1-.43.6h0a2.66,2.66,0,0,0,.43-.6A3.46,3.46,0,0,0,79.55,45h0m0-.15V45h0v-.15h0"/><path class="ck" d="M73.07,57.5h0l.3.35-.05-.06-.25-.29m-.71-3.88h0c-.06.33-.16.66-.32.74h0c.16-.08.26-.41.32-.74h0m.08-.81h0"/><path class="bj" d="M78,47.6l-.2,0-1.39.16h.27A3.72,3.72,0,0,0,78,47.6"/><path class="bj" d="M74,48.54a3.48,3.48,0,0,0-1,.38l0,0,.8-.15a.5.5,0,0,1,.22-.25"/><path class="bl" d="M72,50.4a1.79,1.79,0,0,0-.24.86,1.82,1.82,0,0,0,.19.8,1.93,1.93,0,0,1-.12-.71h0a3,3,0,0,1,.17-1"/><path class="bk" d="M90.6,50.43c.22.17.76.59,1.34,1l.42-.36a9.93,9.93,0,0,1,1.17-.16h.09a2.94,2.94,0,0,1,1.66.8,24,24,0,0,1,4.47,5.11,2.26,2.26,0,0,1,.3.63,2.34,2.34,0,0,0-.31-.69,23.71,23.71,0,0,0-4.48-5.11,2.91,2.91,0,0,0-1.66-.8h-.09a9.93,9.93,0,0,0-1.17.16h-.15a3.74,3.74,0,0,1-1.59-.57"/><path class="bl" d="M72.39,52.75l0,0h0l0,0"/><path class="cg" d="M72.41,52.78h0l0,0h0l0,0"/><path class="cg" d="M72.36,53.62a7.46,7.46,0,0,1-.32.74c.16-.08.26-.41.32-.74"/><path class="cc" d="M81.82,57.6a1.24,1.24,0,0,0-.42.82,1.66,1.66,0,0,0,0,.24c0,.06,0,.14,0,.21a11.67,11.67,0,0,0,.43-1.27"/><path class="bk" d="M89,62.53l-.17,0,0,.05.19.08.06,0-.1-.17"/><path class="bz" d="M88.81,62.6a8.36,8.36,0,0,0,1.77,2.5c-.53-.77-1-1.57-1.52-2.4l-.06,0-.19-.08"/><path class="cf" d="M88.54,61.77a5.39,5.39,0,0,0,.25.78l.17,0-.42-.76"/><path class="bv" d="M85.49,64.15l0,0,.4.32.4.24-.14-.11-.62-.48"/><path class="cc" d="M83.85,62.73c.45.45,1,.94,1.6,1.45l0,0c-.57-.47-1.13-1-1.64-1.42"/><path class="bz" d="M93.36,67.65l.09.12.44,0-.53-.16"/><path class="bh" d="M82.12,81a1,1,0,0,1-.17.21l.22-.07a.48.48,0,0,0,0-.14"/><path class="cl" d="M93.1,65l0,.09,0,0,0-.08,0,0m5-7.62c0,.1-.13.13-.13.26a.26.26,0,0,0,0,.11.77.77,0,0,1,.07.32h0s0,.1,0,.14a2,2,0,0,1-1.43.43h-.19l0,.06h.17a2,2,0,0,0,1.42-.42.66.66,0,0,0,0-.14.84.84,0,0,0-.07-.33.52.52,0,0,1,0-.11h0c0-.13.12-.16.13-.26.54.06,1.32.64,1.74.64a.24.24,0,0,0,.24-.14s0-.06,0-.11a1.52,1.52,0,0,0-.07-.42,1.41,1.41,0,0,1,.06.36h0a.21.21,0,0,1,0,.12.25.25,0,0,1-.24.13c-.42,0-1.2-.58-1.74-.63"/><path class="cm" d="M94.29,67h0c.38.45.14.6.65,1.1l0,0h0c-.53-.51-.26-.65-.7-1.14"/><path class="cn" d="M93.13,65.12a5,5,0,0,0,.94,1.68l.22.23h0l-.17-.18a5.07,5.07,0,0,1-1-1.69l0,0"/><path class="co" d="M96.17,58.65c-.6.28-.78.74-1.36,1.06s-.54.89-1.37.89h-.17c-.73,0-1.09.32-1.09,1A4.59,4.59,0,0,0,92.5,63c.15.48.32,1.28.6,2.07l0,0c-.27-.79-.44-1.58-.59-2.06a4.59,4.59,0,0,1-.32-1.41h0c0-.64.35-.91,1.08-1h.18c.82,0,.76-.68,1.36-.89s.76-.78,1.36-1h.28l0-.06h-.26"/><path class="cp" d="M89.23,62.51l-.27,0,.1.17a15,15,0,0,1,4.07,2.42l0-.09a13.12,13.12,0,0,0-3.87-2.52m4.3-11.62a9.93,9.93,0,0,0-1.17.16l-.42.36.11.08a3.64,3.64,0,0,0,1.51.7.32.32,0,0,0,.31-.18s.28.1.67.28a10.84,10.84,0,0,1,1.39.79c.83.55,1.54,1.24,1.54,1.78h0a.48.48,0,0,1-.07.26s0,.27-.05.58a6.9,6.9,0,0,1-.14.87l-.73.21c-.41.11-1,.26-1.55.45.51.45,1,.92,1.5,1.43h.19a2,2,0,0,0,1.43-.43s0-.09,0-.14a.77.77,0,0,0-.07-.32.26.26,0,0,1,0-.11h0c0-.13.12-.16.13-.26.54.05,1.32.63,1.74.63a.25.25,0,0,0,.24-.13.21.21,0,0,0,0-.12,1.41,1.41,0,0,0-.06-.36,2.26,2.26,0,0,0-.3-.63,24,24,0,0,0-4.47-5.11,2.94,2.94,0,0,0-1.66-.8h-.09"/><path class="cq" d="M94.29,67c-.1.24-.2.5-.29.77h.14l.16.13.68.23,0,0c-.51-.5-.27-.65-.65-1.1"/><path class="cr" d="M89.06,62.7c.48.83,1,1.63,1.52,2.4A17.75,17.75,0,0,0,92.87,67s.23.27.49.61l.53.16H94c.09-.27.19-.53.29-.77l-.22-.23a5,5,0,0,1-.94-1.68,15,15,0,0,0-4.07-2.42"/><path class="cs" d="M94.93,57.23l-.15.05A13.55,13.55,0,0,1,92,57.9a1,1,0,0,1-.49-.1l-.3.05a3,3,0,0,0-.73.25,3.56,3.56,0,0,0-1.68,1.45A2.93,2.93,0,0,0,88.46,61a4.09,4.09,0,0,0,.08.76l.42.76.27,0A13.12,13.12,0,0,1,93.1,65c-.28-.79-.45-1.59-.6-2.07a4.59,4.59,0,0,1-.32-1.41h0c0-.64.36-.91,1.09-1h.17c.83,0,.76-.68,1.37-.89s.76-.78,1.36-1.06h.26c-.49-.51-1-1-1.5-1.43"/><path class="ct" d="M88.79,62.55h-.07l.09,0,0-.05M89,50a7.18,7.18,0,0,0-.82.06,8.13,8.13,0,0,0-1.35.32.62.62,0,0,0-.37-.13c-.57,0-1.14.83-1.57,1.82a23,23,0,0,1,3.37,1,24.83,24.83,0,0,1,3.48,1.77,24.23,24.23,0,0,1,3.17,2.35c.58-.19,1.14-.34,1.55-.45l.73-.21a6.9,6.9,0,0,0,.14-.87c0-.31.05-.58.05-.58a.48.48,0,0,0,.07-.26c0-.54-.71-1.23-1.54-1.78a10.84,10.84,0,0,0-1.39-.79c-.39-.18-.67-.28-.67-.28a.32.32,0,0,1-.31.18,3.64,3.64,0,0,1-1.51-.7l-.11-.08c-.58-.39-1.12-.81-1.34-1l-.1-.08-.27-.14A3.28,3.28,0,0,0,89,50"/><path class="cu" d="M87.36,63a6.46,6.46,0,0,0-1.68,1l-.19.17.62.48.14.11c.57.32,1.7,1,3,1.53h0a17.82,17.82,0,0,1-1.54-2.57,7.11,7.11,0,0,1-.33-.75"/><path class="cv" d="M88.72,62.56c-.19,0-.43.09-.7.17a4.36,4.36,0,0,0-.66.23,7.11,7.11,0,0,0,.33.75,17.82,17.82,0,0,0,1.54,2.57,18.43,18.43,0,0,0,4.22,1.49l-.09-.12c-.26-.34-.49-.61-.49-.61a17.75,17.75,0,0,1-2.29-1.94,8.36,8.36,0,0,1-1.77-2.5l-.09,0"/><path class="cw" d="M84.56,54.32c0,.08,0,.17,0,.26-.3,1.44-.64,2.77-1.58,2.77a1.32,1.32,0,0,1-.42-.07,1.35,1.35,0,0,0-.69.32,11.67,11.67,0,0,1-.43,1.27c.09.84.71,2.12,2.46,3.86.51.47,1.07,1,1.64,1.42l.19-.17a6.46,6.46,0,0,1,1.68-1c-.13-.37-.23-.74-.32-1.11a7.46,7.46,0,0,1-.13-1.43c0-.22,0-.43,0-.66a1.1,1.1,0,0,0,0-.15,3.11,3.11,0,0,0-.13-.42c-.13-.36-.31-.86-.53-1.45a32,32,0,0,0-1.68-3.42"/><path class="cx" d="M84.91,52.07l0,0v.12c-.09.59-.18,1.36-.32,2.1a32,32,0,0,1,1.68,3.42c.22.59.4,1.09.53,1.45a3.11,3.11,0,0,1,.13.42,1.1,1.1,0,0,1,0,.15h0c0,.23,0,.44,0,.66A7.46,7.46,0,0,0,87,61.85c.09.37.19.74.32,1.11a4.36,4.36,0,0,1,.66-.23c.27-.08.51-.13.7-.17h.07a5.39,5.39,0,0,1-.25-.78,4.09,4.09,0,0,1-.08-.76h0a2.93,2.93,0,0,1,.38-1.46,3.56,3.56,0,0,1,1.68-1.45,3,3,0,0,1,.73-.25l.3-.05a1,1,0,0,0,.49.1,13.55,13.55,0,0,0,2.74-.62l.15-.05a24.23,24.23,0,0,0-3.17-2.35,24.83,24.83,0,0,0-3.48-1.77,23,23,0,0,0-3.37-1"/><path class="cy" d="M85,51.1l-.07.44a.34.34,0,0,0,.1-.25.81.81,0,0,0,0-.19"/><path class="cy" d="M83.16,51.38a.66.66,0,0,1-.18.34c.62.09,1.26.2,1.92.35l.07-.53a.61.61,0,0,1-.43.13l-.33,0a6.25,6.25,0,0,1-1-.26"/><path class="cz" d="M84.26,65.67l-.06.09c.17.37.34.75.49,1.15h0c-.17-.09-.33-.17-.5-.24l.8.59c1,.74,1.71,1.17,1.71,1.17a6.7,6.7,0,0,0,1.63.71,1.46,1.46,0,0,0-.4-.53c-.34-.29-.84-.66-1.5-1.27s-1.49-1.17-2.17-1.67"/><path class="da" d="M85.45,64.18a6.25,6.25,0,0,0-1.19,1.49c.68.5,1.42,1.06,2.17,1.67s1.16,1,1.5,1.27a1.46,1.46,0,0,1,.4.53,21.07,21.07,0,0,0,3.34.63c-.52-.75-1.12-1.6-1.74-2.45l-.7-1h0c-1.26-.58-2.39-1.21-3-1.53l-.4-.24-.4-.32"/><path class="da" d="M93.59,69.51c0,.15-.06.3-.08.45l.27,0c-.06-.16-.12-.32-.19-.48"/><path class="db" d="M94.14,67.8H94a7,7,0,0,0-.27,1.09,6.21,6.21,0,0,0-.14.62c.07.16.13.32.19.48l1.15.12a5.75,5.75,0,0,0,1.32.26c.22,0,.3-.06.3-.16s-.22-.42-.52-.73c-.54-.55-1.38-1.25-1.73-1.55l-.16-.13"/><path class="dc" d="M89.23,66.28l.7,1c.62.85,1.22,1.7,1.74,2.45l.23,0,1.61.16a10.63,10.63,0,0,1,.22-1.07A7,7,0,0,1,94,67.8h-.07a14.84,14.84,0,0,1-4.7-1.53"/><path class="dd" d="M84.2,65.76a6.77,6.77,0,0,0-.33.66,3.92,3.92,0,0,1,.32.25c.17.07.33.15.5.24-.15-.4-.32-.78-.49-1.15"/><path class="de" d="M84.1,65.55l.1.21.06-.09-.16-.12"/><path class="df" d="M82.9,51.78a4.37,4.37,0,0,1-2.1.51l-.77,0c0,.1,0,.21,0,.31A4.05,4.05,0,0,0,80.29,54a7.07,7.07,0,0,1,.49,2.14v.17c-.08.4-.59.74-.67,1.16,0,.23,0,.5,0,.76a9.15,9.15,0,0,0,.05,1.07,4.08,4.08,0,0,0,.14.77,1.2,1.2,0,0,0,.24.57c.09.19.18.37.28.55l.67-.61,1.19,2.78.16.11a13.4,13.4,0,0,1,1.27,2.11l.16.12a6.25,6.25,0,0,1,1.19-1.49c-.62-.51-1.15-1-1.6-1.45-1.75-1.74-2.37-3-2.46-3.86,0-.07,0-.15,0-.21h0a1.66,1.66,0,0,1,0-.24,1.24,1.24,0,0,1,.42-.82,1.35,1.35,0,0,1,.69-.32,1.32,1.32,0,0,0,.42.07c.94,0,1.28-1.33,1.58-2.77,0-.09,0-.18,0-.26-.15-.26-.31-.53-.48-.78-.38-.6-.79-1.19-1.18-1.76"/><path class="db" d="M81.48,60.55l-.67.61a6.79,6.79,0,0,0,1.86,2.17l-1.19-2.78"/><path class="dg" d="M83,51.72l-.08.06c.39.57.8,1.16,1.18,1.76.17.25.33.52.48.78.14-.74.23-1.51.32-2.1v-.15c-.66-.15-1.3-.26-1.92-.35"/><path class="dh" d="M77.7,52.22a1.3,1.3,0,0,0-1.31.94,2.44,2.44,0,0,0-.1.74,3.48,3.48,0,0,0,.06.66c1,1.33,1.1,1.84,1.1,2h0a.12.12,0,0,1,0,.08,2.45,2.45,0,0,0-.12.78c0,1.91,1.89,4.7,4.1,6.83a30.9,30.9,0,0,0,2.46,2.17,6.77,6.77,0,0,1,.33-.66l-.1-.21a13.4,13.4,0,0,0-1.27-2.11l-.16-.11a6.79,6.79,0,0,1-1.86-2.17c-.1-.18-.19-.36-.28-.55a1.2,1.2,0,0,1-.24-.57,4.08,4.08,0,0,1-.14-.77,9.15,9.15,0,0,1-.05-1.07c0-.26,0-.53,0-.76.08-.42.59-.76.67-1.16v-.17A7.07,7.07,0,0,0,80.29,54,4.05,4.05,0,0,1,80,52.64c0-.1,0-.21,0-.31-.82,0-1.47,0-1.47,0a3,3,0,0,0-.86-.15"/><path class="di" d="M103,73.55a2.64,2.64,0,0,0,0,.28s.08,0,.08,0a0,0,0,0,0,0,0c-.09-.09,0-.14-.09-.22"/><path class="dj" d="M100.29,71.83l-.1.15-.19.28a.29.29,0,0,1,.11.19h0c0,.1-.15.15-.41.15l-.42,0h0a11.61,11.61,0,0,1-1.85-.46c.13.46.25.93.34,1.4a11.12,11.12,0,0,0,1.2.06l.86,0,.66,0a7.59,7.59,0,0,1,1.77.21,5.09,5.09,0,0,0,.68.1h0a2.64,2.64,0,0,1,0-.28.7.7,0,0,0-.15-.14c-.68-.43-1.72-1-2.51-1.58"/><path class="dk" d="M83.54,79.92c-.56.24-1.61.53-1.61.81,0,0,0,.1.11.14s0,.38.37.38h0c.16-.13.54-.26.76-.41l.08,0q.15-.44.27-.87"/><path class="dl" d="M88,74.49c.09.36.17.73.23,1.11l.31,0a8.21,8.21,0,0,0-.33-1l0-.06-.19,0"/><path class="dm" d="M83.59,79.9l0,0q-.12.43-.27.87l0,0c.1-.29.19-.58.27-.86"/><path class="dn" d="M85.45,74h0a12.73,12.73,0,0,1-.23,2.08c.2.15.37.31.37.45v0h0c0,.28-.69.56-.69.83a.23.23,0,0,0,.13.2c.17.18.44.35.43.5h0c0,.09-.1.18-.38.26s-.43.15-.59.22a17.28,17.28,0,0,1-.87,2,2.11,2.11,0,0,1,.73-.52c.52-.27,1.2-.5,1.65-.75a1.52,1.52,0,0,0,.46-.46,2.15,2.15,0,0,0,.73-1.4,1.5,1.5,0,0,0,0-.2c-.37-.09-.49-.19-.48-.3h0c0-.16.28-.34.31-.48s.26-.13.41-.21a.23.23,0,0,0,0-.11c0-.07,0-.14,0-.21h0c0-.1.07-.2.44-.25l.38,0c-.06-.38-.14-.75-.23-1.11a8,8,0,0,1-1.33-.37,5.93,5.93,0,0,0-.78-.13l-.42,0"/><path class="do" d="M84.47,78.54l-.15.07c-.09.25-.19.49-.29.73a.49.49,0,0,1-.17.38c-.16.35-.32.69-.5,1a1.21,1.21,0,0,0,.24-.2,17.28,17.28,0,0,0,.87-2m1-4.57h-.09a13.15,13.15,0,0,1-.23,2l.09.07A12.73,12.73,0,0,0,85.43,74"/><path class="dp" d="M83.86,79.72a1,1,0,0,1-.21.16l-.06,0c-.08.28-.17.57-.27.86l0,0c.18-.32.34-.66.5-1m.46-1.11a1.81,1.81,0,0,0-.25.16A.63.63,0,0,0,84,79a2.71,2.71,0,0,0,0,.29h0v0c.1-.24.2-.48.29-.73M84.87,74c-.15,0-.34.3-.44.61a1.21,1.21,0,0,0-.07.35c0,.15,0,.25.18.25l.14,0h0c-.14.07-.2.14-.2.22s.33.4.63.62a13.15,13.15,0,0,0,.23-2A1.38,1.38,0,0,0,85,74a.14.14,0,0,0-.1-.05"/><path class="dq" d="M92.77,74.06l-.75,0c-1.17.07-1.44.82-1.61.82-.7-.13-1.51-.24-2.24-.39l0,.06a8.21,8.21,0,0,1,.33,1c1.31-.13,2.53-.24,3.55-.36.22,0,.51-.08.84-.15,0-.33-.08-.67-.14-1m-3.11-3.85a2.49,2.49,0,0,0,.28.34,16.26,16.26,0,0,0,1.37,1.28c.33.27.66.54,1,.77a7.06,7.06,0,0,0-1.07-1.33,7.18,7.18,0,0,0-1.34-.94l-.21-.12"/><path class="dr" d="M89.71,69.89h-.14s0,0,0,0a.51.51,0,0,0,.13.26l.21.12a7.18,7.18,0,0,1,1.34.94,7.06,7.06,0,0,1,1.07,1.33l.13.1c.08-.12.28-.45.59-1l-.82-1.19c-.22-.07-.46-.15-.71-.25a5.26,5.26,0,0,0-1.76-.36"/><path class="dr" d="M93.38,70.85V71l.06-.13h-.05"/><path class="ds" d="M92.8,74.06h0c.06.33.11.67.14,1h0a8.31,8.31,0,0,0-.15-1"/><path class="dt" d="M93.43,70.86l-.06.13c-.05.34-.09.69-.13,1.06L93,71.69c-.31.56-.51.89-.59,1,.13.11.26.2.38.29a4.94,4.94,0,0,1,.73.56l.77.33h0a3.51,3.51,0,0,1-1.49.18,8.31,8.31,0,0,1,.15,1l1.29-.26c.81-.16,1.57-.28,1.76-.35a.5.5,0,0,0,.19-.07,11.83,11.83,0,0,0-1.44-1.9s-.1-.24-.26-.66c-.07-.21-.16-.47-.27-.76l-.79-.2"/><path class="du" d="M94.22,71.06c.11.29.2.55.27.76.16.42.26.66.26.66a11.83,11.83,0,0,1,1.44,1.9.22.22,0,0,0,.12-.21c0-.09,0-.19,0-.28h0a.22.22,0,0,1,.14-.21h0l.29.1s0-.06,0-.09h0c-.11-.05-.29-.17-.39-.22h0a.5.5,0,0,1,.29,0h.3l.84.09c-.09-.47-.21-.94-.34-1.4l-.69-.21c-.39-.13-.84-.35-1.23-.48s-.88-.26-1.28-.36"/><path class="dv" d="M92.18,70.5,93,71.69l.24.36c0-.37.08-.72.13-1.06v-.14c-.37-.09-.76-.2-1.2-.35"/><path class="dw" d="M79.55,44.87h0V45h0v-.15"/><path class="dx" d="M79.55,44.87V45h0v-.15"/><path class="bg" d="M76.18,47.8a10.44,10.44,0,0,0-1.2.29,4.69,4.69,0,0,0-1,.45h0a4.69,4.69,0,0,1,1-.45c.61-.18,1.2-.29,1.2-.29h0"/><path class="dy" d="M72.06,50.27s0,.08,0,.13a3,3,0,0,0-.17,1h0a3,3,0,0,1,.17-1s0-.09,0-.13"/><path class="dx" d="M76.18,47.8h0"/><path class="dy" d="M71.84,51.35a1.93,1.93,0,0,0,.12.71,2,2,0,0,0,.43.69l0,0h0l0,0a2,2,0,0,1-.43-.69,1.93,1.93,0,0,1-.12-.71"/><path class="dz" d="M72.41,52.78h0l0,0h0l0,0"/><path class="ea" d="M73.07,57.5h0l.25.29.05.06-.3-.35h0"/><path class="dz" d="M71.82,54.89a2.29,2.29,0,0,0,0,.25,2.29,2.29,0,0,1,0-.25"/><path class="dz" d="M71.84,55.14a5.16,5.16,0,0,0,1.23,2.36l.25.29-.25-.29a5.16,5.16,0,0,1-1.23-2.36"/><path class="eb" d="M83.17,81.08l-.16.28.07,0a.56.56,0,0,1,0-.12s0-.09,0-.14"/><path class="ec" d="M83.27,80.79l-.08,0c-.22.15-.6.28-.76.41.09,0,0,.19.15.19h.08a2,2,0,0,0,.35-.07l.16-.28c0-.1.07-.19.1-.29"/><path class="ed" d="M88.52,75.57l-.31,0A16.67,16.67,0,0,1,88.4,79l.46-.25a11,11,0,0,0-.34-3.2"/><path class="ee" d="M83.28,80.88l-.11.2s0,.1,0,.14a.56.56,0,0,0,0,.12l0,0c.06-.15.11-.29.16-.44"/><path class="ef" d="M83.32,80.76l0,0c0,.1-.07.19-.1.29l.11-.2,0-.12"/><path class="eg" d="M88.21,75.6l-.38,0c-.37,0-.44.15-.44.25s0,.14,0,.21h0a.23.23,0,0,1,0,.11c-.15.08-.36.14-.41.21s-.31.32-.31.48.11.21.48.3a1.5,1.5,0,0,1,0,.2h0a2.15,2.15,0,0,1-.73,1.4,1.52,1.52,0,0,1-.46.46c-.45.25-1.13.48-1.65.75a2.11,2.11,0,0,0-.73.52c-.13.27-.27.52-.42.77.15,0,.28-.11.42-.15,1-.47,2.15-.86,3-1.24s1.3-.62,1.83-.89a16.67,16.67,0,0,0-.19-3.42"/><path class="eh" d="M83.6,80.53a1.21,1.21,0,0,1-.24.2l-.08.15c0,.15-.1.29-.16.44l.06,0c.15-.25.29-.5.42-.77"/><path class="ei" d="M83.36,80.73l0,0,0,.12.08-.15"/><path class="ej" d="M92.91,75.06c-.33.07-.62.12-.84.15-1,.12-2.24.23-3.55.36a11,11,0,0,1,.34,3.2l.1-.06a3.58,3.58,0,0,0,1.31-1s0,0,0,0-.42-.21-.61-.32-.22-.22-.22-.33h0v-.11c0-.16,0-.34-.61-.52-.07,0-.09,0-.1-.07h0s.05-.06.11-.09c1-.18,1.85-.33,2.72-.45l1.37-.18,0-.52"/><path class="ek" d="M93,75.06h0l0,.52h0c0-.17,0-.34,0-.51"/><path class="el" d="M96.19,74.38a.5.5,0,0,1-.19.07c-.19.07-1,.19-1.76.35L93,75.06c0,.17,0,.34,0,.51l1.21-.12c.59,0,1.4-.21,2.1-.33l.28-.06c-.12-.23-.25-.46-.39-.68"/><path class="em" d="M96.42,73.68h0a.22.22,0,0,0-.14.21c0,.09,0,.19,0,.28h0a.22.22,0,0,1-.12.21c.14.22.27.45.39.68.59-.1,1.07-.18,1.21-.22a.45.45,0,0,0,.17-.1c0-.11,0-.21,0-.32a1.93,1.93,0,0,0-.46-.3,5.13,5.13,0,0,0-.68-.32l-.36-.12"/><path class="en" d="M97.92,74.42c0,.11,0,.21,0,.32a.16.16,0,0,0,.07-.13.27.27,0,0,0-.11-.19"/><path d="M83.28,38.86c.64-1.6,1.2-3,1.76-4.43a12.16,12.16,0,0,1,.86-2.13,5.62,5.62,0,0,0,.79-4.46A4.35,4.35,0,0,1,87,25.37a26.45,26.45,0,0,1,2.3-4.26A3.39,3.39,0,0,1,91,19.88c1.66-.52,3.26-.09,5.15.9-1,2.53-1.91,4.95-3,7.77l.6,1.5c-2.8,2.05-4.21,4.34-5.32,8.45,5.3,1.24,10.73,2,15.86,3.84a21.52,21.52,0,0,1,13,11.5,28.94,28.94,0,0,1,2,17.52c-.45,2.59-.93,5.18-1.35,7.79-.87,5.4-3.3,10.11-5.71,14.83-1.88,3.68-3.91,7.28-5.76,11a40.6,40.6,0,0,1-8.7,11.61c-2.4,2.26-4.68,4.67-7.05,7a28.81,28.81,0,0,1-8.91,6.25,11.11,11.11,0,0,1-6.28.63,12,12,0,0,0-3.78.12c-7.71,1.17-14.5-.57-20.12-6.8a94.28,94.28,0,0,1-12.84-17.91,18.2,18.2,0,0,1-1.27-2.63c-1.42-4.07-2.92-8.12-4.13-12.25a27.86,27.86,0,0,1-.52-5.52,48.57,48.57,0,0,1,4.59-25.27,29.09,29.09,0,0,1,6.63-8.52A75.75,75.75,0,0,1,66.62,37.15C70.31,35.58,74.06,36,77.81,37,79.51,37.44,81.16,38.13,83.28,38.86Zm34.45,22c-1-4.24-2.55-8.88-6.37-12.2s-7.72-5.56-12.65-5.51a3.76,3.76,0,0,1-1.57-.45c-6.36-3-12.29-2.11-18,1.7A34.44,34.44,0,0,0,68.77,54.71a51.19,51.19,0,0,0-7.24,17.56,113.66,113.66,0,0,0-2.35,16.21,93.67,93.67,0,0,0,.51,17.88,13.44,13.44,0,0,0,1.1,4.26c2.32,4.51,4.64,9,7.31,13.32,2.57,4.11,8.27,6,12.44,4.34a21.47,21.47,0,0,0,5.54-3.21c2.85-2.31,5.55-4.84,8.18-7.43,3.57-3.51,7.21-7,9.61-11.6,2-3.93,4.16-7.81,6.25-11.71,3-5.71,5.64-11.6,6.69-18.19C117.58,71.3,118.4,66.5,117.73,60.91Zm-36-20.52c-5.18-3.11-10.5-2.73-15.5-.85A60,60,0,0,0,47,51.41c-3.46,3.12-6.71,6.37-8.63,11.11A53.59,53.59,0,0,0,34.5,82.17,28.84,28.84,0,0,0,37.21,95.9a13.76,13.76,0,0,1,1,3,29.53,29.53,0,0,0,4.87,10.61c2.91,4.11,6.1,8,9.08,12.07,3.14,4.27,7.58,5.93,12.23,7.18a9.74,9.74,0,0,0,2.09.1c.2-1.23.37-2.26.48-2.92l-6.56-11.3-1.57,6.55-.48-.11c.45-2.72.89-5.44,1.42-8.69-.08-.21-.47-1-.77-1.83a23.88,23.88,0,0,1-.73-2.54C56.31,99.38,57,90.62,58,82c.84-7.14,2.28-14.27,5.28-20.87,2.5-5.49,5.3-10.73,10-14.49C75.9,44.5,78.75,42.57,81.74,40.39ZM93.56,21.26c-1,.44-2.14.53-2.57,1.15a51.58,51.58,0,0,0-3,5.38c1.18-.24,2.24-.13,2.48-.55C91.5,25.45,93.73,24.44,93.56,21.26Zm-4.76,9-1.22,2.92A2.14,2.14,0,0,0,88.8,30.25ZM68.29,127.16l-.54.31c.23.49.46,1,.73,1.44,0,0,.41-.21.63-.32Z"/><path d="M74.73,111.24l1.87-2.47.45.27c-.66,1.6-1.33,3.2-2,4.91-1.36-3-1.21-5.54,1-8.11C76.58,108,74.66,109.09,74.73,111.24Z"/><path d="M107.88,62.45c.61-3.08,1.23-6.17,1.88-9.42.21.28.77.71.72,1C109.93,56.93,109.5,59.9,107.88,62.45Z"/><path d="M109.67,65.1c.65-3,1.3-5.94,1.94-8.88.94,1,1,1-.07,4.48-.44,1.53-.94,3-1.41,4.56Z"/><path d="M106.68,58.09c.37-2.61.73-5.21,1.09-7.74C109.08,51.89,108.87,53.8,106.68,58.09Z"/><path d="M105.62,48.85c1,2.23.62,4.2-1.74,9Z"/><path d="M103.62,47.35c.52,2.67-.69,5-1.85,7.4.24-1.19.54-2.37.69-3.57s.19-2.6.28-3.91Z"/><path d="M99.69,52.74c.31-2.2.63-4.41,1-6.79C101.74,47.68,101.66,48.45,99.69,52.74Z"/><path d="M112.19,74.65l2.64-5.33.59.34A9.18,9.18,0,0,1,112.19,74.65Z"/><path d="M114.56,65.64a9.31,9.31,0,0,1-2.83,6.07c.75-2.09,1.51-4.17,2.26-6.25Z"/><path d="M99.4,46.39l-1.47,5.06c-.63-2,.06-3.72.71-5.41Z"/><path d="M111.2,66.87c.64-1.89,1.27-3.78,2.08-6.18C113.78,63.07,113.53,63.85,111.2,66.87Z"/><path d="M78,113.15l-1.89,4.79C76.18,116.07,75.79,114,78,113.15Z"/><path d="M115.26,74.76c-.82,1.42-1.63,2.85-2.53,4.42C112.63,77.19,113.11,76.14,115.26,74.76Z"/><path d="M79.25,122.64c-.75-1.65-.83-3.2,1-4.24Z"/><path d="M77.39,120.23c.08-1.57-.39-3.23,1.1-4.56L78,120.33Z"/><path d="M75.32,102.85l-1.49,3-.57-.24,1.11-3.22Z"/><path d="M81.66,122.36c.24-1,.47-2,.7-3l.77.19c-.21,1-.42,2-.62,3Z"/><path d="M63.12,50.88c-.85-2.54.68-4,2.71-5.78-.39,2.18-.7,3.88-1.06,5.86l-.65-2.16Z"/><path d="M58.49,111.34Q57.77,115,57,118.66a15,15,0,0,1,.81-7.46Z"/><path d="M67.36,49.37A8.59,8.59,0,0,1,68,43.18l.63.14Q68,46.33,67.36,49.37Z"/><path d="M61.31,118.31c-.25,1.84-.5,3.68-.81,6a7.2,7.2,0,0,1,.13-6.1Z"/><path d="M57.36,107.34c-.5,2.11-1,4.22-1.57,6.68A8.5,8.5,0,0,1,57.36,107.34Z"/><path d="M70.91,42.16l-1.53,4.65a6.69,6.69,0,0,1,.71-4.9Z"/><path d="M54.53,109l.77-4.58.78.16c-.28,1.55-.56,3.1-.85,4.66Z"/><path d="M61.79,125.49c.11-1.3.21-2.61.32-3.92,1.54,1.46.2,2.69.44,4Z"/><path d="M73.54,41.06c-.68,1.55-1.15,2.64-1.63,3.74C71.58,42.14,71.63,42,73.54,41.06Z"/><path d="M75.9,40.7l-1.59,2.78c-.39-1.65-.09-2.58.83-3.24Z"/><path d="M64.87,127.46c-1.48-.85-1.14-1.66-.05-2.46C64.84,125.82,64.86,126.64,64.87,127.46Z"/></svg>