<svg xmlns="http://www.w3.org/2000/svg" viewBox="0 0 150 150"><defs><style>.a{fill:#fde2c1;}.b{fill:#f9ca98;}.c{fill:#f9c18a;}.d{fill:#f5994e;}.e{fill:#f49448;}.f{fill:#f8a158;}.g{fill:#f8b577;}.h{fill:#fcddbc;}.i{fill:#f8b06f;}.j{fill:#ffefe2;}.k{fill:#f8b09e;}.l{fill:#ef895f;}.m{fill:#ea652c;}.n{fill:#ee6e35;}.o{fill:#ef9674;}.p{fill:#ee7a43;}.q{fill:#e1451c;}.r{fill:#ec6c4e;}.s{fill:#e7542e;}.t{fill:#e03f15;}.u{fill:#e2421a;}.v{fill:#ef795d;}.w{fill:#e75e36;}.x{fill:#e1461a;}.y{fill:#e64b1f;}.z{fill:#f4937d;}.aa{fill:#ed7449;}.ab{fill:#eb5a2a;}.ac{fill:#f9cdbe;}.ad{fill:#f1a171;}.ae{fill:#ee7633;}.af{fill:#f17f41;}.ag{fill:#fce8e4;}.ah{fill:#f4b886;}.ai{fill:#f3924d;}.aj{fill:#fbdbb6;}.ak{fill:#f08136;}.al{fill:#ef7e32;}.am{fill:#f9b674;}.an{fill:#f8b36e;}.ao{fill:#fabb7e;}.ap{fill:#facb99;}.aq{fill:#fde9d1;}.ar{fill:#fac893;}.as{fill:#fff5ec;}.at{fill:#fff6c0;}.au{fill:#fff3b5;}.av{fill:#f6983d;}.aw{fill:#fad283;}.ax{fill:#ffe39d;}.ay{fill:#f6a86f;}.az{fill:#ec8f52;}.ba{fill:#f49c60;}.bb{fill:#df4114;}.bc{fill:#e96736;}.bd{fill:#e55021;}.be{fill:#e03e13;}.bf{fill:#ec7341;}.bg{fill:#f48c58;}.bh{fill:#f2834b;}.bi{fill:#f28552;}.bj{fill:#f6ac51;}.bk{fill:#f6ab4d;}.bl{fill:#f7b359;}.bm{fill:#f9cf7f;}.bn{fill:#f7c16c;}.bo{fill:#ffe771;}.bp{fill:#f7b441;}.bq{fill:#f3851f;}.br{fill:#f69126;}.bs{fill:#f69e44;}.bt{fill:#e96121;}.bu{fill:#ec6e28;}.bv{fill:#f9c44f;}.bw{fill:#ed7318;}.bx{fill:#ec7116;}.by{fill:#ffe66b;}.bz{fill:#f6b43e;}.ca{fill:#f4851f;}.cb{fill:#f69025;}.cc{fill:#f69d41;}.cd{fill:#e95f20;}.ce{fill:#ec6c27;}.cf{fill:#f9c44c;}.cg{fill:#f49c2e;}.ch{fill:#ed7417;}.ci{fill:#ec7215;}.cj{fill:#f7b43f;}.ck{fill:#f7b23e;}.cl{fill:#ffe97a;}.cm{fill:#f6a04a;}.cn{fill:#ec6c2c;}.co{fill:#f9c757;}.cp{fill:#f49c33;}.cq{fill:#ed751a;}.cr{fill:#ec7218;}.cs{fill:#f6a334;}.ct{fill:#f7ab3b;}.cu{fill:#f7b748;}.cv{fill:#f7ae49;}.cw{fill:#ffef97;}.cx{fill:#f6a35c;}.cy{fill:#ec7036;}.cz{fill:#f4894a;}.da{fill:#f9cd6a;}.db{fill:#f6a843;}.dc{fill:#f6a841;}.dd{fill:#fff8cf;}.de{fill:#f6c37a;}.df{fill:#f69c47;}.dg{fill:#fad897;}.dh{fill:#ffe8b7;}.di{fill:#ec854c;}.dj{fill:#ec915d;}.dk{fill:#f49f6f;}.dl{fill:#f6ab80;}.dm{fill:#df4317;}.dn{fill:#e9683f;}.do{fill:#e55125;}.dp{fill:#e04016;}.dq{fill:#ec754b;}.dr{fill:#e96338;}.ds{fill:#e96c42;}.dt{fill:#f48e65;}.du{fill:#eb703c;}.dv{fill:#eb7b49;}.dw{fill:#f28656;}.dx{fill:#ffed90;}.dy{fill:#f6c68b;}.dz{fill:#fad9ad;}.ea{fill:#ffeace;}.eb{fill:#f6ac92;}.ec{fill:#ec8557;}.ed{fill:#ec936a;}.ee{fill:#ec7655;}.ef{fill:#e96d4c;}.eg{fill:#f49173;}.eh{fill:#eb7143;}.ei{fill:#eb7d55;}</style></defs><title>icon</title><path class="a" d="M78.06,94.27v0h0v0m0,0h0m0,0h0m-.31-2.47a.84.84,0,0,1,0,.17,3.82,3.82,0,0,1,.22.75h0A3.82,3.82,0,0,0,77.8,92h0a.84.84,0,0,0,0-.17h0m-1-.76h0l0,0h0l0,0m2.05,0h0c-.1.46-.24,1-.4,1.77h0c.16-.72.3-1.31.4-1.77m-1.75,0,.14,0h0l-.14,0h0m0,0h0m0,0h0m2.17-.2h0l0,.05.06,0h0l-.06,0h0l0-.05m0-.12,0,.12,0-.12h0m.31-.07h0l0,0h0l0,0m-.47,0h0l0,0h0a2.18,2.18,0,0,0-.22.39h0a1.8,1.8,0,0,1,.23-.4l0,0"/><path class="b" d="M85.5,54.8s0,.08-.07.12l-.12.2-.46.85-.29.55.52-.93.34-.61.07-.09,0,.15,0,.29a6.68,6.68,0,0,0,2.49,4.41,5.85,5.85,0,0,0,.86.53,8,8,0,0,1-3.33-5l-.08-.38s0-.05,0-.05"/><path class="b" d="M88.48,56.81h0l0,0-.07,0"/><path class="b" d="M101.53,58l-1.38.27a6.14,6.14,0,0,1-1,.1,1.86,1.86,0,0,1-.77-.15l-.08,0a9.77,9.77,0,0,0-1.54.48,8.94,8.94,0,0,1-2.72.48,6.39,6.39,0,0,1-1-.07s.07.11.16.26l.49.78,1.31.12,2,.24h1.65l1.12,0H100a23.52,23.52,0,0,1,2.19,2,16.7,16.7,0,0,1,2,2.46,10.15,10.15,0,0,1,1.92,5.69h0c0,.12,0,.24,0,.36a6.19,6.19,0,0,1,.18.88c.09.57.22,1.36.33,2.3,0,.53.07,1.11.07,1.72h0a21.25,21.25,0,0,1-.56,4.93,14.07,14.07,0,0,1-2.52,5.51,2.54,2.54,0,0,1-1.74,1.11,1.17,1.17,0,0,1-.92-.49s-.69-.89-1.8-2.14a13.36,13.36,0,0,0-5.7-3.32A19,19,0,0,0,88,80.72c-.71,0-1.39,0-2,.07-.84,0-1.57.11-2.19.11-1,0-1.72-.16-2.14-.82a.1.1,0,0,0-.1-.07.28.28,0,0,0-.17.08,4.59,4.59,0,0,0-1,2.18h0l-.05.07,0,0,0,.16c0,.1-.08.23-.12.36-.17.52-.38,1.14-.57,1.6s-.36.77-.5.77-.26-.32-.36-1.13a1.36,1.36,0,0,0-.64-.62,1.48,1.48,0,0,0-.63-.12,3.26,3.26,0,0,0-1.45.39A3.62,3.62,0,0,0,74.56,85a2.92,2.92,0,0,0-1.11-.21h-.1a2.65,2.65,0,0,0-1.09.24h0s.07,0,.07-.06h0l-.35.21h0l-.65.55c-.51.44-.81.66-.81.66h0a7.67,7.67,0,0,1,.94-.85,6,6,0,0,1,.52-.36l.27-.23.07-.06h0l0,0-.08,0,0,0,.12-.14.24-.31.13-.17-.11.11-.3.29-.15.14.11,0-.18.13-1.41,1c-.48.31-1,.6-1.42.88s-.95.54-1.41.77c.41,1.2.88,2.41,1.42,3.69,0,.07.09.11.14.11s.08,0,.11-.11c.44-1.09,1-.35,1.46-.93.17-.2.3-.64.49-.64h0c1,.3,2.14,1.44,3.42,3l1.32-1h0a1.49,1.49,0,0,1,.43-.58h0a.43.43,0,0,1,.31-.14.45.45,0,0,1,.18,0,.64.64,0,0,1,.28.21h0a1.49,1.49,0,0,1,.28.51.36.36,0,0,1,0,.11,4.66,4.66,0,0,1,.34,1.45.37.37,0,0,1,0,.11h0v.07h0v0h0c0,.24,0,.49,0,.75,0,0,0,.05,0,.07a.39.39,0,0,1,0-.1h0c0-.2.11-.56.25-1.23l0-.13c.09-.44.22-1,.4-1.77v0h0l0-.1c.1-.24.17-.31.23-.32l.1-.07.07.12v.05l0,0h0c.13,0,.34-.23,1-1.08a9.45,9.45,0,0,1,1.29-1.39q.16-.18.36-.36h0q-.19.18-.36.36a6.69,6.69,0,0,1,2.34-1.39,4.11,4.11,0,0,1,1.31-.23,2.39,2.39,0,0,1,2,.93,3,3,0,0,1,.65,2h0a5.12,5.12,0,0,1-.43,2A5.81,5.81,0,0,1,85.84,93a11.16,11.16,0,0,1-2.11,1.17c-.68.27-.91.5-.91.79,0,0,0,.09,0,.13a4.66,4.66,0,0,0,.71,1.27,5.66,5.66,0,0,1,1.22,2.87,8.5,8.5,0,0,1,.08,1.14h0a7.92,7.92,0,0,1-.37,2.4c-.44.71-1.33.63-2,1-.8.57-1.5,1.2-2.29,1.83a11.17,11.17,0,0,1-1.29.87,6.24,6.24,0,0,1-1.48.65l-.34,0-.44,0a1.83,1.83,0,0,1-.33,0h-2c-.92-.07-1.73,0-2.39-.12s-1.23-.08-1.68-.09-.62,0-.85,0H69.1a2.07,2.07,0,0,0-1.08.24s0,0-.07,0c-.94-.43-.83-1.69-1.64-2.55a5.34,5.34,0,0,1-2.46,1.68c-.52-.07-.87-.69-1.33-.69h-.09a13.64,13.64,0,0,0-1.39.85,15.15,15.15,0,0,1,4.44,5.53,12.71,12.71,0,0,1,.69,1.8,8.58,8.58,0,0,0,.83.35,7.88,7.88,0,0,0,2.15.46c.35,0,.7.06,1,.07h1a8.79,8.79,0,0,1,3.75.53c-.17-.08-.24-.15-.24-.19h0s.12-.08.33-.08l.44,0h0c.69,0,1.86.17,3,.22a27.92,27.92,0,0,1,3.78.26h0s-.07.06-.22.1h0a2,2,0,0,1,1.13.77c0,.18.12.43.12.61h0a.22.22,0,0,1-.08.18c-1.62,1.13-1.28,2.68-1.84,4a3.85,3.85,0,0,0,.75,0,29.74,29.74,0,0,0,3.69-.26,47.11,47.11,0,0,0,6.48-1.52,10.83,10.83,0,0,0,6.81-3.53c.45-.74.22-1.53.61-2.28a26,26,0,0,0,1.7-4.49,50.85,50.85,0,0,0,1.76-8.21,64.66,64.66,0,0,0,.5-7.6v-1.4h0v-.25h0a10.45,10.45,0,0,1,.14-2.41c.53-1.24,1.48-3,2.12-3H106c1.88-.16,2.76-2.91,4.14-4.46a.59.59,0,0,1,.4-.12l.26,0,.26,0a.58.58,0,0,0,.4-.13,7.94,7.94,0,0,0,1.88-4.73,5.65,5.65,0,0,0,0-.59,17.16,17.16,0,0,0-1-5.12,16,16,0,0,0-1-2.3c-.19-.36-.38-.7-.58-1s-.43-.62-.64-.9a52.46,52.46,0,0,0-3.2-5,34.76,34.76,0,0,0-4-3l-.76-.52-.33-.2-.15-.1-.18,0"/><path class="b" d="M94.18,60.74l.54.9.5.17c-.31-.35-.66-.71-1-1.07"/><path class="b" d="M82.75,69.38l0,.05-.06.14-.26.53,0,0c.06-.09.13-.19.19-.3l.14-.19c0,.1,0,.21,0,.32a2.69,2.69,0,0,0,.75,1.76l-.08-.17a7.73,7.73,0,0,1-.61-1.9l0-.22v-.05"/><path class="b" d="M94,70.66h-.15a31.85,31.85,0,0,0-4.15,1.13l4-.82s.18-.13.42-.31H94"/><path class="b" d="M35.34,73.64l-.09.16a9.22,9.22,0,0,0,.38,1.85,9.82,9.82,0,0,0,.39,1l.06-.06c-.13-.28-.24-.57-.34-.85a8.42,8.42,0,0,1-.4-2.07"/><path class="b" d="M79.13,90.45l-.1.07h0s.1.06.15.1v-.05l-.07-.12"/><path class="b" d="M78.77,90.94h0v0"/><path class="c" d="M78.77,90.94h0v0h0v0h0"/><path class="b" d="M77.15,91l.1.07.21.25a2.58,2.58,0,0,1,.29.51.36.36,0,0,0,0-.11,1.4,1.4,0,0,0-.28-.51h0a.64.64,0,0,0-.28-.21"/><path class="b" d="M76.66,91.06a1.49,1.49,0,0,0-.43.58h0l-1.32,1,.1.12c.4-.3.79-.61,1.18-.93l.51-.41-.32.18v-.07l.07-.19a1.31,1.31,0,0,1,.2-.3"/><path class="b" d="M78.36,92.75l0,.13c-.14.67-.21,1-.25,1.22h0L78.31,93a2,2,0,0,1,0-.24"/><path class="c" d="M78.36,92.75l0,.13h0l0,.08c-.13.61-.19,1-.23,1.14h0c0-.19.11-.55.25-1.22l0-.13h0"/><path class="b" d="M78.11,93.38v0h0v0c0,.23,0,.56,0,.75,0-.26,0-.51,0-.75h0"/><path class="b" d="M78.06,94.2v0h0v0"/><path class="b" d="M78.06,94.23h0"/><path class="d" d="M85.77,53.39l-.08.1-.33.43-.67.91-1.37,1.84L81,59.79a53.62,53.62,0,0,1-4,4.89,13.23,13.23,0,0,1-4.13,3,29.45,29.45,0,0,1-2.63,2.6c-1.76,1.38-3.34,2.81-5.09,4.09a14.52,14.52,0,0,1-4,2.06,32.25,32.25,0,0,1-4.33,1.23,17.49,17.49,0,0,1-2,.3l-.92,0A8.89,8.89,0,0,1,52.58,78a18.42,18.42,0,0,1-3.21-1.14,19.73,19.73,0,0,1-2.91-1.6c-.42-.29-.85-.6-1.28-.94a3,3,0,0,0-1.06-.4c-.37,0-.85-.65-1.16-.91a6.58,6.58,0,0,1-.73-1.67c-.22-.62-.38-1.26-.54-1.88s-.26-1-.41-1.55h-.07c.14.49.26,1,.39,1.5s.32,1.27.54,1.89a7.08,7.08,0,0,0,.73,1.68c.32.26.79.9,1.16.92a3.07,3.07,0,0,1,1.07.41c.44.36.89.69,1.33,1a20,20,0,0,0,2.89,1.6A19,19,0,0,0,52.5,78a10.15,10.15,0,0,0,1.32.08h.85a17.18,17.18,0,0,0,2-.3,32.34,32.34,0,0,0,4.35-1.22,14.23,14.23,0,0,0,4-2c1.69-1.22,3.31-2.65,5.06-4a28.6,28.6,0,0,0,2.71-2.67,13.14,13.14,0,0,0,4.08-3.06,52.7,52.7,0,0,0,4-4.86c.55-.74,1.41-1.88,2.39-3.17l1.38-1.87.68-.92.33-.44.08-.1,0,.11.08.22a5.4,5.4,0,0,0,2.55,3.06l0,0a5.49,5.49,0,0,1-2.6-3.09l-.08-.22,0-.11"/><path class="d" d="M88.55,56.84c1.12.44,2.71,1.8,4.47,2.18l.1,0h0c-1.79-.38-3.44-1.79-4.57-2.19"/><path class="e" d="M85.76,53.4l-.08.1-.33.44-.68.92-1.38,1.87c-1,1.29-1.84,2.43-2.39,3.17a52.7,52.7,0,0,1-4,4.86,13.14,13.14,0,0,1-4.08,3.06,28.6,28.6,0,0,1-2.71,2.67c-1.75,1.37-3.37,2.8-5.06,4a14.23,14.23,0,0,1-4,2,32.34,32.34,0,0,1-4.35,1.22,17.18,17.18,0,0,1-2,.3h-.85A10.15,10.15,0,0,1,52.5,78a19,19,0,0,1-3.18-1.15,20,20,0,0,1-2.89-1.6c-.44-.3-.89-.63-1.33-1A3.07,3.07,0,0,0,44,73.86c-.37,0-.84-.66-1.16-.92a7.08,7.08,0,0,1-.73-1.68c-.22-.62-.38-1.26-.54-1.89s-.25-1-.39-1.5h-.45c-.18.2-.37.39-.58.59a11.29,11.29,0,0,0-1.82,2.2,6.38,6.38,0,0,1,.62.76s.64.67,1.44,1.37,1.77,1.42,2.41,1.9l.63.7a15.94,15.94,0,0,0,1.87,1.66,14.93,14.93,0,0,0,5.39,2.51,17.71,17.71,0,0,0,3.45.49l1,0c.86,0,1.73-.07,2.6-.15.56-.06,1.11-.15,1.65-.24.17-.17.33-.33.48-.46l-.28-.16h0c.62-.75,1.31-1.75,1.82-2.39a.37.37,0,0,1,.31-.14h.09a.38.38,0,0,0,.17,0h0c.19,0,.19.53.21.88h0c0,.14,0,.27,0,.4a5.2,5.2,0,0,0,.14,1.2c2.43-.7,4.18-1.5,4.71-1.5h0a4.14,4.14,0,0,0,.57-.28c.35-.2.88-.48,1.5-.87a28.75,28.75,0,0,0,4.63-3.6,37.87,37.87,0,0,0,6.2-8.1l3-5.24,1.41-2.57.17-.31.29-.55.46-.85.12-.2s0-.12.07-.12,0,0,0,.05l.08.38a8,8,0,0,0,3.33,5,6.27,6.27,0,0,0,2.79.63c.26,0,.53,0,.79,0l2.12.75.1,0-.54-.9c-.25-.23-.51-.46-.79-.69h0l.38,0-.49-.78c-.09-.15-.14-.24-.16-.26L93,59c-1.76-.38-3.35-1.74-4.47-2.18l0,0h0l0,0a5.4,5.4,0,0,1-2.55-3.06l-.08-.22,0-.11"/><path class="e" d="M37.07,71.89l-.22.13a5.33,5.33,0,0,0-1.51,1.62,8.42,8.42,0,0,0,.4,2.07c.1.28.21.57.34.85a17.34,17.34,0,0,1,1.53-1.36,13.73,13.73,0,0,1-.42-1.89,12.94,12.94,0,0,1-.12-1.42"/><path class="f" d="M85.49,54.89l-.07.09-.34.61-.52.93-.17.31L83,59.4l-3,5.24a37.87,37.87,0,0,1-6.2,8.1,28.75,28.75,0,0,1-4.63,3.6c-.62.39-1.15.67-1.5.87a4.14,4.14,0,0,1-.57.28h0c-.53,0-2.28.8-4.71,1.5a12.6,12.6,0,0,1,.87,4.08c.05.34.1.53.21.61.07-.1.24-.28.3-.38h.17a3.55,3.55,0,0,1,.41-.75c.21-.3.45-.53.73-.53a.7.7,0,0,1,.51.26c.11.17.43.8.79,1.51a15.28,15.28,0,0,1,.94,2.12c.17.54.35,1.08.54,1.61.46-.23.93-.49,1.41-.77s.94-.57,1.42-.88l1.41-1,.18-.13-.11,0,.15-.14.3-.29.11-.11c.69-.88,1.62-2.17,2.64-3.74,2.53-3.8,5.47-9.86,6.14-9.86.08,0,.13.08.14.26a.73.73,0,0,0,.31-.22,3.27,3.27,0,0,0,.39-.48l.06-.09,0,0,.26-.53.06-.14,0-.05v.05l0,.22a7.73,7.73,0,0,0,.61,1.9l.08.17a2.51,2.51,0,0,0,1.6.63,4.45,4.45,0,0,0,.53,0,22.9,22.9,0,0,0,4-.59,31.85,31.85,0,0,1,4.15-1.13h.23a7.87,7.87,0,0,0,2.23-2.57,6.7,6.7,0,0,0,.62-1.74A6.36,6.36,0,0,0,97,65.16a2.42,2.42,0,0,0-.16-.88,4.24,4.24,0,0,0-.49-.94c-.22-.31-.5-.62-.75-1l-.42-.52-.5-.17-.1,0-2.12-.75c-.26,0-.53,0-.79,0a6.27,6.27,0,0,1-2.79-.63,5.85,5.85,0,0,1-.86-.53,6.68,6.68,0,0,1-2.49-4.41l0-.29,0-.15"/><path class="f" d="M38.36,70.67a5,5,0,0,1-1.29,1.22,12.94,12.94,0,0,0,.12,1.42,13.73,13.73,0,0,0,.42,1.89,20.25,20.25,0,0,1,1.77-1.27,1.6,1.6,0,0,1,.71-.23h.18a.65.65,0,0,1,.43.11.71.71,0,0,1,.19.53h0c0,.59-.39,1.4-.39,2.06v.09c.13.06.2.28.4.28H41l.17,0a.84.84,0,0,1,.37.1,5.17,5.17,0,0,1,.89,2.71c.44.91,1.11,1.27,1.62,2.14s1.4,1,1.48,2.24a1.92,1.92,0,0,0,.93,1.43h0a3.24,3.24,0,0,1-.13-.41h0c.95,0,2.24-.26,3-.34.37,0,.4.27.63.36a.24.24,0,0,1,.1.21,1.11,1.11,0,0,1-.09.37,7.61,7.61,0,0,0,3.77-.74c.75-.62,1-.13,1.7-.65h0a9.94,9.94,0,0,0,1.49-1.75c.44-.61.75-1.1.78-1.1h0s0,.06.05.06.45-.48,1-1c.22-.24.42-.46.62-.65-.54.09-1.09.18-1.65.24-.87.08-1.74.15-2.6.15l-1,0a17.71,17.71,0,0,1-3.45-.49,14.93,14.93,0,0,1-5.39-2.51,15.94,15.94,0,0,1-1.87-1.66l-.63-.7c-.64-.48-1.63-1.22-2.41-1.9S39,71.43,39,71.43a6.38,6.38,0,0,0-.62-.76"/><path class="g" d="M93.39,60.05c.28.23.54.46.79.69s.73.72,1,1.07l.42.52c.25.39.53.7.75,1a4.24,4.24,0,0,1,.49.94,2.42,2.42,0,0,1,.16.88h0a6.36,6.36,0,0,1-.14,1.19,6.7,6.7,0,0,1-.62,1.74A8.38,8.38,0,0,1,93.63,71l-4,.82a22.9,22.9,0,0,1-4,.59,4.45,4.45,0,0,1-.53,0,2.51,2.51,0,0,1-1.6-.63A2.69,2.69,0,0,1,82.75,70c0-.11,0-.22,0-.32l-.14.19c-.06.11-.13.21-.19.3l-.06.09a3.27,3.27,0,0,1-.39.48.73.73,0,0,1-.31.22c0-.18-.06-.26-.14-.26-.67,0-3.61,6.06-6.14,9.86-1,1.57-2,2.86-2.64,3.74l-.13.17-.24.31-.12.14,0,0,.08,0,0,0h0l-.07.06-.27.23h0l.35-.21h0s0,0-.07.06a2.65,2.65,0,0,1,1.09-.24h.1a2.92,2.92,0,0,1,1.11.21A3.62,3.62,0,0,1,76,83.79a3.26,3.26,0,0,1,1.45-.39,1.48,1.48,0,0,1,.63.12,1.36,1.36,0,0,1,.64.62c.1.81.22,1.13.36,1.13s.31-.3.5-.77.4-1.08.57-1.6c0-.13.08-.26.12-.36l0-.16,0,0,.05-.07h0a4.59,4.59,0,0,1,1-2.18.28.28,0,0,1,.17-.08.1.1,0,0,1,.1.07c.42.66,1.14.82,2.14.82.62,0,1.35-.06,2.19-.11.62,0,1.3-.07,2-.07a19,19,0,0,1,5.49.72,13.36,13.36,0,0,1,5.7,3.32c1.11,1.25,1.8,2.14,1.8,2.14a1.17,1.17,0,0,0,.92.49,2.54,2.54,0,0,0,1.74-1.11,14.07,14.07,0,0,0,2.52-5.51,21.25,21.25,0,0,0,.56-4.93c0-.61,0-1.19-.07-1.72-.11-.94-.24-1.73-.33-2.3a6.19,6.19,0,0,0-.18-.88h0c0-.12,0-.24,0-.36a10.15,10.15,0,0,0-1.92-5.69,16.7,16.7,0,0,0-2-2.46,23.52,23.52,0,0,0-2.19-2h-.15l-1.12,0H97.07l-2-.24c-1.07-.11-1.69-.15-1.69-.15"/><path class="g" d="M72,85.16a6,6,0,0,0-.52.36,7.67,7.67,0,0,0-.94.85s.3-.22.81-.66l.65-.55"/><path class="h" d="M105.05,59.15c.64.86,1.26,1.72,1.88,2.59a52.46,52.46,0,0,1,3.2,5c.21.28.43.58.64.9s.39.67.58,1a16,16,0,0,1,1,2.3,17.16,17.16,0,0,1,1,5.12,5.65,5.65,0,0,1,0,.59h0a7.94,7.94,0,0,1-1.88,4.73.58.58,0,0,1-.4.13l-.26,0-.26,0a.59.59,0,0,0-.4.12c-1.38,1.55-2.26,4.3-4.14,4.46H106c-.64,0-1.59,1.79-2.12,3a10.45,10.45,0,0,0-.14,2.41v.23h0v0h0v1.38a64.66,64.66,0,0,1-.5,7.6,50.85,50.85,0,0,1-1.76,8.21,26,26,0,0,1-1.7,4.49c-.39.75-.16,1.54-.61,2.28a10.83,10.83,0,0,1-6.81,3.53,47.11,47.11,0,0,1-6.48,1.52,29.74,29.74,0,0,1-3.69.26,3.85,3.85,0,0,1-.75,0h0c.56-1.34.22-2.89,1.84-4a.22.22,0,0,0,.08-.18c0-.18-.12-.43-.12-.61a2,2,0,0,0-1.13-.77h0c.15,0,.22-.07.22-.1a27.92,27.92,0,0,0-3.78-.26c-1.12,0-2.29-.22-3-.22h0l-.44,0c-.21,0-.33,0-.33.08s.07.11.24.19h0a8.79,8.79,0,0,0-3.75-.53h-1c-.35,0-.7,0-1-.07a7.88,7.88,0,0,1-2.15-.46,8.58,8.58,0,0,1-.83-.35c.19.56.37,1.15.57,1.71a5.1,5.1,0,0,0,.65.28,14.83,14.83,0,0,1,1.45.88,13.45,13.45,0,0,0,2.26.59A4.37,4.37,0,0,1,73,118a17.42,17.42,0,0,0,3.13,2.66,19.94,19.94,0,0,0,4.58,2,18.59,18.59,0,0,0,5.63.77,21.21,21.21,0,0,0,3.4-.27A19,19,0,0,0,95,121.51a17.54,17.54,0,0,0,3.32-2.09,18.23,18.23,0,0,0,4.28-5.17c1.16-2,2.18-4,3.3-6l0,0s.08.16.09.48c.23-.48.45-1,.67-1.47,0-.35.35-1.58.36-1.93a17.72,17.72,0,0,1,1.69-2.79c2.58-2.84,4.77-7.81,6.07-13a60.75,60.75,0,0,0,1.53-14.76,24,24,0,0,0-.41-3.19,14,14,0,0,0-1.22-3.43c-.5-.77-1-1.69-1.48-2.57a15.07,15.07,0,0,0-1.61-2.22,39.66,39.66,0,0,0-6.6-4.2"/><path class="i" d="M81.92,87.82q-.19.18-.36.36a26,26,0,0,0-1.85,2.11,25.32,25.32,0,0,1,2.21-2.47"/><polyline class="i" points="79.7 90.3 79.7 90.31 79.7 90.3"/><path class="a" d="M78.07,94.13v.1h0v-.1h0m1-3.61h0l0,0a1.8,1.8,0,0,0-.23.4h0a1.88,1.88,0,0,1,.22-.39h0l0,0"/><path class="c" d="M78.36,92.75h0l0,.13c-.14.67-.21,1-.25,1.23h0c0-.19.1-.53.23-1.15l0-.08h0l0-.13h0m.41-1.81h0v0h0v0h0m.36-.49-.1.07h0l.1-.07.07.12-.07-.12"/><path class="i" d="M78.31,93c-.13.62-.19,1-.23,1.15a.93.93,0,0,0,0,.14h0v0h0v-.09c0-.26,0-.51,0-.75,0,.24,0,.49,0,.75v.1h0v0a.18.18,0,0,0,0,.06h0a.18.18,0,0,1,0-.06h0s0-.08,0-.15.1-.53.23-1.14m.46-2h0c-.1.46-.24,1-.4,1.77l0,.13,0-.13c.16-.72.3-1.31.4-1.77h0m.22-.42a1.88,1.88,0,0,0-.22.39h0a2.18,2.18,0,0,1,.22-.39"/><path class="i" d="M79.48,90.57a.8.8,0,0,1-.2.19.8.8,0,0,0,.2-.19"/><path class="i" d="M79.28,90.76l-.06,0,.06,0"/><path class="i" d="M77,90.94l.14,0a.64.64,0,0,1,.28.21.64.64,0,0,0-.28-.21l-.14,0"/><path class="i" d="M77,90.94a.55.55,0,0,0-.28.09.58.58,0,0,1,.28-.09"/><path class="i" d="M76.71,91l0,0a1.49,1.49,0,0,0-.43.58,1.49,1.49,0,0,1,.43-.58l0,0"/><path class="i" d="M77.43,91.17a1.4,1.4,0,0,1,.28.51,1.49,1.49,0,0,0-.28-.51"/><path class="i" d="M77.71,91.68a1.15,1.15,0,0,1,.09.28.84.84,0,0,0,0-.17.36.36,0,0,0,0-.11"/><path class="i" d="M78,92.72a6.53,6.53,0,0,1,.08.7v0c0-.1,0-.4-.08-.66"/><path class="j" d="M106,108.26l0,0c-1.12,2-2.14,4-3.3,6a18.23,18.23,0,0,1-4.28,5.17A17.54,17.54,0,0,1,95,121.51a19,19,0,0,1-5.34,1.69,21.21,21.21,0,0,1-3.4.27,18.59,18.59,0,0,1-5.63-.77,19.94,19.94,0,0,1-4.58-2A17.42,17.42,0,0,1,73,118a4.37,4.37,0,0,0-1.85-.83,13.45,13.45,0,0,1-2.26-.59,14.83,14.83,0,0,0-1.45-.88,5.1,5.1,0,0,1-.65-.28,1.8,1.8,0,0,1,.08.21,4.58,4.58,0,0,1,.13.74.8.8,0,0,1-.06.3.12.12,0,0,1-.13.12.68.68,0,0,1-.21-.06,1,1,0,0,0-.24,0h0a.28.28,0,0,1-.26.13,1,1,0,0,1-.28,0c0,.08,0,.16,0,.24h0a3.09,3.09,0,0,0-.39-.33H65a.86.86,0,0,1-.78-.56,4.08,4.08,0,0,0-1.05-.13,6.16,6.16,0,0,0-1.26.14c.66.29,1.34.61,2,.9a8.76,8.76,0,0,0,3.22.79,4.26,4.26,0,0,0,.61,0h.12a2.12,2.12,0,0,1,1.06.39c.78.7,1.61,1.35,2.45,2s1.75,1.2,2.67,1.79c.46.31.94.54,1.43.81s1.2.54,1.82.79c1.19.48,2.43.84,3.76,1.27a17.15,17.15,0,0,0,5.1.66,22,22,0,0,0,4.48-.45,21.45,21.45,0,0,0,5.27-1.82,21,21,0,0,0,3.09-1.9,20.69,20.69,0,0,0,6.56-9.9,9.82,9.82,0,0,0,.46-2.61c0-.38,0-.56-.09-.56"/><path class="k" d="M36,76.62c-.35.35-.68.71-1,1.06l0,.06c.3-.36.62-.72,1-1.08v0"/><path class="l" d="M36.08,76.56l-.06.06v0l.07-.06,0,0"/><path class="m" d="M37.61,75.2a17.34,17.34,0,0,0-1.53,1.36l0,0a17.16,17.16,0,0,1,1.52-1.36v0"/><path class="n" d="M40.09,73.7a1.6,1.6,0,0,0-.71.23,20.25,20.25,0,0,0-1.77,1.27v0c.55-.44,1.15-.88,1.82-1.32a1.48,1.48,0,0,1,.65-.22"/><path class="k" d="M72.64,94.51a31,31,0,0,1-6.4,3.4,10.86,10.86,0,0,1-3.64.66,8.75,8.75,0,0,1-4.2-1.06c-.25-.13-.48-.27-.71-.42s-.49-.29-.73-.44a10.79,10.79,0,0,1-1.28-1h0c-.55.59-1.2,1.23-1.93,1.87a10.12,10.12,0,0,1,.47,1.55c.08.47.17.93.26,1.39.22.16.44.31.67.45a14.8,14.8,0,0,0,6.35,2,9.33,9.33,0,0,1,1.13.13,10.78,10.78,0,0,1,1.21.24,8,8,0,0,1,2.33,1l.15.15a7.6,7.6,0,0,1,1-.86,6.12,6.12,0,0,0,3.18-1.78,1.93,1.93,0,0,0,.31-.65l0,0h0c.37,0,.6,1.33,1.11,1.55h.13c.63,0,1.17-.75,1.47-1.56.79-1.8,1.52-3.63,2.58-4-.31-.35-.62-1-.89-1.34a.9.9,0,0,0-.69-.31,2.43,2.43,0,0,0-.38,0,2.33,2.33,0,0,1-.38,0,.86.86,0,0,1-.22,0,2.79,2.79,0,0,1-.73-.91.89.89,0,0,0-.19-.27"/><path class="l" d="M65.55,88.56a11.43,11.43,0,0,1-3.63.89,1.33,1.33,0,0,1-.6-.1l-.19,0a5,5,0,0,1-1.72,1s-.08,0-.1,0a2.34,2.34,0,0,1-.09-.72l-.56,0a6.38,6.38,0,0,1-.94,3.53s-.49.67-1.34,1.66c-.22.24-.45.51-.71.78h0a10.79,10.79,0,0,0,1.28,1c.24.15.48.3.73.44s.46.29.71.42a8.75,8.75,0,0,0,4.2,1.06,10.86,10.86,0,0,0,3.64-.66,31,31,0,0,0,6.4-3.4.3.3,0,0,0-.11-.06l-1,.72h0l1-.72a.18.18,0,0,0-.1,0c-.24,0-.49.29-.75.48a.42.42,0,0,1-.32.15,1.29,1.29,0,0,1-.63-.3,1.25,1.25,0,0,0-.63-.3H70c-.58,0-1.11,1.16-1.63,1.16a.45.45,0,0,1-.34-.19.35.35,0,0,1,.06.16h0c0,.13-.18.18-.42.18-.55,0-1.44-.26-1.44-.47h0s0-.06.06-.09a2.21,2.21,0,0,1-.16-.9h0a4.3,4.3,0,0,1,.09-.78A15.74,15.74,0,0,0,67,89.74c0-.13-1-.37-1.42-1.18"/><path class="l" d="M54.47,100.47c.3,1.5.66,3,1.08,4.62l.64.64,0,.07a1.73,1.73,0,0,1,.68-.14,2.88,2.88,0,0,1,1.09.28,2.86,2.86,0,0,0,1,.27h.22c.32,0,.68-.2,1-.2a.63.63,0,0,1,.33.09l.44.29a13.64,13.64,0,0,1,1.39-.85h.09c.46,0,.81.62,1.33.69a5.34,5.34,0,0,0,2.46-1.68l-.15-.15a8,8,0,0,0-2.33-1,10.78,10.78,0,0,0-1.21-.24,9.33,9.33,0,0,0-1.13-.13,14.8,14.8,0,0,1-6.35-2c-.23-.14-.45-.29-.67-.45"/><path class="m" d="M59.88,79.24c-.15.13-.31.29-.48.46l1-.19-.47-.27"/><path class="n" d="M60.65,79.45a.52.52,0,0,0-.25.08l0,0-1,.19c-.2.19-.4.41-.62.65-.56.55-.89,1-1,1s0,0-.05-.06h0s-.34.49-.78,1.1a9.94,9.94,0,0,1-1.49,1.75s-.08.28-.17.71a18.93,18.93,0,0,1,1.87-1.59,1.88,1.88,0,0,1,.9-.41c.27,0,.43.21.43.79h0a5.8,5.8,0,0,1-.09,1s0,.36.09.93.12,1.4.17,2.28c0,.39,0,.79,0,1.2h0c0,.21,0,.41,0,.62l.56,0v0h0a3.32,3.32,0,0,1,.2-1.2,32.34,32.34,0,0,0,.87-4.13c.11-.4.34-.84.45-1.24a14.4,14.4,0,0,0,.43-2.45,1,1,0,0,0,0-.2c-.07-.6-.23-.94-.5-.94"/><path class="n" d="M64.61,85.82c-.12.06-.27.69-.4.76s-1.14,1.14-2.32,2.16c-.25.23-.51.44-.76.64l.19,0a1.33,1.33,0,0,0,.6.1,11.43,11.43,0,0,0,3.63-.89,1.84,1.84,0,0,1-.18-.45c-.24-1-.38-2-.76-2.29"/><path class="o" d="M55.55,105.09c0,.18.09.37.14.55a.39.39,0,0,0,.32.23.31.31,0,0,0,.13,0l.09,0,0-.07-.64-.64"/><path class="p" d="M72.53,94.45l-1,.72,1-.72h0"/><path class="n" d="M55.2,85.32c0,.17-.06.36-.09.56l.14-.07a2.46,2.46,0,0,0,0-.49"/><path class="k" d="M49,89.7a.76.76,0,0,1,0,.15l.14,0L49,89.7"/><path class="l" d="M50.51,89.08c-.49.19-1,.37-1.49.54v.08l.13.12a6.54,6.54,0,0,0,1.75-.64l-.39-.1"/><path class="n" d="M52.13,88.41c-.53.24-1.07.46-1.62.67l.39.1a9.47,9.47,0,0,0,1.23-.77"/><path class="k" d="M52.56,93.14l-.13.15-.34.36.06.06.16-.16.25-.41"/><path class="k" d="M77.05,97.22a.9.9,0,0,0-.21.08,1.37,1.37,0,0,1,.31.13l-.1-.21"/><path class="q" d="M40.27,73.69h-.06a.66.66,0,0,1,.42.11.7.7,0,0,1,.2.54h0c0,.59-.39,1.4-.39,2.06v.09c.13.06.19.28.4.28h0l.16,0a.85.85,0,0,1,.38.1,5.18,5.18,0,0,1,.89,2.72c.44.91,1.11,1.27,1.62,2.14s1.4,1,1.48,2.25a2,2,0,0,0,.86,1.38l.13,0a1.92,1.92,0,0,1-.93-1.43c-.08-1.25-1.09-1.31-1.48-2.24s-1.18-1.23-1.62-2.14a5.17,5.17,0,0,0-.89-2.71.84.84,0,0,0-.37-.1l-.17,0H40.9c-.2,0-.27-.22-.4-.28v-.09h0c0-.66.39-1.47.39-2.06a.71.71,0,0,0-.19-.53.65.65,0,0,0-.43-.11"/><path class="q" d="M55.45,84.16c-.68.52-1,0-1.7.65a7.61,7.61,0,0,1-3.77.74l0,0a7.57,7.57,0,0,0,3.74-.73c.76-.63,1-.13,1.7-.65l.05,0h0"/><path class="r" d="M36,76.66c-.35.36-.67.72-1,1.08v.06c0,.18.08.4.13.64s.12.44.18.69a10.67,10.67,0,0,1,.45-1,5.22,5.22,0,0,1,.52-.84c-.11-.22-.22-.43-.32-.65"/><path class="r" d="M41.94,83.55A5.21,5.21,0,0,1,42.28,85h0v.1l.2,0c.39,0,.68-.08.79-.08s0,0,0,0h0a.14.14,0,0,0,0,.06c0,.11.21.12.57.13l-1.93-1.62"/><path class="s" d="M36.1,76.6l-.07.06c.1.22.21.43.32.65l0-.07c-.11-.21-.21-.42-.3-.64"/><path class="s" d="M41.83,83.25l.11.3,1.93,1.62.72,0c-.2-.28-.42-.57-.65-.87a20,20,0,0,1-2.11-1.09"/><path class="s" d="M49,88.63c0,.11,0,.22,0,.33s0,.44,0,.66c.51-.17,1-.35,1.49-.54-.45-.12-.88-.26-1.3-.39L49,88.63"/><path class="t" d="M37.62,75.24A17.16,17.16,0,0,0,36.1,76.6c.09.22.19.43.3.64a1.52,1.52,0,0,1,1-.69.71.71,0,0,1,.47.19l.26.09a16.44,16.44,0,0,1-.55-1.59"/><path class="t" d="M40.73,80.47c.07.16.13.33.2.49.3.78.64,1.58.9,2.29a20,20,0,0,0,2.11,1.09l-.36-.46a20.54,20.54,0,0,0-1.36-1.73c-.46-.57-.95-1.13-1.49-1.68"/><path class="u" d="M40.21,73.69h-.12a1.48,1.48,0,0,0-.65.22c-.67.44-1.27.88-1.82,1.32a16.44,16.44,0,0,0,.55,1.59l.43.16a6.64,6.64,0,0,1,1,.46s.48,1.41,1.11,3c.54.55,1,1.11,1.49,1.68a20.54,20.54,0,0,1,1.36,1.73c.37.48.71.92,1,1.33l.23,0c.54,0,1,.06,1.46.11A2,2,0,0,1,45.42,84c-.08-1.25-1.09-1.32-1.48-2.25s-1.18-1.23-1.62-2.14a5.18,5.18,0,0,0-.89-2.72.85.85,0,0,0-.38-.1l-.16,0h0c-.21,0-.27-.22-.4-.28V76.4h0c0-.66.39-1.47.39-2.06a.7.7,0,0,0-.2-.54.66.66,0,0,0-.42-.11"/><path class="u" d="M55.45,84.17l-.05,0c-.68.52-.94,0-1.7.65a7.57,7.57,0,0,1-3.74.73,4.49,4.49,0,0,1-.21.44,4.69,4.69,0,0,0-.62,1.49A10.35,10.35,0,0,0,49,88.63l.17.06c.42.13.85.27,1.3.39.55-.21,1.09-.43,1.62-.67a13.91,13.91,0,0,0,2.21-2.12l.73-.39,0,0c0-.2.06-.39.09-.56a1.15,1.15,0,0,0-.08-.28h0l.16-.16c.09-.43.16-.68.17-.71"/><path class="v" d="M36.35,77.31a5.22,5.22,0,0,0-.52.84,10.67,10.67,0,0,0-.45,1l0,.09A10.35,10.35,0,0,0,36,81a8.6,8.6,0,0,0,.89,1.56,4,4,0,0,0,1.06,1h0c1,.37.75,1.08,1.66,1.43h0a5.17,5.17,0,0,0,1.51.18c.41,0,.81,0,1.16-.05V85a5.21,5.21,0,0,0-.34-1.42l-.38-.31-.47-.4a19.81,19.81,0,0,1-4.21-4.62c-.19-.3-.37-.61-.53-.91"/><path class="v" d="M49.15,89.82l-.14,0a8.16,8.16,0,0,1-.52,2.61,2.38,2.38,0,0,0-.05.41.76.76,0,0,0,.09.38c.13,0,.42-.06.54-.11l.26.18a3,3,0,0,1,.89-.33,2.85,2.85,0,0,1,.41,0,1.85,1.85,0,0,1,1.46.7l.34-.36.13-.15.13-.22c-.66-.57-1.33-1.17-2-1.73-.51-.48-1-.92-1.54-1.37"/><path class="w" d="M36.4,77.24l0,.07c.16.3.34.61.53.91a19.81,19.81,0,0,0,4.21,4.62l.47.4.38.31-.11-.3-.2-.13-.41-.26A19.78,19.78,0,0,1,37,78.26a10.47,10.47,0,0,1-.6-1"/><path class="w" d="M50.9,89.18a6.54,6.54,0,0,1-1.75.64c.52.45,1,.89,1.54,1.37.67.56,1.34,1.16,2,1.73a25.07,25.07,0,0,0,1.39-2.74l.21-.48-1.15-.1-1.37-.24q-.45-.08-.87-.18"/><path class="x" d="M37.44,76.55a1.52,1.52,0,0,0-1,.69,10.47,10.47,0,0,0,.6,1,19.78,19.78,0,0,0,4.22,4.6l.41.26.2.13c-.26-.71-.6-1.51-.9-2.29-.07-.16-.13-.33-.2-.49a15.9,15.9,0,0,0-1.35-1.23,15.11,15.11,0,0,1-1-2c-.06-.14-.13-.29-.19-.45l-.26-.09a.71.71,0,0,0-.47-.19"/><path class="y" d="M38.17,76.83c.06.16.13.31.19.45a15.11,15.11,0,0,0,1,2,15.9,15.9,0,0,1,1.35,1.23c-.63-1.61-1.11-3-1.11-3a6.64,6.64,0,0,0-1-.46l-.43-.16"/><path class="y" d="M55.25,85.81l-.14.07,0,0-.73.39a13.91,13.91,0,0,1-2.21,2.12,9.47,9.47,0,0,1-1.23.77q.42.1.87.18l1.37.24,1.15.1a11.57,11.57,0,0,0,1-3.79s0-.07,0-.1"/><path class="z" d="M52.69,92.92l-.13.22-.25.41-.16.16.19.25c.12.29.48,1.2.88,2.24.18.43.36.89.52,1.33.73-.64,1.38-1.28,1.93-1.87-.77-.69-1.44-1.39-2.11-2l-.87-.73"/><path class="aa" d="M58.66,89.69c-.43,0-.89.09-1.4.09H56a14.53,14.53,0,0,1-1.48-.06l-.24,0-.21.48a25.07,25.07,0,0,1-1.39,2.74l.87.73c.67.62,1.34,1.32,2.11,2,.26-.27.49-.54.71-.78.85-1,1.34-1.66,1.34-1.66a6.38,6.38,0,0,0,.94-3.53"/><path class="ab" d="M58.05,82.88a1.88,1.88,0,0,0-.9.41,18.93,18.93,0,0,0-1.87,1.59l-.16.16a2.56,2.56,0,0,1,.14.87h0a11.57,11.57,0,0,1-1,3.79l.24,0a14.53,14.53,0,0,0,1.48.06h1.25c.51,0,1,0,1.4-.09,0-.21,0-.41,0-.62,0-.41,0-.81,0-1.2,0-.88-.12-1.69-.17-2.28s-.09-.93-.09-.93h0a5.8,5.8,0,0,0,.09-1c0-.58-.16-.79-.43-.79"/><path class="ac" d="M74,93.55c-.45.33-.9.65-1.36,1a.89.89,0,0,1,.19.27,2.79,2.79,0,0,0,.73.91.86.86,0,0,0,.22,0,2.33,2.33,0,0,0,.38,0,2.43,2.43,0,0,1,.38,0,.9.9,0,0,1,.69.31c.38.48.85,1.59,1.27,1.59a.33.33,0,0,0,.24-.15c.16-.24.53-.09.53-.44v0h0c-.18-.14-.38-.5-.61-.69-.44-.47-.85-.41-1.26-1s-.78-1.14-1.19-1.55L74,93.55"/><path class="ad" d="M66.33,95.21h0m0,0h0m0,0h0m.8-7.33c-.55.26-1.07.48-1.58.68.47.81,1.4,1,1.42,1.18h0a15.74,15.74,0,0,1-.73,3.79,4.3,4.3,0,0,0-.09.78h0a2.21,2.21,0,0,0,.16.9h0s-.07.06-.06.09c0,.21.89.47,1.44.47.24,0,.42,0,.42-.18a.35.35,0,0,0-.06-.16h0a.45.45,0,0,0,.34.19c.52,0,1-1.11,1.63-1.16h.08a1.25,1.25,0,0,1,.63.3,1.29,1.29,0,0,0,.63.3.42.42,0,0,0,.32-.15c.26-.19.51-.48.75-.48a.18.18,0,0,1,.1,0l.25-.18.08-.06,1-.75a1.44,1.44,0,0,0-.37-.15,4.78,4.78,0,0,0-2-.54,4.21,4.21,0,0,0-.5,0c-.11.4-.27.52-.44.52s-.53-.24-.75-.26-.23-.24-.37-.38a.39.39,0,0,0-.15,0h-.18l-.18,0c-.16,0-.31-.07-.43-.43-.43-1.57-.82-3-1.24-4.2,0-.06,0-.12-.08-.19"/><path class="ad" d="M61.13,89.38l-.35.06c-.34.06-.83.14-1.44.19h-.12a2.34,2.34,0,0,0,.09.72s0,0,.1,0a5,5,0,0,0,1.72-1"/><path class="ad" d="M73.85,93.46l-1,.75-.08.06-.25.18a.3.3,0,0,1,.11.06c.46-.31.91-.63,1.36-1l-.15-.09"/><path class="ae" d="M62,76.51h0a.38.38,0,0,1-.17,0h-.09a.37.37,0,0,0-.31.14c-.51.64-1.2,1.64-1.82,2.39l.75.43c.71-.16,1.38-.34,2-.52a5.2,5.2,0,0,1-.14-1.2h0c0-.13,0-.26,0-.4,0-.35,0-.88-.21-.88"/><path class="af" d="M62.36,79c-.63.18-1.3.36-2,.52l0,0a.52.52,0,0,1,.25-.08c.27,0,.43.34.5.94a1,1,0,0,1,0,.2h0A14.4,14.4,0,0,1,60.74,83c-.11.4-.34.84-.45,1.24a32.34,32.34,0,0,1-.87,4.13,3.32,3.32,0,0,0-.2,1.2v0h.12c.61,0,1.1-.13,1.44-.19l.35-.06c.25-.2.51-.41.76-.64,1.18-1,2.19-2.16,2.32-2.16s.28-.7.4-.76c.38.25.52,1.31.76,2.29a1.84,1.84,0,0,0,.18.45c.51-.2,1-.42,1.58-.68-.2-.5-.6-1.29-.95-2a17.32,17.32,0,0,0-1-1.77.62.62,0,0,0-.61-.34h-.35a.6.6,0,0,1-.46-.17h0a1,1,0,0,1,.1-.29h-.17c-.06.1-.23.28-.3.38-.11-.08-.16-.27-.21-.61A12.6,12.6,0,0,0,62.36,79"/><path class="ag" d="M75,92.78l-1,.77.21.15c.41.41.77,1.06,1.19,1.55s.82.51,1.26,1c.23.19.43.55.61.69h0c.08-.1.28,0,.28-.18a.28.28,0,0,0,0-.09,3.08,3.08,0,0,0-.44-.89c-.69-.91-1.31-2-1.9-2.75L75,92.78"/><path class="ah" d="M67.83,87.53c-.24.13-.47.24-.7.35,0,.07.06.13.08.19.42,1.18.81,2.63,1.24,4.2.12.36.27.43.43.43l.18,0h.18a.39.39,0,0,1,.15,0c.14.14.25.35.37.38s.5.26.75.26.33-.12.44-.52a4.21,4.21,0,0,1,.5,0,4.78,4.78,0,0,1,2,.54,1.44,1.44,0,0,1,.37.15l1.06-.8c-1.28-1.56-2.38-2.7-3.42-3h0c-.19,0-.32.44-.49.64-.42.58-1-.16-1.46.93,0,.08-.07.11-.11.11s-.1,0-.14-.11c-.54-1.28-1-2.49-1.42-3.69"/><path class="ah" d="M74.91,92.66l-1.06.8.15.09,1-.77-.1-.12"/><path class="ai" d="M65.05,82c-.28,0-.52.23-.73.53a3.55,3.55,0,0,0-.41.75,1,1,0,0,0-.1.29h0a.6.6,0,0,0,.46.17h.35a.62.62,0,0,1,.61.34,17.32,17.32,0,0,1,1,1.77c.35.72.75,1.51.95,2,.23-.11.46-.22.7-.35-.19-.53-.37-1.07-.54-1.61a15.28,15.28,0,0,0-.94-2.12c-.36-.71-.68-1.34-.79-1.51a.7.7,0,0,0-.51-.26"/><path class="aj" d="M45.6,63.46l0,0a1.72,1.72,0,0,0,0,.39V64h0A2.79,2.79,0,0,0,45.79,65v0a4.71,4.71,0,0,0,.26.46,4.71,4.71,0,0,1-.26-.46v0h0v0a4.71,4.71,0,0,0,.26.46,4.71,4.71,0,0,1-.26-.46v0A2.79,2.79,0,0,1,45.53,64h0v-.08h0a1.72,1.72,0,0,1,0-.39,18.21,18.21,0,0,1-1.79,1.15,27.66,27.66,0,0,0-2.62,2.82l.12.4c2.38-.08,5-.12,5.06-1.16a12.08,12.08,0,0,0-.64-2.37,3.12,3.12,0,0,1-.1-.72v-.15m4.33-5a7.1,7.1,0,0,0-.91.59c-.11.28-.51.61-.51.91v0a.57.57,0,0,1,0,.13,1.91,1.91,0,0,1-.21.73c-.33.39-.66.76-1,1.1l.24,0a11,11,0,0,0,1.79-.72h.11q.12-.07.12-.15v0h0a3.49,3.49,0,0,1,.65-.05,1.24,1.24,0,0,1,.19-.48,1.89,1.89,0,0,0,.19-.3l0-.18a1.91,1.91,0,0,0-.29-1,5.62,5.62,0,0,0-.4-.57m2.12-35.38a2.73,2.73,0,0,0-.41,0c-.3.19-.26.85-.54,1a19.23,19.23,0,0,0-3.58,4.24c-1.42,2.08-2.47,4.17-2.93,4.22a2.43,2.43,0,0,1-1.89-1c-.9-1.61-2.17-1.76-3.34-2.78-.28-.3-.38-.85-.67-1.14a4.84,4.84,0,0,0-2.53-1.25.94.94,0,0,0-.3.05,4.08,4.08,0,0,0-3.14,1.8c-.56.44-1.1.89-1.63,1.34a8.41,8.41,0,0,0-.33,2.27c0,.2,0,.38,0,.55,0,.48.06.83.06,1.07s-.06.38-.25.45c0,0,0,0,0,0,0,.3,1.14,2.19,1.19,3.85l.84.15a11,11,0,0,1-.09-1.4,9.26,9.26,0,0,1,.18-1.85c.28-1.35,1-2.62,2.55-2.62a3.75,3.75,0,0,1,1.23.24s.55-.05,1.37-.05a16.15,16.15,0,0,1,3.07.27C43.1,33,45.2,34.14,45.31,36c0,0,.22,3.69.55,7.69.14,1.77.26,3.62.26,5.3a15.65,15.65,0,0,1-.42,4.14,33.87,33.87,0,0,1,4.28.28,15,15,0,0,1-.26-2.61,4.93,4.93,0,0,1,.59-2.63,3.34,3.34,0,0,1,2.28-1.76h.06a10.07,10.07,0,0,1,3.06,1.79,1.28,1.28,0,0,0,.71.33c.52,0,.61-.83.64-1.69,0-.23,0-.45,0-.67a7.46,7.46,0,0,1,1.12-4.26.31.31,0,0,1,.2-.07,1.14,1.14,0,0,1,.47.16,1.23,1.23,0,0,0,.48.16h.06c.76-.49,1.34-2.16,2.34-2.92A13.7,13.7,0,0,0,65,37.89a1.87,1.87,0,0,0,.5-.52l0,0c.41.09.17,1.44.49,1.85a.78.78,0,0,0,.44.13,1.64,1.64,0,0,0,.51-.1,6.93,6.93,0,0,0,1.14-.64,7.69,7.69,0,0,1,1.72-.86,4.82,4.82,0,0,1,1.71-.32h.09a2.81,2.81,0,0,1,1.49.44l.1.09c0-.08,0-.16,0-.25a11.16,11.16,0,0,0,.25-1.44v0c-.13-1-1.16-1.34-1.88-2a4.57,4.57,0,0,1-.46-1.41c-.13-.95-1.14-.81-2-.86h-.14c-1,0-1.59-1.26-2.6-1.41a1.55,1.55,0,0,0-.37,0,4.65,4.65,0,0,0-1.63.44,3.2,3.2,0,0,1-1,.26,1.06,1.06,0,0,1-.67-.24c.07.06.11.11.11.15s-.27.17-.65.17-.64,0-1-.06c-.81-.05-1.63-.16-1.63-.31s0-.06.09-.09a1.68,1.68,0,0,1-.47-.85c0-.18,0-.43,0-.61a.3.3,0,0,1,0-.18c.7-1,.57-2.59.82-3.9a11.62,11.62,0,0,0-1.91-.22,8.45,8.45,0,0,1-2.94-.63,6.21,6.21,0,0,0-3.14-1.36"/><path class="ak" d="M41.16,67.46l-.06.06c0,.11.07.23.11.35h.07l-.12-.4"/><path class="al" d="M41.1,67.52l-.34.36h.45c0-.12-.07-.24-.11-.35"/><path class="aj" d="M33.81,38a3.66,3.66,0,0,0-.72.14l.65.11.07-.25"/><path class="aj" d="M73.78,38.82a2.59,2.59,0,0,1,.09.42A1.32,1.32,0,0,1,74,39a1.1,1.1,0,0,0-.21-.22"/><path class="aj" d="M40.32,42.43l.07.21c.35,1,.69,2.12,1,3.12-.19-.87-.45-1.83-.77-2.92l-.28-.41"/><path class="aj" d="M34.35,42.86a37.78,37.78,0,0,0-.26,4.22c0,.56,0,1.12,0,1.66.09-.48.18-1,.24-1.5a17.67,17.67,0,0,0,.13-2.1,16.51,16.51,0,0,0-.16-2.28"/><path class="aj" d="M41.74,51.25c-.09.14-.19.32-.3.5a11,11,0,0,0-.59,1.19,2.8,2.8,0,0,0,.72-1.1,3.15,3.15,0,0,0,.17-.59"/><path class="aj" d="M50.33,59.08a1.91,1.91,0,0,1,.29,1h0l0,.18a.5.5,0,0,0,0-.13.77.77,0,0,0,0-.15,1.67,1.67,0,0,0-.34-.87"/><path class="aj" d="M50.22,61a3.49,3.49,0,0,0-.65.05v0h0q0,.08-.12.15a5.9,5.9,0,0,0,.77-.2v0"/><path class="aj" d="M47.55,62l-.24,0-.07.06.31-.11"/><path class="am" d="M31.71,37.86c0,1.08-.91,1.72-.92,2.78,0,.09,0,.18,0,.28h0a23.29,23.29,0,0,1-1,4.45c-.21.87-.44,1.71-.59,2.46a18,18,0,0,0-.28,1.85,24.75,24.75,0,0,1-.33,3.45l0,0a23.18,23.18,0,0,0,.31-3.4c0-.45.14-1.1.28-1.85s.39-1.58.59-2.45a23.21,23.21,0,0,0,1-4.46,2.64,2.64,0,0,1,0-.28c0-1.05.88-1.69.92-2.77v-.08h0"/><path class="an" d="M31.72,37.86v.08h0c0,1.08-.92,1.72-.92,2.77a2.64,2.64,0,0,0,0,.28h0a23.21,23.21,0,0,1-1,4.46c-.2.87-.44,1.7-.59,2.45s-.24,1.4-.28,1.85a23.18,23.18,0,0,1-.31,3.4c1.08.43,2.19,1,3.14,1.4l.34.14c.21-.45.42-.91.61-1.39a26,26,0,0,0,1.42-4.56c0-.54,0-1.1,0-1.66h0a37.78,37.78,0,0,1,.26-4.22,17.58,17.58,0,0,0-.86-3.39h0s.08-.54.25-1.27l-.65-.11a5.1,5.1,0,0,0-.5.19l0-.27-.84-.15"/><path class="ao" d="M34.17,37.93l-.36,0-.07.25c-.17.73-.25,1.27-.25,1.27a16.35,16.35,0,0,1,1,5.67,17.67,17.67,0,0,1-.13,2.1,23.42,23.42,0,0,1-1.66,6.06c-.19.48-.4.94-.61,1.39a20.24,20.24,0,0,0,5.5,1.4,1.62,1.62,0,0,1,.3,0H38c.32-1.47.94-2.6,1.81-2.6l.23,0a2.29,2.29,0,0,0,.61-.34,2.4,2.4,0,0,0,.24-.22,11,11,0,0,1,.59-1.19c.11-.18.21-.36.3-.5a6.8,6.8,0,0,0,.16-1.56,18.54,18.54,0,0,0-.53-3.93c-.29-1-.63-2.07-1-3.12l-.07-.21a16.82,16.82,0,0,0-2.15-2.53,6.18,6.18,0,0,0-4-2"/><path class="ap" d="M35.2,32.14c-1.51,0-2.27,1.27-2.55,2.62a9.26,9.26,0,0,0-.18,1.85,11,11,0,0,0,.09,1.4l0,.27a5.1,5.1,0,0,1,.5-.19,3.66,3.66,0,0,1,.72-.14l.36,0a6.18,6.18,0,0,1,4,2,16.82,16.82,0,0,1,2.15,2.53l.28.41c.32,1.09.58,2,.77,2.92a18.54,18.54,0,0,1,.53,3.93,6.8,6.8,0,0,1-.16,1.56,3.15,3.15,0,0,1-.17.59,2.8,2.8,0,0,1-.72,1.1,2.4,2.4,0,0,1-.24.22,2.29,2.29,0,0,1-.61.34l-.23,0c-.87,0-1.49,1.13-1.81,2.6h0l.12,0h0a4.51,4.51,0,0,0,2.64-.7c1.5-1,2.58-2.24,4.71-2.25h.2A15.65,15.65,0,0,0,46.12,49c0-1.68-.12-3.53-.26-5.3-.33-4-.55-7.69-.55-7.69-.11-1.88-2.21-3-4.44-3.42a16.15,16.15,0,0,0-3.07-.27c-.82,0-1.37.05-1.37.05a3.75,3.75,0,0,0-1.23-.24"/><path class="aq" d="M59.74,30.87h0m0,0h0M52.09,21.1c-1.8,0-3.18,1.13-4.75,1.46h0s0,0,0-.09a1.29,1.29,0,0,1,0-.24l-.53.25c-.07.16-.41.53-.47.68a1.81,1.81,0,0,1-.55.09,3.35,3.35,0,0,1-.72-.1,6.55,6.55,0,0,0-2.65-.51,14.39,14.39,0,0,0-2.91.36,26.7,26.7,0,0,1-5.22.9H34a3.67,3.67,0,0,0-2.34.88c-.4.54-1.1,1-1.31,1.57a9.82,9.82,0,0,0-.15,1.9c0,.72,0,1.44.05,2.1.27-.24.55-.48.84-.71.53-.45,1.07-.9,1.63-1.34a4.08,4.08,0,0,1,3.14-1.8.94.94,0,0,1,.3-.05,4.84,4.84,0,0,1,2.53,1.25c.29.29.39.84.67,1.14,1.17,1,2.44,1.17,3.34,2.78a2.43,2.43,0,0,0,1.89,1c.46,0,1.51-2.14,2.93-4.22A19.23,19.23,0,0,1,51.1,24.2c.28-.19.24-.85.54-1a2.73,2.73,0,0,1,.41,0,6.21,6.21,0,0,1,3.14,1.36,8.45,8.45,0,0,0,2.94.63,11.62,11.62,0,0,1,1.91.22h0c-.25,1.31-.12,2.89-.82,3.9a.3.3,0,0,0,0,.18c0,.18,0,.43,0,.61a1.68,1.68,0,0,0,.47.85h0q-.09,0-.09.09c0,.15.82.26,1.63.31.35,0,.7.06,1,.06s.65,0,.65-.17,0-.09-.11-.15h0a1.06,1.06,0,0,0,.67.24,3.2,3.2,0,0,0,1-.26,4.65,4.65,0,0,1,1.63-.44,1.55,1.55,0,0,1,.37,0c1,.15,1.63,1.41,2.6,1.41h.14c.81,0,1.82-.09,2,.86a4.57,4.57,0,0,0,.46,1.41c.72.64,1.75,1,1.88,2v0a11.16,11.16,0,0,1-.25,1.44,2.18,2.18,0,0,0,0,.42.54.54,0,0,0,.41.59.48.48,0,0,1,.18.07c.19.14.3.4.51.4a.21.21,0,0,0,.13,0h0a8.21,8.21,0,0,0,.21-1,.49.49,0,0,0,0-.12c0-.65-.33-1.17-.34-1.85a.45.45,0,0,1,0-.11,8.65,8.65,0,0,0-.23-2.42,3.23,3.23,0,0,0-.85-1.18,8.9,8.9,0,0,0-4.38-2.9,1.15,1.15,0,0,1-.7.25c-.65,0-1.22-.56-1.8-.7-.23-.09-.41-.36-.68-.54-.71-.23-1.51,0-1.94-.68a12.34,12.34,0,0,0-3.35-4.27,13.4,13.4,0,0,0-3.92-1.75A24.26,24.26,0,0,0,54,21.3a9.08,9.08,0,0,0-1.69-.2h-.21"/><path class="ar" d="M50.6,60.27a1.73,1.73,0,0,1-.36.74,1.73,1.73,0,0,0,.36-.74"/><path class="ar" d="M50.24,61h0a3.49,3.49,0,0,0-.65.05,3.49,3.49,0,0,1,.65-.05h0"/><path class="ar" d="M49.57,61.08q0,.08-.12.15a5.66,5.66,0,0,1-.77.33,5.66,5.66,0,0,0,.77-.33q.12-.07.12-.15m0,0h0"/><path class="ar" d="M45.53,64A2.79,2.79,0,0,0,45.79,65,2.79,2.79,0,0,1,45.53,64"/><path class="as" d="M52.08,19.26a5.56,5.56,0,0,0-4.17,1.86,2.77,2.77,0,0,0-.57,1.11,1.29,1.29,0,0,0,0,.24c0,.06,0,.09,0,.09h0c1.57-.33,2.95-1.46,4.75-1.46h.21a9.08,9.08,0,0,1,1.69.2,24.26,24.26,0,0,1,2.47.6,13.4,13.4,0,0,1,3.92,1.75,12.34,12.34,0,0,1,3.35,4.27c.43.73,1.23.45,1.94.68.27.18.45.45.68.54.58.14,1.15.7,1.8.7a1.15,1.15,0,0,0,.7-.25,8.9,8.9,0,0,1,4.38,2.9,3.23,3.23,0,0,1,.85,1.18,8.65,8.65,0,0,1,.23,2.42h0a.45.45,0,0,0,0,.11c0,.68.34,1.2.34,1.85a.49.49,0,0,1,0,.12,8.21,8.21,0,0,1-.21,1c.15.06.23.3.36.3a.17.17,0,0,0,.11-.06,1.79,1.79,0,0,0,.55-.83,12.78,12.78,0,0,0,.71-3.6v-.27a9.56,9.56,0,0,0-4.46-7.39,1,1,0,0,0-.54-.14c-.36,0-.75.14-1.1.14h-.21a4.83,4.83,0,0,1-1.23-.22,4.52,4.52,0,0,0-1.25-.23,2.09,2.09,0,0,0-1.12.31.27.27,0,0,1-.19.06.59.59,0,0,1-.39-.16,22.78,22.78,0,0,0-5.45-5.6,11.81,11.81,0,0,0-4.16-1.65c-.9-.21-1.73-.35-2.43-.45a13,13,0,0,0-1.54-.15"/><path class="at" d="M13.46,89.62a9.32,9.32,0,0,0,3.24,3.69h0a9.32,9.32,0,0,1-3.24-3.69h0m-.61-2.06h0a3.75,3.75,0,0,0,.09.57h0a3.75,3.75,0,0,1-.09-.57m0-.17a.61.61,0,0,1,0,.17h0a.61.61,0,0,0,0-.17h0m-.38-2.46,0,.11h0l0-.11h0m-.32-1.52h0v0h0v0h0m-.92-1.84A2.84,2.84,0,0,0,12,82.68h0a2.84,2.84,0,0,1-.71-1.11h0m.05-8.49v0h0c0,.15-.07.32-.1.49h0c0-.17.07-.34.1-.49v0m.43-1.5,0,.06h0l0-.06h0m4.31-6.66h0l0,0,0,0h0M17,64l-.33.25h0L17,64h0m3-2.78h0l0,0,0,0h0"/><path class="au" d="M26,52.5h-.26a2.18,2.18,0,0,0-1.5.85,13,13,0,0,0-1.1,2.1l-1,2.29A16.8,16.8,0,0,1,21,60c.36-.51.66-1,.91-1.44l.05-.08h0l0-.08v0a12.57,12.57,0,0,0,.9-2h0a7.62,7.62,0,0,0,.25-.86,7.62,7.62,0,0,1-.25.86h0a7.62,7.62,0,0,0,.25-.86,7.62,7.62,0,0,1-.25.86h0a12.57,12.57,0,0,1-.9,2v0l0,.08h0l-.05.08c-.25.43-.55.93-.91,1.44h0a10.45,10.45,0,0,1-1.46,1.74,14.31,14.31,0,0,1-1,1h0a10.82,10.82,0,0,1-.89.73L17,64c-.33.32-.65.65-1,1a18,18,0,0,0-2.67,3.75s-.1.12-.16.21l0,.09h0v0h0a2.72,2.72,0,0,0-.3.85v0h0c-.36.53-.72,1.07-1.07,1.62-.21.92-.41,2-.62,3a19.78,19.78,0,0,0-.38,2.24c0,.44,0,.89,0,1.34h0a9.83,9.83,0,0,0,.21,2.23h0a7.5,7.5,0,0,0,.35,1.23A5.37,5.37,0,0,0,12,82.68l.07,0h0v0l0,.06c.19.82.32,1.55.42,2.22a18.35,18.35,0,0,1,.36,2.19v0h0v.12c0,.12,0,.24.07.36a6.92,6.92,0,0,0,1.87,3.85c.61.61,1.24,1.17,1.87,1.71l.34.21.16.1-.16-.1h0l.16.1-.16-.1-.34-.21c2.63,2.23,5.32,4,7.16,6.28A25.42,25.42,0,0,1,25.68,102a18.22,18.22,0,0,1,1.45,2.51,5.13,5.13,0,0,1,.18,1.79c0,.18,0,.37,0,.56,0,1.06,0,2.2,0,2.75v.05c0,2,2.32,3,4.07,3.14a38.34,38.34,0,0,1,8,.71c.78.37,1.09,1.32,1.9,1.82a6.42,6.42,0,0,0,2.46.43c.56,0,1.13,0,1.69-.1s1.11-.09,1.65-.09h.4a18.17,18.17,0,0,0,4.47.72,6,6,0,0,0,1.14-.1,1.51,1.51,0,0,0,.75-.38.05.05,0,0,1,0,0c.61.22.33,1.61,1,2.15a2.29,2.29,0,0,0,1.17.3,4.31,4.31,0,0,0,2-.59,18.08,18.08,0,0,1,3.93-1.54,10,10,0,0,0-1.5-.54,9.55,9.55,0,0,1-2.93-1,23.24,23.24,0,0,1-5.44-5.79,2.13,2.13,0,0,1-.18-.22.26.26,0,0,1,.05.15c0,.07,0,.09-.12.09a4.49,4.49,0,0,1-1.52-.68c-.69-.44-1.33-.94-1.33-1.1s0,0,.09,0h.05a.36.36,0,0,1-.06-.25,2.06,2.06,0,0,1,.14-.73c.14-.22.29-.6.43-.66a2.74,2.74,0,0,0,.49-.29l-.09-.26c0-.11-.09-.22-.13-.32a21.18,21.18,0,0,0-4.62,1.84,5.51,5.51,0,0,1-2.85,1h-.09a1.7,1.7,0,0,1-1-.25h0a.13.13,0,0,0,0-.1c-.31-.15-.63-.33-1-.48s-.93-.2-1-.22l-.07,0a1.85,1.85,0,0,1-.83.36,2.3,2.3,0,0,1-.62.08,2.75,2.75,0,0,1-1.47-.47l-.16-.07h0l-.11-.06A9,9,0,0,1,34.36,105h0v0l0,0a5,5,0,0,1-.6-1.21,6.37,6.37,0,0,1-.68-1.26h0c-.31-.73-.53-1.42-.53-1.42h0c0-.08,0-.16,0-.24-.14-.52-.26-1.07-.39-1.63a1.42,1.42,0,0,0-.07-.22,3.79,3.79,0,0,0-.73-1.08c-1.08-1-2.87-1.12-4.11-2.08a1.09,1.09,0,0,1-.32-.8h0v0c-.45-.22-.91-.45-1.38-.71a16.18,16.18,0,0,1-3.2-2.41,12.66,12.66,0,0,1-3.87-7.29,2.66,2.66,0,0,0-.31-.88,16.61,16.61,0,0,0-1.77-2.67,9.46,9.46,0,0,1-.25-1.08,14.92,14.92,0,0,1-.16-2.22c0-.14,0-.29,0-.43a9.55,9.55,0,0,1,.67-3.14,4.48,4.48,0,0,1,1.92-2.22l.26-.29c.16-.17.38-.44.68-.73l2.21-2.23c.73-.71,1.49-1.41,2.15-2.09l.24-.48c.51-1.77.46-3.12,1.08-4.89s.47-3.24,1.84-4.66a7.19,7.19,0,0,0,1.61-3.35c-.31-.12-.61-.24-.91-.33A5.71,5.71,0,0,0,26,52.5"/><path class="au" d="M45.25,106.27l-1.53.71a3.38,3.38,0,0,1-1.19.26,2.73,2.73,0,0,1-1.22-.33.13.13,0,0,1,0,.1h0a1.7,1.7,0,0,0,1,.25h.09a5.51,5.51,0,0,0,2.85-1m-6,0a3.21,3.21,0,0,1-.83.36,1.85,1.85,0,0,0,.83-.36m.12-.07,0,0c.09,0,.55.09,1,.22a4.15,4.15,0,0,0-1-.25m-5-1.26v0h0A9,9,0,0,0,36,106.09l.11.06h0l.16.07c-.66-.39-1.26-1-1.93-1.3m-1.87-4.16c0,.08,0,.16,0,.24h0s.22.69.53,1.42h0a6.37,6.37,0,0,0,.68,1.26.62.62,0,0,1,0-.16,8.05,8.05,0,0,1-1.19-2.77m-1.19-2.93A3.79,3.79,0,0,1,32,98.91a2.47,2.47,0,0,0-.73-1.08"/><path class="av" d="M46.41,85.36h0"/><path class="aw" d="M57.63,110.71a24,24,0,0,0,4.71,3.05,1.77,1.77,0,0,1,.32,0l.39,0c-.59-.37-1.36-.49-2-.87a3.43,3.43,0,0,1-.74-1.33c-.25-.91-1.2-.69-2-.75h-.11a1.23,1.23,0,0,1-.51-.11"/><path class="ax" d="M50.76,104.34a4.71,4.71,0,0,0-.89.09c0,.1.08.21.13.32l.09.26a4.77,4.77,0,0,0,.68-.67h0"/><path class="ax" d="M52.05,108.75a23.24,23.24,0,0,0,5.44,5.79,9.55,9.55,0,0,0,2.93,1,10,10,0,0,1,1.5.54,6.16,6.16,0,0,1,1.26-.14,4.08,4.08,0,0,1,1.05.13c-.26-.52-.35-1.28-.59-1.77a1.85,1.85,0,0,0-.59-.59l-.39,0a1.77,1.77,0,0,0-.32,0,24,24,0,0,1-4.71-3.05,3.92,3.92,0,0,1-1-.83,1.41,1.41,0,0,1-.45.07c-.45,0-.84-.25-1-.91a3.17,3.17,0,0,0-.44,0c-.26,0-.52,0-.78,0a6.59,6.59,0,0,1-.75,0,1.48,1.48,0,0,1-1.11-.36"/><path class="ay" d="M26.86,94.9v0a1.09,1.09,0,0,0,.32.8c1.24,1,3,1.11,4.11,2.08a3.84,3.84,0,0,0-.78-.64,4.88,4.88,0,0,0-1.88-.7h0a4.88,4.88,0,0,1,1.88.7,3.84,3.84,0,0,1,.78.64A2.47,2.47,0,0,1,32,98.91a5.45,5.45,0,0,1,.46,1.85,8.05,8.05,0,0,0,1.19,2.77.62.62,0,0,0,0,.16A.89.89,0,0,0,34,104h0c.1.31.2.63.31.93.67.35,1.27.91,1.93,1.3a4.16,4.16,0,0,0,1.66.42h0a2.69,2.69,0,0,0,.4,0,3.21,3.21,0,0,0,.83-.36l0,0h0l0,0a4.15,4.15,0,0,1,1,.25,2.1,2.1,0,0,1,1,.48,2.73,2.73,0,0,0,1.22.33,3.38,3.38,0,0,0,1.19-.26l1.53-.71.39-.25-.39.25h0l.39-.25-.39.25h0l.39-.25-.39.25a21.18,21.18,0,0,1,4.62-1.84c-.19-.5-.37-1-.52-1.5s-.32-1.24-.45-1.85a1.5,1.5,0,0,1-.06-.29c-.3.13-.6.25-.9.35a8.31,8.31,0,0,1-2.46.55h-.42a4.11,4.11,0,0,1-1.71-.33.52.52,0,0,0-.21,0l-.28,0a7.22,7.22,0,0,0-2,.82h-.08a4.74,4.74,0,0,1-1.7-.33,2.12,2.12,0,0,1-1.42-2h0a3.11,3.11,0,0,1,.08-.64s-.17-1.27-.46-2.6v-.06l-.16,0a18,18,0,0,1-1.87.08h-.53a21.18,21.18,0,0,1-5.81-1,15.11,15.11,0,0,1-2-.8"/><path class="az" d="M51.43,101.61c.06.28.11.55.18.83s.08.38.13.57c.16-.23.32-.45.48-.65a8,8,0,0,0-.79-.75"/><path class="ba" d="M50.24,100.07a14.27,14.27,0,0,1-1.4.72,1.5,1.5,0,0,0,.06.29c.13.61.28,1.23.45,1.85s.33,1,.52,1.5a4.71,4.71,0,0,1,.89-.09h0c.34-.41.66-.88,1-1.33-.05-.19-.09-.38-.13-.57s-.12-.55-.18-.83a5.67,5.67,0,0,1-1.19-1.54"/><path class="ba" d="M55.13,109c.19.66.58.91,1,.91a1.41,1.41,0,0,0,.45-.07,2.63,2.63,0,0,0-1-.71,2.42,2.42,0,0,0-.48-.13"/><path class="ay" d="M43.82,96.66a2.43,2.43,0,0,0,1.14.65,4.43,4.43,0,0,0,.58.09L45,97.17c-.38-.16-.82-.36-1.21-.51"/><path class="ay" d="M32,98.91a1.42,1.42,0,0,1,.07.22c.13.56.25,1.11.39,1.63A5.45,5.45,0,0,0,32,98.91"/><path class="ay" d="M33.71,103.69a5,5,0,0,0,.6,1.21l0,0c-.11-.3-.21-.62-.31-.93h0a.89.89,0,0,1-.31-.29"/><path class="ay" d="M39.25,106.21l0,0,.07,0h0"/><path class="ay" d="M36.28,106.22a2.75,2.75,0,0,0,1.47.47,2.3,2.3,0,0,0,.62-.08,2.69,2.69,0,0,1-.4,0h0a4.16,4.16,0,0,1-1.66-.42"/><path class="ay" d="M40.29,106.43c.39.15.71.33,1,.48a2.1,2.1,0,0,0-1-.48"/><path class="bb" d="M46.28,85.34l.19.1,0-.07h0l-.13,0"/><path class="bc" d="M43.27,85c-.11,0-.4,0-.79.08l-.2,0a.78.78,0,0,1-.05.18s0,.14.13.38a6,6,0,0,0,.45,1A7,7,0,0,0,45,89a6.36,6.36,0,0,0,.77.43A7,7,0,0,0,47,87.92l-.62-.56a4.82,4.82,0,0,1-.61-.47l-.1-.15-1.82-1.57c-.36,0-.57,0-.57-.13a.14.14,0,0,1,0-.06h0s0,0,0,0"/><path class="bd" d="M43.87,85.17l1.82,1.57-.19-.27c-.19-.26-.46-.61-.78-1.08l-.13-.18-.72,0"/><path class="bd" d="M46.4,87.36l.62.56a.58.58,0,0,0,0-.16,5.93,5.93,0,0,1-.67-.4"/><path class="be" d="M44.59,85.21l.13.18c.32.47.59.82.78,1.08l.19.27.1.15a4.82,4.82,0,0,0,.61.47,5.93,5.93,0,0,0,.67.4h0a2.2,2.2,0,0,0,.18-.79,1,1,0,0,0,0-.25.7.7,0,0,0-.46-.57,5.22,5.22,0,0,1-.25-.61l0-.1-.19-.1c-.43,0-.92-.09-1.46-.11l-.23,0"/><path class="bf" d="M43.78,96.62l0,0c.39.15.83.35,1.21.51l.51.23h.21a5.56,5.56,0,0,0,2.41-.62h-.9l-1.33,0-1.45-.06c-.23,0-.47,0-.7-.07M39.61,84.94s-.26.17-.63.45l.72.17a16,16,0,0,1,1.84.54c.72.27,1.26.58,1.26,1.15a2.69,2.69,0,0,1-.86,1.57l-1.31,3.5c-.1.28-.22.56-.34.85.41.16.8.33,1.16.5,1.42-1,1.69-2,2.8-3.06.31-.27.79-.45,1.1-.72.14-.14.29-.28.43-.43A6.36,6.36,0,0,1,45,89a7,7,0,0,1-2.2-2.43,6,6,0,0,1-.45-1c-.09-.24-.13-.38-.13-.38h0a.78.78,0,0,0,.05-.18c-.35,0-.75.05-1.16.05a5.17,5.17,0,0,1-1.51-.18"/><path class="bg" d="M40.29,93.17a11.47,11.47,0,0,1-1,1.91,3.18,3.18,0,0,1-2,1.51v.06c.29,1.33.46,2.6.46,2.6h0a3.11,3.11,0,0,0-.08.64,2.12,2.12,0,0,0,1.42,2,4.74,4.74,0,0,0,1.7.33h.08a7.22,7.22,0,0,1,2-.82l.28,0a.52.52,0,0,1,.21,0,4.11,4.11,0,0,0,1.71.33h.42a8.31,8.31,0,0,0,2.46-.55c.3-.1.6-.22.9-.35a11,11,0,0,1-.15-2h0c0-.27,0-.54,0-.8s0-.79.06-1.19h-.07a1.36,1.36,0,0,0-.53,0,5.56,5.56,0,0,1-2.41.62h-.21a4.43,4.43,0,0,1-.58-.09,2.43,2.43,0,0,1-1.14-.65l0,0c-1.74-.2-3.38-.68-3.42-1.06h0a2.39,2.39,0,0,1,1-1.82l.1-.07c-.36-.17-.75-.34-1.16-.5"/><path class="bh" d="M49.55,96.47a1,1,0,0,0-.41.18,1.17,1.17,0,0,1-.38.18c0,.4-.06.8-.06,1.19s0,.53,0,.8a11,11,0,0,0,.15,2,14.27,14.27,0,0,0,1.4-.72,2.3,2.3,0,0,1-.18-.67c-.07-1.14.07-2.34-.48-2.93h0"/><path class="bi" d="M28.59,96.48h0"/><path class="bi" d="M28.63,96.49a4.88,4.88,0,0,1,1.88.7,4.88,4.88,0,0,0-1.88-.7"/><path class="bi" d="M32.49,101s.22.69.53,1.42c-.31-.73-.53-1.42-.53-1.42"/><path class="bi" d="M33,102.43a6.37,6.37,0,0,0,.68,1.26A.89.89,0,0,0,34,104a.89.89,0,0,1-.31-.29,6.37,6.37,0,0,1-.68-1.26"/><path class="bi" d="M34,104c.11.32.21.65.32,1v0c-.11-.3-.21-.62-.31-.93"/><path class="bi" d="M34.36,105A9,9,0,0,0,36,106.09,9,9,0,0,1,34.36,105"/><path class="bi" d="M36.12,106.15l.16.07a4.16,4.16,0,0,0,1.66.42,4.16,4.16,0,0,1-1.66-.42l-.16-.07"/><path class="bi" d="M39.25,106.21l0,0a1.85,1.85,0,0,1-.83.36,2.69,2.69,0,0,1-.4,0,2.69,2.69,0,0,0,.4,0,1.85,1.85,0,0,0,.83-.36l0,0"/><path class="bi" d="M39.25,106.21h0c.09,0,.55.09,1,.22s1,.34,1.06.58a.13.13,0,0,0,0-.1,2.1,2.1,0,0,0-1-.48,8,8,0,0,0-1-.22"/><path class="bi" d="M41.35,107a1.7,1.7,0,0,0,1,.25,1.7,1.7,0,0,1-1-.25"/><path class="bj" d="M28.59,53.13A7.19,7.19,0,0,1,27,56.48c-1.37,1.42-1.13,3-1.84,4.66s-.57,3.12-1.08,4.89l-.24.48.16-.17c0-.08.09-.17.13-.26.51-1.77.46-3.11,1.08-4.88S25.65,58,27,56.54a7,7,0,0,0,1.62-3.39l0,0"/><path class="bk" d="M28.63,53.15A7,7,0,0,1,27,56.54c-1.36,1.42-1.11,3-1.82,4.66s-.57,3.11-1.08,4.88c0,.09-.09.18-.13.26A7.66,7.66,0,0,0,25.68,64,8.08,8.08,0,0,0,27,63.58c.88-2.09,1.83-3.75,2.34-3.86,0,0,.48-.73,1.15-1.89.48-.86,1.05-1.93,1.61-3.14l-.34-.14c-.95-.42-2.06-1-3.14-1.4"/><path class="bl" d="M32.11,54.69C31.55,55.9,31,57,30.5,57.83c-.67,1.16-1.15,1.89-1.15,1.89-.51.11-1.46,1.77-2.34,3.86l.21-.09a3.45,3.45,0,0,0,1.26-.9l.33-.85h0a1.49,1.49,0,0,1-.33.85l-.42,1.11C29.47,61,31.06,59,32,59l.14,0s.27-.21.68-.5,1-.68,1.61-1.06a9.76,9.76,0,0,1,3.22-1.36,20.24,20.24,0,0,1-5.5-1.4"/><path class="au" d="M50,53.43v.08a19.86,19.86,0,0,1,3.07.68.7.7,0,0,1,.45.54.76.76,0,0,0-.47-.62A21,21,0,0,0,50,53.43"/><path class="bm" d="M45.7,53.15l0,.07a33.45,33.45,0,0,1,4.26.28v0h0v0H50v-.08a33.87,33.87,0,0,0-4.28-.28"/><path class="bn" d="M45.5,53.15c-2.13,0-3.21,1.23-4.71,2.25a4.51,4.51,0,0,1-2.64.7h0a10.67,10.67,0,0,0,1.86.34c.27-.32.55-.64.82-1,1.5-1,2.58-2.24,4.72-2.25h.16l0-.07h-.2"/><path class="au" d="M19.57,61.75l-.4.37-1.63,1.37L17,64l.66-.54a10.82,10.82,0,0,0,.89-.73h0a14.31,14.31,0,0,0,1-1"/><path class="au" d="M13.19,69a16.22,16.22,0,0,0-1.42,2.52l0,.09c.35-.55.71-1.09,1.07-1.62h0v0a2.72,2.72,0,0,1,.3-.85h0v0h0l0-.09"/><path class="au" d="M10.75,76.77c0,.29-.05.58-.07.86s0,.57,0,.85a7.2,7.2,0,0,0,.62,3.09,7.5,7.5,0,0,1-.35-1.23h0a9.83,9.83,0,0,1-.21-2.23h0c0-.45,0-.9,0-1.34"/><path class="au" d="M22.61,80a7.78,7.78,0,0,0-.1,1.24,10.92,10.92,0,0,0,.11,1.45,8.11,8.11,0,0,0,.3,1.09c0-.32-.09-.71-.15-1.12-.05-.84-.12-1.81-.16-2.66"/><path class="au" d="M30.56,80.18a7,7,0,0,0,.58,1.48,6.9,6.9,0,0,0,2.46,2.66l.06-.14a17.22,17.22,0,0,1-2.19-2.56,14.69,14.69,0,0,1-.91-1.44"/><path class="ay" d="M33.66,84.18l-.06.14h0a.62.62,0,0,0,.08-.12l0,0"/><path class="bf" d="M33.69,84.21a.62.62,0,0,1-.08.12,5.54,5.54,0,0,0,.53.3q-.22-.19-.45-.42"/><path class="au" d="M12,82.68l.08.08v0h0l-.07,0"/><path class="bf" d="M37.94,83.5h0"/><path class="au" d="M12.53,85c.14.87.22,1.63.36,2.35v-.16A18.35,18.35,0,0,0,12.53,85"/><path class="bf" d="M38.63,85.67c-.15.12-.3.26-.47.42l.18.11a3.92,3.92,0,0,0,.29-.53"/><path class="au" d="M27.84,89.06a12.64,12.64,0,0,0,2.2.77l.09-.11a16.63,16.63,0,0,1-2.29-.66"/><path class="ay" d="M30.13,89.72l-.09.11c.28.08.57.14.87.2,0,0,.18,0,.48-.08l-.21,0c-.35-.06-.7-.12-1.05-.2"/><path class="ax" d="M65.37,116.67a3.09,3.09,0,0,1,.39.33c0-.08,0-.16,0-.24l-.09,0a2.3,2.3,0,0,0-.28-.06"/><path class="bo" d="M35.24,73.69a4.54,4.54,0,0,0-.24.61,4.11,4.11,0,0,0-.23,1.44v.1c0,.29,0,.59,0,.9s.12.64.2,1l0,0c-.07-.3-.13-.6-.18-.88s0-.61,0-.9v-.1A4.11,4.11,0,0,1,35,74.36a3.83,3.83,0,0,1,.22-.56.45.45,0,0,0,0-.11m12-11.62-.14,0a14.51,14.51,0,0,1-1.49,1.25s0,.06,0,.09a14.2,14.2,0,0,0,1.64-1.39m2.67-3.59,0,0h0l0,0m3.6-3.75a1.46,1.46,0,0,1,0,.29,1.34,1.34,0,0,1-.14.66c-.69,1.42-2.19,2-3.51,2.77l0,0,0,0c1.3-.75,2.8-1.35,3.48-2.75a1.46,1.46,0,0,0,.14-.66,1.55,1.55,0,0,0,0-.37"/><path class="bp" d="M35.34,73.53a1.4,1.4,0,0,0-.1.16.45.45,0,0,1,0,.11l.09-.16v-.11"/><path class="bq" d="M37.07,71.81l-.25.14a5.34,5.34,0,0,0-1.48,1.58v.11A5.33,5.33,0,0,1,36.85,72l.22-.13v-.07h0m3.69-3.93h-.08l-.52.51a11.83,11.83,0,0,0-1.84,2.22l0,0a11.29,11.29,0,0,1,1.82-2.2c.21-.2.4-.39.58-.59"/><path class="br" d="M38.32,70.62a4.91,4.91,0,0,1-1.25,1.19h0v.07a5,5,0,0,0,1.29-1.22l0,0"/><path class="bs" d="M35,77.68l0,0v.06l0,0,0-.06"/><path class="bt" d="M35.06,77.74l0,0c0,.18.08.39.12.62s.13.5.21.78v0l0-.06c-.06-.25-.13-.48-.18-.69s-.09-.46-.13-.64v-.06"/><path class="bu" d="M35.38,79.13l0,.06a10.25,10.25,0,0,0,.58,1.72,8.35,8.35,0,0,0,.88,1.57,4.2,4.2,0,0,0,1.06,1l.06,0a4,4,0,0,1-1.06-1A8.6,8.6,0,0,1,36,81a10.35,10.35,0,0,1-.58-1.73l0-.09"/><path class="bv" d="M45.59,63.39a21,21,0,0,1-1.82,1.18,28.07,28.07,0,0,0-2.64,2.82l0,.07a27.66,27.66,0,0,1,2.62-2.82,18.21,18.21,0,0,0,1.79-1.15.36.36,0,0,1,0-.1m0,0,0,0a.36.36,0,0,0,0,.1l0,0s0-.06,0-.09m4.27-4.92c-.3.18-.6.37-.87.57-.11.28-.51.61-.51.91v0a.62.62,0,0,1,0,.13,1.86,1.86,0,0,1-.21.73q-.55.66-1.11,1.2l.12,0c.34-.34.67-.71,1-1.1a1.91,1.91,0,0,0,.21-.73.57.57,0,0,0,0-.13v0c0-.3.4-.63.51-.91a7.1,7.1,0,0,1,.91-.59l0,0,0,0"/><path class="bw" d="M41.13,67.39l-.05.06,0,.07.06-.06,0-.07"/><path class="bx" d="M41.08,67.45l-.4.44h.08l.34-.36,0-.07"/><path class="bv" d="M49.88,58.45h0l0,0,0,0"/><path class="bv" d="M47.31,62l-.12,0-.09.09.14,0,.07-.06"/><path class="bu" d="M38,83.51c.93.38.7,1.07,1.6,1.41l.06,0h0c-.91-.35-.66-1.06-1.66-1.43"/><path class="by" d="M36,68.6a12,12,0,0,0-1.5.5c-.22.2-.46.44-.71.7a13.28,13.28,0,0,0-3,5,10,10,0,0,0-.5,3.1,8.61,8.61,0,0,0,.3,2.26,14.69,14.69,0,0,0,.91,1.44,17.22,17.22,0,0,0,2.19,2.56A4,4,0,0,0,34,82.72a1.84,1.84,0,0,0,0-.41,8.41,8.41,0,0,1-.34-1.83h0a3,3,0,0,1,.66-1.83c.23-.32.47-.63.73-.94-.08-.33-.15-.66-.2-1s0-.61,0-.9v-.1A4.11,4.11,0,0,1,35,74.3a4.54,4.54,0,0,1,.24-.61c0-.16,0-.32,0-.49h0v-.07A14.71,14.71,0,0,1,36,68.6m10.14-6.07a1.19,1.19,0,0,0-.51.7,1.75,1.75,0,0,1,.51-.7m1-.41-.77.3-.18.11a1.75,1.75,0,0,0-.51.7l0,.14a14.51,14.51,0,0,0,1.49-1.25m2.8-4.35a1.43,1.43,0,0,0-.09.49v.1l0,0v-.07h0a2.71,2.71,0,0,1,0-.45s0-.06,0-.09h0v0m.17-3.84c.11.51.22,1,.35,1.49a4.13,4.13,0,0,1,.12.87,1.47,1.47,0,0,1-.24.84l-.06.09h.08s.19-.13.23-.65v-.19a8.84,8.84,0,0,0-.48-2.46M50,53.51c0,.14.06.28.08.42a8.84,8.84,0,0,1,.48,2.46h0v.19c0,.52-.23.65-.23.65h-.08a2.7,2.7,0,0,0-.34.55v0h0s0,.06,0,.09a2.83,2.83,0,0,0,0,.45v.07l0,.05c1.32-.76,2.82-1.35,3.51-2.77a1.34,1.34,0,0,0,.14-.66,1.46,1.46,0,0,0,0-.29.7.7,0,0,0-.45-.54A19.86,19.86,0,0,0,50,53.51"/><path class="bz" d="M36.14,68.56l-.13,0a14.71,14.71,0,0,0-.78,4.53v.07c0,.17,0,.33,0,.49a1.4,1.4,0,0,1,.1-.16,2.44,2.44,0,0,1,0-.27h0v-.07a14.72,14.72,0,0,1,.81-4.63"/><path class="ca" d="M40.68,67.89c-.37,0-.72,0-1.06.06a23,23,0,0,0-3.48.61,14.72,14.72,0,0,0-.81,4.63v.07a2.44,2.44,0,0,0,0,.27A5.34,5.34,0,0,1,36.82,72l.25-.14a2.89,2.89,0,0,1,.24-1.37.38.38,0,0,1,.34-.22,1.14,1.14,0,0,1,.67.4,11.83,11.83,0,0,1,1.84-2.22l.52-.51"/><path class="cb" d="M37.65,70.22a.38.38,0,0,0-.34.22,2.89,2.89,0,0,0-.24,1.37,4.91,4.91,0,0,0,1.25-1.19,1.14,1.14,0,0,0-.67-.4"/><path class="cc" d="M35,77.71c-.26.31-.5.62-.73.94a3,3,0,0,0-.66,1.83A8.41,8.41,0,0,0,34,82.31a1.84,1.84,0,0,1,0,.41h0a4,4,0,0,1-.35,1.46l0,0a13.75,13.75,0,0,0,.82-1.27L34,82.3a9.71,9.71,0,0,1-.34-1.82h0a3.11,3.11,0,0,1,.66-1.84c.22-.29.44-.58.68-.87v-.06"/><path class="cd" d="M35,77.77c-.24.29-.46.58-.68.87a3.11,3.11,0,0,0-.66,1.84A9.71,9.71,0,0,0,34,82.3l.48.64.07-.12a4.08,4.08,0,0,0,.59-1.65.69.69,0,0,0-.25-.58h0s.08-.34.23-.8q.09-.29.21-.6v0q-.12-.42-.21-.78c0-.23-.08-.44-.12-.62"/><path class="ce" d="M35.36,79.19q-.12.32-.21.6c-.15.46-.23.8-.23.8a.69.69,0,0,1,.25.58h0a4.08,4.08,0,0,1-.59,1.65,13.9,13.9,0,0,1-.89,1.39q.23.23.45.42a8.41,8.41,0,0,0,3.15.89l.83.54,0,0c.17-.16.32-.3.47-.42a2,2,0,0,0,.12-.34l.23.06c.37-.28.59-.43.63-.45l-.06,0c-.9-.34-.67-1-1.6-1.41h0l-.06,0a4.2,4.2,0,0,1-1.06-1,8.35,8.35,0,0,1-.88-1.57,10.25,10.25,0,0,1-.58-1.72"/><path class="cf" d="M36.28,67.9a1.38,1.38,0,0,1-.6.23h0a10.05,10.05,0,0,0-1.17,1,12,12,0,0,1,1.5-.5l.27-.7m9.36-4.67a1,1,0,0,0,0,.16l0,0,0-.14m4.3-9.73c.05.15.09.29.13.43,0-.14,0-.28-.08-.42h-.05m-4.26-.28a4.18,4.18,0,0,1-.32.79.29.29,0,0,0,0,.2,1,1,0,0,0,0,.22,1.64,1.64,0,0,0,.09.35l1-.21a7.2,7.2,0,0,1,1.37-.17c.62,0,1.06.17,1.06.66a1.76,1.76,0,0,1-.23.76s-.13.54-.34,1.18a12.76,12.76,0,0,1-.73,1.88s-.67.65-1.71,1.54S43.41,62.48,42,63.6l-2,1.53a2.64,2.64,0,0,1,.38.56,9.84,9.84,0,0,1,.7,1.7,28.07,28.07,0,0,1,2.64-2.82,21,21,0,0,0,1.82-1.18,1,1,0,0,1,0-.16,1.19,1.19,0,0,1,.51-.7,2.73,2.73,0,0,1,1-.5q.56-.54,1.11-1.2a1.86,1.86,0,0,0,.21-.73.62.62,0,0,0,0-.13v0c0-.3.4-.63.51-.91.27-.2.57-.39.87-.57l0,0h0l0,0v-.1a1.43,1.43,0,0,1,.09-.49c.06-.26.18-.52.34-.55l.06-.09a1.47,1.47,0,0,0,.24-.84,4.13,4.13,0,0,0-.12-.87c-.13-.48-.24-1-.35-1.49,0-.14-.08-.28-.13-.43a33.45,33.45,0,0,0-4.26-.28"/><path class="cg" d="M36.44,67.81l-.16.09-.27.7.13,0c.09-.25.19-.51.3-.75"/><path class="ch" d="M40.05,65.13l0,0a2.73,2.73,0,0,1,.32.49,10.71,10.71,0,0,1,.73,1.81l.05-.06a9.84,9.84,0,0,0-.7-1.7,2.64,2.64,0,0,0-.38-.56"/><path class="ci" d="M40,65.15a41.92,41.92,0,0,1-3.59,2.66c-.11.24-.21.5-.3.75A23,23,0,0,1,39.62,68c.34,0,.69,0,1.06-.06l.4-.44a10.71,10.71,0,0,0-.73-1.81,2.73,2.73,0,0,0-.32-.49"/><path class="cf" d="M50.24,57.22c-.16,0-.28.29-.34.55a2.7,2.7,0,0,1,.34-.55"/><path class="cf" d="M49.85,58.4h0l0,0h0l0-.05"/><path class="cf" d="M47.19,62a2.73,2.73,0,0,0-1,.5l.18-.11.77-.3.09-.09"/><path class="cj" d="M45.52,53.22c-2.14,0-3.22,1.23-4.72,2.25-.27.33-.55.65-.82,1h.15l.47,0a2.66,2.66,0,0,0,2.47-1l1.09-.31c.37-.11.81-.22,1.27-.33a1.64,1.64,0,0,1-.09-.35,1,1,0,0,1,0-.22.29.29,0,0,1,0-.2,4.18,4.18,0,0,0,.32-.79h-.16"/><path class="ck" d="M49.94,53.5c.05.15.09.29.13.43a8.84,8.84,0,0,1,.48,2.46,10.08,10.08,0,0,0-.61-2.89h0"/><path class="ck" d="M50.55,56.58c0,.52-.23.65-.23.65s.19-.13.23-.65m0-.19h0"/><path class="ck" d="M50.25,57.22h0c-.16,0-.28.29-.34.55v0c.05-.27.17-.54.34-.57h0"/><path class="ck" d="M49.88,57.88a2.71,2.71,0,0,0,0,.45h0a2.83,2.83,0,0,1,0-.45"/><path class="cl" d="M34.51,69.1c-.17.07-.34.14-.49.22l-.29.18-.12,0a3.65,3.65,0,0,0-1.73,1.75c-.62,1.46-.8,2.93-2.6,3.94a19.52,19.52,0,0,1-5.3,2,2.23,2.23,0,0,1-.74.92,5.42,5.42,0,0,0-.47,1.21,5.09,5.09,0,0,0-.16.62c0,.85.11,1.82.16,2.66.06.41.11.8.15,1.12a8.09,8.09,0,0,0,.42,1A9.17,9.17,0,0,0,24.86,87a10.52,10.52,0,0,0,2.49,1.84l.49.23a16.63,16.63,0,0,0,2.29.66l.16-.2a36.26,36.26,0,0,0,3.09-4.72,1.75,1.75,0,0,1,.12-.32l.08-.11,0-.05a6.9,6.9,0,0,1-2.46-2.66,7,7,0,0,1-.58-1.48,8.61,8.61,0,0,1-.3-2.26,10,10,0,0,1,.5-3.1,13.28,13.28,0,0,1,3-5c.25-.26.49-.5.71-.7"/><path class="cm" d="M33.6,84.32l0,.05,0,0h0"/><path class="cm" d="M33.38,84.8a36.26,36.26,0,0,1-3.09,4.72l-.16.2c.35.08.7.14,1.05.2l.21,0,.67-.14A14.23,14.23,0,0,0,34,89.22a1,1,0,0,1,.09-.21,13.06,13.06,0,0,1-.57-1.71,7.7,7.7,0,0,1-.22-1.64h0a3.37,3.37,0,0,1,.11-.86"/><path class="cn" d="M33.61,84.33l0,0-.08.11a1.75,1.75,0,0,0-.12.32,3.37,3.37,0,0,0-.11.86,7.7,7.7,0,0,0,.22,1.64A13.06,13.06,0,0,0,34.06,89h0a1,1,0,0,0-.09.21l.61-.24a9,9,0,0,0,3.76-2.78l-.18-.11,0,0-.83-.54a8.41,8.41,0,0,1-3.15-.89,5.54,5.54,0,0,1-.53-.3"/><path class="co" d="M47.79,54.4a7.2,7.2,0,0,0-1.37.17l-1,.21a6,6,0,0,0,.76,1.43s0,.17.05.41,0,.26,0,.41a2.12,2.12,0,0,1,0,.44,1.16,1.16,0,0,1-.52.71,1.69,1.69,0,0,1-.83.17,5.27,5.27,0,0,1-.64-.05s-.27,0-.69.14A7.19,7.19,0,0,0,42,59a4.94,4.94,0,0,0-1.51,1A1.58,1.58,0,0,0,39.9,61c0,.05,0,.09,0,.13h0a4.58,4.58,0,0,0-1.13.38,1.31,1.31,0,0,0-.7.71c.07.35.12.56.12.56h0a.67.67,0,0,1-.14-.4.78.78,0,0,1,0-.16c0-.2-.08-.44-.12-.71-.09,1.9-.29,3.65-1.13,3.77,0,0-.42.82-1,1.79A8.58,8.58,0,0,1,34,69.32c.15-.08.32-.15.49-.22a10.05,10.05,0,0,1,1.17-1h0a1.38,1.38,0,0,0,.6-.23,10,10,0,0,1,2.37-3.42.4.4,0,0,1,.27-.11,1,1,0,0,1,.56.24,2.51,2.51,0,0,1,.57.52l2-1.53c1.41-1.12,2.81-2.28,3.84-3.18s1.71-1.54,1.71-1.54A12.76,12.76,0,0,0,48.28,57c.21-.64.34-1.18.34-1.18a1.76,1.76,0,0,0,.23-.76c0-.49-.44-.66-1.06-.66"/><path class="cp" d="M38.92,64.37a.4.4,0,0,0-.27.11,10,10,0,0,0-2.37,3.42l.16-.09a9.88,9.88,0,0,1,2.3-3.27.4.4,0,0,1,.27-.11.9.9,0,0,1,.47.18,1,1,0,0,0-.56-.24"/><path class="cq" d="M39.48,64.61a2.55,2.55,0,0,1,.55.54l0,0a2.51,2.51,0,0,0-.57-.52"/><path class="cr" d="M39,64.43a.4.4,0,0,0-.27.11,9.88,9.88,0,0,0-2.3,3.27A41.92,41.92,0,0,0,40,65.15a2.55,2.55,0,0,0-.55-.54.9.9,0,0,0-.47-.18"/><path class="co" d="M33.61,69.54a9.27,9.27,0,0,0-1.69.63c0,.35-.07.71-.1,1.07-.61,1.46-.79,2.93-2.59,3.94a19.52,19.52,0,0,1-5.22,2l0,.07a19.52,19.52,0,0,0,5.3-2c1.8-1,2-2.48,2.6-3.94a3.65,3.65,0,0,1,1.73-1.75"/><path class="cs" d="M31.92,70.17l-.14.06c-.91.46-1.78,1.15-1.78,2a.76.76,0,0,0,0,.15h0a22.16,22.16,0,0,1-2.26,2.21,3.53,3.53,0,0,1-1.81,1c-.37,0-.64-.24-.72-.88L25,74c-.07.28-.13.56-.2.83-.24.82-.41,1.58-.65,2.16a2,2,0,0,1-.1.21,19.52,19.52,0,0,0,5.22-2c1.8-1,2-2.48,2.59-3.94,0-.36.06-.72.1-1.07"/><path class="ct" d="M37.91,56.07a1.62,1.62,0,0,0-.3,0,9.76,9.76,0,0,0-3.22,1.36c-.63.38-1.2.77-1.61,1.06s-.68.5-.68.5L32,59c-.9,0-2.49,2-3.9,4.71L28,64l-.85,2.36c-.28.91-.63,1.81-.89,2.83-.14.49-.29,1-.43,1.48s-.25,1-.37,1.48c-.19.65-.33,1.3-.47,1.91l.26.66c.08.64.35.88.72.88a3.53,3.53,0,0,0,1.81-1A22.16,22.16,0,0,0,30,72.39a.76.76,0,0,1,0-.15c0-.86.87-1.55,1.78-2l.14-.06a9.27,9.27,0,0,1,1.69-.63l.12,0,.29-.18a8.58,8.58,0,0,0,1.81-2.27c.58-1,1-1.79,1-1.79.84-.12,1-1.87,1.13-3.77l0-.22c-.06-.44-.12-1-.17-1.53s0-.86,0-1.31V58A10.62,10.62,0,0,1,38,56.07h-.05"/><path class="cu" d="M45.43,54.78c-.46.11-.9.22-1.27.33l-1.09.31a2.66,2.66,0,0,1-2.47,1l-.47,0H40a10.67,10.67,0,0,1-1.86-.34l-.12,0h0A10.62,10.62,0,0,0,37.73,58v.45c0,.45,0,.89,0,1.31s.11,1.09.17,1.53.11.68.15.93a1.31,1.31,0,0,1,.7-.71,4.58,4.58,0,0,1,1.13-.38s0-.08,0-.13a1.58,1.58,0,0,1,.6-1.07A4.94,4.94,0,0,1,42,59a7.19,7.19,0,0,1,1.53-.51c.42-.1.69-.14.69-.14a5.27,5.27,0,0,0,.64.05,1.69,1.69,0,0,0,.83-.17,1.16,1.16,0,0,0,.52-.71,2.12,2.12,0,0,0,0-.44c0-.15,0-.29,0-.41s-.05-.41-.05-.41a6,6,0,0,1-.76-1.43"/><path class="cu" d="M38.08,62.2a.78.78,0,0,0,0,.16.67.67,0,0,0,.14.4s-.05-.21-.12-.56m0,0h0"/><path class="cv" d="M28.81,61.74l-.33.85a1.49,1.49,0,0,0,.33-.85"/><path class="cw" d="M23.82,66.51c-.66.68-1.42,1.38-2.15,2.09l-2.21,2.23c-.3.29-.52.56-.68.73l-.26.29a4.48,4.48,0,0,0-1.92,2.22,9.55,9.55,0,0,0-.67,3.14c0,.14,0,.29,0,.43a14.92,14.92,0,0,0,.16,2.22,9.46,9.46,0,0,0,.25,1.08,16.61,16.61,0,0,1,1.77,2.67,2.66,2.66,0,0,1,.31.88,12.66,12.66,0,0,0,3.87,7.29,16.18,16.18,0,0,0,3.2,2.41c.47.26.93.49,1.38.71,0-1.36,1.86-3.43,3.18-5.07a12.64,12.64,0,0,1-2.2-.77l-.49-.23A10.52,10.52,0,0,1,24.86,87a9.17,9.17,0,0,1-1.52-2.14,9.78,9.78,0,0,1-.72-2.13,10.92,10.92,0,0,1-.11-1.45,6.08,6.08,0,0,1,.26-1.86,5.42,5.42,0,0,1,.47-1.21,2.23,2.23,0,0,0,.74-.92c-.52.11-1.07.2-1.64.27h-.09a.93.93,0,0,1-.62-.27,1.18,1.18,0,0,1-.44-.72c0-.07,0-.13,0-.2,0-1.32,1.33-2.47,1.86-3.8a1.25,1.25,0,0,1,0-.21c0-.08,0-.16,0-.23a.59.59,0,0,0-.13-.45,1.3,1.3,0,0,1-.33-.7h0a11.84,11.84,0,0,1,1.25-4.47"/><path class="cx" d="M34,89.22a14.23,14.23,0,0,1-1.91.59c-.69.16-1.15.22-1.15.22-.3-.06-.59-.12-.87-.2-1.32,1.64-3.14,3.71-3.18,5.07a15.11,15.11,0,0,0,2,.8,21.18,21.18,0,0,0,5.81,1h.53a18,18,0,0,0,1.87-.08l.16,0c-.3-1.3-.69-2.63-1.46-2.9h0A6.51,6.51,0,0,0,36,92.5v0a1.31,1.31,0,0,0-.24-.89l-.54-.17h.08a.62.62,0,0,1,.46.18l.65.22C35,91,34,90.06,34,89.36h0a.66.66,0,0,1,0-.14"/><path class="cy" d="M38.75,85.33a2,2,0,0,1-.12.34,3.92,3.92,0,0,1-.29.53A9,9,0,0,1,34.58,89l-.61.24a.66.66,0,0,0,0,.14c0,.7,1.08,1.64,2.41,2.43.84.28,2,.67,3.13,1.08l.79.3c.12-.29.24-.57.34-.85l1.31-3.5a2.69,2.69,0,0,0,.86-1.57c0-.57-.54-.88-1.26-1.15a16,16,0,0,0-1.84-.54L39,85.39l-.23-.06"/><path class="cz" d="M35.72,91.57a1.31,1.31,0,0,1,.24.89h0v0a6.51,6.51,0,0,1-.15,1.19c.77.27,1.16,1.6,1.46,2.9a3.18,3.18,0,0,0,2-1.51,11.47,11.47,0,0,0,1-1.91l-.79-.3c-1.13-.41-2.29-.8-3.13-1.08l-.65-.22"/><path class="cz" d="M35.26,91.39h-.08l.54.17a.62.62,0,0,0-.46-.18"/><path class="da" d="M24,77.21c-.54.12-1.12.22-1.72.3H22.2a.92.92,0,0,1-.57-.22.93.93,0,0,0,.62.27h.09c.57-.07,1.12-.16,1.64-.27l0-.07"/><path class="db" d="M24,66.34l-.16.17A11.84,11.84,0,0,0,22.57,71a1.3,1.3,0,0,0,.33.7.59.59,0,0,1,.13.45c0,.07,0,.15,0,.23a1.25,1.25,0,0,0,0,.21h0c-.53,1.33-1.85,2.48-1.86,3.8,0,.07,0,.13,0,.2a1.18,1.18,0,0,0,.44.72,1.08,1.08,0,0,1-.38-.67,1.34,1.34,0,0,1,0-.2c0-1.33,1.32-2.47,1.86-3.8a.71.71,0,0,1,0-.21v-.24a.61.61,0,0,0-.13-.45,1.24,1.24,0,0,1-.33-.69h0A12.15,12.15,0,0,1,24,66.34"/><path class="dc" d="M27,63.58a8.08,8.08,0,0,1-1.33.44A7.66,7.66,0,0,1,24,66.34,12.15,12.15,0,0,0,22.62,71a1.24,1.24,0,0,0,.33.69.61.61,0,0,1,.13.45v.24a.71.71,0,0,0,0,.21h0c-.54,1.33-1.86,2.47-1.86,3.8a1.34,1.34,0,0,0,0,.2,1.08,1.08,0,0,0,.38.67.92.92,0,0,0,.57.22h.09c.6-.08,1.18-.18,1.72-.3a2,2,0,0,0,.1-.21c.24-.58.41-1.34.65-2.16.07-.27.13-.55.2-.83a12.88,12.88,0,0,1-.6-2h0s.69-3,1.75-6.09c.28-.81.58-1.62.9-2.37"/><path class="cv" d="M28.48,62.59a3.45,3.45,0,0,1-1.26.9l-.21.09c-.32.75-.62,1.56-.9,2.37C25.05,69,24.36,72,24.36,72a12.88,12.88,0,0,0,.6,2c.14-.61.28-1.26.47-1.91.12-.48.23-1,.37-1.48s.29-1,.43-1.48c.26-1,.61-1.92.89-2.83L28,64l.09-.25.42-1.11"/><path class="dd" d="M50.09,105a2.74,2.74,0,0,1-.49.29c-.14.06-.29.44-.43.66a2.06,2.06,0,0,0-.14.73.36.36,0,0,0,.06.25H49c-.06,0-.09,0-.09,0s.64.66,1.33,1.1a4.49,4.49,0,0,0,1.52.68c.08,0,.12,0,.12-.09a.26.26,0,0,0-.05-.15h0a2.13,2.13,0,0,0,.18.22l-.27-.41A25.43,25.43,0,0,1,50.09,105"/><path class="de" d="M58.45,108.57,58,109a10.88,10.88,0,0,0,3.22,1.68,7.6,7.6,0,0,1,2.16,1.18l-.1-.15a4,4,0,0,0-1.06-.9,14.76,14.76,0,0,0-3.79-2.24"/><path class="df" d="M49.34,84.61c-.79.08-2.08.3-3,.34a3.24,3.24,0,0,0,.13.41h0a3.1,3.1,0,0,0,1.45.27c.26,0,.56,0,.88,0l1.2,0a1.11,1.11,0,0,0,.09-.37A.24.24,0,0,0,50,85c-.23-.09-.26-.36-.63-.36"/><path class="dg" d="M52.25,104.51a12.57,12.57,0,0,0,1.63,2.34c.32.4.65.8,1,1.18-.11-.41-.23-.88-.36-1.3a.94.94,0,0,1-.67-.78c0-.24,0-.48-.05-.72a4.34,4.34,0,0,0-1.54-.72"/><path class="dg" d="M58,109l-.09.1a3.89,3.89,0,0,1-1.26.77l1,.84a1.23,1.23,0,0,0,.51.11h.11c.84.06,1.79-.16,2,.75a3.43,3.43,0,0,0,.74,1.33c.66.38,1.43.5,2,.87a5.54,5.54,0,0,1,1.53.52,1.37,1.37,0,0,1-.2-.38c-.37-.66-.58-1.41-1-2a7.6,7.6,0,0,0-2.16-1.18A10.88,10.88,0,0,1,58,109"/><path class="dh" d="M50.77,104.34a4.77,4.77,0,0,1-.68.67,25.43,25.43,0,0,0,1.69,3.33l.27.41a1.48,1.48,0,0,0,1.11.36,6.59,6.59,0,0,0,.75,0c.26,0,.52,0,.78,0a3.17,3.17,0,0,1,.44,0v0l-.25-1c-.34-.38-.67-.78-1-1.18a12.57,12.57,0,0,1-1.63-2.34,6.19,6.19,0,0,0-1.27-.17h-.21"/><path class="dh" d="M56.67,109.87h-.06a3.92,3.92,0,0,0,1,.83l-1-.84"/><path class="dh" d="M63.05,113.76a1.85,1.85,0,0,1,.59.59c.24.49.33,1.25.59,1.77a.86.86,0,0,0,.78.56h.36a2.3,2.3,0,0,1,.28.06l.09,0a1,1,0,0,0,.28,0,.28.28,0,0,0,.26-.13c-.18-.24-.25-.68-.49-1-.33-.58-.86-.88-1.21-1.39a5.54,5.54,0,0,0-1.53-.52"/><path class="di" d="M52.43,98.61l-.09.07v0c0,.13,0,.26,0,.39h0c0,.32,0,.63,0,1a4.25,4.25,0,0,0,.08.95,6.18,6.18,0,0,0,1.16,2c-.08-.69-.19-1.36-.32-2a22,22,0,0,0-.83-2.4"/><path class="di" d="M58,108.41a1.25,1.25,0,0,1-.35.17A3.62,3.62,0,0,0,58,109l.43-.43-.44-.16"/><path class="dj" d="M52.34,98.68c-.42.32-.86.63-1.31.92a4.46,4.46,0,0,1,.19.88c.08.39.14.76.21,1.13a8,8,0,0,1,.79.75h0c-.16.2-.32.42-.48.65a9.1,9.1,0,0,0,.48,1.45l0,.05a4.34,4.34,0,0,1,1.54.72q-.07-1.16-.21-2.22a6.18,6.18,0,0,1-1.16-2,4.25,4.25,0,0,1-.08-.95h0c0-.32,0-.63,0-1,0-.13,0-.26,0-.39v0"/><path class="dj" d="M54.51,106.73c.13.42.25.89.36,1.3a24.06,24.06,0,0,0,1.8,1.84,3.89,3.89,0,0,0,1.26-.77L58,109a3.62,3.62,0,0,1-.36-.42.78.78,0,0,1-.26,0c-.62,0-1.12-.65-1.61-.91-.19-.12-.29-.4-.48-.64a5.05,5.05,0,0,0-.8-.34"/><path class="dk" d="M51,99.6c-.26.16-.52.32-.79.47a5.67,5.67,0,0,0,1.19,1.54c-.07-.37-.13-.74-.21-1.13A4.46,4.46,0,0,0,51,99.6"/><path class="dk" d="M51.74,103c-.31.45-.63.92-1,1.33H51a6.19,6.19,0,0,1,1.27.17l0-.05a9.1,9.1,0,0,1-.48-1.45"/><path class="dk" d="M54.87,108l.25,1v0a2.42,2.42,0,0,1,.48.13,2.63,2.63,0,0,1,1,.71h.06a24.06,24.06,0,0,1-1.8-1.84"/><path class="dl" d="M49,89.64c-.31.11-.62.21-.94.3a5.81,5.81,0,0,0,1-.09.76.76,0,0,0,0-.15L49,89.64"/><path class="di" d="M49,89.62l-.07,0,.07.06v-.08"/><path class="dl" d="M50.85,94.9l-.29.27h0l.3-.26,0,0"/><path class="dj" d="M50.56,95.17l-.32.28.33-.27h0"/><path class="dm" d="M46.45,85.37l0,.07a3.4,3.4,0,0,0,1.38.23c.27,0,.56,0,.88,0l1.23,0,0,0-1.2,0c-.32,0-.62,0-.88,0a3.1,3.1,0,0,1-1.45-.27"/><path class="dn" d="M47,87.92a7,7,0,0,1-1.24,1.54,5.27,5.27,0,0,0,2.21.48h0c.32-.09.63-.19.94-.3-.4-.35-.8-.7-1.19-1.08L47,87.92"/><path class="do" d="M47.07,87.76a.58.58,0,0,1,0,.16l.74.64c.39.38.79.73,1.19,1.08l.07,0c0-.22,0-.44,0-.66s0-.22,0-.33a14.25,14.25,0,0,1-2-.87"/><path class="dp" d="M46.47,85.44l0,.1a5.22,5.22,0,0,0,.25.61.7.7,0,0,1,.46.57,1,1,0,0,1,0,.25,2.2,2.2,0,0,1-.18.79h0a14.25,14.25,0,0,0,2,.87,10.35,10.35,0,0,1,.09-1.12A4.69,4.69,0,0,1,49.75,86a4.49,4.49,0,0,0,.21-.44l-1.23,0c-.32,0-.61,0-.88,0a3.4,3.4,0,0,1-1.38-.23"/><path class="dq" d="M45.78,89.46c-.14.15-.29.29-.43.43-.31.27-.79.45-1.1.72-1.11,1-1.38,2-2.8,3.06,1.09.52,1.87,1.1,1.87,1.86h0a.84.84,0,0,1,0,.27,2.12,2.12,0,0,0,.5.82c.23,0,.47.06.7.07l1.45.06,1.33,0h.9l.64-.34c0-.48.1-1,.13-1.43s.17-1,.49-1.11a1.43,1.43,0,0,1-.34-.39h0s.09-.1.25-.19l-.26-.18c-.12,0-.41.06-.54.11a.76.76,0,0,1-.09-.38,2.38,2.38,0,0,1,.05-.41A8.16,8.16,0,0,0,49,89.85a5.81,5.81,0,0,1-1,.09h0a5.27,5.27,0,0,1-2.21-.48"/><path class="dq" d="M49.76,94.15a5.19,5.19,0,0,0,.38.66h0c.15,0,.28.15.42.36l.29-.27a5.29,5.29,0,0,0-1.09-.75"/><path class="dr" d="M50.14,94.81a1.93,1.93,0,0,1,0,.24h0a4.15,4.15,0,0,1,0,.49l.12-.09.32-.28c-.14-.21-.27-.35-.42-.36"/><path class="ds" d="M49.42,93.9c-.32.12-.37.71-.49,1.11s-.09.95-.13,1.43a13.55,13.55,0,0,0,1.32-.9,4.15,4.15,0,0,0,0-.49,1.93,1.93,0,0,0,0-.24,5.19,5.19,0,0,1-.38-.66,2.7,2.7,0,0,1-.34-.25"/><path class="dt" d="M41.45,93.67l-.1.07a2.39,2.39,0,0,0-1,1.82c0,.38,1.68.86,3.42,1.06a2.12,2.12,0,0,1-.5-.82h0a.84.84,0,0,0,0-.27c0-.76-.78-1.34-1.87-1.86"/><path class="dt" d="M50.87,94.92l-.3.26.2.36a1.39,1.39,0,0,0,.12-.28,7,7,0,0,0,.3.95,1.31,1.31,0,0,0,.24.28,2.52,2.52,0,0,1,.38.45l-.2-.54a7.12,7.12,0,0,0-.42-1,1.61,1.61,0,0,0-.32-.48"/><path class="dt" d="M48.8,96.44l-.64.34a1.36,1.36,0,0,1,.53,0h.07c0-.13,0-.26,0-.39"/><path class="dt" d="M52.29,98.23v0l0,0,0-.09"/><path class="du" d="M50.89,95.26a1.39,1.39,0,0,1-.12.28,5.79,5.79,0,0,0,.42.67,7,7,0,0,1-.3-.95"/><path class="du" d="M52.29,98.28c0,.14,0,.27.05.4l.09-.07-.11-.29,0,0"/><path class="dv" d="M50.57,95.18l-.33.27-.12.09c0,.16,0,.33,0,.5a3.32,3.32,0,0,0,0,.53,10.09,10.09,0,0,0,.52,2c.12.35.26.69.37,1,.45-.29.89-.6,1.31-.92,0-.13,0-.26-.05-.4v0L52.2,98c-.13-.37-.26-.73-.39-1.07a2.52,2.52,0,0,0-.38-.45,1.31,1.31,0,0,1-.24-.28,5.79,5.79,0,0,1-.42-.67l-.2-.36"/><path class="dw" d="M50.12,95.54a13.55,13.55,0,0,1-1.32.9c0,.13,0,.26,0,.39a1.17,1.17,0,0,0,.38-.18,1,1,0,0,1,.41-.18h0c.55.59.41,1.79.48,2.93a2.3,2.3,0,0,0,.18.67c.27-.15.53-.31.79-.47-.11-.35-.25-.69-.37-1a10.09,10.09,0,0,1-.52-2,3.32,3.32,0,0,1,0-.53h0c0-.17,0-.34,0-.5"/><path class="dx" d="M23,56.35a12.57,12.57,0,0,1-.9,2,12.57,12.57,0,0,0,.9-2"/><path class="dx" d="M22,58.56A15.05,15.05,0,0,1,20,61.25,11.64,11.64,0,0,0,21,60c.36-.51.66-1,.91-1.44"/><path class="dx" d="M20,61.27l-.43.48a14.31,14.31,0,0,1-1,1,14.31,14.31,0,0,0,1-1l.43-.48"/><path class="dx" d="M17.64,63.49,17,64l-.33.25L17,64l.66-.54m.89-.73a10.82,10.82,0,0,1-.89.73,10.82,10.82,0,0,0,.89-.73"/><path class="dx" d="M16.64,64.29l-.58.63.58-.63"/><path class="dx" d="M16,64.94a15.36,15.36,0,0,0-1.28,1.56A15.36,15.36,0,0,1,16,64.94"/><path class="dx" d="M14.76,66.5A19.56,19.56,0,0,0,13.19,69l0,.09,0-.09a19.56,19.56,0,0,1,1.57-2.47"/><polyline class="dx" points="13.14 69.06 13.14 69.06 13.14 69.06"/><polyline class="dx" points="13.13 69.09 13.13 69.09 13.13 69.09"/><path class="dx" d="M13.13,69.09a2.72,2.72,0,0,0-.3.85,2.72,2.72,0,0,1,.3-.85"/><path class="dx" d="M12.83,69.94v0"/><path class="dx" d="M12.82,70q-.56.83-1.11,1.68l0-.06c.35-.55.71-1.09,1.07-1.62"/><path class="dx" d="M11.71,71.64s0,.14-.12.39c.08-.25.12-.39.12-.39"/><path class="dx" d="M11.59,72a8.5,8.5,0,0,0-.27,1,8.5,8.5,0,0,1,.27-1"/><path class="dx" d="M11.31,73.1c0,.15-.07.32-.1.49,0-.17.07-.34.1-.49"/><path class="dx" d="M11.21,73.59a20.82,20.82,0,0,0-.45,3,20.82,20.82,0,0,1,.45-3"/><path class="dx" d="M10.76,76.55c0,.08,0,.15,0,.22,0,.44,0,.89,0,1.34,0-.45,0-.9,0-1.34,0-.07,0-.14,0-.22"/><path class="dx" d="M10.71,78.11a9.83,9.83,0,0,0,.21,2.23,9.83,9.83,0,0,1-.21-2.23"/><path class="dx" d="M10.92,80.34a7.5,7.5,0,0,0,.35,1.23A2.84,2.84,0,0,0,12,82.68l.07,0-.07,0a2.84,2.84,0,0,1-.71-1.11,7.5,7.5,0,0,1-.35-1.23"/><path class="dx" d="M12.05,82.74s0,.28.14.67a5.77,5.77,0,0,1-.13-.65v0"/><path class="at" d="M12.19,83.41h0v0h0v0h0"/><path class="dx" d="M12.2,83.45c.09.41.2.93.31,1.48-.11-.55-.22-1.07-.31-1.48"/><path class="dx" d="M12.51,84.93l0,.11a18.35,18.35,0,0,1,.36,2.19A18.35,18.35,0,0,0,12.53,85l0-.11"/><path class="dx" d="M12.94,88.13a6.85,6.85,0,0,0,.52,1.49,6.85,6.85,0,0,1-.52-1.49"/><path class="dx" d="M13.46,89.62a9.32,9.32,0,0,0,3.24,3.69l.34.21-.34-.21a9.32,9.32,0,0,1-3.24-3.69"/><path class="dy" d="M61,106.38a19.23,19.23,0,0,0-2.59,2.19,14.76,14.76,0,0,1,3.79,2.24,4,4,0,0,1,1.06.9l.1.15.66.47a13.43,13.43,0,0,0,2.11,1.38,12.71,12.71,0,0,0-.69-1.8A15.15,15.15,0,0,0,61,106.38"/><path class="dz" d="M53.79,105.23c0,.24,0,.48.05.72a.94.94,0,0,0,.67.78,4,4,0,0,0-.55-1.37l-.17-.13"/><path class="dz" d="M63.4,111.86c.4.63.61,1.38,1,2a1.37,1.37,0,0,0,.2.38l.32.16c.63.3,1.25.68,1.84,1-.2-.56-.38-1.15-.57-1.71a13.43,13.43,0,0,1-2.11-1.38l-.66-.47"/><path class="ea" d="M64.58,114.28c.35.51.88.81,1.21,1.39.24.33.31.77.49,1h0a1,1,0,0,1,.24,0,.68.68,0,0,0,.21.06.12.12,0,0,0,.13-.12.8.8,0,0,0,.06-.3,4.58,4.58,0,0,0-.13-.74,1.8,1.8,0,0,0-.08-.21c-.59-.3-1.21-.68-1.84-1l-.32-.16"/><path class="eb" d="M53.74,97.53c-.29.26-.6.52-.92.78l-.32.25a9.89,9.89,0,0,0,2,1.91c-.09-.46-.18-.92-.26-1.39a10.12,10.12,0,0,0-.47-1.55"/><path class="ec" d="M52.5,98.56l-.07,0a22,22,0,0,1,.83,2.4c.13.64.24,1.31.32,2a27.24,27.24,0,0,0,2,2.08c-.42-1.61-.78-3.12-1.08-4.62a9.89,9.89,0,0,1-2-1.91"/><path class="ec" d="M56.91,105.66a1.73,1.73,0,0,0-.68.14,7.43,7.43,0,0,1,.6,1c.2.37.37.76.57,1.2a2,2,0,0,0,.26.53,1.25,1.25,0,0,0,.35-.17l.44.16A19.23,19.23,0,0,1,61,106.38l-.44-.29a.63.63,0,0,0-.33-.09c-.32,0-.68.17-1,.2h-.22a2.86,2.86,0,0,1-1-.27,2.88,2.88,0,0,0-1.09-.28"/><path class="ed" d="M53.58,103q.14,1.06.21,2.22l.17.13a4,4,0,0,1,.55,1.37,5.05,5.05,0,0,1,.8.34c.19.24.29.52.48.64.49.26,1,.91,1.61.91a.78.78,0,0,0,.26,0,2,2,0,0,1-.26-.53c-.2-.44-.37-.83-.57-1.2a7.43,7.43,0,0,0-.6-1l-.09,0a.31.31,0,0,1-.13,0,.39.39,0,0,1-.32-.23c0-.18-.1-.37-.14-.55a27.24,27.24,0,0,1-2-2.08"/><path class="eb" d="M52.09,93.65c-.4.43-.82.85-1.24,1.25l0,0a17.41,17.41,0,0,0,1.28-1.21l-.06-.06"/><path class="ee" d="M50.63,93a2.85,2.85,0,0,0-.41,0,3,3,0,0,0-.89.33c-.16.09-.26.17-.25.19h0a1.43,1.43,0,0,0,.34.39h0a.09.09,0,0,1,.06,0c.08,0,.17.12.25.28a5.29,5.29,0,0,1,1.09.75c.42-.4.84-.82,1.24-1.25a1.85,1.85,0,0,0-1.46-.7"/><path class="ef" d="M49.51,93.87a.09.09,0,0,0-.06,0h0a2.7,2.7,0,0,0,.34.25c-.08-.16-.17-.28-.25-.28"/><path class="eg" d="M52.15,93.71a17.41,17.41,0,0,1-1.28,1.21,1.61,1.61,0,0,1,.32.48,7.12,7.12,0,0,1,.42,1l.2.54a3,3,0,0,1,.48,1.29l0,.09.18.24.32-.25c.32-.26.63-.52.92-.78-.16-.44-.34-.9-.52-1.33-.4-1-.76-2-.88-2.24l-.19-.25"/><path class="eh" d="M52.32,98.32l.11.29.07,0-.18-.24"/><path class="ei" d="M51.81,96.94c.13.34.26.7.39,1.07l.09.22a3,3,0,0,0-.48-1.29"/><path d="M132.71,84.24c-.11-.1-.28-.17-.31-.28-.52-1.68-1.91-2.57-3.24-3.45s-2.7-1.56-4.07-2.3a3.82,3.82,0,0,0-.92-.21c-.12,1.82-.12,3.58-.38,5.31-.33,2.21-.88,4.4-1.33,6.59a12.25,12.25,0,0,1-1.94,4.4c-1.58,2.35-3.13,4.71-4.7,7.06-.68,1-1.3,2.06-2,3-1.65,2.1-3.33,4.2-5.09,6.22-1.25,1.43-2.65,2.73-4,4.08s-2.48,2.48-3.75,3.69c-1,1-2.11,1.89-3.12,2.88a22.66,22.66,0,0,1-4.55,3.61,42.38,42.38,0,0,0-4,2.35,6.65,6.65,0,0,1-3.7,1.18,20.62,20.62,0,0,1-2.31-.25c-1.46-.09-2.93-.08-4.38-.21-1.63-.16-3.26-.38-4.87-.65a19.56,19.56,0,0,0-5.24,0c-3.34.31-6.7.54-9.8-1.31-1.29-.77-2.76-1.23-4.09-1.94-1.15-.61-2.23-1.36-3.32-2.06-.91-.59-1.8-1.18-2.69-1.79-2.16-1.49-4.34-3-6.46-4.51a23.39,23.39,0,0,1-2.76-2.4c-2.7-2.69-5.56-5.22-8.06-8.11s-5.26-5.8-7.1-9.28a32.52,32.52,0,0,1-1.63-4.36c-.2-.6-.29-1.24-.5-1.83a32.1,32.1,0,0,1-1.91-9.28c-.18-3.37-.28-6.74-.46-10.1a25.7,25.7,0,0,1,1.1-7.94,74,74,0,0,1,3.56-9.44A42.14,42.14,0,0,1,32.72,41c.62-.69,1.14-1.46,1.78-2.13A53.19,53.19,0,0,1,39.36,34a23.25,23.25,0,0,1,4.7-2.58c1.5-.72,3.07-1.26,4.59-1.92a47.77,47.77,0,0,1,10-3.15c1.86-.35,3.73-.72,5.6-1.05a16.93,16.93,0,0,1,9.34.9,54,54,0,0,1,8.88,4.49,2.19,2.19,0,0,0,1.34.29c2.39-.05,4.79-.08,7.17,0a5.35,5.35,0,0,1,3.76,1.73,1.19,1.19,0,0,0,.7.36,22.3,22.3,0,0,0,3,.19,27,27,0,0,1,7.28.65c2.9.67,5.83,1.28,8.68,2.11a62.71,62.71,0,0,1,7.59,2.69,18.67,18.67,0,0,1,8.76,7.74c.44.76.83,1.56,1.32,2.28,1.08,1.6,1.27,3.44,1.68,5.25.75,3.35.41,6.71.24,10.07-.05.87-.3,1.73-.38,2.61-.26,2.8-.49,5.61-.73,8.42a6,6,0,0,1-.05.74,18.72,18.72,0,0,0,.1,8.39ZM85.47,34.57c.63,2.09,1.24,4.2,1.89,6.29A38.42,38.42,0,0,0,89,45.72c1.65,3.58,3.18,7.23,5.6,10.4a81,81,0,0,0,5.25,6.67A38.15,38.15,0,0,0,106,68.4a43.47,43.47,0,0,0,9,4.89c2.68,1,5.48,1.75,8.2,2.67a24.39,24.39,0,0,1,3.48,1.51c1.41.74,2.75,1.61,4.17,2.45.1-.75.22-1.51.32-2.26.15-1.21.35-2.42.44-3.64.13-1.55.1-3.11.26-4.66.28-2.91.87-5.78,1.05-8.72a25.58,25.58,0,0,0-1-9,16.5,16.5,0,0,0-6.8-9.6,39.54,39.54,0,0,0-6.25-3.19A80.84,80.84,0,0,0,109.28,36a39.6,39.6,0,0,0-11.86-1.48c-2.68.09-5.36-.06-8-.06-1.3,0-2.6.06-3.9.1l.22-1.52c1.25,0,2.45,0,3.66,0s2.37.1,3.63.16a2.87,2.87,0,0,0-1.92-.83c-1.36-.11-2.73-.23-4.1-.26a15,15,0,0,0-6.68,1.18c-.79.35-1.51.87-2.27,1.29a5.84,5.84,0,0,0-2.39,2.87,4.58,4.58,0,0,0,0,1.48l8-4.93C84.24,33.6,84.83,33.76,85.47,34.57Zm36.79,42.66c-1.81-.65-3.57-1.43-5.4-1.91a34.92,34.92,0,0,1-9.18-4.11,45,45,0,0,1-10.33-9.28,50.81,50.81,0,0,1-7.41-11.06,48.25,48.25,0,0,1-4.38-11.62,37.5,37.5,0,0,0-1.26-4c-2.94.64-5,2.85-7.88,3.74.3.94.58,1.84.88,2.75a8,8,0,0,0,1.14-.11,17.72,17.72,0,0,1,5.24-.24c1,0,1.25.36,1.1,1.5-.13,0-.28.11-.4.08a11.92,11.92,0,0,0-5.08.1,17.7,17.7,0,0,1-2.92.14c-.64,0-1.31-.55-1.93.1,0,0-.23-.08-.25-.15-.11-.56-.58-.44-.93-.5-1.11-.19-2.22-.35-3.32-.55a15.36,15.36,0,0,1-9.37-5c.26-.57.58-1.21.83-1.87A4.72,4.72,0,0,0,61.67,34c0-.29-.11-.59-.07-.87s.17-.61.35-.68a.83.83,0,0,1,.74.21,2.46,2.46,0,0,1,.17,3.19c-.66.87-.64.86,0,1.65,1.78,2.09,4.41,2.27,6.86,3.34,0-.49,0-.72-.07-1-.24-1.27-.18-1.29,1.09-1.07.49.09,1.37,0,1.47-.21.35-.87,1.08-.66,1.47-.72A12,12,0,0,1,75,35.55,12.32,12.32,0,0,1,79.75,32c.42-.16.81-.4,1.4-.69-2.48-1.26-4.66-2.46-6.93-3.47a16.72,16.72,0,0,0-4-1.2,18.79,18.79,0,0,0-6.85.1c-1.34.27-2.68.51-4,.82-1.66.38-3.31.8-5,1.24a62.75,62.75,0,0,0-9.24,3.66,19.11,19.11,0,0,0-4.38,2.33,42.84,42.84,0,0,0-6.31,6.25c-2.79,3.55-5.89,6.86-7.76,11.06-.92,2.05-1.93,4.06-2.74,6.14-.63,1.64-.92,3.4-1.54,5a22.15,22.15,0,0,0-1,8.66c.09,2.69.2,5.38.46,8.06a53.22,53.22,0,0,0,1,6.64,63.18,63.18,0,0,0,1.85,6.16,9.82,9.82,0,0,0,3.19,5,4.19,4.19,0,0,1,2,3.08c0,.25.28.51.47.73,1.65,1.85,3.27,3.73,5,5.53,1.4,1.48,2.89,2.89,4.4,4.27,1.22,1.11,2.51,2.17,3.81,3.2,1.1.87,2.25,1.68,3.41,2.48,2,1.41,4,2.91,6.17,4.17s4.31,2.25,6.5,3.29A24.65,24.65,0,0,0,63,125.81c1.63.49,3.32.09,4.92-.1,4.48-.53,8.87.23,13.28.67,1.94.19,3.85.67,5.74-.25.26-.13.64,0,.92,0,0-.28-.11-.62,0-.66a3.7,3.7,0,0,1,1.44-.59,4.47,4.47,0,0,0,2.57-.88c.93-.63,1.84-1.28,2.74-2a4.11,4.11,0,0,0,.54-.67l-.8-.07a6.2,6.2,0,0,1,1.53-1.15,27.26,27.26,0,0,0,3.37-2.28c1.79-1.6,3.39-3.39,5.15-5a65.37,65.37,0,0,0,7.6-8.53q3.06-4,5.84-8.26a22.92,22.92,0,0,0,2.81-5.28C122.06,86.47,123.21,82.07,122.26,77.23ZM74.94,41.34l.09-.27L72,40.76l0,.21Z"/><path d="M92.59,122l.94-.46.14.13c-.11.16-.19.37-.33.45S93,122,92.59,122Z"/><path d="M121.85,81c0-.2,0-.41,0-.61a.49.49,0,0,1,.14,0V81Z"/><path d="M126.4,73.77a2,2,0,0,1-.49-.21,19.29,19.29,0,0,1-5.56-7.63c-.8-2.24-1.73-4.45-2.56-6.69a24.91,24.91,0,0,0-3.16-5.6,56.51,56.51,0,0,0-4.2-5.61c-2-2.16-4.19-4.09-6.32-6.1a6.35,6.35,0,0,0-1.22-.78A34.55,34.55,0,0,0,89.12,37c-.61-.06-1.34,0-1.34-1.12a19.45,19.45,0,0,1,3.15,0A36.49,36.49,0,0,1,99.6,38a21.75,21.75,0,0,1,6.71,4.07l3.82,3.64c2.35,2.25,4,5,5.9,7.65a26.24,26.24,0,0,1,3.21,5.91c.62,1.59,1.16,3.2,1.75,4.8a23.29,23.29,0,0,0,3.67,6.61c.73.9,1.34,1.89,2,2.83Z"/></svg>