<svg xmlns="http://www.w3.org/2000/svg" viewBox="0 0 150 150"><defs><style>.a{fill:#fee9ca;}.b{fill:#fcd8a7;}.c{fill:#f5af7f;}.d{fill:#fcd097;}.e{fill:#f6b080;}.f{fill:#fbb05f;}.g{fill:#f9ae5a;}.h{fill:#f9b768;}.i{fill:#f49551;}.j{fill:#fcc487;}.k{fill:#fce4c3;}.l{fill:#fcc180;}.m{fill:#fcd099;}.n{fill:#fff4e7;}.o{fill:#f8b09e;}.p{fill:#ef9265;}.q{fill:#ee7839;}.r{fill:#ef7636;}.s{fill:#ef7d40;}.t{fill:#ef9c77;}.u{fill:#ee885c;}.v{fill:#ee7054;}.w{fill:#e74b1e;}.x{fill:#e54b1c;}.y{fill:#e54e23;}.z{fill:#ec6c4e;}.aa{fill:#e75934;}.ab{fill:#e3491b;}.ac{fill:#e7491b;}.ad{fill:#e74d20;}.ae{fill:#ef795d;}.af{fill:#e9643d;}.ag{fill:#e95222;}.ah{fill:#e75221;}.ai{fill:#e75626;}.aj{fill:#f4937d;}.ak{fill:#ed642d;}.al{fill:#ed632c;}.am{fill:#ed6a32;}.an{fill:#f9cdbe;}.ao{fill:#f3ab7b;}.ap{fill:#f3b491;}.aq{fill:#f28c75;}.ar{fill:#eb764b;}.as{fill:#f7b17f;}.at{fill:#eb652f;}.au{fill:#f5954f;}.av{fill:#fce8e4;}.aw{fill:#f7c493;}.ax{fill:#f7cfae;}.ay{fill:#ef8852;}.az{fill:#e85e36;}.ba{fill:#e95b31;}.bb{fill:#ed6f40;}.bc{fill:#ed7c51;}.bd{fill:#f39f63;}.be{fill:#eb7b58;}.bf{fill:#eb6d3d;}.bg{fill:#f7b376;}</style></defs><title>icon</title><path class="a" d="M65.65,132.76l.18.07s.33.1.94.25,1.45.39,2.58.58a39,39,0,0,0,7.58.71h0a39,39,0,0,1-7.58-.71l-.11,0c-1.07-.19-1.87-.42-2.47-.56h0c-.61-.15-.94-.25-.94-.25h0l-.18-.07h0m25.17-1.82h0a6.58,6.58,0,0,1-1.91,1.19h0a6.58,6.58,0,0,0,1.91-1.19m4.39-1.68-.11,0c-2,.79-3.8,1.4-4.13,1.51h0c.33-.11,2.08-.72,4.13-1.51l.11,0m5.64-2.16h0a4.47,4.47,0,0,0-.46.13h0a4.47,4.47,0,0,1,.46-.13m0,0h0m.36-.16h0m4.57-2.72h0a27,27,0,0,1-3.55,2.23l0,0h0a25.64,25.64,0,0,0,3.59-2.25h0M49.18,123l.55.56s1.94,1.64,4.56,3.41c.65.44,1.35.88,2.06,1.31s1.42.83,2.11,1.19l1.22.61h0l-1.22-.61c-.69-.36-1.42-.77-2.11-1.19h0c-.71-.43-1.41-.87-2.06-1.31h0c-2.51-1.7-4.4-3.28-4.55-3.4h0l-.55-.56h0m-8.79-7.33c1.08.81,2.12,1.57,3.07,2.29.43.32.82.63,1.2.94h0c-.36-.29-.72-.58-1.12-.88l-.08-.06h0c-1-.72-2-1.48-3.07-2.29h0m73.78-2.14h0a25.11,25.11,0,0,1-3.49,5.94l-.11.14.11-.14a25.11,25.11,0,0,0,3.49-5.94"/><path class="b" d="M91.37,47.37l-.89,0c-1.16,0-2.36.1-3.49.23s-2.14.31-3.19.51c-2.49.3-4.76,0-7.23.43a29.91,29.91,0,0,0-3.16,1c-.53.2-1,.41-1.57.65s-1.2.52-1.77.81a25.1,25.1,0,0,0-5.94,4.17A31.24,31.24,0,0,0,61.49,58a25.23,25.23,0,0,0-4.16,6.09c-.48,1-.78,1.69-1.07,2.42s-.5,1.38-.69,2c-.07.21-.13.41-.19.61.13,1,.28,1.92.47,2.94,0,.07,0,.11.08.11s0,0,.07-.1c.17-.56.34-.61.5-.61h.09c.11,0,.21,0,.31-.22s.2-.6.31-.6h0c.63.41,1.29,1.85,2.13,3.71.35.82.73,2,1.18,3,0,.13.09.26.14.4.39-.92.82-1.84,1.14-2.8,1.26-3.41,1.26-7.15,3.72-9.1a.7.7,0,0,1-.29.16s0,0,0,0h0a2.91,2.91,0,0,1,.6-1,12.27,12.27,0,0,1,3.1-2.68,10.18,10.18,0,0,1,3.54-1.37q.09,0,.09,0h0s-.06.08-.2.15h.11a1.78,1.78,0,0,1,1.17.52,5.59,5.59,0,0,1,.19.63h0a.2.2,0,0,1-.06.15A2.6,2.6,0,0,0,73,64.22c0,.84.34,1.65.41,2.44h0a19.76,19.76,0,0,1,2.73-.56,29.39,29.39,0,0,1,3.15-.27h.4a8.16,8.16,0,0,1,2.23.24c1,.32,1.88.72,2.71,1.07.42.18.83.33,1.22.48l.59.18.48.13c.32-.07.58-.68,1-.72h0c.24,0,.91-.16,1.93-.21h.35a9.63,9.63,0,0,1,3,.48A10.9,10.9,0,0,1,97,69.59c2.43,2,4,4.9,4,5.66h0a5.14,5.14,0,0,1-.29,1.6l.29-.08a28.08,28.08,0,0,0,5.14-2l.24-.17a.45.45,0,0,0,.12,0,2.89,2.89,0,0,0,1.34-1.38c.32-1,.24-1.88,1.84-2.8A25.7,25.7,0,0,1,116,67.73a1.1,1.1,0,0,1,.31,0,1.49,1.49,0,0,1,.43.06,1.29,1.29,0,0,1,.44.21c-.06-1.85-.23-3.62-.36-4.58a14.77,14.77,0,0,0-3.58-7.23c-.48-.54-1-1.14-1.6-1.68a20.06,20.06,0,0,0-1.74-1.5,23,23,0,0,0-3.51-2.25,37.83,37.83,0,0,0-9.12-2.85,36.44,36.44,0,0,0-5.94-.5"/><path class="b" d="M117.24,69a16.23,16.23,0,0,0-1.06,1.77c.1.13,0,.41.29.49a.81.81,0,0,1,.45.33,4.34,4.34,0,0,1,.08.8h0a5.55,5.55,0,0,1-.55,2.27c0,.11,0,.23,0,.34,0,.77.21,1.39.21,2.16h0c0,.12,0,.26,0,.39a2.15,2.15,0,0,0,0,.43c0,.48.15.92.15,1.38h0a1.78,1.78,0,0,1-.37,1.08,2.83,2.83,0,0,0-.37,1.28c0,.77.48,1.5,1.5,2.6.11.12.23.27.36.44,0-.76-.08-1.52-.12-2.26-.15-2.37-.3-4.79-.56-7.38a6.28,6.28,0,0,1,0-.83h0c0-1.08.1-2.73.1-4.52v-.14h0V69"/><path class="b" d="M96.13,80.74a2.18,2.18,0,0,1-.31.22.64.64,0,0,1-.24.05,2.4,2.4,0,0,1-.43-.07,1.61,1.61,0,0,0-.43-.07.67.67,0,0,0-.24,0A5.15,5.15,0,0,0,92.1,84a19.62,19.62,0,0,0-.77,4.94,9.36,9.36,0,0,0,0,.94h0a17.42,17.42,0,0,1-.63,2.76A18,18,0,0,0,91.41,95c.08.31.18.59.26.83l.19.56a.88.88,0,0,1,.07.31h0a.29.29,0,0,1-.17.28h0c0,.1.35.55.68,1.25a4.64,4.64,0,0,1,.41,1.29,3.92,3.92,0,0,1,.05.59h0a3.19,3.19,0,0,1-.12.86,6.22,6.22,0,0,0,1,.11v0c0-.23.08-.57.13-1,.08-.83.1-1.79.17-2.87.14-2.12.43-4.75,2.83-7l.11-.23a4.37,4.37,0,0,1-1.17-.72c-.22-.21-.26-.36-.26-.43h0v-.05l.06-.08a2.23,2.23,0,0,0-.09-.48,4.24,4.24,0,0,0-.36-.5l-.08,0a2.57,2.57,0,0,1-.71-.23c-.66-.27-.85-.6-.9-1,0,0,0,0,0,0a2.21,2.21,0,0,1-.12-.74h0a1.73,1.73,0,0,1,0-.28h0v0h0a3,3,0,0,1,.56-.63,3.67,3.67,0,0,1,.52-.7c.33-.38.69-.74.69-.74l.18-.11.89-.82.13-.15a1.35,1.35,0,0,0,.2-.69v0a1.65,1.65,0,0,0-.43-.78"/><path class="c" d="M95.57,88.79h0c0,.07,0,.22.26.43a4.37,4.37,0,0,0,1.17.72h0a4.37,4.37,0,0,1-1.17-.72h0c-.22-.21-.26-.36-.26-.43h0m-.38-1.11h0a4.24,4.24,0,0,1,.36.5h0a4.24,4.24,0,0,0-.36-.5h0m-.79-.25h0a2.57,2.57,0,0,0,.71.23h0a2.57,2.57,0,0,1-.71-.23h0m-1-1.74h0a2.21,2.21,0,0,0,.12.74s0,0,0,0h0s0,0,0,0h0v0a2.06,2.06,0,0,1-.12-.71h0"/><path class="b" d="M96.56,81.52v0h0a1.35,1.35,0,0,1-.2.69.94.94,0,0,0,.21-.58.62.62,0,0,0,0-.13"/><path class="c" d="M96.56,81.54h0a1.35,1.35,0,0,1-.2.68h0a1.35,1.35,0,0,0,.2-.69h0"/><path class="b" d="M27.2,82.9l-.27.61a32.73,32.73,0,0,0-2.78,5.72,10.15,10.15,0,0,0-.46,3.11,12.42,12.42,0,0,0,1.12,5,50.63,50.63,0,0,0,3.35,6c.36.56.76,1.15,1.17,1.73s.93,1.27,1.41,1.86a35.3,35.3,0,0,0,3.13,3.44,55.8,55.8,0,0,0,6.45,5.24l.07,0c-1.45-1.08-3-2.25-4.42-3.53-.7-.61-1.35-1.22-1.95-1.82a45,45,0,0,1-3.73-4.2l-.1-.12-.1-.13,0,0h0l0,0,0,0v0l0,0,0,0-1.71-2.27h0l1.71,2.27,0,0,0,0v0l0,0,0,0h0l0,0,.1.13.1.12a45,45,0,0,0,3.73,4.2c.6.6,1.25,1.21,1.95,1.82,1.45,1.28,3,2.45,4.42,3.53,1.64,1.18,3.07,2.2,4.27,3.23.64.51,1.24,1,1.89,1.61.86.77,1.72,1.6,2.63,2.49.65.57,1.33,1.13,2,1.69a44,44,0,0,0,7.9,5.05c.13.09.33.2.57.34a16.85,16.85,0,0,0,2.07.83l2,1,1.92.84a57.85,57.85,0,0,0,7.2,1.31,41,41,0,0,0,4.72.27c.4,0,.79,0,1.18,0A33.66,33.66,0,0,0,86.41,133l.21-.06a18.13,18.13,0,0,0,2.29-.85,10.57,10.57,0,0,0,1.91-1.19l.09-.11.06,0,.09-.08,4.35-1.54c1.87-.71,3.92-1.61,5-2l.9-.42A28.44,28.44,0,0,0,106,124a23,23,0,0,0,4.6-4.52,33,33,0,0,0,3.53-5.9,7.11,7.11,0,0,1-4.51,1.25h-.52a13.93,13.93,0,0,1-2.22-.4l-.1.12a25.63,25.63,0,0,1-4.19,4.14,31.86,31.86,0,0,1-9.31,5,14,14,0,0,0-1.83.8,55.21,55.21,0,0,0-5.09,3s-.82.31-2.29.7a29.25,29.25,0,0,1-6.32,1l-1,0a26.68,26.68,0,0,1-7.1-.91,15.19,15.19,0,0,1-5.87-3s-1-.61-2.54-1.61-3.45-2.42-5.37-4l-5.62-4.59c-.89-.7-1.71-1.33-2.53-1.9s-1.66-1.1-2.44-1.53c0,0-.9-1.24-2.32-2.92-.88-1-2-2.31-3.13-3.55l-.63-.59c-1-.94-1.45-1.52-1.45-1.52h0c.68.63,1.38,1.36,2.08,2.11a30.46,30.46,0,0,0,2.85,2.29,28.39,28.39,0,0,1-3.1-2.79A25,25,0,0,1,37,101.46a30.25,30.25,0,0,1-1.82-3.09,31.59,31.59,0,0,1-1.92-4.52,7.67,7.67,0,0,1-.46-2.08h0a1.17,1.17,0,0,1,0-.29s-.19-.6-.47-1.61a1.61,1.61,0,0,1-.37,0,1.7,1.7,0,0,1-.77-.2l-.12,0a4.49,4.49,0,0,1-1.28-.77v0h0a3.44,3.44,0,0,1-.38-1,4.24,4.24,0,0,1-.43-1v-.09h0c-.17-.56-.27-1.06-.27-1.06h0a1.7,1.7,0,0,0,0-.22c-.06-.43-.11-.89-.16-1.35,0-.07,0-.13-.05-.19a2.11,2.11,0,0,0-.51-.77,2.17,2.17,0,0,0-.76-.33"/><path class="d" d="M34,110.35c.6.6,1.25,1.21,1.95,1.82,1.45,1.28,3,2.45,4.42,3.53h0c-1.39-1-2.85-2.15-4.24-3.37l-.18-.16h0c-.7-.61-1.35-1.22-1.95-1.82h0m-4-4.49h0l0,0,0,0h0"/><path class="c" d="M29.81,88.87h0v0a4.49,4.49,0,0,0,1.28.77l.12,0h0l-.12,0h0a4.8,4.8,0,0,1-1.28-.76h0v0h0m-.85-2v0a4.24,4.24,0,0,0,.43,1h0a4.24,4.24,0,0,1-.43-1h0v0h0m-.29-1.13h0M28,83.23h0a2.11,2.11,0,0,1,.51.77h0a2.11,2.11,0,0,0-.51-.77h0"/><path class="b" d="M95.34,83.2l-.18.11s-.36.36-.69.74a3.67,3.67,0,0,0-.52.7l.09-.07a5.78,5.78,0,0,1,1.3-1.48"/><path class="c" d="M95.34,83.2l-.18.11h0s-.35.34-.67.72l0,0h0a3.67,3.67,0,0,0-.52.7h0a3.67,3.67,0,0,1,.52-.7c.33-.38.69-.74.69-.74l.18-.11h0"/><path class="b" d="M93.4,85.4h0a1.73,1.73,0,0,0,0,.28,2.21,2.21,0,0,0,.12.74l0,0c0-.11,0-.23,0-.34h0V86a1.62,1.62,0,0,0-.09-.61"/><path class="c" d="M93.4,85.4h0a1.89,1.89,0,0,0,0,.28h0a1.73,1.73,0,0,1,0-.28h0"/><path class="b" d="M94.4,87.44a3,3,0,0,0,.71.22c-.28-.07-.51-.15-.71-.22"/><path class="b" d="M95.19,87.68a4.24,4.24,0,0,1,.36.5,1.63,1.63,0,0,0-.31-.49h0"/><path class="b" d="M95.64,88.66l-.06.08v.05c0,.07,0,.22.26.43a4.37,4.37,0,0,0,1.17.72l0,0-.31-.14c-.95-.43-1-.75-1.07-1.11"/><path class="b" d="M115.7,109.71l-1.16.1a.21.21,0,0,0-.17.18.15.15,0,0,0,0,.11,1.24,1.24,0,0,1,.26.71h0c0,.46-.35.79-.35,1.23a.58.58,0,0,0,0,.22,2.89,2.89,0,0,0,.14.45c.06-.15.11-.3.16-.45,0,.15-.1.3-.16.45h0c.06-.15.11-.3.16-.45,0,.15-.1.3-.16.45h0c.06-.15.11-.3.16-.45,0,.15-.1.3-.16.45l0,.07.38-.9c.29-.72.56-1.45.79-2.17"/><polyline class="e" points="93.4 85.4 93.38 85.41 93.38 85.41 93.38 85.41 93.38 85.41 93.38 85.41 93.4 85.4 93.4 85.4"/><path class="b" d="M52.47,48.25c-3.27,0-6.9,1.52-10.56,4s-6.21,7-8.07,12.47c-.07.21-.14.41-.2.61l.15-.15c0-.1,0-.19.07-.29,1.83-5.44,4.51-10.08,8-12.49s7.29-4,10.56-4h.29c.2,0,.29.18.29.45h0a2.5,2.5,0,0,1,0,.35,2.4,2.4,0,0,0,.07-.5c0-.26-.08-.44-.29-.44h-.29"/><path class="b" d="M59.88,78.71c-.69.21-1.2,2-1.81,3.68-.22.75-.6,1.45-1,1.45l-.12,0c-.34-.25-.42-1.63-.67-1.63h0l0,0c-.06,0,.11,1.17-2.47,2.27-.42.38-.87,1-1.33,1.56l.06.18a10.94,10.94,0,0,0,2.67,4.34A15.21,15.21,0,0,0,60.29,94a17.81,17.81,0,0,0,5.64,1.19c.73,0,1.45.06,2.17.06,1.21,0,2.4,0,3.6-.09h.12a22.52,22.52,0,0,1-3.1-1.62c-1.07-.48-2.29-.79-3.51-1.25a9,9,0,0,1-3.33-2.06A4.61,4.61,0,0,1,61,87.45h0v-.12a6.32,6.32,0,0,0-.48-2.06,13.43,13.43,0,0,1-.73-2.7,4.29,4.29,0,0,1-.1-.94h0A8.23,8.23,0,0,1,60.18,79h0c-.09,0-.17-.12-.26-.3"/><path class="b" d="M76.49,94.86,75.42,95l1.38,0a1.35,1.35,0,0,1-.31-.19"/><path class="b" d="M95.38,100.67l-1,.42.66,0,.16,0,.15-.35"/><path class="b" d="M103.87,105q-.08.83-.24,1.68h.08q.17-.66.27-1.32l-.11-.37"/><path class="b" d="M103.33,107.9c0,.09,0,.19-.08.28,0-.09.06-.18.1-.27h0"/><path class="b" d="M92.32,107.39a41.27,41.27,0,0,1-8.39,5.14,38.89,38.89,0,0,1-3.81,1.62,25.47,25.47,0,0,0,4-1.33,24.28,24.28,0,0,0,7.23-4.42,12.85,12.85,0,0,0,1-1"/><path class="b" d="M44.66,118.93l.61.53c1.28,1.22,2.55,2.4,3.91,3.57-.91-.89-1.77-1.72-2.63-2.49-.65-.58-1.25-1.1-1.89-1.61"/><path class="b" d="M91.14,119.58c-.73.24-1.6.51-2.53.77-1.8.53-4,1.09-6.08,1.48a29.06,29.06,0,0,0,6.18-1.34c.77-.26,1.58-.55,2.43-.91"/><path class="b" d="M100.39,127.23c-1.06.35-3.11,1.25-5,2,1.72-.62,3.37-1.24,5-2"/><path class="b" d="M59.68,130.11c.56.32,1.39.76,2.31,1.19a31.34,31.34,0,0,0,3.47,1.41l.19,0-1.92-.84-2-1a16.85,16.85,0,0,1-2.07-.83"/><path class="b" d="M91,130.81l-.06,0-.09.11.15-.13"/><path class="b" d="M88.91,132.13a18.13,18.13,0,0,1-2.29.85l-.21.06a33.66,33.66,0,0,1-7.66,1.28c.68,0,1.34-.06,2-.12a23.42,23.42,0,0,0,8.19-2.07"/><path class="b" d="M28,83.23a2.11,2.11,0,0,1,.51.77,1.4,1.4,0,0,0-.51-.77"/><path class="b" d="M28.68,85.54a1.7,1.7,0,0,1,0,.22h0s.1.51.27,1.06h0v.09a4.24,4.24,0,0,0,.43,1s0-.09,0-.12a5.52,5.52,0,0,1-.7-2.23"/><path class="b" d="M29.81,88.87v0a4.49,4.49,0,0,0,1.28.77l.12,0c-.48-.24-.91-.64-1.4-.84"/><path class="f" d="M53,49.2a7,7,0,0,1-.82,1.91c-2.31,3.7-5.56,6.16-7.76,9.72a9.76,9.76,0,0,0-.79,2.29v0a1.62,1.62,0,0,1,0,.22h0A10.72,10.72,0,0,1,43.38,65a37.19,37.19,0,0,0-1.13,4.27l.07,0a36.52,36.52,0,0,1,1.08-4.12,10.64,10.64,0,0,0,.23-1.57,1.55,1.55,0,0,0,0-.22v-.06h0A10,10,0,0,1,44.4,61c2.18-3.56,5.43-6,7.72-9.72a6.5,6.5,0,0,0,.86-2"/><path class="f" d="M43.91,86c.27.7.55,1.42.84,2.15,0-.07,0-.13,0-.2-.26-.65-.5-1.28-.73-1.9l-.09,0"/><path class="f" d="M45.83,90.72l-.06,0,.3.75a15.8,15.8,0,0,0,1.44,3,14.26,14.26,0,0,0,1.74,2.24c1.26,1.32,2.88,2.63,4.72,4.35a40.69,40.69,0,0,0,7.61,5.26,29,29,0,0,0,4.33,1.82,25.6,25.6,0,0,0,5.26,1.17,29.8,29.8,0,0,0,3.41.22h.64a19.52,19.52,0,0,0,5-.84,39,39,0,0,0,5.25-2,15.18,15.18,0,0,0,3.43-2.08c1.27-1.43,3.34-2.11,3.83-3.51l0-.08h0c-.47,1.38-2.51,2.07-3.77,3.5a14.6,14.6,0,0,1-3.41,2.08,38.55,38.55,0,0,1-5.25,2,19.16,19.16,0,0,1-5,.86l-.8,0a27.38,27.38,0,0,1-3.23-.2,26.06,26.06,0,0,1-5.25-1.14,29.5,29.5,0,0,1-4.32-1.81,40.67,40.67,0,0,1-7.62-5.25c-1.85-1.73-3.48-3-4.74-4.35a14.12,14.12,0,0,1-1.76-2.21,16.78,16.78,0,0,1-1.44-2.94l-.34-.86"/><path class="g" d="M52.44,48.4c-3.27,0-6.9,1.51-10.56,4s-6.19,7-8,12.49c0,.1,0,.19-.07.29a25.23,25.23,0,0,1,2.28-2c.32-.75.62-1.53.88-2.34,0,0,.66-1,1.69-2.33a32,32,0,0,1,3.77-4,8.84,8.84,0,0,1,3.15-2.12h.08c.2,0,.31.11.31.34h0a6.24,6.24,0,0,1-.89,2.26l-.32.8c-.2.49-.47,1.18-.75,1.94-.56,1.52-1.15,3.33-1.52,4.54l-.17.36c-.11.24-.26.59-.45,1a29.05,29.05,0,0,0-1.31,3.74.88.88,0,0,1,.47.81h0c0,.05,0,.11,0,.16,0,.68.28,1,.83,1a2.18,2.18,0,0,0,.42,0A37.19,37.19,0,0,1,43.38,65a10.72,10.72,0,0,0,.24-1.57,1.62,1.62,0,0,0,0-.22v0h0a9.76,9.76,0,0,1,.79-2.29c2.2-3.56,5.45-6,7.76-9.72A7,7,0,0,0,53,49.2a2.5,2.5,0,0,0,0-.35c0-.27-.09-.44-.29-.45h-.29"/><path class="g" d="M42.84,85.75l-.37,0a2.88,2.88,0,0,0-1,.28c.7,2.45,1.49,4.78,2.19,6.77a32.43,32.43,0,0,0,1.89,4.33,22.16,22.16,0,0,1,1.1,2.07,16.21,16.21,0,0,0,1.17,1.39,30.62,30.62,0,0,0,3.75,3.32c1.7,1.28,3.75,2.75,6.08,4.27a48.92,48.92,0,0,0,7.89,4.29A29.19,29.19,0,0,0,70.13,114a21.86,21.86,0,0,0,4.82.66h.69a19.62,19.62,0,0,0,4.48-.54,38.89,38.89,0,0,0,3.81-1.62,41.27,41.27,0,0,0,8.39-5.14,7.71,7.71,0,0,0,2-4.58s.11-.17.26-.47.36-.75.6-1.22l0-.1-.16,0-.66,0-.71.34h0s0-.12,0-.33a6.22,6.22,0,0,1-1-.11l0,.08c-.49,1.4-2.56,2.08-3.83,3.51a15.18,15.18,0,0,1-3.43,2.08,39,39,0,0,1-5.25,2,19.52,19.52,0,0,1-5,.84h-.64a29.8,29.8,0,0,1-3.41-.22,25.6,25.6,0,0,1-5.26-1.17,29,29,0,0,1-4.33-1.82A40.69,40.69,0,0,1,54,101.05c-1.84-1.72-3.46-3-4.72-4.35a14.26,14.26,0,0,1-1.74-2.24,15.8,15.8,0,0,1-1.44-3l-.3-.75a.74.74,0,0,1-.28.06c-.31,0-.54-.24-.59-.86,0-.37-.09-1.09-.15-1.78-.29-.73-.57-1.45-.84-2.15a2.12,2.12,0,0,0-1.07-.26"/><path class="h" d="M45.64,52.28h-.08a8.84,8.84,0,0,0-3.15,2.12,32,32,0,0,0-3.77,4c-1,1.29-1.69,2.33-1.69,2.33-.26.81-.56,1.59-.88,2.34l1-.79a2.54,2.54,0,0,1,.65-.34,1.55,1.55,0,0,1,.46-.11h.08a.23.23,0,0,1,.14.23h0c0,.41-.55,1.2-.59,1.71.1,0,.13.11.25.11l.12,0a.8.8,0,0,1,.37-.09h.08a1.87,1.87,0,0,1,.44,1.43h0c0,.11,0,.23,0,.36.27.56.73.7,1,1.24a1,1,0,0,0,.41.48,29.05,29.05,0,0,1,1.31-3.74c.19-.44.34-.79.45-1l.17-.36c.37-1.21,1-3,1.52-4.54.28-.76.55-1.45.75-1.94l.32-.8A6.24,6.24,0,0,0,46,52.62c0-.23-.11-.34-.31-.34"/><path class="h" d="M41.49,86.05a22.49,22.49,0,0,0-3.44,2.28,5.1,5.1,0,0,1-2.26,1.33l-.31,0h0a.72.72,0,0,1-.42-.1h0a.09.09,0,0,0,0,0l-.26-.11a4.05,4.05,0,0,0-.46-.17,5.64,5.64,0,0,0-.73,0h0l-.06,0a2,2,0,0,1-.68.47,2.71,2.71,0,0,1-.46.18c.28,1,.47,1.61.47,1.61h0a1.17,1.17,0,0,0,0,.29,7.67,7.67,0,0,0,.46,2.08,31.59,31.59,0,0,0,1.92,4.52A30.25,30.25,0,0,0,37,101.46a25,25,0,0,0,2.64,3.29,28.39,28.39,0,0,0,3.1,2.79l.69.47A54,54,0,0,0,49,111.19l6,3a77.38,77.38,0,0,0,13.34,5.37c4.27,1.25,7.92,1.52,9.24,2.17a15.72,15.72,0,0,0,2.62.18h.67c.5,0,1,0,1.64-.11,2-.39,4.28-1,6.08-1.48.93-.26,1.8-.53,2.53-.77a25.45,25.45,0,0,0,7.58-4.78,17.49,17.49,0,0,0,4.13-5.64c.14-.32.28-.64.4-1,0-.09.06-.19.08-.28a1.77,1.77,0,0,1-.38-.9h0a.35.35,0,0,1,.13-.29.53.53,0,0,1,.23,0l.32,0q.16-.86.24-1.68a9.91,9.91,0,0,1-.25-1.46c-.48-.94-1.86-2-2-2.81h0c0-.16.27-.26.46-.37a4.93,4.93,0,0,0-1-.43,5.47,5.47,0,0,0-1.74-.27,7.8,7.8,0,0,0-1.62.18,15.33,15.33,0,0,0-2.39.81l-.15.35,0,.1c-.24.47-.42.94-.6,1.22s-.26.47-.26.47a7.71,7.71,0,0,1-2,4.58,12.85,12.85,0,0,1-1,1,24.28,24.28,0,0,1-7.23,4.42,25.47,25.47,0,0,1-4,1.33,19.62,19.62,0,0,1-4.48.54H75a21.86,21.86,0,0,1-4.82-.66,29.19,29.19,0,0,1-4.57-1.53,48.92,48.92,0,0,1-7.89-4.29c-2.33-1.52-4.38-3-6.08-4.27a30.62,30.62,0,0,1-3.75-3.32,16.21,16.21,0,0,1-1.17-1.39,22.16,22.16,0,0,0-1.1-2.07,32.43,32.43,0,0,1-1.89-4.33c-.7-2-1.49-4.32-2.19-6.77"/><path class="i" d="M35.06,89.57h0m-1.57-.35h0a2,2,0,0,1-.68.47h0a2,2,0,0,0,.68-.47h0m.1,0h0a5.64,5.64,0,0,1,.73,0h0a5.64,5.64,0,0,0-.73,0m4.46-.85h0a5.39,5.39,0,0,1-2.2,1.32h-.06l-.31,0h0l.31,0a5.1,5.1,0,0,0,2.26-1.33h0"/><path class="h" d="M38.05,88.34c-.4.29-.8.58-1.2.85a2.21,2.21,0,0,1-1.2.45A1.56,1.56,0,0,1,35,89.5a.09.09,0,0,1,0,0h0a.72.72,0,0,0,.42.1h0l.31,0a5.15,5.15,0,0,0,2.26-1.32"/><path class="h" d="M33.69,89.14h-.1l0,0h.05a5.3,5.3,0,0,1,.71,0,2.22,2.22,0,0,0-.62-.08"/><path class="h" d="M33.49,89.22a3.49,3.49,0,0,1-.68.47,2,2,0,0,0,.68-.47"/><path class="j" d="M97,89.91l0,0c.29.13.63.27,1,.42l-1-.45"/><path class="j" d="M97,89.94l-.11.23c-2.4,2.28-2.69,4.91-2.83,7-.07,1.08-.09,2-.17,2.87,0,.41-.1.75-.13,1v0c0,.21,0,.33,0,.33l.71-.34,1-.42a15.33,15.33,0,0,1,2.39-.81,7.8,7.8,0,0,1,1.62-.18,5.47,5.47,0,0,1,1.74.27,4.93,4.93,0,0,1,1,.43c.15-.08.28-.17.28-.3v0A10.55,10.55,0,0,0,98.74,97c-.55-.36-1.08-.77-1.08-1.07h0c0-.19.22-.33.78-.38a13.69,13.69,0,0,0,3.31-.64,1.63,1.63,0,0,0,.4-1,1.83,1.83,0,0,0-.23-.83c-.39-1-2.08-1.87-3.89-2.7-.4-.15-.74-.29-1-.42"/><path class="j" d="M39.88,105.25c1.14,1.24,2.25,2.53,3.13,3.55,1.42,1.68,2.32,2.92,2.32,2.92.78.43,1.61,1,2.44,1.53s1.64,1.2,2.53,1.9l5.62,4.59c1.92,1.53,3.84,3,5.37,4s2.54,1.61,2.54,1.61a15.19,15.19,0,0,0,5.87,3,26.68,26.68,0,0,0,7.1.91l1,0a29.25,29.25,0,0,0,6.32-1c1.47-.39,2.29-.7,2.29-.7a55.21,55.21,0,0,1,5.09-3,14,14,0,0,1,1.83-.8,31.86,31.86,0,0,0,9.31-5,25.63,25.63,0,0,0,4.19-4.14l.1-.12-1.09-.26a2.72,2.72,0,0,1-.89-.4c-.08,0-.1-.09-.1-.12h0c0-.08.09-.14.09-.23h0a.31.31,0,0,1-.1-.2h0a.24.24,0,0,1,0-.14,1.2,1.2,0,0,0-.21-.09h0a1.23,1.23,0,0,0,.29-.09.15.15,0,0,0,0-.07.13.13,0,0,0,0-.06v-.07h0c0-.18.12-.24.32-.24h.17a1.1,1.1,0,0,0,.1-.49,7,7,0,0,0-1.81-3.51,6.41,6.41,0,0,1-.39-.52c0,.09-.07.18-.1.27-.12.34-.26.66-.4,1a17.49,17.49,0,0,1-4.13,5.64,25.45,25.45,0,0,1-7.58,4.78c-.85.36-1.66.65-2.43.91a29.06,29.06,0,0,1-6.18,1.34c-.59.06-1.14.09-1.64.11h-.67a15.72,15.72,0,0,1-2.62-.18c-1.32-.65-5-.92-9.24-2.17A77.38,77.38,0,0,1,55,114.23l-6-3A54,54,0,0,1,43.42,108l-.69-.47a30.46,30.46,0,0,1-2.85-2.29"/><path class="j" d="M104,105.39q-.11.66-.27,1.32l.28.05a4.44,4.44,0,0,0,.64.08c.11,0,.19,0,.21-.08h0a2,2,0,0,1-.47-.49,3.36,3.36,0,0,1-.42-.87"/><path class="j" d="M37.8,103.14s.49.58,1.45,1.52l.63.59c-.7-.75-1.4-1.48-2.08-2.11"/><path class="k" d="M72.45,60.93a10.18,10.18,0,0,0-3.54,1.37A12.27,12.27,0,0,0,65.81,65a2.91,2.91,0,0,0-.6,1s0,0,0,0a.7.7,0,0,0,.29-.16h0c-2.46,2-2.46,5.69-3.72,9.1-.32,1-.75,1.88-1.14,2.8a2.37,2.37,0,0,1,.13.54.25.25,0,0,1,0,.08h0c0,.15-.13.06-.19.15v0h0c0,.18-.06.22-.14.24l.06.22h0a1.62,1.62,0,0,0-.2-.18.35.35,0,0,0-.07.09.24.24,0,0,1-.1.1,8.23,8.23,0,0,0-.54,2.63,4.29,4.29,0,0,0,.1.94,13.43,13.43,0,0,0,.73,2.7A6.32,6.32,0,0,1,61,87.33h0v.12a4.61,4.61,0,0,0,.93,2.73,9,9,0,0,0,3.33,2.06c1.22.46,2.44.77,3.51,1.25,1.36.67,2.64,1.87,4.64,1.87a5.53,5.53,0,0,0,1.44-.2c1-.28,2.75-.31,3-.74-.73-.06-1.36-.36-2.32-.48-1.73-.34-3.84-.29-5.26-1a20,20,0,0,1-3.95-2.39,16.44,16.44,0,0,1-2.18-1.61,9.91,9.91,0,0,1-.75-.87c-.18-.34-.43-.61-.57-.95a7.39,7.39,0,0,1-.7-2A10.29,10.29,0,0,1,61.88,83h0v-.2a17.9,17.9,0,0,1,.21-2.65,2.61,2.61,0,0,1-.21-1h0c0-1.49,1-3.24,1.64-4.62a12,12,0,0,1,1.1-1.57c.82-1.57,1.36-3.37,2.48-3.76a17.53,17.53,0,0,1,5.19-.81h.65l.82.07c.43,0,1.14.07,1.94.2l.61.1.3.07a2.53,2.53,0,0,0,.38,0l2.13.12c1.58.07,3,.21,4.12.37s1.87.33,2.29.41.83.17,1.06.21a5.5,5.5,0,0,0,.67.11,6.93,6.93,0,0,1,1.35.23,2.47,2.47,0,0,1,.84.5h0s-.09.11-.24.21l.36.2c.13,0,.52,0,.66-.06a1.1,1.1,0,0,1,.25.77h0a1.48,1.48,0,0,1,0,.21c-.09.36-.18.73-.29,1.12s-.05.83-.05,1.23l0,1.23c0,.47,0,.94,0,1.42v.12h0A17.36,17.36,0,0,1,88.91,84a12.55,12.55,0,0,0-.73,3.27v.25a5.22,5.22,0,0,1,0,.69h0c0,.37,0,.75,0,1.09a3.32,3.32,0,0,0,.08.81c.59,1.27,1.49,2.49,2,3.62a16.23,16.23,0,0,0,1-3.89,9.36,9.36,0,0,1,0-.94h0A19.62,19.62,0,0,1,92.1,84a5.15,5.15,0,0,1,2.38-3.09.67.67,0,0,1,.24,0,1.61,1.61,0,0,1,.43.07,2.4,2.4,0,0,0,.43.07.64.64,0,0,0,.24-.05,2.18,2.18,0,0,0,.31-.22,7.91,7.91,0,0,1-1.34-1.55.31.31,0,0,1,0-.1h0c0-.87,3.45-1.58,5.86-2.24a5.14,5.14,0,0,0,.29-1.6c0-.76-1.55-3.67-4-5.66a10.9,10.9,0,0,0-3.75-2.12,9.63,9.63,0,0,0-3-.48h-.35c-1,0-1.69.21-1.93.21h0c-.38,0-.64.65-1,.72l-.48-.13-.59-.18c-.39-.15-.8-.3-1.22-.48-.83-.35-1.71-.75-2.71-1.07a8.16,8.16,0,0,0-2.23-.24h-.4a29.39,29.39,0,0,0-3.15.27,19.76,19.76,0,0,0-2.73.56h0c-.07-.79-.41-1.6-.41-2.44h0a2.6,2.6,0,0,1,.74-1.81.2.2,0,0,0,.06-.15,5.59,5.59,0,0,0-.19-.63,1.78,1.78,0,0,0-1.17-.52h-.11c.14-.07.2-.12.2-.15s0,0-.09,0"/><path class="l" d="M28.21,103.4h0l1.71,2.27-1.71-2.27"/><path class="l" d="M30.29,106.15a45,45,0,0,0,3.73,4.2,45,45,0,0,1-3.73-4.2"/><path class="a" d="M65.65,132.76l.18.07h0s.33.1.94.25h0c.6.14,1.4.37,2.47.56l.11,0a39,39,0,0,0,7.58.71h0a39,39,0,0,1-7.58-.71c-1.13-.19-2-.44-2.58-.58s-.94-.25-.94-.25h0l-.18-.07h0M49.18,123l.55.56h0c.15.12,2,1.7,4.55,3.4h0c.65.44,1.35.88,2.06,1.31h0c.69.42,1.42.83,2.11,1.19l1.22.61h0l-1.22-.61c-.69-.36-1.42-.77-2.11-1.19s-1.41-.87-2.06-1.31c-2.62-1.77-4.56-3.41-4.56-3.41l-.55-.56h0m-8.79-7.33c1.08.81,2.12,1.57,3.07,2.29h0l.08.06c.4.3.76.59,1.12.88h0c-.38-.31-.77-.62-1.2-.94-1-.72-2-1.48-3.07-2.29h0"/><path class="m" d="M59.68,130.11h0a16.85,16.85,0,0,0,2.07.83l2,1,1.92.84h0l-1.92-.84-2-1a16.85,16.85,0,0,1-2.07-.83h0m-15-11.18h0c.64.51,1.24,1,1.89,1.61h0c.86.77,1.72,1.6,2.63,2.49h0c-.91-.89-1.77-1.72-2.63-2.49-.65-.58-1.25-1.1-1.89-1.61h0M34,110.35h0c.6.6,1.25,1.21,1.95,1.82h0l.18.16c1.39,1.22,2.85,2.33,4.24,3.37h0c-1.45-1.08-3-2.25-4.42-3.53-.7-.61-1.35-1.22-1.95-1.82"/><path class="l" d="M66.77,133.08c.6.14,1.4.37,2.47.56-1.07-.19-1.87-.42-2.47-.56m-.94-.25h0s.33.1.94.25c-.61-.15-.94-.25-.94-.25M54.29,127c.65.44,1.35.88,2.06,1.31-.71-.43-1.41-.87-2.06-1.31m-4.55-3.4c.15.12,2,1.7,4.55,3.4-2.51-1.7-4.4-3.28-4.55-3.4m-3.19-3.06c1,.93,2.07,1.94,3.18,3l-.55-.56c-.91-.89-1.77-1.72-2.63-2.49m-3-2.49c.4.3.76.59,1.12.88.64.51,1.24,1,1.89,1.61-.65-.58-1.25-1.1-1.89-1.61-.36-.29-.72-.58-1.12-.88m-7.39-5.72c2.48,2.16,5.14,4,7.31,5.66-1-.72-2-1.48-3.07-2.29-1.39-1-2.85-2.15-4.24-3.37m-2.13-2c.6.6,1.25,1.21,1.95,1.82-.7-.61-1.35-1.22-1.95-1.82"/><path class="l" d="M110.57,119.64a26.37,26.37,0,0,1-4.79,4.58,26.37,26.37,0,0,0,4.79-4.58"/><path class="a" d="M105.78,124.22h0a25.64,25.64,0,0,1-3.59,2.25h0l0,0a27,27,0,0,0,3.55-2.23h0"/><path class="l" d="M105.78,124.22a27,27,0,0,1-3.55,2.23,27,27,0,0,0,3.55-2.23"/><path class="l" d="M102.19,126.47c-.43.22-.76.37-1,.47.22-.1.55-.25,1-.47"/><path class="l" d="M101.2,127l-.35.15.35-.15"/><path class="l" d="M100.85,127.1a4.47,4.47,0,0,0-.46.13c-1.06.35-3.11,1.25-5,2l-.2.07c1.92-.71,4.09-1.66,5.18-2a4.47,4.47,0,0,1,.46-.13"/><path class="l" d="M86.41,133a33.66,33.66,0,0,1-7.66,1.28l-.7,0A34.3,34.3,0,0,0,86.41,133"/><path class="n" d="M72.29,68.3a17.53,17.53,0,0,0-5.19.81c-1.12.39-1.66,2.19-2.48,3.76a12,12,0,0,0-1.1,1.57c-.62,1.38-1.64,3.13-1.64,4.62a2.61,2.61,0,0,0,.21,1h0a17.9,17.9,0,0,0-.21,2.65V83a10.29,10.29,0,0,0,.21,2.14,7.39,7.39,0,0,0,.7,2c.14.34.39.61.57.95a9.91,9.91,0,0,0,.75.87,16.44,16.44,0,0,0,2.18,1.61,20,20,0,0,0,3.95,2.39c1.42.71,3.53.66,5.26,1,1,.12,1.59.42,2.32.48h0c.54-.17,1.58-.23,1.57-.44a.06.06,0,0,0,0,0h0c0-.35-.8-.53-1.26-.74a51.35,51.35,0,0,1-6.8-2.46c-2.54-1-4.72-2.35-5.53-3.69a4.56,4.56,0,0,1-.69-1.84A10.28,10.28,0,0,1,65,83.78h0c0-.17,0-.35,0-.54v0c0-.6-.46-1.21-.55-2a3.83,3.83,0,0,1,0-.6h0a10.21,10.21,0,0,1,.5-2.67,14.47,14.47,0,0,0,.74-3.8v0h0a2.1,2.1,0,0,1,.54-1.17,21.7,21.7,0,0,1,2.22-1.62,13.43,13.43,0,0,1,2-.84A9.39,9.39,0,0,1,73.23,70a8.49,8.49,0,0,1,.88,0c.27,0,.55.09.83.16s1,.21,1.64.38l.47.13.24.08c.11,0,.27,0,.41,0,.58,0,1.25.08,2,.1,1.47,0,2.76.15,3.71.28a17,17,0,0,1,1.89.34l.76.09c.25,0,.42.06.5.07a2.25,2.25,0,0,0,.57,0,2.92,2.92,0,0,0,1-.22,3.37,3.37,0,0,0,1.34-.77h0a2.47,2.47,0,0,0-.84-.5A6.93,6.93,0,0,0,87.26,70a5.5,5.5,0,0,1-.67-.11c-.23,0-.68-.12-1.06-.21s-1.19-.26-2.29-.41-2.54-.3-4.12-.37L77,68.8a2.53,2.53,0,0,1-.38,0l-.3-.07-.61-.1c-.8-.13-1.51-.16-1.94-.2l-.82-.07h-.65"/><path class="o" d="M51.86,60.88c-.25.33-.53.74-.86,1.22a9.35,9.35,0,0,1-.81,1.13s0,0,0,0h0v0h0a3,3,0,0,0-.2.32l-.48.83a16.46,16.46,0,0,1-1.27,1.87l-.22.68c.28-.36,1-1.21,1.48-1.78.3-.31.55-.55.7-.55s.14.09.14.29h0a5.56,5.56,0,0,1-.25,1.32s-.13,1.34-.29,3a14.23,14.23,0,0,1-1.3,5.22s-.41.7-1.11,1.73a31.71,31.71,0,0,1-2.88,3.67,19.32,19.32,0,0,1-1.93,1.91c.3,1.09.64,2.13,1,3.17.14.39.28.78.43,1.18a2.13,2.13,0,0,1,.47.4,4.84,4.84,0,0,1,.26,1.5l.06.14c.33.84.67,1.71,1,2.62a3.45,3.45,0,0,0,1.05-.85,17.28,17.28,0,0,1,3.46-3.64h0c.32,0,.51.62.85.69A2.72,2.72,0,0,0,52.45,86a12.81,12.81,0,0,1-.64-4h0a12.48,12.48,0,0,1,.11-1.62,6.44,6.44,0,0,1,1.35-2.89c.28-.39.56-.74.79-1.13-.19-.1-.33-.23-.33-.33h0a.11.11,0,0,1,.05-.1,1.47,1.47,0,0,1,0-.49h0c0-.14,0-.28,0-.41s.08-.67.12-.78a23.45,23.45,0,0,0,.75-3.77,2.44,2.44,0,0,1-.78-1.6,7.5,7.5,0,0,0-.2-2.25l-.31.78c-.07,0-.79,1.19-1.63,2.24a6.78,6.78,0,0,1-1.78,1.84s0,0-.05,0v-.15h0a5.64,5.64,0,0,1,.33-1.75c.62-1.74.67-2.59,1.12-4,.12-.39.33-.85.45-1.24a19.39,19.39,0,0,0,.65-2.54v0h0c0-.16,0-.3,0-.42s0-.4-.13-.4-.11,0-.19.12l-.26-.17"/><path class="o" d="M30.88,71.92c-.12.2-.24.41-.38.63-.71,1.16-1.7,2.55-2.68,3.9-1.33,1.73-3.39,4.19-3.39,5.37a.59.59,0,0,0,.22.5,11,11,0,0,0,2.55.58l.05-.1a3.11,3.11,0,0,0-1.08-.18h0a2.81,2.81,0,0,0-.36,0h0a2.73,2.73,0,0,1,.35,0h0a3.11,3.11,0,0,1,1.08.18c1-2.32,2-4.92,3.07-7.77.14-.4.28-.81.43-1.22a4.9,4.9,0,0,1-.06-.77h0a3,3,0,0,1,.19-1.12"/><path class="p" d="M30.75,73.81c-.15.41-.29.82-.43,1.22-1,2.85-2.06,5.45-3.07,7.77l.08,0h0a2.27,2.27,0,0,1,.59.38,1.4,1.4,0,0,1,.51.77,3.45,3.45,0,0,1,.22,1.32h0a1.62,1.62,0,0,1,0,.22,5.52,5.52,0,0,0,.7,2.23s0,.07,0,.12.17.2.25.21l.16.77c.49.2.92.6,1.4.84a2.75,2.75,0,0,0,.81.13,1.56,1.56,0,0,0,.31,0c0-.19-.1-.4-.16-.62A50.71,50.71,0,0,1,31,83.7a38.07,38.07,0,0,1-.49-5.81h0c0-.25,0-.49,0-.73a22.55,22.55,0,0,1,.28-3.1l0-.17v-.08"/><path class="p" d="M56.16,75.35h0c-.35,0-.75,1.09-1.08,1.09-.07,0-.14-.06-.2-.2a.49.49,0,0,1,0,.15h0c0,.13-.11.18-.25.18a1.28,1.28,0,0,1-.57-.17c-.23.39-.51.74-.79,1.13a6.44,6.44,0,0,0-1.35,2.89,12.48,12.48,0,0,0-.11,1.62,12.81,12.81,0,0,0,.64,4c.46-.53.91-1.18,1.33-1.56,2.58-1.1,2.41-2.27,2.47-2.27l0,0h0c.25,0,.33,1.38.67,1.63l.12,0c.41,0,.79-.7,1-1.45.61-1.69,1.12-3.47,1.81-3.68-.19-.39-.38-1.06-.55-1.43s-.35-.39-.53-.39h-.27a.53.53,0,0,1-.24-.06,3.29,3.29,0,0,1-.43-1c-.08-.29-.17-.39-.26-.39s-.3.26-.46.43A.25.25,0,0,1,57,76c-.13,0-.26-.17-.39-.34s-.27-.35-.4-.35"/><path class="p" d="M27.25,82.8l-.05.1a2.17,2.17,0,0,1,.76.33,2.27,2.27,0,0,0-.59-.38h0l-.08,0"/><path class="q" d="M42.56,81.71l-.05,0c.4,1.46.87,2.84,1.4,4.26l.09,0c-.15-.4-.29-.79-.43-1.18-.37-1-.71-2.08-1-3.17"/><path class="q" d="M44.73,88c0,.07,0,.13,0,.2.33.83.67,1.68,1,2.58l.06,0c-.37-.91-.71-1.78-1-2.62L44.73,88"/><path class="r" d="M42.51,81.75a15,15,0,0,1-1.78,1.33c.23,1,.49,2,.76,3a2.88,2.88,0,0,1,1-.28l.37,0a2.12,2.12,0,0,1,1.07.26c-.53-1.42-1-2.8-1.4-4.26"/><path class="r" d="M44.75,88.16c.06.69.11,1.41.15,1.78.05.62.28.86.59.86a.74.74,0,0,0,.28-.06c-.35-.9-.69-1.75-1-2.58"/><path class="s" d="M30.79,74.06a22.55,22.55,0,0,0-.28,3.1c0,.24,0,.48,0,.73A38.07,38.07,0,0,0,31,83.7a50.71,50.71,0,0,0,1.18,5.5c.06.22.11.43.16.62a1.72,1.72,0,0,0,.48-.13,3.49,3.49,0,0,0,.68-.47l0,0h0l0,0h.1a2.22,2.22,0,0,1,.62.08c.33,0,.64.12.73.28a1.56,1.56,0,0,0,.61.14,2.21,2.21,0,0,0,1.2-.45c.4-.27.8-.56,1.2-.85l.34-.31h0l-.34.3a22.49,22.49,0,0,1,3.44-2.28c-.27-1-.53-2-.76-3a5.83,5.83,0,0,1-2.9,1.08,2.18,2.18,0,0,1-.63-.09h-.05c-.14,0-.62.11-1.94,1.17a3.19,3.19,0,0,1-.79.1,2.74,2.74,0,0,1-.56-.06A1.22,1.22,0,0,1,32.94,84h0a3.25,3.25,0,0,1,.14-.84s0-1.09-.09-2.19-.28-2.21-.9-2.26h0a6.79,6.79,0,0,0,.25-1c0-.1,0-.2,0-.29a.58.58,0,0,0-.13-.44l-.42,0h0a1,1,0,0,1,.21,0,.29.29,0,0,1,.21.08l.55,0c-1-.36-1.82-.88-1.81-1.44h0a.65.65,0,0,1,.12-.36,7.44,7.44,0,0,1-.3-1.12"/><path class="o" d="M33.64,65.28A21.8,21.8,0,0,0,32.17,67a3,3,0,0,0-.75,1.65v.06a9.5,9.5,0,0,0,.19,1.15.91.91,0,0,1,0,.17h0a3.77,3.77,0,0,1-.53,1.55c.15-.21.52-.72.88-1.27l0-.11-.35-.36a9.45,9.45,0,0,1-.18-1.15h0v-.06a3,3,0,0,1,.75-1.65c.42-.53.88-1.06,1.39-1.59l0-.07"/><path class="p" d="M33.79,65.13l-.15.15,0,.07.15-.17,0-.05"/><path class="p" d="M32,70.16l0,.11.06-.09,0,0"/><path class="r" d="M36.07,63.08a25.23,25.23,0,0,0-2.28,2l0,.05a28.29,28.29,0,0,1,2.28-2.06l0,0"/><path class="s" d="M37.75,62a2.54,2.54,0,0,0-.65.34l-1,.79,0,0c.35-.28.72-.56,1.11-.85a2.45,2.45,0,0,1,.59-.32"/><path class="o" d="M47.88,67.3c0,.16-.09.34-.15.53l.11-.09a2.39,2.39,0,0,0,0-.44"/><path class="o" d="M45.3,70.69a35.74,35.74,0,0,1-3.19,2.17,7.25,7.25,0,0,0,3.19-2.17"/><path class="o" d="M45,75a1.71,1.71,0,0,0-.11.14c-.58.82-1.21,1.61-1.82,2.33a26,26,0,0,0,1.7-2.06s.09-.15.23-.41"/><path class="t" d="M60.49,78.77l-.14,0a1.62,1.62,0,0,1,.2.18l-.06-.22"/><path class="s" d="M38.11,79.7a1.18,1.18,0,0,0,.79.37h.15l.29,0a12,12,0,0,0-1.23-.35"/><path class="p" d="M28.47,84c0,.06,0,.12.05.19.05.46.1.92.16,1.35a1.62,1.62,0,0,0,0-.22A3.45,3.45,0,0,0,28.47,84"/><path class="u" d="M28.47,84h0a3.45,3.45,0,0,1,.22,1.32h0v-.14A3.65,3.65,0,0,0,28.47,84"/><path class="p" d="M29.4,87.89a3.44,3.44,0,0,0,.38,1h0l-.16-.77c-.08,0-.16-.09-.25-.21"/><path class="s" d="M33.55,89.18h0l0,0,.06,0"/><path class="s" d="M34.32,89.22a4.05,4.05,0,0,1,.46.17l.26.11c-.09-.16-.4-.24-.72-.28"/><path class="p" d="M31.21,89.71a1.7,1.7,0,0,0,.77.2,1.61,1.61,0,0,0,.37,0l0-.05a1.56,1.56,0,0,1-.31,0,2.75,2.75,0,0,1-.81-.13"/><path class="u" d="M31.21,89.71h0a2.75,2.75,0,0,0,.81.13,1.56,1.56,0,0,0,.31,0h0a1.56,1.56,0,0,1-.31,0h0a2.63,2.63,0,0,1-.8-.13"/><path class="s" d="M32.81,89.69a1.72,1.72,0,0,1-.48.13l0,.05a2.71,2.71,0,0,0,.46-.18"/><path class="v" d="M48.22,66.2c-.54.6-.65.21-1.26.92-1,1-2.83,1.44-3.67,1.75a5.86,5.86,0,0,1-1,.33v0a5.67,5.67,0,0,0,.92-.32c.85-.31,2.72-.75,3.68-1.75.62-.7.72-.31,1.27-.92l0,0h0"/><path class="w" d="M42.32,69.2l-.07,0v0l.07,0v0"/><path class="x" d="M40.54,67.29v.06a.84.84,0,0,1,.44.78h0a1,1,0,0,1,0,.17c0,.67.29,1,.84,1a2.08,2.08,0,0,0,.46-.06v0a2.18,2.18,0,0,1-.42,0c-.55,0-.78-.33-.83-1h0c0-.05,0-.11,0-.16a.88.88,0,0,0-.47-.81"/><path class="y" d="M38.21,61.84a1.55,1.55,0,0,0-.46.11,1.33,1.33,0,0,1,.41-.09h.08a.25.25,0,0,1,.13.24h0c0,.41-.54,1.19-.58,1.71.09,0,.13.11.24.11l.12,0a.81.81,0,0,1,.38-.09h.08a1.86,1.86,0,0,1,.44,1.43h0c0,.11,0,.23,0,.36.27.56.73.71,1,1.24a1.06,1.06,0,0,0,.44.51v-.06a1,1,0,0,1-.41-.48c-.31-.54-.77-.68-1-1.24h0c0-.13,0-.25,0-.36a1.87,1.87,0,0,0-.44-1.43h-.08a.8.8,0,0,0-.37.09l-.12,0c-.12,0-.15-.1-.25-.11h0c0-.51.59-1.3.59-1.71a.23.23,0,0,0-.14-.23h-.08"/><path class="z" d="M33.62,65.35c-.51.53-1,1.06-1.39,1.59a3,3,0,0,0-.75,1.65v.06a9.45,9.45,0,0,0,.18,1.15l.35.36.62-1.86-.05,0h0s.09-.27.26-.66l.08-.18c.23-.68.46-1.38.7-2.08"/><path class="z" d="M48.22,66.2l0,0c-.55.61-.65.22-1.27.92-1,1-2.83,1.44-3.68,1.75a5.67,5.67,0,0,1-.92.32c-.15.76-.27,1.52-.35,2.28,0,.47-.1.94-.14,1.42l.28-.07a35.74,35.74,0,0,0,3.19-2.17,18.73,18.73,0,0,0,1.85-2.35s.26-.24.58-.51c.06-.19.11-.37.15-.53v0a1.34,1.34,0,0,0,0-.2h0l.13-.17.22-.68"/><path class="aa" d="M33.77,65.18l-.15.17c-.24.7-.47,1.4-.7,2.08a10.16,10.16,0,0,1,.62-1.14c.07-.37.15-.74.23-1.11"/><path class="aa" d="M32.63,68.3,32,70.16l0,0,.06-.11a4,4,0,0,0,.67-1.49.31.31,0,0,0-.13-.28"/><path class="ab" d="M42.32,69.23l-.07,0c-.14.72-.25,1.43-.33,2.14-.06.51-.12,1-.15,1.55h.06c0-.48.09-1,.14-1.42.08-.76.2-1.52.35-2.28"/><path class="ac" d="M36.05,63.12a28.29,28.29,0,0,0-2.28,2.06c-.08.37-.16.74-.23,1.11l0-.08c.54-.86,1.23-1.61,1.76-1.61h0c.23-.49.46-1,.67-1.49"/><path class="ac" d="M40.52,67.35a25.46,25.46,0,0,0-.85,5.17,1.69,1.69,0,0,0,.29.17,2.62,2.62,0,0,0,1.25.3,3.75,3.75,0,0,0,.56,0c0-.52.09-1,.15-1.55.08-.71.19-1.42.33-2.14a2.08,2.08,0,0,1-.46.06c-.55,0-.79-.34-.84-1h0a1,1,0,0,0,0-.17.84.84,0,0,0-.44-.78"/><path class="ad" d="M38.16,61.86a1.33,1.33,0,0,0-.41.09,2.45,2.45,0,0,0-.59.32c-.39.29-.76.57-1.11.85-.21.51-.44,1-.67,1.49a.39.39,0,0,1,.18,0h.57a6,6,0,0,1,.85.07l.23.69c.12.43.29,1,.5,1.61a12.2,12.2,0,0,1,.64,2.65h0a1,1,0,0,1-.09.46,2.55,2.55,0,0,0,.05.29,2.91,2.91,0,0,0,.24.7,3.42,3.42,0,0,0,1.12,1.39,25.46,25.46,0,0,1,.85-5.17,1.06,1.06,0,0,1-.44-.51c-.31-.53-.77-.68-1-1.24h0c0-.13,0-.25,0-.36a1.86,1.86,0,0,0-.44-1.43h-.08a.81.81,0,0,0-.38.09l-.12,0c-.11,0-.15-.11-.24-.11h0c0-.52.58-1.3.58-1.71a.25.25,0,0,0-.13-.24h-.08"/><path class="ae" d="M32.92,67.43l-.08.18c-.17.39-.26.66-.26.66l.05,0c.1-.29.19-.58.29-.87"/><path class="ae" d="M47.84,67.74l-.11.09c-.32.27-.58.51-.58.51a18.73,18.73,0,0,1-1.85,2.35,7.25,7.25,0,0,1-3.19,2.17l-.28.07c-.06.88-.09,1.77-.09,2.69s0,1.67.07,2.54c0,.14,0,.29.07.43A15,15,0,0,0,43,77.46c.61-.72,1.24-1.51,1.82-2.33A1.71,1.71,0,0,1,45,75c.31-.59.9-1.73,1.46-3a19.53,19.53,0,0,0,1.42-4.25"/><path class="ae" d="M32,70.27c-.36.55-.73,1.06-.88,1.27l-.08.1a1.43,1.43,0,0,0-.13.28A3,3,0,0,0,30.69,73a4.9,4.9,0,0,0,.06.77l.21-.59a6.77,6.77,0,0,1,.26-.91l.13-.22c.2-.6.41-1.2.62-1.82"/><path class="af" d="M33.54,66.29a10.16,10.16,0,0,0-.62,1.14c-.1.29-.19.58-.29.87a.31.31,0,0,1,.13.28h0a4,4,0,0,1-.67,1.49l-.12.2c-.21.62-.42,1.22-.62,1.82l.48-.82c.33-.59.8-1.41,1.31-2.36.1-.88.23-1.76.4-2.62"/><path class="af" d="M31,73.22l-.21.59v.08l0,.17c.05-.3.11-.58.17-.84"/><path class="ag" d="M41.83,72.93h-.06c-.07.89-.1,1.8-.1,2.73,0,.77,0,1.57.06,2.38,0,.2.07.39.1.59l.05,0c0-.14-.05-.29-.07-.43-.05-.87-.07-1.72-.07-2.54h0c0-.92,0-1.81.09-2.69"/><path class="ah" d="M35.34,64.6c-.53,0-1.22.75-1.76,1.61l0,.08c-.17.86-.3,1.74-.4,2.62l.17-.31c.63-1.2,1.37-2.54,2.07-4h0"/><path class="ah" d="M39.67,72.52c0,.13,0,.26,0,.39,0,.44,0,.9,0,1.36a35.22,35.22,0,0,0,.45,5.4l0,.15a7.4,7.4,0,0,0,1.74-1.18c0-.2-.07-.39-.1-.59,0-.81-.06-1.61-.06-2.38h0c0-.93,0-1.84.1-2.73a3.75,3.75,0,0,1-.56,0,2.62,2.62,0,0,1-1.25-.3,1.69,1.69,0,0,1-.29-.17"/><path class="ai" d="M35.38,64.61c-.7,1.45-1.44,2.79-2.07,4s-1.11,2-1.48,2.67l-.48.82-.13.22a6.77,6.77,0,0,0-.26.91c-.06.26-.12.54-.17.84a7.44,7.44,0,0,0,.3,1.12h0a.65.65,0,0,0-.12.36c0,.56.82,1.08,1.81,1.44h.11c.65.06,1.5.11,2.29.22,1.4.21,2.69.48,2.69,1.41h0a1.31,1.31,0,0,1-.07.41,1.32,1.32,0,0,0,.31.67,12,12,0,0,1,1.23.35,3,3,0,0,0,.75-.23l0-.15a35.22,35.22,0,0,1-.45-5.4h0c0-.46,0-.92,0-1.36,0-.13,0-.26,0-.39a3.42,3.42,0,0,1-1.12-1.39,2.91,2.91,0,0,1-.24-.7,2.55,2.55,0,0,1-.05-.29h0a1,1,0,0,0,.09-.46A12.2,12.2,0,0,0,37.71,67c-.21-.59-.38-1.18-.5-1.61L37,64.73a6,6,0,0,0-.85-.07h-.57a.39.39,0,0,0-.18,0"/><path class="aj" d="M50.18,64.55c-.15,0-.4.24-.7.55-.53.57-1.2,1.42-1.48,1.78l-.13.17a1.34,1.34,0,0,1,0,.2h0v0a2.39,2.39,0,0,1,0,.44A19.53,19.53,0,0,1,46.42,72c-.56,1.27-1.15,2.41-1.46,3-.14.26-.23.41-.23.41A26,26,0,0,1,43,77.46a15,15,0,0,1-1.15,1.13,30.53,30.53,0,0,0,.68,3.12,19.32,19.32,0,0,0,1.93-1.91,31.71,31.71,0,0,0,2.88-3.67c.7-1,1.11-1.73,1.11-1.73a14.23,14.23,0,0,0,1.3-5.22c.16-1.68.29-3,.29-3a5.56,5.56,0,0,0,.25-1.32c0-.2,0-.29-.14-.29"/><path class="ak" d="M41.88,78.59l-.05,0c.19,1.09.42,2.12.68,3.11l.05,0a30.53,30.53,0,0,1-.68-3.12"/><path class="al" d="M41.83,78.64a7.4,7.4,0,0,1-1.74,1.18c.17,1.08.39,2.18.64,3.26a15,15,0,0,0,1.78-1.33c-.26-1-.49-2-.68-3.11"/><path class="am" d="M32.23,76.94a.58.58,0,0,1,.13.44h0c0,.09,0,.19,0,.29a6.79,6.79,0,0,1-.25,1c.62,0,.81,1.14.9,2.26s.09,2.19.09,2.19h0a3.25,3.25,0,0,0-.14.84,1.22,1.22,0,0,0,.92,1.26,2.74,2.74,0,0,0,.56.06,3.19,3.19,0,0,0,.79-.1c1.32-1.06,1.8-1.17,1.94-1.17h.05a2.18,2.18,0,0,0,.63.09,5.83,5.83,0,0,0,2.9-1.08c-.25-1.08-.47-2.18-.64-3.26a2.71,2.71,0,0,1-1,.26H38.9a1.18,1.18,0,0,1-.79-.37A1.32,1.32,0,0,1,37.8,79h0a1.31,1.31,0,0,0,.07-.41c0-.93-1.29-1.2-2.69-1.41-.79-.11-1.64-.16-2.29-.22h-.11l-.55,0"/><path class="am" d="M32,76.86a1,1,0,0,0-.21,0l.42,0a.29.29,0,0,0-.21-.08"/><path class="an" d="M53.79,76h0m0,0h0m0,0h0m-.21-18h0c-.12.14-.16,0-.33.27-.41.68-1,1.74-1.5,2.55l.4.26c.08-.08.14-.12.19-.12s.13.14.13.4h0c0,.12,0,.26,0,.42v0h0a19.39,19.39,0,0,1-.65,2.54c-.12.39-.33.85-.45,1.24-.45,1.46-.5,2.31-1.12,4a5.64,5.64,0,0,0-.33,1.75v.15s0,0,.05,0A6.78,6.78,0,0,0,51.7,69.7c.84-1,1.56-2.23,1.63-2.24l.31-.78a7.5,7.5,0,0,1,.2,2.25,2.44,2.44,0,0,0,.78,1.6h0a23.45,23.45,0,0,1-.75,3.77c0,.11-.08.52-.12.78s0,.27,0,.41a1.47,1.47,0,0,0,0,.49h0a.11.11,0,0,0-.05.1c0,.1.14.23.33.33a4.39,4.39,0,0,0,.47-1.12.29.29,0,0,0,.06-.16,2.64,2.64,0,0,1-.14-1h0c0-.21,0-.47,0-.8a18.1,18.1,0,0,1,.56-3c0-.52-.1-1-.16-1.46s-.24-1.37-.38-2.17-.26-1.56-.33-1.74-.15-.31-.25-.31l-.15,0a.31.31,0,0,1-.13,0c-.08,0-.14,0-.2-.14h0l.09-.29h-.09c0,.11-.16.29-.21.4a.59.59,0,0,1-.05-.29h0c0-.08,0-.18,0-.3a16.35,16.35,0,0,0,.14-2c0-.54,0-1,0-1.42h0a8.36,8.36,0,0,1,.21-1.84c0-.23.09-.53.09-.69s0-.11,0-.11"/><path class="ao" d="M55.05,70.33a18.1,18.1,0,0,0-.56,3c0,.33,0,.59,0,.8a2.64,2.64,0,0,0,.14,1h0a.29.29,0,0,1-.06.16,4.39,4.39,0,0,1-.47,1.12,1.28,1.28,0,0,0,.57.17c.14,0,.25,0,.25-.18a.49.49,0,0,0,0-.15h0c.06.14.13.2.2.2.33,0,.73-1.09,1.08-1.09h0c.13,0,.27.18.4.35s.26.34.39.34a.25.25,0,0,0,.19-.13c.16-.17.32-.43.46-.43s.18.1.26.39a3.29,3.29,0,0,0,.43,1,.53.53,0,0,0,.24.06h.27c.18,0,.35.06.53.39.24.53.53,1.73.81,1.73h0l.09-.25.21-.54a4.12,4.12,0,0,0-.23-.47c-.28-.52-.55-.53-.79-1.14S59,75.39,58.74,75a1.35,1.35,0,0,0-.44-.47A2,2,0,0,0,57,73.75l-.19,0c-.09.37-.18.49-.28.49s-.32-.28-.46-.32-.12-.26-.2-.4a.19.19,0,0,0-.1,0l-.1,0h-.1c-.1,0-.19-.07-.24-.44-.09-1-.18-1.91-.26-2.77"/><path class="ap" d="M60.48,78.21l-.21.54-.09.25a.24.24,0,0,0,.1-.1c.11-.22.35,0,.35-.37v0h0a1.66,1.66,0,0,1-.15-.3"/><path class="aq" d="M26.16,82.62a2.73,2.73,0,0,0-.35,0,2.81,2.81,0,0,1,.36,0h0"/><path class="aq" d="M26.17,82.62h0a3.11,3.11,0,0,1,1.08.18h0a3.11,3.11,0,0,0-1.08-.18"/><path class="u" d="M28.47,84h0a3.65,3.65,0,0,1,.22,1.18v.14h0A3.45,3.45,0,0,0,28.47,84h0m-1.12-1.16h0a2.27,2.27,0,0,1,.59.38h0a2.27,2.27,0,0,0-.59-.38h0"/><path class="ar" d="M27.37,82.85a2.27,2.27,0,0,1,.59.38,2.11,2.11,0,0,1,.51.77,3.65,3.65,0,0,1,.22,1.18A3.65,3.65,0,0,0,28.47,84a2.11,2.11,0,0,0-.51-.77,2.27,2.27,0,0,0-.59-.38"/><path class="ar" d="M28.69,85.32c0,.14,0,.28,0,.44h0c0-.16,0-.3,0-.44"/><path class="ar" d="M28.67,85.76h0s.1.5.27,1.06c-.17-.55-.27-1.06-.27-1.06"/><path class="as" d="M29.81,88.87v0h0a4.8,4.8,0,0,0,1.28.76h0l.12,0h0l-.12,0a4.49,4.49,0,0,1-1.28-.77v0h0"/><path class="u" d="M31.21,89.71h0a2.63,2.63,0,0,0,.8.13h0a1.56,1.56,0,0,0,.31,0h0a1.56,1.56,0,0,1-.31,0,2.75,2.75,0,0,1-.81-.13h0M29.4,87.89h0c.09.12.17.2.25.21l.16.77h0l-.16-.77c-.08,0-.16-.09-.25-.21h0"/><path class="ar" d="M29.81,88.91a4.8,4.8,0,0,0,1.28.76,4.8,4.8,0,0,1-1.28-.76"/><path class="ar" d="M31.09,89.67l.12,0a2.63,2.63,0,0,0,.8.13,2.63,2.63,0,0,1-.8-.13l-.12,0"/><path class="at" d="M33.6,89.18h0a5.64,5.64,0,0,1,.73,0c.35,0,.71.14.73.33a.09.09,0,0,0,0,0c-.09-.16-.4-.24-.73-.28a5.3,5.3,0,0,0-.71,0"/><path class="au" d="M38.05,88.34h0a5.15,5.15,0,0,1-2.26,1.32l-.31,0h0l.31,0h.06a5.45,5.45,0,0,0,2.2-1.31"/><path class="at" d="M38.39,88l-.34.31a5.45,5.45,0,0,1-2.2,1.31A6,6,0,0,0,38.39,88"/><polyline class="at" points="35.05 89.56 35.06 89.56 35.05 89.56"/><path class="at" d="M35.06,89.59a.72.72,0,0,0,.42.1.72.72,0,0,1-.42-.1"/><path class="av" d="M54.33,62.93c-.15,0-.31.26-.47.58a7.39,7.39,0,0,0-.29.69l0,.07-.09.29c.06.11.12.14.2.14a.31.31,0,0,0,.13,0l.15,0c.1,0,.19.06.25.31s.18.94.33,1.74.33,1.68.38,2.17.11.94.16,1.46l.33-1.2c-.1-.8-.19-1.6-.26-2.4,0-.58-.2-1.39-.32-2.08s-.21-1.33-.25-1.49-.14-.23-.22-.23"/><path class="aw" d="M55.38,69.13l-.33,1.2c.08.86.17,1.79.26,2.77,0,.37.14.44.24.44h.1l.1,0a.19.19,0,0,1,.1,0c.08.14.13.36.2.4s.3.32.46.32.19-.12.28-.49l.19,0a2,2,0,0,1,1.32.73,1.35,1.35,0,0,1,.44.47c.24.44.46,1.13.72,1.65s.51.62.79,1.14a4.12,4.12,0,0,1,.23.47l.2-.47c0-.14-.1-.27-.14-.4-.45-1-.83-2.16-1.18-3-.84-1.86-1.5-3.3-2.13-3.71h0c-.11,0-.2.42-.31.6s-.2.22-.31.22H56.5c-.16,0-.33,0-.5.61,0,.07,0,.1-.07.1s0,0-.08-.11c-.19-1-.34-2-.47-2.94"/><path class="ax" d="M60.68,77.74l-.2.47a1.66,1.66,0,0,0,.15.3h0c.06-.09.19,0,.19-.15a.25.25,0,0,0,0-.08,2.37,2.37,0,0,0-.13-.54"/><path class="p" d="M116.35,67.69a1.1,1.1,0,0,0-.31,0,25.7,25.7,0,0,0-6.43,2.61c-1.6.92-1.52,1.82-1.84,2.8a2.89,2.89,0,0,1-1.34,1.38,13.42,13.42,0,0,0,1.51-.7c0-.22-.07-.44-.11-.66h0c.32-1,.24-1.88,1.84-2.8a25.33,25.33,0,0,1,6.43-2.61,1.12,1.12,0,0,1,.32,0,1.47,1.47,0,0,1,.36,0,1.49,1.49,0,0,0-.43-.06"/><path class="o" d="M122.35,90.36l-.71.26a9.21,9.21,0,0,1,2.19,1.49,2,2,0,0,1,.72,1.3h0c0,.51-.45,1-1.65,1.29a15.47,15.47,0,0,1-3.12,1.65,11.9,11.9,0,0,1-1.9.56c0,.23,0,.47,0,.71a3.42,3.42,0,0,1,1-.17,1.88,1.88,0,0,1,.49.06,7.42,7.42,0,0,0,1.39.14c1,0,1.76-.22,2.86-.22.4,0,.88.22,1.29.24,1.13,0,2.45-.2,2.74-.57a1.93,1.93,0,0,0,.88-1.47,1.24,1.24,0,0,0-.13-.56h0l.16-1.25a7.7,7.7,0,0,0-1.37-1.17c-.76-.57-1.34-.73-1.34-.93h0a.12.12,0,0,1,0-.09h0a22.17,22.17,0,0,1-3.53-1.26"/><path class="o" d="M117.76,98.77c-.14,1.78-.36,3.6-.69,5.46-.18,1-.39,2-.65,3l.58.28h0c.16,0,.92-1.55,2.16-1.87,1-.22,2.2-.38,2.53-1,0-.19-.64-.43-.68-.62h0v0a18.58,18.58,0,0,0-1.89-3.18c-.51-.76-1-1.49-1.36-2"/><path class="p" d="M106.07,74.74a28.08,28.08,0,0,1-5.14,2l-.29.08c-.23.63-.57,1.11-.93,1.11a.25.25,0,0,1-.12,0c-1.66.06-2.21,1.75-3.36,2.73a1.34,1.34,0,0,1,.18.28h0a1.24,1.24,0,0,1,.15.57.62.62,0,0,1,0,.13h0a.94.94,0,0,1-.21.58,3.3,3.3,0,0,1-1,1A5.78,5.78,0,0,0,94,84.68l-.09.07a.34.34,0,0,0,0,.15l0,.07-.53.43a1.62,1.62,0,0,1,.09.61h0v.13c0,.11,0,.23,0,.34a1.79,1.79,0,0,0,.9,1c.2.07.43.15.71.22h.13a1.63,1.63,0,0,1,.31.49,1.12,1.12,0,0,1,.13.34h0v0h0l0,.08c0,.36.12.68,1.07,1.11l.31.14.16-.34c.17-.39.45-.94.73-1.63.23-.53.48-1.13.73-1.78a1.15,1.15,0,0,1,0-.26h0a.92.92,0,0,1,.42-.74c.3-.78.6-1.59.9-2.41A23.21,23.21,0,0,1,102.09,78a1.85,1.85,0,0,1,1.38-1,1.43,1.43,0,0,1,.94.42,6.52,6.52,0,0,1,1.66-2.76"/><path class="p" d="M96.23,80.67l-.1.07a1.65,1.65,0,0,1,.43.78,1.24,1.24,0,0,0-.15-.57h0a1.34,1.34,0,0,0-.18-.28"/><path class="p" d="M112.1,95.4a28.13,28.13,0,0,1,.19,3.25h0q0,.69,0,1.38a26.26,26.26,0,0,1-.9,5.66c.18-.25.36-.45.46-.45s.07,0,.09.09a.29.29,0,0,1,.17,0,3.52,3.52,0,0,1,.75.1,4.16,4.16,0,0,1,.74.28,11.14,11.14,0,0,0,2.85,1.53c.26-1,.47-2,.65-3,.33-1.86.55-3.68.69-5.46a2.36,2.36,0,0,1-.41-.87h0a.15.15,0,0,1,0-.1,2.21,2.21,0,0,1,.45-.18c0-.24,0-.48,0-.71a8.08,8.08,0,0,1-1.45.14,4.54,4.54,0,0,1-2.09-.45l-2.24-1.2"/><path class="p" d="M111,107l0,.13a.51.51,0,0,1,.22-.13l-.1,0-.08,0"/><path class="p" d="M110.82,107.4a23,23,0,0,1-.95,2.28c-.31.64-.64,1.29-1,1.93h0l.57,0h.15c.37,0,.45-.2.45-.47s0-.42-.05-.62a.32.32,0,0,1,0-.13h0c0-.58,1.09-.65,1.26-1.2a.75.75,0,0,0,0-.26c0-.5-.44-1.13-.46-1.56"/><path class="p" d="M103.85,101.91l0,.34c0,.42.06.86.06,1.31h0a14.41,14.41,0,0,1-.07,1.46l.11.37a13.49,13.49,0,0,0,.19-2.28c0-.25,0-.5,0-.75a3.5,3.5,0,0,0-.3-.45"/><path class="p" d="M103.63,106.7c0,.14-.06.29-.1.44s-.13.5-.2.76h0c.13-.39.25-.8.36-1.2h-.08"/><path class="s" d="M102.12,100.38c-.19.11-.41.21-.46.37.1.81,1.48,1.87,2,2.81a9.91,9.91,0,0,0,.25,1.46,14.41,14.41,0,0,0,.07-1.46c0-.45,0-.89-.06-1.31l0-.34a3.64,3.64,0,0,0-.47-.55,5.25,5.25,0,0,0-1.26-1"/><path class="s" d="M103.31,106.67a.53.53,0,0,0-.23,0,.35.35,0,0,0-.13.29,1.77,1.77,0,0,0,.38.9c.07-.26.14-.51.2-.76s.07-.3.1-.44l-.32,0"/><path class="ay" d="M103.47,77.08a1.85,1.85,0,0,0-1.38,1,23.21,23.21,0,0,0-2.16,4.71c-.3.82-.6,1.63-.9,2.41a3.25,3.25,0,0,1,.9-.45,14.06,14.06,0,0,0,1.67-1.33,3.28,3.28,0,0,0,1.18-1.78.54.54,0,0,0-.11-.35h0s1.34-.66,1.34-1.18v0l-.29-.33h0c.19.09.28.2.29.33s.22.25.35.42a5.06,5.06,0,0,1-.54-1.85h0a.75.75,0,0,1,.49-.8s0-.12.1-.32a1.43,1.43,0,0,0-.94-.42"/><path class="ay" d="M98.64,86.16c-.25.65-.5,1.25-.73,1.78-.28.69-.56,1.24-.73,1.63l-.16.34,1,.45.37.13h0L98,90.36c1.81.83,3.5,1.74,3.89,2.7a1.83,1.83,0,0,1,.23.83h0a1.63,1.63,0,0,1-.4,1,13.69,13.69,0,0,1-3.31.64c-.56,0-.78.19-.78.38s.53.71,1.08,1.07A10.55,10.55,0,0,1,102.4,100v0h0c0,.13-.13.22-.28.3a5.25,5.25,0,0,1,1.26,1,3.64,3.64,0,0,1,.47.55,3.5,3.5,0,0,1,.3.45c0,.25,0,.5,0,.75h0a13.49,13.49,0,0,1-.19,2.28,3.36,3.36,0,0,0,.42.87,2,2,0,0,0,.47.49h0c0,.06-.1.08-.21.08a4.44,4.44,0,0,1-.64-.08l-.28-.05c-.11.4-.23.81-.36,1.2a6.41,6.41,0,0,0,.39.52,7,7,0,0,1,1.81,3.51h0a1.1,1.1,0,0,1-.1.49c.45.06,1.12.3,1.55.33.8,0,.83-.68,1.25-1.08a2.15,2.15,0,0,1,.6-.07c.38-.64.71-1.29,1-1.93a23,23,0,0,0,.95-2.28v0h0a.4.4,0,0,1,.12-.29l0-.13a.19.19,0,0,1-.08-.17h0a1.85,1.85,0,0,1,.22-.67,4.19,4.19,0,0,1,.24-.42,26.26,26.26,0,0,0,.9-5.66q0-.69,0-1.38a28.13,28.13,0,0,0-.19-3.25l-3.88-2.09c-3.13-1.73-6.42-3.53-6.78-5.12h0s0-.37-2-1a2.64,2.64,0,0,1-.74-.93l0-.12"/><path class="t" d="M100.64,76.85c-2.41.66-5.86,1.37-5.86,2.24a.31.31,0,0,0,0,.1,7.91,7.91,0,0,0,1.34,1.55l.1-.07,0,0a2.91,2.91,0,0,0-.79-.66h0a2.91,2.91,0,0,1,.79.66l0,0c1.15-1,1.7-2.67,3.36-2.73a.25.25,0,0,0,.12,0c.36,0,.7-.48.93-1.11"/><path class="p" d="M96.36,82.23l-.13.15-.89.82a3.3,3.3,0,0,0,1-1"/><path class="p" d="M94,84.75a3,3,0,0,0-.56.63v0l.53-.43,0-.07h0a.34.34,0,0,1,0-.15"/><path class="p" d="M113.57,86.39a9.44,9.44,0,0,0,3.48,2.77q-1.71-1.45-3.48-2.77"/><path class="p" d="M93.5,86.48c0,.35.24.68.9,1a1.74,1.74,0,0,1-.9-1"/><path class="ay" d="M105.66,86.76a1.21,1.21,0,0,0,0,.34,1.44,1.44,0,0,0,.14.6,2,2,0,0,0,.23.39,9.7,9.7,0,0,0-.32-1.33"/><path class="p" d="M95.11,87.66l.08,0h-.08"/><path class="p" d="M95.55,88.18a2.23,2.23,0,0,1,.09.48l0-.08v0h0a1.12,1.12,0,0,0-.13-.34"/><path class="p" d="M111.3,91.09l0,.07c.37.15.77.29,1.19.44,0,0,.18,0,.48.08l-.2-.07-1.49-.52"/><path class="ay" d="M109.88,90.57c.43.19.91.39,1.44.59l0-.07-1.42-.52"/><path class="o" d="M121.21,90.78l-.56.21.13.14a2.44,2.44,0,0,0,.43-.35"/><path class="ay" d="M105,112.86a1.23,1.23,0,0,1-.29.09,1.2,1.2,0,0,1,.21.09,1,1,0,0,0,.08-.18"/><path class="v" d="M117.22,68V68l0,.06a.74.74,0,0,1,.07.32h0a1.32,1.32,0,0,1-.09.42V69a1.34,1.34,0,0,0,.15-.55.71.71,0,0,0-.07-.32.38.38,0,0,0-.1-.13"/><path class="v" d="M117.86,84.72v.06c.82,1.14,2,3.15,3.08,3.91.94.46.59,1.12,1.36,1.64l0,0h0c-.78-.52-.43-1.18-1.36-1.64-1.14-.78-2.32-2.88-3.14-4"/><path class="az" d="M116.78,67.75a.92.92,0,0,1,.44.26V68a1.29,1.29,0,0,0-.44-.21"/><path class="az" d="M117.24,68.81c-.25.61-.91,1.27-1.12,1.9.1.13,0,.42.29.49a.81.81,0,0,1,.45.33,4.4,4.4,0,0,1,.07.8h0a5.53,5.53,0,0,1-.54,2.27c0,.12,0,.23,0,.34,0,.77.21,1.39.21,2.16h0c0,.13,0,.26,0,.39a2.15,2.15,0,0,0,0,.43c0,.48.15.92.15,1.38h0a1.78,1.78,0,0,1-.37,1.08,2.83,2.83,0,0,0-.37,1.28c0,.76.49,1.49,1.5,2.6a4.27,4.27,0,0,1,.42.52v-.06c-.13-.17-.25-.32-.36-.44-1-1.1-1.49-1.83-1.5-2.6h0a2.83,2.83,0,0,1,.37-1.28,1.78,1.78,0,0,0,.37-1.08c0-.46-.15-.9-.15-1.38h0a2.15,2.15,0,0,1,0-.43c0-.13,0-.27,0-.39,0-.77-.21-1.39-.21-2.16h0c0-.11,0-.23,0-.34a5.55,5.55,0,0,0,.55-2.27,4.34,4.34,0,0,0-.08-.8.81.81,0,0,0-.45-.33c-.24-.08-.19-.36-.29-.49h0A16.23,16.23,0,0,1,117.24,69v-.15"/><path class="z" d="M117.22,68c0,.26,0,.53,0,.8a1.32,1.32,0,0,0,.09-.42.74.74,0,0,0-.07-.32l0-.06"/><path class="z" d="M117.86,84.78c.07,1.56.14,3.16.16,4.83.59.25,1.23.49,1.94.72,0,0,.32.27.69.66l.56-.21a2,2,0,0,0,.22-.27l.21.11.71-.26,0,0c-.77-.52-.42-1.18-1.36-1.64-1.11-.76-2.26-2.77-3.08-3.91"/><path class="aa" d="M116.42,67.71a1.12,1.12,0,0,0-.32,0,25.33,25.33,0,0,0-6.43,2.61c-1.6.92-1.52,1.82-1.84,2.8,0,.22.08.44.11.66.77-.42,1.51-1,1.51-1.45a.39.39,0,0,0-.07-.23h0s2.36-2.62,3.65-2.62a.68.68,0,0,1,.65.4A8.81,8.81,0,0,1,115,71.28h0s-.16,1.86-.49,3.8-.84,3.93-1.43,4.19a8.73,8.73,0,0,0-.7,3.35,7.37,7.37,0,0,0,.08,1,6.17,6.17,0,0,0,1.14,2.74q1.77,1.32,3.48,2.77l1,.45c0-1.67-.09-3.27-.16-4.83a4.27,4.27,0,0,0-.42-.52c-1-1.11-1.49-1.84-1.5-2.6h0a2.83,2.83,0,0,1,.37-1.28,1.78,1.78,0,0,0,.37-1.08c0-.46-.15-.9-.15-1.38h0a2.15,2.15,0,0,1,0-.43c0-.13,0-.26,0-.39,0-.77-.21-1.39-.21-2.16h0c0-.11,0-.22,0-.34a5.53,5.53,0,0,0,.54-2.27,4.4,4.4,0,0,0-.07-.8.81.81,0,0,0-.45-.33c-.24-.07-.19-.36-.29-.49h0c.21-.63.87-1.29,1.12-1.9,0-.27,0-.54,0-.8a.92.92,0,0,0-.44-.26,1.47,1.47,0,0,0-.36,0"/><path class="ae" d="M118,89.61V90h0c0,.66,0,1.32,0,2a6.19,6.19,0,0,0,2.77-.8,10,10,0,0,0-.82-.8c-.71-.23-1.35-.47-1.94-.72"/><path class="af" d="M113,69.52c-1.29,0-3.65,2.62-3.65,2.62a.39.39,0,0,1,.07.23h0c0,.89-2.44,1.92-3,2.15a.45.45,0,0,1-.12,0l-.24.17a6.52,6.52,0,0,0-1.66,2.76,3.84,3.84,0,0,1,.35.35,27.43,27.43,0,0,1,2.45,3.53,36.9,36.9,0,0,1,4.09,9.71l1.49.52.2.07a27.26,27.26,0,0,0,3.3.29h.45c.42,0,.85,0,1.27,0,0-.66,0-1.32,0-2v-.34l-1-.45a9.44,9.44,0,0,1-3.48-2.77,6.17,6.17,0,0,1-1.14-2.74,7.37,7.37,0,0,1-.08-1h0a8.73,8.73,0,0,1,.7-3.35c.59-.26,1.1-2.25,1.43-4.19s.49-3.8.49-3.8a8.81,8.81,0,0,0-1.29-1.36.68.68,0,0,0-.65-.4"/><path class="ba" d="M104.41,77.5c-.07.2-.1.32-.1.32a.75.75,0,0,0-.49.8,5.06,5.06,0,0,0,.54,1.85,17.75,17.75,0,0,1,1.51,2.1A5.4,5.4,0,0,1,106.8,85h0a1,1,0,0,1-.74,1,1.44,1.44,0,0,0-.4.67,9.7,9.7,0,0,1,.32,1.33c.51.68,1.63,1.49,3.9,2.48l1.42.52a36.9,36.9,0,0,0-4.09-9.71,27.43,27.43,0,0,0-2.45-3.53,3.84,3.84,0,0,0-.35-.35"/><path class="bb" d="M103.72,79.72l.29.33c0-.13-.1-.24-.29-.33"/><path class="aj" d="M121.43,90.51a2,2,0,0,1-.22.27,5.22,5.22,0,0,1-3.2,1.15c0,1.65-.05,3.3-.13,5a11.9,11.9,0,0,0,1.9-.56,15.47,15.47,0,0,0,3.12-1.65c1.2-.3,1.64-.78,1.65-1.29a2,2,0,0,0-.72-1.3,9.21,9.21,0,0,0-2.19-1.49l-.21-.11"/><path class="bc" d="M99,85.16a.92.92,0,0,0-.42.74,1.15,1.15,0,0,0,0,.26l.39-1"/><path class="bc" d="M111.32,91.16c.07.27.13.54.2.81a31,31,0,0,1,.58,3.43l2.24,1.2a4.54,4.54,0,0,0,2.09.45,8.08,8.08,0,0,0,1.45-.14c.08-1.68.12-3.33.13-5-.42,0-.85,0-1.27,0h-.45a27.26,27.26,0,0,1-3.3-.29c-.3,0-.48-.08-.48-.08-.42-.15-.82-.29-1.19-.44"/><path class="bb" d="M104,80.05v0h0c0,.52-1.34,1.18-1.34,1.18a.54.54,0,0,1,.11.35h0a3.28,3.28,0,0,1-1.18,1.78,14.06,14.06,0,0,1-1.67,1.33,3.25,3.25,0,0,0-.9.45l-.39,1,0,.12a2.64,2.64,0,0,0,.74.93c2,.61,2,1,2,1h0c.36,1.59,3.65,3.39,6.78,5.12l3.88,2.09a31,31,0,0,0-.58-3.43c-.07-.27-.13-.54-.2-.81-.53-.2-1-.4-1.44-.59-2.27-1-3.39-1.8-3.9-2.48a2,2,0,0,1-.23-.39,1.44,1.44,0,0,1-.14-.6h0a1.44,1.44,0,0,1,.45-1,1,1,0,0,0,.74-1,5.4,5.4,0,0,0-.93-2.47,17.75,17.75,0,0,0-1.51-2.1c-.13-.17-.25-.31-.35-.42"/><path class="an" d="M128.64,93.16l-.09.66-.16,1.25a1.24,1.24,0,0,1,.13.56h0a1.93,1.93,0,0,1-.88,1.47c-.29.37-1.61.54-2.74.57-.41,0-.89-.23-1.29-.24-1.1,0-1.86.22-2.86.22a7.42,7.42,0,0,1-1.39-.14,1.88,1.88,0,0,0-.49-.06,3.42,3.42,0,0,0-1,.17c0,.38,0,.76-.08,1.15.34.55.85,1.28,1.36,2A18.58,18.58,0,0,1,121,104h0v0c0,.19.65.43.68.62h0c-.33.61-1.5.77-2.53,1-1.24.32-2,1.87-2.16,1.87h0l-.58-.28c-.11.44-.22.88-.35,1.31a13.5,13.5,0,0,0,2.44-.27,12.23,12.23,0,0,0,2.6-1.11,10.71,10.71,0,0,0,2.15-1.43c.81-.73.4-1.77.9-2.55h0a.94.94,0,0,1,.27.14c0-.1,0-.21,0-.31s-.25-.37-.35-.46h0a1.21,1.21,0,0,1,.68-.49c3.08-.72,3.57-3.22,6-4.51.37-.29.9-.71.9-1.19,0,0,0-.07,0-.1-.14-.4,0-.87-.26-1.22a22.93,22.93,0,0,0-2.79-1.86"/><path class="ao" d="M117.84,97.62a2.21,2.21,0,0,0-.45.18.15.15,0,0,0,0,.1,2.36,2.36,0,0,0,.41.87c0-.39,0-.77.08-1.15"/><path class="ao" d="M111.82,105.24c-.1,0-.28.2-.46.45-.11.42-.24.84-.38,1.26l.08,0,.1,0h0a.51.51,0,0,0-.22.13l-.12.32c0,.43.46,1.06.46,1.56h0a.75.75,0,0,1,0,.26c-.17.55-1.27.62-1.26,1.2a.32.32,0,0,0,0,.13c0,.2.05.43.05.62h0c0,.27-.08.47-.45.47h-.15l-.57,0h0l-.34.54c-.26.43-.53.84-.82,1.24.43,0,.9.11,1.33.11l.35,0a1.58,1.58,0,0,0,.81-.39,4.43,4.43,0,0,0,2-2.14.81.81,0,0,1-.26-.52h0c0-.37.5-.56.67-.84.09-.11.34-.13.53-.23.27-.32.06-.87.79-.87h0c.5,0,1,0,1.43,0l.69,0c.13-.43.24-.87.35-1.31a11.14,11.14,0,0,1-2.85-1.53,4.16,4.16,0,0,0-.74-.28,3.52,3.52,0,0,0-.75-.1.29.29,0,0,0-.17,0q0-.09-.09-.09"/><path class="bd" d="M111.36,105.69a4.19,4.19,0,0,0-.24.42,1.85,1.85,0,0,0-.22.67.19.19,0,0,0,.08.17c.14-.42.27-.84.38-1.26"/><path class="bd" d="M110.94,107.08a.4.4,0,0,0-.12.29v0l.12-.32"/><path class="bd" d="M108.85,111.61a2.15,2.15,0,0,0-.6.07c-.42.4-.45,1.07-1.25,1.08-.43,0-1.1-.27-1.55-.33h-.17c-.2,0-.33.06-.32.24v.07a.13.13,0,0,1,0,.06h0a.15.15,0,0,1,0,.07c0,.12-.13.21-.13.32a.31.31,0,0,0,.1.2h0c.21,0,.58.13.87.13H106a2.07,2.07,0,0,0,.58-.09,2.54,2.54,0,0,1,.58-.08,1.32,1.32,0,0,1,.27,0l.29,0c.29-.4.56-.81.82-1.24l.34-.54"/><path class="be" d="M95.42,80h0a2.91,2.91,0,0,1,.79.66,2.91,2.91,0,0,0-.79-.66"/><path class="ar" d="M96.23,80.67h0a1.34,1.34,0,0,1,.18.28,1.34,1.34,0,0,0-.18-.28"/><path class="ar" d="M96.41,81a1.32,1.32,0,0,1,.15.59h0v0a1.24,1.24,0,0,0-.15-.57"/><path class="as" d="M96.56,81.54a1.35,1.35,0,0,1-.2.69h0a1.35,1.35,0,0,0,.2-.68h0"/><path class="ar" d="M96.56,81.55a1.35,1.35,0,0,1-.2.68,3.3,3.3,0,0,1-1,1l-.18.11.18-.11a3.3,3.3,0,0,0,1-1,1.35,1.35,0,0,0,.2-.68"/><path class="ar" d="M94.47,84.05a3.67,3.67,0,0,0-.52.7.34.34,0,0,0,0,.15h0a.34.34,0,0,1,0-.15,3.67,3.67,0,0,1,.52-.7m.69-.74s-.35.34-.67.72c.32-.38.67-.72.67-.72"/><path class="as" d="M95.34,83.2h0l-.18.11s-.36.36-.69.74a3.67,3.67,0,0,0-.52.7h0a3.67,3.67,0,0,1,.52-.7h0l0,0c.32-.38.67-.72.67-.72h0l.18-.11h0"/><path class="as" d="M93.4,85.4h0a1.73,1.73,0,0,0,0,.28h0a1.89,1.89,0,0,1,0-.28h0"/><path class="ar" d="M93.38,85.41a1.89,1.89,0,0,0,0,.28h0a1.89,1.89,0,0,1,0-.28"/><path class="as" d="M93.36,85.69h0a2.06,2.06,0,0,0,.12.71v0h0l0,0h0l0,0a2.21,2.21,0,0,1-.12-.74"/><path class="ar" d="M93.48,86.43s0,0,0,0a1.74,1.74,0,0,0,.9,1,2.57,2.57,0,0,0,.71.23h0a3,3,0,0,1-.71-.22,1.79,1.79,0,0,1-.9-1l0,0m-.12-.74a2.06,2.06,0,0,0,.12.71,2.06,2.06,0,0,1-.12-.71"/><path class="ar" d="M95.18,87.67h0a4.24,4.24,0,0,1,.36.5,1.12,1.12,0,0,1,.13.34,1.12,1.12,0,0,0-.13-.34,4.24,4.24,0,0,0-.36-.5h0"/><path class="ar" d="M95.83,89.22a4.37,4.37,0,0,0,1.17.72h0a4.37,4.37,0,0,1-1.17-.72m-.26-.43c0,.07,0,.22.26.43-.22-.21-.26-.36-.26-.43"/><path class="bf" d="M97,89.94h0c.29.13.63.27,1,.42l.37.13L98,90.36c-.4-.15-.74-.29-1-.42"/><path class="av" d="M114.53,112.78l-.34.73,0,0a3.47,3.47,0,0,0,.34-.32.31.31,0,0,0,.07-.21.79.79,0,0,0,0-.25"/><path class="av" d="M114.19,113.51l0,0h0l0,0"/><path class="aw" d="M114.5,112.71c-.1.27-.2.53-.31.8l.34-.73,0-.07"/><path class="av" d="M124.17,103.16h0c-.5.78-.09,1.82-.9,2.55a10.71,10.71,0,0,1-2.15,1.43,12.23,12.23,0,0,1-2.6,1.11,13.5,13.5,0,0,1-2.44.27c-.11.4-.24.8-.37,1.19a38.9,38.9,0,0,0,4.85-.78,13.27,13.27,0,0,0,4.44-2.59,2.28,2.28,0,0,0,.49-1.32,2.23,2.23,0,0,0-1.31-1.86"/><path class="aw" d="M113.93,108.49c-.73,0-.52.55-.79.87-.19.1-.44.12-.53.23-.17.28-.67.47-.67.84a.81.81,0,0,0,.26.52h0a4.43,4.43,0,0,1-2,2.14,1.58,1.58,0,0,1-.81.39l-.35,0c-.43,0-.9-.07-1.33-.11-.25.34-.51.68-.77,1a13.93,13.93,0,0,0,2.22.4h.52a7.11,7.11,0,0,0,4.51-1.25l0,0c.11-.27.21-.53.31-.8a2.89,2.89,0,0,1-.14-.45.58.58,0,0,1,0-.22h0c0-.44.35-.77.35-1.23a1.24,1.24,0,0,0-.26-.71.15.15,0,0,1,0-.11h0a.21.21,0,0,1,.17-.18l1.16-.1c.13-.39.26-.79.37-1.19l-.69,0c-.46,0-.93,0-1.43,0h0"/><path class="bg" d="M107.13,113.35a2.54,2.54,0,0,0-.58.08,2.07,2.07,0,0,1-.58.09h-.17c-.29,0-.66-.13-.87-.13h0c0,.09-.09.15-.09.23s0,.07.1.12a2.72,2.72,0,0,0,.89.4l1.09.26c.26-.33.52-.67.77-1l-.29,0a1.32,1.32,0,0,0-.27,0"/><path d="M121.48,14.6c-1.65,2.46-2.89,5.28-5.38,7A22,22,0,0,1,109.94,25c-1.87.57-3.66,1.39-5.54,1.92a64.52,64.52,0,0,1-7,1.57A42.34,42.34,0,0,0,86,31.89c.69.13,1,.2,1.33.24a28.18,28.18,0,0,1,3.19.47c2.54.64,5.06,1.32,7.56,2.08a35.33,35.33,0,0,1,10.55,5.47,31.77,31.77,0,0,1,4.91,5,53.72,53.72,0,0,1,4.73,6,95.48,95.48,0,0,1,4.7,8.38,45.06,45.06,0,0,1,3.55,9.63c.55,2.28,1,4.59,1.39,6.89a45.29,45.29,0,0,1,.76,11.38,33.82,33.82,0,0,1-1.55,8.6c-.32,1-1,2-.07,3.07.08.09,0,.42-.13.61-1.53,3-2.35,6.36-4.46,9.06-2.28,2.92-4.52,5.9-7.07,8.57a68.5,68.5,0,0,1-6.5,5.46c-.64.51-1.3,1-1.94,1.5-1.88,1.46-4.12,2.18-6.25,3.14-1.09.49-2.28.79-3.33,1.34a29.72,29.72,0,0,1-10.16,2.84c-3.79.48-7.59.82-11.39,1.22a10.73,10.73,0,0,1-1.13,0c-1.85-.05-3.71,0-5.55-.17a38.7,38.7,0,0,1-6.28-1A53.27,53.27,0,0,1,45,123.54c-1.65-1.21-3-2.81-4.59-4.14-3.29-2.79-5.91-6.23-8.95-9.26-1.8-1.78-2.63-4.1-3.64-6.33-.81-1.78-1.74-3.51-2.54-5.29A34.82,34.82,0,0,1,23.51,94a59.93,59.93,0,0,1-1.92-8.1,35,35,0,0,1-.08-7c.19-3,.71-5.94.92-8.92a30.59,30.59,0,0,1,1.93-7.39,34.27,34.27,0,0,1,3.86-7.7,36.62,36.62,0,0,1,3.38-4.39c2.11-2.4,4.24-4.8,6.53-7a23,23,0,0,1,4-2.82c2-1.27,4-2.53,6.15-3.67a51.59,51.59,0,0,1,10.92-4.66c2.73-.73,5.51-1.25,8.28-1.84a6.53,6.53,0,0,1,1.33,0c1-1.43,2-2.79,2.78-4.24A16,16,0,0,1,75.13,22a15.9,15.9,0,0,1,3.67-2.05c2.53-1.21,5.14-1.25,7.82-1.19A17.58,17.58,0,0,1,92.32,20a10.76,10.76,0,0,0,5.74.34,51.42,51.42,0,0,1,8-.58,25.89,25.89,0,0,0,7.67-1.37A24.62,24.62,0,0,0,120,15c.38-.27.79-.49,1.18-.74ZM86.4,25.23c-.43.29-1.12.49-1.24.88-.53,1.63-1.27,3.25-.82,5.12l2-6c.59.42.29,1,.19,1.47-.22,1.15-.45,2.29-.67,3.43l.23,0c.89-1.9,1.77-3.79,2.65-5.69l-.31-.29Zm2.46,12.16.21.45c-.53.33-1.07.63-1.58,1A53,53,0,0,0,82,42.6c-1.91,1.68-3.5,3.71-5.27,5.54-.87.9-1.89,1.65-2.75,2.55C71.71,53.07,68.88,54.55,66,56A12,12,0,0,1,64,57a32.53,32.53,0,0,1-13.28.85c-2.75-.3-5.43-.33-8,.89-.19.1-.45.24-.6.18s-.62-.32-.69-.57a.81.81,0,0,1,.37-.73,22.63,22.63,0,0,1,3.12-.89,28.81,28.81,0,0,1,7.48,0c2,.15,4,0,6.18,0-.79-1.26-1.44-2.24-2-3.25a1.27,1.27,0,0,1,.94-1.92c.75-.16,1.48-.43,2.27-.66C59,49.69,59,49.43,60,49.12c.42-.12.87-.13,1.28-.27a1.38,1.38,0,0,0,.76-.5c.94-1.72,1.82-3.46,2.72-5.2a1.6,1.6,0,0,0,.11-.48,39.52,39.52,0,0,1,2.51-9.44,9.09,9.09,0,0,0,.25-1.08,3.2,3.2,0,0,0-.79,0A83.61,83.61,0,0,0,56,35a60.17,60.17,0,0,0-8.4,4c-3.72,2.09-7.33,4.22-10.32,7.37-3.88,4.08-7.56,8.28-10,13.4a28.39,28.39,0,0,0-2.95,8.43c-.21,1.57-.57,3.11-.73,4.68-.26,2.7-.53,5.41-.58,8.12a55.23,55.23,0,0,0,.45,6A35.39,35.39,0,0,0,27.3,99.31c1.06,2.14,2,4.34,3,6.5a10.24,10.24,0,0,0,1.22,2.29c1.73,2,3.52,4,5.35,6,1.48,1.57,3.11,3,4.56,4.6a35.82,35.82,0,0,0,12.64,8.49c4.08,1.77,8.24,3.47,12.77,3.79,3.1.22,6.2.5,9.3.42s6-.59,8.93-.89a44.35,44.35,0,0,0,9.56-2c2.36-.8,4.57-2,6.9-2.9a30.53,30.53,0,0,0,7.32-4.55,37,37,0,0,0,5-4.15,102.52,102.52,0,0,0,7.42-8.85c1.55-2.1,3-4.39,3-7.22,0-.25.22-.49.31-.74a11.41,11.41,0,0,0,.38-1.22c.18-.8.23-1.63.47-2.4A39.43,39.43,0,0,0,126.73,78c-.34-2.2-.66-4.42-1.18-6.58a66.76,66.76,0,0,0-2.16-7.36A64.15,64.15,0,0,0,120.58,58a34.58,34.58,0,0,0-4.16-7c-.65-.8-1.41-1.51-2-2.32a54.35,54.35,0,0,0-5.56-6.36A17,17,0,0,0,105.89,40a40.76,40.76,0,0,0-18.15-6.26A8.83,8.83,0,0,1,83.85,33c-1.5.72-3,1.31-4.31,2.11-1.78,1-3.48,2.23-5.19,3.4-3.14,2.14-6.43,4.09-9.22,6.71-1.27,1.18-2.27,2.49-1.27,4.4a9.56,9.56,0,0,1,.47,1.73c.37,1.13.77,2.25,1.24,3.61a48.24,48.24,0,0,0,6.06-3.82,81.71,81.71,0,0,0,7.89-7.79c2-2.33,4.62-3.78,7.2-5.29A9.19,9.19,0,0,1,88.86,37.39Zm2.77-15.6c-.32-.39-.37-.51-.46-.55a7,7,0,0,0-.74-.33,17.1,17.1,0,0,0-7.9-.73,11.84,11.84,0,0,0-8,4.23,38.69,38.69,0,0,0-5.75,9.25c-.85,1.9-1.4,3.94-2.09,5.92l.34.24C72.93,30.75,81.56,25.38,91.63,21.79Zm1.06,6.26c1,.1,1.18-.45,1.43-1a9.49,9.49,0,0,1,3.1-4.15l-1.76,4.37.29.3a4,4,0,0,0,1.09-.64,9.92,9.92,0,0,0,1-1.49,8.61,8.61,0,0,1,2.44-3.13c-.34,1.59-1.6,2.82-1.29,4.55,1.59-.22,1.6-1.71,2.28-2.59s1.37-2,2.12-3.09a27.23,27.23,0,0,0-8.32,1c-.32.08-.64.53-.79.89-.42,1-.77,2-1.1,3.06C92.94,26.77,92.84,27.4,92.69,28.05ZM116.93,19l-.16-.3-1.32.51a24.24,24.24,0,0,1-10,1.94c-1,0-1.77.17-2.1,1.31a14.42,14.42,0,0,1-1,2c-.24.5-.41,1-.63,1.61a2.5,2.5,0,0,0,2.53-1.65,4.66,4.66,0,0,1,2.45-2.53L105.46,25c1.32,0,1.24.12,1.88-1a4.78,4.78,0,0,1,2.72-2.23l-.91,1.95.25.24c.81-.71,2.1-.6,2.62-1.89a1.74,1.74,0,0,1,1.22-.7C114.91,21.17,115.84,20,116.93,19ZM90,28.85c1.37-.62,1.61-2,2.21-3a10.33,10.33,0,0,0,1.76-3.41,2.88,2.88,0,0,0-3,2.71A16.66,16.66,0,0,1,90.33,27C90.17,27.61,90.08,28.24,90,28.85ZM91,23.56a1.51,1.51,0,0,0-1.93,1.2c-.39,1.41-.82,2.79-1.2,4.2a5.61,5.61,0,0,0,0,1.15C89,27.72,90,25.71,91,23.56Zm-9.15,8.65.29.09,2.35-6.09c-1.75.91-1.74.91-2.07,2.4-.19.85-.4,1.69-.56,2.54A6.25,6.25,0,0,0,81.86,32.21ZM77,33.37l1.15-3-.2-.16-3.11,2.45c.81,1.17-.07,2.23.07,3.35.53-1.23.93-2.5,1.35-3.76,0-.11.17-.19.34-.38ZM63.89,55.64C63.23,54.25,62.63,53,62,51.7c-.06-.1-.38-.07-.65-.12C62.35,55.18,62.51,55.44,63.89,55.64Zm16.24-26.4L79.88,29c-.4.28-1,.5-1.14.87a31,31,0,0,0-.58,3.36l.35.08Zm-7.41,8.31.31.12,1.65-4.3C72.88,34.33,73,36,72.72,37.55Zm7.41-5.92.36.12c.44-1.19.88-2.39,1.41-3.8C79.77,28.81,80.82,30.52,80.13,31.63ZM71,39.18,72,36C70.72,36.78,70.63,37.89,71,39.18ZM59.91,56.63a2.29,2.29,0,0,0-1.34-2.71C59.26,54.67,58.75,56,59.91,56.63Zm-.26-3.9,1.55,2.79C61,53.57,60.63,52.9,59.65,52.73Zm9.57-13.65L68.05,41A1.39,1.39,0,0,0,69.22,39.08Z"/><path d="M53.94,60.65c1.62.44,1.7.54,1.23,1.62-.29.66-.63,1.3-1.09,2.26C53.49,63,54.13,61.9,53.94,60.65Z"/><path d="M110.34,97.08c.9-.31,1.26.09,1.45.74.13.47.62,1-.19,1.37-.19.1-.14.67-.24,1.26C110.73,99.28,110.08,98.37,110.34,97.08Z"/><path d="M62.92,75.86c-.79-1.17-.4-2-.09-3l1.29.5Z"/><path d="M58.45,76.86v-3C59.9,74.28,60,75.12,58.45,76.86Z"/><path d="M113.25,103.18a7.65,7.65,0,0,1-1.2-1c-.15-.19-.17-.74,0-.84a1.24,1.24,0,0,1,1-.18C113.64,101.38,113.74,102.19,113.25,103.18Z"/><path d="M107.39,100.51c-1.21-.46-1.5-1.34-2.14-2.35.61,0,1.13-.2,1.34,0A3.44,3.44,0,0,1,107.39,100.51Z"/><path d="M97.12,103.93c1.26-.52,1.69-.14,2,1.64C98.13,105.68,98.12,105.68,97.12,103.93Z"/><path d="M64.76,64.06l-1.24-2.63,1.33-.13C65.33,61.74,65.29,63.12,64.76,64.06Z"/><path d="M50.14,70.63c1.5.73.48,1.81.83,2.75C49.8,73,49.64,72.38,50.14,70.63Z"/><path d="M59.32,68.34a17.82,17.82,0,0,1-.13-1.91c0-.2.31-.55.45-.54a1.07,1.07,0,0,1,.75.42C60.66,66.79,60.16,67.75,59.32,68.34Z"/><path d="M103,93.29c1.47-.41,1.57-.3,1.78,1.66C103.64,95,103.59,94,103,93.29Z"/><path d="M116.68,101.84l-.16-2.44C118.07,99.86,118.11,100.16,116.68,101.84Z"/><path d="M54.71,73.59a3.68,3.68,0,0,1-.14-.61c0-.59,0-1.17,0-1.68.6-.35,1-.18,1.18.27S55.52,72.92,54.71,73.59Z"/><path d="M115,98.73a17.28,17.28,0,0,1-.72-1.8c0-.19.11-.64.23-.66a1.09,1.09,0,0,1,.84.18C115.77,96.86,115.62,97.84,115,98.73Z"/><path d="M55.89,69.19c-1-.59-1.34-1.51-1-2.07a.6.6,0,0,1,.52-.23c.23.09.54.32.56.5A12.73,12.73,0,0,1,55.89,69.19Z"/><path d="M62.65,71.12A1.77,1.77,0,0,1,61.58,69C62.86,69.31,62.86,69.31,62.65,71.12Z"/><path d="M100.54,103.87c-.31-.42-.65-.82-.92-1.26s-.18-.81.31-.87c.29,0,.81.19.88.41a6.21,6.21,0,0,1,.13,1.57Z"/><path d="M60.26,60.63c1.59.64,1.68,1,.72,2.66Z"/><path d="M53.19,76.24a7.77,7.77,0,0,1-.1-1.51c0-.2.43-.36.65-.54.17.28.54.61.48.83a5.71,5.71,0,0,1-.71,1.3Z"/><path d="M103.85,108.94a10.24,10.24,0,0,1-.95-1.31.68.68,0,0,1,.91-.82c.21.09.47.39.45.57A8.89,8.89,0,0,1,103.85,108.94Z"/><path d="M112.13,95.29a7.3,7.3,0,0,1-.86-1.19.81.81,0,0,1,.25-.77c.21-.09.72,0,.79.23a6.6,6.6,0,0,1,.31,1.48Z"/><path d="M39,66.48c.53-.73.29-1.65,1.26-1.53.24,0,.65.55.6.75C40.69,66.44,40.06,66.52,39,66.48Z"/><path d="M47.74,67.12c1.31.35,1.2,1.09,1,2C47.69,68.8,47.54,68.15,47.74,67.12Z"/><path d="M45.13,65.73c-.51-.71-.19-1.24.2-2.05.36.35.8.57.83.85C46.25,65.2,45.71,65.48,45.13,65.73Z"/><path d="M52.19,67.75c-.27-.25-.65-.46-.77-.77s.08-.66.13-1c.35.16.86.23,1,.5s0,.77,0,1.17Z"/><path d="M68.05,65.13A6.44,6.44,0,0,1,66.8,64c-.14-.22,0-.64.08-1,.31.13.78.17.89.4A6.5,6.5,0,0,1,68.05,65.13Z"/><path d="M116.15,93.47a8.7,8.7,0,0,1,.89,1.39c0,.11-.37.41-.57.62a9.5,9.5,0,0,1-.89-1.22C115.53,94.17,115.84,93.89,116.15,93.47Z"/><path d="M102.06,98.85a2.73,2.73,0,0,1-1-.24c-.23-.17-.3-.56-.44-.86.35-.07.79-.31,1-.18s.47.64.68,1Z"/><path d="M110.08,106.59a1.49,1.49,0,0,1-1.68-.85c-.12-.17,0-.56.08-.85.29,0,.73,0,.85.16A9.24,9.24,0,0,1,110.08,106.59Z"/><path d="M107.71,111.73a4.05,4.05,0,0,1-.3-1.16c0-.22.35-.43.54-.64.24.24.68.48.68.71a3.08,3.08,0,0,1-.47,1.1Z"/><path d="M104.49,89.58a1.45,1.45,0,0,1,1.8,1.12C104.89,90.91,104.8,90.86,104.49,89.58Z"/><path d="M59.43,70.14c.36.41.74.66.7.84a4.45,4.45,0,0,1-.71,1.65A2.25,2.25,0,0,1,59.43,70.14Z"/><path d="M49.56,62.9c.36.12.8.14,1,.37s.39.87-.31,1.35l-1-1.27Z"/><path d="M119.77,93.17a4.18,4.18,0,0,1-1-.47,1.54,1.54,0,0,1-.36-.8c0-.09.31-.36.43-.34a1.26,1.26,0,0,1,.78.42A3.63,3.63,0,0,1,119.77,93.17Z"/><path d="M107.84,94.23l-.91-1.55c1.43-.26,1.51-.15,1.26,1.39Z"/><path d="M105.15,103.59l-.51-1.38c.59-.55,1.11-.41,1.27.08s-.17.89-.27,1.34Z"/><path d="M57.92,61l.88,1.71c-.8.19-1.35,0-1.57-.61C57.16,62,57.55,61.61,57.92,61Z"/><path d="M117.44,91c-1.36.42-1.36.42-1.48-.88C116.76,89.82,117.11,90.28,117.44,91Z"/><path d="M112.6,90.07a1.39,1.39,0,0,1-1.69-.84C111.78,88.57,111.78,88.57,112.6,90.07Z"/><path d="M62.82,67.49a7.19,7.19,0,0,1-.09-.91c0-.42.23-.81.68-.61a1,1,0,0,1,.36.87c0,.29-.39.52-.6.78Z"/><path d="M43.21,70A6.42,6.42,0,0,1,43,68.86c0-.4.22-.81.68-.57a1,1,0,0,1,.36.87C44,69.42,43.62,69.61,43.21,70Z"/><path d="M65.12,70.87l-1-1.52C65.46,69.07,65.59,69.25,65.12,70.87Z"/><path d="M52.82,68.92c.31.44.61.69.65,1s-.41.5-.64.5-.52-.35-.55-.57S52.54,69.36,52.82,68.92Z"/><path d="M46.6,70.8l-.32-1.2c.28,0,.68-.1.83,0C47.56,70.08,47.39,70.47,46.6,70.8Z"/><path d="M101.62,91.17c-.24.43-.56.64-1,.37-.11-.07-.16-.49-.07-.56C100.93,90.63,101.3,90.7,101.62,91.17Z"/><path d="M42.58,64.06c-1,0-1,0-1.42-.79a4.67,4.67,0,0,1,.77.18A4.73,4.73,0,0,1,42.58,64.06Z"/></svg>