<svg xmlns="http://www.w3.org/2000/svg" viewBox="0 0 150 150"><defs><style>.a{fill:#fff6c0;}.b{fill:#ffec97;}.c{fill:#ffea88;}.d{fill:#ffd945;}.e{fill:#ffdd54;}.f{fill:#ffe774;}.g{fill:#fff4ba;}.h{fill:#ffe46c;}.i{fill:#ffeb87;}.j{fill:#fff9e2;}.k{fill:#fff6c6;}</style></defs><title>icon</title><path class="a" d="M77.6,129.77l.28,0s1.26.11,3.29.12h0c-2,0-3.29-.12-3.29-.12l-.28,0m11.61-.52h0c-1.55.28-3.06.44-4.45.55h0c1.39-.11,2.9-.27,4.45-.55h0m-27.44-2.78,2.16.55h0l-2.16-.55h0m38.94-.91h0c-.64.32-1.34.64-2.08,1l-.29.12-.13,0,.13,0c.85-.35,1.64-.72,2.37-1.08m-43.83-.47c1.57.5,3.21.94,4.89,1.38h0c-1.68-.44-3.32-.88-4.89-1.38h0M56.7,125h0l.08,0-.08,0h0m65-25.07h0l-.21.73-.06.19h0a49.54,49.54,0,0,1-2.38,6.28h0a42.67,42.67,0,0,1-3.18,5.67l0,.07h0a38.77,38.77,0,0,1-3,3.9l0,0h0c-.78.88-1.25,1.35-1.27,1.37h0l-.21.19h0l.21-.19s.47-.47,1.27-1.37a37.52,37.52,0,0,0,3-3.94,41.43,41.43,0,0,0,3.23-5.74,49.54,49.54,0,0,0,2.38-6.28l.27-.92M123.92,86h0c0,.4,0,.84,0,1.29h0c0-.45,0-.89,0-1.29m-.14-1.9h0a10,10,0,0,1,.14,1.9h0a10,10,0,0,0-.14-1.9m.6-7.42h0c0,.1,0,.2,0,.31h0v.08c-.1,1.86-.26,3.57-.39,4.8h0c-.11,1-.19,1.71-.21,1.95h0c0-.24.1-1,.21-1.95.14-1.25.29-3,.4-4.88,0-.11,0-.21,0-.31m.15-9.1a6.34,6.34,0,0,0,0,.69h0a6.34,6.34,0,0,1,0-.69h0m-12.26-25h0a32.2,32.2,0,0,1,6.83,7.82,36.61,36.61,0,0,1,5.24,14.92c.17,1.45.19,2.25.19,2.25h0s0-.8-.19-2.25V65.3a37.14,37.14,0,0,0-1.27-6h0a35.45,35.45,0,0,0-3.92-8.74l-.05-.08a32.2,32.2,0,0,0-6.83-7.82"/><path class="a" d="M98.63,126.52h0l-.29.12-.13,0,.13,0,.29-.12h0M56.7,125h0l.08,0-.08,0h0"/><path class="b" d="M89.6,34.11a34.14,34.14,0,0,0-7.11.75,36,36,0,0,0-5.71,1.8l-1.39.59-1.32.67c-.9.43-1.72.95-2.57,1.45a39.2,39.2,0,0,0-5.19,4c-.29,0-.59-.07-.89-.09-1.09-.11-2.23-.15-3.37-.15-.76,0-1.51,0-2.24,0a11.9,11.9,0,0,0-3.48.7,9.48,9.48,0,0,0-3.45,2.33,23.73,23.73,0,0,0-3,4.31c-.7,1.23-1.49,2.39-2.14,3.56-.55.93-1.11,1.82-1.63,2.71.45-.55,1.67-2,3.27-4.1a.61.61,0,0,0,0-.12c.43-.95.81-1.88,1.29-2.85a15.8,15.8,0,0,1,2-3.21A9.72,9.72,0,0,1,56.06,44a11,11,0,0,1,3.56-.79c.8-.06,1.46-.07,2.19-.07h.66c1,0,1.91,0,2.84.14a17.45,17.45,0,0,1,9,3A24.36,24.36,0,0,1,77,44a22.7,22.7,0,0,1,6.28-3.26,23.91,23.91,0,0,1,7.43-1.16,24.91,24.91,0,0,1,5.93.72,26.17,26.17,0,0,1,13.22,7.9A33.45,33.45,0,0,1,117.25,62a39.65,39.65,0,0,1,1.26,7.44c.08,1.1.12,2.18.12,3.25h0c0,1.3-.06,2.56-.16,3.8,0,0-.09,1.09-.12,3.14,0,.67,0,1.44,0,2.31,0,1.78,0,4,.17,6.45h0s-.13,1.19-.4,3a56.1,56.1,0,0,1-1.75,8.11,34.64,34.64,0,0,1-5.71,11.34,23.49,23.49,0,0,1-9.46,7.44l-.35.18c-.23.13-.57.3-1,.51a36,36,0,0,1-3.7,1.55,41.78,41.78,0,0,1-12.08,2.38c-.76,0-1.53.06-2.3.06a61.76,61.76,0,0,1-11-1.09c-2-.37-3.92-.79-5.63-1.17l-5.78-1.32s-.69-.33-1.77-.92a27,27,0,0,1-4.09-2.63,21.84,21.84,0,0,1-4.31-4.55c-.32-.45-.63-.9-.93-1.36s-.53-.74-.76-1.07c-.58-.89-1-1.61-1.29-2.12l-.4-.78h0c.75,1.27,1.56,2.63,2.45,4a18.48,18.48,0,0,0,4.07,4.12,18.77,18.77,0,0,1-4.39-4.9,48.49,48.49,0,0,1-3.1-6c-.5-1-.71-1.75-1-2.56S43.17,99,43,98.29c-.47-1.51-.92-2.91-1.2-4.21a34.38,34.38,0,0,1-.69-3.49c-.14-1-.25-1.89-.28-2.57a2.09,2.09,0,0,1,0-.25h0a4.78,4.78,0,0,1,.11-1.2s0-.38-.1-1.06-.12-1.66-.15-2.85c0-.6,0-1.25-.05-1.94h0c0-.69,0-1.43.07-2.2,0-1.53.2-3.19.35-4.89a57.71,57.71,0,0,1,2.07-9.91c.42-1.5,1-2.84,1.44-4,.23-.56.47-1.06.7-1.51-.49.8-1,1.59-1.41,2.36l-6.54,11c-.37.55-.76,1.09-1.15,1.65s-.76,1.12-1.14,1.7a20.27,20.27,0,0,0-2.14,4,19.46,19.46,0,0,0-1.37,7.47,29.37,29.37,0,0,0,.65,6c.34,1.8.92,3.53,1.42,5.25s1.17,3.38,1.88,5c.37.82.73,1.63,1.09,2.45l.31.69.43.85.86,1.68c.59,1.11,1.12,2.24,1.73,3.32a36.32,36.32,0,0,0,2,3.07,27.13,27.13,0,0,0,11.35,9l.24.11-1.37-.64h0a26.63,26.63,0,0,1-7.32-5.27h0A32.31,32.31,0,0,1,40.25,112c0-.07-.09-.15-.14-.23-1.14-2-2-3.9-2.83-5.4l0-.08c-1.12-2.29-1.77-3.6-1.77-3.6h0s.65,1.31,1.77,3.6l0,.08c.81,1.5,1.69,3.36,2.83,5.4,0,.08.09.16.14.23a32.31,32.31,0,0,0,4.52,5.91h0a26.63,26.63,0,0,0,7.32,5.27h0c.46.23.93.44,1.41.65a51.93,51.93,0,0,0,6.89,2.26l3.54.94,1.67.43h0l.9.22c.94.23,1.92.45,2.91.67h0c2.22.48,4.57.93,7.06,1.28a50.08,50.08,0,0,0,5.11.26h.08a44.62,44.62,0,0,0,8.6-.83,42.51,42.51,0,0,0,9.34-3l1.11-.47a27.36,27.36,0,0,0,3.78-2.24,40.54,40.54,0,0,0,6.77-4.92,44.75,44.75,0,0,0,4.06-5,44.2,44.2,0,0,0,3.31-5.67,51.59,51.59,0,0,0,3-7.75c.49-1.7.86-3.32,1.16-4.78.34-1.75.57-3.2.75-4.6V90.5c.15-1.12.25-2.21.31-3.18,0-.27,0-.53,0-.8a23.17,23.17,0,0,0-.12-2.39,1.16,1.16,0,0,1,0-.18h0v-.1l0-.17h0c.27-2.43.5-4.74.66-7,.09-1.7.13-3.49.13-5.07v-.27h0c0-1,0-1.89,0-2.58h0V68.3c0-.49-.06-1-.1-1.47a38.84,38.84,0,0,0-1.5-8,32.83,32.83,0,0,0-3.84-8.32,38.39,38.39,0,0,0-6.79-7.85q-.87-.72-1.83-1.38,1,.66,1.83,1.38h0q-.87-.72-1.83-1.38,1,.66,1.83,1.38h0q-.87-.72-1.83-1.38,1,.66,1.83,1.38l0,0a33.91,33.91,0,0,0-9-5.71,34.91,34.91,0,0,0-10.15-2.61c-1.15-.11-2.31-.17-3.46-.17"/><path class="b" d="M97.73,49s-.16,0-.4.1l-.21.07c.31.06.61.12.93.2a17.55,17.55,0,0,1,6.52,3.14c.33.24.65.51,1,.78A17.36,17.36,0,0,0,97.73,49"/><path class="b" d="M64.2,51.45a5.62,5.62,0,0,0-1.78.19c-.17.07-.34.12-.53.18L61.2,52a7.12,7.12,0,0,0-1.09.27l-.23.06h0A5.67,5.67,0,0,0,59,53.61c-.2.35-.42.81-.62,1.25l-.62,1.31C57.3,57,57,57.93,56.6,58.8a66.41,66.41,0,0,0-3.4,11,47.43,47.43,0,0,0-.59,7.48c0,1.32,0,2.62.14,3.91a63.7,63.7,0,0,0,1.87,11.25c.26,1,.49,1.92.8,2.83s.65,1.84.95,2.6a30.7,30.7,0,0,0,2,4.11,8.49,8.49,0,0,0,3.21,3.14A36,36,0,0,0,66,107l.8.26.93.26c.62.17,1.23.33,1.83.47,1.2.28,2.37.5,3.53.66a30.72,30.72,0,0,0,4.15.3,26.29,26.29,0,0,0,2.65-.14A22,22,0,0,0,86.74,107a18.55,18.55,0,0,0,6.43-4.63,17.31,17.31,0,0,0,3.08-5.16,42.11,42.11,0,0,0,2.12-8.92c.53-3.51,1-7,1.13-9.85,0-.71,0-1.39,0-2a22.25,22.25,0,0,0-.37-4.49c-.08-.28-.15-.57-.22-.86-.17,1.2-.4,2.58-.69,3.95a38.65,38.65,0,0,1-1.88,7s0,0,0-.06h0a2.53,2.53,0,0,1,.06-.4c-.15.45-.76,1.1-1.11,1.1h0c-.17-.24-.54-.29-.54-.69h0v-.21a5.16,5.16,0,0,0-.8-3.08c-.46-.69-1-1.16-1.46-1.78-.1.06-.57,2-1.48,4.06a11.55,11.55,0,0,1-1.7,2.76,4.07,4.07,0,0,1-2,1.39,5.3,5.3,0,0,1-.88.07,11.41,11.41,0,0,1-1.76-.18c-.44-.07-.88-.15-1.34-.21-.44.22-.88.42-1.33.61a13,13,0,0,1-2.58,1,5.21,5.21,0,0,1-1.26.17,1.38,1.38,0,0,1-1-.26,1.09,1.09,0,0,1-.33-.54h0a10.35,10.35,0,0,1-3.36-.57A4.61,4.61,0,0,1,71,82.57a28.39,28.39,0,0,1-2.22-7.48,21.81,21.81,0,0,1-.25-3.2h0a7,7,0,0,1,.22-2.07,11.16,11.16,0,0,1,.64-1.32,7.05,7.05,0,0,1,.81-1.19c.39-.47.77-.76,1-.76a.3.3,0,0,1,.25.14,1.41,1.41,0,0,0,.74.22A3.8,3.8,0,0,0,74,66.19a7,7,0,0,1,2.26-1.12,19.19,19.19,0,0,1-1.13-2.71l-.58-1.68c-2,1.58-3.82,3.37-5.11,4.44a2.51,2.51,0,0,1-1.4.69c-.57,0-.94-.56-1-2h0s0-.18,0-.51v-.07h0c0-.34,0-.8.08-1.41a24.36,24.36,0,0,1,1.12-5.57A28,28,0,0,1,69.65,53a10.52,10.52,0,0,0-3.87-1.47c-.42,0-1,0-1.58,0"/><path class="b" d="M83.6,56.83a12.81,12.81,0,0,0-4.26,1c0,.49,0,1-.06,1.42a17.89,17.89,0,0,1-1.81,6.44.55.55,0,0,0,.27.12,10.72,10.72,0,0,0,2.87-.73,8.45,8.45,0,0,1,2.88-4,5.37,5.37,0,0,1,2.3-.91,7.08,7.08,0,0,1,1-.07,10.85,10.85,0,0,1,1.47.11,26,26,0,0,1,7.43,2.65l1.09.59c-.07-.11-.15-.21-.22-.31h0a11,11,0,0,0,.14-1.54c-.23-.21-.55-.49-.95-.8A11.45,11.45,0,0,0,92.69,59a18,18,0,0,0-3.6-.92c-1.24-.21-2.26-.34-3.45-.64a16.84,16.84,0,0,1-2-.62h0"/><path class="b" d="M96.15,58.88c.19.53.38,1.1.58,1.75a10.54,10.54,0,0,0-.11-1.28l-.47-.47"/><path class="b" d="M97.3,66l0,0h0l0,0"/><path class="b" d="M124.5,68.3v.49c0,.69,0,1.58,0,2.58h0v.27h0c0,1.58,0,3.37-.13,5.07.12-1.83.2-3.61.2-5.36,0-1,0-2-.08-3"/><path class="c" d="M124.51,71.64v.08c0,1.56,0,3.32-.13,5h0c.09-1.7.13-3.49.13-5.07h0m0-3.34v.49h0V68.3h0"/><path class="b" d="M103.05,68.46a42.87,42.87,0,0,1,1,10.05h0c0,1.91-.08,3.85-.21,5.79-.16,2.27-.32,4.55-.55,6.81.4-2.33.66-4.68.92-7,.19-1.93.3-3.83.3-5.66a32.54,32.54,0,0,0-.86-7.9,19.57,19.57,0,0,0-.64-2.13"/><path class="b" d="M78.38,74c-.45.92-1,2.07-1.62,3.54a3.85,3.85,0,0,0-.2,1.12,1.49,1.49,0,0,0,.12.66,17.69,17.69,0,0,1,1.22-4.08A10,10,0,0,0,78.38,74"/><path class="b" d="M113.81,77.35c-.13,1.23-.3,2.69-.55,4.23-.32,2.1-.74,4.35-1.16,6.45-.18.93-.37,1.85-.55,2.74.23-.83.45-1.73.67-2.69a64.87,64.87,0,0,0,1.21-6.57c.17-1.31.31-2.69.38-4.16"/><path class="b" d="M123.75,83.85V84a1.16,1.16,0,0,0,0,.18l0-.28"/><path class="b" d="M123.89,87.32c-.06,1-.16,2.06-.31,3.18v.08c-.18,1.4-.41,2.85-.75,4.6-.3,1.46-.67,3.08-1.16,4.78.24-.81.46-1.58.65-2.33.37-1.46.67-2.81.88-4s.38-2.3.5-3.44c.1-1,.17-1.91.2-2.84"/><path class="c" d="M123.58,90.5v.08l0,.13c-.18,1.36-.4,2.78-.73,4.47h0c-.3,1.46-.67,3.08-1.16,4.78h0c.49-1.7.86-3.32,1.16-4.78.34-1.75.57-3.2.75-4.6V90.5"/><path class="b" d="M111.26,118.4a40.54,40.54,0,0,1-6.77,4.92,27.36,27.36,0,0,1-3.78,2.24,37.93,37.93,0,0,0,10.22-6.81l.33-.35"/><path class="b" d="M63.93,127l2.28.61a63.75,63.75,0,0,0,10.26,2c-2.49-.35-4.84-.8-7.06-1.28h0c-1-.22-2-.44-2.91-.67l-.9-.22h0L63.93,127"/><path class="b" d="M89.12,74.65a4,4,0,0,1-.29.43c0,.2,0,.41-.08.62l.17-.22c.07-.27.13-.55.2-.83"/><path class="b" d="M97.26,66h0l0,0h0l0,0"/><path class="d" d="M61.81,43.17c-.73,0-1.39,0-2.19.07a11,11,0,0,0-3.56.79,9.72,9.72,0,0,0-3.36,2.45,15.8,15.8,0,0,0-2,3.21c-.48,1-.86,1.9-1.29,2.85a.61.61,0,0,1,0,.12l.33-.43c.58-.72,1.12-1.47,1.78-2.33A20.7,20.7,0,0,1,54,47a8.68,8.68,0,0,1,4.13-2.11,18.55,18.55,0,0,1,2.09-.28l1.94-.15s.45,0,1.2.12a28.2,28.2,0,0,1,3,.48,17.33,17.33,0,0,1,6.57,2.79,19.61,19.61,0,0,1,1.39-1.53,17.45,17.45,0,0,0-9-3c-.93-.09-1.88-.13-2.84-.14h-.66"/><path class="d" d="M66,50c-1,0-1.94.06-2.72.12h-.58c-.39,0-.91,0-1.73,0a7.13,7.13,0,0,0-2,.28,1.89,1.89,0,0,0-.64.37,5.35,5.35,0,0,0-.84,1,37.61,37.61,0,0,0-2,3.88c-.65,1.49-1.35,3.07-1.91,4.77a58.49,58.49,0,0,0-2.65,11,59.41,59.41,0,0,0-.57,8.18c0,1.15,0,2.28.1,3.39A64.44,64.44,0,0,0,52,93.37c.19.76.38,1.49.55,2.2s.41,1.36.59,2c.36,1.3.75,2.32,1.07,3.26.61,1.88,1.17,3.12,1.27,3.59,0,0,.12.23.37.66a11,11,0,0,0,1.29,1.77,9.24,9.24,0,0,0,2.77,2,24.84,24.84,0,0,0,4.3,1.52A54.43,54.43,0,0,0,76,112.5c.67,0,1.36.06,2.06.06a29.38,29.38,0,0,0,12.21-2.49,22.22,22.22,0,0,0,6.45-4.37,19.55,19.55,0,0,0,4.37-6.5,37.14,37.14,0,0,0,2.25-8.09c.23-2.26.39-4.54.55-6.81.13-1.94.21-3.88.21-5.79a42.87,42.87,0,0,0-1-10.05,14,14,0,0,0-4.29-6.35,7.28,7.28,0,0,0-.44-.66,16.05,16.05,0,0,0-1.22-1.58l-.48-.52a10.54,10.54,0,0,1,.11,1.28c.14.42.27.87.4,1.36h0l-.39-.37a11,11,0,0,1-.14,1.54c.07.1.15.2.22.31l.67.39a5.26,5.26,0,0,1,1.26,1,1.68,1.68,0,0,1,.32.54,3.07,3.07,0,0,1,.19.91,2.17,2.17,0,0,1,0,.26h0A6.48,6.48,0,0,1,99,68.18c.1-.39.17-.57.21-.57s.05.11.05.3h0A27.94,27.94,0,0,1,99,71c.07.29.14.58.22.86a22.25,22.25,0,0,1,.37,4.49h0c0,.64,0,1.32,0,2-.14,2.84-.6,6.34-1.13,9.85a42.11,42.11,0,0,1-2.12,8.92,17.31,17.31,0,0,1-3.08,5.16A18.55,18.55,0,0,1,86.74,107a22,22,0,0,1-6.82,1.78,26.29,26.29,0,0,1-2.65.14,30.72,30.72,0,0,1-4.15-.3c-1.16-.16-2.33-.38-3.53-.66-.6-.14-1.21-.3-1.83-.47l-.93-.26L66,107a36,36,0,0,1-4.44-1.8A8.49,8.49,0,0,1,58.38,102a30.7,30.7,0,0,1-2-4.11c-.3-.76-.64-1.72-.95-2.6s-.54-1.86-.8-2.83a63.7,63.7,0,0,1-1.87-11.25c-.09-1.29-.14-2.59-.14-3.91h0a47.43,47.43,0,0,1,.59-7.48,66.41,66.41,0,0,1,3.4-11c.39-.87.7-1.78,1.15-2.63l.62-1.31c.2-.44.42-.9.62-1.25a5.67,5.67,0,0,1,.86-1.29h0l.23-.06A7.12,7.12,0,0,1,61.2,52l.69-.15c.19-.06.36-.11.53-.18a5.62,5.62,0,0,1,1.78-.19c.58,0,1.16,0,1.58,0A10.52,10.52,0,0,1,69.65,53q.54-1.11,1.26-2.28a15,15,0,0,0-2.74-.56A19.35,19.35,0,0,0,66,50"/><path class="d" d="M79.34,57.84a22.22,22.22,0,0,0-4.58,2.69l-.19.15.58,1.68a19.19,19.19,0,0,0,1.13,2.71,2.57,2.57,0,0,1,.4-.06c.33,0,.52.47.79.69a17.89,17.89,0,0,0,1.81-6.44c0-.45.06-.93.06-1.42"/><path class="e" d="M62.14,44.5l-1.94.15a18.55,18.55,0,0,0-2.09.28A8.68,8.68,0,0,0,54,47a20.7,20.7,0,0,0-2.53,2.86c-.66.86-1.2,1.61-1.78,2.33-1.76,2.27-3.12,3.94-3.6,4.53l-.19.23c-.2.34-.43.75-.67,1.23s-.47,1-.7,1.51c-.44,1.15-1,2.49-1.44,4A57.71,57.71,0,0,0,41,73.63c-.15,1.7-.34,3.36-.35,4.89,0,.77,0,1.51-.07,2.2s0,1.34.05,1.94c0,1.19.08,2.17.15,2.85s.1,1.06.1,1.06h0a4.78,4.78,0,0,0-.11,1.2,2.09,2.09,0,0,0,0,.25c0,.68.14,1.54.28,2.57a34.38,34.38,0,0,0,.69,3.49c.28,1.3.73,2.7,1.2,4.21.22.75.53,1.51.83,2.29s.54,1.51,1,2.56a48.49,48.49,0,0,0,3.1,6,18.77,18.77,0,0,0,4.39,4.9c.44.31.91.62,1.41.91a21.81,21.81,0,0,0,5.48,2.14c1,.28,2.08.49,3.16.71s2.28.41,3.08.53a67.78,67.78,0,0,0,9.67.75c.74,0,1.47,0,2.22,0A40.47,40.47,0,0,0,90,116.56a32.27,32.27,0,0,0,10.52-6.42A29.19,29.19,0,0,0,104.2,106a37.91,37.91,0,0,0,2.41-3.81c1.28-2.29,2-4,2.67-4.79A36.77,36.77,0,0,0,110.92,93c.21-.68.42-1.42.63-2.21s.37-1.81.55-2.74c.42-2.1.84-4.35,1.16-6.45.25-1.54.42-3,.55-4.23,0-.7,0-1.42,0-2.15s0-1.35,0-2a37.6,37.6,0,0,0-.51-4.71A31.72,31.72,0,0,0,112,63.54a25.92,25.92,0,0,0-5.35-9.09c-.36-.39-.74-.77-1.13-1.13s-.64-.54-1-.78a17.55,17.55,0,0,0-6.52-3.14c-.32-.08-.62-.14-.93-.2a5.18,5.18,0,0,0-.72.35,3.57,3.57,0,0,0-1.67,2.08,4.07,4.07,0,0,0-.17,1.23A8.92,8.92,0,0,0,95,55.44c.23.79.52,1.67.88,2.69l.26.75.47.47.48.52a16.05,16.05,0,0,1,1.22,1.58,7.28,7.28,0,0,1,.44.66,14,14,0,0,1,4.29,6.35,19.57,19.57,0,0,1,.64,2.13,32.54,32.54,0,0,1,.86,7.9h0c0,1.83-.11,3.73-.3,5.66-.26,2.28-.52,4.63-.92,7a37.14,37.14,0,0,1-2.25,8.09,19.55,19.55,0,0,1-4.37,6.5,22.22,22.22,0,0,1-6.45,4.37,29.38,29.38,0,0,1-12.21,2.49c-.7,0-1.39,0-2.06-.06a54.43,54.43,0,0,1-11.8-2.12,24.84,24.84,0,0,1-4.3-1.52,9.24,9.24,0,0,1-2.77-2,11,11,0,0,1-1.29-1.77c-.25-.43-.37-.66-.37-.66-.1-.47-.66-1.71-1.27-3.59-.32-.94-.71-2-1.07-3.26-.18-.63-.41-1.29-.59-2s-.36-1.44-.55-2.2A64.44,64.44,0,0,1,50.5,83c-.07-1.11-.1-2.24-.1-3.39h0A59.41,59.41,0,0,1,51,71.47a58.49,58.49,0,0,1,2.65-11c.56-1.7,1.26-3.28,1.91-4.77a37.61,37.61,0,0,1,2-3.88,5.35,5.35,0,0,1,.84-1,1.89,1.89,0,0,1,.64-.37,7.13,7.13,0,0,1,2-.28c.82,0,1.34,0,1.73,0h.58C64.08,50.07,65,50,66,50a19.35,19.35,0,0,1,2.15.11,15,15,0,0,1,2.74.56,25,25,0,0,1,1.77-2.49l.24-.3a17.33,17.33,0,0,0-6.57-2.79,28.2,28.2,0,0,0-3-.48c-.75-.09-1.2-.12-1.2-.12"/><path class="f" d="M90.74,39.61a23.91,23.91,0,0,0-7.43,1.16A22.7,22.7,0,0,0,77,44a24.36,24.36,0,0,0-2.72,2.33,19.61,19.61,0,0,0-1.39,1.53l-.24.3a25,25,0,0,0-1.77,2.49,26.36,26.36,0,0,0-2.61,5.6,24.36,24.36,0,0,0-1.12,5.57c-.05.61-.08,1.07-.08,1.41v.07h0c0,.33,0,.5,0,.51h0c0,1.41.4,2,1,2a2.51,2.51,0,0,0,1.4-.69c1.33-1.1,3.16-3,5.3-4.59a22.22,22.22,0,0,1,4.58-2.69,12.81,12.81,0,0,1,4.26-1h0a16.84,16.84,0,0,0,2,.62c1.19.3,2.21.43,3.45.64a18,18,0,0,1,3.6.92,11.45,11.45,0,0,1,3.1,1.81c.4.31.72.59.95.8l.39.37c-.13-.49-.26-.94-.4-1.36-.2-.65-.39-1.22-.58-1.75l-.26-.75c-.36-1-.65-1.9-.88-2.69a8.92,8.92,0,0,1-.45-2.58h0a4.07,4.07,0,0,1,.17-1.23,3.57,3.57,0,0,1,1.67-2.08,4.24,4.24,0,0,1,.93-.42c.24-.07.4-.1.4-.1a17.36,17.36,0,0,1,7.81,4.29c.39.36.77.74,1.13,1.13A25.92,25.92,0,0,1,112,63.54a31.72,31.72,0,0,1,1.28,4.91,37.6,37.6,0,0,1,.51,4.71c0,.69,0,1.37,0,2h0c0,.73,0,1.45,0,2.15-.07,1.47-.21,2.85-.38,4.16a64.87,64.87,0,0,1-1.21,6.57c-.22,1-.44,1.86-.67,2.69s-.42,1.53-.63,2.21a36.77,36.77,0,0,1-1.64,4.44c-.62.82-1.39,2.5-2.67,4.79A37.91,37.91,0,0,1,104.2,106a29.19,29.19,0,0,1-3.66,4.12A32.27,32.27,0,0,1,90,116.56a40.47,40.47,0,0,1-12.69,2.5c-.75,0-1.48,0-2.22,0a67.78,67.78,0,0,1-9.67-.75c-.8-.12-2-.32-3.08-.53s-2.15-.43-3.16-.71A21.81,21.81,0,0,1,53.72,115c-.5-.29-1-.6-1.41-.91A18.48,18.48,0,0,1,48.24,110c.3.46.61.91.93,1.36a21.84,21.84,0,0,0,4.31,4.55,27,27,0,0,0,4.09,2.63c1.08.59,1.77.92,1.77.92l5.78,1.32c1.71.38,3.6.8,5.63,1.17a61.76,61.76,0,0,0,11,1.09c.77,0,1.54,0,2.3-.06a41.78,41.78,0,0,0,12.08-2.38,36,36,0,0,0,3.7-1.55c.43-.21.77-.38,1-.51l.35-.18a23.49,23.49,0,0,0,9.46-7.44,34.64,34.64,0,0,0,5.71-11.34,56.1,56.1,0,0,0,1.75-8.11c.27-1.86.4-3,.4-3-.13-2.5-.17-4.67-.17-6.45h0c0-.87,0-1.64,0-2.31,0-2,.12-3.14.12-3.14.1-1.24.15-2.5.16-3.8,0-1.07,0-2.15-.12-3.25A39.65,39.65,0,0,0,117.25,62a33.45,33.45,0,0,0-7.36-13.75,26.17,26.17,0,0,0-13.22-7.9,24.91,24.91,0,0,0-5.93-.72"/><path class="f" d="M45.79,106l.4.78c.27.51.71,1.23,1.29,2.12.23.33.48.69.76,1.07-.89-1.34-1.7-2.7-2.45-4"/><path class="g" d="M96.46,81.31h0m0,0h0m0,0h0M78.38,74h0a10,10,0,0,1-.48,1.24,17.69,17.69,0,0,0-1.22,4.08,1.49,1.49,0,0,1-.12-.66h0a3.85,3.85,0,0,1,.2-1.12c.66-1.47,1.17-2.62,1.62-3.54h0m.76,5.33A44.61,44.61,0,0,1,80.52,72a43.11,43.11,0,0,1,1.6-4.73,17.3,17.3,0,0,1,2-3.87,2.39,2.39,0,0,1,1.92-2,2.49,2.49,0,0,1,.68-.08,8.35,8.35,0,0,1,2.61.58,10.62,10.62,0,0,1,2.21,1.39c1.12.66,2.37,1.39,3.49,2.19a5.21,5.21,0,0,1,1.2,1v0l1-.48h0l.05,0h0l0,0h0l0,0h0l.87-.43h0l-.87.43h0l0,0h0l-.15.09h0l-.15.1-.17.11-.07,0-.16.12-.17.13h0l-.46.39,0,.13a4.42,4.42,0,0,1-.21.68,11.49,11.49,0,0,1-.6,1.28c-.44.83-.87,1.6-1.29,2.33-.85,1.45-1.67,2.73-2.45,3.9-.66,1-1.9,3.33-3.47,4.66a5.89,5.89,0,0,1-2.44,1.32l-.23.06a8.2,8.2,0,0,1-4.89,3.22,6.42,6.42,0,0,1-.75.1l-.31.1-.22.08L78.8,85a4.68,4.68,0,0,0-.58.27l-.15.09-.22.15,0,0-.06.07h0l0,0h0a1.71,1.71,0,0,0,.1-.2,2.12,2.12,0,0,0,.09-.27c0-.08,0-.18.06-.28s0-.2,0-.26a5.9,5.9,0,0,0,0-.63v-.06a8.41,8.41,0,0,0,0-1L78,82.42v0a1.26,1.26,0,0,0,.35.07h.29a2,2,0,0,0,.34,0c0-.15,0-.31,0-.47h0L79,80.85a3.86,3.86,0,0,1-1.19-.73v0h0a3.71,3.71,0,0,1,1.32-.77m7.69-19.21a7.08,7.08,0,0,0-1,.07,5.37,5.37,0,0,0-2.3.91,8.45,8.45,0,0,0-2.88,4,10.72,10.72,0,0,1-2.87.73c-.44,0-.63-.76-1.06-.81A5.87,5.87,0,0,0,74,66.19a3.8,3.8,0,0,1-1.77.72,1.41,1.41,0,0,1-.74-.22.3.3,0,0,0-.25-.14c-.27,0-.65.29-1,.76a7.05,7.05,0,0,0-.81,1.19,11.16,11.16,0,0,0-.64,1.32,7,7,0,0,0-.22,2.07,21.81,21.81,0,0,0,.25,3.2A28.39,28.39,0,0,0,71,82.57a4.61,4.61,0,0,0,2.52,2.52,10.35,10.35,0,0,0,3.36.57h0a1.09,1.09,0,0,0,.33.54,1.38,1.38,0,0,0,1,.26,5.21,5.21,0,0,0,1.26-.17,13,13,0,0,0,2.58-1c.45-.19.89-.39,1.33-.61.46.06.9.14,1.34.21a11.41,11.41,0,0,0,1.76.18,5.3,5.3,0,0,0,.88-.07,4.07,4.07,0,0,0,2-1.39A11.55,11.55,0,0,0,91,80.89c.91-2,1.38-4,1.48-4.06.44.62,1,1.09,1.46,1.78a5.16,5.16,0,0,1,.8,3.08h0v.21c0,.4.37.45.54.69h0c.35,0,1-.65,1.11-1.1h0a2.53,2.53,0,0,0-.06.4s0,.06,0,.06a38.65,38.65,0,0,0,1.88-7,49.78,49.78,0,0,0,1-7.08c0-.19,0-.3-.05-.3s-.11.18-.21.57h0a6.48,6.48,0,0,0,.24-1.62,2.17,2.17,0,0,0,0-.26,3.07,3.07,0,0,0-.19-.91,1.68,1.68,0,0,0-.32-.54,5.26,5.26,0,0,0-1.26-1l-.67-.39-1.09-.59a26,26,0,0,0-7.43-2.65,10.85,10.85,0,0,0-1.47-.11"/><path class="g" d="M86.67,64.13l-.06,0a1,1,0,0,0-.23.19,3.47,3.47,0,0,0-.72,1.29l-.06.18a2.6,2.6,0,0,0,.73-.42c.12-.22.26-.25.33-.35V64.8l0-.26h0a1.87,1.87,0,0,1,0-.4"/><path class="g" d="M88.84,72.83c-.29,1.12-.76,2-1.26,3.47-.17.44-.35.89-.53,1.34a15.34,15.34,0,0,0,1.7-1.94c0-.21,0-.42.08-.62A11.75,11.75,0,0,0,89,73.54a1.53,1.53,0,0,0-.11-.71h0"/><polyline class="g" points="97.27 66.03 97.27 66.03 97.27 66.03 97.27 66.03 97.27 66.03"/><path class="g" d="M97.27,66h0l0,0h0l0,0"/><path class="g" d="M97.21,66.06l-.7.34-.27.14.05.11v0h0l.18-.14h0l.22-.16.17-.11.15-.1h0l.13-.07,0,0h0"/><path class="g" d="M95.91,66.61v.1l.06,0,.05,0h0l0,0h0"/><path class="g" d="M78.05,84.54a.22.22,0,0,0,0,.06c0,.09,0,.18,0,.26s0,.19,0,.25v0l-.07.23,0,0a.71.71,0,0,1-.11.2l0,0h0l.08-.09a4.09,4.09,0,0,1,.37-.24l.38-.19.2-.08.15-.06h0v0a.58.58,0,0,0,0-.15h-.22a1.44,1.44,0,0,1-.57-.09l-.14-.09h0v0"/><path class="h" d="M123.07,59.26a37.14,37.14,0,0,1,1.27,6,37.14,37.14,0,0,0-1.27-6m-3.92-8.74a35.45,35.45,0,0,1,3.92,8.74,35.45,35.45,0,0,0-3.92-8.74"/><path class="a" d="M112.27,42.62h0a32.2,32.2,0,0,1,6.83,7.82l.05.08a35.45,35.45,0,0,1,3.92,8.74h0a37.14,37.14,0,0,1,1.27,6v.06c.17,1.45.19,2.25.19,2.25h0s0-.8-.19-2.25a36.61,36.61,0,0,0-5.24-14.92,32.2,32.2,0,0,0-6.83-7.82"/><path class="h" d="M124.51,71.37v0"/><path class="a" d="M124.38,76.71h0c0,.1,0,.21,0,.31-.11,1.88-.26,3.63-.4,4.88-.11,1-.19,1.71-.21,1.95h0c0-.24.1-1,.21-1.95h0c.13-1.23.29-2.94.39-4.8V77h0c0-.1,0-.21,0-.31"/><path class="h" d="M124.35,77.1c-.1,1.86-.26,3.57-.39,4.8.13-1.23.29-2.94.39-4.8"/><path class="i" d="M124.51,71.64c0,1.58,0,3.37-.13,5.07h0c.09-1.67.13-3.43.13-5v-.08h0"/><path class="h" d="M124.51,71.72c0,1.56,0,3.32-.13,5,0,.1,0,.21,0,.31.1-1.76.15-3.65.15-5.3"/><path class="h" d="M123.92,86c0,.4,0,.84,0,1.29-.06,1-.16,2.06-.31,3.18.15-1.12.25-2.21.31-3.18,0-.45,0-.89,0-1.29"/><path class="a" d="M121.66,100h0l-.27.92a49.54,49.54,0,0,1-2.38,6.28,41.43,41.43,0,0,1-3.23,5.74,37.52,37.52,0,0,1-3,3.94c-.8.9-1.27,1.37-1.27,1.37l-.21.19h0l.21-.19h0s.49-.49,1.27-1.37h0l0,0a38.77,38.77,0,0,0,3-3.9h0l0-.07a42.67,42.67,0,0,0,3.18-5.67h0a49.54,49.54,0,0,0,2.38-6.28h0l.06-.19.21-.73"/><path class="h" d="M112.74,116.84c-.78.88-1.25,1.35-1.27,1.37s.49-.49,1.27-1.37m3-3.94a38.77,38.77,0,0,1-3,3.9,38.77,38.77,0,0,0,3-3.9m3.23-5.74a42.67,42.67,0,0,1-3.18,5.67,42.67,42.67,0,0,0,3.18-5.67m2.38-6.28a49.54,49.54,0,0,1-2.38,6.28,49.54,49.54,0,0,0,2.38-6.28"/><path class="a" d="M100.71,125.56h0c-.73.36-1.52.73-2.37,1.08l-.13,0,.13,0,.29-.12c.74-.32,1.44-.64,2.08-1"/><path class="i" d="M123.58,90.5v.08c-.18,1.4-.41,2.85-.75,4.6-.3,1.46-.67,3.08-1.16,4.78h0c.49-1.7.86-3.32,1.16-4.78h0c.33-1.69.55-3.11.73-4.47l0-.13V90.5"/><path class="h" d="M122.82,95.18c-.3,1.46-.67,3.08-1.16,4.78l-.21.73c.59-2,1-3.84,1.37-5.51m.73-4.47c-.18,1.36-.4,2.78-.73,4.47.33-1.69.55-3.11.73-4.47"/><path class="h" d="M104.49,123.32a27.36,27.36,0,0,1-3.78,2.24c-.64.32-1.34.64-2.08,1a30.43,30.43,0,0,0,5.86-3.2"/><path class="h" d="M35.47,102.68s.65,1.31,1.77,3.6c-1.12-2.29-1.77-3.6-1.77-3.6"/><path class="h" d="M40.25,112a32.31,32.31,0,0,0,4.52,5.91A32.31,32.31,0,0,1,40.25,112"/><path class="h" d="M52.09,123.17A35.2,35.2,0,0,0,56.7,125a33.65,33.65,0,0,1-3.2-1.21c-.48-.21-1-.42-1.41-.65"/><path class="h" d="M56.88,125.09c1.57.5,3.21.94,4.89,1.38-1.68-.44-3.32-.88-4.89-1.38"/><path class="h" d="M61.77,126.47l2.16.55,1.67.43L63.93,127l-2.16-.55"/><path class="h" d="M98.21,126.69a42.37,42.37,0,0,1-9,2.56,42.37,42.37,0,0,0,9-2.56"/><path class="h" d="M65.6,127.45l.9.22-.9-.22"/><path class="h" d="M66.5,127.67c.94.23,1.92.45,2.91.67-1-.22-2-.44-2.91-.67"/><path class="h" d="M69.41,128.34c2.55.55,5.28,1.06,8.19,1.43l-1.13-.15c-2.49-.35-4.84-.8-7.06-1.28"/><path class="h" d="M84.76,129.8c-1.33.09-2.53.12-3.54.12,1,0,2.21,0,3.54-.12"/><polyline class="j" points="97.26 66.03 97.26 66.03 97.24 66.04 97.26 66.03"/><path class="k" d="M86.73,61.35a2.49,2.49,0,0,0-.68.08,2.39,2.39,0,0,0-1.92,2,17.3,17.3,0,0,0-2,3.87A43.11,43.11,0,0,0,80.52,72a44.61,44.61,0,0,0-1.38,7.32,3.71,3.71,0,0,0-1.32.77,3.71,3.71,0,0,1,1.32-.77A44.61,44.61,0,0,1,80.52,72a43.11,43.11,0,0,1,1.6-4.73,17.3,17.3,0,0,1,2-3.87,2.39,2.39,0,0,1,1.92-2,2.49,2.49,0,0,1,.68-.08,8.35,8.35,0,0,1,2.61.58,10.62,10.62,0,0,1,2.21,1.39c1.12.66,2.37,1.39,3.49,2.19a5.21,5.21,0,0,1,1.2,1v0l1-.48h0l0,0h0l-.05,0h0l-1,.48v0a5.21,5.21,0,0,0-1.2-1c-1.12-.8-2.37-1.53-3.49-2.19a10.62,10.62,0,0,0-2.21-1.39,8.35,8.35,0,0,0-2.61-.58"/><path class="j" d="M95.9,66.71v-.1h0l0,0h0l-.05,0-.06,0h0M97.29,66h0m0,0h0m0,0h0M86.67,64.13l.17-.07a2.77,2.77,0,0,1,.81-.09h.19c.55,0,1.32.12,2.17.22a3.31,3.31,0,0,1,1.61.84c.52.59,1,1.18,1.55,1.82l.69.86h0L93.3,68h0l.06,0h0l0,0-.12-.18v.1l0,.22a5.57,5.57,0,0,1-.59,1.72,24.79,24.79,0,0,1-3.16,5.09c-.15.17-.32.39-.5.62l-.17.22a15.34,15.34,0,0,1-1.7,1.94h0c.18-.45.36-.9.53-1.34.5-1.44,1-2.35,1.26-3.47v0h0c0-.65.12-1.63.12-2.18,0-.25,0-.41-.1-.41h0l-.06,0c-.32,0-.7,1.11-1,1.74a24.5,24.5,0,0,1-3.62,7H84a3.5,3.5,0,0,1-.56,0c-.32,0-.61,0-.89,0H82a47.47,47.47,0,0,1,2.5-9.08,14.94,14.94,0,0,0,.67-2.32,14.84,14.84,0,0,1,.48-1.87,3.47,3.47,0,0,1,.72-1.29,1,1,0,0,1,.23-.19l.06,0m.06-2.78a2.49,2.49,0,0,0-.68.08,2.39,2.39,0,0,0-1.92,2,17.3,17.3,0,0,0-2,3.87A43.11,43.11,0,0,0,80.52,72a44.61,44.61,0,0,0-1.38,7.32,3.71,3.71,0,0,0-1.32.77v0a3.86,3.86,0,0,0,1.19.73h0L79,82c0,.16,0,.32,0,.47h0a2,2,0,0,1-.34,0h-.29a1.26,1.26,0,0,1-.35-.07v0l.06.52a8.41,8.41,0,0,1,0,1h0V84a5.9,5.9,0,0,1,0,.63.22.22,0,0,1,0-.06v0h0l.14.09a1.44,1.44,0,0,0,.57.09H79a.58.58,0,0,1,0,.15v0h0l.22-.08.31-.1a6.42,6.42,0,0,0,.75-.1,8.2,8.2,0,0,0,4.89-3.22l.23-.06a5.89,5.89,0,0,0,2.44-1.32c1.57-1.33,2.81-3.69,3.47-4.66.78-1.17,1.6-2.45,2.45-3.9.42-.73.85-1.5,1.29-2.33a11.49,11.49,0,0,0,.6-1.28,4.42,4.42,0,0,0,.21-.68l0-.13.46-.39h0v0l-.05-.11h0l.27-.14.7-.34h0l0,0h0l.87-.43-.87.43h0l0,0h0l0,0h0l-1,.48v0a5.21,5.21,0,0,0-1.2-1c-1.12-.8-2.37-1.53-3.49-2.19a10.62,10.62,0,0,0-2.21-1.39,8.35,8.35,0,0,0-2.61-.58"/><polyline class="j" points="97.26 66.03 97.26 66.03 97.26 66.03 97.26 66.03"/><polyline class="j" points="97.2 66.06 97.18 66.08 97.05 66.15 97.2 66.06"/><path class="j" d="M97.05,66.15h0l-.15.1.15-.1h0"/><path class="j" d="M96.88,66.26l-.17.11.17-.11"/><path class="j" d="M96.71,66.37l-.22.16h0l.16-.12.07,0"/><path class="j" d="M96.48,66.54l-.18.14h0l.17-.13"/><path class="j" d="M78,84.6c0,.06,0,.16,0,.26,0-.08,0-.17,0-.26"/><path class="j" d="M78,84.86c0,.1,0,.2-.06.28v0c0-.06,0-.16,0-.25"/><path class="j" d="M79,84.93,78.8,85l.15-.06"/><path class="j" d="M78.8,85l-.2.08-.38.19A4.68,4.68,0,0,1,78.8,85"/><path class="j" d="M77.94,85.14a2.12,2.12,0,0,1-.09.27l0,0,.07-.23"/><path class="j" d="M78.22,85.26a4.09,4.09,0,0,0-.37.24l.22-.15.15-.09"/><path class="j" d="M77.85,85.41a1.71,1.71,0,0,1-.1.2h0l0,0,0,0h0a.71.71,0,0,0,.11-.2"/><path class="j" d="M77.85,85.5l-.08.09.06-.07,0,0"/><polyline class="j" points="77.77 85.59 77.77 85.59 77.76 85.59 77.77 85.59"/><path d="M124.55,84.55c1.29-6.24,2.1-12.57.28-18.76a68.5,68.5,0,0,0-5.73-14.51c-4-7-8.72-13.66-16.79-16.82a32,32,0,0,0-17.65-2.13c-4,.73-7.94,2-11.94,2.92-1,.21-2.84.06-3-.34-1.33-4.27-4.55-8.29-2.17-13.18a1.75,1.75,0,0,0,.18-1.15c-.57-1.71-1.14-3.43-1.87-5.08s-2.38-1.6-3.37-.13a2.54,2.54,0,0,1-1.17.93c-1.54.55-1.84,1.58-1.31,3,.7,1.81,1.53,3.57,2.1,5.41,1.18,3.81,2.22,7.67,3.29,11.41-1.11.41-2.34.9-3.59,1.34a5.57,5.57,0,0,1-1.76.45c-5.14,0-10.37-.49-14.37,3.8-2.18,2.34-4.91,4.34-6.52,7a53.28,53.28,0,0,0-6.55,16.4c-1.67,8-4.26,15.75-3.48,24.08.75,8,2.39,15.76,7,22.56a37,37,0,0,0,22.06,15.81c4.08,1,8.58,2.15,12.79.38A26.25,26.25,0,0,1,84.52,126c12.61,1.28,22-5.31,30.22-14,4.37-4.65,6.05-10.67,7.6-16.65C123.26,91.79,123.8,88.14,124.55,84.55ZM62.7,21.69c-.23-1.12-.43-2.15-.64-3.23L64,17a16.88,16.88,0,0,0,.28,2.44A9,9,0,0,0,65.08,21ZM77.81,36.11l.13.31-5.79,3.16L71,37.73Zm39.68,67.21c-1.36,4.31-4.57,7.3-7.54,10.46-3.87,4.09-8.75,6.57-13.8,8.77-4.41,1.91-9,1.59-13.56,1.38,0-.26,0-.51-.08-.76l2.89-.39c0,.18.09.35.13.53l1.65-2.53.2.1c-.19.7-.39,1.41-.59,2.11l.35.18,2.94-4.42-7.55.53c8.1-8.36,10.3-18.2,10.61-28.7l-.62-.23a6.44,6.44,0,0,0-.82,2.17c.1,7.43-3,13.85-6.47,20.09-.79,1.41-2.18,2.48-3.25,3.74-.81,1-1.92,1.84-2.28,3-1.08,3.32-3.71,4.6-6.62,5.6-9,3.07-17.11,1.14-24.75-4-6.93-4.65-12-10.75-14.57-18.78-1.91-6-3.29-12.29-2.32-18.58a210.35,210.35,0,0,1,4.73-22.35c1.52-5.71,3.85-11.16,8-15.69,4.94-5.38,10.83-6.61,17.66-4.88,3.94,1,8.07,1.47,11.83,2.92,7,2.7,12.26,7.42,15,14.57.85,2.19,1.72.68,2.81.19-5-9.22-9.24-13.39-18-17.35,4.06-2,7.66-3.88,11.38-5.49,6.79-2.94,13.23-.91,19.09,2.42,7.27,4.13,11.73,11,15.31,18.36,2.73,5.63,4.8,11.55,4.26,17.85a166.14,166.14,0,0,1-2.81,18.38A102.67,102.67,0,0,1,117.49,103.32Z"/><path d="M50.16,50a31.26,31.26,0,0,0-6.6,9.23c-1.87,3.7-1.7,7.66-1.79,11.59-.05,1.84.13,3.69.18,5.08l5.18-3.21-3.9,0,5-2.52c-.05-.18-.11-.37-.17-.55L42.68,71l-.34-.66,6.9-3.52-.15-.39-5.83,1.45-.16-.45,5.77-2.82-.12-.34-4.55,1L44,64.76l6.2-2.58-.11-.42-4.39.81L45.62,62l5.77-1.79-.16-.51L45,61.16l-.15-.38L52,57.56l-4.4.64-.08-.39,4.83-1.58-.06-.3-3,.39-.06-.44,3.9-.68L53,54.86l-3.26-.18,0-.29,4-1.2-3.13-.25,3.56-1.37-.06-.29-2.46.22-.08-.45,3.87-1.17C53.7,50.15,52,48.29,50.16,50Z"/><path d="M77.39,110.05l1.07-.07-1.66,2.48.51.33-2.82,1.28.15.36,2.06.09-3.93,2.19.19.44,3.14-.87.09.3-4.87,2.81.18.36,1.69,0-3,2.27.26.31,1.74-.43-1.44,1.79c7.45-4.22,10.35-11.61,13.68-19.26A9.63,9.63,0,0,0,77.39,110.05Z"/><path d="M96.72,120.05l4.9-2.92C99,116.5,97,117.89,96.72,120.05Z"/></svg>