<svg xmlns="http://www.w3.org/2000/svg" viewBox="0 0 150 150"><defs><style>.a{fill:#fff9d6;}.b{fill:#fff3a9;}.c{fill:#fff2a6;}.d{fill:#fff4b0;}.e{fill:#fff7c4;}.f{fill:#fffce6;}.g{fill:#fff6c0;}.h{fill:#fffdf5;}</style></defs><title>icon</title><path class="a" d="M50.42,127.45l.68.13c.87.16,1.66.37,2.42.52a9.07,9.07,0,0,0-3.1-.65m-3.35-.32-.14.11.2-.11h-.06M37,126.31c.37.18.73.35,1.1.51a13.35,13.35,0,0,0,5.27,1.26,7.83,7.83,0,0,0,1.37-.11c-.25,0-.51,0-.78,0a18.57,18.57,0,0,1-7-1.7m-13-10.85c.39.64,1,1.5,1.64,2.37l.69.89.65.78c.41.48.79.88,1.06,1.14l.17.11c-.86-1.16-1.63-2.26-2.48-3.55a9.25,9.25,0,0,1-1.73-1.74m26.57-9.54a9.13,9.13,0,0,0,3.79,1.34c.31,0,.61,0,.93,0l.65,0c-.41-.08-.9-.17-1.51-.33-1.22-.27-2.62-.67-3.86-1M68.88,95.56l-.18.36a42.87,42.87,0,0,1-3.25,5.47,31.76,31.76,0,0,0,3.2-4.9s.09-.34.23-.93M15.11,87c0,.62,0,1.25,0,1.89a44.91,44.91,0,0,0,1,10A105,105,0,0,1,15.11,87m49.29-.37A45.16,45.16,0,0,1,59,90.16a23.59,23.59,0,0,1-2.44,1.12,8.56,8.56,0,0,0,2.25-.49,13,13,0,0,0,4.75-3.18c.28-.3.56-.61.83-.94m61.11-5.28a3.47,3.47,0,0,0-.27.46,5.37,5.37,0,0,1,.72-.31l-.45-.15M68.7,79c0,.34.11.72.18,1.13l.25-.23a6.27,6.27,0,0,0-.43-.9m-3.07-.2,0,0h0v0M57,56.54c-2.13,0-3.79,1.15-5.66,2.11a7.62,7.62,0,0,1-3.66.75c-.36,0-.73,0-1.11,0a33.13,33.13,0,0,0,3.44.92l1.36-1.5c1.86-1,3.52-2.11,5.65-2.11a6.78,6.78,0,0,1,2.77.63,27.89,27.89,0,0,1,10.86,8.89,2.86,2.86,0,0,1,.53,1.25,3,3,0,0,0-.55-1.38,27.83,27.83,0,0,0-10.85-8.9A7,7,0,0,0,57,56.54m-33.42-2.4A4.78,4.78,0,0,0,18.77,57c-1.44,3.4-2.19,7.79-2.77,13-.28,2.62-.51,5.47-.68,8.62h0c.18-2.35.43-4.41.66-6.19h0c.4-3.11.73-5.42.91-7v-.07c.09-.81.14-1.39.18-1.83h0c0-.41,0-.63,0-.64h0s0,.23,0,.64h0c0,.44-.09,1-.18,1.83v.07c-.18,1.59-.51,3.9-.91,7h0c-.23,1.78-.48,3.84-.66,6.19-.14,2.59-.22,5.45-.21,8.46a105,105,0,0,0,1.06,11.89,40.91,40.91,0,0,0,1.23,4.36,38.5,38.5,0,0,0,6.18,11.54c.08.17.21.38.36.63a9.25,9.25,0,0,0,1.73,1.74c.85,1.29,1.62,2.39,2.48,3.55A81,81,0,0,0,37,126.31a18.57,18.57,0,0,0,7,1.7c.27,0,.53,0,.78,0a7.92,7.92,0,0,0,2.22-.73l.14-.11h.06l.12-.06,2.14.22,1,.16a9.07,9.07,0,0,1,3.1.65l.5.1a10.34,10.34,0,0,0,1.84.18,7.33,7.33,0,0,0,3.93-1.16c1.11-.7,2.17-1.44,3.19-2.19.23-.21.46-.44.68-.67h0c-.22.23-.45.46-.68.67,4.26-3.11,7.92-6.33,11.52-7.2a13.67,13.67,0,0,1,3.82-.59,10.93,10.93,0,0,1,3.24.49c.81.17,3.81,4.68,4.8,6.15a2.39,2.39,0,0,0,2,1.27c1.38,0,2.82-1.39,3.84-2.85a34.23,34.23,0,0,1,7.7-9.69,1.57,1.57,0,0,1,.67-.13,5.38,5.38,0,0,1,1.27.22,5.16,5.16,0,0,0,1.34.23,2.94,2.94,0,0,0,.51-.05c3-1.41,4.43-5.22,6.48-7.59,4.44-3.05,5.74-5.33,6.19-6.54s0-1.53.19-1.53h0a.6.6,0,0,1,.29-.08,3.88,3.88,0,0,1,1.59.76,3.84,3.84,0,0,0,1.86.76.86.86,0,0,0,.23,0c1.73-.64,2.35-3,2.24-4.92a74.14,74.14,0,0,1,.11-7.73,6.48,6.48,0,0,1,1-3,2.71,2.71,0,0,1-.46-.07c-.91-.18-2-.64-2.75-.78h-.26c-1.47,0-2,1.27-3.14,1.82h0a5.25,5.25,0,0,1-2.29-.69,1.63,1.63,0,0,0-.76-.24c-.75,0-.92,1-1.35,1.78-.2.63-.72.77-1.32.77-.23,0-.48,0-.73,0s-.5,0-.73,0a1.59,1.59,0,0,0-.94.23c-.72.39-1,1.48-1.47,2.38-.34.71-.74,1.32-1.37,1.32a1.28,1.28,0,0,1-.53-.13c.84.43-.39,1-1.73,1.29a8.4,8.4,0,0,1-1.42.14c-.66,0-1.08-.13-.81-.43a3.89,3.89,0,0,1-1-1.58,8.14,8.14,0,0,1-.34-1.54c.36-2-.63-5.11-1.1-7.66-.14-.25-2.95.07-4.43-1.93-1.16-1.68-2.18-3.64-3.2-3.84-.22.21-.17,1.5-.41,1.72-.28.07-1.92,2.94-4.07,5.61-2,2.5-4.27,4.83-5,4.83a.24.24,0,0,1-.14,0,5.79,5.79,0,0,1-1.34-3.76c.05-3.7-1-5.31-1.43-8.36-.07-.81.13-1.81.06-2.63-.32-2.22-.88-4.79-1.42-5.26-.65-1-1.31-1.48-1.9-1.48a1.1,1.1,0,0,0-.77.35c-.5-.07-1-.14-1.41-.22a27.73,27.73,0,0,0-1.42,2.8c-.75,1.48-1.07,2.61-1.29,2.61,0,0-.07,0-.11-.09h0c-.06,0-.35,1.15-.8,2.58a19.43,19.43,0,0,1-1.79,4.23c0,.08,0,.59.13,1.46l.7-1.21a28.62,28.62,0,0,1,1.93-3c.64-.8,1.27-1.4,1.86-1.4s1.35.85,1.89,3.2c0,0,.41.64,1,1.71s1.49,2.53,2.36,4.19C80.09,85,81.86,89,80.61,92.33c0,0-.6,1.61-1.74,4a55.47,55.47,0,0,1-5.17,8.84,31.28,31.28,0,0,1-8.79,8.43,17.22,17.22,0,0,1-8.81,2.72,12.06,12.06,0,0,1-2.4-.24,1.07,1.07,0,0,0-.3,0,3.85,3.85,0,0,0-1,.15c-.23.06-.48.15-.79.25s-.71.21-1.14.36c-.85.3-1.89.72-3.17,1.28h0a17.12,17.12,0,0,1-6.05-1.3,14.6,14.6,0,0,1-4.78-3.17,12.74,12.74,0,0,1-1-1.14,9.72,9.72,0,0,1-.81-1.3,8,8,0,0,1-.87-2.85s-.11-.27-.33-.74-.51-1.17-.89-2-.78-1.87-1.23-3.1c-.22-.61-.44-1.22-.66-1.88s-.44-1.38-.65-2.09a52.27,52.27,0,0,1-1.85-9.3c-.34-3.07-.42-5.92-.74-8,0,0,1.07-1.73,2.16-3.59a15.44,15.44,0,0,0,1.67-3.56c0-.22,0-.42,0-.6,0-1,.07-1.51.07-1.51a4.57,4.57,0,0,1-.08,2.11c0,.76,0,1.72,0,2.86a26.78,26.78,0,0,1,.34-3.13,23.67,23.67,0,0,1,1.41-5.08c1.06-2.56,2.2-3.88,3.17-3.88h.13s.41-.46,1-1A26,26,0,0,1,40,61.78a12.81,12.81,0,0,1,5.6-2.51c-.53-.05-1.08-.13-1.64-.22-3-.5-6.52-1.42-9.91-2.34a61.75,61.75,0,0,0-8.55-2.43,14.21,14.21,0,0,0-1.91-.14"/><path class="b" d="M68.46,76.65c-1,1.4-1.74.58-2.83,2.17,1.05-1.46,1.78-.69,2.77-2.07l.06-.09h0m2.69-9.21A1.54,1.54,0,0,1,71,68.56a1.77,1.77,0,0,1-1.49.55c-.3,0-.62,0-1-.06a20,20,0,0,0-2-.17,4.24,4.24,0,0,0-1.09.12c-.1.31-.63.54-.47,1a1.73,1.73,0,0,1,0,1.11,13.59,13.59,0,0,1-5.17,3.24c-1.6,1.43-2.06,3.2-3.17,4.48a2.44,2.44,0,0,0-.77,1.66c-.08.47-.18.64-1,.94s-.94,1.05-.42,1.39a2.22,2.22,0,0,0,1.2.27,7.41,7.41,0,0,0,2.12-.36,34.61,34.61,0,0,0,3.82-1.15,9.49,9.49,0,0,0,2.12-1.17A7.91,7.91,0,0,0,65.55,79l.06-.1a7.16,7.16,0,0,1-1.91,1.49,9.38,9.38,0,0,1-2.1,1.18,35.42,35.42,0,0,1-3.8,1.17,7.54,7.54,0,0,1-2.16.38,2.15,2.15,0,0,1-1.15-.26c-.52-.32-.36-.94.42-1.34s1-.44,1-.89A2.35,2.35,0,0,1,56.69,79c1.09-1.26,1.55-3,3.14-4.45A13.87,13.87,0,0,0,65,71.26a1.81,1.81,0,0,0,0-1.11c-.16-.48.36-.72.47-1A4.16,4.16,0,0,1,66.54,69a19.76,19.76,0,0,1,2,.17,7.94,7.94,0,0,0,1,.06A1.75,1.75,0,0,0,71,68.68a1.62,1.62,0,0,0,.13-1.24"/><path class="c" d="M57,56.67c-2.13,0-3.79,1.16-5.65,2.11L50,60.28l.3.06a14,14,0,0,0,2.5.29,2.86,2.86,0,0,0,2.6-1.06s.26,0,.69,0,.71,0,1.17,0a18.92,18.92,0,0,1,3.78.58c2.59.71,4.59,2.1,3.38,3.75,0,0-.19.67-.44,1.51a20.44,20.44,0,0,1-.76,2.32,52.42,52.42,0,0,0-6.88,4.73c-1.7,1.39-3.41,2.93-4.66,4.08s-2.19,2.11-2.83,2.2a7.21,7.21,0,0,0-.52.71,7,7,0,0,0-.92,2.18,7.15,7.15,0,0,0,.09,3.57,8.11,8.11,0,0,0,2.3,3.71,8.93,8.93,0,0,0,6.07,2.38q.36,0,.72,0A23.59,23.59,0,0,0,59,90.16a45.16,45.16,0,0,0,5.39-3.49,22.9,22.9,0,0,0,3.2-5.3s.52-.53,1.22-1.17l.06,0c-.07-.41-.13-.79-.18-1.13a3.65,3.65,0,0,0-.34-.5l.23-.4c-.11-.87-.13-1.38-.13-1.46l-.06.09c-1,1.38-1.72.61-2.77,2.07v0h0l-.06.1a7.91,7.91,0,0,1-1.91,1.49,9.49,9.49,0,0,1-2.12,1.17,34.61,34.61,0,0,1-3.82,1.15,7.41,7.41,0,0,1-2.12.36,2.22,2.22,0,0,1-1.2-.27c-.52-.34-.37-1,.42-1.39s1-.47,1-.94a2.44,2.44,0,0,1,.77-1.66c1.11-1.28,1.57-3,3.17-4.48a13.59,13.59,0,0,0,5.17-3.24A1.73,1.73,0,0,0,65,70c-.16-.49.37-.72.47-1a4.24,4.24,0,0,1,1.09-.12,20,20,0,0,1,2,.17c.33,0,.65.06,1,.06A1.77,1.77,0,0,0,71,68.56a1.54,1.54,0,0,0,.15-1.12,2.86,2.86,0,0,0-.53-1.25A27.89,27.89,0,0,0,59.76,57.3,6.78,6.78,0,0,0,57,56.67"/><path class="d" d="M45.91,59.26h-.35A12.81,12.81,0,0,0,40,61.78a26,26,0,0,0-2.55,2.08c-.63.57-1,1-1,1h-.13c-1,0-2.11,1.32-3.17,3.88a23.67,23.67,0,0,0-1.41,5.08A26.78,26.78,0,0,0,31.32,77c0,.25,0,.51.05.78a30.24,30.24,0,0,0,1.17,6.45A26.15,26.15,0,0,0,35.74,91a27.76,27.76,0,0,0,4.42,5.07c1.49,1.33,2.9,2.4,4.09,3.27,2.38,1.76,4,3,4,4.54a3.56,3.56,0,0,0,.34.45,8.27,8.27,0,0,0,1.89,1.61c1.24.36,2.64.76,3.86,1,.61.16,1.1.25,1.51.33a11.08,11.08,0,0,0,5.18-1.83,18.85,18.85,0,0,0,4.39-4.06,42.87,42.87,0,0,0,3.25-5.47l.18-.36c.09-.36.19-.8.29-1.32A45.77,45.77,0,0,0,69.9,89c.25-3.24.12-6.77-.77-9.06l-.25.23-.06,0c-.7.64-1.22,1.17-1.22,1.17a22.9,22.9,0,0,1-3.2,5.3c-.27.33-.55.64-.83.94a13,13,0,0,1-4.75,3.18,8.56,8.56,0,0,1-2.25.49q-.36,0-.72,0a8.93,8.93,0,0,1-6.07-2.38,8.11,8.11,0,0,1-2.3-3.71,7.15,7.15,0,0,1-.09-3.57,7,7,0,0,1,.92-2.18,7.21,7.21,0,0,1,.52-.71c.64-.09,1.55-1,2.83-2.2s3-2.69,4.66-4.08a52.42,52.42,0,0,1,6.88-4.73A20.44,20.44,0,0,0,64,65.43c.25-.84.44-1.51.44-1.51,1.21-1.65-.79-3-3.38-3.75a18.92,18.92,0,0,0-3.78-.58c-.46,0-.86,0-1.17,0s-.69,0-.69,0a2.86,2.86,0,0,1-2.6,1.06,14,14,0,0,1-2.5-.29l-.3-.06a33.13,33.13,0,0,1-3.44-.92l-.26-.08a2.23,2.23,0,0,0-.37,0"/><path class="e" d="M73.08,72.56c-.59,0-1.22.6-1.86,1.4a28.62,28.62,0,0,0-1.93,3l-.7,1.21-.23.4a3.65,3.65,0,0,1,.34.5,6.27,6.27,0,0,1,.43.9c.89,2.29,1,5.82.77,9.06a45.77,45.77,0,0,1-.73,5.26c-.1.52-.2,1-.29,1.32-.14.59-.23.93-.23.93a31.76,31.76,0,0,1-3.2,4.9,18.85,18.85,0,0,1-4.39,4.06,11.08,11.08,0,0,1-5.18,1.83l-.65,0c-.32,0-.62,0-.93,0a9.13,9.13,0,0,1-3.79-1.34,8.27,8.27,0,0,1-1.89-1.61,3.56,3.56,0,0,1-.34-.45c-.08-1.5-1.65-2.78-4-4.54-1.19-.87-2.6-1.94-4.09-3.27A27.76,27.76,0,0,1,35.74,91a26.15,26.15,0,0,1-3.2-6.78,30.24,30.24,0,0,1-1.17-6.45c0-.27,0-.53-.05-.78-.06-1.14-.06-2.1,0-2.86a15.44,15.44,0,0,1-1.67,3.56c-1.09,1.86-2.16,3.59-2.16,3.59.32,2.06.4,4.91.74,8A52.27,52.27,0,0,0,30,98.54c.21.71.43,1.41.65,2.09s.44,1.27.66,1.88c.45,1.23.86,2.22,1.23,3.1s.68,1.54.89,2,.33.74.33.74a8,8,0,0,0,.87,2.85,9.72,9.72,0,0,0,.81,1.3,12.74,12.74,0,0,0,1,1.14,14.6,14.6,0,0,0,4.78,3.17,17.12,17.12,0,0,0,6.05,1.3h0c1.28-.56,2.32-1,3.17-1.28.43-.15.8-.27,1.14-.36s.56-.19.79-.25a3.85,3.85,0,0,1,1-.15,1.07,1.07,0,0,1,.3,0,12.06,12.06,0,0,0,2.4.24,17.22,17.22,0,0,0,8.81-2.72,31.28,31.28,0,0,0,8.79-8.43,55.47,55.47,0,0,0,5.17-8.84c1.14-2.43,1.74-4,1.74-4C81.86,89,80.09,85,78.36,81.66,77.49,80,76.63,78.52,76,77.47s-1-1.71-1-1.71c-.54-2.35-1.19-3.2-1.89-3.2M31.36,72s0,.55-.07,1.51c0,.18,0,.38,0,.6A4.57,4.57,0,0,0,31.36,72"/><path class="f" d="M101.81,90.29h0M76.62,58a.41.41,0,0,0-.18,0c-.4.33-.88.08-1.21.7-.65,1.55-1.33,3.89-2,5.71l.67.12c.44.08.91.15,1.41.22a1.1,1.1,0,0,1,.77-.35c.59,0,1.25.52,1.9,1.48.54.47,1.1,3,1.42,5.26.07.82-.13,1.82-.06,2.63.39,3,1.48,4.66,1.43,8.36a5.79,5.79,0,0,0,1.34,3.76.24.24,0,0,0,.14,0c.75,0,3.06-2.33,5-4.83,2.15-2.67,3.79-5.54,4.07-5.61.24-.22.19-1.51.41-1.72,1,.2,2,2.16,3.2,3.84,1.48,2,4.29,1.68,4.43,1.93.47,2.55,1.46,5.61,1.1,7.66a8.14,8.14,0,0,0,.34,1.54,3.89,3.89,0,0,0,1,1.58c-.27.3.15.43.81.43a8.4,8.4,0,0,0,1.42-.14c1.34-.27,2.57-.86,1.73-1.29a1.28,1.28,0,0,0,.53.13c.63,0,1-.61,1.37-1.32.43-.9.75-2,1.47-2.38a1.59,1.59,0,0,1,.94-.23c.23,0,.48,0,.73,0s.5,0,.73,0c.6,0,1.12-.14,1.32-.77.43-.76.6-1.78,1.35-1.78a1.63,1.63,0,0,1,.76.24,5.25,5.25,0,0,0,2.29.69h0c1.17-.55,1.67-1.82,3.14-1.82h.26c.76.14,1.84.6,2.75.78a2.71,2.71,0,0,0,.46.07l.25,0c.58,0,1-.22,1-.86a.81.81,0,0,1,.08-.34,3.47,3.47,0,0,1,.27-.46c.17-.28.28-.54,0-.84h-.25a5.89,5.89,0,0,1-.69,0,6.13,6.13,0,0,0-.74-.05h-.33a5.3,5.3,0,0,0-1.34.21,5,5,0,0,1-1.24.2,2.94,2.94,0,0,1-.75-.09c-1.32-.2-2.7-.77-3.88-1H116a3.28,3.28,0,0,0-1.36.23,11.39,11.39,0,0,0-5.11,1.81c.36,2-1.31,1.33-2.07,1.6h0a5.06,5.06,0,0,1-1-.37c-.5.06-.86.55-1.33.55a1.2,1.2,0,0,1-.85-.51c-2.09-2.58-3.85-4.93-5.52-6.89-.67-.78-2.16-2.13-3.52-3.41A30.72,30.72,0,0,0,92,70.1a1.64,1.64,0,0,0-1-.34A3.6,3.6,0,0,0,90,70a3.43,3.43,0,0,1-1.09.23,1.78,1.78,0,0,1-.59-.1,1.68,1.68,0,0,1,0-.62l-.44.09c-.07.24-.39.68-.46.93-.36-.09-.64-.41-1-1A12.64,12.64,0,0,0,82,64.11,11.24,11.24,0,0,1,78,59.49C77.6,58.87,77.1,58,76.62,58"/><path class="g" d="M48.19,127.26h0c.56,0,1.32.1,2.09.18h.14a9.07,9.07,0,0,1,3.1.65.73.73,0,0,1,.2.19,4.91,4.91,0,0,0,1.62.22,9.62,9.62,0,0,0,1.23-.09l.2,0-.2,0a9.62,9.62,0,0,1-1.23.09,4.91,4.91,0,0,1-1.62-.22.73.73,0,0,0-.2-.19,9.07,9.07,0,0,0-3.1-.65h-.14c-.77-.08-1.53-.14-2.09-.18h0m-1.12-.13h.06l1.06.13-1.06-.13h-.06m16.59-2.77c-.22.23-.45.46-.68.67a12.4,12.4,0,0,1-6.21,3.35A12.4,12.4,0,0,0,63,125c.23-.21.46-.44.68-.67M28.9,121.42l0,0c.42.33,1,.79,1.79,1.33A35.29,35.29,0,0,0,36.35,126l.62.28a18.57,18.57,0,0,0,7,1.7c.27,0,.53,0,.78,0a4.46,4.46,0,0,0,2.22-.73l.14-.11h0l-.14.11a4.46,4.46,0,0,1-2.22.73c-.25,0-.51,0-.78,0a18.57,18.57,0,0,1-7-1.7l-.62-.28a35.29,35.29,0,0,1-5.64-3.26c-.76-.54-1.37-1-1.79-1.33l0,0m-.47-.38.47.38-.47-.38M15.08,84.78h0c0,.74,0,1.49,0,2.26a105,105,0,0,0,1.06,11.89l.21,1.38.21.74c.14.47.35,1.14.63,2a47.82,47.82,0,0,0,2.45,5.79,38.48,38.48,0,0,0,4.27,6.67,9.25,9.25,0,0,0,1.73,1.74c.85,1.29,1.62,2.39,2.48,3.55l.1.14.18.15h0l-.18-.15-.1-.14c-.86-1.16-1.63-2.26-2.48-3.55a9.25,9.25,0,0,1-1.73-1.74,38.48,38.48,0,0,1-4.27-6.67A47.82,47.82,0,0,1,17.22,103c-.28-.81-.49-1.48-.63-2l-.21-.74-.21-1.38A105,105,0,0,1,15.11,87c0-.77,0-1.52,0-2.26M16,72.39h0c-.23,1.78-.48,3.84-.66,6.19-.14,1.81-.23,3.79-.24,5.93v.27h0v-.27c0-2.14.1-4.12.24-5.93.18-2.35.43-4.41.66-6.19h0m.91-7c-.18,1.59-.51,3.9-.91,7,.4-3.11.73-5.42.91-7m.19-1.9h0c0,.44-.09,1-.18,1.83v0c.09-.81.14-1.39.18-1.83h0m0-.64s0,.23,0,.64c0-.41,0-.63,0-.64m0,0h0"/><path class="h" d="M90.62,66.24c-1.52,0-2.15,2.17-2.32,3.26a1.68,1.68,0,0,0,0,.62,1.78,1.78,0,0,0,.59.1A3.43,3.43,0,0,0,90,70,3.6,3.6,0,0,1,91,69.76a1.64,1.64,0,0,1,1,.34,30.72,30.72,0,0,1,3.15,2.73c1.36,1.28,2.85,2.63,3.52,3.41,1.67,2,3.43,4.31,5.52,6.89a1.2,1.2,0,0,0,.85.51c.47,0,.83-.49,1.33-.55a5.06,5.06,0,0,0,1,.37h0c.76-.27,2.43.4,2.07-1.6a11.39,11.39,0,0,1,5.11-1.81,3.28,3.28,0,0,1,1.36-.23h.34c1.18.18,2.56.75,3.88,1a2.94,2.94,0,0,0,.75.09,5,5,0,0,0,1.24-.2,5.3,5.3,0,0,1,1.34-.21h.33a6.13,6.13,0,0,1,.74.05,5.89,5.89,0,0,0,.69,0h.25c0-.36.59-.64.11-.9a5.57,5.57,0,0,0-1.89-.64,53.53,53.53,0,0,1-6.62-1.55c-3.72-.81-6.58-1.76-8.64-1.76a4.68,4.68,0,0,0-1,.1c-.39.08-.17,1-.28,1.57-.21,1.39-1.88.61-1.81,2.95,0,.21-.07.3-.21.3a.51.51,0,0,1-.26-.09,64.39,64.39,0,0,1-7.56-8.37,31.38,31.38,0,0,0-3.21-3.36c-1.17-1.11-2.26-2.09-2.62-2.34a2.15,2.15,0,0,0-.89-.22"/><path d="M117.45,98.4c-1,1.62-2.5,2.17-3.85,2.84-2.66,1.31-5.36,2.51-8,3.75a10.17,10.17,0,0,1-1.48.64c-4.79,1.34-9.55,2.82-14.4,3.94A105.46,105.46,0,0,1,64,112.36c-3.9-.08-7.79-.5-11.69-.8-4.43-.35-8.87-.68-13.29-1.14-3.14-.33-6.29-.76-9.4-1.35-5.14-1-8.23-4.31-10.42-8.94-1.76-3.72-1.32-7.29-.46-11a44.48,44.48,0,0,1,5.08-11.83c2.41-4.28,4.94-8.51,7.7-12.58A40.18,40.18,0,0,1,40,55.55c3.33-2.61,6.71-5.18,10.16-7.64a27.13,27.13,0,0,1,4.28-2.23,54.36,54.36,0,0,1,21.43-5.37,69.83,69.83,0,0,1,28.3,4.49,49,49,0,0,1,17.73,12,48.7,48.7,0,0,1,8.61,13.62,40.22,40.22,0,0,1,1.9,4.89,18.2,18.2,0,0,1,.29,10,11,11,0,0,1-1.34,3.35c-1.32,2-2.23,4.32-4.23,5.84-1.14.86-2.32,1.67-3.49,2.51l-.32-.33a15.7,15.7,0,0,1,1.35-1.57,27.88,27.88,0,0,0,5.13-7c2.46-4.26,2.36-8.82.72-13.29a51.06,51.06,0,0,0-9.8-16.86c-4.47-4.95-9.59-9.06-16-11.26-2.74-.93-5.37-2.28-8.16-3a74,74,0,0,0-10.15-1.63,70.54,70.54,0,0,0-21.1,1.27,17.21,17.21,0,0,0-3.67,1.08c-3.39,1.49-7,2.4-10.16,4.41-2.26,1.45-4.55,2.88-6.65,4.54-2.42,1.91-4.72,4-6.95,6.14a31.35,31.35,0,0,0-4.26,4.81A137.6,137.6,0,0,0,22.08,84a32.47,32.47,0,0,0-2.36,8.55c-.55,3.44.82,6.34,2.32,9.22,1.92,3.68,5.16,5.47,9.11,5.92,9.71,1.08,19.41,2.23,29.15,3a105.49,105.49,0,0,0,14.54-.32,95.28,95.28,0,0,0,21.21-4c6.65-2,13.23-4.14,19.29-7.63C116,98.27,116.05,98.3,117.45,98.4Z"/><path d="M38.63,62.62c-.74-1.08,0-1.44.51-1.82,3-2.38,6-4.73,9.07-7.09a46.09,46.09,0,0,1,13.11-6.66,47.58,47.58,0,0,1,11.37-2.68c1.81-.18,3.59-.57,5.38-.9a8.72,8.72,0,0,1,4.18.31c.82.25.88.7.75,1.11-4.54,1.77-8.92,3.47-13.29,5.2q-7.6,3-15.18,6.08c-5,2-9.94,4.12-14.92,6.17A9.69,9.69,0,0,1,38.63,62.62Zm5.19-4,.25.51,33.8-13.79a40.46,40.46,0,0,0-5.68.44A46.25,46.25,0,0,0,59.73,48.9a68.82,68.82,0,0,0-9.27,4.87C48.13,55.18,46,57,43.82,58.6Z"/><path d="M86.88,48.16c.82.76,1.46,1.44.94,2.38-3.38,1.45-6.67,2.79-9.9,4.27-7.61,3.48-15.67,5.6-23.71,7.77-.46.13-.93.16-1.39.28a.86.86,0,0,1-1.19-.73A1.43,1.43,0,0,1,52.24,61c1.91-1.12,3.87-2.16,5.81-3.23a79.36,79.36,0,0,1,19-7.61C80.34,49.38,83.65,48.82,86.88,48.16Zm-2.48,2.2C79.19,50,59.56,57.24,56.8,60.57A128.92,128.92,0,0,0,84.4,50.36Z"/><path d="M24.78,89.94c.34.14.87.2,1,.45,1.09,2.22,3.23,2.87,5.31,3.26,4.43.83,8.91,1.39,13.37,2a15.27,15.27,0,0,0,2.62,0c6.11-.21,12.24.45,18.34-.51,3.12-.48,6.29-.62,9.43-.91a1.54,1.54,0,0,1,1.1.41,5.45,5.45,0,0,1-1.43.75c-1.71.33-3.44.6-5.17.81-1.4.18-2.82.17-4.22.36-6.85.91-13.73.49-20.59.36a83.31,83.31,0,0,1-10-1.31c-1.53-.22-3.05-.52-4.57-.79a9.35,9.35,0,0,1-4.49-2.59,7,7,0,0,1-1.15-1.93Z"/><path d="M119,80.61a7,7,0,0,1,.58-1.38c2.48-3.15,2.19-6.54.71-9.91A24.81,24.81,0,0,0,114.67,62a12.11,12.11,0,0,0-2-1.32c-.89-.61-1.79-1.2-2.64-1.86-.24-.2-.29-.63-.43-1,.28-.1.42-.22.51-.18A22.24,22.24,0,0,1,122.3,69.85a11,11,0,0,1,.23,7.54C122.14,78.8,120.75,79.75,119,80.61Z"/><path d="M86.18,58.34c-2.52,2-5.85,1.89-8.62,3.8l-.4-1.74C82.55,58.12,84.25,57.72,86.18,58.34Z"/><path d="M124.87,100.68c.53-1.59,1.26-1.9,2.21-1a1.05,1.05,0,0,1-.28,1.9,16.84,16.84,0,0,1-2.81,1.09c-.66.18-1.4.16-1.53-.8a1.49,1.49,0,0,1,1.4-1.63C124.16,100.24,124.46,100.49,124.87,100.68Z"/><path d="M125.5,82.87c.72.48,1.31.66,1.36.94a2.5,2.5,0,0,1-1.36,2.55Z"/><path d="M134.07,91.55a6.67,6.67,0,0,1,.78,1.56c.1.79-.45,1.48-1,1.33-.28-.07-.68-.56-.63-.78A11.34,11.34,0,0,1,134.07,91.55Z"/><path d="M134.1,100.85a2.19,2.19,0,0,1-.38-2.47c.06-.21.64-.51.73-.44.27.22.64.64.58.89A11.67,11.67,0,0,1,134.1,100.85Z"/><path d="M139.87,99.54c-.75.61-1,.92-1.32,1-.13,0-.54-.36-.58-.6-.09-.53.17-.94.78-.86A5.2,5.2,0,0,1,139.87,99.54Z"/></svg>