<svg xmlns="http://www.w3.org/2000/svg" viewBox="0 0 150 150"><defs><style>.a{fill:#fbdbb6;}.b{fill:#fbd1a3;}.c{fill:#f9b674;}.d{fill:#f8b36e;}.e{fill:#fabb7e;}.f{fill:#facb99;}.g{fill:#faca94;}.h{fill:#fde9d1;}.i{fill:#fac794;}.j{fill:#fac893;}.k{fill:#f9d0a1;}.l{fill:#fff5ec;}.m{fill:#fff9d6;}.n{fill:#fff3a9;}.o{fill:#fff2a6;}.p{fill:#fff4b0;}.q{fill:#fff7c4;}.r{fill:#fffce6;}.s{fill:#fff6c0;}.t{fill:#fffdf5;}</style></defs><title>icon</title><path class="a" d="M43.41,41a3,3,0,0,0-1.26.26.74.74,0,0,0-.11.44c0,.27.07.61.07.88A.67.67,0,0,1,42,43a8.22,8.22,0,0,0-1.12,2.52,37,37,0,0,0-1.34,5c-.19.9-.35,1.78-.49,2.59s-.23,1.6-.32,2.29A12.62,12.62,0,0,1,38.42,57c-.1.42-.21.69-.37.75a4.5,4.5,0,0,1-3.4-.67c-2.38-1.92-4.35-1.51-6.8-2.34-.63-.27-1.13-1-1.76-1.32a10.43,10.43,0,0,0-3-.49,3.19,3.19,0,0,0-2.15.61,7.85,7.85,0,0,0-2.56,2.44,8.22,8.22,0,0,0-1.24,3.49,40.18,40.18,0,0,0-1.72,5.29l.06.5A22.94,22.94,0,0,0,17,70.74a14.7,14.7,0,0,0,1,2.16c.3.57.58,1,.8,1.39a3.19,3.19,0,0,1,.6,1.77c0,.1,0,.2,0,.31,0,.6,4.09,2.23,7,4.38l.2-.36.57-1.11-.07,0a10.18,10.18,0,0,1-1.35-1.14,14.46,14.46,0,0,1-3.21-5.25,13.67,13.67,0,0,1-.81-4.41A8.72,8.72,0,0,1,22,66.16a5.08,5.08,0,0,1,3.88-3.9l.57-.41a12.89,12.89,0,0,1,1.51-.91,17,17,0,0,1,4.72-1.55,14.35,14.35,0,0,1,2.43-.22h.21a10.62,10.62,0,0,1,2.51.4,6,6,0,0,1,3.59,2.57l.52.84c.33.53.84,1.32,1.48,2.22s1.4,1.94,2.25,3a23,23,0,0,0,3,3.06,11.58,11.58,0,0,0,2.06,1.38c.4-.11.84-.23,1.36-.4.73-.25,1.56-.55,2.47-.91l1.45-.6.33-.14L57.55,70l.84-.38h0L59.65,69l1.29-.61v-.21a.23.23,0,0,1,.21-.11.92.92,0,0,1,.3.07l1-.47.16-.08c.08-.46.11-1,.15-1.65a10.93,10.93,0,0,1,.49-2.91A12.82,12.82,0,0,0,66,59.42a4.71,4.71,0,0,0,.26-1.1s0,0,0,0h0c.48,0,.9,2.18,1.44,2.56l.16,0c.31,0,.58-.23.86-.6a9,9,0,0,0,.9-1.79A15.35,15.35,0,0,1,71.08,56a8.11,8.11,0,0,1,1.77-2,3.26,3.26,0,0,1,1.89-.73h.15c-.24-.74-.32-1.91-.62-2.61a1.85,1.85,0,0,0-1.37-1,8.15,8.15,0,0,1-1.68-.26A6.85,6.85,0,0,1,70,47.7a.94.94,0,0,0-.86-.65,4.39,4.39,0,0,0-1.66.71,1.09,1.09,0,0,1-.73.27,2.54,2.54,0,0,1-1-.3,4.16,4.16,0,0,0-1.55-.51,1.19,1.19,0,0,0-.37.06,4,4,0,0,0-2,1.66c-.42.53-.82,1-1.33,1a1.17,1.17,0,0,1-.54-.14c.15.09.22.18.22.26,0,.31-.9.57-1.79.81a8,8,0,0,1-1.53.21h-.12c-.24,0-.38,0-.38-.15a.24.24,0,0,1,.06-.14h0a3.27,3.27,0,0,1-1-1.17,6.17,6.17,0,0,1-.45-1.2v0a5.66,5.66,0,0,0,0-.6C55,46,54.1,43.88,53.72,42c0,0-.07,0-.14,0A4.51,4.51,0,0,0,53,42c-.42.08-1,.19-1.61.29a14.34,14.34,0,0,1-1.9.15h-.31a4.81,4.81,0,0,1-1.68-.25A11.49,11.49,0,0,0,43.41,41"/><path class="a" d="M76,53.85h0a2.48,2.48,0,0,1,.34.43c0-.12,0-.25,0-.38l-.07,0a1.24,1.24,0,0,0-.27,0"/><path class="a" d="M67.8,65l-.87.45.79-.39h0a1.25,1.25,0,0,1,.32.13l-.11-.09a.62.62,0,0,0-.14-.1"/><path class="a" d="M67.73,65.06h0l-.79.39-.61.32-2,1-1.53.77-.18.08h0l-.16.08-1,.47h0l-.14.07-.38.18h0L59.65,69l-1.22.57.06,0,.09,0,.19,0h0a1,1,0,0,1,.7.4s.08.13.58.18h.4a12.8,12.8,0,0,0,2.75-.38,4.42,4.42,0,0,1,1.84.7,1.38,1.38,0,0,1,.62,1.14,3.65,3.65,0,0,1-1,2.14s-.18.4-.42,1a18.5,18.5,0,0,0-.7,2.34,9.35,9.35,0,0,0-.26,2c0,1,.23,1.73.84,1.91h0a8.41,8.41,0,0,0-.65,1.68,2.5,2.5,0,0,0-.1.69.86.86,0,0,0,.18.6l.21.05.52.1h0l-.26,0a.62.62,0,0,1-.47-.18c-.25-.06-.56-.13-.91-.23,1.68,1,3.07,1.95,3.07,2.94a1.15,1.15,0,0,1-.18.59,18.51,18.51,0,0,1,.83,2.28,10.67,10.67,0,0,1,.55,3q0,.3,0,.6A35,35,0,0,1,70.93,85c1.17-1.78,2.8-4,4-5.79a8.47,8.47,0,0,0,1.6-3.2.47.47,0,0,0-.19-.42,4.06,4.06,0,0,0-1.43-.25c-.53,0-1.1,0-1.61-.11a2.22,2.22,0,0,1-1.24-.49,1.79,1.79,0,0,0,.67.53h0a3,3,0,0,0,1.15.21h0a4.24,4.24,0,0,0,.93-.1,4.24,4.24,0,0,1-.93.1h0a4.24,4.24,0,0,0,.93-.1,4.24,4.24,0,0,1-.93.1h0a3,3,0,0,1-1.15-.21h0a1.79,1.79,0,0,1-.67-.53,1.18,1.18,0,0,1-.35-.9V73.6h0a5,5,0,0,1,.59-2.12,11.09,11.09,0,0,0,.6-2.91v-.09h0a1.26,1.26,0,0,0,.07-.16c0-.17-.06-.28-.15-.3h0c.14-.33.27-.66.42-1-.45-.32-.64-.87-1-1.28a2.72,2.72,0,0,0-1.63-.5h0l-.29,0a10.23,10.23,0,0,0-1.21.27l-.13,0h0l-.09,0a2.56,2.56,0,0,1-.83-.42,1.25,1.25,0,0,0-.32-.13"/><path class="b" d="M74.86,75.36a4.24,4.24,0,0,1-.93.1h0a4.24,4.24,0,0,0,.93-.1m-2.79-.64h0a1.79,1.79,0,0,0,.67.53h0a1.79,1.79,0,0,1-.67-.53h0M60.94,68.43,59.65,69l-1.22.57h0L59.65,69l1.29-.61h0M72.83,68h0c.09,0,.14.13.15.3h0c0-.17-.06-.28-.15-.3m-10.24-.39-.16.08-1,.47h0l1-.47.16-.08h0m6.38-2h0m.14,0h0l-.13,0h0l.13,0h0m1.5-.29h0l-.29,0h0l.29,0m0,0h0a2.72,2.72,0,0,1,1.63.5h0a2.73,2.73,0,0,0-1.59-.5h0m-2.92-.19h0l-.79.39h0l.79-.39h0a1.25,1.25,0,0,1,.32.13h0a1.25,1.25,0,0,0-.32-.13"/><path class="a" d="M71,65.21a4,4,0,0,0-.65.06l.29,0h0a2.72,2.72,0,0,1,1.63.5,1.29,1.29,0,0,0-.16-.17A1.63,1.63,0,0,0,71,65.21"/><path class="a" d="M69.11,65.54l-.14,0h0l.13,0"/><path class="a" d="M73.25,67c-.15.33-.28.66-.42,1,.09,0,.14.13.15.3a5.05,5.05,0,0,0,.3-1.23v0l0,0"/><path class="a" d="M58.4,69.62h0l-.83.37.36-.16.48-.22"/><path class="a" d="M56.25,70.58l-.31.13.07,0,.24-.1"/><path class="a" d="M54.49,71.31c-.89.36-1.71.66-2.44.9.66-.22,1.45-.51,2.41-.89h0"/><path class="a" d="M72.31,71.48a5,5,0,0,0-.59,2.12v0c0-.09,0-.19,0-.29.17-.66.36-1.28.54-1.86"/><path class="a" d="M40.55,72.57l.29.11a13.58,13.58,0,0,0,4.13.9l.72,0h0a13.17,13.17,0,0,1-4.38-.92l-.76-.11"/><path class="a" d="M49.05,73h0"/><polyline class="a" points="49.04 72.96 49.02 72.96 48.99 72.97 48.99 72.97 48.99 72.97 49.04 72.96"/><path class="a" d="M49,73h0"/><path class="a" d="M53,73.73l.48.58a12.89,12.89,0,0,0,1.19,1.27,2.86,2.86,0,0,0-1-1.42,5.19,5.19,0,0,0-.69-.43"/><path class="a" d="M28,76.59a8.85,8.85,0,0,0-.32,1.76c.19-.37.4-.78.65-1.22q-.16-.25-.33-.54"/><path class="a" d="M35.85,80.59a16.76,16.76,0,0,0,2.77,1c1,.26,1.9.5,2.83.72.75.18,1.5.34,2.25.49A14.85,14.85,0,0,0,41.9,82,24,24,0,0,0,37,80.79l-1.13-.2"/><path class="a" d="M66.7,93.89a18.33,18.33,0,0,0-1,2.62c.33.25.66.48,1,.72.76,1.4,1.81,2.33,1.81,4.48a8.23,8.23,0,0,1-.1,1.24,50.05,50.05,0,0,1-3,11.31,1.75,1.75,0,0,1-.77.84,1.74,1.74,0,0,0,.87-.9,50,50,0,0,0,3-11.3,7.22,7.22,0,0,0,.11-1.25c0-2.14-1.05-3.07-1.81-4.47a3.08,3.08,0,0,1-.37-1.58,7.34,7.34,0,0,1,.23-1.71"/><path class="c" d="M26.37,80.75h0c1.89,1.59,2.33,3.64,4.2,3.88a16.16,16.16,0,0,1,2.45,1c.87.45,1.78,1,2.7,1.54a42.75,42.75,0,0,0,4.61,2.58c4,1.59,5.41,2.59,6.11,5.61.27,2.52,2.26,3.09,3.35,5a12.53,12.53,0,0,0,2.09,2.23,22.07,22.07,0,0,1,2.18,2.16,11.75,11.75,0,0,0,4.06,5.16,2.43,2.43,0,0,0,.54.08,1.23,1.23,0,0,0,.54-.12.48.48,0,0,1,.2,0c.33,0,.65.34.93.39a18.81,18.81,0,0,1,1.28,2.91,3.49,3.49,0,0,0,1.84,2.17,1,1,0,0,0,.31,0,1.87,1.87,0,0,0,.89-.26,1.76,1.76,0,0,1-.79.21,1,1,0,0,1-.31,0c-1.82-.64-2-3.44-3.12-5.07-.28-.06-.6-.4-.93-.4a.58.58,0,0,0-.19,0,1.31,1.31,0,0,1-.55.12,1.84,1.84,0,0,1-.53-.08,11.62,11.62,0,0,1-4.07-5.15A21.86,21.86,0,0,0,52,102.57a12.51,12.51,0,0,1-2.09-2.23c-1.09-1.9-3.08-2.47-3.36-5-.69-3-2.06-4-6.1-5.61a42.35,42.35,0,0,1-4.61-2.57c-.92-.54-1.83-1.09-2.7-1.54a14.05,14.05,0,0,0-2.44-1c-1.87-.23-2.3-2.25-4.2-3.82l-.12-.09"/><path class="d" d="M28.28,77.13c-.25.44-.46.85-.65,1.22a7.75,7.75,0,0,0,0,.84c0,.13,0,.26,0,.39h0a4.38,4.38,0,0,1-.46-.3l-.57,1.11-.2.36.12.09c1.9,1.57,2.33,3.59,4.2,3.82a14.05,14.05,0,0,1,2.44,1c.87.45,1.78,1,2.7,1.54a42.35,42.35,0,0,0,4.61,2.57c4,1.59,5.41,2.58,6.1,5.61.28,2.5,2.27,3.07,3.36,5A12.51,12.51,0,0,0,52,102.57a21.86,21.86,0,0,1,2.17,2.15,11.62,11.62,0,0,0,4.07,5.15,1.84,1.84,0,0,0,.53.08,1.31,1.31,0,0,0,.55-.12.58.58,0,0,1,.19,0c.33,0,.65.34.93.4,1.08,1.63,1.3,4.43,3.12,5.07a1,1,0,0,0,.31,0,1.74,1.74,0,0,0,1.56-1,50.05,50.05,0,0,0,3-11.31,8.23,8.23,0,0,0,.1-1.24c0-2.15-1-3.08-1.81-4.48-.33-.24-.66-.47-1-.72l-.06.24a8.25,8.25,0,0,0-.28,1.91c0,.83.23,1.51.85,1.7,0,0,.08.56.15,1.39s.16,1.94.18,3v.18c0,1.83-.26,3.56-1.5,3.56a1.65,1.65,0,0,1-.55-.1H64.3c-.25,0-.68,0-1.17,0a11.42,11.42,0,0,1-2.23-.31s-.68-.7-1.64-1.82c-.49-.55-1-1.22-1.61-1.95s-1.16-1.52-1.73-2.34c-2.05-2.91-3.67-6.15-3.66-7.5a1,1,0,0,1,.07-.41s-.08-.25-.24-.71-.4-1.08-.74-1.81a21.07,21.07,0,0,0-1.29-2.45,18.38,18.38,0,0,0-1.89-2.66,15.5,15.5,0,0,0-4.47-3.63c-.75-.15-1.5-.31-2.25-.49-.93-.22-1.88-.46-2.83-.72a16.76,16.76,0,0,1-2.77-1c-1.68-.3-3.6-.68-5.76-1.24,0,0-.2-.18-.51-.51a12.32,12.32,0,0,1-1.22-1.58l-.08-.13"/><path class="e" d="M35.11,72H35a8.27,8.27,0,0,0-4.94,1.37,5.84,5.84,0,0,0-1.86,2.42c-.1.24-.19.51-.28.78q.16.28.33.54l.08.13a12.32,12.32,0,0,0,1.22,1.58c.31.33.51.51.51.51,2.16.56,4.08.94,5.76,1.24l1.13.2A24,24,0,0,1,41.9,82a14.85,14.85,0,0,1,1.8.81,15.5,15.5,0,0,1,4.47,3.63,18.38,18.38,0,0,1,1.89,2.66,21.07,21.07,0,0,1,1.29,2.45c.34.73.58,1.36.74,1.81s.24.71.24.71h0a1,1,0,0,0-.07.41c0,1.35,1.61,4.59,3.66,7.5.57.82,1.15,1.62,1.73,2.34s1.12,1.4,1.61,1.95c1,1.12,1.64,1.82,1.64,1.82a11.42,11.42,0,0,0,2.23.31c.49,0,.92,0,1.17,0h.24a1.65,1.65,0,0,0,.55.1c1.24,0,1.5-1.73,1.5-3.56v-.18c0-1.06-.11-2.17-.18-3s-.15-1.39-.15-1.39c-.62-.19-.84-.87-.85-1.7a8.25,8.25,0,0,1,.28-1.91,18.56,18.56,0,0,1,1-2.86,1.6,1.6,0,0,1,.09-.2,3.41,3.41,0,0,0,.09-.48q0-.3,0-.6a10.67,10.67,0,0,0-.55-3,18.51,18.51,0,0,0-.83-2.28h0a1.15,1.15,0,0,0,.18-.59c0-1-1.39-2-3.07-2.94l-.24-.07a24,24,0,0,1-4-1.51c-2.21-1.09-4.15-2.68-4.14-4.12A1.59,1.59,0,0,1,54.72,77a2.35,2.35,0,0,0,.07-.6,2.64,2.64,0,0,0,0-.38,3.52,3.52,0,0,0-.09-.42,12.89,12.89,0,0,1-1.19-1.27L53,73.73a4,4,0,0,0-.84-.32,4.74,4.74,0,0,0-1.3-.15c-.31,0-.63,0-1,0-.92.07-2,.26-3.45.29h-.73l-.72,0a13.58,13.58,0,0,1-4.13-.9l-.29-.11-1.13-.17A30.52,30.52,0,0,0,35.11,72"/><path class="f" d="M35.09,59.17a14.35,14.35,0,0,0-2.43.22,17,17,0,0,0-4.72,1.55,12.89,12.89,0,0,0-1.51.91l-.57.41A5.08,5.08,0,0,0,22,66.16a8.72,8.72,0,0,0-.28,2.27,13.67,13.67,0,0,0,.81,4.41,14.46,14.46,0,0,0,3.21,5.25,10.18,10.18,0,0,0,1.35,1.14,5.61,5.61,0,0,0,.53.35c0-.13,0-.26,0-.39a7.75,7.75,0,0,1,0-.84A8.85,8.85,0,0,1,28,76.59c.09-.27.18-.54.28-.78a5.84,5.84,0,0,1,1.86-2.42A8.27,8.27,0,0,1,35,72h.08a30.52,30.52,0,0,1,4.31.38l1.13.17.76.11a13.17,13.17,0,0,0,4.38.92h.73c1.41,0,2.53-.22,3.45-.29.36,0,.68,0,1,0a4.74,4.74,0,0,1,1.3.15,4,4,0,0,1,.84.32,5.19,5.19,0,0,1,.69.43,2.86,2.86,0,0,1,1,1.42,3.52,3.52,0,0,1,.09.42,2.64,2.64,0,0,1,0,.38,2.35,2.35,0,0,1-.07.6,1.59,1.59,0,0,0-.43,1.08c0,1.44,1.93,3,4.14,4.12a24,24,0,0,0,4,1.51l.24.07c.35.1.66.17.91.23a.86.86,0,0,1-.18-.6,2.5,2.5,0,0,1,.1-.69A8.41,8.41,0,0,1,64.12,81c-.61-.18-.84-1-.84-1.91a9.35,9.35,0,0,1,.26-2,18.5,18.5,0,0,1,.7-2.34c.24-.62.42-1,.42-1a3.65,3.65,0,0,0,1-2.14,1.38,1.38,0,0,0-.62-1.14,4.42,4.42,0,0,0-1.84-.7,12.8,12.8,0,0,1-2.75.38h-.4c-.5,0-.58-.18-.58-.18a1,1,0,0,0-.7-.4h0l-.19,0-.09,0-.06,0h0l-.48.22-.36.16-.41.19-.9.39-.24.1-.07,0,0,0-1.21.5-.15.06,0,0h0c-1,.38-1.75.67-2.41.89-.48.15-.93.29-1.33.4h0c-.52.13-.93.23-1.31.29h0l-.26,0h0l.24,0-.24,0h0l.24,0-.24,0h0l.26,0h0c.38-.06.78-.16,1.31-.29h0c.4-.11.83-.24,1.3-.39-.52.17-1,.29-1.36.4a11.58,11.58,0,0,1-2.06-1.38,23,23,0,0,1-3-3.06c-.85-1-1.61-2.07-2.25-3S42.25,63.51,41.92,63l-.52-.84a6,6,0,0,0-3.59-2.57,10.62,10.62,0,0,0-2.51-.4h-.21"/><path class="g" d="M49,73h0m.09,0h0m.24,0-.24,0h0l.24,0m.09,0h0l-.26,0h0l.26,0h0m2.64-.69h0c-.48.15-.93.29-1.33.4h0c.4-.11.85-.25,1.33-.4h0m2.49-.92h0l0,0h0l0,0m1.4-.58h0l0,0h0l-1.21.5-.15.06.15-.06,1.21-.5,0,0h0M57.56,70h0l-.37.17,0,0h0l-.9.39h0l.9-.39.41-.19h0m.87-.39h0"/><path class="f" d="M58.43,69.61h0"/><path class="f" d="M57.55,70l-1.28.56.88-.38.4-.18"/><path class="f" d="M49.08,73h0m6.86-2.25-1.45.6,0,0,.15-.06,1.21-.5,0,0"/><polyline class="f" points="48.99 72.97 48.99 72.97 48.99 72.97 48.98 72.97 48.99 72.97"/><path class="f" d="M63.55,84a.62.62,0,0,0,.47.18l.26,0-.52-.1L63.55,84"/><path class="h" d="M56.42,50.72h0m0,0h0M44.54,37.64a13.66,13.66,0,0,0-2.65.19,7,7,0,0,0-3.15,1.67,15.8,15.8,0,0,1-2.81,2.14h0s-.12-.19-.17-.52l-.62.56c0,.26-.29.93-.29,1.19a3.22,3.22,0,0,1-1.84.47,8.57,8.57,0,0,0-1.42-.11,9.67,9.67,0,0,0-2.92.45,21.59,21.59,0,0,0-4.13,2c-2.67,1.69-5.25,3.75-8.12,5.13-1.07.71-2.67,1.76-3.2,3.53-.3,1.33-1.21,3.06-1.21,4.61V59a41.84,41.84,0,0,0,2.77,9.15,38.29,38.29,0,0,1,2.4-8.73,8.22,8.22,0,0,1,1.24-3.49A7.85,7.85,0,0,1,21,53.49a3.19,3.19,0,0,1,2.15-.61,10.43,10.43,0,0,1,3,.49c.63.28,1.13,1.05,1.76,1.32,2.45.83,4.42.42,6.8,2.34a4.5,4.5,0,0,0,3.4.67c.16-.06.27-.33.37-.75a12.62,12.62,0,0,0,.32-1.61c.09-.69.2-1.47.32-2.29s.3-1.69.49-2.59a37,37,0,0,1,1.34-5A8.22,8.22,0,0,1,42,43a.67.67,0,0,0,.1-.42c0-.27-.07-.61-.07-.88a.74.74,0,0,1,.11-.44A3,3,0,0,1,43.41,41a11.49,11.49,0,0,1,4.06,1.25,4.81,4.81,0,0,0,1.68.25h.31a14.34,14.34,0,0,0,1.9-.15c.63-.1,1.19-.21,1.61-.29a4.51,4.51,0,0,1,.61-.06c.07,0,.12,0,.14,0C54.1,43.88,55,46,55,47.76a5.66,5.66,0,0,1,0,.6v0a6.17,6.17,0,0,0,.45,1.2,3.27,3.27,0,0,0,1,1.17h0a.24.24,0,0,0-.06.14c0,.1.14.15.38.15h.12a8,8,0,0,0,1.53-.21c.89-.24,1.78-.5,1.79-.81,0-.08-.07-.17-.22-.26h0a1.17,1.17,0,0,0,.54.14c.51,0,.91-.44,1.33-1a4,4,0,0,1,2-1.66,1.19,1.19,0,0,1,.37-.06,4.16,4.16,0,0,1,1.55.51,2.54,2.54,0,0,0,1,.3,1.09,1.09,0,0,0,.73-.27,4.39,4.39,0,0,1,1.66-.71.94.94,0,0,1,.86.65,6.85,6.85,0,0,0,1.22,1.73,8.15,8.15,0,0,0,1.68.26,1.85,1.85,0,0,1,1.37,1c.46,1.09.41,3.3,1.23,3.3a.73.73,0,0,0,.26-.06.46.46,0,0,1,.25-.06,1.24,1.24,0,0,1,.27,0,1.09,1.09,0,0,0,.25,0,.42.42,0,0,0,.39-.28c-.14-.34-.15-1-.37-1.49-.35-1.06-1.11-1.35-1.49-2.45a17.14,17.14,0,0,0-1.51-3.18,3.72,3.72,0,0,0-1.51-1,15,15,0,0,0-1.51-.73A11.64,11.64,0,0,0,69,44.42a10.39,10.39,0,0,0-1.57-.21,10,10,0,0,0-1.55.12c-.31.73-.73.93-1.2.93h-.18c-.48,0-1-.19-1.45-.19h-.15c-.29,0-.63-.32-1-.48h-.08a2.72,2.72,0,0,0-.81.17,2.26,2.26,0,0,1-.76.17,1.13,1.13,0,0,1-.88-.45,26.24,26.24,0,0,0-2.91-3,18.26,18.26,0,0,0-3.25-2.24,18.46,18.46,0,0,0-5.58-1.4,27.36,27.36,0,0,0-3.05-.17"/><path class="i" d="M55.94,70.71h0l0,0-1.21.5-.15.06.15-.06,1.21-.5h0l0,0m1.61-.7h0l-.4.18-.88.38h0l.88-.38h0l0,0,.36-.16m.88-.4h0"/><path class="j" d="M57.15,70.19l-.88.38-.33.14,0,0,0,0,.31-.13.9-.39m1.24-.56-.84.38-.36.16.37-.17.83-.37"/><path class="k" d="M70.65,65.25h0a2.73,2.73,0,0,1,1.59.5h0a2.72,2.72,0,0,0-1.63-.5"/><path class="j" d="M70.69,65.25a2.73,2.73,0,0,1,1.59.5l.08.06-.08-.06a2.73,2.73,0,0,0-1.59-.5"/><path class="j" d="M70.61,65.25l-.29,0a5.14,5.14,0,0,0-1.21.27l-.13,0,.13,0a5.25,5.25,0,0,1,1.21-.27l.29,0"/><path class="j" d="M73.27,67l0,0c-.15.33-.28.66-.42,1h0c.15-.35.28-.68.44-1m0,0h0"/><path class="j" d="M73,68.41a7.16,7.16,0,0,1-.17,1.23A7.16,7.16,0,0,0,73,68.41"/><path class="j" d="M54.54,71.29l0,0c-.91.36-1.74.66-2.47.91-.47.15-.9.28-1.3.39.4-.11.85-.25,1.33-.4.73-.24,1.55-.54,2.44-.9l0,0"/><path class="j" d="M50.72,72.61c-.53.13-.93.23-1.31.29.38-.06.79-.16,1.31-.29"/><path class="j" d="M71.72,73.6v0c0,.14,0,.26,0,.38a2.48,2.48,0,0,1,0-.41m0,0h0"/><path class="j" d="M71.76,74a1.65,1.65,0,0,0,.31.71,1.79,1.79,0,0,0,.67.53,1.79,1.79,0,0,1-.67-.53,1.65,1.65,0,0,1-.31-.71"/><path class="j" d="M72.74,75.25a3,3,0,0,0,1.15.21,3,3,0,0,1-1.15-.21"/><path class="k" d="M74.86,75.36a4.24,4.24,0,0,1-.93.1h0a4.24,4.24,0,0,0,.93-.1"/><path class="l" d="M44.88,34.74a27.47,27.47,0,0,0-4.29.32c-2.94,1-4.25,2.74-4.66,4.18a4.68,4.68,0,0,0-.21,1.38c0,.63.14,1,.2,1h0a15.8,15.8,0,0,0,2.81-2.14,7,7,0,0,1,3.15-1.67,13.66,13.66,0,0,1,2.65-.19,27.36,27.36,0,0,1,3.05.17,18.46,18.46,0,0,1,5.58,1.4,18.26,18.26,0,0,1,3.25,2.24,26.24,26.24,0,0,1,2.91,3,1.13,1.13,0,0,0,.88.45,2.26,2.26,0,0,0,.76-.17,2.72,2.72,0,0,1,.81-.17h.08c.4.16.74.46,1,.48H63c.45,0,1,.16,1.45.19h.18c.47,0,.89-.2,1.2-.93a10,10,0,0,1,1.55-.12,10.39,10.39,0,0,1,1.57.21,11.64,11.64,0,0,1,1.54.41,15,15,0,0,1,1.51.73,3.72,3.72,0,0,1,1.51,1,17.14,17.14,0,0,1,1.51,3.18c.38,1.1,1.14,1.39,1.49,2.45.22.47.23,1.15.37,1.49H77l.18,0,.16,0c.09,0,.17,0,.21-.23a2.22,2.22,0,0,0,.15-.87c0-.26,0-.51,0-.75a24,24,0,0,0-1.38-5.69,14.56,14.56,0,0,0-3.6-4.73,11.16,11.16,0,0,0-2.35-1.56A11,11,0,0,0,67.77,39h-.15c-.61,0-1.09.75-1.62,1.09a4.11,4.11,0,0,1-2.2.6,2.63,2.63,0,0,0-2,1.42.36.36,0,0,1-.35.23.74.74,0,0,1-.35-.1,37.28,37.28,0,0,0-9.27-6.35A15.89,15.89,0,0,0,46,34.76l-1.09,0"/><path class="m" d="M122.82,118.67h-.4a6.87,6.87,0,0,0-1.1.17l.39,0c.84,0,1.65,0,2.43,0a9.15,9.15,0,0,0-1.32-.1m7.45-1.08-1.35.07h0c0,.13-.2.25-.44.36a6,6,0,0,0,1.77-.39l0,0m2.32-4.77a3.14,3.14,0,0,1,.07.68h0a4.07,4.07,0,0,1-.57,2,3.05,3.05,0,0,0,.22-.32,2.6,2.6,0,0,0,.28-2.36m-.61-1.34v0l.07.09-.06-.11m.94-2.29c-.27.06-.47.5-.62,1a8.08,8.08,0,0,1,.62-1m-14-10-.32.57c-.24.43-.5.94-.71,1.4a2.14,2.14,0,0,0,.91-1.25,2.58,2.58,0,0,0,.12-.72M87.61,95.94a4.28,4.28,0,0,0,.14,1.19,34.69,34.69,0,0,0,4.64,10.42c1.76,2.51,3.16,2.18,4.77,2.36a4,4,0,0,1,1.9.87c.28.19.57.42.87.67l-.5-.6c-.36-.41-.83-.94-1.33-1.47l-.94.43c-1.61-.18-3,.15-4.76-2.36A34.74,34.74,0,0,1,87.76,97a4,4,0,0,1-.15-1.1m25.2-7.9c.06.08.13.15.19.22,1.14,1.29,2.23,2.65,3.17,3.95a37.45,37.45,0,0,0-2.78-3.67l-.58-.5m-7.12-1.62c.58,1.43,1.11,2.91,1.63,4.38.2.6.41,1.21.6,1.82a12.19,12.19,0,0,0-2.23-6.2m-4.49-5.57c.25.13.53.26.84.4a2.14,2.14,0,0,1-.1-.22,6.56,6.56,0,0,0-.74-.18m8.35-.82v0h0v0h0m.83-1.28h0m0,0v0l0,0m-2.63-.34h0m.21,0h0m.1,0h0m.69-.09h0l-.19,0h.08l.12,0m2.09-.16-.14.18.05-.06.07-.09,0,0m0,0,0,0-.29.39.31-.41M110,78l-.16,0-.11,0L110,78m.07,0-.14,0h0l.14,0m1.1-.46-.23.12,0,0,.16-.08.11-.06m.23,0,0,0,0,0,0,0m0-.1,0,0h0l0,0m-9.74-.06c.18.07.36.15.55.21l-.52-.2h0m9.86,0-.14.1,0,0,.1-.06h0m.07,0a.46.46,0,0,0-.07.07l0,0,0,0m.11-.1-.18.12-.2.24c-.13.15-.27.31-.41.49h0l.08-.1.37-.42,0,0,.1-.1.19-.18m0,0h0m0,0h0m0,0v0h0l-.17.12,0,0h0l.19-.13,0,0m0,0h0l0,0h0l0,0m0,0h0m0,0h0v0h0l0,0h0m0,0h0m0,0,0,0h0m-11.15-.13.3.12.09,0-.39-.15m-.66-.29.09,0,.11,0,.42.18-.62-.27m-.15-.07.08,0h0l-.11,0m-.19-.09h0l.06,0-.09,0h0m-.08,0,0,0h0l0,0m-.26-.11.08,0,0,0-.11-.05M98.65,76h0m0,0h0m0,0h0m-1.94-1,.17.09h0l1.23.63-.07,0L96.63,75m-1-.55.18.11.09,0,.29.16-.56-.32m-1.83-1,.05,0h0l.41.24-.48-.28m-1.72-1h0l0,0,.13.11c.5.39,1,.93,1.68,1.52,1,1,1.75,1.71,1.56,1.71h-.05a3.93,3.93,0,0,0,.46.44l1.16,1.08A21.11,21.11,0,0,1,99.5,80l1.06.54-.7-.88c-.51-.68-1.17-1.51-1.65-2.2s-.82-1.22-.68-1.33a.29.29,0,0,1,.11,0,9.63,9.63,0,0,1,2.3,1s.48.2,1.31.51c.34.14.74.3,1.2.46,0-.16-.07-.33-.1-.5l-.71-.27c-1-.38-1.2-.49-1.4-.58l-.11,0,0,0,.13.06L100,76.6l-.24-.12-.08,0-.31-.14h0L98.66,76l-.37-.18h0l-.22-.11-1.14-.59-.1,0h0c-.3-.15-.59-.31-.88-.48l0,0,0,0-.23-.13L94.93,74l-.6-.34-.44-.26c-.23-.13-.45-.27-.67-.41l-.85-.52,0,0-.2-.12h0m-.58-.39.75.47-.75-.47M91,71.63l0,0,.08,0,0,0,0,0-.17-.11,0,0m12.73-5.69c0,.12-.05.25-.08.38h0a1.13,1.13,0,0,0,.18,0h0a2,2,0,0,1-.18-.42m8.48-4.82c-.58,0-1.43.76-2.17,1.63-1.89,2.09-3.94,4.18-5.23,4.18a.78.78,0,0,1-.22,0c0,.73-.22,1.88-.21,2.56.09,1.25,1,1,1.51,1.51a5.43,5.43,0,0,1,.1,1.83c-.06.63.11.82.37.82a4.77,4.77,0,0,0,1-.31.6.6,0,0,1,.28-.09c.65,0,.7,1.57,1.33,1.68a.52.52,0,0,0,.18,0,2.64,2.64,0,0,0,1.19-.52,2.68,2.68,0,0,1,1.07-.53c.19,0,.31.12.34.46,0-.31.12-.43.31-.43a1.13,1.13,0,0,1,.71.36c.42.39.5.91.2,1a6.88,6.88,0,0,1-.84,1.23l-.64.75,0,0,0,0,.15-.11,0,0h0l0,0h0l0,0h0l-.09.07-.07.06h0l-.08.08a6.12,6.12,0,0,0-.58.64v0l-.09.1-.06.08-.07.09-.4.54,0,0,0,.08-.37.55,0,.08-.05.09-.27.42v0a2,2,0,0,0-.14.25l0,0a14.82,14.82,0,0,1,3.52,1.51l.76.53c.48.35,1.18.87,1.95,1.55a31,31,0,0,1,9,13.89c.74,2.59,1,4.76.23,6.11,0,0-.42.47,1.26,3.63a3.86,3.86,0,0,1,0,.74,4.36,4.36,0,0,1-.4,1.51,2.09,2.09,0,0,1-2,1.28,4.14,4.14,0,0,1-1.77-.47s-1.89-.26-3.81-.33h-.76a10.85,10.85,0,0,0-2,.15c-.8.16-1.41.45-1.61,1a9.69,9.69,0,0,0-1.74-.64,3.62,3.62,0,0,0-.77-.1,1,1,0,0,0-.61.16l-.27.75a.82.82,0,0,1,.27-.75c.1-.25.21-.56.34-.91-1.09,1.59-2.44,2.87-3.47,2.87a1.05,1.05,0,0,1-.75-.31s-.3.07-.77.14a12.11,12.11,0,0,1-1.83.15h-.26a6.38,6.38,0,0,1-3.38-.84c.29.27.59.55.9.86,1.67,1.66,3.6,3.75,5.51,5.81,2.45,2.84,5.86,7.18,8.16,7.18a1.53,1.53,0,0,0,1-.34,15.3,15.3,0,0,0,2.44-4.11,5.89,5.89,0,0,1,1.24-1.73h0l-.13.11h0a4.79,4.79,0,0,0-.9.9,7.38,7.38,0,0,0-1,1.88,5.21,5.21,0,0,0-.29.92,5.21,5.21,0,0,1,.29-.92,7.38,7.38,0,0,1,1-1.88,4.79,4.79,0,0,1,.9-.9h0l.14-.11a2.93,2.93,0,0,1,1.58-.75,6.87,6.87,0,0,1,1.1-.17h.41a9,9,0,0,1,1.31.1,11.15,11.15,0,0,0,4.12-.74h.22c.24-.11.4-.23.44-.36h0l1.35-.07a23.1,23.1,0,0,1,1.82-2.09,4.07,4.07,0,0,0,.57-2,3.14,3.14,0,0,0-.07-.68,6,6,0,0,0-.55-1.23l-.07-.09h0v0l0-.08a3.83,3.83,0,0,1,.37-1.22c.15-.49.35-.93.62-1,.44-.66.72-1.34.13-3-.31-.79-.63-1.59-.94-2.4-.1-.2-.21-.42-.33-.63.12.21.23.43.33.63-.49-1.28-1-2.56-1.35-3.78a11,11,0,0,1-.61-5.42,10.17,10.17,0,0,1,2.39-5,10.13,10.13,0,0,1,2.8-1.29c1.37-.57,2.89-1.21,3.62-1.59a3,3,0,0,0,1.38-1.36,3.68,3.68,0,0,0,.28-1.9A7.71,7.71,0,0,0,139,79.55l-2.27-2.4-2.13-2.4c-1.4-1.59-2.73-3.18-4.3-4.89a7.52,7.52,0,0,1-.7-2.28,6.74,6.74,0,0,0-1-2.61,8.87,8.87,0,0,0-5.6-2.84,10.67,10.67,0,0,0-1.24-.07c-1.25,0-2.36.19-3.28.27a9.85,9.85,0,0,0-1.65-.15,5.13,5.13,0,0,0-1.93.34,5.35,5.35,0,0,0-1.46.84,3.93,3.93,0,0,0-.71.85s0,0,0,0c-.4-.11.3-2.29,0-2.89a.53.53,0,0,0-.39-.16"/><path class="n" d="M99.49,80c.75,1.15-.06,1.29.85,2.61,1.19,2.07,1,5.59,1.2,7.15.4,2.79,0,3.9-1.67,3.9l-.37,0a2.84,2.84,0,0,0-.6-.07,1.44,1.44,0,0,0-1,.39,2,2,0,0,1-1.2.75c-1,.29-1.43,1.06-2.46,1.22a6.52,6.52,0,0,0-1.71-.4h-.29a2.37,2.37,0,0,0-1.11.25,1.2,1.2,0,0,0-.11.74c0,.39-.26.32-.35.5-.92-.38-2-2-2.64-2a.35.35,0,0,0-.22.08,1.37,1.37,0,0,0-.19.84,1.22,1.22,0,0,1,.19-.74.3.3,0,0,1,.22-.08c.65,0,1.72,1.59,2.65,2,.08-.18.38-.12.35-.51a1.18,1.18,0,0,1,.11-.73,2.39,2.39,0,0,1,1.12-.25h.29a6.28,6.28,0,0,1,1.72.4c1-.16,1.41-.93,2.46-1.23A2,2,0,0,0,97.93,94a1.44,1.44,0,0,1,1-.39,2.84,2.84,0,0,1,.6.07l.37,0c1.66,0,2.07-1.11,1.68-3.9-.2-1.57,0-5.08-1.2-7.16-.91-1.32-.09-1.46-.84-2.61l0-.07h0"/><path class="o" d="M99.5,80l0,.07c.75,1.15-.07,1.29.84,2.61,1.19,2.08,1,5.59,1.2,7.16.39,2.79,0,3.9-1.68,3.9l-.37,0a2.84,2.84,0,0,0-.6-.07,1.44,1.44,0,0,0-1,.39,2,2,0,0,1-1.21.75c-1,.3-1.43,1.07-2.46,1.23a6.28,6.28,0,0,0-1.72-.4h-.29a2.39,2.39,0,0,0-1.12.25,1.18,1.18,0,0,0-.11.73c0,.39-.27.33-.35.51-.93-.38-2-2-2.65-2a.3.3,0,0,0-.22.08,1.22,1.22,0,0,0-.19.74,4,4,0,0,0,.15,1.1,34.74,34.74,0,0,0,4.64,10.41c1.76,2.51,3.15,2.18,4.76,2.36l.94-.43-.15-.16c-.91-.94-1.84-1.76-2.5-1.76a.68.68,0,0,0-.43.15s-.42-.29-1-.76a15.82,15.82,0,0,1-2-1.92c-1.29-1.5-2.16-3.22-1.37-3.93,0,0,.18-.39.39-.87a10.08,10.08,0,0,1,.64-1.28s.33,0,.85,0h.67c.77,0,1.76-.05,2.76-.12,1.35-.08,2.83-.28,4-.28a2.84,2.84,0,0,1,1.61.32h0l.5,0a7,7,0,0,0,4.63-2.4,5.66,5.66,0,0,0,1.21-3.75c-.19-.61-.4-1.22-.6-1.82-.52-1.47-1-3-1.63-4.38a29.84,29.84,0,0,0-3.07-4s-.24-.47-.56-1.12l0-.06c-.31-.14-.59-.27-.84-.4a3.07,3.07,0,0,0-.42,0l-.22-.29L99.5,80"/><path class="p" d="M101.94,81a2.14,2.14,0,0,0,.1.22l0,.06c.32.65.56,1.12.56,1.12a29.84,29.84,0,0,1,3.07,4,12.19,12.19,0,0,1,2.23,6.2,5.66,5.66,0,0,1-1.21,3.75,7,7,0,0,1-4.63,2.4l-.5,0h0a2.84,2.84,0,0,0-1.61-.32c-1.13,0-2.61.2-4,.28-1,.07-2,.12-2.76.12h-.67c-.52,0-.85,0-.85,0a10.08,10.08,0,0,0-.64,1.28c-.21.48-.39.87-.39.87-.79.71.08,2.43,1.37,3.93a15.82,15.82,0,0,0,2,1.92c.59.47,1,.76,1,.76a.68.68,0,0,1,.43-.15c.66,0,1.59.82,2.5,1.76l.15.16c.5.53,1,1.06,1.33,1.47l.5.6.14.17a3.25,3.25,0,0,0,.42.31,6.38,6.38,0,0,0,3.38.84h.26a12.11,12.11,0,0,0,1.83-.15c.47-.07.77-.14.77-.14a1.05,1.05,0,0,0,.75.31c1,0,2.38-1.28,3.47-2.87.41-1.12,1-2.67,1.55-4.24.9-2.32,1.85-4.39,3.28-4.39a1.78,1.78,0,0,1,.85.23h.05a2.55,2.55,0,0,0,.85-.17,2,2,0,0,0,.36-.18c.21-.46.47-1,.71-1.4l.32-.57a7.48,7.48,0,0,0-.7-3.2,21.91,21.91,0,0,0-2-3.79c-.94-1.3-2-2.66-3.17-3.95-.06-.07-.13-.14-.19-.22-.84-.7-2.5-2.06-4.4-3.37l-1-.67-.1.18-.52,1.09.22-.5a8.45,8.45,0,0,0,.28-.85c-1-.69-2.09-1.34-3.08-1.87a14,14,0,0,0-2.28-1"/><path class="q" d="M110.61,110.83a.82.82,0,0,0-.27.75l.27-.75m-2.4-28.4,0,0c-.07.15-.14.29-.22.44h0l0,0,.22-.44m.36-.68,0,.1,0,0,.07-.14m.28-.51-.06.11,0-.07,0,0m.38-.67,0,.06,0,0,0-.07,0,0m.14-.24-.16.27-.08.14-.23.42-.07.12c-.17.3-.33.61-.5.92v0l-.33.65,0,0h0l0,.09,0,0-.48,1,1,.67c1.9,1.31,3.56,2.67,4.4,3.37l.58.5a37.45,37.45,0,0,1,2.78,3.67,21.91,21.91,0,0,1,2,3.79,7.48,7.48,0,0,1,.7,3.2,2.58,2.58,0,0,1-.12.72,2.14,2.14,0,0,1-.91,1.25,2,2,0,0,1-.36.18,2.55,2.55,0,0,1-.85.17h-.05a1.78,1.78,0,0,0-.85-.23c-1.43,0-2.38,2.07-3.28,4.39-.57,1.57-1.14,3.12-1.55,4.24-.13.35-.24.66-.34.91a1,1,0,0,1,.61-.16,3.62,3.62,0,0,1,.77.1,9.69,9.69,0,0,1,1.74.64c.2-.54.81-.83,1.61-1a10.85,10.85,0,0,1,2-.15h.76c1.92.07,3.81.33,3.81.33a4.14,4.14,0,0,0,1.77.47,2.09,2.09,0,0,0,2-1.28,4.36,4.36,0,0,0,.4-1.51,3.86,3.86,0,0,0,0-.74c-1.68-3.16-1.26-3.63-1.26-3.63.72-1.35.51-3.52-.23-6.11a31,31,0,0,0-9-13.89c-.77-.68-1.47-1.2-1.95-1.55l-.76-.53a14.82,14.82,0,0,0-3.52-1.51M97.64,76.09a.29.29,0,0,0-.11,0c-.14.11.18.65.68,1.33s1.14,1.52,1.65,2.2l.7.88.22.29a3.07,3.07,0,0,1,.42,0,6.56,6.56,0,0,1,.74.18,14,14,0,0,1,2.28,1c1,.53,2,1.18,3.08,1.87a16.51,16.51,0,0,0,.56-3.64c0-.14-.07-.24-.15-.24a.23.23,0,0,0-.17.11c-.46.49-.79.63-1.07.63a1.24,1.24,0,0,1-.5-.13,1.46,1.46,0,0,0-.5-.12.88.88,0,0,0-.47.15c-.32.17-.75.64-1,.64a.21.21,0,0,1-.13,0,6.27,6.27,0,0,1-1.4-3.2c-.46-.16-.86-.32-1.2-.46-.83-.31-1.31-.51-1.31-.51a9.63,9.63,0,0,0-2.3-1"/><path class="r" d="M107.92,83v0h0l0,0m.41-.8h0v0m.8-1.46c-.08.13-.15.27-.23.42l.23-.42m.69-1.14a1,1,0,0,1-.08.11c-.06.1-.12.21-.19.31l.27-.42m.47-.72c-.13.18-.23.33-.32.47l0,0v0l0,0,.37-.55m-3.3-.46h0m.63,0-.52,0h.05l.44,0h0m.11,0h0m.21,0h0m.09,0h0m.32,0h0m2.41-.1-.05.06-.32.44,0,0h0l.4-.54m-1.55,0-.39.08-.14,0h.08l-.12,0,.31-.05.26-.06h0m1.62,0-.07.09.07-.09m.06-.08,0,0,0,0,.06-.08m.48-.56-.37.42,0-.06.32-.36m.15-.15-.1.1.1-.1m0,0,0,0-.12.12,0,0,0,0c-.1.1-.2.22-.32.36l-.06.08a6.12,6.12,0,0,1,.58-.64m0,0-.12.07,0,0h0l-.42.22.23-.12-.11.06-.16.08-.35.15-.17.06-.09,0L110,78l-.27.08-.21.06-.08,0-.24.05c.17.07.27.24.13.82a18.73,18.73,0,0,1-1.2,3.53l-.17.37c.08-.15.15-.29.22-.44l0,0,.05-.1.06-.12.07-.13.11-.19,0,0,0-.1.22-.4.06-.11v0c.1-.18.2-.37.31-.55l0,0,0-.06q.15-.27.3-.51h0v0l.19-.32.2-.3,0-.06.4-.6h0l.2-.28.29-.39,0,0h0l0,0h0c.14-.18.28-.34.41-.49l.2-.24m0,0-.1.06.1-.06h0m0,0,0,0h0l0,0m.08,0-.05,0,0,0,.08-.08m.07-.06h0m0,0h0l-.06,0,.07-.06m0,0-.15.11,0,0,.17-.12h0m0,0,0,0h0v0h0l0,0m0,0,0,0v0h0m0,0h0m0,0h0v0h0m0,0h0l0,0h0m0,0,0,0,0,0h0m-11.61-.33c.2.09.44.2,1.4.58l.71.27v0l-.11,0h0c-.19-.06-.37-.14-.55-.21h0l-.29-.12-.26-.1L101,77l-.3-.12,0,0-.42-.18m-.11,0,.11,0-.11,0M100,76.6l.24.11-.13-.06,0,0-.09,0,0,0h0m-.24-.12.24.12-.08,0-.1,0-.06,0m-.08,0,.08,0h-.08m-.39-.18.08,0,.31.14,0,0-.15-.06,0,0-.08,0-.1,0M98.67,76l.59.27L98.67,76m-.57-.29.17.09h0l.37.18h0l0,0h0l0,0h0l-.37-.19-.1-.05m-1.29-.66.1,0,1.14.59,0,0-.06,0-1.23-.63m0,0h0m-.88-.48c.29.17.58.33.88.48L96.63,75l-.42-.23-.29-.16m-.09,0,0,0,0,0-.09,0m-.8-.46.46.26.11.07.23.13-.18-.11-.23-.13L95,74.05m-.68-.38.52.3.16.08-.68-.38m-.46-.27.44.26h0l0,0-.41-.24m-1.47-.9.66.41.14.08c.22.14.44.28.67.41h0l-.05,0-1.4-.86m-3-2,.51.37c.69.5,1.42,1,2,1.54a.4.4,0,0,1,.12-.08l0,0h.09l.2.12,0,0,0,0-.15-.09-.75-.47-.3-.18,0,0,0,0c-.63-.39-1.76-1.16-1.77-1.16m15-4.31a.4.4,0,0,0-.21.07.38.38,0,0,1-.18.06h0a1.13,1.13,0,0,1-.18,0h0l-.12,0c-.1,0-.21,0-.33.27,0,.33-.06,1,0,1.43,0,1,.48,1.25.43,2.34s-.1,2.2,0,3.09a2.1,2.1,0,0,0,.51,1.08,4.45,4.45,0,0,0,2.59,2.39c.31-.42.55-.57.74-.57.4,0,.58.67.88.84.12.12.12.51.21.79s.43.15.6.22l.24-.05h0l.23,0,.12,0,.17-.05.14,0,.22-.08.08,0h0l.12,0,0,0a7.41,7.41,0,0,0,.81-.39h0l.14-.1.64-.75A6.88,6.88,0,0,0,113,75.3c.3-.12.22-.64-.2-1a1.13,1.13,0,0,0-.71-.36c-.19,0-.32.12-.31.43,0-.34-.15-.46-.34-.46a2.68,2.68,0,0,0-1.07.53,2.64,2.64,0,0,1-1.19.52.52.52,0,0,1-.18,0c-.63-.11-.68-1.68-1.33-1.68a.6.6,0,0,0-.28.09,4.77,4.77,0,0,1-1,.31c-.26,0-.43-.19-.37-.82a5.43,5.43,0,0,0-.1-1.83c-.53-.53-1.42-.26-1.51-1.51,0-.68.21-1.83.21-2.56,0-.4-.08-.67-.29-.67"/><path class="s" d="M119.6,119.71h0a4.79,4.79,0,0,0-.9.9,7.38,7.38,0,0,0-1,1.88,5.21,5.21,0,0,0-.29.92,5.21,5.21,0,0,1,.29-.92,7.38,7.38,0,0,1,1-1.88,4.79,4.79,0,0,1,.9-.9h0m1.19-.69a4.07,4.07,0,0,0-1.05.58l-.14.11.13-.11a4.31,4.31,0,0,1,1.06-.58m2-.35h0a9.15,9.15,0,0,1,1.32.1l.37.07.66-.07h0l-.66.07-.37-.07a9,9,0,0,0-1.31-.1m0,0h-.39a6.87,6.87,0,0,0-1.1.17,5.52,5.52,0,0,0-.53.17h0a5.52,5.52,0,0,1,.53-.17,6.87,6.87,0,0,1,1.1-.17h.39m3.83-.12c-.52.09-1.07.17-1.47.22.4,0,1-.13,1.47-.22m.09,0-.09,0h0l.09,0m2.19-.87c0,.13-.2.25-.44.36a7.66,7.66,0,0,1-1.75.51,7.66,7.66,0,0,0,1.75-.51c.24-.11.4-.23.44-.36m1.41-.08h-.06l-1.35.07h0l1.35-.07h.06m.58-.54a7,7,0,0,1-.58.54,7,7,0,0,0,.58-.54m1.1-1.4a6.69,6.69,0,0,1-1.1,1.4,6.69,6.69,0,0,0,1.1-1.4m.65-2.14a4.07,4.07,0,0,1-.57,2s-.05.09-.08.14h0s.05-.1.08-.14a4.07,4.07,0,0,0,.57-2h0m-.69-2h0l.07.09a3.42,3.42,0,0,1,.55,1.23,3.14,3.14,0,0,1,.07.68h0a3.14,3.14,0,0,0-.07-.68,3.42,3.42,0,0,0-.55-1.23l-.07-.09m1.09-2.32h0m0,0h0m-.07,0h-.07c-.27.06-.47.5-.62,1l0,.09a10.47,10.47,0,0,0-.29,1.21v0h0v0a10.47,10.47,0,0,1,.29-1.21l0-.09c.15-.49.35-.93.62-1H133m.1,0,0,0,0,0m0,0h0m0,0h0m0,0h0m0,0h0m.32-1.16v.07a1.55,1.55,0,0,1-.32,1.09,1.55,1.55,0,0,0,.32-1.09V108h0m-1.64-4.88c.12.21.23.43.33.63a9.92,9.92,0,0,1,1.31,4.25,9.92,9.92,0,0,0-1.31-4.25c-.1-.2-.21-.42-.33-.63"/><path class="t" d="M108,82.87l0,0h0l0,0m.33-.66-.06.12-.05.1-.22.44.33-.65h0m.51-.93,0,.07-.22.4-.07.14-.11.19-.07.13h0c.17-.31.33-.62.5-.92m.38-.68,0,.07c-.11.18-.21.37-.31.55v0l0,0,.07-.12c.08-.15.15-.29.23-.42l.08-.14m.33-.56v0q-.15.24-.3.51l0,0,.16-.27,0,0a2,2,0,0,1,.14-.25m.2-.33-.19.32h0v0c.07-.1.13-.21.19-.31m.2-.3-.2.3a1,1,0,0,0,.08-.11l.05-.09,0-.08,0,0m0-.06,0,.06v0l0,0m.41-.6h0l-.4.6c.09-.14.19-.29.32-.47l0-.08,0,0h0v0m-.93-.62-.24.05h0l.24-.05m.85-.26-.22.08-.14,0-.17.05-.12,0-.15,0h0l.08,0,.32-.09.16,0,.29-.1m.75,0,0,.06-.08.1,0,0h0l-.31.41-.2.28h0v0l.32-.44.14-.18,0,0L111,78v0l.06-.08m-.66,0h0l-.08,0,.09,0m.17-.06,0,0-.12,0,.17-.06m.81-.39a7.41,7.41,0,0,1-.81.39l.35-.15,0,0,.42-.22m.35-.23h0l-.19.18-.1.1,0,0-.32.36c.12-.14.22-.26.32-.36l0,0,.12-.12a.46.46,0,0,1,.07-.07l.05,0h0l.06,0m0,0-.19.13-.1.06,0,0h0l0,0,.12-.07.18-.12h0m.08-.07h0l0,0h0l0,0h0m0,0,0,0,0,0v0h0l.09-.07m0,0h0M108,78.37h-.36l-.44,0h-.05l.55,0h.3m-5-11.84c-.06,0-.12,0-.18.23a6.28,6.28,0,0,0-.35,1.57c-.1,1.81-.38,3.83-.37,5.37a27.07,27.07,0,0,0,.32,3.85v0c0,.17.06.34.1.5a6.27,6.27,0,0,0,1.4,3.2.21.21,0,0,0,.13,0c.27,0,.7-.47,1-.64a.88.88,0,0,1,.47-.15,1.46,1.46,0,0,1,.5.12,1.24,1.24,0,0,0,.5.13c.28,0,.61-.14,1.07-.63a.23.23,0,0,1,.17-.11c.08,0,.13.1.15.24a16.51,16.51,0,0,1-.56,3.64,8.45,8.45,0,0,1-.28.85l-.22.5.52-1.09.1-.18.48-1h0v0l0-.09h0l.17-.37a18.73,18.73,0,0,0,1.2-3.53c.14-.58,0-.75-.13-.82l-.26.06-.31.05h-.08l-.22,0h0l.33,0,.14,0,.39-.08c-.17-.07-.42,0-.6-.22s-.09-.67-.21-.79c-.3-.17-.48-.84-.88-.84-.19,0-.43.15-.74.57a4.45,4.45,0,0,1-2.59-2.39,2.1,2.1,0,0,1-.51-1.08c-.12-.89,0-2.09,0-3.09s-.4-1.35-.43-2.34c-.06-.45,0-1.1,0-1.43h0l-.07,0a.53.53,0,0,1-.12,0,.45.45,0,0,0-.11,0"/><path d="M116.08,52.62c3.2,1.46,6.42,2.87,9.58,4.39,5.26,2.52,9.18,6.25,10.52,12.16a8.23,8.23,0,0,1,.14,2.71c-.62,5.75-1.45,11.47-1.92,17.23-.33,4.07-.2,8.17-.25,12.25a21.62,21.62,0,0,1,.09,2.53c-.25,2.06-.68,3.88-3.08,4.78a40.24,40.24,0,0,1-6,1.86l-9.72,2c-7.59,1.53-15.18,3.08-22.79,4.56a41.93,41.93,0,0,1-4.22.26,26,26,0,0,0-2.9.44,5.66,5.66,0,0,1-3.71-.73c.28-.37.35-.55.44-.56a46.76,46.76,0,0,1,5.89-.48c4,.13,7.82-.88,11.66-1.74.41-.09,1-.18,1.14-.47.76-1.37,1.59-1.13,2.53-.06l1.3-1.56a2.33,2.33,0,0,1,.59.08c.37.15.92.6,1.06.49,1.08-.85,2.3-.46,3.47-.54a1.54,1.54,0,0,0,1-.32c.79-1,1.65-.8,2.61-.36.13.06.37-.14.67-.26-.25-.75-2.12-.36-1.19-1.92a8.42,8.42,0,0,1,2.54,1,2.22,2.22,0,0,0,2.14.33c3.86-.78,7.75-1.43,11.56-2.4,1.08-.27,1.92-1.47,2.83-2.2a20.58,20.58,0,0,1-.83-7.53c.22-3.58.31-7.17.58-10.75.19-2.59.62-5.17.9-7.76.3-2.87.65-5.74.74-8.62a6.39,6.39,0,0,0-1-3.38A25.72,25.72,0,0,0,129.2,64c-1.06-1.12-2.27-2.11-3.44-3.13-1.58-1.38-3.19-2.74-5.51-2.57-1.09-1.83-3.06-2.08-4.82-2.53a26,26,0,0,0-4.61-.36,9.49,9.49,0,0,0-4.49.92,23.17,23.17,0,0,1-4.61,1.41,29,29,0,0,0-6.46,2.51c-2.05.93-4.3,1.45-6.25,2.54a29.65,29.65,0,0,0-8.75,7.15,19.58,19.58,0,0,0-3.68,7,14.11,14.11,0,0,0-.41,4.81,73.91,73.91,0,0,0,3.14,18l1.29.14c0,.3.06.59,0,.68a2.14,2.14,0,0,0-.48,2.32c.49,2.12.91,4.26,1.37,6.39a1.41,1.41,0,0,1-.8,1.78L78.72,102l-.43.07a44.83,44.83,0,0,0,1,6q.61,3.86,1.16,7.73a11.62,11.62,0,0,1-.16,1.9,7.62,7.62,0,0,1-.59-1.1,102.88,102.88,0,0,1-3.63-19.07,32.53,32.53,0,0,0-.76-3.29,116.7,116.7,0,0,1-2.17-11.61A16.72,16.72,0,0,1,75.5,71.47c2-3,4.71-5.29,7.37-7.69,3-2.7,6.5-4.42,9.91-6.35a24.27,24.27,0,0,1,5.31-2c2.3-.68,4.67-1.11,7-1.78a30.11,30.11,0,0,1,11.09-1ZM89.81,60.73l.27.63,8.82-4C95.2,56.93,92.68,59.24,89.81,60.73Zm42.55,4.49c-1.16-2.75-4.19-5.52-6.59-6Z"/><path d="M116.14,52.67c-1.45-1.32-3.38-1.26-5.11-1.7-5.59-1.43-11.2-2.77-16.79-4.15-5.33-1.31-10.66-2.66-16-3.91a49.81,49.81,0,0,0-8.06-1.54A41.3,41.3,0,0,0,54.32,43a45.55,45.55,0,0,0-7.09,3.2c-3.65,2-7.28,4-10.74,6.24s-6.88,4.93-8.73,9a2.61,2.61,0,0,1-.71,1c-2.08,1.49-2.25,3.71-2,5.88.4,3.78,1.07,7.53,1.63,11.29a1.25,1.25,0,0,0,.16.61c1.2,1.24.62,2.93,1.11,4.34.13.36.34.7.47,1.06a1.59,1.59,0,0,1,.14.84c-.48,1.84-.42,2,1.54,2.7-.14.3-.26.61-.41.89s-.37.58-.61,1c1,1.06.66,2.82,2.09,3.69.13.08-.23,1-.4,1.62l1.43.9c.65-.08.58-1.73,1.7-.73l-.74,2.27,2.73.7h0l.22.51,1.61-.82.6,1.82h1.81c.59.6,1,1.42,1.61,1.53s1.22-.53,2.18-1l-.4,2c1.44-.38,2.57,1.62,4,.11,1.11,2.54,1.28,2,3.37,1.65.69,2.34,3.06,2.28,4.83,3,3,1.3,6.23,2.21,9.33,3.34,3.57,1.31,7.11,2.67,10.65,4a4.22,4.22,0,0,1,1.5,1,3.73,3.73,0,0,1-2.81-.12,70.59,70.59,0,0,1-9.94-3.49c-3.82-1.6-7.8-2.83-11.63-4.41-5.6-2.29-11.34-4.24-16.7-7.12a22.64,22.64,0,0,0-3.56-1.33,4.9,4.9,0,0,1-3.37-3.5c-1-3.6-2.09-7.18-2.84-10.82-1-5-1.74-10-2.61-15-.61-3.48-.39-6.7,2.22-9.46,1-1.1,1.67-2.57,2.61-3.79,2.5-3.25,6-5.2,9.33-7.48a75.87,75.87,0,0,1,10.77-6.2,74.1,74.1,0,0,1,9-3.47,19.44,19.44,0,0,1,4.54-.47,51.77,51.77,0,0,1,16.36,1.24c6.67,1.75,13.37,3.39,20,5.13q8.37,2.18,16.71,4.52a30.12,30.12,0,0,1,4.09,1.69,7.94,7.94,0,0,1,1.37,1.15l-4.68-1Z"/><path d="M29.54,63.08c.11-.59.11-1.16.23-1.19,1.54-.36,2.07-1.83,3.13-2.7A10.41,10.41,0,0,1,35,57.76c-.52,1.32-1.93,2.13-2.16,3.94l4.73-4.32c-.36,1.73-2.31,2.42-2.09,4.49L40,57.29c-.62,1.77-2.22,2.93-2.64,5.07,1.47-.45,1.81-1.72,2.65-2.44a20.78,20.78,0,0,1,2.74-2.15c-.6,1.77-2.58,2.69-2.81,5.12L46.51,57l.4.34c-1.59,1.77-3.66,3.23-4.57,5.78,1.58.05,1.58-1.25,2.21-1.85s1.37-1.6,2.12-2.35a8.73,8.73,0,0,1,2.44-1.76,9.61,9.61,0,0,1-.53.87c-1,1.27-2,2.52-3,3.8-.37.49-.8,1.05,0,1.76,1.07-1,2.1-2,3.18-2.93s2.13-1.72,3.2-2.57l.32.38c-.94.89-1.89,1.76-2.8,2.68A13.91,13.91,0,0,0,48,62.9c-.12.17-.08.68,0,.74a1.12,1.12,0,0,0,.92.08,7.39,7.39,0,0,0,1.17-1.2,14.58,14.58,0,0,1,5-3.72c-1.18,2.22-4,2.86-4.24,5.72,1.83-.73,2.3-2.39,3.52-3.25a32.12,32.12,0,0,1,3.74-2.52,4.54,4.54,0,0,1-.51.86c-1,1-2.15,2-3.17,3.11a1.86,1.86,0,0,0-.3,2.64c.94-1.16,1.69-2.22,2.6-3.14a5.7,5.7,0,0,1,3.2-1.73c-1.33,1.57-3.34,2.62-3.55,4.94.82.84,1.25.24,1.76-.29.92-1,1.85-1.93,2.85-2.82a5.75,5.75,0,0,1,2-1c-1,1.79-3.09,2.76-3.75,4.86.84.73,1.23.12,1.76-.36,1.29-1.18,2.64-2.29,4-3.41.18-.14.47-.16.91.07-.58.54-1.2,1.06-1.74,1.64a29.4,29.4,0,0,0-1.88,2.27.74.74,0,0,0,.14.71,1.18,1.18,0,0,0,1,.06c.27-.16.36-.58.59-.85,1.28-1.48,2.51-3,3.91-4.41a10.37,10.37,0,0,1,2.45-1.36l.22.36a28.91,28.91,0,0,0-2.79,2.5,24.38,24.38,0,0,0-2.47,3.4A1.32,1.32,0,0,0,65.52,68c.47.36,1,.22,1.44-.35a50,50,0,0,1,3.25-3.87,6.86,6.86,0,0,1,2.28-1.41c-1.17,2.13-3.56,3.36-4.21,6l1.59.78a6.06,6.06,0,0,1,4.48-4.33c-.27.34-.56.68-.82,1-.62.84-1.3,1.66-1.84,2.55a3.36,3.36,0,0,1-3.82,1.74C62.42,68.76,57,67.3,51.54,66a54.26,54.26,0,0,0-5.4-.89Q38.82,64,31.5,63A12.11,12.11,0,0,0,29.54,63.08Z"/><path d="M96.66,108.56l.24,1.28c-1.15.68-2.74.54-3.29,2,0,.09-.24.15-.37.15-1.28.08-2.57.13-4,.2.17-.42.2-.8.36-.87,1-.39,2.2-.17,2.68-1.53.21-.59.69.83,1.2,0,.2-.3.8-.35,1.21-.51Z"/><path d="M117.23,97.62l.48,1.49c-1.83-.26-1.94-.38-2.35-2.78,1.88-.49,3.19,1.23,4.91,1.29l1-1.62,1,2.24-2.86.94C118.67,98.87,119,97.11,117.23,97.62Z"/><path d="M101.69,110.79l.87-1.37L100,108.13c.48-1.45.55-1.45,2.7.16v-2.12a1.44,1.44,0,0,1,.83,2.18c-.43.91-.52,1.53.62,2.1C103.25,111.1,102.62,111.55,101.69,110.79Z"/><path d="M102,101.59l.13-2.36c1,0,1.3.55,1.25,1.34-.08,1.23-.71,1.65-3.13,2.05.46-1.27-1.87-1.89-.45-3.63Z"/><path d="M130.07,94.83c-.18-.09-.45-.14-.52-.28a1.77,1.77,0,0,0-2.72-.93c-.68.32-1.46.26-1.58-.71a6.46,6.46,0,0,1,.15-2c0-.1.48-.14.84-.23l.5,1.68,2-.3C130.4,94.17,130.4,94.17,130.07,94.83Z"/><path d="M91.42,102.23l-3,3-2.29-1.42a1.68,1.68,0,0,1,2.15-1c1.13.35,1.88.19,2.31-1,0-.08.36,0,.55,0Z"/><path d="M117.46,71.79a6.12,6.12,0,0,1-.31,1.23,13.79,13.79,0,0,1-1.08,1.91,1.46,1.46,0,0,1-.83.44c-.09,0-.4-.38-.38-.41,1-1.25-.6-2.18-.4-3.32a2.27,2.27,0,0,1,.24-.45Z"/><path d="M86.47,93.1c0,1.09-.46,1.59-1.5,1.57a1.7,1.7,0,0,1-1.88-1.54,1.52,1.52,0,0,1,.35-1.08c.14-.15.65-.09.94,0C85.05,92.35,85.68,92.71,86.47,93.1Z"/><path d="M114.54,67c-.79-1.36-2.8-1.3-3.33-3.28a2,2,0,0,1,2.65.28,9.77,9.77,0,0,1,1,2.61Z"/><path d="M92,104.42l1.69-.12c.74,1.39-1.8,2-.56,3.46L91.3,108Z"/><path d="M115.87,62.46a25.41,25.41,0,0,1-2.27-1.55,1.27,1.27,0,0,1,.43-2.17c.26-.1.71.33,1.07.52-.49.91,0,1.33.75,1.74C116,61.09,115.87,61.68,115.87,62.46Z"/><path d="M112,92l-1.24,2.23a21.11,21.11,0,0,1-1.47-2.11c-.16-.29-.16-1,0-1.07a1.73,1.73,0,0,1,1.28-.11A7.14,7.14,0,0,1,112,92Z"/><path d="M130.42,78.4c-1.18,2.36-1.63,2.33-3.9.06l1.53-1.77.51,2.58Z"/><path d="M119.81,79.36c2.84-.79,2.84-.79,3.24.74C121.05,81.09,120.54,81,119.81,79.36Z"/><path d="M107.41,60.41c-.06,1.13-1.76,2.17-2.59,1.73a1,1,0,0,1-.26-.86A10,10,0,0,1,106,59.7a.78.78,0,0,1,.76-.09A3.54,3.54,0,0,1,107.41,60.41Z"/><path d="M124.84,67.87c-1.73.11-2.19-.19-2.27-1.31-.09-1.28.74-1.43,1.79-1.46C124.7,66.06,123.41,67.07,124.84,67.87Z"/><path d="M118,84l.68,3-3.17-1.79c0-.67.31-1.16.82-.76C117,85,117.42,84.66,118,84Z"/><path d="M124.64,82.54c.51,3.11-.1,5-2.22,4.32l1.44-1.15C124.31,84.75,123.3,83.4,124.64,82.54Z"/><path d="M103,74.82a9.44,9.44,0,0,1-2.22-.74c-.29-.2-.36-.82-.4-1.27,0-.19.35-.6.47-.57a2.34,2.34,0,0,1,1.21.56A10.12,10.12,0,0,1,103,74.82Z"/><path d="M103.92,66.75c-1.45,1.21-1.58,1.19-3.75-.72.58-.12,1-.35,1.33-.26A22,22,0,0,1,103.92,66.75Z"/><path d="M111.79,107.54c-.71.29-1,0-1.08-.71a6.14,6.14,0,0,1,0-1.6c.06-.31.43-.56.66-.84.27.26.76.53.76.79A16.25,16.25,0,0,1,111.79,107.54Z"/><path d="M107.5,108c-.38,1.25-.7,2.26-1.11,3.57-.41-.31-1-.53-1-.79C105.27,109.45,105.89,108.54,107.5,108Z"/><path d="M103.69,63.51l1.72.09L105.1,66A2,2,0,0,1,103.69,63.51Z"/><path d="M87,108c1-1.88,1.23-1.91,3.25-.79Z"/><path d="M97.14,105.71l1.43-2.84a2.06,2.06,0,0,1,.15,2.43A1.06,1.06,0,0,1,97.14,105.71Z"/><path d="M108.25,110c.37-1,.86-1.2,1.42-.86.77.48,1.17,1.16.43,2.31Z"/><path d="M42.1,100.88c-.74.15-1.12-.06-1-.83.21-1.6.42-1.86,1.56-1.87Z"/><path d="M87.89,98.46a1.41,1.41,0,0,1-1.27-1.7c.2-1,1-.54,1.79-.66Z"/><path d="M41.6,96.09c-1.14,0-1.29-1-1.86-1.63C41,93.74,41.08,93.8,41.6,96.09Z"/><path d="M39.59,99.11c-1.65.09-1.16-1.4-2-1.9C38.78,96.91,38.78,96.91,39.59,99.11Z"/><path d="M117.65,100.19c.85,1,1,1.58.37,2-.17.12-.59-.11-.89-.18Z"/><path d="M82.77,94.67c.58.81,1.52.89,1.42,1.89C83.1,96.51,83.1,96.51,82.77,94.67Z"/><path d="M79.89,83.9c-.76,1.3-.76,1.3-1.77,0Z"/><path d="M124,95.6c.29.56.66.94.59,1.23s-.57.42-.88.63c-.17-.26-.51-.56-.47-.78S123.66,96.08,124,95.6Z"/><path d="M103.05,81.82c.18,1,.54,1.75-.35,2.57A2.07,2.07,0,0,1,103.05,81.82Z"/><path d="M111.93,56.94c.27.35.62.62.59.82s-.5.67-.61.62c-.31-.12-.53-.46-.78-.71Z"/><path d="M81.06,88.2c.26.33.6.57.58.79s-.35.46-.54.69L80.32,89Z"/><path d="M121.17,61.16a9.11,9.11,0,0,1,1.16-.88c.07,0,.35.29.53.45a7.06,7.06,0,0,1-.88.93C121.92,61.71,121.59,61.42,121.17,61.16Z"/><path d="M81.1,93.65v2.27C80.22,95,80.22,95,81.1,93.65Z"/><path d="M123.05,100.36c-.44.59-.92.61-1.36.09a.72.72,0,0,1,.11-.68C122.41,99.46,122.83,99.69,123.05,100.36Z"/><path d="M123,90.24c.32.4.67.66.66.89s-.38.48-.59.71c-.22-.22-.6-.42-.63-.66S122.68,90.66,123,90.24Z"/><path d="M83.24,115.23c-1.25.38-1.41-.11-1.18-1.36Z"/><path d="M113.58,74.17l.41,1.16-.73.22-.35-1.21Z"/><path d="M95.09,75.58a13.31,13.31,0,0,1-.74,1.28s-.55-.18-.58-.33C93.65,75.91,93.88,75.49,95.09,75.58Z"/><path d="M32.41,90.09c-.39.53-.83.82-1.35.23a.76.76,0,0,1,.06-.72C31.71,89.2,32.15,89.43,32.41,90.09Z"/><path d="M92.1,71.43c-.49-1,.06-1.24.88-1.51C92.91,70.92,92.91,70.92,92.1,71.43Z"/><path d="M125.25,71c.37-1,.78-1.18,1.35-.79.14.1.11.45.16.69Z"/><path d="M108.33,56.74l1.1.43-.46.77-.92-.74Z"/><path d="M50.93,45.41l1.49.09C51.48,46.46,51.48,46.46,50.93,45.41Z"/><path d="M109.68,60.33c.73-.39,1.21-.33,1.42.37a.57.57,0,0,1-.29.49C110.12,61.45,109.82,61.07,109.68,60.33Z"/><path d="M31.48,86.57c-.6,1.06-1,1-1.41-.11Z"/><path d="M33.1,93c-.37.24-.66.53-.78.47s-.41-.41-.61-.64c.22-.13.44-.36.65-.35S32.76,92.71,33.1,93Z"/><path d="M37.83,89.19c-.38-.09-.77-.17-1.14-.29a.87.87,0,0,1,0-.36c.39-.05.79-.07,1.19-.1Z"/><path d="M40.11,90.79c.76-.22,1.28-.25,1.42.5a.57.57,0,0,1-.33.45C40.49,92,40.22,91.57,40.11,90.79Z"/><path d="M50.3,47.15l-1,.58-.35-.64,1.17-.41Z"/><path d="M77.52,88c.41-.33.67-.68.86-.65s.46.39.68.6c-.18.18-.36.51-.55.51S78,88.27,77.52,88Z"/><path d="M111.89,66.27c.19.53.42.86.38,1.16a.84.84,0,0,1-.64.54c-.25,0-.5-.33-.74-.51Z"/><path d="M129.28,85.71,129,87.12l-.61-.06.07-1.46Z"/><path d="M115.38,105.5l.68,1-.61.38-.56-1Z"/><path d="M126.31,99.49a3.76,3.76,0,0,1,.7.81c0,.1-.36.54-.46.51a1.46,1.46,0,0,1-.72-.55C125.77,100.18,126.07,99.86,126.31,99.49Z"/><path d="M116.76,89.52c.29.32.62.55.58.66a1.45,1.45,0,0,1-.56.67c-.06,0-.53-.29-.52-.43S116.52,89.92,116.76,89.52Z"/><path d="M124.12,61.18c.73-.19,1.21-.12,1.28.61a.54.54,0,0,1-.35.41C124.38,62.32,124.06,62,124.12,61.18Z"/><path d="M118.49,57.53c.37.42.74.67.73.89s-.37.51-.63.64c-.09,0-.52-.31-.53-.49S118.27,58,118.49,57.53Z"/><path d="M100.15,60.38c.38-.23.66-.53.88-.49s.32.45.47.7a2.17,2.17,0,0,1-.78.41C100.59,61,100.41,60.68,100.15,60.38Z"/><path d="M97.3,65.6c.18.42.42.78.35.85a1.52,1.52,0,0,1-.8.42c-.09,0-.4-.47-.34-.58S96.94,65.9,97.3,65.6Z"/><path d="M120.66,88.15c.28-.07.58-.26.82-.19a1.21,1.21,0,0,1,.68.58c.06.11-.29.61-.4.59a2.46,2.46,0,0,1-.77-.46Z"/><path d="M108.81,77.88c.37-.31.57-.57.84-.66.1,0,.34.27.51.42a2.69,2.69,0,0,1-.63.67C109.44,78.37,109.16,78.1,108.81,77.88Z"/><path d="M97.82,70.8a5.46,5.46,0,0,1,.77,1c0,.07-.31.3-.48.45a3.66,3.66,0,0,1-.57-.74C97.49,71.38,97.67,71.15,97.82,70.8Z"/><path d="M120.39,83.78c.24.28.57.56.53.64a2.69,2.69,0,0,1-.63.63c-.16-.19-.45-.39-.44-.57S120.14,84.08,120.39,83.78Z"/><path d="M95.57,104.2c-.34,0-.68.06-1,.07a1,1,0,0,1-.07-.34c.32-.12.64-.2,1-.3Z"/><path d="M124.65,71.49c.25.3.5.48.51.68s-.2.43-.32.64c-.23-.18-.55-.31-.65-.55S124.43,71.84,124.65,71.49Z"/><path d="M108.5,63.2c-.35.26-.66.58-.72.54a1.85,1.85,0,0,1-.6-.73c0-.08.38-.5.48-.46A3.34,3.34,0,0,1,108.5,63.2Z"/><path d="M117.7,91.69a5.67,5.67,0,0,1,.77,1.23c0,.11-.44.46-.53.42a1.32,1.32,0,0,1-.61-.65C117.27,92.49,117.5,92.2,117.7,91.69Z"/><path d="M91.81,113a3,3,0,0,1,.28.83.81.81,0,0,1-.62.25.85.85,0,0,1-.37-.61,2.23,2.23,0,0,1,.23-.75Z"/><path d="M117.08,103.72l-.14,1.26-.48,0V103.7Z"/><path d="M90.46,99c.17.34.41.62.35.73a.87.87,0,0,1-.61.41c-.13,0-.43-.36-.39-.5S90.13,99.29,90.46,99Z"/><path d="M86.23,111.17c.22.32.49.53.47.72s-.31.38-.48.57a2.53,2.53,0,0,1-.59-.64C85.59,111.73,86,111.47,86.23,111.17Z"/><path d="M84.63,114.59c.44-.19.72-.4.85-.33s.43.41.63.62c-.2.13-.44.4-.6.36S85.05,114.92,84.63,114.59Z"/><path d="M44.33,51.7c-.3.17-.54.39-.61.35a1.58,1.58,0,0,1-.46-.59s.33-.35.41-.32A3,3,0,0,1,44.33,51.7Z"/><path d="M83.7,100.05c.12.22.4.54.34.63a1.68,1.68,0,0,1-.76.55c-.08,0-.44-.36-.43-.55a3.44,3.44,0,0,1,.33-1Z"/><path d="M35.85,95c.51.24,1.37.09,1.22,1.07a.37.37,0,0,1-.3.24c-.94,0-.82-.75-.86-1.36Z"/><path d="M129.75,77.16c-.82,0-1.07-.37-1-1.13C129.67,76.21,129.67,76.21,129.75,77.16Z"/><path d="M35.21,90a3.71,3.71,0,0,1,.29,1c0,.18-.36.53-.49.5a1.31,1.31,0,0,1-.73-.52c-.05-.06.24-.39.37-.6Z"/><path d="M82.7,84.73c.25.36.56.67.51.75a1.32,1.32,0,0,1-.7.53c-.11,0-.5-.38-.46-.48C82.14,85.27,82.4,85.07,82.7,84.73Z"/><path d="M45.7,101.8c.41-.21.65-.43.85-.4s.33.33.49.52c-.21.15-.41.41-.63.43S46,102.08,45.7,101.8Z"/><path d="M106.48,70.39c.24.26.53.44.53.61s-.32.57-.42.54a2.39,2.39,0,0,1-.69-.48Z"/><path d="M104.89,67.5l.69.6a3.64,3.64,0,0,1-.62.62c-.06,0-.44-.2-.42-.26A5.3,5.3,0,0,1,104.89,67.5Z"/><path d="M35.87,99.39c-.59-.6-1.07-1.18.65-1.59-.33.71-.52,1.14-.7,1.57Z"/><path d="M78.43,91.44a4.8,4.8,0,0,1,1.17-.36c.17,0,.49.36.46.49s-.32.49-.49.73Z"/><path d="M47.41,51.85c.31.34.59.53.6.72s-.26.4-.41.6c-.19-.17-.48-.3-.54-.51S47.23,52.24,47.41,51.85Z"/><path d="M35.91,94.9l-1.49-.35c1.26-.66,1.26-.66,1.43.4Z"/><path d="M44.07,100.34c.34-.29.52-.56.69-.55s.4.24.6.38c-.16.18-.29.46-.48.51S44.47,100.52,44.07,100.34Z"/><path d="M103.79,77.46l.86-1.73C105.25,76.79,104.94,77.11,103.79,77.46Z"/><path d="M81.51,103c.41-.15.67-.33.91-.31s.35.29.53.44a2.61,2.61,0,0,1-.57.49C82.3,103.68,82.09,103.46,81.51,103Z"/><path d="M83.27,108.76c.29.33.57.52.56.69a.49.49,0,1,1-1,.13C82.81,109.4,83.06,109.15,83.27,108.76Z"/><path d="M99,113c.44-.18.68-.38.88-.34s.33.33.48.5c-.2.15-.4.4-.6.4S99.38,113.33,99,113Z"/><path d="M109.28,66.78c-.32.29-.5.59-.68.58a.74.74,0,0,1-.55-.44.71.71,0,0,1,.42-.57C108.65,66.31,108.89,66.56,109.28,66.78Z"/><path d="M83.76,104.22c.13.42.31.7.23.85s-.39.26-.61.38c-.11-.2-.33-.43-.29-.59S83.42,104.52,83.76,104.22Z"/><path d="M87.21,99.69l-.7.57L86,99.57c.2-.14.39-.38.59-.39S86.94,99.46,87.21,99.69Z"/><path d="M120.83,95.81a3.19,3.19,0,0,1-1,.3c-.21,0-.59-.32-.56-.38a3,3,0,0,1,.48-.75Z"/><path d="M107.77,106.06c.88.17,1.26.53.63,1.67Z"/><path d="M38.83,92.8c-.4.29-.61.56-.78.53s-.37-.29-.47-.5c0,0,.23-.37.37-.37A3.47,3.47,0,0,1,38.83,92.8Z"/><path d="M95.27,112.4a1.83,1.83,0,0,1,.75-.22c.21,0,.39.27.59.42-.14.19-.26.48-.44.54s-.41-.17-.63-.26Z"/><path d="M42.47,54.3l.63.67a2.26,2.26,0,0,1-.56.44c-.09,0-.39-.22-.39-.34S42.3,54.67,42.47,54.3Z"/><path d="M44.12,50c.28-.26.43-.5.53-.47a2.78,2.78,0,0,1,.67.33c-.12.15-.23.42-.35.43A3.38,3.38,0,0,1,44.12,50Z"/><path d="M111.09,72.53c.16-.2.26-.42.39-.44s.39.16.4.27a.55.55,0,0,1-.28.43C111.5,72.83,111.31,72.65,111.09,72.53Z"/><path d="M130.33,68.14c-.37.27-.58.54-.73.51s-.36-.3-.46-.51.22-.36.33-.35S129.89,67.94,130.33,68.14Z"/><path d="M103.84,59.07l.57.63c-.19.16-.38.45-.57.45s-.38-.29-.57-.45Z"/><path d="M127.6,82.59c.35.12.72.24,1.07.38a1.43,1.43,0,0,1-.09.34c-.38,0-.75-.1-1.12-.15Z"/></svg>