<svg xmlns="http://www.w3.org/2000/svg" viewBox="0 0 150 150"><defs><style>.a{fill:#fdecd7;}.b{fill:#fcd7ab;}.c{fill:#fcd6a7;}.d{fill:#fddab3;}.e{fill:#fde3c5;}.f{fill:#fef4e7;}.g{fill:#fffaf5;}.h{fill:#fbdbb6;}.i{fill:#fbd2a6;}.j{fill:#f8c68e;}.k{fill:#f9b470;}.l{fill:#f8b877;}.m{fill:#f8bf84;}.n{fill:#f8c58c;}.o{fill:#f8b36e;}.p{fill:#f8b674;}.q{fill:#f8bd82;}.r{fill:#f9ca96;}.s{fill:#fac289;}.t{fill:#fac086;}.u{fill:#f9d3a6;}.v{fill:#faca94;}.w{fill:#fce1c3;}.x{fill:#fde2c1;}</style></defs><title>icon</title><path class="a" d="M71.21,106.6l.29.25a1,1,0,0,0,.18-.22H71.6a1.84,1.84,0,0,1-.39,0m34.53-17.74a1.69,1.69,0,0,1,.1.27,4.45,4.45,0,0,0,.85-.13l-1-.14M90.1,80.16c.91,1,2,2.06,3.26,3.29l.67.47-.25-.23c-1.27-1.21-2.53-2.41-3.68-3.53m8.08-2.41a11.46,11.46,0,0,0,.5,1.5A17.38,17.38,0,0,0,101,83l.63.79c-.77-1.48-1.59-2.95-2.41-4.36-.33-.58-.67-1.14-1-1.71m-17.06-2a4.37,4.37,0,0,0,0,.63c.33,1.62-.68,1.61-.56,3.07h0c.3,2.29,1.9,5.82,1.76,5.86h-.08c-.35,0,.05,1,.09,2.55a12.25,12.25,0,0,1,0,2.8l.78-.37a41.6,41.6,0,0,1,.46,5.27c-.12.66-.77.78-1.07,1.26a.75.75,0,0,1-.58.22,4,4,0,0,1-1.55-.52,14.42,14.42,0,0,0-4.91-2,11.79,11.79,0,0,1-2.17-.86c-.47,3.15.69,4.09.58,4.09h0a.14.14,0,0,1-.11,0,3.76,3.76,0,0,1-1.2-.62,3.41,3.41,0,0,0-1.31-.62h0c-.7.23-.33,1.59.25,2.9,1.15,2.78,2,5.8,1.09,6.82.65.34,1.57,1.07,2.19,1.37a1.67,1.67,0,0,0,.6.13c.71,0,1-.65,1.6-.9a5.52,5.52,0,0,1,1.74.66,1.27,1.27,0,0,0,.59.2c.53,0,.48-.78.61-1.34,0-1.1,1.84-.32,2.31-1,.71-.76-.5-3.13.7-3.13l.18,0c-1.12-.21.94-1.85,1.61-1.85.13,0,.21.06.21.2h0a4.7,4.7,0,0,1,1.31.76,9.37,9.37,0,0,1,.94.91c.75,1.48,2.75,3.25,4.18,4.85h0a9.52,9.52,0,0,0,1.09-.47,5.19,5.19,0,0,1,2-.48,3.69,3.69,0,0,1,.86.11,14.08,14.08,0,0,0,3.36.81,1.51,1.51,0,0,0,.8-.19c0-.27-.71-1-.68-1.31a6.09,6.09,0,0,0-.23-1.86c-.22-1-.55-2.35-.87-3.64s-.65-2.56-.83-3.5-.26-1.59,0-1.63a5.91,5.91,0,0,1,3.06,1.12c2.46,1.83,4,2,6.28,3.14.59.33,1.17,1,1.76,1.29a12.61,12.61,0,0,0,4,1.42,1,1,0,0,0,.31,0c1.51-.12,2.38-.94,2.31-2l1-1.46a13.46,13.46,0,0,0-1.29-2.53c-.88-1.51-1.75-2.14-1.27-2.3.12-.12-3-2.4-4.4-4.29l-1.21-.22a17.31,17.31,0,0,1,2.28,3.58c.65,1.48.63,2.85-1.2,2.85a6.9,6.9,0,0,1-1.78-.29s-.55,0-1.44,0h-.21a24.58,24.58,0,0,1-3.91-.33c-3-.49-6.35-1.67-8.13-3.84l-2.18-2.7L86,82.32c-1.78-2.26-3.52-4.54-4.89-6.55m5.06-3.37a1.43,1.43,0,0,0-.43,1.17,3.18,3.18,0,0,0,.11.64,12.92,12.92,0,0,0,.32-1.81m-1.3-8.13a2,2,0,0,0-1.23.8l-.11.17c.73-.25,1.27-.58,1.34-1m2.92-.71-.16.14c.06.15.13.3.21.48,0-.21,0-.42,0-.62m10.51-7.31h-.15c-.48.43-.79.92-1.24,1.38a2.51,2.51,0,0,1-1.07.61,3,3,0,0,1-.36.35c.43,0,.9,0,1.38-.05,0-.29.09-.57.14-.86.47-.48.79-1,1.3-1.44m12-1.87a65.44,65.44,0,0,0-9.15.67c-.36.06-.67.12-1,.19,0,0,0,0,0,.07a8,8,0,0,1,1-.2,63.67,63.67,0,0,1,9.14-.68c.73,0,1.49,0,2.28,0a2.25,2.25,0,0,1,1.09.32,2.35,2.35,0,0,0-1.17-.37c-.79,0-1.55,0-2.28,0"/><path class="b" d="M113.74,54.79a1.17,1.17,0,0,1,.61.69c.19,1.36-2.18,2.16-3.08,3.29.1.23-.14.6.21.83a1.34,1.34,0,0,1,.53.71,6.57,6.57,0,0,1-2.41,4c-.77,1.41-.55,2.65-1.41,4s-.28,2.77-2.14,3.65c-2,1.32-2,2.58-.77,5.82a35,35,0,0,1,.93,4,13,13,0,0,0,1.44,4.31c1.1,1.31.15,1.87.95,3.13l.06.08h0c-.81-1.26.15-1.82-1-3.12a13.13,13.13,0,0,1-1.44-4.33,31.59,31.59,0,0,0-.93-4c-1.18-3.24-1.22-4.5.77-5.82,1.87-.88,1.15-2.42,2.15-3.66s.64-2.62,1.42-4a6.61,6.61,0,0,0,2.41-4,1.31,1.31,0,0,0-.54-.71c-.34-.23-.11-.6-.2-.84.9-1.12,3.27-1.93,3.07-3.29,0-.21-.29-.51-.69-.74"/><path class="c" d="M110.37,54.43a63.67,63.67,0,0,0-9.14.68,8,8,0,0,0-1,.2.4.4,0,0,1,0,.17c-.23.61-1,.74-1.85.77-.51.45-.83,1-1.3,1.44-.05.29-.09.57-.14.86l.22,0c1.55-.13,3.06-.5,2.87-1.3l1.16-.44c.69-.26,1.6-.59,2.54-.86a10,10,0,0,1,2.53-.45c.83,0,1.45.25,1.61,1,0,0,.29.43.62,1a6.17,6.17,0,0,1,.76,1.57l-.81,1.55a32.25,32.25,0,0,1-2,3.34c-1.55,2.38-3.55,4.56-4.57,4.56h0s-.17.13-.43.37-.62.59-1,1a9.33,9.33,0,0,0-2.13,3.7,7.54,7.54,0,0,0,0,4.25c.34.57.68,1.13,1,1.71.82,1.41,1.64,2.88,2.41,4.36a37,37,0,0,0,3.55,3.67s.29.58.59,1.37l1,.14a2.78,2.78,0,0,0,.51-.17l.25.29,1.21.22-.06-.08c-.8-1.26.15-1.82-.95-3.13a13,13,0,0,1-1.44-4.31,35,35,0,0,0-.93-4c-1.18-3.24-1.23-4.5.77-5.82,1.86-.88,1.14-2.41,2.14-3.65s.64-2.62,1.41-4a6.57,6.57,0,0,0,2.41-4,1.34,1.34,0,0,0-.53-.71c-.35-.23-.11-.6-.21-.83.9-1.13,3.27-1.93,3.08-3.29a1.17,1.17,0,0,0-.61-.69,2.25,2.25,0,0,0-1.09-.32c-.79,0-1.55,0-2.28,0"/><path class="d" d="M106.19,55.48a10,10,0,0,0-2.53.45c-.94.27-1.85.6-2.54.86l-1.16.44c.19.8-1.32,1.17-2.87,1.3l-.22,0c-.48,0-1,.05-1.38.05a6.11,6.11,0,0,1-3.25,1.34c-1.27.71-1.65,1.78-2.95,2.44a4.11,4.11,0,0,0-1.49,1.18c0,.2,0,.41,0,.62l.09.21a20.28,20.28,0,0,1,1,3.23A6.71,6.71,0,0,1,89,70.81,1.37,1.37,0,0,1,87.68,72a3,3,0,0,1-.49,0,2.34,2.34,0,0,0-.75.29,1.71,1.71,0,0,0-.26.21,12.92,12.92,0,0,1-.32,1.81c.35,1.2,1.49,3,4.24,6,1.15,1.12,2.41,2.32,3.68,3.53l.25.23c.92.63,2.69,1.79,4.69,2.88,2.26,1.23,4.84,2.33,6.87,2.33h.25a1.69,1.69,0,0,0-.1-.27c-.3-.79-.59-1.37-.59-1.37a37,37,0,0,1-3.55-3.67L101,83a17.38,17.38,0,0,1-2.29-3.78,11.46,11.46,0,0,1-.5-1.5,7.54,7.54,0,0,1,0-4.25,9.33,9.33,0,0,1,2.13-3.7c.41-.43.77-.78,1-1s.43-.37.43-.37h0c1,0,3-2.18,4.57-4.56a32.25,32.25,0,0,0,2-3.34l.81-1.55a6.17,6.17,0,0,0-.76-1.57c-.33-.53-.62-1-.62-1-.16-.7-.78-1-1.61-1"/><path class="e" d="M87.64,63.7a1.89,1.89,0,0,1-1.3.48l-.43,0a4.35,4.35,0,0,0-1,.12c-.07.39-.61.72-1.34,1a9.24,9.24,0,0,0-.77,3.18,32.69,32.69,0,0,1-1,3.71,15.41,15.41,0,0,0-.69,3.64c1.37,2,3.11,4.29,4.89,6.55l4.87,6.11,2.18,2.7c1.78,2.17,5.13,3.35,8.13,3.84a24.58,24.58,0,0,0,3.91.33h.21c.89,0,1.44,0,1.44,0a6.9,6.9,0,0,0,1.78.29c1.83,0,1.85-1.37,1.2-2.85a17.31,17.31,0,0,0-2.28-3.58l-.25-.29a2.78,2.78,0,0,1-.51.17,4.45,4.45,0,0,1-.85.13h-.25c-2,0-4.61-1.1-6.87-2.33-2-1.09-3.77-2.25-4.69-2.88l-.67-.47c-1.28-1.23-2.35-2.32-3.26-3.29-2.75-2.94-3.89-4.75-4.24-6a3.18,3.18,0,0,1-.11-.64,1.43,1.43,0,0,1,.43-1.17,1.71,1.71,0,0,1,.26-.21,2.34,2.34,0,0,1,.75-.29,3,3,0,0,0,.49,0A1.37,1.37,0,0,0,89,70.81,6.71,6.71,0,0,0,89,67.62a20.28,20.28,0,0,0-1-3.23l-.09-.21c-.08-.18-.15-.33-.21-.48"/><path class="f" d="M96.84,95c-.23,0-.17.68,0,1.63s.5,2.2.83,3.5.65,2.61.87,3.64a6.09,6.09,0,0,1,.23,1.86c0,.27.72,1,.68,1.31a1.51,1.51,0,0,1-.8.19,14.08,14.08,0,0,1-3.36-.81,3.69,3.69,0,0,0-.86-.11,5.19,5.19,0,0,0-2,.48,9.52,9.52,0,0,1-1.09.47h0c-1.43-1.6-3.43-3.37-4.18-4.85a9.37,9.37,0,0,0-.94-.91,4.7,4.7,0,0,0-1.31-.76h0c0-.14-.08-.2-.21-.2-.67,0-2.73,1.64-1.61,1.85l-.18,0c-1.2,0,0,2.37-.7,3.13-.47.68-2.31-.1-2.31,1-.13.56-.08,1.34-.61,1.34a1.27,1.27,0,0,1-.59-.2,5.52,5.52,0,0,0-1.74-.66c-.61.25-.89.9-1.6.9a1.67,1.67,0,0,1-.6-.13c-.62-.3-1.54-1-2.19-1.37a1.23,1.23,0,0,0-.53-.17c-.17,0-.27.1-.28.35a.34.34,0,0,1,0,.18,1,1,0,0,1-.18.22c-.11.12-.19.25,0,.53h0c.32.12.84.53,1.27.68.91.43,1.38.14,2.35.68A27.15,27.15,0,0,0,78,110.09a3.47,3.47,0,0,0,.67.08,1.52,1.52,0,0,0,.62-.12,5.6,5.6,0,0,0,3.68-1.65c-.72-1.5.63-1.21,1.1-1.58a.34.34,0,0,1,.15,0c.19,0,.47.07.72.08.4-.19.45-.76.95-.76a1.39,1.39,0,0,1,.6.18,34.76,34.76,0,0,0,6.72,2.92,20.66,20.66,0,0,0,4.28.49h.78a14.2,14.2,0,0,0,3-.24c1.53-.33,1.48-1.93,2.6-2.56h0a1.46,1.46,0,0,1,.34.39,2.16,2.16,0,0,0,.22-.36c-.1-.19-.17-.66-.27-.84a1,1,0,0,1,.62-.16,5.28,5.28,0,0,1,.62,0,9.64,9.64,0,0,0,2.75.42,10.25,10.25,0,0,0,3.13-.53,16.09,16.09,0,0,1,5-1h.48c.77-.07,1.9-.22,2.07-1s.56-1.08.35-1.75a43,43,0,0,0-3-4.47l-.54.77-1,1.46c.07,1-.8,1.87-2.31,2a1,1,0,0,1-.31,0,12.61,12.61,0,0,1-4-1.42c-.59-.34-1.17-1-1.76-1.29-2.27-1.17-3.82-1.31-6.28-3.14A5.91,5.91,0,0,0,96.84,95"/><path class="g" d="M85.85,106.12c-.5,0-.55.57-.95.76-.25,0-.53-.08-.72-.08a.34.34,0,0,0-.15,0c-.47.37-1.82.08-1.1,1.58a5.6,5.6,0,0,1-3.68,1.65,1.52,1.52,0,0,1-.62.12,3.47,3.47,0,0,1-.67-.08,27.15,27.15,0,0,1-2.86-1.35c-1-.54-1.44-.25-2.35-.68-.43-.15-1-.56-1.27-.68h0c0,.23-.39.2-.09.54a5.67,5.67,0,0,0,1.2,1.07c1.55,1,3.22,2.14,4.65,2.81a19,19,0,0,0,4.64,1.51,9.24,9.24,0,0,0,1.45.12,5.39,5.39,0,0,0,2.15-.39c.37-.16.08-1,.11-1.41,0-1.19,1.53-1,.86-2.87-.09-.22,0-.31.2-.31h.11c1.56.63,3.08,1.21,4.58,1.73s3,1,4.5,1.39a12.5,12.5,0,0,0,3.45.37h.8a20.76,20.76,0,0,0,3.37-.38,2.27,2.27,0,0,0,1.39-2.88,4.85,4.85,0,0,0-.67-1.37,1.46,1.46,0,0,0-.34-.39h0c-1.12.63-1.07,2.23-2.6,2.56a14.2,14.2,0,0,1-3,.24h-.78a20.66,20.66,0,0,1-4.28-.49,34.76,34.76,0,0,1-6.72-2.92,1.39,1.39,0,0,0-.6-.18"/><path class="a" d="M70.65,80.85A17.14,17.14,0,0,0,72.57,84a21.51,21.51,0,0,0-1.92-3.15M65.6,34.91a.17.17,0,0,0-.17.08,10.16,10.16,0,0,0,.17,2.47,1.33,1.33,0,0,1-.2.95l.1-.09a.83.83,0,0,0,.21-.38h0a1.68,1.68,0,0,0,.05-.4,4.32,4.32,0,0,0-.29-1.37,4.32,4.32,0,0,1,.29,1.37h0a1.68,1.68,0,0,1-.05.4h0a.83.83,0,0,1-.21.38l-.1.09a.55.55,0,0,1-.41.16,1.63,1.63,0,0,1-.38-.07,5.25,5.25,0,0,1-1.78-.88,8.91,8.91,0,0,0-2.44-1l-.14-.09h-.06c-.08,0-.13,0-.14.08h0l-.84-.53c-.16.37-.54.46-.79.71a1.87,1.87,0,0,0-.14.74,3.19,3.19,0,0,0,.16,1c.11.32.26.69.46,1.13a.54.54,0,0,0,.05.11h0l0,.09a1.58,1.58,0,0,1-.14.68c-.07.25-.17.47-.31.47l-.06,0c-.27.26-.46.59,0,2.15.22.74.43,1.49.63,2.24l.2.58-.2-.58c.82,3.06,1.39,6,.79,7.26a1.44,1.44,0,0,1-1.37,1.12,2.37,2.37,0,0,1-.57-.08c-.31,0-2.73-3.13-3.46-4.2-.42-.6-.71-.84-.9-.84-.43,0-.39,1.18-.26,2.37a20.08,20.08,0,0,1,.09,7.58.2.2,0,0,1-.17.08,1.28,1.28,0,0,1-.53-.26,1.23,1.23,0,0,0-.54-.25h-.09c-.72.86-.66,3.67-1.24,5.22a8.15,8.15,0,0,0-2.23,3.76,4.44,4.44,0,0,0,0,1.11s0,0,0,0h0c-.41,0-1.22-2-1.86-2.2h0c-.77,0-1.07,1.41-1.07,2.83a33.17,33.17,0,0,1-.47,5.3,2.48,2.48,0,0,1-.8,1.53c.52.51,1.19,1.47,1.65,2a1.2,1.2,0,0,0,.8.39,1.55,1.55,0,0,0,.56-.15,1.7,1.7,0,0,1,.59-.14h.06a5.36,5.36,0,0,1,1.24,1.32c.23.34.41.48.56.48.3,0,.46-.58.68-1s.22-.33.38-.33a1.86,1.86,0,0,1,.77.32,1.9,1.9,0,0,0,.78.31.45.45,0,0,0,.19,0c.7-.26.74-2.41,1.42-2.41a.63.63,0,0,1,.39.19c-.56-.54.43-.84,1.24-.84.55,0,1,.14.87.43a4.82,4.82,0,0,1,.72,1.33,8.36,8.36,0,0,1,.36,1.26c0,1.63.82,4.17,1.28,6.26.12.22,2.11,0,3.5,1.42,1.09,1.27,2.21,2.73,3.09,2.73h0c.15-.21-.12-1.24,0-1.46a30,30,0,0,0,1.51-5.17c.58-2.43,1.08-4.73,1.48-4.73h0a4.62,4.62,0,0,1,.6.52c-.23-.55-.22-.93.27-.93h.11a11.44,11.44,0,0,1-2.39-4.79l-2-11c-.49-2.79-1-5.68-1.26-8s-.3-4.16.31-4.88c0,0,.08-.05,0-.5a14,14,0,0,0-.93-2.89,3.58,3.58,0,0,1,.16-1.55.61.61,0,0,1,.58-.42c.4,0,1,.33,2,1.24l.86.52a21.11,21.11,0,0,0,1.92,1,6.38,6.38,0,0,0,2.29.68c.39,0,.65-.14.67-.46a11.08,11.08,0,0,0,1.43.88,2.15,2.15,0,0,0,.8.26.33.33,0,0,0,.21-.06c0-.36,0-.58,0-.58.11.31.09.49,0,.58a6.45,6.45,0,0,1,0,.71,5.44,5.44,0,0,1,.84-1.53,1.08,1.08,0,0,1,.8-.43,1.2,1.2,0,0,1,.74.31,9.51,9.51,0,0,1,1.73-.15,7.64,7.64,0,0,1,2.94.48,53.24,53.24,0,0,1-7.28-5.26c-3-2.54-7.27-6.67-8.24-6.67"/><path class="h" d="M69.34,77.44c-.49,0-.5.38-.27.93a6.28,6.28,0,0,1,1.39,2c.06.16.13.3.19.45A21.51,21.51,0,0,1,72.57,84c.53.71,1.07,1.4,1.64,2.32.33.59.53,1.41.87,2,1,1.57,2.32,3.31,3,3.43a3.08,3.08,0,0,0,1.43.41,1.39,1.39,0,0,0,1.35-.83l1.47-.67a12.25,12.25,0,0,0,0-2.8c0-1.59-.44-2.55-.09-2.55h.08c.14,0-1.46-3.57-1.76-5.86l-.9-.81c0,.28.12.68.19,1.15a14.63,14.63,0,0,1,.12,3c-.09,1.15-.44,2.09-1.24,2.09-.55,0-1.3-.44-2.31-1.55,0,0-.55-.3-1.38-.84a27.07,27.07,0,0,1-3-2.34,22.52,22.52,0,0,1-2.55-2.69h-.11"/><path class="a" d="M69.31,53.75a1.1,1.1,0,0,0-.83.72,2.28,2.28,0,0,0-.17.57l.32-.37a8.11,8.11,0,0,0,.68-.92M81.7,47.14c.36.25,1.3.88,2.31,1.43L84.5,48a8,8,0,0,1,2.11-.47,6.29,6.29,0,0,1,2.57.69,71.14,71.14,0,0,1,9.94,5.51,2.72,2.72,0,0,1,.78.81,2.71,2.71,0,0,0-.83-.9,71,71,0,0,0-9.95-5.5,6.22,6.22,0,0,0-2.57-.69,8.06,8.06,0,0,0-2.1.46,1.29,1.29,0,0,1-.35,0,5.86,5.86,0,0,1-2.4-.79M58.85,40.52a1.37,1.37,0,0,1-.37.44l.06,0c.14,0,.24-.22.31-.47m0-.89a.61.61,0,0,0,.05.12h0a.54.54,0,0,1-.05-.11m3.93-2a5.25,5.25,0,0,0,1.78.88,1.44,1.44,0,0,1-.24-.09c-.54-.26-1.05-.54-1.54-.79m-4.41-.83a1.47,1.47,0,0,0-.1.13c-.16.25-.19.69.12,1.58a3.19,3.19,0,0,1-.16-1h0a1.87,1.87,0,0,1,.14-.74m.79-.73v0l.84.53h0c0-.06.06-.08.14-.08h.06a5.11,5.11,0,0,0-1-.46"/><path class="h" d="M76.71,68.38a25.81,25.81,0,0,0,.42,2.8c0-.83,0-1.65,0-2.47l-.39-.33m.19-3.92a9.44,9.44,0,0,0-.21,1.39l.29-.07c0-.44,0-.88-.08-1.32m-7.59-2.3c.32,1.25.73,2.69,1.24,4.35,0,0,.12.27.34.73l-.1-.32c-.51-1.62-1-3.26-1.48-4.76"/><path class="i" d="M77,65.78l-.29.07a15.38,15.38,0,0,0,0,2.53l.39.33c0-1-.06-2-.12-2.93"/><path class="a" d="M43,75.66a2.44,2.44,0,0,1,.22.31,1.06,1.06,0,0,0,.21-.16,2.47,2.47,0,0,1-.43-.15"/><path class="h" d="M78.38,77.53c0,.09,0,.18,0,.27a4.21,4.21,0,0,0,.75.35l-.71-.62"/><path class="b" d="M98.27,56.16a11.15,11.15,0,0,0-2.24.17c0,.24-.38.41-.19.77A1.22,1.22,0,0,1,96,58a3.73,3.73,0,0,1-.32.36l.19-.06L96,58a1.27,1.27,0,0,0-.14-.85c-.19-.36.17-.53.19-.77a9.61,9.61,0,0,1,2.08-.16l.11-.1m1.63-1.64a1.62,1.62,0,0,1,.24.73h0a2,2,0,0,0-.28-.72"/><path class="j" d="M81.09,75.73c0,.2,0,.39,0,.57.33,1.62-.68,1.61-.56,3.07,0,0,0,.06,0,.09h0c-.12-1.46.89-1.45.56-3.07a4.37,4.37,0,0,1,0-.63l0,0m3.79-11.57a2.07,2.07,0,0,0-1.26.81,2.16,2.16,0,0,0-.18.3l.1,0,.11-.17a2,2,0,0,1,1.23-.8v-.11m2.91-.72-.2.17,0,.09.16-.14a.49.49,0,0,1,0-.12m8.06-5.19-.19.06-.32.29h.15a3,3,0,0,0,.36-.35m2.58-2.09h-.16l-.11.1h.15a.39.39,0,0,0,.1-.08h0m1.75-.92h0s0,.06,0,.08l.06,0s0,0,0-.07"/><path class="k" d="M100.19,55.31l-.06,0s0,0,0,.06c-.22.57-.89.72-1.68.77h0a.39.39,0,0,1-.1.08c.86,0,1.62-.16,1.85-.77a.4.4,0,0,0,0-.17"/><path class="l" d="M95.49,58.6h-.15a6.21,6.21,0,0,1-3.14,1.25c-1.28.7-1.65,1.78-3,2.44a3.92,3.92,0,0,0-1.46,1.15.49.49,0,0,0,0,.12,4.11,4.11,0,0,1,1.49-1.18c1.3-.66,1.68-1.73,2.95-2.44a6.11,6.11,0,0,0,3.25-1.34"/><path class="m" d="M83.54,65.24l-.1,0a10.18,10.18,0,0,0-.7,3A32.28,32.28,0,0,1,81.79,72a15.11,15.11,0,0,0-.7,3.7l0,0a15.41,15.41,0,0,1,.69-3.64,32.69,32.69,0,0,0,1-3.71,9.24,9.24,0,0,1,.77-3.18m4-1.63a1.89,1.89,0,0,1-1.29.48,3.62,3.62,0,0,1-.43,0,4.83,4.83,0,0,0-1,.11v.11a4.35,4.35,0,0,1,1-.12l.43,0a1.89,1.89,0,0,0,1.3-.48l0-.09"/><path class="c" d="M86.61,47.51A8,8,0,0,0,84.5,48l-.49.59.19.1a6.16,6.16,0,0,0,2.39.86c.31,0,.52-.11.58-.36,0,0,1.87.38,3.7,1s3.61,1.37,3.28,2.57c0,0,.07.49.09,1.06a7,7,0,0,1,0,1.63s-.53.34-1.35.81-2,1-3.15,1.56c-.58.26-1.17.49-1.76.69,1.48.14,2.91.23,4.18.23h.17c.43,0,.84,0,1.22,0l.46-.07h.2a9.21,9.21,0,0,0,1.5-.27A3.73,3.73,0,0,0,96,58a1.22,1.22,0,0,0-.14-.85c-.19-.36.17-.53.19-.77a11.15,11.15,0,0,1,2.24-.17l0,0a4.47,4.47,0,0,1,1.82-.87,1.62,1.62,0,0,0-.24-.73,2.72,2.72,0,0,0-.78-.81,71.14,71.14,0,0,0-9.94-5.51,6.29,6.29,0,0,0-2.57-.69"/><path class="n" d="M77.1,68.71c0,.82,0,1.64,0,2.47a41.76,41.76,0,0,0,1.34,4.91,13.13,13.13,0,0,1-.09,1.37v.07l.71.62a3,3,0,0,0,.49.13l.08.37.9.81s0-.06,0-.09c-.12-1.46.89-1.45.56-3.07,0-.18,0-.37,0-.57l0,0c-1.36-2-2.15-3.66-2-4.75,0,0,0-.11-.23-.49a11.6,11.6,0,0,0-1.75-1.75M87.93,58.45a10.31,10.31,0,0,1-3.13.68,1.62,1.62,0,0,1-.93-.21,9,9,0,0,0-1.82.31,7.77,7.77,0,0,0-3.34,1.82,6.57,6.57,0,0,0-1.81,3.41c0,.44.06.88.08,1.32a3.23,3.23,0,0,1,.46,0,7.11,7.11,0,0,1,1.36.16l1,0a18.25,18.25,0,0,0,2.23-.26,10.71,10.71,0,0,0,1.38-.34,2.16,2.16,0,0,1,.18-.3,2.07,2.07,0,0,1,1.26-.81.46.46,0,0,0,0-.19s.3,0,.7,0a7.23,7.23,0,0,0,1-.06c.48-.06.9-.2,1-.44l-.27-.56c.24.23.31.41.27.56l0,.12.2-.17c-.05-1.31.21-2.29,1.19-2.29l.21,0A10.84,10.84,0,0,1,90.65,60a8,8,0,0,1,2.85-1.32c-.38,0-.79,0-1.22,0h-.17c-1.27,0-2.7-.09-4.18-.23m7.73-.14a9.21,9.21,0,0,1-1.5.27l1.09,0h.09l.32-.29m4.48-3.06a4.47,4.47,0,0,0-1.82.87l0,0h.16a4.2,4.2,0,0,1,1.7-.83s0,0,0-.08"/><path class="o" d="M100.13,55.33a4.2,4.2,0,0,0-1.7.83c.79,0,1.46-.2,1.68-.77,0,0,0,0,0-.06"/><path class="p" d="M94,58.57l-.46.07A8,8,0,0,0,90.65,60a10.84,10.84,0,0,0-1.46,1.21l-.21,0c-1,0-1.24,1-1.19,2.29a3.92,3.92,0,0,1,1.46-1.15c1.3-.66,1.67-1.74,3-2.44a6.21,6.21,0,0,0,3.14-1.25h-.09l-1.09,0H94"/><path class="q" d="M83.44,65.27a10.71,10.71,0,0,1-1.38.34,18.25,18.25,0,0,1-2.23.26l-1,0a7.11,7.11,0,0,0-1.36-.16,3.23,3.23,0,0,0-.46,0c.06,1,.1,2,.12,2.93a11.6,11.6,0,0,1,1.75,1.75c.28.38.23.49.23.49-.16,1.09.63,2.73,2,4.75l0,0a15.11,15.11,0,0,1,.7-3.7,32.28,32.28,0,0,0,.95-3.71,10.18,10.18,0,0,1,.7-3m4.1-1.78c-.08.24-.5.38-1,.44a7.23,7.23,0,0,1-1,.06c-.4,0-.7,0-.7,0a.46.46,0,0,1,0,.19,4.83,4.83,0,0,1,1-.11,3.62,3.62,0,0,0,.43,0,1.89,1.89,0,0,0,1.29-.48l0-.12m-.27-.56.27.56c0-.15,0-.33-.27-.56"/><path class="d" d="M72.83,71c.21.37.43.75.66,1.13a23.34,23.34,0,0,0,3.32,4.49,9.59,9.59,0,0,0-1.73-3c-.64-.84-1.43-1.73-2.25-2.61m-.47-9.83h0c-.06,0-.75.12-1.41.27a5,5,0,0,0-1.15.34H70a9.92,9.92,0,0,1,2.72-.6h-.33m3-.84a1.34,1.34,0,0,1-.7.57c.42-.13.63-.32.7-.57m.3-14.09a1.08,1.08,0,0,0-.8.43,5.44,5.44,0,0,0-.84,1.53c0,.07,0,.13,0,.19a17.42,17.42,0,0,1-.5,3.1c-.41,1.59-1.16,3-2.13,3a1.58,1.58,0,0,1-1.09-.54,2.24,2.24,0,0,0-.73-.17h0a1.15,1.15,0,0,0-.26,0,8.11,8.11,0,0,1-.68.92l-.32.37a9.12,9.12,0,0,0,.09,3c.16,1,.43,2.26.82,3.8a4.7,4.7,0,0,1,.58-.08A5,5,0,0,1,71,61.41c.66-.15,1.35-.27,1.41-.27h.33c.55-.07,1.14-.13,1.77-.22l.25-.06a1.34,1.34,0,0,0,.7-.57,1.56,1.56,0,0,0-.29-1.08,10.06,10.06,0,0,1-1.29-2.29c0-.25.38-.35,1-.35,2,0,6.44,1,9.63,1.47,1.16.16,2.32.3,3.45.41.59-.2,1.18-.43,1.76-.69,1.2-.51,2.31-1.12,3.15-1.56s1.35-.81,1.35-.81a7,7,0,0,0,0-1.63c0-.57-.09-1.06-.09-1.06.33-1.2-1.47-2-3.28-2.57s-3.7-1-3.7-1c-.06.25-.27.36-.58.36a6.16,6.16,0,0,1-2.39-.86l-.19-.1c-1-.55-2-1.18-2.31-1.43L81.53,47a3,3,0,0,0-.41-.19,7.64,7.64,0,0,0-2.94-.48,9.51,9.51,0,0,0-1.73.15,1.2,1.2,0,0,0-.74-.31"/><path class="r" d="M69.8,61.75a4.7,4.7,0,0,0-.58.08l0,.15.4,0v0h0c0-.06.06-.12.15-.17m4.91-.89-.25.06c-.63.09-1.22.15-1.77.22h.1a5.25,5.25,0,0,0,1.92-.28m.14-4.29c-.64,0-1,.1-1,.35a10.06,10.06,0,0,0,1.29,2.29,1.56,1.56,0,0,1,.29,1.08.93.93,0,0,0,.09-.4.9.9,0,0,0,0-.28h0a3.61,3.61,0,0,0-1-1.56h0a3.61,3.61,0,0,1,1,1.56h0a.9.9,0,0,1,0,.28h0a.93.93,0,0,1-.09.4c-.07.25-.28.44-.7.57a5.25,5.25,0,0,1-1.92.28h-.1a9.92,9.92,0,0,0-2.72.6H69.8c-.09,0-.15.11-.15.17v0l-.4,0,0,.18c.45,1.5,1,3.14,1.48,4.76l.1.32c.39.8,1.07,2.18,1.94,3.71l.43.4-.43-.4h0c.82.88,1.61,1.77,2.25,2.61a9.59,9.59,0,0,1,1.73,3,8.17,8.17,0,0,0,1.53,1.22c0-.09,0-.18,0-.27v-.07a13.13,13.13,0,0,0,.09-1.37,41.76,41.76,0,0,1-1.34-4.91,25.81,25.81,0,0,1-.42-2.8l-.06,0a3.72,3.72,0,0,1-.56-1.57.81.81,0,0,1,.6-.91,9.44,9.44,0,0,1,.21-1.39,6.57,6.57,0,0,1,1.81-3.41,7.77,7.77,0,0,1,3.34-1.82,9,9,0,0,1,1.82-.31,1.62,1.62,0,0,0,.93.21,10.31,10.31,0,0,0,3.13-.68c-1.13-.11-2.29-.25-3.45-.41-3.19-.49-7.65-1.47-9.63-1.47"/><path class="s" d="M76.69,65.85a.81.81,0,0,0-.6.91,3.72,3.72,0,0,0,.56,1.57l.06,0a15.38,15.38,0,0,1,0-2.53"/><path class="t" d="M72.83,71h0l.43.4-.43-.4m-3.17-9-.4,0h0l.4,0m0,0h0v0m2.71-.78c-.06,0-.75.12-1.41.27a5,5,0,0,0-1.15.34c-.09,0-.15.11-.15.17h0c0-.06.06-.12.15-.17A5,5,0,0,1,71,61.41c.66-.15,1.35-.27,1.41-.27m0,0h0m3.14-1.24a.93.93,0,0,1-.09.4,1.34,1.34,0,0,1-.7.57,5.25,5.25,0,0,1-1.92.28h0a5.25,5.25,0,0,0,1.92-.28,1.34,1.34,0,0,0,.7-.57.93.93,0,0,0,.09-.4h0m0-.28h0a.9.9,0,0,1,0,.28h0a.9.9,0,0,0,0-.28h0m-1-1.56a3.61,3.61,0,0,1,1,1.56,3.61,3.61,0,0,0-1-1.56m0,0h0"/><path class="e" d="M70.1,67.19a.22.22,0,0,0-.07.17h0v0h0a1.11,1.11,0,0,0,.16.52A5.5,5.5,0,0,0,71,69a25.54,25.54,0,0,0,1.8,1.86c-.53-.57-1.08-1.13-1.61-1.68-1-1.08-1.09-1.53-1-1.92l0-.1H70.1m0-1.48a5.52,5.52,0,0,1,.25.78h0v0a1.94,1.94,0,0,0-.19-.77l-.07-.05M69,64.84a5.83,5.83,0,0,0,1,.79c-.39-.3-.7-.56-1-.79M68.64,62h0a1.79,1.79,0,0,0-.35,1.07v.13c.11-.4.41-.74.39-1.2M64,43.41a.61.61,0,0,0-.58.42,3.58,3.58,0,0,0-.16,1.55,14,14,0,0,1,.93,2.89c.07.45,0,.5,0,.5-.61.72-.56,2.56-.31,4.88s.77,5.22,1.26,8l2,11a11.44,11.44,0,0,0,2.39,4.79,3.41,3.41,0,0,1,.89.25,30.89,30.89,0,0,0,5.13,1.68h.1a1.84,1.84,0,0,0,1.34-2.17,2.42,2.42,0,0,0-.1-.62,23.34,23.34,0,0,1-3.32-4.49c-.23-.38-.45-.76-.66-1.13l0-.06A25.54,25.54,0,0,1,71,69a5.5,5.5,0,0,1-.79-1.12A1.11,1.11,0,0,1,70,67.4h0v0h0a.22.22,0,0,1,.07-.17h.11a2.14,2.14,0,0,0,.14-.67v0h0a5.52,5.52,0,0,0-.25-.78L70,65.63a5.83,5.83,0,0,1-1-.79c-.69-.65-.86-1.09-.82-1.44a1.06,1.06,0,0,1,0-.19v0h0v-.1h0A1.79,1.79,0,0,1,68.6,62h0v0a2.15,2.15,0,0,1,.58-.16c-.39-1.54-.66-2.79-.82-3.8a9.12,9.12,0,0,1-.09-3,2.28,2.28,0,0,1,.17-.57,1.1,1.1,0,0,1,.83-.72,1.15,1.15,0,0,1,.26,0h0a2.24,2.24,0,0,1,.73.17,1.58,1.58,0,0,0,1.09.54c1,0,1.72-1.39,2.13-3a17.42,17.42,0,0,0,.5-3.1c0-.06,0-.12,0-.19a6.45,6.45,0,0,0,0-.71.33.33,0,0,1-.21.06,2.15,2.15,0,0,1-.8-.26,11.08,11.08,0,0,1-1.43-.88c0,.32-.28.46-.67.46a6.38,6.38,0,0,1-2.29-.68,21.11,21.11,0,0,1-1.92-1l-.86-.52c-1-.91-1.58-1.24-2-1.24"/><path class="u" d="M76.81,76.58a2.42,2.42,0,0,1,.1.62,1.84,1.84,0,0,1-1.34,2.17h-.1a30.89,30.89,0,0,1-5.13-1.68,3.41,3.41,0,0,0-.89-.25A22.52,22.52,0,0,0,72,80.14a27.07,27.07,0,0,0,3,2.34c.83.54,1.38.84,1.38.84,1,1.11,1.76,1.55,2.31,1.55.8,0,1.15-.94,1.24-2.09a14.63,14.63,0,0,0-.12-3c-.07-.47-.14-.87-.19-1.15l-.08-.37a3,3,0,0,1-.49-.13,4.21,4.21,0,0,1-.75-.35,8.17,8.17,0,0,1-1.53-1.22m-4-5.68,0,.06h0l0,0m-2.43-4.37a2.14,2.14,0,0,1-.14.67c.13,0,.18-.15.18-.33h0a2.11,2.11,0,0,0,0-.33m-.37-.9.11.08h0L70,65.63m-1.73-2.42a1.06,1.06,0,0,0,0,.19c0,.35.13.79.82,1.44a2.47,2.47,0,0,1-.78-1.58v0m1-1.23-.62,0c0,.46-.28.8-.39,1.2v0A2.47,2.47,0,0,0,69,64.84c.25.23.56.49,1,.79l.11.07h0l.07.05a1.94,1.94,0,0,1,.19.77,2.11,2.11,0,0,1,0,.33h0c0,.18,0,.31-.18.33l0,.1c-.1.39,0,.84,1,1.92.53.55,1.08,1.11,1.61,1.68l0,0C72,69.42,71.28,68,70.89,67.24c-.22-.46-.34-.73-.34-.73-.51-1.66-.92-3.1-1.24-4.35l0-.18m0-.15a2.15,2.15,0,0,0-.58.16v0l.62,0,0-.15"/><path class="v" d="M71,69a25.54,25.54,0,0,0,1.8,1.86l0,0h0l0,0A25.54,25.54,0,0,1,71,69M70,67.4h0a1.11,1.11,0,0,0,.16.52A5.5,5.5,0,0,0,71,69a5.5,5.5,0,0,1-.79-1.12A1.11,1.11,0,0,1,70,67.4m0,0h0m0,0h0m0,0h0m0,0v0m0,0h0m.36-.49c0,.18,0,.31-.18.33H70.1a.22.22,0,0,0-.07.17.22.22,0,0,1,.07-.17h.11c.13,0,.18-.15.18-.33h0m0,0h0m0-.37v0a2.11,2.11,0,0,1,0,.33,2.11,2.11,0,0,0,0-.33v0m-.25-.79h0a5.52,5.52,0,0,1,.25.78h0a5.52,5.52,0,0,0-.25-.78h0m-1.84-2.44A2.47,2.47,0,0,0,69,64.84a5.83,5.83,0,0,0,1,.79l.11.07L70,65.63a5.83,5.83,0,0,1-1-.79,2.47,2.47,0,0,1-.78-1.58m0-.08h0v0m0,0v0h0v0m0-.05h0v0m1-1.1-.62,0h0a1.79,1.79,0,0,0-.35,1.07h0A1.79,1.79,0,0,1,68.6,62h0l.62,0h0"/><path class="e" d="M74.12,46.87s0,.22,0,.58c.1-.09.12-.27,0-.58"/><path class="f" d="M43.73,75.36c-.12,0-.21.08-.26.27a.33.33,0,0,1-.08.18,1.06,1.06,0,0,1-.21.16c-.12.08-.22.18-.11.5h0c.28.19.69.71,1,1,.74.66,1.19.52,1.91,1.34s1.41,1.66,2,2.24a2.06,2.06,0,0,0,1,.49A5.08,5.08,0,0,0,51,82a2.63,2.63,0,0,0,1.14-.25c-.05-.77.13-1,.39-1a1.48,1.48,0,0,1,.43.1,1.49,1.49,0,0,0,.42.1h.05c.16,0,.4.32.63.49h.06a.73.73,0,0,0,.34-.12.85.85,0,0,1,.34-.11c.17,0,.36.12.62.53a42.59,42.59,0,0,0,4,6,17.73,17.73,0,0,0,3.11,2.67,16.45,16.45,0,0,0,3.16,1.81,1.89,1.89,0,0,0,.63.12,2.47,2.47,0,0,0,1.25-.46,2.44,2.44,0,0,1,1.24-.46h.11a1.37,1.37,0,0,1,.1.5,2.31,2.31,0,0,0,.35-.18c0-.21.15-.63.15-.84h0c.29,0,.59.19,1,.58a9.43,9.43,0,0,0,2.67,2.13c.06-.38.14-.8.25-1.25-.25-1.66-1.71-4.09-1.4-5.28.3-.36,1.37,0,1.46-.46a13.32,13.32,0,0,0-1-2.67,17.14,17.14,0,0,1-1.92-3.15c-.23-.33-.47-.66-.74-1a9.4,9.4,0,0,1-.84-1.48,4.62,4.62,0,0,0-.6-.52h0c-.4,0-.9,2.3-1.48,4.73a30,30,0,0,1-1.51,5.17c-.15.22.12,1.25,0,1.46h0c-.88,0-2-1.46-3.09-2.73-1.39-1.45-3.38-1.2-3.5-1.42-.46-2.09-1.3-4.63-1.28-6.26a8.36,8.36,0,0,0-.36-1.26,4.82,4.82,0,0,0-.72-1.33c.16-.29-.32-.43-.87-.43-.81,0-1.8.3-1.24.84a.63.63,0,0,0-.39-.19c-.68,0-.72,2.15-1.42,2.41a.45.45,0,0,1-.19,0,1.9,1.9,0,0,1-.78-.31,1.86,1.86,0,0,0-.77-.32c-.16,0-.29.09-.38.33s-.38,1-.68,1c-.15,0-.33-.14-.56-.48a5.36,5.36,0,0,0-1.24-1.32h-.06a1.7,1.7,0,0,0-.59.14,1.55,1.55,0,0,1-.56.15,1.2,1.2,0,0,1-.8-.39c-.46-.49-1.13-1.45-1.65-2a1,1,0,0,0-.53-.32"/><path class="w" d="M72.57,84a13.32,13.32,0,0,1,1,2.67c-.09.49-1.16.1-1.46.46-.31,1.19,1.15,3.62,1.4,5.28-.11.45-.19.87-.25,1.25a11.79,11.79,0,0,0,2.17.86,14.42,14.42,0,0,1,4.91,2,4,4,0,0,0,1.55.52.75.75,0,0,0,.58-.22c.3-.48,1-.6,1.07-1.26a41.6,41.6,0,0,0-.46-5.27l-.78.37-1.47.67a1.39,1.39,0,0,1-1.35.83A3.08,3.08,0,0,1,78,91.75c-.64-.12-2-1.86-3-3.43-.34-.59-.54-1.41-.87-2-.57-.92-1.11-1.61-1.64-2.32m-3.5-5.63a9.4,9.4,0,0,0,.84,1.48c.27.34.51.67.74,1-.06-.15-.13-.29-.19-.45a6.28,6.28,0,0,0-1.39-2"/><path class="x" d="M58.17,41.47h0v.07a16,16,0,0,0,.92,3.81l.2.58-.2-.58a16,16,0,0,1-.92-3.81v-.07M59,39.74h0a3.94,3.94,0,0,1-.1.76h0c-.07.25-.17.47-.31.47l-.06,0-.11-.06s-.2,0-.2.57h0c0-.56.2-.57.2-.57l.11.06.06,0c.14,0,.24-.22.31-.47h0a3.94,3.94,0,0,0,.1-.76h0m6.76-1.8a.83.83,0,0,1-.21.38.83.83,0,0,0,.21-.38m.05-.4a1.68,1.68,0,0,1-.05.4h0a1.68,1.68,0,0,0,.05-.4h0m-7.48,0h0a3.19,3.19,0,0,0,.16,1,6,6,0,0,0,.46,1.13.54.54,0,0,0,.05.11h0a.54.54,0,0,1-.05-.11,6.72,6.72,0,0,1-.46-1.13,3.19,3.19,0,0,1-.16-1m2.66-.81.36.14,1.27.57.26.19a5.25,5.25,0,0,0,1.78.88l.32,0a.84.84,0,0,0,.47-.12l.1-.09-.1.09a.84.84,0,0,1-.47.12l-.32,0a5.25,5.25,0,0,1-1.78-.88l-.26-.19-1.27-.57-.36-.14m-.89-.12h0m.14-.08h.06a3.89,3.89,0,0,1,.69.2,3.89,3.89,0,0,0-.69-.2h-.06m0,0c-.08,0-.13,0-.14.08s.06-.08.14-.08h0m5.28-.35a4.32,4.32,0,0,1,.29,1.37h0a4.32,4.32,0,0,0-.29-1.37m-6.3-.11a1.28,1.28,0,0,0-.72.67l0,.06a1.87,1.87,0,0,0-.14.74h0a1.87,1.87,0,0,1,.14-.74l0-.06a1.28,1.28,0,0,1,.72-.67l0,0,.84.53h0l-.84-.53,0,0"/><path class="g" d="M43.07,76.47h0c0,.21-.41.09-.18.49a7.39,7.39,0,0,0,1,1.3c1.26,1.29,2.48,2.91,3.48,4,2.35,2.51,4.15,4.41,5.59,4.65h0c.25,0,.22-.77.34-1.14.24-1,1.31-.07,1.37-2,0-.15,0-.21.12-.21a.37.37,0,0,1,.2.11c1.88,2.68,3.61,5.08,5.57,7.42a12.92,12.92,0,0,0,3.14,2.55,18.87,18.87,0,0,0,2.89,1.46l.44,0a1.94,1.94,0,0,0,2-1.74A5.17,5.17,0,0,0,69,92a1.37,1.37,0,0,0-.1-.5h-.11a2.44,2.44,0,0,0-1.24.46,2.47,2.47,0,0,1-1.25.46,1.89,1.89,0,0,1-.63-.12,16.45,16.45,0,0,1-3.16-1.81,17.73,17.73,0,0,1-3.11-2.67,42.59,42.59,0,0,1-4-6c-.26-.41-.45-.53-.62-.53a.85.85,0,0,0-.34.11.73.73,0,0,1-.34.12h-.06c-.23-.17-.47-.47-.63-.49h-.05a1.49,1.49,0,0,1-.42-.1,1.48,1.48,0,0,0-.43-.1c-.26,0-.44.2-.39,1A2.63,2.63,0,0,1,51,82a5.08,5.08,0,0,1-2-.49,2.06,2.06,0,0,1-1-.49c-.64-.58-1.35-1.55-2-2.24s-1.17-.68-1.91-1.34c-.36-.26-.77-.78-1-1"/><path d="M113.75,50a6.07,6.07,0,0,1,3.42,4c.45,1.32,1.61,2.41,2.49,3.57a5.31,5.31,0,0,1,1,5.21,46.53,46.53,0,0,1-3,7.25C115.75,74,113.94,78,112,82a110.76,110.76,0,0,1-9.34,15.36c-2.16,3.11-4.49,6.13-6.94,9A18.79,18.79,0,0,1,90.3,111c-1.8,1-3.4,2.27-5.18,3.28-5.57,3.17-11.48,4.71-17.91,3.29-1.88-.41-6-3.38-6.86-5a4.12,4.12,0,0,1-.48-1.67c-.3-5.25.23-10.37,2.57-15.19,1-2.16,2-4.36,3-6.51a1.6,1.6,0,0,0-2.19-.47c-5.35,2.58-11.17,2.7-16.92,3.07a53.38,53.38,0,0,1-13.12-.54A13.14,13.14,0,0,1,30,90.67a5.63,5.63,0,0,1-2.32-2.14c-.95-1.63-1.59-3.44-2.41-5.16-.61-1.29.36-2.32.8-3.2a23.68,23.68,0,0,1,3.6-4.9c1.55-1.75,3.23-3.38,4.94-5,2.31-2.14,4.65-4.24,7.07-6.24A26.07,26.07,0,0,1,46,61.12c3.67-2,7.4-3.82,11.13-5.68,3.46-1.72,6.94-3.43,10.44-5.09a77.81,77.81,0,0,1,13-5.27c2.58-.69,5.06-1.81,7.59-2.72a14.11,14.11,0,0,1,2.12-.57c4.68-.83,9.34-1.74,14-2.39a14.61,14.61,0,0,1,7.32,1,4.45,4.45,0,0,1,1.84,1.49A14.75,14.75,0,0,1,115.14,45C115.86,46.77,115.47,48.42,113.75,50ZM61.68,107.29a22.49,22.49,0,0,0,.23,3.49c.52,2.27,2.89,3.85,5.68,4a18.58,18.58,0,0,0,9.7-2.33c2.67-1.34,5.2-2.95,7.77-4.47A50.17,50.17,0,0,0,100.6,93a155.32,155.32,0,0,0,8.12-13.3,52.78,52.78,0,0,0,6.59-20.31,8.63,8.63,0,0,0-.52-4.68c-1.3-2.42-3.13-4.58-6.41-4.32a11.48,11.48,0,0,1-1.53-.15c-3.79-.24-7.47.16-10.79,2.19a55.17,55.17,0,0,0-15,13.68c-2.76,3.58-5.18,7.43-7.71,11.18a26.18,26.18,0,0,0-2,3.41c-.65,1.38-1.07,2.87-1.73,4.25-1.66,3.5-3.41,7-5.11,10.44A27.27,27.27,0,0,0,61.68,107.29Zm51.75-61.16c-.55-.6-1.54-1.29-1.44-1.67.53-2-.86-2.26-2.07-2.65A14.59,14.59,0,0,0,103,41.2c-4.54.77-9.1,1.5-13.58,2.54A95.84,95.84,0,0,0,71.9,50.06c-4.53,2-9,4.27-13.47,6.37A102.08,102.08,0,0,0,43,65.13a15.2,15.2,0,0,0-1.86,1.54c-3.44,3.27-6.82,6.61-10.32,9.83a9.43,9.43,0,0,0-2.35,3.64c-.53,1.37-.23,2.08,1.19,2.52a18.35,18.35,0,0,0,5.11,1.17c4.6,0,9.21-.22,13.8-.53,2.33-.16,4.62-.8,6.94-1.08a63.21,63.21,0,0,0,13.25-3,3.75,3.75,0,0,0,1.79-1.08c1.21-1.65,2.21-3.45,3.38-5.13,2.27-3.22,4.47-6.51,7-9.57a56.11,56.11,0,0,1,12.4-11.72,19.13,19.13,0,0,1,8.24-3.35,25.47,25.47,0,0,1,11.47.79ZM45.29,90c-.77-1.56-1.28-2.73-1.91-3.83a1.42,1.42,0,0,0-1.07-.56c-2.07.05-4.14.19-6.47.31a27.69,27.69,0,0,0,1.24,3.19,1.91,1.91,0,0,0,1.35.85C40.52,90.07,42.62,90,45.29,90Zm69-16.81c1.29-2.87,2.57-5.41,3.59-8.06a18.39,18.39,0,0,0,.9-4.46,2.14,2.14,0,0,0-1.13-2.24C116.51,63.32,115.42,68.1,114.26,73.21Zm-57,15.56c-.77-1.76-1.41-3.25-2.1-4.83l-3.56.61c.7,1.77,1.31,3.28,1.93,4.84Zm-10-3.51c.62,1.7,1.14,3.09,1.67,4.53l3.46-.3-2.35-4.65ZM86.5,109.34c-2.43,1.83-5.19,3.1-7.37,5.23,3.37-.43,5.92-2.47,8.79-4.27ZM64.33,87c-.92-1.51-.46-3.39-2.61-4.42.32,1.82.56,3.26.82,4.78ZM92,107.17c-1.63-.83-2-.67-3.76,1.32C89.77,109.44,90,109.35,92,107.17ZM35.88,89.39c-1-1.2-.65-3.21-2.49-3.91C33.18,87.84,34,89.28,35.88,89.39Zm23.49-6c-.45,1.53-.25,3.77.46,4.4.24.21.78.07,1.46.11C60.61,86.35,60,85,59.37,83.43Zm-13.74,2-.56.14a11.15,11.15,0,0,0,1.57,4.31c.09.12.52,0,1.12-.08Zm51.55,16c1.71-1.35,2.51-3.33,3.62-5.1C98.74,98,97.35,99.91,97.18,101.42ZM66.29,83.92c-.12.83,0,1.68-.3,1.84-1.4.77-.4,1.48-.17,2.44C66.76,86.78,67.25,85.54,66.29,83.92Zm-34.23,4.9.48-.15c-.71-1.27-.38-3-2.26-3.76Zm26.21-.32.49-.17c-.26-.73-.52-1.46-.77-2.2s-.46-1.33-.68-2l-.42.16Zm35.57,15.2-.15.65,1.21.09L95,104Z"/><path d="M89.21,97.76v2.95l-2.07-1.58-2.8,1.65c-1.45-.19-1.27-1.75-2-2.61,1.27-1.18,1.27-1.18,2.47.23Z"/><path d="M94.51,94.52l-2,.16A2,2,0,0,0,92,97.49a3.22,3.22,0,0,1,.41,1.42c0,.35-.39.7-.6,1-.36-.28-.93-.5-1-.85-.26-.94-.18-2-.49-2.9a1.8,1.8,0,0,1,.91-2.2,5.89,5.89,0,0,1,2.2-.77C94.07,93.11,94.52,93.48,94.51,94.52Z"/><path d="M83.9,91.66c-.18,1.51-1.18,2-1.94,2.78.86,1.28-.08,2.24-.77,3.36-1.88-.63-.25-2.4-1.19-3.23C80.67,93,81.94,92.17,83.9,91.66Z"/><path d="M75.81,104.4c-.9,0-2,.23-1.84-1.31l5.12-.65.59,1.1-2.3.8c0,.69.07,1.3.1,1.82C76.66,106.78,76,106,75.81,104.4Z"/><path d="M81.69,101.44l-2.19-.37-1.16-2.52c.51-.13,1.2-.45,1.31-.32a3.39,3.39,0,0,0,3.16,1.13,9.22,9.22,0,0,1-.45,1.1C82.19,100.77,82,101,81.69,101.44Z"/><path d="M107,60.78c-2.15,0-2.17-.05-1.68-1.68a9.84,9.84,0,0,1,.87-2.31c.16-.27.86-.37,1.25-.29.18,0,.33.7.32,1.07a1.34,1.34,0,0,1-.38,1C106.57,59.12,106.73,59.86,107,60.78Z"/><path d="M88.66,102.19,85,104.29l-1.27-2.43c1.59-.2,2.94-.4,4.3-.5C88.23,101.35,88.44,101.88,88.66,102.19Z"/><path d="M80.09,108.56l-.52,1.79c-1.18.34-1.43-1.57-2.58-.74l-.62-1c.48-.26,1-.72,1.43-.72A9.49,9.49,0,0,1,80.09,108.56Z"/><path d="M89.32,65.4c0,.58-.09,1.16-.14,1.75A12.92,12.92,0,0,1,86.71,67c-.36-.09-.59-.64-.87-1,.33-.19.64-.52,1-.56A22.36,22.36,0,0,1,89.32,65.4Z"/><path d="M75.17,98.55V95.17l2.32,1.4c-.69,1-.82,2.3-2.38,1.93Z"/><path d="M105.58,55.39c-.93.75-1.58.8-2.18,0-.25-.35-.46-.73-.74-1.05s-.61-.95-.06-1.3a1.26,1.26,0,0,1,1.13.26A25.77,25.77,0,0,1,105.58,55.39Z"/><path d="M74.72,108.53c-1.39-.15-2.17-.71-2-1.49a1.32,1.32,0,0,1,1.9-1.14C74.63,106.76,74.67,107.56,74.72,108.53Z"/><path d="M75.11,98.5c1.16.73.71,1.73.34,2.63-.09.22-.67.23-1,.34a10.84,10.84,0,0,1-.51-2.19c0-.77.66-.81,1.27-.73Z"/><path d="M91.35,58.21c1.12.34,1.12.34,1.23,2.87C91,61.33,90.7,60.69,91.35,58.21Z"/><path d="M78.49,104.21l2.62.17c-.47,1.1-.57,2.19-1.62,2.05-.53-.08-.93-1-1.38-1.61Z"/><path d="M65.05,104.81c.47-.9,1-1.06,1.55-.62a4.42,4.42,0,0,1,1.16,1.49c.2.44-.56.9-1,.58A18.49,18.49,0,0,1,65.05,104.81Z"/><path d="M103.18,77.29c-.56-.46-.16-1,.38-1.59a1.73,1.73,0,0,1,2.44-.46Z"/><path d="M84.29,106a8.77,8.77,0,0,1-1.94-.37c-.27-.11-.34-.67-.51-1,.48-.2,1.07-.67,1.42-.53.53.2.88.83,1.31,1.28Z"/><path d="M90.59,89.93c.87-.05,1.25.4,1,1a4.49,4.49,0,0,1-1.1,1.74c-.32.32-1-.34-.77-.9S90.33,90.53,90.59,89.93Z"/><path d="M93.07,57.11a10.15,10.15,0,0,1,1.86-.91c.63-.14,1.32.14,1.19.85-.06.36-.81.74-1.31.83S94,57.55,93.07,57.11Z"/><path d="M67.34,99.86c1.41,1.07,1.41,1.07.47,2.76C66.46,101.49,66.45,101.44,67.34,99.86Z"/><path d="M99,53.73c.9-.08,1.51-.27,1.61-.12.53.81,1.66,1.38,1.26,3Z"/><path d="M70.11,108.23c-1.87.65-1.87.65-2.53-.6C69.08,106.9,69.08,106.9,70.11,108.23Z"/><path d="M71.34,111.39c-.43-1.09.7-1.5,1.1-2.13s1.11,0,1.51.63L72.29,112l-1-.63Z"/><path d="M101.22,72c1.29-.46,1.7.5,2.25,1.27C102.25,74.19,101.9,74,101.22,72Z"/><path d="M68.58,105.26c1.47-.92,2.37-.87,2.85-.17.31.44,0,1.19-.56,1.09A13.85,13.85,0,0,1,68.58,105.26Z"/><path d="M73.62,101.6l-1.18,2.08L71,102.39,73,101.07Z"/><path d="M100.62,56.6a6.66,6.66,0,0,1-1.84.59c-.22,0-.43-.61-.64-.94a3.44,3.44,0,0,1,1.22-.54C99.66,55.7,100,56.12,100.62,56.6Z"/><path d="M100.91,57.24c2,.58,2.09.68,1.18,2.27A1.74,1.74,0,0,1,100.91,57.24Z"/><path d="M99,74.66c1.34-.28,2,0,2.36,1.25C100.12,76.38,99.41,76.12,99,74.66Z"/><path d="M106.13,53.27c.76-.6,1.41-.65,1.85.13.14.24-.07,1-.28,1.06C106.69,54.8,106.38,54.1,106.13,53.27Z"/><path d="M109.18,54.38c.33-.11.72-.38,1-.29a6.73,6.73,0,0,1,1.32.85c-.24.3-.54.88-.7.84a5.23,5.23,0,0,1-1.31-.71Z"/><path d="M100.26,60.81a2.76,2.76,0,0,1,.65.07c.57.19,1.21.47.87,1.19a1.39,1.39,0,0,1-1.18.54c-.68-.09-.91-.66-.66-1.33a2.66,2.66,0,0,1,.38-.52Z"/><path d="M86.68,96.25c-2.2-.12-2.22-.15-1.33-1.86Z"/><path d="M67.23,110c1.13.43,1.69.85,1.32,1.95C67.31,111.89,66.94,111.32,67.23,110Z"/><path d="M102.77,81.62,101,83c-.19-.27-.6-.6-.55-.8C100.68,81.35,101.27,81,102.77,81.62Z"/><path d="M100.32,60.76l-.2-.06c-.64-.16-1.44-.33-1.2-1.18.31-1.08,1.12-.43,2-.38l-.64,1.67Z"/><path d="M96.6,71.72c1.18-.28,1.64.16,1.68,1,0,.14-.26.42-.41.43C96.87,73.28,96.7,72.61,96.6,71.72Z"/><path d="M81.23,102.34c.88-.37,1.51-1,2.35-.36C82.67,103.8,82.53,103.83,81.23,102.34Z"/><path d="M97.86,55.45c-1.22.39-1.58-.26-1.71-1.1,0-.17.29-.51.51-.57C97.25,53.6,97.56,54.05,97.86,55.45Z"/><path d="M92.49,62.85c.45-.38.83-.8.91-.75a8.88,8.88,0,0,1,1.18,1c-.31.22-.67.65-.93.6S93,63.24,92.49,62.85Z"/><path d="M95.5,78.89c-.92.39-1.63.33-2.08-.68C94.82,77.5,94.82,77.5,95.5,78.89Z"/><path d="M93.32,60.79c.62-.38,1-.77,1.22-.72a1.17,1.17,0,0,1,.83.74c0,.23-.45.82-.66.79C94.32,61.56,94,61.2,93.32,60.79Z"/><path d="M68.79,101.45c.54-.33.94-.7,1.07-.62a5.29,5.29,0,0,1,1,1c-.27.2-.59.6-.78.54A5.42,5.42,0,0,1,68.79,101.45Z"/><path d="M79.93,82.31a1.63,1.63,0,0,1,2.44.92C81.19,83.82,80.53,83.52,79.93,82.31Z"/><path d="M75.19,109.88a9.63,9.63,0,0,1,.72,1.66c0,.1-.69.54-.74.49a3.16,3.16,0,0,1-.8-1.13C74.32,110.75,74.73,110.43,75.19,109.88Z"/><path d="M71.3,111.34c0,.75.07,1.59-1.08,1.1a1.1,1.1,0,0,1-.33-1c.39-.69,1-.3,1.45,0Z"/><path d="M93.28,81.14c-.43.88-.78,1.42-1.59,1a.82.82,0,0,1-.25-.75C91.86,80.6,92.47,80.82,93.28,81.14Z"/><path d="M66.46,110.33c-1.59.27-1.59.27-1.52-1.59C65.58,109.42,66,109.88,66.46,110.33Z"/><path d="M86.83,80l1.68.64C87.26,81.65,87.26,81.65,86.83,80Z"/><path d="M89,97.47c-1.14-.67-1.78-1.12-1.26-2.24C89,95.4,89,96.19,89,97.47Z"/><path d="M96.28,76.16l-.75-1.45.9-.39c.21.5.42,1,.64,1.51Z"/><path d="M107.21,70.11l-1.76-.6c.1-.25.14-.64.31-.72.83-.39,1.33,0,1.65.7Z"/><path d="M85.29,84c-1.23.31-1.74,0-2-1C84.4,82.35,84.79,83,85.29,84Z"/><path d="M98.08,76.7c.93-.23,1.41.09,1.48.88,0,.18-.34.57-.51.56C98.25,78.11,97.93,77.64,98.08,76.7Z"/><path d="M97.38,79c.68-.53,1.22-.39,1.55.34a.76.76,0,0,1-.34.66C97.79,80.25,97.39,79.88,97.38,79Z"/><path d="M87.79,62.79c1.23-.53,1.71-.31,1.78.43,0,.23-.37.5-.57.76Z"/><path d="M97.91,59.62c-.37.33-.69.73-.81.68a1.11,1.11,0,0,1-.64-.72c0-.23.31-.52.48-.79Z"/><path d="M89.82,76.8c.44-.25.79-.59,1-.52s.53.52.79.79c-.24.21-.56.64-.71.59C90.52,77.55,90.26,77.19,89.82,76.8Z"/><path d="M87.67,91.6c.84-.14,1.22.17,1.22.89a.58.58,0,0,1-.4.4C87.67,93,87.52,92.46,87.67,91.6Z"/><path d="M86.14,91.93a4.07,4.07,0,0,1,.46,1.16c0,.23-.32.5-.5.75a5.26,5.26,0,0,1-.8-.84c-.07-.13.17-.45.27-.68Z"/><path d="M97,63.06a5.5,5.5,0,0,1,.68,1.1c0,.14-.41.57-.47.54a2.15,2.15,0,0,1-.87-.7C96.32,63.9,96.71,63.51,97,63.06Z"/><path d="M93.63,85.05,92.24,83.9c1.25-.31,1.58.08,1.74.74Z"/><path d="M59,65.19c.11-1.73.29-1.79,2.25-.79,0-.05.13-.1.13-.15,0-.64,0-1.28,0-2a5.66,5.66,0,0,0-.6,0c-.65.09-1.09-.19-.9-.82a1.45,1.45,0,0,1,1-.85,11.92,11.92,0,0,1,2.33.16C61.8,62.7,63.08,64.18,64,66a22,22,0,0,1,2.48-.87c.38-.09.83.18,1.25.29-.24.37-.56,1.09-.73,1.06-1.12-.2-1.54.6-2.07,1.39-1.67-.86-3.66-.85-4.92-2.45-.18-.23-.67-.22-1-.32Z"/><path d="M45.08,75.24a11.9,11.9,0,0,0,.39,1.19c.15.32.35.6.63,1.08l-1.92,1.77c-.15-.77-.21-1.13-.29-1.48a1.53,1.53,0,0,0-.24-.64c-.31-.32-.68-.58-1-.87.46-.27.92-.56,1.4-.8A5.21,5.21,0,0,1,45.08,75.24Z"/><path d="M74.58,60.93c-1.38,0-2.91-.48-3.77,1.14-.89-.65-1.2-.9-.22-1.81s2.18-.82,3.33-.6c.32.06.56.54.83.83Z"/><path d="M85.24,57.55l-3.12.69-1.85-2.36c.61-.09,1.18-.35,1.37-.18a3.12,3.12,0,0,0,2.9,1C84.65,56.7,84.86,57.1,85.24,57.55Z"/><path d="M109.33,45.61c-1.33.85-1.85-.73-2.8-.92-.25,0-.46-1-.44-1.55,0-.27.52-.64.86-.74.19,0,.77.44.74.55-.38,1.27.57,1.58,1.36,2C109.19,45.06,109.22,45.34,109.33,45.61Z"/><path d="M58.13,77.14c.74-1.78,2.38-.45,3.38-1.69a6.38,6.38,0,0,1,.25,1.36.65.65,0,0,1-.4.45c-.92.18-1.85.31-2.78.4C58.46,77.68,58.31,77.36,58.13,77.14Z"/><path d="M42.88,79.84c.25.42.51.83.76,1.23-1.79,1.25-2,1.26-3.11.12l2.38-1.31Z"/><path d="M41.39,79.54c-3,.28-3,.28-3.23-1C39.3,78.36,40.39,78.17,41.39,79.54Z"/><path d="M47.74,74.11c1.19.3,2-1.71,3.37-.17C48.52,75.63,48.52,75.63,47.74,74.11Z"/><path d="M85.32,53.11l-.4,1.31c-.37-.13-.87-.17-1.07-.43a6.05,6.05,0,0,1-.61-1.5c.35-.09.77-.34,1-.22a4.35,4.35,0,0,1,1.08.9Z"/><path d="M42.77,77.66c-1.81.69-2.29.53-3.22-.89C40.81,76.14,41.67,76.77,42.77,77.66Z"/><path d="M69.25,55.15a9.45,9.45,0,0,1-1.94.18c-.21,0-.52-.54-.5-.81a1,1,0,0,1,.72-.6C68.15,53.89,68.86,53.88,69.25,55.15Z"/><path d="M39.8,74.73c1-1.57,2.2-.91,3.3-1.16C42.75,74.93,42.57,75,39.8,74.73Z"/><path d="M107.73,46.18c-.81.5-1.2.9-1.66,1-.26,0-.79-.4-.87-.7a.87.87,0,0,1,1-1.11C106.55,45.36,106.92,45.73,107.73,46.18Z"/><path d="M33,80.53c.74-.37,1.46-.61,2.09.18-.92,1.48-1.07,1.46-2-.23Z"/><path d="M82.69,53.41c-.81.53-1.48.72-1.9-.17a1,1,0,0,1,.29-.91C82,51.83,82.32,52.55,82.69,53.41Z"/><path d="M85.36,53.17c0-.69-.84-1.69.75-2l.67,2.23c-.72.69-1.07.14-1.46-.28Z"/><path d="M55.09,77.85c-.59,1.46-1.23,1.74-2.35,1.07C53,77.67,53.92,77.92,55.09,77.85Z"/><path d="M57.78,64.44c-.56.43-.9.85-1.29.92s-.62-.4-.93-.62c.32-.32.59-.78,1-.9S57.19,64.14,57.78,64.44Z"/><path d="M37.08,73.56a11.14,11.14,0,0,1,1.52-.86c.1,0,.54.48.52.5a5.14,5.14,0,0,1-1,1.1C38,74.36,37.61,74,37.08,73.56Z"/><path d="M57.32,67.11c.1.34.16.42.14.48-.24.71-.56,1.37-1.48,1.26-.15,0-.41-.33-.39-.46C55.74,67.46,56.35,67.1,57.32,67.11Z"/><path d="M55.92,75.4a1.31,1.31,0,0,1,2.15-.13C57.32,76.38,56.72,76.38,55.92,75.4Z"/><path d="M71.06,64.49c.29.46.63.76.58,1s-.41.64-.63,1c-.25-.27-.71-.54-.7-.81S70.7,65,71.06,64.49Z"/><path d="M36.61,76.28c.57-.29.94-.61,1.11-.53a4.16,4.16,0,0,1,.9.88c-.25.21-.58.63-.74.58A5.42,5.42,0,0,1,36.61,76.28Z"/><path d="M102,45.57c.61-.29,1-.61,1.3-.59s.66.4,1,.61c-.36.26-.7.67-1.09.73S102.59,46,102,45.57Z"/><path d="M109.93,41.93a6.83,6.83,0,0,1,.78,1.27c0,.09-.61.59-.72.53a2.59,2.59,0,0,1-.87-.93C109.07,42.72,109.52,42.36,109.93,41.93Z"/><path d="M68.14,59.94c-.44.32-.82.74-.94.67a5,5,0,0,1-1-.92c.27-.19.58-.57.82-.53S67.67,59.59,68.14,59.94Z"/><path d="M65.67,59.4c-.11,1.06-.62,1.35-1.34,1.23A.79.79,0,0,1,63.9,60C64.16,59.05,64.86,59.18,65.67,59.4Z"/><path d="M47.84,71c.34.44.63.65.63.86,0,.79-.62.91-1.23.86-.21,0-.4-.33-.6-.5Z"/><path d="M62.52,56.74c.35.39.7.64.81,1,.05.14-.53.69-.6.66a7.58,7.58,0,0,1-1-.86Z"/><path d="M50.07,76.92c-.47.76-1,.89-1.6.35a.76.76,0,0,1,0-.73C49.15,76,49.63,76.33,50.07,76.92Z"/><path d="M110,47.32c-.55.71-1.13.69-1.62.1a.91.91,0,0,1,.2-.85C109.28,46.21,109.7,46.62,110,47.32Z"/><path d="M32.73,76.92c.76-.47,1.35-.62,1.74.2a.63.63,0,0,1-.2.56C33.5,78.2,33.09,77.8,32.73,76.92Z"/><path d="M69.74,58.1c-.55.34-.91.74-1.18.69s-.53-.53-.79-.81c.26-.21.53-.61.77-.59S69.19,57.75,69.74,58.1Z"/><path d="M53.47,76.1c.5-.33.8-.65,1.14-.69s.46.4.69.62c-.28.26-.52.63-.85.74S53.94,76.43,53.47,76.1Z"/><path d="M67.83,62.65c.52-.67,1-.93,1.55-.39a1,1,0,0,1,0,1C68.7,63.77,68.19,63.46,67.83,62.65Z"/><path d="M42.91,79.88c.74-.72,1.48-1.2,2.32.06-.81.81-1.58.17-2.34-.09Z"/><path d="M48.1,79.8c-.47.27-.85.63-1,.55s-.5-.55-.75-.84c.29-.15.59-.44.86-.41S47.7,79.47,48.1,79.8Z"/><path d="M40.07,71.05c.39.34.76.56.91.87.07.15-.42.75-.48.72a6.63,6.63,0,0,1-1.13-.7Z"/><path d="M39.52,81.59c-.45.34-.8.76-1,.69a4,4,0,0,1-1-.82c.27-.19.55-.55.81-.53S39,81.28,39.52,81.59Z"/><path d="M56.57,78.54c.34.45.74.75.75,1.06s-.52.45-.8.68a3.27,3.27,0,0,1-.65-.93C55.83,79.19,56.24,78.91,56.57,78.54Z"/><path d="M58.46,59c.27.43.62.76.55.95a1,1,0,0,1-.76.54c-.26,0-.52-.34-.77-.53Z"/><path d="M59,65.14c.34.59.35,1.17-.42,1.25-.27,0-.91-.64-.85-.87.17-.77.77-.62,1.32-.33Z"/><path d="M79.53,57.21a4.91,4.91,0,0,1,.73,1.15c0,.12-.55.59-.64.54a1.84,1.84,0,0,1-.76-.83C78.8,57.92,79.21,57.6,79.53,57.21Z"/><path d="M61.67,68.08a4.79,4.79,0,0,1,.46,1c0,.11-.5.48-.59.43a1.72,1.72,0,0,1-.79-.81c-.08-.27.19-.65.31-1Z"/><path d="M67.21,61.9c-.5.31-.81.64-1.13.66s-.47-.4-.7-.63c.28-.25.54-.61.87-.69S66.75,61.56,67.21,61.9Z"/><path d="M55.3,61.62c.47-.4.72-.74,1.06-.85.15-.05.45.36.69.57-.26.27-.47.65-.78.79S55.75,61.87,55.3,61.62Z"/><path d="M53.73,72c.3.36.71.63.68.86s-.51.67-.68.62-.56-.46-.83-.72Z"/><path d="M51.74,76.09c.27.46.58.76.55,1s-.44.42-.68.62c-.21-.25-.56-.5-.57-.77S51.4,76.49,51.74,76.09Z"/><path d="M46.17,73.38c-.51.26-.89.59-1,.51a3.26,3.26,0,0,1-.69-.89c.2-.14.47-.45.6-.4A5.48,5.48,0,0,1,46.17,73.38Z"/><path d="M64.06,76.05c-.47.24-.77.54-1,.5s-.41-.45-.61-.69c.25-.19.5-.54.75-.53S63.66,75.7,64.06,76.05Z"/><path d="M72.78,55.63l.64,1.2c-.29.15-.62.46-.86.4a.93.93,0,0,1-.53-.75C72,56.25,72.41,56,72.78,55.63Z"/><path d="M36.76,78.84c-.43.3-.71.64-1,.63s-.42-.42-.63-.65a2.47,2.47,0,0,1,.8-.48C36.14,78.31,36.38,78.59,36.76,78.84Z"/><path d="M49.77,80.61a2.57,2.57,0,0,1,.82-.2,2.62,2.62,0,0,1,.74.34C50.5,81.32,50.5,81.32,49.77,80.61Z"/><path d="M33.06,80.48c-.4.31-.85.75-1.25.1a1,1,0,0,1,.18-.89c.7-.25,1.12,0,1,.84Z"/><path d="M64.94,75.47a8.22,8.22,0,0,1,.64,1.23c0,.06-.47.43-.62.37s-.66-.39-.68-.64S64.62,75.91,64.94,75.47Z"/><path d="M64.53,63.35l.78.9c-.2.16-.41.46-.59.45a.81.81,0,0,1-.59-.49C64.08,64,64.32,63.77,64.53,63.35Z"/><path d="M88.07,51.24a5.32,5.32,0,0,1,.59.78s-.34.39-.36.37a3.24,3.24,0,0,1-.67-.61A3.32,3.32,0,0,1,88.07,51.24Z"/></svg>