<svg xmlns="http://www.w3.org/2000/svg" viewBox="0 0 150 150"><defs><style>.a{fill:#fff9d6;}.b{fill:#fff3a9;}.c{fill:#fff2a6;}.d{fill:#fff4b0;}.e{fill:#fff7c4;}.f{fill:#fffce6;}.g{fill:#fff6c0;}.h{fill:#fffdf5;}</style></defs><title>icon</title><path class="a" d="M89,96.78c0,.09,0,.18.08.28a6.62,6.62,0,0,0,.74.43L89,96.78M64.41,89.62l.14.42a.18.18,0,0,0,.1-.09,3.58,3.58,0,0,1-.24-.33m17.68-6a37.52,37.52,0,0,0,3.23,6.59c-1-2.26-2.07-4.46-3.23-6.59M75.38,80c.82,1.31,1.8,2.83,2.94,4.62,0,0,.21.3.58.8-.08-.12-.15-.24-.23-.35-1.11-1.76-2.25-3.49-3.29-5.07m-4.07-7.64c-.16,0-.24.11-.15.44a3.54,3.54,0,0,0,.17.47,2.87,2.87,0,0,0,0-.9h0m6-2.38c.43.25,1.55.91,2.7,1.5,0-.12.07-.23.11-.35h.52l.4,0a8.49,8.49,0,0,1,3.3,1l2.54,1.09,2.85,1.26c2,.9,4.22,1.92,6.72,3.13a6.12,6.12,0,0,1,1.15.73,5.76,5.76,0,0,0-1.24-.8C91.32,75,87.39,73.33,84.2,72a8.43,8.43,0,0,0-3.3-1h-.4l-.4,0H80a8.52,8.52,0,0,1-2.7-1.08M58.13,58.49l.34.45-.34-.45m-.5-.78a.87.87,0,0,1,.17.28s.05,0,.06,0h0a1.64,1.64,0,0,0-.18-.27h0l0-.06m.36-.26a19.62,19.62,0,0,0,1.85,1.48c-.1-.06-.26-.18-.48-.35-.48-.38-.94-.77-1.37-1.13m-2.28-2h0M55.23,55l2,2.28v0c-1.11-1.25-1.7-1.92-2-2.26M55,54.72l.05.06h0l0,0h0l0,0m0,0,.76.75,0,0h0l.11.1L55,54.69m0,0,0,0,0,0h0l0,0h0l.17.19c.32.34.91,1,2,2.27h0l0,0,0,.07c.15.18.24.31.31.4l0,.06h0a1.64,1.64,0,0,1,.18.27h0s0,0-.06,0a2.54,2.54,0,0,0,.33.5l.35.46.61.79c.63.81,1.25,1.65,1.86,2.48l.19.25L61,62.22A36.54,36.54,0,0,1,65,68.77c.18.51.17.77,0,.77a1,1,0,0,1-.5-.29c-.18-.08-2.87-3.82-3.7-5.09A5.66,5.66,0,0,0,60,63a15.89,15.89,0,0,0,1.09,2.3,47.1,47.1,0,0,1,3.41,7.9s0,.06,0,.06-.21-.19-.37-.38-.31-.39-.38-.39h0c0,.75,1.16,3.83,1.45,5.43a14,14,0,0,0,.57,5,.08.08,0,0,0,0,0h0c-.17,0-1.16-2.44-1.51-2.87l-.07,0c-.24,0,0,1.4.35,2.89a40,40,0,0,1,.87,5.79c0,.76,0,1.28-.23,1.43.35.75.83,2.05,1.18,2.74s.53.71.71.71a.54.54,0,0,0,.21,0,.85.85,0,0,1,.22,0,.35.35,0,0,1,.17,0,12.2,12.2,0,0,1,1,1.75c.24.49.39.66.5.66s.2-.59.27-1c0-.22.06-.31.15-.31s.38.23.61.46.48.46.64.46a.12.12,0,0,0,.09,0c.42-.22-.14-2.57.26-2.57.08,0,.18.08.33.26-.46-.59-.1-.85.34-.85s.87.21.88.58a11.9,11.9,0,0,1,.9,1.55c.21.47.58,1.21.65,1.44.51,1.83,1.87,4.74,2.83,7.14.15.25,1.52.09,3,1.81,1.19,1.5,2.49,3.19,3.15,3.24,0-.22-.5-1.4-.46-1.62a31,31,0,0,0-.65-5.57c-.41-2.54-.94-5-.66-5l0,0A14.28,14.28,0,0,1,84,99,70.73,70.73,0,0,0,89,105.62c.48.66.94,1.55,1.42,2.22,1.36,1.76,3.06,3.72,3.63,3.9a2.88,2.88,0,0,0,1.43.53c.46,0,.73-.28.74-.81l1-.63a19.55,19.55,0,0,0-1-2.94c-.63-1.67-1.33-2.7-1.06-2.7l.08,0s-.62-1-1.44-2.29A44,44,0,0,1,91.53,99l-1.06-.93a29.14,29.14,0,0,1,1.9,4.3c.36,1.15.42,2.07-.17,2.07-.43,0-1.23-.51-2.52-1.82A36.37,36.37,0,0,1,85,98.82a32.52,32.52,0,0,1-6.56-8.48l-1.82-3.62c-1.09-2.16-2.6-5-4.21-7.93s-3.28-5.73-4.65-8a28.08,28.08,0,0,1-2.4-4.28s0,0-.27-.43-.9-1.2-2.18-2.73a14,14,0,0,1-.83-1.2c-.05-.1-.07-.16,0-.16a10.55,10.55,0,0,1,2.06,1.71s1.36,1.16,2.68,2.09A8.21,8.21,0,0,0,69,67.1c.08,0,.09-.07,0-.22,0,0,.85.64,1.54,1.08a2.76,2.76,0,0,0,.81.42h0l-.31-.44c.26.27.34.4.31.44l.38.56c-.25-.65-.34-1.11,0-1.11a2,2,0,0,1,.93.45,12.46,12.46,0,0,1,1.29.31,17.13,17.13,0,0,1,2.7,1c-2.38-1.31-5.65-3.39-8.78-5.56-4-2.73-10-7.19-10.08-7.19h0A27,27,0,0,1,60,59h0l-.12-.17h0l-.08-.09c-.38-.42-1.2-1.12-1.2-1.12h0s.82.7,1.2,1.12l.08.09h0L60,59h0s0,0,0,0a.54.54,0,0,1-.16-.09A17.93,17.93,0,0,1,58,57.45c-.89-.77-1.64-1.45-2.08-1.85l-.08-.09-.12-.1,0,0L55,54.69l0,0"/><path class="b" d="M97.55,78.24c.37.31.61.59.62.72,0,.37-.34.48-.9.48-.32,0-.71,0-1.09-.08s-.76-.07-1.08-.07a2.41,2.41,0,0,0-.4,0c.1.19-.16.29.19.61a1.83,1.83,0,0,1,.53.72c-.34.8-1.15,1.16-2.47,1.16h-.14c-.81.46-.64,1.33-1.48,1.75-.83.19-.48,1.24-1.44,1.24a2.5,2.5,0,0,1-.66-.12,5.5,5.5,0,0,0-.63-.06c-1.22,0-1,.95,0,3.6a29.89,29.89,0,0,1,.86,3.46,19.31,19.31,0,0,0,1.26,4.17c1,1.68.11,1.55.8,3.05a1,1,0,0,1,0,.1h0c-.69-1.5.17-1.37-.79-3a19.31,19.31,0,0,1-1.26-4.17,26.26,26.26,0,0,0-.86-3.46c-1-2.66-1.18-3.6.05-3.6a5.27,5.27,0,0,1,.63,0,2.44,2.44,0,0,0,.66.12c1,0,.61-1,1.44-1.24.84-.42.68-1.3,1.48-1.76H93c1.32,0,2.14-.36,2.48-1.17A2,2,0,0,0,95,80c-.36-.32-.1-.42-.19-.61a2.54,2.54,0,0,1,.41,0c.31,0,.69,0,1.07.07s.77.07,1.09.07c.56,0,1-.1.9-.47,0-.14-.28-.46-.71-.8"/><path class="c" d="M81,71.06l-.4,0h-.52c0,.12-.08.23-.11.35l.21.11a9.53,9.53,0,0,0,2.68,1.08c.15,0,.21-.06.16-.19s1.83.58,3.74,1.25,4.11,1.56,4.37,2.46c0,0,.3.39.62.86a6.19,6.19,0,0,1,.76,1.32s-.34.2-.88.48a12.64,12.64,0,0,1-2.09.88,8.76,8.76,0,0,1-2.75.51A3.22,3.22,0,0,1,85,79.78a6.43,6.43,0,0,0-.82,0l-.53,0a2,2,0,0,0-1.8,1,4.09,4.09,0,0,0,.21,2.86c1.16,2.13,2.25,4.33,3.23,6.59.86,1.47,1.9,3.16,3.14,5.09,0,0,.25.64.51,1.45l.82.71a3.45,3.45,0,0,0,.46.19l.22.39,1.06.93a1,1,0,0,0,0-.1c-.69-1.5.16-1.37-.8-3.05a19.31,19.31,0,0,1-1.26-4.17,29.89,29.89,0,0,0-.86-3.46c-1-2.65-1.19-3.6,0-3.6a5.5,5.5,0,0,1,.63.06,2.5,2.5,0,0,0,.66.12c1,0,.61-1,1.44-1.24.84-.42.67-1.29,1.48-1.75H93c1.32,0,2.13-.36,2.47-1.16a1.83,1.83,0,0,0-.53-.72c-.35-.32-.09-.42-.19-.61a2.41,2.41,0,0,1,.4,0c.32,0,.7,0,1.08.07s.77.08,1.09.08c.56,0,1-.11.9-.48,0-.13-.25-.41-.62-.72a6.12,6.12,0,0,0-1.15-.73c-2.5-1.21-4.72-2.23-6.72-3.13l-2.85-1.26L84.29,72a8.49,8.49,0,0,0-3.3-1"/><path class="d" d="M71.75,67.82c-.32,0-.23.46,0,1.11a17.63,17.63,0,0,1,1.38,2.49c.49,1.1.68,2.06.19,2.06-.23,0-.62-.23-1.21-.78a2.32,2.32,0,0,0-.78-.37,2.87,2.87,0,0,1,0,.9,76.6,76.6,0,0,0,4,6.73c1,1.58,2.18,3.31,3.29,5.07.08.11.15.23.23.35.79,1.08,2.31,3.13,4,5.27a35,35,0,0,0,6.14,6.41c0-.1-.06-.19-.08-.28-.26-.81-.51-1.45-.51-1.45-1.24-1.93-2.28-3.62-3.14-5.09a37.52,37.52,0,0,1-3.23-6.59,4.09,4.09,0,0,1-.21-2.86,2,2,0,0,1,1.8-1l.53,0a6.43,6.43,0,0,1,.82,0,3.22,3.22,0,0,0,1.75.42,8.76,8.76,0,0,0,2.75-.51,12.64,12.64,0,0,0,2.09-.88c.54-.28.88-.48.88-.48A6.19,6.19,0,0,0,91.74,77c-.32-.47-.62-.86-.62-.86-.26-.9-2.39-1.75-4.37-2.46S83,72.44,83,72.44s0,.19-.16.19a9.53,9.53,0,0,1-2.68-1.08L80,71.44c-1.15-.59-2.27-1.25-2.7-1.5l-.18-.11a4,4,0,0,0-.41-.21,17.13,17.13,0,0,0-2.7-1,12.46,12.46,0,0,0-1.29-.31,2,2,0,0,0-.93-.45"/><path class="e" d="M71.08,67.93l.31.44s0-.17-.31-.44m-9-5.91s0,.06,0,.16a14,14,0,0,0,.83,1.2c1.28,1.53,1.89,2.32,2.18,2.73s.27.43.27.43a28.08,28.08,0,0,0,2.4,4.28c1.37,2.24,3,5.09,4.65,8s3.12,5.77,4.21,7.93l1.82,3.62A32.52,32.52,0,0,0,85,98.82a36.37,36.37,0,0,0,4.66,3.8c1.29,1.31,2.09,1.82,2.52,1.82.59,0,.53-.92.17-2.07a29.14,29.14,0,0,0-1.9-4.3l-.22-.39a3.45,3.45,0,0,1-.46-.19,6.62,6.62,0,0,1-.74-.43,35,35,0,0,1-6.14-6.41c-1.7-2.14-3.22-4.19-4-5.27-.37-.5-.58-.8-.58-.8-1.14-1.79-2.12-3.31-2.94-4.62a76.6,76.6,0,0,1-4-6.73,3.54,3.54,0,0,1-.17-.47c-.09-.33,0-.44.15-.44h0a2.32,2.32,0,0,1,.78.37c.59.55,1,.78,1.21.78.49,0,.3-1-.19-2.06a17.63,17.63,0,0,0-1.38-2.49l-.38-.56h0a2.76,2.76,0,0,1-.81-.42c-.69-.44-1.54-1.08-1.54-1.08.1.15.09.22,0,.22a8.21,8.21,0,0,1-2.2-1.28c-1.32-.93-2.68-2.09-2.68-2.09A10.55,10.55,0,0,0,62.08,62"/><path class="f" d="M64.75,89.57s-.07.06-.07.22a.35.35,0,0,1,0,.16.18.18,0,0,1-.1.09c-.06,0-.11.12,0,.51h0c.17.32.43,1.06.66,1.49.49,1,.77,1,1.3,2.16.52,1,1.1,2.29,1.64,3.11a2.15,2.15,0,0,0,.8.78,3.09,3.09,0,0,0,1.83.92,1,1,0,0,0,.57-.16c-.19-.85-.12-1.08.05-1.08a.85.85,0,0,1,.36.16.84.84,0,0,0,.34.16h0c.12,0,.37.4.58.61h.06a.32.32,0,0,0,.2-.1.29.29,0,0,1,.19-.11c.12,0,.3.14.61.66a61.1,61.1,0,0,0,4.62,7,26.32,26.32,0,0,0,3.15,3.17,16.85,16.85,0,0,0,2.94,2.19,1.17,1.17,0,0,0,.56.17,1.09,1.09,0,0,0,.77-.44,1.1,1.1,0,0,1,.76-.43h.14a2.68,2.68,0,0,1,.25.56l.2-.17c-.07-.24-.09-.7-.16-.93.23,0,.53.23,1,.69a12.31,12.31,0,0,0,4.89,3.57A17.42,17.42,0,0,1,97.65,117a4,4,0,0,0,1.55.64.36.36,0,0,0,.37-.22c.1-.51.62-.6.49-1.31a60.46,60.46,0,0,0-2.27-5.64l-.53.33-1,.63c0,.53-.28.81-.74.81a2.88,2.88,0,0,1-1.43-.53c-.57-.18-2.27-2.14-3.63-3.9-.48-.67-.94-1.56-1.42-2.22A70.73,70.73,0,0,1,84,99,14.28,14.28,0,0,0,81.5,96l0,0c-.28,0,.25,2.41.66,5a31,31,0,0,1,.65,5.57c0,.22.51,1.4.46,1.62-.66,0-2-1.74-3.15-3.24-1.46-1.72-2.83-1.56-3-1.81-1-2.4-2.32-5.31-2.83-7.14-.07-.23-.44-1-.65-1.44a11.9,11.9,0,0,0-.9-1.55c0-.37-.48-.58-.88-.58s-.8.26-.34.85c-.15-.18-.25-.26-.33-.26-.4,0,.16,2.35-.26,2.57a.12.12,0,0,1-.09,0c-.16,0-.4-.23-.64-.46s-.47-.46-.61-.46-.15.09-.15.31c-.07.39-.09,1-.27,1s-.26-.17-.5-.66a12.2,12.2,0,0,0-1-1.75.35.35,0,0,0-.17,0,.85.85,0,0,0-.22,0,.54.54,0,0,1-.21,0c-.18,0-.39-.13-.71-.71s-.83-2-1.18-2.74c-.16-.34-.29-.56-.37-.56"/><path class="g" d="M58.89,59.49,61,62.22l.19.25L61,62.22l-2.06-2.73M60,59h0m-.12-.17h0L60,59l-.12-.17h0m-.08-.09.08.09-.08-.09m-2-.69h0m-.16-.16h0a2.06,2.06,0,0,0,.31.44l.12.17.34.45.42.55c-.16-.2-.29-.38-.41-.54l-.35-.46L58,58.32a2.06,2.06,0,0,1-.31-.44m0,0h0l.1.1s.05,0,.06,0h0s0,0-.06,0l-.1-.1h0m0-.11a1.64,1.64,0,0,1,.18.27,1.64,1.64,0,0,0-.18-.27m.94-.16h0s.82.7,1.2,1.12c-.38-.42-1.2-1.12-1.2-1.12m-1.07,0,.08.11,0,.06,0-.06-.08-.11m.11-.45.33.3a17.93,17.93,0,0,0,1.85,1.48L60,59l-.16-.08A19.62,19.62,0,0,1,58,57.45l-.33-.3m-1.13-1,0,0,1.08.95h0l-1.08-.95,0,0m-.82-.75h0m0,0h0l0,0,0,0,.12.1.7.65-.71-.65-.11-.1h0M55,54.75h0l0,0,.17.19c.32.34.91,1,2,2.26v0l.29.36-.28-.36,0,0h0c-1.12-1.26-1.71-1.93-2-2.27l-.16-.18,0,0h0m-.14-.14h0l.11.11,0,0,0,0-.11-.11,0,0,0,0,.76.75L55,54.69l0,0,0,0"/><path class="h" d="M64.52,90.55h0c0,.21-.22-.06-.07.47a15.54,15.54,0,0,0,.6,1.82c.8,1.93,1.69,4.16,2.51,5.71a29.48,29.48,0,0,0,2.81,4.37,5.8,5.8,0,0,0,2.38,2h0c.22,0,.09-.89.14-1.3,0-1.16,1.1,0,.73-2.16,0-.17,0-.24,0-.24s.11.06.18.15a100.8,100.8,0,0,0,6.3,8.71,18.62,18.62,0,0,0,3.19,3A19.61,19.61,0,0,0,86,114.87a1.65,1.65,0,0,0,.42,0c1,0,1-1,.88-2a9.89,9.89,0,0,0-.4-1.47,2.68,2.68,0,0,0-.25-.56h-.14a1.1,1.1,0,0,0-.76.43,1.09,1.09,0,0,1-.77.44,1.17,1.17,0,0,1-.56-.17,16.85,16.85,0,0,1-2.94-2.19,26.32,26.32,0,0,1-3.15-3.17,61.1,61.1,0,0,1-4.62-7c-.31-.52-.49-.66-.61-.66a.29.29,0,0,0-.19.11.32.32,0,0,1-.2.1h-.06c-.21-.21-.46-.58-.58-.61h0a.84.84,0,0,1-.34-.16.85.85,0,0,0-.36-.16c-.17,0-.24.23-.05,1.08a1,1,0,0,1-.57.16,3.09,3.09,0,0,1-1.83-.92,2.15,2.15,0,0,1-.8-.78c-.54-.82-1.12-2.12-1.64-3.11C66,93.05,65.67,93,65.18,92c-.23-.43-.49-1.17-.66-1.49"/><path d="M52.43,122.38c-.51-2.86-1-5.35-1.42-7.85a2.7,2.7,0,0,0-.2-.93c-1.47-2.17-1.5-4.73-2-7.16-1-5.09-1.89-10.19-2.84-15.29-.22-1.19-.53-2.37-.73-3.57-1-6.38-2.12-12.76-3.09-19.16-.46-3-.69-6-1.06-9-.19-1.47-.44-2.93-.71-4.39-.42-2.25-.42-2.32,1-4.09-2.32-.84-2.86-2.66-2.7-4.85.12-1.6.22-3.21.32-4.73,1.18-.94,3,0,3.64-1.44H47.6A2.15,2.15,0,0,1,50.48,39a.88.88,0,0,0,.6,0c2.9-1.22,6-1.21,9.07-1.51a2.72,2.72,0,0,0,2.35-2.1l1.14,1,5-.39a4.21,4.21,0,0,0,1.39-.2,10.87,10.87,0,0,1,6.15-.55c.86.12,1.69.4,2.77.67l1.23-1.55c3.28-.36,6.49.89,9.52-1.16,1.06.31,2.34.81,3.26-.75l1.9,1c.66-.58,1.4-1,2.15.07-.48,1.18-1.52,1-2.39,1a13.86,13.86,0,0,0-6.28.88,6,6,0,0,1-2,.34c-1.86,0-3.73,0-5.76,0-.5,1-1,1.89-1.48,2.87-1.47.07-1.75-1.28-2.29-1.86A19.38,19.38,0,0,0,74,35.86a4.42,4.42,0,0,0-2.12.35,12.35,12.35,0,0,1-4.48,1c-1.14.07-2.49-.39-3.34.88-.05.09-.25.12-.37.11-3.54-.45-6.84,1.19-10.35,1.13a7.51,7.51,0,0,0-3.66.92c-1.49.83-3.33.19-4.66,1.34-1-.34-1.81.22-2.69.63-.44.21-.66.56-1,.74-1.76,1-1.33,2.56-1.17,4a5.23,5.23,0,0,0,.38,1.57,1.68,1.68,0,0,0,.79.79c1.12.44,1.13.41,1.63,1.46-1.59,1-1.78,2.36-1.38,4.14.45,2,.51,4.14.79,6.21.43,3.2.85,6.41,1.37,9.6.76,4.72,1.59,9.43,2.42,14.14.35,1.92.8,3.82,1.17,5.74q1.77,9.14,3.51,18.26a14.16,14.16,0,0,0,.41,1.55c.61,2.1.91,2.34,3,2.52-.12,1.42-.12,1.42-1.58,2.35.23,1.16.47,2.39.72,3.7.68.11,1.42.48,1.81.25,1.28-.73,2.19-.07,3.14.6l1.8-.76c.3-1,.56-1.85.87-2.74,0-.15.3-.23.71-.54.5,1.23.94,2.34,1.53,3.78l-1.76-.41a5.79,5.79,0,0,0-.15.65c-.18,1.84-.18,1.82-2,1.39-.88-.22-1.79-.35-2.65-.51Z"/><path d="M90.74,75.34c-.37,1.22.21,2.11.63,3a29.91,29.91,0,0,1,2.84,8.17,7.85,7.85,0,0,1,0,1.45l-.4.08a13.31,13.31,0,0,1-.67-1.3Q91,81.65,89,76.48a3.49,3.49,0,0,0-.52-1.08c-1.65-1.75-3.34-3.46-5.22-5.39-1.56,1.64-3.12,3.3-4.68,5l.23.24,1.08-.89.37.19c-.14.45-.16,1-.45,1.32a15.31,15.31,0,0,1-2.58,2.25,7.68,7.68,0,0,0-3.4,4.79c-.45,1.76-.83,2-2.67,2.12a6.18,6.18,0,0,0-3.74,1.31c-1.66,1.36-3.36,2.69-5,4-.5.41-.93,1.07-1.79.33a10.64,10.64,0,0,1,3-3.09c2.69-2.23,5.53-4.29,8-6.72,2.83-2.78,5.32-5.89,8-8.83.71-.78,1.49-1.5,2.41-2.43-4.66-1.7-9.36-2.26-14-3.46.24-.73.46-1.37.68-2h4.93a1.87,1.87,0,0,0,2.56,1.23,20.94,20.94,0,0,1,5.82-.13,3.72,3.72,0,0,1,3.59,2.17,2.07,2.07,0,0,0,1.62,1.38c.39.06.78.5,1.06.85a69.16,69.16,0,0,1,8.6,13.63c.88,2,.23,3.38-.68,4.88-.16.27-.78.24-1.19.35,0-.42-.25-1,0-1.23,1.35-1.39,1-2.8.23-4.27s-1.45-3-2.28-4.51C92.2,77.37,91.44,76.37,90.74,75.34Zm-3.33-4.46-.37.21a2.54,2.54,0,0,0,2.43,2.57Z"/><path d="M87.31,116.87l1.41.77c1.61-1.39,3.23-.6,4.9,0L95,115.6c.32.19.6.26.75.45,1.07,1.33,1.35,1.38,2.74.45.32-.22.74-.6,1-.53,1.26.29,2.32-.29,3.48-.52a3.55,3.55,0,0,0,2.27-1.37c1.89.37,3.71,1.08,5.64.31,1.17-.47,1.4-.79.94-1.91-.33-.79-.65-1.59-1-2.37a4.53,4.53,0,0,0-.65-.73,29.58,29.58,0,0,1-9.72,1.81,23.12,23.12,0,0,0-2.76.6c-2,.36-4,.77-6,1-3.14.33-6.3.61-9.46.71a84.69,84.69,0,0,0-11,1c-.56.1-1.55.52-1.66-.47s.89-.78,1.51-.84c5.76-.59,11.51-1.25,17.28-1.7,3.63-.28,7.26-.35,10.79-1.42a11.12,11.12,0,0,1,3-.19c1.14,0,2.28,0,3.49,0l.4-1.22c.21-.08.33-.17.46-.16,3.13.17,3.62-.27,3.46-3.31-.11-2.29-.31-4.57-.45-6.86-.05-.72,0-1.43,0-2.59.43.56.69.74.72,1,.45,3.33.92,6.67,1.28,10a6.11,6.11,0,0,1-.46,2c2.88,1.83,2.49,4.82,2.58,7.81-1.31-1.19-2.68-1-4.12-.65-1,.2-2,0-2.94.19a12.72,12.72,0,0,0-1.81.66,2.38,2.38,0,0,1-.92.08c-.19,0-.49-.28-.53-.24-1.29,1.33-3.25.29-4.64,1.32a2.64,2.64,0,0,1-1.49.5c-1.22,0-2.52-.6-3.57.58-.11.12-.63-.07-.91-.22a3,3,0,0,0-3.49.22c-.1.09-.21.25-.31.25-1.58,0-2.67,1-3.9,1.73-.23.14-.77-.23-1.17-.36.15-.39.26-1.1.43-1.12C85.85,119.27,86.46,118,87.31,116.87Z"/><path d="M85.08,92.15c.73,1,1.44.69,2.08.31,1.11-.63,2.17-1.36,3.27-2a7.28,7.28,0,0,1,3.91-1.33c.14.91-.49,1.09-1,1.37l-4,2.23c-.77.42-1.52.88-2.32,1.23-3,1.28-6,2.41-8.88,3.83-2,1-3.88,2.4-5.81,3.61-1.64,1-3.16,2.33-5.3,2.21-.3,0-.62.43-.95.62-1.39.82-2.23.5-2.77-1-.35-.94-.78-1.86-1.12-2.8s-.48-1.66-.75-2.48a3.43,3.43,0,0,0-.59-1.43c-1.43-1.33-1.13-3-1.29-4.88l1.81.74a5,5,0,0,0,3.2,4.75c1,.43.71,1.32.48,2.12s-1.24,1.46-.42,2.14a4.65,4.65,0,0,0,2.58.82,4.18,4.18,0,0,0,2.27-.6c1.85-1.08,3.67-2.24,5.42-3.49s3.93-2,5.3-3.9A2.32,2.32,0,0,1,82,93.72,2.81,2.81,0,0,0,85.08,92.15Z"/><path d="M111.74,94.84c-.81.46-1.23.1-1.36-.61-.18-1-.29-2-.4-3-.79-7.36-1.45-14.73-2.41-22.07-.57-4.33-1.47-8.63-2.47-12.88-.77-3.27-1.93-6.44-2.92-9.66-.2-.64-.38-1.28-.56-1.9-.16-.07-.3-.18-.4-.15-.66.24-1.35.48-1.67-.43-.21-.59.5-1.08,1.56-1.08a8.37,8.37,0,0,1,1,0,3.29,3.29,0,0,1,.5.09C108.4,59.92,110.67,77.21,111.74,94.84Z"/><path d="M90.37,46.88c2.07-2.42,2.26-2.47,4.83-1.51,1.75-1.19,2.58-1.25,3.8-.29,1.84,1.46,1.81,2.69-.31,4.21.3,1.32.59,2.75,1,4.16s.27,1.73-1.07,2.33a7.27,7.27,0,0,1-1.9.66A1.38,1.38,0,0,0,95.32,58l-3.84-2.23s-.1-.38,0-.54c.69-.87.15-1.22-.52-1.72a18.91,18.91,0,0,1-3.31-2.85c-1.54-1.85-.77-3.52,1.61-3.79A9.87,9.87,0,0,1,90.37,46.88Zm1,2.26a5.32,5.32,0,0,0-1.44-1,2,2,0,0,0-1.45.22,1.43,1.43,0,0,0-.35,1.21,4.84,4.84,0,0,0,3.29,2.63c1.72,0,3,.43,3.16,2.4a6.69,6.69,0,0,0,1.46.32c2-.08,2.82-.52,1.91-2.51-.27-.6-.46-1.24-.69-1.86-3,1-3,1-3.41-.23C97,49.5,97,49.5,99.1,47.07c-.38-.63-.63-1.51-1.59-1.5s-1.1.9-1.34,1.71c-.15.52-.75.91-1.31,1.54-.16-.55-.3-.75-.26-.91a1.42,1.42,0,0,0-1.14-2c-.7-.16-1.36.56-1.66,1.71C91.68,48.07,91.57,48.49,91.4,49.14Z"/><path d="M50.09,48.54a42,42,0,0,1,5.68-2c8.32-1.64,16.66-3.18,25.13-4,2.87-.28,5.69-1,8.54-1.54,1.57-.27,3.15-.47,4.73-.7l.13.53A29.85,29.85,0,0,1,90.47,42c-3.9.74-7.82,1.37-11.74,2C72.47,45,66.21,46,60,47a31,31,0,0,0-7.64,1.84A1.71,1.71,0,0,1,50.09,48.54Z"/><path d="M67.88,64.48a25.08,25.08,0,0,0-1.68,3.36c-1.9,5.87-3.73,11.77-5.54,17.67-.49,1.6-.79,3.26-1.24,4.87-.08.29-.5.49-.76.73-.25-.32-.71-.64-.72-1a5.58,5.58,0,0,1,.39-1.76q2.22-7.11,4.47-14.23c.75-2.37,1.49-4.74,2.35-7.07a10,10,0,0,1,1.46-2.39c.2-.26.65-.33,1-.49Z"/><path d="M81.76,120.34c-5.82,1.24-11.67,0-17.78.59.28-1,.46-1.67.66-2.38,2.15.34,4.16,1,6.12.87,1.68-.11,3.34.9,5,0,.29-.15.77,0,1.16.08s.7.26.88.13C79.37,118.55,80.48,119.82,81.76,120.34Z"/><path d="M103.65,38.29a17.91,17.91,0,0,1-.81,2.32c-.18.34-.67.52-1,.77-.18-.37-.52-.74-.51-1.11a6,6,0,0,1,.42-1.52c-1.58-2.39-2.19-5.47-1.31-6.82,1.07.61,1.19,1.77,1.37,2.73A5.25,5.25,0,0,0,103.65,38.29Z"/><path d="M64.56,112.56c-1.38,1.15-2.53,2.14-4.09,2.41a2.52,2.52,0,0,1-1.16,0,1,1,0,0,1-.51-.74,1,1,0,0,1,.62-.63C61,113.24,62.59,113,64.56,112.56Z"/><path d="M46.54,49.49h2C47.64,50.49,47.47,50.49,46.54,49.49Z"/></svg>