<svg xmlns="http://www.w3.org/2000/svg" viewBox="0 0 150 150"><defs><style>.a{fill:#fde2c1;}.b{fill:#f9ca98;}.c{fill:#f9c18a;}.d{fill:#f5994e;}.e{fill:#f49448;}.f{fill:#f8a158;}.g{fill:#f8b577;}.h{fill:#fcddbc;}.i{fill:#f8b06f;}.j{fill:#f8b474;}.k{fill:#ffefe2;}</style></defs><title>icon</title><path class="a" d="M87.55,65.27l.1,0-.1,0m0,0h0l0,0,0,0m-7-1.29h0m-1.73-.17,1.44.14h0l-1.44-.14h0m-1.25-.08,1.25.08h0l-1.25-.08h0M75.7,63.6l1.62.1h0l-1.62-.1h0m-3-.1,2.35.07h0l-2.35-.07h0m-1.48,0h0l1.34,0h0l-1.34,0m1.87-.57L72.7,63h0a2.72,2.72,0,0,1-.46.19h0a4.29,4.29,0,0,1-.47.16h0l-.53.09h0l.53-.09a4.29,4.29,0,0,0,.47-.16A2.81,2.81,0,0,0,72.7,63l.35-.12h0m2.44-2.8a2.37,2.37,0,0,1-.17.91h0a1.9,1.9,0,0,1-.21.43h0a1.9,1.9,0,0,0,.21-.43,2.37,2.37,0,0,0,.17-.91h0M80,59.37h0l.12.13h0L80,59.37m0,0h0m-.2-.21h0m-1.14-1.42-.43.07h0l-.65.11h0l.65-.11.43-.07h0m5.25-1-2,.38h0l-.25,0h0l.25,0,2-.38h0m3.21-.68L86,56.33h0l1.16-.25"/><path class="b" d="M80.87,37.25v.13a2.16,2.16,0,0,0,.4,1.31c3.33,4.55,6.87,7.39,9.93,10.08a10.36,10.36,0,0,0,3.33,2.08,6.7,6.7,0,0,1,2,.84,1.86,1.86,0,0,1,.57,1.06l.19-.11a8.94,8.94,0,0,0-.07-1.14,5.45,5.45,0,0,0-.67.07,7,7,0,0,0-2-.85,10.26,10.26,0,0,1-3.33-2.08c-3.06-2.7-6.6-5.53-9.93-10.08a2.19,2.19,0,0,1-.41-1.31"/><path class="b" d="M97.08,52.79h0"/><path class="b" d="M96.7,53h0l0,0,.08,0"/><path class="b" d="M96.23,53.23l0,0h0"/><path class="b" d="M95.58,53.52l-.54.23h0c.19-.08.37-.15.53-.23"/><path class="b" d="M94.25,54.06l-.33.12.21-.08.12,0"/><path class="b" d="M92.77,54.57l-.66.21.66-.21"/><path class="b" d="M90.44,55.26l-.46.12h0l.25-.06.21-.06"/><path class="b" d="M90,55.38h0c-.82.22-1.74.45-2.78.68l-1.61.36-.5.1-.73.16-.44.08-.15,0-2.09.4c-.92.18-1.93.36-3,.54l-1.08.18-2.21.38-.77.12h0a.63.63,0,0,1,.51.29,1.8,1.8,0,0,1,.21.44h0a4.13,4.13,0,0,1,.13.63h0s0,.11,0,.17h0a2.33,2.33,0,0,1,0,.37h0a1.88,1.88,0,0,1-.41,1.14,3.8,3.8,0,0,1-2.06,1.46,6.47,6.47,0,0,1-.8.33,4.72,4.72,0,0,1-1,.24c.42,0,1.37,0,2,0l1.52,0H75l.4,0h.31l.46,0,1.15.08h.24c.46,0,1,.06,1.53.11l1.15.11.31,0h.36l.27,0,.89,0h.32a4.09,4.09,0,0,0,.81-.1,6.21,6.21,0,0,0,1.38-.39l-.31-.23h0l-.4-.33h0l-.24-.21-.13-.11-.2-.17h0a16.84,16.84,0,0,1-1.73-1.57l0-.06c-.35-.35-.86-.81-1.27-1.26h0l-.12-.12.07.08h0l-.07-.08L80,59.38l.64.72h0L80,59.38v0l-.08-.08h0l-.11-.12,0,0v0l0,0,.16.17,0,0,.13.14,0,0,.12.12h0c.41.45.92.91,1.27,1.26l0,.06a16.84,16.84,0,0,0,1.73,1.57h0l.2.17.13.11.24.21h0l.4.33h0l.31.23a8,8,0,0,0,1-.48c1.29-.75,2.38-2.09,2.38-3.18a1.3,1.3,0,0,0-.26-.8h0a8.48,8.48,0,0,0,1.78-1.41,2.51,2.51,0,0,0,.79-1.29v-.07l-.17-.13a2.54,2.54,0,0,0-.42-.28h0c.38.06.56.21.59.41a7.62,7.62,0,0,1,.75.83c-.17-.37-.33-.72-.47-1a2.68,2.68,0,0,0-.55-.82"/><path class="c" d="M83.3,62.51h0l.2.17.13.11.24.21h0l-.24-.21-.13-.11-.2-.17h0m-8.19-1.06h0a3.8,3.8,0,0,1-2.06,1.46h0a3.8,3.8,0,0,0,2.06-1.46h0m5.14-1.83h0c.41.45.92.91,1.27,1.26l0,.06,0-.06c-.35-.35-.86-.81-1.27-1.26h0M80,59.38h0l.65.72h0L80,59.38h0m-.09-.1.08.08h0l-.08-.08h0m-.11-.12h0l.11.12h0l-.11-.12m0-.06,0,0,0,0m-2.18-1.19h0l-2.21.38h0l-.77.12h0l.77-.12,2.21-.38h0m4.09-.72h0c-.92.18-1.93.36-3,.54h0c1.08-.18,2.09-.36,3-.54h0m3.41-.67h0l-.73.16h0l-.1,0-.34.06h0l.44-.08.73-.16h0"/><path class="b" d="M85.05,56.53l-1.14.23.44-.08.7-.15"/><path class="b" d="M81.62,57.2l-2.45.44-.44.08c1-.17,2-.35,2.89-.52"/><path class="b" d="M77.56,57.91l-3.24.54a1,1,0,0,1,.25.06,1.13,1.13,0,0,1,.57.49,3.09,3.09,0,0,1,.34.94c0-.06,0-.12,0-.17h0a4.13,4.13,0,0,0-.13-.63h0a1.8,1.8,0,0,0-.21-.44.63.63,0,0,0-.51-.29h0l.77-.12,2.19-.38"/><path class="c" d="M74.49,58.43h0m0,0h0m.1,0h0m0,0h0a.63.63,0,0,1,.51.29,1.8,1.8,0,0,1,.21.44h0a1.8,1.8,0,0,0-.21-.44h0a.64.64,0,0,0-.5-.29h0"/><path class="b" d="M74.6,58.41h0"/><polyline class="b" points="74.5 58.43 74.5 58.43 74.5 58.43 74.5 58.43"/><polyline class="b" points="74.5 58.43 74.49 58.43 74.49 58.43 74.5 58.43"/><path class="b" d="M74.32,58.45l-.07,0,.07,0h0"/><path class="b" d="M79.76,59.1l0,0,.15.16,0,0-.16-.17"/><path class="b" d="M79.81,59.16l.11.12h0l.07.07-.18-.19"/><path class="b" d="M75.11,61.45a2.84,2.84,0,0,1-.24.26,8.25,8.25,0,0,1-1.82,1.2,3.8,3.8,0,0,0,2.06-1.46"/><path class="b" d="M71.11,63.48h0"/><path class="b" d="M71,63.48h0"/><path class="b" d="M75,63.57l.69,0h-.3l-.39,0"/><path class="b" d="M77.32,63.7h0"/><path class="c" d="M77.32,63.7h0"/><path class="b" d="M80.25,63.93l.29,0-.29,0"/><path class="b" d="M80.68,64l.82.1-.25,0h-.12l-.33,0h-.12"/><path class="b" d="M81.13,64h0"/><path class="b" d="M85.35,64.11h0l.14.11,0,0-.07-.05,0,0"/><path class="b" d="M72.73,64.12a1,1,0,0,0-.81.44,7.07,7.07,0,0,0-1,3,25,25,0,0,1-3.19,10.56,1.1,1.1,0,0,1-.73.23,5.08,5.08,0,0,1-.82-.1,4.13,4.13,0,0,0-.85-.11,1.61,1.61,0,0,0-.58.1c-2,1.57-2.39,5.26-3.78,7.52-4.39,3.82-4.83,5.87-4.83,6.7,0,.21,0,.34,0,.4h0s0,0,0,0l-.05,0a.29.29,0,0,1-.16,0c-.74,0-2-2.12-3-2.23-1.39.18-2,2.09-2.25,3.94-.6,3.89-1.48,8-3.69,9.15.8.56,1.72,1.68,2.47,2.19a2.19,2.19,0,0,0,1.09.31c1,0,1.82-.68,2.85-.82a6.18,6.18,0,0,1,2.14,1.29,1.4,1.4,0,0,0,.89.43c.7,0,1.18-.91,1.75-1.55a1.26,1.26,0,0,1,1.2-.62,5.78,5.78,0,0,1,1.07.13,7.05,7.05,0,0,0,1.08.13,1.7,1.7,0,0,0,.82-.18c1.51-.67,1.8-3.73,3.29-3.73a1.52,1.52,0,0,1,.52.11c-.2-.09-.28-.2-.28-.31h0c0-.61,2.72-1.4,3.89-1.4.32,0,.53.06.53.2h0a.38.38,0,0,1-.07.17h0a4,4,0,0,1,1.18,1.45,8.5,8.5,0,0,1,.52,1.46h0v0a4.18,4.18,0,0,0,0,.51c0,2.06,1.13,4.75,1.72,7.07,0,0,.09,0,.21,0s.5,0,.88-.06a12.89,12.89,0,0,1,1.33-.07,5.79,5.79,0,0,1,3.43.9c1.6,1.27,3.17,2.78,4.51,2.78h.22a.91.91,0,0,0,.11-.55c0-.24,0-.51,0-.75h0a.91.91,0,0,1,.11-.55,9.33,9.33,0,0,0,1.22-2.27c.29-.64.62-1.38,1-2.16.17-.4.35-.8.53-1.21l.63-1.27c1.64-3.33,3.33-6.66,4.07-6.66h0a5.47,5.47,0,0,1,3,2.81,11.14,11.14,0,0,0,2.46,3.74,30.78,30.78,0,0,1,2.83,3c.46.68.58,1.74,1,2.43,1.37,1.69,3.26,3.53,4.53,3.53h.15a9.37,9.37,0,0,0,1,.06,6.48,6.48,0,0,0,2.39-.43,5.83,5.83,0,0,0,2.62-1.92l2.76-1.7.87-.6a19.2,19.2,0,0,0,1.35-4.69c.62-2.86,0-4,1-4.42,0,0,0-.05,0-.11a20.91,20.91,0,0,0-.9-2.74,25.52,25.52,0,0,1-.77-2.58,12.31,12.31,0,0,1-.34-2.69l-1.74-.2v.09c0,.42.08,1,.08,1.68v0h0a18.23,18.23,0,0,1-.15,2.33c0,.43-.13.88-.22,1.32A12.28,12.28,0,0,1,113.5,99c-.8,2.6-2.43,4.8-4.93,4.8a6.05,6.05,0,0,1-3-.89s-1-.11-2.52-.44a23.12,23.12,0,0,1-5.25-1.83c-3.69-1.84-7-4.89-7.08-8.42,0,0-.05-1.7-.14-4.42S90.37,81.56,90,78a42.52,42.52,0,0,0-2.12-9.84l-.77-1.74c-.3-.5-.58-.93-.81-1.28-.05-.08-.11-.15-.16-.22l-.64-.14c-.48-.12-.86-.18-1.28-.26l-.72-.12h0l-.39-.06-.25,0h0a7,7,0,0,1,.3,1.87h0a3,3,0,0,1-.34,1.49,3.15,3.15,0,0,1-3.1,1.9h-.26a8.69,8.69,0,0,1-2.4-1.8c-1.13-1-2.3-2.17-2.86-2.75a2.16,2.16,0,0,0-1.43-.82"/><path class="b" d="M85.37,64.12l0,0,.09.07h0l-.13-.1"/><path class="b" d="M84.31,64.49c.38.07.74.13,1.18.24l.64.14h0l-.69-.15c-.4-.1-.74-.16-1.13-.23"/><path class="b" d="M87.34,65.2h0l.13,0-.09,0-.07,0"/><path class="b" d="M87.37,65.21h0l.11,0h0l-.13,0"/><path class="b" d="M87.51,65.26l.26.08h0l-.22-.07h0"/><polyline class="b" points="87.54 65.27 87.76 65.34 87.76 65.34 87.54 65.27"/><polyline class="b" points="87.62 65.29 87.65 65.3 87.67 65.31 87.65 65.3 87.62 65.29"/><polyline class="b" points="87.65 65.3 87.7 65.32 87.71 65.33 87.67 65.31 87.65 65.3"/><path class="b" d="M92.88,67.3a.5.5,0,0,0-.23.46,1.55,1.55,0,0,0,0,.34,3.22,3.22,0,0,0,.23.57.93.93,0,0,1,0-.13c0-.09,0-.19,0-.3A1.62,1.62,0,0,0,93,68a2.17,2.17,0,0,0-.11-.72"/><path class="b" d="M108,72.28c.13.8.27,1.64.43,2.52.43,2.32.94,5,1.73,7.93A26.77,26.77,0,0,0,109,75c-.33-1-.67-1.87-1.06-2.73"/><path class="b" d="M96.69,76.68c.6,1.48,1.25,3.21,2,5.23,0,0,.18.3.52.81,0-.12-.1-.25-.14-.38-.6-1.65-1.26-3.3-2-4.84-.12-.27-.24-.55-.37-.82"/><path class="b" d="M111.7,92c0,.16-.09.33-.14.5a7,7,0,0,0,1.44-.3l-1.3-.2"/><path class="b" d="M44.57,104c.1.12.2.24.29.37a2.46,2.46,0,0,0,.44-.25,3.36,3.36,0,0,1-.73-.12"/><path class="d" d="M96.06,33.14a16.44,16.44,0,0,0-2.86.26,2.8,2.8,0,0,0-1.4,1.1c-.3.53-1.34.63-1.8.94h-.41c-.91,0-1.84-.09-2.74-.18s-1.78-.18-2.59-.18a4.43,4.43,0,0,0-2.87.78,1.81,1.81,0,0,0-.52,1.37h0A1.71,1.71,0,0,1,81.38,36a4.37,4.37,0,0,1,2.85-.78c.8,0,1.67.09,2.57.18s1.82.18,2.73.18H90c.45-.32,1.49-.41,1.78-.94a2.69,2.69,0,0,1,1.39-1.1A15.1,15.1,0,0,1,96,33.26a15.52,15.52,0,0,1,10.3,3.94,25.06,25.06,0,0,1,3.1,2.37,19,19,0,0,1,2.44,2.7,14.38,14.38,0,0,1,2.67,5.89c.23,2,.62,3.39.85,4.71a8.7,8.7,0,0,1,.13,1.41h0a5.11,5.11,0,0,1-.59,2.38,9.75,9.75,0,0,0-.64,3.28,7.93,7.93,0,0,0,.18,1.65,49.09,49.09,0,0,0,2.4,6.38A23,23,0,0,1,118,75.52h0c0,.26,0,.53,0,.8v.34h0c0,3.1-.52,6.19-.52,8.32,0,.28,0,.53,0,.77a3.62,3.62,0,0,1,.09.85h0c0,2.08-1.65,3.62-1.74,5.74v.16h0c.1-2.13,1.77-3.68,1.77-5.76a4,4,0,0,0-.09-.83c0-.22,0-.46,0-.71h0c0-2.18.56-5.38.55-8.58v-.16h0c0-.32,0-.63,0-.93A22.91,22.91,0,0,0,117,68.07c-1.14-3-2.06-4.74-2.39-6.41a8,8,0,0,1-.18-1.66h0a9.75,9.75,0,0,1,.64-3.28,5.28,5.28,0,0,0,.6-2.42,8.27,8.27,0,0,0-.14-1.37c-.22-1.32-.61-2.75-.83-4.7a14.54,14.54,0,0,0-2.63-5.92,19.93,19.93,0,0,0-2.45-2.74,26.37,26.37,0,0,0-3.1-2.42,15.78,15.78,0,0,0-6.39-3.47,15.32,15.32,0,0,0-4-.54"/><path class="e" d="M96,33.26a15.1,15.1,0,0,0-2.91.28,2.69,2.69,0,0,0-1.39,1.1c-.29.53-1.33.62-1.78.94h-.42c-.91,0-1.83-.09-2.73-.18s-1.77-.18-2.57-.18a4.37,4.37,0,0,0-2.85.78,1.71,1.71,0,0,0-.51,1.24,2.19,2.19,0,0,0,.41,1.31c3.33,4.55,6.87,7.38,9.93,10.08a10.26,10.26,0,0,0,3.33,2.08,7,7,0,0,1,2,.85,5.45,5.45,0,0,1,.67-.07c0-.09,0-.17,0-.26-.21-1.53-1-3-1.83-3a.81.81,0,0,0-.45.15s-.48-.4-1.27-.95-1.94-1.24-3.07-1.91c-1.61-1-3.18-2-3.18-3.14h0a1.7,1.7,0,0,1,.78-1.3,14.37,14.37,0,0,1,1.21-1.49A10.92,10.92,0,0,1,92,37.51l1.12-.09c.35,0,.82,0,1.36,0a15.91,15.91,0,0,1,1.76.08,17.34,17.34,0,0,1,4.39,1,14.72,14.72,0,0,1,4.71,2.72,11.43,11.43,0,0,1,4,8.68h0c0,2.32-.57,3.73-1.1,4.08a25.85,25.85,0,0,0-.72,3.35,39.37,39.37,0,0,0-.43,5.88c0,.56,0,1.14,0,1.73a64.06,64.06,0,0,0,.82,7.41c.39.86.73,1.76,1.06,2.73a26.77,26.77,0,0,1,1.1,7.72,69.39,69.39,0,0,0,2.12,6.64h0s0,.26-.1.7a18,18,0,0,1-.39,1.76l0,.13,1.3.2a7.15,7.15,0,0,0,1.06-.43s0,.21.06.57l1.74.2v-.07h0v-.09c.09-2.12,1.75-3.66,1.74-5.74a3.62,3.62,0,0,0-.09-.85c0-.24,0-.49,0-.77h0c0-2.13.52-5.22.52-8.32v-.34h0c0-.27,0-.54,0-.8A23,23,0,0,0,116.87,68a49.09,49.09,0,0,1-2.4-6.38,7.93,7.93,0,0,1-.18-1.65h0a9.75,9.75,0,0,1,.64-3.28,5.11,5.11,0,0,0,.59-2.38,8.7,8.7,0,0,0-.13-1.41c-.23-1.32-.62-2.75-.85-4.71a14.38,14.38,0,0,0-2.67-5.89,19,19,0,0,0-2.44-2.7,25.06,25.06,0,0,0-3.1-2.37A15.52,15.52,0,0,0,96,33.26"/><path class="f" d="M94.49,37.38c-.54,0-1,0-1.36,0L92,37.51a10.92,10.92,0,0,0-2.6,2.14,14.37,14.37,0,0,0-1.21,1.49,1.7,1.7,0,0,0-.78,1.3c0,1.11,1.57,2.16,3.18,3.14,1.13.67,2.27,1.35,3.07,1.91s1.27.95,1.27.95a.81.81,0,0,1,.45-.15c.83,0,1.62,1.42,1.83,3a9.65,9.65,0,0,1,.11,1.4h0l-.19.11-.06,0h0l-.31.17,0,0-.08,0-.39.2h0l-.44.19-.17.08c-.16.08-.34.15-.53.23h0l-.77.3-.12,0-.21.08-.35.12-.66.22-.14,0-.66.21-.83.24-.84.24-.21.06-.25.06a2.68,2.68,0,0,1,.55.82c.14.24.3.59.47,1l.19.26c.92,1.31,2.07,2.93,3,4.41a9.1,9.1,0,0,1,1.51,3.87s0,0,0,.06h0A1.17,1.17,0,0,1,94.33,67a2.42,2.42,0,0,1-.45,0,3.73,3.73,0,0,0-.76.18.9.9,0,0,0-.24.12A2.17,2.17,0,0,1,93,68h0a1.62,1.62,0,0,1,0,.22c0,.11,0,.21,0,.3a.93.93,0,0,0,0,.13,80.51,80.51,0,0,1,3.76,8c.13.27.25.55.37.82.7,1.54,1.36,3.19,2,4.84,0,.13.09.26.14.38.2.31.45.69.75,1.12a38.78,38.78,0,0,0,3.25,4.2c2,2.22,4.66,4.45,7.77,4.45q.31,0,.63,0l.18-.63a18,18,0,0,0,.39-1.76c.06-.44.1-.7.1-.7a69.39,69.39,0,0,1-2.12-6.64c-.79-3-1.3-5.61-1.73-7.93-.16-.88-.3-1.72-.43-2.52a64.06,64.06,0,0,1-.82-7.41c0-.59,0-1.17,0-1.73h0a39.37,39.37,0,0,1,.43-5.88,25.85,25.85,0,0,1,.72-3.35c.53-.35,1.08-1.76,1.1-4.08a11.43,11.43,0,0,0-4-8.68,14.72,14.72,0,0,0-4.71-2.72,17.34,17.34,0,0,0-4.39-1,15.91,15.91,0,0,0-1.76-.08"/><polyline class="f" points="89.98 55.38 89.98 55.38 89.97 55.38 89.97 55.38 89.97 55.38 89.98 55.38 89.98 55.38"/><path class="g" d="M89.66,55.92a2.54,2.54,0,0,1,.42.28l.17.13c0-.2-.21-.35-.59-.41"/><path class="g" d="M90.25,56.33v.07h0a2.51,2.51,0,0,1-.79,1.29,8.48,8.48,0,0,1-1.78,1.41,1.3,1.3,0,0,1,.26.8h0c0,1.09-1.09,2.43-2.38,3.18a8,8,0,0,1-1,.48l0,0h0l.62.43h0l.11.08h0l0,0,.07.05,0,0,.4.26,0,0h0l.7.4h0l.22.11.17.07h0l0,0h0l.28.09h0l.07,0,.09,0h0l.07,0h.06l.07,0h0l-.26-.08h0l-.14,0L87,65.09l-.71-.19-.11,0c.05.07.11.14.16.22.23.35.51.78.81,1.28l.77,1.74A42.52,42.52,0,0,1,90,78c.38,3.61.55,7.22.63,9.89s.14,4.42.14,4.42c.11,3.53,3.39,6.58,7.08,8.42a23.12,23.12,0,0,0,5.25,1.83c1.5.33,2.52.44,2.52.44a6.05,6.05,0,0,0,3,.89c2.5,0,4.13-2.2,4.93-4.8a12.28,12.28,0,0,0,.34-1.29c.09-.44.17-.89.22-1.32a18.23,18.23,0,0,0,.15-2.33v0c0-.68,0-1.26-.08-1.68V92.3c0-.36-.06-.57-.06-.57a7.15,7.15,0,0,1-1.06.43,7,7,0,0,1-1.44.3q-.32,0-.63,0c-3.11,0-5.74-2.23-7.77-4.45a38.78,38.78,0,0,1-3.25-4.2c-.3-.43-.55-.81-.75-1.12-.34-.51-.52-.81-.52-.81-.7-2-1.35-3.75-2-5.23a80.51,80.51,0,0,0-3.76-8,3.22,3.22,0,0,1-.23-.57,1.55,1.55,0,0,1,0-.34h0a.58.58,0,0,1,.47-.58,3.73,3.73,0,0,1,.76-.18,2.42,2.42,0,0,0,.45,0,1.17,1.17,0,0,0,1.33-1.28s0,0,0-.06a9.1,9.1,0,0,0-1.51-3.87c-.88-1.48-2-3.1-3-4.41L91,57.16a7.62,7.62,0,0,0-.75-.83"/><path class="g" d="M84.58,63.56A6.21,6.21,0,0,1,83.2,64a4.09,4.09,0,0,1-.81.1h-.32l-.89,0h.07l.65.09H82l.56.07c.32,0,.78.11,1.34.21l.44.08c.39.07.73.13,1.13.23l.69.15h0l.11,0,.71.19.41.12-.28-.09h0l0,0h0L86.85,65l-.22-.11h0l-.7-.4h0l0,0-.4-.26h0l-.09-.07,0,0L85.25,64h0l-.62-.43h0l0,0"/><path class="g" d="M80.79,64h0l.33,0-.34,0m0,0h0l.34,0h.05l-.27,0h-.15"/><path class="g" d="M81.25,64l.25,0,.92.12.38,0,.25,0-.52-.08L82,64.13H81.9L81.25,64"/><path class="g" d="M83.44,64.34h0l.72.12-.34-.06-.43-.07"/><path class="g" d="M87.36,65.21l.14,0-.1,0h0"/><path class="g" d="M87.5,65.25l0,0h0"/><polyline class="g" points="87.67 65.31 87.76 65.34 87.76 65.34 87.77 65.34 87.77 65.34 87.75 65.34 87.68 65.31 87.67 65.31"/><path class="h" d="M91.77,98.82c-.74,0-2.43,3.33-4.07,6.66l-.63,1.27c-.18.41-.36.81-.53,1.21-.36.78-.69,1.52-1,2.16a9.33,9.33,0,0,1-1.22,2.27.91.91,0,0,0-.11.55c0,.24,0,.51,0,.75h0a.91.91,0,0,1-.11.55h-.22c-1.34,0-2.91-1.51-4.51-2.78a5.79,5.79,0,0,0-3.43-.9,12.89,12.89,0,0,0-1.33.07c-.38,0-.69.06-.88.06s-.19,0-.21,0c-.59-2.32-1.73-5-1.72-7.07h0a4.18,4.18,0,0,1,0-.51v0a8.5,8.5,0,0,0-.52-1.46,4,4,0,0,0-1.18-1.45h0a.38.38,0,0,0,.07-.17c0-.14-.21-.2-.53-.2-1.17,0-3.89.79-3.89,1.4,0,.11.08.22.28.31h0a1.52,1.52,0,0,0-.52-.11c-1.49,0-1.78,3.06-3.29,3.73a1.7,1.7,0,0,1-.82.18,7.05,7.05,0,0,1-1.08-.13,5.78,5.78,0,0,0-1.07-.13,1.26,1.26,0,0,0-1.2.62c-.57.64-1,1.55-1.75,1.55a1.4,1.4,0,0,1-.89-.43,6.18,6.18,0,0,0-2.14-1.29c-1,.14-1.87.82-2.85.82a2.19,2.19,0,0,1-1.09-.31c-.75-.51-1.67-1.63-2.47-2.19a1.58,1.58,0,0,0-.8-.32.7.7,0,0,0-.62.41.68.68,0,0,1-.2.24,2.46,2.46,0,0,1-.44.25c-.22.12-.41.24-.42.52a1.11,1.11,0,0,0,0,.17h0c.43.2,1,.82,1.56,1.1,1.14.72,2.08.42,3.21,1.32a35.46,35.46,0,0,0,3.4,2.33,4.55,4.55,0,0,0,1.53.3,3,3,0,0,0,.42,0c.5,0,1,.07,1.45.07a11.23,11.23,0,0,0,5.06-1.09c0-1.4.84-1.49,1.65-1.49h.37a2.47,2.47,0,0,0,.74-.08h0a6.66,6.66,0,0,1,1.13.37c.63-.08,1.1-.62,1.68-.62a1.33,1.33,0,0,1,.92.46,47.33,47.33,0,0,0,6.8,6.24A40.16,40.16,0,0,0,84.34,118a2.58,2.58,0,0,0,.6.07c1.72,0,2.79-1.53,4.44-1.59h0a1.38,1.38,0,0,1,.1.62,5.6,5.6,0,0,0,.55-.27c0-.26.31-.82.34-1.08h.16a2.8,2.8,0,0,1,1.47.55c4.83,4.23,10.36,2,16.68,3.69.46,0,1,.09,1.56.09a4.22,4.22,0,0,0,2.85-.88,13.13,13.13,0,0,1,1.56-1.25A4.51,4.51,0,0,0,116,116.5a44.24,44.24,0,0,0,1.4-8.14l-2,1.37-.87.6-2.76,1.7a5.83,5.83,0,0,1-2.62,1.92,6.48,6.48,0,0,1-2.39.43,9.37,9.37,0,0,1-1-.06h-.15c-1.27,0-3.16-1.84-4.53-3.53-.45-.69-.57-1.75-1-2.43a30.78,30.78,0,0,0-2.83-3,11.14,11.14,0,0,1-2.46-3.74,5.47,5.47,0,0,0-3-2.81h0"/><path class="c" d="M85.05,56.53h0l-.7.15-.44.08h0l.34-.06.1,0h0l.7-.15"/><path class="i" d="M75.37,58.29l-.77.12h0l.77-.12m2.86-.49-.67.11-2.19.38,2.21-.38.65-.11m3.69-.66-.3.06q-1.55.3-3.39.6l.43-.07c1.08-.18,2.09-.36,3-.54l.25,0m2.33-.44-2.33.44,2-.38.34-.06m1.66-.36-.86.19-.7.15.73-.16.83-.18"/><path class="c" d="M74.62,58.41h0a.64.64,0,0,1,.5.29h0a1.8,1.8,0,0,1,.21.44h0a1.8,1.8,0,0,0-.21-.44.63.63,0,0,0-.51-.29"/><path class="i" d="M75.13,58.7a1.8,1.8,0,0,1,.21.44,1.8,1.8,0,0,0-.21-.44m-.5-.29a.64.64,0,0,1,.5.29.64.64,0,0,0-.5-.29"/><path class="i" d="M74.6,58.41h0m0,0h0m0,0h0"/><path class="i" d="M79.92,59.27l.08.09h0l-.08-.08.08.08h0l.65.72L80,59.38h0l.12.13.12.12-.12-.12L80,59.37,80,59.31l0,0"/><path class="i" d="M75.34,59.14a4.13,4.13,0,0,1,.13.63,4.13,4.13,0,0,0-.13-.63"/><path class="i" d="M75.47,59.77c0,.11,0,.23,0,.34h0c0-.06,0-.12,0-.17s0-.12,0-.17"/><path class="a" d="M73.05,62.91,72.7,63a2.81,2.81,0,0,1-.46.19,4.29,4.29,0,0,1-.47.16l-.53.09h0l.53-.09h0a4.29,4.29,0,0,0,.47-.16h0A2.72,2.72,0,0,0,72.7,63h0l.35-.12h0m2.44-2.8a2.37,2.37,0,0,1-.17.91,1.9,1.9,0,0,1-.21.43h0a1.9,1.9,0,0,0,.21-.43h0a2.37,2.37,0,0,0,.17-.91h0"/><path class="i" d="M71.77,63.38l-.53.09.53-.09m.47-.16a4.29,4.29,0,0,1-.47.16,4.29,4.29,0,0,0,.47-.16M72.7,63a2.72,2.72,0,0,1-.46.19A2.72,2.72,0,0,0,72.7,63m2.62-2a1.9,1.9,0,0,1-.21.43A4.08,4.08,0,0,1,72.7,63l.35-.12a3.8,3.8,0,0,0,2.06-1.46,1.9,1.9,0,0,0,.21-.43"/><path class="i" d="M81.57,60.94a16.84,16.84,0,0,0,1.73,1.57,16.84,16.84,0,0,1-1.73-1.57"/><path class="i" d="M83.87,63l.4.33-.4-.33"/><path class="i" d="M84.27,63.33l.36.27,0,0-.31-.23"/><path class="i" d="M71,63.48l1.55,0-1.34,0H71"/><path class="i" d="M72.52,63.5h0"/><path class="c" d="M77.32,63.7h0M75,63.57h0l.4,0h0l-.4,0h0"/><path class="i" d="M77.56,63.71l1.25.08-1.25-.08h0m-2.16-.12h.3l1.62.1h0l-1.61-.1H75.4m-2.74-.09,2.35.07.39,0-.4,0-2.34-.07"/><path class="i" d="M78.81,63.79l1.44.14.29,0h.25l.34,0h.12l.65.09L81.25,64h-.12l-.34,0h-.24l-.31,0-1.43-.14"/><path class="i" d="M85.25,64l.12.09.13.1.4.26-.4-.26L85.25,64"/><path class="j" d="M86.13,64.87h0l.11,0h0l.71.19h0l.41.12h0L87,65.09l-.71-.19-.11,0h0m-4.23-.75H82l.56.07h0c.32,0,.78.11,1.34.21h0l.44.08h0l-.44-.08c-.56-.1-1-.17-1.34-.21L82,64.13H81.9"/><path class="i" d="M86.24,64.9l.71.19-.71-.19m-.75-.17.64.14.11,0-.11,0-.64-.14m-1.62-.32c.56.11,1,.17,1.62.32-.44-.11-.8-.17-1.18-.24l-.44-.08m-1.34-.21.52.08.39.06.43.07c-.56-.1-1-.17-1.34-.21M82,64.13h0l.56.07L82,64.13"/><path class="i" d="M85.93,64.5l.7.4-.7-.4"/><path class="k" d="M44.46,105.06h0c-.15.23-.59.21-.59.47a.49.49,0,0,0,.06.2,5.16,5.16,0,0,0,1.2,1.58c1.82,1.5,3.6,3.36,5.3,4.52,3.56,2.33,7,3.85,10,3.85a7.45,7.45,0,0,0,1.06-.07c.62-.08.73-1.14,1.1-1.7.77-1.48,2.82-.71,3.24-3.19a.32.32,0,0,1,.34-.33.65.65,0,0,1,.29.07c3.37,2.69,6.46,5.06,9.71,7.42,2.11,1.63,8.16,3.45,9.36,3.65,3.43,0,4-2.79,4-4.21v-.19a1.38,1.38,0,0,0-.1-.62h0c-1.65.06-2.72,1.59-4.44,1.59a2.58,2.58,0,0,1-.6-.07,40.16,40.16,0,0,1-9.91-4.09,47.33,47.33,0,0,1-6.8-6.24,1.33,1.33,0,0,0-.92-.46c-.58,0-1,.54-1.68.62a6.66,6.66,0,0,0-1.13-.37h0a2.47,2.47,0,0,1-.74.08h-.37c-.81,0-1.6.09-1.65,1.49A11.23,11.23,0,0,1,56,110.15c-.47,0-1,0-1.45-.07a3,3,0,0,1-.42,0,4.55,4.55,0,0,1-1.53-.3,35.46,35.46,0,0,1-3.4-2.33c-1.13-.9-2.07-.6-3.21-1.32-.58-.28-1.13-.9-1.56-1.1"/><path d="M128.89,58.78A36.06,36.06,0,0,1,123.39,77c-1.22,2-2.31,4-3.42,6-4.12,7.52-10.47,12.63-17.87,16.61-1.5.8-3,1.57-4.44,2.48A65.75,65.75,0,0,1,81,109.31a172.17,172.17,0,0,1-30.3,6.1c-4.94.56-9.92.87-14.89,1.15a12.74,12.74,0,0,1-8.26-2.26c-1.94-1.37-3.22-3.18-2.9-5.52a41.15,41.15,0,0,1,1.95-8.45c2-5.35,4.09-10.66,6.47-15.83,1.51-3.28,3.69-6.26,5.43-9.45a89.71,89.71,0,0,1,22-25.95,65.53,65.53,0,0,1,13.53-8.43C78.9,38.36,83.73,36.09,89,35c3-.62,5.87-1.46,8.81-2.13a4.74,4.74,0,0,1,1.8,0c2,.33,4,.8,6.09,1.06a16.68,16.68,0,0,1,10,4.66,94.48,94.48,0,0,0,8.43,6.83c2.59,2,3.45,4.94,4.19,7.86A33.19,33.19,0,0,1,128.89,58.78Zm-14.68-19C107.58,35.85,101,34.62,94,36.34c-1,.25-2.1.56-3.17.77C83,38.62,76,42.32,69.2,46.22a40,40,0,0,0-7.28,5.42c-4.55,4.19-9.39,8.21-13.19,13A116.62,116.62,0,0,0,29.89,99.32a39.9,39.9,0,0,0-2,8.79,5.09,5.09,0,0,0,5,5.58,49.91,49.91,0,0,0,8.73,0c7.84-.88,15.67-1.84,23.45-3.11a94.07,94.07,0,0,0,24.66-7.51A157.42,157.42,0,0,0,106,94.23a30,30,0,0,0,10.64-10.8c1.84-3.28,3.65-6.59,5.52-9.85A31.44,31.44,0,0,0,126,57.12c-.08-5.78-3.67-12.25-9.87-14.42-1.22-.42-2.51-.67-4.15-1.1Z"/><path d="M102.46,40.29c-.2.36-.27.69-.45.76C91.23,45.32,82.55,52.73,73.76,60c-3.84,3.16-7.86,6.15-11.41,9.6A139,139,0,0,0,52.18,81c-2.63,3.17-5,6.53-7.4,9.9-1.55,2.22-2.85,4.63-4.27,7-1.45-.89-1.79-1.57-.82-3.3a43,43,0,0,1,3.49-5.1c4.6-5.94,9-12.06,14-17.69,3.42-3.89,7.58-7.15,11.53-10.56,3.49-3,7-6,10.74-8.7C85.83,47.9,92.07,43,99.3,39.76,100.55,39.19,101.72,38.57,102.46,40.29Z"/><path d="M107.15,51a25.93,25.93,0,0,1-3.06,3.22c-3.17,2.43-6.53,4.63-9.69,7.07-4.42,3.4-8.87,6.78-13.06,10.45-6.29,5.51-12.49,11.14-18.49,17-4.34,4.22-8.27,8.87-12.4,13.31a22.83,22.83,0,0,1-1.83,1.57c-.25-2.08.68-3.13,1.63-4.22A253.32,253.32,0,0,1,74.54,74.82,306.53,306.53,0,0,1,100.73,54a34.74,34.74,0,0,0,3.58-3.07C105.09,50.21,105.83,49.66,107.15,51Z"/><path d="M57.39,106.18a19.75,19.75,0,0,1,2.54-1.9c4-2.07,8.09-3.91,12-6.11a118.73,118.73,0,0,0,12.66-7.84c7.79-5.79,15.36-11.87,22.92-18,1.67-1.34,2.88-3.23,4.41-4.76.42-.42,1.2-.47,1.82-.7.09.74.52,1.78.19,2.17a38.58,38.58,0,0,1-5.25,5.51C102,80,95.21,85.34,88.29,90.45c-5,3.67-10,7.24-15.79,9.64-3.92,1.63-7.67,3.64-11.51,5.46-1.06.5-2.15.91-3.23,1.37Z"/></svg>