<svg xmlns="http://www.w3.org/2000/svg" viewBox="0 0 150 150"><defs><style>.a{fill:#bcab9e;}.b{fill:#816654;}.c{fill:#7e614e;}.d{fill:#89715d;}.e{fill:#a48c7d;}.f{fill:#a08a78;}.g{fill:#d2c8be;}.h{fill:#9d8575;}.i{fill:#a28a79;}.j{fill:#ece8e4;}</style></defs><title>icon</title><path class="a" d="M64.36,36.41a3.25,3.25,0,0,0-1.24.8,26.59,26.59,0,0,0-6.86,12.18,7.27,7.27,0,0,0-.2,1.66,6.12,6.12,0,0,0,.76,2.9,22.22,22.22,0,0,0,2.6,3.35A7.84,7.84,0,0,1,61,60.57h0a11.45,11.45,0,0,0-1.23.09,9.57,9.57,0,0,0-3.59,1,2.94,2.94,0,0,0-1.22,1.17.16.16,0,0,1-.09,0h0c-1.27,0-1.85-2.77-4-3.08A6,6,0,0,0,47,61.24a7.35,7.35,0,0,0-2.16,3.23A27.73,27.73,0,0,0,43.33,73a9.16,9.16,0,0,1-.65,3.17h.47c.93,0,2.06.34,2.81.4h0a2.22,2.22,0,0,0,1.65-.66,3.82,3.82,0,0,1,1.31-1,3.64,3.64,0,0,1,1.92,1.14c.35.38.56.52.71.52a.29.29,0,0,0,.21-.11c.16-.22.32-.66.58-1a.51.51,0,0,1,.46-.32,1.27,1.27,0,0,1,.78.42c.44.4.8.92,1.22.92h.1c.57,0,1.29-.67,2.07-1.09A2.38,2.38,0,0,1,58.1,75a.82.82,0,0,1,.81.67.88.88,0,0,1,0-.21h0c0-.21.13-.3.34-.3a3.63,3.63,0,0,1,1.69.76c.78.54,1.48,1.27,1.48,1.59h0c0,.1-.07.16-.22.16,0,0,0,.06,0,.11h0a5.38,5.38,0,0,1-.49,1.69,7.69,7.69,0,0,1-.87,1.32c-1.72,1.16-3.25,4-4.74,6.11v0a9.8,9.8,0,0,0,1,1.44,7.34,7.34,0,0,1,1.42,3.45c0,2.22.11,4.72,1.68,6h.07a1.86,1.86,0,0,0,.88-.44,1.88,1.88,0,0,1,.87-.44h0a1.41,1.41,0,0,0,.44,0,42.62,42.62,0,0,0,8.61-1.66c3.52-.94,6.73-2.2,7.92-2.2a.61.61,0,0,1,.43.12,6.1,6.1,0,0,1,.89,3h0a2.59,2.59,0,0,1-.18,1,10.14,10.14,0,0,0-.41,2.81c0,2,.61,3.61.65,5.8h0c-.05.82-.64,1.72-.68,2.55.08,2.29.69,5,1.87,5.68a7.53,7.53,0,0,0,4.94,2,5.2,5.2,0,0,0,1.53-.23l.87.08c.57,0,1.41.09,2.51.1a34.9,34.9,0,0,0,10.51-1.6,33.81,33.81,0,0,0,8.63-4.17c.68-.45,1.35-.94,2-1.46a31.53,31.53,0,0,0,3.33-3.31,30.64,30.64,0,0,0,5.62-9.38,26.13,26.13,0,0,0,1-3.47,19.6,19.6,0,0,0,.36-2.45,7.87,7.87,0,0,0,0-.81c0-.27,0-.5,0-.7a3,3,0,0,0-.22-.74c-.17-.44-.35-.86-.55-1.28-1.11-2.75-2.21-3.48-2.21-4.39h0a1.24,1.24,0,0,1,.11-.51h0c0-.51-4.42-2.29-7.05-5.07L111.61,78a16.24,16.24,0,0,1,1.32,1.36,15.83,15.83,0,0,1,2.81,4.82,12.26,12.26,0,0,1,.66,3.24h0A17.6,17.6,0,0,1,115,93a24.19,24.19,0,0,1-2.9,5,24.55,24.55,0,0,1-4.84,4.87,23.52,23.52,0,0,1-9.77,4.36,19.11,19.11,0,0,1-3.41.32,13.21,13.21,0,0,1-2.27-.18,8.1,8.1,0,0,1-1.6-.43,3.67,3.67,0,0,1-.56-.27l-.25-.15-.1-.15a7.65,7.65,0,0,1-.79-1.43,21.86,21.86,0,0,1-1.79-1.85,24.58,24.58,0,0,1-3.25-4.64,14.76,14.76,0,0,1-1.91-6.73h0a7,7,0,0,1,1.29-4.28s1.06-1.4,2.61-3.58c.55-.77,1.15-1.65,1.78-2.6l-.17,0-3-.65-3.72-.77-1.64-.33,0,0-.14,0-.53-.2a16.27,16.27,0,0,0-2-.57,14.45,14.45,0,0,0-3-.32,11.92,11.92,0,0,0-1.75.13h0a8.27,8.27,0,0,1,1.22-.09h0l.72,0h0l-.74,0h0a8.31,8.31,0,0,0-1.23.09h0v0c-.2.44-.39.88-.58,1.32s-.43,1-.63,1.51l-.64,1.59-.76,1.94-.71,1.92-.17.46,0,0,0,.06-.06.13h0a5,5,0,0,1-.37.46l0,0c-.26.3-.54.54-.54.57h0s.28-.27.54-.57l0,0a5,5,0,0,0,.37-.46h0l.06-.13,0-.06,0,0,.17-.46.71-1.92.76-1.94L70,81.33c.2-.5.42-1,.63-1.51s.38-.88.58-1.32v0h0a3.79,3.79,0,0,0-.62.12h0l-.14,0-.16,0-.12,0L70,78.8h0l-.16.08h0l0,0h0l.27-.17h0l.24-.17h0l.22-.19,0,0a8,8,0,0,0,.9-.94h0c.13-.15.27-.35.4-.53h0a4.54,4.54,0,0,0,.33-.54l.15-.26.12-.26h0l0,.07-.08.17-.23.5a5.25,5.25,0,0,0,.39-.64,1.2,1.2,0,0,0,.19-.45v0s-.06,0-.11.15h0l.27-.58a5.69,5.69,0,0,0,.45-1.22,2.52,2.52,0,0,0,.06-.52c0-.29-.08-.52-.23-.58-.37.21-.64.33-.64.33h0a.9.9,0,0,1,.55-.34h.09c.21-.11.44-.25.69-.4a4.34,4.34,0,0,1-1,.1,6.64,6.64,0,0,1-1.42-.16c-1.24-.27-2.49-.94-2.51-1.93l-1-.68c-.65-.44-1.64-1.12-2.63-1.94-2-1.63-3.82-3.85-4-5.58h0s.13-1.45.13-3.16c0-.22,0-.45,0-.68-.59-.31-1.18-.64-1.76-1C58,55.35,56.2,53.77,56.2,51h0a7.83,7.83,0,0,1,.19-1.66,26.56,26.56,0,0,1,6.85-12.18,3.33,3.33,0,0,1,1.12-.76"/><path class="a" d="M93.08,68.09A79.49,79.49,0,0,0,102,73.86a26.28,26.28,0,0,0-6.27-4.56,22.64,22.64,0,0,0-2.67-1.21"/><path class="a" d="M78.83,75a.17.17,0,0,0,0,.07,1,1,0,0,0,.52.85,3.07,3.07,0,0,0,.58.3A5,5,0,0,0,78.83,75"/><path class="a" d="M72.48,75.76l-.12.26.08-.17,0-.07h0"/><path class="a" d="M72.36,76l-.15.26a4.54,4.54,0,0,1-.33.54h0a5.64,5.64,0,0,1-.4.53h0a8.93,8.93,0,0,1-.9.94l.22-.2c.12-.13.14-.13.49-.51a11.63,11.63,0,0,0,.85-1.07l.23-.5"/><path class="a" d="M41.57,77.6a5.55,5.55,0,0,1-.64.46l.47.06a4.51,4.51,0,0,0,.17-.52"/><path class="a" d="M71.25,78.47h-.12a3.61,3.61,0,0,0-.5.12l-.17,0,.14,0h0a3.79,3.79,0,0,1,.62-.12h0"/><path class="a" d="M70.3,78.53l-.24.17.24-.17"/><path class="a" d="M110.76,78.69q-.49.42-1.11.9l.24.53a7.46,7.46,0,0,0,.87-1.43"/><path class="a" d="M70.06,78.7l-.27.17h0l.23-.16"/><polyline class="a" points="69.97 78.8 69.97 78.8 69.96 78.8 69.97 78.8"/><path class="a" d="M69.79,78.87h0"/><path class="a" d="M88.1,78.94l.49.21v0l-.5-.18"/><path class="a" d="M91.28,80.22a.86.86,0,0,1,0,.16c.63.31,1.27.64,1.94,1l.92.26-.36-.19c-.82-.44-1.66-.86-2.51-1.24"/><path class="b" d="M65.27,36.19a2.39,2.39,0,0,0-.91.22,2.45,2.45,0,0,1,.79-.17.55.55,0,0,1,.29.06c.66.32.73,1.16.77,2.14a8.21,8.21,0,0,0,.42,2.94c.24,0,.47.29.75.29a.54.54,0,0,0,.28-.09,1.59,1.59,0,0,1,1-.27h.07a12.05,12.05,0,0,1,3.9,4c1.66,1.15,3.1,1,5.62,2.15A18.79,18.79,0,0,0,82,48.88a8.88,8.88,0,0,1,2,.94,7.5,7.5,0,0,1,1.84,1.81A22.65,22.65,0,0,0,88,54a12.65,12.65,0,0,0,2.2,1.72A28,28,0,0,0,93,57.16c1.1.49,2.3,1.06,3.77,1.78a20.21,20.21,0,0,1,2.91,1.93c.54.45,1.13.94,1.74,1.47s1.17,1.13,1.77,1.72c2.37,2.38,4.56,5.23,6.16,6.64a4.81,4.81,0,0,1,2,2.77,10.64,10.64,0,0,0,1.56,3.22l.11.12h0a11,11,0,0,1-1.56-3.23,4.85,4.85,0,0,0-2-2.79c-1.59-1.42-3.79-4.28-6.15-6.68a28.62,28.62,0,0,0-6.42-5.16c-1.48-.72-2.68-1.3-3.77-1.8a27.11,27.11,0,0,1-2.79-1.5,12.83,12.83,0,0,1-2.21-1.74A24,24,0,0,1,86,51.57a7.41,7.41,0,0,0-1.85-1.82,9,9,0,0,0-2-1,19.86,19.86,0,0,1-3.82-1.38,17.44,17.44,0,0,0-3.14-1.09,7.69,7.69,0,0,1-2.48-1.06,12,12,0,0,0-3.89-4,1.67,1.67,0,0,0-1,.27.54.54,0,0,1-.27.09c-.29,0-.52-.27-.76-.28a8.44,8.44,0,0,1-.41-2.94c0-1-.11-1.82-.77-2.13a.53.53,0,0,0-.28-.06"/><path class="c" d="M65.15,36.24a2.45,2.45,0,0,0-.79.17,3.33,3.33,0,0,0-1.12.76,26.56,26.56,0,0,0-6.85,12.18A7.83,7.83,0,0,0,56.2,51c0,2.76,1.78,4.34,3.35,6.24.58.34,1.17.67,1.76,1v-.3c-.09-2.11-.37-4.25-1.85-4.79a18.25,18.25,0,0,1-.55-4.42h0c0-.39,0-.79,0-1.18.19-2.28,1-4.2,2.32-4.2a1.72,1.72,0,0,1,.7.16l1.52.09a17.64,17.64,0,0,1,2.32.19s.61.71,1.63,1.75a41,41,0,0,0,4.12,3.62c1.59,1.27,3.55,2.45,5.19,3.61s2.76,2.25,2.79,2.9L82.1,58c1.52,1.42,3.34,3.3,5.4,5.27a58.54,58.54,0,0,0,5.58,4.78,22.64,22.64,0,0,1,2.67,1.21A26.28,26.28,0,0,1,102,73.86c1.84,1,3.89,2.14,6.19,3.3,0,0,.16.22.42.62a15.25,15.25,0,0,1,1,1.68l.06.13q.61-.48,1.11-.9a7.15,7.15,0,0,0,.41-1.1s.17.13.44.38L113,76.81l-.11-.12a10.64,10.64,0,0,1-1.56-3.22,4.81,4.81,0,0,0-2-2.77c-1.6-1.41-3.79-4.26-6.16-6.64-.6-.59-1.17-1.19-1.77-1.72s-1.2-1-1.74-1.47a20.21,20.21,0,0,0-2.91-1.93c-1.47-.72-2.67-1.29-3.77-1.78a28,28,0,0,1-2.78-1.49A12.65,12.65,0,0,1,88,54a22.65,22.65,0,0,1-2.14-2.32A7.5,7.5,0,0,0,84,49.82a8.88,8.88,0,0,0-2-.94,18.79,18.79,0,0,1-3.8-1.37c-2.52-1.18-4-1-5.62-2.15a12.05,12.05,0,0,0-3.9-4h-.07a1.59,1.59,0,0,0-1,.27.54.54,0,0,1-.28.09c-.28,0-.51-.28-.75-.29a8.21,8.21,0,0,1-.42-2.94c0-1-.11-1.82-.77-2.14a.55.55,0,0,0-.29-.06"/><path class="d" d="M61.27,43.34c-1.35,0-2.13,1.92-2.32,4.2,0,.39,0,.79,0,1.18a18.25,18.25,0,0,0,.55,4.42c1.48.54,1.76,2.68,1.85,4.79,0,.33,0,.66,0,1h0c0,1.71-.13,3.16-.13,3.16.22,1.73,2.05,3.95,4,5.58,1,.82,2,1.5,2.63,1.94l1,.68c0,1,1.27,1.66,2.51,1.93a6.64,6.64,0,0,0,1.42.16,4.34,4.34,0,0,0,1-.1l.17-.12c.21-.13.32-.26.52-.4a3.88,3.88,0,0,1,.62-.4c.23-.1.47-.21.74-.31l.81-.16.49,0a3.64,3.64,0,0,1,2.46.85,1.49,1.49,0,0,1,.42.92h0a.76.76,0,0,1,0,.15,1.87,1.87,0,0,1-.82,1.16l-.13.22a2.49,2.49,0,0,0-.24.54,1.36,1.36,0,0,0,0,.3,5,5,0,0,1,1.09,1.22c.22.09.48.18.77.28s.68.22,1.12.34l1.45.43c1.14.34,2.42.76,4.14,1.41l.7.28.5.18c.72-1.13,1.45-2.33,2.15-3.55a7.1,7.1,0,0,0,.63-1.18v0l0,.9-.06,1.29,0,1v1.2c0,.6,0,1.1,0,1.49.85.38,1.69.8,2.51,1.24l.36.19,1.31.35a39.09,39.09,0,0,0,5.21,1,17.7,17.7,0,0,0,2.07.12,11.06,11.06,0,0,0,4-.67,7.16,7.16,0,0,0,2.62-1.74,7.46,7.46,0,0,0,.51-.59l-.24-.53-.06-.13a15.25,15.25,0,0,0-1-1.68c-.26-.4-.42-.62-.42-.62-2.3-1.16-4.35-2.26-6.19-3.3a79.49,79.49,0,0,1-8.94-5.77,58.54,58.54,0,0,1-5.58-4.78c-2.06-2-3.88-3.85-5.4-5.27l-2.56-2.38c0-.65-1.16-1.76-2.79-2.9s-3.6-2.34-5.19-3.61a41,41,0,0,1-4.12-3.62c-1-1-1.63-1.75-1.63-1.75a17.64,17.64,0,0,0-2.32-.19L62,43.5a1.72,1.72,0,0,0-.7-.16"/><path class="e" d="M77.19,70.84l-.49,0-.81.16c-.27.1-.51.21-.74.31a3.88,3.88,0,0,0-.62.4c-.2.14-.31.27-.52.4l-.17.12c-.25.15-.48.29-.69.4.15.06.23.29.23.58h0a2.52,2.52,0,0,1-.06.52A5.69,5.69,0,0,1,72.87,75l-.27.58c.05-.1.09-.15.11-.15v0h0a1.2,1.2,0,0,1-.19.45,5.25,5.25,0,0,1-.39.64l-.74,1.64-.14.31A11.92,11.92,0,0,1,73,78.34a14.45,14.45,0,0,1,3,.32,16.27,16.27,0,0,1,2,.57l.53.2.14,0,0,0,1.64.33L84,80.6l3,.65.17,0h0c-.63.95-1.23,1.83-1.78,2.6-1.55,2.18-2.61,3.58-2.61,3.58a7,7,0,0,0-1.29,4.28,14.76,14.76,0,0,0,1.91,6.73,24.58,24.58,0,0,0,3.25,4.64A21.86,21.86,0,0,0,88.46,105a7.65,7.65,0,0,0,.79,1.43l.1.15.25.15a3.67,3.67,0,0,0,.56.27,8.1,8.1,0,0,0,1.6.43,13.21,13.21,0,0,0,2.27.18,19.11,19.11,0,0,0,3.41-.32,23.52,23.52,0,0,0,9.77-4.36A24.55,24.55,0,0,0,112.05,98a24.19,24.19,0,0,0,2.9-5,17.6,17.6,0,0,0,1.45-5.6,12.26,12.26,0,0,0-.66-3.24,15.83,15.83,0,0,0-2.81-4.82A16.24,16.24,0,0,0,111.61,78c-.27-.25-.44-.38-.44-.38a7.15,7.15,0,0,1-.41,1.1,7.39,7.39,0,0,1-1.38,2,7.16,7.16,0,0,1-2.62,1.74,11.06,11.06,0,0,1-4,.67,17.7,17.7,0,0,1-2.07-.12,39.09,39.09,0,0,1-5.21-1l-1.31-.35-.92-.26c-.67-.37-1.31-.7-1.94-1a.86.86,0,0,0,0-.16c0-.39,0-.89,0-1.49h0v-1.2l0-1,.06-1.29,0-.9v0a7.1,7.1,0,0,1-.63,1.18C90,76.8,89.31,78,88.59,79.15l-.49-.21-.7-.28c-1.72-.65-3-1.07-4.14-1.41l-1.45-.43c-.44-.12-.81-.23-1.12-.34s-.55-.19-.77-.28a3.07,3.07,0,0,1-.58-.3,1,1,0,0,1-.52-.85h0a2.35,2.35,0,0,1,.05-.37,2.49,2.49,0,0,1,.24-.54l.13-.22a1.87,1.87,0,0,0,.82-1.16.76.76,0,0,0,0-.15,1.49,1.49,0,0,0-.42-.92,3.64,3.64,0,0,0-2.46-.85"/><path class="e" d="M73.06,72.65a.9.9,0,0,0-.55.34s.27-.12.64-.33h-.09"/><path class="e" d="M72.13,76.52a11.63,11.63,0,0,1-.85,1.07c-.35.38-.37.38-.49.51l-.22.2a2.18,2.18,0,0,1-.27.23h0l-.24.17h0l-.23.16L70,78.8h0l.23-.08h0l.26-.08.17,0a3.61,3.61,0,0,1,.5-.12h.12l.14-.31.74-1.64"/><path class="e" d="M70.57,78.3l0,0-.22.19h0a2.18,2.18,0,0,0,.27-.23"/><path class="e" d="M70.46,78.64l-.26.08h0L70,78.8l.21-.07.12,0,.16,0"/><path class="f" d="M70.46,78.64l-.26.08h0l.26-.08h0"/><polyline class="e" points="70.06 78.7 70.06 78.7 70.06 78.7 70.06 78.7"/><path class="e" d="M70,78.8l-.13.06,0,0L70,78.8"/><path class="e" d="M69.8,78.88h0"/><path class="g" d="M49,74.91a3.82,3.82,0,0,0-1.31,1,2.22,2.22,0,0,1-1.65.66h0c-.75-.06-1.88-.37-2.81-.4H43c-.8,0-1.42.24-1.42.93a1,1,0,0,0,0,.17,1,1,0,0,1,0,.17h0a1.1,1.1,0,0,1,0,.18,6.43,6.43,0,0,0-.25.89.49.49,0,0,0,.26.44h0c.46-.19,1.28-.14,1.89-.32,1.17-.2,1.72-.83,2.81-.83l.41,0a16.57,16.57,0,0,1,3.68.86,6.48,6.48,0,0,0,1.16.18h.08a2.92,2.92,0,0,1,1.27.64.63.63,0,0,0,.42.2.75.75,0,0,0,.24,0c.05-.75.21-1,.39-1a.3.3,0,0,1,.15,0c.24.13.46.54.67.62s.19.55.29.86c.29.28,1-.17,1,.76h0a3.14,3.14,0,0,1,0,.39c-.57,3.17-1.33,5.94-1.75,8.39a12,12,0,0,0-.11,1.67,15.15,15.15,0,0,0,.38,3.4,13.75,13.75,0,0,0,2.36,5.28c1.79,2.37,4.78,2.38,6.89,4v0h0c0,.05-.15.24-.45.46q.43.18.87.33c.27-.14,1.1-.24,1.36-.39a3.47,3.47,0,0,1,1.3,1.71c.83,3.4,3.18,5.75,5.83,7.8s5.6,3.85,7.82,6.47c1,.84,2.46,2.06,4.06,2.06h.22a8.35,8.35,0,0,1,1.34-.07h.71a6.81,6.81,0,0,0,1-.07,3.56,3.56,0,0,0,.47-.1,3,3,0,0,1,.44-.06l.59-.09c1.51-.33,3.87-.71,7.15-1.6l1.33-.38,1.41-.45c.5-.16,1-.33,1.49-.52s1.1-.42,1.64-.64a41,41,0,0,0,7.4-4l1-.67,1-.75c.66-.51,1.29-1,1.92-1.58a37,37,0,0,0,3.62-3.68,35,35,0,0,0,3-4.12,32,32,0,0,0,2.12-4,27.42,27.42,0,0,0,1.94-6.26,16.85,16.85,0,0,0,.3-3c0-.24,0-.46,0-.66-.11.47-.26,1.09-.49,1.87s-.51,1.68-.92,2.75a33.82,33.82,0,0,1-4.32,8,33.22,33.22,0,0,1-6.29,6.52c-.65.52-1.32,1-2,1.46a33.81,33.81,0,0,1-8.63,4.17,34.9,34.9,0,0,1-10.51,1.6c-1.1,0-1.94,0-2.51-.1l-.87-.08a5.2,5.2,0,0,1-1.53.23,7.53,7.53,0,0,1-4.94-2c-1.18-.66-1.79-3.39-1.87-5.68h0c0-.83.63-1.73.68-2.55,0-2.19-.66-3.8-.65-5.8h0a10.14,10.14,0,0,1,.41-2.81,2.59,2.59,0,0,0,.18-1,6.1,6.1,0,0,0-.89-3,.61.61,0,0,0-.43-.12c-1.19,0-4.4,1.26-7.92,2.2A42.62,42.62,0,0,1,62.49,97a1.41,1.41,0,0,1-.44,0h0a1.88,1.88,0,0,0-.87.44,1.86,1.86,0,0,1-.88.44h-.07c-1.57-1.26-1.64-3.76-1.68-6a7.34,7.34,0,0,0-1.42-3.45,9.8,9.8,0,0,1-1-1.44h0v0c1.49-2.11,3-5,4.74-6.11a7.69,7.69,0,0,0,.87-1.32,5.38,5.38,0,0,0,.49-1.69s0-.09,0-.11h0c.15,0,.22-.06.22-.16,0-.32-.7-1-1.48-1.59a3.63,3.63,0,0,0-1.69-.76c-.21,0-.34.09-.34.3a.88.88,0,0,0,0,.21h0A.82.82,0,0,0,58.1,75a2.38,2.38,0,0,0-1.1.38c-.78.42-1.5,1.09-2.07,1.09h-.1c-.42,0-.78-.52-1.22-.92a1.27,1.27,0,0,0-.78-.42.51.51,0,0,0-.46.32c-.26.33-.42.77-.58,1a.29.29,0,0,1-.21.11c-.15,0-.36-.14-.71-.52A3.64,3.64,0,0,0,49,74.91"/><polyline class="g" points="53.31 80.62 53.33 80.67 53.34 80.68 53.33 80.66 53.31 80.62"/><path class="g" d="M53.66,82v0"/><path class="h" d="M71.88,76.82c-.13.18-.27.38-.4.53a5.64,5.64,0,0,0,.4-.53"/><path class="h" d="M69.77,78.88h0m.43-.16L70,78.8h0l-.13.06h0L70,78.8h0l.23-.08m1.27-1.36a8,8,0,0,1-.9.94,2.18,2.18,0,0,1-.27.23,2.18,2.18,0,0,0,.27-.23,8.93,8.93,0,0,0,.9-.94"/><path class="h" d="M72.51,78.39h0l.74,0-.72,0"/><path class="h" d="M72.48,78.39a8.27,8.27,0,0,0-1.22.09,8.31,8.31,0,0,1,1.23-.09h0"/><path class="h" d="M71.24,78.48h0m0,0h0"/><path class="h" d="M68.63,84.86l-.71,1.92.71-1.92m.76-1.94-.76,1.94.76-1.94M70,81.33l-.64,1.59L70,81.33m1.21-2.83c-.2.44-.39.88-.58,1.32.19-.44.38-.88.58-1.32"/><path class="h" d="M71.22,78.49a3.79,3.79,0,0,0-.62.12,3.79,3.79,0,0,1,.62-.12"/><path class="i" d="M70.46,78.64h0l-.26.08h0l.26-.08h0"/><path class="h" d="M70.6,78.61l-.14,0-.26.08.26-.08.14,0"/><path class="h" d="M67.64,87.46a5,5,0,0,1-.37.46,5,5,0,0,0,.37-.46"/><path class="h" d="M67.24,88c-.26.3-.54.54-.54.57s.28-.27.54-.57m0,0,0,0,0,0"/><path class="j" d="M53.34,80.68h0l0,0,0,0v0m-7.06-2.9c-1.09,0-1.64.63-2.81.83-.61.18-1.43.13-1.89.32V79h0c0,.2-.14.42-.14.58s.06.19.25.24A3.4,3.4,0,0,0,43,80h.69A14.33,14.33,0,0,1,45.14,80a27.4,27.4,0,0,1,5.15.58,10.77,10.77,0,0,1,2.74.83c.2.1.4.21.58.32,0,.1,0,.21,0,.32s0,.25.05.39a9,9,0,0,1,0,1h0v.05a2.44,2.44,0,0,1,0,.27h0c0,.24,0,.48,0,.55v0a0,0,0,0,0,0,0,9.4,9.4,0,0,0,.51-1.2c0-.13.08-.19.12-.19s.07.1.07.24h0a25.65,25.65,0,0,1-1,5.34c-.42,1.71-.89,3.37-1.28,5.1a7.65,7.65,0,0,0-.22,2,10.3,10.3,0,0,0,.41,2.88,14.47,14.47,0,0,0,2.32,4.69,7.75,7.75,0,0,0,5.41,2.49,5.47,5.47,0,0,0,1.18-.13,4,4,0,0,0,2.46-1.35v0c-2.11-1.6-5.1-1.61-6.89-4a13.75,13.75,0,0,1-2.36-5.28,15.15,15.15,0,0,1-.38-3.4h0a12,12,0,0,1,.11-1.67c.42-2.45,1.18-5.22,1.75-8.39a3.14,3.14,0,0,0,0-.39c0-.93-.66-.48-1-.76-.1-.31-.15-.76-.29-.86s-.43-.49-.67-.62a.3.3,0,0,0-.15,0c-.18,0-.34.25-.39,1a.75.75,0,0,1-.24,0,.63.63,0,0,1-.42-.2,2.92,2.92,0,0,0-1.27-.64h-.08a6.48,6.48,0,0,1-1.16-.18,16.57,16.57,0,0,0-3.68-.86l-.41,0"/><path d="M60.61,113.54c3.2.73,6.38,1.58,9.62,2.14,2.72.46,5.51.59,8.27.83.71.06,1.44-.08,2.17-.08,8.73,0,16.89-2.27,24.88-5.62,4.66-2,7.83-5.42,10.32-9.5,4.92-8.07,5.21-16.94,2-25.43-2.7-7.12-7.5-12.88-15.22-15.83-4.59-1.76-8.79-4.61-13-7.25C85.3,50.05,81.13,47,76.92,44a12.51,12.51,0,0,0-6.28-2.73,7.91,7.91,0,0,0-.93,1.09c-2.69,4.41-5.44,8.79-8,13.27-3.39,5.9-6.78,11.82-9.92,17.85C49,78.88,48,84.86,47.6,90.85A17.72,17.72,0,0,0,49.2,99c1.39,3,3.64,5.71,5.57,8.51a3.22,3.22,0,0,0,2.64,1.26,21.84,21.84,0,0,0,10.92-1.63,18.34,18.34,0,0,1,5.13-1q7.88-.81,15.76-1.41a20.94,20.94,0,0,1,5.25.11,29.13,29.13,0,0,0,12.29-.63c1.82-.44,3.62-1.43,6.27-.71a14.32,14.32,0,0,1-2.57,1.74c-5.42,1.93-10.92,2.94-16.74,1.89-2.28-.41-4.71,0-7.07.13-2.16.13-4.32.7-6.46.63a39,39,0,0,0-14.61,2.24c-2.93,1.07-5.93.77-8.91.66a4.31,4.31,0,0,1-2.5-1c-3.87-3.53-7.13-7.6-8.41-12.74a26.19,26.19,0,0,1-.38-8.62,49,49,0,0,1,5.14-17.68C55.16,61.45,60.91,53,66.22,44.27A12.33,12.33,0,0,1,69.66,40c1.49-1,2.78-1.34,4.25-.38,2.41,1.58,4.79,3.18,7.12,4.87,1.08.77,1.88,2,3,2.62C90.73,50.77,96.9,55.33,104,58.37c12.14,5.2,17.91,14.78,17.89,27.85A35,35,0,0,1,120.7,96a20.71,20.71,0,0,1-4.42,8.4,72.45,72.45,0,0,1-5.08,5.41c-2.85,2.49-6.43,3.7-9.92,5a62,62,0,0,1-8.63,2.48c-10,2-19.91,2.3-29.61-1.49-.92-.36-1.79-.86-2.68-1.29Z"/><path d="M107.47,97a10.57,10.57,0,0,1-.26-1.75c.15-5.65-1.33-11.06-2.57-16.48a26.36,26.36,0,0,0-9.36-15.32,60.43,60.43,0,0,1-4.8-4.4,27.31,27.31,0,0,1-2.12-2.77c1.14,0,1.75-.19,2,0,2.4,2.1,4.61,4.43,7.13,6.38a23.17,23.17,0,0,1,8,12.25c1.38,4.74,2.34,9.62,3.25,14.49a26.83,26.83,0,0,1,.11,5.88,6.13,6.13,0,0,1-.71,1.85Z"/><path d="M59.65,98.26c-3.08-2.22-3.54-5.39-3.85-8.39A40.28,40.28,0,0,1,58,70.67a38.08,38.08,0,0,0,1.25-4.14c.25-.93.51-2,1.71-1.71s.7,1.41.44,2.29c-1,3.36-2.18,6.68-2.85,10.1C57.21,84,57.1,90.73,59.75,97.29,59.81,97.44,59.72,97.67,59.65,98.26Z"/><path d="M93.62,88.63c-1.28.51-1.63-.3-1.8-1.13-.27-1.31-.38-2.66-.63-4a46.89,46.89,0,0,0-7.72-19c-.78-1.09-1.5-2.23-2.22-3.36-.1-.15,0-.39-.06-.83.53,0,1.17-.19,1.54,0a5.34,5.34,0,0,1,1.14,1.44A50.3,50.3,0,0,1,93.62,88.63Z"/><path d="M69.18,63a1.17,1.17,0,0,1,1.89.35,9.76,9.76,0,0,1,1.18,2.51c1.57,5.25,3.24,10.46,3.8,16,.31,3.07,1,6.11,1.5,9.16a1.82,1.82,0,0,1-.32,1.38c-1.92-4.79-2.18-10-3.53-14.83S70.72,67.89,69.18,63Z"/><path d="M75.74,52.62l-4,4.66C70.57,56,69.57,55,68.49,53.79c1.72-.46,1.72-.46,3.3.6l4.32-3.94,4,2,.53-2.91L83,50.74c-.67,1.25-1.24,2.31-1.94,3.63Z"/><path d="M58.51,62.66C61.84,60.38,64,57,67.32,54.81l.51.47c-1,1.19-2,2.41-3,3.56-1.32,1.44-2.67,2.86-4.05,4.23C60.16,63.65,60.1,63.59,58.51,62.66Z"/></svg>