<svg xmlns="http://www.w3.org/2000/svg" viewBox="0 0 150 150"><defs><style>.a{fill:#fff9d6;}.b{fill:#fff3a9;}.c{fill:#fff2a6;}.d{fill:#fff4b0;}.e{fill:#fff7c4;}.f{fill:#fffce6;}.g{fill:#fff6c0;}.h{fill:#fffdf5;}</style></defs><title>icon</title><path class="a" d="M93.08,108.23a5,5,0,0,0-.27.57,6.73,6.73,0,0,1,.74-.48l-.47-.09m-17.15-9,0,0h0l0,0h0m0-.07v0h0l0,0h0m.52-.86-.09.14,0,0,.06-.09h0m0,0v0h0v0m0,0,0,.06h0l-.29.48h0l.34-.56m.22-.34,0,.06h0l.05-.07m.1-.15h0v0m.2-.28-.19.26,0,0,.21-.3m.58-.76,0,.07,0,0,0,0m.18-.22-.27.33.15-.18.12-.15m.32-.38h0M79.79,87H80l-.24,0m-.25,0h.15l-.15,0m3.08,0h0m.47,0h0m.13,0h0m.45-.06-.29,0-.22,0h.09l.42,0m.19,0h0m-6.63-.1h0l.06,0h0l-.08,0m-.27,0,.09,0-.07,0h0m-4.43-2.52,0,0c.26.18.63.44,1,.71s.89.55,1.39.82,1,.5,1.43.69l.62.24.17,0,2,.23h0l-2-.23L77,86.6l-.22-.11-.12,0c-.34-.18-.72-.37-1.06-.57a17.5,17.5,0,0,1-1.78-1.11c-.07,0-.49-.26-1.28-.61m-1.84-.68a1.8,1.8,0,0,0,.19.2l.82.15c-.3-.12-.64-.23-1-.35M72,82.68l.17.19L72,82.68M51.37,74a18.74,18.74,0,0,0,3.73,4.75s.3.18.85.45L55.64,79A23.09,23.09,0,0,1,51.37,74m54.28-2.13c-.38.5-1.31,1.73-2.23,3.11.29.8.55,1.62.77,2.43-.07,3.55.06,6.62-3.26,8.89a34.56,34.56,0,0,1-13.36,5.11,1.53,1.53,0,0,1-.3,0,2.19,2.19,0,0,1-1-.29,2.23,2.23,0,0,0,1.16.36,1.53,1.53,0,0,0,.3,0,34.56,34.56,0,0,0,13.36-5.11c3.32-2.27,3.2-5.34,3.27-8.9a15.44,15.44,0,0,1,1.33-5.6M65.36,69.17a7.48,7.48,0,0,0-.94,2.17A8.16,8.16,0,0,0,65,76.87a10.84,10.84,0,0,0,.56,1.06,14.35,14.35,0,0,1-.74-6.09,13.36,13.36,0,0,1,.51-2.67M56.77,55.84A12.67,12.67,0,0,0,52.58,59a12.54,12.54,0,0,0-1.28,1.77c.42-.46.94-1,1.52-1.57a44.85,44.85,0,0,1,4-3.37M36,46.48c-1.36,1.57-2.51,2.94-3.54,4.28a12.28,12.28,0,0,0,1.25-1.37l0,0L36,46.48m3.35-4.18-.06.25,0,0c0-.07,0-.13,0-.2m10.06-10c-.59.29-1.18.59-1.75.91a19.1,19.1,0,0,0-7.08,6.27,16,16,0,0,1,1.91-2.21h0a1.37,1.37,0,0,1,.17-.17,24.58,24.58,0,0,1,3.24-2.65c.62-.43,1.26-.85,1.91-1.25l.08,0h0c.5-.29,1-.58,1.52-.85m28.41-1.44c.67.41,1.32.77,2,1.09A27.81,27.81,0,0,0,83,33.39c-.24-.1-.47-.21-.71-.33a47.82,47.82,0,0,0-4.48-2.22m-17.28-2.5a75.83,75.83,0,0,0-11.13,3.94c-.51.27-1,.56-1.52.85h0l-.08,0c-.65.4-1.29.82-1.91,1.25a24.58,24.58,0,0,0-3.24,2.65,1.37,1.37,0,0,0-.17.17h0a16,16,0,0,0-1.91,2.21,10.59,10.59,0,0,0-1.23,2.84c0,.07,0,.13,0,.2l0,0,0,.17C38.08,44.13,37,45.36,36,46.48l-2.26,2.87,0,0a12.28,12.28,0,0,1-1.25,1.37l-.55.72a14.84,14.84,0,0,0-3.22,8.81,46.83,46.83,0,0,0,.36,5.36c.1.38.2.77.32,1.17-.12-.4-.22-.79-.32-1.17.34,2.72.87,5.33,1.43,7.81.91,4.05,1.89,8,2.36,11.52a60.39,60.39,0,0,1,.92,11.25c0,.66-.87,2.31-1.82,4.12s-2,3.74-2.47,4.66a4.54,4.54,0,0,0,.46,4.85,10.25,10.25,0,0,0,4,3.19c2.67.91,5,1.76,7.22,2.73s4.35,2.12,6.63,3.41c1.28,1.15,1.38,3.25,2.93,4.78,4.2,3.11,9.63,2.72,14.09,2.83a23.38,23.38,0,0,0,4.89.54,18.65,18.65,0,0,0,3.82-.39,9.81,9.81,0,0,0,3.71-1.46c1.14-.84,1-1.33,1.12-1.33l.09,0h.13c1.24,0,2.17,2.52,4.13,2.62a5.52,5.52,0,0,0,3.4-1.67,7.45,7.45,0,0,0,1.8-3.11,81.91,81.91,0,0,0,2.14-8.4,10.56,10.56,0,0,1,1.3-3.32h-.06l-.43,0c-1-.1-2.08-.52-2.85-.64h-.21a2.82,2.82,0,0,0-1.75.64,6.19,6.19,0,0,1-1.71,1.08,4.39,4.39,0,0,1-2.2-1,1.32,1.32,0,0,0-.83-.43c-.58,0-.87.8-1.42,1.35a.82.82,0,0,1-.74.42,2.18,2.18,0,0,1-1-.3,4.17,4.17,0,0,0-1.62-.73h-.12c-.72,0-1.46.82-2.29,1.34a2.47,2.47,0,0,1-1.27.49,1,1,0,0,1-.88-.6c.17.37,0,.53-.33.53a3.81,3.81,0,0,1-1.77-.69c-1.09-.7-1.85-1.77-1.27-1.77h0a3.75,3.75,0,0,1,.64-1.74,10.44,10.44,0,0,1,1-1.25,10.61,10.61,0,0,0,2.42-2.66c.79-1.12,1.57-2.33,2.26-3.42a4.73,4.73,0,0,0,.09-.85,4.47,4.47,0,0,1,.9-2.17c1.16-1.53,2.69-3,2.71-3.59h0a3.37,3.37,0,0,0-.75.3,2.79,2.79,0,0,1-.79.31h0c-.06-.08-.81,0-2-.1a31.44,31.44,0,0,1-4.23-.64c-3.05-.64-5.93-2.1-5.62-2.62a6.27,6.27,0,0,1,3.54-1.69c3.63-.64,5.14-1.51,8.16-2,.8-.13,1.8-.21,2.61-.34,1.1-.19,2.27-.39,3.25-.5l.34,0-.65,0-.7,0H80.2L80,87l-.57,0h-.19l-2-.23.16.06h0l-.16,0-.34,0-.63-.08c-.38,0-.83,0-1.37,0a12.39,12.39,0,0,0-1.69.27A22,22,0,0,0,69.1,88.2c-1.61.67-3.36,1.57-5.11,2.28a11.13,11.13,0,0,1-4.05,1,5.69,5.69,0,0,1-1.22-.13s-.43-.08-1.16-.28a27.34,27.34,0,0,1-3.06-1,24.89,24.89,0,0,1-9-6,23.26,23.26,0,0,1-6-13.35,20.7,20.7,0,0,1,4.9-15.79,2.73,2.73,0,0,0,.29-.38,11.21,11.21,0,0,0,.72-1.28,21.67,21.67,0,0,0,1-2.47c.41-1,.84-2.34,1.39-3.94A21.64,21.64,0,0,1,49.55,45a24.58,24.58,0,0,1,4.82-3.51,16.29,16.29,0,0,1,7.68-2.22,7.33,7.33,0,0,1,4.45,1.3l2.51.77c1.47.5,3.43,1.2,5.29,2s3.75,1.64,5.37,2.25a10.59,10.59,0,0,0,3.52.84,4.62,4.62,0,0,0,.65,0,11.27,11.27,0,0,0,1.84,2.23,5.92,5.92,0,0,0,2.56,1.5c.8,0,1.42,0,1.71,0h.18a3.9,3.9,0,0,1-1,.15,4,4,0,0,1-.85-.1c-.64,0-1.4.09-2.21.18.78,0,1.6.08,2.43.18a23.51,23.51,0,0,1,5.27,1.25c3.4,1.24,5.91,3.35,5.86,4.49a22.14,22.14,0,0,1,4.74,6.29,17.9,17.9,0,0,1,1.73,5.26,8.88,8.88,0,0,1,0,3.14l.75-1.74c1.4-3.17,3.06-6.83,4.34-10.58,1.1-2.76,2.66-6,2.72-9.67a10.72,10.72,0,0,0-1.34-5.55,13.29,13.29,0,0,0-5.28-5.08,30.72,30.72,0,0,0-8.39-2.87A43.9,43.9,0,0,0,92,34.69c-2-.07-3.74-.08-5.26-.28h0l.41.07c1,.16,2,.27,3.11.37l8.56.58-8.56-.58c-1.06-.1-2.11-.21-3.11-.37l-.41-.07a12.79,12.79,0,0,1-3.67-1,28.58,28.58,0,0,1-3.24-1.46c-.63-.32-1.28-.68-2-1.09s-1.49-.59-2.27-.86a27,27,0,0,0-8.44-1.44l-.6-.11a6.85,6.85,0,0,0-2,.24h0c-1.29-.15-2.59-.28-4-.33m2.1-.17h-.43a12.58,12.58,0,0,0-1.49.11l-.18.05c1.39.05,2.69.18,4,.33h0a6.85,6.85,0,0,1,2-.24,20.71,20.71,0,0,0-2.38-.22c-.5,0-1,0-1.49,0"/><path class="b" d="M86.79,86.3l-.21.07c-.84,1.16-1.66,2.35-1.34,3.68a2,2,0,0,0,1,1.12,1.94,1.94,0,0,1-.88-1c-.33-1.39.57-2.62,1.44-3.82M72.12,82.87c.17.19.29.33.38.45s.23.32.31.43a3,3,0,0,0,.91,1l.09.06h0a3.26,3.26,0,0,1-.93-.94,3.83,3.83,0,0,0-.31-.43l-.46-.53m4.21-10.72a3.91,3.91,0,0,0-.83.09,6.14,6.14,0,0,0-3.76,2.92,6.65,6.65,0,0,0-1.35,3.63,6.13,6.13,0,0,0,1.45,3.76l.11.13,0,0a6.11,6.11,0,0,1-1.48-3.74,6.44,6.44,0,0,1,1.28-3.62,6.07,6.07,0,0,1,3.72-2.93,4,4,0,0,1,.84-.09,5.52,5.52,0,0,1,3.18,1.2,5.21,5.21,0,0,0,2.88,1.41,3.21,3.21,0,0,1,2.06.78,7.16,7.16,0,0,0,1.07.84,2.34,2.34,0,0,1,.93,1.3,16.37,16.37,0,0,0-.27,2.38,8.36,8.36,0,0,0,.28,2.37,1.83,1.83,0,0,0,.93.57c.49.12.39.7.59,1a8.75,8.75,0,0,1-1.32,2.24h0l.17,0a8.92,8.92,0,0,0,1.26-2.15c-.21-.29-.1-.87-.6-1a1.81,1.81,0,0,1-.92-.58,8.6,8.6,0,0,1-.29-2.4,16.79,16.79,0,0,1,.27-2.4,2.43,2.43,0,0,0-1-1.34,8.28,8.28,0,0,1-1.1-.86c-.43-.56-1.22-.64-2.06-.79a5.33,5.33,0,0,1-2.87-1.41,5.55,5.55,0,0,0-3.21-1.21"/><path class="c" d="M74.53,64.84a13.94,13.94,0,0,0-2.46.21,11,11,0,0,0-4.76,2,8.12,8.12,0,0,0-2,2.1,13.36,13.36,0,0,0-.51,2.67,14.35,14.35,0,0,0,.74,6.09,16.32,16.32,0,0,0,4.09,4.41s.41.5,1,1.08l0,0c.37.12.71.23,1,.35l.48.08.35.25c.79.35,1.21.58,1.28.61l-.09-.06a3,3,0,0,1-.91-1c-.08-.11-.16-.25-.31-.43s-.21-.26-.38-.45L72,82.68l-.11-.13a6.13,6.13,0,0,1-1.45-3.76,6.65,6.65,0,0,1,1.35-3.63,6.14,6.14,0,0,1,3.76-2.92,3.91,3.91,0,0,1,.83-.09,5.55,5.55,0,0,1,3.21,1.21,5.33,5.33,0,0,0,2.87,1.41c.84.15,1.63.23,2.06.79a8.28,8.28,0,0,0,1.1.86,2.43,2.43,0,0,1,1,1.34,16.79,16.79,0,0,0-.27,2.4,8.6,8.6,0,0,0,.29,2.4,1.81,1.81,0,0,0,.92.58c.5.12.39.7.6,1a8.92,8.92,0,0,1-1.26,2.15l.09,0h0l.12,0h.06l-.07,0-.13,0-.1,0c-.87,1.2-1.77,2.43-1.44,3.82a1.94,1.94,0,0,0,.88,1,2.19,2.19,0,0,0,1,.29,1.53,1.53,0,0,0,.3,0,34.56,34.56,0,0,0,13.36-5.11c3.32-2.27,3.19-5.34,3.26-8.89-.22-.81-.48-1.63-.77-2.43l-.18.26c-1.25,1.95-2.48,3.93-1.79,5.6a16.22,16.22,0,0,1-1,1.73,18.26,18.26,0,0,1-2.59,3.08c-1.22,1.15-2.53,2-3.53,2a1.51,1.51,0,0,1-1.46-1.26l-1-1.38c-.55-.75-1.2-1.57-1.51-2.1,0,0,.08-1.05,0-2.53a17.74,17.74,0,0,0-.88-5.19,11.51,11.51,0,0,0-2.84-4.64c-1.26-1.26-2.54-2.19-2.66-2.84A13.74,13.74,0,0,0,80.69,66a17.66,17.66,0,0,0-6.16-1.18"/><path class="d" d="M86,50.25l-.55.07c-1.28.16-2.56.41-4,.68s-3,.59-4.65.94c-3.25.68-6.69,1.6-9.61,2.37a22.89,22.89,0,0,1-5.05.93,3.45,3.45,0,0,1-1.7-.36,5.34,5.34,0,0,0-.66.06,7.67,7.67,0,0,0-1.81.43,8.53,8.53,0,0,0-1.21.47,44.85,44.85,0,0,0-4,3.37c-.58.58-1.1,1.11-1.52,1.57a12.43,12.43,0,0,0-1.73,6.81A14.51,14.51,0,0,0,51.37,74,23.09,23.09,0,0,0,55.64,79l.31.27c.33.16.74.36,1.22.57a45.26,45.26,0,0,0,5,1.82,88.68,88.68,0,0,0,8.72,2.06,1.8,1.8,0,0,1-.19-.2l0,0c-.55-.58-1-1.08-1-1.08a16.32,16.32,0,0,1-4.09-4.41A10.84,10.84,0,0,1,65,76.87a8.16,8.16,0,0,1-.61-5.53,7.48,7.48,0,0,1,.94-2.17,8.12,8.12,0,0,1,2-2.1,11,11,0,0,1,4.76-2,13.94,13.94,0,0,1,2.46-.21A17.66,17.66,0,0,1,80.69,66,13.74,13.74,0,0,1,84,67.73c.12.65,1.4,1.58,2.66,2.84a11.51,11.51,0,0,1,2.84,4.64,17.74,17.74,0,0,1,.88,5.19c0,1.48,0,2.53,0,2.53.31.53,1,1.35,1.51,2.1l1,1.38a1.51,1.51,0,0,0,1.46,1.26c1,0,2.31-.85,3.53-2a18.26,18.26,0,0,0,2.59-3.08,16.22,16.22,0,0,0,1-1.73c-.69-1.67.54-3.65,1.79-5.6l.18-.26c.92-1.38,1.85-2.61,2.23-3.11l.17-.24a3.88,3.88,0,0,0,.24-.79,8.88,8.88,0,0,0,0-3.14,17.9,17.9,0,0,0-1.73-5.26,22.14,22.14,0,0,0-4.74-6.29c0-1.14-2.46-3.25-5.86-4.49a23.51,23.51,0,0,0-5.27-1.25c-.83-.1-1.65-.16-2.43-.18"/><path class="e" d="M76.89,86.66H77l.07,0,.16,0h0l.08,0h0l.09,0-.16-.06-.35,0m0,0h0m-.12,0h0M90,50c-.29,0-.91,0-1.71,0a4,4,0,0,0,.85.1,3.9,3.9,0,0,0,1-.15H90m-27.9-10.8a16.29,16.29,0,0,0-7.68,2.22A24.58,24.58,0,0,0,49.55,45a21.64,21.64,0,0,0-1.71,1.8c-.55,1.6-1,2.9-1.39,3.94a21.67,21.67,0,0,1-1,2.47,11.21,11.21,0,0,1-.72,1.28,2.73,2.73,0,0,1-.29.38,20.7,20.7,0,0,0-4.9,15.79,23.26,23.26,0,0,0,6,13.35,24.89,24.89,0,0,0,9,6,27.34,27.34,0,0,0,3.06,1c.73.2,1.16.28,1.16.28a5.69,5.69,0,0,0,1.22.13,11.13,11.13,0,0,0,4.05-1c1.75-.71,3.5-1.61,5.11-2.28a22,22,0,0,1,4.12-1.37,12.39,12.39,0,0,1,1.69-.27c.54,0,1,0,1.37,0l.63.08h0l.36,0-.17,0-.62-.24c-.45-.19-1-.43-1.43-.69s-1-.56-1.39-.82-.79-.53-1-.71l0,0-.35-.25-.48-.08-.82-.15a88.68,88.68,0,0,1-8.72-2.06,45.26,45.26,0,0,1-5-1.82c-.48-.21-.89-.41-1.22-.57-.55-.27-.85-.45-.85-.45A18.74,18.74,0,0,1,51.37,74a14.51,14.51,0,0,1-1.8-6.43,12.34,12.34,0,0,1,3-8.58,12.67,12.67,0,0,1,4.19-3.17A8.53,8.53,0,0,1,58,55.37a7.67,7.67,0,0,1,1.81-.43,5.34,5.34,0,0,1,.66-.06,3.45,3.45,0,0,0,1.7.36,22.89,22.89,0,0,0,5.05-.93c2.92-.77,6.36-1.69,9.61-2.37,1.63-.35,3.21-.67,4.65-.94s2.74-.52,4-.68l.55-.07c.81-.09,1.57-.15,2.21-.18a5.92,5.92,0,0,1-2.56-1.5,11.27,11.27,0,0,1-1.84-2.23,4.62,4.62,0,0,1-.65,0,10.59,10.59,0,0,1-3.52-.84c-1.62-.61-3.48-1.46-5.37-2.25s-3.82-1.51-5.29-2l-2.51-.77a7.33,7.33,0,0,0-4.45-1.3"/><path class="f" d="M76.09,99l0,0-.09.16v0l0-.1.07-.13m.71-1.11-.06.09,0,0,0-.06,0-.06m.5-.69c-.17.22-.31.41-.42.58h0l.19-.26c.07-.1.15-.21.24-.32m4.09-4.3-.88.8-.39.38-.75.74-.59.63-.22.24a37.86,37.86,0,0,1,2.83-2.79m-2-5.93h0L80,87h-.61m-.11,0h0m0,0h0m3.92,0h-.26l-.31,0h-.19c-.53,0-1.05.06-1.51.06L80,87h0l.2,0h1.63l.7,0,.65,0h0m-5.94-.18.16,0h0l-.09,0-.06,0m-.37-.06h0l.34,0h0l-.16,0-.09,0h-.08m0,0h0l.35,0,2,.23h0l-2-.23-.36,0m0,0h0m0,0h0m-.06,0h0m0,0h0m6.57.23h0m3.57-.62-.09,0-.17,0h0c-.55.11-1,.22-1.53.3s-.84.14-1.25.19h-.16l-.42,0h-.07l-.34,0c-1,.11-2.15.31-3.25.5-.81.13-1.81.21-2.61.34-3,.5-4.53,1.37-8.16,2a6.27,6.27,0,0,0-3.54,1.69c-.31.52,2.57,2,5.62,2.62a31.44,31.44,0,0,0,4.23.64c1.17.1,1.92,0,2,.1h0a2.79,2.79,0,0,0,.79-.31,3.37,3.37,0,0,1,.75-.3h0c0,.59-1.55,2.06-2.71,3.59a4.47,4.47,0,0,0-.9,2.17,4.73,4.73,0,0,1-.09.85c-.69,1.09-1.47,2.3-2.26,3.42a10.61,10.61,0,0,1-2.42,2.66,10.44,10.44,0,0,0-1,1.25,3.75,3.75,0,0,0-.64,1.74h0c-.58,0,.18,1.07,1.27,1.77a3.81,3.81,0,0,0,1.77.69c.34,0,.5-.16.33-.53a1,1,0,0,0,.88.6,2.47,2.47,0,0,0,1.27-.49c.83-.52,1.57-1.32,2.29-1.34h.12a4.17,4.17,0,0,1,1.62.73,2.18,2.18,0,0,0,1,.3.82.82,0,0,0,.74-.42c.55-.55.84-1.35,1.42-1.35a1.32,1.32,0,0,1,.83.43,4.39,4.39,0,0,0,2.2,1,6.19,6.19,0,0,0,1.71-1.08,2.82,2.82,0,0,1,1.75-.64H88c.77.12,1.89.54,2.85.64l.43,0h.06c.74,0,1.32-.31,1.36-1.11a1.34,1.34,0,0,1,.07-.39,5,5,0,0,1,.27-.57c.16-.33.27-.64,0-.92h0c-.51.19-1.34.09-2,.26-1.16.14-1.86.71-2.89.71a2.72,2.72,0,0,1-.61-.07,28.33,28.33,0,0,1-3.81-1,6.49,6.49,0,0,0-1-.1,2.81,2.81,0,0,0-.59.06c-1,0-1.73-.09-2.41-.09a5.71,5.71,0,0,0-1.79.23c-.07.83-.34,1.08-.64,1.08a.52.52,0,0,1-.17,0c-.37-.1-.73-.47-1-.52s-.34-.52-.52-.82a.65.65,0,0,0-.34-.07H75c-.31,0-.58-.09-.57-1a21.33,21.33,0,0,1,.72-4.46,16.28,16.28,0,0,1,.68-1.9l.2-.44v0l-.06.1h0v0h0l0,0,0,0h0l0,0h0l0,0h0l0-.09c.09-.15.17-.32.24-.46l.08-.21,0-.09,0,0-.09.27s0,.1,0,.15l.2-.34.09-.14h0v0l.24-.35.11-.16h0l.1-.14c.16-.24.36-.5.59-.79l.27-.33.32-.38h0l.56-.63.08-.08h0c.49-.56,1.1-1.16,1.72-1.74l.42-.4c.42-.42.73-.74.84-.88.4-.45.26-.59,0-.79a1,1,0,0,1-.5-1,3.12,3.12,0,0,1,.56-.23,1,1,0,0,0-.15-.21c-.23.06-.69.06-.93.12,0-.23.29-.5.8-.92a28.43,28.43,0,0,1,4.89-3l.13,0,.21-.07.1,0m.2-.05H87l-.12,0h0l.13,0,.07,0"/><path class="g" d="M28.58,61.42h0a18.43,18.43,0,0,0,.5,4.23c.1.38.2.77.32,1.17-.12-.4-.22-.79-.32-1.17a18.43,18.43,0,0,1-.5-4.23m1.17-6.32,0,.06a17.57,17.57,0,0,0-1.15,6.26h0a17.57,17.57,0,0,1,1.15-6.26l0-.06m1.57-3.05a14.74,14.74,0,0,0-1.57,3.05,14.74,14.74,0,0,1,1.57-3.05m2.45-2.7,0,0a12.28,12.28,0,0,1-1.25,1.37,2,2,0,0,1-.39.26,10.19,10.19,0,0,0-.78,1h0a10.19,10.19,0,0,1,.78-1,2,2,0,0,0,.39-.26,12.28,12.28,0,0,0,1.25-1.37l0,0m2.28-2.89,0,0-2.26,2.87L36,46.48l0,0m6.47-9.21h0a16,16,0,0,0-1.91,2.21,6.65,6.65,0,0,0-1.23,2.84c0,.07,0,.13,0,.2l0,0-1,1.16c-.64.73-1.48,1.72-2.27,2.75h0c.79-1,1.63-2,2.27-2.75l1-1.16,0,0c0-.07,0-.13,0-.2a6.65,6.65,0,0,1,1.23-2.84,16,16,0,0,1,1.91-2.21h0m.17-.17a1.37,1.37,0,0,0-.17.17,1.37,1.37,0,0,1,.17-.17m5.15-3.9c-.65.4-1.29.82-1.91,1.25a24.58,24.58,0,0,0-3.24,2.65,24.58,24.58,0,0,1,3.24-2.65c.62-.43,1.26-.85,1.91-1.25m.08,0-.08,0,.08,0M50,32h0l-.51.27c-.51.27-1,.56-1.52.85h0c.5-.29,1-.58,1.52-.85L50,32h0m29.85-.08A28.58,28.58,0,0,0,83,33.39c.38.15.76.28,1.13.39a18.46,18.46,0,0,0,2.54.63l.41.07c1,.16,2,.27,3.11.37l8.56.58-8.56-.58c-1.06-.1-2.11-.21-3.11-.37l-.41-.07a18.46,18.46,0,0,1-2.54-.63c-.37-.11-.75-.24-1.13-.39a27.81,27.81,0,0,1-3.24-1.46M52.32,30.88c-.77.34-1.57.71-2.37,1.13.8-.42,1.6-.79,2.37-1.13m24.9-.42.63.38c.67.41,1.32.77,2,1.09-.63-.32-1.28-.68-2-1.09l-.63-.38m-20-1.35h0a40.22,40.22,0,0,0-4.94,1.77,40.22,40.22,0,0,1,4.94-1.77h0m9.42-.68h-.14a6.85,6.85,0,0,0-2,.24h0a6.85,6.85,0,0,1,2-.24h.14m.1,0h0m0,0h0a26.49,26.49,0,0,1,5.4.6,37,37,0,0,1,3.58.94c.92.28,1.46.49,1.46.49h0s-.54-.21-1.46-.49A37,37,0,0,0,72.18,29a26.49,26.49,0,0,0-5.4-.6m-6.38-.09a30.12,30.12,0,0,0-3.14.77,30.12,30.12,0,0,1,3.14-.77m0,0h.17c1.39.05,2.69.18,4,.33-1.29-.15-2.59-.28-4-.33H60.4m0,0h0"/><path class="h" d="M76,99.21v0l.09-.16,0,0-.07.13,0,.1m.52-.87-.06.09,0,0-.2.34s0-.1,0-.15l.09-.27,0,0,0,.09-.08.21c-.07.14-.15.31-.24.46l0,.09h0l0,0h0l0,0h0l0,0h0l.06-.1v0l-.2.44a16.28,16.28,0,0,0-.68,1.9,21.33,21.33,0,0,0-.72,4.46c0,.88.26,1,.57,1h.28a.65.65,0,0,1,.34.07c.18.3.33.73.52.82s.66.42,1,.52a.52.52,0,0,0,.17,0c.3,0,.57-.25.64-1.08a5.71,5.71,0,0,1,1.79-.23c.68,0,1.46.06,2.41.09a2.81,2.81,0,0,1,.59-.06,6.49,6.49,0,0,1,1,.1,28.33,28.33,0,0,0,3.81,1,2.72,2.72,0,0,0,.61.07c1,0,1.73-.57,2.89-.71.65-.17,1.48-.07,2-.26h0c0-.39.55-.83,0-1a5.43,5.43,0,0,0-2-.31l-.66,0a23.72,23.72,0,0,1-6-1,17,17,0,0,1-5-2.08,11.45,11.45,0,0,1-2.22-1.83h0c-.07,0,.09.83,0,1.21,0,.56-.27.5-.47.54s-.4.19-.72,1.26c0,.14-.08.19-.13.19s-.1-.08-.13-.22a13.43,13.43,0,0,1,.45-5.22h0l.29-.48m0,0h0m.24-.37-.24.35v0l0-.06.15-.23,0,0h0l0,0m1.19-1.57-.23.28-.15.18c-.23.29-.43.55-.59.79l-.1.14v0l-.11.16.06-.09,0-.07,0,0h0c.11-.17.25-.36.42-.58l.29-.37,0-.07.29-.35m.85-1-.08.08-.56.63h0l-.21.25.63-.72.22-.24m1.73-1.75c-.62.58-1.23,1.18-1.72,1.74h0l.59-.63.75-.74.39-.38m4.15-3.88a6.42,6.42,0,0,0-1.19.16,12.28,12.28,0,0,0-1.49.4l-.14,0a3.12,3.12,0,0,0-.56.23,1,1,0,0,0,.5,1c.25.2.39.34,0,.79-.11.14-.42.46-.84.88l-.42.4.88-.8c1.1-1,2.17-1.84,2.77-2.31l.64-.49.08-.07L85,89.9c0-.06-.08-.08-.22-.09h-.07"/><path d="M75.52,36.45a75.33,75.33,0,0,1,18.41,2.26c3.23.87,6,2.59,9.1,3.67,1.33.46,2.68.87,4,1.31a2.84,2.84,0,0,1,.75.2c2.56,1.77,5.17,3.47,7.6,5.39a10,10,0,0,1,2.16,3c2.41,4.31,4.89,8.59,7.09,13a30.17,30.17,0,0,1,3,11.67c.16,2.69.5,5.37.52,8.06a30.53,30.53,0,0,1-3.83,15.25,68.26,68.26,0,0,1-5.71,9.4c-3.88,5-9,8.21-14.4,11.15-6.52,3.56-13.55,3.78-20.7,3.07-5-.5-10-1.12-15-1.6-2.82-.27-5-1.78-7.07-3.46-.48-.39-.91-1-1.46-1.14-3.82-1.08-6.64-3.9-10-5.81-3.76-2.16-6.6-5.45-9.18-9a49.14,49.14,0,0,1-7.45-15.44c-.54-1.87-.38-4-.93-5.81a15.9,15.9,0,0,1-.27-7.47c1.33-7.36,2.84-14.74,8.12-20.48,3.45-3.75,7.29-7.15,11-10.68a11.76,11.76,0,0,1,1.81-1.13c1.4-.92,2.8-1.86,4.19-2.8a10.37,10.37,0,0,1,5.27-1.88C66.92,37,71.22,36.72,75.52,36.45ZM111,97.93c-.13-.4-.26-.58-.23-.72a5.51,5.51,0,0,1,.39-1.29,18.77,18.77,0,0,0,2-9.57,43.75,43.75,0,0,1,.35-8.33,23,23,0,0,0-.11-7.77,21.06,21.06,0,0,0-1.61-3.72,3.89,3.89,0,0,0,.08-1.77c-1.41-4.38-3.06-8.65-6-12.28A32.62,32.62,0,0,0,86.35,40.9c-2.18-.44-4.47-.34-6.69-.63a64.81,64.81,0,0,0-16.87.18A22.76,22.76,0,0,0,51,46c-2.4,2-4.49,4.41-6.8,6.54a23.87,23.87,0,0,0-6.91,10.13c-.63,1.89-2.25,3.48-1.77,5.72a25.45,25.45,0,0,0-1.38,13.44c.91,6.59,3.47,12.34,6.75,18,4.27,7.4,11.29,11.39,18.18,15.6.34.21,1.08-.22,1.75-.38,1.37,1.09,2.77,2.71,5,1.46a.57.57,0,0,1,.5.09c1.5,1.42,3.26.69,4.88.49,2.4-.3,4.78-.83,7.17-1.3.93-.18,1.84-.48,2.71-.72,0-1-1.35-1.76-.06-2.52.19,0,.44-.08.53,0,2.12,2.06,4.86,2.2,7.56,2.38a4.74,4.74,0,0,0,2-.42,30,30,0,0,0,11.62-9c.52-.64,1-1.3,1.76-2.29l-1.83.27a1.74,1.74,0,0,1-2.17-1.5,2.21,2.21,0,0,1,.64-1.82,1.69,1.69,0,0,1,2.58.51c.68,1.3,1.83.71,2.22.73,1,2.65,1.93,4.88,2.82,7.11l-.5.28-2.82-3.63-.54.1a5.64,5.64,0,0,0-.1,2,20.46,20.46,0,0,0,1.4,2.6,15.59,15.59,0,0,1,.66,1.69l-.57.28-3.21-3.78-1.44,1,2.24,4.47-.58.41-3.08-3.38-1.09,1.13c.42,2.08,2,3,2,5.4l-3.42-4-7.09,3.71c.19.63.38,1.25.77,2.49l-3.48-2.7c.3,1.24.5,2.08.83,3.42-1.91-1.41-2.87-3.12-5.11-3.93.64,1.49,1.09,2.56,1.55,3.64L85,120l-4.1-3.14c-.51,1.35,1.35,2.18.62,3.56-1.76-.8-2.58-3.15-4.91-2.77v1.84L73,117.92c.63,1.38,1,2.14,1.42,3.11,5.22.32,10.42.8,15.62.92,10.57.23,18.68-5.07,25.83-12.14,3-3,4.94-6.8,6.79-10.63a35.11,35.11,0,0,0,3-8.91c1-5.23.36-10.41-.25-15.59A32.63,32.63,0,0,0,124.08,70c-1,1.66-1.75,3-2.57,4.26-1,1.56-1.93,3.08-.45,4.88.17.2,0,.66,0,1.48l-1.74-2.48c-1.73,1.91,1.63,2.93.58,4.58-2.56-2.11-2.56-2.11-3.47-1.59,1.31,2.77,2.64,5.55,4,8.33l-.6.37c-1.93-2.13-2.41-5.37-4.92-7.39a9.44,9.44,0,0,0,1.2,6.47c.92,1.48,1.59,3.1,2.37,4.66l-.53.34-2.75-3.46a4.36,4.36,0,0,0,0,4.79,22.05,22.05,0,0,1,1.37,3.32l-.49.24-2.63-3.67a16.62,16.62,0,0,1-1.06,1.59A16.5,16.5,0,0,1,111,97.93Zm6.38-41.84c-2.51,2.69-3.94,4.91-4.14,6.49,0,.27.27.59.5,1.05l4.7-5.18C118.18,57.81,117.86,57.1,117.4,56.09Zm.73,13.28L122,64.76l-1.35-2.24c-1.22,2.07-2.27,3.79-3.22,5.56C117.31,68.28,117.79,68.78,118.13,69.37Zm5.19-2-.8-.42c-.91,1.08-1.84,2.13-2.71,3.24s-.29,1.75.79,2.44C121.42,70.71,123.69,69.64,123.32,67.34ZM119.6,60a10.61,10.61,0,0,0-4.28,5c-.1.22.4.69.64,1.08C118.32,63.69,119.45,61.89,119.6,60Zm-5.68-8.63c-3.22,2.76-3.61,3.47-3.16,4.65L115,52.74Zm1.94,2.37c-1.77,1.7-3.45,3.23-3.65,5.8a44.77,44.77,0,0,0,4.08-4.94C116.35,54.56,116.09,54.23,115.86,53.78Zm-6.93,0,3.66-3.38L111,49.09C110.28,50.61,108.71,51.47,108.93,53.77ZM67.76,119.39c1.58,1.37,3,1.16,4.76,1.21C71.19,118.56,69.72,118.73,67.76,119.39Zm42.15-71.17c-2-.4-2.49.12-2.84,3.05Zm8.48,23.92c-.89,1.4,0,1.9.6,2.76C120,73.61,119.37,73,118.39,72.14Zm-13.06-23.5,2.11-1.84C105.66,46.7,105.23,47.36,105.33,48.64ZM116.85,74.3c-.53,1.46.06,2.06.82,2.8C118.36,75.79,117.42,75.33,116.85,74.3Zm.63-3.62a5.43,5.43,0,0,0-.94-.84c-.09,0-.54.39-.52.43a2.94,2.94,0,0,0,.7.86C116.8,71.19,117.14,70.89,117.48,70.68ZM102.71,44.86l-.27-.72c-.45.18-.9.35-1.33.56a3.19,3.19,0,0,0,.23.61C101.8,45.19,102.25,45,102.71,44.86Z"/><path d="M77.25,72.28c.21-1,.42-2.18.75-3.38,1-3.49,5.25-3.69,7.57-2,1,.69.64,1.71.18,3.08-.59-.48-1.33-.83-1.31-1.12.07-1.22-.6-1.63-1.57-1.78-1.17-.17-2.32-.2-3.18.9-1,1.27-1.27,2.32-1.08,5.31l4.72,1.48c.84,6.37.84,6.37-.87,8.55l.42-2.17c-2.09-1.73-4.06-3.21-5.81-4.92-.54-.53-.44-1.71-.71-2.92L71,75l3.53,1.87c-1,.74-1.58,0-2.24-.17s-1.34-.45-2.27-.76a10.65,10.65,0,0,0-1.17,2,1.68,1.68,0,0,0,1.57,2.29,4.52,4.52,0,0,0,4.2-1.55l2.61,4.46c-1-.05-1-.05-2.82-1.57l-2.46.87C74.18,84.75,77,84,80,84.24c-5,1.88-8.45.67-9.31-3.1a4.59,4.59,0,0,1-3.59-2.28c-1.29-2.37-.49-4,2.17-4.21a6.45,6.45,0,0,0,1.33-.13C72.74,73.81,74.91,73.06,77.25,72.28Zm3.35,6.28c2.08-1.69,2.08-1.69,0-2.7Zm-12-2.37L68,75.86l-.66,1.56.34.16Zm14.91,2.75c-.36-.25-.63-.51-.7-.46a3.24,3.24,0,0,0-.63.65c.18.14.4.43.55.39S83.17,79.21,83.51,78.94Z"/><path d="M85.63,103.39l-2.85-3c.39-1.64-.26-2.73-2.25-3.3s-2.64.29-3.86,4.69c-.62-2.1-.49-3.72.91-5.13s3.13-.76,4.66-.07c.69-.74.58-1.31-.25-1.44-2.09-.33-3.22-1.46-3.14-3.58-2.83-.06-3.65.62-4.4,4-.33-1.06-.67-1.57-.6-2a4,4,0,0,1,4-3.31,6.36,6.36,0,0,0,3.43-1.2c2-1.35,2.07-1.33,5.49-.74-2.13.61-4.23.24-5.46,2.06l1.38,1.32-2.28-.26c-.47,2.16-.47,2.16,2.25,2.85.83-1.24,1.36-2.89,3.48-2.69a8.6,8.6,0,0,1,5.67,2.72c.23.25.51.66.46.94-.26,1.41.81,2.09,1.48,3,.53.73,1.26,1.49.51,2.71l-2-3.09A8.79,8.79,0,0,1,90.63,99a4.55,4.55,0,0,1-2.29.36A2.25,2.25,0,0,1,87,97.93c-.09-.35.53-1.15,1-1.34a18.83,18.83,0,0,1,3-.71c-1.18-2.28-3.29-3.44-5.4-3-1.55.32-2.52,2.76-1.84,4.73s1.35,3.74,2,5.61Zm3-5.58c.08.2.15.41.23.61l1.23-.59-.18-.42Z"/><path d="M65.51,54.7c2.39.39,3.66-.55,3.92-2.73s-.46-2.61-4.3-3c-.24-.93-.21-2.16-1.76-2.12a2.89,2.89,0,0,0-3.11,2.26c.66,1.54,3.07,1.42,3.09,3.66l-2.62-1.49c-.31,2.16-.31,2.16,2.64,3.63l-3.64.63c.07,1.79,1.6,1.62,2.37,2.55-.1.85.14,2.38-.39,2.73a9.75,9.75,0,0,1-4,1.17,4.27,4.27,0,0,1-3.77-1.47l3,.5,2-4.05c-.26-.6-1-1.73.36-2.82.21-.16,0-.8,0-1.21.06-1.52,0-3,.22-4.54a2.82,2.82,0,0,1,2-2.29A5.9,5.9,0,0,0,63.66,45l-2-.25c.16-.2.22-.37.31-.39a16.62,16.62,0,0,0,2.85-.47c2.18-.8,2.72-.66,4.38,1.61-1.41-.17-2.71-1.18-4.37-.21,1.28,1.14,1.88,2.54,3.68,3s2.28,2.2,2,4.24c-.28,1.8-1.67,3.55-3,3.75C66.45,56.37,65.61,56.21,65.51,54.7Zm-7.22,5.82.55.66L61,60.44l0-.6c-.55-.28-1.18-.87-1.65-.76S58.65,60,58.29,60.52Z"/><path d="M59.22,103.76c1.94-.39,3,.78,4.24,1.63,1.38,1,2.82,1.81,4.71,3-.34-2.45-.57-4.39,2.27-4.16-1.69-4.91-1.55-6,1.2-8.32-.67,1.84-2,3.13-1.31,5l1.6-.67c-1.19,3.14-1.08,3.84,1.5,5.9L71.8,107c.14.21.24.49.42.58,1.2.57,2.42,1.1,3.79,1.72-3.13.38-5.32-1.07-5.9-3.76-1.18.65-1.18.65-.84,3.41-2.27.29-4.29-2.41-7-.53l2.54,2.25L64,112l4.54,1.48c-.62.29-.87.51-1,.46a53.42,53.42,0,0,1-5.1-1.69c-1.13-.47-1.35-1.35-.27-2.33C60.5,108.23,58.67,106.58,59.22,103.76Zm.76.73.91,3.1L63,106.35c-.67-.52-1.13-.91-1.62-1.25A13.38,13.38,0,0,0,60,104.49Z"/><path d="M52.59,58.3l-1.33-2.79a8.77,8.77,0,0,0-5.51.63c.14,2,1.74,2.59,2.94,3.6-1.92.1-4.2-1.91-4.11-3.52.07-1.09.87-1.55,1.82-1.67,1.23-.16,2.47-.21,3.66-.3a22.64,22.64,0,0,1-.59-4c.05-1.79,1.63-1.89,2.87-2,1.43-3.61,2.15-3.83,5.85-1.52-1-.16-1.42-.22-1.85-.32C54.2,46,54.16,46,53.66,48.56c.46.85,2.33.94,1.44,2.93a5.91,5.91,0,0,1-1.71-.7c-.74-.63-1.35-1.72-2.43-.74s-.7,2,0,2.93a3.5,3.5,0,0,0,.46.39c2.29-2.22,4.43-.07,6.76.16-.91,1.59-2.13.45-3.3.56-1,1.53-.19,2.75,1,4.09-2,0-2.17-1.68-3.33-2.41a13.83,13.83,0,0,1,.56,1.87c0,.16-.38.4-.59.61Z"/><path d="M47.77,90.26c-1.18,1.09-2.07.28-2.6-.63a1.82,1.82,0,0,1,.92-2.69,28,28,0,0,1,0-4.87c.34-1.83,1.3-2.36,3.13-2.1a9.21,9.21,0,0,1,3.33.87c1.68,1,1.88,2.57.91,5.06l-2.26-.71a8.64,8.64,0,0,1-1.42,1,8.49,8.49,0,0,1-1.95.37A15.32,15.32,0,0,1,49.42,88c.35.45.86,1.08.76,1.49s-.89.63-1.42.83a3.05,3.05,0,0,1-1,0c-.29-.71-.19-1.77-1.47-1.74C45.88,90.1,47.18,89.84,47.77,90.26ZM51,81.51c-3.56-.93-4.45-.08-4.2,3.93L51,83.31Z"/><path d="M52.56,70.33c-3.59-.31-7.18-3.12-7.8-5.72.87-.74,1.81-.42,2.72-.07,1.67.63,3.3,1.36,5,1.94,1.21.41,2.4,1,3.74,0,.47-.37,1.58,0,2.39.11l0,.64-.86.1-1.08,0,.44,3.35c-.81.26-1.45-.52-1.64-1.17-.53-1.83-2-1.89-3.38-1.94-.43,0-.87.45-1.31.69.24.42.45.86.72,1.26A6.8,6.8,0,0,0,52.56,70.33Zm-2.49-3.89-4-1.15a3.6,3.6,0,0,0,3.07,2.76C49.38,67.61,49.64,67.17,50.07,66.44Z"/><path d="M83.24,105.31c-2.52,1-4.11-.29-5.54-2.27-2.07,3,.56,4.22,2,5.93-2.29-.56-4.09-2.83-4-4.74a2.74,2.74,0,0,1,2-2.32,8.09,8.09,0,0,1,6.3.56H80.15A4.31,4.31,0,0,0,83.24,105.31Z"/><path d="M88.69,66l-1.44,1.22,1.57,1.43c-.2.18-.36.41-.41.38-2-.83-2.33-1.67-1.24-3.38a10.21,10.21,0,0,1,.79-1c-.3-1-.57-1.85-.85-2.73l.4-.14,1.27,2.08a38.31,38.31,0,0,1,4,1.41,1.44,1.44,0,0,1,.77,2c-.49.91-1.38.78-2.12.41A31.69,31.69,0,0,1,88.69,66Z"/><path d="M86.82,76.6c-.21,2.37.26,2.92,2.49,2.91.6,0,1.21,0,2.32,0-1.89,1.22-3.4,1.17-4.8.26a4.79,4.79,0,0,1-2-4.93c.1-.84.17-1.69.26-2.54l0,.06,2.6-1.56c1,1.76.7,3.48-.91,5.89.11-1.07.21-2.14.31-3.21A4.23,4.23,0,0,0,85.8,75.8C85.76,76,86.46,76.33,86.82,76.6Z"/><path d="M82.45,47.87V45.38l-2.5.36c1.57-.81,2.93-1.61,4.37-2.21a2.17,2.17,0,0,1,1.71.24,6.23,6.23,0,0,1,2.68,3.91c.36,1.5-.36,2.7-1.92,3.44-1.88.9-2.78.69-4.4-1a13.47,13.47,0,0,0,3.32.55c2-.15,2.8-1.72,1.89-3.47a23.11,23.11,0,0,0-2.17-3C83.46,45.63,83.46,45.63,82.45,47.87Z"/><path d="M98.47,69.88l-1.13-.66a1.61,1.61,0,0,1-.73-.8,8.51,8.51,0,0,1,4.61,1.8,11.71,11.71,0,0,1,2.32,2.24c1.13,1.3.66,2.58-1,3a3.6,3.6,0,0,1-4-3.07A19.9,19.9,0,0,1,98.47,69.88Zm5,4.1c-1.54-1-1.87-2.63-3.53-2.84C99.51,74,100.17,74.62,103.49,74Z"/><path d="M87.36,100.3c1.84,1,3.18,1.63,4.46,2.39s1.2,2.51,2.05,3.75a4.85,4.85,0,0,1-1.1-.75,5.82,5.82,0,0,0-3.33-2.11,5.07,5.07,0,0,1-2-1.58C87.2,101.79,87.36,101.23,87.36,100.3Z"/><path d="M78.35,112.53l-3.92-.77c-.5,1.8,1,1.94,1.85,2.66-1.89.36-4-1.71-3.46-3.28A1.47,1.47,0,0,1,74,110.4,6,6,0,0,1,78.35,112.53Z"/><path d="M94.12,70.92A3.38,3.38,0,0,1,97.34,73l-2.65-.74c-.3,2.89,2,3.18,3.7,4.09C94.9,77,92.87,74.33,94.12,70.92Z"/><path d="M52.53,58.25l-1.46,2.09c0,1.65,1.72,1.88,2.83,2.93-2.17-.08-4.18-1.44-4.31-2.94a2.14,2.14,0,0,1,.92-1.64,5.71,5.71,0,0,1,2.08-.39Z"/><path d="M85.59,104.58c2.4.13,2.8,3.41,5.39,2.35C88.77,108.49,86.78,107.61,85.59,104.58Z"/><path d="M106.28,99.34c-2.67-2-2.67-2-6.42-2.66C102.78,95.4,105.89,96.68,106.28,99.34Z"/><path d="M86,109.54h5.57C89,111.27,87.36,111.25,86,109.54Z"/><path d="M110.63,98.41c-.1,1.81-1.33,2.46-2.61,3.12-.74-1.06.34-1.44.66-2.06S109.2,97.82,110.63,98.41Z"/><path d="M61.53,62.33c-1.14,1.89-.43,3.69.34,5.75C59.53,66.33,59.47,64.51,61.53,62.33Z"/><path d="M85.07,72.3c-.95.66-1.83,1.1-2.22-.69,1-.38,1.73-.18,2.17.75Z"/></svg>