<svg xmlns="http://www.w3.org/2000/svg" viewBox="0 0 150 150"><defs><style>.a{fill:#d9cdc5;}.b{fill:#bcab9e;}.c{fill:#816654;}.d{fill:#7e614e;}.e{fill:#89715d;}.f{fill:#a48c7d;}.g{fill:#d2c8be;}.h{fill:#9d8575;}.i{fill:#ece8e4;}.j{fill:#fff9d6;}.k{fill:#bba784;}.l{fill:#806447;}.m{fill:#7e5e41;}.n{fill:#886e4e;}.o{fill:#a38969;}.p{fill:#d2c29d;}.q{fill:#ebe2bf;}.r{fill:#fff3a9;}.s{fill:#bba168;}.t{fill:#806137;}.u{fill:#7f5d34;}.v{fill:#fff2a6;}.w{fill:#bba165;}.x{fill:#7e5b32;}.y{fill:#886b3c;}.z{fill:#fff4b0;}.aa{fill:#80623a;}.ab{fill:#7e5d35;}.ac{fill:#886b40;}.ad{fill:#fff7c4;}.ae{fill:#fffce6;}.af{fill:#bba88e;}.ag{fill:#d2c5aa;}.ah{fill:#ebe4cc;}.ai{fill:#7e5d3a;}.aj{fill:#886c45;}.ak{fill:#bba476;}.al{fill:#fffdf5;}.am{fill:#bba998;}.an{fill:#d2c6b6;}.ao{fill:#ebe6da;}</style></defs><title>icon</title><path class="a" d="M85,130.46h0m-16.86-.77.7.27,1.66.32c1,.15,2.39.35,3.85.47.95.08,1.94.12,2.88.12h-.09c-.91,0-1.87,0-2.79-.12h0c-1.44-.11-2.8-.31-3.8-.46h0L68.86,130h0l-.7-.27h0M91.55,128h0c-1.47.71-2.85,1.3-4,1.73-1.48.51-2.45.78-2.45.78h0s1-.27,2.45-.78c1.1-.43,2.48-1,4-1.73h0m-34.76-1a43.77,43.77,0,0,1,4.93.77h0a43.77,43.77,0,0,0-4.93-.77h0M100,121h0a4.25,4.25,0,0,1-.27.46h0A4.25,4.25,0,0,0,100,121m1.48-2.89h0l0,0-.81.81h0l.83-.84h0M107,113h0l-.25.09h0L107,113m.24-.14h0l-.17.13h0l.17-.13m.64-.6,0,0h0l0,0m1.88-2.56c0,.08-.09.16-.14.24h0c0-.08.1-.16.14-.24"/><path class="b" d="M89.19,17.67a7.48,7.48,0,0,0-1.71.2,8.31,8.31,0,0,0-3.31,1.74c-2.5,1.92-4.68,4.15-6.64,5.85a18.26,18.26,0,0,1,2.27,2.36,17.85,17.85,0,0,1,1.75,2.83,4.88,4.88,0,0,1,1.51,2c.28.69.66.9,1.1.9a13.27,13.27,0,0,0,1.9-.46,1.39,1.39,0,0,1,.47-.09,2,2,0,0,1,1.46,1c.51.64.89,1.39,1.51,1.64a3.13,3.13,0,0,0,1.4.25l.76,0,.79,0h.11c1.08,0,2.1.32,2.17,1.45v0h0c0-.27.09-.39.24-.39.39,0,1.21.85,1.82,1.87a5.64,5.64,0,0,1,.86,2.3h0c0,.17-.05.27-.15.27a.35.35,0,0,1-.17-.06v0h0A3.48,3.48,0,0,1,96,42.55a7.93,7.93,0,0,1-1.43.66c-2.09.12-4.77,1.89-7.06,3.1-.12.09,0,.56-.24,1.13A2.74,2.74,0,0,1,85.56,49a24.89,24.89,0,0,1-3.43.9L82,50l-.08,0-.17.07-.07,0A8.78,8.78,0,0,1,83,50.2c0,.07.67.22,1.6.77a10.77,10.77,0,0,1,3,2.85A13.22,13.22,0,0,1,90.17,60h0c0,.31-.06.51-.18.58a4.88,4.88,0,0,1-1.82.31,4.41,4.41,0,0,1-2.25-.53c-3.19-1.63-5.16-1.29-8-2.15a15,15,0,0,0,.65,1.54,29.35,29.35,0,0,0,1.84,3.4c1.1-.14,2.39-.31,3.77-.44,1.16-.1,2.38-.2,3.59-.2,2.84,0,5.59.51,7.18,2.52,0,0,1.11,1.4,2.62,3.81a45.82,45.82,0,0,1,4.68,10,36,36,0,0,1,1.5,6.64c.09,1,.21,1.93.21,3h0c0,.21,0,.43,0,.65a32,32,0,0,1-.41,3.86,23.46,23.46,0,0,1-7,13.52,4.28,4.28,0,0,0-1,1.35,26.86,26.86,0,0,0-2,5.6,24.22,24.22,0,0,1-2.73,2.72,22.57,22.57,0,0,1-3.1,2.08,15.52,15.52,0,0,1-3.78,1.41,11,11,0,0,1-1.8.16,6.92,6.92,0,0,1-3.8-1s-1-.19-2.46-.53-3.51-.81-5.63-1.36c-3.67-.92-7.53-2.12-10.3-2.12a8.12,8.12,0,0,0-1.24.09s-.27-.28-.73-.69a15.9,15.9,0,0,0-1.78-1.45,7.19,7.19,0,0,0-2.89-1.34l-.94.1-.91.1h0a3.15,3.15,0,0,1,1.26-.25,2.94,2.94,0,0,1,.59,0l1.49-.21.77-.11h-.78a33,33,0,0,1-6.67-.63c-2.92-.62-4.92-1.62-5-2.64a32.5,32.5,0,0,1-4.69-3.19,16.31,16.31,0,0,1-4.61-5.39c.11.56.21,1.14.29,1.73a85.77,85.77,0,0,1,.53,10.5h0c-.08,1.89-.28,4.07-.28,6.21a23.87,23.87,0,0,0,.15,2.84c.42,2.93,1.43,5.39,4.77,6.24a28.76,28.76,0,0,0,6,.55c2,0,3.94-.13,5.85-.24,1.27-.07,2.51-.13,3.75-.13.67,0,1.33,0,2,.06-1.43-.14-2.77-.21-4-.23H52.2c-1.86,0-3.46.08-4.66.19h-.15c-1.33.12-2.13.27-2.13.27s.8-.15,2.13-.27h0c-1.33.12-2.13.27-2.13.27s.8-.15,2.13-.27h0c-1.33.12-2.13.27-2.13.27s.8-.15,2.13-.27h.15c1.2-.11,2.8-.19,4.66-.19h.56c1.26,0,2.61.09,4,.23a23.94,23.94,0,0,1,4.91.77,42.25,42.25,0,0,1,6.45,1.94,34.64,34.64,0,0,0,8.45,1.11c.86,0,1.74,0,2.64-.11l.52.06a5.7,5.7,0,0,0,1.79-.41h0c1.09,0,2.21.12,3.32.12H85c.81-.35,1.65-.68,2.51-1,1.42-.6,2.9-1.16,4.32-1.8.57-.26,1.14-.54,1.69-.82.71-.42,1.41-.86,2.07-1.33h0l.12-.08.13-.1h0c.69-.53,1.35-1.07,2-1.62a12.37,12.37,0,0,0,1.45-1.57h0c.17-.23.34-.46.48-.69a8.61,8.61,0,0,0,.87-2.3,1,1,0,0,0,0-.17l0,0,0-.15c1.06-1.1,2-2.05,2.94-2.88l.28-.27.07-.08.06-.06.09-.09h0l0,0,.15-.14h0v0l0,0,.1-.1h0l0,0a11.72,11.72,0,0,1,2.28-1.94l.5-.46a13.08,13.08,0,0,0,4.06-7c.33-1.63.55-3.28.74-4.9v-.16h0c0-.32,0-.64,0-1,0,.33,0,.65,0,1h0c0-.32,0-.64,0-1,0,.33,0,.65,0,1h0c0-.32,0-.64,0-1,0,.33,0,.65,0,1h0v.16c.06-.45.11-.9.16-1.35l.29-3.07.14-1.49,0-1.36c.13-3.55.29-6.79,1.28-9.67a24.1,24.1,0,0,1,4.28-8.56c.32-.47,1.94-1.16,3.75-1.94s3.78-1.64,4.75-2.08c2-.9,2.74-2.92,2.74-5.14a13.85,13.85,0,0,0-1-5c-1.46-2.84-2.74-5.54-4-8.31s-2.49-5.58-3.91-8.5a8.31,8.31,0,0,1-.24-2.25h0c0-.54,0-1.1,0-1.66a9.68,9.68,0,0,0-.39-3,15.19,15.19,0,0,0-5.4-6.1c-2.1-1.45-4.29-2.49-6.33-3.68a24.16,24.16,0,0,0-8-4.68,12.43,12.43,0,0,0-3.85-.71H96a2.81,2.81,0,0,0-1.71.56s-.06,0-.1-.07c-1.36-.54-.91-3.35-2.74-4.5a6.23,6.23,0,0,0-2-.48h-.28"/><path class="b" d="M73.14,66a13.14,13.14,0,0,0,2.21,4.86l.14.07-.62-1.28c-.5-1-1.06-2.16-1.53-3.18l-.2-.47M75,63.34h0"/><path class="b" d="M82.86,49.73h0"/><path class="b" d="M82,49.89l-.28,0h0l.16,0,.12,0"/><path class="b" d="M81.72,49.94l-.28.05h-.07l-.09,0,.44-.08h0"/><path class="b" d="M81.94,50l-.23.09,0,0h0l.2-.08,0,0"/><path class="b" d="M81.22,50h-.16l.16,0"/><path class="b" d="M81.58,50l-.24.06h.14l.1-.07m-.38,0-.27,0h0l.24,0h0"/><path class="b" d="M30.72,69.71a1.9,1.9,0,0,0-1.19.94,32.52,32.52,0,0,0-2.81,8.21.61.61,0,0,1,.14-.07,32.35,32.35,0,0,1,2.8-8.19,1.9,1.9,0,0,1,1.06-.89"/><path class="b" d="M26.35,81.12c-.15,1.25-.23,2.48-.26,3.7v.05c0,4.13,2.61,6,5,8.5a10.14,10.14,0,0,1,2.44,4.84c0-.12,0-.28,0-.46a29.56,29.56,0,0,0-.18-3.27c-.72-.38-1.43-.77-2.13-1.16-2.41-2.49-5-4.36-5-8.5h0v0c0-1.17.1-2.35.24-3.55l-.12-.1"/><path class="b" d="M76.3,71.34c.31.14.66.29,1,.44,0-.11,0-.23,0-.34a6,6,0,0,0-1-.1"/><path class="b" d="M79.9,79.64c0,.23,0,.47-.05.7l.18.18c0-.29-.08-.58-.13-.88"/><path class="b" d="M79.23,84.68h0A32.85,32.85,0,0,1,77.53,90a12.83,12.83,0,0,0,2.28-4.9c0-.12,0-.24.08-.37-.23,0-.47,0-.66,0"/><path class="b" d="M79.85,80.34h0l.18.19v0l-.18-.18"/><path class="b" d="M79.19,84.67v0h0"/><path class="b" d="M90.62,79.65c.07.12.13.25.19.37A31.31,31.31,0,0,1,93,85.21c.11.35.21.71.31,1.06a24.74,24.74,0,0,0-2-5.91s-.23-.27-.66-.71"/><path class="b" d="M90.75,99.49c-.42.37-.93.81-1.49,1.28-1.12.93-2.46,2-3.62,2.83A12.15,12.15,0,0,0,89.47,101a13.14,13.14,0,0,0,1.28-1.52"/><path class="b" d="M106.79,113.1a11.72,11.72,0,0,0-2.28,1.94l0,0h0l-.1.1,0,0v0h0l-.15.14,0,0h0l-.09.09-.06.06-.07.08-.28.27.63-.55c.89-.81,1.74-1.54,2.53-2.26"/><path class="b" d="M100.66,118.94l0,0a1,1,0,0,1,0,.17,1.6,1.6,0,0,0,0-.21"/><path class="b" d="M99.74,121.45c-.14.23-.31.46-.48.69h0a12.37,12.37,0,0,1-1.45,1.57c-.6.55-1.26,1.09-2,1.62h0l-.13.1-.12.08h0c-.66.47-1.36.91-2.07,1.33a24,24,0,0,0,2.33-1.35A14.29,14.29,0,0,0,99,122.61a9.47,9.47,0,0,0,.74-1.16"/><path class="b" d="M61.72,127.75l.82.24c1.92.65,3.77,1.23,5.62,1.7a43.66,43.66,0,0,0-6.44-1.94"/><path class="b" d="M81.56,130.34h0a5.7,5.7,0,0,1-1.79.41c.35,0,.81,0,1.31,0a22.16,22.16,0,0,0,3.79-.27l.14-.06h-.13c-1.11,0-2.23-.07-3.32-.12"/><path class="c" d="M31.62,69.55a2.63,2.63,0,0,0-.9.16,2.63,2.63,0,0,1,.77-.12,1.62,1.62,0,0,1,.7.14A4,4,0,0,1,33.64,71l.07-.12a3.81,3.81,0,0,0-1.39-1.16,1.62,1.62,0,0,0-.7-.14"/><path class="c" d="M46.68,82.61l-.09.06h0C48.87,84,51,84.31,53.2,85.32a9.07,9.07,0,0,0,3.45.88,6.6,6.6,0,0,1,3.48,1.3,6.81,6.81,0,0,0,3.32,1,5.28,5.28,0,0,0,1.42-.19,6.32,6.32,0,0,0,1.66-.77l-.09,0a6.14,6.14,0,0,1-1.52.68,5,5,0,0,1-1.43.2,6.79,6.79,0,0,1-3.29-1,6.68,6.68,0,0,0-3.47-1.3,8.83,8.83,0,0,1-3.44-.87c-2.19-1-4.3-1.28-6.61-2.61"/><path class="d" d="M31.49,69.59a2.63,2.63,0,0,0-.77.12,1.9,1.9,0,0,0-1.06.89,32.35,32.35,0,0,0-2.8,8.19,23.5,23.5,0,0,0,3.1-1.3c-.06-.28.27-.62-.09-1a1.48,1.48,0,0,1-.48-.91A6.83,6.83,0,0,1,33,72a5.53,5.53,0,0,0,.68-1,4,4,0,0,0-1.45-1.24,1.62,1.62,0,0,0-.7-.14"/><path class="d" d="M75.35,70.88c.54.86,1.16,1.76,1.8,2.66.53.65,1,1.22,1.31,1.7-.25-.53-.54-1.07-.85-1.61,0,0-.1-.72-.25-1.76v-.09c-.39-.15-.74-.3-1-.44h-.1a4.12,4.12,0,0,0-.51,0s-.08-.15-.2-.41l-.14-.07"/><path class="d" d="M79.62,78.41a2.15,2.15,0,0,0-.23.65,7.38,7.38,0,0,0,.16,1l.14.14.16.15c0-.23,0-.47.05-.7-.08-.4-.17-.81-.28-1.23"/><path class="d" d="M26.47,81.22c-.14,1.2-.21,2.38-.24,3.55v0c0,4.14,2.6,6,5,8.5.7.39,1.41.78,2.13,1.16,0-.1,0-.21,0-.31-.3-2.22-.94-4.56-2.77-5.23,0,0-.35-.8-.75-2a26.09,26.09,0,0,1-1.07-4.17c0-.23-.08-.47-.1-.71-.34-.08-.67-.17-1-.27a3.31,3.31,0,0,1-1.15-.6"/><path class="d" d="M46.56,82.68c-1.14.71-1.72,1.64-4,1.7.82.63,1.69,1.26,2.57,1.88,2.35,1.67,4.85,3.2,6.81,4.37s3.55,2.1,3.79,2.76c0,0,.53.29,1.5.72a21.56,21.56,0,0,0,4.17,1.24,20.87,20.87,0,0,0,3.69.34,18.47,18.47,0,0,0,2.43-.16,15.76,15.76,0,0,0,6.6-2.39A13.52,13.52,0,0,0,77.53,90a32.85,32.85,0,0,0,1.65-5.29,5.71,5.71,0,0,1-1.34.14h-.66c-.6,0-1.08,0-1.08,0h0l-.36-.08L73.6,84.6l-.34,0a1.34,1.34,0,0,0-.88.5c-.44,1,1.18,3,1.2,4.21,0,.18-.23.26-.54.26-1.09,0-3.7-1-6.51-2.08a6.32,6.32,0,0,1-1.66.77,5.28,5.28,0,0,1-1.42.19,6.81,6.81,0,0,1-3.32-1,6.6,6.6,0,0,0-3.48-1.3,9.07,9.07,0,0,1-3.45-.88c-2.21-1-4.33-1.3-6.64-2.64m30.59-9.14,1.42,1.95c0-.08-.07-.16-.11-.25-.35-.48-.78-1-1.31-1.7"/><path class="d" d="M79,84.65a5.83,5.83,0,0,1-1.59.17c-.52,0-1.1,0-1.7-.08l.36.08h0s.48,0,1.08,0h.66a5.71,5.71,0,0,0,1.34-.14v0l-.16,0m-5.77,0c-.5.06-.77.24-.88.5a1.34,1.34,0,0,1,.88-.5m6.43-4.43.16.16h0l-.16-.15m-.3-1.13a2,2,0,0,0,.09.92l.07.07a7.38,7.38,0,0,1-.16-1"/><path class="e" d="M77.3,71.44c0,.11,0,.23,0,.34v.09c.15,1,.25,1.76.25,1.76.31.54.6,1.08.85,1.61a10,10,0,0,1,1.33,2.26h0a1.7,1.7,0,0,1,.12.56h0c0,.25-.11.31-.11.31l-.14,0a.25.25,0,0,1,0,.07A15.08,15.08,0,0,1,80,80.52a8.42,8.42,0,0,1,.59.69c.88,1.09.92,1.68.72,2.12,0,0,0,.06,0,.09h0a2.07,2.07,0,0,1-.63,1.21h0v0a2.37,2.37,0,0,1-.66.06h-.1c0,.13-.06.25-.08.37A12.83,12.83,0,0,1,77.53,90a13.52,13.52,0,0,1-3.38,3.16,15.76,15.76,0,0,1-6.6,2.39,18.47,18.47,0,0,1-2.43.16,20.87,20.87,0,0,1-3.69-.34,21.56,21.56,0,0,1-4.17-1.24c-1-.43-1.5-.72-1.5-.72-.24-.66-1.8-1.57-3.79-2.76s-4.46-2.7-6.81-4.37c-.88-.62-1.75-1.25-2.57-1.88h-.27a11.09,11.09,0,0,1-1.22-.07,78.14,78.14,0,0,1-12.46-2.23c0,.24.06.48.1.71A26.09,26.09,0,0,0,29.81,87c.4,1.17.75,2,.75,2,1.83.67,2.47,3,2.77,5.23a29.78,29.78,0,0,1,.22,3.58h0c0,.46,0,.73,0,.73a3.14,3.14,0,0,0,.23.74,16.31,16.31,0,0,0,4.61,5.39,32.5,32.5,0,0,0,4.69,3.19c.1,1,2.1,2,5,2.64a33,33,0,0,0,6.67.63h.78c1.93-.29,4.36-.73,6.9-1.37A87.86,87.86,0,0,0,71.1,107c2.75-1,5.22-2,7.22-2.56a8.66,8.66,0,0,1,2.53-.47,3,3,0,0,1,1.53.36h0a8.81,8.81,0,0,0,2.2-.36q.48-.15,1-.39c1.16-.88,2.5-1.9,3.62-2.83.56-.47,1.07-.91,1.49-1.28a14.7,14.7,0,0,0,2.63-6.33,16.45,16.45,0,0,0,.26-3,21,21,0,0,0-.21-2.9c-.05-.33-.11-.67-.17-1s-.2-.71-.31-1.06A31.31,31.31,0,0,0,90.81,80c-.06-.12-.12-.25-.19-.37-.25-.26-.58-.59-1-1a35.42,35.42,0,0,0-4.13-3.34c-2.68-1.85-5.8-3.51-8.23-3.92"/><path class="e" d="M81.34,83.33c-.2.45-.64.75-.69,1.3h0a2.07,2.07,0,0,0,.63-1.21h0s0-.06,0-.09M80,80.52v0c.23.24.42.46.59.67a8.42,8.42,0,0,0-.59-.69m-1.57-5.28c0,.09.08.17.11.25l.24.32c1.13,1.55,1.06,2.06.85,2.53l.14,0s.11-.06.11-.31h0a1.7,1.7,0,0,0-.12-.56h0a10.26,10.26,0,0,0-1.33-2.26"/><path class="f" d="M87.82,62.53c-1.21,0-2.43.1-3.59.2-1.38.13-2.67.3-3.77.44.22.36.46.74.71,1.12C82,65.65,82.63,67,82,67a3,3,0,0,1-1.26-.56,37.11,37.11,0,0,0-5.65-3.06h-.2a2,2,0,0,0-1.73,2.2,2.49,2.49,0,0,0,0,.47l.2.47c.47,1,1,2.18,1.53,3.18L75.49,71c.12.26.2.41.2.41a4.12,4.12,0,0,1,.51,0h.1a6,6,0,0,1,1,.1c2.43.41,5.55,2.07,8.23,3.92a35.42,35.42,0,0,1,4.13,3.34c.38.36.71.69,1,1,.43.44.66.71.66.71a24.74,24.74,0,0,1,2,5.91c.06.34.12.68.17,1a21,21,0,0,1,.21,2.9h0a16.45,16.45,0,0,1-.26,3,14.7,14.7,0,0,1-2.63,6.33A13.14,13.14,0,0,1,89.47,101a12.15,12.15,0,0,1-3.83,2.59q-.57.24-1,.39a8.81,8.81,0,0,1-2.2.36h0a3,3,0,0,0-1.53-.36,8.66,8.66,0,0,0-2.53.47c-2,.56-4.47,1.58-7.22,2.56a87.86,87.86,0,0,1-8.66,2.67c-2.54.64-5,1.08-6.9,1.37l-.77.11-1.49.21a7.19,7.19,0,0,1,2.89,1.34A15.9,15.9,0,0,1,58,114.17c.46.41.73.69.73.69a8.12,8.12,0,0,1,1.24-.09c2.77,0,6.63,1.2,10.3,2.12,2.12.55,4.13,1,5.63,1.36s2.46.53,2.46.53a6.92,6.92,0,0,0,3.8,1,11,11,0,0,0,1.8-.16,15.52,15.52,0,0,0,3.78-1.41,22.57,22.57,0,0,0,3.1-2.08,24.22,24.22,0,0,0,2.73-2.72,26.86,26.86,0,0,1,2-5.6,4.28,4.28,0,0,1,1-1.35,23.46,23.46,0,0,0,7-13.52,32,32,0,0,0,.41-3.86c0-.22,0-.44,0-.65,0-1-.12-2-.21-3a36,36,0,0,0-1.5-6.64,45.82,45.82,0,0,0-4.68-10C96.11,66.45,95,65.05,95,65.05c-1.59-2-4.34-2.52-7.18-2.52"/><path class="f" d="M52.69,111.33a3.15,3.15,0,0,0-1.26.25l.91-.1.94-.1a2.94,2.94,0,0,0-.59,0"/><path class="g" d="M81.55,30.65c.5,1,1,2,1.41,2.94a6.51,6.51,0,0,1,.51,1.86c.08.54-.24.27-.38.48h0a.55.55,0,0,1-.1.42,16.17,16.17,0,0,0,3.12,1.22c.37-.46.69-.63,1-.63a.78.78,0,0,1,.52.21c.37.31.6.87.92,1.1s.13.7.21,1.07c.33.46,1.12.47,1.12,1.15h0a1.6,1.6,0,0,1-.18.67,25,25,0,0,1-5,6.87,13,13,0,0,1-1.45,1.23,9.54,9.54,0,0,1-1,.61h0l.39-.07.23-.05H83l-.12,0-.09,0-.09,0h0A6.21,6.21,0,0,0,82,50l.18-.06a24.89,24.89,0,0,0,3.43-.9,2.74,2.74,0,0,0,1.75-1.59c.21-.57.12-1,.24-1.13,2.29-1.21,5-3,7.06-3.1A7.93,7.93,0,0,0,96,42.55a3.48,3.48,0,0,0,1.29-1.34v0h0a.35.35,0,0,0,.17.06c.1,0,.14-.1.15-.27a5.64,5.64,0,0,0-.86-2.3c-.61-1-1.43-1.87-1.82-1.87-.15,0-.24.12-.24.39v0h0c-.07-1.13-1.09-1.42-2.17-1.45h-.11l-.79,0-.76,0a3.13,3.13,0,0,1-1.4-.25c-.62-.25-1-1-1.51-1.64a2,2,0,0,0-1.46-1,1.39,1.39,0,0,0-.47.09,13.27,13.27,0,0,1-1.9.46c-.44,0-.82-.21-1.1-.9a4.88,4.88,0,0,0-1.51-2"/><path class="g" d="M83,49.7h0"/><path class="g" d="M82.94,49.72h0"/><path class="g" d="M82.89,49.72l-.29.06-.39.07c-.15.08-.33.16-.5.23l.23-.09a7.51,7.51,0,0,1,.79-.23h.1l.06,0"/><path class="g" d="M82.21,49.85l-.17,0h0l-.12,0,.33-.06h0"/><path class="g" d="M81.72,49.94l-.44.08h-.06l-.16,0-.25,0h-.1l-.29,0-.14,0h0l-.21,0-.69,0H77.6l0,.1c.13,1.8,1.54,4.83,1.28,5.91a.28.28,0,0,1-.16,0,1.91,1.91,0,0,1-.56-.14,2,2,0,0,0-.56-.13c-.11,0-.19,0-.21.14A15.2,15.2,0,0,0,78,58.23c2.79.86,4.76.52,8,2.15a4.41,4.41,0,0,0,2.25.53A4.88,4.88,0,0,0,90,60.6c.12-.07.18-.27.18-.58a13.22,13.22,0,0,0-2.57-6.2,10.77,10.77,0,0,0-3-2.85c-.93-.55-1.6-.7-1.6-.77a8.78,8.78,0,0,0-1.35-.08l-.38.18-.18.1,0,0,0,0h0l.09-.05.4-.29h-.14l.24-.06.14-.1"/><path class="g" d="M80.82,50.08h0"/><path class="g" d="M80.75,50.09h0"/><path class="g" d="M80.08,50.16h0"/><path class="g" d="M79.49,50.2h0"/><path class="g" d="M77.6,50.22h0"/><path class="g" d="M78.47,50.22h0"/><path class="h" d="M112.09,100.62v.16a18,18,0,0,1-2.29,8.93,18.06,18.06,0,0,0,2.29-9.09"/><path class="h" d="M109.66,110a14.34,14.34,0,0,1-1.74,2.32,14.34,14.34,0,0,0,1.74-2.32"/><path class="h" d="M107.89,112.29a6.89,6.89,0,0,1-.61.58,6.89,6.89,0,0,0,.61-.58"/><path class="a" d="M107.28,112.87l-.17.13h0l.17-.13h0"/><path class="h" d="M107.28,112.87l-.17.13.17-.13"/><path class="h" d="M107,113l-.25.09a11.72,11.72,0,0,0-2.28,1.94,11.72,11.72,0,0,1,2.28-1.94L107,113"/><polyline class="h" points="104.48 115.07 104.48 115.07 104.48 115.07"/><path class="h" d="M104.48,115.07l-.1.1.1-.1"/><path class="h" d="M104.38,115.17l0,0,0,0"/><path class="h" d="M104.33,115.21v0"/><path class="h" d="M104.31,115.24l-.15.14.15-.14"/><polyline class="h" points="104.14 115.4 104.13 115.41 104.14 115.4"/><path class="h" d="M104.13,115.41l-.09.09.09-.09"/><path class="h" d="M103.91,115.64l-.28.27-.2.2.48-.47"/><path class="h" d="M103.43,116.11l-1.94,2,1.94-2"/><path class="a" d="M101.49,118.1h0l-.83.84h0l.81-.81,0,0h0"/><path class="h" d="M101.47,118.13l-.81.81,0,0,0,0,.81-.81"/><path class="h" d="M100.62,119a1,1,0,0,1,0,.17A4.51,4.51,0,0,1,100,121a4.33,4.33,0,0,0,.61-2"/><path class="h" d="M100,121c-.08.15-.17.31-.27.46s-.31.46-.48.69c.17-.23.34-.46.48-.69A4.25,4.25,0,0,0,100,121"/><path class="h" d="M99.26,122.14a12.37,12.37,0,0,1-1.45,1.57,12.37,12.37,0,0,0,1.45-1.57"/><path class="h" d="M97.81,123.71c-.6.55-1.26,1.09-2,1.62.69-.53,1.35-1.07,2-1.62"/><path class="h" d="M95.73,125.43l-.12.08.12-.08"/><path class="h" d="M95.6,125.52c-.66.47-1.36.91-2.07,1.33s-1.33.76-2,1.1a36.17,36.17,0,0,0,4-2.43"/><path class="a" d="M68.16,129.69l.7.27h0l1.66.32h0c1,.15,2.36.35,3.8.46h0c.92.07,1.88.11,2.79.12h.09c-.94,0-1.93,0-2.88-.12-1.46-.12-2.85-.32-3.85-.47L68.86,130l-.7-.27h0"/><path class="h" d="M52.76,126.75c1.26,0,2.6.09,4,.23a43.77,43.77,0,0,1,4.93.77A44.67,44.67,0,0,1,68.86,130l-.7-.27a42.25,42.25,0,0,0-6.45-1.94A43.1,43.1,0,0,0,56.8,127c-1.43-.14-2.78-.21-4-.23"/><path class="h" d="M68.86,130l1.66.32L68.86,130"/><path class="h" d="M70.57,130.29c1,.15,2.36.35,3.8.46-1.44-.11-2.8-.31-3.8-.46"/><path class="h" d="M74.37,130.75c.92.08,1.88.11,2.79.12-.91,0-1.87-.05-2.79-.12"/><path class="h" d="M52.2,126.75c-1.86,0-3.46.08-4.66.19,1.2-.11,2.8-.19,4.66-.19"/><path class="h" d="M85.15,130.46h0"/><path class="h" d="M81.56,130.34a11.73,11.73,0,0,1-4.17.53,11.73,11.73,0,0,0,4.17-.53"/><path class="h" d="M85,130.46h0"/><path class="i" d="M83,36.35a.33.33,0,0,1-.19.11c0,.15.09.3.13.44a2.37,2.37,0,0,0-.39-.34.48.48,0,0,0-.13.17c-.08.16-.17.22-.26.22s-.36-.21-.56-.54A2.33,2.33,0,0,0,80.5,38a7.47,7.47,0,0,0-.28,1.38c1.43,1.71,2.31,3.15,3,3.82a.08.08,0,0,0,.07,0c.22,0,.6-.7.94-1a.75.75,0,0,1,.53-.25,1.53,1.53,0,0,1,.55.17,1.07,1.07,0,0,0,.32.06,2.28,2.28,0,0,0,1.27-.61.31.31,0,0,1,.2-.09c.1,0,.15.08.15.22h0s0,.06,0,.09a16,16,0,0,1-5.51,8.1l.32-.06.17,0h0a9.54,9.54,0,0,0,1-.61A13,13,0,0,0,84.64,48a25,25,0,0,0,5-6.87,1.6,1.6,0,0,0,.18-.67c0-.68-.79-.69-1.12-1.15-.08-.37,0-.88-.21-1.07s-.55-.79-.92-1.1a.78.78,0,0,0-.52-.21c-.28,0-.6.17-1,.63A16.17,16.17,0,0,1,83,36.35"/><path class="i" d="M82.9,49.72h-.07l-.23.05.29-.06h0"/><path class="i" d="M81.72,49.94l-.3.05h0l-.15,0h0l.13,0,.11,0,.28-.05h0"/><path class="i" d="M80.3,50.14l-.22,0h0l.21,0h0"/><path class="i" d="M78.36,50.22h0"/><path class="i" d="M81.18,50l-.24,0h-.13l.25,0h.12"/><path class="i" d="M82.94,49.71h0m.1,0h-.12l.12,0"/><path class="i" d="M83,49.71h0"/><path class="i" d="M82.89,49.72h0m0,0h0m0,0h0l-.06,0,.09,0"/><path class="i" d="M82.83,49.74h-.09l.09,0"/><path class="i" d="M82.73,49.76a7.51,7.51,0,0,0-.79.23l0,0-.2.08.17-.07a6,6,0,0,1,.86-.26"/><path class="i" d="M82.21,49.85h0m0,0h0m.39-.07-.39.07h0l.39-.07"/><path class="i" d="M81.72,49.94h0m.49-.09-.49.09h0l-.14.1-.1.07-.4.29-.09.05h0l0,0,0,0,.18-.1.45-.21h0c.17-.07.37-.16.54-.25"/><path class="i" d="M80.81,50.09h0"/><path class="i" d="M80.71,50.1l-.41,0h.12l.29,0"/><path class="i" d="M80.06,50.17h0l-.49,0h-.19l.69,0"/><path class="i" d="M79.37,50.21l-.75,0h.75"/><path class="i" d="M77.6,50.22h0"/><path class="i" d="M77.67,50.23h0"/><path class="j" d="M51.24,26.75a1.61,1.61,0,0,0-.63.12c-.1.33.65,1.39.55,1.71s-.06,3.6.36,6.73.93,6.09.37,6.09a7.74,7.74,0,0,1-3.43-1.89C45.8,37,44,36.49,41.52,34.7c-.65-.5-1.26-1.31-1.92-1.82-1.74-1.21-3.88-2.46-4.73-2.46h-.12l-.54,0c-1.42,0-2.3.65-2.3,1.71-.43.46-.87.91-1.3,1.38a16.52,16.52,0,0,0,1.27,3.1c.84,1.84,1.78,2.73,1.2,2.8-.15.1,3.27,3.32,4.63,5.72.06,0,.54.21,1.38.51a20.49,20.49,0,0,1-2.26-4.44c-.51-1.58-.47-3,1-3A6.68,6.68,0,0,1,40.5,39a32.69,32.69,0,0,1,6.37,1.53c3.39,1.17,7.17,3.17,9,6,0,0,3.61,5.51,7.27,11.37s7.41,12,6.66,14.3c0,0-.07.1.19.59a16.59,16.59,0,0,0,2.27,2.89,4.46,4.46,0,0,1,.44,1.92c-.06.51-.34.91-1.13.91a6.34,6.34,0,0,1-2.22-.56,30,30,0,0,0-3.85-.39H65c-1.74,0-3.29.3-3.07,1.19a12,12,0,0,0-2-.36l-.36,0c-.43,0-.77.07-.88.27.12.42.21.68.21.68-.25-.32-.3-.53-.21-.68-.07-.24-.16-.54-.24-.87-.09,1.73-.44,3.15-1.55,3.15a1.84,1.84,0,0,1-.57-.11,12.92,12.92,0,0,1-2,1,9.51,9.51,0,0,1-3.34.74h-.23a66.28,66.28,0,0,1,10.42,3c1.58.58,3.42,1.33,5.19,2a11.25,11.25,0,0,0,3-2.89c.27-.36.63-.8,1-1.29a21.2,21.2,0,0,0,2.82-4.5,10,10,0,0,0,.92-3.85,4.43,4.43,0,0,0-.07-.83v0a3.43,3.43,0,0,1-.17-1h0c0-.78.33-1.21.33-1.9a2.76,2.76,0,0,0-.16-.9h0a16.37,16.37,0,0,0-2.58-3.86c-1-1.13-1.78-2-1.78-2h.06s.06,0,.06-.05a13.26,13.26,0,0,0-1.75-2.22,5.47,5.47,0,0,1-.49-.59l-.4-.66c-.26-.43-.48-.84-.67-1.22l-.11-.22c-.17.22-.34.42-.5.61-1.18-1.56-2.84-3.4-3.85-4.74a1,1,0,0,1-.14-.49h0c0-.3.17-.54.17-.86a.76.76,0,0,0,0-.15h0c0-.33.33-.48.74-.59A8.77,8.77,0,0,1,64.31,53h.39c2.28,0,3.94-.94,5.48-1.47a11.13,11.13,0,0,1,4-.66c.61,0,1.3,0,2.08.09s1,0,1.18-.16a6.65,6.65,0,0,0-.83-.35.74.74,0,0,1,0-.12l-.14,0c-.4-.07-.9-.17-1.36-.24h.08l.34,0,.76.05h.46l.28,0,.3,0h.25a14,14,0,0,0,.5-2.49,8.22,8.22,0,0,0,0-1.81,7.62,7.62,0,0,0-.3-1.27l0,0a.05.05,0,0,1,0,0c.37,0,1.6,2.22,2.13,2.56h.06c.26,0,.35-.35.36-.91a18.12,18.12,0,0,0-.17-2.21,20.93,20.93,0,0,1,0-4.74A27.21,27.21,0,0,0,77,36.1a44.85,44.85,0,0,0-3.6-3h0a3.43,3.43,0,0,1-.92-.19,3.74,3.74,0,0,0-.94-.19.77.77,0,0,0-.49.15c-.58.31-.65,1.36-.8,2.18s-.24,1.24-.73,1.24a.93.93,0,0,1-.39-.1c.74.37,0,.93-.82,1.3A3.48,3.48,0,0,1,67,37.8c-.26,0-.42-.09-.37-.3h0a5.67,5.67,0,0,1-1.36-1.23,11.27,11.27,0,0,1-.9-1.3c-.52-1.92-2.43-4.51-3.7-6.77,0,0,0,0-.09,0a8.05,8.05,0,0,0-1.17.29,8.45,8.45,0,0,1-2,.29,4.52,4.52,0,0,1-1.84-.37c-1.52-.76-3.17-1.64-4.3-1.64"/><path class="k" d="M70.55,55.87A1.46,1.46,0,0,0,70,56c-1.56.26-2.46.91-2.46,1.83a1.82,1.82,0,0,0,0,.32h0c-.33.47-.66.9-1,1.3l.11.22c.19.38.41.79.67,1.22l.4.66a5.47,5.47,0,0,0,.49.59A13.26,13.26,0,0,1,70,64.32h0s0,.05-.06.05h-.06c0,.07.82.9,1.78,2a16.37,16.37,0,0,1,2.58,3.86c.06,0,.44.27,1.14.63A13.14,13.14,0,0,1,73.14,66a2.44,2.44,0,0,1-.1-.24,1.78,1.78,0,0,1-.14-.67V65h0a1.52,1.52,0,0,1,.34-1.06,2,2,0,0,1,1.62-.59h.2a10.18,10.18,0,0,1,2,.28l2.11-.29,1.28-.17a29.35,29.35,0,0,1-1.84-3.4A15,15,0,0,1,78,58.23l-.26-.08c-.77-.29-1.55-.95-2.33-1.24a20.21,20.21,0,0,0-4.83-1"/><path class="k" d="M74.2,74.09v0h0v0"/><path class="k" d="M79.85,80.35c-.09,1-.23,2.1-.42,3.16-.08.39-.15.77-.24,1.16h0c.12,0,.2-.1.21-.16v-.06l.48.07a12.78,12.78,0,0,0,.21-2.33,13.44,13.44,0,0,0-.1-1.66l-.18-.19"/><path class="l" d="M74.2,74.11a4.43,4.43,0,0,1,.07.83h0a10,10,0,0,1-.92,3.85,21.2,21.2,0,0,1-2.82,4.5c-.42.49-.78.93-1,1.29a11.25,11.25,0,0,1-3,2.89l.09,0a11.65,11.65,0,0,0,2.93-2.8c.28-.37.65-.83,1.1-1.34a21.23,21.23,0,0,0,2.82-4.49,10,10,0,0,0,.92-3.82,5.49,5.49,0,0,0-.06-.83.56.56,0,0,1,0-.12"/><path class="l" d="M74.2,70.25a2.76,2.76,0,0,1,.16.9h0c0,.69-.33,1.12-.33,1.9a3.43,3.43,0,0,0,.17,1,3.19,3.19,0,0,1-.13-.9h0c0-.8.34-1.23.34-1.94a2.71,2.71,0,0,0-.16-.89s0-.07,0-.11h0"/><path class="m" d="M74.21,70.25s0,.07,0,.11a2.71,2.71,0,0,1,.16.89h0c0,.71-.34,1.14-.34,1.94a3.19,3.19,0,0,0,.13.9v0h0a.56.56,0,0,0,0,.12,5.49,5.49,0,0,1,.06.83h0a10,10,0,0,1-.92,3.82,21.23,21.23,0,0,1-2.82,4.49c-.45.51-.82,1-1.1,1.34a11.65,11.65,0,0,1-2.93,2.8C69.34,88.62,72,89.59,73,89.59c.31,0,.5-.08.54-.26,0-1.16-1.64-3.24-1.2-4.21a1,1,0,0,0-.2.65v.1a4.38,4.38,0,0,0,.92,2,4.32,4.32,0,0,1-.92-2v-.1h0a1,1,0,0,1,.2-.65c.11-.26.38-.44.88-.5a3.46,3.46,0,0,1,.78-.07h0a9.32,9.32,0,0,1,1.7.19c.6.05,1.18.08,1.7.08A5.83,5.83,0,0,0,79,84.65l.16,0c.09-.39.16-.77.24-1.16.19-1.06.33-2.12.42-3.16l-.16-.16-.07-.06-.06-.06v0L79.48,80a2,2,0,0,1-.09-.92c0-.06,0-.11,0-.16h0c0-.29.06-.52.23-.56a17.9,17.9,0,0,0-1-2.85l-1.42-1.95-.48-.6.48.6c-.64-.9-1.26-1.8-1.8-2.66-.7-.36-1.08-.59-1.14-.63"/><path class="n" d="M78.57,75.49a17.9,17.9,0,0,1,1,2.85h0c.21-.47.28-1-.85-2.53l-.24-.32"/><path class="n" d="M80,80.54a13.44,13.44,0,0,1,.1,1.66h0a12.78,12.78,0,0,1-.21,2.33l.73.1c0-.55.49-.85.69-1.3a1.69,1.69,0,0,0,0-.23h0a3.19,3.19,0,0,0-.73-1.89c-.17-.21-.36-.43-.59-.67"/><path class="o" d="M80.46,63.17l-1.28.17-2.11.29a10.18,10.18,0,0,0-2-.28,37.11,37.11,0,0,1,5.65,3.06A3,3,0,0,0,82,67c.66,0,0-1.32-.8-2.68-.25-.38-.49-.76-.71-1.12"/><path class="o" d="M74.86,63.35a2,2,0,0,0-1.62.59A1.52,1.52,0,0,0,72.9,65v.11a1.78,1.78,0,0,0,.14.67,2.44,2.44,0,0,0,.1.24,2.49,2.49,0,0,1,0-.47,2,2,0,0,1,1.73-2.2"/><path class="p" d="M79.07,33.09a2.55,2.55,0,0,0-.71.14l-.31.08c.42.43.83.85,1.23,1.2a5.31,5.31,0,0,0,1.69.82l.08,0a13.41,13.41,0,0,0-.91-1.68,1.35,1.35,0,0,0-1.07-.6"/><path class="p" d="M77.35,50.22h0l.05.06h0s-.07.12-.2.15l-.6-.1a.74.74,0,0,0,0,.12,6.65,6.65,0,0,1,.83.35h0c-.16.13-.5.14-1.18.16s-1.47-.09-2.08-.09a11.13,11.13,0,0,0-4,.66C68.64,52.07,67,53,64.7,53h-.39a8.77,8.77,0,0,0-1.35.19c-.41.11-.73.26-.74.59a.76.76,0,0,1,0,.15h0c0,.32-.17.56-.17.86a1,1,0,0,0,.14.49c1,1.34,2.67,3.18,3.85,4.74.47-.56,1-1.19,1.49-1.91a1.82,1.82,0,0,1,0-.32h0c0-.92.9-1.57,2.46-1.83a1.46,1.46,0,0,1,.58-.09,20.21,20.21,0,0,1,4.83,1c.78.29,1.56,1,2.33,1.24l.26.08a15.2,15.2,0,0,1-.61-2.07c0-.1.1-.14.21-.14a2,2,0,0,1,.56.13,1.91,1.91,0,0,0,.56.14.28.28,0,0,0,.16,0c.26-1.08-1.15-4.11-1.28-5.91l0-.1h-.25"/><polyline class="p" points="76.67 50.18 76.67 50.18 76.67 50.18 76.67 50.18"/><path class="p" d="M76.75,50.18h0"/><path class="p" d="M77.05,50.2h.3l-.3,0"/><path class="p" d="M77.44,50.22h0"/><path class="q" d="M75.1,31.27c-.48,0-.76.77-1.07,1.31a.63.63,0,0,1-.63.48,44.85,44.85,0,0,1,3.6,3,27.21,27.21,0,0,1,3.22,3.27A7.47,7.47,0,0,1,80.5,38a2.33,2.33,0,0,1,1.09-1.58c-.17-.29-.35-.65-.54-1l-.08,0a5.31,5.31,0,0,1-1.69-.82c-.4-.35-.81-.77-1.23-1.2a2,2,0,0,1-.43.06h-.15a7.48,7.48,0,0,1-1.6-1.56c-.31-.38-.56-.53-.77-.53"/><path class="q" d="M75,50.06h0"/><path class="q" d="M75.13,50.07c.46.07,1,.17,1.36.24l.14,0,.6.1c.13,0,.2-.11.2-.15h0l-.05-.06h-.33l-.28,0h-.46l-.76-.05-.34,0h-.08"/><polyline class="q" points="77.34 50.22 77.31 50.22 77.35 50.22 77.34 50.22"/><path class="q" d="M77.35,50.22h0"/><path class="q" d="M77.5,50.22h0"/><path class="q" d="M82.8,36.46a.93.93,0,0,0-.26.1,2.37,2.37,0,0,1,.39.34c0-.14-.08-.29-.13-.44"/><path class="j" d="M62.33,67c-.07.17-.14.36-.22.58A8.9,8.9,0,0,0,61.72,69a1.5,1.5,0,0,0,.65-1.23,2.77,2.77,0,0,0,0-.74M54,54.4l.26.31c1.32,1.61,2.65,3.22,3.84,4.72-.93-1.28-2-2.73-3.38-4.37,0,0-.26-.25-.72-.66m-8.78-1.58q1.52,3.82,3.22,7.48a19.17,19.17,0,0,0-3.22-7.48m-5.1-6.9h-.22l1.08.38L40.93,46a5.09,5.09,0,0,0-.77-.06"/><path class="m" d="M79.61,78.34c-.17,0-.23.27-.23.56h0s0,.1,0,.16a2.15,2.15,0,0,1,.23-.65v-.07"/><path class="n" d="M79.66,78.34h0v.07a.25.25,0,0,0,0-.07h0"/><path class="m" d="M79.55,80.05v0l.06.06.07.06-.14-.14"/><path class="j" d="M46.83,81.68l-.31.84.16.09a3.7,3.7,0,0,1,1.81-.35,12.36,12.36,0,0,1,1.53.11,31.35,31.35,0,0,0-3.19-.69m-20.5-.58,0,0h0l0,0"/><path class="k" d="M26.35,81.12h0l.12.1h0l-.12-.09"/><path class="l" d="M46.52,82.52l0,.07,0,0,.11.06h0l.09-.06-.16-.09"/><path class="m" d="M26.47,81.21h0a3.31,3.31,0,0,0,1.15.6c.35.1.68.19,1,.27v0l-1.1-.3a3.11,3.11,0,0,1-1.06-.53"/><path class="m" d="M46.45,82.62c-1.14.71-1.72,1.62-4,1.69l.1.07c2.25-.06,2.83-1,4-1.7l-.11-.06"/><path class="n" d="M28.63,82v0A78.14,78.14,0,0,0,41.1,84.32a11.09,11.09,0,0,0,1.22.07h.27l-.1-.07h-.26A11.26,11.26,0,0,1,41,84.24,78.68,78.68,0,0,1,28.63,82m52-.83a3.21,3.21,0,0,1,.73,1.89h0a1.69,1.69,0,0,1,0,.23c.2-.44.16-1-.72-2.12"/><path class="k" d="M79.44,84.46v0h0v0c0,.06-.09.12-.21.16.19,0,.43,0,.66,0l0-.18-.48-.07"/><path class="n" d="M79.92,84.53l0,.18H80a2.37,2.37,0,0,0,.66-.06v0l-.73-.1"/><path class="m" d="M74,84.55h0a3.46,3.46,0,0,0-.78.07l.34,0,2.14.14a9.41,9.41,0,0,0-1.7-.19h0"/><path class="r" d="M26.72,78.86c-.61.3-1,.68-1,1.25a1.59,1.59,0,0,0,.66,1,1.13,1.13,0,0,1,.36-2.1l0-.14m11-33.75c.79,1.57-.34,2,.76,3.66,1.34,2.69,1.15,7.63,1.68,9.65,1,3.86.77,5.2-1.73,6.17-2.26.5-1.76,2.3-3.09,3.41a10.93,10.93,0,0,0-1.61,2.85l.08.1a11,11,0,0,1,1.61-2.86c1.33-1.11.83-2.9,3.09-3.41,2.5-1,2.7-2.31,1.73-6.16-.53-2-.35-7-1.69-9.64-1.11-1.67,0-2.1-.76-3.66l-.06-.11h0"/><path class="s" d="M26.86,78.79a.61.61,0,0,0-.14.07l0,.14.14-.07,0-.14"/><path class="t" d="M33.71,70.85l-.07.12a1,1,0,0,0,.08.11l.07-.13-.08-.1"/><path class="u" d="M33.64,71A5.53,5.53,0,0,1,33,72a6.83,6.83,0,0,0-3.57,3.65,1.48,1.48,0,0,0,.48.91c.36.34,0,.68.09,1a23.5,23.5,0,0,1-3.1,1.3l0,.14a27.33,27.33,0,0,0,3.22-1.36c-.07-.28.27-.61-.09-.95a1.53,1.53,0,0,1-.48-.91,6.76,6.76,0,0,1,3.57-3.65,5.7,5.7,0,0,0,.67-1,1,1,0,0,1-.08-.11"/><path class="v" d="M45.47,81.52c.25.26.49.53.74.81l.31.19.31-.84-.26,0-1.1-.12M26.69,79a1.13,1.13,0,0,0-.36,2.1l0,0c.09-.7.2-1.41.34-2.12m11-33.89.06.11c.78,1.56-.35,2,.76,3.66,1.34,2.68,1.16,7.62,1.69,9.64,1,3.85.77,5.2-1.73,6.16-2.26.51-1.76,2.3-3.09,3.41A11,11,0,0,0,33.79,71a22.27,22.27,0,0,1,1.8,3.59c.36-.37.74-.75,1.13-1.11,2.14-2,4.57-3.79,5.89-3.79a1.36,1.36,0,0,1,.29,0,10.2,10.2,0,0,0,1.94-1.15,9.37,9.37,0,0,0,3-3.53,8.17,8.17,0,0,0,.59-4.69q-1.71-3.66-3.22-7.48A48.81,48.81,0,0,0,41.56,48s-.28-.71-.54-1.64l-1.08-.38a3.78,3.78,0,0,0-.6.08s-.1-.14-.25-.39c-.84-.3-1.32-.48-1.38-.51"/><path class="w" d="M26.83,78.93l-.14.07c-.14.71-.25,1.42-.34,2.12l.12.09q.13-1.12.36-2.28"/><path class="t" d="M33.79,71l-.07.13a23.6,23.6,0,0,1,1.76,3.56l.11-.1A22.27,22.27,0,0,0,33.79,71"/><path class="t" d="M45.28,81.51l.82.89c.11.08.23.15.35.22l0,0,0-.07-.31-.19c-.25-.28-.49-.55-.74-.81h-.19"/><path class="x" d="M33.72,71.08a5.7,5.7,0,0,1-.67,1,6.76,6.76,0,0,0-3.57,3.65,1.53,1.53,0,0,0,.48.91c.36.34,0,.67.09.95a27.33,27.33,0,0,1-3.22,1.36q-.22,1.16-.36,2.28a3.11,3.11,0,0,0,1.06.53l1.1.3a11.89,11.89,0,0,1-.08-1.29h0c0-1.53.41-2.64,1.54-2.64a2.82,2.82,0,0,1,1.06.25l1.5.19a5,5,0,0,1-.13-.62s1.26-1.55,3-3.29a23.6,23.6,0,0,0-1.76-3.56"/><path class="x" d="M44.72,81.49c-1,0-1.81.21-1.77.81,0,0-1.15.17-2.65.28.68.55,1.41,1.13,2.19,1.73,2.24-.07,2.82-1,4-1.69-.12-.07-.24-.14-.35-.22l-.82-.89-.56,0"/><path class="y" d="M30.09,78.11c-1.13,0-1.54,1.11-1.54,2.64A11.89,11.89,0,0,0,28.63,82,78.68,78.68,0,0,0,41,84.24a11.26,11.26,0,0,0,1.23.07h.26c-.78-.6-1.51-1.18-2.19-1.73-.61,0-1.28.09-1.95.11h-.54c-2.13,0-4.14-.3-4.21-1.69a21.66,21.66,0,0,1-1-2.45l-1.5-.19a2.82,2.82,0,0,0-1.06-.25"/><path class="z" d="M40.93,46l.09.33c.26.93.54,1.64.54,1.64a48.81,48.81,0,0,1,3.7,4.87,19.17,19.17,0,0,1,3.22,7.48A8.17,8.17,0,0,1,47.89,65a9.37,9.37,0,0,1-3,3.53,10.2,10.2,0,0,1-1.94,1.15,1.36,1.36,0,0,0-.29,0c-1.32,0-3.75,1.79-5.89,3.79-.39.36-.77.74-1.13,1.11a9.86,9.86,0,0,0,1.11,1.9c.38.08.85.51,1.29.51a.57.57,0,0,0,.25-.06,1.8,1.8,0,0,1,.73-.15,3.5,3.5,0,0,1,.65.07,24.45,24.45,0,0,1,5.85,4.71l1.1.12.26,0a31.35,31.35,0,0,1,3.19.69l.24.06a3.66,3.66,0,0,0,.57,0h.23a9.51,9.51,0,0,0,3.34-.74,12.92,12.92,0,0,0,2-1,1.84,1.84,0,0,0,.57.11c1.11,0,1.46-1.42,1.55-3.15a22.09,22.09,0,0,1-.72-4.08c-.18-2.33.2-4.55,1.77-4.55a2.6,2.6,0,0,1,.95.21h.05a2.24,2.24,0,0,0,1.2-.34,8.9,8.9,0,0,1,.39-1.39c.08-.22.15-.41.22-.58-.23-1.41-1.35-3.71-4.19-7.59-1.19-1.5-2.52-3.11-3.84-4.72L54,54.4c-1-.9-2.91-2.59-5.11-4.24-2.59-1.94-5.6-3.82-8-4.18"/><path class="aa" d="M35.59,74.54l-.11.1a9.13,9.13,0,0,0,1.1,1.85c.37.08.85.51,1.29.51a.52.52,0,0,0,.24,0,1.76,1.76,0,0,1,.72-.15,4.9,4.9,0,0,1,.67.07,24.66,24.66,0,0,1,5.78,4.64h.19a24.45,24.45,0,0,0-5.85-4.71,3.5,3.5,0,0,0-.65-.07,1.8,1.8,0,0,0-.73.15A.57.57,0,0,1,38,77c-.44,0-.91-.43-1.29-.51a9.86,9.86,0,0,1-1.11-1.9"/><path class="ab" d="M35.48,74.64c-1.7,1.74-3,3.29-3,3.29a5,5,0,0,0,.13.62l.49.07a25.41,25.41,0,0,1,3.15.57s1.06.94,2.68,2.3l1.33,1.09c1.5-.11,2.65-.28,2.65-.28,0-.6.72-.81,1.77-.81l.56,0a24.66,24.66,0,0,0-5.78-4.64,4.9,4.9,0,0,0-.67-.07,1.76,1.76,0,0,0-.72.15.52.52,0,0,1-.24,0c-.44,0-.92-.43-1.29-.51a9.13,9.13,0,0,1-1.1-1.85"/><path class="ac" d="M32.65,78.55a21.66,21.66,0,0,0,1,2.45c.07,1.39,2.08,1.69,4.21,1.69h.54c.67,0,1.34-.06,1.95-.11L39,81.49c-1.62-1.36-2.68-2.3-2.68-2.3a25.41,25.41,0,0,0-3.15-.57l-.49-.07"/><path class="ad" d="M58.71,78.62c-.09.15,0,.36.21.68,0,0-.09-.26-.21-.68M37.86,38.22c-1.5,0-1.54,1.38-1,3a20.49,20.49,0,0,0,2.26,4.44c.15.25.25.39.25.39a3.78,3.78,0,0,1,.6-.08h.22a5.09,5.09,0,0,1,.77.06c2.4.36,5.41,2.24,8,4.18,2.2,1.65,4.12,3.34,5.11,4.24.46.41.72.66.72.66,1.33,1.64,2.45,3.09,3.38,4.37,2.84,3.88,4,6.18,4.19,7.59a2.77,2.77,0,0,1,0,.74A1.5,1.5,0,0,1,61.72,69a2.24,2.24,0,0,1-1.2.34h-.05a2.6,2.6,0,0,0-.95-.21c-1.57,0-2,2.22-1.77,4.55a22.09,22.09,0,0,0,.72,4.08c.08.33.17.63.24.87.11-.2.45-.27.88-.27l.36,0a12,12,0,0,1,2,.36c-.22-.89,1.33-1.19,3.07-1.19h.47a30,30,0,0,1,3.85.39,6.34,6.34,0,0,0,2.22.56c.79,0,1.07-.4,1.13-.91a4.46,4.46,0,0,0-.44-1.92A16.59,16.59,0,0,1,70,72.78c-.26-.49-.19-.59-.19-.59.75-2.31-3-8.41-6.66-14.3s-7.27-11.37-7.27-11.37c-1.83-2.82-5.61-4.82-9-6A32.69,32.69,0,0,0,40.5,39a6.68,6.68,0,0,0-2.64-.78"/><path class="ae" d="M49.76,23.41a4.21,4.21,0,0,0-.7.05c-2,.15-2.23,2.15-3.7,2.7h0a1.69,1.69,0,0,1-.33-.53l-.35.39c.09.25.07.82.16,1.06a1,1,0,0,1-.48.11,3.62,3.62,0,0,1-1-.2,11,11,0,0,0-4.7-1,20.36,20.36,0,0,0-3.08.29,20.2,20.2,0,0,1-3,.29A9.86,9.86,0,0,1,30,26.2c-.28,0-.6-.05-.92-.05-.69,0-1.37.12-1.54.64s-.74,1.07-.56,1.84a52.87,52.87,0,0,0,3,5.6l.68-.74c.43-.47.87-.92,1.3-1.38,0-1.06.88-1.71,2.3-1.71l.54,0h.12c.85,0,3,1.25,4.73,2.46.66.51,1.27,1.32,1.92,1.82C44,36.49,45.8,37,48.46,39.51a7.74,7.74,0,0,0,3.43,1.89c.56,0,0-2.95-.37-6.09s-.6-6.49-.36-6.73-.65-1.38-.55-1.71a1.61,1.61,0,0,1,.63-.12c1.13,0,2.78.88,4.3,1.64a4.52,4.52,0,0,0,1.84.37,8.45,8.45,0,0,0,2-.29,8.05,8.05,0,0,1,1.17-.29s.07,0,.09,0c1.27,2.26,3.18,4.85,3.7,6.77a11.27,11.27,0,0,0,.9,1.3,5.67,5.67,0,0,0,1.36,1.23h0c0,.21.11.3.37.3a3.48,3.48,0,0,0,1.29-.35c.84-.37,1.56-.93.82-1.3a.93.93,0,0,0,.39.1c.49,0,.62-.56.73-1.24s.22-1.87.8-2.18a.77.77,0,0,1,.49-.15,3.74,3.74,0,0,1,.94.19,3.43,3.43,0,0,0,.92.19h0a14.53,14.53,0,0,0-2-1.22c-.5-.39-1.24-.7-1.56-1.32l0-.06a1.59,1.59,0,0,0-.46.07h0a6,6,0,0,1-1-.34c-.5.1-.75.63-1.24.63a1.34,1.34,0,0,1-.82-.39A33.38,33.38,0,0,0,59,25.25a22.39,22.39,0,0,0-5.17-1.42,27.63,27.63,0,0,0-4.08-.42"/><path class="af" d="M74.76,28.39c.7.57,1.36,1.34,1.93,1.76a3.1,3.1,0,0,0,1.77.49l.56,0h.08A7.83,7.83,0,0,0,78,29.31a2.83,2.83,0,0,0-1.51-.59,8.6,8.6,0,0,0-1.68-.33"/><path class="ag" d="M74.15,28.36a5.76,5.76,0,0,0-2.86.72,2.15,2.15,0,0,1,0,.83,6.34,6.34,0,0,0,1.23.53c1.37.57,2.56.24,3.71,1.21a13.29,13.29,0,0,1,1.85,1.66l.31-.08a2.55,2.55,0,0,1,.71-.14,1.35,1.35,0,0,1,1.07.6,13.41,13.41,0,0,1,.91,1.68c.7.36,1.34.69,1.94,1a.55.55,0,0,0,.1-.42h0c-.22-.32-.47-1.08-.8-1.51-.64-1-1.28-1-2-2.12-.39-.51-.79-1.12-1.21-1.69H79l-.56,0a3.1,3.1,0,0,1-1.77-.49c-.57-.42-1.23-1.19-1.93-1.76-.2,0-.41,0-.61,0"/><path class="ah" d="M71.26,29.91c-.13.49-.51.57-.93.57h-.54l0,.06c.32.62,1.06.93,1.56,1.32a14.53,14.53,0,0,1,2,1.22.63.63,0,0,0,.63-.48c.31-.54.59-1.31,1.07-1.31.21,0,.46.15.77.53a7.48,7.48,0,0,0,1.6,1.56h.15a2,2,0,0,0,.43-.06,13.29,13.29,0,0,0-1.85-1.66c-1.15-1-2.34-.64-3.71-1.21a6.34,6.34,0,0,1-1.23-.53"/><path class="ah" d="M81.05,35.37c.19.39.37.75.54,1s.39.54.56.54.18-.06.26-.22a.48.48,0,0,1,.13-.17.93.93,0,0,1,.26-.1.33.33,0,0,0,.19-.11c-.6-.29-1.24-.62-1.94-1"/><path class="ai" d="M76.67,72.94l.48.6c.53.65,1,1.22,1.31,1.7h0c-.35-.48-.78-1-1.31-1.7l-.48-.6"/><path class="aj" d="M79.91,78.06c0,.25-.11.31-.11.31l-.14,0h0l.14,0s.11-.06.11-.31h0m-.12-.56a1.7,1.7,0,0,1,.12.56,1.7,1.7,0,0,0-.12-.56m-1.33-2.26h0a10.26,10.26,0,0,1,1.33,2.26,10,10,0,0,0-1.33-2.26"/><path class="ai" d="M79.61,78.34c-.17,0-.23.27-.23.56,0-.29.06-.52.23-.56h0"/><path class="ak" d="M79.85,80.34h0l.18.18h0l-.18-.18"/><path class="ai" d="M79.62,80.13l.07.06.16.15h0l-.16-.15-.07-.06"/><path class="aj" d="M81.33,83.42a2.07,2.07,0,0,1-.63,1.21,2.07,2.07,0,0,0,.63-1.21m0-.32a1.69,1.69,0,0,1,0,.23s0,.06,0,.09,0-.06,0-.09a1.69,1.69,0,0,0,0-.23M80,80.52h0a8.42,8.42,0,0,1,.59.69,3.19,3.19,0,0,1,.73,1.89,3.21,3.21,0,0,0-.73-1.89,8.42,8.42,0,0,0-.59-.69"/><path class="ak" d="M79.44,84.52c0,.06-.09.12-.21.16h0c.12,0,.2-.1.21-.16m0,0v0h0"/><path class="ai" d="M72.18,85.77h0v.1a4.32,4.32,0,0,0,.92,2,4.38,4.38,0,0,1-.92-2v-.1m3.92-1h0s.48,0,1.08,0h0c-.6,0-1.08,0-1.08,0h0m3.08-.13a5.71,5.71,0,0,1-1.34.14,5.71,5.71,0,0,0,1.34-.14h0M74,84.55a9.41,9.41,0,0,1,1.7.19l.36.08-.36-.08a9.32,9.32,0,0,0-1.7-.19m0,0a3.46,3.46,0,0,0-.78.07,1.34,1.34,0,0,0-.88.5,1,1,0,0,0-.2.65h0a1,1,0,0,1,.2-.65,1.34,1.34,0,0,1,.88-.5,3.46,3.46,0,0,1,.78-.07"/><path class="al" d="M48.23,20.46a13,13,0,0,0-1.37.06c-3.26,1-2.42,3.92-1.83,5.11a1.69,1.69,0,0,0,.33.53h0c1.47-.55,1.74-2.55,3.7-2.7a4.21,4.21,0,0,1,.7-.05,27.63,27.63,0,0,1,4.08.42A22.39,22.39,0,0,1,59,25.25a33.38,33.38,0,0,1,7.26,5.18,1.34,1.34,0,0,0,.82.39c.49,0,.74-.53,1.24-.63a6,6,0,0,0,1,.34h0a1.59,1.59,0,0,1,.46-.07.27.27,0,0,1-.05-.14h0c0-.27.58-.38.78-.68a1,1,0,0,1,0-.16h0c0-.32.28-.5.6-.68a3.8,3.8,0,0,0-.37-.33h.16c.28,0,.55,0,.82,0a1.57,1.57,0,0,0,.32-.31,1.32,1.32,0,0,1,1-.54,1.94,1.94,0,0,1,.92.27,12.87,12.87,0,0,0,3.31-2.2l.23-.2a10.3,10.3,0,0,0-6.43-2.81,4.63,4.63,0,0,0-.65,0c-.57.07-.62,1.11-.9,1.66-.29.71-.87.89-1.41,1.2a1.82,1.82,0,0,0-1,1.94c0,.23-.09.33-.25.33a.6.6,0,0,1-.24-.06,58,58,0,0,0-5-3.27c-1.69-1-3.42-1.88-5.18-2.7A10.07,10.07,0,0,0,54.13,21a24.41,24.41,0,0,0-2.92-.43c-1.12-.11-2.17-.15-3-.15"/><path class="am" d="M77.53,25.46l-.23.2A12.87,12.87,0,0,1,74,27.86c.15.08.29.17.44.27l.33.26a8.6,8.6,0,0,1,1.68.33,2.83,2.83,0,0,1,1.51.59,7.83,7.83,0,0,1,1.15,1.3,14.9,14.9,0,0,1,1.51-.11,4.54,4.54,0,0,1,.82.07l.12.08a17.85,17.85,0,0,0-1.75-2.83,18.26,18.26,0,0,0-2.27-2.36"/><path class="an" d="M80.61,30.5a14.9,14.9,0,0,0-1.51.11c.42.57.82,1.18,1.21,1.69.7,1.12,1.34,1.09,2,2.12.33.43.58,1.19.8,1.51h0c.14-.21.46.06.38-.48A6.51,6.51,0,0,0,83,33.59c-.44-.94-.91-2-1.41-2.94l-.12-.08a4.54,4.54,0,0,0-.82-.07"/><path class="am" d="M71.71,28.44c-.27,0-.54,0-.82,0h-.16a3.8,3.8,0,0,1,.37.33c.2-.12.42-.23.61-.36"/><path class="an" d="M73.07,27.59a1.32,1.32,0,0,0-1,.54,1.57,1.57,0,0,1-.32.31c-.5.35-1.2.52-1.21,1a1,1,0,0,0,0,.16h0a2.48,2.48,0,0,1,.74.27,2.15,2.15,0,0,0,0-.83,5.76,5.76,0,0,1,2.86-.72c.2,0,.41,0,.61,0l-.33-.26c-.15-.1-.29-.19-.44-.27a1.94,1.94,0,0,0-.92-.27"/><path class="ao" d="M70.52,29.64c-.2.3-.78.41-.78.68a.27.27,0,0,0,.05.14h.54c.42,0,.8-.08.93-.57a2.48,2.48,0,0,0-.74-.27"/><path d="M23.52,84.49c-2.18,5.07-2.15,9.71.89,14a10.66,10.66,0,0,0,.6.89c1.79,2.1,2.77,2.4,6,1.81.87,1,1.3,3.19,3.27,2a10.49,10.49,0,0,0,2.35,2,12.1,12.1,0,0,0,3.23.36,2.29,2.29,0,0,0,2.23,1.55c7.9.68,15.76,2.26,23.73.89a9.6,9.6,0,0,1,1.61-.09c10.53.05,20-3.27,28.81-8.85a56.32,56.32,0,0,0,13.91-12.44c2.69-3.33,5.82-6.27,8.12-10a44.8,44.8,0,0,0,6.64-18c.86-6.68-.8-12.72-5.64-17.73-6-6.24-13.37-10.07-21.58-12.37-1.5-.42-3.18-.12-4.78-.22s-3.36.71-4.93-1a6.5,6.5,0,0,1,1.42-.74A22.45,22.45,0,0,1,103,28.14c4.56,1.93,9,3.93,12.87,7.07A47.32,47.32,0,0,1,123,42.06a21.41,21.41,0,0,1,4.51,14c-.07,5.1,0,10.2-.25,15.29-.44,7.9-1.84,15.59-5.86,22.62-2.08,3.64-5,6.5-7.88,9.44-.92,1-1.62,2.1-2.53,3.06s-1.74,2.52-3.54,2.57a2.63,2.63,0,0,0-1.38.71c-6.21,5.1-13.39,8.57-20.56,12a37.42,37.42,0,0,1-13.24,3.19,9.69,9.69,0,0,1-4.22-.5,34.26,34.26,0,0,0-10.46-2,23,23,0,0,1-9.69-3.29c-3.12-1.75-6.26-3.46-9.31-5.32a34.6,34.6,0,0,1-8.16-6.35,24.78,24.78,0,0,0-2.61-2.28c-4.2-3.56-7.62-7.57-7.86-13.44a6,6,0,0,1,0-1.34c.81-4.47,1.63-8.95,2.54-13.41.13-.63.8-1.16,1.5-2.11-.71-3.2,1-5.75,3.94-7.82,2.32-1.64,3-4.09,2.76-6.84-.17-1.78-.44-3.55-.61-5.33a3.63,3.63,0,0,1,1.64-3.71,8.88,8.88,0,0,0,4.09-6.28,6.21,6.21,0,0,1,5.94-4.91,3.67,3.67,0,0,1,.81,0c3.23.43,5.34-1.22,7.15-3.65a8.7,8.7,0,0,1,2.64-2.17,3,3,0,0,1,3.49.37c2.32,1.72,2.38,1.68,4.5-.24a23.64,23.64,0,0,1,15.2-6.5c.27,0,.58-.15.8-.05,2.68,1.17,5.39,0,8.09.11,1.85.07,3.44.3,4.8,1.85.65.73,2,1,3.12,1.13,1.31.21,2.68,0,4,.15a8,8,0,0,1,6.94,5.61,10.12,10.12,0,0,0,1.42,2.17c.83,1.31,1.29,2.62-.33,3.86a9.12,9.12,0,0,0,4.72,3.29,13,13,0,0,1,5.12,3.26,3.8,3.8,0,0,1,.64,5.1,9.37,9.37,0,0,0-1,8.23,38,38,0,0,1,1.56,6.5,23.67,23.67,0,0,1,.15,5.58,3.48,3.48,0,0,1-1.45,2.44c-2.38,1.31-3.75,3.46-5.29,5.53a11.07,11.07,0,0,1-6.19,4.46,2.83,2.83,0,0,0-1.45.62c-1.61,2-3.92,2.68-6.1,3.7a33.89,33.89,0,0,0-4.21,2.81c-1.34.89-2.69,1.75-4,2.65a17.61,17.61,0,0,0-3,2c-.89.91-2.57,1.06-3.91,1.5-4.08,1.33-8.16,2.63-12.23,4a17.12,17.12,0,0,1-5.65.76,54.48,54.48,0,0,1-6.89-.45,41.72,41.72,0,0,1-6.25-1.37,8,8,0,0,1-4-3c-1.43-1.8-2.59-4.09-5.19-4.67-.26-.06-.54-.31-.75-.25-1.93.55-3.65-.35-5.4-.81a19.66,19.66,0,0,1-3.89-1.6c-.87-.44-1.54-1.27-2.41-1.68a5,5,0,0,1-2.65-3.77A23,23,0,0,0,23.52,84.49ZM48.8,84a6.93,6.93,0,0,0-3.65,6.64c0,.8.09,1.61.1,2.41a6.77,6.77,0,0,0,4.61,6.81c3.16,1.18,6.45,2,9.71,2.93a4.73,4.73,0,0,0,1.84-.18,16.4,16.4,0,0,0,8-4.2A13.78,13.78,0,0,1,79.26,95c.8,0,1.61,0,2.41.05,3.09.34,5.5-1,7.81-2.87A19.58,19.58,0,0,1,94.4,89c2.69-1,5-2.27,6-5.38L102.21,85c1.49-.69,3.28-1,3.83-2.7.23-.71-.37-1.68-.7-2.91.78-.89,1.74-2,2.75-3.16,3.38-3.74,5.83-7.73,3.71-13a9.07,9.07,0,0,1-.41-1.55,10.52,10.52,0,0,1,.85-7.55c1.22-2.18,1.05-3.32-1-4.57a25.7,25.7,0,0,0-3-1.18,13.48,13.48,0,0,1-3.49-1.83C102.26,44.16,99.49,43,96,44.16c-.68.23-1.34.49-2,.7-2.81.89-5.53,1.64-8.63,1a27.5,27.5,0,0,0-8,0c-2.22.25-4.46,1.18-5.22,3.53a6.5,6.5,0,0,1-1.71,2.89c-2,1.94-3.81,4.07-4.37,6.91a8.34,8.34,0,0,1-3.6,5.11,8.28,8.28,0,0,0-2.16,2.3A40.19,40.19,0,0,0,57,73.07,11.48,11.48,0,0,1,53,78.22c-2.64,2.07-2.86,4.44-.84,7.17.38.52.71,1.08,1.37,2.09C50.7,87.43,49.78,85.84,48.8,84ZM75.9,30a10.87,10.87,0,0,0-5.74.84c-3.19,1.38-6.37,2.78-8.82,5.45-1.93,2.1-3.67,2.13-6.2.59-.6-.36-1.23-.68-1.81-1a3.57,3.57,0,0,0-.81.4,51.36,51.36,0,0,0-4.65,4.43A3.58,3.58,0,0,1,44,42.1c-3.55-.65-6.28,1.11-6.81,4.4a7.51,7.51,0,0,1-3.57,5.66,3.42,3.42,0,0,0-1.69,3.9c.25,1.23.38,2.48.57,3.72a9.46,9.46,0,0,1-3.84,9.42c-3.27,2.54-3.53,3.87-2.17,7.88,1,2.89,2.94,5.69,1.24,8.6,1.39,1.58,2.52,2.92,3.7,4.2a2.88,2.88,0,0,0,3.68,0c1.32-1.42,3.08-2.49,3.62-4.58A21.53,21.53,0,0,1,40,81.78c.36-.83.54-1.9,1.92-2.1.45,2.77-1.43,5-1.53,7.29l2.85-.55c.82-1,1.74-2.19,2.76-3.29,1.25-1.35,2.81-2.41,3.23-4.43a3.14,3.14,0,0,1,1.54-1.78c3.83-2,4.83-6.11,6.5-9.52a12.08,12.08,0,0,1,4-5.15A6.26,6.26,0,0,0,64,58.45a9.93,9.93,0,0,1,3-5.54,5.67,5.67,0,0,0,1.54-2.46c1.06-3.11,3.38-5,6.21-6.23a16.55,16.55,0,0,1,9.76-.8,16.13,16.13,0,0,0,9.9-1.29,9.24,9.24,0,0,1,6.8-.5,9.91,9.91,0,0,0,2.25,0c-.56-1.42-.94-2.46-1.38-3.48a6.94,6.94,0,0,0-.79-1.3,11,11,0,0,0-1.92-2.43c-2.12-1.58-4.66-1.7-7.18-1.48A4.84,4.84,0,0,1,88,31.76c-2-2.19-4.53-1.88-7-1.62a2.62,2.62,0,0,0-2.3,3C75.59,33.45,75.05,32.86,75.9,30Zm28,66.62a4.17,4.17,0,0,0-1,.23q-5.3,3.41-10.57,6.86c-.34.22-.84.72-.78,1a25.33,25.33,0,0,0,1.72,5.77c.64,1.25,2.1,2.08,3.25,3.15a78.73,78.73,0,0,0,15.16-11.29,3.86,3.86,0,0,0,1.32-2.16,10.23,10.23,0,0,1,1.7-4.86l3,.45a7.43,7.43,0,0,0,.88-1,41.36,41.36,0,0,0,6-16.51c.33-2.33.63-4.72-1.05-7.31,0,1.22-1.4,1.75-.27,2.84a1,1,0,0,1-.07.94c-2,1.5-1.79,4.9-4.38,5.3.19,1.51.34,2.77.51,4,.1.76,0,1.84.41,2.19,1.08.87.52,1.52.1,2.3a10.9,10.9,0,0,0-1.21,2.38c-.28,1.12-1,1.51-2.18,2a1.88,1.88,0,0,0-1.61-2.48c-.14,0-.18-.44-.31-.79l2.39-.52a29.52,29.52,0,0,0,.94-8l-7.44,8.22c1.42,1.72,3.1,3.1,2.59,5.69l-3.36-4.64a17,17,0,0,1-2,2.09c-2.46,1.76-2.7,4-1.55,6.55a2.6,2.6,0,0,1,.1.25c1.21,3.85,1.2,3.87-2.19,6.53-1.36-.83-.86-2-.46-3.07.16-.41,1-.55,1.62-.87ZM59.83,116.9c.77-1,1.53-1.9,2.33-2.82.11-.13.47,0,.94-.06-.1.74-.19,1.37-.33,2.36l6.6,1c-.46,1.35-1.48,1-2.27,1.18s-2-.08-2.53.41a1.82,1.82,0,0,1-2.51.5c-1-.47-1.18.29-1,1.38,2.11.15,4.25.27,6.37.47,1,.08,2.3,0,2.79.57,1.21,1.4,2.57.95,3.92.82a16.73,16.73,0,0,0,10.07-4.59c1.15-1.1,1.87-.84,2.46.6l8.6-4.26-2.32-2.67c-.79,1.29-.73,2.69-2.48,3.16-.08-.76-.41-1.51-.19-2,1.22-2.73,0-5.14-.59-7.72L79.35,108.6a18.35,18.35,0,0,1-1.75,11.5,10.89,10.89,0,0,1,.12-6.16,6.16,6.16,0,0,0-.31-4.9c-1.62.19-3.12.42-4.63.53q-7.75.56-15.51,1c-1.7.11-2.06.56-1.92,2.62,1.12-.41,1.34-2.56,3.06-1.76.15,1.16-1.83,1.8-.61,3.08,2.26-1.74,2.26-1.74,3.41-.89C60.36,114.5,59.25,115.23,59.83,116.9Zm-14-1.91.57.12c2.28-2.81,2.36-3.12.87-4.63C46.77,112.07,46.3,113.53,45.84,115Zm6.61-1.07-.78-.29a3.83,3.83,0,0,0-.54,4Zm.21,4.91,1,.2c-.16-1.42,1.43-2.45.25-4.13ZM39.72,108.62c-1.27,1.13-1.27,1.13-.91,2.53ZM53,112.26l1.15-1.9C52.66,110.54,52.08,110.84,53,112.26Zm3.55,5.06-.51-.17c-.24.77-.47,1.54-.7,2.31l.46.15Zm-22.19-9.61c.7-.44,1.64-1,.12-1.58Zm15,6.9L49,114.3a3.69,3.69,0,0,0-.5.88,5.48,5.48,0,0,0,0,1.37C49,115.55,49.21,115.08,49.41,114.61ZM124.77,69h.38V67.72h-.38Z"/><path d="M115.08,58.71c.26,1.21.52,2.41.83,3.92-1.73-1.05-1.85-1.44-1.42-3.75Z"/><path d="M92.61,73.86c-.18.52-.2,1.22-.56,1.55a34.47,34.47,0,0,1-4.16,3.28A2.19,2.19,0,0,1,84.81,78c-.67-.82-1.4-1.59-2.31-2.62-1.13.64-2.21,1.17-3.21,1.84-1.85,1.24-3.6,2.65-5.49,3.81-2.23,1.38-5.91.17-7-2.23A2.75,2.75,0,0,1,66.6,77c.15-.49.78-.82,1.21-1.22.39.41,1,.76,1.13,1.25.71,2.57,2.48,3.22,4.65,1.6,1.56-1.18,3.06-2.44,4.66-3.56a14.16,14.16,0,0,1,3.06-1.6c1.76-.66,2.74-.31,4,1.14,1.78,2.08,1.78,2.08,4.09.56.88-.58,1.74-1.16,2.61-1.75Z"/><path d="M94.59,54l-2-.87A5.26,5.26,0,0,0,85,56.94c-.26,1.13-.41,2.28-.63,3.42a7.17,7.17,0,0,1-4.67,5.72A3.59,3.59,0,0,0,77,69.62a2.08,2.08,0,0,1-.17,1,7,7,0,0,1-1.06,1c-.33-.46-.89-.89-.93-1.36-.29-3.26.69-4.93,3.76-6.29,2-.91,3.4-2.23,3.64-4.54.09-.8.4-1.57.47-2.36.25-3.12,2.21-4.93,4.69-6.38A4.81,4.81,0,0,1,94.59,54Z"/><path d="M68,91c.28-1,.5-1.73.71-2.47-3.5-1.59-5.91-.18-6,3.45,0,1.24,0,2.49,0,3.74,0,3-.81,4-3.68,4.69a9.14,9.14,0,0,1-2.38.3c-1.09,0-1.59-.67-1.3-2.08.93-.14,2-.29,3-.47A1.93,1.93,0,0,0,60.18,96c0-1.24,0-2.5,0-3.74a12.54,12.54,0,0,1,.34-2.37,6.24,6.24,0,0,1,9.55-3.37c1.24.91,1.74,2.11,1.33,3.19S70.18,91,68,91Z"/><path d="M95.6,81.49c-.56-4.34,1.11-7.22,4.8-8a5.26,5.26,0,0,0,4.29-3.81c.29-.8.45-2,1.62-1.66s.66,1.58.39,2.5c-.74,2.57-2.08,4.44-5,4.87a5.31,5.31,0,0,0-3.82,2.66C97.25,79.13,96.53,80.12,95.6,81.49Z"/><path d="M100,61.37c1.62-.49,2.54-1.45,2-3.28,1.75.07,2,1.16,2,2.18s-1.28,2.59-2.48,2.84S100.24,62.56,100,61.37Z"/><path d="M51.53,54.37a12.49,12.49,0,0,0-2-1.14A4.9,4.9,0,0,1,46.2,48.8a4.45,4.45,0,0,1,3.25-4.46,30.89,30.89,0,0,1,5.42-1.14,7.79,7.79,0,0,1,2.13.19,3.92,3.92,0,0,0,4.46-2.12c.42-.75.79-1.93,2.49-1.49a6,6,0,0,1,0,2.07,5.56,5.56,0,0,1-5.75,3.78,27.63,27.63,0,0,0-4.81,0A8.53,8.53,0,0,0,49.52,47c-1.66,1.24-1.33,3.11.5,4.14.53.3,1.18.39,1.74.66a3.38,3.38,0,0,1,2,3.69,1.84,1.84,0,0,1-1.92,1.83h-.8c-2.86.07-2.86.07-3.89,2.73a2.41,2.41,0,0,1-.74-2.83c.79-2.55,3.13-1.81,4.91-2.24C51.42,54.8,51.47,54.58,51.53,54.37Z"/><path d="M46.48,70.14a21.11,21.11,0,0,0,1-2.23,9.21,9.21,0,0,0,.22-1.76c-.67,0-1.34-.1-2-.09-.24,0-.47.23-.72.34-3.71,1.7-7,.1-7.5-3.88a11.59,11.59,0,0,1,1.68-7.93c.2-.3.38-.69.67-.82a8.64,8.64,0,0,1,1.61-.41c0,.55.26,1.33,0,1.63-1.51,1.65-1.69,3.74-1.92,5.75A5.48,5.48,0,0,0,40.2,64c.95,1.57,1.95,1.69,3.62.62s3-1.51,4.75-.52c1.55.89,2,2,1,3.55a28,28,0,0,1-2.43,2.91Z"/><path d="M56.88,58.63a12.69,12.69,0,0,1,.75-1.47c1.55-2.23,1.57-2.26-.41-4.15-.84-.79-1.49-1.56-.58-2.71.62-.8,1.35-1.18,2.29-.57,1.28.83.26,1.45-.33,2.24.77,1.16,2.33,2.1,1.77,3.84A6.68,6.68,0,0,1,57.47,59Z"/><path d="M93,108.42c1.1-2.58,2.49-2.79,5-.74C96.18,108,94.72,108.6,93,108.42Z"/><path d="M85.1,107.85c1.78,1.8,1.9,3.42.63,5.77C84.85,112.6,84.63,110.84,85.1,107.85Z"/><path d="M75.88,112.93c1.05,1,1.05,1-.09,2.42C75.12,114.28,75.12,114.28,75.88,112.93Z"/></svg>