<svg xmlns="http://www.w3.org/2000/svg" viewBox="0 0 150 150"><defs><style>.a{fill:#c5c3c2;}.b{fill:#a19d9a;}.c{fill:#928d8c;}.d{fill:#56504f;}.e{fill:#504b49;}.f{fill:#5e5b59;}.g{fill:#7e7978;}.h{fill:#bfbebc;}.i{fill:#777271;}.j{fill:#908c8b;}.k{fill:#e4e4e2;}.l{fill:#b1acaa;}.m{fill:#777370;}.n{fill:#8f8c8a;}.o{fill:#696361;}.p{fill:#afaeac;}.q{fill:#575552;}</style></defs><title>icon</title><path class="a" d="M46.47,65h0s0,.09.24.09l.2,0h0l-.2,0c-.21,0-.24-.09-.24-.09m0-.07,0,.07h0l0-.07h0m-.94-.19h0a3.23,3.23,0,0,1-.66.37h0a3.23,3.23,0,0,0,.66-.37m.17,0h0a2.23,2.23,0,0,1,.42,0h0a2.23,2.23,0,0,0-.42,0m-2.59-.11h0a1.35,1.35,0,0,0,.58.54l.06,0h0l-.06,0h0a1.35,1.35,0,0,1-.58-.54m0,0v0h0v0h0m.58-2.48-.1.16h0s-.15.43-.25.86h0a3,3,0,0,0-.1.65h0a3,3,0,0,1,.1-.65c.1-.43.25-.86.25-.86l.1-.16h0m.48-1.32h0a1.1,1.1,0,0,1,0,.18h0a1.37,1.37,0,0,0,0-.19h0"/><path class="a" d="M53.16,103.76h0a2,2,0,0,1-.86.44h0a2,2,0,0,0,.86-.44m.08-.06c.12,0,.76,0,1.41.15h0c-.65-.1-1.29-.14-1.41-.15h0m7.62-.44h0a7.26,7.26,0,0,1-3.39,1.25h-.31a2.78,2.78,0,0,1-1-.16h0a.44.44,0,0,0-.09-.11h0a.44.44,0,0,1,.09.11,2.78,2.78,0,0,0,1,.16h.31a7.26,7.26,0,0,0,3.39-1.25m-14.15-.34,0,0A16.75,16.75,0,0,0,49.33,104l.21,0h0l-.21,0h0A16.75,16.75,0,0,1,46.74,103l0,0h0M44,100.5h0a11.09,11.09,0,0,0,1.38,1.22h0A11.09,11.09,0,0,1,44,100.5h0m-1.4-1.72.13.26h0l-.08-.16,0-.1h0m-2.83-3a7.23,7.23,0,0,1,1.38,1h0a7.23,7.23,0,0,0-1.38-1h0"/><path class="a" d="M85,77.37l-.11.15h0l.11-.15h0m.62-1.3v0a.66.66,0,0,1,0,.23h0a.87.87,0,0,0,0-.26h0"/><path class="b" d="M70.5,42.11c-.31.26-.67.59-1.1,1s-1,.91-1,.91h0l0,0h0l-.27.26-.69.66c-.54.51-1.19,1.11-1.68,1.51l-.46.54c.35-.29,1.17-1,1.77-1.44a2.5,2.5,0,0,1,.68-.44s0,0,0,0h0a5,5,0,0,1-.87,1.26l-1.63,2.46A28,28,0,0,1,62,53.05,59.29,59.29,0,0,1,57,57.31c-2.36,1.82-5.06,3.4-6.28,3.4a.89.89,0,0,1-.38-.07h0c-.1,0-.46.09-1.85,1a2.58,2.58,0,0,1-.63.09,1,1,0,0,1-.31,0,.37.37,0,0,1-.29-.38h0c0-.25.16-.62.63-1.2,0,0,.47-.84.86-1.66A4.22,4.22,0,0,0,49.22,57c0-.17-.06-.26-.21-.26h0s.35-.42.6-.8a1.21,1.21,0,0,0,.22-.46.08.08,0,0,0,0-.06H49.5a.82.82,0,0,1,.22,0,.1.1,0,0,1,.09,0l.38,0c-.5-.15-.88-.37-.88-.67h0a.65.65,0,0,1,.28-.47,4.42,4.42,0,0,1,1-2.24c-1,1-2.55,2.26-4,3.51-1.84,1.49-4.68,3.7-4.68,4.37a.21.21,0,0,0,0,.13c.57.29,1.83,0,2.21.36a.56.56,0,0,0-.31-.23h0a1.4,1.4,0,0,0-.51-.08h0a2.93,2.93,0,0,0-.61.07,2.93,2.93,0,0,1,.61-.07h0a2.93,2.93,0,0,0-.61.07,2.93,2.93,0,0,1,.61-.07h0a2.93,2.93,0,0,0-.61.07,2.93,2.93,0,0,1,.61-.07h0a1.4,1.4,0,0,1,.51.08h0a.56.56,0,0,1,.31.23.41.41,0,0,1,.11.3h0a.75.75,0,0,1,0,.24,3.62,3.62,0,0,1-.46,1.13,4.36,4.36,0,0,0-.41,1.57v.08h0a1,1,0,0,0,0,.1s0,.08,0,.1h0s0,0,.06,0h0l-.22.59c.28.12.4.42.63.6a1.41,1.41,0,0,0,.48.09,1.82,1.82,0,0,0,.64-.13,6,6,0,0,0,.66-.37l.07,0h0l.05,0h.11a.93.93,0,0,1,.36.06c.19,0,.35.08.35.19h0v0a.58.58,0,0,0,.36.12,2.25,2.25,0,0,0,1-.35c.4-.21.79-.44,1.18-.67l.35-.24h0l-.35.24c1.67-1,3.24-1.93,4-1.94h.13a.66.66,0,0,1,.75.7h0c0,.2-1.07,2.25-1.42,2.93a1.51,1.51,0,0,0-.21.62.16.16,0,0,0,.17.18,2.77,2.77,0,0,0,1.18-.64,23.11,23.11,0,0,1,3.65-2.64h0c.07,0,.09.08.09.18h0c0,.1,0,.24,0,.35s0,.16,0,.19c.59,0,1.76-1.21,2.49-1.67a3.43,3.43,0,0,0,2.29-1.42h0v0s0,0,0,0h0c0,.21-.51,1.22-.51,1.52v0a.11.11,0,0,0,.1.07c.22,0,.68-.47,1.1-1,1.09-1.29,2.16-2.65,2.56-2.65h0c.11-.4.37-1,.48-1.41a1.13,1.13,0,0,0,0-.31c0-.29-.22-.18-.28-.38h0a7.14,7.14,0,0,1,.3-1,1,1,0,0,0,.11-.35s0-.06,0-.06-.26.17-.4.26a.26.26,0,0,1-.12.07s-.06,0-.06-.12h0c0-.15.05-.4.05-.55s0-.12-.05-.13h0c-.1,0-.31.18-.51.36s-.4.35-.49.35,0,0,0-.06h0a.61.61,0,0,1,0-.16c-.06.18-.14.25-.21.25s-.29-.24-.29-.44h0A.26.26,0,0,1,64,55h0a5.94,5.94,0,0,1,.44-.78c.15-.21.37-.56.44-.65.62-.71,1.5-2.06,2.23-3.12a3.11,3.11,0,0,1,.42-1.5,14.25,14.25,0,0,0,1-1.95l-.54.62h0s-.27.23-.63.56-.84.76-1.33,1.18a10.77,10.77,0,0,1-1.87,1.39h0a0,0,0,0,1,0,0,9.49,9.49,0,0,1,1.11-1.55c1.19-1.41,1.64-2.11,2.6-3.29l.86-1c.7-.86,1.5-1.87,1.62-2.08a2.19,2.19,0,0,0,.36-.63s0,0,0,0-.08,0-.16.1l-.06-.14"/><path class="c" d="M46.49,64.94v0h0v0h0M43.36,64l-.22.59h0l.22-.59h0m.82-3h0a3.62,3.62,0,0,1-.46,1.13h0A3.62,3.62,0,0,0,44.18,61h0m-.38-.77h0a.56.56,0,0,1,.31.23h0a.6.6,0,0,0-.29-.23h0m-.51-.08a2.93,2.93,0,0,0-.61.07,2.93,2.93,0,0,1,.61-.07"/><path class="b" d="M59.43,44.43a4,4,0,0,0-.66.32,47.06,47.06,0,0,0-5.56,3.8c-1.34,1.09-1.18,1.43-1.35,2a4.14,4.14,0,0,1-1,1.23c.21-.18.72-.6,1.22-1l-.18-.21h0c.18-.55,0-.89,1.35-2a47.06,47.06,0,0,1,5.56-3.8,4.27,4.27,0,0,1,.61-.3"/><path class="b" d="M65,47.26c-.11.12-.22.27-.35.42l.12-.07.23-.35"/><path class="b" d="M61.8,50q-1.52.95-3.12,1.8A10.94,10.94,0,0,0,61.8,50"/><path class="b" d="M59.59,53.4l-.14.12c-.75.65-1.53,1.29-2.25,1.86.6-.45,1.28-1,2-1.66,0,0,.13-.11.34-.32"/><path class="b" d="M52.93,57.19a.36.36,0,0,0,.37.28h.06l.24,0a4.15,4.15,0,0,0-.67-.25"/><path class="b" d="M65.59,59.16h0v.08h0a.71.71,0,0,1,0,.14,1.8,1.8,0,0,0,.08-.21h0"/><path class="b" d="M44.18,61a.65.65,0,0,1,0,.13c-.15.34-.29.68-.42,1A3.62,3.62,0,0,0,44.18,61"/><path class="b" d="M43.27,63.85a2.8,2.8,0,0,0-.15.68.09.09,0,0,0,0,0h0l.22-.59s0,0-.06,0h0s0-.06,0-.1"/><path class="b" d="M45.62,64.72h0l-.07,0,.07,0"/><path class="b" d="M46.14,64.75a.78.78,0,0,1,.24.13l.11.08v0c0-.11-.16-.17-.35-.19"/><path class="b" d="M44.89,65.14a1.82,1.82,0,0,1-.64.13,1.41,1.41,0,0,1-.48-.09.69.69,0,0,0,.43.14,1.71,1.71,0,0,0,.69-.18"/><path class="d" d="M59.9,44.28a1.53,1.53,0,0,0-.47.15,1.56,1.56,0,0,1,.41-.13h0s.07,0,.07.07h0c0,.22-.81.89-1,1.26h0a.06.06,0,0,1,.06,0l.07,0a.38.38,0,0,0,.14,0,1.06,1.06,0,0,1,.4-.12.35.35,0,0,1,.1.26h0a2,2,0,0,1-.35.89c0,.37.35.39.37.75h0a.22.22,0,0,0,0,.08c0,.23.28.23.28.46h0a.93.93,0,0,1-.18.43,1.39,1.39,0,0,0-.16.46c0,.15.09.22.27.22a4.09,4.09,0,0,0,1.28-.39,13.78,13.78,0,0,0,3.27-1.51c.74-.58.61-.26,1.23-.75l0,0h0c-.63.49-.5.17-1.23.75a13.57,13.57,0,0,1-3.27,1.51A4.21,4.21,0,0,1,60,49c-.18,0-.27-.07-.27-.22h0a1.19,1.19,0,0,1,.16-.46.92.92,0,0,0,.18-.44c0-.22-.27-.22-.28-.45h0s0,0,0-.08c0-.36-.36-.38-.36-.75h0a2.11,2.11,0,0,0,.34-.88.4.4,0,0,0-.09-.27,1.34,1.34,0,0,0-.41.12.38.38,0,0,1-.14,0l-.06,0-.06,0h0c.19-.37,1-1,1-1.26a.07.07,0,0,0-.06-.07h0"/><path class="e" d="M59.84,44.3a1.56,1.56,0,0,0-.41.13,4.27,4.27,0,0,0-.61.3,47.06,47.06,0,0,0-5.56,3.8c-1.34,1.09-1.17,1.43-1.35,2l.18.21.09-.09c.55-.5,1.06-1,1.06-1.2,0,0,0-.07-.08-.08h0a19.72,19.72,0,0,1,1.47-1.51,4.8,4.8,0,0,1,2.07-1.32h.07a11.44,11.44,0,0,1,1.17-.16h0s-.06.68-.18,1.47A4.24,4.24,0,0,1,57.05,50a2.43,2.43,0,0,0-.17.69,1,1,0,0,0,0,.17,1,1,0,0,0,.39.9,1.13,1.13,0,0,0,.63.16,2.87,2.87,0,0,0,.79-.13q1.6-.85,3.12-1.8c.67-.5,1.42-1.11,2.27-1.87l.6-.41c.13-.15.24-.3.35-.42s.07-.14.1-.2l.16-.13.46-.54,0,0c-.62.49-.49.17-1.23.75a13.78,13.78,0,0,1-3.27,1.51,4.09,4.09,0,0,1-1.28.39c-.18,0-.27-.07-.27-.22h0a1.39,1.39,0,0,1,.16-.46A.93.93,0,0,0,60,48c0-.23-.28-.23-.28-.46h0a.22.22,0,0,1,0-.08c0-.36-.36-.38-.37-.75h0a2,2,0,0,0,.35-.89.35.35,0,0,0-.1-.26,1.06,1.06,0,0,0-.4.12.38.38,0,0,1-.14,0l-.07,0a.06.06,0,0,0-.06,0h0c.2-.37,1-1,1-1.26,0,0,0-.06-.07-.07h0"/><path class="f" d="M57.94,46.36a11.44,11.44,0,0,0-1.17.16H56.7a4.8,4.8,0,0,0-2.07,1.32,19.72,19.72,0,0,0-1.47,1.51c.06,0,.08,0,.08.08h0c0,.2-.51.7-1.06,1.2s-1.08.94-1.31,1.13l-.1.08-.21.22a4.42,4.42,0,0,0-1,2.24.65.65,0,0,0-.28.47c0,.3.38.52.88.67l1,0h.69c.77,0,1.43.16,1.44.59h0a1.12,1.12,0,0,1-.33.65,1.11,1.11,0,0,0-.1.41.37.37,0,0,0,0,.11,4.15,4.15,0,0,1,.67.25,10.3,10.3,0,0,0,3.6-2.06c.72-.57,1.5-1.21,2.25-1.86l.14-.12C60.06,52.93,61,52,61.91,51a41.25,41.25,0,0,0,2.88-3.39l-.12.07-.6.41c-.85.76-1.6,1.37-2.27,1.87a10.94,10.94,0,0,1-3.12,1.8,2.87,2.87,0,0,1-.79.13,1.13,1.13,0,0,1-.63-.16,1,1,0,0,1-.39-.9h0a1,1,0,0,1,0-.17,2.43,2.43,0,0,1,.17-.69,4.24,4.24,0,0,0,.73-2.14c.12-.79.18-1.47.18-1.47h0"/><path class="g" d="M67.73,45.05a2.5,2.5,0,0,0-.68.44c-.6.46-1.42,1.15-1.77,1.44l-.16.13c0,.06-.06.13-.1.2l-.23.35A41.25,41.25,0,0,1,61.91,51c-.95,1-1.85,1.93-2.32,2.4-.21.21-.34.32-.34.32-.77.66-1.45,1.21-2,1.66a10.3,10.3,0,0,1-3.6,2.06l-.24,0H53.3a.36.36,0,0,1-.37-.28.37.37,0,0,1,0-.11h0a1.11,1.11,0,0,1,.1-.41,1.12,1.12,0,0,0,.33-.65c0-.43-.67-.55-1.44-.59h-.69c-.56,0-1.09,0-1.41,0a.08.08,0,0,1,0,.06h0a1.21,1.21,0,0,1-.22.46c-.25.38-.6.8-.6.8h0c.15,0,.22.09.21.26h0a4.22,4.22,0,0,1-.46,1.36c-.39.82-.86,1.66-.86,1.66-.47.58-.64.95-.63,1.2a.37.37,0,0,0,.29.38,1,1,0,0,0,.31,0,2.58,2.58,0,0,0,.63-.09c1.39-.87,1.75-1,1.85-1h0a.89.89,0,0,0,.38.07c1.22,0,3.92-1.58,6.28-3.4A59.29,59.29,0,0,0,62,53.05a28,28,0,0,0,3.28-4.24l1.63-2.46a5,5,0,0,0,.87-1.26s0,0,0,0"/><path class="g" d="M49.72,55.42a.82.82,0,0,0-.22,0h.31a.1.1,0,0,0-.09,0"/><path class="h" d="M64.05,55h0m0,0h0m0,0h0M72.9,39.76h0c-.14.11-.09,0-.32.22l-2.1,2,.1.21c.08-.07.13-.1.16-.1s0,0,0,0h0a2.19,2.19,0,0,1-.36.63c-.12.21-.92,1.22-1.62,2.08l-.86,1c-1,1.18-1.41,1.88-2.6,3.29a9.49,9.49,0,0,0-1.11,1.55,0,0,0,0,0,0,0h0a10.77,10.77,0,0,0,1.87-1.39c.49-.42,1-.85,1.33-1.18s.61-.56.63-.56h0l.54-.62h0a14.25,14.25,0,0,1-1,1.95,3.11,3.11,0,0,0-.42,1.5c-.73,1.06-1.61,2.41-2.23,3.12-.07.09-.29.44-.44.65A5.94,5.94,0,0,0,64,55h0a.26.26,0,0,0-.11.23c0,.2.14.44.29.44s.15-.07.21-.25h0a.61.61,0,0,0,0,.16s0,.06,0,.06.29-.17.49-.35.41-.36.51-.36h0s.05.06.05.13h0c0,.15-.05.4-.05.55s0,.12.06.12a.26.26,0,0,0,.12-.07c.14-.09.32-.26.4-.26s0,0,0,.06h0a1,1,0,0,1-.11.35,7.14,7.14,0,0,0-.3,1c.06.2.28.09.28.38h0a1.13,1.13,0,0,1,0,.31,14.64,14.64,0,0,0-.53,1.69s0,.07,0,.07,0,0,.1-.06a.14.14,0,0,1,.09-.05h.07s.09,0,.17-.18h0c0-.18.17-.55.22-.79A11.18,11.18,0,0,1,66.29,57c.15-.54.4-1.2.52-1.66a2.87,2.87,0,0,0,0-.42.45.45,0,0,0,0-.12h0a1.62,1.62,0,0,0,0-.22c0-.48-.09-.76-.31-.81-.2.27-.3.37-.36.37s0-.08,0-.16h0v-.09c0-.06,0-.11,0-.13h0c0-.06.08-.25.11-.38s-.17,0-.17-.13h0a1.17,1.17,0,0,1,.14-.38l1.9-3.73,1.6-3.47a.55.55,0,0,0,.06-.22c0-.06,0-.07-.07-.07h-.1a.06.06,0,0,1-.07-.07h0s0,0,0-.07l.2-.24h0l-.31.32h0a2.11,2.11,0,0,1,.28-.5c1.62-2.37,1.45-2.57,2.82-4.37a6.55,6.55,0,0,0,.43-.63h0"/><path class="i" d="M43.29,60.12a1.4,1.4,0,0,1,.51.08,1.4,1.4,0,0,0-.51-.08"/><path class="j" d="M43.8,60.2h0a.6.6,0,0,1,.29.23h0a.56.56,0,0,0-.31-.23h0"/><path class="i" d="M43.82,60.2a.58.58,0,0,1,.38.58h0a.69.69,0,0,0-.09-.35.6.6,0,0,0-.29-.23"/><path class="a" d="M43.72,62.1l-.1.16s-.15.43-.25.86a3,3,0,0,0-.1.65h0a3,3,0,0,1,.1-.65h0c.1-.43.25-.86.25-.86h0l.1-.16h0m.48-1.32a1.37,1.37,0,0,1,0,.19h0a1.1,1.1,0,0,0,0-.18h0"/><path class="i" d="M44.2,60.79a1.1,1.1,0,0,1,0,.18,3.86,3.86,0,0,1-.56,1.29l.1-.16A3.62,3.62,0,0,0,44.18,61a1.1,1.1,0,0,0,0-.18"/><path class="i" d="M43.62,62.26s-.15.43-.25.86c.1-.43.25-.86.25-.86"/><path class="i" d="M43.27,63.77a.42.42,0,0,0,0,.18s0-.06,0-.1v-.08"/><path class="i" d="M49.35,63.82l-.35.24a6.58,6.58,0,0,1-2.09,1,7.32,7.32,0,0,0,2.44-1.28"/><path class="i" d="M43.3,64s0,0,.06,0h0s0,0-.06,0"/><path class="i" d="M43.13,64.61h0a1.35,1.35,0,0,0,.58.54,1.35,1.35,0,0,1-.58-.54"/><path class="k" d="M70.77,43.92c-.08,0-.28.19-.5.43s-.4.44-.54.61l-.2.24s0,0,0,.07a.06.06,0,0,0,.07.07h.1s.07,0,.07.07h0a.55.55,0,0,1-.06.22l-1.6,3.47-1.9,3.73a1.17,1.17,0,0,0-.14.38c0,.12.15,0,.17.13h0c0,.13-.11.32-.11.38h0s0,.07,0,.13h0v.09c0,.08,0,.16,0,.16s.16-.1.36-.37c.22.05.31.33.31.81h0a1.62,1.62,0,0,1,0,.22.45.45,0,0,1,0,.12h0a2.87,2.87,0,0,1,0,.42c-.12.46-.37,1.12-.52,1.66a11.18,11.18,0,0,0-.24,1.24c0,.24-.18.61-.22.79h0l0,0h0s0,0,.1-.14c.15-.31.24-.62.35-.89.3-1,.72-2.13,1-3a19.63,19.63,0,0,0,.94-3.69.57.57,0,0,0,0-.14v0c-.06,0-.29.32-.42.44s-.16.14-.21.14a.11.11,0,0,1-.07,0l-.07,0c-.08,0-.2.08-.48.43,0,0-.06.08-.07.08s0,0,0,0h0a.33.33,0,0,1,0-.1c.78-1.72,1.52-3.24,2.31-4.76.52-1,1.36-2.86,1.5-3.15a.49.49,0,0,0,0-.17s0,0,0,0"/><path class="b" d="M33.7,65.54a1,1,0,0,0-.63.43,15.68,15.68,0,0,0-1.93,7.09v.15a4.45,4.45,0,0,0,.74,2.47c.47.69,1.1,1.29,1.67,2a4.72,4.72,0,0,1,1,2.57,11.8,11.8,0,0,0,.12-1.65c0-.08,0-.16,0-.24l-1-.7c-.58-.7-1.2-1.3-1.68-2a4.42,4.42,0,0,1-.74-2.46h0s0-.1,0-.15A15.57,15.57,0,0,1,33.14,66a.94.94,0,0,1,.56-.41"/><path class="b" d="M72.22,74.62a9.49,9.49,0,0,0-1.65,1.06c-.79.51-1.13,1-1.38,1a.18.18,0,0,1-.15-.08h0c-.15,0-1.19,2.06-2.53,3,0,0,0,.31.16.78a12.39,12.39,0,0,1,2.52-1.55,4,4,0,0,1,1.44-.34c.83,0,1.53.48,1.8,2,0,0,.28.4.66,1S74,83,74.42,83.93a9.1,9.1,0,0,1,1,3.58h0a2.84,2.84,0,0,1-.69,2s-.61.68-1.67,1.69a32.16,32.16,0,0,1-4.37,3.53c-2.95,2.07-6.77,3.83-10.11,3.83a7.67,7.67,0,0,1-2-.24.89.89,0,0,0-.22,0,5.62,5.62,0,0,0-2.69,1.07s-.27,0-.69,0a7.89,7.89,0,0,1-1.74-.18,3.49,3.49,0,0,1-2.84-2.67l-.54-.85c-.33-.51-.8-1.17-1.31-1.9-1-1.44-2.29-2.9-3.44-3.1a6.81,6.81,0,0,0-.48-1.33,2.36,2.36,0,0,0-.82-1l-.78-.14h0a.65.65,0,0,1,.19,0,1.18,1.18,0,0,1,.59.16l1,.2c-2.48-.86-4.68-1.93-4.68-2.82h0s0-.05,0-.07-.88-.86-1.78-1.93a9.29,9.29,0,0,1-1.82-2.9c0,.27,0,.54,0,.82h0v.11h0a26,26,0,0,1-.63,5,25.83,25.83,0,0,0-1.15,5.33,2.19,2.19,0,0,0,1,2.15,23.59,23.59,0,0,0,4,1,8.51,8.51,0,0,1,1.88.64h0a9,9,0,0,0-1.27-.6h0A7.8,7.8,0,0,0,36,94.76h0a7.76,7.76,0,0,1,2.52.47h0a9,9,0,0,1,1.27.6,4.54,4.54,0,0,1,1.38,1,7.17,7.17,0,0,1,1.45,1.94,11.9,11.9,0,0,0,2.66,2.78l.12.16A1.27,1.27,0,0,0,46,102l.76.94c1,.27,1.88.81,2.83,1.15a7.85,7.85,0,0,0,1.78.24h.1a3.53,3.53,0,0,0,.88-.11,3.69,3.69,0,0,0,.86-.44l.06-.06h0l0,0a7.43,7.43,0,0,1,1.36.19,3.74,3.74,0,0,1,1.38.4l.23.07a5,5,0,0,0,1.16.16,4.17,4.17,0,0,0,1.69-.38l1.75-.84.42-.28-.42.28h0l.42-.28-.42.28h0l.42-.28-.42.28c.92-.44,1.84-.87,2.74-1.26a10.55,10.55,0,0,1,4.09-1h.24a10,10,0,0,1,4.41,1c.49.18,1.92,2.87,2.38,3.72a1.65,1.65,0,0,0,1.53.92,4.48,4.48,0,0,0,2.36-.9,19.55,19.55,0,0,1,6-3.6h.1c.68,0,1.27.65,2,.73,1.94-.25,3.39-1.82,5-2.52,5.66-1.22,5.26-2.4,5.39-2.4l.05,0h0c.58,0,.86,1.36,1.62,1.57H99a3.25,3.25,0,0,0,2.4-1.57c1.41-1.74,2.92-3.65,4.69-4-.43-.36-.81-1-1.2-1.35a1.79,1.79,0,0,0-1-.3,4.72,4.72,0,0,0-.64,0c-.22,0-.44,0-.66,0a2.69,2.69,0,0,1-.4,0,3.46,3.46,0,0,1-1.13-.93.77.77,0,0,0-.65-.36,4,4,0,0,0-1.34.5,1,1,0,0,1-.57.16,2.86,2.86,0,0,1-1.08-.31,3,3,0,0,0-1.09-.31H96.2c-1,0-2,1.16-2.85,1.16a1,1,0,0,1-.57-.18.23.23,0,0,1,.11.16h0c0,.12-.25.16-.61.16-.93,0-2.58-.3-2.59-.52h0s0-.06.1-.09a1.52,1.52,0,0,1-.33-.91h0c0-.26,0-.67.09-.78.75-.9.77-2.51,1.07-3.79-.06-.17-2.46-.43-3.26-1.67-.6-1-1.09-2.12-1.93-2.38-.23.06-.41.69-.65.76h0a6.6,6.6,0,0,0-1.37.69L80.8,85.05c-1,.49-1.93,1-2.72,1.27a4.6,4.6,0,0,1-1.29.32.33.33,0,0,1-.23-.06A2.75,2.75,0,0,1,76,85h0a1.19,1.19,0,0,1,.08-.47,5.44,5.44,0,0,0,.19-1.41c0-.92-.23-1.67-.23-2.64h0a1.93,1.93,0,0,1,0-.24c0-.41.31-.86.35-1.28a1.48,1.48,0,0,0,0-.21c0-1.08-.14-2.28-.52-2.58A2.53,2.53,0,0,0,74,75a1.47,1.47,0,0,0-.36,0l-1.42-.43"/><path class="b" d="M66.78,80.81c0,.19.1.4.16.62l.22-.06a4.24,4.24,0,0,0-.38-.56"/><path class="b" d="M63.26,84.09c-1.3.42-2.6.79-3.95,1.17-.54.16-1.08.31-1.63.45a9.12,9.12,0,0,0,1.56-.13,10.33,10.33,0,0,0,3.39-1.12c.21-.11.42-.24.63-.37"/><path class="b" d="M66.33,89.26l-.14.15a33.18,33.18,0,0,1-2.44,2.31,21.29,21.29,0,0,0,2.36-2s.09-.16.22-.43"/><path class="b" d="M55.18,93.23a5.84,5.84,0,0,0,1.87.62,4.88,4.88,0,0,0,.88.08c-.69-.2-1.82-.5-2.75-.7"/><path class="b" d="M107.66,93.87l-.35.07c.15,0,.31.08.47.14a.88.88,0,0,1-.12-.21"/><path class="b" d="M41.19,96.84a2.57,2.57,0,0,1,.21.24c.43.58.83,1.15,1.24,1.7a7.17,7.17,0,0,0-1.45-1.94"/><path class="b" d="M45.42,101.72a9,9,0,0,0,1.24,1.19h.05L46,102a1.27,1.27,0,0,1-.53-.26"/><path class="b" d="M53.22,103.7h0l-.06.06.08-.06h0"/><path class="b" d="M54.65,103.85c.51.12,1,.28,1.38.4a3.74,3.74,0,0,0-1.38-.4"/><path class="b" d="M49.54,104.07l.38.12a4.68,4.68,0,0,0,1.29.19,3.24,3.24,0,0,0,1.09-.18,3.53,3.53,0,0,1-.88.11h-.1a7.85,7.85,0,0,1-1.78-.24"/><path class="d" d="M34.08,65.49a1.73,1.73,0,0,0-.38.05,1.73,1.73,0,0,1,.32,0,1.09,1.09,0,0,1,.47.1c1.24.68,1.4,2.52,2.27,3.77.22.06.5.34.75.34h.09a.88.88,0,0,1,.27,0,2.1,2.1,0,0,1,.5.09A15.91,15.91,0,0,1,42,73.31a16.58,16.58,0,0,0,2,1.37l1,.61c.34.21.69.43,1,.7,1.32,1.11,2.79,1.27,3.88,2.76a5.81,5.81,0,0,0,4.9,2c.41,0,.84,0,1.31,0l.54,0,1.1,0c.39,0,.83,0,1.27,0l1,0a11.32,11.32,0,0,0,3.85-.6c.92-.63,1.73-.07,2.66-.59l0,0h0c-.92.52-1.73,0-2.65.59a11.36,11.36,0,0,1-3.85.6l-1,0c-.44,0-.87,0-1.26,0l-1.07,0h-.54q-.72.06-1.32.06a5.82,5.82,0,0,1-4.89-2C48.83,77.23,47.37,77.07,46,76s-2.62-1.56-4-2.67a15.91,15.91,0,0,0-3.59-3.55,1.7,1.7,0,0,0-.5-.09.84.84,0,0,0-.27,0h-.09c-.25,0-.53-.28-.75-.34-.88-1.25-1-3.09-2.27-3.76a1,1,0,0,0-.48-.11"/><path class="e" d="M34,65.51a1.73,1.73,0,0,0-.32,0,.94.94,0,0,0-.56.41,15.57,15.57,0,0,0-1.92,7.1s0,.1,0,.15A4.42,4.42,0,0,0,32,75.66c.48.69,1.1,1.29,1.68,2l1,.7V78.2c0-1.14-.32-2.37-1.27-2.79,0,0-.16-.42-.35-1a15.59,15.59,0,0,1-.49-2.22,8.51,8.51,0,0,1-.07-1h0c0-.8.19-1.38.75-1.38a1.45,1.45,0,0,1,.64.19l1.05.25c.57.16,1.24.34,1.68.5L38,72.12l1.47,1.44c.53.54,1.16,1.06,1.75,1.62,2.38,2.28,5,4.48,5,5.21l.45.46A10.31,10.31,0,0,0,48,82a19.36,19.36,0,0,0,4.7,2.74,14.23,14.23,0,0,0,4.91,1h0c.55-.14,1.09-.29,1.63-.45,1.35-.38,2.65-.75,3.95-1.17a12.63,12.63,0,0,0,2.56-2.26s.47-.19,1.12-.4c-.06-.22-.12-.43-.16-.62a3.22,3.22,0,0,0-.32-.32h0l.2-.17c-.11-.47-.15-.74-.16-.78l0,0c-.93.52-1.74,0-2.66.59a11.32,11.32,0,0,1-3.85.6l-1,0c-.44,0-.88,0-1.27,0l-1.1,0-.54,0c-.47,0-.9,0-1.31,0a5.81,5.81,0,0,1-4.9-2C48.77,77.26,47.3,77.1,46,76c-.36-.27-.71-.49-1-.7l-1-.61a16.58,16.58,0,0,1-2-1.37,15.91,15.91,0,0,0-3.59-3.55,2.1,2.1,0,0,0-.5-.09.88.88,0,0,0-.27,0h-.09c-.25,0-.53-.28-.75-.34-.87-1.25-1-3.09-2.27-3.77a1.09,1.09,0,0,0-.47-.1"/><path class="f" d="M33.23,69.81c-.56,0-.75.58-.75,1.38a8.51,8.51,0,0,0,.07,1A15.59,15.59,0,0,0,33,74.38c.19.61.35,1,.35,1,1,.42,1.22,1.65,1.27,2.79,0,.13,0,.26,0,.39h0a11.74,11.74,0,0,1-.14,1.79,2,2,0,0,0,.07.4,9.29,9.29,0,0,0,1.82,2.9c.9,1.07,1.78,1.93,1.78,1.93h0s0,0,0,.07c0,.89,2.2,2,4.68,2.82l.16,0c1.19.22,2.81.47,4.4.83a39.19,39.19,0,0,1,4.42,1.19c1.23.47,2.08,1,2.18,1.78a3.22,3.22,0,0,0,.73.65l.42.25c.93.2,2.06.5,2.75.7H58a10,10,0,0,0,5.73-2.21,33.18,33.18,0,0,0,2.44-2.31l.14-.15a15.63,15.63,0,0,0,1.11-3.14,10.07,10.07,0,0,0,.29-2.26,5.08,5.08,0,0,0-.57-2.49l-.22.06c-.65.21-1.12.4-1.12.4a12.63,12.63,0,0,1-2.56,2.26c-.21.13-.42.26-.63.37a10.33,10.33,0,0,1-3.39,1.12,9.12,9.12,0,0,1-1.56.13h0a14.23,14.23,0,0,1-4.91-1A19.36,19.36,0,0,1,48,82a10.31,10.31,0,0,1-1.29-1.12l-.45-.46c0-.73-2.65-2.93-5-5.21-.59-.56-1.22-1.08-1.75-1.62L38,72.12,36.6,70.75c-.44-.16-1.11-.34-1.68-.5L33.87,70a1.45,1.45,0,0,0-.64-.19"/><path class="g" d="M70.62,78.43a4,4,0,0,0-1.44.34,12.39,12.39,0,0,0-2.52,1.55l-.2.17a3.22,3.22,0,0,1,.32.32,4.63,4.63,0,0,1,1,3h0a10.07,10.07,0,0,1-.29,2.26,15.63,15.63,0,0,1-1.11,3.14c-.13.27-.22.43-.22.43a21.29,21.29,0,0,1-2.36,2A10,10,0,0,1,58,93.93h-.09a4.88,4.88,0,0,1-.88-.08,5.84,5.84,0,0,1-1.87-.62L54.76,93a3.22,3.22,0,0,1-.73-.65c-.1-.73-1-1.31-2.18-1.78a39.19,39.19,0,0,0-4.42-1.19c-1.59-.36-3.21-.61-4.4-.83l-.16,0-1-.2a2.36,2.36,0,0,1,.82,1,6.81,6.81,0,0,1,.48,1.33c1.15.2,2.41,1.66,3.44,3.1.51.73,1,1.39,1.31,1.9l.54.85a3.49,3.49,0,0,0,2.84,2.67,7.89,7.89,0,0,0,1.74.18c.42,0,.69,0,.69,0a5.62,5.62,0,0,1,2.69-1.07.89.89,0,0,1,.22,0,7.67,7.67,0,0,0,2,.24c3.34,0,7.16-1.76,10.11-3.83a32.16,32.16,0,0,0,4.37-3.53c1.06-1,1.67-1.69,1.67-1.69a2.84,2.84,0,0,0,.69-2,9.1,9.1,0,0,0-1-3.58c-.45-.93-1-1.81-1.34-2.46s-.66-1-.66-1c-.27-1.51-1-2-1.8-2"/><path class="g" d="M41.24,88.14a.65.65,0,0,0-.19,0l.78.14a1.18,1.18,0,0,0-.59-.16"/><path class="h" d="M89.83,91.77h0m0,0h0m0,0h0M74.47,72a.86.86,0,0,0-.42.09c-.82.6-1.73,1.6-2.58,2.34l2.17.67A1.47,1.47,0,0,1,74,75a2.53,2.53,0,0,1,1.89,1.17c.38.3.52,1.5.52,2.58h0a1.48,1.48,0,0,1,0,.21c0,.42-.31.87-.35,1.28a1.93,1.93,0,0,0,0,.24c0,1,.24,1.72.23,2.64h0a5.44,5.44,0,0,1-.19,1.41A1.19,1.19,0,0,0,76,85a2.75,2.75,0,0,0,.56,1.57.33.33,0,0,0,.23.06,4.6,4.6,0,0,0,1.29-.32c.79-.32,1.77-.78,2.72-1.27l2.61-1.36A6.6,6.6,0,0,1,84.78,83h0c.24-.07.42-.7.65-.76.84.26,1.33,1.37,1.93,2.38.8,1.24,3.2,1.5,3.26,1.67h0c-.3,1.28-.32,2.89-1.07,3.79-.09.11-.06.52-.09.78a1.52,1.52,0,0,0,.33.91h0c-.07,0-.1.06-.1.09,0,.22,1.66.52,2.59.52.36,0,.61,0,.61-.16a.23.23,0,0,0-.11-.16h0a1,1,0,0,0,.57.18c.89,0,1.81-1.13,2.85-1.16h.11a3,3,0,0,1,1.09.31,2.86,2.86,0,0,0,1.08.31,1,1,0,0,0,.57-.16,4,4,0,0,1,1.34-.5.77.77,0,0,1,.65.36,3.46,3.46,0,0,0,1.13.93,2.69,2.69,0,0,0,.4,0c.22,0,.44,0,.66,0a4.72,4.72,0,0,1,.64,0,1.79,1.79,0,0,1,1,.3c.55.48,1.1,1.6,1.78,1.6a.7.7,0,0,0,.41-.14c.32-.24.91-.07,1-.46-.25-.15-.5-.51-.83-.71-.63-.48-1.33-.44-1.9-1a20.6,20.6,0,0,0-1.75-1.53,4.16,4.16,0,0,0-1.21-.39A11.74,11.74,0,0,0,99,89.41c-.35,0-.69,0-1,0a.88.88,0,0,1-.81.51c-.44,0-.94-.26-1.34-.28a3.17,3.17,0,0,1-.65-.39,1.14,1.14,0,0,0-.26,0l-.34,0-.32,0a.8.8,0,0,1-.76-.42A30.88,30.88,0,0,0,91,84.64a18.57,18.57,0,0,0-2.3-2.22,21.71,21.71,0,0,0-2.28-1.88,2,2,0,0,0-.87-.34,1.4,1.4,0,0,1-.47.09.55.55,0,0,1-.39-.13h-.18a2.86,2.86,0,0,1-1.29-.22s0,0,0,0h0a.8.8,0,0,1,.13-.27l-.37,0c-.1.1-.42.26-.51.36a1.34,1.34,0,0,1-.66-.67A7.81,7.81,0,0,0,79.24,76a9.49,9.49,0,0,1-2.59-3c-.29-.4-.72-1.06-1.27-1.06h-.15a2.33,2.33,0,0,1-.38,0l-.38,0"/><path class="i" d="M36,94.76a7.8,7.8,0,0,1,2.52.47A7.76,7.76,0,0,0,36,94.76"/><path class="a" d="M42.64,98.78l0,.1.08.16h0l-.13-.26h0"/><path class="i" d="M38.54,95.23a9,9,0,0,1,1.27.6,7,7,0,0,1,2.88,3l0-.1a7,7,0,0,0-2.83-3,9,9,0,0,0-1.27-.6"/><path class="i" d="M42.77,99s.6.74,1.27,1.46c-.67-.72-1.24-1.42-1.27-1.46"/><path class="i" d="M44,100.5a11.09,11.09,0,0,0,1.38,1.22A1.27,1.27,0,0,0,46,102a1.27,1.27,0,0,1-.53-.26A11.09,11.09,0,0,1,44,100.5"/><path class="i" d="M49.33,104l.21,0a7.85,7.85,0,0,0,1.78.24,7.85,7.85,0,0,1-1.78-.24l-.21,0"/><path class="i" d="M53.24,103.7c.12,0,.76,0,1.41.15s1.35.27,1.47.51a.44.44,0,0,0-.09-.11,3.74,3.74,0,0,0-1.38-.4c-.65-.1-1.29-.14-1.41-.15"/><path class="i" d="M56.12,104.36h0a2.78,2.78,0,0,0,1,.16,2.78,2.78,0,0,1-1-.16"/><polyline class="i" points="53.22 103.7 53.22 103.7 53.22 103.7"/><path class="i" d="M53.22,103.7l-.06.06a2,2,0,0,1-.86.44,3.53,3.53,0,0,1-.88.11,3.53,3.53,0,0,0,.88-.11,2,2,0,0,0,.86-.44l.06-.06"/><path class="i" d="M51.32,104.31h0"/><path class="k" d="M84.46,78.64a2.56,2.56,0,0,0-.46.28,2.68,2.68,0,0,0-.69.73.8.8,0,0,0-.13.27s0,0,0,0a2.86,2.86,0,0,0,1.29.22h.18a1,1,0,0,1-.51-.5h0l0,0h0a2.66,2.66,0,0,1,.24-.65,1.24,1.24,0,0,1,.07-.32"/><path class="k" d="M86.53,79.75h-.06l-.08,0a4.23,4.23,0,0,1-.67.34l-.2.07a2,2,0,0,1,.87.34,21.71,21.71,0,0,1,2.28,1.88A18.57,18.57,0,0,1,91,84.64a30.88,30.88,0,0,1,2.5,4.26.8.8,0,0,0,.76.42l.32,0,.34,0a1.14,1.14,0,0,1,.26,0,3.17,3.17,0,0,0,.65.39c.4,0,.9.28,1.34.28a.88.88,0,0,0,.81-.51c.35,0,.69,0,1,0a11.74,11.74,0,0,1,3.39.54,4.16,4.16,0,0,1,1.21.39,20.6,20.6,0,0,1,1.75,1.53c.57.56,1.27.52,1.9,1,.33.2.58.56.83.71h0c.17-.11.52,0,.52-.21,0,0,0,0,0-.07a2.09,2.09,0,0,0-.51-.9c-.93-.94-1.74-2-2.62-2.81a20.44,20.44,0,0,0-3.09-2.16,8.48,8.48,0,0,0-3.12-1.15h-.06c-.37,0-.66.45-1,.66-.83.59-1.92-.18-2.79.9a.22.22,0,0,1-.2.11.44.44,0,0,1-.26-.1l-2-2.69L91,82.49a12.51,12.51,0,0,0-2.23-2.15l-.52-.42a2.45,2.45,0,0,1-.81.21c-.13,0-.19,0-.21-.06l0,0h0l0-.07-.08-.07a1.28,1.28,0,0,0-.21-.13,3.26,3.26,0,0,0-.41,0"/><path class="l" d="M88.25,79.92a2.45,2.45,0,0,1-.81.21h0c-.12,0-.18,0-.2-.06h0s.08.06.21.06a2.45,2.45,0,0,0,.81-.21h0"/><path class="k" d="M84.48,78.63h0a1.24,1.24,0,0,0-.07.32l0-.09c0-.07,0-.15,0-.24"/><path class="k" d="M88.24,79.91a1.93,1.93,0,0,1-.68.18.49.49,0,0,1-.33-.12l0,.07,0,0s.08.06.21.06a2.45,2.45,0,0,0,.81-.21h0"/><path class="k" d="M84.17,79.63l0,0h0a1,1,0,0,0,.51.5c-.18-.16-.26-.42-.49-.52"/><path class="k" d="M86.6,79.72h-.09l0,0h.06a3.26,3.26,0,0,1,.41,0,1,1,0,0,0-.34,0"/><path class="k" d="M86.39,79.79a7.11,7.11,0,0,1-.67.34,3.85,3.85,0,0,0,.67-.34"/><path class="b" d="M113.4,59.62q-.53.32-1.23.81c-.64.41-1.1.76-1.16.76h0s0,0,0,0h0l-.31.23L110,62c-.58.44-1.3,1-1.83,1.31,0,0-.2.2-.5.5.37-.25,1.27-.83,1.93-1.21a2.45,2.45,0,0,1,.74-.33s.06,0,.06.05h0c0,.12-.27.48-1,1.21,0,0-.79,1-1.86,2.3a25.18,25.18,0,0,1-3.76,3.82s-2.58,1.92-5.42,3.65c-2.51,1.53-5.25,2.87-6.43,2.87a.9.9,0,0,1-.4-.07s0,0,0,0a6.21,6.21,0,0,0-1.87.85A3,3,0,0,1,89,77a1,1,0,0,1-.31,0,.29.29,0,0,1-.23-.29h0c0-.23.2-.59.76-1.16,0,0,.55-.78,1-1.55a3.65,3.65,0,0,0,.59-1.32c0-.12,0-.19-.18-.19h0s.9-.91.9-1.19c0,0,0,0,0,0h-.3a.76.76,0,0,1,.21,0,.11.11,0,0,1,.09,0l.37,0c-.45-.13-.8-.33-.8-.6h0c0-.14.09-.29.31-.47A4.55,4.55,0,0,1,92.53,68c-1.06,1-2.62,2.18-4.15,3.38-1.91,1.45-4.88,3.59-4.87,4.15a.1.1,0,0,0,0,.09,1.68,1.68,0,0,0,.72.11h.57c.33,0,.63,0,.76.17a.46.46,0,0,0-.26-.21h0a1.35,1.35,0,0,0-.41-.06h0a3.21,3.21,0,0,0-.66.08,3.21,3.21,0,0,1,.66-.08h0a3.21,3.21,0,0,0-.66.08,3.21,3.21,0,0,1,.66-.08h0a3.21,3.21,0,0,0-.66.08,3.21,3.21,0,0,1,.66-.08h0a1.35,1.35,0,0,1,.41.06h0a.46.46,0,0,1,.26.21.28.28,0,0,1,.08.2h0a.67.67,0,0,1-.07.28,3.42,3.42,0,0,1-.58,1,5.68,5.68,0,0,0-.55,1.26,2.34,2.34,0,0,1,1-.2,3.1,3.1,0,0,1,1.29.3c.23.15.83.62,1.51,1.18l.28-.12,1.2-.59.37-.21,0,0,0,0,0,0,0,0-.37.21a14.48,14.48,0,0,1,4-1.64h.07c.46,0,.69.17.69.57h0a.71.71,0,0,1,0,.14h0a29.14,29.14,0,0,1-1.84,2.67,1.4,1.4,0,0,0-.32.62c0,.09.06.12.15.12a3.27,3.27,0,0,0,1.19-.51A21.74,21.74,0,0,1,97.54,79s.07,0,.07.09h0c0,.13-.11.37-.11.51a.12.12,0,0,0,0,.09h0c.56,0,1.86-1,2.63-1.31a3.57,3.57,0,0,0,2.44-1h0v0s0,0,0,0h0c0,.17-.77,1.13-.82,1.42a.1.1,0,0,0,.11.08,3.23,3.23,0,0,0,1.23-.79c1.26-1,2.54-2.09,3-2.09h.06c.2-.37.58-1,.77-1.28a1,1,0,0,0,.12-.38c0-.19-.19-.17-.21-.35h0a6.3,6.3,0,0,1,.49-.9,1,1,0,0,0,.17-.35s0,0-.05,0a2.67,2.67,0,0,0-.43.16.19.19,0,0,1-.12,0s-.06,0-.06-.08h0c0-.15.17-.49.17-.65s0-.06,0-.07H107a1.62,1.62,0,0,0-.55.25,1.65,1.65,0,0,1-.53.26s0,0,0,0h0a.58.58,0,0,1,0-.17c-.08.15-.16.21-.23.21s-.24-.22-.24-.42h0a.3.3,0,0,1,.15-.29,8.34,8.34,0,0,1,.56-.7c.18-.19.46-.5.55-.57.73-.59,1.82-1.78,2.73-2.69a3,3,0,0,1,.6-1.47,11.52,11.52,0,0,0,1.26-1.81l-.64.52h0s-.31.18-.73.43l-1.53.93a11.71,11.71,0,0,1-2.08,1.08l0,0h0v0a10.21,10.21,0,0,1,1.29-1.41c1.37-1.24,1.89-1.9,3-3l1-.88c.79-.78,1.7-1.7,1.83-1.9a1.65,1.65,0,0,0,.39-.64s0-.05-.06-.05a.43.43,0,0,0-.17.06l-.09-.2"/><path class="c" d="M90.09,79l0,0-.33.19h0l.37-.21m-4.48-2.66h0a3.42,3.42,0,0,1-.58,1h0a3.42,3.42,0,0,0,.58-1h0m-.68-.75a3.21,3.21,0,0,0-.66.08,3.21,3.21,0,0,1,.66-.08"/><path class="m" d="M84.78,80.16h-.12a1.13,1.13,0,0,0,.4.08h0a1.67,1.67,0,0,0,.37,0,4.05,4.05,0,0,0-.7,0"/><path class="n" d="M85.44,78.43a2.34,2.34,0,0,0-1,.2c0,.09,0,.17,0,.24l0,.09v0l.06.11-.28.54c.23.1.31.36.49.52h.12a4.05,4.05,0,0,1,.7,0l.24-.07a7.11,7.11,0,0,0,.67-.34l.07,0h0l0,0h.09a1,1,0,0,1,.34,0c.16,0,.31.08.31.17h0l0,0a.49.49,0,0,0,.33.12,1.93,1.93,0,0,0,.68-.18c-.68-.56-1.28-1-1.51-1.18a3.1,3.1,0,0,0-1.29-.3"/><path class="b" d="M101.4,60.37a5.44,5.44,0,0,0-.64.32,53.06,53.06,0,0,0-5.53,3.86C93.89,65.63,94,66,93.85,66.49a3.91,3.91,0,0,1-1,1.2c.21-.16.74-.58,1.25-1l-.17-.2h0c.19-.54,0-.86,1.38-2a54.76,54.76,0,0,1,5.53-3.85,4.6,4.6,0,0,1,.58-.3"/><path class="b" d="M107.33,64.07c-.11.13-.24.26-.38.41l.12-.06c.1-.13.19-.24.26-.35"/><path class="b" d="M103.85,66.44c-1.08.52-2.17,1-3.28,1.49a11.74,11.74,0,0,0,3.28-1.49"/><path class="b" d="M101.33,69.66l-.15.1c-.81.57-1.63,1.12-2.4,1.62.64-.4,1.36-.87,2.18-1.43l.37-.29"/><path class="b" d="M94.4,72.89c0,.13.1.25.33.28H95a3.08,3.08,0,0,0-.62-.27"/><path class="b" d="M106.3,76.29h0c0,.06,0,.13-.05.21a2,2,0,0,1,.12-.19h-.06"/><path class="b" d="M85.61,76.33a.49.49,0,0,1-.06.13l-.52.91a3.42,3.42,0,0,0,.58-1"/><path class="n" d="M84.39,79a2.66,2.66,0,0,0-.24.65h0l.28-.54L84.39,79h0v0"/><path class="n" d="M86.47,79.75h0l-.07,0,.08,0"/><path class="n" d="M86.94,79.77a1.28,1.28,0,0,1,.21.13l.08.07,0,0c0-.09-.15-.14-.31-.17"/><path class="m" d="M84.66,80.16h0a.55.55,0,0,0,.39.13,1.4,1.4,0,0,0,.47-.09h0a1.67,1.67,0,0,1-.37,0h0a1.13,1.13,0,0,1-.4-.08"/><path class="n" d="M85.72,80.13l-.24.07h0l.2-.07"/><polyline class="n" points="84.66 80.16 84.66 80.16 84.66 80.16 84.66 80.16"/><path class="d" d="M101.88,60.22a2.06,2.06,0,0,0-.48.15,1.49,1.49,0,0,1,.43-.12h0a.08.08,0,0,1,.07.08h0c0,.24-.79.93-1,1.31h0s0,0,.06,0a.15.15,0,0,0,.07,0l.14,0a1,1,0,0,1,.41-.11.44.44,0,0,1,.11.3h0a2.11,2.11,0,0,1-.34.91c0,.39.36.43.38.82h0a.17.17,0,0,0,0,.07c0,.25.28.27.28.5h0a.82.82,0,0,1-.2.44,1.11,1.11,0,0,0-.17.48c0,.16.11.24.34.24a4.68,4.68,0,0,0,1.25-.29,14.39,14.39,0,0,0,3.46-1.14c.8-.5.65-.18,1.34-.59l0,0h0c-.68.41-.54.09-1.33.59A14.39,14.39,0,0,1,103.34,65a4.68,4.68,0,0,1-1.25.29c-.23,0-.33-.08-.33-.24h0a1.14,1.14,0,0,1,.16-.48.82.82,0,0,0,.2-.44c0-.23-.28-.25-.28-.49h0a.22.22,0,0,1,0-.08c0-.38-.37-.43-.38-.81h0a2,2,0,0,0,.34-.91.44.44,0,0,0-.11-.31,1.1,1.1,0,0,0-.41.12l-.13,0-.08,0a.06.06,0,0,0-.06,0h0c.19-.38,1-1.07,1-1.31a.08.08,0,0,0-.07-.08h0"/><path class="e" d="M101.83,60.25a1.49,1.49,0,0,0-.43.12,4.6,4.6,0,0,0-.58.3,54.76,54.76,0,0,0-5.53,3.85c-1.34,1.09-1.19,1.41-1.38,2l.17.2c.6-.51,1.17-1.06,1.17-1.26a.08.08,0,0,0-.07-.08h0a18.61,18.61,0,0,1,1.48-1.49,4.71,4.71,0,0,1,2.06-1.33h.07a10.72,10.72,0,0,1,1.15-.14h0s0,.71-.17,1.52A3.9,3.9,0,0,1,99,66a2.67,2.67,0,0,0-.22,1,1,1,0,0,0,.34.8,1.23,1.23,0,0,0,.76.21,3.46,3.46,0,0,0,.66-.08c1.11-.48,2.2-1,3.28-1.49.71-.44,1.53-1,2.45-1.64h0l.65-.32c.14-.15.27-.28.38-.41a.94.94,0,0,0,.12-.18l.18-.12c.3-.3.47-.48.5-.5l0,0c-.69.41-.54.09-1.34.59A14.39,14.39,0,0,1,103.29,65a4.68,4.68,0,0,1-1.25.29c-.23,0-.34-.08-.34-.24h0a1.11,1.11,0,0,1,.17-.48.82.82,0,0,0,.2-.44c0-.23-.28-.25-.28-.5h0a.17.17,0,0,1,0-.07c0-.39-.38-.43-.38-.82h0a2.11,2.11,0,0,0,.34-.91.44.44,0,0,0-.11-.3,1,1,0,0,0-.41.11l-.14,0a.15.15,0,0,1-.07,0s0,0-.06,0h0c.18-.38,1-1.07,1-1.31a.08.08,0,0,0-.07-.08h0"/><path class="f" d="M99.94,62.37a10.72,10.72,0,0,0-1.15.14h-.07a4.71,4.71,0,0,0-2.06,1.33,18.61,18.61,0,0,0-1.48,1.49.08.08,0,0,1,.07.08h0c0,.37-2,1.93-2.42,2.28l-.09.07a2,2,0,0,0-.21.2,4.55,4.55,0,0,0-1.09,2.14c-.22.18-.31.33-.31.47s.35.47.8.6h.77c.3,0,.6,0,.89,0,.73.06,1.34.19,1.34.57h0c0,.16-.11.37-.39.65a1,1,0,0,0-.14.44v0a3.08,3.08,0,0,1,.62.27,11.79,11.79,0,0,0,3.76-1.78c.77-.5,1.59-1,2.4-1.62l.15-.1c.51-.42,1.51-1.23,2.55-2.15a31,31,0,0,0,3.19-3.09l-.12.06-.65.32h0c-.92.67-1.74,1.2-2.45,1.64a11.74,11.74,0,0,1-3.28,1.49,3.46,3.46,0,0,1-.66.08,1.23,1.23,0,0,1-.76-.21,1,1,0,0,1-.34-.8h0A2.67,2.67,0,0,1,99,66a3.9,3.9,0,0,0,.79-2.14c.13-.81.17-1.52.17-1.52h0"/><path class="g" d="M110.3,62.23a2.45,2.45,0,0,0-.74.33c-.66.38-1.56,1-1.93,1.21l-.18.12a.94.94,0,0,1-.12.18c-.07.11-.16.22-.26.35a31,31,0,0,1-3.19,3.09c-1,.92-2,1.73-2.55,2.15L101,70c-.82.56-1.54,1-2.18,1.43A11.79,11.79,0,0,1,95,73.16h-.29c-.23,0-.31-.15-.33-.28v0h0a1,1,0,0,1,.14-.44c.28-.28.4-.49.39-.65,0-.38-.61-.51-1.34-.57-.29,0-.59,0-.89,0-.45,0-.87,0-1.14,0,0,0,0,0,0,0h0c0,.28-.9,1.19-.9,1.19h0c.13,0,.18.07.18.19h0a3.65,3.65,0,0,1-.59,1.32c-.46.77-1,1.55-1,1.55-.56.57-.76.93-.76,1.16a.29.29,0,0,0,.23.29A1,1,0,0,0,89,77a3,3,0,0,0,.59-.07,6.21,6.21,0,0,1,1.87-.85s0,0,0,0a.9.9,0,0,0,.4.07c1.18,0,3.92-1.34,6.43-2.87,2.84-1.73,5.42-3.65,5.42-3.65a25.18,25.18,0,0,0,3.76-3.82c1.07-1.29,1.86-2.3,1.86-2.3.7-.73,1-1.09,1-1.21s0-.05-.06-.05"/><path class="g" d="M91.47,71.15a.76.76,0,0,0-.21,0h.3a.11.11,0,0,0-.09,0"/><path class="h" d="M105.58,71.92h0m0,0h0m0,0h0m10.55-14.26h0l-.1,0H116a.5.5,0,0,0-.23.1l-2.37,1.73.14.31a.43.43,0,0,1,.17-.06s.06,0,.06.05h0a1.65,1.65,0,0,1-.39.64c-.13.2-1,1.12-1.83,1.9l-1,.88c-1.09,1.06-1.61,1.72-3,3a10.21,10.21,0,0,0-1.29,1.41v0l0,0a11.71,11.71,0,0,0,2.08-1.08l1.53-.93c.42-.25.7-.43.73-.43h0l.64-.52h0A11.52,11.52,0,0,1,110,66.49a3,3,0,0,0-.6,1.47c-.91.91-2,2.1-2.73,2.69-.09.07-.37.38-.55.57a8.34,8.34,0,0,0-.56.7.3.3,0,0,0-.15.29c0,.2.1.42.24.42s.15-.06.23-.21h0a.58.58,0,0,0,0,.17s0,0,0,0a1.65,1.65,0,0,0,.53-.26,1.62,1.62,0,0,1,.55-.25H107s0,0,0,.07h0c0,.16-.17.5-.17.65s0,.08.06.08a.19.19,0,0,0,.12,0,2.67,2.67,0,0,1,.43-.16s.05,0,.05,0h0a1,1,0,0,1-.17.35,6.3,6.3,0,0,0-.49.9c0,.18.21.16.21.35h0a1,1,0,0,1-.12.38,11.42,11.42,0,0,0-.89,1.57s0,0,0,0a.16.16,0,0,0,.1,0l.08,0h.1s.09,0,.19-.15h0c.07-.16.29-.49.39-.71a11.84,11.84,0,0,1,.49-1.17c.26-.49.64-1.09.85-1.52a1.43,1.43,0,0,0,.15-.5v0h0a3.37,3.37,0,0,0,.08-.63c0-.24-.07-.41-.22-.48-.23.22-.35.29-.41.29s0,0,0-.08h0c0-.08,0-.2,0-.27s0,0,0,0h0a1.6,1.6,0,0,1,.17-.38c0-.1-.16,0-.15-.15h0a.9.9,0,0,1,.19-.36c1-1.27,1.8-2.41,2.48-3.39.55-.8,1.86-2.93,2-3.27a.69.69,0,0,0,.08-.23c0-.18-.29-.06-.29-.23h0a.25.25,0,0,1,0-.07l.22-.21-.06,0-.36.26h0a2,2,0,0,1,.32-.47c1.89-2.18,1.65-2.51,3.16-4.21a3,3,0,0,0,.45-.62s0,0,0,0"/><path class="i" d="M84.93,75.58a1.35,1.35,0,0,1,.41.06,1.35,1.35,0,0,0-.41-.06"/><path class="i" d="M85.34,75.64a.47.47,0,0,1,.29.26l0-.05a.46.46,0,0,0-.26-.21"/><path class="i" d="M85.65,76h0"/><path class="a" d="M85,77.37l-.11.15h0l.11-.15h0m.62-1.3a.87.87,0,0,1,0,.26h0a.66.66,0,0,0,0-.23v0h0"/><path class="i" d="M85.65,76.1a.66.66,0,0,1,0,.23,3.9,3.9,0,0,1-.69,1.19l.11-.15a3.42,3.42,0,0,0,.58-1,.66.66,0,0,0,0-.23"/><path class="i" d="M84.92,77.52s-.32.68-.46,1.12h0c.14-.44.44-1.07.46-1.12"/><path class="o" d="M84.46,78.64h0a1.24,1.24,0,0,0-.07.32v0a1.24,1.24,0,0,1,.07-.32"/><path class="p" d="M88.25,79.92a2.45,2.45,0,0,1-.81.21c-.13,0-.19,0-.21-.06h0s.08.06.2.06h0a2.45,2.45,0,0,0,.81-.21h0"/><path class="o" d="M87.23,80.07s.08.06.2.06c-.12,0-.18,0-.2-.06m1-.15a2.45,2.45,0,0,1-.81.21,2.45,2.45,0,0,0,.81-.21h0"/><path class="j" d="M90.09,79l-.37.21h0l.33-.19,0,0"/><path class="i" d="M90.05,79l-.33.19a12.5,12.5,0,0,1-1.47.72h0a12.5,12.5,0,0,0,1.8-.91"/><path class="o" d="M84.15,79.65a1,1,0,0,0,.51.5h0a1,1,0,0,1-.51-.5"/><path class="q" d="M84.66,80.16h0a1.13,1.13,0,0,0,.4.08,1.13,1.13,0,0,1-.4-.08"/><path class="o" d="M86.46,79.75l-.07,0a3.85,3.85,0,0,1-.67.34l-.24.07h0l.24-.07a4.23,4.23,0,0,0,.67-.34l.07,0"/><path class="o" d="M87.21,80h0l0,0,0,0h0"/><path class="k" d="M113.86,61.93a1.47,1.47,0,0,0-.57.31c-.23.16-.48.37-.65.51l-.22.21a.25.25,0,0,0,0,.07c0,.17.29,0,.29.23h0a.69.69,0,0,1-.08.23c-.17.34-1.48,2.47-2,3.27-.68,1-1.53,2.12-2.48,3.39a.9.9,0,0,0-.19.36c0,.1.15,0,.15.15h0a1.6,1.6,0,0,0-.17.38s0,0,0,0h0c0,.07,0,.19,0,.27s0,.08,0,.08.18-.07.41-.29c.15.07.22.24.22.48h0a3.37,3.37,0,0,1-.08.63v0h0a1.43,1.43,0,0,1-.15.5c-.21.43-.59,1-.85,1.52a11.84,11.84,0,0,0-.49,1.17c-.1.22-.32.55-.39.71h0a.05.05,0,0,1,0,0h0s.06,0,.13-.12a9.1,9.1,0,0,0,.53-.79l1.59-2.69A12.53,12.53,0,0,0,110.54,69h0s0,0,0,0-.36.25-.51.34a.44.44,0,0,1-.2.08.13.13,0,0,1-.1,0,.14.14,0,0,0-.11,0c-.08,0-.23.07-.53.33a.2.2,0,0,1-.09.05s0,0,0,0h0a.33.33,0,0,1,0-.1c1.06-1.57,2-3,3-4.36.67-.94,1.7-2.7,1.86-3a.45.45,0,0,0,0-.17c0-.06,0-.09-.08-.09"/><path d="M50,64c2.18,3,4.8,5.78,6.35,9.07a21.75,21.75,0,0,1,2.16,6.76l4.55-4.44a14.88,14.88,0,0,1,1.75.3,2.28,2.28,0,0,0,2.68-1c1.66-2.32,4.06-2.55,6.34-1.6s4,2.46,6,3.71a18.07,18.07,0,0,0,3.9,2.3c3,.91,4.93,2.63,5.53,5.67a42.19,42.19,0,0,1,1.1,7.61c0,1.53-.91,3.11-1.61,4.58-.17.35-1.11.34-1.85.54l.9,1.29c-2.28,3.79-3.67,4.41-7.84,3.56a8.26,8.26,0,0,1-8.92,1.29,15.56,15.56,0,0,0-8.73-1.48,3.38,3.38,0,0,1-3.26-1.29c-1.3-1.46-2.86-2.69-4.25-4.07-2.95-2.92-2.92-4.87,0-7.8,1.76-1.75,2-2.45,1.79-6.86-2.7,2.61-5.79,4.54-7.17,8.07-.76,2-2.14,2.56-4.2,2.2a10.17,10.17,0,0,0-3.69,0c-4.38.84-10.66-2.6-12.14-6.39-1.31-3.35-2.65-6.72-3.64-10.18s1.31-8.38,4.35-10.27a6.56,6.56,0,0,1,5-1A7.64,7.64,0,0,0,40,64.18c3-1.27,4.48-.93,8.07,1.24l2-1.28Zm22.34,37.58-2.21-7c1.43.7,3.06-1.15,4.49,1l-3,1,5.5,4c1.53-1.08,2.28-2,2.22-3.59s.82-1.43,2.09-.88V101c1.84.34,2.86-.86,4.06-1.71-.44-.63-1.19-1.31-1.07-1.58.73-1.56-.72-1.79-1.35-2.52s-1.07-1.85-2.66-1.58c-1.26.21-1.3-.88-.83-1.84l3.24.27.65-2.94c1.89.6,2.65,1.56,2.16,3.48l2.24-.69c-.16-1.34-.31-2.57-.45-3.75-2.1-.52-3.08-1.86-3.66-4.14l2.73.61a3.87,3.87,0,0,0-3.44-3.2,9.71,9.71,0,0,1-5.64-3.5c-1.34-1.54-3.57-2.3-5.45-3.33-.4-.21-1.24-.29-1.46,0-2,2.22-4.58,3.18-7.43,3.87-1,.24-1.61,1.82-2.51,2.67A5.09,5.09,0,0,0,59,85.24a9.23,9.23,0,0,1-.69,3.18A20.25,20.25,0,0,1,57,91c2.58,2,4.53,4.21,5,7.46.08.59.62,1.11,1,1.67.39-.53.22-1,.37-1.26a6.68,6.68,0,0,1,1.12-1.2c.27.34.53.7.82,1s.55.82.93,1c2,.69,4.14,1.29,6.22,1.91,1.43.65,2.85,1.29,4.59.4C75.35,100.28,73.85,100.83,72.34,101.61ZM54.14,81.17a18.24,18.24,0,0,1,0-4c.8-3.21-.42-5.68-2.54-7.86a2.39,2.39,0,0,0-1.57-.81c-1.68.2-2.71-.8-3.85-1.7a4.39,4.39,0,0,0-5.8,0l1.73,3-1.59,1.9c-1.24-.5-2.47-1-3.66-1.53-.18-.08-.18-.54-.28-.89l2.25-.4c0-.34,0-.51,0-.54-2.17-1.35-4.55-2.3-6.87-.84C29.3,69.1,27.51,71.67,28.2,75A74.25,74.25,0,0,0,31,84.14a7.59,7.59,0,0,0,1.44,2H36V82.68c-1.72-.84-2.9-2.66-2.56-4.26.07-.33.82-.53,1.29-.81,1.36,3.29,3.11,5.93,6.06,7.6l-3.62,1.93.1.7c.73,0,1.71.3,2.13-.06a1.51,1.51,0,0,1,2.58.39c1.14,1.75,2.79,1.85,4.73,1.92-.83-2.84,2.24-5,.48-7.82,2.29-.34,1.73,1.91,2.71,2.43,2.36-1-.45-2.1.62-3.53Zm5.08,16.76a6.11,6.11,0,0,0-3.8-6C55,95.2,57.63,96,59.22,97.93Z"/><path d="M50.11,64.14a3.26,3.26,0,0,0-1.76-3c-3.61-2.05-3.8-8.62-2.71-12.15,2.14-.88,2.65-3.92,5.61-4,.17-1.75.34-3.55.53-5.52a23.41,23.41,0,0,1,8.49.61,2.23,2.23,0,0,0,1.43.08c2.22-1.28,4-.12,5.74,1l.25.18c2.39,1.51,4,4.71,7.9,3l.1.82A30,30,0,0,1,74.4,48c-.71,1.22,0,1.8,1,2.83.15-1.44.26-2.46.4-3.84.63.45,1,.61,1.21.9,1.17,2,1.57,4.29,3.25,6.11,1.21,1.31.33,3.79-.95,5.24a19.1,19.1,0,0,0-1.84,3l2,1c-3,2.12-6.89,2.56-8,6.12-.36.08-.62.23-.74.15-2.09-1.34-4.27-.71-6.46-.39-.77.11-1.92.37-2.3,0-1.5-1.56-3.25-1.4-5.12-1.35-1.71,0-3.36-.48-4.05-2.28C52.2,64.07,51.22,63.89,50,64ZM54.61,43c-.44,1.18-.92,2.22-1.21,3.3s-.55,2.08-2.21,1.91c-1-.1-3.45,3.37-3.34,4.36.38,3.22,1.28,6.34,4.25,8.05a5.72,5.72,0,0,1,3.11,3.85c1,.18,2,.64,2.84.43A4.45,4.45,0,0,1,63,66.59l2.74-1.52.66-2.89c3.07,0,3.07,0,3.5,2.89,3.14-.43,3.46-.68,3.94-3.24-.8.55-1.51,1-2.06,1.39-1-.66-1.87-1.21-2.73-1.73-1.45-.86-1.66-1.62-.7-3a11.61,11.61,0,0,1,1.15-1.24c-.45-1.11-.81-2-1.19-3,2.58-.54,2.58-.54,3.56,2.11,1.22-2.4.4-4.78.6-7.13-.54-.21-1.14-.26-1.46-.59-1.3-1.3-2.51-2.7-3.77-4.05-2.6-2.82-2.6-2.82-5.81-1.06C60.24,42.83,59.89,42.79,54.61,43ZM74.32,59.42c.08-.94.15-1.84.27-3.38-1,1.42-1.64,2.28-2.22,3.19-.11.18,0,.5,0,.88Zm2.51-1.87.73.3c.21-.49.43-1,.64-1.48a5.2,5.2,0,0,0-.77-.27A14.24,14.24,0,0,0,76.83,57.55Z"/><path d="M122.15,94.91l-2,.22c.38.81.66,1.42,1,2.22l-1.43,1.32c.61,1.24,3.43,1.14,2.15,3.84l-2.47-1.6c-.65,1.13-1,2.6-2,3.19a10.26,10.26,0,0,1-4.39,1.21c-1.87.2-3.78,0-6.16,0a13.42,13.42,0,0,1-1.79,1.27A4.56,4.56,0,0,1,100,106,12.37,12.37,0,0,0,96.28,104c-2.89-.9-5.14-3.72-4.86-6.63a3.55,3.55,0,0,1,1-2.14,2.92,2.92,0,0,0,1.06-3.3,2.57,2.57,0,0,1,.81-2.81c2.22-2.13,4.35-4.46,7.93-3.87A2.24,2.24,0,0,0,104.84,84,3,3,0,0,1,107,82.76,16.84,16.84,0,0,1,119.42,88a1.7,1.7,0,0,1,.45.79c.16.7.25,1.41.37,2.12C122.69,91.68,122.69,91.68,122.15,94.91ZM110,99.9c-2-1.09-4.16.14-5.09-1.51-.78-1.38-3.83-.38-3.19-3,1.84-.65,2.82.43,3.63,1.49l3.06-.73c-.76-4.48-1.07-5.28-3.29-7.58a3.87,3.87,0,0,0-1.78-1.1,7.42,7.42,0,0,0-7.18,3.3c-.27.52-.61,1.3-.41,1.73.88,1.89-.06,3.07-1.24,4.37-.83.91-.3,3.41.67,4.25s2.44.43,3.64-.83a3.64,3.64,0,0,1,.93-.53c1.7,1.3.93,4.19,3.42,4.79.32-1.06.62-2,.86-2.82,1.22.59,2.48,1.59,2.88,1.32,1.26-.84,2.17-.07,3.21.12.17,0,.37-.13.61-.23v-1.87c2.11-.91,3,3.19,4.88.8.7-1.69,1.39-3.39,2.12-5.18l-1.91-.76c-.08.91-.1,1.51-.18,2.1s-.22,1.18-.43,2.26a8.15,8.15,0,0,1-2.69-1.13c-.27-.25.17-1.45.53-2.1a32,32,0,0,1,2-2.85c-4.3-3.11-4.3-3.11-4-4.84l1.48.18,1.4.15c.86,2.06,2.76,3.65,3.67,3.21l.6-2c-1-1.49-2-2.71-4.17-2.31a2.36,2.36,0,0,1-1.94-1.2c-.76-2.09-2.52-1.88-4.1-2a1.42,1.42,0,0,0-1.16.73,2.26,2.26,0,0,0,.4,1.59c.44.64,1.17,1.08,1.6,1.72C110.9,92.45,110.09,95.87,110,99.9Z"/><path d="M107.39,72.74,109,79c.58-1.46.92-2.35,1.45-3.69-.15-.43-.48-1.42-1-2.86l3.54.92c.68-2.67,0-5.69,3-7.14,2.53,3.61,1.82,7.47-1.64,10a4.79,4.79,0,0,0-1.49,1.28c-2.06,3.62-4,4.33-7.78,3-1.44.47-2.55,1.14-3.65,1.13-2.51,0-5-.2-7.53-.08A1.43,1.43,0,0,1,92.87,81a38.66,38.66,0,0,1-3.8-5.18c-.72-1.33-1.32-2.52-2.84-3-1.94-.65-2.85-1.92-2.41-4a5.06,5.06,0,0,0,0-1.86,2.66,2.66,0,0,1,2-3.36c1.89-.67,2.82-2,2.29-3.9,2.57-1.18,5-2.31,7.39-3.39a5.94,5.94,0,0,1,1.51-.36c2.65-.41,5.29-.85,7.94-1.18.81-.11,1.91-.25,2.42.17,2,1.64,4.85,2.06,6.25,4.73.69,1.29,2.49,2,3.82,3,.53.38,1.12.69,2.37,1.43-1.37.33-2,.5-2.61.61-1.39.24-3.23-.53-3.71,1.76a1.55,1.55,0,0,1-1.29.28,2,2,0,0,1-.53-1.48c0-.46.5-.87.76-1.29-.54-.56-1.24-1-1.47-1.58-1.36-3.6-3.54-5-7.18-4.46-1.63.22-3.29.15-4.93.28a11.53,11.53,0,0,0-2.4.51c-.94.3-1.82.81-2.77,1.05a4.07,4.07,0,0,0-3.15,2.57,9.4,9.4,0,0,1-2.8,3.12c-2.06,1.73-2.2,4,0,5.59A54.36,54.36,0,0,0,93,73.9a4.12,4.12,0,0,0,3.26,5c.64.18,1.94.14,2-.07.63-2.15,2.73-1.42,4-2.18a4.2,4.2,0,0,1,1-.24l1.06,2.32c.32-.08.62-.08.66-.18a8.53,8.53,0,0,1,.59-1.68c.75-1.07.71-1.72-.5-2.47s-1.82-1.73-.56-3.12l2.92,1.58Z"/><path d="M99.61,72.36a10.07,10.07,0,0,1,1.7,1.69,2.24,2.24,0,0,1,.29,1.82c-.38.75-1.14.69-1.82.1s-1.28-1-2.39-1.8l-.54,3.51A2,2,0,0,1,94.41,76c-.32-1.32.9-1.72,1.79-2.17S98.32,72.9,99.61,72.36Z"/><path d="M107.48,72.84l-2-4.22c.75-.08,1.34-.33,1.68-.14,1,.57,1.94,1.32,3.29.71.23-.1,1,.6,1.23,1.06.1.18-.41.91-.78,1.09-1.12.54-2.31.94-3.47,1.4Z"/><path d="M99.83,68.14l-3-.83c-.13.24-.32.43-.29.56.22,1-.24,1.48-1.1,1.19a1.83,1.83,0,0,1-1-1.42A12.14,12.14,0,0,1,95.46,65C98.13,65.61,98.58,65.92,99.83,68.14Z"/><path d="M104.22,69.46c-.67.58-1.07.93-1.48,1.27L101.36,69c.43-.34,1-1,1.29-1C103.18,68.2,103.58,68.85,104.22,69.46Z"/><path d="M110.83,65.76c-.68.43-1.18,1-1.43.86-.46-.18-.77-.73-1.14-1.13.35-.31.76-.9,1-.85C109.77,64.72,110.16,65.23,110.83,65.76Z"/><path d="M81.39,90.7c-1.82-2.15.5-3.17.4-5.09.83.54,1.71.92,1.67,1.14A6.11,6.11,0,0,1,81.39,90.7Z"/><path d="M65.15,89.61c2.62,0,1.93,2.07,2.73,3C65.94,92.67,65.64,91.32,65.15,89.61Z"/><path d="M75.79,79.25c-2,1.61-2,1.61-3.29.38C73.5,78.53,74.65,78.93,75.79,79.25Z"/><path d="M70.42,98.68c-.3,0-.6.09-.67,0-.51-.66-1-1.37-1.46-2.06.31-.17.73-.58.92-.49C70.3,96.63,71,97.39,70.42,98.68Z"/><path d="M69.54,83.3l4,.27c-2.08,1.35-2.33,1.36-4.08.44Z"/><path d="M75,89.79c-1.75-.2-2.32-1-1.87-2.64A2.34,2.34,0,0,1,75,89.79Z"/><path d="M77.37,97.24c-1,1-1.82,1.46-2.9.05C75.44,96.15,76.3,96.3,77.37,97.24Z"/><path d="M64.91,81.75l2.57,1C66.12,83.75,66.12,83.75,64.91,81.75Z"/><path d="M46.49,84.23l-1,3.88c-1.29-.41-2.88-.28-1.89-2.42.12-.28-.19-.8-.39-1.16s-.62-.93-1-1.52C44.27,82,45,84,46.49,84.23Z"/><path d="M45.41,72.43c3.36.65,3.8,2.88,1.77,8.27-.29-1.74-.47-3.07-.75-4.39S45.79,73.83,45.41,72.43Z"/><path d="M45.05,78.38c-.37,1.28-.59,2.05-.92,3.18-.89.12-1.93.31-3,.37-.12,0-.51-.81-.39-1a8.33,8.33,0,0,1,1.85-2.22C43.09,78.37,43.92,78.51,45.05,78.38Z"/><path d="M51.86,76V79.6c-1.18,0-2.5.8-3.08-.89a1.57,1.57,0,0,1,.56-1.29A17.92,17.92,0,0,1,51.86,76Z"/><path d="M49.4,70.47c2.62-.27,3.33.54,3,3.56C51.36,72.73,49.54,72.6,49.4,70.47Z"/><path d="M41.42,74.08c1.64-1,2.27,0,3.2,1.16C43.13,75.73,42.09,75.91,41.42,74.08Z"/><path d="M37.77,74.26c.24.89.48,1.78.86,3.15-2-.79-2.06-1.77-2-2.81Z"/><path d="M56.09,58.79c3-1.86,3.87.61,5.42,1.74L64,57.81c.8,1.89.58,3-.69,4s-2.49.66-3.84-.53c-.46-.41-1.16-.54-1.67-.91A19.17,19.17,0,0,1,56.09,58.79Z"/><path d="M61.32,43.37a15.72,15.72,0,0,1,2.73,2.24,1.93,1.93,0,0,1-.17,1.88c-.24.29-1.22.08-1.82-.09-.44-.14-.8-.84-1.19-.84-.87,0-1.94.08-1.68-1C59.36,44.78,60.42,44.24,61.32,43.37Z"/><path d="M63.58,49.27c2.69.14,5.47-.76,7.77,1.64-.71,1.36-1.95.93-2.9.63-1.14-.36-2-1-3.42-.4C64.05,51.55,63.42,50.62,63.58,49.27Z"/><path d="M56.46,51.9c-1.12-1-1.68-2-.71-2.81.47-.39,1.6,0,3.09.09Z"/><path d="M57.11,55.79a9.6,9.6,0,0,1-2.52-.07c-.31-.08-.58-1-.53-1.48,0-.27.84-.75,1.14-.65a12.56,12.56,0,0,1,2.22,1.19Z"/><path d="M102,89.45c.23,1.1.4,1.94.66,3.16l-2.1-.75c-.39.57-.84,1.26-1.33,2C97.28,91.76,97.77,90.94,102,89.45Z"/><path d="M98.62,97.21c-.22,1.1-.45,2-1.72,1.55a1.08,1.08,0,0,1-.47-1C96.85,96.51,97.74,97,98.62,97.21Z"/></svg>