<svg xmlns="http://www.w3.org/2000/svg" viewBox="0 0 150 150"><defs><style>.a{fill:#fff6c0;}.b{fill:#fff3b5;}.c{fill:#fff0a1;}.d{fill:#ffe771;}.e{fill:#ffe66b;}.f{fill:#ffe97a;}.g{fill:#ffef97;}.h{fill:#fff8cf;}.i{fill:#ffed90;}.j{fill:#fff0a0;}.k{fill:#fffbec;}</style></defs><title>icon</title><path class="a" d="M36.19,104h0m0,0h0m0-.07h0l0,0,0,.05h0l0-.05,0,0m.09-.12h0l0,0a1.38,1.38,0,0,0-.11.17h0a1.38,1.38,0,0,1,.11-.17l0,0m0,0-.07.11h0l.07-.11h0m.64-1.38c-.06.1-.07.21-.12.29h0c0,.07,0,.14-.07.18h0s0-.11.07-.18.06-.19.12-.29h0m1.14-.9h0l-.4.5h0l.4-.5m1-1.08h0c-.21.18-.45.41-.55.5h0c.1-.09.34-.32.55-.5m.33-.19h0a.59.59,0,0,1-.08.11h0a.59.59,0,0,0,.08-.11M40.9,99h0l-.42.38-.59.54c-.42.38-.52.43-.54.43h0s.12,0,.54-.43l.59-.54L40.9,99h0M35.2,99c.07.16.15.33.22.5l.69.83.74.86.44.48c.09.11.25.25.27.33h0c0-.08-.18-.22-.27-.33h0l-.44-.48h0l-.74-.86h0c-.41-.5-.68-.83-.69-.83h0l-.06-.15c-.06-.12-.11-.24-.16-.35h0m8.5-3.25h0l-.46.53h0l.46-.53M30.48,93.32a11.8,11.8,0,0,1,1.63,1.29,6.87,6.87,0,0,1,.61.6h0a6.87,6.87,0,0,0-.61-.6h0a11.8,11.8,0,0,0-1.63-1.29h0"/><path class="b" d="M41.27,43.48a4,4,0,0,0-1.43.46,37.36,37.36,0,0,0-6.13,4.3A27.54,27.54,0,0,0,29.42,53a6.06,6.06,0,0,0-1.23,3.49,4.71,4.71,0,0,0,0,.53,20.57,20.57,0,0,0,.92,3.43,4,4,0,0,1,.21,1.33,10.71,10.71,0,0,1-.54,3l.47-.84c.32-.6.72-1.39,1.09-2.21-.37-.42-.74-.84-1.09-1.26A19.46,19.46,0,0,1,28.35,57a4.58,4.58,0,0,1,0-.53A6.06,6.06,0,0,1,29.55,53a27.54,27.54,0,0,1,4.29-4.73A38,38,0,0,1,40,43.92a4.17,4.17,0,0,1,1.3-.44"/><path class="b" d="M83.8,54.12s-.37.38-1,1c.68-.71,1-1,1-1"/><path class="b" d="M82.81,55.15l-2,2.11.83-.87,1.18-1.24"/><path class="b" d="M80.69,57.38h0l-.08,0c-.39.2-.78.39-1.16.55a1.9,1.9,0,0,1-.09.31c0,.1-.07.22-.11.37l-.07.25,0,.06V59l1.57-1.64"/><path class="b" d="M90.29,60.44l-.12.08-1,.71L75.28,71.36l-7.54,5.51-1.91,1.4-.24.17,0,0-.11.08h0l.37-.25.73-.5,1.46-1,2.86-1.92,5.33-3.5,2.36-1.5h0l-.23.73c-1.92,2.92-4.17,6.6-7.31,7.94L69.92,79c-.7.27-1.7.64-2.92,1-2.47.72-5.81,1.83-8.82,3-1.5.6-2.91,1.2-4,1.79a6.46,6.46,0,0,0-2.4,2,5.34,5.34,0,0,0-.65,1.31c-.07.12-.05.26-.19.36l-.47.3-.87.54a8.55,8.55,0,0,1-2.43,1.19h0s-.13,0-.59.38a27.52,27.52,0,0,0-2.9,2.85,8.93,8.93,0,0,1-1.52,1.08.69.69,0,0,1-.25.06c-.13,0-.21-.08-.21-.31a8.75,8.75,0,0,1,.69-2.37s.11-.44.23-1.1c0-.17,0-.34.08-.54a2.7,2.7,0,0,1,0-.28c0-.09.07-.18.1-.28s.14-.38.2-.58a.05.05,0,0,0,0,0c0-.09-.14-.24-.19-.36l-.29-.47A35.92,35.92,0,0,0,40.1,85.1a4.71,4.71,0,0,0-2.62-1.82,12.12,12.12,0,0,0-.37-2.49,3.1,3.1,0,0,0-1-1.79c-.75-.11-1.18-.19-1.18-.19h0a2.58,2.58,0,0,1,.39,0,1.47,1.47,0,0,1,.79.23l1.42.2c-3.36-1.17-6.14-3-6.16-4.52a1.06,1.06,0,0,1,.1-.46s-.27-.37-.64-1a23.18,23.18,0,0,1-1.24-2.46,14.09,14.09,0,0,1-.57-1.5,11.49,11.49,0,0,1-.37-1.57,7.58,7.58,0,0,1-.13-1.39,5.9,5.9,0,0,1,.05-.75c-.16.48-.35,1-.55,1.49-1.08,2.72-2.69,5.91-4.22,9a70.79,70.79,0,0,0-4,7.75,9.77,9.77,0,0,0-.78,3.42,3.08,3.08,0,0,0,1.29,2.7c2.1,1.29,4.72,1.6,7,2.25a12.4,12.4,0,0,1,3.26,1.18,11,11,0,0,0-2.12-1.09,16.55,16.55,0,0,0-3.23-.89h0a11.14,11.14,0,0,0-1.37-.14h0a10.17,10.17,0,0,1,1.37.14h0a16.55,16.55,0,0,1,3.23.89,11,11,0,0,1,2.12,1.09h0a8.34,8.34,0,0,1,2.23,1.88A14.48,14.48,0,0,1,35.2,99c.33.47.66.93,1,1.37s.56.69.85,1l.45.49s.07.07.07.08,0,0,0,0v0h0l-.06,0-.48.33-.08.07-.1.28a1.72,1.72,0,0,0-.09.19.26.26,0,0,0,0,.07h0l0,0h0c-.14.3-.29.59-.45.88l-.06.1.07-.11h0c.16-.24.53-.75,1.36-1.78l.4-.5.42-.52h0s0,0,0-.06l0,0a4.86,4.86,0,0,1,.51-.46,1.8,1.8,0,0,1,.33-.26h0a.15.15,0,0,1,0,.06c.18-.07.49-.27,1.94-1.72.48-.61,1.09-1.36,1.89-2.3a22.37,22.37,0,0,1,2.47-2.59A5.69,5.69,0,0,1,49,92.13a1,1,0,0,1,.25,0,1.63,1.63,0,0,1,1.15.46l.09.11.24.35q.23.34.42.69a11,11,0,0,1,.72,1.5.74.74,0,0,1,0,.3,17.69,17.69,0,0,1-.62,3.1c-.41,1.58-.88,3.33-1.12,4.18a4,4,0,0,0-.14,1c0,1.77,1.7,2.35,3.52,2.35A9.76,9.76,0,0,0,55,106a46.12,46.12,0,0,1,6.19-1.29,29.65,29.65,0,0,1,4.41-.32h.93c1,.35,1,1.94,1.88,2.6a5.27,5.27,0,0,0,1.65.25,11.06,11.06,0,0,0,2.62-.38A34.15,34.15,0,0,1,77,105.85a20.87,20.87,0,0,0,3.71.37,8.33,8.33,0,0,0,3.58-.65,3.37,3.37,0,0,0,1.11-.89s0,0,0,0c.28.1.33.56.33,1.14,0,.32,0,.67,0,1a2.63,2.63,0,0,0,.34,1.61,1.5,1.5,0,0,0,1,.32,5.41,5.41,0,0,0,3.24-1.72,39.14,39.14,0,0,1,5.45-4.35A4.51,4.51,0,0,1,98,102l.26,0c-.25-.9-.27-2.34-.47-3.17C97.26,97.34,96,97.7,95.09,97a5.5,5.5,0,0,1-.49-2.26c0-.81-.28-1-.68-1a8.62,8.62,0,0,0-1.39.33,1,1,0,0,1-.35.08c-1,0-1.18-2-2.07-2.27a1,1,0,0,0-.42-.08,6.92,6.92,0,0,0-2,.61,3,3,0,0,1-1,.22.76.76,0,0,1-.81-.72.49.49,0,0,1,0,.12c0,.26-.13.36-.32.36-.77,0-2.63-1.62-2.64-2.2,0-.1.07-.17.22-.19,0,0,0,0,0-.06a6.06,6.06,0,0,1,.61-1.69,9.6,9.6,0,0,1,.9-1.3c1.6-1.18,3.24-4,4.77-6,0,0,0,0,0,0s-.38-.6-.69-1.3a4,4,0,0,1-.42-1.76,3.86,3.86,0,0,1,.16-1.07,21,21,0,0,0,1.2-4.18,1,1,0,0,0-.07-.4c-.24,0-1.12,1-1.38,1h0c-.38,0-3,1.08-5.77,1.74a24.41,24.41,0,0,1-4,.7c-.29,0-.56,0-.8,0-.62,0-1-.09-1-.28v0a7.41,7.41,0,0,1,2.32-3.15c2.86-2.34,3.67-3.91,5.89-6,.61-.54,1.46-1.08,2.07-1.63.8-.77,1.67-1.62,2.35-2.33.36-.34.62-.75.94-.82a2,2,0,0,0,.12-.58c0-.05,0-.09,0-.14s0-.09,0-.13v-.09h0"/><path class="c" d="M36.75,102.94h0c-.14.3-.29.59-.45.88h0c.16-.29.31-.58.45-.88m0,0h0a.26.26,0,0,0,0,.07h0a.26.26,0,0,1,0-.07h0m.81-.91-.06,0h0l-.48.33h0l-.08.07h0l.08-.07.48-.33.06,0h0m0,0h0m.94-1h0M25.13,91.34h0a16.55,16.55,0,0,1,3.23.89,11,11,0,0,1,2.12,1.09h0a11.3,11.3,0,0,0-2-1.06l-.09,0h0a16.55,16.55,0,0,0-3.23-.89h0"/><path class="b" d="M69.85,65.42c-1.23.51-2.45.91-3.63,1.41L62.5,68.37,59.75,69.6c.77-.18,1.57-.41,2.42-.69a46.09,46.09,0,0,0,6.36-2.77l1.32-.72"/><path class="b" d="M65.89,72a1.42,1.42,0,0,0-.31.06l.1,0h0l.16,0"/><path class="b" d="M66.3,72h0"/><path class="b" d="M66.29,72h0l.15,0-.06,0h-.12"/><path class="b" d="M65.79,72a1.85,1.85,0,0,0-.61.21l.16-.08h0l.09,0,.34-.09"/><polyline class="b" points="66.32 71.99 66.33 71.99 66.33 71.99 66.32 71.99"/><polyline class="b" points="66.59 72.06 66.59 72.06 66.6 72.06 66.6 72.06 66.6 72.06 66.59 72.06"/><path class="b" d="M66.66,72.08l-.22.23.22-.23h0"/><path class="b" d="M65.16,72.21l-.12.07h0l0,0-.17.11h0l.25-.16"/><polyline class="b" points="65.09 72.25 65.09 72.25 65.09 72.25"/><path class="b" d="M64.49,72.73c-.07.07-.14.16-.21.24h0a1.34,1.34,0,0,1,.11-.14l.09-.1h0m2-.42h0"/><path class="b" d="M64.43,72.8l-.19.23,0,0h0s0,0,0,0l0,0a1,1,0,0,0-.08.11l0,0h0a.16.16,0,0,0,0,.07h0c.15-.23.28-.4.38-.53"/><path class="b" d="M64.3,73l-.17.18-.34.37-.09.1.35-.36h0l.1-.1.08-.09.06-.09,0,0"/><path class="b" d="M64.16,73.14v0h0v0"/><path class="b" d="M64.15,73.17l0,0v0l0,0"/><path class="b" d="M64.12,73.21l-.09.15,0,0a.75.75,0,0,1,.07-.12h0"/><path class="b" d="M63.74,74.21h0a2.63,2.63,0,0,0,0,.49,3.49,3.49,0,0,0,.06.65v0a3.23,3.23,0,0,1-.07-.69,2.59,2.59,0,0,1,0-.48"/><path class="b" d="M63.73,74.28v0c0,.13,0,.27,0,.4v0a3,3,0,0,0,0,.31h0v.1a3.4,3.4,0,0,1,0-.45,3,3,0,0,1,0-.42"/><path class="b" d="M63.71,74.44a1.83,1.83,0,0,0,0,.54,1.93,1.93,0,0,1,0-.24v0a2.09,2.09,0,0,1,0-.25"/><path class="b" d="M63.74,75.26v.06h0l0-.07"/><path class="b" d="M63.8,75.53a.29.29,0,0,0,0,.09l0-.07v0"/><path class="b" d="M64.11,76.46l0,.06v-.06"/><path class="b" d="M61.51,76.61c-.21.35-.41.72-.61,1.09s-.26.51-.41.76l.22-.17c.16-.36.32-.72.49-1.07s.2-.41.31-.61m2.62-.1.1.21-.09-.19v0"/><path class="b" d="M64.3,76.87l.15.27s.09.17.26.43l0-.07c-.12-.2-.24-.39-.34-.59l0,0"/><path class="b" d="M65,78v0h0m-.2-.29c.07.1.13.2.2.29l0,0-.22-.32"/><polyline class="b" points="65.39 78.54 65.39 78.55 65.39 78.55 65.39 78.54 65.39 78.54"/><path class="b" d="M53.13,83l-.69,0c-.51,0-1.09.06-1.62.13a1.26,1.26,0,0,0,.77.23,3,3,0,0,0,.67-.09c.25-.08.54-.18.87-.31"/><path class="b" d="M32.72,95.21c.15.17.28.35.42.54.7,1.12,1.35,2.21,2.06,3.23a14.24,14.24,0,0,0-2.48-3.77"/><path class="b" d="M43.24,96.26c-.79.93-1.4,1.68-1.88,2.29l.07-.08c.63-.77,1.23-1.52,1.81-2.21"/><path class="b" d="M39.44,100.2h0a2.24,2.24,0,0,0-.33.26,1,1,0,0,1,.33-.19.15.15,0,0,0,0-.06h0"/><path class="b" d="M38.54,101s0,.05,0,.06h0l-.42.52.46-.58"/><path class="b" d="M37.56,102l0,0-.11.09c-.15.11-.33.18-.44.28l0,.07.08-.07.48-.33.06,0v0"/><path class="c" d="M37.56,102h0v0h0"/><path class="b" d="M37.68,102c-.83,1-1.2,1.54-1.36,1.78l0-.07c.11-.14.4-.56,1.32-1.71"/><path class="b" d="M99.62,102.61h-.11a3.63,3.63,0,0,1,.46.49,3.54,3.54,0,0,1,0-.46h-.09l-.24,0"/><path class="b" d="M36.75,102.91c-.14.29-.34.7-.45.91.16-.29.31-.58.45-.88l0,0h0a.26.26,0,0,1,0-.07"/><path class="b" d="M36.24,103.92h0v0"/><polyline class="b" points="36.23 103.93 36.23 103.94 36.23 103.94 36.23 103.93"/><path class="d" d="M41.79,43.44a3.37,3.37,0,0,0-.52,0l.4,0a1.07,1.07,0,0,1,.62.13.83.83,0,0,1,.28.67c0,1-1,2.63-1,3.9v.06c.24.07.34.42.67.42l.17,0a1.6,1.6,0,0,1,.49-.08,1.8,1.8,0,0,1,.5.08,6,6,0,0,1,1.14,2,10.48,10.48,0,0,1,.57,2.58,7.53,7.53,0,0,0,1.58,1.68,7.31,7.31,0,0,1,1.71,1.57,4.86,4.86,0,0,0,1.8,1.43,2.69,2.69,0,0,1,1.48,2c.57,1.21,1.25,2,2.29,2.1a2.45,2.45,0,0,0,.48,0l.35,0h1.3c1-.07,2.06-.28,3.39-.51.7-.11,1.7-.24,2.87-.36s2.51-.17,3.89-.36,2.81-.3,4.11-.59a21.49,21.49,0,0,0,3.44-.94c2.27-1.09,3.31-.34,5.53-1.2l.13-.06h0c-2.22.85-3.27.1-5.53,1.19a31.58,31.58,0,0,1-7.56,1.52c-1.39.19-2.73.25-3.9.37s-2.17.24-2.87.35c-1.34.24-2.44.43-3.4.51h-.72l-.47,0h-.13l-.35,0a3.64,3.64,0,0,1-.48,0C53,61.79,52.3,61,51.73,59.81a2.66,2.66,0,0,0-1.47-2,5,5,0,0,1-1.8-1.43,7.44,7.44,0,0,0-1.7-1.56,7.75,7.75,0,0,1-1.58-1.68,10.52,10.52,0,0,0-.56-2.57,5.82,5.82,0,0,0-1.14-2,1.8,1.8,0,0,0-.5-.08,1.6,1.6,0,0,0-.49.08l-.17,0c-.33,0-.44-.35-.67-.42,0,0,0-.08,0-.11a8.91,8.91,0,0,1,.72-2.52,5.06,5.06,0,0,0,.33-1.35.74.74,0,0,0-.28-.64,1.07,1.07,0,0,0-.62-.13"/><path class="d" d="M81.88,56.13l-.25.26-2.35,2.46-.07.07c.27-.28.52-.53.67-.7l2-2.09"/><path class="d" d="M80.8,57.26l-.11.12h0l.11-.12"/><path class="d" d="M78.65,59.51l-.19.21.19-.21h0"/><path class="d" d="M78.44,59.73l0,0,0,0"/><path class="d" d="M66.08,72H66l-.26,0,.33,0h0"/><path class="d" d="M65.74,72h-.06a2.14,2.14,0,0,0-.42.15l-.09,0h0a2.13,2.13,0,0,1,.58-.21"/><polyline class="d" points="66.56 72.05 66.62 72.06 66.64 72.07 66.62 72.06 66.6 72.06 66.6 72.06 66.59 72.06 66.59 72.06 66.59 72.06 66.57 72.05 66.56 72.05"/><polyline class="d" points="66.6 72.06 66.6 72.06 66.6 72.06 66.6 72.06 66.6 72.06"/><polyline class="d" points="66.64 72.07 66.65 72.07 66.64 72.07 66.64 72.07"/><polyline class="d" points="66.65 72.07 66.65 72.07 66.66 72.07 66.66 72.07 66.65 72.07 66.65 72.07"/><path class="d" d="M66.66,72.08l-.19.2.19-.2h0"/><path class="e" d="M41.67,43.46l-.4,0a4.17,4.17,0,0,0-1.3.44,38,38,0,0,0-6.13,4.31A27.54,27.54,0,0,0,29.55,53a6.06,6.06,0,0,0-1.23,3.48,4.58,4.58,0,0,0,0,.53,19.46,19.46,0,0,0,.93,3.43c.35.42.72.84,1.09,1.26l.12-.28a9.19,9.19,0,0,0,.89-3.2,1.55,1.55,0,0,0-.56-1.35h0a18.51,18.51,0,0,1,1.67-4.91c.91-1.75,2.14-3.15,3.28-3.15a1.48,1.48,0,0,1,.87.3l1.31.38a17.81,17.81,0,0,1,2,.67,49,49,0,0,0,2.71,6.16c.43.77.83,1.6,1.27,2.36s.85,1.51,1.21,2.2a7.09,7.09,0,0,1,1.11,2.84,1,1,0,0,1,0,.25,13,13,0,0,0,1.62,2.31A15.59,15.59,0,0,0,50,68.17a11.67,11.67,0,0,0,3.1,1.47,11.55,11.55,0,0,0,3,.41,8.42,8.42,0,0,0,1,0,15.2,15.2,0,0,0,2.66-.4l2.75-1.23,3.72-1.54c1.18-.5,2.4-.9,3.63-1.41q3-1.66,6.4-3.93l.64-.21.08,0h0l1.64-1.72h0l-.07-.08h0l.15-.09.19-.09h0l-.26.27h0l.64-.67h0l2.35-2.46-.83.87-.11.12h0L79.12,59h0V59l0-.06.07-.25c0-.15.08-.27.11-.37a1.9,1.9,0,0,0,.09-.31l-.13.06c-2.22.86-3.26.11-5.53,1.2a21.49,21.49,0,0,1-3.44.94c-1.3.29-2.73.4-4.11.59s-2.72.24-3.89.36-2.17.25-2.87.36c-1.33.23-2.42.44-3.39.51h-1.3l-.35,0a2.45,2.45,0,0,1-.48,0c-1-.11-1.72-.89-2.29-2.1a2.69,2.69,0,0,0-1.48-2,4.86,4.86,0,0,1-1.8-1.43,7.31,7.31,0,0,0-1.71-1.57,7.53,7.53,0,0,1-1.58-1.68,10.48,10.48,0,0,0-.57-2.58,6,6,0,0,0-1.14-2,1.8,1.8,0,0,0-.5-.08,1.6,1.6,0,0,0-.49.08l-.17,0c-.33,0-.43-.35-.67-.42v-.06c0-1.27,1-2.89,1-3.9a.83.83,0,0,0-.28-.67,1.07,1.07,0,0,0-.62-.13"/><path class="e" d="M66.25,72h0"/><path class="e" d="M66.38,72h0"/><polyline class="e" points="66.39 72 66.4 72 66.41 72.01 66.39 72 66.39 72"/><path class="e" d="M66.57,72.05h0m-.89,0h0"/><polyline class="e" points="66.59 72.05 66.59 72.06 66.59 72.06 66.59 72.05"/><polyline class="e" points="66.6 72.06 66.6 72.06 66.6 72.06 66.6 72.06 66.6 72.06"/><polyline class="e" points="66.64 72.07 66.64 72.07 66.65 72.07 66.65 72.07 66.64 72.07 66.64 72.07"/><polyline class="e" points="66.64 72.07 66.65 72.07 66.64 72.07 66.64 72.07"/><path class="e" d="M65.17,72.21l-.08,0h0l0,0,.12-.07h0"/><path class="f" d="M35.77,48.77c-1.14,0-2.37,1.4-3.28,3.15a18.51,18.51,0,0,0-1.67,4.91,1.55,1.55,0,0,1,.56,1.35,9.19,9.19,0,0,1-.89,3.2c-.4.93-.86,1.82-1.21,2.49l-.47.84-.14.25a3.76,3.76,0,0,0-.14.62,5.9,5.9,0,0,0-.05.75,7.58,7.58,0,0,0,.13,1.39A11.49,11.49,0,0,0,29,69.29a14.09,14.09,0,0,0,.57,1.5,23.18,23.18,0,0,0,1.24,2.46c.37.6.64,1,.64,1h0a1.06,1.06,0,0,0-.1.46c0,1.5,2.8,3.35,6.16,4.52l.49.07c1.83.28,4.27.51,6.63.8.84.06,1.89.23,2.48.23a.66.66,0,0,0,.41-.08q.33,0,.66,0a4.63,4.63,0,0,1,1.09.11c.76.16,1.27.5,1.27,1.17a2,2,0,0,1-.16.73,1.37,1.37,0,0,0,.25.72,1.1,1.1,0,0,0,.21.22c.53-.07,1.11-.09,1.62-.13l.69,0a26.86,26.86,0,0,0,4.19-2.38l2.17-1.44c.31-.22.68-.44,1-.69.15-.25.27-.52.41-.76s.4-.74.61-1.09a14.61,14.61,0,0,1,2.19-3l.09-.1.34-.37L64.3,73l0,0c.07-.08.14-.17.21-.24l.08-.08.05-.05a2.46,2.46,0,0,1,.56-.4,1.85,1.85,0,0,1,.61-.21L66,72h.43l.17,0h.08l1.09-1.14h0l-1.09,1.14h0L78.41,59.76l0,0h0l.19-.21h0l-.86.9h0s.24-.24.85-.89L77,61.24h0l-.08,0-.64.21q-3.44,2.26-6.4,3.93l-1.32.72a46.09,46.09,0,0,1-6.36,2.77c-.85.28-1.65.51-2.42.69a15.2,15.2,0,0,1-2.66.4,8.42,8.42,0,0,1-1,0,11.55,11.55,0,0,1-3-.41A11.67,11.67,0,0,1,50,68.17a15.59,15.59,0,0,1-2.2-1.93,13,13,0,0,1-1.62-2.31h0a1,1,0,0,0,0-.25,7.09,7.09,0,0,0-1.11-2.84c-.36-.69-.77-1.45-1.21-2.2s-.84-1.59-1.27-2.36a49,49,0,0,1-2.71-6.16,17.81,17.81,0,0,0-2-.67l-1.31-.38a1.48,1.48,0,0,0-.87-.3"/><path class="f" d="M66.16,72h0M79.29,58.84l-.64.67h0l.27-.28.29-.31.08-.08"/><path class="f" d="M66.16,72h0"/><path class="f" d="M66.66,72.08l-.16.17.16-.17h0"/><path class="f" d="M64.91,72.37l-.29.23h0a2.34,2.34,0,0,1,.31-.24"/><path class="f" d="M64.24,73l0,0h0l0,0m0-.06-.06.09h0l.06-.08h0"/><path class="f" d="M64.22,73.06h0l-.06.08v0l.06-.09"/><path class="f" d="M64.18,73.13l0,0-.06.09a1,1,0,0,1,.08-.11"/><path class="f" d="M64.12,73.22a.75.75,0,0,0-.07.12h0v0l-.06.11.12-.21,0,0"/><path class="f" d="M63.72,74.31s0,.08,0,.13a2.09,2.09,0,0,0,0,.25v0c0-.13,0-.27,0-.4"/><path class="f" d="M63.7,74.74a1.93,1.93,0,0,0,0,.24.17.17,0,0,0,0,.07,3,3,0,0,1,0-.31"/><path class="f" d="M63.72,75.09a3.11,3.11,0,0,0,.08.44v0h0v0a2.21,2.21,0,0,1-.05-.25h0v-.06s0-.07,0-.11v-.06"/><path class="f" d="M63.76,75.36l.06.27v.05c0-.09,0-.2-.07-.32"/><path class="f" d="M63.83,75.68v0l0,.12a1,1,0,0,0,0-.14"/><path class="f" d="M63.85,75.74a.29.29,0,0,1,0,.09l.06.19,0-.12a.75.75,0,0,1,0-.16"/><path class="f" d="M64,76.22v0"/><path class="f" d="M64,76.25v0h0l0,0"/><path class="g" d="M80.05,58.05l-.17.17c-.15.17-.4.42-.67.7l-.29.31-.27.28h0l-.19.21h0l0,0L66.66,72.08h0l13.39-14"/><path class="g" d="M78.91,59.24l-.19.09-.15.09.07.08h0l.26-.27"/><path class="g" d="M78.65,59.51h0c-.61.65-.85.89-.85.89l.86-.9h0m0,0h0"/><path class="g" d="M78.54,69.91l-2.36,1.5-5.33,3.5L68,76.83l-1.46,1-.73.5-.37.25h0l0,0h0v0h0l-.13-.17L65,78v0l-.3-.44c-.17-.26-.26-.43-.26-.43l-.15-.27-.17-.35,0-.06L64,76.25v0c0-.06-.05-.13-.08-.2l-.06-.19c0-.1,0-.2-.07-.3a3.11,3.11,0,0,1-.08-.44v0h0a.17.17,0,0,1,0-.07,1.83,1.83,0,0,1,0-.54s0-.09,0-.13v0a1.8,1.8,0,0,1,.06-.32h0a2.38,2.38,0,0,0,0,.26h0a3.1,3.1,0,0,1,.23-.73l.06-.11.09-.16v0l0,0v0l.06-.08-.08.09-.1.1h0l-.35.36a14.61,14.61,0,0,0-2.19,3c-.11.2-.21.41-.31.61s-.33.71-.49,1.07l-.22.17c-.32.25-.69.47-1,.69l-2.17,1.44A26.86,26.86,0,0,1,53.13,83c-.33.13-.62.23-.87.31a3,3,0,0,1-.67.09,1.12,1.12,0,0,1-1-.45,1.37,1.37,0,0,1-.25-.72h0a2,2,0,0,0,.16-.73c0-.67-.51-1-1.27-1.17a4.63,4.63,0,0,0-1.09-.11q-.33,0-.66,0a.66.66,0,0,1-.41.08c-.59,0-1.64-.17-2.48-.23-2.36-.29-4.8-.52-6.63-.8l-.49-.07L36.07,79a3.1,3.1,0,0,1,1,1.79,12.12,12.12,0,0,1,.37,2.49A4.71,4.71,0,0,1,40.1,85.1a35.92,35.92,0,0,1,2.46,3.51l.29.47c0,.12.19.27.19.36a.05.05,0,0,1,0,0c-.06.2-.13.4-.2.58s-.07.19-.1.28a2.7,2.7,0,0,0,0,.28c0,.2-.06.37-.08.54-.12.66-.23,1.1-.23,1.1a8.75,8.75,0,0,0-.69,2.37c0,.23.08.31.21.31a.69.69,0,0,0,.25-.06,8.93,8.93,0,0,0,1.52-1.08A27.52,27.52,0,0,1,46.55,91c.46-.37.57-.38.59-.38h0a8.55,8.55,0,0,0,2.43-1.19l.87-.54.47-.3c.14-.1.12-.24.19-.36a5.34,5.34,0,0,1,.65-1.31,6.46,6.46,0,0,1,2.4-2c1.12-.59,2.53-1.19,4-1.79,3-1.22,6.35-2.33,8.82-3,1.22-.38,2.22-.75,2.92-1L71,78.58c3.14-1.34,5.39-5,7.31-7.94l.23-.73"/><path class="g" d="M67.75,70.93l-1.09,1.14h0l1.09-1.14"/><path class="g" d="M66.07,72h0"/><path class="g" d="M66,72h0l-.19,0-.34.09-.06,0a2.29,2.29,0,0,1,.5-.12H66"/><path class="g" d="M66.17,72h0"/><path class="g" d="M66.33,72h0"/><path class="g" d="M66.4,72l.07,0,.09,0h0l-.17,0h0"/><polyline class="g" points="66.6 72.06 66.62 72.06 66.64 72.07 66.64 72.07 66.64 72.07 66.64 72.07 66.64 72.07 66.64 72.07 66.62 72.06 66.6 72.06 66.6 72.06 66.6 72.06"/><polyline class="g" points="66.64 72.07 66.65 72.07 66.66 72.08 66.66 72.08 66.66 72.07 66.66 72.07 66.65 72.07 66.65 72.07 66.65 72.07 66.64 72.07"/><path class="g" d="M66.66,72.07h0l-1.1,1.16,1.11-1.16h0m0,0h0"/><path class="g" d="M65.39,72.1h0l-.16.08a2.46,2.46,0,0,0-.56.4l.29-.23.17-.11h0l.08,0,.09,0,.13-.06"/><path class="g" d="M64.62,72.6l-.05.05-.09.09-.09.1a1.34,1.34,0,0,0-.11.14l-.06.08h0l0,0,.19-.23.13-.14,0,0h0"/><path class="g" d="M64.22,73.06h0m0,0h0l-.06.09,0,0,0,0s0,0,0,0h0"/><path class="g" d="M64.12,73.21h0m0,0h0m0,0v0l0,0h0l0,0h0l.08-.12"/><path class="g" d="M65.32,78.45l.05.06,0,0h0l-.07-.09"/><polyline class="g" points="65.39 78.55 65.4 78.56 65.41 78.57 65.43 78.56 65.39 78.55"/><path class="g" d="M35.28,78.77a2.58,2.58,0,0,0-.39,0s.43.08,1.18.19a1.47,1.47,0,0,0-.79-.23"/><path class="h" d="M83.22,90h0m0,0h0M95.28,56.42,76,70.73,70.19,75l-3,2.21-1.5,1.11-.18.14-.08.06.08-.06,0,0,.24-.17,1.91-1.4,7.54-5.51L89.2,61.23l1-.71.12-.08h0v.09s0,.09,0,.13,0,.09,0,.14a2,2,0,0,1-.12.58c-.32.07-.58.48-.94.82-.68.71-1.55,1.56-2.35,2.33-.61.55-1.46,1.09-2.07,1.63-2.22,2.09-3,3.66-5.89,6a7.41,7.41,0,0,0-2.32,3.15v0c0,.19.39.28,1,.28.24,0,.51,0,.8,0a24.41,24.41,0,0,0,4-.7c2.77-.66,5.39-1.74,5.77-1.74h0c.26,0,1.14-1,1.38-1a1,1,0,0,1,.07.4,21,21,0,0,1-1.2,4.18,3.86,3.86,0,0,0-.16,1.07,4,4,0,0,0,.42,1.76c.31.7.69,1.14.69,1.3s0,0,0,0c-1.53,2.07-3.17,4.87-4.77,6a9.6,9.6,0,0,0-.9,1.3,6.06,6.06,0,0,0-.61,1.69s0,0,0,.06h0c-.15,0-.22.09-.22.19,0,.58,1.87,2.2,2.64,2.2.19,0,.32-.1.32-.36a.49.49,0,0,0,0-.12h0a.76.76,0,0,0,.81.72,3,3,0,0,0,1-.22,6.92,6.92,0,0,1,2-.61,1,1,0,0,1,.42.08c.89.25,1.08,2.27,2.07,2.27a1,1,0,0,0,.35-.08,8.62,8.62,0,0,1,1.39-.33c.4,0,.67.23.68,1A5.5,5.5,0,0,0,95.09,97c.93.67,2.17.31,2.67,1.82.3,1.27.19,4,1.13,4a.68.68,0,0,0,.36-.11.77.77,0,0,1,.26-.1h.11l.24,0h.23c.19,0,.36-.06.48-.37-.21-.4-.27-1.22-.53-1.75-.4-1.2-1.16-1.44-1.4-2.81-.34-1.22-.43-2.7-.8-3.76a3.13,3.13,0,0,0-.91-1.32,13.09,13.09,0,0,0-1.79-1.89,6.44,6.44,0,0,0-2-1.08c-.39.46-.7.63-.95.63-.57,0-.85-.88-1.26-1.15-.16-.17-.16-.64-.27-1-.41-.41-1.21-.15-1.21-1.07a2,2,0,0,1,0-.45c.36-1.55.71-3.05,1-4.51s.63-2.75.87-4c.18-1,.34-2.93.53-4.66s.37-3.07.37-3.65v-.14h0v-.12c0-1.3-1.39-.81-1.56-1.8h0a2.77,2.77,0,0,1,.45-.42L91,67.2c-.19.14-.63.3-.83.44a.32.32,0,0,1,0-.14,3,3,0,0,1,.39-1.06,24,24,0,0,0,1.68-3.1,23.17,23.17,0,0,0,.92-2.28A15.5,15.5,0,0,1,94,59a9,9,0,0,1,.66-1.08l.21-.29L95,57.5l0-.07h.24v-.07l0-.32c0-.15,0-.33,0-.47a.44.44,0,0,0,0-.13"/><path class="h" d="M63.79,74a1.8,1.8,0,0,0-.06.32,3,3,0,0,0,0,.42,3.4,3.4,0,0,0,0,.45s0,.07,0,.11l0,.07a2.21,2.21,0,0,0,.05.25.94.94,0,0,0,0,.16.75.75,0,0,0,0,.16,2.3,2.3,0,0,0,.12.34v0l.09.22h0v0l.17.35,0,0,0,.06v0c-.08-.14-.15-.29-.22-.44s-.07-.15-.1-.23v0c-.06-.14-.1-.28-.15-.43l0-.12,0-.07-.06-.27a3.49,3.49,0,0,1-.06-.65,3.2,3.2,0,0,1,.09-.75"/><path class="h" d="M64.36,77c.07.14.16.28.24.43-.08-.15-.17-.29-.24-.43"/><path class="h" d="M64.6,77.4a.86.86,0,0,1,.07.1l0,.07L65,78h0c-.07-.09-.13-.19-.2-.29l-.21-.32"/><path class="h" d="M65,78v0l.21.3.13.17h0l-.05-.06L65,78.06v0l0,0"/><polyline class="h" points="65.37 78.51 65.38 78.53 65.39 78.53 65.37 78.51"/><polyline class="h" points="65.39 78.53 65.39 78.54 65.39 78.54 65.39 78.55 65.39 78.55 65.41 78.57 65.41 78.57 65.4 78.56 65.39 78.55 65.39 78.54 65.39 78.53"/><polyline class="h" points="65.46 78.54 65.43 78.56 65.41 78.57 65.41 78.57 65.46 78.54"/><path class="i" d="M23.73,91.2h0a11.14,11.14,0,0,1,1.37.14,10.17,10.17,0,0,0-1.37-.14"/><path class="i" d="M32.11,94.61a6.87,6.87,0,0,1,.61.6A14.24,14.24,0,0,1,35.2,99c0,.11.1.23.16.35-.06-.12-.11-.24-.16-.35a14.48,14.48,0,0,0-2.48-3.78,8.42,8.42,0,0,0-.61-.59"/><path class="a" d="M35.2,99c0,.11.1.23.16.35l.06.15h0s.28.33.69.83h0l.74.86h0l.44.48h0c.09.11.25.25.27.33h0c0-.08-.18-.22-.27-.33l-.44-.48-.74-.86-.69-.83c-.07-.17-.15-.34-.22-.5h0"/><path class="i" d="M37.29,101.65c.09.11.25.25.27.33h0c0-.08-.18-.22-.27-.33m-1.18-1.34.74.86-.74-.86m-.69-.83s.28.33.69.83c-.41-.5-.68-.83-.69-.83"/><path class="j" d="M25.13,91.34h0a16.55,16.55,0,0,1,3.23.89h0l.09,0a11.3,11.3,0,0,1,2,1.06h0a11,11,0,0,0-2.12-1.09,16.55,16.55,0,0,0-3.23-.89h0"/><path class="i" d="M28.45,92.26a11.3,11.3,0,0,1,2,1.06,11.8,11.8,0,0,1,1.63,1.29,11.8,11.8,0,0,0-1.63-1.29,11.3,11.3,0,0,0-2-1.06m-3.32-.92a16.55,16.55,0,0,1,3.23.89,16.55,16.55,0,0,0-3.23-.89"/><path class="j" d="M37.56,102h0v0"/><path class="i" d="M43.7,95.73l-.45.52c-.8.94-1.41,1.69-1.89,2.3h0c.48-.6,1.09-1.37,1.89-2.3l.46-.53"/><path class="i" d="M41.35,98.56a2.56,2.56,0,0,1-.45.48,2.56,2.56,0,0,0,.45-.48"/><path class="i" d="M39.42,100.2a1.8,1.8,0,0,0-.33.26c-.21.18-.45.4-.55.5s0,.05,0,.06,0,0,0-.06.34-.32.55-.5a2.24,2.24,0,0,1,.33-.26"/><path class="i" d="M39.45,100.21a.15.15,0,0,1,0,.06.59.59,0,0,1-.08.11.59.59,0,0,0,.08-.11.15.15,0,0,0,0-.06m0,0h0"/><path class="i" d="M36.82,102.73c0,.08,0,.14-.07.18a.26.26,0,0,0,0,.07h0a.26.26,0,0,1,0-.07s0-.11.07-.18M38.5,101h0"/><path class="i" d="M37.5,102l-.48.33.48-.33m.06,0h0"/><path class="k" d="M93.82,65.94a2.94,2.94,0,0,0-1.25.44,10.06,10.06,0,0,0-1.27.88l-.11.09a2.77,2.77,0,0,0-.45.42h0c.17,1,1.56.5,1.56,1.8v.26c0,.58-.21,2-.37,3.65s-.35,3.68-.53,4.66c-.24,1.22-.53,2.55-.87,4s-.68,3-1,4.51a2,2,0,0,0,0,.45c0,.92.8.66,1.21,1.07.11.36.11.83.27,1,.41.27.69,1.15,1.26,1.15.25,0,.56-.17.95-.63a6.44,6.44,0,0,1,2,1.08,13.09,13.09,0,0,1,1.79,1.89A3.13,3.13,0,0,1,97.84,94c.37,1.06.46,2.54.8,3.76.24,1.37,1,1.61,1.4,2.81.26.53.32,1.35.53,1.75h0a.22.22,0,0,1,.14,0l.17,0,.15,0c.12,0,.21-.06.23-.3a2.58,2.58,0,0,0,.06-.61c0-.47-.09-.93-.13-1.36-.5-2.23-.71-4.69-1.11-6.56-1-4.29-1.84-7.56-3.36-9a.2.2,0,0,0-.15-.06c-.32,0-.83.57-1.24.76a1.06,1.06,0,0,1-.55.17,2.9,2.9,0,0,1-.86-.24,1.3,1.3,0,0,0-.49-.1,1.94,1.94,0,0,0-1.28.66.33.33,0,0,1-.21.11c-.12,0-.19-.13-.2-.31h0a86.69,86.69,0,0,1,1.82-11A41.39,41.39,0,0,0,94.22,70c.18-1.51.37-2.82.37-3.19-.08-.65-.37-.88-.77-.88"/><path d="M18.31,48.82a32,32,0,0,1,6.27-8.43,62.5,62.5,0,0,0,4.89-5.59c.82-.94,1.63-1.89,2.5-2.79,1.42-1.48,1.44-1.47,1.6-3.42,1.73-1.31,3.55-2.51,5.17-3.93a13.81,13.81,0,0,1,9.59-3.37c.14.42.14,1,.42,1.22,1.22.86,1.06,2.15,1.25,3.36.9,5.63,1.85,11.24,4.08,16.54A6.5,6.5,0,0,0,55,44.06a10.45,10.45,0,0,1,2,6.11c.2,2.37.31,2.6,2.7,3a42.57,42.57,0,0,0,17.65-.69c4.15-1,8.19-2.74,12.56-2.65,3.2.07,6.41.25,9.59.61,2.76.32,4.06,1.85,3.74,4.61-.46,4,1.74,6.85,3.47,10,.28.5,1,.73,1.43,1.18a13.57,13.57,0,0,1,2,2.51c1,1.8.58,3.16-1.11,4.32-.39.27-.74.58-1.12.85-.91.65-.91.65-2.28-.2a16.1,16.1,0,0,1-2.53,2.21,12.48,12.48,0,0,1-5.31,1.66c-2.88.24-5.73.8-8.59,1.14a30.67,30.67,0,0,0-4.73.61c1.67.92,3.32,1.89,5,2.74A76.28,76.28,0,0,0,105,87.8a33.13,33.13,0,0,0,3.69.65,51.83,51.83,0,0,1,14.81,4.21c1.92.89,3.31,1.7,3.71,3.87.12.62.75,1.16,1.19,1.7,2.44,3,2.79,6.31,1.64,9.91-.39,1.2-.61,2.45-1,3.88-1-.19-1.47.87-2,1.81a25.2,25.2,0,0,1-12.56,11.42,15.24,15.24,0,0,0-5.12,3.42,2.71,2.71,0,0,1-2.82.93,22.84,22.84,0,0,1-8.44-3.36c-1.89-1.24-3.65-2.68-5.51-4q-2-1.4-4.1-2.66c-3.07-1.86-6.16-3.71-9.27-5.51-1.2-.69-2.47-1.23-3.92-1.94-.31,2.17-1,3.84,0,5.76.86,1.67-.19,3-2.07,3.24-.84.11-1.65.4-2.49.52-.6.09-1.49.29-1.77,0-1-1-2.28-.78-3.41-1.16-2.07-.69-4.14-1.39-6.16-2.21-1.73-.7-3.38-1.57-5.07-2.34a2.21,2.21,0,0,1-1.32-2c-.38-3.8-1-7.59-1.22-11.39a8.13,8.13,0,0,0-5.26-7.64,16.22,16.22,0,0,1-7.9-7c-1-1.65-2.14-3.21-3.3-5-1.53,1.29-3.25,2.11-3.91,4.25a3.42,3.42,0,0,1-3.57,2.2,10.44,10.44,0,0,1-4.08-.92c-1.45-.74-1.25-2.45-1.12-3.79a9.31,9.31,0,0,1,1.14-3A30.21,30.21,0,0,1,26,77.75c1-1.54.82-3.32,1.1-5,.09-.49-.42-1.16-.8-1.63-2.49-3.1-3.24-6.73-3.82-10.58-.51-3.43-1.85-6.75-2.91-10.09C19.39,49.84,18.75,49.37,18.31,48.82ZM70.53,112.5a9.71,9.71,0,0,1-.89-1.37,10.15,10.15,0,0,1-.39-1.67,5.43,5.43,0,0,1,1.76-.21,36.73,36.73,0,0,1,3.81,1.1,26,26,0,0,1,7.2,3.33c2.16,1.53,4.56,2.7,6.87,4,1.62.93,3.5,1.58,4.83,2.82a36.51,36.51,0,0,0,9.06,6.15,19.73,19.73,0,0,0,3.32,1.15,1.86,1.86,0,0,0,1.32-.11c1.7-1,3.34-2.18,5-3.28-.32-.69-1.71-.66-1.33-2l2.1-.21a25,25,0,0,0,.45-2.51,5.3,5.3,0,0,1,2.11-3.78c1-.79,2.35-1.22,2.42-2.85,0-.27.84-.5,1.51-.87-1-1.12-.24-2,.4-2.91.32-.45.62-.91.92-1.37,2.17-3.37,3.66-6.91,2.53-11a3.79,3.79,0,0,0-1-2c-2.91-2.24-6.35-3.16-10.22-3.79.53,2.94-.46,5.41-1.31,7.92s-1.64,4.88-2.61,7.78a4.21,4.21,0,0,1-.2-3.85c.76-2.79,1.6-5.56,2.34-8.35a4.22,4.22,0,0,0-.62-4c-1.29-.21-2.61-.37-3.91-.64s-2.68-.66-4-1c-1,6.81-2.18,10.54-3.64,11.76a4.13,4.13,0,0,1,0-1c.44-2.29,1-4.57,1.35-6.88a15.74,15.74,0,0,0,.08-3.5,1.82,1.82,0,0,0-.79-1.3c-1.37-.63-2.83-1.1-4.26-1.63-.85,2.87-1.48,5.45-2.4,7.93s-1.51,5.14-3.53,7.11a8,8,0,0,1,.43-2.74c.91-2.83,1.92-5.63,2.74-8.48a11.82,11.82,0,0,0,.29-3.47,1.86,1.86,0,0,0-.71-1.37A16.22,16.22,0,0,0,86.28,83c-1,2.06-1.73,4-2.73,5.87S82.31,93,80.1,94.73c1-4.85,3.92-8.66,3.87-13.22C81.5,79,80.7,78.59,78.27,78.8a10.24,10.24,0,0,0-2.91.8c-1.75.73-2.13.5-2.26-1.79,2.73-.3,5.34-1.59,8.24-.84a6.43,6.43,0,0,0,2.1,0c4.2-.39,8.4-.72,12.57-1.25,3.1-.39,6.26-.87,8.21-4a3.24,3.24,0,0,1-1.15-4.27l2.27-.51c-.75-1.51-1.29-2.8-3.13-2.92l.75-1.2a18.76,18.76,0,0,1-1.51-3.19c-.27-1-.32-1.92-1.51-2.38-.41-.16-.74-1-.77-1.59a21.25,21.25,0,0,1,.27-3.15c-.9-.09-1.88-.19-2.87-.27s-2,0-3-.21a15.87,15.87,0,0,0-7.44.39,96.92,96.92,0,0,1-14.92,3c-3.66.47-7.27,1-10.92.08-.95-.22-1.92-.36-3.15-.59,1.14,3.71,2,7.09,3.82,10.15,1.29,2.2,2.73,4.22,5.78,4.23v2.55c-2,.84-2.68-1.93-4.59-1.47a14.86,14.86,0,0,1-.6,1.41c-1.37,2.55-2.73,5.09-4.16,7.6-.35.61-.81,1.37-1.92.91.93-1.75,1.91-3.37,2.65-5.08a43.11,43.11,0,0,0,2-5.72,3.11,3.11,0,0,0-.37-2.42A19.84,19.84,0,0,1,56.87,61c-.62-1.83-1.25-3.66-2-5.77l-.59,1.07c-2.06,3.67-4.11,7.35-6.19,11-.39.69-.71,1.6-1.93,1.23a6,6,0,0,1,.2-.73c2.13-4.08,4.46-8.08,6.36-12.27,1.75-3.89,2.56-7.94-.15-11.91a24.2,24.2,0,0,1-1.66-3.61c-.21-.44-.47-.86-.69-1.27-.86,1.89-1.55,3.7-2.48,5.38s-2.1,3.11-3.06,4.72c-2.26,3.8-2.24,3.82-3.7,4.25,1.31-2.33,2.49-4.51,3.75-6.65,1.71-2.9,3.37-5.81,3.08-9.42L50,36.66c-.63-3.44-1.23-6.7-1.88-10.29C47.58,27,47,27.46,46.91,28c-.13,1.61-1.35,2.43-2.25,3.45-1.09,1.22-2.31,2.33-3.47,3.48S39.81,36,38.44,34.6c4.36-2.54,7-6.36,8.5-11.33-4.43.22-7.33,2.61-9.87,5.53-1,1.18-1.5,2.71-3,3.65a7.29,7.29,0,0,0-3,3.53,19.13,19.13,0,0,0-.84,7.74L33.51,41a1.59,1.59,0,0,1-.5,2.5c-3.59,2.64-6.89,5.89-11.9,5.75a12,12,0,0,0,.33,1.24A46.66,46.66,0,0,1,24.63,63,11.18,11.18,0,0,0,27,69c1.16,1.43,2.2,2.86,1.76,4.64,1.27.9,2.46,1.61,3.5,2.51,1.49,1.27,1.8,3.65,4,4.36.17.06.26.37.38.57,1.62,2.67,3.21,5.35,4.86,8a9.83,9.83,0,0,0,4.44,3.69c.85.4,1.76.68,2.57,1.15a9.63,9.63,0,0,1,5.14,6.87c.28,1.77.28,3.58.47,5.37.29,2.65.64,5.3,1,8h.59a25.74,25.74,0,0,1,.34-2.64c.2-.87-.11-2,1.16-2.57.71,2.19-.36,4.45.83,6.44.25-.82.23-1.66.42-2.45s-.19-1.88,1.15-2.76c.19,2.2.35,4.1.52,6l.41,0c.13-1.47.27-2.94.44-4.82,1.86,1.93.49,4.23,1.77,5.9.26-1,.49-1.89.75-2.87,1.15.71,2.24,1.08,2.82,1.83a10.25,10.25,0,0,1,1.07,3l1.9-.3c.27-1.07.5-2,.73-2.9,1,0,1.44.39,1.4,1.17a7.29,7.29,0,0,0-.07,1.61,1,1,0,0,0,.72.71c.23,0,.66-.35.76-.62.6-1.77-.14-3.23-2.13-4.08-2.81-1.19-5.64-2.3-8.47-3.44a16.5,16.5,0,0,1-1.73-.71.88.88,0,0,1-.36-.75.9.9,0,0,1,.6-.61,2.11,2.11,0,0,1,1.14.09c2.4.91,4.79,1.86,7.2,2.77a13.22,13.22,0,0,0,1.54.35c1.11,1,1.11,1,2.34.46ZM29,75.68c-1.37,2.69-2.62,5.1-3.82,7.53a4.91,4.91,0,0,0-.35,1.59c-.19,1.75.2,2.11,2.24,2.14,0-.94-.09-1.89-.15-3.18l1.71.9c.33-1.08-1-2.08.19-3.28l1.61,2.5c.37-1.43-1.26-2.76.29-4.3.31.63.56,1.12.79,1.61s.43,1.07.75,1.86c1.18-3.61,1.45-3.51-1.42-5.8C30.31,76.83,29.81,76.36,29,75.68Zm97.14,35.87c.44-.84.71-1.39,1-1.92,1.08-1.85-.28-4.26,1.39-6,0,0,0-.15-.05-.22A6.46,6.46,0,0,0,126.06,99c-.33,2.65,0,5.26-1.75,7C124.92,107.83,125.46,109.48,126.15,111.55Zm-2.78-3.85-.75,1.11c0,.06-.1.16-.08.21.71,1.89.38,4.07,1.51,6,.84-1.45.78-1.43.5-2.42C124.13,111.11,123.82,109.59,123.37,107.7ZM29,38.85c-2,1.6-2.23,2.5-1.88,6.23.79.3,1.12-.06,1.21-.83C28.49,42.56,28.71,40.86,29,38.85ZM121.44,111c-.76,1.42-.19,4.29,1,5.88C122.11,115,121.8,113.12,121.44,111Zm-1.73,3.8c-.11,2.38,0,2.68,1.12,4.18C120.4,117.36,120.05,116.08,119.71,114.79Zm-95-70.39.57.06c.08-.62.15-1.25.23-1.87l-.6-.07C24.82,43.15,24.76,43.78,24.69,44.4Zm-3,2.37c1.45-.16,1.45-.16,1.08-2C22.4,45.53,22.09,46.1,21.73,46.77Zm85.16,24.56.37.4c.76-.2,1.43-.49,1.08-2.2Zm8.83,50-.48,0,.09,1.29.39,0Z"/><path d="M71.77,81.38c.9-1.39,1.74-1,2.54-.75,1,.29,2,.54,2.89.9a3.86,3.86,0,0,0,3.15-.28,3.47,3.47,0,0,1,1.5-.5,1.39,1.39,0,0,1,1,.74,1.24,1.24,0,0,1-.49,1.12c-1.81.78-3.55,2-5.72.9-1-.5-2.06-.69-3.07-1.1A15.47,15.47,0,0,1,71.77,81.38Z"/><path d="M34.25,35.12a14.9,14.9,0,0,1,0,2.5c-.07.41-.55.75-.85,1.13-.27-.41-.83-.88-.76-1.21a15.46,15.46,0,0,1,1-2.63Z"/><path d="M97.93,54.9l.6,1.25a3.69,3.69,0,0,1-.74.27,10.43,10.43,0,0,1-.57-1.22Z"/></svg>