<?xml version="1.0" encoding="utf-8"?>
<!-- Generator: Adobe Illustrator 23.0.1, SVG Export Plug-In . SVG Version: 6.00 Build 0)  -->
<svg version="1.1" id="Layer_1" xmlns="http://www.w3.org/2000/svg" xmlns:xlink="http://www.w3.org/1999/xlink" x="0px" y="0px"
	 viewBox="0 0 150 150" style="enable-background:new 0 0 150 150;" xml:space="preserve">
<style type="text/css">
	.st0{fill:#F49AB4;}
	.st1{fill:#F28DA7;}
	.st2{fill:#E85072;}
	.st3{fill:#E84B6F;}
	.st4{fill:#EB5A7D;}
	.st5{fill:#EF7994;}
	.st6{fill:#F8BCCD;}
	.st7{fill:#F38CA8;}
	.st8{fill:#EF728F;}
	.st9{fill:#FCE4EB;}
	.st10{fill:#F0CCCF;}
	.st11{fill:#DE8D95;}
	.st12{fill:#EBBABF;}
	.st13{fill:#E7ACB2;}
	.st14{fill:#E39DA3;}
	.st15{fill:#F5DEE0;}
	.st16{fill:#D97A83;}
	.st17{fill:#E4A6AD;}
	.st18{fill:#E9B6BB;}
	.st19{fill:#DA9197;}
	.st20{fill:#CC7077;}
	.st21{fill:#C9646C;}
	.st22{fill:#D4848B;}
	.st23{fill:#D17A81;}
	.st24{fill:#DD9EA3;}
	.st25{fill:#C65760;}
	.st26{fill:#D48189;}
	.st27{fill:#CF6E76;}
	.st28{fill:#C1575F;}
	.st29{fill:#B8424B;}
	.st30{fill:#B33C43;}
	.st31{fill:#BB4952;}
	.st32{fill:#C65E66;}
	.st33{fill:#BC4F57;}
	.st34{fill:#B0353D;}
	.st35{fill:#D67E84;}
	.st36{fill:#C6636B;}
	.st37{fill:#CA6C72;}
	.st38{fill:#B9454D;}
	.st39{fill:#C05B63;}
	.st40{fill:#C0545B;}
	.st41{fill:#BE4C53;}
	.st42{fill:#B43C44;}
	.st43{fill:#DF999F;}
	.st44{fill:#D27980;}
	.st45{fill:#C1555D;}
	.st46{fill:#CB6F76;}
	.st47{fill:#C8676E;}
	.st48{fill:#D5838A;}
	.st49{fill:#C65D64;}
	.st50{fill:#F1D1D4;}
	.st51{fill:#D38087;}
	.st52{fill:#CF737C;}
	.st53{fill:#D98C94;}
	.st54{fill:#E6B3B9;}
	.st55{fill:#D8898F;}
	.st56{fill:#C66269;}
	.st57{fill:#C96A72;}
	.st58{fill:#DD9399;}
	.st59{fill:#CF747B;}
	.st60{fill:#D48188;}
	.st61{fill:#D37D85;}
	.st62{fill:#DC9298;}
	.st63{fill:#D8838B;}
	.st64{fill:#FAECED;}
	.st65{fill:#EFCBD0;}
	.st66{fill:#EDC1C5;}
	.st67{fill:#D28089;}
	.st68{fill:#CB747D;}
	.st69{fill:#A8343C;}
	.st70{fill:#A62F37;}
	.st71{fill:#B03E44;}
	.st72{fill:#C25C63;}
	.st73{fill:#E1A8AC;}
	.st74{fill:#BE535C;}
	.st75{fill:#CE727C;}
	.st76{fill:#F5D8DA;}
	.st77{fill:#D8BAE7;}
	.st78{fill:#BC8FD2;}
	.st79{fill:#B17FC9;}
	.st80{fill:#7D3CA4;}
	.st81{fill:#884BAE;}
	.st82{fill:#A369BF;}
	.st83{fill:#D2B5E2;}
	.st84{fill:#9A62BC;}
	.st85{fill:#B17ECB;}
	.st86{fill:#ECE0F2;}
	.st87{fill:#FBCBC8;}
	.st88{fill:#F5908C;}
	.st89{fill:#F28580;}
	.st90{fill:#E64640;}
	.st91{fill:#E5413B;}
	.st92{fill:#E74E49;}
	.st93{fill:#ED6D68;}
	.st94{fill:#F7B5B0;}
	.st95{fill:#ED6660;}
	.st96{fill:#F48580;}
	.st97{fill:#FBDFDF;}
	.st98{fill:#F9C1C0;}
	.st99{fill:#F7B7B6;}
	.st100{fill:#EF7573;}
	.st101{fill:#EF6F6D;}
	.st102{fill:#F17F7C;}
	.st103{fill:#F4A19F;}
	.st104{fill:#F39998;}
	.st105{fill:#EC7271;}
	.st106{fill:#FAD1CF;}
	.st107{fill:#FADCDC;}
	.st108{fill:#F39391;}
	.st109{fill:#FDECEC;}
	.st110{fill:#FCDDDD;}
	.st111{fill:#ED8280;}
	.st112{fill:#E66160;}
	.st113{fill:#F18784;}
	.st114{fill:#F19593;}
	.st115{fill:#EB7675;}
	.st116{fill:#E86867;}
	.st117{fill:#F28785;}
	.st118{fill:#F3A7A7;}
	.st119{fill:#F08C8B;}
	.st120{fill:#F08785;}
	.st121{fill:#E55D5B;}
	.st122{fill:#E86D6C;}
	.st123{fill:#E85F5D;}
	.st124{fill:#E75958;}
	.st125{fill:#EA6664;}
	.st126{fill:#E76260;}
	.st127{fill:#E04948;}
	.st128{fill:#ED7371;}
	.st129{fill:#EA6B6A;}
	.st130{fill:#EB6763;}
	.st131{fill:#E45352;}
	.st132{fill:#E54E4C;}
	.st133{fill:#DE3635;}
	.st134{fill:#E65958;}
	.st135{fill:#E0413E;}
	.st136{fill:#EA6D6A;}
	.st137{fill:#EE9493;}
	.st138{fill:#EA6866;}
	.st139{fill:#F2A8A6;}
	.st140{fill:#E14543;}
	.st141{fill:#E3413F;}
	.st142{fill:#E64A48;}
	.st143{fill:#E56967;}
	.st144{fill:#E33F3D;}
	.st145{fill:#EB7775;}
	.st146{fill:#EE8483;}
	.st147{fill:#E64845;}
	.st148{fill:#E75655;}
	.st149{fill:#E65451;}
	.st150{fill:#EA7473;}
	.st151{fill:#E55B57;}
	.st152{fill:#E75756;}
	.st153{fill:#EB7472;}
	.st154{fill:#EE8C8A;}
	.st155{fill:#F5A3A2;}
	.st156{fill:#E14A49;}
	.st157{fill:#E14D4C;}
	.st158{fill:#E14B49;}
	.st159{fill:#DE3E3D;}
	.st160{fill:#E45350;}
	.st161{fill:#E14544;}
	.st162{fill:#E54E4B;}
	.st163{fill:#E34240;}
	.st164{fill:#E75C5A;}
	.st165{fill:#EB7C7B;}
	.st166{fill:#F3A2A1;}
	.st167{fill:#EA7877;}
	.st168{fill:#E66B6A;}
	.st169{fill:#E96A69;}
	.st170{fill:#E56160;}
	.st171{fill:#E44845;}
	.st172{fill:#EC7473;}
	.st173{fill:#F9C0D3;}
	.st174{fill:#F298B5;}
	.st175{fill:#EE89A7;}
	.st176{fill:#E54D73;}
	.st177{fill:#E44771;}
	.st178{fill:#E7567E;}
	.st179{fill:#EC7797;}
	.st180{fill:#F8BCCF;}
	.st181{fill:#EB6D8F;}
	.st182{fill:#F089A8;}
	.st183{fill:#FCE2EB;}
	.st184{fill:#E55B7F;}
	.st185{fill:#E6708E;}
	.st186{fill:#EB87A2;}
	.st187{fill:#E25677;}
	.st188{fill:#E7678B;}
	.st189{fill:#FBD7E3;}
	.st190{fill:#ED80A1;}
	.st191{fill:#E24166;}
	.st192{fill:#E13B65;}
	.st193{fill:#E34870;}
	.st194{fill:#E76486;}
	.st195{fill:#F49DB8;}
	.st196{fill:#F7BFD1;}
	.st197{fill:#E65C7F;}
	.st198{fill:#F6ABC4;}
	.st199{fill:#F6A7C2;}
	.st200{fill:#EA6189;}
	.st201{fill:#DB3258;}
	.st202{fill:#DA2E55;}
	.st203{fill:#F7B2C9;}
	.st204{fill:#EA6A8D;}
	.st205{fill:#DC355B;}
	.st206{fill:#DB3159;}
	.st207{fill:#DF3C63;}
	.st208{fill:#F9C5D6;}
	.st209{fill:#EB7697;}
	.st210{fill:#DE3B61;}
	.st211{fill:#DE375F;}
	.st212{fill:#E1426A;}
	.st213{fill:#FDE7EE;}
	.st214{fill:#EE89A9;}
	.st215{fill:#E2456B;}
	.st216{fill:#E14069;}
	.st217{fill:#E44D75;}
	.st218{fill:#E86B8C;}
	.st219{fill:#EE7A9C;}
	.st220{fill:#F5A8C0;}
	.st221{fill:#FACBDA;}
	.st222{fill:#E65A7D;}
	.st223{fill:#E04169;}
	.st224{fill:#FEF5F9;}
	.st225{fill:#F191B0;}
	.st226{fill:#EA7292;}
	.st227{fill:#F6B4C9;}
	.st228{fill:#FBD8E5;}
	.st229{fill:#E96C8F;}
	.st230{fill:#E35477;}
	.st231{fill:#EA7396;}
	.st232{fill:#EB7A9D;}
	.st233{fill:#E8698D;}
	.st234{fill:#EB7094;}
	.st235{fill:#E04B6E;}
	.st236{fill:#E66085;}
	.st237{fill:#EB7294;}
	.st238{fill:#E7678C;}
	.st239{fill:#EA6D91;}
	.st240{fill:#E14C71;}
	.st241{fill:#EE7A9D;}
	.st242{fill:#F393B2;}
	.st243{fill:#DC3F64;}
	.st244{fill:#EF82A3;}
	.st245{fill:#F39DB9;}
	.st246{fill:#DF466B;}
	.st247{fill:#DF4469;}
	.st248{fill:#F29A98;}
	.st249{fill:#E64F4D;}
	.st250{fill:#E74947;}
	.st251{fill:#E85956;}
	.st252{fill:#EC7775;}
	.st253{fill:#F8BCBA;}
	.st254{fill:#EC6F6D;}
	.st255{fill:#FCE2E2;}
	.st256{fill:#F8C8C6;}
	.st257{fill:#F08B89;}
	.st258{fill:#F18A89;}
	.st259{fill:#B093A4;}
	.st260{fill:#A38295;}
	.st261{fill:#6F455A;}
	.st262{fill:#694055;}
	.st263{fill:#794F64;}
	.st264{fill:#936F83;}
	.st265{fill:#CDB7C1;}
	.st266{fill:#B596A5;}
	.st267{fill:#A58394;}
	.st268{fill:#8C667A;}
	.st269{fill:#B696A7;}
	.st270{fill:#E8E0E7;}
	.st271{fill:#E1BCC2;}
	.st272{fill:#A9666E;}
	.st273{fill:#681C23;}
	.st274{fill:#641920;}
	.st275{fill:#73242D;}
	.st276{fill:#8D3F48;}
	.st277{fill:#C69197;}
	.st278{fill:#893841;}
	.st279{fill:#E3CCCE;}
	.st280{fill:#6F292E;}
	.st281{fill:#A15A63;}
	.st282{fill:#944952;}
	.st283{fill:#944953;}
	.st284{fill:#964A53;}
	.st285{fill:#984B54;}
	.st286{fill:#974A53;}
	.st287{fill:#A25A62;}
	.st288{fill:#D2BCC8;}
	.st289{fill:#C8B2BE;}
	.st290{fill:#936A80;}
	.st291{fill:#8E667B;}
	.st292{fill:#9B7589;}
	.st293{fill:#B293A3;}
	.st294{fill:#916B7F;}
	.st295{fill:#DDCCD6;}
	.st296{fill:#AC8B9C;}
	.st297{fill:#F1EBEF;}
	.st298{fill:#9C7A8C;}
	.st299{fill:#8F6C80;}
	.st300{fill:#B99DAC;}
	.st301{fill:#A27F91;}
	.st302{fill:#C2A7B6;}
	.st303{fill:#AB8E9F;}
	.st304{fill:#936D82;}
	.st305{fill:#856174;}
	.st306{fill:#B99DAB;}
	.st307{fill:#C2A9B6;}
	.st308{fill:#A38091;}
	.st309{fill:#BBA3B0;}
	.st310{fill:#7A5468;}
	.st311{fill:#855F73;}
	.st312{fill:#AE8E9F;}
	.st313{fill:#7C556A;}
	.st314{fill:#7B5066;}
	.st315{fill:#855C71;}
	.st316{fill:#AF8E9F;}
	.st317{fill:#734B60;}
	.st318{fill:#694256;}
	.st319{fill:#916A80;}
	.st320{fill:#886378;}
	.st321{fill:#875C71;}
	.st322{fill:#714B5E;}
	.st323{fill:#582F42;}
	.st324{fill:#795066;}
	.st325{fill:#5E3A4B;}
	.st326{fill:#8A6578;}
	.st327{fill:#A98E9D;}
	.st328{fill:#B9A1B1;}
	.st329{fill:#B08F9F;}
	.st330{fill:#B898AA;}
	.st331{fill:#896578;}
	.st332{fill:#653C50;}
	.st333{fill:#623A4E;}
	.st334{fill:#6C4257;}
	.st335{fill:#B28FA1;}
	.st336{fill:#80596E;}
	.st337{fill:#7F586C;}
	.st338{fill:#765063;}
	.st339{fill:#683F53;}
	.st340{fill:#774E63;}
	.st341{fill:#704B5F;}
	.st342{fill:#674355;}
	.st343{fill:#7F5A6E;}
	.st344{fill:#815A6E;}
	.st345{fill:#6A4558;}
	.st346{fill:#5D374A;}
	.st347{fill:#926D80;}
	.st348{fill:#70475B;}
	.st349{fill:#72495E;}
	.st350{fill:#673D52;}
	.st351{fill:#673D51;}
	.st352{fill:#60364B;}
	.st353{fill:#795265;}
	.st354{fill:#683F52;}
	.st355{fill:#7A5368;}
	.st356{fill:#987387;}
	.st357{fill:#70475C;}
	.st358{fill:#A07D92;}
	.st359{fill:#81596E;}
	.st360{fill:#926C7F;}
	.st361{fill:#80596D;}
	.st362{fill:#CDC0E4;}
	.st363{fill:#A998CF;}
	.st364{fill:#644DA1;}
	.st365{fill:#5E479E;}
	.st366{fill:#6F56A9;}
	.st367{fill:#755CAC;}
	.st368{fill:#8975BA;}
	.st369{fill:#C4BAE0;}
	.st370{fill:#755DAD;}
	.st371{fill:#846DB7;}
	.st372{fill:#E7E2F2;}
	.st373{fill:#9B89C5;}
	.st374{fill:#8871B8;}
	.st375{fill:#9C89C6;}
	.st376{fill:#8673B9;}
	.st377{fill:#B9E1BA;}
	.st378{fill:#ADDBAE;}
	.st379{fill:#99D09A;}
	.st380{fill:#65B567;}
	.st381{fill:#5FB261;}
	.st382{fill:#70BB71;}
	.st383{fill:#8DCB8E;}
	.st384{fill:#CBE9CB;}
	.st385{fill:#86C687;}
	.st386{fill:#98D099;}
	.st387{fill:#EBF5EB;}
	.st388{fill:#B9D6C9;}
	.st389{fill:#8EBD9E;}
	.st390{fill:#7DB18E;}
	.st391{fill:#408251;}
	.st392{fill:#3A7F4C;}
	.st393{fill:#4A8C5B;}
	.st394{fill:#68A279;}
	.st395{fill:#B5D4BE;}
	.st396{fill:#7CB38B;}
	.st397{fill:#619D71;}
	.st398{fill:#E0ECE4;}
	.st399{fill:#74A38C;}
	.st400{fill:#679880;}
	.st401{fill:#669780;}
	.st402{fill:#669881;}
	.st403{fill:#285E41;}
	.st404{fill:#235A3C;}
	.st405{fill:#31684A;}
	.st406{fill:#4D8268;}
	.st407{fill:#A1C2B0;}
	.st408{fill:#679981;}
	.st409{fill:#467B62;}
	.st410{fill:#D6E5DF;}
	.st411{fill:#8ECA8F;}
	.st412{fill:#7DC07F;}
	.st413{fill:#409841;}
	.st414{fill:#3A933C;}
	.st415{fill:#4AA14B;}
	.st416{fill:#68B569;}
	.st417{fill:#7CC07D;}
	.st418{fill:#B5DDB5;}
	.st419{fill:#61B062;}
	.st420{fill:#7CC17E;}
	.st421{fill:#E0EFE0;}
	.st422{fill:#EBF5DE;}
	.st423{fill:#D4EAB8;}
	.st424{fill:#D2E9B4;}
	.st425{fill:#D8ECBE;}
	.st426{fill:#E2F0CE;}
	.st427{fill:#F3F9EA;}
	.st428{fill:#DFF0CA;}
	.st429{fill:#FAFDF7;}
	.st430{fill:#D3C9BE;}
	.st431{fill:#CBBEB3;}
	.st432{fill:#BBAC9F;}
	.st433{fill:#97826F;}
	.st434{fill:#947E69;}
	.st435{fill:#9F8A79;}
	.st436{fill:#B5A495;}
	.st437{fill:#DED6CE;}
	.st438{fill:#BBAD9F;}
	.st439{fill:#AE9E8D;}
	.st440{fill:#F2EFEC;}
	.st441{fill:#B1A091;}
	.st442{fill:#B1A090;}
	.st443{fill:#D8BACF;}
	.st444{fill:#976286;}
	.st445{fill:#905778;}
	.st446{fill:#4F1939;}
	.st447{fill:#4C1637;}
	.st448{fill:#5A2144;}
	.st449{fill:#773B60;}
	.st450{fill:#B88FAD;}
	.st451{fill:#6E345A;}
	.st452{fill:#8E567D;}
	.st453{fill:#E1CCDA;}
	.st454{fill:#C4E2A7;}
	.st455{fill:#93C35F;}
	.st456{fill:#8EC15A;}
	.st457{fill:#9AC868;}
	.st458{fill:#B0D587;}
	.st459{fill:#DCEBC3;}
	.st460{fill:#C8E0AA;}
	.st461{fill:#ABD280;}
	.st462{fill:#CAE2A9;}
	.st463{fill:#EFF8E7;}
	.st464{fill:#FFF6C0;}
	.st465{fill:#FFEC97;}
	.st466{fill:#FFDC4B;}
	.st467{fill:#FFD945;}
	.st468{fill:#FFDD54;}
	.st469{fill:#FFE774;}
	.st470{fill:#FFF4BA;}
	.st471{fill:#FFE46C;}
	.st472{fill:#FFF9E2;}
	.st473{fill:#FDE2C1;}
	.st474{fill:#F9CA98;}
	.st475{fill:#F9C18A;}
	.st476{fill:#F5994E;}
	.st477{fill:#F49448;}
	.st478{fill:#F8A158;}
	.st479{fill:#F8B577;}
	.st480{fill:#FCDDBC;}
	.st481{fill:#F8B06F;}
	.st482{fill:#FFEFE2;}
	.st483{fill:#F8A7A4;}
	.st484{fill:#EF8262;}
	.st485{fill:#EC605A;}
	.st486{fill:#EB5B55;}
	.st487{fill:#EC6964;}
	.st488{fill:#F28783;}
	.st489{fill:#F9C4C1;}
	.st490{fill:#F2817A;}
	.st491{fill:#EB6449;}
	.st492{fill:#FCE7E7;}
	.st493{fill:#FFEA88;}
	.st494{fill:#FFEB87;}
	.st495{fill:#FDF2E3;}
	.st496{fill:#FDEFDD;}
	.st497{fill:#F9E1C4;}
	.st498{fill:#FADEB9;}
	.st499{fill:#FADDB7;}
	.st500{fill:#FAE0BF;}
	.st501{fill:#FBE9CF;}
	.st502{fill:#F9DAB8;}
	.st503{fill:#FDF5EB;}
	.st504{fill:#FBE6CB;}
	.st505{fill:#FFFBF7;}
	.st506{fill:#FBDFBE;}
	.st507{fill:#F7D8B5;}
	.st508{fill:#FBE8CF;}
	.st509{fill:#FBE3C8;}
	.st510{fill:#F9E8CF;}
	.st511{fill:#F8DBB7;}
	.st512{fill:#FADBB5;}
	.st513{fill:#F7D5AE;}
	.st514{fill:#FDE9D5;}
	.st515{fill:#FAE3C8;}
	.st516{fill:#F7D1A4;}
	.st517{fill:#F5CD9D;}
	.st518{fill:#F7D8B0;}
	.st519{fill:#F8D4A9;}
	.st520{fill:#F8D3A6;}
	.st521{fill:#F8D8AF;}
	.st522{fill:#F7CD9E;}
	.st523{fill:#F4C896;}
	.st524{fill:#FBE3C5;}
	.st525{fill:#F7DBB8;}
	.st526{fill:#F7D8B1;}
	.st527{fill:#F7D7B0;}
	.st528{fill:#F8CD9F;}
	.st529{fill:#F8CD9E;}
	.st530{fill:#F1BE84;}
	.st531{fill:#F8D0A3;}
	.st532{fill:#F1C38D;}
	.st533{fill:#F8D8B1;}
	.st534{fill:#FBE2C8;}
	.st535{fill:#F9EAD3;}
	.st536{fill:#F9D3AA;}
	.st537{fill:#F7C896;}
	.st538{fill:#F7C794;}
	.st539{fill:#F7CA9A;}
	.st540{fill:#F7D3AB;}
	.st541{fill:#F8D8B5;}
	.st542{fill:#F9E6CF;}
	.st543{fill:#F7C897;}
	.st544{fill:#F8D3AA;}
	.st545{fill:#F7CEA2;}
	.st546{fill:#F4CD9E;}
	.st547{fill:#F5D2A5;}
	.st548{fill:#FBE2C2;}
	.st549{fill:#F5D1A8;}
	.st550{fill:#F8D5AB;}
	.st551{fill:#F2C695;}
	.st552{fill:#F8D3A8;}
	.st553{fill:#F5C998;}
	.st554{fill:#F5C894;}
	.st555{fill:#F2C997;}
	.st556{fill:#F2C48D;}
	.st557{fill:#F4C694;}
	.st558{fill:#F5CE9D;}
	.st559{fill:#F4C594;}
	.st560{fill:#F5C995;}
	.st561{fill:#F4C48F;}
	.st562{fill:#F7D2A6;}
	.st563{fill:#F8DFBB;}
	.st564{fill:#FBE2C3;}
	.st565{fill:#F8CC9E;}
	.st566{fill:#FADFC1;}
	.st567{fill:#F9D8B5;}
	.st568{fill:#F4C997;}
	.st569{fill:#F9DDB8;}
	.st570{fill:#FDFCED;}
	.st571{fill:#FBF7D2;}
	.st572{fill:#F9F6CB;}
	.st573{fill:#F4EBA8;}
	.st574{fill:#F5E9A6;}
	.st575{fill:#F5EDAC;}
	.st576{fill:#F7F5C0;}
	.st577{fill:#FBFBE1;}
	.st578{fill:#F7F0BE;}
	.st579{fill:#FAF6CE;}
	.st580{fill:#FFFBF5;}
	.st581{fill:#BDDB97;}
	.st582{fill:#BBDC99;}
	.st583{fill:#BDDD99;}
	.st584{fill:#B0D484;}
	.st585{fill:#AFD484;}
	.st586{fill:#FFEA87;}
	.st587{fill:#D3E9BA;}
	.st588{fill:#E1EECE;}
	.st589{fill:#D3E8BB;}
	.st590{fill:#E3EECE;}
	.st591{opacity:0.9;}
	.st592{fill:#FFF8CD;}
	.st593{opacity:0.9;fill:#FFEE8A;}
	.st594{fill:#FFF19E;}
	.st595{fill:#FFF5B6;}
	.st596{fill:#FFFBE0;}
	.st597{fill:none;stroke:#FFF4B1;stroke-width:0;}
	.st598{fill:#FFFDF3;}
	.st599{fill:#FACEDD;}
	.st600{opacity:0.9;fill:#F38CAF;}
	.st601{fill:#F5A0BD;}
	.st602{fill:#F8B8CD;}
	.st603{fill:#FCE1EA;}
	.st604{fill:none;stroke:#F7B2C9;stroke-width:0;}
	.st605{fill:#FEF3F7;}
	.st606{fill:#FBDBB6;}
	.st607{fill:#FBD1A3;}
	.st608{fill:#F9B674;}
	.st609{fill:#F8B36E;}
	.st610{fill:#FABB7E;}
	.st611{fill:#FACB99;}
	.st612{fill:#FDE9D1;}
	.st613{fill:#FAC893;}
	.st614{fill:#F9D0A1;}
	.st615{fill:#FFF5EC;}
	.st616{fill:#D7ECC0;}
	.st617{fill:#B1D684;}
	.st618{fill:#ADD680;}
	.st619{fill:#B7D98D;}
	.st620{fill:#C8E2A7;}
	.st621{fill:#E8F2D6;}
	.st622{fill:#C3E0A0;}
	.st623{fill:#F5FAEF;}
	.st624{fill:#A87699;}
	.st625{fill:#A9716E;}
	.st626{fill:#9F698A;}
	.st627{fill:#9F698D;}
	.st628{fill:#65294F;}
	.st629{fill:#632638;}
	.st630{fill:#62244A;}
	.st631{fill:#612335;}
	.st632{fill:#6E3259;}
	.st633{fill:#6D2F40;}
	.st634{fill:#8B4E74;}
	.st635{fill:#C4A1BB;}
	.st636{fill:#9D688D;}
	.st637{fill:#82476E;}
	.st638{fill:#E7D6E1;}
	.st639{fill:#FFF9D6;}
	.st640{fill:#FFF2A6;}
	.st641{fill:#FFF4B0;}
	.st642{fill:#FFF7C4;}
	.st643{fill:#FFFCE6;}
	.st644{fill:#FFF3B5;}
	.st645{fill:#FFED8B;}
	.st646{fill:#FFED94;}
	.st647{fill:#FFF1A4;}
	.st648{fill:#FFF5BF;}
	.st649{fill:#FFF6CD;}
	.st650{fill:#FFE46E;}
	.st651{fill:#FFED98;}
	.st652{fill:#FFF3A9;}
	.st653{fill:#FFEC8D;}
	.st654{fill:#FFE66B;}
	.st655{fill:#FFEC8A;}
	.st656{fill:#FFE66D;}
	.st657{fill:#FFE571;}
	.st658{fill:#FFEF94;}
	.st659{fill:#FFEF9E;}
	.st660{fill:#FFED93;}
	.st661{fill:#FFE873;}
	.st662{fill:#FFE97A;}
	.st663{fill:#FFEC87;}
	.st664{fill:#FFF19F;}
	.st665{fill:#FFF1A8;}
	.st666{fill:#FFEA7E;}
	.st667{fill:#FFEB86;}
	.st668{fill:#FFEF97;}
	.st669{fill:#FFF2B0;}
	.st670{fill:#FFF4BC;}
	.st671{fill:#FFF5C1;}
	.st672{fill:#FFF8CF;}
	.st673{fill:#FFF8DC;}
	.st674{fill:#FFF0A0;}
	.st675{fill:#FFEE92;}
	.st676{fill:#FFF6CE;}
	.st677{fill:#FFFADD;}
	.st678{fill:#FFFBEC;}
	.st679{fill:#FFFDF5;}
	.st680{fill:#F49C52;}
	.st681{fill:#F69D52;}
	.st682{fill:#F8A55E;}
	.st683{fill:#F8B472;}
	.st684{fill:#F59D54;}
	.st685{fill:#F8A65F;}
	.st686{fill:#F8B474;}
	.st687{fill:#FDF3E9;}
	.st688{fill:#FAE8D1;}
	.st689{fill:#FAE8CF;}
	.st690{fill:#FAEBD4;}
	.st691{fill:#F9EDD7;}
	.st692{fill:#FBEFDE;}
	.st693{fill:#FBEFDD;}
	.st694{fill:#FDF8F1;}
	.st695{fill:#FBEDD7;}
	.st696{fill:#FBEFDC;}
	.st697{fill:#FFFBFA;}
	.st698{fill:#FFE771;}
	.st699{fill:#FFEB83;}
	.st700{fill:#FFED90;}
	.st701{fill:#F7B6CB;}
	.st702{fill:#F4A2BB;}
	.st703{fill:#EE7397;}
	.st704{fill:#ED6D94;}
	.st705{fill:#EF7C9F;}
	.st706{fill:#F399B5;}
	.st707{fill:#FAD1DE;}
	.st708{fill:#F291AE;}
	.st709{fill:#F3A1BB;}
	.st710{fill:#FDECF2;}
</style>
<g>
	<path class="st454" d="M88.41,28.9c-0.84,0.05-1.53,0.18-2.25,0.33c-0.66,0.17-1.34,0.36-1.91,0.59c-1.2,0.46-2.22,1.04-3.11,1.64
		c-1.92,1.22-4.3,2.56-7.27,4.05c-2.87,0.98-5.76,2.64-7.54,4.19c-1.85,1.55-2.97,2.98-3.79,4.17c-1.59,2.39-2,3.9-2.2,4.88
		c-0.07,0.4-0.09,0.71-0.09,0.96c0,0.71,0.2,0.9,0.2,1.01l0,0c0,0.04-0.03,0.07-0.11,0.12c-0.95,1.52-3.71,0.7-5.38,2.8
		c-0.9,1.43-1.31,3.16-1.31,4.84c0,0.08,0,0.16,0,0.25c0.04,1.76,0.52,3.42,1.17,4.69c0.86,1.88,1.92,3.69,3.11,5.3
		c1.19,1.72,2.54,3.12,3.84,4.32c1.31,1.21,2.56,2.25,3.76,3.31c0.1,0.09,0.21,0.19,0.31,0.28c-0.02-0.16-0.04-0.33-0.04-0.5l0,0
		c0-0.04,0-0.07,0-0.11c0.02-1.17,0.5-2.35,0.68-3.25c0.02-0.18,0.03-0.36,0.03-0.53c0-0.51-0.08-0.98-0.19-1.44
		c-0.5-0.1-1-0.2-1.49-0.3c-0.61-0.14-1.2-0.28-1.79-0.4l-0.22-0.04l-0.11-0.02l0,0l0.06,0.01l0.13,0.02
		c0.1,0.01,0.2,0.03,0.29,0.04c0.04,0.01,0.09,0.01,0.13,0.01c0.16,0,0.31-0.05,0.45-0.05c0.83-0.03,1.54-0.24,2.16-0.62
		c-0.16-0.57-0.28-1.15-0.28-1.76l0,0c0-0.18,0.01-0.35,0.03-0.53c0.38-0.82,1.07-1.4,2.07-1.94c0.83-0.36,1.01-0.83,1.05-1.46
		c0-0.03,0-0.06,0-0.09c0-0.52-0.1-1.15-0.1-1.78l0,0c0-0.1,0-0.21,0.01-0.31c-0.01-0.07-0.01-0.14-0.01-0.2l0,0
		c0-0.93,0.69-1.63,1.49-2.19c0.85-0.61,1.82-1.09,2.34-1.88c0.75-0.97,0.88-2.3,1.31-3.48c0.35-1,0.96-1.86,1.89-1.86
		c0.15,0,0.3,0.02,0.46,0.07c-0.22-0.07-0.32-0.17-0.32-0.28l0,0c0-0.14,0.17-0.3,0.49-0.47c0.55-0.29,1.54-0.52,2.6-0.58
		c0.28-0.02,0.56-0.02,0.84-0.02c1.47,0,2.83,0.21,2.83,0.46l0,0c0,0.06-0.07,0.12-0.22,0.18c0.27,0.05,0.87,1.02,1.01,1.74l0,0l0,0
		l0,0l0,0c0,0.03,0,0.06,0,0.09c0,0.32,0.05,0.71,0.05,1.02l0,0c0,0.21-0.02,0.38-0.09,0.47c-1.18,1.48-1.26,3.68-1.34,5.79
		c0.52-0.09,1.02-0.18,1.51-0.27c0.45-0.08,0.91-0.18,1.37-0.29h0l0.08-0.02c0.02,0,0.04-0.01,0.07-0.01
		c0.03-0.01,0.05-0.01,0.08-0.02c0.05-0.01,0.11-0.02,0.16-0.03c0.13-0.03,0.25-0.05,0.38-0.08c0.14-0.03,0.28-0.07,0.42-0.1
		c0.17-0.04,0.33-0.09,0.5-0.13c0.25-0.07,0.57-0.15,0.94-0.25c0.15-0.05,0.3-0.09,0.45-0.14c0.11-0.04,0.21-0.07,0.31-0.11
		c0.04-0.01,0.07-0.02,0.11-0.03c0.09-0.03,0.17-0.06,0.24-0.08c0.11-0.04,0.21-0.07,0.29-0.1c0.03-0.01,0.06-0.02,0.09-0.03
		l0.62-0.24c0.01,0,0.02-0.01,0.03-0.01c0.08-0.03,0.16-0.06,0.23-0.1c0.06-0.03,0.13-0.06,0.19-0.09c0.01-0.01,0.03-0.02,0.06-0.03
		c0.01-0.01,0.03-0.01,0.04-0.02c0,0,0,0,0,0c0,0,0,0,0,0c0.04-0.02,0.08-0.04,0.11-0.05c0.03-0.01,0.06-0.03,0.09-0.04
		c0.03-0.01,0.06-0.03,0.08-0.04c0,0,0.01,0,0.01-0.01c0.04-0.02,0.08-0.04,0.12-0.06l0.15-0.08l0.21-0.12
		c0.05-0.03,0.1-0.06,0.15-0.09l0.22-0.14l0.08-0.05l0.06-0.04c0.01-0.01,0.02-0.01,0.03-0.02c0,0,0.01,0,0.01-0.01l0,0l0,0l0,0
		c0,0,0,0,0,0l0,0l0,0l0,0l0,0c0,0,0,0,0,0l0,0l0,0l0,0l0,0c0.03-0.02,0.06-0.04,0.06-0.04l0,0l0,0l0,0l0,0l0,0l0,0l0,0l0,0l0,0l0,0
		c0,0-0.02,0.01-0.06,0.04l0,0l-0.01,0.01l-0.01,0l-0.02,0.01l0,0l-0.01,0.01l-0.02,0.01l-0.02,0.02c-0.01,0-0.01,0.01-0.02,0.01
		c-0.02,0.01-0.03,0.03-0.05,0.04c-0.01,0-0.01,0.01-0.02,0.01l0,0l-0.13,0.14c0,0.01-0.01,0.02-0.03,0.04l-0.15,0.19
		c-0.05,0.07-0.11,0.16-0.18,0.26c-0.01,0.02-0.03,0.04-0.04,0.07c-0.11,0.17-0.24,0.37-0.38,0.62l-0.19,0.36
		c-0.06,0.12-0.14,0.27-0.23,0.44c-0.01,0.02-0.02,0.04-0.03,0.06c-0.06,0.14-0.12,0.28-0.18,0.42c-0.03,0.08-0.07,0.17-0.12,0.27
		c-0.06,0.14-0.12,0.27-0.17,0.4c-0.09,0.22-0.17,0.45-0.26,0.71c-0.06,0.17-0.11,0.34-0.18,0.53c-0.03,0.08-0.05,0.16-0.08,0.24
		c-0.1,0.32-0.2,0.66-0.3,1.02c0.22,0.41,0.43,0.8,0.62,1.17c0.73,1.4,1.17,2.5,1.17,3.06l0,0c0,0.11-0.02,0.2-0.05,0.27
		c-0.58,0.78-1.89,1.62-3.04,1.77c-0.02,0.16-0.04,0.32-0.07,0.51c-0.01,0.08-0.02,0.17-0.04,0.25l-0.15,1.08
		c-0.01,0.08-0.02,0.16-0.03,0.24l0,0l0,0l0,0l0-0.01c-0.02,0.18-0.04,0.35-0.06,0.53c2.23-1.15,4.61-2.36,6.77-2.36
		c1.02,0,2,0.27,2.89,0.95c0,0,0.38,0.29,1.04,0.84c0.67,0.56,1.58,1.37,2.68,2.49c1.07,1.11,2.31,2.51,3.5,4.28
		c0.62,0.88,1.15,1.86,1.72,2.94c0.52,1.09,1.03,2.27,1.43,3.58c0.59,1.91,0.96,4.08,0.96,6.49l0,0c0,0.89-0.05,1.81-0.16,2.75
		c-0.43,3.51-1.82,7.34-4.2,10.89c-2.43,3.57-5.71,6.55-9.11,8.67c-3.41,2.13-6.9,3.45-10.15,4.09c0,0-0.7,0.1-1.98,0.74
		c-1.3,0.64-3.09,1.8-5.53,3.86c0,0-0.83,0.29-2.2,0.61c-1.37,0.29-3.28,0.62-5.41,0.64c-0.14,0-0.28,0-0.42,0
		c-2.01,0-4.19-0.26-6.18-0.94c-2.13-0.72-4.01-1.88-5.2-3.59c0,0-0.24-0.18-0.67-0.49c-0.43-0.31-1.05-0.76-1.81-1.35
		c-1.5-1.14-3.59-2.75-5.69-4.55c-2.11-1.76-4.22-3.79-6.19-5.54c-0.97-0.9-1.91-1.74-2.81-2.45c-0.88-0.75-1.74-1.34-2.55-1.79
		c0,0-0.12-0.46-0.35-1.16c-0.22-0.71-0.59-1.61-1-2.63c-0.54-1.24-1.19-2.55-2.08-3.56c-0.19-0.14-0.37-0.28-0.54-0.4
		c-0.84-0.67-1.32-1.05-1.32-1.05l0,0l0,0l0,0l0,0c0.72,0.33,1.33,0.84,1.86,1.45c0.67,0.49,1.5,1.08,2.47,1.71
		c-0.9-0.71-1.74-1.47-2.53-2.24c-1.63-1.63-3.02-3.34-4.09-4.97c-1.68-2.58-2.54-4.9-2.54-6.29l0,0c0-0.37,0.06-0.68,0.19-0.9
		c0,0-0.06-0.24-0.16-0.65c-0.11-0.42-0.24-1.02-0.37-1.77c-0.29-1.49-0.5-3.55-0.53-5.75c0-0.02,0-0.03,0-0.05l0,0
		c0-2.18,0.27-4.5,0.76-6.49c0.39-1.51,0.91-2.84,1.48-3.82c-0.49,0.62-1,1.25-1.51,1.89c-2.93,3.55-5.75,6.96-8.34,10.11
		c-2.14,2.4-4.86,5.07-6.57,8.26c-0.94,1.73-1.55,3.66-1.55,5.7c0,1.69,0.43,3.47,1.44,5.28c2.81,4.56,6.67,7.96,10.5,11.06
		c1.92,1.53,3.82,3,5.69,4.57c-1.34-1.21-2.62-2.34-3.83-3.35c-0.28-0.24-0.55-0.48-0.82-0.71c-1.79-1.55-3.34-2.83-4.47-3.8l0,0
		c-1.32-1.08-2.11-1.7-2.11-1.7s0.79,0.62,2.11,1.7l0,0l0,0l0,0l0,0c-1.32-1.08-2.11-1.7-2.11-1.7s0.79,0.62,2.11,1.7l0,0l0,0l0,0
		l0,0c-1.32-1.08-2.11-1.7-2.11-1.7s0.79,0.62,2.11,1.7l0,0c1.13,0.96,2.69,2.25,4.47,3.8c0.27,0.23,0.54,0.47,0.82,0.71
		c1.2,1.01,2.48,2.14,3.83,3.35c1.69,1.42,3.35,2.91,4.98,4.61c0.8,0.76,1.62,1.55,2.42,2.4c0.02,0.02,0.04,0.04,0.06,0.06
		c1.12,1.1,2.23,2.3,3.37,3.55c0.86,0.78,1.74,1.52,2.65,2.25c2.75,2.15,5.96,4.13,9.56,5.64c0.13,0.1,0.33,0.22,0.57,0.36
		c0.94,0.37,1.72,0.59,2.22,0.65c1.25,0.71,2.49,1.35,3.75,1.98c3.63,0.47,7.38,1.15,10.95,1.31c3.56,0,7.14-0.54,9.52-1.6
		c0.81-0.42,1.56-0.94,2.24-1.57c0.04-0.05,0.08-0.11,0.12-0.16c0,0,0.02-0.01,0.07-0.02c0.04-0.04,0.08-0.08,0.11-0.11
		c1.79-0.47,3.48-0.83,5.11-1.17c2.18-0.54,4.6-1.21,5.83-1.3c0.35-0.09,0.69-0.19,1.04-0.29c3.76-1.11,7.58-2.71,11.51-6.66
		c1.89-1.99,3.69-4.17,5.3-6.5c0.31-0.53,0.61-1.09,0.89-1.66c-0.28,0.57-0.58,1.12-0.89,1.66l0,0c0.31-0.53,0.61-1.09,0.89-1.66
		c-0.28,0.57-0.58,1.12-0.89,1.66l0,0c0.31-0.53,0.61-1.09,0.89-1.66c-0.28,0.57-0.58,1.12-0.89,1.66c0.46-0.66,0.9-1.34,1.33-2.02
		c0.91-1.54,1.78-3.08,2.53-4.63c0.71-1.58,1.43-3.14,1.98-4.69c2.3-6.27,3.09-12.06,3.94-17.1c0.35-2.68,0.69-5.23,1.02-7.77
		c0.08-0.58,0.17-1.16,0.27-1.74c0.08-0.55,0.17-1.1,0.27-1.66c0.22-1.13,0.41-2.15,0.68-3.23c0.07-0.39,0.41-0.96,0.93-1.68
		c0.52-0.72,1.18-1.54,1.88-2.35c0.7-0.83,1.44-1.64,2.09-2.33c0.65-0.7,1.23-1.3,1.6-1.66c0.68-0.69,1.08-1.42,1.24-2.27
		c0.06-0.32,0.09-0.66,0.09-1.03c0-0.64-0.09-1.35-0.25-2.16c-0.51-2.5-1.86-5.79-3.65-8.7c-1.57-2.21-3.35-4.64-5.52-7.04
		c-1.08-1.19-2.27-2.38-3.54-3.5c-1.27-1.11-2.61-2.1-3.98-3c-2.78-1.82-5.71-3.09-8.51-3.91c-2.79-0.8-5.37-1.1-7.73-1.2
		c-1.61-0.25-2.98-0.75-4.31-1.2c-0.67-0.23-1.35-0.46-2-0.62C89.75,29.04,89.08,28.92,88.41,28.9"/>
	<path class="st454" d="M53.15,45.5c-0.01,0-0.02,0-0.03,0c-0.54,0.01-1.1,0.04-1.67,0.08c-0.56,0.03-1.02,0.15-1.77,0.15
		c-0.04,0-0.08,0-0.12,0c-1.52,0.04-3.01,0.25-4.52,0.56c-2.79,0.64-4.91,2.1-6.59,3.93c-1.69,1.84-2.94,4.03-4.15,6.38
		c-1.12,2.27-2.66,4.49-4.41,6.75c0.22-0.18,0.59-0.49,1.04-0.88c0.69-0.61,1.65-1.42,2.63-2.33c0.21-1.15,0.48-2.29,0.81-3.41
		c1.2-2.35,2.44-4.54,4.12-6.38c1.67-1.83,3.78-3.29,6.57-3.93c1.51-0.31,3-0.53,4.52-0.56l0.56-0.01l0.43-0.06
		c0.28-0.04,0.57-0.07,0.86-0.1c0.57-0.05,1.13-0.08,1.67-0.09c0.04,0,0.07,0,0.11,0c2.16,0,4.15,0.38,5.96,1.09
		c0.3,0.13,0.41,0.35,0.42,0.6l0,0c0,0.01,0,0.02,0,0.03c0.01-0.04,0.01-0.08,0.01-0.12c0-0.25-0.11-0.47-0.41-0.6
		C57.36,45.88,55.34,45.5,53.15,45.5"/>
	<polyline class="st454" points="91.53,57.47 91.53,57.47 91.53,57.47 91.53,57.47 91.53,57.47 	"/>
	<polyline class="st454" points="91.52,57.47 91.52,57.47 91.52,57.47 91.52,57.47 91.52,57.47 	"/>
	<polyline class="st454" points="91.47,57.52 91.46,57.52 91.45,57.53 91.44,57.54 91.43,57.54 91.46,57.52 91.47,57.52 	"/>
	<polyline class="st454" points="91.44,57.54 91.44,57.54 91.43,57.54 91.43,57.54 91.44,57.54 	"/>
	<path class="st454" d="M91.44,57.54l-0.01,0.01l-0.01,0.01c-0.01,0.01-0.02,0.01-0.03,0.02c0.01-0.01,0.02-0.01,0.03-0.02
		L91.44,57.54C91.43,57.54,91.44,57.54,91.44,57.54"/>
	<path class="st454" d="M91.43,57.55C91.43,57.55,91.43,57.55,91.43,57.55c-0.01,0-0.01,0.01-0.02,0.01
		C91.42,57.56,91.42,57.55,91.43,57.55"/>
	<path class="st454" d="M91.43,57.55C91.42,57.55,91.42,57.55,91.43,57.55l-0.02,0.01l-0.02,0.01c-0.03,0.02-0.06,0.04-0.09,0.06
		c-0.04,0.02-0.08,0.05-0.13,0.08c-0.04,0.02-0.07,0.05-0.11,0.07l-0.01,0l-0.01,0c-0.26,0.15-0.63,0.35-1.15,0.58
		c-0.08,0.03-0.15,0.07-0.23,0.1c-0.2,0.08-0.42,0.17-0.66,0.25l-0.03,0.01c-0.02,0.01-0.04,0.01-0.07,0.02
		c-0.09,0.03-0.18,0.06-0.27,0.1c-0.01,0-0.01,0-0.02,0.01c-0.02,0.01-0.04,0.01-0.06,0.02c-0.06,0.02-0.12,0.04-0.18,0.06
		c-0.13,0.04-0.27,0.09-0.42,0.14c-0.03,0.01-0.05,0.02-0.08,0.03c-0.13,0.04-0.25,0.08-0.37,0.11c-0.15,0.05-0.3,0.09-0.44,0.12
		c-0.16,0.04-0.33,0.09-0.49,0.13c-0.02,0-0.03,0.01-0.05,0.01c-0.15,0.04-0.3,0.08-0.45,0.12c-0.01,0-0.01,0-0.02,0
		c-0.14,0.04-0.27,0.07-0.4,0.1c-0.13,0.03-0.25,0.06-0.38,0.08c-0.08,0.02-0.16,0.03-0.24,0.05c-0.05,0.01-0.1,0.02-0.14,0.03h0
		l0.03,0l0.06-0.01l0.12-0.01l0.24,0.01c0.16,0.03,0.33,0.06,0.49,0.14c0.67,0.29,1.34,0.95,1.93,1.81
		c0.33,0.48,0.64,1.02,0.93,1.54c0.04-0.16,0.09-0.31,0.14-0.47c0.19-0.63,0.38-1.19,0.57-1.7c0.02-0.05,0.04-0.1,0.06-0.16
		c0.07-0.18,0.14-0.36,0.21-0.53c0.31-0.74,0.59-1.28,0.82-1.69c0.26-0.45,0.48-0.76,0.63-0.95l0.05-0.07
		c0.02-0.03,0.04-0.05,0.06-0.07c0,0,0.01-0.01,0.01-0.01l0,0c0,0,0,0,0,0l0,0l0,0c0.05-0.06,0.07-0.08,0.08-0.08c0,0,0,0,0,0
		c0,0-0.01,0-0.02,0.01l0,0l-0.01,0.01l-0.01,0.01l0,0l-0.01,0.01l0,0l0,0l0,0l0,0h0c-0.03,0.03-0.06,0.04-0.06,0.04l0,0l0,0l0,0
		l0,0c0,0,0.02-0.01,0.06-0.04c-0.01,0.01-0.02,0.02-0.02,0.02l0,0l0,0l0,0l0,0l0,0l0,0l0,0l0,0l0,0l0,0l0,0l0,0l0,0
		c0,0,0.01,0,0.02-0.02c0,0,0,0,0,0l0,0l0,0l0,0l0,0c0,0,0.01-0.01,0.03-0.02l0.04-0.03l0.02-0.02l0,0l0,0l-0.01,0.01
		c0.02-0.01,0.03-0.03,0.05-0.04C91.42,57.56,91.42,57.55,91.43,57.55"/>
	<path class="st587" d="M91.06,57.78L91.06,57.78L91.06,57.78l-0.01,0.01l0,0L91.06,57.78L91.06,57.78 M91.28,57.66
		C91.27,57.66,91.27,57.66,91.28,57.66c-0.01,0.01-0.02,0.02-0.02,0.02l0,0l0,0l0,0l0,0l0,0l0,0l0,0
		C91.25,57.68,91.26,57.67,91.28,57.66L91.28,57.66 M91.28,57.66L91.28,57.66L91.28,57.66L91.28,57.66L91.28,57.66 M91.3,57.65
		L91.3,57.65L91.3,57.65l-0.01,0.01l0,0l0,0L91.3,57.65L91.3,57.65 M91.39,57.57L91.39,57.57c-0.03,0.02-0.06,0.04-0.09,0.06l0,0
		l0,0C91.34,57.61,91.37,57.59,91.39,57.57L91.39,57.57"/>
	<path class="st454" d="M91.35,57.6c0,0-0.01,0.01-0.01,0.01l0,0C91.34,57.61,91.35,57.61,91.35,57.6L91.35,57.6"/>
	<polyline class="st454" points="91.34,57.61 91.34,57.62 91.3,57.64 91.31,57.64 91.34,57.61 	"/>
	<polyline class="st454" points="91.28,57.66 91.28,57.66 91.28,57.66 91.28,57.66 91.28,57.66 	"/>
	<path class="st454" d="M91.22,57.68c-0.03,0.02-0.06,0.04-0.1,0.06l-0.06,0.04c0.04-0.02,0.07-0.05,0.11-0.07
		C91.19,57.7,91.21,57.69,91.22,57.68"/>
	<path class="st454" d="M91.05,57.79l-0.07,0.04c-0.01,0.01-0.02,0.01-0.03,0.02l0.03-0.01C90.99,57.82,91.02,57.8,91.05,57.79"/>
	<path class="st454" d="M91.12,57.87l-0.13,0.16c-0.01,0.01-0.02,0.02-0.02,0.03l0.08-0.1C91.08,57.93,91.1,57.9,91.12,57.87"/>
	<path class="st454" d="M90.43,58.12c-0.01,0.01-0.02,0.01-0.03,0.02c-0.03,0.01-0.06,0.03-0.09,0.04
		c-0.03,0.02-0.07,0.03-0.09,0.04C90.29,58.18,90.36,58.15,90.43,58.12"/>
	<path class="st454" d="M90.91,58.15c-0.07,0.1-0.15,0.23-0.25,0.38c0.04-0.07,0.09-0.14,0.15-0.22c0,0,0.01-0.01,0.01-0.01
		c0.02-0.02,0.03-0.05,0.04-0.07C90.88,58.2,90.9,58.17,90.91,58.15"/>
	<path class="st454" d="M90.18,58.23c-0.01,0.01-0.02,0.01-0.03,0.02c-0.01,0.01-0.03,0.01-0.04,0.02
		C90.13,58.26,90.15,58.24,90.18,58.23"/>
	<path class="st454" d="M90.51,58.78c0,0.01-0.01,0.01-0.01,0.02c-0.13,0.23-0.27,0.49-0.41,0.78l0.17-0.33
		C90.35,59.07,90.43,58.92,90.51,58.78"/>
	<path class="st454" d="M89.94,59.88c-0.09,0.19-0.18,0.39-0.27,0.61c-0.04,0.09-0.08,0.19-0.12,0.29c0.04-0.1,0.08-0.2,0.13-0.3
		c0-0.01,0.01-0.01,0.01-0.02c0.04-0.09,0.08-0.18,0.12-0.27C89.86,60.08,89.9,59.98,89.94,59.88"/>
	<path class="st454" d="M89.24,61.64c-0.06,0.18-0.12,0.36-0.19,0.56c0-0.01,0.01-0.02,0.01-0.04c0.01-0.02,0.01-0.04,0.02-0.05
		C89.14,61.94,89.19,61.78,89.24,61.64"/>
	<path class="st454" d="M88.73,63.22c-0.01,0.04-0.02,0.08-0.04,0.13c0,0,0,0,0,0C88.71,63.3,88.72,63.26,88.73,63.22"/>
	<path class="st454" d="M88.69,63.34c-0.01,0.03-0.02,0.07-0.03,0.1C88.67,63.41,88.68,63.38,88.69,63.34
		C88.69,63.35,88.69,63.35,88.69,63.34"/>
	<path class="st454" d="M88.43,64.35c-0.01,0.05-0.03,0.1-0.04,0.16c0,0,0,0.01,0,0.01c0,0.01,0,0.01-0.01,0.02
		c-0.05,0.2-0.1,0.4-0.15,0.6c-0.01,0.04-0.02,0.09-0.03,0.13c0,0,0-0.01,0-0.01C88.29,64.93,88.36,64.63,88.43,64.35"/>
	<polyline class="st454" points="88.22,65.19 88.21,65.19 88.22,65.19 	"/>
	<path class="st454" d="M88.21,65.22c0,0.02-0.01,0.03-0.01,0.05c0,0,0,0,0,0C88.2,65.25,88.2,65.24,88.21,65.22"/>
	<path class="st454" d="M88.09,65.73c0,0,0,0.01,0,0.01l0,0.01C88.09,65.75,88.09,65.74,88.09,65.73"/>
	<path class="st454" d="M87.4,69.63C87.4,69.63,87.4,69.63,87.4,69.63l-0.09,0.63c0.01-0.04,0.01-0.08,0.02-0.12
		C87.36,69.96,87.38,69.79,87.4,69.63"/>
	<path class="st454" d="M82.12,69.95c-1.28,0.31-2.49,0.69-4.04,0.75c-0.82-0.01-1.78-0.36-2.61-0.36c-1.29,0.07-2.71,0.2-3.78,0.35
		c-0.17,0.43-0.33,0.9-0.45,1.41c0.01,0,0.02,0.01,0.03,0.01l0,0c0.16,0.05,0.32,0.1,0.48,0.15c0.57,0.18,1.13,0.37,1.67,0.58
		c0.06,0.02,0.12,0.04,0.17,0.06c0.28,0.09,0.56,0.18,0.83,0.28c0.1,0.04,0.2,0.07,0.31,0.11c0.16,0.06,0.33,0.12,0.48,0.18
		c0.74,0.29,1.42,0.58,2.03,0.86l0.08,0.04c0.09,0.04,0.18,0.08,0.26,0.12c0.12,0.04,0.26,0.07,0.41,0.12
		c0.44,0.11,0.88,0.23,1.34,0.34c0,0,0.06,0.01,0.18,0.01c0.08,0,0.17-0.01,0.29-0.02c0.3-0.04,0.77-0.05,1.34-0.19
		c1.09-0.27,2.66-0.84,4.36-1.73c-0.4-0.38-0.87-0.75-1.36-1.11c-1.13-0.65-1.7-1.29-1.99-1.84C82.16,70.02,82.14,69.98,82.12,69.95
		"/>
	<polyline class="st454" points="87.11,71.69 87.11,71.69 87.11,71.7 87.11,71.69 	"/>
	<polyline class="st454" points="72.53,72.51 72.53,72.51 72.53,72.51 	"/>
	<path class="st454" d="M72.57,72.52c0.22,0.07,0.44,0.15,0.65,0.23c0.09,0.04,0.18,0.07,0.26,0.09
		C73.17,72.74,72.87,72.63,72.57,72.52"/>
	<path class="st454" d="M73.51,72.86c0.12,0.04,0.22,0.07,0.32,0.1c-0.07-0.02-0.15-0.05-0.23-0.07
		C73.58,72.88,73.55,72.87,73.51,72.86"/>
	<path class="st454" d="M74.1,73.05l0.71,0.25c-0.02-0.01-0.04-0.01-0.06-0.02c0,0,0,0-0.01,0c-0.1-0.04-0.2-0.07-0.31-0.11
		C74.33,73.13,74.22,73.09,74.1,73.05"/>
	<path class="st454" d="M75.22,73.46c0.37,0.15,0.74,0.3,1.1,0.47c0.01,0,0.02,0.01,0.03,0.01c-0.35-0.16-0.72-0.32-1.12-0.48
		C75.23,73.46,75.22,73.46,75.22,73.46"/>
	<path class="st454" d="M76.83,74.14c0.69,0.3,1.29,0.59,1.81,0.86c-0.07-0.04-0.14-0.08-0.21-0.12c-0.18-0.09-0.36-0.18-0.55-0.28
		C77.55,74.46,77.2,74.3,76.83,74.14"/>
	<path class="st454" d="M77.56,74.46c0.11,0.05,0.21,0.1,0.31,0.15c0.11,0.05,0.21,0.1,0.32,0.15c-0.2-0.1-0.39-0.2-0.59-0.29
		C77.59,74.47,77.58,74.47,77.56,74.46"/>
	<path class="st454" d="M78.97,75.18c0.14,0.08,0.28,0.15,0.41,0.23c-0.11-0.06-0.23-0.13-0.35-0.2
		C79.01,75.2,78.99,75.19,78.97,75.18"/>
	<path class="st454" d="M79.51,75.47c0.11,0.06,0.21,0.12,0.3,0.18C79.72,75.59,79.62,75.53,79.51,75.47"/>
	<path class="st454" d="M81.2,76.04l0.08,0.14c0,0.01,0.01,0.01,0.01,0.02c-0.01-0.02-0.02-0.03-0.02-0.05L81.2,76.04"/>
	<path class="st454" d="M80.64,76.18c0.07,0.05,0.13,0.09,0.2,0.14c0.08,0.06,0.15,0.11,0.22,0.16c0,0,0,0,0-0.01
		c-0.1-0.07-0.19-0.14-0.28-0.2C80.74,76.24,80.69,76.21,80.64,76.18"/>
	<path class="st454" d="M81.58,76.88c0.03,0.04,0.05,0.09,0.08,0.13c-0.01-0.02-0.02-0.04-0.03-0.07c-0.01-0.01-0.01-0.02-0.02-0.04
		C81.6,76.9,81.59,76.89,81.58,76.88"/>
	<polyline class="st454" points="82.23,77.6 82.24,77.61 82.25,77.62 82.25,77.61 82.23,77.6 	"/>
	<path class="st454" d="M82.14,77.76c0.18,0.27,0.39,0.56,0.63,0.86c-0.02-0.09-0.05-0.17-0.09-0.26
		C82.49,78.14,82.31,77.94,82.14,77.76"/>
	<path class="st454" d="M68.3,78.85c0.33,0.3,0.67,0.6,1.01,0.91c-0.04-0.17-0.06-0.35-0.07-0.52
		C68.93,79.11,68.61,78.97,68.3,78.85"/>
	<path class="st454" d="M82.72,86.39c-1.44,2.07-3.64,4.02-6.12,5.74c-1.02,0.7-2.07,1.38-3.18,2.01c1.15-0.35,2.25-0.8,3.3-1.36
		c2.28-1.2,4.24-2.93,5.41-5.11C82.36,87.26,82.56,86.83,82.72,86.39"/>
	<path class="st454" d="M93.97,89.07c0.04,0.14,0.07,0.28,0.11,0.42c0.22,0.93,0.38,1.93,0.45,2.97c0.01,0.3,0.02,0.6,0.02,0.91l0,0
		c0,0.73-0.05,1.47-0.15,2.2c-0.06,0.45-0.14,0.89-0.23,1.34c0.4-1.33,0.61-2.76,0.61-4.21c0-0.93-0.09-1.88-0.28-2.82
		C94.5,89.89,94.32,89.58,93.97,89.07"/>
	<path class="st454" d="M82.35,108.95c-0.72,0.13-1.57,0.27-2.46,0.39c-1.8,0.27-3.83,0.47-5.61,0.63c0.56,0.06,1.18,0.1,1.84,0.1
		c1.15,0,2.44-0.12,3.85-0.43C80.72,109.47,81.52,109.25,82.35,108.95"/>
	<path class="st454" d="M33.69,115.89c0.24,0.25,0.47,0.49,0.71,0.75c1.68,1.94,3.37,3.66,5.14,5.26c-1.13-1.25-2.24-2.45-3.37-3.55
		c-0.02-0.02-0.04-0.04-0.06-0.06C35.31,117.44,34.49,116.65,33.69,115.89"/>
	<path class="st454" d="M92.24,128.16c-1.23,0.09-3.65,0.76-5.83,1.3C88.41,129.04,90.33,128.66,92.24,128.16"/>
	<path class="st581" d="M92.24,128.16c-1.23,0.09-3.65,0.76-5.83,1.3l0,0C88.58,128.92,91,128.25,92.24,128.16L92.24,128.16"/>
	<path class="st582" d="M92.24,128.16c-1.23,0.09-3.65,0.76-5.83,1.3l0,0C88.58,128.92,91,128.25,92.24,128.16L92.24,128.16"/>
	<path class="st454" d="M52.32,130.14c1.45,0.84,4.57,2.29,5.78,2.6c0.06,0.01,0.13,0.02,0.19,0.02c-1.26-0.63-2.5-1.27-3.75-1.98
		C54.04,130.74,53.26,130.52,52.32,130.14"/>
	<path class="st454" d="M81.18,130.74c-0.04,0.01-0.07,0.02-0.07,0.02c-0.04,0.05-0.08,0.11-0.12,0.16
		C81.05,130.86,81.11,130.8,81.18,130.74"/>
	<path class="st454" d="M78.75,132.49c-2.38,1.06-5.96,1.6-9.52,1.6c0.5,0.02,1,0.03,1.49,0.03c0.06,0,0.11,0,0.17,0
		C73.8,134.1,76.5,133.67,78.75,132.49"/>
	<polyline class="st454" points="91.53,57.47 91.53,57.47 91.53,57.47 91.53,57.47 91.53,57.47 	"/>
	<polyline class="st454" points="91.52,57.47 91.52,57.47 91.52,57.48 91.52,57.47 91.52,57.47 	"/>
	<path class="st454" d="M91.51,57.48C91.51,57.48,91.51,57.48,91.51,57.48C91.51,57.48,91.51,57.48,91.51,57.48 M91.52,57.48
		L91.52,57.48L91.52,57.48L91.52,57.48L91.52,57.48"/>
	<path class="st454" d="M91.51,57.48c-0.01,0.01-0.02,0.01-0.02,0.02l0,0C91.5,57.49,91.5,57.49,91.51,57.48"/>
	<polyline class="st454" points="91.5,57.49 91.49,57.5 91.49,57.5 91.5,57.49 	"/>
	<path class="st454" d="M91.35,57.6c0,0-0.01,0.01-0.01,0.01l0,0C91.34,57.61,91.35,57.61,91.35,57.6L91.35,57.6"/>
	<polyline class="st454" points="91.34,57.61 91.34,57.61 91.34,57.61 91.34,57.61 	"/>
	<path class="st454" d="M91.28,57.66C91.27,57.66,91.27,57.66,91.28,57.66c-0.02,0.01-0.02,0.02-0.02,0.02
		C91.25,57.68,91.26,57.67,91.28,57.66"/>
	<path class="st454" d="M91.29,57.65C91.29,57.65,91.29,57.65,91.29,57.65c-0.01,0-0.01,0.01-0.01,0.01h0L91.29,57.65L91.29,57.65"
		/>
	<path class="st455" d="M59.59,47.32c-0.04,0.33-0.26,0.68-0.51,0.9c-0.87,0.76-2.06,1.32-3.38,2.02c-1.31,0.69-2.74,1.51-3.82,2.61
		c-0.12,0.34-0.57,0.93-0.57,1.3c0,0.06,0.01,0.11,0.04,0.15c0.09,0.16,0.13,0.33,0.13,0.52l0,0c0,0.19-0.03,0.4-0.07,0.6
		c-1.34,2.95-2.44,5.72-3.43,9.26c-0.03,0.36-0.04,0.71-0.04,1.05c0,1.33,0.22,2.49,0.51,3.62c0.38,1.42,0.88,2.8,1.46,4.47
		c0.47,1.68,1.42,2.86,2.37,3.99c0.96,1.14,1.92,2.23,2.71,3.97c1.25,2.06,2.8,3.32,4.75,3.94c0.88,0.27,1.84,0.41,2.9,0.41
		c1.31,0,2.78-0.22,4.46-0.67c1.58-0.4,4.53-1.02,7.24-2.17c1.34-0.56,2.67-1.24,3.65-1.97c0.98-0.73,1.61-1.51,1.91-2.25
		c0.42-1.66,1.2-1.68,1.2-2.56c-0.01-0.01-0.02-0.01-0.03-0.02c-0.03,0.78-0.75,0.87-1.14,2.46c-0.28,0.74-0.91,1.52-1.88,2.25
		c-0.97,0.73-2.29,1.41-3.63,1.97c-2.7,1.15-5.64,1.77-7.21,2.18c-1.7,0.47-3.19,0.69-4.51,0.69c-1.03,0-1.97-0.14-2.82-0.4
		c-1.95-0.61-3.5-1.86-4.75-3.91c-0.79-1.73-1.74-2.82-2.71-3.95c-0.95-1.12-1.91-2.3-2.38-3.96c-0.59-1.67-1.09-3.04-1.47-4.45
		c-0.3-1.14-0.52-2.31-0.52-3.64l0,0c0-0.32,0.01-0.66,0.04-1c0.97-3.53,2.06-6.29,3.38-9.23c0.03-0.2,0.07-0.4,0.07-0.59
		s-0.03-0.37-0.13-0.53c-0.03-0.04-0.04-0.09-0.04-0.15l0,0c0-0.36,0.44-0.96,0.56-1.29c1.08-1.09,2.5-1.92,3.8-2.61
		c1.32-0.69,2.5-1.26,3.36-2.02C59.34,48.05,59.57,47.66,59.59,47.32"/>
	<path class="st455" d="M81.06,76.48C81.06,76.48,81.06,76.48,81.06,76.48c0.01,0.01,0.02,0.02,0.02,0.02c0,0,0,0,0,0
		C81.08,76.49,81.07,76.49,81.06,76.48"/>
	<path class="st456" d="M53.21,45.59c-0.04,0-0.07,0-0.11,0c-0.54,0.01-1.1,0.04-1.67,0.09c-0.29,0.02-0.57,0.05-0.86,0.1
		l-0.43,0.06l-0.56,0.01c-1.52,0.04-3,0.25-4.52,0.56c-2.79,0.64-4.9,2.1-6.57,3.93c-1.68,1.84-2.92,4.03-4.12,6.38
		c-0.33,1.13-0.6,2.27-0.81,3.41c0.1-0.1,0.21-0.19,0.31-0.29c2.24-2.08,4.74-4.36,5.49-6.79c0,0,0.25-0.21,0.67-0.56
		c0.42-0.35,1.01-0.83,1.76-1.33c1.46-1.04,3.5-2.12,5.45-2.79c1.64-0.7,3.03-1.14,3.82-1.14c0.46,0,0.72,0.14,0.72,0.46l0,0
		c0,0.28-0.21,0.71-0.67,1.3c0,0-0.37,0.77-0.75,1.75c-0.37,0.99-0.74,2.16-1,2.97c0,0-0.26,0.33-0.64,0.95
		c-0.41,0.61-0.95,1.52-1.52,2.67c-1.14,2.29-2.26,5.66-2.51,9.3c-0.06,0.7-0.08,1.4-0.08,2.1c0,2.96,0.49,5.91,1.14,8.29
		c0.72,2.76,1.59,4.8,1.59,5.67l0,0c0,0.07-0.01,0.13-0.02,0.18c0,0,0.06,0.12,0.17,0.36c0.11,0.23,0.27,0.58,0.53,0.99
		c0.25,0.41,0.55,0.93,0.94,1.49c0.41,0.54,0.86,1.18,1.44,1.81c1.13,1.29,2.66,2.64,4.54,3.86c1.89,1.21,4.15,2.21,6.61,2.86
		c1.86,0.49,3.83,0.75,5.81,0.75c2.06,0,4.12-0.28,6.08-0.87c1.1-0.64,2.16-1.31,3.18-2.01c2.48-1.72,4.68-3.67,6.12-5.74
		c0.39-1.07,0.6-2.21,0.6-3.41c0-0.92-0.12-1.87-0.38-2.84l0,0l0,0l0,0l0,0c0,0,0.01-0.09,0.01-0.25c0-0.27-0.03-0.72-0.16-1.2
		c-0.01-0.02-0.01-0.04-0.02-0.06c-0.24-0.3-0.45-0.59-0.63-0.86c-0.12-0.13-0.23-0.25-0.34-0.34c0,0-0.04-0.15-0.15-0.4
		c-0.03-0.05-0.06-0.09-0.08-0.13c0,0-0.01-0.01-0.01-0.01c-0.03-0.02-0.06-0.05-0.09-0.07c-0.01-0.01-0.03-0.02-0.04-0.03
		c-0.01-0.01-0.01-0.01-0.02-0.02c-0.01-0.01-0.03-0.02-0.04-0.03l-0.04-0.04c-0.08-0.06-0.17-0.14-0.26-0.21c0,0,0,0,0,0.01
		c0.01,0.01,0.02,0.01,0.02,0.02c0,0,0,0,0,0c0.09,0.07,0.18,0.14,0.25,0.2l0,0l0,0l0,0l0,0c-0.07-0.06-0.16-0.12-0.25-0.19
		c0,0.88-0.77,0.91-1.2,2.56c-0.3,0.73-0.93,1.52-1.91,2.25c-0.98,0.73-2.31,1.41-3.65,1.97c-2.71,1.15-5.66,1.76-7.24,2.17
		c-1.68,0.46-3.15,0.67-4.46,0.67c-1.06,0-2.02-0.14-2.9-0.41c-1.96-0.62-3.5-1.88-4.75-3.94c-0.79-1.74-1.74-2.83-2.71-3.97
		c-0.95-1.13-1.9-2.31-2.37-3.99c-0.59-1.68-1.08-3.05-1.46-4.47c-0.29-1.13-0.51-2.3-0.51-3.62l0,0c0-0.34,0.01-0.69,0.04-1.05
		c0.98-3.54,2.09-6.31,3.43-9.26c0.04-0.2,0.07-0.4,0.07-0.6c0-0.19-0.03-0.37-0.13-0.52c-0.03-0.04-0.04-0.1-0.04-0.15l0,0
		c0-0.36,0.45-0.96,0.57-1.3c1.08-1.09,2.52-1.92,3.82-2.61c1.32-0.7,2.51-1.26,3.38-2.02c0.25-0.22,0.47-0.57,0.51-0.9
		c0-0.01,0-0.02,0-0.03c0-0.25-0.12-0.47-0.42-0.6C57.36,45.98,55.37,45.59,53.21,45.59"/>
	<path class="st457" d="M51.06,47.24c-0.79,0-2.18,0.43-3.82,1.14c-1.94,0.66-3.99,1.75-5.45,2.79c-0.75,0.5-1.34,0.99-1.76,1.33
		c-0.42,0.35-0.67,0.56-0.67,0.56c-0.75,2.43-3.25,4.71-5.49,6.79c-1.1,1.03-2.19,1.95-2.95,2.62c-0.45,0.39-0.82,0.7-1.04,0.88
		c-0.16,0.13-0.25,0.2-0.25,0.2c-0.2,0.25-0.39,0.53-0.58,0.86c-0.57,0.98-1.08,2.31-1.48,3.82c-0.49,1.99-0.76,4.3-0.76,6.49
		c0,0.02,0,0.03,0,0.05c0.02,2.19,0.23,4.26,0.53,5.75c0.12,0.75,0.26,1.36,0.37,1.77c0.1,0.42,0.16,0.65,0.16,0.65l0,0l0,0l0,0l0,0
		c-0.12,0.22-0.19,0.53-0.19,0.9c0,1.39,0.86,3.71,2.54,6.29c1.07,1.63,2.46,3.34,4.09,4.97c0.8,0.77,1.63,1.53,2.53,2.24
		c0.21,0.14,0.42,0.27,0.65,0.41c3.09,1.98,7.48,4.16,12.13,5.6c2.3,0.77,4.68,1.31,6.95,1.83c2.26,0.45,4.38,0.84,6.25,1.15
		c3.73,0.66,6.51,1.27,7.48,2.61c0,0,0.23,0.11,0.67,0.27c0.44,0.15,1.1,0.39,1.94,0.54c0.41,0.08,0.87,0.15,1.36,0.2
		c1.78-0.17,3.81-0.36,5.61-0.63c0.9-0.12,1.75-0.26,2.46-0.39c2.4-0.87,5.04-2.34,7.46-4.79c1.61-1.63,3.07-3.72,4-6.18
		c0.13-0.35,0.25-0.7,0.36-1.06c0.1-0.44,0.17-0.89,0.23-1.34c0.1-0.73,0.15-1.47,0.15-2.2c0-0.31-0.01-0.61-0.02-0.91
		c-0.08-1.04-0.23-2.04-0.45-2.97c-0.03-0.14-0.07-0.28-0.11-0.42c-0.21-0.3-0.49-0.67-0.82-1.08c-0.89-1.11-2.22-2.47-3.75-3.77
		c-1.5-1.29-3.22-2.59-4.62-3.79c-0.87-0.7-1.55-1.45-2.09-2.07c0.03,0.09,0.06,0.17,0.09,0.26c0.01,0.02,0.01,0.04,0.02,0.06
		c0.14,0.48,0.16,0.93,0.16,1.2l0,0c0,0.16-0.01,0.25-0.01,0.25c0.26,0.97,0.38,1.92,0.38,2.84l0,0c0,1.2-0.21,2.34-0.6,3.41
		c-0.16,0.44-0.36,0.87-0.58,1.29c-1.18,2.18-3.13,3.91-5.41,5.11c-1.05,0.56-2.15,1.02-3.3,1.36c-1.96,0.59-4.02,0.87-6.08,0.87
		c-1.98,0-3.95-0.26-5.81-0.75c-2.46-0.64-4.73-1.65-6.61-2.86c-1.88-1.22-3.41-2.58-4.54-3.86c-0.58-0.63-1.03-1.28-1.44-1.81
		c-0.39-0.56-0.69-1.08-0.94-1.49c-0.25-0.41-0.41-0.76-0.53-0.99c-0.11-0.23-0.17-0.36-0.17-0.36l0,0l0,0l0,0l0,0
		c0.01-0.05,0.02-0.11,0.02-0.18c0-0.87-0.86-2.91-1.59-5.67c-0.65-2.39-1.14-5.33-1.14-8.29l0,0c0-0.7,0.03-1.4,0.08-2.1
		c0.25-3.64,1.37-7.01,2.51-9.3c0.57-1.15,1.11-2.06,1.52-2.67c0.39-0.62,0.64-0.95,0.64-0.95c0.26-0.81,0.64-1.98,1-2.97
		c0.38-0.98,0.75-1.75,0.75-1.75c0.46-0.59,0.67-1.01,0.67-1.3C51.78,47.39,51.52,47.24,51.06,47.24"/>
	<path class="st457" d="M81.33,76.68l0.04,0.04c0.01,0.01,0.03,0.02,0.04,0.03C81.39,76.73,81.36,76.71,81.33,76.68"/>
	<path class="st457" d="M81.47,76.8c0.03,0.02,0.06,0.05,0.09,0.07C81.53,76.85,81.5,76.82,81.47,76.8"/>
	<path class="st457" d="M82.23,77.59c0.01,0.01,0.01,0.01,0.02,0.02c0,0,0,0.01,0.01,0.01l0.03,0.04l0.02,0.03l0.01,0.01l0,0l0,0
		c0.01,0.01,0.01,0.01,0.01,0.01S82.29,77.67,82.23,77.59"/>
	<path class="st458" d="M82.19,77.55L82.19,77.55c0.01,0.02,0.02,0.03,0.04,0.04c0.06,0.07,0.1,0.13,0.1,0.13l0,0l0,0l0,0l0,0
		c0,0,0,0-0.01-0.01l0,0l0,0l-0.01-0.01l-0.02-0.03l-0.03-0.04l-0.01-0.01l-0.01-0.01L82.19,77.55L82.19,77.55L82.19,77.55
		 M81.2,76.04L81.2,76.04l0.06,0.11c0.01,0.02,0.02,0.03,0.02,0.05l0,0l0,0l0,0l0,0c0-0.01-0.01-0.01-0.01-0.02L81.2,76.04
		 M93.82,69.87c-2.16,0-4.54,1.21-6.77,2.36c-0.01,0.09-0.02,0.19-0.03,0.28c-0.03,0.27-0.05,0.51-0.06,0.65c0,0,0,0,0,0l0,0l0,0
		l0,0l0,0c-0.01,0.09-0.01,0.12-0.01,0.12c0,0,0,0,0,0l0,0c0,0,0-0.05,0.01-0.12c0,0,0-0.01,0-0.01c-0.02,0.19-0.03,0.39-0.05,0.58
		c-0.03,0.32-0.07,0.63-0.1,0.96l-0.05,0.49l0-0.01l0-0.22c-0.05-0.3-0.16-0.64-0.41-0.98c-0.21-0.31-0.49-0.63-0.83-0.95
		c-1.7,0.89-3.27,1.46-4.36,1.73c-0.58,0.14-1.04,0.15-1.34,0.19c-0.12,0.02-0.21,0.02-0.29,0.02c-0.12,0-0.18-0.01-0.18-0.01
		c-0.46-0.12-0.9-0.23-1.34-0.34c-0.15-0.04-0.28-0.08-0.41-0.12c0.19,0.09,0.39,0.19,0.59,0.29c0.5,0.24,0.94,0.48,1.32,0.7
		c0.1,0.06,0.2,0.12,0.3,0.18c0.31,0.19,0.59,0.37,0.82,0.53c0.05,0.03,0.09,0.06,0.14,0.09c0.09,0.06,0.18,0.13,0.28,0.2
		c0.09,0.07,0.19,0.15,0.26,0.21c0.03,0.02,0.06,0.05,0.08,0.07c0.01,0.01,0.01,0.01,0.02,0.02c0.01,0.01,0.03,0.02,0.04,0.03
		c0.03,0.02,0.06,0.05,0.09,0.07c0,0,0.01,0.01,0.01,0.01c0.01,0.01,0.03,0.02,0.04,0.03c0.01,0.01,0.01,0.02,0.02,0.04
		c0.01,0.02,0.02,0.05,0.03,0.07c0.11,0.25,0.15,0.4,0.15,0.4c0.1,0.1,0.22,0.21,0.34,0.34c0.16,0.18,0.34,0.38,0.54,0.6
		c0.54,0.61,1.22,1.36,2.09,2.07c1.4,1.2,3.12,2.49,4.62,3.79c1.52,1.3,2.86,2.67,3.75,3.77c0.34,0.41,0.61,0.78,0.82,1.08
		c0.35,0.5,0.53,0.82,0.53,0.82c0.19,0.94,0.28,1.88,0.28,2.82l0,0c0,1.45-0.22,2.88-0.61,4.21c-0.11,0.36-0.23,0.72-0.36,1.06
		c-0.93,2.46-2.39,4.55-4,6.18c-2.42,2.45-5.06,3.92-7.46,4.79c-0.83,0.3-1.63,0.53-2.38,0.7c-1.41,0.31-2.7,0.43-3.85,0.43
		c-0.66,0-1.28-0.04-1.84-0.1c-0.5-0.05-0.95-0.13-1.36-0.2c-0.84-0.15-1.5-0.38-1.94-0.54c-0.44-0.16-0.67-0.27-0.67-0.27
		c-0.96-1.34-3.74-1.95-7.48-2.61c-1.87-0.32-3.99-0.7-6.25-1.15c-2.27-0.52-4.65-1.06-6.95-1.83c-4.65-1.44-9.03-3.62-12.13-5.6
		c-0.22-0.14-0.44-0.28-0.65-0.41c-0.97-0.63-1.81-1.22-2.47-1.71c0.89,1.02,1.54,2.32,2.08,3.56c0.4,1.01,0.77,1.91,1,2.63
		c0.23,0.7,0.35,1.16,0.35,1.16c0.81,0.44,1.67,1.04,2.55,1.79c0.9,0.71,1.83,1.55,2.81,2.45c1.96,1.75,4.08,3.78,6.19,5.54
		c2.09,1.8,4.19,3.42,5.69,4.55c0.76,0.59,1.38,1.03,1.81,1.35c0.43,0.32,0.67,0.49,0.67,0.49c1.18,1.71,3.07,2.87,5.2,3.59
		c1.99,0.68,4.17,0.94,6.18,0.94c0.14,0,0.28,0,0.42,0c2.13-0.02,4.04-0.35,5.41-0.64c1.37-0.32,2.2-0.61,2.2-0.61
		c2.44-2.06,4.23-3.22,5.53-3.86c1.28-0.64,1.98-0.74,1.98-0.74c3.25-0.64,6.75-1.95,10.15-4.09c3.39-2.12,6.68-5.1,9.11-8.67
		c2.38-3.55,3.77-7.37,4.2-10.89c0.11-0.95,0.16-1.87,0.16-2.75c0-2.41-0.37-4.58-0.96-6.49c-0.4-1.31-0.91-2.49-1.43-3.58
		c-0.57-1.08-1.11-2.06-1.72-2.94c-1.19-1.77-2.43-3.17-3.5-4.28c-1.1-1.12-2.01-1.93-2.68-2.49c-0.66-0.56-1.04-0.84-1.04-0.84
		C95.82,70.14,94.84,69.87,93.82,69.87"/>
	<path class="st458" d="M78.43,74.89c0.07,0.04,0.14,0.08,0.21,0.12c0.06,0.03,0.12,0.07,0.18,0.1c0.05,0.02,0.1,0.05,0.15,0.07
		c0.02,0.01,0.04,0.02,0.06,0.03C78.84,75.11,78.64,75,78.43,74.89 M77.26,74.32c0.1,0.05,0.2,0.09,0.3,0.14
		c0.01,0,0.03,0.01,0.04,0.01c-0.09-0.04-0.18-0.08-0.26-0.12L77.26,74.32"/>
	<path class="st458" d="M80.27,75.95l0.17,0.11c0.01,0.01,0.02,0.01,0.04,0.02C80.41,76.04,80.34,75.99,80.27,75.95"/>
	<path class="st458" d="M32.52,94.18c0,0,0.48,0.38,1.32,1.05c0.17,0.12,0.35,0.26,0.54,0.4C33.85,95.03,33.24,94.52,32.52,94.18"/>
	<path class="st459" d="M84.89,59.87L84.89,59.87L84.89,59.87L84.89,59.87 M88.09,65.73L88.09,65.73c0,0.01,0,0.02,0,0.02l0,0l0,0
		l0,0l0-0.01C88.09,65.74,88.09,65.74,88.09,65.73L88.09,65.73L88.09,65.73L88.09,65.73 M79.78,50.68c-0.28,0-0.56,0.01-0.84,0.02
		c-1.06,0.07-2.05,0.3-2.6,0.58c-0.31,0.16-0.49,0.33-0.49,0.47c0,0.11,0.1,0.2,0.32,0.28l0,0l0,0l0,0l0,0
		c-0.16-0.05-0.31-0.07-0.46-0.07c-0.92,0-1.54,0.87-1.89,1.86c-0.43,1.17-0.55,2.51-1.31,3.48c-0.52,0.79-1.49,1.27-2.34,1.88
		c-0.79,0.56-1.49,1.26-1.49,2.19c0,0.07,0,0.13,0.01,0.2l0,0l0,0l0,0l0,0c-0.01,0.1-0.01,0.21-0.01,0.31c0,0.63,0.1,1.26,0.1,1.78
		l0,0c0,0.03,0,0.06,0,0.09c-0.03,0.63-0.22,1.1-1.05,1.46c-1.01,0.54-1.69,1.13-2.07,1.94c-0.02,0.18-0.03,0.36-0.03,0.53
		c0,0.61,0.13,1.19,0.28,1.76l0,0l0,0l0,0l0,0c-0.62,0.37-1.33,0.59-2.16,0.62c-0.14,0.01-0.29,0.05-0.45,0.05
		c-0.04,0-0.08,0-0.13-0.01c-0.09-0.01-0.19-0.03-0.29-0.04l-0.13-0.02l-0.06-0.01l0,0l0.11,0.02l0.22,0.04
		c0.59,0.12,1.19,0.25,1.79,0.4c0.49,0.1,0.99,0.2,1.49,0.3c0.11,0.46,0.2,0.92,0.19,1.44l0,0c0,0.17-0.01,0.35-0.03,0.53
		c-0.19,0.9-0.67,2.08-0.68,3.25c0,0.04,0,0.07,0,0.11c0,0.17,0.01,0.33,0.04,0.5c0.13,0.93,0.67,1.78,1.87,2.04
		c0.19,0.03,0.39,0.1,0.6,0.18c0.31,0.12,0.63,0.27,0.94,0.39c0.31,0.12,0.61,0.22,0.86,0.22c0.21,0,0.38-0.06,0.51-0.22
		c-0.53-0.52-0.72-1.44-1.14-2.2c-0.34-0.78-0.72-1.44-1.03-2.09c-0.2-0.48-0.36-0.97-0.36-1.49l0,0c0-0.2,0.02-0.41,0.08-0.63
		c0.2-1.52,1.09-2.85,1.68-3.9c0.3-0.67,0.51-1.12,0.62-1.54c0.45-0.95,0.93-1.77,1.41-2.66c0.49-0.89,0.98-1.84,1.49-2.92
		c-0.25-0.37-0.35-0.7-0.35-0.99l0,0c0-1.11,1.51-1.68,2.11-2.23c0.28-0.2,0.8-0.13,1.23-0.16c0.38-0.2,0.56-0.55,0.81-0.72
		c0.09-0.06,0.18-0.1,0.28-0.1c0.19,0,0.41,0.13,0.7,0.49c0.59,0.79,0.99,1.63,1.33,2.47c0.08,0.15,0.15,0.28,0.26,0.47l0.37,0.61
		l0.22,0.33l-0.16-0.22c-0.12-0.16-0.26-0.3-0.4-0.45c0.1,0.28,0.2,0.56,0.3,0.83c0.48,1.32,0.9,2.55,1.67,3.66
		c0.34,0.92,3.44,2.43,4.62,4.01c0.33,0.39,0.54,0.78,0.68,1.14c0.04,0.19,0.09,0.36,0.12,0.52l0,0l0,0l0,0l-0.02,0.23l0,0
		c0.04-0.33,0.09-0.66,0.13-0.98c0.01-0.05,0.02-0.1,0.02-0.15c0.01-0.06,0.02-0.12,0.02-0.18c0.01-0.04,0.01-0.08,0.02-0.12
		l0.09-0.63c0,0,0,0,0,0c0-0.03,0.01-0.05,0.01-0.08c0.02-0.18,0.04-0.35,0.07-0.53c0.03-0.24,0.07-0.47,0.11-0.72c0,0,0,0,0,0
		c0.03-0.17,0.06-0.33,0.09-0.5c0.06-0.33,0.13-0.66,0.2-0.98c0.03-0.16,0.07-0.31,0.08-0.43c0.07-0.41,0.15-0.78,0.23-1.12
		c0,0,0,0,0,0l0,0l0,0l0,0l0,0c0-0.02,0.01-0.03,0.01-0.05c0-0.01,0-0.02,0.01-0.03c0,0,0,0,0-0.01c0.01-0.04,0.02-0.07,0.03-0.11
		c0.07-0.31,0.15-0.59,0.23-0.86c0.08-0.32,0.16-0.61,0.23-0.87c0,0,0,0,0,0c-0.01,0.03-0.02,0.07-0.03,0.1l0,0l0,0l0,0l0,0
		c0.01-0.03,0.02-0.07,0.03-0.1c-0.29-0.52-0.6-1.05-0.93-1.54c-0.59-0.86-1.26-1.52-1.93-1.81c-0.16-0.09-0.33-0.11-0.49-0.14
		l-0.24-0.01l-0.12,0.01l-0.06,0.01l-0.03,0h0c-0.46,0.11-0.93,0.21-1.37,0.29c-0.5,0.09-1,0.18-1.51,0.27l0,0l0,0l0,0l0,0
		c0.09-2.11,0.16-4.31,1.34-5.79c0.07-0.09,0.09-0.26,0.09-0.47c0-0.31-0.05-0.71-0.05-1.02l0,0c0-0.03,0-0.06,0-0.09
		c-0.13-0.72-0.73-1.69-1.01-1.74l0,0l0,0l0,0l0,0c0.15-0.06,0.22-0.12,0.22-0.18C82.61,50.88,81.24,50.68,79.78,50.68"/>
	<path class="st459" d="M91.53,57.47L91.53,57.47L91.53,57.47l-0.02,0.01l0.01,0L91.53,57.47L91.53,57.47 M91.58,57.43
		c0,0-0.02,0.02-0.06,0.04l0,0C91.57,57.44,91.58,57.43,91.58,57.43"/>
	<polyline class="st459" points="91.53,57.47 91.53,57.47 91.53,57.47 91.53,57.47 91.53,57.47 91.53,57.47 	"/>
	<polyline class="st459" points="91.53,57.47 91.53,57.47 91.52,57.47 91.52,57.47 91.52,57.47 91.53,57.47 91.53,57.47 
		91.53,57.47 	"/>
	<polyline class="st459" points="91.52,57.47 91.51,57.48 91.52,57.48 91.52,57.47 91.52,57.47 	"/>
	<polyline class="st459" points="91.49,57.5 91.47,57.51 91.47,57.52 91.46,57.52 91.48,57.5 91.49,57.5 	"/>
	<path class="st459" d="M91.46,57.52l-0.03,0.02l0,0l0,0c0,0,0.01,0,0.01-0.01h0c0,0-0.01,0-0.01,0.01l0,0c0,0,0,0,0,0c0,0,0,0,0,0
		l0,0l0,0l0,0l0,0c-0.01,0-0.01,0.01-0.02,0.01c-0.02,0.01-0.04,0.03-0.05,0.04l0,0c0.01,0,0.01-0.01,0.02-0.01
		c0.02-0.01,0.03-0.03,0.05-0.04c0.01,0,0.01-0.01,0.02-0.01L91.46,57.52"/>
	<polyline class="st459" points="91.43,57.54 91.42,57.55 91.43,57.55 91.43,57.54 	"/>
	<path class="st459" d="M91.42,57.55c-0.01,0.01-0.02,0.01-0.03,0.02c0,0,0,0,0,0l0.02-0.01L91.42,57.55"/>
	<path class="st459" d="M91.41,57.56c-0.02,0.01-0.04,0.03-0.05,0.04l0,0C91.37,57.59,91.39,57.57,91.41,57.56"/>
	<path class="st459" d="M91.36,57.6l-0.1,0.11l-0.02,0.02c0,0.01-0.01,0.01-0.01,0.02L91.36,57.6 M91.37,57.59l-0.02,0.02l0.01,0
		L91.37,57.59L91.37,57.59"/>
	<path class="st459" d="M91.34,57.61L91.34,57.61L91.34,57.61 M91.34,57.61L91.34,57.61L91.34,57.61 M91.34,57.61
		C91.34,57.61,91.34,57.61,91.34,57.61L91.34,57.61C91.34,57.62,91.34,57.62,91.34,57.61L91.34,57.61 M91.35,57.61
		c0,0-0.01,0.01-0.01,0.01l-0.02,0.02l0,0c0.01-0.01,0.02-0.01,0.02-0.01c0,0,0,0,0,0l0,0c0,0-0.03,0.03-0.08,0.08L91.35,57.61"/>
	<path class="st459" d="M91.3,57.63c-0.03,0.02-0.05,0.03-0.08,0.05c-0.02,0.01-0.03,0.02-0.05,0.03
		C91.22,57.68,91.27,57.65,91.3,57.63"/>
	<polyline class="st459" points="91.31,57.64 91.3,57.64 91.3,57.65 91.31,57.64 91.31,57.64 	"/>
	<path class="st459" d="M91.3,57.64c-0.02,0.01-0.03,0.02-0.03,0.02s0,0,0,0C91.28,57.66,91.29,57.65,91.3,57.64L91.3,57.64"/>
	<polyline class="st459" points="91.28,57.66 91.28,57.66 91.28,57.66 91.28,57.66 	"/>
	<polyline class="st459" points="91.28,57.66 91.28,57.66 91.28,57.66 91.28,57.66 	"/>
	<path class="st459" d="M91.28,57.66L91.28,57.66c-0.04,0.03-0.06,0.04-0.06,0.04S91.24,57.69,91.28,57.66"/>
	<polyline class="st459" points="91.26,57.7 91.25,57.71 91.25,57.71 91.26,57.7 	"/>
	<path class="st459" d="M91.18,57.71c-0.03,0.02-0.07,0.04-0.11,0.07l0,0C91.1,57.76,91.14,57.73,91.18,57.71"/>
	<path class="st459" d="M91.24,57.72c-0.02,0.02-0.04,0.04-0.06,0.07L91.24,57.72C91.24,57.73,91.24,57.72,91.24,57.72"/>
	<path class="st459" d="M91.2,57.78c-0.01,0.01-0.02,0.02-0.03,0.03l-0.04,0.05c-0.02,0.03-0.05,0.06-0.07,0.1L91.2,57.78"/>
	<path class="st459" d="M91.05,57.79L91.05,57.79c-0.03,0.02-0.05,0.03-0.08,0.05l-0.03,0.01c-0.11,0.06-0.21,0.12-0.31,0.17
		c-0.05,0.03-0.1,0.05-0.15,0.07c-0.02,0.01-0.03,0.02-0.05,0.02c0,0-0.01,0-0.01,0c-0.07,0.03-0.14,0.06-0.22,0.1
		c-0.01,0.01-0.02,0.01-0.03,0.02c-0.02,0.01-0.05,0.02-0.07,0.04c-0.01,0-0.01,0.01-0.02,0.01c-0.02,0.01-0.03,0.01-0.03,0.01l0,0
		l0,0l0,0l0,0c0,0,0.01,0,0.03-0.01c-0.06,0.03-0.13,0.06-0.19,0.09C90.42,58.14,90.79,57.94,91.05,57.79"/>
	<path class="st459" d="M90.76,57.95l-0.15,0.08c0.01,0,0.01-0.01,0.02-0.01c0,0,0.01,0,0.01-0.01L90.76,57.95"/>
	<path class="st459" d="M91.05,57.96l-0.08,0.1c-0.02,0.03-0.04,0.05-0.05,0.08c-0.02,0.03-0.03,0.05-0.05,0.08
		C90.94,58.12,91,58.04,91.05,57.96"/>
	<path class="st459" d="M90.49,58.09c0,0-0.01,0-0.01,0.01C90.48,58.09,90.48,58.09,90.49,58.09
		C90.49,58.09,90.49,58.09,90.49,58.09"/>
	<path class="st459" d="M90.87,58.22c-0.01,0.02-0.03,0.04-0.04,0.07C90.84,58.26,90.86,58.24,90.87,58.22"/>
	<polyline class="st459" points="90.2,58.22 90.19,58.23 90.19,58.23 90.2,58.22 	"/>
	<path class="st459" d="M90.82,58.29c0,0-0.01,0.01-0.01,0.01c-0.06,0.08-0.1,0.16-0.15,0.22c-0.05,0.08-0.1,0.17-0.16,0.26
		c-0.08,0.14-0.15,0.28-0.25,0.48l0.19-0.36C90.58,58.66,90.71,58.45,90.82,58.29"/>
	<path class="st459" d="M89.89,58.36c-0.07,0.03-0.15,0.06-0.23,0.1C89.74,58.43,89.82,58.4,89.89,58.36"/>
	<path class="st459" d="M89.67,58.46c-0.01,0-0.02,0.01-0.03,0.01l-0.62,0.24C89.25,58.63,89.47,58.54,89.67,58.46"/>
	<path class="st459" d="M89.01,58.72c-0.03,0.01-0.06,0.02-0.09,0.03c0.02-0.01,0.05-0.02,0.07-0.02L89.01,58.72"/>
	<path class="st459" d="M88.92,58.75c-0.08,0.03-0.18,0.06-0.29,0.1c0.01,0,0.01,0,0.02-0.01C88.74,58.81,88.83,58.78,88.92,58.75"
		/>
	<path class="st459" d="M88.63,58.85c-0.07,0.02-0.15,0.05-0.24,0.08c0.06-0.02,0.12-0.04,0.18-0.06
		C88.59,58.87,88.61,58.86,88.63,58.85"/>
	<path class="st459" d="M88.39,58.93c-0.04,0.01-0.07,0.02-0.11,0.03c-0.1,0.03-0.21,0.07-0.31,0.11
		C88.11,59.02,88.26,58.97,88.39,58.93"/>
	<path class="st459" d="M87.96,59.07c-0.15,0.05-0.3,0.1-0.45,0.14c0.12-0.03,0.24-0.07,0.37-0.11
		C87.91,59.09,87.94,59.08,87.96,59.07"/>
	<path class="st459" d="M87.51,59.21c-0.37,0.11-0.69,0.18-0.94,0.25c0.17-0.04,0.33-0.09,0.49-0.13
		C87.21,59.3,87.36,59.26,87.51,59.21"/>
	<path class="st459" d="M90.25,59.26l-0.17,0.33c-0.02,0.04-0.04,0.08-0.06,0.12C90.12,59.53,90.19,59.39,90.25,59.26"/>
	<path class="st459" d="M86.57,59.47c-0.16,0.04-0.33,0.09-0.5,0.13c0.15-0.04,0.29-0.08,0.45-0.12
		C86.54,59.48,86.56,59.47,86.57,59.47"/>
	<path class="st459" d="M86.08,59.6c-0.14,0.04-0.28,0.07-0.42,0.1c0.13-0.03,0.27-0.06,0.4-0.1C86.07,59.6,86.07,59.6,86.08,59.6"
		/>
	<path class="st459" d="M85.66,59.7c-0.12,0.03-0.25,0.05-0.38,0.08C85.41,59.76,85.53,59.73,85.66,59.7"/>
	<path class="st459" d="M90,59.77c-0.02,0.04-0.04,0.08-0.05,0.12c-0.04,0.1-0.08,0.2-0.13,0.3C89.87,60.05,89.93,59.91,90,59.77"/>
	<path class="st459" d="M85.28,59.78c-0.06,0.01-0.11,0.02-0.16,0.03c-0.03,0.01-0.05,0.01-0.08,0.02
		C85.12,59.82,85.2,59.8,85.28,59.78"/>
	<path class="st459" d="M85.04,59.83c-0.02,0-0.04,0.01-0.07,0.01l-0.08,0.02h0C84.94,59.86,84.99,59.84,85.04,59.83"/>
	<path class="st459" d="M89.82,60.18c-0.04,0.09-0.08,0.18-0.12,0.27C89.74,60.36,89.78,60.27,89.82,60.18"/>
	<path class="st459" d="M89.7,60.46c0,0.01-0.01,0.01-0.01,0.02c-0.05,0.1-0.09,0.2-0.13,0.3c-0.01,0.03-0.02,0.06-0.03,0.09
		C89.58,60.73,89.64,60.6,89.7,60.46"/>
	<path class="st459" d="M79.21,60.84c-0.29,0.04-0.59,0.08-0.89,0.12c0.11,0.28,0.15,0.53,0.15,0.76l0,0c0,1.06-0.96,1.59-0.96,2.41
		c0,0.14,0.03,0.28,0.09,0.44c0.14,0.47,0.72,1.01,0.72,1.26l0,0c0,0.04-0.01,0.07-0.04,0.09c-0.32,0.26-0.69,0.4-1.15,0.5
		l-0.77,0.17l-0.43,0.11l-0.12,0.04l-0.06,0.02l-0.02,0l0,0l-0.6,0.07l-0.17,0.05c-0.18,0.05-0.33,0.13-0.51,0.22
		c-0.34,0.18-0.67,0.43-0.98,0.74c-0.63,0.61-1.19,1.44-1.6,2.43c-0.06,0.14-0.12,0.28-0.18,0.43c1.07-0.15,2.48-0.28,3.78-0.35
		c0.83,0,1.79,0.35,2.61,0.36c1.55-0.05,2.75-0.43,4.04-0.75c-0.2-0.37-0.38-0.74-0.5-1.12c-0.08-0.21-0.13-0.41-0.18-0.62
		c-0.03-0.1-0.06-0.21-0.07-0.31l-0.14-0.7L81,66.05l-0.24-1.06c-0.12-0.58-0.32-1.26-0.43-1.7l-0.21-0.73l-0.18-0.6
		c-0.1-0.28-0.16-0.49-0.24-0.69c-0.01-0.01-0.01-0.01-0.02-0.02C79.54,61.1,79.38,60.97,79.21,60.84"/>
	<path class="st459" d="M89.46,61.02c-0.02,0.05-0.04,0.11-0.06,0.16C89.42,61.12,89.44,61.07,89.46,61.02"/>
	<path class="st459" d="M89.26,61.57c-0.01,0.02-0.02,0.04-0.02,0.07c-0.05,0.15-0.1,0.3-0.15,0.47
		C89.15,61.91,89.21,61.74,89.26,61.57"/>
	<path class="st459" d="M89.09,62.1c-0.01,0.02-0.01,0.04-0.02,0.05c0,0.01-0.01,0.02-0.01,0.04c-0.02,0.05-0.03,0.1-0.05,0.15
		C89.03,62.26,89.06,62.18,89.09,62.1"/>
	<path class="st459" d="M88.83,62.87c-0.05,0.16-0.09,0.32-0.14,0.47c0,0,0,0,0,0c0.01-0.04,0.02-0.08,0.04-0.13
		c0-0.01,0.01-0.03,0.01-0.04C88.77,63.07,88.8,62.97,88.83,62.87"/>
	<path class="st459" d="M88.7,63.36c-0.06,0.22-0.12,0.45-0.19,0.69c-0.03,0.09-0.06,0.19-0.08,0.3c-0.07,0.28-0.15,0.58-0.23,0.9
		c0,0,0,0.01,0,0.01c-0.04,0.17-0.08,0.34-0.11,0.51c-0.05,0.28-0.11,0.58-0.17,0.89c-0.01,0.05-0.02,0.11-0.04,0.17
		c-0.03,0.15-0.07,0.3-0.1,0.46c-0.06,0.33-0.12,0.67-0.19,1.02c-0.04,0.24-0.08,0.48-0.11,0.72c0,0,0,0,0,0
		c-0.02,0.17-0.05,0.35-0.07,0.53c0,0.03-0.01,0.05-0.01,0.08c1.15-0.15,2.46-0.99,3.04-1.77c0.04-0.07,0.05-0.16,0.05-0.27
		c0-0.56-0.45-1.66-1.17-3.06C89.13,64.17,88.93,63.77,88.7,63.36"/>
	<path class="st459" d="M88.38,64.53c-0.05,0.17-0.09,0.35-0.14,0.55c0,0.02-0.01,0.03-0.01,0.05
		C88.28,64.93,88.33,64.73,88.38,64.53"/>
	<path class="st459" d="M87.29,70.39c-0.01,0.05-0.02,0.11-0.03,0.16c-0.04,0.3-0.08,0.61-0.13,0.92L87.29,70.39"/>
	<path class="st459" d="M71.24,72.1C71.24,72.1,71.24,72.1,71.24,72.1c0.06,0.02,0.12,0.04,0.19,0.06c0.36,0.11,0.73,0.23,1.1,0.35
		c0,0,0,0,0,0c0.01,0,0.02,0.01,0.04,0.01c0.3,0.1,0.61,0.21,0.91,0.33c0.01,0,0.01,0.01,0.02,0.01c0.01,0,0.01,0,0.02,0.01
		c0.03,0.01,0.06,0.02,0.1,0.03c-0.06-0.02-0.11-0.04-0.17-0.06c-0.54-0.2-1.1-0.4-1.67-0.58c-0.02-0.01-0.04-0.01-0.05-0.02
		c-0.14-0.04-0.29-0.09-0.44-0.13C71.27,72.11,71.25,72.1,71.24,72.1"/>
	<path class="st459" d="M87.01,72.51c-0.02,0.21-0.04,0.43-0.06,0.64c0,0,0,0.01,0,0.01C86.97,73.02,86.99,72.77,87.01,72.51"/>
	<path class="st459" d="M73.61,72.89c0.08,0.03,0.15,0.05,0.23,0.07c0.09,0.03,0.18,0.06,0.26,0.09c0.12,0.04,0.23,0.08,0.34,0.11
		C74.17,73.07,73.89,72.98,73.61,72.89"/>
	<path class="st459" d="M86.95,73.16c-0.01,0.08-0.01,0.12-0.01,0.12c0,0,0,0,0,0C86.94,73.28,86.95,73.25,86.95,73.16
		C86.95,73.16,86.95,73.16,86.95,73.16 M86.95,73.16L86.95,73.16L86.95,73.16L86.95,73.16L86.95,73.16"/>
	<path class="st459" d="M74.44,73.17c0.1,0.04,0.21,0.07,0.31,0.11C74.65,73.24,74.54,73.2,74.44,73.17"/>
	<path class="st459" d="M74.75,73.28C74.75,73.28,74.75,73.28,74.75,73.28c0.03,0.01,0.05,0.02,0.07,0.02
		c0.14,0.05,0.27,0.1,0.4,0.15c0.01,0,0.01,0,0.02,0.01C75.08,73.4,74.91,73.34,74.75,73.28"/>
	<path class="st459" d="M75.23,73.46c0.4,0.16,0.78,0.32,1.12,0.48c0.05,0.02,0.09,0.04,0.14,0.07c0.11,0.05,0.22,0.09,0.33,0.14
		c0.37,0.16,0.72,0.32,1.05,0.47c-0.1-0.05-0.21-0.1-0.31-0.15c-0.1-0.05-0.2-0.09-0.3-0.14C76.65,74.04,75.98,73.75,75.23,73.46"/>
	<path class="st459" d="M77.88,74.61c0.19,0.09,0.38,0.19,0.55,0.28c0.35,0.18,0.67,0.35,0.96,0.52c0.33,0.19,0.63,0.37,0.89,0.53
		c0.47,0.3,0.82,0.56,1.07,0.75c-0.08-0.06-0.16-0.13-0.25-0.2c-0.01-0.01-0.02-0.01-0.02-0.02c-0.07-0.05-0.14-0.11-0.22-0.16
		c-0.06-0.04-0.13-0.09-0.2-0.14c-0.24-0.16-0.51-0.34-0.82-0.53c-0.1-0.06-0.2-0.12-0.3-0.18c-0.39-0.22-0.83-0.46-1.32-0.7
		C78.09,74.72,77.98,74.67,77.88,74.61"/>
	<polyline class="st459" points="91.53,57.47 91.53,57.47 91.53,57.47 91.53,57.47 	"/>
	<path class="st459" d="M91.52,57.48L91.52,57.48L91.52,57.48 M91.52,57.47C91.52,57.47,91.52,57.48,91.52,57.47L91.52,57.47
		l-0.01,0.01L91.52,57.47L91.52,57.47"/>
	<path class="st459" d="M91.52,57.47C91.52,57.48,91.52,57.48,91.52,57.47C91.51,57.48,91.51,57.48,91.52,57.47
		c-0.01,0.01-0.01,0.01-0.01,0.01c0,0,0,0,0,0c-0.01,0-0.01,0.01-0.02,0.02l0,0c0,0,0,0,0.01,0C91.5,57.49,91.51,57.48,91.52,57.47
		L91.52,57.47"/>
	<path class="st459" d="M91.35,57.6L91.35,57.6l-0.01,0.01l0,0C91.34,57.61,91.35,57.61,91.35,57.6L91.35,57.6"/>
	<polyline class="st459" points="91.34,57.61 91.34,57.61 91.34,57.62 91.34,57.61 91.34,57.61 	"/>
	<path class="st459" d="M91.34,57.62c-0.02,0.01-0.03,0.02-0.04,0.03l0,0C91.31,57.64,91.32,57.63,91.34,57.62L91.34,57.62"/>
	<path class="st459" d="M91.3,57.64C91.3,57.64,91.3,57.65,91.3,57.64L91.3,57.64C91.3,57.65,91.3,57.64,91.3,57.64"/>
	<path class="st459" d="M91.29,57.65c-0.01,0.01-0.02,0.01-0.02,0.02c0,0,0,0,0,0l0,0l0,0l0,0c0,0,0,0,0,0
		C91.28,57.66,91.29,57.65,91.29,57.65L91.29,57.65"/>
	<polyline class="st459" points="91.29,57.65 91.29,57.65 91.29,57.65 91.29,57.65 	"/>
	<path class="st459" d="M91.29,57.65c0,0-0.01,0-0.01,0.01c0,0,0,0,0,0l0,0C91.28,57.66,91.29,57.65,91.29,57.65"/>
	<polyline class="st588" points="91.28,57.66 91.28,57.66 91.28,57.66 91.28,57.66 91.28,57.66 91.28,57.66 	"/>
	<path class="st459" d="M91.29,57.65c0,0-0.01,0.01-0.01,0.01h0C91.28,57.66,91.28,57.66,91.29,57.65"/>
	<polyline class="st459" points="74.89,66.85 74.8,66.86 74.81,66.86 74.81,66.86 74.84,66.86 74.89,66.85 	"/>
	<path class="st461" d="M19.6,103.42c1.13,0.96,2.68,2.25,4.47,3.8C22.29,105.67,20.73,104.39,19.6,103.42"/>
	<path class="st461" d="M24.89,107.93c1.94,1.63,4.07,3.55,6.36,5.66c-0.87-0.8-1.72-1.57-2.54-2.31
		C27.37,110.07,26.09,108.94,24.89,107.93 M24.07,107.22c0.27,0.23,0.54,0.47,0.82,0.71C24.61,107.69,24.34,107.45,24.07,107.22"/>
	<path class="st461" d="M31.35,113.67c0.1,0.09,0.2,0.18,0.29,0.27C31.54,113.85,31.44,113.76,31.35,113.67"/>
	<path class="st461" d="M36.18,118.35c1.36,1.33,2.7,2.82,4.09,4.35c-0.24-0.27-0.48-0.53-0.72-0.8
		C38.41,120.66,37.3,119.45,36.18,118.35"/>
	<path class="st461" d="M104.84,121.3c-2.13,2.02-4.22,3.44-5.98,4.43C100.63,124.74,102.71,123.33,104.84,121.3"/>
	<path class="st461" d="M40.27,122.7c0,0,0.64,0.55,1.68,1.36C40.91,123.25,40.27,122.7,40.27,122.7"/>
	<path class="st461" d="M41.95,124.06c1.06,0.77,2.48,1.85,4.13,2.84C44.44,125.91,43.02,124.83,41.95,124.06"/>
	<path class="st461" d="M98.65,125.85c-0.62,0.34-1.21,0.64-1.75,0.89C97.44,126.49,98.03,126.19,98.65,125.85"/>
	<path class="st461" d="M96.9,126.74c-0.25,0.11-0.48,0.22-0.71,0.31C96.42,126.95,96.66,126.85,96.9,126.74"/>
	<path class="st583" d="M92.24,128.16L92.24,128.16c-1.23,0.09-3.65,0.76-5.83,1.3l0,0l0,0C88.58,128.92,91,128.25,92.24,128.16
		L92.24,128.16"/>
	<path class="st461" d="M92.49,128.15C92.49,128.15,92.49,128.15,92.49,128.15c0.09,0,0.17,0,0.24,0.01
		C92.66,128.15,92.58,128.15,92.49,128.15"/>
	<path class="st461" d="M61.59,133.46c1.91,0.32,4.47,0.6,7.12,0.62C66.06,134.06,63.49,133.78,61.59,133.46"/>
	<path class="st461" d="M48.59,128.37c0.8,0.43,1.6,0.82,2.34,1.17C50.19,129.19,49.4,128.8,48.59,128.37"/>
	<path class="st461" d="M58.44,132.85c0,0,1.16,0.3,2.94,0.58C59.61,133.15,58.44,132.85,58.44,132.85"/>
	<path class="st463" d="M91.48,57.5C91.48,57.5,91.48,57.5,91.48,57.5L91.48,57.5L91.48,57.5L91.48,57.5L91.48,57.5
		C91.48,57.5,91.48,57.5,91.48,57.5L91.48,57.5L91.48,57.5L91.48,57.5L91.48,57.5 M91.52,57.48l-0.03,0.02l0,0l0,0l0,0l0,0
		C91.49,57.5,91.5,57.49,91.52,57.48C91.51,57.48,91.51,57.48,91.52,57.48C91.51,57.48,91.51,57.48,91.52,57.48
		C91.51,57.48,91.51,57.48,91.52,57.48C91.52,57.48,91.51,57.48,91.52,57.48c-0.02,0.01-0.02,0.02-0.03,0.02l-0.06,0.04l0.01-0.01
		l0,0l0,0c0,0-0.01,0-0.01,0.01c0,0,0,0,0,0c-0.01,0-0.01,0.01-0.02,0.01c-0.02,0.01-0.04,0.03-0.05,0.04l0,0l0,0l0,0l0,0l0.01-0.01
		l0,0l-0.01,0.01l0,0l0,0l0,0c0,0-0.01,0.01-0.01,0.01c0,0,0,0,0,0l0,0c0,0,0,0,0,0c0,0,0.01-0.01,0.01-0.01l0,0l0,0l0,0l0,0
		l-0.09,0.1l0,0l0,0l0,0l0.1-0.11l0,0l0,0c0.02-0.01,0.03-0.02,0.05-0.04c0,0,0.01-0.01,0.01-0.01c0,0,0,0,0,0c0,0,0.01,0,0.01-0.01
		l0,0h0l0.01,0l0.02-0.01l0.01-0.01l0.02-0.01l0,0L91.52,57.48L91.52,57.48 M91.53,57.47L91.53,57.47
		C91.53,57.47,91.52,57.47,91.53,57.47L91.53,57.47L91.53,57.47L91.53,57.47L91.53,57.47L91.53,57.47"/>
	<polyline class="st463" points="91.53,57.47 91.53,57.47 91.53,57.47 91.52,57.47 91.52,57.47 91.53,57.47 	"/>
	<path class="st463" d="M91.43,57.54l-0.08,0.05l-0.22,0.14c0.03-0.02,0.07-0.04,0.1-0.06c0.03-0.02,0.05-0.03,0.08-0.05
		c0.03-0.02,0.06-0.04,0.09-0.06c0,0,0,0,0,0C91.4,57.56,91.41,57.56,91.43,57.54L91.43,57.54"/>
	<path class="st463" d="M91.35,57.6L91.35,57.6l-0.05,0.04l-0.01,0.01c0.01-0.01,0.03-0.02,0.04-0.03l0,0l0,0L91.35,57.6"/>
	<path class="st463" d="M74.89,66.85L74.89,66.85l-0.05,0.01l-0.03,0l-0.01,0h0L74.89,66.85 M75.21,66.8L75.21,66.8 M75.21,66.8
		L75.21,66.8 M75.21,66.8L75.21,66.8 M79.32,60.28c-0.03-0.07-0.06-0.13-0.09-0.21l0,0l0,0l0,0l0,0
		C79.26,60.15,79.29,60.22,79.32,60.28L79.32,60.28L79.32,60.28L79.32,60.28L79.32,60.28 M77.44,57.6c-0.1,0-0.2,0.04-0.28,0.1
		c-0.25,0.18-0.43,0.52-0.81,0.72c-0.43,0.03-0.95-0.04-1.23,0.16c-0.6,0.56-2.11,1.13-2.11,2.23c0,0.29,0.1,0.61,0.35,0.99l0,0l0,0
		l0,0l0,0c-0.52,1.08-1.01,2.03-1.49,2.92c-0.48,0.89-0.96,1.71-1.41,2.66c-0.11,0.42-0.31,0.87-0.62,1.54
		c-0.59,1.05-1.49,2.38-1.68,3.9c-0.05,0.22-0.08,0.43-0.08,0.63c0,0.52,0.16,1.01,0.36,1.49c0.31,0.65,0.69,1.31,1.03,2.09
		c0.42,0.75,0.61,1.67,1.14,2.2c0.35,0,0.86,0.18,1.2,0.18c0.19,0,0.33-0.06,0.33-0.25c0-0.01,0-0.01,0-0.02l0,0l0,0l0,0l0,0
		c0.02-0.09,0.03-0.17,0.03-0.26c0-0.61-0.41-1.24-0.54-1.79c-0.46-0.98-0.63-1.98-0.63-2.93l0,0c0-1.49,0.43-2.87,0.88-3.9
		c0.41-0.99,0.97-1.82,1.6-2.43c0.31-0.31,0.64-0.55,0.98-0.74c0.18-0.09,0.32-0.17,0.51-0.22l0.17-0.05l0.6-0.07l0,0l0.02,0
		l0.06-0.02l0.12-0.04l0.43-0.11l0.77-0.17c0.46-0.11,0.83-0.24,1.15-0.5c0.03-0.02,0.04-0.05,0.04-0.09c0-0.25-0.58-0.79-0.72-1.26
		c-0.06-0.16-0.09-0.3-0.09-0.44l0,0c0-0.82,0.96-1.35,0.96-2.41c0-0.23-0.04-0.47-0.15-0.76c-0.03-0.08-0.07-0.17-0.11-0.26
		c-0.03-0.07-0.05-0.13-0.05-0.18l0,0c0-0.11,0.08-0.17,0.19-0.17c0.05,0,0.11,0.01,0.17,0.04c0.24,0.13,0.47,0.28,0.68,0.44
		c0.17,0.13,0.32,0.26,0.47,0.4c0.01,0.01,0.01,0.01,0.02,0.02c0.07,0.2,0.14,0.42,0.24,0.69l0.18,0.6l0.21,0.73
		c0.11,0.44,0.3,1.12,0.43,1.7L81,66.05l0.23,1.15l0.14,0.7c0.01,0.1,0.04,0.21,0.07,0.31c0.05,0.21,0.11,0.41,0.18,0.62
		c0.12,0.37,0.3,0.75,0.5,1.12c0.02,0.04,0.04,0.07,0.06,0.11c0.29,0.55,0.86,1.2,1.99,1.84c0.9,0.66,1.73,1.37,2.18,2.06
		c0.25,0.34,0.36,0.68,0.41,0.98l0,0l0,0l0,0l0,0.22l0,0.01l0.05-0.49c0.04-0.32,0.07-0.64,0.1-0.96c0.03-0.41,0.07-0.82,0.11-1.22
		c0.01-0.09,0.02-0.19,0.03-0.28c0.02-0.18,0.04-0.36,0.06-0.53l0.02-0.23c-0.02-0.16-0.07-0.34-0.12-0.52
		c-0.14-0.36-0.35-0.76-0.68-1.14c-1.18-1.58-4.28-3.09-4.62-4.01c-0.77-1.11-1.19-2.34-1.67-3.66c-0.1-0.27-0.2-0.55-0.3-0.83l0,0
		l0,0l0,0l0,0c0.14,0.15,0.28,0.29,0.4,0.45l0.16,0.22l-0.22-0.33l-0.37-0.61c-0.1-0.19-0.18-0.32-0.26-0.47
		c-0.34-0.84-0.74-1.68-1.33-2.47C77.85,57.73,77.62,57.6,77.44,57.6"/>
	<path class="st463" d="M91.29,57.65L91.29,57.65L91.29,57.65L91.29,57.65L91.29,57.65 M91.29,57.65L91.29,57.65L91.29,57.65
		 M91.29,57.65L91.29,57.65L91.29,57.65 M91.34,57.62c-0.02,0.01-0.03,0.02-0.04,0.03l0,0c0.01,0,0.01-0.01,0.01-0.01l0,0l0,0l0,0
		l0,0c0,0,0,0-0.01,0.01h0c0,0,0,0,0,0c0,0-0.01,0.01-0.01,0.01l0,0c0,0,0.01-0.01,0.01-0.01c0,0,0,0,0,0l0,0l0,0l0,0l-0.01,0.01
		l0,0l0,0l0,0l0.01-0.01l0,0l0.01-0.01L91.34,57.62"/>
	<path class="st589" d="M91.28,57.66L91.28,57.66c-0.01,0.01-0.02,0.02-0.02,0.02l0,0l0,0C91.25,57.68,91.26,57.67,91.28,57.66
		C91.27,57.66,91.27,57.66,91.28,57.66"/>
	<path class="st463" d="M91.29,57.65c-0.01,0.01-0.02,0.01-0.02,0.02c-0.02,0.01-0.02,0.02-0.02,0.02l0,0l0,0l0,0
		C91.25,57.68,91.26,57.67,91.29,57.65L91.29,57.65"/>
	<path class="st463" d="M91.29,57.65c0,0-0.01,0.01-0.01,0.01C91.28,57.66,91.29,57.65,91.29,57.65
		C91.29,57.65,91.29,57.65,91.29,57.65L91.29,57.65"/>
	<polyline class="st590" points="91.28,57.66 91.28,57.66 91.28,57.66 91.28,57.66 91.28,57.66 91.28,57.66 	"/>
	<path class="st463" d="M91.25,57.71L91.25,57.71L91.25,57.71c-0.01,0.01-0.01,0.01-0.01,0.01c0,0,0,0,0,0.01L91.25,57.71"/>
	<path class="st463" d="M91.24,57.73l-0.11,0.13c-0.16,0.19-0.38,0.5-0.63,0.95c0-0.01,0.01-0.01,0.01-0.02
		c0.06-0.1,0.11-0.18,0.16-0.26c0.09-0.15,0.18-0.27,0.25-0.38c0.02-0.03,0.04-0.05,0.05-0.08c0.01-0.01,0.02-0.02,0.02-0.03
		l0.13-0.16l0.04-0.05c0.01-0.01,0.02-0.03,0.03-0.03c0.02-0.02,0.03-0.03,0.03-0.04C91.23,57.74,91.23,57.73,91.24,57.73"/>
	<path class="st463" d="M91.13,57.74c-0.05,0.03-0.1,0.06-0.15,0.09l0.07-0.04l0,0l0.01,0l0.01,0l0,0L91.13,57.74"/>
	<path class="st463" d="M90.97,57.83l-0.21,0.12l-0.12,0.07c0,0-0.01,0-0.01,0.01c0.1-0.05,0.21-0.11,0.31-0.17
		C90.95,57.84,90.96,57.84,90.97,57.83"/>
	<path class="st463" d="M90.63,58.02c-0.01,0-0.01,0.01-0.02,0.01c-0.04,0.02-0.08,0.04-0.12,0.06c0,0,0,0-0.01,0
		C90.53,58.07,90.58,58.05,90.63,58.02"/>
	<path class="st463" d="M90.48,58.09c-0.03,0.01-0.06,0.03-0.09,0.04c0.01-0.01,0.02-0.01,0.03-0.02c0,0,0.01,0,0.01,0
		C90.45,58.11,90.47,58.1,90.48,58.09"/>
	<path class="st463" d="M90.39,58.13c-0.03,0.01-0.06,0.03-0.09,0.04C90.34,58.16,90.37,58.15,90.39,58.13"/>
	<path class="st463" d="M90.3,58.17c-0.03,0.02-0.07,0.03-0.11,0.05c0,0-0.01,0-0.01,0c-0.01,0.01-0.03,0.01-0.04,0.02
		c0.01,0,0.02-0.01,0.03-0.02c0.01,0,0.02-0.01,0.03-0.02C90.24,58.2,90.27,58.19,90.3,58.17"/>
	<path class="st463" d="M90.15,58.25c-0.02,0.01-0.04,0.02-0.06,0.03c-0.02,0.01-0.03,0.01-0.03,0.01s0.01,0,0.03-0.01
		c0.01,0,0.01-0.01,0.02-0.01C90.12,58.26,90.13,58.25,90.15,58.25"/>
	<path class="st463" d="M90.49,58.81c-0.24,0.4-0.52,0.94-0.82,1.69c0.09-0.22,0.18-0.42,0.27-0.61c0.02-0.04,0.04-0.08,0.05-0.12
		c0.01-0.02,0.02-0.04,0.03-0.06c0.02-0.04,0.04-0.08,0.06-0.12C90.23,59.29,90.36,59.03,90.49,58.81"/>
	<path class="st463" d="M89.67,60.49c-0.07,0.17-0.14,0.34-0.21,0.53c-0.02,0.05-0.04,0.1-0.06,0.16c-0.19,0.51-0.38,1.07-0.57,1.7
		c-0.03,0.1-0.06,0.2-0.09,0.3c0,0.01-0.01,0.03-0.01,0.04c-0.01,0.04-0.02,0.08-0.03,0.13c-0.07,0.26-0.14,0.55-0.23,0.87
		c-0.08,0.27-0.15,0.56-0.23,0.86c0.05-0.2,0.09-0.38,0.14-0.55c0-0.01,0-0.01,0.01-0.02c0,0,0-0.01,0-0.01
		c0.01-0.05,0.03-0.11,0.04-0.16c0.03-0.11,0.06-0.2,0.08-0.3c0.06-0.24,0.12-0.47,0.19-0.69c0.1-0.36,0.2-0.7,0.3-1.02
		c0.02-0.05,0.03-0.1,0.05-0.15c0.06-0.19,0.12-0.38,0.19-0.56c0.01-0.02,0.02-0.04,0.02-0.07c0.09-0.25,0.18-0.49,0.26-0.71
		c0.01-0.03,0.02-0.06,0.03-0.09C89.6,60.68,89.63,60.58,89.67,60.49"/>
	<path class="st463" d="M88.24,65.08c-0.01,0.04-0.02,0.07-0.03,0.11c0,0,0,0,0,0.01c0,0.01,0,0.02-0.01,0.03
		c0,0.02-0.01,0.03-0.01,0.05c-0.08,0.34-0.16,0.71-0.23,1.12c-0.02,0.12-0.05,0.27-0.08,0.43c0.01-0.06,0.02-0.11,0.04-0.17
		c0.06-0.31,0.11-0.6,0.17-0.89c0.04-0.18,0.07-0.35,0.11-0.51C88.21,65.2,88.23,65.14,88.24,65.08"/>
	<path class="st463" d="M87.88,66.82c-0.07,0.32-0.14,0.64-0.2,0.98c-0.03,0.16-0.06,0.33-0.09,0.5c0.07-0.35,0.13-0.69,0.19-1.02
		C87.82,67.12,87.85,66.97,87.88,66.82"/>
	<path class="st463" d="M87.6,68.3C87.6,68.3,87.6,68.3,87.6,68.3c-0.04,0.25-0.08,0.48-0.11,0.72c0,0,0,0,0,0
		C87.52,68.77,87.56,68.53,87.6,68.3"/>
	<path class="st463" d="M87.48,69.02c-0.03,0.18-0.05,0.35-0.07,0.53C87.44,69.37,87.46,69.19,87.48,69.02"/>
	<path class="st463" d="M87.41,69.55c0,0.03-0.01,0.05-0.01,0.08c-0.02,0.16-0.04,0.33-0.07,0.51
		C87.36,69.92,87.39,69.73,87.41,69.55"/>
	<path class="st463" d="M87.33,70.14c-0.01,0.04-0.01,0.08-0.02,0.12c-0.01,0.04-0.01,0.08-0.02,0.12
		c-0.01,0.06-0.02,0.12-0.02,0.18c0.01-0.06,0.02-0.11,0.03-0.16C87.3,70.31,87.32,70.22,87.33,70.14"/>
	<path class="st463" d="M87.26,70.56c-0.01,0.05-0.02,0.1-0.02,0.15c-0.05,0.32-0.09,0.65-0.13,0.98c0,0,0,0,0,0l0,0.01
		C87.16,71.32,87.21,70.94,87.26,70.56"/>
</g>
<g>
	<path d="M77.27,124.33c-0.22-0.76-0.35-1.21-0.52-1.77c-0.59,0.23-1.22,0.33-1.63,0.67c-1.91,1.63-4.25,1.63-6.53,1.77
		c-3.62,0.21-7.15-0.25-10.63-1.37c-2.21-0.71-4.5-1.35-6.79-1.59c-3.28-0.34-5.69-2.27-8.11-4.06
		c-6.89-5.11-12.73-11.31-17.01-18.75c-2.25-3.92-4.02-8.14-5.64-12.43c-1.7-4.48-2.55-9.01-2.32-13.65
		c0.32-6.31,1.2-12.53,3.99-18.43c3.27-6.92,8.6-11.74,14.57-16.1c3.5-2.56,7.53-3.87,11.6-5.05c1.41-0.41,2.99-0.31,4.5-0.33
		c3.55-0.05,7.1,0.01,10.65-0.05c0.9-0.02,1.8-0.32,2.7-0.51c2.12-0.45,4.23-0.92,6.06-1.31c1.95-3.61,3.56-7.21,5.73-10.43
		c1.74-2.6,3.99-4.92,6.32-7.04c1.52-1.38,3.22-0.09,5.18,0.79C80.54,19.23,77.15,27,74.98,36.18c4.6-0.81,8.83-1.56,13.05-2.3
		c-0.01-0.06-0.02-0.12-0.03-0.19c-2.75,0-5.51-0.02-8.26,0.01c-0.65,0.01-0.65,0.09-1.73-1c0.73-0.19,1.32-0.51,1.88-0.45
		c2.25,0.22,4.46-0.11,6.7-0.22c5.12-0.25,10.28-0.46,15.26,1.48c2.07,0.81,4.34,1.2,6.55,1.5c3.31,0.45,6.25,1.59,8.82,3.74
		c2.03,1.71,4.16,3.3,6.25,4.94c4.04,3.18,6,7.72,7.72,12.3c1.37,3.64,2.34,7.46,3.24,11.25c1.17,4.92,1.13,9.94,0.98,14.97
		c-0.11,3.71-0.99,7.2-2.09,10.73c-1.94,6.19-5.38,11.35-9.63,16.14c-5.01,5.64-11.07,9.75-17.85,12.86
		c-3.42,1.57-7,2.68-10.85,2.54c-0.33-0.01-0.68-0.05-1,0.03c-3.36,0.81-6.6-0.02-9.87-0.63C81.9,123.48,79.66,123.09,77.27,124.33z
		 M77,25.41c-1.61,1.6-2.27,3.68-3.15,5.96c0.61-0.1,1.16-0.09,1.19-0.22c0.53-1.97,2.09-3.6,1.9-5.8c1.16-1.4,1.16-1.4,1.23-3
		C77.78,23.37,77.39,24.39,77,25.41z M133.93,80.27c-0.02-4.93,0.05-8.43-0.95-11.87c-1.16-3.99-2.04-8.06-3.29-12.01
		c-0.62-1.94-1.69-3.78-2.75-5.54c-1.1-1.83-2.24-3.73-3.74-5.22c-1.99-1.98-4.31-3.65-6.58-5.33c-1.46-1.09-2.99-2.17-4.65-2.86
		c-1.39-0.58-3.03-0.83-4.54-0.76c-0.75,0.04-1.34,0.12-2.06-0.2c-3.53-1.56-7.12-3.05-11.1-2.5c-1.89,0.26-3.73,0.84-5.61,1.19
		c-3.11,0.57-6.23,1.2-9.37,1.57c-2.98,0.36-6.02,0.81-8.98,0.55c-4.71-0.43-9.29-1.8-14-2.51c-4.65-0.7-8.82,0.21-12.91,1.86
		c-4.19,1.69-7.78,4.37-11.22,7.36c-3.72,3.24-6.84,6.84-8.78,11.34c-1.15,2.66-2.13,5.45-2.72,8.28c-0.66,3.17-0.97,6.44-1.11,9.68
		c-0.11,2.54,0.01,5.15,0.47,7.65c0.81,4.44,2.73,8.52,4.64,12.59c2.32,4.93,5.1,9.55,8.74,13.62c1.32,1.48,2.91,2.72,4.22,4.21
		c3.72,4.2,8.11,7.41,13.48,9.08c3.09,0.96,6.34,1.42,9.45,2.34c3.31,0.98,6.63,0.71,9.97,0.54c1.2-0.06,2.23-0.28,2.76-1.68
		c0.26-0.68,1.1-1.32,1.83-1.61c3.65-1.43,7.03-0.2,10.36,1.28c1.64,2.64,4.29,2.13,6.73,2.08c1.57-0.03,3.14-0.55,4.71-0.57
		c3.28-0.04,6.2-1.2,9.09-2.55c3.26-1.52,6.23-3.5,9.2-5.5c6.45-4.36,11.36-10.13,14.72-17.03
		C132.8,91.87,134.44,85.54,133.93,80.27z M64.4,34.47c0,0.13-0.01,0.26-0.01,0.39c2.08,0.37,4.15,0.73,6.23,1.1
		c0.39-1.14,0.69-2.04,1.09-3.21C69.14,33.35,66.77,33.91,64.4,34.47z M74.92,32.9c-1.79-0.21-1.79-0.21-2.64,2.97
		c0.72,0,1.42,0,2.1,0C74.57,34.84,74.73,33.96,74.92,32.9z M84.99,15.74c-0.16-0.16-0.31-0.33-0.47-0.49
		c-0.71,0.73-1.41,1.46-2.12,2.19c0.11,0.11,0.21,0.22,0.32,0.33C83.48,17.09,84.24,16.41,84.99,15.74z"/>
	<path d="M92.31,119.73c1.78-0.51,3.29-0.94,5.26-1.5c-1.28,1.96-2.84,2.37-4.46,2.57C92.94,120.82,92.69,120.26,92.31,119.73z"/>
	<path d="M49.55,40.3c0.71-1.28,1.54-2.42,3.04-2.78c0.13,0.15,0.27,0.29,0.4,0.44c-1,0.93-2.01,1.87-3.01,2.8
		C49.84,40.61,49.69,40.46,49.55,40.3z"/>
	<path d="M98.38,115.23c-1.06,1.4-2.15,1.66-3.78,1.06C95.66,115.04,96.74,114.73,98.38,115.23z"/>
	<path d="M115.21,108.25c-2.3,2.37-2.86,2.46-3.53,0.87C112.87,108.83,114.04,108.54,115.21,108.25z"/>
	<path d="M117.88,103.45c0.69-1.71,0.84-1.82,2.73-2.01C120.24,102.89,118.98,103.05,117.88,103.45z"/>
	<path d="M107.7,108.25c-0.61,1.51-1.42,2.88-3.48,2.25C105.38,109.75,106.54,109,107.7,108.25z"/>
	<path d="M128.81,91.44c-0.84,0.79-1.69,1.58-2.53,2.37c-0.13-0.13-0.26-0.26-0.39-0.39c0.64-1,0.94-2.32,2.43-2.54
		C128.49,91.06,128.65,91.25,128.81,91.44z"/>
	<path d="M102.28,116.25c1.01-1.16,2.06-1.43,3.62-1.16C104.84,116.43,103.87,116.99,102.28,116.25z"/>
	<path d="M120.75,95.83c-0.95,0.65-1.9,1.3-3.04,2.09C117.86,96.21,118.1,96.02,120.75,95.83z"/>
	<path d="M112.28,101.29c-0.85,1.77-0.85,1.77-2.37,2.35C110.24,102.35,110.24,102.35,112.28,101.29z"/>
	<path d="M38.35,52.08c0.07-1.51,0.69-2.12,1.7-2.56C40.19,50.71,40.21,50.72,38.35,52.08z"/>
	<path d="M118.37,93.16c-0.59-1.42-0.43-1.61,1.84-1.9C119.61,91.87,119.02,92.49,118.37,93.16z"/>
	<path d="M26.32,66.87c-1.15-1.55-1.15-1.55,0-2.92C26.32,64.92,26.32,65.59,26.32,66.87z"/>
	<path d="M31.71,49.49c-0.09,1.39-0.74,1.92-1.44,2.6C30.01,50.62,30.01,50.62,31.71,49.49z"/>
	<path d="M46.52,42.3c-0.52,0.74-1.04,1.47-1.56,2.21c-0.5-1.41-0.01-2.18,0.89-2.7C46.07,41.97,46.29,42.14,46.52,42.3z"/>
	<path d="M43.71,40.49c-0.42,0.52-0.84,1.05-1.37,1.71C42.12,40.66,42.12,40.66,43.71,40.49z"/>
	<path d="M125.93,86.23c-0.29-0.83,0-1.37,1.45-1.86c-0.34,0.97-0.55,1.54-0.75,2.12C126.39,86.4,126.16,86.32,125.93,86.23z"/>
	<path d="M127.87,79.26c-0.4,0.69-0.8,1.37-1.28,2.2c-0.75-1.38-0.12-1.99,0.72-2.52C127.5,79.05,127.69,79.16,127.87,79.26z"/>
	<path d="M30.77,58.96c-1.06-0.99-1.23-1.74,0.59-2.1C31.12,57.73,30.94,58.34,30.77,58.96z"/>
	<path d="M37.74,44.3c-0.44,0.56-0.89,1.12-1.33,1.68c-0.33-1.08-0.27-1.89,0.79-2.09C37.38,44.03,37.56,44.16,37.74,44.3z"/>
	<path d="M128.36,69.92c0.38,0.36,0.58,0.55,0.78,0.74c-0.19,0.2-0.36,0.48-0.59,0.56c-0.15,0.05-0.55-0.2-0.56-0.34
		C127.97,70.63,128.17,70.38,128.36,69.92z"/>
	<path d="M126.86,74.49c0.07-0.44,0.15-0.87,0.22-1.31c0.18,0.02,0.35,0.03,0.53,0.05c-0.02,0.44-0.04,0.88-0.07,1.32
		C127.32,74.54,127.09,74.52,126.86,74.49z"/>
</g>
</svg>
