<?xml version="1.0" encoding="utf-8"?>
<!-- Generator: Adobe Illustrator 23.0.1, SVG Export Plug-In . SVG Version: 6.00 Build 0)  -->
<svg version="1.1" id="Layer_1" xmlns="http://www.w3.org/2000/svg" xmlns:xlink="http://www.w3.org/1999/xlink" x="0px" y="0px"
	 viewBox="0 0 150 150" style="enable-background:new 0 0 150 150;" xml:space="preserve">
<style type="text/css">
	.st0{fill:#F49AB4;}
	.st1{fill:#F28DA7;}
	.st2{fill:#E85072;}
	.st3{fill:#E84B6F;}
	.st4{fill:#EB5A7D;}
	.st5{fill:#EF7994;}
	.st6{fill:#F8BCCD;}
	.st7{fill:#F38CA8;}
	.st8{fill:#EF728F;}
	.st9{fill:#FCE4EB;}
	.st10{fill:#F0CCCF;}
	.st11{fill:#DE8D95;}
	.st12{fill:#EBBABF;}
	.st13{fill:#E7ACB2;}
	.st14{fill:#E39DA3;}
	.st15{fill:#F5DEE0;}
	.st16{fill:#D97A83;}
	.st17{fill:#E4A6AD;}
	.st18{fill:#E9B6BB;}
	.st19{fill:#DA9197;}
	.st20{fill:#CC7077;}
	.st21{fill:#C9646C;}
	.st22{fill:#D4848B;}
	.st23{fill:#D17A81;}
	.st24{fill:#DD9EA3;}
	.st25{fill:#C65760;}
	.st26{fill:#D48189;}
	.st27{fill:#CF6E76;}
	.st28{fill:#C1575F;}
	.st29{fill:#B8424B;}
	.st30{fill:#B33C43;}
	.st31{fill:#BB4952;}
	.st32{fill:#C65E66;}
	.st33{fill:#BC4F57;}
	.st34{fill:#B0353D;}
	.st35{fill:#D67E84;}
	.st36{fill:#C6636B;}
	.st37{fill:#CA6C72;}
	.st38{fill:#B9454D;}
	.st39{fill:#C05B63;}
	.st40{fill:#C0545B;}
	.st41{fill:#BE4C53;}
	.st42{fill:#B43C44;}
	.st43{fill:#DF999F;}
	.st44{fill:#D27980;}
	.st45{fill:#C1555D;}
	.st46{fill:#CB6F76;}
	.st47{fill:#C8676E;}
	.st48{fill:#D5838A;}
	.st49{fill:#C65D64;}
	.st50{fill:#F1D1D4;}
	.st51{fill:#D38087;}
	.st52{fill:#CF737C;}
	.st53{fill:#D98C94;}
	.st54{fill:#E6B3B9;}
	.st55{fill:#D8898F;}
	.st56{fill:#C66269;}
	.st57{fill:#C96A72;}
	.st58{fill:#DD9399;}
	.st59{fill:#CF747B;}
	.st60{fill:#D48188;}
	.st61{fill:#D37D85;}
	.st62{fill:#DC9298;}
	.st63{fill:#D8838B;}
	.st64{fill:#FAECED;}
	.st65{fill:#EFCBD0;}
	.st66{fill:#EDC1C5;}
	.st67{fill:#D28089;}
	.st68{fill:#CB747D;}
	.st69{fill:#A8343C;}
	.st70{fill:#A62F37;}
	.st71{fill:#B03E44;}
	.st72{fill:#C25C63;}
	.st73{fill:#E1A8AC;}
	.st74{fill:#BE535C;}
	.st75{fill:#CE727C;}
	.st76{fill:#F5D8DA;}
	.st77{fill:#D8BAE7;}
	.st78{fill:#BC8FD2;}
	.st79{fill:#B17FC9;}
	.st80{fill:#7D3CA4;}
	.st81{fill:#884BAE;}
	.st82{fill:#A369BF;}
	.st83{fill:#D2B5E2;}
	.st84{fill:#9A62BC;}
	.st85{fill:#B17ECB;}
	.st86{fill:#ECE0F2;}
	.st87{fill:#FBCBC8;}
	.st88{fill:#F5908C;}
	.st89{fill:#F28580;}
	.st90{fill:#E64640;}
	.st91{fill:#E5413B;}
	.st92{fill:#E74E49;}
	.st93{fill:#ED6D68;}
	.st94{fill:#F7B5B0;}
	.st95{fill:#ED6660;}
	.st96{fill:#F48580;}
	.st97{fill:#FBDFDF;}
	.st98{fill:#F9C1C0;}
	.st99{fill:#F7B7B6;}
	.st100{fill:#EF7573;}
	.st101{fill:#EF6F6D;}
	.st102{fill:#F17F7C;}
	.st103{fill:#F4A19F;}
	.st104{fill:#F39998;}
	.st105{fill:#EC7271;}
	.st106{fill:#FAD1CF;}
	.st107{fill:#FADCDC;}
	.st108{fill:#F39391;}
	.st109{fill:#FDECEC;}
	.st110{fill:#FCDDDD;}
	.st111{fill:#ED8280;}
	.st112{fill:#E66160;}
	.st113{fill:#F18784;}
	.st114{fill:#F19593;}
	.st115{fill:#EB7675;}
	.st116{fill:#E86867;}
	.st117{fill:#F28785;}
	.st118{fill:#F3A7A7;}
	.st119{fill:#F08C8B;}
	.st120{fill:#F08785;}
	.st121{fill:#E55D5B;}
	.st122{fill:#E86D6C;}
	.st123{fill:#E85F5D;}
	.st124{fill:#E75958;}
	.st125{fill:#EA6664;}
	.st126{fill:#E76260;}
	.st127{fill:#E04948;}
	.st128{fill:#ED7371;}
	.st129{fill:#EA6B6A;}
	.st130{fill:#EB6763;}
	.st131{fill:#E45352;}
	.st132{fill:#E54E4C;}
	.st133{fill:#DE3635;}
	.st134{fill:#E65958;}
	.st135{fill:#E0413E;}
	.st136{fill:#EA6D6A;}
	.st137{fill:#EE9493;}
	.st138{fill:#EA6866;}
	.st139{fill:#F2A8A6;}
	.st140{fill:#E14543;}
	.st141{fill:#E3413F;}
	.st142{fill:#E64A48;}
	.st143{fill:#E56967;}
	.st144{fill:#E33F3D;}
	.st145{fill:#EB7775;}
	.st146{fill:#EE8483;}
	.st147{fill:#E64845;}
	.st148{fill:#E75655;}
	.st149{fill:#E65451;}
	.st150{fill:#EA7473;}
	.st151{fill:#E55B57;}
	.st152{fill:#E75756;}
	.st153{fill:#EB7472;}
	.st154{fill:#EE8C8A;}
	.st155{fill:#F5A3A2;}
	.st156{fill:#E14A49;}
	.st157{fill:#E14D4C;}
	.st158{fill:#E14B49;}
	.st159{fill:#DE3E3D;}
	.st160{fill:#E45350;}
	.st161{fill:#E14544;}
	.st162{fill:#E54E4B;}
	.st163{fill:#E34240;}
	.st164{fill:#E75C5A;}
	.st165{fill:#EB7C7B;}
	.st166{fill:#F3A2A1;}
	.st167{fill:#EA7877;}
	.st168{fill:#E66B6A;}
	.st169{fill:#E96A69;}
	.st170{fill:#E56160;}
	.st171{fill:#E44845;}
	.st172{fill:#EC7473;}
	.st173{fill:#F9C0D3;}
	.st174{fill:#F298B5;}
	.st175{fill:#EE89A7;}
	.st176{fill:#E54D73;}
	.st177{fill:#E44771;}
	.st178{fill:#E7567E;}
	.st179{fill:#EC7797;}
	.st180{fill:#F8BCCF;}
	.st181{fill:#EB6D8F;}
	.st182{fill:#F089A8;}
	.st183{fill:#FCE2EB;}
	.st184{fill:#E55B7F;}
	.st185{fill:#E6708E;}
	.st186{fill:#EB87A2;}
	.st187{fill:#E25677;}
	.st188{fill:#E7678B;}
	.st189{fill:#FBD7E3;}
	.st190{fill:#ED80A1;}
	.st191{fill:#E24166;}
	.st192{fill:#E13B65;}
	.st193{fill:#E34870;}
	.st194{fill:#E76486;}
	.st195{fill:#F49DB8;}
	.st196{fill:#F7BFD1;}
	.st197{fill:#E65C7F;}
	.st198{fill:#F6ABC4;}
	.st199{fill:#F6A7C2;}
	.st200{fill:#EA6189;}
	.st201{fill:#DB3258;}
	.st202{fill:#DA2E55;}
	.st203{fill:#F7B2C9;}
	.st204{fill:#EA6A8D;}
	.st205{fill:#DC355B;}
	.st206{fill:#DB3159;}
	.st207{fill:#DF3C63;}
	.st208{fill:#F9C5D6;}
	.st209{fill:#EB7697;}
	.st210{fill:#DE3B61;}
	.st211{fill:#DE375F;}
	.st212{fill:#E1426A;}
	.st213{fill:#FDE7EE;}
	.st214{fill:#EE89A9;}
	.st215{fill:#E2456B;}
	.st216{fill:#E14069;}
	.st217{fill:#E44D75;}
	.st218{fill:#E86B8C;}
	.st219{fill:#EE7A9C;}
	.st220{fill:#F5A8C0;}
	.st221{fill:#FACBDA;}
	.st222{fill:#E65A7D;}
	.st223{fill:#E04169;}
	.st224{fill:#FEF5F9;}
	.st225{fill:#F191B0;}
	.st226{fill:#EA7292;}
	.st227{fill:#F6B4C9;}
	.st228{fill:#FBD8E5;}
	.st229{fill:#E96C8F;}
	.st230{fill:#E35477;}
	.st231{fill:#EA7396;}
	.st232{fill:#EB7A9D;}
	.st233{fill:#E8698D;}
	.st234{fill:#EB7094;}
	.st235{fill:#E04B6E;}
	.st236{fill:#E66085;}
	.st237{fill:#EB7294;}
	.st238{fill:#E7678C;}
	.st239{fill:#EA6D91;}
	.st240{fill:#E14C71;}
	.st241{fill:#EE7A9D;}
	.st242{fill:#F393B2;}
	.st243{fill:#DC3F64;}
	.st244{fill:#EF82A3;}
	.st245{fill:#F39DB9;}
	.st246{fill:#DF466B;}
	.st247{fill:#DF4469;}
	.st248{fill:#F29A98;}
	.st249{fill:#E64F4D;}
	.st250{fill:#E74947;}
	.st251{fill:#E85956;}
	.st252{fill:#EC7775;}
	.st253{fill:#F8BCBA;}
	.st254{fill:#EC6F6D;}
	.st255{fill:#FCE2E2;}
	.st256{fill:#F8C8C6;}
	.st257{fill:#F08B89;}
	.st258{fill:#F18A89;}
	.st259{fill:#B093A4;}
	.st260{fill:#A38295;}
	.st261{fill:#6F455A;}
	.st262{fill:#694055;}
	.st263{fill:#794F64;}
	.st264{fill:#936F83;}
	.st265{fill:#CDB7C1;}
	.st266{fill:#B596A5;}
	.st267{fill:#A58394;}
	.st268{fill:#8C667A;}
	.st269{fill:#B696A7;}
	.st270{fill:#E8E0E7;}
	.st271{fill:#E1BCC2;}
	.st272{fill:#A9666E;}
	.st273{fill:#681C23;}
	.st274{fill:#641920;}
	.st275{fill:#73242D;}
	.st276{fill:#8D3F48;}
	.st277{fill:#C69197;}
	.st278{fill:#893841;}
	.st279{fill:#E3CCCE;}
	.st280{fill:#6F292E;}
	.st281{fill:#A15A63;}
	.st282{fill:#944952;}
	.st283{fill:#944953;}
	.st284{fill:#964A53;}
	.st285{fill:#984B54;}
	.st286{fill:#974A53;}
	.st287{fill:#A25A62;}
	.st288{fill:#D2BCC8;}
	.st289{fill:#C8B2BE;}
	.st290{fill:#936A80;}
	.st291{fill:#8E667B;}
	.st292{fill:#9B7589;}
	.st293{fill:#B293A3;}
	.st294{fill:#916B7F;}
	.st295{fill:#DDCCD6;}
	.st296{fill:#AC8B9C;}
	.st297{fill:#F1EBEF;}
	.st298{fill:#9C7A8C;}
	.st299{fill:#8F6C80;}
	.st300{fill:#B99DAC;}
	.st301{fill:#A27F91;}
	.st302{fill:#C2A7B6;}
	.st303{fill:#AB8E9F;}
	.st304{fill:#936D82;}
	.st305{fill:#856174;}
	.st306{fill:#B99DAB;}
	.st307{fill:#C2A9B6;}
	.st308{fill:#A38091;}
	.st309{fill:#BBA3B0;}
	.st310{fill:#7A5468;}
	.st311{fill:#855F73;}
	.st312{fill:#AE8E9F;}
	.st313{fill:#7C556A;}
	.st314{fill:#7B5066;}
	.st315{fill:#855C71;}
	.st316{fill:#AF8E9F;}
	.st317{fill:#734B60;}
	.st318{fill:#694256;}
	.st319{fill:#916A80;}
	.st320{fill:#886378;}
	.st321{fill:#875C71;}
	.st322{fill:#714B5E;}
	.st323{fill:#582F42;}
	.st324{fill:#795066;}
	.st325{fill:#5E3A4B;}
	.st326{fill:#8A6578;}
	.st327{fill:#A98E9D;}
	.st328{fill:#B9A1B1;}
	.st329{fill:#B08F9F;}
	.st330{fill:#B898AA;}
	.st331{fill:#896578;}
	.st332{fill:#653C50;}
	.st333{fill:#623A4E;}
	.st334{fill:#6C4257;}
	.st335{fill:#B28FA1;}
	.st336{fill:#80596E;}
	.st337{fill:#7F586C;}
	.st338{fill:#765063;}
	.st339{fill:#683F53;}
	.st340{fill:#774E63;}
	.st341{fill:#704B5F;}
	.st342{fill:#674355;}
	.st343{fill:#7F5A6E;}
	.st344{fill:#815A6E;}
	.st345{fill:#6A4558;}
	.st346{fill:#5D374A;}
	.st347{fill:#926D80;}
	.st348{fill:#70475B;}
	.st349{fill:#72495E;}
	.st350{fill:#673D52;}
	.st351{fill:#673D51;}
	.st352{fill:#60364B;}
	.st353{fill:#795265;}
	.st354{fill:#683F52;}
	.st355{fill:#7A5368;}
	.st356{fill:#987387;}
	.st357{fill:#70475C;}
	.st358{fill:#A07D92;}
	.st359{fill:#81596E;}
	.st360{fill:#926C7F;}
	.st361{fill:#80596D;}
	.st362{fill:#CDC0E4;}
	.st363{fill:#A998CF;}
	.st364{fill:#644DA1;}
	.st365{fill:#5E479E;}
	.st366{fill:#6F56A9;}
	.st367{fill:#755CAC;}
	.st368{fill:#8975BA;}
	.st369{fill:#C4BAE0;}
	.st370{fill:#755DAD;}
	.st371{fill:#846DB7;}
	.st372{fill:#E7E2F2;}
	.st373{fill:#9B89C5;}
	.st374{fill:#8871B8;}
	.st375{fill:#9C89C6;}
	.st376{fill:#8673B9;}
	.st377{fill:#B9E1BA;}
	.st378{fill:#ADDBAE;}
	.st379{fill:#99D09A;}
	.st380{fill:#65B567;}
	.st381{fill:#5FB261;}
	.st382{fill:#70BB71;}
	.st383{fill:#8DCB8E;}
	.st384{fill:#CBE9CB;}
	.st385{fill:#86C687;}
	.st386{fill:#98D099;}
	.st387{fill:#EBF5EB;}
	.st388{fill:#B9D6C9;}
	.st389{fill:#8EBD9E;}
	.st390{fill:#7DB18E;}
	.st391{fill:#408251;}
	.st392{fill:#3A7F4C;}
	.st393{fill:#4A8C5B;}
	.st394{fill:#68A279;}
	.st395{fill:#B5D4BE;}
	.st396{fill:#7CB38B;}
	.st397{fill:#619D71;}
	.st398{fill:#E0ECE4;}
	.st399{fill:#74A38C;}
	.st400{fill:#679880;}
	.st401{fill:#669780;}
	.st402{fill:#669881;}
	.st403{fill:#285E41;}
	.st404{fill:#235A3C;}
	.st405{fill:#31684A;}
	.st406{fill:#4D8268;}
	.st407{fill:#A1C2B0;}
	.st408{fill:#679981;}
	.st409{fill:#467B62;}
	.st410{fill:#D6E5DF;}
	.st411{fill:#8ECA8F;}
	.st412{fill:#7DC07F;}
	.st413{fill:#409841;}
	.st414{fill:#3A933C;}
	.st415{fill:#4AA14B;}
	.st416{fill:#68B569;}
	.st417{fill:#7CC07D;}
	.st418{fill:#B5DDB5;}
	.st419{fill:#61B062;}
	.st420{fill:#7CC17E;}
	.st421{fill:#E0EFE0;}
	.st422{fill:#EBF5DE;}
	.st423{fill:#D4EAB8;}
	.st424{fill:#D2E9B4;}
	.st425{fill:#D8ECBE;}
	.st426{fill:#E2F0CE;}
	.st427{fill:#F3F9EA;}
	.st428{fill:#DFF0CA;}
	.st429{fill:#FAFDF7;}
	.st430{fill:#D3C9BE;}
	.st431{fill:#CBBEB3;}
	.st432{fill:#BBAC9F;}
	.st433{fill:#97826F;}
	.st434{fill:#947E69;}
	.st435{fill:#9F8A79;}
	.st436{fill:#B5A495;}
	.st437{fill:#DED6CE;}
	.st438{fill:#BBAD9F;}
	.st439{fill:#AE9E8D;}
	.st440{fill:#F2EFEC;}
	.st441{fill:#B1A091;}
	.st442{fill:#B1A090;}
	.st443{fill:#D8BACF;}
	.st444{fill:#976286;}
	.st445{fill:#905778;}
	.st446{fill:#4F1939;}
	.st447{fill:#4C1637;}
	.st448{fill:#5A2144;}
	.st449{fill:#773B60;}
	.st450{fill:#B88FAD;}
	.st451{fill:#6E345A;}
	.st452{fill:#8E567D;}
	.st453{fill:#E1CCDA;}
	.st454{fill:#C4E2A7;}
	.st455{fill:#93C35F;}
	.st456{fill:#8EC15A;}
	.st457{fill:#9AC868;}
	.st458{fill:#B0D587;}
	.st459{fill:#DCEBC3;}
	.st460{fill:#C8E0AA;}
	.st461{fill:#ABD280;}
	.st462{fill:#CAE2A9;}
	.st463{fill:#EFF8E7;}
	.st464{fill:#FFF6C0;}
	.st465{fill:#FFEC97;}
	.st466{fill:#FFDC4B;}
	.st467{fill:#FFD945;}
	.st468{fill:#FFDD54;}
	.st469{fill:#FFE774;}
	.st470{fill:#FFF4BA;}
	.st471{fill:#FFE46C;}
	.st472{fill:#FFF9E2;}
	.st473{fill:#FDE2C1;}
	.st474{fill:#F9CA98;}
	.st475{fill:#F9C18A;}
	.st476{fill:#F5994E;}
	.st477{fill:#F49448;}
	.st478{fill:#F8A158;}
	.st479{fill:#F8B577;}
	.st480{fill:#FCDDBC;}
	.st481{fill:#F8B06F;}
	.st482{fill:#FFEFE2;}
	.st483{fill:#F8A7A4;}
	.st484{fill:#EF8262;}
	.st485{fill:#EC605A;}
	.st486{fill:#EB5B55;}
	.st487{fill:#EC6964;}
	.st488{fill:#F28783;}
	.st489{fill:#F9C4C1;}
	.st490{fill:#F2817A;}
	.st491{fill:#EB6449;}
	.st492{fill:#FCE7E7;}
	.st493{fill:#FFEA88;}
	.st494{fill:#FFEB87;}
	.st495{fill:#FDF2E3;}
	.st496{fill:#FDEFDD;}
	.st497{fill:#F9E1C4;}
	.st498{fill:#FADEB9;}
	.st499{fill:#FADDB7;}
	.st500{fill:#FAE0BF;}
	.st501{fill:#FBE9CF;}
	.st502{fill:#F9DAB8;}
	.st503{fill:#FDF5EB;}
	.st504{fill:#FBE6CB;}
	.st505{fill:#FFFBF7;}
	.st506{fill:#FBDFBE;}
	.st507{fill:#F7D8B5;}
	.st508{fill:#FBE8CF;}
	.st509{fill:#FBE3C8;}
	.st510{fill:#F9E8CF;}
	.st511{fill:#F8DBB7;}
	.st512{fill:#FADBB5;}
	.st513{fill:#F7D5AE;}
	.st514{fill:#FDE9D5;}
	.st515{fill:#FAE3C8;}
	.st516{fill:#F7D1A4;}
	.st517{fill:#F5CD9D;}
	.st518{fill:#F7D8B0;}
	.st519{fill:#F8D4A9;}
	.st520{fill:#F8D3A6;}
	.st521{fill:#F8D8AF;}
	.st522{fill:#F7CD9E;}
	.st523{fill:#F4C896;}
	.st524{fill:#FBE3C5;}
	.st525{fill:#F7DBB8;}
	.st526{fill:#F7D8B1;}
	.st527{fill:#F7D7B0;}
	.st528{fill:#F8CD9F;}
	.st529{fill:#F8CD9E;}
	.st530{fill:#F1BE84;}
	.st531{fill:#F8D0A3;}
	.st532{fill:#F1C38D;}
	.st533{fill:#F8D8B1;}
	.st534{fill:#FBE2C8;}
	.st535{fill:#F9EAD3;}
	.st536{fill:#F9D3AA;}
	.st537{fill:#F7C896;}
	.st538{fill:#F7C794;}
	.st539{fill:#F7CA9A;}
	.st540{fill:#F7D3AB;}
	.st541{fill:#F8D8B5;}
	.st542{fill:#F9E6CF;}
	.st543{fill:#F7C897;}
	.st544{fill:#F8D3AA;}
	.st545{fill:#F7CEA2;}
	.st546{fill:#F4CD9E;}
	.st547{fill:#F5D2A5;}
	.st548{fill:#FBE2C2;}
	.st549{fill:#F5D1A8;}
	.st550{fill:#F8D5AB;}
	.st551{fill:#F2C695;}
	.st552{fill:#F8D3A8;}
	.st553{fill:#F5C998;}
	.st554{fill:#F5C894;}
	.st555{fill:#F2C997;}
	.st556{fill:#F2C48D;}
	.st557{fill:#F4C694;}
	.st558{fill:#F5CE9D;}
	.st559{fill:#F4C594;}
	.st560{fill:#F5C995;}
	.st561{fill:#F4C48F;}
	.st562{fill:#F7D2A6;}
	.st563{fill:#F8DFBB;}
	.st564{fill:#FBE2C3;}
	.st565{fill:#F8CC9E;}
	.st566{fill:#FADFC1;}
	.st567{fill:#F9D8B5;}
	.st568{fill:#F4C997;}
	.st569{fill:#F9DDB8;}
	.st570{fill:#FDFCED;}
	.st571{fill:#FBF7D2;}
	.st572{fill:#F9F6CB;}
	.st573{fill:#F4EBA8;}
	.st574{fill:#F5E9A6;}
	.st575{fill:#F5EDAC;}
	.st576{fill:#F7F5C0;}
	.st577{fill:#FBFBE1;}
	.st578{fill:#F7F0BE;}
	.st579{fill:#FAF6CE;}
	.st580{fill:#FFFBF5;}
	.st581{fill:#BDDB97;}
	.st582{fill:#BBDC99;}
	.st583{fill:#BDDD99;}
	.st584{fill:#B0D484;}
	.st585{fill:#AFD484;}
	.st586{fill:#FFEA87;}
	.st587{fill:#D3E9BA;}
	.st588{fill:#E1EECE;}
	.st589{fill:#D3E8BB;}
	.st590{fill:#E3EECE;}
	.st591{opacity:0.9;}
	.st592{fill:#FFF8CD;}
	.st593{opacity:0.9;fill:#FFEE8A;}
	.st594{fill:#FFF19E;}
	.st595{fill:#FFF5B6;}
	.st596{fill:#FFFBE0;}
	.st597{fill:none;stroke:#FFF4B1;stroke-width:0;}
	.st598{fill:#FFFDF3;}
	.st599{fill:#FACEDD;}
	.st600{opacity:0.9;fill:#F38CAF;}
	.st601{fill:#F5A0BD;}
	.st602{fill:#F8B8CD;}
	.st603{fill:#FCE1EA;}
	.st604{fill:none;stroke:#F7B2C9;stroke-width:0;}
	.st605{fill:#FEF3F7;}
	.st606{fill:#FBDBB6;}
	.st607{fill:#FBD1A3;}
	.st608{fill:#F9B674;}
	.st609{fill:#F8B36E;}
	.st610{fill:#FABB7E;}
	.st611{fill:#FACB99;}
	.st612{fill:#FDE9D1;}
	.st613{fill:#FAC893;}
	.st614{fill:#F9D0A1;}
	.st615{fill:#FFF5EC;}
	.st616{fill:#D7ECC0;}
	.st617{fill:#B1D684;}
	.st618{fill:#ADD680;}
	.st619{fill:#B7D98D;}
	.st620{fill:#C8E2A7;}
	.st621{fill:#E8F2D6;}
	.st622{fill:#C3E0A0;}
	.st623{fill:#F5FAEF;}
	.st624{fill:#A87699;}
	.st625{fill:#A9716E;}
	.st626{fill:#9F698A;}
	.st627{fill:#9F698D;}
	.st628{fill:#65294F;}
	.st629{fill:#632638;}
	.st630{fill:#62244A;}
	.st631{fill:#612335;}
	.st632{fill:#6E3259;}
	.st633{fill:#6D2F40;}
	.st634{fill:#8B4E74;}
	.st635{fill:#C4A1BB;}
	.st636{fill:#9D688D;}
	.st637{fill:#82476E;}
	.st638{fill:#E7D6E1;}
	.st639{fill:#FFF9D6;}
	.st640{fill:#FFF2A6;}
	.st641{fill:#FFF4B0;}
	.st642{fill:#FFF7C4;}
	.st643{fill:#FFFCE6;}
	.st644{fill:#FFF3B5;}
	.st645{fill:#FFED8B;}
	.st646{fill:#FFED94;}
	.st647{fill:#FFF1A4;}
	.st648{fill:#FFF5BF;}
	.st649{fill:#FFF6CD;}
	.st650{fill:#FFE46E;}
	.st651{fill:#FFED98;}
	.st652{fill:#FFF3A9;}
	.st653{fill:#FFEC8D;}
	.st654{fill:#FFE66B;}
	.st655{fill:#FFEC8A;}
	.st656{fill:#FFE66D;}
	.st657{fill:#FFE571;}
	.st658{fill:#FFEF94;}
	.st659{fill:#FFEF9E;}
	.st660{fill:#FFED93;}
	.st661{fill:#FFE873;}
	.st662{fill:#FFE97A;}
	.st663{fill:#FFEC87;}
	.st664{fill:#FFF19F;}
	.st665{fill:#FFF1A8;}
	.st666{fill:#FFEA7E;}
	.st667{fill:#FFEB86;}
	.st668{fill:#FFEF97;}
	.st669{fill:#FFF2B0;}
	.st670{fill:#FFF4BC;}
	.st671{fill:#FFF5C1;}
	.st672{fill:#FFF8CF;}
	.st673{fill:#FFF8DC;}
	.st674{fill:#FFF0A0;}
	.st675{fill:#FFEE92;}
	.st676{fill:#FFF6CE;}
	.st677{fill:#FFFADD;}
	.st678{fill:#FFFBEC;}
	.st679{fill:#FFFDF5;}
	.st680{fill:#F49C52;}
	.st681{fill:#F69D52;}
	.st682{fill:#F8A55E;}
	.st683{fill:#F8B472;}
	.st684{fill:#F59D54;}
	.st685{fill:#F8A65F;}
	.st686{fill:#F8B474;}
	.st687{fill:#FDF3E9;}
	.st688{fill:#FAE8D1;}
	.st689{fill:#FAE8CF;}
	.st690{fill:#FAEBD4;}
	.st691{fill:#F9EDD7;}
	.st692{fill:#FBEFDE;}
	.st693{fill:#FBEFDD;}
	.st694{fill:#FDF8F1;}
	.st695{fill:#FBEDD7;}
	.st696{fill:#FBEFDC;}
	.st697{fill:#FFFBFA;}
	.st698{fill:#FFE771;}
	.st699{fill:#FFEB83;}
	.st700{fill:#FFED90;}
	.st701{fill:#F7B6CB;}
	.st702{fill:#F4A2BB;}
	.st703{fill:#EE7397;}
	.st704{fill:#ED6D94;}
	.st705{fill:#EF7C9F;}
	.st706{fill:#F399B5;}
	.st707{fill:#FAD1DE;}
	.st708{fill:#F291AE;}
	.st709{fill:#F3A1BB;}
	.st710{fill:#FDECF2;}
</style>
<g>
	<path class="st428" d="M76.11,114.07L76.11,114.07L76.11,114.07L76.11,114.07L76.11,114.07 M76.06,113.95L76.06,113.95l0.04,0.11
		c0,0,0,0,0,0l0,0c0,0,0,0,0,0l0,0l0,0L76.06,113.95 M75.4,112.64c0,0.01,0.01,0.01,0.01,0.02c0.22,0.41,0.41,0.81,0.5,0.97l0,0
		c-0.09-0.17-0.28-0.56-0.5-0.97l0,0C75.41,112.65,75.41,112.64,75.4,112.64L75.4,112.64 M75.24,111.5L75.24,111.5
		c0.01,0.02,0.01,0.04,0.02,0.06C75.26,111.53,75.25,111.51,75.24,111.5 M74.65,111.38L74.65,111.38c0,0,0.1,0.16,0.25,0.4
		c0.06,0.1,0.13,0.21,0.2,0.32l0,0c-0.07-0.12-0.14-0.22-0.2-0.32l0,0C74.75,111.54,74.65,111.38,74.65,111.38
		C74.65,111.38,74.65,111.38,74.65,111.38L74.65,111.38 M73.19,109.2C73.19,109.2,73.2,109.21,73.19,109.2L73.19,109.2
		C73.2,109.21,73.19,109.2,73.19,109.2L73.19,109.2 M72.73,108.92c-0.02,0-0.03,0-0.05,0.01l0,0
		C72.69,108.92,72.71,108.92,72.73,108.92 M72.73,108.92L72.73,108.92L72.73,108.92c0.08,0,0.18,0.04,0.3,0.14
		c0.01,0.01,0.01,0.01,0.02,0.02c-0.01-0.01-0.01-0.01-0.02-0.02C72.91,108.96,72.81,108.92,72.73,108.92 M74.47,108.75
		C74.47,108.75,74.47,108.75,74.47,108.75c0.04,0.17,0.13,0.54,0.26,0.97l0.1,0.34l0.12,0.44l0,0l-0.12-0.44l-0.1-0.34
		C74.6,109.29,74.51,108.92,74.47,108.75C74.47,108.75,74.47,108.75,74.47,108.75 M74.34,108.15L74.34,108.15
		c0.02,0.11,0.05,0.22,0.07,0.31l0,0l0,0C74.38,108.37,74.36,108.27,74.34,108.15L74.34,108.15 M73.8,105.44
		c0.08,0.47,0.17,0.92,0.24,1.35l0,0l0,0l0,0C73.97,106.36,73.89,105.91,73.8,105.44L73.8,105.44"/>
	<path class="st428" d="M75.4,112.64c0,0.01,0.01,0.01,0.01,0.02l0,0l0,0l0,0l0,0C75.41,112.65,75.41,112.64,75.4,112.64
		L75.4,112.64 M74.9,111.78L74.9,111.78L74.9,111.78c0.06,0.1,0.13,0.21,0.2,0.32l0,0C75.03,111.99,74.96,111.88,74.9,111.78
		L74.9,111.78L74.9,111.78 M74.65,111.38L74.65,111.38C74.65,111.38,74.65,111.38,74.65,111.38L74.65,111.38L74.65,111.38
		C74.65,111.38,74.65,111.38,74.65,111.38L74.65,111.38"/>
	<path class="st454" d="M72.3,81.22L72.3,81.22l-0.02,0.03l0,0L72.3,81.22 M78.07,45.21c-2.09,0.45-3.84,1.3-5.24,2.37
		c-1.22,0.86-1.86,1.64-2.28,2.15c-0.33,0.39-0.59,0.61-0.88,0.61c-0.09,0-0.18-0.02-0.28-0.06c0,0,0,0,0,0
		c-0.17,0-0.44,1.2-0.87,2.72c-0.38,1.5-0.89,3.32-1.53,4.67c0.04,0.06,0.31,0.51,0.81,1.31c0.13-0.33,0.35-0.82,0.66-1.38
		c0.57-1.05,1.53-2.35,2.93-3.31c1.05-0.74,2.45-1.26,3.96-1.26c0.45,0,0.91,0.05,1.38,0.15c2.02,0.43,4.07,1.9,5.01,4.62
		c0,0,0.24,0.26,0.67,0.77c0.43,0.52,0.98,1.23,1.58,2.19c0.59,0.93,1.18,2.08,1.63,3.31c0.49,1.27,0.8,2.63,0.88,3.93
		c0.01,0.23,0.02,0.45,0.02,0.67l0,0c0,2.34-0.79,4.37-1.97,5.71c-1.3,1.5-2.99,2.23-4.69,2.53c0,0-0.42,0.06-1.14,0.24
		c-0.72,0.18-1.74,0.47-2.85,1.04c-1.1,0.55-2.29,1.4-3.25,2.59c-0.12,0.15-0.24,0.3-0.35,0.46l-0.17,0.25l-0.07,0.11l-0.09,0.17
		L71.84,82c-0.27,0.68-0.68,2.15-0.68,4.84c0,0.3,0,0.62,0.02,0.95c0.01,0.17,0.01,0.35,0.02,0.54c0.01,0.32,0.03,0.65,0.06,1
		c0,0,0,0,0,0c0,0.01,0,0.02,0,0.03c0,0.01,0,0.02,0,0.03c0.03,0.48,0.08,1,0.14,1.55c0.01,0.06,0.02,0.13,0.02,0.19l0,0
		c0.01,0.07,0.01,0.14,0.02,0.2c0.05,0.48,0.12,1,0.19,1.55c0.01,0.05,0.01,0.1,0.02,0.15l0,0c0,0.01,0,0.01,0,0.02
		c0.07,0.54,0.16,1.1,0.25,1.71c0,0.01,0,0.02,0.01,0.04c0.01,0.04,0.01,0.07,0.02,0.11c0,0.01,0,0.02,0,0.03
		c0.03,0.18,0.05,0.35,0.08,0.52c0.01,0.04,0.01,0.09,0.02,0.13c0.1,0.02,0.2,0.05,0.3,0.08c0.28,0.08,0.57,0.15,0.81,0.15
		c0.18,0,0.35-0.04,0.46-0.17c0.27-0.2,0.34-0.66,0.34-1.16c0-0.31-0.03-0.64-0.04-0.94c-0.01-0.15-0.02-0.3-0.02-0.44l0,0
		c0-0.45,0.08-0.76,0.44-0.76c0.09,0,0.2,0.02,0.33,0.07c-0.25-0.1-0.36-0.24-0.36-0.39l0,0c0-0.28,0.37-0.61,0.79-0.88
		c0.4-0.24,0.86-0.45,1.17-0.45c0.18,0,0.3,0.07,0.31,0.25c0,0,0.01,0,0.01,0c0.14,0,0.98,0.52,1.53,0.96
		c0.38,0.36,1.02,0.87,1.14,1.09c0.93,1.76,3.29,3.94,4.95,5.93c0.01,0.01,0.02,0.01,0.04,0.01c0.2,0,0.84-0.39,1.74-0.84
		c0.98-0.48,2.27-1.08,3.64-1.09c0.49,0.02,1,0.05,1.51,0.05c1.76,0,3.48-0.26,4.47-1.58c0-0.02,0.01-0.05,0.01-0.07
		c0-0.53-0.9-1.28-0.9-1.8l0,0c0-0.02,0-0.03,0-0.05c0.03-0.07,0.04-0.19,0.04-0.37c0-0.57-0.14-1.68-0.45-3.08
		c-0.21-0.92-0.5-1.96-0.88-3.03c-0.2-0.55-0.41-1.12-0.63-1.69c-0.22-0.59-0.49-1.15-0.75-1.7c-1.09-2.19-2.5-3.97-3.64-5.24
		c-1.1-1.24-1.94-2.04-1.94-2.49l0,0c0-0.01,0-0.03,0-0.04c0.16-0.55,0.53-1.29,0.96-1.99c0.44-0.69,0.99-1.32,1.63-1.48
		c1.7-0.72,2.69-1.75,3.38-3.03c0.72-1.26,1.13-2.75,2.02-4.12c0.54-0.65,1.81-0.59,2.36-1.23c0.69-1.16,1.2-2.75,1.2-4.36
		c0-1.29-0.32-2.59-1.14-3.67c-0.61-1.1-1.45-2.21-2.38-3.24c-0.89-0.97-1.92-1.9-2.98-2.66c-1.06-0.76-2.2-1.42-3.27-1.88
		c-0.54-0.24-1.09-0.45-1.62-0.61c-0.51-0.15-1.02-0.27-1.51-0.36C82.58,46.27,80.22,45.62,78.07,45.21"/>
	<path class="st454" d="M68.31,59.79c0.19,0.32,0.41,0.66,0.64,1.04c0.09-0.1,0.19-0.19,0.3-0.29C68.96,60.25,68.65,60,68.31,59.79"
		/>
	<path class="st454" d="M66.76,68.51c-0.64,1.81-1.15,3.61-1.53,5.42c-0.16,0.73-0.29,1.46-0.41,2.19c0.21-0.46,0.42-0.98,0.61-1.57
		c0.42-1.3,0.81-2.9,1.15-4.88C66.64,69.29,66.7,68.91,66.76,68.51"/>
	<path class="st454" d="M71.44,76c-0.03,0.13-0.05,0.25-0.07,0.38c-0.39,1.95-0.57,3.93-0.65,5.74c0.09-1.48,0.28-3.2,0.65-5.17
		C71.36,76.95,71.39,76.6,71.44,76"/>
	<path class="st454" d="M40.04,78.28c0.14,0.41,0.38,0.88,0.7,1.29c3.48,4.37,6.46,7.38,9.26,9.95c2.59,2.36,3.5,1.83,4.88,2
		c0.65,0.05,1.62,0.71,2.76,1.78c-0.35-0.41-1.24-1.42-2.21-2.37c-0.2,0.16-0.4,0.31-0.6,0.47c-1.38-0.17-2.29,0.36-4.88-2
		c-2.8-2.57-5.78-5.58-9.26-9.95C40.4,79.08,40.18,78.66,40.04,78.28"/>
	<path class="st454" d="M71.18,87.79c0,0.05,0,0.09,0,0.14c0,0.13,0.01,0.26,0.02,0.4C71.19,88.14,71.19,87.96,71.18,87.79"/>
	<path class="st454" d="M71.26,89.33c0,0.02,0,0.04,0,0.06c0-0.01,0-0.02,0-0.03C71.26,89.35,71.26,89.34,71.26,89.33
		C71.26,89.33,71.26,89.33,71.26,89.33"/>
	<path class="st454" d="M70.27,90.4c-0.07,0.06-0.16,0.13-0.26,0.23c-0.19,0.18-0.39,0.39-0.55,0.63c0.06,0.02,0.13,0.04,0.19,0.04
		c0.16,0,0.31-0.1,0.44-0.38C70.16,90.79,70.22,90.62,70.27,90.4"/>
	<path class="st454" d="M71.4,90.93c0.01,0.13,0.03,0.26,0.04,0.39c-0.01-0.07-0.01-0.13-0.02-0.2l0,0
		C71.42,91.06,71.41,91,71.4,90.93"/>
	<path class="st454" d="M71.63,92.88c0.01,0.06,0.02,0.11,0.02,0.17c0-0.01,0-0.01,0-0.02l0,0C71.65,92.98,71.64,92.93,71.63,92.88"
		/>
	<path class="st454" d="M58.22,93.85c2.04,2.03,4.55,5.14,6.85,8.3c1.47,2.1,3.33,4.75,4.84,6.89c1.37,1.93,2.45,3.37,2.8,3.37
		c0.03,0,0.06-0.01,0.08-0.04c0.03-0.1,0.04-0.23,0.04-0.39c0-0.6-0.18-1.52-0.25-2.19c-0.01-0.14-0.02-0.27-0.02-0.39l0,0
		c0-0.23,0.03-0.41,0.11-0.48c-0.11,0.03-0.18,0.16-0.21,0.33l-0.01,0.22c0,0.65,0.28,1.66,0.28,1.66s-0.28-1.01-0.28-1.66l0,0
		c0,0.65,0.28,1.66,0.28,1.66s-0.28-1.01-0.28-1.66l0,0c0,0.65,0.28,1.66,0.28,1.66s-0.28-1.01-0.28-1.66l0,0l0,0l0,0l0,0l0,0l0,0
		l0.01-0.22c0.03-0.18,0.1-0.31,0.21-0.33c0,0,0,0,0,0c0.02-0.02,0.05-0.03,0.08-0.03c0.1,0,0.24,0.09,0.44,0.31
		c0,0,0.01,0.01,0.01,0.01c0,0,0.01,0.01,0.01,0.01c0,0,0,0,0.01,0.01c0,0,0.01,0.01,0.01,0.01c0,0,0,0,0,0c0,0,0,0,0,0
		c0,0,0.01,0.01,0.01,0.01c0,0,0,0,0,0c0,0,0,0,0.01,0.01c0.01,0.01,0.01,0.01,0.02,0.02c0,0,0,0,0,0c0,0,0.01,0.01,0.01,0.01
		c0,0,0,0,0.01,0.01c0,0,0,0,0,0c0,0,0,0,0,0c0.3,0.32,0.69,0.87,1.18,1.74c0.23,0.37,0.44,0.73,0.63,1.06
		c0.1,0.17,0.21,0.35,0.3,0.53c0.18,0.33,0.33,0.61,0.44,0.83c0.02,0.05,0.04,0.1,0.07,0.16c0.03,0.06,0.05,0.09,0.06,0.09l0,0
		l-0.01-0.04l0.1,0.28c-0.07-0.2-0.14-0.41-0.21-0.61c0-0.01-0.01-0.02-0.01-0.03l0,0l0,0c-0.1-0.31-0.22-0.68-0.36-1.08
		c-0.08-0.24-0.17-0.49-0.24-0.73c0,0,0-0.01,0-0.01l0,0c0,0,0-0.01,0-0.01c-0.05-0.17-0.11-0.35-0.16-0.52
		c-0.04-0.14-0.08-0.27-0.12-0.41c0-0.01,0-0.02-0.01-0.02l0,0l-0.01-0.02c-0.08-0.26-0.15-0.54-0.24-0.84
		c-0.1-0.35-0.18-0.67-0.25-0.94c-0.07-0.32-0.13-0.58-0.19-0.82c0,0,0-0.01,0-0.01l0,0c-0.09-0.37-0.17-0.78-0.19-0.89l0,0
		c0,0,0,0,0-0.01c0-0.02-0.01-0.04-0.01-0.07c-0.09-0.5-0.18-0.99-0.27-1.48c-2.28-0.38-4.81-2.06-6.96-4.6
		c-0.95-1.15-1.86-2.77-2.68-4.35c-0.08,0.03-0.17,0.05-0.26,0.05c-0.3,0-0.62-0.19-0.97-0.66c0,0-0.73-0.14-1.76-0.47
		C60.3,95.09,59.18,94.63,58.22,93.85"/>
	<path class="st454" d="M71.92,94.8c0.03,0.21,0.07,0.43,0.1,0.66c-0.03-0.17-0.05-0.34-0.08-0.52c0-0.01,0-0.02,0-0.03
		C71.93,94.87,71.92,94.84,71.92,94.8"/>
	<path class="st454" d="M74.08,106.99C74.08,106.99,74.08,106.99,74.08,106.99L74.08,106.99c0.02,0.12,0.1,0.53,0.19,0.9l0,0
		c0,0,0,0.01,0,0.01c-0.02-0.07-0.03-0.14-0.05-0.21C74.17,107.44,74.12,107.21,74.08,106.99"/>
	<path class="st454" d="M73.2,109.21c0.06,0.07,0.13,0.15,0.21,0.25c0.39,0.54,0.75,1.08,1.07,1.59c-0.49-0.87-0.88-1.42-1.18-1.74
		c0,0,0,0,0,0c0,0,0,0,0,0c0,0,0,0-0.01-0.01c0,0-0.01-0.01-0.01-0.01c0,0,0,0,0,0c-0.01-0.01-0.01-0.01-0.02-0.02
		c0,0,0,0-0.01-0.01c0,0,0,0,0,0c0,0-0.01-0.01-0.01-0.01c0,0,0,0,0,0c0,0,0,0,0,0c0,0-0.01-0.01-0.01-0.01c0,0,0,0-0.01-0.01
		c0,0-0.01-0.01-0.01-0.01C73.21,109.22,73.2,109.21,73.2,109.21"/>
	<path class="st454" d="M74.95,110.5l0.01,0.02l0,0c0,0.01,0,0.02,0.01,0.02C74.96,110.53,74.95,110.52,74.95,110.5"/>
	<path class="st454" d="M75.24,111.48C75.24,111.48,75.24,111.48,75.24,111.48L75.24,111.48c0,0.01,0,0.01,0.01,0.02
		C75.24,111.49,75.24,111.48,75.24,111.48"/>
	<path class="st454" d="M75.1,112.1c0.11,0.19,0.21,0.37,0.3,0.53C75.31,112.45,75.21,112.27,75.1,112.1"/>
	<path class="st454" d="M75.49,112.23c0.13,0.41,0.26,0.78,0.36,1.08l0,0l0,0c0,0.01,0.01,0.02,0.01,0.03
		c-0.1-0.29-0.19-0.59-0.28-0.88C75.54,112.39,75.51,112.31,75.49,112.23"/>
	<path class="st454" d="M75.91,113.63c0.05,0.12,0.12,0.26,0.18,0.41c-0.01-0.03-0.02-0.05-0.03-0.08l-0.1-0.28l0.01,0.04l0,0
		C75.96,113.72,75.94,113.68,75.91,113.63"/>
	<path class="st581" d="M75.96,113.67L75.96,113.67l0.1,0.28l0,0L75.96,113.67 M75.91,113.63L75.91,113.63
		c0.03,0.06,0.05,0.09,0.06,0.09l0,0l0,0c0,0,0,0,0,0C75.96,113.71,75.94,113.68,75.91,113.63"/>
	<path class="st454" d="M76.09,114.04c0.03,0.09,0.07,0.19,0.1,0.28l0.07,0.18l0.04,0.1l-0.02-0.07c-0.04-0.11-0.08-0.23-0.13-0.36
		c-0.01-0.03-0.02-0.06-0.04-0.09l0.05,0.14l0.1,0.27l-0.1-0.27c0,0,0,0,0,0c0,0-0.02-0.05-0.05-0.14
		C76.1,114.06,76.1,114.05,76.09,114.04"/>
	<path class="st581" d="M76.16,114.21C76.16,114.21,76.16,114.21,76.16,114.21l0.1,0.27L76.16,114.21
		C76.16,114.21,76.16,114.21,76.16,114.21 M76.11,114.07L76.11,114.07c0.03,0.09,0.05,0.14,0.05,0.14l0,0
		C76.16,114.21,76.14,114.16,76.11,114.07L76.11,114.07"/>
	<polyline class="st582" points="76.16,114.21 76.16,114.21 76.26,114.49 76.16,114.21 76.16,114.21 	"/>
	<path class="st454" d="M76.11,114.07c0.03,0.09,0.05,0.14,0.05,0.14c0,0,0,0,0,0l0.1,0.27l-0.1-0.27L76.11,114.07
		C76.11,114.07,76.11,114.07,76.11,114.07"/>
	<path class="st455" d="M67,57.65c-0.46,0.86-1.03,1.18-1.53,1.54c-0.41,0.35-0.81,0.75-0.98,1.73c-0.44,1.45-1.52,3.09-2.5,4.59
		c-0.48,0.77-0.95,1.5-1.34,2.15c-0.37,0.67-0.68,1.25-0.85,1.72c-1,2.84-1.63,3.97-3,3.97c-0.36,0-0.78-0.08-1.27-0.23
		c-0.42-0.2-0.78-0.28-1.08-0.28c-1.1,0-1.58,1.07-2.73,1.12c-1.44,0.32-1.99,1.32-3.37,1.67c-0.57-0.11-1.09-0.17-1.57-0.17
		c-0.98,0-1.81,0.24-2.52,0.79c-0.03,0.12-0.05,0.24-0.05,0.39c0,0.15,0.03,0.32,0.1,0.55c0.02,0.07,0.04,0.14,0.04,0.19l0,0
		c0,0.28-0.27,0.34-0.31,0.54c-1.03-0.08-2.62-1.08-3.54-1.08c-0.27,0-0.49,0.09-0.61,0.32c-0.03,0.05-0.05,0.13-0.05,0.23
		c0,0.21,0.07,0.52,0.19,0.87c-0.1-0.3-0.15-0.57-0.16-0.75l0,0c0-0.1,0.02-0.18,0.05-0.23c0.12-0.23,0.34-0.32,0.61-0.32
		c0.92,0,2.51,1,3.54,1.08c0.04-0.2,0.31-0.26,0.31-0.54c0-0.06-0.01-0.12-0.03-0.19c-0.08-0.23-0.1-0.4-0.1-0.55l0,0
		c0-0.15,0.03-0.27,0.05-0.4c0.71-0.55,1.53-0.79,2.51-0.79c0.48,0,1.01,0.06,1.57,0.17c1.38-0.35,1.93-1.35,3.36-1.67
		c1.15-0.05,1.63-1.12,2.73-1.12c0.3,0,0.65,0.08,1.07,0.28c0.49,0.15,0.9,0.23,1.27,0.23c1.37,0,1.99-1.14,2.98-3.97
		c0.34-0.94,1.21-2.35,2.18-3.87c0.97-1.51,2.04-3.15,2.48-4.59c0.17-0.99,0.56-1.38,0.97-1.74c0.48-0.36,1.06-0.69,1.51-1.54
		C66.97,57.73,66.98,57.69,67,57.65C67,57.65,67,57.65,67,57.65"/>
	<path class="st455" d="M61.35,76.87c0,0,0.02,0.02,0.05,0.05c0,0-0.01-0.01-0.01-0.01C61.36,76.88,61.35,76.87,61.35,76.87"/>
	<path class="st456" d="M61.35,76.87L61.35,76.87c0,0,0.01,0.01,0.04,0.03c0,0,0.01,0.01,0.01,0.01l0,0l0,0l0,0l0,0
		C61.37,76.89,61.35,76.87,61.35,76.87L61.35,76.87L61.35,76.87L61.35,76.87 M67,57.66c-0.02,0.04-0.04,0.08-0.05,0.11
		c-0.45,0.86-1.03,1.18-1.51,1.54c-0.41,0.35-0.81,0.75-0.97,1.74c-0.44,1.45-1.51,3.08-2.48,4.59c-0.97,1.52-1.84,2.93-2.18,3.87
		c-0.99,2.83-1.62,3.97-2.98,3.97c-0.36,0-0.78-0.08-1.27-0.23c-0.42-0.2-0.77-0.28-1.07-0.28c-1.1,0-1.58,1.06-2.73,1.12
		c-1.43,0.32-1.98,1.32-3.36,1.67c-0.57-0.11-1.09-0.17-1.57-0.17c-0.98,0-1.8,0.24-2.51,0.79c-0.03,0.12-0.05,0.25-0.05,0.4
		c0,0.15,0.03,0.32,0.1,0.55c0.02,0.08,0.04,0.14,0.03,0.19l0,0c0,0.28-0.27,0.34-0.31,0.54c-1.03-0.08-2.62-1.08-3.54-1.08
		c-0.27,0-0.49,0.09-0.61,0.32c-0.03,0.05-0.05,0.13-0.05,0.23c0,0.19,0.05,0.45,0.16,0.75c0.14,0.38,0.36,0.81,0.66,1.18
		c3.48,4.37,6.46,7.38,9.26,9.95c2.6,2.36,3.5,1.83,4.88,2c0.2-0.16,0.4-0.32,0.6-0.47c-0.06-0.06-0.12-0.12-0.19-0.18
		c-1.03-0.99-2.11-1.86-2.68-1.86c-0.16,0-0.29,0.07-0.35,0.23c0,0-1.9-1.1-3.7-2.43c-1.58-1.18-3.07-2.55-3.08-3.62l0,0
		c0-0.15,0.03-0.29,0.09-0.43c0,0,0,0,0,0l0,0c0-0.02,0.02-2.13,0.3-2.86c0,0,2.31-0.59,4.88-0.87c0.82-0.09,1.67-0.15,2.46-0.15
		c1.69,0,3.14,0.25,3.67,0.91c0,0,0.8,0.22,1.88,0.29c0.16,0.01,0.32,0.01,0.48,0.01c0.98,0,2.1-0.17,3.12-0.78
		c0.93-0.56,1.77-1.49,2.49-3.08c0.12-0.73,0.25-1.46,0.41-2.19c0.38-1.82,0.89-3.62,1.53-5.42c0.28-1.82,0.6-3.83,0.95-6.12
		c0,0,0.11-0.16,0.3-0.44c0.19-0.27,0.49-0.65,0.88-1.06c0.02-0.02,0.04-0.04,0.06-0.07c-0.23-0.38-0.45-0.73-0.64-1.04
		c-0.22-0.14-0.44-0.25-0.67-0.35l0,0l0,0l0,0l0,0c0,0,0.05-0.17,0.17-0.46C67.32,58.17,67.04,57.72,67,57.66"/>
	<path class="st457" d="M69.25,60.54c-0.11,0.1-0.2,0.2-0.3,0.29c-0.02,0.02-0.04,0.04-0.06,0.07c-0.39,0.41-0.69,0.78-0.88,1.06
		c-0.19,0.27-0.3,0.44-0.3,0.44c-0.36,2.29-0.67,4.3-0.95,6.12c-0.06,0.4-0.12,0.79-0.18,1.16c-0.34,1.99-0.72,3.59-1.15,4.88
		c-0.19,0.58-0.4,1.1-0.61,1.57c-0.73,1.58-1.57,2.51-2.49,3.08c-1.02,0.61-2.14,0.78-3.12,0.78c-0.17,0-0.33,0-0.48-0.01
		c-1.08-0.06-1.88-0.29-1.88-0.29c-0.53-0.66-1.98-0.91-3.67-0.91c-0.79,0-1.64,0.06-2.46,0.15c-2.57,0.29-4.88,0.87-4.88,0.87
		c-0.28,0.73-0.3,2.84-0.3,2.86c0,0,0,0,0,0l0,0l0,0l0,0l0,0c-0.06,0.14-0.09,0.28-0.09,0.43c0,1.07,1.5,2.44,3.08,3.62
		c1.8,1.33,3.7,2.43,3.7,2.43c0.07-0.16,0.19-0.23,0.35-0.23c0.57,0,1.66,0.87,2.68,1.86c1.04,1,2.02,2.12,2.39,2.55
		c0.1,0.12,0.16,0.18,0.16,0.18c0.14,0.13,0.28,0.26,0.42,0.37c0.96,0.78,2.07,1.24,2.96,1.55c1.03,0.34,1.76,0.47,1.76,0.47
		c0.35,0.46,0.67,0.66,0.97,0.66c0.09,0,0.17-0.02,0.26-0.05c-0.21-0.4-0.41-0.8-0.61-1.19c-0.22-0.55-0.5-1.13-0.62-1.82
		c-0.02-0.1-0.03-0.17-0.03-0.22l0,0c0-0.24,0.2-0.1,0.27-0.27c-0.01-0.08-0.01-0.14-0.01-0.2l0,0c0-0.49,0.36-0.21,0.44-0.62
		c0.04-0.17,0.1-0.24,0.18-0.24c0.34,0,1,1.47,1.62,2.52c0.11-0.84,0.29-1.84,0.56-2.71c0.38-1.29,0.99-2.34,1.64-2.34
		c0.38,0,0.77,0.35,1.14,1.22c0,0,0.24,0.33,0.52,0.52c0.07,0.05,0.14,0.09,0.22,0.11c0.16-0.24,0.37-0.45,0.55-0.63
		c0.09-0.09,0.18-0.17,0.26-0.23c0.16-0.62,0.29-1.64,0.34-3.25c0.03-1.26-0.03-2.91,0.11-5.02c0.08-1.82,0.26-3.79,0.65-5.74
		c0.02-0.13,0.05-0.25,0.07-0.38c0.03-0.36,0.07-0.82,0.11-1.34c0.11-1.4,0.27-3.29,0.28-5.3c0-0.05,0-0.11,0-0.16
		c0-1.96-0.17-4.01-0.82-5.78C70.62,62.29,70.02,61.29,69.25,60.54"/>
	<path class="st458" d="M75.37,53.02c-1.51,0-2.91,0.52-3.96,1.26c-1.4,0.96-2.36,2.27-2.93,3.31c-0.31,0.56-0.53,1.04-0.66,1.38
		c-0.12,0.29-0.17,0.46-0.17,0.46c0.23,0.1,0.46,0.22,0.67,0.35c1.22,0.77,2.15,2.08,2.7,3.62c0.65,1.77,0.82,3.83,0.82,5.78l0,0
		c0,0.05,0,0.11,0,0.16c-0.01,2.01-0.17,3.9-0.28,5.3c-0.04,0.52-0.08,0.98-0.11,1.34c-0.05,0.6-0.08,0.95-0.08,0.95
		c-0.37,1.97-0.55,3.69-0.65,5.17c-0.13,2.12-0.08,3.76-0.11,5.02c-0.05,1.62-0.18,2.63-0.34,3.25c-0.06,0.22-0.11,0.39-0.17,0.53
		c-0.13,0.28-0.28,0.38-0.44,0.38c-0.13,0-0.27-0.07-0.41-0.15c-0.29-0.2-0.52-0.52-0.52-0.52c-0.37-0.86-0.76-1.22-1.14-1.22
		c-0.65,0-1.26,1.05-1.64,2.34c-0.27,0.87-0.45,1.87-0.56,2.71c0.14,0.24,0.28,0.46,0.41,0.63c0.36,0.42,0.66,0.55,0.93,0.55
		c0.21,0,0.4-0.08,0.6-0.16c0.2-0.08,0.4-0.16,0.63-0.16c0.02,0,0.04,0,0.06,0c0.43,0.26,0.91,0.76,1.58,1.48
		c0.31,0.36,0.54,0.5,0.72,0.5c0.42,0,0.54-0.77,0.72-1.29c0.04-0.38,0.25-0.49,0.53-0.49c0.15,0,0.31,0.03,0.49,0.07
		c-0.01-0.04-0.01-0.09-0.02-0.13c-0.04-0.22-0.07-0.44-0.1-0.66c-0.09-0.54-0.18-1.12-0.26-1.75c-0.01-0.06-0.02-0.11-0.02-0.17
		c-0.07-0.52-0.14-1.01-0.19-1.55c-0.01-0.13-0.03-0.26-0.04-0.39c-0.06-0.51-0.1-1.04-0.14-1.55c0-0.02,0-0.04,0-0.06
		c-0.03-0.31-0.05-0.66-0.06-1c-0.01-0.14-0.01-0.27-0.02-0.4c0-0.05,0-0.09,0-0.14c0-0.04,0-0.08-0.01-0.12
		c0,0.04,0,0.08,0.01,0.12l0,0c0-0.04,0-0.08-0.01-0.12c0,0.04,0,0.08,0.01,0.12l0,0c0-0.04,0-0.08-0.01-0.12
		c0,0.04,0,0.08,0.01,0.12c-0.01-0.33-0.02-0.65-0.02-0.95l0,0c0-2.69,0.4-4.16,0.68-4.84l0.11-0.25l0.09-0.17l0.07-0.11l0.17-0.25
		c0.11-0.16,0.23-0.31,0.35-0.46c0.96-1.18,2.15-2.03,3.25-2.59c1.11-0.56,2.13-0.86,2.85-1.04c0.72-0.17,1.14-0.24,1.14-0.24
		c1.7-0.29,3.39-1.03,4.69-2.53c1.18-1.35,1.97-3.37,1.97-5.71c0-0.22-0.01-0.44-0.02-0.67c-0.08-1.3-0.39-2.66-0.88-3.93
		c-0.45-1.23-1.04-2.38-1.63-3.31c-0.6-0.96-1.15-1.67-1.58-2.19c-0.43-0.52-0.67-0.77-0.67-0.77c-0.94-2.72-2.99-4.2-5.01-4.62
		C76.28,53.07,75.82,53.02,75.37,53.02"/>
	<path class="st458" d="M71.2,88.33c0.01,0.33,0.03,0.68,0.06,1C71.23,88.98,71.22,88.65,71.2,88.33"/>
	<path class="st458" d="M71.26,89.38c0.04,0.51,0.08,1.04,0.14,1.55C71.34,90.38,71.3,89.86,71.26,89.38"/>
	<path class="st458" d="M71.44,91.33c0.05,0.54,0.12,1.03,0.19,1.55C71.56,92.33,71.5,91.81,71.44,91.33"/>
	<path class="st458" d="M71.66,93.05c0.08,0.63,0.17,1.21,0.26,1.75c0-0.01,0-0.02-0.01-0.04C71.81,94.15,71.73,93.58,71.66,93.05"
		/>
	<path class="st458" d="M72.02,95.45c0.01,0.04,0.01,0.09,0.02,0.13c0,0,0,0,0,0C72.03,95.54,72.03,95.5,72.02,95.45"/>
	<path class="st459" d="M85.06,40.86c-4.35,0.28-7.73,2.21-10.24,3.86c2.91,0.33,6.42,1.01,10.29,2.55c0.49,0.09,1,0.21,1.51,0.36
		c0.53,0.16,1.08,0.38,1.62,0.61c1.07,0.46,2.21,1.12,3.27,1.88c1.06,0.76,2.09,1.68,2.98,2.66c0.93,1.03,1.77,2.14,2.38,3.24
		c0.81,1.08,1.14,2.38,1.14,3.67l0,0c0,1.61-0.51,3.2-1.2,4.36c-0.55,0.64-1.82,0.57-2.36,1.23c-0.88,1.37-1.3,2.86-2.02,4.12
		c-0.69,1.29-1.67,2.32-3.38,3.03c-0.64,0.16-1.19,0.79-1.63,1.48c-0.43,0.7-0.8,1.44-0.96,1.99c0,0.01,0,0.03,0,0.04
		c0,0.45,0.84,1.25,1.94,2.49c1.14,1.27,2.55,3.05,3.64,5.24c0.27,0.55,0.53,1.11,0.75,1.7c0.21,0.57,0.42,1.14,0.63,1.69
		c0.38,1.08,0.67,2.11,0.88,3.03c0.31,1.4,0.45,2.51,0.45,3.08l0,0c0,0.18-0.01,0.31-0.04,0.37c0,0.01,0,0.03,0,0.05
		c0,0.52,0.9,1.27,0.9,1.8l0,0c0,0.02,0,0.05-0.01,0.07c-0.99,1.32-2.71,1.58-4.47,1.58c-0.51,0-1.02-0.02-1.51-0.05
		c-1.36,0.01-2.66,0.61-3.64,1.09c-0.9,0.46-1.54,0.84-1.74,0.84c-0.02,0-0.03,0-0.04-0.01c-1.66-1.99-4.01-4.17-4.95-5.93
		c-0.12-0.22-0.76-0.73-1.14-1.09c-0.56-0.44-1.4-0.96-1.53-0.96c0,0-0.01,0-0.01,0c-0.01-0.18-0.13-0.25-0.31-0.25
		c-0.3,0-0.77,0.2-1.17,0.45c-0.42,0.27-0.79,0.59-0.79,0.88c0,0.15,0.1,0.29,0.36,0.39l0,0l0,0l0,0l0,0
		c-0.13-0.04-0.24-0.07-0.33-0.07c-0.36,0-0.44,0.31-0.44,0.76c0,0.13,0.01,0.28,0.02,0.44c0.02,0.3,0.04,0.63,0.04,0.94l0,0
		c0,0.5-0.07,0.96-0.34,1.16c-0.12,0.12-0.28,0.17-0.46,0.17c-0.24,0-0.53-0.08-0.81-0.15c-0.1-0.03-0.2-0.05-0.3-0.08
		c0.07,0.45,0.14,0.86,0.21,1.24l0,0c0.11,0.6,0.21,1.19,0.32,1.75c0.08,0.44,0.16,0.87,0.23,1.29c0.43-0.14,0.82-0.34,1.18-0.61
		c-0.08-0.28-0.11-0.51-0.11-0.68l0,0c0-1.04,1.13-0.54,1.64-0.82c0.02,0,0.04-0.01,0.06-0.01c0.22,0,0.59,0.2,0.92,0.26
		c0.48-0.13,0.59-0.72,1.1-0.72c0.19,0,0.43,0.08,0.77,0.3c2.7,1.87,5.37,3.26,8,3.94c0.54,0.14,1.39,0.25,2.41,0.25
		c0.99,0,2.14-0.1,3.32-0.36c1.19-0.24,2.42-0.67,3.45-1.14c1.03-0.48,1.87-1.01,2.29-1.38c1.22-0.93,1.9-2.35,2.43-3.88
		c0.54-1.54,0.93-3.19,1.67-4.86c0-0.01,0.01-0.02,0.03-0.02c0.07,0,0.26,0.15,0.49,0.45c0.1-0.41,0.19-0.84,0.26-1.27
		c-0.16-0.34-0.37-1.36-0.55-1.74l0,0l0,0l0,0l0,0c0.3-1.05,0.74-1.77,1.47-2.75c2.76-2.57,4.18-6.82,4.18-11.86
		c0-0.68-0.03-1.38-0.08-2.09c-0.22-2.98-0.91-6.21-2.01-9.48c-1.08-3.27-2.59-6.57-4.16-9.7c-0.75-1.26-1.88-2.86-3.29-4.35
		c-1.36-1.44-3.04-2.79-4.85-3.64c-0.73-0.32-1.44-0.63-2.17-0.95c-0.73-0.32-1.5-0.65-2.23-0.93
		C87.64,41.3,86.15,40.86,85.06,40.86"/>
	<path class="st459" d="M63.77,91.93c-0.08,0-0.14,0.07-0.18,0.24c-0.09,0.41-0.44,0.13-0.44,0.62c0,0.06,0,0.12,0.01,0.2l0,0
		c0.21,0.31,0.51,1.05,0.82,1.46c0.63,0.97,1.14,0.93,1.86,2.01c0.73,0.93,1.51,2.14,2.35,2.84c0.52,0.35,0.94,0.53,1.36,0.53
		c0.62,0.18,1.22,0.27,1.8,0.27c0.51,0,1-0.07,1.45-0.22c-0.08-0.42-0.15-0.85-0.23-1.29c-0.1-0.57-0.21-1.15-0.32-1.75l0,0
		c-0.07-0.38-0.14-0.79-0.21-1.24c-0.18-0.04-0.34-0.07-0.49-0.07c-0.28,0-0.49,0.12-0.53,0.49c-0.18,0.52-0.31,1.29-0.72,1.29
		c-0.18,0-0.41-0.14-0.72-0.5c-0.67-0.72-1.15-1.22-1.58-1.48c-0.02,0-0.04,0-0.06,0c-0.23,0-0.43,0.08-0.63,0.16
		c-0.2,0.08-0.39,0.16-0.6,0.16c-0.27,0-0.56-0.13-0.93-0.55c-0.13-0.17-0.27-0.39-0.41-0.63C64.77,93.4,64.11,91.93,63.77,91.93"/>
	<path class="st461" d="M71.26,89.36c0,0.01,0,0.02,0,0.03c0.04,0.51,0.08,1.04,0.14,1.55c0.01,0.06,0.02,0.13,0.02,0.19
		c-0.07-0.56-0.12-1.17-0.16-1.74C71.26,89.37,71.26,89.37,71.26,89.36"/>
	<path class="st461" d="M71.66,93.03c0,0.01,0,0.01,0,0.02c0.08,0.63,0.17,1.21,0.26,1.75c0.01,0.04,0.01,0.07,0.02,0.11
		c-0.1-0.57-0.19-1.19-0.28-1.86C71.66,93.04,71.66,93.04,71.66,93.03"/>
	<path class="st461" d="M72.25,96.83c0.11,0.6,0.21,1.19,0.32,1.75C72.47,98.02,72.36,97.43,72.25,96.83"/>
	<path class="st461" d="M72.57,98.58c0.08,0.44,0.16,0.87,0.23,1.29h0C72.72,99.45,72.65,99.02,72.57,98.58"/>
	<path class="st461" d="M73.8,105.44c0.08,0.47,0.17,0.92,0.24,1.35C73.97,106.36,73.89,105.91,73.8,105.44L73.8,105.44"/>
	<path class="st461" d="M74.05,106.79c0.02,0.11,0.03,0.18,0.03,0.2c0,0,0,0.01,0,0.01s0,0,0-0.01
		C74.08,106.97,74.07,106.9,74.05,106.79"/>
	<path class="st461" d="M74.27,107.89c0,0,0,0.01,0,0.01c0.02,0.09,0.04,0.17,0.06,0.26C74.32,108.07,74.29,107.98,74.27,107.89"/>
	<path class="st461" d="M74.4,108.46c0.04,0.17,0.07,0.29,0.07,0.29C74.47,108.75,74.44,108.63,74.4,108.46"/>
	<polyline class="st461" points="73.19,109.2 73.2,109.21 73.21,109.22 73.2,109.21 73.19,109.2 	"/>
	<path class="st461" d="M73.25,109.26c0.01,0.01,0.01,0.01,0.02,0.02C73.27,109.27,73.26,109.27,73.25,109.26"/>
	<polyline class="st461" points="73.27,109.28 73.28,109.29 73.27,109.28 	"/>
	<path class="st461" d="M73.29,109.3c0.34,0.36,0.79,1.01,1.36,2.07c-0.06-0.11-0.12-0.22-0.18-0.33
		C73.99,110.17,73.59,109.62,73.29,109.3"/>
	<path class="st461" d="M74.96,110.53c0,0.01,0,0.02,0.01,0.02c0.09,0.31,0.18,0.63,0.27,0.93c0,0,0,0.01,0,0.01c0,0,0-0.01,0-0.01
		c-0.09-0.3-0.18-0.61-0.27-0.93C74.96,110.54,74.96,110.53,74.96,110.53"/>
	<path class="st428" d="M75.4,112.64c0,0.01,0.01,0.01,0.01,0.02l0,0c0.22,0.41,0.41,0.8,0.5,0.97l0,0
		c-0.09-0.17-0.28-0.56-0.5-0.97C75.41,112.65,75.41,112.64,75.4,112.64L75.4,112.64 M74.65,111.38L74.65,111.38
		C74.65,111.38,74.65,111.38,74.65,111.38c0,0,0.1,0.16,0.25,0.4l0,0c0.06,0.1,0.13,0.21,0.2,0.32l0,0
		c-0.07-0.12-0.14-0.22-0.2-0.32C74.75,111.54,74.65,111.38,74.65,111.38L74.65,111.38"/>
	<path class="st583" d="M75.91,113.63L75.91,113.63c0.03,0.05,0.04,0.08,0.05,0.09c0,0,0,0,0,0l0,0l0,0
		C75.96,113.72,75.94,113.68,75.91,113.63L75.91,113.63 M75.1,112.1L75.1,112.1c0.1,0.17,0.21,0.35,0.3,0.53l0,0l0,0
		C75.31,112.45,75.21,112.27,75.1,112.1L75.1,112.1"/>
	<path class="st461" d="M75.41,112.65c0.22,0.41,0.41,0.81,0.5,0.97c0.03,0.05,0.04,0.08,0.05,0.09c-0.01-0.01-0.03-0.04-0.05-0.09
		C75.82,113.46,75.63,113.07,75.41,112.65 M74.65,111.38c0,0,0.1,0.16,0.25,0.4C74.75,111.54,74.65,111.38,74.65,111.38"/>
	<path class="st461" d="M75.26,111.55c0.08,0.23,0.15,0.46,0.22,0.68c0.13,0.41,0.26,0.78,0.36,1.08c-0.1-0.31-0.22-0.68-0.36-1.08
		C75.41,112.01,75.34,111.78,75.26,111.55"/>
	<path class="st461" d="M75.84,113.31c0,0.01,0.01,0.02,0.01,0.03c0.11,0.32,0.2,0.57,0.25,0.72l0,0l0,0c0,0,0,0,0,0
		c0.03,0.09,0.05,0.14,0.05,0.14c0,0-0.02-0.05-0.05-0.14c0,0,0,0,0,0l0,0l0,0c-0.05-0.15-0.14-0.4-0.25-0.72
		C75.85,113.33,75.85,113.32,75.84,113.31"/>
	<polyline class="st583" points="76.16,114.21 76.16,114.21 76.26,114.49 76.16,114.21 76.16,114.21 	"/>
	<path class="st463" d="M101.96,90.15c-0.01,0-0.02,0.01-0.03,0.02c-0.75,1.67-1.14,3.32-1.67,4.86c-0.53,1.53-1.21,2.95-2.43,3.88
		c-0.42,0.37-1.26,0.91-2.29,1.38c-1.03,0.47-2.26,0.9-3.45,1.14c-1.18,0.26-2.33,0.36-3.32,0.36c-1.02,0-1.87-0.11-2.41-0.25
		c-2.63-0.68-5.3-2.08-8-3.94c-0.34-0.22-0.58-0.3-0.77-0.3c-0.5,0-0.62,0.59-1.1,0.72c-0.33-0.06-0.7-0.26-0.92-0.26
		c-0.02,0-0.04,0-0.06,0.01c-0.52,0.28-1.64-0.22-1.64,0.82c0,0.18,0.03,0.4,0.11,0.68l0,0l0,0l0,0l0,0
		c-0.36,0.27-0.75,0.47-1.18,0.61h0c-0.45,0.15-0.94,0.22-1.45,0.22c-0.57,0-1.18-0.09-1.8-0.27c-0.42,0-0.84-0.18-1.36-0.53
		c-0.83-0.7-1.62-1.91-2.35-2.84c-0.72-1.08-1.23-1.04-1.86-2.01c-0.31-0.41-0.61-1.15-0.82-1.46c-0.06,0.18-0.27,0.04-0.27,0.27
		c0,0.05,0.01,0.12,0.03,0.22c0.12,0.69,0.4,1.27,0.62,1.82c0.2,0.39,0.4,0.79,0.61,1.19c0.82,1.58,1.73,3.2,2.68,4.35
		c2.15,2.55,4.67,4.23,6.96,4.6c0,0,0,0,0,0h0c0.32,0.05,0.64,0.08,0.95,0.08c0.31,0,0.62-0.03,0.92-0.08
		c0.52-0.09,0.41-1.12,0.59-1.67c0.26-1.27,1.82-0.98,1.82-2.61c0-0.18-0.02-0.39-0.06-0.62c-0.01-0.05-0.02-0.09-0.02-0.13l0,0
		c0-0.15,0.1-0.22,0.23-0.22c0.06,0,0.13,0.01,0.2,0.04c3.54,2.03,7.11,3.41,11.05,4.26c0.45,0.12,1.02,0.18,1.68,0.18
		c1.22,0,2.72-0.22,4.25-0.72c2.32-0.71,4.63-2.16,5.36-2.81c2.11-2.2,2.83-4.75,2.83-6.71c0-0.52-0.05-0.99-0.14-1.41
		C103.09,91.1,102.14,90.15,101.96,90.15"/>
</g>
<g>
	<path d="M43.8,86.01c4.68-19.97,18.14-30.51,36.68-35.99c-0.16-0.35-0.33-0.71-0.49-1.06c-2.88,0.45-5.78,0.78-8.62,1.39
		c-8.31,1.78-16.17,4.82-22.45,10.63c-9.28,8.58-13.19,19.23-8.06,32.76c2.8-1.35,5.59-2.69,8.4-4.05c2.4,6.92,1.34,9.52-4.52,12.07
		c-1.03,0.45-1.88,1.33-2.98,2.12c-0.73-0.64-1.5-1.32-2.43-2.14c0.6-0.84,1.17-1.65,1.94-2.72c-1.98-0.67-3.85-1.3-6.13-2.07
		c0.67-0.42,1.07-0.78,1.53-0.94c2.55-0.87,2.66-2.61,1.78-4.75c-0.41-0.98-0.79-1.97-1.19-2.96c-2.93-7.35-0.75-14.13,2.67-20.58
		c3.19-6.03,7.86-10.64,14.27-13.51c4.71-2.1,9.01-5.09,14.2-6.09c9.26-1.77,18.58-2,27.76,0c7.79,1.69,12.66,7.18,16.17,14.2
		c3.91,7.83,3.53,16.07,2.5,24.23c-0.38,3.06-2.57,6.23-4.73,8.64c-2.71,3.03-6.1,5.52-9.43,7.92c-6.65,4.78-14.07,7.94-22.26,8.68
		c-10.69,0.96-20.81-1.2-30.18-6.58c-0.13-0.08-0.35-0.12-0.38-0.23c-0.27-0.91-0.5-1.83-0.75-2.74c0.82-0.01,1.86-0.35,2.43,0.03
		c10.87,7.17,22.78,7.92,35.11,5.6c6.6-1.24,11.97-5.2,17.35-8.91c2.49-1.71,4.5-4.1,6.83-6.05c2.42-2.02,3.15-4.8,3.43-7.65
		c0.34-3.49,0.48-7.03,0.35-10.54c-0.28-7.78-3.28-14.47-8.84-19.94c-3.74-3.68-8.94-4.84-13.52-4.58
		c-5.18,0.29-10.23,2.96-15.35,4.55c-5.31,1.65-10.21,4.01-14.32,7.85c-6.3,5.88-11.56,12.49-14.56,20.69
		c-0.31,0.85-0.75,1.65-1.16,2.46C44.82,85.83,44.59,85.82,43.8,86.01z"/>
	<path d="M107.92,67.07c-0.43,0.98-0.61,2.21-1.33,2.9c-4.93,4.76-10.53,8.58-16.63,11.74c-7.04,3.65-14.34,6.58-21.83,9.09
		c-3.68,1.23-7.39,2.3-11.4,1.45c18.37-5.37,36.06-11.96,50.16-25.59C107.23,66.8,107.57,66.93,107.92,67.07z"/>
	<path d="M54.54,99.11c1.79,0.11,3.64-0.05,5.35,0.38c11.85,2.96,22.95,0.14,33.82-4.28c3.92-1.59,7.66-3.6,11.55-5.27
		c0.6-0.26,1.55,0.29,2.34,0.47c-0.37,0.72-0.56,1.84-1.13,2.1c-3.04,1.37-6.14,2.64-9.29,3.73c-5.73,2-11.38,4.63-17.3,5.55
		c-5.92,0.93-12.13,0.24-18.2-0.04c-2.46-0.11-4.89-1.03-7.33-1.58C54.43,99.83,54.49,99.47,54.54,99.11z"/>
</g>
</svg>
