<?xml version="1.0" encoding="utf-8"?>
<!-- Generator: Adobe Illustrator 23.0.1, SVG Export Plug-In . SVG Version: 6.00 Build 0)  -->
<svg version="1.1" id="Layer_1" xmlns="http://www.w3.org/2000/svg" xmlns:xlink="http://www.w3.org/1999/xlink" x="0px" y="0px"
	 viewBox="0 0 150 150" style="enable-background:new 0 0 150 150;" xml:space="preserve">
<style type="text/css">
	.st0{fill:#F49AB4;}
	.st1{fill:#F28DA7;}
	.st2{fill:#E85072;}
	.st3{fill:#E84B6F;}
	.st4{fill:#EB5A7D;}
	.st5{fill:#EF7994;}
	.st6{fill:#F8BCCD;}
	.st7{fill:#F38CA8;}
	.st8{fill:#EF728F;}
	.st9{fill:#FCE4EB;}
	.st10{fill:#F0CCCF;}
	.st11{fill:#DE8D95;}
	.st12{fill:#EBBABF;}
	.st13{fill:#E7ACB2;}
	.st14{fill:#E39DA3;}
	.st15{fill:#F5DEE0;}
	.st16{fill:#D97A83;}
	.st17{fill:#E4A6AD;}
	.st18{fill:#E9B6BB;}
	.st19{fill:#DA9197;}
	.st20{fill:#CC7077;}
	.st21{fill:#C9646C;}
	.st22{fill:#D4848B;}
	.st23{fill:#D17A81;}
	.st24{fill:#DD9EA3;}
	.st25{fill:#C65760;}
	.st26{fill:#D48189;}
	.st27{fill:#CF6E76;}
	.st28{fill:#C1575F;}
	.st29{fill:#B8424B;}
	.st30{fill:#B33C43;}
	.st31{fill:#BB4952;}
	.st32{fill:#C65E66;}
	.st33{fill:#BC4F57;}
	.st34{fill:#B0353D;}
	.st35{fill:#D67E84;}
	.st36{fill:#C6636B;}
	.st37{fill:#CA6C72;}
	.st38{fill:#B9454D;}
	.st39{fill:#C05B63;}
	.st40{fill:#C0545B;}
	.st41{fill:#BE4C53;}
	.st42{fill:#B43C44;}
	.st43{fill:#DF999F;}
	.st44{fill:#D27980;}
	.st45{fill:#C1555D;}
	.st46{fill:#CB6F76;}
	.st47{fill:#C8676E;}
	.st48{fill:#D5838A;}
	.st49{fill:#C65D64;}
	.st50{fill:#F1D1D4;}
	.st51{fill:#D38087;}
	.st52{fill:#CF737C;}
	.st53{fill:#D98C94;}
	.st54{fill:#E6B3B9;}
	.st55{fill:#D8898F;}
	.st56{fill:#C66269;}
	.st57{fill:#C96A72;}
	.st58{fill:#DD9399;}
	.st59{fill:#CF747B;}
	.st60{fill:#D48188;}
	.st61{fill:#D37D85;}
	.st62{fill:#DC9298;}
	.st63{fill:#D8838B;}
	.st64{fill:#FAECED;}
	.st65{fill:#EFCBD0;}
	.st66{fill:#EDC1C5;}
	.st67{fill:#D28089;}
	.st68{fill:#CB747D;}
	.st69{fill:#A8343C;}
	.st70{fill:#A62F37;}
	.st71{fill:#B03E44;}
	.st72{fill:#C25C63;}
	.st73{fill:#E1A8AC;}
	.st74{fill:#BE535C;}
	.st75{fill:#CE727C;}
	.st76{fill:#F5D8DA;}
	.st77{fill:#D8BAE7;}
	.st78{fill:#BC8FD2;}
	.st79{fill:#B17FC9;}
	.st80{fill:#7D3CA4;}
	.st81{fill:#884BAE;}
	.st82{fill:#A369BF;}
	.st83{fill:#D2B5E2;}
	.st84{fill:#9A62BC;}
	.st85{fill:#B17ECB;}
	.st86{fill:#ECE0F2;}
	.st87{fill:#FBCBC8;}
	.st88{fill:#F5908C;}
	.st89{fill:#F28580;}
	.st90{fill:#E64640;}
	.st91{fill:#E5413B;}
	.st92{fill:#E74E49;}
	.st93{fill:#ED6D68;}
	.st94{fill:#F7B5B0;}
	.st95{fill:#ED6660;}
	.st96{fill:#F48580;}
	.st97{fill:#FBDFDF;}
	.st98{fill:#F9C1C0;}
	.st99{fill:#F7B7B6;}
	.st100{fill:#EF7573;}
	.st101{fill:#EF6F6D;}
	.st102{fill:#F17F7C;}
	.st103{fill:#F4A19F;}
	.st104{fill:#F39998;}
	.st105{fill:#EC7271;}
	.st106{fill:#FAD1CF;}
	.st107{fill:#FADCDC;}
	.st108{fill:#F39391;}
	.st109{fill:#FDECEC;}
	.st110{fill:#FCDDDD;}
	.st111{fill:#ED8280;}
	.st112{fill:#E66160;}
	.st113{fill:#F18784;}
	.st114{fill:#F19593;}
	.st115{fill:#EB7675;}
	.st116{fill:#E86867;}
	.st117{fill:#F28785;}
	.st118{fill:#F3A7A7;}
	.st119{fill:#F08C8B;}
	.st120{fill:#F08785;}
	.st121{fill:#E55D5B;}
	.st122{fill:#E86D6C;}
	.st123{fill:#E85F5D;}
	.st124{fill:#E75958;}
	.st125{fill:#EA6664;}
	.st126{fill:#E76260;}
	.st127{fill:#E04948;}
	.st128{fill:#ED7371;}
	.st129{fill:#EA6B6A;}
	.st130{fill:#EB6763;}
	.st131{fill:#E45352;}
	.st132{fill:#E54E4C;}
	.st133{fill:#DE3635;}
	.st134{fill:#E65958;}
	.st135{fill:#E0413E;}
	.st136{fill:#EA6D6A;}
	.st137{fill:#EE9493;}
	.st138{fill:#EA6866;}
	.st139{fill:#F2A8A6;}
	.st140{fill:#E14543;}
	.st141{fill:#E3413F;}
	.st142{fill:#E64A48;}
	.st143{fill:#E56967;}
	.st144{fill:#E33F3D;}
	.st145{fill:#EB7775;}
	.st146{fill:#EE8483;}
	.st147{fill:#E64845;}
	.st148{fill:#E75655;}
	.st149{fill:#E65451;}
	.st150{fill:#EA7473;}
	.st151{fill:#E55B57;}
	.st152{fill:#E75756;}
	.st153{fill:#EB7472;}
	.st154{fill:#EE8C8A;}
	.st155{fill:#F5A3A2;}
	.st156{fill:#E14A49;}
	.st157{fill:#E14D4C;}
	.st158{fill:#E14B49;}
	.st159{fill:#DE3E3D;}
	.st160{fill:#E45350;}
	.st161{fill:#E14544;}
	.st162{fill:#E54E4B;}
	.st163{fill:#E34240;}
	.st164{fill:#E75C5A;}
	.st165{fill:#EB7C7B;}
	.st166{fill:#F3A2A1;}
	.st167{fill:#EA7877;}
	.st168{fill:#E66B6A;}
	.st169{fill:#E96A69;}
	.st170{fill:#E56160;}
	.st171{fill:#E44845;}
	.st172{fill:#EC7473;}
	.st173{fill:#F9C0D3;}
	.st174{fill:#F298B5;}
	.st175{fill:#EE89A7;}
	.st176{fill:#E54D73;}
	.st177{fill:#E44771;}
	.st178{fill:#E7567E;}
	.st179{fill:#EC7797;}
	.st180{fill:#F8BCCF;}
	.st181{fill:#EB6D8F;}
	.st182{fill:#F089A8;}
	.st183{fill:#FCE2EB;}
	.st184{fill:#E55B7F;}
	.st185{fill:#E6708E;}
	.st186{fill:#EB87A2;}
	.st187{fill:#E25677;}
	.st188{fill:#E7678B;}
	.st189{fill:#FBD7E3;}
	.st190{fill:#ED80A1;}
	.st191{fill:#E24166;}
	.st192{fill:#E13B65;}
	.st193{fill:#E34870;}
	.st194{fill:#E76486;}
	.st195{fill:#F49DB8;}
	.st196{fill:#F7BFD1;}
	.st197{fill:#E65C7F;}
	.st198{fill:#F6ABC4;}
	.st199{fill:#F6A7C2;}
	.st200{fill:#EA6189;}
	.st201{fill:#DB3258;}
	.st202{fill:#DA2E55;}
	.st203{fill:#F7B2C9;}
	.st204{fill:#EA6A8D;}
	.st205{fill:#DC355B;}
	.st206{fill:#DB3159;}
	.st207{fill:#DF3C63;}
	.st208{fill:#F9C5D6;}
	.st209{fill:#EB7697;}
	.st210{fill:#DE3B61;}
	.st211{fill:#DE375F;}
	.st212{fill:#E1426A;}
	.st213{fill:#FDE7EE;}
	.st214{fill:#EE89A9;}
	.st215{fill:#E2456B;}
	.st216{fill:#E14069;}
	.st217{fill:#E44D75;}
	.st218{fill:#E86B8C;}
	.st219{fill:#EE7A9C;}
	.st220{fill:#F5A8C0;}
	.st221{fill:#FACBDA;}
	.st222{fill:#E65A7D;}
	.st223{fill:#E04169;}
	.st224{fill:#FEF5F9;}
	.st225{fill:#F191B0;}
	.st226{fill:#EA7292;}
	.st227{fill:#F6B4C9;}
	.st228{fill:#FBD8E5;}
	.st229{fill:#E96C8F;}
	.st230{fill:#E35477;}
	.st231{fill:#EA7396;}
	.st232{fill:#EB7A9D;}
	.st233{fill:#E8698D;}
	.st234{fill:#EB7094;}
	.st235{fill:#E04B6E;}
	.st236{fill:#E66085;}
	.st237{fill:#EB7294;}
	.st238{fill:#E7678C;}
	.st239{fill:#EA6D91;}
	.st240{fill:#E14C71;}
	.st241{fill:#EE7A9D;}
	.st242{fill:#F393B2;}
	.st243{fill:#DC3F64;}
	.st244{fill:#EF82A3;}
	.st245{fill:#F39DB9;}
	.st246{fill:#DF466B;}
	.st247{fill:#DF4469;}
	.st248{fill:#F29A98;}
	.st249{fill:#E64F4D;}
	.st250{fill:#E74947;}
	.st251{fill:#E85956;}
	.st252{fill:#EC7775;}
	.st253{fill:#F8BCBA;}
	.st254{fill:#EC6F6D;}
	.st255{fill:#FCE2E2;}
	.st256{fill:#F8C8C6;}
	.st257{fill:#F08B89;}
	.st258{fill:#F18A89;}
	.st259{fill:#B093A4;}
	.st260{fill:#A38295;}
	.st261{fill:#6F455A;}
	.st262{fill:#694055;}
	.st263{fill:#794F64;}
	.st264{fill:#936F83;}
	.st265{fill:#CDB7C1;}
	.st266{fill:#B596A5;}
	.st267{fill:#A58394;}
	.st268{fill:#8C667A;}
	.st269{fill:#B696A7;}
	.st270{fill:#E8E0E7;}
	.st271{fill:#E1BCC2;}
	.st272{fill:#A9666E;}
	.st273{fill:#681C23;}
	.st274{fill:#641920;}
	.st275{fill:#73242D;}
	.st276{fill:#8D3F48;}
	.st277{fill:#C69197;}
	.st278{fill:#893841;}
	.st279{fill:#E3CCCE;}
	.st280{fill:#6F292E;}
	.st281{fill:#A15A63;}
	.st282{fill:#944952;}
	.st283{fill:#944953;}
	.st284{fill:#964A53;}
	.st285{fill:#984B54;}
	.st286{fill:#974A53;}
	.st287{fill:#A25A62;}
	.st288{fill:#D2BCC8;}
	.st289{fill:#C8B2BE;}
	.st290{fill:#936A80;}
	.st291{fill:#8E667B;}
	.st292{fill:#9B7589;}
	.st293{fill:#B293A3;}
	.st294{fill:#916B7F;}
	.st295{fill:#DDCCD6;}
	.st296{fill:#AC8B9C;}
	.st297{fill:#F1EBEF;}
	.st298{fill:#9C7A8C;}
	.st299{fill:#8F6C80;}
	.st300{fill:#B99DAC;}
	.st301{fill:#A27F91;}
	.st302{fill:#C2A7B6;}
	.st303{fill:#AB8E9F;}
	.st304{fill:#936D82;}
	.st305{fill:#856174;}
	.st306{fill:#B99DAB;}
	.st307{fill:#C2A9B6;}
	.st308{fill:#A38091;}
	.st309{fill:#BBA3B0;}
	.st310{fill:#7A5468;}
	.st311{fill:#855F73;}
	.st312{fill:#AE8E9F;}
	.st313{fill:#7C556A;}
	.st314{fill:#7B5066;}
	.st315{fill:#855C71;}
	.st316{fill:#AF8E9F;}
	.st317{fill:#734B60;}
	.st318{fill:#694256;}
	.st319{fill:#916A80;}
	.st320{fill:#886378;}
	.st321{fill:#875C71;}
	.st322{fill:#714B5E;}
	.st323{fill:#582F42;}
	.st324{fill:#795066;}
	.st325{fill:#5E3A4B;}
	.st326{fill:#8A6578;}
	.st327{fill:#A98E9D;}
	.st328{fill:#B9A1B1;}
	.st329{fill:#B08F9F;}
	.st330{fill:#B898AA;}
	.st331{fill:#896578;}
	.st332{fill:#653C50;}
	.st333{fill:#623A4E;}
	.st334{fill:#6C4257;}
	.st335{fill:#B28FA1;}
	.st336{fill:#80596E;}
	.st337{fill:#7F586C;}
	.st338{fill:#765063;}
	.st339{fill:#683F53;}
	.st340{fill:#774E63;}
	.st341{fill:#704B5F;}
	.st342{fill:#674355;}
	.st343{fill:#7F5A6E;}
	.st344{fill:#815A6E;}
	.st345{fill:#6A4558;}
	.st346{fill:#5D374A;}
	.st347{fill:#926D80;}
	.st348{fill:#70475B;}
	.st349{fill:#72495E;}
	.st350{fill:#673D52;}
	.st351{fill:#673D51;}
	.st352{fill:#60364B;}
	.st353{fill:#795265;}
	.st354{fill:#683F52;}
	.st355{fill:#7A5368;}
	.st356{fill:#987387;}
	.st357{fill:#70475C;}
	.st358{fill:#A07D92;}
	.st359{fill:#81596E;}
	.st360{fill:#926C7F;}
	.st361{fill:#80596D;}
	.st362{fill:#CDC0E4;}
	.st363{fill:#A998CF;}
	.st364{fill:#644DA1;}
	.st365{fill:#5E479E;}
	.st366{fill:#6F56A9;}
	.st367{fill:#755CAC;}
	.st368{fill:#8975BA;}
	.st369{fill:#C4BAE0;}
	.st370{fill:#755DAD;}
	.st371{fill:#846DB7;}
	.st372{fill:#E7E2F2;}
	.st373{fill:#9B89C5;}
	.st374{fill:#8871B8;}
	.st375{fill:#9C89C6;}
	.st376{fill:#8673B9;}
	.st377{fill:#B9E1BA;}
	.st378{fill:#ADDBAE;}
	.st379{fill:#99D09A;}
	.st380{fill:#65B567;}
	.st381{fill:#5FB261;}
	.st382{fill:#70BB71;}
	.st383{fill:#8DCB8E;}
	.st384{fill:#CBE9CB;}
	.st385{fill:#86C687;}
	.st386{fill:#98D099;}
	.st387{fill:#EBF5EB;}
	.st388{fill:#B9D6C9;}
	.st389{fill:#8EBD9E;}
	.st390{fill:#7DB18E;}
	.st391{fill:#408251;}
	.st392{fill:#3A7F4C;}
	.st393{fill:#4A8C5B;}
	.st394{fill:#68A279;}
	.st395{fill:#B5D4BE;}
	.st396{fill:#7CB38B;}
	.st397{fill:#619D71;}
	.st398{fill:#E0ECE4;}
	.st399{fill:#74A38C;}
	.st400{fill:#679880;}
	.st401{fill:#669780;}
	.st402{fill:#669881;}
	.st403{fill:#285E41;}
	.st404{fill:#235A3C;}
	.st405{fill:#31684A;}
	.st406{fill:#4D8268;}
	.st407{fill:#A1C2B0;}
	.st408{fill:#679981;}
	.st409{fill:#467B62;}
	.st410{fill:#D6E5DF;}
	.st411{fill:#8ECA8F;}
	.st412{fill:#7DC07F;}
	.st413{fill:#409841;}
	.st414{fill:#3A933C;}
	.st415{fill:#4AA14B;}
	.st416{fill:#68B569;}
	.st417{fill:#7CC07D;}
	.st418{fill:#B5DDB5;}
	.st419{fill:#61B062;}
	.st420{fill:#7CC17E;}
	.st421{fill:#E0EFE0;}
	.st422{fill:#EBF5DE;}
	.st423{fill:#D4EAB8;}
	.st424{fill:#D2E9B4;}
	.st425{fill:#D8ECBE;}
	.st426{fill:#E2F0CE;}
	.st427{fill:#F3F9EA;}
	.st428{fill:#DFF0CA;}
	.st429{fill:#FAFDF7;}
	.st430{fill:#D3C9BE;}
	.st431{fill:#CBBEB3;}
	.st432{fill:#BBAC9F;}
	.st433{fill:#97826F;}
	.st434{fill:#947E69;}
	.st435{fill:#9F8A79;}
	.st436{fill:#B5A495;}
	.st437{fill:#DED6CE;}
	.st438{fill:#BBAD9F;}
	.st439{fill:#AE9E8D;}
	.st440{fill:#F2EFEC;}
	.st441{fill:#B1A091;}
	.st442{fill:#B1A090;}
	.st443{fill:#D8BACF;}
	.st444{fill:#976286;}
	.st445{fill:#905778;}
	.st446{fill:#4F1939;}
	.st447{fill:#4C1637;}
	.st448{fill:#5A2144;}
	.st449{fill:#773B60;}
	.st450{fill:#B88FAD;}
	.st451{fill:#6E345A;}
	.st452{fill:#8E567D;}
	.st453{fill:#E1CCDA;}
	.st454{fill:#C4E2A7;}
	.st455{fill:#93C35F;}
	.st456{fill:#8EC15A;}
	.st457{fill:#9AC868;}
	.st458{fill:#B0D587;}
	.st459{fill:#DCEBC3;}
	.st460{fill:#C8E0AA;}
	.st461{fill:#ABD280;}
	.st462{fill:#CAE2A9;}
	.st463{fill:#EFF8E7;}
	.st464{fill:#FFF6C0;}
	.st465{fill:#FFEC97;}
	.st466{fill:#FFDC4B;}
	.st467{fill:#FFD945;}
	.st468{fill:#FFDD54;}
	.st469{fill:#FFE774;}
	.st470{fill:#FFF4BA;}
	.st471{fill:#FFE46C;}
	.st472{fill:#FFF9E2;}
	.st473{fill:#FDE2C1;}
	.st474{fill:#F9CA98;}
	.st475{fill:#F9C18A;}
	.st476{fill:#F5994E;}
	.st477{fill:#F49448;}
	.st478{fill:#F8A158;}
	.st479{fill:#F8B577;}
	.st480{fill:#FCDDBC;}
	.st481{fill:#F8B06F;}
	.st482{fill:#FFEFE2;}
	.st483{fill:#F8A7A4;}
	.st484{fill:#EF8262;}
	.st485{fill:#EC605A;}
	.st486{fill:#EB5B55;}
	.st487{fill:#EC6964;}
	.st488{fill:#F28783;}
	.st489{fill:#F9C4C1;}
	.st490{fill:#F2817A;}
	.st491{fill:#EB6449;}
	.st492{fill:#FCE7E7;}
	.st493{fill:#FFEA88;}
	.st494{fill:#FFEB87;}
	.st495{fill:#FDF2E3;}
	.st496{fill:#FDEFDD;}
	.st497{fill:#F9E1C4;}
	.st498{fill:#FADEB9;}
	.st499{fill:#FADDB7;}
	.st500{fill:#FAE0BF;}
	.st501{fill:#FBE9CF;}
	.st502{fill:#F9DAB8;}
	.st503{fill:#FDF5EB;}
	.st504{fill:#FBE6CB;}
	.st505{fill:#FFFBF7;}
	.st506{fill:#FBDFBE;}
	.st507{fill:#F7D8B5;}
	.st508{fill:#FBE8CF;}
	.st509{fill:#FBE3C8;}
	.st510{fill:#F9E8CF;}
	.st511{fill:#F8DBB7;}
	.st512{fill:#FADBB5;}
	.st513{fill:#F7D5AE;}
	.st514{fill:#FDE9D5;}
	.st515{fill:#FAE3C8;}
	.st516{fill:#F7D1A4;}
	.st517{fill:#F5CD9D;}
	.st518{fill:#F7D8B0;}
	.st519{fill:#F8D4A9;}
	.st520{fill:#F8D3A6;}
	.st521{fill:#F8D8AF;}
	.st522{fill:#F7CD9E;}
	.st523{fill:#F4C896;}
	.st524{fill:#FBE3C5;}
	.st525{fill:#F7DBB8;}
	.st526{fill:#F7D8B1;}
	.st527{fill:#F7D7B0;}
	.st528{fill:#F8CD9F;}
	.st529{fill:#F8CD9E;}
	.st530{fill:#F1BE84;}
	.st531{fill:#F8D0A3;}
	.st532{fill:#F1C38D;}
	.st533{fill:#F8D8B1;}
	.st534{fill:#FBE2C8;}
	.st535{fill:#F9EAD3;}
	.st536{fill:#F9D3AA;}
	.st537{fill:#F7C896;}
	.st538{fill:#F7C794;}
	.st539{fill:#F7CA9A;}
	.st540{fill:#F7D3AB;}
	.st541{fill:#F8D8B5;}
	.st542{fill:#F9E6CF;}
	.st543{fill:#F7C897;}
	.st544{fill:#F8D3AA;}
	.st545{fill:#F7CEA2;}
	.st546{fill:#F4CD9E;}
	.st547{fill:#F5D2A5;}
	.st548{fill:#FBE2C2;}
	.st549{fill:#F5D1A8;}
	.st550{fill:#F8D5AB;}
	.st551{fill:#F2C695;}
	.st552{fill:#F8D3A8;}
	.st553{fill:#F5C998;}
	.st554{fill:#F5C894;}
	.st555{fill:#F2C997;}
	.st556{fill:#F2C48D;}
	.st557{fill:#F4C694;}
	.st558{fill:#F5CE9D;}
	.st559{fill:#F4C594;}
	.st560{fill:#F5C995;}
	.st561{fill:#F4C48F;}
	.st562{fill:#F7D2A6;}
	.st563{fill:#F8DFBB;}
	.st564{fill:#FBE2C3;}
	.st565{fill:#F8CC9E;}
	.st566{fill:#FADFC1;}
	.st567{fill:#F9D8B5;}
	.st568{fill:#F4C997;}
	.st569{fill:#F9DDB8;}
	.st570{fill:#FDFCED;}
	.st571{fill:#FBF7D2;}
	.st572{fill:#F9F6CB;}
	.st573{fill:#F4EBA8;}
	.st574{fill:#F5E9A6;}
	.st575{fill:#F5EDAC;}
	.st576{fill:#F7F5C0;}
	.st577{fill:#FBFBE1;}
	.st578{fill:#F7F0BE;}
	.st579{fill:#FAF6CE;}
	.st580{fill:#FFFBF5;}
	.st581{fill:#BDDB97;}
	.st582{fill:#BBDC99;}
	.st583{fill:#BDDD99;}
	.st584{fill:#B0D484;}
	.st585{fill:#AFD484;}
	.st586{fill:#FFEA87;}
	.st587{fill:#D3E9BA;}
	.st588{fill:#E1EECE;}
	.st589{fill:#D3E8BB;}
	.st590{fill:#E3EECE;}
	.st591{opacity:0.9;}
	.st592{fill:#FFF8CD;}
	.st593{opacity:0.9;fill:#FFEE8A;}
	.st594{fill:#FFF19E;}
	.st595{fill:#FFF5B6;}
	.st596{fill:#FFFBE0;}
	.st597{fill:none;stroke:#FFF4B1;stroke-width:0;}
	.st598{fill:#FFFDF3;}
	.st599{fill:#FACEDD;}
	.st600{opacity:0.9;fill:#F38CAF;}
	.st601{fill:#F5A0BD;}
	.st602{fill:#F8B8CD;}
	.st603{fill:#FCE1EA;}
	.st604{fill:none;stroke:#F7B2C9;stroke-width:0;}
	.st605{fill:#FEF3F7;}
	.st606{fill:#FBDBB6;}
	.st607{fill:#FBD1A3;}
	.st608{fill:#F9B674;}
	.st609{fill:#F8B36E;}
	.st610{fill:#FABB7E;}
	.st611{fill:#FACB99;}
	.st612{fill:#FDE9D1;}
	.st613{fill:#FAC893;}
	.st614{fill:#F9D0A1;}
	.st615{fill:#FFF5EC;}
	.st616{fill:#D7ECC0;}
	.st617{fill:#B1D684;}
	.st618{fill:#ADD680;}
	.st619{fill:#B7D98D;}
	.st620{fill:#C8E2A7;}
	.st621{fill:#E8F2D6;}
	.st622{fill:#C3E0A0;}
	.st623{fill:#F5FAEF;}
	.st624{fill:#A87699;}
	.st625{fill:#A9716E;}
	.st626{fill:#9F698A;}
	.st627{fill:#9F698D;}
	.st628{fill:#65294F;}
	.st629{fill:#632638;}
	.st630{fill:#62244A;}
	.st631{fill:#612335;}
	.st632{fill:#6E3259;}
	.st633{fill:#6D2F40;}
	.st634{fill:#8B4E74;}
	.st635{fill:#C4A1BB;}
	.st636{fill:#9D688D;}
	.st637{fill:#82476E;}
	.st638{fill:#E7D6E1;}
	.st639{fill:#FFF9D6;}
	.st640{fill:#FFF2A6;}
	.st641{fill:#FFF4B0;}
	.st642{fill:#FFF7C4;}
	.st643{fill:#FFFCE6;}
	.st644{fill:#FFF3B5;}
	.st645{fill:#FFED8B;}
	.st646{fill:#FFED94;}
	.st647{fill:#FFF1A4;}
	.st648{fill:#FFF5BF;}
	.st649{fill:#FFF6CD;}
	.st650{fill:#FFE46E;}
	.st651{fill:#FFED98;}
	.st652{fill:#FFF3A9;}
	.st653{fill:#FFEC8D;}
	.st654{fill:#FFE66B;}
	.st655{fill:#FFEC8A;}
	.st656{fill:#FFE66D;}
	.st657{fill:#FFE571;}
	.st658{fill:#FFEF94;}
	.st659{fill:#FFEF9E;}
	.st660{fill:#FFED93;}
	.st661{fill:#FFE873;}
	.st662{fill:#FFE97A;}
	.st663{fill:#FFEC87;}
	.st664{fill:#FFF19F;}
	.st665{fill:#FFF1A8;}
	.st666{fill:#FFEA7E;}
	.st667{fill:#FFEB86;}
	.st668{fill:#FFEF97;}
	.st669{fill:#FFF2B0;}
	.st670{fill:#FFF4BC;}
	.st671{fill:#FFF5C1;}
	.st672{fill:#FFF8CF;}
	.st673{fill:#FFF8DC;}
	.st674{fill:#FFF0A0;}
	.st675{fill:#FFEE92;}
	.st676{fill:#FFF6CE;}
	.st677{fill:#FFFADD;}
	.st678{fill:#FFFBEC;}
	.st679{fill:#FFFDF5;}
	.st680{fill:#F49C52;}
	.st681{fill:#F69D52;}
	.st682{fill:#F8A55E;}
	.st683{fill:#F8B472;}
	.st684{fill:#F59D54;}
	.st685{fill:#F8A65F;}
	.st686{fill:#F8B474;}
	.st687{fill:#FDF3E9;}
	.st688{fill:#FAE8D1;}
	.st689{fill:#FAE8CF;}
	.st690{fill:#FAEBD4;}
	.st691{fill:#F9EDD7;}
	.st692{fill:#FBEFDE;}
	.st693{fill:#FBEFDD;}
	.st694{fill:#FDF8F1;}
	.st695{fill:#FBEDD7;}
	.st696{fill:#FBEFDC;}
	.st697{fill:#FFFBFA;}
	.st698{fill:#FFE771;}
	.st699{fill:#FFEB83;}
	.st700{fill:#FFED90;}
	.st701{fill:#F7B6CB;}
	.st702{fill:#F4A2BB;}
	.st703{fill:#EE7397;}
	.st704{fill:#ED6D94;}
	.st705{fill:#EF7C9F;}
	.st706{fill:#F399B5;}
	.st707{fill:#FAD1DE;}
	.st708{fill:#F291AE;}
	.st709{fill:#F3A1BB;}
	.st710{fill:#FDECF2;}
</style>
<g>
	<path class="st570" d="M104.89,82.46L104.89,82.46c-0.28,1.56-0.52,2.99-0.69,4.29l0,0C104.37,85.46,104.6,84.02,104.89,82.46
		 M106.37,74.08L106.37,74.08L106.37,74.08c-0.06,1.01-0.14,1.64-0.14,1.67c0,0,0,0,0,0c-0.05,0.24-0.1,0.48-0.15,0.71l0,0
		c0.05-0.23,0.1-0.47,0.15-0.71C106.23,75.76,106.31,75.12,106.37,74.08L106.37,74.08 M106.45,71.88L106.45,71.88
		c0,0.13,0,0.25,0,0.38l0,0l0,0c0,0.03,0,0.05,0,0.07l0,0c0-0.02,0-0.05,0-0.07C106.45,72.13,106.45,72.01,106.45,71.88
		L106.45,71.88 M105.21,62.85L105.21,62.85c0.12,0.44,0.25,0.91,0.36,1.42c0.37,1.65,0.66,3.6,0.78,5.47
		c0.04,0.45,0.06,0.94,0.08,1.41c0.01,0.28,0.01,0.51,0.01,0.74l0,0c0-0.22,0-0.45-0.01-0.72c0,0,0-0.01,0-0.01
		c-0.02-0.47-0.04-0.96-0.08-1.41c-0.12-1.86-0.41-3.82-0.78-5.47c-0.02-0.08-0.04-0.15-0.05-0.23
		C105.42,63.62,105.32,63.22,105.21,62.85 M102.59,55.52c0,0,0,0.01,0.01,0.01c0.29,0.51,0.44,0.81,0.44,0.81
		c0.02,0.06,0.04,0.11,0.06,0.17l0,0c-0.02-0.06-0.04-0.11-0.06-0.17l0,0c0,0,0,0,0,0c-0.01-0.02-0.16-0.32-0.44-0.81l0,0
		C102.6,55.53,102.6,55.53,102.59,55.52 M96.05,47.21L96.05,47.21c0.12,0.11,0.23,0.21,0.34,0.32c2.11,1.96,3.81,4.17,4.93,5.89l0,0
		l0,0c-0.04-0.06-0.08-0.12-0.12-0.18c-1.12-1.69-2.78-3.82-4.81-5.71l0,0l0,0C96.28,47.42,96.16,47.32,96.05,47.21 M84.7,41.49
		L84.7,41.49c0.56,0,1.27,0.11,2.08,0.33l0,0c-0.77-0.21-1.45-0.32-1.99-0.33C84.76,41.49,84.73,41.49,84.7,41.49 M84.7,41.49
		c-0.12,0-0.23,0.01-0.34,0.02l0,0C84.47,41.5,84.58,41.49,84.7,41.49L84.7,41.49 M71.9,39.61l-0.21,0l0,0
		c-0.89,0.01-2.18,0.08-3.75,0.35l0,0l0,0c-0.39,0.07-0.8,0.14-1.22,0.23l0,0l0,0c-0.22,0.05-0.44,0.1-0.67,0.15l0,0
		c-0.24,0.06-0.47,0.11-0.62,0.16c-0.7,0.21-1.45,0.5-2.22,0.81c-0.05,0.02-0.1,0.04-0.15,0.06c-1.25,0.55-2.56,1.26-3.87,2.17l0,0
		c1.36-0.95,2.73-1.68,4.01-2.24c0.77-0.32,1.52-0.61,2.22-0.81c0.15-0.05,0.38-0.11,0.62-0.16c0.23-0.05,0.45-0.1,0.67-0.15
		c0.42-0.09,0.83-0.16,1.22-0.23c1.57-0.26,2.86-0.34,3.75-0.35L71.9,39.61c0.75,0,1.16,0.04,1.16,0.04
		c0.02,0.01,0.05,0.01,0.08,0.02c-0.03-0.01-0.05-0.01-0.08-0.02C73.06,39.65,72.65,39.61,71.9,39.61"/>
	<path class="st571" d="M71.97,39.7c-1.46,0-2.88,0.1-4.33,0.34c-0.42,0.07-0.81,0.14-1.25,0.24c-0.22,0.05-0.43,0.1-0.65,0.15
		c-0.22,0.05-0.34,0.1-0.52,0.15c-0.66,0.21-1.33,0.48-2.02,0.79c-1.36,0.67-2.7,1.39-4.03,2.19c-0.28,0.19-0.55,0.4-0.83,0.61l0,0
		l0,0l0,0l0,0l0,0l0,0c0.28-0.21,0.55-0.42,0.83-0.61c-2.09,1.25-4.13,2.66-6.17,4.24c-3.3,2.58-6.64,5.7-9.61,9.67
		c-0.78,1.07-1.71,2.48-2.35,3.77c-0.34,0.66-0.67,1.31-0.93,1.97c-0.28,0.66-0.55,1.31-0.76,1.97c-0.91,2.64-1.46,5.31-1.66,8.19
		c-0.06,1.01-0.55,3.38-0.57,6.13c0,0.1,0,0.19,0,0.29c0,2.66,0.67,5.59,1.13,7c0.79,2.49,2.94,5.28,5.82,7.17l12.14,7.97l7.18-10.4
		c0.89-1.29,1.37-2.66,1.6-3.73c0.21-1.7,0.49-3.13,0.92-4.35c0.23-0.62,0.42-1.13,0.72-1.64c0.3-0.51,0.68-0.98,1.11-1.39
		c0.19-0.1,0.39-0.14,0.59-0.14c0.52,0,1.03,0.27,1.39,0.27c0.32-0.09,0.57-0.23,0.85-0.39c0.32-0.13,0.41-0.37,0.73-0.53
		c0.32-0.17,0.74-0.27,1.16-0.27c0.36,0,0.74,0.07,1.07,0.23c0.49,0.43,0.8,0.8,0.99,1.09c0.19,0.29,0.34,0.5,0.4,0.88
		c0.03,0.18,0.04,0.37,0.04,0.55l0,0l0,0c0,0.55-0.1,1.09-0.14,1.46c-0.04,0.24-0.05,0.43-0.05,0.57c0,0.31,0.06,0.42,0.06,0.49l0,0
		l0,0c0,0.03-0.02,0.05-0.06,0.08c-0.69,0.94-2.04,0.38-3.33,1.42c-1.69,1.61-2.66,3.81-3.07,5.48c-1.06,3.7-2.5,7.86-5.27,11.12
		c0.92-0.41,1.93-0.49,2.78-0.87c1.74-0.92,3.1-2.94,4.79-4.55c0.79-0.56,1.52-0.89,2.47-1.25c1.4-0.42,2.25-2.14,3.27-3.66
		c1.09-1.98,3.68-2.98,5.08-5.5c0.73-1.26,1.04-2.73,1.04-4.13c0-0.41-0.03-0.81-0.08-1.21c-0.2-1.76-0.78-3.15-1.04-4.7
		c0.01,0.09,0.01,0.17,0.01,0.22l0,0l0,0c0,0.1-0.01,0.14-0.04,0.14c-0.19,0-1.06-2.09-2.59-3.68c-1.43-1.64-3.38-2.71-3.37-2.86
		l0,0l0,0c0-0.01,0.01-0.02,0.04-0.02c0.04,0,0.13,0.02,0.27,0.06c-0.28-0.15-0.68-0.9-0.7-1.29l0,0l0,0l0,0l0,0l0,0l0,0
		c0.15-0.22,0.14-0.67,0.45-0.67c0.05,0,0.1,0,0.15,0c1.16,0,1.92-0.25,2.58-0.63c0.69-0.4,1.23-0.89,2.01-1.15
		c-0.04-0.07-0.59-0.52-1.54-1.09c-0.38-0.25-0.86-0.49-1.37-0.75c-1.03-0.42-2.11-0.62-3.07-0.62c-0.1,0-0.2,0-0.29,0.01
		c-1.05,0.04-1.91,0.29-2.45,0.58c-1.15,0.84-2.37,0.57-3.4,1.48c0,0-0.27-0.22-0.86-0.6c-0.49,0.5-1.63,1.67-2.91,2.97
		c-0.74,0.75-1.4,1.42-2.04,1.74c-0.28,0.15-0.57,0.22-0.9,0.22c-0.41,0-0.89-0.12-1.51-0.35c0,0-0.12,0.01-0.33,0.03
		c-0.23,0.01-0.52,0.05-0.91,0.1c-0.09-0.01-0.18-0.01-0.28-0.01c-0.6,0-1.44,0.18-2.33,0.65c-1.04,0.52-2.04,1.32-2.98,1.86
		c-0.46,0.26-0.93,0.46-1.38,0.46c-0.44,0-0.88-0.19-1.29-0.68c0,0-0.17-0.23-0.47-0.7c-0.29,0.49-0.56,0.98-0.83,1.48L54,74.31
		c0.32-0.48,0.88-0.88,1.35-0.88c0.06,0,0.12,0.01,0.18,0.02c0.08,0,0.16,0.01,0.24,0.01c0.8,0,1.4-0.19,1.97-0.32
		c0.57-0.14,1.07-0.26,1.71-0.26c0.1,0,0.2,0,0.3,0.01c0.41,0.04,0.88,0.19,1.3,0.22c0.28,0.02,0.55,0.04,0.81,0.08l-0.95-0.73
		c-0.01-0.01-0.03-0.02-0.04-0.03c0,0-0.01-0.01-0.01-0.01l-0.02-0.02c-0.01,0-0.01-0.01-0.02-0.01l0,0l-0.06-0.05l-0.05-0.04
		l-0.03-0.02l-0.01-0.01l0,0l0,0l0,0h0l0,0l0.25,0.19c0.07,0.05,0.15,0.1,0.22,0.14c0.06,0.04,0.13,0.08,0.19,0.12
		c0.21,0.12,0.41,0.23,0.6,0.32c0.21,0.1,0.38,0.16,0.48,0.2c0.02,0.01,0.03,0.01,0.05,0.02c0.18,0.06,0.28,0.08,0.28,0.08l0,0l0,0
		c0,0,0,0,0,0c0,0-0.05-0.01-0.16-0.02c-0.09-0.01-0.25-0.02-0.45-0.02c-0.04,0-0.08,0-0.12,0l0.39,0.29l1.38,1.05
		c0.01,0.01,0.03,0.02,0.05,0.04l0.01,0l-0.07-0.17l0,0l0,0l0,0c0.12-0.09,0.5-0.32,1.16-0.58l0,0l0,0l0,0l0,0l0,0l0,0
		c-0.02,0.17-0.03,0.34-0.03,0.52c0,0.38,0.05,0.76,0.16,1.12c0.08,0.26,0.16,0.49,0.29,0.7l0.15,0.25l0,0l0,0l0,0
		c-0.1-0.15-0.22-0.3-0.34-0.45c-0.45-0.59-1.1-1.2-1.32-1.38l0,0L63.7,74.6l0,0l-1.32-1L62,73.3c-0.35,0.01-0.81,0.04-1.3,0.14
		c-0.85,0.15-1.82,0.56-2.33,0.88c-0.44,0.27-0.59,0.45-0.59,0.45c0,0,0,0,0,0l0,0l0,0c0,0,0.01-0.01,0.01-0.02L54,74.31
		c-0.11,0.16-0.2,0.33-0.24,0.5c0,0.01,0,0.03,0,0.05c0,0.12,0.03,0.31,0.17,0.49c0.07,0.11,0.15,0.23,0.24,0.37
		c0.11,0.11,0.23,0.22,0.36,0.35c0.43,0.37,1,0.59,1.54,0.59c0.02,0,0.04,0,0.06,0l0.34-0.04l0,0l0,0l0,0l0,0l0,0l0,0l0,0
		c-0.11,0.03-0.23,0.04-0.34,0.04l-9.03,1.14l0,0l0,0l0,0c0.59-1.26,1.26-2.66,2.01-4.05l-7.91-0.92l0,0l0,0l0,0
		c0.88-0.5,1.8-0.96,2.74-1.29c0.79-0.42,1.36-0.8,2.06-1.47c0.09-0.27,0.66-1.18,0.78-1.47c0.31-0.34,0.64-0.67,0.98-1.01
		c0.07-0.27,0.23-0.66,0.51-1.17c0-0.08,0-0.16,0-0.25l0,0l0,0c0-0.17,0-0.34,0.01-0.52c0.02-0.86,0.18-1.81,0.42-2.79
		c0.24-0.96,0.59-1.95,1.05-2.97c1.83-4.07,5.73-8.1,10.44-10.63c1.18-0.65,2.4-1.21,3.66-1.7c0.63-0.25,1.26-0.45,1.91-0.66
		c0.31-0.09,0.63-0.19,1.07-0.29c0.41-0.1,0.79-0.18,1.19-0.26c1.83-0.38,3.72-0.58,5.6-0.58c1.37,0,2.74,0.11,4.08,0.35
		c0,0,0.67,0.12,2.05,0.25c1.37,0.13,3.44,0.28,6.32,0.71c0,0,0.21,0.09,0.6,0.25c0.38,0.17,0.94,0.4,1.59,0.76
		c1.32,0.69,3.06,1.81,4.72,3.37c1.67,1.54,3.24,3.52,4.31,5.6c1.07,2.04,1.66,4.15,1.65,5.89l0,0l0,0c0,0.03,0,0.07,0,0.1
		c0,0,0.24,1.15,0.45,2.97c0.1,0.91,0.19,1.99,0.23,3.18c0.03,0.59,0.02,1.21,0.03,1.85l0,0l0,0l0,0l0,0l0,0l0,0
		c0,0.32-0.01,0.65-0.01,0.99c-0.01,0.34-0.02,0.59-0.04,0.89c-0.15,2.31-0.48,4.66-0.78,6.72c-0.29,1.95-0.54,3.68-0.54,5.01
		c0,0.08,0,0.15,0,0.23l0,0l0,0l0,0l0,0l0,0l0,0c0,0-0.65,1.06-1.26,2.42c-0.38,0.86-0.73,1.84-0.88,2.83c0,0.17,0,0.33,0,0.47l0,0
		l0,0l0,0l0,0l0,0l0,0c-0.01,0.81-0.02,1.28-0.02,1.28c-0.04-0.26-0.06-0.53-0.06-0.79l0,0l0,0c0-0.32,0.03-0.64,0.07-0.95
		c0-0.6,0-1.33,0-2.18c-0.05,0.82-0.12,1.63-0.19,2.43c-0.16,1.73-0.39,3.43-0.7,4.96c-0.6,3.06-1.54,5.38-2.17,5.75
		c0,0-0.31,0.76-0.9,1.92c-0.58,1.16-1.5,2.75-2.61,4.24c-1.91,2.63-4.34,4.89-5.92,5.87c0.45-0.2,0.91-0.38,1.37-0.56
		c2.48-0.97,5.03-1.72,7.4-2.47c1.76-0.44,3.79-0.73,5.78-1.84c1.96-1.11,3.85-3.12,4.75-6.45c0.95-3.91,0.93-7.34,1-10.39
		c0.02-1.51,0.09-3.03,0.26-4.64c-0.16,1.21-0.28,2.31-0.33,3.29c-0.11,1.7-0.14,3.25-0.15,4.37l0,0c0,0.14,0,0.27,0,0.39l0,0
		c0,0.89,0.01,1.42,0.01,1.42s-0.01-0.53-0.01-1.42l0,0c0,0.89,0.01,1.42,0.01,1.42s-0.01-0.53-0.01-1.42l0,0
		c0,0.89,0.01,1.42,0.01,1.42s-0.01-0.53-0.01-1.42l0,0c0,0.89,0.01,1.42,0.01,1.42s-0.01-0.53-0.01-1.42l0,0l0,0l0,0l0,0l0,0l0,0
		l0,0l0,0l0,0l0,0l0,0l0,0l0,0l0,0l0,0c0-0.12,0-0.25,0-0.39l0,0c0.01-1.12,0.04-2.67,0.15-4.37c0.06-0.98,0.17-2.08,0.33-3.29
		c0.15-1.35,0.37-2.76,0.69-4.29c0.33-1.82,0.73-3.82,1.2-6c0.11-0.84,0.21-1.7,0.27-2.58c0.04-0.7,0.07-1.41,0.08-2.14
		c0-0.03,0-0.07,0-0.1c0-0.32-0.02-0.75-0.04-1.18c-0.03-0.45-0.07-0.9-0.1-1.35c-0.15-1.81-0.46-3.67-0.96-5.59
		c-0.02-0.16-0.07-0.39-0.12-0.68c-0.28-0.98-0.57-1.76-0.8-2.22c-0.36-1.38-0.8-2.75-1.31-4.11c-1.89-3.3-4.26-6.65-7.06-9.31
		c-2.02-1.83-4.36-3.41-6.51-4.38c-0.99-0.45-1.93-0.78-2.76-1.01c-0.83-0.19-1.65-0.3-2.42-0.31c-0.05,0.01-0.11,0.01-0.15,0.02
		c0,0,0,0,0,0c0,0-0.03-0.01-0.07-0.02c-0.05,0-0.09,0-0.14,0c-1.83-0.5-3.5-0.88-5.05-1.15c-2.12-0.33-4.32-0.45-5.4-0.61
		c-0.33-0.02-0.65-0.03-0.97-0.04C72.37,39.7,72.17,39.7,71.97,39.7"/>
	<path class="st572" d="M103.71,94.81L103.71,94.81c0,0.89,0.01,1.42,0.01,1.42S103.71,95.7,103.71,94.81 M104.19,86.75
		c-0.16,1.21-0.28,2.31-0.33,3.29c-0.11,1.7-0.14,3.25-0.15,4.37l0,0l0,0c0.01-1.12,0.04-2.67,0.15-4.37
		C103.92,89.06,104.03,87.97,104.19,86.75L104.19,86.75 M103.11,56.52L103.11,56.52c0.51,1.35,0.95,2.72,1.31,4.11
		c0.23,0.46,0.52,1.24,0.8,2.22l0,0l0,0c-0.28-0.98-0.57-1.76-0.8-2.22l0,0c-0.01-0.05-0.02-0.09-0.04-0.14
		C104.03,59.15,103.6,57.83,103.11,56.52L103.11,56.52 M59.18,43.56L59.18,43.56c-0.28,0.19-0.55,0.4-0.83,0.61l0,0
		C58.63,43.96,58.91,43.75,59.18,43.56L59.18,43.56 M86.78,41.82L86.78,41.82c0.83,0.22,1.77,0.56,2.76,1.01
		c2.15,0.97,4.49,2.55,6.51,4.38l0,0l0,0c-1.94-1.76-4.17-3.28-6.24-4.26c-0.09-0.04-0.18-0.08-0.27-0.12l0,0
		C88.55,42.38,87.61,42.04,86.78,41.82L86.78,41.82 M84.36,41.51c-0.05,0.01-0.11,0.01-0.15,0.02c0,0,0,0,0,0c0,0,0,0,0,0
		C84.26,41.52,84.31,41.51,84.36,41.51L84.36,41.51L84.36,41.51 M73.54,39.74L73.54,39.74c1.08,0.16,3.28,0.28,5.4,0.61l0,0l0,0
		C76.83,40.02,74.62,39.9,73.54,39.74L73.54,39.74"/>
	<path class="st571" d="M73.54,39.74c1.08,0.16,3.28,0.28,5.4,0.61C77,40.01,75.24,39.83,73.54,39.74"/>
	<path class="st571" d="M84.21,41.51c-0.02,0-0.05,0-0.07,0c0.04,0.01,0.07,0.02,0.07,0.02c0,0,0,0,0,0
		c0.05-0.01,0.1-0.01,0.15-0.02C84.31,41.51,84.26,41.51,84.21,41.51"/>
	<path class="st571" d="M77.25,50.67c0.71,0.14,1.56,0.35,2.47,0.63c1.78,0.54,3.72,1.49,5.29,2.48c-1.28-1-3.05-2.02-5.29-2.64
		C78.95,50.92,78.12,50.77,77.25,50.67 M86.78,41.82c0.83,0.22,1.77,0.56,2.76,1.01c2.15,0.97,4.49,2.55,6.51,4.38
		c-0.47-0.44-0.94-0.86-1.43-1.26C92.12,43.85,89.34,42.42,86.78,41.82"/>
	<path class="st571" d="M63.7,54.71c-1.2,0.99-2.3,2.16-3.21,3.5c0.1-0.02,0.21-0.04,0.32-0.07C61.59,56.94,62.57,55.77,63.7,54.71"
		/>
	<path class="st571" d="M76.45,59.58c0.24,0.1,0.49,0.21,0.73,0.33c0.11,0.05,0.21,0.1,0.32,0.15c0.22,0.02,0.44,0.04,0.66,0.07
		c1.06,0.14,2.11,0.42,3.14,0.82c-0.97-0.55-2.01-0.95-3.06-1.16C77.63,59.67,77.04,59.6,76.45,59.58 M103.11,56.52
		c0.51,1.35,0.95,2.72,1.31,4.11c0.23,0.46,0.52,1.24,0.8,2.22c-0.14-0.68-0.38-1.66-0.68-2.65c-0.43-1.4-0.98-2.82-1.32-3.51
		C103.17,56.64,103.14,56.58,103.11,56.52"/>
	<path class="st571" d="M65.93,65.23c-0.11,0.07-0.23,0.13-0.34,0.2c0.34,0.08,0.71,0.15,1.11,0.21
		C66.47,65.52,66.21,65.37,65.93,65.23"/>
	<path class="st571" d="M60.66,72.29l0.14,0.11l0.02,0.02c0.01,0.01,0.02,0.02,0.03,0.03c0.01,0.01,0.02,0.01,0.02,0.02L60.66,72.29
		"/>
	<path class="st571" d="M60.88,72.45l0.01,0.01c0,0,0.01,0.01,0.01,0.01l-0.02-0.01C60.89,72.46,60.89,72.45,60.88,72.45"/>
	<path class="st571" d="M60.91,72.47l0.94,0.72c0.29,0.04,0.56,0.08,0.82,0.14c0,0,0.01,0,0.01,0c0,0,0,0,0,0
		c0,0-0.1-0.02-0.24-0.07c-0.01,0-0.02-0.01-0.04-0.01c0,0-0.01,0-0.01-0.01c-0.01,0-0.02-0.01-0.03-0.01
		c-0.12-0.04-0.28-0.1-0.46-0.19c-0.08-0.04-0.17-0.08-0.27-0.13c-0.1-0.05-0.22-0.12-0.33-0.19c-0.06-0.04-0.13-0.08-0.19-0.12
		c-0.01,0-0.02-0.01-0.02-0.01C61.03,72.55,60.97,72.51,60.91,72.47"/>
	<path class="st571" d="M106.08,76.47c-0.46,2.18-0.86,4.18-1.2,6c0.05-0.23,0.1-0.46,0.15-0.7
		C105.48,80.03,105.84,78.28,106.08,76.47"/>
	<path class="st571" d="M61.13,104.7c-0.28,0.23-0.56,0.45-0.86,0.66c0.07-0.01,0.14-0.01,0.21-0.01c0.04,0,0.07,0,0.11,0
		C60.77,105.14,60.96,104.92,61.13,104.7"/>
	<path class="st571" d="M82.78,113.51c-0.42,0.08-1.5,0.31-2.8,0.74c-0.68,0.75-1.37,1.48-2.06,2.2c-3.24,2.63-6.03,5.29-9.41,6.23
		c-2.23,0.59-4.41,0.99-6.46,0.99c-1.25,0-2.46-0.15-3.6-0.5c-0.17-0.05-0.24-0.2-0.24-0.4l0,0l0,0c0-0.11,0.02-0.23,0.06-0.37
		c-0.06,0.18-0.09,0.35-0.09,0.49c0,0.2,0.07,0.35,0.24,0.4c1.14,0.35,2.35,0.5,3.6,0.5c2.05,0,4.23-0.41,6.46-0.99
		c3.38-0.95,6.17-3.61,9.41-6.23C79.43,115.28,81.08,114.31,82.78,113.51"/>
	<path class="st573" d="M83.04,91.55c-0.03,0.04-0.06,0.07-0.08,0.11c-0.13,0.63-0.3,1.26-0.51,1.9c-0.58,1.96-1.06,3.56-1.67,5.07
		c-0.6,1.5-1.35,2.93-2.53,4.5c-2.56,2.71-5.19,5.06-8.29,8.22c-0.36,0.48-0.72,0.96-0.86,1.43c-0.14,0.46-1.03,1.22-1.4,1.7
		c-2.9,2.27-6.19,3.65-8.55,6.35c-0.38,0.42-0.76,1.07-0.9,1.58c0.16-0.49,0.51-1.07,0.86-1.46c2.37-2.69,5.66-4.07,8.56-6.35
		c0.37-0.49,1.26-1.24,1.4-1.71c0.14-0.47,0.51-0.95,0.86-1.43c3.11-3.16,5.74-5.51,8.32-8.22c2.35-3.16,3.04-5.67,4.23-9.58
		C82.72,92.96,82.9,92.25,83.04,91.55"/>
	<path class="st574" d="M77.5,60.07c0.52,0.25,1.01,0.51,1.47,0.78c2.2,1.3,3.62,2.72,4.37,3.65c2.4,2.91,3.86,6.13,4.42,9.56
		C87.92,74.94,88,75.87,88,76.8l0,0l0,0c0,2.57-0.61,5.16-1.82,7.24c-0.26,0.59-0.55,1.37-0.57,1.86c-0.14,1.91-1.08,3.64-2.03,4.95
		c-0.18,0.25-0.36,0.48-0.53,0.71c-0.14,0.7-0.32,1.41-0.55,2.12c-1.19,3.91-1.89,6.41-4.23,9.58c-2.58,2.72-5.21,5.06-8.32,8.22
		c-0.36,0.48-0.73,0.96-0.86,1.43c-0.14,0.47-1.04,1.22-1.4,1.71c-2.9,2.27-6.19,3.65-8.56,6.35c-0.35,0.39-0.7,0.97-0.86,1.46
		c-0.04,0.14-0.06,0.26-0.06,0.37c0,0.2,0.07,0.35,0.24,0.4c1.14,0.35,2.35,0.5,3.6,0.5c2.05,0,4.23-0.41,6.46-0.99
		c3.38-0.95,6.17-3.6,9.41-6.23c0.69-0.72,1.38-1.45,2.06-2.2c-0.08,0.03-0.17,0.06-0.26,0.09c-1.81,0.63-3.98,1.63-5.53,3.47
		c0,0-6.84,3.85-8.79,3.85c-0.33,0-0.52-0.11-0.52-0.36l0,0l0,0c0-0.32,0.32-0.88,1.06-1.76c0,0,2.43-3.62,3.83-5.32
		c0,0,1.43-1.28,3.6-3.22c2.12-1.94,4.84-4.54,7.06-7.52c1.1-1.5,2.07-3.06,2.84-4.67c0.78-1.61,1.4-3.23,1.91-4.68
		c1-2.91,1.61-5.13,1.98-5.51c0,0,0.14-0.52,0.39-1.44c0.24-0.93,0.56-2.27,0.86-3.94c0.3-1.76,0.6-3.94,0.6-6.33
		c0-2.1-0.23-4.37-0.89-6.67c-0.71-2.43-1.93-4.81-3.65-6.71c-0.93-1.04-2.01-1.91-3.18-2.57c-1.02-0.4-2.08-0.68-3.14-0.82
		C77.94,60.11,77.72,60.08,77.5,60.07"/>
	<path class="st574" d="M68.66,62.89c-0.07,0.08-0.13,0.16-0.19,0.24c-0.13,0.17-0.24,0.35-0.35,0.53
		c-0.14,0.18-0.28,0.37-0.41,0.56c0,0-0.69,0.39-1.69,0.95c-0.03,0.02-0.06,0.03-0.09,0.05c0.28,0.15,0.54,0.29,0.76,0.42
		c0.26,0.04,0.53,0.07,0.81,0.09l0,0l0,0l0,0l0,0l0,0l0,0c0,0-0.09,0.09-0.25,0.25c0.59,0.38,0.86,0.6,0.86,0.6
		c1.03-0.91,2.25-0.64,3.4-1.48c0.54-0.29,1.4-0.54,2.45-0.58c0.1,0,0.2-0.01,0.29-0.01c0.96,0,2.04,0.21,3.07,0.62
		c-0.11-0.06-0.22-0.11-0.34-0.17c-0.67-0.29-1.44-0.62-2.17-0.85c-1.48-0.5-3.12-0.85-4.61-1.05C69.68,63,69.16,62.94,68.66,62.89"
		/>
	<path class="st575" d="M75.4,50.57c-1.97,0-4.06,0.32-6.1,1.02c-0.89,0.3-1.83,0.69-2.65,1.12c-0.79,0.43-1.56,0.92-2.3,1.48
		c-0.22,0.16-0.44,0.34-0.65,0.51c-1.13,1.06-2.11,2.24-2.89,3.43c0.85-0.17,2-0.36,3.36-0.47c0.69-0.06,1.43-0.09,2.22-0.09
		c1.57,0,3.31,0.13,5.07,0.47c1.32,0.25,2.65,0.63,3.89,1.08c0.38,0.15,0.74,0.29,1.09,0.44c0.59,0.02,1.19,0.08,1.78,0.21
		c1.05,0.21,2.09,0.61,3.06,1.16c1.17,0.66,2.25,1.54,3.18,2.57c1.71,1.9,2.94,4.28,3.65,6.71c0.66,2.31,0.89,4.57,0.89,6.67l0,0
		l0,0c0,2.4-0.3,4.57-0.6,6.33c-0.29,1.67-0.62,3.01-0.86,3.94c-0.25,0.92-0.39,1.44-0.39,1.44c-0.37,0.38-0.99,2.59-1.98,5.51
		c-0.5,1.45-1.12,3.08-1.91,4.68c-0.77,1.62-1.74,3.18-2.84,4.67c-2.22,2.98-4.94,5.58-7.06,7.52c-2.17,1.94-3.6,3.22-3.6,3.22
		c-1.4,1.71-3.83,5.32-3.83,5.32c-0.75,0.87-1.06,1.43-1.06,1.76c0,0.25,0.19,0.36,0.52,0.36c1.96,0,8.79-3.85,8.79-3.85
		c1.56-1.83,3.73-2.83,5.53-3.47c0.09-0.03,0.17-0.06,0.26-0.09c1.3-0.43,2.38-0.66,2.8-0.74c0.12-0.02,0.19-0.04,0.19-0.04
		c0.2-0.08,0.42-0.2,0.67-0.35c1.59-0.97,4.01-3.24,5.92-5.87c1.1-1.49,2.02-3.09,2.61-4.24c0.59-1.16,0.9-1.92,0.9-1.92
		c0.63-0.37,1.57-2.69,2.17-5.75c0.3-1.53,0.54-3.23,0.7-4.96c0.07-0.8,0.14-1.61,0.19-2.43c0-0.21,0-0.43,0-0.66
		c-0.03-2.76-0.04-6.64-0.6-10.85c-0.13-1.05-0.32-2.12-0.52-3.17c-0.23-1.1-0.49-2.31-0.82-3.38c-0.63-2.2-1.45-4.21-2.32-5.94
		c-1.71-3.48-3.58-5.81-3.9-7.06c0,0-0.14-0.21-0.43-0.59c-0.28-0.39-0.75-0.91-1.39-1.54c-0.32-0.31-0.69-0.64-1.12-0.97
		c-1.58-0.99-3.51-1.94-5.29-2.48c-0.91-0.28-1.76-0.49-2.47-0.63C76.65,50.61,76.03,50.57,75.4,50.57"/>
	<path class="st575" d="M62.64,62.28c-0.46,0-0.91,0.02-1.38,0.07c0.47,0.81,1.13,1.56,2.06,2.15c0.62,0.39,1.36,0.71,2.27,0.93
		c0.15-0.09,0.29-0.17,0.43-0.26c1-0.56,1.69-0.95,1.69-0.95c0.13-0.19,0.27-0.38,0.41-0.56c0.11-0.18,0.22-0.36,0.35-0.53
		c0.06-0.08,0.13-0.16,0.19-0.24c-0.86-0.09-1.63-0.16-2.24-0.24C65.17,62.45,63.92,62.28,62.64,62.28"/>
	<path class="st576" d="M73.6,45.77c-1.88,0-3.77,0.21-5.6,0.58c-0.4,0.08-0.78,0.16-1.19,0.26c-0.43,0.1-0.75,0.19-1.07,0.29
		c-0.64,0.21-1.28,0.42-1.91,0.66c-1.26,0.49-2.48,1.04-3.66,1.7c-4.71,2.53-8.61,6.56-10.44,10.63c-0.46,1.01-0.81,2.01-1.05,2.97
		c-0.24,0.98-0.4,1.92-0.42,2.79c-0.01,0.18-0.01,0.35-0.01,0.52c0,0.08,0,0.17,0,0.25c0.17-0.3,0.39-0.65,0.66-1.04
		c0.68-0.92,1.67-2.07,3.41-3.37c1.78-1.32,4.14-2.68,7.4-3.63c0.2-0.05,0.46-0.11,0.75-0.18c0.91-1.35,2.01-2.51,3.21-3.5
		c0.21-0.18,0.43-0.35,0.65-0.51c0.74-0.56,1.51-1.05,2.3-1.48c0.82-0.43,1.75-0.82,2.65-1.12c2.04-0.7,4.13-1.02,6.1-1.02
		c0.63,0,1.25,0.03,1.85,0.1c0.87,0.09,1.7,0.25,2.47,0.47c2.24,0.62,4.01,1.65,5.29,2.64c0.43,0.33,0.8,0.66,1.12,0.97
		c0.64,0.63,1.1,1.15,1.39,1.54c0.29,0.38,0.43,0.59,0.43,0.59c0.32,1.25,2.19,3.58,3.9,7.06c0.86,1.73,1.69,3.74,2.32,5.94
		c0.32,1.08,0.59,2.28,0.82,3.38c0.2,1.06,0.39,2.13,0.52,3.17c0.56,4.21,0.57,8.09,0.6,10.85c0,0.23,0,0.44,0,0.66
		c0,0.84,0,1.58,0,2.18c0.15-1,0.5-1.98,0.88-2.83c0.6-1.36,1.26-2.42,1.26-2.42c0-0.07,0-0.15,0-0.23l0,0l0,0
		c0-1.34,0.25-3.06,0.54-5.01c0.3-2.07,0.63-4.41,0.78-6.72c0.02-0.3,0.03-0.55,0.04-0.89c0-0.34,0.01-0.67,0.01-0.99
		c-0.01-0.63,0-1.26-0.03-1.85c-0.04-1.19-0.14-2.26-0.23-3.18c-0.22-1.82-0.45-2.97-0.45-2.97l0,0l0,0l0,0l0,0l0,0l0,0
		c0-0.03,0-0.07,0-0.1c0-1.73-0.59-3.85-1.65-5.89c-1.08-2.08-2.65-4.06-4.31-5.6c-1.66-1.55-3.4-2.68-4.72-3.37
		c-0.65-0.36-1.21-0.59-1.59-0.76c-0.38-0.16-0.6-0.25-0.6-0.25c-2.88-0.43-4.94-0.58-6.32-0.71c-1.37-0.12-2.05-0.25-2.05-0.25
		C76.35,45.88,74.98,45.77,73.6,45.77"/>
	<path class="st576" d="M61.26,62.35c-1.3,0.13-2.64,0.46-4.07,1.12c-0.81,0.52-0.89,1.33-1.63,1.89c-0.54,0.35-2.47,2.17-4.16,4.62
		c-0.51,0.73-1,1.5-1.47,2.29c0.3,0.47,0.47,0.7,0.47,0.7c0.41,0.5,0.84,0.68,1.29,0.68c0.45,0,0.92-0.19,1.38-0.46
		c0.94-0.53,1.94-1.34,2.98-1.86c0.89-0.47,1.73-0.65,2.33-0.65c0.1,0,0.19,0,0.28,0.01c0.39-0.05,0.68-0.09,0.91-0.1
		c0.21-0.02,0.33-0.03,0.33-0.03c0.62,0.23,1.09,0.35,1.51,0.35c0.33,0,0.61-0.07,0.9-0.22c0.63-0.32,1.3-0.99,2.04-1.74
		c1.69-1.72,3.15-3.22,3.15-3.22c-0.28-0.03-0.55-0.06-0.81-0.09c-1.44-0.21-2.51-0.6-3.37-1.14C62.4,63.91,61.73,63.16,61.26,62.35
		"/>
	<path class="st576" d="M96.12,90.13c-0.05,0.32-0.07,0.64-0.07,0.95c0,0.27,0.02,0.53,0.06,0.79c0,0,0.01-0.46,0.02-1.28
		C96.12,90.46,96.12,90.3,96.12,90.13 M96.12,90.13L96.12,90.13L96.12,90.13L96.12,90.13L96.12,90.13"/>
	<path class="st577" d="M66.06,59.54c-0.58,0-1.14,0.02-1.67,0.06c-2.11,0.14-3.79,0.51-4.75,0.78c-2.56,0.68-4.82,1.94-6.84,3.41
		c-1.93,1.42-3.53,2.95-5.06,4.24c-0.01,0.01-0.01,0.01-0.02,0.01c-0.02,0-0.03-0.03-0.03-0.1l0,0l0,0c0-0.08,0.02-0.19,0.06-0.36
		c-0.34,0.33-0.67,0.67-0.98,1.01c-0.12,0.29-0.7,1.19-0.78,1.47c-0.7,0.67-1.26,1.05-2.06,1.47c-0.94,0.33-1.86,0.79-2.74,1.29
		l7.91,0.92c0.7-1.29,1.47-2.59,2.3-3.77c1.68-2.45,3.62-4.27,4.16-4.62c0.74-0.56,0.82-1.36,1.63-1.89
		c1.95-0.89,3.73-1.18,5.45-1.18c1.28,0,2.52,0.16,3.78,0.37c0.97,0.13,2.32,0.23,3.8,0.43c1.49,0.2,3.13,0.56,4.61,1.05
		c0.72,0.23,1.49,0.55,2.17,0.85c0.65,0.33,1.25,0.62,1.71,0.92c0.95,0.57,1.5,1.03,1.54,1.09l0,0l0,0l0,0l0,0l0,0l0,0
		c-0.79,0.25-1.32,0.75-2.01,1.15c-0.66,0.38-1.42,0.63-2.58,0.63c-0.05,0-0.1,0-0.15,0c-0.32,0.01-0.3,0.45-0.45,0.67
		c0.02,0.39,0.43,1.14,0.7,1.29l0,0l0,0l0,0l0,0l0,0l0,0c-0.13-0.04-0.22-0.06-0.27-0.06c-0.03,0-0.04,0.01-0.04,0.02
		c0,0.15,1.95,1.23,3.37,2.86c1.53,1.59,2.39,3.68,2.59,3.68c0.03,0,0.04-0.04,0.04-0.14c0-0.06,0-0.13-0.01-0.22l0,0l0,0l0,0l0,0
		l0,0l0,0c0.26,1.55,0.84,2.95,1.04,4.7c0.05,0.39,0.08,0.8,0.08,1.21l0,0l0,0c0,1.4-0.31,2.86-1.04,4.13
		c-1.4,2.52-3.99,3.52-5.08,5.5c-1.02,1.52-1.87,3.24-3.27,3.66c-0.95,0.35-1.68,0.68-2.47,1.25c-1.69,1.61-3.05,3.63-4.79,4.55
		c-0.86,0.38-1.87,0.47-2.78,0.87c-0.64,0.29-1.24,0.73-1.71,1.56c-0.07,0.13-0.16,0.27-0.27,0.41c-0.45,0.59-1.1,1.18-1.1,1.55
		c0,0.02,0,0.04,0.01,0.07l0,0c0.51-0.3,1.1-0.37,1.78-0.77c1.31-0.63,2.48-1.86,3.75-2.34c1.31-0.63,2.54-0.95,3.89-1.74
		c0.86-0.57,1.58-1.13,2.33-1.84c2.9-2.4,5.49-4.84,7.96-7.7c0.16-0.9,0.78-1.71,1.5-2.58c0.72-0.86,1.55-1.81,2.07-2.84
		c0.34-0.61,0.8-1.16,1.22-2.02c0.4-1.08,0.51-2.37,0.51-3.52c0-0.12,0-0.23,0-0.35c0-0.52-0.02-1.02-0.02-1.48l0,0l0,0
		c0-0.44,0.02-0.85,0.09-1.24c0.18-0.87,0.28-1.78,0.28-2.7c0-2.87-0.93-5.93-3.12-8.8c-0.59-0.77-1.8-2.06-3.72-3.33
		c-2.01-1.3-4.42-2.34-6.96-2.91C69.7,59.71,67.79,59.54,66.06,59.54"/>
	<polyline class="st577" points="60.64,72.27 60.64,72.27 60.64,72.27 60.64,72.27 	"/>
	<polyline class="st577" points="60.64,72.27 60.64,72.27 60.65,72.27 60.66,72.28 60.69,72.3 60.74,72.35 60.8,72.39 60.66,72.29 
		60.88,72.45 60.89,72.46 60.64,72.27 	"/>
	<path class="st577" d="M60.8,72.39L60.8,72.39c0.01,0.01,0.01,0.01,0.02,0.02L60.8,72.39"/>
	<path class="st577" d="M60.82,72.41l0.02,0.02c0,0,0.01,0.01,0.01,0.01C60.85,72.43,60.84,72.42,60.82,72.41"/>
	<path class="st577" d="M60.88,72.45L60.88,72.45L60.88,72.45L60.88,72.45 M60.86,72.44c0.01,0.01,0.03,0.02,0.04,0.03l-0.01-0.01
		C60.87,72.45,60.87,72.44,60.86,72.44"/>
	<path class="st577" d="M60.89,72.46l0.02,0.01c0.06,0.04,0.12,0.08,0.18,0.12c0.01,0,0.02,0.01,0.02,0.01
		C61.04,72.56,60.97,72.51,60.89,72.46"/>
	<path class="st577" d="M60.91,72.47L60.91,72.47L60.91,72.47L60.91,72.47 M60.9,72.46l0.95,0.73l0,0l0,0l0,0
		c-0.26-0.03-0.54-0.06-0.81-0.08c-0.41-0.03-0.89-0.18-1.3-0.22c-0.1-0.01-0.2-0.01-0.3-0.01c-0.64,0-1.14,0.11-1.71,0.26
		c-0.57,0.14-1.17,0.32-1.97,0.32c-0.08,0-0.16,0-0.24-0.01c-0.06-0.01-0.12-0.02-0.18-0.02c-0.47,0-1.02,0.4-1.35,0.88l3.8,0.44
		l0,0l0,0l0,0c-0.01,0.01-0.01,0.02-0.01,0.02c0,0,0,0,0,0c0,0,0.15-0.18,0.59-0.45c0.51-0.32,1.48-0.73,2.33-0.88
		c0.49-0.1,0.95-0.13,1.3-0.14l0.39,0.29L62,73.3l0,0l0,0l0,0c0.04,0,0.08,0,0.12,0c0.2,0,0.35,0.01,0.45,0.02
		c0.11,0.01,0.16,0.02,0.16,0.02c0,0,0,0,0,0c0,0-0.1-0.02-0.28-0.08c0.14,0.05,0.24,0.07,0.24,0.07l0,0l0,0c0,0,0,0,0,0
		c0,0,0,0-0.01,0c-0.26-0.06-0.53-0.1-0.82-0.14l-0.94-0.72C60.91,72.47,60.9,72.47,60.9,72.46"/>
	<path class="st577" d="M61.11,72.6c0.06,0.04,0.13,0.08,0.19,0.12C61.24,72.68,61.18,72.64,61.11,72.6"/>
	<path class="st577" d="M61.31,72.72c0.11,0.07,0.22,0.14,0.33,0.19c0.09,0.05,0.18,0.09,0.27,0.13
		C61.72,72.95,61.52,72.84,61.31,72.72"/>
	<path class="st577" d="M61.9,73.04c0.18,0.09,0.34,0.15,0.46,0.19c0.01,0,0.02,0.01,0.03,0.01C62.28,73.2,62.11,73.14,61.9,73.04"
		/>
	<path class="st577" d="M62.39,73.24c0,0,0.01,0,0.01,0.01c0.01,0,0.02,0.01,0.04,0.01C62.42,73.25,62.4,73.25,62.39,73.24"/>
	<path class="st577" d="M62.38,73.59l1.32,1l0,0l0.11,0.09l0,0c-0.02-0.02-0.04-0.03-0.05-0.04L62.38,73.59"/>
	<path class="st577" d="M49.11,73.74c-0.75,1.39-1.42,2.79-2.01,4.05l9.03-1.14c-0.02,0-0.04,0-0.06,0c-0.54,0-1.11-0.22-1.54-0.59
		c-0.13-0.13-0.25-0.24-0.36-0.35c-0.09-0.14-0.17-0.26-0.24-0.37c-0.14-0.19-0.17-0.38-0.17-0.49l0,0l0,0c0-0.02,0-0.03,0-0.05
		c0.05-0.17,0.13-0.34,0.24-0.5L49.11,73.74 M49.11,73.74L49.11,73.74L49.11,73.74"/>
	<path class="st577" d="M64.92,73.94c-0.66,0.26-1.04,0.49-1.16,0.58l0.07,0.17l-0.01,0c0.22,0.18,0.87,0.79,1.32,1.38
		c0.12,0.15,0.24,0.3,0.34,0.45l-0.15-0.25c-0.13-0.21-0.21-0.45-0.29-0.7c-0.11-0.35-0.16-0.74-0.16-1.12l0,0l0,0
		C64.89,74.28,64.9,74.11,64.92,73.94"/>
	<path class="st577" d="M56.47,76.61l-0.34,0.04C56.25,76.65,56.36,76.63,56.47,76.61"/>
	<path class="st570" d="M71.9,39.61l-0.21,0c-0.89,0.01-2.18,0.08-3.75,0.35c-0.39,0.07-0.8,0.14-1.22,0.23
		c-0.22,0.05-0.44,0.1-0.67,0.15c-0.24,0.06-0.47,0.11-0.62,0.16c-0.7,0.21-1.45,0.5-2.22,0.81c-1.29,0.56-2.66,1.29-4.01,2.24l0,0
		c1.31-0.92,2.62-1.62,3.87-2.17c0.05-0.02,0.1-0.04,0.15-0.06c0.77-0.32,1.52-0.61,2.22-0.81c0.15-0.05,0.38-0.11,0.62-0.16l0,0
		c0.23-0.05,0.45-0.1,0.67-0.15l0,0l0,0c0.42-0.09,0.83-0.17,1.22-0.23l0,0l0,0c1.57-0.26,2.86-0.34,3.75-0.35l0,0L71.9,39.61
		c0.75,0,1.16,0.04,1.16,0.04c0.02,0.01,0.05,0.01,0.08,0.02c-0.03-0.01-0.05-0.01-0.08-0.02C73.06,39.65,72.65,39.61,71.9,39.61"/>
	<path class="st578" d="M71.69,39.61c-0.89,0.01-2.18,0.08-3.75,0.35C69.51,39.69,70.8,39.62,71.69,39.61"/>
	<path class="st578" d="M67.94,39.96c-0.39,0.07-0.8,0.14-1.22,0.23C67.14,40.1,67.55,40.03,67.94,39.96"/>
	<path class="st578" d="M66.71,40.19c-0.22,0.05-0.44,0.1-0.67,0.15C66.27,40.29,66.49,40.24,66.71,40.19"/>
	<path class="st578" d="M63.05,41.38c-1.25,0.55-2.56,1.26-3.87,2.17c-0.28,0.19-0.55,0.4-0.83,0.61c0.28-0.21,0.55-0.42,0.83-0.61
		C60.49,42.64,61.81,41.94,63.05,41.38"/>
	<path class="st578" d="M73.14,39.67c0.11,0.03,0.24,0.05,0.41,0.08c1.08,0.16,3.28,0.28,5.4,0.61c0.1,0.02,0.2,0.03,0.29,0.05
		c-0.1-0.02-0.2-0.03-0.3-0.05c-2.12-0.33-4.32-0.45-5.4-0.61C73.38,39.72,73.24,39.69,73.14,39.67"/>
	<path class="st578" d="M79.24,40.4c2.59,0.4,4.93,1.11,4.97,1.12c0,0-0.03-0.01-0.07-0.02C83.73,41.38,81.59,40.76,79.24,40.4"/>
	<path class="st570" d="M84.7,41.49L84.7,41.49c0.03,0,0.06,0,0.09,0c0.54,0.01,1.22,0.12,1.99,0.33l0,0
		C85.97,41.6,85.26,41.49,84.7,41.49"/>
	<path class="st578" d="M84.79,41.49c0.54,0.01,1.22,0.12,1.99,0.33c0.83,0.22,1.77,0.56,2.76,1.01c-0.99-0.45-1.93-0.78-2.76-1.01
		C86.01,41.61,85.33,41.5,84.79,41.49"/>
	<path class="st578" d="M96.39,47.53c2.04,1.89,3.69,4.02,4.81,5.71C100.09,51.55,98.43,49.42,96.39,47.53"/>
	<path class="st570" d="M96.05,47.21L96.05,47.21c0.12,0.11,0.23,0.21,0.35,0.32l0,0l0,0c2.04,1.89,3.69,4.02,4.81,5.71
		c0.04,0.06,0.08,0.12,0.12,0.18l0,0l0,0c-1.12-1.72-2.82-3.94-4.93-5.89C96.28,47.42,96.16,47.32,96.05,47.21"/>
	<path class="st579" d="M86.78,41.82c0.83,0.22,1.77,0.56,2.76,1.01l0,0c0.09,0.04,0.18,0.08,0.27,0.12c2.07,0.98,4.3,2.5,6.24,4.26
		l0,0c-2.02-1.83-4.36-3.41-6.51-4.38C88.55,42.38,87.61,42.04,86.78,41.82L86.78,41.82"/>
	<path class="st578" d="M89.81,42.95c2.08,0.98,4.3,2.5,6.24,4.26c0.12,0.11,0.23,0.21,0.34,0.32
		C94.38,45.64,92.01,43.99,89.81,42.95"/>
	<path class="st578" d="M101.33,53.43c0.57,0.85,0.98,1.58,1.27,2.1C102.31,55.01,101.89,54.27,101.33,53.43"/>
	<path class="st570" d="M102.59,55.52c0,0,0,0.01,0.01,0.01l0,0c0.28,0.49,0.43,0.79,0.44,0.81c0,0,0,0,0,0l0,0
		c0.02,0.06,0.04,0.11,0.06,0.17l0,0c-0.02-0.06-0.04-0.11-0.06-0.17c0,0-0.15-0.3-0.44-0.81C102.6,55.53,102.6,55.53,102.59,55.52"
		/>
	<path class="st578" d="M102.6,55.54c0.28,0.49,0.43,0.79,0.44,0.81C103.03,56.33,102.88,56.03,102.6,55.54"/>
	<path class="st578" d="M103.04,56.35c0.02,0.06,0.04,0.11,0.06,0.17c0.49,1.31,0.92,2.63,1.27,3.97c-0.35-1.34-0.78-2.66-1.27-3.97
		C103.09,56.46,103.06,56.41,103.04,56.35"/>
	<path class="st578" d="M106.44,71.16c0.01,0.27,0.01,0.5,0.01,0.72l0,0C106.45,71.66,106.44,71.43,106.44,71.16"/>
	<path class="st570" d="M105.21,62.85L105.21,62.85c0.11,0.37,0.21,0.77,0.31,1.19c0.02,0.08,0.04,0.15,0.05,0.23
		c0.37,1.65,0.66,3.6,0.78,5.47c0.04,0.45,0.06,0.94,0.08,1.41c0,0,0,0.01,0,0.01c0.01,0.27,0.01,0.5,0.01,0.72l0,0
		c0-0.22,0-0.46-0.01-0.74c-0.02-0.47-0.04-0.96-0.08-1.41c-0.12-1.86-0.41-3.82-0.78-5.47C105.46,63.76,105.34,63.29,105.21,62.85"
		/>
	<path class="st579" d="M103.11,56.52c0.49,1.31,0.92,2.63,1.27,3.97c0.01,0.05,0.02,0.09,0.04,0.14l0,0
		c0.23,0.46,0.52,1.24,0.8,2.22l0,0c-0.28-0.98-0.57-1.76-0.8-2.22C104.06,59.24,103.62,57.87,103.11,56.52L103.11,56.52"/>
	<path class="st578" d="M104.42,60.63c0.23,0.46,0.52,1.24,0.8,2.22c0.11,0.37,0.21,0.77,0.31,1.19
		C105.16,62.5,104.73,61.26,104.42,60.63"/>
	<path class="st578" d="M106.45,71.88c0,0.13,0,0.25,0,0.38C106.45,72.13,106.45,72.01,106.45,71.88"/>
	<path class="st578" d="M106.44,72.34c-0.02,0.65-0.03,1.26-0.07,1.75C106.41,73.59,106.42,72.99,106.44,72.34"/>
	<path class="st570" d="M106.37,74.08L106.37,74.08c-0.06,1.04-0.14,1.67-0.14,1.67c-0.05,0.24-0.1,0.48-0.15,0.71l0,0
		c0.05-0.23,0.1-0.47,0.15-0.71c0,0,0,0,0,0C106.24,75.73,106.31,75.1,106.37,74.08L106.37,74.08L106.37,74.08"/>
	<path class="st578" d="M106.37,74.08c-0.06,1.01-0.14,1.64-0.14,1.67C106.24,75.73,106.31,75.1,106.37,74.08"/>
	<path class="st578" d="M103.71,94.42c0,0.14,0,0.27,0,0.39C103.71,94.69,103.71,94.56,103.71,94.42"/>
	<path class="st580" d="M66.39,57.58c-0.79,0-1.53,0.03-2.22,0.09c-1.36,0.11-2.51,0.29-3.36,0.47c-0.44,0.09-0.8,0.17-1.07,0.24
		c-3.25,0.94-5.62,2.31-7.4,3.63c-1.74,1.31-2.74,2.45-3.41,3.37c-0.28,0.39-0.49,0.73-0.66,1.04c-0.28,0.51-0.44,0.9-0.51,1.17
		c-0.04,0.16-0.06,0.28-0.06,0.36c0,0.06,0.01,0.1,0.03,0.1c0.01,0,0.01,0,0.02-0.01c1.54-1.29,3.14-2.82,5.06-4.24
		c2.03-1.48,4.28-2.74,6.84-3.41c0.96-0.27,2.63-0.64,4.75-0.78c0.53-0.04,1.09-0.06,1.67-0.06c1.73,0,3.64,0.17,5.54,0.61
		c2.54,0.57,4.95,1.61,6.96,2.91c1.92,1.27,3.13,2.56,3.72,3.33c2.19,2.87,3.12,5.94,3.12,8.8l0,0l0,0c0,0.93-0.1,1.83-0.28,2.7
		c-0.07,0.39-0.09,0.8-0.09,1.24c0,0.46,0.02,0.96,0.02,1.48l0,0l0,0c0,0.12,0,0.23,0,0.35c0,1.16-0.12,2.45-0.51,3.52
		c-0.41,0.85-0.87,1.41-1.22,2.02c-0.52,1.04-1.35,1.98-2.07,2.84c-0.72,0.87-1.34,1.67-1.5,2.58c-2.47,2.86-5.06,5.3-7.96,7.7
		c-0.75,0.71-1.46,1.27-2.33,1.84c-1.35,0.79-2.58,1.11-3.89,1.74c-1.27,0.48-2.44,1.7-3.75,2.34c-0.67,0.39-1.27,0.47-1.78,0.77
		l0,0c-0.21,0.35-0.75,0.81-0.75,1.01c0,0.04,0.02,0.06,0.06,0.08c0.08,0.1,0.21,0.13,0.37,0.13c0.28,0,0.65-0.11,0.94-0.15
		c2.06-0.73,4.04-1.14,5.99-2.01c4.56-2.13,8.99-4.87,12.94-8.61c0.76-0.72,0.97-1.66,1.48-2.51c0.44-0.81,1.15-1.63,1.91-2.59
		c0.03-0.04,0.06-0.07,0.08-0.11c0.18-0.23,0.35-0.46,0.53-0.71c0.96-1.31,1.89-3.04,2.03-4.95c0.02-0.49,0.3-1.27,0.57-1.86
		c1.22-2.08,1.82-4.67,1.82-7.24c0-0.93-0.08-1.85-0.23-2.74c-0.57-3.43-2.03-6.65-4.42-9.56c-0.75-0.92-2.17-2.35-4.37-3.65
		c-0.45-0.27-0.95-0.53-1.47-0.78c-0.1-0.05-0.21-0.1-0.32-0.15c-0.25-0.12-0.49-0.22-0.73-0.33c-0.36-0.15-0.72-0.3-1.09-0.44
		c-1.25-0.45-2.58-0.84-3.89-1.08C69.7,57.72,67.96,57.58,66.39,57.58"/>
</g>
<path d="M89.68,49.41c6.2-2.39,11.55-0.7,13.02,3.83c1.39,4.29,0.72,9.01-5.74,11.61c0.24,1.22,1.5,1.11,2.28,1.91
	c0.94-0.81,1.88-1.48,2.64-2.31c4.18-4.66,12.24-2.57,14.47,2.01c0.81,1.66,0.78,3.31,0.55,4.98c-0.53,3.83-2.35,6.76-6.67,7.49
	c-1.73,0.29-3.61-0.38-5.73-0.65c-2.46,3.52-6,3.7-10.13,2.03c-0.27,0.33-0.63,0.79-1.03,1.27c0.98,1.13,2.15,1.48,3.46,1.8
	c3.21,0.78,6.55,1.4,8.96,3.97c0.7,0.75,1.33,1.73,1.58,2.71c1.03,3.89-0.97,9.22-4.37,11.19c-2.25,1.3-4.87,1.75-7.37,0.61
	c-2.16-0.99-4.28-2.15-6.21-3.52c-1-0.71-1.58-2.03-2.48-3.25c-0.34,0.41-0.73,0.89-1.14,1.39c0.23,0.35,0.36,0.65,0.57,0.84
	c1.19,1.12,1.72,2.49,1.82,4.12c0.04,0.61,0.32,1.4,0.77,1.77c2.61,2.16,3.08,5.24,3.06,8.2c-0.02,2.43-0.09,5.09-1.92,7.21
	c-1.29,1.49-2.54,2.85-4.66,3.03c-0.83,0.07-1.64,0.36-2.47,0.51c-2.83,0.51-5.29-0.65-7.76-1.74c-0.34-0.15-0.65-0.35-0.98-0.53
	c-0.13,0.24-0.29,0.4-0.25,0.48c1.27,2.87,0.92,5.77-0.02,8.59c-0.42,1.27-1.18,2.55-2.11,3.52c-2.89,3.05-6.51,3.92-10.57,2.96
	c-1.12-0.27-2.27-0.55-3.29-1.04c-2.55-1.23-3.53-3.46-3.77-6.18c-0.28-3.19,0.65-6.13,1.99-8.91c1.15-2.39,3.52-3.64,5.72-4.85
	c0.82-0.45,2.1-0.07,3.26-0.07c0.29-1.2,0.56-2.36,0.84-3.51c-1.54,0.39-3.11,0.94-4.73,1.16c-5.81,0.82-9.01-2.86-10.11-7.9
	c-0.54-2.5-0.53-5.13,0.89-7.43c0.8-1.29,1.72-2.66,2.92-3.52c2.17-1.54,4.54-2.9,7.35-2.96c0.88-0.02,1.72,0.05,2.06-1.23
	c-0.39-0.04-0.72-0.12-1.06-0.11c-7.2,0.03-11.18-6.51-7.63-12.79c1.27-2.24,3.14-4.13,4.94-6.44c-0.03-0.06-0.25-0.52-0.35-0.75
	c-2.05,1.06-3.93,2.29-5.99,3.04c-2.89,1.05-5.92,1.32-8.7-0.46c-3.82-2.44-4.87-5.47-3.49-9.25c2.68-7.32,9.81-10.64,17.28-8.42
	c0.96-0.47,1.83-0.89,2.83-1.37c-0.59-0.5-1.31-0.67-2.12-0.75c-2.32-0.22-4.17-1.57-5.35-3.3c-0.81-1.19-1.06-3.12-0.81-4.6
	c1-5.85,5.23-8.89,11.33-9.15c0.52-0.02,1.04,0,1.74,0c-0.88-8.93,3.03-16.26,7.27-23.62c1.35,0.32,2.78,0.67,4.21,1.01
	c-1.48,2-3.11,3.84-4.32,5.93c-2.57,4.44-4.21,9.23-4.72,14.38c-0.17,1.65,0.67,2.65,1.87,3.3c1.27,0.69,2.7,1.1,4.08,1.58
	c0.91,0.32,1.67-0.06,2.31-0.69c2.02-1.96,4.49-2.16,7.09-1.8c1.51,0.21,3.24,0.13,4.47,0.86c5.31,3.17,5.52,6.66,2.38,11.59
	C91.19,47.9,90.53,48.46,89.68,49.41z M75.27,71.01c-0.61,0.62-1.21,1.23-1.82,1.85c0.77-0.18,1.4-0.56,1.95-1.04
	C75.5,71.74,75.31,71.29,75.27,71.01c0.87,0.04,2.05,0.67,2.04-1.22C76.58,70.23,75.92,70.62,75.27,71.01z M96.91,68.62
	c-0.67-0.22-1.34-0.43-2.43-0.79c0.91,1.25,1.7,0.96,2.47,0.77c-0.23,0.96,0.28,1.22,1.1,1.19c0.77-1.14,0.35-1.76-0.77-2.13
	C97.14,68.03,97.03,68.32,96.91,68.62z M63.07,66.02c0.61,0.58,1.23,1.16,1.84,1.74c0.36-1.9-1.02-2.97-1.52-4.44
	c-1.36,0.93-0.22,1.88-0.25,2.78c-0.49,0-0.99,0-1.92,0c0.79,1.07,1.41,1.89,2.02,2.71c0.14-0.06,0.28-0.13,0.42-0.19
	C63.46,67.75,63.26,66.89,63.07,66.02z M90.6,110.88c-0.13-0.75-0.36-1.81-0.47-2.87c-0.2-1.93-1.16-3.35-2.87-4.19
	c-1.57-0.78-3.16-1.6-4.83-2.09c-1.52-0.44-3.23-0.82-4.73-0.54c-2.67,0.5-5.21,1.56-6.15,4.58c-0.25,0.81-0.62,1.58-0.93,2.36
	c-1.04,2.58-0.56,4.99,0.91,7.25c2.39,3.66,6.15,5.27,10.18,5.63c2.56,0.23,5.35-0.53,7.04-3.17
	C90.02,115.78,90.32,113.53,90.6,110.88z M64.53,135.04c1.14-0.36,2.61-0.58,3.83-1.25c3.76-2.08,5.25-5.5,4.98-9.67
	c-0.09-1.42-0.23-3.13-1.05-4.15c-1.16-1.45-2.3-3.27-4.51-3.53c-0.91-0.11-1.8-0.36-2.71-0.46c-2.95-0.33-5.39,0.91-7.07,3.12
	c-1.94,2.55-2.77,5.65-2.72,8.9c0.04,2.72,1.74,5.29,3.95,5.94C60.83,134.41,62.52,134.63,64.53,135.04z M42.71,65.28
	c0.41,1.12,0.64,2.36,1.28,3.33c1.36,2.06,3.4,3.11,5.89,3.05c3.09-0.07,5.94-0.93,8.26-3.05c0.84-0.77,1.44-1.79,2.15-2.69
	c2.14-2.72,2.25-6.32,0.29-9.11c-1.51-2.15-4.1-3.1-6.68-2.43c-1.26,0.33-2.51,0.71-3.75,1.11C45.84,56.86,43.04,60.67,42.71,65.28z
	 M88.78,65.94c-3.09-0.62-5.09,1.29-7.11,2.71c-2.6,1.82-3.64,4.44-3.27,7.83c0.4,3.6,2.24,5.18,5.28,6.16
	c0.36,0.12,0.76,0.13,1.13,0.24c4.03,1.24,7.18-0.73,8.64-3.73c0.73-1.5,1.31-3.13,1.65-4.76c0.47-2.24-0.41-4.27-1.67-6.06
	C92.28,66.69,90.78,65.52,88.78,65.94z M68.75,100.46c-0.03-2.57,0.18-4.52-1.42-5.89c-0.86-0.73-1.83-1.44-2.87-1.83
	c-0.95-0.36-2.41-0.77-3.03-0.32c-0.99,0.71-2.18-0.08-2.94,0.81c-0.05,0.06-0.12,0.1-0.18,0.14c-5.44,3.55-5.87,9.27-4.06,13.6
	c1,2.4,2.81,4.09,5.4,4.1c2.7,0,5.46-0.59,6.83-3.42C67.68,105.15,68.95,102.65,68.75,100.46z M88.86,93.03
	c0.22,1.04,0.3,2.14,0.69,3.11c1.11,2.76,3.7,3.79,6.2,4.75c1.32,0.51,2.74,0.7,4.29,0.34c4.24-1,7.07-6.91,6.37-10.37
	c-0.36-1.78-1.35-3.26-2.83-4.06c-1.8-0.97-3.82-1.63-5.83-2.05c-1.29-0.27-3.08-0.34-4.02,0.34C91.15,87,88.67,89.23,88.86,93.03z
	 M71.87,78.21c-0.4-4.57-3.16-7.09-6.27-8.09c-0.96-0.31-1.86-0.15-2.86,0.36c-3.13,1.59-5.15,4.12-6.55,7.2
	c-1.9,4.18,0.06,7.41,3.09,9.31c1.24,0.78,2.69,1.34,4.17,0.85c2.29-0.75,4.43-1.84,5.86-3.87C70.65,82.08,71.69,80.02,71.87,78.21z
	 M85.26,91.59c0.1-3.2-0.76-5.42-3.14-6.97c-2.91-1.9-7.16-1.97-9.58,1.12c-0.93,1.19-1.84,2.55-2.23,3.98
	c-1.47,5.36,1.17,8.5,6.01,8.9c2.5,0.21,4.84-0.59,6.9-2.16c1-0.76,1.59-1.63,1.78-2.83C85.13,92.8,85.22,91.95,85.26,91.59z
	 M68.12,38.33c-0.49-0.35-0.88-0.72-1.34-0.94c-0.75-0.36-1.54-0.89-2.32-0.9c-5.05-0.04-7.84,1.9-9.2,7.27
	c-0.78,3.1,0.7,5.35,3.78,6.42c4.82,1.68,9.52,0.01,11.81-5.49c1.23-2.95,0.58-5.36-1.86-7.41C68.73,37.59,68.47,37.91,68.12,38.33z
	 M83.87,49.92c3.38,0.05,5.78-1.57,7.25-4.28c0.84-1.55,1.5-3.38,0.84-5.33c-0.9-2.64-2.79-4.09-5.45-4.32
	c-1.49-0.13-3.01,0.4-4.53,0.47c-3.79,0.18-5.12,3-6.35,5.86c-0.43,1-0.23,2.08,0.46,3.07C78.01,48.18,80.58,49.75,83.87,49.92z
	 M73.02,51.59c-3.18-0.19-5.35,1.53-7.01,3.85c-1.01,1.42-1.85,3.2-1.37,4.99c0.79,2.93,2.71,5.17,6.01,5.64
	c5.65,0.8,10.78-4.1,9.53-10.51c-0.28-1.44-1.36-2.79-2.86-3.28C75.95,51.84,74.46,51.81,73.02,51.59z M115.93,70.34
	c0.04-4.56-4.26-8.08-8.48-7.44c-3.07,0.46-5.08,2.43-6.92,4.59c-0.49,0.58-0.64,1.8-0.42,2.58c0.94,3.49,2.92,6.08,6.64,7.09
	c1.17,0.32,2.34-0.09,3.35,0.2c1.49,0.42,2.33-0.28,3.25-1.08C115.28,74.64,115.42,72.25,115.93,70.34z M94.95,63.59
	c0.83-0.09,1.72-0.04,2.49-0.3c4.93-1.66,6.29-8.98,2.33-12.41c-0.34-0.29-0.76-0.55-1.19-0.67c-1.92-0.53-3.84-1.26-5.84-0.36
	c-1.18,0.53-2.33,1.14-3.52,1.63c-1.32,0.54-2.42,1.12-2.72,2.77c-0.26,1.4-0.27,2.68,0.06,4.08C87.2,61.02,91.24,63.9,94.95,63.59z
	 M75.19,99.89c-1.93-1.11-3.71-2.13-5.39-3.1c0.35,2.55,0.42,5.26-0.94,7.84c-0.49,0.93-1.28,2.23-0.97,2.96
	c0.57,1.36-0.23,2.14-0.52,3.18c-0.37,1.31-0.51,2.68-0.78,4.17c1.29,0.44,2.35,0.81,3.42,1.17c-2.92-5.4-1.56-9.86,1.95-14.08
	c-0.46-0.75-0.95-1.55-1.44-2.35c0.13-0.1,0.25-0.21,0.38-0.31c0.55,0.46,1.1,0.92,1.66,1.39C73.48,100.46,74.34,100.17,75.19,99.89
	z M84.44,54.29c-1.7-0.47-1.7-0.47-2.91,0.02c0,2.42,0,4.74,0,7.23c1.63,1.33,3.28,0.66,4.7-0.24
	C85.59,58.82,85.02,56.56,84.44,54.29z M71.12,70.89c1.56-1.71,3.7-2.59,5.77-2.9c1.89-0.28,3.22-1.26,4.77-2.05
	c1.11-0.56,1.17-1.38,0.75-2.3c-0.29-0.64-0.82-1.18-1.37-1.96c-2.19,3.32-5.12,5-8.32,5.88C72.13,68.79,71.62,69.84,71.12,70.89z
	 M74.62,49.91c0.52-2.21,0.29-4.17-0.45-6.16c-0.53-1.42-0.34-2.88,0.67-4.13c0.27-0.33,0.49-0.71,0.94-1.39
	c-1.2,0.23-1.86-0.9-2.8-0.33c0.09,1.25,0.53,2.52,0.16,3.48c-0.81,2.1-0.32,4.22-0.6,6.31C72.39,48.92,73.03,49.55,74.62,49.91z
	 M96.34,65.46c-0.85-0.35-1.39-0.75-1.96-0.79c-2.38-0.17-4.48-0.95-6.39-2.37c-0.36-0.27-1.08-0.37-1.49-0.19
	c-0.9,0.39-1.74,0.96-2.53,1.56c-0.25,0.19-0.25,0.7-0.41,1.2c3.56-0.95,6.46-1.12,9.19,0.95C94.23,66.92,94.29,66.84,96.34,65.46z
	 M87.58,89.6c0.62-2.96,2.3-4.89,4.42-6.56c-2.31,1.69-4.97,1.14-7.68,1.21C85.46,86.11,86.42,87.69,87.58,89.6z M64.97,90.66
	c0.88,0.65,1.87,1.38,2.74,2.03c0.43-2.22,0.85-4.37,1.26-6.52C67.48,87.4,65.25,87.98,64.97,90.66z M63.55,52.74
	c0.51,0.56,0.89,0.98,1.16,1.28c1.9-1.29,3.64-2.5,5.41-3.66c0.94-0.62,0.97-0.58,0.44-1.79C68.32,49.91,66.06,51.25,63.55,52.74z
	 M96.99,73c0.92,2.93,4.07,5.72,6.06,5.4C101.5,76.1,98.87,75.25,96.99,73z M62.76,53.6c-0.6,0.48-1.16,0.92-1.79,1.42
	c0.91,1,1.63,1.79,2.43,2.67c0.34-0.99,0.65-1.9,0.98-2.85C63.8,54.4,63.32,54.03,62.76,53.6z M71.85,17.4
	c0.14,0.11,0.28,0.21,0.43,0.32c1.29-0.86,2.98-3.48,3-5.24C73.94,14.39,72.89,15.9,71.85,17.4z M65.06,64.45
	c1.53,3.29,2.15,4,3.62,4.28C68.03,67.01,67.12,65.6,65.06,64.45z M96.92,75.47c-0.13,0.15-0.27,0.3-0.4,0.45
	c1.41,1.24,2.34,3.03,4.49,3.4C99.65,78.04,98.28,76.75,96.92,75.47z M96.06,76.88c-0.15,0.17-0.29,0.35-0.44,0.52
	c1.06,0.99,1.71,2.47,3.69,2.33C98.23,78.78,97.14,77.83,96.06,76.88z M73.19,77.18c0.13,0.14,0.26,0.28,0.4,0.42
	c2.6-0.9,2.6-0.9,2.13-2.46C74.82,75.86,74,76.52,73.19,77.18z M73.42,75.29c1.03-0.56,2.61-0.46,2.67-2.56
	C74.77,73.36,73.69,73.85,73.42,75.29z M68.61,66.75c0.74,1.25,1.2,2.03,1.97,3.34c0.29-1.18,0.44-1.78,0.62-2.49
	C70.38,67.33,69.76,67.13,68.61,66.75z M98.24,73.09c0.06-1.85-0.15-2.06-2.65-2.36C96.65,71.67,97.39,72.34,98.24,73.09z
	 M86.04,98.85c-0.37,1.1-0.52,1.94,0.34,2.97C86.96,100.63,86.96,99.81,86.04,98.85z M76.82,50.21c0.13-1.42,0.13-1.42-0.75-2.15
	C75.62,48.97,75.42,49.71,76.82,50.21z M80.38,52.96c0.21-1.04,0.36-1.77,0.56-2.76C79.64,51.38,79.64,51.38,80.38,52.96z
	 M82.11,50.81c-0.36,1-0.55,1.54-0.85,2.38C82.55,52.79,82.92,52.31,82.11,50.81z M84.61,99.04c-0.16-0.01-0.32-0.02-0.49-0.02
	c-0.2,0.74-0.44,1.49,0.88,2.12C84.84,100.25,84.72,99.65,84.61,99.04z M83.81,52.56c0.17,0.01,0.35,0.01,0.52,0.02
	c0.03-0.28,0.16-0.59,0.07-0.83c-0.09-0.27-0.36-0.48-0.56-0.71c-0.1,0.05-0.2,0.1-0.3,0.15C83.64,51.65,83.72,52.1,83.81,52.56z
	 M71.06,21.65c0.17-0.38,0.33-0.57,0.33-0.77c0-0.18-0.15-0.37-0.23-0.56c-0.18,0.16-0.42,0.29-0.53,0.49
	C70.58,20.9,70.78,21.13,71.06,21.65z M78.67,49.02c-0.91,0.99-0.9,1.5-0.33,1.96c0.08,0.06,0.25,0.01,0.57,0.01
	C78.84,50.45,78.78,49.95,78.67,49.02z M77.04,79.04c-0.1-0.16-0.19-0.33-0.29-0.49c-0.63,0.39-1.25,0.77-1.88,1.16
	c0.07,0.12,0.15,0.24,0.22,0.37C75.74,79.73,76.39,79.38,77.04,79.04z M95.29,78.63c-0.09,0.13-0.18,0.25-0.27,0.38
	c0.48,0.35,0.95,0.7,1.43,1.05c0.09-0.13,0.19-0.26,0.28-0.4C96.26,79.32,95.78,78.98,95.29,78.63z M82.48,100.25
	c0.19,0,0.38,0.01,0.57,0.01c-0.12-0.49-0.24-0.98-0.35-1.47c-0.14,0.03-0.28,0.06-0.41,0.09C82.35,99.33,82.41,99.79,82.48,100.25z
	"/>
</svg>
