<?xml version="1.0" encoding="utf-8"?>
<!-- Generator: Adobe Illustrator 23.0.1, SVG Export Plug-In . SVG Version: 6.00 Build 0)  -->
<svg version="1.1" id="Layer_1" xmlns="http://www.w3.org/2000/svg" xmlns:xlink="http://www.w3.org/1999/xlink" x="0px" y="0px"
	 viewBox="0 0 150 150" style="enable-background:new 0 0 150 150;" xml:space="preserve">
<style type="text/css">
	.st0{fill:#F49AB4;}
	.st1{fill:#F28DA7;}
	.st2{fill:#E85072;}
	.st3{fill:#E84B6F;}
	.st4{fill:#EB5A7D;}
	.st5{fill:#EF7994;}
	.st6{fill:#F8BCCD;}
	.st7{fill:#F38CA8;}
	.st8{fill:#EF728F;}
	.st9{fill:#FCE4EB;}
	.st10{fill:#F0CCCF;}
	.st11{fill:#DE8D95;}
	.st12{fill:#EBBABF;}
	.st13{fill:#E7ACB2;}
	.st14{fill:#E39DA3;}
	.st15{fill:#F5DEE0;}
	.st16{fill:#D97A83;}
	.st17{fill:#E4A6AD;}
	.st18{fill:#E9B6BB;}
	.st19{fill:#DA9197;}
	.st20{fill:#CC7077;}
	.st21{fill:#C9646C;}
	.st22{fill:#D4848B;}
	.st23{fill:#D17A81;}
	.st24{fill:#DD9EA3;}
	.st25{fill:#C65760;}
	.st26{fill:#D48189;}
	.st27{fill:#CF6E76;}
	.st28{fill:#C1575F;}
	.st29{fill:#B8424B;}
	.st30{fill:#B33C43;}
	.st31{fill:#BB4952;}
	.st32{fill:#C65E66;}
	.st33{fill:#BC4F57;}
	.st34{fill:#B0353D;}
	.st35{fill:#D67E84;}
	.st36{fill:#C6636B;}
	.st37{fill:#CA6C72;}
	.st38{fill:#B9454D;}
	.st39{fill:#C05B63;}
	.st40{fill:#C0545B;}
	.st41{fill:#BE4C53;}
	.st42{fill:#B43C44;}
	.st43{fill:#DF999F;}
	.st44{fill:#D27980;}
	.st45{fill:#C1555D;}
	.st46{fill:#CB6F76;}
	.st47{fill:#C8676E;}
	.st48{fill:#D5838A;}
	.st49{fill:#C65D64;}
	.st50{fill:#F1D1D4;}
	.st51{fill:#D38087;}
	.st52{fill:#CF737C;}
	.st53{fill:#D98C94;}
	.st54{fill:#E6B3B9;}
	.st55{fill:#D8898F;}
	.st56{fill:#C66269;}
	.st57{fill:#C96A72;}
	.st58{fill:#DD9399;}
	.st59{fill:#CF747B;}
	.st60{fill:#D48188;}
	.st61{fill:#D37D85;}
	.st62{fill:#DC9298;}
	.st63{fill:#D8838B;}
	.st64{fill:#FAECED;}
	.st65{fill:#EFCBD0;}
	.st66{fill:#EDC1C5;}
	.st67{fill:#D28089;}
	.st68{fill:#CB747D;}
	.st69{fill:#A8343C;}
	.st70{fill:#A62F37;}
	.st71{fill:#B03E44;}
	.st72{fill:#C25C63;}
	.st73{fill:#E1A8AC;}
	.st74{fill:#BE535C;}
	.st75{fill:#CE727C;}
	.st76{fill:#F5D8DA;}
	.st77{fill:#D8BAE7;}
	.st78{fill:#BC8FD2;}
	.st79{fill:#B17FC9;}
	.st80{fill:#7D3CA4;}
	.st81{fill:#884BAE;}
	.st82{fill:#A369BF;}
	.st83{fill:#D2B5E2;}
	.st84{fill:#9A62BC;}
	.st85{fill:#B17ECB;}
	.st86{fill:#ECE0F2;}
	.st87{fill:#FBCBC8;}
	.st88{fill:#F5908C;}
	.st89{fill:#F28580;}
	.st90{fill:#E64640;}
	.st91{fill:#E5413B;}
	.st92{fill:#E74E49;}
	.st93{fill:#ED6D68;}
	.st94{fill:#F7B5B0;}
	.st95{fill:#ED6660;}
	.st96{fill:#F48580;}
	.st97{fill:#FBDFDF;}
	.st98{fill:#F9C1C0;}
	.st99{fill:#F7B7B6;}
	.st100{fill:#EF7573;}
	.st101{fill:#EF6F6D;}
	.st102{fill:#F17F7C;}
	.st103{fill:#F4A19F;}
	.st104{fill:#F39998;}
	.st105{fill:#EC7271;}
	.st106{fill:#FAD1CF;}
	.st107{fill:#FADCDC;}
	.st108{fill:#F39391;}
	.st109{fill:#FDECEC;}
	.st110{fill:#FCDDDD;}
	.st111{fill:#ED8280;}
	.st112{fill:#E66160;}
	.st113{fill:#F18784;}
	.st114{fill:#F19593;}
	.st115{fill:#EB7675;}
	.st116{fill:#E86867;}
	.st117{fill:#F28785;}
	.st118{fill:#F3A7A7;}
	.st119{fill:#F08C8B;}
	.st120{fill:#F08785;}
	.st121{fill:#E55D5B;}
	.st122{fill:#E86D6C;}
	.st123{fill:#E85F5D;}
	.st124{fill:#E75958;}
	.st125{fill:#EA6664;}
	.st126{fill:#E76260;}
	.st127{fill:#E04948;}
	.st128{fill:#ED7371;}
	.st129{fill:#EA6B6A;}
	.st130{fill:#EB6763;}
	.st131{fill:#E45352;}
	.st132{fill:#E54E4C;}
	.st133{fill:#DE3635;}
	.st134{fill:#E65958;}
	.st135{fill:#E0413E;}
	.st136{fill:#EA6D6A;}
	.st137{fill:#EE9493;}
	.st138{fill:#EA6866;}
	.st139{fill:#F2A8A6;}
	.st140{fill:#E14543;}
	.st141{fill:#E3413F;}
	.st142{fill:#E64A48;}
	.st143{fill:#E56967;}
	.st144{fill:#E33F3D;}
	.st145{fill:#EB7775;}
	.st146{fill:#EE8483;}
	.st147{fill:#E64845;}
	.st148{fill:#E75655;}
	.st149{fill:#E65451;}
	.st150{fill:#EA7473;}
	.st151{fill:#E55B57;}
	.st152{fill:#E75756;}
	.st153{fill:#EB7472;}
	.st154{fill:#EE8C8A;}
	.st155{fill:#F5A3A2;}
	.st156{fill:#E14A49;}
	.st157{fill:#E14D4C;}
	.st158{fill:#E14B49;}
	.st159{fill:#DE3E3D;}
	.st160{fill:#E45350;}
	.st161{fill:#E14544;}
	.st162{fill:#E54E4B;}
	.st163{fill:#E34240;}
	.st164{fill:#E75C5A;}
	.st165{fill:#EB7C7B;}
	.st166{fill:#F3A2A1;}
	.st167{fill:#EA7877;}
	.st168{fill:#E66B6A;}
	.st169{fill:#E96A69;}
	.st170{fill:#E56160;}
	.st171{fill:#E44845;}
	.st172{fill:#EC7473;}
	.st173{fill:#F9C0D3;}
	.st174{fill:#F298B5;}
	.st175{fill:#EE89A7;}
	.st176{fill:#E54D73;}
	.st177{fill:#E44771;}
	.st178{fill:#E7567E;}
	.st179{fill:#EC7797;}
	.st180{fill:#F8BCCF;}
	.st181{fill:#EB6D8F;}
	.st182{fill:#F089A8;}
	.st183{fill:#FCE2EB;}
	.st184{fill:#E55B7F;}
	.st185{fill:#E6708E;}
	.st186{fill:#EB87A2;}
	.st187{fill:#E25677;}
	.st188{fill:#E7678B;}
	.st189{fill:#FBD7E3;}
	.st190{fill:#ED80A1;}
	.st191{fill:#E24166;}
	.st192{fill:#E13B65;}
	.st193{fill:#E34870;}
	.st194{fill:#E76486;}
	.st195{fill:#F49DB8;}
	.st196{fill:#F7BFD1;}
	.st197{fill:#E65C7F;}
	.st198{fill:#F6ABC4;}
	.st199{fill:#F6A7C2;}
	.st200{fill:#EA6189;}
	.st201{fill:#DB3258;}
	.st202{fill:#DA2E55;}
	.st203{fill:#F7B2C9;}
	.st204{fill:#EA6A8D;}
	.st205{fill:#DC355B;}
	.st206{fill:#DB3159;}
	.st207{fill:#DF3C63;}
	.st208{fill:#F9C5D6;}
	.st209{fill:#EB7697;}
	.st210{fill:#DE3B61;}
	.st211{fill:#DE375F;}
	.st212{fill:#E1426A;}
	.st213{fill:#FDE7EE;}
	.st214{fill:#EE89A9;}
	.st215{fill:#E2456B;}
	.st216{fill:#E14069;}
	.st217{fill:#E44D75;}
	.st218{fill:#E86B8C;}
	.st219{fill:#EE7A9C;}
	.st220{fill:#F5A8C0;}
	.st221{fill:#FACBDA;}
	.st222{fill:#E65A7D;}
	.st223{fill:#E04169;}
	.st224{fill:#FEF5F9;}
	.st225{fill:#F191B0;}
	.st226{fill:#EA7292;}
	.st227{fill:#F6B4C9;}
	.st228{fill:#FBD8E5;}
	.st229{fill:#E96C8F;}
	.st230{fill:#E35477;}
	.st231{fill:#EA7396;}
	.st232{fill:#EB7A9D;}
	.st233{fill:#E8698D;}
	.st234{fill:#EB7094;}
	.st235{fill:#E04B6E;}
	.st236{fill:#E66085;}
	.st237{fill:#EB7294;}
	.st238{fill:#E7678C;}
	.st239{fill:#EA6D91;}
	.st240{fill:#E14C71;}
	.st241{fill:#EE7A9D;}
	.st242{fill:#F393B2;}
	.st243{fill:#DC3F64;}
	.st244{fill:#EF82A3;}
	.st245{fill:#F39DB9;}
	.st246{fill:#DF466B;}
	.st247{fill:#DF4469;}
	.st248{fill:#F29A98;}
	.st249{fill:#E64F4D;}
	.st250{fill:#E74947;}
	.st251{fill:#E85956;}
	.st252{fill:#EC7775;}
	.st253{fill:#F8BCBA;}
	.st254{fill:#EC6F6D;}
	.st255{fill:#FCE2E2;}
	.st256{fill:#F8C8C6;}
	.st257{fill:#F08B89;}
	.st258{fill:#F18A89;}
	.st259{fill:#B093A4;}
	.st260{fill:#A38295;}
	.st261{fill:#6F455A;}
	.st262{fill:#694055;}
	.st263{fill:#794F64;}
	.st264{fill:#936F83;}
	.st265{fill:#CDB7C1;}
	.st266{fill:#B596A5;}
	.st267{fill:#A58394;}
	.st268{fill:#8C667A;}
	.st269{fill:#B696A7;}
	.st270{fill:#E8E0E7;}
	.st271{fill:#E1BCC2;}
	.st272{fill:#A9666E;}
	.st273{fill:#681C23;}
	.st274{fill:#641920;}
	.st275{fill:#73242D;}
	.st276{fill:#8D3F48;}
	.st277{fill:#C69197;}
	.st278{fill:#893841;}
	.st279{fill:#E3CCCE;}
	.st280{fill:#6F292E;}
	.st281{fill:#A15A63;}
	.st282{fill:#944952;}
	.st283{fill:#944953;}
	.st284{fill:#964A53;}
	.st285{fill:#984B54;}
	.st286{fill:#974A53;}
	.st287{fill:#A25A62;}
	.st288{fill:#D2BCC8;}
	.st289{fill:#C8B2BE;}
	.st290{fill:#936A80;}
	.st291{fill:#8E667B;}
	.st292{fill:#9B7589;}
	.st293{fill:#B293A3;}
	.st294{fill:#916B7F;}
	.st295{fill:#DDCCD6;}
	.st296{fill:#AC8B9C;}
	.st297{fill:#F1EBEF;}
	.st298{fill:#9C7A8C;}
	.st299{fill:#8F6C80;}
	.st300{fill:#B99DAC;}
	.st301{fill:#A27F91;}
	.st302{fill:#C2A7B6;}
	.st303{fill:#AB8E9F;}
	.st304{fill:#936D82;}
	.st305{fill:#856174;}
	.st306{fill:#B99DAB;}
	.st307{fill:#C2A9B6;}
	.st308{fill:#A38091;}
	.st309{fill:#BBA3B0;}
	.st310{fill:#7A5468;}
	.st311{fill:#855F73;}
	.st312{fill:#AE8E9F;}
	.st313{fill:#7C556A;}
	.st314{fill:#7B5066;}
	.st315{fill:#855C71;}
	.st316{fill:#AF8E9F;}
	.st317{fill:#734B60;}
	.st318{fill:#694256;}
	.st319{fill:#916A80;}
	.st320{fill:#886378;}
	.st321{fill:#875C71;}
	.st322{fill:#714B5E;}
	.st323{fill:#582F42;}
	.st324{fill:#795066;}
	.st325{fill:#5E3A4B;}
	.st326{fill:#8A6578;}
	.st327{fill:#A98E9D;}
	.st328{fill:#B9A1B1;}
	.st329{fill:#B08F9F;}
	.st330{fill:#B898AA;}
	.st331{fill:#896578;}
	.st332{fill:#653C50;}
	.st333{fill:#623A4E;}
	.st334{fill:#6C4257;}
	.st335{fill:#B28FA1;}
	.st336{fill:#80596E;}
	.st337{fill:#7F586C;}
	.st338{fill:#765063;}
	.st339{fill:#683F53;}
	.st340{fill:#774E63;}
	.st341{fill:#704B5F;}
	.st342{fill:#674355;}
	.st343{fill:#7F5A6E;}
	.st344{fill:#815A6E;}
	.st345{fill:#6A4558;}
	.st346{fill:#5D374A;}
	.st347{fill:#926D80;}
	.st348{fill:#70475B;}
	.st349{fill:#72495E;}
	.st350{fill:#673D52;}
	.st351{fill:#673D51;}
	.st352{fill:#60364B;}
	.st353{fill:#795265;}
	.st354{fill:#683F52;}
	.st355{fill:#7A5368;}
	.st356{fill:#987387;}
	.st357{fill:#70475C;}
	.st358{fill:#A07D92;}
	.st359{fill:#81596E;}
	.st360{fill:#926C7F;}
	.st361{fill:#80596D;}
	.st362{fill:#CDC0E4;}
	.st363{fill:#A998CF;}
	.st364{fill:#644DA1;}
	.st365{fill:#5E479E;}
	.st366{fill:#6F56A9;}
	.st367{fill:#755CAC;}
	.st368{fill:#8975BA;}
	.st369{fill:#C4BAE0;}
	.st370{fill:#755DAD;}
	.st371{fill:#846DB7;}
	.st372{fill:#E7E2F2;}
	.st373{fill:#9B89C5;}
	.st374{fill:#8871B8;}
	.st375{fill:#9C89C6;}
	.st376{fill:#8673B9;}
	.st377{fill:#B9E1BA;}
	.st378{fill:#ADDBAE;}
	.st379{fill:#99D09A;}
	.st380{fill:#65B567;}
	.st381{fill:#5FB261;}
	.st382{fill:#70BB71;}
	.st383{fill:#8DCB8E;}
	.st384{fill:#CBE9CB;}
	.st385{fill:#86C687;}
	.st386{fill:#98D099;}
	.st387{fill:#EBF5EB;}
	.st388{fill:#B9D6C9;}
	.st389{fill:#8EBD9E;}
	.st390{fill:#7DB18E;}
	.st391{fill:#408251;}
	.st392{fill:#3A7F4C;}
	.st393{fill:#4A8C5B;}
	.st394{fill:#68A279;}
	.st395{fill:#B5D4BE;}
	.st396{fill:#7CB38B;}
	.st397{fill:#619D71;}
	.st398{fill:#E0ECE4;}
	.st399{fill:#74A38C;}
	.st400{fill:#679880;}
	.st401{fill:#669780;}
	.st402{fill:#669881;}
	.st403{fill:#285E41;}
	.st404{fill:#235A3C;}
	.st405{fill:#31684A;}
	.st406{fill:#4D8268;}
	.st407{fill:#A1C2B0;}
	.st408{fill:#679981;}
	.st409{fill:#467B62;}
	.st410{fill:#D6E5DF;}
	.st411{fill:#8ECA8F;}
	.st412{fill:#7DC07F;}
	.st413{fill:#409841;}
	.st414{fill:#3A933C;}
	.st415{fill:#4AA14B;}
	.st416{fill:#68B569;}
	.st417{fill:#7CC07D;}
	.st418{fill:#B5DDB5;}
	.st419{fill:#61B062;}
	.st420{fill:#7CC17E;}
	.st421{fill:#E0EFE0;}
	.st422{fill:#EBF5DE;}
	.st423{fill:#D4EAB8;}
	.st424{fill:#D2E9B4;}
	.st425{fill:#D8ECBE;}
	.st426{fill:#E2F0CE;}
	.st427{fill:#F3F9EA;}
	.st428{fill:#DFF0CA;}
	.st429{fill:#FAFDF7;}
	.st430{fill:#D3C9BE;}
	.st431{fill:#CBBEB3;}
	.st432{fill:#BBAC9F;}
	.st433{fill:#97826F;}
	.st434{fill:#947E69;}
	.st435{fill:#9F8A79;}
	.st436{fill:#B5A495;}
	.st437{fill:#DED6CE;}
	.st438{fill:#BBAD9F;}
	.st439{fill:#AE9E8D;}
	.st440{fill:#F2EFEC;}
	.st441{fill:#B1A091;}
	.st442{fill:#B1A090;}
	.st443{fill:#D8BACF;}
	.st444{fill:#976286;}
	.st445{fill:#905778;}
	.st446{fill:#4F1939;}
	.st447{fill:#4C1637;}
	.st448{fill:#5A2144;}
	.st449{fill:#773B60;}
	.st450{fill:#B88FAD;}
	.st451{fill:#6E345A;}
	.st452{fill:#8E567D;}
	.st453{fill:#E1CCDA;}
	.st454{fill:#C4E2A7;}
	.st455{fill:#93C35F;}
	.st456{fill:#8EC15A;}
	.st457{fill:#9AC868;}
	.st458{fill:#B0D587;}
	.st459{fill:#DCEBC3;}
	.st460{fill:#C8E0AA;}
	.st461{fill:#ABD280;}
	.st462{fill:#CAE2A9;}
	.st463{fill:#EFF8E7;}
	.st464{fill:#FFF6C0;}
	.st465{fill:#FFEC97;}
	.st466{fill:#FFDC4B;}
	.st467{fill:#FFD945;}
	.st468{fill:#FFDD54;}
	.st469{fill:#FFE774;}
	.st470{fill:#FFF4BA;}
	.st471{fill:#FFE46C;}
	.st472{fill:#FFF9E2;}
	.st473{fill:#FDE2C1;}
	.st474{fill:#F9CA98;}
	.st475{fill:#F9C18A;}
	.st476{fill:#F5994E;}
	.st477{fill:#F49448;}
	.st478{fill:#F8A158;}
	.st479{fill:#F8B577;}
	.st480{fill:#FCDDBC;}
	.st481{fill:#F8B06F;}
	.st482{fill:#FFEFE2;}
	.st483{fill:#F8A7A4;}
	.st484{fill:#EF8262;}
	.st485{fill:#EC605A;}
	.st486{fill:#EB5B55;}
	.st487{fill:#EC6964;}
	.st488{fill:#F28783;}
	.st489{fill:#F9C4C1;}
	.st490{fill:#F2817A;}
	.st491{fill:#EB6449;}
	.st492{fill:#FCE7E7;}
	.st493{fill:#FFEA88;}
	.st494{fill:#FFEB87;}
	.st495{fill:#FDF2E3;}
	.st496{fill:#FDEFDD;}
	.st497{fill:#F9E1C4;}
	.st498{fill:#FADEB9;}
	.st499{fill:#FADDB7;}
	.st500{fill:#FAE0BF;}
	.st501{fill:#FBE9CF;}
	.st502{fill:#F9DAB8;}
	.st503{fill:#FDF5EB;}
	.st504{fill:#FBE6CB;}
	.st505{fill:#FFFBF7;}
	.st506{fill:#FBDFBE;}
	.st507{fill:#F7D8B5;}
	.st508{fill:#FBE8CF;}
	.st509{fill:#FBE3C8;}
	.st510{fill:#F9E8CF;}
	.st511{fill:#F8DBB7;}
	.st512{fill:#FADBB5;}
	.st513{fill:#F7D5AE;}
	.st514{fill:#FDE9D5;}
	.st515{fill:#FAE3C8;}
	.st516{fill:#F7D1A4;}
	.st517{fill:#F5CD9D;}
	.st518{fill:#F7D8B0;}
	.st519{fill:#F8D4A9;}
	.st520{fill:#F8D3A6;}
	.st521{fill:#F8D8AF;}
	.st522{fill:#F7CD9E;}
	.st523{fill:#F4C896;}
	.st524{fill:#FBE3C5;}
	.st525{fill:#F7DBB8;}
	.st526{fill:#F7D8B1;}
	.st527{fill:#F7D7B0;}
	.st528{fill:#F8CD9F;}
	.st529{fill:#F8CD9E;}
	.st530{fill:#F1BE84;}
	.st531{fill:#F8D0A3;}
	.st532{fill:#F1C38D;}
	.st533{fill:#F8D8B1;}
	.st534{fill:#FBE2C8;}
	.st535{fill:#F9EAD3;}
	.st536{fill:#F9D3AA;}
	.st537{fill:#F7C896;}
	.st538{fill:#F7C794;}
	.st539{fill:#F7CA9A;}
	.st540{fill:#F7D3AB;}
	.st541{fill:#F8D8B5;}
	.st542{fill:#F9E6CF;}
	.st543{fill:#F7C897;}
	.st544{fill:#F8D3AA;}
	.st545{fill:#F7CEA2;}
	.st546{fill:#F4CD9E;}
	.st547{fill:#F5D2A5;}
	.st548{fill:#FBE2C2;}
	.st549{fill:#F5D1A8;}
	.st550{fill:#F8D5AB;}
	.st551{fill:#F2C695;}
	.st552{fill:#F8D3A8;}
	.st553{fill:#F5C998;}
	.st554{fill:#F5C894;}
	.st555{fill:#F2C997;}
	.st556{fill:#F2C48D;}
	.st557{fill:#F4C694;}
	.st558{fill:#F5CE9D;}
	.st559{fill:#F4C594;}
	.st560{fill:#F5C995;}
	.st561{fill:#F4C48F;}
	.st562{fill:#F7D2A6;}
	.st563{fill:#F8DFBB;}
	.st564{fill:#FBE2C3;}
	.st565{fill:#F8CC9E;}
	.st566{fill:#FADFC1;}
	.st567{fill:#F9D8B5;}
	.st568{fill:#F4C997;}
	.st569{fill:#F9DDB8;}
	.st570{fill:#FDFCED;}
	.st571{fill:#FBF7D2;}
	.st572{fill:#F9F6CB;}
	.st573{fill:#F4EBA8;}
	.st574{fill:#F5E9A6;}
	.st575{fill:#F5EDAC;}
	.st576{fill:#F7F5C0;}
	.st577{fill:#FBFBE1;}
	.st578{fill:#F7F0BE;}
	.st579{fill:#FAF6CE;}
	.st580{fill:#FFFBF5;}
	.st581{fill:#BDDB97;}
	.st582{fill:#BBDC99;}
	.st583{fill:#BDDD99;}
	.st584{fill:#B0D484;}
	.st585{fill:#AFD484;}
	.st586{fill:#FFEA87;}
	.st587{fill:#D3E9BA;}
	.st588{fill:#E1EECE;}
	.st589{fill:#D3E8BB;}
	.st590{fill:#E3EECE;}
	.st591{opacity:0.9;}
	.st592{fill:#FFF8CD;}
	.st593{opacity:0.9;fill:#FFEE8A;}
	.st594{fill:#FFF19E;}
	.st595{fill:#FFF5B6;}
	.st596{fill:#FFFBE0;}
	.st597{fill:none;stroke:#FFF4B1;stroke-width:0;}
	.st598{fill:#FFFDF3;}
	.st599{fill:#FACEDD;}
	.st600{opacity:0.9;fill:#F38CAF;}
	.st601{fill:#F5A0BD;}
	.st602{fill:#F8B8CD;}
	.st603{fill:#FCE1EA;}
	.st604{fill:none;stroke:#F7B2C9;stroke-width:0;}
	.st605{fill:#FEF3F7;}
	.st606{fill:#FBDBB6;}
	.st607{fill:#FBD1A3;}
	.st608{fill:#F9B674;}
	.st609{fill:#F8B36E;}
	.st610{fill:#FABB7E;}
	.st611{fill:#FACB99;}
	.st612{fill:#FDE9D1;}
	.st613{fill:#FAC893;}
	.st614{fill:#F9D0A1;}
	.st615{fill:#FFF5EC;}
	.st616{fill:#D7ECC0;}
	.st617{fill:#B1D684;}
	.st618{fill:#ADD680;}
	.st619{fill:#B7D98D;}
	.st620{fill:#C8E2A7;}
	.st621{fill:#E8F2D6;}
	.st622{fill:#C3E0A0;}
	.st623{fill:#F5FAEF;}
	.st624{fill:#A87699;}
	.st625{fill:#A9716E;}
	.st626{fill:#9F698A;}
	.st627{fill:#9F698D;}
	.st628{fill:#65294F;}
	.st629{fill:#632638;}
	.st630{fill:#62244A;}
	.st631{fill:#612335;}
	.st632{fill:#6E3259;}
	.st633{fill:#6D2F40;}
	.st634{fill:#8B4E74;}
	.st635{fill:#C4A1BB;}
	.st636{fill:#9D688D;}
	.st637{fill:#82476E;}
	.st638{fill:#E7D6E1;}
	.st639{fill:#FFF9D6;}
	.st640{fill:#FFF2A6;}
	.st641{fill:#FFF4B0;}
	.st642{fill:#FFF7C4;}
	.st643{fill:#FFFCE6;}
	.st644{fill:#FFF3B5;}
	.st645{fill:#FFED8B;}
	.st646{fill:#FFED94;}
	.st647{fill:#FFF1A4;}
	.st648{fill:#FFF5BF;}
	.st649{fill:#FFF6CD;}
	.st650{fill:#FFE46E;}
	.st651{fill:#FFED98;}
	.st652{fill:#FFF3A9;}
	.st653{fill:#FFEC8D;}
	.st654{fill:#FFE66B;}
	.st655{fill:#FFEC8A;}
	.st656{fill:#FFE66D;}
	.st657{fill:#FFE571;}
	.st658{fill:#FFEF94;}
	.st659{fill:#FFEF9E;}
	.st660{fill:#FFED93;}
	.st661{fill:#FFE873;}
	.st662{fill:#FFE97A;}
	.st663{fill:#FFEC87;}
	.st664{fill:#FFF19F;}
	.st665{fill:#FFF1A8;}
	.st666{fill:#FFEA7E;}
	.st667{fill:#FFEB86;}
	.st668{fill:#FFEF97;}
	.st669{fill:#FFF2B0;}
	.st670{fill:#FFF4BC;}
	.st671{fill:#FFF5C1;}
	.st672{fill:#FFF8CF;}
	.st673{fill:#FFF8DC;}
	.st674{fill:#FFF0A0;}
	.st675{fill:#FFEE92;}
	.st676{fill:#FFF6CE;}
	.st677{fill:#FFFADD;}
	.st678{fill:#FFFBEC;}
	.st679{fill:#FFFDF5;}
	.st680{fill:#F49C52;}
	.st681{fill:#F69D52;}
	.st682{fill:#F8A55E;}
	.st683{fill:#F8B472;}
	.st684{fill:#F59D54;}
	.st685{fill:#F8A65F;}
	.st686{fill:#F8B474;}
	.st687{fill:#FDF3E9;}
	.st688{fill:#FAE8D1;}
	.st689{fill:#FAE8CF;}
	.st690{fill:#FAEBD4;}
	.st691{fill:#F9EDD7;}
	.st692{fill:#FBEFDE;}
	.st693{fill:#FBEFDD;}
	.st694{fill:#FDF8F1;}
	.st695{fill:#FBEDD7;}
	.st696{fill:#FBEFDC;}
	.st697{fill:#FFFBFA;}
	.st698{fill:#FFE771;}
	.st699{fill:#FFEB83;}
	.st700{fill:#FFED90;}
	.st701{fill:#F7B6CB;}
	.st702{fill:#F4A2BB;}
	.st703{fill:#EE7397;}
	.st704{fill:#ED6D94;}
	.st705{fill:#EF7C9F;}
	.st706{fill:#F399B5;}
	.st707{fill:#FAD1DE;}
	.st708{fill:#F291AE;}
	.st709{fill:#F3A1BB;}
	.st710{fill:#FDECF2;}
</style>
<g>
	<path class="st454" d="M122.56,28.67l-0.12,0.1l-0.12,0.1C122.42,28.81,122.5,28.74,122.56,28.67"/>
	<path class="st454" d="M72.3,35.5c-0.56,0-2.87,0.39-5.71,1.01c-3.14,0.65-6.9,1.7-9.39,1.87c-3.95,0.1-8.21,0.4-12.19,3.62
		c-0.86,1.02-0.38,2.43-1.15,3.47c-0.49,0.54-1.91,3.04-3.25,6.7c-1.33,3.66-2.46,8.62-2.5,13.71c-0.01,0.2-0.01,0.41-0.01,0.62
		c0,1.06,0.09,2.15,0.15,3.17c0.13,1.26,0.3,2.49,0.53,3.66c0.48,2.36,1.17,4.54,1.9,6.32c1.49,3.56,2.97,5.74,3.12,6.63
		c0.02,0.34,0.03,0.7,0.03,1.07l0,0c0,0.83-0.06,1.7-0.22,2.48c-0.21,1.08-0.6,1.95-1.31,2.01c-1.75,0.62-2.5,2.08-2.92,3.75
		c-0.21,0.83-0.36,1.74-0.54,2.62c-0.18,0.86-0.4,1.72-0.78,2.49c-0.49,0.72-1.93,0.42-2.43,1.13c-0.5,1.21-0.85,2.76-0.85,4.32
		c0,0.01,0,0.02,0,0.04c0.01,1.61,0.36,3.18,1.19,4.48c1.17,2.35,2.73,4.54,4.42,6.33c1.71,1.81,3.45,3.12,5.19,4.02
		c2.29,1.83,4.71,3.62,7.48,5.34c0.25,0.07,0.5,0.14,0.76,0.21c2.77,0.73,5.57,1.18,8.58,1.31c0.87,0.07,1.69,0.1,2.43,0.1
		c0.44,0,0.85-0.01,1.21-0.02c0.96-0.04,1.81-0.12,2.5-0.18c0.41-0.03,0.79-0.05,1.13-0.05c0.23,0,0.46,0.01,0.67,0.03
		c0.58,0.05,1.16,0.18,1.83,0.43c0.04,0.01,0.08,0.02,0.13,0.02c0.61,0,1.89-0.86,3.95-2.02c0.55-0.3,1.14-0.63,1.77-0.98
		c0.67-0.36,1.39-0.73,2.14-1.1c0.78-0.37,1.61-0.76,2.48-1.18c0.8-0.36,1.63-0.73,2.51-1.13c-0.08-0.02-0.36-0.1-0.82-0.27
		c-0.54-0.2-1.33-0.5-2.36-0.91c-0.06,0.02-0.11,0.05-0.17,0.07c-0.81,0.35-1.89,0.73-3.36,1.14c-2.17,0.59-5.04,1.03-8.02,1.03
		c-0.89,0-1.79-0.04-2.68-0.12c-7.86-0.66-15.04-4.58-15.97-10.85c0,0-0.87-1.48-1.97-3.84c-1.09-2.35-2.36-5.62-3.03-8.98
		c-0.33-1.58-0.5-3.17-0.5-4.63l0,0c0-1.63,0.22-3.11,0.67-4.24c0.7-1.75,1.85-2.66,3.41-2.66c0.41,0,0.86,0.06,1.33,0.19
		c0,0,0.55,0.14,1.55,0.38c1,0.22,2.42,0.5,4.14,0.71c1.82,0.23,3.95,0.33,6.26,0.33c2.08,0,4.31-0.08,6.62-0.24
		c2.38-0.19,4.74-0.55,6.8-1.18c0.71-0.22,1.38-0.48,1.98-0.77c-0.36-0.41-0.84-0.96-1.3-1.42c-0.55-0.6-1.06-1.07-1.75-1.74
		c0,0-0.29-0.26-0.86-0.78c-0.13-0.12-0.28-0.26-0.47-0.43c-1.55-1.38-3.38-2.88-5.17-4.26c-0.64-0.49-1.22-0.94-1.73-1.33
		c-0.54-0.4-1.01-0.75-1.4-1.03c-0.92-0.68-1.44-1.06-1.44-1.06c-0.44-0.31-0.8-0.58-1.05-0.91c-0.08-0.1-0.14-0.21-0.19-0.33
		c-0.12-0.28-0.19-0.59-0.24-0.85l0,0c-0.04-0.2-0.05-0.43-0.05-0.66l0,0l0,0l0,0l0,0l0,0l0,0l0,0l0,0l0,0l0,0
		c0-0.58,0.11-1.22,0.29-1.77c0-0.02,0.01-0.03,0.01-0.04c0.24-0.94,0.61-1.66,0.92-2.43l0,0c0.31-0.71,0.57-1.16,0.57-1.16
		l1.77-1.38c0.01-0.18,0.1-0.38,0.25-0.66l0,0c0.06-0.11,0.13-0.23,0.2-0.36c0.12-0.19,0.25-0.4,0.4-0.61
		c0.25-0.35,0.54-0.73,0.85-1.12l0,0c0.18-0.24,0.37-0.48,0.55-0.72c0.14-0.19,0.29-0.37,0.43-0.56c1.42-1.8,2.71-3.42,2.71-3.42
		l0,0c3.85-3.15,5.89-7.59,7.14-11.7c-0.4,0.06-0.82,0.13-1.23,0.19c-1.97,0.28-3.98,0.62-4.79,0.62c-0.24,0-0.38-0.03-0.38-0.1l0,0
		c0-0.05,0.08-0.13,0.26-0.24c-0.01,0-0.03,0-0.04,0c-0.4,0-1.35-0.72-1.72-1.34c-0.08-0.41-0.36-0.96-0.36-1.32l0,0
		c0-0.09,0.02-0.17,0.06-0.24c0.95-1.32,1.14-2.77,1.14-4.26c0-0.96-0.08-1.93-0.08-2.87l0,0c0-0.39,0.01-0.77,0.05-1.15
		C72.4,35.51,72.36,35.5,72.3,35.5"/>
	<path class="st581" d="M63.71,73.67c0.05,0.12,0.12,0.23,0.19,0.33c0.25,0.33,0.62,0.6,1.05,0.91c0,0,0.52,0.38,1.44,1.06
		c0.38,0.29,0.85,0.63,1.4,1.03c0.51,0.4,1.1,0.84,1.73,1.33c1.79,1.38,3.62,2.88,5.17,4.26l0,0l0,0c-1.55-1.38-3.38-2.88-5.17-4.26
		c-0.64-0.49-1.22-0.94-1.73-1.33c-0.54-0.4-1.01-0.75-1.4-1.03c-0.92-0.68-1.44-1.06-1.44-1.06c-0.02-0.01-0.04-0.03-0.06-0.04
		c-0.41-0.29-0.75-0.55-0.99-0.87l0,0l0,0C63.82,73.9,63.76,73.79,63.71,73.67L63.71,73.67 M63.42,72.16L63.42,72.16
		c0,0.23,0.02,0.46,0.05,0.66l0,0l0,0l0,0C63.43,72.61,63.42,72.39,63.42,72.16L63.42,72.16"/>
	<path class="st454" d="M126.98,39.9C126.98,39.9,126.98,39.9,126.98,39.9c0,0,0.1,0,0.35,0.01l0,0
		C127.15,39.9,126.99,39.9,126.98,39.9 M121.43,39.76L121.43,39.76c0.29,0.01,0.58,0.01,0.85,0.02
		C121.91,39.77,121.61,39.76,121.43,39.76"/>
	<path class="st454" d="M127.47,39.91c0.84,0.02,1.2,0.03,1.21,0.03c0.01,0-0.23-0.01-0.64-0.02c0.05,0,0.07,0,0.07,0l0,0
		c0,0,0,0,0,0c-0.01,0-0.29-0.01-0.56-0.01C127.52,39.91,127.49,39.91,127.47,39.91"/>
	<path class="st454" d="M125.75,41.57l-0.02,0.05l-0.04,0.13c0.02-0.02,0.03-0.05,0.05-0.07l0-0.06L125.75,41.57"/>
	<path class="st454" d="M94.35,41.66l-2.3,0.62c-2.9,0.78-5.3,2.86-7.89,2.86c-0.41,0-0.82-0.05-1.24-0.17
		c0.28,0.09,0.41,0.18,0.41,0.28l0,0c0,0.34-1.76,0.66-3.81,0.99c-1.25,4.11-3.29,8.55-7.14,11.7l0,0c0,0-1.29,1.63-2.71,3.42
		c-0.14,0.18-0.29,0.37-0.43,0.56c-0.19,0.24-0.37,0.48-0.55,0.72l0,0c-0.31,0.38-0.6,0.76-0.85,1.12c-0.15,0.21-0.29,0.42-0.4,0.61
		c-0.08,0.13-0.14,0.25-0.2,0.36l0,0c-0.15,0.28-0.24,0.48-0.25,0.66l-1.77,1.38c0,0-0.25,0.44-0.57,1.16l0,0
		c-0.31,0.77-0.68,1.49-0.92,2.43c0,0.01-0.01,0.03-0.01,0.04c-0.18,0.54-0.29,1.18-0.29,1.77c0,0.23,0.02,0.46,0.05,0.66l0,0
		c0.05,0.26,0.12,0.58,0.24,0.85c0.05,0.12,0.12,0.23,0.19,0.33c0.25,0.33,0.62,0.6,1.05,0.91c0,0,0.52,0.38,1.44,1.06
		c0.38,0.29,0.85,0.63,1.4,1.03c0.51,0.4,1.1,0.84,1.73,1.33c1.79,1.38,3.62,2.88,5.17,4.26c-0.02-0.02-0.05-0.04-0.07-0.06
		c-0.05-0.04-0.1-0.14-0.19-0.23c-0.31-0.43-0.85-1.29-1.91-3.47c0,0-0.01-0.11-0.01-0.3l0,0c0-0.2,0.01-0.49,0.04-0.84
		c0.06-0.67,0.15-1.69,0.46-2.64c0.59-2.05,1.94-4.45,5.16-5.35c0,0,0.68-0.44,1.7-1.35c0.51-0.45,1.11-0.96,1.76-1.59
		c0.65-0.65,1.34-1.38,2.05-2.15c2.8-3.16,5.77-7.56,6.17-10.86c0,0,1.47-0.92,2.85-2.34c0.71-0.73,1.41-1.59,1.89-2.52
		c0.12-0.24,0.23-0.48,0.33-0.74c0.03-0.23,0.07-0.45,0.1-0.65c0.04-0.27,0.08-0.51,0.12-0.72c0.01-0.08,0.01-0.13,0.01-0.19
		c0-0.04,0-0.07,0-0.11l0,0c0-0.02,0-0.03,0-0.05c0-0.17,0-0.26,0-0.26l0,0l0,0l0,0l0,0c0.06,0.17,0.1,0.34,0.12,0.51
		c0,0.02,0.01,0.04,0.01,0.06l0,0c0,0.07-0.01,0.17-0.03,0.27c-0.02,0.13-0.05,0.26-0.08,0.39c-0.07,0.25-0.15,0.5-0.24,0.74
		c-0.12,0.81-0.25,1.79-0.4,2.92c0.26-1.07,0.54-2.14,0.83-3.18c0.08-0.28,0.17-0.55,0.25-0.83c0.08-0.27,0.09-0.36,0.14-0.54
		c0.07-0.28,0.14-0.56,0.21-0.83c0.14-0.52,0.31-1,0.48-1.44c0-0.01,0.01-0.02,0.01-0.03L94.35,41.66"/>
	<path class="st581" d="M63.72,70.35c0,0.01-0.01,0.03-0.01,0.04c-0.18,0.54-0.29,1.18-0.29,1.77l0,0c0-0.58,0.11-1.22,0.29-1.77
		C63.71,70.38,63.71,70.36,63.72,70.35 M67.22,64.72L67.22,64.72c-0.15,0.28-0.24,0.48-0.25,0.66l-1.77,1.38
		c0,0-0.25,0.44-0.57,1.16l0,0l0,0c0.31-0.71,0.57-1.16,0.57-1.16l1.77-1.38C66.98,65.2,67.07,65,67.22,64.72L67.22,64.72
		 M68.67,62.64L68.67,62.64c-0.01,0.01-0.02,0.02-0.03,0.04c-0.3,0.37-0.58,0.74-0.82,1.08l0,0l0,0c-0.15,0.21-0.29,0.42-0.4,0.61
		l0,0c0.12-0.19,0.25-0.4,0.4-0.61C68.07,63.4,68.36,63.02,68.67,62.64L68.67,62.64 M72.37,57.93L72.37,57.93L72.37,57.93
		c0,0-1.29,1.63-2.71,3.42l0,0l0,0c-0.14,0.18-0.29,0.37-0.43,0.56l0,0c0.14-0.19,0.29-0.37,0.43-0.56
		C71.08,59.56,72.37,57.93,72.37,57.93L72.37,57.93"/>
	<path class="st454" d="M83.97,84.04c-0.01,0.01-0.01,0.01-0.02,0.02c-0.25,0.3-0.49,0.63-0.74,1c-0.24,0.37-0.48,0.78-0.7,1.22
		c-0.22,0.41-0.42,0.81-0.58,1.21c-0.16,0.41-0.29,0.81-0.36,1.19c0.15-0.24,0.36-0.58,0.63-1.04c0.19-0.35,0.39-0.72,0.59-1.09
		c0.21-0.45,0.43-0.9,0.64-1.35C83.62,84.81,83.81,84.42,83.97,84.04"/>
	<polyline class="st454" points="81.46,90.35 81.47,90.37 81.46,90.36 81.46,90.35 	"/>
	<path class="st454" d="M98.32,90.79c-0.39,1.49-0.76,3-1.13,4.52c-0.81,3.34-1.62,6.95-3.66,10.88c-0.38,0.73-0.81,1.46-1.28,2.18
		c1.96-2.1,3.18-4.35,3.99-6.45c0.85-2.24,1.31-4.35,1.58-6.38C98.05,93.94,98.21,92.36,98.32,90.79"/>
	<path class="st454" d="M80.1,97.06c-1.25,1.38-3.09,2.77-5.36,4.1c0,0-0.23,0.29-0.58,0.79c0.14-0.08,0.27-0.16,0.41-0.25
		c1.79-1.08,3.48-2.4,4.77-3.75C79.61,97.66,79.86,97.36,80.1,97.06"/>
	<path class="st454" d="M77.9,118.51c-0.4,0.05-0.82,0.08-1.24,0.11c0.57,0.25,1.18,0.49,1.84,0.72c0.52,0.15,1.05,0.29,1.62,0.41
		c-0.57-0.3-1.18-0.63-1.83-0.99C78.16,118.67,78.03,118.59,77.9,118.51"/>
	<path class="st455" d="M108.9,18.23c-2.28,0-4.6,0.29-6.92,0.88c-0.5,0.22-1,0.43-1.45,0.68c-0.44,0.26-0.83,0.56-1.11,0.9
		c-0.58,0.64-2.5,1.21-3.38,1.79c-3.02,0.9-6.07,1.77-8.97,3.21c-2.52,1.25-4.93,2.96-6.7,5.35c0.03,0.02,0.07,0.03,0.1,0.05
		c1.74-2.29,4.07-3.96,6.52-5.19c2.89-1.45,5.93-2.32,8.94-3.23c0.87-0.58,2.78-1.16,3.35-1.8c0.56-0.69,1.53-1.17,2.54-1.58
		c2.36-0.61,4.72-0.91,7.04-0.91c1.46,0,2.9,0.12,4.32,0.35l5,0.69l2.41,3.47c0.74,1.06,1.31,2.21,1.7,3.33
		c0.16,0.62,0.47,1.31,0.47,1.86l0,0c0,0.24-0.06,0.45-0.21,0.62l0.17-0.14c0.07-0.09,0.24-0.14,0.24-0.26c0,0,0,0,0-0.01l-0.08-0.4
		c-0.1-0.53-0.27-1.1-0.46-1.66c-0.4-1.15-0.98-2.33-1.74-3.42l-2.45-3.52l-5.04-0.69h0C111.79,18.34,110.36,18.23,108.9,18.23"/>
	<path class="st455" d="M122.32,28.87c-0.06,0.04-0.14,0.07-0.22,0.1c0.02,0.41,0.09,0.81,0.09,1.21l0.17,0.12l0.24,0.11l0.23,0.11
		l0.01,0.15l0,0l0,0c-0.02,0.21-0.05,0.41-0.09,0.62c-0.26,1.65-0.83,3.24-1.31,4.92c-0.13,0.79-0.21,1.57-0.22,2.3
		c0,0.08,0,0.15,0,0.23c0,0.2,0.02,0.4,0.03,0.59l0.03,0.28l0.01,0.07l0,0.04l0,0.02l0,0l0,0c-0.06,0-0.09,0-0.1,0c0,0,0,0,0,0
		c0,0,0.08,0,0.22,0.01l0,0l0-0.04l-0.01-0.07l-0.02-0.14c-0.02-0.19-0.03-0.39-0.04-0.59c0-0.1,0-0.2-0.01-0.3l0,0
		c0-0.71,0.07-1.47,0.19-2.23c0.47-1.72,1.05-3.34,1.33-5.02c0-0.01,0-0.02,0-0.02l0,0c0-0.19,0.09-0.39,0.09-0.58
		c0-0.21-0.12-0.41-0.62-0.54c-0.07-0.4-0.06-0.82-0.14-1.22l0,0l0,0l0,0l0.08-0.1L122.32,28.87"/>
	<path class="st455" d="M127.34,39.91L127.34,39.91c0.04,0,0.09,0,0.13,0C127.43,39.91,127.38,39.91,127.34,39.91 M122.27,39.78
		c0.71,0.02,1.69,0.04,2.68,0.07c1.19,0.03,2.39,0.06,3.09,0.08C127.73,39.91,126.32,39.88,122.27,39.78"/>
	<path class="st455" d="M127.34,39.91L127.34,39.91l-0.01,0.01l-0.13,0.15c-0.35,0.4-0.69,0.73-0.96,1.03
		c-0.21,0.22-0.38,0.42-0.5,0.59l0,0.03l-0.02,0.18c-0.01,0.03-0.01,0.06-0.02,0.09c0.11-0.19,0.3-0.45,0.6-0.76
		c0.31-0.33,0.62-0.66,0.94-0.99l0.27-0.3l0.02-0.02l0.01-0.01C127.46,39.91,127.4,39.91,127.34,39.91"/>
	<path class="st455" d="M125.63,41.58c-0.01,0-0.03,0.08-0.05,0.14l-0.08,0.25l-0.32,0.99c-0.22,0.66-0.44,1.33-0.66,2.02
		l-0.18,0.52l-0.27,0.53c-0.19,0.35-0.37,0.71-0.56,1.07c-0.39,0.72-0.8,1.46-1.23,2.23c-0.88,1.45-1.59,2.85-2.23,4.23
		c-0.3,0.69-0.58,1.41-0.83,2.07c-0.21,0.57-0.42,1.13-0.63,1.69c-0.37,1.07-0.78,2.12-1.3,3.17c-0.5,1.08-1.12,2.13-1.94,3.2
		c-1.87,2.97-3.02,5.6-3.75,8.69c-0.74,3.09-0.99,6.61-1.44,11.62c-0.24,2.63-1.17,7.68-2.84,12.93c-0.39,1.31-0.89,2.62-1.31,3.91
		c-0.41,1.27-0.96,2.61-1.54,3.93c-1.16,2.64-2.68,5.22-3.86,7.1c-0.49,1.05-1.33,2.1-2.37,3.09c-1.07,0.99-2.37,1.93-3.83,2.77
		c-2.88,1.62-6.12,2.82-8.93,3.93c-0.11,0.05-0.22,0.1-0.34,0.15c0.02,0,0.02,0.01,0.02,0.01c2.81-1.12,6.08-2.23,8.98-3.85
		c2.95-1.64,5.29-3.72,6.32-5.83c1.21-1.88,2.78-4.49,3.97-7.14c1.24-2.69,2.01-5.23,2.91-7.87c1.68-5.26,2.62-10.31,2.87-12.95
		c0.45-5.03,0.7-8.54,1.45-11.64c0.73-3.09,1.88-5.72,3.75-8.69c0.81-1.08,1.44-2.12,1.94-3.2c0.51-1.06,0.92-2.1,1.29-3.18
		c0.2-0.55,0.41-1.11,0.61-1.67c0.24-0.66,0.52-1.38,0.82-2.07c0.63-1.39,1.36-2.79,2.23-4.24c0.44-0.76,0.85-1.51,1.23-2.23
		c0.19-0.36,0.38-0.72,0.56-1.08c0.18-0.35,0.38-0.71,0.47-1.05c0.22-0.69,0.44-1.36,0.66-2.02l0.31-0.99l0.11-0.36
		c-0.03,0.05-0.06,0.09-0.08,0.13c0,0.03-0.01,0.06-0.02,0.09c-0.06,0.25-0.13,0.37-0.16,0.37c-0.01,0-0.01-0.01-0.01-0.03l0,0
		c0-0.06,0.05-0.21,0.18-0.43c0.01-0.08,0.02-0.16,0.02-0.25C125.63,41.61,125.63,41.59,125.63,41.58
		C125.63,41.58,125.63,41.58,125.63,41.58"/>
	<path class="st456" d="M108.87,18.35c-2.32,0-4.68,0.3-7.04,0.91c-1.01,0.41-1.99,0.89-2.54,1.58c-0.58,0.64-2.48,1.22-3.35,1.8
		c-3.01,0.91-6.05,1.78-8.94,3.23c-2.44,1.23-4.77,2.89-6.52,5.19c3.02,1.39,5.79,3,8.5,4.74c0.24,0.09,0.51,0.14,0.77,0.14
		c0.31,0,0.61-0.08,0.8-0.26c0.31-0.26,0.64-0.48,0.98-0.66l1.94-1.05c-0.18,0.01-0.37,0.01-0.54,0.01C92.76,34,92.6,34,92.44,34
		c-0.61,0-1.14-0.05-1.51-0.2c-0.4-0.15-0.64-0.41-0.64-0.82l0,0c0-0.08,0.01-0.16,0.02-0.24c0.11-0.54,0.55-1.34,1.56-2.29
		c0,0,0.24-0.34,0.67-0.86c0.45-0.49,1.04-1.24,1.81-1.95c1.48-1.52,3.6-3.03,5.17-3.85c0,0,0.35-0.09,0.98-0.25
		c0.63-0.18,1.57-0.37,2.75-0.57c1.31-0.21,2.94-0.37,4.79-0.37c1.47,0,3.07,0.11,4.76,0.38l2.94,0.4l1.4,2.04
		c0.56,0.82,0.99,1.74,1.26,2.63c0.06,0.22,0.13,0.45,0.18,0.66l0.07,0.33c0,0.06,0.04,0.14,0.04,0.21l0,0
		c0,0.04-0.01,0.07-0.05,0.09l-0.37,0.44l0.04,0.33c0.02,0.22,0.03,0.44,0.04,0.66l0,0l0,0l0,0l0,0c-0.01,0.02-0.02,0.05-0.02,0.07
		c0,0.18,0.4,0.29,0.4,0.47l0,0c0,0.02-0.01,0.04-0.02,0.06c-0.05,0.46-0.12,0.91-0.21,1.37c-0.37,1.81-1.03,3.67-1.15,5.58
		c-0.01,0.15-0.01,0.29-0.01,0.44c0,0.09,0,0.17,0,0.26l0.02,0.34l0.02,0.17l0.01,0.08l0,0.04l0,0.01c0.22,0.01,0.3,0.01,0.31,0.01
		l0,0c0,0,0,0,0,0c-0.02,0-0.16,0-0.3-0.01c-0.14,0-0.28-0.01-0.31-0.01c0,0,0,0,0,0c0.01,0,0.73,0.02,3.68,0.09l0,0l0,0l0,0
		l-0.01,0.02c-0.25,0.46-0.47,0.86-0.57,1.19c-0.06,0.19-0.09,0.36-0.09,0.51c0,0.33,0.15,0.52,0.37,0.52c0.01,0,0.02,0,0.03,0
		c0.08-0.01,0.18-0.05,0.26-0.13l0.17-0.3l0.08-0.15l0.04-0.07l0.02-0.03l-0.01,0.03l-0.09,0.22c-0.06,0.13-0.14,0.23-0.22,0.3
		l-0.16,0.27c-0.45,0.76-0.88,1.5-1.31,2.22c-0.9,1.45-1.86,2.82-2.67,4.04c-0.8,1.24-1.54,2.34-2.19,3.27
		c-0.62,0.94-1.15,1.71-1.58,2.23c-0.43,0.51-0.78,0.83-1.02,0.93c0,0-0.36,0.57-0.98,1.61c-0.62,1.04-1.44,2.57-2.38,4.49
		c-1.88,3.84-4.03,9.27-5.95,15.25c-1.48,4.65-2.89,9.54-4.19,14.61c-0.1,1.57-0.27,3.15-0.5,4.76c-0.27,2.04-0.73,4.14-1.58,6.38
		c-0.81,2.1-2.03,4.34-3.99,6.45c-2.09,3.16-5.05,6.16-8.08,8.74c0,0-0.58,0.21-1.63,0.5c-1.08,0.32-2.54,0.62-4.33,0.85
		c-0.1,0.01-0.2,0.02-0.3,0.04c0.13,0.08,0.26,0.17,0.38,0.25c0.65,0.36,1.26,0.69,1.83,0.99c0.88,0.19,1.83,0.34,2.91,0.4l0,0l0,0
		l0,0l0,0c0,0-0.36,0.18-1.04,0.48c1.02,0.42,1.82,0.71,2.36,0.91c0.46,0.17,0.74,0.25,0.82,0.27c0.11-0.05,0.22-0.1,0.34-0.15
		c2.8-1.12,6.05-2.31,8.93-3.93c1.45-0.84,2.76-1.78,3.83-2.77c1.04-0.99,1.87-2.04,2.37-3.09c1.18-1.88,2.7-4.46,3.86-7.1
		c0.58-1.32,1.14-2.66,1.54-3.93c0.43-1.29,0.92-2.6,1.31-3.91c1.67-5.25,2.6-10.3,2.84-12.93c0.44-5.02,0.69-8.53,1.44-11.62
		c0.73-3.09,1.88-5.71,3.75-8.69c0.82-1.07,1.44-2.12,1.94-3.2c0.52-1.05,0.92-2.1,1.3-3.17c0.21-0.56,0.42-1.13,0.63-1.69
		c0.25-0.66,0.53-1.38,0.83-2.07c0.64-1.38,1.36-2.78,2.23-4.23c0.44-0.76,0.84-1.5,1.23-2.23c0.19-0.36,0.38-0.72,0.56-1.07
		l0.27-0.53l0.18-0.52c0.22-0.68,0.45-1.35,0.66-2.02l0.32-0.99l0.08-0.25c0.02-0.06,0.04-0.14,0.05-0.14c0,0,0,0,0,0.01l0,0
		c0,0.01,0,0.02,0,0.05c0,0.09-0.01,0.18-0.02,0.25c0.03-0.04,0.05-0.08,0.08-0.13l0.04-0.13l0.02-0.05l0,0.05l0,0.06
		c0.12-0.17,0.28-0.37,0.5-0.59c0.27-0.3,0.61-0.63,0.96-1.03l0.13-0.15l0.01-0.01l0,0c-0.25-0.01-0.35-0.01-0.35-0.01l0,0
		c0,0,0,0,0,0c0.01,0,0.16,0,0.35,0.01l0,0c0.04,0,0.09,0,0.13,0c0.03,0,0.05,0,0.08,0c0.27,0.01,0.55,0.01,0.56,0.01c0,0,0,0,0,0
		c0,0-0.02,0-0.07,0c-0.7-0.02-1.9-0.05-3.09-0.08c-0.98-0.02-1.96-0.05-2.68-0.07c-0.27-0.01-0.55-0.01-0.85-0.02l0,0
		c-0.14,0-0.22-0.01-0.22-0.01l0,0c0,0,0,0,0,0c0,0,0.03,0,0.1,0l0-0.02l0-0.04l-0.01-0.07l-0.03-0.28
		c-0.01-0.19-0.03-0.39-0.03-0.59c0-0.08,0-0.15,0-0.23l0,0c0-0.74,0.09-1.52,0.22-2.3c0.47-1.68,1.04-3.28,1.31-4.92
		c0.03-0.21,0.06-0.41,0.09-0.62l-0.01-0.15l-0.23-0.11l-0.24-0.11l-0.17-0.12c0-0.41-0.07-0.8-0.09-1.21l0,0l0,0l0,0l0,0
		c0.08-0.03,0.15-0.06,0.22-0.1l0.12-0.1l0.12-0.1c0.15-0.17,0.21-0.38,0.21-0.62c0-0.56-0.31-1.25-0.47-1.86
		c-0.39-1.12-0.96-2.27-1.7-3.33l-2.41-3.47l-5-0.69C111.77,18.47,110.33,18.35,108.87,18.35"/>
	<path class="st456" d="M108.42,31.51c0,0-0.03,0.01-0.08,0.02l0,0C108.39,31.52,108.41,31.51,108.42,31.51"/>
	<path class="st456" d="M98.28,33.77c-0.84,0-1.72,0.02-2.57,0.08c0,0-0.01,0-0.01,0l3.56,3.31c0.27-0.49,0.6-0.98,0.91-1.45
		c0.4-0.59,0.79-1.18,1.11-1.71c0.03-0.04,0.05-0.08,0.08-0.13c0,0,0,0,0,0C100.47,33.82,99.4,33.77,98.28,33.77"/>
	<polyline class="st456" points="111.42,38.23 111.42,38.24 111.42,38.24 111.42,38.23 	"/>
	<path class="st456" d="M125.6,41.89c-0.14,0.22-0.19,0.38-0.18,0.43c0,0.02,0,0.03,0.01,0.03c0.03,0,0.1-0.11,0.16-0.37
		C125.59,41.95,125.6,41.92,125.6,41.89"/>
	<path class="st455" d="M125.7,41.98c-0.11,0.19-0.15,0.31-0.15,0.36c0,0.01,0,0.02,0.01,0.02
		C125.59,42.36,125.65,42.24,125.7,41.98"/>
	<path class="st457" d="M111.42,38.23L111.42,38.23C111.42,38.23,111.42,38.23,111.42,38.23L111.42,38.23L111.42,38.23L111.42,38.23
		L111.42,38.23 M108.33,31.53c0.05-0.01,0.08-0.02,0.08-0.02l0,0l0,0l0,0l0,0C108.41,31.51,108.39,31.52,108.33,31.53L108.33,31.53
		L108.33,31.53L108.33,31.53 M108.42,31.51L108.42,31.51L108.42,31.51 M108.42,31.51L108.42,31.51L108.42,31.51 M108.42,31.51
		L108.42,31.51L108.42,31.51 M108.05,22.6c-1.84,0-3.48,0.17-4.79,0.37c-1.18,0.2-2.12,0.39-2.75,0.57
		c-0.64,0.17-0.98,0.25-0.98,0.25c-1.57,0.82-3.7,2.33-5.17,3.85c-0.77,0.72-1.37,1.46-1.81,1.95c-0.43,0.52-0.67,0.86-0.67,0.86
		c-1,0.95-1.45,1.75-1.56,2.29c-0.02,0.09-0.02,0.17-0.02,0.24c0,0.41,0.24,0.66,0.64,0.82c0.38,0.15,0.9,0.2,1.51,0.2
		c0.16,0,0.32,0,0.49-0.01c0.18,0,0.36-0.01,0.54-0.01l1.49-0.8l0.73,0.68c0,0,0.01,0,0.01,0c0.85-0.05,1.72-0.08,2.57-0.08
		c1.12,0,2.19,0.04,3.08,0.11c0,0,0,0,0,0l0,0l0,0l0,0l0,0c-0.03,0.04-0.05,0.08-0.08,0.13c-0.33,0.53-0.71,1.12-1.11,1.71
		c-0.32,0.46-0.64,0.95-0.91,1.45l3.23,3.01c2.38,2.21,3.89,5.74,4.36,8.98c0.24,1.55,0.31,3.02,0.31,4.39l0,0
		c0,1.51-0.08,2.91-0.08,4.2c0,0.02,0,0.04,0,0.06l0,0l0,0l0,0l0,0c-0.11,2.34,0.12,4.65-0.99,6.74c-1.45,2.7-3.24,4.87-5.24,6.68
		c-1,0.9-2.06,1.72-3.17,2.45c-1.01,0.62-1.95,1.07-2.89,1.48c-1.62,0.68-3.14,1.12-4.61,1.43c-0.54,1.45-1.15,2.64-1.79,3.52
		c-0.71,0.91-1.43,1.47-2.18,1.57c0,0-0.16,0.14-0.46,0.39c-0.29,0.25-0.68,0.63-1.12,1.14c-0.21,0.25-0.43,0.54-0.66,0.84
		c-0.16,0.38-0.35,0.77-0.53,1.17c-0.21,0.45-0.43,0.9-0.64,1.35c-0.2,0.37-0.4,0.74-0.59,1.09c-0.27,0.46-0.47,0.8-0.63,1.04
		c-0.04,0.24-0.07,0.47-0.07,0.69c0,0.12,0.01,0.23,0.02,0.35c0.04,0.35,0.14,0.7,0.27,1.1c0.13,0.4,0.29,0.81,0.33,1.37
		c0.01,0.13,0.02,0.26,0.02,0.4l0,0c0,1.04-0.39,2.38-1.49,3.78c-0.17,0.23-0.36,0.45-0.57,0.68c-0.24,0.3-0.49,0.6-0.77,0.9
		c-1.29,1.35-2.97,2.67-4.77,3.75c-0.14,0.08-0.27,0.17-0.41,0.25c-0.22,0.31-0.48,0.7-0.77,1.15c-0.76,1.2-1.73,2.85-2.29,4.79
		c-0.24,0.84-0.4,1.73-0.4,2.66c0,1.24,0.29,2.55,1.05,3.91c0.36,0.58,0.81,1.17,1.37,1.76c0.57,0.59,1.32,1.14,2.18,1.68
		c0.41,0.25,0.87,0.49,1.37,0.71c0.42-0.03,0.84-0.06,1.24-0.11c0.1-0.01,0.2-0.02,0.3-0.04c1.79-0.23,3.25-0.53,4.33-0.85
		c1.05-0.3,1.63-0.5,1.63-0.5c3.02-2.58,5.98-5.57,8.08-8.74c0.48-0.72,0.91-1.45,1.28-2.18c2.04-3.93,2.85-7.54,3.66-10.88
		c0.37-1.52,0.75-3.03,1.13-4.52c1.31-5.06,2.72-9.96,4.19-14.61c1.92-5.98,4.07-11.41,5.95-15.25c0.94-1.92,1.76-3.46,2.38-4.49
		c0.61-1.04,0.98-1.61,0.98-1.61c0.24-0.1,0.6-0.42,1.02-0.93c0.43-0.53,0.96-1.29,1.58-2.23c0.64-0.93,1.39-2.03,2.19-3.27
		c0.82-1.23,1.77-2.59,2.67-4.04c0.43-0.72,0.86-1.47,1.31-2.22l0.16-0.27c-0.09,0.08-0.18,0.12-0.26,0.13c-0.01,0-0.02,0-0.03,0
		c-0.22,0-0.37-0.19-0.37-0.52l0,0c0-0.14,0.03-0.31,0.09-0.51c0.1-0.33,0.32-0.72,0.57-1.19l0.01-0.02
		c-2.95-0.07-3.68-0.09-3.68-0.09l0,0c0,0,0,0,0,0c0.03,0,0.17,0,0.31,0.01c0.14,0,0.28,0.01,0.3,0.01c0,0,0,0,0,0
		c0,0-0.09,0-0.31-0.01l0-0.01l0-0.04l-0.01-0.08l-0.02-0.17l-0.02-0.34c0-0.09,0-0.17,0-0.26l0,0c0-0.14,0-0.29,0.01-0.44
		c0.11-1.91,0.78-3.77,1.15-5.58c0.09-0.46,0.17-0.91,0.21-1.37c0.01-0.02,0.02-0.04,0.02-0.06c0-0.18-0.4-0.29-0.4-0.47l0,0
		c0-0.02,0.01-0.04,0.02-0.07c0-0.22-0.02-0.44-0.04-0.66l-0.04-0.33l0.37-0.44c0.04-0.02,0.05-0.05,0.05-0.09
		c0-0.06-0.04-0.14-0.04-0.21l-0.07-0.33c-0.04-0.21-0.11-0.44-0.18-0.66c-0.27-0.89-0.7-1.81-1.26-2.63l-1.4-2.04l-2.94-0.4
		C111.12,22.7,109.52,22.6,108.05,22.6"/>
	<path class="st457" d="M121.07,41.3l-0.02,0.03l-0.04,0.07l-0.08,0.15l-0.17,0.3c0.08-0.07,0.16-0.17,0.22-0.3l0.09-0.22
		L121.07,41.3"/>
	<path class="st457" d="M96.44,44.24c0,0.01-0.01,0.02-0.01,0.03c-0.17,0.45-0.34,0.92-0.48,1.44c-0.07,0.27-0.14,0.55-0.21,0.83
		c-0.05,0.18-0.06,0.27-0.14,0.54c-0.08,0.27-0.17,0.55-0.25,0.83c-0.29,1.04-0.57,2.11-0.83,3.18c-0.04,0.26-0.07,0.52-0.11,0.79
		c-0.46,3.55-0.97,8.15-1.57,12.57c-0.04,0.32-0.09,0.63-0.13,0.95c0.29-0.09,0.59-0.19,0.91-0.29c1.17-0.28,1.99-1.21,2.52-2.43
		c0.55-1.21,0.81-2.69,1.05-4.11c0.12-1.81,0.84-3.47,1.3-5.53c0.2-0.85,0.33-1.79,0.33-2.76c0-1.33-0.25-2.7-0.92-3.94
		c-0.34-0.74-0.85-1.35-1.33-1.94L96.44,44.24"/>
	<polyline class="st457" points="81.51,90.45 81.51,90.45 81.51,90.45 81.52,90.46 81.51,90.45 81.51,90.45 	"/>
	<path class="st458" d="M95.15,46.2c0,0,0,0.09,0,0.26l0,0l0,0l0,0l0,0c0,0.02,0,0.03,0,0.05c0,0.03,0,0.07,0,0.11l0,0
		c0,0.05,0,0.11-0.01,0.19c-0.03,0.21-0.07,0.45-0.12,0.72c-0.03,0.2-0.07,0.42-0.1,0.65c0.09-0.24,0.17-0.49,0.24-0.74
		c0.03-0.13,0.06-0.26,0.08-0.39c0.02-0.1,0.03-0.2,0.03-0.27c0-0.03,0-0.05-0.01-0.06C95.25,46.54,95.21,46.37,95.15,46.2"/>
	<path class="st458" d="M81.46,90.35L81.46,90.35L81.46,90.35l0.01,0.01L81.46,90.35 M94.93,48.17c-0.1,0.25-0.21,0.5-0.33,0.74
		c-0.48,0.94-1.18,1.79-1.89,2.52c-1.38,1.42-2.85,2.34-2.85,2.34c-0.4,3.3-3.37,7.7-6.17,10.86c-0.7,0.77-1.4,1.5-2.05,2.15
		c-0.65,0.62-1.25,1.14-1.76,1.59c-1.02,0.9-1.7,1.35-1.7,1.35c-3.22,0.89-4.58,3.3-5.16,5.35c-0.32,0.95-0.41,1.97-0.46,2.64
		c-0.03,0.34-0.04,0.64-0.04,0.84c0,0.19,0.01,0.3,0.01,0.3c1.06,2.18,1.6,3.04,1.91,3.47c0.08,0.09,0.13,0.19,0.19,0.23
		c0.02,0.02,0.05,0.04,0.07,0.06c0.48,0.43,0.94,0.84,1.35,1.24c3.63,3.42,4.73,5.38,5,5.77c0,0,0.04,0.07,0.12,0.2
		c0.07,0.1,0.19,0.33,0.28,0.5c0.01,0.01,0.01,0.02,0.02,0.03l-0.02-0.06c-0.02-0.03-0.03-0.07-0.05-0.11l0,0l0,0l0,0l0,0l0,0l0,0
		l0,0l0,0l0,0l0,0l0,0l0,0l0.01,0.01l0.02,0.03l0.02,0.05c0,0.01,0.01,0.02,0.01,0.03l-0.02-0.06l-0.03-0.13
		c-0.03-0.12-0.07-0.3-0.08-0.45c-0.02-0.19-0.04-0.39-0.06-0.6c-0.02-0.17-0.02-0.32-0.02-0.48l0,0l0,0l0,0l0,0l0,0l0,0l0,0l0,0
		l0,0l0,0l0,0l0,0c0-0.11,0-0.22,0.01-0.34l0-0.14l0,0l0,0l0,0l0,0l0,0c0-1.39,0.23-3.46,0.97-6.09l0,0l0,0l0,0l0,0
		c-0.74,2.63-0.97,4.7-0.97,6.09l0,0.14l0,0l0,0l0,0l0,0l0,0c0,0.12-0.01,0.23-0.01,0.34c0,0.16,0.01,0.31,0.02,0.48
		c0.02,0.21,0.04,0.41,0.06,0.6c0.02,0.14,0.05,0.32,0.08,0.45l0.03,0.13l0.02,0.06c0.02,0.04,0.04,0.08,0.05,0.11
		c0.03,0.06,0.06,0.12,0.09,0.19l0,0.01l0-0.01l0.02,0.05l0,0l0,0l0,0l0,0l0,0c0,0-0.03-0.05-0.11-0.24
		c-0.02-0.03-0.03-0.06-0.04-0.09v0l0,0c-0.01-0.01-0.01-0.02-0.02-0.03c-0.09-0.17-0.22-0.4-0.28-0.5c-0.08-0.13-0.12-0.2-0.12-0.2
		c-0.27-0.39-1.37-2.35-5-5.77c-0.42-0.4-0.87-0.81-1.35-1.24c0.18,0.17,0.34,0.31,0.47,0.43c0.57,0.52,0.86,0.78,0.86,0.78
		c0.69,0.67,1.2,1.14,1.75,1.74c0.46,0.45,0.94,1.01,1.3,1.42l0,0l0,0l0,0l0,0c-0.6,0.29-1.27,0.55-1.98,0.77
		c-2.06,0.64-4.42,0.99-6.8,1.18c-2.3,0.15-4.54,0.24-6.62,0.24c-2.31,0-4.44-0.1-6.26-0.33c-1.72-0.21-3.14-0.49-4.14-0.71
		c-1-0.25-1.55-0.38-1.55-0.38c-0.47-0.13-0.91-0.19-1.33-0.19c-1.57,0-2.71,0.91-3.41,2.66c-0.46,1.13-0.67,2.61-0.67,4.24
		c0,1.46,0.17,3.05,0.5,4.63c0.67,3.35,1.95,6.63,3.03,8.98c1.09,2.36,1.97,3.84,1.97,3.84c0.93,6.27,8.1,10.19,15.97,10.85
		c0.89,0.09,1.79,0.12,2.68,0.12c2.98,0,5.85-0.44,8.02-1.03c1.47-0.41,2.55-0.79,3.36-1.14c0.79-0.34,1.21-0.55,1.21-0.55
		c-1.08-0.05-2.03-0.2-2.91-0.4c-0.57-0.12-1.1-0.27-1.62-0.41c-1.24-0.42-2.34-0.9-3.21-1.43c-0.86-0.55-1.61-1.1-2.18-1.68
		c-0.56-0.59-1.02-1.18-1.37-1.76c-0.76-1.36-1.05-2.67-1.05-3.91l0,0c0-0.93,0.16-1.82,0.4-2.66c0.56-1.94,1.53-3.59,2.29-4.79
		c0.29-0.45,0.56-0.84,0.77-1.15c0.36-0.5,0.58-0.79,0.58-0.79c2.27-1.33,4.11-2.72,5.36-4.1c0.21-0.23,0.4-0.45,0.57-0.68
		c1.1-1.41,1.49-2.74,1.49-3.78c0-0.14-0.01-0.27-0.02-0.4c-0.04-0.56-0.2-0.97-0.33-1.37c-0.13-0.39-0.23-0.74-0.27-1.1
		c-0.01-0.11-0.02-0.23-0.02-0.35l0,0c0-0.23,0.02-0.46,0.07-0.69c0.07-0.39,0.19-0.78,0.36-1.19c0.16-0.4,0.36-0.81,0.58-1.21
		c0.22-0.45,0.46-0.85,0.7-1.22c0.24-0.37,0.49-0.7,0.74-1c0.01-0.01,0.01-0.01,0.02-0.02c0.23-0.31,0.45-0.6,0.66-0.84
		c0.43-0.51,0.83-0.89,1.12-1.14c0.3-0.25,0.46-0.39,0.46-0.39c0.75-0.1,1.47-0.67,2.18-1.57c0.65-0.87,1.25-2.07,1.79-3.52
		c-1.93,0.4-3.75,0.57-5.54,0.71c-0.41,0.02-0.83,0.03-1.25,0.03c-0.46,0-0.93-0.01-1.4-0.02c-0.47-0.01-0.95-0.02-1.43-0.02
		c-1.45,0-2.94,0.08-4.47,0.51c-0.45,0.02-1.01,0.18-1.5,0.18c-0.27,0-0.51-0.05-0.71-0.18c-0.12-0.04-0.17-0.11-0.17-0.21l0,0
		c0-0.34,0.54-0.99,0.7-1.47c-0.06-0.09-0.08-0.2-0.08-0.31l0,0c0-0.74,1.16-1.78,1.53-2.71c0.65-1.47,1.86-1.9,3.11-1.95
		c0.1,0,0.21-0.01,0.31-0.01c0.5,0,1,0.05,1.49,0.09c0.49,0.05,0.97,0.09,1.43,0.09c0.16,0,0.31-0.01,0.46-0.02
		c2.61-0.46,4.56-2.85,7.01-4.75c0.96-0.48,1.91-0.79,3.04-1.15c0.05-0.31,0.09-0.63,0.13-0.95c0.6-4.42,1.11-9.02,1.57-12.57
		c0.04-0.27,0.08-0.54,0.11-0.79C94.68,49.96,94.81,48.98,94.93,48.17"/>
	<path class="st584" d="M81.59,90.62L81.59,90.62L81.59,90.62L81.59,90.62 M81.5,90.43c0.09,0.19,0.11,0.24,0.11,0.24l0,0
		C81.62,90.67,81.59,90.62,81.5,90.43L81.5,90.43 M81.44,90.29l0.02,0.06l0,0L81.44,90.29L81.44,90.29 M81.39,90.18
		c0.02,0.04,0.03,0.07,0.05,0.11l0,0C81.42,90.26,81.4,90.22,81.39,90.18L81.39,90.18 M81.24,88.6L81.24,88.6
		c0,0.16,0.01,0.31,0.02,0.48c0.02,0.21,0.04,0.41,0.06,0.6c0.02,0.14,0.05,0.32,0.08,0.45l0.03,0.13l0.02,0.06l0,0l-0.02-0.06
		l-0.03-0.13c-0.03-0.12-0.07-0.3-0.08-0.45l0,0c-0.02-0.19-0.04-0.38-0.06-0.58c0-0.01,0-0.01,0-0.02
		C81.24,88.91,81.24,88.76,81.24,88.6 M81.24,88.12L81.24,88.12l0,0.14l0,0L81.24,88.12 M74.68,82.6L74.68,82.6
		c0.48,0.43,0.94,0.84,1.35,1.24c3.63,3.42,4.73,5.38,5,5.77c0,0,0.04,0.07,0.12,0.2c0.07,0.1,0.19,0.33,0.28,0.5
		c0.01,0.01,0.01,0.02,0.02,0.03l0,0l0,0l0,0c-0.01-0.01-0.01-0.02-0.02-0.03l0,0l0,0c-0.09-0.17-0.22-0.4-0.28-0.5l0,0l0,0
		c-0.08-0.13-0.12-0.19-0.12-0.2c0,0,0,0,0,0c-0.27-0.39-1.37-2.35-5-5.77C75.62,83.44,75.17,83.03,74.68,82.6 M82.21,82.03
		L82.21,82.03c-0.71,2.52-0.95,4.52-0.97,5.91c0,0.06,0,0.12,0,0.18l0,0C81.24,86.73,81.47,84.67,82.21,82.03"/>
	<path class="st458" d="M81.39,90.18c0.02,0.04,0.03,0.07,0.05,0.11l-0.02-0.05l-0.02-0.03L81.39,90.18L81.39,90.18L81.39,90.18
		L81.39,90.18"/>
	<path class="st458" d="M81.44,90.29l0.02,0.06c0,0,0,0,0,0l0,0l-0.01-0.03C81.45,90.31,81.44,90.3,81.44,90.29"/>
	<path class="st458" d="M81.45,90.32l0.01,0.03c0.01,0.03,0.03,0.05,0.04,0.08C81.49,90.4,81.47,90.36,81.45,90.32"/>
	<polyline class="st458" points="81.46,90.34 81.46,90.35 81.46,90.35 81.46,90.34 	"/>
	<path class="st458" d="M81.51,90.45L81.51,90.45L81.51,90.45l0.07,0.16l0,0.01l0,0l0,0C81.57,90.57,81.54,90.51,81.51,90.45
		C81.51,90.45,81.51,90.45,81.51,90.45C81.51,90.45,81.51,90.45,81.51,90.45L81.51,90.45L81.51,90.45 M81.5,90.43
		c0.09,0.19,0.11,0.24,0.11,0.24l-0.02-0.05l-0.01-0.03v0l0.01,0.03l0,0.01l0-0.01C81.56,90.55,81.53,90.49,81.5,90.43"/>
	<polyline class="st458" points="81.58,90.59 81.58,90.59 81.59,90.62 81.58,90.59 	"/>
	<path class="st459" d="M73.48,46.64L73.48,46.64L73.48,46.64 M73.48,46.64L73.48,46.64L73.48,46.64 M73.48,46.64L73.48,46.64
		L73.48,46.64 M65.89,31.27c-1.68,0-3.54,0.1-5.48,0.37c-2.79,0.35-5.59,0.98-8.16,1.85c-2.65,0.92-4.75,1.95-5.92,2.64
		c-3.19,1.73-5.76,4.29-8.04,7.07c-2.28,2.79-4.23,5.87-6.33,9.07c-0.01,0.02-0.02,0.03-0.04,0.03c-0.07,0-0.18-0.3-0.2-0.87
		c-0.43,0.78-0.85,1.6-1.24,2.44c-0.05,0.63-0.58,2.77-0.58,3.38c-0.87,1.92-1.73,3.19-2.91,5.06c-2.25,2.63-4.13,6.61-5.11,11.47
		c-0.52,2.42-0.73,5.07-0.75,7.81c0.02,1.32,0.08,2.68,0.2,4.04c0.14,1.32,0.31,2.69,0.54,4.01c0.93,5.31,2.67,10.17,4.4,14.31
		c1.75,4.15,3.48,7.65,4.74,10.77c1.3,2.53,3.37,6.09,6.11,8.1c2.18,1.46,4.25,3.43,6.64,4.42c4.44,1.31,9.29,1.54,14.06,1.83
		c-1.71-0.87-3.28-1.77-4.75-2.69c-2.77-1.72-5.19-3.51-7.48-5.34c-1.74-0.89-3.48-2.21-5.19-4.02c-1.69-1.8-3.26-3.98-4.42-6.33
		c-0.84-1.3-1.19-2.87-1.19-4.48c0-0.01,0-0.02,0-0.04l0,0c0-1.56,0.35-3.1,0.85-4.32c0.5-0.71,1.94-0.42,2.43-1.13
		c0.38-0.78,0.6-1.63,0.78-2.49c0.18-0.88,0.32-1.79,0.54-2.62c0.42-1.66,1.17-3.13,2.92-3.75c0.71-0.06,1.1-0.93,1.31-2.01
		c0.16-0.78,0.22-1.65,0.22-2.48c0-0.37-0.01-0.72-0.03-1.07c-0.15-0.89-1.63-3.07-3.12-6.63c-0.74-1.78-1.42-3.96-1.9-6.32
		c-0.23-1.18-0.4-2.41-0.53-3.66c-0.06-1.03-0.15-2.12-0.15-3.17l0,0c0-0.21,0-0.41,0.01-0.62c0.04-5.09,1.17-10.05,2.5-13.71
		c1.34-3.66,2.76-6.16,3.25-6.7c0.76-1.04,0.29-2.46,1.15-3.47c3.98-3.22,8.24-3.52,12.19-3.62c2.49-0.17,6.26-1.23,9.39-1.87
		c2.83-0.62,5.15-1.01,5.71-1.01c0.06,0,0.1,0,0.12,0.01l0,0l0,0l0,0l0,0c-0.04,0.38-0.05,0.77-0.05,1.15
		c0,0.95,0.08,1.92,0.08,2.87l0,0c0,1.48-0.19,2.94-1.14,4.26c-0.05,0.06-0.06,0.14-0.06,0.24c0,0.36,0.29,0.91,0.36,1.32
		c0.37,0.62,1.33,1.34,1.72,1.34c0.01,0,0.03,0,0.04,0l0,0l0,0l0,0l0,0c-0.18,0.11-0.26,0.19-0.26,0.24c0,0.07,0.14,0.1,0.38,0.1
		c0.81,0,2.81-0.34,4.79-0.62c0.41-0.06,0.83-0.13,1.23-0.19c0.2-0.67,0.39-1.32,0.55-1.96l0,0c0.14-0.57,0.27-1.13,0.38-1.66
		c0.12-0.53,0.26-1.13,0.32-1.55c-0.05-0.14-0.06-0.34-0.15-0.41c0,0,0,0-0.01,0l-0.23-0.23c-0.3-0.28-0.58-0.43-0.58-0.43l0,0l0,0
		l0,0l0,0l0,0c0,0,0.28,0.16,0.58,0.43l0.23,0.23c0,0,0,0,0.01,0c0.08,0.07,0.1,0.27,0.15,0.41l0,0l0,0l0,0l0,0l0,0l0,0l0,0l0,0l0,0
		l0,0l0,0l0,0l0,0c-0.06,0.42-0.21,1.02-0.32,1.55c-0.11,0.53-0.23,1.09-0.38,1.66l0,0c-0.17,0.64-0.35,1.3-0.55,1.96
		c2.05-0.32,3.81-0.65,3.81-0.99c0-0.09-0.13-0.18-0.41-0.28l0,0l0,0l0,0l0,0c0.42,0.12,0.83,0.17,1.24,0.17
		c2.6,0,4.99-2.07,7.89-2.86l2.3-0.62l2.22,2.74c0.48,0.59,0.99,1.21,1.33,1.94c0.67,1.24,0.92,2.62,0.92,3.94l0,0
		c0,0.97-0.13,1.91-0.33,2.76c-0.46,2.06-1.18,3.72-1.3,5.53c-0.24,1.42-0.49,2.9-1.05,4.11c-0.53,1.22-1.35,2.15-2.52,2.43
		c-0.32,0.1-0.62,0.19-0.91,0.29c-1.13,0.36-2.08,0.68-3.04,1.15c-2.46,1.9-4.41,4.29-7.01,4.75c-0.15,0.01-0.3,0.02-0.46,0.02
		c-0.45,0-0.94-0.05-1.43-0.09c-0.49-0.05-1-0.09-1.49-0.09c-0.1,0-0.21,0-0.31,0.01c-1.25,0.04-2.46,0.48-3.11,1.95
		c-0.38,0.93-1.53,1.97-1.53,2.71c0,0.11,0.03,0.21,0.08,0.31l0,0c0.71-0.44,1.7-0.46,2.65-0.88c1.9-0.59,3.42-1.92,5.34-1.95
		c1.95-0.25,3.82,0.04,5.89-0.47c1.33-0.44,2.45-0.98,3.65-1.87c0.58-0.34,1.16-0.73,1.75-1.15c0.62-0.48,1.25-0.97,1.82-1.51
		c1.17-1.05,2.21-2.24,3.15-3.54c0.94-1.29,1.74-2.75,2.41-4.32c0.63-1.62,1.14-3.36,1.34-5.3c-0.79-1.67-0.8-3.53-1.12-5.72
		c-0.28-2.14-0.85-4.56-2-6.27c-0.09-0.16-0.17-0.32-0.25-0.49l-1.11-2.29l-6.09-1.09c-0.58-0.1-1.17-0.41-1.89-0.59
		c-0.08,0-0.15,0-0.23,0c-0.61,0-1.22,0.09-1.81,0.17c-0.6,0.09-1.18,0.17-1.74,0.17c-0.71,0-1.39-0.14-1.99-0.6
		c-3.24-2.79-6.78-5.12-11.41-6.44C71.55,31.63,69.04,31.27,65.89,31.27"/>
	<path class="st461" d="M79.81,39.98L79.81,39.98c0,0,0.28,0.16,0.58,0.43C80.08,40.14,79.81,39.98,79.81,39.98"/>
	<path class="st461" d="M80.62,40.65c0.08,0.07,0.1,0.27,0.15,0.41C80.71,40.92,80.7,40.72,80.62,40.65"/>
	<path class="st461" d="M80.06,44.27c-0.17,0.64-0.35,1.3-0.55,1.96c-1.25,4.11-3.29,8.55-7.14,11.7
		C76.84,54.27,78.87,48.88,80.06,44.27"/>
	<path class="st461" d="M69.66,61.36c-0.14,0.18-0.29,0.37-0.43,0.56C69.37,61.73,69.51,61.54,69.66,61.36 M72.37,57.93
		c0,0-1.29,1.63-2.71,3.42C71.08,59.56,72.37,57.93,72.37,57.93"/>
	<path class="st461" d="M69.23,61.91c-0.19,0.24-0.37,0.48-0.55,0.72C68.86,62.4,69.04,62.16,69.23,61.91"/>
	<path class="st583" d="M68.67,62.64L68.67,62.64c-0.31,0.38-0.6,0.76-0.85,1.12c-0.15,0.21-0.29,0.42-0.4,0.61l0,0
		c0.12-0.19,0.25-0.4,0.4-0.61l0,0l0,0c0.24-0.34,0.52-0.71,0.82-1.08C68.65,62.66,68.66,62.65,68.67,62.64L68.67,62.64"/>
	<path class="st461" d="M67.83,63.75c-0.15,0.21-0.29,0.42-0.4,0.61C67.54,64.17,67.68,63.97,67.83,63.75 M68.64,62.67
		c-0.3,0.37-0.58,0.74-0.82,1.08C68.07,63.41,68.35,63.04,68.64,62.67"/>
	<path class="st461" d="M67.42,64.36c-0.08,0.13-0.14,0.25-0.2,0.36C67.28,64.61,67.35,64.49,67.42,64.36"/>
	<path class="st461" d="M64.63,67.91c-0.31,0.77-0.68,1.49-0.92,2.43C63.96,69.41,64.33,68.68,64.63,67.91"/>
	<path class="st461" d="M63.42,72.16c0,0.23,0.02,0.46,0.05,0.66C63.43,72.61,63.42,72.39,63.42,72.16"/>
	<path class="st461" d="M63.47,72.82c0.05,0.26,0.12,0.58,0.24,0.85C63.59,73.39,63.52,73.07,63.47,72.82"/>
	<path class="st583" d="M63.71,73.67L63.71,73.67c0.05,0.12,0.12,0.23,0.19,0.33l0,0l0,0c0.24,0.31,0.58,0.57,0.99,0.87
		c0.02,0.01,0.04,0.03,0.06,0.04c0,0,0.52,0.38,1.44,1.06c0.38,0.29,0.85,0.63,1.4,1.03c0.51,0.4,1.1,0.84,1.73,1.33
		c1.79,1.38,3.62,2.88,5.17,4.26l0,0c-1.55-1.38-3.38-2.88-5.17-4.26c-0.64-0.49-1.22-0.94-1.73-1.33c-0.54-0.4-1.01-0.75-1.4-1.03
		c-0.92-0.68-1.44-1.06-1.44-1.06c-0.44-0.31-0.8-0.58-1.05-0.91C63.82,73.9,63.76,73.79,63.71,73.67"/>
	<path class="st585" d="M74.68,82.6L74.68,82.6c0.48,0.43,0.94,0.84,1.35,1.24c3.63,3.42,4.73,5.38,5,5.77c0,0,0,0,0,0
		c0,0,0.04,0.07,0.12,0.2l0,0l0,0c0.07,0.1,0.19,0.33,0.28,0.5l0,0l0,0c0.01,0.01,0.01,0.02,0.02,0.03l0,0
		c-0.01-0.01-0.01-0.02-0.02-0.03c-0.09-0.17-0.22-0.4-0.28-0.5c-0.08-0.13-0.12-0.2-0.12-0.2c-0.27-0.39-1.37-2.35-5-5.77
		C75.62,83.44,75.17,83.03,74.68,82.6L74.68,82.6"/>
	<path class="st461" d="M81.46,90.35L81.46,90.35L81.46,90.35L81.46,90.35L81.46,90.35 M81.46,90.35L81.46,90.35L81.46,90.35
		L81.46,90.35 M81.44,90.32c0.01,0.01,0.01,0.02,0.02,0.03l0,0l0,0c0,0,0,0,0,0v0c0,0,0,0,0,0l0,0l0,0
		C81.45,90.33,81.45,90.33,81.44,90.32 M81.16,89.81c0.07,0.1,0.19,0.33,0.28,0.5C81.35,90.15,81.23,89.91,81.16,89.81 M81.04,89.61
		c0,0,0.04,0.07,0.12,0.2C81.08,89.69,81.04,89.62,81.04,89.61 M63.9,74c0.24,0.31,0.58,0.57,0.99,0.87
		C64.48,74.57,64.14,74.31,63.9,74 M63.71,73.67c0.05,0.12,0.12,0.23,0.19,0.33C63.82,73.9,63.76,73.79,63.71,73.67"/>
	<path class="st585" d="M82.21,82.03c-0.74,2.63-0.97,4.7-0.97,6.09l0,0c0-0.06,0-0.12,0-0.18C81.26,86.55,81.5,84.55,82.21,82.03
		L82.21,82.03"/>
	<path class="st461" d="M82.21,82.03c-0.71,2.52-0.95,4.52-0.97,5.91C81.26,86.55,81.5,84.55,82.21,82.03"/>
	<path class="st461" d="M81.24,88.26c0,0.12-0.01,0.23-0.01,0.34l0,0C81.24,88.49,81.24,88.38,81.24,88.26"/>
	<path class="st585" d="M81.44,90.29L81.44,90.29c0,0.01,0.01,0.02,0.01,0.03l0,0C81.45,90.31,81.44,90.3,81.44,90.29 M81.24,88.6
		L81.24,88.6c0,0.16,0.01,0.31,0.02,0.48c0,0.01,0,0.01,0,0.02c0.02,0.2,0.04,0.4,0.06,0.58l0,0c0.02,0.14,0.05,0.32,0.08,0.45
		l0.03,0.13l0.02,0.06l0,0l0,0l0,0c0.02,0.04,0.04,0.08,0.05,0.11l0,0c-0.02-0.03-0.03-0.07-0.05-0.11l-0.02-0.06l-0.03-0.13
		c-0.03-0.12-0.07-0.3-0.08-0.45c-0.02-0.19-0.04-0.39-0.06-0.6C81.24,88.91,81.24,88.76,81.24,88.6"/>
	<path class="st461" d="M81.26,89.1c0.02,0.2,0.04,0.4,0.06,0.58C81.3,89.49,81.28,89.3,81.26,89.1"/>
	<path class="st461" d="M81.5,90.43C81.5,90.43,81.5,90.43,81.5,90.43L81.5,90.43C81.5,90.43,81.5,90.43,81.5,90.43L81.5,90.43
		 M81.5,90.43L81.5,90.43L81.5,90.43L81.5,90.43L81.5,90.43 M81.46,90.35L81.46,90.35c0.01,0.03,0.03,0.06,0.04,0.09c0,0,0,0,0,0
		C81.49,90.4,81.47,90.37,81.46,90.35"/>
	<path class="st461" d="M81.5,90.43C81.5,90.43,81.5,90.43,81.5,90.43c0.03,0.06,0.06,0.12,0.09,0.19
		C81.56,90.55,81.53,90.49,81.5,90.43"/>
	<path class="st463" d="M66.04,27.27c-2.23,0-4.86,0.18-7.56,0.67c-2.8,0.48-5.58,1.23-8.03,2.13c-2.57,0.97-4.51,1.96-5.51,2.5
		c-7.84,4.92-11.09,10.71-12.38,14.39c-0.65,1.91-0.83,3.33-0.83,4.22c0,0.74,0.13,1.12,0.21,1.12c0.01,0,0.03-0.01,0.04-0.03
		c2.1-3.2,4.05-6.27,6.33-9.07c2.28-2.79,4.85-5.34,8.04-7.07c1.17-0.69,3.27-1.72,5.92-2.64c2.57-0.87,5.37-1.5,8.16-1.85
		c1.94-0.27,3.8-0.37,5.48-0.37c3.15,0,5.66,0.36,6.87,0.7c4.63,1.32,8.17,3.65,11.41,6.44c0.6,0.46,1.28,0.6,1.99,0.6
		c0.56,0,1.14-0.09,1.74-0.17c0.6-0.09,1.2-0.17,1.81-0.17c0.08,0,0.15,0,0.23,0c0.72,0.18,1.31,0.49,1.89,0.59l6.09,1.09l1.11,2.29
		c0.08,0.17,0.16,0.33,0.25,0.49c1.15,1.71,1.71,4.14,2,6.27c0.32,2.19,0.33,4.05,1.12,5.72l0,0l0,0l0,0l0,0
		c-0.2,1.94-0.7,3.68-1.34,5.3c-0.67,1.57-1.47,3.03-2.41,4.32c-0.94,1.3-1.98,2.48-3.15,3.54c-0.57,0.54-1.2,1.03-1.82,1.51
		c-0.59,0.42-1.17,0.81-1.75,1.15c-1.2,0.89-2.33,1.43-3.65,1.87c-2.07,0.51-3.94,0.22-5.89,0.47c-1.93,0.03-3.45,1.36-5.34,1.95
		c-0.94,0.42-1.93,0.44-2.65,0.88l0,0c-0.16,0.48-0.7,1.13-0.7,1.47c0,0.1,0.05,0.18,0.17,0.21c0.2,0.14,0.45,0.18,0.71,0.18
		c0.49,0,1.05-0.16,1.5-0.18c1.53-0.42,3.02-0.51,4.47-0.51c0.48,0,0.96,0.01,1.43,0.02c0.47,0.01,0.94,0.02,1.4,0.02
		c0.42,0,0.83-0.01,1.25-0.03c1.78-0.14,3.61-0.31,5.54-0.71c1.47-0.31,2.99-0.75,4.61-1.43c0.94-0.41,1.88-0.86,2.89-1.48
		c1.11-0.73,2.17-1.55,3.17-2.45c2-1.81,3.78-3.98,5.24-6.68c1.11-2.09,0.88-4.41,0.99-6.74c0-0.02,0-0.04,0-0.06l0,0
		c0-1.29,0.08-2.69,0.08-4.2c0-1.37-0.06-2.84-0.31-4.39c-0.47-3.24-1.98-6.77-4.36-8.98l-3.23-3.01l-3.56-3.31l-0.73-0.68
		l-1.49,0.8l-1.94,1.05c-0.34,0.18-0.67,0.4-0.98,0.66c-0.19,0.19-0.49,0.26-0.8,0.26c-0.26,0-0.53-0.05-0.77-0.14
		c-2.72-1.74-5.48-3.34-8.5-4.74c-0.03-0.02-0.07-0.03-0.1-0.05c-2.7-1.24-5.62-2.31-8.89-3.17c-1.12-0.31-2.94-0.56-5.21-0.58
		C66.19,27.27,66.11,27.27,66.04,27.27"/>
</g>
<g>
	<path d="M118.34,25.64c3.98-4.35,9.18-6.41,14.44-8.35c1.45-0.54,1.53-0.43,2.76,1.4c-3.31,0.34-6.37,1-9.2,2.57
		c-2.78,1.54-5.36,3.2-7.35,6.23c1.2,0.38,2.19,0.82,3.22,1c2.97,0.51,5.06,2.06,6.22,4.86c1.44,3.49,1.84,7.08,0.69,10.69
		c-1.9,5.96-3.91,11.89-6.1,17.76c-1.7,4.55-2.38,9.51-3.25,14.34c-0.47,2.57-0.79,5.29-0.46,7.86c0.46,3.59-0.37,7.08-0.15,10.63
		c0.18,2.9-1.23,5.43-2.55,7.91c-2.44,4.55-4.69,9.19-8.65,12.74c-2.6,2.33-5.44,4.26-8.39,6.09c-4.62,2.85-9.83,4.09-14.94,5.54
		c-2.39,0.68-5.08,0.37-7.63,0.39c-6.07,0.07-12.04-0.81-17.83-2.59c-4-1.23-7.55-3.18-10.31-6.64c-3.46-4.34-7.97-7.51-12.85-10.22
		c-2.94-1.63-5.41-3.91-7.03-7.03c-1.97-3.79-3.73-7.58-3.69-12.02c0.03-3.29-0.46-6.59-0.4-9.89c0.05-2.78,0.59-5.47,2.13-7.99
		c1.62-2.65,2.59-5.71,4.74-8.06c2.97-3.25,5.77-6.73,9.1-9.56c3.15-2.67,7.15-4.13,11.15-5.3c4.3-1.26,8.68-2.25,12.96-3.58
		c4.43-1.38,8.25-3.84,11.62-7.08c4.33-4.17,8.8-8.19,13.25-12.24c2.43-2.22,5.44-3.35,8.55-4.21c4.89-1.35,9.76-1.32,14.49,0.62
		c1.22,0.5,2.31,1.38,3.39,2.18C116.99,24.22,117.6,24.94,118.34,25.64z M43.86,110.94c0.62,0.54,1.27,1.06,1.86,1.63
		c1.33,1.3,2.8,2.51,3.91,3.98c2.45,3.24,5.67,5.39,9.45,6.51c3.57,1.05,7.25,1.86,10.94,2.29c5.32,0.63,10.71,0.89,16-0.43
		c2.22-0.55,4.38-1.33,6.57-1.99c6.01-1.8,10.97-5.31,15.4-9.6c3.99-3.86,6.05-8.97,8.38-13.85c0.86-1.8,1.42-3.86,1.57-5.85
		c0.26-3.22,0.17-6.48,0.05-9.71c-0.19-4.88,0.28-9.71,1.4-14.43c1.19-5.03,2.79-9.93,4.77-14.73c1.54-3.74,2.58-7.72,3.54-11.67
		c0.81-3.33,0.69-6.75-1.12-9.82c-1.13-1.91-2.52-3.51-5.14-3.51c-1.96,0-3.3-1.2-4.42-2.87c-2.02-3.01-4.86-4.88-8.59-5.13
		c-1.44-0.1-2.89-0.31-4.33-0.26c-4.61,0.17-9.04,1.3-12.58,4.27c-4.54,3.8-8.7,8.03-13.08,12.02c-1.75,1.59-3.5,3.24-5.48,4.51
		c-4.76,3.05-10.12,4.57-15.62,5.7c-2.22,0.46-4.54,0.88-6.55,1.84c-4.17,2-8.46,3.71-11.81,7.29c-2.97,3.17-6,6.22-8.2,9.98
		c-2.36,4.02-4.58,8.02-4.46,13c0.15,6.56,0.07,13.1,3.62,18.96c0.87,1.44,1.66,3.07,2.92,4.09c3.02,2.44,6.29,4.57,9.47,6.81
		c0.18,0.13,0.47,0.1,0.79,0.15c0.4-0.53,0.79-1.05,1.22-1.62c-0.83-1.03-1.6-1.98-2.37-2.93c3.14,0.44,5.41,2.32,7.71,4.1
		c0.33,0.25,0.29,0.97,0.52,1.87C46.7,108.64,46.12,108.6,43.86,110.94z"/>
	<path d="M101.75,56.58c5.78,1.33,13.47,10.08,11.44,19.14c-0.33-1.92-0.77-3.3-0.77-4.68c0-2.91-1.35-5.2-2.99-7.38
		c-1.89-2.51-4.11-4.69-6.91-6.22C102.2,57.28,102.01,56.88,101.75,56.58z"/>
	<path d="M59.17,118.33c2.48,0.54,4.38,0.95,6.24,1.35C63.45,120.81,61.93,120.57,59.17,118.33z"/>
	<path d="M72.38,117.14c-2.12,0.86-3.66,1.22-5.27,0C68.66,117.14,70.22,117.14,72.38,117.14z"/>
	<path d="M82.75,120.4c1.46-0.26,2.92-0.51,4.51-0.79C86.24,121.17,85.57,121.34,82.75,120.4z"/>
	<path d="M85.32,116.4c1.52-0.52,2.78-0.95,4.38-1.5C88.25,116.82,87.57,117.04,85.32,116.4z"/>
	<path d="M75.53,118.76c1.31,0,2.61,0,4.24,0C78.19,119.98,76.87,120.3,75.53,118.76z"/>
	<path d="M78.05,115.8c1.24-1.29,2.54-1.48,4.2-1.26C80.94,115.49,79.84,116.33,78.05,115.8z"/>
	<path d="M96.52,109.83c-0.69,0.83-1.37,1.66-2.07,2.51C93.53,111.23,93.77,110.87,96.52,109.83z"/>
	<path d="M71.48,120.68c1.08,0.15,2.17,0.31,3.78,0.54c-1.72,0.71-2.83,0.77-3.89,0.09C71.4,121.1,71.44,120.89,71.48,120.68z"/>
	<path d="M89.39,109.81c-0.75,0.51-1.5,1.02-2.39,1.62C87.27,109.98,87.27,109.98,89.39,109.81z"/>
	<path d="M98.66,103.9c0.53-0.65,1.06-1.29,1.59-1.94c0.16,0.12,0.32,0.23,0.48,0.35c-0.47,0.7-0.93,1.4-1.39,2.1
		C99.11,104.24,98.89,104.07,98.66,103.9z"/>
</g>
</svg>
