<?xml version="1.0" encoding="utf-8"?>
<!-- Generator: Adobe Illustrator 23.0.1, SVG Export Plug-In . SVG Version: 6.00 Build 0)  -->
<svg version="1.1" id="Layer_1" xmlns="http://www.w3.org/2000/svg" xmlns:xlink="http://www.w3.org/1999/xlink" x="0px" y="0px"
	 viewBox="0 0 150 150" style="enable-background:new 0 0 150 150;" xml:space="preserve">
<style type="text/css">
	.st0{fill:#F49AB4;}
	.st1{fill:#F28DA7;}
	.st2{fill:#E85072;}
	.st3{fill:#E84B6F;}
	.st4{fill:#EB5A7D;}
	.st5{fill:#EF7994;}
	.st6{fill:#F8BCCD;}
	.st7{fill:#F38CA8;}
	.st8{fill:#EF728F;}
	.st9{fill:#FCE4EB;}
	.st10{fill:#F0CCCF;}
	.st11{fill:#DE8D95;}
	.st12{fill:#EBBABF;}
	.st13{fill:#E7ACB2;}
	.st14{fill:#E39DA3;}
	.st15{fill:#F5DEE0;}
	.st16{fill:#D97A83;}
	.st17{fill:#E4A6AD;}
	.st18{fill:#E9B6BB;}
	.st19{fill:#DA9197;}
	.st20{fill:#CC7077;}
	.st21{fill:#C9646C;}
	.st22{fill:#D4848B;}
	.st23{fill:#D17A81;}
	.st24{fill:#DD9EA3;}
	.st25{fill:#C65760;}
	.st26{fill:#D48189;}
	.st27{fill:#CF6E76;}
	.st28{fill:#C1575F;}
	.st29{fill:#B8424B;}
	.st30{fill:#B33C43;}
	.st31{fill:#BB4952;}
	.st32{fill:#C65E66;}
	.st33{fill:#BC4F57;}
	.st34{fill:#B0353D;}
	.st35{fill:#D67E84;}
	.st36{fill:#C6636B;}
	.st37{fill:#CA6C72;}
	.st38{fill:#B9454D;}
	.st39{fill:#C05B63;}
	.st40{fill:#C0545B;}
	.st41{fill:#BE4C53;}
	.st42{fill:#B43C44;}
	.st43{fill:#DF999F;}
	.st44{fill:#D27980;}
	.st45{fill:#C1555D;}
	.st46{fill:#CB6F76;}
	.st47{fill:#C8676E;}
	.st48{fill:#D5838A;}
	.st49{fill:#C65D64;}
	.st50{fill:#F1D1D4;}
	.st51{fill:#D38087;}
	.st52{fill:#CF737C;}
	.st53{fill:#D98C94;}
	.st54{fill:#E6B3B9;}
	.st55{fill:#D8898F;}
	.st56{fill:#C66269;}
	.st57{fill:#C96A72;}
	.st58{fill:#DD9399;}
	.st59{fill:#CF747B;}
	.st60{fill:#D48188;}
	.st61{fill:#D37D85;}
	.st62{fill:#DC9298;}
	.st63{fill:#D8838B;}
	.st64{fill:#FAECED;}
	.st65{fill:#EFCBD0;}
	.st66{fill:#EDC1C5;}
	.st67{fill:#D28089;}
	.st68{fill:#CB747D;}
	.st69{fill:#A8343C;}
	.st70{fill:#A62F37;}
	.st71{fill:#B03E44;}
	.st72{fill:#C25C63;}
	.st73{fill:#E1A8AC;}
	.st74{fill:#BE535C;}
	.st75{fill:#CE727C;}
	.st76{fill:#F5D8DA;}
	.st77{fill:#D8BAE7;}
	.st78{fill:#BC8FD2;}
	.st79{fill:#B17FC9;}
	.st80{fill:#7D3CA4;}
	.st81{fill:#884BAE;}
	.st82{fill:#A369BF;}
	.st83{fill:#D2B5E2;}
	.st84{fill:#9A62BC;}
	.st85{fill:#B17ECB;}
	.st86{fill:#ECE0F2;}
	.st87{fill:#FBCBC8;}
	.st88{fill:#F5908C;}
	.st89{fill:#F28580;}
	.st90{fill:#E64640;}
	.st91{fill:#E5413B;}
	.st92{fill:#E74E49;}
	.st93{fill:#ED6D68;}
	.st94{fill:#F7B5B0;}
	.st95{fill:#ED6660;}
	.st96{fill:#F48580;}
	.st97{fill:#FBDFDF;}
	.st98{fill:#F9C1C0;}
	.st99{fill:#F7B7B6;}
	.st100{fill:#EF7573;}
	.st101{fill:#EF6F6D;}
	.st102{fill:#F17F7C;}
	.st103{fill:#F4A19F;}
	.st104{fill:#F39998;}
	.st105{fill:#EC7271;}
	.st106{fill:#FAD1CF;}
	.st107{fill:#FADCDC;}
	.st108{fill:#F39391;}
	.st109{fill:#FDECEC;}
	.st110{fill:#FCDDDD;}
	.st111{fill:#ED8280;}
	.st112{fill:#E66160;}
	.st113{fill:#F18784;}
	.st114{fill:#F19593;}
	.st115{fill:#EB7675;}
	.st116{fill:#E86867;}
	.st117{fill:#F28785;}
	.st118{fill:#F3A7A7;}
	.st119{fill:#F08C8B;}
	.st120{fill:#F08785;}
	.st121{fill:#E55D5B;}
	.st122{fill:#E86D6C;}
	.st123{fill:#E85F5D;}
	.st124{fill:#E75958;}
	.st125{fill:#EA6664;}
	.st126{fill:#E76260;}
	.st127{fill:#E04948;}
	.st128{fill:#ED7371;}
	.st129{fill:#EA6B6A;}
	.st130{fill:#EB6763;}
	.st131{fill:#E45352;}
	.st132{fill:#E54E4C;}
	.st133{fill:#DE3635;}
	.st134{fill:#E65958;}
	.st135{fill:#E0413E;}
	.st136{fill:#EA6D6A;}
	.st137{fill:#EE9493;}
	.st138{fill:#EA6866;}
	.st139{fill:#F2A8A6;}
	.st140{fill:#E14543;}
	.st141{fill:#E3413F;}
	.st142{fill:#E64A48;}
	.st143{fill:#E56967;}
	.st144{fill:#E33F3D;}
	.st145{fill:#EB7775;}
	.st146{fill:#EE8483;}
	.st147{fill:#E64845;}
	.st148{fill:#E75655;}
	.st149{fill:#E65451;}
	.st150{fill:#EA7473;}
	.st151{fill:#E55B57;}
	.st152{fill:#E75756;}
	.st153{fill:#EB7472;}
	.st154{fill:#EE8C8A;}
	.st155{fill:#F5A3A2;}
	.st156{fill:#E14A49;}
	.st157{fill:#E14D4C;}
	.st158{fill:#E14B49;}
	.st159{fill:#DE3E3D;}
	.st160{fill:#E45350;}
	.st161{fill:#E14544;}
	.st162{fill:#E54E4B;}
	.st163{fill:#E34240;}
	.st164{fill:#E75C5A;}
	.st165{fill:#EB7C7B;}
	.st166{fill:#F3A2A1;}
	.st167{fill:#EA7877;}
	.st168{fill:#E66B6A;}
	.st169{fill:#E96A69;}
	.st170{fill:#E56160;}
	.st171{fill:#E44845;}
	.st172{fill:#EC7473;}
	.st173{fill:#F9C0D3;}
	.st174{fill:#F298B5;}
	.st175{fill:#EE89A7;}
	.st176{fill:#E54D73;}
	.st177{fill:#E44771;}
	.st178{fill:#E7567E;}
	.st179{fill:#EC7797;}
	.st180{fill:#F8BCCF;}
	.st181{fill:#EB6D8F;}
	.st182{fill:#F089A8;}
	.st183{fill:#FCE2EB;}
	.st184{fill:#E55B7F;}
	.st185{fill:#E6708E;}
	.st186{fill:#EB87A2;}
	.st187{fill:#E25677;}
	.st188{fill:#E7678B;}
	.st189{fill:#FBD7E3;}
	.st190{fill:#ED80A1;}
	.st191{fill:#E24166;}
	.st192{fill:#E13B65;}
	.st193{fill:#E34870;}
	.st194{fill:#E76486;}
	.st195{fill:#F49DB8;}
	.st196{fill:#F7BFD1;}
	.st197{fill:#E65C7F;}
	.st198{fill:#F6ABC4;}
	.st199{fill:#F6A7C2;}
	.st200{fill:#EA6189;}
	.st201{fill:#DB3258;}
	.st202{fill:#DA2E55;}
	.st203{fill:#F7B2C9;}
	.st204{fill:#EA6A8D;}
	.st205{fill:#DC355B;}
	.st206{fill:#DB3159;}
	.st207{fill:#DF3C63;}
	.st208{fill:#F9C5D6;}
	.st209{fill:#EB7697;}
	.st210{fill:#DE3B61;}
	.st211{fill:#DE375F;}
	.st212{fill:#E1426A;}
	.st213{fill:#FDE7EE;}
	.st214{fill:#EE89A9;}
	.st215{fill:#E2456B;}
	.st216{fill:#E14069;}
	.st217{fill:#E44D75;}
	.st218{fill:#E86B8C;}
	.st219{fill:#EE7A9C;}
	.st220{fill:#F5A8C0;}
	.st221{fill:#FACBDA;}
	.st222{fill:#E65A7D;}
	.st223{fill:#E04169;}
	.st224{fill:#FEF5F9;}
	.st225{fill:#F191B0;}
	.st226{fill:#EA7292;}
	.st227{fill:#F6B4C9;}
	.st228{fill:#FBD8E5;}
	.st229{fill:#E96C8F;}
	.st230{fill:#E35477;}
	.st231{fill:#EA7396;}
	.st232{fill:#EB7A9D;}
	.st233{fill:#E8698D;}
	.st234{fill:#EB7094;}
	.st235{fill:#E04B6E;}
	.st236{fill:#E66085;}
	.st237{fill:#EB7294;}
	.st238{fill:#E7678C;}
	.st239{fill:#EA6D91;}
	.st240{fill:#E14C71;}
	.st241{fill:#EE7A9D;}
	.st242{fill:#F393B2;}
	.st243{fill:#DC3F64;}
	.st244{fill:#EF82A3;}
	.st245{fill:#F39DB9;}
	.st246{fill:#DF466B;}
	.st247{fill:#DF4469;}
	.st248{fill:#F29A98;}
	.st249{fill:#E64F4D;}
	.st250{fill:#E74947;}
	.st251{fill:#E85956;}
	.st252{fill:#EC7775;}
	.st253{fill:#F8BCBA;}
	.st254{fill:#EC6F6D;}
	.st255{fill:#FCE2E2;}
	.st256{fill:#F8C8C6;}
	.st257{fill:#F08B89;}
	.st258{fill:#F18A89;}
	.st259{fill:#B093A4;}
	.st260{fill:#A38295;}
	.st261{fill:#6F455A;}
	.st262{fill:#694055;}
	.st263{fill:#794F64;}
	.st264{fill:#936F83;}
	.st265{fill:#CDB7C1;}
	.st266{fill:#B596A5;}
	.st267{fill:#A58394;}
	.st268{fill:#8C667A;}
	.st269{fill:#B696A7;}
	.st270{fill:#E8E0E7;}
	.st271{fill:#E1BCC2;}
	.st272{fill:#A9666E;}
	.st273{fill:#681C23;}
	.st274{fill:#641920;}
	.st275{fill:#73242D;}
	.st276{fill:#8D3F48;}
	.st277{fill:#C69197;}
	.st278{fill:#893841;}
	.st279{fill:#E3CCCE;}
	.st280{fill:#6F292E;}
	.st281{fill:#A15A63;}
	.st282{fill:#944952;}
	.st283{fill:#944953;}
	.st284{fill:#964A53;}
	.st285{fill:#984B54;}
	.st286{fill:#974A53;}
	.st287{fill:#A25A62;}
	.st288{fill:#D2BCC8;}
	.st289{fill:#C8B2BE;}
	.st290{fill:#936A80;}
	.st291{fill:#8E667B;}
	.st292{fill:#9B7589;}
	.st293{fill:#B293A3;}
	.st294{fill:#916B7F;}
	.st295{fill:#DDCCD6;}
	.st296{fill:#AC8B9C;}
	.st297{fill:#F1EBEF;}
	.st298{fill:#9C7A8C;}
	.st299{fill:#8F6C80;}
	.st300{fill:#B99DAC;}
	.st301{fill:#A27F91;}
	.st302{fill:#C2A7B6;}
	.st303{fill:#AB8E9F;}
	.st304{fill:#936D82;}
	.st305{fill:#856174;}
	.st306{fill:#B99DAB;}
	.st307{fill:#C2A9B6;}
	.st308{fill:#A38091;}
	.st309{fill:#BBA3B0;}
	.st310{fill:#7A5468;}
	.st311{fill:#855F73;}
	.st312{fill:#AE8E9F;}
	.st313{fill:#7C556A;}
	.st314{fill:#7B5066;}
	.st315{fill:#855C71;}
	.st316{fill:#AF8E9F;}
	.st317{fill:#734B60;}
	.st318{fill:#694256;}
	.st319{fill:#916A80;}
	.st320{fill:#886378;}
	.st321{fill:#875C71;}
	.st322{fill:#714B5E;}
	.st323{fill:#582F42;}
	.st324{fill:#795066;}
	.st325{fill:#5E3A4B;}
	.st326{fill:#8A6578;}
	.st327{fill:#A98E9D;}
	.st328{fill:#B9A1B1;}
	.st329{fill:#B08F9F;}
	.st330{fill:#B898AA;}
	.st331{fill:#896578;}
	.st332{fill:#653C50;}
	.st333{fill:#623A4E;}
	.st334{fill:#6C4257;}
	.st335{fill:#B28FA1;}
	.st336{fill:#80596E;}
	.st337{fill:#7F586C;}
	.st338{fill:#765063;}
	.st339{fill:#683F53;}
	.st340{fill:#774E63;}
	.st341{fill:#704B5F;}
	.st342{fill:#674355;}
	.st343{fill:#7F5A6E;}
	.st344{fill:#815A6E;}
	.st345{fill:#6A4558;}
	.st346{fill:#5D374A;}
	.st347{fill:#926D80;}
	.st348{fill:#70475B;}
	.st349{fill:#72495E;}
	.st350{fill:#673D52;}
	.st351{fill:#673D51;}
	.st352{fill:#60364B;}
	.st353{fill:#795265;}
	.st354{fill:#683F52;}
	.st355{fill:#7A5368;}
	.st356{fill:#987387;}
	.st357{fill:#70475C;}
	.st358{fill:#A07D92;}
	.st359{fill:#81596E;}
	.st360{fill:#926C7F;}
	.st361{fill:#80596D;}
	.st362{fill:#CDC0E4;}
	.st363{fill:#A998CF;}
	.st364{fill:#644DA1;}
	.st365{fill:#5E479E;}
	.st366{fill:#6F56A9;}
	.st367{fill:#755CAC;}
	.st368{fill:#8975BA;}
	.st369{fill:#C4BAE0;}
	.st370{fill:#755DAD;}
	.st371{fill:#846DB7;}
	.st372{fill:#E7E2F2;}
	.st373{fill:#9B89C5;}
	.st374{fill:#8871B8;}
	.st375{fill:#9C89C6;}
	.st376{fill:#8673B9;}
	.st377{fill:#B9E1BA;}
	.st378{fill:#ADDBAE;}
	.st379{fill:#99D09A;}
	.st380{fill:#65B567;}
	.st381{fill:#5FB261;}
	.st382{fill:#70BB71;}
	.st383{fill:#8DCB8E;}
	.st384{fill:#CBE9CB;}
	.st385{fill:#86C687;}
	.st386{fill:#98D099;}
	.st387{fill:#EBF5EB;}
	.st388{fill:#B9D6C9;}
	.st389{fill:#8EBD9E;}
	.st390{fill:#7DB18E;}
	.st391{fill:#408251;}
	.st392{fill:#3A7F4C;}
	.st393{fill:#4A8C5B;}
	.st394{fill:#68A279;}
	.st395{fill:#B5D4BE;}
	.st396{fill:#7CB38B;}
	.st397{fill:#619D71;}
	.st398{fill:#E0ECE4;}
	.st399{fill:#74A38C;}
	.st400{fill:#679880;}
	.st401{fill:#669780;}
	.st402{fill:#669881;}
	.st403{fill:#285E41;}
	.st404{fill:#235A3C;}
	.st405{fill:#31684A;}
	.st406{fill:#4D8268;}
	.st407{fill:#A1C2B0;}
	.st408{fill:#679981;}
	.st409{fill:#467B62;}
	.st410{fill:#D6E5DF;}
	.st411{fill:#8ECA8F;}
	.st412{fill:#7DC07F;}
	.st413{fill:#409841;}
	.st414{fill:#3A933C;}
	.st415{fill:#4AA14B;}
	.st416{fill:#68B569;}
	.st417{fill:#7CC07D;}
	.st418{fill:#B5DDB5;}
	.st419{fill:#61B062;}
	.st420{fill:#7CC17E;}
	.st421{fill:#E0EFE0;}
	.st422{fill:#EBF5DE;}
	.st423{fill:#D4EAB8;}
	.st424{fill:#D2E9B4;}
	.st425{fill:#D8ECBE;}
	.st426{fill:#E2F0CE;}
	.st427{fill:#F3F9EA;}
	.st428{fill:#DFF0CA;}
	.st429{fill:#FAFDF7;}
	.st430{fill:#D3C9BE;}
	.st431{fill:#CBBEB3;}
	.st432{fill:#BBAC9F;}
	.st433{fill:#97826F;}
	.st434{fill:#947E69;}
	.st435{fill:#9F8A79;}
	.st436{fill:#B5A495;}
	.st437{fill:#DED6CE;}
	.st438{fill:#BBAD9F;}
	.st439{fill:#AE9E8D;}
	.st440{fill:#F2EFEC;}
	.st441{fill:#B1A091;}
	.st442{fill:#B1A090;}
	.st443{fill:#D8BACF;}
	.st444{fill:#976286;}
	.st445{fill:#905778;}
	.st446{fill:#4F1939;}
	.st447{fill:#4C1637;}
	.st448{fill:#5A2144;}
	.st449{fill:#773B60;}
	.st450{fill:#B88FAD;}
	.st451{fill:#6E345A;}
	.st452{fill:#8E567D;}
	.st453{fill:#E1CCDA;}
	.st454{fill:#C4E2A7;}
	.st455{fill:#93C35F;}
	.st456{fill:#8EC15A;}
	.st457{fill:#9AC868;}
	.st458{fill:#B0D587;}
	.st459{fill:#DCEBC3;}
	.st460{fill:#C8E0AA;}
	.st461{fill:#ABD280;}
	.st462{fill:#CAE2A9;}
	.st463{fill:#EFF8E7;}
	.st464{fill:#FFF6C0;}
	.st465{fill:#FFEC97;}
	.st466{fill:#FFDC4B;}
	.st467{fill:#FFD945;}
	.st468{fill:#FFDD54;}
	.st469{fill:#FFE774;}
	.st470{fill:#FFF4BA;}
	.st471{fill:#FFE46C;}
	.st472{fill:#FFF9E2;}
	.st473{fill:#FDE2C1;}
	.st474{fill:#F9CA98;}
	.st475{fill:#F9C18A;}
	.st476{fill:#F5994E;}
	.st477{fill:#F49448;}
	.st478{fill:#F8A158;}
	.st479{fill:#F8B577;}
	.st480{fill:#FCDDBC;}
	.st481{fill:#F8B06F;}
	.st482{fill:#FFEFE2;}
	.st483{fill:#F8A7A4;}
	.st484{fill:#EF8262;}
	.st485{fill:#EC605A;}
	.st486{fill:#EB5B55;}
	.st487{fill:#EC6964;}
	.st488{fill:#F28783;}
	.st489{fill:#F9C4C1;}
	.st490{fill:#F2817A;}
	.st491{fill:#EB6449;}
	.st492{fill:#FCE7E7;}
	.st493{fill:#FFEA88;}
	.st494{fill:#FFEB87;}
	.st495{fill:#FDF2E3;}
	.st496{fill:#FDEFDD;}
	.st497{fill:#F9E1C4;}
	.st498{fill:#FADEB9;}
	.st499{fill:#FADDB7;}
	.st500{fill:#FAE0BF;}
	.st501{fill:#FBE9CF;}
	.st502{fill:#F9DAB8;}
	.st503{fill:#FDF5EB;}
	.st504{fill:#FBE6CB;}
	.st505{fill:#FFFBF7;}
	.st506{fill:#FBDFBE;}
	.st507{fill:#F7D8B5;}
	.st508{fill:#FBE8CF;}
	.st509{fill:#FBE3C8;}
	.st510{fill:#F9E8CF;}
	.st511{fill:#F8DBB7;}
	.st512{fill:#FADBB5;}
	.st513{fill:#F7D5AE;}
	.st514{fill:#FDE9D5;}
	.st515{fill:#FAE3C8;}
	.st516{fill:#F7D1A4;}
	.st517{fill:#F5CD9D;}
	.st518{fill:#F7D8B0;}
	.st519{fill:#F8D4A9;}
	.st520{fill:#F8D3A6;}
	.st521{fill:#F8D8AF;}
	.st522{fill:#F7CD9E;}
	.st523{fill:#F4C896;}
	.st524{fill:#FBE3C5;}
	.st525{fill:#F7DBB8;}
	.st526{fill:#F7D8B1;}
	.st527{fill:#F7D7B0;}
	.st528{fill:#F8CD9F;}
	.st529{fill:#F8CD9E;}
	.st530{fill:#F1BE84;}
	.st531{fill:#F8D0A3;}
	.st532{fill:#F1C38D;}
	.st533{fill:#F8D8B1;}
	.st534{fill:#FBE2C8;}
	.st535{fill:#F9EAD3;}
	.st536{fill:#F9D3AA;}
	.st537{fill:#F7C896;}
	.st538{fill:#F7C794;}
	.st539{fill:#F7CA9A;}
	.st540{fill:#F7D3AB;}
	.st541{fill:#F8D8B5;}
	.st542{fill:#F9E6CF;}
	.st543{fill:#F7C897;}
	.st544{fill:#F8D3AA;}
	.st545{fill:#F7CEA2;}
	.st546{fill:#F4CD9E;}
	.st547{fill:#F5D2A5;}
	.st548{fill:#FBE2C2;}
	.st549{fill:#F5D1A8;}
	.st550{fill:#F8D5AB;}
	.st551{fill:#F2C695;}
	.st552{fill:#F8D3A8;}
	.st553{fill:#F5C998;}
	.st554{fill:#F5C894;}
	.st555{fill:#F2C997;}
	.st556{fill:#F2C48D;}
	.st557{fill:#F4C694;}
	.st558{fill:#F5CE9D;}
	.st559{fill:#F4C594;}
	.st560{fill:#F5C995;}
	.st561{fill:#F4C48F;}
	.st562{fill:#F7D2A6;}
	.st563{fill:#F8DFBB;}
	.st564{fill:#FBE2C3;}
	.st565{fill:#F8CC9E;}
	.st566{fill:#FADFC1;}
	.st567{fill:#F9D8B5;}
	.st568{fill:#F4C997;}
	.st569{fill:#F9DDB8;}
	.st570{fill:#FDFCED;}
	.st571{fill:#FBF7D2;}
	.st572{fill:#F9F6CB;}
	.st573{fill:#F4EBA8;}
	.st574{fill:#F5E9A6;}
	.st575{fill:#F5EDAC;}
	.st576{fill:#F7F5C0;}
	.st577{fill:#FBFBE1;}
	.st578{fill:#F7F0BE;}
	.st579{fill:#FAF6CE;}
	.st580{fill:#FFFBF5;}
	.st581{fill:#BDDB97;}
	.st582{fill:#BBDC99;}
	.st583{fill:#BDDD99;}
	.st584{fill:#B0D484;}
	.st585{fill:#AFD484;}
	.st586{fill:#FFEA87;}
	.st587{fill:#D3E9BA;}
	.st588{fill:#E1EECE;}
	.st589{fill:#D3E8BB;}
	.st590{fill:#E3EECE;}
	.st591{opacity:0.9;}
	.st592{fill:#FFF8CD;}
	.st593{opacity:0.9;fill:#FFEE8A;}
	.st594{fill:#FFF19E;}
	.st595{fill:#FFF5B6;}
	.st596{fill:#FFFBE0;}
	.st597{fill:none;stroke:#FFF4B1;stroke-width:0;}
	.st598{fill:#FFFDF3;}
	.st599{fill:#FACEDD;}
	.st600{opacity:0.9;fill:#F38CAF;}
	.st601{fill:#F5A0BD;}
	.st602{fill:#F8B8CD;}
	.st603{fill:#FCE1EA;}
	.st604{fill:none;stroke:#F7B2C9;stroke-width:0;}
	.st605{fill:#FEF3F7;}
	.st606{fill:#FBDBB6;}
	.st607{fill:#FBD1A3;}
	.st608{fill:#F9B674;}
	.st609{fill:#F8B36E;}
	.st610{fill:#FABB7E;}
	.st611{fill:#FACB99;}
	.st612{fill:#FDE9D1;}
	.st613{fill:#FAC893;}
	.st614{fill:#F9D0A1;}
	.st615{fill:#FFF5EC;}
	.st616{fill:#D7ECC0;}
	.st617{fill:#B1D684;}
	.st618{fill:#ADD680;}
	.st619{fill:#B7D98D;}
	.st620{fill:#C8E2A7;}
	.st621{fill:#E8F2D6;}
	.st622{fill:#C3E0A0;}
	.st623{fill:#F5FAEF;}
	.st624{fill:#A87699;}
	.st625{fill:#A9716E;}
	.st626{fill:#9F698A;}
	.st627{fill:#9F698D;}
	.st628{fill:#65294F;}
	.st629{fill:#632638;}
	.st630{fill:#62244A;}
	.st631{fill:#612335;}
	.st632{fill:#6E3259;}
	.st633{fill:#6D2F40;}
	.st634{fill:#8B4E74;}
	.st635{fill:#C4A1BB;}
	.st636{fill:#9D688D;}
	.st637{fill:#82476E;}
	.st638{fill:#E7D6E1;}
	.st639{fill:#FFF9D6;}
	.st640{fill:#FFF2A6;}
	.st641{fill:#FFF4B0;}
	.st642{fill:#FFF7C4;}
	.st643{fill:#FFFCE6;}
	.st644{fill:#FFF3B5;}
	.st645{fill:#FFED8B;}
	.st646{fill:#FFED94;}
	.st647{fill:#FFF1A4;}
	.st648{fill:#FFF5BF;}
	.st649{fill:#FFF6CD;}
	.st650{fill:#FFE46E;}
	.st651{fill:#FFED98;}
	.st652{fill:#FFF3A9;}
	.st653{fill:#FFEC8D;}
	.st654{fill:#FFE66B;}
	.st655{fill:#FFEC8A;}
	.st656{fill:#FFE66D;}
	.st657{fill:#FFE571;}
	.st658{fill:#FFEF94;}
	.st659{fill:#FFEF9E;}
	.st660{fill:#FFED93;}
	.st661{fill:#FFE873;}
	.st662{fill:#FFE97A;}
	.st663{fill:#FFEC87;}
	.st664{fill:#FFF19F;}
	.st665{fill:#FFF1A8;}
	.st666{fill:#FFEA7E;}
	.st667{fill:#FFEB86;}
	.st668{fill:#FFEF97;}
	.st669{fill:#FFF2B0;}
	.st670{fill:#FFF4BC;}
	.st671{fill:#FFF5C1;}
	.st672{fill:#FFF8CF;}
	.st673{fill:#FFF8DC;}
	.st674{fill:#FFF0A0;}
	.st675{fill:#FFEE92;}
	.st676{fill:#FFF6CE;}
	.st677{fill:#FFFADD;}
	.st678{fill:#FFFBEC;}
	.st679{fill:#FFFDF5;}
	.st680{fill:#F49C52;}
	.st681{fill:#F69D52;}
	.st682{fill:#F8A55E;}
	.st683{fill:#F8B472;}
	.st684{fill:#F59D54;}
	.st685{fill:#F8A65F;}
	.st686{fill:#F8B474;}
	.st687{fill:#FDF3E9;}
	.st688{fill:#FAE8D1;}
	.st689{fill:#FAE8CF;}
	.st690{fill:#FAEBD4;}
	.st691{fill:#F9EDD7;}
	.st692{fill:#FBEFDE;}
	.st693{fill:#FBEFDD;}
	.st694{fill:#FDF8F1;}
	.st695{fill:#FBEDD7;}
	.st696{fill:#FBEFDC;}
	.st697{fill:#FFFBFA;}
	.st698{fill:#FFE771;}
	.st699{fill:#FFEB83;}
	.st700{fill:#FFED90;}
	.st701{fill:#F7B6CB;}
	.st702{fill:#F4A2BB;}
	.st703{fill:#EE7397;}
	.st704{fill:#ED6D94;}
	.st705{fill:#EF7C9F;}
	.st706{fill:#F399B5;}
	.st707{fill:#FAD1DE;}
	.st708{fill:#F291AE;}
	.st709{fill:#F3A1BB;}
	.st710{fill:#FDECF2;}
</style>
<g>
	<path class="st464" d="M109.16,63.59L109.16,63.59c0,0.03-0.01,0.07-0.01,0.1l0,0l0,0c0,0.04-0.01,0.08-0.02,0.12l0,0
		c0.01-0.04,0.01-0.08,0.02-0.12C109.16,63.66,109.16,63.62,109.16,63.59 M108.74,62.73l0,0.13l0,0L108.74,62.73L108.74,62.73
		 M108.71,61.87L108.71,61.87c0,0.49,0.04,0.86,0.04,0.86l0,0c0,0,0,0,0,0C108.74,62.7,108.71,62.34,108.71,61.87L108.71,61.87
		 M109.24,61.85C109.24,61.85,109.24,61.85,109.24,61.85S109.24,61.85,109.24,61.85 M108.54,61.38L108.54,61.38
		c-0.08,0.19-0.17,0.37-0.25,0.56l0,0C108.37,61.75,108.46,61.56,108.54,61.38 M108.74,60.97c-0.13,0.28-0.28,0.6-0.45,0.97l0,0
		C108.46,61.57,108.61,61.25,108.74,60.97L108.74,60.97 M108.76,60.93L108.76,60.93c-0.02,0.16-0.03,0.33-0.04,0.5l0,0
		c-0.01,0.15-0.01,0.3-0.01,0.44l0,0c0-0.14,0-0.29,0.01-0.44C108.72,61.26,108.74,61.08,108.76,60.93 M108.76,60.89
		c-0.01,0.02-0.01,0.03-0.02,0.05l0,0C108.75,60.92,108.75,60.9,108.76,60.89L108.76,60.89 M108.91,60.57
		c-0.05,0.11-0.1,0.21-0.14,0.32l0,0l0,0l0,0l0,0l0,0l0,0c0,0,0,0,0,0l0,0c0,0,0,0,0,0C108.81,60.78,108.86,60.67,108.91,60.57
		L108.91,60.57 M108.83,60.34L108.83,60.34c-0.01,0.1-0.04,0.3-0.07,0.54l0,0C108.79,60.65,108.82,60.45,108.83,60.34 M109.39,59.5
		c-0.13,0.29-0.26,0.58-0.39,0.86l0,0C109.13,60.08,109.26,59.79,109.39,59.5L109.39,59.5 M109.12,59.36c0,0.01,0,0.01-0.01,0.02
		l0,0C109.12,59.37,109.12,59.37,109.12,59.36L109.12,59.36 M109.49,59.29L109.49,59.29c-0.03,0.07-0.06,0.13-0.09,0.2l0,0
		C109.43,59.43,109.46,59.36,109.49,59.29l0.01,0.01l0.01,0l0,0l0,0l0,0l0,0l0,0l-0.01,0L109.49,59.29L109.49,59.29L109.49,59.29
		 M109.49,59.29C109.49,59.29,109.49,59.29,109.49,59.29L109.49,59.29C109.49,59.29,109.49,59.29,109.49,59.29L109.49,59.29
		 M109.43,59.27L109.43,59.27l0.01,0l0.03,0.01l0.01,0.01l0,0l-0.01-0.01l-0.03-0.01L109.43,59.27 M109.43,59.27l0.02,0.01
		l0.04,0.02l0,0l0,0l0,0l-0.04-0.02L109.43,59.27 M109.33,59.23L109.33,59.23l0.04,0.01l0.06,0.02l-0.06-0.02L109.33,59.23
		 M109.33,59.23l0.06,0.03l0.04,0.01l-0.04-0.01L109.33,59.23 M109.18,59.21L109.18,59.21c0,0.01-0.01,0.02-0.01,0.03l0,0
		C109.17,59.23,109.18,59.22,109.18,59.21L109.18,59.21L109.18,59.21L109.18,59.21L109.18,59.21 M109.18,59.21L109.18,59.21
		L109.18,59.21L109.18,59.21 M109.19,59.2L109.19,59.2L109.19,59.2l0.05,0.01l0.09,0.02l-0.09-0.02L109.19,59.2 M109.63,59.05
		c0,0-0.05,0.12-0.21,0.46l0,0C109.57,59.16,109.63,59.05,109.63,59.05L109.63,59.05 M109.63,59.04l-0.21,0.46L109.63,59.04
		L109.63,59.04L109.63,59.04L109.63,59.04 M108.74,59.01L108.74,59.01c0.16,0.07,0.21,0.08,0.28,0.1l0.19,0.07l0.12,0.05l-0.12-0.05
		l-0.19-0.07C108.95,59.09,108.9,59.08,108.74,59.01L108.74,59.01"/>
	<path class="st464" d="M108.74,62.73L108.74,62.73C108.74,62.73,108.74,62.73,108.74,62.73L108.74,62.73
		C108.74,62.73,108.74,62.73,108.74,62.73L108.74,62.73 M109.24,61.85C109.24,61.85,109.24,61.85,109.24,61.85
		S109.24,61.85,109.24,61.85 M108.74,60.97c-0.13,0.28-0.28,0.6-0.45,0.97l0,0C108.46,61.57,108.61,61.25,108.74,60.97L108.74,60.97
		"/>
	<path class="st465" d="M66.35,37.89c-0.69,0-1.33,0.07-1.87,0.22c-0.46,0.4-0.19,1.69-0.65,2.1c-0.3,0.15-1.16,1.27-2.32,2.86
		c-0.58,0.8-1.23,1.71-1.93,2.68c-0.73,0.99-1.3,1.93-2.41,3.14c-1.08,1.21-2.53,2.65-3.99,4.36c-1.43,1.69-2.93,3.81-3.77,5.63
		c-1.79,3.7-2,6.35-2.52,7.12c-0.32,0.45-0.72,0.92-1.14,1.39c-0.41,0.46-0.83,0.9-1.27,1.28c-0.66,0.57-1.27,0.98-1.8,0.98
		c-0.17,0-0.34-0.04-0.49-0.14c-0.43-0.14-0.83-0.2-1.23-0.2c-1.25,0-2.34,0.65-3.38,1.63c-1.33,1.24-2.53,2.98-3.98,4.02
		c-0.11,0.05-0.22,0.08-0.34,0.08c-0.32,0-0.65-0.16-0.99-0.32c-0.34-0.16-0.68-0.32-1-0.32c-0.11,0-0.22,0.02-0.33,0.07
		c-1.07,0.88-2.23,2.26-2.99,4c-0.6,1.33-0.97,2.87-0.97,4.48c0,0.49,0.03,0.99,0.11,1.49c0.21,3.66,1.33,7.76,3.35,11.59
		c1.06,2.01,2.09,3.49,3.22,4.92c1.14,1.38,2.34,2.61,3.53,3.56c2.91,3.1,6.06,5.63,9.26,7.67c0.28,0.09,0.56,0.18,0.84,0.27
		c2.84,0.86,5.58,1.25,8.12,1.25c0.17,0,0.34,0,0.51-0.01c0.13,0,0.25,0,0.37,0c2.38,0,3.77-0.36,4.81-0.54
		c0.5-0.09,0.91-0.16,1.3-0.16c0.46,0,0.89,0.09,1.4,0.33c0.02,0.01,0.04,0.01,0.06,0.01c0.43,0,1.42-0.95,2.89-2.14
		c0.77-0.64,1.67-1.33,2.68-2.02c0.95-0.65,2.1-1.27,3-1.83c-0.03-0.03-0.15-0.16-0.35-0.39c-0.24-0.26-0.61-0.63-1.17-1.15
		c-0.04,0.02-0.07,0.04-0.11,0.06c-0.5,0.25-1.25,0.63-2.2,0.98c-1.84,0.71-4.5,1.41-7.62,1.41c-0.09,0-0.18,0-0.27,0
		c-3.21-0.03-6.92-0.9-10.09-2.99c-3.16-2.05-5.71-5.38-6.21-9.15c0,0-0.27-0.52-0.68-1.47c-0.41-0.93-0.91-2.29-1.38-3.94
		c-0.64-2.05-0.99-4.41-0.99-6.74l0,0c0-1.76,0.2-3.51,0.62-5.1c0.93-3.74,2.94-6.62,4.92-7.82c0.8-0.49,1.56-0.72,2.29-0.72
		c1.1,0,2.11,0.54,2.98,1.54c0,0,0.34,0.38,0.97,1c0.31,0.31,0.7,0.66,1.18,1.04c0.47,0.38,1.01,0.78,1.64,1.16
		c1.22,0.77,2.76,1.47,4.44,1.81c0.63,0.14,1.26,0.2,1.89,0.2c1.06,0,2.13-0.17,3.18-0.44c3.34-0.9,5.93-3.34,7.52-5.59
		c0.4-0.57,0.74-1.13,1.03-1.66c0.14-0.27,0.26-0.53,0.37-0.78c0.11-0.26,0.16-0.49,0.39-0.72c0.08-0.06,0.08-0.11,0.22-0.16
		l0.56-0.15l1.13-0.28c0.76-0.17,1.53-0.33,2.29-0.45c1.3-0.21,2.6-0.32,3.9-0.32c0.24,0,0.48,0,0.71,0.01
		c1.03,0.04,2.03,0.2,3.04,0.35c0,0,0.17,0.03,0.5,0.06c0.17,0.02,0.4,0.03,0.67,0.03c0.25,0,0.54-0.01,0.87-0.04
		c0.87-0.06,2.01-0.21,3.51-0.51l1.27-1.88l0.48-0.71l0.24-0.35l0.1-0.16l-0.03-0.06l-0.21-0.5c-0.27-0.67-0.51-1.36-0.71-2.06
		c-0.1-0.35-0.19-0.7-0.28-1.05c-0.08-0.34-0.16-0.74-0.23-0.98c-0.13-0.45-0.24-0.92-0.33-1.4c-0.52-0.49-1.14-1.09-1.82-1.69
		c-0.65-0.09-1.33-0.18-2.01-0.25c-0.48-0.07-0.96-0.09-1.41-0.2l0,0c-0.46-0.06-0.9-0.12-1.31-0.18l0,0l0,0
		c-1.15-0.15-2.04-0.32-2.39-0.57l0,0c0,0,0,0,0,0c-0.02,0-0.73-0.16-2.01-0.16l0,0c-0.8,0-1.81,0.06-3,0.25l0,0
		c-0.76,0.12-1.58,0.3-2.46,0.52c-0.03,0.01-0.06,0.01-0.09,0.02c-0.09,0.03-0.26,0.06-0.3,0.09c0,0,0,0,0,0l0,0l-0.04,0.11
		l-0.04,0.12l-0.01,0.03l-0.13,1.82l0,0c-0.03,0.37-0.05,0.75-0.08,1.12l0,0l0,0c-0.06,0.73-0.12,1.46-0.18,2.2
		c0,0.02,0,0.05-0.01,0.07c-0.03,0.38-0.07,0.76-0.1,1.15l-0.01,0.14l0,0.04c0,0.01,0,0.01,0,0.02c0,0.03-0.01,0.07-0.01,0.1
		c-0.01,0.07-0.01,0.13-0.02,0.2c0,0.03,0,0.06-0.01,0.08c0,0.03-0.01,0.06-0.01,0.1c0,0.01,0,0.02,0,0.03
		c0,0.04-0.01,0.09-0.01,0.13c-0.19,2.16-0.24,2.71-0.24,2.71l0,0l0,0l0,0l0.02-0.29v0v0l0-0.01l0-0.01c0,0.03-0.04,0.3-0.18,0.82
		c0.13-0.52,0.17-0.79,0.18-0.82l0,0c0,0.03-0.04,0.3-0.18,0.82c0.13-0.52,0.17-0.79,0.18-0.82l0,0c0,0.03-0.04,0.3-0.18,0.82
		c0.13-0.52,0.17-0.79,0.18-0.82l0.01-0.07c0.01-0.12,0.02-0.18,0.02-0.18c0,0,0,0,0,0l0,0l0,0l0,0l0,0l0,0l0,0l0,0l0,0l0,0l0,0
		c0,0,0,0,0,0l0,0c0,0,0,0,0,0l0,0c0,0.01-0.01,0.09-0.02,0.25c0,0,0,0,0,0l0,0l0,0l0,0l0,0l0,0l0,0l0,0l0,0l0,0l0,0.01
		c0.03-0.36,0.09-1.07,0.21-2.4c0-0.04,0.01-0.08,0.01-0.13c0-0.01,0-0.02,0-0.03c0-0.03,0.01-0.06,0.01-0.1
		c0-0.03,0-0.05,0.01-0.08c0.01-0.06,0.01-0.13,0.02-0.2c0-0.03,0.01-0.06,0.01-0.1c0-0.01,0-0.01,0-0.02l0-0.04l0.01-0.14
		c0.03-0.38,0.07-0.77,0.1-1.15c0-0.02,0-0.05,0.01-0.07c0.06-0.74,0.12-1.47,0.18-2.2l0,0l0,0c0.03-0.38,0.05-0.75,0.08-1.12l0,0
		l0.13-1.82l0.01-0.03l0.04-0.12l0.04-0.11l0,0c0,0,0,0,0,0c0.03-0.03,0.21-0.06,0.3-0.09c0.03-0.01,0.06-0.01,0.09-0.02
		c0.88-0.23,1.7-0.41,2.46-0.52l0,0c1.19-0.19,2.21-0.25,3-0.25l0,0c0,0,0,0,0,0c1.27,0,1.99,0.15,2.01,0.16c0,0,0,0,0,0l0,0
		c0.35,0.25,1.25,0.42,2.39,0.57l0,0l0,0c0.41,0.06,0.85,0.12,1.31,0.18l0,0c0.45,0.11,0.93,0.13,1.41,0.2
		c0.68,0.07,1.36,0.15,2.01,0.25c-0.06-0.05-0.12-0.11-0.18-0.16c-1.05-0.91-2.26-1.75-3.09-2.24c-0.49-0.3-0.81-0.52-0.81-0.63l0,0
		c0-0.05,0.08-0.08,0.24-0.08c0.04,0,0.08,0,0.12,0c-0.33-0.16-0.77-1.35-0.81-2.1l0,0l0,0l0,0l0,0c0.2-0.49,0.18-1.34,0.59-1.48
		c1.13-0.37,2.04-0.9,2.81-1.54c-1.16-1.23-2.49-2.38-3.8-3.43c0,0,0,0,0,0c-1.64-1-3.3-1.99-4.97-2.98
		c-0.56-0.32-0.77-0.51-0.77-0.58l0,0c0-0.02,0.02-0.03,0.06-0.03c0.11,0,0.35,0.09,0.65,0.24c1.34,0.64,3.17,1.87,5.03,3.36
		c1.32,0.8,2.64,1.61,3.94,2.44c0.12,0.08,0.25,0.16,0.37,0.24c0.07,0.04,0.13,0.08,0.2,0.12c0.1-0.1,0.2-0.2,0.29-0.3
		c1.01-1.04,1.88-2.26,3.06-3.09c-0.04-0.11-0.89-0.63-2.31-1.32c-1.46-0.65-3.54-1.45-5.95-1.9c-2.38-0.48-4.83-0.61-6.86-0.66
		c-2.04-0.05-3.71-0.05-4.89-0.27c-1.85-0.42-3.52-0.85-5.08-1.08C67.77,37.96,67.03,37.89,66.35,37.89"/>
	<path class="st493" d="M74.83,65.26L74.83,65.26L74.83,65.26L74.83,65.26L74.83,65.26 M74.86,64.97L74.86,64.97L74.86,64.97
		L74.86,64.97L74.86,64.97L74.86,64.97 M74.86,64.95c0,0.03-0.04,0.3-0.18,0.82C74.82,65.25,74.86,64.98,74.86,64.95L74.86,64.95
		 M74.86,64.95L74.86,64.95L74.86,64.95L74.86,64.95L74.86,64.95 M74.88,64.7L74.88,64.7L74.88,64.7L74.88,64.7
		C74.88,64.7,74.88,64.7,74.88,64.7L74.88,64.7L74.88,64.7L74.88,64.7L74.88,64.7C74.88,64.7,74.88,64.7,74.88,64.7L74.88,64.7
		L74.88,64.7L74.88,64.7L74.88,64.7c0,0.02-0.01,0.09-0.02,0.25l0,0C74.88,64.78,74.88,64.71,74.88,64.7L74.88,64.7
		C74.88,64.7,74.88,64.7,74.88,64.7L74.88,64.7C74.88,64.7,74.88,64.7,74.88,64.7L74.88,64.7 M75.07,62.55L75.07,62.55
		c-0.19,2.16-0.24,2.71-0.24,2.71l0,0l0,0l0,0C74.83,65.26,74.88,64.72,75.07,62.55 M75.25,60.5c0,0.02,0,0.05-0.01,0.07
		c-0.03,0.38-0.07,0.76-0.1,1.15l-0.01,0.14l0,0.04l0,0c0,0.01,0,0.01,0,0.02l0,0c0-0.01,0-0.01,0-0.02l0-0.04l0.01-0.14
		c0.03-0.38,0.07-0.77,0.1-1.15C75.25,60.55,75.25,60.53,75.25,60.5 M87.27,55.12L87.27,55.12c0.45,0.11,0.93,0.13,1.41,0.2
		c0.68,0.07,1.36,0.15,2.01,0.25l0,0l0,0c-0.65-0.09-1.33-0.18-2.01-0.25l0,0C88.2,55.25,87.72,55.22,87.27,55.12L87.27,55.12
		 M75.72,55.1L75.72,55.1l-0.04,0.11l-0.04,0.12l-0.01,0.03l-0.13,1.82l0,0l0,0l0.13-1.82l0.01-0.03l0.04-0.12L75.72,55.1
		L75.72,55.1 M76.1,54.99c-0.03,0.01-0.06,0.01-0.09,0.02l0,0c-0.09,0.03-0.26,0.06-0.3,0.09l0,0c0.03-0.03,0.21-0.06,0.3-0.09
		C76.05,55,76.07,54.99,76.1,54.99 M83.57,54.37C83.58,54.37,83.58,54.37,83.57,54.37L83.57,54.37L83.57,54.37
		C83.58,54.37,83.58,54.37,83.57,54.37 M81.56,54.21c-0.8,0-1.81,0.06-3,0.25l0,0l0,0C79.76,54.27,80.77,54.21,81.56,54.21
		L81.56,54.21L81.56,54.21"/>
	<path class="st586" d="M83.57,54.37C83.58,54.37,83.58,54.37,83.57,54.37L83.57,54.37L83.57,54.37
		C83.58,54.37,83.58,54.37,83.57,54.37 M81.56,54.21c-0.8,0-1.81,0.06-3,0.25l0,0l0,0C79.76,54.27,80.77,54.21,81.56,54.21
		L81.56,54.21L81.56,54.21"/>
	<path class="st465" d="M104.39,57.04c-0.01,0.05-0.01,0.09-0.02,0.14c0.56,0.21,1.12,0.44,1.67,0.68l0,0
		c0.19,0.09,0.38,0.17,0.58,0.26c0.27,0.12,0.55,0.24,0.82,0.36c-0.02-0.01-0.03-0.02-0.05-0.03c-0.5-0.26-1-0.51-1.51-0.74
		C105.38,57.47,104.89,57.25,104.39,57.04"/>
	<path class="st465" d="M104.37,57.18c-0.02,0.11-0.04,0.22-0.05,0.33c0.02,0.45,0.31,1.03,0.78,1.19c1.33,0.54,2.35,1.65,3.19,3.23
		l0.12-0.27l0.13-0.28c0.05-0.1,0.09-0.21,0.14-0.32c0.02-0.04,0.04-0.09,0.06-0.13c0.01-0.14,0.03-0.27,0.05-0.38
		c0.01-0.06,0.03-0.12,0.04-0.2c0-0.03,0-0.05,0-0.06l0-0.02l-0.02,0.04l0,0l0,0l0,0l0,0l0,0l0,0l0,0c0.09-0.31,0.19-0.62,0.3-0.93
		c0-0.01,0-0.01,0.01-0.01c-0.28-0.15-0.56-0.3-0.83-0.45c-0.28-0.15-0.57-0.29-0.85-0.44c-0.27-0.12-0.55-0.24-0.82-0.37
		c-0.19-0.09-0.38-0.17-0.58-0.26l0,0C105.49,57.62,104.93,57.39,104.37,57.18"/>
	<polyline class="st465" points="109.17,59.24 109.17,59.24 109.17,59.25 109.17,59.24 	"/>
	<path class="st465" d="M109.17,59.24c-0.01,0.01-0.01,0.03-0.02,0.05L109.17,59.24C109.17,59.24,109.17,59.24,109.17,59.24"/>
	<polyline class="st465" points="109.15,59.29 109.15,59.29 109.15,59.29 109.15,59.29 	"/>
	<path class="st465" d="M109.15,59.29c-0.01,0.02-0.02,0.04-0.02,0.07c0,0,0,0,0,0C109.13,59.34,109.14,59.32,109.15,59.29
		L109.15,59.29 M109.15,59.29L109.15,59.29L109.15,59.29"/>
	<path class="st465" d="M109.15,59.3c-0.01,0.02-0.02,0.04-0.03,0.07c0.02,0.01,0.04,0.02,0.06,0.03c0.14,0.08,0.14,0.08,0.16,0.09
		l0.04,0.01l0.01,0c0,0,0,0,0-0.01l-0.17-0.13L109.15,59.3"/>
	<path class="st465" d="M109.12,59.38c-0.12,0.3-0.22,0.61-0.3,0.92l0.02-0.04l0,0.02l0,0l0,0l0,0l0,0l0,0c0,0.01,0,0.03,0,0.06
		C108.91,60.04,109.04,59.6,109.12,59.38"/>
	<path class="st465" d="M109.43,59.47c0,0-0.01,0.01-0.02,0.04l0,0c-0.13,0.29-0.34,0.74-0.66,1.42c0,0,0,0,0,0
		C109.1,60.18,109.43,59.47,109.43,59.47"/>
	<path class="st465" d="M109.4,59.49C109.4,59.49,109.39,59.5,109.4,59.49L109.4,59.49l-0.4,0.87c-0.03,0.07-0.06,0.14-0.09,0.2
		l-0.15,0.32c0,0.01,0,0.03,0,0.04c0.31-0.68,0.52-1.13,0.66-1.42l0,0l-0.02,0.05l0,0l0,0l0,0l0,0l0,0v0c0,0,0.01-0.02,0.02-0.05
		l0,0L109.4,59.49L109.4,59.49"/>
	<path class="st465" d="M109.41,59.51c-0.02,0.03-0.02,0.05-0.02,0.05v0L109.41,59.51L109.41,59.51"/>
	<path class="st465" d="M109,60.36l-0.06,0.12l-0.04,0.08C108.94,60.5,108.97,60.43,109,60.36"/>
	<path class="st465" d="M109.21,60.79c-0.01,0-0.04,0.49-0.1,0.95c-0.06,0.48-0.16,0.98-0.3,1.28c0.05,0.12,0.11,0.25,0.16,0.38
		c0.05,0.13,0.1,0.26,0.15,0.39c0.02-0.2,0.04-0.42,0.06-0.64c0.04-0.54,0.05-1.09,0.05-1.53c0-0.32-0.01-0.59-0.01-0.77
		C109.22,60.81,109.22,60.79,109.21,60.79"/>
	<path class="st465" d="M108.74,60.93L108.74,60.93L108.74,60.93L108.74,60.93 M108.76,60.89l-0.02,0.05c0,0.01,0,0.02,0,0.03
		c0.01-0.01,0.01-0.03,0.02-0.04C108.76,60.91,108.76,60.9,108.76,60.89"/>
	<path class="st465" d="M108.76,60.93c-0.01,0.01-0.01,0.03-0.02,0.04c0,0,0,0,0,0C108.74,60.96,108.75,60.94,108.76,60.93
		C108.76,60.93,108.76,60.93,108.76,60.93"/>
	<path class="st465" d="M108.74,60.93c-0.02,0.04-0.04,0.09-0.06,0.13c-0.05,0.11-0.1,0.21-0.14,0.32L108.74,60.93
		C108.74,60.93,108.74,60.93,108.74,60.93"/>
	<path class="st465" d="M108.74,60.97c-0.01,0.03-0.03,0.06-0.04,0.09c-0.14,0.31-0.29,0.62-0.41,0.88c0.15,0.28,0.3,0.58,0.44,0.89
		c-0.02-0.31-0.02-0.63-0.02-0.94l0,0C108.71,61.56,108.72,61.24,108.74,60.97"/>
	<polyline class="st465" points="74.88,64.7 74.88,64.7 74.88,64.7 74.88,64.7 	"/>
	<polyline class="st465" points="74.88,64.7 74.88,64.7 74.88,64.7 	"/>
	<polyline class="st465" points="74.88,64.7 74.88,64.7 74.88,64.7 	"/>
	<path class="st465" d="M74.87,64.88l-0.01,0.07c0,0,0,0,0,0C74.86,64.92,74.87,64.9,74.87,64.88"/>
	<path class="st465" d="M74.86,64.95C74.86,64.95,74.86,64.95,74.86,64.95c0,0.01,0,0.01,0,0.01L74.86,64.95
		C74.86,64.96,74.86,64.95,74.86,64.95L74.86,64.95"/>
	<path class="st465" d="M74.86,64.95C74.86,64.95,74.86,64.95,74.86,64.95l0,0.01l0,0C74.86,64.96,74.86,64.95,74.86,64.95"/>
	<path class="st465" d="M74.86,64.96L74.86,64.96c0,0.01,0,0.02,0,0.02l0,0v0l-0.02,0.29l0,0l0,0l0,0
		C74.83,65.26,74.84,65.18,74.86,64.96"/>
	<path class="st465" d="M74.86,64.96L74.86,64.96l0,0.01v0l0,0C74.86,64.97,74.86,64.97,74.86,64.96"/>
	<polyline class="st465" points="74.86,64.96 74.86,64.97 74.86,64.97 74.86,64.98 74.86,64.96 	"/>
	<path class="st465" d="M85.16,75.87c0.69,0.15,1.53,0.35,2.42,0.61c0.67,0.19,1.38,0.41,2.09,0.65l-1.38-0.76l-0.16-0.09
		C87.2,76.06,86.21,75.91,85.16,75.87"/>
	<path class="st465" d="M71.93,82.25c-1.2,1.33-2.66,2.79-4.55,4.31c0,0-0.2,0.3-0.51,0.84C68.82,85.82,70.54,84.01,71.93,82.25"/>
	<path class="st465" d="M108.87,87.01c-0.01,0.04-0.03,0.08-0.04,0.12c0.01,0.01,0.01,0.02,0.02,0.04c0.61,1.28,0.84,2.59,0.88,3.85
		C109.71,89.71,109.47,88.35,108.87,87.01"/>
	<path class="st465" d="M85,93.1c-0.47,0-0.94,0.02-1.41,0.07c-2.07,0.21-4.09,0.98-5.86,2.36c-0.5,0.39-0.98,0.83-1.44,1.3
		c0.43-0.28,0.88-0.55,1.34-0.81c2.98-1.66,6.21-2.38,9.79-2.75C86.61,93.17,85.8,93.1,85,93.1"/>
	<path class="st465" d="M68.54,103.52c-0.28,0.04-0.56,0.08-0.86,0.12c0.64,0.43,1.36,0.83,2.18,1.17
		C69.45,104.43,69.01,104,68.54,103.52"/>
	<path class="st465" d="M72.82,106.94c-0.12,0.11-0.23,0.23-0.35,0.37c0.04-0.03,0.08-0.05,0.12-0.08
		C72.67,107.13,72.74,107.03,72.82,106.94"/>
	<path class="st467" d="M80.07,40.31c-0.04,0-0.06,0.01-0.06,0.03c0,0.07,0.22,0.26,0.77,0.58c1.67,1,3.33,1.99,4.97,2.98
		c-1.86-1.49-3.69-2.72-5.03-3.36C80.43,40.39,80.18,40.31,80.07,40.31"/>
	<path class="st466" d="M85.94,44.03c1.26,1,2.54,2.1,3.65,3.28c0.23-0.19,0.46-0.4,0.67-0.61c-0.07-0.04-0.13-0.08-0.2-0.13
		c-0.12-0.08-0.24-0.15-0.36-0.22C88.46,45.57,87.2,44.8,85.94,44.03"/>
	<path class="st467" d="M85.76,43.91C85.76,43.91,85.76,43.91,85.76,43.91c1.31,1.05,2.65,2.2,3.8,3.43
		c0.01-0.01,0.02-0.02,0.03-0.02c-1.11-1.18-2.39-2.28-3.65-3.28l0,0l0,0l0,0l0,0c1.26,0.77,2.52,1.54,3.76,2.32
		c0.12,0.07,0.24,0.15,0.36,0.22c-0.12-0.08-0.25-0.16-0.37-0.24C88.39,45.52,87.08,44.71,85.76,43.91"/>
	<path class="st467" d="M92.5,57.25c0.1,0.47,0.21,0.94,0.33,1.4c0.08,0.25,0.15,0.64,0.23,0.98c0.09,0.35,0.18,0.7,0.28,1.05
		c0.2,0.7,0.44,1.39,0.71,2.06l0.21,0.5l0.03,0.06l-0.1,0.16l-0.24,0.35l-0.48,0.71l-1.27,1.88c0.93-0.19,1.99-0.43,3.2-0.73
		c0,0,0.39,0.04,1.05,0.17c0.71-1.26,1.41-2.49,2.09-3.7c-0.05-0.11-0.11-0.22-0.16-0.32c-0.5-0.31-0.99-0.58-1.49-0.87
		c-1.36-0.8-2.53-1.58-2.93-3.14c0.01,0.09,0.02,0.17,0.02,0.23l0,0c0,0.17-0.05,0.24-0.15,0.24C93.62,58.27,93.14,57.85,92.5,57.25
		"/>
	<path class="st466" d="M109.72,91.02c0,0.04,0,0.08,0,0.11l0,0l0,0l0,0l0,0c-0.02,1.14-0.28,2.88-0.68,4.38
		c-0.4,1.52-0.97,2.8-1.7,3.37c-0.48,0.56-1.01,1.21-1.73,1.9c-0.72,0.68-1.68,1.41-2.95,1.97c-1.28,0.56-2.83,0.92-4.57,1.17
		c-1.5,0.18-3.17,0.33-5.05,0.33c-0.3,0-0.61,0-0.93-0.01c-0.6-0.03-1.31-0.05-2.19-0.2c-0.89-0.14-1.8-0.31-2.77-0.5
		c-0.88-0.18-1.81-0.36-2.77-0.56c-0.26-0.06-0.39-0.05-0.56-0.06l-0.49-0.02l-0.97-0.02c-0.11,0-0.22,0-0.33,0
		c-2.44,0-4.7,0.63-5.86,1.79c-0.13,0.16-0.25,0.3-0.38,0.42c-1.05,1.07-2.07,0.82-2.97,1.84c0.99-0.91,1.9-0.7,2.97-1.81
		c0.1-0.1,0.2-0.22,0.3-0.34c1.15-1.18,3.42-1.83,5.87-1.83c0.1,0,0.2,0,0.3,0c0.66,0.01,1.26,0.01,1.98,0.08
		c0.46,0.09,0.91,0.18,1.35,0.26c0.48,0.1,0.96,0.2,1.41,0.29c1.89,0.39,3.81,0.72,4.96,0.72c0.38,0.01,0.75,0.02,1.11,0.02
		c1.82,0,3.43-0.14,4.89-0.3c1.74-0.23,3.29-0.58,4.59-1.12c1.3-0.54,2.27-1.25,3-1.93c0.74-0.68,1.28-1.32,1.77-1.88
		c0.74-0.56,1.31-1.85,1.72-3.36c0.41-1.5,0.67-3.23,0.7-4.37c0-0.01,0-0.02,0-0.03C109.73,91.24,109.73,91.13,109.72,91.02"/>
	<path class="st466" d="M72.47,107.31c-0.01,0.01-0.02,0.01-0.03,0.02c0.01,0.01,0.01,0.01,0.01,0.01
		C72.45,107.33,72.46,107.32,72.47,107.31"/>
	<path class="st467" d="M88.12,76.28l0.16,0.09l1.38,0.76c1.14,0.38,2.29,0.81,3.34,1.21c-0.09-0.06-0.18-0.11-0.27-0.17
		C91.53,77.46,89.97,76.72,88.12,76.28"/>
	<path class="st467" d="M108.83,87.13c-0.14,0.46-0.34,1.1-0.63,1.94c-0.37,0.94-0.75,2.12-1.53,3.49
		c-0.75,1.33-2.08,2.76-4.05,3.15c-0.65,0.14-1.33,0.2-2.02,0.2c-1.36,0-2.76-0.23-4.16-0.5c-2.12-0.43-4.26-1.09-6.46-1.63
		c-0.86-0.2-1.7-0.38-2.54-0.49c-3.58,0.37-6.81,1.09-9.79,2.75c-0.46,0.26-0.9,0.53-1.34,0.81c-0.52,0.55-1.01,1.14-1.47,1.77
		c-0.42,0.59-0.81,1.22-1.17,1.88c-0.18,0.33-0.35,0.67-0.51,1.01l-0.23,0.52c-0.08,0.18-0.28,0.35-0.41,0.52c0,0,0.01,0,0.01,0l0,0
		c0,0.05-1.59,0.61-3.99,0.97c0.47,0.48,0.91,0.91,1.32,1.29c0.53,0.23,1.1,0.43,1.7,0.61l0,0l0,0l0,0l0,0c0,0-0.21,0.15-0.64,0.37
		c0.56,0.52,0.93,0.89,1.17,1.15c0.2,0.23,0.32,0.35,0.35,0.39c0.01-0.01,0.02-0.01,0.03-0.02c0.12-0.14,0.24-0.27,0.35-0.37
		c0.9-1.02,1.92-0.77,2.97-1.84c0.13-0.12,0.25-0.26,0.38-0.42c1.16-1.17,3.41-1.79,5.86-1.79c0.11,0,0.22,0,0.33,0l0.97,0.02
		l0.49,0.02c0.17,0.01,0.3,0,0.56,0.06c0.96,0.19,1.9,0.38,2.77,0.56c0.98,0.2,1.88,0.37,2.77,0.5c0.88,0.15,1.58,0.17,2.19,0.2
		c0.32,0.01,0.63,0.01,0.93,0.01c1.89,0,3.55-0.15,5.05-0.33c1.74-0.25,3.29-0.61,4.57-1.17c1.28-0.56,2.23-1.29,2.95-1.97
		c0.73-0.69,1.26-1.33,1.73-1.9c0.73-0.57,1.3-1.86,1.7-3.37c0.4-1.5,0.65-3.24,0.68-4.38c0-0.04,0-0.08,0-0.11
		c-0.03-1.26-0.26-2.57-0.88-3.85C108.84,87.16,108.84,87.15,108.83,87.13"/>
	<path class="st468" d="M98.39,61.82c0.05,0.11,0.1,0.22,0.16,0.32l0,0l0,0l0,0l0,0c-0.69,1.21-1.38,2.45-2.09,3.7
		c0.36,0.07,0.8,0.16,1.31,0.28c0.72,0.17,1.57,0.41,2.5,0.72c0.45,0.15,0.92,0.32,1.4,0.5c-0.09-1.19-0.35-2.27-0.88-3.13
		c-0.48-0.86-1.13-1.5-1.81-2.01C98.77,62.07,98.58,61.94,98.39,61.82"/>
	<path class="st468" d="M84.64,75.86c-0.37,0-0.76,0.01-1.15,0.04c0.22,0.72,0.47,1.45,0.86,1.99c0.79,0.88,1.96,1.24,3.2,1.34
		c0.23,0.02,0.46,0.02,0.69,0.02c1.04,0,2.1-0.13,3.18-0.19c0.56,0.09,1.1,0.25,1.66,0.41c0.57,0.18,1.17,0.41,1.91,0.61
		c0.16,0.06,0.33,0.1,0.49,0.12c-0.54-0.49-1.38-1.17-2.49-1.87c-1.05-0.4-2.2-0.83-3.34-1.21c-0.71-0.24-1.41-0.46-2.09-0.65
		c-0.89-0.26-1.72-0.46-2.42-0.61C84.99,75.86,84.81,75.86,84.64,75.86"/>
	<path class="st468" d="M77.94,77.42c-0.07,0.03-0.13,0.06-0.2,0.09c-0.66,0.31-1.33,0.67-1.98,1.06c-0.33,0.2-0.66,0.4-0.98,0.62
		l-0.49,0.33c-0.13,0.11-0.22,0.23-0.33,0.34c-0.59,0.73-1.25,1.53-2.02,2.38c-1.39,1.76-3.11,3.57-5.07,5.14
		c-0.19,0.32-0.42,0.72-0.68,1.18c-0.68,1.24-1.57,2.94-2.12,4.88c-0.26,0.94-0.44,1.95-0.44,3c0,1.1,0.2,2.23,0.71,3.36
		c0.6,1.34,1.67,2.71,3.35,3.83c2.87-0.34,4.85-1.04,4.85-1.09c0,0,0,0-0.01,0l0,0l0,0l0,0l0,0c0.13-0.18,0.33-0.35,0.41-0.52
		l0.23-0.52c0.16-0.34,0.33-0.68,0.51-1.01c0.36-0.66,0.74-1.28,1.17-1.88c0.45-0.63,0.94-1.23,1.47-1.77
		c0.45-0.47,0.93-0.91,1.44-1.3c1.77-1.38,3.79-2.15,5.86-2.36c0.47-0.05,0.94-0.07,1.41-0.07c1.62,0,3.26,0.27,4.96,0.68
		c2.2,0.53,4.35,1.2,6.46,1.63c1.39,0.28,2.8,0.5,4.16,0.5c0.69,0,1.37-0.06,2.02-0.2c1.98-0.39,3.3-1.82,4.05-3.15
		c0.79-1.37,1.17-2.54,1.53-3.49c0.34-0.94,0.54-1.65,0.69-2.11c0.12-0.45,0.19-0.69,0.19-0.69c0.01,0.04,0.02,0.07,0.04,0.07
		c0.12,0,0.46-1.17,0.49-2.85c0-0.07,0-0.15,0-0.23c0-0.68-0.07-1.44-0.26-2.22c-0.41,0.82-0.92,1.59-1.52,2.27
		c-1.69,1.93-3.49,3.19-5.13,4.06c-1.64,0.86-3.15,1.35-4.53,1.65c-1.33,0.26-2.6,0.38-3.83,0.38c-1.25,0-2.46-0.13-3.63-0.35
		c-4.6-0.9-8.24-3.4-10.6-6.42C78.93,81.03,78.28,79.23,77.94,77.42"/>
	<path class="st469" d="M95.4,65.68c-3.18,0.8-5.3,1.15-6.7,1.24c-0.33,0.03-0.63,0.04-0.87,0.04c-0.27,0-0.49-0.01-0.67-0.03
		c-0.33-0.03-0.5-0.06-0.5-0.06c-1-0.15-2.01-0.31-3.04-0.35c-0.24-0.01-0.48-0.01-0.71-0.01c-1.29,0-2.6,0.11-3.9,0.32
		c-0.77,0.12-1.53,0.27-2.29,0.45l-1.13,0.28l-0.56,0.15c-0.14,0.05-0.14,0.11-0.22,0.16c-0.23,0.22-0.28,0.46-0.39,0.72
		c-0.11,0.25-0.23,0.51-0.37,0.78c-0.28,0.53-0.62,1.1-1.03,1.66c-1.59,2.25-4.18,4.69-7.52,5.59c-1.05,0.27-2.12,0.44-3.18,0.44
		c-0.63,0-1.27-0.06-1.89-0.2c-1.68-0.33-3.22-1.04-4.44-1.81c-0.63-0.38-1.17-0.78-1.64-1.16c-0.48-0.38-0.87-0.74-1.18-1.04
		c-0.63-0.61-0.97-1-0.97-1c-0.88-1-1.88-1.54-2.98-1.54c-0.72,0-1.49,0.23-2.29,0.72c-1.98,1.2-3.99,4.08-4.92,7.82
		c-0.42,1.59-0.62,3.34-0.62,5.1c0,2.33,0.35,4.69,0.99,6.74c0.46,1.66,0.96,3.01,1.38,3.94c0.4,0.95,0.68,1.47,0.68,1.47
		c0.5,3.78,3.04,7.1,6.21,9.15c3.17,2.09,6.88,2.96,10.09,2.99c0.09,0,0.18,0,0.27,0c3.11,0,5.78-0.7,7.62-1.41
		c0.95-0.35,1.7-0.73,2.2-0.98c0.52-0.26,0.76-0.43,0.76-0.43c-0.61-0.18-1.18-0.39-1.7-0.61c-2.97-1.26-4.7-3.15-5.53-5.01
		c-0.51-1.13-0.71-2.26-0.71-3.36l0,0c0-1.05,0.18-2.06,0.44-3c0.55-1.94,1.44-3.63,2.12-4.88c0.26-0.46,0.49-0.86,0.68-1.18
		c0.32-0.53,0.51-0.84,0.51-0.84c1.89-1.52,3.35-2.98,4.55-4.31c0.77-0.85,1.43-1.65,2.02-2.38c0.11-0.12,0.2-0.23,0.33-0.34
		l0.49-0.33c0.33-0.21,0.65-0.42,0.98-0.62c0.66-0.39,1.32-0.75,1.98-1.06c0.07-0.03,0.13-0.06,0.2-0.09
		c-0.23-1.2-0.32-2.39-0.33-3.53l0,0l0,0l0,0l0,0c0.14-0.68,0.18-1.52,0.74-1.96c0.07-0.09,0.15-0.13,0.22-0.13
		c0.27,0,0.54,0.5,0.89,0.6l0,0c0.11-0.07,0.21-0.1,0.32-0.1c0.26,0,0.52,0.19,0.8,0.37c0.28,0.19,0.58,0.37,0.92,0.37
		c0,0,0,0,0.01,0c1.03,0.06,1.37,0.77,1.68,1.8c0.1,0.33,0.21,0.7,0.31,1.06c0.39-0.03,0.77-0.04,1.15-0.04c0.17,0,0.35,0,0.51,0.01
		c1.05,0.04,2.04,0.19,2.96,0.41c1.85,0.44,3.41,1.18,4.61,1.89c0.09,0.06,0.18,0.11,0.27,0.17c1.11,0.7,1.95,1.38,2.49,1.87
		c0.11,0.01,0.22,0.02,0.33,0.02c0.82,0,1.66-0.41,2.45-1.12c1.05-0.94,1.98-2.49,2.46-4.13c0.21-1.03,0.43-2,0.61-2.98
		c0.16-0.97,0.28-1.93,0.33-2.88c0.01-0.23,0.01-0.46,0.01-0.69c0-0.36-0.01-0.72-0.04-1.07c-0.48-0.18-0.95-0.35-1.4-0.5
		c-0.93-0.31-1.77-0.55-2.5-0.72c-0.51-0.12-0.95-0.22-1.31-0.28C95.79,65.72,95.4,65.68,95.4,65.68"/>
	<path class="st470" d="M74.94,33.05c-0.27,0-0.54,0-0.8,0.01c-1.59,0.03-2.99,0.12-4.17,0.21c-2.37,0.2-3.89,0.4-4.69,0.55
		c-1.09,0.15-1.98,0.41-2.61,0.64c-0.69,0.26-1.34,0.59-1.98,0.94c-1.28,0.7-2.52,1.45-3.96,1.76c0,0,0,0,0,0
		c-0.03,0-0.06-0.11-0.06-0.3l0,0c0-0.1,0.01-0.22,0.02-0.35c-0.3,0.15-0.61,0.3-0.9,0.46c-0.09,0.3-0.65,1-0.74,1.3
		c-0.29,0.08-0.55,0.11-0.84,0.11c-0.46,0-0.98-0.07-1.77-0.14c-0.63-0.17-1.34-0.27-2.15-0.27c-0.56,0-1.17,0.05-1.84,0.15
		c-1.65,0.27-3.62,0.86-5.95,2.04c-1.16,0.59-2.38,1.29-3.68,2.24c-1.28,0.95-2.61,1.98-3.78,3.11c-1.19,1.13-2.37,2.36-3.4,3.63
		c-0.52,0.64-1.04,1.3-1.54,1.97c-0.48,0.66-0.92,1.33-1.37,2.02c-3.54,5.51-5.57,11.4-6.66,16.88c-1.02,5.09-1.3,9.95-1.3,14.48
		c0,0.36,0,0.72,0.01,1.08c0.17,2.08,0.51,4.73,1.36,7.57c0.41,1.42,0.99,2.9,1.65,4.34c0.7,1.45,1.56,2.93,2.49,4.21
		c0.68,0.86,1.39,1.77,2.13,2.71c0.74,0.91,1.52,1.82,2.3,2.69c1.57,1.7,3.21,3.21,4.68,4.1c5.74,3.09,11.42,3.66,16.16,3.86
		c-1.7-0.83-3.41-1.78-5.1-2.86c-3.2-2.04-6.35-4.57-9.26-7.67c-1.19-0.95-2.39-2.18-3.53-3.56c-1.13-1.43-2.16-2.91-3.22-4.92
		c-2.02-3.83-3.13-7.94-3.35-11.59c-0.07-0.5-0.11-1-0.11-1.49l0,0c0-1.61,0.37-3.15,0.97-4.48c0.75-1.73,1.91-3.11,2.99-4
		c0.1-0.05,0.21-0.07,0.33-0.07c0.32,0,0.66,0.16,1,0.32c0.34,0.16,0.68,0.32,0.99,0.32c0.12,0,0.23-0.02,0.34-0.08
		c1.45-1.04,2.65-2.78,3.98-4.02c1.04-0.97,2.13-1.63,3.38-1.63c0.39,0,0.8,0.06,1.23,0.2c0.15,0.1,0.32,0.14,0.49,0.14
		c0.53,0,1.14-0.41,1.8-0.98c0.43-0.38,0.86-0.82,1.27-1.28c0.43-0.46,0.82-0.94,1.14-1.39c0.52-0.78,0.74-3.43,2.52-7.12
		c0.83-1.82,2.33-3.94,3.77-5.63c1.46-1.72,2.91-3.16,3.99-4.36c1.11-1.21,1.68-2.15,2.41-3.14c0.7-0.97,1.35-1.88,1.93-2.68
		c1.16-1.59,2.03-2.71,2.32-2.86c0.46-0.4,0.2-1.7,0.65-2.1c0.54-0.15,1.18-0.22,1.87-0.22c0.68,0,1.42,0.07,2.19,0.18
		c1.55,0.23,3.23,0.67,5.08,1.08c1.18,0.22,2.84,0.22,4.89,0.27c2.03,0.05,4.48,0.18,6.86,0.66c2.41,0.46,4.49,1.25,5.95,1.9
		c1.42,0.69,2.27,1.21,2.31,1.32l0,0l0,0l0,0l0,0c-1.18,0.83-2.06,2.05-3.06,3.09c-0.1,0.1-0.19,0.2-0.29,0.3
		c-0.21,0.21-0.44,0.41-0.67,0.61c-0.01,0.01-0.02,0.02-0.03,0.02c-0.78,0.64-1.68,1.17-2.81,1.54c-0.41,0.14-0.39,0.99-0.59,1.48
		c0.04,0.74,0.48,1.94,0.81,2.1l0,0l0,0l0,0l0,0c-0.05,0-0.09,0-0.12,0c-0.17,0-0.24,0.03-0.24,0.08c0,0.11,0.32,0.33,0.81,0.63
		c0.83,0.49,2.04,1.33,3.09,2.24c0.06,0.05,0.12,0.11,0.18,0.16c0.27,0.04,0.53,0.08,0.78,0.12c0.87,0.12,1.63,0.26,2.17,0.35
		c0.55,0.09,0.88,0.15,0.88,0.15c0.65-0.4,1.56-0.59,2.66-0.6c0.03,0,0.06,0,0.08,0l0,0c0.83,0,1.77,0.1,2.77,0.3
		c-0.01-0.1-0.02-0.19-0.02-0.3l0,0c0-0.13,0.01-0.26,0.03-0.4c0.26-1.25,0.43-2.55,0.43-3.9c0-0.83-0.06-1.68-0.21-2.56
		c-0.4-2.32-1.34-4.88-3.47-7.52c-0.44-0.53-1.13-1.24-2.07-2.04c-0.49-0.4-1.05-0.82-1.66-1.25c-0.63-0.43-1.35-0.85-2.12-1.28
		c-1.55-0.83-3.42-1.62-5.43-2.2c-2.01-0.58-4.05-0.95-6.01-1.16C77.85,33.11,76.34,33.05,74.94,33.05"/>
	<path class="st470" d="M90.69,55.56c0.68,0.6,1.3,1.2,1.82,1.69c0.64,0.6,1.12,1.02,1.34,1.02c0.1,0,0.15-0.07,0.15-0.24
		c0-0.06-0.01-0.14-0.02-0.23l0,0l0,0l0,0l0,0c0.4,1.56,1.57,2.34,2.93,3.14c0.49,0.29,0.99,0.56,1.49,0.87
		c0.19,0.12,0.38,0.25,0.57,0.39c0.69,0.51,1.34,1.14,1.81,2.01c0.52,0.86,0.79,1.94,0.88,3.13c0.03,0.35,0.04,0.71,0.04,1.07l0,0
		c0,0.23-0.01,0.46-0.01,0.69c-0.05,0.95-0.17,1.91-0.33,2.88c-0.18,0.99-0.4,1.95-0.61,2.98c-0.48,1.64-1.41,3.19-2.46,4.13
		c-0.79,0.72-1.63,1.12-2.45,1.12c-0.11,0-0.22-0.01-0.33-0.02c-0.17-0.02-0.33-0.06-0.49-0.12c-0.74-0.2-1.35-0.43-1.91-0.61
		c-0.56-0.16-1.1-0.32-1.66-0.41c-1.07,0.06-2.14,0.19-3.18,0.19c-0.23,0-0.46-0.01-0.69-0.02c-1.24-0.09-2.41-0.46-3.2-1.34
		c-0.59-0.82-0.87-2.07-1.18-3.06c-0.31-1.02-0.65-1.73-1.68-1.8c0,0,0,0-0.01,0c-0.34,0-0.64-0.19-0.92-0.37
		c-0.28-0.19-0.54-0.37-0.8-0.37c-0.1,0-0.21,0.03-0.32,0.1c0.13,0.58-0.04,1.46,0.3,2.26c0.5,1.68,2.07,2.56,2.96,4.14
		c1.11,1.5,2.13,3.19,4.09,4.28c1.27,0.58,2.51,0.87,3.93,0.87c0.06,0,0.13,0,0.2,0c0.4,0.04,0.81,0.05,1.21,0.05
		c0.98,0,1.97-0.1,2.96-0.26c1.43-0.26,2.96-0.74,4.58-1.68c1.6-0.93,3.37-2.45,4.63-4.68c1.1-1.9,1.62-4.17,1.62-6.16
		c0-0.26-0.01-0.52-0.03-0.78c-1.02-1.69-1.55-3.29-1.98-4.8c-0.43-1.5-0.77-2.88-1.29-3.86c-0.27-0.62-0.24-1.36-0.42-2.14
		c-0.62-1.31-2.02-2.27-2.18-3.75c-1-0.2-1.93-0.3-2.77-0.3l0,0c-0.03,0-0.06,0-0.08,0c-1.1,0.01-2.02,0.2-2.66,0.6
		c0,0-0.33-0.06-0.88-0.15c-0.54-0.09-1.3-0.23-2.17-0.35C91.22,55.64,90.95,55.6,90.69,55.56"/>
	<path class="st471" d="M81.57,54.21C81.57,54.21,81.56,54.21,81.57,54.21c1.27,0,1.99,0.15,2.01,0.16
		C83.56,54.36,82.84,54.21,81.57,54.21"/>
	<path class="st494" d="M83.57,54.37C83.58,54.37,83.58,54.37,83.57,54.37L83.57,54.37L83.57,54.37
		C83.58,54.37,83.58,54.37,83.57,54.37 M81.56,54.21c-0.8,0-1.81,0.06-3,0.25l0,0l0,0C79.76,54.27,80.77,54.21,81.56,54.21
		L81.56,54.21L81.56,54.21"/>
	<path class="st471" d="M83.58,54.37c0.35,0.25,1.25,0.42,2.39,0.57C84.82,54.79,83.92,54.62,83.58,54.37"/>
	<path class="st471" d="M78.56,54.46c-0.76,0.12-1.58,0.3-2.46,0.52C76.98,54.76,77.81,54.58,78.56,54.46"/>
	<path class="st471" d="M85.97,54.94c0.41,0.06,0.85,0.12,1.31,0.18C86.82,55.06,86.38,55,85.97,54.94"/>
	<path class="st471" d="M76.02,55.01c-0.09,0.03-0.26,0.06-0.3,0.09C75.76,55.07,75.93,55.04,76.02,55.01"/>
	<path class="st471" d="M91.47,55.68c0.87,0.12,1.62,0.26,2.17,0.35C93.09,55.94,92.34,55.8,91.47,55.68 M97.18,55.59
		c-1.1,0.01-2.02,0.2-2.66,0.6C95.16,55.79,96.08,55.6,97.18,55.59 M88.68,55.31c0.68,0.07,1.36,0.15,2.01,0.25
		c0.27,0.04,0.53,0.08,0.78,0.12c-0.25-0.04-0.51-0.08-0.78-0.12C90.04,55.47,89.36,55.38,88.68,55.31"/>
	<path class="st471" d="M97.26,55.59c-0.03,0-0.06,0-0.08,0C97.21,55.59,97.24,55.59,97.26,55.59"/>
	<path class="st471" d="M104.37,57.18C104.37,57.18,104.37,57.18,104.37,57.18c0.56,0.21,1.12,0.44,1.67,0.68
		C105.49,57.62,104.93,57.39,104.37,57.18"/>
	<path class="st471" d="M75.51,57.18c-0.03,0.37-0.05,0.75-0.08,1.12C75.46,57.93,75.48,57.55,75.51,57.18"/>
	<path class="st471" d="M106.04,57.86c0.19,0.09,0.38,0.17,0.58,0.26C106.43,58.03,106.24,57.94,106.04,57.86"/>
	<path class="st471" d="M106.62,58.11c0.27,0.12,0.55,0.24,0.82,0.37c0.16,0.07,0.33,0.15,0.49,0.22
		C107.49,58.5,107.06,58.31,106.62,58.11"/>
	<path class="st471" d="M75.43,58.3c-0.06,0.73-0.12,1.46-0.18,2.2C75.31,59.77,75.37,59.03,75.43,58.3"/>
	<path class="st471" d="M107.93,58.7c0.28,0.1,0.55,0.21,0.81,0.32C108.48,58.9,108.21,58.8,107.93,58.7"/>
	<path class="st471" d="M109.18,59.21c0,0.01-0.01,0.02-0.01,0.03c0,0,0,0,0,0c-0.01,0.02-0.01,0.03-0.02,0.05
		c-0.01,0.02-0.02,0.04-0.03,0.07c0,0,0,0.01-0.01,0.01c-0.12,0.3-0.22,0.61-0.3,0.93l0,0c0.09-0.31,0.19-0.62,0.3-0.92
		c0-0.01,0-0.01,0.01-0.02c0.01-0.04,0.03-0.08,0.05-0.12c0,0,0,0,0,0C109.17,59.23,109.18,59.22,109.18,59.21"/>
	<path class="st471" d="M109.51,59.3c-0.05,0.1-0.08,0.16-0.09,0.2c-0.02,0.03-0.02,0.05-0.02,0.05
		C109.39,59.55,109.42,59.49,109.51,59.3"/>
	<path class="st471" d="M108.72,61.43c-0.01,0.15-0.01,0.29-0.01,0.43c0,0,0,0.01,0,0.01l0,0
		C108.71,61.73,108.71,61.58,108.72,61.43"/>
	<path class="st471" d="M109.24,61.85c0,0.01,0,0.22-0.01,0.58C109.23,62.07,109.24,61.86,109.24,61.85"/>
	<path class="st464" d="M108.71,61.87L108.71,61.87L108.71,61.87c0,0.47,0.03,0.83,0.04,0.86c0,0,0,0,0,0l0,0
		C108.74,62.73,108.71,62.36,108.71,61.87"/>
	<path class="st471" d="M108.71,61.87c0,0.47,0.03,0.83,0.04,0.86C108.74,62.7,108.71,62.34,108.71,61.87"/>
	<path class="st471" d="M75.09,62.4c0,0.01,0,0.02,0,0.03C75.08,62.42,75.08,62.41,75.09,62.4"/>
	<path class="st471" d="M75.08,62.43c0,0.04-0.01,0.09-0.01,0.13C75.08,62.51,75.08,62.47,75.08,62.43"/>
	<path class="st471" d="M109.23,62.43c-0.01,0.31-0.02,0.73-0.06,1.12C109.2,63.16,109.22,62.75,109.23,62.43"/>
	<path class="st471" d="M74.86,64.95L74.86,64.95L74.86,64.95L74.86,64.95L74.86,64.95 M74.86,64.95
		C74.86,64.95,74.86,64.95,74.86,64.95c0,0,0,0.01,0,0.01l0,0l0,0c0,0,0,0.01,0,0.01c0,0,0-0.01,0-0.01l0,0l0,0
		C74.86,64.96,74.86,64.95,74.86,64.95 M74.86,64.95C74.86,64.95,74.86,64.95,74.86,64.95L74.86,64.95
		C74.86,64.95,74.86,64.95,74.86,64.95L74.86,64.95 M75.07,62.55c-0.12,1.32-0.18,2.04-0.21,2.4l0,0l0,0c0,0,0,0,0,0l0,0l0,0
		c-0.02,0.22-0.03,0.3-0.03,0.3l0,0C74.83,65.26,74.88,64.72,75.07,62.55"/>
	<path class="st471" d="M109.17,63.56c0,0.01,0,0.02,0,0.03C109.16,63.58,109.16,63.57,109.17,63.56"/>
	<path class="st471" d="M109.15,63.69c0,0.04-0.01,0.08-0.02,0.12l0,0C109.14,63.77,109.15,63.73,109.15,63.69 M109.16,63.59
		c0,0.03-0.01,0.07-0.01,0.1C109.16,63.66,109.16,63.62,109.16,63.59"/>
	<path class="st471" d="M74.88,64.7c0,0,0,0.05-0.02,0.18l0,0l0,0c0,0.02,0,0.05-0.01,0.07c0,0,0,0,0,0
		C74.88,64.78,74.88,64.71,74.88,64.7L74.88,64.7L74.88,64.7C74.88,64.7,74.88,64.7,74.88,64.7L74.88,64.7L74.88,64.7
		C74.88,64.7,74.88,64.7,74.88,64.7L74.88,64.7L74.88,64.7C74.88,64.7,74.88,64.7,74.88,64.7L74.88,64.7L74.88,64.7
		C74.88,64.7,74.88,64.7,74.88,64.7L74.88,64.7L74.88,64.7C74.88,64.7,74.88,64.7,74.88,64.7"/>
	<path class="st472" d="M76,29.11c-1.03,0-2,0.03-2.91,0.08c-0.79,0.04-1.59,0.11-2.26,0.17c-0.67,0.07-1.31,0.14-1.92,0.2
		c-2.34,0.28-3.75,0.5-4.48,0.63c-1.41,0.36-2.39,0.7-3.05,0.96c-0.69,0.28-1.28,0.6-1.79,0.95c-1.01,0.7-1.69,1.5-2.13,2.25
		c-0.49,0.84-0.7,1.62-0.76,2.15c-0.02,0.14-0.02,0.25-0.02,0.35c0,0.19,0.03,0.3,0.06,0.3c0,0,0,0,0,0
		c1.44-0.31,2.68-1.06,3.96-1.76c0.64-0.35,1.29-0.68,1.98-0.94c0.64-0.23,1.53-0.49,2.61-0.64c0.8-0.15,2.32-0.34,4.69-0.55
		c1.18-0.1,2.58-0.19,4.17-0.21c0.26,0,0.53-0.01,0.8-0.01c1.4,0,2.92,0.06,4.56,0.23c1.96,0.21,4.01,0.57,6.01,1.16
		c2.01,0.58,3.87,1.37,5.43,2.2c0.77,0.43,1.49,0.86,2.12,1.28c0.62,0.43,1.17,0.85,1.66,1.25c0.94,0.8,1.63,1.51,2.07,2.04
		c2.14,2.64,3.08,5.2,3.47,7.52c0.14,0.88,0.21,1.73,0.21,2.56l0,0c0,1.36-0.17,2.65-0.43,3.9c-0.02,0.14-0.03,0.27-0.03,0.4
		c0,0.1,0.01,0.2,0.02,0.3l0,0c0.17,1.49,1.56,2.44,2.18,3.75c0.18,0.78,0.14,1.52,0.42,2.14c0.53,0.98,0.86,2.36,1.29,3.86
		c0.44,1.51,0.96,3.1,1.98,4.8c0.02,0.25,0.03,0.51,0.03,0.78l0,0c0,1.99-0.53,4.26-1.62,6.16c-1.25,2.22-3.03,3.74-4.63,4.68
		c-1.62,0.95-3.16,1.42-4.58,1.68C94.11,83.9,93.12,84,92.14,84c-0.41,0-0.81-0.02-1.21-0.05c-0.07,0-0.13,0-0.2,0
		c-1.42,0-2.66-0.29-3.93-0.87c-1.96-1.09-2.98-2.78-4.09-4.28c-0.89-1.58-2.46-2.45-2.96-4.14c-0.34-0.8-0.17-1.68-0.3-2.26l0,0
		c-0.35-0.1-0.62-0.6-0.89-0.6c-0.07,0-0.15,0.04-0.22,0.13c-0.55,0.44-0.6,1.27-0.74,1.96c0.04,2.86,0.55,6.09,2.5,8.74
		c2.36,3.01,6,5.52,10.6,6.42c1.17,0.22,2.38,0.35,3.63,0.35c1.22,0,2.49-0.12,3.83-0.38c1.38-0.29,2.9-0.79,4.53-1.65
		c1.64-0.87,3.44-2.14,5.13-4.06c1.28-1.44,2.15-3.35,2.54-5.09c0.43-1.73,0.5-3.47,0.5-5.13c0-0.04,0-0.08,0-0.12
		c-0.08-1.93-0.3-3.75-0.64-5.38c-0.3-1.4-0.67-2.66-1.09-3.77l0,0c0-0.01-0.01-0.02-0.01-0.02c-0.05-0.13-0.1-0.26-0.15-0.39
		c-0.05-0.13-0.11-0.26-0.16-0.38c-0.02-0.05-0.05-0.11-0.07-0.16l0,0c0-0.01-0.01-0.02-0.01-0.03c-0.14-0.31-0.29-0.61-0.44-0.89
		c0,0,0,0,0,0l0,0c0,0,0,0,0,0l0,0c0,0,0,0,0,0c-0.85-1.58-1.86-2.69-3.19-3.23c-0.47-0.15-0.77-0.74-0.78-1.19l0,0l0,0l0,0l0,0
		c0.24-1.45,0.4-2.95,0.4-4.56c0-1.37-0.12-2.81-0.4-4.34c-0.3-1.66-0.86-3.46-1.73-5.35c-0.9-1.91-2.2-3.95-4.04-5.99
		c-1.17-1.31-3.49-3.33-7.19-5.06c-3.64-1.76-8.65-2.84-12.7-3.03C77.72,29.13,76.84,29.11,76,29.11"/>
</g>
<g>
	<path d="M97.27,34.09c0.88-1.71,1.66-3.25,2.53-4.93c1.87,0.6,3.76,1.21,5.92,1.91c-0.51,0.61-0.77,1.25-1.14,1.32
		c-1.84,0.35-2.24,2.08-3.24,3.22c-0.52,0.59-0.45,1.17,0.2,1.76c2.16,1.98,4.26,4.04,6.42,6.03c2,1.84,3.95,3.73,4.89,6.37
		c0.68,1.91,1.21,3.86,1.14,5.93c-0.11,3.47-0.35,6.95-0.25,10.42c0.08,2.69,0.28,5.39,1.53,7.94c1.59,3.23,3.23,6.43,3.91,10.05
		c0.77,4.1,0.97,8.04-1.1,11.87c-1.82,3.37-3.06,7.03-5.33,10.17c-2.57,3.57-5.34,6.92-9.43,8.85c-0.73,0.35-1.58,0.45-2.37,0.67
		c-1.96,0.53-3.91,1.15-5.9,1.56c-3.97,0.82-7.92,0.97-11.75-0.79c-0.74-0.34-1.6-0.44-2.38-0.71c-2.72-0.97-5.08-2.55-7.39-4.26
		c-1.53-1.14-3.14-2.39-4.92-2.9c-1.2-0.34-2.52-0.45-3.76-0.88c-0.3-0.1-1.07,0.31-1.18,0.64c-0.34,0.99-0.95,1.01-1.95,0.82
		c0.24-0.69,0.45-1.28,0.69-1.94c-0.16-0.1-0.34-0.3-0.51-0.3c-0.98-0.04-1.97-0.1-2.95-0.05c-4.2,0.22-8.25-0.71-12.29-1.6
		c-1.36-0.3-3.04-0.81-3.8-1.81c-1.98-2.59-4.73-4.24-6.96-6.48c-2.16-2.17-3.51-4.92-4.64-7.71c-1.22-3-1.81-6.14-1.76-9.44
		c0.06-3.65,0.11-7.24,1.52-10.69c0.22-0.54,0.18-1.19,0.2-1.8c0.08-4.55,1.81-8.53,4.49-12.07c1.01-1.34,2.49-2.35,3.82-3.43
		c3.4-2.77,7.61-3.85,11.54-5.51c4.22-1.78,8.49-3.46,12.61-5.45c2.9-1.4,5.56-3.28,8.36-4.9c5.35-3.1,11.13-4.56,17.28-4.09
		c1.98,0.15,3.91,1.03,5.86,1.58C95.91,33.63,96.6,33.87,97.27,34.09z M98.17,36.74c-3.32-2.24-6.86-3.63-10.77-3.72
		c-6.17-0.14-11.67,2.02-16.87,5.12c-2.66,1.58-5.2,3.39-7.99,4.7c-4.41,2.07-8.91,4.04-13.52,5.59c-3.05,1.02-5.83,2.36-8.44,4.18
		c-2.63,1.84-4.96,3.92-6.15,7c-0.9,2.31-1.8,4.63-1.81,7.19c0,0.67-0.12,1.36-0.35,1.99c-1.47,4.13-1.54,8.46-1.55,12.72
		c-0.02,4.03,1.4,7.83,3.61,11.24c0.97,1.5,2.08,2.97,3.36,4.21c1.67,1.63,3.72,2.88,5.33,4.56c1.57,1.63,3.5,2.21,5.53,2.73
		c0.87,0.22,1.8,0.25,2.68,0.46c3.54,0.83,7.13,0.77,10.81,0.74c-0.77-5.11-2.23-10.1,1.13-14.67c-0.45,2.37-1.28,4.66-1.04,7.18
		c0.24,2.54,0.14,5.12,2.13,7.15c0.88-0.27,1.66-0.51,2.52-0.77c-0.07-0.72-0.14-1.39-0.21-2.06c0.15-0.04,0.29-0.08,0.44-0.12
		c0.3,0.69,0.6,1.38,0.7,1.62c1.2,0.62,2,1.2,2.89,1.46c1.53,0.45,0.99,1.66,1.11,2.62c0.1,0.77,0.27,1.35,1.2,1.11
		c0.78-1.08-0.26-2.59,0.97-3.67c1.42,1.56,0.3,2.98-0.07,4.47c0.47,0.35,0.94,0.71,1.32,0.99c1.39-0.96,2.69-1.85,3.99-2.75
		c0.09,0.12,0.18,0.23,0.27,0.35c-0.99,1.07-1.99,2.13-3.11,3.34c2.36,1.55,4.73,2.46,7.1,3.41c2.61,1.05,5.25,1.24,7.99,1.27
		c3.7,0.04,7.03-1.69,10.63-2.08c0.35-0.04,0.68-0.32,1-0.51c5.25-2.99,8.61-7.66,11.3-12.88c1-1.93,1.82-3.95,2.7-5.95
		c0.42-0.96,0.82-1.94,1.17-2.93c1.14-3.19,0.17-6.32-0.65-9.31c-0.91-3.31-2.35-6.5-3.8-9.63c-1.22-2.64-1.39-5.37-1.35-8.16
		c0.04-3.32,0.28-6.64,0.23-9.95c-0.06-4.15-1.88-7.5-5.05-10.17c-0.76-0.64-1.48-0.77-2.13-0.39c-0.34-0.9-0.44-1.81-0.93-2.38
		c-1.69-1.96-3.68-3.54-6.35-3.96c-0.67-0.11-1.37-0.02-2.03-0.16c-0.86-0.18-0.87-0.7-0.35-1.3
		C96.56,36.64,97.37,36.69,98.17,36.74z M102.84,31.85c-0.07-0.19-0.15-0.38-0.22-0.56c-0.57,0.23-1.15,0.45-1.72,0.68
		c0.08,0.19,0.15,0.38,0.23,0.57C101.7,32.31,102.27,32.08,102.84,31.85z M68.26,105.39c-0.23,0.14-0.47,0.28-0.7,0.42
		c0.22,0.33,0.41,0.71,0.69,0.97c0.08,0.08,0.47-0.18,0.72-0.29C68.74,106.13,68.5,105.76,68.26,105.39z"/>
	<path d="M106.47,73.84c0.06-3.54,0.04-7.06-1.48-10.34c-1.43-3.08-2.05-6.66-5.61-8.33c1.29-1.04,1.59-1.11,2.41,0
		c1.03,1.38,2.03,2.83,2.73,4.39c1.72,3.8,3.07,7.72,2.8,12c-0.05,0.73-0.12,1.46-0.18,2.2C106.92,73.78,106.69,73.81,106.47,73.84z
		"/>
	<path d="M70.86,46.87c3.71-2.61,10.14-3.6,15.29-2.51c-0.01,0.89-0.46,1.21-1.29,0.99c-3.4-0.9-6.7-0.2-9.99,0.62
		C73.66,46.27,72.44,46.52,70.86,46.87z"/>
	<path d="M95.79,106.41c0.92-0.53,1.84-1.05,3.05-1.75C97.83,106.7,97.42,106.98,95.79,106.41z"/>
	<path d="M102.61,100.56c-0.26-0.54-0.69-1.19-0.59-1.29c0.63-0.61,1.38-1.09,2.09-1.61c0.12,0.13,0.24,0.25,0.35,0.38
		C103.91,98.79,103.35,99.55,102.61,100.56z"/>
	<path d="M112.99,82.51c-1.27-1.23-1.27-1.23-0.18-3.23C113.31,80.45,113.31,80.45,112.99,82.51z"/>
	<path d="M103.63,107.47c1.07-0.87,1.81-1.48,2.7-2.21C106.28,106.99,105.77,107.44,103.63,107.47z"/>
	<path d="M86.45,107.82c-1.18,1.27-1.18,1.27-3.11,1.56C83.95,108.13,84.88,107.68,86.45,107.82z"/>
	<path d="M91.2,102.59c-0.92,0.46-1.66,1.49-3.17,0.91C89.06,102.49,89.99,102.08,91.2,102.59z"/>
	<path d="M89.88,110.37c1.08-1.25,2.1-0.13,3.07-0.14C92,110.72,91.05,111.3,89.88,110.37z"/>
	<path d="M112.08,85.86c0.25,0.91,0.5,1.82,0.85,3.06c-1.48-1.04-1.61-1.38-1.37-2.99C111.73,85.91,111.91,85.89,112.08,85.86z"/>
	<path d="M108.72,95.67c-0.29,0.86-0.57,1.71-0.92,2.76C106.84,96.85,106.91,96.56,108.72,95.67z"/>
	<path d="M113.86,95.72c-0.78-1.35,0.09-2.06,0.56-3.03C115.04,94.08,115.04,94.08,113.86,95.72z"/>
	<path d="M104.93,102.1c-0.15,0.55-0.23,1.13-0.47,1.63c-0.12,0.24-0.56,0.31-0.85,0.46c-0.07-0.38-0.3-0.82-0.18-1.12
		c0.21-0.52,0.63-0.95,0.96-1.42C104.57,101.8,104.75,101.95,104.93,102.1z"/>
	<path d="M85.49,113.7c2.1-0.61,2.1-0.61,3.4,0.74C87.93,114.24,86.97,114.03,85.49,113.7z"/>
	<path d="M107.28,91.05c0.92-0.3,1.38-0.45,2.2-0.71c-0.29,0.81-0.47,1.3-0.72,2C108.29,91.93,107.94,91.63,107.28,91.05z"/>
	<path d="M108.84,101.83c0.67-0.32,1.16-0.54,2.01-0.94c-0.17,0.63-0.22,0.88-0.31,1.11C110.15,102.96,109.66,102.83,108.84,101.83z
		"/>
	<path d="M99.01,111.66c-0.82,0.69-0.82,0.69-1.82,0.41C97.87,111.43,97.87,111.43,99.01,111.66z"/>
</g>
</svg>
