<?xml version="1.0" encoding="utf-8"?>
<!-- Generator: Adobe Illustrator 23.0.1, SVG Export Plug-In . SVG Version: 6.00 Build 0)  -->
<svg version="1.1" id="Layer_1" xmlns="http://www.w3.org/2000/svg" xmlns:xlink="http://www.w3.org/1999/xlink" x="0px" y="0px"
	 viewBox="0 0 150 150" style="enable-background:new 0 0 150 150;" xml:space="preserve">
<style type="text/css">
	.st0{fill:#F49AB4;}
	.st1{fill:#F28DA7;}
	.st2{fill:#E85072;}
	.st3{fill:#E84B6F;}
	.st4{fill:#EB5A7D;}
	.st5{fill:#EF7994;}
	.st6{fill:#F8BCCD;}
	.st7{fill:#F38CA8;}
	.st8{fill:#EF728F;}
	.st9{fill:#FCE4EB;}
	.st10{fill:#F0CCCF;}
	.st11{fill:#DE8D95;}
	.st12{fill:#EBBABF;}
	.st13{fill:#E7ACB2;}
	.st14{fill:#E39DA3;}
	.st15{fill:#F5DEE0;}
	.st16{fill:#D97A83;}
	.st17{fill:#E4A6AD;}
	.st18{fill:#E9B6BB;}
	.st19{fill:#DA9197;}
	.st20{fill:#CC7077;}
	.st21{fill:#C9646C;}
	.st22{fill:#D4848B;}
	.st23{fill:#D17A81;}
	.st24{fill:#DD9EA3;}
	.st25{fill:#C65760;}
	.st26{fill:#D48189;}
	.st27{fill:#CF6E76;}
	.st28{fill:#C1575F;}
	.st29{fill:#B8424B;}
	.st30{fill:#B33C43;}
	.st31{fill:#BB4952;}
	.st32{fill:#C65E66;}
	.st33{fill:#BC4F57;}
	.st34{fill:#B0353D;}
	.st35{fill:#D67E84;}
	.st36{fill:#C6636B;}
	.st37{fill:#CA6C72;}
	.st38{fill:#B9454D;}
	.st39{fill:#C05B63;}
	.st40{fill:#C0545B;}
	.st41{fill:#BE4C53;}
	.st42{fill:#B43C44;}
	.st43{fill:#DF999F;}
	.st44{fill:#D27980;}
	.st45{fill:#C1555D;}
	.st46{fill:#CB6F76;}
	.st47{fill:#C8676E;}
	.st48{fill:#D5838A;}
	.st49{fill:#C65D64;}
	.st50{fill:#F1D1D4;}
	.st51{fill:#D38087;}
	.st52{fill:#CF737C;}
	.st53{fill:#D98C94;}
	.st54{fill:#E6B3B9;}
	.st55{fill:#D8898F;}
	.st56{fill:#C66269;}
	.st57{fill:#C96A72;}
	.st58{fill:#DD9399;}
	.st59{fill:#CF747B;}
	.st60{fill:#D48188;}
	.st61{fill:#D37D85;}
	.st62{fill:#DC9298;}
	.st63{fill:#D8838B;}
	.st64{fill:#FAECED;}
	.st65{fill:#EFCBD0;}
	.st66{fill:#EDC1C5;}
	.st67{fill:#D28089;}
	.st68{fill:#CB747D;}
	.st69{fill:#A8343C;}
	.st70{fill:#A62F37;}
	.st71{fill:#B03E44;}
	.st72{fill:#C25C63;}
	.st73{fill:#E1A8AC;}
	.st74{fill:#BE535C;}
	.st75{fill:#CE727C;}
	.st76{fill:#F5D8DA;}
	.st77{fill:#D8BAE7;}
	.st78{fill:#BC8FD2;}
	.st79{fill:#B17FC9;}
	.st80{fill:#7D3CA4;}
	.st81{fill:#884BAE;}
	.st82{fill:#A369BF;}
	.st83{fill:#D2B5E2;}
	.st84{fill:#9A62BC;}
	.st85{fill:#B17ECB;}
	.st86{fill:#ECE0F2;}
	.st87{fill:#FBCBC8;}
	.st88{fill:#F5908C;}
	.st89{fill:#F28580;}
	.st90{fill:#E64640;}
	.st91{fill:#E5413B;}
	.st92{fill:#E74E49;}
	.st93{fill:#ED6D68;}
	.st94{fill:#F7B5B0;}
	.st95{fill:#ED6660;}
	.st96{fill:#F48580;}
	.st97{fill:#FBDFDF;}
	.st98{fill:#F9C1C0;}
	.st99{fill:#F7B7B6;}
	.st100{fill:#EF7573;}
	.st101{fill:#EF6F6D;}
	.st102{fill:#F17F7C;}
	.st103{fill:#F4A19F;}
	.st104{fill:#F39998;}
	.st105{fill:#EC7271;}
	.st106{fill:#FAD1CF;}
	.st107{fill:#FADCDC;}
	.st108{fill:#F39391;}
	.st109{fill:#FDECEC;}
	.st110{fill:#FCDDDD;}
	.st111{fill:#ED8280;}
	.st112{fill:#E66160;}
	.st113{fill:#F18784;}
	.st114{fill:#F19593;}
	.st115{fill:#EB7675;}
	.st116{fill:#E86867;}
	.st117{fill:#F28785;}
	.st118{fill:#F3A7A7;}
	.st119{fill:#F08C8B;}
	.st120{fill:#F08785;}
	.st121{fill:#E55D5B;}
	.st122{fill:#E86D6C;}
	.st123{fill:#E85F5D;}
	.st124{fill:#E75958;}
	.st125{fill:#EA6664;}
	.st126{fill:#E76260;}
	.st127{fill:#E04948;}
	.st128{fill:#ED7371;}
	.st129{fill:#EA6B6A;}
	.st130{fill:#EB6763;}
	.st131{fill:#E45352;}
	.st132{fill:#E54E4C;}
	.st133{fill:#DE3635;}
	.st134{fill:#E65958;}
	.st135{fill:#E0413E;}
	.st136{fill:#EA6D6A;}
	.st137{fill:#EE9493;}
	.st138{fill:#EA6866;}
	.st139{fill:#F2A8A6;}
	.st140{fill:#E14543;}
	.st141{fill:#E3413F;}
	.st142{fill:#E64A48;}
	.st143{fill:#E56967;}
	.st144{fill:#E33F3D;}
	.st145{fill:#EB7775;}
	.st146{fill:#EE8483;}
	.st147{fill:#E64845;}
	.st148{fill:#E75655;}
	.st149{fill:#E65451;}
	.st150{fill:#EA7473;}
	.st151{fill:#E55B57;}
	.st152{fill:#E75756;}
	.st153{fill:#EB7472;}
	.st154{fill:#EE8C8A;}
	.st155{fill:#F5A3A2;}
	.st156{fill:#E14A49;}
	.st157{fill:#E14D4C;}
	.st158{fill:#E14B49;}
	.st159{fill:#DE3E3D;}
	.st160{fill:#E45350;}
	.st161{fill:#E14544;}
	.st162{fill:#E54E4B;}
	.st163{fill:#E34240;}
	.st164{fill:#E75C5A;}
	.st165{fill:#EB7C7B;}
	.st166{fill:#F3A2A1;}
	.st167{fill:#EA7877;}
	.st168{fill:#E66B6A;}
	.st169{fill:#E96A69;}
	.st170{fill:#E56160;}
	.st171{fill:#E44845;}
	.st172{fill:#EC7473;}
	.st173{fill:#F9C0D3;}
	.st174{fill:#F298B5;}
	.st175{fill:#EE89A7;}
	.st176{fill:#E54D73;}
	.st177{fill:#E44771;}
	.st178{fill:#E7567E;}
	.st179{fill:#EC7797;}
	.st180{fill:#F8BCCF;}
	.st181{fill:#EB6D8F;}
	.st182{fill:#F089A8;}
	.st183{fill:#FCE2EB;}
	.st184{fill:#E55B7F;}
	.st185{fill:#E6708E;}
	.st186{fill:#EB87A2;}
	.st187{fill:#E25677;}
	.st188{fill:#E7678B;}
	.st189{fill:#FBD7E3;}
	.st190{fill:#ED80A1;}
	.st191{fill:#E24166;}
	.st192{fill:#E13B65;}
	.st193{fill:#E34870;}
	.st194{fill:#E76486;}
	.st195{fill:#F49DB8;}
	.st196{fill:#F7BFD1;}
	.st197{fill:#E65C7F;}
	.st198{fill:#F6ABC4;}
	.st199{fill:#F6A7C2;}
	.st200{fill:#EA6189;}
	.st201{fill:#DB3258;}
	.st202{fill:#DA2E55;}
	.st203{fill:#F7B2C9;}
	.st204{fill:#EA6A8D;}
	.st205{fill:#DC355B;}
	.st206{fill:#DB3159;}
	.st207{fill:#DF3C63;}
	.st208{fill:#F9C5D6;}
	.st209{fill:#EB7697;}
	.st210{fill:#DE3B61;}
	.st211{fill:#DE375F;}
	.st212{fill:#E1426A;}
	.st213{fill:#FDE7EE;}
	.st214{fill:#EE89A9;}
	.st215{fill:#E2456B;}
	.st216{fill:#E14069;}
	.st217{fill:#E44D75;}
	.st218{fill:#E86B8C;}
	.st219{fill:#EE7A9C;}
	.st220{fill:#F5A8C0;}
	.st221{fill:#FACBDA;}
	.st222{fill:#E65A7D;}
	.st223{fill:#E04169;}
	.st224{fill:#FEF5F9;}
	.st225{fill:#F191B0;}
	.st226{fill:#EA7292;}
	.st227{fill:#F6B4C9;}
	.st228{fill:#FBD8E5;}
	.st229{fill:#E96C8F;}
	.st230{fill:#E35477;}
	.st231{fill:#EA7396;}
	.st232{fill:#EB7A9D;}
	.st233{fill:#E8698D;}
	.st234{fill:#EB7094;}
	.st235{fill:#E04B6E;}
	.st236{fill:#E66085;}
	.st237{fill:#EB7294;}
	.st238{fill:#E7678C;}
	.st239{fill:#EA6D91;}
	.st240{fill:#E14C71;}
	.st241{fill:#EE7A9D;}
	.st242{fill:#F393B2;}
	.st243{fill:#DC3F64;}
	.st244{fill:#EF82A3;}
	.st245{fill:#F39DB9;}
	.st246{fill:#DF466B;}
	.st247{fill:#DF4469;}
	.st248{fill:#F29A98;}
	.st249{fill:#E64F4D;}
	.st250{fill:#E74947;}
	.st251{fill:#E85956;}
	.st252{fill:#EC7775;}
	.st253{fill:#F8BCBA;}
	.st254{fill:#EC6F6D;}
	.st255{fill:#FCE2E2;}
	.st256{fill:#F8C8C6;}
	.st257{fill:#F08B89;}
	.st258{fill:#F18A89;}
	.st259{fill:#B093A4;}
	.st260{fill:#A38295;}
	.st261{fill:#6F455A;}
	.st262{fill:#694055;}
	.st263{fill:#794F64;}
	.st264{fill:#936F83;}
	.st265{fill:#CDB7C1;}
	.st266{fill:#B596A5;}
	.st267{fill:#A58394;}
	.st268{fill:#8C667A;}
	.st269{fill:#B696A7;}
	.st270{fill:#E8E0E7;}
	.st271{fill:#E1BCC2;}
	.st272{fill:#A9666E;}
	.st273{fill:#681C23;}
	.st274{fill:#641920;}
	.st275{fill:#73242D;}
	.st276{fill:#8D3F48;}
	.st277{fill:#C69197;}
	.st278{fill:#893841;}
	.st279{fill:#E3CCCE;}
	.st280{fill:#6F292E;}
	.st281{fill:#A15A63;}
	.st282{fill:#944952;}
	.st283{fill:#944953;}
	.st284{fill:#964A53;}
	.st285{fill:#984B54;}
	.st286{fill:#974A53;}
	.st287{fill:#A25A62;}
	.st288{fill:#D2BCC8;}
	.st289{fill:#C8B2BE;}
	.st290{fill:#936A80;}
	.st291{fill:#8E667B;}
	.st292{fill:#9B7589;}
	.st293{fill:#B293A3;}
	.st294{fill:#916B7F;}
	.st295{fill:#DDCCD6;}
	.st296{fill:#AC8B9C;}
	.st297{fill:#F1EBEF;}
	.st298{fill:#9C7A8C;}
	.st299{fill:#8F6C80;}
	.st300{fill:#B99DAC;}
	.st301{fill:#A27F91;}
	.st302{fill:#C2A7B6;}
	.st303{fill:#AB8E9F;}
	.st304{fill:#936D82;}
	.st305{fill:#856174;}
	.st306{fill:#B99DAB;}
	.st307{fill:#C2A9B6;}
	.st308{fill:#A38091;}
	.st309{fill:#BBA3B0;}
	.st310{fill:#7A5468;}
	.st311{fill:#855F73;}
	.st312{fill:#AE8E9F;}
	.st313{fill:#7C556A;}
	.st314{fill:#7B5066;}
	.st315{fill:#855C71;}
	.st316{fill:#AF8E9F;}
	.st317{fill:#734B60;}
	.st318{fill:#694256;}
	.st319{fill:#916A80;}
	.st320{fill:#886378;}
	.st321{fill:#875C71;}
	.st322{fill:#714B5E;}
	.st323{fill:#582F42;}
	.st324{fill:#795066;}
	.st325{fill:#5E3A4B;}
	.st326{fill:#8A6578;}
	.st327{fill:#A98E9D;}
	.st328{fill:#B9A1B1;}
	.st329{fill:#B08F9F;}
	.st330{fill:#B898AA;}
	.st331{fill:#896578;}
	.st332{fill:#653C50;}
	.st333{fill:#623A4E;}
	.st334{fill:#6C4257;}
	.st335{fill:#B28FA1;}
	.st336{fill:#80596E;}
	.st337{fill:#7F586C;}
	.st338{fill:#765063;}
	.st339{fill:#683F53;}
	.st340{fill:#774E63;}
	.st341{fill:#704B5F;}
	.st342{fill:#674355;}
	.st343{fill:#7F5A6E;}
	.st344{fill:#815A6E;}
	.st345{fill:#6A4558;}
	.st346{fill:#5D374A;}
	.st347{fill:#926D80;}
	.st348{fill:#70475B;}
	.st349{fill:#72495E;}
	.st350{fill:#673D52;}
	.st351{fill:#673D51;}
	.st352{fill:#60364B;}
	.st353{fill:#795265;}
	.st354{fill:#683F52;}
	.st355{fill:#7A5368;}
	.st356{fill:#987387;}
	.st357{fill:#70475C;}
	.st358{fill:#A07D92;}
	.st359{fill:#81596E;}
	.st360{fill:#926C7F;}
	.st361{fill:#80596D;}
	.st362{fill:#CDC0E4;}
	.st363{fill:#A998CF;}
	.st364{fill:#644DA1;}
	.st365{fill:#5E479E;}
	.st366{fill:#6F56A9;}
	.st367{fill:#755CAC;}
	.st368{fill:#8975BA;}
	.st369{fill:#C4BAE0;}
	.st370{fill:#755DAD;}
	.st371{fill:#846DB7;}
	.st372{fill:#E7E2F2;}
	.st373{fill:#9B89C5;}
	.st374{fill:#8871B8;}
	.st375{fill:#9C89C6;}
	.st376{fill:#8673B9;}
	.st377{fill:#B9E1BA;}
	.st378{fill:#ADDBAE;}
	.st379{fill:#99D09A;}
	.st380{fill:#65B567;}
	.st381{fill:#5FB261;}
	.st382{fill:#70BB71;}
	.st383{fill:#8DCB8E;}
	.st384{fill:#CBE9CB;}
	.st385{fill:#86C687;}
	.st386{fill:#98D099;}
	.st387{fill:#EBF5EB;}
	.st388{fill:#B9D6C9;}
	.st389{fill:#8EBD9E;}
	.st390{fill:#7DB18E;}
	.st391{fill:#408251;}
	.st392{fill:#3A7F4C;}
	.st393{fill:#4A8C5B;}
	.st394{fill:#68A279;}
	.st395{fill:#B5D4BE;}
	.st396{fill:#7CB38B;}
	.st397{fill:#619D71;}
	.st398{fill:#E0ECE4;}
	.st399{fill:#74A38C;}
	.st400{fill:#679880;}
	.st401{fill:#669780;}
	.st402{fill:#669881;}
	.st403{fill:#285E41;}
	.st404{fill:#235A3C;}
	.st405{fill:#31684A;}
	.st406{fill:#4D8268;}
	.st407{fill:#A1C2B0;}
	.st408{fill:#679981;}
	.st409{fill:#467B62;}
	.st410{fill:#D6E5DF;}
	.st411{fill:#8ECA8F;}
	.st412{fill:#7DC07F;}
	.st413{fill:#409841;}
	.st414{fill:#3A933C;}
	.st415{fill:#4AA14B;}
	.st416{fill:#68B569;}
	.st417{fill:#7CC07D;}
	.st418{fill:#B5DDB5;}
	.st419{fill:#61B062;}
	.st420{fill:#7CC17E;}
	.st421{fill:#E0EFE0;}
	.st422{fill:#EBF5DE;}
	.st423{fill:#D4EAB8;}
	.st424{fill:#D2E9B4;}
	.st425{fill:#D8ECBE;}
	.st426{fill:#E2F0CE;}
	.st427{fill:#F3F9EA;}
	.st428{fill:#DFF0CA;}
	.st429{fill:#FAFDF7;}
	.st430{fill:#D3C9BE;}
	.st431{fill:#CBBEB3;}
	.st432{fill:#BBAC9F;}
	.st433{fill:#97826F;}
	.st434{fill:#947E69;}
	.st435{fill:#9F8A79;}
	.st436{fill:#B5A495;}
	.st437{fill:#DED6CE;}
	.st438{fill:#BBAD9F;}
	.st439{fill:#AE9E8D;}
	.st440{fill:#F2EFEC;}
	.st441{fill:#B1A091;}
	.st442{fill:#B1A090;}
	.st443{fill:#D8BACF;}
	.st444{fill:#976286;}
	.st445{fill:#905778;}
	.st446{fill:#4F1939;}
	.st447{fill:#4C1637;}
	.st448{fill:#5A2144;}
	.st449{fill:#773B60;}
	.st450{fill:#B88FAD;}
	.st451{fill:#6E345A;}
	.st452{fill:#8E567D;}
	.st453{fill:#E1CCDA;}
	.st454{fill:#C4E2A7;}
	.st455{fill:#93C35F;}
	.st456{fill:#8EC15A;}
	.st457{fill:#9AC868;}
	.st458{fill:#B0D587;}
	.st459{fill:#DCEBC3;}
	.st460{fill:#C8E0AA;}
	.st461{fill:#ABD280;}
	.st462{fill:#CAE2A9;}
	.st463{fill:#EFF8E7;}
	.st464{fill:#FFF6C0;}
	.st465{fill:#FFEC97;}
	.st466{fill:#FFDC4B;}
	.st467{fill:#FFD945;}
	.st468{fill:#FFDD54;}
	.st469{fill:#FFE774;}
	.st470{fill:#FFF4BA;}
	.st471{fill:#FFE46C;}
	.st472{fill:#FFF9E2;}
	.st473{fill:#FDE2C1;}
	.st474{fill:#F9CA98;}
	.st475{fill:#F9C18A;}
	.st476{fill:#F5994E;}
	.st477{fill:#F49448;}
	.st478{fill:#F8A158;}
	.st479{fill:#F8B577;}
	.st480{fill:#FCDDBC;}
	.st481{fill:#F8B06F;}
	.st482{fill:#FFEFE2;}
	.st483{fill:#F8A7A4;}
	.st484{fill:#EF8262;}
	.st485{fill:#EC605A;}
	.st486{fill:#EB5B55;}
	.st487{fill:#EC6964;}
	.st488{fill:#F28783;}
	.st489{fill:#F9C4C1;}
	.st490{fill:#F2817A;}
	.st491{fill:#EB6449;}
	.st492{fill:#FCE7E7;}
	.st493{fill:#FFEA88;}
	.st494{fill:#FFEB87;}
	.st495{fill:#FDF2E3;}
	.st496{fill:#FDEFDD;}
	.st497{fill:#F9E1C4;}
	.st498{fill:#FADEB9;}
	.st499{fill:#FADDB7;}
	.st500{fill:#FAE0BF;}
	.st501{fill:#FBE9CF;}
	.st502{fill:#F9DAB8;}
	.st503{fill:#FDF5EB;}
	.st504{fill:#FBE6CB;}
	.st505{fill:#FFFBF7;}
	.st506{fill:#FBDFBE;}
	.st507{fill:#F7D8B5;}
	.st508{fill:#FBE8CF;}
	.st509{fill:#FBE3C8;}
	.st510{fill:#F9E8CF;}
	.st511{fill:#F8DBB7;}
	.st512{fill:#FADBB5;}
	.st513{fill:#F7D5AE;}
	.st514{fill:#FDE9D5;}
	.st515{fill:#FAE3C8;}
	.st516{fill:#F7D1A4;}
	.st517{fill:#F5CD9D;}
	.st518{fill:#F7D8B0;}
	.st519{fill:#F8D4A9;}
	.st520{fill:#F8D3A6;}
	.st521{fill:#F8D8AF;}
	.st522{fill:#F7CD9E;}
	.st523{fill:#F4C896;}
	.st524{fill:#FBE3C5;}
	.st525{fill:#F7DBB8;}
	.st526{fill:#F7D8B1;}
	.st527{fill:#F7D7B0;}
	.st528{fill:#F8CD9F;}
	.st529{fill:#F8CD9E;}
	.st530{fill:#F1BE84;}
	.st531{fill:#F8D0A3;}
	.st532{fill:#F1C38D;}
	.st533{fill:#F8D8B1;}
	.st534{fill:#FBE2C8;}
	.st535{fill:#F9EAD3;}
	.st536{fill:#F9D3AA;}
	.st537{fill:#F7C896;}
	.st538{fill:#F7C794;}
	.st539{fill:#F7CA9A;}
	.st540{fill:#F7D3AB;}
	.st541{fill:#F8D8B5;}
	.st542{fill:#F9E6CF;}
	.st543{fill:#F7C897;}
	.st544{fill:#F8D3AA;}
	.st545{fill:#F7CEA2;}
	.st546{fill:#F4CD9E;}
	.st547{fill:#F5D2A5;}
	.st548{fill:#FBE2C2;}
	.st549{fill:#F5D1A8;}
	.st550{fill:#F8D5AB;}
	.st551{fill:#F2C695;}
	.st552{fill:#F8D3A8;}
	.st553{fill:#F5C998;}
	.st554{fill:#F5C894;}
	.st555{fill:#F2C997;}
	.st556{fill:#F2C48D;}
	.st557{fill:#F4C694;}
	.st558{fill:#F5CE9D;}
	.st559{fill:#F4C594;}
	.st560{fill:#F5C995;}
	.st561{fill:#F4C48F;}
	.st562{fill:#F7D2A6;}
	.st563{fill:#F8DFBB;}
	.st564{fill:#FBE2C3;}
	.st565{fill:#F8CC9E;}
	.st566{fill:#FADFC1;}
	.st567{fill:#F9D8B5;}
	.st568{fill:#F4C997;}
	.st569{fill:#F9DDB8;}
	.st570{fill:#FDFCED;}
	.st571{fill:#FBF7D2;}
	.st572{fill:#F9F6CB;}
	.st573{fill:#F4EBA8;}
	.st574{fill:#F5E9A6;}
	.st575{fill:#F5EDAC;}
	.st576{fill:#F7F5C0;}
	.st577{fill:#FBFBE1;}
	.st578{fill:#F7F0BE;}
	.st579{fill:#FAF6CE;}
	.st580{fill:#FFFBF5;}
	.st581{fill:#BDDB97;}
	.st582{fill:#BBDC99;}
	.st583{fill:#BDDD99;}
	.st584{fill:#B0D484;}
	.st585{fill:#AFD484;}
	.st586{fill:#FFEA87;}
	.st587{fill:#D3E9BA;}
	.st588{fill:#E1EECE;}
	.st589{fill:#D3E8BB;}
	.st590{fill:#E3EECE;}
	.st591{opacity:0.9;}
	.st592{fill:#FFF8CD;}
	.st593{opacity:0.9;fill:#FFEE8A;}
	.st594{fill:#FFF19E;}
	.st595{fill:#FFF5B6;}
	.st596{fill:#FFFBE0;}
	.st597{fill:none;stroke:#FFF4B1;stroke-width:0;}
	.st598{fill:#FFFDF3;}
	.st599{fill:#FACEDD;}
	.st600{opacity:0.9;fill:#F38CAF;}
	.st601{fill:#F5A0BD;}
	.st602{fill:#F8B8CD;}
	.st603{fill:#FCE1EA;}
	.st604{fill:none;stroke:#F7B2C9;stroke-width:0;}
	.st605{fill:#FEF3F7;}
	.st606{fill:#FBDBB6;}
	.st607{fill:#FBD1A3;}
	.st608{fill:#F9B674;}
	.st609{fill:#F8B36E;}
	.st610{fill:#FABB7E;}
	.st611{fill:#FACB99;}
	.st612{fill:#FDE9D1;}
	.st613{fill:#FAC893;}
	.st614{fill:#F9D0A1;}
	.st615{fill:#FFF5EC;}
	.st616{fill:#D7ECC0;}
	.st617{fill:#B1D684;}
	.st618{fill:#ADD680;}
	.st619{fill:#B7D98D;}
	.st620{fill:#C8E2A7;}
	.st621{fill:#E8F2D6;}
	.st622{fill:#C3E0A0;}
	.st623{fill:#F5FAEF;}
	.st624{fill:#A87699;}
	.st625{fill:#A9716E;}
	.st626{fill:#9F698A;}
	.st627{fill:#9F698D;}
	.st628{fill:#65294F;}
	.st629{fill:#632638;}
	.st630{fill:#62244A;}
	.st631{fill:#612335;}
	.st632{fill:#6E3259;}
	.st633{fill:#6D2F40;}
	.st634{fill:#8B4E74;}
	.st635{fill:#C4A1BB;}
	.st636{fill:#9D688D;}
	.st637{fill:#82476E;}
	.st638{fill:#E7D6E1;}
	.st639{fill:#FFF9D6;}
	.st640{fill:#FFF2A6;}
	.st641{fill:#FFF4B0;}
	.st642{fill:#FFF7C4;}
	.st643{fill:#FFFCE6;}
	.st644{fill:#FFF3B5;}
	.st645{fill:#FFED8B;}
	.st646{fill:#FFED94;}
	.st647{fill:#FFF1A4;}
	.st648{fill:#FFF5BF;}
	.st649{fill:#FFF6CD;}
	.st650{fill:#FFE46E;}
	.st651{fill:#FFED98;}
	.st652{fill:#FFF3A9;}
	.st653{fill:#FFEC8D;}
	.st654{fill:#FFE66B;}
	.st655{fill:#FFEC8A;}
	.st656{fill:#FFE66D;}
	.st657{fill:#FFE571;}
	.st658{fill:#FFEF94;}
	.st659{fill:#FFEF9E;}
	.st660{fill:#FFED93;}
	.st661{fill:#FFE873;}
	.st662{fill:#FFE97A;}
	.st663{fill:#FFEC87;}
	.st664{fill:#FFF19F;}
	.st665{fill:#FFF1A8;}
	.st666{fill:#FFEA7E;}
	.st667{fill:#FFEB86;}
	.st668{fill:#FFEF97;}
	.st669{fill:#FFF2B0;}
	.st670{fill:#FFF4BC;}
	.st671{fill:#FFF5C1;}
	.st672{fill:#FFF8CF;}
	.st673{fill:#FFF8DC;}
	.st674{fill:#FFF0A0;}
	.st675{fill:#FFEE92;}
	.st676{fill:#FFF6CE;}
	.st677{fill:#FFFADD;}
	.st678{fill:#FFFBEC;}
	.st679{fill:#FFFDF5;}
	.st680{fill:#F49C52;}
	.st681{fill:#F69D52;}
	.st682{fill:#F8A55E;}
	.st683{fill:#F8B472;}
	.st684{fill:#F59D54;}
	.st685{fill:#F8A65F;}
	.st686{fill:#F8B474;}
	.st687{fill:#FDF3E9;}
	.st688{fill:#FAE8D1;}
	.st689{fill:#FAE8CF;}
	.st690{fill:#FAEBD4;}
	.st691{fill:#F9EDD7;}
	.st692{fill:#FBEFDE;}
	.st693{fill:#FBEFDD;}
	.st694{fill:#FDF8F1;}
	.st695{fill:#FBEDD7;}
	.st696{fill:#FBEFDC;}
	.st697{fill:#FFFBFA;}
	.st698{fill:#FFE771;}
	.st699{fill:#FFEB83;}
	.st700{fill:#FFED90;}
	.st701{fill:#F7B6CB;}
	.st702{fill:#F4A2BB;}
	.st703{fill:#EE7397;}
	.st704{fill:#ED6D94;}
	.st705{fill:#EF7C9F;}
	.st706{fill:#F399B5;}
	.st707{fill:#FAD1DE;}
	.st708{fill:#F291AE;}
	.st709{fill:#F3A1BB;}
	.st710{fill:#FDECF2;}
</style>
<g>
	<path class="st639" d="M66.38,95.14c-0.1,0.06-0.21,0.12-0.32,0.18c0.27,0.23,0.56,0.43,0.89,0.61
		C66.78,95.7,66.59,95.43,66.38,95.14 M76.65,84.23c-2.17,1.28-4.27,3.03-6.12,5.54C72.72,88.01,74.76,86.16,76.65,84.23
		 M66.49,79.56c-0.68,1.07-1.41,2.32-2.19,3.79c0,0-0.06,0.25-0.14,0.68c0.05-0.09,0.09-0.18,0.14-0.26
		C65.03,82.32,65.77,80.88,66.49,79.56 M74.5,72.89c-0.14,0-0.28,0.01-0.42,0.02c-0.43,0.02-0.91,0.11-1.44,0.31
		c-0.27,0.1-0.55,0.24-0.84,0.41c0.25-0.05,0.55-0.12,0.88-0.19c0.45-0.1,0.94-0.21,1.41-0.34c0.21-0.07,0.41-0.14,0.61-0.21
		C74.64,72.9,74.57,72.89,74.5,72.89 M108.03,66.25c-0.47,0-0.91,0.06-1.34,0.16c-1,0.23-1.96,0.62-2.98,0.92
		c-0.3,0.09-0.61,0.14-0.94,0.14c-0.75,0-1.58-0.23-2.43-0.62c0.32,0.25,1.15,0.88,2.15,1.4c0.41-0.27,0.82-0.54,1.22-0.82
		c1.02-0.3,1.98-0.69,2.98-0.92c0.42-0.1,0.87-0.16,1.34-0.16c0.64,0,1.34,0.11,2.15,0.4c2.98,1.09,6.11,2.38,9.46,4.85
		c0.29,0.21,0.42,0.55,0.45,0.9c-0.01-0.39-0.14-0.77-0.45-1.01c-3.35-2.47-6.49-3.77-9.46-4.85
		C109.38,66.36,108.68,66.25,108.03,66.25 M55.74,76.41C55.73,76.41,55.73,76.41,55.74,76.41C55.73,76.41,55.73,76.41,55.74,76.41
		L55.74,76.41L55.74,76.41 M55.44,76.4c0,0-0.02,0-0.03,0c-0.02,0-0.03,0-0.03,0c0,0,0.01,0,0.04,0h-0.01h0h0h0
		C55.43,76.4,55.44,76.4,55.44,76.4 M87.05,54.08c-0.14,0-0.27,0.04-0.39,0.12c-0.8,0.65-1.37,1.79-2.09,2.7
		c-0.37,0.43-0.78,0.79-1.25,0.99c0,0-0.01,0-0.01,0c0.37-0.11,0.7-0.28,0.97-0.49c0.49-0.34,0.82-0.85,1.02-1.23
		c0.21-0.39,0.29-0.67,0.29-0.67s-0.09,0.29-0.29,0.67c-0.21,0.38-0.53,0.89-1.02,1.23c-0.28,0.2-0.6,0.38-0.97,0.49c0,0,0,0-0.01,0
		c0.03,0.03,0.07,0.07,0.1,0.1c0.25,0.39,0.65,0.78,0.69,1.29c0.11,0.38-0.4,0.24-0.63,0.42l0,0l0,0c-0.05,0.57-0.81,0.34-1.19,0.71
		c-0.18,0.17-0.37,0.24-0.55,0.24c-0.85,0-1.69-1.53-2.52-2.13c-0.37-0.22-0.74-0.3-1.11-0.3c-0.85,0-1.71,0.42-2.62,0.49
		c-0.59-0.14-1.12-0.48-1.81-0.99c-0.27-0.22-0.52-0.31-0.76-0.31c-0.67,0-1.28,0.69-1.89,1.21c-0.38,0.43-0.89,0.53-1.45,0.53
		c-0.23,0-0.47-0.02-0.72-0.03c-0.17-0.01-0.33-0.02-0.5-0.03c-0.6,0.53-1.4,1.52-2.45,3.77c1.05-2.25,1.85-3.24,2.45-3.77
		c-0.08,0-0.15,0-0.23,0c-0.4,0-0.79,0.05-1.13,0.23c-1.6,0.68-2,3.25-3.54,3.25c-0.09,0-0.18-0.01-0.28-0.03
		c0.79,0.18-0.4,0.83-1.65,1.35c-0.81,0.34-1.66,0.62-2.02,0.62c-0.17,0-0.23-0.07-0.11-0.23c-0.01,0-0.01,0-0.02,0
		c-0.18,0-0.78-0.46-1.09-0.86c-0.16-0.34-0.53-0.82-0.5-1.03c0.22-1.68-0.96-3.68-1.53-5.5c-0.01-0.01-0.03-0.01-0.05-0.01
		c-0.21,0-0.95,0.28-1.89,0.57c-0.94,0.28-2.07,0.57-3.08,0.57c-0.32,0-0.63-0.03-0.91-0.1c-0.86-0.25-1.72-0.55-2.55-0.7
		c-0.22-0.05-0.45-0.08-0.69-0.08c-0.64,0-1.35,0.19-2.03,0.58c-0.39,0.45-0.04,1.37-0.43,1.85c-0.26,0.24-0.99,1.4-1.96,3.47
		c-0.48,1.05-1.03,2.35-1.5,3.91c-0.47,1.55-0.86,3.46-0.91,5.44c-0.05,1.99,0.27,3.98,0.9,5.74c0.63,1.74,1.5,3.08,2.31,4.08
		c1.65,1.98,2.99,2.79,3.24,3.31c0.24,0.64,0.46,1.47,0.55,2.21c0.08,0.75,0.04,1.4-0.4,1.66c-0.98,0.92-1.14,2.06-0.93,3.29
		c0.17,1.23,0.77,2.56,0.71,3.77c-0.1,0.62-1.11,0.9-1.22,1.51c0.05,0.95,0.31,2.07,0.85,3.1c0.51,1.01,1.31,1.94,2.25,2.45
		c1.51,1.07,3.2,1.85,4.64,2.27c1.03,0.31,1.96,0.45,2.76,0.45c0.32,0,0.62-0.02,0.9-0.07c0.99,0.15,1.74,0.24,2.52,0.31l0.72,0.07
		c0.08-0.04,0.16-0.09,0.25-0.13c0.89-0.49,1.74-1.09,2.53-1.79c1.36-1.07,1.7-1.93,2.2-1.93c0.08,0,0.16,0.02,0.24,0.06
		c0,0,0,0,0,0c0.27,0,1.09-3.33,2.81-5.14c-0.04-0.05-0.27-0.4-0.68-1.02c-0.52,0.64-1.83,2.16-3.49,3.2
		c-0.94,0.58-1.98,0.96-2.99,0.96c-0.15,0-0.3-0.01-0.44-0.03c-0.57-0.07-1.11-0.28-1.61-0.68c-0.51-0.41-1.03-1.01-1.46-1.85
		c0,0-0.73-0.54-1.88-1.52c-1.14-0.98-2.75-2.44-4.04-4.26c-0.64-0.9-1.18-1.86-1.52-2.81c-0.38-0.95-0.58-1.91-0.52-2.69
		c0.09-1.62,1-2.6,2.4-3.04c0,0,0.35-0.1,0.94-0.34c0.59-0.23,1.38-0.63,2.24-1.21c0.86-0.58,1.75-1.36,2.6-2.28
		c0.86-0.92,1.68-1.97,2.55-3.06c0.85-1.08,1.87-2.22,2.82-3.29c0.96-1.07,1.9-2.06,2.83-3c1.85-1.82,3.58-3.23,5.28-3.6
		c0,0,0.19-0.01,0.52-0.41c0.33-0.39,0.8-1.16,1.3-2.67c0,0,0.2-0.2,0.52-0.49c0.32-0.28,0.77-0.6,1.27-0.81
		c0.34-0.13,0.71-0.22,1.09-0.22c0.74,0,1.54,0.36,2.31,1.55c0,0,0.09,0.07,0.24,0.19c0.15,0.12,0.38,0.29,0.65,0.46
		c0.55,0.36,1.31,0.82,2.15,1.24c0.85,0.44,1.75,0.73,2.58,0.87c0.26,0.04,0.5,0.06,0.73,0.06c0.51,0,0.95-0.11,1.24-0.41
		c0,0,0.66,0.6,1.42,0.98c0.35,0.17,0.73,0.3,1.07,0.3c0.12,0,0.24-0.02,0.34-0.05c0.06-0.06,0.11-0.12,0.16-0.17
		c0.25-0.29,0.39-0.45,0.39-0.45c-0.12,0.34-0.31,0.54-0.55,0.62c-0.2,0.21-0.45,0.46-0.74,0.74c0.32-0.2,0.63-0.4,0.94-0.58
		c0.64-0.42,1.25-0.78,1.81-1.04c0.67-0.3,1.26-0.5,1.72-0.5c0.31,0,0.57,0.09,0.77,0.31c0,0,0.31-0.05,0.82-0.11
		c0.51-0.05,1.21-0.11,1.96-0.18c0.45-0.04,0.92-0.06,1.39-0.06c0.33,0,0.66,0.01,0.98,0.04c0.58,0.04,1.12,0.1,1.58,0.25
		c-0.33-0.18-0.67-0.38-1-0.6c-1.78-1.18-3.62-2.99-5.23-4.81c-1.22-1.46-2.58-3.39-3.82-4.88C88.67,55,87.74,54.08,87.05,54.08"/>
	<path class="st652" d="M120.1,72.51c0.01,0.44-0.15,0.88-0.37,1.12c-0.74,0.84-1.79,1.24-2.95,1.48c-1.16,0.23-2.38,0.35-3.44,0.75
		c-0.21,0.33-0.87,0.59-0.9,1.02c-0.02,0.43-0.26,0.73-0.5,1.04c-0.56,0.39-1.12,0.75-1.68,1.07c-0.57,0.3-1.16,0.55-1.74,0.79
		c-1.18,0.46-2.38,0.81-3.71,0.99c-2.49,0.99-4.04,2.15-6.6,2.94c-1.27,0.25-2.27,0.81-3.33,1.23c-0.84,0.32-1.71,0.58-2.7,0.58
		c-0.26,0-0.53-0.02-0.81-0.06c-0.3-0.02-0.6-0.03-0.88-0.03c-1.33,0-2.42,0.2-3.53,0.68c-0.68,0.27-1.36,0.64-2.1,1.14
		c-0.37,0.25-0.76,0.53-1.17,0.84c-0.42,0.29-0.86,0.62-1.33,0.97c-0.5,0.38-1.25,0.85-2.13,1.38c-0.89,0.51-1.92,1.05-2.96,1.62
		c-1.03,0.59-2.09,1.12-3.01,1.67c-0.92,0.55-1.71,1.11-2.22,1.62c-1.03,1.39-2.67,0.97-3.89,2.15c-0.02,0.02-0.05,0.05-0.07,0.08
		c0,0.01,0.01,0.01,0.01,0.01c1.22-1.18,2.85-0.76,3.89-2.15c0.51-0.51,1.3-1.07,2.22-1.62c0.92-0.56,1.98-1.07,3.01-1.67
		c1.03-0.56,2.05-1.12,2.96-1.62c0.89-0.54,1.64-1.01,2.14-1.38c0.47-0.36,0.91-0.68,1.33-0.97c0.41-0.31,0.8-0.59,1.18-0.84
		c0.75-0.5,1.43-0.87,2.11-1.14c1.11-0.47,2.2-0.68,3.52-0.68c0.29,0,0.58,0.01,0.89,0.03c0.28,0.04,0.55,0.06,0.81,0.06
		c1,0,1.86-0.26,2.7-0.58c1.06-0.42,2.06-0.98,3.33-1.23c2.57-0.78,4.13-1.94,6.61-2.93c1.33-0.19,2.53-0.53,3.71-0.99
		c0.59-0.23,1.17-0.48,1.75-0.78c0.56-0.32,1.12-0.67,1.69-1.07c0.24-0.31,0.47-0.62,0.5-1.04c0.02-0.43,0.69-0.69,0.9-1.02
		c1.06-0.41,2.28-0.52,3.44-0.75c1.16-0.23,2.21-0.64,2.95-1.48C119.97,73.48,120.13,72.98,120.1,72.51"/>
	<path class="st640" d="M108.04,66.35c-0.47,0-0.92,0.06-1.34,0.16c-1.01,0.23-1.96,0.62-2.98,0.92c-0.4,0.28-0.81,0.55-1.22,0.82
		c0.07,0.03,0.13,0.07,0.2,0.1c0.78,0.4,1.63,0.68,2.39,0.68c0.58,0,1.11-0.17,1.49-0.58c0,0,0.61,0.05,1.45,0.11
		c0.84,0.06,1.96,0.15,3.01,0.33c1.05,0.18,2.04,0.43,2.59,0.83c0.54,0.4,0.68,1.01-0.03,1.81c0,0-0.3,0.62-0.71,1.37
		c-0.42,0.74-0.93,1.65-1.39,2.13c0,0-1.03,0.5-2.6,1.25c-0.78,0.37-1.74,0.73-2.74,1.14c-1,0.42-2.11,0.79-3.22,1.14
		c-0.55,0.17-1.11,0.35-1.66,0.52c-0.56,0.15-1.12,0.28-1.66,0.41c-1.09,0.25-2.09,0.5-3.02,0.6c-0.91,0.12-1.7,0.19-2.31,0.19
		c-0.62,0-1.05-0.07-1.25-0.25c0,0-0.01,0-0.02,0c-0.16,0-1.38,0.01-3.12,0.23c-0.94,0.11-2.05,0.22-3.24,0.46
		c-1.18,0.25-2.48,0.46-3.79,0.87c-2.04,0.61-4.15,1.41-6.21,2.62c-1.89,1.93-3.93,3.78-6.12,5.54c-0.93,1.25-1.8,2.7-2.59,4.37
		c0,0-0.59,0.43-1.48,0.96c-0.03,0.02-0.05,0.03-0.08,0.05c0.21,0.29,0.4,0.56,0.57,0.8c0.21,0.12,0.44,0.23,0.68,0.32
		c0,0-0.08,0.11-0.24,0.31c0.42,0.63,0.65,0.97,0.68,1.02c0.02-0.03,0.05-0.05,0.07-0.08c1.22-1.18,2.85-0.76,3.89-2.15
		c0.51-0.51,1.3-1.07,2.22-1.62c0.92-0.55,1.98-1.08,3.01-1.67c1.04-0.58,2.07-1.11,2.96-1.62c0.89-0.54,1.64-1.01,2.13-1.38
		c0.47-0.36,0.91-0.68,1.33-0.97c0.41-0.31,0.8-0.59,1.17-0.84c0.74-0.5,1.43-0.87,2.1-1.14c1.11-0.48,2.2-0.68,3.53-0.68
		c0.28,0,0.57,0.01,0.88,0.03c0.28,0.04,0.55,0.06,0.81,0.06c1,0,1.86-0.26,2.7-0.58c1.06-0.43,2.06-0.98,3.33-1.23
		c2.57-0.78,4.12-1.95,6.6-2.94c1.33-0.18,2.53-0.53,3.71-0.99c0.59-0.23,1.17-0.48,1.74-0.79c0.56-0.32,1.12-0.67,1.68-1.07
		c0.24-0.31,0.47-0.61,0.5-1.04c0.03-0.43,0.69-0.69,0.9-1.02c1.06-0.4,2.28-0.52,3.44-0.75c1.15-0.24,2.21-0.64,2.95-1.48
		c0.22-0.24,0.37-0.69,0.37-1.12c-0.03-0.35-0.16-0.69-0.45-0.9c-3.35-2.48-6.48-3.77-9.46-4.85
		C109.38,66.47,108.68,66.35,108.04,66.35"/>
	<path class="st641" d="M97.19,66.26c-0.47,0-0.95,0.02-1.39,0.06c-0.75,0.07-1.45,0.14-1.96,0.18c-0.51,0.06-0.82,0.11-0.82,0.11
		c-0.19-0.22-0.45-0.31-0.77-0.31c-0.46,0-1.05,0.2-1.72,0.5c-0.56,0.26-1.17,0.62-1.81,1.04c-0.31,0.18-0.63,0.38-0.94,0.58
		c-0.07,0.06-0.13,0.13-0.2,0.2c-0.47,0.45-1.03,1-1.66,1.51c-0.64,0.51-1.35,1.05-2.08,1.57c-0.74,0.51-1.52,0.94-2.29,1.34
		c-0.76,0.41-1.52,0.69-2.23,0.86c-0.51,0.13-0.99,0.2-1.42,0.2c-0.15,0-0.3-0.01-0.44-0.03c-0.53-0.1-0.94-0.35-1.2-0.78
		c0,0-0.39-0.23-1.04-0.34c-0.16-0.03-0.33-0.05-0.51-0.06c-0.19,0.07-0.4,0.14-0.61,0.21c-0.47,0.13-0.96,0.24-1.41,0.34
		c-0.33,0.07-0.63,0.14-0.88,0.19c-0.27,0.16-0.55,0.35-0.84,0.58c-0.6,0.44-1.24,1.03-1.92,1.82c-0.79,0.93-1.63,2.07-2.55,3.53
		c-0.72,1.32-1.46,2.76-2.2,4.2c-0.05,0.09-0.09,0.18-0.14,0.26c-0.05,0.26-0.11,0.59-0.17,0.97c-0.16,1.01-0.32,2.37-0.31,3.83
		c0.02,2.37,0.52,4.93,2.37,6.5c0.11-0.06,0.22-0.12,0.32-0.18c0.03-0.02,0.05-0.03,0.08-0.05c0.89-0.53,1.48-0.96,1.48-0.96
		c0.79-1.67,1.66-3.11,2.59-4.37c1.86-2.5,3.95-4.25,6.12-5.54c2.05-1.21,4.17-2.01,6.21-2.62c1.31-0.42,2.61-0.62,3.79-0.87
		c1.18-0.24,2.3-0.35,3.24-0.46c1.74-0.23,2.96-0.23,3.12-0.23c0.01,0,0.02,0,0.02,0c0.19,0.17,0.63,0.25,1.25,0.25
		c0.61,0,1.4-0.07,2.31-0.19c0.93-0.1,1.93-0.36,3.02-0.6c0.54-0.13,1.1-0.26,1.66-0.41c0.55-0.17,1.11-0.35,1.66-0.52
		c1.11-0.35,2.22-0.72,3.22-1.14c1-0.41,1.96-0.77,2.74-1.14c1.57-0.76,2.6-1.25,2.6-1.25c0.45-0.48,0.97-1.39,1.39-2.13
		c0.41-0.75,0.71-1.37,0.71-1.37c0.72-0.8,0.58-1.42,0.03-1.81c-0.54-0.4-1.53-0.65-2.59-0.83c-1.05-0.17-2.17-0.27-3.01-0.33
		c-0.84-0.06-1.45-0.11-1.45-0.11c-0.38,0.41-0.91,0.58-1.49,0.58c-0.75,0-1.6-0.28-2.39-0.68c-0.07-0.03-0.13-0.07-0.2-0.1
		c-1-0.52-1.83-1.15-2.15-1.4c-0.09-0.07-0.14-0.12-0.14-0.12c-0.14-0.07-0.29-0.13-0.45-0.18c-0.46-0.15-1-0.21-1.58-0.25
		C97.84,66.27,97.52,66.26,97.19,66.26"/>
	<path class="st642" d="M89.07,67.06c0,0-0.14,0.16-0.39,0.45c-0.05,0.05-0.1,0.11-0.16,0.17C88.76,67.59,88.95,67.4,89.07,67.06
		 M75.78,62.49c-0.38,0-0.75,0.1-1.09,0.22c-0.5,0.21-0.95,0.54-1.27,0.81c-0.32,0.28-0.52,0.49-0.52,0.49
		c-0.5,1.5-0.97,2.27-1.3,2.67c-0.33,0.39-0.52,0.41-0.52,0.41c-1.7,0.37-3.43,1.79-5.28,3.6c-0.92,0.95-1.87,1.94-2.83,3
		c-0.95,1.07-1.96,2.21-2.82,3.29c-0.87,1.09-1.69,2.14-2.55,3.06c-0.85,0.92-1.75,1.7-2.6,2.28c-0.86,0.58-1.65,0.98-2.24,1.21
		c-0.59,0.24-0.94,0.34-0.94,0.34c-1.4,0.44-2.31,1.42-2.4,3.04c-0.05,0.79,0.15,1.74,0.52,2.69c0.35,0.95,0.88,1.9,1.52,2.81
		c1.29,1.81,2.89,3.28,4.04,4.26c1.15,0.98,1.88,1.52,1.88,1.52c0.44,0.84,0.95,1.44,1.46,1.85c0.5,0.4,1.04,0.61,1.61,0.68
		c0.15,0.02,0.29,0.03,0.44,0.03c1.01,0,2.05-0.38,2.99-0.96c1.67-1.04,2.98-2.55,3.49-3.2c0.16-0.19,0.24-0.31,0.24-0.31
		c-0.24-0.1-0.46-0.2-0.68-0.32c-0.33-0.18-0.62-0.39-0.89-0.61c-1.86-1.57-2.35-4.13-2.37-6.5C63.67,87.37,63.84,86,63.99,85
		c0.06-0.38,0.12-0.71,0.17-0.97c0.08-0.43,0.14-0.68,0.14-0.68c0.78-1.47,1.51-2.71,2.19-3.79c0.92-1.46,1.77-2.59,2.55-3.53
		c0.68-0.79,1.32-1.38,1.92-1.82c0.29-0.23,0.57-0.42,0.84-0.58c0.29-0.17,0.57-0.31,0.84-0.41c0.52-0.2,1-0.29,1.44-0.31
		c0.15-0.02,0.29-0.02,0.42-0.02c0.07,0,0.14,0,0.2,0c0.18,0.01,0.36,0.03,0.51,0.06c0.64,0.11,1.04,0.34,1.04,0.34
		c0.26,0.43,0.67,0.68,1.2,0.78c0.14,0.02,0.29,0.03,0.44,0.03c0.43,0,0.91-0.07,1.42-0.2c0.7-0.17,1.46-0.45,2.23-0.86
		c0.76-0.4,1.55-0.82,2.29-1.34c0.74-0.52,1.44-1.06,2.08-1.57c0.64-0.52,1.19-1.07,1.66-1.51c0.07-0.07,0.14-0.13,0.2-0.2
		c0.29-0.29,0.54-0.54,0.74-0.74c-0.11,0.04-0.22,0.05-0.34,0.05c-0.34,0-0.72-0.13-1.07-0.3c-0.77-0.38-1.42-0.98-1.42-0.98
		c-0.29,0.3-0.73,0.41-1.24,0.41c-0.23,0-0.48-0.02-0.73-0.06c-0.82-0.13-1.73-0.43-2.58-0.87c-0.84-0.42-1.61-0.88-2.15-1.24
		c-0.27-0.17-0.5-0.34-0.65-0.46c-0.15-0.12-0.24-0.19-0.24-0.19C77.32,62.85,76.52,62.49,75.78,62.49"/>
	<path class="st643" d="M76.08,55.3l0.28,0.21c0.05-0.04,0.12-0.06,0.22-0.06c0.06,0,0.14,0.01,0.21,0.02
		C76.55,55.4,76.32,55.34,76.08,55.3 M73.73,55.2C73.73,55.2,73.73,55.2,73.73,55.2c-0.05,0.01-0.09,0.03-0.12,0.04
		c-0.01,0-0.01,0.01-0.02,0.01l0,0c-0.46,0.18-0.94,0.46-1.33,0.89c-0.01,0.01-0.02,0.02-0.03,0.03c-0.39,0.41-0.7,0.99-0.81,1.78
		c0,0-0.44,0.33-0.92,0.59l0,0c-0.29,0.17-0.6,0.28-0.84,0.29c0,0-0.01,0-0.01,0c-0.15,0-0.27-0.05-0.33-0.15l-0.07-0.01
		c-0.13,0-0.45,0.05-0.89,0.42c0,0-0.01,0.01-0.01,0.01c0.17,0.01,0.33,0.02,0.5,0.03c0.24,0.02,0.48,0.03,0.72,0.03
		c0.56,0,1.07-0.1,1.45-0.53c0.62-0.52,1.22-1.21,1.89-1.21c0.24,0,0.49,0.09,0.76,0.31c0.69,0.51,1.22,0.85,1.81,0.99
		c0.91-0.07,1.77-0.49,2.62-0.49c0.37,0,0.74,0.08,1.11,0.3c0.83,0.6,1.67,2.13,2.52,2.13c0.18,0,0.37-0.07,0.55-0.24
		c0.38-0.37,1.14-0.15,1.19-0.71l0,0c-0.34-0.2-0.68-0.72-1.14-0.99c-0.87-0.65-1.8-0.53-2.65-1.28c-0.9-0.61-1.73-1.48-2.73-1.93
		c-0.05-0.02-0.09-0.03-0.14-0.04c-0.08-0.01-0.15-0.02-0.21-0.02c-0.1,0-0.17,0.02-0.22,0.06l-0.28-0.21
		c-0.23-0.04-0.46-0.06-0.7-0.06c-0.1,0-0.19,0-0.29,0.01C74.64,55.22,74.18,55.2,73.73,55.2 M59.43,64.24L59.43,64.24L59.43,64.24
		 M50.2,54c-2.14,0-4.25,0.21-5.08,0.46c-1.35,0.41-2.6,1.36-3.93,2.62c-1.33,1.28-2.74,2.82-4.5,4.84
		c-0.01,0.01-0.02,0.02-0.03,0.02c-0.06,0-0.1-0.22-0.07-0.63c-0.37,0.5-0.73,1.04-1.1,1.63c-0.04,0.21-0.23,0.74-0.39,1.25
		c-0.16,0.51-0.32,1.04-0.35,1.3c-0.42,0.75-0.8,1.35-1.21,2.05c-0.41,0.68-0.84,1.33-1.32,2.2c-0.89,1.21-1.68,2.81-2.23,4.63
		c-0.56,1.79-0.87,4.04-0.83,6.27c0.04,2.23,0.39,4.49,1,6.61c0.61,2.1,1.44,4.06,2.42,5.85c1.96,3.57,4.39,6.46,7.08,8.92
		c0.66,0.62,1.38,1.21,2.07,1.78c0.6,0.5,1.22,1,1.8,1.46c1.1,0.86,2.17,1.7,3.22,2.53c0.88,0.59,1.95,1.26,3.07,1.79
		c1.11,0.53,2.26,0.91,3.31,1c1.08,0.02,2.16,0.2,3.03,0.2c0.43,0,0.8-0.04,1.1-0.16c1.65-0.99,3.06-2.64,4.42-3.9l-1.63-0.17
		l-0.72-0.07c-0.78-0.08-1.53-0.17-2.52-0.31c-0.27,0.05-0.57,0.07-0.9,0.07c-0.79,0-1.72-0.14-2.76-0.45
		c-1.45-0.42-3.13-1.2-4.64-2.27c-0.94-0.5-1.74-1.43-2.25-2.45c-0.54-1.03-0.8-2.15-0.85-3.1c0.11-0.62,1.12-0.89,1.22-1.51
		c0.06-1.21-0.53-2.53-0.71-3.77c-0.2-1.23-0.05-2.37,0.93-3.29c0.44-0.25,0.49-0.91,0.4-1.66c-0.09-0.74-0.31-1.57-0.55-2.21
		c-0.25-0.52-1.59-1.32-3.24-3.31c-0.81-1-1.68-2.34-2.31-4.08c-0.63-1.76-0.95-3.74-0.9-5.74c0.04-1.99,0.44-3.9,0.91-5.44
		c0.47-1.56,1.01-2.86,1.5-3.91c0.97-2.07,1.7-3.24,1.96-3.47c0.39-0.49,0.05-1.4,0.43-1.85c0.68-0.4,1.39-0.58,2.03-0.58
		c0.25,0,0.48,0.03,0.69,0.08c0.83,0.15,1.7,0.45,2.55,0.7c0.28,0.07,0.59,0.1,0.91,0.1c1.01,0,2.14-0.28,3.08-0.57
		c0.94-0.28,1.68-0.57,1.89-0.57c0.02,0,0.04,0,0.05,0.01c0.57,1.82,1.75,3.82,1.53,5.5c-0.03,0.21,0.34,0.69,0.5,1.03
		c0.31,0.41,0.9,0.86,1.09,0.86c0.01,0,0.02,0,0.02,0c-0.12,0.16-0.06,0.23,0.11,0.23c0.36,0,1.2-0.28,2.02-0.62
		c1.25-0.52,2.44-1.16,1.65-1.35c0.1,0.02,0.19,0.03,0.28,0.03c1.55,0,1.94-2.56,3.54-3.25c0.34-0.18,0.73-0.23,1.13-0.23
		c0.07,0,0.15,0,0.23,0c0,0,0.01-0.01,0.01-0.01c0.44-0.37,0.76-0.42,0.89-0.42l0.07,0.01c0.06,0.11,0.18,0.15,0.33,0.15
		c0,0,0.01,0,0.01,0c0.24,0,0.55-0.12,0.84-0.29l0,0c0.49-0.26,0.92-0.59,0.92-0.59c0.1-0.79,0.41-1.36,0.81-1.78
		c0.01-0.01,0.02-0.02,0.03-0.03c0.39-0.43,0.86-0.71,1.33-0.89l0,0c0.01,0,0.01-0.01,0.02-0.01c0.04-0.01,0.08-0.03,0.12-0.04
		c-1.8,0-3.53,0.32-5.15,1c-0.33,1.6-1.92,1.11-2.88,1.45c-0.05,0.01-0.09,0.01-0.14,0.01c-0.28,0-0.62-0.14-0.98-0.16
		c-0.69,0.16-1.23,0.73-1.87,0.73c-0.22,0-0.44-0.06-0.7-0.22c-2.12-1.54-4.24-2.77-6.51-3.48c-0.92-0.3-3.07-0.52-5.24-0.52
		C50.24,54,50.22,54,50.2,54"/>
	<path class="st464" d="M69.25,58.67c-0.13,0-0.45,0.05-0.89,0.42c0,0-0.01,0.01-0.01,0.01c-0.6,0.53-1.4,1.52-2.45,3.77
		c1.05-2.25,1.85-3.24,2.45-3.77c0,0,0.01-0.01,0.01-0.01C68.8,58.71,69.12,58.67,69.25,58.67l0.07,0.01
		c0.06,0.11,0.18,0.15,0.33,0.15c0,0,0.01,0,0.01,0c0,0-0.01,0-0.01,0c-0.15,0-0.27-0.05-0.33-0.15L69.25,58.67 M70.5,58.54
		c-0.29,0.17-0.6,0.28-0.84,0.29C69.9,58.82,70.21,58.71,70.5,58.54 M72.26,56.14c-0.01,0.01-0.02,0.02-0.03,0.03
		c-0.39,0.41-0.7,0.99-0.81,1.78c0,0-0.44,0.33-0.92,0.59l0,0l0,0c0.49-0.26,0.92-0.59,0.92-0.59c0.1-0.79,0.41-1.36,0.81-1.78
		C72.24,56.16,72.25,56.15,72.26,56.14 M85.6,55.51c0,0-0.09,0.29-0.29,0.67c-0.21,0.38-0.53,0.89-1.02,1.23
		c-0.28,0.2-0.6,0.38-0.97,0.49c0,0,0,0-0.01,0h0c0,0,0,0,0.01,0c0.37-0.11,0.7-0.28,0.97-0.49c0.49-0.34,0.82-0.85,1.02-1.23
		C85.51,55.79,85.6,55.51,85.6,55.51 M76.08,55.3l0.28,0.21c0.05-0.04,0.12-0.06,0.22-0.06c0.06,0,0.14,0.01,0.21,0.02l0,0
		c-0.08-0.01-0.15-0.02-0.21-0.02c-0.1,0-0.17,0.02-0.22,0.06L76.08,55.3L76.08,55.3 M73.59,55.25c-0.46,0.18-0.94,0.46-1.33,0.89
		C72.65,55.71,73.12,55.43,73.59,55.25 M73.61,55.24c-0.01,0-0.01,0.01-0.02,0.01l0,0l0,0C73.59,55.24,73.6,55.24,73.61,55.24
		 M73.72,55.2L73.72,55.2c-0.04,0.01-0.08,0.03-0.12,0.04C73.65,55.22,73.68,55.21,73.72,55.2"/>
	<path class="st679" d="M70.79,51.09c-0.53,0-1.06,0.04-1.59,0.12c-0.66,0.11-0.95,0.93-1.41,1.38c-0.51,0.6-1.24,0.81-1.96,1.1
		c-0.71,0.31-1.39,0.72-1.73,1.7c-0.06,0.22-0.26,0.31-0.48,0.31c-0.06,0-0.12-0.01-0.19-0.02c-3.13-1.61-6.17-2.84-9.5-3.85
		c-0.8-0.28-2.19-0.41-3.71-0.41c-0.53,0-1.07,0.02-1.61,0.05c-2.08,0.11-4.06,0.44-4.72,0.6c-0.66,0.25-1.48,0.73-2.13,1.19
		c-0.68,0.49-1.31,1.03-1.86,1.61c-1.1,1.14-1.95,2.44-2.46,3.54c-0.28,0.58-0.45,1.07-0.59,1.53c-0.14,0.47-0.21,0.86-0.25,1.16
		c-0.01,0.07-0.01,0.13-0.02,0.19c-0.03,0.4,0.02,0.63,0.07,0.63c0.01,0,0.02-0.01,0.03-0.02c1.76-2.01,3.17-3.56,4.5-4.84
		c1.33-1.26,2.58-2.21,3.93-2.62C45.95,54.21,48.05,54,50.2,54c0.02,0,0.04,0,0.06,0c2.17,0,4.32,0.22,5.24,0.52
		c2.27,0.72,4.38,1.94,6.51,3.48c0.25,0.16,0.48,0.22,0.7,0.22c0.65,0,1.18-0.56,1.87-0.73c0.36,0.02,0.7,0.16,0.98,0.16
		c0.05,0,0.1,0,0.14-0.01c0.96-0.34,2.54,0.15,2.88-1.45c1.61-0.68,3.34-1,5.15-1l0,0c0,0,0.01,0,0.01,0c0.45,0,0.91,0.02,1.37,0.06
		c0.1-0.01,0.19-0.01,0.29-0.01c0.23,0,0.46,0.02,0.7,0.06l0,0c0.23,0.04,0.47,0.1,0.71,0.17l0,0c0.05,0.01,0.09,0.03,0.14,0.04
		c1,0.45,1.83,1.32,2.73,1.93c0.85,0.75,1.78,0.63,2.65,1.28c0.46,0.27,0.8,0.78,1.14,0.99l0,0c0.23-0.18,0.74-0.04,0.63-0.42
		c-0.04-0.51-0.44-0.9-0.69-1.29c-0.03-0.03-0.07-0.07-0.1-0.1c0,0,0,0,0,0h0c-1.25-1.29-2.46-2.77-3.8-3.74
		C76.76,52.28,73.74,51.09,70.79,51.09"/>
</g>
<g>
	<path d="M122.52,66.47c3.86,2.09,7.72,4.19,11.59,6.27c1.48,0.8,2.99,1.53,4.46,2.36c0.55,0.31,1.37,0.55,1.06,1.53
		c-4.87,1.85-9.54,4.12-14.2,6.43c-4.72,2.34-9.36,4.79-13.85,7.55c-4.28,2.64-8.71,5.04-13.13,7.45c-2.33,1.27-4.84,2.22-7.17,3.49
		c-3.9,2.14-7.71,4.44-11.57,6.65c-1.41,0.8-2.9,1.48-4.3,2.29c-2,1.16-3.99,2.34-5.93,3.61c-0.71,0.46-1.21,0.44-1.89,0.03
		c-3.12-1.88-6.26-3.73-9.4-5.57c-2.1-1.23-4.14-2.56-6.32-3.63c-3.48-1.71-7.05-3.24-10.57-4.86c-2.94-1.35-5.87-2.74-8.83-4.07
		c-0.94-0.42-1.95-0.73-2.95-1c-3.07-0.84-6.15-1.63-9.23-2.45c-0.39-0.1-0.76-0.27-1.13-0.43c-1.74-0.78-3.49-1.55-5.22-2.35
		c-0.54-0.25-1.04-0.58-1.93-1.09c3.21-1.35,6-2.49,8.76-3.69c2.65-1.15,5.25-2.41,7.9-3.54c2.5-1.07,4.62-2.87,7.28-3.64
		c1.12-0.32,1.2-0.85,0.98-2.03c-0.29-1.59-0.55-3.19-0.74-4.8c-0.13-1.15,0.43-2.05,1.45-2.55c3.05-1.52,6.11-3.02,9.19-4.49
		c3.28-1.57,6.6-3.06,9.88-4.63c3.54-1.69,6.98-3.59,10.79-4.69c1.48-0.43,2.83-1.26,4.29-1.74c3.78-1.25,7.55-2.54,11.4-3.55
		c1.93-0.51,4.01-0.63,6.01-0.59c2.89,0.06,5.74,0.64,8.61,1.07c4.44,0.67,8.47,2.41,12.47,4.19c2.42,1.08,4.76,2.35,7.26,3.28
		c2.31,0.86,3.48,2.76,4.09,5.02C122,63.68,122.23,65.1,122.52,66.47z M70.08,111.53c0,0-0.02-0.04-0.02-0.04
		c0.04,0.25,0.08,0.49,0.15,0.99c1.26-0.81,2.29-1.56,3.38-2.17c4.03-2.27,8.09-4.5,12.14-6.73c3.45-1.89,6.91-3.77,10.38-5.62
		c0.82-0.43,1.74-0.67,2.54-1.12c3.73-2.11,7.43-4.28,11.16-6.39c4.29-2.42,8.54-4.92,12.92-7.16c4.74-2.42,9.62-4.57,14.43-6.85
		c0.13-0.06,0.19-0.27,0.42-0.62c-4.97-2.71-9.92-5.34-14.95-7.98c-0.08,0.32-0.18,0.49-0.15,0.63c0.09,0.51,0.23,1.01,0.35,1.51
		c0.42,1.67,0.03,3.03-1.43,3.95c-3.66,2.31-7.21,4.81-11.33,6.3c-1.19,0.43-2.36,0.97-3.46,1.6c-2.95,1.69-5.81,3.53-8.8,5.15
		c-2.64,1.43-5.4,2.65-8.1,3.97c-2.49,1.23-4.95,2.53-7.48,3.68c-1.36,0.62-2.88,0.91-4.26,1.49c-2.41,1.02-4.88,0.85-7.35,0.45
		c-1.88-0.31-3.73-0.82-5.59-1.23c-0.74-0.17-1.48-0.3-2.21-0.5c-2.17-0.62-4.35-1.24-6.51-1.91c-2.27-0.7-4.55-1.38-6.78-2.2
		c-1.9-0.69-3.7-1.65-5.6-2.33c-3-1.08-5.28-2.77-5.96-6.08c-0.08-0.4-0.12-0.8-0.21-1.2c-0.21-0.93-0.43-1.85-0.7-2.98
		c-3.77,1.91-7.3,3.7-10.93,5.54c0.34,0.45,0.63,0.83,0.92,1.21c-0.07,0.1-0.14,0.19-0.21,0.29c-0.61-0.32-1.22-0.64-1.67-0.88
		c-1.97,0.74-3.86,1.44-5.74,2.18c-0.95,0.38-2.03,0.57-2.62,1.56L16.88,88c-0.81-0.18-1.39,0.19-2.05,0.81
		c0.33,0.23,0.53,0.42,0.76,0.52c0.85,0.36,1.78,0.59,2.57,1.04c2.39,1.36,4.98,2.16,7.62,2.8c3.54,0.86,7.05,1.78,10.35,3.41
		c2.65,1.3,5.4,2.38,8.07,3.65c3.97,1.89,7.94,3.78,11.83,5.82c3.33,1.75,6.54,3.71,9.79,5.6c0.93,0.54,1.83,1.12,2.95,1.81
		c0.25-0.41,0.52-0.86,0.81-1.31C69.74,111.93,69.92,111.74,70.08,111.53z M37.35,70.72c0,0.47-0.07,1.04,0.01,1.59
		c0.35,2.34,0.65,4.7,1.15,7.01c0.37,1.74,0.96,3.43,1.58,5.11c0.2,0.54,0.72,1.03,1.2,1.39c2.82,2.12,6.2,3.15,9.45,4.27
		c5.74,1.99,11.59,3.74,17.6,4.78c1.71,0.3,3.43,0.81,5.13,0.77c4.36-0.09,8.36-1.57,12.14-3.7c1.21-0.68,2.43-1.33,3.67-1.96
		c3.21-1.61,6.46-3.16,9.65-4.81c2.01-1.04,4.06-2.05,5.88-3.37c1.87-1.36,4.33-1.66,5.93-3.44c0.09-0.1,0.33-0.06,0.49-0.11
		c0.66-0.19,1.39-0.25,1.95-0.6c2.66-1.63,5.28-3.32,7.89-5.03c0.84-0.55,0.91-1.41,0.74-2.33c-0.23-1.31-0.41-2.62-0.63-3.93
		c-0.26-1.54-0.39-3.12-0.84-4.6c-0.52-1.73-1.73-2.97-3.44-3.69c-2.18-0.92-4.37-1.83-6.51-2.86c-5.43-2.61-11.09-4.37-17.08-5.06
		c-1.31-0.15-2.64-0.2-3.96-0.27c-0.74-0.04-1.48-0.07-2.21-0.01c-0.92,0.07-1.84,0.21-2.75,0.37c-0.9,0.16-1.8,0.36-2.69,0.59
		c-0.67,0.18-1.31,0.44-1.96,0.65c-3.03,0.97-6.08,1.91-9.1,2.92c-1.15,0.38-2.21,1.04-3.37,1.37c-3.7,1.05-7.05,2.89-10.48,4.55
		c-1.93,0.93-3.83,1.91-5.78,2.8c-3.14,1.44-6.31,2.8-9.44,4.27c-1.13,0.53-2.17,1.26-3.26,1.9c0.73,0.76,0.73,0.8,1.41,0.88
		c3.55,0.37,6.91,1.46,10.29,2.54c2.25,0.72,4.65,0.95,6.96,1.46c2.88,0.63,5.75,1.34,8.63,1.98c1.19,0.26,2.4,0.41,3.6,0.61
		c0.79,0.13,0.91,0.59,0.59,1.34c-0.78-0.19-1.55-0.42-2.32-0.57c-1.48-0.29-2.97-0.5-4.45-0.81c-2.71-0.57-5.43-1.15-8.12-1.79
		c-2.08-0.49-4.15-1.08-6.22-1.63c-2.24-0.6-4.46-1.25-6.71-1.78C40.48,71.19,38.95,71,37.35,70.72z"/>
	<path d="M115.58,59.35c0.57,0.71,0.41,1.12-0.17,1.41c-2.26,1.15-4.58,2.19-6.77,3.45c-3.87,2.24-8.04,3.81-12.13,5.55
		c-3.51,1.49-7.04,2.96-10.55,4.45c-2.87,1.21-5.73,2.43-8.63,3.66c-0.5-0.57-0.41-0.9,0.25-1.18c2.01-0.87,4-1.77,6-2.65
		c2.96-1.3,5.92-2.62,8.9-3.89c1.7-0.72,3.47-1.28,5.15-2.02c3.64-1.62,7.28-3.25,10.87-4.99
		C110.87,61.99,113.17,60.65,115.58,59.35z"/>
	<path d="M77.44,93.91c-0.24-0.09-0.35-0.11-0.43-0.17c-0.09-0.07-0.16-0.18-0.2-0.28c-0.07-0.22-0.15-0.44-0.17-0.66
		c-0.4-4.54-0.97-9.04-2-13.49c-0.02-0.08,0.11-0.19,0.17-0.3c0.67-0.2,0.85,0.36,0.91,0.76c0.66,4.27,1.84,8.46,1.84,12.83
		C77.57,93.02,77.49,93.45,77.44,93.91z"/>
	<path d="M70.08,111.53c0.2-1.13,0.29-2.29,0.63-3.38c0.77-2.42,1.67-4.81,2.53-7.2c0.05-0.13,0.24-0.21,0.37-0.32
		c0.31,0.58,0.31,0.58-0.74,3.58c-0.42,1.2-0.82,2.41-1.28,3.59c-0.48,1.24-1.03,2.45-1.55,3.68
		C70.06,111.49,70.08,111.53,70.08,111.53z"/>
	<path d="M128.91,74.72c-0.81-0.07-1.62-0.1-2.41-0.23c-0.23-0.04-0.42-0.36-0.91-0.8c0.73,0.04,1.07-0.01,1.36,0.08
		c0.46,0.14,0.81,0.28,1.23-0.18c0.65-0.73,1.52-0.51,2.64-0.45c-0.79,0.7-1.81,0.69-1.96,1.63L128.91,74.72z"/>
	<path d="M67.37,107.59c0.82-0.63,1.63-1.27,2.45-1.89c0.18-0.13,0.38-0.22,0.6-0.35C70.53,106.38,70.53,106.38,67.37,107.59z"/>
	<path d="M128.86,74.76c0.5,0.11,1.04,0.13,1.47,0.36c0.24,0.13,0.29,0.6,0.48,1.03c-0.71,0-1.2,0-1.82,0
		c-0.03-0.44-0.05-0.94-0.08-1.43C128.91,74.72,128.86,74.76,128.86,74.76z"/>
	<path d="M28.45,86.78c1.14,0.92,0.66,1.4-0.43,1.91C28.19,87.93,28.32,87.36,28.45,86.78z"/>
</g>
</svg>
