<?xml version="1.0" encoding="utf-8"?>
<!-- Generator: Adobe Illustrator 23.0.1, SVG Export Plug-In . SVG Version: 6.00 Build 0)  -->
<svg version="1.1" id="Layer_1" xmlns="http://www.w3.org/2000/svg" xmlns:xlink="http://www.w3.org/1999/xlink" x="0px" y="0px"
	 viewBox="0 0 150 150" style="enable-background:new 0 0 150 150;" xml:space="preserve">
<style type="text/css">
	.st0{fill:#F49AB4;}
	.st1{fill:#F28DA7;}
	.st2{fill:#E85072;}
	.st3{fill:#E84B6F;}
	.st4{fill:#EB5A7D;}
	.st5{fill:#EF7994;}
	.st6{fill:#F8BCCD;}
	.st7{fill:#F38CA8;}
	.st8{fill:#EF728F;}
	.st9{fill:#FCE4EB;}
	.st10{fill:#F0CCCF;}
	.st11{fill:#DE8D95;}
	.st12{fill:#EBBABF;}
	.st13{fill:#E7ACB2;}
	.st14{fill:#E39DA3;}
	.st15{fill:#F5DEE0;}
	.st16{fill:#D97A83;}
	.st17{fill:#E4A6AD;}
	.st18{fill:#E9B6BB;}
	.st19{fill:#DA9197;}
	.st20{fill:#CC7077;}
	.st21{fill:#C9646C;}
	.st22{fill:#D4848B;}
	.st23{fill:#D17A81;}
	.st24{fill:#DD9EA3;}
	.st25{fill:#C65760;}
	.st26{fill:#D48189;}
	.st27{fill:#CF6E76;}
	.st28{fill:#C1575F;}
	.st29{fill:#B8424B;}
	.st30{fill:#B33C43;}
	.st31{fill:#BB4952;}
	.st32{fill:#C65E66;}
	.st33{fill:#BC4F57;}
	.st34{fill:#B0353D;}
	.st35{fill:#D67E84;}
	.st36{fill:#C6636B;}
	.st37{fill:#CA6C72;}
	.st38{fill:#B9454D;}
	.st39{fill:#C05B63;}
	.st40{fill:#C0545B;}
	.st41{fill:#BE4C53;}
	.st42{fill:#B43C44;}
	.st43{fill:#DF999F;}
	.st44{fill:#D27980;}
	.st45{fill:#C1555D;}
	.st46{fill:#CB6F76;}
	.st47{fill:#C8676E;}
	.st48{fill:#D5838A;}
	.st49{fill:#C65D64;}
	.st50{fill:#F1D1D4;}
	.st51{fill:#D38087;}
	.st52{fill:#CF737C;}
	.st53{fill:#D98C94;}
	.st54{fill:#E6B3B9;}
	.st55{fill:#D8898F;}
	.st56{fill:#C66269;}
	.st57{fill:#C96A72;}
	.st58{fill:#DD9399;}
	.st59{fill:#CF747B;}
	.st60{fill:#D48188;}
	.st61{fill:#D37D85;}
	.st62{fill:#DC9298;}
	.st63{fill:#D8838B;}
	.st64{fill:#FAECED;}
	.st65{fill:#EFCBD0;}
	.st66{fill:#EDC1C5;}
	.st67{fill:#D28089;}
	.st68{fill:#CB747D;}
	.st69{fill:#A8343C;}
	.st70{fill:#A62F37;}
	.st71{fill:#B03E44;}
	.st72{fill:#C25C63;}
	.st73{fill:#E1A8AC;}
	.st74{fill:#BE535C;}
	.st75{fill:#CE727C;}
	.st76{fill:#F5D8DA;}
	.st77{fill:#D8BAE7;}
	.st78{fill:#BC8FD2;}
	.st79{fill:#B17FC9;}
	.st80{fill:#7D3CA4;}
	.st81{fill:#884BAE;}
	.st82{fill:#A369BF;}
	.st83{fill:#D2B5E2;}
	.st84{fill:#9A62BC;}
	.st85{fill:#B17ECB;}
	.st86{fill:#ECE0F2;}
	.st87{fill:#FBCBC8;}
	.st88{fill:#F5908C;}
	.st89{fill:#F28580;}
	.st90{fill:#E64640;}
	.st91{fill:#E5413B;}
	.st92{fill:#E74E49;}
	.st93{fill:#ED6D68;}
	.st94{fill:#F7B5B0;}
	.st95{fill:#ED6660;}
	.st96{fill:#F48580;}
	.st97{fill:#FBDFDF;}
	.st98{fill:#F9C1C0;}
	.st99{fill:#F7B7B6;}
	.st100{fill:#EF7573;}
	.st101{fill:#EF6F6D;}
	.st102{fill:#F17F7C;}
	.st103{fill:#F4A19F;}
	.st104{fill:#F39998;}
	.st105{fill:#EC7271;}
	.st106{fill:#FAD1CF;}
	.st107{fill:#FADCDC;}
	.st108{fill:#F39391;}
	.st109{fill:#FDECEC;}
	.st110{fill:#FCDDDD;}
	.st111{fill:#ED8280;}
	.st112{fill:#E66160;}
	.st113{fill:#F18784;}
	.st114{fill:#F19593;}
	.st115{fill:#EB7675;}
	.st116{fill:#E86867;}
	.st117{fill:#F28785;}
	.st118{fill:#F3A7A7;}
	.st119{fill:#F08C8B;}
	.st120{fill:#F08785;}
	.st121{fill:#E55D5B;}
	.st122{fill:#E86D6C;}
	.st123{fill:#E85F5D;}
	.st124{fill:#E75958;}
	.st125{fill:#EA6664;}
	.st126{fill:#E76260;}
	.st127{fill:#E04948;}
	.st128{fill:#ED7371;}
	.st129{fill:#EA6B6A;}
	.st130{fill:#EB6763;}
	.st131{fill:#E45352;}
	.st132{fill:#E54E4C;}
	.st133{fill:#DE3635;}
	.st134{fill:#E65958;}
	.st135{fill:#E0413E;}
	.st136{fill:#EA6D6A;}
	.st137{fill:#EE9493;}
	.st138{fill:#EA6866;}
	.st139{fill:#F2A8A6;}
	.st140{fill:#E14543;}
	.st141{fill:#E3413F;}
	.st142{fill:#E64A48;}
	.st143{fill:#E56967;}
	.st144{fill:#E33F3D;}
	.st145{fill:#EB7775;}
	.st146{fill:#EE8483;}
	.st147{fill:#E64845;}
	.st148{fill:#E75655;}
	.st149{fill:#E65451;}
	.st150{fill:#EA7473;}
	.st151{fill:#E55B57;}
	.st152{fill:#E75756;}
	.st153{fill:#EB7472;}
	.st154{fill:#EE8C8A;}
	.st155{fill:#F5A3A2;}
	.st156{fill:#E14A49;}
	.st157{fill:#E14D4C;}
	.st158{fill:#E14B49;}
	.st159{fill:#DE3E3D;}
	.st160{fill:#E45350;}
	.st161{fill:#E14544;}
	.st162{fill:#E54E4B;}
	.st163{fill:#E34240;}
	.st164{fill:#E75C5A;}
	.st165{fill:#EB7C7B;}
	.st166{fill:#F3A2A1;}
	.st167{fill:#EA7877;}
	.st168{fill:#E66B6A;}
	.st169{fill:#E96A69;}
	.st170{fill:#E56160;}
	.st171{fill:#E44845;}
	.st172{fill:#EC7473;}
	.st173{fill:#F9C0D3;}
	.st174{fill:#F298B5;}
	.st175{fill:#EE89A7;}
	.st176{fill:#E54D73;}
	.st177{fill:#E44771;}
	.st178{fill:#E7567E;}
	.st179{fill:#EC7797;}
	.st180{fill:#F8BCCF;}
	.st181{fill:#EB6D8F;}
	.st182{fill:#F089A8;}
	.st183{fill:#FCE2EB;}
	.st184{fill:#E55B7F;}
	.st185{fill:#E6708E;}
	.st186{fill:#EB87A2;}
	.st187{fill:#E25677;}
	.st188{fill:#E7678B;}
	.st189{fill:#FBD7E3;}
	.st190{fill:#ED80A1;}
	.st191{fill:#E24166;}
	.st192{fill:#E13B65;}
	.st193{fill:#E34870;}
	.st194{fill:#E76486;}
	.st195{fill:#F49DB8;}
	.st196{fill:#F7BFD1;}
	.st197{fill:#E65C7F;}
	.st198{fill:#F6ABC4;}
	.st199{fill:#F6A7C2;}
	.st200{fill:#EA6189;}
	.st201{fill:#DB3258;}
	.st202{fill:#DA2E55;}
	.st203{fill:#F7B2C9;}
	.st204{fill:#EA6A8D;}
	.st205{fill:#DC355B;}
	.st206{fill:#DB3159;}
	.st207{fill:#DF3C63;}
	.st208{fill:#F9C5D6;}
	.st209{fill:#EB7697;}
	.st210{fill:#DE3B61;}
	.st211{fill:#DE375F;}
	.st212{fill:#E1426A;}
	.st213{fill:#FDE7EE;}
	.st214{fill:#EE89A9;}
	.st215{fill:#E2456B;}
	.st216{fill:#E14069;}
	.st217{fill:#E44D75;}
	.st218{fill:#E86B8C;}
	.st219{fill:#EE7A9C;}
	.st220{fill:#F5A8C0;}
	.st221{fill:#FACBDA;}
	.st222{fill:#E65A7D;}
	.st223{fill:#E04169;}
	.st224{fill:#FEF5F9;}
	.st225{fill:#F191B0;}
	.st226{fill:#EA7292;}
	.st227{fill:#F6B4C9;}
	.st228{fill:#FBD8E5;}
	.st229{fill:#E96C8F;}
	.st230{fill:#E35477;}
	.st231{fill:#EA7396;}
	.st232{fill:#EB7A9D;}
	.st233{fill:#E8698D;}
	.st234{fill:#EB7094;}
	.st235{fill:#E04B6E;}
	.st236{fill:#E66085;}
	.st237{fill:#EB7294;}
	.st238{fill:#E7678C;}
	.st239{fill:#EA6D91;}
	.st240{fill:#E14C71;}
	.st241{fill:#EE7A9D;}
	.st242{fill:#F393B2;}
	.st243{fill:#DC3F64;}
	.st244{fill:#EF82A3;}
	.st245{fill:#F39DB9;}
	.st246{fill:#DF466B;}
	.st247{fill:#DF4469;}
	.st248{fill:#F29A98;}
	.st249{fill:#E64F4D;}
	.st250{fill:#E74947;}
	.st251{fill:#E85956;}
	.st252{fill:#EC7775;}
	.st253{fill:#F8BCBA;}
	.st254{fill:#EC6F6D;}
	.st255{fill:#FCE2E2;}
	.st256{fill:#F8C8C6;}
	.st257{fill:#F08B89;}
	.st258{fill:#F18A89;}
	.st259{fill:#B093A4;}
	.st260{fill:#A38295;}
	.st261{fill:#6F455A;}
	.st262{fill:#694055;}
	.st263{fill:#794F64;}
	.st264{fill:#936F83;}
	.st265{fill:#CDB7C1;}
	.st266{fill:#B596A5;}
	.st267{fill:#A58394;}
	.st268{fill:#8C667A;}
	.st269{fill:#B696A7;}
	.st270{fill:#E8E0E7;}
	.st271{fill:#E1BCC2;}
	.st272{fill:#A9666E;}
	.st273{fill:#681C23;}
	.st274{fill:#641920;}
	.st275{fill:#73242D;}
	.st276{fill:#8D3F48;}
	.st277{fill:#C69197;}
	.st278{fill:#893841;}
	.st279{fill:#E3CCCE;}
	.st280{fill:#6F292E;}
	.st281{fill:#A15A63;}
	.st282{fill:#944952;}
	.st283{fill:#944953;}
	.st284{fill:#964A53;}
	.st285{fill:#984B54;}
	.st286{fill:#974A53;}
	.st287{fill:#A25A62;}
	.st288{fill:#D2BCC8;}
	.st289{fill:#C8B2BE;}
	.st290{fill:#936A80;}
	.st291{fill:#8E667B;}
	.st292{fill:#9B7589;}
	.st293{fill:#B293A3;}
	.st294{fill:#916B7F;}
	.st295{fill:#DDCCD6;}
	.st296{fill:#AC8B9C;}
	.st297{fill:#F1EBEF;}
	.st298{fill:#9C7A8C;}
	.st299{fill:#8F6C80;}
	.st300{fill:#B99DAC;}
	.st301{fill:#A27F91;}
	.st302{fill:#C2A7B6;}
	.st303{fill:#AB8E9F;}
	.st304{fill:#936D82;}
	.st305{fill:#856174;}
	.st306{fill:#B99DAB;}
	.st307{fill:#C2A9B6;}
	.st308{fill:#A38091;}
	.st309{fill:#BBA3B0;}
	.st310{fill:#7A5468;}
	.st311{fill:#855F73;}
	.st312{fill:#AE8E9F;}
	.st313{fill:#7C556A;}
	.st314{fill:#7B5066;}
	.st315{fill:#855C71;}
	.st316{fill:#AF8E9F;}
	.st317{fill:#734B60;}
	.st318{fill:#694256;}
	.st319{fill:#916A80;}
	.st320{fill:#886378;}
	.st321{fill:#875C71;}
	.st322{fill:#714B5E;}
	.st323{fill:#582F42;}
	.st324{fill:#795066;}
	.st325{fill:#5E3A4B;}
	.st326{fill:#8A6578;}
	.st327{fill:#A98E9D;}
	.st328{fill:#B9A1B1;}
	.st329{fill:#B08F9F;}
	.st330{fill:#B898AA;}
	.st331{fill:#896578;}
	.st332{fill:#653C50;}
	.st333{fill:#623A4E;}
	.st334{fill:#6C4257;}
	.st335{fill:#B28FA1;}
	.st336{fill:#80596E;}
	.st337{fill:#7F586C;}
	.st338{fill:#765063;}
	.st339{fill:#683F53;}
	.st340{fill:#774E63;}
	.st341{fill:#704B5F;}
	.st342{fill:#674355;}
	.st343{fill:#7F5A6E;}
	.st344{fill:#815A6E;}
	.st345{fill:#6A4558;}
	.st346{fill:#5D374A;}
	.st347{fill:#926D80;}
	.st348{fill:#70475B;}
	.st349{fill:#72495E;}
	.st350{fill:#673D52;}
	.st351{fill:#673D51;}
	.st352{fill:#60364B;}
	.st353{fill:#795265;}
	.st354{fill:#683F52;}
	.st355{fill:#7A5368;}
	.st356{fill:#987387;}
	.st357{fill:#70475C;}
	.st358{fill:#A07D92;}
	.st359{fill:#81596E;}
	.st360{fill:#926C7F;}
	.st361{fill:#80596D;}
	.st362{fill:#CDC0E4;}
	.st363{fill:#A998CF;}
	.st364{fill:#644DA1;}
	.st365{fill:#5E479E;}
	.st366{fill:#6F56A9;}
	.st367{fill:#755CAC;}
	.st368{fill:#8975BA;}
	.st369{fill:#C4BAE0;}
	.st370{fill:#755DAD;}
	.st371{fill:#846DB7;}
	.st372{fill:#E7E2F2;}
	.st373{fill:#9B89C5;}
	.st374{fill:#8871B8;}
	.st375{fill:#9C89C6;}
	.st376{fill:#8673B9;}
	.st377{fill:#B9E1BA;}
	.st378{fill:#ADDBAE;}
	.st379{fill:#99D09A;}
	.st380{fill:#65B567;}
	.st381{fill:#5FB261;}
	.st382{fill:#70BB71;}
	.st383{fill:#8DCB8E;}
	.st384{fill:#CBE9CB;}
	.st385{fill:#86C687;}
	.st386{fill:#98D099;}
	.st387{fill:#EBF5EB;}
	.st388{fill:#B9D6C9;}
	.st389{fill:#8EBD9E;}
	.st390{fill:#7DB18E;}
	.st391{fill:#408251;}
	.st392{fill:#3A7F4C;}
	.st393{fill:#4A8C5B;}
	.st394{fill:#68A279;}
	.st395{fill:#B5D4BE;}
	.st396{fill:#7CB38B;}
	.st397{fill:#619D71;}
	.st398{fill:#E0ECE4;}
	.st399{fill:#74A38C;}
	.st400{fill:#679880;}
	.st401{fill:#669780;}
	.st402{fill:#669881;}
	.st403{fill:#285E41;}
	.st404{fill:#235A3C;}
	.st405{fill:#31684A;}
	.st406{fill:#4D8268;}
	.st407{fill:#A1C2B0;}
	.st408{fill:#679981;}
	.st409{fill:#467B62;}
	.st410{fill:#D6E5DF;}
	.st411{fill:#8ECA8F;}
	.st412{fill:#7DC07F;}
	.st413{fill:#409841;}
	.st414{fill:#3A933C;}
	.st415{fill:#4AA14B;}
	.st416{fill:#68B569;}
	.st417{fill:#7CC07D;}
	.st418{fill:#B5DDB5;}
	.st419{fill:#61B062;}
	.st420{fill:#7CC17E;}
	.st421{fill:#E0EFE0;}
	.st422{fill:#EBF5DE;}
	.st423{fill:#D4EAB8;}
	.st424{fill:#D2E9B4;}
	.st425{fill:#D8ECBE;}
	.st426{fill:#E2F0CE;}
	.st427{fill:#F3F9EA;}
	.st428{fill:#DFF0CA;}
	.st429{fill:#FAFDF7;}
	.st430{fill:#D3C9BE;}
	.st431{fill:#CBBEB3;}
	.st432{fill:#BBAC9F;}
	.st433{fill:#97826F;}
	.st434{fill:#947E69;}
	.st435{fill:#9F8A79;}
	.st436{fill:#B5A495;}
	.st437{fill:#DED6CE;}
	.st438{fill:#BBAD9F;}
	.st439{fill:#AE9E8D;}
	.st440{fill:#F2EFEC;}
	.st441{fill:#B1A091;}
	.st442{fill:#B1A090;}
	.st443{fill:#D8BACF;}
	.st444{fill:#976286;}
	.st445{fill:#905778;}
	.st446{fill:#4F1939;}
	.st447{fill:#4C1637;}
	.st448{fill:#5A2144;}
	.st449{fill:#773B60;}
	.st450{fill:#B88FAD;}
	.st451{fill:#6E345A;}
	.st452{fill:#8E567D;}
	.st453{fill:#E1CCDA;}
	.st454{fill:#C4E2A7;}
	.st455{fill:#93C35F;}
	.st456{fill:#8EC15A;}
	.st457{fill:#9AC868;}
	.st458{fill:#B0D587;}
	.st459{fill:#DCEBC3;}
	.st460{fill:#C8E0AA;}
	.st461{fill:#ABD280;}
	.st462{fill:#CAE2A9;}
	.st463{fill:#EFF8E7;}
	.st464{fill:#FFF6C0;}
	.st465{fill:#FFEC97;}
	.st466{fill:#FFDC4B;}
	.st467{fill:#FFD945;}
	.st468{fill:#FFDD54;}
	.st469{fill:#FFE774;}
	.st470{fill:#FFF4BA;}
	.st471{fill:#FFE46C;}
	.st472{fill:#FFF9E2;}
	.st473{fill:#FDE2C1;}
	.st474{fill:#F9CA98;}
	.st475{fill:#F9C18A;}
	.st476{fill:#F5994E;}
	.st477{fill:#F49448;}
	.st478{fill:#F8A158;}
	.st479{fill:#F8B577;}
	.st480{fill:#FCDDBC;}
	.st481{fill:#F8B06F;}
	.st482{fill:#FFEFE2;}
	.st483{fill:#F8A7A4;}
	.st484{fill:#EF8262;}
	.st485{fill:#EC605A;}
	.st486{fill:#EB5B55;}
	.st487{fill:#EC6964;}
	.st488{fill:#F28783;}
	.st489{fill:#F9C4C1;}
	.st490{fill:#F2817A;}
	.st491{fill:#EB6449;}
	.st492{fill:#FCE7E7;}
	.st493{fill:#FFEA88;}
	.st494{fill:#FFEB87;}
	.st495{fill:#FDF2E3;}
	.st496{fill:#FDEFDD;}
	.st497{fill:#F9E1C4;}
	.st498{fill:#FADEB9;}
	.st499{fill:#FADDB7;}
	.st500{fill:#FAE0BF;}
	.st501{fill:#FBE9CF;}
	.st502{fill:#F9DAB8;}
	.st503{fill:#FDF5EB;}
	.st504{fill:#FBE6CB;}
	.st505{fill:#FFFBF7;}
	.st506{fill:#FBDFBE;}
	.st507{fill:#F7D8B5;}
	.st508{fill:#FBE8CF;}
	.st509{fill:#FBE3C8;}
	.st510{fill:#F9E8CF;}
	.st511{fill:#F8DBB7;}
	.st512{fill:#FADBB5;}
	.st513{fill:#F7D5AE;}
	.st514{fill:#FDE9D5;}
	.st515{fill:#FAE3C8;}
	.st516{fill:#F7D1A4;}
	.st517{fill:#F5CD9D;}
	.st518{fill:#F7D8B0;}
	.st519{fill:#F8D4A9;}
	.st520{fill:#F8D3A6;}
	.st521{fill:#F8D8AF;}
	.st522{fill:#F7CD9E;}
	.st523{fill:#F4C896;}
	.st524{fill:#FBE3C5;}
	.st525{fill:#F7DBB8;}
	.st526{fill:#F7D8B1;}
	.st527{fill:#F7D7B0;}
	.st528{fill:#F8CD9F;}
	.st529{fill:#F8CD9E;}
	.st530{fill:#F1BE84;}
	.st531{fill:#F8D0A3;}
	.st532{fill:#F1C38D;}
	.st533{fill:#F8D8B1;}
	.st534{fill:#FBE2C8;}
	.st535{fill:#F9EAD3;}
	.st536{fill:#F9D3AA;}
	.st537{fill:#F7C896;}
	.st538{fill:#F7C794;}
	.st539{fill:#F7CA9A;}
	.st540{fill:#F7D3AB;}
	.st541{fill:#F8D8B5;}
	.st542{fill:#F9E6CF;}
	.st543{fill:#F7C897;}
	.st544{fill:#F8D3AA;}
	.st545{fill:#F7CEA2;}
	.st546{fill:#F4CD9E;}
	.st547{fill:#F5D2A5;}
	.st548{fill:#FBE2C2;}
	.st549{fill:#F5D1A8;}
	.st550{fill:#F8D5AB;}
	.st551{fill:#F2C695;}
	.st552{fill:#F8D3A8;}
	.st553{fill:#F5C998;}
	.st554{fill:#F5C894;}
	.st555{fill:#F2C997;}
	.st556{fill:#F2C48D;}
	.st557{fill:#F4C694;}
	.st558{fill:#F5CE9D;}
	.st559{fill:#F4C594;}
	.st560{fill:#F5C995;}
	.st561{fill:#F4C48F;}
	.st562{fill:#F7D2A6;}
	.st563{fill:#F8DFBB;}
	.st564{fill:#FBE2C3;}
	.st565{fill:#F8CC9E;}
	.st566{fill:#FADFC1;}
	.st567{fill:#F9D8B5;}
	.st568{fill:#F4C997;}
	.st569{fill:#F9DDB8;}
	.st570{fill:#FDFCED;}
	.st571{fill:#FBF7D2;}
	.st572{fill:#F9F6CB;}
	.st573{fill:#F4EBA8;}
	.st574{fill:#F5E9A6;}
	.st575{fill:#F5EDAC;}
	.st576{fill:#F7F5C0;}
	.st577{fill:#FBFBE1;}
	.st578{fill:#F7F0BE;}
	.st579{fill:#FAF6CE;}
	.st580{fill:#FFFBF5;}
	.st581{fill:#BDDB97;}
	.st582{fill:#BBDC99;}
	.st583{fill:#BDDD99;}
	.st584{fill:#B0D484;}
	.st585{fill:#AFD484;}
	.st586{fill:#FFEA87;}
	.st587{fill:#D3E9BA;}
	.st588{fill:#E1EECE;}
	.st589{fill:#D3E8BB;}
	.st590{fill:#E3EECE;}
	.st591{opacity:0.9;}
	.st592{fill:#FFF8CD;}
	.st593{opacity:0.9;fill:#FFEE8A;}
	.st594{fill:#FFF19E;}
	.st595{fill:#FFF5B6;}
	.st596{fill:#FFFBE0;}
	.st597{fill:none;stroke:#FFF4B1;stroke-width:0;}
	.st598{fill:#FFFDF3;}
	.st599{fill:#FACEDD;}
	.st600{opacity:0.9;fill:#F38CAF;}
	.st601{fill:#F5A0BD;}
	.st602{fill:#F8B8CD;}
	.st603{fill:#FCE1EA;}
	.st604{fill:none;stroke:#F7B2C9;stroke-width:0;}
	.st605{fill:#FEF3F7;}
	.st606{fill:#FBDBB6;}
	.st607{fill:#FBD1A3;}
	.st608{fill:#F9B674;}
	.st609{fill:#F8B36E;}
	.st610{fill:#FABB7E;}
	.st611{fill:#FACB99;}
	.st612{fill:#FDE9D1;}
	.st613{fill:#FAC893;}
	.st614{fill:#F9D0A1;}
	.st615{fill:#FFF5EC;}
	.st616{fill:#D7ECC0;}
	.st617{fill:#B1D684;}
	.st618{fill:#ADD680;}
	.st619{fill:#B7D98D;}
	.st620{fill:#C8E2A7;}
	.st621{fill:#E8F2D6;}
	.st622{fill:#C3E0A0;}
	.st623{fill:#F5FAEF;}
	.st624{fill:#A87699;}
	.st625{fill:#A9716E;}
	.st626{fill:#9F698A;}
	.st627{fill:#9F698D;}
	.st628{fill:#65294F;}
	.st629{fill:#632638;}
	.st630{fill:#62244A;}
	.st631{fill:#612335;}
	.st632{fill:#6E3259;}
	.st633{fill:#6D2F40;}
	.st634{fill:#8B4E74;}
	.st635{fill:#C4A1BB;}
	.st636{fill:#9D688D;}
	.st637{fill:#82476E;}
	.st638{fill:#E7D6E1;}
	.st639{fill:#FFF9D6;}
	.st640{fill:#FFF2A6;}
	.st641{fill:#FFF4B0;}
	.st642{fill:#FFF7C4;}
	.st643{fill:#FFFCE6;}
	.st644{fill:#FFF3B5;}
	.st645{fill:#FFED8B;}
	.st646{fill:#FFED94;}
	.st647{fill:#FFF1A4;}
	.st648{fill:#FFF5BF;}
	.st649{fill:#FFF6CD;}
	.st650{fill:#FFE46E;}
	.st651{fill:#FFED98;}
	.st652{fill:#FFF3A9;}
	.st653{fill:#FFEC8D;}
	.st654{fill:#FFE66B;}
	.st655{fill:#FFEC8A;}
	.st656{fill:#FFE66D;}
	.st657{fill:#FFE571;}
	.st658{fill:#FFEF94;}
	.st659{fill:#FFEF9E;}
	.st660{fill:#FFED93;}
	.st661{fill:#FFE873;}
	.st662{fill:#FFE97A;}
	.st663{fill:#FFEC87;}
	.st664{fill:#FFF19F;}
	.st665{fill:#FFF1A8;}
	.st666{fill:#FFEA7E;}
	.st667{fill:#FFEB86;}
	.st668{fill:#FFEF97;}
	.st669{fill:#FFF2B0;}
	.st670{fill:#FFF4BC;}
	.st671{fill:#FFF5C1;}
	.st672{fill:#FFF8CF;}
	.st673{fill:#FFF8DC;}
	.st674{fill:#FFF0A0;}
	.st675{fill:#FFEE92;}
	.st676{fill:#FFF6CE;}
	.st677{fill:#FFFADD;}
	.st678{fill:#FFFBEC;}
	.st679{fill:#FFFDF5;}
	.st680{fill:#F49C52;}
	.st681{fill:#F69D52;}
	.st682{fill:#F8A55E;}
	.st683{fill:#F8B472;}
	.st684{fill:#F59D54;}
	.st685{fill:#F8A65F;}
	.st686{fill:#F8B474;}
	.st687{fill:#FDF3E9;}
	.st688{fill:#FAE8D1;}
	.st689{fill:#FAE8CF;}
	.st690{fill:#FAEBD4;}
	.st691{fill:#F9EDD7;}
	.st692{fill:#FBEFDE;}
	.st693{fill:#FBEFDD;}
	.st694{fill:#FDF8F1;}
	.st695{fill:#FBEDD7;}
	.st696{fill:#FBEFDC;}
	.st697{fill:#FFFBFA;}
	.st698{fill:#FFE771;}
	.st699{fill:#FFEB83;}
	.st700{fill:#FFED90;}
	.st701{fill:#F7B6CB;}
	.st702{fill:#F4A2BB;}
	.st703{fill:#EE7397;}
	.st704{fill:#ED6D94;}
	.st705{fill:#EF7C9F;}
	.st706{fill:#F399B5;}
	.st707{fill:#FAD1DE;}
	.st708{fill:#F291AE;}
	.st709{fill:#F3A1BB;}
	.st710{fill:#FDECF2;}
</style>
<g>
	<path class="st644" d="M101.15,27.17c-0.81,0-1.64,0.05-2.46,0.15c-1.83,0.1-2.86,0.52-3.57,0.52c-0.39,0-0.69-0.13-0.96-0.5
		c-0.02-0.02-0.05-0.02-0.09-0.02c-0.33,0-1.36,0.61-2.87,1.23c-1.57,0.64-3.6,1.26-6.27,1.26c-0.15,0-0.3,0-0.45-0.01
		c0.03,0.05,0.12,0.23,0.28,0.55c0.2,0.37,0.45,0.91,0.75,1.6c0.04,0,0.08,0,0.13-0.01c0.56-0.04,1.37-0.06,2.28-0.07
		c0.01,0,0.03,0,0.04,0c1.84,0,4.03,0.06,5.73,0.13c3.38,0.2,6.87,1.82,6.87,6.18c0,0.3-0.02,0.61-0.05,0.94
		c0,0,1.61,4.59,1.91,9.38c0.04,0.52,0.06,1.04,0.06,1.56c0,4.28-1.29,8.17-4.73,8.79c0,0-6.88,1.33-15.93,3.07
		c-1.68,0.32-3.4,0.63-5.14,0.9c0.05,0.06,0.1,0.12,0.15,0.19c0.09,0.11,0.18,0.21,0.27,0.32c0.16,0.18,0.33,0.36,0.49,0.55
		c0.02,0.02,0.04,0.05,0.06,0.07c0.11,0.13,0.24,0.26,0.37,0.4c0.16,0.19,0.33,0.38,0.51,0.57c0.14,0.15,0.27,0.3,0.41,0.45
		c0.15,0.16,0.31,0.33,0.48,0.5l0.62,0.63l0.77,0.8c0,0,0.01,0.01,0.01,0.01c0.26,0.27,0.53,0.54,0.81,0.81
		c0.16,0.16,0.32,0.32,0.49,0.47c0.21,0.2,0.42,0.4,0.63,0.6l0.19,0.19l0.09,0.09l0,0c0.46,0.44,0.93,0.89,1.39,1.34l0,0l2.19,1.99
		c0.91,0.84,1.83,1.67,2.75,2.47l1.39,1.2l0.17,0.15l0.08,0.07v0l0,0.01l0,0.02l0.01,0.06l-0.09,0.21l0,0
		c-0.22,0.33-0.47,0.66-0.67,0.92c0,0-0.01,0.01-0.01,0.01c-0.01,0.02-0.03,0.03-0.04,0.05c-0.4,0.5-0.69,0.79-0.69,0.79l0,0l0,0
		c-0.59,0.14-1.18,0.3-1.75,0.46c-0.02,0.01-0.04,0.01-0.06,0.02l0,0c-0.02,0.11-0.1,0.24-0.23,0.36c-0.44,0.45-1.45,0.96-2.43,1.45
		c-0.03,0.02-0.07,0.03-0.1,0.05c-0.01,0.01-0.02,0.01-0.03,0.02l0,0c-0.64,0.32-1.29,0.6-1.77,0.81c-0.01,0-0.02,0.01-0.02,0.01
		c-0.47,0.21-0.78,0.34-0.81,0.35c0,0,0,0,0,0c0,0,0,0,0,0c-0.11,0.02-0.22,0.03-0.33,0.05c-2.18,0.39-3.68,1.28-4.68,2.36
		c0.71,0.5,1.5,0.95,2.2,1.42c0.7,0.78,1.15,1.66,1.79,2.87c0.48,1.09,1.46,1.38,2.54,1.38c0.8,0,1.66-0.16,2.43-0.27
		c0.27-0.08,0.54-0.11,0.81-0.11c1.97,0,3.73,1.86,5.61,1.87c0.08,0.01,0.17,0.01,0.25,0.01c1.06,0,2.1-0.44,3.09-0.88
		c1-0.44,1.95-0.88,2.86-0.88c0.5,0,0.99,0.14,1.46,0.49c-0.15-0.13-0.22-0.24-0.23-0.32c0-0.21,0.4-0.29,1.02-0.29
		c1.93,0,5.95,0.83,5.95,1.28c0,0.06-0.07,0.11-0.22,0.16c0.24,0.07,0.65,1.12,0.69,1.85l0,0l0,0c-0.09,0.52-0.04,1.35-0.25,1.56
		c-1.7,1.74-1.86,4.95-2.62,7.47c0.08,0.18,1.96,0.55,3.91,1.3l17.14,6.59l0.02-0.12l-0.46-24.9c0-0.18-0.01-0.36-0.01-0.54
		c0-1.93,0.19-3.95,0.63-5.31c0.56-1.38,1.17-2.77,1.53-4.22c0.16-0.72,0.26-1.45,0.26-2.2c0-0.73-0.09-1.47-0.31-2.24
		c-0.47-0.7-1.84-0.5-2.33-1.14c-0.1-0.2-0.49-0.61-1.08-1.16c-0.3-0.28-0.64-0.59-1.04-0.93c-0.4-0.32-0.85-0.66-1.33-1.03
		c-1.91-1.48-4.44-3.08-6.95-4.46c-1.27-0.66-2.5-1.33-3.69-1.89c-1.19-0.55-2.28-1.07-3.23-1.54c-1.92-0.86-3.23-1.57-3.41-2.06
		c-0.06-0.31-0.1-0.67-0.1-1.06c0-1.24,0.36-2.72,1.22-3.24c2.86-2.36,2.47-5.09,3.98-7.84c0.46-0.69,1.54-1.04,2.01-1.73
		c0.74-1.45,1.34-3.29,1.34-4.74c0-0.61-0.11-1.15-0.36-1.57c-0.49-1.38-1.28-2.72-2.21-3.75c-0.93-1.02-2.02-1.84-3.13-2.25
		l-2.72-2.29l-0.83-0.67C102.75,27.22,101.96,27.17,101.15,27.17"/>
	<path class="st644" d="M86.04,33.26c0.18,0.5,0.36,1.04,0.52,1.62c0.23,0.05,0.47,0.1,0.71,0.16
		C86.98,34.47,86.59,33.88,86.04,33.26"/>
	<path class="st644" d="M73.3,37.31c-2.53,0.5-4.85,1.63-6.48,3.04c-1.75,1.47-2.84,3.14-3.56,4.74c-0.56,1.27-0.93,2.51-1.19,3.72
		c0.5-1.05,1.04-2.14,1.68-3.27c0.72-1.24,1.6-2.53,2.8-3.8c1.2-1.26,2.76-2.47,4.59-3.43C71.83,37.94,72.56,37.61,73.3,37.31"/>
	<path class="st644" d="M81.37,49.89c-0.13,0.06-0.27,0.13-0.4,0.19c-2.04,0.96-4.22,1.87-6.06,2.84c1.62-0.72,3.61-1.43,5.74-2.37
		C80.65,50.55,80.92,50.32,81.37,49.89"/>
	<path class="st644" d="M71.32,53.66v0.03c0,0,0-0.01,0-0.01C71.32,53.67,71.32,53.67,71.32,53.66"/>
	<path class="st644" d="M72.58,57.11c0,0.01,0.01,0.02,0.01,0.03c0.02,0.03,0.04,0.06,0.06,0.09C72.63,57.19,72.6,57.15,72.58,57.11
		"/>
	<path class="st644" d="M72.84,57.56c0.03,0.05,0.06,0.1,0.09,0.15c0.01,0.01,0.01,0.02,0.02,0.03
		C72.91,57.68,72.87,57.62,72.84,57.56"/>
	<path class="st644" d="M73.34,58.38c0.03,0.05,0.06,0.09,0.09,0.14c0.03,0.04,0.05,0.08,0.08,0.11
		C73.45,58.55,73.39,58.46,73.34,58.38"/>
	<path class="st644" d="M73.7,58.92c0.02,0.03,0.04,0.06,0.06,0.09l0,0.01c0.02,0.03,0.05,0.07,0.07,0.1
		C73.78,59.06,73.74,58.99,73.7,58.92"/>
	<path class="st644" d="M76.83,63C76.83,63,76.83,63.01,76.83,63c0.26,0.3,0.52,0.59,0.82,0.93c-0.02-0.02-0.04-0.05-0.06-0.07
		c-0.17-0.18-0.33-0.37-0.49-0.55C77.01,63.21,76.92,63.1,76.83,63"/>
	<path class="st644" d="M78.64,65.03c0.04,0.04,0.07,0.08,0.11,0.12C78.72,65.11,78.68,65.07,78.64,65.03"/>
	<path class="st644" d="M79.42,65.85c0.1,0.1,0.2,0.21,0.31,0.31c0.35,0.36,0.71,0.74,1.09,1.12l-0.77-0.8L79.42,65.85"/>
	<path class="st644" d="M81.7,68.17c0.13,0.13,0.26,0.25,0.39,0.38c0.01,0.01,0.02,0.02,0.03,0.03
		C81.98,68.44,81.84,68.31,81.7,68.17"/>
	<path class="st644" d="M83.05,69.46L83.05,69.46l0.02,0.03l0.06,0.09l0.03,0.22l0,0c-0.02,0.17-0.14,0.39-0.35,0.64
		c-0.32,0.39-0.7,0.74-1.14,1.01c-0.67,0.41-1.5,0.66-2.5,0.66c-0.33,0-0.68-0.03-1.05-0.08c0,0-0.66,0.13-1.68,0.4
		c-1.03,0.26-2.39,0.68-3.78,1.26c-2.81,1.13-5.7,2.95-6.07,4.92c0,0-0.33,0.02-0.82,0.1c-0.49,0.08-1.14,0.22-1.76,0.46
		c-0.77,0.3-1.53,0.75-1.9,1.4c-0.02,0.14-0.04,0.27-0.05,0.39c-0.09,0.62-0.12,0.98-0.12,0.98c-0.04-0.17-0.06-0.34-0.06-0.49
		c0-0.33,0.09-0.62,0.24-0.88c0.07-0.49,0.16-1.09,0.27-1.79c-1.52,4.4-3.02,8.31-4.75,8.31c-0.03,0-0.06,0-0.08,0
		c0,0-0.35,0.42-0.89,1.09c-0.54,0.66-1.34,1.55-2.19,2.49c-0.85,0.95-1.83,1.92-2.78,2.75c-0.69,0.61-1.39,1.13-2.06,1.46
		c0.53-0.15,1.08-0.27,1.65-0.37c1.59-0.3,3.34-0.42,5.13-0.42c1.64,0,3.33,0.1,4.96,0.26c2.62,0.34,5.86,1.09,8.58,1.4
		c0.72,0.08,1.4,0.13,2.03,0.13c1.12,0,2.04-0.16,2.67-0.57c-0.5-0.46-0.99-0.96-1.47-1.49c-3.06-3.37-4.5-7.46-4.49-11.42
		c0-0.03,0-0.06,0-0.09c0.09-3.39,1.99-6.41,4.17-8.17c0.52-0.27,1.08-0.6,1.65-0.6c0.11,0,0.23,0.01,0.34,0.04
		c0.25,0.01,0.31,0.14,0.31,0.31c0,0.12-0.02,0.26-0.02,0.39c0,0.1,0.02,0.2,0.07,0.29l0,0l0,0l0,0c0.72,0.18,0.33,1.11,0.88,1.58
		c0.28,0.25,0.39,0.51,0.39,0.8c0,0.38-0.19,0.82-0.44,1.34c-0.44,0.9-1.03,2.01-1.08,2.98c0.04,1.14,0.72,2.09,1.6,2.86
		c0.24,0.21,0.51,0.42,0.78,0.61c1-1.08,2.5-1.98,4.68-2.36c0.11-0.02,0.22-0.04,0.33-0.05c0,0,0,0,0,0c0,0,0,0,0,0
		c0.03-0.01,0.34-0.15,0.81-0.35c0.01,0,0.02-0.01,0.02-0.01c0.49-0.21,1.13-0.5,1.77-0.81l0,0c0.01-0.01,0.02-0.01,0.03-0.02
		c0.03-0.02,0.07-0.03,0.1-0.05c0.98-0.49,1.99-1.01,2.43-1.45c0.13-0.13,0.21-0.25,0.23-0.36l0,0c0.02-0.01,0.04-0.01,0.06-0.02
		c0.58-0.17,1.16-0.32,1.75-0.46l0,0l0,0c0,0,0.29-0.29,0.69-0.79c0.01-0.02,0.03-0.03,0.04-0.05c0,0,0.01-0.01,0.01-0.01
		c0.21-0.26,0.45-0.59,0.67-0.92l0,0l0.09-0.21l-0.01-0.06l0-0.02l0-0.01v0l-0.08-0.07l-0.17-0.15l-1.39-1.2
		c-0.92-0.81-1.84-1.63-2.75-2.47l-2.19-1.99l0,0C83.98,70.35,83.51,69.91,83.05,69.46"/>
	<path class="st644" d="M48.64,95.18c-0.59,0.05-2.08,0.21-3.65,0.67c-0.26,0.78-0.52,1.56-0.77,2.34
		c-1.95,2.98-2.99,6.11-6.95,7.79c-4.32,1.75-8.92,3.29-14.69,3.5c-0.02,0-0.03,0-0.05,0c-0.47,0-0.88-0.28-1.18-0.68
		c0.31,0.46,0.75,0.8,1.27,0.8c0.02,0,0.03,0,0.05,0c5.78-0.21,10.37-1.75,14.69-3.5c3.96-1.68,5-4.81,6.94-7.78
		C45.24,96.88,46.76,95.86,48.64,95.18"/>
	<polyline class="st644" points="130.96,111.87 130.22,116.88 131.11,117.22 130.96,111.87 	"/>
	<path class="st698" d="M74.5,28.29c-2.03,0-4.08,0.34-5.62,1.15c-2.22,0.87-5.48,2.34-8.02,4.41c-1.31,1.02-2.42,2.12-3.43,3.24
		c-0.95,1.11-1.79,2.24-2.47,3.31c-1.35,2.14-2.29,4.13-2.88,5.69c-0.55,1.52-1,2.83-1.25,3.77c-0.45,1.8-0.85,3.34-1.3,4.67
		c-0.42,1.35-0.87,2.51-1.42,3.55c-0.56,1.03-1.14,1.98-1.89,2.87c-0.76,0.89-1.62,1.74-2.65,2.65c-3.55,2.48-3.97,6.05-6.43,9.3
		c-2.29,3.63-3.1,6.6-5.13,10.36c-1.36,1.61-2.43,3.27-3.44,5c-0.93,1.77-1.78,3.61-2.39,5.71c0,0.13-0.01,0.26-0.01,0.38
		c0,0.48,0.04,0.94,0.29,1.36c0.07,0.12,0.1,0.28,0.1,0.44c0,0.54-0.29,1.22-0.29,1.69c0,0,0,0.01,0,0.01l0,0l0,0
		c-0.89,1.56-2.22,2.91-3.31,4.36c-1.11,1.44-2.06,2.94-2.19,4.7c-0.01,0.06-0.01,0.13-0.01,0.2c0,0.53,0.22,1.19,0.59,1.68
		c-0.32-0.47-0.5-1.07-0.5-1.56c0-0.06,0-0.13,0.01-0.19c0.13-1.76,1.07-3.27,2.19-4.7c1.09-1.45,2.42-2.8,3.31-4.36
		c0-0.01,0-0.01,0-0.02c0-0.46,0.29-1.15,0.29-1.68c0-0.17-0.03-0.32-0.1-0.44c-0.25-0.41-0.29-0.87-0.29-1.34
		c0-0.14,0-0.27,0.01-0.41c0.61-2.09,1.46-3.94,2.38-5.7c1-1.74,2.08-3.4,3.43-5.01c0.52-0.94,0.94-1.83,1.33-2.7
		c0.41-0.86,0.77-1.69,1.14-2.53c0.71-1.68,1.52-3.32,2.65-5.13c2.46-3.26,2.87-6.82,6.42-9.3c2.05-1.82,3.48-3.42,4.54-5.52
		c0.54-1.04,1-2.19,1.42-3.55c0.45-1.33,0.85-2.87,1.29-4.67c0.25-0.94,0.7-2.25,1.25-3.77c0.57-1.54,1.5-3.53,2.82-5.65
		c0.69-1.07,1.48-2.18,2.43-3.29c0.99-1.12,2.05-2.22,3.35-3.24c2.49-2.06,5.66-3.58,7.88-4.46c1.57-0.86,3.68-1.22,5.79-1.22
		c0.86,0,1.71,0.06,2.53,0.17c2.86,0.36,5.26,1.11,7.32,1.25c0.08,0,0.16,0.01,0.24,0.01c0-0.01-0.01-0.01-0.01-0.01
		c-2.02-0.14-4.42-0.91-7.26-1.29C76.35,28.36,75.42,28.29,74.5,28.29"/>
	<path class="st654" d="M74.39,28.37c-2.11,0-4.22,0.36-5.79,1.22c-2.22,0.88-5.39,2.4-7.88,4.46c-1.3,1.02-2.37,2.12-3.35,3.24
		c-0.95,1.11-1.74,2.22-2.43,3.29c-1.32,2.12-2.25,4.11-2.82,5.65c-0.55,1.52-1,2.83-1.25,3.77c-0.44,1.8-0.84,3.33-1.29,4.67
		c-0.42,1.35-0.87,2.51-1.42,3.55c-1.05,2.1-2.48,3.7-4.54,5.52c-3.54,2.49-3.96,6.04-6.42,9.3c-1.13,1.81-1.94,3.45-2.65,5.13
		c-0.37,0.84-0.73,1.67-1.14,2.53c-0.39,0.87-0.81,1.76-1.33,2.7c-1.35,1.61-2.43,3.27-3.43,5.01c-0.93,1.77-1.78,3.61-2.38,5.7
		c0,0.14-0.01,0.28-0.01,0.41c0,0.47,0.04,0.92,0.29,1.34c0.07,0.13,0.1,0.28,0.1,0.44c0,0.53-0.29,1.22-0.29,1.68
		c0,0.01,0,0.01,0,0.02l0,0l0,0c-0.89,1.55-2.22,2.91-3.31,4.36c-1.12,1.43-2.05,2.94-2.19,4.7c-0.01,0.06-0.01,0.12-0.01,0.19
		c0,0.49,0.18,1.09,0.5,1.56c0.3,0.4,0.7,0.68,1.18,0.68c0.02,0,0.03,0,0.05,0c5.77-0.21,10.37-1.75,14.69-3.5
		c3.96-1.68,5-4.81,6.95-7.79c0.25-0.78,0.5-1.56,0.77-2.34c-0.1,0.03-0.2,0.06-0.3,0.09c-1.07,0.34-2.17,0.82-3.03,1.49
		c-0.84,0.67-1.45,1.53-1.57,2.58c0,0-0.73,0.59-1.75,1.41c-1.02,0.82-2.42,1.87-3.76,2.74c-1.38,0.91-2.76,1.64-3.72,1.64
		c-0.8,0-1.32-0.5-1.32-1.83c0-0.14,0.01-0.3,0.02-0.46c0,0-0.18-1.07-0.29-2.41c-0.08-0.97-0.17-2.09-0.17-3.03
		c0-0.35,0.01-0.68,0.04-0.97c0,0,0.19-0.42,0.53-1.15c0.35-0.73,0.8-1.79,1.44-3.03c1.24-2.49,2.97-5.78,4.96-8.96
		c1.95-3.21,4.17-6.29,6.04-8.59c1.93-2.27,3.48-3.77,4.21-3.81c0,0,0.37-0.35,0.98-0.99c0.6-0.65,1.46-1.58,2.49-2.73
		c2-2.34,4.67-5.53,7.1-9.29c1.22-1.89,2.41-3.9,3.43-6.07c0.58-1.19,1.11-2.41,1.71-3.68c0.26-1.21,0.64-2.45,1.19-3.72
		c0.72-1.6,1.82-3.27,3.56-4.74c1.63-1.41,3.95-2.53,6.48-3.04c1.2-0.49,2.44-0.91,3.65-1.29c1.95-0.62,3.84-1.17,5.64-1.82
		c0,0,0.41,0.06,1.13,0.15c0.7,0.11,1.65,0.27,2.67,0.49c0.06,0.01,0.12,0.03,0.18,0.04c-0.16-0.58-0.34-1.12-0.52-1.62
		c-0.36-0.4-0.78-0.82-1.29-1.25l0,0l0,0c0,0,0.27-0.03,0.77-0.06c-0.3-0.69-0.55-1.23-0.75-1.6c-0.16-0.32-0.25-0.5-0.28-0.55
		c-0.08,0-0.16,0-0.24-0.01c-2.06-0.14-4.47-0.89-7.32-1.25C76.1,28.43,75.25,28.37,74.39,28.37"/>
	<path class="st662" d="M82.59,34.2c-1.8,0.65-3.69,1.2-5.64,1.82c-1.21,0.39-2.44,0.8-3.65,1.29c-0.74,0.3-1.46,0.63-2.16,1.01
		c-1.83,0.96-3.4,2.16-4.59,3.43c-1.21,1.26-2.08,2.56-2.8,3.8c-0.64,1.13-1.18,2.21-1.68,3.27c-0.6,1.27-1.14,2.5-1.71,3.68
		c-1.02,2.17-2.22,4.18-3.43,6.07c-2.43,3.77-5.1,6.95-7.1,9.29c-1.03,1.15-1.89,2.09-2.49,2.73c-0.61,0.64-0.98,0.99-0.98,0.99
		c-0.74,0.04-2.29,1.54-4.21,3.81c-1.87,2.3-4.09,5.38-6.04,8.59c-2,3.18-3.72,6.47-4.96,8.96c-0.64,1.24-1.09,2.3-1.44,3.03
		c-0.34,0.73-0.53,1.15-0.53,1.15c-0.03,0.29-0.04,0.62-0.04,0.97c0,0.94,0.08,2.06,0.17,3.03c0.11,1.33,0.29,2.41,0.29,2.41l0,0
		l0,0c-0.01,0.16-0.02,0.32-0.02,0.46c0,1.32,0.52,1.83,1.32,1.83c0.96,0,2.34-0.73,3.72-1.64c1.34-0.88,2.73-1.92,3.76-2.74
		c1.02-0.82,1.75-1.41,1.75-1.41c0.12-1.05,0.73-1.91,1.57-2.58c0.87-0.67,1.96-1.15,3.03-1.49c0.1-0.03,0.2-0.06,0.3-0.09
		c1.57-0.47,3.05-0.62,3.65-0.67c0.17-0.01,0.27-0.02,0.27-0.02c0.23-0.07,0.47-0.17,0.71-0.29c0.67-0.34,1.36-0.86,2.06-1.46
		c0.95-0.82,1.94-1.8,2.78-2.75c0.86-0.94,1.65-1.82,2.19-2.49c0.54-0.66,0.89-1.09,0.89-1.09c0.03,0,0.06,0,0.08,0
		c1.73,0,3.23-3.9,4.75-8.31c0.02-0.14,0.04-0.28,0.07-0.42c0.37-2.15,1.01-5.02,1.94-7.87c0.47-1.42,1.02-2.83,1.61-4.16
		c0.31-0.66,0.63-1.29,0.96-1.89c-0.01,0.01-0.02,0.02-0.03,0.03l-0.11,0.13l-0.05,0.08l0-0.01l0.01-0.02
		c-0.21,0.35-0.42,0.71-0.63,1.08l0,0c-0.15,0.26-0.3,0.51-0.45,0.77c-0.25,0.42-0.51,0.85-0.77,1.27l0,0
		c-0.52,0.84-1.06,1.69-1.6,2.56c-0.02,0.03-0.04,0.06-0.06,0.09c-0.63,0.97-1.27,1.95-1.92,2.95l0,0l-0.33,0.51l-0.15,0.23
		l0.02-0.02L60.95,74l0.13-0.17c0.01-0.01,0.02-0.02,0.03-0.04c0,0,0.01-0.01,0.01-0.01c0.04-0.04,0.08-0.08,0.12-0.12c0,0,0,0,0,0
		c0,0,0.01-0.01,0.01-0.01c0.38-0.38,0.89-0.76,1.59-1.09l0,0l0,0l0,0l0,0l0,0l0,0c-0.7,0.33-1.21,0.71-1.59,1.09
		c0,0-0.01,0.01-0.01,0.01c0,0,0,0,0,0c-0.04,0.04-0.08,0.08-0.12,0.12c0,0-0.01,0.01-0.01,0.01c-0.01,0.01-0.02,0.02-0.03,0.04
		L60.95,74l-0.06,0.08l-0.02,0.02l0.15-0.23l0.33-0.51l0,0c0.65-1,1.29-1.98,1.92-2.95c0.02-0.03,0.04-0.06,0.06-0.09
		c0.54-0.87,1.07-1.72,1.6-2.56l0,0c0.26-0.42,0.52-0.85,0.77-1.27c0.15-0.26,0.3-0.51,0.45-0.77l0,0c0.21-0.36,0.42-0.72,0.63-1.08
		l0.01-0.02l0.01-0.01c0.08-0.14,0.17-0.29,0.25-0.43l0.12-0.22c0.26-0.47,0.51-0.93,0.76-1.39c0.04-0.08,0.09-0.16,0.13-0.24
		c0.06-0.12,0.13-0.23,0.19-0.35c0.11-0.2,0.21-0.41,0.32-0.61c0.04-0.07,0.07-0.15,0.11-0.22c0.01-0.01,0.01-0.02,0.02-0.04
		l0.52-1.05c0.02-0.04,0.03-0.07,0.05-0.11c0.08-0.17,0.16-0.34,0.23-0.51c0.06-0.13,0.11-0.26,0.17-0.38
		c0.02-0.04,0.04-0.08,0.06-0.12c0.06-0.14,0.12-0.27,0.17-0.38c0,0,0,0,0,0c0.05-0.12,0.1-0.24,0.15-0.36l0.12-0.29
		c0.01-0.03,0.02-0.05,0.03-0.08l0,0c0.05-0.12,0.1-0.24,0.14-0.36c0.02-0.04,0.03-0.08,0.05-0.13c0.08-0.2,0.15-0.4,0.22-0.59
		c0.38-1.08,0.51-1.73,0.58-2.1c0.05-0.27,0.08-0.49,0.1-0.65c0-0.05,0.01-0.09,0.01-0.13l0-0.05l0.01-0.13c0-0.05,0-0.09,0-0.09
		c0,0,0,0,0,0v0v0v0.02v0c0,0.01,0,0.01,0,0.02c0,0,0,0.01,0,0.01v0v0.03l0,0.01l0,0.05l0,0.02v0l0,0.01l0,0.03l0,0.01l0.04,0.22
		c0,0.02,0.01,0.05,0.01,0.07c0.01,0.05,0.02,0.1,0.03,0.15c0.02,0.07,0.04,0.15,0.06,0.21c0,0,0,0,0,0l0,0c0,0,0,0,0,0c0,0,0,0,0,0
		c0,0,0.02,0.07,0.06,0.2c0.01,0.04,0.02,0.08,0.04,0.12c0.01,0.04,0.02,0.07,0.04,0.11c0.09-0.09,0.19-0.18,0.29-0.27
		c0.56-0.48,1.3-0.92,2.17-1.36c0.27-0.14,0.56-0.27,0.85-0.4c1.85-0.98,4.03-1.88,6.06-2.84c0.13-0.06,0.27-0.13,0.4-0.19
		c0.97-0.94,2.76-2.79,4.26-5.12c1.08-1.69,2-3.64,2.28-5.69c0.05-0.36,0.08-0.72,0.08-1.09c0-0.68-0.1-1.39-0.37-2.14
		c-0.1-0.26-0.21-0.54-0.35-0.81c-0.24-0.05-0.48-0.11-0.71-0.16c-0.06-0.01-0.12-0.03-0.18-0.04c-1.02-0.22-1.97-0.38-2.67-0.49
		C83,34.25,82.59,34.2,82.59,34.2"/>
	<polyline class="st662" points="71.32,53.63 71.32,53.71 71.32,53.71 71.32,53.63 71.32,53.63 71.32,53.63 	"/>
	<path class="st662" d="M71.32,53.63l0,0.08l0-0.02v0l0,0v-0.03l0,0v-0.01V53.63L71.32,53.63 M71.32,53.63L71.32,53.63v0.02v0l0,0
		l0,0v-0.01V53.63L71.32,53.63"/>
	<path class="st699" d="M71.32,53.63L71.32,53.63l0,0.08L71.32,53.63 M71.32,53.63L71.32,53.63v0.02v0.04v-0.04v0V53.63"/>
	<polyline class="st662" points="71.32,53.7 71.32,53.71 71.32,53.72 71.32,53.71 71.32,53.7 	"/>
	<polyline class="st662" points="71.32,53.71 71.32,53.71 71.32,53.72 71.32,53.72 71.32,53.71 	"/>
	<polyline class="st662" points="71.32,53.72 71.32,53.72 71.32,53.73 71.32,53.74 71.32,53.73 71.32,53.72 	"/>
	<polyline class="st662" points="71.32,53.72 71.32,53.72 71.32,53.72 71.32,53.73 71.32,53.72 	"/>
	<polyline class="st662" points="71.32,53.73 71.32,53.73 71.32,53.79 71.32,53.73 	"/>
	<path class="st662" d="M71.32,53.74L71.32,53.74l0,0.03l0,0c-0.01,0.11-0.01,0.19-0.02,0.25l0,0l-0.01,0.13l0,0
		c-0.01,0.04-0.01,0.08-0.02,0.13c-0.01,0.06-0.02,0.12-0.03,0.18c-0.01,0.04-0.01,0.08-0.02,0.12l0,0c0,0,0,0.01,0,0.01
		c0,0.02-0.01,0.04-0.01,0.07c-0.02,0.09-0.03,0.18-0.06,0.28c-0.07,0.32-0.17,0.71-0.3,1.14c0,0.01,0,0.02-0.01,0.02l0-0.01
		l0.03-0.1l0.09-0.19c0.07-0.12,0.13-0.26,0.23-0.38c0.11-0.16,0.25-0.31,0.4-0.47c-0.02-0.06-0.04-0.12-0.05-0.17
		c-0.13-0.39-0.19-0.69-0.21-0.84l-0.01-0.09l0-0.01l0-0.02l0-0.01l0,0l0,0v0v-0.01c0,0.02,0,0.03,0,0.03c0,0,0,0,0,0
		C71.32,53.81,71.32,53.78,71.32,53.74"/>
	<path class="st663" d="M71.32,53.79c0,0.02,0,0.03,0,0.03c0,0,0,0,0,0c0,0,0,0,0,0C71.32,53.82,71.32,53.81,71.32,53.79v0.01V53.79
		L71.32,53.79"/>
	<path class="st662" d="M71.32,53.74l-0.01,0.11l0,0.01c0,0.01,0,0.03,0,0.04l0,0.05c0,0.02,0,0.05-0.01,0.07
		c-0.01,0.07-0.02,0.15-0.03,0.23c0.01-0.05,0.01-0.09,0.02-0.12l0,0l0.01-0.13l0,0c0-0.06,0.01-0.14,0.02-0.25l0,0L71.32,53.74"/>
	<polyline class="st662" points="71.32,53.79 71.32,53.79 71.32,53.8 71.32,53.8 71.32,53.79 	"/>
	<polyline class="st662" points="71.32,53.8 71.32,53.81 71.32,53.81 71.32,53.8 71.32,53.8 	"/>
	<polyline class="st662" points="71.32,53.84 71.32,53.85 71.32,53.85 71.32,53.84 	"/>
	<path class="st662" d="M71.37,54.14c0.01,0.05,0.02,0.1,0.03,0.15C71.39,54.24,71.38,54.19,71.37,54.14"/>
	<path class="st662" d="M71.24,54.46c-0.01,0.06-0.02,0.12-0.03,0.19c0-0.02,0.01-0.04,0.01-0.06c0,0,0-0.01,0-0.01l0,0
		C71.22,54.53,71.23,54.49,71.24,54.46"/>
	<polyline class="st662" points="71.46,54.51 71.46,54.51 71.46,54.51 71.46,54.51 71.46,54.51 	"/>
	<path class="st662" d="M71.2,54.68c-0.08,0.36-0.2,1.01-0.58,2.08c0.08-0.23,0.15-0.45,0.22-0.66l0,0.01c0,0,0,0,0,0l-0.02,0.05
		l0.01-0.02l0.01-0.03c0-0.01,0.01-0.02,0.01-0.03c0.13-0.44,0.23-0.82,0.3-1.14C71.16,54.84,71.18,54.76,71.2,54.68"/>
	<path class="st662" d="M71.53,54.73c0,0.01,0,0.02,0.01,0.02c0,0.01,0,0.02,0.01,0.02c0,0.01,0.01,0.03,0.01,0.04
		C71.54,54.79,71.53,54.76,71.53,54.73"/>
	<path class="st662" d="M71.6,54.95C71.59,54.95,71.59,54.95,71.6,54.95c0.01,0.02,0.01,0.05,0.02,0.07
		c0.01,0.03,0.02,0.05,0.03,0.08l0,0.01C71.63,55.05,71.61,55,71.6,54.95"/>
	<path class="st662" d="M71.59,54.95C71.59,54.95,71.59,54.95,71.59,54.95c0.01,0.02,0.01,0.04,0.02,0.05
		C71.61,54.98,71.6,54.97,71.59,54.95"/>
	<path class="st662" d="M72.6,57.13c0.02,0.04,0.04,0.08,0.07,0.12c0.02,0.03,0.03,0.05,0.04,0.07c-0.02-0.03-0.03-0.06-0.05-0.09
		C72.63,57.2,72.61,57.16,72.6,57.13"/>
	<path class="st662" d="M72.66,57.25c0.08,0.14,0.16,0.29,0.26,0.45c-0.07-0.11-0.12-0.22-0.18-0.31c-0.01-0.02-0.03-0.05-0.04-0.07
		C72.69,57.31,72.68,57.28,72.66,57.25"/>
	<path class="st662" d="M70.4,57.37c-0.02,0.04-0.03,0.08-0.05,0.12c-0.05,0.12-0.09,0.24-0.14,0.36l0,0
		c-0.01,0.03-0.02,0.05-0.03,0.08l0.18-0.45C70.37,57.44,70.38,57.4,70.4,57.37"/>
	<path class="st662" d="M72.74,57.39c0.05,0.1,0.11,0.2,0.18,0.32c0,0,0,0,0,0.01c-0.03-0.05-0.06-0.1-0.09-0.15
		C72.81,57.5,72.77,57.44,72.74,57.39"/>
	<path class="st662" d="M70.06,58.22c-0.05,0.12-0.1,0.23-0.15,0.35c0.05-0.1,0.09-0.21,0.13-0.31L70.06,58.22"/>
	<path class="st662" d="M73.43,58.52c0.1,0.16,0.21,0.33,0.33,0.5l0-0.01c-0.02-0.03-0.04-0.06-0.06-0.09
		c-0.06-0.1-0.13-0.19-0.19-0.29C73.48,58.59,73.45,58.55,73.43,58.52"/>
	<path class="st662" d="M69.91,58.58c-0.05,0.11-0.11,0.24-0.17,0.38C69.79,58.83,69.85,58.7,69.91,58.58"/>
	<path class="st662" d="M69.51,59.46c-0.07,0.16-0.15,0.34-0.23,0.51C69.36,59.8,69.43,59.63,69.51,59.46"/>
	<path class="st662" d="M68.69,61.15c-0.04,0.07-0.07,0.15-0.11,0.22c-0.1,0.2-0.21,0.41-0.32,0.61
		C68.4,61.72,68.54,61.45,68.69,61.15"/>
	<path class="st662" d="M68.07,62.34c-0.04,0.08-0.09,0.16-0.13,0.24c-0.25,0.45-0.5,0.92-0.76,1.39l0.16-0.29
		C67.62,63.15,67.86,62.73,68.07,62.34"/>
	<path class="st662" d="M67.05,64.18c-0.08,0.14-0.17,0.29-0.25,0.43l0.01-0.01l0.01-0.01l0.11-0.18L67.05,64.18"/>
	<path class="st668" d="M73.34,58.38L73.34,58.38c0.06,0.08,0.11,0.17,0.17,0.25c0.06,0.1,0.13,0.2,0.19,0.29
		c0.04,0.07,0.09,0.13,0.13,0.2l0,0l0,0c-0.14-0.21-0.28-0.41-0.4-0.6C73.4,58.47,73.37,58.42,73.34,58.38L73.34,58.38 M87.96,31.87
		c-0.01,0-0.03,0-0.04,0c-0.9,0.01-1.72,0.03-2.28,0.07c-0.04,0-0.08,0-0.13,0.01c-0.5,0.03-0.77,0.06-0.77,0.06
		c0.5,0.43,0.93,0.84,1.29,1.25c0.55,0.62,0.94,1.21,1.23,1.77c0.14,0.28,0.26,0.55,0.35,0.81c0.27,0.75,0.37,1.46,0.37,2.14
		c0,0.37-0.03,0.73-0.08,1.09c-0.29,2.05-1.2,4-2.28,5.69c-1.49,2.32-3.28,4.18-4.26,5.12c-0.45,0.43-0.72,0.66-0.72,0.66
		c-2.13,0.94-4.12,1.64-5.74,2.37c-0.3,0.13-0.58,0.27-0.85,0.4c-0.88,0.43-1.62,0.88-2.17,1.36c-0.1,0.09-0.2,0.18-0.29,0.27
		c0.02,0.05,0.04,0.1,0.06,0.16l0,0l0,0l0-0.01c-0.01-0.03-0.02-0.05-0.03-0.08c0.04,0.11,0.08,0.22,0.12,0.3l0,0l0,0
		c0.13,0.37,0.27,0.68,0.41,0.93l0,0c0.23,0.51,0.43,0.86,0.52,1c-0.02-0.04-0.04-0.08-0.07-0.12c0-0.01-0.01-0.02-0.01-0.03l0,0
		l0,0c0.02,0.04,0.05,0.08,0.07,0.12c0.02,0.03,0.03,0.06,0.05,0.09c0,0.01,0.01,0.01,0.01,0.01l0,0c0.01,0.02,0.02,0.04,0.03,0.06
		c0.03,0.06,0.06,0.11,0.1,0.17c0.03,0.06,0.07,0.12,0.1,0.18l0,0l0,0c-0.01-0.01-0.01-0.02-0.02-0.03c0.48,0.82,1.35,2.18,3.25,4.5
		l0,0l0,0c0.06,0.07,0.11,0.14,0.17,0.21c0.16,0.19,0.32,0.39,0.49,0.58c-0.05-0.06-0.1-0.13-0.15-0.19l0,0l0,0
		c1.73-0.27,3.46-0.57,5.14-0.9c9.05-1.74,15.93-3.07,15.93-3.07c3.44-0.62,4.73-4.52,4.73-8.79c0-0.51-0.02-1.03-0.06-1.56
		c-0.29-4.79-1.91-9.38-1.91-9.38l0,0l0,0c0.03-0.33,0.05-0.64,0.05-0.94c0.01-4.36-3.48-5.98-6.87-6.18
		C91.99,31.93,89.8,31.87,87.96,31.87"/>
	<path class="st668" d="M71.32,53.63c0,0,0,0.05,0,0.09l0,0l0-0.01L71.32,53.63C71.32,53.63,71.32,53.63,71.32,53.63"/>
	<polyline class="st668" points="71.32,53.71 71.32,53.71 71.32,53.72 71.32,53.73 71.32,53.73 71.32,53.71 	"/>
	<polyline class="st668" points="71.32,53.71 71.32,53.72 71.32,53.72 71.32,53.71 	"/>
	<path class="st668" d="M71.32,53.72L71.32,53.72 M71.32,53.72L71.32,53.72l0,0.02v0L71.32,53.72"/>
	<path class="st668" d="M71.32,53.73l0,0.02l0-0.01C71.32,53.73,71.32,53.73,71.32,53.73 M71.32,53.72l-0.01,0.13l0.01-0.11
		L71.32,53.72C71.32,53.73,71.32,53.73,71.32,53.72C71.32,53.72,71.32,53.72,71.32,53.72"/>
	<path class="st668" d="M71.32,53.74L71.32,53.74L71.32,53.74L71.32,53.74 M71.32,53.73L71.32,53.73c0,0.04,0,0.08,0,0.08
		c0,0,0,0,0,0c0,0,0-0.01,0-0.03v0L71.32,53.73"/>
	<polyline class="st668" points="71.32,53.8 71.32,53.8 71.32,53.8 71.32,53.8 71.32,53.8 	"/>
	<polyline class="st668" points="71.32,53.8 71.32,53.81 71.32,53.82 71.32,53.84 71.32,53.81 71.32,53.8 	"/>
	<polyline class="st668" points="71.32,53.81 71.32,53.84 71.32,53.85 71.32,53.84 71.32,53.82 71.32,53.81 	"/>
	<path class="st668" d="M71.32,53.85l0.01,0.09c0.02,0.16,0.08,0.45,0.21,0.84c0-0.01,0-0.02-0.01-0.02c0-0.01,0-0.02-0.01-0.02
		c-0.02-0.08-0.05-0.16-0.06-0.22c0,0,0,0,0-0.01c-0.02-0.06-0.04-0.14-0.06-0.21c-0.01-0.05-0.02-0.1-0.03-0.15
		c-0.02-0.08-0.03-0.14-0.03-0.16L71.32,53.85L71.32,53.85"/>
	<path class="st668" d="M71.32,53.85l0.02,0.14c0.01,0.02,0.02,0.08,0.03,0.16c0-0.02-0.01-0.05-0.01-0.07L71.32,53.85"/>
	<path class="st668" d="M71.31,53.85l0,0.05C71.31,53.89,71.31,53.88,71.31,53.85L71.31,53.85"/>
	<path class="st668" d="M71.3,53.9c0,0.04-0.01,0.08-0.01,0.13c0-0.03,0.01-0.05,0.01-0.07L71.3,53.9"/>
	<path class="st668" d="M71.26,54.27c-0.01,0.05-0.02,0.12-0.03,0.18C71.25,54.39,71.26,54.33,71.26,54.27 M71.29,54.03
		c-0.02,0.16-0.05,0.38-0.1,0.65c0-0.01,0-0.02,0.01-0.03c0.01-0.07,0.02-0.13,0.03-0.19c0.01-0.07,0.02-0.14,0.03-0.2
		C71.28,54.18,71.29,54.1,71.29,54.03"/>
	<path class="st668" d="M71.4,54.3c0.02,0.08,0.04,0.15,0.06,0.21C71.44,54.44,71.42,54.37,71.4,54.3"/>
	<path class="st668" d="M71.46,54.51c0.02,0.06,0.04,0.13,0.06,0.2C71.48,54.58,71.46,54.52,71.46,54.51
		C71.46,54.51,71.46,54.51,71.46,54.51"/>
	<path class="st668" d="M71.2,54.65c0,0.01,0,0.02-0.01,0.03c-0.01,0.08-0.03,0.16-0.05,0.25C71.17,54.83,71.19,54.73,71.2,54.65"/>
	<path class="st668" d="M71.54,54.78c0.02,0.05,0.03,0.11,0.05,0.17c0,0,0,0,0,0c-0.01-0.04-0.03-0.08-0.04-0.13
		C71.55,54.81,71.54,54.79,71.54,54.78"/>
	<path class="st668" d="M71.56,54.84c0.01,0.04,0.02,0.07,0.04,0.11c0,0,0,0,0,0C71.58,54.91,71.57,54.87,71.56,54.84"/>
	<path class="st668" d="M71.15,54.93c-0.07,0.32-0.17,0.7-0.3,1.14C70.98,55.63,71.08,55.25,71.15,54.93"/>
	<path class="st668" d="M70.84,56.09L70.84,56.09L70.84,56.09L70.84,56.09 M71.59,54.95c-0.15,0.15-0.29,0.31-0.4,0.47
		c-0.1,0.12-0.16,0.26-0.23,0.38l-0.09,0.19l-0.03,0.1l0,0.01c-0.06,0.21-0.14,0.43-0.22,0.66c-0.06,0.16-0.12,0.33-0.18,0.5l0,0
		c-0.01,0.04-0.03,0.07-0.04,0.11c-0.01,0.04-0.03,0.07-0.04,0.11l-0.18,0.45c-0.04,0.1-0.08,0.2-0.12,0.3l-0.01,0.04
		c-0.04,0.11-0.09,0.21-0.13,0.31c0,0,0,0,0,0c0,0,0,0,0,0c-0.06,0.13-0.11,0.25-0.17,0.38c-0.07,0.16-0.15,0.33-0.23,0.51
		c-0.08,0.17-0.15,0.34-0.23,0.51c-0.05,0.11-0.11,0.23-0.16,0.34c-0.14,0.28-0.28,0.56-0.43,0.85c-0.14,0.29-0.28,0.56-0.43,0.83
		c-0.06,0.12-0.12,0.23-0.19,0.35c-0.21,0.39-0.45,0.81-0.73,1.34l-0.16,0.29c-0.02,0.03-0.04,0.07-0.06,0.1l0,0
		c-0.02,0.04-0.05,0.08-0.07,0.12l-0.13,0.22l-0.11,0.18l-0.01,0.01l0.11-0.13c0.01-0.01,0.02-0.02,0.03-0.03l0,0l0,0
		c-0.33,0.6-0.65,1.24-0.96,1.89c-0.58,1.33-1.14,2.74-1.61,4.16c-0.93,2.86-1.57,5.73-1.94,7.87c-0.02,0.14-0.05,0.28-0.07,0.42
		c-0.11,0.69-0.2,1.3-0.27,1.79c0.37-0.64,1.13-1.09,1.9-1.4c0.62-0.25,1.27-0.38,1.76-0.46c0.49-0.08,0.82-0.1,0.82-0.1
		c0.37-1.96,3.26-3.79,6.07-4.92c1.39-0.58,2.75-1,3.78-1.26c1.02-0.27,1.68-0.4,1.68-0.4c0.37,0.06,0.72,0.08,1.05,0.08
		c1,0,1.83-0.25,2.5-0.66c0.44-0.27,0.82-0.62,1.14-1.01c0.22-0.24,0.33-0.47,0.35-0.64l-0.03-0.22l-0.06-0.09l-0.02-0.02l0,0
		c-0.2-0.19-0.39-0.38-0.59-0.56l0,0c-0.11-0.11-0.23-0.21-0.34-0.32c-0.01-0.01-0.02-0.02-0.03-0.03
		c-0.13-0.13-0.26-0.25-0.39-0.38c-0.3-0.29-0.59-0.58-0.88-0.88l-0.01-0.01c-0.37-0.38-0.74-0.76-1.09-1.12
		c-0.1-0.1-0.21-0.21-0.31-0.31l-0.03-0.03l0,0c-0.21-0.21-0.41-0.43-0.61-0.65c0,0-0.01-0.01-0.01-0.01
		c-0.01-0.01-0.01-0.01-0.02-0.02c-0.04-0.04-0.07-0.08-0.11-0.12c0,0-0.01-0.01-0.01-0.01C78.63,65.01,78.62,65,78.62,65
		c-0.15-0.16-0.29-0.32-0.43-0.48c-0.01-0.01-0.03-0.03-0.04-0.04l0,0c-0.17-0.18-0.33-0.37-0.49-0.55
		c-0.31-0.34-0.57-0.62-0.82-0.92c0,0,0-0.01-0.01-0.01c-0.17-0.2-0.33-0.39-0.49-0.59c-0.06-0.07-0.11-0.14-0.17-0.21l0,0l0,0
		c-1.9-2.33-2.78-3.68-3.25-4.5c-0.09-0.16-0.18-0.31-0.26-0.45c-0.09-0.14-0.29-0.49-0.52-1l0,0c-0.13-0.25-0.28-0.57-0.41-0.93
		l0,0l0,0c-0.04-0.09-0.09-0.2-0.13-0.32C71.61,54.98,71.6,54.97,71.59,54.95"/>
	<path class="st675" d="M82.46,68.9c0.2,0.19,0.39,0.38,0.59,0.56l0,0C82.85,69.27,82.66,69.09,82.46,68.9L82.46,68.9 M82.12,68.58
		L82.12,68.58c0.11,0.11,0.22,0.21,0.34,0.32l0,0l0,0c-0.02-0.02-0.03-0.03-0.05-0.05C82.31,68.76,82.22,68.67,82.12,68.58
		L82.12,68.58 M80.82,67.28L80.82,67.28L80.82,67.28c0.3,0.3,0.59,0.6,0.89,0.89l0,0l0,0C81.41,67.88,81.12,67.59,80.82,67.28
		L80.82,67.28L80.82,67.28L80.82,67.28 M79.39,65.82L79.39,65.82l0.03,0.03l0,0L79.39,65.82L79.39,65.82 M78.78,65.17L78.78,65.17
		c0.2,0.22,0.4,0.43,0.61,0.65l0,0C79.18,65.61,78.98,65.39,78.78,65.17L78.78,65.17 M78.75,65.15L78.75,65.15
		c0.01,0.01,0.01,0.01,0.02,0.02l0,0l0,0C78.77,65.16,78.76,65.15,78.75,65.15L78.75,65.15 M78.63,65.01L78.63,65.01
		c0,0,0.01,0.01,0.01,0.01l0,0l0,0C78.64,65.02,78.64,65.02,78.63,65.01L78.63,65.01 M78.18,64.52c0.14,0.16,0.29,0.32,0.43,0.48
		l0,0l0,0C78.47,64.84,78.33,64.68,78.18,64.52L78.18,64.52 M78.15,64.48L78.15,64.48c0.01,0.01,0.03,0.03,0.04,0.04
		C78.17,64.5,78.16,64.49,78.15,64.48L78.15,64.48 M67.12,64.06L67.12,64.06c-0.02,0.04-0.05,0.08-0.07,0.12l0,0l0,0
		C67.08,64.14,67.1,64.1,67.12,64.06 M67.18,63.96L67.18,63.96c-0.02,0.03-0.04,0.07-0.06,0.1l0,0l0,0
		C67.14,64.03,67.16,63.99,67.18,63.96L67.18,63.96 M77.65,63.93L77.65,63.93c0.16,0.18,0.33,0.36,0.49,0.55l0,0
		C77.98,64.29,77.82,64.11,77.65,63.93L77.65,63.93 M76.34,62.41c0.16,0.2,0.32,0.39,0.49,0.59l0,0l0,0
		C76.66,62.8,76.5,62.61,76.34,62.41L76.34,62.41 M68.26,61.99L68.26,61.99c-0.06,0.12-0.12,0.23-0.19,0.35l0,0l0,0
		C68.13,62.22,68.2,62.1,68.26,61.99L68.26,61.99 M69.28,59.97L69.28,59.97c-0.05,0.11-0.11,0.23-0.16,0.34
		c-0.14,0.28-0.28,0.56-0.43,0.85l0,0l0,0c0.14-0.29,0.29-0.57,0.43-0.85C69.17,60.19,69.22,60.08,69.28,59.97L69.28,59.97
		 M69.74,58.95L69.74,58.95c-0.07,0.16-0.15,0.33-0.23,0.51l0,0l0,0C69.59,59.28,69.67,59.11,69.74,58.95L69.74,58.95 M69.91,58.57
		L69.91,58.57C69.91,58.58,69.91,58.58,69.91,58.57L69.91,58.57C69.91,58.58,69.91,58.58,69.91,58.57L69.91,58.57L69.91,58.57
		C69.91,58.58,69.91,58.58,69.91,58.57C69.91,58.58,69.91,58.58,69.91,58.57L69.91,58.57 M70.17,57.93L70.17,57.93
		c-0.04,0.1-0.08,0.2-0.12,0.3l0,0l0,0C70.1,58.12,70.14,58.02,70.17,57.93L70.17,57.93 M72.92,57.7L72.92,57.7
		c0.48,0.82,1.35,2.18,3.25,4.5l0,0C74.27,59.88,73.4,58.52,72.92,57.7L72.92,57.7 M70.44,57.26L70.44,57.26L70.44,57.26
		c-0.01,0.04-0.03,0.07-0.04,0.11l0,0l0,0C70.41,57.33,70.42,57.29,70.44,57.26L70.44,57.26 M70.62,56.75L70.62,56.75
		c-0.06,0.16-0.12,0.33-0.18,0.5l0,0C70.5,57.08,70.57,56.91,70.62,56.75L70.62,56.75 M72.14,56.25L72.14,56.25
		c0.23,0.51,0.43,0.86,0.52,1l0,0l0,0C72.57,57.11,72.37,56.76,72.14,56.25L72.14,56.25L72.14,56.25 M71.61,55L71.61,55
		c0.04,0.12,0.08,0.23,0.13,0.32l0,0C71.69,55.23,71.65,55.12,71.61,55L71.61,55"/>
	<path class="st668" d="M70.85,56.07c0,0.01-0.01,0.02-0.01,0.03l0-0.01C70.84,56.09,70.84,56.08,70.85,56.07"/>
	<polyline class="st668" points="70.84,56.1 70.83,56.13 70.82,56.16 70.83,56.11 70.84,56.1 	"/>
	<path class="st668" d="M72.7,57.32c0.01,0.02,0.03,0.05,0.04,0.07c-0.01-0.02-0.02-0.04-0.03-0.06l0,0
		C72.71,57.33,72.71,57.32,72.7,57.32 M70.61,56.78c-0.07,0.19-0.14,0.38-0.22,0.59c0.01-0.04,0.03-0.07,0.04-0.11l0,0
		C70.5,57.09,70.56,56.93,70.61,56.78"/>
	<path class="st675" d="M72.7,57.32L72.7,57.32c0,0.01,0.01,0.01,0.01,0.01l0,0l0,0c0,0,0,0,0,0C72.71,57.33,72.71,57.32,72.7,57.32
		"/>
	<path class="st668" d="M70.17,57.93l-0.12,0.29C70.1,58.12,70.14,58.02,70.17,57.93"/>
	<polyline class="st668" points="69.91,58.57 69.91,58.58 69.91,58.58 69.91,58.57 	"/>
	<path class="st668" d="M69.74,58.95c-0.02,0.04-0.04,0.08-0.06,0.12c-0.05,0.13-0.11,0.25-0.17,0.38
		C69.59,59.28,69.67,59.11,69.74,58.95"/>
	<path class="st668" d="M69.28,59.97c-0.02,0.04-0.03,0.07-0.05,0.11l-0.52,1.05c-0.01,0.01-0.01,0.02-0.02,0.04
		c0.14-0.29,0.29-0.57,0.43-0.85C69.17,60.19,69.22,60.08,69.28,59.97"/>
	<path class="st668" d="M68.26,61.99c-0.06,0.11-0.12,0.23-0.19,0.35C68.13,62.22,68.2,62.1,68.26,61.99"/>
	<path class="st668" d="M77.66,63.93c0.16,0.18,0.33,0.36,0.49,0.55l0,0c0.01,0.01,0.03,0.03,0.04,0.04
		c0.12,0.13,0.23,0.26,0.35,0.39c-0.18-0.19-0.35-0.39-0.51-0.57C77.89,64.19,77.77,64.06,77.66,63.93"/>
	<path class="st668" d="M67.18,63.96l-0.12,0.22c0.02-0.04,0.05-0.08,0.07-0.12l0,0C67.14,64.03,67.16,63.99,67.18,63.96"/>
	<path class="st668" d="M66.81,64.6l-0.01,0.01c-0.01,0.01-0.01,0.02-0.02,0.04l-0.01,0.02l0,0.01L66.81,64.6"/>
	<path class="st668" d="M66.8,64.61l-0.01,0.01l-0.01,0.02C66.79,64.63,66.8,64.62,66.8,64.61"/>
	<path class="st668" d="M78.95,65.35c0.15,0.16,0.29,0.31,0.44,0.47l0,0l0.03,0.03C79.26,65.68,79.1,65.52,78.95,65.35"/>
	<path class="st668" d="M80.82,67.28L80.82,67.28c0.28,0.28,0.55,0.55,0.82,0.82c-0.28-0.27-0.55-0.54-0.81-0.81
		C80.83,67.29,80.82,67.29,80.82,67.28"/>
	<path class="st668" d="M82.13,68.58c0.11,0.11,0.22,0.21,0.34,0.32l0,0c0.2,0.19,0.39,0.38,0.59,0.56l0,0l-0.09-0.09l-0.19-0.19
		C82.55,68.98,82.34,68.78,82.13,68.58"/>
	<path class="st668" d="M62.11,80.57c-0.15,0.26-0.24,0.55-0.24,0.88c0,0.16,0.02,0.32,0.06,0.49c0,0,0.03-0.36,0.12-0.98
		C62.07,80.84,62.09,80.71,62.11,80.57"/>
	<path class="st672" d="M109.24,24.81c-2.5,0-5.2,0.65-7.57,1l1.87,1.51l0.83,0.67l2.72,2.29c1.11,0.41,2.21,1.23,3.13,2.25
		c0.93,1.03,1.72,2.37,2.21,3.75c0.25,0.41,0.36,0.95,0.36,1.57c0,1.45-0.6,3.3-1.34,4.74c-0.47,0.69-1.55,1.04-2.01,1.73
		c-1.51,2.75-1.11,5.49-3.98,7.84c-0.86,0.52-1.22,2-1.22,3.24c0,0.39,0.03,0.76,0.1,1.06c0.18,0.49,1.49,1.2,3.41,2.06
		c0.94,0.47,2.04,0.98,3.23,1.54c1.18,0.56,2.41,1.23,3.69,1.89c2.5,1.38,5.04,2.98,6.95,4.46c0.48,0.36,0.93,0.7,1.33,1.03
		c0.39,0.34,0.74,0.65,1.04,0.93c0.59,0.55,0.98,0.96,1.08,1.16c0.49,0.64,1.86,0.45,2.33,1.14c0.22,0.76,0.31,1.51,0.31,2.24
		c0,0.75-0.1,1.49-0.26,2.2c-0.36,1.45-0.98,2.84-1.53,4.22c-0.43,1.36-0.63,3.38-0.63,5.31c0,0.18,0,0.36,0.01,0.54l0.46,24.9
		l5.28-25.96c0.23-1.13,0.44-2.32,0.61-3.51c0.08-0.6,0.15-1.2,0.23-1.78c0.04-0.58,0.07-1.14,0.1-1.68
		c0.04-0.8,0.06-1.55,0.06-2.24c0-1.2-0.06-2.19-0.18-2.8c-0.13-1.13-0.42-2.21-0.79-3.25c-0.39-1.01-0.9-1.95-1.41-2.89
		c-1.01-1.91-2.2-3.53-2.95-5.48c0,0,0-0.01,0-0.01c0-0.04,0.09-0.07,0.25-0.07c0.11,0,0.26,0.01,0.44,0.05
		c-0.25-0.41-0.51-0.81-0.79-1.2c-0.36-0.12-1.3-0.82-1.65-0.93c-0.47-0.92-0.59-1.77-0.62-2.92l0,0l0,0c0.11-0.66,0.16-1.33,0.15-2
		c0-3.44-1.3-7.02-2.84-10.29c-0.92-2.04-1.92-3.88-2.79-5.82c-0.87-1.86-1.61-3.75-2.01-5.64c-0.53-1.4-1.39-3.64-3.01-4.6
		c-1.32-0.66-2.57-2.01-3.89-2.23C109.71,24.82,109.47,24.81,109.24,24.81"/>
	<path class="st672" d="M75.18,74.55c-0.36,0.39-1.13,0.81-1.47,1.57c-0.45,0.71-0.49,1.52-0.51,2.34c0.01,0.37,0.02,0.74,0.02,1.12
		c0,0.46-0.02,0.92-0.11,1.41c-0.04,0.75-0.1,1.52-0.1,2.3c0,1.13,0.13,2.29,0.64,3.47c0.51,0.93,1.09,1.71,1.85,2.4
		c0.03-0.54,0.13-1.14,0.32-1.76l0,0l0,0c0.25-0.91,0.72-1.85,1.5-2.69c-0.28-0.19-0.54-0.39-0.78-0.61
		c-0.88-0.76-1.56-1.72-1.6-2.86l0,0l0,0c0.06-0.97,0.64-2.08,1.08-2.98c0.25-0.52,0.44-0.96,0.44-1.34c0-0.29-0.11-0.55-0.39-0.8
		C75.51,75.66,75.9,74.73,75.18,74.55L75.18,74.55"/>
	<path class="st672" d="M77.32,84.72c-0.78,0.84-1.25,1.79-1.5,2.69l0,0l0,0c-0.19,0.62-0.28,1.22-0.32,1.76
		c0.26,0.23,0.53,0.45,0.83,0.66c1.86,1.65,3.96,2.83,6.01,3.59c2.05,0.77,4.04,1.15,5.89,1.28c0.59-0.61,1.2-0.81,1.81-0.81
		c1.14,0,2.27,0.71,3.25,0.85c0.46,0.12,0.85,0.59,1.39,0.91c1.36,0.36,2.89-0.33,3.72,1.15c1.6,3.31,3.26,6.28,5.34,8.82
		c0.7,0.86,2.41,2.34,4.36,3.83l15.39,11.78l2.24-11.01l-17.14-6.59c-1.95-0.75-3.83-1.12-3.91-1.3l0,0l0,0
		c0.76-2.52,0.92-5.74,2.62-7.47c0.21-0.22,0.17-1.04,0.25-1.56c-0.04-0.74-0.45-1.78-0.69-1.85l0,0l0,0
		c0.15-0.05,0.22-0.1,0.22-0.16c0-0.46-4.01-1.28-5.95-1.28c-0.62,0-1.02,0.08-1.02,0.29c0,0.08,0.07,0.19,0.23,0.32l0,0l0,0
		c-0.47-0.35-0.96-0.49-1.46-0.49c-0.9,0-1.86,0.44-2.86,0.88c-1,0.44-2.03,0.88-3.09,0.88c-0.08,0-0.16,0-0.25-0.01
		C90.81,91.86,89.05,90,87.08,90c-0.27,0-0.53,0.03-0.81,0.11c-0.77,0.11-1.63,0.27-2.43,0.27c-1.08,0-2.05-0.29-2.54-1.38
		c-0.63-1.21-1.09-2.08-1.79-2.87C78.81,85.66,78.03,85.22,77.32,84.72"/>
	<polyline class="st672" points="124.61,125.91 124.93,126.21 124.94,126.15 124.61,125.91 	"/>
	<path class="st700" d="M71.32,53.77c-0.01,0.11-0.01,0.19-0.02,0.25C71.3,53.96,71.31,53.88,71.32,53.77"/>
	<path class="st700" d="M71.28,54.14c-0.01,0.03-0.01,0.08-0.02,0.12c-0.01,0.06-0.02,0.12-0.03,0.2c-0.01,0.04-0.01,0.08-0.02,0.12
		c0.02-0.12,0.03-0.22,0.05-0.3C71.27,54.22,71.28,54.18,71.28,54.14"/>
	<path class="st700" d="M71.46,54.51C71.46,54.51,71.46,54.51,71.46,54.51c0.02,0.07,0.04,0.14,0.07,0.22
		c0.01,0.03,0.02,0.06,0.03,0.09c0.01,0.04,0.03,0.08,0.04,0.13c0.01,0.02,0.01,0.04,0.02,0.05c0.04,0.12,0.08,0.23,0.13,0.32
		c-0.04-0.09-0.08-0.19-0.12-0.3c-0.01-0.02-0.02-0.05-0.02-0.07c-0.01-0.04-0.02-0.07-0.04-0.11c-0.01-0.04-0.03-0.08-0.04-0.12
		C71.5,54.64,71.48,54.57,71.46,54.51C71.46,54.51,71.46,54.51,71.46,54.51"/>
	<path class="st700" d="M71.22,54.58c0,0.02-0.01,0.04-0.01,0.06c0,0.01,0,0.02-0.01,0.03c-0.08,0.36-0.21,1.02-0.58,2.1
		c-0.05,0.15-0.11,0.31-0.17,0.48c0.07-0.18,0.13-0.35,0.18-0.5c0.37-1.07,0.5-1.71,0.58-2.08c0-0.01,0-0.02,0.01-0.03
		C71.21,54.62,71.21,54.6,71.22,54.58"/>
	<path class="st700" d="M71.74,55.32c0.13,0.37,0.27,0.68,0.41,0.93C72.01,56,71.87,55.68,71.74,55.32"/>
	<path class="st675" d="M72.7,57.32L72.7,57.32c0,0.01,0.01,0.01,0.01,0.01c0,0,0,0,0,0l0,0l0,0C72.71,57.33,72.71,57.32,72.7,57.32
		L72.7,57.32"/>
	<path class="st700" d="M72.14,56.25c0.23,0.51,0.43,0.86,0.52,1c0.02,0.03,0.03,0.05,0.04,0.06c0,0.01,0.01,0.01,0.01,0.01
		c0,0,0,0-0.01-0.01C72.66,57.25,72.42,56.87,72.14,56.25"/>
	<path class="st700" d="M70.44,57.26c-0.03,0.08-0.06,0.16-0.09,0.23c0.02-0.04,0.03-0.08,0.05-0.12
		C70.41,57.33,70.42,57.29,70.44,57.26"/>
	<path class="st700" d="M72.71,57.33c0.06,0.11,0.13,0.23,0.21,0.37c0.48,0.82,1.35,2.18,3.25,4.5c-1.9-2.32-2.77-3.67-3.25-4.5
		c-0.07-0.12-0.13-0.22-0.18-0.32C72.73,57.37,72.72,57.35,72.71,57.33"/>
	<path class="st700" d="M70.35,57.49c-0.05,0.12-0.09,0.24-0.14,0.36C70.25,57.73,70.3,57.61,70.35,57.49"/>
	<path class="st700" d="M70.2,57.85c-0.01,0.03-0.02,0.05-0.03,0.08c-0.04,0.1-0.08,0.19-0.12,0.29c-0.05,0.12-0.1,0.24-0.15,0.36
		c0,0,0,0,0,0c0,0,0,0,0,0c0.05-0.12,0.1-0.24,0.15-0.35c0.04-0.1,0.08-0.2,0.12-0.3C70.18,57.9,70.19,57.88,70.2,57.85"/>
	<path class="st700" d="M76.17,62.2c0.06,0.07,0.11,0.14,0.17,0.21C76.28,62.34,76.23,62.27,76.17,62.2"/>
	<path class="st700" d="M77.1,63.31c0.16,0.18,0.33,0.36,0.49,0.55C77.43,63.68,77.26,63.49,77.1,63.31 M76.34,62.41
		c0.16,0.2,0.32,0.39,0.49,0.59c0.09,0.1,0.18,0.21,0.27,0.31C76.84,63.01,76.58,62.71,76.34,62.41"/>
	<path class="st700" d="M77.59,63.86c0.02,0.02,0.04,0.05,0.06,0.07c0.16,0.18,0.33,0.36,0.49,0.55c-0.16-0.18-0.33-0.37-0.49-0.55
		C77.63,63.91,77.61,63.88,77.59,63.86"/>
	<path class="st700" d="M67.12,64.06c-0.02,0.04-0.05,0.08-0.07,0.12c-0.08,0.14-0.17,0.29-0.25,0.43
		c-0.21,0.37-0.43,0.74-0.65,1.11c0.21-0.36,0.42-0.72,0.63-1.08c0.01-0.01,0.01-0.02,0.02-0.04c0.08-0.14,0.17-0.29,0.25-0.43
		C67.08,64.14,67.1,64.1,67.12,64.06"/>
	<path class="st700" d="M78.18,64.52c0.14,0.16,0.29,0.32,0.43,0.48c0.01,0.01,0.01,0.01,0.02,0.02c0,0,0.01,0.01,0.01,0.01
		c0.04,0.04,0.07,0.08,0.11,0.12c0.01,0.01,0.01,0.01,0.02,0.02c0,0,0.01,0.01,0.01,0.01c0.2,0.22,0.4,0.43,0.61,0.65
		c-0.15-0.15-0.3-0.31-0.44-0.47c-0.14-0.15-0.28-0.3-0.41-0.45C78.42,64.78,78.3,64.65,78.18,64.52"/>
	<path class="st700" d="M66.15,65.72c-0.15,0.26-0.3,0.51-0.45,0.77C65.86,66.23,66.01,65.98,66.15,65.72"/>
	<path class="st675" d="M82.13,68.58c0.09,0.09,0.19,0.18,0.28,0.27c0.02,0.02,0.03,0.03,0.05,0.05l0,0l0,0
		C82.35,68.79,82.24,68.69,82.13,68.58L82.13,68.58 M80.82,67.28L80.82,67.28L80.82,67.28c0.28,0.28,0.55,0.55,0.82,0.82l0,0
		C81.37,67.84,81.1,67.57,80.82,67.28L80.82,67.28L80.82,67.28 M79.39,65.82L79.39,65.82l0.03,0.03l0,0L79.39,65.82L79.39,65.82"/>
	<path class="st700" d="M80.83,67.29c0.29,0.29,0.58,0.59,0.88,0.88c0.14,0.14,0.28,0.27,0.42,0.41c0.09,0.09,0.19,0.18,0.28,0.27
		c-0.09-0.09-0.19-0.18-0.28-0.27c-0.16-0.16-0.32-0.31-0.49-0.47C81.37,67.84,81.1,67.57,80.83,67.29"/>
	<path class="st700" d="M65.7,66.49c-0.25,0.42-0.51,0.85-0.77,1.27C65.19,67.34,65.45,66.91,65.7,66.49"/>
	<path class="st700" d="M64.93,67.76c-0.52,0.84-1.06,1.69-1.6,2.56C63.87,69.45,64.41,68.6,64.93,67.76"/>
	<path class="st700" d="M82.46,68.9c0.2,0.19,0.39,0.38,0.59,0.56c0.46,0.44,0.93,0.89,1.39,1.33
		C83.78,70.16,83.12,69.53,82.46,68.9"/>
	<path class="st700" d="M63.27,70.41c-0.63,0.97-1.27,1.95-1.92,2.95C62,72.37,62.64,71.38,63.27,70.41"/>
	<path class="st700" d="M62.84,72.56c-0.7,0.33-1.21,0.71-1.59,1.09C61.63,73.27,62.14,72.89,62.84,72.56"/>
	<polyline class="st700" points="61.23,73.66 61.23,73.66 61.23,73.66 	"/>
	<polyline class="st700" points="61.12,73.78 61.11,73.79 61.12,73.78 	"/>
	<path class="st700" d="M90.95,76.98c-0.22,0.33-0.47,0.66-0.67,0.92C90.48,77.65,90.72,77.32,90.95,76.98"/>
	<path class="st700" d="M90.22,77.97c-0.4,0.5-0.69,0.79-0.69,0.79C89.53,78.76,89.82,78.47,90.22,77.97"/>
	<path class="st700" d="M89.53,78.76c-0.59,0.14-1.18,0.3-1.75,0.46C88.35,79.06,88.94,78.9,89.53,78.76"/>
	<path class="st700" d="M87.49,79.6c-0.44,0.45-1.45,0.96-2.43,1.45C86.05,80.56,87.05,80.05,87.49,79.6"/>
	<path class="st700" d="M84.94,81.12c-0.64,0.32-1.29,0.6-1.77,0.81C83.65,81.73,84.29,81.44,84.94,81.12"/>
	<path class="st700" d="M83.14,81.95c-0.47,0.2-0.78,0.34-0.81,0.35C82.36,82.29,82.67,82.15,83.14,81.95"/>
	<path class="st700" d="M82,82.35c-3.87,0.69-5.61,2.98-6.18,5.06C76.39,85.34,78.12,83.04,82,82.35"/>
	<path class="st700" d="M75.82,87.41c-0.19,0.62-0.28,1.22-0.32,1.76c0,0,0,0,0,0C75.54,88.63,75.63,88.03,75.82,87.41"/>
	<path class="st678" d="M126.94,60.42c-0.16,0-0.25,0.03-0.25,0.07c0,0,0,0.01,0,0.01c0.75,1.95,1.94,3.56,2.95,5.48
		c0.51,0.94,1.02,1.88,1.41,2.89c0.38,1.04,0.66,2.12,0.79,3.25c0.12,0.61,0.18,1.6,0.18,2.8c0,0.69-0.02,1.44-0.06,2.24
		c-0.03,0.54-0.07,1.11-0.1,1.68c-0.07,0.58-0.15,1.18-0.23,1.78c-0.17,1.19-0.38,2.39-0.61,3.51l-5.31,26.08l-2.24,11.01
		l-15.39-11.78c-1.95-1.49-3.65-2.96-4.36-3.83c-2.08-2.54-3.74-5.5-5.34-8.82c-0.83-1.48-2.36-0.79-3.72-1.15
		c-0.54-0.32-0.94-0.79-1.39-0.91c-0.98-0.14-2.11-0.85-3.25-0.85c-0.61,0-1.22,0.2-1.81,0.81c-1.85-0.13-3.84-0.51-5.89-1.28
		c-2.05-0.77-4.15-1.94-6.01-3.59c-0.3-0.21-0.58-0.43-0.83-0.66c0,0,0,0,0,0c-0.76-0.69-1.35-1.47-1.85-2.4
		c-0.51-1.18-0.64-2.34-0.64-3.47c0-0.78,0.06-1.55,0.1-2.3c0.09-0.49,0.11-0.95,0.11-1.41c0-0.38-0.01-0.75-0.02-1.12l0,0l0,0
		c0.02-0.82,0.06-1.63,0.51-2.34c0.34-0.75,1.11-1.17,1.47-1.57c-0.05-0.09-0.07-0.19-0.07-0.29c0-0.13,0.02-0.27,0.02-0.39
		c0-0.17-0.05-0.3-0.31-0.31c-0.11-0.03-0.23-0.04-0.34-0.04c-0.57,0-1.13,0.34-1.65,0.6c-2.18,1.76-4.08,4.78-4.17,8.17
		c0,0.03,0,0.06,0,0.09c0,3.96,1.44,8.05,4.49,11.42c0.47,0.53,0.96,1.02,1.47,1.49c2.67,2.45,5.73,4.07,8.6,4.95
		c0.26,0.08,0.51,0.11,0.76,0.11c1.01,0,1.93-0.55,2.81-0.75c0.57-0.17,1.13-0.23,1.68-0.23c0.69,0,1.36,0.08,2.01,0.12
		c0.19,0.01,0.38,0.02,0.57,0.02c0.95,0,1.87-0.18,2.8-1c0.12-0.12,0.26-0.17,0.41-0.17c0.22,0,0.45,0.1,0.64,0.26
		c2.91,4.02,5.64,7.62,8.61,11.29c0.76,1.02,2.42,2.38,4.22,3.7l16.87,12.31l3.88,2.83l6.65-45.38c0.18-1.19,0.32-2.44,0.43-3.66
		c0.05-0.62,0.09-1.22,0.14-1.81c0.02-0.58,0.02-1.14,0.03-1.69c0-2.16-0.07-3.99-0.21-4.78c-0.3-1.38-0.68-2.62-1.1-3.72
		c-0.42-1.1-0.93-1.98-1.43-2.78c-0.5-0.79-1.02-1.46-1.52-2.01c-0.52-0.53-1.03-0.94-1.51-1.28
		C128.55,60.67,127.42,60.42,126.94,60.42"/>
</g>
<g>
	<path d="M129.86,100.37c-1.64-1.61-3.28-1.23-4.79,0.06c-2.32,1.98-5.28,1.67-7.97,2.14c-7.6,1.33-15.29,2.18-22.87,3.59
		c-6.36,1.18-12.61,2.93-18.93,4.34c-3.71,0.82-7.44,1.52-11.19,2.14c-0.6,0.1-1.52-0.35-1.95-0.84c-1.35-1.57-3.15-2.1-5.04-2.38
		c-2.05-0.3-3.19,0.57-3.62,2.57c-0.25,1.18-0.44,2.38-0.63,3.44c-8.82,1.01-17.35,1.98-25.89,2.95c-2.73,0.31-3.65-0.95-2.72-3.45
		c2.3-6.16,4.45-12.37,6.78-18.51c1.23-3.22,2.76-6.33,4.1-9.51c4.59-10.92,9.23-21.81,13.68-32.78c1.93-4.76,3.17-9.77,6.14-14.1
		c2.25-3.27,4.79-5.28,9.11-4.95c5.24,0.4,10.53,0.01,15.78,0.34c7.6,0.47,15.08,1.44,22.22,4.58c2.65,1.17,5.28,2.3,7.76,3.79
		c3.34,1.99,5.82,4.73,7.69,8.14c1.61,2.94,3.49,5.72,5.18,8.61c2.92,4.97,4.77,10.36,5.67,16.02c1,6.28,1.79,12.6,2.61,18.91
		C131.21,97.02,131.35,98.62,129.86,100.37z M50.63,113.81c-0.14-2.7,1.19-4.64,3.05-5.88c1.92-1.27,4.18-2.16,6.42-2.77
		c2.96-0.8,5.92,0.01,8.24,1.83c2.4,1.88,4.85,2.03,7.55,1.45c2.85-0.61,5.66-1.41,8.51-1.99c6.48-1.32,12.95-2.64,19.46-3.79
		c4.75-0.84,9.53-1.52,14.32-2.04c2.03-0.22,3.12-1.18,3.51-2.97c0.45-2.06,0.84-4.17,0.97-6.27c0.47-7.7-1.16-15.12-3.13-22.51
		c-2.34-8.75-6.37-16.44-13.34-22.38c-3.53-3-7.34-4.65-12-2.43c-5.09,2.43-9.85,5.26-13.65,9.54c-3.77,4.25-7.64,8.41-11.42,12.65
		c-1.69,1.9-3.28,3.9-4.94,5.88c0.69,1.13,1.27,2.07,1.86,3.01c2.46,3.94,1.8,6.94-0.96,10.48c-2.3,2.95-7.42,4.33-10.36,2.83
		c-1.12-0.57-2.52-0.58-3.42-0.77c-4.89,4.7-9.58,8.88-13.88,13.42c-4.22,4.46-8.33,9.09-11.17,15.25
		C34.69,115.49,42.46,114.67,50.63,113.81z M29.07,107.19c0.6-0.33,0.84-0.39,0.97-0.55c5.12-6.38,10.72-12.29,17.12-17.43
		c0.98-0.79,1.62-2.11,2.16-3.3c1.1-2.43,1.92-4.98,3.05-7.4c0.38-0.81,1.26-1.78,2.05-1.92c2.94-0.53,5.04-2.52,6.87-4.39
		c4.89-5.01,9.34-10.43,14.02-15.64c2.23-2.49,4.54-4.91,6.87-7.31c1.46-1.5,3.14-2.8,4.48-4.4c0.64-0.76,1.06-2.06,0.92-3.02
		c-0.19-1.38-1.67-1.27-2.76-1.31c-7.28-0.27-14.56-0.49-21.83-0.73c-4.67-0.16-7.51,2.23-9.04,6.46c-0.08,0.21-0.15,0.42-0.23,0.63
		c-2.06,5.42-3.98,10.91-6.22,16.26c-5.1,12.14-10.38,24.2-15.54,36.32C30.92,101.87,30.11,104.39,29.07,107.19z M105.9,43.78
		c0.49,0.51,0.93,1.08,1.47,1.52c4.13,3.37,7.4,7.41,9.86,12.16c4.67,9.02,6.54,18.73,6.99,28.74c0.19,4.17,0.69,8.41-1.1,12.87
		c2.44-0.86,4.38-1.55,6.39-2.26c-0.65-5.46-1.22-10.78-1.94-16.08c-0.71-5.2-1.75-10.35-4.2-15.06c-2-3.86-4.31-7.56-6.24-11.46
		C114.7,49.31,110.88,45.98,105.9,43.78z M51,85.5c1.64,0.4,2.89,0.51,3.96,1c3.12,1.43,5.63,0.38,7.96-1.69
		c1.54-1.38,2.7-3.03,2.44-5.17c-0.27-2.27-0.79-4.52-2.64-5.85c-1.76,1.25-3.16,2.64-4.85,3.35C54.2,78.69,52.89,81.95,51,85.5z
		 M62.06,37.8c4.12,0.15,8.25,0.22,12.37,0.46c5.1,0.3,10.32-0.51,15.27,1.52c0.27,0.11,0.82-0.46,1.39-0.8
		C85.93,36.91,71.57,36.21,62.06,37.8z M67.51,109.52c-2.35-2.59-4.12-2.95-7.66-1.62C62.15,109.71,64.41,110.72,67.51,109.52z
		 M90.04,43.39c2.14-0.56,3.52-0.81,4.8-1.33c0.43-0.18,0.78-1.02,0.8-1.57c0.01-0.32-0.8-1.01-1.1-0.94
		c-1.03,0.25-2.11,0.61-2.96,1.22C91.01,41.17,90.79,42.06,90.04,43.39z"/>
	<path d="M99.71,88.47c-1.98-0.24-3.36-0.46-4.76-0.58c-3.3-0.27-5.56-2.06-6.51-5.23c-0.13-0.43-0.17-0.88-0.29-1.31
		c-1.58-5.7,1.65-9.89,7.56-9.99c3.42-0.06,6.66,0.34,9.73,1.97c3.35,1.78,4.62,6.4,2.32,9.41c-0.92,1.2-2.22,2.17-3.48,3.04
		C102.72,86.86,101.02,87.72,99.71,88.47z M96.33,86.29c4.63,0.09,6.11-1.99,5.41-6.15c-0.13-0.76-0.29-1.52-0.42-2.29
		c-0.43-2.49-2.45-4.54-4.57-4.63c-2.49-0.11-6.49,1.97-6.93,3.88C88.79,81.51,91.5,86.56,96.33,86.29z M102.68,74.17
		c0.6,3.22,1.12,6,1.64,8.81c2.27-0.66,2.5-2.52,2.36-4.65C106.53,75.91,104.87,75,102.68,74.17z"/>
	<path d="M63.08,58.22c-0.72-0.24-2.19-0.51-3.42-1.2c-3.95-2.2-4.38-5.82-1.27-9.13c3.44-3.67,7.9-4.47,12.52-1.16
		c2.97,2.13,3.1,6.13,0.31,8.65C69.7,56.75,65.97,58.17,63.08,58.22z M67.5,53.2c-0.73-1.26-1.3-2.49-2.09-3.54
		c-2.18-2.88-4.45-2.58-6.06,0.72c-1.39,2.84-0.85,4.39,1.96,5.62C63.96,57.18,64.82,56.82,67.5,53.2z M69.9,54.07
		c1.17-1.86,1.84-3.71,0.21-5.55c-0.96-1.08-1.99-2.36-3.85-1.58C67.51,49.38,68.64,51.6,69.9,54.07z"/>
</g>
</svg>
