<?xml version="1.0" encoding="utf-8"?>
<!-- Generator: Adobe Illustrator 23.0.1, SVG Export Plug-In . SVG Version: 6.00 Build 0)  -->
<svg version="1.1" id="Layer_1" xmlns="http://www.w3.org/2000/svg" xmlns:xlink="http://www.w3.org/1999/xlink" x="0px" y="0px"
	 viewBox="0 0 150 150" style="enable-background:new 0 0 150 150;" xml:space="preserve">
<style type="text/css">
	.st0{fill:#F49AB4;}
	.st1{fill:#F28DA7;}
	.st2{fill:#E85072;}
	.st3{fill:#E84B6F;}
	.st4{fill:#EB5A7D;}
	.st5{fill:#EF7994;}
	.st6{fill:#F8BCCD;}
	.st7{fill:#F38CA8;}
	.st8{fill:#EF728F;}
	.st9{fill:#FCE4EB;}
	.st10{fill:#F0CCCF;}
	.st11{fill:#DE8D95;}
	.st12{fill:#EBBABF;}
	.st13{fill:#E7ACB2;}
	.st14{fill:#E39DA3;}
	.st15{fill:#F5DEE0;}
	.st16{fill:#D97A83;}
	.st17{fill:#E4A6AD;}
	.st18{fill:#E9B6BB;}
	.st19{fill:#DA9197;}
	.st20{fill:#CC7077;}
	.st21{fill:#C9646C;}
	.st22{fill:#D4848B;}
	.st23{fill:#D17A81;}
	.st24{fill:#DD9EA3;}
	.st25{fill:#C65760;}
	.st26{fill:#D48189;}
	.st27{fill:#CF6E76;}
	.st28{fill:#C1575F;}
	.st29{fill:#B8424B;}
	.st30{fill:#B33C43;}
	.st31{fill:#BB4952;}
	.st32{fill:#C65E66;}
	.st33{fill:#BC4F57;}
	.st34{fill:#B0353D;}
	.st35{fill:#D67E84;}
	.st36{fill:#C6636B;}
	.st37{fill:#CA6C72;}
	.st38{fill:#B9454D;}
	.st39{fill:#C05B63;}
	.st40{fill:#C0545B;}
	.st41{fill:#BE4C53;}
	.st42{fill:#B43C44;}
	.st43{fill:#DF999F;}
	.st44{fill:#D27980;}
	.st45{fill:#C1555D;}
	.st46{fill:#CB6F76;}
	.st47{fill:#C8676E;}
	.st48{fill:#D5838A;}
	.st49{fill:#C65D64;}
	.st50{fill:#F1D1D4;}
	.st51{fill:#D38087;}
	.st52{fill:#CF737C;}
	.st53{fill:#D98C94;}
	.st54{fill:#E6B3B9;}
	.st55{fill:#D8898F;}
	.st56{fill:#C66269;}
	.st57{fill:#C96A72;}
	.st58{fill:#DD9399;}
	.st59{fill:#CF747B;}
	.st60{fill:#D48188;}
	.st61{fill:#D37D85;}
	.st62{fill:#DC9298;}
	.st63{fill:#D8838B;}
	.st64{fill:#FAECED;}
	.st65{fill:#EFCBD0;}
	.st66{fill:#EDC1C5;}
	.st67{fill:#D28089;}
	.st68{fill:#CB747D;}
	.st69{fill:#A8343C;}
	.st70{fill:#A62F37;}
	.st71{fill:#B03E44;}
	.st72{fill:#C25C63;}
	.st73{fill:#E1A8AC;}
	.st74{fill:#BE535C;}
	.st75{fill:#CE727C;}
	.st76{fill:#F5D8DA;}
	.st77{fill:#D8BAE7;}
	.st78{fill:#BC8FD2;}
	.st79{fill:#B17FC9;}
	.st80{fill:#7D3CA4;}
	.st81{fill:#884BAE;}
	.st82{fill:#A369BF;}
	.st83{fill:#D2B5E2;}
	.st84{fill:#9A62BC;}
	.st85{fill:#B17ECB;}
	.st86{fill:#ECE0F2;}
	.st87{fill:#FBCBC8;}
	.st88{fill:#F5908C;}
	.st89{fill:#F28580;}
	.st90{fill:#E64640;}
	.st91{fill:#E5413B;}
	.st92{fill:#E74E49;}
	.st93{fill:#ED6D68;}
	.st94{fill:#F7B5B0;}
	.st95{fill:#ED6660;}
	.st96{fill:#F48580;}
	.st97{fill:#FBDFDF;}
	.st98{fill:#F9C1C0;}
	.st99{fill:#F7B7B6;}
	.st100{fill:#EF7573;}
	.st101{fill:#EF6F6D;}
	.st102{fill:#F17F7C;}
	.st103{fill:#F4A19F;}
	.st104{fill:#F39998;}
	.st105{fill:#EC7271;}
	.st106{fill:#FAD1CF;}
	.st107{fill:#FADCDC;}
	.st108{fill:#F39391;}
	.st109{fill:#FDECEC;}
	.st110{fill:#FCDDDD;}
	.st111{fill:#ED8280;}
	.st112{fill:#E66160;}
	.st113{fill:#F18784;}
	.st114{fill:#F19593;}
	.st115{fill:#EB7675;}
	.st116{fill:#E86867;}
	.st117{fill:#F28785;}
	.st118{fill:#F3A7A7;}
	.st119{fill:#F08C8B;}
	.st120{fill:#F08785;}
	.st121{fill:#E55D5B;}
	.st122{fill:#E86D6C;}
	.st123{fill:#E85F5D;}
	.st124{fill:#E75958;}
	.st125{fill:#EA6664;}
	.st126{fill:#E76260;}
	.st127{fill:#E04948;}
	.st128{fill:#ED7371;}
	.st129{fill:#EA6B6A;}
	.st130{fill:#EB6763;}
	.st131{fill:#E45352;}
	.st132{fill:#E54E4C;}
	.st133{fill:#DE3635;}
	.st134{fill:#E65958;}
	.st135{fill:#E0413E;}
	.st136{fill:#EA6D6A;}
	.st137{fill:#EE9493;}
	.st138{fill:#EA6866;}
	.st139{fill:#F2A8A6;}
	.st140{fill:#E14543;}
	.st141{fill:#E3413F;}
	.st142{fill:#E64A48;}
	.st143{fill:#E56967;}
	.st144{fill:#E33F3D;}
	.st145{fill:#EB7775;}
	.st146{fill:#EE8483;}
	.st147{fill:#E64845;}
	.st148{fill:#E75655;}
	.st149{fill:#E65451;}
	.st150{fill:#EA7473;}
	.st151{fill:#E55B57;}
	.st152{fill:#E75756;}
	.st153{fill:#EB7472;}
	.st154{fill:#EE8C8A;}
	.st155{fill:#F5A3A2;}
	.st156{fill:#E14A49;}
	.st157{fill:#E14D4C;}
	.st158{fill:#E14B49;}
	.st159{fill:#DE3E3D;}
	.st160{fill:#E45350;}
	.st161{fill:#E14544;}
	.st162{fill:#E54E4B;}
	.st163{fill:#E34240;}
	.st164{fill:#E75C5A;}
	.st165{fill:#EB7C7B;}
	.st166{fill:#F3A2A1;}
	.st167{fill:#EA7877;}
	.st168{fill:#E66B6A;}
	.st169{fill:#E96A69;}
	.st170{fill:#E56160;}
	.st171{fill:#E44845;}
	.st172{fill:#EC7473;}
	.st173{fill:#F9C0D3;}
	.st174{fill:#F298B5;}
	.st175{fill:#EE89A7;}
	.st176{fill:#E54D73;}
	.st177{fill:#E44771;}
	.st178{fill:#E7567E;}
	.st179{fill:#EC7797;}
	.st180{fill:#F8BCCF;}
	.st181{fill:#EB6D8F;}
	.st182{fill:#F089A8;}
	.st183{fill:#FCE2EB;}
	.st184{fill:#E55B7F;}
	.st185{fill:#E6708E;}
	.st186{fill:#EB87A2;}
	.st187{fill:#E25677;}
	.st188{fill:#E7678B;}
	.st189{fill:#FBD7E3;}
	.st190{fill:#ED80A1;}
	.st191{fill:#E24166;}
	.st192{fill:#E13B65;}
	.st193{fill:#E34870;}
	.st194{fill:#E76486;}
	.st195{fill:#F49DB8;}
	.st196{fill:#F7BFD1;}
	.st197{fill:#E65C7F;}
	.st198{fill:#F6ABC4;}
	.st199{fill:#F6A7C2;}
	.st200{fill:#EA6189;}
	.st201{fill:#DB3258;}
	.st202{fill:#DA2E55;}
	.st203{fill:#F7B2C9;}
	.st204{fill:#EA6A8D;}
	.st205{fill:#DC355B;}
	.st206{fill:#DB3159;}
	.st207{fill:#DF3C63;}
	.st208{fill:#F9C5D6;}
	.st209{fill:#EB7697;}
	.st210{fill:#DE3B61;}
	.st211{fill:#DE375F;}
	.st212{fill:#E1426A;}
	.st213{fill:#FDE7EE;}
	.st214{fill:#EE89A9;}
	.st215{fill:#E2456B;}
	.st216{fill:#E14069;}
	.st217{fill:#E44D75;}
	.st218{fill:#E86B8C;}
	.st219{fill:#EE7A9C;}
	.st220{fill:#F5A8C0;}
	.st221{fill:#FACBDA;}
	.st222{fill:#E65A7D;}
	.st223{fill:#E04169;}
	.st224{fill:#FEF5F9;}
	.st225{fill:#F191B0;}
	.st226{fill:#EA7292;}
	.st227{fill:#F6B4C9;}
	.st228{fill:#FBD8E5;}
	.st229{fill:#E96C8F;}
	.st230{fill:#E35477;}
	.st231{fill:#EA7396;}
	.st232{fill:#EB7A9D;}
	.st233{fill:#E8698D;}
	.st234{fill:#EB7094;}
	.st235{fill:#E04B6E;}
	.st236{fill:#E66085;}
	.st237{fill:#EB7294;}
	.st238{fill:#E7678C;}
	.st239{fill:#EA6D91;}
	.st240{fill:#E14C71;}
	.st241{fill:#EE7A9D;}
	.st242{fill:#F393B2;}
	.st243{fill:#DC3F64;}
	.st244{fill:#EF82A3;}
	.st245{fill:#F39DB9;}
	.st246{fill:#DF466B;}
	.st247{fill:#DF4469;}
	.st248{fill:#F29A98;}
	.st249{fill:#E64F4D;}
	.st250{fill:#E74947;}
	.st251{fill:#E85956;}
	.st252{fill:#EC7775;}
	.st253{fill:#F8BCBA;}
	.st254{fill:#EC6F6D;}
	.st255{fill:#FCE2E2;}
	.st256{fill:#F8C8C6;}
	.st257{fill:#F08B89;}
	.st258{fill:#F18A89;}
	.st259{fill:#B093A4;}
	.st260{fill:#A38295;}
	.st261{fill:#6F455A;}
	.st262{fill:#694055;}
	.st263{fill:#794F64;}
	.st264{fill:#936F83;}
	.st265{fill:#CDB7C1;}
	.st266{fill:#B596A5;}
	.st267{fill:#A58394;}
	.st268{fill:#8C667A;}
	.st269{fill:#B696A7;}
	.st270{fill:#E8E0E7;}
	.st271{fill:#E1BCC2;}
	.st272{fill:#A9666E;}
	.st273{fill:#681C23;}
	.st274{fill:#641920;}
	.st275{fill:#73242D;}
	.st276{fill:#8D3F48;}
	.st277{fill:#C69197;}
	.st278{fill:#893841;}
	.st279{fill:#E3CCCE;}
	.st280{fill:#6F292E;}
	.st281{fill:#A15A63;}
	.st282{fill:#944952;}
	.st283{fill:#944953;}
	.st284{fill:#964A53;}
	.st285{fill:#984B54;}
	.st286{fill:#974A53;}
	.st287{fill:#A25A62;}
	.st288{fill:#D2BCC8;}
	.st289{fill:#C8B2BE;}
	.st290{fill:#936A80;}
	.st291{fill:#8E667B;}
	.st292{fill:#9B7589;}
	.st293{fill:#B293A3;}
	.st294{fill:#916B7F;}
	.st295{fill:#DDCCD6;}
	.st296{fill:#AC8B9C;}
	.st297{fill:#F1EBEF;}
	.st298{fill:#9C7A8C;}
	.st299{fill:#8F6C80;}
	.st300{fill:#B99DAC;}
	.st301{fill:#A27F91;}
	.st302{fill:#C2A7B6;}
	.st303{fill:#AB8E9F;}
	.st304{fill:#936D82;}
	.st305{fill:#856174;}
	.st306{fill:#B99DAB;}
	.st307{fill:#C2A9B6;}
	.st308{fill:#A38091;}
	.st309{fill:#BBA3B0;}
	.st310{fill:#7A5468;}
	.st311{fill:#855F73;}
	.st312{fill:#AE8E9F;}
	.st313{fill:#7C556A;}
	.st314{fill:#7B5066;}
	.st315{fill:#855C71;}
	.st316{fill:#AF8E9F;}
	.st317{fill:#734B60;}
	.st318{fill:#694256;}
	.st319{fill:#916A80;}
	.st320{fill:#886378;}
	.st321{fill:#875C71;}
	.st322{fill:#714B5E;}
	.st323{fill:#582F42;}
	.st324{fill:#795066;}
	.st325{fill:#5E3A4B;}
	.st326{fill:#8A6578;}
	.st327{fill:#A98E9D;}
	.st328{fill:#B9A1B1;}
	.st329{fill:#B08F9F;}
	.st330{fill:#B898AA;}
	.st331{fill:#896578;}
	.st332{fill:#653C50;}
	.st333{fill:#623A4E;}
	.st334{fill:#6C4257;}
	.st335{fill:#B28FA1;}
	.st336{fill:#80596E;}
	.st337{fill:#7F586C;}
	.st338{fill:#765063;}
	.st339{fill:#683F53;}
	.st340{fill:#774E63;}
	.st341{fill:#704B5F;}
	.st342{fill:#674355;}
	.st343{fill:#7F5A6E;}
	.st344{fill:#815A6E;}
	.st345{fill:#6A4558;}
	.st346{fill:#5D374A;}
	.st347{fill:#926D80;}
	.st348{fill:#70475B;}
	.st349{fill:#72495E;}
	.st350{fill:#673D52;}
	.st351{fill:#673D51;}
	.st352{fill:#60364B;}
	.st353{fill:#795265;}
	.st354{fill:#683F52;}
	.st355{fill:#7A5368;}
	.st356{fill:#987387;}
	.st357{fill:#70475C;}
	.st358{fill:#A07D92;}
	.st359{fill:#81596E;}
	.st360{fill:#926C7F;}
	.st361{fill:#80596D;}
	.st362{fill:#CDC0E4;}
	.st363{fill:#A998CF;}
	.st364{fill:#644DA1;}
	.st365{fill:#5E479E;}
	.st366{fill:#6F56A9;}
	.st367{fill:#755CAC;}
	.st368{fill:#8975BA;}
	.st369{fill:#C4BAE0;}
	.st370{fill:#755DAD;}
	.st371{fill:#846DB7;}
	.st372{fill:#E7E2F2;}
	.st373{fill:#9B89C5;}
	.st374{fill:#8871B8;}
	.st375{fill:#9C89C6;}
	.st376{fill:#8673B9;}
	.st377{fill:#B9E1BA;}
	.st378{fill:#ADDBAE;}
	.st379{fill:#99D09A;}
	.st380{fill:#65B567;}
	.st381{fill:#5FB261;}
	.st382{fill:#70BB71;}
	.st383{fill:#8DCB8E;}
	.st384{fill:#CBE9CB;}
	.st385{fill:#86C687;}
	.st386{fill:#98D099;}
	.st387{fill:#EBF5EB;}
	.st388{fill:#B9D6C9;}
	.st389{fill:#8EBD9E;}
	.st390{fill:#7DB18E;}
	.st391{fill:#408251;}
	.st392{fill:#3A7F4C;}
	.st393{fill:#4A8C5B;}
	.st394{fill:#68A279;}
	.st395{fill:#B5D4BE;}
	.st396{fill:#7CB38B;}
	.st397{fill:#619D71;}
	.st398{fill:#E0ECE4;}
	.st399{fill:#74A38C;}
	.st400{fill:#679880;}
	.st401{fill:#669780;}
	.st402{fill:#669881;}
	.st403{fill:#285E41;}
	.st404{fill:#235A3C;}
	.st405{fill:#31684A;}
	.st406{fill:#4D8268;}
	.st407{fill:#A1C2B0;}
	.st408{fill:#679981;}
	.st409{fill:#467B62;}
	.st410{fill:#D6E5DF;}
	.st411{fill:#8ECA8F;}
	.st412{fill:#7DC07F;}
	.st413{fill:#409841;}
	.st414{fill:#3A933C;}
	.st415{fill:#4AA14B;}
	.st416{fill:#68B569;}
	.st417{fill:#7CC07D;}
	.st418{fill:#B5DDB5;}
	.st419{fill:#61B062;}
	.st420{fill:#7CC17E;}
	.st421{fill:#E0EFE0;}
	.st422{fill:#EBF5DE;}
	.st423{fill:#D4EAB8;}
	.st424{fill:#D2E9B4;}
	.st425{fill:#D8ECBE;}
	.st426{fill:#E2F0CE;}
	.st427{fill:#F3F9EA;}
	.st428{fill:#DFF0CA;}
	.st429{fill:#FAFDF7;}
	.st430{fill:#D3C9BE;}
	.st431{fill:#CBBEB3;}
	.st432{fill:#BBAC9F;}
	.st433{fill:#97826F;}
	.st434{fill:#947E69;}
	.st435{fill:#9F8A79;}
	.st436{fill:#B5A495;}
	.st437{fill:#DED6CE;}
	.st438{fill:#BBAD9F;}
	.st439{fill:#AE9E8D;}
	.st440{fill:#F2EFEC;}
	.st441{fill:#B1A091;}
	.st442{fill:#B1A090;}
	.st443{fill:#D8BACF;}
	.st444{fill:#976286;}
	.st445{fill:#905778;}
	.st446{fill:#4F1939;}
	.st447{fill:#4C1637;}
	.st448{fill:#5A2144;}
	.st449{fill:#773B60;}
	.st450{fill:#B88FAD;}
	.st451{fill:#6E345A;}
	.st452{fill:#8E567D;}
	.st453{fill:#E1CCDA;}
	.st454{fill:#C4E2A7;}
	.st455{fill:#93C35F;}
	.st456{fill:#8EC15A;}
	.st457{fill:#9AC868;}
	.st458{fill:#B0D587;}
	.st459{fill:#DCEBC3;}
	.st460{fill:#C8E0AA;}
	.st461{fill:#ABD280;}
	.st462{fill:#CAE2A9;}
	.st463{fill:#EFF8E7;}
	.st464{fill:#FFF6C0;}
	.st465{fill:#FFEC97;}
	.st466{fill:#FFDC4B;}
	.st467{fill:#FFD945;}
	.st468{fill:#FFDD54;}
	.st469{fill:#FFE774;}
	.st470{fill:#FFF4BA;}
	.st471{fill:#FFE46C;}
	.st472{fill:#FFF9E2;}
	.st473{fill:#FDE2C1;}
	.st474{fill:#F9CA98;}
	.st475{fill:#F9C18A;}
	.st476{fill:#F5994E;}
	.st477{fill:#F49448;}
	.st478{fill:#F8A158;}
	.st479{fill:#F8B577;}
	.st480{fill:#FCDDBC;}
	.st481{fill:#F8B06F;}
	.st482{fill:#FFEFE2;}
	.st483{fill:#F8A7A4;}
	.st484{fill:#EF8262;}
	.st485{fill:#EC605A;}
	.st486{fill:#EB5B55;}
	.st487{fill:#EC6964;}
	.st488{fill:#F28783;}
	.st489{fill:#F9C4C1;}
	.st490{fill:#F2817A;}
	.st491{fill:#EB6449;}
	.st492{fill:#FCE7E7;}
	.st493{fill:#FFEA88;}
	.st494{fill:#FFEB87;}
	.st495{fill:#FDF2E3;}
	.st496{fill:#FDEFDD;}
	.st497{fill:#F9E1C4;}
	.st498{fill:#FADEB9;}
	.st499{fill:#FADDB7;}
	.st500{fill:#FAE0BF;}
	.st501{fill:#FBE9CF;}
	.st502{fill:#F9DAB8;}
	.st503{fill:#FDF5EB;}
	.st504{fill:#FBE6CB;}
	.st505{fill:#FFFBF7;}
	.st506{fill:#FBDFBE;}
	.st507{fill:#F7D8B5;}
	.st508{fill:#FBE8CF;}
	.st509{fill:#FBE3C8;}
	.st510{fill:#F9E8CF;}
	.st511{fill:#F8DBB7;}
	.st512{fill:#FADBB5;}
	.st513{fill:#F7D5AE;}
	.st514{fill:#FDE9D5;}
	.st515{fill:#FAE3C8;}
	.st516{fill:#F7D1A4;}
	.st517{fill:#F5CD9D;}
	.st518{fill:#F7D8B0;}
	.st519{fill:#F8D4A9;}
	.st520{fill:#F8D3A6;}
	.st521{fill:#F8D8AF;}
	.st522{fill:#F7CD9E;}
	.st523{fill:#F4C896;}
	.st524{fill:#FBE3C5;}
	.st525{fill:#F7DBB8;}
	.st526{fill:#F7D8B1;}
	.st527{fill:#F7D7B0;}
	.st528{fill:#F8CD9F;}
	.st529{fill:#F8CD9E;}
	.st530{fill:#F1BE84;}
	.st531{fill:#F8D0A3;}
	.st532{fill:#F1C38D;}
	.st533{fill:#F8D8B1;}
	.st534{fill:#FBE2C8;}
	.st535{fill:#F9EAD3;}
	.st536{fill:#F9D3AA;}
	.st537{fill:#F7C896;}
	.st538{fill:#F7C794;}
	.st539{fill:#F7CA9A;}
	.st540{fill:#F7D3AB;}
	.st541{fill:#F8D8B5;}
	.st542{fill:#F9E6CF;}
	.st543{fill:#F7C897;}
	.st544{fill:#F8D3AA;}
	.st545{fill:#F7CEA2;}
	.st546{fill:#F4CD9E;}
	.st547{fill:#F5D2A5;}
	.st548{fill:#FBE2C2;}
	.st549{fill:#F5D1A8;}
	.st550{fill:#F8D5AB;}
	.st551{fill:#F2C695;}
	.st552{fill:#F8D3A8;}
	.st553{fill:#F5C998;}
	.st554{fill:#F5C894;}
	.st555{fill:#F2C997;}
	.st556{fill:#F2C48D;}
	.st557{fill:#F4C694;}
	.st558{fill:#F5CE9D;}
	.st559{fill:#F4C594;}
	.st560{fill:#F5C995;}
	.st561{fill:#F4C48F;}
	.st562{fill:#F7D2A6;}
	.st563{fill:#F8DFBB;}
	.st564{fill:#FBE2C3;}
	.st565{fill:#F8CC9E;}
	.st566{fill:#FADFC1;}
	.st567{fill:#F9D8B5;}
	.st568{fill:#F4C997;}
	.st569{fill:#F9DDB8;}
	.st570{fill:#FDFCED;}
	.st571{fill:#FBF7D2;}
	.st572{fill:#F9F6CB;}
	.st573{fill:#F4EBA8;}
	.st574{fill:#F5E9A6;}
	.st575{fill:#F5EDAC;}
	.st576{fill:#F7F5C0;}
	.st577{fill:#FBFBE1;}
	.st578{fill:#F7F0BE;}
	.st579{fill:#FAF6CE;}
	.st580{fill:#FFFBF5;}
	.st581{fill:#BDDB97;}
	.st582{fill:#BBDC99;}
	.st583{fill:#BDDD99;}
	.st584{fill:#B0D484;}
	.st585{fill:#AFD484;}
	.st586{fill:#FFEA87;}
	.st587{fill:#D3E9BA;}
	.st588{fill:#E1EECE;}
	.st589{fill:#D3E8BB;}
	.st590{fill:#E3EECE;}
	.st591{opacity:0.9;}
	.st592{fill:#FFF8CD;}
	.st593{opacity:0.9;fill:#FFEE8A;}
	.st594{fill:#FFF19E;}
	.st595{fill:#FFF5B6;}
	.st596{fill:#FFFBE0;}
	.st597{fill:none;stroke:#FFF4B1;stroke-width:0;}
	.st598{fill:#FFFDF3;}
	.st599{fill:#FACEDD;}
	.st600{opacity:0.9;fill:#F38CAF;}
	.st601{fill:#F5A0BD;}
	.st602{fill:#F8B8CD;}
	.st603{fill:#FCE1EA;}
	.st604{fill:none;stroke:#F7B2C9;stroke-width:0;}
	.st605{fill:#FEF3F7;}
	.st606{fill:#FBDBB6;}
	.st607{fill:#FBD1A3;}
	.st608{fill:#F9B674;}
	.st609{fill:#F8B36E;}
	.st610{fill:#FABB7E;}
	.st611{fill:#FACB99;}
	.st612{fill:#FDE9D1;}
	.st613{fill:#FAC893;}
	.st614{fill:#F9D0A1;}
	.st615{fill:#FFF5EC;}
	.st616{fill:#D7ECC0;}
	.st617{fill:#B1D684;}
	.st618{fill:#ADD680;}
	.st619{fill:#B7D98D;}
	.st620{fill:#C8E2A7;}
	.st621{fill:#E8F2D6;}
	.st622{fill:#C3E0A0;}
	.st623{fill:#F5FAEF;}
	.st624{fill:#A87699;}
	.st625{fill:#A9716E;}
	.st626{fill:#9F698A;}
	.st627{fill:#9F698D;}
	.st628{fill:#65294F;}
	.st629{fill:#632638;}
	.st630{fill:#62244A;}
	.st631{fill:#612335;}
	.st632{fill:#6E3259;}
	.st633{fill:#6D2F40;}
	.st634{fill:#8B4E74;}
	.st635{fill:#C4A1BB;}
	.st636{fill:#9D688D;}
	.st637{fill:#82476E;}
	.st638{fill:#E7D6E1;}
	.st639{fill:#FFF9D6;}
	.st640{fill:#FFF2A6;}
	.st641{fill:#FFF4B0;}
	.st642{fill:#FFF7C4;}
	.st643{fill:#FFFCE6;}
	.st644{fill:#FFF3B5;}
	.st645{fill:#FFED8B;}
	.st646{fill:#FFED94;}
	.st647{fill:#FFF1A4;}
	.st648{fill:#FFF5BF;}
	.st649{fill:#FFF6CD;}
	.st650{fill:#FFE46E;}
	.st651{fill:#FFED98;}
	.st652{fill:#FFF3A9;}
	.st653{fill:#FFEC8D;}
	.st654{fill:#FFE66B;}
	.st655{fill:#FFEC8A;}
	.st656{fill:#FFE66D;}
	.st657{fill:#FFE571;}
	.st658{fill:#FFEF94;}
	.st659{fill:#FFEF9E;}
	.st660{fill:#FFED93;}
	.st661{fill:#FFE873;}
	.st662{fill:#FFE97A;}
	.st663{fill:#FFEC87;}
	.st664{fill:#FFF19F;}
	.st665{fill:#FFF1A8;}
	.st666{fill:#FFEA7E;}
	.st667{fill:#FFEB86;}
	.st668{fill:#FFEF97;}
	.st669{fill:#FFF2B0;}
	.st670{fill:#FFF4BC;}
	.st671{fill:#FFF5C1;}
	.st672{fill:#FFF8CF;}
	.st673{fill:#FFF8DC;}
	.st674{fill:#FFF0A0;}
	.st675{fill:#FFEE92;}
	.st676{fill:#FFF6CE;}
	.st677{fill:#FFFADD;}
	.st678{fill:#FFFBEC;}
	.st679{fill:#FFFDF5;}
	.st680{fill:#F49C52;}
	.st681{fill:#F69D52;}
	.st682{fill:#F8A55E;}
	.st683{fill:#F8B472;}
	.st684{fill:#F59D54;}
	.st685{fill:#F8A65F;}
	.st686{fill:#F8B474;}
	.st687{fill:#FDF3E9;}
	.st688{fill:#FAE8D1;}
	.st689{fill:#FAE8CF;}
	.st690{fill:#FAEBD4;}
	.st691{fill:#F9EDD7;}
	.st692{fill:#FBEFDE;}
	.st693{fill:#FBEFDD;}
	.st694{fill:#FDF8F1;}
	.st695{fill:#FBEDD7;}
	.st696{fill:#FBEFDC;}
	.st697{fill:#FFFBFA;}
	.st698{fill:#FFE771;}
	.st699{fill:#FFEB83;}
	.st700{fill:#FFED90;}
	.st701{fill:#F7B6CB;}
	.st702{fill:#F4A2BB;}
	.st703{fill:#EE7397;}
	.st704{fill:#ED6D94;}
	.st705{fill:#EF7C9F;}
	.st706{fill:#F399B5;}
	.st707{fill:#FAD1DE;}
	.st708{fill:#F291AE;}
	.st709{fill:#F3A1BB;}
	.st710{fill:#FDECF2;}
</style>
<g>
	<path class="st687" d="M75.68,45.66c-2.4,0-4.86,1.03-6.78,3.08c-1.05,1.1-1.5,2.58-1.67,4.19c-0.01,0.26-0.02,0.53-0.02,0.8
		c0,1.37,0.18,2.85,0.53,4.28c0.38,1.65,0.58,3.24,0.69,4.84c0.03-0.15,0.07-0.37,0.12-0.64c0.09-0.48,0.18-1.1,0.25-1.81
		c-0.37-0.75-0.7-1.52-0.98-2.32c-0.35-1.46-0.54-2.96-0.54-4.35c0-0.24,0.01-0.48,0.02-0.72c0.16-1.6,0.6-3.08,1.65-4.18
		c1.91-2.05,4.36-3.1,6.77-3.1c0.36,0,0.71,0.02,1.06,0.07c0.24,0.03,0.38,0.21,0.45,0.43c-0.06-0.25-0.21-0.46-0.47-0.5
		C76.4,45.68,76.04,45.66,75.68,45.66"/>
	<path class="st687" d="M68.47,63.69c0.02,0.42,0.03,0.84,0.05,1.27c0.08,2.3,0.03,4.67,0.1,6.91l0,0l0,0
		c-0.02,0.86-0.11,1.8-0.11,2.78c0,0.86,0.07,1.76,0.31,2.66c0.13,0.48,0.3,0.97,0.53,1.46c0.22,0.46,0.52,0.93,0.85,1.36
		c0.22,0.3,0.47,0.58,0.76,0.85l0,0l0,0c-1.07,0.43-2.07,0.87-3.04,1.13c-1.43,0.2-2.56,0.25-3.44,0.25c-0.54,0-0.99-0.02-1.37-0.04
		c-0.38-0.02-0.68-0.04-0.93-0.04c-0.08,0-0.16,0-0.23,0.01c-0.65,0.01-0.78,0.19-0.84,0.19c-0.02,0-0.03-0.01-0.05-0.05
		c-0.68-0.41-0.21-1.69-0.71-2.43c-0.36-0.41-1-0.81-1.66-1.09c-0.66-0.28-1.38-0.49-2.03-0.59c-2.86-0.67-6.09-1.69-8.33-3.86
		c0.18,0.75,0.07,1.59,0.24,2.3c0.46,1.42,1.91,2.46,2.96,3.81c0.33,0.63,0.48,1.23,0.62,2.03c0.12,1.17,1.48,1.83,2.68,2.58
		c0.82,0.41,1.43,1.11,2.09,1.83c0.65,0.72,1.37,1.45,2.26,1.86c1,0.51,2.09,0.6,3.1,0.6c0.16,0,0.33,0,0.49-0.01
		c0.34-0.01,0.66-0.02,0.98-0.02c0.77,0,1.49,0.06,2.19,0.38c-0.14-0.07-0.2-0.12-0.2-0.16c0-0.07,0.21-0.1,0.55-0.1
		c0.59,0,1.56,0.08,2.48,0.14c1.43,0.11,2.83,0.28,2.83,0.42c0,0.03-0.05,0.05-0.17,0.08c0.2,0.03,0.59,0.52,0.67,0.87l0,0l0,0
		c-0.01,0.06-0.01,0.14-0.01,0.21c0,0.05,0,0.1,0,0.15c0,0.17-0.01,0.33-0.1,0.39c-1.28,0.86-1.22,2.39-1.69,3.61
		c0.12,0.14,4.66,0.45,6.36,1.55c1.29,0.92,2.43,1.95,4.12,2.16c0.44-0.07,0.68-0.68,1.12-0.75c0.5,0,3.78-1.17,7.1-2.28
		c0.84-0.27,1.67-0.55,2.47-0.81c0.84-0.25,1.63-0.49,2.34-0.7c1.25-0.36,2.24-0.61,2.72-0.61c0.06,0,0.12,0,0.16,0.01
		c0.82,0.29,1.93,0.97,1.93,1.57c0,0.05-0.01,0.1-0.02,0.14c-0.01,0.07-0.01,0.14-0.01,0.2c0,1.62,1.68,2.28,2.51,3.57
		c0.03,0.07,0.04,0.14,0.04,0.21c0,0.27-0.15,0.57-0.15,0.84c0,0.08,0.01,0.15,0.04,0.21c0.66,1,1.99,2.06,3.42,2.06
		c0,0,0.01,0,0.01,0c0.36,0.04,0.75,0.06,1.14,0.06c2.28,0,4.98-0.66,7.01-1.85c1.73-0.7,3.53-1.57,5.29-2.7
		c1.39-1.38,2.59-2.94,3.45-4.58c0.85-1.4,1.07-2.38,1.33-3.02c0.12-0.33,0.22-0.6,0.36-0.85c0.15-0.28,0.34-0.55,0.6-0.84
		c0.07-0.09,0.09-0.26,0.09-0.49c0-0.41-0.08-1.03-0.16-1.84c-0.14-1.23-0.26-2.82-0.28-4.93c-0.03,0.03-0.12,0.14-0.28,0.33
		c-0.18,0.22-0.46,0.54-0.84,0.93c0,0.03,0,0.06,0,0.09c0,0.01,0,0.02,0,0.03c0,0.43-0.03,1.02-0.12,1.74
		c-0.1,0.75-0.28,1.61-0.59,2.57c-0.34,1-0.72,1.85-1.22,2.81c-0.49,0.95-1.18,1.83-1.91,2.71c-0.77,0.78-1.63,1.62-2.56,2.15
		c-0.46,0.29-0.93,0.54-1.41,0.76c-0.47,0.19-0.95,0.34-1.43,0.45c-0.49,0.12-0.96,0.18-1.43,0.18c-0.46,0-0.91-0.05-1.35-0.15
		c0,0-0.29,0.04-0.76,0.07c-0.31,0.01-0.7,0.02-1.14,0.02c-0.24,0-0.5,0-0.77-0.01c-0.75-0.05-1.61-0.13-2.47-0.28
		c-0.84-0.18-1.72-0.36-2.51-0.66c-2.44-0.85-4.26-2.18-4.26-3.48c0-0.41,0.18-0.82,0.57-1.21c0,0,0.67-0.66,1.73-1.76
		c-0.82-0.09-1.83-0.26-2.8-0.46c-1.36-0.28-2.64-0.62-3.13-0.75c-0.14-0.04-0.21-0.06-0.21-0.06l0,0c-0.07-0.03-0.15-0.06-0.22-0.1
		c-3.68-1.58-7.56-2.29-10.74-2.85l0,0l0,0c-0.24-0.04-0.48-0.08-0.71-0.12c-1.34-0.22-2.49-0.41-3.34-0.55
		c-1.02-0.15-1.63-0.23-1.63-0.23s0.61,0.09,1.63,0.23l0,0l0,0c-1.02-0.15-1.63-0.23-1.63-0.23s0.61,0.09,1.63,0.23
		c0.85,0.14,1.99,0.33,3.34,0.55c0.23,0.04,0.47,0.08,0.71,0.12l0,0l0,0c3.18,0.55,7.05,1.27,10.74,2.85
		c0.07,0.03,0.15,0.06,0.22,0.1l0,0c0,0,0.08,0.02,0.21,0.06c0.49,0.13,1.77,0.47,3.13,0.75c0.97,0.2,1.98,0.37,2.8,0.46
		c0.12-0.12,0.24-0.25,0.37-0.38c1.02-1.08,2.35-2.53,3.45-4.2c-0.01,0-0.02,0-0.03-0.01c-0.17-0.04-0.34-0.09-0.53-0.15
		c-0.2-0.06-0.31-0.14-0.61-0.22c-0.51-0.17-0.98-0.4-1.38-0.71c0,0-2.28-0.77-5.09-1.62c-2.81-0.83-6.12-1.86-8.31-1.91
		c0,0-0.8-0.67-1.87-1.29c-0.54-0.33-1.16-0.65-1.8-0.87c-0.16-0.06-0.32-0.11-0.48-0.16c-0.16-0.02-0.3-0.04-0.44-0.05
		c-0.68-0.08-1.07-0.13-1.07-0.13l0,0l0,0c0.08-0.01,0.16-0.01,0.25-0.01c0.42,0,0.85,0.07,1.26,0.19c0.52,0.06,1.15,0.11,1.86,0.16
		c-2.18-0.32-4.33-0.85-6.08-1.54c-2.38-0.91-3.99-2.04-4.13-2.63c0,0-0.13-0.08-0.36-0.26c-0.22-0.18-0.55-0.44-0.94-0.75
		c-0.4-0.31-0.86-0.73-1.35-1.21c-0.5-0.47-1.01-0.99-1.48-1.59C70.03,67.74,68.8,65.24,68.47,63.69"/>
	<path class="st687" d="M110.9,70.47c-0.83,0-1.61,0.09-2.36,0.23c0.24-0.01,0.49-0.01,0.74-0.01c0.7,0,1.4,0.03,2.13,0.11
		c1.06,0.15,2.19,0.45,3.3,1.03c0.56,0.28,1.08,0.66,1.6,1.06c0.47,0.43,0.97,0.87,1.4,1.41c0.33,0.41,0.63,0.84,0.91,1.29
		c-0.33-0.75-0.76-1.47-1.26-2.08c-0.29-0.32-0.56-0.64-0.87-0.92c-0.32-0.27-0.64-0.54-0.97-0.77c-1.36-0.91-2.8-1.27-4.07-1.34
		C111.26,70.47,111.08,70.47,110.9,70.47"/>
	<path class="st687" d="M46.62,72.22c-0.01,0.09-0.03,0.18-0.05,0.26c0.14,0.14,0.29,0.3,0.45,0.43
		C46.88,72.68,46.74,72.46,46.62,72.22"/>
	<polyline class="st687" points="109.5,77.29 109.5,77.29 109.5,77.29 109.5,77.29 109.5,77.29 	"/>
	<polyline class="st687" points="109.5,77.29 109.5,77.29 109.5,77.29 109.5,77.29 109.5,77.29 	"/>
	<polyline class="st687" points="109.5,77.29 109.5,77.29 109.5,77.29 109.5,77.29 	"/>
	<polyline class="st687" points="109.5,77.29 109.5,77.29 109.5,77.29 109.5,77.29 	"/>
	<polyline class="st687" points="109.5,77.29 109.5,77.29 109.49,77.3 109.49,77.3 109.5,77.29 	"/>
	<polyline class="st687" points="109.49,77.3 109.49,77.3 109.49,77.3 109.49,77.3 109.49,77.3 	"/>
	<polyline class="st687" points="109.48,77.3 109.48,77.3 109.47,77.3 109.48,77.3 109.48,77.3 	"/>
	<path class="st687" d="M108.99,77.53c-0.01,0-0.01,0.01-0.02,0.01l0,0l0,0C108.98,77.53,108.98,77.53,108.99,77.53L108.99,77.53"/>
	<path class="st687" d="M108.99,77.53c0,0-0.01,0-0.02,0.01l0,0C108.98,77.53,108.98,77.53,108.99,77.53"/>
	<polyline class="st687" points="108.98,77.53 108.97,77.53 108.97,77.53 108.97,77.53 108.97,77.53 108.98,77.53 	"/>
	<polyline class="st687" points="108.97,77.53 108.97,77.53 108.97,77.53 108.97,77.53 108.97,77.53 	"/>
	<polyline class="st687" points="108.97,77.53 108.97,77.53 108.97,77.54 108.97,77.53 108.97,77.53 	"/>
	<polyline class="st687" points="108.97,77.53 108.97,77.53 108.97,77.54 108.97,77.54 108.97,77.53 	"/>
	<polyline class="st687" points="108.97,77.53 108.97,77.54 108.97,77.54 108.97,77.54 108.97,77.53 	"/>
	<polyline class="st687" points="108.97,77.54 108.97,77.54 108.97,77.54 108.97,77.54 108.97,77.54 	"/>
	<path class="st687" d="M108.77,77.95C108.76,77.95,108.76,77.95,108.77,77.95c-0.01,0.01-0.01,0.01-0.01,0.02
		C108.76,77.96,108.76,77.95,108.77,77.95"/>
	<path class="st687" d="M108.61,78.18c-0.01,0.01-0.01,0.02-0.02,0.02c0,0,0,0,0,0c0,0,0,0,0,0L108.61,78.18"/>
	<polyline class="st687" points="108.59,78.2 108.59,78.2 108.59,78.2 108.59,78.2 	"/>
	<path class="st687" d="M108.58,78.22C108.58,78.22,108.58,78.22,108.58,78.22c-0.01,0.01-0.02,0.03-0.03,0.04L108.58,78.22"/>
	<path class="st687" d="M108.58,78.22c-0.01,0.01-0.01,0.01-0.02,0.02c-0.03,0.05-0.07,0.11-0.11,0.16l0.1-0.14
		C108.56,78.25,108.57,78.24,108.58,78.22"/>
	<path class="st687" d="M111.32,79.97c0.13,0.39,0.23,0.82,0.32,1.28c0.12,0.66,0.17,1.38,0.24,2.2c0,0,0.08,0.16,0.23,0.42
		c0-0.08-0.01-0.17-0.01-0.25c-0.12-1.12-0.24-2.16-0.57-3.09C111.46,80.34,111.39,80.15,111.32,79.97"/>
	<path class="st687" d="M121.41,83.77c-0.29,0.27-0.61,0.56-0.98,0.85c-0.06,0.2-0.13,0.41-0.2,0.63
		C120.63,84.85,121.03,84.36,121.41,83.77"/>
	<path class="st688" d="M77.22,46.22c0.02,0.1,0.04,0.2,0.04,0.3c0,0.19-0.04,0.38-0.11,0.52c-0.27,0.83-0.83,1.54-1.3,2.39
		c-0.53,0.83-0.92,1.77-1.08,2.8c0.13,0.32,0.13,0.96,0.38,1.16c0.28,0.18,0.43,0.47,0.58,0.75c0.34,1.12,0.66,2.2,1.11,3.24
		c0.18,0.54,0.46,1.03,0.67,1.58c0.27,0.5,0.49,1.07,0.81,1.58c0.74,1.02,1.61,1.68,2.5,2.29c0.94,0.61,1.96,1.17,3.15,1.83
		c1.15,0.65,2.31,1,3.5,1.29c1.18,0.3,2.36,0.6,3.67,1.21c1.58,0.59,3,0.87,4.5,0.87c0.18,0,0.36,0,0.53-0.01
		c1.71-0.07,3.57-0.47,6.01-1.26c0.62-0.2,1.75-0.48,3.08-0.71c1.1-0.18,2.39-0.34,3.86-0.34c0.33,0,0.66,0.01,1,0.02
		c1.87,0.1,4.09,0.49,6.21,1.64c2.12,1.11,3.81,2.88,4.7,4.04c1.12,1.14,1.89,3.14,2.12,5.02c0.12,0.88,0.15,1.72,0.15,2.53
		c0,0.95-0.05,1.84-0.05,2.65c0,0.06,0,0.12,0,0.18c0.01-0.01,0.01-0.01,0.01-0.01c0.01-0.89,0.08-1.88,0.08-2.93
		c0-0.72-0.03-1.47-0.12-2.24c-0.2-1.87-0.94-3.88-2.05-5.06c-0.89-1.17-2.54-2.98-4.67-4.13c-2.13-1.19-4.37-1.62-6.25-1.72
		c-0.38-0.02-0.76-0.03-1.12-0.03c-1.43,0-2.69,0.15-3.78,0.32c-1.34,0.22-2.46,0.5-3.1,0.7c-2.67,0.86-4.67,1.29-6.52,1.29
		c-1.51,0-2.92-0.29-4.52-0.86c-1.31-0.6-2.49-0.9-3.67-1.2c-1.18-0.29-2.35-0.63-3.49-1.28c-1.19-0.66-2.22-1.2-3.15-1.82
		c-0.89-0.6-1.75-1.26-2.5-2.27c-0.6-1.05-1.05-2.11-1.48-3.15c-0.46-1.03-0.77-2.11-1.12-3.22c-0.15-0.28-0.3-0.56-0.58-0.74
		c-0.26-0.19-0.25-0.84-0.38-1.15l0,0l0,0c0.15-1.02,0.54-1.97,1.06-2.79c0.46-0.85,1.02-1.56,1.29-2.38
		c0.06-0.14,0.1-0.33,0.1-0.52C77.28,46.47,77.26,46.34,77.22,46.22"/>
	<path class="st689" d="M75.71,45.73c-2.41,0-4.86,1.04-6.77,3.1c-1.04,1.1-1.48,2.58-1.65,4.18c-0.01,0.24-0.02,0.48-0.02,0.72
		c0,1.39,0.19,2.89,0.54,4.35c0.28,0.8,0.61,1.57,0.98,2.32c0.01-0.08,0.02-0.16,0.03-0.23c0.09-0.73,0.15-1.5,0.15-2.3
		c0-1.01-0.11-2.05-0.42-3.08l0,0l0,0c0,0,0.01-0.19,0.08-0.51c0.06-0.32,0.15-0.77,0.26-1.27c0.13-0.5,0.34-1.07,0.54-1.62
		c0.22-0.55,0.54-1.09,0.81-1.57c0.65-0.95,1.29-1.63,1.8-1.75c0.06-0.02,0.12-0.03,0.17-0.03c0.33,0,0.47,0.33,0.47,1.13
		c0,0.09,0,0.19-0.01,0.29c0,0,0,0.17,0.07,0.45c0.06,0.27,0.14,0.65,0.23,1.07c0.11,0.41,0.27,0.86,0.38,1.28
		c0.14,0.42,0.31,0.81,0.4,1.12c0,0,0.01,0.29,0.09,0.79c0.04,0.25,0.06,0.56,0.14,0.91c0.08,0.35,0.18,0.75,0.28,1.18
		c0.48,1.73,1.53,4.02,3.1,6.03c1.56,1.98,3.76,3.63,5.63,4.78c1.87,1.15,3.36,1.83,3.58,2.2c0,0,1.38,0.7,3.77,1.33
		c2.04,0.55,4.83,0.98,7.89,0.98c0.51,0,1.02-0.01,1.55-0.04c2.85-0.09,5.67-0.75,8.73-0.85c0.75-0.15,1.53-0.24,2.36-0.23
		c0.17,0,0.35,0,0.53,0.01c1.27,0.07,2.72,0.43,4.07,1.34c0.34,0.22,0.65,0.49,0.97,0.77c0.31,0.28,0.58,0.6,0.87,0.92
		c0.5,0.61,0.93,1.33,1.26,2.08c1.15,1.87,1.81,3.94,2.39,5.8l0,0l0,0c0,0-0.03,1.3-0.53,3.07c-0.01,0.05-0.03,0.11-0.05,0.16
		c0.36-0.3,0.69-0.58,0.98-0.85c0.25-0.38,0.49-0.81,0.72-1.28c0,0,0.01,0.2,0.01,0.56c0.38-0.39,0.65-0.72,0.84-0.93
		c0.16-0.18,0.25-0.29,0.28-0.33c0-0.06,0-0.12,0-0.18l0,0l0,0c0.01-0.81,0.05-1.7,0.05-2.65c0-0.81-0.03-1.66-0.15-2.53
		c-0.24-1.88-1.01-3.88-2.12-5.02c-0.89-1.15-2.58-2.93-4.7-4.04c-2.12-1.15-4.34-1.54-6.21-1.64c-0.34-0.02-0.68-0.02-1-0.02
		c-1.47,0-2.76,0.16-3.86,0.34c-1.33,0.22-2.46,0.5-3.08,0.71c-2.44,0.79-4.3,1.19-6.01,1.26c-0.18,0.01-0.36,0.01-0.53,0.01
		c-1.51,0-2.92-0.28-4.5-0.87c-1.31-0.6-2.49-0.9-3.67-1.21c-1.18-0.29-2.35-0.64-3.5-1.29c-1.2-0.66-2.22-1.21-3.15-1.83
		c-0.89-0.61-1.76-1.27-2.5-2.29c-0.32-0.51-0.53-1.08-0.81-1.58c-0.21-0.55-0.49-1.04-0.67-1.58c-0.45-1.04-0.77-2.12-1.11-3.24
		c-0.15-0.28-0.3-0.57-0.58-0.75c-0.24-0.19-0.25-0.84-0.38-1.16l0,0l0,0c0.15-1.03,0.55-1.97,1.08-2.8
		c0.47-0.85,1.03-1.56,1.3-2.39c0.07-0.14,0.11-0.33,0.11-0.52c0-0.1-0.01-0.21-0.04-0.3c-0.07-0.22-0.22-0.39-0.45-0.43
		C76.42,45.75,76.06,45.73,75.71,45.73"/>
	<path class="st690" d="M72.22,48.04c-0.05,0-0.11,0.01-0.17,0.03c-0.51,0.12-1.15,0.81-1.8,1.75c-0.28,0.48-0.59,1.02-0.81,1.57
		c-0.2,0.55-0.41,1.11-0.54,1.62c-0.11,0.5-0.2,0.95-0.26,1.27c-0.07,0.32-0.08,0.51-0.08,0.51c0.31,1.04,0.42,2.08,0.42,3.08
		c0,0.8-0.07,1.57-0.15,2.3c-0.08,0.8-0.18,1.52-0.28,2.05c-0.1,0.52-0.16,0.84-0.16,0.84c0.01,0.19,0.04,0.41,0.09,0.65
		c0.33,1.55,1.56,4.04,3.29,6.05c0.47,0.59,0.98,1.12,1.48,1.59c0.49,0.48,0.95,0.9,1.35,1.21c0.39,0.31,0.71,0.57,0.94,0.75
		c0.22,0.18,0.36,0.26,0.36,0.26c0.15,0.59,1.75,1.73,4.13,2.63c1.75,0.69,3.9,1.22,6.08,1.54c0.16,0.01,0.32,0.02,0.49,0.03
		c0.85,0.05,1.79,0.07,2.79,0.07c1.69,0,3.55-0.07,5.36-0.22c2.9-0.22,5.75-0.58,8.03-0.74c0.41-0.03,0.79-0.05,1.13-0.05
		c0.88,0,1.54,0.11,1.99,0.31c-0.03-0.03-0.06-0.07-0.1-0.1l-0.17-0.13l-0.08-0.05c-0.01-0.01-0.06-0.03-0.06-0.03l0,0l0,0
		c0,0,0.01,0.01,0.05,0.02c0.11,0.05,0.23,0.1,0.37,0.14c-0.08-0.03-0.16-0.06-0.23-0.09c-0.01,0-0.02-0.01-0.02-0.01
		c-0.29-0.11-0.55-0.25-0.66-0.31l0,0l-0.09-0.05l0.01,0.01l0.01,0.01l0.03,0.02l0,0v0l0.55,0.4v0l0,0l0,0l0,0l0,0
		c0,0-0.03-0.02-0.09-0.07c-0.08-0.06-0.23-0.17-0.46-0.34v0l-0.03-0.02l-0.03-0.02l0.01,0.01l-2.41-1.78l0,0l0,0l-0.04-0.03
		l0.04,0.03l0,0l0,0l0,0l0,0l0,0l0,0l0,0l0,0l0,0l0,0l2.41,1.78l0.09,0.05l0,0c0.11,0.06,0.37,0.2,0.66,0.31
		c0.01,0,0.02,0.01,0.02,0.01c0.08,0.03,0.16,0.06,0.24,0.09c0.49,0.18,1.11,0.34,1.69,0.41c0.03,0,0.05,0.01,0.08,0.01
		c0,0,0.01,0,0.01,0c0.25,0.03,0.47,0.04,0.66,0.04c0.23,0,0.41-0.01,0.53-0.03c0.02,0,0.04,0,0.06-0.01
		c0.12-0.02,0.19-0.03,0.22-0.03c0.01,0,0.02,0,0.03-0.01l0.03-0.01c0.01,0,0.01,0,0.02,0l0.03-0.01c0.01,0,0.02-0.01,0.03-0.01
		l0.14-0.04l0.02-0.01l0.01,0l0.01,0l0,0l0.01-0.01l0,0l0,0l0.05-0.02l0,0l0,0l0,0l0,0l0,0c0,0-0.01,0.01-0.05,0.02l0,0l0,0l-0.01,0
		l0,0l0,0l0,0l-0.01,0c-0.04,0.02-0.09,0.04-0.17,0.08l0.07,0c0.11,0.02,0.24,0.05,0.35,0.12c0.51,0.26,1.02,0.97,1.42,1.99
		c0.06,0.15,0.11,0.31,0.17,0.47c0.07,0.18,0.14,0.36,0.21,0.55c0.33,0.93,0.45,1.98,0.57,3.09c0.01,0.08,0.01,0.17,0.01,0.25
		c0.09,0.15,0.2,0.34,0.34,0.56c0.37,0.57,0.9,1.31,1.67,1.89c0.59,0.44,1.34,0.8,2.28,0.8c0.28,0,0.58-0.03,0.9-0.11
		c0.34-0.08,0.71-0.2,1.1-0.37c0.39-0.18,0.82-0.48,1.24-0.83c0.2-0.17,0.4-0.35,0.59-0.55c0.09-0.27,0.18-0.54,0.25-0.79
		c0.5-1.77,0.53-3.07,0.53-3.07c-0.57-1.86-1.23-3.93-2.39-5.8c-0.27-0.44-0.57-0.87-0.91-1.29c-0.43-0.54-0.93-0.98-1.4-1.41
		c-0.52-0.4-1.04-0.78-1.6-1.06c-1.1-0.59-2.24-0.89-3.3-1.03c-0.73-0.08-1.43-0.11-2.13-0.11c-0.25,0-0.49,0-0.74,0.01
		c-3.06,0.1-5.88,0.76-8.73,0.85c-0.52,0.03-1.04,0.04-1.55,0.04c-3.06,0-5.85-0.43-7.89-0.98c-2.39-0.64-3.77-1.33-3.77-1.33
		c-0.22-0.37-1.72-1.05-3.58-2.2c-1.87-1.15-4.08-2.8-5.63-4.78c-1.57-2.01-2.63-4.3-3.1-6.03c-0.1-0.43-0.2-0.83-0.28-1.18
		c-0.08-0.35-0.1-0.66-0.14-0.91c-0.09-0.5-0.09-0.79-0.09-0.79c-0.09-0.32-0.26-0.7-0.4-1.12c-0.11-0.42-0.28-0.87-0.38-1.28
		c-0.09-0.42-0.17-0.8-0.23-1.07c-0.06-0.28-0.07-0.45-0.07-0.45l0,0l0,0c0-0.1,0.01-0.2,0.01-0.29
		C72.69,48.36,72.55,48.04,72.22,48.04"/>
	<path class="st691" d="M109.47,77.3L109.47,77.3c-0.04,0.02-0.09,0.04-0.17,0.08l0,0C109.38,77.35,109.43,77.32,109.47,77.3
		L109.47,77.3 M109.55,77.27L109.55,77.27c0,0-0.01,0.01-0.05,0.02l0,0l0,0l0,0l0,0l0,0l-0.01,0l0.01,0l0,0l0,0l0,0
		C109.54,77.28,109.55,77.27,109.55,77.27 M105.66,76.9c0.01,0,0.02,0.01,0.02,0.01c0.08,0.03,0.15,0.06,0.23,0.09l0,0
		c-0.08-0.03-0.16-0.06-0.23-0.09l0,0C105.67,76.9,105.67,76.9,105.66,76.9C105.66,76.9,105.66,76.9,105.66,76.9L105.66,76.9
		 M104.95,76.57L104.95,76.57c0.22,0.17,0.37,0.27,0.46,0.34l0,0C105.33,76.84,105.18,76.73,104.95,76.57L104.95,76.57L104.95,76.57
		 M104.92,76.54l0.03,0.02L104.92,76.54 M104.9,76.53L104.9,76.53l0.09,0.05l0,0l0,0L104.9,76.53 M104.89,76.52l0.03,0.02
		L104.89,76.52 M102.49,74.75L102.49,74.75L102.49,74.75L102.49,74.75L102.49,74.75L102.49,74.75 M102.49,74.75l2.41,1.78
		L102.49,74.75 M102.49,74.75L102.49,74.75L102.49,74.75L102.49,74.75L102.49,74.75 M102.45,74.72l0.04,0.03L102.45,74.72"/>
	<polyline class="st690" points="102.45,74.72 102.49,74.75 102.49,74.75 102.45,74.72 	"/>
	<polyline class="st690" points="102.49,74.75 102.49,74.75 102.49,74.75 102.49,74.75 	"/>
	<polyline class="st690" points="104.89,76.52 104.92,76.54 104.9,76.53 104.89,76.52 	"/>
	<polyline class="st690" points="104.92,76.54 104.95,76.57 104.95,76.57 104.95,76.57 104.93,76.55 104.92,76.54 	"/>
	<path class="st690" d="M104.95,76.57L104.95,76.57c0.23,0.17,0.37,0.27,0.46,0.34c0.06,0.05,0.09,0.07,0.09,0.07l0,0v0
		L104.95,76.57"/>
	<path class="st690" d="M109.51,77.29L109.51,77.29L109.51,77.29 M109.51,77.29L109.51,77.29L109.51,77.29 M109.55,77.27l-0.05,0.02
		l0,0l0,0c0.01,0,0.01,0,0.01,0l0,0l0,0c0,0,0,0-0.01,0l0,0C109.54,77.28,109.55,77.27,109.55,77.27L109.55,77.27L109.55,77.27"/>
	<polyline class="st690" points="109.5,77.29 109.5,77.29 109.5,77.29 109.5,77.29 109.5,77.29 	"/>
	<polyline class="st690" points="109.5,77.29 109.5,77.29 109.49,77.3 109.49,77.3 109.49,77.3 109.49,77.3 109.49,77.3 
		109.5,77.29 	"/>
	<polyline class="st690" points="109.5,77.29 109.5,77.29 109.5,77.29 109.49,77.3 109.49,77.3 109.5,77.29 	"/>
	<polyline class="st690" points="109.49,77.29 109.48,77.3 109.48,77.3 109.49,77.3 109.49,77.29 	"/>
	<polyline class="st690" points="109.49,77.3 109.48,77.3 109.48,77.3 109.49,77.3 109.49,77.3 	"/>
	<polyline class="st690" points="109.49,77.3 109.49,77.3 109.49,77.3 109.49,77.3 109.49,77.3 	"/>
	<path class="st690" d="M109.48,77.3L109.48,77.3l-0.03,0.01L109.48,77.3L109.48,77.3L109.48,77.3L109.48,77.3l-0.02,0.01
		l-0.08,0.03l-0.02,0l-0.01,0l-0.06,0.02l-0.05,0.01l-0.02,0l-0.02,0c-0.01,0-0.02,0-0.05,0.01l-0.02,0l0.07-0.01l0.05,0l0,0l0,0
		l0,0l0.01,0l0,0l0,0l0,0c0,0,0,0,0,0l0.03,0C109.35,77.36,109.41,77.33,109.48,77.3"/>
	<polyline class="st690" points="109.48,77.3 109.48,77.3 109.45,77.31 109.48,77.3 	"/>
	<polyline class="st690" points="109.48,77.3 109.47,77.3 109.47,77.31 109.47,77.3 109.48,77.3 	"/>
	<polyline class="st690" points="109.46,77.31 109.44,77.31 109.45,77.31 109.46,77.31 	"/>
	<path class="st690" d="M109.43,77.33c-0.04,0.02-0.08,0.04-0.13,0.06h0C109.35,77.36,109.39,77.34,109.43,77.33"/>
	<polyline class="st690" points="109.36,77.34 109.29,77.36 109.35,77.34 109.36,77.34 	"/>
	<path class="st690" d="M109.27,77.37l-0.03,0.01C109.25,77.37,109.26,77.37,109.27,77.37"/>
	<path class="st690" d="M109.22,77.38l-0.01,0c-0.01,0-0.02,0-0.03,0.01l-0.02,0.01c0.03,0,0.04-0.01,0.05-0.01L109.22,77.38"/>
	<polyline class="st690" points="109.26,77.38 109.26,77.38 109.26,77.38 109.26,77.38 109.26,77.38 109.26,77.38 109.26,77.38 	"/>
	<polyline class="st690" points="109.26,77.38 109.26,77.38 109.26,77.39 109.26,77.38 109.26,77.38 109.26,77.38 109.26,77.38 	"/>
	<polyline class="st690" points="109.26,77.38 109.26,77.38 109.26,77.38 109.26,77.38 109.26,77.38 	"/>
	<polyline class="st690" points="109.26,77.38 109.25,77.39 109.26,77.39 109.26,77.38 	"/>
	<path class="st690" d="M109.3,77.38c-0.02,0.01-0.05,0.02-0.07,0.03l0,0C109.25,77.41,109.28,77.39,109.3,77.38L109.3,77.38"/>
	<path class="st690" d="M109.15,77.39c-0.04,0.01-0.1,0.02-0.22,0.03C109.01,77.42,109.09,77.4,109.15,77.39"/>
	<path class="st690" d="M109.24,77.41c0,0-0.01,0.01-0.01,0.01c0,0,0,0,0,0C109.23,77.41,109.23,77.41,109.24,77.41"/>
	<polyline class="st690" points="109.23,77.42 109.22,77.42 109.22,77.42 109.23,77.42 109.23,77.42 	"/>
	<path class="st690" d="M107.68,77.42c0.24,0.03,0.46,0.04,0.67,0.04c0.19,0,0.37-0.01,0.52-0.03c-0.12,0.01-0.29,0.03-0.53,0.03
		C108.16,77.46,107.94,77.45,107.68,77.42C107.69,77.42,107.68,77.42,107.68,77.42"/>
	<polyline class="st690" points="109.22,77.42 109.22,77.42 109.22,77.42 109.22,77.42 109.22,77.42 	"/>
	<path class="st690" d="M109.22,77.42C109.22,77.42,109.22,77.42,109.22,77.42c-0.04,0.03-0.08,0.08-0.12,0.12
		c0,0,0.01-0.01,0.01-0.01c0,0,0,0,0,0l0,0l0.01-0.01C109.16,77.47,109.2,77.44,109.22,77.42"/>
	<path class="st690" d="M109.22,77.42c-0.03,0.01-0.06,0.03-0.08,0.04c0,0,0,0,0,0c0.01-0.01,0.03-0.01,0.04-0.02
		C109.19,77.43,109.21,77.43,109.22,77.42C109.22,77.42,109.22,77.42,109.22,77.42"/>
	<polyline class="st690" points="109.07,77.49 109.07,77.49 109.07,77.49 109.07,77.49 	"/>
	<polyline class="st690" points="109.05,77.5 108.99,77.53 108.99,77.53 109.03,77.51 109.03,77.51 109.05,77.5 	"/>
	<polyline class="st690" points="109.03,77.51 109.03,77.51 109.03,77.51 109.03,77.51 	"/>
	<path class="st690" d="M109.02,77.51c0,0-0.01,0-0.02,0.01c0,0,0,0,0,0l-0.01,0C109,77.52,109.02,77.51,109.02,77.51"/>
	<path class="st690" d="M109.12,77.52l-0.01,0.01l0,0c0,0,0,0,0,0C109.11,77.53,109.12,77.52,109.12,77.52"/>
	<polyline class="st690" points="108.99,77.53 108.99,77.53 108.98,77.53 108.99,77.53 	"/>
	<polyline class="st690" points="108.97,77.53 108.97,77.54 108.97,77.54 108.97,77.53 	"/>
	<polyline class="st690" points="108.97,77.54 108.97,77.54 108.97,77.54 108.97,77.54 108.97,77.54 	"/>
	<path class="st690" d="M108.97,77.54L108.97,77.54C108.97,77.54,108.97,77.54,108.97,77.54L108.97,77.54L108.97,77.54L108.97,77.54
		L108.97,77.54L108.97,77.54c-0.04,0.02-0.05,0.02-0.05,0.02C108.92,77.56,108.94,77.55,108.97,77.54
		C108.97,77.54,108.97,77.54,108.97,77.54"/>
	<polyline class="st690" points="108.97,77.54 108.97,77.54 108.97,77.54 108.97,77.54 108.97,77.54 108.97,77.54 108.97,77.54 
		108.97,77.54 108.97,77.54 	"/>
	<polyline class="st690" points="108.97,77.54 108.97,77.54 108.97,77.54 108.97,77.54 108.97,77.54 108.97,77.54 108.97,77.54 
		108.97,77.54 	"/>
	<path class="st690" d="M108.97,77.54c-0.08,0.04-0.12,0.05-0.12,0.05C108.85,77.59,108.9,77.57,108.97,77.54L108.97,77.54"/>
	<path class="st690" d="M108.76,77.96c-0.06,0.08-0.13,0.17-0.2,0.28c0.01,0,0.01-0.01,0.02-0.02c0-0.01,0.01-0.01,0.02-0.02
		c0,0,0,0,0,0c0,0,0,0,0,0c0.01-0.02,0.03-0.04,0.04-0.06C108.68,78.07,108.72,78.02,108.76,77.96
		C108.76,77.96,108.76,77.96,108.76,77.96"/>
	<path class="st690" d="M108.64,78.14c-0.02,0.02-0.03,0.04-0.04,0.06c0.01-0.01,0.01-0.02,0.02-0.02l0.01-0.01
		C108.62,78.16,108.63,78.15,108.64,78.14"/>
	<path class="st690" d="M108.59,78.2c-0.01,0.01-0.01,0.01-0.01,0.02c0,0,0,0,0,0L108.59,78.2C108.59,78.21,108.59,78.2,108.59,78.2
		"/>
	<path class="st692" d="M108.97,77.54L108.97,77.54L108.97,77.54L108.97,77.54 M109.07,77.49L109.07,77.49
		C109.07,77.49,109.07,77.49,109.07,77.49L109.07,77.49L109.07,77.49C109.07,77.49,109.07,77.49,109.07,77.49L109.07,77.49
		 M103.91,76.83c-0.34,0-0.72,0.02-1.13,0.05c-2.28,0.16-5.13,0.52-8.03,0.74c-1.82,0.15-3.67,0.22-5.36,0.22
		c-1,0-1.94-0.02-2.79-0.07c-0.17-0.01-0.33-0.02-0.49-0.03c-0.71-0.05-1.34-0.1-1.86-0.16c0.16,0.05,0.32,0.1,0.48,0.16
		c0.64,0.22,1.25,0.54,1.8,0.87c1.07,0.62,1.87,1.29,1.87,1.29c2.19,0.05,5.5,1.08,8.31,1.91c2.81,0.85,5.09,1.62,5.09,1.62
		c0.4,0.31,0.87,0.54,1.38,0.71c0.3,0.08,0.41,0.16,0.61,0.22c0.19,0.06,0.36,0.11,0.53,0.15c0.01,0,0.02,0,0.03,0.01l0,0l0,0
		c-1.1,1.67-2.43,3.13-3.45,4.2c-0.13,0.13-0.25,0.26-0.37,0.38c0.39,0.04,0.74,0.07,1.01,0.07c0.17,0,0.32-0.01,0.43-0.03
		l0.98,0.23l0.49,0.12l0.23,0.06l0.14,0.06c0,0,0.3,0,0.75,0c0.39,0,0.82-0.01,0.93-0.08l0.02-0.03l0.01-0.01l0.05-0.38
		c0.04-0.29,0.07-0.52,0.09-0.75c0.09-0.91,0.29-1.91,0.43-2.73c0.12-0.76,0.31-1.56,0.48-2.24c0.13-0.62,0.3-1.21,0.5-1.78
		c0.13-0.47,0.28-0.91,0.46-1.31c0.1-0.22,0.15-0.37,0.21-0.51c0.06-0.15,0.12-0.29,0.19-0.42c0.01-0.01,0.01-0.03,0.02-0.04
		c0.29-0.55,0.39-0.76,0.53-0.96l0,0c0,0,0.02-0.04,0.07-0.1l-0.1,0.14l0,0c0.11-0.18,0.22-0.33,0.31-0.45c0,0,0.01-0.01,0.01-0.01
		l0,0l0,0c0,0.01-0.01,0.01-0.01,0.02c-0.04,0.05-0.08,0.11-0.12,0.17c0.05-0.08,0.12-0.17,0.19-0.28c0.04-0.06,0.11-0.14,0.17-0.2
		c0.05-0.06,0.09-0.1,0.11-0.12c0,0-0.01,0.01-0.01,0.01l0,0l0,0c0.04-0.05,0.08-0.09,0.12-0.12c-0.03,0.01-0.06,0.03-0.1,0.05
		l-0.09,0.04l0,0l0,0l-0.01,0l-0.03,0.01l0,0l-0.01,0l0,0l-0.01,0c0,0,0,0,0,0l0,0l0,0l0,0c0,0,0,0,0,0
		c-0.02,0.01-0.05,0.02-0.05,0.02l0,0l0,0c0,0,0.01-0.01,0.05-0.02l0,0c-0.07,0.03-0.12,0.05-0.12,0.05l0,0l0,0
		c0,0,0.03-0.02,0.12-0.05l0,0l0,0l0,0l0,0l0,0c0,0,0,0,0,0l0,0c0.01,0,0.01-0.01,0.02-0.01c0.05-0.02,0.09-0.04,0.14-0.06
		l0.04-0.02l0.09-0.06l0,0l0,0c0,0,0,0,0.01,0l0,0l-0.05,0l-0.07,0.01l0.02,0c0,0-0.01,0-0.01,0c-0.07,0.01-0.14,0.02-0.22,0.03
		c-0.01,0-0.01,0-0.02,0c-0.01,0-0.02,0-0.04,0c-0.15,0.02-0.33,0.03-0.52,0.03c-0.21,0-0.44-0.01-0.67-0.04
		c-0.51-0.05-1.19-0.21-1.77-0.42c-0.13-0.05-0.26-0.1-0.37-0.14c-0.04-0.02-0.05-0.02-0.05-0.02c0,0,0.05,0.02,0.06,0.03l0.08,0.05
		l0.17,0.13c0.03,0.03,0.06,0.06,0.1,0.1l0,0l0,0C105.45,76.94,104.79,76.83,103.91,76.83"/>
	<path class="st692" d="M105.92,77c0.58,0.21,1.25,0.37,1.76,0.42c-0.03,0-0.05-0.01-0.08-0.01C107.03,77.34,106.41,77.17,105.92,77
		"/>
	<path class="st692" d="M109.5,77.29L109.5,77.29L109.5,77.29L109.5,77.29L109.5,77.29 M109.51,77.29
		C109.51,77.29,109.51,77.29,109.51,77.29L109.51,77.29L109.51,77.29L109.51,77.29C109.51,77.29,109.51,77.29,109.51,77.29"/>
	<polyline class="st692" points="109.5,77.29 109.5,77.29 109.5,77.29 109.5,77.29 109.5,77.29 109.5,77.29 109.5,77.29 
		109.5,77.29 109.5,77.29 109.5,77.29 109.5,77.29 109.5,77.29 109.5,77.29 	"/>
	<path class="st692" d="M109.49,77.3L109.49,77.3L109.49,77.3 M109.5,77.29L109.5,77.29L109.5,77.29L109.5,77.29 M109.5,77.29
		L109.5,77.29C109.5,77.29,109.5,77.29,109.5,77.29C109.49,77.3,109.49,77.3,109.5,77.29L109.5,77.29
		C109.49,77.29,109.5,77.29,109.5,77.29L109.5,77.29"/>
	<polyline class="st692" points="109.5,77.29 109.5,77.29 109.49,77.3 109.49,77.3 109.5,77.29 	"/>
	<polyline class="st692" points="109.5,77.29 109.5,77.29 109.49,77.29 109.49,77.3 109.5,77.29 	"/>
	<polyline class="st692" points="109.5,77.29 109.5,77.29 109.49,77.29 109.5,77.29 	"/>
	<polyline class="st692" points="109.49,77.3 109.48,77.3 109.48,77.3 109.48,77.3 109.48,77.3 109.49,77.3 109.49,77.3 
		109.49,77.3 109.49,77.3 109.49,77.3 109.49,77.3 	"/>
	<polyline class="st692" points="109.49,77.3 109.49,77.3 109.49,77.3 109.49,77.3 	"/>
	<polyline class="st692" points="109.49,77.3 109.49,77.3 109.48,77.3 109.48,77.3 109.49,77.3 109.49,77.3 	"/>
	<polyline class="st692" points="109.48,77.3 109.48,77.3 109.48,77.3 109.48,77.3 109.48,77.3 	"/>
	<path class="st692" d="M109.48,77.3L109.48,77.3L109.48,77.3L109.48,77.3L109.48,77.3c-0.07,0.03-0.13,0.06-0.18,0.08h0
		c0.05-0.02,0.09-0.04,0.13-0.06c0,0,0,0,0.01,0c0,0,0,0,0,0C109.45,77.31,109.47,77.31,109.48,77.3"/>
	<path class="st692" d="M109.48,77.3L109.48,77.3L109.48,77.3L109.48,77.3L109.48,77.3 M109.48,77.3L109.48,77.3L109.48,77.3
		L109.48,77.3L109.48,77.3L109.48,77.3"/>
	<polyline class="st692" points="109.48,77.3 109.48,77.3 109.48,77.3 109.48,77.3 	"/>
	<polyline class="st692" points="109.47,77.3 109.46,77.31 109.47,77.31 109.47,77.3 	"/>
	<polyline class="st692" points="109.47,77.31 109.46,77.31 109.45,77.31 109.44,77.31 109.36,77.34 109.37,77.34 109.46,77.31 
		109.47,77.31 	"/>
	<path class="st692" d="M109.44,77.31l-0.14,0.04c-0.01,0-0.02,0.01-0.03,0.01l0.02-0.01l0.07-0.02L109.44,77.31"/>
	<path class="st692" d="M109.29,77.36l-0.02,0.01c-0.01,0-0.02,0.01-0.03,0.01l-0.01,0l0.02,0L109.29,77.36"/>
	<path class="st692" d="M109.23,77.37c-0.01,0-0.01,0-0.02,0L109.23,77.37L109.23,77.37"/>
	<path class="st692" d="M109.21,77.38l-0.03,0.01C109.19,77.38,109.2,77.38,109.21,77.38"/>
	<path class="st692" d="M109.27,77.38L109.27,77.38L109.27,77.38C109.26,77.38,109.26,77.38,109.27,77.38c-0.01,0-0.01,0-0.01,0.01
		l0,0l0,0l0,0L109.27,77.38l-0.04,0.04c0.02-0.01,0.04-0.02,0.07-0.03L109.27,77.38L109.27,77.38
		C109.27,77.38,109.27,77.38,109.27,77.38"/>
	<polyline class="st692" points="109.26,77.38 109.26,77.38 109.26,77.38 109.26,77.38 	"/>
	<polyline class="st692" points="109.26,77.38 109.26,77.38 109.26,77.38 109.26,77.38 	"/>
	<path class="st692" d="M109.3,77.38c-0.02,0.01-0.05,0.02-0.07,0.03l0,0C109.26,77.4,109.28,77.39,109.3,77.38L109.3,77.38
		 M109.3,77.38L109.3,77.38L109.3,77.38"/>
	<path class="st692" d="M109.3,77.38c-0.02,0.01-0.05,0.02-0.07,0.03l-0.11,0.1c0,0-0.01,0.01-0.01,0.02
		c-0.01,0.02-0.06,0.07-0.11,0.12c-0.06,0.06-0.13,0.14-0.17,0.2c-0.07,0.11-0.14,0.2-0.19,0.28c-0.01,0.01-0.01,0.02-0.02,0.03
		l-0.01,0.01l-0.02,0.03l-0.01,0.01l-0.03,0.04c-0.05,0.07-0.07,0.11-0.07,0.11l0,0c-0.14,0.21-0.23,0.41-0.53,0.96
		c-0.01,0.01-0.01,0.03-0.02,0.04c-0.06,0.13-0.13,0.27-0.19,0.42c-0.06,0.14-0.11,0.29-0.21,0.51c-0.18,0.41-0.33,0.84-0.46,1.31
		c-0.2,0.56-0.37,1.16-0.5,1.78c-0.17,0.68-0.37,1.48-0.48,2.24c-0.15,0.81-0.34,1.82-0.43,2.73c-0.03,0.23-0.05,0.46-0.09,0.75
		l-0.05,0.38l-0.01,0.01l-0.02,0.03c-0.11,0.07-0.55,0.07-0.93,0.08c-0.46,0-0.75,0-0.75,0l-0.14-0.06l-0.23-0.06l-0.49-0.12
		l-0.98-0.23c-0.11,0.02-0.25,0.03-0.43,0.03c-0.28,0-0.62-0.02-1.01-0.07c-1.06,1.1-1.73,1.76-1.73,1.76
		c-0.39,0.39-0.57,0.8-0.57,1.21c0,1.31,1.81,2.63,4.26,3.48c0.79,0.3,1.66,0.48,2.51,0.66c0.86,0.15,1.71,0.23,2.47,0.28
		c0.27,0.01,0.53,0.01,0.77,0.01c0.45,0,0.83-0.01,1.14-0.02c0.48-0.03,0.76-0.07,0.76-0.07c0.44,0.09,0.89,0.15,1.35,0.15
		c0.46,0,0.94-0.05,1.43-0.18c0.48-0.11,0.96-0.26,1.43-0.45c0.48-0.22,0.95-0.48,1.41-0.76c0.92-0.53,1.79-1.37,2.56-2.15
		c0.74-0.88,1.42-1.76,1.91-2.71c0.5-0.96,0.88-1.8,1.22-2.81c0.31-0.96,0.49-1.82,0.59-2.57c0.1-0.73,0.12-1.32,0.12-1.74
		c0-0.01,0-0.02,0-0.03c0-0.03,0-0.06,0-0.09c0-0.36-0.01-0.56-0.01-0.56c-0.23,0.47-0.47,0.9-0.72,1.28
		c-0.38,0.59-0.78,1.07-1.18,1.48c-0.2,0.2-0.4,0.39-0.59,0.55c-0.42,0.35-0.85,0.65-1.24,0.83c-0.39,0.17-0.75,0.29-1.1,0.37
		c-0.32,0.07-0.62,0.11-0.9,0.11c-0.93,0-1.69-0.36-2.28-0.8c-0.77-0.58-1.3-1.32-1.67-1.89c-0.14-0.21-0.25-0.4-0.34-0.56
		c-0.15-0.26-0.23-0.42-0.23-0.42c-0.07-0.82-0.12-1.54-0.24-2.2c-0.09-0.46-0.2-0.89-0.32-1.28c-0.05-0.16-0.11-0.32-0.17-0.47
		c-0.4-1.02-0.92-1.73-1.42-1.99c-0.12-0.07-0.25-0.1-0.35-0.12L109.3,77.38"/>
	<path class="st693" d="M107.95,79.33c-0.01,0.01-0.01,0.03-0.02,0.04l0,0c-0.06,0.13-0.13,0.27-0.19,0.42l0,0
		c-0.06,0.14-0.11,0.29-0.21,0.51c-0.18,0.41-0.33,0.84-0.46,1.31c-0.2,0.56-0.37,1.16-0.5,1.78c-0.01,0.02-0.01,0.04-0.02,0.06
		c-0.17,0.67-0.36,1.44-0.47,2.18l0,0l0,0c-0.14,0.79-0.33,1.75-0.42,2.64c0,0.03-0.01,0.06-0.01,0.09
		c-0.03,0.23-0.05,0.46-0.09,0.75l-0.05,0.38l-0.01,0.01l-0.02,0.03l0,0c-0.11,0.07-0.53,0.07-0.92,0.08c-0.01,0-0.01,0-0.02,0l0,0
		c-0.46,0-0.75,0-0.75,0l0,0l-0.14-0.06l-0.23-0.06l-0.49-0.12l-0.98-0.23l0,0c-0.11,0.02-0.25,0.03-0.43,0.03l0,0
		c-0.28,0-0.62-0.02-1.01-0.07l0,0l0,0c0.39,0.04,0.74,0.07,1.01,0.07c0.17,0,0.32-0.01,0.43-0.03l0.98,0.23l0.49,0.12l0.23,0.06
		l0.14,0.06c0,0,0.3,0,0.75,0c0.39,0,0.82-0.01,0.93-0.08l0.02-0.03l0.01-0.01l0.05-0.38c0.04-0.29,0.07-0.52,0.09-0.75
		c0.09-0.91,0.29-1.91,0.43-2.73c0.12-0.76,0.31-1.56,0.48-2.24c0.13-0.62,0.3-1.21,0.5-1.78c0.13-0.47,0.28-0.91,0.46-1.31
		c0.1-0.22,0.15-0.37,0.21-0.51c0.06-0.15,0.12-0.29,0.19-0.42C107.94,79.36,107.95,79.34,107.95,79.33 M108.55,78.26L108.55,78.26
		c-0.05,0.07-0.07,0.11-0.07,0.11l0,0l0,0l0,0C108.48,78.37,108.51,78.33,108.55,78.26L108.55,78.26 M109,77.66L109,77.66
		c-0.06,0.06-0.13,0.14-0.17,0.2l0,0c0,0.01-0.01,0.01-0.01,0.02c-0.07,0.1-0.13,0.19-0.18,0.26l0,0l0,0
		c0.05-0.08,0.12-0.17,0.19-0.28C108.87,77.8,108.94,77.72,109,77.66 M109.11,77.53L109.11,77.53c-0.01,0.02-0.06,0.07-0.11,0.12
		l0,0C109.05,77.6,109.09,77.55,109.11,77.53L109.11,77.53 M109.23,77.42L109.23,77.42l-0.11,0.1l0,0L109.23,77.42"/>
	<path class="st692" d="M109.26,77.38L109.26,77.38l-0.1,0.06l-0.04,0.02c0.04-0.02,0.07-0.03,0.1-0.04c0,0,0,0,0,0
		c-0.01,0.01-0.03,0.01-0.04,0.02c-0.01,0.01-0.03,0.01-0.04,0.02l0,0l0,0c0,0,0,0,0,0c0.02-0.01,0.05-0.02,0.08-0.04
		c0,0,0.01-0.01,0.01-0.01l0,0l0,0c0,0-0.01,0.01-0.01,0.01c0,0,0,0,0.01,0L109.26,77.38L109.26,77.38L109.26,77.38L109.26,77.38"/>
	<path class="st692" d="M109.19,77.38c-0.01,0-0.02,0-0.03,0.01c0,0,0.01,0,0.01,0L109.19,77.38"/>
	<path class="st692" d="M82.98,77.39c-0.08,0-0.16,0-0.25,0.01c0,0,0.39,0.05,1.07,0.13c0.14,0.02,0.28,0.04,0.44,0.05
		C83.82,77.46,83.4,77.39,82.98,77.39"/>
	<path class="st692" d="M109.22,77.42L109.22,77.42L109.22,77.42L109.22,77.42L109.22,77.42 M109.23,77.42
		C109.23,77.42,109.23,77.42,109.23,77.42C109.22,77.42,109.22,77.42,109.23,77.42C109.23,77.42,109.23,77.42,109.23,77.42
		L109.23,77.42"/>
	<path class="st692" d="M109.23,77.42C109.23,77.42,109.23,77.42,109.23,77.42c-0.03,0.03-0.07,0.06-0.11,0.1L109.23,77.42"/>
	<path class="st692" d="M109.22,77.42L109.22,77.42L109.22,77.42L109.22,77.42L109.22,77.42 M109.22,77.42
		C109.22,77.42,109.22,77.42,109.22,77.42C109.22,77.42,109.22,77.42,109.22,77.42C109.22,77.42,109.22,77.42,109.22,77.42
		C109.22,77.42,109.22,77.42,109.22,77.42"/>
	<path class="st692" d="M108.93,77.43c-0.02,0-0.04,0-0.06,0.01c0.01,0,0.02,0,0.04,0C108.91,77.43,108.92,77.43,108.93,77.43"/>
	<path class="st692" d="M109.12,77.47c-0.04,0.02-0.08,0.04-0.13,0.06c0.02-0.01,0.02-0.01,0.02-0.01l0,0l0,0
		c0,0-0.02,0.01-0.04,0.02l0.01,0l0.07-0.03l-0.02,0.01L109.12,77.47"/>
	<polyline class="st692" points="109.03,77.51 108.99,77.53 108.99,77.53 109.02,77.52 109.03,77.51 	"/>
	<polyline class="st692" points="108.97,77.53 108.97,77.54 108.97,77.54 108.97,77.54 108.97,77.54 108.97,77.54 108.97,77.53 
		108.97,77.53 108.97,77.53 	"/>
	<polyline class="st692" points="108.97,77.53 108.97,77.53 108.97,77.54 108.97,77.54 108.97,77.54 108.97,77.53 	"/>
	<path class="st692" d="M108.97,77.53L108.97,77.53L108.97,77.53L108.97,77.53 M108.97,77.53L108.97,77.53
		C108.97,77.54,108.97,77.54,108.97,77.53C108.97,77.54,108.97,77.54,108.97,77.53L108.97,77.53
		C108.97,77.54,108.97,77.54,108.97,77.53"/>
	<path class="st694" d="M45.94,72.06c-0.02,0-0.05,0-0.07,0.01c0.16,0.41,0.12,0.91,0.33,1.45c0.3,1.07,1.12,1.99,1.29,3.04
		c0.3,1.07,0.34,2.09,0.77,3.18c0.33,0.7,0.67,1.27,1.13,1.87c0.73,1.15,1.52,2.27,2.44,3.36c0.47,0.55,0.96,1.08,1.5,1.6
		c0.55,0.53,1.2,1.08,1.85,1.55c1.53,0.05,2.77,1.66,4.16,2.31c0.39,0.23,0.72,0.57,1.2,0.9c1.28,0.59,2.79,0.51,3.6,1.31
		c0.79,0.89,1.74,1.7,2.75,2.43c0.91,0.72,1.86,1.37,2.81,1.95c1.5,0.95,7.8,3.42,9.47,3.8c0.87,0.24,1.75,0.3,2.62,0.3
		c0.36,0,0.72-0.01,1.07-0.02c0.36-0.01,0.71-0.02,1.07-0.02c0.6,0,1.19,0.03,1.78,0.12c0.01,0,0.01,0.01,0.01,0.02
		c0,0.04-0.06,0.14-0.19,0.27c0.09,0,0.19,0,0.28,0c0.16,0,0.32,0,0.48-0.01c0.16-0.11,0.76-0.29,0.92-0.4
		c0.56,0.07,0.97,0.25,1.49,0.57c0.81,0.7,1.7,1.24,2.86,1.68c1.18,0.44,2.51,0.79,3.97,1.07c2.89,0.57,6.21,0.89,9.28,1.44
		c0.49,0.04,1.09,0.07,1.73,0.07c0.23,0,0.47,0,0.71-0.01c0.96-0.08,1.99-0.23,2.98-0.6c0.77-0.34,1.63-0.61,2.51-0.98
		c0.9-0.39,1.73-0.78,2.37-1.24c2.29-1.91,4.07-4.37,5.56-6.79c-0.91,0.76-1.85,1.44-2.79,2.05c-1.77,1.13-3.56,2.01-5.29,2.7
		c-2.03,1.19-4.73,1.85-7.01,1.85c-0.4,0-0.78-0.02-1.14-0.06c0,0-0.01,0-0.01,0c-1.43,0-2.76-1.06-3.42-2.06
		c-0.03-0.07-0.04-0.14-0.04-0.21c0-0.27,0.15-0.57,0.15-0.84c0-0.07-0.01-0.15-0.04-0.21c-0.83-1.3-2.52-1.95-2.51-3.57
		c0-0.07,0-0.13,0.01-0.2c0.02-0.05,0.02-0.09,0.02-0.14c0-0.6-1.11-1.28-1.93-1.57c-0.04-0.01-0.1-0.01-0.16-0.01
		c-0.48,0-1.47,0.25-2.72,0.61c-0.7,0.21-1.5,0.45-2.34,0.7c-0.79,0.26-1.63,0.53-2.47,0.81c-3.32,1.11-6.6,2.28-7.1,2.28
		c-0.44,0.07-0.68,0.68-1.12,0.75c-1.69-0.21-2.82-1.24-4.12-2.16c-1.7-1.1-6.24-1.4-6.36-1.55l0,0l0,0
		c0.47-1.21,0.41-2.74,1.69-3.61c0.09-0.06,0.1-0.22,0.1-0.39c0-0.05,0-0.1,0-0.15c0-0.08,0-0.15,0.01-0.21
		c-0.08-0.35-0.47-0.84-0.67-0.87l0,0l0,0c0.12-0.02,0.17-0.05,0.17-0.08c0-0.14-1.39-0.32-2.83-0.42c-0.92-0.06-1.9-0.14-2.48-0.14
		c-0.34,0-0.55,0.03-0.55,0.1c0,0.04,0.06,0.09,0.2,0.16l0,0l0,0c-0.7-0.32-1.42-0.38-2.19-0.38c-0.32,0-0.64,0.01-0.98,0.02
		c-0.16,0-0.32,0.01-0.49,0.01c-1.01,0-2.1-0.1-3.1-0.6c-0.89-0.41-1.61-1.14-2.26-1.86c-0.66-0.72-1.27-1.41-2.09-1.83
		c-1.21-0.75-2.56-1.41-2.68-2.58c-0.14-0.79-0.29-1.39-0.62-2.03c-1.04-1.34-2.49-2.39-2.96-3.81c-0.17-0.7-0.06-1.54-0.24-2.3
		c-0.13-0.53-0.4-1.01-1-1.36c-0.1-0.05-0.2-0.12-0.29-0.2c-0.16-0.13-0.31-0.29-0.45-0.43C46.34,72.25,46.13,72.06,45.94,72.06"/>
	<path class="st693" d="M104.95,76.57c0.22,0.17,0.37,0.27,0.46,0.34C105.33,76.84,105.18,76.73,104.95,76.57 M104.95,76.57
		L104.95,76.57"/>
	<path class="st693" d="M105,76.59c0.11,0.06,0.37,0.2,0.66,0.31C105.37,76.79,105.11,76.65,105,76.59"/>
	<path class="st695" d="M107.68,77.42L107.68,77.42C107.68,77.42,107.69,77.42,107.68,77.42L107.68,77.42
		c0.26,0.03,0.48,0.04,0.67,0.04c0.23,0,0.41-0.01,0.53-0.03l0,0l0,0c-0.12,0.01-0.29,0.03-0.53,0.03
		C108.16,77.46,107.94,77.45,107.68,77.42C107.69,77.42,107.68,77.42,107.68,77.42L107.68,77.42 M109.15,77.39L109.15,77.39
		c-0.04,0.01-0.1,0.02-0.22,0.03l0,0l0,0C109.05,77.41,109.11,77.4,109.15,77.39L109.15,77.39 M109.22,77.38L109.22,77.38l-0.02,0
		c-0.01,0-0.02,0-0.05,0.01l0,0c0.03,0,0.04-0.01,0.05-0.01L109.22,77.38 M109.27,77.37L109.27,77.37l-0.03,0.01l0,0L109.27,77.37
		L109.27,77.37 M109.36,77.34L109.36,77.34L109.36,77.34l-0.07,0.02L109.36,77.34L109.36,77.34 M109.46,77.31L109.46,77.31
		l-0.02,0.01L109.46,77.31 M109.48,77.3L109.48,77.3L109.48,77.3L109.48,77.3L109.48,77.3L109.48,77.3 M109.48,77.3L109.48,77.3
		l-0.03,0.01L109.48,77.3 M109.49,77.29L109.49,77.29l-0.01,0.01L109.49,77.29 M109.55,77.27l-0.05,0.02L109.55,77.27L109.55,77.27
		L109.55,77.27L109.55,77.27 M105.66,76.9L105.66,76.9C105.66,76.9,105.66,76.9,105.66,76.9c0.01,0.01,0.02,0.01,0.02,0.01l0,0
		c0.08,0.03,0.16,0.06,0.24,0.09l0,0l0,0c-0.08-0.03-0.16-0.06-0.24-0.09C105.67,76.9,105.66,76.9,105.66,76.9"/>
	<path class="st693" d="M109.48,77.3L109.48,77.3 M109.48,77.3L109.48,77.3 M105.68,76.91c0.08,0.03,0.15,0.06,0.23,0.09
		c0.58,0.21,1.25,0.37,1.77,0.42c0,0,0.01,0,0.01,0c0,0-0.01,0-0.01,0c-0.51-0.05-1.19-0.21-1.76-0.42
		C105.84,76.97,105.76,76.94,105.68,76.91 M105.66,76.9C105.66,76.9,105.66,76.9,105.66,76.9C105.66,76.9,105.66,76.9,105.66,76.9"
		/>
	<path class="st693" d="M105.41,76.9c0.06,0.05,0.09,0.07,0.09,0.07C105.5,76.97,105.47,76.95,105.41,76.9"/>
	<path class="st693" d="M109.23,77.42L109.23,77.42L109.23,77.42L109.23,77.42L109.23,77.42 M109.5,77.29L109.5,77.29 M109.55,77.27
		c0,0-0.01,0.01-0.05,0.02l0,0l0,0c0,0,0,0,0,0c0,0,0,0,0,0c0,0,0,0,0,0c0,0,0,0-0.01,0c0,0,0,0,0,0c0,0,0,0,0,0c0,0,0,0-0.01,0l0,0
		l0,0c-0.01,0.01-0.03,0.01-0.05,0.02c0,0,0,0,0,0c0,0,0,0-0.01,0c-0.05,0.02-0.11,0.05-0.2,0.09l0,0c0.03-0.01,0.05-0.02,0.07-0.03
		c0.08-0.04,0.13-0.06,0.17-0.08c0,0,0.01,0,0.01,0c0,0,0,0,0.01,0l0,0l0,0c0,0,0,0,0,0c0,0,0,0,0,0c0,0,0,0,0.01,0l0,0l0,0l0,0
		C109.54,77.28,109.55,77.27,109.55,77.27"/>
	<path class="st693" d="M109.23,77.42C109.23,77.42,109.22,77.42,109.23,77.42c-0.04,0.02-0.07,0.03-0.11,0.05l0,0l0,0
		c-0.04,0.02-0.09,0.04-0.14,0.06c-0.01,0-0.01,0-0.02,0.01l0,0l0,0c0,0,0,0,0,0c0,0,0,0,0,0c0,0,0,0,0,0c0,0,0,0,0,0s0,0,0,0
		c0,0,0,0,0,0l0,0l0,0c0.01,0,0.01-0.01,0.02-0.01c0,0,0,0,0,0c0.05-0.02,0.09-0.04,0.13-0.06l0,0l0,0
		C109.16,77.45,109.19,77.43,109.23,77.42C109.22,77.42,109.22,77.42,109.23,77.42C109.23,77.42,109.23,77.42,109.23,77.42
		L109.23,77.42"/>
	<path class="st693" d="M109.11,77.53C109.11,77.53,109.11,77.53,109.11,77.53c-0.02,0.02-0.06,0.07-0.11,0.13
		C109.05,77.6,109.09,77.55,109.11,77.53C109.11,77.53,109.11,77.53,109.11,77.53"/>
	<path class="st696" d="M109,77.66c-0.06,0.06-0.13,0.14-0.17,0.2c-0.07,0.11-0.14,0.2-0.19,0.28l0,0c0.05-0.07,0.11-0.16,0.18-0.26
		c0-0.01,0.01-0.01,0.01-0.02l0,0C108.87,77.8,108.94,77.72,109,77.66L109,77.66"/>
	<path class="st693" d="M108.81,77.88c-0.07,0.1-0.13,0.18-0.18,0.26c-0.02,0.02-0.03,0.04-0.04,0.06c0,0,0,0,0,0
		c-0.01,0.01-0.01,0.02-0.02,0.02c-0.01,0.01-0.02,0.03-0.03,0.04c-0.04,0.06-0.07,0.1-0.07,0.1c0,0,0.03-0.04,0.07-0.11
		c0.01-0.02,0.02-0.04,0.04-0.06c0,0,0,0,0,0c0.01-0.02,0.03-0.04,0.04-0.06C108.69,78.07,108.75,77.98,108.81,77.88 M109,77.66
		c-0.06,0.06-0.13,0.14-0.17,0.2C108.87,77.8,108.94,77.72,109,77.66"/>
	<path class="st693" d="M108.48,78.37c-0.14,0.21-0.23,0.41-0.53,0.96C108.25,78.78,108.34,78.57,108.48,78.37"/>
	<path class="st696" d="M107.95,79.33c-0.01,0.01-0.01,0.03-0.02,0.04c-0.06,0.13-0.13,0.27-0.19,0.42
		c-0.06,0.14-0.11,0.29-0.21,0.51c-0.18,0.41-0.33,0.84-0.46,1.31c-0.2,0.56-0.37,1.16-0.5,1.78c-0.17,0.68-0.37,1.48-0.48,2.24
		c-0.15,0.81-0.34,1.82-0.43,2.73c-0.03,0.23-0.05,0.46-0.09,0.75l-0.05,0.38l-0.01,0.01l-0.02,0.03c-0.11,0.07-0.55,0.07-0.93,0.08
		c-0.46,0-0.75,0-0.75,0l-0.14-0.06l-0.23-0.06l-0.49-0.12l-0.98-0.23c-0.11,0.02-0.25,0.03-0.43,0.03c-0.28,0-0.62-0.02-1.01-0.07
		l0,0c0.39,0.04,0.74,0.07,1.01,0.07l0,0c0.17,0,0.32-0.01,0.43-0.03l0,0l0.98,0.23l0.49,0.12l0.23,0.06l0.14,0.06l0,0
		c0,0,0.3,0,0.75,0l0,0c0.01,0,0.01,0,0.02,0c0.38,0,0.81-0.01,0.92-0.08l0,0l0.02-0.03l0.01-0.01l0.05-0.38
		c0.04-0.29,0.07-0.52,0.09-0.75c0-0.03,0.01-0.06,0.01-0.09c0.1-0.89,0.28-1.85,0.42-2.64l0,0l0,0c0.11-0.74,0.3-1.51,0.47-2.18
		c0.01-0.02,0.01-0.04,0.02-0.06c0.13-0.62,0.3-1.21,0.5-1.78c0.13-0.47,0.28-0.91,0.46-1.31c0.1-0.22,0.15-0.37,0.21-0.51l0,0
		c0.06-0.15,0.12-0.29,0.19-0.42l0,0C107.94,79.36,107.95,79.34,107.95,79.33"/>
	<path class="st693" d="M103.79,89.6c0,0,0.3,0,0.75,0C104.09,89.6,103.79,89.6,103.79,89.6 M105.48,89.53
		c-0.11,0.07-0.53,0.07-0.92,0.08C104.95,89.6,105.37,89.6,105.48,89.53 M101.95,89.13c-0.11,0.02-0.25,0.03-0.43,0.03
		C101.7,89.16,101.84,89.15,101.95,89.13 M94.58,87.88c0.49,0.13,1.77,0.47,3.13,0.75C96.35,88.35,95.08,88.01,94.58,87.88
		 M106.08,85.63c-0.14,0.79-0.33,1.75-0.42,2.64C105.76,87.39,105.94,86.42,106.08,85.63 M106.55,83.45
		c-0.17,0.67-0.36,1.44-0.47,2.18C106.2,84.89,106.38,84.12,106.55,83.45 M107.93,79.37c-0.06,0.13-0.13,0.27-0.19,0.42
		C107.8,79.64,107.87,79.5,107.93,79.37"/>
	<path class="st693" d="M79.36,84.21c0.85,0.14,1.99,0.33,3.34,0.55C81.36,84.54,80.21,84.35,79.36,84.21"/>
	<path class="st693" d="M83.41,84.88c3.18,0.55,7.05,1.27,10.74,2.85C90.47,86.14,86.59,85.43,83.41,84.88"/>
	<path class="st693" d="M94.37,87.82c0,0,0.08,0.02,0.21,0.06C94.45,87.84,94.37,87.82,94.37,87.82"/>
	<path class="st697" d="M45.16,71.48c-0.03,0-0.06,0.02-0.08,0.05c-0.27,0.2-0.18,0.72-0.21,1.09c0.25,1.69,0.25,3.34,0.63,4.93
		c0.49,1.87,1.11,3.69,1.91,5.45c0.79,1.73,1.78,3.47,3.36,5.23c0.3,0.34,0.67,0.54,1.08,0.74c0.43,0.21,0.87,0.38,1.29,0.6
		c0.99,0.47,1.92,1.21,2.97,1.83c0.96,0.57,2.02,1.03,3.13,1.03c0.08,0,0.17,0,0.25-0.01c0.02,0,0.04,0,0.07,0
		c0.3,0,0.7,0.18,0.98,0.39c1.34,1.38,2.88,2.54,4.6,3.56c0.43,0.25,0.88,0.5,1.33,0.74l1.16,0.68c0.71,0.43,1.42,0.85,2.14,1.28
		c1.66,1.14,7.74,3.16,9.04,3.49c0.91,0.16,1.72,0.23,2.43,0.23c3.23,0,4.47-1.39,4.47-1.56c0-0.01,0-0.02-0.01-0.02
		c-0.59-0.1-1.18-0.12-1.78-0.12c-0.35,0-0.71,0.01-1.07,0.02c-0.36,0.01-0.71,0.02-1.07,0.02c-0.87,0-1.74-0.05-2.62-0.3
		c-1.67-0.38-7.97-2.85-9.47-3.8c-0.95-0.58-1.9-1.23-2.81-1.95c-1.01-0.73-1.96-1.54-2.75-2.43c-0.81-0.8-2.32-0.72-3.6-1.31
		c-0.48-0.32-0.8-0.67-1.2-0.9c-1.38-0.65-2.62-2.26-4.16-2.31c-0.65-0.48-1.3-1.02-1.85-1.55c-0.54-0.52-1.04-1.05-1.5-1.6
		c-0.92-1.09-1.71-2.22-2.44-3.36c-0.46-0.6-0.8-1.17-1.13-1.87c-0.42-1.09-0.47-2.11-0.77-3.18c-0.17-1.04-0.99-1.97-1.29-3.04
		c-0.21-0.55-0.17-1.04-0.33-1.45l0,0C45.61,71.91,45.33,71.48,45.16,71.48"/>
</g>
<g>
	<path d="M45.49,62.07c0.65-4.37,2.83-8.15,5.65-11.57c2.47-2.99,5.33-5.52,9.13-6.77c2.41-0.79,4.83-1.56,7.16-2.52
		c1.95-0.81,3.91-1.72,5.64-2.9c2.38-1.63,3.24-4.03,2.61-6.92c-0.16-0.75-0.14-1.53-0.23-2.53c1.93,0.62,1.78,2.03,1.99,3.12
		c0.28,1.48,0.17,2.89-0.56,4.36c-2.1,4.27-6.2,5.46-10.14,6.93c-3.41,1.27-6.99,2.04-10,4.3c-4.12,3.08-6.87,7.17-8.59,11.88
		c-1.08,2.95-0.98,6.09,0.4,9.06c0.51,1.1,0.85,2.28,1.37,3.38c1.46,3.08,3.79,5.3,6.82,6.83c0.82,0.41,1.6,0.9,2.26,1.59
		c-4.13-0.29-7.11-2.43-9.53-5.71c-2.36-3.19-2.95-7.03-4.2-10.68c-4.59-0.19-8.62,1.35-12.08,3.98c-3.64,2.76-7.18,5.73-9.21,10.05
		c-0.96,2.04-0.95,3.98,0.11,5.92c1.33,2.42,2.99,4.47,5.62,5.68c3.66,1.68,7.23,3.37,11.31,4.03c3.31,0.54,6.56,1.43,9.93,1.84
		c12.83,1.54,25.67,1.83,38.56,1c7.7-0.5,15.36-1.23,22.99-2.37c6.02-0.89,10.35-4.14,13.49-9.16c1.03-1.65,0.89-3.42,0.05-5.12
		c-3.27-6.65-8.41-10.92-15.84-12.14c-1.66-0.27-3.38-0.21-5.04-0.46c-0.48-0.07-0.88-0.7-1.31-1.08c0.44-0.25,0.88-0.73,1.31-0.72
		c9.74,0.35,19.33,4.55,22.95,15.69c0.97,2.99-0.61,5.12-2.24,7.15c-1.28,1.59-2.87,2.98-4.51,4.21c-1.04,0.78-1.35,1.62-1.48,2.81
		c-0.15,1.38-0.41,2.81-0.92,4.09c-1.89,4.69-4,9.28-7.18,13.27c-2.23,2.81-5.29,4.43-8.59,5.66c-0.87,0.33-1.77,0.62-2.59,1.06
		c-3.31,1.8-7.03,2.28-10.6,2.65c-5.29,0.54-10.6,1.51-16,0.58c-2.25-0.39-4.63,0.09-6.95,0.04c-8.24-0.19-15.38-3.64-22.42-7.48
		c-3.94-2.14-7.46-4.77-9.89-8.54c-1.77-2.74-3.23-5.69-4.6-8.65c-1.14-2.46-1.89-5.1-2.96-7.59c-0.35-0.8-1.15-1.44-1.82-2.06
		c-2.14-1.97-3.64-4.32-4.01-7.21c-0.12-0.95,0.04-2.1,0.48-2.94c1.49-2.83,3.35-5.42,5.74-7.58c3.55-3.2,7.32-6.11,11.98-7.48
		C41.42,62.51,43.41,62.4,45.49,62.07z M30.06,92.21c0.67,3.07,1.8,5.73,3.08,8.3c2.23,4.49,4.93,8.66,9.3,11.41
		c5.09,3.21,10.39,6.03,16.16,7.79c1.65,0.5,3.49,0.38,5.24,0.55c0.55,0.05,1.09,0.12,1.63,0.22c1.17,0.21,2.33,0.58,3.5,0.63
		c2.07,0.1,4.14-0.06,6.21,0c9.97,0.28,19.7-0.72,28.91-4.97c2.62-1.21,4.83-2.81,6.6-5.09c3.61-4.66,5.86-10,7.91-15.45
		c0.17-0.44,0.02-1,0.02-1.56c-1.98,0.57-3.74,1.23-5.56,1.56c-3.23,0.58-6.47,1.13-9.74,1.37c-7.49,0.56-14.99,1.13-22.5,1.31
		c-6.85,0.16-13.73,0-20.57-0.37c-5.23-0.29-10.48-0.85-15.63-1.81C39.86,95.21,35.21,93.62,30.06,92.21z"/>
	<path d="M74.53,83.98c1.56,0.13,3.12,0.46,4.66,0.36c3.28-0.22,6.58-0.47,9.8-1.07c4.75-0.88,7.89-3.99,10.31-8.04
		c2.38-3.99,2.48-8.03,0.27-11.99c-0.88-1.58-2.26-3.08-3.78-4.05c-3.39-2.16-7.06-3.77-11.3-3.54c-1.05,4.44,3.12,5.64,5.05,8.54
		c-0.85,0-1.46,0.19-1.81-0.03c-3.18-1.97-5.48-4.55-5.54-8.56c-0.03-2.16,0.36-4.25,0.71-6.39c0.95-5.8,1.06-11.59-2.81-16.7
		c-1.29-1.7-2.23-3.65-4.13-4.86c-0.32-0.2-0.33-0.89-0.58-1.66c2.53,1.17,4.35,2.53,5.49,4.66c1.41,2.63,3.47,5.01,3.67,8.13
		c0.21,3.15,0.25,6.31,0.17,9.46c-0.05,1.76-0.51,3.5-0.81,5.41c1.66,0.2,3.14,0.27,4.56,0.59c1.37,0.31,2.7,0.82,4,1.35
		c3.25,1.32,6.25,2.99,8.2,6.09c3.05,4.87,2.81,11.05-1.24,16.59c-3.37,4.6-7.98,6.9-13.62,7.28c-2.34,0.16-4.67,0.41-7.01,0.49
		c-1.11,0.03-2.26-0.14-3.32-0.47c-0.56-0.17-0.97-0.86-1.44-1.31C74.2,84.18,74.37,84.08,74.53,83.98z"/>
	<path d="M62.47,74.83c-0.66-0.22-1.45-0.28-1.94-0.69c-4.3-3.63-7.11-7.74-5.53-13.9c0.86-3.34,1.74-6.49,4.25-8.96
		c0.27-0.26,0.56-0.5,0.87-0.71c0.14-0.09,0.34-0.07,0.63-0.12c0.84,0.82,0.24,1.38-0.37,2.01c-3.37,3.48-4.25,7.8-3.99,12.43
		c0.11,1.98,0.87,3.79,2.35,5.26c1.37,1.37,2.64,2.85,3.96,4.28C62.62,74.56,62.55,74.69,62.47,74.83z"/>
	<path d="M52.08,84.73c-4.32-0.26-7.57-2.23-9.41-6.04c-2.48-5.13-2.76-7.26-1.28-9.43c0.43,1.04,0.98,1.81,1.04,2.63
		c0.43,5.64,3.14,9.63,8.32,11.95C51.24,84.05,51.64,84.43,52.08,84.73z"/>
	<path d="M104.96,73.05c2.07,1.07,1.49,2.9,1.27,4.21c-0.81,4.92-1.84,8.01-7.57,10.85c0.12-0.55,0.06-1.11,0.29-1.27
		c4.4-3.09,5.95-7.43,5.66-12.62C104.6,73.9,104.8,73.57,104.96,73.05z"/>
	<path d="M114.62,84.52c0.91-2.2,1.63-3.95,2.45-5.93C118.69,81.03,118.04,82.55,114.62,84.52z"/>
</g>
</svg>
