<?xml version="1.0" encoding="utf-8"?>
<!-- Generator: Adobe Illustrator 23.0.1, SVG Export Plug-In . SVG Version: 6.00 Build 0)  -->
<svg version="1.1" id="Layer_1" xmlns="http://www.w3.org/2000/svg" xmlns:xlink="http://www.w3.org/1999/xlink" x="0px" y="0px"
	 viewBox="0 0 150 150" style="enable-background:new 0 0 150 150;" xml:space="preserve">
<style type="text/css">
	.st0{fill:#F49AB4;}
	.st1{fill:#F28DA7;}
	.st2{fill:#E85072;}
	.st3{fill:#E84B6F;}
	.st4{fill:#EB5A7D;}
	.st5{fill:#EF7994;}
	.st6{fill:#F8BCCD;}
	.st7{fill:#F38CA8;}
	.st8{fill:#EF728F;}
	.st9{fill:#FCE4EB;}
	.st10{fill:#F0CCCF;}
	.st11{fill:#DE8D95;}
	.st12{fill:#EBBABF;}
	.st13{fill:#E7ACB2;}
	.st14{fill:#E39DA3;}
	.st15{fill:#F5DEE0;}
	.st16{fill:#D97A83;}
	.st17{fill:#E4A6AD;}
	.st18{fill:#E9B6BB;}
	.st19{fill:#DA9197;}
	.st20{fill:#CC7077;}
	.st21{fill:#C9646C;}
	.st22{fill:#D4848B;}
	.st23{fill:#D17A81;}
	.st24{fill:#DD9EA3;}
	.st25{fill:#C65760;}
	.st26{fill:#D48189;}
	.st27{fill:#CF6E76;}
	.st28{fill:#C1575F;}
	.st29{fill:#B8424B;}
	.st30{fill:#B33C43;}
	.st31{fill:#BB4952;}
	.st32{fill:#C65E66;}
	.st33{fill:#BC4F57;}
	.st34{fill:#B0353D;}
	.st35{fill:#D67E84;}
	.st36{fill:#C6636B;}
	.st37{fill:#CA6C72;}
	.st38{fill:#B9454D;}
	.st39{fill:#C05B63;}
	.st40{fill:#C0545B;}
	.st41{fill:#BE4C53;}
	.st42{fill:#B43C44;}
	.st43{fill:#DF999F;}
	.st44{fill:#D27980;}
	.st45{fill:#C1555D;}
	.st46{fill:#CB6F76;}
	.st47{fill:#C8676E;}
	.st48{fill:#D5838A;}
	.st49{fill:#C65D64;}
	.st50{fill:#F1D1D4;}
	.st51{fill:#D38087;}
	.st52{fill:#CF737C;}
	.st53{fill:#D98C94;}
	.st54{fill:#E6B3B9;}
	.st55{fill:#D8898F;}
	.st56{fill:#C66269;}
	.st57{fill:#C96A72;}
	.st58{fill:#DD9399;}
	.st59{fill:#CF747B;}
	.st60{fill:#D48188;}
	.st61{fill:#D37D85;}
	.st62{fill:#DC9298;}
	.st63{fill:#D8838B;}
	.st64{fill:#FAECED;}
	.st65{fill:#EFCBD0;}
	.st66{fill:#EDC1C5;}
	.st67{fill:#D28089;}
	.st68{fill:#CB747D;}
	.st69{fill:#A8343C;}
	.st70{fill:#A62F37;}
	.st71{fill:#B03E44;}
	.st72{fill:#C25C63;}
	.st73{fill:#E1A8AC;}
	.st74{fill:#BE535C;}
	.st75{fill:#CE727C;}
	.st76{fill:#F5D8DA;}
	.st77{fill:#D8BAE7;}
	.st78{fill:#BC8FD2;}
	.st79{fill:#B17FC9;}
	.st80{fill:#7D3CA4;}
	.st81{fill:#884BAE;}
	.st82{fill:#A369BF;}
	.st83{fill:#D2B5E2;}
	.st84{fill:#9A62BC;}
	.st85{fill:#B17ECB;}
	.st86{fill:#ECE0F2;}
	.st87{fill:#FBCBC8;}
	.st88{fill:#F5908C;}
	.st89{fill:#F28580;}
	.st90{fill:#E64640;}
	.st91{fill:#E5413B;}
	.st92{fill:#E74E49;}
	.st93{fill:#ED6D68;}
	.st94{fill:#F7B5B0;}
	.st95{fill:#ED6660;}
	.st96{fill:#F48580;}
	.st97{fill:#FBDFDF;}
	.st98{fill:#F9C1C0;}
	.st99{fill:#F7B7B6;}
	.st100{fill:#EF7573;}
	.st101{fill:#EF6F6D;}
	.st102{fill:#F17F7C;}
	.st103{fill:#F4A19F;}
	.st104{fill:#F39998;}
	.st105{fill:#EC7271;}
	.st106{fill:#FAD1CF;}
	.st107{fill:#FADCDC;}
	.st108{fill:#F39391;}
	.st109{fill:#FDECEC;}
	.st110{fill:#FCDDDD;}
	.st111{fill:#ED8280;}
	.st112{fill:#E66160;}
	.st113{fill:#F18784;}
	.st114{fill:#F19593;}
	.st115{fill:#EB7675;}
	.st116{fill:#E86867;}
	.st117{fill:#F28785;}
	.st118{fill:#F3A7A7;}
	.st119{fill:#F08C8B;}
	.st120{fill:#F08785;}
	.st121{fill:#E55D5B;}
	.st122{fill:#E86D6C;}
	.st123{fill:#E85F5D;}
	.st124{fill:#E75958;}
	.st125{fill:#EA6664;}
	.st126{fill:#E76260;}
	.st127{fill:#E04948;}
	.st128{fill:#ED7371;}
	.st129{fill:#EA6B6A;}
	.st130{fill:#EB6763;}
	.st131{fill:#E45352;}
	.st132{fill:#E54E4C;}
	.st133{fill:#DE3635;}
	.st134{fill:#E65958;}
	.st135{fill:#E0413E;}
	.st136{fill:#EA6D6A;}
	.st137{fill:#EE9493;}
	.st138{fill:#EA6866;}
	.st139{fill:#F2A8A6;}
	.st140{fill:#E14543;}
	.st141{fill:#E3413F;}
	.st142{fill:#E64A48;}
	.st143{fill:#E56967;}
	.st144{fill:#E33F3D;}
	.st145{fill:#EB7775;}
	.st146{fill:#EE8483;}
	.st147{fill:#E64845;}
	.st148{fill:#E75655;}
	.st149{fill:#E65451;}
	.st150{fill:#EA7473;}
	.st151{fill:#E55B57;}
	.st152{fill:#E75756;}
	.st153{fill:#EB7472;}
	.st154{fill:#EE8C8A;}
	.st155{fill:#F5A3A2;}
	.st156{fill:#E14A49;}
	.st157{fill:#E14D4C;}
	.st158{fill:#E14B49;}
	.st159{fill:#DE3E3D;}
	.st160{fill:#E45350;}
	.st161{fill:#E14544;}
	.st162{fill:#E54E4B;}
	.st163{fill:#E34240;}
	.st164{fill:#E75C5A;}
	.st165{fill:#EB7C7B;}
	.st166{fill:#F3A2A1;}
	.st167{fill:#EA7877;}
	.st168{fill:#E66B6A;}
	.st169{fill:#E96A69;}
	.st170{fill:#E56160;}
	.st171{fill:#E44845;}
	.st172{fill:#EC7473;}
	.st173{fill:#F9C0D3;}
	.st174{fill:#F298B5;}
	.st175{fill:#EE89A7;}
	.st176{fill:#E54D73;}
	.st177{fill:#E44771;}
	.st178{fill:#E7567E;}
	.st179{fill:#EC7797;}
	.st180{fill:#F8BCCF;}
	.st181{fill:#EB6D8F;}
	.st182{fill:#F089A8;}
	.st183{fill:#FCE2EB;}
	.st184{fill:#E55B7F;}
	.st185{fill:#E6708E;}
	.st186{fill:#EB87A2;}
	.st187{fill:#E25677;}
	.st188{fill:#E7678B;}
	.st189{fill:#FBD7E3;}
	.st190{fill:#ED80A1;}
	.st191{fill:#E24166;}
	.st192{fill:#E13B65;}
	.st193{fill:#E34870;}
	.st194{fill:#E76486;}
	.st195{fill:#F49DB8;}
	.st196{fill:#F7BFD1;}
	.st197{fill:#E65C7F;}
	.st198{fill:#F6ABC4;}
	.st199{fill:#F6A7C2;}
	.st200{fill:#EA6189;}
	.st201{fill:#DB3258;}
	.st202{fill:#DA2E55;}
	.st203{fill:#F7B2C9;}
	.st204{fill:#EA6A8D;}
	.st205{fill:#DC355B;}
	.st206{fill:#DB3159;}
	.st207{fill:#DF3C63;}
	.st208{fill:#F9C5D6;}
	.st209{fill:#EB7697;}
	.st210{fill:#DE3B61;}
	.st211{fill:#DE375F;}
	.st212{fill:#E1426A;}
	.st213{fill:#FDE7EE;}
	.st214{fill:#EE89A9;}
	.st215{fill:#E2456B;}
	.st216{fill:#E14069;}
	.st217{fill:#E44D75;}
	.st218{fill:#E86B8C;}
	.st219{fill:#EE7A9C;}
	.st220{fill:#F5A8C0;}
	.st221{fill:#FACBDA;}
	.st222{fill:#E65A7D;}
	.st223{fill:#E04169;}
	.st224{fill:#FEF5F9;}
	.st225{fill:#F191B0;}
	.st226{fill:#EA7292;}
	.st227{fill:#F6B4C9;}
	.st228{fill:#FBD8E5;}
	.st229{fill:#E96C8F;}
	.st230{fill:#E35477;}
	.st231{fill:#EA7396;}
	.st232{fill:#EB7A9D;}
	.st233{fill:#E8698D;}
	.st234{fill:#EB7094;}
	.st235{fill:#E04B6E;}
	.st236{fill:#E66085;}
	.st237{fill:#EB7294;}
	.st238{fill:#E7678C;}
	.st239{fill:#EA6D91;}
	.st240{fill:#E14C71;}
	.st241{fill:#EE7A9D;}
	.st242{fill:#F393B2;}
	.st243{fill:#DC3F64;}
	.st244{fill:#EF82A3;}
	.st245{fill:#F39DB9;}
	.st246{fill:#DF466B;}
	.st247{fill:#DF4469;}
	.st248{fill:#F29A98;}
	.st249{fill:#E64F4D;}
	.st250{fill:#E74947;}
	.st251{fill:#E85956;}
	.st252{fill:#EC7775;}
	.st253{fill:#F8BCBA;}
	.st254{fill:#EC6F6D;}
	.st255{fill:#FCE2E2;}
	.st256{fill:#F8C8C6;}
	.st257{fill:#F08B89;}
	.st258{fill:#F18A89;}
	.st259{fill:#B093A4;}
	.st260{fill:#A38295;}
	.st261{fill:#6F455A;}
	.st262{fill:#694055;}
	.st263{fill:#794F64;}
	.st264{fill:#936F83;}
	.st265{fill:#CDB7C1;}
	.st266{fill:#B596A5;}
	.st267{fill:#A58394;}
	.st268{fill:#8C667A;}
	.st269{fill:#B696A7;}
	.st270{fill:#E8E0E7;}
	.st271{fill:#E1BCC2;}
	.st272{fill:#A9666E;}
	.st273{fill:#681C23;}
	.st274{fill:#641920;}
	.st275{fill:#73242D;}
	.st276{fill:#8D3F48;}
	.st277{fill:#C69197;}
	.st278{fill:#893841;}
	.st279{fill:#E3CCCE;}
	.st280{fill:#6F292E;}
	.st281{fill:#A15A63;}
	.st282{fill:#944952;}
	.st283{fill:#944953;}
	.st284{fill:#964A53;}
	.st285{fill:#984B54;}
	.st286{fill:#974A53;}
	.st287{fill:#A25A62;}
	.st288{fill:#D2BCC8;}
	.st289{fill:#C8B2BE;}
	.st290{fill:#936A80;}
	.st291{fill:#8E667B;}
	.st292{fill:#9B7589;}
	.st293{fill:#B293A3;}
	.st294{fill:#916B7F;}
	.st295{fill:#DDCCD6;}
	.st296{fill:#AC8B9C;}
	.st297{fill:#F1EBEF;}
	.st298{fill:#9C7A8C;}
	.st299{fill:#8F6C80;}
	.st300{fill:#B99DAC;}
	.st301{fill:#A27F91;}
	.st302{fill:#C2A7B6;}
	.st303{fill:#AB8E9F;}
	.st304{fill:#936D82;}
	.st305{fill:#856174;}
	.st306{fill:#B99DAB;}
	.st307{fill:#C2A9B6;}
	.st308{fill:#A38091;}
	.st309{fill:#BBA3B0;}
	.st310{fill:#7A5468;}
	.st311{fill:#855F73;}
	.st312{fill:#AE8E9F;}
	.st313{fill:#7C556A;}
	.st314{fill:#7B5066;}
	.st315{fill:#855C71;}
	.st316{fill:#AF8E9F;}
	.st317{fill:#734B60;}
	.st318{fill:#694256;}
	.st319{fill:#916A80;}
	.st320{fill:#886378;}
	.st321{fill:#875C71;}
	.st322{fill:#714B5E;}
	.st323{fill:#582F42;}
	.st324{fill:#795066;}
	.st325{fill:#5E3A4B;}
	.st326{fill:#8A6578;}
	.st327{fill:#A98E9D;}
	.st328{fill:#B9A1B1;}
	.st329{fill:#B08F9F;}
	.st330{fill:#B898AA;}
	.st331{fill:#896578;}
	.st332{fill:#653C50;}
	.st333{fill:#623A4E;}
	.st334{fill:#6C4257;}
	.st335{fill:#B28FA1;}
	.st336{fill:#80596E;}
	.st337{fill:#7F586C;}
	.st338{fill:#765063;}
	.st339{fill:#683F53;}
	.st340{fill:#774E63;}
	.st341{fill:#704B5F;}
	.st342{fill:#674355;}
	.st343{fill:#7F5A6E;}
	.st344{fill:#815A6E;}
	.st345{fill:#6A4558;}
	.st346{fill:#5D374A;}
	.st347{fill:#926D80;}
	.st348{fill:#70475B;}
	.st349{fill:#72495E;}
	.st350{fill:#673D52;}
	.st351{fill:#673D51;}
	.st352{fill:#60364B;}
	.st353{fill:#795265;}
	.st354{fill:#683F52;}
	.st355{fill:#7A5368;}
	.st356{fill:#987387;}
	.st357{fill:#70475C;}
	.st358{fill:#A07D92;}
	.st359{fill:#81596E;}
	.st360{fill:#926C7F;}
	.st361{fill:#80596D;}
	.st362{fill:#CDC0E4;}
	.st363{fill:#A998CF;}
	.st364{fill:#644DA1;}
	.st365{fill:#5E479E;}
	.st366{fill:#6F56A9;}
	.st367{fill:#755CAC;}
	.st368{fill:#8975BA;}
	.st369{fill:#C4BAE0;}
	.st370{fill:#755DAD;}
	.st371{fill:#846DB7;}
	.st372{fill:#E7E2F2;}
	.st373{fill:#9B89C5;}
	.st374{fill:#8871B8;}
	.st375{fill:#9C89C6;}
	.st376{fill:#8673B9;}
	.st377{fill:#B9E1BA;}
	.st378{fill:#ADDBAE;}
	.st379{fill:#99D09A;}
	.st380{fill:#65B567;}
	.st381{fill:#5FB261;}
	.st382{fill:#70BB71;}
	.st383{fill:#8DCB8E;}
	.st384{fill:#CBE9CB;}
	.st385{fill:#86C687;}
	.st386{fill:#98D099;}
	.st387{fill:#EBF5EB;}
	.st388{fill:#B9D6C9;}
	.st389{fill:#8EBD9E;}
	.st390{fill:#7DB18E;}
	.st391{fill:#408251;}
	.st392{fill:#3A7F4C;}
	.st393{fill:#4A8C5B;}
	.st394{fill:#68A279;}
	.st395{fill:#B5D4BE;}
	.st396{fill:#7CB38B;}
	.st397{fill:#619D71;}
	.st398{fill:#E0ECE4;}
	.st399{fill:#74A38C;}
	.st400{fill:#679880;}
	.st401{fill:#669780;}
	.st402{fill:#669881;}
	.st403{fill:#285E41;}
	.st404{fill:#235A3C;}
	.st405{fill:#31684A;}
	.st406{fill:#4D8268;}
	.st407{fill:#A1C2B0;}
	.st408{fill:#679981;}
	.st409{fill:#467B62;}
	.st410{fill:#D6E5DF;}
	.st411{fill:#8ECA8F;}
	.st412{fill:#7DC07F;}
	.st413{fill:#409841;}
	.st414{fill:#3A933C;}
	.st415{fill:#4AA14B;}
	.st416{fill:#68B569;}
	.st417{fill:#7CC07D;}
	.st418{fill:#B5DDB5;}
	.st419{fill:#61B062;}
	.st420{fill:#7CC17E;}
	.st421{fill:#E0EFE0;}
	.st422{fill:#EBF5DE;}
	.st423{fill:#D4EAB8;}
	.st424{fill:#D2E9B4;}
	.st425{fill:#D8ECBE;}
	.st426{fill:#E2F0CE;}
	.st427{fill:#F3F9EA;}
	.st428{fill:#DFF0CA;}
	.st429{fill:#FAFDF7;}
	.st430{fill:#D3C9BE;}
	.st431{fill:#CBBEB3;}
	.st432{fill:#BBAC9F;}
	.st433{fill:#97826F;}
	.st434{fill:#947E69;}
	.st435{fill:#9F8A79;}
	.st436{fill:#B5A495;}
	.st437{fill:#DED6CE;}
	.st438{fill:#BBAD9F;}
	.st439{fill:#AE9E8D;}
	.st440{fill:#F2EFEC;}
	.st441{fill:#B1A091;}
	.st442{fill:#B1A090;}
	.st443{fill:#D8BACF;}
	.st444{fill:#976286;}
	.st445{fill:#905778;}
	.st446{fill:#4F1939;}
	.st447{fill:#4C1637;}
	.st448{fill:#5A2144;}
	.st449{fill:#773B60;}
	.st450{fill:#B88FAD;}
	.st451{fill:#6E345A;}
	.st452{fill:#8E567D;}
	.st453{fill:#E1CCDA;}
	.st454{fill:#C4E2A7;}
	.st455{fill:#93C35F;}
	.st456{fill:#8EC15A;}
	.st457{fill:#9AC868;}
	.st458{fill:#B0D587;}
	.st459{fill:#DCEBC3;}
	.st460{fill:#C8E0AA;}
	.st461{fill:#ABD280;}
	.st462{fill:#CAE2A9;}
	.st463{fill:#EFF8E7;}
	.st464{fill:#FFF6C0;}
	.st465{fill:#FFEC97;}
	.st466{fill:#FFDC4B;}
	.st467{fill:#FFD945;}
	.st468{fill:#FFDD54;}
	.st469{fill:#FFE774;}
	.st470{fill:#FFF4BA;}
	.st471{fill:#FFE46C;}
	.st472{fill:#FFF9E2;}
	.st473{fill:#FDE2C1;}
	.st474{fill:#F9CA98;}
	.st475{fill:#F9C18A;}
	.st476{fill:#F5994E;}
	.st477{fill:#F49448;}
	.st478{fill:#F8A158;}
	.st479{fill:#F8B577;}
	.st480{fill:#FCDDBC;}
	.st481{fill:#F8B06F;}
	.st482{fill:#FFEFE2;}
	.st483{fill:#F8A7A4;}
	.st484{fill:#EF8262;}
	.st485{fill:#EC605A;}
	.st486{fill:#EB5B55;}
	.st487{fill:#EC6964;}
	.st488{fill:#F28783;}
	.st489{fill:#F9C4C1;}
	.st490{fill:#F2817A;}
	.st491{fill:#EB6449;}
	.st492{fill:#FCE7E7;}
	.st493{fill:#FFEA88;}
	.st494{fill:#FFEB87;}
	.st495{fill:#FDF2E3;}
	.st496{fill:#FDEFDD;}
	.st497{fill:#F9E1C4;}
	.st498{fill:#FADEB9;}
	.st499{fill:#FADDB7;}
	.st500{fill:#FAE0BF;}
	.st501{fill:#FBE9CF;}
	.st502{fill:#F9DAB8;}
	.st503{fill:#FDF5EB;}
	.st504{fill:#FBE6CB;}
	.st505{fill:#FFFBF7;}
	.st506{fill:#FBDFBE;}
	.st507{fill:#F7D8B5;}
	.st508{fill:#FBE8CF;}
	.st509{fill:#FBE3C8;}
	.st510{fill:#F9E8CF;}
	.st511{fill:#F8DBB7;}
	.st512{fill:#FADBB5;}
	.st513{fill:#F7D5AE;}
	.st514{fill:#FDE9D5;}
	.st515{fill:#FAE3C8;}
	.st516{fill:#F7D1A4;}
	.st517{fill:#F5CD9D;}
	.st518{fill:#F7D8B0;}
	.st519{fill:#F8D4A9;}
	.st520{fill:#F8D3A6;}
	.st521{fill:#F8D8AF;}
	.st522{fill:#F7CD9E;}
	.st523{fill:#F4C896;}
	.st524{fill:#FBE3C5;}
	.st525{fill:#F7DBB8;}
	.st526{fill:#F7D8B1;}
	.st527{fill:#F7D7B0;}
	.st528{fill:#F8CD9F;}
	.st529{fill:#F8CD9E;}
	.st530{fill:#F1BE84;}
	.st531{fill:#F8D0A3;}
	.st532{fill:#F1C38D;}
	.st533{fill:#F8D8B1;}
	.st534{fill:#FBE2C8;}
	.st535{fill:#F9EAD3;}
	.st536{fill:#F9D3AA;}
	.st537{fill:#F7C896;}
	.st538{fill:#F7C794;}
	.st539{fill:#F7CA9A;}
	.st540{fill:#F7D3AB;}
	.st541{fill:#F8D8B5;}
	.st542{fill:#F9E6CF;}
	.st543{fill:#F7C897;}
	.st544{fill:#F8D3AA;}
	.st545{fill:#F7CEA2;}
	.st546{fill:#F4CD9E;}
	.st547{fill:#F5D2A5;}
	.st548{fill:#FBE2C2;}
	.st549{fill:#F5D1A8;}
	.st550{fill:#F8D5AB;}
	.st551{fill:#F2C695;}
	.st552{fill:#F8D3A8;}
	.st553{fill:#F5C998;}
	.st554{fill:#F5C894;}
	.st555{fill:#F2C997;}
	.st556{fill:#F2C48D;}
	.st557{fill:#F4C694;}
	.st558{fill:#F5CE9D;}
	.st559{fill:#F4C594;}
	.st560{fill:#F5C995;}
	.st561{fill:#F4C48F;}
	.st562{fill:#F7D2A6;}
	.st563{fill:#F8DFBB;}
	.st564{fill:#FBE2C3;}
	.st565{fill:#F8CC9E;}
	.st566{fill:#FADFC1;}
	.st567{fill:#F9D8B5;}
	.st568{fill:#F4C997;}
	.st569{fill:#F9DDB8;}
	.st570{fill:#FDFCED;}
	.st571{fill:#FBF7D2;}
	.st572{fill:#F9F6CB;}
	.st573{fill:#F4EBA8;}
	.st574{fill:#F5E9A6;}
	.st575{fill:#F5EDAC;}
	.st576{fill:#F7F5C0;}
	.st577{fill:#FBFBE1;}
	.st578{fill:#F7F0BE;}
	.st579{fill:#FAF6CE;}
	.st580{fill:#FFFBF5;}
	.st581{fill:#BDDB97;}
	.st582{fill:#BBDC99;}
	.st583{fill:#BDDD99;}
	.st584{fill:#B0D484;}
	.st585{fill:#AFD484;}
	.st586{fill:#FFEA87;}
	.st587{fill:#D3E9BA;}
	.st588{fill:#E1EECE;}
	.st589{fill:#D3E8BB;}
	.st590{fill:#E3EECE;}
	.st591{opacity:0.9;}
	.st592{fill:#FFF8CD;}
	.st593{opacity:0.9;fill:#FFEE8A;}
	.st594{fill:#FFF19E;}
	.st595{fill:#FFF5B6;}
	.st596{fill:#FFFBE0;}
	.st597{fill:none;stroke:#FFF4B1;stroke-width:0;}
	.st598{fill:#FFFDF3;}
	.st599{fill:#FACEDD;}
	.st600{opacity:0.9;fill:#F38CAF;}
	.st601{fill:#F5A0BD;}
	.st602{fill:#F8B8CD;}
	.st603{fill:#FCE1EA;}
	.st604{fill:none;stroke:#F7B2C9;stroke-width:0;}
	.st605{fill:#FEF3F7;}
	.st606{fill:#FBDBB6;}
	.st607{fill:#FBD1A3;}
	.st608{fill:#F9B674;}
	.st609{fill:#F8B36E;}
	.st610{fill:#FABB7E;}
	.st611{fill:#FACB99;}
	.st612{fill:#FDE9D1;}
	.st613{fill:#FAC893;}
	.st614{fill:#F9D0A1;}
	.st615{fill:#FFF5EC;}
	.st616{fill:#D7ECC0;}
	.st617{fill:#B1D684;}
	.st618{fill:#ADD680;}
	.st619{fill:#B7D98D;}
	.st620{fill:#C8E2A7;}
	.st621{fill:#E8F2D6;}
	.st622{fill:#C3E0A0;}
	.st623{fill:#F5FAEF;}
	.st624{fill:#A87699;}
	.st625{fill:#A9716E;}
	.st626{fill:#9F698A;}
	.st627{fill:#9F698D;}
	.st628{fill:#65294F;}
	.st629{fill:#632638;}
	.st630{fill:#62244A;}
	.st631{fill:#612335;}
	.st632{fill:#6E3259;}
	.st633{fill:#6D2F40;}
	.st634{fill:#8B4E74;}
	.st635{fill:#C4A1BB;}
	.st636{fill:#9D688D;}
	.st637{fill:#82476E;}
	.st638{fill:#E7D6E1;}
	.st639{fill:#FFF9D6;}
	.st640{fill:#FFF2A6;}
	.st641{fill:#FFF4B0;}
	.st642{fill:#FFF7C4;}
	.st643{fill:#FFFCE6;}
	.st644{fill:#FFF3B5;}
	.st645{fill:#FFED8B;}
	.st646{fill:#FFED94;}
	.st647{fill:#FFF1A4;}
	.st648{fill:#FFF5BF;}
	.st649{fill:#FFF6CD;}
	.st650{fill:#FFE46E;}
	.st651{fill:#FFED98;}
	.st652{fill:#FFF3A9;}
	.st653{fill:#FFEC8D;}
	.st654{fill:#FFE66B;}
	.st655{fill:#FFEC8A;}
	.st656{fill:#FFE66D;}
	.st657{fill:#FFE571;}
	.st658{fill:#FFEF94;}
	.st659{fill:#FFEF9E;}
	.st660{fill:#FFED93;}
	.st661{fill:#FFE873;}
	.st662{fill:#FFE97A;}
	.st663{fill:#FFEC87;}
	.st664{fill:#FFF19F;}
	.st665{fill:#FFF1A8;}
	.st666{fill:#FFEA7E;}
	.st667{fill:#FFEB86;}
	.st668{fill:#FFEF97;}
	.st669{fill:#FFF2B0;}
	.st670{fill:#FFF4BC;}
	.st671{fill:#FFF5C1;}
	.st672{fill:#FFF8CF;}
	.st673{fill:#FFF8DC;}
	.st674{fill:#FFF0A0;}
	.st675{fill:#FFEE92;}
	.st676{fill:#FFF6CE;}
	.st677{fill:#FFFADD;}
	.st678{fill:#FFFBEC;}
	.st679{fill:#FFFDF5;}
	.st680{fill:#F49C52;}
	.st681{fill:#F69D52;}
	.st682{fill:#F8A55E;}
	.st683{fill:#F8B472;}
	.st684{fill:#F59D54;}
	.st685{fill:#F8A65F;}
	.st686{fill:#F8B474;}
	.st687{fill:#FDF3E9;}
	.st688{fill:#FAE8D1;}
	.st689{fill:#FAE8CF;}
	.st690{fill:#FAEBD4;}
	.st691{fill:#F9EDD7;}
	.st692{fill:#FBEFDE;}
	.st693{fill:#FBEFDD;}
	.st694{fill:#FDF8F1;}
	.st695{fill:#FBEDD7;}
	.st696{fill:#FBEFDC;}
	.st697{fill:#FFFBFA;}
	.st698{fill:#FFE771;}
	.st699{fill:#FFEB83;}
	.st700{fill:#FFED90;}
	.st701{fill:#F7B6CB;}
	.st702{fill:#F4A2BB;}
	.st703{fill:#EE7397;}
	.st704{fill:#ED6D94;}
	.st705{fill:#EF7C9F;}
	.st706{fill:#F399B5;}
	.st707{fill:#FAD1DE;}
	.st708{fill:#F291AE;}
	.st709{fill:#F3A1BB;}
	.st710{fill:#FDECF2;}
</style>
<g>
	<polyline class="st474" points="71.5,30.03 71.5,30.03 71.5,30.03 71.5,30.03 	"/>
	<path class="st474" d="M71.5,30.03L71.5,30.03l0.12,0.07c0.01,0.01,0.02,0.01,0.03,0.02c0.13,0.08,0.26,0.16,0.39,0.24L71.5,30.03
		 M71.5,30.03L71.5,30.03"/>
	<path class="st474" d="M71.5,30.03l-0.01,0.02l-0.03,0.05c-0.09,0.12-0.2,0.26-0.35,0.52c-0.17,0.61-0.56,1.79-0.56,3.04l0,0
		c0,0.09,0,0.17,0.01,0.26c0,0.01,0,0.01,0,0.02c0.01-0.01,0.02-0.01,0.03-0.02c1.86-1.07,3.33-1.28,4.31-1.41
		c0.24-0.03,0.46-0.05,0.65-0.06c-0.37-0.21-0.74-0.43-1.11-0.65c-0.79-0.45-1.58-0.93-2.37-1.42l-0.03-0.02
		c-0.13-0.08-0.26-0.16-0.39-0.25c-0.01-0.01-0.02-0.01-0.03-0.02L71.5,30.03"/>
	<path class="st474" d="M71.1,30.63c-0.05,0.08-0.1,0.18-0.15,0.29c-0.22,0.48-0.45,1.21-0.45,2.2c0,0.25,0.02,0.52,0.05,0.81
		c0-0.09-0.01-0.17-0.01-0.26l0,0l0,0l0,0l0,0l0,0l0,0l0,0l0,0l0,0l0,0l0,0l0,0l0,0l0,0C70.54,32.42,70.93,31.24,71.1,30.63"/>
	<path class="st474" d="M99.46,52.52c-0.25,0.91-0.45,1.83-0.59,2.77c-0.12,0.84-0.2,1.71-0.2,2.57c0,1.25,0.16,2.49,0.57,3.66
		c0.13,0.37,0.27,0.73,0.44,1.1c-0.26-1.31-0.33-2.81-0.33-4.36l0,0c0-0.88,0.02-1.79,0.04-2.68
		C99.41,54.57,99.44,53.55,99.46,52.52 M74.44,31.81c0.37,0.22,0.74,0.43,1.11,0.65c0,0,0,0,0,0c-0.34-0.2-0.69-0.4-1.03-0.6
		C74.5,31.84,74.47,31.83,74.44,31.81"/>
	<path class="st474" d="M67.58,93.33c-0.02,0-0.03-0.01-0.06-0.05c-0.36-0.08-0.54-0.49-0.68-1l0,0l0,0l0,0l0,0
		c0.01,0.01,0.03,0.03,0.04,0.04c0.27,0.29,0.54,0.61,0.78,0.92l0,0l0,0l0,0l0,0C67.63,93.3,67.61,93.33,67.58,93.33 M81.3,88.24
		L81.3,88.24L81.3,88.24l0,0.03l-0.01,0.04c0,0,0,0,0,0l0,0l0,0l0,0L81.3,88.24 M75.39,57.51c-2.83,2.11-6.03,4.08-10.19,5.48
		c-0.12,0.04-0.25,0.06-0.37,0.06c-0.3,0-0.59-0.11-0.86-0.28c0.29,0.21,0.63,0.35,0.97,0.35c0.12,0,0.25-0.02,0.37-0.06
		c0.83-0.28,1.62-0.58,2.38-0.91c0.7,3.18,1.33,6.1,1.47,8.57c0.06,0.86,0.09,1.68,0.09,2.46l0,0c0,2.25-0.27,4.2-0.94,6.11
		c-0.11,0.43-1.27,1.46-2.56,2.33c-1.29,0.88-2.74,1.8-3.45,2.13c-1.01,0.52-1.39,1.25-1.39,1.95c0,0.2,0.03,0.39,0.08,0.57
		c0.13,0.44,0.39,0.92,0.72,1.35c0.33,0.4,0.73,0.8,1.14,1.17c0.36,0.26,0.7,0.53,1.03,0.79l0,0l0,0l0,0l0,0
		c-0.95,0.19-1.93,0.72-2.78,1.33c-2.1,1.36-4.45,2.63-6.67,3.07c-0.55,0.11-1.09,0.17-1.62,0.17c-0.63,0-1.24-0.09-1.81-0.28
		c0.34,0.93,0.38,2.27,0.73,3.15c0.85,1.63,2.78,1.71,4.32,2.58c0.55,0.58,0.89,1.32,1.27,2.33c0.3,0.99,1.05,1.19,1.93,1.19
		c0.53,0,1.11-0.07,1.66-0.09c0.13-0.02,0.26-0.04,0.38-0.04c1.67,0,2.82,2.12,4.52,2.4c0.26,0.06,0.52,0.09,0.78,0.09
		c0.76,0,1.53-0.22,2.27-0.45c0.74-0.22,1.46-0.45,2.11-0.45c0.55,0,1.05,0.16,1.49,0.6c-0.11-0.12-0.16-0.22-0.16-0.29l0,0
		c0-0.14,0.18-0.2,0.49-0.2c0.57,0,1.55,0.21,2.52,0.46c1.41,0.38,2.79,0.87,2.79,1.14l0,0c0,0.06-0.06,0.1-0.2,0.13
		c0.09,0.03,0.19,0.24,0.27,0.51c0.13,0.35,0.24,0.82,0.25,1.19l0,0l0,0l0,0l0,0c-0.11,0.45-0.09,1.2-0.33,1.38
		c-1.68,1.42-1.99,4.28-2.88,6.46c0.02,0.07,0.35,0.2,0.86,0.39c0.28,0.1,0.48,0.2,0.99,0.34c0.49,0.14,1.12,0.31,1.96,0.46
		c0.83,0.15,1.87,0.3,3.18,0.32c0.09,0,0.19,0,0.29,0c1.24,0,2.74-0.13,4.37-0.54c1.75-0.43,3.63-1.21,5.23-2.19
		c1.63-0.98,2.89-2.05,3.84-2.86c2.95-2.48,4.56-4.58,5.78-5.93c0.3-0.35,0.56-0.64,0.8-0.89c0.21-0.2,0.42-0.42,0.6-0.65
		c0.37-0.46,0.69-0.98,0.92-1.57c0,0,0-0.01,0-0.01c0-0.66-1.02-1.25-1.07-1.86l0,0l0,0l0,0l0,0c0-0.02,0-0.05,0-0.09
		c0-0.45-0.29-1.8-0.82-3.48c-0.3-0.88-0.65-1.89-1.04-2.91c-0.42-0.98-0.86-2.01-1.3-3.05c-1.66-3.64-3.4-6.79-3.4-7.88l0,0
		c0-0.12,0.02-0.21,0.06-0.27c0.59-0.66,1.93-1.4,3.01-1.4c0.18,0,0.34,0.02,0.5,0.06c0.49,0.07,0.94,0.1,1.36,0.1
		c2.4,0,3.89-0.98,6.23-1.14c0.01,0,0.03,0,0.05,0c0.35,0,0.73,0.09,1.12,0.17c0.38,0.09,0.76,0.17,1.12,0.17c0.02,0,0.03,0,0.05,0
		c2.01-0.18,4.36-0.74,4.86-1.39c1.03-0.8,1.58-1.63,1.58-2.33c0-0.24-0.07-0.47-0.21-0.68l0,0l0,0l0,0l0.14-0.53l0.07-0.26
		l0.08-0.19l0.07-0.19l0,0c-0.63-0.44-1.41-0.86-2.33-1.28c-0.73-0.45-1.33-0.81-1.69-1.06c-0.26-0.17-0.41-0.3-0.41-0.37l0,0
		c0-0.03,0.03-0.05,0.1-0.06c0,0,0,0,0,0c0-0.05-0.94-0.53-2.09-1.24c-1.11-0.69-2.4-1.63-3.19-2.6c-0.06-0.01-0.5-0.1-1.3-0.21
		c0.2,0.22,0.49,0.54,0.85,0.93c0.62,0.7,1.52,1.61,2.12,2.34c0.61,0.67,0.99,1.22,0.99,1.64l0,0c0,0.06-0.01,0.13-0.03,0.18
		c-0.23,0.51-1.08,1.11-3.09,1.4l-0.12,0.07c-0.08,0.04-0.19,0.11-0.33,0.2c-0.3,0.19-0.72,0.45-1.22,0.77
		c-1.05,0.6-2.45,1.6-4.05,2.51c-2.21,1.34-4.74,2.64-7.01,2.64c-0.98,0-1.91-0.24-2.75-0.83c0,0-1.35-0.93-3.36-2.57
		c-2.01-1.65-4.66-4.03-7.1-7.25c-0.59-0.82-1.18-1.68-1.74-2.6c-0.55-0.93-1.04-1.89-1.49-3c-0.47-1.09-0.8-2.21-1.12-3.39
		c-0.15-0.59-0.3-1.19-0.42-1.79c-0.1-0.6-0.19-1.2-0.26-1.82C75.44,58.08,75.41,57.8,75.39,57.51"/>
	<path class="st474" d="M86.22,61.06c0.78,1.53,1.83,3.07,3.19,4.57c0,0,0.27,0.17,0.76,0.42c-0.09-0.09-0.18-0.18-0.27-0.27
		c-1.18-1.21-2.23-2.53-3.19-3.95C86.54,61.58,86.38,61.32,86.22,61.06"/>
	<path class="st474" d="M103.74,68.77c0.04,0.1,0.08,0.2,0.13,0.3c0.32-0.06,0.63-0.14,0.92-0.23
		C104.47,68.81,104.12,68.79,103.74,68.77 M106.06,65.75c0,0,0,0.01,0.01,0.01c0.01,0.01,0.01,0.02,0.02,0.03
		C106.08,65.78,106.07,65.76,106.06,65.75"/>
	<path class="st474" d="M48.67,92.23c0,0.02,0,0.05,0,0.07l0,0c0,0.12-0.01,0.24-0.02,0.36c0.04,0.02,0.09,0.03,0.14,0.05
		c0.15,0.06,0.31,0.12,0.46,0.15C49.05,92.67,48.86,92.46,48.67,92.23"/>
	<path class="st476" d="M80.69,32.32c-0.48,0-0.95,0.01-1.42,0.02c-0.78,0.02-1.57,0.05-2.38,0.07c-0.26,0.01-0.7,0-1.34,0.05
		c0.06,0.03,0.11,0.06,0.17,0.1c0.49-0.03,0.85-0.03,1.09-0.04c0.82-0.02,1.6-0.05,2.38-0.07c0.48-0.01,0.96-0.02,1.45-0.02
		c1.1,0,2.24,0.05,3.5,0.25c3.41,0.76,6.37-0.11,9.49,1.92c2.09,1.09,3.81,1.7,5.8,1.91c0.5,0.05,1.01,0.08,1.55,0.09
		c0.54,0.02,1.48,0.02,3.07,0.6c0.78,0.3,1.79,0.83,2.8,1.76c1.01,0.94,1.89,2.26,2.4,3.69c0.47,1.33,0.62,2.64,0.62,3.74l0,0
		c0,0.08,0,0.16,0,0.25c-0.02,1.16-0.17,2.1-0.33,2.94c-0.08,0.44-0.19,0.89-0.31,1.33c-0.06,0.21-0.13,0.43-0.19,0.66
		c-0.03,0.1-0.07,0.21-0.1,0.32l-0.05,0.24c-0.15,0.64-0.33,1.35-0.55,2.09c-0.42,1.47-0.95,3.06-1.41,4.54
		c-0.68,2.15-1.11,4.07-1.11,5.49c0,0.56,0.07,1.04,0.21,1.42c0.02,0.03,0.03,0.06,0.05,0.09c-0.15-0.39-0.22-0.88-0.22-1.44l0,0
		c0-1.41,0.43-3.31,1.1-5.43c0.45-1.48,0.98-3.06,1.41-4.53c0.21-0.74,0.4-1.44,0.55-2.09c0.05-0.27,0.2-0.72,0.32-1.16
		c0.12-0.44,0.23-0.87,0.32-1.31c0.16-0.82,0.32-1.74,0.37-2.86c0.01-0.17,0.01-0.35,0.01-0.54c0-1-0.11-2.15-0.48-3.36
		c-0.44-1.45-1.26-2.83-2.25-3.83c-1-1.03-2.03-1.61-2.86-1.97c-1.65-0.67-2.65-0.68-3.24-0.72c-0.54,0-1.06-0.03-1.55-0.09
		c-1.99-0.21-3.71-0.82-5.8-1.91c-3.12-2.05-6.09-1.17-9.5-1.94C82.96,32.37,81.81,32.32,80.69,32.32"/>
	<path class="st476" d="M70.55,33.95C70.55,33.95,70.55,33.95,70.55,33.95c0,0.04,0,0.09,0.01,0.13c0,0,0.01,0,0.01-0.01
		C70.56,34.03,70.55,33.99,70.55,33.95"/>
	<path class="st476" d="M70.55,33.95c-0.87,0.46-1.76,1.13-2.48,1.9c-0.74,0.77-1.31,1.62-1.71,2.38c-0.81,1.54-1.09,2.76-1.3,3.62
		l-0.23,1.11c-0.06,0.31-0.11,0.45-0.16,0.67c-0.1,0.4-0.19,0.81-0.26,1.21c-0.27,1.41-0.4,2.85-0.4,4.38c0,0.23,0,0.47,0.01,0.71
		c0.16,0.48,0.31,0.96,0.74,1.29c0.42,0.34,0.28,1.25,0.44,1.73l0,0l0,0l0,0l0,0c-0.58,2.51-2.34,4.94-2.34,7.4
		c0,0.37,0.04,0.74,0.13,1.11c0.09,0.45,0.49,1,0.99,1.32c-0.45-0.33-0.8-0.82-0.88-1.24c-0.09-0.37-0.13-0.74-0.13-1.11l0,0
		c0-2.46,1.75-4.89,2.34-7.39c-0.17-0.47-0.02-1.39-0.44-1.73c-0.42-0.34-0.58-0.81-0.74-1.29c-0.01-0.25-0.01-0.5-0.01-0.75l0,0
		c0-1.51,0.14-2.94,0.4-4.34c0.07-0.41,0.16-0.81,0.26-1.21l0.15-0.64l0.22-1.03c0.2-0.84,0.44-1.95,1.18-3.46
		c0.37-0.74,0.88-1.56,1.57-2.34c0.68-0.78,1.55-1.5,2.43-2.01c0.08-0.05,0.17-0.1,0.25-0.15C70.55,34.04,70.55,34,70.55,33.95"/>
	<path class="st476" d="M106.09,65.79c0.3,0.56,0.36,0.96,0.36,1.33l0,0c0,0.11-0.01,0.21-0.01,0.31c0,0.13-0.01,0.25-0.01,0.38
		c0,0.37,0.06,0.75,0.41,1.24c0.02,0.03,0.04,0.05,0.06,0.08c0.01,0,0.01,0,0.01,0c-0.35-0.51-0.42-0.9-0.42-1.28l0,0
		c0-0.21,0.02-0.42,0.02-0.64C106.51,66.82,106.44,66.38,106.09,65.79"/>
	<path class="st477" d="M80.64,32.42c-0.49,0-0.97,0.01-1.45,0.02c-0.78,0.02-1.57,0.05-2.38,0.07c-0.24,0.01-0.6,0.01-1.09,0.04
		c-0.06-0.03-0.11-0.06-0.17-0.1c0,0,0,0,0,0c1.45,0.85,2.87,1.67,4.24,2.47l0.01,0c1.58,0.92,3.16,1.84,4.74,2.76
		c2.13,0.65,3.58,1.36,3.83,1.88c0,0,1.55,0.67,3.96,1.53c1.21,0.43,2.63,0.91,4.2,1.39c0.78,0.24,1.61,0.48,2.46,0.71
		c0.85,0.23,1.73,0.41,2.24,0.95c0.3,0.3,0.42,0.74,0.41,1.23l0,0c0,0.38-0.08,0.79-0.2,1.19c-0.28,0.92-0.67,1.83-0.99,2.78
		c-0.37,1.03-0.72,2.09-1.01,3.18c-0.02,1.02-0.05,2.05-0.08,3.06c-0.02,0.9-0.04,1.8-0.04,2.68c0,1.55,0.07,3.05,0.33,4.36
		c0.73,1.59,1.85,3.14,3.41,4.59c0,0,0.3,0.66,0.63,1.48c0.01,0.02,0.02,0.05,0.03,0.07c0.38,0.01,0.73,0.04,1.05,0.07
		c0.19-0.06,0.37-0.14,0.54-0.22c0,0,0.1,0.11,0.28,0.31c0.79,0.1,1.23,0.19,1.3,0.21c-0.02-0.03-0.04-0.05-0.06-0.08
		c-0.35-0.48-0.41-0.87-0.41-1.24l0,0c0-0.13,0.01-0.25,0.01-0.38c0.01-0.1,0.01-0.21,0.01-0.31c0-0.37-0.07-0.77-0.36-1.33
		c-0.01-0.01-0.01-0.02-0.02-0.03c0,0,0-0.01-0.01-0.01c-0.02-0.03-0.03-0.06-0.05-0.09c-0.15-0.39-0.21-0.87-0.21-1.42l0,0
		c0-1.42,0.43-3.35,1.11-5.49c0.46-1.49,0.98-3.07,1.41-4.54c0.21-0.73,0.4-1.45,0.55-2.09l0.05-0.24c0.03-0.11,0.07-0.22,0.1-0.32
		c0.07-0.23,0.13-0.45,0.19-0.66c0.12-0.44,0.23-0.89,0.31-1.33c0.16-0.84,0.31-1.78,0.33-2.94c0-0.08,0-0.16,0-0.25
		c0-1.1-0.14-2.41-0.62-3.74c-0.5-1.44-1.38-2.75-2.4-3.69c-1-0.93-2.02-1.46-2.8-1.76c-1.58-0.58-2.52-0.58-3.07-0.6
		c-0.54,0-1.06-0.03-1.55-0.09c-1.99-0.21-3.7-0.82-5.8-1.91c-3.12-2.03-6.08-1.16-9.49-1.92C82.89,32.47,81.74,32.42,80.64,32.42"
		/>
	<path class="st477" d="M75.55,32.46c-0.2,0.01-0.42,0.03-0.65,0.06c-0.98,0.13-2.45,0.35-4.31,1.41c-0.01,0.01-0.02,0.01-0.03,0.02
		c0.01,0.04,0.01,0.08,0.02,0.13l0,0l0,0l0,0l0,0c0,0-0.01,0-0.01,0.01c0.04,0.52,0.16,1.05,0.4,1.54c0.01,0.02,0.02,0.04,0.03,0.06
		l0,0l0,0l0,0l0,0l0,0l0,0l0,0l0,0l0,0l0,0c0,0-0.09,0.26-0.28,0.72l0,0c-0.09,0.22-0.21,0.48-0.33,0.77l0,0l0,0
		c-0.14,0.31-0.3,0.63-0.46,0.97l0,0c-0.05,0.11-0.11,0.22-0.17,0.34c-0.12,0.23-0.25,0.48-0.37,0.7l0,0
		c-0.21,0.37-0.44,0.76-0.67,1.13c-0.45,0.72-0.86,1.25-1.16,1.39c0,0-0.93,1.16-1.59,3.49c-0.33,1.13-0.55,2.56-0.55,4.21l0,0.1
		c0.01,0.84,0.05,1.73,0.21,2.68l0,0c0.17,0.95,0.42,1.95,0.77,2.98l0,0l0,0l0,0l0,0c-0.35-1.03-0.6-2.03-0.77-2.98l0,0
		c-0.16-0.95-0.2-1.84-0.21-2.68l0-0.1l0,0l0,0l0,0l0,0l0,0c0-1.65,0.22-3.07,0.55-4.21c0.67-2.33,1.59-3.49,1.59-3.49
		c0.3-0.15,0.71-0.68,1.16-1.39c0.23-0.36,0.46-0.76,0.67-1.13l0,0c0.12-0.23,0.25-0.47,0.37-0.7c0.06-0.12,0.12-0.23,0.17-0.34l0,0
		c0.16-0.33,0.31-0.66,0.46-0.97l0,0l0,0c0.12-0.28,0.23-0.54,0.33-0.77l0,0c0.19-0.46,0.28-0.72,0.28-0.72
		c-0.01-0.02-0.02-0.04-0.03-0.06c-0.24-0.49-0.36-1.02-0.4-1.54c-0.08,0.05-0.17,0.1-0.25,0.15c-0.88,0.51-1.75,1.23-2.43,2.01
		c-0.69,0.78-1.2,1.6-1.57,2.34c-0.74,1.5-0.98,2.62-1.18,3.46l-0.22,1.03l-0.15,0.64c-0.1,0.4-0.19,0.8-0.26,1.21
		c-0.26,1.39-0.4,2.82-0.4,4.34c0,0.25,0,0.5,0.01,0.75c0.16,0.48,0.31,0.96,0.74,1.29c0.42,0.34,0.27,1.25,0.44,1.73l0,0l0,0l0,0
		l0,0c-0.58,2.5-2.34,4.93-2.34,7.39c0,0.37,0.04,0.74,0.13,1.11c0.09,0.42,0.43,0.91,0.88,1.24c0.27,0.17,0.56,0.28,0.86,0.28
		c0.13,0,0.25-0.02,0.37-0.06c4.16-1.4,7.35-3.37,10.19-5.48c-0.03-0.34-0.05-0.67-0.07-1.01c-0.01-0.18-0.01-0.37-0.01-0.55l0,0
		c0-0.43,0.02-0.87,0.04-1.3c0.01-0.21,0.02-0.43,0.04-0.64c-0.44,0.58-0.91,1.17-1.39,1.73c-1.09,1.26-2.24,2.32-3.13,2.32
		c-0.57,0-1.04-0.43-1.32-1.52c0,0-0.43-0.79-0.91-1.81c-0.48-1.02-1-2.26-1.22-3.11l0,0l0,0l0,0l0,0c0,0,0.15-1.52,0.48-3.79
		c0.16-1.14,0.38-2.46,0.64-3.89c0.07-0.41,0.15-0.83,0.22-1.26c0.1-0.56,0.23-1.26,0.58-2.15c0.32-0.87,0.97-2.02,2-2.9
		c1.04-0.89,2.21-1.31,3.07-1.47c0.54-0.1,1-0.13,1.39-0.13c0.24,0,0.46,0.01,0.65,0.02c0.5,0.04,0.82,0.1,1.23,0.15
		c0.31,0.04,0.61,0.09,0.92,0.14c0.05-0.17,0.1-0.33,0.13-0.46c0.2-0.58,0.4-0.93,0.8-0.97l0.16,0l0.09,0l0.02,0
		C78.42,34.13,77.01,33.3,75.55,32.46"/>
	<path class="st680" d="M65.41,49.4L65.41,49.4l0,0.1c0.01,0.84,0.05,1.73,0.21,2.68l0,0l0,0l0,0c-0.15-0.93-0.2-1.81-0.21-2.64
		c0-0.01,0-0.03,0-0.04L65.41,49.4 M69.38,39.19L69.38,39.19c-0.21,0.37-0.44,0.76-0.67,1.13c-0.01,0.02-0.03,0.04-0.04,0.07
		c-0.43,0.68-0.83,1.19-1.12,1.33l0,0c0,0-0.93,1.16-1.59,3.49c-0.33,1.13-0.55,2.56-0.55,4.21l0,0c0-1.65,0.22-3.07,0.55-4.21
		c0.67-2.33,1.59-3.49,1.59-3.49c0.3-0.15,0.71-0.68,1.16-1.39C68.94,39.95,69.18,39.55,69.38,39.19L69.38,39.19 M70.98,35.69
		c0,0-0.09,0.26-0.28,0.72l0,0l0,0C70.89,35.95,70.98,35.69,70.98,35.69L70.98,35.69 M70.95,35.63c0.01,0.02,0.02,0.04,0.03,0.06
		l0,0C70.97,35.67,70.96,35.65,70.95,35.63"/>
	<path class="st681" d="M67.55,41.7L67.55,41.7L67.55,41.7c0,0-0.93,1.16-1.59,3.49c-0.33,1.13-0.55,2.56-0.55,4.21l0,0
		c0-1.65,0.22-3.07,0.55-4.21C66.62,42.87,67.55,41.7,67.55,41.7L67.55,41.7L67.55,41.7 M69.38,39.19L69.38,39.19
		c-0.21,0.37-0.44,0.76-0.67,1.13c-0.01,0.02-0.03,0.04-0.04,0.07l0,0l0,0c0.01-0.02,0.03-0.04,0.04-0.07
		C68.94,39.95,69.18,39.55,69.38,39.19L69.38,39.19"/>
	<polyline class="st477" points="100.16,45.01 100.16,45.01 100.16,45.01 100.16,45.01 100.16,45.01 	"/>
	<path class="st478" d="M75.79,36.04c-0.39,0-0.84,0.03-1.39,0.13c-0.86,0.16-2.03,0.57-3.07,1.47c-1.03,0.88-1.68,2.03-2,2.9
		c-0.34,0.89-0.47,1.59-0.58,2.15c-0.07,0.42-0.15,0.84-0.22,1.26c-0.26,1.42-0.47,2.75-0.64,3.89c-0.33,2.28-0.48,3.79-0.48,3.79
		c0.22,0.85,0.74,2.09,1.22,3.11c0.48,1.02,0.91,1.81,0.91,1.81c0.28,1.09,0.75,1.52,1.32,1.52c0.89,0,2.04-1.06,3.13-2.32
		c0.48-0.56,0.95-1.16,1.39-1.73c0.07-1.03,0.19-2.06,0.42-3.06c0.26-1.21,0.63-2.39,1.1-3.53c0.24-0.56,0.5-1.13,0.77-1.66
		l0.39-0.72c0.13-0.23,0.25-0.45,0.37-0.65c0,0,0.25-0.34,0.35-1.22c0.02-0.2,0.03-0.43,0.03-0.68c0-0.86-0.15-2.07-0.7-3.61l0,0
		l0,0l0,0l0,0c0,0,0.01-0.11,0.04-0.31c0.02-0.19,0.06-0.45,0.13-0.77c0.05-0.3,0.11-0.63,0.2-0.98c0.02-0.15,0.07-0.31,0.11-0.46
		c-0.3-0.05-0.61-0.09-0.92-0.14c-0.41-0.05-0.73-0.11-1.23-0.15C76.24,36.05,76.03,36.04,75.79,36.04"/>
	<path class="st478" d="M84.54,37.68c2.62,1.52,5.23,3.04,7.84,4.56l0.11,0.06c0.51,0.28,0.91,0.51,1.19,0.66
		c0.01,0.01,0.03,0.01,0.04,0.02c0.24,0.13,0.37,0.19,0.37,0.19c0.04,0.02,0.08,0.04,0.12,0.06c0.02,0.01,0.04,0.02,0.06,0.03
		c0.39,0.2,0.74,0.37,1.06,0.52c0.21,0.1,0.41,0.19,0.61,0.28c0.16,0.07,0.31,0.14,0.46,0.2c0,0,0,0,0,0c0.01,0,0.01,0,0.02,0.01
		c0,0,0,0,0.01,0c0.03,0.01,0.06,0.03,0.09,0.04c0,0,0.01,0,0.01,0c0,0,0.01,0,0.01,0.01c0.35,0.14,0.67,0.25,0.96,0.35
		c0.64,0.2,1.19,0.33,1.63,0.38c0.04,0,0.08,0.01,0.12,0.01c0.09,0.01,0.2,0.01,0.31,0.01c0.01,0,0.01,0,0.02,0
		c0.01,0,0.03,0,0.04,0c0.06,0,0.12,0,0.18-0.01c0.02,0,0.03,0,0.05-0.01c0,0,0.01,0,0.01,0c0,0,0,0,0,0c0,0,0.01,0,0.01,0
		l0.13-0.02c0.02,0,0.04-0.01,0.06-0.01l0.07-0.02l0.01,0c0.02-0.02,0.03-0.02,0.04-0.02c0,0,0,0,0,0l0,0c0,0-0.01,0.01-0.02,0.01
		c0,0,0,0,0,0c0,0,0,0,0,0l0,0c0,0,0,0,0,0c0,0,0,0-0.01,0c0,0,0,0,0,0c0.01,0,0.01,0,0.01,0l0,0l0,0l0,0l0,0l0,0l0,0l0,0l0,0l0,0
		l0,0c0,0,0,0-0.01,0c-0.01,0-0.01,0.01-0.02,0.02c-0.03,0.03-0.08,0.07-0.14,0.14c-0.12,0.14-0.3,0.38-0.53,0.78
		c-0.01,0.02-0.02,0.04-0.03,0.05l0,0c-0.09,0.16-0.19,0.35-0.29,0.57c-0.03,0.07-0.06,0.14-0.09,0.21
		c-0.03,0.06-0.05,0.13-0.09,0.2c-0.06,0.14-0.12,0.29-0.18,0.45c-0.01,0.03-0.02,0.05-0.03,0.08c0,0.01-0.01,0.02-0.01,0.03
		c-0.01,0.02-0.02,0.04-0.02,0.06c-0.04,0.1-0.08,0.21-0.12,0.32c-0.01,0.03-0.03,0.07-0.04,0.11c-0.06,0.18-0.13,0.38-0.23,0.64
		c-0.11,0.34-0.25,0.75-0.42,1.3c-0.07,0.23-0.15,0.48-0.23,0.75l-0.34,1.15c-0.05,0.17-0.1,0.34-0.15,0.52l0,0
		c-0.13,0.46-0.26,0.92-0.38,1.38c-0.2,0.74-0.4,1.48-0.61,2.23c-0.02,0.09-0.05,0.17-0.07,0.26c-0.41,1.54-0.82,3.09-1.23,4.65
		c-0.12,0.46-0.24,0.93-0.36,1.39l0,0l0,0.01c-0.15,0.58-0.3,1.16-0.45,1.74l-0.22,0.89l-0.06,0.22c-0.21,0.82-0.4,1.57-0.58,2.27
		c0.77,0.29,1.62,0.58,2.5,0.82c2.07,0.58,4.31,0.97,6.25,0.97c0.67,0,1.31-0.05,1.89-0.15c-0.05-0.1-0.09-0.2-0.13-0.3
		c-0.01-0.02-0.02-0.05-0.03-0.07c-0.33-0.82-0.63-1.48-0.63-1.48c-1.56-1.46-2.68-3-3.41-4.59c-0.17-0.36-0.31-0.73-0.44-1.1
		c-0.41-1.17-0.56-2.42-0.57-3.66l0,0c0-0.87,0.08-1.73,0.2-2.57c0.14-0.94,0.35-1.87,0.59-2.77c0.29-1.09,0.65-2.15,1.01-3.18
		c0.32-0.95,0.71-1.86,0.99-2.78c0.12-0.4,0.2-0.81,0.2-1.19c0-0.49-0.12-0.93-0.41-1.23c-0.51-0.54-1.39-0.72-2.24-0.95
		c-0.85-0.23-1.67-0.47-2.46-0.71c-1.57-0.48-2.99-0.96-4.2-1.39c-2.42-0.85-3.96-1.53-3.96-1.53
		C88.12,39.05,86.68,38.33,84.54,37.68"/>
	<path class="st478" d="M92.06,42.06l-0.03,0.05l-0.07,0.11l-0.15,0.2c-0.18,0.26-0.44,0.5-0.67,0.67
		c-0.39,0.28-0.81,0.44-1.26,0.44c-0.13,0-0.27-0.01-0.4-0.04c0,0-0.53,0.16-1.22,0.68c-0.7,0.54-1.61,1.46-2.4,3.13
		c-0.41,0.86-0.76,1.86-1.03,3.13c-0.25,1.04-0.41,2.2-0.41,3.44c0,0.35,0.01,0.7,0.04,1.06c0.13,1.9,0.68,4,1.77,6.13
		c0.16,0.26,0.32,0.52,0.49,0.77c0.96,1.42,2.01,2.75,3.19,3.95c0.09,0.09,0.18,0.18,0.27,0.27c0.29,0.15,0.66,0.34,1.09,0.54
		c0.56,0.26,1.22,0.54,1.95,0.82c0.18-0.7,0.37-1.45,0.58-2.27l0.06-0.22l0.22-0.89c0.15-0.58,0.3-1.16,0.45-1.74l0,0.01l0,0
		l0.01-0.03l-0.01-0.03l-0.06-0.09l-0.27-0.35c-1.29-1.7-3.09-3.27-4.52-3.27c-0.16,0-0.31,0.02-0.46,0.06c0,0-0.42-1.05-1.1-1.89
		c-0.43-0.53-0.97-0.98-1.53-1.04c-0.64,0.22-1.01,0.36-1.01,0.36l0,0l0,0l0,0l0,0c0.29-0.26,0.59-0.37,0.88-0.37
		c0.04,0,0.09,0,0.13,0.01c0.44-0.15,1-0.33,1.67-0.52c1.64-0.47,3.9-0.98,6.25-1.18c0.59-0.05,1.18-0.09,1.76-0.1l0.44-0.01
		l0.09-0.03l0-0.01l0,0l0.09-0.32l0.07-0.25c0.33-1.2,0.6-2.11,0.82-2.83c0.08-0.28,0.17-0.56,0.26-0.84
		c0.21-0.67,0.39-1.18,0.54-1.61c0.02-0.05,0.04-0.1,0.06-0.15c0-0.01,0.01-0.03,0.01-0.04c0.18-0.48,0.34-0.86,0.48-1.17
		c0.15-0.34,0.3-0.6,0.42-0.81c0.16-0.27,0.29-0.45,0.4-0.57c0.02-0.03,0.04-0.05,0.06-0.07c0.06-0.07,0.11-0.11,0.14-0.14
		c-0.05,0.02-0.14,0.05-0.27,0.05c-0.05,0.01-0.11,0.01-0.16,0.01c-0.04,0-0.09,0-0.13,0c-0.12,0-0.25-0.01-0.4-0.02
		c-0.01,0-0.01,0-0.01,0c-0.08-0.01-0.14-0.02-0.16-0.02c-0.49-0.07-1.08-0.21-1.78-0.45c-0.26-0.09-0.53-0.19-0.81-0.31
		c-0.58-0.24-1.22-0.53-1.94-0.9c-0.08-0.04-0.16-0.08-0.24-0.12c-0.42-0.22-0.88-0.46-1.39-0.75l-0.02-0.01
		c-0.06-0.03-0.12-0.07-0.18-0.1L92.06,42.06"/>
	<path class="st682" d="M97.22,44.59L97.22,44.59c0.7,0.25,1.29,0.39,1.78,0.45l0,0l0,0C98.51,44.98,97.93,44.84,97.22,44.59
		L97.22,44.59 M94.47,43.39c0.72,0.37,1.36,0.66,1.94,0.9l0,0l0,0C95.83,44.05,95.19,43.75,94.47,43.39L94.47,43.39 M94.24,43.26
		L94.24,43.26c0.08,0.04,0.16,0.08,0.24,0.12l0,0c-0.06-0.03-0.13-0.07-0.2-0.1C94.26,43.28,94.25,43.27,94.24,43.26L94.24,43.26"/>
	<path class="st478" d="M92.5,42.31l0.33,0.19c0.3,0.17,0.59,0.33,0.86,0.48C93.41,42.82,93.01,42.59,92.5,42.31"/>
	<path class="st682" d="M92.5,42.31L92.5,42.31c0.51,0.28,0.91,0.51,1.19,0.66l0,0c-0.01,0-0.01-0.01-0.02-0.01
		C93.39,42.81,93,42.59,92.5,42.31"/>
	<path class="st478" d="M93.72,42.99c0.17,0.09,0.33,0.18,0.49,0.26c-0.04-0.02-0.08-0.04-0.12-0.06
		C94.09,43.19,93.97,43.12,93.72,42.99"/>
	<path class="st478" d="M94.24,43.26c0.08,0.04,0.16,0.08,0.24,0.12c0.7,0.36,1.34,0.65,1.91,0.89c-0.21-0.09-0.42-0.18-0.65-0.28
		c-0.13-0.06-0.26-0.12-0.4-0.19c-0.33-0.16-0.68-0.33-1.06-0.52C94.26,43.27,94.25,43.27,94.24,43.26"/>
	<path class="st478" d="M96.38,44.27c0.01,0,0.02,0.01,0.02,0.01c0,0,0,0,0,0C96.39,44.28,96.39,44.28,96.38,44.27"/>
	<path class="st478" d="M97.24,44.6c0.7,0.24,1.28,0.38,1.76,0.45c-0.01,0-0.01,0-0.01,0l0,0c0,0,0,0,0,0c0,0,0,0,0,0
		c-0.38-0.05-0.87-0.16-1.49-0.36C97.41,44.66,97.33,44.63,97.24,44.6"/>
	<path class="st478" d="M100.15,45.01L100.15,45.01l-0.08,0.02C100.1,45.03,100.12,45.02,100.15,45.01
		C100.14,45.02,100.14,45.02,100.15,45.01"/>
	<path class="st478" d="M100.12,45.04c-0.03,0.02-0.07,0.06-0.12,0.12c0,0-0.01,0.01-0.01,0.01
		C100.04,45.11,100.09,45.07,100.12,45.04"/>
	<path class="st478" d="M100.01,45.05l-0.13,0.02c0,0-0.01,0-0.01,0c0,0,0,0,0,0c0,0,0,0,0.01,0
		C99.92,45.07,99.96,45.06,100.01,45.05C100,45.05,100,45.05,100.01,45.05"/>
	<path class="st478" d="M99.13,45.06c0.01,0,0.03,0,0.04,0c0.02,0,0.05,0,0.08,0.01C99.21,45.07,99.17,45.07,99.13,45.06"/>
	<path class="st478" d="M99.81,45.08c-0.06,0.01-0.12,0.01-0.18,0.01c0.01,0,0.02,0,0.03,0c0.02,0,0.04,0,0.06,0
		C99.74,45.09,99.78,45.08,99.81,45.08"/>
	<path class="st478" d="M99.93,45.23c-0.1,0.12-0.24,0.3-0.39,0.56c0.15-0.25,0.28-0.42,0.37-0.53
		C99.91,45.25,99.92,45.24,99.93,45.23"/>
	<path class="st478" d="M99.45,45.95C99.45,45.95,99.44,45.95,99.45,45.95c-0.1,0.18-0.2,0.37-0.31,0.61
		c0.1-0.21,0.19-0.39,0.28-0.55l0,0C99.43,45.98,99.44,45.97,99.45,45.95"/>
	<path class="st478" d="M99.11,46.63c-0.14,0.31-0.3,0.68-0.47,1.15c0,0.01-0.01,0.03-0.01,0.04c0.03-0.07,0.05-0.14,0.08-0.21
		c0.01-0.03,0.02-0.06,0.04-0.09c0.07-0.19,0.15-0.37,0.22-0.53c0.03-0.07,0.06-0.13,0.09-0.2c0,0,0-0.01,0-0.01
		C99.06,46.72,99.08,46.67,99.11,46.63"/>
	<path class="st682" d="M99.11,46.63c-0.14,0.29-0.28,0.65-0.45,1.1c-0.01,0.02-0.01,0.04-0.02,0.06c0,0.01-0.01,0.03-0.01,0.04l0,0
		c0-0.01,0.01-0.03,0.01-0.04C98.81,47.31,98.96,46.93,99.11,46.63L99.11,46.63"/>
	<path class="st478" d="M98.58,47.93c-0.01,0.01-0.01,0.03-0.02,0.04c-0.01,0.02-0.02,0.04-0.02,0.06
		C98.55,48,98.57,47.96,98.58,47.93"/>
	<path class="st478" d="M98.02,49.58c-0.09,0.28-0.18,0.56-0.26,0.84c0.05-0.16,0.1-0.31,0.14-0.45
		C97.94,49.83,97.98,49.7,98.02,49.58"/>
	<path class="st478" d="M97.32,51.9l-0.15,0.5l-0.24,0.85c-0.01,0.04-0.02,0.07-0.03,0.11c-0.04,0.14-0.07,0.27-0.11,0.41
		c0.13-0.46,0.26-0.92,0.38-1.38l0,0C97.23,52.22,97.28,52.06,97.32,51.9"/>
	<path class="st478" d="M96.19,56C96.19,56,96.19,56,96.19,56c-0.02,0.07-0.03,0.12-0.05,0.18C96.16,56.12,96.17,56.06,96.19,56"/>
	<path class="st478" d="M94.89,60.9c-0.03,0.11-0.06,0.21-0.08,0.32l-0.2,0.76l-0.08,0.3l0,0C94.65,61.83,94.77,61.37,94.89,60.9"/>
	<path class="st479" d="M79.68,34.92l-0.16,0c-0.4,0.04-0.6,0.39-0.8,0.97c-0.04,0.13-0.09,0.3-0.13,0.46
		c-0.04,0.16-0.08,0.32-0.11,0.46c-0.09,0.35-0.15,0.68-0.2,0.98c-0.07,0.32-0.11,0.58-0.13,0.77c-0.03,0.2-0.04,0.31-0.04,0.31
		c0.55,1.55,0.7,2.75,0.7,3.61l0,0c0,0.26-0.01,0.49-0.03,0.68c-0.1,0.88-0.35,1.22-0.35,1.22c-0.12,0.2-0.25,0.42-0.37,0.65
		l-0.39,0.72c-0.27,0.53-0.53,1.1-0.77,1.66c-0.47,1.14-0.84,2.32-1.1,3.53c-0.23,1-0.35,2.03-0.42,3.06
		c-0.01,0.21-0.03,0.43-0.04,0.64c-0.02,0.44-0.04,0.87-0.04,1.3c0,0.18,0,0.37,0.01,0.55c0.04,0.63,0.09,1.25,0.16,1.86
		c0.07,0.61,0.15,1.22,0.26,1.82c0.11,0.6,0.26,1.2,0.42,1.79c0.32,1.18,0.65,2.29,1.12,3.39c0.45,1.1,0.94,2.06,1.49,3
		c0.56,0.92,1.15,1.78,1.74,2.6c2.43,3.22,5.09,5.6,7.1,7.25c2.01,1.65,3.36,2.57,3.36,2.57c0.83,0.59,1.76,0.83,2.75,0.83
		c2.27,0,4.8-1.3,7.01-2.64c1.6-0.91,3-1.92,4.05-2.51c0.5-0.31,0.92-0.58,1.22-0.77c0.14-0.09,0.25-0.16,0.33-0.2l0.12-0.07
		c2.01-0.29,2.87-0.89,3.09-1.4c0.02-0.06,0.03-0.12,0.03-0.18c0-0.42-0.38-0.97-0.99-1.64c-0.6-0.73-1.5-1.63-2.12-2.34
		c-0.36-0.4-0.65-0.72-0.85-0.93c-0.18-0.2-0.28-0.31-0.28-0.31c-0.17,0.08-0.35,0.15-0.54,0.22c-0.29,0.1-0.59,0.17-0.92,0.23
		c-0.58,0.1-1.22,0.15-1.89,0.15c-1.94,0-4.18-0.4-6.25-0.97c-0.88-0.25-1.73-0.53-2.5-0.82c-1.55,6.03-1.95,7.57-1.95,7.57l0,0l0,0
		l0,0l0,0l0,0l0,0l0.4-1.54c-0.03,0.12-0.09,0.34-0.18,0.71l0,0l0,0l0,0l-0.01-0.02l-0.06-0.08c-0.01-0.01-0.01-0.02-0.02-0.02
		c-0.07-0.09-0.14-0.19-0.21-0.28l0,0l0,0c-0.15-0.2-0.28-0.38-0.4-0.53l0,0c-0.24-0.32-0.39-0.52-0.39-0.52
		c-1.03-2.66-2.66-3.46-4.05-3.46l0,0c-0.24,0-0.47,0.02-0.7,0.07c-0.03,0.01-0.06,0.01-0.09,0.02c-1.48,0.31-2.46,1.35-2.46,1.35
		l0,0l0,0l0,0l0,0c0,0,0.99-1.04,2.46-1.35c0.03-0.01,0.06-0.01,0.09-0.02c0.22-0.04,0.45-0.07,0.7-0.07l0,0
		c1.39,0,3.01,0.8,4.05,3.46c0,0,0.15,0.2,0.39,0.52l0,0c0.12,0.15,0.25,0.34,0.4,0.53l0,0l0,0c0.07,0.09,0.14,0.18,0.21,0.28
		c0.01,0.01,0.01,0.02,0.02,0.02l0.06,0.08l0.01,0.02l0,0l0,0l0,0c0.11-0.45,0.18-0.68,0.2-0.77l0.01-0.05v0l0,0l0,0l0,0l0,0l0,0
		l0,0c0,0-0.01,0.03-0.03,0.11l-0.4,1.54c0,0,0.4-1.54,1.95-7.57c-0.73-0.28-1.39-0.56-1.95-0.82c-0.43-0.2-0.8-0.39-1.09-0.54
		c-0.48-0.26-0.76-0.42-0.76-0.42c-1.37-1.5-2.42-3.05-3.19-4.57c-1.09-2.13-1.64-4.23-1.77-6.13c-0.03-0.36-0.04-0.71-0.04-1.06
		l0,0c0-1.24,0.17-2.4,0.41-3.44c0.27-1.27,0.62-2.27,1.03-3.13c0.8-1.67,1.7-2.6,2.4-3.13c0.69-0.52,1.22-0.68,1.22-0.68
		c0.14,0.03,0.27,0.04,0.4,0.04c0.45,0,0.87-0.16,1.26-0.44c0.23-0.17,0.48-0.41,0.67-0.67l0.15-0.2l0.07-0.11l0.03-0.05l0.58,0.34
		c0.06,0.03,0.12,0.07,0.18,0.1l-0.33-0.19c-0.01-0.01-0.03-0.01-0.04-0.02c-0.16-0.09-0.33-0.19-0.49-0.29
		c-3.56-2.07-7.64-4.44-12.17-7.08l-0.02,0L79.68,34.92"/>
	<path class="st683" d="M91.39,74.04c0.01,0.01,0.01,0.02,0.02,0.02l0.06,0.08l0.01,0.02l0,0l0,0l0,0l0,0l0,0l0,0l-0.01-0.02
		l-0.06-0.08l0,0C91.4,74.05,91.39,74.04,91.39,74.04L91.39,74.04 M91.69,73.34L91.69,73.34c0,0-0.01,0.03-0.03,0.11l0,0l0,0
		l-0.4,1.54l0,0l0.4-1.54C91.69,73.37,91.69,73.34,91.69,73.34 M86.34,69.25c-0.01,0-0.02,0-0.02,0c-0.23,0-0.46,0.03-0.67,0.07l0,0
		c-0.03,0.01-0.06,0.01-0.09,0.02c0.03-0.01,0.06-0.01,0.09-0.02C85.87,69.27,86.1,69.25,86.34,69.25 M86.34,69.25L86.34,69.25
		L86.34,69.25c1.39,0,3.01,0.8,4.05,3.46c0,0,0.15,0.2,0.39,0.52l0,0l0,0c-0.24-0.32-0.39-0.52-0.39-0.52l0,0
		c-1-2.57-2.56-3.41-3.91-3.46C86.43,69.25,86.39,69.25,86.34,69.25 M93.22,67.43c-1.55,6.03-1.95,7.57-1.95,7.57l0,0
		C91.27,74.99,91.67,73.46,93.22,67.43L93.22,67.43L93.22,67.43 M91.97,42c0.17,0.1,0.33,0.19,0.49,0.29
		c0.01,0.01,0.03,0.01,0.04,0.02l0,0c-0.01-0.01-0.03-0.01-0.04-0.02l0,0C92.3,42.19,92.13,42.1,91.97,42 M79.79,34.92L79.79,34.92
		c4.54,2.64,8.61,5.01,12.17,7.08l0,0C88.4,39.93,84.33,37.56,79.79,34.92L79.79,34.92"/>
	<path class="st479" d="M79.79,34.92c4.54,2.64,8.61,5.01,12.17,7.08c0.17,0.1,0.33,0.19,0.49,0.29c0.01,0.01,0.03,0.01,0.04,0.02
		l-0.11-0.06c-2.61-1.52-5.23-3.04-7.84-4.56C82.96,36.76,81.38,35.84,79.79,34.92L79.79,34.92"/>
	<path class="st479" d="M92.82,42.5l0.02,0.01c0.51,0.29,0.97,0.54,1.39,0.75c-0.01,0-0.02-0.01-0.02-0.01
		c-0.16-0.08-0.32-0.17-0.49-0.26c-0.01,0-0.02-0.01-0.03-0.01c0,0-0.01,0-0.01-0.01C93.41,42.83,93.13,42.67,92.82,42.5"/>
	<path class="st479" d="M93.69,42.97c0,0,0.01,0,0.01,0.01c0.01,0,0.02,0.01,0.03,0.01C93.71,42.99,93.7,42.98,93.69,42.97"/>
	<path class="st479" d="M94.21,43.25c0.01,0,0.02,0.01,0.02,0.01c0.01,0.01,0.02,0.01,0.03,0.02
		C94.25,43.27,94.23,43.26,94.21,43.25"/>
	<path class="st479" d="M94.27,43.28c0.38,0.19,0.73,0.37,1.06,0.52C95.01,43.65,94.65,43.48,94.27,43.28"/>
	<path class="st479" d="M95.33,43.8c0.14,0.07,0.27,0.13,0.4,0.19c0.23,0.1,0.45,0.2,0.65,0.28h0c0.01,0,0.02,0.01,0.02,0.01
		c-0.15-0.06-0.31-0.13-0.46-0.2C95.74,43.99,95.54,43.9,95.33,43.8"/>
	<path class="st479" d="M96.41,44.28c0.28,0.12,0.55,0.22,0.81,0.31C96.97,44.5,96.7,44.4,96.41,44.28 M96.4,44.28
		C96.4,44.28,96.4,44.28,96.4,44.28C96.4,44.28,96.41,44.28,96.4,44.28C96.4,44.28,96.4,44.28,96.4,44.28"/>
	<polyline class="st479" points="96.42,44.29 96.43,44.29 96.42,44.29 	"/>
	<polyline class="st479" points="96.52,44.33 96.53,44.33 96.52,44.33 	"/>
	<path class="st479" d="M96.54,44.34c0.24,0.1,0.47,0.18,0.69,0.26c0.09,0.03,0.18,0.06,0.26,0.09
		C97.21,44.59,96.89,44.48,96.54,44.34"/>
	<path class="st479" d="M97.5,44.69c0.63,0.2,1.12,0.31,1.49,0.36l0,0l0,0l0,0l0,0c0,0,0,0,0,0c0,0,0,0,0,0c0,0,0,0,0.01,0
		c0,0,0.01,0,0.01,0l0,0c0.04,0,0.08,0.01,0.12,0.01C98.69,45.01,98.14,44.89,97.5,44.69"/>
	<path class="st479" d="M100.18,44.99c0,0-0.02,0.01-0.04,0.02l0.01-0.01c0,0,0,0,0,0l0,0c0,0,0,0,0,0l0,0c0,0,0,0,0,0l0,0
		c0,0,0,0,0,0l0,0c0,0,0,0,0,0l0,0l0,0l0,0l0,0l0,0l0,0l0,0l0,0l0,0l0,0l0,0l0,0l0,0c-0.01,0-0.02,0.01-0.03,0.02
		c0.01-0.01,0.02-0.01,0.02-0.02c0.01,0,0.01,0,0.01,0c0,0,0,0-0.01,0l0,0l0,0l0,0l0,0c0,0,0,0,0,0c0,0,0,0,0.01,0
		C100.17,45,100.18,45,100.18,44.99C100.18,44.99,100.18,44.99,100.18,44.99"/>
	<path class="st479" d="M100.16,45.01L100.16,45.01L100.16,45.01 M100.16,45.01L100.16,45.01L100.16,45.01 M100.16,45.01
		L100.16,45.01L100.16,45.01 M100.16,45C100.16,45,100.16,45.01,100.16,45L100.16,45C100.16,45.01,100.16,45.01,100.16,45L100.16,45
		C100.16,45.01,100.16,45.01,100.16,45L100.16,45C100.16,45.01,100.16,45.01,100.16,45L100.16,45
		C100.16,45.01,100.16,45.01,100.16,45L100.16,45L100.16,45"/>
	<path class="st479" d="M100.16,45.01l-0.01,0.01c0,0,0,0-0.01,0c-0.02,0-0.04,0.01-0.08,0.02l-0.03,0.01l-0.03,0.01c0,0,0,0-0.01,0
		c-0.04,0.01-0.08,0.02-0.13,0.02c0.13,0,0.22-0.03,0.27-0.05l0,0l0,0l0,0l0,0c-0.03,0.02-0.08,0.07-0.14,0.14
		c0.05-0.06,0.1-0.09,0.12-0.12C100.14,45.02,100.15,45.01,100.16,45.01"/>
	<path class="st479" d="M100.06,45.04c-0.02,0-0.04,0.01-0.06,0.01l0.03-0.01L100.06,45.04"/>
	<path class="st479" d="M99,45.05c0.02,0,0.08,0.01,0.16,0.02c0,0,0.01,0,0.01,0c-0.01,0-0.03,0-0.04,0c-0.04,0-0.08-0.01-0.12-0.01
		l0,0C99.01,45.05,99.01,45.05,99,45.05"/>
	<path class="st479" d="M99.17,45.07c0.15,0.02,0.28,0.02,0.4,0.02c0.05,0,0.09,0,0.13,0c-0.02,0-0.04,0-0.06,0
		c-0.01,0-0.02,0-0.03,0c-0.02,0-0.03,0-0.05,0l0,0c-0.11,0-0.22-0.01-0.32-0.01C99.23,45.07,99.2,45.07,99.17,45.07"/>
	<path class="st479" d="M99.87,45.07C99.87,45.07,99.86,45.07,99.87,45.07c-0.02,0-0.04,0-0.06,0.01c-0.03,0-0.07,0.01-0.1,0.01
		C99.76,45.09,99.82,45.08,99.87,45.07"/>
	<path class="st479" d="M99.86,45.07C99.86,45.07,99.86,45.07,99.86,45.07c-0.02,0-0.04,0-0.06,0.01
		C99.83,45.08,99.84,45.08,99.86,45.07"/>
	<path class="st479" d="M99.25,45.07c0.11,0.01,0.22,0.01,0.32,0.01l0,0c0.02,0,0.03,0,0.05,0c-0.01,0-0.03,0-0.04,0
		c-0.01,0-0.01,0-0.02,0C99.45,45.09,99.34,45.08,99.25,45.07"/>
	<path class="st479" d="M100,45.16c-0.02,0.02-0.04,0.04-0.06,0.07c0.02-0.02,0.04-0.04,0.05-0.06
		C99.99,45.17,99.99,45.16,100,45.16"/>
	<path class="st479" d="M99.98,45.17c-0.02,0.02-0.04,0.04-0.05,0.06c-0.01,0.01-0.02,0.02-0.02,0.03
		c-0.09,0.12-0.22,0.28-0.37,0.53c-0.03,0.05-0.06,0.1-0.09,0.15C99.68,45.55,99.86,45.31,99.98,45.17"/>
	<path class="st479" d="M99.53,45.8c-0.12,0.21-0.27,0.47-0.42,0.81c0.01-0.02,0.02-0.04,0.03-0.06c0.11-0.23,0.21-0.42,0.3-0.6
		c0,0,0-0.01,0.01-0.01C99.48,45.9,99.51,45.85,99.53,45.8"/>
	<path class="st479" d="M99.13,46.57c-0.01,0.02-0.02,0.03-0.02,0.05c-0.02,0.05-0.04,0.1-0.07,0.15c0,0,0,0.01,0,0.01
		C99.07,46.71,99.1,46.64,99.13,46.57"/>
	<path class="st479" d="M99.04,46.78c-0.03,0.06-0.06,0.13-0.09,0.2C98.98,46.91,99.01,46.84,99.04,46.78"/>
	<path class="st479" d="M98.95,46.98c-0.07,0.16-0.15,0.35-0.22,0.53c0.01-0.03,0.02-0.05,0.03-0.08
		C98.83,47.27,98.89,47.12,98.95,46.98"/>
	<path class="st479" d="M98.74,47.51c-0.01,0.03-0.02,0.06-0.04,0.09c0.01-0.02,0.02-0.04,0.02-0.06
		C98.73,47.54,98.73,47.53,98.74,47.51"/>
	<path class="st479" d="M98.7,47.61c-0.03,0.07-0.06,0.14-0.08,0.21c-0.01,0.03-0.03,0.07-0.04,0.11
		C98.62,47.81,98.66,47.71,98.7,47.61"/>
	<path class="st479" d="M98.62,47.82c-0.02,0.05-0.04,0.1-0.06,0.15c0.01-0.01,0.01-0.03,0.02-0.04
		C98.59,47.89,98.6,47.85,98.62,47.82"/>
	<path class="st479" d="M98.56,47.97c-0.16,0.43-0.33,0.94-0.54,1.61c0.02-0.06,0.04-0.12,0.06-0.17l0,0c0.16-0.52,0.33-1,0.46-1.37
		C98.55,48.01,98.55,47.99,98.56,47.97"/>
	<path class="st479" d="M98.54,48.03c-0.14,0.37-0.3,0.85-0.46,1.37l0,0c-0.02,0.06-0.04,0.12-0.06,0.18
		c-0.04,0.12-0.08,0.25-0.12,0.39c0.17-0.55,0.31-0.96,0.42-1.3C98.41,48.41,98.48,48.21,98.54,48.03"/>
	<path class="st479" d="M97.9,49.97c-0.04,0.14-0.09,0.29-0.14,0.45c-0.02,0.06-0.04,0.13-0.06,0.19l0,0l0,0
		c-0.12,0.42-0.25,0.84-0.37,1.26l0.34-1.15C97.75,50.45,97.82,50.2,97.9,49.97"/>
	<path class="st479" d="M97.76,50.42c-0.22,0.72-0.49,1.63-0.82,2.83l0.24-0.85l0.15-0.5c0.13-0.43,0.25-0.86,0.38-1.28l0,0l0,0
		C97.72,50.55,97.74,50.49,97.76,50.42"/>
	<path class="st479" d="M96.8,53.77c-0.13,0.47-0.26,0.95-0.39,1.42l0,0c-0.07,0.27-0.14,0.54-0.21,0.81
		C96.39,55.25,96.59,54.51,96.8,53.77 M96.94,53.25l-0.07,0.25l-0.09,0.32l0,0l0,0.01l-0.09,0.03l-0.44,0.01
		c-0.59,0.01-1.18,0.05-1.76,0.1c-2.35,0.2-4.61,0.71-6.25,1.18c-0.67,0.19-1.23,0.37-1.67,0.52c0.56,0.06,1.1,0.51,1.53,1.04
		c0.69,0.84,1.1,1.89,1.1,1.89c0.15-0.04,0.3-0.06,0.46-0.06c1.43,0,3.23,1.57,4.52,3.27l0.27,0.35l0.06,0.09l0.01,0.03l0.08-0.3
		l0.2-0.76c0.03-0.11,0.06-0.21,0.08-0.32c0.04-0.14,0.07-0.28,0.11-0.43l0,0c0.38-1.43,0.76-2.86,1.14-4.3
		c0.02-0.06,0.03-0.12,0.05-0.18c0,0,0,0,0-0.01c0.07-0.27,0.14-0.54,0.22-0.81l0,0c0.13-0.47,0.26-0.94,0.39-1.42
		c0.04-0.14,0.07-0.27,0.11-0.41C96.92,53.32,96.93,53.29,96.94,53.25"/>
	<path class="st479" d="M86.44,55.67c-0.29,0-0.59,0.11-0.88,0.37c0,0,0.37-0.15,1.01-0.36C86.52,55.67,86.48,55.67,86.44,55.67"/>
	<path class="st479" d="M96.12,56.26c-0.37,1.41-0.75,2.82-1.12,4.22l0,0c-0.04,0.14-0.07,0.28-0.11,0.43
		C95.3,59.35,95.71,57.8,96.12,56.26"/>
	<path class="st479" d="M94.53,62.29l-0.01,0.03l0,0l0-0.01C94.53,62.3,94.53,62.3,94.53,62.29L94.53,62.29 M94.53,62.29
		L94.53,62.29"/>
	<polyline class="st479" points="94.53,62.29 94.53,62.3 94.53,62.3 94.53,62.29 	"/>
	<path class="st479" d="M91.69,73.34l-0.01,0.05C91.69,73.35,91.69,73.34,91.69,73.34L91.69,73.34L91.69,73.34"/>
	<path class="st480" d="M116.65,75.48l-0.09,0.18l-0.04,0.09l0,0l-0.07,0.19l-0.08,0.19l-0.07,0.26l-0.14,0.53
		c0.14,0.21,0.21,0.43,0.21,0.68l0,0c0,0.7-0.55,1.52-1.58,2.33c-0.5,0.65-2.85,1.21-4.86,1.39c-0.02,0-0.03,0-0.05,0
		c-0.36,0-0.74-0.09-1.12-0.17c-0.38-0.09-0.76-0.17-1.12-0.17c-0.02,0-0.03,0-0.05,0c-2.34,0.16-3.83,1.14-6.23,1.14
		c-0.42,0-0.87-0.03-1.36-0.1c-0.16-0.04-0.33-0.06-0.5-0.06c-1.08,0-2.42,0.74-3.01,1.4c-0.04,0.07-0.06,0.16-0.06,0.27
		c0,1.09,1.74,4.24,3.4,7.88c0.44,1.04,0.89,2.07,1.3,3.05c0.39,1.03,0.74,2.03,1.04,2.91c0.53,1.67,0.82,3.03,0.82,3.48l0,0
		c0,0.03,0,0.06,0,0.09c0.04,0.61,1.06,1.2,1.07,1.86l0,0c0,0,0,0.01,0,0.01c-0.23,0.59-0.54,1.11-0.92,1.57
		c-0.19,0.23-0.39,0.44-0.6,0.65c-0.23,0.25-0.49,0.54-0.8,0.89c-1.22,1.36-2.83,3.45-5.78,5.93c-0.94,0.81-2.21,1.87-3.84,2.86
		c-1.6,0.98-3.48,1.76-5.23,2.19c-1.63,0.41-3.12,0.54-4.37,0.54c-0.1,0-0.19,0-0.29,0c-1.31-0.02-2.34-0.17-3.18-0.32
		c-0.83-0.16-1.47-0.32-1.96-0.46c-0.51-0.15-0.71-0.25-0.99-0.34c-0.51-0.19-0.84-0.32-0.86-0.39l0,0l0,0l0,0l0,0
		c0.89-2.18,1.2-5.04,2.88-6.46c0.24-0.18,0.22-0.92,0.33-1.38c-0.01-0.37-0.12-0.84-0.25-1.19c-0.09-0.27-0.19-0.47-0.27-0.51l0,0
		l0,0l0,0l0,0c0.14-0.03,0.2-0.08,0.2-0.13c0-0.27-1.39-0.76-2.79-1.14c-0.97-0.26-1.96-0.46-2.52-0.46c-0.3,0-0.48,0.06-0.49,0.2
		c0,0.07,0.05,0.17,0.16,0.29l0,0l0,0l0,0l0,0c-0.44-0.44-0.94-0.6-1.49-0.6c-0.65,0-1.37,0.22-2.11,0.45
		c-0.74,0.22-1.51,0.45-2.27,0.45c-0.26,0-0.52-0.03-0.78-0.09c-1.7-0.28-2.85-2.4-4.52-2.4c-0.12,0-0.25,0.01-0.38,0.04
		c-0.55,0.02-1.13,0.09-1.66,0.09c-0.88,0-1.63-0.2-1.93-1.19c-0.39-1.01-0.72-1.75-1.27-2.33c-1.54-0.87-3.47-0.95-4.32-2.58
		c-0.35-0.88-0.39-2.22-0.73-3.15c-0.23-0.61-0.58-1.04-1.25-1.04c-0.05,0-0.1,0-0.15,0.01c-0.05,0.01-0.09,0.01-0.14,0.01
		c-0.08,0-0.16-0.01-0.23-0.03c-0.16-0.03-0.31-0.09-0.46-0.15c-0.05-0.02-0.09-0.04-0.14-0.05c-0.18-0.07-0.34-0.12-0.5-0.12
		c-0.15,0-0.28,0.05-0.4,0.19c0.24,0.45,0.27,1.23,0.61,1.84c0.53,1.29,1.67,1.87,2.09,3.24c0.57,1.3,0.87,2.75,1.65,3.96
		c0.57,0.7,1.12,1.21,1.83,1.62c2.39,1.9,4.97,3.26,7.79,3.93c0.43-0.36,0.84-0.5,1.25-0.5c1.06,0,2.02,0.96,2.95,1.24
		c0.38,0.17,0.66,0.64,1.08,0.99c1.15,0.5,2.56,0.07,3.12,1.47c1.03,3.12,2.26,5.92,4.01,8.36c0.35,0.49,1.03,1.21,1.89,2.02
		c0.6,0.43,1.54,0.92,2.98,1.37c0.75,0.22,1.59,0.42,2.67,0.56c0.67,0.09,1.43,0.14,2.27,0.14c0.47,0,0.97-0.02,1.5-0.06
		c1.42-0.09,3.18-0.41,4.93-0.98c1.8-0.58,3.67-1.47,5.38-2.6c1.74-1.14,3.24-2.47,4.41-3.71c1.19-1.25,2.09-2.44,2.8-3.46
		c0.7-1.01,1.22-1.88,1.65-2.62c0.41-0.71,0.74-1.32,0.99-1.79c0.51-0.96,0.8-1.49,0.94-1.73c1.94-3.13,1.43-6.63,2.38-9.39
		c0-0.01,0.01-0.01,0.03-0.01c0.06,0,0.25,0.11,0.48,0.33c0.05-0.35,0.09-0.7,0.12-1.05c-0.18-0.24-0.45-1.04-0.63-1.27l0,0l0,0l0,0
		l0,0c0.19-0.71,0.56-1.19,1.22-1.82c1.37-0.85,2.45-1.96,3.35-3.17c0.88-1.12,1.61-2.47,2.27-3.58c0.33-0.56,0.66-1.22,0.99-1.71
		c0.33-0.52,0.67-1.02,1.04-1.51c0.37-0.5,0.76-0.85,1.19-1.25c0.43-0.36,0.91-0.77,1.44-0.99c0.64-0.4,1.56-1.1,1.56-1.61
		c0-0.04-0.01-0.08-0.02-0.12c-0.12-0.23-0.11-0.5-0.14-0.73c-0.02-0.18-0.07-0.35-0.33-0.54c-0.36-0.2-0.72-0.4-1.09-0.61
		c-0.41-0.18-0.82-0.36-1.23-0.54C118.34,76.12,117.38,75.83,116.65,75.48"/>
	<path class="st481" d="M71.65,30.13c0.13,0.08,0.26,0.17,0.39,0.25c0.55,0.34,1.07,0.66,1.54,0.93
		C73,30.97,72.35,30.57,71.65,30.13"/>
	<path class="st481" d="M71.21,30.29c-0.02,0.07-0.05,0.15-0.07,0.22C71.16,30.44,71.18,30.36,71.21,30.29"/>
	<path class="st481" d="M71.12,30.56c-0.01,0.02-0.01,0.04-0.02,0.07c-0.17,0.61-0.56,1.79-0.56,3.04c0-1.25,0.39-2.43,0.56-3.04
		C71.11,30.61,71.11,30.58,71.12,30.56"/>
	<path class="st481" d="M73.58,31.31c0.29,0.17,0.58,0.34,0.87,0.5c0.37,0.22,0.74,0.43,1.11,0.65c1.45,0.85,2.87,1.67,4.24,2.47
		c4.54,2.64,8.61,5.01,12.17,7.08c-3.56-2.07-7.64-4.44-12.17-7.08c-1.37-0.8-2.79-1.62-4.24-2.47c-0.37-0.21-0.74-0.43-1.11-0.65
		C74.16,31.65,73.87,31.48,73.58,31.31"/>
	<path class="st481" d="M70.54,33.67c0,0.66,0.11,1.33,0.41,1.96c-0.24-0.49-0.36-1.02-0.4-1.54c0-0.04-0.01-0.09-0.01-0.13
		c0-0.01,0-0.01,0-0.02C70.54,33.84,70.54,33.76,70.54,33.67"/>
	<path class="st481" d="M70.7,36.41c-0.09,0.22-0.21,0.48-0.33,0.77C70.49,36.89,70.6,36.63,70.7,36.41"/>
	<path class="st481" d="M70.37,37.17c-0.14,0.31-0.3,0.63-0.46,0.97C70.07,37.81,70.23,37.48,70.37,37.17"/>
	<path class="st481" d="M69.92,38.14c-0.05,0.11-0.11,0.22-0.17,0.34C69.81,38.36,69.86,38.25,69.92,38.14"/>
	<path class="st481" d="M69.75,38.48c-0.12,0.23-0.25,0.48-0.37,0.7C69.5,38.96,69.63,38.71,69.75,38.48"/>
	<path class="st684" d="M69.38,39.19L69.38,39.19c-0.21,0.37-0.44,0.76-0.67,1.13c-0.45,0.72-0.86,1.25-1.16,1.39
		c0,0-0.93,1.16-1.59,3.49c-0.33,1.13-0.55,2.56-0.55,4.21l0,0c0-1.65,0.22-3.07,0.55-4.21c0.67-2.33,1.59-3.49,1.59-3.49l0,0
		c0.29-0.14,0.69-0.64,1.12-1.33c0.01-0.02,0.03-0.04,0.04-0.07C68.94,39.95,69.18,39.55,69.38,39.19L69.38,39.19"/>
	<path class="st481" d="M68.67,40.38c-0.43,0.68-0.83,1.19-1.12,1.33C67.84,41.56,68.24,41.06,68.67,40.38"/>
	<path class="st685" d="M93.72,42.99L93.72,42.99c0.24,0.13,0.37,0.19,0.37,0.19c0.04,0.02,0.08,0.04,0.12,0.06l0,0l0,0
		c-0.04-0.02-0.08-0.04-0.12-0.06C94.09,43.19,93.97,43.12,93.72,42.99L93.72,42.99 M92.5,42.31L92.5,42.31
		c0.5,0.28,0.9,0.5,1.17,0.66c0.01,0,0.01,0.01,0.02,0.01l0,0l0,0C93.41,42.82,93.01,42.59,92.5,42.31L92.5,42.31"/>
	<path class="st685" d="M94.24,43.26c0.01,0.01,0.03,0.01,0.04,0.02c0.07,0.03,0.13,0.07,0.2,0.1l0,0
		C94.39,43.35,94.32,43.31,94.24,43.26L94.24,43.26"/>
	<path class="st481" d="M94.28,43.29c0.07,0.03,0.13,0.07,0.2,0.1C94.41,43.35,94.34,43.32,94.28,43.29 M92.46,42.29
		c0.01,0.01,0.03,0.01,0.04,0.02c0.5,0.28,0.9,0.5,1.17,0.66C93.39,42.81,92.98,42.58,92.46,42.29"/>
	<path class="st481" d="M94.47,43.39c0.72,0.37,1.36,0.66,1.94,0.9c0.29,0.12,0.56,0.22,0.81,0.31c0.7,0.25,1.29,0.39,1.78,0.45
		c0,0,0.01,0,0.01,0c0,0-0.01,0-0.01,0c-0.49-0.07-1.07-0.21-1.76-0.45c-0.22-0.08-0.45-0.16-0.69-0.26c0,0-0.01,0-0.01-0.01
		c0,0-0.01,0-0.01,0c-0.03-0.01-0.06-0.02-0.09-0.04c0,0,0,0-0.01,0c-0.01,0-0.01,0-0.02-0.01c0,0,0,0,0,0
		c-0.01,0-0.02-0.01-0.02-0.01h0C95.81,44.04,95.18,43.75,94.47,43.39"/>
	<path class="st481" d="M100.16,45.01C100.16,45.01,100.16,45.01,100.16,45.01L100.16,45.01L100.16,45.01
		c-0.01,0.01-0.02,0.02-0.04,0.03c-0.03,0.03-0.08,0.07-0.14,0.13c-0.02,0.02-0.03,0.04-0.05,0.06c-0.11,0.12-0.24,0.3-0.4,0.57
		c-0.03,0.05-0.06,0.1-0.08,0.15c-0.01,0.02-0.02,0.04-0.03,0.05c0.01-0.02,0.02-0.04,0.03-0.05c0.03-0.05,0.06-0.1,0.09-0.15
		c0.15-0.26,0.29-0.44,0.39-0.56c0.02-0.02,0.04-0.04,0.05-0.06c0.06-0.07,0.11-0.11,0.14-0.14
		C100.14,45.02,100.15,45.01,100.16,45.01L100.16,45.01L100.16,45.01C100.16,45.01,100.16,45.01,100.16,45.01"/>
	<path class="st481" d="M99.87,45.07C99.87,45.07,99.86,45.07,99.87,45.07c-0.08,0.01-0.16,0.01-0.24,0.02c-0.02,0-0.03,0-0.05,0
		c0.08,0,0.16,0,0.23-0.01C99.83,45.08,99.84,45.08,99.87,45.07C99.86,45.07,99.87,45.07,99.87,45.07"/>
	<path class="st685" d="M99.11,46.61L99.11,46.61c-0.14,0.31-0.3,0.69-0.48,1.17c0,0.01-0.01,0.03-0.01,0.04l0,0l0,0
		c0-0.01,0.01-0.03,0.01-0.04c0.01-0.02,0.01-0.04,0.02-0.06C98.83,47.27,98.98,46.91,99.11,46.61L99.11,46.61"/>
	<path class="st481" d="M99.42,46c-0.09,0.16-0.18,0.34-0.28,0.55c-0.01,0.02-0.02,0.04-0.03,0.06c-0.14,0.3-0.29,0.66-0.46,1.11
		c0.17-0.45,0.32-0.8,0.45-1.1c0.01-0.02,0.02-0.04,0.02-0.05C99.23,46.35,99.33,46.17,99.42,46"/>
	<path class="st684" d="M65.41,49.4L65.41,49.4l0,0.1c0,0.01,0,0.03,0,0.04c0.01,0.83,0.06,1.71,0.21,2.64l0,0l0,0l0,0
		c-0.16-0.95-0.2-1.84-0.21-2.68L65.41,49.4"/>
	<path class="st481" d="M65.41,49.54c0.01,0.83,0.06,1.71,0.21,2.64C65.46,51.25,65.41,50.37,65.41,49.54"/>
	<path class="st481" d="M98.08,49.4c-0.02,0.06-0.04,0.12-0.06,0.17c-0.09,0.28-0.18,0.56-0.26,0.84c-0.02,0.06-0.04,0.13-0.06,0.19
		c0.02-0.06,0.04-0.13,0.06-0.19c0.08-0.28,0.17-0.56,0.26-0.84C98.04,49.52,98.06,49.46,98.08,49.4"/>
	<path class="st481" d="M97.7,50.61c-0.13,0.43-0.25,0.86-0.38,1.28c-0.05,0.16-0.1,0.33-0.14,0.49
		C97.35,51.8,97.53,51.21,97.7,50.61"/>
	<path class="st481" d="M65.62,52.18c0.17,0.95,0.42,1.95,0.77,2.98C66.04,54.13,65.79,53.13,65.62,52.18"/>
	<path class="st481" d="M96.4,55.18c-0.07,0.27-0.14,0.54-0.22,0.81c-0.02,0.06-0.03,0.12-0.05,0.18c-0.38,1.44-0.76,2.87-1.14,4.3
		c0.37-1.4,0.75-2.81,1.12-4.22c0.02-0.09,0.05-0.17,0.07-0.26C96.26,55.72,96.33,55.45,96.4,55.18"/>
	<path class="st686" d="M86.34,69.25L86.34,69.25L86.34,69.25c0.04,0,0.09,0,0.13,0c1.36,0.05,2.92,0.88,3.91,3.46l0,0
		c0,0,0.15,0.2,0.39,0.52l0,0l0,0c-0.24-0.32-0.39-0.52-0.39-0.52C89.36,70.05,87.73,69.25,86.34,69.25"/>
	<path class="st481" d="M86.47,69.25c1.36,0.05,2.92,0.88,3.91,3.46C89.39,70.13,87.83,69.3,86.47,69.25"/>
	<path class="st686" d="M86.34,69.25c-0.24,0-0.47,0.02-0.7,0.07c-0.03,0.01-0.06,0.01-0.09,0.02c0.03-0.01,0.06-0.01,0.09-0.02l0,0
		c0.21-0.04,0.44-0.07,0.67-0.07C86.33,69.25,86.34,69.25,86.34,69.25"/>
	<path class="st481" d="M86.32,69.25c-0.23,0-0.46,0.03-0.67,0.07C85.86,69.27,86.09,69.25,86.32,69.25"/>
	<path class="st481" d="M85.56,69.33c-1.48,0.31-2.46,1.35-2.46,1.35C83.09,70.68,84.08,69.64,85.56,69.33"/>
	<path class="st481" d="M90.78,73.23c0.12,0.15,0.25,0.34,0.4,0.53C91.03,73.56,90.89,73.38,90.78,73.23"/>
	<path class="st481" d="M91.69,73.34c0,0,0,0.01-0.01,0.05l0,0l0,0c-0.02,0.09-0.08,0.33-0.2,0.77c0.09-0.36,0.15-0.59,0.18-0.71
		l0,0l0,0C91.69,73.37,91.69,73.34,91.69,73.34"/>
	<path class="st481" d="M91.18,73.76c0.07,0.09,0.14,0.18,0.21,0.28C91.31,73.94,91.24,73.85,91.18,73.76"/>
	<path class="st482" d="M46.96,92.5c-0.1,0-0.18,0.05-0.22,0.2c-0.14,0.25-0.18,0.53-0.18,0.81c0,0.34,0.06,0.69,0.07,1.01
		c0.54,2.28,0.85,4.73,1.67,6.74c2.01,4.6,4.98,8.49,9.02,10.51c0.19,0.09,0.38,0.13,0.58,0.13c0.63,0,1.31-0.37,1.95-0.46
		c0.21-0.05,0.42-0.06,0.62-0.06c0.59,0,1.17,0.16,1.77,0.31c0.59,0.16,1.2,0.31,1.82,0.31c0.58,0,1.19-0.14,1.83-0.54
		c0.09-0.07,0.2-0.1,0.3-0.1c0.22,0,0.45,0.13,0.62,0.32c2.06,3.94,4.23,7.45,6.81,10.98c0.2,0.3,0.48,0.63,0.82,0.98
		c0.17,0.18,0.36,0.36,0.55,0.55c0.1,0.09,0.2,0.19,0.31,0.29l0.17,0.15l0.27,0.16c0.73,0.42,1.85,0.92,3.61,1.31
		c0.84,0.2,1.94,0.36,3.14,0.44c0.48,0.02,0.91,0.04,1.4,0.04c0.2,0,0.42,0,0.65-0.01c0.37-0.01,0.74-0.03,1.12-0.06
		c0.41-0.04,0.82-0.08,1.23-0.13c3.27-0.37,7.68-1.86,11.31-4.43c3.73-2.6,6.14-5.65,7.59-7.77c1.49-2.22,2.23-3.7,2.78-4.76
		c0.42-0.84,0.76-1.51,0.99-1.96c0.12-0.28,0.24-0.55,0.36-0.82c0.1-0.25,0.19-0.48,0.29-0.72c0.18-0.47,0.33-0.93,0.45-1.37
		c0.12-0.44,0.23-0.87,0.3-1.27c0.06-0.38,0.1-0.75,0.12-1.1c0.01-0.24,0.02-0.47,0.02-0.7c0-1.09-0.16-2.02-0.44-2.68
		c-0.36-0.92-0.84-1.53-1.2-1.87c-0.23-0.22-0.41-0.33-0.48-0.33c-0.01,0-0.02,0-0.03,0.01c-0.95,2.76-0.44,6.25-2.38,9.39
		c-0.14,0.24-0.43,0.78-0.94,1.73c-0.25,0.47-0.58,1.08-0.99,1.79c-0.43,0.74-0.95,1.61-1.65,2.62c-0.71,1.02-1.61,2.21-2.8,3.46
		c-1.18,1.25-2.67,2.57-4.41,3.71c-1.71,1.12-3.59,2.01-5.38,2.6c-1.76,0.57-3.51,0.89-4.93,0.98c-0.53,0.04-1.03,0.06-1.5,0.06
		c-0.85,0-1.61-0.06-2.27-0.14c-1.08-0.13-1.92-0.34-2.67-0.56c-1.44-0.44-2.38-0.94-2.98-1.37c-0.86-0.81-1.54-1.53-1.89-2.02
		c-1.75-2.44-2.98-5.24-4.01-8.36c-0.56-1.4-1.97-0.97-3.12-1.47c-0.43-0.35-0.71-0.82-1.08-0.99c-0.93-0.29-1.89-1.24-2.95-1.24
		c-0.4,0-0.81,0.14-1.25,0.5c-2.82-0.67-5.4-2.03-7.79-3.93c-0.71-0.41-1.26-0.91-1.83-1.62c-0.78-1.2-1.08-2.66-1.65-3.96
		c-0.43-1.37-1.56-1.94-2.09-3.24c-0.34-0.61-0.36-1.39-0.61-1.84l0,0c-0.01,0-0.01,0-0.02,0c-0.13,0-0.27-0.06-0.41-0.12
		C47.2,92.56,47.07,92.5,46.96,92.5"/>
</g>
<g>
	<path d="M88.48,80.85c-3.23,0.22-6.14-0.84-9.06-1.72c-5.65-1.7-11.26-3.56-16.86-5.39c-1.51-0.5-2.8-0.59-4.09,0.65
		c-1.13,1.09-2.51,1.92-3.81,2.84c-0.53,0.38-1.12,0.67-1.72,1.03c-0.53-1.03-0.19-1.54,0.48-1.98c0.81-0.53,1.58-1.13,2.41-1.62
		c1.22-0.73,2.55-1.35,2.1-3.17c2.15-2.29,0.53-4.7,0.25-7.08c-0.4-3.41-0.74-6.82-1.2-10.22c-0.34-2.53-0.82-5.04-1.23-7.56
		c-0.18-1.13-0.41-2.25-0.47-3.39c-0.1-2.04,1.24-3.6,3.23-4.41c3.17-1.3,6.24-2.86,9.4-4.18c4.79-2,9.23-4.79,14.3-6.12
		c1.2-0.31,1.99-1.91,3.87-1.02c-0.33,0.51-0.52,1.15-0.92,1.34c-1.19,0.57-2.49,0.9-3.69,1.43c-3.94,1.74-7.85,3.52-11.77,5.3
		c-3.49,1.59-6.97,3.2-10.73,4.92c1.5,1.28,3.16,1.48,4.64,2.02c3.39,1.22,6.81,2.36,10.21,3.53c2.82,0.97,5.65,1.92,8.47,2.88
		c0.42,0.14,0.96,0.16,1.23,0.44c1.53,1.64,3.15,1.05,4.82,0.33c4.93-2.13,9.85-4.28,14.8-6.36c2.48-1.04,5-1.96,7.51-2.94
		c0.11,0.15,0.23,0.3,0.34,0.46c-0.2,0.4-0.29,0.94-0.61,1.18c-2.48,1.93-5.27,3.31-8.2,4.39c-4.61,1.69-9.23,3.36-13.85,5.03
		c-1.21,0.44-1.52,1.13-1.1,2.79c0.52,2.04,1.17,4.05,1.63,6.1c0.58,2.57,1.04,5.18,1.52,7.77c0.63,3.43,1.23,6.88,1.87,10.44
		c3.33-0.69,6.02-2.36,8.86-3.66c3.99-1.82,8.01-3.56,12.01-5.35c0.97-0.43,1.95-0.82,2.88-1.33c1.81-0.99,2.02-1.68,1.48-3.64
		c-0.35-1.26-0.65-2.56-0.77-3.86c-0.53-5.44-1.5-10.78-3.41-15.92c-0.42-1.13-0.68-2.33-0.87-3.53c-0.06-0.39,0.33-0.85,0.51-1.28
		c0.37,0.3,0.97,0.54,1.06,0.9c0.27,1.11,0.21,2.29,0.5,3.39c0.91,3.48,2.04,6.91,2.86,10.41c0.56,2.4,0.67,4.89,1.09,7.32
		c0.29,1.71,0.76,3.4,1.17,5.16c-2.12,1.66-4.26,3.03-6.75,4.02c-4.07,1.63-7.95,3.74-11.95,5.56c-2.96,1.35-5.97,2.61-8.97,3.85
		c-1.31,0.54-2.04,0.15-2.29-1.25c-0.66-3.8-1.19-7.63-1.87-11.43c-0.85-4.75-1.75-9.49-2.72-14.21c-0.22-1.08-0.84-2.09-1.38-3.36
		c-4.49-1.38-9.12-2.77-13.74-4.22c-3.19-1.01-6.35-2.12-9.53-3.17c-1.81-0.6-2.26-0.29-2.31,1.55c-0.01,0.44,0,0.89,0.06,1.32
		c0.52,3.92,1.03,7.85,1.57,11.77c0.49,3.57,1.06,7.12,1.52,10.69c0.14,1.12,0.02,2.27,0.02,3.61c1.83,0.59,3.65,1.19,5.48,1.76
		c1.85,0.57,3.72,1.08,5.57,1.67c1.93,0.61,3.84,1.33,5.78,1.92c1.85,0.56,3.84,0.8,5.58,1.6C85.23,79.6,87.55,78.51,88.48,80.85z"
		/>
	<path d="M80.26,81.13c-2.58,1.52-4.98,2.95-7.4,4.34c-1.15,0.66-1.48,1.51-1.26,2.85c0.61,3.64,1.18,7.29,1.57,10.95
		c0.48,4.46,0.75,8.95,1.16,13.42c0.21,2.24,0.53,4.47,0.84,7.05c1.92-1.25,3.48-2.3,5.08-3.29c6.44-3.98,12.86-8,19.37-11.86
		c1.65-0.98,2.18-2.19,1.9-3.9c-0.66-4.07-0.94-8.21-2.36-12.15c-0.81-2.22-1.41-4.53-2.03-6.81c-0.2-0.76-0.84-1.64,0.18-2.43
		c0.23,0.09,0.57,0.1,0.67,0.27c0.27,0.44,0.51,0.92,0.65,1.41c2.34,7.97,4.21,16.05,5.23,24.21c-3.22,1.92-6.38,3.79-9.52,5.68
		c-4,2.39-8,4.79-12,7.18c-1.73,1.03-3.45,2.07-5.2,3.06c-0.53,0.3-1.13,0.56-1.72,0.63c-1.1,0.12-1.85-0.29-1.97-1.56
		c-0.34-3.59-0.64-7.2-1.15-10.77c-0.79-5.48-1.79-10.92-2.62-16.4c-0.4-2.68-0.59-5.38-0.87-7.99c2.51-1.49,4.71-2.95,7.05-4.13
		c1.09-0.55,2.44-0.61,3.7-0.75C79.79,80.12,80.09,80.86,80.26,81.13z"/>
	<path d="M32.71,76.05c1.16,0.35,2.29,0.8,3.47,1.02c4.68,0.88,9.4,1.57,14.06,2.56c3.78,0.8,7.5,1.94,11.25,2.9
		c1.19,0.31,2.42,0.5,3.62,0.77c0.68,0.16,0.68,0.18,0.66,1.72c-10.96-1.99-21.87-3.97-33.2-6.03c0.09,1.73-0.03,3.15,0.26,4.47
		c1.33,5.96,1.43,12.06,2.15,18.09c0.28,2.35,0.12,4.77,0.03,7.15c-0.03,0.65-0.54,1.29-0.87,2.03c-1.51-0.93-1.44-2.14-1.52-3.24
		c-0.38-5.09-0.51-10.22-1.15-15.28c-0.6-4.78-0.45-9.69-2.07-14.34c-0.26-0.75-0.61-1.88,0.97-1.79c0.08,0,0.25-0.03,0.25-0.05
		c-0.15-3.46,3.7-2.37,4.9-4.3c5.9-3.13,11.81-6.25,17.7-9.4c0.77-0.41,1.41-1.08,2.2-1.44c0.38-0.17,0.95,0.08,1.43,0.13
		c-0.18,0.51-0.22,1.29-0.57,1.48c-5.72,3.1-11.49,6.1-17.22,9.18c-2.15,1.15-4.24,2.42-6.36,3.64
		C32.71,75.56,32.71,75.81,32.71,76.05z"/>
	<path d="M35.46,110.92c7.84,1.96,15.58,3.88,23.3,5.83c1.1,0.28,2.15,0.76,3.25,1.05c2.8,0.74,5.61,1.47,8.43,2.11
		c1.04,0.23,1.86,0.49,1.85,2.11c-2.7-0.62-5.39-0.95-7.86-1.86c-6.64-2.46-13.6-3.62-20.44-5.31c-2.54-0.63-5.11-1.12-7.65-1.76
		C35.14,112.77,34.99,111.92,35.46,110.92z"/>
	<path d="M112.01,38.21c-0.58-0.08-1.1-0.04-1.53-0.22c-4.13-1.69-8.21-3.52-12.39-5.08c-2.29-0.85-4.74-1.25-7.11-1.89
		c-1.09-0.3-2.16-0.7-3.23-1.08c-0.96-0.35-0.78-0.99-0.47-1.55c7.95,2,15.63,4.65,23.12,7.84
		C111.35,36.63,111.38,36.57,112.01,38.21z"/>
	<path d="M35.12,81.43c1.5-0.29,1.67,0.45,1.72,1.32c0.12,2.02,0.31,4.03,0.35,6.05c0.06,3.61,0.66,7.14,1.39,10.67
		c0.62,3,1.04,6.04,1.51,9.07c0.07,0.46-0.07,0.95-0.37,1.45c-1.8-4.52-2.44-9.3-3.2-14.01C35.74,91.16,35.56,86.26,35.12,81.43z"/>
	<path d="M42.34,82.68c0.29,0.53,0.76,1.04,0.83,1.6c0.54,4.36,0.96,8.73,1.5,13.08c0.38,3.05,0.93,6.07,1.35,9.11
		c0.17,1.24,0.19,2.51,0.28,3.76c-0.19,0.05-0.37,0.1-0.56,0.15c-0.2-0.3-0.51-0.58-0.58-0.9c-0.32-1.46-0.68-2.92-0.85-4.4
		c-0.64-5.58-1.19-11.16-1.84-16.74c-0.15-1.3-0.61-2.56-0.83-3.86c-0.09-0.52,0.08-1.09,0.13-1.64
		C41.96,82.79,42.15,82.74,42.34,82.68z"/>
	<path d="M58.78,115.02c-0.33-0.24-0.56-0.32-0.57-0.42c-1.13-9.13-2.24-18.26-3.34-27.4c-0.04-0.3,0.12-0.62,0.67-0.98
		c0.42,2.31,0.87,4.62,1.26,6.94c0.4,2.43,0.8,4.85,1.1,7.29c0.3,2.44,0.43,4.91,0.72,7.35C58.92,110.17,59.51,112.52,58.78,115.02z
		"/>
	<path d="M49.09,84.1c0.76,0.16,0.98,0.15,1.08,0.24c0.18,0.17,0.38,0.4,0.41,0.62c0.89,8.75,1.76,17.5,2.67,26.54
		c-1.37-0.66-1.48-1.56-1.56-2.54c-0.37-4.72-0.72-9.44-1.2-14.14c-0.28-2.78-0.79-5.54-1.18-8.31
		C49.2,85.79,49.17,85.06,49.09,84.1z"/>
	<path d="M62.42,87.53c1.3,9.11,2.65,17.69,3.56,26.32c-0.24,0.07-0.49,0.15-0.73,0.22c-0.27-0.66-0.68-1.29-0.78-1.97
		c-0.41-2.78-0.88-5.56-1.04-8.36c-0.2-3.61-0.85-7.14-1.59-10.66C61.4,91.01,61.54,89.57,62.42,87.53z"/>
	<path d="M61.45,46.28c1.48,2,4.86,21.81,4.47,23.74c-0.23-0.14-0.59-0.24-0.62-0.4c-1.36-7.3-2.71-14.6-4.02-21.91
		C61.2,47.26,61.39,46.76,61.45,46.28z"/>
	<path d="M73.82,88.33c2.65,8.25,3.62,16.86,5.19,25.34c0.05,0.26-0.24,0.59-0.88,0.93c-0.33-1.27-0.82-2.52-0.97-3.82
		c-0.73-6.46-1.8-12.85-3.62-19.11c-0.3-1.04-0.33-2.16-0.48-3.25C73.31,88.4,73.57,88.36,73.82,88.33z"/>
	<path d="M86.5,31.87c-0.31,0.86-0.33,1.46-0.6,1.61c-1.53,0.85-3.08,1.71-4.71,2.36c-2.2,0.87-4.49,1.49-6.7,2.32
		c-1.73,0.65-3.4,1.45-5.1,2.19c-0.16,0.07-0.29,0.2-0.43,0.31c-0.68,0.47-1.4,0.57-1.7-0.31c-0.09-0.27,0.53-1.01,0.96-1.18
		c3.85-1.5,7.75-2.87,11.6-4.37C81.91,34,83.95,33,86.5,31.87z"/>
	<path d="M71.65,71.64c-0.33-0.39-0.87-0.73-0.97-1.17c-1.29-5.91-2.53-11.84-3.77-17.76c-0.3-1.42-0.52-2.86-0.78-4.29
		c0.17-0.08,0.34-0.15,0.51-0.23c0.3,0.31,0.69,0.58,0.87,0.94c0.23,0.46,0.4,1.02,0.38,1.52c-0.13,3.84,1.22,7.44,1.86,11.15
		c0.46,2.67,1.31,5.27,1.98,7.91c0.14,0.55,0.25,1.11,0.38,1.66C71.97,71.47,71.81,71.55,71.65,71.64z"/>
	<path d="M73.36,42.05c0.28-0.41,0.48-1.05,0.86-1.19c4.2-1.57,8.44-3.07,12.66-4.59c1.24-0.45,2.45-0.98,3.71-1.35
		c0.37-0.11,0.86,0.19,1.29,0.31c-0.23,0.4-0.37,1.04-0.69,1.15c-3.48,1.22-7.01,2.31-10.49,3.52c-1.66,0.58-3.25,1.36-4.88,2.03
		c-0.63,0.26-1.27,0.47-1.91,0.7C73.73,42.44,73.54,42.25,73.36,42.05z"/>
	<path d="M85.02,110.39c-0.25-0.22-0.66-0.4-0.71-0.66c-1.57-7.49-3.11-14.99-4.64-22.45c1.27-0.51,1.47,0.13,1.6,0.9
		c0.65,3.62,1.53,7.21,1.91,10.86c0.35,3.36,1.38,6.51,2.19,9.73c0.12,0.47,0.11,0.97,0.16,1.45
		C85.36,110.28,85.19,110.33,85.02,110.39z"/>
	<path d="M76.9,73.1c-1.06-3.56-2.4-7-2.8-10.8c-0.34-3.27-1.57-6.44-2.38-9.66c-0.11-0.46-0.06-0.95-0.08-1.43
		c0.17-0.07,0.34-0.15,0.51-0.22c0.36,0.6,0.89,1.16,1.05,1.81c0.49,2.04,0.82,4.11,1.23,6.17c0.53,2.65,1.04,5.31,1.64,7.94
		c0.27,1.18,0.82,2.3,1.15,3.48c0.23,0.84,0.29,1.73,0.43,2.6C77.4,73.03,77.15,73.07,76.9,73.1z"/>
	<path d="M54.74,66.35c0.71,1.04,0.44,1.6-0.31,1.98c-4.5,2.36-9,4.72-13.51,7.05c-0.2,0.1-0.51,0.01-0.8,0.01
		c-0.64-0.84-0.39-1.41,0.51-1.84c3.4-1.61,6.82-3.19,10.2-4.86C52.14,68.05,53.35,67.19,54.74,66.35z"/>
	<path d="M87.88,84.93c0.43,0.41,0.73,0.55,0.76,0.74c0.97,7.01,2.96,13.79,4.7,20.62c0.02,0.06-0.24,0.19-0.37,0.29
		C91.11,104.08,87.55,89.29,87.88,84.93z"/>
	<path d="M83.99,73.29c-2.63-4.66-5.55-17.76-4.93-20.34c0.15,0.07,0.41,0.11,0.43,0.21c1.55,6.38,3.08,12.77,4.6,19.16
		C84.17,72.62,84.03,72.97,83.99,73.29z"/>
	<path d="M97.45,52.73c0.49,1.95,0.83,3.52,1.28,5.06c1.35,4.54,2.76,9.07,4.16,13.67c-1.5,0.12-1.4-0.86-1.64-1.56
		C97.24,58.27,96.52,55.24,97.45,52.73z"/>
	<path d="M80.45,44.73c0.24-0.31,0.42-0.76,0.73-0.9c5.15-2.16,10.32-4.28,15.49-6.4c0.24-0.1,0.49-0.33,0.71-0.3
		c0.39,0.04,0.76,0.22,1.14,0.34c-0.23,0.41-0.38,1.05-0.72,1.18c-0.97,0.38-2.06,0.43-3.02,0.82c-4.37,1.78-8.7,3.64-13.05,5.46
		c-0.29,0.12-0.61,0.17-0.92,0.25C80.69,45.03,80.57,44.88,80.45,44.73z"/>
	<path d="M97.55,102.83c-1.63-6.32-3.26-12.65-4.88-18.96c0.76-0.75,1.31-0.73,1.54,0.28c0.29,1.27,0.41,2.58,0.72,3.85
		c1.01,4.09,2.09,8.15,3.11,12.24c0.2,0.82,0.24,1.67,0.36,2.51C98.11,102.78,97.83,102.8,97.55,102.83z"/>
	<path d="M109.55,47.83c0.18,0.99,0.28,2,0.55,2.96c1.09,3.79,2.3,7.54,3.32,11.34c0.34,1.29,0.26,2.69,0.38,4.14
		c-0.57-0.11-0.87-0.14-0.87-0.18c-0.24-3.73-1.93-7.05-2.93-10.57c-0.55-1.94-0.94-3.93-1.3-5.92c-0.1-0.56,0.13-1.19,0.21-1.79
		C109.12,47.83,109.34,47.83,109.55,47.83z"/>
	<path d="M101.8,49.76c0.57,0.05,0.87,0.02,0.89,0.09c1.92,5.8,3.83,11.6,5.7,17.42c0.11,0.35-0.1,0.8-0.23,1.68
		c-1.65-2.07-1.98-4.26-2.74-6.2c-0.83-2.1-1.2-4.37-1.8-6.56C103.04,54.1,102.44,52.04,101.8,49.76z"/>
	<path d="M86.38,47.3c-0.59-1.27,0.19-1.47,0.81-1.74c3.44-1.52,6.88-3.05,10.34-4.53c1.67-0.71,3.39-1.31,5.2-2.01
		c0.59,1.2,0.25,1.56-0.99,1.96c-3.98,1.3-7.91,2.78-11.82,4.3C88.68,45.76,87.58,46.6,86.38,47.3z"/>
	<path d="M96.71,72.69c-1.65-6.59-3.97-12.52-5.27-18.74c0.94,0.93,6.23,16.32,6.15,17.55C97.58,71.77,97.24,72,96.71,72.69z"/>
	<path d="M47.09,76.1c0.15-0.49,0.15-1.2,0.48-1.43c2.4-1.67,4.87-3.25,7.36-4.89c0.09,0.26,0.24,0.5,0.23,0.74
		c0,0.25-0.08,0.59-0.25,0.72c-2.36,1.76-4.75,3.5-7.12,5.24C47.55,76.36,47.32,76.23,47.09,76.1z"/>
	<path d="M58.52,79.83c-0.27-1.76,0.13-2.14,3.68-3.75C62.28,77.37,61.74,77.93,58.52,79.83z"/>
	<path d="M63.38,81.49c0-1-0.2-1.74,0.03-1.92c1.13-0.86,2.38-1.57,3.88-2.51c0.12,1.61-0.97,1.76-1.5,2.32
		C65.22,80,64.52,80.51,63.38,81.49z"/>
	<path d="M71.79,79.55c-1.41,1.06-2.36,1.78-3.48,2.63C68.3,80.04,68.49,79.89,71.79,79.55z"/>
</g>
</svg>
