<?xml version="1.0" encoding="utf-8"?>
<!-- Generator: Adobe Illustrator 23.0.1, SVG Export Plug-In . SVG Version: 6.00 Build 0)  -->
<svg version="1.1" id="Layer_1" xmlns="http://www.w3.org/2000/svg" xmlns:xlink="http://www.w3.org/1999/xlink" x="0px" y="0px"
	 viewBox="0 0 150 150" style="enable-background:new 0 0 150 150;" xml:space="preserve">
<style type="text/css">
	.st0{fill:#F49AB4;}
	.st1{fill:#F28DA7;}
	.st2{fill:#E85072;}
	.st3{fill:#E84B6F;}
	.st4{fill:#EB5A7D;}
	.st5{fill:#EF7994;}
	.st6{fill:#F8BCCD;}
	.st7{fill:#F38CA8;}
	.st8{fill:#EF728F;}
	.st9{fill:#FCE4EB;}
	.st10{fill:#F0CCCF;}
	.st11{fill:#DE8D95;}
	.st12{fill:#EBBABF;}
	.st13{fill:#E7ACB2;}
	.st14{fill:#E39DA3;}
	.st15{fill:#F5DEE0;}
	.st16{fill:#D97A83;}
	.st17{fill:#E4A6AD;}
	.st18{fill:#E9B6BB;}
	.st19{fill:#DA9197;}
	.st20{fill:#CC7077;}
	.st21{fill:#C9646C;}
	.st22{fill:#D4848B;}
	.st23{fill:#D17A81;}
	.st24{fill:#DD9EA3;}
	.st25{fill:#C65760;}
	.st26{fill:#D48189;}
	.st27{fill:#CF6E76;}
	.st28{fill:#C1575F;}
	.st29{fill:#B8424B;}
	.st30{fill:#B33C43;}
	.st31{fill:#BB4952;}
	.st32{fill:#C65E66;}
	.st33{fill:#BC4F57;}
	.st34{fill:#B0353D;}
	.st35{fill:#D67E84;}
	.st36{fill:#C6636B;}
	.st37{fill:#CA6C72;}
	.st38{fill:#B9454D;}
	.st39{fill:#C05B63;}
	.st40{fill:#C0545B;}
	.st41{fill:#BE4C53;}
	.st42{fill:#B43C44;}
	.st43{fill:#DF999F;}
	.st44{fill:#D27980;}
	.st45{fill:#C1555D;}
	.st46{fill:#CB6F76;}
	.st47{fill:#C8676E;}
	.st48{fill:#D5838A;}
	.st49{fill:#C65D64;}
	.st50{fill:#F1D1D4;}
	.st51{fill:#D38087;}
	.st52{fill:#CF737C;}
	.st53{fill:#D98C94;}
	.st54{fill:#E6B3B9;}
	.st55{fill:#D8898F;}
	.st56{fill:#C66269;}
	.st57{fill:#C96A72;}
	.st58{fill:#DD9399;}
	.st59{fill:#CF747B;}
	.st60{fill:#D48188;}
	.st61{fill:#D37D85;}
	.st62{fill:#DC9298;}
	.st63{fill:#D8838B;}
	.st64{fill:#FAECED;}
	.st65{fill:#EFCBD0;}
	.st66{fill:#EDC1C5;}
	.st67{fill:#D28089;}
	.st68{fill:#CB747D;}
	.st69{fill:#A8343C;}
	.st70{fill:#A62F37;}
	.st71{fill:#B03E44;}
	.st72{fill:#C25C63;}
	.st73{fill:#E1A8AC;}
	.st74{fill:#BE535C;}
	.st75{fill:#CE727C;}
	.st76{fill:#F5D8DA;}
	.st77{fill:#D8BAE7;}
	.st78{fill:#BC8FD2;}
	.st79{fill:#B17FC9;}
	.st80{fill:#7D3CA4;}
	.st81{fill:#884BAE;}
	.st82{fill:#A369BF;}
	.st83{fill:#D2B5E2;}
	.st84{fill:#9A62BC;}
	.st85{fill:#B17ECB;}
	.st86{fill:#ECE0F2;}
	.st87{fill:#FBCBC8;}
	.st88{fill:#F5908C;}
	.st89{fill:#F28580;}
	.st90{fill:#E64640;}
	.st91{fill:#E5413B;}
	.st92{fill:#E74E49;}
	.st93{fill:#ED6D68;}
	.st94{fill:#F7B5B0;}
	.st95{fill:#ED6660;}
	.st96{fill:#F48580;}
	.st97{fill:#FBDFDF;}
	.st98{fill:#F9C1C0;}
	.st99{fill:#F7B7B6;}
	.st100{fill:#EF7573;}
	.st101{fill:#EF6F6D;}
	.st102{fill:#F17F7C;}
	.st103{fill:#F4A19F;}
	.st104{fill:#F39998;}
	.st105{fill:#EC7271;}
	.st106{fill:#FAD1CF;}
	.st107{fill:#FADCDC;}
	.st108{fill:#F39391;}
	.st109{fill:#FDECEC;}
	.st110{fill:#FCDDDD;}
	.st111{fill:#ED8280;}
	.st112{fill:#E66160;}
	.st113{fill:#F18784;}
	.st114{fill:#F19593;}
	.st115{fill:#EB7675;}
	.st116{fill:#E86867;}
	.st117{fill:#F28785;}
	.st118{fill:#F3A7A7;}
	.st119{fill:#F08C8B;}
	.st120{fill:#F08785;}
	.st121{fill:#E55D5B;}
	.st122{fill:#E86D6C;}
	.st123{fill:#E85F5D;}
	.st124{fill:#E75958;}
	.st125{fill:#EA6664;}
	.st126{fill:#E76260;}
	.st127{fill:#E04948;}
	.st128{fill:#ED7371;}
	.st129{fill:#EA6B6A;}
	.st130{fill:#EB6763;}
	.st131{fill:#E45352;}
	.st132{fill:#E54E4C;}
	.st133{fill:#DE3635;}
	.st134{fill:#E65958;}
	.st135{fill:#E0413E;}
	.st136{fill:#EA6D6A;}
	.st137{fill:#EE9493;}
	.st138{fill:#EA6866;}
	.st139{fill:#F2A8A6;}
	.st140{fill:#E14543;}
	.st141{fill:#E3413F;}
	.st142{fill:#E64A48;}
	.st143{fill:#E56967;}
	.st144{fill:#E33F3D;}
	.st145{fill:#EB7775;}
	.st146{fill:#EE8483;}
	.st147{fill:#E64845;}
	.st148{fill:#E75655;}
	.st149{fill:#E65451;}
	.st150{fill:#EA7473;}
	.st151{fill:#E55B57;}
	.st152{fill:#E75756;}
	.st153{fill:#EB7472;}
	.st154{fill:#EE8C8A;}
	.st155{fill:#F5A3A2;}
	.st156{fill:#E14A49;}
	.st157{fill:#E14D4C;}
	.st158{fill:#E14B49;}
	.st159{fill:#DE3E3D;}
	.st160{fill:#E45350;}
	.st161{fill:#E14544;}
	.st162{fill:#E54E4B;}
	.st163{fill:#E34240;}
	.st164{fill:#E75C5A;}
	.st165{fill:#EB7C7B;}
	.st166{fill:#F3A2A1;}
	.st167{fill:#EA7877;}
	.st168{fill:#E66B6A;}
	.st169{fill:#E96A69;}
	.st170{fill:#E56160;}
	.st171{fill:#E44845;}
	.st172{fill:#EC7473;}
	.st173{fill:#F9C0D3;}
	.st174{fill:#F298B5;}
	.st175{fill:#EE89A7;}
	.st176{fill:#E54D73;}
	.st177{fill:#E44771;}
	.st178{fill:#E7567E;}
	.st179{fill:#EC7797;}
	.st180{fill:#F8BCCF;}
	.st181{fill:#EB6D8F;}
	.st182{fill:#F089A8;}
	.st183{fill:#FCE2EB;}
	.st184{fill:#E55B7F;}
	.st185{fill:#E6708E;}
	.st186{fill:#EB87A2;}
	.st187{fill:#E25677;}
	.st188{fill:#E7678B;}
	.st189{fill:#FBD7E3;}
	.st190{fill:#ED80A1;}
	.st191{fill:#E24166;}
	.st192{fill:#E13B65;}
	.st193{fill:#E34870;}
	.st194{fill:#E76486;}
	.st195{fill:#F49DB8;}
	.st196{fill:#F7BFD1;}
	.st197{fill:#E65C7F;}
	.st198{fill:#F6ABC4;}
	.st199{fill:#F6A7C2;}
	.st200{fill:#EA6189;}
	.st201{fill:#DB3258;}
	.st202{fill:#DA2E55;}
	.st203{fill:#F7B2C9;}
	.st204{fill:#EA6A8D;}
	.st205{fill:#DC355B;}
	.st206{fill:#DB3159;}
	.st207{fill:#DF3C63;}
	.st208{fill:#F9C5D6;}
	.st209{fill:#EB7697;}
	.st210{fill:#DE3B61;}
	.st211{fill:#DE375F;}
	.st212{fill:#E1426A;}
	.st213{fill:#FDE7EE;}
	.st214{fill:#EE89A9;}
	.st215{fill:#E2456B;}
	.st216{fill:#E14069;}
	.st217{fill:#E44D75;}
	.st218{fill:#E86B8C;}
	.st219{fill:#EE7A9C;}
	.st220{fill:#F5A8C0;}
	.st221{fill:#FACBDA;}
	.st222{fill:#E65A7D;}
	.st223{fill:#E04169;}
	.st224{fill:#FEF5F9;}
	.st225{fill:#F191B0;}
	.st226{fill:#EA7292;}
	.st227{fill:#F6B4C9;}
	.st228{fill:#FBD8E5;}
	.st229{fill:#E96C8F;}
	.st230{fill:#E35477;}
	.st231{fill:#EA7396;}
	.st232{fill:#EB7A9D;}
	.st233{fill:#E8698D;}
	.st234{fill:#EB7094;}
	.st235{fill:#E04B6E;}
	.st236{fill:#E66085;}
	.st237{fill:#EB7294;}
	.st238{fill:#E7678C;}
	.st239{fill:#EA6D91;}
	.st240{fill:#E14C71;}
	.st241{fill:#EE7A9D;}
	.st242{fill:#F393B2;}
	.st243{fill:#DC3F64;}
	.st244{fill:#EF82A3;}
	.st245{fill:#F39DB9;}
	.st246{fill:#DF466B;}
	.st247{fill:#DF4469;}
	.st248{fill:#F29A98;}
	.st249{fill:#E64F4D;}
	.st250{fill:#E74947;}
	.st251{fill:#E85956;}
	.st252{fill:#EC7775;}
	.st253{fill:#F8BCBA;}
	.st254{fill:#EC6F6D;}
	.st255{fill:#FCE2E2;}
	.st256{fill:#F8C8C6;}
	.st257{fill:#F08B89;}
	.st258{fill:#F18A89;}
	.st259{fill:#B093A4;}
	.st260{fill:#A38295;}
	.st261{fill:#6F455A;}
	.st262{fill:#694055;}
	.st263{fill:#794F64;}
	.st264{fill:#936F83;}
	.st265{fill:#CDB7C1;}
	.st266{fill:#B596A5;}
	.st267{fill:#A58394;}
	.st268{fill:#8C667A;}
	.st269{fill:#B696A7;}
	.st270{fill:#E8E0E7;}
	.st271{fill:#E1BCC2;}
	.st272{fill:#A9666E;}
	.st273{fill:#681C23;}
	.st274{fill:#641920;}
	.st275{fill:#73242D;}
	.st276{fill:#8D3F48;}
	.st277{fill:#C69197;}
	.st278{fill:#893841;}
	.st279{fill:#E3CCCE;}
	.st280{fill:#6F292E;}
	.st281{fill:#A15A63;}
	.st282{fill:#944952;}
	.st283{fill:#944953;}
	.st284{fill:#964A53;}
	.st285{fill:#984B54;}
	.st286{fill:#974A53;}
	.st287{fill:#A25A62;}
	.st288{fill:#D2BCC8;}
	.st289{fill:#C8B2BE;}
	.st290{fill:#936A80;}
	.st291{fill:#8E667B;}
	.st292{fill:#9B7589;}
	.st293{fill:#B293A3;}
	.st294{fill:#916B7F;}
	.st295{fill:#DDCCD6;}
	.st296{fill:#AC8B9C;}
	.st297{fill:#F1EBEF;}
	.st298{fill:#9C7A8C;}
	.st299{fill:#8F6C80;}
	.st300{fill:#B99DAC;}
	.st301{fill:#A27F91;}
	.st302{fill:#C2A7B6;}
	.st303{fill:#AB8E9F;}
	.st304{fill:#936D82;}
	.st305{fill:#856174;}
	.st306{fill:#B99DAB;}
	.st307{fill:#C2A9B6;}
	.st308{fill:#A38091;}
	.st309{fill:#BBA3B0;}
	.st310{fill:#7A5468;}
	.st311{fill:#855F73;}
	.st312{fill:#AE8E9F;}
	.st313{fill:#7C556A;}
	.st314{fill:#7B5066;}
	.st315{fill:#855C71;}
	.st316{fill:#AF8E9F;}
	.st317{fill:#734B60;}
	.st318{fill:#694256;}
	.st319{fill:#916A80;}
	.st320{fill:#886378;}
	.st321{fill:#875C71;}
	.st322{fill:#714B5E;}
	.st323{fill:#582F42;}
	.st324{fill:#795066;}
	.st325{fill:#5E3A4B;}
	.st326{fill:#8A6578;}
	.st327{fill:#A98E9D;}
	.st328{fill:#B9A1B1;}
	.st329{fill:#B08F9F;}
	.st330{fill:#B898AA;}
	.st331{fill:#896578;}
	.st332{fill:#653C50;}
	.st333{fill:#623A4E;}
	.st334{fill:#6C4257;}
	.st335{fill:#B28FA1;}
	.st336{fill:#80596E;}
	.st337{fill:#7F586C;}
	.st338{fill:#765063;}
	.st339{fill:#683F53;}
	.st340{fill:#774E63;}
	.st341{fill:#704B5F;}
	.st342{fill:#674355;}
	.st343{fill:#7F5A6E;}
	.st344{fill:#815A6E;}
	.st345{fill:#6A4558;}
	.st346{fill:#5D374A;}
	.st347{fill:#926D80;}
	.st348{fill:#70475B;}
	.st349{fill:#72495E;}
	.st350{fill:#673D52;}
	.st351{fill:#673D51;}
	.st352{fill:#60364B;}
	.st353{fill:#795265;}
	.st354{fill:#683F52;}
	.st355{fill:#7A5368;}
	.st356{fill:#987387;}
	.st357{fill:#70475C;}
	.st358{fill:#A07D92;}
	.st359{fill:#81596E;}
	.st360{fill:#926C7F;}
	.st361{fill:#80596D;}
	.st362{fill:#CDC0E4;}
	.st363{fill:#A998CF;}
	.st364{fill:#644DA1;}
	.st365{fill:#5E479E;}
	.st366{fill:#6F56A9;}
	.st367{fill:#755CAC;}
	.st368{fill:#8975BA;}
	.st369{fill:#C4BAE0;}
	.st370{fill:#755DAD;}
	.st371{fill:#846DB7;}
	.st372{fill:#E7E2F2;}
	.st373{fill:#9B89C5;}
	.st374{fill:#8871B8;}
	.st375{fill:#9C89C6;}
	.st376{fill:#8673B9;}
	.st377{fill:#B9E1BA;}
	.st378{fill:#ADDBAE;}
	.st379{fill:#99D09A;}
	.st380{fill:#65B567;}
	.st381{fill:#5FB261;}
	.st382{fill:#70BB71;}
	.st383{fill:#8DCB8E;}
	.st384{fill:#CBE9CB;}
	.st385{fill:#86C687;}
	.st386{fill:#98D099;}
	.st387{fill:#EBF5EB;}
	.st388{fill:#B9D6C9;}
	.st389{fill:#8EBD9E;}
	.st390{fill:#7DB18E;}
	.st391{fill:#408251;}
	.st392{fill:#3A7F4C;}
	.st393{fill:#4A8C5B;}
	.st394{fill:#68A279;}
	.st395{fill:#B5D4BE;}
	.st396{fill:#7CB38B;}
	.st397{fill:#619D71;}
	.st398{fill:#E0ECE4;}
	.st399{fill:#74A38C;}
	.st400{fill:#679880;}
	.st401{fill:#669780;}
	.st402{fill:#669881;}
	.st403{fill:#285E41;}
	.st404{fill:#235A3C;}
	.st405{fill:#31684A;}
	.st406{fill:#4D8268;}
	.st407{fill:#A1C2B0;}
	.st408{fill:#679981;}
	.st409{fill:#467B62;}
	.st410{fill:#D6E5DF;}
	.st411{fill:#8ECA8F;}
	.st412{fill:#7DC07F;}
	.st413{fill:#409841;}
	.st414{fill:#3A933C;}
	.st415{fill:#4AA14B;}
	.st416{fill:#68B569;}
	.st417{fill:#7CC07D;}
	.st418{fill:#B5DDB5;}
	.st419{fill:#61B062;}
	.st420{fill:#7CC17E;}
	.st421{fill:#E0EFE0;}
	.st422{fill:#EBF5DE;}
	.st423{fill:#D4EAB8;}
	.st424{fill:#D2E9B4;}
	.st425{fill:#D8ECBE;}
	.st426{fill:#E2F0CE;}
	.st427{fill:#F3F9EA;}
	.st428{fill:#DFF0CA;}
	.st429{fill:#FAFDF7;}
	.st430{fill:#D3C9BE;}
	.st431{fill:#CBBEB3;}
	.st432{fill:#BBAC9F;}
	.st433{fill:#97826F;}
	.st434{fill:#947E69;}
	.st435{fill:#9F8A79;}
	.st436{fill:#B5A495;}
	.st437{fill:#DED6CE;}
	.st438{fill:#BBAD9F;}
	.st439{fill:#AE9E8D;}
	.st440{fill:#F2EFEC;}
	.st441{fill:#B1A091;}
	.st442{fill:#B1A090;}
	.st443{fill:#D8BACF;}
	.st444{fill:#976286;}
	.st445{fill:#905778;}
	.st446{fill:#4F1939;}
	.st447{fill:#4C1637;}
	.st448{fill:#5A2144;}
	.st449{fill:#773B60;}
	.st450{fill:#B88FAD;}
	.st451{fill:#6E345A;}
	.st452{fill:#8E567D;}
	.st453{fill:#E1CCDA;}
	.st454{fill:#C4E2A7;}
	.st455{fill:#93C35F;}
	.st456{fill:#8EC15A;}
	.st457{fill:#9AC868;}
	.st458{fill:#B0D587;}
	.st459{fill:#DCEBC3;}
	.st460{fill:#C8E0AA;}
	.st461{fill:#ABD280;}
	.st462{fill:#CAE2A9;}
	.st463{fill:#EFF8E7;}
	.st464{fill:#FFF6C0;}
	.st465{fill:#FFEC97;}
	.st466{fill:#FFDC4B;}
	.st467{fill:#FFD945;}
	.st468{fill:#FFDD54;}
	.st469{fill:#FFE774;}
	.st470{fill:#FFF4BA;}
	.st471{fill:#FFE46C;}
	.st472{fill:#FFF9E2;}
	.st473{fill:#FDE2C1;}
	.st474{fill:#F9CA98;}
	.st475{fill:#F9C18A;}
	.st476{fill:#F5994E;}
	.st477{fill:#F49448;}
	.st478{fill:#F8A158;}
	.st479{fill:#F8B577;}
	.st480{fill:#FCDDBC;}
	.st481{fill:#F8B06F;}
	.st482{fill:#FFEFE2;}
	.st483{fill:#F8A7A4;}
	.st484{fill:#EF8262;}
	.st485{fill:#EC605A;}
	.st486{fill:#EB5B55;}
	.st487{fill:#EC6964;}
	.st488{fill:#F28783;}
	.st489{fill:#F9C4C1;}
	.st490{fill:#F2817A;}
	.st491{fill:#EB6449;}
	.st492{fill:#FCE7E7;}
	.st493{fill:#FFEA88;}
	.st494{fill:#FFEB87;}
	.st495{fill:#FDF2E3;}
	.st496{fill:#FDEFDD;}
	.st497{fill:#F9E1C4;}
	.st498{fill:#FADEB9;}
	.st499{fill:#FADDB7;}
	.st500{fill:#FAE0BF;}
	.st501{fill:#FBE9CF;}
	.st502{fill:#F9DAB8;}
	.st503{fill:#FDF5EB;}
	.st504{fill:#FBE6CB;}
	.st505{fill:#FFFBF7;}
	.st506{fill:#FBDFBE;}
	.st507{fill:#F7D8B5;}
	.st508{fill:#FBE8CF;}
	.st509{fill:#FBE3C8;}
	.st510{fill:#F9E8CF;}
	.st511{fill:#F8DBB7;}
	.st512{fill:#FADBB5;}
	.st513{fill:#F7D5AE;}
	.st514{fill:#FDE9D5;}
	.st515{fill:#FAE3C8;}
	.st516{fill:#F7D1A4;}
	.st517{fill:#F5CD9D;}
	.st518{fill:#F7D8B0;}
	.st519{fill:#F8D4A9;}
	.st520{fill:#F8D3A6;}
	.st521{fill:#F8D8AF;}
	.st522{fill:#F7CD9E;}
	.st523{fill:#F4C896;}
	.st524{fill:#FBE3C5;}
	.st525{fill:#F7DBB8;}
	.st526{fill:#F7D8B1;}
	.st527{fill:#F7D7B0;}
	.st528{fill:#F8CD9F;}
	.st529{fill:#F8CD9E;}
	.st530{fill:#F1BE84;}
	.st531{fill:#F8D0A3;}
	.st532{fill:#F1C38D;}
	.st533{fill:#F8D8B1;}
	.st534{fill:#FBE2C8;}
	.st535{fill:#F9EAD3;}
	.st536{fill:#F9D3AA;}
	.st537{fill:#F7C896;}
	.st538{fill:#F7C794;}
	.st539{fill:#F7CA9A;}
	.st540{fill:#F7D3AB;}
	.st541{fill:#F8D8B5;}
	.st542{fill:#F9E6CF;}
	.st543{fill:#F7C897;}
	.st544{fill:#F8D3AA;}
	.st545{fill:#F7CEA2;}
	.st546{fill:#F4CD9E;}
	.st547{fill:#F5D2A5;}
	.st548{fill:#FBE2C2;}
	.st549{fill:#F5D1A8;}
	.st550{fill:#F8D5AB;}
	.st551{fill:#F2C695;}
	.st552{fill:#F8D3A8;}
	.st553{fill:#F5C998;}
	.st554{fill:#F5C894;}
	.st555{fill:#F2C997;}
	.st556{fill:#F2C48D;}
	.st557{fill:#F4C694;}
	.st558{fill:#F5CE9D;}
	.st559{fill:#F4C594;}
	.st560{fill:#F5C995;}
	.st561{fill:#F4C48F;}
	.st562{fill:#F7D2A6;}
	.st563{fill:#F8DFBB;}
	.st564{fill:#FBE2C3;}
	.st565{fill:#F8CC9E;}
	.st566{fill:#FADFC1;}
	.st567{fill:#F9D8B5;}
	.st568{fill:#F4C997;}
	.st569{fill:#F9DDB8;}
	.st570{fill:#FDFCED;}
	.st571{fill:#FBF7D2;}
	.st572{fill:#F9F6CB;}
	.st573{fill:#F4EBA8;}
	.st574{fill:#F5E9A6;}
	.st575{fill:#F5EDAC;}
	.st576{fill:#F7F5C0;}
	.st577{fill:#FBFBE1;}
	.st578{fill:#F7F0BE;}
	.st579{fill:#FAF6CE;}
	.st580{fill:#FFFBF5;}
	.st581{fill:#BDDB97;}
	.st582{fill:#BBDC99;}
	.st583{fill:#BDDD99;}
	.st584{fill:#B0D484;}
	.st585{fill:#AFD484;}
	.st586{fill:#FFEA87;}
	.st587{fill:#D3E9BA;}
	.st588{fill:#E1EECE;}
	.st589{fill:#D3E8BB;}
	.st590{fill:#E3EECE;}
	.st591{opacity:0.9;}
	.st592{fill:#FFF8CD;}
	.st593{opacity:0.9;fill:#FFEE8A;}
	.st594{fill:#FFF19E;}
	.st595{fill:#FFF5B6;}
	.st596{fill:#FFFBE0;}
	.st597{fill:none;stroke:#FFF4B1;stroke-width:0;}
	.st598{fill:#FFFDF3;}
	.st599{fill:#FACEDD;}
	.st600{opacity:0.9;fill:#F38CAF;}
	.st601{fill:#F5A0BD;}
	.st602{fill:#F8B8CD;}
	.st603{fill:#FCE1EA;}
	.st604{fill:none;stroke:#F7B2C9;stroke-width:0;}
	.st605{fill:#FEF3F7;}
	.st606{fill:#FBDBB6;}
	.st607{fill:#FBD1A3;}
	.st608{fill:#F9B674;}
	.st609{fill:#F8B36E;}
	.st610{fill:#FABB7E;}
	.st611{fill:#FACB99;}
	.st612{fill:#FDE9D1;}
	.st613{fill:#FAC893;}
	.st614{fill:#F9D0A1;}
	.st615{fill:#FFF5EC;}
	.st616{fill:#D7ECC0;}
	.st617{fill:#B1D684;}
	.st618{fill:#ADD680;}
	.st619{fill:#B7D98D;}
	.st620{fill:#C8E2A7;}
	.st621{fill:#E8F2D6;}
	.st622{fill:#C3E0A0;}
	.st623{fill:#F5FAEF;}
	.st624{fill:#A87699;}
	.st625{fill:#A9716E;}
	.st626{fill:#9F698A;}
	.st627{fill:#9F698D;}
	.st628{fill:#65294F;}
	.st629{fill:#632638;}
	.st630{fill:#62244A;}
	.st631{fill:#612335;}
	.st632{fill:#6E3259;}
	.st633{fill:#6D2F40;}
	.st634{fill:#8B4E74;}
	.st635{fill:#C4A1BB;}
	.st636{fill:#9D688D;}
	.st637{fill:#82476E;}
	.st638{fill:#E7D6E1;}
	.st639{fill:#FFF9D6;}
	.st640{fill:#FFF2A6;}
	.st641{fill:#FFF4B0;}
	.st642{fill:#FFF7C4;}
	.st643{fill:#FFFCE6;}
	.st644{fill:#FFF3B5;}
	.st645{fill:#FFED8B;}
	.st646{fill:#FFED94;}
	.st647{fill:#FFF1A4;}
	.st648{fill:#FFF5BF;}
	.st649{fill:#FFF6CD;}
	.st650{fill:#FFE46E;}
	.st651{fill:#FFED98;}
	.st652{fill:#FFF3A9;}
	.st653{fill:#FFEC8D;}
	.st654{fill:#FFE66B;}
	.st655{fill:#FFEC8A;}
	.st656{fill:#FFE66D;}
	.st657{fill:#FFE571;}
	.st658{fill:#FFEF94;}
	.st659{fill:#FFEF9E;}
	.st660{fill:#FFED93;}
	.st661{fill:#FFE873;}
	.st662{fill:#FFE97A;}
	.st663{fill:#FFEC87;}
	.st664{fill:#FFF19F;}
	.st665{fill:#FFF1A8;}
	.st666{fill:#FFEA7E;}
	.st667{fill:#FFEB86;}
	.st668{fill:#FFEF97;}
	.st669{fill:#FFF2B0;}
	.st670{fill:#FFF4BC;}
	.st671{fill:#FFF5C1;}
	.st672{fill:#FFF8CF;}
	.st673{fill:#FFF8DC;}
	.st674{fill:#FFF0A0;}
	.st675{fill:#FFEE92;}
	.st676{fill:#FFF6CE;}
	.st677{fill:#FFFADD;}
	.st678{fill:#FFFBEC;}
	.st679{fill:#FFFDF5;}
	.st680{fill:#F49C52;}
	.st681{fill:#F69D52;}
	.st682{fill:#F8A55E;}
	.st683{fill:#F8B472;}
	.st684{fill:#F59D54;}
	.st685{fill:#F8A65F;}
	.st686{fill:#F8B474;}
	.st687{fill:#FDF3E9;}
	.st688{fill:#FAE8D1;}
	.st689{fill:#FAE8CF;}
	.st690{fill:#FAEBD4;}
	.st691{fill:#F9EDD7;}
	.st692{fill:#FBEFDE;}
	.st693{fill:#FBEFDD;}
	.st694{fill:#FDF8F1;}
	.st695{fill:#FBEDD7;}
	.st696{fill:#FBEFDC;}
	.st697{fill:#FFFBFA;}
	.st698{fill:#FFE771;}
	.st699{fill:#FFEB83;}
	.st700{fill:#FFED90;}
	.st701{fill:#F7B6CB;}
	.st702{fill:#F4A2BB;}
	.st703{fill:#EE7397;}
	.st704{fill:#ED6D94;}
	.st705{fill:#EF7C9F;}
	.st706{fill:#F399B5;}
	.st707{fill:#FAD1DE;}
	.st708{fill:#F291AE;}
	.st709{fill:#F3A1BB;}
	.st710{fill:#FDECF2;}
</style>
<g>
	<path class="st701" d="M80.69,19.58c-1.08,0-2.12,0.53-2.81,1.13c-2.05,1.58-4,3.35-6.11,3.62c0.48,0.38,0.89,1.05,1.33,1.41
		c0.51,0.34,1.08,0.39,1.68,0.39c0.1,0,0.2,0,0.3,0c0.1,0,0.2,0,0.31,0c0.3,0,0.61,0.01,0.91,0.06c0.45,0.22,0.79,0.55,1.18,1.04
		c0.23,0.34,0.52,0.45,0.85,0.45c0.42,0,0.9-0.18,1.38-0.26c0.13-0.04,0.25-0.06,0.37-0.06c0.92,0,1.66,1.05,2.49,1.23
		c0.21,0.06,0.43,0.08,0.66,0.08c0.45,0,0.92-0.08,1.38-0.12c0.1-0.01,0.19-0.01,0.29-0.01c0.57,0,1.1,0.13,1.36,0.66
		c-0.03-0.06-0.04-0.11-0.04-0.15c0-0.07,0.04-0.1,0.11-0.1c0.25,0,0.9,0.39,1.46,0.91c0.58,0.53,1.02,1.16,1.02,1.36
		c0,0.04-0.02,0.06-0.06,0.06c-0.02,0-0.05-0.01-0.09-0.02c0.01,0.01,0.01,0.03,0.01,0.05c0,0.17-0.19,0.59-0.41,0.83
		c-0.2,0.16-0.48,0.47-0.62,0.49c-1.11,0.2-2.17,1.42-3.16,2.25c0,0.01,0,0.01,0,0.02c0,0.1,0.17,0.39,0.22,0.75
		c0.01,0.05,0.01,0.09,0.01,0.14c0,0.35-0.17,0.72-0.57,1c-0.78,0.55-1.8,0.83-1.91,1.12c0.1,0.05,0.74-0.02,0.85,0.08
		c0.02,0.07,0.39,0.25,0.92,0.77c0.53,0.49,1.21,1.44,1.83,2.34c1.12,1.58,1.99,3.24,1.99,3.83c0,0.08-0.02,0.14-0.05,0.18
		c-0.3,0.27-0.91,0.47-1.45,0.47c-0.21,0-0.4-0.03-0.57-0.1c-1.78-0.47-2.71-0.15-4.2-0.49c-0.4-0.1-0.85-0.31-1.25-0.41
		c-1.1-0.22-2.35-0.54-2.57-0.63l-0.12-0.04l-0.03-0.01l0.05,0.02c0,0,0.01,0,0.01,0.01c0.57,0.24,1.14,0.49,1.72,0.74
		c0,0,0,0-0.01,0l0,0l0,0l0.01,0.01c0,0,0,0,0.01,0l0,0l0.03,0.01c0,0,0.01,0,0.01,0.01l0.01,0l0,0h0v0
		c0.11,0.05,0.16,0.07,0.16,0.07l0,0l0,0c0,0-0.08-0.03-0.16-0.07c0,0,0,0,0,0l0,0l0,0c-0.02-0.01-0.03-0.01-0.05-0.02l0,0
		l0.02,0.01l0.01,0c0,0,0.01,0,0.01,0.01c0.04,0.02,0.1,0.06,0.16,0.1c0.06,0.04,0.12,0.08,0.19,0.13c0.08,0.06,0.17,0.13,0.27,0.21
		c0.16,0.12,0.32,0.27,0.49,0.43c0.24,0.23,0.49,0.49,0.7,0.76l0,0l0,0c-0.1-0.12-0.21-0.24-0.31-0.36
		c0.17,0.18,0.33,0.37,0.47,0.56c-0.22-0.28-0.46-0.56-0.7-0.8c0,0,0,0,0,0l0,0l0,0c0,0,0.4,0.3,1.31,0.76c0,0,0.31,0.11,0.86,0.19
		c0.31,0.05,0.69,0.09,1.13,0.09c0.35,0,0.74-0.03,1.16-0.1c1.09-0.13,2.32-0.47,3.42-0.47c0.79,0,1.52,0.18,2.09,0.75
		c0,0,0.17,0.17,0.44,0.49c0.28,0.32,0.66,0.8,1.08,1.45c0.83,1.28,1.79,3.33,1.91,6.05c0.01,0.18,0.01,0.36,0.01,0.54
		c0,2.58-0.84,5.77-3.44,8.52c-0.68,0.73-1.5,1.41-2.42,2c-0.45,0.3-0.95,0.56-1.45,0.82c-0.48,0.24-0.96,0.44-1.46,0.63
		c-1.92,0.72-3.6,1.01-4.94,1.08c0,0,0,0,0,0c-0.02,0-0.18,0-0.46,0.09c1.19,1.32,2.38,2.64,3.57,3.96l0,0l0.06-0.03l0.12-0.06
		l0.05-0.03l-0.1,0.09l-0.2,0.17c-0.71,0.62-1.5,1.18-2.17,1.61c0.23-0.02,0.45-0.04,0.65-0.05l0,0c0.19-0.01,0.39-0.02,0.57-0.02
		c0,0,0.01,0,0.01,0l0,0c0,0,0,0,0.01,0c0.17,0,0.32,0.01,0.44,0.02c0.15-0.01,0.31-0.02,0.46-0.04c1.82-0.19,3.92-0.57,6.44-2.25
		c1.18-0.85,2.22-1.77,3.13-2.73c0.18-0.22,0.35-0.45,0.51-0.69l0,0l0,0l0,0l0,0l0,0l0,0c-0.16,0.24-0.33,0.46-0.51,0.68
		c1.42-1.5,2.55-3.09,3.47-4.64c1.51-2.57,2.53-5.02,3.63-7.42c0.3-0.69,0.58-1.37,0.84-2.03c0.25-0.65,0.5-1.29,0.74-1.93
		c0.46-1.23,0.91-2.41,1.39-3.58c0.15-0.42,0.94-1.26,1.78-2.16c0.82-0.86,1.7-1.78,2.12-2.23c0.6-0.63,0.83-1.4,0.83-2.19
		c0-1.25-0.59-2.53-1.25-3.38c-2.08-2.16-3.41-4.81-5.53-8.23c-0.57-1.25-0.54-2.78-1.37-4.19c-1.14-1.55-2.55-2.45-3.92-3.07
		c-1.37-0.62-2.73-0.94-4.02-1.36c-2.19-1.09-3.82-1.42-4.99-1.58c-0.46-0.05-0.85-0.07-1.18-0.07c-0.52,0-0.9,0.05-1.17,0.11
		c-0.76,0.18-0.79,0.42-0.86,0.42c-0.01,0-0.03-0.01-0.06-0.03c-0.8-0.17-0.82-1.59-1.84-2.04C81.3,19.62,80.99,19.58,80.69,19.58"
		/>
	<path class="st701" d="M82.67,37.53c0,0-0.01,0-0.02,0.01L82.67,37.53 M69.84,24.13c0.05,0.07,0.09,0.14,0.12,0.22
		c0.14-0.02,0.28-0.03,0.42-0.06C70.2,24.24,70.02,24.19,69.84,24.13"/>
	<path class="st701" d="M82.67,37.53l-0.03,0.01c0,0,0,0,0,0c0,0,0,0,0,0C82.65,37.54,82.66,37.54,82.67,37.53"/>
	<path class="st701" d="M82.04,37.78c-0.03,0.01-0.06,0.02-0.1,0.03c-0.01,0-0.02,0.01-0.04,0.01c0,0,0,0-0.01,0l0,0
		c0.02-0.01,0.05-0.02,0.07-0.03C82,37.8,82.02,37.79,82.04,37.78"/>
	<polyline class="st701" points="77.62,43.97 77.65,43.99 77.7,44.01 77.72,44.02 77.71,44.01 77.66,43.99 77.62,43.97 77.62,43.97 
			"/>
	<path class="st701" d="M78.05,44.16l1.31,0.56c0,0,0,0,0,0C79.14,44.63,78.74,44.46,78.05,44.16"/>
	<polyline class="st701" points="79.36,44.72 79.36,44.72 79.36,44.72 79.36,44.72 79.36,44.72 	"/>
	<path class="st701" d="M79.36,44.72L79.36,44.72c0.01,0,0.02,0.01,0.02,0.01l0,0C79.38,44.73,79.37,44.73,79.36,44.72"/>
	<polyline class="st701" points="79.36,44.72 79.36,44.72 79.36,44.72 79.36,44.72 79.36,44.72 	"/>
	<polyline class="st701" points="79.36,44.72 79.36,44.72 79.37,44.73 79.37,44.73 79.36,44.72 	"/>
	<path class="st701" d="M79.37,44.73c0.01,0.01,0.03,0.01,0.04,0.02v0c0,0-0.01,0-0.01,0l-0.01,0l0,0L79.37,44.73"/>
	<path class="st701" d="M79.39,44.73L79.39,44.73l0.01,0l0,0C79.4,44.74,79.39,44.74,79.39,44.73"/>
	<path class="st701" d="M79.4,44.75c0.02,0.01,0.05,0.03,0.08,0.05C79.45,44.77,79.42,44.76,79.4,44.75"/>
	<path class="st701" d="M79.78,45c0.05,0.03,0.09,0.07,0.14,0.11c0.01,0.01,0.02,0.01,0.02,0.02C79.9,45.08,79.84,45.04,79.78,45"/>
	<path class="st701" d="M81.49,46.72c0.01,0.02,0.02,0.03,0.03,0.05c0.13,0.18,0.21,0.32,0.28,0.43c-0.01-0.02-0.03-0.05-0.04-0.07
		C81.68,47,81.59,46.86,81.49,46.72"/>
	<path class="st701" d="M82.01,47.56c0.02,0.04,0.04,0.08,0.07,0.13C82.05,47.65,82.03,47.6,82.01,47.56"/>
	<path class="st701" d="M82.08,47.7c0.01,0.04,0.03,0.07,0.06,0.12C82.12,47.78,82.1,47.74,82.08,47.7"/>
	<path class="st701" d="M82.47,48.71c0.05,0.12,0.1,0.24,0.16,0.36c0.01,0.03,0.03,0.06,0.05,0.09c-0.01-0.04-0.01-0.09-0.02-0.13
		C82.58,48.92,82.52,48.81,82.47,48.71"/>
	<path class="st701" d="M82.09,52.93c-0.94,0.88-2.31,1.64-3.7,2.4c-0.56,0.31-1.15,0.63-1.71,0.96c0.12-0.04,0.25-0.08,0.37-0.12
		c1.53-0.52,3.04-1.15,4.15-2.18C81.55,53.68,81.85,53.32,82.09,52.93"/>
	<path class="st701" d="M45.76,55.2c-0.23,0.05-0.45,0.18-0.59,0.41c-0.99,1.74-1.49,3.59-1.49,5.43c0,0.75,0.08,1.49,0.25,2.22
		c0.28,1.17,0.98,2.03,1.87,2.7c0.45,0.33,0.98,0.6,1.51,0.88c0.54,0.24,1.08,0.48,1.64,0.72c1.07,0.44,1.99,1.11,2.83,1.97
		c-0.06-0.11-0.15-0.28-0.28-0.49c-0.2-0.35-0.49-0.79-0.82-1.25c-0.55-0.07-1.1-0.16-1.65-0.27c-0.55-0.22-1.11-0.48-1.63-0.72
		c-0.53-0.27-1.05-0.55-1.51-0.87c-0.44-0.35-0.84-0.71-1.17-1.15c-0.31-0.46-0.57-0.96-0.71-1.54c-0.17-0.74-0.25-1.5-0.25-2.25
		c0-1.82,0.49-3.66,1.48-5.39C45.36,55.39,45.56,55.27,45.76,55.2"/>
	<path class="st701" d="M87.29,55.3c0.01,0.07,0.01,0.14,0.01,0.22c0.01,0.16,0.01,0.32,0.01,0.48c0,1.03-0.19,2.12-0.59,3.14
		c0.48-0.99,0.75-2.11,0.75-3.29c0-0.03,0-0.07,0-0.1C87.47,55.75,87.41,55.58,87.29,55.3"/>
	<polyline class="st701" points="74.91,63.1 74.93,63.13 74.93,63.13 74.92,63.12 74.93,63.13 74.93,63.13 74.91,63.1 	"/>
	<polyline class="st701" points="74.92,63.12 74.93,63.13 74.93,63.13 74.93,63.14 74.93,63.13 74.92,63.12 	"/>
	<polyline class="st701" points="74.93,63.13 74.93,63.13 74.93,63.14 74.93,63.14 74.93,63.13 	"/>
	<polyline class="st701" points="74.93,63.13 74.93,63.14 74.93,63.14 74.93,63.13 	"/>
	<polyline class="st701" points="74.93,63.13 74.93,63.14 74.93,63.14 74.93,63.13 	"/>
	<polyline class="st701" points="74.93,63.14 74.93,63.14 74.94,63.14 74.94,63.14 74.93,63.14 74.93,63.14 	"/>
	<polyline class="st701" points="74.93,63.14 74.94,63.14 74.93,63.14 74.93,63.14 74.93,63.14 	"/>
	<polyline class="st701" points="75,63.22 75.01,63.22 75.01,63.22 75,63.22 	"/>
	<path class="st701" d="M80.11,64.01c-0.3,0.01-0.65,0.03-1.03,0.04c-0.73,0.03-1.46,0.08-1.99,0.16c0.24,0.04,0.53,0.07,0.89,0.07
		c0.32,0,0.69-0.02,1.13-0.08C79.4,64.16,79.74,64.1,80.11,64.01"/>
	<path class="st701" d="M79.05,67.66l-0.03,0.02c0.02,0.02,0.03,0.03,0.05,0.05l0,0v0l0,0l0.01-0.05L79.05,67.66"/>
	<path class="st701" d="M79.03,67.68L79.03,67.68c0.07,0.08,0.11,0.12,0.11,0.12c0,0-0.02-0.02-0.06-0.07l0,0l0,0l0,0
		C79.06,67.71,79.04,67.7,79.03,67.68"/>
	<path class="st701" d="M79.91,68.65c-0.1,0.03-0.23,0.08-0.37,0.14c-0.24,0.12-0.54,0.29-0.89,0.56c-0.33,0.27-0.67,0.63-1.05,1.12
		c0,0,0,0,0,0c0,0,0,0,0,0c0,0.02-1.03,0.5-1.1,0.71l-0.01,0.01c0.03,0.52,0.07,1.05,0.1,1.58c0.04,0.65,0.07,1.31,0.09,1.96
		l0.02,0.98l0,0.49l0,0.1l0.08-0.1c0,0,0.01,0,0.01-0.01c0.01-0.01,0.01-0.01,0.02-0.02c0.02-0.02,0.03-0.04,0.05-0.06
		c0.02-0.02,0.04-0.04,0.08-0.06l0,0l0,0c0.1-0.05,0.2-0.1,0.3-0.17l0,0c0.15-0.13,0.47-0.28,0.68-0.46
		c0.21-0.19,0.4-0.41,0.57-0.67c0,0,0.19-0.04,0.48-0.1c0.05-0.01,0.11-0.02,0.17-0.03c0.28-0.05,0.69-0.11,1.1-0.16l0,0l0,0
		c0.28-0.03,0.55-0.06,0.82-0.09l0,0c0.06-0.01,0.12-0.01,0.18-0.02c0.67-0.43,1.46-0.99,2.17-1.61l0.2-0.17l0.1-0.09l-0.05,0.03
		l-0.12,0.06l-0.06,0.03l0,0C82.29,71.29,81.1,69.97,79.91,68.65"/>
	<path class="st701" d="M76.34,69.17c-0.09,0.05-0.18,0.1-0.27,0.15c-1,0.52-2.02,1.03-3,1.48c-0.98,0.45-1.87,0.84-2.51,1.28
		c0,0-0.9-0.19-1.95-0.29c-0.32-0.03-0.65-0.05-0.99-0.05c-0.35,0-0.71,0.03-1.04,0.1c-0.07,0.03-0.14,0.07-0.21,0.1
		c-0.53,0.24-0.83,0.37-0.83,0.37l0,0l0,0c0.3-0.24,0.65-0.38,1.03-0.47c0.36-0.17,0.8-0.39,1.28-0.65
		c-0.56,0.24-1.14,0.44-1.7,0.61c-1.79,0.52-3.51,0.76-4.74,0.76c-0.93,0-1.59-0.14-1.8-0.41l0,0l0,0c0,0,0,0,0,0
		c0,0-0.53-0.03-1.13-0.12c-0.58-0.08-1.4-0.23-2.25-0.42c-1.5-0.34-3.17-0.94-4.05-1.61c0.22,0.24,0.43,0.49,0.63,0.76
		c1.11,1.41,2.09,3.1,2.95,4.75c0.61,1.29,1.15,2.9,1.97,4.18c0.42,0.64,0.86,1.18,1.42,1.55c0.59,0.28,1.28,0.42,2.06,0.42
		c0.25,0,0.5-0.01,0.77-0.04c2.58-0.39,4.9-1.24,7.06-2.21c1.01-0.44,2-0.9,3.02-1.33c-0.74,0.28-1.44,0.55-2.09,0.8l0,0
		c-0.74,0.29-1.42,0.57-2,0.81c-0.41,0.17-0.77,0.32-1.08,0.46l0,0c-0.51,0.22-0.87,0.39-1.06,0.48c-0.09,0.04-0.13,0.07-0.13,0.07
		l0,0l0,0c0,0,0.05-0.02,0.13-0.07c0.18-0.09,0.55-0.26,1.06-0.48l0,0c0.31-0.14,0.67-0.29,1.08-0.46c0.58-0.24,1.26-0.51,2-0.81
		l0,0c0.66-0.25,1.35-0.52,2.1-0.8c1-0.43,2.04-0.83,3.14-1.2c0.49-0.18,0.98-0.37,1.49-0.55l0,0l0.01-0.01l0-0.1l0-0.49l-0.02-0.98
		c-0.02-0.66-0.05-1.31-0.09-1.96c-0.03-0.53-0.07-1.06-0.1-1.58l-0.01,0.01l0,0h-0.01l0.01,0l-0.01-0.27c0-0.01,0-0.02,0-0.02
		c-0.02-0.32-0.04-0.64-0.06-0.96c0-0.04-0.01-0.07-0.01-0.11C76.38,69.61,76.36,69.39,76.34,69.17"/>
	<path class="st701" d="M76.41,69.94c0.02,0.32,0.04,0.64,0.06,0.96C76.46,70.59,76.44,70.27,76.41,69.94"/>
	<path class="st701" d="M82.49,74.31c-0.18,0-0.38,0.01-0.58,0.02l0,0c-0.2,0.01-0.42,0.03-0.65,0.05
		c-0.03,0.02-0.05,0.03-0.08,0.05c0.56-0.02,1.14-0.04,1.76-0.09C82.81,74.31,82.66,74.31,82.49,74.31L82.49,74.31"/>
	<path class="st701" d="M81.25,74.37c-0.06,0.01-0.12,0.01-0.18,0.02l0,0c-0.27,0.03-0.55,0.06-0.82,0.09l0,0l0,0
		c-0.41,0.05-0.82,0.11-1.1,0.16c-0.06,0.01-0.12,0.02-0.17,0.03c-0.29,0.06-0.48,0.1-0.48,0.1c-0.17,0.26-0.36,0.48-0.57,0.67
		c-0.21,0.19-0.53,0.33-0.68,0.46l0,0c-0.1,0.06-0.2,0.12-0.3,0.17l0,0l0,0c-0.04,0.02-0.06,0.04-0.08,0.06
		c-0.02,0.02-0.04,0.04-0.05,0.06c-0.01,0.01-0.01,0.01-0.02,0.02c0,0-0.01,0-0.01,0.01l-0.08,0.1l0,0.01
		c0.76-0.28,1.55-0.55,2.36-0.81c0.43-0.19,0.84-0.39,1.25-0.61c0.27-0.15,0.53-0.3,0.8-0.47c0.01,0,0.03,0,0.04,0
		C81.2,74.4,81.23,74.38,81.25,74.37"/>
	<path class="st702" d="M76.8,76.2L76.8,76.2C76.8,76.2,76.8,76.2,76.8,76.2C76.8,76.2,76.8,76.2,76.8,76.2l-0.09,0.1L76.8,76.2
		C76.8,76.2,76.8,76.2,76.8,76.2 M79.16,74.63L79.16,74.63c-0.06,0.01-0.12,0.02-0.17,0.03l0,0l0,0c-0.29,0.06-0.48,0.1-0.48,0.1
		l0,0l0,0c-0.17,0.25-0.35,0.47-0.55,0.65c-0.01,0.01-0.01,0.01-0.02,0.02c-0.21,0.19-0.53,0.33-0.68,0.46l0,0l0,0
		c0.15-0.13,0.47-0.28,0.68-0.46c0.21-0.19,0.4-0.41,0.57-0.67c0,0,0.19-0.04,0.48-0.1C79.04,74.66,79.09,74.64,79.16,74.63
		 M81.25,74.37c-0.06,0.01-0.12,0.01-0.18,0.02l0,0l0,0C81.14,74.38,81.2,74.37,81.25,74.37L81.25,74.37"/>
	<path class="st701" d="M79.08,75.5c-0.81,0.26-1.6,0.53-2.36,0.81l0,0.01v0l-0.01,0.02l0,0c0-0.01,0.01-0.01,0.01-0.02l0,0
		c-0.51,0.18-1,0.37-1.49,0.55c0.18-0.06,0.37-0.12,0.56-0.18C76.97,76.34,78.05,75.96,79.08,75.5"/>
	<polyline class="st701" points="76.72,76.3 76.71,76.31 76.71,76.31 76.72,76.31 76.72,76.3 	"/>
	<polyline class="st701" points="76.72,76.31 76.71,76.31 76.71,76.31 76.72,76.31 76.72,76.32 76.72,76.31 	"/>
	<path class="st703" d="M82.19,47.94l0,0.04l0,0c0,0.11-0.11,0.16-0.17,0.25c-0.05,0.08-0.21,0.15-0.31,0.27
		c-0.1,0.12-0.25,0.28-0.39,0.51c-0.5,0.7-2,1.26-4.2,1.81c-1.06,0.27-2.32,0.61-3.47,1.05c-0.29,0.12-0.57,0.23-0.84,0.34
		c-0.28,0.13-0.55,0.26-0.79,0.39c-0.48,0.24-0.93,0.54-1.26,0.78c-0.32,0.22-0.63,0.49-0.91,0.75c-0.28,0.26-0.56,0.49-0.78,0.77
		c-0.44,0.5-0.97,1.12-1.04,1.37c-0.24,0.57-0.46,1.12-0.72,1.57c-0.49,0.89-1.25,1.47-2.43,1.53c-0.17-0.01-0.33-0.01-0.49-0.01
		c-0.71,0-1.3,0.09-1.89,0.21c-0.55,0.11-1.12,0.22-1.74,0.22c-0.18,0-0.35-0.01-0.54-0.03c-0.17-0.01-0.34-0.01-0.49-0.01
		c-0.65,0-1.19,0.05-1.87,0.09c-0.42,0.03-0.84,0.05-1.28,0.05c-0.45,0-0.92-0.02-1.42-0.09c-1.81-0.64-3.3-1.11-4.84-1.47
		c-0.23,0.03-0.47,0.07-0.67,0.23c-0.06,0.05-0.13,0.07-0.21,0.07c-0.09,0-0.2-0.02-0.3-0.05c-0.1-0.02-0.2-0.05-0.28-0.05
		c0,0-0.01,0-0.01,0c-1.15-0.92-1.43-2.66-2.39-3.27c-0.09-0.07-0.23-0.11-0.39-0.11c-0.1,0-0.2,0.01-0.31,0.05
		c0.08-0.02,0.17-0.03,0.24-0.03c0.16,0,0.31,0.04,0.4,0.11c0.96,0.62,1.24,2.37,2.39,3.29c0.17,0,0.39,0.1,0.59,0.1
		c0.08,0,0.15-0.02,0.21-0.06c0.21-0.17,0.44-0.2,0.67-0.23c1.54,0.36,3.03,0.83,4.85,1.48c0.51,0.06,0.98,0.09,1.44,0.09
		c0.43,0,0.84-0.02,1.26-0.05c0.68-0.04,1.22-0.09,1.87-0.09c0.16,0,0.33,0,0.5,0.01c0.19,0.02,0.37,0.03,0.54,0.03
		c0.62,0,1.18-0.12,1.74-0.22c0.58-0.12,1.16-0.21,1.86-0.21c0.17,0,0.34,0.01,0.52,0.02c1.2-0.06,1.98-0.64,2.48-1.56
		c0.26-0.46,0.47-1,0.71-1.57c0.04-0.23,0.57-0.85,1-1.34c0.45-0.51,1.02-1.03,1.65-1.51c0.33-0.23,0.77-0.56,1.25-0.79
		c0.25-0.12,0.51-0.26,0.79-0.4c0.27-0.12,0.54-0.23,0.84-0.34c1.16-0.45,2.42-0.78,3.48-1.06c2.21-0.55,3.72-1.11,4.23-1.81
		c0.3-0.46,0.54-0.63,0.73-0.78c0.06-0.08,0.16-0.14,0.18-0.25l0-0.09C82.2,47.95,82.2,47.95,82.19,47.94"/>
	<path class="st703" d="M82.36,48.4c0.01,0.03,0.01,0.05,0.02,0.07v0c0-0.02-0.01-0.04-0.01-0.04l0,0l0,0c0,0,0,0.01,0.01,0.02
		l0-0.01L82.36,48.4L82.36,48.4"/>
	<path class="st703" d="M82.37,48.47L82.37,48.47c0.01,0.03,0.01,0.04,0.01,0.04S82.38,48.5,82.37,48.47
		C82.37,48.48,82.37,48.47,82.37,48.47"/>
	<path class="st704" d="M82.37,48.47L82.37,48.47C82.37,48.47,82.37,48.48,82.37,48.47c0.01,0.02,0.01,0.04,0.01,0.04l0,0l0,0
		C82.38,48.52,82.38,48.51,82.37,48.47L82.37,48.47L82.37,48.47 M82.37,48.47c0-0.02-0.01-0.04-0.02-0.07l0,0l0,0l0,0.01l0.01,0.04
		l0,0.01l0,0c0-0.02-0.01-0.02-0.01-0.02C82.36,48.43,82.37,48.45,82.37,48.47L82.37,48.47L82.37,48.47 M82.2,47.95l0,0.09
		c-0.02,0.1-0.12,0.16-0.18,0.25c-0.19,0.15-0.43,0.32-0.73,0.78c-0.51,0.7-2.02,1.25-4.23,1.81c-1.06,0.28-2.32,0.61-3.48,1.06
		c-0.3,0.12-0.57,0.22-0.84,0.34c-0.28,0.14-0.54,0.27-0.79,0.4c-0.48,0.24-0.93,0.56-1.25,0.79c-0.62,0.47-1.2,0.99-1.65,1.51
		c-0.43,0.49-0.95,1.11-1,1.34c-0.24,0.57-0.45,1.11-0.71,1.57c-0.5,0.92-1.27,1.5-2.48,1.56c-0.18-0.01-0.36-0.02-0.52-0.02
		c-0.7,0-1.28,0.09-1.86,0.21c-0.56,0.1-1.12,0.22-1.74,0.22c-0.18,0-0.36-0.01-0.54-0.03c-0.18-0.01-0.34-0.01-0.5-0.01
		c-0.65,0-1.19,0.05-1.87,0.09c-0.42,0.03-0.83,0.05-1.26,0.05c-0.46,0-0.93-0.02-1.44-0.09c-1.82-0.65-3.3-1.12-4.85-1.48
		c-0.23,0.03-0.46,0.06-0.67,0.23c-0.06,0.05-0.13,0.06-0.21,0.06c-0.19,0-0.42-0.1-0.59-0.1c-1.15-0.92-1.43-2.67-2.39-3.29
		c-0.09-0.07-0.23-0.11-0.4-0.11c-0.08,0-0.16,0.01-0.24,0.03c-0.2,0.06-0.4,0.19-0.52,0.4c-0.98,1.73-1.48,3.57-1.48,5.39
		c0,0.76,0.08,1.51,0.25,2.25c0.14,0.58,0.39,1.08,0.71,1.54c0.32,0.44,0.73,0.8,1.17,1.15c0.46,0.32,0.98,0.61,1.51,0.87
		c0.53,0.23,1.08,0.49,1.63,0.72c0.56,0.11,1.11,0.2,1.65,0.27c-0.04-0.05-0.07-0.1-0.11-0.15c-0.79-1.02-1.76-2.08-3.07-2.26
		c0,0-0.41-0.4-0.9-0.97c-0.47-0.61-1.02-1.4-1.34-2.22c-0.26-0.63-0.4-1.22-0.4-1.68c0-0.52,0.2-0.86,0.64-0.86
		c0.17,0,0.37,0.05,0.62,0.16c0,0,0.49,0.04,1.11,0.08c0.59,0.01,1.3,0.02,1.76,0.03c0,0,0.66,0.36,1.84,0.77
		c1.17,0.42,2.88,0.84,4.73,1.13c0.92,0.16,1.88,0.27,2.78,0.38c0.87,0.11,1.69,0.22,2.41,0.31c1.48,0.21,2.64,0.37,2.95,0.63
		c0,0,0.18,0.01,0.52,0.04c0.11,0,0.23,0.01,0.37,0.01c0.29,0,0.65-0.01,1.05-0.06c0.59-0.07,1.3-0.23,2.01-0.58
		c0.71-0.36,1.37-0.95,1.95-1.68c0.43-0.52,0.85-1.1,1.35-1.64c0.49-0.51,1.04-0.96,1.69-1.34c1.18-0.71,2.62-1.12,4.03-1.59
		c0.56-0.34,1.15-0.66,1.71-0.96c1.4-0.76,2.76-1.52,3.7-2.4c0.43-0.7,0.68-1.5,0.68-2.38c0-0.22-0.01-0.44-0.05-0.66l0,0l0,0
		c0,0,0-0.03,0-0.08c0-0.12-0.01-0.35-0.04-0.62c0-0.01,0-0.03,0-0.04c-0.02-0.03-0.03-0.06-0.05-0.09
		c-0.06-0.12-0.11-0.25-0.16-0.36c-0.04-0.09-0.08-0.17-0.1-0.25c-0.03-0.09-0.04-0.17-0.11-0.36
		C82.24,48.06,82.22,48.01,82.2,47.95"/>
	<path class="st705" d="M82.66,49.03c0.01,0.04,0.01,0.09,0.02,0.13c0,0.01,0,0.03,0,0.04c0.04,0.26,0.04,0.5,0.04,0.62
		c0,0.05,0,0.08,0,0.08c0.03,0.23,0.05,0.45,0.05,0.66c0,0.88-0.25,1.68-0.68,2.38c-0.24,0.39-0.54,0.75-0.89,1.06
		c-1.11,1.04-2.62,1.67-4.15,2.18c-0.12,0.04-0.25,0.08-0.37,0.12c-1.41,0.46-2.84,0.88-4.03,1.59c-0.65,0.38-1.2,0.83-1.69,1.34
		c-0.5,0.54-0.92,1.12-1.35,1.64c-0.59,0.73-1.24,1.32-1.95,1.68c-0.71,0.35-1.42,0.51-2.01,0.58c-0.41,0.05-0.76,0.06-1.05,0.06
		c-0.14,0-0.26,0-0.37-0.01c-0.33-0.02-0.52-0.04-0.52-0.04c-0.31-0.25-1.47-0.42-2.95-0.63c-0.72-0.09-1.54-0.2-2.41-0.31
		c-0.9-0.11-1.87-0.23-2.78-0.38c-1.85-0.29-3.56-0.71-4.73-1.13c-1.18-0.41-1.84-0.77-1.84-0.77c-0.46-0.01-1.17-0.02-1.76-0.03
		c-0.61-0.05-1.11-0.08-1.11-0.08c-0.24-0.11-0.45-0.16-0.62-0.16c-0.45,0-0.64,0.34-0.64,0.86c0,0.46,0.15,1.05,0.4,1.68
		c0.32,0.82,0.87,1.6,1.34,2.22c0.49,0.57,0.9,0.97,0.9,0.97c1.31,0.18,2.28,1.24,3.07,2.26c0.38,0.5,0.7,1.01,0.93,1.4
		c0.13,0.21,0.22,0.38,0.28,0.49c0.05,0.09,0.07,0.13,0.07,0.13c0.09,0.1,0.21,0.21,0.34,0.31c0.88,0.67,2.55,1.27,4.05,1.61
		c0.85,0.19,1.67,0.35,2.25,0.42c0.59,0.08,1.13,0.11,1.13,0.12c0,0,0,0,0,0c0.21,0.27,0.87,0.41,1.8,0.41
		c1.23,0,2.95-0.25,4.74-0.76c0.57-0.17,1.14-0.37,1.7-0.61c0.19-0.11,0.39-0.22,0.6-0.34c0.83-0.5,1.77-1.13,2.67-1.95
		c0.9-0.81,1.7-1.83,2.39-2.9c0.31-0.48,0.61-0.96,0.91-1.43c0.15-0.23,0.31-0.47,0.46-0.7l0.23-0.34l0-0.01c0,0,0,0,0,0l0,0l0,0
		c-0.04-0.07-0.05-0.1-0.06-0.13c0,0,0,0,0,0l-0.05-0.1c0,0-0.01-0.01-0.01-0.02c0-0.01-0.01-0.01-0.01-0.02c0,0,0,0,0,0l-0.07-0.1
		c-0.49-0.55-0.82-0.91-0.82-0.91l0,0l0,0c0,0,0.24,0.27,0.82,0.91l0,0l0,0l-0.02-0.03l0.02,0.02l0,0l0,0l0.01,0.01c0,0,0,0,0,0
		l0-0.01l0.03,0.03c0.02,0.02,0.03,0.04,0.05,0.05l0,0c0,0,0,0,0.01,0.01l0.02-0.02c0.02-0.02,0.07-0.04,0.13-0.04
		c0.25,0,0.72,0.18,0.89,0.65c0.04,0,0.28,0.27,1.03,0.4c0.54-0.08,1.26-0.14,1.99-0.16c0.38-0.02,0.73-0.03,1.03-0.04
		c1.06-0.26,2.36-0.74,3.77-1.69c0.93-0.65,1.91-1.54,2.57-2.68c0.1-0.16,0.18-0.33,0.27-0.5c0.4-1.03,0.59-2.11,0.59-3.14
		c0-0.16-0.01-0.32-0.01-0.48c0-0.07-0.01-0.15-0.01-0.22c-0.07-0.17-0.17-0.38-0.3-0.62c-0.32-0.63-0.83-1.43-1.46-2.22
		C84.56,51.19,83.25,49.92,82.66,49.03"/>
	<polyline class="st705" points="74.93,63.13 74.93,63.13 74.93,63.13 74.93,63.13 	"/>
	<polyline class="st705" points="74.93,63.13 75,63.24 75,63.24 74.96,63.19 74.93,63.14 74.93,63.13 74.93,63.13 	"/>
	<polyline class="st705" points="74.93,63.14 74.93,63.14 74.93,63.14 74.93,63.14 	"/>
	<path class="st705" d="M74.93,63.14L74.93,63.14c0.01,0.01,0.02,0.02,0.03,0.03l0,0C74.95,63.16,74.94,63.15,74.93,63.14"/>
	<polyline class="st705" points="74.93,63.14 74.94,63.15 74.94,63.15 74.94,63.14 74.93,63.14 	"/>
	<polyline class="st705" points="74.94,63.15 74.96,63.19 74.99,63.23 75,63.24 75,63.24 75,63.24 75.01,63.23 75.01,63.22 
		75,63.22 75,63.22 75,63.22 75,63.21 75,63.21 74.99,63.2 74.95,63.16 74.94,63.15 74.94,63.15 	"/>
	<polyline class="st705" points="74.94,63.15 74.95,63.16 74.99,63.2 74.98,63.19 74.94,63.15 	"/>
	<path class="st705" d="M74.96,63.17l0.02,0.03L75,63.22l0,0l0,0l0,0l0,0l0,0c0,0,0,0,0,0C74.99,63.2,74.97,63.18,74.96,63.17"/>
	<polyline class="st705" points="75,63.21 75,63.22 75,63.22 75,63.22 75,63.21 	"/>
	<polyline class="st705" points="75.01,63.22 75.01,63.22 75.01,63.22 75.01,63.22 	"/>
	<polyline class="st705" points="75.01,63.22 75.01,63.23 75.01,63.23 75.01,63.22 75.01,63.22 	"/>
	<path class="st705" d="M75.01,63.23L75.01,63.23c0.01,0.01,0.01,0.01,0.02,0.02C75.02,63.24,75.02,63.23,75.01,63.23"/>
	<path class="st705" d="M75.06,63.38c0.01,0.02,0.03,0.06,0.06,0.12l0,0l0,0c0,0,0,0,0,0l0,0C75.1,63.45,75.08,63.41,75.06,63.38"/>
	<path class="st706" d="M75.01,63.23L75.01,63.23L75.01,63.23L75.01,63.23 M80.66,45.76C80.66,45.76,80.66,45.76,80.66,45.76
		c0.25,0.24,0.49,0.53,0.71,0.81c0.04,0.05,0.08,0.1,0.12,0.15c0.1,0.14,0.19,0.27,0.27,0.4c0.02,0.02,0.03,0.05,0.04,0.07
		c0.08,0.13,0.15,0.25,0.2,0.36c0.02,0.05,0.05,0.09,0.07,0.13c0,0,0,0.01,0.01,0.01c0.02,0.04,0.04,0.08,0.06,0.12
		c0.02,0.04,0.04,0.08,0.05,0.12c0,0,0,0.01,0.01,0.01c0.02,0.06,0.04,0.11,0.06,0.15c0.07,0.19,0.09,0.27,0.11,0.36
		c0.02,0.08,0.05,0.16,0.1,0.25c0.05,0.1,0.11,0.21,0.19,0.32c0.59,0.89,1.9,2.16,2.88,3.43c0.62,0.79,1.13,1.59,1.46,2.22
		c0.12,0.24,0.22,0.45,0.3,0.62c0.12,0.28,0.18,0.45,0.18,0.45c0,0.03,0,0.07,0,0.1c0,1.18-0.27,2.3-0.75,3.29
		c-0.08,0.17-0.17,0.34-0.27,0.5c-0.66,1.14-1.64,2.03-2.57,2.68c-1.41,0.96-2.72,1.44-3.77,1.69c-0.37,0.09-0.71,0.15-1.01,0.2
		c-0.43,0.06-0.8,0.08-1.13,0.08c-1.46,0-1.87-0.47-1.92-0.47c-0.16-0.46-0.64-0.65-0.89-0.65c-0.06,0-0.11,0.01-0.13,0.04
		l-0.02,0.02c0.01,0.01,0.01,0.01,0.02,0.02l0,0l0,0c-0.01-0.01-0.01-0.01-0.02-0.02l0,0c1.34,1.48,2.67,2.97,4.02,4.45l0.03-0.02
		l0.03,0.01l-0.01,0.05l0,0v0l0,0c0.28,0.31,0.56,0.62,0.83,0.92c0.28-0.09,0.44-0.09,0.46-0.09c0,0,0,0,0,0
		c1.34-0.07,3.03-0.36,4.94-1.08c0.5-0.19,0.97-0.4,1.46-0.63c0.5-0.26,1-0.51,1.45-0.82c0.91-0.6,1.73-1.27,2.42-2
		c2.6-2.76,3.44-5.94,3.44-8.52c0-0.18,0-0.36-0.01-0.54c-0.11-2.72-1.08-4.77-1.91-6.05c-0.42-0.65-0.8-1.13-1.08-1.45
		c-0.27-0.32-0.44-0.49-0.44-0.49c-0.57-0.57-1.29-0.75-2.09-0.75c-1.11,0-2.33,0.35-3.42,0.47c-0.42,0.07-0.81,0.1-1.16,0.1
		c-0.44,0-0.82-0.04-1.13-0.09c-0.55-0.08-0.86-0.19-0.86-0.19C81.06,46.06,80.67,45.76,80.66,45.76"/>
	<path class="st706" d="M74.11,62.22c0,0,0.33,0.37,0.82,0.91l0,0C74.35,62.49,74.11,62.22,74.11,62.22"/>
	<polyline class="st706" points="74.92,63.13 74.93,63.13 74.93,63.13 74.93,63.13 74.92,63.13 	"/>
	<path class="st706" d="M74.94,63.15L74.94,63.15 M74.93,63.13L74.93,63.13L74.93,63.13C74.93,63.14,74.93,63.13,74.93,63.13
		L74.93,63.13C74.93,63.13,74.93,63.13,74.93,63.13C74.93,63.13,74.93,63.14,74.93,63.13L74.93,63.13l0.04,0.06l-0.02-0.04l0,0
		l0-0.01L74.93,63.13L74.93,63.13C74.93,63.14,74.93,63.14,74.93,63.13L74.93,63.13C74.93,63.14,74.93,63.14,74.93,63.13
		L74.93,63.13L74.93,63.13"/>
	<path class="st706" d="M74.93,63.13L74.93,63.13c0.01,0.02,0.02,0.03,0.03,0.03L74.93,63.13"/>
	<path class="st706" d="M74.93,63.14L74.93,63.14L74.93,63.14L74.93,63.14 M74.93,63.14L74.93,63.14
		C74.93,63.14,74.93,63.14,74.93,63.14C74.93,63.14,74.93,63.14,74.93,63.14L74.93,63.14C74.93,63.14,74.93,63.14,74.93,63.14
		C74.93,63.14,74.93,63.14,74.93,63.14"/>
	<path class="st706" d="M74.96,63.17L74.96,63.17L74.96,63.17L74.96,63.17 M74.94,63.14L74.94,63.14L74.94,63.14L74.94,63.14
		L74.94,63.14 M74.93,63.14L74.93,63.14l0.01,0.01l0.04,0.04l-0.02-0.03C74.95,63.16,74.94,63.15,74.93,63.14"/>
	<path class="st706" d="M74.96,63.17L74.96,63.17c0.02,0.02,0.03,0.03,0.05,0.05c0,0,0,0,0,0l0,0l0,0c0,0,0,0,0.01,0.01h0
		c0,0,0,0-0.01-0.01l0,0C74.99,63.2,74.97,63.19,74.96,63.17"/>
	<path class="st706" d="M74.96,63.19L75,63.24l0,0c0,0,0,0,0,0l0,0l0.05,0.1l0,0c0,0.01,0.01,0.02,0.02,0.04
		c0.01,0.03,0.04,0.07,0.06,0.12l0,0l0,0l0,0c0.09,0.18,0.16,0.36,0.22,0.54l0,0l0.02,0.06l0.02,0.07l0.06,0.17
		c0,0.01,0.01,0.02,0.01,0.02c0.09,0.25,0.2,0.61,0.28,1.04l0,0l0.03,0.18l0,0c0.02,0.09,0.05,0.19,0.07,0.28l0,0
		c0.04,0.19,0.08,0.39,0.13,0.6c0.08,0.41,0.14,0.84,0.18,1.3c0.1,0.63,0.21,1.42,0.26,2.16c0,0.01,0,0.02,0,0.02
		c0.03,0.32,0.05,0.64,0.06,0.96c0.01,0.09,0.01,0.19,0.02,0.28l0.01-0.01c0.08-0.21,1.11-0.69,1.1-0.71c0,0,0,0,0,0c0,0,0,0,0,0
		l0,0l0,0c0.37-0.49,0.71-0.85,1.05-1.12c0.36-0.27,0.65-0.44,0.89-0.56c0.14-0.06,0.26-0.1,0.37-0.14
		c-0.28-0.31-0.56-0.62-0.83-0.92l0,0c0.04,0.05,0.06,0.07,0.06,0.07l0,0l0,0c0,0-0.04-0.04-0.11-0.12l0,0l0,0l0,0
		c-1.34-1.49-2.68-2.97-4.02-4.45L75,63.24c0,0,0,0,0,0c0,0,0,0,0,0c0,0,0,0,0-0.01L74.96,63.19"/>
	<path class="st706" d="M74.99,63.2L75,63.21l0,0L74.99,63.2 M74.98,63.19L74.98,63.19L75,63.21l0,0L74.98,63.19"/>
	<polyline class="st706" points="75,63.22 75,63.22 75,63.22 75,63.22 75,63.22 	"/>
	<polyline class="st706" points="75,63.22 75,63.22 75.01,63.22 75,63.22 75,63.22 75,63.22 	"/>
	<path class="st706" d="M75.01,63.22L75.01,63.22L75.01,63.22L75.01,63.22 M75,63.22L75,63.22C75.01,63.22,75.01,63.22,75,63.22
		L75,63.22C75.01,63.22,75.01,63.22,75,63.22L75,63.22L75,63.22"/>
	<path class="st706" d="M75,63.24C74.99,63.24,74.99,63.24,75,63.24c0,0,0,0.01,0.01,0.02c0,0.01,0.01,0.01,0.01,0.02l0.05,0.1
		c0,0,0,0,0,0c-0.01-0.02-0.01-0.03-0.02-0.04l0,0L75,63.24L75,63.24"/>
	<path class="st706" d="M75.13,63.5L75.13,63.5l-0.23,0.34c-0.15,0.23-0.3,0.46-0.46,0.7c-0.3,0.47-0.61,0.95-0.91,1.43
		c-0.69,1.07-1.48,2.09-2.39,2.9c-0.89,0.82-1.83,1.45-2.67,1.95c-0.21,0.12-0.41,0.24-0.6,0.34c-0.49,0.27-0.92,0.48-1.28,0.65
		c0.33-0.07,0.68-0.1,1.04-0.1c0.33,0,0.66,0.02,0.99,0.05c1.05,0.1,1.95,0.29,1.95,0.29c0.64-0.44,1.54-0.83,2.51-1.28
		c0.98-0.44,2-0.95,3-1.48c0.09-0.05,0.18-0.1,0.27-0.15c0.03,0.22,0.05,0.44,0.07,0.67c0,0.04,0.01,0.07,0.01,0.11
		c0-0.01,0-0.02,0-0.02c-0.06-0.74-0.17-1.53-0.26-2.16c-0.04-0.45-0.1-0.89-0.18-1.3c-0.04-0.21-0.09-0.4-0.13-0.6l0,0
		c-0.02-0.1-0.05-0.19-0.07-0.28l0,0l-0.03-0.18l0,0c-0.08-0.43-0.19-0.79-0.28-1.04c0-0.01-0.01-0.02-0.01-0.02l-0.06-0.17
		l-0.02-0.07l-0.02-0.06l0,0C75.29,63.87,75.22,63.68,75.13,63.5"/>
	<path class="st706" d="M76.47,70.9c0,0.01,0,0.02,0,0.02l0.01,0.27l0.01-0.01C76.49,71.09,76.48,71,76.47,70.9"/>
	<path class="st706" d="M76.49,71.19L76.49,71.19L76.49,71.19L76.49,71.19 M76.49,71.19L76.49,71.19"/>
	<path class="st706" d="M66.59,71.82c-0.38,0.08-0.73,0.23-1.03,0.47c0,0,0.3-0.14,0.83-0.37C66.44,71.89,66.51,71.86,66.59,71.82"
		/>
	<path class="st707" d="M71.08,24.06c-0.15,0-0.31,0.04-0.47,0.13c-0.07,0.04-0.15,0.07-0.23,0.09c-0.14,0.03-0.28,0.05-0.42,0.06
		c-0.25,0.03-0.46,0.08-0.51,0.28c0.29,0.15,0.55,0.53,0.93,0.73c0.7,0.5,1.54,0.48,2.16,1.07c0.68,0.51,1.22,1.19,1.93,1.64
		c0.47,0.24,0.88,0.4,1.35,0.48c1.67,0.56,3.14,0.96,4.6,1.16c0.24-0.25,0.47-0.34,0.69-0.34c0.52,0,0.99,0.5,1.39,0.67
		c0.17,0.11,0.27,0.38,0.44,0.58c0.47,0.32,1.21,0.21,1.21,1c0,0.01,0,0.01,0,0.02c-0.12,1.74-0.44,3.24-0.89,4.41
		c-0.14,0.41-0.42,1.14-0.94,1.61c0.05-0.02,0.11-0.04,0.16-0.06l0.05-0.02l0.01,0h0c0.01,0,0.04-0.02,0.07-0.03
		c0.02-0.01,0.03-0.01,0.04-0.02l0.01,0c0.01,0,0.01,0,0.02-0.01l0.02-0.01l0.01,0l0,0h0c0.02-0.01,0.04-0.02,0.04-0.02l0,0l0,0l0,0
		l0,0l0,0l0,0c0,0-0.01,0-0.04,0.02l0,0l-0.08,0.03l-0.18,0.09c-0.04,0.02-0.07,0.04-0.11,0.06l-0.09,0.06l-0.22,0.14
		c-0.12,0.08-0.32,0.22-0.47,0.35l-0.25,0.21l-0.13,0.11l0.09-0.08c0.18-0.18,0.34-0.39,0.46-0.59c-0.04,0.01-0.07,0.02-0.11,0.03
		c-0.04,0.01-0.07,0.02-0.11,0.04c-0.02,0.01-0.04,0.01-0.05,0.02c-0.02,0.01-0.04,0.01-0.05,0.02c-0.03,0.01-0.07,0.02-0.1,0.03
		c-0.09,0.03-0.18,0.06-0.26,0.08c-0.1,0.03-0.18,0.05-0.26,0.07c-0.12,0.04-0.25,0.07-0.37,0.11c-0.21,0.06-0.12,0.04-0.17,0.09
		c0,0.01,0,0.02,0,0.03c0,0.04,0.03,0.11,0.06,0.2c0.06,0.14,0.13,0.35,0.13,0.61c0,0.13-0.02,0.27-0.06,0.42
		c0,0.01-0.01,0.01-0.03,0.01c-0.05,0-0.15-0.02-0.28-0.07c0.01,0.1,0.02,0.22,0.04,0.33c0.12,0.07,0.33,0.35,0.45,0.43l0,0l0,0
		c-0.05,0.29-0.23,0.48-0.55,0.73c-1.43,0.75-2.2,1.58-2.92,1.99c-0.31,0.18-0.61,0.29-0.93,0.29c-0.04,0-0.09,0-0.13-0.01
		c-0.09-0.01-0.19-0.03-0.29-0.05l-0.07-0.02l0.15,0.04l0.34,0.1l0.6,0.2l0.5,0.19c0.12,0.05,0.24,0.1,0.38,0.15c0,0,0,0,0.01,0
		l-0.05-0.02l0.03,0.01L77.71,44c0.22,0.08,1.47,0.41,2.57,0.63c0.4,0.1,0.86,0.31,1.25,0.41c1.49,0.34,2.42,0.02,4.2,0.49
		c0.17,0.07,0.36,0.1,0.57,0.1c0.54,0,1.15-0.21,1.45-0.47c0.03-0.04,0.05-0.1,0.05-0.18c0-0.59-0.87-2.25-1.99-3.83
		c-0.63-0.91-1.31-1.86-1.83-2.34c-0.53-0.52-0.9-0.7-0.92-0.77c-0.11-0.1-0.75-0.03-0.85-0.08l0,0l0,0
		c0.11-0.29,1.13-0.58,1.91-1.12c0.4-0.28,0.57-0.65,0.57-1c0-0.05,0-0.09-0.01-0.14c-0.05-0.35-0.22-0.65-0.22-0.75
		c0-0.01,0-0.02,0-0.02c0.98-0.84,2.05-2.05,3.16-2.25c0.14-0.02,0.41-0.33,0.62-0.49c0.22-0.24,0.41-0.67,0.41-0.83
		c0-0.02,0-0.04-0.01-0.05l0,0l0,0c0.04,0.02,0.07,0.02,0.09,0.02c0.04,0,0.06-0.02,0.06-0.06c0-0.2-0.44-0.83-1.02-1.36
		c-0.55-0.51-1.2-0.91-1.46-0.91c-0.07,0-0.11,0.03-0.11,0.1c0,0.04,0.01,0.08,0.04,0.15l0,0l0,0c-0.26-0.53-0.79-0.66-1.36-0.66
		c-0.1,0-0.19,0-0.29,0.01c-0.46,0.04-0.93,0.12-1.38,0.12c-0.23,0-0.45-0.02-0.66-0.08c-0.83-0.18-1.57-1.23-2.49-1.23
		c-0.12,0-0.24,0.02-0.37,0.06c-0.48,0.08-0.96,0.26-1.38,0.26c-0.33,0-0.62-0.11-0.85-0.45c-0.39-0.5-0.73-0.82-1.18-1.04
		c-0.3-0.05-0.61-0.06-0.91-0.06c-0.1,0-0.21,0-0.31,0c-0.1,0-0.2,0-0.3,0c-0.6,0-1.17-0.04-1.68-0.39
		c-0.43-0.36-0.84-1.03-1.33-1.41C71.56,24.17,71.33,24.06,71.08,24.06"/>
	<polyline class="st707" points="82.71,37.52 82.71,37.52 82.71,37.52 82.71,37.52 	"/>
	<polyline class="st707" points="82.71,37.52 82.71,37.52 82.7,37.52 82.71,37.52 	"/>
	<path class="st707" d="M82.7,37.52l-0.02,0.01l-0.01,0.01c-0.01,0-0.02,0.01-0.03,0.01c0,0,0,0,0,0
		C82.66,37.54,82.69,37.53,82.7,37.52"/>
	<polyline class="st707" points="82.64,37.55 82.63,37.55 82.63,37.55 82.64,37.55 82.64,37.55 	"/>
	<path class="st707" d="M82.61,37.56l-0.07,0.03h0l0,0c0,0,0,0,0,0l0,0l0,0l0,0l-0.01,0l-0.03,0.01l-0.12,0.05
		c-0.02,0.01-0.04,0.02-0.06,0.02c-0.07,0.06-0.14,0.12-0.22,0.17c0.07-0.04,0.16-0.1,0.25-0.15l0.06-0.04l0.05-0.03
		C82.51,37.61,82.57,37.58,82.61,37.56"/>
	<path class="st707" d="M82.17,37.73c0,0-0.01,0-0.01,0c0,0,0,0,0,0C82.16,37.73,82.17,37.73,82.17,37.73"/>
	<path class="st707" d="M81.98,37.8c-0.08,0.03-0.16,0.06-0.25,0.09c0,0,0,0,0,0C81.8,37.87,81.88,37.84,81.98,37.8"/>
	<path class="st707" d="M81.48,37.97c-0.19,0.06-0.39,0.12-0.61,0.19c-0.02,0.01-0.05,0.01-0.07,0.02c0.18-0.05,0.34-0.1,0.5-0.15
		c0.05-0.02,0.1-0.03,0.16-0.05C81.46,37.98,81.47,37.97,81.48,37.97"/>
	<path class="st707" d="M80.15,38.36l-0.3,0.08l-0.08,0.02C79.9,38.42,80.02,38.39,80.15,38.36"/>
	<path class="st707" d="M79.36,44.72L79.36,44.72 M79.36,44.72L79.36,44.72L79.36,44.72L79.36,44.72 M79.36,44.72L79.36,44.72
		L79.36,44.72L79.36,44.72 M77.62,43.97l0.04,0.02l0.05,0.02l0.01,0l0.01,0h0c0.12,0.05,0.22,0.1,0.33,0.14
		c0.69,0.3,1.09,0.47,1.3,0.56c0,0,0,0,0,0l0,0l0,0l0,0c-0.02-0.01-0.03-0.01-0.05-0.02c0.01,0.01,0.03,0.01,0.05,0.02
		c0.01,0,0.02,0.01,0.03,0.02l0,0l-0.02-0.01l0,0l0,0l0,0c0,0,0,0,0,0l0,0c0,0,0,0,0,0l-0.01,0l0,0c0,0,0,0,0.01,0l0,0
		c0,0,0,0-0.01,0l-0.01-0.01c0,0,0,0,0.01,0l0,0l0,0c-0.58-0.25-1.15-0.5-1.72-0.74C77.63,43.98,77.63,43.98,77.62,43.97"/>
	<path class="st707" d="M79.26,44.68c0,0,0.01,0.01,0.03,0.01C79.27,44.68,79.26,44.68,79.26,44.68"/>
	<polyline class="st707" points="79.29,44.69 79.3,44.7 79.29,44.69 	"/>
	<polyline class="st707" points="79.3,44.7 79.3,44.7 79.3,44.7 	"/>
	<path class="st707" d="M79.36,44.72L79.36,44.72c0.01,0.01,0.02,0.01,0.03,0.01L79.36,44.72"/>
	<path class="st707" d="M79.39,44.73L79.39,44.73L79.39,44.73L79.39,44.73 M79.36,44.72L79.36,44.72
		C79.37,44.73,79.37,44.73,79.36,44.72l0.03,0.01l0,0l-0.01,0l0,0C79.38,44.73,79.37,44.73,79.36,44.72"/>
	<polyline class="st707" points="79.36,44.72 79.36,44.72 79.37,44.73 79.36,44.72 	"/>
	<path class="st707" d="M79.41,44.75L79.41,44.75L79.41,44.75L79.41,44.75 M79.37,44.73L79.37,44.73L79.37,44.73 M79.37,44.73
		c0.01,0.01,0.03,0.01,0.05,0.02l0,0C79.4,44.74,79.39,44.73,79.37,44.73L79.37,44.73"/>
	<path class="st707" d="M79.39,44.73L79.39,44.73c0.01,0,0.01,0,0.01,0.01l0,0l0,0l0,0l0.01,0c0,0,0.01,0,0.01,0v0h0l0,0l-0.01,0
		C79.4,44.74,79.39,44.74,79.39,44.73"/>
	<path class="st707" d="M79.39,44.74L79.39,44.74c0.01,0,0.01,0.01,0.02,0.01c0.02,0.01,0.04,0.03,0.08,0.05
		c0.08,0.05,0.19,0.12,0.31,0.21c0.06,0.04,0.11,0.08,0.16,0.13c0.05,0.04,0.11,0.08,0.16,0.13c-0.03-0.03-0.06-0.05-0.09-0.07
		c-0.1-0.08-0.19-0.15-0.27-0.21c0,0,0,0-0.01,0c-0.07-0.05-0.13-0.09-0.18-0.13c-0.07-0.04-0.12-0.08-0.16-0.1
		C79.39,44.74,79.39,44.74,79.39,44.74"/>
	<path class="st707" d="M79.41,44.75L79.41,44.75C79.41,44.75,79.42,44.75,79.41,44.75c0.08,0.03,0.16,0.07,0.16,0.07
		S79.53,44.8,79.41,44.75"/>
	<path class="st707" d="M80.11,45.26c0.25,0.21,0.52,0.47,0.79,0.76c0.11,0.11,0.21,0.23,0.31,0.36c-0.22-0.27-0.46-0.53-0.7-0.76
		C80.37,45.48,80.24,45.36,80.11,45.26"/>
	<path class="st708" d="M75,63.22c2.82,3.12,5.64,6.25,8.48,9.4c-1.19-1.32-2.38-2.64-3.57-3.96c-0.28-0.31-0.56-0.62-0.83-0.92
		c-0.02-0.02-0.03-0.03-0.05-0.05C77.69,66.19,76.35,64.71,75,63.22C75.01,63.22,75.01,63.22,75,63.22
		C75.01,63.22,75.01,63.22,75,63.22"/>
	<path class="st708" d="M75.04,63.34c0.01,0.03,0.02,0.05,0.08,0.17c-0.03-0.06-0.05-0.1-0.06-0.12
		C75.05,63.36,75.05,63.35,75.04,63.34"/>
	<path class="st708" d="M75.12,63.5c0.09,0.18,0.16,0.36,0.22,0.54C75.29,63.87,75.22,63.68,75.12,63.5
		C75.13,63.5,75.13,63.5,75.12,63.5"/>
	<path class="st708" d="M75.45,64.37c0.09,0.25,0.2,0.61,0.28,1.04C75.65,64.98,75.54,64.62,75.45,64.37"/>
	<path class="st708" d="M75.77,65.59c0.02,0.09,0.05,0.19,0.07,0.28C75.81,65.77,75.79,65.68,75.77,65.59"/>
	<path class="st709" d="M76.72,76.31L76.72,76.31L76.72,76.31L76.72,76.31 M76.72,76.3L76.72,76.3L76.72,76.3 M79.08,75.5
		L79.08,75.5c-0.81,0.26-1.6,0.53-2.36,0.81l0-0.01l0,0.01l0,0C77.48,76.03,78.27,75.76,79.08,75.5L79.08,75.5 M76.49,71.19
		L76.49,71.19c0.03,0.52,0.07,1.05,0.1,1.58l0,0c0.04,0.65,0.07,1.31,0.09,1.96l0,0l0.02,0.98l0,0.49l0,0.1l0.08-0.1c0,0,0,0,0,0
		c0,0,0,0,0.01,0l0,0c0,0-0.01,0-0.01,0.01l-0.08,0.1l0-0.1l0-0.49l-0.02-0.98c-0.02-0.66-0.05-1.31-0.09-1.96
		C76.56,72.23,76.53,71.71,76.49,71.19 M76.41,69.94c0.02,0.32,0.04,0.64,0.06,0.96l0,0C76.45,70.58,76.43,70.26,76.41,69.94
		L76.41,69.94"/>
	<path class="st708" d="M76.72,76.3L76.72,76.3 M76.72,76.3L76.72,76.3 M76.8,76.2C76.8,76.2,76.8,76.2,76.8,76.2
		C76.8,76.2,76.8,76.2,76.8,76.2 M79.44,75.39c-0.12,0.04-0.24,0.08-0.36,0.11c-0.81,0.26-1.6,0.53-2.36,0.81l0,0l0,0c0,0,0,0,0,0v0
		c0,0,0,0,0,0l0,0l0,0c0.76-0.28,1.55-0.55,2.36-0.81C79.2,75.46,79.32,75.42,79.44,75.39 M76.59,72.76
		c0.04,0.65,0.07,1.31,0.09,1.96C76.67,74.07,76.64,73.41,76.59,72.76 M75.84,65.87c0.04,0.19,0.08,0.39,0.13,0.6
		C75.92,66.26,75.88,66.06,75.84,65.87"/>
	<path class="st708" d="M93.48,68.62c-0.16,0.24-0.33,0.46-0.51,0.69c-0.87,1.09-1.92,1.99-2.99,2.7
		C91.27,71.15,92.53,70.02,93.48,68.62"/>
	<path class="st708" d="M83.14,74.38C83.15,74.38,83.15,74.38,83.14,74.38C83.15,74.38,83.15,74.38,83.14,74.38 M86.16,73.81
		c-0.99,0.31-1.74,0.44-2.28,0.52C84.42,74.26,85.17,74.13,86.16,73.81 M87.87,73.16c-0.6,0.27-1.18,0.48-1.71,0.65
		C86.69,73.64,87.27,73.43,87.87,73.16"/>
	<path class="st708" d="M83.42,72.75c-0.71,0.62-1.5,1.18-2.17,1.61c0,0,0,0,0,0C81.93,73.94,82.71,73.38,83.42,72.75 M83.72,72.5
		L83.72,72.5"/>
	<path class="st708" d="M82.48,74.31c-0.18,0-0.38,0.01-0.57,0.02c0.2-0.01,0.4-0.02,0.58-0.02C82.49,74.31,82.48,74.31,82.48,74.31
		"/>
	<path class="st708" d="M82.5,74.31C82.49,74.31,82.49,74.31,82.5,74.31c0.28,0,0.53,0.02,0.65,0.07
		C83.03,74.32,82.78,74.31,82.5,74.31"/>
	<path class="st708" d="M81.25,74.37L81.25,74.37L81.25,74.37L81.25,74.37L81.25,74.37 M81.25,74.37
		C81.25,74.37,81.25,74.37,81.25,74.37c-0.03,0.02-0.05,0.03-0.08,0.05c-0.3,0.19-0.58,0.36-0.82,0.5c0.24-0.14,0.52-0.3,0.82-0.5
		C81.2,74.4,81.23,74.38,81.25,74.37 M81.25,74.37C81.25,74.37,81.25,74.37,81.25,74.37L81.25,74.37
		C81.25,74.37,81.25,74.37,81.25,74.37L81.25,74.37"/>
	<path class="st708" d="M81.08,74.38c-0.27,0.03-0.55,0.06-0.82,0.09C80.53,74.44,80.81,74.41,81.08,74.38"/>
	<path class="st708" d="M80.25,74.47c-0.41,0.05-0.82,0.11-1.1,0.16C79.44,74.58,79.85,74.53,80.25,74.47"/>
	<path class="st709" d="M79.16,74.63c-0.06,0.01-0.12,0.02-0.17,0.03c-0.29,0.06-0.48,0.1-0.48,0.1c-0.17,0.26-0.36,0.48-0.57,0.67
		c-0.21,0.19-0.53,0.33-0.68,0.46l0,0l0,0c0.15-0.13,0.47-0.28,0.68-0.46c0.01-0.01,0.01-0.01,0.02-0.02
		c0.2-0.18,0.39-0.4,0.55-0.65l0,0l0,0c0,0,0.19-0.04,0.48-0.1l0,0l0,0C79.04,74.66,79.09,74.64,79.16,74.63L79.16,74.63"/>
	<path class="st708" d="M78.5,74.76c-0.17,0.25-0.35,0.47-0.55,0.65C78.16,75.23,78.34,75.02,78.5,74.76 M78.99,74.67
		c-0.29,0.06-0.48,0.1-0.48,0.1S78.7,74.73,78.99,74.67 M79.16,74.63c-0.06,0.01-0.12,0.02-0.17,0.03
		C79.04,74.66,79.09,74.64,79.16,74.63"/>
	<path class="st708" d="M80.32,74.94c-0.49,0.27-0.79,0.42-0.79,0.42C79.52,75.36,79.83,75.21,80.32,74.94"/>
	<path class="st708" d="M77.25,75.89c-0.1,0.06-0.2,0.12-0.3,0.17C77.06,76.01,77.16,75.96,77.25,75.89"/>
	<path class="st708" d="M76.96,76.06c-0.04,0.02-0.06,0.04-0.08,0.06C76.9,76.1,76.92,76.08,76.96,76.06"/>
	<path class="st708" d="M76.88,76.12c-0.02,0.02-0.04,0.04-0.05,0.06C76.84,76.16,76.86,76.14,76.88,76.12"/>
	<path class="st708" d="M76.71,76.31c-0.51,0.18-1,0.37-1.49,0.55c-0.3,0.11-0.6,0.23-0.9,0.34C75.09,76.9,75.89,76.61,76.71,76.31
		L76.71,76.31 M76.71,76.31L76.71,76.31L76.71,76.31 M76.71,76.31L76.71,76.31L76.71,76.31L76.71,76.31L76.71,76.31"/>
	<path class="st708" d="M74.33,77.19c-0.79,0.3-1.54,0.59-2.25,0.86c-0.74,0.28-1.44,0.55-2.1,0.8c0.65-0.25,1.35-0.52,2.09-0.8
		C72.79,77.78,73.54,77.5,74.33,77.19"/>
	<path class="st708" d="M69.98,78.86c-0.74,0.29-1.42,0.56-2,0.81C68.56,79.42,69.24,79.15,69.98,78.86"/>
	<path class="st708" d="M67.98,79.66c-0.41,0.17-0.77,0.32-1.08,0.46C67.21,79.99,67.57,79.83,67.98,79.66"/>
	<path class="st708" d="M66.9,80.12c-0.51,0.22-0.88,0.39-1.06,0.48C66.02,80.51,66.39,80.34,66.9,80.12"/>
	<path class="st708" d="M65.84,80.6c-0.09,0.04-0.13,0.07-0.13,0.07C65.7,80.66,65.75,80.64,65.84,80.6"/>
	<path class="st710" d="M82.67,37.53l0.01-0.01l0.02-0.01l0,0c-0.02,0.01-0.04,0.02-0.06,0.02c0,0,0,0,0,0c0,0,0,0,0,0c0,0,0,0,0,0
		l0,0l0,0l0,0l0,0L82.67,37.53 M69.45,24.63c-0.21,0.11-0.62,0.01-0.62,0.22c0,0.01,0,0.03,0.01,0.05c0,0.35,0.32,0.64,0.51,0.92
		c1.03,0.96,1.92,2.09,2.89,2.89c2.33,1.81,4.49,3.23,6.33,3.87c0.04,0.02,0.09,0.02,0.13,0.02c0.31,0,0.63-0.34,0.95-0.45
		c0.16-0.08,0.32-0.1,0.48-0.1c0.26,0,0.52,0.08,0.76,0.13c0.15,0.03,0.29,0.05,0.44,0.05c0.26,0,0.53-0.07,0.87-0.3
		c0.04-0.04,0.09-0.05,0.13-0.05c0.1,0,0.18,0.08,0.23,0.19c0.12,0.7,0.18,1.37,0.18,2.01c0,1.37-0.28,2.59-0.89,3.61
		c-0.04,0.06-0.08,0.13-0.12,0.2c0.06-0.02,0.12-0.04,0.18-0.06c0,0,0,0,0.01,0c0.01,0,0.02-0.01,0.04-0.01
		c0.07-0.03,0.14-0.05,0.22-0.08c0,0,0.01,0,0.01,0l0,0l0,0c0,0-0.01,0-0.01,0c-0.03,0.01-0.05,0.02-0.08,0.03
		c-0.01,0.01-0.03,0.01-0.04,0.02c-0.02,0.01-0.05,0.02-0.07,0.02c-0.09,0.03-0.18,0.06-0.25,0.09c-0.13,0.2-0.29,0.41-0.46,0.59
		l-0.09,0.08l0.13-0.11l0.25-0.21c0.15-0.13,0.36-0.26,0.47-0.35l0.22-0.14l0.09-0.06c-0.09,0.05-0.18,0.1-0.25,0.15l0,0l0,0
		c0.08-0.05,0.15-0.11,0.22-0.17c0.02-0.01,0.04-0.02,0.06-0.02l0.12-0.05l0.03-0.01l0.01,0l0,0l0,0c0,0,0,0,0,0h0l0.07-0.03l0,0
		c-0.04,0.02-0.09,0.05-0.16,0.08l0.18-0.09l0.08-0.03l0,0c0,0-0.01,0-0.01,0l0,0l0,0l0.01,0l-0.01,0l-0.02,0.01l-0.02,0.01l-0.01,0
		c-0.01,0-0.02,0.01-0.04,0.02c-0.03,0.01-0.06,0.03-0.07,0.03h0l-0.01,0l-0.05,0.02c-0.06,0.02-0.11,0.04-0.16,0.06l0,0l0,0
		c0.51-0.47,0.8-1.2,0.94-1.61c0.45-1.17,0.77-2.68,0.89-4.41c0-0.01,0-0.01,0-0.02c0-0.79-0.74-0.68-1.21-1
		c-0.17-0.21-0.27-0.47-0.44-0.58c-0.4-0.17-0.88-0.67-1.39-0.67c-0.22,0-0.45,0.09-0.69,0.34c-1.46-0.2-2.93-0.6-4.6-1.16
		c-0.46-0.08-0.87-0.24-1.35-0.48c-0.7-0.45-1.24-1.13-1.93-1.64c-0.62-0.59-1.45-0.58-2.16-1.07
		C69.99,25.15,69.74,24.78,69.45,24.63L69.45,24.63"/>
	<path class="st710" d="M81.72,37.89c-0.05,0.02-0.11,0.04-0.16,0.05c0.02-0.01,0.04-0.01,0.05-0.02
		C81.65,37.92,81.69,37.9,81.72,37.89C81.72,37.89,81.72,37.89,81.72,37.89C81.72,37.89,81.72,37.89,81.72,37.89"/>
	<path class="st710" d="M81.56,37.94c-0.03,0.01-0.06,0.02-0.09,0.03c-0.01,0-0.02,0.01-0.02,0.01c0.02-0.01,0.04-0.01,0.05-0.02
		C81.52,37.96,81.54,37.95,81.56,37.94"/>
	<path class="st710" d="M82.75,37.5c0,0-0.02,0.01-0.04,0.02h0C82.74,37.5,82.75,37.5,82.75,37.5"/>
	<polyline class="st710" points="82.71,37.52 82.71,37.52 82.71,37.52 82.71,37.52 82.71,37.52 	"/>
	<path class="st710" d="M82.45,37.64l-0.05,0.03l-0.06,0.04C82.38,37.68,82.41,37.66,82.45,37.64"/>
	<path class="st710" d="M81.45,37.98c-0.05,0.02-0.11,0.03-0.16,0.05c0.03-0.01,0.07-0.02,0.1-0.03
		C81.42,37.99,81.43,37.99,81.45,37.98"/>
	<path class="st710" d="M81.3,38.03c-0.16,0.05-0.33,0.1-0.5,0.15c-0.2,0.06-0.42,0.12-0.64,0.18c-0.13,0.03-0.25,0.07-0.39,0.1
		c-0.31,0.08-0.64,0.15-0.97,0.22l-0.31,0.06v0l0.01,0.01l0.07,0.05c0.12,0.1,0.37,0.25,0.63,0.4c0.29,0.17,0.62,0.3,0.85,0.37
		c0.13,0.04,0.24,0.07,0.28,0.07c0.02,0,0.03,0,0.03-0.01c0.04-0.15,0.06-0.3,0.06-0.42c0-0.26-0.07-0.47-0.13-0.61
		c-0.03-0.09-0.06-0.15-0.06-0.2c0-0.01,0-0.02,0-0.03c0.05-0.05-0.04-0.03,0.17-0.09c0.08-0.02,0.19-0.05,0.37-0.11
		c0.08-0.02,0.16-0.05,0.26-0.07C81.11,38.09,81.2,38.06,81.3,38.03"/>
</g>
<g>
	<path d="M70.83,81.33c0.38,4.23,0.97,8.32,1.08,12.41c0.22,7.72,0.12,15.45,0.26,23.17c0.04,2.37,0.48,4.73,0.66,7.1
		c0.07,0.95-0.09,1.93-0.15,2.93c-0.84,0.09-1.4,0.27-1.91,0.18c-4.51-0.78-9.14-1.19-13.49-2.53c-5.31-1.64-9.06-5.33-10.72-10.87
		c-3.26-10.87-6.83-21.64-12.11-31.74c-1.91-3.65-3.84-7.29-5.66-10.99c-0.84-1.72-1.52-3.53-2.13-5.34
		c-0.33-0.98-0.79-1.54-1.83-1.77c-1.79-0.4-3.12-1.5-3.92-3.16c-0.87-1.8-0.47-3.55,1.24-4.52c4.07-2.3,8.27-4.28,12.74-5.74
		c5.56-1.81,11.02-3.92,16.52-5.92c1.63-0.59,3.25-1.23,4.84-1.92c1.02-0.45,1.56-1.19,1.15-2.43c-1.67-5.05-0.66-10,0.86-14.85
		c0.92-2.95,1.94-5.95,3.52-8.57c0.97-1.6,2.61-3.11,5.07-3.05c5.28,0.11,10.5,0.57,15.43,2.51c6.64,2.61,13.61,3.85,20.57,4.88
		c4.71,0.7,9.56,0.79,14.08,2.33c4.39,1.49,8.25,3.92,9.83,8.74c0.11,0.35,0.27,0.68,0.43,1.01c1.9,3.79,0.98,7.06-1.76,10.04
		c-0.68,0.74-1.26,1.55-1.58,1.94c-3.74-1.07-6.87-1.96-9.91-2.83c-1.78,2.12-3.18,6.83-3.51,11.57c0.95,0.46,1.96,0.88,2.89,1.43
		c2.61,1.55,2.97,4.6,0.72,6.67c-0.86,0.79-1.97,1.32-2.98,1.93c-0.71,0.43-1.23,0.84-1.45,1.81c-2.15,9.72-4.39,19.42-6.61,29.13
		c-1.53,6.68-3.25,13.32-4.5,20.04c-0.7,3.76-2.54,6.09-6.05,7.31c-5.1,1.78-10.17,3.64-15.29,5.39c-1.06,0.36-2.24,0.36-3.6,0.56
		c0.28-1.79,1.51-1.77,2.33-2.02c5.69-1.74,11.35-3.56,16.82-5.94c2.11-0.92,3.41-2.17,3.89-4.53c1.07-5.29,2.3-10.55,3.6-15.79
		c1.72-6.91,3.62-13.77,5.34-20.68c0.84-3.36,1.51-6.78,2.09-10.19c0.13-0.77-0.38-1.65-0.69-2.8c-3.15,1.34-6,2.51-8.82,3.76
		c-6.68,2.98-13.21,6.26-20.14,8.72c-5.03,1.78-9.81,1.46-14.82,0.19c-4.15-1.05-7.72-3.33-11.66-4.79
		c-6.61-2.45-13.16-5.06-19.74-7.6c-0.92-0.36-1.83-0.74-3.08-1.24c0.1,0.82,0.04,1.35,0.23,1.78c0.85,1.92,1.77,3.81,2.66,5.71
		c2.83,6.05,5.81,12.03,8.46,18.16c2.21,5.11,4.06,10.37,6,15.59c1.02,2.74,1.84,5.55,2.82,8.3c1.67,4.69,5.39,7.1,9.93,8.24
		c3.99,1,8.08,1.56,12.39,2.37c-0.1-1.81-0.24-3.58-0.29-5.36c-0.1-3.66-0.16-7.33-0.24-11c-0.13-6.14-0.2-12.29-0.43-18.42
		c-0.1-2.56-0.48-5.11-0.84-7.65C69.26,82,69.25,81.33,70.83,81.33z M108.34,59.94c0.21-3.01,0.08-5.61,0.63-8.06
		c1.13-4.99,2.62-9.9,3.99-14.83c0.37-1.32,0.75-2.65,1.29-3.9c0.77-1.81,1.27-1.98,3.23-1.46c1.41,0.38,2.41,1.65,2.15,3.04
		c-0.17,0.91-0.67,1.76-1.16,2.98c-1.14-1.68,0.99-4.24-2.2-4.51c-1.48,2.23-2.16,4.79-2.62,7.37c2.71,0.75,5.17,1.47,7.66,2.09
		c0.65,0.16,1.51,0.23,2.07-0.06c2.13-1.12,3.6-4.55,3.11-6.85c-0.78-3.64-2.7-6.5-5.72-8.69c-2.84-2.06-6.12-2.93-9.47-3.48
		c-3.35-0.55-6.75-0.73-10.1-1.23c-2.53-0.38-5.04-0.99-7.54-1.55c-2.41-0.54-4.84-1.02-7.2-1.75c-5.43-1.68-10.81-3.46-16.58-3.65
		c-4.21-0.14-6.09,0.18-8.16,5.27c-0.97,2.36-1.64,4.85-2.46,7.27c-1.38,4.12-1.48,8.28-0.25,12.43c0.47,1.59,1.29,2.95,2.87,3.87
		c2.94,1.71,6.08,2.85,9.24,4.09c5.53,2.18,10.93,4.67,16.63,6.43c5.6,1.72,11.04,3.97,16.96,4.5
		C105.94,59.36,107.16,59.71,108.34,59.94z M96.23,62.14c-3.79-1.66-7.65-2.11-10.61-4.82c-0.65-0.6-1.8-0.74-2.75-0.9
		c-2.87-0.49-5.89-0.5-8.6-1.41c-2.97-1-6.01-0.07-8.9-1c-0.43-0.14-1.14,0.13-1.52,0.45c-1.05,0.86-2.11,0.98-3.33,0.48
		c-1.06-0.43-2.02-0.21-2.67,0.74c-0.79,1.16-1.83,1.4-3.12,1.15c-1.71-0.33-3.28,0.1-4.7,1.06c-1.03,0.7-2.01,1.01-3.33,0.59
		c-1-0.31-2.58-0.49-3.19,0.06c-1.51,1.37-3.35,1.85-5.07,2.68c-0.08,0.04-0.03,0.33-0.04,0.61c0.36,0.2,0.73,0.48,1.14,0.64
		c4.77,1.85,9.58,3.63,14.32,5.55c4.67,1.89,9.32,3.86,13.91,5.95c1.44,0.66,2.59,0.43,3.91-0.13c4.63-1.97,9.27-3.89,13.92-5.83
		c3.46-1.44,6.95-2.81,10.37-4.33c1.84-0.82,3.56-1.88,5.54-2.95c-4.77-1.42-9.1-2.71-13.42-3.99c-0.07,0.21-0.14,0.43-0.21,0.64
		c2.01,0.77,4.01,1.56,6.03,2.28C94.93,60.04,95.83,60.48,96.23,62.14z M110.65,62.34c-4.19-1.49-6.47-1.26-9.02-0.02
		c-4.27,2.08-8.59,4.05-12.91,6.04c-2,0.92-4.02,1.77-6.05,2.62c-3.88,1.63-7.75,3.3-11.69,4.79c-1.11,0.42-2.28,0.8-3.68,0.1
		c-3.76-1.87-7.62-3.55-11.5-5.15c-2.87-1.19-5.87-2.07-8.75-3.23c-2.63-1.06-5.15-2.39-7.79-3.43c-2.37-0.93-4.85-1.6-7.26-2.44
		c-1.64-0.57-3.29-1.15-4.87-1.87c-1.46-0.67-1.42-1.63-0.03-2.54c0.84-0.55,1.63-1.23,2.54-1.63c5.76-2.56,11.66-4.69,17.8-6.2
		c4.12-1.01,8.09-2.61,12.4-4.03c-1.23-1.72-2.36-1.39-3.62-0.93c-6.87,2.51-13.8,4.84-20.62,7.48c-3.9,1.51-7.69,3.37-11.39,5.34
		c-2.44,1.3-2.33,3.2,0.13,4.54c1.44,0.78,3.05,1.25,4.59,1.81c2.58,0.94,5.19,1.78,7.76,2.76c5.23,1.98,10.43,4.01,15.65,6.03
		c1.7,0.66,3.59,1.07,5.05,2.08c2.42,1.66,5.14,2.36,7.84,3.14c5.9,1.71,11.43,0.25,16.82-2.14c8.7-3.86,17.39-7.75,26.07-11.66
		C109.01,63.4,109.81,62.83,110.65,62.34z M79.62,54.45c0.06-0.17,0.13-0.34,0.19-0.51c-0.77-0.39-1.53-0.85-2.33-1.17
		c-4.32-1.77-8.68-3.45-12.97-5.3c-1.8-0.78-3.62-0.56-5.27-0.14c-3.26,0.83-6.37,2.18-9.6,3.14c-3.06,0.91-6.26,1.4-9.27,2.45
		c-3.52,1.23-6.91,2.85-10.33,4.36c-0.42,0.18-0.69,0.7-1.35,1.4c2.62,0.79,4.86,1.48,7.14,2.17c0.97-1.03,1.79-2.2,3.46-1.87
		c0.43,0.08,1.09-0.26,1.43-0.62c1.58-1.66,3.47-1.75,5.57-1.41c0.83,0.13,1.97,0.12,2.57-0.35c1.58-1.22,3.33-1.48,5.18-1.41
		c1.15,0.04,2.19-0.01,3.01-0.94c0.95-1.09,2.18-1.27,3.52-0.98c1.02,0.22,1.98,0.38,2.76-0.59c0.19-0.24,0.66-0.38,0.98-0.36
		c3,0.19,6,0.3,8.98,0.69C75.44,53.28,77.52,53.95,79.62,54.45z M113.11,60.16c0.46-2.67-0.05-3.41-3.05-4.5
		C109.75,58.38,110.55,59.55,113.11,60.16z"/>
	<path d="M71.74,69.14c-0.8,1.28-1.64,2.53-3.63,2.27C68.76,69.49,70.22,69.27,71.74,69.14z"/>
	<path d="M47.47,61.95c-1.6,0.32-2.74,0.54-3.98,0.78C43.78,60.83,44.29,60.73,47.47,61.95z"/>
	<path d="M87.54,62.09c-0.02,2.3-1.96,1.52-2.71,2.98C84.55,62.9,84.55,62.9,87.54,62.09z"/>
	<path d="M61.39,65.9c-2.66,1.62-3.03,1.57-3.75-0.47C58.85,65.58,59.9,65.71,61.39,65.9z"/>
	<path d="M52.17,62.02c0.86-2.21,0.86-2.21,3.79-1.4C54.55,61.14,53.64,61.47,52.17,62.02z"/>
	<path d="M77.34,68.76c1.08-0.66,1.8-1.1,2.65-1.62C79.59,69.5,79.42,69.62,77.34,68.76z"/>
	<path d="M79.52,59.31c-1,0.75-2.01,1.16-3.38,0.15C77.5,58.44,78.49,58.6,79.52,59.31z"/>
	<path d="M64.34,60.04c-1,0.33-1.75,0.58-2.6,0.86C61.83,58.84,61.88,58.82,64.34,60.04z"/>
	<path d="M69.68,59.88c0.41,0.56,0.83,1.13,1.35,1.84C69.41,61.63,69.41,61.63,69.68,59.88z"/>
	<path d="M90.45,64.17c1.02-0.68,1.65-1.11,2.28-1.53C92.76,63.99,92.46,64.86,90.45,64.17z"/>
</g>
</svg>
