<?xml version="1.0" encoding="utf-8"?>
<!-- Generator: Adobe Illustrator 23.0.1, SVG Export Plug-In . SVG Version: 6.00 Build 0)  -->
<svg version="1.1" id="Layer_1" xmlns="http://www.w3.org/2000/svg" xmlns:xlink="http://www.w3.org/1999/xlink" x="0px" y="0px"
	 viewBox="0 0 150 150" style="enable-background:new 0 0 150 150;" xml:space="preserve">
<style type="text/css">
	.st0{fill:#F49AB4;}
	.st1{fill:#F28DA7;}
	.st2{fill:#E85072;}
	.st3{fill:#E84B6F;}
	.st4{fill:#EB5A7D;}
	.st5{fill:#EF7994;}
	.st6{fill:#F8BCCD;}
	.st7{fill:#F38CA8;}
	.st8{fill:#EF728F;}
	.st9{fill:#FCE4EB;}
	.st10{fill:#F0CCCF;}
	.st11{fill:#DE8D95;}
	.st12{fill:#EBBABF;}
	.st13{fill:#E7ACB2;}
	.st14{fill:#E39DA3;}
	.st15{fill:#F5DEE0;}
	.st16{fill:#D97A83;}
	.st17{fill:#E4A6AD;}
	.st18{fill:#E9B6BB;}
	.st19{fill:#DA9197;}
	.st20{fill:#CC7077;}
	.st21{fill:#C9646C;}
	.st22{fill:#D4848B;}
	.st23{fill:#D17A81;}
	.st24{fill:#DD9EA3;}
	.st25{fill:#C65760;}
	.st26{fill:#D48189;}
	.st27{fill:#CF6E76;}
	.st28{fill:#C1575F;}
	.st29{fill:#B8424B;}
	.st30{fill:#B33C43;}
	.st31{fill:#BB4952;}
	.st32{fill:#C65E66;}
	.st33{fill:#BC4F57;}
	.st34{fill:#B0353D;}
	.st35{fill:#D67E84;}
	.st36{fill:#C6636B;}
	.st37{fill:#CA6C72;}
	.st38{fill:#B9454D;}
	.st39{fill:#C05B63;}
	.st40{fill:#C0545B;}
	.st41{fill:#BE4C53;}
	.st42{fill:#B43C44;}
	.st43{fill:#DF999F;}
	.st44{fill:#D27980;}
	.st45{fill:#C1555D;}
	.st46{fill:#CB6F76;}
	.st47{fill:#C8676E;}
	.st48{fill:#D5838A;}
	.st49{fill:#C65D64;}
	.st50{fill:#F1D1D4;}
	.st51{fill:#D38087;}
	.st52{fill:#CF737C;}
	.st53{fill:#D98C94;}
	.st54{fill:#E6B3B9;}
	.st55{fill:#D8898F;}
	.st56{fill:#C66269;}
	.st57{fill:#C96A72;}
	.st58{fill:#DD9399;}
	.st59{fill:#CF747B;}
	.st60{fill:#D48188;}
	.st61{fill:#D37D85;}
	.st62{fill:#DC9298;}
	.st63{fill:#D8838B;}
	.st64{fill:#FAECED;}
	.st65{fill:#EFCBD0;}
	.st66{fill:#EDC1C5;}
	.st67{fill:#D28089;}
	.st68{fill:#CB747D;}
	.st69{fill:#A8343C;}
	.st70{fill:#A62F37;}
	.st71{fill:#B03E44;}
	.st72{fill:#C25C63;}
	.st73{fill:#E1A8AC;}
	.st74{fill:#BE535C;}
	.st75{fill:#CE727C;}
	.st76{fill:#F5D8DA;}
	.st77{fill:#D8BAE7;}
	.st78{fill:#BC8FD2;}
	.st79{fill:#B17FC9;}
	.st80{fill:#7D3CA4;}
	.st81{fill:#884BAE;}
	.st82{fill:#A369BF;}
	.st83{fill:#D2B5E2;}
	.st84{fill:#9A62BC;}
	.st85{fill:#B17ECB;}
	.st86{fill:#ECE0F2;}
	.st87{fill:#FBCBC8;}
	.st88{fill:#F5908C;}
	.st89{fill:#F28580;}
	.st90{fill:#E64640;}
	.st91{fill:#E5413B;}
	.st92{fill:#E74E49;}
	.st93{fill:#ED6D68;}
	.st94{fill:#F7B5B0;}
	.st95{fill:#ED6660;}
	.st96{fill:#F48580;}
	.st97{fill:#FBDFDF;}
	.st98{fill:#F9C1C0;}
	.st99{fill:#F7B7B6;}
	.st100{fill:#EF7573;}
	.st101{fill:#EF6F6D;}
	.st102{fill:#F17F7C;}
	.st103{fill:#F4A19F;}
	.st104{fill:#F39998;}
	.st105{fill:#EC7271;}
	.st106{fill:#FAD1CF;}
	.st107{fill:#FADCDC;}
	.st108{fill:#F39391;}
	.st109{fill:#FDECEC;}
	.st110{fill:#FCDDDD;}
	.st111{fill:#ED8280;}
	.st112{fill:#E66160;}
	.st113{fill:#F18784;}
	.st114{fill:#F19593;}
	.st115{fill:#EB7675;}
	.st116{fill:#E86867;}
	.st117{fill:#F28785;}
	.st118{fill:#F3A7A7;}
	.st119{fill:#F08C8B;}
	.st120{fill:#F08785;}
	.st121{fill:#E55D5B;}
	.st122{fill:#E86D6C;}
	.st123{fill:#E85F5D;}
	.st124{fill:#E75958;}
	.st125{fill:#EA6664;}
	.st126{fill:#E76260;}
	.st127{fill:#E04948;}
	.st128{fill:#ED7371;}
	.st129{fill:#EA6B6A;}
	.st130{fill:#EB6763;}
	.st131{fill:#E45352;}
	.st132{fill:#E54E4C;}
	.st133{fill:#DE3635;}
	.st134{fill:#E65958;}
	.st135{fill:#E0413E;}
	.st136{fill:#EA6D6A;}
	.st137{fill:#EE9493;}
	.st138{fill:#EA6866;}
	.st139{fill:#F2A8A6;}
	.st140{fill:#E14543;}
	.st141{fill:#E3413F;}
	.st142{fill:#E64A48;}
	.st143{fill:#E56967;}
	.st144{fill:#E33F3D;}
	.st145{fill:#EB7775;}
	.st146{fill:#EE8483;}
	.st147{fill:#E64845;}
	.st148{fill:#E75655;}
	.st149{fill:#E65451;}
	.st150{fill:#EA7473;}
	.st151{fill:#E55B57;}
	.st152{fill:#E75756;}
	.st153{fill:#EB7472;}
	.st154{fill:#EE8C8A;}
	.st155{fill:#F5A3A2;}
	.st156{fill:#E14A49;}
	.st157{fill:#E14D4C;}
	.st158{fill:#E14B49;}
	.st159{fill:#DE3E3D;}
	.st160{fill:#E45350;}
	.st161{fill:#E14544;}
	.st162{fill:#E54E4B;}
	.st163{fill:#E34240;}
	.st164{fill:#E75C5A;}
	.st165{fill:#EB7C7B;}
	.st166{fill:#F3A2A1;}
	.st167{fill:#EA7877;}
	.st168{fill:#E66B6A;}
	.st169{fill:#E96A69;}
	.st170{fill:#E56160;}
	.st171{fill:#E44845;}
	.st172{fill:#EC7473;}
	.st173{fill:#F9C0D3;}
	.st174{fill:#F298B5;}
	.st175{fill:#EE89A7;}
	.st176{fill:#E54D73;}
	.st177{fill:#E44771;}
	.st178{fill:#E7567E;}
	.st179{fill:#EC7797;}
	.st180{fill:#F8BCCF;}
	.st181{fill:#EB6D8F;}
	.st182{fill:#F089A8;}
	.st183{fill:#FCE2EB;}
	.st184{fill:#E55B7F;}
	.st185{fill:#E6708E;}
	.st186{fill:#EB87A2;}
	.st187{fill:#E25677;}
	.st188{fill:#E7678B;}
	.st189{fill:#FBD7E3;}
	.st190{fill:#ED80A1;}
	.st191{fill:#E24166;}
	.st192{fill:#E13B65;}
	.st193{fill:#E34870;}
	.st194{fill:#E76486;}
	.st195{fill:#F49DB8;}
	.st196{fill:#F7BFD1;}
	.st197{fill:#E65C7F;}
	.st198{fill:#F6ABC4;}
	.st199{fill:#F6A7C2;}
	.st200{fill:#EA6189;}
	.st201{fill:#DB3258;}
	.st202{fill:#DA2E55;}
	.st203{fill:#F7B2C9;}
	.st204{fill:#EA6A8D;}
	.st205{fill:#DC355B;}
	.st206{fill:#DB3159;}
	.st207{fill:#DF3C63;}
	.st208{fill:#F9C5D6;}
	.st209{fill:#EB7697;}
	.st210{fill:#DE3B61;}
	.st211{fill:#DE375F;}
	.st212{fill:#E1426A;}
	.st213{fill:#FDE7EE;}
	.st214{fill:#EE89A9;}
	.st215{fill:#E2456B;}
	.st216{fill:#E14069;}
	.st217{fill:#E44D75;}
	.st218{fill:#E86B8C;}
	.st219{fill:#EE7A9C;}
	.st220{fill:#F5A8C0;}
	.st221{fill:#FACBDA;}
	.st222{fill:#E65A7D;}
	.st223{fill:#E04169;}
	.st224{fill:#FEF5F9;}
	.st225{fill:#F191B0;}
	.st226{fill:#EA7292;}
	.st227{fill:#F6B4C9;}
	.st228{fill:#FBD8E5;}
	.st229{fill:#E96C8F;}
	.st230{fill:#E35477;}
	.st231{fill:#EA7396;}
	.st232{fill:#EB7A9D;}
	.st233{fill:#E8698D;}
	.st234{fill:#EB7094;}
	.st235{fill:#E04B6E;}
	.st236{fill:#E66085;}
	.st237{fill:#EB7294;}
	.st238{fill:#E7678C;}
	.st239{fill:#EA6D91;}
	.st240{fill:#E14C71;}
	.st241{fill:#EE7A9D;}
	.st242{fill:#F393B2;}
	.st243{fill:#DC3F64;}
	.st244{fill:#EF82A3;}
	.st245{fill:#F39DB9;}
	.st246{fill:#DF466B;}
	.st247{fill:#DF4469;}
	.st248{fill:#F29A98;}
	.st249{fill:#E64F4D;}
	.st250{fill:#E74947;}
	.st251{fill:#E85956;}
	.st252{fill:#EC7775;}
	.st253{fill:#F8BCBA;}
	.st254{fill:#EC6F6D;}
	.st255{fill:#FCE2E2;}
	.st256{fill:#F8C8C6;}
	.st257{fill:#F08B89;}
	.st258{fill:#F18A89;}
	.st259{fill:#B093A4;}
	.st260{fill:#A38295;}
	.st261{fill:#6F455A;}
	.st262{fill:#694055;}
	.st263{fill:#794F64;}
	.st264{fill:#936F83;}
	.st265{fill:#CDB7C1;}
	.st266{fill:#B596A5;}
	.st267{fill:#A58394;}
	.st268{fill:#8C667A;}
	.st269{fill:#B696A7;}
	.st270{fill:#E8E0E7;}
	.st271{fill:#E1BCC2;}
	.st272{fill:#A9666E;}
	.st273{fill:#681C23;}
	.st274{fill:#641920;}
	.st275{fill:#73242D;}
	.st276{fill:#8D3F48;}
	.st277{fill:#C69197;}
	.st278{fill:#893841;}
	.st279{fill:#E3CCCE;}
	.st280{fill:#6F292E;}
	.st281{fill:#A15A63;}
	.st282{fill:#944952;}
	.st283{fill:#944953;}
	.st284{fill:#964A53;}
	.st285{fill:#984B54;}
	.st286{fill:#974A53;}
	.st287{fill:#A25A62;}
	.st288{fill:#D2BCC8;}
	.st289{fill:#C8B2BE;}
	.st290{fill:#936A80;}
	.st291{fill:#8E667B;}
	.st292{fill:#9B7589;}
	.st293{fill:#B293A3;}
	.st294{fill:#916B7F;}
	.st295{fill:#DDCCD6;}
	.st296{fill:#AC8B9C;}
	.st297{fill:#F1EBEF;}
	.st298{fill:#9C7A8C;}
	.st299{fill:#8F6C80;}
	.st300{fill:#B99DAC;}
	.st301{fill:#A27F91;}
	.st302{fill:#C2A7B6;}
	.st303{fill:#AB8E9F;}
	.st304{fill:#936D82;}
	.st305{fill:#856174;}
	.st306{fill:#B99DAB;}
	.st307{fill:#C2A9B6;}
	.st308{fill:#A38091;}
	.st309{fill:#BBA3B0;}
	.st310{fill:#7A5468;}
	.st311{fill:#855F73;}
	.st312{fill:#AE8E9F;}
	.st313{fill:#7C556A;}
	.st314{fill:#7B5066;}
	.st315{fill:#855C71;}
	.st316{fill:#AF8E9F;}
	.st317{fill:#734B60;}
	.st318{fill:#694256;}
	.st319{fill:#916A80;}
	.st320{fill:#886378;}
	.st321{fill:#875C71;}
	.st322{fill:#714B5E;}
	.st323{fill:#582F42;}
	.st324{fill:#795066;}
	.st325{fill:#5E3A4B;}
	.st326{fill:#8A6578;}
	.st327{fill:#A98E9D;}
	.st328{fill:#B9A1B1;}
	.st329{fill:#B08F9F;}
	.st330{fill:#B898AA;}
	.st331{fill:#896578;}
	.st332{fill:#653C50;}
	.st333{fill:#623A4E;}
	.st334{fill:#6C4257;}
	.st335{fill:#B28FA1;}
	.st336{fill:#80596E;}
	.st337{fill:#7F586C;}
	.st338{fill:#765063;}
	.st339{fill:#683F53;}
	.st340{fill:#774E63;}
	.st341{fill:#704B5F;}
	.st342{fill:#674355;}
	.st343{fill:#7F5A6E;}
	.st344{fill:#815A6E;}
	.st345{fill:#6A4558;}
	.st346{fill:#5D374A;}
	.st347{fill:#926D80;}
	.st348{fill:#70475B;}
	.st349{fill:#72495E;}
	.st350{fill:#673D52;}
	.st351{fill:#673D51;}
	.st352{fill:#60364B;}
	.st353{fill:#795265;}
	.st354{fill:#683F52;}
	.st355{fill:#7A5368;}
	.st356{fill:#987387;}
	.st357{fill:#70475C;}
	.st358{fill:#A07D92;}
	.st359{fill:#81596E;}
	.st360{fill:#926C7F;}
	.st361{fill:#80596D;}
	.st362{fill:#CDC0E4;}
	.st363{fill:#A998CF;}
	.st364{fill:#644DA1;}
	.st365{fill:#5E479E;}
	.st366{fill:#6F56A9;}
	.st367{fill:#755CAC;}
	.st368{fill:#8975BA;}
	.st369{fill:#C4BAE0;}
	.st370{fill:#755DAD;}
	.st371{fill:#846DB7;}
	.st372{fill:#E7E2F2;}
	.st373{fill:#9B89C5;}
	.st374{fill:#8871B8;}
	.st375{fill:#9C89C6;}
	.st376{fill:#8673B9;}
	.st377{fill:#B9E1BA;}
	.st378{fill:#ADDBAE;}
	.st379{fill:#99D09A;}
	.st380{fill:#65B567;}
	.st381{fill:#5FB261;}
	.st382{fill:#70BB71;}
	.st383{fill:#8DCB8E;}
	.st384{fill:#CBE9CB;}
	.st385{fill:#86C687;}
	.st386{fill:#98D099;}
	.st387{fill:#EBF5EB;}
	.st388{fill:#B9D6C9;}
	.st389{fill:#8EBD9E;}
	.st390{fill:#7DB18E;}
	.st391{fill:#408251;}
	.st392{fill:#3A7F4C;}
	.st393{fill:#4A8C5B;}
	.st394{fill:#68A279;}
	.st395{fill:#B5D4BE;}
	.st396{fill:#7CB38B;}
	.st397{fill:#619D71;}
	.st398{fill:#E0ECE4;}
	.st399{fill:#74A38C;}
	.st400{fill:#679880;}
	.st401{fill:#669780;}
	.st402{fill:#669881;}
	.st403{fill:#285E41;}
	.st404{fill:#235A3C;}
	.st405{fill:#31684A;}
	.st406{fill:#4D8268;}
	.st407{fill:#A1C2B0;}
	.st408{fill:#679981;}
	.st409{fill:#467B62;}
	.st410{fill:#D6E5DF;}
	.st411{fill:#8ECA8F;}
	.st412{fill:#7DC07F;}
	.st413{fill:#409841;}
	.st414{fill:#3A933C;}
	.st415{fill:#4AA14B;}
	.st416{fill:#68B569;}
	.st417{fill:#7CC07D;}
	.st418{fill:#B5DDB5;}
	.st419{fill:#61B062;}
	.st420{fill:#7CC17E;}
	.st421{fill:#E0EFE0;}
	.st422{fill:#EBF5DE;}
	.st423{fill:#D4EAB8;}
	.st424{fill:#D2E9B4;}
	.st425{fill:#D8ECBE;}
	.st426{fill:#E2F0CE;}
	.st427{fill:#F3F9EA;}
	.st428{fill:#DFF0CA;}
	.st429{fill:#FAFDF7;}
	.st430{fill:#D3C9BE;}
	.st431{fill:#CBBEB3;}
	.st432{fill:#BBAC9F;}
	.st433{fill:#97826F;}
	.st434{fill:#947E69;}
	.st435{fill:#9F8A79;}
	.st436{fill:#B5A495;}
	.st437{fill:#DED6CE;}
	.st438{fill:#BBAD9F;}
	.st439{fill:#AE9E8D;}
	.st440{fill:#F2EFEC;}
	.st441{fill:#B1A091;}
	.st442{fill:#B1A090;}
	.st443{fill:#D8BACF;}
	.st444{fill:#976286;}
	.st445{fill:#905778;}
	.st446{fill:#4F1939;}
	.st447{fill:#4C1637;}
	.st448{fill:#5A2144;}
	.st449{fill:#773B60;}
	.st450{fill:#B88FAD;}
	.st451{fill:#6E345A;}
	.st452{fill:#8E567D;}
	.st453{fill:#E1CCDA;}
	.st454{fill:#C4E2A7;}
	.st455{fill:#93C35F;}
	.st456{fill:#8EC15A;}
	.st457{fill:#9AC868;}
	.st458{fill:#B0D587;}
	.st459{fill:#DCEBC3;}
	.st460{fill:#C8E0AA;}
	.st461{fill:#ABD280;}
	.st462{fill:#CAE2A9;}
	.st463{fill:#EFF8E7;}
	.st464{fill:#FFF6C0;}
	.st465{fill:#FFEC97;}
	.st466{fill:#FFDC4B;}
	.st467{fill:#FFD945;}
	.st468{fill:#FFDD54;}
	.st469{fill:#FFE774;}
	.st470{fill:#FFF4BA;}
	.st471{fill:#FFE46C;}
	.st472{fill:#FFF9E2;}
	.st473{fill:#FDE2C1;}
	.st474{fill:#F9CA98;}
	.st475{fill:#F9C18A;}
	.st476{fill:#F5994E;}
	.st477{fill:#F49448;}
	.st478{fill:#F8A158;}
	.st479{fill:#F8B577;}
	.st480{fill:#FCDDBC;}
	.st481{fill:#F8B06F;}
	.st482{fill:#FFEFE2;}
	.st483{fill:#F8A7A4;}
	.st484{fill:#EF8262;}
	.st485{fill:#EC605A;}
	.st486{fill:#EB5B55;}
	.st487{fill:#EC6964;}
	.st488{fill:#F28783;}
	.st489{fill:#F9C4C1;}
	.st490{fill:#F2817A;}
	.st491{fill:#EB6449;}
	.st492{fill:#FCE7E7;}
	.st493{fill:#FFEA88;}
	.st494{fill:#FFEB87;}
	.st495{fill:#FDF2E3;}
	.st496{fill:#FDEFDD;}
	.st497{fill:#F9E1C4;}
	.st498{fill:#FADEB9;}
	.st499{fill:#FADDB7;}
	.st500{fill:#FAE0BF;}
	.st501{fill:#FBE9CF;}
	.st502{fill:#F9DAB8;}
	.st503{fill:#FDF5EB;}
	.st504{fill:#FBE6CB;}
	.st505{fill:#FFFBF7;}
	.st506{fill:#FBDFBE;}
	.st507{fill:#F7D8B5;}
	.st508{fill:#FBE8CF;}
	.st509{fill:#FBE3C8;}
	.st510{fill:#F9E8CF;}
	.st511{fill:#F8DBB7;}
	.st512{fill:#FADBB5;}
	.st513{fill:#F7D5AE;}
	.st514{fill:#FDE9D5;}
	.st515{fill:#FAE3C8;}
	.st516{fill:#F7D1A4;}
	.st517{fill:#F5CD9D;}
	.st518{fill:#F7D8B0;}
	.st519{fill:#F8D4A9;}
	.st520{fill:#F8D3A6;}
	.st521{fill:#F8D8AF;}
	.st522{fill:#F7CD9E;}
	.st523{fill:#F4C896;}
	.st524{fill:#FBE3C5;}
	.st525{fill:#F7DBB8;}
	.st526{fill:#F7D8B1;}
	.st527{fill:#F7D7B0;}
	.st528{fill:#F8CD9F;}
	.st529{fill:#F8CD9E;}
	.st530{fill:#F1BE84;}
	.st531{fill:#F8D0A3;}
	.st532{fill:#F1C38D;}
	.st533{fill:#F8D8B1;}
	.st534{fill:#FBE2C8;}
	.st535{fill:#F9EAD3;}
	.st536{fill:#F9D3AA;}
	.st537{fill:#F7C896;}
	.st538{fill:#F7C794;}
	.st539{fill:#F7CA9A;}
	.st540{fill:#F7D3AB;}
	.st541{fill:#F8D8B5;}
	.st542{fill:#F9E6CF;}
	.st543{fill:#F7C897;}
	.st544{fill:#F8D3AA;}
	.st545{fill:#F7CEA2;}
	.st546{fill:#F4CD9E;}
	.st547{fill:#F5D2A5;}
	.st548{fill:#FBE2C2;}
	.st549{fill:#F5D1A8;}
	.st550{fill:#F8D5AB;}
	.st551{fill:#F2C695;}
	.st552{fill:#F8D3A8;}
	.st553{fill:#F5C998;}
	.st554{fill:#F5C894;}
	.st555{fill:#F2C997;}
	.st556{fill:#F2C48D;}
	.st557{fill:#F4C694;}
	.st558{fill:#F5CE9D;}
	.st559{fill:#F4C594;}
	.st560{fill:#F5C995;}
	.st561{fill:#F4C48F;}
	.st562{fill:#F7D2A6;}
	.st563{fill:#F8DFBB;}
	.st564{fill:#FBE2C3;}
	.st565{fill:#F8CC9E;}
	.st566{fill:#FADFC1;}
	.st567{fill:#F9D8B5;}
	.st568{fill:#F4C997;}
	.st569{fill:#F9DDB8;}
	.st570{fill:#FDFCED;}
	.st571{fill:#FBF7D2;}
	.st572{fill:#F9F6CB;}
	.st573{fill:#F4EBA8;}
	.st574{fill:#F5E9A6;}
	.st575{fill:#F5EDAC;}
	.st576{fill:#F7F5C0;}
	.st577{fill:#FBFBE1;}
	.st578{fill:#F7F0BE;}
	.st579{fill:#FAF6CE;}
	.st580{fill:#FFFBF5;}
	.st581{fill:#BDDB97;}
	.st582{fill:#BBDC99;}
	.st583{fill:#BDDD99;}
	.st584{fill:#B0D484;}
	.st585{fill:#AFD484;}
	.st586{fill:#FFEA87;}
	.st587{fill:#D3E9BA;}
	.st588{fill:#E1EECE;}
	.st589{fill:#D3E8BB;}
	.st590{fill:#E3EECE;}
	.st591{opacity:0.9;}
	.st592{fill:#FFF8CD;}
	.st593{opacity:0.9;fill:#FFEE8A;}
	.st594{fill:#FFF19E;}
	.st595{fill:#FFF5B6;}
	.st596{fill:#FFFBE0;}
	.st597{fill:none;stroke:#FFF4B1;stroke-width:0;}
	.st598{fill:#FFFDF3;}
	.st599{fill:#FACEDD;}
	.st600{opacity:0.9;fill:#F38CAF;}
	.st601{fill:#F5A0BD;}
	.st602{fill:#F8B8CD;}
	.st603{fill:#FCE1EA;}
	.st604{fill:none;stroke:#F7B2C9;stroke-width:0;}
	.st605{fill:#FEF3F7;}
	.st606{fill:#FBDBB6;}
	.st607{fill:#FBD1A3;}
	.st608{fill:#F9B674;}
	.st609{fill:#F8B36E;}
	.st610{fill:#FABB7E;}
	.st611{fill:#FACB99;}
	.st612{fill:#FDE9D1;}
	.st613{fill:#FAC893;}
	.st614{fill:#F9D0A1;}
	.st615{fill:#FFF5EC;}
	.st616{fill:#D7ECC0;}
	.st617{fill:#B1D684;}
	.st618{fill:#ADD680;}
	.st619{fill:#B7D98D;}
	.st620{fill:#C8E2A7;}
	.st621{fill:#E8F2D6;}
	.st622{fill:#C3E0A0;}
	.st623{fill:#F5FAEF;}
	.st624{fill:#A87699;}
	.st625{fill:#A9716E;}
	.st626{fill:#9F698A;}
	.st627{fill:#9F698D;}
	.st628{fill:#65294F;}
	.st629{fill:#632638;}
	.st630{fill:#62244A;}
	.st631{fill:#612335;}
	.st632{fill:#6E3259;}
	.st633{fill:#6D2F40;}
	.st634{fill:#8B4E74;}
	.st635{fill:#C4A1BB;}
	.st636{fill:#9D688D;}
	.st637{fill:#82476E;}
	.st638{fill:#E7D6E1;}
	.st639{fill:#FFF9D6;}
	.st640{fill:#FFF2A6;}
	.st641{fill:#FFF4B0;}
	.st642{fill:#FFF7C4;}
	.st643{fill:#FFFCE6;}
	.st644{fill:#FFF3B5;}
	.st645{fill:#FFED8B;}
	.st646{fill:#FFED94;}
	.st647{fill:#FFF1A4;}
	.st648{fill:#FFF5BF;}
	.st649{fill:#FFF6CD;}
	.st650{fill:#FFE46E;}
	.st651{fill:#FFED98;}
	.st652{fill:#FFF3A9;}
	.st653{fill:#FFEC8D;}
	.st654{fill:#FFE66B;}
	.st655{fill:#FFEC8A;}
	.st656{fill:#FFE66D;}
	.st657{fill:#FFE571;}
	.st658{fill:#FFEF94;}
	.st659{fill:#FFEF9E;}
	.st660{fill:#FFED93;}
	.st661{fill:#FFE873;}
	.st662{fill:#FFE97A;}
	.st663{fill:#FFEC87;}
	.st664{fill:#FFF19F;}
	.st665{fill:#FFF1A8;}
	.st666{fill:#FFEA7E;}
	.st667{fill:#FFEB86;}
	.st668{fill:#FFEF97;}
	.st669{fill:#FFF2B0;}
	.st670{fill:#FFF4BC;}
	.st671{fill:#FFF5C1;}
	.st672{fill:#FFF8CF;}
	.st673{fill:#FFF8DC;}
	.st674{fill:#FFF0A0;}
	.st675{fill:#FFEE92;}
	.st676{fill:#FFF6CE;}
	.st677{fill:#FFFADD;}
	.st678{fill:#FFFBEC;}
	.st679{fill:#FFFDF5;}
	.st680{fill:#F49C52;}
	.st681{fill:#F69D52;}
	.st682{fill:#F8A55E;}
	.st683{fill:#F8B472;}
	.st684{fill:#F59D54;}
	.st685{fill:#F8A65F;}
	.st686{fill:#F8B474;}
	.st687{fill:#FDF3E9;}
	.st688{fill:#FAE8D1;}
	.st689{fill:#FAE8CF;}
	.st690{fill:#FAEBD4;}
	.st691{fill:#F9EDD7;}
	.st692{fill:#FBEFDE;}
	.st693{fill:#FBEFDD;}
	.st694{fill:#FDF8F1;}
	.st695{fill:#FBEDD7;}
	.st696{fill:#FBEFDC;}
	.st697{fill:#FFFBFA;}
	.st698{fill:#FFE771;}
	.st699{fill:#FFEB83;}
	.st700{fill:#FFED90;}
	.st701{fill:#F7B6CB;}
	.st702{fill:#F4A2BB;}
	.st703{fill:#EE7397;}
	.st704{fill:#ED6D94;}
	.st705{fill:#EF7C9F;}
	.st706{fill:#F399B5;}
	.st707{fill:#FAD1DE;}
	.st708{fill:#F291AE;}
	.st709{fill:#F3A1BB;}
	.st710{fill:#FDECF2;}
</style>
<g>
	<path class="st98" d="M117.3,109.33L117.3,109.33c-1.43,0.64-2.79,1.01-3.71,1.21c-0.04,0.01-0.07,0.01-0.11,0.02
		c-0.85,0.17-1.33,0.23-1.33,0.23l0,0c-0.02,0-0.04,0-0.06,0.01c-0.6,0.06-1.18,0.08-1.73,0.08l0,0l0,0l0,0
		c0.57,0,1.17-0.03,1.79-0.09c0,0,0.52-0.06,1.44-0.25C114.51,110.34,115.87,109.97,117.3,109.33L117.3,109.33 M101.1,108.01
		L101.1,108.01c0.17,0.11,0.35,0.23,0.52,0.35l0,0C101.45,108.23,101.27,108.12,101.1,108.01L101.1,108.01 M128.26,98L128.26,98
		c-0.14,0.33-0.29,0.68-0.48,1.04l0,0l0,0c-0.15,0.3-0.31,0.6-0.49,0.91l0,0c-0.09,0.15-0.18,0.31-0.27,0.47
		c-0.12,0.2-0.24,0.4-0.37,0.61l0,0c-0.52,0.83-1.16,1.75-2,2.74l0,0l0,0c-0.81,0.95-1.82,1.97-3.03,2.94
		c-0.04,0.03-0.08,0.06-0.12,0.09l0,0c-0.49,0.39-1.01,0.76-1.56,1.1l0,0c0.54-0.35,1.07-0.72,1.56-1.1
		c1.27-0.99,2.32-2.05,3.15-3.03c0.84-0.99,1.48-1.91,2-2.74c0.12-0.21,0.25-0.41,0.37-0.61c0.09-0.16,0.18-0.32,0.27-0.47
		c0.17-0.31,0.34-0.62,0.49-0.91C127.96,98.67,128.12,98.32,128.26,98 M130.17,90.41L130.17,90.41c-0.03,1.52-0.17,2.5-0.17,2.5l0,0
		c-0.01,0.04-0.02,0.07-0.03,0.11c0,0.01,0,0.02-0.01,0.02l0,0c0.01-0.04,0.03-0.09,0.04-0.13C130,92.91,130.14,91.93,130.17,90.41
		L130.17,90.41 M129.55,85.18L129.55,85.18c0.02,0.08,0.04,0.17,0.06,0.25c0.2,0.8,0.34,1.75,0.44,2.55
		c0.09,0.89,0.12,1.72,0.12,2.43l0,0c0-0.71-0.03-1.54-0.12-2.43l0,0l0,0c-0.1-0.8-0.24-1.75-0.44-2.55l0,0l0,0
		C129.59,85.35,129.57,85.27,129.55,85.18 M126.03,79.55L126.03,79.55c0.3,0.06,0.62,0.26,0.93,0.54c0.07,0.06,0.13,0.12,0.2,0.18
		l0,0c-0.06-0.06-0.12-0.12-0.18-0.17c-0.01,0-0.01-0.01-0.02-0.01C126.65,79.81,126.33,79.62,126.03,79.55 M124.74,77.87
		L124.74,77.87c0.01,0.01,0.02,0.03,0.03,0.04c0.3,0.39,0.59,0.79,0.82,1.11c0.18,0.26,0.32,0.44,0.36,0.5l0,0
		c-0.04-0.06-0.18-0.24-0.36-0.5l0,0c-0.23-0.33-0.53-0.72-0.82-1.11l0,0C124.76,77.9,124.75,77.89,124.74,77.87 M123.63,76.07
		L123.63,76.07c0,0.04,0.01,0.08,0.02,0.13l0,0C123.64,76.15,123.63,76.11,123.63,76.07 M123.63,76.04l0,0.03l0,0L123.63,76.04
		L123.63,76.04 M119.09,73.87c-0.01,0-0.01,0-0.02,0l0,0C119.08,73.87,119.09,73.87,119.09,73.87c0.73,0,1.34,0.08,1.85,0.19
		c0.16,0.03,0.3,0.07,0.44,0.12c0.14,0.05,0.3,0.13,0.43,0.2c0.27,0.15,0.5,0.29,0.71,0.45c0.82,0.62,1.11,1.23,1.11,1.23l0,0
		c0,0,0,0,0,0c-0.02-0.04-0.32-0.63-1.11-1.22l0,0l0,0c-0.21-0.16-0.44-0.3-0.71-0.45l0,0l0,0c-0.13-0.07-0.29-0.15-0.43-0.2l0,0
		l0,0c-0.14-0.04-0.28-0.08-0.44-0.12l0,0C120.44,73.94,119.82,73.87,119.09,73.87"/>
	<path class="st109" d="M75.03,100.81L75.03,100.81C75.03,100.81,75.03,100.81,75.03,100.81L75.03,100.81
		C75.03,100.81,75.03,100.81,75.03,100.81L75.03,100.81 M75.03,100.81C75.03,100.81,75.03,100.81,75.03,100.81
		C75.03,100.81,75.03,100.81,75.03,100.81L75.03,100.81C75.03,100.81,75.03,100.81,75.03,100.81L75.03,100.81"/>
	<path class="st248" d="M62.62,46.69c-0.06,0-0.11,0-0.17,0c-0.42,0.05-0.83,0.13-1.23,0.23l-0.6,0.16l-0.3,0.09l-0.15,0.05
		l-0.24,0.05c-0.73,0.17-2.13,0.32-4.36,1.03c-1.11,0.37-2.45,0.91-3.88,1.75c-1.42,0.83-2.94,2.04-4.11,3.32
		c-1.18,1.29-2.04,2.61-2.64,3.76c-0.6,1.16-0.96,2.15-1.22,2.96c-0.49,1.61-0.61,2.6-0.68,2.92c0,0,0,0.01,0,0.01
		c0.02-0.07,0.03-0.15,0.05-0.23c0.18-0.73,0.44-2.47,1.63-4.98l0,0c0.59-1.22,1.47-2.65,2.64-3.99c0.02-0.02,0.04-0.04,0.06-0.06
		c0.06-0.06,0.11-0.13,0.17-0.19c1.16-1.28,2.6-2.42,3.87-3.2l0,0l0,0c1.31-0.8,2.47-1.31,3.42-1.66c0.03-0.01,0.06-0.02,0.09-0.03
		l0,0c0.96-0.35,1.7-0.56,2.31-0.72l0,0c0.01,0,0.03-0.01,0.04-0.01c0.88-0.21,1.6-0.39,2.1-0.51l0,0c0.01,0,0.01,0,0.02,0
		c0.35-0.09,0.45-0.13,0.46-0.13l0,0l0,0l0,0l0,0l0,0l0,0l0,0l0,0l0,0l0,0c-0.01,0-0.11,0.04-0.46,0.13c-0.01,0-0.01,0-0.02,0l0,0
		c-0.5,0.12-1.22,0.29-2.1,0.51c-0.01,0-0.03,0.01-0.04,0.01l0,0c-0.61,0.16-1.36,0.37-2.31,0.72l0,0
		c-0.03,0.01-0.06,0.02-0.09,0.03c-0.94,0.35-2.11,0.86-3.42,1.66l0,0l0,0c-1.28,0.77-2.71,1.92-3.87,3.2
		c-0.06,0.06-0.11,0.13-0.17,0.19c-0.02,0.02-0.04,0.04-0.06,0.06c-1.17,1.33-2.06,2.77-2.64,3.99l0,0
		c-1.19,2.5-1.45,4.25-1.63,4.98c-0.02,0.08-0.03,0.15-0.05,0.23c-0.1,0.58-0.29,1.15-0.62,1.71c-0.34,0.69-0.82,1.4-1.47,2.08
		c-0.78,1.13-1.44,2.25-1.91,3.6c-0.03,0.04-0.07,0.1-0.11,0.17c-0.06,0.2-0.1,0.38-0.11,0.52c0,0.01,0,0.02,0,0.03l0.01,0.08
		l-0.67,1.08c0,0.04,0,0.09,0,0.13l0,0c0,1.01-0.18,2.08-0.21,3.11c0.05,1.05,0.26,2.13,0.71,2.87c0.18,0.25,0.4,0.48,0.68,0.7
		c0.03,0.02,0.05,0.03,0.08,0.04l0,0c0,0,0,0,0,0c0,0,0,0.01,0.01,0.02c0.02,0.01,0.03,0.03,0.05,0.04
		c0.14,0.55,0.22,1.07,0.27,1.57c0.06,0.4,0.12,0.81,0.14,1.18l0,0c0.01,0.1,0.01,0.2,0.01,0.3l0,0l0,0l0,0l0,0l0,0l0,0l-0.01,0.22
		l0,0c0,0.08-0.01,0.15-0.02,0.21c0.01,0.14,0.02,0.28,0.02,0.41c0.12,1.41,0.39,2.74,1.45,4.16c0.54,0.69,1.12,1.35,1.71,1.98
		c0.15,0.13,0.31,0.26,0.47,0.38l0,0l0,0l0,0l0,0c-0.16-0.12-0.32-0.25-0.47-0.38c0.53,0.56,1.07,1.11,1.61,1.63
		c1.98,1.91,3.94,3.57,5.52,5.51c0.74,0.87,1.42,1.69,2.05,2.54c0.29,0.41,0.66,0.9,0.89,1.28c0.26,0.39,0.5,0.81,0.73,1.22
		c0.2,0.33,0.24,1.56,0.24,2.74l0,0c0,0.86-0.02,1.7-0.02,2.14c0,0.02,0,0.03,0,0.04c0,1.89,2.25,2.7,4.03,2.81
		c0.51-0.02,1-0.03,1.49-0.03c2.45,0,4.72,0.22,7.24,0.5c0.98,0.3,1.62,1.26,2.79,1.64c0.28,0.05,0.87,0.16,1.38,0.2
		c0.24,0.02,0.48,0.03,0.73,0.03c0.27,0,0.54-0.01,0.81-0.03c1.02-0.08,2.07-0.3,3.21-0.7c1.14-0.41,2.43-1,3.76-2.06
		c1.34-1.05,2.55-2.69,3.1-4.38c0.49-1.26,0.57-2.23,0.57-2.9c0-0.16-0.01-0.31-0.01-0.44c-0.05-0.71-0.14-0.97-0.23-1.31
		c-0.16-0.65-0.35-1.18-0.52-1.62c-0.36-0.88-0.68-1.38-0.94-1.68c-0.46-0.53-0.7-0.44-0.69-0.51l0,0c0-0.01,0-0.02,0.01-0.04
		c-0.01-0.03-0.01-0.06-0.01-0.08l0,0c0-0.61,1.23-1.09,1.32-1.97c-0.03-1.21-1.06-2.19-2.05-2.67c-1.16-0.66-2.38-1.3-3.38-2
		c-0.01,0.08-0.02,0.17-0.03,0.26l-0.03,0.24l-0.01,0.13v0.01l-0.38,1.24v0v0l0,0l0,0c-0.13,0.44-0.26,0.84-0.37,1.22
		c0.04-0.12,0.05-0.17,0.05-0.17l0,0l0,0l0,0l0,0c0,0-0.04,0.11-0.08,0.25c-0.31,1-0.55,1.8-0.74,2.44l0,0
		c0.07-0.23,0.12-0.39,0.12-0.39l0,0l0,0l0,0l0,0l0,0l0,0l0,0l0,0l0,0l0,0c0,0-0.03,0.11-0.12,0.39l0,0
		c-0.06,0.2-0.14,0.45-0.21,0.7c-0.11,0.35-0.21,0.7-0.28,0.9c-0.01,0.03-0.02,0.06-0.03,0.09l-0.02,0.09c0,0.01,0,0.02-0.01,0.03
		l-0.01,0.05c0,0.01,0,0.02-0.01,0.03c0,0.01,0,0.03-0.01,0.04c-0.04,0.22-0.09,0.58-0.12,0.97c0,0.02,0,0.05,0,0.07
		c-0.01,0.16-0.01,0.33-0.01,0.49c0,0.01,0,0.01,0,0.02c0,0.01,0,0.02,0,0.03c0.18,0.31,0.4,0.61,0.6,0.91
		c0.21,0.32,0.39,0.7,0.39,1.02l0,0c0,0.18-0.06,0.35-0.21,0.46c0.06-0.04,0.11-0.06,0.15-0.06c0.09,0,0.14,0.09,0.15,0.23
		c0,0.02,0,0.03,0,0.05l0,0c0,0.18-0.06,0.29-0.18,0.33c-0.05,0.03-0.14,0.04-0.24,0.04c-0.1,0-0.21-0.01-0.3-0.04
		c-0.12-0.04-0.19-0.1-0.19-0.16l0,0c0-0.03,0.01-0.05,0.04-0.08c-0.03-0.01-0.07-0.12-0.12-0.26c-0.02-0.01-0.05-0.01-0.07-0.02
		c-0.03-0.01-0.06-0.02-0.09-0.02c-0.09-0.02-0.19-0.04-0.31-0.07c-0.03-0.01-0.05-0.01-0.08-0.02c-0.17-0.03-0.38-0.06-0.64-0.1
		c-0.05-0.01-0.11-0.01-0.17-0.02c-0.03,0-0.07-0.01-0.1-0.01c-0.04,0-0.07-0.01-0.11-0.01c-0.05-0.01-0.11-0.01-0.16-0.02
		l-0.25-0.02c-0.08-0.01-0.16-0.01-0.25-0.02c-0.03,0-0.05,0-0.08-0.01l-0.06,0c-0.36-0.02-0.71-0.05-1.06-0.07
		c-0.14-0.01-0.3-0.02-0.46-0.02l-1.83-0.07l0.17-0.03c0.22-0.09,0.44-0.25,0.66-0.39c0.45-0.28,0.9-0.58,1.35-0.91
		c0.06-0.07,0.09-0.15,0.1-0.22c0-0.07-0.03-0.13-0.12-0.18c-1.11-0.67-0.49-1.63-1.15-2.26c-0.24-0.27-0.75-0.45-0.75-0.78l0,0l0,0
		l0,0l0,0c0.02-0.88,0.24-1.81,0.59-2.82c-1.58-0.1-3.03-0.49-3.08-0.8c0-0.01,0-0.03,0-0.04l0,0c0-0.55,0.37-1.47,0.92-1.8
		c1.45-1.14,1.68-2.14,2.77-3.23c0.3-0.28,0.76-0.5,1.06-0.79c0.37-0.4,0.78-0.85,1.13-1.23c0.37-0.32,0.64-0.59,0.71-0.71
		c0.26-0.33,0.41-0.54,0.41-0.65c0-0.07-0.05-0.1-0.17-0.1c-0.02,0-0.05,0-0.08,0c-0.03-0.1-0.06-0.2-0.08-0.31
		c-0.41,0.06-0.91,0.13-1.49,0.17l-0.22,0.01c-0.39,0.02-0.72,0.04-0.94,0.04c-0.17,0-0.27-0.01-0.27-0.06l0,0
		c0-0.01,0.01-0.03,0.03-0.05c0,0,0,0,0,0c0,0-0.01,0-0.03,0c-0.13,0-0.66,0.07-1.31,0.1c-0.2,0.01-0.41,0.02-0.62,0.02
		c-0.58,0-1.19-0.05-1.67-0.2c-0.03,0.01-0.27,0.12-0.67,0.33c0.19,0.04,0.47,0.11,0.82,0.19c0.59,0.14,1.31,0.29,1.84,0.45
		c0.46,0.14,0.78,0.28,0.78,0.55l0,0c0,0.26-0.3,0.66-1.06,1.31c0,0-0.78,1.23-1.58,2.93c-0.82,1.68-1.54,3.99-3.39,4.33
		c0,0-0.44,0.09-1.2,0.18c-0.51,0.06-1.17,0.12-1.96,0.12c-0.38,0-0.79-0.01-1.22-0.05c-2.63-0.17-6.3-1.25-9.15-3.91
		c-1.2-1.12-2.24-2.5-2.97-4.03c-0.74-1.51-1.16-3.33-1.25-4.55c0,0,0.01-0.95-1.93-2.64c0,0-0.48-1.12-0.58-2.48
		c-0.01-0.15-0.02-0.3-0.02-0.45l0,0c0-1.24,0.38-2.57,1.67-3.28c0,0,1.05-1.25,2.11-2.73c1-1.42,2.01-3.04,2.01-4.22
		c0-0.06,0-0.12-0.01-0.17l0,0l0,0l0,0l0,0c0,0,0.16-0.09,0.38-0.24c0.11-0.08,0.24-0.16,0.38-0.29c0.14-0.14,0.31-0.38,0.5-0.71
		c0.4-0.64,0.85-1.74,1.93-3.28c0.27-0.38,0.6-0.79,0.97-1.19c0.29-0.36,0.61-0.69,0.92-0.97c0.84-0.77,1.56-1.19,2.01-1.44
		c0.23-0.13,0.4-0.21,0.51-0.27c0.11-0.05,0.17-0.08,0.17-0.08l0,0l0,0l0,0l0,0c-0.72,0.41-1.59,0.93-2.45,1.65
		c-0.42,0.35-0.81,0.73-1.17,1.11c-0.48,0.59-0.91,1.25-1.21,1.89c-0.35,0.73-0.57,1.42-0.69,2c0.14-0.5,0.35-1.13,0.71-1.84
		c0.4-0.79,1.01-1.7,1.87-2.52c0.86-0.83,1.89-1.47,2.75-1.85c0.87-0.39,1.62-0.59,2.2-0.71c1.17-0.23,1.79-0.24,2.07-0.28
		c0.27-0.02,0.52-0.03,0.75-0.03c0.98,0,1.68,0.18,1.86,0.56c0,0,1.34,0.25,2.8,0.76c1.27,0.44,2.61,1.1,3.29,1.79
		c-0.16-0.25-0.32-0.5-0.48-0.77c-0.82-1.44-1.52-3.18-2.14-4.87C66.06,50.66,65.36,46.69,62.62,46.69"/>
	<path class="st248" d="M69.79,59.29c0.11,0.29,0.4,1,0.81,1.74c0.45,0.06,0.9,0.13,1.35,0.21c0.94,0.42,2.3,0.88,3.42,2.02
		c0.79,0.79,1.17,1.76,1.17,2.63l0,0c0,0.4-0.08,0.78-0.24,1.11c-0.55,1.17-1.45,1.95-2.48,2.57c-1.04,0.61-2.23,1.06-3.6,1.43
		c-0.06,0.02-0.13,0.02-0.19,0.02c-0.18,0-0.35-0.06-0.5-0.14c0.17,0.1,0.36,0.18,0.56,0.18c0.06,0,0.13-0.01,0.19-0.02
		c1.37-0.36,2.57-0.82,3.61-1.43c1.03-0.62,1.93-1.4,2.49-2.56c0.16-0.36,0.25-0.75,0.25-1.17c0-0.22-0.02-0.44-0.07-0.67
		c-0.14-0.66-0.53-1.35-1.08-1.93c-1.13-1.17-2.51-1.65-3.46-2.07C71.13,60.82,70.42,60.15,69.79,59.29"/>
	<path class="st248" d="M71.64,68.46C71.64,68.46,71.63,68.47,71.64,68.46L71.64,68.46l-0.03,0.03l-0.01,0.01L71.64,68.46
		 M42.42,64.74c-0.06,0.1-0.12,0.2-0.18,0.3c-0.45,0.62-0.88,1.2-1.28,1.79C41.61,66.14,42.08,65.43,42.42,64.74"/>
	<path class="st248" d="M38.94,70.59c-0.26,0.42-0.69,1.31-0.78,1.65c0,0.02,0,0.04,0,0.05l0.67-1.08l-0.01-0.08l0,0l0,0l0,0l0,0
		l0,0c0-0.01,0-0.02,0-0.03C38.83,70.97,38.87,70.8,38.94,70.59"/>
	<path class="st248" d="M37.95,75.54c0,0.09,0,0.18,0,0.27c0,0.94,0.15,1.83,0.72,2.6C38.21,77.67,38,76.59,37.95,75.54"/>
	<path class="st248" d="M49.99,77.57c-0.06,0.3-0.09,0.65-0.1,1.03c0,0.32,0.03,0.66,0.09,1.03c0.05,0.28,0.12,0.58,0.21,0.89
		c-0.02-0.26-0.04-0.57-0.06-0.91C50.1,78.96,50.05,78.22,49.99,77.57"/>
	<path class="st248" d="M57.92,77.57c0.16,0.5,0.36,0.99,0.6,1.47c0.52,1.05,1.24,2.03,2.19,2.81c0.18,0.14,0.37,0.27,0.57,0.39
		c-0.86-0.9-1.66-2.08-2.43-3.23C58.53,78.53,58.22,78.06,57.92,77.57"/>
	<path class="st248" d="M39.34,79.11c0.03,0.02,0.05,0.04,0.08,0.07c0-0.01,0-0.02-0.01-0.02c0,0,0,0,0,0l0,0
		C39.4,79.14,39.37,79.13,39.34,79.11"/>
	<path class="st248" d="M39.75,80.79c0.01,0.13,0.02,0.26,0.03,0.38c0.03,0.54,0.06,1.04,0.09,1.51c0.01-0.06,0.02-0.13,0.02-0.21
		l0,0l0.01-0.22c0-0.09,0-0.19-0.01-0.3l0,0C39.87,81.6,39.81,81.19,39.75,80.79"/>
	<path class="st248" d="M65.58,83.48c-0.15,0.09-0.32,0.19-0.5,0.31c0.05,0.03,0.1,0.06,0.15,0.1
		C65.36,83.76,65.48,83.62,65.58,83.48"/>
	<path class="st248" d="M54.49,85.87c0.84,0.48,1.83,0.88,2.96,1.15c0,0,0.18-0.01,0.49-0.05C56.76,86.75,55.57,86.38,54.49,85.87"
		/>
	<path class="st248" d="M74.82,87.2c-0.06,0.17-0.15,0.34-0.25,0.51c-0.05,0.15-0.1,0.3-0.16,0.46c-0.04,0.18-0.07,0.33-0.07,0.45
		c0,0.11,0.02,0.2,0.07,0.28c0.11-0.06,0.37-0.11,0.48-0.18c0.06,0.03,0.12,0.07,0.18,0.11c0.17-0.14,0.43-0.33,0.68-0.49
		C75.38,87.99,75.06,87.62,74.82,87.2"/>
	<path class="st248" d="M74.57,96.36L74.57,96.36c0,0,0,0.01,0,0.01L74.57,96.36 M74.82,91.46c-0.11,0.01-0.36,0.35-0.54,0.5
		c-0.12,0.27-0.29,0.54-0.52,0.84c-0.17,0.19-0.24,0.37-0.24,0.55c0,0.44,0.43,0.86,0.72,1.32c0.17,0.21,0.24,0.43,0.24,0.67l0,0
		c0,0.6-0.38,1.27-0.38,1.86c0,0.08,0.01,0.16,0.02,0.23c0.03,0.26,0.13,0.51,0.27,0.75c0-0.01,0-0.03,0-0.04l0,0
		c0-0.17,0.01-0.35,0.02-0.52c0.01-0.13,0.02-0.25,0.03-0.37c0.03-0.28,0.06-0.52,0.09-0.67c0.01-0.06,0.02-0.11,0.03-0.15l0,0.01
		l0,0l0,0c-0.11,0.37-0.16,0.51-0.16,0.51c0,0,0,0,0,0l0,0l0,0l0,0l0,0c0,0,0,0,0,0c0,0,0.08-0.25,0.15-0.51c0,0,0,0,0,0l0,0
		c-0.01,0.02-0.01,0.03-0.01,0.03l0,0l0,0l0,0l0,0c0,0,0-0.01,0.01-0.03v0l0,0c0-0.01,0-0.01,0.01-0.02
		c0.01-0.03,0.01-0.05,0.01-0.05c0,0,0,0,0,0l0-0.01c0,0,0,0,0,0l0,0l0,0l0,0l0,0l0,0l0,0l0,0l0,0l0,0.01
		c0.06-0.21,0.1-0.33,0.12-0.39c0-0.01,0.01-0.02,0.01-0.03c0,0,0,0,0,0c0,0,0-0.01,0-0.01c0,0,0,0,0,0c0,0,0,0,0,0c0,0,0,0,0,0l0,0
		l0,0l0,0l0,0c0,0,0,0,0,0c0,0,0,0,0,0c0,0,0,0,0,0c0,0,0,0,0,0.01c0,0,0,0,0,0c0,0.01,0,0.02-0.01,0.03
		c-0.01,0.04-0.03,0.11-0.06,0.2c0.17-0.55,0.32-1.05,0.46-1.49l0,0l0,0l0,0l-0.01-0.02c-0.12-0.23-0.2-0.49-0.21-0.79l0,0l0,0l0,0
		l0,0c0-0.64,0.1-1.29,0.1-1.77C74.95,91.81,74.92,91.59,74.82,91.46"/>
	<path class="st248" d="M75.08,94.68l-0.46,1.51c-0.02,0.06-0.04,0.12-0.06,0.18l0,0c0.01-0.02,0.02-0.05,0.03-0.08
		C74.7,95.93,74.86,95.42,75.08,94.68L75.08,94.68"/>
	<polyline class="st248" points="74.57,96.37 74.57,96.38 74.57,96.38 74.57,96.37 74.57,96.37 	"/>
	<path class="st248" d="M74.56,96.4c-0.01,0.04-0.02,0.1-0.04,0.17c0,0,0,0,0-0.01c0.01-0.03,0.01-0.05,0.02-0.08L74.56,96.4"/>
	<polyline class="st248" points="74.55,96.42 74.55,96.43 74.55,96.43 74.55,96.44 74.55,96.43 74.55,96.43 74.55,96.42 	"/>
	<path class="st248" d="M74.55,96.43c0,0,0,0.01,0,0.01l0,0C74.55,96.44,74.55,96.43,74.55,96.43L74.55,96.43"/>
	<polyline class="st248" points="74.55,96.43 74.55,96.44 74.55,96.44 74.55,96.43 	"/>
	<path class="st248" d="M74.49,96.81c-0.02,0.13-0.03,0.24-0.05,0.4c0,0.02,0,0.03-0.01,0.05c-0.01,0.05-0.01,0.11-0.02,0.17
		c0.01-0.11,0.02-0.21,0.03-0.32C74.46,97,74.47,96.9,74.49,96.81"/>
	<path class="st248" d="M74.39,98.19c0,0.09,0,0.18,0.01,0.27c0,0.01,0,0.02,0,0.03C74.39,98.39,74.39,98.29,74.39,98.19
		L74.39,98.19"/>
	<path class="st248" d="M74.45,99.14c0,0.01,0,0.02,0,0.03c0-0.01,0-0.01,0-0.02C74.45,99.16,74.45,99.15,74.45,99.14"/>
	<path class="st248" d="M74.47,99.3c0,0.01,0,0.01,0,0.02c0.01,0.04,0.01,0.08,0.02,0.11c0-0.02-0.01-0.04-0.01-0.06
		C74.47,99.35,74.47,99.33,74.47,99.3"/>
	<path class="st248" d="M72.15,100.28c0.01,0,0.02,0,0.03,0l0.03,0c-0.01,0-0.02,0-0.03,0C72.16,100.28,72.16,100.28,72.15,100.28"
		/>
	<path class="st248" d="M73.33,100.4c0.23,0.03,0.43,0.06,0.6,0.09c0.02,0,0.04,0.01,0.06,0.01c0.01,0,0.02,0,0.02,0
		c0.07,0.01,0.13,0.03,0.19,0.04C73.97,100.49,73.71,100.45,73.33,100.4"/>
	<polyline class="st248" points="75.03,100.81 75.03,100.81 75.04,100.81 75.04,100.81 75.03,100.81 	"/>
	<polyline class="st248" points="75.04,100.81 75.04,100.81 75.04,100.81 75.04,100.81 75.04,100.81 	"/>
	<polyline class="st248" points="75.02,100.82 75.03,100.82 75.03,100.82 75.02,100.82 	"/>
	<polyline class="st248" points="75.03,100.82 75.03,100.82 75.03,100.82 75.03,100.82 75.03,100.82 	"/>
	<path class="st249" d="M61.87,68.57c-0.38,0.78-0.57,1.51-0.57,2.33c0,1,0.28,2.12,0.83,3.58c0.3,0.78,0.68,2.27,1.19,3.69
		c0.51,1.45,1.14,2.81,1.82,3.33c0.23,0.14,0.39,0.3,0.51,0.44c0.11,0.1,0.19,0.23,0.26,0.35c0.15,0.24,0.28,0.48,0.69,0.63
		c0.02,0.01,0.04,0.01,0.05,0.02c0,0,0,0,0,0c-0.41-0.15-0.54-0.39-0.69-0.62c-0.07-0.12-0.15-0.24-0.26-0.35
		c-0.12-0.12-0.27-0.3-0.51-0.43c-0.68-0.52-1.32-1.87-1.83-3.32c-0.51-1.43-0.9-2.91-1.2-3.69c-0.55-1.46-0.83-2.57-0.83-3.57l0,0
		c0-0.81,0.18-1.54,0.56-2.31c0.52,0.04,1,0.05,1.47,0.05c0.08,0,0.15,0,0.22,0c0.08,0,0.15,0,0.23,0c0.79,0,1.56,0.02,2.47,0.21
		c0.77,0.37,1.49,0.68,2.23,0.94c0.14,0.05,0.28,0.1,0.43,0.14l0,0l0,0l0,0l0,0c-0.01,0.03-0.01,0.07-0.01,0.11
		c0,0.09,0.02,0.19,0.06,0.3c0.05,0.13,0.25,0.36,0.52,0.5c-0.24-0.15-0.42-0.35-0.46-0.48c-0.04-0.11-0.06-0.21-0.06-0.3l0,0
		c0-0.07,0.01-0.13,0.03-0.18c-0.15-0.05-0.3-0.1-0.45-0.15c-0.74-0.26-1.46-0.57-2.24-0.94c-0.94-0.2-1.74-0.21-2.56-0.21
		c-0.05,0-0.09,0-0.14,0c-0.05,0-0.11,0-0.16,0C62.97,68.62,62.45,68.62,61.87,68.57"/>
	<path class="st250" d="M70.6,61.03c0.03,0.05,0.05,0.09,0.08,0.14c0.59,1.03,1.35,1.93,2.75,2.23c0,0,0.44,0.41,0.87,1.16
		c0.31,0.52,0.48,1.18,0.48,1.78l0,0c0,0.27-0.03,0.52-0.11,0.75c-0.21,0.76-0.66,1.29-1.07,1.51c-0.14,0.08-0.28,0.11-0.41,0.11
		c-0.26,0-0.49-0.13-0.69-0.34c0,0-0.2-0.1-0.42-0.1c-0.05,0-0.1,0.01-0.15,0.02c-0.13,0.03-0.22,0.1-0.29,0.17l-0.04,0.04
		l0.01-0.01l0.02-0.02l0.01-0.01c-0.09,0.09-0.15,0.18-0.24,0.21c-0.01,0-0.01-0.04-0.15-0.14c-0.14-0.1-0.42-0.25-0.97-0.43
		c-1.1-0.38-2.61-0.85-4.19-1.25c-1.57-0.41-3.21-0.74-4.51-1.02c-1.49-0.29-1.46-0.48-1.84-0.57c-0.01-0.04-0.02-0.06-0.05-0.06
		c-0.32,0-2.04,3.29-2.33,7.25c-0.03,0.37-0.04,0.74-0.04,1.12c0,1.32,0.18,2.69,0.6,4.01c0.3,0.48,0.61,0.96,0.93,1.43
		c0.77,1.15,1.58,2.33,2.43,3.23c0.85,0.52,1.85,0.86,3.01,1.04c0,0,0.29,0.19,0.69,0.45c0.03,0.02,0.06,0.04,0.1,0.06
		c0.18-0.12,0.35-0.22,0.5-0.31c0.07-0.09,0.13-0.19,0.18-0.28c0,0,0.08,0.02,0.22,0.05c0.4-0.21,0.64-0.31,0.67-0.33
		c-0.02-0.01-0.04-0.01-0.05-0.02c-0.42-0.15-0.54-0.39-0.69-0.63c-0.07-0.12-0.15-0.24-0.26-0.35c-0.12-0.14-0.27-0.3-0.51-0.44
		c-0.68-0.52-1.31-1.88-1.82-3.33c-0.51-1.43-0.9-2.91-1.19-3.69c-0.55-1.46-0.83-2.58-0.83-3.58l0,0c0-0.81,0.19-1.55,0.57-2.33
		c0.58,0.05,1.11,0.06,1.62,0.06c0.05,0,0.11,0,0.16,0c0.05,0,0.09,0,0.14,0c0.82,0,1.62,0.01,2.56,0.21
		c0.77,0.37,1.5,0.68,2.24,0.94c0.15,0.05,0.3,0.1,0.45,0.15l0,0l0,0l0,0l0,0c-0.02,0.05-0.03,0.11-0.03,0.18
		c0,0.09,0.02,0.19,0.06,0.3c0.04,0.13,0.22,0.33,0.46,0.48c0.15,0.08,0.33,0.14,0.5,0.14c0.06,0,0.13-0.01,0.19-0.02
		c1.37-0.36,2.57-0.81,3.6-1.43c1.03-0.62,1.92-1.4,2.48-2.57c0.16-0.33,0.24-0.71,0.24-1.11c0-0.88-0.39-1.84-1.17-2.63
		c-1.12-1.14-2.48-1.6-3.42-2.02C71.5,61.16,71.05,61.09,70.6,61.03"/>
	<path class="st251" d="M61.53,55.75c-0.24,0-0.49,0.01-0.75,0.03c-0.28,0.03-0.9,0.04-2.07,0.28c-0.59,0.13-1.33,0.32-2.2,0.71
		c-0.86,0.38-1.9,1.02-2.75,1.85c-0.86,0.82-1.47,1.74-1.87,2.52c-0.36,0.72-0.57,1.34-0.71,1.84c-0.05,0.25-0.09,0.48-0.12,0.68
		c-0.04,0.31-0.06,0.58-0.06,0.8c0,0.02,0,0.04,0,0.06c0.01,0.2,0.03,0.35,0.05,0.54c0.03,0.36,0.07,0.74,0.1,1.13
		c0.07,0.78,0.14,1.62,0.21,2.47c0.09,1.29,0.18,2.59,0.18,3.74l0,0c0,1.85-0.23,3.32-1.04,3.73c0,0-0.34,0.52-0.51,1.42
		c0.06,0.65,0.11,1.39,0.15,2.05c0.02,0.34,0.04,0.65,0.06,0.91c0.27,0.89,0.76,1.91,1.62,3.06c0.66,0.84,1.54,1.63,2.68,2.28
		c1.08,0.51,2.27,0.88,3.44,1.1c0.08-0.01,0.17-0.02,0.27-0.04c0.93-0.13,2.57-0.51,4.06-1.18c1.17-0.51,2.26-1.15,2.97-1.86
		c-0.05-0.03-0.1-0.07-0.15-0.1c-0.03-0.02-0.06-0.04-0.1-0.06c-0.41-0.26-0.69-0.45-0.69-0.45c-1.16-0.18-2.16-0.53-3.01-1.04
		c-0.2-0.12-0.39-0.25-0.57-0.39c-0.95-0.78-1.67-1.76-2.19-2.81c-0.24-0.48-0.44-0.97-0.6-1.47c-0.43-1.32-0.6-2.69-0.6-4.01l0,0
		c0-0.38,0.01-0.75,0.04-1.12c0.28-3.95,2.01-7.25,2.33-7.25c0.03,0,0.04,0.02,0.05,0.06c0.39,0.09,0.35,0.28,1.84,0.57
		c1.3,0.28,2.94,0.61,4.51,1.02c1.57,0.4,3.08,0.87,4.19,1.25c0.55,0.19,0.83,0.34,0.97,0.43c0.14,0.1,0.15,0.14,0.15,0.14
		c0.08-0.02,0.15-0.12,0.24-0.21c0,0,0,0,0,0c0.07-0.08,0.16-0.15,0.29-0.17c0.05-0.01,0.1-0.02,0.15-0.02c0.22,0,0.42,0.1,0.42,0.1
		c0.2,0.21,0.43,0.34,0.69,0.34c0.13,0,0.27-0.04,0.41-0.11c0.41-0.22,0.86-0.74,1.07-1.51c0.07-0.23,0.11-0.49,0.11-0.75
		c0-0.61-0.17-1.26-0.48-1.78c-0.42-0.74-0.87-1.16-0.87-1.16c-1.4-0.3-2.16-1.2-2.75-2.23c-0.03-0.05-0.05-0.09-0.08-0.14
		c-0.41-0.74-0.7-1.45-0.81-1.74c-0.03-0.08-0.05-0.13-0.05-0.13c-0.07-0.1-0.16-0.21-0.26-0.31c-0.68-0.69-2.02-1.34-3.29-1.79
		c-1.46-0.52-2.8-0.76-2.8-0.76C63.21,55.93,62.52,55.75,61.53,55.75"/>
	<path class="st252" d="M56.69,56.33c0,0-0.06,0.03-0.17,0.08c-0.11,0.05-0.28,0.14-0.51,0.27c-0.45,0.25-1.17,0.67-2.01,1.44
		c-0.31,0.28-0.63,0.61-0.92,0.97c0.36-0.39,0.75-0.76,1.17-1.11C55.1,57.27,55.97,56.74,56.69,56.33"/>
	<path class="st252" d="M53.07,59.09c-0.37,0.4-0.7,0.81-0.97,1.19c-1.08,1.54-1.53,2.63-1.93,3.28c-0.19,0.33-0.36,0.56-0.5,0.71
		c-0.14,0.13-0.26,0.21-0.38,0.29c-0.22,0.15-0.38,0.24-0.38,0.24c0.01,0.06,0.01,0.11,0.01,0.17l0,0c0,1.19-1.01,2.8-2.01,4.22
		c-1.06,1.48-2.11,2.73-2.11,2.73c-1.29,0.71-1.68,2.04-1.67,3.28c0,0.15,0.01,0.3,0.02,0.45c0.1,1.36,0.58,2.48,0.58,2.48
		c1.94,1.69,1.93,2.64,1.93,2.64c0.09,1.22,0.51,3.05,1.25,4.55c0.73,1.53,1.77,2.91,2.97,4.03c2.85,2.66,6.53,3.74,9.15,3.91
		c0.43,0.03,0.84,0.05,1.22,0.05c0.78,0,1.44-0.06,1.96-0.12c0.76-0.09,1.2-0.18,1.2-0.18c1.85-0.34,2.57-2.64,3.39-4.33
		c0.8-1.7,1.58-2.93,1.58-2.93c0.76-0.65,1.06-1.04,1.06-1.31c0-0.27-0.31-0.41-0.78-0.55c-0.53-0.16-1.25-0.31-1.84-0.45
		c-0.34-0.08-0.63-0.15-0.82-0.19c-0.14-0.03-0.22-0.05-0.22-0.05c-0.05,0.09-0.12,0.19-0.18,0.28c-0.1,0.14-0.22,0.27-0.35,0.41
		c-0.71,0.71-1.8,1.35-2.97,1.86c-1.49,0.67-3.12,1.05-4.06,1.18c-0.1,0.01-0.19,0.03-0.27,0.04c-0.31,0.04-0.49,0.05-0.49,0.05
		c-1.13-0.27-2.12-0.67-2.96-1.15c-1.13-0.65-2.02-1.44-2.68-2.28c-0.86-1.15-1.35-2.17-1.62-3.06c-0.09-0.31-0.16-0.61-0.21-0.89
		c-0.06-0.37-0.09-0.71-0.09-1.03l0,0c0-1.54,0.61-2.45,0.61-2.45c0.81-0.42,1.04-1.88,1.04-3.73c0-1.15-0.09-2.45-0.18-3.74
		c-0.07-0.85-0.14-1.68-0.21-2.47c-0.04-0.39-0.07-0.77-0.1-1.13c-0.02-0.19-0.04-0.34-0.05-0.54c0-0.02,0-0.04,0-0.06l0,0
		c0-0.21,0.02-0.48,0.06-0.8c0.03-0.21,0.07-0.44,0.12-0.68c0.13-0.58,0.34-1.27,0.69-2C52.16,60.34,52.59,59.68,53.07,59.09"/>
	<path class="st253" d="M76.33,81.66c0,0-0.01,0.01-0.03,0.02c0,0,0.01,0,0.01-0.01C76.32,81.67,76.33,81.66,76.33,81.66"/>
	<path class="st253" d="M76.3,81.68c-0.13,0.07-0.05,0.03-0.33,0.15c-0.72,0.33-1.87,0.72-2.81,0.9c0.02,0.16,0.05,0.32,0.1,0.47
		c0.03,0,0.06,0,0.08,0c0.12,0,0.18,0.03,0.17,0.1l0,0c0,0.11-0.15,0.32-0.41,0.65c-0.06,0.12-0.34,0.39-0.71,0.71
		c-0.35,0.38-0.76,0.82-1.13,1.23c-0.3,0.28-0.76,0.51-1.06,0.79c-1.08,1.09-1.32,2.08-2.77,3.23c-0.55,0.33-0.91,1.26-0.92,1.8
		c0,0.01,0,0.03,0,0.04c0.05,0.31,1.5,0.7,3.08,0.8c0.35-1.01,0.82-2.1,1.33-3.3c0.46-1.02,1.23-2.15,1.72-3.36
		c0.18-0.27,0.32-0.66,0.64-0.81c0.04-0.03,0.07-0.04,0.1-0.04c0.14,0,0.21,0.31,0.37,0.42l0,0l0,0l0,0l0,0
		c-0.03,0.3-0.27,0.66-0.33,1.05c-0.21,0.76,0.06,1.41-0.3,2.12c-0.27,0.73-0.76,1.38-0.99,2.08c-0.07,0.31-0.11,0.58-0.11,0.84
		c0,0.12,0.01,0.24,0.02,0.36l0,0l0,0l0,0l0,0c-0.02,0.43-0.04,0.85-0.04,1.25c0,1,0.08,1.93,0.29,2.85
		c0.48,0.18,0.61,0.48,0.61,0.81l0,0c0,0.37-0.16,0.79-0.16,1.11c-0.03,0.19-0.22,0.38-0.35,0.62c-0.01,0.06-0.01,0.12-0.01,0.18
		c0,0.23,0.06,0.46,0.06,0.67l0,0c0,0.25-0.08,0.48-0.42,0.67c-0.2,0.09-0.39,0.15-0.59,0.17l-0.14,0.01l0.03,0
		c0.32,0.02,0.59,0.04,0.82,0.06c0.01,0,0.02,0,0.03,0c0.01,0,0.02,0,0.03,0l0.09,0.01l0.15,0.01c0.12,0.01,0.23,0.02,0.33,0.03
		l0.04,0c0.01,0,0.01,0,0.02,0c0.01,0,0.02,0,0.03,0c0.11,0.01,0.21,0.02,0.3,0.03c0.06,0.01,0.11,0.01,0.17,0.02
		c0.38,0.05,0.64,0.09,0.87,0.15c0.06,0.01,0.12,0.03,0.17,0.04c0.1,0.02,0.18,0.05,0.26,0.07c0.06,0.02,0.11,0.04,0.16,0.05
		c0.01,0,0.02,0.01,0.03,0.01l0.01,0c0.06,0.02,0.11,0.04,0.15,0.07l0.01,0l-0.01,0l-0.01,0c0,0,0,0,0,0
		c-0.01-0.01-0.02-0.01-0.03-0.02c0,0-0.01,0-0.01-0.01l0,0c-0.02-0.01-0.02-0.01-0.02-0.01l0,0l0,0l0,0l0,0
		c0,0,0.01,0.01,0.02,0.01h0l0,0l0.01,0l0,0l0.01,0l0.01,0.01l0.01,0l0,0c0.01,0.01,0.02,0.01,0.03,0.02l0,0
		c-0.04-0.04-0.11-0.13-0.19-0.29c-0.03-0.07-0.07-0.14-0.11-0.24c-0.01-0.04-0.03-0.08-0.05-0.14c-0.05-0.14-0.1-0.33-0.15-0.57
		c-0.01-0.06-0.02-0.12-0.03-0.19c0,0.02,0.01,0.04,0.01,0.06l0,0l0,0l0,0l0,0c-0.01-0.04-0.01-0.08-0.02-0.11c0-0.01,0-0.01,0-0.02
		c-0.04-0.27-0.08-0.59-0.08-0.95c0-0.06,0-0.11,0-0.17c-0.13-0.24-0.24-0.49-0.27-0.75c-0.01-0.08-0.02-0.15-0.02-0.23l0,0
		c0-0.6,0.38-1.27,0.38-1.86c0-0.24-0.06-0.47-0.24-0.67c-0.29-0.47-0.72-0.88-0.72-1.32l0,0c0-0.18,0.07-0.36,0.24-0.55
		c0.23-0.3,0.41-0.57,0.52-0.84c0.18-0.15,0.44-0.48,0.54-0.5c0.1,0.13,0.13,0.35,0.13,0.63l0,0c0,0.48-0.09,1.14-0.1,1.77
		c0.01,0.31,0.09,0.56,0.21,0.79l0.01,0.02l0,0l0,0l0,0c0.83-2.72,1.06-3.46,1.06-3.49c0,0.01-0.07,0.23-0.13,0.44
		c-0.07,0.22-0.13,0.44-0.13,0.44l0,0l0,0l0,0l0,0c0,0,0.04-0.12,0.13-0.44v0l0-0.01l0-0.04L76,91.51c0-0.1-0.01-0.2-0.02-0.29
		c-0.01-0.19-0.01-0.37-0.02-0.53c-0.01-0.33-0.01-0.57-0.04-0.68c-0.03-0.66-0.78-0.35-1.08-0.97c0,0,0,0,0,0l0,0
		c0-0.02,0.09-0.1,0.22-0.22c-0.06-0.04-0.12-0.07-0.18-0.11c-0.1,0.07-0.37,0.12-0.48,0.18c-0.05-0.07-0.07-0.16-0.07-0.28l0,0
		c0-0.12,0.02-0.27,0.07-0.45c0.06-0.16,0.12-0.31,0.16-0.46c0.1-0.17,0.19-0.34,0.25-0.51c0.05-0.13,0.08-0.27,0.08-0.39
		c0-0.1-0.02-0.2-0.06-0.3l0,0l0,0l0,0l0,0c0.03-0.27,0.05-0.54,0.05-0.8c0-0.35-0.03-0.7-0.06-1.04c-0.01-0.2-0.02-0.39-0.02-0.58
		l0,0c0-0.29,0.02-0.57,0.08-0.85c0.05-0.22,0.13-0.45,0.24-0.66c0.04-0.13,0.17-0.15,0.27-0.23l0.31-0.25
		C75.9,81.94,76.2,81.74,76.3,81.68"/>
	<path class="st253" d="M76.23,90.94l-1.14,3.75l0,0c0.19-0.64,0.44-1.44,0.74-2.44C75.95,91.84,76.08,91.41,76.23,90.94
		L76.23,90.94L76.23,90.94"/>
	<path class="st253" d="M75.2,94.29c0,0-0.05,0.16-0.12,0.39l0,0C75.17,94.41,75.2,94.29,75.2,94.29"/>
	<path class="st253" d="M75.08,94.68c-0.22,0.73-0.38,1.25-0.49,1.6c0.06-0.21,0.17-0.55,0.28-0.9
		C74.95,95.13,75.02,94.88,75.08,94.68L75.08,94.68 M75.08,94.68L75.08,94.68L75.08,94.68"/>
	<polyline class="st253" points="74.7,95.94 74.7,95.94 74.7,95.94 	"/>
	<polyline class="st253" points="74.7,95.94 74.7,95.94 74.7,95.94 	"/>
	<path class="st253" d="M74.7,95.94C74.7,95.95,74.7,95.95,74.7,95.94C74.7,95.95,74.7,95.95,74.7,95.94"/>
	<path class="st253" d="M74.7,95.95c0,0.01,0,0.02-0.01,0.03C74.69,95.97,74.69,95.96,74.7,95.95"/>
	<path class="st253" d="M74.69,95.98c-0.02,0.06-0.05,0.18-0.12,0.39l0,0l0,0l0,0l0-0.01l0,0.01c0,0,0,0,0,0.01c0,0,0,0,0,0
		c0.02-0.07,0.04-0.13,0.06-0.2C74.65,96.09,74.68,96.02,74.69,95.98"/>
	<path class="st253" d="M74.62,96.19l-0.06,0.19c0,0,0,0,0,0c0,0,0,0,0,0l0,0C74.59,96.31,74.61,96.25,74.62,96.19"/>
	<path class="st253" d="M74.57,96.37L74.57,96.37L74.57,96.37 M74.59,96.29c-0.01,0.03-0.02,0.06-0.03,0.08l0,0
		C74.58,96.35,74.59,96.32,74.59,96.29"/>
	<path class="st253" d="M74.57,96.37C74.57,96.37,74.57,96.38,74.57,96.37C74.57,96.38,74.57,96.38,74.57,96.37l0,0.01
		c0,0,0,0.01,0,0.01l-0.02,0.09c0-0.01,0-0.02,0.01-0.03L74.57,96.37"/>
	<polyline class="st253" points="74.57,96.38 74.57,96.38 74.57,96.38 74.57,96.38 74.57,96.38 	"/>
	<polyline class="st253" points="74.55,96.42 74.55,96.42 74.55,96.42 74.55,96.42 74.55,96.42 	"/>
	<path class="st253" d="M74.55,96.42c0,0.01,0,0.01-0.01,0.02l0,0C74.55,96.44,74.55,96.43,74.55,96.42
		C74.55,96.42,74.55,96.42,74.55,96.42"/>
	<path class="st253" d="M74.55,96.42l-0.01,0.02l0,0C74.55,96.44,74.55,96.43,74.55,96.42L74.55,96.42
		C74.55,96.42,74.55,96.42,74.55,96.42"/>
	<polyline class="st253" points="74.55,96.43 74.55,96.43 74.55,96.43 74.55,96.43 	"/>
	<polyline class="st253" points="74.55,96.43 74.55,96.44 74.55,96.44 74.55,96.43 74.55,96.43 74.55,96.43 	"/>
	<polyline class="st253" points="74.55,96.43 74.55,96.43 74.55,96.44 74.55,96.44 74.55,96.43 74.55,96.43 	"/>
	<path class="st253" d="M74.55,96.44L74.55,96.44C74.55,96.44,74.55,96.44,74.55,96.44L74.55,96.44c-0.01,0.02-0.01,0.03-0.01,0.03
		C74.54,96.47,74.54,96.46,74.55,96.44L74.55,96.44L74.55,96.44"/>
	<path class="st253" d="M74.55,96.44L74.55,96.44C74.55,96.45,74.55,96.45,74.55,96.44c-0.08,0.26-0.16,0.51-0.16,0.51
		C74.39,96.95,74.43,96.82,74.55,96.44"/>
	<path class="st253" d="M74.54,96.49c-0.01,0.03-0.01,0.05-0.02,0.08c0-0.01,0-0.02,0.01-0.03L74.54,96.49"/>
	<path class="st253" d="M74.53,96.57C74.53,96.57,74.53,96.57,74.53,96.57c0,0.01,0,0.02,0,0.02c0,0.01,0,0.01,0,0.02
		C74.52,96.59,74.52,96.58,74.53,96.57"/>
	<path class="st253" d="M74.52,96.58c-0.03,0.15-0.07,0.38-0.09,0.67c0-0.02,0-0.03,0.01-0.05c0.02-0.16,0.03-0.27,0.05-0.4
		C74.5,96.72,74.51,96.65,74.52,96.58C74.52,96.59,74.52,96.59,74.52,96.58"/>
	<path class="st253" d="M74.4,97.58c0,0,0,0.01,0,0.01c0,0.02,0,0.04,0,0.06C74.4,97.63,74.4,97.6,74.4,97.58 M74.43,97.25
		c-0.01,0.12-0.02,0.25-0.03,0.37c0-0.01,0-0.02,0-0.03c0-0.06,0.01-0.11,0.01-0.17C74.42,97.36,74.42,97.31,74.43,97.25"/>
	<path class="st253" d="M74.38,98.16c0,0.01,0,0.02,0,0.03v0C74.38,98.18,74.38,98.17,74.38,98.16"/>
	<path class="st253" d="M74.63,100.86L74.63,100.86L74.63,100.86 M74.63,100.86L74.63,100.86L74.63,100.86 M74.63,100.86
		L74.63,100.86L74.63,100.86 M74.45,99.14L74.45,99.14c0,0.01,0,0.01,0,0.02c0,0.01,0,0.01,0,0.02l0,0l0,0l0,0l0,0
		C74.45,99.17,74.45,99.16,74.45,99.14L74.45,99.14L74.45,99.14L74.45,99.14 M74.39,98.19c0,0.1,0,0.2,0.01,0.3l0,0l0,0l0,0l0,0
		c0-0.01,0-0.02,0-0.03c0,0.03,0,0.06,0,0.09c0.02,0.4,0.07,0.74,0.12,1.01c0.05,0.24,0.1,0.43,0.15,0.57
		c0.03,0.09,0.06,0.17,0.09,0.23c0.02,0.05,0.04,0.1,0.07,0.15c0.08,0.16,0.16,0.26,0.19,0.29l0.02,0.01l0.01,0c0,0,0,0,0,0l0,0l0,0
		c0,0,0,0,0,0c0,0,0,0,0.01,0c0,0,0,0,0.01,0c0,0,0,0,0,0l0,0l0,0l0,0l0,0l0,0l0,0l0,0l0,0l0,0l0,0c0,0,0,0-0.01-0.01l0,0l0,0
		c0,0,0,0,0,0l0,0l0,0l0,0l0,0c0,0,0,0,0,0h0l0,0l0,0c0,0,0,0,0,0l0,0l-0.02-0.01c0,0.01,0.01,0.01,0.01,0.01c0,0,0,0,0,0l0,0l0,0
		l0,0l0,0c0,0,0,0,0,0c0,0,0,0,0,0l0,0c0,0,0,0,0,0c0,0,0,0,0,0c0,0,0,0,0,0l0,0c0,0,0,0,0,0c0,0-0.01,0-0.02-0.01l-0.03-0.02
		l-0.01,0c0,0,0,0,0,0l-0.15-0.07c-0.01,0-0.02-0.01-0.03-0.01c-0.09-0.03-0.18-0.06-0.3-0.09c0.04,0.15,0.09,0.25,0.12,0.26l0,0
		l0,0l0,0l0,0c-0.03,0.03-0.04,0.06-0.04,0.08c0,0.06,0.07,0.12,0.19,0.16c0.09,0.03,0.2,0.04,0.3,0.04c0.1,0,0.19-0.01,0.24-0.04
		c0.11-0.04,0.18-0.15,0.18-0.33c0-0.01,0-0.03,0-0.05c-0.01-0.14-0.06-0.23-0.15-0.23c-0.04,0-0.09,0.02-0.15,0.06l0,0l0,0l0,0l0,0
		c0.15-0.11,0.21-0.28,0.21-0.46c0-0.32-0.18-0.7-0.39-1.02C74.79,98.8,74.56,98.5,74.39,98.19"/>
	<path class="st253" d="M71.06,100.21c0.34,0.02,0.7,0.04,1.06,0.07l-0.47-0.03l-0.32-0.02c-0.01,0-0.02,0-0.03,0l0,0l-0.02,0
		C71.2,100.21,71.13,100.21,71.06,100.21"/>
	<path class="st253" d="M72.25,100.29c0.09,0.01,0.17,0.01,0.25,0.02l-0.06-0.01C72.38,100.3,72.32,100.29,72.25,100.29"/>
	<path class="st253" d="M72.75,100.33c0.06,0.01,0.11,0.01,0.16,0.02c-0.03,0-0.06-0.01-0.09-0.01c-0.02,0-0.04,0-0.06-0.01
		L72.75,100.33"/>
	<path class="st253" d="M73.03,100.36c0.03,0,0.07,0.01,0.1,0.01c0.06,0.01,0.11,0.01,0.17,0.02c-0.04-0.01-0.09-0.01-0.14-0.02
		C73.12,100.37,73.08,100.37,73.03,100.36"/>
	<path class="st253" d="M74.32,100.57c0.03,0.01,0.06,0.02,0.09,0.02c-0.02,0-0.03-0.01-0.05-0.01
		C74.36,100.58,74.34,100.57,74.32,100.57"/>
	<path class="st253" d="M74.93,100.76L74.93,100.76c0,0,0.01,0,0.01,0.01c0.01,0.01,0.02,0.01,0.03,0.02l-0.01,0l-0.02-0.01
		L74.93,100.76L74.93,100.76L74.93,100.76"/>
	<polyline class="st253" points="74.97,100.78 74.97,100.78 74.98,100.78 74.98,100.78 74.97,100.78 	"/>
	<path class="st253" d="M74.98,100.78L74.98,100.78l0.01,0.01l0.01,0l0.01,0C74.99,100.79,74.98,100.79,74.98,100.78"/>
	<polyline class="st253" points="74.99,100.79 74.99,100.79 74.99,100.79 74.99,100.79 74.99,100.79 	"/>
	<path class="st253" d="M74.99,100.79L74.99,100.79c0.01,0.01,0.02,0.01,0.02,0.02l0.01,0.01c0,0,0,0,0,0l0,0l0,0l0,0l0,0
		c0,0,0,0,0,0l0,0c0,0,0,0,0,0c0,0-0.01-0.01-0.01-0.01L74.99,100.79"/>
	<polyline class="st253" points="75,100.8 75.01,100.8 75.01,100.8 75.01,100.8 75,100.8 	"/>
	<path class="st253" d="M75.01,100.8C75.01,100.8,75.01,100.8,75.01,100.8c0.01,0,0.02,0.01,0.02,0.01l0,0c0,0,0,0,0,0l0,0l0,0l0,0
		c0,0,0,0,0,0l0,0c0,0,0,0,0,0l0,0l0,0l0,0l0,0c0,0,0,0,0,0v0c0,0,0,0,0,0v0c0,0,0,0,0,0c0,0,0,0,0,0v0l0,0l0,0c0,0,0,0,0,0l0,0l0,0
		l0,0l0,0C75.03,100.81,75.02,100.81,75.01,100.8"/>
	<path class="st253" d="M75.03,100.81C75.04,100.81,75.04,100.81,75.03,100.81L75.03,100.81L75.03,100.81 M75.03,100.81
		L75.03,100.81L75.03,100.81C75.04,100.81,75.04,100.81,75.03,100.81"/>
	<path class="st254" d="M59.9,47.32c-0.01,0-0.11,0.04-0.46,0.13C59.79,47.36,59.89,47.32,59.9,47.32"/>
	<path class="st254" d="M59.42,47.46c-0.5,0.12-1.22,0.29-2.1,0.51C58.21,47.75,58.92,47.58,59.42,47.46"/>
	<path class="st254" d="M57.28,47.97c-0.61,0.16-1.36,0.37-2.31,0.72C55.93,48.34,56.67,48.13,57.28,47.97"/>
	<path class="st254" d="M54.88,48.73c-0.94,0.35-2.11,0.86-3.42,1.66C52.77,49.59,53.93,49.08,54.88,48.73"/>
	<path class="st254" d="M51.46,50.39c-1.28,0.77-2.71,1.92-3.87,3.2C48.75,52.31,50.19,51.17,51.46,50.39"/>
	<path class="st254" d="M47.36,53.84c-1.17,1.33-2.06,2.77-2.64,3.99C45.31,56.61,46.19,55.17,47.36,53.84"/>
	<path class="st254" d="M39.72,68.81c-0.32,0.61-0.63,1.28-0.79,1.78c-0.06,0.2-0.1,0.38-0.11,0.52c0.01-0.14,0.04-0.31,0.11-0.52
		C39.09,70.09,39.4,69.42,39.72,68.81"/>
	<path class="st254" d="M37.93,74.84c0,0.16,0,0.32,0.01,0.49C37.94,75.17,37.93,75,37.93,74.84"/>
	<path class="st254" d="M37.94,75.37c0.04,1.1,0.24,2.26,0.72,3.04c0.18,0.3,0.41,0.54,0.68,0.7c0.03,0.02,0.05,0.03,0.08,0.04
		c-0.03-0.01-0.05-0.03-0.08-0.04c-0.27-0.17-0.5-0.41-0.68-0.7c-0.46-0.74-0.66-1.82-0.71-2.87
		C37.95,75.48,37.94,75.42,37.94,75.37"/>
	<path class="st254" d="M39.42,79.16c0,0.01,0.17,0.71,0.31,1.55c-0.13-0.76-0.28-1.4-0.31-1.53
		C39.42,79.17,39.42,79.16,39.42,79.16"/>
	<path class="st254" d="M39.74,80.73c0,0.02,0.01,0.04,0.01,0.06c0.06,0.4,0.12,0.81,0.14,1.18c-0.02-0.36-0.08-0.78-0.14-1.18
		C39.75,80.77,39.74,80.75,39.74,80.73"/>
	<path class="st254" d="M39.89,82.48c-0.01,0.18-0.04,0.32-0.08,0.41C39.86,82.8,39.88,82.66,39.89,82.48"/>
	<path class="st254" d="M39.81,82.97L39.81,82.97C39.81,82.98,39.8,82.98,39.81,82.97c0,0.25,0.03,0.99,0.37,2.03
		C39.84,83.96,39.81,83.21,39.81,82.97L39.81,82.97L39.81,82.97"/>
	<path class="st254" d="M40.19,85.06c0.4,1.19,1.22,2.78,2.86,4.17c0.15,0.13,0.31,0.26,0.47,0.38c-0.16-0.12-0.32-0.25-0.47-0.38
		C41.42,87.83,40.59,86.25,40.19,85.06"/>
	<path class="st255" d="M73.39,85.02c-0.03,0-0.06,0.01-0.1,0.04c-0.31,0.16-0.45,0.54-0.64,0.81c-0.49,1.22-1.26,2.34-1.72,3.36
		c-1.03,2.41-1.88,4.38-1.92,6.13c0,0.33,0.51,0.51,0.75,0.78c0.66,0.63,0.04,1.59,1.15,2.26c0.08,0.04,0.12,0.11,0.12,0.18l0,0
		c0,0.07-0.04,0.15-0.1,0.22c-0.45,0.33-0.9,0.63-1.35,0.91c-0.22,0.13-0.44,0.3-0.66,0.39l-0.17,0.03l1.83,0.07
		c0.16,0.01,0.32,0.01,0.46,0.02c0.07,0,0.14,0.01,0.21,0.01l0.02,0l0,0c0.01,0,0.02,0,0.03,0l-0.03,0l0.14-0.01
		c0.19-0.02,0.39-0.08,0.59-0.17c0.34-0.18,0.42-0.41,0.42-0.67c0-0.21-0.06-0.44-0.06-0.67l0,0c0-0.06,0-0.12,0.01-0.18
		c0.13-0.23,0.32-0.42,0.35-0.62c0-0.32,0.16-0.74,0.16-1.11c0-0.33-0.13-0.63-0.61-0.81c-0.21-0.92-0.29-1.85-0.29-2.85l0,0
		c0-0.4,0.01-0.82,0.04-1.25c-0.02-0.12-0.02-0.24-0.02-0.36l0,0c0-0.26,0.04-0.53,0.11-0.84c0.23-0.7,0.72-1.36,0.99-2.08
		c0.36-0.71,0.09-1.36,0.3-2.12c0.06-0.39,0.3-0.75,0.33-1.05C73.6,85.33,73.53,85.02,73.39,85.02"/>
	<path class="st255" d="M74.57,96.38L74.57,96.38L74.57,96.38L74.57,96.38L74.57,96.38 M76.15,91.2
		C76.15,91.2,76.15,91.2,76.15,91.2L76.15,91.2L76.15,91.2L76.15,91.2L76.15,91.2C76.15,91.2,76.15,91.2,76.15,91.2L76.15,91.2
		L76.15,91.2L76.15,91.2L76.15,91.2 M76.15,91.2C76.15,91.2,76.15,91.2,76.15,91.2L76.15,91.2L76.15,91.2L76.15,91.2L76.15,91.2
		C76.15,91.2,76.15,91.2,76.15,91.2L76.15,91.2L76.15,91.2L76.15,91.2L76.15,91.2 M76.15,91.2L76.15,91.2L76.15,91.2 M76.15,91.2
		L76.15,91.2L76.15,91.2 M76.15,91.2L76.15,91.2L76.15,91.2 M76.48,88.06c-0.19,0-0.46,0.12-0.73,0.28
		c-0.26,0.15-0.51,0.34-0.68,0.49c-0.14,0.11-0.22,0.2-0.22,0.22c0,0,0,0,0,0c0.31,0.62,1.05,0.3,1.08,0.97
		c0.02,0.11,0.03,0.35,0.04,0.68c0,0.16,0.01,0.34,0.02,0.53c0.01,0.1,0.01,0.19,0.02,0.29l0.01,0.08l0,0.04l0,0.01v0l0,0l0,0
		c-0.1,0.32-0.13,0.44-0.13,0.44c0,0,0.07-0.22,0.13-0.44c0.07-0.21,0.13-0.43,0.13-0.44l0,0l0,0l0,0l0,0
		c-0.01,0.03-0.32,1.03-1.52,4.98c-0.02,0.07-0.04,0.13-0.06,0.2c0,0,0,0,0,0l0.06-0.19l0.46-1.51l1.52-4.98v-0.01l0.01-0.13
		l0.03-0.24c0.02-0.15,0.04-0.29,0.06-0.42c0.03-0.26,0.06-0.44,0.06-0.53C76.76,88.15,76.65,88.06,76.48,88.06"/>
	<polyline class="st255" points="74.57,96.36 74.57,96.36 74.57,96.36 	"/>
	<path class="st255" d="M74.55,96.44L74.55,96.44 M74.55,96.43L74.55,96.43L74.55,96.43l0,0.01l0,0l0,0l0,0l0,0l0,0l0,0L74.55,96.43
		L74.55,96.43L74.55,96.43 M74.55,96.42L74.55,96.42L74.55,96.42L74.55,96.42 M74.57,96.36l0,0.01c0,0,0,0,0,0
		c0,0-0.01,0.02-0.01,0.05c0,0,0,0,0,0c0,0,0,0,0,0l0,0l0,0l0,0v0l0,0c0,0,0,0,0,0l0,0.01l0,0l0,0l0,0l0,0l0,0l0,0
		c0,0,0,0.01,0,0.01c0,0,0,0,0,0c-0.01,0.04-0.02,0.09-0.03,0.15c0,0,0,0,0,0c0,0,0-0.01,0-0.01c0.01-0.08,0.03-0.14,0.04-0.17
		c0,0,0-0.01,0-0.01l0-0.01c0,0,0,0,0,0c0,0,0,0,0,0l0,0l0,0l0,0c0,0,0,0,0,0c0,0,0,0,0,0c0,0,0,0,0,0
		C74.57,96.37,74.57,96.37,74.57,96.36C74.57,96.36,74.57,96.36,74.57,96.36"/>
	<path class="st255" d="M74.55,96.42c0,0.01,0,0.01-0.01,0.02l0,0L74.55,96.42C74.55,96.42,74.55,96.42,74.55,96.42"/>
	<polyline class="st255" points="74.55,96.44 74.55,96.44 74.55,96.44 74.55,96.44 74.55,96.44 	"/>
	<path class="st255" d="M74.52,96.59c-0.01,0.06-0.02,0.14-0.04,0.22c-0.01,0.09-0.03,0.19-0.04,0.3c-0.01,0.1-0.02,0.21-0.03,0.32
		c0,0.06-0.01,0.11-0.01,0.17c0,0,0-0.01,0-0.01c0.03-0.39,0.08-0.75,0.12-0.97C74.52,96.6,74.52,96.59,74.52,96.59"/>
	<path class="st255" d="M74.4,97.59c-0.01,0.18-0.02,0.37-0.02,0.55c0,0.01,0,0.03,0,0.04c0,0.06,0,0.11,0,0.17
		c0.01,0.36,0.04,0.68,0.08,0.95c0,0.02,0.01,0.05,0.01,0.07c0.01,0.06,0.02,0.13,0.03,0.19c-0.05-0.27-0.1-0.61-0.12-1.01
		c0-0.03,0-0.06,0-0.09c0-0.09,0-0.18-0.01-0.27c0-0.01,0-0.02,0-0.03c0-0.01,0-0.01,0-0.02l0,0C74.39,97.96,74.39,97.77,74.4,97.59
		"/>
	<path class="st255" d="M74.51,99.56c0.05,0.24,0.1,0.43,0.15,0.57C74.62,100,74.56,99.8,74.51,99.56"/>
	<path class="st255" d="M74.66,100.13c0.02,0.05,0.04,0.1,0.05,0.14c0.04,0.09,0.07,0.17,0.11,0.24c-0.02-0.04-0.04-0.09-0.07-0.15
		C74.73,100.3,74.7,100.23,74.66,100.13"/>
	<path class="st255" d="M71.32,100.22l0.32,0.02l0.53,0.04c-0.01,0-0.02,0-0.03,0C71.91,100.26,71.64,100.24,71.32,100.22"/>
	<path class="st255" d="M72.18,100.28c0.03,0,0.05,0,0.08,0.01c0.07,0.01,0.13,0.01,0.19,0.02l-0.15-0.01l-0.09-0.01L72.18,100.28"
		/>
	<path class="st255" d="M72.44,100.3l0.06,0.01l0.25,0.02l0.02,0C72.67,100.32,72.56,100.31,72.44,100.3"/>
	<path class="st255" d="M72.77,100.33c0.02,0,0.04,0,0.06,0.01c-0.01,0-0.01,0-0.02,0L72.77,100.33"/>
	<path class="st255" d="M72.83,100.34c0.03,0,0.06,0.01,0.09,0.01c0.04,0,0.08,0.01,0.11,0.01c0.04,0.01,0.09,0.01,0.13,0.02
		c-0.09-0.01-0.19-0.02-0.3-0.03C72.85,100.34,72.84,100.34,72.83,100.34"/>
	<path class="st255" d="M73.16,100.38c0.32,0.04,0.57,0.08,0.77,0.11c-0.17-0.03-0.37-0.06-0.6-0.09
		C73.28,100.39,73.22,100.38,73.16,100.38"/>
	<path class="st255" d="M73.93,100.49c0.03,0.01,0.06,0.01,0.08,0.02c-0.01,0-0.02,0-0.02,0C73.97,100.5,73.95,100.49,73.93,100.49"
		/>
	<path class="st255" d="M74.01,100.5c0.12,0.02,0.22,0.05,0.31,0.07c0.02,0,0.03,0.01,0.05,0.01c-0.05-0.01-0.11-0.03-0.17-0.04
		C74.14,100.53,74.08,100.52,74.01,100.5"/>
	<path class="st255" d="M75,100.8L75,100.8L75,100.8 M74.82,100.51c0.08,0.16,0.15,0.25,0.19,0.29l0,0l0,0l0,0l0,0c0,0,0,0,0,0
		c0,0,0,0,0,0l0,0l0,0l0,0l0,0c0,0-0.01,0-0.01-0.01l-0.01,0l-0.01,0l0.01,0l0.02,0.01c0.01,0.01,0.01,0.01,0.01,0.01
		c0,0-0.01-0.01-0.01-0.01l0,0l0,0l0,0l0.02,0.01l0,0c0,0-0.01-0.01-0.02-0.01c0,0,0,0,0,0l0,0l0,0l0,0l0,0
		c0.01,0,0.01,0.01,0.02,0.01c0,0,0,0,0,0c0,0,0,0,0,0l0,0l0,0l0,0l0,0c0,0,0,0,0,0c0,0,0,0,0,0c0,0,0,0,0,0c0,0,0,0,0,0
		c0,0,0,0,0,0c0,0,0,0,0,0l0,0l0,0v0l0,0l0,0c0,0,0,0,0,0l0,0c0,0,0,0,0,0l-0.01,0l-0.02-0.01
		C74.98,100.76,74.9,100.67,74.82,100.51"/>
	<path class="st255" d="M74.37,100.58c0.02,0,0.03,0.01,0.05,0.01c0.02,0.01,0.05,0.01,0.07,0.02c0.12,0.03,0.22,0.06,0.3,0.09
		c-0.05-0.02-0.1-0.03-0.16-0.05C74.56,100.63,74.47,100.61,74.37,100.58"/>
	<path class="st255" d="M74.79,100.71c0.01,0,0.02,0.01,0.03,0.01l-0.01,0C74.81,100.71,74.8,100.71,74.79,100.71"/>
	<path class="st255" d="M74.82,100.72l0.15,0.07C74.93,100.76,74.89,100.74,74.82,100.72"/>
	<path class="st256" d="M74.9,100.74L74.9,100.74c0,0,0.01,0.01,0.02,0.01l0,0l0,0h0l0,0l0.01,0l0,0l0,0l-0.01,0l0,0h0
		C74.91,100.75,74.9,100.74,74.9,100.74"/>
	<path class="st255" d="M74.93,100.76L74.93,100.76L74.93,100.76l0.01,0.01L74.93,100.76L74.93,100.76L74.93,100.76 M74.9,100.74
		c0,0,0.01,0,0.02,0.01l0,0c0,0,0.01,0,0.01,0.01c0,0-0.01,0-0.01-0.01l0,0l0,0C74.91,100.75,74.9,100.74,74.9,100.74"/>
	<polyline class="st255" points="74.94,100.76 74.96,100.77 74.95,100.77 74.94,100.76 	"/>
	<path class="st255" d="M74.97,100.78L74.97,100.78L74.97,100.78L74.97,100.78 M74.94,100.76c0.01,0.01,0.02,0.01,0.03,0.02
		c0,0,0,0,0,0l0,0C74.96,100.77,74.95,100.77,74.94,100.76"/>
	<polyline class="st255" points="74.96,100.77 74.97,100.78 74.98,100.78 74.97,100.78 74.96,100.77 	"/>
	<path class="st255" d="M74.98,100.78L74.98,100.78L74.98,100.78L74.98,100.78 M74.97,100.78L74.97,100.78L74.97,100.78
		C74.98,100.78,74.97,100.78,74.97,100.78"/>
	<path class="st255" d="M74.98,100.78L74.98,100.78c0.01,0.01,0.02,0.01,0.03,0.01l0.01,0C75,100.79,74.99,100.79,74.98,100.78"/>
	<polyline class="st255" points="74.98,100.78 74.99,100.79 74.99,100.79 74.98,100.78 	"/>
	<path class="st255" d="M74.99,100.79L74.99,100.79 M74.98,100.79C74.98,100.79,74.98,100.79,74.98,100.79L74.98,100.79
		L74.98,100.79L74.98,100.79"/>
	<path class="st255" d="M74.99,100.79L74.99,100.79 M74.99,100.79l0.03,0.02c0,0-0.01-0.01-0.01-0.01L74.99,100.79L74.99,100.79"/>
	<path class="st255" d="M75.03,100.82L75.03,100.82L75.03,100.82 M75.01,100.81c0.01,0.01,0.02,0.01,0.02,0.01c0,0,0,0,0,0s0,0,0,0
		c0,0,0,0,0,0c0,0,0,0,0,0l0,0L75.01,100.81"/>
	<path class="st255" d="M75.04,100.81L75.04,100.81L75.04,100.81L75.04,100.81 M75.04,100.81L75.04,100.81L75.04,100.81
		 M75.03,100.81L75.03,100.81L75.03,100.81 M75.03,100.81C75.04,100.81,75.04,100.81,75.03,100.81L75.03,100.81L75.03,100.81
		L75.03,100.81C75.04,100.82,75.04,100.82,75.03,100.81C75.04,100.82,75.04,100.82,75.03,100.81L75.03,100.81L75.03,100.81
		L75.03,100.81C75.04,100.81,75.04,100.81,75.03,100.81L75.03,100.81L75.03,100.81L75.03,100.81L75.03,100.81
		C75.04,100.81,75.04,100.81,75.03,100.81L75.03,100.81"/>
	<polyline class="st255" points="75.04,100.81 75.04,100.81 75.04,100.81 75.04,100.81 	"/>
	<path class="st255" d="M75.04,100.81L75.04,100.81c0.01,0,0.01,0.01,0.01,0.01s0,0,0,0C75.05,100.82,75.05,100.82,75.04,100.81
		C75.04,100.82,75.04,100.82,75.04,100.81C75.04,100.82,75.04,100.82,75.04,100.81"/>
	<polyline class="st255" points="75.03,100.82 75.03,100.82 75.03,100.82 75.03,100.82 	"/>
	<path class="st248" d="M98.96,81.88c0.46-1.14,1.06-2.19,2.04-2.73c0,0,0.75-0.42,2.03-0.91c1.27-0.49,3.08-1.01,5.12-1.24
		c0.76-0.09,1.56-0.14,2.35-0.14c1.32,0,2.66,0.13,3.9,0.41c1.01,0.25,1.87,0.47,2.81,1.09c0.91,0.58,1.72,1.36,2.35,2.34
		c0,0,0.12,0.21,0.57,0.55c0.45,0.35,1.24,0.81,2.6,1.56c0,0,0.27,0.34,0.63,0.93c0.36,0.62,0.83,1.54,1.15,2.76
		c0.16,0.59,0.28,1.32,0.34,2.01c0.02,0.29,0.03,0.57,0.03,0.85l0,0c0,0.47-0.03,0.93-0.1,1.42c-0.22,1.53-0.84,3.01-1.78,3.92
		c0,0-0.11,0.18-0.3,0.49c-0.19,0.31-0.47,0.76-0.85,1.28c-0.4,0.54-0.77,1.02-1.51,1.93c-0.72,0.84-1.64,1.9-3.24,3.08
		c-0.8,0.58-1.8,1.19-3.01,1.67c-1.19,0.48-2.63,0.8-3.89,0.85c-0.17,0.01-0.33,0.01-0.49,0.01c-1.04,0-1.93-0.14-2.64-0.31
		c-0.81-0.2-1.4-0.44-1.84-0.64c-0.91-0.42-1.04-0.59-1.4-0.76c-0.32-0.16-0.64-0.28-0.93-0.31c0,0-0.22-0.68-0.59-1.32
		c-0.24-0.4-0.53-0.79-0.9-0.99c-0.49-0.07-0.77-0.13-0.77-0.13l0,0l0,0l0,0l0,0c0.07-0.01,0.14-0.02,0.21-0.02
		c0.21,0,0.39,0.05,0.56,0.14c0.27,0.04,0.59,0.09,0.97,0.14c-1.08-0.32-2.09-0.73-2.87-1.18c-0.98-0.52-2.2-1.67-2.21-2.3l0,0
		c0-0.02,0-0.03,0-0.05c0,0-0.37-0.39-0.94-1.23c-0.29-0.43-0.62-0.99-0.93-1.69c-0.31-0.69-0.59-1.59-0.7-2.37
		c-0.06-0.44-0.09-0.84-0.09-1.21l0,0c0-0.97,0.19-1.69,0.39-2.15c0.14-0.33,0.3-0.53,0.46-0.71c0.16-0.18,0.33-0.33,0.51-0.44
		c0,0,0.86-0.3,1.71-0.78l-0.03-0.94l0,0l0,0C98.02,83.74,98.12,82.74,98.96,81.88 M105.17,62.78c-0.48,0-0.96,0.06-1.39,0.16
		c-2.71,0.94-4.95,1.52-7.4,2.01c-0.82-0.03-1.46-0.78-2.42-0.89c-2.31,0.13-3.92,1.86-5.56,2.92c-1.62,0.57-3.55,1.65-4.6,2.89
		c-1.06,1.22-1.29,2.12-1.39,2.65c-0.02,0.16-0.03,0.29-0.03,0.4c0,0.49,0.15,0.57,0.15,0.63l0,0c0,0.02-0.01,0.04-0.05,0.06
		c-0.19,0.42-0.62,0.57-1.09,0.8c-0.47,0.22-0.99,0.51-1.24,1.09c-0.1,0.33-0.15,0.66-0.15,0.98c0,1.26,0.73,2.37,1.5,2.92
		c1.34,1.15,2.79,1.64,3.86,2.18c0.58,0.28,1.07,0.58,1.4,0.97c0.15-0.49,0.58-1.09,0.76-1.51c0.05-0.15,0.07-0.28,0.07-0.4
		c0-0.59-0.44-0.98-0.47-1.54l0,0l0,0l0,0l0,0c0.11-0.32,0.37-0.58,0.81-0.84c0.26-0.13,0.35-0.24,0.35-0.35
		c0-0.18-0.27-0.36-0.41-0.62c-0.07-0.07-0.09-0.14-0.09-0.21l0,0c0-0.16,0.16-0.29,0.34-0.35c0.26-0.11,0.54-0.09,0.56-0.17
		c0.01-0.01,0.01-0.02,0.01-0.04c0-0.12-0.15-0.39-0.15-0.7l0,0c0-0.04,0-0.08,0.01-0.12c0.03-0.3,0.19-0.56,0.44-0.56
		c0.09,0,0.18,0.03,0.28,0.1c-0.08-0.06-0.11-0.11-0.11-0.16l0,0c0-0.19,0.5-0.32,1.07-0.32c0.57,0,1.13,0.14,1.13,0.3l0,0
		c0,0.03-0.02,0.06-0.06,0.09c0.08,0.02,0.24,0.52,0.27,0.89l0,0l0,0l0,0l0,0c0,0.04,0,0.08,0,0.12c0,0.11,0,0.24,0,0.35l0,0
		c0,0.14-0.01,0.26-0.03,0.31c-0.09,0.23-0.16,0.5-0.2,0.79l1-0.27l-0.05,0.01l-0.1,0.04c-0.13,0.05-0.26,0.13-0.4,0.24
		c-0.18,0.14-0.35,0.31-0.52,0.53c-0.02,0.31-0.03,0.64-0.03,0.98c0,0.42,0.01,0.85,0.01,1.26l0,0c0,0.09,0,0.19,0,0.28
		c0.02,0.14,0.96,0.35,1.11,1.52c0.11,0.98,0.03,2.03,0.21,2.26c0.08-0.07,0.29-0.68,0.39-0.74c0,0,0,0,0,0
		c0.07,0,1.02-1.08,2.39-1.79c0.96-0.54,2.11-0.84,2.68-0.84c0.21,0,0.34,0.04,0.36,0.13c0,0.01,0,0.03,0,0.04l0,0
		c0,0.46-0.3,1.34-0.75,1.79c-1.19,1.41-1.39,2.3-2.29,3.54c-0.25,0.32-0.63,0.65-0.88,0.98c-0.64,0.91-1.38,1.99-1.41,2.27
		c-0.09,0.25-0.13,0.46-0.13,0.63c0,0.31,0.15,0.48,0.45,0.48c0.01,0,0.02,0,0.03,0c0.21,0.27,0.44,0.59,0.67,0.92l0,0l0,0l0,0l0,0
		c-0.93,0.34-2.03,0.9-2.79,1.25c-0.07,0.02-0.12,0.03-0.17,0.03c-0.09,0-0.15-0.03-0.21-0.06c-0.06-0.03-0.11-0.06-0.19-0.06
		c-0.01,0-0.02,0-0.03,0c-0.06-0.01-0.09-0.05-0.09-0.11l0,0c0-0.17,0.16-0.49,0.28-0.73c0.58-1,0.7-1.65,0.88-2.32
		c0.03-0.13,0.06-0.27,0.1-0.41c-0.41,0.47-0.81,1-1.17,1.61c-0.49,0.74-1.02,1.6-1.41,2.68c-0.35,0.99-0.58,2.14-0.57,3.37
		c0,0.12,0,0.23,0.01,0.35c0.05,1.36,0.39,2.8,1.05,4.11c0.64,1.29,1.61,2.46,2.66,3.2c0.63,0.42,1.18,0.71,1.65,0.92
		c0.47,0.2,0.8,0.29,1.21,0.41c0.79,0.22,1.58,0.39,2.35,0.57c0.77,0.19,1.52,0.39,2.23,0.69c-0.52-0.25-1.03-0.45-1.5-0.61l0,0l0,0
		c-1.64-0.56-2.98-0.67-3.04-0.67c0,0,0,0,0,0s0,0,0,0l0,0l0,0c0,0,0,0,0,0s0,0,0,0l0,0l0,0c0,0,0,0,0,0s0,0,0,0
		c0.06,0,1.39,0.12,3.04,0.67l0,0l0,0c0.48,0.16,0.99,0.36,1.51,0.62c0.6,0.26,1.18,0.58,1.74,1.03c0.06,0.04,0.13,0.09,0.19,0.14
		c0.01,0,0.01,0.01,0.02,0.01c0.21,0.16,0.47,0.37,1.17,0.72l0,0c0.66,0.33,1.67,0.77,3.15,1.15l0,0c0.74,0.18,1.6,0.34,2.58,0.43
		c0.02,0,0.03,0,0.05,0l0,0c0.37,0.03,0.76,0.05,1.16,0.06c0.54,0,1.1-0.03,1.69-0.08c2.1-0.19,4.4-0.86,6.23-1.75
		c1.87-0.89,3.35-1.96,4.53-2.99c1.18-1.03,2.06-2.02,2.79-2.94c0.72-0.92,1.28-1.78,1.76-2.6c0.4-0.69,0.74-1.33,1.07-2.05
		c0.07-0.11,0.16-0.26,0.26-0.46c0.31-0.75,0.49-1.39,0.56-1.8c0.47-1.05,0.82-2.07,1.14-3.16c0.06-0.86,0.09-1.71,0.09-2.54
		c0-1.95-0.17-3.77-0.51-5.31c-0.19-0.73-0.42-1.46-0.67-2.05c-0.28-0.72-0.6-1.31-0.92-1.82c-0.27-0.43-0.53-0.76-0.8-1.03
		c-0.34-0.3-0.72-0.55-1.13-0.72c-0.02,0-0.04-0.01-0.06-0.01c0,0-0.01-0.01-0.01-0.02c-0.02-0.01-0.05-0.02-0.07-0.03
		c-0.46-0.61-0.82-1.14-1.14-1.62c-0.5-0.68-0.99-1.31-1.09-1.68c-0.06-0.08-0.11-0.17-0.17-0.25c-0.32-0.46-0.65-0.83-1.07-1.17
		c-0.4-0.3-0.95-0.64-1.52-0.69c-0.6-0.08-1.22-0.15-1.82-0.22c-0.16,0-0.32,0-0.49,0.01c0.17-0.01,0.33-0.01,0.49-0.01l0,0
		c-0.16,0-0.32,0-0.49,0.01c0.17-0.01,0.33-0.01,0.49-0.01l0,0c-0.16,0-0.32,0-0.49,0.01c0.17-0.01,0.33-0.01,0.49-0.01
		c-2.56-0.29-5.07-0.57-6.89-1.73c-1.34-0.79-2.38-1.71-3.34-2.98c-0.18-0.21-0.3-1.06-0.44-2.01c-0.14-0.95-0.3-1.98-0.37-2.49
		c-0.14-0.92-0.82-1.47-1.64-1.71C106.01,62.82,105.59,62.78,105.17,62.78"/>
	<path class="st248" d="M123.65,76.2c0.1,0.36,0.59,1,1.09,1.68C124.32,77.23,123.98,76.69,123.65,76.2"/>
	<path class="st248" d="M125.96,79.52c0.01,0.01,0.01,0.02,0.01,0.02c0.02,0,0.04,0.01,0.06,0.01
		C126.01,79.54,125.98,79.53,125.96,79.52"/>
	<path class="st248" d="M110,81.5c-0.88,0.1-1.86,0.29-2.95,0.58c0,0-0.15,0.08-0.4,0.24c0.06-0.02,0.12-0.04,0.19-0.06
		C107.88,81.95,108.96,81.67,110,81.5 M127.16,80.28c0.27,0.27,0.54,0.6,0.8,1.03c0.32,0.51,0.64,1.1,0.92,1.82
		c0.25,0.6,0.48,1.32,0.67,2.05c-0.08-0.38-0.17-0.74-0.27-1.09C128.78,82.4,128.09,81.11,127.16,80.28"/>
	<path class="st248" d="M115.69,83.1c0.14,0.22,0.3,0.49,0.47,0.79c0.35,0.6,0.74,1.37,1.06,2.1c-0.14-0.68-0.42-1.46-0.93-2.18
		C116.12,83.56,115.92,83.32,115.69,83.1"/>
	<path class="st248" d="M87.2,83.39c0.03,0.13,0.05,0.26,0.07,0.4c0.04-0.07,0.08-0.13,0.13-0.2C87.34,83.52,87.28,83.45,87.2,83.39
		"/>
	<path class="st248" d="M106.42,87.29c-0.03,0.07-0.05,0.13-0.08,0.19c0.73,0.14,1.46,0.32,2.18,0.59c0.42,0.16,0.84,0.34,1.24,0.57
		c-0.28-0.28-0.6-0.52-0.95-0.72C108.13,87.54,107.32,87.33,106.42,87.29"/>
	<path class="st248" d="M129.96,93.04c-0.33,1.09-0.67,2.11-1.14,3.16c-0.07,0.4-0.25,1.04-0.56,1.79c0.26-0.49,0.59-1.22,0.88-2
		c0.42-1.08,0.7-2.21,0.81-2.8C129.96,93.14,129.96,93.09,129.96,93.04"/>
	<path class="st257" d="M129.96,93.04c-0.33,1.09-0.67,2.11-1.14,3.16l0,0c0,0.01,0,0.02,0,0.03c-0.07,0.4-0.25,1.03-0.56,1.77l0,0
		c0.31-0.75,0.49-1.39,0.56-1.79C129.29,95.15,129.64,94.13,129.96,93.04L129.96,93.04"/>
	<path class="st248" d="M101.62,108.36c0.1,0.08,0.2,0.16,0.3,0.25c0.38,0.37,1.66,1.24,4.41,1.88c0.99,0.22,2.19,0.38,3.58,0.38
		c0.01,0,0.02,0,0.03,0c-0.4-0.01-0.79-0.03-1.16-0.06l0,0c-0.02,0-0.03,0-0.05,0c-0.98-0.09-1.84-0.25-2.58-0.43l0,0
		c-1.48-0.37-2.48-0.81-3.15-1.15l0,0c-0.7-0.35-0.96-0.55-1.17-0.72c-0.01,0-0.01-0.01-0.02-0.01
		C101.75,108.45,101.69,108.4,101.62,108.36"/>
	<path class="st250" d="M98.96,81.88c-0.84,0.86-0.94,1.86-1.29,2.88l0.03,0.94c0.02-0.01,0.04-0.02,0.06-0.03
		c0.14-0.52,0.32-1.14,0.52-1.81C98.48,83.23,98.7,82.54,98.96,81.88"/>
	<path class="st250" d="M106.12,87.28c-0.58,0-1.21,0.07-1.87,0.22c-0.07,0.28-0.13,0.52-0.17,0.66c-0.05,0.14-0.09,0.21-0.14,0.28
		c-0.02,0.04-0.03,0.1-0.03,0.16c0,0.06,0.01,0.13,0.03,0.21c0.09,0.33,0.38,0.74,0.68,1.13c0.61,0.77,1.08,1.38,1.08,1.71l0,0
		c0,0.01,0,0.01,0,0.02c0,0,0.44,0.58,1.35,1.25c0.47,0.31,0.97,0.75,1.76,0.89c0.06,0.01,0.11,0.01,0.17,0.01
		c0.36,0,0.74-0.16,1.01-0.42c0.32-0.3,0.53-0.69,0.65-1.1c0.12-0.36,0.18-0.74,0.19-1.13c0-0.48-0.09-0.96-0.28-1.39
		c-0.18-0.43-0.45-0.82-0.78-1.15c-0.41-0.23-0.82-0.41-1.24-0.57c-0.72-0.26-1.45-0.45-2.18-0.59l0,0l0,0l0,0l0,0
		c0.03-0.06,0.06-0.12,0.08-0.19C106.32,87.28,106.22,87.28,106.12,87.28"/>
	<path class="st251" d="M104.25,87.5c0.66-0.15,1.29-0.22,1.87-0.22c1.03,0,1.93,0.22,2.69,0.64c0.35,0.2,0.68,0.44,0.95,0.72
		c0.33,0.33,0.6,0.72,0.78,1.15c0.19,0.43,0.28,0.91,0.28,1.39l0,0c0,0.38-0.06,0.77-0.19,1.13c-0.12,0.41-0.34,0.8-0.65,1.1
		c-0.27,0.26-0.65,0.42-1.01,0.42c-0.06,0-0.12,0-0.17-0.01c-0.78-0.14-1.29-0.58-1.76-0.89c-0.9-0.67-1.35-1.25-1.35-1.25l0,0l0,0
		l0,0l0,0c0-0.01,0-0.01,0-0.02c0-0.33-0.47-0.94-1.08-1.71c-0.3-0.38-0.59-0.79-0.68-1.13c-0.02-0.08-0.03-0.15-0.03-0.21l0,0
		c0-0.07,0.01-0.12,0.03-0.16c0.05-0.07,0.1-0.14,0.14-0.28C104.12,88.02,104.18,87.78,104.25,87.5 M111.18,81.43
		c-0.37,0-0.77,0.02-1.18,0.07c-1.03,0.18-2.12,0.45-3.17,0.77c-0.06,0.02-0.12,0.04-0.19,0.06c-0.57,0.35-1.65,1.06-2.69,1.98
		c-1.46,1.3-2.89,2.94-2.89,4.44c0,0.04,0,0.08,0,0.13l0,0l0,0l0,0l0,0c0,0-1.61,0.34-2.82,0.36c-0.81,0-1.43-0.11-1.43-0.72l0,0
		c0-0.32,0.17-0.77,0.57-1.42c0,0,0.14-0.57,0.37-1.41c-0.87,0.5-1.77,0.81-1.77,0.81c-0.18,0.11-0.35,0.26-0.51,0.44
		c-0.16,0.18-0.32,0.38-0.46,0.71c-0.2,0.46-0.39,1.18-0.39,2.15c0,0.37,0.03,0.77,0.09,1.21c0.11,0.78,0.39,1.68,0.7,2.37
		c0.31,0.7,0.65,1.26,0.93,1.69c0.57,0.85,0.94,1.23,0.94,1.23l0,0l0,0l0,0l0,0c0,0.02,0,0.03,0,0.05c0,0.63,1.23,1.78,2.21,2.3
		c0.79,0.45,1.8,0.87,2.87,1.18c0.09,0.01,0.18,0.02,0.27,0.04c0.6,0.08,1.3,0.15,2.04,0.22c0.4,0.04,0.63,0.03,1.43,0.17
		c0.48,0.07,1.17,0.19,2.06,0.19c0.5,0,1.06-0.04,1.68-0.15c0.87-0.16,1.8-0.5,2.54-0.93c0.75-0.43,1.34-0.94,1.78-1.42
		c0.89-0.98,1.3-1.82,1.6-2.54c0.26-0.69,0.41-1.22,0.54-1.81c0.13-0.58,0.22-1.13,0.28-1.64c0.23-2.07,0.12-3.41,0.67-4.04
		c0,0,0.03-0.12,0.05-0.34c0.01-0.13,0.02-0.3,0.02-0.49c0-0.14-0.01-0.3-0.02-0.46c-0.02-0.19-0.04-0.4-0.09-0.62
		c-0.33-0.72-0.71-1.49-1.06-2.1c-0.17-0.3-0.34-0.57-0.47-0.79c-0.66-0.64-1.54-1.17-2.68-1.45
		C112.45,81.5,111.85,81.43,111.18,81.43"/>
	<path class="st252" d="M110.49,76.86c-0.8,0-1.59,0.05-2.35,0.14c-2.04,0.23-3.84,0.75-5.12,1.24c-1.27,0.49-2.03,0.91-2.03,0.91
		c-0.97,0.54-1.58,1.59-2.04,2.73c-0.26,0.66-0.48,1.35-0.69,1.99c-0.2,0.66-0.38,1.29-0.52,1.81c-0.23,0.85-0.37,1.41-0.37,1.41
		c-0.4,0.65-0.57,1.1-0.57,1.42c0,0.61,0.62,0.72,1.43,0.72c1.22-0.02,2.82-0.36,2.82-0.36c0-0.04,0-0.08,0-0.13l0,0
		c0-1.5,1.42-3.14,2.89-4.44c1.04-0.92,2.12-1.63,2.69-1.98c0.25-0.16,0.4-0.24,0.4-0.24c1.09-0.29,2.07-0.49,2.95-0.58
		c0.41-0.04,0.81-0.07,1.18-0.07c0.67,0,1.28,0.07,1.84,0.22c1.14,0.28,2.02,0.81,2.68,1.45c0.23,0.22,0.43,0.46,0.6,0.71
		c0.51,0.73,0.8,1.5,0.93,2.18c0.04,0.22,0.07,0.42,0.09,0.62c0.02,0.16,0.02,0.31,0.02,0.46l0,0c0,0.19-0.01,0.37-0.02,0.49
		c-0.02,0.22-0.05,0.34-0.05,0.34c-0.55,0.63-0.44,1.96-0.67,4.04c-0.05,0.51-0.15,1.06-0.28,1.64c-0.13,0.59-0.29,1.12-0.54,1.81
		c-0.3,0.72-0.71,1.57-1.6,2.54c-0.45,0.48-1.03,0.99-1.78,1.42c-0.74,0.44-1.67,0.78-2.54,0.93c-0.63,0.11-1.19,0.15-1.68,0.15
		c-0.89,0-1.58-0.13-2.06-0.19c-0.8-0.14-1.03-0.14-1.43-0.17c-0.75-0.06-1.44-0.14-2.04-0.22c-0.09-0.01-0.18-0.02-0.27-0.04
		c-0.37-0.05-0.7-0.1-0.97-0.14c0.38,0.2,0.67,0.59,0.9,0.99c0.37,0.64,0.59,1.32,0.59,1.32c0.3,0.03,0.61,0.15,0.93,0.31
		c0.36,0.17,0.49,0.34,1.4,0.76c0.44,0.2,1.03,0.43,1.84,0.64c0.71,0.17,1.6,0.31,2.64,0.31c0.16,0,0.32,0,0.49-0.01
		c1.26-0.05,2.7-0.37,3.89-0.85c1.21-0.48,2.21-1.08,3.01-1.67c1.6-1.18,2.53-2.24,3.24-3.08c0.74-0.91,1.11-1.39,1.51-1.93
		c0.39-0.52,0.66-0.96,0.85-1.28c0.19-0.32,0.3-0.49,0.3-0.49c0.94-0.91,1.56-2.39,1.78-3.92c0.07-0.49,0.1-0.96,0.1-1.42
		c0-0.28-0.01-0.56-0.03-0.85c-0.06-0.69-0.18-1.41-0.34-2.01c-0.33-1.22-0.79-2.14-1.15-2.76c-0.37-0.59-0.63-0.93-0.63-0.93
		c-1.37-0.75-2.15-1.2-2.6-1.56c-0.45-0.33-0.57-0.55-0.57-0.55c-0.63-0.98-1.45-1.76-2.35-2.34c-0.94-0.62-1.81-0.84-2.81-1.09
		C113.16,76.99,111.82,76.86,110.49,76.86"/>
	<path class="st252" d="M100.84,99.53c-0.07,0-0.14,0.01-0.21,0.02c0,0,0.29,0.05,0.77,0.13C101.24,99.58,101.05,99.53,100.84,99.53
		"/>
	<path class="st253" d="M90.22,74.73c-0.57,0-1.07,0.13-1.07,0.32c0,0.05,0.03,0.11,0.11,0.16l0,0l0,0l0,0l0,0
		c-0.1-0.07-0.2-0.1-0.28-0.1c-0.25,0-0.41,0.27-0.44,0.56c-0.01,0.04-0.01,0.08-0.01,0.12c0,0.32,0.15,0.58,0.15,0.7l0,0
		c0,0.02,0,0.03-0.01,0.04c-0.02,0.09-0.3,0.07-0.56,0.17c-0.18,0.07-0.34,0.2-0.34,0.35c0,0.07,0.03,0.14,0.09,0.21
		c0.14,0.26,0.41,0.43,0.41,0.62l0,0c0,0.11-0.09,0.22-0.35,0.35c-0.43,0.26-0.7,0.53-0.81,0.84c0.03,0.56,0.47,0.96,0.47,1.54l0,0
		c0,0.13-0.02,0.26-0.07,0.4c-0.22,0.51-0.82,1.3-0.82,1.82c0,0.2,0.09,0.36,0.34,0.45c0.06,0.02,0.11,0.05,0.16,0.08
		c0.17,0.14,0.28,0.37,0.47,0.37c0.04,0,0.09-0.01,0.14-0.04l0,0l0,0l0,0c0.02-0.25,0.24-0.62,0.27-0.95
		c0.04-0.18,0.06-0.35,0.06-0.5c0-0.19-0.02-0.38-0.02-0.56l0,0c0-0.23,0.03-0.46,0.16-0.73c0.23-0.64,0.68-1.26,0.94-1.77
		c0.13-0.32,0.19-0.54,0.2-0.73c0.08-0.27,0.19-0.44,0.28-0.56c0-0.01-0.01-0.01-0.01-0.02c-0.03-0.08-0.08-0.18-0.16-0.35
		c-0.01-0.03-0.03-0.06-0.04-0.09c-0.01-0.02-0.02-0.04-0.03-0.06c-0.06-0.11-0.11-0.21-0.16-0.28c0-0.01-0.01-0.02-0.01-0.02
		l-0.1-0.15c0,0,0-0.01-0.01-0.01l0-0.01l0,0c0,0,0,0,0,0v0l-0.04-0.05l0,0l0-0.01l0,0l0,0v0l0,0l0,0l0,0l0,0.01l0,0l0.08,0.08
		l0.16,0.12c0.27,0.18,0.73,0.41,1.11,0.47c0.23,0.05,0.42,0.08,0.57,0.08c0.03,0,0.06,0,0.08,0c0,0,0.01,0,0.01,0l0.18-0.05
		c0.04-0.29,0.11-0.56,0.2-0.79c0.02-0.05,0.03-0.17,0.03-0.31c0-0.11,0-0.24,0-0.35l0,0c0-0.04,0-0.09,0-0.12
		c-0.03-0.37-0.19-0.86-0.27-0.89l0,0l0,0l0,0l0,0c0.04-0.03,0.06-0.06,0.06-0.09C91.35,74.87,90.79,74.73,90.22,74.73"/>
	<path class="st253" d="M91.27,78.12c-0.32,0.41-0.63,0.95-0.91,1.58c0.09,0.26,0.18,0.51,0.27,0.75c0.27,0.67,0.48,1.28,0.66,1.87
		c0.14,0.46,0.41,1.31,0.52,2.1c0.13,0.79,0.14,1.51,0.17,1.7c0.01,0.25,0.08,0.3,0.17,0.3c0.03,0,0.06-0.01,0.09-0.01
		c0.03-0.01,0.06-0.01,0.1-0.01c0.08,0,0.15,0.03,0.19,0.16l0,0l0,0l0,0l0,0c0,0-0.05,0.12-0.14,0.28c0.03,0.01,0.05,0.01,0.08,0.01
		c0,0,0,0,0,0c0.06-0.1,0.21-0.25,0.28-0.35c0.01,0.02,0.02,0.06,0.02,0.1l0,0c0,0.1-0.03,0.26-0.1,0.48
		c-0.39,1.11-0.63,1.77-0.79,2.35c-0.04,0.14-0.07,0.27-0.1,0.41c-0.17,0.68-0.3,1.32-0.88,2.32c-0.11,0.24-0.28,0.56-0.28,0.73
		c0,0.07,0.03,0.11,0.09,0.11c0.01,0,0.02,0,0.03,0c0.08,0,0.13,0.03,0.19,0.06c0.06,0.03,0.12,0.06,0.21,0.06
		c0.05,0,0.1-0.01,0.17-0.03c0.76-0.35,1.85-0.9,2.79-1.25c-0.23-0.33-0.46-0.64-0.67-0.92c-0.01,0-0.02,0-0.03,0
		c-0.31,0-0.46-0.17-0.45-0.48l0,0c0-0.17,0.05-0.38,0.13-0.63c0.03-0.29,0.77-1.36,1.41-2.27c0.25-0.33,0.63-0.66,0.88-0.98
		c0.9-1.24,1.1-2.14,2.29-3.54c0.44-0.44,0.75-1.33,0.75-1.79c0-0.01,0-0.03,0-0.04c-0.02-0.08-0.15-0.13-0.36-0.13
		c-0.57,0-1.72,0.3-2.68,0.84c-1.37,0.7-2.32,1.79-2.39,1.79c0,0,0,0,0,0c-0.1,0.06-0.31,0.67-0.39,0.74
		c-0.18-0.24-0.11-1.29-0.21-2.26c-0.15-1.17-1.09-1.38-1.11-1.52l0,0l0,0l0,0l0,0c0-0.09,0-0.18,0-0.28c0-0.4-0.01-0.83-0.01-1.26
		l0,0C91.24,78.77,91.25,78.44,91.27,78.12"/>
	<polyline class="st253" points="89.14,76.86 89.14,76.86 89.14,76.86 89.14,76.86 89.14,76.86 	"/>
	<path class="st253" d="M89.15,76.87l0.04,0.05l0,0c0,0,0,0,0,0.01l0,0l0,0.01c0.03,0.04,0.06,0.09,0.1,0.15l0,0.01
		c0,0.01,0.01,0.01,0.01,0.02c0.05,0.08,0.1,0.17,0.16,0.28c0.01,0.02,0.02,0.04,0.03,0.06c0.06,0.13,0.13,0.27,0.2,0.44
		c0,0.01,0.01,0.01,0.01,0.02c0.06-0.07,0.11-0.13,0.15-0.19c0.11-0.14,0.17-0.23,0.17-0.28c0-0.01,0-0.01,0-0.02
		c-0.36-0.12-0.45-0.19-0.45-0.21l0,0c0,0,0,0,0.01,0c0,0,0.01,0,0.01,0l-0.07-0.04l-0.12-0.08l-0.02-0.01
		c-0.13-0.08-0.21-0.15-0.22-0.19L89.15,76.87L89.15,76.87"/>
	<polyline class="st253" points="91.22,77.62 91.22,77.62 91.22,77.62 	"/>
	<polyline class="st253" points="90.98,77.67 90.97,77.67 90.95,77.68 90.98,77.67 	"/>
	<path class="st98" d="M119.09,73.87c-0.01,0-0.01,0-0.02,0l0,0C119.08,73.87,119.09,73.87,119.09,73.87c0.73,0,1.34,0.08,1.85,0.19
		l0,0c0.16,0.03,0.3,0.07,0.44,0.12l0,0l0,0c0.14,0.05,0.3,0.13,0.43,0.2l0,0l0,0c0.27,0.15,0.5,0.29,0.71,0.45l0,0l0,0
		c0.79,0.6,1.09,1.18,1.11,1.22c0,0,0,0,0,0l0,0c0,0-0.29-0.61-1.11-1.23c-0.21-0.16-0.44-0.3-0.71-0.45
		c-0.13-0.07-0.29-0.15-0.43-0.2c-0.14-0.04-0.28-0.08-0.44-0.12C120.44,73.94,119.82,73.87,119.09,73.87"/>
	<path class="st254" d="M120.94,74.05c0.16,0.03,0.3,0.07,0.44,0.12C121.24,74.13,121.1,74.09,120.94,74.05"/>
	<path class="st254" d="M121.38,74.17c0.14,0.05,0.3,0.13,0.43,0.2C121.68,74.3,121.52,74.22,121.38,74.17"/>
	<path class="st254" d="M121.81,74.37c0.27,0.15,0.5,0.29,0.71,0.45C122.31,74.66,122.08,74.52,121.81,74.37"/>
	<path class="st254" d="M122.52,74.82c0.79,0.6,1.09,1.18,1.11,1.22C123.61,76,123.31,75.41,122.52,74.82"/>
	<path class="st254" d="M124.77,77.91c0.3,0.39,0.59,0.79,0.82,1.11C125.37,78.7,125.07,78.31,124.77,77.91"/>
	<path class="st254" d="M126.98,80.11c0.06,0.05,0.12,0.11,0.18,0.17c0.27,0.27,0.54,0.6,0.8,1.03c-0.27-0.43-0.53-0.76-0.8-1.03
		C127.1,80.22,127.04,80.16,126.98,80.11"/>
	<path class="st254" d="M129.61,85.43c0.2,0.8,0.34,1.75,0.44,2.55C129.96,87.18,129.82,86.23,129.61,85.43"/>
	<path class="st254" d="M130.06,87.98c0.09,0.89,0.12,1.72,0.12,2.43l0,0C130.17,89.71,130.14,88.87,130.06,87.98"/>
	<path class="st98" d="M126.03,79.55L126.03,79.55c0.3,0.06,0.62,0.26,0.93,0.54c0.01,0,0.01,0.01,0.02,0.01
		c0.06,0.05,0.12,0.11,0.18,0.17l0,0c-0.07-0.06-0.13-0.13-0.2-0.18C126.65,79.81,126.33,79.62,126.03,79.55"/>
	<path class="st254" d="M127.96,81.31c0.32,0.51,0.64,1.1,0.92,1.82C128.6,82.41,128.29,81.81,127.96,81.31"/>
	<path class="st254" d="M128.88,83.13c0.25,0.6,0.48,1.32,0.67,2.05c0.02,0.08,0.04,0.17,0.06,0.25
		C129.41,84.62,129.16,83.79,128.88,83.13"/>
	<path class="st98" d="M130.17,90.41c-0.03,1.52-0.17,2.5-0.17,2.5c-0.01,0.04-0.03,0.09-0.04,0.13l0,0c0-0.01,0-0.02,0.01-0.02
		c0.01-0.04,0.02-0.07,0.03-0.11l0,0C130,92.91,130.14,91.93,130.17,90.41L130.17,90.41L130.17,90.41"/>
	<path class="st258" d="M129.96,93.04L129.96,93.04c-0.33,1.09-0.67,2.11-1.14,3.16c-0.07,0.4-0.25,1.04-0.56,1.8l0,0l0,0
		c0.3-0.74,0.48-1.36,0.56-1.77c0-0.01,0-0.02,0-0.03l0,0C129.29,95.15,129.64,94.13,129.96,93.04L129.96,93.04"/>
	<path class="st254" d="M130.17,90.41c-0.03,1.52-0.17,2.5-0.17,2.5C130,92.91,130.14,91.93,130.17,90.41"/>
	<path class="st254" d="M129.97,93.01c0,0.01,0,0.02-0.01,0.02c-0.33,1.09-0.67,2.11-1.14,3.16c0.47-1.05,0.82-2.07,1.14-3.16
		C129.97,93.03,129.97,93.02,129.97,93.01"/>
	<path class="st98" d="M128.26,98L128.26,98c-0.13,0.33-0.29,0.68-0.48,1.04c-0.15,0.3-0.31,0.6-0.49,0.91
		c-0.09,0.15-0.18,0.31-0.27,0.47c-0.12,0.2-0.24,0.4-0.37,0.61c-0.52,0.83-1.16,1.75-2,2.74c-0.84,0.98-1.88,2.04-3.15,3.03
		c-0.49,0.39-1.01,0.76-1.56,1.1l0,0c0.54-0.35,1.07-0.72,1.56-1.1l0,0c0.04-0.03,0.08-0.06,0.12-0.09
		c1.22-0.97,2.22-1.99,3.03-2.94l0,0l0,0c0.84-0.99,1.48-1.91,2-2.74l0,0c0.12-0.21,0.25-0.41,0.37-0.61
		c0.09-0.16,0.18-0.32,0.27-0.47l0,0c0.17-0.31,0.34-0.62,0.49-0.91l0,0l0,0C127.96,98.67,128.12,98.32,128.26,98"/>
	<path class="st254" d="M127.78,99.03c-0.15,0.3-0.31,0.6-0.49,0.91C127.47,99.64,127.63,99.33,127.78,99.03"/>
	<path class="st254" d="M126.65,101.03c-0.52,0.83-1.16,1.75-2,2.74C125.49,102.78,126.13,101.86,126.65,101.03"/>
	<path class="st254" d="M124.65,103.77c-0.81,0.95-1.82,1.97-3.03,2.94C122.83,105.74,123.84,104.72,124.65,103.77"/>
	<path class="st254" d="M121.5,106.8c-0.49,0.39-1.01,0.76-1.56,1.1C120.48,107.56,121.01,107.19,121.5,106.8"/>
	<path class="st254" d="M128.82,96.23c-0.07,0.4-0.25,1.03-0.56,1.77c-0.13,0.33-0.29,0.68-0.48,1.04
		C128.38,97.86,128.71,96.81,128.82,96.23"/>
	<path class="st254" d="M95.34,106.04c0.06,0,1.39,0.12,3.04,0.67C96.73,106.16,95.4,106.05,95.34,106.04"/>
	<path class="st254" d="M98.38,106.72c0.84,0.29,1.78,0.69,2.72,1.29c-0.41-0.26-0.82-0.48-1.22-0.68
		C99.36,107.08,98.85,106.88,98.38,106.72"/>
	<path class="st254" d="M119.94,107.91c-0.86,0.55-1.76,1.04-2.64,1.42C118.18,108.94,119.08,108.45,119.94,107.91"/>
	<path class="st254" d="M101.83,108.51c0.21,0.16,0.47,0.37,1.17,0.72C102.3,108.88,102.04,108.67,101.83,108.51"/>
	<path class="st98" d="M117.3,109.33L117.3,109.33c-1.43,0.64-2.79,1.01-3.71,1.21c-0.92,0.19-1.44,0.25-1.44,0.25
		c-0.62,0.06-1.22,0.09-1.79,0.09l0,0l0,0l0,0c0.55,0,1.13-0.02,1.73-0.08c0.02,0,0.04,0,0.06-0.01l0,0c0,0,0.48-0.05,1.33-0.23
		c0.03-0.01,0.07-0.01,0.11-0.02C114.51,110.34,115.87,109.97,117.3,109.33L117.3,109.33"/>
	<path class="st254" d="M113.48,110.56c-0.85,0.17-1.33,0.23-1.33,0.23C112.15,110.79,112.63,110.74,113.48,110.56"/>
	<path class="st254" d="M112.09,110.79c-0.6,0.06-1.18,0.08-1.73,0.08C110.92,110.88,111.49,110.85,112.09,110.79"/>
	<path class="st254" d="M106.15,110.37c0.74,0.18,1.6,0.34,2.58,0.43C107.75,110.71,106.89,110.55,106.15,110.37"/>
	<path class="st254" d="M108.78,110.81c0.5,0.04,1.03,0.07,1.59,0.07C109.81,110.88,109.28,110.85,108.78,110.81"/>
	<polyline class="st255" points="89.14,76.86 89.14,76.86 89.14,76.86 89.15,76.87 89.15,76.87 89.15,76.87 89.15,76.87 
		89.14,76.86 89.14,76.86 89.14,76.86 89.14,76.86 89.14,76.86 	"/>
	<polyline class="st255" points="89.18,76.92 89.18,76.92 89.18,76.92 89.18,76.92 	"/>
	<path class="st255" d="M89.15,76.87l0.01,0.01c0.01,0.04,0.1,0.11,0.22,0.19l-0.16-0.12L89.15,76.87"/>
	<polyline class="st255" points="89.18,76.92 89.18,76.92 89.19,76.93 89.18,76.92 	"/>
	<polyline class="st255" points="89.19,76.93 89.19,76.94 89.19,76.93 89.19,76.93 	"/>
	<path class="st255" d="M89.19,76.94l0.1,0.15C89.26,77.03,89.22,76.98,89.19,76.94"/>
	<path class="st255" d="M90.98,77.67L90.98,77.67l-0.03,0.01l0.02-0.01L90.98,77.67 M91.22,77.62
		C91.22,77.62,91.22,77.62,91.22,77.62L91.22,77.62L91.22,77.62L91.22,77.62L91.22,77.62C91.22,77.62,91.22,77.62,91.22,77.62
		L91.22,77.62L91.22,77.62L91.22,77.62L91.22,77.62 M89.38,77.08l0.02,0.01l0.12,0.08l0.07,0.04l0,0l0,0c-0.01,0-0.01,0-0.01,0
		c0,0-0.01,0-0.01,0c0,0.02,0.09,0.09,0.45,0.21c0,0,0,0.01,0,0.02l0,0c0,0.05-0.06,0.15-0.17,0.28c-0.04,0.06-0.1,0.12-0.15,0.19
		c0-0.01-0.01-0.01-0.01-0.02c0,0.01,0.01,0.01,0.01,0.02l0,0l0,0l0,0l0,0c-0.09,0.13-0.2,0.29-0.28,0.56
		c-0.01,0.19-0.08,0.42-0.2,0.73c-0.26,0.51-0.71,1.13-0.94,1.77c-0.13,0.26-0.16,0.5-0.16,0.73c0,0.19,0.02,0.37,0.02,0.56l0,0
		c0,0.16-0.01,0.32-0.06,0.5c-0.04,0.33-0.25,0.7-0.27,0.95c0.13,0.05,0.2,0.25,0.31,0.25c0.03,0,0.07-0.02,0.11-0.06
		c0.29-0.2,0.41-0.55,0.57-0.82c0.42-1.13,1.05-2.27,1.46-3.18c0.02-0.05,0.04-0.09,0.06-0.14c0.09,0.33,0.19,0.7,0.29,1.13
		c0.12,0.56,0.25,1.12,0.38,1.68c0.05,0.21,0.14,0.42,0.19,0.62c0.12,0.41,0.21,0.83,0.29,1.25c0.09,0.55,0.19,1.3,0.19,1.97l0,0
		c0,0.02,0,0.04,0,0.06c0,0.01,0,0.01,0,0.02l0,0c0,0.68-0.08,1.23-0.09,1.4c0,0.04,0,0.07,0,0.09c0,0.07,0.01,0.1,0.03,0.1
		c0.06,0,0.21-0.26,0.39-0.56c0.14-0.25,0.27-0.48,0.37-0.65c0.1-0.19,0.17-0.34,0.17-0.34c-0.04-0.13-0.11-0.16-0.19-0.16
		c-0.03,0-0.06,0.01-0.1,0.01c-0.03,0.01-0.06,0.01-0.09,0.01c-0.09,0-0.16-0.05-0.17-0.3c-0.03-0.19-0.04-0.91-0.17-1.7
		c-0.11-0.79-0.38-1.64-0.52-2.1c-0.17-0.58-0.38-1.19-0.66-1.87c-0.09-0.24-0.18-0.49-0.27-0.75l0,0l0,0l0,0l0,0
		c0.28-0.63,0.59-1.17,0.91-1.58c0.17-0.22,0.34-0.4,0.52-0.53c0.13-0.11,0.27-0.18,0.4-0.24l0.1-0.04l0.05-0.01l-1,0.27l-0.18,0.05
		c0,0-0.01,0-0.01,0c-0.02,0-0.05,0-0.08,0c-0.15,0-0.33-0.03-0.57-0.08C90.12,77.49,89.66,77.26,89.38,77.08"/>
	<path class="st255" d="M89.29,77.08c0,0.01,0.01,0.02,0.01,0.02C89.3,77.1,89.3,77.1,89.29,77.08L89.29,77.08"/>
	<path class="st255" d="M89.31,77.11c0.05,0.08,0.1,0.18,0.16,0.28C89.41,77.28,89.35,77.19,89.31,77.11"/>
	<path class="st255" d="M89.46,77.39c0.01,0.02,0.02,0.04,0.03,0.06C89.49,77.43,89.48,77.41,89.46,77.39"/>
	<path class="st255" d="M89.5,77.45c0.02,0.03,0.03,0.06,0.04,0.09c0.08,0.17,0.12,0.27,0.16,0.35
		C89.63,77.73,89.56,77.58,89.5,77.45"/>
</g>
<g>
	<path d="M115.81,71c-2.7-1.9-5.43-3.76-8.01-5.56c1.34-2.51,3.02-5.19,4.23-8.07c1.21-2.88,2.2-5.9,2.8-8.96
		c0.73-3.72,1.65-7.5-0.32-11.28c-2.31-4.44-7.19-6.62-11.87-5.11c-7.07,2.27-12.22,7.3-16.77,12.64
		c-3.09,3.62-4.76,8.46-7.24,13.08c-0.24-0.14-0.9-0.53-1.57-0.92c-5.34-3.07-11.09-4.7-17.22-3.9c-2.16,0.28-3.86,0.28-5.87-0.64
		c-1.02-0.47-2.75,0.43-4.09,0.9c-0.53,0.19-0.79,1.08-1.32,1.35c-3.72,1.87-3.73,1.84-0.93,4.78c0.25,0.27,0.41,0.62,0.58,0.89
		c-4.45,5.96-8.26,11.93-4.61,19.34c-2.43,1.4-4.71,2.53-6.79,3.97c-2.19,1.51-4.24,3.23-6.23,5c-6.65,5.91-10.16,18.75-5.94,27.21
		c2.04,4.08,7.03,5.59,10.64,2.81c4.93-3.81,9.76-7.76,14.85-11.82c5.33,7.64,12.07,12.19,21.3,11.7
		c9.02-0.47,16.5-3.57,19.36-12.14c5.22,0,10.22,0.91,14.74-0.18c10.73-2.6,15.16-10.2,16.53-20.49
		C122.86,79.39,120.91,74.57,115.81,71z M82.33,57.06c1.48-4,2.99-8.38,5.78-11.4c3.81-4.11,8.61-7.44,13.4-10.46
		c6.41-4.05,12.4,2.4,11.63,8.07c-0.89,6.5-2.38,12.95-6.38,18.49c-1.68,2.33-3.29,3.39-6.42,2.62c-2.36-0.58-5.06,0.18-7.61,0.32
		c-0.46,0.02-0.93-0.11-2.01-0.25c2.4-4.51,4.63-8.71,7.05-13.26c-3.18,2.11-6.98,7.63-8.89,12.35c-0.48,1.17-1.43,2.15-2.58,3.09
		C84.83,63.25,80.87,60.99,82.33,57.06z M49.65,62.98c1.71-1.88,3.56-3.22,0.19-5.25c0.99-0.6,1.63-0.99,2.28-1.38
		c-0.02,0.27-0.05,0.54-0.07,0.81c6.88-0.6,13.64-3.25,20.62,0.17c4.97,2.43,8.02,6.24,11.53,10.22c-3.31,3.45-6.65,6.82-6.54,12.19
		c-9.94-2.69-18.79-1.61-25.88,6.09C43.36,79.74,42.29,71.08,49.65,62.98z M47.4,106.09c-0.33,0.64-1.1,1.2-1.79,1.49
		c-4.72,1.98-8.47,5.13-11.98,8.85c-2.44,2.6-6.13,0.7-7.45-3.11c-2.16-6.27-0.6-11.97,1.99-17.69c2.81-6.19,8.73-8.92,13.72-12.66
		c0.71-0.53,2.61-0.23,3.5,0.36c1.77,1.18,3.22,2.84,5.56,5.01c-1.77,0.72-2.65,1.23-3.59,1.43c-5.15,1.1-8.66,4.62-8.7,9.69
		c2.64-3.3,4.63-6.68,7.99-6.88c0.53,3.56,1.12,7.03,1.5,10.52C48.26,104.07,47.87,105.19,47.4,106.09z M76.43,115.36
		c-1.97,0.55-4.07,0.64-6.1,0.94c-11.05-0.11-18.02-8.11-20.68-16.59c-1.34-4.25,0.8-8.32,3.68-11.69
		c6.44-7.53,17.76-8.8,25.64-4.94c6.77,3.31,10.66,8.14,11,15.47C90.31,106.41,84.81,113.01,76.43,115.36z M119.52,84.16
		c-0.49,4.57-1.22,8.96-4.06,12.77c-3.13,4.2-7.35,6.59-12.43,7.11c-2.8,0.29-5.69-0.25-8.53-0.48c-1.75-0.14-2.23-1.16-2.1-2.87
		c0.67-8.92-3.63-15.01-11.1-19.31c-0.59-0.34-1.07-1.68-0.91-2.41c1.56-7.23,6.09-11.07,13.46-11.96
		c7.71-0.94,14.67,0.39,20.59,5.69c0.28,0.25,0.45,0.63,0.67,0.95c0.22,0.22,0.45,0.43,0.67,0.65
		C119.31,76.72,119.95,80.14,119.52,84.16z"/>
	<path d="M108.98,71.7c-0.12-0.25-0.95-0.37-1.33-0.23c-1.2,0.45-2.34,1.06-3.88,1.79c0,1.15-0.54,3.09,0.13,4.44
		c0.93,1.87,2.54,4.15,4.3,4.62c1.16,0.31,2.75,0.24,4.1,1.07c0.71-0.89,1.18-2.11,1.93-2.32c3.88-1.09,1.63-2.6,0.55-3.89
		c0.36-1.04,0.67-1.96,0.99-2.88c-0.22-0.22-0.45-0.43-0.67-0.65C112.89,73.55,110.35,74.56,108.98,71.7z M108.09,79.76
		c-0.57-1.03-1.31-2.37-2.02-3.66c1.32-0.59,2.46-1.1,3.93-1.75c0.68,1.27,1.44,2.7,2.06,3.87
		C110.58,78.79,109.35,79.26,108.09,79.76z"/>
	<path d="M64.02,86.16c-2.9,0.41-4.14,2.54-2.76,5.05c-0.75,0.59-1.49,1.18-2.25,1.78c3.85,4.04,3.84,3.72,6.31,3.66
		c2.75-0.07,5.46,0.39,7.64-2.35c-1.54-0.28-2.63-0.48-4.06-0.74c1.91-3.16,0.27-4.25-2.08-4.95c1.44-1.3,2.73-0.73,4.12,1.52
		c0.79,1.28,1.92,2.33,3.3,3.96c0.26-2.42,0.42-3.92,0.51-4.85c-1.29-1.47-2.32-2.65-3.93-4.48C69.05,85.12,66.56,85.8,64.02,86.16z
		 M67.54,93.18c-1.16,0.31-2.4,0.68-3.55,0.54c-0.64-0.08-1.17-1.08-1.75-1.67c1.5-1.13,3.01-2.26,4.51-3.39
		c0.17,0.85,0.36,1.7,0.51,2.55C67.37,91.9,67.61,93.16,67.54,93.18z"/>
	<path d="M96.86,94.74c0.42,2.43,0.84,4.86,1.25,7.28c0.36-0.01,0.72-0.02,1.07-0.03c-0.26-2.48-0.53-4.96-0.79-7.45
		C97.89,94.61,97.37,94.67,96.86,94.74z"/>
	<path d="M93.8,95.61c0.49,2.07,0.98,4.15,1.59,6.71C96.73,97.37,96.13,95.34,93.8,95.61z"/>
	<path d="M101.09,100.88c0.24,0.02,0.47,0.04,0.71,0.06c0-2.24,0-4.49,0-6.73c-0.24,0.01-0.47,0.02-0.71,0.03
		C101.09,96.46,101.09,98.67,101.09,100.88z"/>
	<path d="M76.97,75.82c-0.38-2.41-0.76-4.82-1.14-7.23c-0.41,0.07-0.81,0.13-1.22,0.2c0.44,2.37,0.88,4.75,1.32,7.12
		C76.27,75.87,76.62,75.85,76.97,75.82z"/>
	<path d="M71.71,76.67c-0.32-2.31-0.64-4.63-0.96-6.94c-0.43,0.07-0.86,0.13-1.29,0.2c0.46,2.31,0.91,4.63,1.37,6.94
		C71.12,76.8,71.42,76.74,71.71,76.67z"/>
	<path d="M74.32,76.33c-0.3-2.48-0.6-4.95-0.9-7.43c-0.44,0.09-0.89,0.19-1.33,0.28c0.47,2.42,0.95,4.83,1.42,7.25
		C73.79,76.4,74.05,76.37,74.32,76.33z"/>
</g>
</svg>
