<?xml version="1.0" encoding="utf-8"?>
<!-- Generator: Adobe Illustrator 23.0.1, SVG Export Plug-In . SVG Version: 6.00 Build 0)  -->
<svg version="1.1" id="Layer_1" xmlns="http://www.w3.org/2000/svg" xmlns:xlink="http://www.w3.org/1999/xlink" x="0px" y="0px"
	 viewBox="0 0 150 150" style="enable-background:new 0 0 150 150;" xml:space="preserve">
<style type="text/css">
	.st0{fill:#F49AB4;}
	.st1{fill:#F28DA7;}
	.st2{fill:#E85072;}
	.st3{fill:#E84B6F;}
	.st4{fill:#EB5A7D;}
	.st5{fill:#EF7994;}
	.st6{fill:#F8BCCD;}
	.st7{fill:#F38CA8;}
	.st8{fill:#EF728F;}
	.st9{fill:#FCE4EB;}
	.st10{fill:#F0CCCF;}
	.st11{fill:#DE8D95;}
	.st12{fill:#EBBABF;}
	.st13{fill:#E7ACB2;}
	.st14{fill:#E39DA3;}
	.st15{fill:#F5DEE0;}
	.st16{fill:#D97A83;}
	.st17{fill:#E4A6AD;}
	.st18{fill:#E9B6BB;}
	.st19{fill:#DA9197;}
	.st20{fill:#CC7077;}
	.st21{fill:#C9646C;}
	.st22{fill:#D4848B;}
	.st23{fill:#D17A81;}
	.st24{fill:#DD9EA3;}
	.st25{fill:#C65760;}
	.st26{fill:#D48189;}
	.st27{fill:#CF6E76;}
	.st28{fill:#C1575F;}
	.st29{fill:#B8424B;}
	.st30{fill:#B33C43;}
	.st31{fill:#BB4952;}
	.st32{fill:#C65E66;}
	.st33{fill:#BC4F57;}
	.st34{fill:#B0353D;}
	.st35{fill:#D67E84;}
	.st36{fill:#C6636B;}
	.st37{fill:#CA6C72;}
	.st38{fill:#B9454D;}
	.st39{fill:#C05B63;}
	.st40{fill:#C0545B;}
	.st41{fill:#BE4C53;}
	.st42{fill:#B43C44;}
	.st43{fill:#DF999F;}
	.st44{fill:#D27980;}
	.st45{fill:#C1555D;}
	.st46{fill:#CB6F76;}
	.st47{fill:#C8676E;}
	.st48{fill:#D5838A;}
	.st49{fill:#C65D64;}
	.st50{fill:#F1D1D4;}
	.st51{fill:#D38087;}
	.st52{fill:#CF737C;}
	.st53{fill:#D98C94;}
	.st54{fill:#E6B3B9;}
	.st55{fill:#D8898F;}
	.st56{fill:#C66269;}
	.st57{fill:#C96A72;}
	.st58{fill:#DD9399;}
	.st59{fill:#CF747B;}
	.st60{fill:#D48188;}
	.st61{fill:#D37D85;}
	.st62{fill:#DC9298;}
	.st63{fill:#D8838B;}
	.st64{fill:#FAECED;}
	.st65{fill:#EFCBD0;}
	.st66{fill:#EDC1C5;}
	.st67{fill:#D28089;}
	.st68{fill:#CB747D;}
	.st69{fill:#A8343C;}
	.st70{fill:#A62F37;}
	.st71{fill:#B03E44;}
	.st72{fill:#C25C63;}
	.st73{fill:#E1A8AC;}
	.st74{fill:#BE535C;}
	.st75{fill:#CE727C;}
	.st76{fill:#F5D8DA;}
	.st77{fill:#D8BAE7;}
	.st78{fill:#BC8FD2;}
	.st79{fill:#B17FC9;}
	.st80{fill:#7D3CA4;}
	.st81{fill:#884BAE;}
	.st82{fill:#A369BF;}
	.st83{fill:#D2B5E2;}
	.st84{fill:#9A62BC;}
	.st85{fill:#B17ECB;}
	.st86{fill:#ECE0F2;}
	.st87{fill:#FBCBC8;}
	.st88{fill:#F5908C;}
	.st89{fill:#F28580;}
	.st90{fill:#E64640;}
	.st91{fill:#E5413B;}
	.st92{fill:#E74E49;}
	.st93{fill:#ED6D68;}
	.st94{fill:#F7B5B0;}
	.st95{fill:#ED6660;}
	.st96{fill:#F48580;}
	.st97{fill:#FBDFDF;}
	.st98{fill:#F9C1C0;}
	.st99{fill:#F7B7B6;}
	.st100{fill:#EF7573;}
	.st101{fill:#EF6F6D;}
	.st102{fill:#F17F7C;}
	.st103{fill:#F4A19F;}
	.st104{fill:#F39998;}
	.st105{fill:#EC7271;}
	.st106{fill:#FAD1CF;}
	.st107{fill:#FADCDC;}
	.st108{fill:#F39391;}
	.st109{fill:#FDECEC;}
	.st110{fill:#FCDDDD;}
	.st111{fill:#ED8280;}
	.st112{fill:#E66160;}
	.st113{fill:#F18784;}
	.st114{fill:#F19593;}
	.st115{fill:#EB7675;}
	.st116{fill:#E86867;}
	.st117{fill:#F28785;}
	.st118{fill:#F3A7A7;}
	.st119{fill:#F08C8B;}
	.st120{fill:#F08785;}
	.st121{fill:#E55D5B;}
	.st122{fill:#E86D6C;}
	.st123{fill:#E85F5D;}
	.st124{fill:#E75958;}
	.st125{fill:#EA6664;}
	.st126{fill:#E76260;}
	.st127{fill:#E04948;}
	.st128{fill:#ED7371;}
	.st129{fill:#EA6B6A;}
	.st130{fill:#EB6763;}
	.st131{fill:#E45352;}
	.st132{fill:#E54E4C;}
	.st133{fill:#DE3635;}
	.st134{fill:#E65958;}
	.st135{fill:#E0413E;}
	.st136{fill:#EA6D6A;}
	.st137{fill:#EE9493;}
	.st138{fill:#EA6866;}
	.st139{fill:#F2A8A6;}
	.st140{fill:#E14543;}
	.st141{fill:#E3413F;}
	.st142{fill:#E64A48;}
	.st143{fill:#E56967;}
	.st144{fill:#E33F3D;}
	.st145{fill:#EB7775;}
	.st146{fill:#EE8483;}
	.st147{fill:#E64845;}
	.st148{fill:#E75655;}
	.st149{fill:#E65451;}
	.st150{fill:#EA7473;}
	.st151{fill:#E55B57;}
	.st152{fill:#E75756;}
	.st153{fill:#EB7472;}
	.st154{fill:#EE8C8A;}
	.st155{fill:#F5A3A2;}
	.st156{fill:#E14A49;}
	.st157{fill:#E14D4C;}
	.st158{fill:#E14B49;}
	.st159{fill:#DE3E3D;}
	.st160{fill:#E45350;}
	.st161{fill:#E14544;}
	.st162{fill:#E54E4B;}
	.st163{fill:#E34240;}
	.st164{fill:#E75C5A;}
	.st165{fill:#EB7C7B;}
	.st166{fill:#F3A2A1;}
	.st167{fill:#EA7877;}
	.st168{fill:#E66B6A;}
	.st169{fill:#E96A69;}
	.st170{fill:#E56160;}
	.st171{fill:#E44845;}
	.st172{fill:#EC7473;}
	.st173{fill:#F9C0D3;}
	.st174{fill:#F298B5;}
	.st175{fill:#EE89A7;}
	.st176{fill:#E54D73;}
	.st177{fill:#E44771;}
	.st178{fill:#E7567E;}
	.st179{fill:#EC7797;}
	.st180{fill:#F8BCCF;}
	.st181{fill:#EB6D8F;}
	.st182{fill:#F089A8;}
	.st183{fill:#FCE2EB;}
	.st184{fill:#E55B7F;}
	.st185{fill:#E6708E;}
	.st186{fill:#EB87A2;}
	.st187{fill:#E25677;}
	.st188{fill:#E7678B;}
	.st189{fill:#FBD7E3;}
	.st190{fill:#ED80A1;}
	.st191{fill:#E24166;}
	.st192{fill:#E13B65;}
	.st193{fill:#E34870;}
	.st194{fill:#E76486;}
	.st195{fill:#F49DB8;}
	.st196{fill:#F7BFD1;}
	.st197{fill:#E65C7F;}
	.st198{fill:#F6ABC4;}
	.st199{fill:#F6A7C2;}
	.st200{fill:#EA6189;}
	.st201{fill:#DB3258;}
	.st202{fill:#DA2E55;}
	.st203{fill:#F7B2C9;}
	.st204{fill:#EA6A8D;}
	.st205{fill:#DC355B;}
	.st206{fill:#DB3159;}
	.st207{fill:#DF3C63;}
	.st208{fill:#F9C5D6;}
	.st209{fill:#EB7697;}
	.st210{fill:#DE3B61;}
	.st211{fill:#DE375F;}
	.st212{fill:#E1426A;}
	.st213{fill:#FDE7EE;}
	.st214{fill:#EE89A9;}
	.st215{fill:#E2456B;}
	.st216{fill:#E14069;}
	.st217{fill:#E44D75;}
	.st218{fill:#E86B8C;}
	.st219{fill:#EE7A9C;}
	.st220{fill:#F5A8C0;}
	.st221{fill:#FACBDA;}
	.st222{fill:#E65A7D;}
	.st223{fill:#E04169;}
	.st224{fill:#FEF5F9;}
	.st225{fill:#F191B0;}
	.st226{fill:#EA7292;}
	.st227{fill:#F6B4C9;}
	.st228{fill:#FBD8E5;}
	.st229{fill:#E96C8F;}
	.st230{fill:#E35477;}
	.st231{fill:#EA7396;}
	.st232{fill:#EB7A9D;}
	.st233{fill:#E8698D;}
	.st234{fill:#EB7094;}
	.st235{fill:#E04B6E;}
	.st236{fill:#E66085;}
	.st237{fill:#EB7294;}
	.st238{fill:#E7678C;}
	.st239{fill:#EA6D91;}
	.st240{fill:#E14C71;}
	.st241{fill:#EE7A9D;}
	.st242{fill:#F393B2;}
	.st243{fill:#DC3F64;}
	.st244{fill:#EF82A3;}
	.st245{fill:#F39DB9;}
	.st246{fill:#DF466B;}
	.st247{fill:#DF4469;}
	.st248{fill:#F29A98;}
	.st249{fill:#E64F4D;}
	.st250{fill:#E74947;}
	.st251{fill:#E85956;}
	.st252{fill:#EC7775;}
	.st253{fill:#F8BCBA;}
	.st254{fill:#EC6F6D;}
	.st255{fill:#FCE2E2;}
	.st256{fill:#F8C8C6;}
	.st257{fill:#F08B89;}
	.st258{fill:#F18A89;}
	.st259{fill:#B093A4;}
	.st260{fill:#A38295;}
	.st261{fill:#6F455A;}
	.st262{fill:#694055;}
	.st263{fill:#794F64;}
	.st264{fill:#936F83;}
	.st265{fill:#CDB7C1;}
	.st266{fill:#B596A5;}
	.st267{fill:#A58394;}
	.st268{fill:#8C667A;}
	.st269{fill:#B696A7;}
	.st270{fill:#E8E0E7;}
	.st271{fill:#E1BCC2;}
	.st272{fill:#A9666E;}
	.st273{fill:#681C23;}
	.st274{fill:#641920;}
	.st275{fill:#73242D;}
	.st276{fill:#8D3F48;}
	.st277{fill:#C69197;}
	.st278{fill:#893841;}
	.st279{fill:#E3CCCE;}
	.st280{fill:#6F292E;}
	.st281{fill:#A15A63;}
	.st282{fill:#944952;}
	.st283{fill:#944953;}
	.st284{fill:#964A53;}
	.st285{fill:#984B54;}
	.st286{fill:#974A53;}
	.st287{fill:#A25A62;}
	.st288{fill:#D2BCC8;}
	.st289{fill:#C8B2BE;}
	.st290{fill:#936A80;}
	.st291{fill:#8E667B;}
	.st292{fill:#9B7589;}
	.st293{fill:#B293A3;}
	.st294{fill:#916B7F;}
	.st295{fill:#DDCCD6;}
	.st296{fill:#AC8B9C;}
	.st297{fill:#F1EBEF;}
	.st298{fill:#9C7A8C;}
	.st299{fill:#8F6C80;}
	.st300{fill:#B99DAC;}
	.st301{fill:#A27F91;}
	.st302{fill:#C2A7B6;}
	.st303{fill:#AB8E9F;}
	.st304{fill:#936D82;}
	.st305{fill:#856174;}
	.st306{fill:#B99DAB;}
	.st307{fill:#C2A9B6;}
	.st308{fill:#A38091;}
	.st309{fill:#BBA3B0;}
	.st310{fill:#7A5468;}
	.st311{fill:#855F73;}
	.st312{fill:#AE8E9F;}
	.st313{fill:#7C556A;}
	.st314{fill:#7B5066;}
	.st315{fill:#855C71;}
	.st316{fill:#AF8E9F;}
	.st317{fill:#734B60;}
	.st318{fill:#694256;}
	.st319{fill:#916A80;}
	.st320{fill:#886378;}
	.st321{fill:#875C71;}
	.st322{fill:#714B5E;}
	.st323{fill:#582F42;}
	.st324{fill:#795066;}
	.st325{fill:#5E3A4B;}
	.st326{fill:#8A6578;}
	.st327{fill:#A98E9D;}
	.st328{fill:#B9A1B1;}
	.st329{fill:#B08F9F;}
	.st330{fill:#B898AA;}
	.st331{fill:#896578;}
	.st332{fill:#653C50;}
	.st333{fill:#623A4E;}
	.st334{fill:#6C4257;}
	.st335{fill:#B28FA1;}
	.st336{fill:#80596E;}
	.st337{fill:#7F586C;}
	.st338{fill:#765063;}
	.st339{fill:#683F53;}
	.st340{fill:#774E63;}
	.st341{fill:#704B5F;}
	.st342{fill:#674355;}
	.st343{fill:#7F5A6E;}
	.st344{fill:#815A6E;}
	.st345{fill:#6A4558;}
	.st346{fill:#5D374A;}
	.st347{fill:#926D80;}
	.st348{fill:#70475B;}
	.st349{fill:#72495E;}
	.st350{fill:#673D52;}
	.st351{fill:#673D51;}
	.st352{fill:#60364B;}
	.st353{fill:#795265;}
	.st354{fill:#683F52;}
	.st355{fill:#7A5368;}
	.st356{fill:#987387;}
	.st357{fill:#70475C;}
	.st358{fill:#A07D92;}
	.st359{fill:#81596E;}
	.st360{fill:#926C7F;}
	.st361{fill:#80596D;}
	.st362{fill:#CDC0E4;}
	.st363{fill:#A998CF;}
	.st364{fill:#644DA1;}
	.st365{fill:#5E479E;}
	.st366{fill:#6F56A9;}
	.st367{fill:#755CAC;}
	.st368{fill:#8975BA;}
	.st369{fill:#C4BAE0;}
	.st370{fill:#755DAD;}
	.st371{fill:#846DB7;}
	.st372{fill:#E7E2F2;}
	.st373{fill:#9B89C5;}
	.st374{fill:#8871B8;}
	.st375{fill:#9C89C6;}
	.st376{fill:#8673B9;}
	.st377{fill:#B9E1BA;}
	.st378{fill:#ADDBAE;}
	.st379{fill:#99D09A;}
	.st380{fill:#65B567;}
	.st381{fill:#5FB261;}
	.st382{fill:#70BB71;}
	.st383{fill:#8DCB8E;}
	.st384{fill:#CBE9CB;}
	.st385{fill:#86C687;}
	.st386{fill:#98D099;}
	.st387{fill:#EBF5EB;}
	.st388{fill:#B9D6C9;}
	.st389{fill:#8EBD9E;}
	.st390{fill:#7DB18E;}
	.st391{fill:#408251;}
	.st392{fill:#3A7F4C;}
	.st393{fill:#4A8C5B;}
	.st394{fill:#68A279;}
	.st395{fill:#B5D4BE;}
	.st396{fill:#7CB38B;}
	.st397{fill:#619D71;}
	.st398{fill:#E0ECE4;}
	.st399{fill:#74A38C;}
	.st400{fill:#679880;}
	.st401{fill:#669780;}
	.st402{fill:#669881;}
	.st403{fill:#285E41;}
	.st404{fill:#235A3C;}
	.st405{fill:#31684A;}
	.st406{fill:#4D8268;}
	.st407{fill:#A1C2B0;}
	.st408{fill:#679981;}
	.st409{fill:#467B62;}
	.st410{fill:#D6E5DF;}
	.st411{fill:#8ECA8F;}
	.st412{fill:#7DC07F;}
	.st413{fill:#409841;}
	.st414{fill:#3A933C;}
	.st415{fill:#4AA14B;}
	.st416{fill:#68B569;}
	.st417{fill:#7CC07D;}
	.st418{fill:#B5DDB5;}
	.st419{fill:#61B062;}
	.st420{fill:#7CC17E;}
	.st421{fill:#E0EFE0;}
	.st422{fill:#EBF5DE;}
	.st423{fill:#D4EAB8;}
	.st424{fill:#D2E9B4;}
	.st425{fill:#D8ECBE;}
	.st426{fill:#E2F0CE;}
	.st427{fill:#F3F9EA;}
	.st428{fill:#DFF0CA;}
	.st429{fill:#FAFDF7;}
	.st430{fill:#D3C9BE;}
	.st431{fill:#CBBEB3;}
	.st432{fill:#BBAC9F;}
	.st433{fill:#97826F;}
	.st434{fill:#947E69;}
	.st435{fill:#9F8A79;}
	.st436{fill:#B5A495;}
	.st437{fill:#DED6CE;}
	.st438{fill:#BBAD9F;}
	.st439{fill:#AE9E8D;}
	.st440{fill:#F2EFEC;}
	.st441{fill:#B1A091;}
	.st442{fill:#B1A090;}
	.st443{fill:#D8BACF;}
	.st444{fill:#976286;}
	.st445{fill:#905778;}
	.st446{fill:#4F1939;}
	.st447{fill:#4C1637;}
	.st448{fill:#5A2144;}
	.st449{fill:#773B60;}
	.st450{fill:#B88FAD;}
	.st451{fill:#6E345A;}
	.st452{fill:#8E567D;}
	.st453{fill:#E1CCDA;}
	.st454{fill:#C4E2A7;}
	.st455{fill:#93C35F;}
	.st456{fill:#8EC15A;}
	.st457{fill:#9AC868;}
	.st458{fill:#B0D587;}
	.st459{fill:#DCEBC3;}
	.st460{fill:#C8E0AA;}
	.st461{fill:#ABD280;}
	.st462{fill:#CAE2A9;}
	.st463{fill:#EFF8E7;}
	.st464{fill:#FFF6C0;}
	.st465{fill:#FFEC97;}
	.st466{fill:#FFDC4B;}
	.st467{fill:#FFD945;}
	.st468{fill:#FFDD54;}
	.st469{fill:#FFE774;}
	.st470{fill:#FFF4BA;}
	.st471{fill:#FFE46C;}
	.st472{fill:#FFF9E2;}
	.st473{fill:#FDE2C1;}
	.st474{fill:#F9CA98;}
	.st475{fill:#F9C18A;}
	.st476{fill:#F5994E;}
	.st477{fill:#F49448;}
	.st478{fill:#F8A158;}
	.st479{fill:#F8B577;}
	.st480{fill:#FCDDBC;}
	.st481{fill:#F8B06F;}
	.st482{fill:#FFEFE2;}
	.st483{fill:#F8A7A4;}
	.st484{fill:#EF8262;}
	.st485{fill:#EC605A;}
	.st486{fill:#EB5B55;}
	.st487{fill:#EC6964;}
	.st488{fill:#F28783;}
	.st489{fill:#F9C4C1;}
	.st490{fill:#F2817A;}
	.st491{fill:#EB6449;}
	.st492{fill:#FCE7E7;}
	.st493{fill:#FFEA88;}
	.st494{fill:#FFEB87;}
	.st495{fill:#FDF2E3;}
	.st496{fill:#FDEFDD;}
	.st497{fill:#F9E1C4;}
	.st498{fill:#FADEB9;}
	.st499{fill:#FADDB7;}
	.st500{fill:#FAE0BF;}
	.st501{fill:#FBE9CF;}
	.st502{fill:#F9DAB8;}
	.st503{fill:#FDF5EB;}
	.st504{fill:#FBE6CB;}
	.st505{fill:#FFFBF7;}
	.st506{fill:#FBDFBE;}
	.st507{fill:#F7D8B5;}
	.st508{fill:#FBE8CF;}
	.st509{fill:#FBE3C8;}
	.st510{fill:#F9E8CF;}
	.st511{fill:#F8DBB7;}
	.st512{fill:#FADBB5;}
	.st513{fill:#F7D5AE;}
	.st514{fill:#FDE9D5;}
	.st515{fill:#FAE3C8;}
	.st516{fill:#F7D1A4;}
	.st517{fill:#F5CD9D;}
	.st518{fill:#F7D8B0;}
	.st519{fill:#F8D4A9;}
	.st520{fill:#F8D3A6;}
	.st521{fill:#F8D8AF;}
	.st522{fill:#F7CD9E;}
	.st523{fill:#F4C896;}
	.st524{fill:#FBE3C5;}
	.st525{fill:#F7DBB8;}
	.st526{fill:#F7D8B1;}
	.st527{fill:#F7D7B0;}
	.st528{fill:#F8CD9F;}
	.st529{fill:#F8CD9E;}
	.st530{fill:#F1BE84;}
	.st531{fill:#F8D0A3;}
	.st532{fill:#F1C38D;}
	.st533{fill:#F8D8B1;}
	.st534{fill:#FBE2C8;}
	.st535{fill:#F9EAD3;}
	.st536{fill:#F9D3AA;}
	.st537{fill:#F7C896;}
	.st538{fill:#F7C794;}
	.st539{fill:#F7CA9A;}
	.st540{fill:#F7D3AB;}
	.st541{fill:#F8D8B5;}
	.st542{fill:#F9E6CF;}
	.st543{fill:#F7C897;}
	.st544{fill:#F8D3AA;}
	.st545{fill:#F7CEA2;}
	.st546{fill:#F4CD9E;}
	.st547{fill:#F5D2A5;}
	.st548{fill:#FBE2C2;}
	.st549{fill:#F5D1A8;}
	.st550{fill:#F8D5AB;}
	.st551{fill:#F2C695;}
	.st552{fill:#F8D3A8;}
	.st553{fill:#F5C998;}
	.st554{fill:#F5C894;}
	.st555{fill:#F2C997;}
	.st556{fill:#F2C48D;}
	.st557{fill:#F4C694;}
	.st558{fill:#F5CE9D;}
	.st559{fill:#F4C594;}
	.st560{fill:#F5C995;}
	.st561{fill:#F4C48F;}
	.st562{fill:#F7D2A6;}
	.st563{fill:#F8DFBB;}
	.st564{fill:#FBE2C3;}
	.st565{fill:#F8CC9E;}
	.st566{fill:#FADFC1;}
	.st567{fill:#F9D8B5;}
	.st568{fill:#F4C997;}
	.st569{fill:#F9DDB8;}
	.st570{fill:#FDFCED;}
	.st571{fill:#FBF7D2;}
	.st572{fill:#F9F6CB;}
	.st573{fill:#F4EBA8;}
	.st574{fill:#F5E9A6;}
	.st575{fill:#F5EDAC;}
	.st576{fill:#F7F5C0;}
	.st577{fill:#FBFBE1;}
	.st578{fill:#F7F0BE;}
	.st579{fill:#FAF6CE;}
	.st580{fill:#FFFBF5;}
	.st581{fill:#BDDB97;}
	.st582{fill:#BBDC99;}
	.st583{fill:#BDDD99;}
	.st584{fill:#B0D484;}
	.st585{fill:#AFD484;}
	.st586{fill:#FFEA87;}
	.st587{fill:#D3E9BA;}
	.st588{fill:#E1EECE;}
	.st589{fill:#D3E8BB;}
	.st590{fill:#E3EECE;}
	.st591{opacity:0.9;}
	.st592{fill:#FFF8CD;}
	.st593{opacity:0.9;fill:#FFEE8A;}
	.st594{fill:#FFF19E;}
	.st595{fill:#FFF5B6;}
	.st596{fill:#FFFBE0;}
	.st597{fill:none;stroke:#FFF4B1;stroke-width:0;}
	.st598{fill:#FFFDF3;}
	.st599{fill:#FACEDD;}
	.st600{opacity:0.9;fill:#F38CAF;}
	.st601{fill:#F5A0BD;}
	.st602{fill:#F8B8CD;}
	.st603{fill:#FCE1EA;}
	.st604{fill:none;stroke:#F7B2C9;stroke-width:0;}
	.st605{fill:#FEF3F7;}
	.st606{fill:#FBDBB6;}
	.st607{fill:#FBD1A3;}
	.st608{fill:#F9B674;}
	.st609{fill:#F8B36E;}
	.st610{fill:#FABB7E;}
	.st611{fill:#FACB99;}
	.st612{fill:#FDE9D1;}
	.st613{fill:#FAC893;}
	.st614{fill:#F9D0A1;}
	.st615{fill:#FFF5EC;}
	.st616{fill:#D7ECC0;}
	.st617{fill:#B1D684;}
	.st618{fill:#ADD680;}
	.st619{fill:#B7D98D;}
	.st620{fill:#C8E2A7;}
	.st621{fill:#E8F2D6;}
	.st622{fill:#C3E0A0;}
	.st623{fill:#F5FAEF;}
	.st624{fill:#A87699;}
	.st625{fill:#A9716E;}
	.st626{fill:#9F698A;}
	.st627{fill:#9F698D;}
	.st628{fill:#65294F;}
	.st629{fill:#632638;}
	.st630{fill:#62244A;}
	.st631{fill:#612335;}
	.st632{fill:#6E3259;}
	.st633{fill:#6D2F40;}
	.st634{fill:#8B4E74;}
	.st635{fill:#C4A1BB;}
	.st636{fill:#9D688D;}
	.st637{fill:#82476E;}
	.st638{fill:#E7D6E1;}
	.st639{fill:#FFF9D6;}
	.st640{fill:#FFF2A6;}
	.st641{fill:#FFF4B0;}
	.st642{fill:#FFF7C4;}
	.st643{fill:#FFFCE6;}
	.st644{fill:#FFF3B5;}
	.st645{fill:#FFED8B;}
	.st646{fill:#FFED94;}
	.st647{fill:#FFF1A4;}
	.st648{fill:#FFF5BF;}
	.st649{fill:#FFF6CD;}
	.st650{fill:#FFE46E;}
	.st651{fill:#FFED98;}
	.st652{fill:#FFF3A9;}
	.st653{fill:#FFEC8D;}
	.st654{fill:#FFE66B;}
	.st655{fill:#FFEC8A;}
	.st656{fill:#FFE66D;}
	.st657{fill:#FFE571;}
	.st658{fill:#FFEF94;}
	.st659{fill:#FFEF9E;}
	.st660{fill:#FFED93;}
	.st661{fill:#FFE873;}
	.st662{fill:#FFE97A;}
	.st663{fill:#FFEC87;}
	.st664{fill:#FFF19F;}
	.st665{fill:#FFF1A8;}
	.st666{fill:#FFEA7E;}
	.st667{fill:#FFEB86;}
	.st668{fill:#FFEF97;}
	.st669{fill:#FFF2B0;}
	.st670{fill:#FFF4BC;}
	.st671{fill:#FFF5C1;}
	.st672{fill:#FFF8CF;}
	.st673{fill:#FFF8DC;}
	.st674{fill:#FFF0A0;}
	.st675{fill:#FFEE92;}
	.st676{fill:#FFF6CE;}
	.st677{fill:#FFFADD;}
	.st678{fill:#FFFBEC;}
	.st679{fill:#FFFDF5;}
	.st680{fill:#F49C52;}
	.st681{fill:#F69D52;}
	.st682{fill:#F8A55E;}
	.st683{fill:#F8B472;}
	.st684{fill:#F59D54;}
	.st685{fill:#F8A65F;}
	.st686{fill:#F8B474;}
	.st687{fill:#FDF3E9;}
	.st688{fill:#FAE8D1;}
	.st689{fill:#FAE8CF;}
	.st690{fill:#FAEBD4;}
	.st691{fill:#F9EDD7;}
	.st692{fill:#FBEFDE;}
	.st693{fill:#FBEFDD;}
	.st694{fill:#FDF8F1;}
	.st695{fill:#FBEDD7;}
	.st696{fill:#FBEFDC;}
	.st697{fill:#FFFBFA;}
	.st698{fill:#FFE771;}
	.st699{fill:#FFEB83;}
	.st700{fill:#FFED90;}
	.st701{fill:#F7B6CB;}
	.st702{fill:#F4A2BB;}
	.st703{fill:#EE7397;}
	.st704{fill:#ED6D94;}
	.st705{fill:#EF7C9F;}
	.st706{fill:#F399B5;}
	.st707{fill:#FAD1DE;}
	.st708{fill:#F291AE;}
	.st709{fill:#F3A1BB;}
	.st710{fill:#FDECF2;}
</style>
<g>
	<path class="st0" d="M87.68,87.36L87.68,87.36l0.01,0.03l0,0L87.68,87.36 M81.28,70.19C81.28,70.19,81.28,70.19,81.28,70.19
		C81.28,70.19,81.28,70.19,81.28,70.19L81.28,70.19C81.28,70.19,81.28,70.19,81.28,70.19L81.28,70.19L81.28,70.19L81.28,70.19
		L81.28,70.19C81.28,70.2,81.28,70.19,81.28,70.19 M81.28,70.19C81.28,70.19,81.29,70.18,81.28,70.19
		C81.29,70.18,81.29,70.18,81.28,70.19L81.28,70.19C81.29,70.18,81.28,70.19,81.28,70.19L81.28,70.19L81.28,70.19L81.28,70.19
		L81.28,70.19 M57.12,42.96c-0.41,0-0.83,0.03-1.25,0.11c-2.87,0.16-6.31,1-9.64,2.45c-3.33,1.42-6.61,3.58-9.05,5.9
		c-2.76,2.03-5.86,4.63-9.14,8.63c-0.98,1.2-1.98,2.57-2.93,4.04c-0.25,0.53-0.5,1.06-0.74,1.61c-1.26,2.95-2.03,5.81-2.42,8.41
		c-0.26,1.69-0.37,3.27-0.37,4.74c0,0.8,0.03,1.56,0.09,2.29c0.11,2.04,0.39,3.49,0.67,4.61c0.28,1.12,0.57,1.93,0.79,2.61
		c0.36,1.04,0.57,1.77,0.57,2.63l0,0c0,0.24-0.02,0.49-0.05,0.77c0,0.5,1.18,1.44,2.84,2.94c1.61,1.47,3.58,3.45,5.42,6.1
		c0.04-0.11,0.36-0.95,0.95-2.54c-0.41-0.56-1-1.42-1.68-2.58c-0.61-1.08-1.3-2.4-1.89-3.96c-0.62-1.53-1.16-3.37-1.46-5.66
		c-0.13-0.99-0.21-2.07-0.21-3.23l0,0c0-1.49,0.13-3.11,0.47-4.86c0.3-1.55,0.74-3.17,1.41-4.84c0.65-1.65,1.53-3.37,2.53-4.89
		c2-3.05,4.3-5.2,6.47-6.58c2.19-1.4,4.21-1.97,6.29-2.18c0,0,0.62-0.24,1.7-0.61c1.07-0.39,2.58-0.78,4.33-1.14
		c1.86-0.38,3.94-0.58,6.02-0.58c1.84,0,3.67,0.16,5.33,0.49c3.58,0.69,6.5,2.04,8.15,3.62c0.96,0.93,1.5,1.92,1.5,2.97l0,0
		c0,0.75-0.28,1.53-0.89,2.33c0,0-0.35,0.46-1,1.31c-0.64,0.85-1.57,2.08-2.64,3.61c-1.06,1.54-2.25,3.39-3.27,5.45
		c-1.03,2.06-1.85,4.35-2.15,6.59c-0.06,0.57-0.11,1.13-0.14,1.66c0,0.02,0,0.04,0,0.06c0,0.51,0.06,1,0.19,1.42
		c0.12,0.38,0.29,0.72,0.52,0.98c0.42,0.2,0.96,0.41,1.63,0.64l0.73,0.22l0.39,0.11l0,0c0.01-1.2,0.16-2.2,0.39-2.7
		c0.02-0.05,0.05-0.09,0.08-0.12c-0.05-0.28-0.09-0.55-0.1-0.81c-0.02-0.13-0.02-0.25-0.02-0.36l0,0c0-0.1,0-0.18,0-0.26
		c0-0.04,0-0.08,0-0.11l0,0l0,0l0,0l0,0c0.05-0.19,0.07-0.34,0.12-0.48c0-0.01,0.01-0.01,0.01-0.02c-0.02-0.16-0.02-0.32-0.02-0.48
		l0,0c0-0.08,0-0.16,0.01-0.24c0.03-0.3,0.13-0.67,0.31-1.07c0.06-0.15,0.13-0.32,0.32-0.44c-0.22-0.57-0.32-1.1-0.32-1.6l0,0
		c0-0.17,0.01-0.33,0.04-0.49c0.07-0.45,0.22-0.85,0.45-1.21c0.08-0.1,0.24-0.21,0.48-0.21c0.14,0,0.31,0.04,0.5,0.15l0,0l0,0l0,0
		l0,0c-0.01,0-0.01,0-0.01,0c0,0.02,0.72,0.15,1.06,0.28c0.42,0.13,0.79,0.29,1.07,0.43c0.6,0.3,0.94,0.56,1.19,0.77
		c0.25,0.21,0.27,0.3,0.37,0.43l0.26,0.38c1.91,2.96,2.49,6.14,2.64,9.19c0.55,0.44,1.13,0.89,1.74,1.36
		c0.38,0.29,0.72,0.62,1.05,0.97c0.14-0.85,0.29-1.76,0.44-2.75c0.01-0.05,0.02-0.11,0.02-0.16l0.48-3.27L78,83.87l0.1-0.74l0-0.01
		l0.01-0.04l-0.01,0.05l0,0.02c0,0.19,0.15,0.38,0.26,0.57l0.11-0.03c0.34,0,1,0.63,1.76,1.23C81.07,85.6,82,86.23,82,86.23
		c1.19,1.41,2.5,1.96,3.61,2.02l0.2,0.01c0.48,0,0.92-0.1,1.31-0.25c0.19-0.09,0.46-0.22,0.56-0.3l0.09-0.11l0.01-0.04l-0.01-0.03
		l0.01,0.02l0,0.01l0.36,0.72c0,0,0,0.01,0.01,0.01c2.13,4.13,3.73,6.73,5.07,8.72c0,0,0,0,0,0.01c0.31,0.47,0.69,0.97,0.95,1.35
		l0,0c0.16,0.22,0.31,0.44,0.47,0.65c0.12,0.16,0.25,0.32,0.37,0.47c0.25,0.33,0.47,0.61,0.71,0.89c0.1,0.11,0.19,0.22,0.28,0.33
		c0.07-0.45,0.15-1,0.23-1.6c0.14-0.95,0.3-1.97,0.47-2.98c0.17-1.01,0.36-2.04,0.56-3.01c0.05-0.23,0.09-0.53,0.15-0.68
		c0.05-0.18,0.11-0.35,0.16-0.53c0.12-0.36,0.23-0.72,0.34-1.06c0.46-1.39,0.94-2.68,1.52-3.55c0,0,1.37-1.16,2.58-3.16
		c0.08-0.14,0.17-0.28,0.25-0.42c-0.27-1.09-0.61-2.15-1.05-3.18c-0.15-0.79-0.38-1.56-0.68-2.29c-0.08-0.19-0.16-0.38-0.25-0.57
		c-0.81-0.79-1.63-1.64-2.4-2.54c-0.85-0.98-1.6-2-2.31-3.04c-0.32-0.53-0.63-1.04-0.92-1.54l-0.11-0.19c0,0,0,0,0,0
		c-0.03,0-0.07-0.31-0.13-0.64c-0.13-0.72-0.26-1.75-0.83-3.39c-0.29-0.8-0.74-1.83-1.46-2.92c-0.7-1.08-1.77-2.31-3.1-3.28
		c-1.28-0.96-2.86-1.7-4.24-2.06c-1.3-0.35-2.4-0.42-3.18-0.42c-0.03,0-0.06,0-0.09,0c-1.63,0.04-2.12,0.24-2.15,0.27
		c-0.16,0.07-0.31,0.14-0.46,0.2c-0.3,0.13-0.6,0.25-0.88,0.37c-0.56,0.23-1.1,0.44-1.56,0.6c-0.82,0.28-1.47,0.45-1.87,0.45
		c-0.06,0-0.11,0-0.15-0.01c-1.72-0.44-4.2-1.72-4.2-3.01l0,0c0-0.06,0.01-0.13,0.02-0.19c-0.06-3.75-3.89-4.72-6.06-7.34
		c-0.11-0.19-0.15-0.4-0.15-0.63l0,0c0-0.45,0.14-0.96,0.14-1.41c0-0.23-0.04-0.44-0.14-0.62C62.62,44.64,60.01,42.96,57.12,42.96"
		/>
	<polyline class="st0" points="78.11,83.08 78.1,83.12 78.1,83.13 78.11,83.08 	"/>
	<path class="st0" d="M78.1,83.13L78,83.87l-0.27,1.94l-0.48,3.27c-0.01,0.05-0.02,0.11-0.02,0.16c-0.15,0.99-0.3,1.9-0.44,2.75
		c0.85,0.91,1.56,1.98,2.31,3.02c0.09-0.02,0.2-0.04,0.31-0.06c0.19-0.03,0.4-0.1,0.58-0.12l0.12-0.04l0.04-0.03l0.01-0.01
		c0.13-0.17,0.26-0.34,0.4-0.51l0,0l0.96-1.2l1.06-1.28l0.45-0.54c0,0,0,0,0,0l-0.12,0.15l-0.01,0.01l-0.01,0.01l0,0l-0.01,0.01
		l0.04-0.04l0.07-0.09c0.02-0.02,0.04-0.04,0.05-0.06l0.01-0.01l0.11-0.14l0.29-0.34l0.04-0.05l0.05-0.05l0,0
		c0.01-0.02,0.03-0.03,0.04-0.05c0.06-0.07,0.09-0.11,0.11-0.12l0,0v0l0,0l0,0l0,0l0,0l0,0l0,0c0,0,0,0-0.01,0.01l-0.14,0.17
		l-0.02,0.02l-0.03,0.04l-0.44,0.52l-0.01,0.01c0.19-0.22,0.39-0.42,0.56-0.58c0.39-0.38,0.67-0.58,0.79-0.66c0,0,0,0,0,0
		c0,0,0.08-0.05,0.19-0.14l0,0l0.16-0.11l-0.21,0.12c-0.14,0.07-0.25,0.1-0.3,0.1l-0.02-0.01l0,0l0,0l0,0l0,0l0,0l0,0l0,0l0,0
		c0-0.01,0.02-0.03,0.07-0.06c0.03-0.02,0.07-0.03,0.11-0.05l0.01-0.01l-0.01,0c-0.02,0-0.13,0.02-0.53,0.11
		c-0.44,0.08-1.27,0.26-2.78,0.26c-0.02,0-0.05,0-0.07,0c-0.66,0-1.45-0.04-2.39-0.13l0,0l0,0l0,0l0,0
		c0.94,0.09,1.73,0.13,2.39,0.13c0.02,0,0.05,0,0.07,0c1.52,0,2.35-0.18,2.78-0.26c0.39-0.09,0.5-0.11,0.53-0.11l0.01,0l-0.01,0.01
		c-0.05,0.02-0.08,0.04-0.11,0.05c-0.05,0.03-0.07,0.05-0.07,0.06l0.02,0.01c0.05,0,0.16-0.03,0.3-0.1l0.21-0.12l-0.16,0.11l0,0
		c-0.12,0.08-0.19,0.14-0.19,0.14c0,0,0,0,0,0c-0.12,0.09-0.39,0.29-0.79,0.66c-0.17,0.16-0.37,0.36-0.56,0.58l-0.45,0.54
		l-1.06,1.28l-0.96,1.2l0,0c-0.14,0.17-0.27,0.34-0.4,0.51l0.01-0.01l-0.36,0.46c-0.1,0.13-0.2,0.26-0.29,0.38
		c0.2,0.27,0.41,0.53,0.63,0.79c1.11,1.39,2.55,2.66,4.09,3.74c0.78,0.23,1.58,0.4,2.35,0.47c0.29,0.03,0.57,0.04,0.85,0.04
		c1.24,0,2.35-0.26,3.08-0.84c0,0,0.3,0.19,0.78,0.4c0.49,0.22,1.16,0.47,1.89,0.61c0.47,0.11,0.93,0.17,1.32,0.17
		c0.34,0,0.62-0.05,0.8-0.16c0.04-0.08,0.07-0.16,0.09-0.22c0.05-0.16,0.07-0.27,0.07-0.34c0-0.07-0.01-0.11-0.02-0.13
		c0,0,0-0.01-0.01-0.01l0,0l0,0l0,0l0,0c0,0,0,0,0.01,0.01c0.06,0.12,0.08,0.23,0.08,0.32l0,0c0,0.16-0.08,0.29-0.23,0.37
		c-0.15,0.3-0.43,0.7-0.94,1.2c0.55-0.39,0.97-0.74,1.22-1.01c0.12-0.14,0.21-0.26,0.25-0.34l0.03-0.1l-0.01-0.03l0.15,0.17
		c0,0,0,0,0,0c-0.09-0.11-0.19-0.22-0.28-0.33c-0.24-0.28-0.46-0.57-0.71-0.89c-0.12-0.15-0.25-0.31-0.37-0.47
		c-0.16-0.21-0.32-0.42-0.47-0.65l0,0c-0.26-0.38-0.64-0.88-0.95-1.35c0,0,0,0,0-0.01c-1.34-1.98-2.94-4.58-5.07-8.72
		c0,0,0-0.01-0.01-0.01l-0.36-0.72l-0.01,0.04l-0.09,0.11c-0.1,0.08-0.37,0.21-0.56,0.3c-0.39,0.15-0.83,0.25-1.31,0.25l-0.2-0.01
		c-1.11-0.06-2.42-0.61-3.61-2.02c0,0-0.93-0.63-1.77-1.32c-0.77-0.6-1.43-1.23-1.76-1.23l-0.11,0.03c-0.1-0.19-0.26-0.38-0.26-0.57
		l0,0l0,0l0,0l0,0l0,0l0,0L78.1,83.13"/>
	<path class="st1" d="M94.64,99c0.12,0.16,0.25,0.32,0.37,0.47c0.25,0.33,0.47,0.61,0.71,0.89c0.1,0.11,0.19,0.22,0.28,0.33l0,0
		c-0.09-0.11-0.19-0.22-0.28-0.33l0,0c-0.24-0.28-0.46-0.57-0.71-0.89l0,0l0,0C94.89,99.31,94.76,99.16,94.64,99L94.64,99 M93.22,97
		C93.22,97,93.22,97,93.22,97c0.31,0.47,0.7,0.98,0.95,1.35l0,0l0,0C93.91,97.98,93.53,97.47,93.22,97C93.22,97,93.22,97,93.22,97
		 M82.91,91.37L82.91,91.37l-0.01,0.01l-0.01,0.01l0,0l-0.01,0.01l0.01-0.01l0,0l0.01-0.01L82.91,91.37 M83.03,91.22L83.03,91.22
		l-0.12,0.15L83.03,91.22 M83.04,91.21L83.04,91.21L83.04,91.21L83.04,91.21L83.04,91.21 M83.48,90.69L83.48,90.69l-0.44,0.52
		L83.48,90.69 M83.53,90.64L83.53,90.64l-0.02,0.02l-0.03,0.04l0.03-0.04L83.53,90.64 M83.68,90.46L83.68,90.46c0,0,0,0-0.01,0.01
		l0,0l0,0l-0.14,0.17l0.14-0.17C83.68,90.46,83.68,90.46,83.68,90.46 M84.38,89.98C84.38,89.98,84.38,89.98,84.38,89.98L84.38,89.98
		c-0.11,0.09-0.38,0.28-0.76,0.64c-0.01,0.01-0.02,0.01-0.02,0.02c0,0-0.01,0.01-0.01,0.01c-0.17,0.16-0.36,0.36-0.55,0.57l0,0l0,0
		l-0.45,0.54l-1.06,1.28l-0.96,1.2l0,0l0,0l0.96-1.2l1.06-1.28l0.45-0.54c0.19-0.22,0.39-0.42,0.56-0.58
		C83.99,90.26,84.27,90.06,84.38,89.98C84.38,89.98,84.38,89.98,84.38,89.98 M84.21,89.93L84.21,89.93L84.21,89.93L84.21,89.93
		 M84.4,89.81l-0.01,0.01l0,0c-0.05,0.02-0.08,0.04-0.11,0.05l0,0c0.03-0.02,0.07-0.03,0.11-0.05L84.4,89.81 M84.4,89.81
		C84.39,89.81,84.39,89.81,84.4,89.81c-0.03,0-0.14,0.02-0.53,0.11l0,0c-0.44,0.08-1.27,0.26-2.78,0.26c-0.02,0-0.03,0-0.05,0
		c-0.01,0-0.02,0-0.02,0l0,0c0.02,0,0.05,0,0.07,0c1.52,0,2.35-0.18,2.78-0.26C84.26,89.83,84.37,89.81,84.4,89.81L84.4,89.81
		L84.4,89.81 M84.74,89.73l-0.21,0.12c-0.14,0.07-0.25,0.1-0.3,0.1l-0.02-0.01l0,0l0.02,0.01c0.05,0,0.16-0.03,0.3-0.1L84.74,89.73
		 M84.74,89.73L84.74,89.73l-0.16,0.11l0,0l0,0L84.74,89.73 M87.78,87.55L87.78,87.55l0.36,0.72c0,0,0,0.01,0.01,0.01
		c0,0,0-0.01-0.01-0.01L87.78,87.55 M78.1,83.15L78.1,83.15c0,0.19,0.15,0.38,0.26,0.57l0.11-0.03c0.34,0,1,0.63,1.76,1.23
		C81.07,85.6,82,86.23,82,86.23c1.19,1.41,2.5,1.96,3.61,2.02l0.2,0.01c0.48,0,0.92-0.1,1.31-0.25c0.19-0.09,0.46-0.22,0.56-0.3
		l0.09-0.11l0.01-0.04l-0.01,0.04l-0.09,0.11c0,0,0,0,0,0c-0.1,0.08-0.37,0.21-0.56,0.3l0,0c-0.39,0.15-0.83,0.25-1.31,0.25
		l-0.2-0.01c-1.11-0.06-2.42-0.61-3.61-2.02c0,0-0.93-0.63-1.77-1.32c-0.77-0.6-1.43-1.23-1.76-1.23l-0.11,0.03
		C78.25,83.53,78.1,83.33,78.1,83.15 M78.1,83.13L78,83.87l-0.27,1.94l-0.48,3.27c-0.01,0.05-0.02,0.11-0.02,0.16
		c0.01-0.05,0.02-0.11,0.02-0.16l0.48-3.27L78,83.87L78.1,83.13"/>
	<path class="st0" d="M49.58,86.87c0.11,0.13,0.22,0.26,0.33,0.38c1.8,1.96,3.81,3.66,5.78,5.12c-1.62-1.4-3.37-3.07-5.21-5.09
		C50.49,87.28,50.16,87.11,49.58,86.87"/>
	<polyline class="st0" points="87.76,87.53 87.78,87.55 87.78,87.55 87.76,87.53 	"/>
	<path class="st0" d="M72.56,88.5c0.03,0.21,0.05,0.46,0.05,0.73l0,0c0,0.38-0.03,0.79-0.1,1.19c-0.14,0.89-0.43,1.67-0.66,1.83
		c0.44,0.37,0.88,0.76,1.34,1.17c0.63-0.31,0.69-1.36,0.85-2.12c-0.01-0.54-0.02-1.09-0.05-1.64C73.5,89.26,73.02,88.87,72.56,88.5"
		/>
	<polyline class="st0" points="83.68,90.46 83.68,90.46 83.68,90.46 83.68,90.46 83.68,90.46 	"/>
	<path class="st0" d="M83.67,90.47c-0.01,0.02-0.05,0.05-0.1,0.12c-0.01,0.01-0.03,0.03-0.04,0.05l0,0L83.67,90.47"/>
	<polyline class="st0" points="83.53,90.64 83.48,90.69 83.51,90.66 83.53,90.64 	"/>
	<polyline class="st0" points="83.48,90.69 83.44,90.74 83.15,91.08 83.04,91.21 83.48,90.69 	"/>
	<polyline class="st0" points="83.04,91.21 83.03,91.22 83.03,91.22 83.04,91.21 	"/>
	<path class="st0" d="M83.03,91.22c-0.02,0.02-0.04,0.04-0.05,0.06l-0.07,0.09L83.03,91.22"/>
	<polyline class="st0" points="82.91,91.37 82.87,91.41 82.88,91.4 82.88,91.39 82.9,91.38 82.91,91.37 	"/>
	<path class="st0" d="M71.84,92.24c0,0.01,0,0.01,0,0.02l0,0c0,0,0.01,0,0.01-0.01C71.85,92.25,71.84,92.24,71.84,92.24"/>
	<path class="st0" d="M34,93.57c-0.24,0.93-0.41,1.96-0.5,3.09c0.25-0.62,0.53-1.3,0.86-2.04C34.23,94.29,34.11,93.94,34,93.57"/>
	<path class="st0" d="M73.66,105.12l0,0.01c0,0.01-0.01,0.01-0.01,0.02C73.65,105.14,73.65,105.13,73.66,105.12L73.66,105.12"/>
	<path class="st0" d="M73.66,105.12c0,0.01-0.01,0.02-0.01,0.03c-0.01,0.03-0.02,0.06-0.04,0.1l0.02-0.04L73.66,105.12"/>
	<path class="st0" d="M73.65,105.13l-0.01,0.03l-0.01,0.02l-0.03,0.07l-0.01,0.04l0.01-0.03c0.01-0.03,0.02-0.06,0.04-0.1
		C73.65,105.15,73.65,105.14,73.65,105.13"/>
	<polyline class="st0" points="73.64,105.15 73.64,105.15 73.64,105.15 73.64,105.15 73.64,105.15 	"/>
	<path class="st0" d="M73.64,105.15c-0.01,0.04-0.03,0.07-0.04,0.1l0-0.01C73.62,105.22,73.63,105.19,73.64,105.15"/>
	<path class="st0" d="M44.5,105.78c3.35,3.93,7.27,7.03,11.39,9.21c1.67,0.89,3.37,1.62,5.09,2.2c-1.58-0.86-3.18-1.75-4.71-2.76
		c-3.39-2.16-6.67-4.61-9.92-7.17C45.74,106.77,45.12,106.28,44.5,105.78"/>
	<path class="st2" d="M112.98,66.3c0.01,0.05,0.01,0.1,0.02,0.16c0.34,0.33,0.66,0.61,0.94,0.74c0.86,0.36,1.64,1.17,2.36,2.03
		l0.08,0.13c2.13,3.52,3.09,7.3,3.55,11.01c0.22,1.82,0.32,3.66,0.32,5.49l0,0c0,1.9-0.11,3.8-0.3,5.66c0,0.29,0,0.57,0,0.84
		c0,1.41,0.01,2.71,0.04,3.95c0,0.08,0.01,0.17,0.01,0.25c0.04,0.11,0.09,0.21,0.13,0.32c0-0.14-0.01-0.28-0.01-0.42
		c-0.03-1.16-0.04-2.38-0.04-3.69l0,0c0-0.36,0-0.72,0-1.1c0.05-0.39,0.09-0.87,0.13-1.35c0.03-0.47,0.06-0.94,0.1-1.41
		c0.05-0.94,0.08-1.88,0.09-2.82c0-0.06,0-0.12,0-0.18c0-1.82-0.1-3.64-0.32-5.46c-0.46-3.75-1.43-7.57-3.57-11.13l-0.02-0.03
		c-0.71-0.85-1.47-1.66-2.33-2.02C113.81,67.13,113.4,66.74,112.98,66.3"/>
	<path class="st2" d="M31.91,100.81c0,0.01,0,0.01,0,0.01c1.19,1.93,2.08,4.18,3.09,6.32c1.05,2.12,2.23,4.13,3.9,5.34
		c1.37,1.31,3.29,3.36,5.62,5.56c2.34,2.2,5.16,4.53,8.2,6.49c1.5,0.99,3.07,1.88,4.79,2.74c1.71,0.84,3.54,1.59,5.39,2.13
		c1.88,0.56,3.64,0.83,5.04,0.93c0.66,0.05,1.26,0.07,1.8,0.07c0.62,0,1.16-0.03,1.63-0.06c3.23-0.3,5.79-0.75,8.18-1.17
		c2.33-0.44,4.43-0.83,6.45-1.21c3.99-0.74,7.64-1.19,12.28-1.81c1.77-0.15,3.44-0.51,5-1.05c1.55-0.52,3.14-1.25,4.72-2.19
		c1.59-0.95,3.2-2.08,4.84-3.58c1.63-1.48,3.32-3.35,4.77-5.75c1.5-2.61,2.12-5.2,2.41-7.3c0.15-1.14,0.22-2.19,0.24-3.15
		c-0.04,0-0.08,0-0.12,0c-0.02,0.89-0.08,1.86-0.21,2.91c-0.27,2.08-0.85,4.64-2.3,7.25c-1.41,2.42-3.08,4.3-4.7,5.81
		c-1.63,1.5-3.24,2.67-4.82,3.62c-1.58,0.95-3.16,1.69-4.72,2.22c-1.55,0.55-3.22,0.91-4.99,1.06c-4.63,0.64-8.27,1.1-12.25,1.85
		c-2.01,0.38-4.11,0.78-6.43,1.23c-2.38,0.43-4.95,0.89-8.15,1.21c-0.52,0.04-1.14,0.07-1.87,0.07c-1.66,0-3.85-0.18-6.53-0.93
		c-3.75-1.06-7.28-2.92-10.22-4.81c-3.05-1.94-5.87-4.25-8.22-6.43c-2.35-2.18-4.26-4.22-5.64-5.52c-1.68-1.2-2.86-3.2-3.91-5.31
		c-1.04-2.13-1.92-4.38-3.13-6.3C32.01,100.96,31.96,100.89,31.91,100.81"/>
	<path class="st3" d="M113,66.46c0.02,0.2,0.04,0.38,0.05,0.55l0.04,0.58l0.02,0.49l0.02,0.85l-0.01,0.61l-0.03,0.03l-0.13,0.13
		c-0.18,0.17-0.37,0.34-0.57,0.52c0.18,0.31,0.37,0.66,0.57,1.05c0.68,1.32,1.39,3.09,1.92,5.19c0.54,2.1,0.9,4.52,1.12,7.1
		c0.06,0.76,0.11,1.53,0.15,2.31c0.05,0.32,0.09,0.65,0.14,0.98c0.06,0.37,0.13,0.76,0.19,1.15l0,0l0,0l0,0l0,0c0,0,0,0.01,0,0.02
		c0,0.14,0.21,0.61,0.33,0.94l0.46,1.11c0.97,2.26,1.91,4.48,2.72,6.5c0-0.08-0.01-0.17-0.01-0.25c-0.03-1.24-0.04-2.54-0.04-3.95
		l0,0c0-0.28,0-0.56,0-0.84c0.19-1.86,0.3-3.76,0.3-5.66c0-1.83-0.1-3.67-0.32-5.49c-0.46-3.71-1.42-7.49-3.55-11.01l-0.08-0.13
		c-0.72-0.86-1.5-1.67-2.36-2.03C113.66,67.07,113.33,66.79,113,66.46"/>
	<path class="st3" d="M100.3,77.66c0.09,0.19,0.17,0.38,0.25,0.57c0.29,0.73,0.52,1.5,0.68,2.29c0.44,1.03,0.77,2.1,1.05,3.18
		c0.52-0.93,0.98-2.03,1.21-3.19c-0.15-0.13-0.31-0.26-0.48-0.4C102.18,79.41,101.25,78.58,100.3,77.66"/>
	<path class="st3" d="M34.35,94.62c-0.32,0.74-0.61,1.42-0.86,2.04c-0.05,0.63-0.08,1.29-0.08,1.98c0,0.11,0,0.23,0,0.34l0,0l0,0
		l0,0l0,0c0,0-0.21-0.25-0.56-0.72c-0.6,1.59-0.91,2.43-0.95,2.54c0.05,0.07,0.1,0.15,0.15,0.22c1.21,1.92,2.09,4.17,3.13,6.3
		c1.05,2.11,2.23,4.11,3.91,5.31c1.38,1.29,3.29,3.33,5.64,5.52c2.34,2.19,5.17,4.49,8.22,6.43c2.95,1.9,6.48,3.76,10.22,4.81
		c2.68,0.75,4.87,0.93,6.53,0.93c0.72,0,1.35-0.03,1.87-0.07c3.2-0.32,5.77-0.77,8.15-1.21c2.32-0.44,4.42-0.84,6.43-1.23
		c3.98-0.75,7.62-1.21,12.25-1.85c1.77-0.16,3.43-0.51,4.99-1.06c1.56-0.53,3.14-1.27,4.72-2.22c1.58-0.95,3.19-2.11,4.82-3.62
		c1.62-1.5,3.29-3.38,4.7-5.81c1.45-2.61,2.03-5.16,2.3-7.25c0.13-1.05,0.19-2.01,0.21-2.91c-0.24,0-0.49,0.01-0.74,0.01
		c0.03,0.08,0.07,0.15,0.1,0.23l0.17,0.39l0.08,0.19l-0.02,0.04l-0.07,0l-0.57-0.03c-0.38-0.02-0.76-0.04-1.14-0.07
		c0.02,0.11,0.03,0.22,0.03,0.31l0,0c0,0.32-0.12,0.51-0.43,0.51c-0.13,0-0.3-0.04-0.5-0.11c-0.63,0.03-1.27,0.07-1.92,0.11
		c-0.12,0.65-0.27,1.3-0.46,1.95c-0.37,1.3-0.89,2.57-1.55,3.69c-0.67,1.13-1.44,2.06-2.22,2.81c-1.56,1.5-3.07,2.33-4.21,2.82
		c-0.97,0.41-1.7,0.58-2.12,0.58c-0.08,0-0.15-0.01-0.2-0.02c0,0-0.77,0.29-2.14,0.73c-1.37,0.43-3.32,0.97-5.73,1.53
		c-4.76,1.12-11.28,2.02-18.37,2.02c-0.06,0-0.13,0-0.19,0c-1.79-0.01-3.63-0.04-5.48-0.16c-1.85-0.13-3.74-0.36-5.6-0.93
		c-1.86-0.56-3.67-1.39-5.42-2.3c-0.15-0.08-0.3-0.16-0.45-0.24c-1.71-0.58-3.42-1.31-5.09-2.2c-4.12-2.18-8.04-5.28-11.39-9.21
		c-2.62-2.1-5.25-4.24-7.98-6.29c0,0-1.03-1.74-2.08-4.61C34.41,94.79,34.38,94.71,34.35,94.62"/>
	<path class="st4" d="M112.39,70.22c-0.01,0.01-0.01,0.01-0.02,0.02c-0.44,0.37-0.82,0.8-1.36,1.24c-0.51,0.44-1.02,0.94-1.68,1.43
		c-0.56,0.6-0.75,1.09-0.75,1.66c0.25,0.09,0.85,0.57,1.11,0.65c0.1,0.24,0.19,0.49,0.29,0.74c0.51,0.07,1.24,0.25,1.96,0.64
		c1.4,0.75,2.75,2.1,3.71,5.61c0.05,0.45,0.2,1.38,0.33,2.6c0.05,0.34,0.1,0.69,0.15,1.06c-0.04-0.78-0.09-1.55-0.15-2.31
		c-0.22-2.58-0.58-5-1.12-7.1c-0.53-2.1-1.24-3.87-1.92-5.19C112.77,70.89,112.58,70.54,112.39,70.22"/>
	<path class="st4" d="M103.48,80.52c-0.27,1.33-0.84,2.6-1.46,3.61c-1.22,2-2.58,3.16-2.58,3.16c-0.58,0.86-1.06,2.16-1.52,3.55
		c-0.11,0.34-0.22,0.7-0.34,1.06c-0.05,0.17-0.11,0.35-0.16,0.53c-0.06,0.16-0.1,0.45-0.15,0.68c-0.2,0.97-0.38,2-0.56,3.01
		c-0.17,1.01-0.33,2.03-0.47,2.98c-0.08,0.61-0.16,1.15-0.23,1.6c0.12,0.14,0.24,0.28,0.35,0.41c1.45,1.61,2.06,2.05,2.17,2.14
		c3.67-0.07,7.08-0.08,10.27-0.08c1.06,0,2.1,0,3.11,0c0.27,0,0.55,0,0.82,0c-0.6-0.99-1.33-2.2-2.08-3.52
		c-0.91-1.64-1.9-3.42-2.63-5.18l-0.13-0.33c-0.05-0.12-0.09-0.22-0.1-0.28c-0.04-0.14-0.07-0.29-0.11-0.43
		c-0.06-0.28-0.12-0.56-0.16-0.82c-0.04-0.33-0.06-0.65-0.06-0.96l0,0c0-0.18,0.01-0.36,0.03-0.53c0.32-2.06,0.89-3.99,0.89-5.78
		c0-0.68-0.08-1.34-0.3-1.97c-0.43-0.48-1.76-0.2-2.16-0.69c-0.08-0.16-0.41-0.47-0.93-0.91C104.56,81.43,104.06,81,103.48,80.52"/>
	<path class="st4" d="M42.92,85.16c-1.97,0-4.18,0.7-6.07,2.82c-0.97,1.1-1.83,2.49-2.45,4.28c-0.15,0.42-0.28,0.86-0.4,1.32
		c0.12,0.36,0.23,0.71,0.36,1.05c0.03,0.09,0.06,0.17,0.09,0.26c1.04,2.87,2.08,4.61,2.08,4.61c2.72,2.05,5.36,4.19,7.98,6.29
		c0.62,0.49,1.24,0.99,1.85,1.48c3.25,2.56,6.52,5.01,9.92,7.17c1.53,1,3.13,1.9,4.71,2.76c0.15,0.08,0.3,0.16,0.45,0.24
		c1.75,0.91,3.56,1.74,5.42,2.3c1.87,0.57,3.75,0.81,5.6,0.93c1.85,0.12,3.69,0.15,5.48,0.16c0.06,0,0.13,0,0.19,0
		c7.09,0,13.6-0.91,18.37-2.02c2.4-0.55,4.36-1.09,5.73-1.53c1.37-0.43,2.14-0.73,2.14-0.73c0.06,0.01,0.13,0.02,0.2,0.02
		c0.43,0,1.15-0.17,2.12-0.58c1.14-0.49,2.65-1.32,4.21-2.82c0.77-0.75,1.55-1.68,2.22-2.81c0.66-1.13,1.19-2.4,1.55-3.69
		c0.19-0.65,0.34-1.3,0.46-1.95c-0.47,0.03-0.94,0.06-1.41,0.09c0.29,0.49,0.46,0.81,0.46,0.89l0,0c0,0,0,0.01,0,0.01
		c-0.04,0-0.09,0-0.13,0c-0.97,0-1.93,0.12-2.89,0.24c-0.96,0.12-1.92,0.24-2.91,0.24c-1.04,0-2.11-0.13-3.22-0.54
		c-0.77,0.09-1.55,0.2-2.35,0.31c-0.42,0.42-0.74,1.16-0.74,1.61c0,0.1,0.02,0.19,0.05,0.25c0.04,0.03,0.07,0.07,0.11,0.1l0,0l0,0
		l0,0l0,0c-0.05-0.02-0.09-0.06-0.11-0.1c-0.18-0.16-0.3-0.23-0.36-0.23c-0.04,0-0.06,0.03-0.06,0.08c0,0.15,0.15,0.51,0.41,1
		c0.13,0.25,0.29,0.53,0.47,0.83c0.09,0.15,0.18,0.31,0.28,0.48l0,0l0,0l0,0l0,0c-0.15,0.04-0.38,0.04-0.57,0.06
		c-0.8,0.07-1.68,0.12-2.54,0.15c-0.8,0.04-1.58,0.06-2.29,0.06c-1.65,0-2.9-0.09-2.9-0.22l0,0c0-0.06,0.24-0.12,0.79-0.18
		c-0.62,0.06-1.16,0.09-1.65,0.09c-1.61,0-2.61-0.31-3.53-0.86c-0.6-0.34-1.18-0.79-1.89-1.25c-0.18-0.12-0.37-0.24-0.56-0.36
		l-0.15-0.09l-0.08-0.04l-0.04-0.02l-0.02-0.01l-0.12,0.06l-1.17,0.6l-0.59,0.3l-0.08,0.03l-0.02-0.01l-0.05-0.02
		c-0.38-0.12-0.79-0.24-1.24-0.35c-1.46,0.47-2.97,0.82-4.46,1.04c-0.95,0.14-1.88,0.22-2.79,0.25c-0.2,0-0.41,0.01-0.62,0.01
		c-0.69,0-1.36-0.02-1.89-0.08c-0.69-0.07-1.18-0.18-1.51-0.31c-0.34-0.14-0.46-0.27-0.59-0.46c-0.21-0.29-0.37-0.71-0.37-1.18l0,0
		c0-0.15,0.02-0.31,0.05-0.48c0,0-0.04-0.14-0.15-0.38c-0.11-0.24-0.3-0.59-0.63-1.05c-0.16-0.23-0.33-0.47-0.53-0.72
		c-0.95-0.64-1.99-1.52-2.79-2.45c-0.41-0.46-0.77-0.91-1.06-1.29c-1.33-1.06-3.02-2.27-5.15-3.83c-1.66-1.23-3.64-2.68-5.87-4.61
		c-1.97-1.45-3.99-3.16-5.78-5.12c-0.11-0.13-0.22-0.25-0.33-0.38c-0.35-0.15-0.78-0.33-1.29-0.52c-1.35-0.5-3.16-1.14-5.19-1.18
		C43.04,85.16,42.98,85.16,42.92,85.16"/>
	<path class="st4" d="M95.85,100.52l0.01,0.03l-0.03,0.1c-0.04,0.08-0.13,0.2-0.25,0.34c-0.25,0.27-0.67,0.62-1.22,1.01
		c-0.11,0.11-0.24,0.23-0.37,0.35c-0.4,0.35-0.84,0.7-1.33,1.07c0.01-0.01,0.03-0.02,0.04-0.03l1.99-1.15l0.49-0.28l0.25-0.14
		l0.12-0.07l0.02,0l0.04,0.07c0.09,0.2,0.16,0.4,0.22,0.61c0.06,0.47,0.9,0.74,1.71,0.83c0.33-0.01,0.66-0.01,0.98-0.02
		c-0.1-0.09-0.72-0.53-2.17-2.14c-0.11-0.13-0.23-0.27-0.35-0.41c0,0,0,0,0,0L95.85,100.52"/>
	<path class="st5" d="M56.83,57.15c-2.07,0-4.16,0.2-6.02,0.58c-1.75,0.36-3.26,0.76-4.33,1.14c-1.07,0.37-1.7,0.61-1.7,0.61
		c-2.08,0.21-4.11,0.78-6.29,2.18c-2.17,1.39-4.46,3.54-6.47,6.58c-1.01,1.53-1.88,3.25-2.53,4.89c-0.66,1.67-1.11,3.29-1.41,4.84
		c-0.33,1.75-0.47,3.37-0.47,4.86c0,1.16,0.08,2.24,0.21,3.23c0.3,2.28,0.84,4.12,1.46,5.66c0.59,1.56,1.28,2.89,1.89,3.96
		c1.25,2.14,2.23,3.3,2.23,3.3c0-0.12,0-0.23,0-0.34l0,0c0-0.69,0.03-1.35,0.08-1.98c0.09-1.13,0.26-2.16,0.5-3.09
		c0.12-0.46,0.25-0.9,0.4-1.32c0.63-1.79,1.48-3.18,2.45-4.28c1.89-2.12,4.1-2.82,6.07-2.82c0.06,0,0.13,0,0.19,0
		c2.03,0.04,3.84,0.69,5.19,1.18c0.5,0.19,0.94,0.37,1.29,0.52c0.57,0.25,0.91,0.41,0.91,0.41c1.84,2.02,3.59,3.68,5.21,5.09
		c2.22,1.93,4.21,3.37,5.87,4.61c2.13,1.56,3.82,2.77,5.15,3.83c0.47,0.37,0.89,0.73,1.28,1.08c1.11,1,1.95,1.89,2.56,2.66
		c0.2,0.25,0.37,0.49,0.53,0.72c0.33,0.46,0.52,0.81,0.63,1.05c0.11,0.24,0.15,0.38,0.15,0.38l0,0l0,0l0,0l0,0
		c-0.04,0.16-0.05,0.32-0.05,0.48c0,0.47,0.16,0.89,0.37,1.18c0.14,0.19,0.25,0.32,0.59,0.46c0.33,0.13,0.82,0.24,1.51,0.31
		c0.52,0.06,1.2,0.08,1.89,0.08c0.21,0,0.41,0,0.62-0.01c0.9-0.03,1.84-0.11,2.79-0.25c1.48-0.22,3-0.57,4.46-1.04
		c-0.14-0.04-0.29-0.08-0.44-0.11c-1.79-0.49-4.13-0.98-6.07-1.87c-1.27-0.57-2.37-1.23-3.27-2.12c-0.25,0.51-0.46,1.01-0.6,1.35
		l-0.03,0.08l-0.02,0.04c0,0,0,0.01,0,0.01l0,0l0,0l0,0l0,0l0,0l0,0l0,0l0,0l0,0l0,0l0,0l0,0l0,0l0,0c0,0,0,0,0-0.01l-0.02,0.05
		l0.02-0.05l0.02-0.06l0.01-0.02l0.01-0.02l0.01-0.03c0.17-0.44,0.34-0.92,0.5-1.44c-0.45-0.46-0.85-0.98-1.2-1.57
		c-1.84-2.67-3.51-6.12-4.81-6.3c-0.91-0.28-1.46-0.63-1.98-1.53c-0.58-1.43-0.91-3.21-0.99-4.79c-0.01-0.27-0.02-0.53-0.02-0.78
		l0,0c0-0.03,0-0.06,0-0.09l0,0l-0.39-0.11l-0.73-0.22c-0.67-0.22-1.21-0.44-1.63-0.64c-0.23-0.26-0.4-0.6-0.52-0.98
		c-0.13-0.43-0.19-0.91-0.19-1.42l0,0c0-0.02,0-0.04,0-0.06c0.02-0.53,0.07-1.09,0.14-1.66c0.31-2.24,1.13-4.53,2.15-6.59
		c1.03-2.06,2.22-3.91,3.27-5.45c1.07-1.53,2-2.76,2.64-3.61c0.65-0.85,1-1.31,1-1.31c0.61-0.8,0.89-1.58,0.89-2.33
		c0-1.05-0.54-2.04-1.5-2.97c-1.64-1.58-4.56-2.93-8.15-3.62C60.49,57.31,58.66,57.15,56.83,57.15"/>
	<path class="st5" d="M80.18,94.73l-0.01,0.01c-0.22,0.28-0.44,0.56-0.64,0.83c0,0,0,0,0,0c0.1-0.13,0.19-0.25,0.29-0.38
		L80.18,94.73"/>
	<path class="st5" d="M80.16,94.74L80.16,94.74l-0.05,0.04l-0.12,0.04c-0.18,0.02-0.39,0.09-0.58,0.12
		C79.3,94.96,79.2,94.98,79.1,95c0.14,0.19,0.28,0.38,0.42,0.57C79.73,95.3,79.94,95.03,80.16,94.74"/>
	<path class="st5" d="M90.52,99.78c-0.72,0.57-1.83,0.84-3.08,0.84c-0.28,0-0.56-0.01-0.85-0.04c-0.77-0.07-1.57-0.23-2.35-0.47
		c0.79,0.56,1.61,1.07,2.42,1.52c1.18,0.66,2.3,1.19,3.24,1.68c0.47,0.25,0.9,0.49,1.27,0.74c0.01,0,0.01,0,0.02,0
		c0.04,0,0.05,0.02,0.05,0.05c0.01,0.02,0.01,0.05,0.05,0.05c0.1,0,0.4-0.14,1.38-0.73c0.49-0.37,0.93-0.72,1.33-1.07
		c0.14-0.12,0.26-0.24,0.37-0.35c0.51-0.5,0.8-0.91,0.94-1.2c-0.18,0.11-0.47,0.16-0.8,0.16c-0.38,0-0.84-0.06-1.32-0.17
		c-0.74-0.13-1.41-0.38-1.89-0.61C90.82,99.96,90.52,99.78,90.52,99.78"/>
	<path class="st5" d="M95.45,100.09c0,0,0,0.01,0.01,0.01C95.45,100.09,95.45,100.09,95.45,100.09"/>
	<path class="st5" d="M95.46,100.1c0.01,0.02,0.02,0.06,0.02,0.13l0,0c0,0.08-0.02,0.19-0.07,0.34c-0.02,0.07-0.05,0.14-0.09,0.22
		c0.14-0.08,0.23-0.21,0.23-0.37C95.54,100.33,95.52,100.22,95.46,100.1"/>
	<path class="st5" d="M74.16,103.68c-0.17,0.52-0.34,1-0.5,1.44l0-0.01l-0.01,0.01l0,0c0.13-0.34,0.35-0.84,0.6-1.35
		C74.22,103.74,74.19,103.71,74.16,103.68"/>
	<polyline class="st5" points="73.61,105.25 73.61,105.25 73.6,105.26 73.6,105.26 73.61,105.25 	"/>
	<path class="st6" d="M54.28,36.88c-0.8,0.07-1.69,0.16-2.66,0.29c-1.01,0.16-2.1,0.37-3.21,0.64c-1.14,0.29-2.36,0.69-3.54,1.15
		c-1.21,0.49-2.44,1.11-3.58,1.79c-1.75,1.17-3.8,2.4-5.78,3.85c-0.98,0.69-1.93,1.46-2.8,2.22c-0.87,0.77-1.62,1.49-2.3,2.3
		c-2.34,3.06-4.73,6.89-6.71,11.52c-0.98,2.29-1.88,4.87-2.45,7.25c-0.58,2.39-0.91,4.66-1.06,6.73c0.77-2.42,1.81-4.98,3.19-7.56
		c0.54-1.02,1.13-2.01,1.73-2.95c0.95-1.48,1.95-2.84,2.93-4.04c3.28-4,6.38-6.6,9.14-8.63c2.44-2.33,5.72-4.49,9.05-5.9
		c3.34-1.45,6.77-2.29,9.64-2.45c0.42-0.07,0.84-0.11,1.25-0.11c2.89,0,5.5,1.68,6.95,3.35c0.11,0.19,0.14,0.4,0.14,0.62l0,0
		c0,0.45-0.14,0.96-0.14,1.41c0,0.23,0.04,0.44,0.15,0.63c2.17,2.61,6,3.59,6.06,7.34l0,0l0,0l0,0l0,0
		c-0.01,0.06-0.02,0.13-0.02,0.19c0,1.29,2.47,2.57,4.2,3.01c0.05,0.01,0.1,0.01,0.15,0.01c0.4,0,1.05-0.17,1.87-0.45
		c0.46-0.16,0.99-0.37,1.56-0.6c0.28-0.12,0.57-0.24,0.88-0.37c0.15-0.07,0.31-0.13,0.46-0.2c0.03-0.03,0.52-0.23,2.15-0.27
		c0.03,0,0.06,0,0.09,0c0.78,0,1.88,0.08,3.18,0.42c1.38,0.36,2.97,1.09,4.24,2.06c1.32,0.97,2.39,2.2,3.1,3.28
		c0.72,1.09,1.17,2.12,1.46,2.92c0.57,1.64,0.71,2.67,0.83,3.39c0.05,0.33,0.09,0.64,0.13,0.64c0,0,0,0,0,0l0.11,0.19
		c0.3,0.49,0.61,1.01,0.92,1.54c0.71,1.04,1.45,2.06,2.31,3.04c0.77,0.9,1.59,1.75,2.4,2.54c0.95,0.92,1.88,1.75,2.71,2.46
		c0.78,0.65,1.45,1.22,1.96,1.65c0.52,0.44,0.85,0.75,0.93,0.91c0.41,0.49,1.74,0.22,2.16,0.69c0.21,0.64,0.3,1.29,0.3,1.97l0,0
		c0,1.79-0.58,3.72-0.89,5.78c-0.02,0.17-0.03,0.35-0.03,0.53c0,0.3,0.02,0.62,0.06,0.96c0.04,0.27,0.09,0.54,0.16,0.82
		c0.03,0.14,0.07,0.28,0.11,0.43c0.01,0.06,0.05,0.16,0.1,0.28l0.13,0.33c0.74,1.77,1.73,3.54,2.63,5.18
		c0.75,1.32,1.48,2.53,2.08,3.52c0.73,0,1.44,0,2.14,0c0.99,0,1.96,0,2.91-0.01c-0.23-0.75-0.6-1.68-0.85-2.56
		c-0.8-2.32-1.85-5.13-2.99-8.07c-0.25-0.72-0.59-1.54-0.78-2.19c-0.06-0.43-0.13-0.86-0.19-1.28c-0.1-0.81-0.2-1.6-0.29-2.32
		c-0.14-1.4-0.3-2.51-0.4-3.11c-0.06-0.41-0.15-0.8-0.27-1.17c-0.1-0.37-0.22-0.71-0.36-1.05c-0.3-0.68-0.6-1.29-0.94-1.89
		c-0.36-0.61-0.61-1.17-0.9-1.76c-0.24-0.58-0.4-1.16-0.46-1.77c0,0,0,0,0,0l0,0c0-0.03,0.08-0.04,0.23-0.04
		c0.11,0,0.25,0.01,0.43,0.03c-0.09-0.25-0.19-0.5-0.29-0.74c-0.26-0.08-0.87-0.57-1.11-0.65l0,0l0,0l0,0l0,0
		c0-0.57,0.19-1.06,0.75-1.66c0.65-0.5,1.17-0.99,1.68-1.43c0.54-0.43,0.92-0.87,1.36-1.24c0.22-0.19,0.41-0.37,0.59-0.54l0.13-0.13
		l0.03-0.03l0.01-0.61l-0.02-0.85l-0.02-0.49l-0.04-0.58c-0.01-0.17-0.03-0.36-0.05-0.55c-0.01-0.05-0.01-0.1-0.02-0.16
		c-0.07-0.64-0.17-1.38-0.31-2.17c-0.23-1.23-0.51-2.53-1.08-4.26c-0.52-1.59-1.38-3.71-2.61-5.85c-0.34-0.59-0.7-1.17-1.07-1.74
		l-0.58-0.85l-0.68-0.92c-0.47-0.61-0.94-1.19-1.46-1.77c-0.55-0.61-1.12-1.21-1.71-1.79c-1.16-1.13-2.54-2.27-3.93-3.25
		c-1.41-0.98-2.87-1.84-4.44-2.61c-3.13-1.52-6.24-2.36-8.68-2.78c-2.47-0.42-4.4-0.48-5.84-0.49c-1.43,0-2.41,0.08-2.95,0.11
		c-0.21,0.01-0.39,0.02-0.46,0.02c-0.02,0-0.03,0-0.04,0l-0.12-0.02l-0.24-0.04l-0.48-0.07c-0.63-0.1-1.28-0.19-1.98-0.26
		c-2.74-0.31-5.88-0.5-9.29-0.6C61.64,36.89,57.95,36.9,54.28,36.88"/>
	<path class="st6" d="M66.26,81.54c-0.18,0.12-0.26,0.29-0.32,0.44c-0.18,0.4-0.27,0.76-0.31,1.07c0,0.08-0.01,0.16-0.01,0.24
		c0,0.15,0.01,0.31,0.02,0.48c0.07-0.12,0.13-0.24,0.22-0.37c0.07-0.07,0.19-0.18,0.42-0.18c0.12,0,0.27,0.04,0.46,0.14l0.09,0.07
		c0.1,0.03,0.21,0.07,0.29,0.11c0.16,0.07,0.3,0.14,0.42,0.22c-0.33-0.42-0.6-0.82-0.82-1.22C66.53,82.18,66.38,81.86,66.26,81.54"
		/>
	<path class="st6" d="M67.55,83.74c0.37,0.48,0.82,0.97,1.33,1.49c-0.07-0.09-0.13-0.17-0.2-0.26c-0.18-0.25-0.36-0.49-0.53-0.72
		c-0.12-0.14-0.29-0.31-0.55-0.48C67.58,83.76,67.56,83.75,67.55,83.74"/>
	<path class="st6" d="M68.87,85.23c0.29,0.37,0.58,0.75,0.88,1.13c0.72,0.93,1.38,1.92,1.68,3c0.42,1.09,0.23,2.08,0.4,2.88
		c0.01,0,0.01,0.01,0.02,0.01c0.22-0.15,0.52-0.94,0.66-1.83c0.06-0.39,0.1-0.81,0.1-1.19c0-0.27-0.02-0.52-0.05-0.73
		C71.09,87.3,69.86,86.22,68.87,85.23"/>
	<path class="st6" d="M65.64,85.81c-0.03,0.03-0.06,0.07-0.08,0.12c-0.23,0.5-0.38,1.5-0.39,2.7c0,0.03,0,0.06,0,0.09
		c0,0.25,0.01,0.52,0.02,0.78c0.08,1.58,0.41,3.36,0.99,4.79c0.52,0.9,1.07,1.25,1.98,1.53c1.29,0.17,2.97,3.62,4.81,6.3
		c0.35,0.6,0.75,1.11,1.2,1.57c0.08-0.24,0.15-0.48,0.23-0.74c0-0.01,0-0.01,0.01-0.02c0.39-1.28,0.75-2.72,1.07-4.12
		c-0.31-0.28-0.61-0.56-0.9-0.83c-1.31-1.19-2.49-2.33-3.56-3.42c-2.14-2.19-3.76-4.27-4.65-6.35
		C66.01,87.28,65.77,86.51,65.64,85.81"/>
	<path class="st6" d="M71.86,92.25c0,0-0.01,0.01-0.01,0.01c0.48,0.33,0.84,1.24,1.18,1.24c0.06,0,0.11-0.02,0.17-0.08
		c0,0,0.01,0,0.01,0C72.74,93.01,72.29,92.62,71.86,92.25 M71.86,92.25L71.86,92.25L71.86,92.25L71.86,92.25L71.86,92.25"/>
	<path class="st6" d="M75.47,98.81c-0.32,1.4-0.68,2.84-1.07,4.12c0,0.01,0,0.01-0.01,0.02c-0.08,0.25-0.15,0.5-0.23,0.74
		c0.03,0.03,0.06,0.06,0.09,0.09c0.01-0.03,0.02-0.05,0.04-0.08c0,0,0-0.01,0.01-0.01c0.01-0.03,0.03-0.06,0.05-0.09
		c0.49-1.01,1.18-2.25,2.19-3.81C76.17,99.46,75.82,99.13,75.47,98.81"/>
	<path class="st6" d="M76.54,99.78c-1.01,1.56-1.7,2.8-2.19,3.81c-0.02,0.03-0.03,0.06-0.05,0.09c0,0,0,0.01-0.01,0.01
		c-0.01,0.03-0.03,0.05-0.04,0.08c0.9,0.89,2,1.55,3.27,2.12c1.94,0.89,4.28,1.38,6.07,1.87c0.61,0.16,1.17,0.31,1.68,0.47
		l0.05,0.02l0.02,0.01l0.08-0.03l0.59-0.3l1.17-0.6l0.12-0.06l0.02,0.01l0.04,0.02l0.08,0.04l0.15,0.09
		c0.2,0.12,0.38,0.24,0.56,0.36c0.71,0.46,1.29,0.91,1.89,1.25c0.92,0.54,1.92,0.86,3.53,0.86c0.49,0,1.03-0.03,1.65-0.09l0,0l0,0
		l0,0l0,0c-0.55,0.06-0.79,0.12-0.79,0.18c0,0.13,1.24,0.22,2.9,0.22c0.71,0,1.5-0.02,2.29-0.06c0.87-0.04,1.74-0.09,2.54-0.15
		c0.19-0.02,0.42-0.02,0.57-0.06c-0.1-0.17-0.19-0.32-0.28-0.48c-0.18-0.31-0.34-0.59-0.47-0.83c-0.26-0.49-0.41-0.85-0.41-1l0,0
		c0-0.05,0.02-0.08,0.06-0.08c0.06,0,0.18,0.07,0.36,0.23c-0.03-0.06-0.05-0.15-0.05-0.25l0,0c0-0.45,0.32-1.19,0.74-1.61
		c-0.81,0.11-1.63,0.23-2.47,0.36c-0.49,0.07-0.93,0.1-1.34,0.1c-2.12,0-3.39-0.81-5.5-1.43c-0.61-0.06-1.23-0.11-1.79-0.14
		c-0.14-0.01-0.28-0.02-0.41-0.03l-0.1-0.01l-0.07,0.01l-0.33,0.19l-1.3,0.73l-1.28,0.72l-0.16,0.09l-0.05,0.02l-0.05,0l-0.09-0.01
		l-0.35-0.05c-1.4-0.31-3.34-0.55-5.03-1.25c-1.71-0.7-3.08-1.87-3.68-3.58C77.94,101.03,77.23,100.4,76.54,99.78"/>
	<path class="st6" d="M119.4,103.14c-0.54,0.01-1.08,0.01-1.64,0.01c0.08,0.27,0.15,0.52,0.18,0.73c0.38,0.02,0.76,0.04,1.14,0.07
		l0.57,0.03l0.07,0l0.02-0.04l-0.08-0.19l-0.17-0.39C119.47,103.29,119.43,103.22,119.4,103.14"/>
	<path class="st6" d="M113.71,104.8c-2.7,0.19-5.59,0.44-8.69,0.82c1.11,0.41,2.18,0.54,3.22,0.54c0.98,0,1.94-0.12,2.91-0.24
		c0.96-0.12,1.92-0.24,2.89-0.24c0.04,0,0.09,0,0.13,0c0,0,0-0.01,0-0.01C114.17,105.61,114,105.3,113.71,104.8"/>
	<path class="st6" d="M101.98,107.79c0.03,0.05,0.06,0.08,0.11,0.1C102.05,107.86,102.01,107.82,101.98,107.79"/>
	<path class="st7" d="M78.1,83.15L78.1,83.15c0,0.19,0.15,0.38,0.26,0.57l0.11-0.03c0.34,0,1,0.63,1.76,1.23
		C81.07,85.6,82,86.23,82,86.23c1.19,1.41,2.5,1.96,3.61,2.02l0.2,0.01c0.48,0,0.92-0.1,1.31-0.25l0,0c0.19-0.09,0.46-0.21,0.56-0.3
		c0,0,0,0,0,0l0.09-0.11l0.01-0.04l-0.01,0.04l-0.09,0.11c-0.1,0.08-0.37,0.21-0.56,0.3c-0.39,0.15-0.83,0.25-1.31,0.25l-0.2-0.01
		c-1.11-0.06-2.42-0.61-3.61-2.02c0,0-0.93-0.63-1.77-1.32c-0.77-0.6-1.43-1.23-1.76-1.23l-0.11,0.03
		C78.25,83.53,78.1,83.33,78.1,83.15 M78.1,83.13L78,83.87l-0.27,1.94l-0.48,3.27c-0.01,0.05-0.02,0.11-0.02,0.16
		c0.01-0.05,0.02-0.11,0.02-0.16l0.48-3.27L78,83.87L78.1,83.13"/>
	<path class="st8" d="M87.67,87.71c-0.1,0.08-0.37,0.21-0.56,0.3C87.3,87.92,87.57,87.8,87.67,87.71"/>
	<path class="st8" d="M88.15,88.28c2.13,4.13,3.73,6.73,5.07,8.72C91.88,95.02,90.28,92.42,88.15,88.28"/>
	<path class="st8" d="M77.23,89.24c-0.15,0.99-0.3,1.9-0.44,2.75l0,0C76.93,91.14,77.08,90.22,77.23,89.24"/>
	<path class="st7" d="M84.4,89.81c-0.02,0-0.13,0.02-0.53,0.11c-0.44,0.08-1.27,0.26-2.78,0.26c-0.02,0-0.05,0-0.07,0l0,0
		c0.01,0,0.02,0,0.02,0c0.02,0,0.03,0,0.05,0c1.52,0,2.35-0.18,2.78-0.26l0,0C84.25,89.83,84.37,89.81,84.4,89.81
		C84.39,89.81,84.39,89.81,84.4,89.81L84.4,89.81L84.4,89.81"/>
	<path class="st8" d="M81.01,90.18c0.01,0,0.02,0,0.02,0C81.03,90.18,81.02,90.18,81.01,90.18 M84.39,89.81
		c-0.03,0-0.14,0.02-0.53,0.11C84.25,89.83,84.37,89.81,84.39,89.81"/>
	<path class="st8" d="M84.39,89.82c-0.05,0.02-0.08,0.04-0.11,0.05C84.31,89.86,84.34,89.84,84.39,89.82"/>
	<path class="st8" d="M84.57,89.84c-0.12,0.08-0.19,0.14-0.19,0.14C84.38,89.97,84.46,89.92,84.57,89.84"/>
	<path class="st8" d="M84.28,89.88c-0.05,0.03-0.07,0.05-0.07,0.06C84.21,89.92,84.23,89.9,84.28,89.88"/>
	<path class="st7" d="M83.03,91.22L83.03,91.22l-0.45,0.54l-1.06,1.28l-0.96,1.2l0,0l0,0l0.96-1.2l1.06-1.28L83.03,91.22
		 M84.38,89.98C84.38,89.98,84.38,89.98,84.38,89.98c-0.12,0.09-0.39,0.29-0.79,0.66c-0.17,0.16-0.37,0.36-0.56,0.58l0,0
		c0.19-0.21,0.38-0.41,0.55-0.57c0,0,0.01-0.01,0.01-0.01c0.01-0.01,0.02-0.01,0.02-0.02C84,90.26,84.27,90.06,84.38,89.98
		L84.38,89.98C84.38,89.98,84.38,89.98,84.38,89.98 M84.21,89.93L84.21,89.93L84.21,89.93"/>
	<path class="st8" d="M83.03,91.22L83.03,91.22L83.03,91.22L83.03,91.22L83.03,91.22 M83.58,90.65c-0.17,0.16-0.36,0.36-0.55,0.57
		l0,0l0,0c0,0,0,0,0,0l0,0c0,0,0,0,0,0l0,0l0,0C83.22,91.01,83.41,90.81,83.58,90.65 M84.38,89.98c-0.11,0.09-0.38,0.28-0.76,0.64
		C84,90.26,84.27,90.06,84.38,89.98"/>
	<path class="st8" d="M78.62,90.05c0.94,0.09,1.73,0.13,2.39,0.13C80.35,90.18,79.56,90.14,78.62,90.05"/>
	<path class="st8" d="M83.68,90.46C83.68,90.46,83.68,90.46,83.68,90.46L83.68,90.46L83.68,90.46c-0.01,0.02-0.05,0.06-0.11,0.13
		c0.05-0.06,0.09-0.1,0.1-0.12l0,0l0,0C83.68,90.46,83.68,90.46,83.68,90.46"/>
	<path class="st8" d="M83.57,90.59c-0.01,0.01-0.03,0.03-0.04,0.05C83.55,90.62,83.56,90.6,83.57,90.59"/>
	<path class="st8" d="M83.03,91.22c-0.02,0.02-0.04,0.04-0.05,0.06C83,91.26,83.01,91.24,83.03,91.22L83.03,91.22"/>
	<path class="st8" d="M80.56,94.23c-0.14,0.17-0.27,0.34-0.4,0.51c-0.22,0.28-0.44,0.56-0.64,0.83v0c0.21-0.27,0.42-0.55,0.64-0.83
		C80.29,94.57,80.43,94.41,80.56,94.23"/>
	<path class="st8" d="M94.17,98.35c0.16,0.22,0.31,0.44,0.47,0.65C94.48,98.79,94.32,98.57,94.17,98.35"/>
	<path class="st8" d="M95.01,99.47c0.25,0.33,0.47,0.61,0.71,0.89C95.48,100.08,95.26,99.79,95.01,99.47 M94.64,99
		c0.12,0.16,0.25,0.32,0.37,0.47C94.89,99.31,94.76,99.16,94.64,99"/>
	<path class="st8" d="M76.54,99.78c-1.01,1.56-1.7,2.8-2.19,3.81C74.84,102.58,75.52,101.34,76.54,99.78L76.54,99.78"/>
	<path class="st8" d="M74.39,102.95c-0.08,0.25-0.15,0.5-0.23,0.74c-0.17,0.52-0.34,1-0.5,1.44c0,0,0,0.01-0.01,0.01
		c0,0.01-0.01,0.01-0.01,0.02c0,0,0,0,0,0c0-0.01,0.01-0.01,0.01-0.02C73.9,104.49,74.15,103.75,74.39,102.95"/>
	<path class="st8" d="M73.64,105.15L73.64,105.15L73.64,105.15L73.64,105.15L73.64,105.15 M74.29,103.7
		c-0.27,0.55-0.51,1.1-0.65,1.46c0,0,0,0,0,0c0-0.01,0.01-0.02,0.01-0.03c0.13-0.34,0.35-0.84,0.6-1.35
		C74.27,103.75,74.28,103.72,74.29,103.7"/>
	<path class="st8" d="M73.64,105.15c-0.01,0.04-0.03,0.07-0.04,0.1c0,0,0,0,0,0.01l0,0l0,0l0,0c0,0,0,0,0-0.01
		C73.62,105.22,73.63,105.19,73.64,105.15C73.64,105.15,73.64,105.15,73.64,105.15"/>
	<path class="st8" d="M73.64,105.15L73.64,105.15L73.64,105.15L73.64,105.15L73.64,105.15 M73.64,105.15
		C73.64,105.15,73.64,105.15,73.64,105.15c-0.01,0.03-0.02,0.06-0.04,0.1c0,0,0,0.01,0,0.01c0,0,0-0.01,0-0.01
		C73.62,105.22,73.63,105.19,73.64,105.15"/>
	<path class="st9" d="M66.9,78.03c-0.24,0-0.4,0.11-0.48,0.21c-0.23,0.36-0.38,0.77-0.45,1.21c-0.02,0.16-0.04,0.32-0.04,0.49
		c0,0.77,0.25,1.64,0.79,2.58c0.22,0.4,0.5,0.8,0.82,1.22c0.02,0.01,0.03,0.02,0.05,0.03c0.26,0.17,0.43,0.34,0.55,0.48
		c0.17,0.23,0.35,0.47,0.53,0.72c0.07,0.08,0.13,0.17,0.2,0.26c0.98,1,2.22,2.07,3.69,3.27c0.46,0.37,0.94,0.76,1.44,1.16
		c-0.16-3.05-0.74-6.23-2.64-9.19l-0.26-0.38c-0.1-0.13-0.13-0.22-0.37-0.43c-0.25-0.21-0.59-0.47-1.19-0.77
		c-0.28-0.14-0.66-0.3-1.07-0.43c-0.34-0.13-1.06-0.25-1.06-0.28l0,0c0,0,0,0,0.01,0C67.21,78.07,67.04,78.03,66.9,78.03"/>
	<path class="st9" d="M109.56,75.94c-0.15,0-0.23,0.02-0.23,0.04c0,0,0,0,0,0c0.06,0.61,0.22,1.19,0.46,1.77
		c0.29,0.6,0.54,1.15,0.9,1.76c0.34,0.6,0.64,1.21,0.94,1.89c0.14,0.34,0.26,0.68,0.36,1.05c0.12,0.37,0.21,0.76,0.27,1.17
		c0.1,0.59,0.26,1.71,0.4,3.11c0.09,0.72,0.19,1.51,0.29,2.32c0.06,0.42,0.12,0.85,0.19,1.28c0.2,0.65,0.53,1.47,0.78,2.19
		c1.14,2.93,2.19,5.75,2.99,8.07c0.25,0.88,0.62,1.81,0.85,2.56c0.81,0,1.6-0.01,2.37-0.02c0.04,0,0.08,0,0.12,0
		c0.42-0.01,0.83-0.01,1.24-0.02c0.13,0,0.27,0,0.42-0.01l0.23,0l0.12,0l0-0.12c-0.1-0.4-0.23-0.84-0.38-1.33
		c-0.3-0.96-0.7-2.07-1.17-3.3c-0.94-2.45-2.16-5.34-3.42-8.29l-0.46-1.11c-0.12-0.33-0.33-0.8-0.33-0.94l0,0c0-0.01,0-0.01,0-0.02
		c-0.06-0.39-0.13-0.77-0.19-1.15c-0.1-0.72-0.2-1.41-0.29-2.04c-0.13-1.21-0.28-2.15-0.33-2.6c-0.96-3.51-2.31-4.86-3.71-5.61
		C110.98,76.09,110,75.94,109.56,75.94"/>
	<path class="st9" d="M68.87,85.23L68.87,85.23L68.87,85.23L68.87,85.23L68.87,85.23 M67.55,83.74L67.55,83.74L67.55,83.74
		L67.55,83.74L67.55,83.74 M66.28,83.21c-0.22,0-0.35,0.12-0.42,0.18c-0.1,0.13-0.15,0.26-0.23,0.39c-0.05,0.14-0.08,0.29-0.12,0.48
		c0,0.04,0,0.07,0,0.11l0,0c0,0.08,0,0.17,0,0.26c0,0.11,0,0.22,0.02,0.36c0.06,0.94,0.34,1.91,0.82,3.21
		c0.89,2.08,2.51,4.15,4.65,6.35c1.08,1.1,2.26,2.24,3.56,3.42c1.28,1.19,2.65,2.45,4.1,3.67c0.59,1.71,1.97,2.89,3.68,3.58
		c1.69,0.7,3.63,0.94,5.03,1.25l0.35,0.05l0.09,0.01l0.05,0l0.05-0.02l0.16-0.09l1.28-0.72l1.3-0.73l0.33-0.19l0.07-0.01l0.1,0.01
		c0.14,0.01,0.27,0.02,0.41,0.03c0.56,0.04,1.18,0.08,1.79,0.14c2.11,0.61,3.38,1.43,5.5,1.43c0.41,0,0.85-0.03,1.34-0.1
		c0.83-0.13,1.66-0.25,2.47-0.36c0.8-0.11,1.58-0.21,2.35-0.31c3.64-0.45,7.01-0.72,10.1-0.92c0.65-0.04,1.29-0.08,1.92-0.11
		c0.21,0.08,0.37,0.11,0.5,0.11c0.31,0,0.43-0.19,0.43-0.51c0-0.09-0.01-0.2-0.03-0.31c-0.03-0.21-0.1-0.46-0.18-0.73
		c-0.95,0.01-1.92,0.01-2.91,0.01c-0.7,0-1.42,0-2.14,0c-0.27,0-0.54,0-0.82,0c-1.01,0-2.05,0-3.11,0c-3.18,0-6.6,0.01-10.27,0.08
		l0,0c-0.32,0.01-0.65,0.01-0.98,0.02c-0.81-0.09-1.65-0.37-1.71-0.83c-0.05-0.21-0.13-0.41-0.22-0.61l-0.04-0.07l-0.02,0
		l-0.12,0.07l-0.25,0.14l-0.49,0.28l-1.99,1.15c-0.01,0.01-0.03,0.02-0.04,0.03c-0.98,0.59-1.28,0.73-1.38,0.73
		c-0.04,0-0.05-0.02-0.05-0.05c-0.01-0.02-0.01-0.05-0.05-0.05c0,0-0.01,0-0.02,0c-0.37-0.25-0.8-0.49-1.27-0.74
		c-0.94-0.5-2.06-1.03-3.24-1.68c-0.81-0.45-1.63-0.96-2.42-1.52c-1.54-1.08-2.98-2.36-4.09-3.74c-0.22-0.26-0.43-0.52-0.63-0.79
		c0,0,0,0,0,0v0c-0.14-0.19-0.28-0.38-0.42-0.57c-0.75-1.04-1.46-2.11-2.31-3.02l0,0c-0.33-0.35-0.67-0.68-1.05-0.97
		c-0.61-0.47-1.19-0.92-1.74-1.36c0.03,0.55,0.04,1.1,0.05,1.64l0,0l0,0l0,0l0,0c-0.16,0.76-0.22,1.82-0.85,2.12c0,0-0.01,0-0.01,0
		c-0.06,0.05-0.11,0.08-0.17,0.08c-0.34,0-0.7-0.92-1.18-1.24l0,0c0-0.01,0-0.01,0-0.02c-0.17-0.8,0.01-1.79-0.4-2.88
		c-0.3-1.08-0.96-2.07-1.68-3c-0.3-0.38-0.6-0.76-0.88-1.13c-0.51-0.52-0.95-1.01-1.33-1.49c-0.12-0.08-0.25-0.15-0.42-0.22
		c-0.09-0.04-0.19-0.08-0.29-0.11l-0.09-0.07C66.56,83.24,66.41,83.21,66.28,83.21"/>
</g>
<g>
	<path d="M43.93,121.19c-5.57-0.36-8.33-3.14-8.75-8.48c-5.59-2.05-7.52-5.31-6.17-10.5c-3.63-1.22-4.75-4.38-4.67-7.58
		c0.07-2.89,1.06-5.9,4.24-7.48c-1.97-2.76-2.27-5.9-1.54-9.29c0.7-3.25,1.75-6.23,4.43-8.44c0.5-0.41,0.9-1.27,0.91-1.93
		c0.08-4.41,1.81-8.24,4.57-11.46c1.18-1.38,3.31-2.06,5.11-2.78c1.63-0.65,2.71-1.55,3.45-3.19c1.26-2.79,3.56-4.37,6.48-5.46
		c2.48-0.93,4.8-2.45,6.93-4.07c3.97-3,7.58-6.38,13.09-6.44c3.28-0.04,6.54-1.09,9.83-1.23c4.01-0.17,7.85,0.65,10.87,3.72
		c0.4,0.4,1.3,0.47,1.95,0.42c2.76-0.18,4.93,0.76,6.48,3.08c1.42,2.14,2.84,4.28,4.32,6.39c0.25,0.36,0.76,0.55,1.17,0.78
		c4.55,2.51,7.26,6.24,8.49,11.36c0.38,1.6,2.46,2.77,3.7,4.18c2.37,2.68,4.95,5.46,4.23,9.34c-0.46,2.5,0.62,3.67,2.13,5.27
		c3.44,3.63,3.54,8.29,3.2,12.96c-0.02,0.33-0.34,0.77-0.65,0.94c-2.61,1.49-2.14,3.25-1.29,5.81c1.92,5.84,0.14,11.17-3.61,15.93
		c-2.39,3.03-5.28,5.14-9.26,5.44c-1.42,0.1-2.84,0.21-4.24,0.39c-3.82,0.48-5.79,3.87-8.81,5.64c-2.73,1.6-5.57,1.85-8.63,1.63
		c-1.57-0.11-3.54-0.14-4.72,0.68c-5.37,3.74-11.26,4.74-17.41,3.29c-3.53-0.84-6.78,0.14-10.16,0.12
		c-3.57-0.02-7.27-0.26-10.68-1.23C45.47,127.99,43.63,125.14,43.93,121.19z M95.79,80.26c0.3,0.91,0.61,1.83,0.91,2.74
		c0.12-0.03,0.24-0.06,0.37-0.09c0.24-2.13,0.48-4.27,0.72-6.4c0.23,0.03,0.46,0.06,0.69,0.09c-0.47,3.92-0.94,7.83-1.41,11.75
		c0.34,0.06,0.69,0.12,1.03,0.17c0.8-4.01,1.6-8.01,2.39-12.02c0.15,0.03,0.29,0.06,0.44,0.08c-0.62,4.06-1.25,8.12-1.87,12.18
		c1.96-1.27,4.53-19.67,3.58-21.32c-0.44,2.08-0.86,4.05-1.28,6.02c-0.69-3.34,1.3-6.56,0.19-9.81c-0.23-0.01-0.45-0.03-0.68-0.04
		c-0.66,3.62-1.32,7.23-1.99,10.85c-0.18-0.03-0.37-0.06-0.55-0.09c0.47-4.04,0.94-8.08,1.43-12.35c-0.61,0.25-0.85,0.28-0.86,0.36
		c-0.57,3.43-1.1,6.86-1.72,10.28c-0.12,0.68-0.61,1.3-0.94,1.95c0.52-4.51,1.03-9.01,1.55-13.52c-0.14-0.01-0.29-0.03-0.43-0.04
		c-0.44,1.25-0.89,2.5-1.33,3.75c-0.12-0.06-0.25-0.12-0.37-0.17c0.18-1.94,0.36-3.89,0.55-5.83c-0.25-0.02-0.49-0.04-0.74-0.07
		c-0.67,2.6-1.34,5.2-2,7.8c-0.13-0.03-0.26-0.07-0.39-0.1c0.54-3.99,1.07-7.99,1.61-11.98c-0.29-0.04-0.58-0.08-0.87-0.11
		c-0.63,3.46-1.42,6.9-1.82,10.38c-0.22,1.94-0.17,4.08,0.42,5.91c0.73,2.26,0.42,5.47-1.13,6.74c1.15,1.02,2.32,2.1,3.55,3.1
		C95.01,80.58,95.47,80.34,95.79,80.26z M81.54,55.37c-1.74-0.65-3.49-1.85-5.23-1.84c-2.7,0.02-5.45,0.66-8.08,1.4
		c-3.15,0.89-6.31,2.8-7.18,5.77c-1.48,5.05-0.21,9.44,6.76,8.89c4.56-0.36,9.1-1.74,13.52-3.09c3.42-1.04,4.35-3.98,2.78-7.22
		c-0.64-1.33-1.4-2.6-2.1-3.89c0.59-1.22,1.2-2.44,1.78-3.67c0.98-2.07,0.01-3.48-1.71-4.44c-2.47-1.39-4.99-2.71-7.56-3.91
		c-3.34-1.55-6.57-1.14-9.64,0.88c-2.29,1.51-3.66,4.92-2.57,7.33c0.69,1.53,1.86,2.49,3.96,1.69c4.39-1.68,8.92-2.65,13.54-0.73
		C81.02,53.05,82.07,53.75,81.54,55.37z M73.71,83.16c0.06,0.2,0.11,0.39,0.17,0.59c4.5-1.35,9.11-2.41,13.43-4.18
		c1.87-0.76,3.96-2.18,3.76-5.21c-0.34-5.15-4.18-7.72-9.11-6.13c-3.93,1.27-8.06,1.9-12.04,3.03c-1.22,0.35-2.96,1.22-3.23,2.19
		C65.46,77.99,66.75,83.99,73.71,83.16z M104.01,95.6c-0.11-0.36-0.24-1.05-0.52-1.68c-1.1-2.45-3.4-3.03-5.69-3.1
		c-0.88-0.02-1.91,1.12-2.67,1.93c-2.92,3.11-6.84,4.45-10.54,6.2c-0.83,0.39-1.83,1.03-2.15,1.8c-2.05,4.95,2.8,10.51,8.08,9.92
		c3.49-0.39,6.01-2.31,8.25-4.68C101.43,103.16,103.64,100.02,104.01,95.6z M64.79,79.89c-5.9,1.2-9.42,5.04-10.2,10.3
		c-0.68,4.59,0.74,8.24,5.38,8.97c2.76,0.44,5.72,0.15,8.51-0.32c1.33-0.23,2.66-1.48,3.56-2.61c0.37-0.46-0.44-1.83-0.65-2.8
		c-0.1-0.46-0.13-0.96-0.06-1.43c0.33-2.22,0.71-4.42,1.1-6.75C68.86,85.05,65.92,83.67,64.79,79.89z M74.2,91.78
		c-0.03,2.96,4.13,6.3,7.24,5.7c3.95-0.76,7.64-2.17,10.8-4.77c3.42-2.81,4-6.16,2.47-9.53c-0.84-1.86-4.08-3.47-5.37-2.91
		c-3,1.3-5.98,2.69-9.07,3.74C76.89,85.14,74.23,88.29,74.2,91.78z M97.59,112.27c0.26,0.4,0.8,1.26,1.36,2.09
		c2.18,3.27,7.51,4.08,10.63,1.84c4.12-2.97,6.43-6.83,6.88-11.91c0.27-3.12-1.04-5-4.61-6.07c-2.51-0.75-4.38,0.33-5.85,2.69
		c-1.09,1.75-2.7,3.18-4.11,4.72C100.23,107.43,97.72,108.61,97.59,112.27z M53.4,84.62c-1.27-0.81-2.84-2.01-4.59-2.84
		c-1.07-0.51-2.58-0.92-3.6-0.55c-4.04,1.44-5.92,4.67-6.02,8.81c-0.09,3.81,1.12,7.19,4.52,9.37c0.46,0.3,1.36,0.34,1.86,0.1
		c2.38-1.13,4.7-2.39,6.8-3.48C52.7,92.44,53.04,88.67,53.4,84.62z M61.55,101.62c-2.15,4.99-0.1,9.18,5.24,10.38
		c1.38,0.31,2.96,0.22,4.36-0.1c3.31-0.78,6.56-1.81,9.43-2.62c-0.75-3.18-1.35-5.73-1.83-7.79c-2.22-0.95-4.14-1.77-6.21-2.66
		C69.2,101.55,65.25,101.9,61.55,101.62z M83.48,110.5c-3.61,1.06-6.72,2.06-9.87,2.87c-1.54,0.4-2.15,1.06-1.66,2.65
		c0.82,2.71,2.42,4.52,5.25,5.24c4,1.01,7.74-0.1,11.36-1.5c2.48-0.96,4.93-2.26,6.98-3.92c0.7-0.57,0.14-2.71,0.13-4.13
		c0-0.11-0.18-0.21-0.34-0.39C90.93,113.69,86.76,113.03,83.48,110.5z M64.74,71.93c-1.64-1.29-3.83-2.24-4.75-3.89
		c-1.45-2.6-2.82-1.6-4.49-0.76c-0.69,0.35-1.36,0.74-2.04,1.09c-3.65,1.88-5.54,6.25-4.24,9.8c1.48,4.03,5.53,5.12,8.77,2.59
		c1.38-1.08,3.22-1.56,4.79-2.41c0.52-0.28,1.17-0.82,1.27-1.33C64.42,75.19,64.57,73.34,64.74,71.93z M72.15,40.65
		c5.01,1.34,9.16,3.94,13.1,7c0.48,0.38,2.08,0.04,2.63-0.5c2.59-2.55,3.33-5.85,3.04-9.38c-0.04-0.47-0.69-1.13-1.19-1.28
		c-2.63-0.76-5.28-1.87-7.95-1.94C76.52,34.42,73.55,35.86,72.15,40.65z M107.32,65.58c-0.01,3.5,0.91,5.86,3.48,9.25
		c1.62,2.13,5.06,2.85,7.56,1.58c2.27-1.15,3.16-3.69,2.44-6.49c-0.88-3.41-3.25-5.78-5.75-7.93c-1.37-1.17-3.26-1.45-5.12-0.44
		C108.18,62.51,106.85,63.58,107.32,65.58z M58.2,101.53c0.2-0.13,0.4-0.26,0.6-0.39c-0.94-0.39-2.14-0.53-2.76-1.2
		c-2.11-2.27-4.33-1.2-6.5-0.44c-3.68,1.28-4.82,4.19-3.38,7.73c1.17,2.89,3.61,4.23,6.27,4.96c2.66,0.73,5.44,0.48,7.26-0.86
		C59.13,107.71,58.67,104.62,58.2,101.53z M113.1,95.61c3.8,2.41,6.15,5.06,5.18,9.77c-0.65,3.13-1.96,6.12-3.13,9.61
		c0.76-0.07,1.96,0.18,2.48-0.3c1.89-1.75,3.81-3.57,5.23-5.69c2.33-3.5,2.95-7.47,1.67-11.57c-0.89-2.84-2.73-4.72-5.84-5.15
		C115.98,91.89,113.99,92.69,113.1,95.61z M48.71,69.7c-2.35-2.76-3.71-3.26-6.15-2.08c-3.35,1.61-5.87,4.1-7.06,7.64
		c-1.44,4.31-0.55,8.28,2.99,8.48c2.29-2.44,4.27-5.41,8.29-4.99C46.04,74.63,46.04,74.63,48.71,69.7z M112.79,58.82
		c-0.76-4.26-2.44-7.26-5.86-9.15c-1.41-0.78-3.57-1.06-5.09-0.59c-1.9,0.59-3.58,2.17-3.75,4.5c-0.23,3.19,2.83,7.66,5.93,8.66
		c0.58,0.19,1.71,0.15,1.88-0.17C107.4,59.38,110.08,59.3,112.79,58.82z M58.58,59.11c-3.31-1.25-5.89-3.39-7.32-6.8
		c-0.35-0.84-1.4-2.22-1.63-2.13c-1.14,0.46-2.6,1.11-3.06,2.11c-1.67,3.58-1.69,7.39-0.18,11.04c0.59,1.42,1.75,2.59,2.65,3.88
		c0.06-0.33,0.12-0.66,0.17-0.98c2.74-1.16,5.49-2.31,8.5-3.58C57.9,61.88,58.22,60.6,58.58,59.11z M125.23,89.75
		c2.55-3.03,0.1-9.82-4.13-11.72c-0.34-0.15-0.79-0.18-1.16-0.11c-4.65,0.89-6.27,2.55-7.08,7.23c-0.43,2.47,1.14,4.23,3.69,4.26
		C119.3,89.45,122.05,89.62,125.23,89.75z M43.6,101.99c-1.05-0.79-2.04-1.46-2.96-2.24c-0.99-0.84-1.92-2.5-2.86-2.48
		c-1.21,0.02-2.4,1.34-3.59,2.11c-0.46,0.3-0.94,0.59-1.35,0.95c-1.84,1.58-2.18,3.72-1.9,5.94c0.3,2.39,2.32,3.25,4.2,4.11
		c0.29,0.13,0.87-0.14,1.22-0.37c2.25-1.48,4.48-3.01,7.03-4.73C43.44,104.49,43.53,103.08,43.6,101.99z M85.67,125.58
		c-0.9-0.57-1.31-0.99-1.79-1.09c-1.3-0.28-2.63-0.5-3.96-0.6c-3.35-0.26-6.32-1.17-8.59-3.9c-0.42-0.5-1.65-0.57-2.44-0.44
		c-0.9,0.15-1.97,0.53-2.55,1.18c-0.82,0.93-1.68,2.19-1.71,3.32c-0.02,0.88,1.02,2.17,1.92,2.62
		C72.87,129.88,79.03,128.72,85.67,125.58z M70.33,116.45c-0.17-0.52-0.26-1.79-0.68-1.91c-2.75-0.77-5.61-1.91-8.34-1.72
		c-2.42,0.17-4.74,1.9-7.09,2.98c-1.68,0.77-2.39,3.12-1.35,4.32c1.78,2.06,5.49,3.03,8.01,1.75
		C64.01,120.25,67.01,118.36,70.33,116.45z M48.9,118.68c0.06-0.28,0.11-0.55,0.17-0.83c0.14-0.68,0.07-1.54,0.46-2.02
		c1.13-1.38,0.22-2.12-0.69-2.9c-1.73-1.49-3.48-2.96-5.59-4.75c-0.66,0.29-1.9,0.76-3.06,1.39c-1.64,0.89-2.96,2.22-2.39,4.2
		c0.89,3.1,1.18,4.75,4.17,4.89C44.28,118.76,46.59,118.68,48.9,118.68z M44.48,64.42c-0.28-1.19-0.8-2.74-0.97-4.32
		c-0.18-1.68-0.04-3.4-0.04-5.22c-6.95,2.79-11.01,11.35-7.66,14.67C38.76,67.81,41.62,66.11,44.48,64.42z M34.42,88.44
		c-0.42,0-0.97,0.01-1.52,0c-2.14-0.02-4.15,0.25-5.28,2.41c-1.35,2.6-1.68,5.29-0.01,7.8c0.46,0.69,2.14,1.38,2.7,1.06
		c2.22-1.24,4.21-2.88,6.04-4.19C35.7,93.15,35.11,90.97,34.42,88.44z M61.9,42.88c-0.52,0.1-1.5,0.26-2.47,0.47
		c-3.12,0.67-5.52,3.41-5.5,6.24c0.02,2.63,3.33,7.12,5.73,7.45c0.78,0.11,1.82-0.37,2.42-0.92c0.24-0.22-0.37-1.39-0.64-2.11
		c-0.53-1.44-1.66-2.93-1.52-4.29C60.17,47.39,61.2,45.14,61.9,42.88z M62.09,127.62c-0.41-2.18-2.12-2.66-3.7-2.98
		c-3-0.59-5.62-1.66-7.9-3.84c-0.64-0.6-2.61-0.39-3.57,0.15c-0.58,0.33-0.82,2.2-0.45,3.03c0.5,1.13,1.57,2.42,2.68,2.79
		C53.34,128.19,57.65,128.95,62.09,127.62z M102.91,46.08c-0.28-3.51-4.64-7.25-7.8-6.9c0,2.45-0.18,4.87,0.08,7.24
		c0.12,1.03,1.04,2.07,1.85,2.84c0.22,0.21,1.4-0.5,2.08-0.88C100.32,47.7,101.48,46.95,102.91,46.08z M102.45,120.05
		c-5.56-3.07-9.88,0.36-14.71,2.41C93.23,125.43,98.77,124.45,102.45,120.05z M32.19,71.73c-2.49,3.16-3.64,6.36-3.46,9.86
		c0.21,4.17,2.66,5.74,6.43,4.48C31.19,81.91,31.71,80.16,32.19,71.73z M104.75,71.25c-0.24-0.02-0.47-0.05-0.71-0.07
		c-1.38,5.75-2.8,11.5-2.16,17.55c0.36-1.43,0.73-2.87,1.09-4.3c0.08,0.02,0.16,0.04,0.24,0.06c-0.12,1.87-0.23,3.74-0.35,5.61
		c0.27,0.03,0.54,0.06,0.82,0.09c0.83-5.28,1.67-10.55,2.5-15.83c-0.26-0.05-0.52-0.11-0.78-0.16c-0.31,1.04-0.62,2.08-0.94,3.12
		c-0.14-0.02-0.27-0.05-0.41-0.07C104.3,75.24,104.53,73.25,104.75,71.25z M88.67,50.57c-3,3.54-2.56,13.53,0.1,15.82
		c0.77-5.52,1.51-10.84,2.24-16.17c-0.27-0.04-0.55-0.09-0.82-0.13c-0.78,3.92-1.55,7.85-2.33,11.77c-0.15-0.03-0.31-0.05-0.46-0.08
		C87.8,58.27,88.19,54.74,88.67,50.57z M105.02,93.18c0.24-0.04,0.49-0.07,0.73-0.11c0.32-5.8,1.98-11.49,1.49-17.35
		c-1.1,4.48-2.02,8.98-2.7,13.5C104.35,90.49,104.84,91.86,105.02,93.18z M92.72,51.36c-0.24-0.01-0.49-0.02-0.73-0.04
		c-0.69,4.95-1.41,9.89-2.04,14.85c-0.08,0.62,0.31,1.3,0.48,1.95c0.16-0.06,0.33-0.11,0.49-0.17
		C91.53,62.42,92.13,56.89,92.72,51.36z M109.45,77.62c-0.27-0.03-0.55-0.07-0.82-0.1c-0.71,5.27-1.41,10.54-2.12,15.81
		c0.34,0.04,0.69,0.09,1.03,0.13C109.13,88.29,108.18,82.83,109.45,77.62z M64.2,38.97c2.48,0.56,4.43,0.08,5.66-1.89
		c-0.12-0.25-0.24-0.5-0.36-0.75C67.73,37.21,65.96,38.09,64.2,38.97z"/>
	<path d="M95.79,65.89c-0.6,3.97-1.19,7.94-1.79,11.9c-0.27-0.04-0.55-0.08-0.82-0.13c0.63-3.93,1.25-7.86,1.88-11.79
		C95.3,65.88,95.55,65.89,95.79,65.89z"/>
</g>
</svg>
