<?xml version="1.0" encoding="utf-8"?>
<!-- Generator: Adobe Illustrator 23.0.1, SVG Export Plug-In . SVG Version: 6.00 Build 0)  -->
<svg version="1.1" id="Layer_1" xmlns="http://www.w3.org/2000/svg" xmlns:xlink="http://www.w3.org/1999/xlink" x="0px" y="0px"
	 viewBox="0 0 150 150" style="enable-background:new 0 0 150 150;" xml:space="preserve">
<style type="text/css">
	.st0{fill:#F49AB4;}
	.st1{fill:#F28DA7;}
	.st2{fill:#E85072;}
	.st3{fill:#E84B6F;}
	.st4{fill:#EB5A7D;}
	.st5{fill:#EF7994;}
	.st6{fill:#F8BCCD;}
	.st7{fill:#F38CA8;}
	.st8{fill:#EF728F;}
	.st9{fill:#FCE4EB;}
	.st10{fill:#F0CCCF;}
	.st11{fill:#DE8D95;}
	.st12{fill:#EBBABF;}
	.st13{fill:#E7ACB2;}
	.st14{fill:#E39DA3;}
	.st15{fill:#F5DEE0;}
	.st16{fill:#D97A83;}
	.st17{fill:#E4A6AD;}
	.st18{fill:#E9B6BB;}
	.st19{fill:#DA9197;}
	.st20{fill:#CC7077;}
	.st21{fill:#C9646C;}
	.st22{fill:#D4848B;}
	.st23{fill:#D17A81;}
	.st24{fill:#DD9EA3;}
	.st25{fill:#C65760;}
	.st26{fill:#D48189;}
	.st27{fill:#CF6E76;}
	.st28{fill:#C1575F;}
	.st29{fill:#B8424B;}
	.st30{fill:#B33C43;}
	.st31{fill:#BB4952;}
	.st32{fill:#C65E66;}
	.st33{fill:#BC4F57;}
	.st34{fill:#B0353D;}
	.st35{fill:#D67E84;}
	.st36{fill:#C6636B;}
	.st37{fill:#CA6C72;}
	.st38{fill:#B9454D;}
	.st39{fill:#C05B63;}
	.st40{fill:#C0545B;}
	.st41{fill:#BE4C53;}
	.st42{fill:#B43C44;}
	.st43{fill:#DF999F;}
	.st44{fill:#D27980;}
	.st45{fill:#C1555D;}
	.st46{fill:#CB6F76;}
	.st47{fill:#C8676E;}
	.st48{fill:#D5838A;}
	.st49{fill:#C65D64;}
	.st50{fill:#F1D1D4;}
	.st51{fill:#D38087;}
	.st52{fill:#CF737C;}
	.st53{fill:#D98C94;}
	.st54{fill:#E6B3B9;}
	.st55{fill:#D8898F;}
	.st56{fill:#C66269;}
	.st57{fill:#C96A72;}
	.st58{fill:#DD9399;}
	.st59{fill:#CF747B;}
	.st60{fill:#D48188;}
	.st61{fill:#D37D85;}
	.st62{fill:#DC9298;}
	.st63{fill:#D8838B;}
	.st64{fill:#FAECED;}
	.st65{fill:#EFCBD0;}
	.st66{fill:#EDC1C5;}
	.st67{fill:#D28089;}
	.st68{fill:#CB747D;}
	.st69{fill:#A8343C;}
	.st70{fill:#A62F37;}
	.st71{fill:#B03E44;}
	.st72{fill:#C25C63;}
	.st73{fill:#E1A8AC;}
	.st74{fill:#BE535C;}
	.st75{fill:#CE727C;}
	.st76{fill:#F5D8DA;}
	.st77{fill:#D8BAE7;}
	.st78{fill:#BC8FD2;}
	.st79{fill:#B17FC9;}
	.st80{fill:#7D3CA4;}
	.st81{fill:#884BAE;}
	.st82{fill:#A369BF;}
	.st83{fill:#D2B5E2;}
	.st84{fill:#9A62BC;}
	.st85{fill:#B17ECB;}
	.st86{fill:#ECE0F2;}
	.st87{fill:#FBCBC8;}
	.st88{fill:#F5908C;}
	.st89{fill:#F28580;}
	.st90{fill:#E64640;}
	.st91{fill:#E5413B;}
	.st92{fill:#E74E49;}
	.st93{fill:#ED6D68;}
	.st94{fill:#F7B5B0;}
	.st95{fill:#ED6660;}
	.st96{fill:#F48580;}
	.st97{fill:#FBDFDF;}
	.st98{fill:#F9C1C0;}
	.st99{fill:#F7B7B6;}
	.st100{fill:#EF7573;}
	.st101{fill:#EF6F6D;}
	.st102{fill:#F17F7C;}
	.st103{fill:#F4A19F;}
	.st104{fill:#F39998;}
	.st105{fill:#EC7271;}
	.st106{fill:#FAD1CF;}
	.st107{fill:#FADCDC;}
	.st108{fill:#F39391;}
	.st109{fill:#FDECEC;}
	.st110{fill:#FCDDDD;}
	.st111{fill:#ED8280;}
	.st112{fill:#E66160;}
	.st113{fill:#F18784;}
	.st114{fill:#F19593;}
	.st115{fill:#EB7675;}
	.st116{fill:#E86867;}
	.st117{fill:#F28785;}
	.st118{fill:#F3A7A7;}
	.st119{fill:#F08C8B;}
	.st120{fill:#F08785;}
	.st121{fill:#E55D5B;}
	.st122{fill:#E86D6C;}
	.st123{fill:#E85F5D;}
	.st124{fill:#E75958;}
	.st125{fill:#EA6664;}
	.st126{fill:#E76260;}
	.st127{fill:#E04948;}
	.st128{fill:#ED7371;}
	.st129{fill:#EA6B6A;}
	.st130{fill:#EB6763;}
	.st131{fill:#E45352;}
	.st132{fill:#E54E4C;}
	.st133{fill:#DE3635;}
	.st134{fill:#E65958;}
	.st135{fill:#E0413E;}
	.st136{fill:#EA6D6A;}
	.st137{fill:#EE9493;}
	.st138{fill:#EA6866;}
	.st139{fill:#F2A8A6;}
	.st140{fill:#E14543;}
	.st141{fill:#E3413F;}
	.st142{fill:#E64A48;}
	.st143{fill:#E56967;}
	.st144{fill:#E33F3D;}
	.st145{fill:#EB7775;}
	.st146{fill:#EE8483;}
	.st147{fill:#E64845;}
	.st148{fill:#E75655;}
	.st149{fill:#E65451;}
	.st150{fill:#EA7473;}
	.st151{fill:#E55B57;}
	.st152{fill:#E75756;}
	.st153{fill:#EB7472;}
	.st154{fill:#EE8C8A;}
	.st155{fill:#F5A3A2;}
	.st156{fill:#E14A49;}
	.st157{fill:#E14D4C;}
	.st158{fill:#E14B49;}
	.st159{fill:#DE3E3D;}
	.st160{fill:#E45350;}
	.st161{fill:#E14544;}
	.st162{fill:#E54E4B;}
	.st163{fill:#E34240;}
	.st164{fill:#E75C5A;}
	.st165{fill:#EB7C7B;}
	.st166{fill:#F3A2A1;}
	.st167{fill:#EA7877;}
	.st168{fill:#E66B6A;}
	.st169{fill:#E96A69;}
	.st170{fill:#E56160;}
	.st171{fill:#E44845;}
	.st172{fill:#EC7473;}
	.st173{fill:#F9C0D3;}
	.st174{fill:#F298B5;}
	.st175{fill:#EE89A7;}
	.st176{fill:#E54D73;}
	.st177{fill:#E44771;}
	.st178{fill:#E7567E;}
	.st179{fill:#EC7797;}
	.st180{fill:#F8BCCF;}
	.st181{fill:#EB6D8F;}
	.st182{fill:#F089A8;}
	.st183{fill:#FCE2EB;}
	.st184{fill:#E55B7F;}
	.st185{fill:#E6708E;}
	.st186{fill:#EB87A2;}
	.st187{fill:#E25677;}
	.st188{fill:#E7678B;}
	.st189{fill:#FBD7E3;}
	.st190{fill:#ED80A1;}
	.st191{fill:#E24166;}
	.st192{fill:#E13B65;}
	.st193{fill:#E34870;}
	.st194{fill:#E76486;}
	.st195{fill:#F49DB8;}
	.st196{fill:#F7BFD1;}
	.st197{fill:#E65C7F;}
	.st198{fill:#F6ABC4;}
	.st199{fill:#F6A7C2;}
	.st200{fill:#EA6189;}
	.st201{fill:#DB3258;}
	.st202{fill:#DA2E55;}
	.st203{fill:#F7B2C9;}
	.st204{fill:#EA6A8D;}
	.st205{fill:#DC355B;}
	.st206{fill:#DB3159;}
	.st207{fill:#DF3C63;}
	.st208{fill:#F9C5D6;}
	.st209{fill:#EB7697;}
	.st210{fill:#DE3B61;}
	.st211{fill:#DE375F;}
	.st212{fill:#E1426A;}
	.st213{fill:#FDE7EE;}
	.st214{fill:#EE89A9;}
	.st215{fill:#E2456B;}
	.st216{fill:#E14069;}
	.st217{fill:#E44D75;}
	.st218{fill:#E86B8C;}
	.st219{fill:#EE7A9C;}
	.st220{fill:#F5A8C0;}
	.st221{fill:#FACBDA;}
	.st222{fill:#E65A7D;}
	.st223{fill:#E04169;}
	.st224{fill:#FEF5F9;}
	.st225{fill:#F191B0;}
	.st226{fill:#EA7292;}
	.st227{fill:#F6B4C9;}
	.st228{fill:#FBD8E5;}
	.st229{fill:#E96C8F;}
	.st230{fill:#E35477;}
	.st231{fill:#EA7396;}
	.st232{fill:#EB7A9D;}
	.st233{fill:#E8698D;}
	.st234{fill:#EB7094;}
	.st235{fill:#E04B6E;}
	.st236{fill:#E66085;}
	.st237{fill:#EB7294;}
	.st238{fill:#E7678C;}
	.st239{fill:#EA6D91;}
	.st240{fill:#E14C71;}
	.st241{fill:#EE7A9D;}
	.st242{fill:#F393B2;}
	.st243{fill:#DC3F64;}
	.st244{fill:#EF82A3;}
	.st245{fill:#F39DB9;}
	.st246{fill:#DF466B;}
	.st247{fill:#DF4469;}
	.st248{fill:#F29A98;}
	.st249{fill:#E64F4D;}
	.st250{fill:#E74947;}
	.st251{fill:#E85956;}
	.st252{fill:#EC7775;}
	.st253{fill:#F8BCBA;}
	.st254{fill:#EC6F6D;}
	.st255{fill:#FCE2E2;}
	.st256{fill:#F8C8C6;}
	.st257{fill:#F08B89;}
	.st258{fill:#F18A89;}
	.st259{fill:#B093A4;}
	.st260{fill:#A38295;}
	.st261{fill:#6F455A;}
	.st262{fill:#694055;}
	.st263{fill:#794F64;}
	.st264{fill:#936F83;}
	.st265{fill:#CDB7C1;}
	.st266{fill:#B596A5;}
	.st267{fill:#A58394;}
	.st268{fill:#8C667A;}
	.st269{fill:#B696A7;}
	.st270{fill:#E8E0E7;}
	.st271{fill:#E1BCC2;}
	.st272{fill:#A9666E;}
	.st273{fill:#681C23;}
	.st274{fill:#641920;}
	.st275{fill:#73242D;}
	.st276{fill:#8D3F48;}
	.st277{fill:#C69197;}
	.st278{fill:#893841;}
	.st279{fill:#E3CCCE;}
	.st280{fill:#6F292E;}
	.st281{fill:#A15A63;}
	.st282{fill:#944952;}
	.st283{fill:#944953;}
	.st284{fill:#964A53;}
	.st285{fill:#984B54;}
	.st286{fill:#974A53;}
	.st287{fill:#A25A62;}
	.st288{fill:#D2BCC8;}
	.st289{fill:#C8B2BE;}
	.st290{fill:#936A80;}
	.st291{fill:#8E667B;}
	.st292{fill:#9B7589;}
	.st293{fill:#B293A3;}
	.st294{fill:#916B7F;}
	.st295{fill:#DDCCD6;}
	.st296{fill:#AC8B9C;}
	.st297{fill:#F1EBEF;}
	.st298{fill:#9C7A8C;}
	.st299{fill:#8F6C80;}
	.st300{fill:#B99DAC;}
	.st301{fill:#A27F91;}
	.st302{fill:#C2A7B6;}
	.st303{fill:#AB8E9F;}
	.st304{fill:#936D82;}
	.st305{fill:#856174;}
	.st306{fill:#B99DAB;}
	.st307{fill:#C2A9B6;}
	.st308{fill:#A38091;}
	.st309{fill:#BBA3B0;}
	.st310{fill:#7A5468;}
	.st311{fill:#855F73;}
	.st312{fill:#AE8E9F;}
	.st313{fill:#7C556A;}
	.st314{fill:#7B5066;}
	.st315{fill:#855C71;}
	.st316{fill:#AF8E9F;}
	.st317{fill:#734B60;}
	.st318{fill:#694256;}
	.st319{fill:#916A80;}
	.st320{fill:#886378;}
	.st321{fill:#875C71;}
	.st322{fill:#714B5E;}
	.st323{fill:#582F42;}
	.st324{fill:#795066;}
	.st325{fill:#5E3A4B;}
	.st326{fill:#8A6578;}
	.st327{fill:#A98E9D;}
	.st328{fill:#B9A1B1;}
	.st329{fill:#B08F9F;}
	.st330{fill:#B898AA;}
	.st331{fill:#896578;}
	.st332{fill:#653C50;}
	.st333{fill:#623A4E;}
	.st334{fill:#6C4257;}
	.st335{fill:#B28FA1;}
	.st336{fill:#80596E;}
	.st337{fill:#7F586C;}
	.st338{fill:#765063;}
	.st339{fill:#683F53;}
	.st340{fill:#774E63;}
	.st341{fill:#704B5F;}
	.st342{fill:#674355;}
	.st343{fill:#7F5A6E;}
	.st344{fill:#815A6E;}
	.st345{fill:#6A4558;}
	.st346{fill:#5D374A;}
	.st347{fill:#926D80;}
	.st348{fill:#70475B;}
	.st349{fill:#72495E;}
	.st350{fill:#673D52;}
	.st351{fill:#673D51;}
	.st352{fill:#60364B;}
	.st353{fill:#795265;}
	.st354{fill:#683F52;}
	.st355{fill:#7A5368;}
	.st356{fill:#987387;}
	.st357{fill:#70475C;}
	.st358{fill:#A07D92;}
	.st359{fill:#81596E;}
	.st360{fill:#926C7F;}
	.st361{fill:#80596D;}
	.st362{fill:#CDC0E4;}
	.st363{fill:#A998CF;}
	.st364{fill:#644DA1;}
	.st365{fill:#5E479E;}
	.st366{fill:#6F56A9;}
	.st367{fill:#755CAC;}
	.st368{fill:#8975BA;}
	.st369{fill:#C4BAE0;}
	.st370{fill:#755DAD;}
	.st371{fill:#846DB7;}
	.st372{fill:#E7E2F2;}
	.st373{fill:#9B89C5;}
	.st374{fill:#8871B8;}
	.st375{fill:#9C89C6;}
	.st376{fill:#8673B9;}
	.st377{fill:#B9E1BA;}
	.st378{fill:#ADDBAE;}
	.st379{fill:#99D09A;}
	.st380{fill:#65B567;}
	.st381{fill:#5FB261;}
	.st382{fill:#70BB71;}
	.st383{fill:#8DCB8E;}
	.st384{fill:#CBE9CB;}
	.st385{fill:#86C687;}
	.st386{fill:#98D099;}
	.st387{fill:#EBF5EB;}
	.st388{fill:#B9D6C9;}
	.st389{fill:#8EBD9E;}
	.st390{fill:#7DB18E;}
	.st391{fill:#408251;}
	.st392{fill:#3A7F4C;}
	.st393{fill:#4A8C5B;}
	.st394{fill:#68A279;}
	.st395{fill:#B5D4BE;}
	.st396{fill:#7CB38B;}
	.st397{fill:#619D71;}
	.st398{fill:#E0ECE4;}
	.st399{fill:#74A38C;}
	.st400{fill:#679880;}
	.st401{fill:#669780;}
	.st402{fill:#669881;}
	.st403{fill:#285E41;}
	.st404{fill:#235A3C;}
	.st405{fill:#31684A;}
	.st406{fill:#4D8268;}
	.st407{fill:#A1C2B0;}
	.st408{fill:#679981;}
	.st409{fill:#467B62;}
	.st410{fill:#D6E5DF;}
	.st411{fill:#8ECA8F;}
	.st412{fill:#7DC07F;}
	.st413{fill:#409841;}
	.st414{fill:#3A933C;}
	.st415{fill:#4AA14B;}
	.st416{fill:#68B569;}
	.st417{fill:#7CC07D;}
	.st418{fill:#B5DDB5;}
	.st419{fill:#61B062;}
	.st420{fill:#7CC17E;}
	.st421{fill:#E0EFE0;}
	.st422{fill:#EBF5DE;}
	.st423{fill:#D4EAB8;}
	.st424{fill:#D2E9B4;}
	.st425{fill:#D8ECBE;}
	.st426{fill:#E2F0CE;}
	.st427{fill:#F3F9EA;}
	.st428{fill:#DFF0CA;}
	.st429{fill:#FAFDF7;}
	.st430{fill:#D3C9BE;}
	.st431{fill:#CBBEB3;}
	.st432{fill:#BBAC9F;}
	.st433{fill:#97826F;}
	.st434{fill:#947E69;}
	.st435{fill:#9F8A79;}
	.st436{fill:#B5A495;}
	.st437{fill:#DED6CE;}
	.st438{fill:#BBAD9F;}
	.st439{fill:#AE9E8D;}
	.st440{fill:#F2EFEC;}
	.st441{fill:#B1A091;}
	.st442{fill:#B1A090;}
	.st443{fill:#D8BACF;}
	.st444{fill:#976286;}
	.st445{fill:#905778;}
	.st446{fill:#4F1939;}
	.st447{fill:#4C1637;}
	.st448{fill:#5A2144;}
	.st449{fill:#773B60;}
	.st450{fill:#B88FAD;}
	.st451{fill:#6E345A;}
	.st452{fill:#8E567D;}
	.st453{fill:#E1CCDA;}
	.st454{fill:#C4E2A7;}
	.st455{fill:#93C35F;}
	.st456{fill:#8EC15A;}
	.st457{fill:#9AC868;}
	.st458{fill:#B0D587;}
	.st459{fill:#DCEBC3;}
	.st460{fill:#C8E0AA;}
	.st461{fill:#ABD280;}
	.st462{fill:#CAE2A9;}
	.st463{fill:#EFF8E7;}
	.st464{fill:#FFF6C0;}
	.st465{fill:#FFEC97;}
	.st466{fill:#FFDC4B;}
	.st467{fill:#FFD945;}
	.st468{fill:#FFDD54;}
	.st469{fill:#FFE774;}
	.st470{fill:#FFF4BA;}
	.st471{fill:#FFE46C;}
	.st472{fill:#FFF9E2;}
	.st473{fill:#FDE2C1;}
	.st474{fill:#F9CA98;}
	.st475{fill:#F9C18A;}
	.st476{fill:#F5994E;}
	.st477{fill:#F49448;}
	.st478{fill:#F8A158;}
	.st479{fill:#F8B577;}
	.st480{fill:#FCDDBC;}
	.st481{fill:#F8B06F;}
	.st482{fill:#FFEFE2;}
	.st483{fill:#F8A7A4;}
	.st484{fill:#EF8262;}
	.st485{fill:#EC605A;}
	.st486{fill:#EB5B55;}
	.st487{fill:#EC6964;}
	.st488{fill:#F28783;}
	.st489{fill:#F9C4C1;}
	.st490{fill:#F2817A;}
	.st491{fill:#EB6449;}
	.st492{fill:#FCE7E7;}
	.st493{fill:#FFEA88;}
	.st494{fill:#FFEB87;}
	.st495{fill:#FDF2E3;}
	.st496{fill:#FDEFDD;}
	.st497{fill:#F9E1C4;}
	.st498{fill:#FADEB9;}
	.st499{fill:#FADDB7;}
	.st500{fill:#FAE0BF;}
	.st501{fill:#FBE9CF;}
	.st502{fill:#F9DAB8;}
	.st503{fill:#FDF5EB;}
	.st504{fill:#FBE6CB;}
	.st505{fill:#FFFBF7;}
	.st506{fill:#FBDFBE;}
	.st507{fill:#F7D8B5;}
	.st508{fill:#FBE8CF;}
	.st509{fill:#FBE3C8;}
	.st510{fill:#F9E8CF;}
	.st511{fill:#F8DBB7;}
	.st512{fill:#FADBB5;}
	.st513{fill:#F7D5AE;}
	.st514{fill:#FDE9D5;}
	.st515{fill:#FAE3C8;}
	.st516{fill:#F7D1A4;}
	.st517{fill:#F5CD9D;}
	.st518{fill:#F7D8B0;}
	.st519{fill:#F8D4A9;}
	.st520{fill:#F8D3A6;}
	.st521{fill:#F8D8AF;}
	.st522{fill:#F7CD9E;}
	.st523{fill:#F4C896;}
	.st524{fill:#FBE3C5;}
	.st525{fill:#F7DBB8;}
	.st526{fill:#F7D8B1;}
	.st527{fill:#F7D7B0;}
	.st528{fill:#F8CD9F;}
	.st529{fill:#F8CD9E;}
	.st530{fill:#F1BE84;}
	.st531{fill:#F8D0A3;}
	.st532{fill:#F1C38D;}
	.st533{fill:#F8D8B1;}
	.st534{fill:#FBE2C8;}
	.st535{fill:#F9EAD3;}
	.st536{fill:#F9D3AA;}
	.st537{fill:#F7C896;}
	.st538{fill:#F7C794;}
	.st539{fill:#F7CA9A;}
	.st540{fill:#F7D3AB;}
	.st541{fill:#F8D8B5;}
	.st542{fill:#F9E6CF;}
	.st543{fill:#F7C897;}
	.st544{fill:#F8D3AA;}
	.st545{fill:#F7CEA2;}
	.st546{fill:#F4CD9E;}
	.st547{fill:#F5D2A5;}
	.st548{fill:#FBE2C2;}
	.st549{fill:#F5D1A8;}
	.st550{fill:#F8D5AB;}
	.st551{fill:#F2C695;}
	.st552{fill:#F8D3A8;}
	.st553{fill:#F5C998;}
	.st554{fill:#F5C894;}
	.st555{fill:#F2C997;}
	.st556{fill:#F2C48D;}
	.st557{fill:#F4C694;}
	.st558{fill:#F5CE9D;}
	.st559{fill:#F4C594;}
	.st560{fill:#F5C995;}
	.st561{fill:#F4C48F;}
	.st562{fill:#F7D2A6;}
	.st563{fill:#F8DFBB;}
	.st564{fill:#FBE2C3;}
	.st565{fill:#F8CC9E;}
	.st566{fill:#FADFC1;}
	.st567{fill:#F9D8B5;}
	.st568{fill:#F4C997;}
	.st569{fill:#F9DDB8;}
	.st570{fill:#FDFCED;}
	.st571{fill:#FBF7D2;}
	.st572{fill:#F9F6CB;}
	.st573{fill:#F4EBA8;}
	.st574{fill:#F5E9A6;}
	.st575{fill:#F5EDAC;}
	.st576{fill:#F7F5C0;}
	.st577{fill:#FBFBE1;}
	.st578{fill:#F7F0BE;}
	.st579{fill:#FAF6CE;}
	.st580{fill:#FFFBF5;}
	.st581{fill:#BDDB97;}
	.st582{fill:#BBDC99;}
	.st583{fill:#BDDD99;}
	.st584{fill:#B0D484;}
	.st585{fill:#AFD484;}
	.st586{fill:#FFEA87;}
	.st587{fill:#D3E9BA;}
	.st588{fill:#E1EECE;}
	.st589{fill:#D3E8BB;}
	.st590{fill:#E3EECE;}
	.st591{opacity:0.9;}
	.st592{fill:#FFF8CD;}
	.st593{opacity:0.9;fill:#FFEE8A;}
	.st594{fill:#FFF19E;}
	.st595{fill:#FFF5B6;}
	.st596{fill:#FFFBE0;}
	.st597{fill:none;stroke:#FFF4B1;stroke-width:0;}
	.st598{fill:#FFFDF3;}
	.st599{fill:#FACEDD;}
	.st600{opacity:0.9;fill:#F38CAF;}
	.st601{fill:#F5A0BD;}
	.st602{fill:#F8B8CD;}
	.st603{fill:#FCE1EA;}
	.st604{fill:none;stroke:#F7B2C9;stroke-width:0;}
	.st605{fill:#FEF3F7;}
	.st606{fill:#FBDBB6;}
	.st607{fill:#FBD1A3;}
	.st608{fill:#F9B674;}
	.st609{fill:#F8B36E;}
	.st610{fill:#FABB7E;}
	.st611{fill:#FACB99;}
	.st612{fill:#FDE9D1;}
	.st613{fill:#FAC893;}
	.st614{fill:#F9D0A1;}
	.st615{fill:#FFF5EC;}
	.st616{fill:#D7ECC0;}
	.st617{fill:#B1D684;}
	.st618{fill:#ADD680;}
	.st619{fill:#B7D98D;}
	.st620{fill:#C8E2A7;}
	.st621{fill:#E8F2D6;}
	.st622{fill:#C3E0A0;}
	.st623{fill:#F5FAEF;}
	.st624{fill:#A87699;}
	.st625{fill:#A9716E;}
	.st626{fill:#9F698A;}
	.st627{fill:#9F698D;}
	.st628{fill:#65294F;}
	.st629{fill:#632638;}
	.st630{fill:#62244A;}
	.st631{fill:#612335;}
	.st632{fill:#6E3259;}
	.st633{fill:#6D2F40;}
	.st634{fill:#8B4E74;}
	.st635{fill:#C4A1BB;}
	.st636{fill:#9D688D;}
	.st637{fill:#82476E;}
	.st638{fill:#E7D6E1;}
	.st639{fill:#FFF9D6;}
	.st640{fill:#FFF2A6;}
	.st641{fill:#FFF4B0;}
	.st642{fill:#FFF7C4;}
	.st643{fill:#FFFCE6;}
	.st644{fill:#FFF3B5;}
	.st645{fill:#FFED8B;}
	.st646{fill:#FFED94;}
	.st647{fill:#FFF1A4;}
	.st648{fill:#FFF5BF;}
	.st649{fill:#FFF6CD;}
	.st650{fill:#FFE46E;}
	.st651{fill:#FFED98;}
	.st652{fill:#FFF3A9;}
	.st653{fill:#FFEC8D;}
	.st654{fill:#FFE66B;}
	.st655{fill:#FFEC8A;}
	.st656{fill:#FFE66D;}
	.st657{fill:#FFE571;}
	.st658{fill:#FFEF94;}
	.st659{fill:#FFEF9E;}
	.st660{fill:#FFED93;}
	.st661{fill:#FFE873;}
	.st662{fill:#FFE97A;}
	.st663{fill:#FFEC87;}
	.st664{fill:#FFF19F;}
	.st665{fill:#FFF1A8;}
	.st666{fill:#FFEA7E;}
	.st667{fill:#FFEB86;}
	.st668{fill:#FFEF97;}
	.st669{fill:#FFF2B0;}
	.st670{fill:#FFF4BC;}
	.st671{fill:#FFF5C1;}
	.st672{fill:#FFF8CF;}
	.st673{fill:#FFF8DC;}
	.st674{fill:#FFF0A0;}
	.st675{fill:#FFEE92;}
	.st676{fill:#FFF6CE;}
	.st677{fill:#FFFADD;}
	.st678{fill:#FFFBEC;}
	.st679{fill:#FFFDF5;}
	.st680{fill:#F49C52;}
	.st681{fill:#F69D52;}
	.st682{fill:#F8A55E;}
	.st683{fill:#F8B472;}
	.st684{fill:#F59D54;}
	.st685{fill:#F8A65F;}
	.st686{fill:#F8B474;}
	.st687{fill:#FDF3E9;}
	.st688{fill:#FAE8D1;}
	.st689{fill:#FAE8CF;}
	.st690{fill:#FAEBD4;}
	.st691{fill:#F9EDD7;}
	.st692{fill:#FBEFDE;}
	.st693{fill:#FBEFDD;}
	.st694{fill:#FDF8F1;}
	.st695{fill:#FBEDD7;}
	.st696{fill:#FBEFDC;}
	.st697{fill:#FFFBFA;}
	.st698{fill:#FFE771;}
	.st699{fill:#FFEB83;}
	.st700{fill:#FFED90;}
	.st701{fill:#F7B6CB;}
	.st702{fill:#F4A2BB;}
	.st703{fill:#EE7397;}
	.st704{fill:#ED6D94;}
	.st705{fill:#EF7C9F;}
	.st706{fill:#F399B5;}
	.st707{fill:#FAD1DE;}
	.st708{fill:#F291AE;}
	.st709{fill:#F3A1BB;}
	.st710{fill:#FDECF2;}
</style>
<g>
	<path class="st77" d="M73.9,131.71c0.74,0.04,1.48,0.09,2.23,0.13l0,0C75.37,131.79,74.63,131.75,73.9,131.71L73.9,131.71
		 M73.83,131.7L73.83,131.7c0.02,0,0.04,0,0.06,0C73.88,131.7,73.86,131.7,73.83,131.7L73.83,131.7 M65.2,130.67
		c1.09,0.24,2.22,0.43,3.38,0.58l0,0l0,0C67.43,131.11,66.3,130.92,65.2,130.67L65.2,130.67 M101.31,129.22L101.31,129.22
		c-1.47,0.56-2.92,1.01-4.27,1.38c-1.31,0.35-2.5,0.61-3.5,0.8c-2,0.37-3.26,0.51-3.26,0.51c-0.47,0.03-0.94,0.06-1.41,0.09l0,0
		c0.47-0.02,0.94-0.05,1.41-0.09c0,0,1.25-0.14,3.26-0.51c1-0.19,2.19-0.45,3.5-0.8C98.39,130.23,99.84,129.79,101.31,129.22
		L101.31,129.22 M111.91,123.4L111.91,123.4c-0.65,0.5-1.37,1.01-2.13,1.52l0,0c-0.04,0.03-0.08,0.05-0.12,0.08
		c0.04-0.03,0.08-0.05,0.12-0.08C110.54,124.41,111.26,123.9,111.91,123.4 M121.06,114.15
		C121.06,114.15,121.06,114.15,121.06,114.15c-0.06,0.08-0.11,0.15-0.17,0.22l0,0C120.95,114.3,121,114.23,121.06,114.15
		C121.06,114.15,121.06,114.15,121.06,114.15 M127.6,94.3L127.6,94.3c-0.03,0.31-0.06,0.63-0.09,0.95l0,0
		c-0.22,2.09-0.58,4.32-1.12,6.51c-0.01,0.03-0.02,0.07-0.03,0.1c-0.55,2.22-1.29,4.4-2.08,6.26c-0.03,0.07-0.05,0.13-0.08,0.19
		c-0.75,1.77-1.56,3.24-2.15,4.25l0,0l0,0l0,0c0.61-1.05,1.46-2.58,2.23-4.44c0.79-1.86,1.53-4.03,2.08-6.26
		c0.55-2.23,0.92-4.49,1.14-6.62C127.54,94.93,127.57,94.62,127.6,94.3 M126.67,78.35L126.67,78.35c0.29,0.71,0.54,1.81,0.72,3.14
		l0,0C127.2,80.16,126.96,79.06,126.67,78.35 M125.85,70.95L125.85,70.95c0.01,0.1,0.03,0.2,0.04,0.3c0.25,1.87,0.43,3.62,0.54,4.87
		c0.08,1,0.14,1.72,0.16,1.96l0,0c-0.02-0.24-0.08-0.96-0.16-1.96l0,0c-0.11-1.25-0.29-3-0.54-4.87l0,0
		C125.88,71.16,125.86,71.06,125.85,70.95 M107.49,39.79L107.49,39.79c3.33,1.8,6.05,4.09,8.18,6.38c2.59,2.76,4.33,5.53,5.57,7.9
		c1.23,2.37,1.97,4.37,2.41,5.75c0.44,1.39,0.61,2.17,0.61,2.17c0.01,0.17,0.05,0.4,0.1,0.69l0,0c-0.05-0.28-0.08-0.51-0.1-0.69
		c0,0,0,0,0,0c-0.01-0.02-0.18-0.8-0.61-2.17l0,0c-0.02-0.05-0.03-0.1-0.05-0.15c-0.44-1.38-1.17-3.31-2.36-5.61l0,0
		c-0.04-0.07-0.08-0.15-0.12-0.22c-1.23-2.32-2.95-5-5.45-7.67l0,0C113.55,43.88,110.82,41.59,107.49,39.79"/>
	<path class="st78" d="M90.22,35.11c-1.06,0-2.12,0.05-3.18,0.14c-3.52,0.32-6.98,1.18-10.27,2.57c-1.81,0.82-3.58,1.72-5.27,2.86
		l-1.24,0.84l-1.17,0.91c-0.8,0.6-1.51,1.26-2.25,1.92c-1.65,1.56-3.08,3.2-4.34,4.88c-0.29,0.02-0.59,0.04-0.89,0.08
		c-1.82,0.18-3.77,0.55-5.53,0.98c-0.96,0.26-2.1,0.61-3.29,1.35c-1.22,0.74-2.27,1.87-2.94,2.94c-1.16,1.86-1.67,3.49-2.16,4.8
		c-0.46,1.35-1.02,2.63-1.43,3.9c-0.36,1.01-0.74,2-1.08,2.96c0.34-0.63,1.25-2.33,2.43-4.64c0.01-0.04,0.02-0.08,0.03-0.13
		c0.24-1.02,0.44-2,0.72-3.05c0.3-1.06,0.67-2.26,1.37-3.54c0.65-1.08,1.62-2.23,2.84-3.04c1.19-0.8,2.36-1.19,3.35-1.46
		c1-0.26,1.78-0.41,2.78-0.6c0.95-0.17,1.88-0.32,2.81-0.41c0.84-0.09,1.67-0.13,2.49-0.13c2.53,0,4.92,0.44,6.92,1.42
		c0.64-0.95,1.38-1.89,2.23-2.81c1.47-1.6,3.35-3.15,5.55-4.39c3.29-1.84,7.42-3.01,11.81-3.01c0.4,0,0.81,0.01,1.21,0.03
		c4.87,0.18,10.12,1.97,14.48,5.25c4.31,3.23,7.61,7.53,9.84,12.1c1.12,2.27,2.01,4.71,2.64,7.06c0.64,2.35,1.05,4.68,1.31,6.94
		c0,0,0.12,1.09,0.47,3.1c0.36,2.01,0.91,4.96,1.82,8.57c0,0,0.1,1.2,0.19,3.08c0.03,0.86,0.07,1.9,0.07,3.12l0,0
		c0,1.47-0.06,3.2-0.25,5.16c-0.35,3.55-1.3,8.04-3.45,12.22c-2.15,4.27-5.26,7.46-7.88,9.1c0,0-0.11,0.08-0.31,0.25
		c-0.2,0.16-0.5,0.4-0.89,0.68c-0.77,0.58-1.9,1.39-3.33,2.23c-2.85,1.73-6.89,3.53-11.4,4.64c-4.45,1.11-9.13,1.48-13.25,1.51
		c-0.33,0-0.66,0.01-0.99,0.01c-1.7,0-3.3-0.04-4.77-0.09c-2.19-0.07-4.19-0.14-5.93-0.2c0,0-0.73-0.19-1.91-0.56
		c-1.18-0.37-2.79-0.92-4.52-1.81c-1.73-0.87-3.52-2.16-5.09-3.65c-0.4-0.38-0.79-0.76-1.17-1.15c-0.35-0.32-0.67-0.63-0.95-0.92
		c-0.74-0.76-1.31-1.39-1.67-1.84c-0.36-0.45-0.55-0.69-0.55-0.69l0,0l0,0l0,0l0,0c0.98,1.11,2.04,2.3,3.17,3.45
		c1.18,1.08,2.73,2.31,4.76,3.25c-2-0.99-3.73-2.4-5.23-3.96c-1.63-1.65-2.88-3.58-4.19-5.34c-0.69-0.93-1.03-1.58-1.51-2.31
		c-0.44-0.71-0.89-1.4-1.25-2.1c-0.75-1.39-1.46-2.68-1.98-3.9c-0.55-1.21-1.03-2.31-1.34-3.3c-0.34-0.98-0.61-1.8-0.77-2.46
		c-0.12-0.56-0.18-1-0.18-1.3l0,0c0-0.06,0-0.11,0.01-0.15c0,0-0.11-0.37-0.29-1.02c-0.2-0.65-0.44-1.6-0.69-2.77
		c-0.13-0.58-0.27-1.22-0.42-1.89c-0.11-0.68-0.23-1.41-0.36-2.17c-0.28-1.51-0.4-3.17-0.58-4.87c-0.09-1.52-0.15-3.08-0.15-4.61
		l0,0c0-1.91,0.09-3.79,0.3-5.51c0.13-1.55,0.44-2.98,0.65-4.19c0.12-0.59,0.26-1.13,0.4-1.61c-0.32,0.88-0.65,1.74-0.93,2.59
		c-1.65,4.58-3.09,8.57-4.34,12.03c-0.25,0.61-0.54,1.22-0.82,1.84c-0.26,0.62-0.53,1.25-0.8,1.89c-0.54,1.3-1.05,2.72-1.33,4.35
		c-0.21,1.06-0.34,2.22-0.34,3.51c0,2.69,0.56,5.91,2.18,9.81c0.68,1.69,1.58,3.29,2.39,4.88c0.91,1.55,1.8,3.1,2.8,4.56l1.53,2.2
		l0.44,0.62l0.58,0.75l1.16,1.49c0.78,0.98,1.52,1.99,2.33,2.93c0.82,0.93,1.68,1.81,2.58,2.63c3.57,3.32,8.02,5.66,12.85,6.69
		c0.1,0.02,0.19,0.04,0.29,0.06c-0.51-0.11-1.01-0.24-1.5-0.37c-3.1-0.84-5.88-2.18-8.19-3.79c-2.31-1.6-4.19-3.41-5.74-5.14
		c-1.5-1.78-2.73-3.44-3.81-4.76c-1.57-2.08-2.47-3.27-2.47-3.27s0.9,1.19,2.47,3.27c1.08,1.32,2.3,2.98,3.81,4.76
		c1.56,1.73,3.43,3.54,5.74,5.14c2.31,1.6,5.09,2.95,8.19,3.79c0.49,0.13,0.99,0.26,1.5,0.37l0,0c-0.51-0.11-1.01-0.24-1.5-0.37
		c-3.1-0.84-5.88-2.18-8.19-3.79c-2.31-1.6-4.19-3.41-5.74-5.14c-1.5-1.78-2.73-3.44-3.81-4.76c-1.57-2.08-2.47-3.27-2.47-3.27
		s0.9,1.19,2.47,3.27c1.08,1.32,2.3,2.98,3.81,4.76c1.56,1.73,3.43,3.54,5.74,5.14c2.31,1.6,5.09,2.95,8.19,3.79
		c0.49,0.13,0.99,0.26,1.5,0.37l0,0c-0.51-0.11-1.01-0.24-1.5-0.37c-3.1-0.84-5.88-2.18-8.19-3.79c-2.31-1.6-4.19-3.41-5.74-5.14
		c-1.5-1.78-2.73-3.44-3.81-4.76c-1.57-2.08-2.47-3.27-2.47-3.27s0.9,1.19,2.47,3.27c1.08,1.32,2.3,2.98,3.81,4.76
		c1.56,1.73,3.43,3.54,5.74,5.14c2.31,1.6,5.09,2.95,8.19,3.79c0.49,0.13,0.99,0.26,1.5,0.37c2.32,0.51,4.74,0.72,7.2,0.91
		c1.23,0.09,2.47,0.17,3.72,0.26c0.55,0.03,1.11,0.07,1.66,0.1l0,0c1.25,0.07,2.56,0.11,3.9,0.15c0.79,0.02,1.6,0.03,2.42,0.03
		c1.54,0,3.13-0.03,4.76-0.12c1.66-0.15,3.34-0.38,5.06-0.71c2.66-0.51,5.53-1.32,8.36-2.47c2.84-1.16,5.71-2.68,8.6-4.74
		c0.24-0.15,0.59-0.38,1.01-0.68c1.48-1.13,2.62-2.19,3.27-2.91c2.03-1.76,3.97-3.8,5.72-6.12c1.12-1.79,2.18-3.75,3.03-5.7
		c0.93-2.11,1.63-4.2,2.17-6.19c0.8-2.98,1.25-5.73,1.5-8.18c0.16-1.77,0.22-3.43,0.23-4.92l0,0c0-0.16,0-0.31,0-0.46l0,0
		c0-1.57-0.05-2.91-0.13-4.2c-0.07-1.15-0.17-2.26-0.31-3.24c-0.18-1.09-0.42-2.15-0.72-3.14c-0.02-0.06-0.05-0.11-0.07-0.17
		c0,0,0-0.03-0.01-0.09c-0.02-0.06-0.04-0.11-0.06-0.17c-0.2-2.44-0.41-4.75-0.68-6.96c-0.25-1.78-0.56-3.66-0.88-5.27
		c-0.24-1.23-0.47-2.28-0.6-3.01c-0.12-0.48-0.25-0.96-0.38-1.43c-0.74-2.62-1.69-5.12-3-7.61c-1.31-2.48-3-4.98-5.35-7.43
		c-2.34-2.41-5.03-4.6-8.15-6.41c-0.67-0.36-1.36-0.7-2.07-1.02c0.71,0.32,1.4,0.66,2.07,1.02l0,0c-0.67-0.36-1.36-0.7-2.07-1.02
		c0.71,0.32,1.4,0.66,2.07,1.02l0,0c-0.67-0.36-1.36-0.7-2.07-1.02c0.71,0.32,1.4,0.66,2.07,1.02c-0.01-0.01-0.02-0.01-0.04-0.02
		c-3.12-1.84-6.49-3.13-9.96-3.89C95.06,35.36,92.64,35.11,90.22,35.11"/>
	<path class="st78" d="M94.43,48.84c0,0-0.15,0.06-0.38,0.17c-0.06,0.03-0.12,0.07-0.19,0.11c0.08,0,0.15,0,0.23,0
		c0.23,0,0.47,0.01,0.71,0.02c2.2,0.08,4.65,0.68,7,1.84c0.38,0.18,0.75,0.38,1.12,0.59C100.31,49.95,97.33,48.94,94.43,48.84"/>
	<path class="st78" d="M63.74,57.33c-0.07,0-0.15,0-0.22,0c-0.92,0.15-2.68,0.4-3.27,0.79c-0.15,0.09-0.31,0.18-0.48,0.27
		c-0.18,0.09-0.45,0.19-0.66,0.28c-0.44,0.18-0.81,0.34-1.01,0.48c-0.1,0.04-0.18,0.08-0.21,0.1l-0.01,0.01l-0.01,0.02
		c-0.1,0.12-0.37,0.65-0.61,1.43c-0.13,0.38-0.25,0.87-0.37,1.34c-0.12,0.47-0.24,0.94-0.36,1.4c-0.28,0.92-0.41,1.87-0.62,2.8
		c-0.74,3.74-1.16,7.5-1.24,11.47c0.13,4.21,0.79,7.79,1.72,11.28c0.95,3.48,2.18,6.88,3.97,10.69c0.44,0.9,0.85,1.79,1.32,2.62
		c0.48,0.81,0.99,1.68,1.43,2.38c0.89,1.28,1.72,2.55,2.76,3.65c1.01,1.11,2.27,2.03,3.75,2.47c1.47,0.47,3.03,0.63,4.7,0.92
		c0.28,0.03,0.56,0.07,0.84,0.1c0.32,0.03,0.64,0.06,0.96,0.09c0.64,0.05,1.27,0.09,1.89,0.11c0.55,0.02,1.09,0.03,1.63,0.03
		c0.66,0,1.31-0.02,1.96-0.05c2.32-0.13,4.53-0.48,6.71-1.14c2.18-0.66,4.29-1.61,6.36-3.04c2.04-1.43,4.01-3.33,5.43-5.77
		c0.74-1.3,1.6-3.12,2.04-5.65c0.33-1.75,0.46-3.82,0.46-6.08c0-0.99-0.03-2.02-0.07-3.08c-0.14-3.55-0.36-7.08-0.77-9.88
		c-0.4-2.83-0.99-5.03-1.55-6.35c-0.13-0.26-0.26-0.52-0.38-0.79c0.05,0.97,0.08,2.06,0.08,3.18l0,0c0,0.27,0,0.55-0.01,0.83
		c-0.02,3.67-0.39,7.18-0.53,7.18c-0.03,0-0.05-0.14-0.05-0.46c-0.06,0.5-0.57,1.28-0.91,1.3c-0.22-0.2-0.6-0.18-0.67-0.59
		c-0.29-1.65-0.83-2.47-1.41-3.06c-0.58-0.58-1.22-0.94-1.77-1.47c-0.08,0.09-0.17,2.11-0.68,4.27c-0.26,1.07-0.64,2.17-1.14,3.03
		c-0.5,0.87-1.11,1.5-1.65,1.73c-0.86,0.32-1.74,0.37-2.62,0.4c-0.44,0.01-0.89,0.02-1.35,0.04c-0.39,0.3-0.79,0.58-1.19,0.86
		c-0.72,0.54-1.5,1.04-2.36,1.43c-0.58,0.28-1.22,0.46-1.68,0.46c-0.22,0-0.39-0.04-0.51-0.13c-0.15-0.07-0.29-0.23-0.43-0.47
		c-0.01,0-0.01,0-0.02,0c-0.63,0.09-1.35,0.19-2.11,0.19c-0.42,0-0.86-0.03-1.29-0.11c-1.25-0.21-2.25-1.01-2.95-1.99
		c-1.42-1.97-2.77-4.54-3.6-6.93c-0.71-2.05-1.05-3.89-1.05-4.8l0,0c0-0.15,0.01-0.27,0.03-0.36c0.07-0.38,0.22-0.93,0.38-1.42
		c0.15-0.49,0.37-0.94,0.57-1.32c0.32-0.58,0.67-0.95,0.94-0.95c0.08,0,0.15,0.03,0.21,0.09c0.18,0.07,0.35,0.1,0.51,0.1
		c0.67,0,1.24-0.51,1.86-1.07c0.63-0.63,1.29-1.21,2-1.52c-0.56-0.7-1.2-1.69-1.62-2.45c-0.3-0.52-0.6-1.04-0.89-1.54
		c-1.72,1.94-3.11,4.04-4.18,5.33c-0.5,0.59-0.97,0.96-1.39,0.96c-0.49,0-0.91-0.51-1.18-1.77c0,0-0.03-0.17-0.09-0.5
		c-0.07-0.34-0.13-0.82-0.2-1.46c-0.07-0.7-0.14-1.58-0.14-2.64l0,0c0-0.89,0.05-1.91,0.19-3.04c0.14-1.07,0.35-2.25,0.69-3.51
		C66.42,57.56,65.1,57.33,63.74,57.33"/>
	<path class="st78" d="M94.75,58.81c0.28,0.48,0.58,1.01,0.9,1.61c-0.09-0.37-0.2-0.79-0.35-1.23
		C95.13,59.06,94.94,58.94,94.75,58.81"/>
	<path class="st78" d="M82.05,59.18c0,0-0.98,0.17-2.55,0.95c-0.45,0.22-0.94,0.5-1.45,0.85c0.09,0.49,0.16,0.96,0.21,1.41
		c0.06,0.65,0.09,1.3,0.09,1.93l0,0c0,1.74-0.22,3.37-0.64,4.73c0.08,0.04,0.17,0.07,0.25,0.07c0.01,0,0.03,0,0.04,0
		c0.85-0.28,1.87-0.71,2.68-1.26c0.3-1.76,1.02-3.4,2.07-4.47c0.61-0.65,1.33-1.05,2.08-1.33c0.75-0.27,1.56-0.39,2.47-0.44
		c0.18-0.01,0.37-0.01,0.55-0.01c2.29,0,4.85,0.51,7.24,1.2c0.39,0.11,0.79,0.24,1.18,0.37c-0.09-0.09-0.18-0.18-0.28-0.26
		c0,0,0,0,0,0l0,0c0,0,0,0,0,0c0,0,0,0,0,0l0,0c0,0,0,0,0,0s0,0,0,0l0,0c0,0,0,0,0,0c0-0.03,0-0.54-0.15-1.54
		c-0.26-0.16-0.63-0.37-1.08-0.61c-0.93-0.5-2.2-1-3.39-1.19c-0.97-0.18-1.91-0.22-2.86-0.22c-0.28,0-0.56,0-0.85,0.01
		c-0.85,0.02-1.6,0.06-2.37,0.06c-0.37,0-0.74-0.01-1.14-0.03c-0.01,0-0.03,0-0.04,0C83.5,59.4,82.78,59.28,82.05,59.18"/>
	<path class="st78" d="M103.35,66.91c2.07,4.52,3.12,9.9,3.82,15.4c0.28,2.25,0.55,4.53,0.75,6.79c-0.05-2.37-0.24-4.72-0.42-7.01
		c-0.45-4.96-1.41-9.58-3.12-13.21C104.06,68.18,103.72,67.52,103.35,66.91 M124.37,62.68c0.13,0.73,0.36,1.79,0.6,3.01
		c0.32,1.61,0.63,3.48,0.88,5.27C125.49,68.07,125.03,65.34,124.37,62.68"/>
	<path class="st78" d="M115.59,73.59c0.11,1.23,0.22,2.7,0.27,4.26c0.07,1.72,0.09,3.55,0.09,5.33l0,0c0,0.41,0,0.82,0,1.22
		c0,0.95-0.01,1.89-0.02,2.81c0.06-0.87,0.11-1.79,0.15-2.78c0.03-0.89,0.05-1.85,0.05-2.86c0-1.19-0.03-2.46-0.12-3.82
		C115.93,76.43,115.8,75.04,115.59,73.59"/>
	<path class="st78" d="M126.59,78.09c0,0.06,0.01,0.09,0.01,0.09c0.02,0.05,0.05,0.11,0.07,0.17
		C126.64,78.26,126.61,78.18,126.59,78.09"/>
	<path class="st78" d="M127.38,81.48c0.14,0.98,0.24,2.09,0.31,3.24c0.08,1.29,0.13,2.62,0.13,4.2l0,0l0,0l0,0l0,0l0,0l0,0l0,0l0,0
		l0,0l0,0l0,0c0,0.15,0,0.31,0,0.46l0,0c-0.01,1.49-0.07,3.15-0.23,4.92c0.09-0.84,0.15-1.65,0.2-2.41
		c0.07-1.23,0.11-2.39,0.11-3.45c0-0.23,0-0.46,0-0.68c-0.02-1.24-0.07-2.33-0.17-3.47C127.65,83.34,127.54,82.4,127.38,81.48"/>
	<path class="st78" d="M120.89,114.37c-1.74,2.32-3.68,4.36-5.72,6.12c-0.65,0.72-1.8,1.78-3.27,2.91c1.03-0.72,2.49-1.84,3.92-3.18
		c2.03-1.85,3.93-4.18,4.81-5.43C120.72,114.65,120.81,114.51,120.89,114.37"/>
	<path class="st79" d="M120.89,114.37c-1.74,2.32-3.68,4.36-5.72,6.12c-0.03,0.03-0.06,0.07-0.09,0.1
		c-0.67,0.71-1.77,1.73-3.18,2.81l0,0c1.47-1.13,2.62-2.19,3.27-2.91C117.21,118.73,119.15,116.69,120.89,114.37L120.89,114.37"/>
	<path class="st78" d="M76.12,131.84c0.76,0.05,1.52,0.11,2.29,0.16c1.81,0.14,3.62,0.22,5.45,0.22c1.65,0,3.32-0.07,5-0.22
		c-1.64,0.08-3.23,0.12-4.76,0.12c-0.82,0-1.63-0.01-2.42-0.03c-1.34-0.04-2.65-0.08-3.9-0.15l0,0
		C77.23,131.91,76.67,131.87,76.12,131.84"/>
	<path class="st79" d="M77.79,131.94L77.79,131.94c1.25,0.07,2.56,0.11,3.9,0.15c0.79,0.02,1.6,0.03,2.42,0.03
		c1.54,0,3.13-0.03,4.76-0.12l0,0c-1.64,0.08-3.23,0.12-4.76,0.12c-0.82,0-1.63-0.01-2.42-0.03c-0.04,0-0.08,0-0.13,0
		C80.27,132.05,79,132.01,77.79,131.94L77.79,131.94L77.79,131.94"/>
	<path class="st78" d="M97.2,65.62L97.2,65.62c-0.01,0-0.01,0.01-0.02,0.01C97.19,65.63,97.2,65.62,97.2,65.62"/>
	<polyline class="st78" points="97.17,65.64 97.17,65.65 97.16,65.65 97.16,65.65 97.17,65.64 	"/>
	<path class="st78" d="M80.17,77.03c-0.27,0.99-0.54,2.21-0.91,3.78c-0.02,0.22-0.04,0.42-0.04,0.6c0,0.46,0.08,0.84,0.29,1.16
		c0-0.13,0-0.27,0-0.4l0,0c0-1.32,0.16-2.49,0.43-3.84C80.05,77.94,80.12,77.5,80.17,77.03"/>
	<path class="st78" d="M90.84,75.64c-0.06,0.18-0.13,0.33-0.2,0.47c0.01,0.21,0.03,0.42,0.04,0.63c0.04-0.09,0.09-0.17,0.13-0.25
		C90.82,76.2,90.83,75.92,90.84,75.64"/>
	<path class="st80" d="M64,49.25c-0.82,0-1.65,0.05-2.49,0.13c-0.93,0.09-1.87,0.23-2.81,0.41c-1,0.19-1.78,0.34-2.78,0.6
		c-0.99,0.27-2.16,0.67-3.35,1.46c-1.22,0.81-2.19,1.96-2.84,3.04c-0.7,1.27-1.07,2.47-1.37,3.54c-0.28,1.05-0.48,2.03-0.72,3.05
		c-0.01,0.04-0.02,0.08-0.03,0.13c0.08-0.16,0.16-0.32,0.25-0.48c0.43-0.81,0.82-1.66,1.31-2.63c0.5-0.98,1.06-2.12,1.94-3.29
		c0.83-1.17,2.27-2.32,3.66-2.85c0.69-0.29,1.36-0.49,1.99-0.67c0.62-0.17,1.25-0.34,1.88-0.52c0,0,0.45-0.06,1.2-0.11
		c0.63-0.05,1.47-0.1,2.44-0.1c0.2,0,0.4,0,0.61,0.01c2.13,0.03,4.78,0.43,6.98,1.49c0.32-0.59,0.68-1.18,1.07-1.76
		C68.92,49.69,66.53,49.25,64,49.25"/>
	<path class="st80" d="M66.82,55.48c-0.39,0-0.8,0.02-1.21,0.05c-1.71,0.13-3.49,0.58-4.77,0.93c0,0-0.2,0.04-0.57,0.1
		c-0.38,0.08-0.89,0.17-1.69,0.36c-0.74,0.17-1.48,0.4-1.88,0.64c-0.19,0.11-0.34,0.23-0.55,0.49c-0.2,0.26-0.43,0.64-0.64,1.15
		c-0.44,1.01-0.81,2.65-1.24,4.18c-0.35,1.59-0.74,3.27-0.96,5.05c-0.38,2.62-0.59,5.41-0.59,8.26c0,1.01,0.03,2.03,0.08,3.05
		c0.2,3.89,0.79,7.81,1.73,11.45c0.92,3.64,2.16,6.99,3.42,9.86c0.33,0.71,0.65,1.4,0.95,2.06c0.31,0.66,0.66,1.26,0.96,1.85
		c0.6,1.2,1.18,2.14,1.67,3c0.96,1.73,1.74,2.84,1.93,3.28c0,0,0.16,0.21,0.49,0.59c0.33,0.37,0.84,0.92,1.6,1.49
		c0.76,0.57,1.8,1.11,3.1,1.46c1.29,0.36,2.82,0.54,4.51,0.68c1.7,0.14,3.59,0.26,5.61,0.26c2.01,0,4.15-0.11,6.39-0.42
		c4.45-0.6,9.34-2.09,13.55-5.1c2.1-1.49,4.01-3.34,5.5-5.51c1.52-2.16,2.5-4.66,3.05-7.21c0.51-2.41,0.68-4.84,0.68-7.26
		c0-0.37,0-0.74-0.01-1.11c-0.2-2.26-0.47-4.54-0.75-6.79c-0.7-5.49-1.75-10.88-3.82-15.4c-1.55-2.59-3.5-4.44-5.42-5.42
		c0,0-0.19-0.23-0.56-0.57c-0.36-0.35-0.87-0.84-1.51-1.32c-0.18-0.14-0.37-0.28-0.56-0.42c0.15,0.45,0.26,0.86,0.35,1.23
		c0.21,0.39,0.42,0.8,0.64,1.25l0,0l0,0l0,0l0,0c0,0-0.16-0.11-0.45-0.28C96,62.39,96,62.9,96,62.93l0,0c0,0,0,0,0,0s0,0,0,0l0,0
		c0,0,0,0,0,0s0,0,0,0l0,0c0,0,0,0,0,0c0,0,0,0,0,0c0.09,0.08,0.19,0.17,0.28,0.26c0.25,0.08,0.49,0.17,0.73,0.26
		c0.59,0.22,1.08,0.45,1.43,0.73c0.18,0.15,0.28,0.25,0.42,0.47c0.17,0.26,0.28,0.55,0.36,0.86c0.11,0.43,0.15,0.87,0.15,1.32l0,0
		c0,0.19-0.01,0.38-0.02,0.57c0.02-0.41,0.06-0.6,0.1-0.6c0.12,0,0.28,1.44,0.38,3.43c0.12,0.27,0.24,0.54,0.38,0.79
		c0.56,1.32,1.15,3.52,1.55,6.35c0.41,2.81,0.62,6.33,0.77,9.88c0.05,1.06,0.07,2.09,0.07,3.08l0,0c0,2.27-0.13,4.33-0.46,6.08
		c-0.44,2.53-1.3,4.35-2.04,5.65c-1.42,2.44-3.39,4.34-5.43,5.77c-2.06,1.43-4.18,2.38-6.36,3.04c-2.18,0.65-4.39,1-6.71,1.14
		c-0.64,0.03-1.29,0.05-1.96,0.05c-0.54,0-1.08-0.01-1.63-0.03c-0.62-0.02-1.25-0.06-1.89-0.11c-0.32-0.03-0.64-0.06-0.96-0.09
		c-0.28-0.03-0.55-0.07-0.84-0.1c-1.67-0.29-3.23-0.45-4.7-0.92c-1.48-0.45-2.74-1.36-3.75-2.47c-1.03-1.1-1.86-2.37-2.76-3.65
		c-0.44-0.69-0.95-1.57-1.43-2.38c-0.47-0.83-0.88-1.73-1.32-2.62c-1.79-3.81-3.02-7.21-3.97-10.69c-0.93-3.48-1.58-7.07-1.72-11.28
		l0,0l0,0l0,0l0,0c0.08-3.97,0.5-7.73,1.24-11.47c0.22-0.93,0.35-1.88,0.62-2.8c0.12-0.47,0.24-0.93,0.36-1.4
		c0.12-0.47,0.24-0.96,0.37-1.34c0.24-0.78,0.5-1.31,0.61-1.43l0.01-0.02l0.01-0.01c0.04-0.02,0.11-0.06,0.21-0.1
		c0.2-0.13,0.57-0.3,1.01-0.48c0.21-0.09,0.48-0.19,0.66-0.28c0.17-0.09,0.33-0.18,0.48-0.27c0.59-0.39,2.35-0.64,3.27-0.79
		c0.07,0,0.15,0,0.22,0c1.36,0,2.68,0.23,3.86,0.71c0.21-0.8,0.48-1.63,0.8-2.48C67.94,55.51,67.4,55.48,66.82,55.48"/>
	<path class="st80" d="M78.05,60.98c-1.28,0.86-2.71,2.1-3.99,3.52c-0.05,0.06-0.11,0.12-0.16,0.18c0.29,0.51,0.58,1.02,0.89,1.54
		c0.43,0.75,1.06,1.74,1.62,2.45c0.13-0.05,0.25-0.1,0.38-0.14c0.01,0,0.02,0,0.03,0c0.2,0,0.38,0.15,0.56,0.3
		c0.1,0.08,0.2,0.17,0.31,0.23c0.42-1.36,0.64-2.99,0.64-4.73c0-0.63-0.03-1.28-0.09-1.93C78.21,61.94,78.14,61.47,78.05,60.98"/>
	<path class="st81" d="M94.09,49.13c-0.08,0-0.15,0-0.23,0c-0.2,0.12-0.42,0.28-0.64,0.47c-0.6,0.52-1.15,1.34-1.25,2.37
		c-0.01,0.13-0.02,0.25-0.02,0.39c0,0.95,0.35,2.02,1.02,3.3c0.38,0.73,0.83,1.54,1.38,2.47c0.13,0.22,0.26,0.45,0.4,0.69
		c0.19,0.12,0.37,0.25,0.55,0.37c0.2,0.14,0.38,0.28,0.56,0.42c0.64,0.49,1.15,0.98,1.51,1.32c0.37,0.34,0.56,0.57,0.56,0.57
		c1.92,0.98,3.87,2.83,5.42,5.42c0.37,0.62,0.71,1.27,1.03,1.97c1.71,3.63,2.67,8.25,3.12,13.21c0.18,2.29,0.37,4.64,0.42,7.01
		c0.01,0.37,0.01,0.74,0.01,1.11l0,0c0,2.42-0.17,4.86-0.68,7.26c-0.55,2.55-1.53,5.05-3.05,7.21c-1.49,2.18-3.41,4.02-5.5,5.51
		c-4.21,3.01-9.1,4.5-13.55,5.1c-2.23,0.31-4.38,0.42-6.39,0.42c-2.02,0-3.91-0.11-5.61-0.26c-1.69-0.14-3.22-0.32-4.51-0.68
		c-1.3-0.35-2.34-0.89-3.1-1.46c-0.76-0.57-1.27-1.11-1.6-1.49c-0.33-0.38-0.49-0.59-0.49-0.59c-0.19-0.44-0.97-1.55-1.93-3.28
		c-0.49-0.86-1.07-1.79-1.67-3c-0.3-0.59-0.65-1.19-0.96-1.85c-0.31-0.66-0.62-1.34-0.95-2.06c-1.26-2.87-2.49-6.22-3.42-9.86
		c-0.94-3.63-1.53-7.55-1.73-11.45c-0.05-1.02-0.08-2.04-0.08-3.05l0,0c0-2.85,0.21-5.64,0.59-8.26c0.23-1.78,0.61-3.46,0.96-5.05
		c0.42-1.54,0.79-3.18,1.24-4.18c0.21-0.52,0.44-0.9,0.64-1.15c0.21-0.26,0.36-0.38,0.55-0.49c0.4-0.24,1.15-0.47,1.88-0.64
		c0.8-0.19,1.32-0.29,1.69-0.36c0.38-0.07,0.57-0.1,0.57-0.1c1.29-0.35,3.07-0.8,4.77-0.93c0.41-0.04,0.82-0.05,1.21-0.05
		c0.58,0,1.12,0.03,1.59,0.08c0.35-0.9,0.76-1.84,1.26-2.79c0.06-0.11,0.12-0.22,0.18-0.34c-2.2-1.06-4.85-1.46-6.98-1.49
		c-0.21,0-0.41-0.01-0.61-0.01c-0.97,0-1.81,0.05-2.44,0.1c-0.76,0.06-1.2,0.11-1.2,0.11c-0.63,0.17-1.26,0.35-1.88,0.52
		c-0.63,0.18-1.31,0.38-1.99,0.67c-1.39,0.53-2.82,1.69-3.66,2.85c-0.88,1.17-1.44,2.31-1.94,3.29c-0.49,0.98-0.88,1.82-1.31,2.63
		c-1.3,2.56-2.31,4.45-2.68,5.12c-0.1,0.18-0.15,0.27-0.15,0.27c-0.13,0.38-0.28,0.82-0.43,1.34c-0.14,0.48-0.28,1.02-0.4,1.61
		c-0.21,1.22-0.52,2.64-0.65,4.19c-0.21,1.72-0.3,3.6-0.3,5.51c0,1.53,0.06,3.09,0.15,4.61c0.18,1.7,0.3,3.36,0.58,4.87
		c0.13,0.76,0.24,1.48,0.36,2.17c0.15,0.68,0.29,1.31,0.42,1.89c0.25,1.17,0.49,2.12,0.69,2.77c0.19,0.66,0.29,1.02,0.29,1.02l0,0
		l0,0l0,0l0,0c0,0.05-0.01,0.1-0.01,0.15c0,0.3,0.06,0.73,0.18,1.3c0.16,0.66,0.43,1.49,0.77,2.46c0.32,0.98,0.8,2.08,1.34,3.3
		c0.52,1.23,1.23,2.52,1.98,3.9c0.36,0.7,0.81,1.38,1.25,2.1c0.48,0.73,0.82,1.38,1.51,2.31c1.31,1.76,2.56,3.69,4.19,5.34
		c1.49,1.56,3.23,2.97,5.23,3.96c0.5,0.23,1.02,0.44,1.57,0.63c1.73,0.59,3.69,0.94,5.79,1.07c1.05,0.08,2.14,0.08,3.24,0.09
		c0.05,0,0.11,0,0.16,0c1.05,0,2.2-0.03,2.97-0.07c3.64-0.17,7.68-0.59,11.8-1.57c4.1-0.96,8.32-2.59,11.98-4.86
		c3.67-2.25,6.82-5.16,9.11-8.31c1.15-1.56,2.09-3.2,2.81-4.73c0.72-1.53,1.23-2.96,1.65-4.2c0.82-2.5,1.26-4.29,1.71-5.21
		c0,0,0.46-1.76,0.77-4.67c0.08-0.71,0.14-1.47,0.2-2.28c0.01-0.91,0.01-1.86,0.02-2.81c0-0.4,0-0.81,0-1.22
		c0-1.77-0.02-3.6-0.09-5.33c-0.05-1.56-0.15-3.03-0.27-4.26c-0.19-1.32-0.45-2.7-0.79-4.12c-0.36-1.48-0.81-3-1.4-4.53
		c-0.59-1.55-1.32-3.08-2.18-4.57c-1.72-2.97-4.06-5.78-6.98-7.91c-0.43-0.31-0.86-0.61-1.31-0.89c-0.37-0.21-0.74-0.41-1.12-0.59
		c-2.35-1.16-4.79-1.76-7-1.84C94.57,49.13,94.33,49.13,94.09,49.13"/>
	<path class="st82" d="M90.52,40.47c-4.39,0-8.53,1.17-11.81,3.01c-2.2,1.24-4.08,2.79-5.55,4.39c-0.85,0.93-1.59,1.87-2.23,2.81
		c-0.4,0.59-0.75,1.17-1.07,1.76c-0.06,0.11-0.12,0.22-0.18,0.34c-0.5,0.95-0.92,1.88-1.26,2.79c-0.84,2.21-1.27,4.25-1.5,5.99
		c-0.14,1.13-0.19,2.15-0.19,3.04c0,1.06,0.07,1.95,0.14,2.64c0.07,0.64,0.13,1.13,0.2,1.46c0.06,0.33,0.09,0.5,0.09,0.5
		c0.27,1.26,0.68,1.77,1.18,1.77c0.42,0,0.89-0.37,1.39-0.96c1.1-1.34,2.54-3.52,4.33-5.51c1.27-1.42,2.7-2.66,3.99-3.52
		c0.51-0.35,1-0.63,1.45-0.85c1.58-0.78,2.55-0.95,2.55-0.95c0.73,0.1,1.44,0.22,2.07,0.22c0.01,0,0.03,0,0.04,0
		c0.4,0.02,0.77,0.03,1.14,0.03c0.77,0,1.52-0.04,2.37-0.06c0.28-0.01,0.57-0.01,0.85-0.01c0.96,0,1.89,0.04,2.86,0.22
		c1.19,0.19,2.46,0.7,3.39,1.19c0.45,0.23,0.82,0.45,1.08,0.61c0.29,0.17,0.45,0.28,0.45,0.28c-0.22-0.45-0.44-0.87-0.64-1.25
		c-0.32-0.6-0.62-1.12-0.9-1.61c-0.14-0.24-0.27-0.47-0.4-0.69c-0.54-0.94-1-1.74-1.38-2.47c-0.67-1.28-1.02-2.35-1.02-3.3l0,0
		c0-0.13,0.01-0.26,0.02-0.39c0.1-1.03,0.64-1.85,1.25-2.37c0.22-0.2,0.45-0.35,0.64-0.47c0.07-0.04,0.13-0.08,0.19-0.11
		c0.23-0.12,0.38-0.17,0.38-0.17c2.9,0.09,5.88,1.11,8.49,2.73c0.45,0.28,0.89,0.58,1.31,0.89c2.92,2.13,5.26,4.94,6.98,7.91
		c0.87,1.49,1.59,3.03,2.18,4.57c0.59,1.53,1.04,3.05,1.4,4.53c0.35,1.42,0.6,2.79,0.79,4.12c0.21,1.45,0.34,2.84,0.42,4.15
		c0.09,1.36,0.12,2.63,0.12,3.82l0,0c0,1.02-0.02,1.97-0.05,2.86c-0.04,0.99-0.09,1.91-0.15,2.78c-0.06,0.81-0.12,1.57-0.2,2.28
		c-0.31,2.91-0.77,4.67-0.77,4.67c-0.45,0.92-0.89,2.71-1.71,5.21c-0.41,1.25-0.93,2.67-1.65,4.2c-0.71,1.53-1.66,3.17-2.81,4.73
		c-2.29,3.15-5.45,6.06-9.11,8.31c-3.66,2.27-7.88,3.9-11.98,4.86c-4.12,0.98-8.16,1.39-11.8,1.57c-0.77,0.04-1.91,0.07-2.97,0.07
		c-0.05,0-0.11,0-0.16,0c-1.11-0.01-2.19-0.01-3.24-0.09c-2.1-0.13-4.06-0.48-5.79-1.07c-0.55-0.19-1.08-0.4-1.57-0.63
		c-2.02-0.94-3.58-2.16-4.76-3.25c0.38,0.39,0.77,0.77,1.17,1.15c1.57,1.49,3.36,2.78,5.09,3.65c1.72,0.89,3.34,1.44,4.52,1.81
		c1.18,0.37,1.91,0.56,1.91,0.56c1.74,0.06,3.74,0.13,5.93,0.2c1.47,0.04,3.07,0.09,4.77,0.09c0.33,0,0.66,0,0.99-0.01
		c4.12-0.04,8.8-0.4,13.25-1.51c4.52-1.1,8.55-2.91,11.4-4.64c1.43-0.84,2.56-1.65,3.33-2.23c0.39-0.28,0.69-0.52,0.89-0.68
		c0.2-0.16,0.31-0.25,0.31-0.25c2.62-1.64,5.73-4.83,7.88-9.1c2.16-4.19,3.1-8.68,3.45-12.22c0.19-1.96,0.25-3.69,0.25-5.16
		c0-1.22-0.04-2.26-0.07-3.12c-0.09-1.88-0.19-3.08-0.19-3.08c-0.91-3.61-1.46-6.56-1.82-8.57c-0.35-2.01-0.47-3.1-0.47-3.1
		c-0.26-2.25-0.66-4.58-1.31-6.94c-0.64-2.35-1.53-4.78-2.64-7.06c-2.23-4.57-5.53-8.87-9.84-12.1c-4.36-3.29-9.62-5.07-14.48-5.25
		C91.32,40.48,90.92,40.47,90.52,40.47"/>
	<path class="st82" d="M54.25,114.62c0,0,0.19,0.24,0.55,0.69c0.36,0.45,0.92,1.08,1.67,1.84c0.29,0.29,0.6,0.59,0.95,0.92
		C56.29,116.92,55.23,115.73,54.25,114.62"/>
	<path class="st83" d="M80.17,77.03L80.17,77.03c-0.05,0.46-0.13,0.9-0.23,1.31c-0.28,1.35-0.43,2.52-0.43,3.84c0,0.13,0,0.26,0,0.4
		l0,0l0,0l0,0l0,0c-0.21-0.32-0.29-0.7-0.29-1.16l0,0c0-0.19,0.01-0.39,0.04-0.6C79.63,79.25,79.9,78.02,80.17,77.03L80.17,77.03
		L80.17,77.03L80.17,77.03 M97.23,65.6L97.23,65.6L97.23,65.6 M97.23,65.6L97.23,65.6L97.23,65.6 M97.23,65.6L97.23,65.6L97.23,65.6
		 M81.76,78.18c0-1.17,0.05-2.34,0.14-3.5c0.13-1.67,0.36-3.32,0.68-4.95c0.31-1.65,0.71-3.11,1.23-4.18
		c0.01-1.09,0.6-1.96,1.51-2.31c0.45-0.21,0.99-0.28,1.59-0.28c0.55,0,1.14,0.07,1.74,0.15c0.76,0.14,1.47,0.5,2.43,0.94
		c1.22,0.43,2.58,0.92,3.84,1.49c0.65,0.29,1.21,0.58,1.37,0.76l0.01,0.02c0.2-0.15,0.39-0.3,0.57-0.43
		c0.12-0.09,0.22-0.16,0.28-0.21l0.01,0l0.01,0l0.01,0l0.01-0.01l0,0l0.02-0.01l0.01-0.01c0,0,0,0,0,0l0,0
		c0.01-0.01,0.02-0.01,0.02-0.01l0,0l0,0l0,0l0,0l0,0l0,0l0,0l0,0l0,0l0,0c0,0-0.01,0-0.02,0.01l0,0c0.55-0.42,0.77-0.59,0.77-0.59
		l0,0l0,0l0,0l0,0c0,0-0.31,0.24-0.77,0.59l0,0l0,0l0,0l0,0c-0.01,0.01-0.03,0.03-0.06,0.05L97,65.79c0,0-0.01,0.01-0.01,0.01
		c-0.05,0.04-0.1,0.09-0.16,0.15c-0.04,0.04-0.09,0.09-0.14,0.15c-0.01,0.01-0.01,0.01-0.02,0.02c-0.01,0.01-0.02,0.02-0.03,0.04
		c-0.03,0.03-0.06,0.07-0.1,0.1l-0.14,0.17l-0.01,0.01c-0.11,0.14-0.24,0.29-0.37,0.47c0,0.04,0,0.09,0,0.13
		c-0.01,0.23-0.04,0.47-0.08,0.7c-0.08,0.47-0.21,0.93-0.35,1.38c-0.27,0.89-0.55,1.73-0.83,2.53c-0.55,1.59-1.12,3-1.66,4.3
		c-0.46,1.08-1.23,3.63-2.52,5.23c-0.63,0.82-1.41,1.42-2.15,1.77c-0.07,0.03-0.14,0.07-0.21,0.1c-0.41,0.88-0.91,1.64-1.48,2.19
		c-0.85,0.93-1.78,1.53-2.71,1.9c-0.24,0.1-0.47,0.18-0.71,0.24c-0.1,0.05-0.2,0.11-0.29,0.16c-0.08,0.04-0.15,0.09-0.21,0.13
		c-0.04,0.02-0.08,0.05-0.12,0.08c-0.25,0.16-0.44,0.31-0.58,0.43c-0.02,0.02-0.05,0.04-0.07,0.06c-0.09,0.08-0.15,0.15-0.19,0.2
		c-0.01,0.01-0.01,0.01-0.02,0.02l-0.05,0.08c0,0,0,0,0,0l-0.02,0.04l0.01-0.01c0,0,0,0,0,0l0,0l0,0l0,0l0,0
		c0.01-0.01,0.02-0.05,0.04-0.11c0.01-0.04,0.02-0.08,0.03-0.14c0.01-0.07,0.02-0.15,0.03-0.24c0.01-0.07,0.01-0.15,0.01-0.24
		c0-0.01,0-0.03,0-0.04c0-0.11-0.01-0.23-0.01-0.29c-0.01-0.19-0.04-0.39-0.08-0.61c-0.06-0.3-0.14-0.65-0.24-1l-0.16-0.5l0.03,0.03
		c0.02,0.01,0.05,0.01,0.09,0.01c0.08,0,0.19-0.01,0.27-0.02c0.19-0.01,0.4-0.05,0.61-0.12c-0.03-0.15-0.06-0.31-0.09-0.46
		c-0.06-0.39-0.12-0.79-0.16-1.18c-0.46-0.09-0.91-0.24-1.31-0.5c0,0-0.01-0.01-0.01-0.01l0,0c0-0.09,0.47-0.55,1.15-1.01
		C81.81,80.8,81.76,79.48,81.76,78.18L81.76,78.18 M87.85,61.62c-0.19,0-0.37,0-0.55,0.01c-0.91,0.05-1.72,0.17-2.47,0.44
		c-0.75,0.28-1.47,0.67-2.08,1.33c-1.05,1.07-1.78,2.71-2.07,4.47c-0.8,0.56-1.82,0.98-2.68,1.26c-0.01,0-0.03,0-0.04,0
		c-0.09,0-0.17-0.03-0.25-0.07c-0.11-0.06-0.21-0.14-0.31-0.23c-0.18-0.15-0.36-0.3-0.56-0.3c-0.01,0-0.02,0-0.03,0
		c-0.13,0.04-0.26,0.08-0.38,0.14c-0.71,0.31-1.37,0.9-2,1.52c-0.62,0.56-1.19,1.07-1.86,1.07c-0.16,0-0.34-0.03-0.51-0.1
		c-0.06-0.06-0.13-0.09-0.21-0.09c-0.27,0-0.63,0.37-0.94,0.95c-0.19,0.37-0.42,0.82-0.57,1.32c-0.16,0.48-0.31,1.04-0.38,1.42
		c-0.02,0.1-0.03,0.22-0.03,0.36c0,0.91,0.34,2.75,1.05,4.8c0.83,2.39,2.18,4.96,3.6,6.93c0.71,0.99,1.7,1.79,2.95,1.99
		c0.44,0.08,0.87,0.11,1.29,0.11c0.76,0,1.49-0.1,2.11-0.19c0.01,0,0.01,0,0.02,0c0.13,0.24,0.28,0.41,0.43,0.47
		c0.12,0.09,0.3,0.13,0.51,0.13c0.46,0,1.09-0.18,1.68-0.46c0.86-0.39,1.63-0.9,2.36-1.43c0.4-0.27,0.8-0.55,1.19-0.86
		c0.46-0.02,0.91-0.03,1.35-0.04c0.87-0.03,1.76-0.08,2.62-0.4c0.54-0.24,1.16-0.87,1.65-1.73c0.5-0.86,0.89-1.96,1.14-3.03
		c0.51-2.15,0.59-4.18,0.68-4.27c0.56,0.53,1.19,0.89,1.77,1.47c0.58,0.59,1.12,1.41,1.41,3.06c0.07,0.41,0.45,0.39,0.67,0.59
		c0.34-0.01,0.85-0.8,0.91-1.3c0,0.31,0.02,0.46,0.05,0.46c0.14,0,0.51-3.51,0.53-7.18c0-0.28,0.01-0.55,0.01-0.83
		c0-1.12-0.03-2.21-0.08-3.18c-0.1-1.98-0.26-3.43-0.38-3.43c-0.04,0-0.08,0.18-0.1,0.6l0,0l0,0l0,0l0,0
		c0.01-0.19,0.02-0.38,0.02-0.57c0-0.45-0.04-0.89-0.15-1.32c-0.08-0.3-0.19-0.59-0.36-0.86c-0.14-0.22-0.24-0.32-0.42-0.47
		c-0.34-0.27-0.83-0.51-1.43-0.73c-0.23-0.09-0.48-0.17-0.73-0.26c-0.39-0.13-0.79-0.26-1.18-0.37
		C92.7,62.13,90.14,61.62,87.85,61.62"/>
	<path class="st83" d="M86.43,65.77l-0.05,0.03c-0.05,0.04-0.11,0.1-0.2,0.23c-0.16,0.25-0.37,0.75-0.46,1.4
		c-0.01,0.06-0.02,0.13-0.03,0.19c0.29-0.2,0.52-0.39,0.63-0.56c0.08-0.23,0.21-0.29,0.26-0.4l-0.01-0.07l-0.05-0.16l-0.06-0.25
		C86.45,66.06,86.44,65.92,86.43,65.77"/>
	<path class="st83" d="M90.22,73.9c-0.07,1.16-0.37,2.14-0.58,3.65c-0.09,0.46-0.17,0.94-0.26,1.42c0.51-0.68,0.94-1.52,1.29-2.23
		c-0.01-0.21-0.02-0.43-0.04-0.63C90.57,75.06,90.46,74.15,90.22,73.9L90.22,73.9"/>
	<polyline class="st83" points="97.2,65.62 97.2,65.62 97.2,65.62 97.2,65.62 97.2,65.62 	"/>
	<path class="st83" d="M97.14,65.67c-0.09,0.07-0.18,0.14-0.28,0.21c-0.1,0.08-0.22,0.16-0.33,0.25c-0.08,0.06-0.16,0.12-0.24,0.18
		l0.07,0.1l0,0.04l0.01-0.01c0.09-0.11,0.17-0.2,0.25-0.29c0.02-0.02,0.04-0.04,0.05-0.06c0.05-0.05,0.1-0.1,0.14-0.15
		c0.06-0.06,0.11-0.11,0.16-0.15c0,0,0.01-0.01,0.01-0.01l0.13-0.11L97.14,65.67"/>
	<path class="st83" d="M96.02,66.45h-0.04l0.01,0.08l0,0.01c0.03-0.03,0.07-0.05,0.1-0.08l0,0l-0.01,0L96.02,66.45"/>
	<path class="st83" d="M81.85,87.45c0,0,0,0.01,0,0.02c0,0.01,0,0.01,0,0.02c0.01,0.1,0.01,0.2,0.01,0.29c0,0.03,0,0.07,0,0.1l0,0
		c0,0.05,0,0.1-0.01,0.14c0,0.02,0,0.03,0,0.05c-0.01,0.08-0.02,0.16-0.03,0.22c0,0.01,0,0.01,0,0.02
		c-0.01,0.06-0.02,0.11-0.03,0.14c-0.01,0.05-0.02,0.08-0.03,0.1l0,0c0,0,0.01-0.01,0.01-0.03l0,0l0,0
		c0.01-0.02,0.03-0.05,0.07-0.09c0.05-0.07,0.14-0.15,0.26-0.26c0.11-0.09,0.23-0.19,0.4-0.31c0.05-0.04,0.12-0.08,0.18-0.12
		c0.04-0.03,0.08-0.05,0.12-0.08c0.01,0,0.01-0.01,0.02-0.01l0.01-0.02c0,0,0-0.01,0-0.01c0-0.03-0.01-0.07-0.02-0.13
		c-0.07,0.01-0.14,0.02-0.2,0.03c-0.15,0.03-0.29,0.04-0.4,0.04c-0.07,0-0.14-0.01-0.19-0.02l-0.15-0.06
		C81.86,87.46,81.86,87.45,81.85,87.45"/>
	<path class="st84" d="M123.66,59.82c0.43,1.37,0.61,2.15,0.61,2.17C124.27,61.97,124.09,61.19,123.66,59.82 M121.25,54.07
		c1.19,2.29,1.92,4.23,2.36,5.61C123.17,58.3,122.44,56.36,121.25,54.07 M115.68,46.17c2.51,2.68,4.22,5.36,5.45,7.67
		C119.9,51.53,118.18,48.84,115.68,46.17"/>
	<path class="st84" d="M125.89,71.26c0.25,1.87,0.43,3.62,0.54,4.87C126.32,74.88,126.14,73.13,125.89,71.26"/>
	<path class="st77" d="M107.49,39.79L107.49,39.79c3.33,1.8,6.05,4.09,8.18,6.38l0,0c2.51,2.68,4.22,5.36,5.45,7.67
		c0.04,0.07,0.08,0.15,0.12,0.22l0,0c1.19,2.29,1.92,4.23,2.36,5.61c0.02,0.05,0.03,0.1,0.05,0.15l0,0
		c0.43,1.37,0.61,2.15,0.61,2.17c0,0,0,0,0,0c0.01,0.17,0.05,0.4,0.1,0.69l0,0c-0.05-0.28-0.08-0.51-0.1-0.69
		c0,0-0.17-0.78-0.61-2.17c-0.44-1.39-1.18-3.38-2.41-5.75c-1.24-2.37-2.98-5.14-5.57-7.9C113.55,43.88,110.82,41.59,107.49,39.79
		L107.49,39.79"/>
	<path class="st84" d="M127.82,88.92c0,0.15,0,0.31,0,0.46C127.82,89.22,127.82,89.07,127.82,88.92"/>
	<path class="st77" d="M127.6,94.3L127.6,94.3c-0.03,0.31-0.06,0.63-0.09,0.95c-0.22,2.12-0.59,4.39-1.14,6.62
		c-0.55,2.22-1.29,4.4-2.08,6.26c-0.78,1.86-1.62,3.39-2.23,4.44l0,0l0,0l0,0c0.59-1.01,1.4-2.48,2.15-4.25
		c0.03-0.06,0.05-0.13,0.08-0.19c0.79-1.86,1.53-4.03,2.08-6.26c0.01-0.03,0.02-0.07,0.03-0.1c0.54-2.19,0.9-4.42,1.12-6.51l0,0
		C127.54,94.93,127.57,94.62,127.6,94.3"/>
	<path class="st84" d="M124.2,108.32c-0.75,1.77-1.56,3.24-2.15,4.25C122.64,111.56,123.45,110.09,124.2,108.32 M127.5,95.25
		c-0.22,2.09-0.58,4.32-1.12,6.51C126.93,99.57,127.29,97.34,127.5,95.25"/>
	<path class="st84" d="M122.05,112.56c-0.59,0.99-0.96,1.54-0.99,1.58C121.09,114.1,121.46,113.55,122.05,112.56"/>
	<path class="st85" d="M120.89,114.37L120.89,114.37c-1.74,2.32-3.68,4.36-5.72,6.12c-0.65,0.72-1.8,1.78-3.27,2.91l0,0l0,0
		c1.41-1.08,2.51-2.09,3.18-2.81c0.03-0.03,0.06-0.07,0.09-0.1C117.21,118.73,119.15,116.69,120.89,114.37L120.89,114.37"/>
	<path class="st84" d="M115.09,120.59c-0.67,0.71-1.77,1.73-3.18,2.81c-0.65,0.5-1.36,1.01-2.13,1.52
		C112.2,123.32,114.11,121.64,115.09,120.59"/>
	<path class="st84" d="M109.66,125c-2.47,1.64-5.45,3.13-8.35,4.23C104.2,128.13,107.18,126.64,109.66,125"/>
	<path class="st85" d="M77.79,131.94L77.79,131.94L77.79,131.94c1.21,0.07,2.48,0.11,3.78,0.15c0.04,0,0.08,0,0.13,0
		c0.79,0.02,1.6,0.03,2.42,0.03c1.54,0,3.13-0.03,4.76-0.12l0,0l0,0c-1.64,0.08-3.23,0.12-4.76,0.12c-0.82,0-1.63-0.01-2.42-0.03
		C80.35,132.05,79.04,132.01,77.79,131.94L77.79,131.94"/>
	<path class="st84" d="M77.79,131.94c1.21,0.07,2.48,0.11,3.78,0.15C80.27,132.05,79,132.01,77.79,131.94"/>
	<path class="st84" d="M68.59,131.25c1.7,0.2,3.46,0.33,5.25,0.45C72.04,131.59,70.28,131.46,68.59,131.25"/>
	<path class="st84" d="M73.9,131.71c0.74,0.04,1.48,0.09,2.23,0.13c0.55,0.03,1.11,0.07,1.66,0.1c-0.56-0.03-1.11-0.07-1.66-0.1
		C75.37,131.79,74.63,131.75,73.9,131.71"/>
	<path class="st86" d="M95.98,66.45L95.98,66.45h0.04l0.05,0.01l0.01,0l0,0l0,0l0,0c-0.03,0.03-0.07,0.05-0.1,0.08l0-0.01
		L95.98,66.45 M84.66,80.1c0-2.77,0.25-5.56,0.74-8.34c0.15-0.84,0.2-1.65,0.22-2.41c0.02-0.73,0.02-1.38,0.12-1.93
		c0.08-0.65,0.29-1.15,0.46-1.4c0.08-0.13,0.14-0.2,0.2-0.23l0.2-0.13c0.14-0.07,0.41-0.19,0.97-0.28c0.54-0.09,1.31-0.14,2.17-0.2
		c0.04-0.01,0.09-0.01,0.14-0.01c0.45,0,1.12,0.26,1.6,0.53c0.62,0.48,1.24,0.96,1.87,1.49l0.84,0.71l0,0l0,0
		c-0.3,0.23-0.5,0.38-0.5,0.38l0,0l0,0l0,0l0,0c0,0,0.02-0.01,0.05-0.04l0,0l-0.04-0.04l-0.16-0.15l0.01,0.1l0.02,0.22
		c0,0.07,0.01,0.13,0.01,0.2l0,0c0,0.54-0.13,1.09-0.27,1.6c-0.62,2.32-1.34,4.17-2.13,5.6c-0.12,0.2-0.24,0.44-0.38,0.71
		c-0.04,0.08-0.08,0.17-0.13,0.25c-0.36,0.71-0.78,1.54-1.29,2.23l0,0l0,0l0,0l0,0c0.09-0.48,0.18-0.96,0.26-1.42
		c0.21-1.51,0.51-2.49,0.58-3.65c-0.18-0.91-0.25-2.59-0.47-2.59c-0.01,0-0.03,0.01-0.04,0.02c-0.01,0-0.02,0-0.03,0
		c-0.34,0-0.5,1.2-0.71,1.9c-0.43,2.87-1.15,5.44-2.23,7.54c-0.29,0.06-0.53,0.08-0.67,0.09c-0.51,0.15-0.98,0.24-1.41,0.3
		C84.66,80.8,84.66,80.45,84.66,80.1L84.66,80.1 M86.9,62.95c-0.6,0-1.14,0.08-1.59,0.28c-0.91,0.35-1.5,1.22-1.51,2.31
		c-0.52,1.08-0.92,2.53-1.23,4.18c-0.32,1.63-0.55,3.28-0.68,4.95c-0.09,1.16-0.14,2.33-0.14,3.5c0,1.31,0.06,2.62,0.18,3.94l0,0
		l0,0l0,0l0,0c-0.69,0.46-1.15,0.92-1.15,1.01c0,0.01,0,0.01,0.01,0.01c0.4,0.26,0.85,0.41,1.31,0.5c0.05,0.39,0.1,0.79,0.16,1.18
		c0.03,0.16,0.06,0.31,0.09,0.46l0,0l0,0l0,0l0,0c-0.21,0.07-0.42,0.11-0.61,0.12c-0.08,0-0.19,0.02-0.27,0.02
		c-0.04,0-0.07,0-0.09-0.01l-0.03-0.03l0.16,0.5c0.11,0.35,0.19,0.7,0.24,1c0.04,0.22,0.06,0.43,0.08,0.61c0-0.01,0-0.02,0-0.02l0,0
		c0-0.01,0-0.02,0-0.02c0,0,0,0.01,0.01,0.04l0.15,0.06c0.06,0.01,0.12,0.02,0.19,0.02c0.11,0,0.25-0.01,0.4-0.04
		c0.07-0.01,0.14-0.02,0.2-0.03c0.01,0.06,0.02,0.1,0.02,0.13l0,0c0,0.01,0,0.01,0,0.01l-0.01,0.02c-0.01,0-0.01,0.01-0.02,0.01
		c0.07-0.04,0.14-0.08,0.21-0.13c0.09-0.05,0.19-0.11,0.29-0.16c0.24-0.06,0.48-0.14,0.71-0.24c0.94-0.36,1.87-0.97,2.71-1.9
		c0.57-0.55,1.07-1.32,1.48-2.19c0.07-0.03,0.14-0.06,0.21-0.1c0.74-0.34,1.51-0.94,2.15-1.77c1.29-1.6,2.06-4.15,2.52-5.23
		c0.54-1.3,1.11-2.71,1.66-4.3c0.28-0.79,0.55-1.63,0.83-2.53c0.14-0.45,0.27-0.91,0.35-1.38c0.04-0.23,0.07-0.47,0.08-0.7
		c0-0.04,0-0.09,0-0.13c0.14-0.18,0.26-0.33,0.37-0.47l-0.01,0.01l0-0.04l-0.07-0.1l0,0l0,0c0.08-0.06,0.16-0.12,0.24-0.18
		c0.11-0.09,0.23-0.17,0.33-0.25c-0.18,0.14-0.37,0.28-0.57,0.43l-0.01-0.02c-0.15-0.18-0.71-0.47-1.37-0.76
		c-1.26-0.57-2.62-1.06-3.84-1.49c-0.97-0.45-1.68-0.8-2.43-0.94C88.04,63.01,87.45,62.95,86.9,62.95"/>
	<path class="st86" d="M97.98,65.03c0,0-0.22,0.17-0.77,0.59l0,0l0,0l0,0l0,0c0,0,0,0,0,0l0,0l0,0l0,0l0,0
		c-0.01,0.01-0.03,0.02-0.05,0.04l0,0l0,0l0,0l0,0l0,0c0,0,0,0,0,0c-0.07,0.05-0.17,0.13-0.28,0.21c0.1-0.07,0.19-0.14,0.28-0.21
		l0,0l0,0l0,0l-0.02,0.01l-0.13,0.11c0,0-0.01,0.01-0.01,0.01c0,0,0.01-0.01,0.01-0.01l0.15-0.13l0,0
		C97.63,65.29,97.98,65.03,97.98,65.03"/>
	<path class="st86" d="M97.22,65.6c0,0-0.01,0-0.02,0.01l0,0C97.22,65.61,97.22,65.6,97.22,65.6"/>
	<polyline class="st86" points="97.2,65.62 97.19,65.63 97.18,65.64 97.2,65.62 97.2,65.62 	"/>
	<polyline class="st86" points="97.18,65.64 97.18,65.64 97.18,65.64 97.18,65.64 	"/>
	<polyline class="st86" points="97.18,65.64 97.16,65.65 97.16,65.65 97.16,65.66 97.15,65.66 97.15,65.66 97.18,65.64 	"/>
	<path class="st86" d="M96.98,65.8c-0.05,0.04-0.1,0.09-0.16,0.15C96.88,65.9,96.94,65.84,96.98,65.8"/>
	<path class="st86" d="M96.82,65.95c-0.05,0.05-0.09,0.09-0.14,0.15C96.73,66.05,96.78,66,96.82,65.95"/>
	<path class="st86" d="M96.68,66.1c-0.02,0.02-0.03,0.04-0.05,0.06c0.01-0.01,0.02-0.02,0.03-0.04
		C96.67,66.11,96.67,66.11,96.68,66.1"/>
	<path class="st86" d="M96.63,66.16c-0.08,0.09-0.16,0.18-0.25,0.29l0.01-0.01l0.14-0.17C96.57,66.22,96.6,66.19,96.63,66.16"/>
	<path class="st86" d="M81.85,87.49c0,0.06,0.01,0.18,0.01,0.29C81.86,87.69,81.86,87.59,81.85,87.49"/>
	<path class="st86" d="M82.8,87.67c-0.04,0.03-0.08,0.05-0.12,0.08C82.72,87.72,82.76,87.69,82.8,87.67"/>
	<path class="st86" d="M82.67,87.74c-0.06,0.04-0.12,0.08-0.18,0.12c-0.16,0.12-0.29,0.22-0.4,0.31
		C82.24,88.05,82.42,87.91,82.67,87.74"/>
	<path class="st86" d="M81.86,87.78c0,0.01,0,0.03,0,0.04l0,0c0,0.09,0,0.17-0.01,0.24c0-0.01,0-0.03,0-0.05
		c0-0.04,0.01-0.09,0.01-0.14C81.87,87.85,81.87,87.81,81.86,87.78"/>
	<path class="st86" d="M81.86,88.07c-0.01,0.1-0.02,0.18-0.03,0.24c0-0.01,0-0.01,0-0.02C81.84,88.23,81.85,88.15,81.86,88.07"/>
	<path class="st86" d="M82.1,88.17c-0.12,0.11-0.2,0.19-0.26,0.26c0.04-0.05,0.1-0.11,0.19-0.2C82.05,88.21,82.07,88.19,82.1,88.17"
		/>
	<path class="st86" d="M81.82,88.31c-0.01,0.06-0.02,0.11-0.03,0.14C81.8,88.41,81.81,88.37,81.82,88.31"/>
	<path class="st86" d="M81.84,88.43c-0.04,0.04-0.06,0.07-0.07,0.09l0.05-0.08C81.83,88.44,81.84,88.44,81.84,88.43"/>
	<path class="st86" d="M81.79,88.45c-0.02,0.06-0.03,0.09-0.04,0.11c0,0,0,0,0,0l0,0C81.77,88.53,81.78,88.5,81.79,88.45"/>
	<polyline class="st86" points="81.77,88.53 81.77,88.53 81.77,88.53 81.77,88.53 	"/>
	<path class="st86" d="M81.76,88.55L81.76,88.55L81.76,88.55 M81.77,88.53c-0.01,0.01-0.01,0.02-0.01,0.03l-0.01,0.01L81.77,88.53"
		/>
</g>
<g>
	<path d="M127.5,78.62c0.08-6.37-0.32-12.74-3.28-18.47c-2.39-4.61-5.04-9.24-8.39-13.16c-5.26-6.14-11.15-11.75-19.67-13.32
		c-6.04-1.11-12-0.96-17.74,1.27c-3.81,1.48-7.41,3.5-11.16,5.13c-0.9,0.39-2.77,0.6-2.97,0.23c-2.11-3.94-6.05-7.28-4.64-12.53
		c0.1-0.36,0.14-0.86-0.03-1.16c-0.89-1.57-1.77-3.15-2.8-4.63c-1.01-1.44-2.64-1.12-3.33,0.51c-0.19,0.44-0.56,0.89-0.97,1.14
		c-1.4,0.83-1.51,1.9-0.71,3.18c1.02,1.64,2.18,3.21,3.08,4.91c1.88,3.52,3.64,7.11,5.4,10.58c-1.01,0.62-2.12,1.33-3.26,2
		c-0.52,0.31-1.07,0.67-1.65,0.78c-5.05,0.95-10.27,1.49-13.38,6.46c-1.7,2.71-4,5.2-5.06,8.13c-2.02,5.55-3.23,11.35-3.32,17.34
		c-0.12,8.13-1.19,16.28,1.16,24.31c2.26,7.74,5.34,15.02,11.15,20.82c6.81,6.81,15.09,10.82,24.67,11.33
		c4.19,0.22,8.83,0.48,12.63-2.06c3.96-2.65,8-4.03,12.89-4.47c12.62-1.13,20.63-9.4,27.01-19.49c3.41-5.4,3.91-11.63,4.29-17.79
		C127.61,85.97,127.46,82.29,127.5,78.62z M54.84,28.66c-0.43-1.06-0.83-2.03-1.24-3.05c0.48-0.56,0.94-1.09,1.59-1.83
		c0.31,1.03,0.43,1.73,0.73,2.34c0.25,0.51,0.71,0.93,1.13,1.45C56.41,27.88,55.78,28.19,54.84,28.66z M72.41,39.94
		c0.06,0.09,0.12,0.19,0.19,0.28c-1.64,1.35-3.28,2.71-5.08,4.2c-0.47-0.51-0.9-0.98-1.46-1.6C68.23,41.84,70.32,40.89,72.41,39.94z
		 M124.14,98.38c-0.52,4.49-3.09,8.03-5.42,11.7c-3.01,4.76-7.33,8.12-11.88,11.23c-3.96,2.71-8.52,3.27-13.05,3.93
		c-0.07-0.24-0.14-0.49-0.22-0.73c0.92-0.31,1.84-0.62,2.76-0.93c0.08,0.17,0.15,0.33,0.23,0.5c0.38-0.93,0.76-1.86,1.14-2.8
		c0.07,0.02,0.15,0.04,0.22,0.06c-0.06,0.73-0.12,1.45-0.18,2.18c0.13,0.04,0.25,0.07,0.38,0.11c0.6-1.43,1.2-2.86,2.05-4.89
		c-2.54,0.68-4.67,1.25-7.32,1.95c6.37-9.74,6.65-19.83,4.96-30.19c-0.22-0.04-0.44-0.08-0.66-0.11c-0.14,0.77-0.54,1.58-0.39,2.29
		c1.51,7.28-0.26,14.16-2.53,20.95c-0.51,1.53-1.67,2.85-2.48,4.29c-0.62,1.09-1.53,2.18-1.68,3.34c-0.43,3.46-2.76,5.22-5.43,6.76
		c-8.2,4.72-16.59,4.37-25.06,0.79c-7.69-3.25-13.86-8.27-17.88-15.67c-3.02-5.57-5.56-11.45-5.81-17.81
		c-0.3-7.6-0.12-15.25,0.4-22.84c0.4-5.9,1.67-11.69,4.89-16.92c3.83-6.22,9.37-8.56,16.42-8.15c4.06,0.23,8.2-0.1,12.16,0.62
		c7.34,1.33,13.45,4.96,17.52,11.44c1.25,2,1.82,0.35,2.79-0.34c-6.65-8.11-11.61-11.39-20.92-13.62c3.61-2.71,6.78-5.27,10.13-7.56
		c6.11-4.17,12.82-3.4,19.21-1.25c7.92,2.68,13.6,8.54,18.52,15.11c3.75,5.01,6.9,10.43,7.58,16.71c0.66,6.15,0.76,12.38,0.73,18.58
		C125.3,90.89,124.57,94.64,124.14,98.38z"/>
	<path d="M52.89,58.79c-2.31,3.12-3.67,6.62-4.72,10.32c-1.13,3.99-0.21,7.84,0.45,11.71c0.31,1.82,0.83,3.59,1.15,4.95
		c1.53-1.41,2.74-2.54,4.47-4.14c-1.56,0.3-2.47,0.47-3.83,0.73c1.7-1.32,3.06-2.37,4.41-3.42c-0.09-0.17-0.18-0.34-0.27-0.51
		c-1.67,0.8-3.33,1.59-5,2.39c-0.15-0.19-0.31-0.39-0.46-0.58c2.04-1.59,4.07-3.18,6.11-4.76c-0.07-0.12-0.15-0.24-0.22-0.36
		c-1.82,0.84-3.64,1.69-5.46,2.53c-0.08-0.14-0.16-0.27-0.24-0.41c1.71-1.29,3.42-2.57,5.13-3.86c-0.06-0.11-0.12-0.21-0.18-0.32
		c-1.42,0.63-2.85,1.27-4.27,1.9c-0.08-0.16-0.16-0.32-0.25-0.47c1.86-1.24,3.73-2.47,5.59-3.71c-0.06-0.13-0.12-0.26-0.19-0.39
		c-1.39,0.54-2.77,1.09-4.16,1.63c-0.08-0.18-0.15-0.37-0.23-0.55c1.77-0.95,3.55-1.9,5.32-2.86c-0.08-0.16-0.17-0.31-0.25-0.47
		c-1.94,0.88-3.88,1.75-5.81,2.63c-0.07-0.12-0.15-0.23-0.22-0.35c1.95-1.38,3.91-2.75,6.41-4.51c-1.78,0.62-2.98,1.04-4.19,1.46
		c-0.05-0.12-0.11-0.25-0.16-0.37c1.48-0.82,2.96-1.64,4.44-2.47c-0.04-0.09-0.08-0.19-0.12-0.28c-0.97,0.32-1.94,0.64-2.91,0.96
		c-0.05-0.14-0.1-0.28-0.14-0.42c1.23-0.47,2.47-0.94,3.7-1.41c-0.05-0.1-0.09-0.21-0.14-0.31c-1.08,0.15-2.15,0.29-3.23,0.44
		c-0.03-0.09-0.06-0.19-0.1-0.28c1.06-0.55,2.12-1.1,3.74-1.94c-1.4,0.16-2.19,0.24-3.13,0.35c1.17-0.73,2.2-1.38,3.24-2.03
		c-0.04-0.09-0.08-0.18-0.12-0.27c-0.79,0.23-1.58,0.45-2.37,0.68c-0.06-0.14-0.11-0.28-0.17-0.43c1.19-0.63,2.39-1.26,3.58-1.89
		C56.41,58.31,54.35,56.82,52.89,58.79z"/>
	<path d="M86.05,112.61c0.5-0.13,0.84-0.22,1.04-0.27c-0.39,0.92-0.77,1.83-1.16,2.75c0.19,0.08,0.37,0.15,0.56,0.23
		c-0.84,0.6-1.68,1.2-2.52,1.79c0.07,0.11,0.15,0.22,0.22,0.32c0.43-0.06,0.87-0.13,2.05-0.3c-1.52,1.27-2.48,2.08-3.45,2.89
		c0.09,0.13,0.18,0.27,0.27,0.4c0.97-0.48,1.94-0.97,2.91-1.45c0.05,0.09,0.1,0.18,0.15,0.27c-1.42,1.23-2.83,2.46-4.25,3.69
		c0.08,0.1,0.17,0.21,0.25,0.31c0.48-0.1,0.97-0.21,1.65-0.35c-0.97,1.06-1.76,1.93-2.56,2.81c0.1,0.09,0.21,0.17,0.31,0.26
		c0.47-0.22,0.95-0.44,1.63-0.76c-0.45,0.85-0.76,1.44-1.07,2.03c6.51-5.56,7.95-13.36,9.78-21.51
		C88.65,107.26,86.8,109.37,86.05,112.61z"/>
	<path d="M92.22,65.47c-0.72-1.3-1.71-1.61-1.85-0.09c1.7,6.35,3.4,12.71,5.1,19.06c0.32-0.08,0.64-0.16,0.96-0.23
		c-0.76-4.73-1.44-9.48-2.34-14.18C93.79,68.44,93.01,66.9,92.22,65.47z"/>
	<path d="M100.5,123.01c0.42-1.12,0.84-2.25,1.5-4.01c0,1.53,0,2.38,0,3.23c0.19,0.01,0.38,0.02,0.56,0.03
		c0.35-1.34,0.71-2.68,1.11-4.2C100.26,118.69,99.98,119.12,100.5,123.01z"/>
	<path d="M106.93,118.76c1.45-1.29,2.67-2.39,4.25-3.8C108.48,114.84,106.76,116.59,106.93,118.76z"/>
</g>
</svg>
