<?xml version="1.0" encoding="utf-8"?>
<!-- Generator: Adobe Illustrator 23.0.1, SVG Export Plug-In . SVG Version: 6.00 Build 0)  -->
<svg version="1.1" id="Layer_1" xmlns="http://www.w3.org/2000/svg" xmlns:xlink="http://www.w3.org/1999/xlink" x="0px" y="0px"
	 viewBox="0 0 150 150" style="enable-background:new 0 0 150 150;" xml:space="preserve">
<style type="text/css">
	.st0{fill:#F49AB4;}
	.st1{fill:#F28DA7;}
	.st2{fill:#E85072;}
	.st3{fill:#E84B6F;}
	.st4{fill:#EB5A7D;}
	.st5{fill:#EF7994;}
	.st6{fill:#F8BCCD;}
	.st7{fill:#F38CA8;}
	.st8{fill:#EF728F;}
	.st9{fill:#FCE4EB;}
	.st10{fill:#F0CCCF;}
	.st11{fill:#DE8D95;}
	.st12{fill:#EBBABF;}
	.st13{fill:#E7ACB2;}
	.st14{fill:#E39DA3;}
	.st15{fill:#F5DEE0;}
	.st16{fill:#D97A83;}
	.st17{fill:#E4A6AD;}
	.st18{fill:#E9B6BB;}
	.st19{fill:#DA9197;}
	.st20{fill:#CC7077;}
	.st21{fill:#C9646C;}
	.st22{fill:#D4848B;}
	.st23{fill:#D17A81;}
	.st24{fill:#DD9EA3;}
	.st25{fill:#C65760;}
	.st26{fill:#D48189;}
	.st27{fill:#CF6E76;}
	.st28{fill:#C1575F;}
	.st29{fill:#B8424B;}
	.st30{fill:#B33C43;}
	.st31{fill:#BB4952;}
	.st32{fill:#C65E66;}
	.st33{fill:#BC4F57;}
	.st34{fill:#B0353D;}
	.st35{fill:#D67E84;}
	.st36{fill:#C6636B;}
	.st37{fill:#CA6C72;}
	.st38{fill:#B9454D;}
	.st39{fill:#C05B63;}
	.st40{fill:#C0545B;}
	.st41{fill:#BE4C53;}
	.st42{fill:#B43C44;}
	.st43{fill:#DF999F;}
	.st44{fill:#D27980;}
	.st45{fill:#C1555D;}
	.st46{fill:#CB6F76;}
	.st47{fill:#C8676E;}
	.st48{fill:#D5838A;}
	.st49{fill:#C65D64;}
	.st50{fill:#F1D1D4;}
	.st51{fill:#D38087;}
	.st52{fill:#CF737C;}
	.st53{fill:#D98C94;}
	.st54{fill:#E6B3B9;}
	.st55{fill:#D8898F;}
	.st56{fill:#C66269;}
	.st57{fill:#C96A72;}
	.st58{fill:#DD9399;}
	.st59{fill:#CF747B;}
	.st60{fill:#D48188;}
	.st61{fill:#D37D85;}
	.st62{fill:#DC9298;}
	.st63{fill:#D8838B;}
	.st64{fill:#FAECED;}
	.st65{fill:#EFCBD0;}
	.st66{fill:#EDC1C5;}
	.st67{fill:#D28089;}
	.st68{fill:#CB747D;}
	.st69{fill:#A8343C;}
	.st70{fill:#A62F37;}
	.st71{fill:#B03E44;}
	.st72{fill:#C25C63;}
	.st73{fill:#E1A8AC;}
	.st74{fill:#BE535C;}
	.st75{fill:#CE727C;}
	.st76{fill:#F5D8DA;}
	.st77{fill:#D8BAE7;}
	.st78{fill:#BC8FD2;}
	.st79{fill:#B17FC9;}
	.st80{fill:#7D3CA4;}
	.st81{fill:#884BAE;}
	.st82{fill:#A369BF;}
	.st83{fill:#D2B5E2;}
	.st84{fill:#9A62BC;}
	.st85{fill:#B17ECB;}
	.st86{fill:#ECE0F2;}
	.st87{fill:#FBCBC8;}
	.st88{fill:#F5908C;}
	.st89{fill:#F28580;}
	.st90{fill:#E64640;}
	.st91{fill:#E5413B;}
	.st92{fill:#E74E49;}
	.st93{fill:#ED6D68;}
	.st94{fill:#F7B5B0;}
	.st95{fill:#ED6660;}
	.st96{fill:#F48580;}
	.st97{fill:#FBDFDF;}
	.st98{fill:#F9C1C0;}
	.st99{fill:#F7B7B6;}
	.st100{fill:#EF7573;}
	.st101{fill:#EF6F6D;}
	.st102{fill:#F17F7C;}
	.st103{fill:#F4A19F;}
	.st104{fill:#F39998;}
	.st105{fill:#EC7271;}
	.st106{fill:#FAD1CF;}
	.st107{fill:#FADCDC;}
	.st108{fill:#F39391;}
	.st109{fill:#FDECEC;}
	.st110{fill:#FCDDDD;}
	.st111{fill:#ED8280;}
	.st112{fill:#E66160;}
	.st113{fill:#F18784;}
	.st114{fill:#F19593;}
	.st115{fill:#EB7675;}
	.st116{fill:#E86867;}
	.st117{fill:#F28785;}
	.st118{fill:#F3A7A7;}
	.st119{fill:#F08C8B;}
	.st120{fill:#F08785;}
	.st121{fill:#E55D5B;}
	.st122{fill:#E86D6C;}
	.st123{fill:#E85F5D;}
	.st124{fill:#E75958;}
	.st125{fill:#EA6664;}
	.st126{fill:#E76260;}
	.st127{fill:#E04948;}
	.st128{fill:#ED7371;}
	.st129{fill:#EA6B6A;}
	.st130{fill:#EB6763;}
	.st131{fill:#E45352;}
	.st132{fill:#E54E4C;}
	.st133{fill:#DE3635;}
	.st134{fill:#E65958;}
	.st135{fill:#E0413E;}
	.st136{fill:#EA6D6A;}
	.st137{fill:#EE9493;}
	.st138{fill:#EA6866;}
	.st139{fill:#F2A8A6;}
	.st140{fill:#E14543;}
	.st141{fill:#E3413F;}
	.st142{fill:#E64A48;}
	.st143{fill:#E56967;}
	.st144{fill:#E33F3D;}
	.st145{fill:#EB7775;}
	.st146{fill:#EE8483;}
	.st147{fill:#E64845;}
	.st148{fill:#E75655;}
	.st149{fill:#E65451;}
	.st150{fill:#EA7473;}
	.st151{fill:#E55B57;}
	.st152{fill:#E75756;}
	.st153{fill:#EB7472;}
	.st154{fill:#EE8C8A;}
	.st155{fill:#F5A3A2;}
	.st156{fill:#E14A49;}
	.st157{fill:#E14D4C;}
	.st158{fill:#E14B49;}
	.st159{fill:#DE3E3D;}
	.st160{fill:#E45350;}
	.st161{fill:#E14544;}
	.st162{fill:#E54E4B;}
	.st163{fill:#E34240;}
	.st164{fill:#E75C5A;}
	.st165{fill:#EB7C7B;}
	.st166{fill:#F3A2A1;}
	.st167{fill:#EA7877;}
	.st168{fill:#E66B6A;}
	.st169{fill:#E96A69;}
	.st170{fill:#E56160;}
	.st171{fill:#E44845;}
	.st172{fill:#EC7473;}
	.st173{fill:#F9C0D3;}
	.st174{fill:#F298B5;}
	.st175{fill:#EE89A7;}
	.st176{fill:#E54D73;}
	.st177{fill:#E44771;}
	.st178{fill:#E7567E;}
	.st179{fill:#EC7797;}
	.st180{fill:#F8BCCF;}
	.st181{fill:#EB6D8F;}
	.st182{fill:#F089A8;}
	.st183{fill:#FCE2EB;}
	.st184{fill:#E55B7F;}
	.st185{fill:#E6708E;}
	.st186{fill:#EB87A2;}
	.st187{fill:#E25677;}
	.st188{fill:#E7678B;}
	.st189{fill:#FBD7E3;}
	.st190{fill:#ED80A1;}
	.st191{fill:#E24166;}
	.st192{fill:#E13B65;}
	.st193{fill:#E34870;}
	.st194{fill:#E76486;}
	.st195{fill:#F49DB8;}
	.st196{fill:#F7BFD1;}
	.st197{fill:#E65C7F;}
	.st198{fill:#F6ABC4;}
	.st199{fill:#F6A7C2;}
	.st200{fill:#EA6189;}
	.st201{fill:#DB3258;}
	.st202{fill:#DA2E55;}
	.st203{fill:#F7B2C9;}
	.st204{fill:#EA6A8D;}
	.st205{fill:#DC355B;}
	.st206{fill:#DB3159;}
	.st207{fill:#DF3C63;}
	.st208{fill:#F9C5D6;}
	.st209{fill:#EB7697;}
	.st210{fill:#DE3B61;}
	.st211{fill:#DE375F;}
	.st212{fill:#E1426A;}
	.st213{fill:#FDE7EE;}
	.st214{fill:#EE89A9;}
	.st215{fill:#E2456B;}
	.st216{fill:#E14069;}
	.st217{fill:#E44D75;}
	.st218{fill:#E86B8C;}
	.st219{fill:#EE7A9C;}
	.st220{fill:#F5A8C0;}
	.st221{fill:#FACBDA;}
	.st222{fill:#E65A7D;}
	.st223{fill:#E04169;}
	.st224{fill:#FEF5F9;}
	.st225{fill:#F191B0;}
	.st226{fill:#EA7292;}
	.st227{fill:#F6B4C9;}
	.st228{fill:#FBD8E5;}
	.st229{fill:#E96C8F;}
	.st230{fill:#E35477;}
	.st231{fill:#EA7396;}
	.st232{fill:#EB7A9D;}
	.st233{fill:#E8698D;}
	.st234{fill:#EB7094;}
	.st235{fill:#E04B6E;}
	.st236{fill:#E66085;}
	.st237{fill:#EB7294;}
	.st238{fill:#E7678C;}
	.st239{fill:#EA6D91;}
	.st240{fill:#E14C71;}
	.st241{fill:#EE7A9D;}
	.st242{fill:#F393B2;}
	.st243{fill:#DC3F64;}
	.st244{fill:#EF82A3;}
	.st245{fill:#F39DB9;}
	.st246{fill:#DF466B;}
	.st247{fill:#DF4469;}
	.st248{fill:#F29A98;}
	.st249{fill:#E64F4D;}
	.st250{fill:#E74947;}
	.st251{fill:#E85956;}
	.st252{fill:#EC7775;}
	.st253{fill:#F8BCBA;}
	.st254{fill:#EC6F6D;}
	.st255{fill:#FCE2E2;}
	.st256{fill:#F8C8C6;}
	.st257{fill:#F08B89;}
	.st258{fill:#F18A89;}
	.st259{fill:#B093A4;}
	.st260{fill:#A38295;}
	.st261{fill:#6F455A;}
	.st262{fill:#694055;}
	.st263{fill:#794F64;}
	.st264{fill:#936F83;}
	.st265{fill:#CDB7C1;}
	.st266{fill:#B596A5;}
	.st267{fill:#A58394;}
	.st268{fill:#8C667A;}
	.st269{fill:#B696A7;}
	.st270{fill:#E8E0E7;}
	.st271{fill:#E1BCC2;}
	.st272{fill:#A9666E;}
	.st273{fill:#681C23;}
	.st274{fill:#641920;}
	.st275{fill:#73242D;}
	.st276{fill:#8D3F48;}
	.st277{fill:#C69197;}
	.st278{fill:#893841;}
	.st279{fill:#E3CCCE;}
	.st280{fill:#6F292E;}
	.st281{fill:#A15A63;}
	.st282{fill:#944952;}
	.st283{fill:#944953;}
	.st284{fill:#964A53;}
	.st285{fill:#984B54;}
	.st286{fill:#974A53;}
	.st287{fill:#A25A62;}
	.st288{fill:#D2BCC8;}
	.st289{fill:#C8B2BE;}
	.st290{fill:#936A80;}
	.st291{fill:#8E667B;}
	.st292{fill:#9B7589;}
	.st293{fill:#B293A3;}
	.st294{fill:#916B7F;}
	.st295{fill:#DDCCD6;}
	.st296{fill:#AC8B9C;}
	.st297{fill:#F1EBEF;}
	.st298{fill:#9C7A8C;}
	.st299{fill:#8F6C80;}
	.st300{fill:#B99DAC;}
	.st301{fill:#A27F91;}
	.st302{fill:#C2A7B6;}
	.st303{fill:#AB8E9F;}
	.st304{fill:#936D82;}
	.st305{fill:#856174;}
	.st306{fill:#B99DAB;}
	.st307{fill:#C2A9B6;}
	.st308{fill:#A38091;}
	.st309{fill:#BBA3B0;}
	.st310{fill:#7A5468;}
	.st311{fill:#855F73;}
	.st312{fill:#AE8E9F;}
	.st313{fill:#7C556A;}
	.st314{fill:#7B5066;}
	.st315{fill:#855C71;}
	.st316{fill:#AF8E9F;}
	.st317{fill:#734B60;}
	.st318{fill:#694256;}
	.st319{fill:#916A80;}
	.st320{fill:#886378;}
	.st321{fill:#875C71;}
	.st322{fill:#714B5E;}
	.st323{fill:#582F42;}
	.st324{fill:#795066;}
	.st325{fill:#5E3A4B;}
	.st326{fill:#8A6578;}
	.st327{fill:#A98E9D;}
	.st328{fill:#B9A1B1;}
	.st329{fill:#B08F9F;}
	.st330{fill:#B898AA;}
	.st331{fill:#896578;}
	.st332{fill:#653C50;}
	.st333{fill:#623A4E;}
	.st334{fill:#6C4257;}
	.st335{fill:#B28FA1;}
	.st336{fill:#80596E;}
	.st337{fill:#7F586C;}
	.st338{fill:#765063;}
	.st339{fill:#683F53;}
	.st340{fill:#774E63;}
	.st341{fill:#704B5F;}
	.st342{fill:#674355;}
	.st343{fill:#7F5A6E;}
	.st344{fill:#815A6E;}
	.st345{fill:#6A4558;}
	.st346{fill:#5D374A;}
	.st347{fill:#926D80;}
	.st348{fill:#70475B;}
	.st349{fill:#72495E;}
	.st350{fill:#673D52;}
	.st351{fill:#673D51;}
	.st352{fill:#60364B;}
	.st353{fill:#795265;}
	.st354{fill:#683F52;}
	.st355{fill:#7A5368;}
	.st356{fill:#987387;}
	.st357{fill:#70475C;}
	.st358{fill:#A07D92;}
	.st359{fill:#81596E;}
	.st360{fill:#926C7F;}
	.st361{fill:#80596D;}
	.st362{fill:#CDC0E4;}
	.st363{fill:#A998CF;}
	.st364{fill:#644DA1;}
	.st365{fill:#5E479E;}
	.st366{fill:#6F56A9;}
	.st367{fill:#755CAC;}
	.st368{fill:#8975BA;}
	.st369{fill:#C4BAE0;}
	.st370{fill:#755DAD;}
	.st371{fill:#846DB7;}
	.st372{fill:#E7E2F2;}
	.st373{fill:#9B89C5;}
	.st374{fill:#8871B8;}
	.st375{fill:#9C89C6;}
	.st376{fill:#8673B9;}
	.st377{fill:#B9E1BA;}
	.st378{fill:#ADDBAE;}
	.st379{fill:#99D09A;}
	.st380{fill:#65B567;}
	.st381{fill:#5FB261;}
	.st382{fill:#70BB71;}
	.st383{fill:#8DCB8E;}
	.st384{fill:#CBE9CB;}
	.st385{fill:#86C687;}
	.st386{fill:#98D099;}
	.st387{fill:#EBF5EB;}
	.st388{fill:#B9D6C9;}
	.st389{fill:#8EBD9E;}
	.st390{fill:#7DB18E;}
	.st391{fill:#408251;}
	.st392{fill:#3A7F4C;}
	.st393{fill:#4A8C5B;}
	.st394{fill:#68A279;}
	.st395{fill:#B5D4BE;}
	.st396{fill:#7CB38B;}
	.st397{fill:#619D71;}
	.st398{fill:#E0ECE4;}
	.st399{fill:#74A38C;}
	.st400{fill:#679880;}
	.st401{fill:#669780;}
	.st402{fill:#669881;}
	.st403{fill:#285E41;}
	.st404{fill:#235A3C;}
	.st405{fill:#31684A;}
	.st406{fill:#4D8268;}
	.st407{fill:#A1C2B0;}
	.st408{fill:#679981;}
	.st409{fill:#467B62;}
	.st410{fill:#D6E5DF;}
	.st411{fill:#8ECA8F;}
	.st412{fill:#7DC07F;}
	.st413{fill:#409841;}
	.st414{fill:#3A933C;}
	.st415{fill:#4AA14B;}
	.st416{fill:#68B569;}
	.st417{fill:#7CC07D;}
	.st418{fill:#B5DDB5;}
	.st419{fill:#61B062;}
	.st420{fill:#7CC17E;}
	.st421{fill:#E0EFE0;}
	.st422{fill:#EBF5DE;}
	.st423{fill:#D4EAB8;}
	.st424{fill:#D2E9B4;}
	.st425{fill:#D8ECBE;}
	.st426{fill:#E2F0CE;}
	.st427{fill:#F3F9EA;}
	.st428{fill:#DFF0CA;}
	.st429{fill:#FAFDF7;}
	.st430{fill:#D3C9BE;}
	.st431{fill:#CBBEB3;}
	.st432{fill:#BBAC9F;}
	.st433{fill:#97826F;}
	.st434{fill:#947E69;}
	.st435{fill:#9F8A79;}
	.st436{fill:#B5A495;}
	.st437{fill:#DED6CE;}
	.st438{fill:#BBAD9F;}
	.st439{fill:#AE9E8D;}
	.st440{fill:#F2EFEC;}
	.st441{fill:#B1A091;}
	.st442{fill:#B1A090;}
	.st443{fill:#D8BACF;}
	.st444{fill:#976286;}
	.st445{fill:#905778;}
	.st446{fill:#4F1939;}
	.st447{fill:#4C1637;}
	.st448{fill:#5A2144;}
	.st449{fill:#773B60;}
	.st450{fill:#B88FAD;}
	.st451{fill:#6E345A;}
	.st452{fill:#8E567D;}
	.st453{fill:#E1CCDA;}
	.st454{fill:#C4E2A7;}
	.st455{fill:#93C35F;}
	.st456{fill:#8EC15A;}
	.st457{fill:#9AC868;}
	.st458{fill:#B0D587;}
	.st459{fill:#DCEBC3;}
	.st460{fill:#C8E0AA;}
	.st461{fill:#ABD280;}
	.st462{fill:#CAE2A9;}
	.st463{fill:#EFF8E7;}
	.st464{fill:#FFF6C0;}
	.st465{fill:#FFEC97;}
	.st466{fill:#FFDC4B;}
	.st467{fill:#FFD945;}
	.st468{fill:#FFDD54;}
	.st469{fill:#FFE774;}
	.st470{fill:#FFF4BA;}
	.st471{fill:#FFE46C;}
	.st472{fill:#FFF9E2;}
	.st473{fill:#FDE2C1;}
	.st474{fill:#F9CA98;}
	.st475{fill:#F9C18A;}
	.st476{fill:#F5994E;}
	.st477{fill:#F49448;}
	.st478{fill:#F8A158;}
	.st479{fill:#F8B577;}
	.st480{fill:#FCDDBC;}
	.st481{fill:#F8B06F;}
	.st482{fill:#FFEFE2;}
	.st483{fill:#F8A7A4;}
	.st484{fill:#EF8262;}
	.st485{fill:#EC605A;}
	.st486{fill:#EB5B55;}
	.st487{fill:#EC6964;}
	.st488{fill:#F28783;}
	.st489{fill:#F9C4C1;}
	.st490{fill:#F2817A;}
	.st491{fill:#EB6449;}
	.st492{fill:#FCE7E7;}
	.st493{fill:#FFEA88;}
	.st494{fill:#FFEB87;}
	.st495{fill:#FDF2E3;}
	.st496{fill:#FDEFDD;}
	.st497{fill:#F9E1C4;}
	.st498{fill:#FADEB9;}
	.st499{fill:#FADDB7;}
	.st500{fill:#FAE0BF;}
	.st501{fill:#FBE9CF;}
	.st502{fill:#F9DAB8;}
	.st503{fill:#FDF5EB;}
	.st504{fill:#FBE6CB;}
	.st505{fill:#FFFBF7;}
	.st506{fill:#FBDFBE;}
	.st507{fill:#F7D8B5;}
	.st508{fill:#FBE8CF;}
	.st509{fill:#FBE3C8;}
	.st510{fill:#F9E8CF;}
	.st511{fill:#F8DBB7;}
	.st512{fill:#FADBB5;}
	.st513{fill:#F7D5AE;}
	.st514{fill:#FDE9D5;}
	.st515{fill:#FAE3C8;}
	.st516{fill:#F7D1A4;}
	.st517{fill:#F5CD9D;}
	.st518{fill:#F7D8B0;}
	.st519{fill:#F8D4A9;}
	.st520{fill:#F8D3A6;}
	.st521{fill:#F8D8AF;}
	.st522{fill:#F7CD9E;}
	.st523{fill:#F4C896;}
	.st524{fill:#FBE3C5;}
	.st525{fill:#F7DBB8;}
	.st526{fill:#F7D8B1;}
	.st527{fill:#F7D7B0;}
	.st528{fill:#F8CD9F;}
	.st529{fill:#F8CD9E;}
	.st530{fill:#F1BE84;}
	.st531{fill:#F8D0A3;}
	.st532{fill:#F1C38D;}
	.st533{fill:#F8D8B1;}
	.st534{fill:#FBE2C8;}
	.st535{fill:#F9EAD3;}
	.st536{fill:#F9D3AA;}
	.st537{fill:#F7C896;}
	.st538{fill:#F7C794;}
	.st539{fill:#F7CA9A;}
	.st540{fill:#F7D3AB;}
	.st541{fill:#F8D8B5;}
	.st542{fill:#F9E6CF;}
	.st543{fill:#F7C897;}
	.st544{fill:#F8D3AA;}
	.st545{fill:#F7CEA2;}
	.st546{fill:#F4CD9E;}
	.st547{fill:#F5D2A5;}
	.st548{fill:#FBE2C2;}
	.st549{fill:#F5D1A8;}
	.st550{fill:#F8D5AB;}
	.st551{fill:#F2C695;}
	.st552{fill:#F8D3A8;}
	.st553{fill:#F5C998;}
	.st554{fill:#F5C894;}
	.st555{fill:#F2C997;}
	.st556{fill:#F2C48D;}
	.st557{fill:#F4C694;}
	.st558{fill:#F5CE9D;}
	.st559{fill:#F4C594;}
	.st560{fill:#F5C995;}
	.st561{fill:#F4C48F;}
	.st562{fill:#F7D2A6;}
	.st563{fill:#F8DFBB;}
	.st564{fill:#FBE2C3;}
	.st565{fill:#F8CC9E;}
	.st566{fill:#FADFC1;}
	.st567{fill:#F9D8B5;}
	.st568{fill:#F4C997;}
	.st569{fill:#F9DDB8;}
	.st570{fill:#FDFCED;}
	.st571{fill:#FBF7D2;}
	.st572{fill:#F9F6CB;}
	.st573{fill:#F4EBA8;}
	.st574{fill:#F5E9A6;}
	.st575{fill:#F5EDAC;}
	.st576{fill:#F7F5C0;}
	.st577{fill:#FBFBE1;}
	.st578{fill:#F7F0BE;}
	.st579{fill:#FAF6CE;}
	.st580{fill:#FFFBF5;}
	.st581{fill:#BDDB97;}
	.st582{fill:#BBDC99;}
	.st583{fill:#BDDD99;}
	.st584{fill:#B0D484;}
	.st585{fill:#AFD484;}
	.st586{fill:#FFEA87;}
	.st587{fill:#D3E9BA;}
	.st588{fill:#E1EECE;}
	.st589{fill:#D3E8BB;}
	.st590{fill:#E3EECE;}
	.st591{opacity:0.9;}
	.st592{fill:#FFF8CD;}
	.st593{opacity:0.9;fill:#FFEE8A;}
	.st594{fill:#FFF19E;}
	.st595{fill:#FFF5B6;}
	.st596{fill:#FFFBE0;}
	.st597{fill:none;stroke:#FFF4B1;stroke-width:0;}
	.st598{fill:#FFFDF3;}
	.st599{fill:#FACEDD;}
	.st600{opacity:0.9;fill:#F38CAF;}
	.st601{fill:#F5A0BD;}
	.st602{fill:#F8B8CD;}
	.st603{fill:#FCE1EA;}
	.st604{fill:none;stroke:#F7B2C9;stroke-width:0;}
	.st605{fill:#FEF3F7;}
	.st606{fill:#FBDBB6;}
	.st607{fill:#FBD1A3;}
	.st608{fill:#F9B674;}
	.st609{fill:#F8B36E;}
	.st610{fill:#FABB7E;}
	.st611{fill:#FACB99;}
	.st612{fill:#FDE9D1;}
	.st613{fill:#FAC893;}
	.st614{fill:#F9D0A1;}
	.st615{fill:#FFF5EC;}
	.st616{fill:#D7ECC0;}
	.st617{fill:#B1D684;}
	.st618{fill:#ADD680;}
	.st619{fill:#B7D98D;}
	.st620{fill:#C8E2A7;}
	.st621{fill:#E8F2D6;}
	.st622{fill:#C3E0A0;}
	.st623{fill:#F5FAEF;}
	.st624{fill:#A87699;}
	.st625{fill:#A9716E;}
	.st626{fill:#9F698A;}
	.st627{fill:#9F698D;}
	.st628{fill:#65294F;}
	.st629{fill:#632638;}
	.st630{fill:#62244A;}
	.st631{fill:#612335;}
	.st632{fill:#6E3259;}
	.st633{fill:#6D2F40;}
	.st634{fill:#8B4E74;}
	.st635{fill:#C4A1BB;}
	.st636{fill:#9D688D;}
	.st637{fill:#82476E;}
	.st638{fill:#E7D6E1;}
	.st639{fill:#FFF9D6;}
	.st640{fill:#FFF2A6;}
	.st641{fill:#FFF4B0;}
	.st642{fill:#FFF7C4;}
	.st643{fill:#FFFCE6;}
	.st644{fill:#FFF3B5;}
	.st645{fill:#FFED8B;}
	.st646{fill:#FFED94;}
	.st647{fill:#FFF1A4;}
	.st648{fill:#FFF5BF;}
	.st649{fill:#FFF6CD;}
	.st650{fill:#FFE46E;}
	.st651{fill:#FFED98;}
	.st652{fill:#FFF3A9;}
	.st653{fill:#FFEC8D;}
	.st654{fill:#FFE66B;}
	.st655{fill:#FFEC8A;}
	.st656{fill:#FFE66D;}
	.st657{fill:#FFE571;}
	.st658{fill:#FFEF94;}
	.st659{fill:#FFEF9E;}
	.st660{fill:#FFED93;}
	.st661{fill:#FFE873;}
	.st662{fill:#FFE97A;}
	.st663{fill:#FFEC87;}
	.st664{fill:#FFF19F;}
	.st665{fill:#FFF1A8;}
	.st666{fill:#FFEA7E;}
	.st667{fill:#FFEB86;}
	.st668{fill:#FFEF97;}
	.st669{fill:#FFF2B0;}
	.st670{fill:#FFF4BC;}
	.st671{fill:#FFF5C1;}
	.st672{fill:#FFF8CF;}
	.st673{fill:#FFF8DC;}
	.st674{fill:#FFF0A0;}
	.st675{fill:#FFEE92;}
	.st676{fill:#FFF6CE;}
	.st677{fill:#FFFADD;}
	.st678{fill:#FFFBEC;}
	.st679{fill:#FFFDF5;}
	.st680{fill:#F49C52;}
	.st681{fill:#F69D52;}
	.st682{fill:#F8A55E;}
	.st683{fill:#F8B472;}
	.st684{fill:#F59D54;}
	.st685{fill:#F8A65F;}
	.st686{fill:#F8B474;}
	.st687{fill:#FDF3E9;}
	.st688{fill:#FAE8D1;}
	.st689{fill:#FAE8CF;}
	.st690{fill:#FAEBD4;}
	.st691{fill:#F9EDD7;}
	.st692{fill:#FBEFDE;}
	.st693{fill:#FBEFDD;}
	.st694{fill:#FDF8F1;}
	.st695{fill:#FBEDD7;}
	.st696{fill:#FBEFDC;}
	.st697{fill:#FFFBFA;}
	.st698{fill:#FFE771;}
	.st699{fill:#FFEB83;}
	.st700{fill:#FFED90;}
	.st701{fill:#F7B6CB;}
	.st702{fill:#F4A2BB;}
	.st703{fill:#EE7397;}
	.st704{fill:#ED6D94;}
	.st705{fill:#EF7C9F;}
	.st706{fill:#F399B5;}
	.st707{fill:#FAD1DE;}
	.st708{fill:#F291AE;}
	.st709{fill:#F3A1BB;}
	.st710{fill:#FDECF2;}
</style>
<g>
	<path class="st87" d="M117.75,78.11L117.75,78.11c-0.2,2.88-0.75,5.62-1.49,8.16l0,0C116.99,83.73,117.54,81,117.75,78.11
		 M112.68,58.4c0.04,0.06,0.08,0.12,0.12,0.18c1.31,1.94,2.32,3.91,2.94,5.41c0.62,1.5,0.91,2.49,0.91,2.49
		c0.1,0.39,0.19,0.79,0.28,1.18l0,0c-0.07-0.32-0.15-0.64-0.22-0.96c-0.02-0.07-0.04-0.15-0.05-0.22c0,0-0.3-0.99-0.91-2.49
		c-0.61-1.5-1.62-3.47-2.94-5.41C112.76,58.52,112.72,58.46,112.68,58.4 M47.32,56.71L47.32,56.71c-0.04,0.05-0.08,0.1-0.12,0.14
		C47.24,56.81,47.28,56.76,47.32,56.71L47.32,56.71 M52.78,51.64c-0.03,0.02-0.07,0.05-0.1,0.07l0,0l0,0
		C52.72,51.69,52.75,51.67,52.78,51.64 M56.7,49.17L56.7,49.17L56.7,49.17c-0.43,0.24-0.92,0.5-1.57,0.9
		c-0.02,0.01-0.04,0.03-0.06,0.04l0,0l0,0C55.74,49.69,56.25,49.41,56.7,49.17L56.7,49.17 M58.11,48.49L58.11,48.49
		C58.11,48.49,58.11,48.49,58.11,48.49C58.11,48.49,58.11,48.49,58.11,48.49L58.11,48.49 M64.99,45.96L64.99,45.96
		c-0.1,0.03-0.2,0.06-0.3,0.09l0,0C64.79,46.03,64.89,45.99,64.99,45.96L64.99,45.96 M90.82,44.02L90.82,44.02
		c1.74,0.41,3.31,0.87,4.62,1.32c2.62,0.9,4.2,1.7,4.2,1.7c0.06,0.04,0.12,0.07,0.18,0.11l0,0c-0.06-0.04-0.12-0.07-0.18-0.11
		c0,0-1.58-0.8-4.2-1.7C94.13,44.89,92.56,44.43,90.82,44.02L90.82,44.02 M86.67,43.23L86.67,43.23c0.48,0.08,0.96,0.16,1.43,0.24
		c0.01,0,0.03,0.01,0.04,0.01c-0.01,0-0.03-0.01-0.04-0.01C87.63,43.39,87.15,43.31,86.67,43.23L86.67,43.23 M85.26,43.04
		c0.03,0,0.05,0.01,0.08,0.01c0.01,0,0.02,0,0.03,0c-0.01,0-0.02,0-0.03,0C85.31,43.04,85.28,43.04,85.26,43.04"/>
	<path class="st88" d="M80.02,42.66c-2.23,0-4.41,0.24-6.35,0.75c0.89-0.21,1.92-0.38,3.02-0.49l0,0c1.13-0.12,2.33-0.17,3.55-0.17
		l0,0l0,0l0,0c1.44,0,2.91,0.08,4.32,0.22c-0.54-0.07-1.07-0.12-1.62-0.17C81.97,42.71,80.99,42.66,80.02,42.66"/>
	<path class="st88" d="M80.24,42.74c-1.22,0-2.43,0.06-3.55,0.17l0,0c-1.11,0.11-2.13,0.28-3.03,0.49
		c-0.98,0.26-1.89,0.58-2.73,0.97c-0.05,0.03-0.1,0.06-0.14,0.09l0,0c0,0,0,0,0,0c-0.01,0-0.03,0.01-0.07,0.01
		c-0.05,0.02-0.1,0.05-0.15,0.07c-2.13,0.44-4.09,0.94-5.88,1.49c-0.04,0.01-0.09,0.03-0.13,0.04c-2.46,0.8-4.81,1.83-5.96,2.24
		c-0.32,0.15-0.64,0.3-0.95,0.45c-0.88,0.42-1.62,0.85-2.51,1.35c-0.94,0.58-1.87,1.16-2.75,1.84c-1.79,1.31-3.45,2.9-5.02,4.76
		c-1.5,1.85-2.81,3.75-3.97,5.67c-0.24,0.46-0.48,0.93-0.7,1.4l0,0l0,0l0,0l0,0l0,0l0,0c0.22-0.47,0.45-0.94,0.7-1.4
		c-1.86,3.09-3.33,6.23-4.58,9.31c-2.03,5.02-3.56,9.87-5.45,14.98c-1,2.9-1.76,5.64-2.29,8.21c-0.53,2.58-0.97,4.95-1.12,7.47
		c-0.05,0.82-0.45,2.84-0.45,5.1c0,0.44,0.01,0.88,0.05,1.33c0.17,2.18,0.83,4.25,1.19,5.22c0.76,2.08,2.66,3.97,4.94,5.18
		c2.29,1.24,4.97,1.86,7.26,2.07c1.21,0.06,2.43,0.09,3.64,0.09c2.52,0,5.05-0.12,7.56-0.33c3.72-0.31,7.5-0.84,11.3-2.05
		c0.67-0.14,1.29-0.31,1.92-0.4c0.61-0.12,1.22-0.24,1.84-0.36c1.22-0.27,2.46-0.58,3.77-1.25c0.79-0.46,1.53-0.96,2.23-1.5
		c0.95-0.2,1.89-0.37,2.8-0.52c-0.27-0.01-0.77-0.04-1.45-0.04c-0.63,0-1.4,0.02-2.26,0.08c-1.24,0.59-2.5,1.13-3.78,1.64
		c-3.8,1.13-7.63,1.99-11.08,1.99c-1.59,0-3.1-0.18-4.48-0.6c-2.3-0.64-4.37-1.71-6.03-2.75c-1.66-1.18-2.91-2.51-3.66-3.94
		c-0.02-0.04-0.03-0.08-0.03-0.13l0,0l0,0c0-0.5,1.53-0.87,2.59-0.87c0.03,0,0.06,0,0.09,0c1.05,0.05,2.08,0,3.11,0.09
		c0.51,0.04,1.03,0.1,1.55,0.16c0.52,0.02,1.04,0.05,1.56,0.09c0.9,0.06,1.82,0.17,2.75,0.17c0.15,0,0.3,0,0.45-0.01
		c1.08-0.03,2.2,0.02,3.3-0.17c0.7-0.27,2.1-0.53,2.55-0.88c0.45-0.33,1.11-0.69,1.78-0.99c5.19-1.78,9.53-3.67,14.15-6.14
		c0.58-0.38,1.15-0.73,1.67-1.11c0.51-0.4,1-0.79,1.48-1.18c0.48-0.39,0.96-0.76,1.41-1.15c0.43-0.41,0.86-0.82,1.29-1.23
		c0.43-0.41,0.86-0.81,1.29-1.23c0.41-0.43,0.81-0.89,1.23-1.33c0.42-0.45,0.85-0.91,1.29-1.38c0.26-0.29,0.51-0.59,0.76-0.9
		c1.01-2.26,1.72-4.18,2.16-5.77c0.46-1.57,0.73-2.82,0.87-3.81c0.17-1,0.21-1.74,0.22-2.29c0-0.06,0-0.12,0-0.17
		c0-1.62-0.27-1.56-0.27-1.73l0,0l0,0c0-0.04,0.01-0.09,0.05-0.18c0.29-2.23,1.87-3.57,1.89-6.66c-0.03-0.39-0.07-0.78-0.13-1.15
		c-1.55-1.32-3.65-2.33-6.21-2.83c-0.98-0.2-2.38-0.44-3.95-0.53c-0.65-0.04-1.29-0.06-1.99-0.06c-0.15,0-0.31,0-0.47,0
		c-0.13,0-0.26,0-0.39,0c-0.17,0-0.34,0-0.52,0c-2.01,1.5-3.97,3.16-5.89,4.84c-1.53,1.36-3.04,2.72-4.59,4.09
		c1.22-0.5,2.46-0.55,3.59-0.89c1.18-0.44,2.42-1.08,3.71-1.77c1.3-0.68,2.69-1.35,4.13-1.82c0.67-0.13,1.27-0.18,1.88-0.18
		c0.51,0,1.02,0.04,1.58,0.11c0.19,0.04,0.38,0.06,0.58,0.06l0.5-0.37l0,0l0.21-0.16l0,0l0,0l0,0l0.07-0.05l0,0l0.01-0.01l0.03-0.02
		l0.07-0.06l0.11-0.11l0.06-0.07l0,0c0,0,0,0,0,0c0,0,0-0.01,0-0.01l0-0.01l0-0.01l0-0.01l0,0l0,0v0l-0.01,0.02l0,0.01
		c0,0,0-0.01,0-0.01c0,0,0,0,0,0l0,0l0,0c0,0,0,0,0,0c0,0,0,0,0,0l0,0l0,0l0,0l0,0l0,0l0,0l0,0l0,0l0,0l0,0l0,0l0,0l0,0l0,0
		c0,0,0,0,0,0l-0.01,0.01l-0.02,0.08l-0.02,0.09c-0.02,0.1-0.04,0.24-0.05,0.42c0,0.03,0,0.06,0,0.09c0,0.04,0,0.08,0,0.12
		c0,0,0,0.01,0,0.01l0,0l0,0c0,0.01,0,0.02,0,0.02c0,0,0,0,0,0.01c0,0.01,0,0.01,0,0.02l0,0l0,0l0,0l0,0l0,0l0,0
		c0,0.01,0,0.02,0,0.03c0,0.03,0,0.06,0,0.09c0,0.05,0,0.1,0,0.16c0,0.04,0,0.07,0.01,0.11c0.2,0.43,0.32,0.9,0.37,1.37
		c0.09,0.38,0.12,0.79,0.12,1.2l0,0l0,0c0,0.2-0.01,0.4-0.02,0.6l0.18,0.9l-0.12-0.01l-0.17,0.02c-0.08,0.47-0.18,0.95-0.3,1.42
		c-0.38,1.42-0.92,2.77-1.28,4.08c-0.54,1.73-0.89,3.34-1.39,4.96c-0.5,1.6-1.16,3.2-2.15,4.41c0.13-0.15,0.21-0.23,0.24-0.23
		c0.01,0,0.02,0.01,0.02,0.03l0,0l0,0c0,0.28-1.17,2.36-2.44,4.33c-1.23,1.97-2.56,3.71-2.7,3.71c-0.01,0-0.01-0.01-0.01-0.02l0,0
		l0,0c0-0.04,0.04-0.14,0.14-0.31c-0.1,0.13-0.29,0.2-0.47,0.2c-0.16,0-0.32-0.06-0.4-0.2c-0.02-0.24-0.13-0.48-0.13-0.71l0,0l0,0
		c0-0.07,0.01-0.15,0.04-0.22c0.35-1,0.46-1.82,0.46-2.54c0-1.08-0.24-1.95-0.31-2.91c0,0,0,0,0,0c-0.07,0-0.8,1.06-1.79,2.01
		c-0.81,0.8-1.85,1.42-2.59,1.42c-0.15,0-0.29-0.03-0.41-0.08c-1.06-0.58-1.69-1.78-2.91-1.83c-0.38,0.17-0.9,1.15-1.34,1.31
		c-0.38,0.06-3.24,1.72-7.6,2.67c-1.54,0.36-3.29,0.64-4.92,0.64c-0.63,0-1.25-0.04-1.83-0.14c-1.04-0.16-1.94-0.49-2.58-0.91
		c-0.65-0.42-1.05-0.9-1.28-1.32c-0.15-0.31-0.22-0.59-0.22-0.81l0,0l0,0c0-0.1,0.01-0.18,0.04-0.26c0.59-1.47,2.48-3.45,3.48-3.69
		c1.51-0.63,2.7-1.52,3.85-2.35c1.15-0.84,2.26-1.65,3.56-2.33c0.68-0.32,1.4-0.43,2.09-0.76c1.91-1.02,4.11-2.12,4.6-2.54
		c1.1-0.74,1.62-1.15,1.62-1.51c0-0.08-0.02-0.15-0.07-0.22l0,0l0,0l0,0l0,0l0,0l0,0c0.09-0.14,0.19-0.28,0.28-0.42
		c-0.66,0.28-1.33,0.6-2,0.97c-0.39,0.13-0.94,0.44-1.27,0.44c-0.09,0-0.17-0.02-0.22-0.09c-0.04-0.01-0.06-0.04-0.06-0.07l0,0l0,0
		c0-0.23,0.68-0.95,0.97-1.43c0-0.01,0-0.02,0-0.03l0,0l0,0c0-0.26,0.32-0.69,0.71-1.17c0.28-0.31,0.58-0.64,0.86-0.97
		c-0.16-0.31-0.27-0.55-0.27-0.72l0,0l0,0c0-0.12,0.06-0.21,0.2-0.25c0.01,0,0.01-0.01,0.01-0.02c0-0.17-1.12-1.36-1.13-2.91l0,0
		l0,0c0-0.31,0.04-0.63,0.15-0.96c-0.05-0.01-0.38-0.07-1.06-0.1c-0.04,0.23-0.11,0.58-0.2,1.01c-0.14,0.78-0.25,1.75-0.37,2.64
		c-0.13,0.9-0.26,1.69-0.78,2.38c-0.52,0.7-1.45,1.33-3.28,2.12c0,0-0.71,0.53-1.86,1.49c-1.16,0.95-2.79,2.39-4.63,4.1
		c-1.84,1.68-3.89,3.65-5.65,5.19c-1.35,1.18-2.63,2.04-3.59,2.04c-0.28,0-0.53-0.07-0.75-0.23c0,0-0.24-0.17-0.59-0.53
		c-0.36-0.37-0.82-0.94-1.26-1.8c-0.14-0.21-0.16-0.47-0.2-0.75c-0.04-0.28-0.09-0.58-0.13-0.88c-0.09-0.62-0.17-1.32-0.25-2.1
		c-0.07-0.74-0.11-1.57-0.11-2.47l0,0l0,0c0-0.99,0.05-2.08,0.18-3.27c0.23-2.27,0.71-4.9,1.62-7.82c0.91-2.91,2.27-6.12,4.33-9.31
		c2.04-3.19,4.78-6.37,8.18-9.01c0.83-0.66,1.77-1.31,2.61-1.85c0.81-0.53,1.63-1.01,2.49-1.46c1.72-0.89,3.55-1.66,5.46-2.21
		c0,0,0.82-0.24,2.37-0.8c1.51-0.55,3.78-1.37,6.91-2.51c0,0,1.04-0.17,2.68-0.28c0.68-0.04,1.45-0.07,2.3-0.07
		c1.21,0,2.57,0.06,3.96,0.22c3.02,0.35,6.42,1.12,9.28,2.33c2.88,1.2,5.24,2.83,6.58,4.46c0,0,0.81,0.66,2.03,1.86
		c1.22,1.19,2.8,2.96,4.24,5.18c1.45,2.22,2.73,4.9,3.51,7.71c0.66,2.33,0.96,4.74,0.96,6.96l0,0l0,0c0,0.46-0.01,0.91-0.04,1.35
		c-0.1,1.97-0.39,3.71-0.62,5.17c0,0-0.95,1.85-2.32,4.12c-0.64,1.15-1.52,2.36-2.24,3.62c-0.18,0.3-0.35,0.6-0.5,0.9
		c-0.27,0.64-0.5,1.18-0.68,1.62c-0.17,0.42-0.32,0.73-0.43,0.95c-0.11,0.21-0.16,0.33-0.16,0.33l0,0l0,0l0,0l0,0l0,0l0,0
		c0.37-0.94,0.77-1.93,1.27-2.9c0.23-0.56,0.5-1.19,0.79-1.88c0.21-0.45,0.41-0.94,0.6-1.46c-0.78,1.63-1.54,3.24-2.28,4.8
		c-0.36,0.79-0.83,1.53-1.28,2.25c-0.4,0.65-0.8,1.28-1.18,1.89c-0.67,1.13-1.47,2.06-2.14,2.95c-0.7,0.87-1.3,1.69-1.94,2.28
		c-1.23,1.23-2.15,2-2.62,2.11c0,0-0.19,0.18-0.52,0.49c-0.35,0.29-0.85,0.71-1.47,1.21c-0.62,0.5-1.35,1.09-2.15,1.73
		c-0.84,0.58-1.76,1.2-2.71,1.84c-0.93,0.66-1.95,1.22-2.96,1.77c-1.01,0.53-1.97,1.11-2.94,1.49c-1.38,0.57-2.59,1.07-3.57,1.34
		c0.59-0.09,1.17-0.17,1.74-0.24c3.19-0.33,6.12-0.53,8.85-0.53c0.11,0,0.21,0,0.32,0c1.38,0.03,2.83,0.23,4.41,0.23
		c0.69,0,1.4-0.04,2.14-0.15c2.34-0.45,5.12-1.56,7.85-4.8c3.13-3.97,5.06-7.08,8.08-13.7c1.48-3.04,2.7-6.11,3.59-9.27
		c-0.15,0.53-0.32,1.05-0.49,1.57c-0.01,0.02-0.02,0.05-0.02,0.07c-0.26,0.77-0.52,1.51-0.8,2.24l0,0l0,0
		c-0.26,0.75-0.66,1.45-0.97,2.14l0,0c-0.64,1.38-1.23,2.68-1.76,3.89l0,0c-0.51,1.18-0.97,2.24-1.51,3.16
		c-0.02,0.03-0.03,0.05-0.05,0.08l0,0c-0.26,0.47-0.5,0.91-0.72,1.31c0,0.01-0.01,0.01-0.01,0.02c0,0.01-0.01,0.01-0.01,0.02
		c-0.25,0.45-0.32,0.62-0.45,0.89l0,0c-0.01,0.01-0.01,0.02-0.02,0.03c-0.46,0.97-0.72,1.51-0.72,1.51l0,0l0,0l0,0l0,0l0,0l0,0
		c0,0,0.26-0.54,0.72-1.51c0.01-0.01,0.01-0.02,0.02-0.03l0,0c0.14-0.27,0.21-0.44,0.45-0.89c0-0.01,0.01-0.01,0.01-0.02
		c0-0.01,0.01-0.01,0.01-0.02c0.22-0.4,0.46-0.84,0.72-1.31l0,0c0.02-0.03,0.03-0.05,0.05-0.08c0.54-0.92,1-1.98,1.51-3.16l0,0
		c0.53-1.21,1.11-2.51,1.76-3.89l0,0c0.3-0.7,0.7-1.39,0.97-2.14l0,0l0,0c0.28-0.72,0.54-1.47,0.8-2.24
		c0.01-0.02,0.02-0.05,0.02-0.07c0.17-0.51,0.33-1.03,0.49-1.57c0.74-2.64,1.25-5.35,1.49-8.16c0.02-0.23,0.03-0.45,0.04-0.68
		c0.03-0.55,0.04-1.1,0.04-1.66c0-2.65-0.3-5.39-0.9-8.11c-0.36-1.35-0.81-2.67-1.35-3.95c-1.7-3.97-4.24-7.72-8.05-11.06
		c-0.14-0.14-0.35-0.35-0.61-0.59c-0.97-0.8-1.83-1.4-2.41-1.73c-0.03-0.02-0.05-0.03-0.08-0.05c-1.44-1.14-2.97-2.19-4.6-3.15
		c-2.67-1.15-5.55-2.15-8.54-2.9c-1.54-0.39-3.1-0.71-4.66-0.98l-1.12-0.17l-0.85-0.11c-0.03,0-0.06-0.01-0.09-0.01
		C83.15,42.82,81.68,42.74,80.24,42.74L80.24,42.74"/>
	<path class="st89" d="M109.47,101.66L109.47,101.66c-0.01,0.01-0.01,0.02-0.02,0.03C109.46,101.68,109.46,101.67,109.47,101.66
		L109.47,101.66 M109.95,100.73c0,0.01-0.01,0.01-0.01,0.02c0,0.01-0.01,0.01-0.01,0.02c0-0.01,0.01-0.01,0.01-0.02
		C109.94,100.74,109.94,100.74,109.95,100.73 M110.71,99.34L110.71,99.34c-0.01,0.01-0.01,0.02-0.02,0.04
		c-0.01,0.01-0.02,0.03-0.03,0.04l0,0l0,0C110.68,99.39,110.69,99.37,110.71,99.34 M113.98,92.29L113.98,92.29
		c-0.64,1.38-1.23,2.68-1.76,3.89l0,0l0,0C112.75,94.97,113.33,93.67,113.98,92.29L113.98,92.29 M116.25,86.27
		c-0.15,0.53-0.32,1.05-0.49,1.57c-0.01,0.02-0.02,0.05-0.02,0.07c0.01-0.02,0.02-0.05,0.02-0.07
		C115.94,87.32,116.1,86.8,116.25,86.27L116.25,86.27 M116.93,67.66L116.93,67.66c0.6,2.72,0.9,5.46,0.9,8.11l0,0
		C117.83,73.12,117.53,70.38,116.93,67.66L116.93,67.66 M43.4,62.41L43.4,62.41c-0.24,0.46-0.48,0.93-0.7,1.4l0,0
		C42.92,63.34,43.15,62.87,43.4,62.41L43.4,62.41 M104.5,50.34c0.59,0.33,1.44,0.93,2.41,1.73l0,0l0,0
		C105.95,51.27,105.09,50.67,104.5,50.34L104.5,50.34 M99.82,47.14L99.82,47.14c1.63,0.96,3.17,2.01,4.6,3.15
		c0.03,0.01,0.05,0.03,0.08,0.05c-0.03-0.02-0.05-0.03-0.08-0.05C102.98,49.15,101.44,48.1,99.82,47.14L99.82,47.14 M64.56,46.1
		L64.56,46.1c-2.46,0.8-4.81,1.83-5.96,2.24l0,0l0,0C59.75,47.93,62.11,46.9,64.56,46.1 M64.69,46.06L64.69,46.06
		c-0.04,0.01-0.09,0.03-0.13,0.04C64.61,46.09,64.65,46.07,64.69,46.06L64.69,46.06 M70.79,44.48L70.79,44.48
		c-0.01,0-0.03,0.01-0.07,0.01l0,0l0,0C70.76,44.48,70.78,44.48,70.79,44.48 M70.79,44.48L70.79,44.48
		C70.79,44.48,70.79,44.48,70.79,44.48C70.79,44.48,70.79,44.48,70.79,44.48L70.79,44.48 M70.94,44.38L70.94,44.38
		c-0.05,0.03-0.1,0.06-0.14,0.09l0,0C70.84,44.45,70.89,44.41,70.94,44.38L70.94,44.38 M76.69,42.92L76.69,42.92
		c-1.11,0.11-2.13,0.28-3.03,0.49l0,0l0,0C74.56,43.2,75.59,43.03,76.69,42.92 M80.24,42.74c1.44,0,2.91,0.08,4.32,0.22l0,0l0,0
		C83.15,42.82,81.68,42.74,80.24,42.74L80.24,42.74 M80.24,42.74c-1.22,0-2.43,0.06-3.55,0.17l0,0l0,0
		C77.82,42.8,79.02,42.74,80.24,42.74L80.24,42.74"/>
	<path class="st88" d="M70.94,44.38c-0.07,0.03-0.15,0.07-0.22,0.11c0.04-0.01,0.06-0.01,0.07-0.01c0,0,0,0,0,0l0,0
		C70.84,44.45,70.89,44.41,70.94,44.38"/>
	<path class="st88" d="M64.69,46.06c-0.46,0.14-0.9,0.28-1.34,0.43c-1.74,0.59-3.31,1.19-4.76,1.85c1.15-0.41,3.51-1.44,5.96-2.24
		C64.61,46.09,64.65,46.07,64.69,46.06"/>
	<path class="st88" d="M76.7,54.53c-1.48,0-3.16,0.13-5,0.49c-0.96,0.18-1.97,0.45-3,0.79c0.88-0.23,1.95-0.46,3.1-0.65
		c2.27-0.4,4.86-0.54,7.07-0.54c0.01,0,0.03,0,0.04,0C78.23,54.57,77.49,54.53,76.7,54.53 M99.82,47.14
		c1.63,0.96,3.17,2.01,4.6,3.15c0.03,0.01,0.05,0.03,0.08,0.05c0.59,0.33,1.44,0.93,2.41,1.73c-0.65-0.6-1.62-1.44-2.71-2.23
		c-1.51-1.12-3.22-2.12-4.12-2.58C99.99,47.22,99.9,47.18,99.82,47.14"/>
	<path class="st88" d="M79.98,62.63c-3.55,0.15-6.92,0.98-9.51,2.51c-1.45,0.83-2.67,1.86-3.64,2.98c2.46-2.06,5.41-3.64,8.84-4.59
		C77.05,63.13,78.5,62.84,79.98,62.63"/>
	<path class="st88" d="M55.06,67.55c-0.89,1.81-1.48,3.69-1.68,5.48c0,0,0.09,0.17,0.28,0.42c0-0.1,0.01-0.21,0.01-0.31
		C53.79,71.47,54.23,69.54,55.06,67.55"/>
	<path class="st88" d="M116.93,67.66c0.6,2.72,0.9,5.46,0.9,8.11l0,0l0,0l0,0l0,0l0,0l0,0l0,0l0,0l0,0l0,0l0,0l0,0l0,0l0,0l0,0l0,0
		l0,0c0,0.56-0.01,1.11-0.04,1.66c-0.01,0.23-0.03,0.45-0.04,0.68c0.02-0.23,0.04-0.45,0.05-0.68c0.01-0.25,0.03-0.52,0.04-0.78
		c0.03-0.56,0.05-1.12,0.05-1.67C117.89,72.43,117.55,69.99,116.93,67.66"/>
	<polyline class="st88" points="86.85,71.46 86.84,71.46 86.84,71.46 86.85,71.46 	"/>
	<polyline class="st88" points="86.84,71.47 86.84,71.47 86.84,71.48 86.84,71.47 	"/>
	<polyline class="st88" points="86.84,71.49 86.84,71.49 86.84,71.49 86.84,71.49 86.84,71.49 86.84,71.49 	"/>
	<path class="st88" d="M86.83,71.49L86.83,71.49c-0.01,0.01-0.03,0.04-0.05,0.07C86.81,71.53,86.83,71.51,86.83,71.49
		C86.83,71.5,86.83,71.49,86.83,71.49"/>
	<path class="st88" d="M86.83,71.52L86.83,71.52c-0.01,0.03-0.01,0.05-0.02,0.08c0,0,0,0,0,0c0,0.01,0,0.01,0,0.02l0.01-0.04
		L86.83,71.52"/>
	<polyline class="st88" points="86.73,71.62 86.73,71.62 86.73,71.62 86.73,71.62 	"/>
	<polyline class="st88" points="86.48,71.83 86.48,71.83 86.27,71.99 86.27,71.99 86.48,71.83 	"/>
	<path class="st88" d="M64.61,74.42c-0.28,0.01-0.59,0.03-0.94,0.07c-0.06,0.11-0.13,0.23-0.19,0.35
		C63.84,74.71,64.22,74.57,64.61,74.42"/>
	<polyline class="st88" points="86.84,71.49 86.84,71.49 86.83,71.49 86.83,71.49 86.84,71.49 86.84,71.49 	"/>
	<polyline class="st88" points="86.83,71.49 86.83,71.49 86.83,71.5 86.83,71.49 86.83,71.49 	"/>
	<polyline class="st88" points="86.84,71.49 86.84,71.49 86.83,71.49 86.83,71.5 86.83,71.49 86.83,71.49 86.84,71.49 	"/>
	<polyline class="st88" points="86.83,71.49 86.83,71.49 86.83,71.49 86.83,71.49 86.83,71.49 	"/>
	<path class="st88" d="M86.83,71.49C86.83,71.49,86.83,71.5,86.83,71.49L86.83,71.49L86.83,71.49c0,0.01-0.01,0.01-0.01,0.02
		L86.83,71.49C86.83,71.5,86.83,71.49,86.83,71.49"/>
	<path class="st88" d="M86.83,71.5c0,0,0,0.01-0.01,0.01c0,0,0,0,0,0L86.83,71.5C86.83,71.5,86.83,71.5,86.83,71.5"/>
	<path class="st88" d="M86.83,71.5c-0.02,0.03-0.08,0.12-0.22,0.24l-0.02,0.01l-0.02,0.02l-0.01,0.01l0,0l-0.01,0l-0.01,0
		l-0.01,0.01l-0.01,0.01l-0.27,0.2l0,0L86.28,72c0.09,0.1,0.18,0.21,0.26,0.33l0.14,0l0.05,0l0.01,0c0,0,0,0,0,0c0,0,0,0,0,0
		c0,0,0,0,0,0c0-0.11,0-0.2,0.01-0.29c0-0.03,0-0.07,0.01-0.1c0-0.01,0-0.02,0-0.04c0.01-0.06,0.01-0.12,0.02-0.17
		c0-0.02,0.01-0.05,0.01-0.07l0,0c0.01-0.03,0.01-0.05,0.02-0.08C86.81,71.58,86.82,71.53,86.83,71.5l-0.01,0.04l0,0l0,0l0,0
		c0-0.01,0-0.01,0.01-0.02l0,0l0,0.01l0,0l0,0l0,0l0,0l0,0v0l0,0l0,0l0,0l0,0l0,0l0-0.01l0,0L86.83,71.5
		C86.83,71.5,86.83,71.5,86.83,71.5"/>
	<polyline class="st88" points="86.82,71.52 86.82,71.52 86.82,71.52 86.82,71.52 	"/>
	<polyline class="st88" points="86.83,71.5 86.83,71.5 86.83,71.51 86.83,71.5 86.83,71.5 	"/>
	<path class="st90" d="M80.86,67.89c-0.7,0.01-1.4,0.04-2.09,0.1c-2.01,0.17-3.9,0.58-5.37,1.13c-1.48,0.56-2.54,1.22-3.17,1.81
		c-0.6,0.7-1.43,1.21-2.26,1.8l-0.3,0.21l-0.22,0.19c-0.15,0.13-0.3,0.24-0.43,0.39c-0.27,0.27-0.49,0.57-0.63,0.92
		c-0.01,0.03-0.02,0.06-0.03,0.08c0,0,0.01,0,0.01,0c0.28-0.69,0.84-1.16,1.54-1.69c0.83-0.6,1.65-1.1,2.25-1.81
		c0.63-0.59,1.68-1.25,3.14-1.82c1.46-0.56,3.33-0.98,5.34-1.15c0.71-0.06,1.43-0.1,2.15-0.11C80.82,67.91,80.84,67.9,80.86,67.89"
		/>
	<path class="st90" d="M94.31,71.27c0,0.02,0.01,0.05,0.01,0.07c0.47,0.4,0.89,0.83,1.26,1.28c1.23,1.5,1.96,3.28,1.96,5.21l0,0l0,0
		c0,0.54-0.06,1.09-0.17,1.65c-0.12,0.59-0.31,1.2-0.56,1.81c-1.03,2.16-1.98,3.86-2.94,5.61c-0.24,0.43-0.46,0.88-0.71,1.32
		c-0.27,0.42-0.54,0.84-0.82,1.27c-0.33,0.5-0.67,1.02-1.03,1.53c-0.4,0.49-0.82,0.97-1.25,1.47c-0.18,0.21-0.35,0.42-0.52,0.63
		c-0.03,0.07-0.07,0.15-0.1,0.22c0.19-0.23,0.38-0.47,0.59-0.71c0.44-0.49,0.85-0.98,1.25-1.47c0.38-0.5,0.71-1.02,1.04-1.53
		c0.28-0.43,0.56-0.86,0.84-1.29c0.27-0.42,0.48-0.88,0.72-1.32c0.96-1.75,1.93-3.46,2.97-5.61c0.27-0.65,0.48-1.3,0.6-1.93
		c0.11-0.55,0.17-1.08,0.17-1.61c0-1.92-0.72-3.7-1.94-5.22C95.28,72.16,94.82,71.7,94.31,71.27"/>
	<path class="st91" d="M81.16,62.6c-0.4,0-0.79,0.01-1.19,0.03c-1.48,0.21-2.92,0.5-4.31,0.9c-3.43,0.95-6.39,2.53-8.84,4.59
		c-0.19,0.21-0.36,0.43-0.53,0.65c-0.55,0.7-0.87,1.35-1.13,2.01c-0.25,0.66-0.4,1.32-0.45,1.96c0,0-0.46,0.7-1,1.67
		c-0.02,0.03-0.03,0.06-0.05,0.09c0.35-0.04,0.67-0.06,0.94-0.07c0.25-0.1,0.51-0.21,0.77-0.33l0,0l0,0l0,0l0,0l0,0l0,0
		c0,0-0.02,0.11-0.06,0.32c0.67,0.03,1.01,0.09,1.06,0.1c0.01-0.03,0.02-0.05,0.03-0.08c0.14-0.34,0.36-0.64,0.63-0.92
		c0.13-0.14,0.28-0.26,0.43-0.39l0.22-0.19l0.3-0.21c0.84-0.6,1.66-1.1,2.26-1.8c0.63-0.59,1.69-1.25,3.17-1.81
		c1.47-0.55,3.35-0.96,5.37-1.13c0.69-0.06,1.39-0.09,2.09-0.1l0,0l0,0l0,0l0,0l0,0l0,0c-0.02,0.01-0.04,0.03-0.06,0.04
		c0.17,0,0.34,0,0.52,0c0.13,0,0.26,0,0.39,0c0.16,0,0.31,0,0.47,0c0.7,0,1.34,0.01,1.99,0.06c1.57,0.09,2.97,0.34,3.95,0.53
		c2.56,0.5,4.66,1.52,6.21,2.83c0-0.02-0.01-0.05-0.01-0.07l0,0l0,0l0,0l0,0l0,0l0,0c0.51,0.43,0.97,0.89,1.36,1.38
		c1.23,1.51,1.95,3.29,1.94,5.22l0,0l0,0c0,0.53-0.06,1.06-0.17,1.61c-0.13,0.63-0.33,1.28-0.6,1.93c-1.04,2.16-2.01,3.86-2.97,5.61
		c-0.24,0.43-0.45,0.89-0.72,1.32c-0.28,0.42-0.55,0.85-0.84,1.29c-0.34,0.5-0.66,1.03-1.04,1.53c-0.4,0.49-0.82,0.98-1.25,1.47
		c-0.21,0.23-0.4,0.47-0.59,0.71l0,0l0,0l0,0l0,0l0,0l0,0c0.03-0.07,0.07-0.15,0.1-0.22c-0.25,0.31-0.5,0.61-0.76,0.9
		c-0.44,0.47-0.87,0.93-1.29,1.38c-0.42,0.45-0.81,0.9-1.23,1.33c-0.43,0.41-0.86,0.82-1.29,1.23c-0.43,0.41-0.85,0.82-1.29,1.23
		c-0.45,0.39-0.93,0.76-1.41,1.15c-0.48,0.38-0.98,0.77-1.48,1.18c-0.52,0.38-1.1,0.73-1.67,1.11c-4.62,2.47-8.96,4.36-14.15,6.14
		c-0.67,0.3-1.33,0.66-1.78,0.99c-0.45,0.35-1.86,0.61-2.55,0.88c-1.11,0.19-2.23,0.14-3.3,0.17c-0.15,0.01-0.3,0.01-0.45,0.01
		c-0.93,0-1.85-0.11-2.75-0.17c-0.52-0.04-1.04-0.07-1.56-0.09c-0.52-0.05-1.03-0.12-1.55-0.16c-1.03-0.1-2.06-0.04-3.11-0.09
		c-0.03,0-0.06,0-0.09,0c-1.07,0-2.59,0.37-2.59,0.87c0,0.04,0.01,0.08,0.03,0.13c0.75,1.43,2.01,2.76,3.66,3.94
		c1.66,1.04,3.72,2.12,6.03,2.75c1.39,0.42,2.89,0.6,4.48,0.6c3.45,0,7.29-0.86,11.08-1.99c1.28-0.5,2.54-1.05,3.78-1.64
		c-0.1,0.01-0.2,0.01-0.31,0.02c-1.25,0.04-2.67,0.16-4.13,0.45c-1.51,0.2-3.06,0.58-4.62,1.16c0,0-1.29,0.08-3.04,0.13
		c-0.2,0.01-0.41,0.02-0.63,0.02c-0.71,0-1.48-0.06-2.25-0.11c-1.01-0.09-2.02-0.11-2.95-0.31c-1.87-0.36-3.37-0.75-3.81-1.19
		c-0.09-0.09-0.13-0.17-0.13-0.25l0,0l0,0c0-0.13,0.11-0.24,0.34-0.35c0.39-0.21,1.12-0.41,2.29-0.6c0,0,0.33-0.09,0.88-0.22
		c0.54-0.11,1.28-0.38,2.1-0.65c0.82-0.28,1.72-0.53,2.57-0.84c0.84-0.33,1.65-0.64,2.3-0.86c0,0,0.15-0.03,0.43-0.09
		c0.28-0.06,0.7-0.13,1.21-0.29c0.52-0.15,1.15-0.33,1.87-0.54c0.36-0.1,0.75-0.21,1.16-0.33c0.41-0.12,0.82-0.29,1.26-0.45
		c3.55-1.16,8.15-3.28,12.45-6.12c4.32-2.8,8.24-6.35,11-9.41c2.83-3.08,4.44-5.4,5.01-5.81c0,0,0.58-0.81,1.53-2.32
		c0.87-1.53,2.21-3.83,2.68-6.93c0.07-0.49,0.11-1,0.11-1.53c0-1.39-0.27-2.87-0.84-4.31c-0.78-1.98-2.1-3.89-3.85-5.46
		c-3.51-3.19-8.63-4.74-13.39-5.07C82.75,62.64,81.95,62.6,81.16,62.6"/>
	<path class="st92" d="M78.86,54.63c-2.21,0-4.79,0.14-7.07,0.54c-1.15,0.19-2.21,0.42-3.1,0.65c-0.96,0.32-1.93,0.72-2.89,1.19
		c-0.99,0.48-1.97,1.05-2.9,1.69c-0.96,0.65-1.79,1.33-2.75,2.19c-2.14,1.91-3.89,4.24-5.09,6.68c-0.83,1.99-1.27,3.92-1.39,5.59
		c-0.01,0.11-0.01,0.21-0.01,0.31c0.12,0.15,0.28,0.33,0.49,0.52c0.54,0.5,1.41,1.03,2.53,1.34c0.72,0.2,1.54,0.31,2.43,0.31
		c0.5,0,1.01-0.03,1.54-0.1c0.91-0.12,1.85-0.34,2.83-0.67c0.06-0.12,0.13-0.23,0.19-0.35c0.02-0.03,0.03-0.06,0.05-0.09
		c0.54-0.97,1-1.67,1-1.67c0.05-0.63,0.19-1.3,0.45-1.96c0.26-0.66,0.58-1.32,1.13-2.01c0.17-0.22,0.35-0.44,0.53-0.65
		c0.97-1.12,2.19-2.15,3.64-2.98c2.59-1.53,5.96-2.36,9.51-2.51c0.39-0.02,0.79-0.03,1.19-0.03c0.79,0,1.59,0.03,2.38,0.1
		c4.76,0.33,9.88,1.88,13.39,5.07c1.75,1.57,3.07,3.48,3.85,5.46c0.57,1.44,0.84,2.92,0.84,4.31l0,0l0,0c0,0.52-0.04,1.04-0.11,1.53
		c-0.47,3.1-1.81,5.4-2.68,6.93c-0.95,1.51-1.53,2.32-1.53,2.32c-0.57,0.42-2.18,2.74-5.01,5.81c-2.76,3.06-6.68,6.61-11,9.41
		c-4.29,2.83-8.9,4.95-12.45,6.12c-0.44,0.16-0.85,0.33-1.26,0.45c-0.41,0.12-0.8,0.23-1.16,0.33c-0.72,0.21-1.36,0.39-1.87,0.54
		c-0.51,0.16-0.93,0.24-1.21,0.29c-0.28,0.06-0.43,0.09-0.43,0.09c-0.65,0.22-1.46,0.53-2.3,0.86c-0.85,0.31-1.75,0.56-2.57,0.84
		c-0.82,0.27-1.56,0.53-2.1,0.65c-0.54,0.14-0.88,0.22-0.88,0.22c-1.17,0.19-1.9,0.39-2.29,0.6c-0.24,0.11-0.35,0.23-0.34,0.35
		c0,0.08,0.05,0.16,0.13,0.25c0.44,0.45,1.94,0.83,3.81,1.19c0.94,0.2,1.94,0.22,2.95,0.31c0.77,0.05,1.54,0.11,2.25,0.11
		c0.22,0,0.43-0.01,0.63-0.02c1.74-0.05,3.04-0.13,3.04-0.13c1.56-0.58,3.12-0.96,4.62-1.16c1.47-0.29,2.88-0.41,4.13-0.45
		c0.1-0.01,0.21-0.02,0.31-0.02c0.87-0.06,1.64-0.08,2.26-0.08c0.68,0,1.19,0.02,1.45,0.04c0.14,0.01,0.21,0.01,0.21,0.01
		c1.08-0.09,2.69-0.76,4.62-1.55c0.97-0.38,1.92-0.96,2.94-1.49c1.01-0.54,2.03-1.11,2.96-1.77c0.94-0.64,1.86-1.27,2.71-1.84
		c0.8-0.64,1.53-1.23,2.15-1.73c0.62-0.51,1.12-0.92,1.47-1.21c0.33-0.31,0.52-0.49,0.52-0.49c0.47-0.11,1.39-0.88,2.62-2.11
		c0.64-0.6,1.24-1.41,1.94-2.28c0.67-0.89,1.47-1.82,2.14-2.95c0.38-0.61,0.78-1.24,1.18-1.89c0.45-0.73,0.92-1.46,1.28-2.25
		c0.74-1.56,1.5-3.17,2.28-4.8c0.42-1.13,0.79-2.39,1.11-3.74c0.4-1.71,0.67-3.59,0.67-5.57c0-0.3-0.01-0.61-0.02-0.91
		c-0.13-3.56-1.48-7.33-3.68-10.4c-2.18-3.11-5.14-5.52-8.1-7.19c-2.97-1.68-5.89-2.69-8.23-3.43c-2.35-0.74-4.12-1.25-4.97-1.77
		c0,0-0.07-0.02-0.21-0.07c-0.14-0.04-0.34-0.1-0.61-0.17c-0.54-0.14-1.33-0.33-2.37-0.48c-0.51-0.08-1.08-0.15-1.72-0.2
		C78.89,54.63,78.87,54.63,78.86,54.63"/>
	<path class="st93" d="M80.79,48.01c-0.85,0-1.62,0.03-2.3,0.07c-1.65,0.11-2.68,0.28-2.68,0.28c-3.13,1.14-5.4,1.96-6.91,2.51
		c-1.55,0.56-2.37,0.8-2.37,0.8c-1.91,0.55-3.73,1.31-5.46,2.21c-0.86,0.45-1.68,0.93-2.49,1.46c-0.84,0.55-1.78,1.19-2.61,1.85
		c-3.39,2.64-6.14,5.82-8.18,9.01c-2.06,3.2-3.42,6.41-4.33,9.31c-0.91,2.92-1.39,5.55-1.62,7.82c-0.13,1.19-0.18,2.28-0.18,3.27
		c0,0.9,0.04,1.73,0.11,2.47c0.07,0.78,0.16,1.48,0.25,2.1c0.04,0.31,0.09,0.6,0.13,0.88c0.04,0.28,0.06,0.54,0.2,0.75
		c0.44,0.86,0.9,1.43,1.26,1.8c0.36,0.37,0.59,0.53,0.59,0.53c0.22,0.16,0.47,0.23,0.75,0.23c0.96,0,2.24-0.87,3.59-2.04
		c1.75-1.54,3.8-3.51,5.65-5.19c1.84-1.7,3.47-3.14,4.63-4.1c1.16-0.96,1.86-1.49,1.86-1.49c1.83-0.79,2.76-1.42,3.28-2.12
		c0.52-0.69,0.65-1.49,0.78-2.38c0.12-0.88,0.23-1.86,0.37-2.64c0.16-0.82,0.26-1.33,0.26-1.33c-0.26,0.12-0.52,0.22-0.77,0.33
		c-0.39,0.16-0.76,0.29-1.13,0.42c-0.98,0.33-1.92,0.55-2.83,0.67c-0.53,0.07-1.04,0.1-1.54,0.1c-0.89,0-1.71-0.11-2.43-0.31
		c-1.12-0.3-1.99-0.84-2.53-1.34c-0.21-0.19-0.37-0.37-0.49-0.52c-0.2-0.25-0.28-0.42-0.28-0.42l0,0l0,0l0,0l0,0l0,0l0,0
		c0.21-1.8,0.79-3.67,1.68-5.48c1.2-2.43,2.95-4.77,5.09-6.68c0.96-0.86,1.79-1.54,2.75-2.19c0.93-0.65,1.91-1.21,2.9-1.69
		c0.96-0.47,1.93-0.86,2.89-1.19c1.02-0.34,2.03-0.61,3-0.79c1.84-0.36,3.52-0.49,5-0.49c0.8,0,1.53,0.04,2.2,0.09
		c0.63,0.05,1.21,0.13,1.72,0.2c1.04,0.16,1.83,0.34,2.37,0.48c0.27,0.07,0.47,0.13,0.61,0.17c0.14,0.04,0.21,0.07,0.21,0.07
		c0.85,0.52,2.62,1.03,4.97,1.77c2.34,0.74,5.27,1.76,8.23,3.43c2.96,1.66,5.92,4.08,8.1,7.19c2.2,3.08,3.55,6.84,3.68,10.4
		c0.01,0.31,0.02,0.61,0.02,0.91l0,0l0,0c0,1.97-0.27,3.85-0.67,5.57c-0.32,1.35-0.69,2.62-1.11,3.74c-0.19,0.52-0.39,1.01-0.6,1.46
		c-0.29,0.69-0.55,1.32-0.79,1.88c0.16-0.3,0.32-0.61,0.5-0.9c0.72-1.25,1.6-2.46,2.24-3.62c1.36-2.27,2.32-4.12,2.32-4.12
		c0.22-1.46,0.51-3.2,0.62-5.17c0.03-0.44,0.04-0.89,0.04-1.35c0-2.22-0.3-4.63-0.96-6.96c-0.78-2.81-2.07-5.49-3.51-7.71
		c-1.44-2.23-3.02-3.99-4.24-5.18c-1.21-1.2-2.03-1.86-2.03-1.86c-1.34-1.63-3.71-3.26-6.58-4.46c-2.86-1.21-6.25-1.98-9.28-2.33
		C83.36,48.07,82.01,48.01,80.79,48.01"/>
	<path class="st93" d="M105.64,91.89c-0.5,0.97-0.9,1.96-1.27,2.9c0,0,0.05-0.11,0.16-0.33c0.11-0.21,0.26-0.53,0.43-0.95
		C105.14,93.08,105.37,92.53,105.64,91.89"/>
	<path class="st94" d="M86.84,71.47L86.84,71.47L86.84,71.47L86.84,71.47L86.84,71.47 M86.85,71.46L86.85,71.46L86.85,71.46
		L86.85,71.46L86.85,71.46 M86.85,71.46L86.85,71.46L86.85,71.46l-0.01,0.02l0,0.01l0,0.01c0,0,0,0,0,0L86.85,71.46L86.85,71.46"/>
	<polyline class="st94" points="86.84,71.48 86.84,71.48 86.84,71.49 86.84,71.49 86.84,71.48 	"/>
	<path class="st94" d="M86.84,71.49L86.84,71.49L86.84,71.49 M86.84,71.48C86.84,71.48,86.84,71.49,86.84,71.48L86.84,71.48
		C86.84,71.49,86.84,71.49,86.84,71.48L86.84,71.48L86.84,71.48L86.84,71.48L86.84,71.48L86.84,71.48
		C86.84,71.49,86.84,71.48,86.84,71.48C86.84,71.48,86.84,71.48,86.84,71.48C86.84,71.48,86.84,71.48,86.84,71.48"/>
	<polyline class="st94" points="86.84,71.49 86.84,71.49 86.83,71.49 86.84,71.49 	"/>
	<polyline class="st94" points="86.83,71.49 86.83,71.5 86.83,71.49 86.83,71.49 	"/>
	<path class="st94" d="M86.83,71.5L86.83,71.5l-0.06,0.08l-0.11,0.11l0.06-0.06c0,0,0,0,0,0c0.02-0.02,0.04-0.04,0.05-0.06
		C86.81,71.53,86.82,71.51,86.83,71.5"/>
	<polyline class="st94" points="86.83,71.5 86.83,71.5 86.83,71.5 86.83,71.52 86.81,71.57 86.83,71.5 	"/>
	<path class="st94" d="M86.81,71.57l-0.01,0.04c0,0.01-0.01,0.03-0.01,0.04L86.81,71.57"/>
	<polyline class="st94" points="86.6,71.74 86.57,71.77 86.58,71.76 86.6,71.74 	"/>
	<polyline class="st94" points="86.56,71.78 86.56,71.78 86.56,71.78 86.56,71.78 	"/>
	<polyline class="st94" points="86.49,71.83 86.48,71.83 86.48,71.83 86.48,71.83 86.49,71.83 	"/>
	<polyline class="st94" points="86.48,71.83 86.48,71.84 86.27,71.99 86.27,71.99 86.48,71.83 	"/>
	<path class="st94" d="M86.75,72.08c0,0.03,0,0.06,0,0.09C86.74,72.15,86.75,72.11,86.75,72.08 M86.27,71.99l-0.5,0.37
		c-0.19,0-0.39-0.02-0.58-0.06c-0.56-0.07-1.07-0.11-1.58-0.11c-0.61,0-1.21,0.06-1.88,0.18c-1.44,0.47-2.83,1.14-4.13,1.82
		c-1.29,0.7-2.52,1.33-3.71,1.77c-1.91,0.57-4.18,0.32-6.08,2.88c-0.12,0.17-0.26,0.34-0.41,0.52c-0.27,0.32-0.58,0.66-0.86,0.97
		c-0.39,0.48-0.72,0.91-0.71,1.17c0,0.01,0,0.02,0,0.03l0,0c0.64-0.47,1.33-0.69,2.19-1.25c1.63-0.94,3.34-2.38,4.97-2.84
		c1.72-0.63,3.23-0.78,5.06-1.27c1.21-0.38,2.25-0.71,3.43-1.13c0.37-0.1,0.73-0.2,1.1-0.3l3.5-2.61L86.27,71.99L86.27,71.99
		 M86.27,71.99L86.27,71.99"/>
	<path class="st94" d="M86.74,72.3c0,0.01,0,0.02,0,0.03c0,0,0-0.01,0-0.02C86.74,72.31,86.74,72.3,86.74,72.3"/>
	<path class="st94" d="M86.74,72.47c0,0.05,0,0.1,0,0.16C86.74,72.58,86.74,72.52,86.74,72.47"/>
	<path class="st94" d="M86.75,72.75c0.01,0.09,0.01,0.19,0.02,0.3l0.04,0.43c0.01,0.11,0.03,0.23,0.05,0.36
		c0,0.03,0.01,0.05,0.01,0.05l0,0l0,0c0,0,0,0,0,0c0,0,0,0,0,0c0.01,0.06,0.02,0.11,0.02,0.17l0.08,0.51l0.11,0.65l0.14,0.7
		c0.02-0.2,0.02-0.4,0.02-0.6c0-0.42-0.04-0.82-0.12-1.2C87.07,73.64,86.95,73.18,86.75,72.75"/>
	<path class="st94" d="M77.3,99.1L77.3,99.1L77.3,99.1 M77.3,99.1L77.3,99.1L77.3,99.1 M77.3,99.1L77.3,99.1L77.3,99.1 M77.3,99.1
		L77.3,99.1L77.3,99.1 M87.11,76.82l-0.89,0.1c-0.31,0.04-0.62,0.08-0.93,0.12c-0.01,0.23-0.03,0.47-0.05,0.7
		c0.14,0.28,0.2,0.62,0.2,1.01l0,0l0,0c0,0.5-0.1,1.07-0.27,1.63c-0.27,1.02-0.74,2.02-1.05,2.87c-0.22,0.52-0.56,0.97-0.9,1.55
		c-0.68,1.43-1.21,3.13-2.14,3.77c-1.91,1.14-3.52,1.75-4.88,2.3c-0.57,0.23-1.79,1-2.96,1.12c-0.17,0.03-0.34,0.04-0.5,0.04
		c-0.98,0-1.84-0.43-2.21-0.54c-0.26-0.11-0.53-0.14-0.81-0.14c-0.34,0-0.7,0.05-1.08,0.11c-0.32,0.04-0.65,0.09-0.96,0.09
		c-0.36,0-0.7-0.06-0.97-0.22c0,0,0,0,0,0l0,0l0,0c0-0.03,0.15-0.2,0.39-0.43c-0.15-0.01-0.3-0.02-0.45-0.03
		c-0.2,0.16-0.76,0.4-0.99,0.55c-0.19-0.1-0.27-0.28-0.28-0.55l0,0l0,0c0-0.12,0.02-0.27,0.05-0.43c0.46-1.19,0.76-2.11,1.06-2.95
		c0.29-0.83,0.61-1.62,1.13-2.33c0.95-1.27,2.23-2.15,3.9-2.78c0.43-0.18,0.96-0.31,1.12-0.35c-0.08,0.01-0.11,0.01-0.14,0.01
		c-0.05,0-0.08-0.01-0.33-0.02c-0.8-0.04-1.81-0.32-2.57-0.76c-0.39,0.14-0.78,0.3-1.17,0.46c-0.1,0.14-0.19,0.28-0.28,0.42
		c0.05,0.07,0.07,0.15,0.07,0.22l0,0l0,0c0,0.35-0.52,0.77-1.62,1.51c-0.49,0.41-2.69,1.51-4.6,2.54c-0.69,0.33-1.41,0.44-2.09,0.76
		c-1.3,0.68-2.41,1.48-3.56,2.33c-1.15,0.83-2.34,1.72-3.85,2.35c-0.99,0.25-2.89,2.22-3.48,3.69c-0.03,0.08-0.04,0.16-0.04,0.26
		c0,0.22,0.07,0.49,0.22,0.81c0.22,0.42,0.63,0.9,1.28,1.32c0.64,0.42,1.55,0.75,2.58,0.91c0.58,0.09,1.2,0.14,1.83,0.14
		c1.64,0,3.38-0.28,4.92-0.64c4.36-0.95,7.22-2.61,7.6-2.67c0.44-0.15,0.96-1.14,1.34-1.31c1.22,0.05,1.84,1.25,2.91,1.83
		c0.12,0.06,0.26,0.08,0.41,0.08c0.73,0,1.78-0.62,2.59-1.42c0.99-0.94,1.72-2.01,1.79-2.01c0,0,0,0,0,0
		c0.06,0.96,0.3,1.84,0.31,2.91l0,0l0,0c0,0.72-0.11,1.54-0.46,2.54c-0.03,0.07-0.04,0.15-0.04,0.22c0,0.24,0.11,0.48,0.13,0.71
		c0.08,0.13,0.23,0.2,0.4,0.2c0.18,0,0.36-0.07,0.47-0.2l0,0l0,0l0,0l0,0l0,0l0,0c-0.09,0.17-0.14,0.27-0.14,0.31
		c0,0.01,0,0.02,0.01,0.02c0.14,0,1.47-1.74,2.7-3.71c1.27-1.97,2.43-4.05,2.44-4.33c0-0.02-0.01-0.03-0.02-0.03
		c-0.03,0-0.11,0.07-0.24,0.23l0,0l0,0l0,0l0,0l0,0l0,0c0.99-1.21,1.65-2.81,2.15-4.41c0.5-1.62,0.86-3.23,1.39-4.96
		c0.37-1.31,0.9-2.66,1.28-4.08C86.93,77.77,87.03,77.3,87.11,76.82"/>
	<path class="st94" d="M72.67,82.01c0,0-0.02,0-0.05,0.01c0,0,0.01,0,0.01,0C72.66,82.01,72.67,82.01,72.67,82.01
		C72.67,82.01,72.67,82.01,72.67,82.01"/>
	<polyline class="st94" points="86.83,71.49 86.83,71.49 86.83,71.49 86.83,71.49 86.83,71.49 	"/>
	<polyline class="st94" points="86.84,71.49 86.84,71.49 86.83,71.49 86.84,71.49 	"/>
	<polyline class="st94" points="86.84,71.49 86.83,71.49 86.83,71.49 86.84,71.49 	"/>
	<polyline class="st94" points="86.83,71.49 86.83,71.5 86.83,71.5 86.83,71.5 86.83,71.49 	"/>
	<polyline class="st94" points="86.83,71.49 86.83,71.49 86.83,71.49 86.83,71.49 86.83,71.49 	"/>
	<polyline class="st94" points="86.83,71.5 86.83,71.5 86.83,71.5 86.83,71.5 	"/>
	<path class="st94" d="M86.83,71.5l-0.01,0.01c0,0,0,0,0,0C86.83,71.51,86.83,71.51,86.83,71.5C86.83,71.5,86.83,71.5,86.83,71.5"/>
	<polyline class="st94" points="86.83,71.51 86.82,71.52 86.82,71.52 86.82,71.52 86.82,71.52 86.83,71.51 	"/>
	<polyline class="st94" points="86.82,71.52 86.82,71.52 86.82,71.53 86.82,71.53 86.82,71.53 86.82,71.53 86.82,71.53 86.82,71.53 
		86.82,71.53 86.82,71.53 86.82,71.52 	"/>
	<polyline class="st94" points="86.82,71.53 86.82,71.53 86.82,71.53 86.82,71.53 86.82,71.53 	"/>
	<path class="st94" d="M86.79,71.68L86.79,71.68c0,0.03-0.01,0.05-0.01,0.07C86.78,71.72,86.79,71.7,86.79,71.68"/>
	<polyline class="st94" points="86.59,71.75 86.58,71.76 86.57,71.77 86.58,71.76 86.59,71.75 	"/>
	<polyline class="st94" points="86.56,71.77 86.56,71.78 86.55,71.79 86.56,71.78 86.56,71.77 	"/>
	<path class="st94" d="M86.76,71.95c0,0.03,0,0.06-0.01,0.1C86.75,72.02,86.75,71.98,86.76,71.95"/>
	<path class="st94" d="M86.27,71.99l-0.18,0.14l-1.21,0.91l0.04,0.07c0.06,0.09,0.11,0.21,0.15,0.32c0.09,0.23,0.14,0.46,0.18,0.7
		c0.37-0.07,0.73-0.13,1.09-0.2c0.22-0.05,0.4-0.07,0.48-0.07c0.02,0,0.04,0,0.04,0.01c0,0.01,0,0.01,0,0.02
		c0-0.02,0-0.03-0.01-0.05c-0.01-0.07-0.03-0.21-0.04-0.32l0-0.04c-0.06-0.49-0.08-0.84-0.08-1.11l0,0l0,0c0-0.01,0-0.01,0-0.02
		c0,0,0,0,0,0c0,0,0,0,0,0c0,0,0,0,0,0l-0.01,0l-0.05,0l-0.14,0C86.45,72.21,86.37,72.1,86.27,71.99L86.27,71.99L86.27,71.99"/>
	<polyline class="st94" points="86.83,71.5 86.83,71.5 86.83,71.5 86.83,71.5 86.83,71.5 	"/>
	<path class="st95" d="M80.24,42.74c1.44,0,2.91,0.08,4.32,0.22c0.23,0.02,0.46,0.05,0.69,0.08C83.63,42.85,81.92,42.74,80.24,42.74
		"/>
	<path class="st95" d="M76.69,42.92c-1.1,0.11-2.13,0.28-3.02,0.49c-1.18,0.28-2.13,0.62-2.73,0.98c-0.05,0.03-0.1,0.06-0.14,0.09
		c0.05-0.03,0.09-0.06,0.14-0.09c0.59-0.36,1.54-0.7,2.73-0.97C74.56,43.2,75.59,43.03,76.69,42.92"/>
	<path class="st95" d="M85.36,43.05c0.29,0.04,0.87,0.11,1.31,0.18C86.23,43.16,85.66,43.09,85.36,43.05"/>
	<path class="st95" d="M88.14,43.47c0.92,0.17,1.82,0.35,2.68,0.55C89.96,43.82,89.06,43.64,88.14,43.47"/>
	<path class="st95" d="M70.79,44.48c-0.12,0.02-2.85,0.53-5.8,1.49c2.73-0.88,5.27-1.39,5.73-1.47
		C70.76,44.48,70.78,44.48,70.79,44.48"/>
	<path class="st95" d="M64.56,46.1c-2.88,0.94-5.63,2.19-6.45,2.39c0.12-0.03,0.28-0.08,0.48-0.15
		C59.75,47.93,62.11,46.9,64.56,46.1"/>
	<path class="st95" d="M58.11,48.49c-0.04,0.02-0.56,0.23-1.41,0.68C57.55,48.72,58.07,48.51,58.11,48.49"/>
	<path class="st87" d="M56.7,49.17L56.7,49.17c-0.45,0.24-0.95,0.52-1.64,0.94l0,0l0,0c0.02-0.01,0.04-0.03,0.06-0.04
		C55.77,49.67,56.27,49.41,56.7,49.17L56.7,49.17L56.7,49.17"/>
	<path class="st95" d="M56.7,49.17c-0.43,0.24-0.92,0.5-1.57,0.9C55.77,49.67,56.26,49.41,56.7,49.17"/>
	<path class="st95" d="M55.06,50.11c-0.69,0.44-1.47,0.93-2.28,1.54C53.59,51.04,54.37,50.54,55.06,50.11"/>
	<path class="st95" d="M104.5,50.34c0.59,0.33,1.44,0.93,2.41,1.73c0.44,0.37,0.91,0.78,1.39,1.22
		C106.79,51.87,105.36,50.82,104.5,50.34"/>
	<path class="st95" d="M52.68,51.72c-1.71,1.25-3.58,2.95-5.36,4.99C49.1,54.67,50.97,52.97,52.68,51.72"/>
	<path class="st95" d="M108.31,53.29c1.52,1.41,3.09,3.24,4.37,5.12C111.4,56.52,109.83,54.7,108.31,53.29"/>
	<path class="st95" d="M47.19,56.85c-1.41,1.64-2.72,3.53-3.8,5.56c-0.24,0.46-0.48,0.93-0.7,1.4c0.22-0.47,0.45-0.94,0.7-1.4
		C44.48,60.38,45.79,58.5,47.19,56.85"/>
	<path class="st87" d="M112.68,58.4c0.04,0.06,0.08,0.12,0.12,0.18c1.31,1.94,2.32,3.91,2.94,5.41c0.62,1.5,0.91,2.49,0.91,2.49
		c0.02,0.07,0.04,0.15,0.05,0.22c0.08,0.32,0.15,0.64,0.22,0.96l0,0c-0.09-0.39-0.18-0.79-0.28-1.18c0,0-0.3-0.99-0.91-2.49
		c-0.61-1.5-1.62-3.47-2.94-5.41C112.76,58.52,112.72,58.46,112.68,58.4"/>
	<path class="st95" d="M116.71,66.7c0.08,0.32,0.15,0.64,0.22,0.96c0.6,2.72,0.9,5.46,0.9,8.11l0,0c0-2.65-0.3-5.39-0.9-8.11
		C116.86,67.34,116.78,67.02,116.71,66.7"/>
	<path class="st95" d="M115.74,87.91c-0.26,0.77-0.52,1.51-0.8,2.24C115.22,89.42,115.49,88.68,115.74,87.91"/>
	<path class="st95" d="M114.94,90.15c-0.26,0.75-0.66,1.45-0.97,2.14C114.28,91.59,114.68,90.9,114.94,90.15"/>
	<path class="st95" d="M112.22,96.18c-0.51,1.18-0.97,2.24-1.51,3.16C111.25,98.42,111.71,97.35,112.22,96.18"/>
	<path class="st96" d="M110.71,99.34c-0.02,0.03-0.03,0.05-0.05,0.08l0,0l0,0c0.01-0.01,0.02-0.03,0.03-0.04
		C110.69,99.36,110.7,99.35,110.71,99.34L110.71,99.34"/>
	<path class="st95" d="M110.66,99.42c-0.26,0.47-0.5,0.91-0.72,1.31C110.17,100.33,110.41,99.89,110.66,99.42"/>
	<path class="st95" d="M109.92,100.77c-0.25,0.45-0.32,0.62-0.45,0.89C109.6,101.39,109.68,101.22,109.92,100.77"/>
	<path class="st95" d="M109.45,101.69c-0.46,0.97-0.72,1.51-0.72,1.51C108.73,103.2,108.99,102.66,109.45,101.69"/>
	<polyline class="st97" points="86.85,71.46 86.84,71.49 86.84,71.49 86.84,71.49 86.84,71.49 86.84,71.49 86.83,71.49 86.83,71.49 
		86.83,71.49 86.83,71.49 86.83,71.49 86.84,71.49 86.84,71.48 86.84,71.48 86.85,71.46 	"/>
	<polyline class="st97" points="86.84,71.48 86.84,71.48 86.84,71.49 86.83,71.49 86.83,71.49 86.83,71.5 86.83,71.5 86.84,71.48 
		86.84,71.48 	"/>
	<path class="st97" d="M86.84,71.49C86.84,71.49,86.84,71.49,86.84,71.49C86.84,71.49,86.83,71.49,86.84,71.49
		C86.83,71.49,86.83,71.49,86.84,71.49C86.83,71.49,86.83,71.5,86.84,71.49c-0.01,0.02-0.03,0.04-0.06,0.08
		c-0.01,0.02-0.03,0.03-0.05,0.06c0,0,0,0,0,0l0,0l-0.06,0.06l-0.07,0.06l-0.02,0.02l0.02-0.01l0.02-0.01
		C86.75,71.62,86.81,71.53,86.84,71.49L86.84,71.49L86.84,71.49L86.84,71.49L86.84,71.49L86.84,71.49L86.84,71.49
		c0,0.01,0,0.01,0,0.01L86.84,71.49L86.84,71.49C86.83,71.5,86.83,71.49,86.84,71.49C86.83,71.49,86.83,71.49,86.84,71.49
		C86.83,71.49,86.83,71.49,86.84,71.49L86.84,71.49L86.84,71.49L86.84,71.49L86.84,71.49L86.84,71.49"/>
	<polyline class="st97" points="86.84,71.49 86.84,71.49 86.84,71.49 86.83,71.49 86.83,71.49 86.84,71.49 86.84,71.49 86.84,71.49 
		86.84,71.49 	"/>
	<polyline class="st97" points="86.83,71.49 86.83,71.49 86.83,71.5 86.83,71.5 86.83,71.5 86.83,71.5 86.83,71.5 86.83,71.5 
		86.83,71.49 	"/>
	<path class="st97" d="M86.83,71.5L86.83,71.5 M86.83,71.5L86.83,71.5L86.83,71.5L86.83,71.5"/>
	<path class="st97" d="M86.83,71.5l-0.01,0.02l0,0l0,0l0,0l0,0c0,0,0,0,0,0c0,0,0,0,0,0C86.83,71.51,86.83,71.5,86.83,71.5"/>
	<path class="st97" d="M86.83,71.5L86.83,71.5c-0.01,0.03-0.02,0.08-0.03,0.1c0.01-0.03,0.01-0.05,0.02-0.07l0-0.01L86.83,71.5"/>
	<path class="st97" d="M86.83,71.52L86.83,71.52L86.83,71.52L86.83,71.52 M86.83,71.5l-0.01,0.01c0,0,0,0.01-0.01,0.02L86.83,71.5
		C86.83,71.5,86.83,71.5,86.83,71.5"/>
	<polyline class="st97" points="86.82,71.52 86.82,71.52 86.82,71.52 86.82,71.53 86.82,71.53 86.82,71.53 86.82,71.53 86.82,71.53 
		86.82,71.53 86.82,71.53 86.82,71.53 86.82,71.52 	"/>
	<path class="st97" d="M86.81,71.6c-0.01,0.02-0.01,0.05-0.02,0.08c0,0.02-0.01,0.05-0.01,0.07c-0.01,0.05-0.01,0.11-0.02,0.17
		c0,0.01,0,0.02,0,0.04c0,0.03,0,0.06-0.01,0.1c0,0.09-0.01,0.18-0.01,0.29c0,0.01,0,0.01,0,0.02c0,0.27,0.02,0.62,0.08,1.11
		l-0.04-0.43c-0.01-0.11-0.02-0.21-0.02-0.3c0-0.04,0-0.08-0.01-0.11c0-0.06,0-0.11,0-0.16c0-0.03,0-0.06,0-0.09l0,0l0,0
		c0-0.01,0-0.02,0-0.03c0-0.01,0-0.01,0-0.02l0,0l0,0c0-0.09,0-0.18,0.01-0.25c0.01-0.18,0.03-0.32,0.05-0.42
		c0-0.02,0.01-0.03,0.01-0.04C86.8,71.61,86.8,71.61,86.81,71.6C86.81,71.6,86.81,71.6,86.81,71.6"/>
	<polyline class="st97" points="86.58,71.76 86.57,71.77 86.56,71.78 86.56,71.78 86.56,71.77 86.57,71.77 86.57,71.77 86.58,71.76 
			"/>
	<polyline class="st97" points="86.56,71.78 86.56,71.78 86.49,71.83 86.48,71.83 86.27,71.99 86.08,72.13 86.54,71.79 86.56,71.78 
			"/>
	<path class="st97" d="M86.87,73.88L86.87,73.88L86.87,73.88L86.87,73.88L86.87,73.88 M86.08,72.13l-3.5,2.61
		c-0.37,0.1-0.73,0.2-1.1,0.3c-1.18,0.42-2.22,0.75-3.43,1.13c-1.83,0.49-3.34,0.65-5.06,1.27c-1.63,0.45-3.34,1.9-4.97,2.84
		c-0.86,0.56-1.55,0.78-2.19,1.25c-0.29,0.48-0.97,1.19-0.97,1.43c0,0.04,0.02,0.06,0.06,0.07c0.05,0.06,0.13,0.09,0.22,0.09
		c0.33,0,0.87-0.3,1.27-0.44c0.67-0.37,1.34-0.69,2-0.97c0.39-0.16,0.78-0.32,1.17-0.46c1.31-0.49,2.62-0.88,3.93-1.35
		c2.79-1.04,5.63-1.78,8.46-2.33c0.38-0.07,0.76-0.14,1.14-0.2c0.03,0.12,0.06,0.24,0.08,0.38c0.05,0.24,0.07,0.49,0.07,0.76l0,0
		l0,0c0,0.71-0.15,1.52-0.34,2.3c-0.25,1.08-0.52,2.12-0.52,3.17c0,0.01,0,0.03,0,0.04l0,0l0,0c0,0.28-0.21,0.7-0.42,0.98
		c-2.66,2.65-4.92,3.81-6.57,4.12c-0.5,0.06-1.36,0.41-2.14,0.41c-0.07,0-0.15,0-0.22-0.01c-0.86-0.03-1.57-0.57-1.79-0.71
		c-0.21-0.05-0.41-0.08-0.61-0.08c-0.27,0-0.53,0.05-0.8,0.16c-0.46,0.18-0.95,0.49-1.42,0.85c-0.52,0.39-1.02,0.83-1.34,1.15
		c-0.24,0.23-0.39,0.4-0.39,0.43c0,0,0,0,0,0c0.27,0.17,0.61,0.22,0.97,0.22c0.32,0,0.65-0.04,0.96-0.09
		c0.38-0.05,0.74-0.11,1.08-0.11c0.28,0,0.56,0.04,0.81,0.14c0.36,0.1,1.22,0.54,2.21,0.54c0.16,0,0.33-0.01,0.5-0.04
		c1.17-0.12,2.39-0.89,2.96-1.12c1.37-0.55,2.97-1.16,4.88-2.3c0.93-0.64,1.46-2.34,2.14-3.77c0.34-0.58,0.69-1.03,0.9-1.55
		c0.31-0.84,0.78-1.85,1.05-2.87c0.17-0.57,0.27-1.13,0.27-1.63c0-0.39-0.06-0.74-0.2-1.01l0,0l0,0l0,0l0,0l0,0l0,0
		c0.02-0.23,0.04-0.46,0.05-0.7c0.31-0.04,0.62-0.08,0.93-0.12l0.89-0.1l0.17-0.02l0.12,0.01l-0.31-1.6l-0.11-0.65l-0.08-0.51
		c-0.01-0.06-0.02-0.12-0.02-0.17c0,0,0-0.01,0-0.02c0,0-0.02-0.01-0.04-0.01c-0.08,0-0.26,0.02-0.48,0.07
		c-0.36,0.07-0.73,0.13-1.09,0.2c-0.04-0.24-0.1-0.47-0.18-0.7c-0.04-0.11-0.1-0.23-0.15-0.32l-0.04-0.07L86.08,72.13"/>
	<path class="st97" d="M86.82,73.47l0,0.04c0.01,0.11,0.03,0.25,0.04,0.32C86.84,73.71,86.83,73.59,86.82,73.47"/>
	<path class="st97" d="M86.86,73.83c0,0.02,0,0.03,0.01,0.05c0,0,0,0,0,0c0,0,0,0,0,0C86.87,73.88,86.87,73.86,86.86,73.83"/>
</g>
<g>
	<path d="M120.7,50.34c1.65-2.22,3.11-4.59,4.5-6.98c0.37-0.63,0.19-1.57,0.27-2.36c-0.73,0.22-1.6,0.26-2.17,0.69
		c-3.99,2.99-8.23,5.09-13.72,3.98c0.69-1.69,1.56-3.31,2.01-5.04c0.73-2.82,1.22-5.71,1.7-8.59c0.07-0.4-0.45-0.9-0.7-1.35
		c-0.41,0.3-0.98,0.51-1.22,0.91c-3.46,5.99-9.18,8.63-15.19,10.58c-1.41-1.8-2.98-3.27-3.87-5.06c-1.66-3.33-2.09-6.93-1.13-10.63
		c0.33-1.27,0.44-2.59,0.78-4.64c-1.29,0.64-2.28,0.79-2.6,1.33c-3.7,6.33-6.4,12.93-5.02,20.56c-2.05-0.88-4.01-2.24-6.11-2.51
		c-3.42-0.44-6.94-0.36-10.39-0.15c-5.93,0.35-11.64,2.38-16.06,5.98c-7.48,6.1-12.19,14.47-15.27,23.6
		c-3.39,10.05-6.44,20.21-7.55,30.83c-0.5,4.76-0.15,9.63,2.28,13.62c6.45,10.59,14.84,12.02,25.65,10.33
		c7.85-1.22,15.25-3.95,22.31-7.44c9.82-4.86,19.87-9.42,28.43-16.44c2.73-2.24,5.14-4.98,7.31-7.78c4.03-5.2,5.56-11.51,6.29-17.83
		c0.45-3.9,0.42-8.15-2.8-11.42c-1.64-1.67-3.12-3.49-4.32-4.85c1.83-1.42,4.05-3.14,6.26-4.86c-0.12-0.27-0.24-0.55-0.36-0.82
		c-0.9-0.21-1.79-0.43-2.69-0.64C118.53,52.31,119.84,51.49,120.7,50.34z M109.42,37.85c1.23,1.58,0.25,3.06-1.29,4.47
		c-0.31,0.29-0.42,0.79-0.63,1.2c-0.02,0.55,0.16,1.2-0.08,1.62c-1.51,2.68-4.07,3.82-7.08,4.29c2.08-1.64,4.16-3.28,6.23-4.93
		c-2.09,1.14-4.14,2.33-6.27,3.39c-0.95,0.47-2.03,0.67-3.05,0.99c-0.11-0.24-0.21-0.48-0.32-0.72c2.25-1.62,4.49-3.24,6.74-4.86
		c-0.07-0.12-0.14-0.24-0.21-0.36c-1.62,0.86-3.17,1.9-4.88,2.54c-1.51,0.57-2.69,2.72-5.35,1.03
		C98.84,43.52,104.07,40.72,109.42,37.85z M108.9,48.57c-2.03,0.72-3.12,3.64-6.05,2.48C104.19,48.49,106.46,48.32,108.9,48.57z
		 M94.27,44.51c-1.12,1.09-2.32,2.3-4.51,1.11c1.34-1.01,2.53-1.91,4.12-3.1C94.07,43.42,94.49,44.29,94.27,44.51z M92.35,40.73
		c0.66,1.5-0.98,3-4.56,3.79C89.29,43.27,90.79,42.03,92.35,40.73z M91.48,39.49c0.14,0.22,0.28,0.43,0.41,0.65
		c-1.59,1.1-3.19,2.2-4.78,3.3c-0.14-0.23-0.28-0.46-0.42-0.69C88.14,41.41,89.24,39.5,91.48,39.49z M89.59,37.01
		c0.26,0.27,0.52,0.55,0.79,0.82c-0.7,1.72-2.58,2.24-4.02,3.21c-0.17-0.17-0.34-0.35-0.51-0.52
		C87.09,39.36,88.34,38.18,89.59,37.01z M114.41,63.76c4.26,3.11,5.31,7.53,4.57,12.28c-0.99,6.33-2.28,12.7-6.58,17.84
		c-3.81,4.55-8.22,8.46-13.45,11.31c-6.65,3.63-13.3,7.27-20.1,10.59c-8.63,4.21-17.66,7.3-27.35,7.98c-0.38,0.03-0.77,0-1.15,0
		c-8.21,0.61-13.62-3.79-17.38-10.33c-2.25-3.9-2.56-8.64-1.61-12.98c2.11-9.7,4.49-19.35,7.22-28.9
		c2.09-7.31,6.33-13.57,11.1-19.46c4.14-5.12,9.94-7.22,15.98-8.48c3.73-0.78,7.7-0.69,11.54-0.49c1.77,0.09,3.47,1.4,5.22,2.11
		c2.91,1.18,5.77,2.52,8.76,3.44c7.6,2.36,14.69,5.46,19.86,11.88C111.99,61.76,113.17,62.85,114.41,63.76z M114.29,52.08
		c-1.34,0.23-2.57,1.13-3.84,1.74c-0.6,0.29-1.18,0.61-1.77,0.92c-0.18-0.24-0.36-0.48-0.54-0.72c1.89-1.54,3.78-3.08,5.66-4.62
		c-0.07-0.11-0.13-0.21-0.2-0.32c-2.35,1.37-4.7,2.75-7.05,4.12c-0.13-0.27-0.27-0.54-0.4-0.8c2.74-2.08,4.71-5.18,9.17-4.6
		c1.86,0.24,3.97-1.39,6.54-2.38C119.54,48.36,118.13,51.42,114.29,52.08z"/>
	<path d="M80.08,99.68c-0.28,0.32-0.75,0.6-0.81,0.96c-0.25,1.38-0.82,1.9-2.26,0.85c-0.57,3.51,0.28,7.03-2.39,9.65
		c0.3-2.83,0.59-5.66,0.89-8.49c-0.32-0.05-0.64-0.1-0.96-0.15c-0.52,3.98-1.04,7.95-1.57,12.03c1.54-0.54,3.37-1.27,3.84-3.4
		c0.54-2.47,0.76-5,1.13-7.52c0.61,0,1.17,0,1.72,0c-0.34,2.69-0.65,5.21-0.96,7.72c0.22,0.03,0.44,0.06,0.67,0.1
		c0.59-3.54,1.21-7.07,1.71-10.62C81.12,100.48,80.43,100.05,80.08,99.68z"/>
	<path d="M89.75,103.44c-0.34-0.1-0.68-0.21-1.02-0.31c0.23-0.9,0.56-1.79,0.65-2.7c0.04-0.38-0.43-0.81-0.67-1.21
		c-0.27,0.32-0.72,0.6-0.77,0.95c-0.14,0.93-0.14,1.89-0.14,2.84c0,1.62,1.1,1.91,2.23,1.38c1.24-0.58,2.3-1.54,3.2-2.17
		c-0.55-1.59-0.97-2.83-1.42-4.13C91.03,100.09,90.39,101.77,89.75,103.44z"/>
	<path d="M60.79,112.9c-0.66-0.3-1.29-0.58-1.85-0.83c0.2,2.57,0.37,4.83,0.54,7.08c0.14-0.02,0.27-0.03,0.41-0.05
		c0.14-0.92,0.27-1.84,0.41-2.76c0.12,0,0.24,0.01,0.36,0.01c0.1,0.66,0.2,1.32,0.3,1.98c0.5-2.39,2.21-4.68,0.59-7.79
		C61.14,111.79,60.95,112.39,60.79,112.9z"/>
	<path d="M85.8,90.83c0.36-0.38,0.13-1.31,0.16-1.99c-0.66,0.22-1.56,0.24-1.93,0.69c-0.89,1.1-1.52,2.41-2.26,3.63
		c0.18,0.19,0.36,0.37,0.54,0.56C83.49,92.77,84.76,91.91,85.8,90.83z"/>
	<path d="M68.23,84.64c-0.72,1.43-1.27,2.96-1.89,4.44c0.25,0.22,0.5,0.43,0.74,0.65c1.01-1.45,2.09-2.86,2.98-4.39
		c0.21-0.36-0.26-1.11-0.41-1.68C69.16,83.98,68.46,84.19,68.23,84.64z"/>
	<path d="M69.98,114.05c0.25,0.04,0.49,0.08,0.74,0.12c0.61-3.25,1.22-6.5,1.83-9.75c-0.37-0.06-0.74-0.13-1.1-0.19
		C70.95,107.51,70.46,110.78,69.98,114.05z"/>
	<path d="M70.89,55.39c0.34-0.4,0.23-1.18,0.32-1.79c-0.61,0.15-1.46,0.11-1.8,0.5c-0.89,1.04-1.55,2.26-2.31,3.41
		c0.27,0.26,0.54,0.51,0.81,0.77C68.91,57.33,70,56.44,70.89,55.39z"/>
	<path d="M55.47,96.41c-0.98,1.36-1.79,2.84-2.66,4.28c0.27,0.21,0.54,0.42,0.8,0.63c1.12-1.22,2.3-2.38,3.32-3.68
		c0.28-0.35,0.1-1.07,0.13-1.63C56.52,96.14,55.71,96.07,55.47,96.41z"/>
	<path d="M102.62,70.22c0.13-0.2-0.26-1.06-0.45-1.08c-0.55-0.04-1.48,0.03-1.62,0.35c-0.67,1.45-1.13,3-1.66,4.52
		c0.23,0.14,0.46,0.27,0.69,0.41C100.61,73.03,101.67,71.66,102.62,70.22z"/>
	<path d="M82.82,99.78c-0.3,3.11-0.6,6.23-0.9,9.34c0.22,0.02,0.43,0.03,0.65,0.05c0.53-3.12,1.88-6.17,0.95-9.42
		C83.28,99.76,83.05,99.77,82.82,99.78z"/>
	<path d="M67.66,115.71c0.25,0.01,0.5,0.02,0.75,0.03c0.3-2.92,0.6-5.85,0.89-8.77c-0.42-0.02-0.83-0.04-1.25-0.06
		C67.93,109.84,67.8,112.77,67.66,115.71z"/>
	<path d="M111.61,72.85c-0.48-0.11-1.41-0.04-1.47,0.17c-0.47,1.59-0.79,3.24-1.15,4.86c0.31,0.11,0.62,0.21,0.92,0.32
		c0.7-1.42,1.45-2.83,2.07-4.29C112.11,73.64,111.82,72.9,111.61,72.85z"/>
	<path d="M69.2,102.36c-0.55,0.06-1.35-0.09-1.6,0.22c-1.01,1.25-1.85,2.64-2.76,3.97c0.25,0.21,0.51,0.43,0.76,0.64
		c1.16-1.13,2.36-2.23,3.44-3.43C69.3,103.48,69.16,102.84,69.2,102.36z"/>
	<path d="M54.93,65.69c-0.49,0.08-1.21,0.16-1.39,0.49c-0.76,1.43-1.37,2.94-2.03,4.42c0.27,0.19,0.54,0.38,0.81,0.57
		c1-1.52,2.02-3.03,2.97-4.58C55.4,66.42,55.01,65.68,54.93,65.69z"/>
	<path d="M82.9,63.36c2.96-1.24,3.71-3.48,1.58-5.41C83.91,59.89,83.46,61.46,82.9,63.36z"/>
	<path d="M41.42,97.83c-0.15-0.12-0.97,0.2-1.07,0.48c-0.47,1.34-0.8,2.73-1.18,4.11c0.27,0.11,0.54,0.23,0.81,0.34
		c0.74-1.22,1.54-2.41,2.16-3.68C42.28,98.81,41.79,98.12,41.42,97.83z"/>
	<path d="M65.49,109.54c-0.07,2.23-0.04,4.46-0.04,6.69c0.13,0.01,0.26,0.02,0.39,0.03c0.36-2.18,0.75-4.36,1.06-6.56
		c0.04-0.27-0.3-0.58-0.47-0.88C66.1,109.07,65.5,109.29,65.49,109.54z"/>
	<path d="M44.67,77.3c-0.22,1.97-0.4,3.65-0.58,5.32C46.78,80.03,46.99,78.53,44.67,77.3z"/>
	<path d="M99.97,83.69c-0.97,1.56-1.75,2.75-2.43,3.99c-0.07,0.13,0.46,0.59,0.71,0.89c0.99-1.06,2.01-2.11,2.92-3.23
		C101.26,85.24,100.63,84.58,99.97,83.69z"/>
	<path d="M64.79,50.62c-0.07-0.25-0.13-0.5-0.2-0.75c-0.87,0.17-1.97,0.08-2.56,0.58c-0.83,0.7-2.46,1.42-1.36,3.09
		C62.23,52.44,63.51,51.53,64.79,50.62z"/>
	<path d="M46.41,109.42c-1.05,0.03-1.73,3.4-0.81,4.62c0.73-1.19,1.46-2.08,1.81-3.1C47.54,110.56,46.76,109.41,46.41,109.42z"/>
	<path d="M63.33,117.46c0.41-2.68,0.79-5.13,1.16-7.57C62.87,110.84,62.41,115.4,63.33,117.46z"/>
	<path d="M84.79,52.03c0.18-0.4-0.19-1.06-0.31-1.59c-0.53,0.13-1.36,0.1-1.53,0.43c-0.48,0.91-0.7,1.97-1.02,2.96
		c0.4,0.25,0.8,0.51,1.19,0.76C83.7,53.74,84.38,52.95,84.79,52.03z"/>
	<path d="M85.1,99.68c0,2.17,0,4.26,0,6.72C86.61,103.8,86.59,100.42,85.1,99.68z"/>
	<path d="M89.28,75.26c-0.47,0.13-1.22,0.13-1.36,0.43c-0.47,0.99-0.73,2.08-1.07,3.13c0.19,0.11,0.38,0.23,0.56,0.34
		c0.76-0.83,1.58-1.6,2.22-2.51C89.81,76.39,89.41,75.73,89.28,75.26z"/>
	<path d="M44.56,90.07c-0.4,0.38-1.03,0.7-1.14,1.15c-0.19,0.77-0.05,1.63-0.05,2.45c0.25,0.15,0.49,0.29,0.74,0.44
		c0.51-0.92,1.13-1.8,1.46-2.77C45.65,91.06,44.91,90.5,44.56,90.07z"/>
	<path d="M80.36,71.79c0.15-0.28-0.29-0.88-0.45-1.34c-0.44,0.19-1.12,0.27-1.27,0.59c-0.43,0.93-0.64,1.96-0.94,2.96
		c0.27,0.11,0.55,0.22,0.82,0.33C79.15,73.5,79.86,72.71,80.36,71.79z"/>
	<path d="M65.78,65.79c-0.42,1.41-0.78,2.63-1.14,3.84C67.25,68.78,67.6,67.31,65.78,65.79z"/>
	<path d="M93.69,59.35c-0.31-0.02-0.92,0.38-0.95,0.64c-0.12,0.99-0.05,1.99-0.05,2.99c0.32,0.08,0.64,0.16,0.95,0.23
		c0.32-1.03,0.69-2.05,0.9-3.11C94.59,59.91,94.01,59.38,93.69,59.35z"/>
	<path d="M55.62,119.15c0.25,0.01,0.5,0.02,0.75,0.02c0.1-1.79,0.19-3.58,0.29-5.38c-0.34-0.01-0.69-0.02-1.03-0.03
		C55.62,115.56,55.62,117.35,55.62,119.15z"/>
	<path d="M49.69,62.96c0.89-0.94,1.78-1.89,2.74-2.91C50.2,59.02,49.67,59.49,49.69,62.96z"/>
	<path d="M60.85,79.15c0.03-0.07-0.9-0.49-1.61-0.88c-0.31,1.54-0.54,2.72-0.77,3.9c0.29,0.1,0.58,0.2,0.87,0.31
		C59.86,81.37,60.41,80.28,60.85,79.15z"/>
	<path d="M100.57,95.06c0.13,0.19,0.25,0.38,0.38,0.57c1.07-0.72,2.15-1.44,3.22-2.17C101.54,91.71,101.66,94.31,100.57,95.06z"/>
</g>
</svg>
