<svg xmlns="http://www.w3.org/2000/svg" viewBox="0 0 150 150"><defs><style>.a{fill:#e2dfde;}.b{fill:#c1bcb9;}.c{fill:#bfb8b5;}.d{fill:#c7c2bf;}.e{fill:#d5d1cf;}.f{fill:#edeceb;}.g{fill:#d2cdcb;}.h{fill:#f8f8f7;}</style></defs><title>icon</title><path class="a" d="M66.29,104.71a3.42,3.42,0,0,0-.44.59.61.61,0,0,0-.11.35l.15.46h0l.13.42c0,.12.09.26.13.4h0c0,.15.09.3.13.45s.06.22.08.32.12.51.16.72l0,.17c0,.15,0,.28.07.38s.05.44.07.64a4.93,4.93,0,0,1,0,1,1.39,1.39,0,0,1-.06.28v0h0l0,0h0v0a2.44,2.44,0,0,1,.38-.46l.19-.17a14.25,14.25,0,0,1,2.33-1.71l.12-.08h-.07l-.1,0a1.32,1.32,0,0,1-.26-.21,8,8,0,0,1-.8-1,24.21,24.21,0,0,0-2.12-2.52M35.87,84.65a11.3,11.3,0,0,0,3.66,4,1.52,1.52,0,0,0,.38,0h.22l-.31-.16a12.12,12.12,0,0,1-4-3.89m12.58-1.53a6.62,6.62,0,0,0-.63.59c0,.1.11.2.17.3.15-.28.31-.58.46-.89m27.24-14.7a2.06,2.06,0,0,1,.07.32c.25.17.52.35.78.5-.29-.26-.57-.53-.85-.82M49,67.81a11.7,11.7,0,0,1-.75,1.74c-.34.66-.77,1.33-1,1.84a12.65,12.65,0,0,0-2.15,6.08,6,6,0,0,0,0,1,21,21,0,0,1,2.42-7A16.14,16.14,0,0,0,49,67.81m-22.18-1a41.75,41.75,0,0,0-2.62,5.06c.54-1,1.48-3.09,2.62-5.06m15-2.31c-.1.1-.24.26-.44.49l-1.24,1.37c-.52.57-1,1.19-1.55,1.85s-1,1.43-1.51,2.22c.46-.64,1-1.39,1.69-2.19.45-.54.93-1.1,1.43-1.67l.76-.86.19-.21.11-.13,0-.07.16-.22a3.24,3.24,0,0,0,.35-.58m-7-2.34.54.16.55.15h0l-1.09-.31m-4.72-.38A2.09,2.09,0,0,0,30,62l0-.06v-.06l0-.11M30,61l-.47.14-.39.12-.07,0h0c.1,0,.22-.1.32-.1L30,61m.39-.07h0a8.77,8.77,0,0,0-.36.86l0,.11v.06L30,62s0,.09,0,.14c-1.19,1.68-2.21,3.22-3.08,4.66-1.15,2-2.09,4-2.63,5.06-.14.31-.26.62-.38.93a18.06,18.06,0,0,0-1.15,10.14,26.66,26.66,0,0,0,1.73,5.41c.17.34.35.67.55,1-.19-.33-.38-.67-.55-1a28.46,28.46,0,0,0,4.66,7.29A52.94,52.94,0,0,0,40.26,105c2.31,1.51,5.18,3.13,6.27,3.82A18.88,18.88,0,0,1,50,111.51a3.09,3.09,0,0,1,.64,2.28,6,6,0,0,1-.63,2.1,1.53,1.53,0,0,0-.25.9l0,.11a1.09,1.09,0,0,0,.1.22c.17.36.38.77.72,1.35A19.47,19.47,0,0,0,54.19,123a16.9,16.9,0,0,0,3.37,2.45A16.36,16.36,0,0,0,61.51,127a15.68,15.68,0,0,0,3.85.49,14.45,14.45,0,0,0,2.91-.29,15.54,15.54,0,0,0,4.35-1.68,17.41,17.41,0,0,0,2.63-1.83,21.79,21.79,0,0,0,2.7-2.82A60.25,60.25,0,0,1,83,116a10.38,10.38,0,0,1,2.35-1.12,34.46,34.46,0,0,0,3.62-1.72,26.21,26.21,0,0,0,6.38-5.63,40.93,40.93,0,0,0,3.86-5.9,17,17,0,0,0,3.17-9.38,10,10,0,0,0-.94-4.52c-.84-1.59-1-1.13-1-1.49a4.1,4.1,0,0,1-.16-2.08,3.89,3.89,0,0,0-.38-2.39A13.18,13.18,0,0,0,93,76.65c-3.29-1.2-6.74-2.14-9.65-3.35A23.72,23.72,0,0,1,79,71.09c.59.91.85,1.93,1.41,2.78a7.41,7.41,0,0,0,1.13,1.19c.42.37.86.71,1.33,1,.94.67,2,1.34,2.88,2.07A6,6,0,0,1,87,80.27c.26,1.13,2.15,1.84,3.72,3a4.62,4.62,0,0,1,2,2.61,28.76,28.76,0,0,1,.63,3.2,24.84,24.84,0,0,1,.6,4.2,4.14,4.14,0,0,1-1.62,3.53.76.76,0,0,1,.33-.18c.34,0-.84,1.72-2.53,3a12.79,12.79,0,0,1-3.47,2.06c-.08,0-.06-.06.08-.18a1.32,1.32,0,0,1-.51.07,2.62,2.62,0,0,1-1-.18c-.19-.2-.63-.41-.57-.59.49-1.43-1.14-2.35-2-3.36h0c-.13,0-1.11.56-2.33,1a10.3,10.3,0,0,1-3.2.79,1.79,1.79,0,0,1-.34,0l-.53-.1-.8.05-1,.07a29.2,29.2,0,0,1,1.71,4.07c.11.36.22.72.32,1.08a.55.55,0,0,1,0,.44l0,0h0l0,0L76,105l-1,.52-1.49.77-1.32.71,0,0h0l-.88.49-.85.49c-.4.23-.85.52-1.2.74a12.84,12.84,0,0,0-2,1.51l-.22.21-.22.24-.11.16,0,0v0h0v0h0a2,2,0,0,0,.06-.28c0-.08,0-.19,0-.31s0-.43,0-.71,0-.36-.06-.56V109c0-.12,0-.25-.07-.38s0-.07,0-.1v-.12c0-.23-.09-.44-.15-.67a1,1,0,0,0-.05-.16l0-.16c0-.14-.08-.29-.13-.45v0l-.13-.4,0-.09c0-.12-.07-.23-.11-.34l-.14-.42v0h0l0-.1-.32-.85c-.11-.3-.24-.61-.37-.91l-.22-.52L64.5,103c-1.15-1-2-1.68-2.32-2.06-.88-1.29-1.75-3.1-1.06-3.38,1.48-1.21-.22-3.51-.14-5.28.1-.43.89-.49,1-.92A6.26,6.26,0,0,0,60.17,87c-.21-.24-.44-.48-.68-.72L59.14,86c-.15-.14-.14-.17-.15-.2a1.44,1.44,0,0,0-.15-.39.62.62,0,0,0-.59-.27h0a4.22,4.22,0,0,1-.53-.59l-.53,0a12.74,12.74,0,0,1-1.43-.09c-1.23-.23-2-.3-1.83-.64,0-.07-.68-.09-1.58-.3a4.27,4.27,0,0,1-2.45-1.36,6.72,6.72,0,0,0-.91.55c.17.17.41.41.72.69a17.2,17.2,0,0,0,2.18,1.67,9.16,9.16,0,0,1,2,1.51,2.53,2.53,0,0,1,.22,2.36s.12.51.41,1.34c.15.42.34.92.57,1.48l.1.22.21.3.44.62.9,1.28a15.36,15.36,0,0,1,2.45,4.95c.22,1.24-.18,2-1.44,2l-.38,0s-1.53-.16-4-.32c-1.25-.09-2.63-.13-4.39-.35a28.91,28.91,0,0,1-6.22-1.52,24.33,24.33,0,0,1-7-3.9,19,19,0,0,1-5.53-7.11,18,18,0,0,1-1.3-9.45,22.42,22.42,0,0,1,3.55-9.35s.4-.62,1.07-1.9c.57-1.09,1.32-2.59,2.37-4.75l-.54-.15H34.4l0-.07,0-.14,0-.09-3.94-1.12m-.08,0h0l.08,0h0l-.08,0m6.24-.11h0m-7.74-.32.12.48c0,.23.07.31.14.32l.07,0,.39-.12L30,61h0l.15-.05.08,0,0,0h0l-1.49-.43m-.06,0h0m-.88-.25.89.25h0l-.88-.25m4.7-2.72h0v.05l0,.06c-.28.35-.41.54-.61.81h0c-.36.49-.67,1-.94,1.39h0a11.8,11.8,0,0,0-.61,1.11L34.31,62l0-.17L34,60.76c-.16-.72-.28-1.44-.4-2.17a1.87,1.87,0,0,1,0-.25l-.54-.45h0l-.45-.39-.05,0m0,0h0l0,0h0M85,45.44a14.69,14.69,0,0,0,2.37,1.66h3.07c2.18.23,4.22.34,6,.38l1.25,0c1.28,0,2.54,0,3.77-.1a17.09,17.09,0,0,0,4.71-1,11,11,0,0,1,3.24-.73l.51,0c.22,0,.41.49.47,1.11h0a3.29,3.29,0,0,0-.19-.89c-.1-.23-.13-.34-.32-.38a4.19,4.19,0,0,0-.5,0,10.37,10.37,0,0,0-3.19.74,16.7,16.7,0,0,1-4.66,1c-1.33.06-2.7.13-4.09.13h-.91c-1.72,0-3.74-.14-5.92-.37A15.55,15.55,0,0,1,85,45.44M28.92,44.13l-.2.46A12.77,12.77,0,0,0,28.17,46c-.08.27-.17.55-.26.82s-.14.58-.2.85-.11.52-.16.75-.06.47-.08.64a1.34,1.34,0,0,1,0,.2l.19-.82.26-.89c.17-.61.38-1.13.58-1.67h0a5.45,5.45,0,0,1,.25-1.18v-.05c.05-.18.11-.37.17-.56m12.81-12.2c-.3.08-.6.16-.91.26a14.22,14.22,0,0,0-4.12,2c-.47.32-.92.66-1.34,1,.34-.24.68-.48,1-.71a20.71,20.71,0,0,1,2.71-1.54,17.33,17.33,0,0,1,2.63-1M32.51,57.42l0,0h0l0,0h0M54.08,29.87a4.41,4.41,0,0,0-.52,0l-.87.06a31.69,31.69,0,0,0-5.62.73l1.68-.24h0l1-.15.46-.08.51,0c1.36,0,2.56-.14,3.7-.14h0c1.19.11,2.23.19,3.09.25h0c.86,0,1.57.12,2.05.16l.74.07-.74-.07c-.48,0-1.19-.12-2.05-.16h0c-.86-.06-1.9-.14-3.09-.25h0c-1.14,0-2.34.13-3.7.14l-.51,0-.46.08-1,.15h0l-1.68.24-.79.14c-.89.25-1.83.45-2.76.63-.58.17-1.17.31-1.78.47a17.41,17.41,0,0,0-2.64,1,20.71,20.71,0,0,0-2.71,1.54c-.35.23-.69.47-1,.71a21.57,21.57,0,0,0-2,1.88,20,20,0,0,0-4.2,6.66,3.74,3.74,0,0,0-.23.43c-.06.19-.12.38-.17.56v.05a5.45,5.45,0,0,0-.25,1.18h0c-.2.54-.41,1.06-.58,1.67l-.26.89-.19.82a39.38,39.38,0,0,0,.5,7.31l.42,2.16c.12.56.27,1.12.41,1.67l1.5.43h0l.08,0A11.8,11.8,0,0,1,31,59.78h0c.27-.43.58-.9.94-1.39h0c.2-.27.33-.46.61-.81l0-.06v-.05h0l0,0h0l.05,0,.45.39h0l.54.45c-.08-.62-.15-1.23-.21-1.84s-.06-1.31-.05-1.91c0-2.41.54-4.15,1.35-5.07,0,0,.29-.84.81-2A30.49,30.49,0,0,1,37.84,43a15.81,15.81,0,0,1,2.09-2.63A9.94,9.94,0,0,1,43,38.23a11.13,11.13,0,0,1,3-.78l1.24-.18c.39-.06.79-.11,1.13-.18l1,.24,2.49.57c1,.23,2.05.39,3.21.59a8.53,8.53,0,0,0,.85.1l.62,0H57c.31,0,.58,0,.79,0l.45,0-1,0c-.43,0-.87,0-1.33-.06-.83,0-1.87,0-2.94.16h0c.31,0,.64,0,1,0,.78,0,1.61.06,2.4.08l.85,0,.89.13,1.76.26c1.14.16,2.27.41,3.32.6,4.2.8,7.26,1.34,7.89,1.92l.6.13,1.26.28,4,.92a61.06,61.06,0,0,1,7.26,2,19.74,19.74,0,0,1-6.12-5.75c-.86-1.37-1.55-3.06-2.59-4.48A7.27,7.27,0,0,0,73.7,33a5.76,5.76,0,0,0-.6-.33l-.32-.15-.09,0-.15,0,0,0-.1,0L72,32.29a30.27,30.27,0,0,0-3.33-.65c-2.86-.39-5.61-.71-8.33-1.13l-2-.28-2-.17-1.93-.17a2.55,2.55,0,0,0-.39,0"/><path class="b" d="M110.38,46.85a5,5,0,0,1-.39,2.2,9.68,9.68,0,0,1-5.21,4.86,21.13,21.13,0,0,1-7.19,1.39c-.8.22-2.28.24-2.79.49a6.8,6.8,0,0,1-2,.47H91.42A61.12,61.12,0,0,1,78.7,55l-6.76-.72-1.61-.2L69.62,54,69,53.88c-.83-.12-1.69-.28-2.62-.48-1.8-.46-3.41-.67-5-1a22.78,22.78,0,0,1-5.21-1.64,8,8,0,0,0-2.86-.73,3.15,3.15,0,0,0-.87.12,2.87,2.87,0,0,0-1.84,2.54c-.28,2.35.88,5.14,2.42,8.32a22.15,22.15,0,0,1,1.29,3.34c.1.33.15.66.23,1,0,.17,0,.34.06.51a2.43,2.43,0,0,1,0,.72c0,.35-.08.71-.13,1.07s-.19.82-.3,1.24a12.67,12.67,0,0,1-.93,2.41,21.07,21.07,0,0,1-1.13,2l-.56.84a4.4,4.4,0,0,0-.31.52c-.3.55-.57,1-.79,1.53a5.55,5.55,0,0,0-.6,2.34,3.76,3.76,0,0,1-.16,1.79,2.36,2.36,0,0,0,.11,1.77l.05.06h0a2.28,2.28,0,0,1-.12-1.76,4,4,0,0,0,.14-1.78,5.4,5.4,0,0,1,.58-2.33c.21-.48.49-1,.78-1.52l.11-.21a2.31,2.31,0,0,1,.16-.26l.55-.82c.37-.58.77-1.23,1.14-2a13.81,13.81,0,0,0,1-2.4c.12-.42.23-.83.33-1.25s.1-.73.14-1.09l.06-.53c0-.12,0-.18,0-.27l-.06-.51a8.49,8.49,0,0,0-.22-1,20,20,0,0,0-1.27-3.32c-1.52-3.17-2.71-5.94-2.45-8.28a2.89,2.89,0,0,1,1.76-2.59,2.74,2.74,0,0,1,.95-.15,7.83,7.83,0,0,1,2.76.69,21.7,21.7,0,0,0,5.19,1.64c1.57.31,3.17.52,4.95,1,.94.21,1.79.36,2.62.48l.61.09.68.09,1.6.19,6.77.73a61.65,61.65,0,0,0,12.79,1.32l1.36,0a6.82,6.82,0,0,0,1.94-.46c.51-.25,2-.27,2.79-.48A21.55,21.55,0,0,0,104.68,54,9.73,9.73,0,0,0,110,49.22a4.71,4.71,0,0,0,.43-2.2c0-.06,0-.12,0-.17"/><path class="c" d="M109.4,45.71a11,11,0,0,0-3.24.73,17.09,17.09,0,0,1-4.71,1c-1.23.05-2.49.1-3.77.1l-1.25,0c-1.73,0-3.77-.15-6-.38H87.41a1.71,1.71,0,0,0,.23.13,12,12,0,0,0,5.57,1.56,7.13,7.13,0,0,0,1-.07s.94.23,2.23.44a18.15,18.15,0,0,0,3.2.28c.44,0,.88,0,1.31-.06,1.29-.09,2.36-.39,3-.39a.73.73,0,0,1,.27,0c.26.07.33.28.14.67a4.63,4.63,0,0,1-1.63,1.6,12.37,12.37,0,0,1-2.59,1.57,18.85,18.85,0,0,1-4.89,1.46H93.66c-1,0-2.34-.09-4-.17-3.28-.18-7.65-.58-12-1.23-2.2-.33-4.4-.7-6.47-1.12-1.09-.21-1.88-.41-2.77-.61s-1.69-.42-2.48-.63a30,30,0,0,1-6.17-2.1l-6-1.92a12.49,12.49,0,0,0-3.09-.71h-.27a3.4,3.4,0,0,0-2.78,1.33,5.86,5.86,0,0,0-1,3.53,15,15,0,0,0,.49,4c.63,2.7,1.86,5.52,2.32,8.39.05.36.08.71.12,1.07l0,1-.1,1.11-.25,1.12c0,.13-.08.26-.12.39a16.14,16.14,0,0,1-1.48,3.71,21,21,0,0,0-2.42,7,5.47,5.47,0,0,0,2,3.59,9.32,9.32,0,0,0,.64,1.53l0,.08a6.62,6.62,0,0,1,.63-.59l.31-.63.21.22a6.72,6.72,0,0,1,.91-.55l-.05-.06a2.36,2.36,0,0,1-.11-1.77,3.76,3.76,0,0,0,.16-1.79,5.55,5.55,0,0,1,.6-2.34c.22-.48.49-1,.79-1.53a4.4,4.4,0,0,1,.31-.52l.56-.84a21.07,21.07,0,0,0,1.13-2,12.67,12.67,0,0,0,.93-2.41c.11-.42.23-.85.3-1.24s.09-.72.13-1.07a2.43,2.43,0,0,0,0-.72c0-.17,0-.34-.06-.51-.08-.34-.13-.67-.23-1A22.15,22.15,0,0,0,53.06,61c-1.54-3.18-2.7-6-2.42-8.32a2.87,2.87,0,0,1,1.84-2.54,3.15,3.15,0,0,1,.87-.12,8,8,0,0,1,2.86.73,22.78,22.78,0,0,0,5.21,1.64c1.56.31,3.17.52,5,1,.93.2,1.79.36,2.62.48l.61.09.71.08,1.61.2L78.7,55a61.12,61.12,0,0,0,12.72,1.3h1.43a6.8,6.8,0,0,0,2-.47c.51-.25,2-.27,2.79-.49a21.13,21.13,0,0,0,7.19-1.39A9.68,9.68,0,0,0,110,49.05a5,5,0,0,0,.39-2.2c-.06-.62-.25-1.09-.47-1.11l-.51,0"/><path class="d" d="M42.2,64.25h0l.09,0h0l-.09,0M54,38.71c-.34,0-.67,0-1,0h0l-.51.07-1.23.12-1.19.19-1.26.18c-.42.07-.82.15-1.24.24a7.86,7.86,0,0,0-2.7,1,6.7,6.7,0,0,0-2.34,2.55,9.61,9.61,0,0,0-1,3.23,18.34,18.34,0,0,0-.2,3.2c.07,2.09.36,4.09.61,6s.46,3.75.51,5.28a12.4,12.4,0,0,1,0,2,6.18,6.18,0,0,1-.12.73,2.83,2.83,0,0,1-.07.28l-.07.07a1.29,1.29,0,0,0,.07.27c0,.06,0,.08,0,.1l.09,0h0l-.09,0s-.05,0-.08,0l-.12,0a.57.57,0,0,0-.19.15,3.24,3.24,0,0,1-.35.58l-.16.22,0,.07-.11.13-.19.21-.76.86c-.5.57-1,1.13-1.43,1.67-.66.8-1.23,1.55-1.69,2.19a17.49,17.49,0,0,0-2.55,7.71,12.24,12.24,0,0,0,1,5.74c.12.27.25.53.39.79a12.12,12.12,0,0,0,4,3.89l.31.16H41a8.59,8.59,0,0,0,3-.68,7.44,7.44,0,0,0,2.75-2A11.43,11.43,0,0,0,48,84c-.06-.1-.12-.2-.17-.3l0-.08a9.32,9.32,0,0,1-.64-1.53,5.47,5.47,0,0,1-2-3.59,6,6,0,0,1,0-1,12.65,12.65,0,0,1,2.15-6.08c.28-.51.71-1.18,1-1.84A11.7,11.7,0,0,0,49,67.81c0-.13.09-.26.12-.39l.25-1.12.1-1.11,0-1c0-.36-.07-.71-.12-1.07-.46-2.87-1.69-5.69-2.32-8.39a15,15,0,0,1-.49-4,5.86,5.86,0,0,1,1-3.53,3.4,3.4,0,0,1,2.78-1.33h.27a12.49,12.49,0,0,1,3.09.71l6,1.92a30,30,0,0,0,6.17,2.1c.79.21,1.62.43,2.48.63s1.68.4,2.77.61c2.07.42,4.27.79,6.47,1.12,4.39.65,8.76,1,12,1.23,1.64.08,3,.16,4,.17h1.59a18.85,18.85,0,0,0,4.89-1.46,12.37,12.37,0,0,0,2.59-1.57,4.63,4.63,0,0,0,1.63-1.6c.19-.39.12-.6-.14-.67a.73.73,0,0,0-.27,0c-.61,0-1.68.3-3,.39-.43,0-.87.06-1.31.06a18.15,18.15,0,0,1-3.2-.28c-1.29-.21-2.23-.44-2.23-.44a7.13,7.13,0,0,1-1,.07,12,12,0,0,1-5.57-1.56,1.71,1.71,0,0,1-.23-.13A14.69,14.69,0,0,1,85,45.44l-.13-.13c-.18-.09-.39-.19-.63-.29a61.06,61.06,0,0,0-7.26-2l-4-.92-1.26-.28-.6-.13c-.63-.58-3.69-1.12-7.89-1.92-1-.19-2.18-.44-3.32-.6L58.17,39l-.89-.13-.85,0c-.79,0-1.62-.08-2.4-.08"/><path class="e" d="M41.39,64h0l.81.23h0L41.39,64m0,0,.38.16-.17-.07L41.39,64h0m0,0h0m-.07,0h0l.07,0h0l-.07,0m0,0h0m-.92-.25.92.26h0l-.92-.26m0,0h0m0,0h0m0,0h0m0,0h0m0,0h0m0,0h0m0,0h0m0,0h0m0,0,0,0,0,0m0,0h0m0,0h0m-4.41-1.25-.55-.15-.54-.16,1.09.31h0M34.31,62l0,.09,0,.14,0,.07h.92l.54.15c-1,2.16-1.8,3.66-2.37,4.75-.67,1.28-1.07,1.9-1.07,1.9a22.42,22.42,0,0,0-3.55,9.35,18,18,0,0,0,1.3,9.45A19,19,0,0,0,35.7,95a24.33,24.33,0,0,0,7,3.9A28.91,28.91,0,0,0,49,100.43c1.76.22,3.14.26,4.39.35,2.45.16,4,.32,4,.32l.38,0c1.26,0,1.66-.75,1.44-2a15.36,15.36,0,0,0-2.45-4.95l-.9-1.28-.44-.62-.21-.3-.1-.22c-.23-.56-.42-1.06-.57-1.48-.29-.83-.41-1.34-.41-1.34a2.53,2.53,0,0,0-.22-2.36,9.16,9.16,0,0,0-2-1.51,17.2,17.2,0,0,1-2.18-1.67c-.31-.28-.55-.52-.72-.69l-.21-.22-.31.63c-.15.31-.31.61-.46.89a11.43,11.43,0,0,1-1.31,2,7.44,7.44,0,0,1-2.75,2,8.59,8.59,0,0,1-3,.68H39.91a1.52,1.52,0,0,1-.38,0,11.3,11.3,0,0,1-3.66-4c-.14-.26-.27-.52-.39-.79a12.24,12.24,0,0,1-1-5.74,17.49,17.49,0,0,1,2.55-7.71c.48-.79,1-1.53,1.51-2.22s1-1.28,1.55-1.85L41.37,65c.2-.23.34-.39.44-.49a.57.57,0,0,1,.19-.15l.12,0s.07,0,.08,0L41.39,64l.16.08.17.07L41.34,64l-.07,0h0l-.92-.26h0l0,0h0l0,0h0l.92.26h0l-7-2m-.72-3.67a1.87,1.87,0,0,0,0,.25c.12.73.24,1.45.4,2.17l.24,1.08,0,.17,7,2h.07l0,0c-.19-.09-.42-.21-.64-.34h0A26.31,26.31,0,0,1,38.16,62l-.08-.05-.94-.71h0L36,60.37h0l-1.36-1.11h0l-1.09-.92M57,38.56h-.45l-.62,0c.46,0,.9.06,1.33.06l1,0-.45,0c-.21,0-.48,0-.79,0M36.55,60.77h0M48.41,37.09c-.34.07-.74.12-1.13.18L46,37.45a11.13,11.13,0,0,0-3,.78,9.94,9.94,0,0,0-3.09,2.15A15.81,15.81,0,0,0,37.84,43a30.49,30.49,0,0,0-2.35,4.47c-.52,1.2-.81,2-.81,2-.81.92-1.31,2.66-1.35,5.07,0,.6,0,1.26.05,1.91s.13,1.22.21,1.84l1.09.92h0L36,60.37h0l1.1.86h0l.94.71.08.05a26.31,26.31,0,0,0,2.59,1.69h0c.22.13.45.25.64.34l.81.23s0,0,0-.1a1.29,1.29,0,0,1-.07-.27l.07-.07a2.83,2.83,0,0,0,.07-.28,6.18,6.18,0,0,0,.12-.73,12.4,12.4,0,0,0,0-2c0-1.53-.25-3.37-.51-5.28s-.54-3.92-.61-6a18.34,18.34,0,0,1,.2-3.2,9.61,9.61,0,0,1,1-3.23,6.7,6.7,0,0,1,2.34-2.55,7.86,7.86,0,0,1,2.7-1c.42-.09.82-.17,1.24-.24l1.26-.18,1.19-.19,1.23-.12.51-.07c1.07-.12,2.11-.13,2.94-.16a8.53,8.53,0,0,1-.85-.1c-1.16-.2-2.2-.36-3.21-.59l-2.49-.57-1-.24"/><path class="f" d="M66.67,110.66a2,2,0,0,1-.06.28h0a1.39,1.39,0,0,0,.06-.28m.52-.37-.19.17a2.44,2.44,0,0,0-.38.46v0h0l0,0h0v0h0v0h0v0l0,0,.11-.16.22-.24.22-.21m-.49-.65c0,.28,0,.51,0,.71s0,.23,0,.31a4.93,4.93,0,0,0,0-1m-.07-.64v.08c0,.2,0,.39.06.56,0-.2,0-.41-.07-.64m-.07-.38c0,.13,0,.26.07.38,0-.1,0-.23-.07-.38m0-.17v.07s0,.07,0,.1l0-.17m-.16-.72c.06.23.11.44.15.67v0c0-.21-.09-.47-.16-.72m-.08-.32,0,.16a1,1,0,0,1,.05.16c0-.1-.05-.21-.08-.32m-.13-.45c0,.16.09.31.13.45,0-.15-.08-.3-.13-.45m0,0v0h0m-.13-.4.13.4c0-.14-.09-.28-.13-.4m-.14-.43c0,.11.07.22.11.34l0,.09-.13-.42h0m-.15-.46h0v0l.14.42-.15-.46M60.92,82.83v0m25.81,18.58h0m-12-33.15h-.1c.39.49.58,1.1,1.12,1.75.89,1.29,2.38,2.37,3.1,3.63.45.65.81,1.28,1.19,1.91.19.32.4.64.6,1s.36.58.57.87a13,13,0,0,0,1.84,1.87c2.27,2.29,4.6,4,6.57,6.49a2.67,2.67,0,0,1,1.7,1.85A8.8,8.8,0,0,1,91.49,90a4.21,4.21,0,0,1-.6,1.37c-.33,1.26-.39,2.66-1.72,3.21a31.31,31.31,0,0,1-7.87,1.61,46.13,46.13,0,0,1-4.61.38h-2l-.24.07c-1.25.38-2.28.72-2.87,1a23.63,23.63,0,0,0-4.39,2.26l-2.07,1.27-.53.3-.19.1-.13.07-.18.06h-.06c0,.12.09.22.13.3l.12.24,0-.09c-.14-.3-.19-.41-.2-.45l-.11-.22,0-.14a.68.68,0,0,1,0-.39.78.78,0,0,1,.07-.26c0-.07.14-.22.29-.38a20.24,20.24,0,0,1,6.9-4.49c.21-.08.51-.19.88-.31q-.44-.6-.9-1.17c-.75-.93-1.61-1.9-2.31-2.65-1.42-1.54-2.76-2.85-3.92-4A33.43,33.43,0,0,1,62,84.44l-.74-.81c-.13-.14-.27-.28-.4-.43l-.1-.1v0l0-.06.11-.15h0c-.13.13,0,.05-.32.24a7.06,7.06,0,0,1-3.11,1.1,4,4,0,0,0,.22.34,4.22,4.22,0,0,0,.53.59h0a.62.62,0,0,1,.59.27,1.44,1.44,0,0,1,.15.39s0,.06.15.2l.35.34c.24.24.47.48.68.72A6.26,6.26,0,0,1,62,91.38c-.09.43-.88.49-1,.92-.08,1.77,1.62,4.07.14,5.28-.69.28.18,2.09,1.06,3.38.29.38,1.17,1,2.32,2.06l.29.25.22.52c.13.3.26.61.37.91l.32.85,0,.1a.61.61,0,0,1,.11-.35,3.42,3.42,0,0,1,.44-.59,24.21,24.21,0,0,1,2.12,2.52,8,8,0,0,0,.8,1,1.32,1.32,0,0,0,.26.21l.1,0h.07l-.12.08a14.25,14.25,0,0,0-2.33,1.71,12.84,12.84,0,0,1,2-1.51c.35-.22.8-.51,1.2-.74l.85-.49.88-.49h0l0,0,1.32-.71,1.49-.77,1-.52.34-.17,0,0h0l0,0a.55.55,0,0,0,0-.44c-.1-.36-.21-.72-.32-1.08a29.2,29.2,0,0,0-1.71-4.07l1-.07.8-.05.53.1a1.79,1.79,0,0,0,.34,0,10.3,10.3,0,0,0,3.2-.79c1.22-.47,2.2-1,2.33-1h0c.86,1,2.49,1.93,2,3.36-.06.18.38.39.57.59a2.62,2.62,0,0,0,1,.18,1.32,1.32,0,0,0,.51-.07c-.14.12-.16.18-.08.18a12.79,12.79,0,0,0,3.47-2.06c1.69-1.26,2.87-3,2.53-3a.76.76,0,0,0-.33.18,4.14,4.14,0,0,0,1.62-3.53,24.84,24.84,0,0,0-.6-4.2,28.76,28.76,0,0,0-.63-3.2,4.62,4.62,0,0,0-2-2.61c-1.57-1.14-3.46-1.85-3.72-3a6,6,0,0,0-1.26-2.09c-.91-.73-1.94-1.4-2.88-2.07-.47-.34-.91-.68-1.33-1a7.41,7.41,0,0,1-1.13-1.19C79.8,73,79.54,72,79,71.09A4.18,4.18,0,0,0,77,69.48a3,3,0,0,1-.47-.24c-.26-.15-.53-.33-.78-.5a2.44,2.44,0,0,0-1-.48"/><path class="g" d="M22.56,82.52c0,.13,0,.27.07.4a18.64,18.64,0,0,0,1.78,5.41c.17.34.36.68.55,1-.2-.34-.38-.67-.55-1a18.35,18.35,0,0,1-1.78-5.41c0-.13-.05-.27-.07-.4M22.38,80a17.57,17.57,0,0,0,.18,2.55A17.57,17.57,0,0,1,22.38,80m.17-2.63A21.14,21.14,0,0,0,22.38,80a21.14,21.14,0,0,1,.17-2.63m.09-.64-.09.64h0l.09-.64m.78-3.08a18.35,18.35,0,0,0-.78,3.08,18.35,18.35,0,0,1,.78-3.08m18-9.6h0l.81.23.09,0h0l-.09,0L41.39,64m0,0,.38.16L41.34,64m0,0h0l.16.08.17.07-.17-.07L41.39,64l.81.23.09,0h0l-.09,0L41.39,64h0m-.07,0h0m0,0h0l.07,0h0l0,0h-.07m-.92-.25.92.26h0l-.92-.26h0m0,0h0l.92.26h0l.07,0-.07,0h0l-.92-.26m0,0h0m0,0h0m0,0h0m0,0h0m0,0h0m0,0h0m0,0h0m0,0h0m0,0h0m0,0h0m0,0h0m0,0h0m0,0h0m0,0h0m0,0h0m0,0h0m0,0h0l0,0h0l0,0m0,0,0,0h0l0,0h0m0,0h0m0,0h0m0,0h0m0,0h0m.48,0h0c.22.13.45.25.64.34h0c-.19-.09-.42-.21-.64-.34h0M38.16,62a26.31,26.31,0,0,0,2.59,1.69A26.31,26.31,0,0,1,38.16,62M30,61.87v.06L30,62c-.27.37-1.7,2.33-3,4.52l-.17.28c-1.14,2-2.08,4-2.62,5.06l-.27.45a11.4,11.4,0,0,0-.52,1.32h0a11.4,11.4,0,0,1,.52-1.32l.27-.45c.54-1,1.48-3.09,2.63-5.06l.16-.28c1.27-2.19,2.7-4.15,3-4.52l0-.06v-.06m7.12-.64h0l.94.71.08.05-.08-.05-.94-.71h0M36,60.37l1.1.86L36,60.37m-7.54-.81h0c.08.29.16.58.23.87h0c0,.15.07.29.11.44l.09.34.08,0h0l.07,0,.39-.12L30,61l.31-.09h0l.08,0h0a5,5,0,0,0-.32.87l0,.11,0-.11a5,5,0,0,1,.32-.87h0L34.31,62l7,2h0l-7-2-3.94-1.12A11.8,11.8,0,0,1,31,59.78a11.8,11.8,0,0,0-.61,1.11l-.08,0h0L30,61l-.47.14-.39.12-.07,0h0l-.08,0-.09-.34c0-.15-.08-.29-.11-.44h0c-.07-.29-.15-.58-.23-.87h0m6.18-.3h0L36,60.37h0l-1.36-1.11h0m-2.76-.87c-.36.49-.67,1-.94,1.39.27-.43.58-.9.94-1.39m1.13-.5.54.45,1.09.92-1.09-.92-.54-.45m-.48-.37,0,.06c-.28.35-.41.54-.61.81h0c.2-.27.33-.46.61-.81l0-.06m0-.06h0v0h0m0,0h0l.05,0,.45.39h0l-.45-.39-.05,0m0,0h0m0,0h0m0,0h0m0,0h0l0,0,0,0h0M27.94,57c.18.81.32,1.65.56,2.52-.24-.87-.38-1.71-.56-2.52m-.35-2.25h0c.11.71.19,1.44.35,2.25h0c-.16-.81-.24-1.54-.35-2.25h0M27.43,53c.05.54.07,1.1.16,1.75-.09-.65-.11-1.21-.16-1.75m-.06-1.5h0c0,.4,0,.85.05,1.37a.57.57,0,0,1,0,.13.57.57,0,0,0,0-.13c0-.52-.05-1-.05-1.37m0-1c0,.28,0,.6,0,1h0c0-.37,0-.69,0-1h0m0-.24h0v.24h0v-.24m.05-.87s0,.35-.05.87c0-.52.05-.83.05-.87m0,0h0m0,0h0m0,0h0m0,0h0m1.06-3.53h0c-.2.54-.41,1.06-.58,1.67l-.26.89-.19.82,0,.15h0l0-.15.19-.82.26-.89c.17-.61.38-1.13.58-1.67h0m.25-1.18a5.45,5.45,0,0,0-.25,1.18,5.45,5.45,0,0,1,.25-1.18m0-.05v0m.56-1.55q-.22.51-.39,1c-.06.19-.12.38-.17.56.05-.18.11-.37.17-.56s.24-.65.39-1m5.39-7.49h0s-.54.47-1.24,1.22a21.82,21.82,0,0,0-2.27,2.85,18.94,18.94,0,0,0-1.88,3.42h0a18.94,18.94,0,0,1,1.88-3.42,21.82,21.82,0,0,1,2.27-2.85c.7-.75,1.24-1.22,1.24-1.22h0m1.69-1.2c-.35.23-.69.47-1,.71l-.66.49.66-.49c.34-.24.68-.48,1-.71M43,31.57h0l-1.29.36a17.33,17.33,0,0,0-2.63,1,20.71,20.71,0,0,0-2.71,1.54,20.71,20.71,0,0,1,2.71-1.54,17.41,17.41,0,0,1,2.64-1L43,31.57h0m.43-.12-.43.12.43-.12m1.46-.3h0c-.47.11-1,.19-1.46.3.47-.11,1-.19,1.46-.3h0m1.84-.42-1.84.42,1.84-.42m.06,0h0m1.94-.27-1.68.24-.26,0,.26,0,1.68-.24m8.74-.14h0c.86,0,1.57.12,2.05.16l.74.07-.74-.07c-.48,0-1.19-.12-2.05-.16h0m-3.09-.25c1.19.11,2.23.19,3.09.25-.86-.06-1.9-.14-3.09-.25m0,0h0c-1.14,0-2.34.13-3.7.14l-.51,0-.46.08-1,.15h0l1-.15.46-.08.51,0c1.36,0,2.56-.14,3.7-.14h0"/><path class="h" d="M64.05,101.6s.06.15.2.45l0,.09-.12-.24c0-.08-.08-.18-.13-.3m9.43-34a.08.08,0,0,0-.09.07c-.25.25.11.88.25,1.33,1.13,2,1.91,4,3.17,6,.76,1.12,1.56,2.23,2.4,3.32.64,1,1.13,1.75,1.67,2.53a38.93,38.93,0,0,0,3.28,4.06c.43.49,1.38.72,2,1.17a4.16,4.16,0,0,1,1.59,2.13,10.55,10.55,0,0,0,1.2,2.6.71.71,0,0,1-.12.88A15.59,15.59,0,0,1,79.13,95c-.66,0-1.61,0-2.52,0-.48,0-1,0-1.38,0s-.59,0-.85-.06l-.37,0-.17,0h-.09l-.15,0c-.62.2-1.18.38-1.62.54s-.67.23-.88.31a20.24,20.24,0,0,0-6.9,4.49c-.15.16-.29.31-.29.38a.78.78,0,0,0-.07.26.68.68,0,0,0,0,.39l0,.14.11.22h.06l.18-.06.13-.07.19-.1.53-.3,2.07-1.27a23.63,23.63,0,0,1,4.39-2.26c.59-.23,1.62-.57,2.87-1l.24-.07h2a46.13,46.13,0,0,0,4.61-.38,31.31,31.31,0,0,0,7.87-1.61c1.33-.55,1.39-2,1.72-3.21a4.21,4.21,0,0,0,.6-1.37,8.8,8.8,0,0,0-.14-2.38,2.67,2.67,0,0,0-1.7-1.85c-2-2.51-4.3-4.2-6.57-6.49a13,13,0,0,1-1.84-1.87c-.21-.29-.39-.58-.57-.87s-.41-.63-.6-1c-.38-.63-.74-1.26-1.19-1.91-.72-1.26-2.21-2.34-3.1-3.63-.54-.65-.73-1.26-1.12-1.75h0c-.4-.18-1-.68-1.18-.68"/><path d="M122.34,48a7.55,7.55,0,0,1,.64,1.43c.31,1.37.42,2.78.81,4.13a35.18,35.18,0,0,0,1.49,3.72c-.06.13-.1.4-.27.54a11.64,11.64,0,0,0-3.85,7c-.54,2.52-1.13,5-1.7,7.54,0,.22,0,.51-.11.68-2,3-.4,5.23,1.46,7.34-2,4.4-3.9,8.6-7.73,11.65A23.66,23.66,0,0,0,109,96.54a8.16,8.16,0,0,0-1.29,3.42c-.29,1.75-.7,3.19-2.3,4.32s-3.43,2.53-3.74,4.88a1.32,1.32,0,0,1-.51.77c-2.77,2.1-3.66,5.46-5.75,8.3-.83-.25-1.81,1.08-3.14.33,0,.62.1,1.39.15,2.17-2.74,2.55-5.67,3.6-12.66,4.49a4,4,0,0,0-3-1.69c-4.16-.65-8.3-1.43-12.4-2.37a32,32,0,0,1-8.5-3.19c-2.8-1.56-5.77-2.82-8.48-4.51a41.34,41.34,0,0,1-11.68-10.34c-1.87-2.51-3.54-5.35-6.61-6.75-.9-.41-1.83-.76-2.86-1.18,2.14-6.26,1.16-12.69,1.31-19,.12-4.84.13-9.69.22-14.54a19.34,19.34,0,0,1,.33-2.36l1.71-.34c.19-1.3.41-2.61.57-3.92.4-3.41.78-6.83,1.17-10.24a20,20,0,0,0-.69-8.12,3.6,3.6,0,0,1,.42-3c2.69-.6,5.61-1.1,8.43-1.94a48.49,48.49,0,0,1,7.53-1.25,2.41,2.41,0,0,1,2.28.75c1.79,1.74,3.69,3.38,5.5,5.1a17.8,17.8,0,0,0,11.21,5.25c2.72.2,5.43.65,8.16.76a17,17,0,0,0,4.86-.53C83.54,40.64,88,40,92.08,38.13c1-.48,2.29-.51,3.38-.92,2.38-.88,4.75-1.82,7.08-2.84a3.28,3.28,0,0,1,2.9.29,98.27,98.27,0,0,1,13.91,7.26c1.69,1.1,3.56,1.93,5.49,3-.17,1.54-1.36,2.3-2.5,3.12-.42,2.55-.84,5.1-1.3,7.93L120,54.55c-.66,1.31.25,2.92-1,4.31-1-2.24-.16-4.71-1.75-6.51-.2,1.85-.15,3.68-.21,5.5s.47,3.58-.24,5.67a10.44,10.44,0,0,1-1.16-4.78c-.17-1.52.15-3.19-1.39-4.89.32,3.89.61,7.28.92,11.07-2.24-2.08-1.47-4.83-2.57-6.92-.25,1-.5,2-.75,3l-.47,0-1-3c-1.31,1.3-1.39,1.89-.65,3.52.88,1.92,1.67,3.87,2.61,5.75,1.43,2.85,3,5.66,4.44,8.49,0,.07.28,0,.5.09.55-2.39,1.3-4.76,1.62-7.19.49-3.8,1.46-7.35,4-10.31a2.58,2.58,0,0,0,.39-2.39c-.29-1.91-.35-3.86-.52-5.79C122.57,49.37,122.44,48.68,122.34,48ZM122,45.58c-2.19-1.32-4.27-2.68-6.44-3.86q-4.83-2.64-9.77-5.06a3.36,3.36,0,0,0-4.11.53,4.28,4.28,0,0,1-2,.84c-1.27.28-2.6.3-3.85.64C91.85,39.73,88,41.06,84.05,42c-3.25.76-6.49,2-9.91,1.63-4.27-.41-8.53-1-12.78-1.46a6.88,6.88,0,0,1-5.12-2.48c-2-2.49-4.88-4.32-7.32-6.51a3.05,3.05,0,0,0-2.54-.88c-1.23.14-2.46.23-3.68.4-3.23.46-6.51.73-9.66,2.18a38.9,38.9,0,0,0,1.12,9.31c.28,1.1.28,2.36.86,3.25a5.87,5.87,0,0,1,1.2,4.34c-.22,1.46.45,2,2,2.27a20.79,20.79,0,0,1,3.39.86c3.22,1.16,6.62,1.82,9.63,3.61a20.33,20.33,0,0,0,13.72,2.81,76.87,76.87,0,0,1,9.37-.4A80.35,80.35,0,0,0,87.62,60a107.88,107.88,0,0,1,10.94-1.17c2.26-.19,4.53-.18,6.8-.18a3.79,3.79,0,0,0,3-1.39,38.47,38.47,0,0,1,10.33-7.93A7.1,7.1,0,0,0,122,45.58ZM56.35,96.66l-.57-.15c.18-.74.33-1.47.53-2.2,1.12-4.07,2.29-8.13,3.37-12.21.5-1.88.41-1.92-1.58-2.62-.4,1.16-.84,2.32-1.2,3.49s-.74,2.4-1,3.62-.44,2.62-.78,3.9c-.29,1.09.16,2.42-1.24,3.65.11-1.59.11-2.75.28-3.89.53-3.8,1.13-7.58,1.68-11.37.09-.63.38-1.38-.59-1.78-.55,2.11-1.11,4.13-1.61,6.16s-1,4.27-1.48,6.4c-.47,1.94-.25,4.06-1.46,5.82.15-2.73.5-5.42.81-8.11s1.36-5.11,1.22-7.78l-.51-.12L48.06,94.23c0-6.67,2.65-12.79,3.69-19.33l-1.65-.78c-.78,2.71-1.52,5.24-2.24,7.77S46.42,87,45.71,89.61l-.52-.13c.57-5.52,2.89-10.78,2.74-16.57l-4.07-2.26L39.29,87.92l-.51-.12a66,66,0,0,1,1.78-9c.7-3,1.47-5.89,1.21-9A64,64,0,0,0,39,78.29c-.77,2.95-1.38,5.94-2,8.91-.47-.3-.63-.59-.59-.84.58-3.15,1.16-6.3,1.81-9.44.45-2.22,1-4.42,1.52-6.62A1.74,1.74,0,0,0,38.6,68c-.74,3.15-1.37,6.16-2.05,9.17s-.8,6.25-1.8,9.24l-.61-.1,2.54-16.85a10.34,10.34,0,0,0-.93,3.38c-.32,2-.63,4-1,6-.12.68-.28,1.4-1.51,1.23.49-4.73,1.6-9.39,1.29-14.17-.5,1.48-.61,3-1,4.5C32.4,75.61,32.48,81,31.92,86.24a2.93,2.93,0,0,0,.71,2.58c1.17,1.24,2.08,2.71,3.26,3.93a3.07,3.07,0,0,1,.53,3.8,3.84,3.84,0,0,0-.16,3.62c1.86,3.08,3.77,6.15,6.82,8.25,2.64,1.81,5.24,3.68,8,5.36a51.42,51.42,0,0,0,11.62,5.41,47.46,47.46,0,0,0,13,2.57,8.14,8.14,0,0,0,.47-2,6.33,6.33,0,0,1,3-5.69c3-1.94,3.1-4.71,2.35-7.87-.68.77-.16,2.14-1.51,2.48-.23-2.71.78-5.31-.08-7.91-.48,1.07-.74,2.19-1.15,3.26s.19,2.5-1.33,3.33c0-.65,0-1.11,0-1.56.29-2.57.62-5.13.89-7.69.08-.77.43-1.65-.75-2.47-.73,2.25-1.47,4.29-2,6.38s-.93,4.12-1.39,6.18l-.56-.07a7,7,0,0,1,0-1.44c.67-3.93,1.34-7.86,2.09-11.78.16-.81.44-1.52-1-2-.75,2.19-1.59,4.34-2.21,6.55s-1,4.43-1.46,6.65l-.64-.08a9.2,9.2,0,0,1,0-1.66q1.14-6,2.34-12c.15-.76.76-1.59-.51-2.14-2.28,4.68-2.83,9.82-4.4,14.71a1.42,1.42,0,0,1-.45-1c.48-2.78,1-5.55,1.51-8.31.42-2.15.94-4.28,1.38-6.42.12-.58.34-1.26-.7-1.52-1.92,5.37-2.74,11-4.16,16.54-.37-6.38,1.77-12.46,2-18.77a5.55,5.55,0,0,0-1,2c-1,3.78-1.89,7.58-2.86,11.37a7.27,7.27,0,0,1-.62,1.25c.15-5.57,1.88-10.85,1.78-16.37-2.39,5.74-3,11.9-4.46,17.88-.76-2.25-.09-4.41.25-6.58s.76-4.47,1.19-6.7A18.54,18.54,0,0,0,62,81.76C59.39,86.56,58.39,91.82,56.35,96.66ZM36,55.81c-.41,2.12-.77,3.95-1.1,5.79a2.09,2.09,0,0,0,.93,2.25c2.46,1.64,4.83,3.46,7.42,4.86,7,3.76,14.17,7.16,20.62,11.91S76,91.17,81.59,97L83,98.47c1.69-3.15,4-5.67,4.81-9a2.54,2.54,0,0,1,.45-.77,23.81,23.81,0,0,0,2-2.85,135.63,135.63,0,0,1,13.81-22,9,9,0,0,0,1.53-3.58c-1.72,0-3.19.08-4.65,0A59.6,59.6,0,0,0,86,61.63a23.89,23.89,0,0,1-5.08.65,116.75,116.75,0,0,0-16.84.41,22.38,22.38,0,0,1-12.89-2.5A41.37,41.37,0,0,0,38.62,56C37.86,55.86,37.09,55.87,36,55.81ZM100.47,71.4C102.59,73,101.75,75.12,102,77s.42,3.92.67,6.33A4.9,4.9,0,0,1,101,80.14c-.21-1.31-.31-2.65-.59-3.94-.2-1-.19-2.13-1.41-2.7,1.33,3.35.58,6.78.81,10.18-1.7-2.12-1.06-5-2.45-7.38-1.36,1.91.11,3.62,0,5.31s0,3.43,0,5.14l-.56.09c-.53-2-1-4.1-1.64-6.44-1.16,1.46-2,2.61-1.33,4.4a3.84,3.84,0,0,1-.42,3.66l-1.45-1.88c-2.63,4.39-5.2,8.67-7.73,13a2,2,0,0,0-.32,1.52A39.25,39.25,0,0,0,86.08,106a3,3,0,0,0,1.73,1.45,2.65,2.65,0,0,1,1.91,1.51,2.38,2.38,0,0,0,1,1,6.77,6.77,0,0,1,4.13,5c0,.09.22.14.49.29l1.34-1.94-.91-1.61c2.47-2.52,4.77-5.06,7.28-7.38a7.68,7.68,0,0,0,2.77-5.72A2.07,2.07,0,0,1,107,96.44a5.23,5.23,0,0,0,1.36-1.26c1.49-1.61,2.9-3.29,4.46-4.82a21,21,0,0,0,5.06-7.8c.58-1.58.57-2.44-.74-3.25A6,6,0,0,1,114.73,76a37.08,37.08,0,0,0-2-4,24.13,24.13,0,0,1-3-6.85c0-.22-.3-.39-.73-.93.57,4.38,1.72,8.23,1.69,12.23-2.25-3.39-1.5-7.73-3.84-11.48.5,4.7,1,9,1.43,13.39-1.24-1.24-1.39-1.61-1.77-3.74q-.72-4.05-1.48-8.07c0-.19-.29-.34-.52-.59l-.81,1.06c.49,4.33.94,8.21,1.38,12.09-2.35-2.66-1.76-6.27-3.21-9.47ZM90.9,111.88c-3.65-1.39-5.54-4.22-7.77-7,.2,2.65.41,5.31.6,7.9-4.15,2.09-7.2,5.92-5.06,9.42,4.24,2.36,7.89,1.12,11.25-1.26L89,115.6h-.31c-.15,1.15-.31,2.31-.46,3.46h-.64c-.28-2.16-.56-4.32-.86-6.59ZM33.68,59.8c-1.31,1.39-3,2.58-1.83,4.8.17.33-.09.91-.21,1.35-.32,1.13-.67,2.25-1,3.36A38.67,38.67,0,0,0,29.1,84.39c0,.52.44,1.38.77,1.43,1,.14.95-.82,1-1.48.12-1.56.16-3.13.24-4.69,0-.78.09-1.55.18-2.33.35-3.18.69-6.37,1.1-9.55.23-1.84.59-3.67.89-5.5C33.41,61.45,33.54,60.63,33.68,59.8ZM31.08,90a18.19,18.19,0,0,0-1.68,2.71,2.06,2.06,0,0,0,.21,1.86c1.47,1.29,3.11,2.4,4.72,3.61C35.43,94.79,34.26,91.84,31.08,90ZM32.5,46.8A60,60,0,0,0,31.44,60,18.57,18.57,0,0,0,33.34,57a8.38,8.38,0,0,0,.85-3.74A53.55,53.55,0,0,0,32.5,46.8ZM91,118.13l-.49.08.09,1.91.4,0Z"/><path d="M44.78,73.26c1.25-.41,1.93-.12,1.78,1.07A28.59,28.59,0,0,1,45.73,78c-.91,3.23-1.85,6.44-2.78,9.66a1.68,1.68,0,0,1-.63.93C42.39,83.31,44.79,78.48,44.78,73.26Z"/><path d="M90.2,69c-.94-1.76-1.9-3.52-2.79-5.31a1,1,0,0,1,.22-1c.23-.18.7,0,1.06,0a.84.84,0,0,1,.37.27C90,63.89,90.82,67.1,90.2,69Z"/><path d="M93.73,68.7c-2-1.42-2-4-3.43-5.61.73-.88,1.4-1,1.86-.26A9.44,9.44,0,0,1,93.73,68.7Z"/><path d="M96.45,67.7l-3.28-5.29.38-.5c.51.16,1.24.15,1.51.5a7.39,7.39,0,0,1,2,5Z"/><path d="M87.45,68.6c-1.54-1-1.75-2.68-2.49-4.06-.1-.19.2-.81.45-.9a1.12,1.12,0,0,1,1,.33C87.55,65.28,87.49,66.93,87.45,68.6Z"/><path d="M83.77,67.18a27.29,27.29,0,0,1-1.53-2.52c-.15-.3.14-.81.22-1.22.42.12,1,.11,1.23.39a3.27,3.27,0,0,1,.7,3.12Z"/><path d="M98.57,65.45c-.65-.71-1.36-1.39-1.94-2.16a1,1,0,0,1,.16-1,1.07,1.07,0,0,1,1-.09,2.93,2.93,0,0,1,1.33,2.92Z"/><path d="M82,67.37c-1.28-1.09-2.14-2-2.34-3.42C81.66,64.17,81.93,64.56,82,67.37Z"/><path d="M99.38,62.22c1-.47,1.55-.11,1.88.85C99.85,63.77,99.85,63.77,99.38,62.22Z"/><path d="M85,114.17c1.83.26,2,.68,1.27,3.39C84.85,116.8,85.18,115.5,85,114.17Z"/></svg>