<svg xmlns="http://www.w3.org/2000/svg" viewBox="0 0 150 150"><defs><style>.a{fill:#e7d3e0;}.b{fill:#cba2be;}.c{fill:#c99ebc;}.d{fill:#cfaac4;}.e{fill:#dbbfd2;}.f{fill:#f0e3ec;}.g{fill:#d8bacf;}.h{fill:#f9f4f8;}</style></defs><title>icon</title><path class="a" d="M115.51,117.26c-1.72.15-3.28.34-4.69.55l.45,0a36.27,36.27,0,0,0,4.24-.5m13.4-6c-.87.58-1.79,1.09-2.7,1.59a8.08,8.08,0,0,1-1.42,1,24.92,24.92,0,0,0,4-2.52l.1-.1M84,111c-.58.23-1.14.47-1.69.73a33.31,33.31,0,0,0-3.5,1.2,17,17,0,0,1-1.67.53,12.81,12.81,0,0,1-1.82.29c-2.62.14-5.26.77-8.06.77h-.67c-.27,0-.39-.28-.41-.65,0,.43.12.76.41.77h.63c2.83,0,5.47-.65,8.09-.8a6.55,6.55,0,0,0,.93-.12,7.62,7.62,0,0,0,.88-.17A16.07,16.07,0,0,0,78.8,113a36.49,36.49,0,0,1,3.49-1.2,5.76,5.76,0,0,1,1.42-.18,6.55,6.55,0,0,1,2.18.39l-.47-.32A8.64,8.64,0,0,0,84,111m53.3-13.45q-.06.39-.15.81a19.75,19.75,0,0,1-1.53,4.18c-.29.61-.61,1.2-.95,1.78.37-.59.71-1.18,1-1.78a16.53,16.53,0,0,0,1.41-3.78,11.28,11.28,0,0,0,.2-1.21m-.08-2v0a.36.36,0,0,1,0,.11l0-.16M127.7,90c-.12.48-.27,1-.47,1.67-.23.86-.61,1.79-1,2.73l-.53,1.21c.21-.35.42-.73.64-1.14a14.47,14.47,0,0,0,1-2.79A12.21,12.21,0,0,0,127.7,90m10.93-1.24a9.49,9.49,0,0,0-.28,1.14h0c-.12.68-.26,1.52-.43,2.37v.07c.3-1.35.53-2.5.72-3.58m-21-4.38a25.27,25.27,0,0,1,.67,3,20.53,20.53,0,0,1,.14,4.72c0,.11,0,.23,0,.34a.5.5,0,0,0,0-.13,11.14,11.14,0,0,0,.38-4.19,9.58,9.58,0,0,0-1.19-3.78m-3.32-4.67a6.8,6.8,0,0,0-.46.79c.18-.14.37-.3.58-.49l-.12-.3m7.76-2.47.19.15a22.11,22.11,0,0,1,3,2.93,16.32,16.32,0,0,0-2.68-3l-.47-.12M73.66,38.68a1.8,1.8,0,0,1,.19.2c.2-.05.41-.08.6-.14l-.79-.06m15.23-6.23A6.94,6.94,0,0,0,84.73,34c-2.57,1.86-5.23,3.94-8.27,4.56.72.3,1.36.9,2,1.19a4.12,4.12,0,0,0,1.31.19,13.44,13.44,0,0,0,1.65-.14,16.38,16.38,0,0,1,1.72-.13h0a5.83,5.83,0,0,1,1.88.85,1.66,1.66,0,0,0,1.06.34,12.9,12.9,0,0,0,2.33-.48,2.71,2.71,0,0,1,.79-.12c1.3,0,2.6.84,3.89.93a5.63,5.63,0,0,0,.58,0A24,24,0,0,0,96.17,41a4.93,4.93,0,0,1,.75-.06,3.71,3.71,0,0,1,.67,0,2.23,2.23,0,0,1,1.23.53c-.19-.17-.15-.25,0-.25a7.29,7.29,0,0,1,2.43.89,8.41,8.41,0,0,1,1.8,1.13c.32.25.46.41.31.41a.37.37,0,0,1-.13,0,1.32,1.32,0,0,1,.09,1.07c-.16.21-.3.6-.48.64-1.42.29-2.09,1.75-3,2.73,0,.11.72.53,1.41,1.26a8.52,8.52,0,0,1,1,1.18,3.68,3.68,0,0,1,.5,1.29c.06.63,0,1.32,0,1.91a3.57,3.57,0,0,0,.45,1.62.36.36,0,0,0,.21.05,2,2,0,0,0,.33,0,2.21,2.21,0,0,1,.35,0,.4.4,0,0,1,.22.05,44.39,44.39,0,0,1,5.12,2.92c2.4,1.68,4.66,4,4.63,4.68s-.63,1.93-1.31,2c-1.79.42-2.23,1.83-3.57,2.65-.37.18-.92.08-1.29.26-1,.64-2,1.56-2.11,2.28A6.05,6.05,0,0,0,105.6,72a4,4,0,0,0,.45,1.67c.1.7.17,1.41.22,2.1a14.65,14.65,0,0,0,1.59,1.68c1,1,1.57,1.16,1.37,1.62,0,.18,2.32.72,3.48,2.24,0,0,.29-.18.73-.51A20.21,20.21,0,0,1,111.25,78c-1-1.65-1.65-3.55.2-5.43L112,71c.37-.92.82-2.14,1.36-3.36.9-2,2-4.12,3.53-4.12a2,2,0,0,1,.89.22,28.31,28.31,0,0,1,2.56,1.51c.75.52,1.65,1.17,2.64,2a32.33,32.33,0,0,1,3,2.92,27,27,0,0,1,5.34,8.67,20.66,20.66,0,0,1,.89,11.82,6.15,6.15,0,0,0-.14,1.36c-.07,1,0,2.34.13,4.54a8.69,8.69,0,0,1-.27,1A22.12,22.12,0,0,1,131,100a17.67,17.67,0,0,1-4.38,6,12.78,12.78,0,0,1-2.06,1.38,6.69,6.69,0,0,1-2.07.68s-.77.36-2,.81a34.93,34.93,0,0,1-4.68,1.39c-3.51.84-7.12,1.17-9,2l-.63-.17a11.28,11.28,0,0,0-1.5-.3,9,9,0,0,0-1.28-.11,5.55,5.55,0,0,0-1,.09l-1.19.49a3.13,3.13,0,0,1,1.19-.49l1-.4.58-.24a45,45,0,0,1-5.19,1.34,15.66,15.66,0,0,1-2.6.3,1.78,1.78,0,0,1-1.19-.28l-1.2,0-2.58,0a26.76,26.76,0,0,1-4.65-.31,8.35,8.35,0,0,1,.89.46,15.39,15.39,0,0,1,4.09,3.76c.82,1.12,1.62,2.64,2.51,3.79a4.88,4.88,0,0,0,1.48,1.37,3.18,3.18,0,0,0,1.38.32,3.83,3.83,0,0,0,.79-.09,59.74,59.74,0,0,0,6.15-2.23,32.27,32.27,0,0,1,3.56-1.15c-1,.21-1.82.44-2.59.68s-1.24.4-1.74.59-1,.38-1.3.54c-.68.31-1.07.54-1.07.54s.39-.23,1.07-.54c.34-.16.79-.35,1.3-.54s1.07-.39,1.74-.59,1.63-.47,2.59-.68a24.7,24.7,0,0,1,3.49-.63c1.41-.21,3-.4,4.69-.55.67-.12,1.33-.26,2-.42a25.35,25.35,0,0,0,6.87-2.82l.41-.18a8.08,8.08,0,0,0,1.42-1c.91-.5,1.83-1,2.7-1.59l1.51-1.55a40,40,0,0,0,4.27-5.4c.34-.58.66-1.17.95-1.78a19.75,19.75,0,0,0,1.53-4.18q.09-.42.15-.81a6.76,6.76,0,0,0,0-1.86.36.36,0,0,0,0-.11h0v0a.3.3,0,0,0,0-.1c.26-1.14.49-2.15.69-3.07v-.07c.17-.85.31-1.69.43-2.37h0a9.49,9.49,0,0,1,.28-1.14c0-.2.07-.4.1-.6a15.09,15.09,0,0,0,.19-2.91,10.49,10.49,0,0,0-.57-3c-.38-1-.79-2-1.23-3-.12-.22-.25-.43-.39-.65.14.22.27.43.39.65-.69-1.55-1.43-3-2.15-4.46a50,50,0,0,1-3-7.09,55.79,55.79,0,0,1-2.17-8.2,11.77,11.77,0,0,1,.29-3.13c.21-1.37.43-2.8.53-3.49a5.24,5.24,0,0,0-1.11-3.72,12,12,0,0,0-3-2.8c-3.55-1.91-6.66-3.89-10.29-6.09a9.09,9.09,0,0,1-1.45-1.63,11.2,11.2,0,0,0-1.61-1.72,11.79,11.79,0,0,0-2.55-1.25c-.42-.15-.83-.3-1.26-.41s-.86-.19-1.28-.26c-.85-.15-1.65-.31-2.5-.38s-1.66-.17-2.49-.31a24.79,24.79,0,0,0-6.64-.89,11.77,11.77,0,0,0-3,.38,2.12,2.12,0,0,0-1,.53l-.08,0c-1.08,0-1.46-1.47-2.86-1.76a4.49,4.49,0,0,0-.64,0"/><path class="b" d="M112.71,81.31h0c.68,1.07.2,2.29.89,3.31a8.13,8.13,0,0,1,.42,3.87,12.6,12.6,0,0,1-1.26,4.27c-.25.42-.44.79-.58,1.09a9.38,9.38,0,0,1-3.54,3.76A10,10,0,0,1,104,98.82h-.43c-2.64,0-4.72,1-7.6,1.11-1.58.15-2.93.36-4.34.62l-4.6.83a25.84,25.84,0,0,0-4.93.72A20.87,20.87,0,0,0,77,104,3.46,3.46,0,0,0,76,105c-.21.4-1.12.82-1.51,1.2-2.84,1.38-6.26,2.84-7.87,5.88a3.73,3.73,0,0,0-.38,1.71,4,4,0,0,1,.37-1.59c1.59-3,5-4.51,7.83-5.9.39-.39,1.3-.8,1.51-1.2a3.34,3.34,0,0,1,1-1,21.35,21.35,0,0,1,5-1.92,25,25,0,0,1,4.92-.72c1.72-.29,3.16-.59,4.59-.84s2.77-.47,4.36-.62c2.88-.15,5-1.1,7.6-1.1h.44a10.31,10.31,0,0,0,4.7-1.21,9.48,9.48,0,0,0,3.56-3.76c.16-.3.36-.7.62-1.14A12.61,12.61,0,0,0,114,88.53a8,8,0,0,0-.41-3.84c-.69-1-.2-2.25-.88-3.32l0-.06"/><path class="c" d="M114.46,80c-.21.19-.4.35-.58.49l-.24.55-.2-.22c-.44.33-.69.48-.73.51l0,.06c.68,1.07.19,2.29.88,3.32a8,8,0,0,1,.41,3.84,12.61,12.61,0,0,1-1.26,4.26c-.26.44-.46.84-.62,1.14a9.48,9.48,0,0,1-3.56,3.76,10.31,10.31,0,0,1-4.7,1.21h-.44c-2.63,0-4.72,1-7.6,1.1-1.59.15-2.94.36-4.36.62s-2.87.55-4.59.84a25,25,0,0,0-4.92.72,21.35,21.35,0,0,0-5,1.92,3.34,3.34,0,0,0-1,1c-.21.4-1.12.81-1.51,1.2-2.83,1.39-6.24,2.85-7.83,5.9a4,4,0,0,0-.37,1.59c0,.37.14.65.41.65h.67c2.8,0,5.44-.63,8.06-.77a12.81,12.81,0,0,0,1.82-.29,17,17,0,0,0,1.67-.53,33.31,33.31,0,0,1,3.5-1.2c.55-.26,1.11-.5,1.69-.73l-.18-.07a6,6,0,0,0-2-.38,3.82,3.82,0,0,0-2.29.7l-1.54.21-1.51.26-1.63.37a10.92,10.92,0,0,1-2.27.43,1.12,1.12,0,0,1-.27,0c-.49-.1-.59-.65.4-1.82l.31-.51c.23-.29.53-.7.87-1.15a16.11,16.11,0,0,1,2.41-2.41l.26-.14a7.83,7.83,0,0,1,.73-.34c.64-.29,1.55-.68,2.66-1.06a40,40,0,0,1,8.2-1.84c1.5-.2,3-.31,4.41-.38s2.7-.11,3.84-.13l1.62,0a8.1,8.1,0,0,1,2.67.23s.55,0,1.5-.06a29,29,0,0,0,3.92-.54,21,21,0,0,0,5.32-1.85,14.89,14.89,0,0,0,5-4.11,12.74,12.74,0,0,0,2-3.86c0-.11,0-.23,0-.34a20.53,20.53,0,0,0-.14-4.72,25.27,25.27,0,0,0-.67-3,9.48,9.48,0,0,0-2.57-2.93s-.25-.56-.6-1.37l0-.07"/><path class="d" d="M119.93,77a8,8,0,0,0-1.18.08,6.16,6.16,0,0,0-4.41,2.64l.12.3,0,.07c.35.81.6,1.37.6,1.37a9.48,9.48,0,0,1,2.57,2.93,9.58,9.58,0,0,1,1.19,3.78,11.14,11.14,0,0,1-.38,4.19.5.5,0,0,1,0,.13,12.74,12.74,0,0,1-2,3.86,14.89,14.89,0,0,1-5,4.11,21,21,0,0,1-5.32,1.85,29,29,0,0,1-3.92.54c-1,.06-1.5.06-1.5.06a8.1,8.1,0,0,0-2.67-.23l-1.62,0c-1.14,0-2.45.06-3.84.13s-2.91.18-4.41.38A40,40,0,0,0,80,105c-1.11.38-2,.77-2.66,1.06a7.83,7.83,0,0,0-.73.34l-.26.14A16.11,16.11,0,0,0,73.9,109c-.34.45-.64.86-.87,1.15l-.31.51c-1,1.17-.89,1.72-.4,1.82a1.12,1.12,0,0,0,.27,0,10.92,10.92,0,0,0,2.27-.43l1.63-.37,1.51-.26,1.54-.21a3.82,3.82,0,0,1,2.29-.7,6,6,0,0,1,2,.38L84,111a8.64,8.64,0,0,1,1.4.7l.47.32.13.1a3.63,3.63,0,0,0,.46.14,26.76,26.76,0,0,0,4.65.31l2.58,0,1.2,0a1.78,1.78,0,0,0,1.19.28,15.66,15.66,0,0,0,2.6-.3,45,45,0,0,0,5.19-1.34c1.29-.53,3-1.25,4.81-2.16a47.23,47.23,0,0,0,6.62-3.9,46.36,46.36,0,0,0,5.47-4.65c.62-.66,1.22-1.2,1.71-1.64a3.77,3.77,0,0,1,1.29-.85,2.62,2.62,0,0,0,.39-.36c.24-.26.58-.64,1-1.16a9.15,9.15,0,0,0,.58-.86l.53-1.21c.35-.94.73-1.87,1-2.73.2-.62.35-1.19.47-1.67a13.62,13.62,0,0,0-.42-5.43,14.36,14.36,0,0,0-2-4.25,22.11,22.11,0,0,0-3-2.93l-.19-.15a9.94,9.94,0,0,0-2.17-.25"/><path class="e" d="M102.33,111.8a3.13,3.13,0,0,0-1.19.49l1.19-.49m14.58-48.27c-1.54,0-2.63,2.1-3.53,4.12-.54,1.22-1,2.44-1.36,3.36l-.57,1.53c-1.85,1.88-1.19,3.78-.2,5.43a20.21,20.21,0,0,0,2.19,2.83l.2.22.24-.55a6.8,6.8,0,0,1,.46-.79A6.16,6.16,0,0,1,118.75,77a8,8,0,0,1,1.18-.08,9.94,9.94,0,0,1,2.17.25l.47.12a16.32,16.32,0,0,1,2.68,3,14.36,14.36,0,0,1,2,4.25A13.62,13.62,0,0,1,127.7,90a12.21,12.21,0,0,1-.31,1.68,14.47,14.47,0,0,1-1,2.79c-.22.41-.43.79-.64,1.14a9.15,9.15,0,0,1-.58.86c-.4.52-.74.9-1,1.16a2.62,2.62,0,0,1-.39.36,3.77,3.77,0,0,0-1.29.85c-.49.44-1.09,1-1.71,1.64a46.36,46.36,0,0,1-5.47,4.65,47.23,47.23,0,0,1-6.62,3.9c-1.84.91-3.52,1.63-4.81,2.16l-.58.24-1,.4a5.55,5.55,0,0,1,1-.09,9,9,0,0,1,1.28.11,11.28,11.28,0,0,1,1.5.3l.63.17c1.91-.83,5.52-1.16,9-2a34.93,34.93,0,0,0,4.68-1.39c1.27-.45,2-.81,2-.81a6.69,6.69,0,0,0,2.07-.68,12.78,12.78,0,0,0,2.06-1.38,17.67,17.67,0,0,0,4.38-6,22.12,22.12,0,0,0,.95-2.47,8.69,8.69,0,0,0,.27-1c-.11-2.2-.2-3.59-.13-4.54a6.15,6.15,0,0,1,.14-1.36,20.66,20.66,0,0,0-.89-11.82A27,27,0,0,0,126,70.17a32.33,32.33,0,0,0-3-2.92c-1-.82-1.89-1.47-2.64-2a28.31,28.31,0,0,0-2.56-1.51,2,2,0,0,0-.89-.22"/><path class="f" d="M75.66,38.39a1.88,1.88,0,0,0-.88.22,2.52,2.52,0,0,1-.33.13c-.19.06-.4.09-.6.14s-.66.15-.72.37c.42.1.82.43,1.38.57,1,.38,2.26.23,3.2.71s1.88,1,3,1.32a9.29,9.29,0,0,0,2.07.25,70.88,70.88,0,0,0,7.36.46,1.66,1.66,0,0,1,1.15-.42,11.81,11.81,0,0,1,2.31.53,6.93,6.93,0,0,1,1,.54,11.45,11.45,0,0,0,1.39.29,1.41,1.41,0,0,1,1,.71c.39.91.69,1.86,1,2.69s.56,1.72.86,2.48a11,11,0,0,0,.6,1.42c.29.53.53,1.3.81,1.92s.46,1.36.66,1.87a9.54,9.54,0,0,0,.43,1.26,4.48,4.48,0,0,0,1.17,1.63,5.43,5.43,0,0,1,1.21,1.69s-.11.06-.31.07c.09.13.18.27.28.4s.54.24.7.26a1.75,1.75,0,0,1,0,1.16,5.94,5.94,0,0,0-.39,1.22,7.92,7.92,0,0,0-.23,1.24c-.07.8-.12,1.67-.11,2.48a10.18,10.18,0,0,1-.9,4.82,3.3,3.3,0,0,0-.27,2.15c.3.51.28,1.24.67,1.66.93.76,2.18,1.46,3.18,2.22,0-.35,0-.72-.06-1.08,0-.69-.12-1.4-.22-2.1A4,4,0,0,1,105.6,72a6.05,6.05,0,0,1,.25-1.91c.08-.72,1.14-1.64,2.11-2.28.37-.18.92-.08,1.29-.26,1.34-.82,1.78-2.23,3.57-2.65.68,0,1.23-1.15,1.31-2s-2.23-3-4.63-4.68a44.39,44.39,0,0,0-5.12-2.92.4.4,0,0,0-.22-.05,2.21,2.21,0,0,0-.35,0,2,2,0,0,1-.33,0,.36.36,0,0,1-.21-.05,3.57,3.57,0,0,1-.45-1.62c0-.59,0-1.28,0-1.91a3.68,3.68,0,0,0-.5-1.29,8.52,8.52,0,0,0-1-1.18c-.69-.73-1.42-1.15-1.41-1.26.89-1,1.56-2.44,3-2.73.18,0,.32-.43.48-.64a1.32,1.32,0,0,0-.09-1.07.37.37,0,0,0,.13,0c.15,0,0-.16-.31-.41a8.41,8.41,0,0,0-1.8-1.13,7.29,7.29,0,0,0-2.43-.89c-.17,0-.21.08,0,.25a2.23,2.23,0,0,0-1.23-.53,3.71,3.71,0,0,0-.67,0,4.93,4.93,0,0,0-.75.06,24,24,0,0,1-2.44.27,5.63,5.63,0,0,1-.58,0c-1.29-.09-2.59-.93-3.89-.93a2.71,2.71,0,0,0-.79.12,12.9,12.9,0,0,1-2.33.48,1.66,1.66,0,0,1-1.06-.34,5.83,5.83,0,0,0-1.88-.85h0a16.38,16.38,0,0,0-1.72.13,13.44,13.44,0,0,1-1.65.14,4.12,4.12,0,0,1-1.31-.19c-.66-.29-1.3-.89-2-1.19a2.16,2.16,0,0,0-.8-.17"/><path class="g" d="M129,111.14h0l-.11.08c-.87.58-1.79,1.09-2.7,1.59a8.08,8.08,0,0,1-1.42,1,27,27,0,0,1-4.38,2.11c-1.16.43-2.24.73-3,1l-1.27.29-.59.05c-1.72.15-3.28.34-4.69.55s-2.44.4-3.49.63-1.82.44-2.59.68-1.24.4-1.74.59-1,.38-1.3.54c-.68.31-1.07.54-1.07.54s.39-.23,1.07-.54c.34-.16.79-.35,1.3-.54s1.07-.39,1.74-.59,1.63-.47,2.59-.68,2.21-.44,3.49-.63,3-.4,4.69-.55l.59-.05,1.27-.29c.8-.24,1.88-.54,3-1a26.2,26.2,0,0,0,4.38-2.11,8.08,8.08,0,0,0,1.42-1c.91-.5,1.83-1,2.7-1.59l.11-.08h0m1.4-1.31c-.85.83-1.4,1.31-1.4,1.31s.55-.48,1.4-1.31m7-13.29a6.78,6.78,0,0,1-.07,1q-.06.39-.15.81a19.75,19.75,0,0,1-1.53,4.18c-.29.61-.61,1.2-.95,1.78a32,32,0,0,1-4.19,5.47l-.08.09.08-.09a32,32,0,0,0,4.19-5.47c.34-.58.66-1.17.95-1.78a19.75,19.75,0,0,0,1.53-4.18q.09-.42.15-.81a6.78,6.78,0,0,0,.07-1h0m-.16-1h0a.36.36,0,0,1,0,.11,3,3,0,0,1,.12.9h0a3,3,0,0,0-.12-.9.36.36,0,0,0,0-.11m1.12-5.66h0c-.12.68-.26,1.52-.43,2.37v.07c-.15.81-.29,1.59-.44,2.2s-.2.84-.23,1v0h0v0c0-.13.11-.48.23-1s.29-1.39.44-2.2v-.07c.17-.85.31-1.69.43-2.37h0m.3-1.21,0,.07a9.49,9.49,0,0,0-.28,1.14,9.49,9.49,0,0,1,.28-1.14l0-.07m.33-2.54a13.85,13.85,0,0,1-.09,1.5,6.92,6.92,0,0,1-.13.81c0,.06-.07.13-.11.23,0-.1.08-.17.11-.23a6.92,6.92,0,0,0,.13-.81,13.85,13.85,0,0,0,.09-1.5h0m-2.25-7.58c.14.22.27.43.39.65A14,14,0,0,1,139,85.4c0,.25,0,.49,0,.72h0c0-.23,0-.47,0-.72a14,14,0,0,0-1.84-6.21c-.12-.22-.25-.43-.39-.65"/><path class="h" d="M73.13,39.25c-.32.15-1,.11-.87.37s.5.58.79.83c1.54.79,2.89,1.76,4.38,2.4a39.78,39.78,0,0,0,10.35,2.79h.11a5.51,5.51,0,0,0,1.63-.59,3.19,3.19,0,0,1,1.1-.16q.41,0,.81,0c.28,0,.55,0,.83,0a3.18,3.18,0,0,0,1.62-.37.39.39,0,0,1,.23-.07.7.7,0,0,1,.45.19,19.09,19.09,0,0,1,3.34,6.61,7.77,7.77,0,0,0,.48,1.4c.22.51.42,1.17.65,1.69s.37,1.17.53,1.59.25.85.32,1a9.4,9.4,0,0,0,.55.84,2.76,2.76,0,0,0,.61.58,3,3,0,0,0,1.23.66,3.94,3.94,0,0,0,1,.13h.12c.2,0,.32,0,.31-.07a5.43,5.43,0,0,0-1.21-1.69,4.48,4.48,0,0,1-1.17-1.63,9.54,9.54,0,0,1-.43-1.26c-.2-.51-.41-1.21-.66-1.87s-.52-1.39-.81-1.92a11,11,0,0,1-.6-1.42c-.3-.76-.57-1.59-.86-2.48s-.62-1.78-1-2.69a1.41,1.41,0,0,0-1-.71,11.45,11.45,0,0,1-1.39-.29,6.93,6.93,0,0,0-1-.54,11.81,11.81,0,0,0-2.31-.53,1.66,1.66,0,0,0-1.15.42,70.88,70.88,0,0,1-7.36-.46,9.29,9.29,0,0,1-2.07-.25c-1.09-.34-1.94-.91-3-1.32s-2.15-.33-3.2-.71c-.56-.14-1-.47-1.38-.57h0"/><path class="a" d="M60.68,96.94a15,15,0,0,0-1.14,1.43c.15.36.3.71.44,1.08.1,1.67.51,3.23-.91,4.76a13.24,13.24,0,0,1-6.16,3.68.86.86,0,0,1-.28,0,1.34,1.34,0,0,1-.4-.07,1.26,1.26,0,0,0,.74.06,13.31,13.31,0,0,0,6.17-3.68c1.42-1.53,1-3.1.91-4.77a4.59,4.59,0,0,1,.63-2.53M40.29,80.14c1.71.76,3.42,1.43,5.13,2a12.11,12.11,0,0,0-5.13-2m-4.7-.92a4.1,4.1,0,0,0-.12.7l.33-.57-.21-.13m28.82-.65a6.51,6.51,0,0,0-.11,1.11,4.79,4.79,0,0,0,.09.95,2.64,2.64,0,0,1,0-.28c0-.62,0-1.21,0-1.78M50.75,76.18l.36.51c.29.38.63.81,1,1.17a3.34,3.34,0,0,0-.82-1.26c-.15-.14-.31-.28-.49-.42M42.49,74.5l-.47.13h.21c1.12,0,2.26,0,3.31,0-.89-.09-1.9-.14-3-.16M64,74.06c0,.3-.05.62-.07.94a.74.74,0,0,1,.2.38,6,6,0,0,0-.1-1.29l0,0m-3.47-2.6h-.07l.07,0m.85,0a3,3,0,0,1,1.53.94,2,2,0,0,0-1.53-.94m-2.13-1.2v0h0c0,.19.23.44.5.67a4.76,4.76,0,0,1-.5-.69M46.39,42.16h-.13c-.95.15-1.18,1.08-1.81,1.69a3.7,3.7,0,0,1-1.37.24h0c-.86,0-.81.86-.95,1.57,0,1-1.44,1.17-1.81,2-.58,1.1.49,2.74-.59,3.34a.39.39,0,0,1,.14,0c.28,0,0,.75-.38,1.47s-.69,1.29-.84,1.29-.06,0-.07-.12-.32.11-.6.11a2.06,2.06,0,0,1-.36,0c-.24-.1-.65-.17-.74-.29-.68-1-2.2-1.45-3.32-2.14C33.32,51.29,32.26,54,31,55c-1.11.71-2.29,1.4-2.61,2.65,0,.34.66.57.73.89a8,8,0,0,0,.72,1.82,28,28,0,0,0,1.81,3.06c1.38,2.09,2.94,3.77,2.83,4.2S33.44,69,32.78,69c-1.84.28-2.41,1.38-3.79,2.12-.38.16-.92.06-1.3.22-1,.57-2.09,1.5-2.12,2.25a4,4,0,0,0,.62,3.55c.22.69.46,1.34.7,2a8.63,8.63,0,0,0,2,1c1.22.53,1.86.38,1.85.86,0,0,.06,0,.14,0s.5,0,.91-.08.91-.08,1.41-.08a6,6,0,0,1,1.54.17s.18-.27.44-.7l-.82-.18a8.27,8.27,0,0,1-2.17-.87c-1.45-.83-2.53-2.36-.93-4.26a12.64,12.64,0,0,1,.42-1.3A15.37,15.37,0,0,1,33,71c1-1.66,2.51-3,4-3a2.62,2.62,0,0,1,.73.1l2.24.63c1.35.37,3.18.83,5.1,1.28,3.83.94,7.9,1.71,9.47,3.77,0,0,.21.41,1.94.41h.59a4.65,4.65,0,0,1,1.41,1,2.5,2.5,0,0,1,.67,1.23,2.44,2.44,0,0,1-.39,1.72,18,18,0,0,0-.31,2.81c-.06,1.48.1,3.15.87,3.78,0,0-.72,1.6-.24,2.43l.54.43a.92.92,0,0,1-.54-.43l-.65-.51c1.52,1.72,2.68,3.58,2.11,4.24a21.32,21.32,0,0,1,.44,2.37,8,8,0,0,1-.13,3.24,26.73,26.73,0,0,1,3.8-4.6c1-.94,2.28-2,3.19-3s1.44-2.17.86-3.07c-1.14-1.55-3-2.38-3.9-3.79a6,6,0,0,0,.68,1,7.8,7.8,0,0,0,1.26,1.11,4.07,4.07,0,0,0,.61.36,4.07,4.07,0,0,1-.61-.36A7.8,7.8,0,0,1,65.56,83a6,6,0,0,1-.68-1,3.22,3.22,0,0,1-.49-1.35,4.79,4.79,0,0,1-.09-.95h0a6.51,6.51,0,0,1,.11-1.11,11.19,11.19,0,0,0-.26-3,.66.66,0,0,0,0-.15A.74.74,0,0,0,64,75h0c0-.32,0-.64.07-.94a14.34,14.34,0,0,1-1.09-1.67,3,3,0,0,0-1.53-.94l-.34,0-.51,0-.07,0h-.07a2.53,2.53,0,0,1-.64-.54c-.27-.22-.5-.48-.5-.67h0v0a2,2,0,0,0-1.71-1c-.53,0-1.06-.08-1.59-.14h0c-2.14-.23-4.21-.66-5.09-1.73a3.33,3.33,0,0,1-.71-1.14,2.77,2.77,0,0,1,0-1.25c0-.15.54-.59,1.15-1a11.77,11.77,0,0,1,1.7-1c.64-.32.71-.57.52-.77a3.52,3.52,0,0,0-1.23-.59,7.33,7.33,0,0,1-4.15-2.49c-.08-.37.6-.55.7-.91-.14-.94-1.45-2.16-1.78-3.43a12.15,12.15,0,0,0-.12-3.8c-.19-.59-.46-.63-.34-.66s.23-.16.44-.16l.5,0a4.91,4.91,0,0,0,.53,0,1,1,0,0,0,.53-.11c.54-.55.31-1.59-.09-2.47-.76-1.91-1.32-4.12-.51-5.45h-.12a6.86,6.86,0,0,1-.75-.06,6.87,6.87,0,0,0-.73-.07m2.48-.86a1.4,1.4,0,0,0-.16.26,3.54,3.54,0,0,1,.39-.19l-.23-.07"/><path class="b" d="M34.77,81.07h0c1,.35,1.24,1.41,2.4,1.59,1.81.6,5.06,3.49,6.43,4.21,2.6,1.46,3.51,2.42,3.82,4.55,0,1.7,1.19,2.41,1.62,3.86s1.3,2.28,1.72,3.73a12.29,12.29,0,0,0,.7,4.07,1,1,0,0,0,.55.36c.26.06.29.43.42.59-.1,1.23-1.16,2.45-.77,3.39a.93.93,0,0,0,.57.43.89.89,0,0,1-.51-.41c-.39-.94.68-2.16.77-3.39-.13-.16-.15-.54-.42-.6a1,1,0,0,1-.54-.36,12.3,12.3,0,0,1-.7-4.08c-.42-1.44-1.19-2.28-1.72-3.73s-1.6-2.15-1.63-3.86c-.3-2.13-1.21-3.09-3.81-4.54-1.36-.73-4.62-3.61-6.43-4.21-1.16-.18-1.34-1.23-2.4-1.59l-.07,0"/><path class="c" d="M35.8,79.35l-.33.57a4,4,0,0,0,0,.49l-.26,0c-.26.43-.42.67-.44.7l.07,0c1.06.36,1.24,1.41,2.4,1.59,1.81.6,5.07,3.48,6.43,4.21,2.6,1.45,3.51,2.41,3.81,4.54,0,1.71,1.2,2.41,1.63,3.86s1.3,2.29,1.72,3.73a12.3,12.3,0,0,0,.7,4.08,1,1,0,0,0,.54.36c.27.06.29.44.42.6-.09,1.23-1.16,2.45-.77,3.39a.89.89,0,0,0,.51.41,1.34,1.34,0,0,0,.4.07.86.86,0,0,0,.28,0,13.24,13.24,0,0,0,6.16-3.68c1.42-1.53,1-3.09.91-4.76-.14-.37-.29-.72-.44-1.08l-.09.13c-.6.92-1.1,2-.63,2.8a7.9,7.9,0,0,1-.36,1,11.89,11.89,0,0,1-1,1.86c-.54.79-1.15,1.39-1.67,1.39-.28,0-.52-.17-.72-.56l-.64-.67a10.94,10.94,0,0,1-1-1.11s-.35-2.56-1-5.31-1.55-5.66-1.19-6.24a12.39,12.39,0,0,0-.53-2,16.67,16.67,0,0,0-2.15-4.26,13.23,13.23,0,0,0-3.16-3.18c-1.71-.62-3.42-1.29-5.13-2a15.85,15.85,0,0,0-2.66-.21h-.75a10,10,0,0,1-1.08-.59"/><path class="d" d="M42.23,74.63H42a17.15,17.15,0,0,0-3.11,1.2,6,6,0,0,0-3.32,3.39l.21.13a10,10,0,0,0,1.08.59h.75a15.85,15.85,0,0,1,2.66.21,12.11,12.11,0,0,1,5.13,2,13.23,13.23,0,0,1,3.16,3.18,16.67,16.67,0,0,1,2.15,4.26,12.39,12.39,0,0,1,.53,2c-.36.58.53,3.5,1.19,6.24s1,5.31,1,5.31a10.94,10.94,0,0,0,1,1.11l.64.67c.2.39.44.56.72.56.52,0,1.13-.6,1.67-1.39a11.89,11.89,0,0,0,1-1.86,7.9,7.9,0,0,0,.36-1c-.47-.81,0-1.88.63-2.8l.09-.13a15,15,0,0,1,1.14-1.43l.1-.1a1.84,1.84,0,0,0,.15-.35,8,8,0,0,0,.13-3.24,21.32,21.32,0,0,0-.44-2.37c.57-.66-.59-2.52-2.11-4.24-.85-.68-2-1.65-3.17-2.64-2.07-1.84-3.9-3.88-3.09-5a3,3,0,0,0-.19-1.13c-.32-.36-.66-.79-1-1.17l-.36-.51c-1-.7-2.53-1.26-5.21-1.52-1,0-2.19,0-3.31,0"/><path class="e" d="M59.16,87.15a.92.92,0,0,0,.54.43l-.54-.43M37.08,68c-1.53,0-3,1.34-4,3a15.37,15.37,0,0,0-1.33,2.73,12.64,12.64,0,0,0-.42,1.3c-1.6,1.9-.52,3.43.93,4.26a8.27,8.27,0,0,0,2.17.87l.82.18.26,0a4,4,0,0,1,0-.49,4.1,4.1,0,0,1,.12-.7,6,6,0,0,1,3.32-3.39A17.15,17.15,0,0,1,42,74.63l.47-.13c1.15,0,2.16.07,3,.16,2.68.26,4.25.82,5.21,1.52.18.14.34.28.49.42a3.34,3.34,0,0,1,.82,1.26A3,3,0,0,1,52.25,79c-.81,1.13,1,3.17,3.09,5,1.13,1,2.32,2,3.17,2.64l.65.51c-.48-.83.24-2.43.24-2.43-.77-.63-.93-2.3-.87-3.78a18,18,0,0,1,.31-2.81,2.44,2.44,0,0,0,.39-1.72,2.5,2.5,0,0,0-.67-1.23,4.65,4.65,0,0,0-1.41-1h-.59c-1.73,0-1.94-.41-1.94-.41C53.05,71.75,49,71,45.15,70c-1.92-.45-3.75-.91-5.1-1.28l-2.24-.63a2.62,2.62,0,0,0-.73-.1"/><path class="f" d="M48.91,40.84l-.24,0h-.44a1.34,1.34,0,0,0-.35,0c-.73.07-1.13.54-1.88.54h0a15,15,0,0,0-2.24.17,3,3,0,0,0-1,.62,8.91,8.91,0,0,0-2.94,3.17c.52,1-.52,1.39-.88,2a3.81,3.81,0,0,1-.66.4c-.4.52-.33,1.29-1.14,1.4a13.07,13.07,0,0,0-5,1.24,12.48,12.48,0,0,0-3,2.54,14,14,0,0,0-2.35,3.32c-.84,1.68-.29,3.46-.61,5.12h0a.76.76,0,0,1-.29-.15c0,.2,0,.4,0,.59s.34.58.46.7a2.49,2.49,0,0,1-.51,1.18,6.83,6.83,0,0,0-1.5,2.38,15.29,15.29,0,0,0-.7,2.8c-.14.94-.25,1.92-.41,2.86a11.73,11.73,0,0,1-.69,2.68,3.85,3.85,0,0,0,0,2.53c.38.55.55,1.36,1,1.77a20,20,0,0,0,3.73,1.42l-.39-1c-.24-.64-.48-1.29-.7-2a4,4,0,0,1-.62-3.55c0-.75,1.12-1.68,2.12-2.25.38-.16.92-.06,1.3-.22,1.38-.74,2-1.84,3.79-2.12.66,0,1.41-.84,1.66-1.37s-1.45-2.11-2.83-4.2a28,28,0,0,1-1.81-3.06,8,8,0,0,1-.72-1.82c-.07-.32-.68-.55-.73-.89.32-1.25,1.5-1.94,2.61-2.65,1.3-1,2.36-3.73,2.57-3.73,1.12.69,2.64,1.16,3.32,2.14.09.12.5.19.74.29a2.06,2.06,0,0,0,.36,0c.28,0,.56,0,.6-.11s0,.12.07.12.52-.64.84-1.29.66-1.47.38-1.47a.39.39,0,0,0-.14,0c1.08-.6,0-2.24.59-3.34.37-.86,1.79-1.06,1.81-2,.14-.71.09-1.57.95-1.57h0a3.7,3.7,0,0,0,1.37-.24c.63-.61.86-1.54,1.81-1.69h.13a6.87,6.87,0,0,1,.73.07,6.86,6.86,0,0,0,.75.06H48c.37,0,.64-.15.68-.54a.65.65,0,0,1,0-.19,1.4,1.4,0,0,1,.16-.26c.1-.16.17-.3,0-.46h0"/><path class="g" d="M64.3,79.68h0a4.79,4.79,0,0,0,.09.95A4.7,4.7,0,0,0,64.88,82a6,6,0,0,0,.68,1,7.8,7.8,0,0,0,1.26,1.11,4.07,4.07,0,0,0,.61.36,4.07,4.07,0,0,1-.61-.36A7.8,7.8,0,0,1,65.56,83a6,6,0,0,1-.68-1,4.7,4.7,0,0,1-.49-1.35,4.79,4.79,0,0,1-.09-.95m.16-1.36c0,.09,0,.17,0,.25a6.51,6.51,0,0,0-.11,1.11h0a6.51,6.51,0,0,1,.11-1.11c0-.08,0-.16,0-.25h0M64,75h0a.74.74,0,0,1,.2.38,9.93,9.93,0,0,1,.22,1.39c.07.8.08,1.55.08,1.55h0s0-.75-.08-1.55a9.93,9.93,0,0,0-.22-1.39A.74.74,0,0,0,64,75M64,74v0c0,.3-.05.62-.07.94h0c0-.32,0-.64.07-.94v0h0m-.29-.51h0A5.41,5.41,0,0,1,64,74h0a5.41,5.41,0,0,0-.29-.51h0m-.1-.18.1.18-.1-.18M61,71.41h0a2.33,2.33,0,0,1,.38,0,3,3,0,0,1,1.53.94l.08.09a5.93,5.93,0,0,1,.4.51l.23.34L63.42,73a5.93,5.93,0,0,0-.4-.51l-.08-.09a3,3,0,0,0-1.53-.94,2.33,2.33,0,0,0-.38,0M59.8,71h0a6.22,6.22,0,0,0,.68.5h0l.07,0a2.59,2.59,0,0,1,.47,0h0a2.59,2.59,0,0,0-.47,0l-.07,0h0a6.22,6.22,0,0,1-.68-.5h0m-.52-.7c0,.19.23.45.5.67l0,0,0,0c-.27-.23-.5-.48-.5-.67m0,0h0m0-.11,0,.09v0h0v0l0-.09h0m-.59-.54h0c.51.26.59.54.59.54h0s-.08-.28-.59-.54h0m-2.81-.46H56a6.18,6.18,0,0,1,2.74.46A6.18,6.18,0,0,0,56,69.16h-.07m-.06,0h0"/><path class="h" d="M44.88,39.81l-.52,0c-2.59.25-4.92,1-6.47,2.67-.29.32-.08.87-.12,1.3,0,1.05-1.23,1.69-.73,3.05a.36.36,0,0,1-.23.45A25.25,25.25,0,0,0,30,49.75a10.76,10.76,0,0,0-3,2.75,17.36,17.36,0,0,0-2.1,3.23A5.55,5.55,0,0,0,25,60.28a2.54,2.54,0,0,0,.8,1,.76.76,0,0,0,.29.15h0c.32-1.66-.23-3.44.61-5.12a14,14,0,0,1,2.35-3.32,12.48,12.48,0,0,1,3-2.54,13.07,13.07,0,0,1,5-1.24c.81-.11.74-.88,1.14-1.4a3.81,3.81,0,0,0,.66-.4c.36-.59,1.4-1,.88-2a8.91,8.91,0,0,1,2.94-3.17,3,3,0,0,1,1-.62A15,15,0,0,1,46,41.42h0c.75,0,1.15-.47,1.88-.54a1.34,1.34,0,0,1,.35,0h.44l.24,0h0c0-.2.34-.37.1-.5a2.09,2.09,0,0,0-1-.31c-1.07-.05-2.17-.22-3.17-.22"/><path d="M93,33.34V32.21c6.29-1.91,11.85,1,15.47,8.22,4.3-.38,7.89,1.65,11.09,4.09,3.37,2.56,4.18,6.64,4.7,10.62,6.3,4.61,8.07,6.49,7.55,14.94a12.19,12.19,0,0,1,4.88,8.64,14.3,14.3,0,0,1-2.18,9.64c-.9,1.37-1.69,2.81-2.65,4.4a8.38,8.38,0,0,1,.67,5.24,9.87,9.87,0,0,1-2.23,4.3,29.23,29.23,0,0,1-8.41,6.15c-6.87,3.75-14.39,5.12-21.86,6.74-4.73,1-9.52,1.8-14.28,2.67a10,10,0,0,0-5.29,3.28c-.81.84-1.5,1.8-2.31,2.65-1.45,1.49-2.72,3.07-5.07,3.5a5,5,0,0,1-3.32-.33,7.21,7.21,0,0,1-2.2-1.71,7.71,7.71,0,0,0-5.11-2.59c-6.41-.93-12.85-1.74-19.24-2.83a57.65,57.65,0,0,1-11.15-2.73c-6.94-2.71-13.08-6.67-16.94-13.42-1.72-3-1.44-6-.12-9,.35-.8,1.22-1.36,2-2.2-1.91-2.92-2.11-6.4-2.47-9.77A16.53,16.53,0,0,1,15.19,76a9.31,9.31,0,0,1,3.22-3.9,2.74,2.74,0,0,0,1.09-3c-.6-4.85.33-9.38,3.68-13.11a22.11,22.11,0,0,1,3.51-2.68c.36-1.81.63-3.49,1.06-5.13a3.4,3.4,0,0,1,1.1-1.75c2.78-2.07,5.11-4.93,8.88-5.14,2.54-6,7.21-9.22,15.4-8.44l2.56-3.82a5.78,5.78,0,0,1,3.77-2.49c4.07-.86,7.46-.19,12.2,2.59,3.41-2.75,7.64-2.9,11.69-2.47a12.57,12.57,0,0,1,9.7,6.61c-.08,2.57,0,5.15-.26,7.72-.62,7.59-2.58,14.92-4.59,22.23C87.54,65.66,86.55,68,86,70.4c-.86,3.56-1.35,7.22-2.25,10.77-2.38,9.46-4.9,18.89-7.35,28.34-.16.62-.24,1.26-.35,1.88a13.91,13.91,0,0,0,2-2.68c1.61-2.4,3.32-4.73,4.89-7.15s3.14-4.85,4.5-7.39c2.84-5.3,5.55-10.66,8.29-16C97.78,74,100.06,69.9,102,65.64A54.39,54.39,0,0,0,107.13,46a11.53,11.53,0,0,0-4.54-10.24c-1.94-1.55-4.21-2.61-6.7-2.16A5.77,5.77,0,0,1,93,33.34ZM71.23,125.15l.66-.07a12.4,12.4,0,0,0,.08-1.36c-.32-5.85-.78-11.7-.94-17.55a113.52,113.52,0,0,1,.19-14.76q1.43-13.89,1.92-27.84a143.16,143.16,0,0,0-.7-20.38,39.76,39.76,0,0,0-2.93-11c-1.36-3.31-4.18-4.18-7.38-4.36-2.91-.16-4.75,1.5-5.86,3.9a22.88,22.88,0,0,0-1.54,5.36,32.45,32.45,0,0,0-.59,10.26c.7,4.87,1.36,9.74,2.23,14.58,1.57,8.77,3.28,17.51,4.94,26.27.51,2.68,1,5.36,1.62,8,.83,3.89,1.66,7.79,2.61,11.65.76,3.11,1.7,6.17,2.57,9.25.18.66.37,1.31.56,2,.41-1.82-.88-3.43-.36-5.28,1.41.72,1.8,1.72,2.2,5.28C70.74,121.09,71,123.12,71.23,125.15Zm2.34-10.27c.39-1.65.79-3.29,1.19-4.94q2.58-10.59,5.17-21.18c.79-3.27,1.62-6.53,2.36-9.8.77-3.43,1.11-7,2.27-10.3A139.67,139.67,0,0,0,90,47.31a106.43,106.43,0,0,0,1.12-11.87,4.19,4.19,0,0,0-1.48-3.77,12.89,12.89,0,0,0-7.12-3.27c-1.47-.13-3,.13-4.45.13a7.81,7.81,0,0,0-5.3,2.18c-1.41,1.25-1.34,1.21-.81,3A52.13,52.13,0,0,1,74,41.81a131.25,131.25,0,0,1,.74,22.25c-.25,6.41-.59,12.82-1.16,19.2-.61,6.94-1.55,13.85-1.26,20.83.07,1.8-.43,3.83.25,5.34C73.43,111.28,73.38,113,73.57,114.88ZM82.68,105l.44.42c3.52-3.43,7.21-6.69,10.5-10.33,5.51-6.08,11.29-11.93,15.95-18.74a4.57,4.57,0,0,1,.62-.7c4.4-4.35,7.49-9.62,10.48-14.94A12.31,12.31,0,0,0,119,46.54c-2-2.2-4.84-3.07-7.5-4.18a1.43,1.43,0,0,0-.46-.07c-1.33-.06-1.75.39-1.81,1.75a57.08,57.08,0,0,1-3.41,17.18A112,112,0,0,1,100,73.76c-1.67,3.27-3.49,6.45-5.24,9.67-1.38,2.54-2.75,5.07-4.1,7.62-1.72,3.23-3.37,6.5-5.15,9.7C84.72,102.24,83.65,103.6,82.68,105ZM37.91,42.88c-2.34.17-7.32,3.22-8.34,5.09-.19.34-.27.73-.44,1.08-.84,1.79-.2,3.53.11,5.29a42.62,42.62,0,0,0,6.87,17c4.4,6.35,9,12.59,13.21,19.06,3.7,5.68,7,11.63,10.49,17.45.41.69.85,1.35,1.28,2a2.34,2.34,0,0,0-.13-1.7,45.1,45.1,0,0,1-2.8-9.66,28.84,28.84,0,0,0-.93-3.39q-3-8.75-6-17.48a53.76,53.76,0,0,0-2-5c-2.39-5.08-4.84-10.14-7.29-15.2a29.91,29.91,0,0,1-2.88-8.88C38.77,46.67,38.29,44.78,37.91,42.88Zm25.53,77.06.37-.48c-2.5-2.65-4.93-5.36-7.52-7.93-3.44-3.41-7-6.68-10.49-10-2.63-2.55-4.94-5.54-7.88-7.65A81.26,81.26,0,0,1,25.86,82.76a21.64,21.64,0,0,1-4.37-6.89A34.15,34.15,0,0,0,20,72.78c-2.42,1.79-3.83,3.85-3.75,6.67.05,1.79.23,3.58.37,5.36.49,6.09,4.06,10.4,8.43,14.1,5.42,4.59,11.87,7.48,18.26,10.41,5.75,2.63,11.54,5.17,16.8,8.74C61.12,118.78,62.31,119.32,63.44,119.94ZM27.35,55c-3.57,1.74-5,4.7-5.79,8.17-1.37,6,.33,11.52,3.89,16.13,3.71,4.79,7.77,9.42,13.05,12.7a20.59,20.59,0,0,1,3.43,2.82c4.61,4.55,9.17,9.16,13.77,13.73.83.82,1.78,1.52,2.63,2.33s1.6,1.69,2.4,2.53a1.54,1.54,0,0,0-.24-1.23c-5-8-9.83-16-14.88-23.89-3.08-4.8-6.44-9.42-9.66-14.13-1.32-1.94-2.68-3.85-3.84-5.88a38.54,38.54,0,0,1-4.26-11.63C27.74,56.13,27.55,55.64,27.35,55Zm55.46,52.3.42.44c2.09-1.34,4.13-2.79,6.29-4,3-1.73,6.32-3.09,9.27-5q10.38-6.59,20.53-13.53c5.39-3.71,9.31-8.61,10.52-15.21.74-4.06.52-8-3.07-10.89-.81-.64-1.36-1.68-2.61-1.81-.23.54-.45.95-.59,1.39-1.67,5.24-5.12,9.47-8.12,13.91a100.23,100.23,0,0,1-7.63,9.15q-4.6,5.33-9.28,10.56A83.14,83.14,0,0,1,87,103.64C85.56,104.76,84.22,106.07,82.81,107.29ZM52.89,34.84a17.11,17.11,0,0,0-2.78-.43,11.18,11.18,0,0,0-9,4.63A4.91,4.91,0,0,0,40,43a69.92,69.92,0,0,0,1.7,8.26c1.91,6.3,4.85,12.18,7.75,18.08,1.21,2.45,2.47,4.89,3.45,7.44,1.23,3.2,2.24,6.49,3.25,9.77,1.5,4.93,2.93,9.88,4.38,14.83a31.83,31.83,0,0,0,.94,3.38,59.14,59.14,0,0,1,3.47,12.15,10.63,10.63,0,0,0,3.19,5.43c-.87-3.23-1.77-6.54-2.66-9.85-.26-1-.5-2-.77-2.94-1.08-4-2.31-8-3.23-12-1.61-7-3.15-14-4.49-21.1-1.49-7.91-2.73-15.87-4.06-23.81-.8-4.81-1.3-9.62-.37-14.47C52.68,37.19,52.74,36.18,52.89,34.84Zm78.66,37c-.91,2-1.64,3.83-2.5,5.56-2.08,4.19-5.62,7.09-9.31,9.69-5.37,3.77-10.91,7.29-16.46,10.78a93.84,93.84,0,0,1-8.41,4.62,65.42,65.42,0,0,0-12,7.63,32,32,0,0,0-2.41,2.39,1.63,1.63,0,0,0,1.3.08c5.33-1.79,10.69-3.52,16-5.42,5.52-2,11-4.14,16.46-6.18a55.09,55.09,0,0,0,13-6.88,18.11,18.11,0,0,0,6.81-9C135.64,80.38,135.3,75.92,131.55,71.88ZM17.7,93.86a13.57,13.57,0,0,0-1.34,2.24,8,8,0,0,0,.55,6.79,25.54,25.54,0,0,0,8.31,8.76A33.18,33.18,0,0,0,36,116.19c3.73.81,7.45,1.66,11.21,2.32,4.27.75,8.59,1.31,12.88,1.95a34.18,34.18,0,0,0-5.93-3.95c-5.74-2.84-11.54-5.54-17.33-8.27C29.6,104.84,23,100.66,17.7,93.86ZM130.24,94a14.7,14.7,0,0,0-1.77,1.18c-3.5,3.15-7.84,4.79-12,6.7-3.47,1.58-7.09,2.82-10.69,4.11-4,1.41-8,2.68-12,4-1.55.53-3.45.77-4.51,1.82a7.26,7.26,0,0,1-4,1.93c-5.09,1.06-7.88,4.73-10.39,8.78a1.56,1.56,0,0,0-.19,1.91c.28-.25.56-.38.58-.55.24-1.65,1.37-2.53,2.66-3.34a10.74,10.74,0,0,0,1.85-1.43,12.69,12.69,0,0,1,7.11-3.28c5.76-1,11.5-2.1,17.26-3.13a55.06,55.06,0,0,0,13.23-3.85,67.33,67.33,0,0,0,9-5,11.09,11.09,0,0,0,4.35-5.68C131.16,96.8,131.55,95.35,130.24,94Z"/></svg>