<?xml version="1.0" encoding="utf-8"?>
<!-- Generator: Adobe Illustrator 21.0.0, SVG Export Plug-In . SVG Version: 6.00 Build 0)  -->
<svg version="1.1" id="Слой_1" xmlns="http://www.w3.org/2000/svg" xmlns:xlink="http://www.w3.org/1999/xlink" x="0px" y="0px"
	 viewBox="0 0 300 300" style="enable-background:new 0 0 300 300;" xml:space="preserve">
<style type="text/css">
	.st0{opacity:0.9;clip-path:url(#SVGID_2_);}
	.st1{opacity:0.9;clip-path:url(#SVGID_4_);}
	.st2{clip-path:url(#SVGID_6_);fill:#E1C9D9;}
	.st3{opacity:0.9;clip-path:url(#SVGID_6_);}
	.st4{clip-path:url(#SVGID_8_);fill:#B980A7;}
	.st5{clip-path:url(#SVGID_6_);fill:#C497B7;}
	.st6{clip-path:url(#SVGID_6_);fill:#D4B1C8;}
	.st7{clip-path:url(#SVGID_6_);fill:none;stroke:#D0ABC5;stroke-width:0;}
	.st8{opacity:0.9;clip-path:url(#SVGID_10_);}
	.st9{opacity:0.9;clip-path:url(#SVGID_12_);}
	.st10{clip-path:url(#SVGID_14_);fill:#E1C9D9;}
	.st11{opacity:0.9;clip-path:url(#SVGID_14_);}
	.st12{clip-path:url(#SVGID_16_);fill:#B980A7;}
	.st13{clip-path:url(#SVGID_14_);fill:#C497B7;}
	.st14{clip-path:url(#SVGID_14_);fill:#D4B1C8;}
	.st15{clip-path:url(#SVGID_14_);fill:none;stroke:#D0ABC5;stroke-width:0;}
	.st16{fill:#FFFFFF;}
	.st17{opacity:0.9;clip-path:url(#SVGID_18_);}
	.st18{opacity:0.9;clip-path:url(#SVGID_20_);}
	.st19{clip-path:url(#SVGID_22_);fill:#D2D0CF;}
	.st20{opacity:0.9;clip-path:url(#SVGID_22_);}
	.st21{clip-path:url(#SVGID_24_);fill:#95908E;}
	.st22{clip-path:url(#SVGID_22_);fill:#A8A4A2;}
	.st23{clip-path:url(#SVGID_22_);fill:#BDBAB9;}
	.st24{clip-path:url(#SVGID_22_);fill:#E3E2E0;}
	.st25{clip-path:url(#SVGID_22_);fill:none;stroke:#B8B5B4;stroke-width:0;}
	.st26{clip-path:url(#SVGID_22_);fill:#F4F4F3;}
	.st27{opacity:0.9;clip-path:url(#SVGID_26_);}
	.st28{opacity:0.9;clip-path:url(#SVGID_28_);}
	.st29{clip-path:url(#SVGID_30_);fill:#D2D0CF;}
	.st30{opacity:0.9;clip-path:url(#SVGID_30_);}
	.st31{clip-path:url(#SVGID_32_);fill:#95908E;}
	.st32{clip-path:url(#SVGID_30_);fill:#A8A4A2;}
	.st33{clip-path:url(#SVGID_30_);fill:#BDBAB9;}
	.st34{clip-path:url(#SVGID_30_);fill:#E3E2E0;}
	.st35{clip-path:url(#SVGID_30_);fill:none;stroke:#B8B5B4;stroke-width:0;}
	.st36{clip-path:url(#SVGID_30_);fill:#F4F4F3;}
</style>
<g>
	<g>
		<g>
			<defs>
				<line id="SVGID_1_" x1="241.2" y1="221.4" x2="250.4" y2="221.4"/>
			</defs>
			<clipPath id="SVGID_2_">
				<use xlink:href="#SVGID_1_"  style="overflow:visible;"/>
			</clipPath>
			<g class="st0">
				<g>
					<defs>
						<line id="SVGID_3_" x1="241.2" y1="221.4" x2="250.4" y2="221.4"/>
					</defs>
					<clipPath id="SVGID_4_">
						<use xlink:href="#SVGID_3_"  style="overflow:visible;"/>
					</clipPath>
					<g class="st1">
						<g>
							<defs>
								<line id="SVGID_5_" x1="241.2" y1="221.4" x2="250.4" y2="221.4"/>
							</defs>
							<clipPath id="SVGID_6_">
								<use xlink:href="#SVGID_5_"  style="overflow:visible;"/>
							</clipPath>
							<path class="st2" d="M250.1,215.3"/>
							<path class="st2" d="M241.6,216.4c0.2,0.5,0.4,0.5,0.6,0.6c0.3,0.2,0.5,1.1,0.7,2.1c0.1,0.8,0.3,1.9,0.5,1.9
								c0.3-0.1,0.5-0.7,0.8-0.4c0.2,0.3,0.4,0.5,0.7,0.7c0,0.1,0.3,0.2,0.3,0.2c0.4-0.1,1,0.1,1.1-0.7c0.4-0.3,0.7-0.1,0.9-0.7
								c0.2-0.8,0.3-1.6,0.6-2c0.1-0.2,0.3-0.3,0.5-0.3c0,0,0.1,0,0.1,0c0.1,0,0.7,0.4,0.9,0.5c0.2,0.1,0.3,0.1,0.4,0
								c0-0.1,0.1-0.1,0.1-0.2c0-0.1,0-0.2,0-0.2c-0.1-0.3-0.2-0.5-0.3-0.7c-0.1-0.2-0.2-0.3-0.2-0.5c0,0,0.1,0.1,0.1,0.1
								c0-0.1,0-0.6,0-0.9c0.2-0.3,0.3-0.6,0.3-0.7"/>
							<g class="st3">
								<g>
									<defs>
										<line id="SVGID_7_" x1="241.2" y1="217" x2="245.2" y2="217"/>
									</defs>
									<clipPath id="SVGID_8_">
										<use xlink:href="#SVGID_7_"  style="overflow:visible;"/>
									</clipPath>
									<path class="st4" d="M244.4,216.7l-2.2,0.3c-0.2-0.1-0.4-0.1-0.6-0.6"/>
								</g>
							</g>
							<path class="st5" d="M243.5,215.6c0,0,0.4,0.3,0.9,0.2"/>
							<path class="st5" d="M246,215.4c0.2,1,0.1,2-0.2,2.1c0,0-0.4,0.1-0.6,0.2c0,0-0.1-0.1-0.3-0.2c-0.1-0.1-0.4-0.1-0.5,0.1
								c0,0-0.3,0.3-0.6,0.5c-0.3,0.2-0.6,0.3-0.7,0c0,0-0.5-0.3-0.7-0.7c0,0-0.2-1.1-0.5-1c0,0-0.7-1.1-0.4-1.3"/>
							<path class="st6" d="M246.9,217c0,0.9-0.3,1.8-0.8,2c0,0,0,0-0.1,0.1c0,0.1-0.1,0.2-0.2,0.6c0,0-0.1,0.2-0.4,0.3
								c-0.2,0.1-0.5,0.1-0.7-0.3c-0.1,0-0.7-1-0.9-0.8c0,0-0.2-0.6-0.3-0.3c0,0,0.1-0.1,0.2-0.2c0.1-0.1,0.3-0.3,0.4-0.4
								c0.3-0.3,0.8-0.4,0.9-0.1c0,0,0.2,0.2,0.5,0c0.3-0.2,0.6-0.7,0.4-2.2"/>
							<path class="st7" d="M243.5,220.8c0,0,0.1-0.2,0.2-0.3c0.1-0.1,0.3-0.1,0.6,0.4c0,0,0.1,0.1,0.2,0.2c0.1,0.1,0.2,0.2,0.3,0.2
								l0.2,0.2c0,0,0.3,0,0.5-0.1c0.3-0.1,0.5-0.3,0.6-0.6c0,0,0.1-0.1,0.2-0.1c0.1-0.1,0.2-0.1,0.3-0.1c0,0,0.1,0,0.2-0.1
								c0.1-0.1,0.3-0.4,0.3-0.9"/>
						</g>
					</g>
				</g>
			</g>
		</g>
	</g>
	<g>
		<g>
			<defs>
				<line id="SVGID_9_" x1="241.2" y1="221.4" x2="250.4" y2="221.4"/>
			</defs>
			<clipPath id="SVGID_10_">
				<use xlink:href="#SVGID_9_"  style="overflow:visible;"/>
			</clipPath>
			<g class="st8">
				<g>
					<defs>
						<line id="SVGID_11_" x1="241.2" y1="221.4" x2="250.4" y2="221.4"/>
					</defs>
					<clipPath id="SVGID_12_">
						<use xlink:href="#SVGID_11_"  style="overflow:visible;"/>
					</clipPath>
					<g class="st9">
						<g>
							<defs>
								<line id="SVGID_13_" x1="241.2" y1="221.4" x2="250.4" y2="221.4"/>
							</defs>
							<clipPath id="SVGID_14_">
								<use xlink:href="#SVGID_13_"  style="overflow:visible;"/>
							</clipPath>
							<path class="st10" d="M250.1,215.3"/>
							<path class="st10" d="M241.6,216.4c0.2,0.5,0.4,0.5,0.6,0.6c0.3,0.2,0.5,1.1,0.7,2.1c0.1,0.8,0.3,1.9,0.5,1.9
								c0.3-0.1,0.5-0.7,0.8-0.4c0.2,0.3,0.4,0.5,0.7,0.7c0,0.1,0.3,0.2,0.3,0.2c0.4-0.1,1,0.1,1.1-0.7c0.4-0.3,0.7-0.1,0.9-0.7
								c0.2-0.8,0.3-1.6,0.6-2c0.1-0.2,0.3-0.3,0.5-0.3c0,0,0.1,0,0.1,0c0.1,0,0.7,0.4,0.9,0.5c0.2,0.1,0.3,0.1,0.4,0
								c0-0.1,0.1-0.1,0.1-0.2c0-0.1,0-0.2,0-0.2c-0.1-0.3-0.2-0.5-0.3-0.7c-0.1-0.2-0.2-0.3-0.2-0.5c0,0,0.1,0.1,0.1,0.1
								c0-0.1,0-0.6,0-0.9c0.2-0.3,0.3-0.6,0.3-0.7"/>
							<g class="st11">
								<g>
									<defs>
										<line id="SVGID_15_" x1="241.2" y1="217" x2="245.2" y2="217"/>
									</defs>
									<clipPath id="SVGID_16_">
										<use xlink:href="#SVGID_15_"  style="overflow:visible;"/>
									</clipPath>
									<path class="st12" d="M244.4,216.7l-2.2,0.3c-0.2-0.1-0.4-0.1-0.6-0.6"/>
								</g>
							</g>
							<path class="st13" d="M243.5,215.6c0,0,0.4,0.3,0.9,0.2"/>
							<path class="st13" d="M246,215.4c0.2,1,0.1,2-0.2,2.1c0,0-0.4,0.1-0.6,0.2c0,0-0.1-0.1-0.3-0.2c-0.1-0.1-0.4-0.1-0.5,0.1
								c0,0-0.3,0.3-0.6,0.5c-0.3,0.2-0.6,0.3-0.7,0c0,0-0.5-0.3-0.7-0.7c0,0-0.2-1.1-0.5-1c0,0-0.7-1.1-0.4-1.3"/>
							<path class="st14" d="M246.9,217c0,0.9-0.3,1.8-0.8,2c0,0,0,0-0.1,0.1c0,0.1-0.1,0.2-0.2,0.6c0,0-0.1,0.2-0.4,0.3
								c-0.2,0.1-0.5,0.1-0.7-0.3c-0.1,0-0.7-1-0.9-0.8c0,0-0.2-0.6-0.3-0.3c0,0,0.1-0.1,0.2-0.2c0.1-0.1,0.3-0.3,0.4-0.4
								c0.3-0.3,0.8-0.4,0.9-0.1c0,0,0.2,0.2,0.5,0c0.3-0.2,0.6-0.7,0.4-2.2"/>
							<path class="st15" d="M243.5,220.8c0,0,0.1-0.2,0.2-0.3c0.1-0.1,0.3-0.1,0.6,0.4c0,0,0.1,0.1,0.2,0.2
								c0.1,0.1,0.2,0.2,0.3,0.2l0.2,0.2c0,0,0.3,0,0.5-0.1c0.3-0.1,0.5-0.3,0.6-0.6c0,0,0.1-0.1,0.2-0.1c0.1-0.1,0.2-0.1,0.3-0.1
								c0,0,0.1,0,0.2-0.1c0.1-0.1,0.3-0.4,0.3-0.9"/>
						</g>
					</g>
				</g>
			</g>
		</g>
	</g>
	<path d="M205.9,197.3c-1.7-0.1-4.3-0.4-6.9-0.5c-3.4-0.1-6.9,0-10.3-0.2c-9.4-0.5-18.6-2.5-27.6-5.3c-5.1-1.5-10.3-3-14.8-5.9
		c-1.7-1.1-3.2-2.3-4.7-3.6c-1-0.8-1.9-1-3.1-0.8c-7.9,1.5-15.8,3.1-23.8,4.2c-3.2,0.5-6.5,0.1-9.7-0.1c-4-0.2-8.1-0.5-12.1-0.8
		c-11.4-0.8-22.5-3.1-33.1-7.1c-4.7-1.8-9.2-4.2-13.8-6.5c-1.3-0.7-2.6-1.7-3.7-2.7c-3.9-3.6-4.2-6.8-1.4-11.3
		c1.8-2.9,4.5-4.7,7.1-6.7c4-3.1,8.4-5.8,12.2-9.1c7.7-6.6,15.2-13.6,22.8-20.4c3.5-3.1,7-6.1,10.6-9.1c5-4.2,9.2-9.2,13.4-14.1
		c2.7-3.1,5.8-6,8.7-9c2.1-2.1,4.5-2.6,7.4-1.6c4,1.5,7.5,4,11,6.3c5.9,4,12,7.7,18,11.5c8.7,5.5,17.4,10.9,26,16.3
		c3.4,2.1,6.8,4.3,10.1,6.5c0.8,0.5,1.4,0.4,2.2,0c3.1-1.6,6.2-3.4,9.4-4.7c4.4-1.8,9.1-2.1,13.7-0.5c1.6,0.5,3.1,1.7,4.4,2.9
		c6.3,6,12.2,12.4,18.7,18.3c5.6,5.1,11.8,9.6,17.6,14.6c3.2,2.7,6,5.9,8.9,9c3.2,3.5,3.2,7.8,2.1,12c-0.2,0.9-1.1,1.8-1.8,2.4
		c-5.1,4.5-11,7.3-17.5,9.5C232.9,195.1,219.9,196.7,205.9,197.3z M252,186.6c1.8-0.8,3.9-1.3,5.2-3.3c-0.4-0.2-0.7-0.3-1-0.5
		c0.4-0.5,0.7-0.9,1.2-1.4c0.1,0.7,0.2,1.1,0.2,1.7c2.2-0.8,3.6-2.4,5.4-3.7c-0.8-1-0.5-1.7,0.2-2.5c0.4-0.4,0.7-1.3,0.7-1.9
		c-0.2-1.3-0.7-2.6-0.5-4c0.1-0.5-0.5-1-0.9-1.8c-0.2,1-0.3,1.6-0.4,2.2c-0.2,0-0.4,0-0.6,0c0-1.1-0.1-2.2-0.1-3.3
		c0-0.4-0.2-0.8-0.4-1c-2-2.2-4.1-4.4-6.2-6.6c-0.7-0.7-1.3-1-2.3-0.8c-0.9,0.2-1.8,0-2.3-1.1c0.8,0.1,1.5,0.1,2.5,0.2
		c-0.4-0.5-0.5-0.7-0.7-0.8c-2.9-2.4-5.8-4.9-8.8-7.2c-9-6.9-17.3-14.5-24.7-23.1c-3.5-4.1-7.7-5.2-12.7-5
		c-4.7,0.2-8.6,2.5-12.6,4.6c-5.4,2.8-9.4,7.3-13.7,11.5c-0.2,0.2-0.4,0.5-0.5,0.7c-0.4,0.9-0.7,1.9-1.1,2.7
		c-0.7-0.3-1.1-0.5-1.6-0.6c0,0-0.4,0.6-0.3,0.8c0.5,1.9-1,1.7-2.1,2.1c-0.2-1.8-0.5-3.3,1.7-4.2c1.1-0.4,1.8-1.7,2.7-2.6
		c-0.5-0.8-0.9-1.3-1.2-1.9c1.4-1.3,2.6-2.6,4-3.9c-0.2-0.4-0.6-1.2-1-1.9c0.5,0,0.9-0.1,1.3-0.1c-0.1-0.1-0.2-0.2-0.3-0.3
		c0.2-0.5,0.4-1.3,0.8-1.5c0.9-0.4,1.2,0.4,1.4,1.1c0.2,1,0.4,2.1,0.7,3.2c1.9-0.8,1.9-1-0.1-3.4c0.3-0.5,0.7-1,1.2-1.7
		c-2.6-1.1-4.1-4-7-3.8c-0.6-0.8-1-1.5-1.5-1.8c-3.1-2-6.3-3.8-9.5-5.8c-8-5-15.9-10.1-23.8-15.1c-2.6-1.6-5.4-2.9-7.7-4.7
		c-4-3.1-8.1-5.8-12.6-8c-2.3-1.1-4.1-0.9-5.9,0.8c-3.4,3.3-6.8,6.7-10.1,10.1c-3.9,4.1-7.5,8.5-11.5,12.4
		c-4.3,4.1-9.1,7.8-13.5,11.8c-4.3,3.8-8.2,8.1-12.6,11.7c-8,6.5-16.2,12.8-24.3,19.1c-2.2,1.7-3.5,4-4.4,6.6
		c-0.5,1.4-0.5,2.9,0.6,4.1c1.5,1.6,3,3.4,4.8,4.5c11.3,7.2,24,10.6,36.9,12.8c7.5,1.3,15.2,1.4,22.8,2.1c4.2,0.4,8.3,0.1,12.4-0.7
		c6.4-1.2,12.8-2.3,19.2-3.6c2.3-0.5,4.4-0.6,6,1.7c0.4,0.6,1.1,1.3,2,0.5c0,0,0.2,0.1,0.3,0.1c-0.2,0.3-0.4,0.5-0.8,0.9
		c1.9,1.1,3.7,2.2,5.6,3.3c0.1-1,0.2-1.7,0.4-2.9c0.4,0.7,0.7,0.9,0.6,1.2c-0.3,2.1,1.3,2.7,2.8,3.1c4.4,1.3,8.7,2.6,13.1,3.9
		c9.2,2.7,18.7,3.4,28.1,4.1c3.9,0.3,7.9,0,11.8,0.2c8.4,0.3,16.6-1.3,24.8-2.6c0.2,0,0.4-0.2,0.7-0.3c1.2-0.4,2.4-0.9,3.7-1.2
		c0.9-0.2,1.8-0.4,2.7-0.5c2.2-0.2,3.8-1.9,6-2.1c1.8-0.2,3.5-1.2,5.3-1.9c0.1,0,0.1-0.1,0.2-0.3c-0.3-0.2-0.6-0.3-0.9-0.4
		c1.2-1.5,1.2-1.5-0.4-2.3c-0.2-0.1-0.4-0.5-0.4-0.7c0-0.2,0.4-0.6,0.6-0.5c0.6,0.2,1.5,0.3,1.8,0.8
		C251.7,184.7,251.7,185.6,252,186.6z M185.5,127.8c-0.1,0.1-0.3,0.3-0.4,0.4c0.3,0.5,0.6,1,1,1.4c0.2,0.2,0.6,0.1,1,0.1
		c-0.1-0.3,0-0.8-0.2-1C186.5,128.3,186,128.1,185.5,127.8z"/>
	<path class="st16" d="M185.5,127.8c0.5,0.3,1,0.5,1.4,0.9c0.2,0.2,0.1,0.7,0.2,1c-0.3,0-0.8,0.1-1-0.1c-0.4-0.4-0.7-0.9-1-1.4
		C185.2,128,185.4,127.9,185.5,127.8z"/>
	<path d="M113.6,94c0.6-0.1,0.9-0.3,1.2-0.3c1,0,1.4-0.5,1.4-1.5c0-1,0-2,1.8-2.2c-0.5,1.6-0.6,3.1-1.4,4.3
		C116.1,95,114.7,94.9,113.6,94z"/>
	<path d="M170.6,147.3c0.1-1.5,0.2-3,0.3-4.7c0.7,0.4,1.5,0.7,2.2,1.1c-0.7,1.3-1.3,2.5-1.9,3.8
		C171.1,147.4,170.8,147.3,170.6,147.3z"/>
	<path d="M260.1,176.4c0.7,0.1,1.3,0,1.6-0.9c0.2-0.4,0.9-0.6,1.4-0.9c0.1,0.1,0.2,0.2,0.3,0.3c-0.4,0.6-0.8,1.1-1.2,1.8
		c-0.3,0.5-0.4,1.1-0.7,1.5c-0.4,0.4-0.9,0.7-1.3,1C260.2,178.1,260.2,177.2,260.1,176.4L260.1,176.4z"/>
	<path d="M181.6,126.7c0.1,1.7-1,1-1.8,1c-0.1,0.3-0.1,0.8-0.3,0.9c-0.2,0.2-0.6,0-0.9,0c0.1-0.7,0.1-1.4,0.3-2
		c0.1-0.2,0.8-0.3,1.2-0.2C180.6,126.4,181,126.6,181.6,126.7z"/>
	<path d="M246,187.7c-0.4-1.3-0.7-2.4-1-3.7c0.9,0.5,1.6,0.9,2.5,1.4C247,186.2,246.6,186.8,246,187.7z"/>
	<path d="M260.2,176.3c-1.5-0.2-2.3-0.9-2.1-2.5C259.5,173.8,260,174.4,260.2,176.3C260.1,176.4,260.2,176.3,260.2,176.3z"/>
	<path d="M239.4,187.6c0.1,0.6,0.5,1.4,0.3,1.8c-0.5,0.8-1.3,1.6-2.7,0.9c0.8-0.8,2.6-1,1.6-2.9
		C238.8,187.5,239.1,187.6,239.4,187.6z"/>
	<path d="M177.5,138.2c-0.9,0.7-1.4,1.1-2.2,1.7c-0.2-0.9-0.4-1.5-0.7-2.4C175.6,137.8,176.4,138,177.5,138.2z"/>
	<path d="M167.4,151.4c-0.2,1.5-0.4,1.7-2.2,1.9C165.5,152.1,165.8,151.2,167.4,151.4z"/>
	<path d="M145.8,182.7c1.2-0.5,2.2-0.9,3.2-1.4C148.6,183,148,183.3,145.8,182.7z"/>
	<path d="M183.6,189.3c-0.2,0.4-0.5,0.7-0.7,1.2c0.2,0.3,0.5,0.7,0.8,1.1c-0.2,0.1-0.4,0.3-0.5,0.3c-1.1-0.1-1-1-0.9-1.7
		c0.1-0.5,0.7-0.9,1-1.3C183.4,189,183.5,189.2,183.6,189.3z"/>
	<path d="M168.5,148c1.2,0.1,2.1,0.2,3.1,0.3C170.4,149.9,169.9,149.9,168.5,148z"/>
	<path d="M143.1,179.2c-0.9-2.2-0.8-2.3,1.3-2.6C144,177.5,143.6,178.2,143.1,179.2z"/>
	<path d="M170.7,153.1c0,0.5,0.2,1.1,0,1.5c-0.2,0.4-0.8,0.5-1.2,0.7c-0.1-0.1-0.1-0.2-0.2-0.3c0.3-0.6,0.7-1.3,1-1.9
		C170.4,153.1,170.6,153.1,170.7,153.1z"/>
	<path d="M145,180.3c1,0,1.9,0,2.8,0C147.1,181.3,145.8,181.4,145,180.3z"/>
	<path d="M147.6,176.3c0.6-0.3,1.1-0.6,1.7-0.8c0.1,0.1,0.2,0.2,0.4,0.3c-0.3,0.4-0.5,1-0.9,1.3c-0.2,0.2-0.8-0.2-1.2-0.3
		C147.6,176.6,147.6,176.4,147.6,176.3z"/>
	<g>
		<path d="M59.1,150.8c0.3-0.7,0.7-1.1,1.3-1.5c0.4,0.5,0.6,1.1,0.7,1.7C60.4,151.3,59.8,150.8,59.1,150.8z"/>
		<path d="M65.7,170.5c0.7,0.1,0.8,0.8,1,1.3c0.1,0.4-0.1,0.9-0.4,0.8c-0.7-0.1-0.7-0.9-1-1.4C65.2,170.9,65.3,170.6,65.7,170.5z"/>
		<path d="M60.5,167.6c0.7-0.4,1.4-0.7,2,0c0.2,0.2,0.3,0.7,0,0.8C61.7,168.7,61.2,168.1,60.5,167.6z"/>
		<path d="M52.5,166.4c-0.1-0.4,0.2-0.6,0.4-0.9c0.2-0.4,0.3-0.9,0.8-1c0.1,0,0.3,0.3,0.3,0.4c0,0.5-0.1,1-0.6,1.3
			C53.1,166.4,52.9,166.7,52.5,166.4z"/>
		<path d="M53.7,159.2c0.5,1.3-0.3,1.7-1,2.4C52.3,160.4,53,159.9,53.7,159.2z"/>
		<path d="M58.1,165.4c0.8,0.1,1.3-0.7,1.9-0.2c0.2,0.2,0,0.6-0.3,0.8C59.1,166.5,58.7,166.1,58.1,165.4z"/>
		<path d="M65.1,150.4c-0.4-0.1-0.9-0.4-0.9-0.9c0-0.4,0.3-0.3,0.6-0.3c0.5,0,0.7,0.3,0.8,0.7C65.7,150.2,65.4,150.4,65.1,150.4z"/>
		<path d="M57.5,162.9c-0.4-0.6-0.5-1.1-0.4-1.6C58.1,161.7,58.1,161.7,57.5,162.9z"/>
		<path d="M59.2,154.2c-0.1,0.8-0.5,1.2-1.1,1.4c-0.3,0.1-0.3-0.2-0.3-0.4C58,154.5,58.4,154.2,59.2,154.2z"/>
		<path d="M49,160.3c0.4,0.1,0.5,0.5,0.6,0.9c0.1,0.4-0.2,0.4-0.5,0.3c-0.4-0.1-0.8-0.3-0.7-0.8C48.4,160.4,48.6,160.3,49,160.3z"/>
		<path d="M49.3,163.4c-0.8,0.4-1.3,0.2-1.5-0.5c-0.1-0.2,0-0.5,0.1-0.5C48.6,162.3,48.9,162.9,49.3,163.4z"/>
		<path d="M63.5,161.1c-0.3-0.4-1.1-0.6-0.8-1.3c0.1-0.2,0.3-0.5,0.5-0.3C63.8,159.9,63.5,160.5,63.5,161.1z"/>
		<path d="M63.8,164.1c-0.1,0.3-0.2,0.6-0.6,0.6c-0.3,0-0.6-0.2-0.6-0.5c-0.1-0.4,0.3-0.5,0.5-0.5C63.5,163.6,63.7,163.7,63.8,164.1
			z"/>
		<path d="M62.2,149c-0.4-0.1-0.5-0.4-0.4-0.7c0.1-0.3,0.3-0.5,0.6-0.5c0.2,0,0.5,0.2,0.4,0.5C62.7,148.6,62.5,148.8,62.2,149z"/>
		<path d="M55.4,170.1c-0.8-0.2-1.3-0.2-1.4-0.7c0-0.1,0.2-0.4,0.4-0.4C55,168.9,55.1,169.5,55.4,170.1z"/>
		<path d="M49.5,164.2c0.6,0.8,0.6,0.8,0.6,1.7C49.6,165.3,49.6,165.3,49.5,164.2z"/>
		<path d="M85.3,134.1c0,0.3-0.2,0.5-0.5,0.5c-0.3,0-0.3-0.3-0.3-0.5c0-0.3,0.2-0.5,0.4-0.5C85.2,133.5,85.3,133.8,85.3,134.1z"/>
		<path d="M61.6,152.4c-0.4,0-0.5-0.2-0.5-0.5c0-0.2,0-0.4,0.3-0.4c0.3,0,0.5,0.2,0.6,0.5C62,152.1,61.9,152.3,61.6,152.4z"/>
		<path d="M56.8,153.5c-0.2-0.1-0.4-0.2-0.4-0.5c0-0.3,0.2-0.5,0.5-0.4c0.3,0,0.4,0.2,0.4,0.5C57.2,153.3,57.1,153.5,56.8,153.5z"/>
		<path d="M54.4,154c-0.3,0-0.3-0.2-0.3-0.4c0-0.3,0.1-0.6,0.4-0.7c0.3-0.1,0.4,0.2,0.4,0.5C54.7,153.5,54.7,153.9,54.4,154z"/>
		<path d="M68.5,164c0.2,0.1,0.4,0.3,0.4,0.6c0,0.3-0.1,0.5-0.4,0.4c-0.2,0-0.4-0.2-0.4-0.5C68.1,164.2,68.2,164,68.5,164z"/>
		<path d="M62.3,169.7c0.4,0,0.7,0.2,0.7,0.6c0,0.3-0.1,0.5-0.4,0.4c-0.3-0.1-0.6-0.4-0.7-0.6C61.7,169.7,62.1,169.7,62.3,169.7z"/>
		<path d="M50.1,157.2c-0.3-0.1-0.3-0.3-0.3-0.6c0-0.2,0.1-0.5,0.4-0.5c0.3,0.1,0.2,0.4,0.2,0.6C50.5,157,50.5,157.2,50.1,157.2z"/>
		<path d="M81.2,136.5c0.3,0.1,0.3,0.3,0.3,0.5c0,0.3-0.2,0.4-0.5,0.4c-0.3,0-0.4-0.3-0.3-0.5C80.7,136.6,80.8,136.4,81.2,136.5z"/>
		<path d="M69,173.1c0.3,0.9,0.6,1.3,0.2,1.9C68.6,174.6,68.8,174,69,173.1z"/>
		<path d="M77.8,143.5c0-0.3,0.2-0.4,0.5-0.3c0.2,0,0.4,0.2,0.4,0.3c0,0.3-0.2,0.4-0.5,0.5C78,144,77.8,143.9,77.8,143.5z"/>
		<path d="M77.5,160.6c-0.1,0.1-0.3,0.3-0.4,0.3c-0.2-0.1-0.4-0.3-0.4-0.5c0-0.2,0.2-0.5,0.5-0.4C77.3,160,77.5,160.2,77.5,160.6z"
			/>
		<path d="M61.7,171.3c0,0.4-0.2,0.5-0.5,0.6c-0.2,0.1-0.4,0-0.4-0.3c-0.1-0.4,0.1-0.6,0.5-0.6C61.4,171,61.6,171.2,61.7,171.3z"/>
		<path d="M71.6,172.8c0,0.3-0.2,0.5-0.4,0.6c-0.2,0.1-0.4,0-0.3-0.3c0-0.2,0.1-0.5,0.4-0.6C71.5,172.4,71.6,172.5,71.6,172.8z"/>
		<path d="M61.5,153.6c-0.1,0.1-0.2,0.3-0.4,0.3c-0.3,0.1-0.4-0.2-0.5-0.4c0-0.1,0.2-0.3,0.4-0.3C61.2,153.2,61.4,153.3,61.5,153.6z
			"/>
		<path d="M73.5,157.2c-0.1,0.2-0.2,0.3-0.5,0.2c-0.2-0.1-0.4-0.3-0.2-0.5c0.1-0.2,0.3-0.3,0.5-0.1C73.4,156.9,73.6,157,73.5,157.2z
			"/>
		<path d="M75.2,174.7c0.1,0-0.1,0.1-0.2,0.1c-0.2,0-0.4-0.2-0.4-0.5c0-0.3,0.2-0.4,0.5-0.3C75.3,174,75.3,174.1,75.2,174.7z"/>
		<path d="M88.6,133c-0.1,0.2-0.1,0.5-0.4,0.4c-0.3,0-0.3-0.3-0.3-0.5c0-0.2,0.2-0.4,0.4-0.3C88.4,132.7,88.5,132.9,88.6,133z"/>
		<path d="M78.7,170.1c0.3-0.5,0.5-0.7,0.8,0C79.3,170.3,79,170.4,78.7,170.1z"/>
		<path d="M97.9,180.4c-0.1,0.1-0.3,0.3-0.4,0.2c-0.2,0-0.5-0.2-0.4-0.5c0-0.2,0.2-0.3,0.4-0.3C97.8,179.9,97.9,180,97.9,180.4z"/>
		<path d="M68,152.4c-0.1,0.3-0.2,0.4-0.4,0.3c-0.2-0.1-0.3-0.4-0.2-0.6c0-0.1,0.2-0.2,0.3-0.2C68,152,68.1,152.2,68,152.4z"/>
		<path d="M74.8,151.5c-0.2,0-0.3-0.2-0.3-0.4c0-0.2,0-0.4,0.3-0.4c0.2,0,0.4,0.2,0.4,0.4C75.2,151.3,75,151.4,74.8,151.5z"/>
		<path d="M50.3,159.7c-0.3,0-0.5-0.1-0.5-0.4c0-0.2,0.2-0.4,0.4-0.3c0.2,0,0.3,0.2,0.4,0.3C50.7,159.6,50.5,159.7,50.3,159.7z"/>
	</g>
	<g>
		<path d="M160.8,167.3c0.3-0.7,0.7-1.1,1.3-1.5c0.4,0.5,0.6,1.1,0.7,1.7C162.1,167.8,161.6,167.3,160.8,167.3z"/>
		<path d="M167.5,187c0.7,0.1,0.8,0.8,1,1.3c0.1,0.4-0.1,0.9-0.4,0.8c-0.7-0.1-0.7-0.9-1-1.4C166.9,187.4,167.1,187.1,167.5,187z"/>
		<path d="M162.3,184.1c0.7-0.4,1.4-0.7,2,0c0.2,0.2,0.3,0.7,0,0.8C163.5,185.2,162.9,184.6,162.3,184.1z"/>
		<path d="M154.3,182.9c-0.1-0.4,0.2-0.6,0.4-0.9c0.2-0.4,0.3-0.9,0.8-1c0.1,0,0.3,0.3,0.3,0.4c0,0.5-0.1,1-0.6,1.3
			C154.9,182.9,154.6,183.2,154.3,182.9z"/>
		<path d="M155.5,175.7c0.5,1.3-0.3,1.7-1,2.4C154.1,176.9,154.7,176.4,155.5,175.7z"/>
		<path d="M159.8,181.9c0.8,0.1,1.3-0.7,1.9-0.2c0.2,0.2,0,0.6-0.3,0.8C160.9,183,160.4,182.6,159.8,181.9z"/>
		<path d="M166.9,166.9c-0.4-0.1-0.9-0.4-0.9-0.9c0-0.4,0.3-0.3,0.6-0.3c0.5,0,0.7,0.3,0.8,0.7C167.4,166.8,167.2,166.9,166.9,166.9
			z"/>
		<path d="M159.2,179.4c-0.4-0.6-0.5-1.1-0.4-1.6C159.9,178.2,159.9,178.2,159.2,179.4z"/>
		<path d="M161,170.7c-0.1,0.8-0.5,1.2-1.1,1.4c-0.3,0.1-0.3-0.2-0.3-0.4C159.7,171,160.2,170.7,161,170.7z"/>
		<path d="M150.7,176.8c0.4,0.1,0.5,0.5,0.6,0.9c0.1,0.4-0.2,0.4-0.5,0.3c-0.4-0.1-0.8-0.3-0.7-0.8
			C150.2,176.9,150.4,176.8,150.7,176.8z"/>
		<path d="M151.1,179.9c-0.8,0.4-1.3,0.2-1.5-0.5c-0.1-0.2,0-0.5,0.1-0.5C150.4,178.8,150.6,179.4,151.1,179.9z"/>
		<path d="M165.2,177.6c-0.3-0.4-1.1-0.6-0.8-1.3c0.1-0.2,0.3-0.5,0.5-0.3C165.5,176.4,165.3,177,165.2,177.6z"/>
		<path d="M165.6,180.6c-0.1,0.3-0.2,0.6-0.6,0.6c-0.3,0-0.6-0.2-0.6-0.5c-0.1-0.4,0.3-0.5,0.5-0.5
			C165.2,180.1,165.5,180.2,165.6,180.6z"/>
		<path d="M163.9,165.5c-0.4-0.1-0.5-0.4-0.4-0.7c0.1-0.3,0.3-0.5,0.6-0.5c0.2,0,0.5,0.2,0.4,0.5
			C164.5,165.1,164.2,165.3,163.9,165.5z"/>
		<path d="M157.2,186.6c-0.8-0.2-1.3-0.2-1.4-0.7c0-0.1,0.2-0.4,0.4-0.4C156.8,185.4,156.8,186,157.2,186.6z"/>
		<path d="M151.3,180.7c0.6,0.8,0.6,0.8,0.6,1.7C151.4,181.8,151.4,181.8,151.3,180.7z"/>
		<path d="M187,150.6c0,0.3-0.2,0.5-0.5,0.5c-0.3,0-0.3-0.3-0.3-0.5c0-0.3,0.2-0.5,0.4-0.5C186.9,150,187,150.3,187,150.6z"/>
		<path d="M163.4,168.9c-0.4,0-0.5-0.2-0.5-0.5c0-0.2,0-0.4,0.3-0.4c0.3,0,0.5,0.2,0.6,0.5C163.8,168.6,163.7,168.8,163.4,168.9z"/>
		<path d="M158.6,170c-0.2-0.1-0.4-0.2-0.4-0.5c0-0.3,0.2-0.4,0.5-0.4c0.3,0,0.4,0.2,0.4,0.5C159,169.8,158.9,170,158.6,170z"/>
		<path d="M156.1,170.5c-0.3,0-0.3-0.2-0.3-0.4c0-0.3,0.1-0.6,0.4-0.7c0.3-0.1,0.4,0.2,0.4,0.5C156.4,170.1,156.5,170.4,156.1,170.5
			z"/>
		<path d="M170.3,180.5c0.2,0.1,0.4,0.3,0.4,0.6c0,0.3-0.1,0.5-0.4,0.4c-0.2,0-0.4-0.2-0.4-0.5C169.9,180.7,170,180.5,170.3,180.5z"
			/>
		<path d="M164.1,186.2c0.4,0,0.7,0.2,0.7,0.6c0,0.3-0.1,0.5-0.4,0.4c-0.3-0.1-0.6-0.4-0.7-0.6C163.5,186.2,163.9,186.2,164.1,186.2
			z"/>
		<path d="M151.9,173.7c-0.3-0.1-0.3-0.3-0.3-0.6c0-0.2,0.1-0.5,0.4-0.5c0.3,0.1,0.2,0.4,0.2,0.6
			C152.3,173.5,152.2,173.7,151.9,173.7z"/>
		<path d="M182.9,153c0.3,0.1,0.3,0.3,0.3,0.5c0,0.3-0.2,0.4-0.5,0.4c-0.3,0-0.4-0.3-0.3-0.5C182.4,153.1,182.6,152.9,182.9,153z"/>
		<path d="M170.7,189.6c0.3,0.9,0.6,1.3,0.2,1.9C170.4,191.1,170.6,190.5,170.7,189.6z"/>
		<path d="M179.6,160c0-0.3,0.2-0.4,0.5-0.3c0.2,0,0.4,0.2,0.4,0.3c0,0.3-0.2,0.4-0.5,0.5C179.8,160.5,179.6,160.4,179.6,160z"/>
		<path d="M179.2,177.1c-0.1,0.1-0.3,0.3-0.4,0.3c-0.2-0.1-0.4-0.3-0.4-0.5c0-0.2,0.2-0.5,0.5-0.4
			C179.1,176.5,179.3,176.7,179.2,177.1z"/>
		<path d="M163.5,187.8c0,0.4-0.2,0.5-0.5,0.6c-0.2,0.1-0.4,0-0.4-0.3c-0.1-0.4,0.1-0.6,0.5-0.6
			C163.2,187.5,163.3,187.7,163.5,187.8z"/>
		<path d="M173.4,189.3c0,0.3-0.2,0.5-0.4,0.6c-0.2,0.1-0.4,0-0.3-0.3c0-0.2,0.1-0.5,0.4-0.6C173.2,188.9,173.4,189.1,173.4,189.3z"
			/>
		<path d="M163.3,170.1c-0.1,0.1-0.2,0.3-0.4,0.3c-0.3,0.1-0.4-0.2-0.5-0.4c0-0.1,0.2-0.3,0.4-0.3
			C163,169.7,163.2,169.8,163.3,170.1z"/>
		<path d="M175.3,173.7c-0.1,0.2-0.2,0.3-0.5,0.2c-0.2-0.1-0.4-0.3-0.2-0.5c0.1-0.2,0.3-0.3,0.5-0.1
			C175.2,173.4,175.4,173.5,175.3,173.7z"/>
		<path d="M176.9,191.2c0.1,0-0.1,0.1-0.2,0.1c-0.2,0-0.4-0.2-0.4-0.5c0-0.3,0.2-0.4,0.5-0.3C177,190.5,177.1,190.6,176.9,191.2z"/>
		<path d="M190.3,149.5c-0.1,0.2-0.1,0.5-0.4,0.4c-0.3,0-0.3-0.3-0.3-0.5c0-0.2,0.2-0.4,0.4-0.3
			C190.2,149.2,190.3,149.4,190.3,149.5z"/>
		<path d="M180.5,186.6c0.3-0.5,0.5-0.7,0.8,0C181,186.8,180.8,187,180.5,186.6z"/>
		<path d="M199.7,196.9c-0.1,0.1-0.3,0.3-0.4,0.2c-0.2,0-0.5-0.2-0.4-0.5c0-0.2,0.2-0.3,0.4-0.3
			C199.5,196.4,199.7,196.5,199.7,196.9z"/>
		<path d="M169.8,168.9c-0.1,0.3-0.2,0.4-0.4,0.3c-0.2-0.1-0.3-0.4-0.2-0.6c0-0.1,0.2-0.2,0.3-0.2
			C169.7,168.5,169.8,168.7,169.8,168.9z"/>
		<path d="M176.5,168c-0.2,0-0.3-0.2-0.3-0.4c0-0.2,0-0.4,0.3-0.4c0.2,0,0.4,0.2,0.4,0.4C177,167.8,176.8,167.9,176.5,168z"/>
		<path d="M152.1,176.2c-0.3,0-0.5-0.1-0.5-0.4c0-0.2,0.2-0.4,0.4-0.3c0.2,0,0.3,0.2,0.4,0.3C152.5,176.1,152.3,176.2,152.1,176.2z"
			/>
	</g>
	<g>
		<g>
			<defs>
				
					<rect id="SVGID_17_" x="49.2" y="86.3" transform="matrix(0.2759 -0.9612 0.9612 0.2759 -74.6888 203.8183)" width="97.6" height="130.3"/>
			</defs>
			<clipPath id="SVGID_18_">
				<use xlink:href="#SVGID_17_"  style="overflow:visible;"/>
			</clipPath>
			<g class="st17">
				<g>
					<defs>
						
							<rect id="SVGID_19_" x="49.2" y="86.3" transform="matrix(0.2759 -0.9612 0.9612 0.2759 -74.6888 203.8183)" width="97.6" height="130.3"/>
					</defs>
					<clipPath id="SVGID_20_">
						<use xlink:href="#SVGID_19_"  style="overflow:visible;"/>
					</clipPath>
					<g class="st18">
						<g>
							<defs>
								
									<rect id="SVGID_21_" x="49.2" y="86.3" transform="matrix(0.2759 -0.9612 0.9612 0.2759 -74.6888 203.8183)" width="97.6" height="130.3"/>
							</defs>
							<clipPath id="SVGID_22_">
								<use xlink:href="#SVGID_21_"  style="overflow:visible;"/>
							</clipPath>
							<path class="st19" d="M143.9,135.7c-0.6-1.9-2.1-2.2-3.7-2.4c-1.6-0.1-3.1,0-3.5-0.4c-1.6-1.2-5.4,1.2-9.4,3.3
								c-3.9,2.1-7.9,4-7.8,3c0.5-2.7-1-15.8-2.2-16.5c-3.2-1.8-6.9,0.2-10.6,4.3c-1.8,1.7-2.3,3.1-2.8,2.6
								c-0.3-0.1-1.9,4.8-4.4,7.2c-1.7,1.5-3.3,0.6-4.9,2.3c-2.9,2.5-11.2,3.8-14.2,4.7c-5.8,1.8-8.5,1.6-11.8-1.3
								c-2.4-2.6-5.2-2.1-7.7-3.8c-2.7-1.6-5-1.9-7.4-3.8c-1.9-2.6-3.6-4.6-5.5-6.4c-0.3-0.1-0.7-0.2-1.1-0.1
								c-0.5,0.2-0.8-0.5-1.1-0.7c-0.9-2.5,0-6-1-7.7c-0.3-0.5-1.4-0.8-2.1,0c-3.8,3.9-6.2,8.8-7.2,14c-0.3,1.2-0.3,2.4-0.1,3.4
								c0.1,1.1,0.4,2.1,0.8,3c0.4,1,0.8,1.8,1.3,2.6c0.5,0.9,1.1,1.7,1.6,2.5c1.5,2.3,2.3,5.3,2.6,8.9c0.3,3.6,0.3,7.6,0.1,11.4
								c-0.5,5.8-2.1,14.5,2.3,16c2.6,0.6,5.3,0.3,7.6,0.2c2.3-0.1,4.5,0.2,6.4,2.1c2.5,2.9,4.6,5.5,7.6,7.2c0.4,0.5,2,1.8,2.6,2.1
								c3.9,0.2,7.8,3,11.6-1.6c4.5-1,6.2,1.4,10.2-1.8c5.1-4.2,10.2-9.2,15.2-10.2c2.9-0.7,5.4-0.7,8,0.1c0.9,0.2,3.8,5,4.8,6.5
								c1.8,2.8,5.3,0.6,7.6-1.8c3.7-4.6,7.3-7.9,11.4-11.1c1.5-0.7,2.9,0.2,4.6-0.4c4-2.2,6.4-6.7,9.5-10.1c3-2.4,4.9-4.6,6.3-6.3
								c1.3-1.7,2-2.9,2.4-3.8c0.8-1.7,0.3-1.9,0.6-1.9c1.1-1,2.6,0.8,4.2-0.2c2-1.7,3.2-4.9,3.4-7.4c0.6-3.5,0.9-7.2,1.6-10.4
								c0.7-3.2,1.6-5.9,3.6-8.4c-0.5,0.1-1.1,0-1.3,0.3c-2.8,3.3-5.9,5-8.7,6.5c-2.8,1.5-5.3,2.6-7.6,5.2c-0.3,0.8-0.7,1.9-1.2,2.5
								c-1.1,0.9-2,2-2.9,3c-0.9,0.7-2.5,0-4-1.4C145.6,139.4,144.4,137.4,143.9,135.7"/>
							<g class="st20">
								<g>
									<defs>
										
											<rect id="SVGID_23_" x="51.9" y="109.4" transform="matrix(0.2759 -0.9612 0.9612 0.2759 -88.1567 167.7202)" width="30.8" height="66"/>
									</defs>
									<clipPath id="SVGID_24_">
										<use xlink:href="#SVGID_23_"  style="overflow:visible;"/>
									</clipPath>
									<path class="st21" d="M39,145.7c-1.1-1.7-2.2-3.2-3-5.1c-0.8-1.8-1.1-4-0.7-6.4c1-5.2,3.4-10.1,7.2-14
										c0.8-0.8,1.9-0.5,2.1,0c1.1,1.7,0.2,5.2,1.1,7.7c0.3,0.2,0.7,0.9,1.1,0.7c0.4-0.2,0.8-0.1,1.1,0c1.9,1.9,3.6,3.8,5.5,6.4
										c2.4,1.9,4.6,2.2,7.4,3.8c2.6,1.7,5.4,1.2,7.7,3.8c3.3,2.9,6.1,3.1,11.8,1.2c3-0.9,11.2-2.2,14.2-4.7
										c1.6-1.7,3.2-0.8,4.9-2.3c0,0,0.5,2.2,2,6c-9.3,6.2-19.1,11.8-29.2,16.7c-5.7-1.3-11.2-2.7-16.8-4.6
										C49.8,152.9,44.2,150.3,39,145.7"/>
								</g>
							</g>
							<path class="st22" d="M98.6,141.7c0,0,3.2-2.2,5.9-3.1c2.7-0.9,5.1-0.5,3.6,5c0,0-3.3,6.8-7.6,13.4
								c-4.3,6.7-9.7,13.2-13.1,13c0,0-4.8-0.3-7.4-0.2c0,0-0.8-1.3-2.3-2.5c-1.5-1.1-3.7-2.1-6.5-1.3c0,0-5.4,0.5-10.8,0.1
								c-2.7-0.2-5.4-0.5-7.5-1.2c-2.1-0.7-3.6-1.7-3.6-2.8c0,0-1.9-1.4-3.9-3.4c-2-2.1-4-4.8-4.3-6.9c0,0,0-0.6,0-1.5
								c0-0.9,0-2.1-0.1-3.4c-0.2-2.6-0.7-5.2-2.3-6.5c0,0-0.3-1-0.5-2.5c-0.2-1.5-0.4-3.4-0.3-5.1c0.3-3.6,1.3-6.2,3-4.2
								c0,0,0.2,0.1,0.4,0.2c0.3,0.1,0.6,0.3,1.1,0.5c0.8,0.4,1.8,0.8,2.4,1.2c0,0,0.7,1.2,2,2.8c1.3,1.6,3.3,3.7,5.5,5.6
								c4.5,3.9,9.8,7.1,10.1,8.5c0,0,1.3,1.1,3.5,2.4c2.2,1.3,5.4,2.7,9.1,3.4C82.5,154.9,91.9,152.9,98.6,141.7"/>
							<path class="st23" d="M99.6,138.7c0,0,2.3-2.9,4.9-4.7c2.5-1.8,5.3-2.5,6.4,2.1c0,0,2.3,2.8,4.2,6.3
								c1.9,3.5,3.4,7.9,1.2,11.2c0,0-4.3,6.7-10.5,13.2c-6.2,6.6-14.5,12.9-21.2,12.6c0,0-1.4-0.2-4.9,3.5c0,0-2,0.8-4.2,0.8
								c-2.2,0-4.7-0.9-5.5-4c0,0-1.7-2.4-3.8-4.8c-2.1-2.4-4.7-4.8-6.7-4.6c0,0-0.4-1.3-1.1-2.5c-0.7-1.2-1.8-2.2-3.1-1.5
								c0,0,5.7-0.5,11.5-0.7c5.8-0.1,11.7,0.1,12.3,2.9c0,0,1.9,2.1,5.6,1.8c3.7-0.3,9.2-3,15.7-12.6c0,0,1.4-3.7,1.9-7.9
								C102.8,145.6,102.6,140.9,99.6,138.7"/>
							<path class="st24" d="M108.1,124c1.5-1.9,3.1-4.3,4.6-5.8c0.8-0.6,1.8-0.3,2.6-0.6c1.1-0.3,2,0.9,2.7,1.7
								c1.3,2.4,3.3,3.6,5.1,4.9c1.8,1.3,3.5,2.7,4.6,5.6c0.4,0.6,0.7,1,1.2,1c0.1-0.3,0.7-0.7,0.8-1c1.4-0.4,2.7-0.2,3.9-1
								c1.9-1.5,3.7,0.4,5.7,2.4c1.1,1,2.4,1.3,3.6,1.8c2.1,0.9,3.7,6.8,6,6.4c1.9-0.2,3.3-1.9,4.5-3.7c1.2-1.8,2.2-3.6,3.9-4.6
								c2.2-0.9,3.8-2.3,6.3-3.3c2.1-0.5,3.9-2,5.9-3.5c0.5-0.3,2.6-0.9,2.9-0.7c0.4,0.5-0.4,1.7-0.5,2.7c-0.3,2.7-2.9,2.4-4.4,3
								c-1.7,0.9-2.4,3.2-3.9,4.7c-0.7,0.5-1.5,0.6-2.4,0.5c-1.4-0.2-1.9,1.7-2.8,3.3c-0.9,2.2-3.3,1.8-4.7,3.2
								c-1.9,1.6-2.8,5.9-5,5.8c0.9,0.2-0.7,1.3-2.5,2.1c-1.7,0.8-3.5,1.1-2.7,0.3c-0.1,0.3-0.8-0.6-1-1.4c0-0.5-0.2-1.3-0.1-1.6
								c0.9-2.4,0.3-5.5,0.3-8.2c-0.1-0.2-3.9,1-5.5-0.9c-1.2-1.6-2.1-3.5-3.5-3.5c-0.3,0.3-0.5,1.6-0.9,1.9
								c-0.4,0.1-3.1,3.4-6.4,6.3c-3.2,2.9-6.9,5.5-7.5,5.1c-0.7-0.7-1.5-2.6-1.1-4c0.7-3.9-0.5-5.6-0.5-8.8c0-0.9,0.5-1.9,0.5-2.8
								c-0.1-2.3-0.5-5-1.3-5.6c-1.3-1.5-3.1-2-4.5-1.3C111,124.4,109.5,124.2,108.1,124"/>
							<path class="st25" d="M47.8,182.3c0,0,0.5-0.2,1.4-0.3c0.9-0.1,2-0.2,3.3-0.1c2.6,0.3,5.7,1.6,8.1,5.6c0,0,1.2,1.2,2.5,2.3
								c1.3,1.1,2.9,2.2,3.5,2.2l1.5,1.6c0,0,2.2,0.7,4.7,0.9c2.5,0.1,5.3-0.3,6.7-2.4c0,0,1.2-0.2,2.4-0.4c1.2-0.1,2.5-0.2,2.8,0.3
								c0,0,0.8,0.3,2.4-0.2c1.5-0.5,3.8-1.8,6.5-4.8"/>
							<path class="st26" d="M135.3,125.9c0.5,0.2,1.8,1,3.1,1.9c1.4,0.9,2.9,1.8,3.6,2.7c2.2,2.5,4.7,4.6,7.9,6.4
								c0.3,0.1,0.6-0.1,0.7-0.5c0.6-2.8,2.5-2.9,3.1-4.8c0.3-0.8,0.3-1.9,0.8-2.3c2.7-2.1,6.1-2.8,10.3-4.5c1.8-0.7,4-1.1,6.1-2.3
								c0.5-0.1,1.2-0.5,1.7-0.3c0.4,0.1-0.1,0.9-0.2,1.4c-0.5,0.4-1.2,0.6-1.8,1.2c-1.3,0.9-2,2.3-3.4,2.8
								c-1.3,0.6-2.6,0.7-3.8,1.3c-0.8,0.4-1.3,0.9-1.9,1.5c-2.3,1.8-4.4,3.5-6.4,5.7c-0.1,2.3-1.9,2.4-3,3.1
								c-0.3,0.2-0.8,0-1.2,0.1c-1,0.5-1.8,2-2.8,1.1c-2.1-2.1-3.8-4.1-5.5-5.7c-0.7-0.6-2.4-1.6-4-2.7c-1.6-1-3.1-2-3.7-2.2
								c-1.6-0.8-3.3,0.9-5,0.5C130,130.2,131.7,125.1,135.3,125.9"/>
						</g>
					</g>
				</g>
			</g>
		</g>
	</g>
	<g>
		<g>
			<defs>
				
					<rect id="SVGID_25_" x="139.1" y="140.3" transform="matrix(0.989 -0.1481 0.1481 0.989 -23.6641 32.4971)" width="134.6" height="69.8"/>
			</defs>
			<clipPath id="SVGID_26_">
				<use xlink:href="#SVGID_25_"  style="overflow:visible;"/>
			</clipPath>
			<g class="st27">
				<g>
					<defs>
						
							<rect id="SVGID_27_" x="139.1" y="140.3" transform="matrix(0.989 -0.1481 0.1481 0.989 -23.6641 32.4971)" width="134.6" height="69.8"/>
					</defs>
					<clipPath id="SVGID_28_">
						<use xlink:href="#SVGID_27_"  style="overflow:visible;"/>
					</clipPath>
					<g class="st28">
						<g>
							<defs>
								
									<rect id="SVGID_29_" x="139.1" y="140.3" transform="matrix(0.989 -0.1481 0.1481 0.989 -23.6641 32.4971)" width="134.6" height="69.8"/>
							</defs>
							<clipPath id="SVGID_30_">
								<use xlink:href="#SVGID_29_"  style="overflow:visible;"/>
							</clipPath>
							<path class="st29" d="M162.8,161.6c0.9-1.3,2.6-1.5,4.2-1.5c1.6,0,3.2,0.1,3.6-0.1c1.9-0.8,5.2,1.2,8.9,2.8
								c3.6,1.7,7.3,3.2,7.3,2.5c0-2,3.8-11.4,5.2-11.8c3.6-1.1,7,0.5,10,3.6c1.5,1.3,1.7,2.3,2.4,2c0.3-0.1,1.1,3.6,3.1,5.4
								c1.4,1.1,3.2,0.6,4.5,1.9c2.5,1.9,10.6,3.3,13.5,4.1c5.5,1.6,8.3,1.6,12.2-0.3c2.9-1.8,5.6-1.2,8.5-2.4
								c3.1-1,5.4-1.1,8.1-2.4c2.4-1.8,4.4-3.1,6.7-4.4c0.4-0.1,0.7-0.1,1.1,0c0.4,0.2,0.9-0.3,1.3-0.4c1.3-1.8,1-4.3,2.4-5.5
								c0.4-0.3,1.5-0.5,2.2,0.1c3.1,3,4.7,6.6,4.7,10.5c0,0.9-0.2,1.7-0.5,2.5c-0.3,0.8-0.8,1.5-1.3,2.1c-0.5,0.7-1.2,1.3-1.8,1.8
								c-0.7,0.6-1.4,1.1-2.1,1.7c-2,1.6-3.2,3.7-4.2,6.3c-1,2.6-1.6,5.4-2.2,8.2c-0.5,4.2-0.5,10.6-5.2,11.4
								c-2.7,0.3-5.4-0.1-7.7-0.3c-2.3-0.2-4.6-0.1-6.9,1.2c-3.1,2-5.6,3.7-9,4.8c-0.4,0.3-2.3,1.2-3,1.4c-4,0-8.5,1.8-11.4-1.7
								c-4.4-0.9-6.5,0.7-10-1.8c-4.4-3.3-8.7-7.1-13.5-8.1c-2.8-0.7-5.3-0.8-8.1-0.3c-1,0.1-4.8,3.4-6.1,4.5
								c-2.3,1.9-5.4,0.2-7.3-1.7c-2.9-3.5-5.9-6-9.5-8.5c-1.4-0.6-3,0-4.6-0.5c-3.6-1.8-5.3-5.2-7.8-7.8c-2.6-1.9-4.2-3.6-5.2-4.8
								c-1-1.3-1.5-2.2-1.7-2.8c-0.5-1.3,0-1.4-0.2-1.4c-0.9-0.8-2.7,0.4-4.2-0.4c-1.8-1.3-2.3-3.7-2.1-5.5c0.1-2.6,0.4-5.3,0.3-7.6
								c-0.1-2.4-0.5-4.4-2.1-6.2c0.5,0.1,1.2,0,1.3,0.3c2.2,2.5,5.1,3.9,7.7,5.1c2.6,1.2,4.9,2.2,6.7,4.1c0.2,0.6,0.3,1.4,0.8,1.9
								c0.9,0.7,1.6,1.5,2.4,2.3c0.7,0.6,2.6,0.1,4.3-0.8C160.4,164.2,162,162.7,162.8,161.6"/>
							<g class="st30">
								<g>
									<defs>
										
											<rect id="SVGID_31_" x="205" y="159.1" transform="matrix(0.989 -0.1481 0.1481 0.989 -22.5481 37.2815)" width="68.2" height="22"/>
									</defs>
									<clipPath id="SVGID_32_">
										<use xlink:href="#SVGID_31_"  style="overflow:visible;"/>
									</clipPath>
									<path class="st31" d="M267.1,173.8c1.4-1.1,2.8-2.2,3.9-3.5c1.1-1.3,1.9-2.8,1.8-4.6c-0.1-3.8-1.6-7.4-4.7-10.5
										c-0.6-0.6-1.8-0.5-2.1-0.1c-1.4,1.2-1.1,3.7-2.4,5.5c-0.3,0.1-0.8,0.6-1.3,0.4c-0.4-0.2-0.8-0.1-1.1,0
										c-2.3,1.2-4.3,2.6-6.7,4.4c-2.8,1.3-5.1,1.4-8.1,2.4c-2.9,1.1-5.7,0.6-8.5,2.4c-3.9,1.9-6.7,1.9-12.2,0.3
										c-2.9-0.8-11-2.1-13.5-4.1c-1.3-1.3-3.1-0.8-4.5-1.9c0,0-0.9,1.6-3.1,4.3c8.3,5,17.2,9.5,26.5,13.5
										c6-0.6,11.8-1.4,17.8-2.5C254.8,178.5,261,176.9,267.1,173.8"/>
								</g>
							</g>
							<path class="st32" d="M207.5,168.1c0,0-2.8-1.7-5.4-2.6c-2.6-0.8-5-0.6-4.6,3.5c0,0,2.1,5.1,5.3,10.1c3.2,5,7.4,10,10.9,10
								c0,0,4.9,0,7.5,0.2c0,0,1.1-0.9,2.8-1.7c1.7-0.7,4.1-1.3,6.8-0.6c0,0,5.3,0.6,10.9,0.6c2.8,0,5.5-0.1,7.8-0.5
								c2.3-0.4,3.9-1,4.2-1.8c0,0,2.2-0.9,4.6-2.3c2.4-1.4,4.9-3.3,5.6-4.8c0,0,0.1-0.4,0.2-1.1c0.2-0.6,0.4-1.5,0.7-2.4
								c0.7-1.8,1.7-3.8,3.5-4.6c0,0,0.5-0.7,0.9-1.8c0.5-1,1-2.4,1.2-3.7c0.4-2.6-0.2-4.5-2.3-3.1c0,0-0.2,0.1-0.5,0.2
								c-0.3,0.1-0.7,0.2-1.2,0.3c-0.9,0.3-2,0.5-2.7,0.7c0,0-0.9,0.8-2.5,1.9c-1.6,1.1-4,2.5-6.6,3.8c-5.2,2.6-11.2,4.7-11.7,5.7
								c0,0-1.5,0.7-4,1.6c-2.5,0.8-6,1.7-9.8,2C221.4,178.4,212.2,176.5,207.5,168.1"/>
							<path class="st33" d="M207.1,165.9c0,0-1.8-2.2-4.1-3.6c-2.2-1.4-4.9-2.1-6.8,1.2c0,0-2.9,1.9-5.4,4.4
								c-2.5,2.5-4.8,5.5-3.2,8.1c0,0,3.1,5,8.2,10.1c5.1,5.1,12.3,10,19.1,10.2c0,0,1.4-0.1,4.4,2.8c0,0,1.9,0.7,4.2,0.7
								c2.3,0.1,4.9-0.4,6.3-2.7c0,0,2.1-1.6,4.7-3.3c2.6-1.6,5.6-3.2,7.6-3c0,0,0.7-0.9,1.6-1.8c1-0.8,2.2-1.5,3.4-1
								c0,0-5.7-0.6-11.5-1.1c-5.8-0.4-11.8-0.5-13,1.5c0,0-2.3,1.4-6,1c-3.7-0.4-8.8-2.6-13.6-9.8c0,0-0.7-2.7-0.5-5.8
								C202.5,170.7,203.6,167.3,207.1,165.9"/>
							<path class="st34" d="M201.1,154.8c-1.2-1.4-2.4-3.2-3.6-4.4c-0.7-0.5-1.7-0.3-2.5-0.6c-1.1-0.2-2.2,0.5-3,1.1
								c-1.8,1.7-4,2.5-6.1,3.3c-2.1,0.9-4.1,1.8-5.7,3.8c-0.5,0.4-0.9,0.7-1.4,0.7c-0.1-0.2-0.5-0.6-0.6-0.8
								c-1.3-0.3-2.7-0.3-3.7-0.9c-1.7-1.2-3.8,0.1-6.2,1.4c-1.3,0.6-2.7,0.8-4,1.2c-2.3,0.5-4.9,4.7-7.2,4.3
								c-1.9-0.2-3-1.5-3.9-2.9c-0.9-1.4-1.6-2.7-3.1-3.5c-2-0.8-3.4-1.8-5.8-2.7c-2-0.5-3.5-1.6-5.4-2.8c-0.4-0.3-2.4-0.8-2.8-0.6
								c-0.5,0.3,0.1,1.3,0,1.9c-0.2,2,2.5,1.9,3.9,2.3c1.6,0.7,1.9,2.4,3.1,3.6c0.6,0.4,1.4,0.5,2.4,0.5c1.5-0.1,1.6,1.3,2.2,2.5
								c0.5,1.7,3,1.5,4.1,2.5c1.6,1.3,1.8,4.4,4,4.4c-1,0.1,0.5,1,2.1,1.6c1.6,0.6,3.4,0.9,2.7,0.4c0.1,0.2,0.9-0.4,1.2-1
								c0.1-0.4,0.5-0.9,0.4-1.1c-0.5-1.8,0.6-4,1.1-5.9c0.2-0.1,3.8,0.9,5.7-0.4c1.5-1.1,2.8-2.4,4.1-2.4c0.3,0.2,0.2,1.2,0.6,1.4
								c0.4,0.1,2.6,2.6,5.4,4.8c2.7,2.3,6,4.3,6.7,4c0.9-0.5,2-1.8,1.8-2.8c0-2.8,1.5-4,2.1-6.3c0.1-0.6-0.2-1.4,0-2
								c0.5-1.7,1.4-3.6,2.3-4c1.6-1,3.5-1.3,4.8-0.7C198.1,155,199.6,154.9,201.1,154.8"/>
							<path class="st35" d="M251.6,199.9c0,0-0.5-0.1-1.4-0.3c-0.9-0.1-2-0.3-3.4-0.2c-2.7,0.1-6,0.9-9.2,3.7c0,0-1.4,0.8-2.9,1.5
								c-1.6,0.7-3.3,1.5-4,1.4l-1.8,1.1c0,0-2.3,0.4-4.9,0.4c-2.6,0-5.4-0.5-6.3-2.1c0,0-1.1-0.2-2.4-0.4c-1.2-0.2-2.5-0.2-2.8,0.1
								c0,0-0.9,0.1-2.3-0.3c-1.5-0.4-3.5-1.5-5.7-3.8"/>
							<path class="st36" d="M173.2,154.9c-0.5,0.1-2,0.7-3.5,1.2c-1.6,0.6-3.3,1.2-4.2,1.8c-2.7,1.7-5.6,3.1-9.1,4.2
								c-0.3,0-0.6-0.1-0.6-0.4c-0.1-2-2-2.2-2.3-3.6c-0.1-0.6,0.1-1.4-0.4-1.7c-2.4-1.6-5.7-2.3-9.7-3.7c-1.7-0.6-3.9-1-5.8-1.9
								c-0.5-0.1-1.1-0.4-1.6-0.3c-0.4,0,0,0.6-0.1,1c0.4,0.3,1.1,0.5,1.6,0.9c1.1,0.7,1.6,1.8,2.9,2.2c1.2,0.5,2.5,0.6,3.6,1.1
								c0.7,0.3,1.2,0.7,1.7,1.2c2,1.4,3.8,2.8,5.4,4.4c-0.4,1.7,1.5,1.8,2.4,2.4c0.3,0.1,0.8,0.1,1.2,0.1c0.9,0.4,1.4,1.5,2.6,0.9
								c2.4-1.4,4.6-2.7,6.6-3.8c0.8-0.4,2.7-1.1,4.5-1.7c1.8-0.6,3.5-1.3,4.2-1.4c1.8-0.5,3.2,0.8,5,0.6
								C177.8,158.2,177,154.5,173.2,154.9"/>
						</g>
					</g>
				</g>
			</g>
		</g>
	</g>
</g>
</svg>
