<svg xmlns="http://www.w3.org/2000/svg" viewBox="0 0 150 150"><defs><style>.a{fill:#e2dfde;}.b{fill:#c1bcb9;}.c{fill:#bfb8b5;}.d{fill:#c7c2bf;}.e{fill:#d5d1cf;}.f{fill:#edeceb;}.g{fill:#d2cdcb;}.h{fill:#f8f8f7;}.i{fill:#dad9d8;}.j{fill:#c0bcbb;}.k{fill:#a49f9b;}.l{fill:#a29d99;}.m{fill:#aaa4a0;}.n{fill:#b6b1af;}.o{fill:#b1aeac;}.p{fill:#9a9895;}.q{fill:#918a89;}.r{fill:#aeaaa8;}.s{fill:#989391;}.t{fill:#918a88;}.u{fill:#8d8885;}.v{fill:#b8b5b4;}.w{fill:#a09e9b;}.x{fill:#8d8984;}.y{fill:#999491;}.z{fill:#97918f;}.aa{fill:#c9c7c6;}.ab{fill:#b1adab;}.ac{fill:#968f8b;}.ad{fill:#9e9794;}.ae{fill:#a6a2a0;}.af{fill:#a59f9d;}.ag{fill:#e8e7e7;}.ah{fill:#cdcac7;}.ai{fill:#938d89;}.aj{fill:#c5c3c2;}.ak{fill:#aea9a7;}.al{fill:#f6f6f5;}</style></defs><title>icon</title><path class="a" d="M87.37,100.42c0,.09-.09.18-.13.28a4.87,4.87,0,0,0,.87-.19l-.74-.09M26.18,96.36a2.44,2.44,0,0,1,.1.24h.1l.33,0h.06a4.41,4.41,0,0,1-.59-.26m54.16-2.49c0,.58,0,1.19,0,1.82a4.69,4.69,0,0,0,.22.44,1.64,1.64,0,0,1,0-.23c-.06-.62-.1-1.26-.12-1.9l-.11-.13m8.14-.54a14.56,14.56,0,0,0-.43,1.82c.25-.59.51-1.18.76-1.76l-.33-.06M72.7,87.79l-.28,0c-.54.07-1,.21-1.57.25a14.07,14.07,0,0,1-.68,1.59l-.3.59v.14l0,.17a3.41,3.41,0,0,1-.24.63A3.1,3.1,0,0,1,67.7,93h0c-.16,0-.55-.33-.91-.79a15.53,15.53,0,0,1-1.15-2.24c-.24-.6-.42-.83-.59-.83s-.47.55-.8,1.12a5.84,5.84,0,0,1-.69,1.26c-.13.18-.27.36-.42.53s-.09.17-.27.23l-.48.18a23,23,0,0,1-4,1c-1,0-1.69-.83-2.72-1h-.27c-2.39,0-4.36,1.23-6.54,1.63-7.53.07-7.34,1.27-7.5,1.27s0,0-.06,0c-.8-.09-.92-1.5-1.89-1.91a3.32,3.32,0,0,0-.88-.11,5.19,5.19,0,0,0-2.88,1C33.52,95.63,31.12,97,28.75,97h-.38c.48.47.83,1.21,1.27,1.64,1,.79,2.42.63,3.73,1a4.65,4.65,0,0,1,1.35,1.19,1.38,1.38,0,0,0,1.22.54,15.49,15.49,0,0,0,1.59-.18,2.18,2.18,0,0,1,.43-.05c1.19,0,2.27,1.06,3.48,1.16a3.4,3.4,0,0,0,.45,0,7.19,7.19,0,0,0,1.73-.28,6.45,6.45,0,0,1,1.61-.29,1.93,1.93,0,0,1,1.16.35c-.25-.2-.14-.28.18-.28,1.15,0,4.92,1,4,1.12.15.05.38.6.39,1s-.07.67-.22.77c-1.13.75-1.33,2.34-1.89,3.56.07.16,3.54,1,4.67,2.32.84,1.11,1.52,2.32,2.78,2.74.35,0,.64-.63,1-.65h0a3.16,3.16,0,0,0,.58-.09l.55-.13.33-.08.18,0,.26,0c1.47-.17,3.24-.38,4.94-.63,3.07-.42,5.76-.92,7.11-.92l.45,0a1,1,0,0,1,.27-.21,2,2,0,0,1,.5-.06c.64,0,1.35.26,1.39.91.45,2.09,2,1.77,3.15,2.8.26.32.13,1.11.38,1.44a3.48,3.48,0,0,0,2.13.8,2.4,2.4,0,0,0,1.32-.38,16.43,16.43,0,0,0,5.77-4.45l.65-.56.54-.45.69-.56.42-.35a1.07,1.07,0,0,0,.07-.19,12.1,12.1,0,0,0,.52-2.23c.31-1.44,0-2,.57-2.22.18-.11-.87-2.28-.52-4.22,0,0-.34-.08-.89-.17a14.31,14.31,0,0,1-.8,3.59,5.54,5.54,0,0,1-1.59,2.4,3,3,0,0,1-1.28.6l-.38,0-.33.11-.28.07a5.56,5.56,0,0,1-1,.1h-.14a25.81,25.81,0,0,1-6.2,1.61c-.31,0-.62.05-.92.05a4.29,4.29,0,0,1-2.46-.6,2.58,2.58,0,0,1-.86-2.83s.28-1.33.61-3.26a55.49,55.49,0,0,0,.78-6.65,15.12,15.12,0,0,1,.61-3.73,30.77,30.77,0,0,1,1-3.14l-.48-.34a1.4,1.4,0,0,1-.3-.15l-.09-.09a3.82,3.82,0,0,0-1.83-.6m4.61-12.2v.14h0v-.12m2.27-3.73a5.94,5.94,0,0,0-2.09,2.74,8.45,8.45,0,0,1,2.09-2.74m3.87-2.57-.9.23c-.9.83-2,1.55-3,2.34a8.45,8.45,0,0,0-2.09,2.74,4,4,0,0,0-.18,1v.12h0v.07l-.18.24a2.56,2.56,0,0,1,.39,0h.26c1.82-.09,2.62-.84,3.68-3.15.36-.78,1.33-2.22,2-3.58m.11-.22a7.38,7.38,0,0,0-1,.4l0,0,.9-.23.11-.22m28.77-4-.11.21a5.79,5.79,0,0,1,.79-.06h0l-.68-.15m10-1.63c-1.83,0-3.5.85-5.32,1.54a6.4,6.4,0,0,1-2.33.41,8.27,8.27,0,0,1-1.11-.07,12.28,12.28,0,0,0,2,.66l1.44-.91c1.82-.7,3.5-1.55,5.33-1.55a5.7,5.7,0,0,1,1.34.16,15.54,15.54,0,0,1,7.07,3.74.68.68,0,0,1,.12.71.73.73,0,0,0-.09-.79,15.54,15.54,0,0,0-7.07-3.74,5.78,5.78,0,0,0-1.35-.16"/><path class="b" d="M93.61,93.61h0a15.51,15.51,0,0,0-2.17,3.83c-.17,1.34-1.47,2-1.8,3.25,0,0,0,0,0,.08h0c.32-1.28,1.63-1.91,1.8-3.25a15.5,15.5,0,0,1,2.23-3.91m5.24-7.21-.06.07v.07l0-.06V86.4m32-18.29a1.72,1.72,0,0,1-.6.83c-1.65,1.21-3.94,1-6,1.69-.26.25-.88.51-1,.83a2.11,2.11,0,0,1-.6.83,29,29,0,0,1-6.58,3c-2.28,1.2-3.66,2.42-5.91,3.66-2.22,1.07-3.47,2.74-5.92,3.39a11.33,11.33,0,0,0-5.5,4v.08a11.35,11.35,0,0,1,5.49-4c2.45-.65,3.7-2.32,5.92-3.39,2.25-1.24,3.63-2.46,5.91-3.65a29.65,29.65,0,0,0,6.58-3,2.11,2.11,0,0,0,.6-.83c.09-.32.71-.58,1-.83,2-.7,4.31-.48,6-1.69a1.81,1.81,0,0,0,.62-.91"/><path class="c" d="M89.82,93.54l.22.08h0s.73.06,1.46.06h0a5.47,5.47,0,0,0,1.15-.09l-.14,0a6,6,0,0,1-1.12.1,10.72,10.72,0,0,1-1.57-.13m-1-.15c-.25.58-.51,1.17-.76,1.76A12.89,12.89,0,0,0,88,99s-.22.61-.61,1.44l.74.09a3.81,3.81,0,0,0,.59-.21h0s0,.11,0,.3c.55.09.85.16.89.17s0,0,0-.08c.33-1.29,1.63-1.91,1.8-3.25a15.51,15.51,0,0,1,2.17-3.83h-.32a5.15,5.15,0,0,1-.59,0,5.47,5.47,0,0,1-1.15.09h0c-.73,0-1.46-.06-1.46-.06h0l-.22-.08-1-.15m10-8.28c0,.45,0,.91-.07,1.36l.06-.07c0-.21,0-.45,0-.7h0c0-.19,0-.38,0-.59M122.35,63.5c-1.83,0-3.51.85-5.33,1.55l-1.44.91.18,0a7.51,7.51,0,0,0,1.51.17,3.67,3.67,0,0,0,2.39-.75s1.38-.13,2.87-.13c.44,0,.9,0,1.34,0,1.88.13,3.33.64,1.64,2a34.62,34.62,0,0,1-2.66,2.82L114.6,74c-2.45,1.18-5,2.38-6.77,3.12a2.28,2.28,0,0,1,0,.26c0,1-.27,2.1-1.08,2.1a1.38,1.38,0,0,1-.69-.21c-.37-.2-1.12-.6-1.84-1a42.72,42.72,0,0,0-4.85,2.6,18.47,18.47,0,0,0-.53,4.18c0,.21,0,.4,0,.59h0c0,.25,0,.49,0,.7a11.33,11.33,0,0,1,5.5-4c2.45-.65,3.7-2.32,5.92-3.39,2.25-1.24,3.63-2.46,5.91-3.66a29,29,0,0,0,6.58-3,2.11,2.11,0,0,0,.6-.83c.09-.32.71-.58,1-.83,2-.7,4.3-.48,6-1.69a1.72,1.72,0,0,0,.6-.83.68.68,0,0,0-.12-.71,15.54,15.54,0,0,0-7.07-3.74,5.7,5.7,0,0,0-1.34-.16"/><path class="d" d="M88.05,93.3a2,2,0,0,0-1.08.31,3,3,0,0,1,1.08-.31m0,0h0a3,3,0,0,0-1.08.31c-1.08.68-1.56,2.31-2.57,3.2a.76.76,0,0,1-.46.14c-.94,0-2.25-1.48-3.49-3,0,.64.06,1.28.12,1.9a1.64,1.64,0,0,0,0,.23,11.31,11.31,0,0,0,2,2.7,5.82,5.82,0,0,0,4.08,1.91,4.4,4.4,0,0,0,.62,0c0-.1.09-.19.13-.28C87.76,99.59,88,99,88,99a12.89,12.89,0,0,1,.07-3.83,14.56,14.56,0,0,1,.43-1.82l-.18,0h-.23M102.7,77.75h-.06a4.06,4.06,0,0,0-2.51,1.69,4.34,4.34,0,0,0-.74,1.49,42.72,42.72,0,0,1,4.85-2.6,5.8,5.8,0,0,0-1.54-.58M113,65.2a5.79,5.79,0,0,0-.79.06A12.85,12.85,0,0,1,111,67.17c-.45,1.28-.25,3.15-1.09,4.18-.45.31-1.19,0-1.51.43a13.2,13.2,0,0,0-.61,5.35c1.81-.74,4.32-1.94,6.77-3.12l8.25-3.91a34.62,34.62,0,0,0,2.66-2.82c1.69-1.31.24-1.82-1.64-2-.44,0-.9,0-1.34,0-1.49,0-2.87.13-2.87.13a3.67,3.67,0,0,1-2.39.75,7.51,7.51,0,0,1-1.51-.17l-.18,0a12.28,12.28,0,0,1-2-.66l-.14-.06a2.19,2.19,0,0,0-.46,0h0"/><path class="e" d="M75.4,89a30.77,30.77,0,0,0-1,3.14,15.12,15.12,0,0,0-.61,3.73,55.49,55.49,0,0,1-.78,6.65c-.33,1.93-.61,3.26-.61,3.26a2.58,2.58,0,0,0,.86,2.83,4.29,4.29,0,0,0,2.46.6c.3,0,.61,0,.92-.05a25.81,25.81,0,0,0,6.2-1.61H83a5.56,5.56,0,0,0,1-.1l.28-.07.33-.11.38,0a3,3,0,0,0,1.28-.6,5.54,5.54,0,0,0,1.59-2.4,14.31,14.31,0,0,0,.8-3.59c0-.19,0-.3,0-.3a3.81,3.81,0,0,1-.59.21,4.87,4.87,0,0,1-.87.19,4.4,4.4,0,0,1-.62,0,5.82,5.82,0,0,1-4.08-1.91,11.31,11.31,0,0,1-2-2.7,4.69,4.69,0,0,1-.22-.44c0-.63,0-1.24,0-1.82-.42-.51-.84-1-1.22-1.44A28,28,0,0,0,75.4,89"/><path class="f" d="M27.42,96.53a1.63,1.63,0,0,0-.36,0,.92.92,0,0,1-.29,0h-.06l-.33,0h-.31c-.2,0-.37,0-.44.18.3.21.52.63.92.91.72.63,1.69.79,2.31,1.49a25.31,25.31,0,0,0,2,2,6,6,0,0,0,1.61.7,22.93,22.93,0,0,0,6.17,1.6,1.42,1.42,0,0,1,.94-.34,11.64,11.64,0,0,1,2.16.59,5.81,5.81,0,0,1,.87.53c.86.26,1.86,0,2.35.79a24.34,24.34,0,0,0,3.13,4.74,42.45,42.45,0,0,0,6.64,5,6.6,6.6,0,0,0,2.45.7l.63.08.31,0,.43.08a14.78,14.78,0,0,1,2.11.52c.06,0,0,.12-.26.25l1,.19c.22-.07,1-.11,1.23-.19a6.67,6.67,0,0,1,2,1c2.41,2.18,6.31,3.77,10.35,5.39a41.69,41.69,0,0,1,7.27-3.76,13.63,13.63,0,0,0,4.15-2.74c.48-.54,1.06-1.08,1.62-1.63.28-.27.55-.54.79-.81l.35-.4c.11-.13.18-.24.35-.44s.07-.12.08-.17l0-.12,0-.24.06-.51c0-.34.06-.7.08-1,0-.71,0-1.43.11-2.09l-1,.77-.42.35-.69.56-.54.45-.65.56A16.43,16.43,0,0,1,80.86,116a2.4,2.4,0,0,1-1.32.38,3.48,3.48,0,0,1-2.13-.8c-.25-.33-.12-1.12-.38-1.44-1.13-1-2.7-.71-3.15-2.8,0-.65-.75-.91-1.39-.91a2,2,0,0,0-.5.06,1,1,0,0,0-.27.21l-.45,0c-1.35,0-4,.5-7.11.92-1.7.25-3.47.46-4.94.63l-.26,0-.18,0-.33.08-.55.13a3.16,3.16,0,0,1-.58.09h0c-.36,0-.65.63-1,.65-1.26-.42-1.94-1.63-2.78-2.74-1.13-1.34-4.6-2.16-4.67-2.32.56-1.22.76-2.81,1.89-3.56.15-.1.14-.52.22-.77s-.24-.92-.39-1c1-.13-2.82-1.12-4-1.12-.32,0-.43.08-.18.28a1.93,1.93,0,0,0-1.16-.35,6.45,6.45,0,0,0-1.61.29,7.19,7.19,0,0,1-1.73.28,3.4,3.4,0,0,1-.45,0c-1.21-.1-2.29-1.16-3.48-1.16a2.18,2.18,0,0,0-.43.05,15.49,15.49,0,0,1-1.59.18,1.38,1.38,0,0,1-1.22-.54,4.65,4.65,0,0,0-1.35-1.19c-1.31-.34-2.74-.18-3.73-1-.44-.43-.79-1.17-1.27-1.64a1.36,1.36,0,0,0-.95-.43"/><path class="g" d="M77.32,75.72h0l-.26.32h0l.26-.32h0m0,0h0m0-.24h0v.24h0v-.24m6.15-6.18-.9.23h0a25.76,25.76,0,0,0-2.74,2.17l-.18.16a8.45,8.45,0,0,0-2.09,2.74,2.36,2.36,0,0,0-.19.87h0a2.36,2.36,0,0,1,.19-.87,8.45,8.45,0,0,1,2.09-2.74l.18-.16a25.76,25.76,0,0,1,2.74-2.17h0l.9-.23h0"/><path class="h" d="M25.06,96.76c-.12,0-.2,0-.2.14-.07.35.25.7.41,1,1,1.16,1.8,2.44,2.82,3.43a19.93,19.93,0,0,0,8.07,4.89,1,1,0,0,0,.28,0,7.22,7.22,0,0,0,1.41-.39,2.63,2.63,0,0,1,.68-.08,7.46,7.46,0,0,1,1,.1,9.47,9.47,0,0,0,1.06.09,2.72,2.72,0,0,0,1.43-.36.34.34,0,0,1,.22-.07.78.78,0,0,1,.45.17c1.75,2.17,3.38,4.14,5.13,6.16,1.09,1.35,5.4,4.14,6.32,4.64a7.12,7.12,0,0,0,2.5.6h.23a4.35,4.35,0,0,0,.74-.06l.43-.08a5.63,5.63,0,0,0,.63-.06,4.78,4.78,0,0,0,1.72-.49c.24-.13.32-.24.26-.25a14.78,14.78,0,0,0-2.11-.52l-.43-.08-.31,0-.63-.08a6.6,6.6,0,0,1-2.45-.7,42.45,42.45,0,0,1-6.64-5A24.34,24.34,0,0,1,45,105c-.49-.79-1.49-.53-2.35-.79a5.81,5.81,0,0,0-.87-.53,11.64,11.64,0,0,0-2.16-.59,1.42,1.42,0,0,0-.94.34,22.93,22.93,0,0,1-6.17-1.6,6,6,0,0,1-1.61-.7,25.31,25.31,0,0,1-2-2c-.62-.7-1.59-.86-2.31-1.49-.4-.28-.62-.7-.92-.91h0l-.14,0-.22,0h-.21"/><path class="a" d="M62.93,89s-.07.08-.16.09a2.92,2.92,0,0,0,.71.15h.06L62.93,89m-3.24-.67.16,0,1.07.35a3.36,3.36,0,0,0-1.23-.39m4.62-1a1.92,1.92,0,0,1,.08.51h0a1.47,1.47,0,0,1-.17.69c.2-.22.31-.54.09-1.2M64,86.62h0l0,0v0l0-.08m.39-.92c-.12,0-.21.17-.27.36a2.84,2.84,0,0,1,.29-.36h0M57.53,78a8,8,0,0,0-.61.89.83.83,0,0,0,.52-.52,1.54,1.54,0,0,0,.09-.37m-19-.18a1.82,1.82,0,0,0,.43.59,35.54,35.54,0,0,0,5.49,4.08,3.25,3.25,0,0,0,1.67.58,7.2,7.2,0,0,0,1.16-.19l.16,0a3.44,3.44,0,0,1,1.48.55c-.22-.17-.75-.57-1.33-.93l-.33.34a7.52,7.52,0,0,1-1.17.2,3.28,3.28,0,0,1-1.67-.58,35.52,35.52,0,0,1-5.48-4.08,1.84,1.84,0,0,1-.41-.54m16.67-7,.08.17c.45.93.89,1.86,1.28,2.73-.29-.73-.66-1.56-1.1-2.5l-.26-.4m-4-2c.2,1.32.41,2.64.63,4a8.9,8.9,0,0,0-.63-4m-1.77-4,.46.34c0-.06,0-.11,0-.16a2.11,2.11,0,0,0-.45-.18m20.38-2.8a.52.52,0,0,0-.11.1.92.92,0,0,1,.26.07l-.15-.17M47.47,57a.56.56,0,0,0-.63.52l-.66.42a9.57,9.57,0,0,0,.36,1.57c.23.9.56,1.44.37,1.44h0a31.94,31.94,0,0,1,1.61,3.28l.58.44a12.44,12.44,0,0,1-.65-2.35c-.09-.68,0-1.23.43-1.23a2.72,2.72,0,0,1,1.39.77A19.75,19.75,0,0,1,53,63.37a10.12,10.12,0,0,1,3.74,3.9s1.26,3,2.38,6.3,2.07,6.79,1.28,7.89c0,0-.23.17.62,2.07,0,0,.15,1.41-.69,1.41a2.22,2.22,0,0,1-1.23-.59,17.25,17.25,0,0,0-1.85-.73,5.11,5.11,0,0,0-1.37-.26c-.34,0-.57.09-.61.33a4.13,4.13,0,0,0-1.38-.61.29.29,0,0,0-.17,0c0,.23,0,.37,0,.37-.06-.19,0-.31,0-.37s0-.28,0-.46c-.32.73-.72,1.31-1.17,1.31a.68.68,0,0,1-.44-.19A6.3,6.3,0,0,1,51,83.9a4.23,4.23,0,0,1-1.72-.32,36.32,36.32,0,0,1,4.29,3.33c1.74,1.56,4.19,4,5,4a.19.19,0,0,0,.18-.08c.31-.63,0-1.95.44-2.4a.76.76,0,0,0-.28.36,1.58,1.58,0,0,0-.1.6,2.81,2.81,0,0,0,.07.61,2.81,2.81,0,0,1-.07-.61h0a1.55,1.55,0,0,1,.1-.6.82.82,0,0,1,.28-.36.56.56,0,0,1,.42-.16h.16a3.36,3.36,0,0,1,1.23.39,5.66,5.66,0,0,0,1.62.34h.13l.1,0c.09,0,.16,0,.16-.09l.61.22c.15-.3.47-.42.68-.65a1.47,1.47,0,0,0,.17-.69h0a1.92,1.92,0,0,0-.08-.51A4.64,4.64,0,0,0,64,86.7v0l0,0h0l0-.05a1.25,1.25,0,0,1,.14-.51c.06-.19.15-.36.27-.36h0c.21-.23.35-.49,0-1.43-.12-.34-.24-.69-.35-1s-.42-.54-.63-.84a1.17,1.17,0,0,1-.19-.72,1.1,1.1,0,0,1,.15-.58,5.07,5.07,0,0,1-.25-2.69,1.19,1.19,0,0,1,1.23-1h0a18.54,18.54,0,0,1,2.71,1.93,1.24,1.24,0,0,0,.65.33c.4,0,.28-.78.06-1.55a13.05,13.05,0,0,1-1-4.6.18.18,0,0,1,.18-.1,1.6,1.6,0,0,1,.29,0,1.11,1.11,0,0,0,.3,0,.29.29,0,0,0,.16,0c.35-.67-.18-2.29-.13-3.28,1-2.27.26-3.13.33-3.13h0a.05.05,0,0,1,0,0c.24,0,1,1,1.36,1s.31-.9.07-1.72c-.46-1.73-.82-3.55-.28-4.05-.35-.26-.84-.77-1.17-1a.79.79,0,0,0-.42-.15c-.31,0-.48.29-.79.34a3.86,3.86,0,0,1-.92-.59.67.67,0,0,0-.37-.2c-.23,0-.24.4-.32.68a.26.26,0,0,1-.29.27,2,2,0,0,1-.39-.06,1.86,1.86,0,0,0-.38-.06.32.32,0,0,0-.24.08c-.39.29,0,1.65-.46,1.65a.54.54,0,0,1-.19-.05c.53.27-.45.75-.9.75-.14,0-.24,0-.22-.16h0a3,3,0,0,1-.64-.64,5.41,5.41,0,0,1-.43-.66,22.59,22.59,0,0,0-1.87-3.37h-.07l-.31,0a3.06,3.06,0,0,1-.47,0,2.2,2.2,0,0,1-1.27-.38c-.75-.54-1.54-1.19-2-1.19H55c0,.13.29.69.25.82-.2.17.48,5.94,0,5.94h0a4.2,4.2,0,0,1-1.45-1.3A26.74,26.74,0,0,0,51,60c-.26-.31-.49-.76-.75-1.08a7.22,7.22,0,0,0-2-1.77,1.81,1.81,0,0,0-.71-.18"/><path class="b" d="M48.49,64.19c.22.82-.33.84,0,1.76.36,1.43-.28,3.64-.29,4.64-.05,1.88-.33,2.49-1.56,2.49h0l-.29,0c-.83,0-.91.76-1.62,1S43.74,75,43,75.3a3.08,3.08,0,0,0-2.2.83.78.78,0,0,0,.06.5c.1.22-.11.29-.13.42l-.24,0a5.18,5.18,0,0,1-.75-.08,6.64,6.64,0,0,0-.73-.07c-.3,0-.53.06-.64.28a.83.83,0,0,0,.11.58.72.72,0,0,1-.08-.52c.1-.22.34-.29.63-.29a5.2,5.2,0,0,1,.74.08,5.18,5.18,0,0,0,.75.08l.23,0c0-.14.24-.2.14-.43a.75.75,0,0,1-.06-.49,3,3,0,0,1,2.2-.83c.72-.35.94-.94,1.68-1.28s.78-1,1.61-1l.29,0h.06c1.22,0,1.51-.6,1.55-2.48,0-1,.65-3.21.29-4.64-.35-.92.21-.94,0-1.77l0,0h0"/><path class="c" d="M48.49,64.19l0,0c.22.83-.34.85,0,1.77.36,1.43-.28,3.63-.29,4.64,0,1.88-.33,2.48-1.55,2.48h-.06l-.29,0c-.83,0-.91.77-1.61,1s-1,.93-1.68,1.28a3,3,0,0,0-2.2.83.75.75,0,0,0,.06.49c.1.23-.12.29-.14.43l-.23,0a5.18,5.18,0,0,1-.75-.08A5.2,5.2,0,0,0,39,77c-.29,0-.53.07-.63.29a.72.72,0,0,0,.08.52,1.84,1.84,0,0,0,.41.54,35.52,35.52,0,0,0,5.48,4.08,3.28,3.28,0,0,0,1.67.58,7.52,7.52,0,0,0,1.17-.2l.33-.34a3.84,3.84,0,0,0-1.58-.7.3.3,0,0,0-.31.19,18.8,18.8,0,0,1-2.16-.79c-1-.48-2-1.11-1.79-1.77a7.49,7.49,0,0,1,.09-1.57,28.62,28.62,0,0,1,2.66-1.1,9.76,9.76,0,0,1,2.8-.66,1.11,1.11,0,0,1,.63.15,4.71,4.71,0,0,0,3-1.31,3.69,3.69,0,0,0,.92-2.09c-.22-1.31-.43-2.63-.63-4A24.09,24.09,0,0,0,50,66.05s-.06-.36-.1-.82l-.46-.34-.28,0-.08-.21-.58-.44"/><path class="d" d="M49.88,65.07c0,.05,0,.1,0,.16,0,.46.1.82.1.82a24.09,24.09,0,0,1,1.21,2.79,8.9,8.9,0,0,1,.63,4,3.69,3.69,0,0,1-.92,2.09,4.71,4.71,0,0,1-3,1.31,1.11,1.11,0,0,0-.63-.15,9.76,9.76,0,0,0-2.8.66,28.62,28.62,0,0,0-2.66,1.1,7.49,7.49,0,0,0-.09,1.57c-.25.66.74,1.29,1.79,1.77a18.8,18.8,0,0,0,2.16.79.3.3,0,0,1,.31-.19,3.84,3.84,0,0,1,1.58.7c.58.36,1.11.76,1.33.93l.11.08.25.13A4.23,4.23,0,0,0,51,83.9a6.3,6.3,0,0,0,1.23-.12.68.68,0,0,0,.44.19c.45,0,.85-.58,1.17-1.31a14.15,14.15,0,0,1,.41-2.09c.29-1.06.76-2,1.42-2a1,1,0,0,1,.63.27,1.22,1.22,0,0,0,.35.05.87.87,0,0,0,.31-.05,8,8,0,0,1,.61-.89c.1-.73-.11-2-1-4.26-.39-.87-.83-1.8-1.28-2.73l-.08-.17c-.38-.55-1.11-1.6-2-2.68a11.68,11.68,0,0,0-3.3-3.05"/><path class="e" d="M53.75,83.12c-.07.06-.09.18,0,.37,0,0,0-.14,0-.37m-4.9-22.07c-.45,0-.52.55-.43,1.23a12.44,12.44,0,0,0,.65,2.35l.08.21.28,0a2.11,2.11,0,0,1,.45.18,11.68,11.68,0,0,1,3.3,3.05c.87,1.08,1.6,2.13,2,2.68l.26.4c.44.94.81,1.77,1.1,2.5.9,2.25,1.11,3.53,1,4.26a1.54,1.54,0,0,1-.09.37.83.83,0,0,1-.52.52.87.87,0,0,1-.31.05,1.22,1.22,0,0,1-.35-.05,1,1,0,0,0-.63-.27c-.66,0-1.13.93-1.42,2a14.15,14.15,0,0,0-.41,2.09c0,.18,0,.34,0,.46a.29.29,0,0,1,.17,0,4.13,4.13,0,0,1,1.38.61c0-.24.27-.33.61-.33a5.11,5.11,0,0,1,1.37.26,17.25,17.25,0,0,1,1.85.73,2.22,2.22,0,0,0,1.23.59c.84,0,.69-1.41.69-1.41-.85-1.9-.62-2.07-.62-2.07.79-1.1-.18-4.62-1.28-7.89s-2.38-6.3-2.38-6.3A10.12,10.12,0,0,0,53,63.37a19.75,19.75,0,0,0-2.79-1.55,2.72,2.72,0,0,0-1.39-.77"/><path class="f" d="M45.47,54.34a.28.28,0,0,0-.28.14c-.08.28-.38.36-.34.73.2.84.67,2,1,2.92l.35-.22.66-.42a.56.56,0,0,1,.63-.52,1.81,1.81,0,0,1,.71.18,7.22,7.22,0,0,1,2,1.77c.26.32.49.77.75,1.08a26.74,26.74,0,0,1,2.86,3.1,4.2,4.2,0,0,0,1.45,1.3h0c.46,0-.22-5.77,0-5.94,0-.13-.29-.69-.25-.82h.09c.46,0,1.25.65,2,1.19a2.2,2.2,0,0,0,1.27.38,3.06,3.06,0,0,0,.47,0l.31,0h.07a22.59,22.59,0,0,1,1.87,3.37,5.41,5.41,0,0,0,.43.66,3,3,0,0,0,.64.64h0c0,.12.08.16.22.16.45,0,1.43-.48.9-.75a.54.54,0,0,0,.19.05c.49,0,.07-1.36.46-1.65a.32.32,0,0,1,.24-.08,1.86,1.86,0,0,1,.38.06,2,2,0,0,0,.39.06.26.26,0,0,0,.29-.27c.08-.28.09-.68.32-.68a.67.67,0,0,1,.37.2,3.86,3.86,0,0,0,.92.59c.31,0,.48-.34.79-.34a.79.79,0,0,1,.42.15c.33.24.82.75,1.17,1a.64.64,0,0,0,.32.15c.07,0,.12,0,.13-.17a.31.31,0,0,1,0-.11.52.52,0,0,1,.11-.1c.06-.06.11-.12,0-.31h0c-.17-.09-.45-.38-.68-.51-.49-.34-.76-.22-1.27-.63s-1-.83-1.5-1.08a1.46,1.46,0,0,0-.57-.15h-.12l-.56,0a2.22,2.22,0,0,0-1.45.45c.21.62,0,.67-.29.67h-.15a.51.51,0,0,0-.22,0h0a1.89,1.89,0,0,1-.43-.17c-.2,0-.27.28-.46.28a.67.67,0,0,1-.39-.2,30.22,30.22,0,0,0-3.34-2.76A17.14,17.14,0,0,0,54.29,56l-.19,0c-.61,0-.71.72-1.28.77h0a1.25,1.25,0,0,1-.14-.27.86.86,0,0,0-.14.13c0,.11,0,.37.07.49h-.07a1.25,1.25,0,0,1-.56-.24c-2.34-1.85-3.58-1-5.69-2.23a2.63,2.63,0,0,0-.82-.24"/><path class="g" d="M58.73,89.44h0a2.81,2.81,0,0,0,.07.61,2.81,2.81,0,0,1-.07-.61m.9-1.11a.89.89,0,0,0-.52.15.82.82,0,0,0-.28.36,1.55,1.55,0,0,0-.1.6h0a1.58,1.58,0,0,1,.1-.6.76.76,0,0,1,.28-.36.89.89,0,0,1,.52-.15h0m4.76-.45a1.47,1.47,0,0,1-.17.69,1.63,1.63,0,0,1-.66.65h0L62.93,89s-.07.08-.16.09h-.12a8.52,8.52,0,0,1-1.56-.29l-.17-.09a3.36,3.36,0,0,0-1.23-.39h0a3.36,3.36,0,0,1,1.23.39l.17.09a8.52,8.52,0,0,0,1.56.29h.12c.09,0,.16,0,.16-.09l.61.22h0a1.63,1.63,0,0,0,.66-.65,1.47,1.47,0,0,0,.17-.69h0M64,86.67v0a2.6,2.6,0,0,1,.28.67,1.92,1.92,0,0,1,.08.51,1.92,1.92,0,0,0-.08-.51A2.6,2.6,0,0,0,64,86.7v0m0,0h0l0,0,0,0m.39-.93c-.12,0-.21.17-.27.36a3.56,3.56,0,0,0-.12.56h0a3.56,3.56,0,0,1,.12-.56c.06-.19.15-.36.27-.36h0l.07,0h0l-.07,0h0m.26-.45c0,.43-.17.48-.17.48s.17,0,.17-.48m-.5-2a6,6,0,0,1,.5,2h0a6,6,0,0,0-.5-2h0"/><path class="h" d="M53.3,54.41c-1.25.06-.87,1.42-.62,2a1.25,1.25,0,0,0,.14.27h0c.57-.05.67-.77,1.28-.77l.19,0a17.14,17.14,0,0,1,4.09,1.74,30.22,30.22,0,0,1,3.34,2.76.67.67,0,0,0,.39.2c.19,0,.26-.24.46-.28a1.89,1.89,0,0,0,.43.17h0a.51.51,0,0,1,.22,0h.15c.26,0,.5,0,.29-.67a2.22,2.22,0,0,1,1.45-.45l.56,0h.12a1.46,1.46,0,0,1,.57.15c.47.25,1,.74,1.5,1.08s.78.29,1.27.63c.23.13.51.42.68.51h0c0-.12.23-.07.07-.29a4.64,4.64,0,0,0-.64-.73c-.84-.7-1.72-1.55-2.47-2.09a8.24,8.24,0,0,0-4-1.79,1.87,1.87,0,0,0-.34,0c-.19,0-.06.51-.09.76,0,.67-.83.32-.56,1.43,0,.11,0,.15-.06.15a.23.23,0,0,1-.11,0c-1.59-1.21-3-2.25-4.54-3.28a14,14,0,0,0-3.83-1.53"/><path class="i" d="M98.79,86.54c-.47.6-1,1.28-1.49,2.07-.7,1-2.27,3-3.63,4.91l.2,0a15.13,15.13,0,0,1,1.63-1,3.05,3.05,0,0,0,1-1.61,3.45,3.45,0,0,0,0-.84s0,0,0-.07h0v-.06a3.59,3.59,0,0,1,.58-.7c.26-.3.54-.57.75-.58a2.24,2.24,0,0,0,1-1.91v-.18m-2-30.63a1,1,0,0,0-.31.05c-.1.17.2.75.1.92-.28.25-1.33,7.18-2,7.18h0a2.8,2.8,0,0,1-1.59-1.23C92,61.24,91,60.88,90,59.71c-.26-.32-.42-.81-.67-1.13-.75-.83-1.73-1.73-2.17-1.73h0a2.83,2.83,0,0,0-.68-.09,1.26,1.26,0,0,0-1.26.71l-1,.58a9.24,9.24,0,0,0-.09,1.79c0,1.06.23,1.65-.07,1.65h0a19.2,19.2,0,0,1,.9,3.66l.62.44a11.55,11.55,0,0,1,.07-2.7c.16-.84.5-1.53,1.21-1.53a2.67,2.67,0,0,1,1.51.68,21.88,21.88,0,0,1,3.36,1.31,10.58,10.58,0,0,1,2.71,1.85c1.84-1.47,3.1-3.63,5-5.19a2.7,2.7,0,0,1,1.63-.54,6,6,0,0,1,3,1.13,2.37,2.37,0,0,1-.36-.55c-.13-1.06-1.09-2.35-1.69-3.5h0a5.87,5.87,0,0,0-.74.22,4.56,4.56,0,0,1-1.28.22,2.22,2.22,0,0,1-.88-.17,6.62,6.62,0,0,0-2.28-.9M114,55.73c-.65,0-1,.58-1.58.82h0a3.15,3.15,0,0,1-1.2-.34.79.79,0,0,0-.37-.11c-.44,0-.56.57-.78,1-.23.8-1.46.31-2,.79-.7.55-.4,2.25-1.33,2.25h-.11c.7.14-.8,1-1.51,1.25.63.45,1.24.91,1.82,1.28a21.13,21.13,0,0,0,5.33,2.39c.74-1.63.19-2,.31-2h0a.23.23,0,0,1,.14,0,1.9,1.9,0,0,1,.76.35,2.05,2.05,0,0,0,.86.34h.09c.67-.28.77-1.3.64-2.23-.17-2-.26-4.08.67-5-.47-.16-1.07-.57-1.5-.72l-.28,0"/><path class="j" d="M80.44,92.2c-.06.53-.09,1.08-.1,1.67l.11.13c0-.61,0-1.21,0-1.8m10.4-3.53a17,17,0,0,0-2.34,4.61l.35,0q1-2.31,2.07-4.62l-.08,0m-15.92,0,.48.34.06-.17a2.84,2.84,0,0,1-.54-.17M101,59.46a2.7,2.7,0,0,0-1.63.54c-1.88,1.56-3.14,3.72-5,5.19l0,0c.38-.28.72-.56,1-.84a12,12,0,0,0,2.12-2.51,12,12,0,0,1-2.12,2.51c-.32.28-.66.56-1,.84a3.92,3.92,0,0,1,1.13,2s.35,1.84.57,4.34a4.22,4.22,0,0,0,.87-.7,7.28,7.28,0,0,0,.88.05,4.56,4.56,0,0,0,2.42-.57l.67-.76a1.9,1.9,0,0,1-.67.76l-.83,1c2.36-2.11,4.72-3.87,5.77-3.87a.65.65,0,0,1,.29.06s1.46-.65,3.18-1.27a20.67,20.67,0,0,1,3.53-.94l.11-.21A21.13,21.13,0,0,1,107,62.66c-.58-.37-1.19-.83-1.82-1.28l-.24,0c-.1,0-.14,0-.1-.15h0a2.08,2.08,0,0,1-.73-.57l-.07-.11a6,6,0,0,0-3-1.13"/><path class="k" d="M98.79,86.47c-.47.6-1,1.28-1.47,2.06-.72,1.06-2.32,3-3.69,5h0c1.36-1.91,2.93-3.86,3.63-4.91.53-.79,1-1.47,1.49-2.07v-.07"/><path class="l" d="M99.39,80.93a35.74,35.74,0,0,0-3.4,2.4,29.12,29.12,0,0,0-2.39,2.11,11.9,11.9,0,0,0,0,1.28,4.49,4.49,0,0,1-.92,1.41,2,2,0,0,1-1.38.61,1.48,1.48,0,0,1-.41,0Q89.85,91,88.85,93.31a5,5,0,0,1,1,.23,10.72,10.72,0,0,0,1.57.13,6,6,0,0,0,1.12-.1l.14,0a.54.54,0,0,0,.34-.17l.64.09c1.37-1.93,3-3.92,3.69-5,.52-.78,1-1.46,1.47-2.06,0-.45,0-.91.07-1.36l0-.45,0,.45a18.47,18.47,0,0,1,.53-4.18m8.44-3.8a8.68,8.68,0,0,1-2.38.76h-.13s-.4.15-1.08.45c.72.35,1.47.75,1.84,1a1.38,1.38,0,0,0,.69.21c.81,0,1.06-1.09,1.08-2.1a2.28,2.28,0,0,0,0-.26"/><path class="m" d="M82.61,87a12.9,12.9,0,0,1-1.27,1.07,16.18,16.18,0,0,0-.9,4.09c0,.59,0,1.19,0,1.8,1.24,1.47,2.55,3,3.49,3a.76.76,0,0,0,.46-.14c1-.89,1.49-2.52,2.57-3.2a3.31,3.31,0,0,0-.73.52,4,4,0,0,0-1,1.57,4,4,0,0,1,1-1.57,3.31,3.31,0,0,1,.73-.52,2,2,0,0,1,1.08-.31l.32,0h.13a17,17,0,0,1,2.34-4.61,2.64,2.64,0,0,1-.88-.43,21.57,21.57,0,0,0-2.5-.55A9.33,9.33,0,0,0,86,87.56a2.06,2.06,0,0,0-1.72.56,4.12,4.12,0,0,0-1.66-.59.87.87,0,0,0-.4.09l-.3.47a.61.61,0,0,1,.3-.47c.11-.16.24-.36.4-.58m29.61-21.78a20.67,20.67,0,0,0-3.53.94c-1.72.62-3.18,1.27-3.18,1.27a.65.65,0,0,0-.29-.06c-1,0-3.41,1.76-5.77,3.87-.07.09-.15.17-.23.26-.81.91-1.83,2-2.94,3.24.06,3.75-.44,7.82-2.36,9.41,0,0-.27.17-.32,1.25A29.12,29.12,0,0,1,96,83.33a35.74,35.74,0,0,1,3.4-2.4,4.34,4.34,0,0,1,.74-1.49,4.06,4.06,0,0,1,2.51-1.69h.06a5.8,5.8,0,0,1,1.54.58c.68-.3,1.08-.45,1.08-.45h.13a8.68,8.68,0,0,0,2.38-.76,13.2,13.2,0,0,1,.61-5.35c.32-.4,1.06-.12,1.51-.43.84-1,.64-2.9,1.09-4.18a12.85,12.85,0,0,0,1.18-1.91"/><path class="n" d="M81.34,88.11a3,3,0,0,1-1.55.72.65.65,0,0,1-.48-.19,14.11,14.11,0,0,1-2.57.27,6.63,6.63,0,0,1-1.28-.11L75.4,89a28,28,0,0,1,3.72,3.46c.38.43.8.93,1.22,1.44,0-.59,0-1.14.1-1.67a16.18,16.18,0,0,1,.9-4.09m18.94-17.78a4.56,4.56,0,0,1-2.42.57,7.28,7.28,0,0,1-.88-.05,4.22,4.22,0,0,1-.87.7c.07.9.14,1.88.16,2.89,0,.11,0,.23,0,.34,1.11-1.19,2.13-2.33,2.94-3.24.08-.09.16-.17.23-.26l.83-1m.67-.76-.67.76a1.9,1.9,0,0,0,.67-.76"/><path class="i" d="M85.93,65.84l.5.32.06-.18a2.87,2.87,0,0,0-.56-.14m30.82-9.93a1.53,1.53,0,0,0-.18.18,2.1,2.1,0,0,1,.37,0l-.19-.14"/><path class="j" d="M86.68,70.32c-.28,1.24-.56,2.47-.85,3.71L86.1,74a9.46,9.46,0,0,0,.58-3.65"/><path class="n" d="M86.1,74l-.27.06-.24,1A8.27,8.27,0,0,0,86.1,74"/><path class="j" d="M91.56,72c0,.06,0,.13,0,.19l.21,1,.08,0c0-.23-.08-.48-.13-.73l-.2-.43"/><path class="n" d="M91.89,73.13l-.08,0c.14.72.26,1.43.36,2.11,0-.64-.14-1.35-.28-2.13"/><path class="m" d="M91.41,80.41c-.39.31-1,.81-1.48,1.26A2.73,2.73,0,0,0,91,80.9a3.3,3.3,0,0,0,.37-.49"/><path class="i" d="M64.08,83.14l.06.14a20.61,20.61,0,0,0,4.34,4.11,3.42,3.42,0,0,0,2,.69l.35,0,0-.07-.38,0a3.42,3.42,0,0,1-2-.69,20.5,20.5,0,0,1-4.4-4.18m0,0,0,.12,0,0-.06-.14,0,0"/><path class="j" d="M73.18,87.3l-.76.44c-.53.07-1,.2-1.54.25l0,.07c.52,0,1-.18,1.57-.25l.28,0a3.82,3.82,0,0,1,1.83.6,14.94,14.94,0,0,0-1.35-1.09"/><path class="j" d="M63.28,81.67a1.17,1.17,0,0,0,.19.72c.21.3.42.57.63.84l0-.12c-.2-.25-.39-.51-.58-.78a1.16,1.16,0,0,1-.2-.66"/><path class="i" d="M96.49,90.89a3.05,3.05,0,0,1-1,1.61,2.11,2.11,0,0,0,1-1.61m0-.92h0s0,0,0,.07V90m1.32-1.34c-.21,0-.49.28-.75.58a8.5,8.5,0,0,1,.75-.58"/><path class="j" d="M88.5,93.28l0,0,.33.06,0-.08-.35,0"/><path class="l" d="M88.85,93.31l0,.08,1,.15a5,5,0,0,0-1-.23"/><path class="m" d="M88.37,93.28h0l-.32,0h.25l.18,0,0,0h-.13"/><path class="i" d="M93.67,93.52l-.06.09a1,1,0,0,0,.23,0l0,0-.2,0"/><path class="k" d="M93.63,93.51l-.07.1h0l.06-.09h0"/><path class="l" d="M93,93.42a.54.54,0,0,1-.34.17,5.15,5.15,0,0,0,.59,0h.32l.07-.1L93,93.42"/><path class="o" d="M77.05,76.05c-1,.19-1.55,1-2.58,1.22-1.24.46-1.93,1.14-3.19,1.58a7.74,7.74,0,0,0-3.65,1,1,1,0,0,0-.24.59c0,.26-.34.34-.46.5h-.27a7.11,7.11,0,0,1-1.1-.12,6.87,6.87,0,0,0-1.07-.12,1.46,1.46,0,0,0-1,.31.24.24,0,0,0-.08.09v0l.07-.08a1.45,1.45,0,0,1,1-.3,6.87,6.87,0,0,1,1.07.12,7.11,7.11,0,0,0,1.1.12h.27c.11-.16.46-.24.46-.5a1,1,0,0,1,.24-.59,7.71,7.71,0,0,1,3.65-1c1.26-.44,2-1.13,3.19-1.58,1-.26,1.57-1,2.51-1.21l.07-.08m.07,0h-.07l-.07.08.08,0,.06-.07m7.78-10.9c-.05,1-.83,1.06-.77,2.12a5.57,5.57,0,0,1-.57,1.81h0a5.53,5.53,0,0,0,.54-1.74c-.06-1,.72-1.16.77-2.12v-.06h0"/><path class="p" d="M83.49,69.28h0c-.67,1.36-1.64,2.8-2,3.58-1.06,2.31-1.86,3.06-3.68,3.15h-.26a2.56,2.56,0,0,0-.39,0l-.06.07a3.28,3.28,0,0,1,.46,0h.25c1.82-.09,2.62-.83,3.68-3.15.37-.79,1.37-2.26,2-3.65m.11-.22h0l-.11.22h0c0-.07.07-.15.11-.22"/><path class="q" d="M77.05,76.05h0l-.07.08h0l.07-.08m6.44-6.77h0"/><path class="p" d="M63.43,81.09a1.1,1.1,0,0,0-.15.58,1,1,0,0,1,.16-.53v0"/><path class="r" d="M64,82.92c0,.06,0,.12.07.19l0,0L64,82.92M74.8,78.31a.27.27,0,0,1-.14,0,5.22,5.22,0,0,0-1.55,2h0a6.75,6.75,0,0,1,1.67-2M77,76.13c-.94.21-1.5,1-2.51,1.21-1.24.45-1.93,1.14-3.19,1.58a7.71,7.71,0,0,0-3.65,1,1,1,0,0,0-.24.59c0,.26-.35.34-.46.5h-.27a7.11,7.11,0,0,1-1.1-.12,6.87,6.87,0,0,0-1.07-.12,1.45,1.45,0,0,0-1,.3l-.07.08c.16.56.35,1.17.55,1.78l.09.22a20.5,20.5,0,0,0,4.4,4.18,3.42,3.42,0,0,0,2,.69l.38,0c.12-.31.22-.62.33-.94s.11-.36.16-.53h-.05a.87.87,0,0,0-.62.23,16.69,16.69,0,0,1-2.61-1c-1.19-.58-2.17-1.36-1.34-2.13a12.8,12.8,0,0,1,1.19-1.85s2.22-.69,4.55-1.33l.62-.17a5.22,5.22,0,0,1,1.55-2,.27.27,0,0,0,.14,0c.42-.36.86-.73,1.32-1.17l.1-.12h0c.29-.32.56-.65.76-.89m.08,0-.08,0c-.2.24-.47.57-.76.89h0l-.1.12a12.16,12.16,0,0,0,.94-1M86.4,68a15.68,15.68,0,0,0-1.82.76l.22-.06c.54-.26,1.07-.49,1.6-.69h0m-1.49-2.85v.06c0,1-.83,1.07-.77,2.12a5.53,5.53,0,0,1-.54,1.74,8.85,8.85,0,0,1,1-.31A15.68,15.68,0,0,1,86.4,68c-.06-.28-.12-.56-.19-.84,0,0,.07-.43.22-1l-.5-.32-.33,0h0l0-.24-.62-.44"/><path class="s" d="M71.37,86.52c-.05.17-.11.35-.16.53s-.21.63-.33.94c.51,0,1-.18,1.54-.25l.76-.44a4,4,0,0,0-1.81-.78m4.75-9.38c-.46.44-.9.81-1.32,1.17a5.1,5.1,0,0,0,1.32-1.17m8.46-8.39a8.85,8.85,0,0,0-1,.31c0,.07-.07.15-.11.22l.47-.12a2.42,2.42,0,0,1,.62-.41M86.4,68c-.53.2-1.06.43-1.6.69l-.22.06a2.42,2.42,0,0,0-.62.41l-.47.12c-.67,1.39-1.67,2.86-2,3.65-1.06,2.32-1.86,3.06-3.68,3.15h-.25a3.28,3.28,0,0,0-.46,0,12.16,12.16,0,0,1-.94,1,5.1,5.1,0,0,1-1.32,1.17,6.75,6.75,0,0,0-1.67,2,20.16,20.16,0,0,1,4.05-.78,1.13,1.13,0,0,1,.64.13,11.84,11.84,0,0,0,3.15-.8c0-.21.07-.44.1-.69A11.6,11.6,0,0,1,83,75.8,6.77,6.77,0,0,1,85.83,74c.29-1.24.57-2.47.85-3.71A13.41,13.41,0,0,0,86.4,68"/><path class="t" d="M85.83,74A6.77,6.77,0,0,0,83,75.8a11.6,11.6,0,0,0-1.9,2.38c0,.25-.07.48-.1.69a10.75,10.75,0,0,0,2.1-1.12,8.42,8.42,0,0,0,2.52-2.7l.24-1"/><path class="u" d="M76.22,77h0l-.1.12a5.1,5.1,0,0,1-1.32,1.17.27.27,0,0,1-.14,0,5.22,5.22,0,0,0-1.55,2h0a5.22,5.22,0,0,1,1.55-2,.27.27,0,0,0,.14,0,5.1,5.1,0,0,0,1.32-1.17l.1-.12h0m.76-.89h0c-.2.24-.47.57-.76.89.29-.32.56-.65.76-.89M86.4,68a15.68,15.68,0,0,0-1.82.76,2.42,2.42,0,0,0-.62.41l-.47.12h0l.47-.12a2.42,2.42,0,0,1,.62-.41A15.68,15.68,0,0,1,86.4,68h0"/><path class="s" d="M63.44,81.14a1,1,0,0,0-.16.53,1.16,1.16,0,0,0,.2.66c.19.27.38.53.58.78,0-.07,0-.13-.07-.19s-.1-.24-.15-.36c0,.12.11.24.15.36-.2-.61-.39-1.22-.55-1.78"/><path class="v" d="M73.11,80.32l-.62.17c-2.33.64-4.55,1.33-4.55,1.33a12.8,12.8,0,0,0-1.19,1.85c-.83.77.15,1.55,1.34,2.13a16.69,16.69,0,0,0,2.61,1,.87.87,0,0,1,.62-.23h.05q.42-1.42.78-2.88a10.31,10.31,0,0,1,1-3.32m0,0h0a10.31,10.31,0,0,0-1,3.32l.54-2.19a5.92,5.92,0,0,1,.44-1.13m15.32-13c-.43.12-1.09.32-1.77.57l-.28.1h0c.69-.25,1.38-.46,2.08-.65l0,0m-2-1.34-.06.18c-.15.56-.22,1-.22,1,.07.28.13.56.19.84l.28-.1c.68-.25,1.34-.45,1.76-.57a5.18,5.18,0,0,0-2-1.34"/><path class="w" d="M85.76,82.43a10.16,10.16,0,0,0-2,1.69A10.29,10.29,0,0,0,83,85l.83-.75c.62-.56,1.32-1.21,1.91-1.79M81,78.87a11.84,11.84,0,0,1-3.15.8,1.13,1.13,0,0,0-.64-.13,20.16,20.16,0,0,0-4.05.78,5.92,5.92,0,0,0-.44,1.13l-.54,2.19-.06.55c0-.19,0-.37.06-.55q-.36,1.45-.78,2.88a4,4,0,0,1,1.81.78,14.94,14.94,0,0,1,1.35,1.09l.09.09a1.4,1.4,0,0,0,.3.15,2.84,2.84,0,0,0,.54.17l.24-.6a17.79,17.79,0,0,1,4.21-6.55s.69-.55,1.06-2.78m7.51-11.52c-.7.19-1.39.4-2.08.65a13.41,13.41,0,0,1,.28,2.32A9.46,9.46,0,0,1,86.1,74a3.6,3.6,0,0,1,.66-.06,3.35,3.35,0,0,1,.76.09,39.54,39.54,0,0,0,4-.78l.3-.07-.21-1c0-.06,0-.13,0-.19a21,21,0,0,0-1.67-2.88,12.47,12.47,0,0,0-1.41-1.74"/><path class="x" d="M87.49,81.63a5.63,5.63,0,0,0-1.18.48l-.55.32c-.59.58-1.29,1.23-1.91,1.79L83,85a12.17,12.17,0,0,0-1.68,3.14A12.9,12.9,0,0,0,82.61,87c.5-.74,1.23-1.75,2-2.7a8.67,8.67,0,0,1,3.13-2.68,1.18,1.18,0,0,1-.27,0m4.45-2.52a11.17,11.17,0,0,1-3.64,2.47,1.07,1.07,0,0,1,.6.23h.2a2.55,2.55,0,0,0,.83-.15c.47-.45,1.09-1,1.48-1.26a4.81,4.81,0,0,0,.53-1.3"/><path class="y" d="M91.81,73.15l-.3.07a39.54,39.54,0,0,1-4,.78,3.35,3.35,0,0,0-.76-.09,3.6,3.6,0,0,0-.66.06,8.27,8.27,0,0,1-.51,1.08,8.42,8.42,0,0,1-2.52,2.7A10.75,10.75,0,0,1,81,78.87c-.37,2.23-1.06,2.78-1.06,2.78A17.79,17.79,0,0,0,75.7,88.2l-.24.6a6.63,6.63,0,0,0,1.28.11,14.11,14.11,0,0,0,2.57-.27.65.65,0,0,0,.48.19,3,3,0,0,0,1.55-.72A12.17,12.17,0,0,1,83,85a10.29,10.29,0,0,1,.71-.85,10.16,10.16,0,0,1,2-1.69l.55-.32a5.63,5.63,0,0,1,1.18-.48,1.18,1.18,0,0,0,.27,0,1.6,1.6,0,0,1,.47-.08h.07a11.17,11.17,0,0,0,3.64-2.47,11.57,11.57,0,0,0,.23-3.85c-.1-.68-.22-1.39-.36-2.11"/><path class="z" d="M73.11,80.32h0a10.31,10.31,0,0,0-1,3.32c0,.18,0,.36-.06.55l.06-.55a10.31,10.31,0,0,1,1-3.32m15.33-13c-.42.12-1.08.32-1.76.57l-.28.1h0l.28-.1c.68-.25,1.34-.45,1.77-.57h0"/><path class="aa" d="M89.29,67.15l-.36,0-.48.14,0,0,.81-.2M94,65.45a10.08,10.08,0,0,1-1.88,1,6.87,6.87,0,0,0,1.88-1m-7.23-4.1c-.71,0-1,.69-1.21,1.53a11.55,11.55,0,0,0-.07,2.7l0,.24h0l.33,0a2.87,2.87,0,0,1,.56.14,5.18,5.18,0,0,1,2,1.34l.49-.14.36,0c.79-.2,1.6-.38,2.46-.58l.41-.13a10.08,10.08,0,0,0,1.88-1l.35-.26a10.58,10.58,0,0,0-2.71-1.85A21.88,21.88,0,0,0,88.32,62a2.67,2.67,0,0,0-1.51-.68"/><path class="ab" d="M91.09,88.32l-.25.35.08,0c0-.12.11-.24.17-.37m1.07-21.88-.41.13c-.86.2-1.67.38-2.46.58a10.68,10.68,0,0,0,2.87-.71m2.25-1.23-.37.24a6.87,6.87,0,0,1-1.88,1,10.68,10.68,0,0,1-2.87.71l-.81.2a12.47,12.47,0,0,1,1.41,1.74A21,21,0,0,1,91.56,72l.2.43c0,.25.09.5.13.73a15.27,15.27,0,0,0,4.22-1.58c-.22-2.5-.57-4.34-.57-4.34a3.92,3.92,0,0,0-1.13-2m0,0-.35.26.37-.24,0,0"/><path class="ac" d="M93.6,85.44a24.67,24.67,0,0,0-2.51,2.88c-.06.13-.12.25-.17.37a1.48,1.48,0,0,0,.41,0,2,2,0,0,0,1.38-.61,4.49,4.49,0,0,0,.92-1.41,11.9,11.9,0,0,1,0-1.28"/><path class="ad" d="M96.28,74.78l-1,1.07C94.16,77,93,78.14,91.94,79.11a4.81,4.81,0,0,1-.53,1.3,3.3,3.3,0,0,1-.37.49,2.73,2.73,0,0,1-1.11.77,2.55,2.55,0,0,1-.83.15h-.2a1.07,1.07,0,0,0-.6-.23,2,2,0,0,1-.51.08h0a8.67,8.67,0,0,0-3.13,2.68c-.79,1-1.52,2-2,2.7-.16.22-.29.42-.4.58a.87.87,0,0,1,.4-.09,4.12,4.12,0,0,1,1.66.59A2.06,2.06,0,0,1,86,87.56a9.33,9.33,0,0,1,1.47.13,21.57,21.57,0,0,1,2.5.55,2.64,2.64,0,0,0,.88.43l.25-.35a24.67,24.67,0,0,1,2.51-2.88c.05-1.08.32-1.25.32-1.25,1.92-1.59,2.42-5.66,2.36-9.41"/><path class="ae" d="M88.23,81.58a1.6,1.6,0,0,0-.47.08h0a2,2,0,0,0,.51-.08h-.07m7.88-10a15.27,15.27,0,0,1-4.22,1.58c.14.78.23,1.49.28,2.13a11.57,11.57,0,0,1-.23,3.85c1.08-1,2.22-2.11,3.33-3.26l1-1.07c0-.11,0-.23,0-.34,0-1-.09-2-.16-2.89"/><path class="af" d="M94.41,65.21l-.37.24a10.08,10.08,0,0,1-1.88,1,10.68,10.68,0,0,1-2.87.71l-.36,0-.49.14h0l.48-.14.36,0a10.68,10.68,0,0,0,2.87-.71,10.08,10.08,0,0,0,1.88-1l.37-.24h0"/><path class="ad" d="M82.21,87.62a.61.61,0,0,0-.3.47l.3-.47"/><path class="ag" d="M84.59,54a.7.7,0,0,0-.55.21c-.19.33-.61.46-.68.89,0,.95.2,2.22.29,3.28l.55-.32,1-.58a1.26,1.26,0,0,1,1.26-.71,2.83,2.83,0,0,1,.68.09h0c.44,0,1.42.9,2.17,1.73.25.32.41.81.67,1.13,1,1.17,2,1.53,2.89,3.12a2.8,2.8,0,0,0,1.59,1.23h0c.71,0,1.76-6.93,2-7.18.1-.17-.2-.75-.1-.92a1,1,0,0,1,.31-.05,6.62,6.62,0,0,1,2.28.9,2.22,2.22,0,0,0,.88.17,4.56,4.56,0,0,0,1.28-.22,5.87,5.87,0,0,1,.74-.22h0c.6,1.15,1.56,2.44,1.69,3.5a2.37,2.37,0,0,0,.36.55c.38.25.77.52,1.15.79.71-.21,2.21-1.11,1.51-1.25h.11c.93,0,.63-1.7,1.33-2.25.51-.48,1.74,0,2-.79.22-.43.34-1,.78-1a.79.79,0,0,1,.37.11,3.15,3.15,0,0,0,1.2.34h0c.58-.24.93-.82,1.58-.82l.28,0c.43.15,1,.56,1.5.72a.89.89,0,0,0,.3.06.36.36,0,0,0,.38-.3.35.35,0,0,1,.07-.15,1.53,1.53,0,0,1,.18-.18c.11-.1.2-.2.11-.39h0c-.24,0-.59-.26-.91-.31a1.87,1.87,0,0,0-.56-.07h-.48a1.79,1.79,0,0,1-.71-.13,20.5,20.5,0,0,0-2-.67H112a2.11,2.11,0,0,0-.77.13,6.19,6.19,0,0,0-3,1.34c.22,1-.73.84-1.16,1.1a.22.22,0,0,1-.12,0c-.14,0-.32,0-.5,0-.33.13-.5.52-.86.52a.75.75,0,0,1-.38-.12,25.57,25.57,0,0,0-4-2.24,22.73,22.73,0,0,0-5.09-.92h-.15c-1.05,0-1.36,1-2.24,1.25h0s-.07-.11-.12-.29a2.11,2.11,0,0,0-.23.19c0,.13-.06.42,0,.56a.64.64,0,0,1-.2,0,1.58,1.58,0,0,1-.6-.17c-2.65-1.67-4.58-.44-7-1.55a3.61,3.61,0,0,0-.88-.17"/><path class="ah" d="M104,60.59l.07.11a2.08,2.08,0,0,0,.73.57h0c0,.11,0,.15.1.15l.24,0c-.38-.27-.77-.54-1.15-.79"/><path class="ai" d="M98.83,84.66l0,.45c0,.21,0,.4,0,.59,0-.19,0-.38,0-.59l0-.45"/><path class="aj" d="M98.84,86.48h0c-.18,1.87-1,2.17-1,2.17l-.08,0h0c-.21,0-.49.28-.75.58s-.52.7-.57.76h0c.05-.06.29-.43.57-.76s.54-.57.75-.58h0l.08,0s.79-.3,1-2.17"/><path class="aj" d="M95.4,92.58h0a6.7,6.7,0,0,1-1.5,1h0l-.2,0h0l.2,0h0a6.7,6.7,0,0,0,1.5-1h0m1.13-2a2.51,2.51,0,0,1,0,.27,3.05,3.05,0,0,1-1,1.61l-.1.08.1-.08a3.05,3.05,0,0,0,1-1.61,2.51,2.51,0,0,0,0-.27m0-.1v0h0M96.46,90s0,0,0,.07a2,2,0,0,1,.06.47,2,2,0,0,0-.06-.47s0,0,0-.07"/><path class="ak" d="M88.5,93.28h0l.35,0h0l-.35,0"/><path class="ai" d="M88.85,93.31h0a5,5,0,0,1,1,.23l.22.08h0l-.22-.08a5,5,0,0,0-1-.23"/><path class="ai" d="M90,93.62s.73.06,1.46.06c-.73,0-1.46-.06-1.46-.06"/><path class="al" d="M109.15,52.36a5.09,5.09,0,0,0-1.92.33c-.29.12-.21.64-.31,1-.19.81-1.28.68-1.18,1.94,0,.14-.07.21-.2.21h-.08c-1.95-.89-3.73-1.68-5.57-2.47a17.53,17.53,0,0,0-4.83-.77H95a1.89,1.89,0,0,0-1.42,2.54c.05.18.1.29.12.29h0c.88-.21,1.19-1.24,2.24-1.25h.15a22.73,22.73,0,0,1,5.09.92,25.57,25.57,0,0,1,4,2.24.75.75,0,0,0,.38.12c.36,0,.53-.39.86-.52.18,0,.36,0,.5,0a.22.22,0,0,0,.12,0c.43-.26,1.38-.08,1.16-1.1a6.19,6.19,0,0,1,3-1.34,2.11,2.11,0,0,1,.77-.13h.22a20.5,20.5,0,0,1,2,.67,1.79,1.79,0,0,0,.71.13h.48a1.87,1.87,0,0,1,.56.07c.32,0,.67.28.91.31h0c0-.16.36-.2.17-.4a2.81,2.81,0,0,0-.8-.59c-1.09-.47-2.21-1.12-3.19-1.45a13.5,13.5,0,0,0-3.89-.72"/><path d="M124,79.47A6.21,6.21,0,0,1,125,78c1.68-1.28,3.43-2.45,5.12-3.71a4.26,4.26,0,0,0,1.07-1.17c.52-.86.87-1.82,1.46-2.62a2.07,2.07,0,0,0,.36-2.17c-1.22-3-2.43-6-4-9.06l.23,4.8-.52.06c-1.17-3.08-1.06-6.54-2.57-9.57.13,4.45,1.1,8.84.42,13.29-1.12-3.93-1-8.1-2.37-11.93-1.16.07-1.06.66-1,1.34.41,2.94.8,5.89,1.17,8.83a6.66,6.66,0,0,1-.14,2.89,3.58,3.58,0,0,1-.57-1c-.63-2.9-1.2-5.82-1.81-8.73a13,13,0,0,0-.49-1.45c-1,0-1.18.47-1.07,1.26.33,2.4.6,4.81.87,7.21.19,1.75.69,3.49.33,5.25l-.53.09q-1.27-5.91-2.53-11.82l-.49,0a5.62,5.62,0,0,0-.21,1.26c.23,2.88.51,5.76.75,8.64a1.63,1.63,0,0,1-.31,1c-1.77-2.78-1-6.17-2.35-9.41-2.12,1.47-4.12,2.78-6,4.22-.36.28-.4,1.09-.4,1.66,0,2.08.26,4.17-.64,6.27l-1-6.26-1.93,1c.45,3.67.87,7.18,1,10.7l-.62.1c-.64-3.11-1.27-6.23-1.91-9.37-2.41.89-2.37,1-2.11,3.15.36,3.09.56,6.19.62,9.33-1.47-3-1.49-6.49-2.51-10-1.31,1.64-.44,3-.47,4.3s.14,2.66.17,4,0,2.74,0,4.34c-1.08-1.34-1.11-1.66-1.33-5.12-.11-1.76-.4-3.51-.62-5.3-1.74.16-2.11,1.07-2,2.29.14,2.89.3,5.78.44,8.67a5.73,5.73,0,0,1-.16,1.83c-1.49-3.19-1.2-6.74-2-10.36l-1.93,1.15c.17,3.49.34,6.82.51,10.15-1.85-2.5-1.19-5.71-2.73-8.9a7.17,7.17,0,0,0-.41,1.73c.16,1.79.43,3.57.6,5.36.08.84,0,1.69,0,3-1.3-1.5-.87-2.92-1.2-4.11s-.62-2.54-1-4l-3.92,2,0,.06a7.09,7.09,0,0,1,1.25-1.59Q93.82,75.72,102,69.9c6.81-4.83,13.67-9.6,20.5-14.41,1.25-.88,2.64-1.64,3.14-3.47l-5.19-2.61c-2.22,1.47-4.53,2.92-6.76,4.48Q97.56,65.22,81.49,76.58q-6.6,4.68-13.09,9.52c-1.54,1.15-2.91,2.55-4.46,3.92a21.27,21.27,0,0,0,5.24,5A2.78,2.78,0,0,1,70.5,97c.42,2.38.89,4.76,1.4,7.12.84,3.9,1.72,7.78,2.57,11.67a1.74,1.74,0,0,1-.09.64c-1,.29-1.32-.42-1.55-1.06a25.36,25.36,0,0,1-.77-2.71c-1-4.33-2.1-8.66-3.1-13-.28-1.21-.36-2.47-.53-3.77a29,29,0,0,1-7.18-6.63,2.2,2.2,0,0,0,2.59-1.4,3.78,3.78,0,0,1,1.86-1.57,28.78,28.78,0,0,0,7.66-5.66,16.3,16.3,0,0,1,2-1.65c4.53-3.18,9.1-6.32,13.63-9.5q7.67-5.38,15.28-10.82c3.24-2.31,6.44-4.68,9.68-7,1.62-1.16,3.29-2.27,4.91-3.38a5,5,0,0,0-4.2-2.54c-5.77-.66-11.53-.73-17.32-.83-5.36-.1-10.83.33-16.06-1.39a3.17,3.17,0,0,0-3.37.86c-5.78,4.9-11.63,9.7-17.37,14.63-4.27,3.66-8.38,7.5-12.62,11.19-3.48,3-7,6-10.55,8.94-1.29,1.09-2.54,2.23-3.89,3.43a9.16,9.16,0,0,0,5.8,2.62c5.94.92,11.87,1.94,17.8,2.94.45.08.89.24,1.65.45a7.62,7.62,0,0,1-4,.41c-5.86-.94-11.74-1.8-17.6-2.74a25,25,0,0,1-4.53-1.12c-1.53-.54-2.86-.75-4.07.58-.2.22-.56.27-.82.43a5,5,0,0,0-2.48,3.48,27.44,27.44,0,0,1-1.25,4.75c-.81,2.1-1.86,4.1-2.81,6.15-.3.64-.62,1.26-.92,1.89-.56,1.16.06,1.53,1.21,1.71l4.9-10c.35,2-.71,3.49-1.38,5.13s-1.66,3.12-1,5.48c1.44-3.39,2.69-6.34,4-9.47.32,1.6.25,1.58-.91,4.9-.53,1.55-1.39,3.11-.73,5.38l4.43-10,.53.1A7.93,7.93,0,0,1,31,97.25c-.59,1.7-1.26,3.37-1.86,5.07a8.22,8.22,0,0,0-.59,2.25c0,.48.39,1,.84,2,1.56-3.69,2.9-6.79,5-9.47l.48.21c-.3.74-.58,1.49-.88,2.23-.72,1.81-1.54,3.58-2.13,5.44-.35,1.08-.18,1.14,1.25,1.51q2-4,4-8l.47.18c0,3-2.9,5.4-2.29,8.84,1.52-.81,1.32-2.38,2-3.38s1.3-2.06,2-3.09l.42.18c-.3.94-.61,1.87-.87,2.82a20,20,0,0,0-.69,3c-.05.43.3.9.47,1.36a4.83,4.83,0,0,0,1.16-1c.83-1.32,1.56-2.7,2.35-4,.14-.25.39-.44,1-.48-.5,1.25-1,2.51-1.49,3.74-.91,2.15-.78,2.59,1.42,3.2a85,85,0,0,0,12.51,2.8l1.89-3.78c1.27,1.48-.58,3.27,1.22,4.42l1.84-5,1.34,1.43,1.07-2.88c1.1,1.79-.3,3.22.36,5l.83-1.58c.89,2.12-.69,3.82-.1,5.58-6.73-1.25-13.42-2.23-19.9-4.3-3.68-1.18-7.43-2.14-11.16-3.14a13.72,13.72,0,0,0-2-.12,11.43,11.43,0,0,1-1.42-.26c-.06,0-.12-.16-.17-.15-1.92.15-3.5-1-5.27-1.39-1.52-.35-3.08-.51-4.59-.85a7.26,7.26,0,0,1-1.58-.83c2.27-6,5.78-11.36,5.85-17.25,3.23-2.75,6-5.2,8.88-7.54s6-4.7,8.95-7.09c4.54-3.69,9.25-7.21,13.52-11.2,4-3.79,8.06-7.61,12.36-11.12,2.84-2.31,5.68-4.63,8.46-7A20.82,20.82,0,0,0,78,41c.28,0,.92-.08,1.29.19C81.89,43,85,43.06,88,43.4c2.39.27,4.82.27,7.24.3,2.65,0,5.31-.12,8,0,2.88.09,5.76.33,8.64.55a22.77,22.77,0,0,0,3.73.37c2.42-.24,4.18,1,6,2.24.12.09.34.14.38.25.91,2.91,3.83,3.11,5.91,4.43.13.08.2.24.4.5-.47,1.07-.94,2.27,1,2.67.3.07.45.91.64,1.41,1.41,3.63,2.78,7.27,4.27,10.88a14.14,14.14,0,0,0,1.62,2.46c1,.11,1.47-1.63,2.56-.5,0,.18,0,.49-.18.59q-6.46,4.65-13,9.25a11.17,11.17,0,0,1-1.24.64Z"/><path d="M80.53,85.89a4.32,4.32,0,0,0-.93,3.25c.23,2,.3,4,.44,6.08,0,.82.09,1.65.14,2.48l-.56.1c-.57-3-1.15-5.94-1.72-8.91l-.56.08c-.47,3.46.1,6.94,0,10.44-1.46-2.6-.89-5.68-1.92-8.33-.74-.15-1.16,0-1.07.79.34,2.86.69,5.72,1,8.58,0,.17-.15.37-.38.89-1.08-3-.62-6-2.21-8.5l-.47.12q.58,5.39,1.18,10.77c-1.83-3.28-1.2-7.34-4-10.31,2.59-1.81,5.06-3.55,7.56-5.24,1.15-.79,2.36-1.49,3.55-2.23Z"/><path d="M123.93,79.41c-2.42,1.84-4.86,3.67-7.27,5.53-5.81,4.47-11.64,8.93-17.42,13.45-5.42,4.23-10.79,8.51-16.17,12.79-2,1.6-4,3.26-6,4.85a4.12,4.12,0,0,1-1.25.44l-.23-.42a7.84,7.84,0,0,1,.86-1c9.07-7.12,18.13-14.27,27.25-21.33,4.12-3.19,8.39-6.18,12.59-9.26,1.94-1.43,3.87-2.89,5.84-4.27a10.07,10.07,0,0,1,1.87-.78Z"/><path d="M80.59,86c2.1-2.12,2.54-2.43,3.88-2.74l0,0-3.89,2.73Z"/></svg>