<svg xmlns="http://www.w3.org/2000/svg" viewBox="0 0 150 150"><defs><style>.a{fill:#dad9d8;}.b{fill:#b1aeac;}.c{fill:#aeaaa8;}.d{fill:#b8b5b4;}.e{fill:#c9c7c6;}.f{fill:#e8e7e7;}.g{fill:#c5c3c2;}.h{fill:#f6f6f5;}</style></defs><title>icon</title><path class="a" d="M47.23,127a10.14,10.14,0,0,0,1.8.53h.06l-1.2-.51a.9.9,0,0,1-.25,0,2.17,2.17,0,0,1-.41,0m8-.77a6.86,6.86,0,0,1-2.84,1,4.71,4.71,0,0,0,2.84-1m.71-.86h0l0,.07,0-.08m2.87-.76a6.17,6.17,0,0,0-1.37.27c.57-.12,1.09-.17,1.58-.25l-.21,0m-18.23-.1.36.14c.72.33,1.4.66,2.06,1a8.85,8.85,0,0,0-2.42-1.09m15.56-10c-.81.13-2.11.34-3.16.56h.34a7.35,7.35,0,0,0,1.9-.26c.29-.08.6-.19.92-.31m6.71-7.88a1.67,1.67,0,0,0-.08.2,31.35,31.35,0,0,1-1.52,3.14,20.41,20.41,0,0,0,1.56-2.86s0-.18,0-.48m-5.72-3.34q-2.52,2-5.18,3.91a12.53,12.53,0,0,0,5.18-3.91m2.27-4.47c.14.15.3.32.48.49l.21-.16a5.53,5.53,0,0,0-.69-.33m-39-1.51a1,1,0,0,0-.65.37,10,10,0,0,0-2,7.25,3.86,3.86,0,0,0,.54,1.57,4.82,4.82,0,0,0,1,1.26,8.76,8.76,0,0,0,1.32,1c.47.33,1,.61,1.46.91A8,8,0,0,1,24.53,112c0-.11-.1-.3-.19-.53s-.35-.84-.6-1.35c-.52-.15-1-.31-1.54-.49a16.48,16.48,0,0,1-2.78-1.92,4.61,4.61,0,0,1-1.57-2.82,10,10,0,0,1,2-7.25,1,1,0,0,1,.58-.36m81.31-12.53a18.74,18.74,0,0,1-1.75.79c-.91.61-.95,1.76-1.6,2.65a2.91,2.91,0,0,1-1.43.56c-.92.1-.88,1-1.14,1.84-.17,1.13-1.74,1.24-2.35,2-.9,1-.69,3-2.11,3.25h.06c.51,0-.3.72-1.23,1.26a4.83,4.83,0,0,1-1.61.7c-.1,0-.13,0,0-.16h0a1.64,1.64,0,0,1-.79-.55c-.12-.23-.38-.55-.36-.7.15-1.2-.77-2.52-1.27-3.73h0c-.09,0-.44.13-.91.26a5.84,5.84,0,0,1-1.62.27,2.39,2.39,0,0,1-1-.21,6.68,6.68,0,0,0-2.58-1.15l-.23,0c-.17.16,0,.8-.21,1s-1.36,1.93-2.9,3.66-3.2,3.26-3.73,3.26h0c-.58-.24-1.39-1-1.39-1.65-.24-1.84-1.29-2.46-1.89-3.9-.13-.39,0-.92-.16-1.31-.47-1-1.2-2.22-1.81-2.34a3.75,3.75,0,0,0-1.66-.4,2.73,2.73,0,0,0-1.43.38c-.6.09-1.21.15-1.82.22a11.05,11.05,0,0,0-1.38,1.67c-.72.92-.84,1.55-1.18,1.55l-.12,0h0c-.17,0-.34,2.37-1.41,3.77,0,0,.2.26.55.64a13,13,0,0,1,2.06-2.53,3.61,3.61,0,0,1,2.29-1.1A2.71,2.71,0,0,1,65.52,96a26.94,26.94,0,0,1,3.78,2.3c1.81,1.36,3.52,3.11,2.77,4.92a40.56,40.56,0,0,1-4.21,7.33c-2.7,3.77-6.75,7.71-11,8.45,0,0-.9.07-2.47,2.22a10.17,10.17,0,0,1-2.53.88,6.57,6.57,0,0,1-1.26.13A3.55,3.55,0,0,1,47.7,121s-1.47-.87-3.22-1.67a12.08,12.08,0,0,0-4.36-1.3,2.86,2.86,0,0,0-.67.08,6.58,6.58,0,0,0-1.17-1,2.79,2.79,0,0,0-1.37-.52l-.86.23a1.38,1.38,0,0,1,.79-.24h.07l1.07-.29a27.44,27.44,0,0,1-3.27.23h-.34c-1.47,0-2.56-.29-2.77-.78a25.75,25.75,0,0,1-3.06-1,11.53,11.53,0,0,1-3.68-2.2c.17.27.33.55.49.84a32.21,32.21,0,0,1,2.12,5.14c.73,2.68,1.28,6.83,4.3,6.92a22.08,22.08,0,0,0,4.81-.92,9.45,9.45,0,0,1,2.17-.3h-.41a8,8,0,0,0-1.12.07,11.46,11.46,0,0,0-2.07.47,6.17,6.17,0,0,0-.85.31,6.17,6.17,0,0,1,.85-.31,11.46,11.46,0,0,1,2.07-.47,8,8,0,0,1,1.12-.07h.46a5.56,5.56,0,0,1,1.81.29A8.85,8.85,0,0,1,43,125.55a16.25,16.25,0,0,0,4,1.31.85.85,0,0,0,.19.09,2.17,2.17,0,0,0,.41,0,.9.9,0,0,0,.25,0l1.2.51c1.07-.17,2.23-.13,3.33-.24a6.86,6.86,0,0,0,2.84-1,3.67,3.67,0,0,0,.66-.78l0-.07h0l0-.06a9.72,9.72,0,0,1,1.47-.43,6.17,6.17,0,0,1,1.37-.27l.21,0a4.74,4.74,0,0,0,3-1.43c.48-.49,1-1,1.41-1.51l.3-.43h0l-.3.43c2-2.11,3.91-4.16,6.29-5.06a12.07,12.07,0,0,1,4.86-1h.2c.63,0,3.3,1.76,4.19,2.31a2.06,2.06,0,0,0,1.16.35c1.26,0,2.49-1.1,3.27-2.15a30.1,30.1,0,0,1,5.16-6.47c.79-.51,1.86-.3,2.82-.8,2.11-1.5,2.82-3.87,4.11-5.8a18.78,18.78,0,0,0,2.8-3.65,7.2,7.2,0,0,0,.82-2c.17-.86-.15-.89,0-.95.48-.6,1.74,0,2.59-.64a4.17,4.17,0,0,0,.81-3.79c-.29-1.66-.74-3.38-.9-4.9a8.45,8.45,0,0,1,0-2.36m.7-1.88-.23.08c0,.13,0,.28,0,.42a4.82,4.82,0,0,1,.27-.5"/><path class="b" d="M20.7,97.24a1.53,1.53,0,0,0-.3,0l.23,0a.78.78,0,0,1,.45.12c1,.63,1.05,2.33,2.05,3.34a3.82,3.82,0,0,0,.65.2.33.33,0,0,0,.17,0,.94.94,0,0,1,.52-.13h.19a35.9,35.9,0,0,1,4.61,2.19c1.86.55,3.31.42,5.31.77s3.59-.18,5.54.7a8.43,8.43,0,0,0,2.68.49,11.65,11.65,0,0,0,5-1.45c1.74-.8,6.66-2.46,8.06-4,.7-1,1.87-.8,2.64-1.68l.05,0h0c-.78.88-1.94.68-2.65,1.68-1.39,1.5-6.31,3.15-8,4a11.65,11.65,0,0,1-5,1.45,8.39,8.39,0,0,1-2.67-.48c-2-.89-3.62-.26-5.54-.71s-3.44-.21-5.3-.76a33.81,33.81,0,0,0-4.61-2.17h-.19a.94.94,0,0,0-.52.13.34.34,0,0,1-.17,0c-.22,0-.48-.18-.65-.2-1-1-1.06-2.7-2-3.33a.83.83,0,0,0-.45-.11"/><path class="c" d="M20.63,97.25l-.23,0a1,1,0,0,0-.58.36,10,10,0,0,0-2,7.25,4.61,4.61,0,0,0,1.57,2.82,16.48,16.48,0,0,0,2.78,1.92c.51.18,1,.34,1.54.49l-.08-.16A4.77,4.77,0,0,0,21,107.33a8.62,8.62,0,0,1-.74-1.06,10,10,0,0,1-1.09-2.3c-.39-1.34-.33-2.45.47-2.45a1.6,1.6,0,0,1,.67.19,2.47,2.47,0,0,0,.32.05l.77.11c.59.08,1.3.13,1.74.22a19.84,19.84,0,0,0,1.76,1,31,31,0,0,0,4.46,1.83c3.49,1.16,7.45,1.93,7.86,2.55a19.87,19.87,0,0,0,2.65.62,26.67,26.67,0,0,0,4.6.41q.85,0,1.74-.06a18.14,18.14,0,0,0,5.73-1.3q2.66-1.92,5.18-3.91a12.16,12.16,0,0,0,1.7-3.13s.43-.38,1-.85c-.18-.17-.34-.34-.48-.49a4.13,4.13,0,0,0-.5-.15l.14-.24c-.35-.38-.53-.61-.55-.64l-.05,0c-.77.88-1.94.68-2.64,1.68-1.4,1.5-6.32,3.16-8.06,4a11.65,11.65,0,0,1-5,1.45,8.43,8.43,0,0,1-2.68-.49c-1.95-.88-3.63-.26-5.54-.7s-3.45-.22-5.31-.77a35.9,35.9,0,0,0-4.61-2.19h-.19a.94.94,0,0,0-.52.13.33.33,0,0,1-.17,0,3.82,3.82,0,0,1-.65-.2c-1-1-1.06-2.71-2.05-3.34a.78.78,0,0,0-.45-.12"/><path class="d" d="M60.12,99.11l-.21.16c-.62.47-1,.85-1,.85a12.16,12.16,0,0,1-1.7,3.13A12.53,12.53,0,0,1,52,107.16a18.14,18.14,0,0,1-5.73,1.3q-.89.06-1.74.06a26.67,26.67,0,0,1-4.6-.41,19.87,19.87,0,0,1-2.65-.62c-.41-.62-4.37-1.39-7.86-2.55a31,31,0,0,1-4.46-1.83,19.84,19.84,0,0,1-1.76-1c-.44-.09-1.15-.14-1.74-.22l-.77-.11a2.47,2.47,0,0,1-.32-.05,1.6,1.6,0,0,0-.67-.19c-.8,0-.86,1.11-.47,2.45a10,10,0,0,0,1.09,2.3,8.62,8.62,0,0,0,.74,1.06A4.77,4.77,0,0,1,23.66,110l.08.16c.25.51.45,1,.6,1.35s.15.42.19.53l0,.14a2.2,2.2,0,0,0,.28.36,11.53,11.53,0,0,0,3.68,2.2,25.75,25.75,0,0,0,3.06,1c.21.49,1.3.74,2.77.78h.34a27.44,27.44,0,0,0,3.27-.23c1.35-.36,3.23-.84,5.16-1.29a31.47,31.47,0,0,1,6.06-.94,2.72,2.72,0,0,1,2.19.66A5,5,0,0,0,53,115c1.05-.22,2.35-.43,3.16-.56a11.53,11.53,0,0,0,5.11-4.54,31.35,31.35,0,0,0,1.52-3.14,1.67,1.67,0,0,1,.08-.2,14,14,0,0,0-.24-3.33,6.12,6.12,0,0,0-2.52-4.15"/><path class="e" d="M36.84,116.56a1.38,1.38,0,0,0-.79.24l.86-.23h-.07m26.58-21.8a3.61,3.61,0,0,0-2.29,1.1,13,13,0,0,0-2.06,2.53l-.14.24a4.13,4.13,0,0,1,.5.15,5.53,5.53,0,0,1,.69.33,6.12,6.12,0,0,1,2.52,4.15,14,14,0,0,1,.24,3.33c0,.3,0,.48,0,.48a20.41,20.41,0,0,1-1.56,2.86,11.53,11.53,0,0,1-5.11,4.54c-.32.12-.63.23-.92.31a7.35,7.35,0,0,1-1.9.26H53a5,5,0,0,1-1.62-.32,2.72,2.72,0,0,0-2.19-.66,31.47,31.47,0,0,0-6.06.94c-1.93.45-3.81.93-5.16,1.29l-1.07.29a2.79,2.79,0,0,1,1.37.52,6.58,6.58,0,0,1,1.17,1,2.86,2.86,0,0,1,.67-.08,12.08,12.08,0,0,1,4.36,1.3c1.75.8,3.22,1.67,3.22,1.67a3.55,3.55,0,0,0,2.9,1.24,6.57,6.57,0,0,0,1.26-.13,10.17,10.17,0,0,0,2.53-.88C56,119,56.86,119,56.86,119c4.25-.74,8.3-4.68,11-8.45a40.56,40.56,0,0,0,4.21-7.33c.75-1.81-1-3.56-2.77-4.92A26.94,26.94,0,0,0,65.52,96a2.71,2.71,0,0,0-2.1-1.21"/><path class="f" d="M88.54,97.65h0M102,82.36c-.21.26-.61.44-.91.76-.64.55-.85,1.32-1.61,1.68s-1.51.66-2.15,1.07a3.84,3.84,0,0,0-.93.91,25,25,0,0,0-3,3.37c.38,1.07-.78,1.34-1.29,1.8a2.81,2.81,0,0,1-.75.2c-.46.29-.69.9-1.24.9a.87.87,0,0,1-.31,0c-1.66-.66-3.13-1.34-4.48-1.84-.56-.2-1.81-.42-3-.68A25.28,25.28,0,0,0,79.66,90l-.23,0c-1,0-1.75.86-2.82.9,0,0,0-.12,0-.32l-.36.14c0,.14-.27.42-.31.56h-.1a1.55,1.55,0,0,1-.81-.32A8,8,0,0,0,71.11,89,11.77,11.77,0,0,1,67,87.43a3.69,3.69,0,0,0-1.5-.49A1.18,1.18,0,0,0,65,87c-.48.25-1.15.24-1.54.63-.67.9-1.24,2.2-1.86,3.23l1-.11c.61-.07,1.22-.13,1.82-.22a2.73,2.73,0,0,1,1.43-.38,3.75,3.75,0,0,1,1.66.4c.61.12,1.34,1.3,1.81,2.34.13.39,0,.92.16,1.31.6,1.44,1.65,2.06,1.89,3.9,0,.66.81,1.41,1.39,1.65h0c.53,0,2.28-1.58,3.73-3.26s2.66-3.56,2.9-3.66,0-.81.21-1l.23,0A6.68,6.68,0,0,1,82.47,93a2.39,2.39,0,0,0,1,.21A5.84,5.84,0,0,0,85.13,93c.47-.13.82-.26.91-.26h0c.5,1.21,1.42,2.53,1.27,3.73,0,.15.24.47.36.7a1.64,1.64,0,0,0,.79.55h0c-.09.11-.06.16,0,.16a4.83,4.83,0,0,0,1.61-.7c.93-.54,1.74-1.26,1.23-1.26h-.06c1.42-.21,1.21-2.26,2.11-3.25.61-.81,2.18-.92,2.35-2,.26-.81.22-1.74,1.14-1.84a2.91,2.91,0,0,0,1.43-.56c.65-.89.69-2,1.6-2.65a18.74,18.74,0,0,0,1.75-.79,1,1,0,0,0,.46-1.11,1.24,1.24,0,0,1,0-.27c0-.14,0-.29,0-.42s0-.49-.18-.58h0"/><path class="g" d="M49.14,127.49h0M56,125.33h0l0,.07a2.12,2.12,0,0,1-.66.78,6.86,6.86,0,0,1-2.84,1l-.21,0a18.37,18.37,0,0,1-2.84.22h0a18.37,18.37,0,0,0,2.84-.22l.21,0a6.86,6.86,0,0,0,2.84-1,2.12,2.12,0,0,0,.66-.78l0-.07h0m1.43-.47c-.67.19-1.29.42-1.41.46h0c.12,0,.74-.27,1.41-.46m3.23-.64h0a3.61,3.61,0,0,1-1.44.42h0a.34.34,0,0,0-.12-.06l-.21,0a6.17,6.17,0,0,0-1.37.27l-.09,0h0l.09,0a6.17,6.17,0,0,1,1.37-.27l.21,0a.34.34,0,0,1,.12.06h0a3.61,3.61,0,0,0,1.44-.42h0m-22.27-.06a8,8,0,0,0-1.12.07,11.46,11.46,0,0,0-2.07.47,6.17,6.17,0,0,0-.85.31,6.17,6.17,0,0,1,.85-.31,11.46,11.46,0,0,1,2.07-.47,8,8,0,0,1,1.12-.07m0,0h.41a8,8,0,0,1,1.86.29A8.85,8.85,0,0,1,43,125.55l.27.18s.93.38,2,.72a14.78,14.78,0,0,0,1.95.5,2.17,2.17,0,0,0,.41,0,.9.9,0,0,0,.25,0l1.2.51,0,0h0l0,0-1.2-.51a.9.9,0,0,1-.25,0,2.17,2.17,0,0,1-.41,0,14.78,14.78,0,0,1-1.95-.5c-1.05-.34-2-.72-2-.72h0l-.27-.18a8.85,8.85,0,0,0-2.42-1.09,8,8,0,0,0-1.86-.29h-.41m25.45-3-.3.43a8,8,0,0,1-2.88,2.58,8,8,0,0,0,2.88-2.58l.3-.43"/><path class="h" d="M101.77,81.7a2.53,2.53,0,0,0-.91.35,26.9,26.9,0,0,1-3.45,1.81c-2.35,1.31-4.34,2.1-5.68,3.38-.27.23-.06.74-.1,1.13-.07,1-1.25,1.23-1.1,2.56,0,.19-.13.31-.31.32a25,25,0,0,1-6.09-1.85,16.7,16.7,0,0,0-2.77-.73c-1-.22-2-.42-2.31-.45a2.49,2.49,0,0,0-2.45,2.3c0,.2,0,.32,0,.32,1.07,0,1.79-.9,2.82-.9l.23,0a25.28,25.28,0,0,1,2.72.52c1.17.26,2.42.48,3,.68,1.35.5,2.82,1.18,4.48,1.84a.87.87,0,0,0,.31,0c.55,0,.78-.61,1.24-.9a2.81,2.81,0,0,0,.75-.2c.51-.46,1.67-.73,1.29-1.8a25,25,0,0,1,3-3.37,3.84,3.84,0,0,1,.93-.91c.64-.41,1.47-.62,2.15-1.07s1-1.13,1.61-1.68c.3-.32.7-.5.91-.76h0c-.07-.24.12-.66-.12-.66h-.11"/><path class="a" d="M57,83.31a4.94,4.94,0,0,0,1.13.59h0l-.75-.56-.12,0a1.33,1.33,0,0,1-.3,0M62.16,83a3.56,3.56,0,0,1-1.86.86A2.4,2.4,0,0,0,62.16,83m.5-.8h0s0,0,0,.07a.3.3,0,0,1,0-.08m1.82-.5h0a4,4,0,0,0-.83.15,9.13,9.13,0,0,1,1.11-.1.68.68,0,0,0-.27,0m-11.63-1,.23.14c.47.33.9.66,1.32,1a4.59,4.59,0,0,0-1.55-1.1M63.42,71.4l-.64.06c-.48.06-1,.14-1.52.23a3.58,3.58,0,0,0,.6.06,3.64,3.64,0,0,0,.93-.13c.2-.06.41-.13.63-.22m5.28-7.18a1.34,1.34,0,0,0-.07.18,27.84,27.84,0,0,1-1.27,3,19.15,19.15,0,0,0,1.29-2.71l0-.47m-3.81-3.91C64,61.14,63,62,62.09,62.78l-1.15,1a9.9,9.9,0,0,0,1.18-.67,9.6,9.6,0,0,0,2.77-2.8m1.86-4.21.28.53.15-.13a2.72,2.72,0,0,0-.43-.4m-27.87-.54a1.06,1.06,0,0,0-.47.45,14.44,14.44,0,0,0-2,7.31c.08,2.24,1.56,3.05,3,4a5.83,5.83,0,0,1,1.86,2l-.14-.49c-.11-.34-.27-.79-.47-1.26-.39-.09-.79-.18-1.19-.3-1.43-.91-2.91-1.71-3-3.95a14.53,14.53,0,0,1,2-7.3,1,1,0,0,1,.43-.43m61.59-4.21-.19.23a2.45,2.45,0,0,1,.41-.12l-.22-.11M70.05,48.22a.51.51,0,0,0-.4.24l-.82,0c-.22.42-.46.93-.72,1.51-.41.82-.52,1.42-.72,1.42a.12.12,0,0,1-.08,0h0c-.11,0-.31,2.33-1.11,3.6,0,0,.13.29.33.7A17.19,17.19,0,0,1,68,53.37c.41-.5.81-.87,1.21-.87s.82.38,1.26,1.41c0,0,.27.29.67.75l1.55,1.83c1.16,1.45,2.61,3.18,2.32,4.95a21.12,21.12,0,0,1-2.67,7.09c-2.11,3.61-5.79,7.06-8.68,7.4,0,0-.62,0-1.76,2a4.68,4.68,0,0,1-2.31.79,2.19,2.19,0,0,1-2-1.38s-3.14-3.07-5-3.07a1.23,1.23,0,0,0-.47.09s-.89-1.44-1.73-1.45l-.56.25a.74.74,0,0,1,.55-.25h0l.72-.32a14.41,14.41,0,0,1-2.37.36H48.4a4.2,4.2,0,0,1-1-.11.9.9,0,0,1-.68-.49,17.7,17.7,0,0,1-2.31-.78,8.17,8.17,0,0,1-2.86-1.81,7.91,7.91,0,0,1,.39.77,36.83,36.83,0,0,1,1.79,4.89,39.25,39.25,0,0,0,1.16,4.3C45.41,81,46.13,82,47.16,82h.11a5.24,5.24,0,0,0,.91-.2c.23-.09.47-.19.7-.3.46-.22.92-.46,1.38-.66a4,4,0,0,1,1.4-.36H51.5a4.31,4.31,0,0,0-2.61,1,4.31,4.31,0,0,1,2.61-1h.25a2.38,2.38,0,0,1,1.1.27,4.59,4.59,0,0,1,1.55,1.1,9.24,9.24,0,0,0,2.53,1.39l.11.09a1.33,1.33,0,0,0,.3,0l.12,0,.75.56a4,4,0,0,1,.85-.07H60.3A3.56,3.56,0,0,0,62.16,83a3.44,3.44,0,0,0,.46-.72s0-.05,0-.07h0l0-.05a3.75,3.75,0,0,1,1-.3,4,4,0,0,1,.83-.15h0a.68.68,0,0,1,.27,0,3.12,3.12,0,0,0,2.35-1.12l1.21-1.36.28-.41-.28.41c1.71-1.91,3.48-3.78,5.6-4.59a11.86,11.86,0,0,1,4.5-1h0c.55,0,3,1.64,3.82,2.14a1.69,1.69,0,0,0,1,.31c1,0,1.87-1.11,2.27-2.14A20.52,20.52,0,0,1,88,68.11a1.29,1.29,0,0,1,.83-.2h.23a1.63,1.63,0,0,0,.76-.13c1.2-1,1.36-2.9,2.16-4.2a9.39,9.39,0,0,0,2.73-3.46c.19-.58,0-.76.08-.76h0a.34.34,0,0,1,.17,0,2,2,0,0,1,.8.38,1.9,1.9,0,0,0,.93.38h.1c.87-.31,1.23-1.44,1.25-2.44a21,21,0,0,1,.55-4,3.68,3.68,0,0,1,.8-1.52c-.52-.09-1.17-.45-1.62-.56h-.21c-.77,0-1.17.66-1.86.94h-.06a2.94,2.94,0,0,1-1.2-.34.86.86,0,0,0-.39-.12c-.46,0-.65.58-.95,1-.38.81-1.63.24-2.26.69C90,54.25,90,56,89,56l-.19,0c.82.22-1.54,1.18-2.18,1.18-.15,0-.2,0-.12-.16h0c-.11,0-.49-.36-.68-.66a3,3,0,0,1-.32-.72c.1-1.1-.66-2.52-1.06-3.76h0c-.11,0-.39.07-.75.14a6,6,0,0,1-1.25.15,2.46,2.46,0,0,1-1.24-.28,6,6,0,0,0-2.37-1.19.62.62,0,0,0-.19,0c-.12.15.07.77-.06.93A36,36,0,0,0,77,55.05c-.71,1.59-1.6,3.08-2,3.08h0a2.77,2.77,0,0,1-1.12-1.66c-.42-1.8-1.12-2.46-1.62-3.91-.12-.39-.14-.9-.27-1.29a10.07,10.07,0,0,0-1.11-2.45c-.3-.39-.56-.59-.8-.59"/><path class="b" d="M66.2,55c-.57.79-1.38.47-2,1.4-1.12,1.34-4.87,2.64-6.15,3.4a7.3,7.3,0,0,1-3.62,1.33,5,5,0,0,1-2-.47,3.37,3.37,0,0,0-1.84-.47l-.61,0h-.62a4.52,4.52,0,0,1-1-.1c-1.46-.22-2.43,0-3.7-.31-.57-.36-1.06-.67-1.52-.91-.24-.11-.44-.24-.67-.32s-.5-.19-.76-.28a.87.87,0,0,0-.53.23.23.23,0,0,1-.17.07.8.8,0,0,1-.21,0,.53.53,0,0,0-.2-.05h0c-.7-.85-.68-2.49-1.27-2.94a.24.24,0,0,0-.18-.06.67.67,0,0,0-.31.09.72.72,0,0,1,.27-.07.24.24,0,0,1,.17.06c.6.46.57,2.11,1.27,3h0a.49.49,0,0,1,.2.05,1,1,0,0,0,.22,0,.25.25,0,0,0,.17-.07.81.81,0,0,1,.52-.22c.26.1.53.17.77.28s.43.21.67.32c.47.24,1,.56,1.52.91,1.27.35,2.25.1,3.7.32a4.66,4.66,0,0,0,1,.1l.62,0h.6a3.4,3.4,0,0,1,1.84.46,4.85,4.85,0,0,0,2,.48,7.33,7.33,0,0,0,3.63-1.33c1.28-.76,5-2.06,6.14-3.4.58-.93,1.39-.61,2-1.4l0-.06h0"/><path class="c" d="M66.2,55l0,.06c-.57.79-1.38.47-2,1.4-1.12,1.34-4.86,2.64-6.14,3.4a7.33,7.33,0,0,1-3.63,1.33,4.85,4.85,0,0,1-2-.48,3.4,3.4,0,0,0-1.84-.46H50l-.62,0a4.66,4.66,0,0,1-1-.1c-1.45-.22-2.43,0-3.7-.32-.57-.35-1.05-.67-1.52-.91-.24-.11-.44-.23-.67-.32s-.51-.18-.77-.28a.81.81,0,0,0-.52.22.25.25,0,0,1-.17.07,1,1,0,0,1-.22,0,.49.49,0,0,0-.2-.05h0c-.7-.85-.67-2.5-1.27-3a.24.24,0,0,0-.17-.06.72.72,0,0,0-.27.07,1,1,0,0,0-.43.43,14.53,14.53,0,0,0-2,7.3c.08,2.24,1.56,3,3,3.95.4.12.8.21,1.19.3l-.06-.14c-.47-1-1-2.07-1.91-2.22a10.09,10.09,0,0,1-.49-.92,7.7,7.7,0,0,1-.67-2.08,4.2,4.2,0,0,1,0-1.92c.12-.33.29-.51.55-.51a1,1,0,0,1,.38.09h.79l1,0h.24l.32.21c.21.14.52.32.9.53a17.65,17.65,0,0,0,3,1.24c2.43.78,5.36,1.39,5.65,2a16.44,16.44,0,0,0,5.54,1c.28,0,.56,0,.85,0a11.19,11.19,0,0,0,4.11-1l1.15-1C63,62,64,61.14,64.89,60.31a12.25,12.25,0,0,0,1.4-3s.31-.32.74-.73l-.28-.53a1.85,1.85,0,0,0-.33-.21l.11-.22c-.2-.41-.31-.66-.33-.7"/><path class="d" d="M67.18,56.5l-.15.13c-.43.41-.74.73-.74.73a12.25,12.25,0,0,1-1.4,3,9.6,9.6,0,0,1-2.77,2.8,9.9,9.9,0,0,1-1.18.67,11.19,11.19,0,0,1-4.11,1c-.29,0-.57,0-.85,0a16.44,16.44,0,0,1-5.54-1c-.29-.63-3.22-1.24-5.65-2a17.65,17.65,0,0,1-3-1.24c-.38-.21-.69-.39-.9-.53l-.32-.21h-.24l-1,0H38.5a1,1,0,0,0-.38-.09c-.26,0-.43.18-.55.51a4.2,4.2,0,0,0,0,1.92,7.7,7.7,0,0,0,.67,2.08,10.09,10.09,0,0,0,.49.92c.92.15,1.44,1.18,1.91,2.22l.06.14c.2.47.36.92.47,1.26l.14.49.05.15a2.19,2.19,0,0,0,.23.33,8.17,8.17,0,0,0,2.86,1.81,17.7,17.7,0,0,0,2.31.78.9.9,0,0,0,.68.49,4.2,4.2,0,0,0,1,.11h.29a14.41,14.41,0,0,0,2.37-.36c1.84-.78,5.23-2.1,7.36-2.1.86,0,1.51.22,1.76.78a2.72,2.72,0,0,0,1.08.42c.48-.09,1-.17,1.52-.23l.64-.06a7,7,0,0,0,2.14-1.57,13,13,0,0,0,1.8-2.43,27.84,27.84,0,0,0,1.27-3,1.34,1.34,0,0,1,.07-.18,19.77,19.77,0,0,0,0-3.34,8.08,8.08,0,0,0-1.49-4.38"/><path class="e" d="M50.33,72.91a.74.74,0,0,0-.55.25l.56-.25h0M69.17,52.5c-.4,0-.8.37-1.21.87a17.19,17.19,0,0,0-1.43,2.3l-.11.22a1.85,1.85,0,0,1,.33.21,2.72,2.72,0,0,1,.43.4,8.08,8.08,0,0,1,1.49,4.38,19.77,19.77,0,0,1,0,3.34l0,.47a19.15,19.15,0,0,1-1.29,2.71,13,13,0,0,1-1.8,2.43,7,7,0,0,1-2.14,1.57c-.22.09-.43.16-.63.22a3.64,3.64,0,0,1-.93.13,3.58,3.58,0,0,1-.6-.06,2.72,2.72,0,0,1-1.08-.42c-.25-.56-.9-.78-1.76-.78-2.13,0-5.52,1.32-7.36,2.1l-.72.32c.84,0,1.73,1.45,1.73,1.45a1.23,1.23,0,0,1,.47-.09c1.82,0,5,3.07,5,3.07a2.19,2.19,0,0,0,2,1.38,4.68,4.68,0,0,0,2.31-.79c1.14-2,1.76-2,1.76-2,2.89-.34,6.57-3.79,8.68-7.4A21.12,21.12,0,0,0,75,61.44c.29-1.77-1.16-3.5-2.32-4.95L71.1,54.66c-.4-.46-.67-.75-.67-.75-.44-1-.85-1.41-1.26-1.41"/><path class="f" d="M86.56,56.92h0M69.66,45a.11.11,0,0,0-.07,0c-.12.2-.35.11-.48.44-.2.82-.44,2.05-.76,3h.48l.82,0a.51.51,0,0,1,.4-.24c.24,0,.5.2.8.59A10.07,10.07,0,0,1,72,51.26c.13.39.15.9.27,1.29.5,1.45,1.2,2.11,1.62,3.91A2.77,2.77,0,0,0,75,58.12h0c.36,0,1.25-1.49,2-3.08a36,36,0,0,1,1.59-3.48c.13-.16-.06-.78.06-.93a.62.62,0,0,1,.19,0,6,6,0,0,1,2.37,1.19,2.46,2.46,0,0,0,1.24.28,6,6,0,0,0,1.25-.15c.36-.07.64-.14.75-.14h0c.4,1.24,1.16,2.66,1.06,3.76a3,3,0,0,0,.32.72c.19.3.57.66.68.66h0c-.08.11,0,.16.12.16.64,0,3-1,2.18-1.18L89,56c1,0,1-1.7,1.86-2.2.63-.45,1.88.12,2.26-.69.3-.43.49-1,.95-1a.86.86,0,0,1,.39.12,2.94,2.94,0,0,0,1.2.34h.06c.69-.28,1.09-.94,1.86-.94h.21c.45.11,1.1.47,1.62.56a.82.82,0,0,0,.22,0,.5.5,0,0,0,.54-.4.42.42,0,0,1,.08-.18l.19-.23c.12-.14.21-.27.11-.44h0a2.93,2.93,0,0,1-.45-.07,2.09,2.09,0,0,0-.5-.08h-.24a3.66,3.66,0,0,0-.59.07,3.55,3.55,0,0,1-.57.07,1.52,1.52,0,0,1-.49-.08c-.68-.13-1.4-.47-2-.55h-.18a2.3,2.3,0,0,0-.85.15,8.22,8.22,0,0,0-3.29,1.24c.08,1.06-.91.81-1.41,1l-.08,0c-.16,0-.37-.09-.57-.11-.37.1-.63.46-1,.46a.77.77,0,0,1-.44-.17,22.55,22.55,0,0,0-3.92-2.67A18.11,18.11,0,0,0,81,49.3a20.09,20.09,0,0,0-2.61-.56h-.2c-.94,0-1.42.83-2.22.85h0s-.05-.12-.06-.31l-.25.13c0,.14-.12.4-.13.53h0a1.14,1.14,0,0,1-.65-.32c-2.08-2.25-3.62-1.82-4.66-3.94-.18-.27-.38-.67-.55-.67"/><path class="g" d="M63.6,81.84c-.46.14-.87.31-.94.34h0c.07,0,.48-.2.94-.34m.87-.16a4,4,0,0,0-.83.15h0a4,4,0,0,1,.83-.15m0,0h0a.68.68,0,0,1,.27,0l.08.06h0l-.08-.06a.68.68,0,0,0-.27,0m1.42-.16a2.27,2.27,0,0,1-1,.28,2.13,2.13,0,0,0,1-.28M51.5,80.46a4.31,4.31,0,0,0-2.61,1,4.31,4.31,0,0,1,2.61-1m0,0h.16a3.58,3.58,0,0,1,1.19.27,4.59,4.59,0,0,1,1.55,1.1l.17.18A14.1,14.1,0,0,0,57,83.31a1.33,1.33,0,0,0,.3,0l.12,0,.75.56,0,0s.28,0,.71,0a7.55,7.55,0,0,0,1.35-.11A3.56,3.56,0,0,0,62.16,83a2,2,0,0,0,.46-.72s0-.05,0-.07h0s0,0,0,.07a2,2,0,0,1-.46.72,3.56,3.56,0,0,1-1.86.86A7.55,7.55,0,0,1,59,84c-.43,0-.71,0-.71,0l0,0-.75-.56-.12,0a1.33,1.33,0,0,1-.3,0A14.1,14.1,0,0,1,54.57,82l-.17-.18a4.59,4.59,0,0,0-1.55-1.1,3.58,3.58,0,0,0-1.19-.27H51.5m17.09-1.62-.28.41a6.77,6.77,0,0,1-2.41,2.27h0a6.77,6.77,0,0,0,2.41-2.27l.28-.41"/><path class="h" d="M77.75,47A1.71,1.71,0,0,0,76,48.35a3,3,0,0,0-.06.92c0,.19,0,.31.06.31h0c.8,0,1.28-.85,2.22-.85h.2A20.09,20.09,0,0,1,81,49.3a18.11,18.11,0,0,1,2.89.9,22.55,22.55,0,0,1,3.92,2.67.77.77,0,0,0,.44.17c.36,0,.62-.36,1-.46.2,0,.41.11.57.11l.08,0c.5-.22,1.49,0,1.41-1a8.22,8.22,0,0,1,3.29-1.24,2.3,2.3,0,0,1,.85-.15h.18c.64.08,1.36.42,2,.55a1.52,1.52,0,0,0,.49.08,3.55,3.55,0,0,0,.57-.07,3.66,3.66,0,0,1,.59-.07h.24a2.09,2.09,0,0,1,.5.08,2.93,2.93,0,0,0,.45.07h0c0-.19.38-.3.16-.47a2.25,2.25,0,0,0-.9-.45c-1.19-.27-2.38-.8-3.38-1.07a19.67,19.67,0,0,0-4.28-.72,4.9,4.9,0,0,0-1.5.21c-.29.09-.27.62-.41.93-.29.81-1.39.58-1.51,1.86a.2.2,0,0,1-.22.2l-.11,0c-1.92-1.11-3.65-2.11-5.52-3.07a12.52,12.52,0,0,0-2.85-.85c-1.06-.22-2-.4-2.31-.43"/><path class="a" d="M120.79,94a.54.54,0,0,1-.36.09h0a5,5,0,0,0,1.15.26h.06l-.83-.34m-4.71-1.48.23.08,1.38.67a4.32,4.32,0,0,0-1.61-.75m8.72-.23a3,3,0,0,1-1.31,1.39l.24-.11a2.05,2.05,0,0,0,1.07-1.28m.14-.91h0v0m1.48-1.08a1.7,1.7,0,0,0-.81.46,7.72,7.72,0,0,1,.83-.45h0M121.64,81c-.36.2-.94.54-1.4.86a1.85,1.85,0,0,0,1-.47,2,2,0,0,0,.37-.39m.44-7.91a1.16,1.16,0,0,0,0,.18,29.35,29.35,0,0,1,.44,3,24.44,24.44,0,0,0-.31-2.74l-.17-.44m-20.42-1.6a1.66,1.66,0,0,0-.18.72,20.52,20.52,0,0,0,1,6.8,3,3,0,0,0,1.12,1.65,10.29,10.29,0,0,0,1.39.62,3.14,3.14,0,0,1,1.32,1.49,15.09,15.09,0,0,0-.59-1.59l-.7,0a10.42,10.42,0,0,1-1.4-.62A3,3,0,0,1,102.46,79a20.73,20.73,0,0,1-1-6.8,1.73,1.73,0,0,1,.16-.66m16.7-1.09c-.17,1-.4,1.91-.64,2.89-.1.4-.21.8-.32,1.19a4.93,4.93,0,0,0,.45-.89,7.44,7.44,0,0,0,.51-2.59c0-.19,0-.4,0-.6m-.68-4.3.37.43s0-.11,0-.16a2.28,2.28,0,0,0-.39-.27m21.52-6.59a.51.51,0,0,0-.07.17,1.66,1.66,0,0,1,.29-.09l-.22-.08m-22.65-1.34c-.18,0-.29.11-.31.33l-.53.22c0,.43.11,1,.22,1.54.11.84.3,1.42.18,1.42l0,0h0s.17.56.39,1.29a11,11,0,0,1,.5,2.24s.17.23.45.57a18.27,18.27,0,0,1-.17-2.4c0-.6.11-1.08.44-1.08s.64.29,1.26,1l.76.54c.46.35,1.1.84,1.77,1.38,1.35,1.11,3,2.55,3.42,4.18,0,0,.23.79.49,2a30,30,0,0,1,.62,4.79c.22,3.64-.52,7.73-2.55,8.93,0,0-.45.17-.64,2.39a4,4,0,0,1-1.1,1.17,1.9,1.9,0,0,1-1,.3,2,2,0,0,1-1.55-.89l-.65-.39c-.39-.24-.91-.52-1.47-.83a5.68,5.68,0,0,0-2.26-.79,1,1,0,0,0-.62.19,6.26,6.26,0,0,0-.79-.82,1.31,1.31,0,0,0-.73-.37h-.06l-.4.32a.51.51,0,0,1,.4-.32l.51-.42a6.07,6.07,0,0,1-2.37.73.77.77,0,0,1-.82-.45,11,11,0,0,1-1.54-.53,4.72,4.72,0,0,1-1.87-1.31c.1.22.21.44.31.68a44.22,44.22,0,0,1,1.64,4.53c.68,2.39,1.47,6.14,2.86,6.14l.18,0c1.29-.48,2.28-1.79,3.5-2.1a4,4,0,0,0-.83.24,4.08,4.08,0,0,0-1.45,1.13,4.08,4.08,0,0,1,1.45-1.13,4,4,0,0,1,.83-.24,2,2,0,0,1,.5-.06,1.94,1.94,0,0,1,.61.1,4.32,4.32,0,0,1,1.61.75,6.62,6.62,0,0,0,2.59.76l.13.06h0a.54.54,0,0,0,.36-.09l.83.34a19.71,19.71,0,0,1,1.87-.66,3,3,0,0,0,1.31-1.39,3.58,3.58,0,0,0,.14-.81v-.09h0v-.06a3.61,3.61,0,0,1,.67-.56,1.7,1.7,0,0,1,.81-.46h0a2.14,2.14,0,0,0,1.24-1.75c.09-.53.17-1.06.25-1.58,0-.14,0-.28,0-.43h0c0,.15,0,.29,0,.43.13-.83.25-1.64.39-2.4a6.31,6.31,0,0,1,1.12-3,3.52,3.52,0,0,1,2.29-1.42h0A20.53,20.53,0,0,1,135,81.81a1.43,1.43,0,0,0,.67.2c.78,0,1-1.09.92-2.06a17,17,0,0,1-.09-5.43c.23-.38,1-.14,1.33-.45.59-1,0-2.79.14-4,1.38-3.47.08-3.89.32-3.89h0a.16.16,0,0,1,.14,0,2.47,2.47,0,0,1,.72.21,2.45,2.45,0,0,0,.79.21.43.43,0,0,0,.17,0c.5-.35.26-1.28-.17-2.07-.8-1.69-1.73-3.41-1.31-4.29-.46-.05-1.13-.29-1.54-.35H137c-.7,0-.69.6-1.13.87h-.17a4,4,0,0,1-1-.18,1,1,0,0,0-.3-.06c-.4,0-.27.49-.29.88.11.69-1.08.34-1.33.75s.41,1.94-.38,1.94h-.07c.7.14-.65,1.1-1.07,1.1-.09,0-.14,0-.13-.13h0a2.79,2.79,0,0,1-.75-.52,4.65,4.65,0,0,1-.52-.59,17.87,17.87,0,0,0-2.36-3h0a2.71,2.71,0,0,0-.41.12,2.7,2.7,0,0,1-.7.11,2,2,0,0,1-1-.26,7.09,7.09,0,0,0-2-1.06h-.09c0,.13.35.66.33.79a4.56,4.56,0,0,0,.09,1c.06.56.13,1.29.17,2a18,18,0,0,1,0,2c0,.51-.14.85-.26.85h0a3.84,3.84,0,0,1-1.37-1.38,35.61,35.61,0,0,0-2.57-3.34c-.23-.34-.43-.8-.66-1.14a9.89,9.89,0,0,0-1.74-2,1.48,1.48,0,0,0-.77-.35"/><path class="b" d="M117,65.22c0,.84-.48.75-.41,1.7a6,6,0,0,1-.8,2.36c-.41.82-.94,1.46-1.17,1.94-.65,1.32-1.2,1.87-1.92,1.87a2.25,2.25,0,0,1-.93-.24,1.47,1.47,0,0,0-.84-.28,3,3,0,0,0-.6.09,2.51,2.51,0,0,1-.62.09l-.31,0h-.22a7.31,7.31,0,0,0-.84.07,6.8,6.8,0,0,1-.8.07,2.74,2.74,0,0,1-.48,0,4.38,4.38,0,0,0-2.2-.78h-.2a.83.83,0,0,0-.32.41c-.08.24-.3.15-.42.24-.64-.44-1.11-1.65-1.7-1.65a.32.32,0,0,0-.14,0c-.11,0-.26.21-.37.47a.81.81,0,0,1,.34-.42l.14,0c.59,0,1.07,1.21,1.71,1.65.12-.09.33,0,.42-.24a.83.83,0,0,1,.32-.41h.21a4.42,4.42,0,0,1,2.2.78,2.56,2.56,0,0,0,.47,0,7.17,7.17,0,0,0,.81-.07,7,7,0,0,1,.83-.06h.23l.31,0a2.51,2.51,0,0,0,.62-.09,3,3,0,0,1,.6-.09,1.45,1.45,0,0,1,.84.28,2.25,2.25,0,0,0,.93.24c.72,0,1.28-.55,1.93-1.86.23-.49.75-1.13,1.17-2a5.81,5.81,0,0,0,.8-2.36c-.07-1,.44-.85.42-1.7v0h0"/><path class="c" d="M117,65.23v0c0,.85-.49.75-.42,1.7a5.81,5.81,0,0,1-.8,2.36c-.42.82-.94,1.46-1.17,2-.65,1.31-1.21,1.86-1.93,1.86a2.25,2.25,0,0,1-.93-.24,1.45,1.45,0,0,0-.84-.28,3,3,0,0,0-.6.09,2.51,2.51,0,0,1-.62.09l-.31,0h-.23a7,7,0,0,0-.83.06,7.17,7.17,0,0,1-.81.07,2.56,2.56,0,0,1-.47,0,4.42,4.42,0,0,0-2.2-.78h-.21a.83.83,0,0,0-.32.41c-.09.24-.3.15-.42.24-.64-.44-1.12-1.65-1.71-1.65l-.14,0a.81.81,0,0,0-.34.42,1.73,1.73,0,0,0-.16.66,20.73,20.73,0,0,0,1,6.8,3,3,0,0,0,1.11,1.65,10.42,10.42,0,0,0,1.4.62l.7,0-.06-.12c-.36-.8-.8-1.55-1.28-1.55a.39.39,0,0,0-.18,0s-.2-.25-.47-.62a11,11,0,0,1-.86-1.48c-.53-1.1-.78-2.26,0-2.52l.51-.43a7.58,7.58,0,0,1,.83-.6l1,.26c.59.17,1.39.42,2.22.6,1.66.48,3.47.85,3.76,1.43l.35.13a4.61,4.61,0,0,0,.92.2,9.34,9.34,0,0,0,1,.06,4.91,4.91,0,0,0,1.9-.34,4.66,4.66,0,0,0,2.16-1.76c.11-.39.22-.79.32-1.19.24-1,.47-1.93.64-2.89a15.88,15.88,0,0,0-.41-3s0-.37.1-.83l-.37-.43a1.42,1.42,0,0,0-.25-.12l0-.22c-.28-.34-.42-.54-.45-.57"/><path class="d" d="M118.07,66.41s0,.11,0,.16c-.07.46-.1.83-.1.83a15.88,15.88,0,0,1,.41,3c0,.2,0,.41,0,.6a7.44,7.44,0,0,1-.51,2.59,4.93,4.93,0,0,1-.45.89,4.66,4.66,0,0,1-2.16,1.76,4.91,4.91,0,0,1-1.9.34,9.34,9.34,0,0,1-1-.06,4.61,4.61,0,0,1-.92-.2l-.35-.13c-.29-.58-2.1-1-3.76-1.43-.83-.18-1.63-.43-2.22-.6l-1-.26a7.58,7.58,0,0,0-.83.6l-.51.43c-.77.26-.52,1.42,0,2.52a11,11,0,0,0,.86,1.48c.27.37.47.62.47.62a.39.39,0,0,1,.18,0c.48,0,.92.75,1.28,1.55l.06.12a15.09,15.09,0,0,1,.59,1.59,1.26,1.26,0,0,1,0,.12,1.67,1.67,0,0,0,.18.28,4.72,4.72,0,0,0,1.87,1.31,11,11,0,0,0,1.54.53.77.77,0,0,0,.82.45,6.07,6.07,0,0,0,2.37-.73l.1-.08c.59-.49,1.37-1.17,2.17-1.76,1.13-.82,2.25-1.6,3.1-1.6a1.05,1.05,0,0,1,.9.46,1.68,1.68,0,0,0,.67.13l.22,0c.46-.32,1-.66,1.4-.86.59-.77,1-2.23.92-4.73a29.35,29.35,0,0,0-.44-3,1.16,1.16,0,0,1,0-.18,29,29,0,0,0-1.38-3,12.92,12.92,0,0,0-2.63-3.69"/><path class="e" d="M112.57,85.19a.51.51,0,0,0-.4.32l.4-.32m5.1-22.87c-.33,0-.42.48-.44,1.08a18.27,18.27,0,0,0,.17,2.4l0,.22a1.42,1.42,0,0,1,.25.12,2.28,2.28,0,0,1,.39.27,12.92,12.92,0,0,1,2.63,3.69,29,29,0,0,1,1.38,3l.17.44a24.44,24.44,0,0,1,.31,2.74c.13,2.5-.33,4-.92,4.73a2,2,0,0,1-.37.39,1.85,1.85,0,0,1-1,.47l-.22,0a1.68,1.68,0,0,1-.67-.13,1.05,1.05,0,0,0-.9-.46c-.85,0-2,.78-3.1,1.6-.8.59-1.58,1.27-2.17,1.76l-.1.08-.51.42h.06a1.31,1.31,0,0,1,.73.37,6.26,6.26,0,0,1,.79.82,1,1,0,0,1,.62-.19A5.68,5.68,0,0,1,117,87c.56.31,1.08.59,1.47.83l.65.39a2,2,0,0,0,1.55.89,1.9,1.9,0,0,0,1-.3,4,4,0,0,0,1.1-1.17c.19-2.22.64-2.39.64-2.39,2-1.2,2.77-5.29,2.55-8.93a30,30,0,0,0-.62-4.79c-.26-1.26-.49-2-.49-2-.46-1.63-2.07-3.07-3.42-4.18-.67-.54-1.31-1-1.77-1.38l-.76-.54c-.62-.74-1-1-1.26-1"/><path class="f" d="M115,55.36a.11.11,0,0,0-.1.06c0,.21-.25.19-.21.53.18.8.54,2,.76,2.92l.27-.11.53-.22c0-.22.13-.33.31-.33a1.48,1.48,0,0,1,.77.35,9.89,9.89,0,0,1,1.74,2c.23.34.43.8.66,1.14a35.61,35.61,0,0,1,2.57,3.34,3.84,3.84,0,0,0,1.37,1.38h0c.12,0,.21-.34.26-.85a18,18,0,0,0,0-2c0-.74-.11-1.47-.17-2a4.56,4.56,0,0,1-.09-1c0-.13-.35-.66-.33-.79h.09a7.09,7.09,0,0,1,2,1.06,2,2,0,0,0,1,.26,2.7,2.7,0,0,0,.7-.11,2.71,2.71,0,0,1,.41-.12h0a17.87,17.87,0,0,1,2.36,3,4.65,4.65,0,0,0,.52.59,2.79,2.79,0,0,0,.75.52h0c0,.09,0,.13.13.13.42,0,1.77-1,1.07-1.1h.07c.79,0,0-1.47.38-1.94s1.44-.06,1.33-.75c0-.39-.11-.88.29-.88a1,1,0,0,1,.3.06,4,4,0,0,0,1,.18h.17c.44-.27.43-.87,1.13-.87h.08c.41.06,1.08.3,1.54.35h.14c.24,0,.38-.08.33-.32a.33.33,0,0,1,0-.14.51.51,0,0,1,.07-.17.23.23,0,0,0-.07-.33h0a2.17,2.17,0,0,1-.4,0,3.34,3.34,0,0,0-.43-.05h-.17a2.73,2.73,0,0,0-.54.07,2,2,0,0,1-.51.08,1.48,1.48,0,0,1-.34,0c-.61-.06-1.31-.28-1.86-.29a1.52,1.52,0,0,0-.74.19,3.07,3.07,0,0,0-1.91,1.24c.55.83-.29.7-.54.92l-.09,0c-.11,0-.27,0-.41-.05s-.22.44-.5.44a.79.79,0,0,1-.35-.11c-1.4-.77-2.71-1.52-3.83-2.06-.46-.22-1.38-.52-2.2-.8s-1.63-.56-1.86-.58l-.19,0c-.26,0-.38.17-.5.34s-.24.34-.49.33h0a1.12,1.12,0,0,1-.16-.25l-.11.1c0,.11.07.34.11.45h0a1.1,1.1,0,0,1-.55-.28,8.69,8.69,0,0,0-2.57-1.62,6.61,6.61,0,0,1-2.22-1.4c-.23-.17-.55-.44-.72-.44"/><path class="g" d="M123.38,93.71a6.79,6.79,0,0,1-1.72.6,6.79,6.79,0,0,0,1.72-.6m-7.94-1.3a3.48,3.48,0,0,0-.47,0,4,4,0,0,0-.83.24,4.08,4.08,0,0,0-1.45,1.13,4.08,4.08,0,0,1,1.45-1.13,4,4,0,0,1,.83-.24,3.48,3.48,0,0,1,.47,0m0,0h0a3,3,0,0,1,.64.07,4.32,4.32,0,0,1,1.61.75l.19.14s.62.25,1.3.46a6,6,0,0,0,1.23.22h0a.54.54,0,0,0,.36-.09l.83.34h0l-.83-.34a.54.54,0,0,1-.36.09h0a6,6,0,0,1-1.23-.22c-.68-.21-1.3-.46-1.3-.46l-.19-.14a4.32,4.32,0,0,0-1.61-.75,3,3,0,0,0-.64-.07m9.5-.89a1.94,1.94,0,0,1-.14.73,3,3,0,0,1-1.31,1.39l-.11.07h0l.11-.07a3,3,0,0,0,1.31-1.39,1.94,1.94,0,0,0,.14-.73h0m0-.17h0v.17h0v-.17m2.33-1.7a.21.21,0,0,0,0,.06,1.29,1.29,0,0,1-.67.59l-.11,0h0a1.7,1.7,0,0,0-.81.46,8.76,8.76,0,0,0-.67.62h0a8.76,8.76,0,0,1,.67-.62,1.7,1.7,0,0,1,.81-.46h0l.11,0a1.29,1.29,0,0,0,.67-.59.21.21,0,0,1,0-.06m.69-3.14c0,.15,0,.29,0,.43a5.53,5.53,0,0,1-.67,2.71,5.53,5.53,0,0,0,.67-2.71c0-.14,0-.28,0-.43"/><path class="h" d="M121.26,56.71c-.65,0-.64.51-.49,1a4,4,0,0,0,.28.72l0,.07a1.12,1.12,0,0,0,.16.25h0c.25,0,.37-.16.49-.33s.24-.34.5-.34l.19,0c.23,0,1,.31,1.86.58s1.74.58,2.2.8c1.12.54,2.43,1.29,3.83,2.06a.79.79,0,0,0,.35.11c.28,0,.28-.33.5-.44s.3.05.41.05l.09,0c.25-.22,1.09-.09.54-.92a3.07,3.07,0,0,1,1.91-1.24,1.52,1.52,0,0,1,.74-.19c.55,0,1.25.23,1.86.29a1.48,1.48,0,0,0,.34,0,2,2,0,0,0,.51-.08,2.73,2.73,0,0,1,.54-.07h.17a3.34,3.34,0,0,1,.43.05,2.17,2.17,0,0,0,.4,0h0c0-.14.21-.22,0-.35a3.46,3.46,0,0,0-.93-.33c-1.11-.19-2.3-.55-3.23-.69a23.43,23.43,0,0,0-2.82-.27h-.26a3.42,3.42,0,0,0-1.66.31c-.17.09.1.5.15.76.18.66-.74.53-.2,1.55.06.12,0,.17-.08.17H130c-.92-.38-1.77-.76-2.59-1.13s-1.66-.8-2.46-1.21a14.06,14.06,0,0,0-2.09-.81c-.73-.24-1.39-.46-1.58-.5h0"/><path d="M88.54,70.33c-.52,1.38-.21,2,.85,2.55a64.36,64.36,0,0,1,6.78,3.69,15.87,15.87,0,0,1,7,10.1c1.49,6.18-.7,11-4.48,15.49-4.2,5-9.77,8-15.66,10.36a86.51,86.51,0,0,1-25.17,6.27,149.07,149.07,0,0,1-15.19,1,41.75,41.75,0,0,1-17.87-4.41c-6.84-3.4-12.43-8.21-15.47-15.37-2.77-6.5-2.25-12.9,1.88-18.7a29.66,29.66,0,0,1,7.57-7.91q1.95-1.29,4-2.4c1.43-.78,2.92-1.44,4.57-2.24-.16-.89-.27-1.73-.45-2.55-1.07-4.93.19-9.47,2.56-13.72a24.74,24.74,0,0,1,3.9-5.23,23.28,23.28,0,0,1,4.86-3.6,45.65,45.65,0,0,1,13.12-5.48c3.65-.83,7.39-1.25,11.08-1.88a45.61,45.61,0,0,0,5.49-1.11,37.2,37.2,0,0,1,12.28-1.26c6.95.2,13.88.58,20.68,2.28a26.25,26.25,0,0,1,11.93,6.66c1.73,1.65,2.13,4,2.21,6.29a33.9,33.9,0,0,1-.6,6.73A7.7,7.7,0,0,1,113,58.49a17.81,17.81,0,0,1-10.88,7.57c-2.86.73-5.59,1.92-8.41,2.83C91.94,69.45,90.14,69.89,88.54,70.33Zm-60.09.07c-.87.42-1.75.93-2.68,1.29-5.61,2.17-9.77,6-13.1,10.94A17,17,0,0,0,9.74,94c.54,6.54,4.24,11.44,9,15.37,5.71,4.72,12.55,7.21,19.91,8.23a40.59,40.59,0,0,0,11.44.06c4.25-.61,8.59-.64,12.83-1.29a83.49,83.49,0,0,0,22.59-6.86c5.58-2.6,10.47-6.1,14-11.45,3.26-5,2.82-10,.26-14.86-2.22-4.25-6.33-6.35-10.58-8.06a38,38,0,0,0-5.6-1.7,6.63,6.63,0,0,0-3.19,0c-3.66,1.07-7.29,2.27-10.9,3.51C63.85,78.8,58,79.33,52.16,79.55a80.56,80.56,0,0,1-12.37-.91,10.33,10.33,0,0,1-6.58-3.24C31.69,73.74,30.11,72.14,28.45,70.4Zm21.41,7.07c8.32-.25,14.89-1.06,21.23-3.27,4.36-1.53,8.68-3.12,13-4.65C85.74,69,87.48,68.71,89,68a81.71,81.71,0,0,1,12.44-4.13,17.32,17.32,0,0,0,8.72-5.21,11,11,0,0,0,2.32-3.73,15.26,15.26,0,0,0-.27-8.8A4.75,4.75,0,0,0,111,44.2a23.58,23.58,0,0,0-12.11-6.3A90.6,90.6,0,0,0,80,36c-4.12,0-8.24.61-12.36,1-.37,0-.7.32-1.07.42-1.79.5-3.59,1.38-5.38,1.38a33.12,33.12,0,0,0-10.58,1.6,66.12,66.12,0,0,0-8.29,3.22,32.82,32.82,0,0,0-6.7,4.27,19.81,19.81,0,0,0-5.9,9.43,21.17,21.17,0,0,0-1.07,6.18c0,4.61,2.92,7.76,6.15,10.62a8.06,8.06,0,0,0,4.3,2.25C43.23,76.84,47.35,77.21,49.86,77.47Z"/><path d="M117.52,50c.28-1.8,1.49-2.26,2.68-2.57a20.37,20.37,0,0,1,10.43,0,28.49,28.49,0,0,1,5.28,1.85c4.93,2.46,7.39,6.85,8.59,12a8,8,0,0,1-.33,4.59c-3.06,7.4-7.86,13.37-15.49,16.38-4.56,1.8-9.37,3-14.08,4.42-1.71.52-3.45,1-5.2,1.38s-3.34.74-4.23,2.45c-1.54-1.3-1.56-2.42,0-3,2.55-.94,5.19-1.65,7.78-2.48,5.28-1.66,10.58-3.29,15.84-5,3.54-1.18,6.05-3.85,8.45-6.51a22.94,22.94,0,0,0,4.72-7.2A8.63,8.63,0,0,0,142,59a16,16,0,0,0-5.79-7.18,13.51,13.51,0,0,0-3.11-1.5A28.42,28.42,0,0,0,117.52,50Z"/><path d="M34.05,120.21a6.76,6.76,0,0,1,1.3.14,21.67,21.67,0,0,0,9.73.72c1.37-.15,2.71-.59,4,.48.41.33,1.35.06,2,0,6.13-.39,12-2.28,17.9-3.6,2.81-.62,5.66-1.09,8.46-1.74a43.11,43.11,0,0,0,4.19-1.43c2-.72,4.1-1.46,6.15-2.17a4.4,4.4,0,0,1,1.12,0c-.22.41-.28.77-.47.85-2.27,1-4.56,2-6.83,3.06-3.46,1.58-7.18,1.94-10.86,2.6-3.21.58-6.36,1.55-9.56,2.2-4.13.83-8.3,1.52-12.45,2.25-.38.06-1,.13-1.12-.06-1.06-1.54-2.5-.68-3.82-.74-2.65-.1-5.3-.23-7.93-.52C35.06,122.17,33.76,122,34.05,120.21Z"/><path d="M109,93.39c-.53-1.45.12-1.92,1.13-2.26,3.9-1.31,7.75-2.8,11.71-3.93A54.44,54.44,0,0,0,132,83.26a17.08,17.08,0,0,1,2-.63c-.53.75-.69,1.18-1,1.37a35.87,35.87,0,0,1-9.54,4.32,54.7,54.7,0,0,0-12.32,4.34A13.8,13.8,0,0,1,109,93.39Z"/><path d="M122.9,61.41c-4.09.29-7.28,2.42-11.11,2.5A2.05,2.05,0,0,1,113,61.37c.45-.21,1.23.28,1.81.44,2-.57,4-1.18,6-1.7a2.61,2.61,0,0,1,1.35.23C122.28,60.39,122.38,60.68,122.9,61.41Z"/><path d="M124.93,53.66a5,5,0,0,1-4.63,1.5,1.76,1.76,0,0,1-1.69-1.87c0-1.11.81-1.4,1.66-1.63C122.26,51.12,123.65,52,124.93,53.66Z"/><path d="M130.85,53.89c-1,.46-1.9,1-2.9,1.36a1.25,1.25,0,0,1-1.72-1c-.1-.81.39-1.07,1.11-1.16a14.9,14.9,0,0,1,2-.35,5.08,5.08,0,0,1,1.53.5C130.9,53.44,130.87,53.67,130.85,53.89Z"/><path d="M107.07,69.71c-.83-.8-.36-1.3.26-1.7,1.55-1,3.27-.85,5-.81l.15.52c-.89.28-1.79.53-2.66.86S108,69.33,107.07,69.71Z"/><path d="M93.46,70.61l.88.93c-.34.31-.63.76-1,.91a4,4,0,0,1-1.81.22c-.43-.06-.81-.48-1.21-.73.3-.35.54-.86.92-1A10.57,10.57,0,0,1,93.46,70.61Z"/><path d="M31.58,81.26A4.14,4.14,0,0,0,28.48,83a5.89,5.89,0,0,1-2.76,1.47A3.89,3.89,0,0,0,23.22,86a2.47,2.47,0,0,1-3.08,1A1.64,1.64,0,0,1,19,85.14a2.61,2.61,0,0,1,1.77-2.68,31.5,31.5,0,0,0,4.39-2.52c1-.6,4.94-.55,5.84.17C31.23,80.28,31.28,80.63,31.58,81.26Zm-5.66.89.22.35,1-.61-.24-.39Z"/><path d="M85.83,78.62a7.22,7.22,0,0,1-6,2.09c-.86,0-1.66-.41-1.58-1.31a6.07,6.07,0,0,1,1-2.19c.08-.15.42-.15.65-.2,1.86-.43,3.6.3,5.36.66C85.47,77.72,85.61,78.26,85.83,78.62Z"/><path d="M53.84,94.7c-.57-.12-1.11-.07-1.33-.31a3.68,3.68,0,0,1-1-3.67,42.62,42.62,0,0,1,2-5c.23-.49.85-1.09,1.29-1.1a2.21,2.21,0,0,1,1.42,1c.49.73,0,1.41-.61,1.79-1.56,1-1.52,2.84-2.35,4.22C52.89,92.23,53.54,93.38,53.84,94.7Z"/><path d="M89.65,78.61l4,1.43,1.14-.61c.23.2.44.29.44.39a5.71,5.71,0,0,0,1.38,3.64c.5.59.8,1.22.08,1.82s-1.13.12-1.6-.37c-.65-.68-1.3-1.35-2-2A14.67,14.67,0,0,0,90.54,81C89.67,80.57,89.49,80,89.65,78.61Z"/><path d="M42.81,84.93c-4.51.79-5.59.54-6.65-1.67,1-.35,2-.7,3-1a.51.51,0,0,1,.44,0,11.82,11.82,0,0,0,1.57,1.52C41.67,84.11,42.57,83.78,42.81,84.93Z"/><path d="M68.75,83.12c-1.93.47-3.47.89-5,1.19-.31,0-.7-.38-1.05-.59.25-.32.45-.81.78-.92a24.5,24.5,0,0,1,3-.7A2.09,2.09,0,0,1,68.75,83.12Z"/><path d="M43.59,50.56a6.09,6.09,0,0,1-1.31-.14,1.66,1.66,0,0,1-.7-2.91,6.62,6.62,0,0,1,2.61-1.43c1.64-.42,3.36-.58,5.05-.84a1.1,1.1,0,0,1,.68,0c.34.27.8.6.85,1s-.45.84-.76.88a2,2,0,0,0-1.52,1.1A5.66,5.66,0,0,1,43.59,50.56Zm.55-2.44.11.38a4.89,4.89,0,0,0,.86-.2,1.68,1.68,0,0,0,.47-.42l-.19-.22Z"/><path d="M47.54,54c-1.39,1-3.5,0-5,1.59,2.14,1.15,3.79-.85,5.69-.57-1.3,2-4.47,3.11-6.27,2.3-.87-.39-1.54-1-1.36-1.93.13-.68.63-1.63,1.17-1.8a24.43,24.43,0,0,1,4.75-.89C47.18,52.61,47.7,53.05,47.54,54Z"/><path d="M58.8,47.56c.18-.62.25-1,.39-1.32a1,1,0,0,1,1.56-.41,1.08,1.08,0,0,1,.41,1.61c-.65,1.14-4.28,2.43-5.49,1.83-.49-.25-1.11-.83-1.13-1.28s.57-1.06,1-1.35C56.75,45.94,57.78,46.56,58.8,47.56Z"/><path d="M71.88,41.21c0-1.13.55-1.63,1.56-1.63a2.38,2.38,0,0,1,2.38,1.13A.81.81,0,0,1,75,42C74,41.77,73,41.47,71.88,41.21Z"/></svg>