<svg xmlns="http://www.w3.org/2000/svg" viewBox="0 0 150 150"><defs><style>.a{fill:#fde2c1;}.b{fill:#fbdbb6;}.c{fill:#fbd1a3;}.d{fill:#f9b674;}.e{fill:#f8b36e;}.f{fill:#fabb7e;}.g{fill:#facb99;}.h{fill:#fde9d1;}.i{fill:#fac893;}.j{fill:#f9d0a1;}.k{fill:#fff5ec;}</style></defs><title>icon</title><path class="a" d="M50.79,97.62h0a15.78,15.78,0,0,1-3.57.67h0a15.78,15.78,0,0,0,3.57-.67m-8.57-.81h0A4.44,4.44,0,0,0,44.29,98a6.82,6.82,0,0,0,2.19.33H46.4A6.67,6.67,0,0,1,44.29,98h0a4.44,4.44,0,0,1-2.07-1.18m0,0h0m0-.21a.54.54,0,0,1,0,.21h0a.54.54,0,0,0,0-.21h0m-4.45-2.84h0a3.46,3.46,0,0,1-1.15.18h0a3.46,3.46,0,0,0,1.15-.18m.17,0h0l.66.37c.42.22,1,.58,1.51.86l.08,0h0l-.08,0-.05,0c-.52-.28-1.06-.63-1.46-.84h0l-.66-.37M31.15,91.3l0,0h0l0,0h0m-3.56-4.19v.08s.32.5.87,1.22a23.29,23.29,0,0,0,2.47,2.7l.21.19-.21-.19-.1-.09a24.23,24.23,0,0,1-2.37-2.61h0c-.53-.7-.85-1.19-.87-1.22h0v-.08h0m-1.83-9h0l0,.94a21.13,21.13,0,0,0,.24,2.12,15.51,15.51,0,0,0,.75,3h0a15.51,15.51,0,0,1-.75-3A21.13,21.13,0,0,1,25.81,79l0-.94m.09-.49-.09.49h0l.09-.49h0m-.61-5.91a5.55,5.55,0,0,1,.58,1.42c.07.24.12.48.17.74h0c0-.26-.1-.5-.17-.74v-.06a6.25,6.25,0,0,0-.57-1.36h0"/><path class="b" d="M41.16,22.85a1.84,1.84,0,0,0-1.18.93,106,106,0,0,0-5,13.31,9.24,9.24,0,0,0-.48,2.75,5.91,5.91,0,0,0,.14,1.31c.25,1,.69,2,1,3a2.9,2.9,0,0,1,.13.89,7.32,7.32,0,0,1-.85,3,22.68,22.68,0,0,0,1.82-2.83c-.32-.37-.65-.73-1-1.09-.44-1.48-1.15-2.61-1.15-4.35A8.53,8.53,0,0,1,35.08,37a103.3,103.3,0,0,1,5-13.3,1.74,1.74,0,0,1,1-.89"/><path class="b" d="M34.5,48.81c-.24.43-.51.86-.8,1.31a35.35,35.35,0,0,1-2.79,3.63c-1.06,1.23-2.21,2.49-3.38,3.68-1.85,1.82-4.35,3.94-6.21,5.82-1.45,1.52-2.53,2.84-2.54,3.74a.91.91,0,0,0,.23.63,7.49,7.49,0,0,0,2,1.21c.77.38,1.6.77,2.33,1.19a5.87,5.87,0,0,1,1.91,1.66h0a5.47,5.47,0,0,0-1.11-1.38,6.53,6.53,0,0,0-2-1.22,5.23,5.23,0,0,0-1-.29h0a5.23,5.23,0,0,1,1,.29,6.53,6.53,0,0,1,2,1.22,5.47,5.47,0,0,1,1.11,1.38,3.89,3.89,0,0,1,.55,1.14,4.5,4.5,0,0,1,.2,1,7.83,7.83,0,0,1,.11,1.32h0v.13A12.26,12.26,0,0,1,26,76.59a9.4,9.4,0,0,1-.14,1v0q0,.75,0,1.47a14.48,14.48,0,0,0,.91,4.68h0c0,.09,0,.2,0,.33a1.8,1.8,0,0,0,.54.83l.25,2.17c1.2,1.18,2.32,2.84,3.6,4.22a9.86,9.86,0,0,0,4.65,2.54,4,4,0,0,0,.49,0,6.9,6.9,0,0,0,1.39-.14l.14,0h0l.12,0A17.43,17.43,0,0,1,40.14,95a5.37,5.37,0,0,1,2,1.6,3.92,3.92,0,0,0,.32.25,5.78,5.78,0,0,0,3.77,1.44,7.64,7.64,0,0,0,1-.07c1.17-.18,2.34-.39,3.5-.59.28-.08.57-.18.87-.28-.3.1-.59.2-.87.28h0c.28-.08.57-.18.87-.28-.3.1-.59.2-.87.28l1-.18c1.48-.25,2.92-.5,4.27-.75a24.5,24.5,0,0,1,3.86-.37h0a13.4,13.4,0,0,1,1.71.11,8.34,8.34,0,0,1,1.55.31,10,10,0,0,1,3,1.32,8.3,8.3,0,0,1,2.25,2.14,5.42,5.42,0,0,1,.26,2.31c0,.33,0,.68,0,1,0,1.61-.21,3.32-.29,4.17a2.16,2.16,0,0,0,0,.43,1.71,1.71,0,0,0,1.87,2,6.92,6.92,0,0,0,2.82-.79,33.94,33.94,0,0,1,5.38-2.57,20.08,20.08,0,0,1,4.77-1.16c.91.24.79,1.73,1.56,2.24a3.64,3.64,0,0,0,1,.13c2.08,0,4.61-1.37,6.74-1.52a20,20,0,0,0,5,.8,7,7,0,0,0,1.57-.16,3.52,3.52,0,0,0,1.26-.58s0,0,0,.05h0a.36.36,0,0,1,.13.32c0,.69-.9,2.18-.9,3a1,1,0,0,0,0,.26,1.49,1.49,0,0,0,1.39.63,8.26,8.26,0,0,0,2.67-.61,19.22,19.22,0,0,1,6-1.19q.42,0,.81,0a3.83,3.83,0,0,1,2.56,1c.34-.91,1.17-2.11,1.42-3a2.32,2.32,0,0,0,0-.44c0-1.36-1.28-2-1.87-3.14,0-.14,0-.28,0-.42A8.48,8.48,0,0,1,113,101a2,2,0,0,0,.11-.58c0-1.06-1.31-1.15-2.29-1.48-1.66-.17-1.29-2.75-2.51-3.58a3.1,3.1,0,0,0-1.94-.48h-.65l-.63,0c-1,0-1.77-.15-1.92-1.15,0,0,0,.08,0,.12,0,.22-.1.31-.27.31a5.4,5.4,0,0,1-2.29-1.58,3.41,3.41,0,0,1-1-1.43c0-.1.06-.15.19-.15h0a.22.22,0,0,1,0-.1,5,5,0,0,1,.58-1.7c.32-.41.72-1.14,1-1.25,1.91-.94,3.69-3.63,5.48-5.51v0a17.45,17.45,0,0,0-1.43-1.89,6.59,6.59,0,0,1-1.48-3.63h0c0-1,.13-2,.12-2.85a4,4,0,0,0-.69-2.7h0a1.88,1.88,0,0,0-.79.44,1.78,1.78,0,0,1-.8.45h0a.75.75,0,0,0-.26,0,14.67,14.67,0,0,0-2.34.32l-4.92,1a38.36,38.36,0,0,1-6.25,1c-.51,0-.84-.08-.89-.26a3,3,0,0,1,0-.45,6,6,0,0,1,1.09-3.41c2.15-3,2.16-5,3.53-7.71.4-.71,1.15-1.41,1.55-2.13a15.91,15.91,0,0,0,1.69-5,1,1,0,0,0,0-.27c0-1.67-.72-2.68-1.82-2.68h-.16l-1.3-1.13a23.14,23.14,0,0,0-3,1.43,23.75,23.75,0,0,1-2.53,1.44c-.09,0-.13-.06-.14-.17h0c-.21,0-3.39,3.26-5.92,4.4,0,.07-.24.54-.56,1.36a30.79,30.79,0,0,1,4.61-2,5.31,5.31,0,0,1,1.59-.29,1.36,1.36,0,0,1,1.54,1.56,8.26,8.26,0,0,1-.52,2.54s0,.46,0,1.24a55.33,55.33,0,0,1-.32,5.65c-.36,3.74-1.3,8.07-4.17,10.07,0,0-1.4,1-3.68,2.38a74,74,0,0,1-9,4.66A47.18,47.18,0,0,1,64,87.77c-1,.26-1.91.5-2.87.69a25.89,25.89,0,0,1-2.86.34c-.64,0-1.26.06-1.88.06a14.7,14.7,0,0,1-3.55-.37,12.47,12.47,0,0,1-4.5-2,2.53,2.53,0,0,0-1.07-.36A7.91,7.91,0,0,0,46,86a22.55,22.55,0,0,0-3.39.32,12.58,12.58,0,0,1-1.24-.47,10.13,10.13,0,0,1-2.56-1.59,6.62,6.62,0,0,1-2.07-2.76A4.39,4.39,0,0,1,36.5,80a5.21,5.21,0,0,1,.5-2.21s.06-.67.14-1.72.12-2.45.18-3.84c0-.4,0-.8,0-1.19,0-2.4-.24-4.63-1.42-5.37h0a8.68,8.68,0,0,0,1-3.23,1.52,1.52,0,0,0-.2-.84l-.25-.14-.67-.36h0a1.13,1.13,0,0,1,.92.5c.33.18.73.41,1.19.69-2-1.9-3.59-3.69-3.6-5a1.28,1.28,0,0,1,.35-.9s-.09-.35-.2-.93-.24-1.37-.32-2.2c0-.55-.08-1.11-.08-1.67a8.57,8.57,0,0,1,.42-2.86"/><path class="b" d="M79.12,60.92c-.11.33-.24.69-.37,1.09l.35,0c0-.24,0-.46,0-.68s0-.24,0-.36"/><path class="b" d="M71.48,65.35c-1,.14-2.09.27-3.16.37s-2.2.14-3.34.17c-.62,0-1.24,0-1.86,0h-.87a10.42,10.42,0,0,0,2.3.46,11.84,11.84,0,0,0,1.47.09c.41,0,.83,0,1.25-.06a16.18,16.18,0,0,0,3-.64c.39-.12.79-.26,1.19-.42"/><path class="b" d="M26,73.85c0,.15,0,.31,0,.48v0c-.05.83-.1,1.62-.15,2.39,0,.29,0,.57,0,.86a9.4,9.4,0,0,0,.14-1,12.26,12.26,0,0,0,.11-1.29v-.13A7.83,7.83,0,0,0,26,73.85"/><path class="b" d="M70.86,75.3l-.33.2A54.87,54.87,0,0,1,65,78.64,37,37,0,0,0,70.19,76l.67-.66"/><path class="b" d="M50.88,76.92a7.11,7.11,0,0,0,2.27,2.18,8.09,8.09,0,0,0,1.18.57l-1-.81c-.77-.63-1.66-1.34-2.47-1.94"/><path class="b" d="M26.8,84.11A6.65,6.65,0,0,0,27,85.38,8.93,8.93,0,0,0,27.53,87l.06.07-.25-2.17a1.8,1.8,0,0,1-.54-.83"/><path class="b" d="M31.19,91.33c.18.2.37.4.56.58a6.81,6.81,0,0,0,4.09,2,9.86,9.86,0,0,1-4.65-2.54"/><path class="b" d="M37.86,93.7l-.14,0,.17,0h0"/><path class="c" d="M37.86,93.7l-.14,0h0l.14,0h0"/><path class="b" d="M40.14,95l.47.33c.57.43,1.07.87,1.56,1.27a5.37,5.37,0,0,0-2-1.6"/><path class="b" d="M113.77,111.46a3.36,3.36,0,0,1,0,.56v.14q.14-.18.3-.36a2.19,2.19,0,0,0-.34-.34"/><path class="d" d="M42,22.7a2.43,2.43,0,0,0-.83.15,2.43,2.43,0,0,1,.7-.11,1.75,1.75,0,0,1,.8.18,4.26,4.26,0,0,1,1.47,1.36A9.23,9.23,0,0,1,45,26.2c.48,1.36.7,2.85,1.26,4,.39.17.79.8,1.27.8h.09a1.32,1.32,0,0,1,.27,0,2.39,2.39,0,0,1,1.07.32,14.71,14.71,0,0,1,3.73,7.54c1.22,2.52,2.78,3.83,3.83,6.28.76,2.37,2.78,3.33,2.77,6,0,.11,0,.22,0,.33a5.66,5.66,0,0,0,1.57,3.9,6.52,6.52,0,0,0,1.91,1.25,14.82,14.82,0,0,0,2.85.95c1.17.31,3.07,1,5,1.43a18.13,18.13,0,0,0,3.32.37,6.67,6.67,0,0,0,2.14-.3,3,3,0,0,1,1.27-.31,3.27,3.27,0,0,1,.79.11,3.86,3.86,0,0,0,.79.11,2.57,2.57,0,0,0,1-.2l.11,0h0a2.57,2.57,0,0,1-1,.2,3.27,3.27,0,0,1-.79-.11,3.67,3.67,0,0,0-.79-.11A3,3,0,0,0,76.2,59a6.86,6.86,0,0,1-2.17.3,18.67,18.67,0,0,1-3.29-.36c-2-.39-3.86-1.11-5-1.42a14.09,14.09,0,0,1-2.84-.94A6.37,6.37,0,0,1,61,55.33a5.61,5.61,0,0,1-1.57-3.9h0c0-.13,0-.25,0-.36,0-2.61-2-3.57-2.77-5.93-1-2.45-2.6-3.77-3.83-6.29a14.73,14.73,0,0,0-3.72-7.54A2.4,2.4,0,0,0,48,31a1.24,1.24,0,0,0-.27,0h-.09c-.49,0-.89-.62-1.28-.8-.56-1.19-.77-2.68-1.25-4a9.29,9.29,0,0,0-.84-1.92,4,4,0,0,0-1.48-1.36,1.6,1.6,0,0,0-.8-.19"/><path class="e" d="M41.86,22.74a2.43,2.43,0,0,0-.7.11,1.74,1.74,0,0,0-1,.89,103.3,103.3,0,0,0-5,13.3,8.53,8.53,0,0,0-.49,2.73c0,1.74.71,2.87,1.15,4.35.33.36.66.72,1,1.09l.12-.24a7.07,7.07,0,0,0,.93-3,1.49,1.49,0,0,0-.67-1.4h0s.06-.69.15-1.67.24-2.36.4-3.63c.29-2.13.75-4.24,2.14-4.24a2.17,2.17,0,0,1,1,.28l.52.1c.32.07.77.16,1.24.3a14.85,14.85,0,0,1,2.74,1s.69,1.08,1.64,2.73c.44.84,1,1.81,1.47,2.86s1,2.18,1.45,3.33c1.46,3.67,2.54,7.43,2.54,9.33A2,2,0,0,1,52.16,52a19.85,19.85,0,0,0,.74,3.25,19.19,19.19,0,0,0,3.54,6.63,12.83,12.83,0,0,0,5.81,4h.87c.62,0,1.24,0,1.86,0,1.14,0,2.25-.08,3.34-.17s2.13-.23,3.16-.37a25.25,25.25,0,0,0,5.45-3s.75-.18,1.73-.34l.09,0c.13-.4.26-.76.37-1.09a3.19,3.19,0,0,0-.09-.63h0l.41-.23c.32-.82.52-1.29.56-1.36l-.11,0a2.57,2.57,0,0,1-1,.2,3.86,3.86,0,0,1-.79-.11,3.27,3.27,0,0,0-.79-.11,3,3,0,0,0-1.27.31,6.67,6.67,0,0,1-2.14.3A18.13,18.13,0,0,1,70.62,59c-2-.4-3.87-1.12-5-1.43a14.82,14.82,0,0,1-2.85-.95,6.52,6.52,0,0,1-1.91-1.25,5.66,5.66,0,0,1-1.57-3.9h0c0-.11,0-.22,0-.33,0-2.63-2-3.59-2.77-6-1.05-2.45-2.61-3.76-3.83-6.28a14.71,14.71,0,0,0-3.73-7.54A2.39,2.39,0,0,0,47.86,31a1.32,1.32,0,0,0-.27,0H47.5c-.48,0-.88-.63-1.27-.8-.56-1.19-.78-2.68-1.26-4a9.23,9.23,0,0,0-.84-1.92,4.26,4.26,0,0,0-1.47-1.36,1.75,1.75,0,0,0-.8-.18"/><path class="f" d="M39.79,31c-1.39,0-1.85,2.11-2.14,4.24-.16,1.27-.32,2.64-.4,3.63s-.15,1.67-.15,1.67a1.49,1.49,0,0,1,.67,1.4,7.07,7.07,0,0,1-.93,3A20.74,20.74,0,0,1,34.9,48l-.16.2a4.87,4.87,0,0,0-.24.57,8.57,8.57,0,0,0-.42,2.86c0,.56,0,1.12.08,1.67.08.83.21,1.62.32,2.2s.2.93.2.93h0a1.28,1.28,0,0,0-.35.9c0,1.26,1.56,3.05,3.6,5l.31.19c1.45.86,3.39,2.12,5.3,3.54,3.34,2.52,6.71,5.37,6.71,7.73a2.21,2.21,0,0,1-.2.94,4.42,4.42,0,0,0,.45,1.54,5.79,5.79,0,0,0,.38.66c.81.6,1.7,1.31,2.47,1.94l1,.81a10,10,0,0,0,3.51.59A18.94,18.94,0,0,0,65,78.64a54.87,54.87,0,0,0,5.53-3.14l.33-.2a47.75,47.75,0,0,0,4.29-5.1C77,67.56,78.81,64.46,79.1,62l-.35,0-.09,0c-1,.16-1.73.34-1.73.34a25.25,25.25,0,0,1-5.45,3c-.4.16-.8.3-1.19.42a16.18,16.18,0,0,1-3,.64c-.42,0-.84.06-1.25.06a11.84,11.84,0,0,1-1.47-.09,10.42,10.42,0,0,1-2.3-.46,12.83,12.83,0,0,1-5.81-4,19.19,19.19,0,0,1-3.54-6.63A19.85,19.85,0,0,1,52.16,52h0A2,2,0,0,0,52.37,51c0-1.9-1.08-5.66-2.54-9.33-.43-1.15-1-2.27-1.45-3.33s-1-2-1.47-2.86c-.95-1.65-1.64-2.73-1.64-2.73a14.85,14.85,0,0,0-2.74-1c-.47-.14-.92-.23-1.24-.3l-.52-.1a2.17,2.17,0,0,0-1-.28"/><path class="g" d="M85.64,57.73a5.31,5.31,0,0,0-1.59.29,30.79,30.79,0,0,0-4.61,2l-.41.23a4.48,4.48,0,0,1,.11,1c0,.22,0,.44,0,.68-.29,2.5-2.06,5.6-3.95,8.24a47.75,47.75,0,0,1-4.29,5.1l-.67.66A37,37,0,0,1,65,78.64a18.94,18.94,0,0,1-7.16,1.62,10,10,0,0,1-3.51-.59,8.09,8.09,0,0,1-1.18-.57,7.11,7.11,0,0,1-2.27-2.18,5.79,5.79,0,0,1-.38-.66,4.42,4.42,0,0,1-.45-1.54h0a2.21,2.21,0,0,0,.2-.94c0-2.36-3.37-5.21-6.71-7.73-1.91-1.42-3.85-2.68-5.3-3.54l-.31-.19c-.46-.28-.86-.51-1.19-.69a1.52,1.52,0,0,1,.2.84,8.68,8.68,0,0,1-1,3.23c1.18.74,1.42,3,1.42,5.37,0,.39,0,.79,0,1.19-.06,1.39-.1,2.81-.18,3.84S37,77.82,37,77.82A5.21,5.21,0,0,0,36.5,80a4.39,4.39,0,0,0,.26,1.51,6.62,6.62,0,0,0,2.07,2.76,10.13,10.13,0,0,0,2.56,1.59,12.58,12.58,0,0,0,1.24.47A22.55,22.55,0,0,1,46,86a7.91,7.91,0,0,1,1.24.09,2.53,2.53,0,0,1,1.07.36,12.47,12.47,0,0,0,4.5,2,14.7,14.7,0,0,0,3.55.37c.62,0,1.24,0,1.88-.06a25.89,25.89,0,0,0,2.86-.34c1-.19,1.92-.43,2.87-.69a47.18,47.18,0,0,0,5.55-1.94,74,74,0,0,0,9-4.66c2.28-1.39,3.68-2.38,3.68-2.38,2.87-2,3.81-6.33,4.17-10.07a55.33,55.33,0,0,0,.32-5.65c0-.78,0-1.24,0-1.24h0a8.26,8.26,0,0,0,.52-2.54,1.36,1.36,0,0,0-1.54-1.56"/><path class="g" d="M35.82,61.13l.67.36.25.14a1.13,1.13,0,0,0-.92-.5"/><path class="h" d="M96.43,47.5a.85.85,0,0,0-.37.08c-1.49.86-3.47,2.37-5.17,3.44l2,1.72H93c1.1,0,1.78,1,1.82,2.68a1,1,0,0,1,0,.27,15.91,15.91,0,0,1-1.69,5c-.4.72-1.15,1.42-1.55,2.13-1.37,2.75-1.38,4.71-3.53,7.71A6,6,0,0,0,87,73.89a3,3,0,0,0,0,.45c0,.18.38.26.89.26a38.36,38.36,0,0,0,6.25-1l4.92-1a14.67,14.67,0,0,1,2.34-.32.75.75,0,0,1,.26,0h0a1.78,1.78,0,0,0,.8-.45,1.88,1.88,0,0,1,.79-.44h0a4,4,0,0,1,.69,2.7c0,.89-.08,1.88-.12,2.85a6.59,6.59,0,0,0,1.48,3.63,17.45,17.45,0,0,1,1.43,1.89v0c-1.79,1.88-3.57,4.57-5.48,5.51-.24.11-.64.84-1,1.25a5,5,0,0,0-.58,1.7.22.22,0,0,0,0,.1h0c-.13,0-.19,0-.19.15a3.41,3.41,0,0,0,1,1.43,5.4,5.4,0,0,0,2.29,1.58c.17,0,.27-.09.27-.31,0,0,0-.07,0-.12h0c.15,1,1,1.15,1.92,1.15l.63,0h.65a3.1,3.1,0,0,1,1.94.48c1.22.83.85,3.41,2.51,3.58,1,.33,2.29.42,2.29,1.48a2,2,0,0,1-.11.58,8.48,8.48,0,0,0-.35,2.07c0,.14,0,.28,0,.42.59,1.15,1.87,1.78,1.87,3.14a2.32,2.32,0,0,1,0,.44c-.25.87-1.08,2.07-1.42,3a2,2,0,0,0-.15.66.62.62,0,0,0,.55.64.66.66,0,0,1,.27.12c.3.21.44.61.8.61a.71.71,0,0,0,.29-.07h0c.1-.45.58-1.11.71-1.73a3.87,3.87,0,0,0,.18-1.26c0-.23,0-.47,0-.71a4,4,0,0,1,.26-1.52,21.22,21.22,0,0,0,1.06-4,4.62,4.62,0,0,0-.51-2.07,12.68,12.68,0,0,0-1.62-3.37,10.13,10.13,0,0,0-2.39-2.61,2.24,2.24,0,0,1-.85.2c-1.18,0-1.38-1.47-2-2.11a5.46,5.46,0,0,1-.3-1.25c-.56-.69-1.66-.75-1.66-1.83a2.68,2.68,0,0,1,0-.45A37.73,37.73,0,0,0,109.16,80v0a29.85,29.85,0,0,0-1.07-5.82,28.66,28.66,0,0,0-1.7-5.08c-.92-2-3.23-1.91-4.3-3.32h0a1.6,1.6,0,0,1,.44-.43L102,65c-.23.14-.85.23-1.08.36a2.25,2.25,0,0,1-.42-1.58h0a15.19,15.19,0,0,0,.16-2,13.89,13.89,0,0,0-1.09-5.23,16.47,16.47,0,0,1-1.17-5.22,8.94,8.94,0,0,1,.07-1.14c0-.86,0-2.14-.71-2.28-.48,0-.87-.37-1.33-.37"/><path class="a" d="M25.24,71.69a6.25,6.25,0,0,1,.57,1.36v.06c.07.24.12.48.17.74h0c0-.26-.1-.5-.17-.74a5.55,5.55,0,0,0-.58-1.42h0"/><path class="i" d="M24.13,70.31a5.47,5.47,0,0,1,1.11,1.38,6.25,6.25,0,0,1,.57,1.36,6.25,6.25,0,0,0-.57-1.36,5.47,5.47,0,0,0-1.11-1.38M21.07,68.8a5.23,5.23,0,0,1,1,.29,5.23,5.23,0,0,0-1-.29"/><path class="i" d="M26.1,75.3A12.26,12.26,0,0,1,26,76.59a12.26,12.26,0,0,0,.11-1.29m0-.13h0"/><path class="a" d="M27.59,87.11v.08h0s.34.52.87,1.22h0A24.23,24.23,0,0,0,30.84,91l.1.09.21.19-.21-.19a23.29,23.29,0,0,1-2.47-2.7c-.55-.72-.87-1.22-.87-1.22v-.08h0"/><path class="i" d="M28.47,88.41A24.23,24.23,0,0,0,30.84,91a24.23,24.23,0,0,1-2.37-2.61m-.87-1.22s.34.52.87,1.22c-.53-.7-.85-1.19-.87-1.22"/><path class="i" d="M31.15,91.3l0,0c1.6,1.43,3.6,2.6,5.38,2.6a4.59,4.59,0,0,1-.73-.06,9.86,9.86,0,0,1-4.65-2.54l0,0"/><path class="a" d="M35.84,93.87a4.59,4.59,0,0,0,.73.06h0a4.59,4.59,0,0,1-.73-.06h0m2-.16h0l.66.37h0c.4.21.94.56,1.46.84l.05,0,.08,0h0l-.08,0c-.54-.28-1.09-.64-1.51-.86l-.66-.37"/><path class="i" d="M38.55,94.08c.4.21.94.56,1.46.84-.52-.28-1.06-.63-1.46-.84"/><path class="j" d="M37.86,93.7l-.14,0h0l.14,0h0"/><path class="i" d="M37.86,93.7h0l.66.37-.66-.37h0"/><path class="a" d="M42.22,96.81h0A4.44,4.44,0,0,0,44.29,98h0a6.67,6.67,0,0,0,2.11.33h.08A6.82,6.82,0,0,1,44.29,98a4.44,4.44,0,0,1-2.07-1.18"/><path class="i" d="M44.29,98a6.67,6.67,0,0,0,2.11.33A6.67,6.67,0,0,1,44.29,98m-2.07-1.18h0"/><path class="i" d="M47.22,98.29l-.74,0,.74,0"/><path class="k" d="M105.32,64.22a3.7,3.7,0,0,0-1.12.18,5.39,5.39,0,0,0-1.67.89,1.6,1.6,0,0,0-.44.43h0c1.07,1.41,3.38,1.34,4.3,3.32a28.66,28.66,0,0,1,1.7,5.08A29.85,29.85,0,0,1,109.16,80v0a37.73,37.73,0,0,1-1.41,9.28,2.68,2.68,0,0,0,0,.45c0,1.08,1.1,1.14,1.66,1.83a5.46,5.46,0,0,0,.3,1.25c.65.64.85,2.11,2,2.11a2.24,2.24,0,0,0,.85-.2,10.13,10.13,0,0,1,2.39,2.61,12.68,12.68,0,0,1,1.62,3.37,4.62,4.62,0,0,1,.51,2.07h0a21.22,21.22,0,0,1-1.06,4,4,4,0,0,0-.26,1.52c0,.24,0,.48,0,.71a3.87,3.87,0,0,1-.18,1.26c-.13.62-.61,1.28-.71,1.73.24.07.32.43.54.43a.41.41,0,0,0,.24-.11,4.8,4.8,0,0,0,1.27-1.48,40.18,40.18,0,0,0,2.94-6.41,22.25,22.25,0,0,0,.69-5.27,12.91,12.91,0,0,0-2-7.41c-.42-.62-1.48-.36-2.23-.47-1.58-.11-2.13-1.91-3.89-1.91a3.42,3.42,0,0,0-.89.13.38.38,0,0,1-.17,0c-.24,0-.39-.23-.43-.5h0c.25-2.18.42-4.3.51-6.41.08-1.81.14-3.55.14-5.34,0-.29,0-.59,0-.88h0v-.14a22.7,22.7,0,0,0-1.21-5.64,42.18,42.18,0,0,0-1.72-4.52,4.07,4.07,0,0,0-3.29-1.89"/><path d="M45.53,28.28a73.3,73.3,0,0,1,4.81-6.13A8.89,8.89,0,0,1,54.15,20c2.17-.66,4.46-.88,6.69-1.36,3-.63,5.59.44,8.21,1.53a2.64,2.64,0,0,1,1,1,33.19,33.19,0,0,0,2.41,3.49c3.37,3.62,5.94,7.83,8.84,11.78,4.44,6,8.1,12.57,12.19,18.82a142.6,142.6,0,0,0,9.79,12.94A181,181,0,0,1,114.17,83c1.7,2.53,3.74,4.83,5.63,7.23s3.86,4.94,5.8,7.4a8.23,8.23,0,0,0,1.09,1.32c2.23,1.88,2.87,4.4,3,7.15a3,3,0,0,0,.36,1.4c1.91,3.16,1.44,6.32,0,9.47-.55,1.23-1.13,2.45-1.78,3.64a6.21,6.21,0,0,1-4.86,3.44c-2.68.28-5.5.68-8.07.14a11.46,11.46,0,0,1-8.54-6.44c-.11-.25-.25-.49-.6-1.16-.21,1.3-.36,2.21-.51,3.11a11.15,11.15,0,0,1-6,8.31,16,16,0,0,1-7.56,1.93c-1.78,0-3.56.07-5.35.11a6.79,6.79,0,0,1-5.23-2,55.5,55.5,0,0,1-4.37-5.5c-1.37-1.88-2.42-4-3.94-5.78C68.05,110.71,62.61,105,57.48,99A289.49,289.49,0,0,1,39,75.67a174.61,174.61,0,0,1-11.85-19A32.66,32.66,0,0,0,24.59,53a25.3,25.3,0,0,1-3-4.4A10.46,10.46,0,0,1,21,44a5,5,0,0,0-.25-3,5.68,5.68,0,0,1,.07-5.27,16.32,16.32,0,0,1,9.69-9,29.7,29.7,0,0,1,7.15-1.83,7.08,7.08,0,0,1,4.84,1.16C43.52,26.8,44.54,27.57,45.53,28.28ZM100,99.81l-1.58,2.42,1.17,1.47c2.16-1.43,3-1.27,3.49.73l-1.65-.2-.37,1.23c2.73,1.29,3.43,4.05,4.77,6.48.79-2.07,1.5-3.9,2.13-5.56l-4.1-5.73c1-.91,1.35-.23,1.81.31,1.13,1.33,2,2.92,3.74,3.81l4.16-3.32a19.66,19.66,0,0,1-4.21-6.61,4.13,4.13,0,0,1,1.52,1c1.08,1,2.14,2.08,3.22,3.11a2.49,2.49,0,0,0,1.87.77,10,10,0,0,1,3.63.67,18.24,18.24,0,0,0,6.86,1c-2.17-2.79-4.32-5.52-6.43-8.3C117,89.1,113.76,85.18,111,81c-3.17-4.76-6.62-9.28-10.19-13.73-2.77-3.45-5.57-6.88-8-10.53-3.43-5.07-6.42-10.43-9.87-15.48C79,35.66,75.5,29.85,70.82,24.9a18.23,18.23,0,0,1-1.59-2,5.77,5.77,0,0,0-6.85-2.13L71,33.16c-.81.75-1.41.56-1.92-.07Q67.51,31.08,66,29c-1.68-2.29-3.29-4.63-5-6.86a3.07,3.07,0,0,0-2-1.27c-2.31.2-4.71.37-6.68,1.84A14.87,14.87,0,0,0,48,27.77a1.71,1.71,0,0,0-.07.63l1.52-.68c0,1.25-1.38,1.82-1,3,1.23-.57,1.26-2.44,3.11-2.51-.69,1.61-2,2.73-1.94,4.56,1.22-.87,1.29-2.7,3.22-3a21.08,21.08,0,0,0-1.06,2.48c-.23.79-1.05,1.47-.62,2.55,1.11-.68,1.28-2.14,2.77-2.56-.13,1.61-1.62,2.68-1.26,4.26,1-.48,1-2,2.46-2-.08,1.47-1.5,2.64-.78,4.23,1-.84.85-2.67,2.89-2.43a6.69,6.69,0,0,0-1.49,4.56c1.4-.46,1.25-2.79,3.28-2.34-.66,1.37-1.67,2.5-1.27,4.12,1-.42.9-2.35,2.68-1.71a8.9,8.9,0,0,0-1.31,4.39c1.17-.75,1.07-2.45,2.74-2.57a24.9,24.9,0,0,1-1.16,3.9c-.51,1.06.17,1.11.71,1.57.61-1,.73-2.33,2.39-2.42-.48,1.65-.88,3-1.28,4.44,2.11-2,2.11-2,3.38-1.46a4.85,4.85,0,0,0-1.73,4c1.16-.47.93-2.39,2.63-2.26-.11,1.7-1.39,3.08-1,5.13.85-1.12.66-2.54,2.15-2.71.46,1.68-1.18,3.21-.35,4.91,1-.43,1-2.12,2.44-1.45-.81,2.92-.81,2.92-.1,3.65.72-.65,0-2.29,1.84-2.41-.09,1.19.16,2.47-.32,3.35-.63,1.14.07,1.49.51,2.11.87-.24.67-2.15,2.22-1.29-.36,1.1-.71,2.15-1,3.21l1.66,2.12c.66-1,.21-2.41,2.06-2.85-.6,1.43.11,2.9-1.51,3.77l1.39,1.71c.53-.74,1-1.34,1.45-2,.66,2,.66,2-.86,3.47l2.29,3.12c.88-.28,1.26-1.47,2.25-.59-.64,1.52-1.23,3.08.53,4.31l1.78-.15c-.58,2.53-.58,2.53,1.24,5l1.94-.87-.76,3,1.58,2.17A2.73,2.73,0,0,1,90.64,87l-1.33,2.6,2.1,2.89c.71-.79.35-2.31,2-1.71C93.2,91.9,93,93,92.73,94.32l1.55,2.11c.81.07,1.52-.89,2.21,0-1,1.88-1,2.14.84,3.93ZM22,40.09l.58.1c.37-.51.74-1,1.09-1.55a9.5,9.5,0,0,1,3.77-3.37c1.47-.71,2.94-1.43,4.43-2.11a3.57,3.57,0,0,1,3.13.89l-.2.93c1.46,1.9,2.73,3.59,4.05,5.24A175,175,0,0,1,53,60.83C57,67.79,61.68,74.34,66.2,81c4.32,6.36,9,12.49,13.47,18.72a6.8,6.8,0,0,1,1.55,4.73,26.85,26.85,0,0,0,.32,4.09c1.32-2.5,3.73-3.2,5.67-4.48-.68-2.21-2.45-3.79-2.95-5.94l.38-.24,3.85,4.55c1-.09,2.1-.61,2.91.49.08.11.41,0,.62,0h5c-1.25-1.74-2.5-3.37-3.64-5.08-2.54-3.78-5.08-7.56-7.52-11.4C83,82,80.21,77.56,77.06,73.33S71.12,65,68.13,60.81c-1.2-1.68-2.55-3.25-3.68-5A230.8,230.8,0,0,0,47.67,33.17a52.55,52.55,0,0,0-5.76-5.39,3.22,3.22,0,0,0-3.11-1,1.8,1.8,0,0,0,.49,2.14c.76.86,1.52,1.7,2.28,2.55.45.5.8,1,.31,1.67-1.07.2-1.55-.54-2.09-1.2-1.14-1.37-2.26-2.75-3.46-4.05a1.93,1.93,0,0,0-1.4-.69c-5.78.9-10.3,3.66-12.61,9.25C21.87,37.54,22.08,38.88,22,40.09Zm56.12,68.09a5.84,5.84,0,0,0,.43-7.28c-1.41-2.14-3.05-4.12-4.55-6.2-3.28-4.57-6.62-9.11-9.78-13.77-5.39-8-10.64-16-15.59-24.25-2-3.41-4.43-6.63-6.71-9.9-2.07-3-4.21-5.91-6.34-8.84a16.51,16.51,0,0,0-1.38-1.63,2.93,2.93,0,0,0-3.31-.72,11.66,11.66,0,0,0-7.22,6.25,8.39,8.39,0,0,0-1,5.26l1.78-2.32c.07,1.26.11,2,.15,2.79l.4.08,1.3-1.81v6.49c.78-1,.25-2.35,1.57-3,.28,1.72-.43,3.43.42,5,.71-.53.39-1.8,1.64-1.89,0,2.08-.61,4.09.23,6.24.9-1.1.35-2.8,2-3.43.11,1.62-.56,3.06-.08,4.74.61-1.07,1.11-1.92,1.6-2.77l.3.15c-.2,2.44-.4,4.89-.64,7.79,1.37-1.38.84-3.06,2.12-4.54a26.45,26.45,0,0,0,0,3.75c.17,1.08-.63,2.2.07,3.41.81-1.24.36-2.9,1.91-3.74.28,1.92-1.09,3.68-.1,5.58,1-1.11.33-2.94,2-3.89,0,2.67-1.09,5.22.27,8.13.66-1.62.47-3.16,1.86-4.42v6.08h.18l.9-2.57.56.11c0,.89,0,1.77,0,2.66s.13,1.8.22,3c1-1.16.27-2.64,1.87-3.38-.08,1.55-.14,2.89-.21,4.23l.35,0c.28-.64.55-1.29.82-1.93l.34,0L47,84.22c1.6-1.42,1.14-3.72,2.89-5.46a31.1,31.1,0,0,0-.51,4.38c0,1.32-.72,2.74.36,4.29.47-1.52.87-2.79,1.26-4.07l.46.06V89.7c.86-1.62.51-3.2,1.7-4.34,1,1.39-.66,3.13.85,4.46l.72-2,.31,0c.23,2.22.46,4.44.7,6.81,1.07-1,.15-2.74,1.41-3.75,1.25,1.94-.5,4.13.73,6.13l.87-2.59.54,0c0,.88,0,1.76.14,2.63a3.75,3.75,0,0,0,.81,2.56c.38-1.09.7-2,1-2.88l.32,0,.29,3.14,1-1.44a10.06,10.06,0,0,1,.4,3A2.62,2.62,0,0,0,64.57,104c.66-1.19-.07-3,1.56-3.89.4,2-.54,4,.41,6,.69-1.27.24-2.82,1.68-3.89a14.21,14.21,0,0,1,.07,1.43c0,1.14-.15,2.28-.17,3.42s.07,1.19,1.1,1.87c.27-1.48.1-3.08,1.29-4.79.12,1.9.21,3.39.3,4.88l.29,0c.24-.59.49-1.17.93-2.24.78,2.59-.28,5,1.33,7.1l1-5.1c1.31,2.21,0,4.5.55,6.93a13.84,13.84,0,0,1,1.2-2.49c1.33-1.78,1.51-3.24.3-4.93-.91-1.27-2-2.43-2.92-3.67-.53-.69-1-1.43-1.5-2.14a3.08,3.08,0,0,1,1.72.92C75.15,104.92,76.57,106.5,78.11,108.18Zm40.76-.38c1.29,1.51,2,3.21,3.81,3.82,1.23.4,1.68,1.51.76,2.35a12.34,12.34,0,0,1-3.5,2.32,5.92,5.92,0,0,1-5.85-1c-1.79-1.28-3.39-2.82-5.09-4.23a10,10,0,0,0-.92-.64l-.34.26a8.71,8.71,0,0,0,.75,1.34c1.54,1.86,3,3.78,4.7,5.52a7.54,7.54,0,0,0,7.92,2.32,5.62,5.62,0,0,0,4.15-7.22,15.52,15.52,0,0,0-1-2.33c-.23-.55-.45-1.1-.67-1.66l.35-.34a7.84,7.84,0,0,1,1.52.88c1.68,1.57,2.24,5.91,1.32,8-2,4.69-10.76,6.74-14.4,1.68-1-1.38-2.14-2.64-3.26-3.93a15.41,15.41,0,0,0-1.46-1.31c-.15,5.53,4.35,8.28,8,9.09,2.78.62,5.53,0,8.23-.61a4.11,4.11,0,0,0,2.14-1.3,14.81,14.81,0,0,0,3.64-9.31,2.53,2.53,0,0,0-1.42-2.61A13,13,0,0,0,118.87,107.8Zm-38.55,4.6-.44-.09a6.67,6.67,0,0,0-.62,1.22c-.66,2.34.08,4.39,1,6.55,1.43,3.32,5.91,5.85,9.23,5.2A45.61,45.61,0,0,0,94.66,124a12.46,12.46,0,0,0,3.41-1.68c4.17-3,4.1-9.36,2.52-12.43a4.39,4.39,0,0,0-1.15-1.5c-1.35-1-2.76-2-4.19-2.95a5.9,5.9,0,0,0-1.66-.3c2.67,3.17,5.33,5.78,6.75,9.39a39.51,39.51,0,0,1-3,4.72,7.2,7.2,0,0,1-4.68,2.68c-1.92.29-3.73.69-5.64.1-2.4-.75-3.82-2.66-5.34-4.43A5.84,5.84,0,0,1,80.32,112.4Zm8.11,1.41c-1.94.92-2.08.9-3.26-.17-.86-.78-1.75-1.55-2.7-2.39-.81,2.54-.09,5.84,1.14,5.92l.57-.81c.54.32.95.59,1.4.8a6.91,6.91,0,0,0,8.07-1.81c1.28-1.63,1.14-3.15-.45-4.68s-2.34-1.39-4.15.21c-.16.14-.33.27-.47.42C87.92,112,87.45,112.8,88.43,113.81ZM103,109.88l-.46.18c.12.53.22,1.06.35,1.58a11.08,11.08,0,0,1-1.75,9.71c-2.29,3.17-5.64,4.42-9.25,5.2-5.15,1.11-9.43-.18-12.58-4.57-.08-.12-.29-.14-.45-.21a12.5,12.5,0,0,0,2.19,3.39A8.43,8.43,0,0,0,88,128.3a43.93,43.93,0,0,0,7.64-.58c3.66-.84,6.67-2.88,8-6.61a15.1,15.1,0,0,0,.35-8.83A14.29,14.29,0,0,0,103,109.88Zm18.74-4.14c-1.79-3.15-2.49-3.49-5.63-2.79a9.84,9.84,0,0,0-2.25.62c-2.25,1.11-4.21,2.55-5.16,5.12l4.33,4.06c0-.8,0-1.18,0-1.57.06-1.38.3-2.68,1.63-3.47a10,10,0,0,1,4.54-1.7C120.07,106,120.9,105.84,121.78,105.74Zm-30.58-1.1c-3,1.11-6.28,1.63-8.19,4.88l2.34,2.3c1.34-1.14,2.57-2.08,3.68-3.15,1.27-1.21,2.9-.84,4.7-1Zm30.43,8.7c-1.37-1.5-2.61-2.93-3.94-4.29a1.32,1.32,0,0,0-2.28.35c-1.07,2.09-.71,5.34,2.79,5.65A3.57,3.57,0,0,0,121.63,113.34Zm-35.71,6c2,1.2,3.68,1.76,5.51.79.93-.5,1.94-1.58,2.75-1.44,1.39.25,1.93-.51,2.63-1.22,2.1-2.12,1.7-4.61-.85-6.07,0,1,.36,2.2-.06,3-1.38,2.75-3.28,5.07-7,4.92C88.05,119.33,87.23,119.36,85.92,119.36Zm40.32-13,.27-.45a7.28,7.28,0,0,1-1.63-1.1,7.25,7.25,0,0,1-.83-1.78h-2.16C123.08,104.81,124.07,106.41,126.24,106.41ZM53.48,92.08l.45.06,0-1h-.31ZM25,49l-.54-.18L24.23,50l.43.11Z"/></svg>