<svg xmlns="http://www.w3.org/2000/svg" viewBox="0 0 150 150"><defs><style>.a{fill:#d9cdc5;}.b{fill:#bcab9e;}.c{fill:#816654;}.d{fill:#7e614e;}.e{fill:#89715d;}.f{fill:#a48c7d;}.g{fill:#d2c8be;}.h{fill:#9d8575;}.i{fill:#ece8e4;}</style></defs><title>icon</title><path class="a" d="M71.62,129.15h0l0,0a10,10,0,0,0,1.18.08h0a10,10,0,0,1-1.18-.08h0l0,0m-3.42-2.46h0a8.24,8.24,0,0,0,1.74,1.21h0a8.24,8.24,0,0,1-1.74-1.21h0m10.08-.83h0a4.22,4.22,0,0,1-.62,1.39h0a4.22,4.22,0,0,0,.62-1.39m0-.1h0s0,.07,0,.1,0-.06,0-.1m1.5-1h0l-.07,0c-.65.31-1.26.7-1.38.77h0c.12-.07.73-.46,1.38-.77l.07,0m-13.48-.13c.07.13.15.25.22.39s.73.8,1.6,1.58h0c-.87-.78-1.6-1.58-1.6-1.58h0l0,0c-.07-.12-.13-.24-.2-.35h0m-3.44-3.11A3.29,3.29,0,0,1,64,122a4,4,0,0,1,.45.31h0A4,4,0,0,0,64,122h0a3.29,3.29,0,0,0-1.09-.4h0m22.52-2.47h0c-.82,2.8-1.79,4.19-2.54,4.87a2.18,2.18,0,0,1-1.35.67h-.05a.37.37,0,0,0-.13-.12h0a.37.37,0,0,1,.13.12h.05a2.18,2.18,0,0,0,1.35-.67c.75-.68,1.72-2.07,2.54-4.87"/><path class="b" d="M78.32,56.91c-.06,0-.09.12-.09.35v.07h0l-.34-.07c0,.82.12,1.82.16,3s0,1.93,0,2.41h0c0,.26,0,.41,0,.41S78,63,78,63h0v0c0,.1,0,.36,0,.73s.07,1.17.12,1.94.09,1.84.09,2.75h0c0,.66,0,1.29-.08,1.83,0,.06.14.55.36,1.41,0-.32,0-.8.09-1.36.06-1,.15-2.3.26-3.31s.24-1.71.46-1.71.6.8,1.29,2.93l.75,1.57c.51,1,1.19,2.4,1.93,3.87,1.5,3.1,3.53,6.87,3.88,10.21,0,0,.17,1.62.24,4.15,0,.53,0,1.1,0,1.71h0a53.85,53.85,0,0,1-.55,7.74,35.79,35.79,0,0,1-2.88,10,15.32,15.32,0,0,1-2.3,3.59,5.64,5.64,0,0,1-2.66,1.81s-.2,0-.56.54a16.48,16.48,0,0,0-1.6,3.63,5.93,5.93,0,0,1-2.28,1.51,3,3,0,0,1-.84.13c-1,0-2.11-.66-2.68-2.85,0,0-1.16-1.89-2.45-3.67-1.12-1.52-2.32-3-3.3-3a1,1,0,0,0-.46.12,14.47,14.47,0,0,0-.67-2c-.25-.57-.56-1-.92-1.11l-.7.43h0a.83.83,0,0,1,.63-.43h.07l.87-.52a10,10,0,0,1-2.4.35c-1.2,0-2-.4-2-1.45h0v0a12.63,12.63,0,0,1-1.81-1.7,8.21,8.21,0,0,1-1.85-3.38c.1,1.21.13,2.6.13,4.09h0c0,2.18-.09,4.58-.19,7-.16,2.59-.48,5.88-.48,8.54s.31,4.77,1.41,4.8c1.33-.16,2.7-1.15,4-1.78a4.38,4.38,0,0,1,1.79-.49h.13a2.83,2.83,0,0,0-.57-.06h0a3.57,3.57,0,0,0-.74.08A6,6,0,0,0,59,123a6,6,0,0,1,2.6-1.45,3.57,3.57,0,0,1,.74-.08h0a2.83,2.83,0,0,1,.57.06h0a2.83,2.83,0,0,0-.57-.06h0a3.57,3.57,0,0,0-.74.08A6,6,0,0,0,59,123a6,6,0,0,1,2.6-1.45,3.57,3.57,0,0,1,.74-.08h0a2.83,2.83,0,0,1,.57.06h0a2.83,2.83,0,0,0-.57-.06h0a3.57,3.57,0,0,0-.74.08A6,6,0,0,0,59,123a6,6,0,0,1,2.6-1.45,3.57,3.57,0,0,1,.74-.08h0a2.83,2.83,0,0,1,.57.06,2.34,2.34,0,0,1,1.54.71,8.1,8.1,0,0,1,1.9,2.4l.78.9a8.88,8.88,0,0,0,2.67,2.14,2.3,2.3,0,0,0,.17.2,1.32,1.32,0,0,0,.45.12l.16,0c.36.39.71.79,1.07,1.17a5.42,5.42,0,0,1,1.2-.11l.71,0h.71c.2,0,.4,0,.6,0a4.79,4.79,0,0,0,2.82-1.8,7,7,0,0,0,.64-1.49l0-.15h0l0-.11a5.16,5.16,0,0,1,1.42-.7,3.38,3.38,0,0,1,1.23-.37.56.56,0,0,1,.3.07l.25,0c.93-.21,1.78-.64,2.63-2.46.41-1,.8-1.93,1.19-2.9.07-.25.15-.52.22-.8-.07.28-.15.55-.22.8h0c.07-.25.15-.52.22-.8-.07.28-.15.55-.22.8h0c.07-.25.15-.52.22-.8-.07.28-.15.55-.22.8,1.59-4,3-7.82,5-9.29a5.23,5.23,0,0,1,3.42-1.38,5.39,5.39,0,0,1,1,.11,9.52,9.52,0,0,1,2.31,2.09l2.8,3a2.24,2.24,0,0,0,1.52.85c1.15,0,1.81-1.76,2-3.51a38.83,38.83,0,0,1,1.42-10.37.76.76,0,0,1,.62-.24,5.05,5.05,0,0,1,.63.07,3.7,3.7,0,0,0,.66.07,1.07,1.07,0,0,0,.56-.12c.79-1,.88-2.63.88-4.27V94.83h0a15.76,15.76,0,0,1,.09-1.89,10.14,10.14,0,0,0,1.44-4.7,4.91,4.91,0,0,0-.1-1,3.87,3.87,0,0,0-.52-1.26h0s0,0,0,0h0s.08-.06.15-.06a4.43,4.43,0,0,1,1.44.69,4.22,4.22,0,0,0,1.65.69h.12a1.11,1.11,0,0,0,.55-1.1,6.07,6.07,0,0,0-.86-2.7c-1.08-2.18-2.2-4.28-2.78-5.86a4.11,4.11,0,0,1-.31-1.42h0a1.25,1.25,0,0,1,.07-.45.42.42,0,0,1,0-.12c-.85-.22-2.15-.83-2.93-1.08a2.7,2.7,0,0,0-.55-.09c-.85,0-.82.75-1.45,1a6.89,6.89,0,0,1-2-.77,1.62,1.62,0,0,0-.71-.27c-.2,0-.26.15-.26.36s.09.61.1.91a.88.88,0,0,1,0,.21h0c0,.25-.18.33-.44.33a3.26,3.26,0,0,1-.65-.09,4.36,4.36,0,0,0-.66-.08c-.17,0-.31,0-.37.14a.65.65,0,0,0-.12.45,10.46,10.46,0,0,0,.22,1.5,3.28,3.28,0,0,1,.06.59h0c0,.31-.08.53-.32.53a.93.93,0,0,1-.37-.11c.24.13.34.27.34.41h0c0,.46-1,.91-1.69.91-.29,0-.51-.09-.5-.32h0v0a6.84,6.84,0,0,1-1.22-1.37,15.88,15.88,0,0,1-.85-1.36c-.68-1.82-2.55-4.49-3.92-6.72a4.78,4.78,0,0,1-2.91-1.72c-1.23-1.51-2.41-3.26-2.87-3.45,0,.19.57,1.37.56,1.57h0v0c0,.16.12.8.26,1.7s.31,2.34.39,3.7c0,.57,0,1.14,0,1.68h0c0,.72,0,1.39-.07,2-.09.83-.23,1.39-.37,1.39l-.06,0a11.78,11.78,0,0,1-1.63-3.53c-1.06-3.59-1.89-5.09-2.84-8-.25-.79-.47-1.78-.71-2.58-.71-2.14-1.52-4.64-1.75-5.07-.35-.86-.59-1.34-.71-1.34"/><path class="b" d="M78.75,72.55c.1.32.2.67.31,1.06a2.86,2.86,0,0,0,.07-.28,7.11,7.11,0,0,0-.38-.78"/><path class="b" d="M110.12,74.72a.79.79,0,0,0-.1.27,3.28,3.28,0,0,1,.52-.09l-.42-.18"/><path class="b" d="M54.92,74.86a4.46,4.46,0,0,0-.59,1.38A62.36,62.36,0,0,0,52.58,90v0c0,3.56,1.26,4,2.35,5.19a6.26,6.26,0,0,1,1,3.38c0-.31,0-.87,0-1.54s0-1.16,0-1.78l-1-.16c-1.09-1.22-2.35-1.63-2.35-5.2h0v0a62.28,62.28,0,0,1,1.75-13.7,4.51,4.51,0,0,1,.52-1.28"/><path class="b" d="M78.21,81.12a63.49,63.49,0,0,1-2.95,7.21c1.26-1.43,2.35-3.73,2.95-7.21"/><path class="b" d="M82.23,88.83c0,.12,0,.25,0,.37-.08,2-.24,4.08-.48,6a50.79,50.79,0,0,0,.57-5.4s0-.34-.08-.94"/><path class="b" d="M78.29,103.66l-.74.2c-.54.15-1.17.32-1.71.53a2.79,2.79,0,0,0,.61.09,2.45,2.45,0,0,0,1.14-.31,3.62,3.62,0,0,0,.7-.51"/><path class="b" d="M64.42,122.26a2.68,2.68,0,0,1,.28.3c.55.74,1.08,1.44,1.62,2.1a8.1,8.1,0,0,0-1.9-2.4"/><path class="b" d="M81,124.42a3.38,3.38,0,0,0-1.23.37,12.45,12.45,0,0,1,1.53-.3.56.56,0,0,0-.3-.07"/><path class="b" d="M78.35,125.6h0l0,.15a1,1,0,0,0,0-.16"/><path class="b" d="M77.66,127.25a4.79,4.79,0,0,1-2.82,1.8l.46-.06a3.3,3.3,0,0,0,2.36-1.74"/><path class="b" d="M69.94,127.9a6.53,6.53,0,0,0,1.63,1.26h.05c-.36-.38-.71-.78-1.07-1.17l-.16,0a1.32,1.32,0,0,1-.45-.12"/><path class="c" d="M78.16,70.27c-.21,1.62-.75,1-1,2.93a10.92,10.92,0,0,1-1.84,4c-.83,1.23-1.79,2.24-2.31,3-1.2,1.72-2.11,2.56-2.93,2.56-.54,0-1-.37-1.58-1.11-.93-1.86-2-.64-3.11-1.5-1.15-.62-2.13-.23-3.28-.91-.9-1.42-1.78-2.25-3-2.47a1.64,1.64,0,0,0-.66.68.42.42,0,0,1-.4.26h-.15a.25.25,0,0,0-.17,0C56.94,76.71,56.8,74,55.8,74h-.12c-.16,0-.47.33-.76.81.27-.42.54-.69.7-.71h.11c1,0,1.15,2.67,1.92,3.73a.33.33,0,0,1,.17,0H58a.42.42,0,0,0,.39-.26A1.58,1.58,0,0,1,59,76.9c1.25.21,2.14,1,3,2.47,1.15.69,2.13.29,3.28.91,1.07.86,2.19-.35,3.12,1.5.53.74,1,1.11,1.59,1.11.82,0,1.73-.84,2.93-2.56.51-.77,1.48-1.78,2.32-3a10.64,10.64,0,0,0,1.84-4c.25-1.9.79-1.31,1-2.93,0,0,0-.07,0-.11h0"/><path class="d" d="M78.16,70.28s0,.07,0,.11c-.21,1.62-.75,1-1,2.93a10.64,10.64,0,0,1-1.84,4c-.84,1.24-1.81,2.25-2.32,3-1.2,1.72-2.11,2.57-2.93,2.56-.55,0-1.06-.37-1.59-1.11-.93-1.85-2-.64-3.12-1.5-1.15-.62-2.13-.22-3.28-.91-.9-1.42-1.79-2.26-3-2.47a1.58,1.58,0,0,0-.66.68.42.42,0,0,1-.39.26h-.16a.33.33,0,0,0-.17,0c-.77-1.06-.92-3.73-1.92-3.73h-.11c-.16,0-.43.29-.7.71a4.51,4.51,0,0,0-.52,1.28,62.28,62.28,0,0,0-1.75,13.7v0c0,3.57,1.26,4,2.35,5.2l1,.16c0-.09,0-.18,0-.27-.1-1.77-.35-3.5-1.1-3.5a.39.39,0,0,0-.15,0A28.66,28.66,0,0,1,53.87,87a15.63,15.63,0,0,1-.09-1.65h0c0-1.67.33-3.08,1.27-3.32a16.35,16.35,0,0,1,2.45-1.64s2,1.38,4,3,4.29,3.36,4.4,4.6a7.37,7.37,0,0,0,1.55,1.34A6.45,6.45,0,0,0,71,90.39l.51,0a5.62,5.62,0,0,0,3.75-2,63.49,63.49,0,0,0,2.95-7.21,38,38,0,0,0,.49-6l.35-1.43v-.07c-.11-.39-.21-.74-.31-1.06a3.5,3.5,0,0,0-.26-.43h0l0-.43c-.22-.86-.34-1.35-.36-1.41"/><path class="e" d="M79.13,73.33a2.86,2.86,0,0,1-.07.28v.07l-.35,1.43a38,38,0,0,1-.49,6c-.6,3.48-1.69,5.78-2.95,7.21a5.62,5.62,0,0,1-3.75,2l-.51,0a6.45,6.45,0,0,1-3.5-1.14A7.37,7.37,0,0,1,66,87.91c-.11-1.24-2.34-3-4.4-4.6s-4-3-4-3A16.35,16.35,0,0,0,55.05,82c-.94.24-1.26,1.65-1.27,3.32A15.63,15.63,0,0,0,53.87,87a28.66,28.66,0,0,0,.84,4.52.39.39,0,0,1,.15,0c.75,0,1,1.73,1.1,3.5,0,.71,0,1.43,0,2h0c0,1,0,1.79,0,1.79a4.08,4.08,0,0,0,.09.61,8.21,8.21,0,0,0,1.85,3.38,12.63,12.63,0,0,0,1.81,1.7h0v0c0,1,.84,1.45,2,1.45a10,10,0,0,0,2.4-.35c1.11-.66,2.65-1.54,4.17-2.29A11.17,11.17,0,0,1,72.59,102a1.87,1.87,0,0,1,2,1.6,2.69,2.69,0,0,0,.82.66,3.5,3.5,0,0,0,.43.17c.54-.21,1.17-.38,1.71-.53l.74-.2c1.24-1.11,2.64-3.57,3.45-8.49.24-1.89.4-4,.48-6,0-.12,0-.25,0-.37-.12-1.33-.4-3.94-.88-6.72a45.36,45.36,0,0,0-2.22-8.78"/><path class="f" d="M79.33,65.31c-.22,0-.33.73-.46,1.71s-.2,2.28-.26,3.31c0,.56-.07,1-.09,1.36l0,.43a3.5,3.5,0,0,1,.26.43c1,1.84,2,5.86,2.6,9.56.7,4,1,7.66,1,7.66h0a50.79,50.79,0,0,1-.57,5.4c-.81,4.92-2.21,7.38-3.45,8.49a3.62,3.62,0,0,1-.7.51,2.45,2.45,0,0,1-1.14.31,2.79,2.79,0,0,1-.61-.09,3.5,3.5,0,0,1-.43-.17,2.69,2.69,0,0,1-.82-.66,1.87,1.87,0,0,0-2-1.6,11.17,11.17,0,0,0-4.26,1.37c-1.52.75-3.06,1.63-4.17,2.29l-.87.52c.36.06.67.54.92,1.11a14.47,14.47,0,0,1,.67,2,1,1,0,0,1,.46-.12c1,0,2.18,1.44,3.3,3,1.29,1.78,2.45,3.67,2.45,3.67.57,2.19,1.64,2.85,2.68,2.85a3,3,0,0,0,.84-.13A5.93,5.93,0,0,0,76.89,117a16.48,16.48,0,0,1,1.6-3.63c.36-.53.56-.54.56-.54A5.64,5.64,0,0,0,81.71,111a15.32,15.32,0,0,0,2.3-3.59,35.79,35.79,0,0,0,2.88-10,53.85,53.85,0,0,0,.55-7.74c0-.61,0-1.18,0-1.71-.07-2.53-.24-4.15-.24-4.15-.35-3.34-2.38-7.11-3.88-10.21-.74-1.47-1.42-2.85-1.93-3.87l-.75-1.57c-.69-2.13-1.06-2.93-1.29-2.93"/><path class="f" d="M63.22,106.14a.83.83,0,0,0-.63.43l.7-.43h-.07"/><path class="g" d="M76.88,50.52v0a1.23,1.23,0,0,1,0,.17h0c0,.06,0,.09,0,.15a3.21,3.21,0,0,0,.05.46c.26,1.57.61,4,.78,5.88l.18,0,.34.07v-.07h0c0-.23,0-.35.09-.35s.36.48.71,1.34c.23.43,1,2.93,1.75,5.07.24.8.46,1.79.71,2.58,1,2.95,1.78,4.45,2.84,8A11.78,11.78,0,0,0,86,77.47l.06,0c.14,0,.28-.56.37-1.39,0-.56.07-1.23.07-2,0-.54,0-1.11,0-1.68-.08-1.36-.24-2.7-.39-3.7s-.26-1.54-.26-1.7h0v0c0-.2-.55-1.38-.56-1.57h0c.46.19,1.64,1.94,2.87,3.45A4.78,4.78,0,0,0,91,70.64c1.37,2.23,3.24,4.9,3.92,6.72a15.88,15.88,0,0,0,.85,1.36A6.84,6.84,0,0,0,97,80.09h0v0c0,.23.21.32.5.32.65,0,1.69-.45,1.69-.91,0-.14-.1-.28-.34-.41h0a.93.93,0,0,0,.37.11c.24,0,.32-.22.32-.53a3.28,3.28,0,0,0-.06-.59,10.46,10.46,0,0,1-.22-1.5h0a.65.65,0,0,1,.12-.45c.06-.11.2-.14.37-.14a4.36,4.36,0,0,1,.66.08,3.26,3.26,0,0,0,.65.09c.26,0,.44-.08.44-.33a.88.88,0,0,0,0-.21c0-.3-.1-.65-.1-.91h0c0-.21.06-.36.26-.36a1.62,1.62,0,0,1,.71.27,6.89,6.89,0,0,0,2,.77c.63-.24.6-1,1.45-1a2.7,2.7,0,0,1,.55.09,19.1,19.1,0,0,0,3.42,1.15c.22,0,.35-.07.35-.25a.69.69,0,0,0,0-.22.45.45,0,0,1,0-.18h0c0-.19.15-.32.15-.49s-.06-.22-.27-.38h0c-.4,0-1.16-.33-1.68-.39a4.25,4.25,0,0,0-.86-.09h-.65a3.57,3.57,0,0,1-1.25-.23c-1.14-.33-2.46-.95-3.43-1.23a4.39,4.39,0,0,0-.85-.11,1.48,1.48,0,0,0-.38,0h-.23a6.21,6.21,0,0,0-1.55.17,1.72,1.72,0,0,0-1.08.71,1.86,1.86,0,0,1,.41.88h0c0,.21-.18.25-.4.25h-.41a.42.42,0,0,0-.24,0h0a4.46,4.46,0,0,1-.79-.36c-.28,0-.28.41-.55.41s-.36-.11-.73-.45c-2.34-2.22-4.39-4.32-6-6-.67-.69-2-1.94-3.09-3.09S84,62.39,83.73,62.13s-.36-.33-.46-.33-.15.1-.2.2-.1.2-.2.2a.38.38,0,0,1-.21-.1s-.1-.23-.23-.57a.34.34,0,0,0-.09.08c.08.23.16.64.24.87h0a2.88,2.88,0,0,1-.64-.95c-1.35-2.63-2.07-3.9-2.72-5.1A22.18,22.18,0,0,1,77.38,52c-.2-.59-.46-1.47-.5-1.47"/><path class="a" d="M66.32,124.66c.07.11.13.23.2.35l0,0h0s.73.8,1.6,1.58h0c-.87-.78-1.6-1.58-1.6-1.58h0c-.07-.14-.15-.26-.22-.39h0m-3.44-3.11A3.29,3.29,0,0,1,64,122h0a4,4,0,0,1,.45.31h0A4,4,0,0,0,64,122a3.29,3.29,0,0,0-1.09-.4h0"/><path class="h" d="M64,122a4,4,0,0,1,.45.31,8.65,8.65,0,0,1,2.1,2.75c-.07-.12-.13-.24-.2-.35a8.1,8.1,0,0,0-1.9-2.4A4,4,0,0,0,64,122"/><path class="h" d="M66.54,125.05h0s.73.8,1.6,1.58c-.87-.78-1.6-1.58-1.6-1.58"/><path class="h" d="M78.28,125.86a4.22,4.22,0,0,1-.62,1.39,4.79,4.79,0,0,1-2.82,1.8l-.19,0a4.87,4.87,0,0,0,3-1.85,4.22,4.22,0,0,0,.62-1.39"/><path class="h" d="M70.55,128c.37.41.73.82,1.12,1.22l0,0c-.36-.38-.71-.78-1.07-1.17"/><path class="h" d="M74.65,129.1a9.24,9.24,0,0,1-1.78.18,8.51,8.51,0,0,0,1.78-.18"/><path class="i" d="M81.65,58.6c-.06,0-.08.06-.08.15a6,6,0,0,0,.3,1.21c.16.49.35,1,.5,1.43s.29.71.29.71a.38.38,0,0,0,.21.1c.1,0,.15-.1.2-.2s.1-.2.2-.2.24.09.46.33,1.21,1.37,2.33,2.54,2.42,2.4,3.09,3.09c1.66,1.72,3.71,3.82,6,6,.37.34.59.45.73.45s.27-.39.55-.41a4.46,4.46,0,0,0,.79.36h0a.42.42,0,0,1,.24,0h.41c.22,0,.4,0,.4-.25a1.86,1.86,0,0,0-.41-.88h0A1.72,1.72,0,0,1,99,72.33a6.21,6.21,0,0,1,1.55-.17h.23a1.48,1.48,0,0,1,.38,0,4.39,4.39,0,0,1,.85.11c1,.28,2.29.9,3.43,1.23a3.57,3.57,0,0,0,1.25.23h.65a4.25,4.25,0,0,1,.86.09c.52.06,1.28.36,1.68.39h0a.13.13,0,0,1,0-.06h0c0-.11.11-.19.1-.28s0-.14-.24-.24a9.74,9.74,0,0,0-1.81-.76c-2.12-.6-4.39-1.55-6.07-2.15C98,69.34,95.28,68.1,94,68.09H94a.05.05,0,0,0-.06.06,9.16,9.16,0,0,0,.57,1.12,1,1,0,0,1,.1.38h0c0,.33-.35.32-.35.71a2.63,2.63,0,0,0,.44,1.13.44.44,0,0,1,.07.19h0a0,0,0,0,1,0,0,.43.43,0,0,1-.21-.09c-1.52-1.23-2.88-2.44-4.16-3.67s-2.5-2.49-3.65-3.78c-.77-.88-1.92-2.07-2.81-3.12s-1.66-2-1.85-2.23-.28-.25-.34-.25"/><path d="M114.69,94.14l-1.23,2.53c.61,1,1.17,1.91,1.76,2.89-1.29.21-1.29.21-2.32-.52-.75,1.65-.75,1.65.73,4.49-1.14.64-1.14.64-2.43-1.07l-1.54,2.22c-.23,1.24,1.33,2,.09,3.19l-1.58-1.31c-1.94,1.35-2.75,3.74-5.12,4.72a43.67,43.67,0,0,0-6,3.7c.17.26.44.68.73,1.11-1.24.47-1.24.47-2.2-1.13a7.74,7.74,0,0,0-1.27.94c-1.07,1.2-1,1.19-2.36.28a7.61,7.61,0,0,0-1.5-.61l-.3.49L92,118c-.5.16-1,.48-1.22.35a11.44,11.44,0,0,1-2.23-1.68c-.82-.82-.76-.87-2.51-.44l1.24,2c-1.15.65-1.81-.28-2.21-.85a2.66,2.66,0,0,0-3.49-1.08l.92,4.69c-2.3-1.13-1.6-3.24-2.48-4.87l-10.51-.9c0,.77-.07,1.42-.12,2.48-1.07-1.13-1.72-2.21-2.67-2.72a11.37,11.37,0,0,0-3.42-.56l-.16,2.18A18.53,18.53,0,0,0,60,113.84a16.79,16.79,0,0,0-3.77-1l-.2,2.35c-1.11-.22-1-1-1.13-1.66a5.25,5.25,0,0,0-2.49-3.82A55.79,55.79,0,0,1,48,106c-.22.53-.41,1-.78,1.87-1.26-2.79-2-5.59-4.83-7-.26.68-.53,1.43-.81,2.17l-.41.07a9.19,9.19,0,0,1-.41-1.58c-.16-2.16-.52-4.21-2.21-5.79a13.82,13.82,0,0,1-1.26-1.76l-.5,3.4a6,6,0,0,1-1.06-5.17c-.32-.39-.65-.82-1-1.23-.09-.1-.27-.11-.49-.2l-.4,2.65-.46.1c-.2-.52-.44-1-.59-1.56-.23-.83-.43-1.66-.58-2.5a2.19,2.19,0,0,1,0-1c.4-1.43.07-2.45-1.23-2.66a2.34,2.34,0,0,1-1.74-1.37c-.9-1.38-1.92-2.7-2.72-4.14a4.67,4.67,0,0,1-.61-3.82,3.84,3.84,0,0,0-1.32-3.6l-1.31-1.24c2.73-2.58,2.78-6,3.3-9.22a42.08,42.08,0,0,1,1.37-5c.09-.3.41-.55.44-.84.26-2.65,2.19-3.74,4.16-5.14a65.13,65.13,0,0,0,7.13-6.6c3.28-3.2,6.5-6.47,9.8-9.65a4.28,4.28,0,0,1,1.71-.59,35.34,35.34,0,0,0,4.5-1.32c1.72-.75,3.23-2.07,5-2.63A44.89,44.89,0,0,1,68.3,29a71.05,71.05,0,0,1,7.59-.4c2.51,0,5,.21,7.55.1,3.8-.18,7.24,1.64,11,1.7a15.06,15.06,0,0,1,4.09,1.17,2.33,2.33,0,0,1,1,.66q3.66,4.05,7.28,8.14a7.52,7.52,0,0,1,2.32,5.3,2.37,2.37,0,0,0,1.3,2.32c.7.39,1,1.48,1.49,2.3l2.38-.27.16.45-1.64,2c.88.32,1.9-.82,2.46.66l-1.9,1.67.62,1.61c1-.21,1.62-1.68,2.79-.73.35,1.69-2.79,1.59-1.83,3.58.85.28,1.8-1.28,2.49.24-.52,1-2,1.61-1.56,3.35l1.93-.16c0,.35.09.64,0,.75-.42.44-.89.83-1.36,1.24l.86,6.37,2,.46c0,1.28-1.2,1.24-1.83,2.1,0,.54.06,1.3.1,2.12l1.75.62a11.27,11.27,0,0,0-1.76,2.7,14.26,14.26,0,0,0-.07,3.5l2.26-.84c.15,1.76-.19,2.08-2.59,2.37.39,2.81-2.13,5.33-.65,8.44-1.07.16-2.2.29-1.85,1.74Zm-80-7.59-.34.39c.43.65.82,1.33,1.28,2,1.93,2.6,3.79,5.25,5.83,7.76a62.55,62.55,0,0,0,11.43,11A30,30,0,0,0,60.78,112a46.17,46.17,0,0,0,9.35,1.6,116.7,116.7,0,0,0,20,.45,23.16,23.16,0,0,0,10.53-3.26c.84-.5,1.54-.77,2.21-.15,1.67-2.23,3.31-4.36,4.86-6.55a35.33,35.33,0,0,0,3.3-5.14,46.4,46.4,0,0,0,2.56-6.9,39.94,39.94,0,0,0,2-8.31c.68-9.41.14-18.72-3.51-27.6-.15-.37-.35-.71-.53-1.07a16.24,16.24,0,0,0-.62,3.83,4.13,4.13,0,0,1-.32,1.83,33.22,33.22,0,0,1-3.7,4.91c-1.74,1.75-2.71,3.62-2.29,6.09a1.74,1.74,0,0,1-1.13,2,39,39,0,0,0-3.81,2.74l1.31,1.61-.31.45-2.69-.89L95.25,80C97.48,81.19,98,83.4,99,85.34c.8-.06,1.64-.73,2.18.29-2,2.31-1.85,3.65.43,5.3-.16.85-1.29,1.76-.07,2.6l2-.78c-.11.55-.07.86-.2,1-1.76,1.53-1.63,3.41-1.07,5.4a7,7,0,0,1,.28,1.64,8.58,8.58,0,0,1-.21,1.41c-2.28-6.68-3-13.73-6.52-20.13l-1.42,1.7c-2.09-1.21.13-1.8.44-2.91a7.23,7.23,0,0,0-3.34,2.35l.84,1.92c-1.49.93-1.77-.84-2.66-.93-1.92.87-3.82,1.66-5.65,2.6a3.35,3.35,0,0,0-1.29,1.51,2.38,2.38,0,0,1-2.14,1.57c-1.33.14-2.64.53-4,.8-3.64.76-7.23,1.57-11,1.33a48.84,48.84,0,0,0-8.48.74c-.6.07-1.15.55-1.76.69a7.3,7.3,0,0,1-2.71.34c-2.1-.37-4.15-1-6.24-1.46a23.1,23.1,0,0,1-10.53-5.13A5.13,5.13,0,0,0,34.7,86.55ZM69.84,30.81c-3-.36-5.84.72-8.69,2-1.14.52-2.3,1-3.49,1.42-3.22,1.09-6.55,1.94-9.16,4.32-1.23,1.12-2.5,2.21-3.68,3.38-1.8,1.79-3.46,3.71-5.31,5.43-2.55,2.37-5.23,4.6-7.84,6.91a2.67,2.67,0,0,0-.78.87c-1,2.6-2.24,5.15-2.71,7.84a33.31,33.31,0,0,1-1.81,7.33,2.37,2.37,0,0,0,.05,2c.53,1.31,1.27,2.83,1,4.09a4.42,4.42,0,0,0,.7,3.28c1.38,2.38,2.85,4.65,6.06,5a5.9,5.9,0,0,1,3.34,1.65c1.69,1.68,3.93,2.17,5.88,3.28a6.91,6.91,0,0,0,1.57.53l6.41,1.76a4.08,4.08,0,0,0,3.85-.44,3.44,3.44,0,0,1,2.39-.73c4-.13,8.07-.32,12.1-.5a6.56,6.56,0,0,0,1.18-.14c2.79-.61,5.57-1.27,8.36-1.86a2.25,2.25,0,0,0,2-2c.11-.79.49-1.44,1.32-1.42,2.64.06,4.71-1.47,6.67-2.75,4-2.63,7.79-5.7,11.61-8.65A4.84,4.84,0,0,0,102.7,70c.32-2.42.86-4.76,3.11-6.41A7.38,7.38,0,0,0,108.44,60c1-3.34,1.65-6.78.19-10.24a11.25,11.25,0,0,1-.92-3.44c-.25-3-2.14-5-4.23-6.88a23.7,23.7,0,0,1-3.65-3.71A7.15,7.15,0,0,0,95,32.57l-4-.69c-.86-.14-1.71-.3-2.57-.42a73.72,73.72,0,0,0-8.44-1.15C76.73,30.21,73.4,30.61,69.84,30.81Z"/><path d="M114.63,94.21c1.64-.22,1.79-.07,1.93,2.11a2,2,0,0,1-1.87-2.18Z"/><path d="M108.55,66.18c1.54,1.31,1.24,3.24,1.39,5s.39,3.59.59,5.4l2.13.79c-2.12,2.18-2.12,2.18-1.84,6l2.3.77-2.35,1.11c-.45,3.48-.73,7.13-1.93,10.59l-.47-.07c.32-3.23.81-6.46.92-9.7s-.05-6.64-.27-10-.68-6.55-1-9.82Z"/><path d="M83.7,107.8l-4.24-1.61c-.06.94-.11,1.7-.16,2.51-1.53-.92-1.61-1.08-1.81-3.52l-2.06-1.31c-.23.59-.43,1.08-.79,2-1.39-2.31-1.54-5-4.13-6v2.11a1.41,1.41,0,0,1-1.62-1.46c-.15-1.77-.1-3.58-1.55-5,1-.89,1.57-.41,2,.32a25.47,25.47,0,0,0,7.42,7.56c2,1.31,4.09,2.37,6.15,3.54.33.19.67.35,1,.53Z"/><path d="M86.09,94.84c1.16,2.13,2.78-.26,4.1.64-.32,1.3-2.06,1-2.64,2.48l5.69,8c-.14,0-.51.05-.69-.11a18,18,0,0,1-3.23-3.1c-2-3-3.79-6.15-5.62-9.27-.19-.33,0-.87,0-1.26l3.91,1.25Z"/><path d="M62.65,106.46l-1.55-.26c.09.77.16,1.49.26,2.38a1.71,1.71,0,0,1-1.91-1.66c-.1-1.78-1.25-2.39-2.79-3.11v3.31c-.71-.74-1.26-1-1.34-1.43a10.61,10.61,0,0,0-4-6.72.76.76,0,0,1-.23-.4,3.23,3.23,0,0,1,0-.67c.43.09,1,0,1.2.26a36.81,36.81,0,0,0,10.24,7.94c.09.05.09.27.13.41Z"/><path d="M75.9,93.74c.75,0,1.34-.1,1.57.12,1.16,1.1,1.59,3,3.49,3.28.28,2,2.06,3.07,3.16,4.55s2.47,2.88,3.7,4.32a1.78,1.78,0,0,1,.4,1.36,4.43,4.43,0,0,1-.83-.55c-3.54-3.72-7.07-7.44-10.57-11.2A8.64,8.64,0,0,1,75.9,93.74Z"/><path d="M97.87,101.53c-.65-1.24-1.27-2.48-1.94-3.7-1.65-3-3.33-5.91-5-8.86a4.18,4.18,0,0,1-.55-1,4.88,4.88,0,0,1,0-1.26c.44.18,1.13.25,1.31.58C92.9,89.4,94,91.6,95,93.8s2.1,4.41,3.13,6.63a4,4,0,0,1,.18.86Z"/><path d="M66.51,103.14l-5.26-5.87c1.89,0,3.21,1.32,5.59,5.53Z"/><path d="M104.32,84.46a31.11,31.11,0,0,1-2.06-6.53C103.84,78.56,104.72,81.35,104.32,84.46Z"/><path d="M62.62,106.51l3,.68-.14.47a3.84,3.84,0,0,1-2.83-1.2Z"/><path d="M93.76,39.5c1.09,2,2.14,4.06,3.27,6a19.45,19.45,0,0,0,2,2.9,6.14,6.14,0,0,1,1.76,5c-.21,1.64,0,3.36-.32,5a19.15,19.15,0,0,1-1.75,4.87A20.94,20.94,0,0,1,86.42,74.09a25.36,25.36,0,0,0-6.32,3.69,12.05,12.05,0,0,1-4.52,2.38c-3.71.79-7.36,1.86-11,2.75a30.43,30.43,0,0,1-3.3.45c-1.24.15-2.54,0-3.51,1.15a1.59,1.59,0,0,1-1.29.32c-1.94-.39-3.84-1-5.8-1.28-2.91-.39-4.8-2.38-6.74-4.16a9.87,9.87,0,0,0-3.31-2.16,1,1,0,0,1-.23-.08c-1.33-.58-6.06-6.31-6.29-7.71a7,7,0,0,1,.21-3A50.83,50.83,0,0,0,35.4,59a3.48,3.48,0,0,1,1.94-3.14,19.68,19.68,0,0,0,5.58-5.05,30.36,30.36,0,0,1,4.8-4.21,4.14,4.14,0,0,0,1.81-2.39A2.33,2.33,0,0,1,51,42.88c3.09-.94,6.23-1.72,9.33-2.65,4-1.21,8-2.39,12-3.83,2-.72,3.74-.06,5.58.28,1.14.21,2.23.85,3.43.09.24-.16.78,0,1.1.15,2.74,1.41,5.8,1.82,8.67,2.81C91.71,40,92.58,39.62,93.76,39.5ZM36.51,66.62,36,67a4.46,4.46,0,0,0,.58,1.2c1.87,2,3.83,4,5.67,6.07.63.72.92,1.73,1.53,2.47s1.55,1.34,2.24,2.1c3.09,3.39,7.14,3.81,11.33,3.58a34.58,34.58,0,0,0,5.55-1.06c3.47-.79,6.9-1.76,10.39-2.4A11,11,0,0,0,79,76.22c1.93-1.84,4.29-2.57,6.55-3.59,3.45-1.56,6.56-3.23,9.14-6.37a17.79,17.79,0,0,0,4.17-13.4A7.05,7.05,0,0,0,98,49.94a43.07,43.07,0,0,0-2.75-3.79l-.41,2.21C93.68,46.14,92.77,44.5,92,42.8a2.19,2.19,0,0,0-2.69-1.32c.55,1.78,2,3.06,1.75,5.07L85.66,39c-1.26.38-1.37,1-.83,2,.66,1.22,1.64,2.37,1.4,4a7.7,7.7,0,0,1-1.56-1.73,36,36,0,0,1-2.09-3.16c-.72-1.33-1.58-1.27-2.7-.61,1.16,2.65,2.89,4.93,3.53,7.73a10.72,10.72,0,0,1-1.8-2.08c-1.33-2-2.64-4-4-5.93-.54-.82-1.13-1.52-2.41-1,.65,1.28,1.31,2.44,1.83,3.67s1.69,2.16,1.6,4.07c-2.46-2.52-3.11-6-6-7.61L69.5,39.5l1.14,2.84a13.78,13.78,0,0,1-3.33-2.06s-.11.08-.26.19l.49,1.91-3.63-1.52,2.2,4.39-.41.3L63,42.74c-1.13-1.16-1.27-1.16-3-.09L64.28,49c-3.06-1.11-3.82-4.56-6.72-5.79a7.14,7.14,0,0,0,1.12,2.22c2,2.69,4,5.35,5.9,8a5.27,5.27,0,0,1,.47,1.28,12,12,0,0,1-2.94-2.87c-2.1-2.72-4-5.6-7.07-7.4a2.33,2.33,0,0,0-.73-.08c.06.67.11,1.24.19,2.21L52,44.68c-.44,1.47,1.3,2.6.14,4-.64-.64-1.21-1.2-1.78-1.75l-.34.2c.22,1.16.44,2.31.76,4L49,49.77c.27.9.85,1.86.6,2.17-.76,1,0,1.46.37,2.08s.71,1,1.07,1.57c-2.48-.9-3.43-3.51-6-4.71.58,2,2.32,3,2.44,5.14l-2.77-2.69-.24.26.63,2.13-1.29-.22c.12.75.24,1.43.37,2.18-1.64-.18-1.69-2.53-3.51-2.06-.06,1.72,1.73,2.6,1.74,4.73L39.5,57.11l-.23.24c.45.83.9,1.66,1.34,2.5l-.34.21-2.16-1.71a7.2,7.2,0,0,0,1.14,2.23c.41.64,1.3,1.09,1,2.52l-2.81-2.83a1.67,1.67,0,0,0,0,1.54c1,1.63,2,3.22,3.05,4.83A10.18,10.18,0,0,1,41,67.7l-.38.29c-1.37-1.16-2.14-3-4-3.67q2.31,3,4.6,6.07l-.5.42ZM38,71.38c.93,1.65,1.17,4,4.08,4.13Z"/></svg>