<svg xmlns="http://www.w3.org/2000/svg" viewBox="0 0 150 150"><defs><style>.a{fill:#e2dfde;}.b{fill:#c1bcb9;}.c{fill:#bfb8b5;}.d{fill:#c7c2bf;}.e{fill:#d5d1cf;}.f{fill:#edeceb;}.g{fill:#d2cdcb;}.h{fill:#f8f8f7;}</style></defs><title>icon</title><path class="a" d="M75.74,115.58h0a7.21,7.21,0,0,0-1.45.14,3.44,3.44,0,0,1,.46,0c1,0,2,.09,3,.11a10.08,10.08,0,0,0-2-.22m8-.79a1,1,0,0,1-.59.42,7.86,7.86,0,0,0,2.26-.34l0-.05-1.71,0M89.35,109v.15h0v.15h0v0a.22.22,0,0,1,0,.08h0v.11h0a5.9,5.9,0,0,1-1.16,2.81A3.76,3.76,0,0,0,89.35,109m-.46-1.78v0l.07.13-.06-.15m1.87-2.93c-.38.08-.79.67-1.13,1.3a12.71,12.71,0,0,1,1.13-1.3M25.71,94.62a2.87,2.87,0,0,0,.5,1.42,42.33,42.33,0,0,0,9.84,10.09,6.39,6.39,0,0,0,3.89,1.41h0a24.26,24.26,0,0,0,3.3-.57,3.68,3.68,0,0,1,.58,0A7.78,7.78,0,0,1,47.31,108,33,33,0,0,0,44.53,106l-1.26.88a28.52,28.52,0,0,1-3.3.57h0A6.43,6.43,0,0,1,36,106a42.54,42.54,0,0,1-9.85-10.09,2.91,2.91,0,0,1-.48-1.29m49.43-4.53c-.56.67-1.45,1.76-2.09,2.72a4.11,4.11,0,0,0,1.66-1.7,5.3,5.3,0,0,0,.43-1m-4-15.92.18.35c1,1.89,1.87,3.84,2.63,5.68a51.18,51.18,0,0,0-2.22-5.26s-.21-.29-.59-.77M61.6,72c.2,3,.36,6,.46,9.09a13.14,13.14,0,0,0,.38-2.19,17.12,17.12,0,0,0-.5-5.66c-.1-.41-.21-.82-.34-1.24m-3.71-8.18,1.07.51c0-.11,0-.23,0-.35a5,5,0,0,0-1.06-.16m45-24.84c-1.39,0-1.69,1.25-2.67,1.85a2.06,2.06,0,0,1-.36,0,7.58,7.58,0,0,1-2-.38,2.09,2.09,0,0,0-.61-.12c-.92,0-.82,1.14-1,2,0,1.52-2.49.91-3.15,1.92-1,1.21.63,4.45-1.36,4.45,1.54.1-1.65,2.79-2.5,2.79-.14,0-.22-.07-.19-.25h0a5.1,5.1,0,0,1-1.63-.88,9.37,9.37,0,0,1-1.14-1.12c-.82-1.92-3.29-4.06-5-6h0a11.88,11.88,0,0,0-1.41.67,6.25,6.25,0,0,1-2.62.67,3.91,3.91,0,0,1-1.06-.14,17.3,17.3,0,0,0-4.27-1.14,1.64,1.64,0,0,0-.86.19c-.07.33.79,1.33.72,1.67s.25,3.65.56,7,.48,6.67-.15,6.7a6.61,6.61,0,0,1-3.53-1.93C66,54.2,64.1,53.73,61.66,51.8c-.63-.54-1.19-1.41-1.83-2-1.74-1.34-3.89-2.75-4.72-2.75H55a4.67,4.67,0,0,0-.81-.07c-1.29,0-2.12.53-2.22,1.53L50.54,49.8a18.58,18.58,0,0,0,.86,3.3c.56,2,1.35,3,.76,3h0C52,56.2,54.9,60,55.73,62.71c.07,0,.52.3,1.33.71a24.3,24.3,0,0,1-1.36-5c-.2-1.66,0-3,1.46-3a6.18,6.18,0,0,1,2.81,1s.78.14,2,.42,2.89.73,4.66,1.33c3.53,1.23,7.5,3.18,9,6.31,0,0,.75,1.54,1.79,4a94.82,94.82,0,0,1,3.46,9.33c2.24,7.14,3.51,15.37.63,19,0,0-.72.63.61,4.92a7.69,7.69,0,0,1-1.09,2.93,3.31,3.31,0,0,1-2.74,1.54,5,5,0,0,1-2.36-.69,44.82,44.82,0,0,0-4.88-.53c-.41,0-.83,0-1.24,0-2.1,0-4,.31-4.56,1.47a11.91,11.91,0,0,0-2.2-.76,4.91,4.91,0,0,0-.9-.11,1.55,1.55,0,0,0-.91.24c-.26.59-.41,1-.41,1a1.11,1.11,0,0,1,.41-1l.56-1.24c-1.65,2.17-3.44,3.94-4.76,3.94a1.27,1.27,0,0,1-.84-.31,23.74,23.74,0,0,1-3.33.67,15,15,0,0,1-2.13.14,7.65,7.65,0,0,1-2.68-.41c.43.25.86.54,1.31.84A73.26,73.26,0,0,1,57,115.55c3.3,3.18,7.77,8.24,10.33,8.24a1.46,1.46,0,0,0,1-.37c1.71-2,2.15-5.27,4-6.84a5.64,5.64,0,0,0-1.22,1.16h0A7.72,7.72,0,0,0,69.68,121h0a7.57,7.57,0,0,1,1.42-3.29h0a5.64,5.64,0,0,1,1.22-1.16,3.6,3.6,0,0,1,2-.86,7.21,7.21,0,0,1,1.45-.14h0a10.08,10.08,0,0,1,2,.22h.78a12.8,12.8,0,0,0,4.38-.61h.27a1,1,0,0,0,.59-.42l1.71,0a35.65,35.65,0,0,1,2.71-2.5,5.9,5.9,0,0,0,1.16-2.81h0v-.11h0a.22.22,0,0,0,0-.08v0h0v-.15h0V109a7.85,7.85,0,0,0-.4-1.63l-.07-.13h0v0s0-.07,0-.11a6,6,0,0,1,.78-1.52c.34-.63.75-1.22,1.13-1.3.76-.85,1.32-1.71.95-3.94-.19-1-.41-2-.62-3.07-.08-.28-.18-.57-.28-.87.1.3.2.59.28.87-.89-4.34-1.71-8.53-.54-11.07a6.25,6.25,0,0,1,3.66-3.81.47.47,0,0,1,.23,0c1.13,0,5.41,1.47,6.85,2a3.32,3.32,0,0,0,1.11.23c1.74,0,1.62-2.23,1.08-4.21a26.86,26.86,0,0,1-2.06-10.55c.35-.81,1.84-.49,2.47-1.17.94-2.09-.46-5.48-.38-7.95,2.6-7,.19-8,.6-8h0a.34.34,0,0,1,.3-.12,5.22,5.22,0,0,1,1.48.46,5.39,5.39,0,0,0,1.63.47,1.18,1.18,0,0,0,.28,0c1.06-.65.67-2.55-.06-4.22-1.41-3.59-2.7-7.44-1.47-9.24-.93-.2-2.23-.84-3.1-1l-.3,0m4.79-.19a1.93,1.93,0,0,0-.23.37,3.1,3.1,0,0,1,.65-.15l-.42-.22"/><path class="b" d="M55.72,62.71c.43,1.77-.86,2.11-.2,4.05.67,3.06-1.42,8.52-1.84,10.83-.72,4.51-1.85,6-5,6.35h-.18c-2.48,0-3,1.92-5,2.61-2,.95-2.93,2.23-4.93,3.1a11,11,0,0,0-5.95,1.79,1.74,1.74,0,0,0-.23,1.12c.07.51-.49.65-.64,1h-.27a9.72,9.72,0,0,1-2.12-.34,10.2,10.2,0,0,0-2-.34,1.74,1.74,0,0,0-1.35.5,1.72,1.72,0,0,0-.23,1.29A1.62,1.62,0,0,1,26,93.46,1.75,1.75,0,0,1,27.3,93a9.52,9.52,0,0,1,2.05.34,9.81,9.81,0,0,0,2.13.34h.26c.15-.3.71-.44.64-.95a1.71,1.71,0,0,1,.23-1.12,11,11,0,0,1,6-1.79c2-.88,3-2.15,4.94-3.11,2-.68,2.56-2.61,5-2.6h.18c3.14-.35,4.27-1.84,5-6.34.42-2.32,2.51-7.78,1.84-10.84-.66-1.94.64-2.28.2-4.06l0-.11h0"/><path class="c" d="M55.73,62.71l0,.11c.44,1.78-.86,2.12-.2,4.06.67,3.06-1.42,8.52-1.84,10.84-.73,4.5-1.86,6-5,6.34h-.18c-2.48,0-3,1.92-5,2.6-2,1-2.93,2.23-4.94,3.11a11,11,0,0,0-6,1.79,1.71,1.71,0,0,0-.23,1.12c.07.51-.49.65-.64.95h-.26a9.81,9.81,0,0,1-2.13-.34A9.52,9.52,0,0,0,27.3,93a1.75,1.75,0,0,0-1.35.5,1.62,1.62,0,0,0-.24,1.16,2.91,2.91,0,0,0,.48,1.29A42.54,42.54,0,0,0,36,106a6.43,6.43,0,0,0,3.88,1.41h0a28.52,28.52,0,0,0,3.3-.57l1.26-.88-.23-.15A7.3,7.3,0,0,0,41,104.46a1.29,1.29,0,0,0-1.07.47s-.66-.17-1.6-.49A26.22,26.22,0,0,1,35,103c-2.27-1.19-4.13-2.78-2.88-4.23,0,0,.23-.64.55-1.4a15.43,15.43,0,0,1,1-2.11L36,94.49c1.4-.46,3.29-1.07,5.21-1.73,3.14-1,6.42-2.07,8.15-2.07a1.76,1.76,0,0,1,1,.21s.3,0,.82-.15a13.91,13.91,0,0,0,2.07-.63,16,16,0,0,0,5.64-3.52,12.25,12.25,0,0,0,3.22-5.49c-.1-3-.26-6.07-.46-9.09a33.31,33.31,0,0,0-2.51-5.81S59,65.4,59,64.35l-1.07-.51H57.7a3.7,3.7,0,0,0-.47,0l-.17-.44c-.81-.41-1.26-.67-1.33-.71"/><path class="d" d="M59,64c0,.12,0,.24,0,.35,0,1.05.13,1.86.13,1.86A33.31,33.31,0,0,1,61.6,72c.13.42.24.83.34,1.24a17.12,17.12,0,0,1,.5,5.66,13.14,13.14,0,0,1-.38,2.19,12.25,12.25,0,0,1-3.22,5.49,16,16,0,0,1-5.64,3.52,13.91,13.91,0,0,1-2.07.63c-.52.11-.82.15-.82.15a1.76,1.76,0,0,0-1-.21c-1.73,0-5,1.08-8.15,2.07C39.29,93.42,37.4,94,36,94.49l-2.29.79a15.43,15.43,0,0,0-1,2.11c-.32.76-.55,1.4-.55,1.4-1.25,1.45.61,3,2.88,4.23a26.22,26.22,0,0,0,3.3,1.42c.94.32,1.6.49,1.6.49a1.29,1.29,0,0,1,1.07-.47,7.3,7.3,0,0,1,3.32,1.35l.23.15A33,33,0,0,1,47.31,108l.2.17a3.59,3.59,0,0,0,.59.29,7.65,7.65,0,0,0,2.68.41,15,15,0,0,0,2.13-.14,23.74,23.74,0,0,0,3.33-.67,1.27,1.27,0,0,0,.84.31c1.32,0,3.11-1.77,4.76-3.94l.12-.27c.66-1.47,1.53-3.42,2.54-5.25,1.7-3.09,3.63-6,5.62-6a2.22,2.22,0,0,1,1.11.31h0a3.83,3.83,0,0,0,1.78-.48c.64-1,1.53-2,2.09-2.72.6-1.93.54-5-1.19-9.89-.76-1.84-1.67-3.79-2.63-5.68l-.18-.35a53.34,53.34,0,0,0-4.5-5C64.28,66.84,61.45,64.6,59,64"/><path class="e" d="M61.28,105.7a1.11,1.11,0,0,0-.41,1s.15-.36.41-1M57.16,55.39c-1.44,0-1.66,1.39-1.46,3a24.3,24.3,0,0,0,1.36,5l.17.44a3.7,3.7,0,0,1,.47,0h.19A5,5,0,0,1,59,64c2.5.6,5.33,2.84,7.69,5.14a53.34,53.34,0,0,1,4.5,5c.38.48.59.77.59.77A51.18,51.18,0,0,1,74,80.2c1.73,4.85,1.79,8,1.19,9.89a5.3,5.3,0,0,1-.43,1,4.11,4.11,0,0,1-1.66,1.7,3.83,3.83,0,0,1-1.78.48h0A2.22,2.22,0,0,0,70.12,93c-2,0-3.92,2.87-5.62,6-1,1.83-1.88,3.78-2.54,5.25l-.12.27-.56,1.24a1.55,1.55,0,0,1,.91-.24,4.91,4.91,0,0,1,.9.11,11.91,11.91,0,0,1,2.2.76c.52-1.16,2.46-1.47,4.56-1.47.41,0,.83,0,1.24,0a44.82,44.82,0,0,1,4.88.53,5,5,0,0,0,2.36.69,3.31,3.31,0,0,0,2.74-1.54,7.69,7.69,0,0,0,1.09-2.93c-1.33-4.29-.61-4.92-.61-4.92,2.88-3.62,1.61-11.85-.63-19a94.82,94.82,0,0,0-3.46-9.33c-1-2.43-1.79-4-1.79-4-1.54-3.13-5.51-5.08-9-6.31-1.77-.6-3.43-1-4.66-1.33s-2-.42-2-.42a6.18,6.18,0,0,0-2.81-1"/><path class="f" d="M98.65,36.85a3.58,3.58,0,0,0-1.73.46,9.2,9.2,0,0,0-4.8,3.14c1,1.84-.86,1.73-1.49,2.31a.88.88,0,0,1-.43.07h-.42l-.29,0c-.57.34-.62,1.18-1.39,1.17a1.81,1.81,0,0,1-.65-.14,57.55,57.55,0,0,0-8.54-3.17,42.45,42.45,0,0,0-7.4-.57,14.56,14.56,0,0,0-2.55.14c-1.87.25-1.86,2.24-3.3,2.81h0a1.93,1.93,0,0,1-.37-.5c-.11.12-.21.25-.31.38.11.24.14.81.24,1a1,1,0,0,1-.5.12,3.73,3.73,0,0,1-1-.19,12.48,12.48,0,0,0-5.23-1.13c-.78,0-1.52.06-2.25.12S54.78,43,54,43a11.21,11.21,0,0,1-3.54-.55,9.47,9.47,0,0,0-1.34-.15c-.51,0-1,.11-1.11.47-.13.63-.79.93-.66,1.72.52,1.73,1.64,4,2.39,5.95l.78-.67L52,48.56c.1-1,.93-1.53,2.22-1.53a4.67,4.67,0,0,1,.81.07h.09c.83,0,3,1.41,4.72,2.75.64.55,1.2,1.42,1.83,2,2.44,1.93,4.31,2.4,6.88,5.13a6.61,6.61,0,0,0,3.53,1.93c.63,0,.47-3.35.15-6.7s-.77-6.72-.56-7-.79-1.34-.72-1.67a1.64,1.64,0,0,1,.86-.19,17.3,17.3,0,0,1,4.27,1.14,3.91,3.91,0,0,0,1.06.14,6.25,6.25,0,0,0,2.62-.67,11.88,11.88,0,0,1,1.41-.67h0c1.73,2,4.2,4.12,5,6a9.37,9.37,0,0,0,1.14,1.12A5.1,5.1,0,0,0,89,51.3h0c0,.18,0,.25.19.25.85,0,4-2.69,2.5-2.79,2,0,.35-3.24,1.36-4.45.66-1,3.16-.4,3.15-1.92.17-.87.07-2,1-2a2.09,2.09,0,0,1,.61.12,7.58,7.58,0,0,0,2,.38,2.06,2.06,0,0,0,.36,0c1-.6,1.28-1.85,2.67-1.85l.3,0c.87.18,2.17.82,3.1,1a2.58,2.58,0,0,0,.46.05c.4,0,.65-.17.65-.63a.5.5,0,0,1,0-.28,1.93,1.93,0,0,1,.23-.37.52.52,0,0,0,0-.74h0c-.45,0-1.2-.36-1.81-.39a3,3,0,0,0-.58,0,5,5,0,0,0-.9.08,5,5,0,0,1-.88.09,3.12,3.12,0,0,1-.91-.13,38.31,38.31,0,0,0-3.93-.82"/><path class="g" d="M69.68,121h0m1.42-3.29A7.57,7.57,0,0,0,69.68,121a7.72,7.72,0,0,1,1.42-3.29m4.64-2.16a7.21,7.21,0,0,0-1.45.14,5.31,5.31,0,0,0-2,.86,5.64,5.64,0,0,0-1.22,1.16h0a5.64,5.64,0,0,1,1.22-1.16,5.31,5.31,0,0,1,2-.86,7.21,7.21,0,0,1,1.45-.14m8-.79a1,1,0,0,1-.59.42,10.46,10.46,0,0,1-2.33.5c-1.35.16-2.65.19-2.65.19l-.45-.1a10.08,10.08,0,0,0-2-.22h0a10.08,10.08,0,0,1,2,.22l.45.1s1.3,0,2.65-.19a10.46,10.46,0,0,0,2.33-.5,1,1,0,0,0,.59-.42l1.71,0h0l-1.71,0M88,112.54a11.45,11.45,0,0,1-2.48,2.28A11.45,11.45,0,0,0,88,112.54m1.32-3a5.9,5.9,0,0,1-1.16,2.81,1.77,1.77,0,0,1-.16.22h0a1.77,1.77,0,0,0,.16-.22,5.9,5.9,0,0,0,1.16-2.81m0,0h0m0-.11v0m0,0h0m0-.08a.22.22,0,0,1,0,.08.22.22,0,0,0,0-.08m0,0v0m0,0h0m0-.15v0m0-.07v0m-.47-1.84h0l.07.13a4.15,4.15,0,0,1,.4,1.63v0a4.15,4.15,0,0,0-.4-1.63l-.07-.13m3-5.71a5.89,5.89,0,0,1-.13,1.31,2.26,2.26,0,0,1-.77,1.46l-.11,0h-.08c-.38.08-.79.67-1.13,1.3a14.11,14.11,0,0,0-.74,1.63v0h0v0a14.11,14.11,0,0,1,.74-1.63c.34-.63.75-1.22,1.13-1.3h.08l.11,0a2.26,2.26,0,0,0,.77-1.46,5.89,5.89,0,0,0,.13-1.31h0m-1-5.12c.1.3.2.59.28.87a14.67,14.67,0,0,1,.76,4.25h0a14.67,14.67,0,0,0-.76-4.25c-.08-.28-.18-.57-.28-.87"/><path class="h" d="M93.91,33.74a10.18,10.18,0,0,0-5.3,1.17c-.46.28,0,1.24,0,1.85.1,1.55-2,1.57-1.08,3.86.14.3-.06.45-.33.45h-.06c-4-1.18-7.7-2.21-11.46-3.21a20.6,20.6,0,0,0-4.93-.47,39.64,39.64,0,0,0-4.33.21c-2.84,1.06-1.75,3.84-1.08,5a1.93,1.93,0,0,0,.37.5h0c1.44-.57,1.43-2.56,3.3-2.81a14.56,14.56,0,0,1,2.55-.14,42.45,42.45,0,0,1,7.4.57,57.55,57.55,0,0,1,8.54,3.17,1.81,1.81,0,0,0,.65.14c.77,0,.82-.83,1.39-1.17l.29,0h.42a.88.88,0,0,0,.43-.07c.63-.58,2.45-.47,1.49-2.31a9.2,9.2,0,0,1,4.8-3.14,3.58,3.58,0,0,1,1.73-.46,38.31,38.31,0,0,1,3.93.82,3.12,3.12,0,0,0,.91.13,5,5,0,0,0,.88-.09,5,5,0,0,1,.9-.08,3,3,0,0,1,.58,0c.61,0,1.36.37,1.81.39h0c0-.31.55-.44.1-.77a5.9,5.9,0,0,0-1.76-.94c-2.22-.65-4.59-1.62-6.56-2a30.86,30.86,0,0,0-5.53-.59"/><path d="M45,81.49c.3-1.75.77-3.63,3-4.51.44-.18.66-1,.91-1.51.66-1.4,1.31-2.73,3.17-2.79A1.71,1.71,0,0,0,53.19,72a3.31,3.31,0,0,1,2.17-1.68c.41-.07.83-.69,1-1.16.76-1.67,1.42-3.39,3.47-3.92,1.62-2.24,4.31-3.4,5.79-5.83a7.19,7.19,0,0,1,2.17-1.71c.51-.36,1.09-.61,1.61-1s.69-.71,1.12-.88c2.5-1,4.49-2.57,5.36-5.26a.3.3,0,0,1,.15-.18c2.38-.74,3.74-3,6-4,2.45-1.08,4.24-2.95,6-4.82a2.34,2.34,0,0,0,.65-1c.7-3.15,3.33-4,5.86-5.05a20.88,20.88,0,0,0,2.1-1.09c1.1-.6,2.19-1.22,3.27-1.84a14.54,14.54,0,0,0,1.78-1.08c1.93-1.58,3.37-1.64,5.29,0a4.58,4.58,0,0,0,2,1,34.12,34.12,0,0,1,4.57,1.8c.64.27,1.26.61,1.79.87,1-.59,1.9-1.17,2.84-1.59a5.1,5.1,0,0,1,7.17,3.23c.3,1,.68,1.6,1.86,1.77a2.81,2.81,0,0,1,1.79,1.39c.81,1.6,1.39,3.32,2.06,5,.06.14,0,.35.08.46,1.79,2.27.32,4.07-.94,5.76-1.8,2.42-3.71,4.77-5.73,7a50.47,50.47,0,0,1-5,4.66,8.89,8.89,0,0,1-2.48.92c-1.19,3.6-4.24,6.24-7.51,8.67-.72.53-1.2,1.42-2.4,1.29-.37,0-.94.9-1.28,1.48-1.3,2.29-2.66,4.52-4.91,6-.63.43-1.3.79-2.1,1.26-.33.94-.67,2.08-1.12,3.17a8.09,8.09,0,0,1-3,3.87,43.55,43.55,0,0,0-3.31,3,10,10,0,0,1-2.07.94c-.15,2.67-2.56,4-4.41,5.81-.28.27-.87.41-.93.7-.67,3-3.55,3.32-5.63,4.6-.68,4.55-3.46,7.5-10.1,8.74a5.78,5.78,0,0,0-1.15.32c-4.11,1.65-7.46.19-10.34-2.7-1.61-1.62-3-3.45-4.56-5.27a55.4,55.4,0,0,1-4.31,6.46c-1.34,1.54-2.3,3.6-4.51,4.31a3,3,0,0,0-1.11.87,4.88,4.88,0,0,1-4.36,1.35,57.56,57.56,0,0,1-9.73-2,10.19,10.19,0,0,1-7.39-9.69,3.7,3.7,0,0,1,.37-1.82,35.13,35.13,0,0,1,3.59-5.29,11.23,11.23,0,0,0,2.38-3.66c.89-2.42,2.84-3.93,5-5.22a15.13,15.13,0,0,0,2.91-2c2-2,4.6-3.32,6.35-5.68C42,82.37,43.54,82.16,45,81.49ZM73.8,98c-2.66-3.36-7.59-6.32-9.94-5.84.23.29.42.52.61.74,1.68,1.94,1.53,3-.61,4.37-.59.37-1.37.66-1.67,1.21-.87,1.56-2.29,1.89-3.81,2a3,3,0,0,1-2.11-.53c-.61-.59-.19-1.42.29-2.14.83-1.26,1.53-2.6,2.28-3.91-1.87.86-2.83,2.49-4,3.93-1.78,2.21-2.11,4.72-.55,7a32.46,32.46,0,0,0,5.14,5.84A6.37,6.37,0,0,0,65,112.21c1.78-.36,3.56-.75,5.31-1.24A7.65,7.65,0,0,0,72,110l-.17-.46-2.62.3c-.25-.55-.36-1.25-.78-1.61-1.59-1.36-1.63-2.91-.87-4.69a4.22,4.22,0,0,0-.6-4.67c-1-1.22-.19-2.67,1.44-2.67a6.62,6.62,0,0,1,2.27.58c1,.4,2,.91,3,1.37L76,101.46C76.27,99.61,75.29,98.64,73.8,98ZM36.23,112.86c2-1.39,2.48-3.39,1.74-5.77a1.52,1.52,0,0,1,0-.94,2.34,2.34,0,0,1,.71-1.14,4.68,4.68,0,0,1,6.46,1.46,13.61,13.61,0,0,1,.65,1.33c.44-4.54-2.47-7.23-5.75-9s-7.3-2.62-10.77.4a12.55,12.55,0,0,0,2.89-.75,5,5,0,0,1,6,1.81c1.14,1.78,1,2.7-.6,4.07-.48.41-1,.84-1.44,1.24a3.34,3.34,0,0,1-3.1.71A8.28,8.28,0,0,1,29,103.91c-1.07-1.06-1.17-2.45-1.17-4.32a22.81,22.81,0,0,0-2,1.87c-.75.92-1.32,2-2.1,2.88a4.68,4.68,0,0,0-.77,4.71,7.66,7.66,0,0,0,5.45,5.75c1.37.4,2.7,1,4.09,1.22,2.05.37,4.13.54,6.2.8l.22-.47C37.89,115.33,36.13,114.86,36.23,112.86ZM92.36,58.24c3.79,1.49,5.84,4,6.26,7.73.32,2.83.54,5.67.76,8.52.13,1.7.15,3.4.23,5.22a3.09,3.09,0,0,0,2.19-2.44q.74-2.88,1.46-5.76a18.8,18.8,0,0,0-1.48-12.94c-1.69-3.58-5.21-4.11-8.1-1.38C93.35,57.5,93,57.76,92.36,58.24Zm9-10.38a12.2,12.2,0,0,1,1.63.83c2.73,2,5.32,4.32,5.45,8,.13,3.86.74,7.75-.2,11.61a22.11,22.11,0,0,0-.27,2.82c1.83-1.07,2.95-2,3.25-3.76a30,30,0,0,1,1.24-4.83,14.9,14.9,0,0,0,.34-8.21,12.2,12.2,0,0,0-4.32-7.19C106.08,45.17,103.86,45.36,101.4,47.86ZM89,63.59a10,10,0,0,1,4.21,6.2,41.31,41.31,0,0,1,1,7c0,3-.45,6-.69,9,0,.69-.49,1.44.14,2.22,3.1-2.74,3.94-6.3,4-10A109.22,109.22,0,0,0,97,66.89a7.43,7.43,0,0,0-2.82-5.56c-2-1.53-3.57-1.13-4.63,1.21C89.41,62.82,89.26,63.1,89,63.59Zm-20.13,17c1.5.91,3,1.3,3.51,2.22A46.64,46.64,0,0,1,77,96c.16.91,0,1.81.65,2.65a5.25,5.25,0,0,1,.58,2c.13.49.24,1,.36,1.46,1.28-.25,1.51-1,1.47-2-.12-2.85,0-5.72-.28-8.55a70.25,70.25,0,0,0-1.69-9.09c-.63-2.57-3-4.27-5.3-3.77A18.4,18.4,0,0,0,68.89,80.63ZM86,94.6c2.29-2.48,2.62-3.44,2.34-6.67-.41-4.66-.81-9.32-1.33-14a15.15,15.15,0,0,0-1.13-4.1c-.57-1.34-1.2-1.41-3-.64l2.32,1.24a16.25,16.25,0,0,1-2.29.23c-2.53-.17-3.71,1.57-2,3.86,3.61,4.9,4.84,10.41,4.82,16.34C85.68,92,85.84,93.05,86,94.6Zm27.49-28.71a2.65,2.65,0,0,0,.56-.25,1.19,1.19,0,0,0,.29-.37c4.2-7.61,3.6-15.16-.41-22.62a3.53,3.53,0,0,0-4.69-1.5,4,4,0,0,0-1.87,2c-.37,1.06.72,1.51,1.51,2.06a12.36,12.36,0,0,1,2.59,2.41c3.59,4.56,4.26,9.72,2.88,15.24C114.06,63.83,113.76,64.79,113.44,65.89Zm4.36-3.66a6.85,6.85,0,0,0,2.66-3.49c1.26-4,1.93-8,1-12.16a13.46,13.46,0,0,0-2.39-5.88,5.53,5.53,0,0,0-3.78-1.78,5.08,5.08,0,0,0-1.61.35C118.43,46.37,120.17,53.72,117.8,62.23ZM90.33,90.88l.41.18a15.33,15.33,0,0,0,.67-2c.19-1,.18-2.05.37-3.06a35.41,35.41,0,0,0-.31-15.8,6.58,6.58,0,0,0-2.35-4c-1.5-1.08-2-1-3.78.59,2.28,1.11,3,3.2,3.24,5.44C89.22,78.4,89.75,84.64,90.33,90.88ZM82,99c2-1,2.42-2.56,2.17-4.47-.2-1.49-.19-3-.36-4.51-.26-2.44-.47-4.89-1-7.3a14.36,14.36,0,0,0-3.08-6.62c-1.85-2.19-3.24-1.91-4.52.88a3.4,3.4,0,0,0,.7.55,6.81,6.81,0,0,1,3.85,4.56,40.48,40.48,0,0,1,1.87,10.75C81.74,94.83,81.86,96.85,82,99ZM67,77.77a22.21,22.21,0,0,0,2.86-1.53,4.51,4.51,0,0,0,1.46-1.74,20.71,20.71,0,0,0,1.41-9.08A6.47,6.47,0,0,0,70.87,61c-1.67-1.62-3.84-1.56-4.34,1.3A3.51,3.51,0,0,1,69,65a11.16,11.16,0,0,1-.12,4.91C68.21,72.32,67.74,74.79,67,77.77ZM97.68,53.21c5,1.65,6.64,5.43,7.41,9.85a26.15,26.15,0,0,1,.07,9.54A19.06,19.06,0,0,0,106.38,69c.89-3.59.34-7.24.45-10.86a9,9,0,0,0-3.12-6.89c-2-2-2.88-1.92-4.72.38C98.65,52.08,98.29,52.48,97.68,53.21Zm-50,51.32c2-1.87,2-1.83,1.08-3.64-1.12-2.25-2-4.6-3.19-6.84a24.69,24.69,0,0,0-2.89-4.55c-1.73-2-3.24-2-5.16-.13l-1.1,1.09a41.4,41.4,0,0,1,5.26,3.23c1.65,1.37,2.44,3.43,3.24,5.44C45.63,100.93,46.66,102.6,47.67,104.53ZM88,60.22l.3.17c1.6-1.82,3.21-3.62,4.78-5.47a2.58,2.58,0,0,0,.33-1.12c.16-.77.25-1.56.46-2.32A7.56,7.56,0,0,0,93.56,47a3.62,3.62,0,0,0-3.23-2.76c-1.66-.14-2.17,1.28-2.79,2.55a5.77,5.77,0,0,1,2.09,4.4,32.34,32.34,0,0,1-.52,4.7C88.85,57.38,88.36,58.79,88,60.22ZM41.51,86.33a15.12,15.12,0,0,1,6,8c.5,1.51.86,3.2,2.3,4.34a5.54,5.54,0,0,0,1-4.52,20.58,20.58,0,0,0-4-8.53C45.05,83.18,43.11,83.5,41.51,86.33ZM57.43,70.84a13.5,13.5,0,0,1,3.24,7.61A26.71,26.71,0,0,0,61.9,83a2.35,2.35,0,0,0,1-1.54c.18-3.23.43-6.46.35-9.69a7.56,7.56,0,0,0-1.4-3.67c-.9-1.39-2.36-1.24-3.25.19A25.4,25.4,0,0,0,57.43,70.84ZM77.09,54.22c.47.39.75.67,1.07.9a5.61,5.61,0,0,1,2.28,5.39,15.12,15.12,0,0,1-1.77,5.6c-.42.86-.83,1.73-1.24,2.59a15,15,0,0,0,3.34-2.44A5.46,5.46,0,0,0,82.42,64,19.17,19.17,0,0,0,81.91,54a2.57,2.57,0,0,0-2.59-2.07C77.93,52,77.55,53,77.09,54.22ZM75.92,96.68c-.68-1.81-1.18-3.12-1.66-4.43-.9-2.45-1.76-4.91-2.69-7.35a2.39,2.39,0,0,0-2.27-1.79c-1.12,0-2.21,0-2.72,1.45,1.84,1.75,2.45,4,2.84,6.39a2.37,2.37,0,0,0,.72,1.4C71.86,93.71,73.65,95,75.92,96.68ZM52.85,93c1.19-.57,1.73-1.17,1.24-2.48a19.75,19.75,0,0,1-.83-3.93,16.33,16.33,0,0,0-2.94-6.66c-1-1.43-2.45-1.28-3.16.26-.46,1-.79,2.15.1,3.11a24.65,24.65,0,0,1,4.92,8.83A4.33,4.33,0,0,0,52.85,93Zm18.5-33.9c3.41,2.59,3.3,6.23,3.75,9.74a49.55,49.55,0,0,0,3.2-6.93,4.26,4.26,0,0,0-2.08-5.62l-1.31,1.89L73.77,57Zm13.28,3.6c2.64-4.17,3.77-10.56,2.35-13.4l-1.15,2c-.39-1.18-.64-2-.9-2.77-1.58-.06-2.49.81-3.36,2,2.2,1.55,2.56,3.85,2.76,6.16C84.5,58.68,84.53,60.63,84.63,62.68ZM95.86,47.56a14.59,14.59,0,0,0,.79-1.76c.32-1.39.66-2.79.84-4.2.44-3.29-1.23-4.59-4.74-3.62,1,2.3-2.18,2.25-2.32,4.12C93.22,42.63,94.77,44.52,95.86,47.56Zm20.93-10.51a9.08,9.08,0,0,1,5.1,5.16,18.68,18.68,0,0,1,1.26,4.31c.35,2.57.45,5.17.67,8a32,32,0,0,0,1.1-3.25c1-4.24,1-8.34-2.35-11.71C121,38,119.47,36.16,116.79,37.05ZM50.25,77A21.56,21.56,0,0,1,55.5,88.76l2-1.9c-1-3.31-2-6.54-3.1-9.75a3,3,0,0,0-2.8-2.37ZM29.14,96.37c4.48-2.38,8.55,0,12.86.91-1.18-3.32-3.87-4.44-6.82-4.89S30.73,94.23,29.14,96.37Zm68.37-60c2.67,2.45,1.92,5.38,1.42,8.39,2.61-1.9,4.19-6.08,3.51-8.88A1.63,1.63,0,0,0,100,34.69,19,19,0,0,0,97.51,36.4ZM58.8,85.25c1.29-.19,1.59-.71,1.36-1.7-.58-2.46-1-5-1.7-7.39a13.27,13.27,0,0,0-1.75-3.33,1.29,1.29,0,0,0-1.21-.35,2.07,2.07,0,0,0-.79,1.31c-.05.4.37.84.54,1.27.76,2,1.54,4,2.25,6C58,82.37,58.34,83.75,58.8,85.25ZM65.08,77l.33,0c.63-2.83,1.31-5.65,1.88-8.49a6.41,6.41,0,0,0,0-2.58,2.5,2.5,0,0,0-1.09-1.61c-1-.46-1.29.51-1.65,1.21-.06.1-.27.12-.29.14l-1.44-.2c.82,2,1.84,3.76,2.19,5.62A31.15,31.15,0,0,1,65.08,77Zm-5.3,13.1c2.87-1.35,5.21.25,7.74.27a6.17,6.17,0,0,0-2.47-4.58c-.43-.29-1.38-.49-1.65-.25C62.12,86.74,60.52,87.69,59.78,90.12ZM126.9,51.89a7.4,7.4,0,0,0,2.51-6.32,7.74,7.74,0,0,0-2.19-4.6c-.2-.22-.72-.13-1.4-.23C127.79,44.53,127.33,48.21,126.9,51.89ZM102.41,32.54c2.42,2,1.86,4.53,2.14,7.07,1.77-1.9,2.72-3.7,1.7-6C105.68,32.38,104.91,32.16,102.41,32.54Zm5.84,5.2.39.25c.53-.32,1-.68,1.59-1s1.06-.41,2-.77l-3-1.09Zm15.13.09c-.29-2.3-.55-2.52-3.09-2.52Zm-49.7,63.64c-1.23,1.28-2.53,2-3.36,3.81C73.74,102.6,73.74,102.6,73.68,101.47Zm-38.84.43L33,104.46C34.41,104.23,34.41,104.23,34.84,101.9Zm40,5.11.51.18.74-2.66-.39-.11C75.46,105.29,75.17,106.15,74.88,107Zm-30.4,4.7-.34-.27-1.43,1.86.42.32ZM61.64,92.39c-.93-.52-1.5-.36-1.73.9C60.67,92.9,61.16,92.65,61.64,92.39Z"/><path d="M62.19,111.13a14.72,14.72,0,0,1-2.28-1.45,19.91,19.91,0,0,1-2.9-3.12,7.16,7.16,0,0,1-1.26-3c-.24-1.57,1-2.41,2.56-2,2,.56,4,1.13,5.21,2.94a10.32,10.32,0,0,1,1.63,3.33C65.61,109.9,64.48,111,62.19,111.13Z"/><path d="M33.18,113c-.14,1.4-1.07,2.51-2.69,1.73a32.13,32.13,0,0,0-3.33-1.19,3.58,3.58,0,0,1-.88-.34c-1.17-.79-2.61-6.24-2-7.53a2.37,2.37,0,0,1,2.41-1.16,4.64,4.64,0,0,1,4.18,2.32A43,43,0,0,1,33.18,113Zm-2.4-.41a13.33,13.33,0,0,0-.26-1.41c0-.15-.28-.24-.45-.38C29.55,112,29.55,112,30.78,112.54Z"/></svg>