<svg xmlns="http://www.w3.org/2000/svg" viewBox="0 0 150 150"><defs><style>.a{fill:#d9cdc5;}.b{fill:#fff6c0;}.c{fill:#bcab9e;}.d{fill:#b19d8f;}.e{fill:#816654;}.f{fill:#7e614e;}.g{fill:#89715d;}.h{fill:#886c45;}.i{fill:#a48c7d;}.j{fill:#d2c8be;}.k{fill:#b29e8f;}.l{fill:#9d8575;}.m{fill:#ece8e4;}.n{fill:#ffec97;}.o{fill:#ffea88;}.p{fill:#b79d5d;}.q{fill:#815f30;}.r{fill:#7c5a2d;}.s{fill:#866936;}.t{fill:#d0b76f;}.u{fill:#e9d885;}.v{fill:#ffdc4b;}.w{fill:#ffd945;}.x{fill:#ffdd54;}.y{fill:#ffe774;}.z{fill:#b79a48;}.aa{fill:#815b24;}.ab{fill:#7c5823;}.ac{fill:#866529;}.ad{fill:#d0b455;}.ae{fill:#e9d265;}.af{fill:#fff4ba;}.ag{fill:#ffeb87;}.ah{fill:#ffe46c;}.ai{fill:#b79942;}.aj{fill:#7c5620;}.ak{fill:#866527;}.al{fill:#815b23;}.am{fill:#d0b250;}.an{fill:#e9ce5e;}.ao{fill:#fff9e2;}</style></defs><title>icon</title><path class="a" d="M23.88,69.41h0A7.84,7.84,0,0,0,24,70.53a12.94,12.94,0,0,0,2.67,6.15h0A12.94,12.94,0,0,1,24,70.53h0a7.84,7.84,0,0,1-.08-1.12h0m0,0h0m0,0h0m.31-1.68a.49.49,0,0,1-.14.17,4.17,4.17,0,0,0-.12.68h0a6,6,0,0,0-.05.8v0h0a6.37,6.37,0,0,1,.05-.83,4.17,4.17,0,0,1,.12-.68.49.49,0,0,0,.14-.17h0m.73-5.41c0,.22-.12,1.38-.23,2.62h0v.11h0v-.11c.11-1.24.21-2.4.23-2.62h0m-.69-1.76a3.37,3.37,0,0,0,.61,1.63h0a3.37,3.37,0,0,1-.61-1.63h0M28.91,48l-.09.07s-.53.72-1.23,1.85a28.27,28.27,0,0,0-2.17,4.31l-.15.39h0l.15-.39a28.27,28.27,0,0,1,2.17-4.31c.7-1.13,1.23-1.85,1.23-1.85l.09-.07h0m11-7.72-.54.11h0a28.28,28.28,0,0,0-3.64,1.91h0A22.5,22.5,0,0,0,32.26,45h0a22.5,22.5,0,0,1,3.49-2.66,27.44,27.44,0,0,1,3.64-1.91l.54-.11h0m6.8-2.63A17,17,0,0,1,44.16,39h0a17,17,0,0,0,2.57-1.32h0"/><path class="b" d="M65.81,68.31h0c-.19.64-.36,1.36-.52,2.17h0A24.09,24.09,0,0,0,65,73h0l0,.47h0L65,73a24.09,24.09,0,0,1,.34-2.47c.16-.81.33-1.53.52-2.17h0m.8-2.22-.08.1h0l.08-.1h0M84.25,51.93c-.44.26-1,.54-1.53.82l-.11,0h0a15.24,15.24,0,0,0,1.64-.86h0"/><path class="c" d="M65.34,29.6a28,28,0,0,0-3.08.17A25.92,25.92,0,0,0,54.05,32,22,22,0,0,0,51,33.76,13.44,13.44,0,0,0,49.39,35a4.76,4.76,0,0,0-.54.62,11.78,11.78,0,0,1-2.12,2h0a11.68,11.68,0,0,0,1.65-1.28l.55-.55h0l.24-.27h0a3.73,3.73,0,0,1,.29-.3A18.49,18.49,0,0,1,52.57,33a25.87,25.87,0,0,1,4.32-2c.61-.22,1.16-.39,1.5-.49l.55-.16-.55.16h0l.55-.16-.55.16h0l.55-.16-.55.16c-.34.1-.89.27-1.5.49a25.87,25.87,0,0,0-4.32,2,18.49,18.49,0,0,0-3.11,2.21,3.73,3.73,0,0,0-.29.3h0l-.24.27h0l-.55.55a11.68,11.68,0,0,1-1.65,1.28A10.31,10.31,0,0,1,44.16,39a27.42,27.42,0,0,1-4.23,1.31c-.57.21-1.15.45-1.73.72a21.14,21.14,0,0,0-5.56,3.73,3.85,3.85,0,0,0-.38.23,5.67,5.67,0,0,0-1,1.21c-.79.58-1.59,1.2-2.34,1.83a73.35,73.35,0,0,0-3.64,6.62A16.57,16.57,0,0,0,24.21,59c0,.24,0,.48,0,.71a6.37,6.37,0,0,0,.05.89,6,6,0,0,0,.61,1.63l.08.09h0v0l.06.09h0c-.07,1-.18,1.87-.3,2.64a9.14,9.14,0,0,1-.49,2.68c0,.14-.05.29-.07.43a11.93,11.93,0,0,0-.14,1.7,8.19,8.19,0,0,0,.9,3.71c.55,1,1.14,2.08,1.75,3.11.17.23.36.46.55.69-.19-.23-.38-.46-.55-.69h0c.17.23.36.46.55.69-.19-.23-.38-.46-.55-.69h0c.17.23.36.46.55.69-.19-.23-.38-.46-.55-.69,1,1.64,2,3.26,3,4.89,1.67,2.66,3.28,5.33,4.81,8.36,1.8,3.41,3.82,6.66,5.91,9.83a6.77,6.77,0,0,1,.61,1.56c.21.72.46,1.6.71,2.51s.54,1.83.79,2.62.48,1.48.62,1.92a5,5,0,0,0,3.42,3.11,7,7,0,0,0,2.28.33h.14a8,8,0,0,0,2-.26c4.19-1.49,7.27-2.68,10.33-3.44,1,0,1.63,1.16,2.61,1.38H64l.72,0q.45,0,1.08,0a22.25,22.25,0,0,0,3-.22,16,16,0,0,0,4.91-1.52,13.78,13.78,0,0,0,4.62-3.74,11.58,11.58,0,0,0,2-3.93,9.44,9.44,0,0,0,.39-2.68h0a8.28,8.28,0,0,0,0-.93c0-.14,0-.25-.06-.38l-.09-.27c-.11-.36-.21-.72-.29-1.08h0v-.1a15.26,15.26,0,0,0-.1-1.61A25.88,25.88,0,0,0,77,91.53c-1.2-.5-2.49-1-3.8-1.62a7.85,7.85,0,0,1-4.09-2.67l-.1.52v0l-.22,1.28,0,.21,0,.32,0,.36,0,.26v0a1.53,1.53,0,0,1,.11.54h0a.91.91,0,0,1-.26.64v0a.23.23,0,0,1,.11,0c.15,0,.21.18.21.47h0a5.23,5.23,0,0,1-.28,1.45l-.09.22a.9.9,0,0,0,0,.18,2.63,2.63,0,0,0,.1.45l0,.1h0l0,0h0l-.07-.09,0,0,0,0-.09-.07,0,0L68.06,94l-.32-.19-.19-.1-.35-.17-.53-.22-.3-.12L66,93.08h0l-.85-.27H65.1l-.71-.2L64,92.47H64l-.33-.09L62.12,92l-.76-.18-1.06-.25-1.54-.36-.23,0-3.26-.73h.22l.5,0a11,11,0,0,0,2-.3,13.78,13.78,0,0,0,2.07-.6,21.18,21.18,0,0,0,2.15-.88.41.41,0,0,0,.17-.29.24.24,0,0,0-.14-.21,1.88,1.88,0,0,1-.88-1.77h0v-.43a2.13,2.13,0,0,0-.32-1.28c-.18-.31-.53-.63-.73-1-.25.12-.49.22-.7.3a3.87,3.87,0,0,1-.89.24H58.6c-.12,0-.2,0-.2-.09h0v0A4.63,4.63,0,0,1,59.05,83a8.68,8.68,0,0,1,1.11-1.15l.66-.62.13-.28a7.47,7.47,0,0,0-.67.43,11.74,11.74,0,0,0-1.49,1.3c-.48.5-.92,1-1.38,1.57a8.17,8.17,0,0,1-3,2.59s-.29.12-.85.29a13.81,13.81,0,0,1-2.39.44c-.31,0-.65,0-1,0a12.89,12.89,0,0,1-2.7-.29A15.27,15.27,0,0,1,43,85.54a20.53,20.53,0,0,1-7.7-8.12,17.79,17.79,0,0,1-2.2-8.11h0a11.64,11.64,0,0,1,.18-2.07,1.39,1.39,0,0,0,0-.27,4.14,4.14,0,0,0-.1-.84,19.78,19.78,0,0,0-1.5-3.89,1.23,1.23,0,0,1,0-.18h0c0-.23,0-.65.07-1.21a14.37,14.37,0,0,1,.76-3.32c.87-2.54,3-5.48,5.89-5.88l.49-.25c.32-.17.77-.4,1.32-.66,1.09-.53,2.56-1.17,4-1.74,3-1.19,6-2,7-3.36a11.1,11.1,0,0,0,2.09.33h.31a3.5,3.5,0,0,0,1.19-.18,1.77,1.77,0,0,0,.31-.15l.18-.24a4.55,4.55,0,0,1,.72-.78h0a8.28,8.28,0,0,1-.64.8,1.09,1.09,0,0,1-.26.22l-.81,1.09c.37-.35.73-.69,1.08-1a7.77,7.77,0,0,1,.74-.59,15.39,15.39,0,0,1,1.59-.95,14.22,14.22,0,0,1,2.61-1,13.81,13.81,0,0,1,3.43-.55h.52a14.68,14.68,0,0,1,4.23.61,7.21,7.21,0,0,1,1.73.71,1.35,1.35,0,0,1,.7,1,26.38,26.38,0,0,1,2.73,2.15,11.29,11.29,0,0,1,2.85,3.62,26.51,26.51,0,0,1-.31-4.42h0c0-1.44.07-2.93.16-4.4.2-2,.64-4.46.64-6.56s-.44-3.81-2-4.26c-.6-.13-2.12-.64-4.79-1.1a31.22,31.22,0,0,0-4.93-.4"/><path class="d" d="M26.63,76.68h0c.17.23.36.46.55.69-.19-.23-.38-.46-.55-.69M24.68,65.05h0a9.14,9.14,0,0,1-.49,2.68h0a9.14,9.14,0,0,0,.49-2.68h0m.24-2.77h0v0h0v0h0m.35-7.67h0A16.57,16.57,0,0,0,24.21,59h0c0,.24,0,.48,0,.71h0c0-.23,0-.47,0-.71a16.57,16.57,0,0,1,1.06-4.35h0m7-9.66h0a6.27,6.27,0,0,0-.95,1.1l-.06.11c-.79.58-1.59,1.2-2.34,1.83h0c.75-.63,1.55-1.25,2.34-1.83a5.67,5.67,0,0,1,1-1.21h0m11.9-6h0a27.42,27.42,0,0,1-4.23,1.31h0A27.42,27.42,0,0,0,44.16,39h0m4.77-3.15h0l0,0c-.16.17-.33.35-.53.53h0a11.68,11.68,0,0,1-1.65,1.28h0a11.68,11.68,0,0,0,1.65-1.28l.55-.55h0m10-5.42-.55.16h0c-.33.1-.85.26-1.45.47l0,0a25.87,25.87,0,0,0-4.32,2,18.49,18.49,0,0,0-3.11,2.21h0a3.73,3.73,0,0,0-.29.3h0a3.73,3.73,0,0,1,.29-.3A18.49,18.49,0,0,1,52.57,33a25.87,25.87,0,0,1,4.32-2c.61-.22,1.16-.39,1.5-.49l.55-.16"/><path class="c" d="M69.07,87.18v.06a7.85,7.85,0,0,0,4.09,2.67c-.81-.37-1.63-.76-2.43-1.2a4.64,4.64,0,0,1-1.65-1.53"/><path class="c" d="M44.16,39l-.53.17a32.09,32.09,0,0,0-3.7,1.14A27.42,27.42,0,0,0,44.16,39"/><path class="c" d="M32.26,45c-.38.27-.93.69-1.47,1.15A17.19,17.19,0,0,0,29,47.87l-.07.12c.75-.63,1.55-1.25,2.34-1.83a5.67,5.67,0,0,1,1-1.21"/><path class="c" d="M76.71,51.48v.44a18.33,18.33,0,0,0,.13,2.25l1,.49.25-.12a6.86,6.86,0,0,1-1.43-3.06"/><path class="c" d="M25.27,54.61c-.14.31-.27.62-.38.93a10.53,10.53,0,0,0-.79,3.71,6.33,6.33,0,0,0,.13,1.31,6.37,6.37,0,0,1-.05-.89h0c0-.23,0-.47,0-.71a16.57,16.57,0,0,1,1.06-4.35"/><path class="c" d="M24.84,62.19l.08.13v0l-.08-.09"/><path class="c" d="M41,64.21a8,8,0,0,0-1,3.06,8.51,8.51,0,0,0,0,.88c0,.15,0,.3,0,.46.07-.37.16-.81.26-1.3.21-1,.48-2.1.74-3.1"/><path class="c" d="M52.15,68.19a8.13,8.13,0,0,0,.33,1.94,9.86,9.86,0,0,0,3.06,4.66A28.7,28.7,0,0,1,53,70.25c-.29-.67-.57-1.35-.81-2.06M24.68,65.05c-.16,1-.35,1.86-.49,2.68a9.14,9.14,0,0,0,.49-2.68"/><path class="c" d="M44.47,76.69a17.13,17.13,0,0,0,3.9,2.44s.26.05.7.1l-.27-.11a21.87,21.87,0,0,1-4.33-2.43"/><path class="c" d="M63,77.63l-1,.13.63.28.33-.41"/><path class="c" d="M61.41,77.87l-.83.17.19.15a3.82,3.82,0,0,0,.64-.32"/><path class="c" d="M69.07,87.17v.06h0v0h0"/><path class="c" d="M69.06,87.23c0,.15,0,.28-.08.42l.08-.42h0"/><polyline class="c" points="68.98 87.68 68.97 87.69 68.97 87.7 68.98 87.68"/><path class="c" d="M68.71,89.18c0,.08,0,.16,0,.24v0l0-.17,0-.11"/><path class="c" d="M68.3,93.05v.17a1.55,1.55,0,0,0,0,.22v.06c0-.13,0-.27,0-.45"/><polyline class="c" points="68.33 93.62 68.33 93.62 68.33 93.63 68.33 93.62"/><path class="c" d="M68.34,93.64h0a3.13,3.13,0,0,0,.07.44h0a.58.58,0,0,1,0,.1c0-.09,0-.22-.08-.4a.78.78,0,0,1,0-.16"/><path class="c" d="M67.67,93.77l.07,0,.09,0,0,0,0,0h0l0,0"/><path class="c" d="M68,94l0,0h0l0,0"/><path class="c" d="M68.07,94l.07,0h0l0,0h0l0,0"/><path class="c" d="M68.31,94.18l.07.06h0l0,0,0,0"/><path class="c" d="M68.5,94.36v0h0"/><polyline class="c" points="68.51 94.38 68.51 94.38 68.52 94.39 68.52 94.39 68.51 94.38"/><path class="c" d="M68.51,94.39h0"/><polyline class="c" points="68.52 94.39 68.52 94.39 68.52 94.4 68.52 94.39"/><path class="c" d="M67.56,81.72a.11.11,0,0,0,0,.08l.12.43,0,0v.13l0,0h0l0,.13c-.06-.27-.13-.56-.2-.86"/><path class="c" d="M67.53,81.8a.81.81,0,0,0,0,.31A3.93,3.93,0,0,0,68,83.54c-.06-.3-.12-.62-.19-1l0-.13h0l0,0v-.13l0,0-.12-.43"/><path class="c" d="M68.2,84.84c-.21.84-1,1.66-1,2.48a.25.25,0,0,0,0,.08h0v0a4.77,4.77,0,0,0,1,2.21,3.62,3.62,0,0,1,.33.65v-.17l0-.29.06-.4,0-.16,0-.11,0-.29,0-.15v-.07l.08-.45c0-.16.06-.32.09-.5l.09-.46a2.43,2.43,0,0,1-.14-.2h0l0,0a.22.22,0,0,1,0-.08l0,0a4.12,4.12,0,0,1-.68-1.8h0a.69.69,0,0,0,.07-.19v0"/><path class="c" d="M68.21,84.88a.69.69,0,0,1-.07.19h0a4.12,4.12,0,0,0,.68,1.8l0,0a.22.22,0,0,0,0,.08l0,0h0a2.43,2.43,0,0,0,.14.2v-.06l0,0a6.3,6.3,0,0,1-.74-1.87c0-.12-.06-.25-.08-.37"/><path class="c" d="M68.85,88.39l-.06.32,0,.26c0-.18.06-.37.1-.58"/><path class="c" d="M68.47,90.82l0,.14,0-.14"/><path class="c" d="M58.36,91.1h0l.42.1-.42-.1"/><path class="c" d="M59.14,91.28l.83.19-.18,0-.65-.15"/><path class="c" d="M68.39,91.47l-.12.11.11-.07v0"/><path class="c" d="M68.35,91.84a10.36,10.36,0,0,0,0,1c0,.19,0,.36,0,.51a2.18,2.18,0,0,0,0-.25v-.23h0c0-.25,0-.53,0-.87,0-.07,0-.13,0-.2"/><path class="c" d="M62.27,92l.95.24L62.36,92l-.09,0"/><path class="c" d="M64,92.46h0l.37.11.36.1-.09,0L64,92.47H64"/><path class="c" d="M65.07,92.77h0l.06,0,0,0-.14,0"/><path class="c" d="M65.79,93l.22.07h0l.35.12h0l.2.07L65.79,93"/><path class="c" d="M67.33,93.6l.19.09,0,0-.23-.11"/><path class="c" d="M68.33,93.62a.91.91,0,0,1-.18.29c0,.07-.12,0-.12.06s0,0,0,0l.11.08.2.16h0a.72.72,0,0,1,.13.14s0-.06,0-.12a1,1,0,0,1,0-.16,3.13,3.13,0,0,1-.07-.44h0"/><path class="c" d="M67.57,93.71l.05,0,0,0-.09-.05"/><path class="c" d="M67.79,93.83l.26.16h0l-.26-.16"/><path class="c" d="M68.11,94h0l0,0,0,0,0,0,0,0"/><path class="c" d="M68.2,94.1l.06,0h0l0,0-.12-.09"/><polyline class="c" points="68.25 94.14 68.26 94.14 68.26 94.14 68.25 94.14"/><path class="c" d="M68.35,94.22h0"/><path class="c" d="M68.42,94.28h0l0,0h0l0-.06"/><path class="c" d="M68.47,94.29l0,.08v0h0l0,0,0-.06"/><path class="c" d="M68.47,94.34h0v0h0l0,0"/><polyline class="c" points="68.5 94.36 68.5 94.37 68.5 94.37 68.5 94.36"/><polyline class="c" points="68.5 94.37 68.51 94.38 68.51 94.38 68.51 94.37 68.5 94.37"/><polyline class="c" points="68.51 94.38 68.51 94.38 68.52 94.39 68.51 94.38"/><path class="e" d="M64.46,62.26a4.07,4.07,0,0,1-1.79.45,4.24,4.24,0,0,0-3,1.57A4.54,4.54,0,0,0,58.92,67,7,7,0,0,0,59,68a24,24,0,0,0,.55,3.66,8.09,8.09,0,0,0,1.85,3.69c1.22.91.6,1.57,1.7,2.25h0c-1-.65-.43-1.3-1.62-2.19a8,8,0,0,1-1.86-3.67A25.82,25.82,0,0,1,59,68.05,7.21,7.21,0,0,1,59,67h0a4.54,4.54,0,0,1,.77-2.66,4.19,4.19,0,0,1,3-1.58,3.94,3.94,0,0,0,1.79-.44l.75.27a14.21,14.21,0,0,1,2.7,1.23h0l0-.08a14.2,14.2,0,0,0-2.67-1.22l-.85-.31"/><path class="f" d="M77.15,55,77,55.1v0l.16-.09m-.31-.86a1.6,1.6,0,0,0,0,.23c0,.23.07.47.11.7l.17-.07.74-.37-1-.49"/><path class="f" d="M62.42,57.18a14.43,14.43,0,0,0-2.85.9,13.43,13.43,0,0,0-5.52,4.11,9.16,9.16,0,0,0-1.91,5.55c0,.15,0,.3,0,.45.24.71.52,1.39.81,2.06a28.7,28.7,0,0,0,2.58,4.54,13.37,13.37,0,0,0,4.06,2.39l.93.82,0,0,.83-.17a3.27,3.27,0,0,0,.36-.25l.31.14,1-.13.05,0c-1.1-.68-.48-1.34-1.7-2.25a8.09,8.09,0,0,1-1.85-3.69A24,24,0,0,1,59,68a7,7,0,0,1-.07-1h0a4.54,4.54,0,0,1,.79-2.71,4.24,4.24,0,0,1,3-1.57,4.07,4.07,0,0,0,1.79-.45l.85.31A14.2,14.2,0,0,1,68,63.79l0,0a18.13,18.13,0,0,1,1.24-1.55l.22-.33.19-.27-1-.69-2.53-1.74L65,58.33a2.79,2.79,0,0,1-.66-.58.37.37,0,0,1-.05-.23l-.07-.13a1.11,1.11,0,0,0-.59-.11h-.51a1.27,1.27,0,0,1-.65-.11"/><path class="f" d="M69.66,61.59l-.19.27-.22.33.33-.36a1.43,1.43,0,0,0,.14-.2l-.06,0"/><path class="g" d="M64.32,42.62H63.8a13.81,13.81,0,0,0-3.43.55,14.22,14.22,0,0,0-2.61,1,15.39,15.39,0,0,0-1.59.95,7.77,7.77,0,0,0-.74.59c-.35.31-.71.65-1.08,1l-.22.29c-1,1.36-2.49,3.26-4,5.38s-3,4.5-4.29,6.46-2.21,3.29-3.34,3.44a5.78,5.78,0,0,0-1.1,1.21,6.93,6.93,0,0,0-.43.69c-.26,1-.53,2.14-.74,3.1-.1.49-.19.93-.26,1.3A10,10,0,0,0,41.34,73a13.8,13.8,0,0,0,3.13,3.69,21.87,21.87,0,0,0,4.33,2.43l.27.11c.28,0,.62.07,1,.1.62,0,1.37.08,2.2.08.56,0,1.17,0,1.78,0a31.44,31.44,0,0,0,4.46-.54,12.56,12.56,0,0,0,2.24-.63L60.58,78l0,0-.93-.82a13.37,13.37,0,0,1-4.06-2.39,9.86,9.86,0,0,1-3.06-4.66,8.13,8.13,0,0,1-.33-1.94c0-.15,0-.3,0-.45h0a9.16,9.16,0,0,1,1.91-5.55,13.43,13.43,0,0,1,5.52-4.11,14.43,14.43,0,0,1,2.85-.9,1.27,1.27,0,0,0,.65.11h.51a1.11,1.11,0,0,1,.59.11l.07.13a.37.37,0,0,0,.05.23,2.79,2.79,0,0,0,.66.58l1.19.83,2.53,1.74,1,.69a23.24,23.24,0,0,1,2.92-3.29h0a24.13,24.13,0,0,1,2.75-2.24c.75-.53,1.22-.79,1.22-.79l.24-.1L77,55.1c0-.23-.08-.47-.11-.7a1.6,1.6,0,0,1,0-.23,18.33,18.33,0,0,1-.13-2.25h0c0-.4,0-.65,0-.65-.25-1.28-1.63-2.9-3-4.15A26.38,26.38,0,0,0,71,45a1.35,1.35,0,0,0-.7-1,7.21,7.21,0,0,0-1.73-.71,14.68,14.68,0,0,0-4.23-.61"/><path class="g" d="M77,55.1l-.19.07-.24.1s-.47.26-1.22.79a24.13,24.13,0,0,0-2.75,2.24h0a23.24,23.24,0,0,0-2.92,3.29l.06,0a22,22,0,0,1,5.51-5.44c.59-.39,1.17-.75,1.76-1.07v0"/><path class="h" d="M76.79,55.17l-.24.1s-.47.26-1.22.79h0a23.46,23.46,0,0,0-2.66,2.16l-.09.08h0a24.13,24.13,0,0,1,2.75-2.24c.75-.53,1.22-.79,1.22-.79l.24-.1"/><polyline class="i" points="56.06 44.63 56.06 44.63 56.06 44.63 56.06 44.63"/><path class="i" d="M56.06,44.63a4.55,4.55,0,0,0-.72.78l-.18.24a1.09,1.09,0,0,0,.26-.22,8.28,8.28,0,0,0,.64-.8"/><path class="i" d="M51.26,45.64c-1,1.36-4,2.17-7,3.36-1.49.57-3,1.21-4,1.74-.55.26-1,.49-1.32.66l-.49.25c-2.9.4-5,3.34-5.89,5.88a14.37,14.37,0,0,0-.76,3.32c0,.56-.07,1-.07,1.21a1.23,1.23,0,0,0,0,.18,19.78,19.78,0,0,1,1.5,3.89,4.14,4.14,0,0,1,.1.84h0a1.39,1.39,0,0,1,0,.27,11.64,11.64,0,0,0-.18,2.07,17.79,17.79,0,0,0,2.2,8.11A20.53,20.53,0,0,0,43,85.54a15.27,15.27,0,0,0,4.45,1.74,12.89,12.89,0,0,0,2.7.29c.35,0,.69,0,1,0a13.81,13.81,0,0,0,2.39-.44c.56-.17.85-.29.85-.29a8.17,8.17,0,0,0,3-2.59c.46-.54.9-1.07,1.38-1.57a11.74,11.74,0,0,1,1.49-1.3,7.47,7.47,0,0,1,.67-.43A14.89,14.89,0,0,1,62.71,78l-.63-.28-.31-.14a3.27,3.27,0,0,1-.36.25,3.82,3.82,0,0,1-.64.32,12.56,12.56,0,0,1-2.24.63,31.44,31.44,0,0,1-4.46.54c-.61,0-1.22,0-1.78,0-.83,0-1.58,0-2.2-.08-.4,0-.74-.06-1-.1-.44,0-.7-.1-.7-.1a17.13,17.13,0,0,1-3.9-2.44A13.8,13.8,0,0,1,41.34,73,10,10,0,0,1,40,68.61c0-.16,0-.31,0-.46h0a8.51,8.51,0,0,1,0-.88,8,8,0,0,1,1-3.06,6.93,6.93,0,0,1,.43-.69,5.78,5.78,0,0,1,1.1-1.21c1.13-.15,2.12-1.5,3.34-3.44s2.76-4.35,4.29-6.46,3-4,4-5.38l.22-.29.81-1.09a1.77,1.77,0,0,1-.31.15,3.5,3.5,0,0,1-1.19.18h-.31a11.1,11.1,0,0,1-2.09-.33"/><path class="j" d="M60.82,81.19l-.66.62A8.68,8.68,0,0,0,59.05,83a4.63,4.63,0,0,0-.65,1.13v0c0,.06.08.09.2.09h.13a3.87,3.87,0,0,0,.89-.24c.21-.08.45-.18.7-.3a.93.93,0,0,1-.13-.44h0a.76.76,0,0,1,0-.15,11.06,11.06,0,0,1,.62-1.87"/><polyline class="j" points="69.07 87.18 69.06 87.23 69.06 87.23 69.07 87.18 69.07 87.18"/><path class="j" d="M69.06,87.23l-.08.42v.11l.1-.52h0"/><path class="j" d="M68.73,89.08v.1l0,.11,0-.21"/><polyline class="j" points="68.69 89.3 68.67 89.46 68.64 89.61 68.69 89.3"/><path class="j" d="M68.59,90l0,.14v.12l0-.26"/><path class="j" d="M68.54,90.28c-.06.39-.09.7-.13,1l0,.17a.91.91,0,0,0,.26-.64,1.53,1.53,0,0,0-.11-.54"/><path class="j" d="M68.5,91.48a.23.23,0,0,0-.11,0l0,.32c0,.46,0,.82,0,1.11v.12c0,.18,0,.32,0,.45h0v-.06c0,.06,0,.13,0,.18h0a.78.78,0,0,0,0,.16.9.9,0,0,1,0-.18h0l.09-.22A5.23,5.23,0,0,0,68.71,92c0-.29-.06-.47-.21-.47"/><path class="j" d="M60.3,91.55l1.06.25.76.18L62,92l-1.5-.36-.2,0"/><path class="j" d="M63.63,92.37l.33.09-.19-.06-.14,0"/><path class="j" d="M66.67,93.32l.53.22-.51-.22h0"/><path class="j" d="M67.55,93.71l.19.1-.07,0-.12-.06"/><path class="j" d="M67.72,93.79h0l0,0h0l-.06,0"/><path class="j" d="M68.36,93.8c0,.18.06.31.08.4l0,0a2.63,2.63,0,0,1-.1-.45"/><path class="j" d="M67.74,93.81l.32.19.19.13-.1-.07h0l-.07,0h0l0,0-.06,0h0l0,0-.15-.1h0l-.09,0"/><path class="j" d="M68.29,94.17l.09.07-.07-.06h0"/><path class="j" d="M68.38,94.24l0,0h0"/><path class="j" d="M68.44,94.3l.07.09h0v0h0a.17.17,0,0,1-.06-.06"/><path class="j" d="M68.5,94.37h0m0,0,0,0,0,0"/><path class="j" d="M68.52,94.39h0"/><path class="j" d="M68.52,94.4h0M66.06,79.26v0a2.5,2.5,0,0,0,.89.83,5.13,5.13,0,0,1-.88-.86"/><path class="j" d="M68.39,91.47h0v0l-.11.07h0l.12-.11h0m.08-.65h0l0,.14h0l0-.14h0M66.05,79.29a13.45,13.45,0,0,0-1.24,5.36c0,.15,0,.3,0,.44a1.16,1.16,0,0,1,.73,1h0c0,.57-.43,1.17-.49,1.65-.07.25-.41.46-.63.73a1.46,1.46,0,0,0-.06.46c0,.13,0,.26,0,.38h0a.84.84,0,0,1-.73.93c-1.24.26-2.39.5-3.49.64l-1.57.17-.18,0h0l.42.1.19,0,.17,0,.65.15.18,0,.22,0,.31.07.08,0L62,92h0l.13,0,.14,0,.09,0,.86.22.25.06.3.08.09,0,.12,0H64l.63.18.09,0,.32.09.14,0,.58.18.79.28c.25.1.51.2.75.32l.23.11h0l0,0,.1,0-.05,0h0l.09.05.12.07h0l.26.16s0,0,0,0h0s.08,0,.12-.06a.91.91,0,0,0,.18-.29s0-.09,0-.14v-.09c0-.15,0-.32,0-.51h0a10.36,10.36,0,0,1,0-1h0c0,.07,0,.13,0,.2,0-.21,0-.43.06-.68v-.2l.11-.83v0a3.62,3.62,0,0,0-.33-.65,4.77,4.77,0,0,1-1-2.21h0v0a.25.25,0,0,1,0-.08h0c0-.82.81-1.64,1-2.48-.09-.41-.16-.84-.25-1.3a3.93,3.93,0,0,1-.47-1.43h0a.81.81,0,0,1,0-.31c-.23-.78-.43-1.44-.47-1.59l-.12-.09a2.5,2.5,0,0,1-.89-.83"/><path class="j" d="M67.06,80.21c0,.15.24.81.47,1.59a.11.11,0,0,1,0-.08c-.12-.45-.25-.94-.42-1.46l-.08-.05"/><path class="j" d="M68.88,88.19l-.08.45v.07l.06-.32,0-.2"/><path class="j" d="M68.79,88.71l0,.15,0,.29v0l0-.15,0-.26"/><path class="j" d="M68.33,93.63h0m.28-3.81,0,.29v0c0-.09,0-.19,0-.29"/><path class="j" d="M68.05,94h0l.06,0,0,0L68.05,94"/><path class="j" d="M68.2,94.1h0m0,0h0m0,0,.11.08h0l-.06,0,0,0"/><path class="j" d="M68.16,94.07l0,0,.12.09h0v0h0l-.2-.16"/><polyline class="j" points="68.26 94.14 68.26 94.14 68.27 94.15 68.26 94.14 68.26 94.14"/><path class="j" d="M68.5,94.37h0m0,0h0m-.13-.14,0,0,0,.06,0,0h0a.72.72,0,0,0-.13-.14"/><path class="j" d="M68.46,94.25c0,.06,0,.1,0,.12h0l0-.08v0"/><path class="j" d="M68.47,94.34h0m0,0h0m0,0h0"/><path class="j" d="M68.49,94.35h0v0"/><path class="j" d="M68.51,94.37h0v0"/><path class="j" d="M68.52,94.4h0m0,0h0m0,0h0m0,0h0"/><path class="k" d="M58.94,30.39l-.55.16c-.34.1-.89.27-1.5.49a25.87,25.87,0,0,0-4.32,2,18.49,18.49,0,0,0-3.11,2.21,3.73,3.73,0,0,0-.29.3h0a3.73,3.73,0,0,1,.29-.3h0A18.49,18.49,0,0,1,52.57,33a25.87,25.87,0,0,1,4.32-2l0,0c.6-.21,1.12-.37,1.45-.47h0l.55-.16"/><path class="l" d="M58.39,30.55c-.33.1-.85.26-1.45.47.6-.21,1.12-.37,1.45-.47"/><path class="l" d="M49.46,35.24a3.73,3.73,0,0,0-.29.3,3.73,3.73,0,0,1,.29-.3"/><path class="l" d="M49.17,35.54l-.24.27.24-.27"/><path class="a" d="M28.91,48l-.09.07s-.53.72-1.23,1.85a28.27,28.27,0,0,0-2.17,4.31l-.15.39h0l.15-.39a28.27,28.27,0,0,1,2.17-4.31c.7-1.13,1.23-1.85,1.23-1.85l.09-.07h0m11-7.72-.54.11a27.44,27.44,0,0,0-3.64,1.91A22.5,22.5,0,0,0,32.26,45h0a22.5,22.5,0,0,1,3.49-2.66h0a28.28,28.28,0,0,1,3.64-1.91h0l.54-.11h0m6.8-2.63A17,17,0,0,1,44.16,39h0a17,17,0,0,0,2.57-1.32h0"/><path class="k" d="M48.93,35.81h0l-.55.55a11.68,11.68,0,0,1-1.65,1.28h0a11.68,11.68,0,0,0,1.65-1.28h0c.2-.18.37-.36.53-.53l0,0h0"/><path class="k" d="M32.26,45h0a5.67,5.67,0,0,0-1,1.21c-.79.58-1.59,1.2-2.34,1.83h0c.75-.63,1.55-1.25,2.34-1.83l.06-.11a6.27,6.27,0,0,1,.95-1.1"/><path class="l" d="M48.91,35.83c-.16.17-.33.35-.53.53.2-.18.37-.36.53-.53"/><path class="l" d="M39.39,40.38a28.28,28.28,0,0,0-3.64,1.91,28.28,28.28,0,0,1,3.64-1.91"/><path class="l" d="M35.75,42.29A22.5,22.5,0,0,0,32.26,45a6.27,6.27,0,0,0-.95,1.1,6.27,6.27,0,0,1,.95-1.1,22.5,22.5,0,0,1,3.49-2.66"/><path class="l" d="M24.21,59c0,.24,0,.48,0,.71h0c0-.23,0-.47,0-.71"/><path class="a" d="M24.19,67.73a.49.49,0,0,1-.14.17,4.17,4.17,0,0,0-.12.68,6.37,6.37,0,0,0-.05.83h0v0a6,6,0,0,1,.05-.8h0a4.17,4.17,0,0,1,.12-.68.49.49,0,0,0,.14-.17h0m.73-5.41c0,.22-.12,1.38-.23,2.62v.11h0v-.11h0c.11-1.24.21-2.4.23-2.62h0"/><path class="k" d="M24.92,62.28v0h0v0h0"/><path class="l" d="M24.92,62.29c0,.1-.11,1.34-.23,2.65.12-1.31.23-2.55.23-2.65"/><path class="l" d="M23.93,68.58a6,6,0,0,0-.05.8,6,6,0,0,1,.05-.8"/><path class="l" d="M23.88,69.41A7.84,7.84,0,0,0,24,70.53a7.84,7.84,0,0,1-.08-1.12"/><path class="m" d="M64.85,75.77a17.54,17.54,0,0,0-1.76,1.8h0l-.05,0-.33.41A14.89,14.89,0,0,0,61,80.91l-.13.28a11.06,11.06,0,0,0-.62,1.87.76.76,0,0,0,0,.15c0,.51.6,1,.86,1.4a2.13,2.13,0,0,1,.32,1.28h0v.43a1.88,1.88,0,0,0,.88,1.77.24.24,0,0,1,.14.21h0a.41.41,0,0,1-.17.29,21.18,21.18,0,0,1-2.15.88,13.78,13.78,0,0,1-2.07.6,11,11,0,0,1-2,.3l-.5,0h-.22l3.26.73.23,0,1.54.36.2,0-.31-.07-.22,0-.83-.19-.17,0-.19,0-.42-.1h0l.18,0,1.57-.17c1.1-.14,2.25-.38,3.49-.64a.84.84,0,0,0,.73-.93c0-.12,0-.25,0-.38h0a1.46,1.46,0,0,1,.06-.46c.22-.27.56-.48.63-.73.06-.48.49-1.08.49-1.65a1.16,1.16,0,0,0-.73-1c0-.14,0-.29,0-.44h0a13.45,13.45,0,0,1,1.24-5.36c-.08-.12-.16-.24-.24-.38a6.56,6.56,0,0,1-1-3.14"/><path class="m" d="M65.81,78.91c.08.14.16.26.24.38v0c-.09-.11-.17-.23-.25-.35"/><path class="m" d="M69.07,87.17v.06h0v-.06h0"/><path class="m" d="M69.06,87.23l-.09.46h0v0c0-.14,0-.27.08-.42h0"/><path class="m" d="M69,87.69c0,.18-.06.34-.09.5l0,.2c0,.21-.07.4-.1.58l0,.15v0L69,87.8v-.1h0"/><path class="m" d="M68.72,89.12l0,.14,0,.16c0-.08,0-.16,0-.24v-.06"/><path class="m" d="M68.67,89.42l-.06.4c0,.1,0,.2,0,.29l0-.14,0-.36,0-.15v0"/><path class="m" d="M68.56,90.11l0,.17v0l-.11.83v.13c0-.35.09-.71.15-1.18"/><path class="m" d="M68.41,91.29v.07a15.23,15.23,0,0,0-.1,1.55v0h0c0-.29,0-.65,0-1.11l0-.32,0-.21"/><polyline class="m" points="60.5 91.59 62 91.95 61.98 91.95 60.58 91.61 60.5 91.59"/><path class="m" d="M62,92l.12,0,1.51.39.14,0-.3-.08-.25-.06L62.27,92l-.14,0L62,92"/><path class="m" d="M63.77,92.4l.25.07h0l-.12,0-.09,0"/><path class="m" d="M64,92.47l.37.11L64,92.47"/><path class="m" d="M64.39,92.58l.71.2h0l-.32-.09-.36-.1"/><path class="m" d="M65.1,92.78h.06l-.06,0"/><path class="m" d="M65.16,92.8l.85.27L65.79,93l-.58-.18,0,0"/><polyline class="m" points="66.01 93.07 66.02 93.08 66.02 93.08 66.01 93.07"/><path class="m" d="M66,93.08l.35.12L66,93.08"/><path class="m" d="M68.3,93.14a2.18,2.18,0,0,1,0,.25v.09s0,.1,0,.14h0v0h0c0-.06,0-.13,0-.19a1.55,1.55,0,0,1,0-.22v-.08"/><path class="m" d="M66.37,93.2l.3.12h0l.51.22.35.17.12.06,0,0,.06,0-.12-.07-.14-.07-.19-.09c-.24-.12-.5-.22-.75-.32l-.2-.07h0"/><path class="m" d="M68.34,93.65a3.13,3.13,0,0,0,.07.44,3.13,3.13,0,0,1-.07-.44"/><path class="m" d="M67.78,93.83l0,0h0L68,94l0,0,.08.05h0l-.06,0h0l-.26-.16h0"/><path class="m" d="M68.13,94l0,0,.1.07,0,0h0l0,0h0v0h0l0,0h0l-.11-.08,0,0"/><path class="m" d="M68.41,94.09a1,1,0,0,0,0,.16v0l0,.06,0-.1,0,0a.58.58,0,0,0,0-.1h0"/><path class="m" d="M68.36,94.22l0,0h0l0,0a.17.17,0,0,0,.06.06h0l0,0h0l0,0h0"/><path class="m" d="M68.5,94.35l0,0h0l0,0h0"/><path class="m" d="M68.52,94.4h0m0,0h0m0,0h0"/><path class="n" d="M88.65,46.94a.92.92,0,0,0-.55.17c-.91.78-1,1.85-2,3.07a7.76,7.76,0,0,1-1.84,1.75,8.89,8.89,0,0,0,1.48-1.08,4.57,4.57,0,0,0,1.19-1.6,3.26,3.26,0,0,0,.18-.52c0-.12,0-.19,0-.19h0s0,.07,0,.19a3.26,3.26,0,0,1-.18.52,4.57,4.57,0,0,1-1.19,1.6,8.61,8.61,0,0,1-1.49,1.08,11.45,11.45,0,0,1-2.58,1.29c-1,.42-2.11.87-3.46,1.4l.19.18c1.7,1.61,3.6,2.73,3.73,5.77,0,.28,0,.56,0,.85h0c0,.71,0,1.43-.1,2.16h0a41,41,0,0,1,4.17-2A6.08,6.08,0,0,0,88.71,60a15.37,15.37,0,0,0,1.8.56,4.17,4.17,0,0,0,.87.13,1.17,1.17,0,0,0,.52-.11c.24-.42.35-.65.35-.65h0a.74.74,0,0,1-.35.65c-.13.22-.3.51-.52.85a13.33,13.33,0,0,1,1.93-1.71,2.16,2.16,0,0,1,1.1-.39.94.94,0,0,1,.78.38s.24,0,.65,0h.41c.34,0,.76,0,1.21,0a6,6,0,0,1,3.21,1C99.1,59,97.3,56.57,95.4,54.21c-2-2.88-5-7.27-6.75-7.27"/><path class="o" d="M81.67,53.22h0c-1,.42-2.11.87-3.46,1.4h0c1.35-.53,2.5-1,3.46-1.4h0m5.48-4.68h0s0,.07,0,.19h0a3.26,3.26,0,0,1-.18.52h0a4.57,4.57,0,0,1-1.19,1.6h0a8.61,8.61,0,0,1-1.49,1.08h0a8.61,8.61,0,0,0,1.49-1.08,4.57,4.57,0,0,0,1.19-1.6,3.26,3.26,0,0,0,.18-.52c0-.12,0-.19,0-.19"/><path class="n" d="M68.14,64.09q-.4.5-.78,1c-.26.33-.5.66-.75,1a47.75,47.75,0,0,0-1.69,7.33c0,.31,0,.61,0,.91,0,.46,0,.92.06,1.35q.27-.24.54-.45L65.6,75l.33-.57c.14-.26.28-.51.4-.77a3.34,3.34,0,0,1,.17-.33h0c0,.11-.11.22-.17.33-.12.28-.23.62-.36,1,0,.09-.06.18-.09.26.3-.23.61-.44.93-.65a2.63,2.63,0,0,1,.33-.2l.08-.09a1.66,1.66,0,0,1,1-.62h.15a1.15,1.15,0,0,1,.31,0l.75-.26c.91-.29,1.89-.51,2.8-.71l.7,0a8.64,8.64,0,0,1,.78-2.18,6.28,6.28,0,0,1,1.69-2,4.88,4.88,0,0,0-.38-.49c-.25,0-.57-.26-.87-.26a.38.38,0,0,0-.23.06,1.3,1.3,0,0,1-.71.18h-.28a15.45,15.45,0,0,1-4.75-3.54"/><path class="n" d="M111.75,77.36h0l-.14.09-.06,0-.07,0-.17.08,0,0,0,0c-.17.08-.77.38-2,1.06,0,0-.41.25-1,.71a27.84,27.84,0,0,0-2.44,2c-1,.84-1.94,1.83-3,2.79a13,13,0,0,1-3.21,2.38,26.1,26.1,0,0,1-2.88,1.15,24.83,24.83,0,0,1-7,1.28H89a17,17,0,0,1-7.5-1.62,10.87,10.87,0,0,1-1.72-1,7,7,0,0,1-1-.78c-.66.33-1.36.61-1.36,1.05h0s0,0,0,0a2.5,2.5,0,0,1,.93.7,6.74,6.74,0,0,1,1.09,2.12c.1.28.2.59.29.93s.17.74.25,1.16a12.64,12.64,0,0,1,.2,1.43v0A7.79,7.79,0,0,1,81.7,94.2a8.61,8.61,0,0,1,2.77,4.08.44.44,0,0,1,0,.18h0a12.62,12.62,0,0,1-.54,2.36c-.32,1.22-.68,2.55-.86,3.19a2.82,2.82,0,0,0-.09.67,1.76,1.76,0,0,0,1.09,1.65,4.33,4.33,0,0,0,1.79.34,7.44,7.44,0,0,0,1.15-.1,47.22,47.22,0,0,1,8.75-1.69c.75.19.92,1.36,1.71,1.75a3.18,3.18,0,0,0,.62.06c1.9,0,3.83-1.56,5.42-2.2a9.6,9.6,0,0,0,3.32-.73,4.37,4.37,0,0,0,1.5-1,2.87,2.87,0,0,0,.54-.89l0,0c.49,0,.53,2.07,1.21,2.52a1.06,1.06,0,0,0,.31,0c.81,0,1.6-1,2-2.14.76-1.68,1.42-3.42,2.05-4.54a2.58,2.58,0,0,1,1.11-1.22c-.38-.54-.8-1.51-1.11-2a1,1,0,0,0-.84-.53,2.85,2.85,0,0,0-.29,0l-.28,0a.8.8,0,0,1-.33-.06,4.34,4.34,0,0,1-.69-1.45c-.12-.44-.25-.59-.38-.59s-.46.4-.72.63a.35.35,0,0,1-.28.18c-.17,0-.33-.18-.48-.39s-.43-.71-.67-.71h0c-.33,0-.72.54-1.13,1-.23.24-.47.44-.66.44s-.24-.11-.31-.36a.78.78,0,0,1,0,.14h0c0,.21-.13.29-.31.29a1.45,1.45,0,0,1-.68-.22c-.38-.21-.69-.54-.69-.76h0a.2.2,0,0,1,.11-.17.2.2,0,0,1,0,0h0a6,6,0,0,1,.3-1.28c.16-.36.36-.94.46-1.09a33.59,33.59,0,0,0,2.32-5.27v0a4.15,4.15,0,0,1-.15-.87h0a3.83,3.83,0,0,1,.34-1.42c.53-1.31,1.3-2.71,1.42-2.94-.08.1-.61.91-.7,1s-.09.1-.24.27-.34.38-.6.65a14.45,14.45,0,0,1-2,1.7,8.46,8.46,0,0,1-3.2,1.47c-.07,0-.11,0-.11,0h0a0,0,0,0,1,0,0,9.26,9.26,0,0,1,2-2c2.2-1.68,3.1-2.56,5-3.89l1.11-.79"/><path class="p" d="M72.76,75.69c-.48.15-1,.28-1.48.46l0,.07v.07L71,77.84c-.1.48-.21,1-.31,1.44l-1,5-.24,1.17,0,.23c0,.07,0,.14,0,.21l-.11.53-.14.74a4.64,4.64,0,0,0,1.65,1.53c.8.44,1.62.83,2.43,1.2.22.08.46.14.7.21-.24-.07-.48-.13-.7-.21h0c.22.08.46.14.7.21-.24-.07-.48-.13-.7-.21h0c.22.08.46.14.7.21-.24-.07-.48-.13-.7-.21,1.31.6,2.6,1.12,3.8,1.62a25.88,25.88,0,0,1,3.24,1.55v0a12.64,12.64,0,0,0-.2-1.43c-.08-.42-.16-.81-.25-1.16s-.19-.65-.29-.93a6.74,6.74,0,0,0-1.09-2.12,2.5,2.5,0,0,0-.93-.7h0s0,0,0,0h0c0-.44.7-.72,1.36-1.05a6.64,6.64,0,0,1-.51-.55,7.56,7.56,0,0,1-1.75-3.45,1.92,1.92,0,0,0-.44-.8,10.7,10.7,0,0,0-1-1c-.44-.42-1-.93-1.75-1.58,0,0,0-.11-.12-.3A7.61,7.61,0,0,1,73,77a8.77,8.77,0,0,1-.26-1.35"/><path class="p" d="M78.21,54.62,78,54.7l.31.15C80,56.46,81.9,57.57,82,60.62c0,.28,0,.56,0,.84h0c0,.72,0,1.44-.09,2.17l.09-.05c.07-.73.09-1.45.1-2.16,0-.29,0-.57,0-.85-.13-3-2-4.16-3.73-5.77l-.19-.18"/><path class="p" d="M69.21,86.46l0,.16c0,.19-.07.38-.1.55h0l.14-.72"/><path class="p" d="M68.35,81l-.25.16a1.17,1.17,0,0,0-.54.54c.07.3.14.59.2.86.13.46.27.92.35,1.32a1.19,1.19,0,0,1,.14.56h0a1.43,1.43,0,0,1,0,.29s0,.09,0,.13.05.25.08.37A6.3,6.3,0,0,0,69,87.12l0,0c.05-.27.1-.55.16-.82h0l0-.1.34-1.7v0c0-.11,0-.23.07-.35l0-.18,0-.06a4.07,4.07,0,0,1-.84-1.23c-.18-.57-.33-1.15-.49-1.68"/><path class="p" d="M69.48,85.11c-.08.37-.15.75-.23,1.13l0,.09.09-.42.08-.44c0-.12,0-.24.08-.36"/><path class="q" d="M68.2,64l-.06.08a15.45,15.45,0,0,0,4.75,3.54h.28a1.3,1.3,0,0,0,.71-.18.38.38,0,0,1,.23-.06c.3,0,.62.24.87.26a4.88,4.88,0,0,1,.38.49.27.27,0,0,1,.08-.07c-.12-.16-.24-.32-.37-.47s-.58-.27-.88-.27a.43.43,0,0,0-.23.07,1.23,1.23,0,0,1-.69.18H73A15.67,15.67,0,0,1,68.2,64"/><path class="r" d="M78,54.7l-.85.33-.16.09c.27,1.35.79,2.58,1.89,2.86a22.75,22.75,0,0,1,1.47,4.31,9.29,9.29,0,0,1,.2,1.73h0c0,.18,0,.35,0,.51.45-.31.93-.61,1.43-.9.06-.73.09-1.45.09-2.17,0-.28,0-.56,0-.84-.14-3-2-4.16-3.73-5.77L78,54.7"/><path class="r" d="M69.72,61.63a1.43,1.43,0,0,1-.14.2l-.33.36a5.56,5.56,0,0,0-.77,1.49h0L68.2,64A15.67,15.67,0,0,0,73,67.58h.29a1.23,1.23,0,0,0,.69-.18.43.43,0,0,1,.23-.07c.3,0,.62.25.88.27s.25.31.37.47a5,5,0,0,1,1.23-.66s.6-.51,1.56-1.25c.17-.14.36-.28.55-.42H77.4a14.77,14.77,0,0,1-2.23-.14s-2.49-1.9-5.45-4"/><path class="s" d="M77,55.12c-.59.32-1.17.68-1.76,1.07a22,22,0,0,0-5.51,5.44c3,2.08,5.45,4,5.45,4a14.77,14.77,0,0,0,2.23.14h1.38c.52-.38,1.11-.8,1.75-1.22,0-.16,0-.33,0-.51a9.29,9.29,0,0,0-.2-1.73A22.75,22.75,0,0,0,78.88,58c-1.1-.28-1.62-1.51-1.89-2.86"/><path class="t" d="M72.72,73.51a1.73,1.73,0,0,0-.39.18,3.85,3.85,0,0,0-1.16.89,5.43,5.43,0,0,1-.65.61c.11.15.24.31.38.47l.34.44,0,.05c.45-.18,1-.31,1.48-.46a10.55,10.55,0,0,1-.08-1.3h0c0-.12,0-.23,0-.34a5,5,0,0,1,0-.54"/><path class="t" d="M66.5,73.37a3.34,3.34,0,0,0-.17.33c.06-.11.12-.22.17-.33"/><path class="t" d="M70.69,79.28c-.31,1.46-.61,2.91-.92,4.37v.06l-.12.59,1-5M66.33,73.7c-.12.26-.26.51-.4.77L65.6,75l-.11.19.39-.31c0-.08.05-.17.09-.26.13-.34.24-.68.36-1"/><path class="t" d="M69.21,86.44v0l-.14.72h0l.14-.74"/><path class="t" d="M68.53,76.32a6.37,6.37,0,0,0-1.45,1A4.24,4.24,0,0,0,66.17,79c0,.07-.07.15-.11.23a5.13,5.13,0,0,0,.88.86l.11,0h0v0l.08.05c.17.52.3,1,.42,1.46a1.17,1.17,0,0,1,.54-.54l.25-.16c.16.53.31,1.11.49,1.68a4.07,4.07,0,0,0,.84,1.23l0,.06,0,.18c0-.15.07-.31.1-.46v-.06c.12-.62.25-1.24.39-1.85l.34-1.62.19-.89h0v-.06l-.06-.12-.37-.5c-.25-.33-.48-.64-.66-.91a13.14,13.14,0,0,0-.87-1.14,1.5,1.5,0,0,0-.2-.23"/><path class="t" d="M68.11,83.9l0,.15a3.37,3.37,0,0,1,.08.64h0v.06a1.43,1.43,0,0,0,0-.29,1.19,1.19,0,0,0-.14-.56"/><path class="t" d="M69.59,84.52v0l-.34,1.7c.08-.38.15-.76.23-1.13,0-.2.07-.39.11-.59"/><path class="t" d="M69.25,86.24l0,.1h0v0l0-.09"/><path class="u" d="M72.89,72.37l-.7,0c-.91.2-1.89.42-2.8.71l-.75.26a1.15,1.15,0,0,0-.31,0h-.15a1.66,1.66,0,0,0-1,.62l-.08.09a2.63,2.63,0,0,0-.33.2c-.32.21-.63.42-.93.65l-.39.31q-.27.21-.54.45a8.54,8.54,0,0,0,.86,3.23c.08.12.16.24.25.35,0-.08.07-.16.11-.23a4.24,4.24,0,0,1,.91-1.67,6.37,6.37,0,0,1,1.45-1,1.5,1.5,0,0,1,.2.23,13.14,13.14,0,0,1,.87,1.14c.18.27.41.58.66.91l.37.5.06.12v.06h0l-.19.89-.34,1.62c-.14.61-.27,1.23-.39,1.85.31-1.46.61-2.91.92-4.37.1-.48.21-1,.31-1.44l.33-1.55v-.07l-.09-.12-.34-.44c-.14-.16-.27-.32-.38-.47h0a5.43,5.43,0,0,0,.65-.61,3.85,3.85,0,0,1,1.16-.89,1.73,1.73,0,0,1,.39-.18c0-.37.09-.75.17-1.14"/><path class="u" d="M69.77,83.65v0"/><path class="u" d="M69.76,83.71c0,.15-.07.31-.1.46s0,.24-.07.35-.08.39-.11.59,0,.24-.08.36l.36-1.76"/><path class="u" d="M69.4,85.47l-.08.44c0-.07,0-.14,0-.21l0-.23"/><path class="u" d="M69.32,85.91l-.09.42v0c-.06.27-.11.55-.16.82h0c0-.17.07-.36.1-.55l0-.16v0l.11-.53"/><path class="n" d="M81.67,53.22c-.16.06-.33.12-.51.17a23.15,23.15,0,0,0-3,1.15l.07.08c1.35-.53,2.5-1,3.46-1.4"/><path class="p" d="M78.14,54.54l-.25.12.11,0,.21-.08-.07-.08"/><path class="r" d="M77.89,54.66l-.74.37L78,54.7l-.11,0"/><path class="n" d="M101.13,61.21c.24.35.83,1.19,1.49,2l.89-.29c1.45.34,2.75.26,4.14,2.86A36.33,36.33,0,0,1,111,76a3.81,3.81,0,0,1,.06.64h0a2.66,2.66,0,0,1,0,.3,2.17,2.17,0,0,0,0-.37,2.85,2.85,0,0,0,0-.64,36.52,36.52,0,0,0-3.31-10.16c-1.38-2.6-2.69-2.53-4.14-2.87a5.34,5.34,0,0,1-2.39-1.64"/><path class="n" d="M67.93,63.87A16.53,16.53,0,0,0,66.64,66l0,.13c.25-.35.49-.68.75-1s.51-.66.78-1l-.21-.22"/><path class="q" d="M68,63.79l0,.08.21.22L68.2,64,68,63.8h0"/><path class="r" d="M69.25,62.19A18.13,18.13,0,0,0,68,63.74l0,0h0l.19.21.28-.33h0a5.56,5.56,0,0,1,.77-1.49"/><path class="n" d="M64.92,73.42c0,.3-.06.59-.07.88s0,.47,0,.7,0,.51,0,.77l.1-.09c0-.43-.06-.89-.06-1.35h0c0-.3,0-.6,0-.91"/><path class="o" d="M64.89,74.33h0c0,.46,0,.92.06,1.35h0c0-.37,0-.76-.06-1.15v-.2"/><path class="u" d="M65,75.68l-.1.09a6.56,6.56,0,0,0,1,3.14A8.54,8.54,0,0,1,65,75.68"/><polyline class="n" points="111.79 77.33 111.78 77.33 111.79 77.33 111.79 77.33"/><polyline class="n" points="111.78 77.33 111.78 77.33 111.78 77.33 111.78 77.33"/><polyline class="n" points="111.78 77.33 111.78 77.34 111.78 77.33 111.78 77.33"/><path class="n" d="M111.77,77.34l0,0h0l0,0m0,0,0,0h0l0,0h0"/><path class="n" d="M82.81,77.4a4.79,4.79,0,0,0-.12,1,4.18,4.18,0,0,0,.21,1.32,4.49,4.49,0,0,0,.41.9c0-.26-.11-.58-.18-.93-.12-.69-.23-1.55-.32-2.33"/><path class="n" d="M111.46,77.52l-.1,0,.08,0h0"/><polyline class="n" points="111.2 77.64 111.19 77.65 111.19 77.65 111.2 77.64"/><path class="n" d="M111.13,77.67l-.08,0-.24.09-.09,0-.47.14-.88.24c-.54.15-1.09.26-1.53.36h0s-.37.09-1,.31l1-.2c.72-.16,1.63-.4,2.32-.63a9,9,0,0,0,1-.36"/><path class="n" d="M94.67,78a4.22,4.22,0,0,0,1,.82,8.35,8.35,0,0,0,4.3,1.08,13.9,13.9,0,0,1-3.81-1.1,11.71,11.71,0,0,1-1.47-.8m5-.2a4.9,4.9,0,0,0,.87.46,6.7,6.7,0,0,1-.87-.46"/><path class="n" d="M100.7,78.3a6.9,6.9,0,0,0,.79.24,6.9,6.9,0,0,1-.79-.24"/><path class="n" d="M106.19,79.08l-.72.28h.18l.54-.27m-.17-.26-.3,0h0l.25,0"/><path class="t" d="M66.94,80.12l.12.09v0l-.11,0"/><path class="p" d="M67.76,82.58c.07.34.13.66.19,1l.12.29,0,.07c-.08-.4-.22-.86-.35-1.32"/><path class="p" d="M68.22,84.75s0,.06,0,.09v0s0-.08,0-.13"/><path class="t" d="M68,83.54c.09.46.16.89.25,1.3,0,0,0-.06,0-.09v-.06a3.37,3.37,0,0,0-.08-.64l0-.15,0-.07L68,83.54"/><path class="n" d="M94.82,83.66l-.29,0a29.67,29.67,0,0,1-3.85.27H90c.46,0,.94,0,1.44,0a24.68,24.68,0,0,0,2.74-.16l.69-.2"/><path class="n" d="M116.69,96.5a1.13,1.13,0,0,0-.22.11,2,2,0,0,1,.38.2l-.16-.31"/><path class="v" d="M108.37,75c-.09.13-.36,0-.36.37v0h0a1.1,1.1,0,0,1-.16.62,3,3,0,0,1-.72.09,5.46,5.46,0,0,1-2.11-.55c-.93,0-1.38.75-2.48,1a2.39,2.39,0,0,0-1.28.58.89.89,0,0,1-.53.2,1.42,1.42,0,0,1-.69-.24,1.84,1.84,0,0,0-.71-.21c-.18,0-.28.07-.28.19s.2.43.63.72c-.35-.24-.54-.47-.56-.61a.11.11,0,0,1,0,0h0c0-.11.08-.17.24-.17a2,2,0,0,1,.73.21,1.42,1.42,0,0,0,.69.24.89.89,0,0,0,.51-.19,2.39,2.39,0,0,1,1.28-.58c1.1-.22,1.55-.93,2.48-1a5.37,5.37,0,0,0,2.09.55,2.84,2.84,0,0,0,.72-.09,1.13,1.13,0,0,0,.17-.63h0c0-.35.26-.24.35-.38.88.53,1.8,2.38,2.35,2.38h.07c.09,0,.18-.24.21-.58,0,.3-.12.49-.2.5h-.07c-.55,0-1.48-1.85-2.36-2.38"/><path class="v" d="M100.55,78.24l0,0,.1,0h0l-.13-.05"/><path class="v" d="M101.49,78.54a12.43,12.43,0,0,0,3.07.38,10.84,10.84,0,0,0,1.13-.06h0a11.06,11.06,0,0,1-1.15,0,12.55,12.55,0,0,1-3.08-.37"/><path class="v" d="M107.84,78.55a12.49,12.49,0,0,1-1.82.27,11.57,11.57,0,0,0,1.74-.25l.08,0"/><path class="w" d="M103.51,62.94l-.89.29a1,1,0,0,0,.13.16c.78,1,1.61,1.86,2.22,1.86a.52.52,0,0,0,.31-.1s.36.32.85.83a15,15,0,0,1,1.64,2.08,6.68,6.68,0,0,1,1.25,3h0a.63.63,0,0,1-.33.64l-.43.64a6.87,6.87,0,0,1-.69,1,10.67,10.67,0,0,0-1.18-.19,23,23,0,0,0-2.71-.16h-2c-1.42,0-2.72,0-3.14-.53a4.23,4.23,0,0,0-.63,0,5.79,5.79,0,0,0-1,.09,4.42,4.42,0,0,0-1.56.62,3.47,3.47,0,0,0-1.28,1.55,3,3,0,0,0-.24,1.16A3.39,3.39,0,0,0,94.67,78a11.71,11.71,0,0,0,1.47.8,13.9,13.9,0,0,0,3.81,1.1h.31a20.88,20.88,0,0,0,4.1-.45l1-.06h.06l.72-.28.32-.16.3-.06c.66-.22,1-.31,1-.31h0l-.08,0a11.57,11.57,0,0,1-1.74.25l-.25,0h-.08a10.84,10.84,0,0,1-1.13.06,12.43,12.43,0,0,1-3.07-.38,6.9,6.9,0,0,1-.79-.24l-.1,0,0,0a4.9,4.9,0,0,1-.87-.46c-.43-.29-.63-.55-.63-.72h0c0-.12.1-.19.28-.19a1.84,1.84,0,0,1,.71.21,1.42,1.42,0,0,0,.69.24.89.89,0,0,0,.53-.2,2.39,2.39,0,0,1,1.28-.58c1.1-.22,1.55-.93,2.48-1a5.46,5.46,0,0,0,2.11.55,3,3,0,0,0,.72-.09,1.1,1.1,0,0,0,.16-.62v0h0c0-.34.27-.24.36-.37.88.53,1.81,2.38,2.36,2.38h.07c.08,0,.16-.2.2-.5a2.66,2.66,0,0,0,0-.3A3.81,3.81,0,0,0,111,76a36.33,36.33,0,0,0-3.31-10.15c-1.39-2.6-2.69-2.52-4.14-2.86"/><path class="x" d="M94.41,59.3a2.16,2.16,0,0,0-1.1.39,13.33,13.33,0,0,0-1.93,1.71l-.14.23c-.69,1.1-1.84,2.69-3,4.74a28.29,28.29,0,0,0-1.57,3.23c-.41,1.08-.74,2.09-1,2.94-.54,1.71-1,2.84-2,3.17A3.86,3.86,0,0,0,83,76.82a4,4,0,0,0-.18.58c.09.78.2,1.64.32,2.33.07.35.13.67.18.93A6,6,0,0,0,86,83,11,11,0,0,0,90,84h.73a29.67,29.67,0,0,0,3.85-.27l.29,0c.27-.07.59-.17,1-.29,1-.32,2.35-.8,3.74-1.35,2.26-.9,4.67-2,6.12-2.67h-.24l-1,.06a20.88,20.88,0,0,1-4.1.45H100a8.35,8.35,0,0,1-4.3-1.08,4.22,4.22,0,0,1-1-.82,3.39,3.39,0,0,1-.83-2.18h0a3,3,0,0,1,.24-1.16,3.47,3.47,0,0,1,1.28-1.55,4.42,4.42,0,0,1,1.56-.62,5.79,5.79,0,0,1,1-.09,4.23,4.23,0,0,1,.63,0c.42.48,1.72.53,3.14.53h2a23,23,0,0,1,2.71.16,10.67,10.67,0,0,1,1.18.19,6.87,6.87,0,0,0,.69-1l.43-.64a.63.63,0,0,0,.33-.64,6.68,6.68,0,0,0-1.25-3A15,15,0,0,0,106.13,66c-.49-.51-.85-.83-.85-.83a.52.52,0,0,1-.31.1c-.61,0-1.44-.91-2.22-1.86a1,1,0,0,1-.13-.16c-.66-.83-1.25-1.67-1.49-2L101,61a3.52,3.52,0,0,0-.35-.31,6,6,0,0,0-3.21-1c-.45,0-.87,0-1.21,0h-.41c-.41,0-.65,0-.65,0a.94.94,0,0,0-.78-.38"/><path class="y" d="M92.25,59.9s-.11.23-.35.65a.74.74,0,0,0,.35-.65"/><path class="y" d="M88.71,60a6.08,6.08,0,0,1-2.48,1.57,41,41,0,0,0-4.17,2h0a24.49,24.49,0,0,1-1.92,7.58,1.66,1.66,0,0,1-.81.8,1.73,1.73,0,0,1-.81.22.85.85,0,0,1-.29,0c-1.45-.51-1.88-2.56-2.86-4a6.28,6.28,0,0,0-1.69,2,8.64,8.64,0,0,0-.78,2.18H73a1.55,1.55,0,0,1,.73.15c.14,0,.18.11.18.19h0c0,.14-.11.31-.11.46a.13.13,0,0,0,0,.06h0a.4.4,0,0,1,.2.35h0a1.47,1.47,0,0,1,0,.27h.35a2.83,2.83,0,0,0-.44.4v0a.64.64,0,0,0,0,.23.82.82,0,0,1,0,.26h0c0,.35-.26.56-.66.73,0,.12,0,.24,0,.36a3.82,3.82,0,0,0,.6,1.94,14.16,14.16,0,0,0,4,3.82A6.17,6.17,0,0,1,79.46,83a2.27,2.27,0,0,1,.5,1.33h0a1.87,1.87,0,0,1,0,.4,2.3,2.3,0,0,1-1.11.88,7,7,0,0,0,1,.78,10.87,10.87,0,0,0,1.72,1A17,17,0,0,0,89,89h.65a24.83,24.83,0,0,0,7-1.28,26.1,26.1,0,0,0,2.88-1.15,13,13,0,0,0,3.21-2.38c1-1,2-1.95,3-2.79a27.84,27.84,0,0,1,2.44-2c.63-.46,1-.71,1-.71,1.22-.68,1.82-1,2-1.06h0l0,0-.11,0a9,9,0,0,1-1,.36c-.69.23-1.6.47-2.32.63l-1,.2-.3.06-.32.16-.54.27c-1.45.69-3.86,1.77-6.12,2.67-1.39.55-2.74,1-3.74,1.35-.38.12-.7.22-1,.29l-.69.2a24.68,24.68,0,0,1-2.74.16c-.5,0-1,0-1.44,0A11,11,0,0,1,86,83a6,6,0,0,1-2.7-2.34,4.49,4.49,0,0,1-.41-.9,4.18,4.18,0,0,1-.21-1.32h0a4.79,4.79,0,0,1,.12-1,4,4,0,0,1,.18-.58,3.86,3.86,0,0,1,.64-1.11c1-.33,1.48-1.46,2-3.17.27-.85.6-1.86,1-2.94a28.29,28.29,0,0,1,1.57-3.23c1.17-2.05,2.32-3.64,3-4.74l.14-.23c.22-.34.39-.63.52-.85a1.17,1.17,0,0,1-.52.11,4.17,4.17,0,0,1-.87-.13,15.37,15.37,0,0,1-1.8-.56"/><path class="z" d="M73.27,75.5l-.33.14-.18,0A8.77,8.77,0,0,0,73,77a7.61,7.61,0,0,0,.27.86c.08.19.12.3.12.3.74.65,1.31,1.16,1.75,1.58a10.7,10.7,0,0,1,1,1,1.92,1.92,0,0,1,.44.8,7.56,7.56,0,0,0,1.75,3.45,6.64,6.64,0,0,0,.51.55,2.3,2.3,0,0,0,1.11-.88,1.87,1.87,0,0,0,0-.4,2.27,2.27,0,0,0-.5-1.33,6.17,6.17,0,0,0-1.57-1.37,14.16,14.16,0,0,1-4-3.82,3.82,3.82,0,0,1-.6-1.94h0c0-.12,0-.24,0-.36"/><path class="z" d="M82.05,63.58l-.09.05A24.53,24.53,0,0,1,80,71.21a1.61,1.61,0,0,1-.71.75,1.66,1.66,0,0,0,.81-.8,24.49,24.49,0,0,0,1.92-7.58"/><path class="z" d="M73.93,73.85a1.87,1.87,0,0,0-.09.41,2.83,2.83,0,0,1,.44-.4h-.35"/><path class="aa" d="M75.44,68.08a.27.27,0,0,0-.08.07c1,1.43,1.41,3.48,2.86,4a.85.85,0,0,0,.29,0,1.73,1.73,0,0,0,.81-.22,1.74,1.74,0,0,1-.73.18.82.82,0,0,1-.28,0c-1.46-.51-1.88-2.57-2.87-4"/><path class="ab" d="M82,63.63c-.5.29-1,.59-1.43.9-.1.78-.43,1.31-1.15,1.31a2.22,2.22,0,0,1-.58-.09h0c-.19.14-.38.28-.55.42-1,.74-1.56,1.25-1.56,1.25a5,5,0,0,0-1.23.66c1,1.44,1.41,3.5,2.87,4a.82.82,0,0,0,.28,0,1.74,1.74,0,0,0,.73-.18,1.61,1.61,0,0,0,.71-.75A24.53,24.53,0,0,0,82,63.63"/><path class="ac" d="M80.53,64.53c-.64.42-1.23.84-1.75,1.22h0a2.22,2.22,0,0,0,.58.09c.72,0,1.05-.53,1.15-1.31"/><path class="ad" d="M73.77,73.23c-.25.12-.67.16-1,.28a5,5,0,0,0,0,.54c0,.11,0,.22,0,.34a10.55,10.55,0,0,0,.08,1.3l.18,0,.33-.14c.4-.17.66-.38.66-.73a.82.82,0,0,0,0-.26.64.64,0,0,1,0-.23h0c0-.25.13-.49.13-.7a.4.4,0,0,0-.2-.35h0"/><path class="ae" d="M73,72.37h-.07c-.08.39-.13.77-.17,1.14.38-.12.8-.16,1-.28a.13.13,0,0,1,0-.06h0c0-.15.11-.32.11-.46s0-.15-.18-.19a1.55,1.55,0,0,0-.73-.15"/><path class="af" d="M111.78,77.34h0l0,0h0l0,0h0"/><path class="af" d="M111.75,77.36h0M105.89,92h0m0,0h0m0,0h0m5.87-14.64h0l-1.11.79c-1.85,1.33-2.75,2.21-5,3.89a9.26,9.26,0,0,0-2,2,0,0,0,0,0,0,0s0,0,.11,0a8.46,8.46,0,0,0,3.2-1.47,14.45,14.45,0,0,0,2-1.7c.26-.27.46-.48.6-.65s.23-.27.24-.27.62-.9.7-1h0c-.12.23-.89,1.63-1.42,2.94a3.83,3.83,0,0,0-.34,1.42,4.15,4.15,0,0,0,.15.87h0v0a33.59,33.59,0,0,1-2.32,5.27c-.1.15-.3.73-.46,1.09a6,6,0,0,0-.3,1.28.2.2,0,0,0,0,0h0a.2.2,0,0,0-.11.17c0,.22.31.55.69.76a1.45,1.45,0,0,0,.68.22c.18,0,.31-.08.31-.29a.78.78,0,0,0,0-.14h0c.07.25.18.36.31.36s.43-.2.66-.44c.41-.43.8-1,1.13-1h0c.24,0,.44.4.67.71s.31.39.48.39a.35.35,0,0,0,.28-.18c.26-.23.5-.63.72-.63s.26.15.38.59a4.34,4.34,0,0,0,.69,1.45.8.8,0,0,0,.33.06l.28,0a2.85,2.85,0,0,1,.29,0,1,1,0,0,1,.84.53c.44.76,1.1,2.42,1.59,2.42.09,0,.18-.06.26-.2.14-.33.54-.17.55-.57a.69.69,0,0,0,0-.13h0c-.23-.21-.51-.73-.79-1-.56-.7-1-.67-1.48-1.53s-.88-1.74-1.28-2.4a2.18,2.18,0,0,0-.66-.67,3.07,3.07,0,0,0-1.91-1.1h-.15c-.14.55-.28.72-.41.72s-.41-.44-.59-.5a2.78,2.78,0,0,1-.19-.64.26.26,0,0,0-.17,0h-.17c-.13,0-.25-.06-.25-.5h0c0-.06,0-.13,0-.2a44,44,0,0,1,1-6.22,18.45,18.45,0,0,1,.92-3c.06-.14.11-.27.17-.4l.1-.22v0h0l0,.05v0h0a.59.59,0,0,1,0-.08l.12-.23h0a2.72,2.72,0,0,1,.11-.25v0h0v0h0l0,0c0,.09-.07.18-.1.26h0l0-.07a2.5,2.5,0,0,1,.18-.24l.07-.09,0-.06.08-.09.22-.22"/><path class="af" d="M111.74,77.36h0l-.12.08.09-.06h0"/><polyline class="af" points="111.62 77.44 111.61 77.44 111.62 77.44 111.62 77.44"/><path class="af" d="M111.61,77.44l-.15.08h0l.07,0,.06,0,0,0"/><path class="af" d="M111.44,77.53l-.2.09h0l.17-.08"/><path class="af" d="M111.31,77.85h0l-.12.17.12-.18m-.07-.23,0,0h0l0,0h0"/><path class="af" d="M111.12,78.13h0"/><path class="af" d="M111.05,78.22l0,.09h0v0l0-.07"/><path class="af" d="M111,78.33h0v0h0"/><polyline class="af" points="110.99 78.34 110.99 78.34 110.99 78.35 110.99 78.34"/><path class="af" d="M111,78.36l0,0h0l0,0"/><path class="b" d="M84.26,51.93a16.5,16.5,0,0,1-1.65.86h0l.11,0c.58-.28,1.09-.56,1.54-.82h0"/><path class="ag" d="M87.15,48.54s0,.07,0,.19a3.26,3.26,0,0,1-.18.52,4.57,4.57,0,0,1-1.19,1.6,8.89,8.89,0,0,1-1.48,1.08h0a8.89,8.89,0,0,0,1.48-1.08h0a4.57,4.57,0,0,0,1.19-1.6h0a3.26,3.26,0,0,0,.18-.52h0c0-.12,0-.19,0-.19h0"/><path class="ah" d="M85.74,50.85a12.71,12.71,0,0,1-3,1.9c.58-.28,1.09-.56,1.53-.82a8.61,8.61,0,0,0,1.49-1.08m1.37-2.12a3.26,3.26,0,0,1-.18.52,3.26,3.26,0,0,0,.18-.52m0-.19s0,.07,0,.19c0-.12,0-.19,0-.19"/><path class="ah" d="M82.61,52.79l-.94.43c-1,.42-2.11.87-3.46,1.4h0c1.35-.53,2.5-1,3.46-1.4l.94-.43"/><path class="ai" d="M78.21,54.62,78,54.7h0l.21-.08h0"/><path class="aj" d="M78,54.7l-1,.4h0l.17-.07L78,54.7h0"/><path class="h" d="M76.79,55.17l-.24.1s-.47.26-1.22.79a24.13,24.13,0,0,0-2.75,2.24h0l.09-.08a23.46,23.46,0,0,1,2.66-2.16h0c.75-.53,1.22-.79,1.22-.79l.24-.1"/><path class="ak" d="M75.33,56.06a23.46,23.46,0,0,0-2.66,2.16,23.46,23.46,0,0,1,2.66-2.16"/><path class="ak" d="M72.58,58.3a23.24,23.24,0,0,0-2.92,3.29h0a23.24,23.24,0,0,1,2.92-3.29"/><path class="aj" d="M69.47,61.86l-.22.33a5.56,5.56,0,0,0-.77,1.49,5.56,5.56,0,0,1,.77-1.49l.22-.33"/><path class="ah" d="M68.14,64.09q-.4.5-.78,1,.38-.49.78-1h0"/><path class="al" d="M68.2,64l-.06.08h0L68.2,64h0"/><path class="aj" d="M68.48,63.68,68.2,64h0l.28-.33"/><path class="ah" d="M67.36,65.08c-.28.36-.55.73-.83,1.11l.08-.1c.25-.35.49-.68.75-1"/><path class="ah" d="M66.53,66.19s-.33.84-.72,2.12c.39-1.28.71-2.09.72-2.12"/><path class="ah" d="M65.29,70.48A24.09,24.09,0,0,0,65,73a24.09,24.09,0,0,1,.34-2.47"/><path class="am" d="M66.05,79.29h0a2.5,2.5,0,0,0,.89.83l.11,0-.11,0a2.5,2.5,0,0,1-.89-.83"/><path class="ag" d="M64.89,74.33h0v.2c0,.39,0,.78.06,1.15h0c0-.43-.06-.89-.06-1.35"/><path class="an" d="M65,75.68h0a7.7,7.7,0,0,0,1.1,3.61h0c-.08-.12-.16-.24-.24-.38A8.54,8.54,0,0,1,65,75.68"/><path class="am" d="M67.05,80.17h0s.21.73.48,1.63h0c-.23-.78-.43-1.44-.47-1.59v0"/><path class="ai" d="M68.14,85.07h0a4.12,4.12,0,0,0,.68,1.8,4.12,4.12,0,0,1-.68-1.8"/><path class="ao" d="M111,78.31l0-.09h0l0,.07v0h0m.38-.55,0,0a2.5,2.5,0,0,0-.18.24l0,.08h0c0-.08.06-.17.1-.26l0,0a2.72,2.72,0,0,0-.11.25h0l-.12.23a.59.59,0,0,0,0,.08l0,0h0v0h0l-.1.22c-.06.13-.11.26-.17.4a18.45,18.45,0,0,0-.92,3,44,44,0,0,0-1,6.22c0,.07,0,.14,0,.2,0,.44.12.5.25.5h.17a.26.26,0,0,1,.17,0,2.78,2.78,0,0,0,.19.64c.18.06.37.5.59.5s.27-.17.41-.72h.15a3.07,3.07,0,0,1,1.91,1.1,2.18,2.18,0,0,1,.66.67c.4.66.8,1.65,1.28,2.4s.92.83,1.48,1.53c.28.29.56.81.79,1h0c.08-.14.3-.07.3-.24a.45.45,0,0,0,0-.17,7.18,7.18,0,0,0-.66-1.3,40,40,0,0,1-2.36-4.17c-1.5-2.69-2.23-4.83-2.8-5.46l0,0c-.1,0-.21.62-.33.88s-.23.32-.35.32h-.13c-.16,0-.33.13-.61.87,0,.1-.06.14-.09.14s-.06-.07-.07-.17h0a25.93,25.93,0,0,1,1.14-7.84c.06-.19.13-.41.22-.66l0-.1h0a.86.86,0,0,1,.07-.1l.12-.17h0l.07-.09"/><polyline class="ao" points="111.24 77.79 111.24 77.8 111.23 77.81 111.24 77.79"/><polyline class="ao" points="111.23 77.81 111.23 77.83 111.23 77.82 111.23 77.81"/><polyline class="ao" points="110.99 78.34 110.99 78.34 110.99 78.34 110.99 78.34"/><path class="ao" d="M111,78.35l0,.06h0l0-.05h0"/><polyline class="ao" points="110.96 78.4 110.95 78.41 110.95 78.41 110.96 78.4"/><path d="M74.58,45.87c0-.4.2-.87,0-1.17-2.24-4.18-5.37-7.07-10.45-7.09a38.26,38.26,0,0,0-8,.73,28.25,28.25,0,0,0-7,2,35.61,35.61,0,0,0-10.52,7.52c-1.63,1.76-3,3.72-4.77,5.39a36.23,36.23,0,0,0-5.57,7.79,32.68,32.68,0,0,0-3,7.11,34.53,34.53,0,0,0-2,10.5c0,2.44.38,4.89.59,7.33a16.48,16.48,0,0,0,3.66,8.43,2.83,2.83,0,0,0,1.85,1.16,19.35,19.35,0,0,1,3.42,1.33.92.92,0,0,1,.6,1.35C32,98.29,31,96.66,29.36,97c.61,1.43,1.91,1.67,3.09,2.12a2.6,2.6,0,0,1-3.77-.66c-3.05-4-5.72-8.19-6.4-13.47A38.85,38.85,0,0,1,24,68.36a32.45,32.45,0,0,1,3.1-7.83c.56-.9,1.12-1.8,1.74-2.65,1.86-2.55,3.19-5.49,5.54-7.69,2.94-2.74,5.57-5.85,9.12-7.92,1.31-.76,2.5-1.74,3.82-2.49a30.26,30.26,0,0,1,10.23-3.05,59.07,59.07,0,0,1,5.94-.56,10.87,10.87,0,0,1,6.73,1.57,12.55,12.55,0,0,1,4.68,4.64,8.87,8.87,0,0,0,5.64,4.91c1.79.54,3.53,1.27,5.33,1.8A8.63,8.63,0,0,1,91.07,53a2.86,2.86,0,0,0,3,1.58,25.59,25.59,0,0,1,7.68.71c2.43.62,5,.9,7.41,1.44A16,16,0,0,1,112.77,58c1.82.91,3.54,2,5.3,3,.11.05.21.11.32.15,3.75,1.31,6.1,4.42,8.94,6.91s4.69,6.11,6.87,9.28a8.14,8.14,0,0,1,1.15,4.38,33.52,33.52,0,0,1-1.13,10.44,28.66,28.66,0,0,1-4.37,9.14,44.26,44.26,0,0,1-3.84,4.77,10.82,10.82,0,0,1-2.74,2.11,119.32,119.32,0,0,1-12.18,5.44,21.59,21.59,0,0,1-4.07,1.08,62.46,62.46,0,0,1-6.75,1.11,37.5,37.5,0,0,1-5.79-.24q-2.72-.22-5.4-.67a27,27,0,0,1-3.39-.92c-2.29-.72-4.55-1.54-6.86-2.18a10.54,10.54,0,0,1-4.3-2.64c-1.61-1.46-3.17-3-4.71-4.5-.74-.73-1.38-1.57-1.94-2.22-3.26.8-6.45,1.5-9.59,2.37a22.43,22.43,0,0,1-8.2.36c-2.74-.24-5.46-.69-8.17-1.19a37.82,37.82,0,0,1-4.19-1.25l-1.14-.37-3.77-1.21c.35-1.51.55-1.66,1.58-1.14a26.85,26.85,0,0,0,8.33,2.7,75,75,0,0,0,11.34,1.2c3,0,6.11-1,9.14-1.62A29.29,29.29,0,0,0,67,100.9c.4-1.42-.25-2.65-.73-3.88a28.76,28.76,0,0,1-2.23-7.57,34.79,34.79,0,0,1,1.21-14.4c1.47-4.48,4.17-8.06,7.18-11.53a13.12,13.12,0,0,1,4.84-3.68c1.71-.73,3.21-2,4.93-2.66,2.21-.9,4.54-1.5,6.82-2.22l1.29-.38a6.92,6.92,0,0,0-3.42-3.47c-1.57-.63-3.19-1.14-4.76-1.77-1.85-.75-3.66-1.55-5.47-2.38-.35-.16-.58-.57-.92-.77A5.34,5.34,0,0,0,74.58,45.87ZM88,85.64c-.84.78-1.28.36-1.7-.22-.3-.42-.55-1.08-1-1.18a26.05,26.05,0,0,0-4-.66c-.77-.08-1.17.41-1.18,1.2,0,1.11,0,2.23,0,3.35C80,91.77,81.31,95,83,98.11c1.27-1.62,2.17-2.17,3.75-2.21l-1.12,1c-1.55,1.37-1.85,3-.58,4.67a30.18,30.18,0,0,0,3.84,4.07A11.41,11.41,0,0,0,94.92,108c-1.36-4.1.56-6.5,4-8.22A4,4,0,0,1,97.79,96c.15-1.73-.35-2.36-2-3-.09,0-.13-.18-.2-.27.5-1,.5-1,2.29-.23l1.8-.83.22.3a5,5,0,0,0-.68.86,2.74,2.74,0,0,0-.42,1.25c0,1.1.31,2.19.34,3.29a1.63,1.63,0,0,0,1.3,1.76c1.51-.54,2.49-1.37,1.91-3.06,1.18-.61,1,.73,1.54.91.6-.36.77-1.25,1.75-1.16a4.45,4.45,0,0,1-2.14,3.29c-1.44.74-2.91,1.44-4.41,2.06a5.36,5.36,0,0,0-3.19,3.74,2.87,2.87,0,0,0,1.79,3.66c.7.28,1.42.52,2.14.76s1.41.63,2-.23c.12-.17.65-.07,1,0,.5,0,1,.15,1.5.23.18-.7.28-1.22.44-1.72a5.39,5.39,0,0,1,3.65-3.95,1.42,1.42,0,0,1,.53,0l.29,1.4,5.29-1.51-1.32-2.25c1.45-.72,1.28,1.26,2.42,1.08l.33-2.86,1.41.17c-.32,1.23-.62,2.33-.89,3.43-.36,1.49-2.1,1.08-2.86,2l2.3,2a1.47,1.47,0,0,1-1.81,0,9.43,9.43,0,0,0-2.77-.93,43.78,43.78,0,0,0-4.62,0l-1.37,4.06c.69,0,1.16.1,1.62.08A39.06,39.06,0,0,0,121,107a7.14,7.14,0,0,0,2.47-11.54,2,2,0,0,1-.26-.71c1-.67,1.26.52,1.93.48.34-3.42,1.42-5.67,3-5.94-.12.43-.19.8-.32,1.15-.47,1.27-1,2.51-1.43,3.78s0,2.65.08,3.92c.07,1.54-.1,3-.16,4.54,0,.35,0,.71-.06,1.25a4,4,0,0,0,.58-.51c2.56-3.59,5-7.2,6.13-11.58a32.39,32.39,0,0,0,.87-11.34c-.07-.64-.18-1.28-1-1.51a10.59,10.59,0,0,0-.47,1.14c-.27,1-.21,2.34-1.91,2-.11,0-.25.24-.4.32l-4.28,2.18c-.75-.74-.32-1.07.18-1.34.77-.42,1.6-.75,2.34-1.2a4.55,4.55,0,0,0,2.48-3.43,5.64,5.64,0,0,1,.47-1.8c-.25-.51-.69-1-.61-1.31a2.81,2.81,0,0,0-.8-2.41A32.65,32.65,0,0,0,127,69.59c-1.42-1.47-3.07-2.73-4.49-4.21a2.31,2.31,0,0,0-2.83-.75,10.29,10.29,0,0,1-1,2.13,2.86,2.86,0,0,0-.8,2,3.3,3.3,0,0,1-.34,1.17c0,.06-.19.08-.4.18l-.55-1.42-2,1.38-.16-1.32c1.16-.09,1.33-1.32,2.14-1.85a4.07,4.07,0,0,0,1.19-4.36c-.11-.25-.32-.58-.54-.64a18.54,18.54,0,0,0-4.1-.83,26.24,26.24,0,0,0-9.28,1.77c-1.67.61-3.48,1.26-4.55,3a3.63,3.63,0,0,0,.26,4.35c1.09,1.15,2.23,2.26,3.23,3.48.71.86,1.61,1.68,1.64,3-1.75-1-1.72-1-2.33-2.21a5.68,5.68,0,0,0-1-1.41,26.64,26.64,0,0,0-2.08-1.89,4.08,4.08,0,0,1-1.42-4.55c.22-.76.53-1.49,1-2.67l-4,1.93.84,1.11c-.8.07-1.35.14-1.89.14-.89,0-1.61.41-1.68,1.23a4.54,4.54,0,0,1-1.59,2.83c-1,1.08-2,2.2-3.13,3.36a11,11,0,0,1,1.71,1.25,3,3,0,0,0,3.36.83,8.77,8.77,0,0,1,1.59-.1,4.19,4.19,0,0,1-3.07,1.48c-1.69.2-2.51-1.28-3.67-2.15-1.15,1.12.16,2.36-.28,3.5-1.91-2.47-1.85-4.49.17-6.6.86-.88,1.76-1.72,2.62-2.61A10.66,10.66,0,0,0,90.36,69c-3.44,1.06-10.76,9.51-9.83,13.32a10.9,10.9,0,0,1,3.25.26,5.46,5.46,0,0,0,4.72-.34,3.06,3.06,0,0,1,.84-.15l.35,1.12,1.73-.48.13.32-2.16.86c-.72.28-1.66-.37-2.32.6Zm4.65,23.8,0-.46a14.57,14.57,0,0,1-1.42-.58,19,19,0,0,1-3.78-2.17,26.46,26.46,0,0,1-8-13.18,29.12,29.12,0,0,1-.5-9.27,16.39,16.39,0,0,1,.9-5.33A19.81,19.81,0,0,1,85.26,71c4.25-3.67,8.82-6.91,14.43-8.41a83.33,83.33,0,0,1,12.86-2.72c.13,0,.24-.16.5-.35a13.51,13.51,0,0,0-4.34-1.68c-2.42-.43-4.83-1-7.26-1.37-5.24-.9-10.47-1.31-15.59.67-1.74.68-3.5,1.31-5.18,2.12-3.3,1.58-6.42,3.41-8.5,6.59a17.39,17.39,0,0,1-1.3,1.67,25,25,0,0,0-5.67,13.4c-.4,3.72-.56,7.49.73,11.13.73,2.1,1.43,4.22,2.23,6.29.51,1.33,1.21,2.58,1.74,3.9a5.62,5.62,0,0,0,2.8,3l-.33-1.46.27-.1,3.85,4.85.29-.17-.45-1.86c1.66.89,1.94,2.95,3.8,3.79-.13-1.22-1.1-2-.93-3.24,1,.5,1.09,1.45,1.57,2.12s1,1.26,1.52,1.89a17.62,17.62,0,0,1-.18-3.12c.53.84,1,1.65,1.53,2.38.21.27.65.36,1,.54.14-.28.27-.56.42-.83a6.37,6.37,0,0,1,.37-.53,13.89,13.89,0,0,0,4.14,4.27l-1.75-3.19A13.39,13.39,0,0,0,92.6,109.44Zm3.06,4.87c-.45-1.15-1.53-1.62-1.5-3.07,1.53,1,2.6,2.33,4.2,2.77-.88-1.36-2.19-2.45-2.16-4.3l-2.4-.45-2.28,1.81C92.61,112.4,93.66,113.75,95.66,114.31Zm4.6-2.08.19-.25,3,.72c-.15-1.12-.84-1.3-1.44-1.26-1.38.09-2.5-.65-3.76-.94a15.75,15.75,0,0,1-1.61-.63c2,2.93,3.13,3.83,4.51,3.53Zm-8.33,1.22c-.79-.76-.76-2.43-2.65-2.36A5,5,0,0,0,91.93,113.45Zm12.93-1.54c1,.14,1,.14,1.74-.52C105.91,111.39,105.26,111.12,104.86,111.91Zm8.94-.94.13.32,1-.44-.12-.29Zm-28.81,0c.3,1.18.3,1.18,1.34,1.6Z"/><path d="M48.27,73.46c.35-.63.66-1.28,1.06-1.88.68-1,1.4-2,2.15-3a14.63,14.63,0,0,1,2.62-3,15,15,0,0,0,4-5,58.54,58.54,0,0,1,3.09-5c.48-.66,1.16-1.61,2.34-1.32,0,.23.05.39,0,.44-1.38,1.14-2,2.8-3,4.2s-1.74,2.91-2.71,4.29a9.18,9.18,0,0,1-2,2.14,13.6,13.6,0,0,0-4.32,4.54C50.81,71,50,72.17,49.2,73.35a1.71,1.71,0,0,1-.52.38Z"/><path d="M65.47,40.62a1.32,1.32,0,0,1-.75,1.7c-1.12.51-2.3.88-3.44,1.35s-2.24,1-3.39,1.46-2.3.73-3.52,1.12c-.19-.72.25-1,.68-1a37.42,37.42,0,0,0,8.74-3.59C64.33,41.33,64.83,41,65.47,40.62Z"/><path d="M53.63,85.39a3.26,3.26,0,0,1,.4-.84c.91-1,1.82-2,2.81-2.87a18,18,0,0,0,3.48-5c.27-.49.44-.92,1.13-.74C60.61,78.55,56.75,83.43,53.63,85.39Z"/><path d="M62.64,95.48l.68,1.21c-1.61.52-3.07,1-4.55,1.46s-2.53,1.8-4.19,1.67C56.85,97.64,60.14,97.44,62.64,95.48Z"/><path d="M73,47.47a8,8,0,0,0-1.31.19,3.35,3.35,0,0,0-1.51.74c-1.05,1.25-2.62,1.32-3.83,2.16l-.23-.3c.25-.24.49-.5.76-.72.9-.74,1.82-1.44,2.71-2.19A2.51,2.51,0,0,1,73,47.47Z"/><path d="M32.93,77.44c-.31,2.23-.57,4.48-1,6.7a18.73,18.73,0,0,1-1.18,3c-.2-.46-.33-.61-.29-.7a25.31,25.31,0,0,0,1.29-7.2A2,2,0,0,1,32.93,77.44Z"/><path d="M42.52,59.73l-4.41,5.92-.33-.25a10.8,10.8,0,0,1,4.4-5.92Z"/><path d="M47,53a2.57,2.57,0,0,1,.4-.64c1.45-1.18,2.9-2.35,4.38-3.48a1.42,1.42,0,0,1,1-.12A15,15,0,0,1,47,53Z"/><path d="M48,100.27H40.8C42.17,98.85,45.81,98.74,48,100.27Z"/><path d="M45.37,76.27a11.67,11.67,0,0,1-4.59,5.25C42.07,79.4,43.18,77.66,45.37,76.27Z"/><path d="M34.27,73.07c.8-1.95.31-4.47,2.83-5.86-.83,2.14-1.59,4.12-2.35,6.09Z"/><path d="M39.26,84.57c-.46,2.57-2.57,3.8-3.61,5.7C35.56,89.12,37.86,85.47,39.26,84.57Z"/><path d="M42.8,93.33,47.09,91A5.58,5.58,0,0,1,43,93.63Z"/><path d="M80.4,50.79c.38,1.4.29,1.54-2.08,3.61Z"/><path d="M108.34,89.32l1.65-.76c.22,1.54,0,1.71-2,1.78l.14,1.28c-1.74-1-2-1.85-1-3.35a18.14,18.14,0,0,1,2-2.19c2.38-2.36,2.57-5.26.55-7.69-.07-.09-.2-.16-.23-.26-.13-.36-.22-.74-.32-1.11l1.08-.18.39-.08a1.89,1.89,0,0,1,.09-.63,4.3,4.3,0,0,1,.6-.68c.17.21.47.43.46.64,0,.84.56,1.69-.06,2.56-.17.23,0,.78.14,1.15a5.84,5.84,0,0,1-.13,4.6,12.14,12.14,0,0,1-2,2.94A3.6,3.6,0,0,0,108.34,89.32Z"/><path d="M99.74,87.39l-.93,1.36-.24-.08.29-1.88c-.27-.24-.58-.49-.87-.76a6.62,6.62,0,0,1-1.78-6.32,6.47,6.47,0,0,0-1-5.39c.56-.48,1-.45,1.33.1.48.87.88,1.78,1.35,2.77l1.65-1,.24.2c-.63,1-1.25,2.07-1.89,3.09-.11.19-.38.29-.46.48-.49,1.2.08,4.59,1.23,5,1.76.69,2.52,2.68,4.83,3C101.81,88.92,101,87.4,99.74,87.39Z"/><path d="M124.2,85.41l-3.7.21a3.13,3.13,0,0,0-2.79,3.47,3.34,3.34,0,0,1-.29,1.87l-.88-1.4-3.48.37-.16-.45c.27-.19.55-.56.81-.56a3.37,3.37,0,0,0,3.19-2.06c.08-.15.21-.28.29-.44,1.06-2.12,2.91-2.25,4.9-1.89C122.72,84.65,123.53,84.3,124.2,85.41Z"/><path d="M118.57,74.73c.94.78.48,1.33,0,1.62a3.64,3.64,0,0,1-1.9.73A3,3,0,0,0,114,78.66c-.4.68-.84.9-1.75.31.9-1.06,1.72-2.06,2.6-3a1.1,1.1,0,0,1,.82-.13A2.67,2.67,0,0,0,118.57,74.73Z"/><path d="M113,80.36a3.59,3.59,0,0,1,3-.2c.14.06.13.48.23.89C115.08,81,113.92,81.46,113,80.36Z"/><path d="M105.84,72.34c-2,1-2.85.88-4.13-.85.39,0,.84-.18.93,0C103.5,72.54,104.64,72.49,105.84,72.34Z"/><path d="M82.32,71.4c-1-.12-2-.22-3-.39a11.84,11.84,0,0,1-2.21-.52A6.47,6.47,0,0,0,73,70.22,9.22,9.22,0,0,1,70.19,70c.44-.38.58-.6.74-.62,2.41-.31,4.79-.66,7.17.35a22,22,0,0,0,3.39.78,5.75,5.75,0,0,1,.92.41Z"/><path d="M66.91,84.67a29.07,29.07,0,0,1,4.67.06,4,4,0,0,0,3.81-1c.45,1.16.24,1.72-.84,1.91a10,10,0,0,1-2.78.07c-1.65-.16-3.28-.45-4.92-.69Z"/><path d="M73.06,100.92l6.51-2.75c0,.31.1.78,0,.84a16.36,16.36,0,0,1-5.94,2.31C73.49,101.33,73.35,101.14,73.06,100.92Z"/><path d="M94.7,60.75l-5.85-1.34C90.28,58.4,92.87,58.89,94.7,60.75Z"/><path d="M101.32,61.87l-5.71-1.3v-.3a14.68,14.68,0,0,1,2.89,0C99.42,60.45,100.62,60.23,101.32,61.87Z"/><path d="M86.75,65.12l1.11.64-.2.37-1.16-.56Z"/></svg>