<svg xmlns="http://www.w3.org/2000/svg" viewBox="0 0 150 150"><defs><style>.a{fill:#fff6c0;}.b{fill:#fff3b5;}.c{fill:#fff0a1;}.d{fill:#ffe771;}.e{fill:#ffe66b;}.f{fill:#ffe97a;}.g{fill:#ffef97;}.h{fill:#fff8cf;}.i{fill:#ffed90;}.j{fill:#fff0a0;}.k{fill:#fffbec;}</style></defs><title>icon</title><path class="a" d="M45.38,105.73h0a15.06,15.06,0,0,1-3.25,1.8,10,10,0,0,1-1.62.49h0a10,10,0,0,0,1.62-.49,15.06,15.06,0,0,0,3.25-1.8M25.26,99l.12.15,1.16,1.37.29.29c.19.19.51.5.86.82s.83.73,1.38,1.17,1.14.9,1.77,1.33a24.85,24.85,0,0,0,7.79,3.8,5.21,5.21,0,0,0,1.17.18h0a5.21,5.21,0,0,1-1.17-.18l-.16,0a25.75,25.75,0,0,1-7.63-3.77h0c-.63-.43-1.28-.93-1.77-1.33s-1-.85-1.38-1.17-.67-.63-.86-.82l-.29-.29-1.16-1.37h0L25.26,99h0M15.63,73.55h0v.09c0,.3,0,.61,0,.93h0c0-.2,0-.4,0-.6v-.42m1.45-11.72c0,.1-.07.29-.13.55l-.18.82-.24,1.19h0a46.52,46.52,0,0,0-.9,9.16h0a46.52,46.52,0,0,1,.9-9.16l.24-1.19.18-.82c.06-.26.1-.45.13-.55h0m-.45-3.35c0,.17,0,.33,0,.5a6.18,6.18,0,0,0,.07.62l.06.29a3.43,3.43,0,0,1,0,.38c0,.27.06.52.1.76s.06.31.1.45h0c0-.14-.07-.29-.1-.45s-.08-.49-.1-.76a3.43,3.43,0,0,0,0-.38l-.06-.29a6.18,6.18,0,0,1-.07-.62h0c0-.17,0-.33,0-.5h0m3.18-10.11h0c-.26.45-.51.91-.75,1.39h0c-.07.15-.14.3-.22.44h0c.08-.14.15-.29.22-.44.24-.48.49-.94.75-1.39h0m3.45-4.86-.09.05h0l-.36.42c-.23.28-.52.62-.94,1.2s-.86,1.22-1.33,2l-.36.57h0l.36-.57c.47-.74.93-1.41,1.33-2s.71-.92.94-1.2l.36-.42.09-.05h0M33,38.82h-.68s-.32.05-.84.19h0c-.54.17-1.26.41-2,.7h0a20,20,0,0,0-2.31,1.21l0,0-.62.45h0l.62-.45a20.68,20.68,0,0,1,2.35-1.23c.76-.29,1.5-.54,2-.71s.84-.19.84-.19H33m4.5-1c-.12.33-.59.62-1.69.81h0c1.1-.19,1.57-.48,1.69-.81h0m-1.1-1.69a.73.73,0,0,0,.17.19h0a.68.68,0,0,1-.16-.18h0"/><path class="b" d="M35.7,35.23l0,0c.13.17.43.49.74.86h0a1.54,1.54,0,0,1,.17.19c.32.29,1,.81,1,1.31h0a.41.41,0,0,1,0,.19s0,.07-.07.15a1.39,1.39,0,0,1-.25.23,2.08,2.08,0,0,1-.39.22,2.91,2.91,0,0,1-1,.21,18.56,18.56,0,0,1-2.81.21c-.53.08-1,.15-1.57.28a15.66,15.66,0,0,0-2.24.78,14.66,14.66,0,0,0-2.36,1.39l-.37.14a3.15,3.15,0,0,0-.84.91,21.88,21.88,0,0,0-2.37,1.19c-1.17,1.89-3,4.15-4.42,6.69l-.47,1c-.22.53-.44,1.08-.63,1.62a18.82,18.82,0,0,0-.88,3.2,12.87,12.87,0,0,0-.23,2.29v.15c0,.13,0,.26.05.39s.06.42.1.63l.06.3a1.5,1.5,0,0,1,.06.38c0,.31.05.6.09.91,0,.13,0,.26,0,.39s0,.16.07.24h0l0,.11,0,.22h0a65.17,65.17,0,0,0-1.19,6.88,44.25,44.25,0,0,0-.28,4.89c0,.25,0,.5,0,.75a39.57,39.57,0,0,0,.83,7,39,39,0,0,0,3,8.75l0,.06a39.6,39.6,0,0,0,4.15,6.68h0c.6.8,1.13,1.43,1.59,2a34.84,34.84,0,0,0,6.68,5.66,29.58,29.58,0,0,0,3,1.74A18.21,18.21,0,0,0,39,108a3.21,3.21,0,0,0,.8.12,4.28,4.28,0,0,0,.86-.14,8,8,0,0,0,1.5-.53c1.09-.54,2.16-1.12,3.22-1.7.24-.17.49-.36.74-.56-.25.2-.5.39-.74.56h0c.24-.17.49-.36.74-.56-.25.2-.5.39-.74.56,1.66-.92,3.28-1.85,4.83-2.67a18.92,18.92,0,0,1,7.17-2.52,15.69,15.69,0,0,1,1.9-.11h.1c.54,0,1.3.08,2.37.2a41.59,41.59,0,0,0,4.58.32h.24c.9,0,1.94,0,3-.16a26.54,26.54,0,0,0,4-.74c1-.28,2.79-.65,4.71-1.2l.73-.21.63-.16.66-.18.18.15.71.69a31.37,31.37,0,0,1,2.36,2.73c.52.68.81,1,1,1s.11-.09.11-.24a19.62,19.62,0,0,0-.5-2.48,21,21,0,0,1-.82-5.28,10.5,10.5,0,0,1,.55-3.48.24.24,0,0,1,.18-.07c.19,0,.43.2.66.4a1.33,1.33,0,0,0,.68.41h0c.14-.21.71-.65,1.1-1.16a13.35,13.35,0,0,0,1.12-1.74,22.31,22.31,0,0,1,2.17-3.55c6.23-3.77,5.36-5.92,5.53-5.92l0,0h.07c.69,0,1.47,2.49,2.43,2.83H98c1.21,0,2.08-1.66,2.55-3.35,1.19-3.66,2.67-7.45,4.86-8.12-.63-.71-1.27-2-1.85-2.66a1.94,1.94,0,0,0-1.42-.59,5.25,5.25,0,0,0-1,.12,5.58,5.58,0,0,1-1,.12h-.25a6.09,6.09,0,0,1-1.71-1.71c-.31-.46-.6-.63-.88-.63-.57,0-1.11.69-1.67,1.15a1,1,0,0,1-.81.39,3.68,3.68,0,0,1-1.33-.41,3.48,3.48,0,0,0-1.35-.41,1,1,0,0,0-.35,0c-1.4.31-2.16,2.94-3.38,2.94a1.07,1.07,0,0,1-.66-.25.45.45,0,0,1,.21.33c0,.44-1.34.67-2.51.67-.88,0-1.67-.13-1.67-.4a.22.22,0,0,1,.1-.16A4.09,4.09,0,0,1,83.09,68c-.06-.45-.23-1.11-.23-1.44a.53.53,0,0,1,0-.13,7.55,7.55,0,0,0,.22-2c0-1.8-.36-3.92-.47-5.76a11.39,11.39,0,0,0-2-.4c-.26-.06-.54-.13-.82-.22a2.86,2.86,0,0,1-.41-.15c-.16,0-.37-.09-.55-.15a6.42,6.42,0,0,1-2-1c-.6-.54-1.22-1.11-1.85-1.62-.93,1.53-1.51,2.93-2.5,4.39a14.2,14.2,0,0,1-1.28,1.53,19.55,19.55,0,0,0-2.55,3A5.34,5.34,0,0,1,66,65.94c-.08.61-.16,1.2-.23,1.77s-.11.87-.16,1.32c0,.29-.06.57-.09.83s-.06.61-.09.93,0,.37,0,.54,0,.48,0,.73,0,.33,0,.48v.39c0,.28,0,.54,0,.78v0c0,.5,0,.88,0,1.2v.14a8,8,0,0,0,.18,1.16v0h0v0l0,.09v0l0,.08.06.19v0h0v0h0v-.07a.3.3,0,0,1,0-.08c0,.15,0,.32.06.52v.25A6.44,6.44,0,0,1,64.92,80a22.85,22.85,0,0,1-2.53,3.83A42.16,42.16,0,0,1,58.84,88a31.66,31.66,0,0,1-9.52,6.89,21.11,21.11,0,0,1-2.64,1c-.44.12-.88.24-1.31.33l-.66.12a1.63,1.63,0,0,1-.36,0,3.61,3.61,0,0,1-.52,0,13.12,13.12,0,0,1-3.67-1.19,19.52,19.52,0,0,1-2.78-1.61,22.11,22.11,0,0,1-3.25-2.74,22.85,22.85,0,0,1-3.11-4,22,22,0,0,1-1.24-2.28,22.65,22.65,0,0,1-1-2.34,24.41,24.41,0,0,1-1.37-8.08v-.16h0s0-1.44.07-4.8c0-.56,0-1.14,0-1.74,0-.81,0-1.63-.08-2.46,0-.18,0-.34,0-.52a2.13,2.13,0,0,0-.07-.49l-.25-.82c-.18-.57-.39-1.2-.63-1.9h0s0-.19,0-.53.1-.85.22-1.41A18.37,18.37,0,0,1,28,55.05a10.65,10.65,0,0,1,2.75-3.84,5.92,5.92,0,0,1,1.86-1A5.36,5.36,0,0,1,33.72,50H34a5,5,0,0,1,.85.07l1.84-.45,1.83-.36c.68-.16,1.36-.27,2-.38,2.76-.52,5.23-.91,5.46-2.17,0,0,.27.12.66.25l.66.21.67.24a3.31,3.31,0,0,0,.84.16.56.56,0,0,0,.42-.13c0-.07,0-.14,0-.2,0-.32-.06-.5-.06-.5h0a1.1,1.1,0,0,1,.16.49.33.33,0,0,1-.08.21c0,.24,0,.54.05.89a14.77,14.77,0,0,1,.47-1.42c.34-.8.72-1.36,1.34-1.44h.16a1.73,1.73,0,0,1,.66.15s.85-.43,2-.93a16.35,16.35,0,0,1,2-.72c.36-.09.74-.21,1.15-.33a5.47,5.47,0,0,1,.55-.13h-.09c-.45,0-.92,0-1.4-.05a36.92,36.92,0,0,1-9-2.61c-2.25-.94-5-2.28-7.26-3.42s-4-2.11-4.22-2.14"/><path class="c" d="M46.12,105.17c-.25.2-.5.39-.74.56h0c.24-.17.49-.36.74-.56m-29-43.45,0,.11h0l0-.11h0M18.84,50.2h0l-.47,1h0c-.22.53-.44,1.08-.63,1.62h0a18.82,18.82,0,0,0-.88,3.2,12.87,12.87,0,0,0-.23,2.29h0A12.87,12.87,0,0,1,16.86,56a18.82,18.82,0,0,1,.88-3.2c.19-.54.41-1.09.63-1.62l.47-1h0m7.63-8.79h0a3.15,3.15,0,0,0-.84.91h0a24.47,24.47,0,0,0-2.34,1.18h0a21.88,21.88,0,0,1,2.37-1.19,3.15,3.15,0,0,1,.84-.91h0m9.35-2.8h0a18.56,18.56,0,0,1-2.81.21h0a18.56,18.56,0,0,0,2.81-.21h0m1.73-1a.41.41,0,0,1,0,.19h0a.41.41,0,0,0,0-.19h0M36.41,36.1h0m0,0h0"/><path class="b" d="M36.58,36.3c.23.27.45.55.63.81a3.88,3.88,0,0,1,.26.46l0,.18h0v0a.41.41,0,0,0,0-.19c0-.5-.65-1-1-1.31"/><path class="b" d="M68.84,38.14a6.08,6.08,0,0,0-3.92,1.28A29.35,29.35,0,0,0,62.4,42a5.87,5.87,0,0,1-3.87,1.4,25,25,0,0,0,2.91.18h.48l.56-1.47A27.91,27.91,0,0,1,65,39.53a6.07,6.07,0,0,1,3.9-1.28h.28a29.09,29.09,0,0,1,13.31,4.21,3.13,3.13,0,0,1,1,.9,3.36,3.36,0,0,0-1.07-1,29.27,29.27,0,0,0-13.31-4.22h-.27"/><path class="b" d="M35.82,38.61h-.13c-.73.05-1.38,0-2.1.12l-.58.08a18.56,18.56,0,0,0,2.81-.21"/><path class="b" d="M26.47,41.41c-.36.17-.86.43-1.36.71a9.48,9.48,0,0,0-1.78,1.28l-.07.11a21.88,21.88,0,0,1,2.37-1.19,3.15,3.15,0,0,1,.84-.91"/><path class="b" d="M18.84,50.2c-.21.38-.41.76-.59,1.14a21,21,0,0,0-1,2.45,12.93,12.93,0,0,0-.56,2.53,10,10,0,0,0-.09,1.33c0,.28,0,.55,0,.83v-.15h0A12.87,12.87,0,0,1,16.86,56a18.82,18.82,0,0,1,.88-3.2c.19-.54.41-1.09.63-1.62l.47-1"/><path class="b" d="M17,61.48c0,.12,0,.23,0,.35l0-.11c0-.08-.05-.16-.07-.24"/><path class="b" d="M38.6,64.67A8,8,0,0,0,38,65.73,10.51,10.51,0,0,0,37.46,67a7,7,0,0,0-.21.73c-.1.35-.19.73-.27,1.17a17.73,17.73,0,0,0-.33,3.46v.15A22.16,22.16,0,0,1,37.29,69c.1-.33.19-.67.29-1l.21-.7.42-1.41c.14-.4.27-.8.39-1.18"/><path class="b" d="M66,65.94h0l0,.22,0,.14,0-.36"/><path class="b" d="M65.73,67.67l0,.19,0-.15v0"/><path class="b" d="M55.8,67.69l-.45,1c.08-.17.16-.35.23-.53l.22-.51"/><path class="b" d="M65.7,67.9v0"/><path class="b" d="M65.61,68.7l-.08.64v.07l0-.38c0-.1,0-.21,0-.33"/><path class="b" d="M65.5,69.63l-.08.89c0,.15,0,.3,0,.45v-.18q0-.44.09-.93l0-.23"/><path class="b" d="M54.85,69.86l-.38.86-.44.91.14-.29.31-.65.27-.59.1-.24"/><path class="b" d="M107.34,71a2.45,2.45,0,0,0-.43.15,4.22,4.22,0,0,1,.63.28,4.28,4.28,0,0,1-.2-.43"/><path class="b" d="M65.36,71.21c0,.34,0,.64-.06.92v-.07c0-.23,0-.47,0-.73v-.12"/><path class="b" d="M53,71.38a6.49,6.49,0,0,0,.36,1.6l0,0,0,0c.06-.09.11-.19.17-.3A12.36,12.36,0,0,1,53,71.38"/><path class="b" d="M54,71.7l-.36.69,0,.09a1.74,1.74,0,0,1,.1-.19l.3-.59"/><path class="b" d="M65.28,72.43c0,.23,0,.45,0,.65v-.15c0-.12,0-.25,0-.39v-.11"/><path class="b" d="M53.53,72.6a2.14,2.14,0,0,1-.17.3l0,.08h0c.07-.12.14-.24.21-.38h0"/><path class="b" d="M15.65,74.57A39.12,39.12,0,0,0,16,79.2,37.29,37.29,0,0,0,20.22,92a36.06,36.06,0,0,0,3.87,5.68c.39.47.78.91,1.17,1.34-.46-.55-1-1.19-1.59-2h0a39.6,39.6,0,0,1-4.15-6.68l0-.06a39,39,0,0,1-3-8.75,39.57,39.57,0,0,1-.83-7"/><path class="c" d="M23.67,97.05h0c.6.79,1.13,1.43,1.59,2h0c-.45-.53-1-1.14-1.53-1.9l-.06-.08h0m-8-22.48h0a39.57,39.57,0,0,0,.83,7,39,39,0,0,0,3,8.75l0,.06,0-.06a39,39,0,0,1-3-8.75h0a39.57,39.57,0,0,1-.83-7"/><path class="b" d="M65.29,75v0"/><path class="b" d="M65.3,75.17h0v0"/><path class="b" d="M65.33,75.47c0,.19,0,.35.07.48,0-.15-.05-.31-.07-.48"/><path class="b" d="M65.48,76.32v0a1,1,0,0,0,0,.13l0,0v0h0l0-.05"/><path class="b" d="M65.49,76.34a1.62,1.62,0,0,0,0,.19l0,0,0,0v0s0-.06,0-.12l0-.05h0v0a.5.5,0,0,1,0-.13"/><polyline class="b" points="65.53 76.5 65.54 76.5 65.53 76.5 65.53 76.5"/><path class="b" d="M56.36,77.77c-.08.1-.15.21-.23.32A46.87,46.87,0,0,1,52.19,83,33.43,33.43,0,0,0,56,78.64s.15-.32.39-.87"/><path class="d" d="M83.49,43.37a1.77,1.77,0,0,1,.37.87.31.31,0,0,1,0,.1c-.16.67-.94.9-1.87,1.1a6.36,6.36,0,0,0-2.69.9v.06c0,.2-.14.42-.14.65a.5.5,0,0,0,.14.36,1.66,1.66,0,0,1,.44,1h0c-.09.24-.19.48-.3.71l.1.08c.1-.23.2-.46.29-.7a1.67,1.67,0,0,0-.44-1,.56.56,0,0,1-.15-.37c0-.24.14-.46.14-.66v0h0a6.36,6.36,0,0,1,2.69-.9c.92-.2,1.71-.43,1.86-1.09a.37.37,0,0,0,0-.11,1.83,1.83,0,0,0-.44-1"/><path class="e" d="M68.9,38.25A6.07,6.07,0,0,0,65,39.53a27.91,27.91,0,0,0-2.52,2.59l-.56,1.47h.29c2-.1,4-.53,4.13-1.93,0,0,.66-.27,1.64-.57a17.75,17.75,0,0,1,3.56-.77,10.65,10.65,0,0,1,1.12-.06c1.93,0,3.49.56,3.49,1.84a1.71,1.71,0,0,1,0,.31s.14.62.31,1.4A12.51,12.51,0,0,1,76.77,46v0l-.7.94-.16.23c.49.16,1,.32,1.48.5.7.45,1.4.95,2,1.44.11-.23.21-.47.3-.71a1.66,1.66,0,0,0-.44-1,.5.5,0,0,1-.14-.36c0-.23.14-.45.14-.65v-.06h0a6.36,6.36,0,0,1,2.69-.9c.93-.2,1.71-.43,1.87-1.1a.31.31,0,0,0,0-.1,1.77,1.77,0,0,0-.37-.87,3.13,3.13,0,0,0-1-.9,29.09,29.09,0,0,0-13.31-4.21H68.9"/><path class="e" d="M71.31,53.42l-.43.51c-.12.49-.13,1.14-.42,1.33s-2,2-3.58,4.5l-.1.61c0,.3-.09.6-.14.9-.19,1.27-.37,2.52-.55,3.72l0,.29,0,.37,0,.29A5.34,5.34,0,0,0,68.61,64a19.55,19.55,0,0,1,2.55-3,14.2,14.2,0,0,0,1.28-1.53c1-1.46,1.57-2.86,2.5-4.39a6.16,6.16,0,0,0-3.63-1.71"/><path class="e" d="M66.87,59.77c-.36.57-.71,1.16-1.05,1.78L66.17,63a3.61,3.61,0,0,1,.08.64,4.38,4.38,0,0,1,0,.5v0c.15-1,.3-1.92.44-2.88l.11-.7,0-.2.09-.6"/><path class="e" d="M57.19,62.73a14.65,14.65,0,0,0-2.32,2.44A10,10,0,0,0,53.1,69a8.37,8.37,0,0,0-.18,1.67,6,6,0,0,0,0,.74,12.36,12.36,0,0,0,.57,1.22h0c-.06.11-.11.21-.17.3a2.14,2.14,0,0,0,.17-.3h0c.06-.09.11-.2.17-.31a1.74,1.74,0,0,0-.1.19h0l0-.09L54,71.7l0-.06h0l.44-.91.38-.86.5-1.13.45-1-.22.51,0-.09c.33-.76.65-1.53,1-2.3a3.36,3.36,0,0,1,.22-.42c.35-.49.71-1,1.06-1.52l-.69-1.14"/><path class="e" d="M66,65.59l-.05.35h0l0-.29v-.06"/><path class="e" d="M54.75,70.1l-.27.59-.31.65.16-.33.34-.73.08-.18"/><path class="e" d="M53.36,72.9l0,0,0,0h0l0-.08"/><path class="f" d="M72.66,40.25a10.65,10.65,0,0,0-1.12.06,17.75,17.75,0,0,0-3.56.77c-1,.3-1.64.57-1.64.57-.16,1.4-2.15,1.83-4.13,1.93h-.77a25,25,0,0,1-2.91-.18l-.24,0-.63.06a5.47,5.47,0,0,0-.55.13c-.41.12-.79.24-1.15.33a16.35,16.35,0,0,0-2,.72c-1.18.5-2,.93-2,.93a1.73,1.73,0,0,0-.66-.15h-.16c-.62.08-1,.64-1.34,1.44a14.77,14.77,0,0,0-.47,1.42,1.93,1.93,0,0,1,0,.24v.14a9.91,9.91,0,0,1-.42,2.1,25.1,25.1,0,0,1-1,2.88,33.46,33.46,0,0,1-3.23,6c-1.2,1.7-2.49,3-3.9,3h-.08a3.79,3.79,0,0,0-.43.27,5.36,5.36,0,0,0-1,1c-.2.23-.4.48-.61.77s-.25.78-.39,1.18l-.42,1.41-.21.7c-.1.34-.19.68-.29,1a22.16,22.16,0,0,0-.64,3.58,16.5,16.5,0,0,0,1,5.56,14.07,14.07,0,0,0,1.81,3.44,12.39,12.39,0,0,0,2.73,2.77A8.28,8.28,0,0,0,47,86.07h0a4,4,0,0,0,1.49-.26,6.21,6.21,0,0,0,1-.63,21.25,21.25,0,0,0,2.07-1.63l.62-.58a46.87,46.87,0,0,0,3.94-4.88c.08-.11.15-.22.23-.32.14-.34.32-.76.51-1.26a49.71,49.71,0,0,0,1.66-5,40.28,40.28,0,0,0,1-4.85l-1.67-2.75c-.35.53-.71,1-1.06,1.52a3.36,3.36,0,0,0-.22.42c-.33.77-.65,1.54-1,2.3l-.27.62-.5,1.13-.1.24-.08.18-.34.73-.3.62h0l0,.06-.3.59c-.14.26-.26.49-.38.69h0a6.49,6.49,0,0,1-.36-1.6,6,6,0,0,1,0-.74A8.37,8.37,0,0,1,53.1,69a10,10,0,0,1,1.77-3.8,14.65,14.65,0,0,1,2.32-2.44L50.24,51.24l-.4.11-.6.17-.31.09-.07,0,.17-.08.39-.2.39-.19.2-.09.1,0,.13.22L51,51a18.26,18.26,0,0,1,4.18-.56l.55,0a10.08,10.08,0,0,1,4.69,1.32,4.85,4.85,0,0,0,1.55.34,3,3,0,0,0,.58-.07c.08-.29.58-.93.67-1.21.28-.13.57-.25.85-.36a4.75,4.75,0,0,1,.78-2,5.14,5.14,0,0,1,1.79-1.64c.73-1.5,1.46-3.19,2-4.38.31-.59.5-.3.76-.6a.1.1,0,0,1,.08,0c.1,0,.17.19.22.46l0,.13h0c-.21,1.21-.42,2.4-.62,3.6A10.8,10.8,0,0,1,70.71,46h.61a41.58,41.58,0,0,1,4.59,1.24l.16-.23.7-.94v0a12.51,12.51,0,0,0-.34-2.19c-.17-.78-.31-1.4-.31-1.4h0a1.71,1.71,0,0,0,0-.31c0-1.28-1.56-1.84-3.49-1.84"/><path class="f" d="M71.28,53.42h-.12a.84.84,0,0,0-.28.51l.43-.51h0"/><path class="g" d="M46,46.66c-.23,1.26-2.7,1.65-5.46,2.17-.67.11-1.35.22-2,.38l-1.83.36L34.85,50A5,5,0,0,0,34,50h-.28a5.36,5.36,0,0,0-1.07.23,5.92,5.92,0,0,0-1.86,1A10.65,10.65,0,0,0,28,55.05a18.37,18.37,0,0,0-1.31,4.17c-.12.56-.18,1.07-.22,1.41s0,.53,0,.53c.24.7.45,1.33.63,1.9l.25.82a2.13,2.13,0,0,1,.07.49c0,.18,0,.34,0,.52.06.83.08,1.65.08,2.46,0,.6,0,1.18,0,1.74-.05,3.36-.07,4.79-.07,4.8h0v.16a24.41,24.41,0,0,0,1.37,8.08,22.65,22.65,0,0,0,1,2.34A22,22,0,0,0,31,86.75a22.85,22.85,0,0,0,3.11,4,22.11,22.11,0,0,0,3.25,2.74,19.52,19.52,0,0,0,2.78,1.61,13.12,13.12,0,0,0,3.67,1.19,3.61,3.61,0,0,0,.52,0,1.63,1.63,0,0,0,.36,0l.66-.12c.43-.09.87-.21,1.31-.33a21.11,21.11,0,0,0,2.64-1A31.66,31.66,0,0,0,58.84,88a42.16,42.16,0,0,0,3.55-4.17A22.85,22.85,0,0,0,64.92,80a6.44,6.44,0,0,0,.67-2.68v-.25c0-.2,0-.37-.06-.52l0-.06,0-.1-.1-.17h0l-2-3.26-1.53-2.54a2.06,2.06,0,0,1-.32-.07c-.06,0-.07,0-.07-.06s0-.05,0-.08l0-.2v-.13l-2-3.23a40.28,40.28,0,0,1-1,4.85,49.71,49.71,0,0,1-1.66,5c-.19.5-.37.92-.51,1.26-.24.55-.39.87-.39.87A33.43,33.43,0,0,1,52.19,83l-.62.58a21.25,21.25,0,0,1-2.07,1.63,6.21,6.21,0,0,1-1,.63,4,4,0,0,1-1.49.26h0a8.28,8.28,0,0,1-4.8-1.75,12.39,12.39,0,0,1-2.73-2.77,14.07,14.07,0,0,1-1.81-3.44,16.5,16.5,0,0,1-1-5.56V72.4h0A17.73,17.73,0,0,1,37,68.94c.08-.44.17-.82.27-1.17a7,7,0,0,1,.21-.73A10.51,10.51,0,0,1,38,65.73a8,8,0,0,1,.62-1.06c.21-.29.41-.54.61-.77a5.36,5.36,0,0,1,1-1,3.79,3.79,0,0,1,.43-.27h.08c1.41,0,2.7-1.33,3.9-3a33.46,33.46,0,0,0,3.23-6,25.1,25.1,0,0,0,1-2.88,9.91,9.91,0,0,0,.42-2.1v-.14a1.93,1.93,0,0,0,0-.24c0-.35,0-.65-.05-.89a.56.56,0,0,1-.42.13,3.31,3.31,0,0,1-.84-.16l-.67-.24-.66-.21c-.39-.13-.66-.25-.66-.25"/><path class="g" d="M49.18,46.69s0,.18.06.5c0,.06,0,.13,0,.2a.33.33,0,0,0,.08-.21,1.1,1.1,0,0,0-.16-.49"/><path class="g" d="M65.82,61.55c-.15.28-.3.56-.44.84a32.27,32.27,0,0,0-2.17,5.41c-.49,1.56-.91,2.59-1.29,2.61l-.09,0,1.53,2.54,2,3.27h0l0,0,.07.14h0v0a.59.59,0,0,1,0,.08l0,.06a1.62,1.62,0,0,1,0-.19h0v0c0-.09,0-.22-.08-.37s-.05-.29-.07-.48l0-.28v0h0c0-.08,0-.15,0-.21,0-.32,0-.68,0-1.1h0v-.11c0-.17,0-.35,0-.56v-.11c0-.2,0-.42,0-.65v-.3c0-.28,0-.58.06-.92V71c0-.15,0-.3,0-.45l.08-.89,0-.18v-.11l.08-.64c0-.22,0-.45.08-.69V67.9h0v0l0-.19.06-.54.12-.83,0-.14c0-.19,0-.38.08-.57l0-.37,0-.2c0-.26.07-.51.11-.76v-.14a4.38,4.38,0,0,0,0-.5,3.61,3.61,0,0,0-.08-.64l-.35-1.43"/><path class="g" d="M66.09,65v0l0,.26,0-.29"/><path class="g" d="M65.24,73.71v.15c0,.44,0,.76,0,1h0v0c0-.32,0-.7,0-1.2v0"/><path class="g" d="M65.28,74.89v0h0"/><path class="g" d="M65.48,76.32h0m0-.07v.09h0v-.09"/><path class="g" d="M65.47,76.26v0"/><path class="g" d="M65.48,76.28v0l0,.05,0-.09"/><path class="g" d="M65.5,76.37h0v0"/><path class="g" d="M65.53,76.47v0h0m0,0,0,0h0v0h0l0-.08"/><path class="g" d="M65.54,76.5h0a.86.86,0,0,0,0,.15v0h0l-.06-.19"/><path class="g" d="M65.55,76.54c0,.06,0,.1,0,.12h0v0a.43.43,0,0,1,0-.11"/><path class="g" d="M65.59,76.66v0h0"/><path class="g" d="M65.59,76.67h0"/><path class="g" d="M65.59,76.68h0"/><path class="h" d="M69.52,41.87a.1.1,0,0,0-.08,0c-.26.3-.45,0-.76.6-.54,1.19-1.27,2.88-2,4.38a7,7,0,0,1,2.47-.83c.2-1.2.41-2.39.62-3.6l0-.13c0-.27-.12-.46-.22-.46"/><path class="h" d="M84,69.61h0m0,0h0M70.75,49.47c-2.41,0-4.31,1.45-6.6,1.69h0s-.06-.11-.06-.29,0-.21,0-.35c-.28.11-.57.23-.85.36-.09.28-.59.92-.67,1.21a3,3,0,0,1-.58.07,4.85,4.85,0,0,1-1.55-.34,10.08,10.08,0,0,0-4.69-1.32l-.55,0A18.26,18.26,0,0,0,51,51l-.8.2L61.5,69.85V70l0,.2s0,.06,0,.08,0,.06.07.06a2.06,2.06,0,0,0,.32.07l1.53,2.54-1.53-2.54h0l.09,0c.38,0,.8-1,1.29-2.61a32.27,32.27,0,0,1,2.17-5.41c.46-.91,1-1.8,1.49-2.62h0l-.09.6.1-.61c1.57-2.5,3.18-4.37,3.58-4.5s.3-.84.42-1.33a.84.84,0,0,1,.28-.51h.12c2,0,3.77,1.78,5.51,3.33a6.42,6.42,0,0,0,2,1c.18.06.39.1.55.15a2.86,2.86,0,0,0,.41.15c.28.09.56.16.82.22a11.39,11.39,0,0,1,2,.4c.11,1.84.47,4,.47,5.76a7.55,7.55,0,0,1-.22,2,.53.53,0,0,0,0,.13c0,.33.17,1,.23,1.44a4.09,4.09,0,0,0,.82,1.67h0a.22.22,0,0,0-.1.16c0,.27.79.4,1.67.4,1.17,0,2.51-.23,2.51-.67a.45.45,0,0,0-.21-.33h0a1.07,1.07,0,0,0,.66.25c1.22,0,2-2.63,3.38-2.94a1,1,0,0,1,.35,0,3.48,3.48,0,0,1,1.35.41,3.68,3.68,0,0,0,1.33.41,1,1,0,0,0,.81-.39c.56-.46,1.1-1.15,1.67-1.15.28,0,.57.17.88.63a6.09,6.09,0,0,0,1.71,1.71h.25a5.58,5.58,0,0,0,1-.12,5.25,5.25,0,0,1,1-.12,1.94,1.94,0,0,1,1.42.59c.83.94,1.77,3.16,2.64,3.16a.65.65,0,0,0,.5-.28c.35-.48,1.13-.14,1.13-.91-.36-.3-.74-1-1.22-1.41-.9-1-1.8-.87-2.66-2a35.86,35.86,0,0,0-2.66-3,3.74,3.74,0,0,0-1.71-.69,11.94,11.94,0,0,0-3.83-.69,8.49,8.49,0,0,0-2.19.28c-.19.95-.61,1.19-1.1,1.19a3.1,3.1,0,0,1-.78-.13,3.19,3.19,0,0,0-.76-.13h-.1c-.28,0-.61-.41-1-.62h-.11a2.41,2.41,0,0,0-.67.13,2.17,2.17,0,0,1-.64.14c-.31,0-.62-.15-1-.67a50.59,50.59,0,0,0-5.06-7.54,29.48,29.48,0,0,0-4.14-3.52,31.37,31.37,0,0,0-6.33-2.19,6,6,0,0,0-1.17-.11"/><path class="h" d="M50.11,51l-.1,0-.2.09-.39.19-.39.2-.17.08.07,0,.31-.09.6-.17.4-.11L50.11,51"/><path class="h" d="M66.78,60.37l0,.2-.11.7c0-.3.09-.6.14-.9"/><path class="h" d="M66.64,61.27c-.14,1-.29,1.92-.44,2.88v.11c0,.25-.07.5-.11.76v0c.18-1.2.36-2.45.55-3.72"/><path class="h" d="M66.08,65l0,.2,0,.37v.06l.08-.63"/><path class="h" d="M66,65.65l0,.29,0,.36-.12.83-.06.54v0c.08-.66.17-1.35.27-2.06"/><path class="h" d="M65.73,67.71l0,.15v0h0V68c0,.24-.06.47-.08.69s0,.23,0,.33c.05-.45.1-.89.16-1.32"/><path class="h" d="M65.57,69l0,.38v0l0,.18,0,.23c0-.26.06-.54.09-.83"/><path class="h" d="M65.48,69.86q0,.49-.09.93,0-.48.09-.93"/><path class="h" d="M65.39,70.79v.54c0-.17,0-.35,0-.54"/><path class="h" d="M65.35,71.33c0,.26,0,.5,0,.73,0-.25,0-.5,0-.73"/><path class="h" d="M65.3,72.06v.48q0-.23,0-.48"/><path class="h" d="M65.27,72.54c0,.14,0,.27,0,.39v-.39"/><path class="h" d="M63.36,72.93l2,3.26h0l-2-3.27"/><path class="h" d="M65.26,72.93v.26c0,.21,0,.39,0,.56v0c0-.24,0-.5,0-.78"/><path class="h" d="M65.24,73.86h0c0,.42,0,.78,0,1.1v-.07h0c0-.25,0-.57,0-1m0,0h0"/><path class="h" d="M65.28,74.9v.18h0a.49.49,0,0,0,0-.12c0,.06,0,.13,0,.21v0l0,.28c0,.17,0,.33.07.48s.06.28.08.37v-.07a8,8,0,0,1-.18-1.16V74.9"/><polyline class="h" points="65.34 76.2 65.44 76.37 65.43 76.36 65.36 76.22 65.34 76.2"/><path class="h" d="M65.49,76.34h0a.5.5,0,0,0,0,.13h0a1,1,0,0,1,0-.13"/><path class="h" d="M65.44,76.37l0,.1a.59.59,0,0,0,0-.08v0"/><path class="h" d="M65.49,76.47l0,.06a.3.3,0,0,0,0,.08l0,0-.06-.1"/><path class="h" d="M65.53,76.48h0l0,.05a.43.43,0,0,0,0,.11.86.86,0,0,1,0-.15h0v0"/><path class="h" d="M65.57,76.61v0"/><path class="h" d="M65.59,76.67h0m0,0v0h0v0"/><path class="h" d="M65.59,76.65v0h0v0"/><polyline class="h" points="65.59 76.67 65.59 76.67 65.6 76.68 65.59 76.67"/><path class="h" d="M65.6,76.68h0m0,0h0m0,0v0h0v0h0v0h0v0h0"/><path class="a" d="M36.41,36.11h0a.68.68,0,0,0,.16.18h0a.73.73,0,0,1-.17-.19h0"/><path class="i" d="M36.42,36.12a.68.68,0,0,0,.16.18c.32.29,1,.81,1,1.31h0c0-.5-.65-1-1-1.31a.68.68,0,0,1-.16-.18m0,0h0"/><path class="a" d="M23.26,43.51l-.09.05-.36.42c-.23.28-.52.62-.94,1.2s-.86,1.22-1.33,2l-.36.57h0l.36-.57c.47-.74.93-1.41,1.33-2s.71-.92.94-1.2l.36-.42h0l.09-.05h0M33,38.82h-.68s-.32.05-.84.19-1.29.42-2,.71A20.68,20.68,0,0,0,27.09,41l-.62.45h0l.62-.45,0,0a20,20,0,0,1,2.31-1.21h0c.75-.29,1.47-.53,2-.7h0c.52-.14.84-.19.84-.19H33m4.5-1c-.12.33-.59.62-1.69.81h0c1.1-.19,1.57-.48,1.69-.81h0"/><path class="j" d="M26.47,41.41h0a3.15,3.15,0,0,0-.84.91,21.88,21.88,0,0,0-2.37,1.19h0a24.47,24.47,0,0,1,2.34-1.18h0a3.15,3.15,0,0,1,.84-.91m9.35-2.8h0a18.56,18.56,0,0,1-2.81.21h0a18.56,18.56,0,0,0,2.81-.21m1.73-1a.41.41,0,0,1,0,.19h0a.41.41,0,0,0,0-.19h0"/><path class="i" d="M25.6,42.33a24.47,24.47,0,0,0-2.34,1.18l-.09.05.09-.05a24.47,24.47,0,0,1,2.34-1.18m3.84-2.6a20,20,0,0,0-2.31,1.21,20,20,0,0,1,2.31-1.21m2-.71c-.54.17-1.26.41-2,.7.75-.29,1.47-.53,2-.7m6.06-1.41h0"/><path class="i" d="M20.18,47.71l-.37.66.37-.66"/><path class="i" d="M18.37,51.22c-.22.53-.44,1.08-.63,1.62.19-.54.41-1.09.63-1.62m.69-1.46c-.07.15-.14.3-.22.44l-.47,1,.47-1c.08-.14.15-.29.22-.44m.75-1.39c-.26.45-.51.91-.75,1.39.24-.48.49-.94.75-1.39"/><path class="i" d="M16.63,58.33v.15c0,.17,0,.33,0,.5,0-.17,0-.33,0-.5v-.15m0,0h0"/><path class="i" d="M16.53,64.39a46.52,46.52,0,0,0-.9,9.16,46.52,46.52,0,0,1,.9-9.16m.57-2.67h0"/><path class="a" d="M15.63,73.55h0V74c0,.2,0,.4,0,.6h0c0-.32,0-.63,0-.93v-.09"/><path class="i" d="M15.63,74c0,.2,0,.4,0,.6a39.57,39.57,0,0,0,.83,7,39.57,39.57,0,0,1-.83-7c0-.2,0-.4,0-.6m0-.42h0"/><path class="i" d="M19.52,90.37a39.6,39.6,0,0,0,4.15,6.68,39.6,39.6,0,0,1-4.15-6.68"/><path class="a" d="M25.26,99l.12.15h0l1.16,1.37.29.29c.19.19.51.5.86.82s.83.73,1.38,1.17,1.14.9,1.77,1.33h0a26,26,0,0,0,7.63,3.77l.16,0a5.21,5.21,0,0,0,1.17.18h0a5.21,5.21,0,0,1-1.17-.18,24.85,24.85,0,0,1-7.79-3.8c-.63-.43-1.28-.93-1.77-1.33s-1-.85-1.38-1.17-.67-.63-.86-.82l-.29-.29-1.16-1.37L25.26,99h0"/><path class="j" d="M23.67,97.05h0l.06.08c.58.76,1.08,1.37,1.53,1.9h0c-.46-.55-1-1.18-1.59-2h0"/><path class="i" d="M30.84,104.16a25.75,25.75,0,0,0,7.63,3.77,26,26,0,0,1-7.63-3.77m-7.11-7c.58.76,1.08,1.37,1.53,1.9l.12.15L25.26,99c-.45-.53-1-1.14-1.53-1.9"/><path class="i" d="M40.51,108l-.7.12.7-.12"/><path class="k" d="M70.71,46a10.8,10.8,0,0,0-1.56.11,7,7,0,0,0-2.47.83,5.14,5.14,0,0,0-1.79,1.64,4.75,4.75,0,0,0-.78,2c0,.14,0,.25,0,.35s0,.29.06.29h0c2.29-.24,4.19-1.69,6.6-1.69a6,6,0,0,1,1.17.11,31.37,31.37,0,0,1,6.33,2.19,29.48,29.48,0,0,1,4.14,3.52,50.59,50.59,0,0,1,5.06,7.54c.33.52.64.67,1,.67a2.17,2.17,0,0,0,.64-.14,2.41,2.41,0,0,1,.67-.13h.11c.38.21.71.59,1,.62h.1a3.19,3.19,0,0,1,.76.13,3.1,3.1,0,0,0,.78.13c.49,0,.91-.24,1.1-1.19a8.49,8.49,0,0,1,2.19-.28,11.94,11.94,0,0,1,3.83.69,3.74,3.74,0,0,1,1.71.69,35.86,35.86,0,0,1,2.66,3c.86,1.11,1.76,1,2.66,2,.48.39.86,1.11,1.22,1.41h0c.18-.22.61-.07.61-.39a1,1,0,0,0,0-.16,5.69,5.69,0,0,0-.82-1.8c-1.38-1.85-2.67-4-4-5.54-3.14-3.4-6.28-5.78-9.26-6.07h0c-.54,0-.82,1-1.23,1.43-.94,1.27-2.65.08-3.45,2.4,0,.18-.15.26-.28.26A.52.52,0,0,1,89,60.4c-2.57-3.34-5-6.32-7.48-9.31a19.12,19.12,0,0,0-4.13-3.39A45.61,45.61,0,0,0,71.32,46h-.61"/><path d="M45,87.74c-5-1.3-8.61-4.35-11.65-8-2.41-2.91-4.61-6-6.75-9.14a23.46,23.46,0,0,1-2.35-4.7,52.62,52.62,0,0,1-3-9,9.23,9.23,0,0,0-2.72-4.91,4.89,4.89,0,0,1-.68-1.43c1.83-.34,3,.59,4.25,1.11a76.23,76.23,0,0,1,9.75,4.94,93.5,93.5,0,0,0,10.88,5.88C46,63.92,49.58,64.91,53,66.09a4.49,4.49,0,0,0,1.37,0c1-7,3.55-13.31,6.42-19.61,2.12-4.64,5.3-8.46,8.7-12.16q4.33-4.73,8.57-9.53a16.39,16.39,0,0,0,1.53-2.15c.84-1.33,1.57-1.36,2.24.1.75,1.65,1.32,3.39,2,5.1.2.54.35,1.11.64,2.05,1.44-2.41,2.63-4.5,3.91-6.52a20.71,20.71,0,0,1,2.23-2.88C92,19,93.53,17.53,95,16s3.14-3.17,4.74-4.72a2.74,2.74,0,0,1,1.06-.58c.63-.19,1.08,0,1.11.76A2.77,2.77,0,0,1,101,14a14.92,14.92,0,0,0-4.64,7A47.16,47.16,0,0,1,91.71,31.6a31.05,31.05,0,0,0-2.25,4.77A10,10,0,0,0,89.27,38c-.31,1.32-.46,2.78-2.39,2.89,1.28,6.93.21,13.6-1.53,20.42,1.54-.23,2.57-1.11,3.73-1.65.36-.16.61-.58,1-.71,3.51-1.25,5.09-4.21,6.16-7.38,1.16-3.44,1.84-7.05,2.84-10.55,1.52-5.27,2.65-10.66,5.1-15.61,1.16-2.37,2.31-4.75,3.6-7a5.8,5.8,0,0,1,2-2,24.6,24.6,0,0,1,4-2c.34-.13.91.3,1.37.47-.22.38-.37,1-.68,1.1-1.58.47-1.91,1.81-2.33,3.09-.93,2.82-1.69,5.71-2.8,8.46s-2.63,5-3.69,7.66a60.34,60.34,0,0,0-2.63,8.07c-.9,3.6-1.52,7.27-2.32,10.9-.24,1.1-.66,2.16-1,3.25,6.14-1.11,12.17-.37,18.18.42,2.26.3,4.45,1.16,6.7,1.63,2.83.59,5.7,1,8.77,1.6a1.28,1.28,0,0,1-.64,1.62,27.83,27.83,0,0,0-6.43,6.15c-2.31,2.89-5.35,4.67-8.49,6.46-5.56,3.19-11.64,4.83-17.78,6.11C95,82.38,90,82.62,85,83.21c-.63.07-1.26.19-2.23.35a39.82,39.82,0,0,1,8.72,6.79,8.7,8.7,0,0,1,1.93,3c.83,2.49,1.41,5.06,2.08,7.6a9.93,9.93,0,0,0,.33,1.38,28.58,28.58,0,0,1,1.93,12.74c-.12,3-.25,6.09-.36,9.13,0,1,0,1.9,0,2.84,0,.4-.32,1-.61,1.09a1.47,1.47,0,0,1-1.14-.57c-.43-.5-.6-1.24-1.07-1.71a23.59,23.59,0,0,0-2.9-2.48c-4.29-3.07-8.9-5.71-12.74-9.39-1.27-1.22-2.54-2.44-3.71-3.76-2.15-2.42-4.2-5-6.35-7.38a9.81,9.81,0,0,1-2.27-4.69c-.1-.5-.3-1-.55-1.79-3.52,4.15-6.75,8.12-10.15,11.94-3.87,4.34-7.06,9.24-11.3,13.27-1.61,1.54-3.18,3.13-4.8,4.66a7.38,7.38,0,0,1-10.26-.06A5.77,5.77,0,0,1,28,124.59c-1.24-2.79-.7-4.71,2.74-5.88a10.42,10.42,0,0,1,2.29-.25v2.67c.85-.54,1.47-.9,2-1.31A24.25,24.25,0,0,0,41.36,113c2.78-4.17,5.43-8.43,8.33-12.51,2-2.8,4.31-5.35,6.45-8,1.08-1.36,2.09-2.77,3.25-4.31-2.42.22-4.54.38-6.65.62a1.42,1.42,0,0,0-.93.64c-3,5.28-7.11,9.67-11.09,14.18a46.71,46.71,0,0,0-4.6,6.4,6.65,6.65,0,0,1-7.1,3.33c-1.3-.26-1.79-1.11-1.94-3.28.11-.12.2-.3.28-.3,2.81.1,4.17-2,5.63-3.82a100.16,100.16,0,0,0,10-15.3A29.32,29.32,0,0,1,45,87.74Zm55.34-45.95,1.83-.13-1-1.82h-.38l-.42,2c-.73,1-.65,2.1-.72,3.37h1.55C100.87,44,100.59,42.87,100.31,41.79ZM57.79,104.42l3.83-4.89c-1-2.73-1.16-5.73-2.7-8.87-.31.86-.63,1.28-.55,1.63.34,1.56.82,3.08,1.18,4.64A20.24,20.24,0,0,1,60,99.72a2.91,2.91,0,0,1-.25,1h-.38c-.64-2.37-1.28-4.74-2-7.34l-1.67,1.28c.72,3.38,1.41,6.6,2.09,9.82a3.43,3.43,0,0,1-1.5-2.5c-.42-1.81-1-3.6-1.55-5.79-.64.81-1,1.26-1.3,1.67,1.11,2.07,1.69,6.26.95,7.84-.59-2.3-1.12-4.38-1.72-6.71-.79.84-1.33,1.41-1.79,1.88l2,8.88C54.62,107.85,56.21,106.14,57.79,104.42Zm23-80.64c-.92,1-1.6,1.82-2.3,2.6Q74.12,31.2,69.77,36c-2.48,2.77-5,5.54-6.64,8.92-1.27,2.61-2.49,5.25-3.56,7.94-1.17,2.94-2.26,5.93-3.13,9a12.75,12.75,0,0,0-.41,4.8c.35,3.15,1.06,6.2,3.13,8.82a18.85,18.85,0,0,0,3.67,4,47.92,47.92,0,0,0,2.78-4c.83-1.52,1.41-3.18,2.11-4.77.11-.24.24-.47.37-.71a37.47,37.47,0,0,0,1.75-3.39c.89-2.26,1.65-4.57,2.49-6.85a3.14,3.14,0,0,1,3.59-2.28,9.19,9.19,0,0,1,4.87,1.84c.84.61,1.7,1.19,2.71,1.9.28-1,.44-1.75.67-2.44a37.62,37.62,0,0,0,.73-20.82q-1.23-5.24-2.63-10.43A33.66,33.66,0,0,0,80.77,23.78Zm15,100.83a10,10,0,0,0,.3-1.54c.12-4.2.26-8.4.27-12.61a14.81,14.81,0,0,0-.61-4c-1.11-4-2.38-8-3.49-12.07a8,8,0,0,0-2.17-3.59,29.48,29.48,0,0,0-8-5.83c-1.6-.77-2.91-1.81-4.91-1.84a17.31,17.31,0,0,0-7.25,1.08c-2.1.89-4.2,1.91-6.6,1.67-.09,0-.2.14-.33.24a1,1,0,0,0,.71,1.41c1.29.13,1.42,1.11,1.74,2,.47,1.25.85,2.52,1.3,3.87l1.68-1.19.26.25-1.54,2.41c.39,2.15.7,4.46,2.1,6.38a44.07,44.07,0,0,0,3.27,3.85c2.71,2.92,5.38,5.91,8.24,8.69,3.61,3.5,8,6,12.12,8.83ZM81.68,82a10.07,10.07,0,0,1,2.16-.36c5.27.42,10.4-.66,15.53-1.49,3.18-.51,6.23-1.83,9.39-2.54,4.55-1,8.32-3.54,12.22-5.84a14.12,14.12,0,0,0,4.64-4.49,7.73,7.73,0,0,1,1.08-1.21c1.29-1.26,2.59-2.5,4-3.91-.51-.14-.8-.25-1.11-.32-2.52-.52-5-1-7.55-1.57A49.56,49.56,0,0,0,116,58.76c-4.11-.39-8.25-.47-12.38-.61a10.76,10.76,0,0,0-2.82.32c-5.4,1.32-10.79,2.69-16.47,4.12.78.74,1.3,1.26,1.84,1.75a58.34,58.34,0,0,1,4.36,3.93c1.84,2,1.72,5.23-.26,6.72s-3.6,3.28-6.12,3.86A3.18,3.18,0,0,0,81.68,82ZM54.83,68c-3.16-1.08-6.16-2.07-9.14-3.14-6.15-2.21-11.63-5.7-17.21-9-1.85-1.09-3.8-2-5.72-2.95-.53-.26-1.12-.49-1.44-.09C21.9,55,22.46,57,23,59a30.58,30.58,0,0,0,3.74,9.54c1.12,1.72,1.81,3.66,3.3,5.26,2.15,2.32,3.63,5.28,6.12,7.33a29,29,0,0,0,6,4.12c6.25,2.91,12.72,2.57,19.19.66a5.69,5.69,0,0,0,1-.58,3.76,3.76,0,0,1-.94-3.84c.23-.92-.25-1.37-.87-1.85a4.57,4.57,0,0,1-1-1.11c-.63-1-1.08-2-1.78-2.93a12,12,0,0,1-2.28-5.14C55.15,69.57,55,68.72,54.83,68ZM80.05,81.54a5,5,0,0,1,4-4.24c2.42-.6,3.8-2.5,5.58-3.91a2,2,0,0,0,.48-1.28,4,4,0,0,0-1.5-3.78,44.13,44.13,0,0,1-7-6.67,8.7,8.7,0,0,0-4.88-2.74,2.56,2.56,0,0,0-3.21,1.77,51.33,51.33,0,0,1-3.81,9.54,6.25,6.25,0,0,0-1,3.18c.17,2.74,3.66,6,6.49,6.36a1.89,1.89,0,0,1,1.24.55C77.32,81.68,78.61,81.46,80.05,81.54ZM31.34,120.19c-2,.43-2.94,1.73-2.11,3.28.92,1.73,2.21,3.18,4.43,3.41a7.07,7.07,0,0,0,5.85-2.24c1.6-1.55,3.3-3,4.78-4.69,2.53-2.81,4.94-5.73,7.36-8.63a1.69,1.69,0,0,0,.42-1.25c-.57-2.47-1.24-4.93-2-7.86-.6.73-1,1.11-1.26,1.54-.89,1.35-1.75,2.72-2.64,4.07q-2.84,4.32-5.71,8.61c-1.41,2.09-3.49,3.53-5.45,5a4.52,4.52,0,0,1-3.88,1.1ZM40,98c-3.5,4.85-6,10.1-11.05,13.28A4.38,4.38,0,0,0,34.45,110c2.29-3.08,4.54-6.2,6.79-9.28a4.11,4.11,0,0,1-.78-.91A10.76,10.76,0,0,1,40,98Zm28.46-21.2L66.93,80l-1.52-1.65c0,1.26.72,2.17.18,3.3l-1-1c0,.66.21,1.39-.05,1.88s-.79,1-.55,1.93c3.66-.43,6.61-3,10.34-3.3C71.72,80.69,70.09,79.05,68.48,76.81ZM110.85,17.4c-2.58,1.29-2.8,3.8-3.6,5.68l1.37,3A56.69,56.69,0,0,0,110.85,17.4ZM93.34,25.53l-1.46-3.82c-1.29.68-1.93,1.32-1.76,2,.4,1.66.93,3.27,1.55,5.38ZM45,96.56c3.4-3,3.75-5.48,1.13-7.69-.18,1.81,1.19,3.58,0,5.45-.82-1.17-.32-2.68-1.39-3.54-.2.13-.31.17-.3.2C44.65,92.77,44.81,94.55,45,96.56Zm42.61-60c1.77-2.45,1.47-5.33-.77-7.86C86,31.47,87.07,33.83,87.61,36.51Zm6.1-12.87.37,0c.38-1.24.65-2.53,1.15-3.72a36.15,36.15,0,0,1,1.83-3.41l-.35-.27A29.2,29.2,0,0,0,93.24,20a1.06,1.06,0,0,0-.17.76C93.25,21.73,93.49,22.68,93.71,23.64ZM60.82,89a3.07,3.07,0,0,0-.51.26c.62,3.09,1.26,6.17,1.95,9.54.33-.5.72-.8.69-1.08A27.59,27.59,0,0,0,60.82,89ZM88.11,26.78l1.79,5.37L91,30.33,89.08,25Zm16.76.58c-.4.87-.89,1.42-.81,1.88a22,22,0,0,0,1,3.1C106.14,31.1,106.14,30.27,104.87,27.36ZM42.2,95.29a4.17,4.17,0,0,0-.18,4.85C43,98.57,42.36,97.13,42.2,95.29Zm64.17-70.63c-.27.21-.57.36-.55.44.3,1.29.64,2.57,1,3.94C108,27.75,107.91,27.4,106.37,24.66Zm-7.3,31.09c-.3-1.32-1-2-1.65-3.08l-1.19,2.25Zm4.25-19.65c1.09-1.38,1.07-1.79-.15-3.94C101.93,33.54,102.66,34.79,103.32,36.1ZM63.81,96.8c.92-1.27.74-2.31-.59-4.48Zm36.47-47.57c-.23-.78-.45-1.56-.8-2.75C98.85,48.4,98.85,48.4,100.28,49.23ZM98.75,50.4l-.71.22a5.7,5.7,0,0,0,1.5,2.27Zm-2,7.64c.62-1,.62-1-.53-1.89Zm5.52-19.24.54-.26-1-1.91A1.77,1.77,0,0,0,102.27,38.8Zm-15.66-.16c.73-1.06.47-1.54-.62-2.12ZM93.87,58l.31.56c.36-.19.73-.37,1.07-.59,0,0-.11-.33-.18-.5ZM44.29,96.65c-.39.31-.63.42-.71.6s.07.36.12.55c.23-.06.54-.06.67-.21S44.34,97.16,44.29,96.65Zm21.1-2.8-.34.11.28.87.33-.11Z"/><path d="M81.47,57.31a19.41,19.41,0,0,1-2-1.47c-.21-.2-.14-.7-.2-1.06.43,0,1-.26,1.24-.07A2.46,2.46,0,0,1,81.47,57.31Z"/><path d="M81.85,39.73c2.12.33,2.44.91,2.05,3.32Z"/><path d="M80.41,51.61c.37,0,1,0,1.08.14a23.86,23.86,0,0,1,1.06,2.49l-.51.28L80.19,52Z"/><path d="M82.27,50.92l-1.43-2c.49-.16.87-.42,1-.33a1.77,1.77,0,0,1,.85,2.17Z"/><path d="M80.66,34.55c.72.15,1.29.11,1.42.32a2.57,2.57,0,0,1-.1,2.8Z"/><path d="M82.69,46.68l-.89-2,.29-.32c.34.16.88.24,1,.5C83.28,45.4,84,46.06,82.69,46.68Z"/><path d="M80.17,89.62c2,.45,2.06.56,1.62,3-.12,0-.34.08-.37,0-.71-1.08-1.12-2.36-2.52-2.92-.33-.13-.38-1-.45-1.61,0-.1.53-.39.8-.38,1.08.07.58,1,.8,1.57A3,3,0,0,1,80.17,89.62Z"/><path d="M87.34,94.68c.07,1.21.16,2.15-.82,2.89C85.88,95.53,85.9,95.45,87.34,94.68Z"/><path d="M82.78,93.38c.35-.27.67-.65.8-.59.3.13.7.47.71.74s-.44.5-.69.75Z"/><path d="M92.57,78c-.93-.15-1.44-.53-1.28-1.34,0-.2.7-.5.94-.41C93.05,76.58,93,77.23,92.57,78Z"/><path d="M93.23,76.25c.45-.27.77-.62,1-.58s.68.51.64.71a1,1,0,0,1-.74.68C93.9,77.06,93.64,76.63,93.23,76.25Z"/><path d="M97.18,77.16c-.31-.78-.5-1.23-.64-1.7,0,0,.48-.31.63-.24C97.84,75.53,97.89,76.05,97.18,77.16Z"/><path d="M51.53,78.81c-.51,1.62-1.9.57-2.37,1.43l-1.68-1.07c.68-.29,1.15-.58,1.22-.5C49.46,79.49,50.35,79.1,51.53,78.81Z"/><path d="M37,76.16c1.48-.52,2,0,2.24,2C37.93,78.09,38,76.54,37,76.16Z"/><path d="M44.25,78.82c.76-.26,1.21-.57,1.42-.45.7.39.81,1.12.83,2.36Z"/><path d="M42.87,78.79l-1.79-1.23.07-.43c.38-.06.84-.27,1.12-.13A1.22,1.22,0,0,1,42.87,78.79Z"/><path d="M78.53,73.89c1.57,1.25,1.56,1.63-.11,3.16-.68-.28-1.34-.58-2-.81a2.91,2.91,0,0,1-2.28-2.76c-.06-1-.21-1.89-.33-2.83a6,6,0,0,1,.73-3.48,58.9,58.9,0,0,0,2.11-5.83c.24.06.79,0,1.05.28.7.72,1.21,1.63,1.92,2.34a20.54,20.54,0,0,0,2.34,1.77c-1.22.71-1.74,1.55-1.46,2.73-2.42.72-1.91-2.11-3.65-2.61.29.67.53,1.14.7,1.64.45,1.36,1.9,2.4,1.27,4.15-.13.35.43.93.69,1.44l-1,.82a1.55,1.55,0,0,0-1-2c-.77-1.48-1.06-1.75-2.39-2.14.75,1,1.32,1.83,2.43,2.1C77.91,72.55,78.22,73.22,78.53,73.89ZM75.89,72.2c-.08,2,1.24,3.14,3.26,3Zm.75-3.4c0-.77-.12-1.3-1.12-.84Z"/></svg>