<svg xmlns="http://www.w3.org/2000/svg" viewBox="0 0 150 150"><defs><style>.a{fill:#fdecd7;}.b{fill:#fcd7ab;}.c{fill:#fcd6a7;}.d{fill:#fddab3;}.e{fill:#fde3c5;}.f{fill:#fef4e7;}.g{fill:#fde2c1;}.h{fill:#fffaf5;}.i{fill:#d9cdc5;}.j{fill:#bcab9e;}.k{fill:#816654;}.l{fill:#7e614e;}.m{fill:#89715d;}.n{fill:#a48c7d;}.o{fill:#d2c8be;}.p{fill:#9d8575;}.q{fill:#ece8e4;}</style></defs><title>icon</title><path class="a" d="M77,117.44l-.52.25a5.13,5.13,0,0,0,1,.83c-.16-.32-.34-.68-.53-1.08m15.74-14a23.79,23.79,0,0,0-2.27,1.33,36,36,0,0,0-6.33,5.52,75.61,75.61,0,0,0,6.39-4.87c.77-.66,1.51-1.32,2.21-2M82.58,96.3c-1.1,1.5-2.38,3.24-3.87,5.25,0,0-.17.34-.45.93.1-.12.19-.25.28-.37,1.44-2,2.81-4,4-5.81m12.18-7h0m0,0h0M87,84.4s.15.29.37.79c.06-.23,0-.49-.37-.79M92.62,74h0c.06.46.13.91.19,1.36l0,0L92.62,74m0,0h0c.06.45.12.9.19,1.35a6.58,6.58,0,0,1,1-.87c-.33.16-.67.31-1,.46l-.13-1M91,67.63a.52.52,0,0,1-.23.2l0,.09s.12-.12.19-.29m.29-1.23c0,.16,0,.33,0,.52v0c0-.17,0-.34,0-.5m.08-1h0m0-.11v.11c.39,2.82.79,5.62,1.18,8.41h0c-.39-2.84-.79-5.69-1.18-8.53m0,0v.11h0v-.11h0m.07-1.69H91.4l-.22,0,.24,1.66c.07-1.06.06-1.47.07-1.62V63.6h0m0,0h0m0,0h0m0,0h0m23.7-5a1.81,1.81,0,0,0-.4,0,42.85,42.85,0,0,0-13.14,5.52c-3.31,2.07-3.26,4.46-4.13,6.88a6.08,6.08,0,0,1-3,3.1,22.38,22.38,0,0,0,3.21-1.31c0-.58,0-1.15-.08-1.72.87-2.43.81-4.82,4.13-6.89a42.85,42.85,0,0,1,13.14-5.51,1.4,1.4,0,0,1,.41,0,2.22,2.22,0,0,1,1,.23,2.21,2.21,0,0,0-1.08-.29M45.59,54.3a2,2,0,0,1-.18.46,17.58,17.58,0,0,1-1.68,2.36c-.85,1.46.1,2.27-.08,3.91a7.83,7.83,0,0,1-1.79,2.14c-1.42,1.21-.27,2.32.41,3.39.59.63.43,1.49.25,2.42a4,4,0,0,0,0,2.66h0c.49,1,1.8,1.54,2.92,2s2.08.93,2,2c0-.23.13-.33.27-.33.4,0,1.18.94,1.83,2,.76,1.19,1.38,2.52,1,2.52a.45.45,0,0,1-.17,0c.08.18-.47,1.1-1,1.62-.44.3-1,.88-1.3.9-2.29.14-4.83,2.11-7.23,3.23,0,.08.12.41.38.93.14.25.29.55.46.88.07.16.18.37.23.51s.11.28.16.43a6.55,6.55,0,0,1,.34,3.94c-.76,2.06-1.78,4.17-1.14,5.53a.29.29,0,0,0,.17,0,3.32,3.32,0,0,0,.76-.17,2.93,2.93,0,0,1,.76-.18.34.34,0,0,1,.18,0,10.18,10.18,0,0,0,2.62.65l1.16.2.63.11c.24.07.52.19.78.27,1.07.38,2.17.76,3.26,1.11l5.74,1.85c1.54.52,2.56,1,2.68,1.4.13,1.23-.18,3.58-1.13,4.46-2.43,2.81-2.16,5.48-3.36,8.51-.38.78-1.29,1.29-1.68,2.07-.84,2.26-1.36,5.25-.46,6.53a8.08,8.08,0,0,0,6,4.93,42.36,42.36,0,0,0,4.28,1.87,17.32,17.32,0,0,0,4.82-1.72c2.33-1.09,3.15-2.13,3.87-2.13a.72.72,0,0,1,.39.11h0c.41,0,2.86-4.5,5.89-6.93,0-.07-.25-.56-.65-1.39-.33.3-.83.75-1.47,1.26s-1.32,1-2.12,1.54a13.44,13.44,0,0,1-2.53,1.3,9.63,9.63,0,0,1-3.41.73,5.23,5.23,0,0,1-1.78-.29c-1.53-.56-2.69-2-2.88-4.45a16.7,16.7,0,0,1-1.17-2.58,22.2,22.2,0,0,1-1.3-6.23,18.35,18.35,0,0,1,.79-6.84,7,7,0,0,1,3.29-4.27s1.49-.69,3.64-1.79a50.2,50.2,0,0,0,8.11-5.3A44,44,0,0,0,81,88.93l-2.56-1.26L74.89,86l-.44-.21-6.58-3.15H68l.25.07.47.11h0l.47.1h0a8.14,8.14,0,0,0,1.84.31h.23l.4,0h0a2,2,0,0,0,.43-.14.74.74,0,0,0,.43-.44l0-.18a1,1,0,0,0-.09-.4v0a2.88,2.88,0,0,0-.62-.86h0l-.22-.2,0,0h0l0,0h0a5.4,5.4,0,0,0-.56-.41,5.4,5.4,0,0,1,.56.41h0l0,0h0l0,0,.22.2h0a2.88,2.88,0,0,1,.62.86v0a1,1,0,0,1,.09.4h0l0,.18a.74.74,0,0,1-.43.44,2,2,0,0,1-.43.14h0l-.4,0H71a8.14,8.14,0,0,1-1.84-.31h0l-.47-.1h0l-.47-.11L68,82.65h-.11l6.58,3.15.44.21,3.55,1.69L81,88.93h0c-.17-.09-.34-.18-.52-.26l-.37-.18h0l0,0,.07,0h.17l.35,0q.38,0,.75-.09c1.39-1.46,2.66-2.93,3.72-4.23,2.16-2.59,3.58-4.45,4.68-4.82,0,0,.12,0,.37-.49a13,13,0,0,0,1-3.51,5.36,5.36,0,0,1,.87-1.44.46.46,0,0,1,.31-.14h0l.09,0-1.18-8.41h0c0,.28,0,.61-.08,1,0,.16,0,.33,0,.5V67a2.09,2.09,0,0,1-.23.61c-.07.17-.15.29-.19.29l0-.09,0,0c-.16.13-.31.48-.93,2.16-.33.89-.71,1.8-1.13,2.7l-.32.73.32-.73a28.74,28.74,0,0,1-2.2,3.91l-.11.16c-1.13.22-2.28.4-3.43.55l-2.15.2a20.28,20.28,0,0,1,1-2.27,33.88,33.88,0,0,1,2-3.4c.73-1.09.82-1.45.52-1.45h-.1a12.76,12.76,0,0,0-2.23,1c-.44.25-.86.48-1.28.68a2.06,2.06,0,0,1-.65.26l-.78.06c-.59,0-1.16,0-1.72,0q-.61,0-1.2,0a21.83,21.83,0,0,1-5.23-.86c-.85-.61-.42-2.14-1.11-3a5.72,5.72,0,0,0-1.89-.86,4.75,4.75,0,0,0-1-.2h0l-.93.11a19.66,19.66,0,0,1-2.76.25,7.17,7.17,0,0,1-1.06-.07c-1.25-.64-2.37-1.11-3.27-1.48a20.55,20.55,0,0,0-2.17-.8,4.21,4.21,0,0,0-1.33-.23l-.37,0-.19,0s0,0,0-.06c-.26-.64,2.34-1.87,2.73-2.77.19-1.11-1.35-1.69-3-2.09a18,18,0,0,1-3.34-1.24,13,13,0,0,1-1.64-1.16l-1.53-1.19a15.94,15.94,0,0,1-2.42-2.34l-.17-.22M44,51.51a2.85,2.85,0,0,1-.13.48c.19.13.38.28.58.41-.15-.28-.29-.57-.45-.89"/><path class="b" d="M116.27,58.86a1.81,1.81,0,0,1,.93,1c.65,2.26-1.87,4.59-2.61,7,.19.4,0,1.17.51,1.45a2,2,0,0,1,.85,1.07A17.51,17.51,0,0,1,114.19,78c-.57,3.08-.2,5.4-1.11,8.54a23.12,23.12,0,0,0-.92,4.26,7,7,0,0,1-2,4,19.75,19.75,0,0,0-1.7,2.43,12.09,12.09,0,0,0-1,2.5c-.28.94-.25,1.73-.66,3.34a11.77,11.77,0,0,1-1.21,3,11.23,11.23,0,0,1-1.39,1.93,13,13,0,0,1-2.15,1.93,15.42,15.42,0,0,1-3,1.65c-.52.23-1.15.44-1.44.59l-.89.45c-1.22.6-2.65,1.08-4.12,1.67-2.94,1.15-6.1,2.42-7.77,3.72-1.79,1.82-4,1.14-6.08,2.66l-.13.1h0c2.1-1.51,4.3-.84,6.1-2.65,1.68-1.3,4.84-2.58,7.79-3.73,1.48-.58,2.91-1.06,4.14-1.66.31-.14.6-.29.88-.44l.25-.12a1.93,1.93,0,0,1,.31-.13l.8-.32a15.48,15.48,0,0,0,3-1.59,13.69,13.69,0,0,0,2.21-1.9,11.48,11.48,0,0,0,1.46-1.95,12,12,0,0,0,1.29-3.05c.44-1.64.42-2.45.69-3.38a12.11,12.11,0,0,1,1-2.5,19.22,19.22,0,0,1,1.71-2.44,7.2,7.2,0,0,0,2-4,23,23,0,0,1,.92-4.27c.92-3.16.55-5.48,1.13-8.56a17.53,17.53,0,0,0,1.76-8.65,2.08,2.08,0,0,0-.85-1.08c-.47-.27-.32-1-.51-1.44.74-2.44,3.26-4.77,2.61-7a1.93,1.93,0,0,0-1-1"/><path class="c" d="M96.43,98.05h0l0,0,0,0m18.89-39.42a1.4,1.4,0,0,0-.41,0,42.85,42.85,0,0,0-13.14,5.51c-3.32,2.07-3.26,4.46-4.13,6.89,0,.57.06,1.14.08,1.72l.25-.14c1.8-1,3.44-2.35,3-3.8a42.44,42.44,0,0,1,3.92-4.09c1.24-1.1,2.55-2,3.55-2,.63,0,1.14.36,1.44,1.26a24,24,0,0,1,2.38,4.1s-.16,1.28-.47,3.23-.79,4.58-1.5,7.23a40.92,40.92,0,0,1-2.58,7.27c-.94,2-2,3.3-2.57,3.44,0,0-.23.3-.58.85s-.82,1.34-1.41,2.28c-1.13,1.88-2.52,4.52-3.86,7.21a5.06,5.06,0,0,1-1.53,1.67,11.47,11.47,0,0,1-2.3,1,22.16,22.16,0,0,0-2.66,1.14c-.7.66-1.44,1.32-2.21,2a75.61,75.61,0,0,1-6.39,4.87,57.55,57.55,0,0,0-4.65,5.74s-.94.58-2.36,1.3l-.13.06c.19.4.37.76.53,1.08a6.16,6.16,0,0,0,.85.44l-.44.42c.4.83.62,1.32.65,1.39l.13-.1c2.09-1.52,4.29-.84,6.08-2.66,1.67-1.3,4.83-2.57,7.77-3.72,1.47-.59,2.9-1.07,4.12-1.67l.89-.45c.29-.15.92-.36,1.44-.59a15.42,15.42,0,0,0,3-1.65,13,13,0,0,0,2.15-1.93,11.23,11.23,0,0,0,1.39-1.93,11.77,11.77,0,0,0,1.21-3c.41-1.61.38-2.4.66-3.34a12.09,12.09,0,0,1,1-2.5,19.75,19.75,0,0,1,1.7-2.43,7,7,0,0,0,2-4,23.12,23.12,0,0,1,.92-4.26c.91-3.14.54-5.46,1.11-8.54A17.51,17.51,0,0,0,116,69.39a2,2,0,0,0-.85-1.07c-.47-.28-.32-1-.51-1.45.74-2.43,3.26-4.76,2.61-7a1.81,1.81,0,0,0-.93-1,2.22,2.22,0,0,0-1-.23"/><path class="d" d="M96.42,98h0m0,0h0m0,0h0m-.09-.17a.54.54,0,0,0,.05.11h0l0,0h0l0-.07m-.08-.16a.59.59,0,0,1,0,.08l0-.08h0m0-.11h0v0l0,0,0-.07m-.17,0,.23.28.09.11-.08-.11,0,0L96,97.55m0-.37.13.36-.13-.36m-.49-.08c.22.19.36.34.46.44-.11-.11-.25-.26-.46-.44m.46,0v0h0m-.17-.61v0c.09.35.14.51.16.56-.06-.17-.11-.37-.17-.59m-1.59-.41.35.25c.34.26.61.48.82.66l-.22-.18-.35-.29a3,3,0,0,1-.24-.18l-.1-.07-.23-.17,0,0M95.74,96c0,.17.07.32.11.46,0-.1,0-.2-.07-.31a.83.83,0,0,0,0-.15m-.07-.37.06.3-.06-.3m-2.08,0,.57.38,0,0-.39-.27-.13-.08m2-.66,0,.18c0,.16,0,.3.08.44,0-.2-.07-.4-.11-.62m0,0h0m0-.23v.14l0-.14m-4.16-.43.21.12c.78.45,1.38.82,1.87,1.14l-.08-.05-.16-.11c-.13-.07-.26-.16-.4-.25l-1.13-.67-.31-.18m-.5-.29.07.05,0,0L90.85,94m-.73-.39.08,0,.26.14-.34-.18m-.93-.51h0l.87.47-.87-.47m-1-.51.14.08.34.17h0l-.47-.25m3-4.9a2.72,2.72,0,0,0-1.13.27,5.85,5.85,0,0,0-1.4,1A17.44,17.44,0,0,1,89,91.12c0,.41,0,.84.06,1.27a3.82,3.82,0,0,0,0,.55l.07.12c.3.15.59.31.88.48l.38.2.27.15a3.07,3.07,0,0,0,.31.17l1.76,1,.4.25.11.08,0,0,.37.24.39.27.18.12.33.24c.22.17.42.32.59.47a4.06,4.06,0,0,1,.35.3c.21.18.35.33.46.44l0,0a3,3,0,0,1,.2.24,1.5,1.5,0,0,1,.14.19l0,0h0a1.12,1.12,0,0,1-.11-.22l-.06-.12v0l0,0h0v0a3.67,3.67,0,0,1-.14-.37l0-.11s-.07-.21-.16-.56v0c0-.16-.08-.35-.12-.54l-.06-.3c0-.15-.06-.32-.09-.49l0-.23h0v0c-.23-1.61-.46-3.22-.68-4.84h-.07l-.2,0a1.55,1.55,0,0,1-.38-.13,2,2,0,0,1-1.06-1.26,3.38,3.38,0,0,0-.88-.66,2.47,2.47,0,0,0-1.09-.27m3.58,1.69h0m0,0h0m-2-14,0,0L94.86,90h0l.49,3.52q-1.25-9-2.54-18.18m15.6-12.6c-1,0-2.31.91-3.55,2a42.44,42.44,0,0,0-3.92,4.09c.47,1.45-1.17,2.85-3,3.8l-.25.14a22.38,22.38,0,0,1-3.21,1.31l-.21.06a3.94,3.94,0,0,0-.51.32,6.58,6.58,0,0,0-1,.87q1.29,9.24,2.54,18.19l.15,1v.09l0,.14a.68.68,0,0,1,0,.14c0,.22.08.42.11.62s.06.29.08.42a.83.83,0,0,1,0,.15c0,.12,0,.22.07.32s.12.45.17.62h0v0c.06.18.12.33.17.46a.36.36,0,0,0,0,.09v0a1.16,1.16,0,0,0,.06.15.3.3,0,0,1,0,.08h0l0,0,0,.07h0l0,0,0,0,0,0h0l-.07-.1-.09-.11L96,97.55l-.17-.17-.43-.4c-.21-.18-.48-.4-.82-.66l-.35-.25,0,0-.06,0a7.57,7.57,0,0,0-.63-.43l0,0c-.5-.32-1.12-.71-1.93-1.18l-.29-.17L90.92,94l-.44-.25-.28-.15-.08,0,0,0-1.38-.75-.34-.17-.14-.08-1.41-.73-.6-.31c-1,1.21-2.16,2.78-3.64,4.79-1.23,1.84-2.6,3.84-4,5.81-.09.12-.18.25-.28.37-.16.35-.36.78-.58,1.28a43.42,43.42,0,0,0-1.89,5.08,14.51,14.51,0,0,0-.64,5.86,5.08,5.08,0,0,0,1.36,3l.52-.25.13-.06c1.42-.72,2.36-1.3,2.36-1.3a57.55,57.55,0,0,1,4.65-5.74,36,36,0,0,1,6.33-5.52,23.79,23.79,0,0,1,2.27-1.33,22.16,22.16,0,0,1,2.66-1.14,11.47,11.47,0,0,0,2.3-1,5.06,5.06,0,0,0,1.53-1.67c1.34-2.69,2.73-5.33,3.86-7.21.59-.94,1-1.73,1.41-2.28s.58-.85.58-.85c.62-.14,1.63-1.45,2.57-3.44a40.92,40.92,0,0,0,2.58-7.27c.71-2.65,1.18-5.27,1.5-7.23s.47-3.23.47-3.23a24,24,0,0,0-2.38-4.1c-.3-.9-.81-1.26-1.44-1.26"/><path class="e" d="M96.41,98h0l0,0h0m0,0h0v0m0,0,0,0h0v0l0-.07m0,0,.07.1h0l-.06-.09m-.1-.13,0,0,.08.11.06.09,0,0a1.5,1.5,0,0,0-.14-.19m0,0a1.12,1.12,0,0,0,.11.22l0,0h0a.54.54,0,0,1-.05-.11l0,0m0-.11,0,.08,0,.07a1.16,1.16,0,0,1-.06-.15m0,0v0h0v0m0-.06,0,0v0l0,0m0,0h0v0m0,0v0h0v0m-.17,0h0l.22.26a3,3,0,0,0-.2-.24l0,0m0-.42h0v.05l.13.36,0,0c0-.13-.11-.28-.17-.46m0-.05,0,.11v-.05h0v-.05M95.43,97l.43.4.17.17h0c-.1-.1-.24-.25-.46-.44L95.43,97m-.22-.18.22.18.13.12a4.06,4.06,0,0,0-.35-.3m.64-.33h0c.06.22.11.42.17.59v0c0-.17-.11-.38-.17-.62m-1.23-.14a3,3,0,0,0,.24.18l.35.29c-.17-.15-.37-.3-.59-.47m-.33-.24.23.17.1.07-.33-.24M94.16,96l.06,0,0,0-.1-.06m0,0,0,0,.1.07,0,0L94.11,96m1.62,0c0,.19.08.38.12.54h0c0-.14-.07-.29-.11-.46v-.07m-2-.23.39.27-.39-.27m1.94-.12v0h0l.06.3V96c0-.13,0-.27-.08-.42m-2.17,0,0,0,0,0m-.14-.09.08.05.16.11.13.08-.37-.24m-.16-.11.16.11,0,0-.11-.08m2.39-.21c0,.17.06.34.09.49h0v0c0-.14,0-.28-.08-.44m-2.79,0c.14.09.27.18.4.25l-.4-.25m2.76-.19,0,.23,0-.18v0m0-.09,0,.09h0v0a.68.68,0,0,0,0-.14M91,94.06a3.37,3.37,0,0,0,.32.19l.31.18,1.13.67-1.76-1m-.11,0,.35.19L91,94l0,0m-.44-.25.44.25L90.85,94l-.37-.2m4.87-.21.16,1.13v-.09l-.15-1m-5.28,0,.05,0,.34.18.26.14-.27-.15-.38-.2m-1.36-.74,1.38.75,0,0-.06,0-.87-.47h0l-.48-.26M94.86,90c.22,1.62.45,3.23.68,4.84v0l0-.09v-.14c-.05-.38-.1-.76-.16-1.14L94.86,90h0M81,88.93a44,44,0,0,1-3.86,3.53A50.2,50.2,0,0,1,69,97.76c-2.15,1.1-3.64,1.79-3.64,1.79a7,7,0,0,0-3.29,4.27,18.35,18.35,0,0,0-.79,6.84,22.2,22.2,0,0,0,1.3,6.23,16.7,16.7,0,0,0,1.17,2.58c.19,2.49,1.35,3.89,2.88,4.45a5.23,5.23,0,0,0,1.78.29,9.63,9.63,0,0,0,3.41-.73,13.44,13.44,0,0,0,2.53-1.3c.8-.52,1.52-1.06,2.12-1.54s1.14-1,1.47-1.26l.44-.42a6.16,6.16,0,0,1-.85-.44,4.94,4.94,0,0,1-2.41-3.82,14.51,14.51,0,0,1,.64-5.86,43.42,43.42,0,0,1,1.89-5.08c.22-.5.42-.93.58-1.28.28-.59.45-.93.45-.93,1.49-2,2.77-3.75,3.87-5.25,1.48-2,2.65-3.58,3.64-4.79l.6.31,1.41.73c-.8-.42-1.64-.85-2.46-1.26l-2-1-2-1-.8-.39M92.59,73.8l0,.21h0l0,0,.13-.07-.1-.07-.09,0h0M87.41,85.19c-.22-.5-.37-.79-.37-.79.33.3.43.56.37.79m5.06-11.42a.46.46,0,0,0-.31.14,5.36,5.36,0,0,0-.87,1.44,13,13,0,0,1-1,3.51c-.25.5-.37.49-.37.49-1.1.37-2.52,2.23-4.68,4.82-1.06,1.3-2.33,2.77-3.72,4.23q-.37.06-.75.09l-.35,0h-.17l-.07,0,0,0h0l.37.18c.18.08.35.17.52.26h0l.8.39,2,1,2,1c.82.41,1.66.84,2.46,1.26l.47.25h0l.48.26-.07-.12a3.82,3.82,0,0,1,0-.55c0-.43,0-.86-.06-1.27a17.44,17.44,0,0,0-.38-2.24,5.85,5.85,0,0,1,1.4-1,2.72,2.72,0,0,1,1.13-.27,2.47,2.47,0,0,1,1.09.27,3.38,3.38,0,0,1,.88.66,2,2,0,0,0,1.06,1.26,1.55,1.55,0,0,0,.38.13l.2,0h.07L92.79,75.38c-.06-.45-.13-.9-.19-1.36h0l0-.21-.09,0h0"/><path class="f" d="M43.23,51.72a.56.56,0,0,0-.38.15,7.53,7.53,0,0,1,0,2c-.06.68,0,1.19,0,1.69a2.42,2.42,0,0,1-.55,1.53,18.33,18.33,0,0,1-2.64,2.7,5.55,5.55,0,0,0-.49.66,1.38,1.38,0,0,0-.25.71,21.27,21.27,0,0,0-.78,4.31,11.79,11.79,0,0,0,.4,4.2c1.67.38,1.42,1.8,1.58,3a3.12,3.12,0,0,0,.19.73,7.81,7.81,0,0,1-.12,1.42c.39,1.15,1.84,1.77,1.09,3.12a22.58,22.58,0,0,0-3.54,9,15.21,15.21,0,0,0,0,3c0,.32.06.67.09,1s-.05.55-.08.84c0,.56-.09,1.15-.13,1.73a29.47,29.47,0,0,0,0,5.34c.28,2.23,2.49,2.88,3.16,4.73,0,0-.2.15-.57.26l.06.08.52.59c.33,0,1.18.44,1.5.47a4.48,4.48,0,0,1,.53,2.44,15,15,0,0,0,.22,5.74A30.63,30.63,0,0,0,44.94,119c1.62,3.82,3.72,7.31,4.92,11,.66,1.38,1.8,3.42,3.62,4.12,1.37.38,2.88,1.4,4.25,1.4h.17c2.75-.47,5.59-2,8.06-3.32-.78-.23-1.56-.49-2.32-.77a42.36,42.36,0,0,1-4.28-1.87,8.08,8.08,0,0,1-6-4.93c-.9-1.28-.38-4.27.46-6.53.39-.78,1.3-1.29,1.68-2.07,1.2-3,.93-5.7,3.36-8.51,1-.88,1.26-3.23,1.13-4.46-.12-.45-1.14-.88-2.68-1.4L51.6,99.82c-1.09-.35-2.19-.73-3.26-1.11-.26-.08-.54-.2-.78-.27l-.63-.11-1.16-.2a10.18,10.18,0,0,1-2.62-.65.34.34,0,0,0-.18,0,2.93,2.93,0,0,0-.76.18,3.32,3.32,0,0,1-.76.17.29.29,0,0,1-.17,0c-.64-1.36.38-3.47,1.14-5.53a6.55,6.55,0,0,0-.34-3.94c0-.15-.11-.29-.16-.43s-.16-.35-.23-.51c-.17-.33-.32-.63-.46-.88-.26-.52-.42-.85-.38-.93,2.4-1.12,4.94-3.09,7.23-3.23.28,0,.86-.6,1.3-.9.52-.52,1.07-1.44,1-1.62a.45.45,0,0,0,.17,0c.41,0-.21-1.33-1-2.52-.65-1-1.43-2-1.83-2-.14,0-.23.1-.27.33.09-1.08-.85-1.52-2-2s-2.43-1-2.92-2h0a4,4,0,0,1,0-2.66c.18-.93.34-1.79-.25-2.42-.68-1.07-1.83-2.18-.41-3.39A7.83,7.83,0,0,0,43.65,61c.18-1.64-.77-2.45.08-3.91a17.58,17.58,0,0,0,1.68-2.36,2,2,0,0,0,.18-.46,1.24,1.24,0,0,0-.77-1.72,1.53,1.53,0,0,1-.39-.18c-.2-.13-.39-.28-.58-.41a1.16,1.16,0,0,0-.62-.27"/><path class="g" d="M96.35,97.92h0l0,0,0,0h0v0h0v0h0l0,0,0,0h0M96,97.13v.05a3.67,3.67,0,0,0,.14.37v0l0,.07v0l.06.12,0,0,0,.07a.3.3,0,0,0,0-.08l0-.07a.59.59,0,0,0,0-.08v0a.36.36,0,0,1,0-.09l0,0-.13-.36v-.05m-.37-1.51h0l.06.3V96a.83.83,0,0,1,0,.15c0,.11,0,.21.07.31h0v0c.09.35.14.51.16.56v0h0v0h0v0h0v0s-.07-.21-.16-.56v0h0c0-.1,0-.2-.07-.32a.83.83,0,0,0,0-.15v-.07l-.06-.3h0m-.12-.71h0v0c0,.22.08.42.11.62v0c0-.2-.07-.4-.11-.62v0h0M71.64,83.22l-.4,0,.4,0m-2.47-.29h0a8.14,8.14,0,0,0,1.84.31h0a8.14,8.14,0,0,1-1.84-.31h0m-.47-.1.47.1-.47-.1m-.83-.21,6.58,3.15.44.21,3.55,1.69L81,88.93l.8.39,2,1,2,1c.82.41,1.66.84,2.46,1.26l.14.08.34.17.48.26.87.47.06,0,.08,0,.28.15.37.2L91,94l.31.17.29.17c.81.47,1.43.86,1.93,1.18l0,0a7.57,7.57,0,0,1,.63.43l.1.06.35.25c.34.26.61.48.82.66l.13.12c.21.18.35.33.46.44h0l.23.28.09.11.06.09h0l-.06-.09-.09-.11L96,97.55h0c-.11-.11-.25-.26-.46-.44L95.43,97c-.21-.18-.48-.4-.82-.66l-.35-.25-.1-.07-.57-.38-.16-.11c-.49-.32-1.09-.69-1.87-1.14l-.21-.12a3.37,3.37,0,0,1-.32-.19,3.07,3.07,0,0,1-.31-.17l-.26-.14-.26-.14-.08,0-.05,0c-.29-.17-.58-.33-.88-.48l-.48-.26-.34-.17-.14-.08c-.8-.42-1.64-.85-2.46-1.26l-2-1-2-1-.8-.39-2.56-1.26L74.89,86l-.44-.21-6.58-3.15m0,0H68l.25.07.47.11h0l-.47-.11L68,82.65h-.11m4.65-.16,0,.18a.74.74,0,0,1-.43.44,2,2,0,0,1-.43.14h0a2,2,0,0,0,.43-.14.74.74,0,0,0,.43-.44l0-.18h0m-.1-.43v0a1,1,0,0,1,.09.4h0a1,1,0,0,0-.09-.4v0m-.62-.86a2.88,2.88,0,0,1,.62.86,2.88,2.88,0,0,0-.62-.86m0,0h0m0,0h0m-.25-.23,0,0,.22.2-.22-.2,0,0m0,0h0m0,0,0,0,0,0m0,0h0m-.56-.41a5.4,5.4,0,0,1,.56.41,5.4,5.4,0,0,0-.56-.41M90.51,68.23h0c-.25.6-.67,1.86-1.8,4.49l-.32.73.32-.73c1.13-2.63,1.55-3.89,1.8-4.49h0m.25-.51a2.12,2.12,0,0,0-.25.51,2.12,2.12,0,0,1,.25-.51m0,0h0m0,0h0m0,0v0m0,0,0,0,0,0v0m.61-2.3h0c0,.29,0,.62-.08,1,0,.16,0,.33,0,.5v0c0,.06-.11.41-.22.68l0,0c-.07.17-.15.29-.19.29l0-.09v0l0,.09s.12-.12.19-.29l0,0c.11-.27.2-.62.22-.68v0c0-.17,0-.34,0-.5,0-.38.06-.71.08-1h0m0,0h0l1.18,8.41,0,.21.19,1.35q1.29,9.23,2.54,18.18c.06.38.11.76.16,1.14l0,.14,0,.09h0l0-.09,0-.14-.16-1.13q-1.25-9-2.54-18.19c-.07-.45-.13-.9-.19-1.35l0-.21c-.39-2.79-.79-5.59-1.18-8.41m.08-1.62c0,.28,0,.75-.07,1.51v.11h0v-.11c0-.76.07-1.23.07-1.51h0m-.36-.37c.09.66.19,1.33.28,2h0c-.09-.66-.19-1.33-.28-2m.34,0-.16,0-.18,0h0l.18,0,.16,0h0v.23h0v.17h0V63.6h0v-.23h0"/><path class="h" d="M42,51.56c-.1,0-.18.06-.23.22a8.35,8.35,0,0,0-.35,2c-.13,2.37-1.88,4.25-3.22,5.3a27.1,27.1,0,0,1-4.34,2.67l-.42.63c-.12.29-.24.58-.35.87-.22.59-.42,1.18-.58,1.78A14.63,14.63,0,0,0,32,68.63c0,.93,1,1.38,1.58,2,1,1,1,2.74,2,3.94a3.22,3.22,0,0,0,1.7,1,.68.68,0,0,1,.48.84A41.94,41.94,0,0,0,34.3,89.6a13.24,13.24,0,0,0,.12,3.29c0,.17,0,.34.07.52l0,.26,0,.19c0,.26,0,.53,0,.8,0,.54,0,1.08-.05,1.62A35.46,35.46,0,0,0,34.6,101a4.05,4.05,0,0,0,4,3.16,5.48,5.48,0,0,0,1.58-.24c.37-.11.59-.23.57-.26-.67-1.85-2.88-2.5-3.16-4.73a29.47,29.47,0,0,1,0-5.34c0-.58.09-1.17.13-1.73,0-.29.05-.57.08-.84s-.07-.7-.09-1a15.21,15.21,0,0,1,0-3,22.58,22.58,0,0,1,3.54-9c.75-1.35-.7-2-1.09-3.12a7.81,7.81,0,0,0,.12-1.42,3.12,3.12,0,0,1-.19-.73c-.16-1.18.09-2.6-1.58-3a11.79,11.79,0,0,1-.4-4.2,21.27,21.27,0,0,1,.78-4.31,1.38,1.38,0,0,1,.25-.71,5.55,5.55,0,0,1,.49-.66,18.33,18.33,0,0,0,2.64-2.7,2.42,2.42,0,0,0,.55-1.53c0-.5,0-1,0-1.69a7.53,7.53,0,0,0,0-2h0c-.27,0-.6-.31-.83-.31"/><path class="i" d="M60.47,51.84l0,0a5.17,5.17,0,0,0,1.56.42h0a5.17,5.17,0,0,1-1.56-.42l0,0h0m3.92-.49h0a2.12,2.12,0,0,1-.54.57h0a2.12,2.12,0,0,0,.54-.57m.88-.18a7.06,7.06,0,0,0-.82.11h0a7.06,7.06,0,0,1,.82-.11h0m3.78-1.51h0c-1.39,1.53-2.25,1.77-2.66,1.77a.62.62,0,0,1-.28,0h0a.62.62,0,0,0,.28,0c.41,0,1.27-.24,2.66-1.77m-11-.8a2,2,0,0,1,.08.22A11,11,0,0,0,59.72,51h0a11,11,0,0,1-1.62-1.9h0a2,2,0,0,0-.08-.22h0m-1.81-2.08a2.7,2.7,0,0,1,.9.62h0a2.7,2.7,0,0,0-.9-.62h0"/><path class="i" d="M65.27,51.17a7.06,7.06,0,0,0-.82.11h0a7.06,7.06,0,0,1,.82-.11h0"/><path class="j" d="M79.83,20.86A8.58,8.58,0,0,0,78.48,22c-.67.59-1,1.1-1.14,1.1s-.07,0-.1-.07h0a20.35,20.35,0,0,1-2.08,3.1s0,.3,0,.76c.5-.56,2.07-2.2,3.13-2.2.58,0,1,.48,1,1.88a17.32,17.32,0,0,1,1.22,5.69h0a5,5,0,0,1-.85,3.07S71.82,45.54,67.34,45.54a1.88,1.88,0,0,1-.34,0h0c-.12,0-.63.1-1.87,1.52a3.71,3.71,0,0,1-1.36.29H63.6c-.77,0-1.58-.45-1.68-1.9a19.44,19.44,0,0,0-1.08-2.19c-.62-1-1.4-2.08-2.14-2.08h-.09s-.2-1.61-.86-1.86l-.53.08h0a.65.65,0,0,1,.35-.11l.18,0,.67-.09c-1.67-.15-3.16-.57-3.16-1.37h0a.22.22,0,0,1,0-.08A10.73,10.73,0,0,1,54,36.51a5.6,5.6,0,0,1-1.27-2.16c0,.17,0,.34,0,.51h0A35.35,35.35,0,0,1,52.22,40a32.13,32.13,0,0,0-.88,5.2c0,.87.2,1.5.75,1.67a3.78,3.78,0,0,0,.67,0,9.79,9.79,0,0,0,1.32-.11,9.68,9.68,0,0,1,1.28-.12,3,3,0,0,1,.85.11,3.09,3.09,0,0,0-.86-.21l-.35,0h0a4.13,4.13,0,0,0-1.48.28A4.13,4.13,0,0,1,55,46.55h0l.35,0h0l-.35,0h0a4.13,4.13,0,0,0-1.48.28A4.13,4.13,0,0,1,55,46.55h0l.35,0h0l-.35,0h0a4.13,4.13,0,0,0-1.48.28A4.13,4.13,0,0,1,55,46.55h0l.35,0a3.09,3.09,0,0,1,.86.21,1.91,1.91,0,0,1,.9.62A4,4,0,0,1,58,48.86a7.8,7.8,0,0,0,1.63,2l.07.11a.53.53,0,0,0,.3.14h0l.43.72a13.42,13.42,0,0,1,1.68.46l.3,0h0a2.42,2.42,0,0,0,1.35-.4,3.32,3.32,0,0,0,.54-.57l0-.07h0l0,0a2.52,2.52,0,0,1,.63-.08h.4a1.07,1.07,0,0,1,.48.08h0l.08.06a2.22,2.22,0,0,0,.44.06,2.06,2.06,0,0,0,1.38-.65l1.15-1.05c.09-.1.19-.2.28-.32-.09.12-.19.22-.28.32h0c.09-.1.19-.2.28-.32-.09.12-.19.22-.28.32h0c.09-.1.19-.2.28-.32-.09.12-.19.22-.28.32,1.6-1.45,3.2-2.79,4.57-2.89a4.49,4.49,0,0,1,.51,0,2.9,2.9,0,0,1,2,.74c.27.18.64,2.71.73,3.54.08.66.36.91.71.91a2.78,2.78,0,0,0,1.53-.84,12.32,12.32,0,0,1,4.26-3.19h0c.44,0,.62.72,1.06.86,1.16,0,2.4-1.35,3.55-1.82,3.56-.24,3.72-1.36,3.8-1.36l0,0c.35.08.1,1.44.46,1.83a.7.7,0,0,0,.37.11,2.63,2.63,0,0,0,1.58-1C95.46,45.29,96.86,44,98,44l.24,0c-.12-.46-.11-1.18-.22-1.61-.27-.79-1-.64-1.52-1a3,3,0,0,1-.36-1.15c0-.41-.23-.53-.46-.53a4.41,4.41,0,0,0-.79.18.52.52,0,0,1-.21,0c-.56,0-.84-1-1.39-1.09a.55.55,0,0,0-.18,0,2.22,2.22,0,0,0-.91.3,2.29,2.29,0,0,1-.85.3.47.47,0,0,1-.45-.31.39.39,0,0,1,0,.13h0c0,.1-.08.14-.21.14-.5,0-1.72-.63-1.72-.88h0s0-.07.09-.08,0-.14,0-.3h0a3.36,3.36,0,0,1,.06-.63,4.21,4.21,0,0,1,.26-.75A14.07,14.07,0,0,0,91,33.31c0-.15-1.51-.83-1.78-2.08-.18-1-.28-2.17-.81-2.52-.17,0-.44.63-.61.67h0A26,26,0,0,0,84.85,31a12.93,12.93,0,0,1-3.3,1.57c-.07,0-.12,0-.14-.05a3,3,0,0,1-.17-1.06h0a2.49,2.49,0,0,1,.16-.93c.62-1.74.35-2.69.62-4.2.08-.4.35-.84.44-1.24a13.32,13.32,0,0,0,.16-1.81,1.79,1.79,0,0,0-.16-.95c-.3-.7-.77-1.1-1.28-1.1a1,1,0,0,0-.32.06l-1-.38"/><path class="j" d="M52.78,21.24a1.46,1.46,0,0,0-.49.55,18.53,18.53,0,0,0-1.9,6.72c0,.11,0,.23,0,.34,0,1.63.89,2.19,1.65,3a3.44,3.44,0,0,1,.68,2,15.35,15.35,0,0,0,.12-1.71l-.75-.34c-.75-.85-1.65-1.41-1.65-3h0c0-.11,0-.22,0-.34a18.44,18.44,0,0,1,1.89-6.71,1.41,1.41,0,0,1,.44-.52"/><path class="j" d="M75.25,27.32c0,.18,0,.37.06.59l.17-.09a2.54,2.54,0,0,0-.23-.5"/><path class="j" d="M72.52,30.88q-2,1.21-3.91,2.42a8.52,8.52,0,0,0,3.91-2.42"/><path class="j" d="M74.14,35.52c-.65.94-1.33,1.88-2,2.72C72.7,37.61,73.3,36.86,74,36l.19-.45"/><path class="j" d="M66.5,40.94a2.08,2.08,0,0,0,1,.27,2.83,2.83,0,0,0,.63-.07,16.91,16.91,0,0,0-1.68-.2"/><path class="j" d="M98.85,44.42h0a3.17,3.17,0,0,1,.21.27v0h0a1.48,1.48,0,0,1,0-.21h0a.47.47,0,0,0-.17,0"/><path class="j" d="M57.11,47.4l.14.18c.27.45.52.88.77,1.28a4,4,0,0,0-.91-1.46"/><path class="j" d="M59.72,51a3.83,3.83,0,0,0,.72.86h0L60,51.12h0a.53.53,0,0,1-.3-.14"/><path class="j" d="M65.5,51.16h-.23a3.33,3.33,0,0,1,.59.09l.22,0L66,51.24h0a1.11,1.11,0,0,0-.49-.08"/><path class="j" d="M64.45,51.28h0l0,.07.06-.07"/><path class="j" d="M63.85,51.92a2.45,2.45,0,0,1-1.35.4h0l-.3,0a1.88,1.88,0,0,0,.53.07,1.77,1.77,0,0,0,1.17-.45"/><path class="k" d="M53.31,21a1.07,1.07,0,0,0-.53.22,1,1,0,0,1,.48-.18h.08c.81.21.79,1.73,1.37,2.52h0a.77.77,0,0,1,.19.05.56.56,0,0,0,.21.06.27.27,0,0,0,.16-.06.82.82,0,0,1,.53-.18,5.89,5.89,0,0,1,2.37,2.09c.92.64,1.76.69,2.71,1.29s1.92.39,2.62,1.55a2.42,2.42,0,0,0,2,1,6.82,6.82,0,0,0,2.25-.54c1.15-.42,4.19-.85,5.44-1.88.7-.75,1.24-.25,2-.86l0,0h0c-.71.61-1.25.11-2,.87-1.25,1-4.29,1.45-5.43,1.88a6.87,6.87,0,0,1-2.26.54,2.4,2.4,0,0,1-2-1.05c-.7-1.16-1.74-.84-2.61-1.54s-1.79-.65-2.71-1.3a5.94,5.94,0,0,0-2.37-2.08.82.82,0,0,0-.53.18.27.27,0,0,1-.16.06.8.8,0,0,1-.21-.05.52.52,0,0,0-.19-.06h0c-.58-.79-.56-2.31-1.37-2.52h-.08"/><path class="l" d="M53.26,21.06a1,1,0,0,0-.48.18,1.41,1.41,0,0,0-.44.52,18.44,18.44,0,0,0-1.89,6.71c0,.12,0,.23,0,.34,0,1.63.9,2.19,1.65,3l.75.34v-.14c0-1-.17-2-.85-2.14a12.11,12.11,0,0,1-.49-2.6,4.26,4.26,0,0,1,0-.5h0c0-1,.23-1.8.91-1.8l.19,0a15.13,15.13,0,0,1,1.77-.18h.17s1.49,1.26,3.12,2.59S61,30.18,61,30.82a7.42,7.42,0,0,0,1.16,1,8.89,8.89,0,0,0,3.12,1.48,7.18,7.18,0,0,0,1.62.2,6.37,6.37,0,0,0,1.7-.23q2-1.2,3.91-2.42a15.55,15.55,0,0,0,2-2.48s.35-.23.83-.49c0-.22,0-.41-.06-.59a2,2,0,0,0-.2-.28h0a2.21,2.21,0,0,1,.15-.18c0-.46,0-.72,0-.76l0,0c-.71.61-1.25.11-2,.86-1.25,1-4.29,1.46-5.44,1.88a6.82,6.82,0,0,1-2.25.54,2.42,2.42,0,0,1-2-1c-.7-1.16-1.75-.84-2.62-1.55s-1.79-.65-2.71-1.29a5.89,5.89,0,0,0-2.37-2.09.82.82,0,0,0-.53.18.27.27,0,0,1-.16.06.56.56,0,0,1-.21-.06.77.77,0,0,0-.19-.05h0c-.58-.79-.56-2.31-1.37-2.52h-.08"/><path class="m" d="M54.34,24.85a15.13,15.13,0,0,0-1.77.18l-.19,0c-.68,0-.91.82-.91,1.8a4.26,4.26,0,0,0,0,.5,12.11,12.11,0,0,0,.49,2.6c.68.13.84,1.13.85,2.14v.09h0A15.35,15.35,0,0,1,52.7,34a1.87,1.87,0,0,0,0,.32A5.6,5.6,0,0,0,54,36.51a10.73,10.73,0,0,0,1.26,1.25h0a.22.22,0,0,0,0,.08c0,.8,1.49,1.22,3.16,1.37.83-.1,2-.23,3.14-.3l1,0c1.71,0,3.16.29,3.2,1.41a2,2,0,0,0,.69.65,16.91,16.91,0,0,1,1.68.2c1-.23,2.28-1,4-2.9.67-.84,1.35-1.78,2-2.72a18.3,18.3,0,0,0,1.56-6.19,4.79,4.79,0,0,0-.22-1.51l-.17.09c-.48.26-.83.49-.83.49a15.55,15.55,0,0,1-2,2.48,8.52,8.52,0,0,1-3.91,2.42,6.37,6.37,0,0,1-1.7.23,7.18,7.18,0,0,1-1.62-.2,8.89,8.89,0,0,1-3.12-1.48,7.42,7.42,0,0,1-1.16-1c0-.64-1.76-2.05-3.38-3.38s-3.12-2.59-3.12-2.59h-.17"/><path class="n" d="M78.33,24.66c-1.06,0-2.63,1.64-3.13,2.2a2.21,2.21,0,0,0-.15.18,2,2,0,0,1,.2.28,4,4,0,0,1,.45,2h0a18.3,18.3,0,0,1-1.56,6.19L74,36c-.65.89-1.25,1.64-1.81,2.27-1.68,1.89-3,2.67-4,2.9a2.83,2.83,0,0,1-.63.07,2.08,2.08,0,0,1-1-.27,2,2,0,0,1-.69-.65c0-1.12-1.49-1.41-3.2-1.41l-1,0c-1.14.07-2.31.2-3.14.3l-.67.09c.66.25.86,1.86.86,1.86h.09c.74,0,1.52,1,2.14,2.08a19.44,19.44,0,0,1,1.08,2.19c.1,1.45.91,1.87,1.68,1.9h.14A3.71,3.71,0,0,0,65.1,47c1.24-1.42,1.75-1.52,1.87-1.52h0a1.88,1.88,0,0,0,.34,0c4.48,0,12.39-10.24,12.39-10.24a5,5,0,0,0,.85-3.07,17.32,17.32,0,0,0-1.22-5.69c0-1.4-.45-1.88-1-1.88"/><path class="n" d="M57.57,39.27a.65.65,0,0,0-.35.11l.53-.08-.18,0"/><path class="o" d="M89.07,38.48h0m0,0h0m0,0h0M81.85,18.17a.67.67,0,0,0-.37.1c-.7.61-1.5,1.62-2.21,2.39l1.59.58a1,1,0,0,1,.32-.06c.51,0,1,.4,1.28,1.1a1.79,1.79,0,0,1,.16.95h0A13.32,13.32,0,0,1,82.46,25c-.09.4-.36.84-.44,1.24-.27,1.51,0,2.46-.62,4.2a2.49,2.49,0,0,0-.16.93,3,3,0,0,0,.17,1.06s.07.05.14.05A12.93,12.93,0,0,0,84.85,31a26,26,0,0,1,2.91-1.57h0c.17,0,.44-.63.61-.67.53.35.63,1.48.81,2.52.27,1.25,1.78,1.93,1.78,2.08h0a14.07,14.07,0,0,1-1.66,3.5,4.21,4.21,0,0,0-.26.75,3.36,3.36,0,0,0-.06.63c0,.16,0,.28,0,.3h0c-.06,0-.09,0-.09.08,0,.25,1.22.88,1.72.88.13,0,.21,0,.21-.14a.39.39,0,0,0,0-.13h0a.47.47,0,0,0,.45.31,2.29,2.29,0,0,0,.85-.3,2.22,2.22,0,0,1,.91-.3.55.55,0,0,1,.18,0c.55.09.83,1.09,1.39,1.09a.52.52,0,0,0,.21,0,4.41,4.41,0,0,1,.79-.18c.23,0,.41.12.46.53a3,3,0,0,0,.36,1.15c.54.35,1.25.2,1.52,1s0,2,.57,2a.34.34,0,0,0,.16,0,.4.4,0,0,1,.15,0,.47.47,0,0,1,.17,0l.16,0a.25.25,0,0,0,.23-.16c-.09-.22-.09-.63-.22-.91-.18-.63-.6-.8-.72-1.49S98.22,40.53,98,40a2,2,0,0,0-.6-.69,5.11,5.11,0,0,0-2.56-1.57c-.2.25-.37.34-.53.34-.34,0-.6-.43-.89-.55-.12-.08-.18-.32-.29-.5-.36-.23-.89,0-1-.72a24.65,24.65,0,0,0-.5-4.51,19.13,19.13,0,0,0-2.2-4.6c-.59-.8-1.54-.39-2.19-.92h0a1.36,1.36,0,0,1,.15-.27l-.27-.05c-.08.09-.35.23-.44.32a1.11,1.11,0,0,1-.35-.69c-.28-3.09-2.31-3.75-2.92-6.3-.18-.42-.44-1-.87-1h0l-.16,0-.26,0-.27,0"/><path class="p" d="M62.05,52.29h.1l.3,0-.3,0h-.1"/><path class="p" d="M55.35,46.57a3.09,3.09,0,0,1,.86.21,2.7,2.7,0,0,1,.9.62,4.29,4.29,0,0,1,1,1.68,2,2,0,0,0-.08-.22,4,4,0,0,0-.91-1.46,2.7,2.7,0,0,0-.9-.62,3.09,3.09,0,0,0-.86-.21"/><path class="i" d="M65.27,51.17a7.06,7.06,0,0,0-.82.11h0a7.06,7.06,0,0,1,.82-.11h0"/><path class="p" d="M65.51,51.16h0a1.11,1.11,0,0,1,.49.08,1.07,1.07,0,0,0-.48-.08"/><path class="p" d="M66,51.24a.21.21,0,0,1,.11.14s0-.05,0-.08L66,51.24"/><path class="p" d="M64.44,51.28l0,.07a2.12,2.12,0,0,1-.54.57,2.42,2.42,0,0,1-1.35.4,2.45,2.45,0,0,0,1.35-.4,2.12,2.12,0,0,0,.54-.57l0-.07"/><path class="q" d="M89,25a2.17,2.17,0,0,0-1.59,1,1.36,1.36,0,0,0-.15.27h0c.65.53,1.6.12,2.19.92a19.13,19.13,0,0,1,2.2,4.6,24.65,24.65,0,0,1,.5,4.51c.07.75.6.49,1,.72.11.18.17.42.29.5.29.12.55.55.89.55.16,0,.33-.09.53-.34a5.11,5.11,0,0,1,2.56,1.57A2,2,0,0,1,98,40c.24.57.3,1.32.49,1.95s.54.86.72,1.49c.13.28.13.69.22.91h.06l.11,0,.1,0s.09,0,.11-.14a1.31,1.31,0,0,0,.07-.47c0-.18,0-.35,0-.52-.19-1.14-.26-2.41-.51-3.38-.61-2.23-1.45-4-2.7-4.82a.28.28,0,0,0-.12,0c-.23,0-.52.29-.76.38a.79.79,0,0,1-.35.09,1.79,1.79,0,0,1-.46-.09,1.86,1.86,0,0,0-.47-.09,1.09,1.09,0,0,0-.78.38.22.22,0,0,1-.13.06c-.07,0-.13-.06-.17-.16-.37-2.07-.74-3.94-1.16-5.85a15.6,15.6,0,0,0-2.14-4.25A1.64,1.64,0,0,0,89,25"/><path d="M28.66,83.57c-2.05-1.2-1.85-1.42-.85-3.8.66-1.57.36-3.54.45-5.34A21.91,21.91,0,0,0,28.2,72c-.18-2.79-.49-5.57-.54-8.36,0-1.58.39-3.17.51-4.76a12,12,0,0,0-.26-2c-.07-.7-.07-1.41-.14-2.11a7.2,7.2,0,0,0-.24-1.31,6.62,6.62,0,0,1-.42-2c-.81-1.15-1.56-2-.53-3.73.54-.89,0-2.45-.07-3.7,0-1-.64-2.07.71-2.72A2.08,2.08,0,0,0,26.79,40a1.77,1.77,0,0,1-.93-2.53,2.79,2.79,0,0,0,.05-2.12c-.58-1-.26-1.88-.05-2.89.43-2.05,1-3.39,3.61-3.57,1.75-.12,3.37-1.73,5.11-2.55a86.77,86.77,0,0,1,10-4.45c4.81-1.55,9.79-2.59,14.7-3.84a1.66,1.66,0,0,1,1,0c3.67,1.48,7.24,3.28,11,4.42a110.88,110.88,0,0,1,15.54,5.64c4.65,2.21,9.44,4.13,14.14,6.21,2.34,1,4.59,2.27,7,3.19,3,1.16,6,2.06,9,3.16.5.18.83.83,1.24,1.26l-.41.66A45.43,45.43,0,0,1,112.59,41c-9.68-4.25-19.24-8.74-29-12.83-5-2.08-10.17-3.48-15.26-5.22-2.06-.7-4.1-1.43-6.12-2.22-1.87-.73-3.71-1.37-5.77-.74-5.59,1.72-11.28,3.17-16.76,5.18-3.24,1.18-6.17,3.22-9.1,4.79C37.91,32.52,45,35.09,52.21,37.5c2.41.8,5,1.06,7.44,1.74,3,.84,6,1.9,9,2.79C73.81,43.54,79,45,84.17,46.48c1.56.45,3.13.94,4.64,1.54a7.4,7.4,0,0,1,4.24,3.45l27-9.17c1.38,4.9.83,10.09,1.57,15.55a26.28,26.28,0,0,1,.84,3c.26,1.54.12,3.16,1.52,4.33.29.24.32.88.35,1.34.2,3,.31,5.9.56,8.84.13,1.66-.53,3.49,1,4.9a.8.8,0,0,1,.08.68c-.94,2.41,0,4.75.19,7.12,0,.53-.2,1.07-.18,1.6,0,.8.16,1.61.25,2.41.24,2,.49,4,.71,6.08a21.43,21.43,0,0,1,.12,2.27c0,2.12-.38,3.72-2.65,5-3.65,2-6.85,4.87-10.39,7.13-2,1.3-4.42,2-6.51,3.19a115.66,115.66,0,0,0-10.55,6.59c-1.36,1-2.58.59-3.61.4-5.77-1.09-11.51-2.38-17.22-3.77-3.42-.84-6.77-2-10.15-3-2.23-.68-4.48-1.33-6.65-2.17-1.05-.4-1.88-1.32-2.91-1.79-4.51-2.06-9.08-4-13.58-6.07-1.69-.78-3.17-2-4.86-2.76a56.66,56.66,0,0,0-7.5-2.95c-2.11-.62-3.16-1.92-2.79-4,.32-1.81.46-3.65.6-5.48C28.41,88.41,28.51,86.13,28.66,83.57ZM39.22,38.44c-1.16-.5-1.34-3.82-3.66-1.55-.59-.47-1-1-1.41-1.1-2.18-.33-4.38-.54-6.64-.79a5,5,0,0,1,0,1.76c-.43,1.16-.27,1.74.85,2.5.54.37.75,2.42.3,2.82-1,.88-.58,1.73-.64,2.64-.1,1.39-.25,2.78-.37,4.17,0,.3-.1.81,0,.87,1.39.65,1.06,1.46.89,2.8-.23,1.85.6,3.84,1,5.77.08.41.34,1,.17,1.2-1.26,1.61-.62,3.43-.56,5.13A41.09,41.09,0,0,0,30,70a29.22,29.22,0,0,0-.51,3.13c.11,3,1,6.06-1.18,8.87,1.7.37,2.2,1.18,1.93,2.87a65.31,65.31,0,0,0-.68,8.4A2.82,2.82,0,0,0,31.16,96a26.61,26.61,0,0,1,3.53,2.57,3.15,3.15,0,0,1,1.36.16c2.37,1.11,4.68,2.33,7,3.49a1.22,1.22,0,0,0,.71,0c2.36-.52,4.16.72,6,1.84a39.37,39.37,0,0,0,4.82,2.69c3.06,1.32,6.3,2.26,9.27,3.73,1.62.8,2.36.59,3.22-.82s1.75-1.27,2.58.11l-1.55.44.34.83,2.82-1.36c0,.19.23.73.07,1.11-.71,1.7-.45,2.59,1.32,3.27a14.93,14.93,0,0,0,2.74.53v-2l2,.11-.69,1.83c6,1.84,11.68,4.44,18.13,4.08a5.63,5.63,0,0,0-.49-1.23,10.06,10.06,0,0,1-1.34-1.77c-.07-.18.89-.78,1.18-1,.08-1.59.17-3.07.21-4.55s.44-3.07-1.58-3.68c-.14,0-.15-.51-.22-.78C95,105,95,104.47,94.3,102.25a28.29,28.29,0,0,1-.85-5.14,1.28,1.28,0,0,1,.31-.83c1.32-1.69.73-3.61.56-5.4-.19-2.09-1-4.12.09-6.22.24-.43,0-1.17-.13-1.74-.28-1.21-.71-2.38-.92-3.59-.4-2.28.16-4.69-1.29-6.83-.37-.55,0-1.64.1-2.47.12-1,.38-2,.46-2.94.08-1.15-.64-2.32.36-3.45.23-.27-.15-1.13-.32-1.69a16.21,16.21,0,0,1-.76-2.15c-.25-1.66-.36-3.35-.5-4.79l-5.94-2.82c-.48,0-.72-.61-1.16-.86s-1,0-1.48-.08C80.6,51,79.05,49,76.7,49a3.41,3.41,0,0,1-2.36-.8c-1-1.16-2.22-1.28-3.44-1.69a15.82,15.82,0,0,1-1.69-.75,5.19,5.19,0,0,0-1.35-.68c-1-.15-2.14,0-3.15-.22-2.59-.63-5.12-1.49-7.71-2.14-1.22-.3-2.55-.17-3.75-.52-2.67-.78-5.28-1.76-7.93-2.6a3.24,3.24,0,0,0-1.26.09c.54.69,1.27,1.2,1.29,1.74s-.63,1.16-1,1.74c-.25-.2-.73-.52-.7-.58.65-1.33-1-1.58-1.14-2.43-.28-1.24-1-1.15-1.78-.88v1.18c-.51,0-1.34.08-1.46-.16A4.5,4.5,0,0,1,39.22,38.44ZM119.37,47a18.86,18.86,0,0,1-3.87,1.23c-2,.16-3.85.29-5.41,1.82a3.28,3.28,0,0,1-3.29.68,2.73,2.73,0,0,0-1.68.47,19.4,19.4,0,0,1-2.41,1.44c-1.26.41-2.63.44-3.91.81a30.64,30.64,0,0,0-4.75,1.73c-1.39.66-1.29,4.2-.2,6a6.21,6.21,0,0,1,.63,3c0,1.18-.36,2.37-.29,3.55s.21,2.07-.59,3c-.28.34-.36,1.35-.11,1.57,1.24,1,.93,2.41,1.07,3.71q.3,3,.74,5.93c.16,1.1.92,2.39.56,3.22-1,2.3-.15,4.45,0,6.66.08,1.77,1.2,3.7-.71,5.22a.78.78,0,0,0-.18.67c.3,1.49.71,3,.94,4.46.21,1.34.23,2.71.36,4.31,1.37.55,0,1.47-.42,2.35l1.72,1.28,1.67-1.79c0,1.76-.62,2.64-2,2.8-2,.25-2.2.54-1.19,2.23l1.4-1.17.59.48-1.7,2.69-.4-.19.18,2.45c1.71-1,3.21-1.75,4.65-2.62q4.85-2.91,9.62-5.9a7.3,7.3,0,0,0,1.31-1.4c.52-.57,1-1.6,1.55-1.61a7,7,0,0,0,4.32-1.82,15.88,15.88,0,0,1,1.69-1.4c2.12-1.27,4.28-2.46,6.06-3.47.85-3.9-.81-7.24-.94-10.84-.11-3.17.8-6.74-1.16-9.79-.17-.26,0-.72,0-1.09-.13-2.29.78-4.73-1-6.77A1.14,1.14,0,0,1,122,70c.26-1.41.57-2.81.86-4.22l-2,.3c.08-.68.19-1.36.24-2,.06-.86.09-1.71.14-2.72-.77.85-1.27,1.85-1.87,1.92s-1.19-.91-1.79-1.43l3.13-2.21c-.43-.81-1.33-1.83-1.12-2.21,1.14-2,.15-4,.23-5.9A29.42,29.42,0,0,0,119.37,47Zm-35.69,0-.46.27c0,2.29.17,2.54,2.5,2.27Zm4.9,5.31.54-.13c.2-2.54.2-2.54-1.52-3C88,50.45,88.27,51.42,88.58,52.38Zm2.32-1.83-.75.23a11.74,11.74,0,0,0,0,2c0,.26.45.51.75.66.11.05.54-.24.52-.32C91.31,52.24,91.09,51.4,90.9,50.55Z"/><path d="M112.68,42.08c-2.31.83-4.64,1.6-6.91,2.52-3.47,1.39-6.88,2.92-10.34,4.33a7.78,7.78,0,0,1-2,.26l-.06-.61,18.9-7.27Z"/><path d="M106.3,40.45,88.89,47.38l-.3-.8C94.6,44.82,100,41.27,106.3,40.45Z"/><path d="M58.67,26.76,43.61,33.53C44.27,32,55.82,26.89,58.67,26.76Z"/><path d="M55.21,25.44c-4.79,2.22-9.58,4.46-14.33,6.77l-.39-.91L55,25Z"/><path d="M62.06,28.06l-14,5.84C49.71,31.94,58.38,28.34,62.06,28.06Z"/><path d="M82.28,42l15-5.82.18.47L82.53,42.79Z"/><path d="M74.59,39.85,86.92,35.2l.21.54c-2,.77-4.07,1.47-6,2.35-1.47.65-2.8,1.59-4.26,2.27a7.49,7.49,0,0,1-2.09.34Z"/><path d="M99.38,39.57,86.65,44.76l-.27-.69,12.79-5Z"/><path d="M90.42,37.12,78.73,41.53C82.05,38.55,86.28,38,90.42,37.12Z"/><path d="M52.42,35.1c.3-.41.51-1,.9-1.2a53.35,53.35,0,0,1,8.38-2.75l-8.87,4.42Z"/><path d="M51.29,25.08,38.16,30.83l-.25-.57L51.09,24.6Z"/><path d="M46.83,45.54c-1.39.54-2.77,1.14-4.21,1.57-.18.06-.88-.72-.88-1.13s.44-1.29.77-1.33a11.41,11.41,0,0,1,2.58.26c.53.06,1.06.1,1.59.14Z"/><path d="M47.21,48.33c-.05-.66-.09-1.32-.19-2.64.79.73,1.43,1.07,1.65,1.59a6.71,6.71,0,0,1,0,2.21l1.45-1.07.38.25a11.92,11.92,0,0,1-.92,1.68,27.83,27.83,0,0,1-3.08-1.45Z"/><path d="M81.57,110l2-1.35.37.46a9.39,9.39,0,0,1-2.45,1.66c-.36.11-1.19-.84-1.58-1.45-.18-.3.16-.94.27-1.42.35.35.74.67,1,1A4,4,0,0,1,81.57,110Z"/><path d="M86.49,104a8,8,0,0,1-.27,2.28,1.47,1.47,0,0,1-1.37.39,7.19,7.19,0,0,1-1.3-1.78Z"/><path d="M91.24,115.45a9.83,9.83,0,0,1-2-.72c-.15-.08-.09-1,.13-1.16a6.31,6.31,0,0,1,1.76-.6c.18.66.36,1.31.55,2Z"/><path d="M76.26,103.35c2.34-.34,2.45-.24,2.27,2l-2,.11C76.46,104.68,76.37,104.07,76.26,103.35Z"/><path d="M86.2,111.24l1.35.19c.17-.32.31-.58.44-.84.33.34.92.7.91,1s-.61,1.32-.77,1.28a13.06,13.06,0,0,1-2.28-1Z"/><path d="M74.57,109.11c1.15.18.59-2.29,2.22-1.21a1.83,1.83,0,0,1,.2,1.53,8.47,8.47,0,0,1-2.16.56C74.75,109.7,74.66,109.41,74.57,109.11Z"/><path d="M89.64,103.38c.18.66.35,1.32.53,2l-2,0,.48-2Z"/><path d="M41,42.32,39.68,45c-1.1,0-1-.76-.81-1.67C39.14,41.87,40,42,41,42.32Z"/><path d="M35.59,45.52c-.12,1-.19,1.57-.3,2.48a6.73,6.73,0,0,1-1.53-.66,1.28,1.28,0,0,1-.19-1.07A13.26,13.26,0,0,1,35.59,45.52Z"/><path d="M46.86,44c.22-.49.31-1.21.69-1.42s1.06.11,1.44.4a1.38,1.38,0,0,1,.12,1.12,10.57,10.57,0,0,1-1.87.42Z"/><path d="M78.43,97.32l1.68,1.29-1.27,1.12c-.38-.56-.76-1.13-1.13-1.7Z"/><path d="M89.75,110.88l1.51-2.1a5,5,0,0,1,1,1.31c.09.28-.25,1-.47,1A8.21,8.21,0,0,1,89.75,110.88Z"/><path d="M36.52,49.21,37,46.9l1.15.28-.57,2.26Z"/><path d="M74.38,104.29c.91,1.35.89,1.44-.68,2.54C73,105.71,72.92,104.82,74.38,104.29Z"/><path d="M32.4,43c-.32-.47-.88-1-.87-1.42s.77-.66,1.19-1l.57,2Z"/><path d="M79.86,102.51l1.34-1.23c.3.36.91.87.82,1a3,3,0,0,1-1.18,1.08C80.74,103.46,80.31,102.93,79.86,102.51Z"/><path d="M115.76,50.71v1.61l-1.42-.16.3,1.53-.43.37c-.43-.51-1.23-1-1.24-1.51C112.94,51.14,114.09,50.47,115.76,50.71Z"/><path d="M115.13,55l1.12-1.58c.26,1.34.42,2.21.59,3.08-1.77.39-3.18-.44-3.11-1.84Z"/><path d="M115.73,68.06l.22-1.21.44,0a9.44,9.44,0,0,1,.16,2.41c-.06.32-1.1.82-1.31.67a9.18,9.18,0,0,1-1.61-1.73Z"/><path d="M109,61.92a5.94,5.94,0,0,1-.46-2.24c.1-.41,1-.82,1.57-.89.35,0,.77.57,1.16.89l-.8.77Z"/><path d="M115.79,56.8c0,1,.34,1.85,0,2.17a3.46,3.46,0,0,1-2,.67c-.23,0-.52-.54-.78-.84a5.65,5.65,0,0,0,1-.45C114.51,58,114.92,57.58,115.79,56.8Z"/><path d="M112.25,66.07a7.86,7.86,0,0,1-2,.42c-.2,0-.39-.82-.58-1.26l2.35-.32C112.11,65.3,112.18,65.68,112.25,66.07Z"/></svg>