<svg xmlns="http://www.w3.org/2000/svg" viewBox="0 0 150 150"><defs><style>.a{fill:#fdecd7;}.b{fill:#fcd7ab;}.c{fill:#fcd6a7;}.d{fill:#fddab3;}.e{fill:#fde3c5;}.f{fill:#fef4e7;}.g{fill:#fde2c1;}.h{fill:#fffaf5;}</style></defs><title>icon</title><path class="a" d="M37.48,95.18c0,.3.07.6.11.87a4.06,4.06,0,0,0,.18.68,6.33,6.33,0,0,1,.17-1.12,1.84,1.84,0,0,0,.05-.25l-.51-.18m11.71,0-1.42,0c1.07.25,2.1.48,3.12.68q2.89.59,5.52.9c.78.09,1.53.18,2.29.23-.56-.23-1.13-.45-1.71-.64a22.49,22.49,0,0,0-4.57-1,27.71,27.71,0,0,0-3.23-.18m40.75-9.84c.16.53.33,1,.48,1.41-.14-.38-.3-.83-.48-1.41M54.06,81c-1.78.28-3.66.82-6,1.14l-.88.39.42,0A50.06,50.06,0,0,0,53,81.24q.55-.15,1.11-.27M64,80.24l.77.63a21.29,21.29,0,0,0,1.81,1.32,3.9,3.9,0,0,0-1.64-1.6,4.71,4.71,0,0,0-.94-.35m-9.67-2.95-.15.06,0,0,.07,0,0,0m57.72-.84a23,23,0,0,0-6.83.91,28.71,28.71,0,0,0-6.28,2.94c-3.55,2.2-3.82,5.09-5.24,6.58a2.32,2.32,0,0,1-1.8.75,3,3,0,0,1-.42,0,3.66,3.66,0,0,1-.78-.18l-.27-.66c.1.26.2.5.29.71a8.12,8.12,0,0,0,2.68.73A9.36,9.36,0,0,0,93.79,87c1.44-1.51,1.71-4.37,5.26-6.57a27.82,27.82,0,0,1,6.28-2.94,22.46,22.46,0,0,1,6.84-.92H113a2.4,2.4,0,0,1,1.37.52,2.67,2.67,0,0,0-1.48-.61h-.8M87.19,56.82v0h0l0,0m7.72-15a3.89,3.89,0,0,1-.34.36,6.91,6.91,0,0,0,.33.67c0-.33,0-.67,0-1M58.77,67.29h0m17.78-4a.93.93,0,0,0,.27,0,3.09,3.09,0,0,0,.68-.28,21.17,21.17,0,0,1,1.73-2,3.45,3.45,0,0,0,.52-.76l0-.08h0l0,.06h0v0h0c-.14.37-.27.74-.38,1.11l0,0h0a.32.32,0,0,1,0,.08c0,.19-.13.64-.18,1.11v.08a13.51,13.51,0,0,0-.08,1.37v0h0c0,.29,0,.57,0,.82v0h0a3.88,3.88,0,0,0,.34,1.91v0c.12.18.25.27.37.27h0L80,67l.07-.07,0,0,.18,0a7.17,7.17,0,0,0,3.06-2,7.17,7.17,0,0,1-3.06,2l-.18,0,0,0L80,67l-.18.06h0c-.12,0-.25-.09-.37-.27v0a3.88,3.88,0,0,1-.34-1.91h0v0c0-.25,0-.53,0-.82h0v0a13.51,13.51,0,0,1,.08-1.37v-.08c0-.47.15-.92.18-1.11a.32.32,0,0,0,0-.08h0l0,0h0c.11-.37.24-.74.38-1.11v.05a.08.08,0,0,1,0-.05v0h0l0-.06h0l0,.08a3.45,3.45,0,0,1-.52.76,21.17,21.17,0,0,0-1.73,2,3.09,3.09,0,0,1-.68.28.93.93,0,0,1-.27,0c-.12,0-.21,0-.21-.13h0l.08-.19s0-.08-.14-.08a1.49,1.49,0,0,0-.5.15c-.32.14-.81.38-1.56.79a4.76,4.76,0,0,1-.64.32h0l-.48,0h0l-.46.12a3.65,3.65,0,0,0-.87.46h0l.14-.12h0s-4.13,3.44-5.43,4.47c1.3-1,5.41-4.47,5.43-4.47h0l-.14.12a3.65,3.65,0,0,1,.87-.46l.46-.12h0l.48,0h0a4.76,4.76,0,0,0,.64-.32c.75-.41,1.24-.65,1.56-.79a1.49,1.49,0,0,1,.5-.15c.14,0,.14.08.14.08h0l-.08.19c0,.1.09.13.21.13M67.37,38.14c-.49.12-.85,1.39-1.34,1.52h0a3.08,3.08,0,0,0-1,.37c-.5.24-1.25.57-2.37,1l-4.43,1.57a37.64,37.64,0,0,0-6.37,3,23.64,23.64,0,0,0-3.24,2.34,20.86,20.86,0,0,0-2.5,2.61,19.88,19.88,0,0,0-2.78,4.69c-1.08,2.63-1.35,4.16-1.81,4.49a5.92,5.92,0,0,1-2.7.67,2.66,2.66,0,0,1-1.78-.53,8.69,8.69,0,0,0-4.28-1.4A27.29,27.29,0,0,1,28.59,58c-.79-.27-1.45-1.16-2.24-1.42a12.26,12.26,0,0,0-2.53-.28,4.77,4.77,0,0,0-3.92,1.46,15.3,15.3,0,0,0-3.62,5.55c-.25.64-.47,1.22-.68,1.92s-.37,1.39-.51,2.09-.26,1.5-.34,2.23-.11,1.55-.11,2.28a41.84,41.84,0,0,0-.07,10.83c.17,1.23.38,2.46.65,3.69.16.39.33.78.5,1.16.48,1,1,2,1.54,3A29.24,29.24,0,0,0,19,93.11,22.89,22.89,0,0,0,22.71,97a13.91,13.91,0,0,0,4.56,2.74c.92.37,1.39.6,1.69,1.28,0,.05.11.07.23.07a14,14,0,0,0,2.77-.69,12.43,12.43,0,0,1,4.27-.76,9.71,9.71,0,0,1,1.21.07c0-.09.1-.72.22-1.82h-.1c-.43,0-1.11-.08-1.8-.11h-.09a9.43,9.43,0,0,1-5.76-2.12A16.47,16.47,0,0,1,26,91.38a20.88,20.88,0,0,1-1.76-3.3A22.85,22.85,0,0,1,23,84.36a18.43,18.43,0,0,1-.39-3.71,17.14,17.14,0,0,1,.08-1.76A14.21,14.21,0,0,1,23,77.26a10.07,10.07,0,0,1,2.69-5.08l.18-.36c.11-.21.29-.52.51-.91a18,18,0,0,1,1.95-2.78,16.66,16.66,0,0,1,6.28-4.64,13.38,13.38,0,0,1,5.05-1,13.82,13.82,0,0,1,1.47.09,5.77,5.77,0,0,1,4.6,2.7l2.4,4.08a38.73,38.73,0,0,0,2.71,4.07,10.54,10.54,0,0,0,4,3.37l.39.14a21.46,21.46,0,0,0,2-1.1A43.85,43.85,0,0,0,61,73.3l.92-.66.22-.14a2.8,2.8,0,0,1,.46-.22,3.6,3.6,0,0,1,1.08-.16h0c.33,0,.73.1,1,.1a.65.65,0,0,0,.2,0q.93-.06,1.71-.06h.18a4.8,4.8,0,0,1,2.64.57s0,0,.17,0a1.31,1.31,0,0,0,.45-.1,8.94,8.94,0,0,0,2.87-2.07s.35-.14.75-.25a2.42,2.42,0,0,1,.81-.18.78.78,0,0,1,.31,0c.47.19.73.8.37,3.11A10.34,10.34,0,0,0,76,76.85c.6,1.38,1.73,2.61,2.66,2.61a1,1,0,0,0,.58-.19,7.81,7.81,0,0,0,.94,1.89,3.64,3.64,0,0,0,.47.54l.12.11.2.09a2.19,2.19,0,0,0,.4.11l.32,0h.08l.43-.22.68-.37a1.51,1.51,0,0,1-1.11.59l-.36.19-.49.24a1.77,1.77,0,0,0-.39.27h0a31,31,0,0,1,4.61-1,11.61,11.61,0,0,1,1.48-.11,4.66,4.66,0,0,1,.89.07,1.2,1.2,0,0,1,1,.85,1.8,1.8,0,0,1,.56.26l.15.16.05.1v0l.07.28,0,.2c-.09-.37-.18-.74-.28-1.11s-.23-1-.36-1.62-.29-1.36-.44-2.16l-.27-1.43-.28-1.59-.33-2c0-.32-.09-.63-.14-1a14.34,14.34,0,0,0,3.93-1.84,4.48,4.48,0,0,0,1.64-1.7c.13-.3.07-.36.37-.42a13.3,13.3,0,0,1,3.95-1.08,7.13,7.13,0,0,0,4-1.94,7.53,7.53,0,0,0,1.28-2.34,7.34,7.34,0,0,0,.36-2.2,8.21,8.21,0,0,0-.92-3.91A63.65,63.65,0,0,0,97.14,49a18.41,18.41,0,0,1-1.74-3.42l-.09-.29a3,3,0,0,1-.32.41c-.64.79-1.67,1.48-2.23,2.08A3.73,3.73,0,0,0,92,50.05a7.56,7.56,0,0,1-.33,2.4,4.46,4.46,0,0,1-2.3,1.22c-1.66.29-1,1.51-1,2.75.11.61-.23.92-.55.92a.52.52,0,0,1-.29-.09.8.8,0,0,1-.13-.13l0,0,0,0v0l0-.06-.14-.17,0,0-.08-.09-.15-.16h0c-.28.1-1.1,1-2.12,1.53a4.28,4.28,0,0,1-1.6.57H83a1.88,1.88,0,0,1-1.28-.49c.45.44,0,.61-.72.61-1.93,0-6.2-1.06-5-1.44a3.28,3.28,0,0,1-.57-1.86c.09-.51.06-1.34.26-1.56,1.53-1.73,1.74-4.94,2.46-7.46-.1-.31-5-1.2-6.62-3.6-1.24-2-2.29-4.23-4.09-4.76"/><path class="b" d="M114.33,77.07A1.81,1.81,0,0,1,115,78c.25,1.81-2.43,4.31-3.62,7.71.11.59-.23,1.74.15,2.27a3.38,3.38,0,0,1,.45,2,19.84,19.84,0,0,1-3.14,7.45,17.9,17.9,0,0,1-7,6,23.32,23.32,0,0,1-4.3,2.12A28,28,0,0,1,90.9,107a20.33,20.33,0,0,1-2.19.11h-.53c-.4,0-.79,0-1.17,0-1.34,0-2.58.19-3.82.29a12.1,12.1,0,0,1-1.21.06h-.2c-.4,0-.81,0-1.21,0a9.65,9.65,0,0,1-2.87-.71,18.64,18.64,0,0,0-5.49-.93c-.49,0-1,0-1.48.07-2.36.19-5,1-8.9,1.77a13,13,0,0,1-5.41-.21A24.18,24.18,0,0,1,53,106.23l-.85-.35-.8-.41-1.6-.8a22.93,22.93,0,0,0-5.61-2.07H44.1c-2.45,0-3.93-2.46-6.49-2.9l-.17,0h0c2.57.45,4.05,2.92,6.51,2.92H44a22.63,22.63,0,0,1,5.66,2.1l1.62.81.81.41.86.36a25,25,0,0,0,3.41,1.17,13,13,0,0,0,3.21.4,12.27,12.27,0,0,0,2.1-.18c1.93-.34,3.58-.79,5-1.09a31.81,31.81,0,0,1,3.89-.65c.51,0,1-.07,1.48-.07a18.39,18.39,0,0,1,5.51.93,9.64,9.64,0,0,0,2.88.71,11.84,11.84,0,0,0,1.19,0h.22a12.07,12.07,0,0,0,1.23-.06c1.24-.09,2.48-.29,3.81-.29a11.81,11.81,0,0,1,1.18.06h.56c.73,0,1.41,0,2.16-.1a25.16,25.16,0,0,0,3-.48,27,27,0,0,0,3.62-1,23.28,23.28,0,0,0,4.34-2.09,18,18,0,0,0,7.06-6,20,20,0,0,0,3.2-7.5,3.53,3.53,0,0,0-.44-2c-.38-.53,0-1.69-.15-2.28,1.2-3.43,3.89-5.93,3.63-7.75a1.63,1.63,0,0,0-.67-.89l-.09-.08"/><path class="c" d="M112.17,76.54a22.46,22.46,0,0,0-6.84.92,27.82,27.82,0,0,0-6.28,2.94c-3.55,2.2-3.82,5.06-5.26,6.57a9.36,9.36,0,0,1-.39,1.23l.27,0h.4c1.79,0,3.59-.93,3.43-2.45,0,0,.59-.51,1.44-1.32s2-1.95,3.1-2.94c1.29-1.14,2.61-2,3.59-2,.74,0,1.28.49,1.46,1.73,0,0,.39.86.79,2a15.46,15.46,0,0,1,.87,3.78s0,.12-.09.33-.16.56-.28,1a25.9,25.9,0,0,1-1.33,3.5,21.33,21.33,0,0,1-3,4.77,15.67,15.67,0,0,1-5.6,4.32,15,15,0,0,1-6.19,1.22h-.13a31.75,31.75,0,0,1-4.56-.43c-2.61-.42-4.47-1-4.85-1.55,0,0-.7-.2-1.94-.46s-3-.58-5-.84A52.06,52.06,0,0,0,69,98.39h-.33c-1.15,0-2.35.08-3.59.1h-.34a11.38,11.38,0,0,1-3.69-.55c-.83-.28-1.61-.61-2.39-.93-.76-.05-1.51-.14-2.29-.23q-2.62-.32-5.52-.9c-1-.2-2-.43-3.12-.68a37.31,37.31,0,0,0-7,1L40,96l-.85-.28c-.33-.11-.71-.26-1-.34l-.13,0a1.84,1.84,0,0,1-.05.25,6.33,6.33,0,0,0-.17,1.12c.13.37.31.76.48,1.13h-.59c-.12,1.1-.2,1.73-.22,1.82l.17,0c2.56.44,4,2.9,6.49,2.9h.07a22.93,22.93,0,0,1,5.61,2.07l1.6.8.8.41.85.35a24.18,24.18,0,0,0,3.39,1.15,13,13,0,0,0,5.41.21c3.87-.78,6.54-1.58,8.9-1.77.5,0,1-.07,1.48-.07a18.64,18.64,0,0,1,5.49.93,9.65,9.65,0,0,0,2.87.71c.4,0,.81,0,1.21,0H82a12.1,12.1,0,0,0,1.21-.06c1.24-.1,2.48-.29,3.82-.29.38,0,.77,0,1.17,0h.53A20.33,20.33,0,0,0,90.9,107a28,28,0,0,0,6.65-1.54,23.32,23.32,0,0,0,4.3-2.12,17.9,17.9,0,0,0,7-6A19.84,19.84,0,0,0,112,89.93a3.38,3.38,0,0,0-.45-2c-.38-.53,0-1.68-.15-2.27,1.19-3.4,3.87-5.9,3.62-7.71a1.81,1.81,0,0,0-.65-.89,2.4,2.4,0,0,0-1.37-.52h-.79"/><path class="d" d="M105.63,79.51c-1,0-2.3.87-3.59,2-1.13,1-2.24,2.13-3.1,2.94s-1.44,1.32-1.44,1.32c.16,1.52-1.64,2.45-3.43,2.45h-.4l-.27,0a8.12,8.12,0,0,1-2.68-.73c-.09-.21-.19-.45-.29-.71v0c-.15-.41-.32-.88-.48-1.41s-.27-.86-.4-1.35l-.12-.43,0-.2-.07-.28v0l-.05-.1-.15-.16a1.8,1.8,0,0,0-.56-.26,1.2,1.2,0,0,0-1-.85,4.66,4.66,0,0,0-.89-.07,11.61,11.61,0,0,0-1.48.11,31,31,0,0,0-4.61,1,25.42,25.42,0,0,1-4.24,2.4,21.15,21.15,0,0,1-5.53,1.65,6,6,0,0,1-.93.07,3.54,3.54,0,0,1-1.35-.23,1.9,1.9,0,0,1-1.19-1.28,2.53,2.53,0,0,1,0-1.26,7.16,7.16,0,0,0-.42-1.36,4,4,0,0,0-.27-.55,21.29,21.29,0,0,1-1.81-1.32L64,80.24A8.7,8.7,0,0,0,61.78,80a20.58,20.58,0,0,0-2.08.12c-1.3.13-2.87.38-4.79.73l-.85.12q-.56.12-1.11.27a50.06,50.06,0,0,1-5.3,1.21l-.42,0L46,83.08a26.63,26.63,0,0,0-4.61,2.64,9.61,9.61,0,0,0-3.64,5.17,11.08,11.08,0,0,0-.33,3.5c0,.26,0,.53.06.79l.51.18.13,0c.32.08.7.23,1,.34L40,96l.76.22a37.31,37.31,0,0,1,7-1l1.42,0a27.71,27.71,0,0,1,3.23.18,22.49,22.49,0,0,1,4.57,1c.58.19,1.15.41,1.71.64.78.32,1.56.65,2.39.93a11.38,11.38,0,0,0,3.69.55h.34c1.24,0,2.44-.1,3.59-.1H69a52.06,52.06,0,0,1,6.78.49c2,.26,3.72.58,5,.84s1.94.46,1.94.46c.38.58,2.24,1.13,4.85,1.55a31.75,31.75,0,0,0,4.56.43h.13a15,15,0,0,0,6.19-1.22,15.67,15.67,0,0,0,5.6-4.32,21.33,21.33,0,0,0,3-4.77,25.9,25.9,0,0,0,1.33-3.5c.12-.41.21-.74.28-1s.09-.33.09-.33a15.46,15.46,0,0,0-.87-3.78c-.4-1.17-.79-2-.79-2-.18-1.24-.72-1.73-1.46-1.73"/><path class="e" d="M82.92,81.45l-.68.37-.43.22a1.51,1.51,0,0,0,1.11-.59m-28.74-4.1.15-.06,0,0-.07,0,0,0m.27-.1h0M39.67,62.47a13.38,13.38,0,0,0-5.05,1,16.66,16.66,0,0,0-6.28,4.64,18,18,0,0,0-1.95,2.78c-.22.39-.4.7-.51.91l-.18.36A10.07,10.07,0,0,0,23,77.26a14.21,14.21,0,0,0-.28,1.63,17.14,17.14,0,0,0-.08,1.76A18.43,18.43,0,0,0,23,84.36a22.85,22.85,0,0,0,1.16,3.72A20.88,20.88,0,0,0,26,91.38a16.47,16.47,0,0,0,3.95,4.25,9.43,9.43,0,0,0,5.76,2.12h.09c.69,0,1.37.11,1.8.11h.69c-.17-.37-.35-.76-.48-1.13a4.06,4.06,0,0,1-.18-.68c0-.27-.08-.57-.11-.87s0-.53-.06-.79a11.08,11.08,0,0,1,.33-3.5,9.61,9.61,0,0,1,3.64-5.17A26.63,26.63,0,0,1,46,83.08l1.23-.58.88-.39c2.29-.32,4.17-.86,6-1.14l.85-.12c1.92-.35,3.49-.6,4.79-.73A20.58,20.58,0,0,1,61.78,80a8.7,8.7,0,0,1,2.22.24,4.71,4.71,0,0,1,.94.35,3.9,3.9,0,0,1,1.64,1.6,4,4,0,0,1,.27.55,7.16,7.16,0,0,1,.42,1.36,2.53,2.53,0,0,0,0,1.26,1.9,1.9,0,0,0,1.19,1.28,3.54,3.54,0,0,0,1.35.23,6,6,0,0,0,.93-.07,21.15,21.15,0,0,0,5.53-1.65,25.42,25.42,0,0,0,4.24-2.4h0a1.77,1.77,0,0,1,.39-.27l.49-.24.36-.19h-.08l-.32,0a2.19,2.19,0,0,1-.4-.11l-.2-.09-.12-.11a3.64,3.64,0,0,1-.47-.54,7.81,7.81,0,0,1-.94-1.89,1,1,0,0,1-.58.19c-.93,0-2.06-1.23-2.66-2.61a10.34,10.34,0,0,1-.86-3.54c.36-2.31.1-2.92-.37-3.11a.78.78,0,0,0-.31,0,2.42,2.42,0,0,0-.81.18c-.4.11-.75.25-.75.25a8.94,8.94,0,0,1-2.87,2.07,1.31,1.31,0,0,1-.45.1c-.14,0-.17,0-.17,0a4.8,4.8,0,0,0-2.64-.57h-.18q-.78,0-1.71.06a.65.65,0,0,1-.2,0c-.3,0-.7-.1-1-.1h0a3.6,3.6,0,0,0-1.08.16,2.8,2.8,0,0,0-.46.22l-.22.14L61,73.3a43.85,43.85,0,0,1-3.75,2.52,21.46,21.46,0,0,1-2,1.1l-.39-.14a10.54,10.54,0,0,1-4-3.37,38.73,38.73,0,0,1-2.71-4.07l-2.4-4.08a5.77,5.77,0,0,0-4.6-2.7,13.82,13.82,0,0,0-1.47-.09"/><path class="f" d="M87.2,56.84h0v0M85.69,53h0l-.35.42a5.19,5.19,0,0,0-.36.46,3.72,3.72,0,0,0-.33.45l-.19.26h0l.13.09,0,0h0L85,55l.21.15,0,0c.41.31.76.59,1,.82a7.76,7.76,0,0,1,.91.9l.1.12h0l0,0a3.33,3.33,0,0,1-.16-.3l0-.05,0,0c-.06-.15-.14-.34-.22-.58a4.84,4.84,0,0,1-.14-.49c0-.09,0-.18-.08-.28s-.08-.34-.11-.52,0-.18,0-.27a5.25,5.25,0,0,1-.09-.55v-.07l0,0a5.09,5.09,0,0,0-.35-.78.75.75,0,0,0-.31,0m8.16-11.49h-.1c-.12.59-.68,1.25-.92,2-.64,1.35-.43,2.59-1.51,3.63a26.69,26.69,0,0,1-3.19,2.68,5.08,5.08,0,0,0-1.07,1.46c-.3.39-.59.75-.86,1.08a2.29,2.29,0,0,1,0,.25c0,.34.07.69.13,1l0,.24h0v.06h0l0,.31c0,.19.06.35.09.5s.08.35.11.52l0,.1c0,.07,0,.13,0,.18s.1.35.14.49a5.56,5.56,0,0,0,.25.62l.08.17,0,0,.07.12h0l0,0,.06.08L87.31,57h0l-.1-.12,0-.06.14.17,0,.06v0l0,0,0,0a.8.8,0,0,0,.13.13.52.52,0,0,0,.29.09c.32,0,.66-.31.55-.92.05-1.24-.63-2.46,1-2.75a4.46,4.46,0,0,0,2.3-1.22,7.56,7.56,0,0,0,.33-2.4,3.73,3.73,0,0,1,.75-2.29c.56-.6,1.59-1.29,2.23-2.08a3,3,0,0,0,.32-.41,1.52,1.52,0,0,0-.13-2.07,1.6,1.6,0,0,1-.28-.35,6.91,6.91,0,0,1-.33-.67c-.18-.37-.37-.67-.72-.67M76,57.35h0M60.33,32.94c-.63,0-1.31,0-2,.06-.46.24-2.36.78-2.94,1.1-2,.12-3.72.07-6.24.11-.43,0-.87-.05-1.34-.05a23,23,0,0,0-5.49.72,31.18,31.18,0,0,0-7.11,2.79A37.23,37.23,0,0,0,32,39.61c-.94.63-1.94,1.37-2.77,2S27.56,43,26.78,43.7s-1.43,1.33-2,1.92L23,47.38l-1.48,1.51a24.78,24.78,0,0,1-2.43,2.24l-4.91,3.73A14.9,14.9,0,0,0,13,56.11a13.74,13.74,0,0,0-1.31,1.72,15.43,15.43,0,0,0-2.12,5.08c-.14.8-.33,1.69-.51,2.59s-.37,2-.52,3-.27,2.19-.32,3.22a19.67,19.67,0,0,0,.09,3.1,39.2,39.2,0,0,0,3.55,10.64,43.75,43.75,0,0,0,2.85,4.85c.51.76,1.06,1.5,1.61,2.2s1.09,1.36,1.62,1.93a39.48,39.48,0,0,1-2.13-5.76c-.23-.78-.43-1.57-.6-2.35-.27-1.23-.48-2.46-.65-3.69a41.84,41.84,0,0,1,.07-10.83c0-.73,0-1.55.11-2.28s.19-1.48.34-2.23.31-1.39.51-2.09.43-1.28.68-1.92a15.3,15.3,0,0,1,3.62-5.55,4.77,4.77,0,0,1,3.92-1.46,12.26,12.26,0,0,1,2.53.28c.79.26,1.45,1.15,2.24,1.42a27.29,27.29,0,0,0,4.22.46,8.69,8.69,0,0,1,4.28,1.4,2.66,2.66,0,0,0,1.78.53,5.92,5.92,0,0,0,2.7-.67c.46-.33.73-1.86,1.81-4.49a19.88,19.88,0,0,1,2.78-4.69,20.86,20.86,0,0,1,2.5-2.61,23.64,23.64,0,0,1,3.24-2.34,37.64,37.64,0,0,1,6.37-3L62.7,41c1.12-.41,1.87-.74,2.37-1a3.08,3.08,0,0,1,1-.37h0c.49-.13.85-1.4,1.34-1.52,1.8.53,2.85,2.75,4.09,4.76,1.65,2.4,6.52,3.29,6.62,3.6-.72,2.52-.93,5.73-2.46,7.46-.2.22-.17,1-.26,1.56a3.28,3.28,0,0,0,.57,1.86c-1.18.38,3.09,1.44,5,1.44.77,0,1.17-.17.72-.61A1.88,1.88,0,0,0,83,58.7h.24a4.28,4.28,0,0,0,1.6-.57c1-.57,1.84-1.43,2.12-1.53h0l.15.16a12.45,12.45,0,0,0-1.82-1.57l-.65-.46,0,0-.14-.09h0l-.15-.09c-.31-.22-.57-.37-.94-.61-.66-.4-1.56-1-2.63-1.54l-1-.52-.46-.24,0,0-.11-.09,0-.1a12.11,12.11,0,0,0,2.93-.83c.23-.1.46-.2.7-.32a38.79,38.79,0,0,0-3.78-7c-1.44-2.06-7.85-7.6-9.59-8.49a6.55,6.55,0,0,0-3.52-.78h-.19a49.92,49.92,0,0,1-5.7-.4c-.11,0,0-.25.46-.6h-.11"/><path class="g" d="M79.08,64.82a3.88,3.88,0,0,0,.34,1.91,3.88,3.88,0,0,1-.34-1.91m4.27,0a7.17,7.17,0,0,1-3.06,2l-.18,0,0,0L80,67l-.18.06h0c-.12,0-.25-.09-.37-.27v0c.12.18.25.27.37.27h0L80,67l.07-.07,0,0,.18,0a7.17,7.17,0,0,0,3.06-2m-4.27,0v0h0v0m-7.17-.19h0m0,0h0s-4.13,3.44-5.43,4.47c1.3-1,5.41-4.47,5.43-4.47h0m1.19-.46h0l-.46.12a3.65,3.65,0,0,0-.87.46l.14-.12-.14.12h0a3.65,3.65,0,0,1,.87-.46l.46-.12h0m.48,0-.48,0,.48,0M79.11,64c0,.29,0,.57,0,.82,0-.25,0-.53,0-.82m-2.69-1-.08.19h0l.08-.19h0m-.14-.08a1.49,1.49,0,0,0-.5.15c-.32.14-.81.38-1.56.79a4.76,4.76,0,0,1-.64.32h0a4.76,4.76,0,0,0,.64-.32c.75-.41,1.24-.65,1.56-.79a1.49,1.49,0,0,1,.5-.15c.14,0,.14.08.14.08h0s0-.08-.14-.08m2.91-.28a13.51,13.51,0,0,0-.08,1.37v0h0v0a13.51,13.51,0,0,1,.08-1.37m.19-1.19c0,.19-.13.64-.18,1.11v0c0-.47.15-.92.18-1.11m0-.08a.32.32,0,0,1,0,.08.32.32,0,0,0,0-.08m.38-1.11v0h0c-.14.37-.27.74-.38,1.11h0l0,0h0l0,0c.11-.37.24-.74.38-1.11h0v0m0-.06,0,.06h0l0-.06m0,0,0,.08a3.45,3.45,0,0,1-.52.76,21.17,21.17,0,0,0-1.73,2,3.09,3.09,0,0,1-.68.28.93.93,0,0,1-.27,0c-.12,0-.21,0-.21-.13h0c0,.1.09.13.21.13a.93.93,0,0,0,.27,0,3.09,3.09,0,0,0,.68-.28,21.17,21.17,0,0,1,1.73-2,3.45,3.45,0,0,0,.52-.76l0-.08h0"/><path class="h" d="M87.31,57l.06.08L87.31,57h0m0,0,0,0,0,0m-.08-.09.1.12h0l-.1-.12m-.1-.26,0,.05a3.33,3.33,0,0,0,.16.3h0l-.07-.12h0v0l-.08-.17M86.86,56c.08.24.16.43.22.58l0,0a5.56,5.56,0,0,1-.25-.62m-.14-.49a4.84,4.84,0,0,0,.14.49c0-.14-.09-.3-.14-.49m-.08-.28c0,.1,0,.19.08.28s0-.11,0-.18l0-.1m-1.4-.09a12.45,12.45,0,0,1,1.82,1.57l.08.09,0,0,0,.06a7.76,7.76,0,0,0-.91-.9c-.27-.23-.62-.51-1-.82l0,0m1.29-.43c0,.18.07.34.11.52,0-.17-.07-.34-.11-.52m-1.94,0,.65.46L85,55l-.44-.31m0,0,0,0h0l0,0m-.13-.09h0l.14.09-.13-.09m2-.67a5.25,5.25,0,0,0,.09.55c0,.09,0,.18,0,.27,0-.15,0-.31-.09-.5l0-.31h0m0,0v0m0,0v0h0m-.31-3.64v0M67.17,30.48c-.24,0-.46,0-.68,0a16.75,16.75,0,0,0-3.23.89,11.67,11.67,0,0,0-2.64,1.38l-.18.15c-.44.35-.57.59-.46.6a49.92,49.92,0,0,0,5.7.4h.19a6.55,6.55,0,0,1,3.52.78c1.74.89,8.15,6.43,9.59,8.49a38.79,38.79,0,0,1,3.78,7c-.24.12-.47.22-.7.32a12.11,12.11,0,0,1-2.93.83l0,.1.11.09,0,0,.46.24,1,.52c1.07.59,2,1.14,2.63,1.54.37.24.63.39.94.61l.15.09h0l.19-.26a3.72,3.72,0,0,1,.33-.45,5.19,5.19,0,0,1,.36-.46l.35-.42h0a.75.75,0,0,1,.31,0,5.09,5.09,0,0,1,.35.78l0,0,0-.24c-.06-.35-.1-.7-.13-1a2.29,2.29,0,0,0,0-.25c.27-.33.56-.69.86-1.08a5.08,5.08,0,0,1,1.07-1.46,26.69,26.69,0,0,0,3.19-2.68c1.08-1,.87-2.28,1.51-3.63.24-.71.8-1.37.92-2h0c-.3-.23-.4-.85-.68-.85a.34.34,0,0,0-.19.08c-.63.3-1,1-1.38,1.51a20.19,20.19,0,0,1-4.69,5.21,16.76,16.76,0,0,1-1.36,1.12,7.74,7.74,0,0,0-.67-1.31L83,44.44c-1.21-1.86-2.43-3.68-3.7-5.51-1.58-2.48-7.84-7.06-9.18-7.82a7.62,7.62,0,0,0-2.91-.63"/><path d="M75,114.54c-5.35.33-10.58-1.46-16-2.84-7.61-1.93-11.59-7.43-15.15-13.54-2.54-4.37-4.94-8.84-5.88-13.9-.08-.42-.31-1.08-.57-1.14-3.07-.68-4.4-3.32-5.89-5.53-3.22-4.77-3.69-10.23-2.3-15.67A28.09,28.09,0,0,1,47.9,41.5c3.12-1,6.1-2.43,9.17-3.61a10.2,10.2,0,0,1,2.61-.6c4.23-.42,8.46-1.14,12.06-3.42a29.25,29.25,0,0,0,6.62-6c2.7-3.22,6.45-3.88,10.09-4.79,6.72-1.68,15,3.4,17.23,10.76.18.58.09,1.25.24,1.84a13.3,13.3,0,0,0,3,5.62,40.25,40.25,0,0,1,8.35,16.63,20.86,20.86,0,0,1-2.54,16.38,9.2,9.2,0,0,1-2.42,2.8c-1.21.87-1.46,1.7-.71,2.9,1.81,2.92,1,6,.19,8.87C108.9,99,101.7,105.57,92.83,110.29,87.69,113,84.46,114.9,75,114.54ZM68.76,74a45.11,45.11,0,0,0,4.7,2.85A21,21,0,0,0,79.78,79a32.27,32.27,0,0,0,8.12-.59c2.36-.39,4.64-1.31,7-1.83a6.17,6.17,0,0,1,3.38,0c4.44,1.78,9,1.84,12.69-.94,4.6-3.51,5.87-8.9,5.16-14.59a32,32,0,0,0-4.24-12c-1.7-2.95-3.09-6.27-6.67-7.63a1.19,1.19,0,0,1-.53-.84c-.2-1.53-.25-3.09-.5-4.61A12.87,12.87,0,0,0,92.27,24.81,16.45,16.45,0,0,0,77.7,31.2a16.67,16.67,0,0,1-9.85,6.32c-2.57.51-5.15,1-7.7,1.5-4.06.8-7.91,2.68-11.84,4.11-1.6.59-3.38.92-4.76,1.85a31.38,31.38,0,0,0-9.38,9.64c-2.73,4.45-4.38,9.15-3.79,14.42.44,4,1.56,7.71,5.1,10.19l3.93-1.53a7.41,7.41,0,0,0,1.39.71c2.15.67,4.37,1.12,6.47,1.92,3.81,1.46,7.47,3.3,11.76,1.51,3.58-1.51,7.34-2.64,8.81-6.84C68,74.53,68.55,74.2,68.76,74ZM41,86.34l-.44,0-1-5.33a7.48,7.48,0,0,0,0,4,60.19,60.19,0,0,0,9.6,18.48,17.29,17.29,0,0,0,6,5.16A45.69,45.69,0,0,0,70.51,113a49.39,49.39,0,0,0,12.1-.3c-.22-2.65-.45-5.16-.65-7.68a27.33,27.33,0,0,0-4.24-12.6c-3-4.83-7-9.09-8.78-14.67a19.2,19.2,0,0,1-13.45,6.67,15.08,15.08,0,0,0-2.78.8L50,83.2c.2,1.45.31,2.28.42,3.1l-.53.19c-.67-1.33-1.33-2.65-2-4l-.47.22,1,6.07-.68.16-2.19-7.57-.56.16q.45,3.72.91,7.44l-.59.07c-1.3-2.69-.7-6.07-3-8.44q.49,3.87,1,7.74l-.49.11c-.51-1.83-1-3.65-1.52-5.47l-.19,0Zm47.33-.51-.64.16c-1.55-1.53-.29-4.45-2.63-5.94.19,2.28.36,4.23.52,6.17l-.67.06-1.64-5.85-.69.2v4l-.4,0c-.42-1.35-.85-2.69-1.28-4.06l-2.38-.15c.2,1.35.39,2.57.57,3.8-1.38-1.56-2.12-3.41-3.46-4.53S72.16,77.92,70.24,77a2.7,2.7,0,0,0,.16.87c2.44,4,4.74,8.14,7.39,12,3.43,5.05,5.72,10.41,5.88,16.58,0,1.85.3,3.68.45,5.5a4.14,4.14,0,0,0,1.09,0,39.36,39.36,0,0,0,15.92-9.63c3.26-3.31,6.66-6.41,8.18-11.07,1-3.19,2.22-6.27,1.31-9.86l-1.25,1.33c-.3-1.52,0-3-1.58-4.1-.66,2.87-1.24,5.42-1.89,8.25-.51-2.6-1-5-1.44-7.34l-.57.14L103.65,83l-.5,0-.81-3c-1,1.74,1.29,3.5-.41,5.48-.43-1.44-.76-2.47-1-3.51s-.45-2.07-.67-3.11l-.45.11.54,4.83-.62.11-2-6.32-.44.15q.34,3.81.71,7.62l-.71.06c-.5-2.45-1-4.9-1.51-7.35l-.6.05c.1,2,.19,4,.29,5.94l-.57,0L93.43,79a8.48,8.48,0,0,0-.14,3.19c.07,2,0,2-1.26,1.52a13.66,13.66,0,0,1,0,3.14A17.94,17.94,0,0,0,93.1,98.42a6.7,6.7,0,0,1,.12,3.31c0,.42-.76.75-1,1-.44-2.13-.43-4.11-1.26-5.61a10.41,10.41,0,0,1-.71-9.24,2,2,0,0,0,.08-1c-.51-2.08-1-4.16-1.63-6.21,0-.18-.74-.18-1.19-.27C87.83,82.31,88.1,84.07,88.37,85.83Z"/><path d="M90.81,72c-1.52-1.93-.2-3.38.68-4.37,2.37-2.67,3.8-5.56,3.58-9.18A16.86,16.86,0,0,0,91.3,48.31a26.94,26.94,0,0,0-2.13-1.83A10.3,10.3,0,0,1,88.09,45c.65-.07,1.59-.46,1.9-.17,1.58,1.49,3.44,2.92,4.39,4.78,2.53,5,3.39,10.33.91,15.61C94.2,67.56,92.43,69.56,90.81,72Z"/><path d="M67.19,45.41c1.86,1.08,1.37,1.52.64,2.39-2.61,3.11-5.2,6.27-7.49,9.62-1.45,2.13-.22,4.41.67,6.49a19.7,19.7,0,0,0,1.78,3,4.41,4.41,0,0,1,.1,4.74c-1.53-3.57-3-7.06-4.53-10.51-.94-2.14.35-3.92,1.28-5.39C61.91,52.18,64.63,48.87,67.19,45.41Z"/><path d="M95.29,33.62c3-1.18,3.25,1.07,3.95,2.05,1.49,2.06.74,4.35-.23,6.57C99.12,38.9,98.74,35.81,95.29,33.62Z"/><path d="M55,56.18c-.13,2.69-.23,4.67-.32,6.58a3.78,3.78,0,0,1-1.44-4.71C53.46,57.44,54.14,57,55,56.18Z"/><path d="M70.37,63.88l-3.84-7.44c1.27,0,3.44,3.93,4.36,7.15Z"/><path d="M35,64l2.78,7.11-.57.3-3.29-6.83Z"/><path d="M36.46,60.3c.83,2.35,1.67,4.69,2.5,7-1.84-1.93-3.21-4.06-3.14-6.77Z"/><path d="M68,68.86a9,9,0,0,1-3.54-5.58c-.05-.19.79-.62,1-.79Z"/><path d="M66.54,60.28l3.07,6.18C67.89,65.94,66.17,63.05,66.54,60.28Z"/><path d="M69.29,54.28l3,5.39-.67.45q-1.62-2.64-3.25-5.28Z"/><path d="M104.89,76.94c-1-1.25-1.94-2.49-2.85-3.77-.11-.15.13-.56.21-.85.35.13.86.16,1,.41.76,1.21,1.42,2.48,2.12,3.74Z"/><path d="M73.47,53.19l2.58,4.42c-1.69-.27-2.46-1.28-3.09-4Z"/><path d="M38.16,57.22l1.74,6.35-.62.2c-.67-2.12-1.35-4.23-2-6.35Z"/><path d="M72.83,57.55,70.4,53.67l.8-.5q1.13,2,2.27,4Z"/><path d="M65.19,102.75c-3.44-1.59-7.23-8.69-8.88-16.81,1,.63,2,.92,2.06,1.39a36.57,36.57,0,0,0,6.57,14.61A3.13,3.13,0,0,1,65.19,102.75Z"/></svg>