<svg xmlns="http://www.w3.org/2000/svg" viewBox="0 0 150 150"><defs><style>.a{fill:#fdecd7;}.b{fill:#fcd7ab;}.c{fill:#fcd6a7;}.d{fill:#fddab3;}.e{fill:#fde3c5;}.f{fill:#fef4e7;}.g{fill:#fde2c1;}.h{fill:#fffaf5;}</style></defs><title>icon</title><path class="a" d="M57.7,96.86l0,.08,0,0,0,0h0l0,0,0,0m.07-.08-.06.08,0,.06.1-.14m0-.07h0m.15-.18,0,0h0l0,0m.21-.24-.12.14.09-.1,0,0m0-.06h0l0,0m.3-.3h0l0,0-.06.06.09-.09h0m69.31-.15a10.56,10.56,0,0,0-1.12.09c.47.09.94.21,1.42.35a4.27,4.27,0,0,1-.3-.44M58.77,95.7h0l-.13.12.08-.07.06-.05h0m1.4-1h0l-.24.08A4.16,4.16,0,0,1,59,95l-1.07,1.57h0l0,0,.24-.28.13-.14a1.59,1.59,0,0,1,.13-.13l0,0h0v0l.23-.21,0,0h0a2.61,2.61,0,0,1,.27-.22,1.5,1.5,0,0,1,.25-.19l.1-.08.23-.16.15-.09.1-.05.23-.13.05,0m-6-.65,0,0,0,0,1,1,.42.22a10.92,10.92,0,0,0,2.26,1.25L59,95a5.74,5.74,0,0,1-.71,0H58l-.88,0H57a4.2,4.2,0,0,1-.47-.08l-.21,0-.35-.07-.28-.07-.29-.1a1.18,1.18,0,0,1-.3-.1l-.12-.05a3.63,3.63,0,0,1-.48-.23h0l0,0,0,0-.07,0h0l0,0-.08-.06m5.69-.38L59,95a4.69,4.69,0,0,0,1.19-.26h0l0,0h0l-.11.06-.12.07-.07,0h0l-.15.09-.23.16-.07.06,0,0-.08,0-.17.14a2.75,2.75,0,0,0-.26.22h0l0,0h0l0,0-.17.16,0,0-.25.26-.11.13,0,0-.07.08-.12.12c1.54.59,2.42.29,3.64.64,1.57.31,3,.83,3.29,1.51a11.54,11.54,0,0,0,5.33,3.08c.85-1.69.45-3.69,0-5.65A65.52,65.52,0,0,1,60.8,94c-.33-.11-.64-.22-.93-.34m48.76-1.77a6.56,6.56,0,0,1-.06,1,6.63,6.63,0,0,1-.58,2.16,7.11,7.11,0,0,1-4.4,3.75,15.33,15.33,0,0,1-4.82.71A27.65,27.65,0,0,1,93,98.84s-2.21,0-5.63-.39l-1.73-.18c-1.49,1.53-2.87,2.89-4.87,3h0c1.48,0-1,1.42-3.78,2.49.8.26,1.58.55,2.34.88,1.24.63,1.26,1.8,2.49,2.45a37.19,37.19,0,0,0,11.85,2.61,10.69,10.69,0,0,0,1.44-.09,41.48,41.48,0,0,0,8.17-1,11.81,11.81,0,0,0,4.82-2.16c2.12-.81,4.22-1.66,6.24-2.57a8.41,8.41,0,0,0,1-4.24,6.15,6.15,0,0,0,0-1.29,19.73,19.73,0,0,1,1.92-1A16.45,16.45,0,0,1,123,95.66c-1.24-.77-2.27-2.11-3.46-2.82a7.56,7.56,0,0,0-3.33-.64c-1.78,0-3.7.34-5.59.35a10.21,10.21,0,0,1-2-.62M73.82,79c1,1.18,2.1,2.5,3.37,4l.69.38.36.2L78,83.28c-1.27-1.42-2.77-2.9-4.21-4.3m33.52-5.19c-.84.94-1.68,1.71-2.35,2.56a9.59,9.59,0,0,0-2.53,5.25l.65,0c.89-1.72,1.79-3.44,2.76-5.15.46-.89,1-1.7,1.47-2.64M73.74,69a7.39,7.39,0,0,0-3,1.74,2.52,2.52,0,0,0-.52.83c.35-.2.75-.44,1.18-.72A14.46,14.46,0,0,0,73.74,69M61,63.26l-.29.1.33-.08,0,0M29.11,61.84c.11.12,0,.19,0,.26h.19l.12,0s-.11-.13-.27-.23m-1.85-.66.77.18h0l-.75-.18M32.87,60a1.82,1.82,0,0,1,.32.18l0,0h0c.13.1.18.19.18.27h0a.22.22,0,0,1-.06.15c.28-.15.18-.4-.46-.62m-11.59-.16.16,0c.32.06,1.25.23,3.53.74-2-.47-3.13-.68-3.69-.77m0,0c.77,0,1.54.06,2.28.06h-.1s0,0,.14,0H23.5c-.72,0-1.72,0-2.24,0m-.29,0h0m0,0h0m5.51-.06-1.18,0,.58,0,.6,0m2.67-.11h0m54.37-.46a5.13,5.13,0,0,0-1.07.85c-.35.35-.68.73-1,1.12a4.11,4.11,0,0,1,1.89,2.13,2.51,2.51,0,0,1,0,1.91A3.54,3.54,0,0,1,82,66.58h0a10.51,10.51,0,0,0,3,1.17,7.16,7.16,0,0,0,1.53.17c1.8,0,2.91-.73,2.55-.92a6.34,6.34,0,0,0,.76-.42c-.23-.15-.47-.31-.7-.48-.89-.64-1.79-1.34-2.67-2.11A12.53,12.53,0,0,1,84,61.14c-.17-.59-.32-1.24-.48-2m24.49-1a2.48,2.48,0,0,0-1.94.77,3.71,3.71,0,0,0-.78,1.29l.16.07a4,4,0,0,1,.87-1.45,2.4,2.4,0,0,1,1.69-.68m-59.83-.71a7.59,7.59,0,0,1-.85,1c-1.57,1.55-4.1,2.07-7.27,2.29-.87,0-1.87.06-2.93.06-1.24,0-2.57,0-3.86-.06a2,2,0,0,1-.88.24h0c-.25,0-.53,0-.81,0h0c-.59,0-1.23,0-1.75-.09l-1.38-.14,1.38.14c.52,0,1.16.09,1.75.09h0c.28,0,.56,0,.81,0h0a2,2,0,0,0,.88-.24h0l.09-.05h0a.22.22,0,0,0,.06-.15h0c0-.08,0-.17-.18-.27h0l0,0a1.82,1.82,0,0,0-.32-.18l-.41-.12a12.23,12.23,0,0,0-2.79-.28h-.73l-1.12,0-1.33.06-.61,0-.61,0L24,59.86h-.46c-.09,0-.14,0-.14,0h.1c-.74,0-1.51,0-2.28-.06l-.26,0c.53,0,.22,0,.28.06.58.09,1.69.31,3.84.81l2.08.48.81.2h0l.21,0a2.79,2.79,0,0,1,.87.43c.16.09.27.18.27.23h0l-.12,0h-.19s0,0,0,0,.39.39,2.76,1.46c1.25.56,2.44,1.15,3.51,1.74l.94.47-.94-.47a23.18,23.18,0,0,1,4,2.66c1.55,1.36,1.86,2.43.71,2.76s-3.34.39-5.75.76h-.15A5.86,5.86,0,0,1,33,71.34a5.3,5.3,0,0,0-.85-.17l-.3,0-.39,0h-.2l-.2.11-.24.16a18.36,18.36,0,0,0-1.93,1.38,41,41,0,0,0-3.62,3.2c-1.08,1.12-2.1,2.29-3,3.42a47.28,47.28,0,0,0-3.67,5.57,21.72,21.72,0,0,0-2.51,8.3A27.28,27.28,0,0,0,16,97.8a30.77,30.77,0,0,0,.66,4.3A29.42,29.42,0,0,0,24,115.48c1.24,1.2,2.59,2.33,3.92,3.39.7.53,1.41,1,2.12,1.54l1.06.74,1.14.71c.76.46,1.52.91,2.28,1.34s1.63.83,2.45,1.21l1.23.56a10.49,10.49,0,0,0,1.12.41l2.15.69a45,45,0,0,0,12.51,1.78c1.44,0,2.85-.07,4.23-.2a40.63,40.63,0,0,1,5.28.57,23.74,23.74,0,0,0,3.51.3,14.29,14.29,0,0,0,1.83-.12,24.75,24.75,0,0,0,10.12-5c2.51-2.07,4.48-4.25,6.6-6.11q1-.69,1.95-1.32c-2.71.23-5.55.51-8.4.67l-.57,0h0a1.85,1.85,0,0,1-.32-.24l-.41-.32-.83-.66-3.29-2.61L72,111.59l-.82-.65L57.42,97.29l-.07.1.07-.1h0l-.07.1h0l.07-.1-3.17-3.15,0,0,0,0,.11.09h0l.1.06,0,0,.22.11.26.12.42.15.16,0,.13,0,.23.06h.05l.35.07h.11l.1,0,.36.07.25,0c.29,0,.59,0,.88,0h.25c.29,0,.55,0,.77-.06l.4-.59.48-.69c-2.81-1.11-4.28-2.62-4.3-4.55V87.76c0-.86-.07-2-.22-3.27a1.57,1.57,0,0,1,.07-.8q.07-.34.15-.72c.1-.48.18-1,.23-1.43a9.59,9.59,0,0,0-.11-2.91A21.81,21.81,0,0,0,53,72.17c-1.13-2.07-2.27-3.74-.92-4.75,0,0,.25-.09-.33-.51a22,22,0,0,0-5.59-2.26,8.06,8.06,0,0,1-.71-.49,2,2,0,0,1-.84-1c-.06-.38.22-.78,1.2-1.2a14.29,14.29,0,0,1,3.54-.86,4.87,4.87,0,0,1-1.12-1.73,3,3,0,0,1,0-1.92M65.86,53h0m1.19-15.55c-.43,0-.88,0-1.35.07a16,16,0,0,0-2.41.52,19.26,19.26,0,0,0-4.85,2.27,19.49,19.49,0,0,0-4.74,4.31A21.79,21.79,0,0,0,51,49.17a20.86,20.86,0,0,0-1.52,5.54c-.07.33-.14.56-.22.84s-.07.29-.11.39l-.13.23-.32.52c.17-.13.43-.35.75-.65l.22-.22.23-.37a8.68,8.68,0,0,0,.49-.89,23.36,23.36,0,0,1,1-2.51.49.49,0,0,1,0-.12,15.31,15.31,0,0,1,2.27-7,19.37,19.37,0,0,1,4.69-4.38,18.73,18.73,0,0,1,4.82-2.3,15.89,15.89,0,0,1,2.4-.53A11.17,11.17,0,0,1,67,37.59c.25,0,.49,0,.74,0a11.13,11.13,0,0,1,3.79.9c1.28.58,2.51,1.18,3.76,1.79s2.55,1.2,3.83,1.8a54.88,54.88,0,0,1,7.52,4c.41.27.41.86.15,1.54.34-.76.39-1.46-.07-1.75a54.07,54.07,0,0,0-7.51-4c-1.28-.58-2.58-1.17-3.83-1.78s-2.47-1.21-3.75-1.78a11,11,0,0,0-3.78-.91q-.36,0-.75,0"/><path class="b" d="M70.22,52.51l0,0a4.41,4.41,0,0,1,.52,0h.1l-.65.06m.55-.2a4.36,4.36,0,0,0-.51,0,1.29,1.29,0,0,1-.21.19l1.6-.15.26,0-.67,0a3.71,3.71,0,0,0-.47,0m16-4.66a5.63,5.63,0,0,1-2,2.35,13.24,13.24,0,0,1-2.06,1.11c-.36.15-.72.28-1.08.41h0l0,.09.11.4.21.78.39,1.5c.22.91.45,1.81.68,2.72s.37,1.51.52,2.16L83.8,59c-.12-.56-.27-1.19-.44-1.84-.23-.9-.46-1.8-.68-2.7l-.4-1.5-.21-.78L82,51.81l0-.2,0,0a12.5,12.5,0,0,0,2.74-1.36,6.07,6.07,0,0,0,1.94-2.14l.17-.41"/><path class="c" d="M65.87,53h0m4.18-.44a1.29,1.29,0,0,0,.21-.19,4.36,4.36,0,0,1,.51,0,3.71,3.71,0,0,1,.47,0l.67,0-.26,0-1.6.15M67,37.59a11.17,11.17,0,0,0-1.38.08,15.89,15.89,0,0,0-2.4.53,18.73,18.73,0,0,0-4.82,2.3,19.37,19.37,0,0,0-4.69,4.38,15.31,15.31,0,0,0-2.27,7,.49.49,0,0,0,0,.12l.3-.59A19.34,19.34,0,0,1,56.08,46c1.66-1.46,3.28-2.57,4.75-3.95a16.41,16.41,0,0,1,3.57-.75,15.87,15.87,0,0,1,1.73-.09,13.47,13.47,0,0,1,1.56.08,22.84,22.84,0,0,1,3.21.56,11.61,11.61,0,0,1,4.51,1.79c.74.71.26,1.67-2,2.7,0,0-1.28.83-2.6,1.8-.32.24-.69.51-.94.74s-.5.48-.73.72c-.46.48-.87.93-1.15,1.27a7.63,7.63,0,0,0-.9.49,7.79,7.79,0,0,0-1.54,1.18c-.17.17-.3.26-.4.37l-.07.1h.11l1,0L68,52.93l3.84-.17h.36v0l0,.07,0,.15.07.29.13.58c.11.38.2.78.32,1.15a21.9,21.9,0,0,0,1.63,4l0,0,1.41.26a25.88,25.88,0,0,1,3.26.82,10.27,10.27,0,0,1,2.3,1c.32-.39.65-.77,1-1.12a5.13,5.13,0,0,1,1.07-.85c-.15-.65-.32-1.37-.52-2.16s-.46-1.81-.68-2.72l-.39-1.5L81.72,52l-.11-.4,0-.09h0c.36-.13.72-.26,1.08-.41A13.24,13.24,0,0,0,84.75,50a5.63,5.63,0,0,0,2-2.35c.26-.68.26-1.27-.15-1.54a54.88,54.88,0,0,0-7.52-4c-1.28-.6-2.58-1.18-3.83-1.8s-2.48-1.21-3.76-1.79a11.13,11.13,0,0,0-3.79-.9c-.25,0-.49,0-.74,0"/><path class="b" d="M108.15,58.12H108a7.07,7.07,0,0,1,1.91.32A39.73,39.73,0,0,1,115,60.27,13.51,13.51,0,0,1,117.89,62a8.87,8.87,0,0,1,2.46,3,8.19,8.19,0,0,1,.71,2.52,9.56,9.56,0,0,1-.19,3.09,18.78,18.78,0,0,1-2.4,5.65c-1.75,2.82-3.52,5.44-4,7.18l0,0c.48-1.74,2.22-4.33,3.94-7.08a19.28,19.28,0,0,0,2.43-5.62,9.77,9.77,0,0,0,.23-3.07,7.89,7.89,0,0,0-.67-2.52,8.72,8.72,0,0,0-2.39-3.08,13.06,13.06,0,0,0-2.84-1.76,41.06,41.06,0,0,0-5.08-1.85,7.77,7.77,0,0,0-2-.36"/><path class="c" d="M108,58.13h0a2.4,2.4,0,0,0-1.69.68,4,4,0,0,0-.87,1.45c.48.22,1,.46,1.44.73a8.36,8.36,0,0,1,3.72,3.91,5.07,5.07,0,0,1,.4,1.29v.65l-.06.63a8.37,8.37,0,0,1-.76,2.36,18.23,18.23,0,0,1-2.61,3.69l-.25.27c-.48.94-1,1.75-1.47,2.64-1,1.71-1.87,3.43-2.76,5.15h.39a33.12,33.12,0,0,1,8.14,1c1,.24,1.93.52,2.87.84.44-1.74,2.21-4.36,4-7.18a18.78,18.78,0,0,0,2.4-5.65,9.56,9.56,0,0,0,.19-3.09,8.19,8.19,0,0,0-.71-2.52,8.87,8.87,0,0,0-2.46-3A13.51,13.51,0,0,0,115,60.27a39.73,39.73,0,0,0-5.11-1.82,7.07,7.07,0,0,0-1.91-.32"/><path class="b" d="M85.84,58.55l-.54,0a3.94,3.94,0,0,0-1.5.44l.09.4c.14.69.34,1.28.47,1.84a12.78,12.78,0,0,0,2.45,2.84c.89.77,1.77,1.47,2.66,2.1l.48.33.37-.24a10.65,10.65,0,0,0,3.12-3.19c.46-.72.9-1.56,1.43-2.39-1.06-.27-2.13-.5-3.19-.7a28.7,28.7,0,0,0-3.14-1,10.82,10.82,0,0,0-2.7-.45"/><path class="c" d="M70.54,58.85a6.61,6.61,0,0,0-2.79.54c-1.71.75-2.93,2-4.48,2.88a12.82,12.82,0,0,1-2.25,1l0,0,.37-.1a16.4,16.4,0,0,0,4.89-2.25A19.1,19.1,0,0,1,69,59.4a7.21,7.21,0,0,1,2.1-.54h-.58"/><path class="d" d="M98.55,58.31h-.36a3.94,3.94,0,0,0-3,1.91c-.11.16-.22.32-.32.48-.53.83-1,1.67-1.43,2.39a10.65,10.65,0,0,1-3.12,3.19l-.37.24-.11.06a6.34,6.34,0,0,1-.76.42c.36.19-.75.92-2.55.92A7.16,7.16,0,0,1,85,67.76a10.51,10.51,0,0,1-3-1.17,8.14,8.14,0,0,1-4.25,1.11s-1.35.34-2.88.85l-1.16.4A14.46,14.46,0,0,1,71.4,70.8c-.43.28-.83.52-1.18.72-.33.87-.15,2,.66,3.41a30.73,30.73,0,0,0,2.94,4c1.44,1.4,2.94,2.88,4.21,4.3l.21.26c.39.22.89.48,1.49.79a69.31,69.31,0,0,0,6.8,3l.77.29a14.8,14.8,0,0,1,2.46-1.21c.94-.37,1.92-.68,2.83-1a12.24,12.24,0,0,0,2.57-1.25c1.36-.77,2.5-2.06,4.17-2.26a30.66,30.66,0,0,1,3.13-.25A9.59,9.59,0,0,1,105,76.35c.67-.85,1.51-1.62,2.35-2.56l.25-.27a18.23,18.23,0,0,0,2.61-3.69,8.37,8.37,0,0,0,.76-2.36l.06-.63v-.65a5.07,5.07,0,0,0-.4-1.29A8.36,8.36,0,0,0,106.89,61c-.48-.27-1-.51-1.44-.73l-.16-.07a29.68,29.68,0,0,0-3-1.07,13.66,13.66,0,0,0-3.78-.81M66.13,41.25a15.87,15.87,0,0,0-1.73.09,16.41,16.41,0,0,0-3.57.75c-1.47,1.38-3.09,2.49-4.75,3.95a19.34,19.34,0,0,0-4.4,5.42l-.3.59a23.36,23.36,0,0,0-1,2.51,8.68,8.68,0,0,1-.49.89l-.23.37-.22.22c-.32.3-.58.52-.75.65l-.19.15a2.25,2.25,0,0,0-.29.58,3,3,0,0,0,0,1.92,4.87,4.87,0,0,0,1.12,1.73q.84-.12,1.89-.21l1.94-.52c1.06-.29,2.24-.6,3.07-.88.42-.14.75-.3.94-.35h.09c.13,0,.17.13.2.4a2,2,0,0,1-1.32,2.19,9.15,9.15,0,0,1,2.23,1.19c.42.38.47.72-.2.9a19.53,19.53,0,0,0,2.56-.42l.29-.1a12.82,12.82,0,0,0,2.25-1c1.55-.86,2.77-2.13,4.48-2.88a6.61,6.61,0,0,1,2.79-.54h.58a8.69,8.69,0,0,1,.89,0h.41a17.78,17.78,0,0,1,2.06.23l0,0a21.9,21.9,0,0,1-1.63-4c-.12-.37-.21-.77-.32-1.15l-.13-.58L72.3,53l0-.15,0-.07v0h-.36L68,52.93,66.11,53l-1,0H65l.07-.1c.1-.11.23-.2.4-.37a7.79,7.79,0,0,1,1.54-1.18,7.63,7.63,0,0,1,.9-.49c.28-.34.69-.79,1.15-1.27.23-.24.47-.49.73-.72s.62-.5.94-.74c1.32-1,2.6-1.8,2.6-1.8,2.3-1,2.78-2,2-2.7a11.61,11.61,0,0,0-4.51-1.79,22.84,22.84,0,0,0-3.21-.56,13.47,13.47,0,0,0-1.56-.08"/><path class="e" d="M60.36,93h0l-.28.42.29-.42m0,0h0m.06-.1,0,0h0l0,0h0m0-.07h0l0,0,0,0m.13-.26,0,.11,0,0,0,0v0m.18-.37,0,.09,0,.08h0l0-.08,0-.11m.25-.62-.21.53,0-.1c0-.11.08-.19.1-.24a1.07,1.07,0,0,1,.07-.19m.28-.86c-.07.23-.13.43-.2.62l.09-.24,0-.09s0-.09,0-.13,0-.11,0-.16m43.86-.07c-1.6,0-3.38,1-5.1,1.87a6.7,6.7,0,0,1-2.27.84,16.75,16.75,0,0,1-2.5.3,14.07,14.07,0,0,0-5,1,15.27,15.27,0,0,0-4.63,3.66l1.73.18c3.42.34,5.63.39,5.63.39a27.65,27.65,0,0,0,5.77.68,15.33,15.33,0,0,0,4.82-.71,7.11,7.11,0,0,0,4.4-3.75,6.63,6.63,0,0,0,.58-2.16,6.56,6.56,0,0,0,.06-1c-.57-.24-1.14-.54-1.79-.88a3,3,0,0,0-1.65-.46M61.63,89.51c-.05.24-.1.46-.16.66q.09-.3.15-.6v-.06m.08-.38v.05h0v-.06m.11-.53h0l0,.09h0v0s0,0,0,.08c0,.22-.09.43-.13.64l0,.12h0c0,.19-.09.4-.15.6s-.09.31-.13.46,0,.12-.05.18,0,.08,0,.13a.76.76,0,0,1,0,.11,8.89,8.89,0,0,1-.33.89l0,.06,0,.06h0l0,0a1.12,1.12,0,0,0,0,.13l0,.1c0,.06-.06.13-.09.2h0v0l0,.07v0l-.09.16v0l0,.05h0v0h0l-.48.71c.29.12.6.23.93.34a65.52,65.52,0,0,0,9.4,2.11c-.18-.79-.35-1.57-.46-2.31l-.09,0a8.94,8.94,0,0,0-1,.14,13.79,13.79,0,0,1-2.06.15c-1.55,0-3.14-.49-3.78-1.59a8.58,8.58,0,0,1-1-2.74,4.32,4.32,0,0,1,0-1l0-.1v0m.1-.58c0,.25-.08.49-.13.72v0l0-.1c0-.2.07-.4.1-.59m.25-2.35c0,.25,0,.47-.05.68v0c0-.23,0-.47.05-.71m0-.46v.12c0,.1,0,.21,0,.31h0l0-.44M72,58.81a8.69,8.69,0,0,0-.89,0,7.21,7.21,0,0,0-2.1.54,19.1,19.1,0,0,0-2.7,1.53,16.4,16.4,0,0,1-4.89,2.25l-.37.1-.33.08a19.53,19.53,0,0,1-2.56.42c.67-.18.62-.52.2-.9a9.15,9.15,0,0,0-2.23-1.19,2,2,0,0,0,1.32-2.19c0-.27-.07-.4-.2-.4h-.09c-.19,0-.52.21-.94.35-.83.28-2,.59-3.07.88l-1.94.52q-1,.09-1.89.21a14.29,14.29,0,0,0-3.54.86c-1,.42-1.26.82-1.2,1.2a2,2,0,0,0,.84,1,8.06,8.06,0,0,0,.71.49,22,22,0,0,1,5.59,2.26c.58.42.33.51.33.51-1.35,1-.21,2.68.92,4.75a21.81,21.81,0,0,1,2.71,6.46,9.59,9.59,0,0,1,.11,2.91c0,.47-.13.95-.23,1.43q-.07.38-.15.72a1.57,1.57,0,0,0-.07.8c.15,1.23.2,2.41.22,3.27v1.39c0,1.93,1.49,3.44,4.3,4.55l.47-.7h0l.07-.12,0-.06v0l0,0c0-.09.1-.2.17-.33l0-.08h0l0-.08a14.24,14.24,0,0,0,.94-3l0-.16c.11-.49.2-1,.27-1.6a1.57,1.57,0,0,0,0-.23l.09-.79v-.09c0-.3.05-.66.09-1.12v-.06h0v-.09c0-.2,0-.4,0-.62V83.8h0c0-.36,0-.74,0-1.12v-.54h0v0l0,.17a1.93,1.93,0,0,0,.12.44,4.83,4.83,0,0,0,.23.45l.33.45a9.5,9.5,0,0,0,2,1.66c.19.11.37.25.58.36l.68.29c.42.2.85.35,1.17.54a32.92,32.92,0,0,0,7.24,2.33c2.69.61,5.65,1.1,8.82,1.67A2,2,0,0,0,85,89.8a7.19,7.19,0,0,1,2.28-2.18l-.77-.29a69.31,69.31,0,0,1-6.8-3c-.6-.31-1.1-.57-1.49-.79l-.36-.2L77.19,83c-1.27-1.48-2.4-2.8-3.37-4a30.73,30.73,0,0,1-2.94-4c-.81-1.44-1-2.54-.66-3.41a2.52,2.52,0,0,1,.52-.83,7.39,7.39,0,0,1,3-1.74l1.16-.4c1.53-.51,2.88-.85,2.88-.85A8.14,8.14,0,0,0,82,66.59h0a3.54,3.54,0,0,0,1.25-1.39,2.51,2.51,0,0,0,0-1.91,4.11,4.11,0,0,0-1.89-2.13,10.27,10.27,0,0,0-2.3-1,25.88,25.88,0,0,0-3.26-.82l-1.41-.26a17.78,17.78,0,0,0-2.06-.23H72"/><path class="f" d="M57.35,97.39h0m.44-.65,0,0-.1.14v0l0,0h0l.17-.25m0,0,0,0h0l0,0,0,0h0m.14-.17,0,0h0l-.08.12h0l0,0,.06-.08v0h0l0,0h0m.17-.19-.09.1v0l.07-.08,0,0m.11-.13,0,0,0,0v0l0,0,0,0,.11-.13m.22-.23a1.59,1.59,0,0,0-.13.13.46.46,0,0,1,.07-.07l.06-.06m0,0h0l0,0,0,0m0,0v0h0m.18-.16-.08.07-.09.09.17-.16m.06-.05-.06.05,0,0h0m0,0h0m.29-.25a2.61,2.61,0,0,0-.27.22h0a2.75,2.75,0,0,1,.26-.22m.25-.19a1.5,1.5,0,0,0-.25.19l.17-.14.08,0m.1-.08-.1.08,0,0,.07-.06M58.11,95h0m1.53,0-.23.16.23-.16m-2.55,0L58,95h0c-.29,0-.59,0-.88,0M59,95c-.22,0-.48,0-.77.06h.05A5.74,5.74,0,0,0,59,95v0m.8,0-.15.09.15-.09m-3.31,0A4.2,4.2,0,0,0,57,95h.14l-.25,0-.36-.07m-.21,0,.21,0-.1,0h-.11m3.62,0-.1.05h0l.07,0m-4-.07.35.07-.35-.07m4.2-.06-.23.13.12-.07.11-.06m-4.48,0,.28.07h-.05l-.23-.06m4.54,0A4.69,4.69,0,0,1,59,95v0a4.16,4.16,0,0,0,.92-.18l.24-.08h0l-.05,0h0l0,0m-4.83-.08.29.1-.13,0-.16,0m-.42-.15.12.05a1.18,1.18,0,0,0,.3.1l-.42-.15m-.48-.23a3.63,3.63,0,0,0,.48.23l-.26-.12-.22-.11m0,0,0,0h0l0,0m-.11-.07.07,0,0,0-.1-.06h0m0,0h0m-.11-.09,0,0,0,0,.08.06,0,0-.11-.09M60.35,93h0l-.47.7-.48.69.68-1,.28-.42m0,0h0m0,0h0l0,0h0v0m0,0v0h0m0-.07,0,0v0l0-.05m.11-.2a.67.67,0,0,0-.06.12l0,0h0v0l.09-.16v0m.13-.25c-.07.13-.13.24-.17.33l.06-.11,0-.11.06-.11m.07-.15,0,.08v0l0-.1m0-.13v0l0,.11a1.12,1.12,0,0,1,0-.13m.08-.17,0,.1v0l0-.06,0-.06m.37-1,0,.09-.09.24a2.25,2.25,0,0,0-.08.24,1.07,1.07,0,0,0-.07.19c0,.05-.06.13-.1.24a8.89,8.89,0,0,0,.33-.89.76.76,0,0,0,0-.11m0-.13s0,.08,0,.13,0-.09,0-.13m.05-.18v0s0,.11,0,.16,0-.12.05-.18m.28-1.07q-.06.3-.15.6h0c.06-.2.11-.41.15-.6h0m0-.12,0,.06v.06l0-.12m.07-.39,0,.16v0h0v-.12m.08-.35v.1s0,0,0-.08v0m0-.1,0,.1h0l0-.09m.3-2.17-.09.79c0-.23.06-.5.09-.79m.09-1.26v0h0l0,.44v0c0,.24,0,.48-.05.71s0,.27,0,.38c-.05.45-.11.87-.17,1.26,0,.19-.06.39-.1.59h0v0l0,.1a4.32,4.32,0,0,0,0,1,8.58,8.58,0,0,0,1,2.74c.64,1.1,2.23,1.57,3.78,1.59A13.79,13.79,0,0,0,68.64,94a8.94,8.94,0,0,1,1-.14l.09,0c.11.74.28,1.52.46,2.31.43,2,.83,4,0,5.65a11.54,11.54,0,0,1-5.33-3.08c-.34-.68-1.72-1.2-3.29-1.51-1.22-.35-2.1,0-3.64-.64v0l-.06.08,0,0h0c-.08.11-.15.22-.22.33v0h0v0l0,0h0l0,0,0,0,0-.08.11-.15.1-.14a10.92,10.92,0,0,1-2.26-1.25l-.42-.22-1-1,0,0,0,0,3.17,3.15-.07.1.07-.1h0l13.75,13.65.82.65,1.64,1.29,3.29,2.61.83.66.41.32a1.85,1.85,0,0,0,.32.24h0l.57,0c2.85-.16,5.69-.44,8.4-.67l.48,0c5.76-.51,10.54-.94,14.83-.94,3.39-.26,8-.64,10.1-2,1.48-1.08,4.11-2,4.8-3.18.74-2.43,0-5.24-.16-7.56-1,.52-2.06,1-3.13,1.51-2,.91-4.12,1.76-6.24,2.57a11.81,11.81,0,0,1-4.82,2.16,41.48,41.48,0,0,1-8.17,1,10.69,10.69,0,0,1-1.44.09,37.19,37.19,0,0,1-11.85-2.61c-1.23-.65-1.25-1.82-2.49-2.45-.76-.33-1.54-.62-2.34-.88,2.73-1.07,5.26-2.49,3.78-2.49h0c2-.1,3.38-1.46,4.87-3a15.27,15.27,0,0,1,4.63-3.66,14.07,14.07,0,0,1,5-1,16.75,16.75,0,0,0,2.5-.3,6.7,6.7,0,0,0,2.27-.84c1.72-.82,3.5-1.87,5.1-1.87a3,3,0,0,1,1.65.46c.65.34,1.22.64,1.79.88a10.21,10.21,0,0,0,2,.62c1.89,0,3.81-.35,5.59-.35a7.56,7.56,0,0,1,3.33.64c1.19.71,2.22,2,3.46,2.82a3.53,3.53,0,0,0,1.87.59,3.59,3.59,0,0,0,1.19-.22,2.42,2.42,0,0,1,.63-.16,10.56,10.56,0,0,1,1.12-.09c.67,0,1.25-.11,1.42-.51h0c-.74-.34-1.37-1.11-2.36-1.56-1.82-1.06-4.08-1.08-5.75-2.26-1.86-1-3.37-2.36-5.5-3.14a14.56,14.56,0,0,0-4.18-.63c-1.46-.14-2.94-.22-4.42-.22a35.78,35.78,0,0,0-11.67,1.86,5.45,5.45,0,0,1-3.44,2.17c-1.38.4-2.89.61-4,1.08a17.1,17.1,0,0,1-2.48.27c-1.8.62-3.24,2-4.79,2a2.73,2.73,0,0,1-.83-.14c-3.87-1.61-7.49-3-10.64-4.22-.61-.27-1.74-.53-2.7-1a13.38,13.38,0,0,1-2.72-1.69,4.38,4.38,0,0,1-1.45-2,1.49,1.49,0,0,1-.08-.41v-.21m0-.09v.09h0v-.09m0-1v0m0-.31v.25c0-.08,0-.16,0-.24h0"/><path class="g" d="M28.73,62.09h0a2,2,0,0,0,.61.36c.78.4,2.65,1.2,6,2.89l.94.47-.94-.47c-3.34-1.69-5.21-2.49-6-2.89a2,2,0,0,1-.61-.36m.65,0-.12,0h0l.12,0h0m-.58,0,.27.06h0L28.8,62m0,0-.07.05h0L28.8,62h0m3.59-1.1c-.25,0-.53,0-.81,0,.28,0,.56,0,.81,0m-4-.2,1.38.14c.52,0,1.16.09,1.75.09h0c-.59,0-1.23,0-1.75-.09l-1.38-.14m5-.24a.22.22,0,0,1-.06.15l-.06.05a2,2,0,0,1-.88.24h0a2,2,0,0,0,.88-.24l.06-.05a.22.22,0,0,0,.06-.15h0m-.18-.27c.13.1.18.19.18.27,0-.08,0-.17-.18-.27m0,0,0,0h0l0,0m-9.75-.33h0M21,59.81l.28,0c.77,0,1.54.06,2.28.06-.74,0-1.51,0-2.28-.06l-.28,0m-.21,0,.45.07h.06c.56.09,1.64.3,3.69.77l2.29.54.75.18h0a10.07,10.07,0,0,1,1,.46l0,0c.16.1.27.18.27.23h0s-.11-.14-.27-.23l0,0a10.07,10.07,0,0,0-1-.46h0l-.81-.2-2.08-.48c-2.15-.5-3.26-.72-3.84-.81h-.06l-.45-.07h0m0,0h0l.12,0h0l-.12,0m11-.06a4.4,4.4,0,0,1,1.07.3,1.82,1.82,0,0,1,.32.18,1.82,1.82,0,0,0-.32-.18,4.4,4.4,0,0,0-1.07-.3m-1.75-.11-.9,0h-.53l-2.14.1-.6,0-.58,0-1.72.06c-.09,0-.14,0-.14,0h0s0,0,.14,0l1.69-.06.61,0,.61,0,2.13-.1h1.43a10.63,10.63,0,0,1,1.75.11h0a10.63,10.63,0,0,0-1.75-.11"/><path class="h" d="M57.63,97v0h0m0,0,0,0v0l0,0m.15-.23-.11.15,0,0,0,0h0v0l0-.06.06-.08,0,0,0,0h0m0,0,0,0-.17.25v0c.07-.11.14-.22.22-.33m0,0h0m0,0,0,0h0l0,0m.06-.08-.06.08.06-.08m.3-.35-.24.28h0l0,0v0l.12-.12v0l.12-.14,0,0v0h0m.29-.3-.09.09a.46.46,0,0,0-.07.07l-.13.14h0l0,0,.25-.26m.25-.23-.23.21h0l0,0,.09-.09.13-.12m.06,0h0l0,0h0l0,0M60.36,93h0l-.29.42-.68,1L59,95v0l-1.07,1.57-.1.14,0,0,.08-.12L59,95v0l.88-1.28.48-.71h0m.07-.12-.07.12h0l0,0h0v0h0v0h0m0-.08v0l0,.06,0,0h0l0,0m.11-.2,0,0-.06.11,0,0h0a.67.67,0,0,1,.06-.12l0-.07m0,0,0,0v0h0m.1-.23,0,.08-.06.11v0c0-.07.07-.14.09-.2v0h0m0,0h0m0-.08,0,.08,0-.08m1.37-5.88v.09c0,.29-.06.56-.09.79a1.57,1.57,0,0,1,0,.23c-.07.57-.16,1.11-.27,1.6v.16a14.24,14.24,0,0,1-.94,3l0-.09v0l0,0h0v0l.21-.53a2.25,2.25,0,0,1,.08-.24c.07-.19.13-.39.2-.62v0c0-.15.09-.3.13-.46h0c.06-.2.11-.42.16-.66l0-.06c0-.21.09-.42.13-.64v-.07c.05-.23.09-.47.13-.72s.12-.81.17-1.26c0-.11,0-.24,0-.38v0m.09-1.12c0,.46-.06.82-.09,1.12,0-.21,0-.43.05-.68v0h0c0-.1,0-.21,0-.31v-.1m0-.06v0h0v0h0m0-3h0v0m41.27-.56h-.39l-.65,0a30.66,30.66,0,0,0-3.13.25c-1.67.2-2.81,1.49-4.17,2.26a12.24,12.24,0,0,1-2.57,1.25c-.91.37-1.89.68-2.83,1a14.8,14.8,0,0,0-2.46,1.21A7.19,7.19,0,0,0,85,89.8a2,2,0,0,1-1.56.73c-3.17-.57-6.13-1.06-8.82-1.67a32.92,32.92,0,0,1-7.24-2.33c-.32-.19-.75-.34-1.17-.54l-.68-.29c-.21-.11-.39-.25-.58-.36a9.5,9.5,0,0,1-2-1.66l-.33-.45a4.83,4.83,0,0,1-.23-.45,1.93,1.93,0,0,1-.12-.44l0-.17v.52c0,.38,0,.76,0,1.12,0,.08,0,.16,0,.24v.42c0,.22,0,.42,0,.62v.3a1.49,1.49,0,0,0,.08.41,4.38,4.38,0,0,0,1.45,2,13.38,13.38,0,0,0,2.72,1.69c1,.47,2.09.73,2.7,1,3.15,1.25,6.77,2.61,10.64,4.22a2.73,2.73,0,0,0,.83.14c1.55,0,3-1.35,4.79-2a17.1,17.1,0,0,0,2.48-.27c1.14-.47,2.65-.68,4-1.08a5.45,5.45,0,0,0,3.44-2.17A35.78,35.78,0,0,1,107,87.46c1.48,0,3,.08,4.42.22a14.56,14.56,0,0,1,4.18.63c2.13.78,3.64,2.12,5.5,3.14,1.67,1.18,3.93,1.2,5.75,2.26,1,.45,1.62,1.22,2.36,1.56h0c.63-.21,1.82.09,1.69-.46.07-.7-.74-1.31-1.21-1.89-2.59-2-4.81-4.38-7.55-6a43.5,43.5,0,0,0-7.62-3.46l0,0c-.94-.32-1.89-.6-2.87-.84a33.12,33.12,0,0,0-8.14-1"/><path d="M106.64,81.38a7.16,7.16,0,0,0,1.57-.3c4.27-1.92,8.76-1.54,13.24-1.41,2.11.07,2.72,2.09,4.19,3a3.44,3.44,0,0,1,1,2.3c-.39-.2-.78-.36-1.15-.59-2.34-1.44-4.63-2.63-7.62-2.61A25.75,25.75,0,0,0,107,84.12a70.1,70.1,0,0,0-12.16,7.32A10.7,10.7,0,0,1,89,93.9c-1.87.11-3.72.54-5.58.82-2.6.39-4.64-1-6.72-2.18a1.7,1.7,0,0,1-.57-.72A27.85,27.85,0,0,0,76.85,88a5.69,5.69,0,0,1,2.35-4.34c3.74-2.94,7.62-5.59,12.25-7,3.58-1.11,7.07-2.5,10.81-3.84,1,1.38,2.43,1.17,3.83.4,2.86-1.58,6.17-2.49,8.32-5.19-1-1.39-1-1.39,1.4-4.31-.72-1.16-1.42-2.36-2.21-3.51-.34-.49-.84-1.22-1.29-1.24-2-.06-2.42-1.2-2-3.22a16.24,16.24,0,0,0-6.11,2.46L106,60.57c-5.11,1.42-9.22,4.27-13.5,6.79a39.16,39.16,0,0,1-16.54,5,39.7,39.7,0,0,1-14.61-1.26c-4.39-1.24-8.81-2.43-13.06-4-2.1-.8-3.86-2.53-6-4C38.6,66,35.27,69.23,34.15,74.14a12,12,0,0,0,5,12.15,17.23,17.23,0,0,0,6.64,2.79,28.23,28.23,0,0,1,3.84,1.17A77.49,77.49,0,0,0,74,93.75a21.1,21.1,0,0,1,4.15.74c-1.4,1.42-2.71,2.19-4.54,2.07-9.77-.68-19.39-2.11-28.65-5.44-2.08-.75-4.44-.67-6.25-2.26-1.12-1-2.39-1.84-3.82-2.94a6.62,6.62,0,0,0-3.69,3.61A37.53,37.53,0,0,0,28.35,97a8.53,8.53,0,0,0,.52,4.43,17,17,0,0,0,5.81,7.91,26.73,26.73,0,0,0,16.62,6q10.08.08,20.16.18a9.51,9.51,0,0,1,2.67.28c2.75.86,5.21.17,7.73-1a37.89,37.89,0,0,1,7.07-2.51A27.13,27.13,0,0,0,99.36,107c3.68-2.85,7.11-6,10.66-9,4.93-4.19,10.81-5.36,17.07-5.25a12.68,12.68,0,0,1,2.06.46A11.92,11.92,0,0,1,124,94.75a24.75,24.75,0,0,0-15.67,7.43,55.16,55.16,0,0,1-13,9.9,11.34,11.34,0,0,1-1.42.75c-5.31,1.85-10.62,3.72-16,5.48a5,5,0,0,1-2.91.08c-3.17-1-6.4-.76-9.61-.8-4.93,0-9.86.11-14.77-.08a28.34,28.34,0,0,1-20.26-9.15,21.74,21.74,0,0,1-4.16-6.53A9.62,9.62,0,0,1,26,96.3c.72-3,1.6-6.09,3.64-8.58,1.07-1.31,2.29-2.49,3.65-4a2.16,2.16,0,0,0-.2-.91c-2.72-4.88-1.88-9.59,1-14a93.93,93.93,0,0,1,6.57-8c0-2,0-4.25,0-6.48,0-2.43,1.31-3.88,3.22-5.17,4-2.73,8.59-4.22,13.18-5.63C62.36,42,67.36,39.9,71.75,36.26c4.62-3.83,10.39-5,16.22-5.8a4.16,4.16,0,0,1,1.58.26c2.64.78,5.29,1.54,7.9,2.43.6.2,1,.87,1.59,1.35l-8,8.22c2.3.31,4.48.58,6.66.9,6.72,1,12.8,3.33,17.54,8.45.55.59,1.25,1,1.83,1.58,3.74,3.58,4.65,7.92,3.31,12.79a20.51,20.51,0,0,0-.73,3.6,8.15,8.15,0,0,1-3.52,5.81c-1.8,1.3-3.79,2.34-5.71,3.48-1.23.72-2.48,1.41-3.72,2.12-1.71.23-3.36.59-4.46,2.11-2.32,0-3.88,1.64-5.65,2.7-4.13,2.48-4.06,2.58-4.73,4.37,1.11-.77,2-1.42,2.94-2l7.39-5.08A6.42,6.42,0,0,0,106.64,81.38ZM94.1,84.89c-2.12-.77-3.53.58-5,1.73a3.41,3.41,0,0,0,1.66-.28c1.12-.46,2.23-1,3.35-1.45.93-.45,1.84-.94,2.79-1.32.55-.21,1.25-.12,1.74-.4,2-1.12,3.87-2.34,5.8-3.52a6.48,6.48,0,0,0-3.56,0,23.66,23.66,0,0,0-4.45,2.88C95.56,83.22,94.25,83.5,94.1,84.89ZM118.64,66a12.39,12.39,0,0,0-.18-6.34c-.7-2.58-2.48-3.78-5.65-3.63a7.89,7.89,0,0,0,1,.67,7.44,7.44,0,0,1,4.47,6.76c.07.87.29,1.74.44,2.61-.22.13-.56.21-.65.4-2.36,5-6.83,7.21-11.76,8.78-1.11.33-2.21.7-3.34,1-.57.13-1.41.28-1.73,0-1-.91-1.9-.18-2.77.06-1.27.34-2.48.93-3.74,1.37A45.63,45.63,0,0,0,82.07,84a9.32,9.32,0,0,0-2.72,3.55c-1.1,2.42.21,4.15,3.05,4.4a1.7,1.7,0,0,0-.11-.47q-3-4.82,2.27-6.55a2.56,2.56,0,0,1,.5-.19C89,84.29,92.2,81.85,96,81a3.06,3.06,0,0,0,.49-.22c3-1.41,6-2.78,8.92-4.26.41-.2.58-.88.89-1.32l2.09.41-2,2.75c2.35-.85,4.43-2,6.59-3a8.51,8.51,0,0,0,4.1-4.06A31.87,31.87,0,0,0,118.64,66ZM93.28,64.9,93,64.22c-.67.19-1.36.33-2,.57-1.5.56-3,1.18-4.48,1.73a7.32,7.32,0,0,1-6-.44,11,11,0,0,1-5.89-7.23,6.85,6.85,0,0,1,0-2.85,14,14,0,0,1,6-9.24c3.09-2.26,6.37-4.27,9.53-6.45a15.08,15.08,0,0,0,5.25-5.2c-2.49-.9-4.87-1.79-7.27-2.61-.28-.1-.68.12-1,.2a12.83,12.83,0,0,1-1.8.38A23.55,23.55,0,0,0,75,36.56c-3.28,2-6.19,4.41-9.73,6.09a81.4,81.4,0,0,1-8.38,3.49c-3.22,1.11-6.54,1.94-9.64,3.31-4,1.8-5,3.71-4.32,8.15a7.65,7.65,0,0,0,1.46,3.91,13.14,13.14,0,0,0,6.7,4.26c3.11.77,6.1,2.11,9.23,2.81a66.14,66.14,0,0,0,10.83,1.7,42.15,42.15,0,0,0,15.54-2.57C89,67,91.09,65.85,93.28,64.9Zm16.78-13.35c-.32-.61-.48-1.44-1-1.74a20.49,20.49,0,0,0-5.18-2.74c-3.62-1-7.37-1.47-11-2.27a23.06,23.06,0,0,1-3.5-1.41C85.51,46.26,80.3,48.24,77.74,54c3.85-1.66,6.67-4.28,10.48-4.9-1.5,1.67-3.69,2.42-5.23,4.08l4.1-1.82.33.62c-.75.57-1.48,1.16-2.26,1.7-1.92,1.32-3.87,2.59-5.78,3.92a3.66,3.66,0,0,0-1.86,2.24,47.19,47.19,0,0,1,5.13-3c1.66-.71,3.15-2.15,5.27-1.64-1.46,1.16-3.07,2-4.61,3s-3.2,1.7-4.52,3.81c2.89-1.49,5.12-2.89,7.77-3.32-1.32,2.26-4.29,2.5-5.94,5.19l4.25-1.44.23.41-1.29,2a17.71,17.71,0,0,0,2.89-.66c3.61-1.54,7.2-3.12,10.77-4.77a30.36,30.36,0,0,0,10-7C107.93,51.89,108.87,51.9,110.06,51.55Zm3.17,1.7c-1-1.26-1-1.26-1.88-.2Z"/><path d="M98.58,97.52c1.84-.87,3.69-1.72,5.53-2.6,1.36-.65,2.66-1.54,4.29-1.09.57,2.51.42,2.74-1.73,3.45A4.89,4.89,0,0,0,105,98.4c-.86.84-1.57.46-2.42-.27a5.34,5.34,0,0,1-.93,1.59,4.3,4.3,0,0,1-1.6.43c.07,1.33.15,2.71.22,3.85H96.13l.27,3.22-.69.26-1.15-1.88c-2-.92-3.44.15-5,1.06-1.24.73-2.53,1.42-4,.87a3,3,0,0,1-2.29-2.67,2.5,2.5,0,0,1,1.88-2.62l4-1.57c-.07-1.18-.14-2.2-.2-3.35,2.31-.06,1.12,2,2,2.74,2.24-.39.37-2.5,1.7-3.53,2.09.4.43,2.33.91,3.71,1.41-1.55,0-3.54,1.26-4.77,1,.74,1,.74,1,4l2.94-2Zm-9.16,7,2.76-1.61C89.79,103.07,89.79,103.07,89.42,104.48Zm7.22-3,.37.39,1.17-.76-.44-.62Z"/><path d="M73.83,113.75c-2.06-.92-2.3-2.46-3-3.62-1.43-2.37-1.7-5.06-1.85-7.75a4.21,4.21,0,0,1,.39-2.08c.23-.42.91-.59,1.39-.87.25.42.79.93.69,1.25-1,3.42.17,6.53,1.23,9.67C73,111.31,73.33,112.28,73.83,113.75Z"/><path d="M111.82,94.85c-1.08-2.42-.54-3.27,1.49-3.17a4,4,0,0,0,1.92-.52c2-1,4.18-1,6.69-.86-.85,1.69-2.21,2.2-3.39,1.77-1.68-.61-2.7.16-3.87,1C113.8,93.63,112.89,94.17,111.82,94.85Z"/><path d="M70.13,91.41c-1.73-1.16-1.64-2.81-1.32-4.31a10.73,10.73,0,0,1,1.73-3.78c.48-.67,1.45-.54,2.08.6C70.65,85.93,70.32,88.6,70.13,91.41Z"/><path d="M67.46,111.25c-.62-2.55-1.27-5.1-1.85-7.66-.14-.6-.1-1.43.75-1.37.38,0,.92.72,1,1.2.42,1.82.72,3.67,1,5.51a14.94,14.94,0,0,1,0,2.22Z"/><path d="M64.29,109.81c-1.54-1.67-1.58-3.73-1.77-5.72,0-.27.48-.72.82-.86s.71.15.92.38C64.83,104.24,64.85,108.57,64.29,109.81Z"/><path d="M65.63,90.51A6.12,6.12,0,0,1,65,85.65c.17-.84.68-1.58,1.66-1.24s.54,1,.3,1.75c-.33,1-.45,2.07-.72,3.08A7,7,0,0,1,65.63,90.51Z"/><path d="M60.8,110.33c-1.44-1.73-1.26-3.39-1.5-4.9,0-.25.5-.79.82-.82s1,.32,1,.57A9.08,9.08,0,0,1,60.8,110.33Z"/><path d="M55.36,110.51c-.13-1.74-.31-3-.31-4.34,0-1.11.73-1.28,1.66-1C57.37,108,57.22,108.77,55.36,110.51Z"/><path d="M55.74,87.69c.34-.75.44-1.3.77-1.58a7.75,7.75,0,0,1,1.93-1.18,1.42,1.42,0,0,1,1.18,0,1.29,1.29,0,0,1,.28,1.13c-.38,1.47-1.11,1.93-2.68,1.82C56.87,87.86,56.52,87.79,55.74,87.69Z"/><path d="M62.25,84c1,2.33.44,4-1.38,4.3C61,86.74,60.4,85.14,62.25,84Z"/><path d="M98.67,97.43c-.71.1-1.51.24-1.56-.79a25.26,25.26,0,0,1,.23-2.86c1.76,1.2.81,2.67,1.23,3.74Z"/><path d="M101.36,95.18c-.3-.94-.54-1.82.51-2.51C102.68,94.31,102.68,94.31,101.36,95.18Z"/><path d="M101.9,101.92c.41-.27.63-.51.86-.54s.49.32.47.46a2.26,2.26,0,0,1-.42.73C102.57,102.41,102.34,102.24,101.9,101.92Z"/><path d="M70.23,65a7.14,7.14,0,0,1-1.34-1.17,10.43,10.43,0,0,1-1.18-6.22c0-.42.72-.8,1.1-1.2.37.42,1,.83,1,1.28C70.06,59.94,70.11,62.22,70.23,65Z"/><path d="M66.5,63.59a8.78,8.78,0,0,1-1.25-5.67,1,1,0,0,1,.73-.61c.4,0,1.09.3,1.1.5C67.21,59.74,67.44,61.71,66.5,63.59Z"/><path d="M62.43,63.62a10.2,10.2,0,0,1-.57-5.21c0-.24.62-.56,1-.62.2,0,.69.41.68.62-.05,1.59-.17,3.16-.33,4.74C63.19,63.29,62.81,63.4,62.43,63.62Z"/><path d="M60.15,63.68c-1.58-1.34-1.17-2.84-1.26-4.18,0-.22.49-.69.7-.66.37.06,1,.35,1,.63A6.13,6.13,0,0,1,60.15,63.68Z"/><path d="M56.34,61.56c-.44-2.55-.21-2.86,1.79-2.47A2.35,2.35,0,0,1,56.34,61.56Z"/></svg>