<svg xmlns="http://www.w3.org/2000/svg" viewBox="0 0 150 150"><defs><style>.a{fill:#e9b6bb;}.b{fill:#e2a3a9;}.c{fill:#d1747c;}.d{fill:#cf6e76;}.e{fill:#d67e84;}.f{fill:#df999f;}.g{fill:#f1d1d4;}.h{fill:#dd9399;}.i{fill:#e1a1a7;}.j{fill:#faeced;}</style></defs><title>icon</title><path class="a" d="M52.51,80.29h0a28.15,28.15,0,0,0-3.78-.66,28.15,28.15,0,0,1,3.78.66h0a23.69,23.69,0,0,1,2.61.85h0l.1,0c.65.28,1.15.54,1.49.71h0c.35.19.53.33.54.33h0a.91.91,0,0,0,.26.27,4.28,4.28,0,0,0,.61.41h0l0,0c.45.22,1,.47,1.53.69h0a12.89,12.89,0,0,0,1.45.53l.64.19a3,3,0,0,1,1.31-.24,19.85,19.85,0,0,1,4.07.7c1.9.49,3.41.82,3.41.82h0c.4.26.81.56,1.21.77h.1a3.54,3.54,0,0,1,1,.25h0a13.58,13.58,0,0,1,1.51.48l.08,0c1.08.35,2.27.59,2.27.59h0a8.31,8.31,0,0,0,3.23.64H80A14.22,14.22,0,0,0,85.68,87a22.52,22.52,0,0,0,3.13-1.68c.76-.49,1.18-.83,1.18-.83s-.42.34-1.18.83h0c.76-.49,1.18-.83,1.18-.83s-.42.34-1.18.83A22.52,22.52,0,0,1,85.68,87,14.22,14.22,0,0,1,80,88.36H80a8.31,8.31,0,0,1-3.23-.64h0s-1.19-.24-2.27-.59l-.08,0a13.58,13.58,0,0,0-1.51-.48h0a3.54,3.54,0,0,0-1-.25h-.1c-.4-.21-.81-.51-1.21-.77h0s-1.51-.33-3.41-.82a19.85,19.85,0,0,0-4.07-.7,3,3,0,0,0-1.31.24l-.64-.19a12.89,12.89,0,0,1-1.45-.53h0c-.53-.22-1.08-.47-1.53-.69l0,0h0a4.28,4.28,0,0,1-.61-.41.91.91,0,0,1-.26-.27h0s-.19-.14-.54-.33h0c-.34-.17-.84-.43-1.49-.71l-.1,0h0a23.69,23.69,0,0,0-2.61-.85h0a28.15,28.15,0,0,0-3.78-.66,28.15,28.15,0,0,1,3.78.66h0M44.28,63.18a15.49,15.49,0,0,0-3.23.33A15.15,15.15,0,0,0,37,65c-1,.51-1.64.93-2,1.08a15,15,0,0,1-3.47.93c-.34,0-.55-.09-.58-.33a1.55,1.55,0,0,0-1.56-.81,6.21,6.21,0,0,0-.93.09,20.16,20.16,0,0,1-2.89.5h-.3c-.43-.13-.32-1-.75-1.14h-.14A7.38,7.38,0,0,0,19.65,67a12.38,12.38,0,0,0-2.41,2.65,18.52,18.52,0,0,0-1.71,3,19,19,0,0,0-1.44,4.62,17.85,17.85,0,0,0-.28,3.32A17,17,0,0,0,14,83.05a19.18,19.18,0,0,0,1.43,5.08,18.38,18.38,0,0,0,2,3.43,17.41,17.41,0,0,0,1.78,2.13,32.27,32.27,0,0,0,2.49,2.57l1.43,1.32.88.81.36.18a30,30,0,0,0,4,1.63c2.56,1,3.26.67,4.05,1.56a.41.41,0,0,0,.26.06c.25,0,.64-.07,1.16-.14a14,14,0,0,1,1.89-.13,10.8,10.8,0,0,1,2.83.36c0-.07-.21-.51-.59-1.32a28.5,28.5,0,0,1-6.3-2,19.29,19.29,0,0,1-5-3.22,11.48,11.48,0,0,1-1.87-2.21,19.57,19.57,0,0,1-2.14-3.95s-.08-.15-.24-.42a15.11,15.11,0,0,1-.69-1.37,15.3,15.3,0,0,1-.92-2.62,13.41,13.41,0,0,1-.42-3.32c0-.25,0-.52,0-.78a12,12,0,0,1,1.09-4.33,11.7,11.7,0,0,1,1.89-2.86A10.48,10.48,0,0,1,25,72c.5-.33.93-.56,1.43-.85A14.72,14.72,0,0,1,32,68.94h.28a1.56,1.56,0,0,1,1.28.46,1.12,1.12,0,0,1,.22.73,3.48,3.48,0,0,1-.17,1,30.65,30.65,0,0,0-.91,4l-.33,2a10.64,10.64,0,0,0-.19,1.76c0,.13,0,.26,0,.39,0,.66.36,1.18.78,1.18h0c.35,0,.65-.14,1.07-.14l.24,0a9.06,9.06,0,0,1,2.31.55l3,1c2,.7,4,1.44,6,2.18a121.39,121.39,0,0,1,11.2,4.74,2.22,2.22,0,0,0,.28.12,3.48,3.48,0,0,0,.87.23,9.66,9.66,0,0,0,1.5.12A10.16,10.16,0,0,0,61.63,89l1.21.22c.73.09,1.71.36,2.72.55a17.19,17.19,0,0,1,3,.94,6,6,0,0,1,1.33.68,6.35,6.35,0,0,1,1.09,1l1.28.71a21.7,21.7,0,0,0,3.27,1.22,17.44,17.44,0,0,0,4.17.53H80A11,11,0,0,0,84,94l.69.14a10.62,10.62,0,0,0,1.71.15h.18a8,8,0,0,0,2.56-.4c.91-.48,1.45-.79,1.45-.79h0a4.54,4.54,0,0,1-1.45.79c-.52.28-1.17.61-1.9,1,2.29-.94,4.55-1.94,6.5-2.74a18.9,18.9,0,0,1,5-1.58.77.77,0,0,1,.34.06l1.62-.5c1-.3,2.18-.7,3.3-1.12a26.49,26.49,0,0,0,2.86-1.24c.54-.26,1-.49,1.35-.65a3.59,3.59,0,0,1-.81.09h-.06a7,7,0,0,1-2.18-.42h0a7.39,7.39,0,0,0,1-1.82,6.18,6.18,0,0,0,.4-2.2,5.41,5.41,0,0,0-.12-1.23,7.31,7.31,0,0,0-1.13-2.7,8.64,8.64,0,0,0-1.8-2,9.07,9.07,0,0,0-1.1-.77c-.37-.2-.75-.39-1.13-.56l-.4-.17a4.14,4.14,0,0,1,.35.38,7.08,7.08,0,0,1,1.11,2.38,12.3,12.3,0,0,1,.9,2.77,3.6,3.6,0,0,1,0,.56,2.31,2.31,0,0,1-.86,1.93,2.12,2.12,0,0,1-1,.21,3.91,3.91,0,0,1-1.28-.25,2.73,2.73,0,0,0-1-.18,7,7,0,0,0-1.14.11c-.91.15-1.89.43-2.86.64a7.3,7.3,0,0,1-2,.26A22.07,22.07,0,0,1,90.7,84a22.25,22.25,0,0,0-2.44-.18c-.23,0-.45,0-.68,0-2.59.1-4.91,1.1-7.12,1.1a5.77,5.77,0,0,1-1.88-.29c.2.08.29.14.29.18s-.22.1-.6.1H78c-.41,0-.94,0-1.52-.1l-1.85-.28a26.15,26.15,0,0,1-3.23-.78c-.46-.17-.74-.29-.74-.35s0,0,.13,0h.14a1.62,1.62,0,0,1-.74-1.1h0c.11-.24.09-.67.33-.74,1.9-.48,2.09-2.11,2.91-3.26-.07-.07-1.51-.47-3-1.12a8.94,8.94,0,0,1-3.68-2.59c-.43-.74-.79-1.45-1.12-2.17a7.83,7.83,0,0,0-.59-1,4.13,4.13,0,0,0-.72-.9.69.69,0,0,0-.25,0l-.35,0a2.45,2.45,0,0,1-.38,0,.88.88,0,0,1-.45-.11c-.22-.17-1.29-.68-3.08-1.67a78.88,78.88,0,0,0-7.57-3.84,22.92,22.92,0,0,0-5.48-1.57,15.34,15.34,0,0,0-2.44-.19"/><path class="b" d="M74.38,87.1l.08,0c1.08.35,2.27.59,2.27.59h0s-1.19-.24-2.27-.59h0l0,0h0m-2.52-.73h0M90,84.52s-.42.34-1.18.83h0a22.94,22.94,0,0,1-3,1.63l-.12,0A14.22,14.22,0,0,1,80,88.36h0A14.22,14.22,0,0,0,85.68,87a22.52,22.52,0,0,0,3.13-1.68c.76-.49,1.18-.83,1.18-.83m-30.32-.91h0a12.89,12.89,0,0,0,1.45.53l.64.19a3,3,0,0,1,1.31-.24,19.85,19.85,0,0,1,4.07.7c1.9.49,3.41.82,3.41.82h0s-1.51-.33-3.41-.82a19.85,19.85,0,0,0-4.07-.7,3,3,0,0,0-1.31.24l-.64-.19a12.89,12.89,0,0,1-1.45-.53h0m-1.55-.71h0l0,0,0,0h0m-.87-.68h0a.91.91,0,0,0,.26.27h0a.91.91,0,0,1-.26-.27h0m-2.13-1.08h0l.1,0-.1,0h0m-6.44-1.52a28.15,28.15,0,0,1,3.78.66h0a28.15,28.15,0,0,0-3.78-.66"/><path class="a" d="M106,63.58c-.27,0-.46.09-.48.3a10,10,0,0,0-.06,1.1c0,2.92,1.25,6.1,2.24,9.36.53,1.7,1.31,3.28,1.92,4.83a13.07,13.07,0,0,1,1,4.55,2.26,2.26,0,0,1,0,.26,3.31,3.31,0,0,1-1.07,2.49,3.13,3.13,0,0,1-.82.49,4.15,4.15,0,0,0,.55-.1,3.55,3.55,0,0,0,1.37-.7,7.49,7.49,0,0,0,.09-1.17c0-.3,0-.61,0-.94h0c0-.11,0-.22,0-.33a13.15,13.15,0,0,0-1-4.49c-.59-1.56-1.38-3.14-1.9-4.85-1-3.28-2.24-6.48-2.23-9.41a9.46,9.46,0,0,1,.06-1.07c0-.21.21-.29.48-.29l.28,0a2.17,2.17,0,0,0-.41-.05"/><path class="a" d="M38.36,89.45a3.9,3.9,0,0,0-.48.23h.32c1.64.09,3.36.18,5,.33q-2.3-.36-4.89-.57M96.54,74a1.86,1.86,0,0,1,.23.26l.44,0,.53,0L96.54,74"/><path class="a" d="M55,93c.48.24,1.06.52,1.7.8a35.2,35.2,0,0,0,3.93,1.55c-1-.5-2.34-1.08-3.9-1.71L55,93"/><path class="a" d="M36.42,98.44a15.78,15.78,0,0,0,1,1.3c-.15-.32-.32-.66-.51-1l-.54-.26"/><path class="a" d="M45.61,100.27A64.79,64.79,0,0,0,55,102.6c1.24.24,2.5.39,3.74.52-1.25-.27-2.49-.57-3.71-.86-3.27-.76-6.42-1.53-9.4-2"/><path class="c" d="M106.38,63.63a5.49,5.49,0,0,1,1.76.78A19.29,19.29,0,0,1,112.75,69a38.39,38.39,0,0,1,3.72,6.2c.52.68,1.17,2.19,1.59,2.69A6.67,6.67,0,0,1,119.22,80a16.22,16.22,0,0,1,.66,4.56,14.68,14.68,0,0,1-1,5.53,15.26,15.26,0,0,1-6.14,7.16,39.8,39.8,0,0,1-6.73,3.82c-2.1,1-4,1.72-6.37,2.55-4.52,1.44-8,3.46-13,3.87l-8.81,1.12c-1.46.19-3,.42-4.72.55s-3.64.29-5.85.32h-.31a49.53,49.53,0,0,1-10.79-1.58c-4.31-1.06-8.39-2.58-10.5-3.06a11,11,0,0,1-3.5-1.3,20.27,20.27,0,0,0-3.5-1.61l-.14,0h0a19.93,19.93,0,0,1,3.5,1.62,11.11,11.11,0,0,0,3.5,1.3c2.11.48,6.19,2,10.49,3.08a49.11,49.11,0,0,0,10.79,1.61h.32c2.21,0,4.12-.12,5.85-.31s3.27-.34,4.73-.53l8.83-1.1c5-.4,8.48-2.42,13-3.86,2.36-.83,4.26-1.59,6.36-2.54a41.32,41.32,0,0,0,6.74-3.79,15.49,15.49,0,0,0,6.22-7.11,14.81,14.81,0,0,0,1.11-5.71,16.8,16.8,0,0,0-.61-4.43A7,7,0,0,0,118.17,78c-.42-.5-1.06-2-1.57-2.71A38.92,38.92,0,0,0,112.89,69a19.42,19.42,0,0,0-4.62-4.57,5.18,5.18,0,0,0-1.89-.81"/><path class="d" d="M106.1,63.61c-.27,0-.46.08-.48.29a9.46,9.46,0,0,0-.06,1.07c0,2.93,1.25,6.13,2.23,9.41.52,1.71,1.31,3.29,1.9,4.85a13.15,13.15,0,0,1,1,4.49c0,.11,0,.22,0,.33,0,.33,0,.64,0,.94a7.49,7.49,0,0,1-.09,1.17l.15-.14A4.14,4.14,0,0,0,112,83.8a4.56,4.56,0,0,0,.09-.92,4.81,4.81,0,0,0-.52-2.18,14.37,14.37,0,0,0-.34-2.16,26,26,0,0,0-1.48-4.34A13.48,13.48,0,0,1,108.59,71v-.06c0-.21.11-.34.33-.34s1,.35,2,1.23a21.56,21.56,0,0,1,2.29,1.89,17.36,17.36,0,0,1,3.27,4.14l.16.44c.11.29.26.71.42,1.27a16.73,16.73,0,0,1,.69,4.7v.1a14.21,14.21,0,0,1-.42,3.35,12.92,12.92,0,0,1-1.47,3.5,15.71,15.71,0,0,1-5.51,5.31A33.4,33.4,0,0,1,104,99.39c-2,.7-3.92,1.27-5.61,1.78a32.38,32.38,0,0,1-6.21,1.41l-.22,0-1.61.36c-1,.22-2.53.55-4.36.89a63.31,63.31,0,0,1-12,1.25c-.73,0-1.48,0-2.23,0a78.21,78.21,0,0,1-13.1-1.89c-1.24-.13-2.5-.28-3.74-.52a64.79,64.79,0,0,1-9.37-2.33,33.52,33.52,0,0,0-5.07-.44h-.82s-1.07-.4-2.63-1.08L37,98.7c.19.38.36.72.51,1s.57.62.9.94h0l-.48-.09c.38.81.56,1.25.59,1.32l.14,0a20.27,20.27,0,0,1,3.5,1.61,11,11,0,0,0,3.5,1.3c2.11.48,6.19,2,10.5,3.06a49.53,49.53,0,0,0,10.79,1.58h.31c2.21,0,4.12-.13,5.85-.32s3.26-.36,4.72-.55l8.81-1.12c4.94-.41,8.47-2.43,13-3.87,2.36-.83,4.27-1.59,6.37-2.55a39.8,39.8,0,0,0,6.73-3.82,15.26,15.26,0,0,0,6.14-7.16,14.68,14.68,0,0,0,1-5.53,16.22,16.22,0,0,0-.66-4.56,6.67,6.67,0,0,0-1.16-2.15c-.42-.5-1.07-2-1.59-2.69a38.39,38.39,0,0,0-3.72-6.2,19.29,19.29,0,0,0-4.61-4.55,5.49,5.49,0,0,0-1.76-.78l-.28,0"/><path class="e" d="M108.92,70.59c-.22,0-.32.13-.33.34V71a13.48,13.48,0,0,0,1.16,3.21,26,26,0,0,1,1.48,4.34,14.37,14.37,0,0,1,.34,2.16,4.81,4.81,0,0,1,.52,2.18,4.56,4.56,0,0,1-.09.92A4.14,4.14,0,0,1,110.8,86a3.44,3.44,0,0,1-1.52.84,4.15,4.15,0,0,1-.55.1l-.14,0a2.66,2.66,0,0,0-.41.16c-.38.16-.81.39-1.35.65A26.49,26.49,0,0,1,104,89c-1.12.42-2.35.82-3.3,1.12l-1.62.5a.77.77,0,0,0-.34-.06,18.9,18.9,0,0,0-5,1.58c-2,.8-4.21,1.8-6.5,2.74l-.48.23a44.2,44.2,0,0,1-8.66,3.23,25.55,25.55,0,0,1-6.18.76,23.5,23.5,0,0,1-3.22-.22c-.69-.12-1.35-.22-1.94-.37s-1.13-.35-1.6-.53a3.9,3.9,0,0,1-1.85-1.23l-.45-.27-1.29-.7-.91-.45a35.2,35.2,0,0,1-3.93-1.55c-.64-.28-1.22-.56-1.7-.8a62.41,62.41,0,0,0-11.79-3c-1.69-.15-3.41-.24-5-.33h-.32a6.26,6.26,0,0,0-2.49,2.25,4.48,4.48,0,0,0-.61,2.26,7.34,7.34,0,0,0,1.64,4.25l.54.26.13.06c1.56.68,2.63,1.08,2.63,1.08h.82a33.52,33.52,0,0,1,5.07.44c3,.46,6.13,1.23,9.4,2,1.22.29,2.46.59,3.71.86A78.21,78.21,0,0,0,71.82,105c.75,0,1.5,0,2.23,0a63.31,63.31,0,0,0,12-1.25c1.83-.34,3.32-.67,4.36-.89l1.61-.36.22,0a32.38,32.38,0,0,0,6.21-1.41c1.69-.51,3.56-1.08,5.61-1.78a33.4,33.4,0,0,0,6.36-2.87,15.71,15.71,0,0,0,5.51-5.31,12.92,12.92,0,0,0,1.47-3.5,14.21,14.21,0,0,0,.42-3.35v-.1a16.73,16.73,0,0,0-.69-4.7c-.16-.56-.31-1-.42-1.27l-.16-.44a17.36,17.36,0,0,0-3.27-4.14A21.56,21.56,0,0,0,111,71.82c-1-.88-1.68-1.23-2-1.23"/><path class="f" d="M32.3,68.93H32a14.72,14.72,0,0,0-5.55,2.16c-.5.29-.93.52-1.43.85a10.48,10.48,0,0,0-1.74,1.53,11.7,11.7,0,0,0-1.89,2.86,12,12,0,0,0-1.09,4.33c0,.26,0,.53,0,.78a13.41,13.41,0,0,0,.42,3.32,15.3,15.3,0,0,0,.92,2.62,15.11,15.11,0,0,0,.69,1.37c.16.27.24.42.24.42a19.57,19.57,0,0,0,2.14,3.95,11.48,11.48,0,0,0,1.87,2.21,19.29,19.29,0,0,0,5,3.22,28.5,28.5,0,0,0,6.3,2l.48.09c-.33-.32-.63-.64-.9-.94a15.78,15.78,0,0,1-1-1.3,7.34,7.34,0,0,1-1.64-4.25,4.48,4.48,0,0,1,.61-2.26,6.52,6.52,0,0,1,3-2.48q2.6.21,4.89.57A62.41,62.41,0,0,1,55,93l1.73.64c1.56.63,2.87,1.21,3.9,1.71l.91.45,1.29.7.45.27A3.9,3.9,0,0,0,65.17,98c.47.18,1,.36,1.6.53s1.25.25,1.94.37a23.5,23.5,0,0,0,3.22.22,25.55,25.55,0,0,0,6.18-.76,44.2,44.2,0,0,0,8.66-3.23l.48-.23c.73-.37,1.38-.7,1.9-1a8,8,0,0,1-2.56.4h-.18a10.62,10.62,0,0,1-1.71-.15L84,94a11,11,0,0,1-4,.74h-.26a17.44,17.44,0,0,1-4.17-.53A21.7,21.7,0,0,1,72.29,93L71,92.33a6.35,6.35,0,0,0-1.09-1,6,6,0,0,0-1.33-.68,17.19,17.19,0,0,0-3-.94c-1-.19-2-.46-2.72-.55L61.63,89a10.16,10.16,0,0,1-2.21.26,9.66,9.66,0,0,1-1.5-.12,3.48,3.48,0,0,1-.87-.23,2.22,2.22,0,0,1-.28-.12A121.39,121.39,0,0,0,45.57,84c-2-.74-4-1.48-6-2.18l-3-1a9.06,9.06,0,0,0-2.31-.55l-.24,0c-.42,0-.72.13-1.07.14h0c-.42,0-.73-.52-.78-1.18,0-.13,0-.26,0-.39a10.64,10.64,0,0,1,.19-1.76l.33-2a30.65,30.65,0,0,1,.91-4,3.48,3.48,0,0,0,.17-1,1.12,1.12,0,0,0-.22-.73,1.56,1.56,0,0,0-1.28-.46"/><path class="f" d="M90.6,93.14s-.54.31-1.45.79a4.54,4.54,0,0,0,1.45-.79"/><path class="g" d="M40.64,53.65c-.94,0-1.89.05-2.85.13a26.61,26.61,0,0,0-3.78.75,28.5,28.5,0,0,0-6.44,2.75A40.69,40.69,0,0,0,23,60.41c-2.52,2-4.28,3.55-5.74,4.5a9.86,9.86,0,0,0-1.11,1,18.23,18.23,0,0,0-2,2.44,20.88,20.88,0,0,0-2.49,5.09,21.12,21.12,0,0,0-.91,3.9,20.67,20.67,0,0,0-.2,2.88q0,.83.06,1.65a23.18,23.18,0,0,0,1.58,6.72,23.64,23.64,0,0,0,5,7.73,14.15,14.15,0,0,0,1.68,1.48,7.7,7.7,0,0,0,2,.9c.57.2,1.15.38,1.73.55l3.42,1c-.68-.6-1.37-1.21-2-1.82l-.88-.81-1.43-1.32a32.27,32.27,0,0,1-2.49-2.57,17.41,17.41,0,0,1-1.78-2.13,18.38,18.38,0,0,1-2-3.43A19.18,19.18,0,0,1,14,83.05a17,17,0,0,1-.17-2.48,17.85,17.85,0,0,1,.28-3.32,19,19,0,0,1,1.44-4.62,18.52,18.52,0,0,1,1.71-3A12.38,12.38,0,0,1,19.65,67a7.38,7.38,0,0,1,4.72-1.75h.14c.43.13.32,1,.75,1.14h.3a20.16,20.16,0,0,0,2.89-.5,6.21,6.21,0,0,1,.93-.09,1.55,1.55,0,0,1,1.56.81c0,.24.24.33.58.33A15,15,0,0,0,35,66c.36-.15,1-.57,2-1.08a15.15,15.15,0,0,1,4.06-1.44,15.88,15.88,0,0,1,5.67-.14,22.92,22.92,0,0,1,5.48,1.57,78.88,78.88,0,0,1,7.57,3.84c1.79,1,2.86,1.5,3.08,1.67a.88.88,0,0,0,.45.11,2.45,2.45,0,0,0,.38,0l.35,0a.69.69,0,0,1,.25,0,4.13,4.13,0,0,1,.72.9,7.83,7.83,0,0,1,.59,1c.33.72.69,1.43,1.12,2.17a8.94,8.94,0,0,0,3.68,2.59c1.53.65,3,1,3,1.12h0c-.82,1.15-1,2.78-2.91,3.26-.24.07-.22.5-.33.74a1.62,1.62,0,0,0,.74,1.1h-.14c-.08,0-.12,0-.13,0s.28.18.74.35a26.15,26.15,0,0,0,3.23.78l1.85.28c.58.06,1.11.09,1.52.1h.27c.38,0,.6,0,.6-.1s-.09-.1-.29-.18h0a5.77,5.77,0,0,0,1.88.29c2.21,0,4.53-1,7.12-1.1.23,0,.45,0,.68,0A22.25,22.25,0,0,1,90.7,84a22.07,22.07,0,0,0,2.41.18,7.3,7.3,0,0,0,2-.26c1-.21,2-.49,2.86-.64a7,7,0,0,1,1.14-.11,2.73,2.73,0,0,1,1,.18,3.91,3.91,0,0,0,1.28.25,2.12,2.12,0,0,0,1-.21,2.31,2.31,0,0,0,.86-1.93,3.6,3.6,0,0,0,0-.56,12.3,12.3,0,0,0-.9-2.77,7.08,7.08,0,0,0-1.11-2.38,4.14,4.14,0,0,0-.35-.38,3.63,3.63,0,0,0-2.56-1h-.07l-.51,0-.53,0-.44,0-.56,0a.94.94,0,0,0-.67.16c.61.22,1.09.65,1.86,1s1.46.68,2.13,1.08a3.71,3.71,0,0,1,1.54,1.43,3.57,3.57,0,0,1,.43,1.69,5,5,0,0,1-.22,1.41c-.11.48-.34.66-.41.66s0,0,0,0h0l-.1,0a1.68,1.68,0,0,0-.28-.08l-.25,0c-.43,0-1.16.08-2.06.09-2,.05-4,.17-5.91.34a4.52,4.52,0,0,1-2.64.64c-1.06,0-2.16-.15-3.08-.15a15.81,15.81,0,0,1-1.73-.36c-.26,0-.53,0-.8,0H82.67a3.76,3.76,0,0,1-2.25-.5c-2.06-1.68-4-3.28-6-4.84-.84-.62-3-2-4.63-3.38a32.55,32.55,0,0,1-3.33-3.49,12.9,12.9,0,0,0-2.31-2.08,39.58,39.58,0,0,1-3.65-3.33l0,0s0,0,.13,0l.33,0-1.08-.9c-.32-.12-1.33-.7-1.69-.83-.47-.4-.83-.76-1.22-1.15s-.8-.83-1.24-1.33A17,17,0,0,0,48.21,55a22.18,22.18,0,0,0-6.71-1.37h-.86"/><path class="g" d="M100.81,81.59h0l0,0,0,0"/><path class="h" d="M52.51,80.29a23.69,23.69,0,0,1,2.61.85,23.69,23.69,0,0,0-2.61-.85"/><path class="h" d="M55.22,81.18c.65.28,1.15.54,1.49.71-.34-.17-.84-.43-1.49-.71"/><path class="h" d="M56.71,81.89c.35.19.53.33.54.33s-.19-.14-.54-.33"/><path class="h" d="M57.25,82.22a.91.91,0,0,0,.26.27.91.91,0,0,1-.26-.27"/><path class="h" d="M57.51,82.49a4.28,4.28,0,0,0,.61.41,4.28,4.28,0,0,1-.61-.41"/><path class="h" d="M58.14,82.92c.45.22,1,.47,1.53.69-.53-.22-1.08-.47-1.53-.69"/><path class="i" d="M90,84.52s-.42.34-1.18.83A22.52,22.52,0,0,1,85.68,87,14.22,14.22,0,0,1,80,88.36h0A14.22,14.22,0,0,0,85.68,87l.12,0a22.94,22.94,0,0,0,3-1.63h0c.76-.49,1.18-.83,1.18-.83m-30.32-.91h0a12.89,12.89,0,0,0,1.45.53l.64.19a3,3,0,0,1,1.31-.24,19.85,19.85,0,0,1,4.07.7c1.9.49,3.41.82,3.41.82h0s-1.51-.33-3.41-.82a19.85,19.85,0,0,0-4.07-.7,3,3,0,0,0-1.31.24l-.64-.19a12.89,12.89,0,0,1-1.45-.53h0"/><path class="h" d="M88.81,85.35a22.94,22.94,0,0,1-3,1.63,22.94,22.94,0,0,0,3-1.63"/><path class="h" d="M70.55,85.61c.4.26.81.56,1.21.77-.4-.21-.81-.51-1.21-.77"/><path class="h" d="M71.86,86.37h0a3.54,3.54,0,0,1,1,.25,3.54,3.54,0,0,0-1-.25"/><path class="h" d="M72.87,86.62a13.58,13.58,0,0,1,1.51.48,13.58,13.58,0,0,0-1.51-.48"/><path class="i" d="M74.38,87.1h0l0,0h0c1.08.35,2.27.59,2.27.59h0s-1.19-.24-2.27-.59l-.08,0"/><path class="h" d="M74.41,87.11l0,0,0,0m0,0h0"/><path class="h" d="M76.73,87.72a8.31,8.31,0,0,0,3.23.64,8.31,8.31,0,0,1-3.23-.64"/><path class="j" d="M100.81,81.59h0l0,0h0l0,0h0M60.59,64.42c-.08,0-.13,0-.13,0l0,0a39.58,39.58,0,0,0,3.65,3.33,12.9,12.9,0,0,1,2.31,2.08,32.55,32.55,0,0,0,3.33,3.49c1.66,1.42,3.79,2.76,4.63,3.38,2,1.56,4,3.16,6,4.84a3.76,3.76,0,0,0,2.25.5H84c.27,0,.54,0,.8,0a15.81,15.81,0,0,0,1.73.36c.92,0,2,.15,3.08.15A4.52,4.52,0,0,0,92.26,82c2-.17,3.95-.29,5.91-.34.9,0,1.63,0,2.06-.09l.25,0a1.68,1.68,0,0,1,.28.08l.1,0h0s0,0,0,0,.3-.18.41-.66a5,5,0,0,0,.22-1.41,3.57,3.57,0,0,0-.43-1.69,3.71,3.71,0,0,0-1.54-1.43c-.67-.4-1.44-.7-2.13-1.08s-1.25-.77-1.86-1H94.49c-.22,0-.38,0-.38.12v0h0s0,0,0,.06c0,.33.6.65.93.94a12.58,12.58,0,0,1,3.77,3.12h0c-.19,0-.45,0-.76-.06l-1.31,0h-.81a11.64,11.64,0,0,0-3,.82c-2.28.7-5.19.14-7.5,1.22a1.19,1.19,0,0,1-.56.11,2,2,0,0,1-.65-.1,52.43,52.43,0,0,1-9.6-6c-.88-.71-2.8-2-4.25-3.23a19.76,19.76,0,0,1-2.73-2.91c-.41-.32-.69-.7-1-.93l-1.13-.83c-.22-.16-.43-.3-.64-.43a7.29,7.29,0,0,0-.67-.42c-.41-.24-.88-.51-1.26-.68a6.39,6.39,0,0,0-2.35-.76"/><path d="M107.12,48.54c2.77,1.25,4.22,3.67,5.14,6.32,3,8.67,6.66,17,10.14,25.52,1.21,3,.72,6.69.72,10.06,0,1.55-.79,3.08-1.07,4.64-.94,5.35-4.76,8.37-9,11a53.55,53.55,0,0,1-26.21,8.07,145,145,0,0,1-16.14.28c-8.16-.53-16.47-.6-24.25-3.58-5.14-2-9.88-4.58-13.58-9s-6.39-9-6.7-14.52a49.13,49.13,0,0,1,1.1-13.25,104.35,104.35,0,0,1,4.81-14.22,24.46,24.46,0,0,1,3.06-5.2A20.51,20.51,0,0,0,38.51,44c.22-3.27,2.31-4.89,4.79-5.59,5.2-1.47,10.51-3,15.87-3.4,7.94-.65,16-.53,23.93-.5,3.55,0,7.1.6,10.65.91a8.33,8.33,0,0,0,1.8,0c1.92-.28,3.75-.28,5.41,1a8.9,8.9,0,0,0,1.47.77c4.06,2,5,2.24,4.35,7.34-.33-.89-.59-1.8-1-2.65a11.86,11.86,0,0,0-1.46-2.27c.47,2.72,0,3.34-2.61,4.21-5.61,1.84-11.41,2.46-17.24,2.92-3.87.3-7.73.83-11.6,1-3.18.16-6.38-.09-9.56-.06-2.8,0-5.61.41-8.38.24a66.06,66.06,0,0,1-8.21-1.29c-1.76-.32-3.49-.8-5.28-1.07a18.37,18.37,0,0,0,9.87,3.58c6.35.33,12.72,0,19.08.13a11.25,11.25,0,0,1,4.65,1.14c-12-.19-24.23,3.15-35.74-3.84A7,7,0,0,0,44.15,52c3.78,1.5,7.69,3.13,11.67,3.53,7.53.77,15.14,1.59,22.74.09,4.09-.81,8.27-1.13,12.38-1.83A11.47,11.47,0,0,0,95,52a11.86,11.86,0,0,0-2.36-.19c-4.56.52-9.09,1.36-13.65,1.62-6.63.38-13.28.38-19.92.44a4.55,4.55,0,0,1-2.81-1.27c11.69.87,23.17-.46,34.68-1.83,0,0,.06-.14,0-.2-.61-.77-1.23-1.53-1.85-2.29,1-.26,2.07-.85,3-.72,2.3.34,4.55,1,6.25,1.41a38.43,38.43,0,0,1,4.45-4.16c1.43-1,3.06-.41,4.37.68s1.52,2.12-.08,3.11c-1.34,1.57-2.68,3.15-4.32,5.06.36,1.68,1.28,4-.39,6.26-.21-1-.1-2-.24-3a25,25,0,0,0-.9-3.11c-3,2.45-3.5,4.75-2.11,7.56A5.47,5.47,0,0,1,100,63.2a37,37,0,0,1-.3,4.07c-.9-2.17-1.69-4-2.43-5.9a2.39,2.39,0,0,1-.15-1c.18-2.14.38-4.27.58-6.44l-3.77.66c-5.73,1-11.44,2.25-17.22,3a67.51,67.51,0,0,1-10.36.26c-6.12-.13-12.3-.05-18.12-2.35-3.09-1.22-6-2.75-9.3-4.25-1.8,3.09-3.69,6.08-5.35,9.2a53.54,53.54,0,0,0-5.44,18,30,30,0,0,0,.1,10.81c2.89,11.72,11.13,18.52,22.42,21.22,6.52,1.57,13.38,1.91,20.12,2.24a157,157,0,0,0,18.14-.39,46.64,46.64,0,0,0,21.35-6.44c3.11-1.89,6.77-4,8.4-7,3.74-6.82,4.76-14.29,1.21-21.78-1.84-3.89-3.89-7.71-5.35-11.74-2-5.58-3.37-11.42-7.33-16.11C107.05,49.16,107.13,48.81,107.12,48.54ZM46.66,45.08a18.9,18.9,0,0,0,3.18.76c5.09.19,10.2.62,15.27.37,9.88-.49,19.74-1.34,29.6-2.11,1-.08,2.55-.06,2.51-1.42,0-.51-1.66-1.23-2.64-1.42A80,80,0,0,0,84.1,39.64c-4.61-.25-9.24-.94-13.88.22A72.9,72.9,0,0,1,61.6,41.2C56.65,41.83,51.66,42.27,46.66,45.08ZM74.4,35.52c-4.56.23-8.54.7-12.52.58-6.55-.2-12.4,2.21-18.37,4.28-.44.16-1,.49-1.13.86-.18.57-.16,1.74,0,1.8a6.8,6.8,0,0,0,3.44.55c2.1-.56,4-2,6.13-2.3C62,40,71.86,37,82.17,38.21c6.1.73,12.29.76,18,3.58.6.29,1.62-.27,2.44-.43a16.91,16.91,0,0,0-1-1.87,1.94,1.94,0,0,0-1-.72C97.71,38,94.9,37,92,36.67,86,36.06,79.91,35.86,74.4,35.52ZM101.24,51l5.73-4.1c-1.45-1.33-2.87-1.46-4.17-.53S100.19,48.71,101.24,51Zm-2.3,1,.27-.85-7.4-2.59-.23.68Z"/><path d="M94.1,89.67a2.37,2.37,0,0,1-.67,1.08c-.25.17-1-.19-1.41-.5a4.63,4.63,0,0,1-1.35-1.54c-.17-.35.12-.93.2-1.4a7.68,7.68,0,0,1,1.18.6C92.6,88.33,93.11,88.81,94.1,89.67Z"/><path d="M76.3,87.22,74.87,85.6,76,82.69C77.75,84.3,77.8,84.64,76.3,87.22Z"/><path d="M79.31,97.59l3.47.76a17.59,17.59,0,0,1-.52,2.21,1.29,1.29,0,0,1-1,0C80.61,99.74,80.13,98.87,79.31,97.59Z"/><path d="M41.92,97.13A9.5,9.5,0,0,1,44.45,97c.36.07.56.94.83,1.45-.46.2-1,.68-1.36.56a8.9,8.9,0,0,1-1.86-1.27Z"/><path d="M39.3,70.07a17.55,17.55,0,0,1-.7-2.67A3,3,0,0,1,39,65.9c.08-.14.81-.17.87-.05a2.69,2.69,0,0,1,.48,1.51A15.64,15.64,0,0,1,39.3,70.07Z"/><path d="M64,99.87l1.91,2c-.39.29-.88.88-1.14.8C63.72,102.32,63.06,101.61,64,99.87Z"/><path d="M80.74,74.34l2.32-1.29.55,2.9-.67.28Z"/><path d="M100.43,84.28a11,11,0,0,1-1.33-.89c-.54-.53-1-1.1-1.55-1.66.2-.15.52-.48.59-.44A14.6,14.6,0,0,1,100,82.74C100.2,82.92,100.18,83.32,100.43,84.28Z"/><path d="M53.18,88.69c.57-.18,1.42-.68,1.67-.47.49.41.64,1.22.94,1.86l-.58.3-1.87-1Z"/></svg>