<svg xmlns="http://www.w3.org/2000/svg" viewBox="0 0 150 150"><defs><style>.a{fill:#fff6c0;}.b{fill:#fff3b5;}.c{fill:#fff0a1;}.d{fill:#ffe771;}.e{fill:#ffe66b;}.f{fill:#ffe97a;}.g{fill:#ffef97;}.h{fill:#fff8cf;}.i{fill:#ffed90;}.j{fill:#fff0a0;}.k{fill:#fffbec;}</style></defs><title>icon</title><path class="a" d="M67.32,77.9h0l0,.07,0-.07m-40-11h0a6.85,6.85,0,0,0,.09,1,15.27,15.27,0,0,0,.88,3h0a15.27,15.27,0,0,1-.88-3h0a6.85,6.85,0,0,1-.09-1h0m1-2.16a.9.9,0,0,0-.34.18h0a1.68,1.68,0,0,0-.52.91h0a4,4,0,0,0-.14,1.07h0a4,4,0,0,1,.14-1.07,1.68,1.68,0,0,1,.52-.91.9.9,0,0,1,.34-.18h0m33.89-1.58h0c2,5.73,3.65,10.66,5,14.7h0c-1.35-3.95-3-8.74-4.9-14.29l-.14-.41h0m-7.48-.35h.07c.34.05.66.09,1,.11h0c-.31,0-.63-.06-1-.11h-.07m-24-.12-.26.38h0c-.16.23-.41.53-.64.82h0l0,.07h0l0-.07c.23-.29.48-.59.64-.82l.26-.38h0M30.37,61h0a3.84,3.84,0,0,0,.37,1.56h0A3.84,3.84,0,0,1,30.37,61m16.55-1.3h0l.08.05-.08-.05h0m-7.36-2.13h0a6.22,6.22,0,0,1,.68.1h0a6.22,6.22,0,0,0-.68-.1M36.2,56.8l-.36.05h0a6.19,6.19,0,0,0-.9.17h0l-.07,0a11.79,11.79,0,0,0-2.39.93h0l0,0-.13.08h0l.17-.1A12.28,12.28,0,0,1,34.93,57a7.66,7.66,0,0,1,.91-.17l.36-.05.1,0h0l-.1,0h0"/><path class="b" d="M36.36,56.8l-.06,0,2.3.8a.92.92,0,0,1,.57-.13l.39,0a15.11,15.11,0,0,0-3.2-.73"/><path class="b" d="M68,79.42l-.16-.29h0l0,0,.1.2,0,.05v0M36.3,56.83a8.06,8.06,0,0,1-1.11.38c-.38.13-.77.24-1.17.35a17.27,17.27,0,0,0-1.72.51,4.64,4.64,0,0,0-1.69,1.78,2.55,2.55,0,0,0-.24,1,6.17,6.17,0,0,0,.37,1.64.77.77,0,0,0,.07.16h0v0a.49.49,0,0,0,0,.11h0a4.69,4.69,0,0,1-1,1.16c-.37.45-.81.85-1.22.85h-.07l-.22.14a2.06,2.06,0,0,0-1,1.89A5.67,5.67,0,0,0,27.53,68c.26,1,.52,1.91.79,2.87.09.24.2.48.31.74l-.06-.14.06.14c-.11-.26-.22-.5-.31-.74.07.26.14.52.22.78.33,1.18.65,2.32.87,3.33a13.7,13.7,0,0,1,.36,2.67,3.5,3.5,0,0,1-.53,2,11.59,11.59,0,0,1-3.76,3.62,1.7,1.7,0,0,1-.74.1,47,47,0,0,1-6.18-.8,3.8,3.8,0,0,0-.63-.06c-.87,0-1.22.42-1.22,1a6.58,6.58,0,0,0,1.58,3.3c3.22,3.82,5.8,6.68,7.87,9.68a.69.69,0,0,1,.06.25c0,.54-1,.54-1,1.23.72,2.32,4.31,5.59,6.22,8.21,1.79,4.13,3.48,6.32,4.57,7.34a8.54,8.54,0,0,0,1.53,1.12s0,0,0,0,0,0,0,0c0,.29-.62.3-1.35.3H36c-.82,0-1.7,0-1.94.41a1.5,1.5,0,0,0,0,.22c0,1.18,1.82,2.85,3.63,4a59.37,59.37,0,0,1,6.65,4.92,3.84,3.84,0,0,1,1.36,2.15c.85-.3,2.28-.44,3-.67,1.39-.55.72-1.6,1.06-2.45a4.49,4.49,0,0,1,2-.54c.56,0,.75-.18.75-.4s-.55-.91-.92-1.43a.92.92,0,0,1-.3-.59c0-.59,1.08-.85,1.08-1.42a.55.55,0,0,0,0-.17c-.11-.56-1-1.4-1.83-2.18-.53-.55-1-1.06-1-1.37,0-.13.07-.23.26-.27h-.09c-.56,0-.84-.9-.93-1.67,0-.13,0-.27,0-.39,0-.39.08-.67.25-.67s.18.06.31.2c0,0,0,0,0,0a8.7,8.7,0,0,1,1.74.63c.55.3,1.4.7,1.66.9a87.5,87.5,0,0,0,8.2,4.65h0c.1,0,.16-.17.31-.33a1,1,0,0,1,.8-.33,3.54,3.54,0,0,1,1.24.29,41.64,41.64,0,0,0,4.18,1.7h.06c-.24-.21-1.68-1.12-1.93-1.35,0-.07-.88-.74-2.13-1.76s-2.89-2.44-4.47-4a40.37,40.37,0,0,1-4-4.38,6.33,6.33,0,0,1-1.18-2s0-.08.06-.08h0a17.42,17.42,0,0,1,4.6,2.81c4.15,3.36,6.24,4.45,9.74,7.19.93.73,2,1.7,2.93,2.44,2.55,2,5.51,4.29,6.11,4.68a12.76,12.76,0,0,0,1.9,1.26l0,0s-.08-.15-.25-.35h0l.43.13c-.69-.76-1.54-1.69-2.48-2.77-1.22-1.43-2.19-2.52-2.19-2.6h0s0,0,.12.07h0l-.63-.71-1.59-1.8c-1.2-1.38-2.59-3-3.39-4.2l-1.45-1.37,3,4.2a5.89,5.89,0,0,1,.81,1.4s0,.08-.07.08c-.27,0-1.36-.79-4-3l-2.22-1.56c-1.39-1-3.37-2.22-5.55-3.52-4.35-2.63-9.47-5.31-12.76-9L45.93,99c-.66-.8-1.6-2-2.63-3.34a6.72,6.72,0,0,1-.59-.91l-.47-.86c-.31-.58-.63-1.2-.94-1.81-.61-1.24-1.21-2.52-1.78-3.82a29.87,29.87,0,0,1-2.48-8,11.22,11.22,0,0,1-.1-1.5c0-1.89.53-3.44,1.85-4.13,0,0,.2,0,.25-.61,0-.07,0-.14,0-.23a13.88,13.88,0,0,0-.75-3.56h0a4.14,4.14,0,0,1,1.63-2.08,3.76,3.76,0,0,1,1.81-.46,5.24,5.24,0,0,1,.77.07,8.63,8.63,0,0,1,3.93,2.14l3.49,1.85c1,.52,2.09,1.09,3.26,1.66s2.27,1.08,3.34,1.48a9.17,9.17,0,0,0,3.11.8,1.82,1.82,0,0,0,.88-.19,24.92,24.92,0,0,0,2.43,2,4.47,4.47,0,0,0,2.17.94h0l.34-.21c.31-.19.49-.32.52-.32h0a.92.92,0,0,1-.86.53l-1,.65,0,0,.7-.2.93-.23.46-.1h0a2.42,2.42,0,0,1,.55.16c.21.06.4.13.6.2l.29.1h.06v-.07l0,0,.52,1,.21.27a3.3,3.3,0,0,0,.73.68c.61.47,1.65.91,2.73,1.53-.38-.27-.78-.57-1.18-.9a28.39,28.39,0,0,1-3.15-3.09l-.19-.22-.08-.2,0-.08v0h0l0,0L62.24,63.17l-.55-.2L61,62.69l-.42-.17a1.21,1.21,0,0,0-.33-.12l-.07,0a9.1,9.1,0,0,1-1.4.38,11.12,11.12,0,0,1-2,.18c-.3,0-.6,0-.93,0a9.45,9.45,0,0,1-3.33-.68,21.23,21.23,0,0,1-3.18-1.32h0c-.58-.28-1.17-.59-1.78-.94-1-.44-2-.84-3.09-1.22a21.79,21.79,0,0,0-2.26-.68,21.35,21.35,0,0,0-2.23-.42,2.81,2.81,0,0,0-.37-.15l-.39,0a.92.92,0,0,0-.57.13l-2.3-.8"/><path class="c" d="M67.31,77.88h0v0h0m-39-7h0c.09.24.2.48.31.74l-.06-.14-.25-.6M29.85,64h0a2,2,0,0,1-1.17.84h-.05c.41,0,.85-.4,1.22-.85h0m1-1.29v0h0v0h0m29.4-.28h0a1.21,1.21,0,0,1,.33.12l.42.17.73.28.55.2h0l-.55-.2h0L61,62.69h0l-.42-.17h0a1.21,1.21,0,0,0-.33-.12m0,0-.07,0h0a9.1,9.1,0,0,1-1.4.38h0a11.12,11.12,0,0,1-2,.18h0c-.3,0-.6,0-.93,0h0c.33,0,.63,0,.93,0a11.12,11.12,0,0,0,2-.18,9.1,9.1,0,0,0,1.4-.38l.07,0h0M49.29,60.94a21.23,21.23,0,0,0,3.18,1.32h0a21.23,21.23,0,0,1-3.18-1.32h0M47.51,60h0c.61.35,1.2.66,1.78.94h0c-.58-.28-1.17-.59-1.78-.94h0M32.3,58.07h0a4.64,4.64,0,0,0-1.69,1.78h0a2.55,2.55,0,0,0-.24,1h0a2.55,2.55,0,0,1,.24-1,4.64,4.64,0,0,1,1.69-1.78h0m4-1.24h0l2.3.8a.92.92,0,0,1,.57-.13l.39,0h0l-.39,0h0a.92.92,0,0,0-.57.13h0l-2.3-.8"/><path class="b" d="M32.3,58.07a3.45,3.45,0,0,0-1.84,1.78,2.82,2.82,0,0,0-.1.74c0,.09,0,.19,0,.29a2.51,2.51,0,0,1,.24-1,4.64,4.64,0,0,1,1.69-1.78"/><path class="b" d="M47.51,60c.61.35,1.2.66,1.78.94h0a21.23,21.23,0,0,0,3.18,1.32L51.82,62l-2.63-1.25c-.58-.26-1.13-.51-1.68-.74"/><path class="b" d="M30.74,62.52a.64.64,0,0,0,.06.18v0a.77.77,0,0,1-.07-.16m29.38-.47-.38.13-.76.25a10.62,10.62,0,0,1-3.08.51h-.1c.33,0,.63,0,.93,0a11.12,11.12,0,0,0,2-.18,9.1,9.1,0,0,0,1.4-.38l.07,0h0a1.21,1.21,0,0,1,.33.12l.42.17.73.28.55.2-.07-.2-.3-.14-1.17-.52-.58-.26"/><path class="b" d="M29.85,64a9.11,9.11,0,0,1-1.29.84h.07c.41,0,.85-.4,1.22-.85"/><path class="b" d="M47.85,81.87a2.43,2.43,0,0,0-1.47.42,1.84,1.84,0,0,0-.49.51l.74-.23a17.81,17.81,0,0,0,1.71-.67,3.91,3.91,0,0,0-.49,0m19.46-4h0v0"/><path class="b" d="M47.16,90a44.06,44.06,0,0,0,2.43,4.2h0l.76.86-.26-.36c-.15-.2-.27-.38-.37-.53l-.32-.49-.62-1c-.41-.65-.8-1.3-1.18-1.94-.15-.26-.29-.52-.44-.77m25.39-7.25a21.53,21.53,0,0,0,2.71,1.79c.18-.22.37-.46.55-.71,1.08-.29,1.85-.91,3.41-.91a9,9,0,0,1,2.5.41,65.06,65.06,0,0,1,12.85,5,3,3,0,0,1,1,.9,2.94,2.94,0,0,0-1.09-1,64.55,64.55,0,0,0-12.85-5,9.28,9.28,0,0,0-2.5-.4c-1.56,0-2.32.62-3.4.91a1.58,1.58,0,0,1-.45.06,5.82,5.82,0,0,1-2.75-1"/><path class="b" d="M60.22,97.05a2.61,2.61,0,0,0-.4,1.48,10,10,0,0,0,1.52,4.5,24.28,24.28,0,0,1-1-4.27c-.07-.57-.12-1.15-.14-1.71"/><path class="b" d="M65.64,109.73c0,.07.07.15.11.23q.56.45,1,.81c-.35-.32-.73-.67-1.16-1"/><path class="b" d="M68.22,110.5h0l0,0,0,0"/><path class="b" d="M45.24,128a2.36,2.36,0,0,1-.43.39,3.44,3.44,0,0,1,.46,0h0v-.12a.61.61,0,0,0,0-.23"/><path class="d" d="M95.59,89.28a1.86,1.86,0,0,1,.35.93.33.33,0,0,1,0,.15c-.47,1.6-3.55,1.41-5.3,2.33,0,.29-.38.57-.38.92a.59.59,0,0,0,0,.25,1.48,1.48,0,0,1,.16.66,2.25,2.25,0,0,1-.07.52A10.89,10.89,0,0,1,84.08,99c-2.33,1.35-3.91,2.9-6.67,3.65a7,7,0,0,0-1,.18l-.73.21c-.25.1-.53.23-.83.32a2.16,2.16,0,0,1-.68.12,2.87,2.87,0,0,1-1.58-.59,6.36,6.36,0,0,0-1.91-.67,2,2,0,0,0-.34,0c-1.1,0-1.77.8-2.09,2.41-.13.66-.57,1.52-.73,2.5a4.6,4.6,0,0,0-.08.84,5.05,5.05,0,0,0,.69,2.48l.06.1a5.14,5.14,0,0,1-.69-2.53,4.15,4.15,0,0,1,.07-.79c.16-1,.59-1.83.72-2.5.31-1.61,1-2.41,2.07-2.41l.38,0a6.32,6.32,0,0,1,1.86.67,3,3,0,0,0,1.6.6,2.08,2.08,0,0,0,.66-.12l.83-.31.24-.08.45-.13a9.48,9.48,0,0,1,1-.18c2.77-.74,4.37-2.29,6.72-3.65a11,11,0,0,0,6.32-3.94,3,3,0,0,0,.07-.52,1.51,1.51,0,0,0-.16-.67.42.42,0,0,1,0-.24c0-.35.34-.64.38-.92,1.75-.93,4.84-.74,5.31-2.35a.27.27,0,0,0,0-.16,2,2,0,0,0-.41-1"/><path class="d" d="M68.25,110.54a2.25,2.25,0,0,1,.44,1.08c0,.1,0,.18,0,.27a1.88,1.88,0,0,0,.42,1,.61.61,0,0,1,.07.1h0a1.89,1.89,0,0,1-.43-1c0-.09,0-.17,0-.26a2.38,2.38,0,0,0-.51-1.19"/><path class="e" d="M79.22,83c-1.56,0-2.33.62-3.41.91-.18.25-.37.49-.55.71a1.71,1.71,0,0,0,.23.13,6.87,6.87,0,0,0,2.78.9c.48,0,.81-.16.9-.54l1.49.12c.89.08,2.08.18,3.27.34,2.18.31,4.33.87,4.32,2.28a1.28,1.28,0,0,1,0,.38s.09.63.12,1.42c0,.21,0,.43,0,.65a7,7,0,0,1-.16,1.65s-.73.62-2,1.51a26.86,26.86,0,0,1-5,2.87,18.22,18.22,0,0,1-3.09,1,16.21,16.21,0,0,1-2.84.33c-.42,0-.82,0-1.18-.09a6,6,0,0,1-.8-.23,2.6,2.6,0,0,1-1.07-.68s-.51-.16-1.38-.34-2.09-.39-3.52-.62a18,18,0,0,0-2.55-.2c-1.79,0-3.47.35-4.36,1.35a1.44,1.44,0,0,0-.18.25c0,.56.07,1.14.14,1.71a24.28,24.28,0,0,0,1,4.27,42.62,42.62,0,0,0,3.67,5.4l.6,1.24,0,.06c.43.37.81.72,1.16,1l.63.44.28.39L69.16,113a.61.61,0,0,0-.07-.1,1.88,1.88,0,0,1-.42-1c0-.09,0-.17,0-.27a2.25,2.25,0,0,0-.44-1.08l0,0h0l-.06-.1a5.05,5.05,0,0,1-.69-2.48,4.6,4.6,0,0,1,.08-.84c.16-1,.6-1.84.73-2.5.32-1.61,1-2.41,2.09-2.41a2,2,0,0,1,.34,0,6.36,6.36,0,0,1,1.91.67,2.87,2.87,0,0,0,1.58.59,2.16,2.16,0,0,0,.68-.12c.3-.09.58-.22.83-.32l.73-.21a7,7,0,0,1,1-.18c2.76-.75,4.34-2.3,6.67-3.65A10.89,10.89,0,0,0,90.37,95a2.25,2.25,0,0,0,.07-.52,1.48,1.48,0,0,0-.16-.66.59.59,0,0,1,0-.25c0-.35.34-.63.38-.92,1.75-.92,4.83-.73,5.3-2.33a.33.33,0,0,0,0-.15,1.86,1.86,0,0,0-.35-.93,3,3,0,0,0-1-.9,65.06,65.06,0,0,0-12.85-5,9,9,0,0,0-2.5-.41"/><path class="f" d="M66.19,78.52h0l-.46.1-.93.23-.7.2c-1.13.71-2.61,1.63-4.09,2.47-2.24,1.3-4.29,2.4-6.21,2.4a4.75,4.75,0,0,1-3.31-1.37A6.88,6.88,0,0,0,49,82a4.06,4.06,0,0,0-.64-.11,17.81,17.81,0,0,1-1.71.67l-.74.23a3,3,0,0,0-.41,1.67,6.58,6.58,0,0,0,.15,1.38A17.32,17.32,0,0,0,47.16,90c.15.25.29.51.44.77.38.64.77,1.29,1.18,1.94l.62,1,.32.49c.1.15.22.33.37.53l.26.36,1.17,1.28c1.23,1.32,3,3.13,4.89,5,3.13,3.09,6.73,6.46,9.34,8.54,0-.08-.07-.16-.11-.23l0-.06-.6-1.24a42.62,42.62,0,0,1-3.67-5.4,10,10,0,0,1-1.52-4.5,2.54,2.54,0,0,1,.58-1.73c.89-1,2.57-1.35,4.36-1.35a18,18,0,0,1,2.55.2c1.43.23,2.64.4,3.52.62s1.38.34,1.38.34a2.6,2.6,0,0,0,1.07.68,6,6,0,0,0,.8.23c.36,0,.76.07,1.18.09a16.21,16.21,0,0,0,2.84-.33,18.22,18.22,0,0,0,3.09-1,26.86,26.86,0,0,0,5-2.87c1.24-.89,2-1.51,2-1.51a7,7,0,0,0,.16-1.65c0-.22,0-.44,0-.65,0-.79-.12-1.42-.12-1.42h0a1.28,1.28,0,0,0,0-.38c0-1.41-2.14-2-4.32-2.28-1.19-.16-2.38-.26-3.27-.34l-1.49-.12c-.09.38-.42.54-.9.54a6.87,6.87,0,0,1-2.78-.9,1.71,1.71,0,0,1-.23-.13,21.53,21.53,0,0,1-2.71-1.79l-.19-.14-.42-.25c-1.08-.62-2.12-1.06-2.73-1.53a3.3,3.3,0,0,1-.73-.68l-.21-.27-.52-1,0,0V79h-.06l-.29-.1c-.2-.07-.39-.14-.6-.2a2.42,2.42,0,0,0-.55-.16"/><path class="g" d="M41.74,67.67a3.76,3.76,0,0,0-1.81.46,4.14,4.14,0,0,0-1.63,2.08,13.88,13.88,0,0,1,.75,3.56c0,.09,0,.16,0,.23,0,.56-.25.61-.25.61-1.32.69-1.86,2.24-1.85,4.13a11.22,11.22,0,0,0,.1,1.5,29.87,29.87,0,0,0,2.48,8c.57,1.3,1.17,2.58,1.78,3.82.31.61.63,1.23.94,1.81l.47.86a6.72,6.72,0,0,0,.59.91c1,1.39,2,2.54,2.63,3.34L47,100.25c3.29,3.68,8.41,6.36,12.76,9,2.18,1.3,4.16,2.56,5.55,3.52l2.22,1.56c2.59,2.17,3.68,3,4,3,0,0,.07,0,.07-.08a5.89,5.89,0,0,0-.81-1.4l-3-4.2-.28-.39-.63-.44q-.49-.36-1-.81c-2.61-2.08-6.21-5.45-9.34-8.54-1.93-1.92-3.66-3.73-4.89-5l-1.17-1.28-.76-.86h0A44.06,44.06,0,0,1,47.16,90a17.32,17.32,0,0,1-1.53-4.18,6.58,6.58,0,0,1-.15-1.38,3,3,0,0,1,.41-1.67,1.84,1.84,0,0,1,.49-.51,2.43,2.43,0,0,1,1.47-.42,3.91,3.91,0,0,1,.49,0A4.06,4.06,0,0,1,49,82a6.88,6.88,0,0,1,1.48.55,4.75,4.75,0,0,0,3.31,1.37c1.92,0,4-1.1,6.21-2.4,1.48-.84,3-1.76,4.09-2.47l0,0,1-.65h0A4.47,4.47,0,0,1,63,77.45a24.92,24.92,0,0,1-2.43-2,1.82,1.82,0,0,1-.88.19,9.17,9.17,0,0,1-3.11-.8c-1.07-.4-2.18-.92-3.34-1.48s-2.28-1.14-3.26-1.66l-3.49-1.85a8.63,8.63,0,0,0-3.93-2.14,5.24,5.24,0,0,0-.77-.07"/><path class="g" d="M66,77.86s-.21.13-.52.32l-.34.21a.92.92,0,0,0,.86-.53h0"/><path class="h" d="M53.82,106.84s-.06,0-.06.08a6.33,6.33,0,0,0,1.18,2,40.37,40.37,0,0,0,4,4.38c1.58,1.51,3.23,2.92,4.47,4s2.09,1.69,2.13,1.76c.25.23,1.69,1.14,1.93,1.35h-.06a41.64,41.64,0,0,1-4.18-1.7,3.54,3.54,0,0,0-1.24-.29,1,1,0,0,0-.8.33c-.15.16-.21.33-.31.33h0a87.5,87.5,0,0,1-8.2-4.65c-.26-.2-1.11-.6-1.66-.9a8.7,8.7,0,0,0-1.74-.63s0,0,0,0c-.13-.14-.23-.2-.31-.2s-.25.28-.25.67c0,.12,0,.26,0,.39.09.77.37,1.67.93,1.67h.09c-.19,0-.26.14-.26.27,0,.31.46.82,1,1.37.78.78,1.72,1.62,1.83,2.18a.55.55,0,0,1,0,.17c0,.57-1.08.83-1.08,1.42a.92.92,0,0,0,.3.59c.37.52.92,1.07.92,1.43s-.19.37-.75.4a4.49,4.49,0,0,0-2,.54c-.34.85.33,1.9-1.06,2.45-1.12.35-3.71.48-3.72,1.23a.6.6,0,0,0,.18.37.51.51,0,0,1,.15.42v.12c0,.21,0,.39.43.49h0c.38-.17,1.17-.26,1.68-.52,1.15-.44,1.29-1.13,2.57-1.46,1.12-.38,2.54-.57,3.48-.94a2.11,2.11,0,0,0,1-.83,3.72,3.72,0,0,0,1.36-2.6,3.14,3.14,0,0,0-.08-.67c-.85-.47-1.09-.79-1.09-1.05s.42-.55.42-.83h0c.05-.14.46-.14.7-.23a.29.29,0,0,0,0-.09c0-.22-.2-.53-.2-.73s.07-.21.31-.21a2.07,2.07,0,0,1,.43.06c3.08.75,5.82,1.53,8.1,2.18.92.26,2.52.61,4,1.05s2.83.95,3.15,1a.91.91,0,0,0,.31.08c.06,0,.09,0,.08-.06s-.12-.23-.24-.38-.25-.3-.25-.38,0,0,.08,0h0l.7.47a.79.79,0,0,0-.1-.16l-1-.8h0a5.42,5.42,0,0,1,1.18.58c3.21,1.94,4.87,2.86,6.42,3.76a36.74,36.74,0,0,1,5.5,3.94c.59.48,1.37,1.16,1.6,1.37l-.74-.71c-1.59-1.5-3.87-3.8-5.53-5.57l-.66-.2c.17.2.25.31.25.35l0,0a12.76,12.76,0,0,1-1.9-1.26c-.6-.39-3.56-2.71-6.11-4.68-.93-.74-2-1.71-2.93-2.44-3.5-2.74-5.59-3.83-9.74-7.19a17.42,17.42,0,0,0-4.6-2.81h0"/><path class="h" d="M85.82,131.33h0l0,0-.07-.06"/><path class="a" d="M36.2,56.8l-.36.05a6,6,0,0,0-.91.17,12.28,12.28,0,0,0-2.46.95l-.17.1h0l.13-.08,0,0h0A11.79,11.79,0,0,1,34.86,57l.07,0h0a6.19,6.19,0,0,1,.9-.17h0l.36-.05h0l.1,0h0l-.1,0h0"/><path class="i" d="M32.43,58l-.13.08a4.64,4.64,0,0,0-1.69,1.78,4.64,4.64,0,0,1,1.69-1.78l.13-.08m2.43-1a11.79,11.79,0,0,0-2.39.93A11.79,11.79,0,0,1,34.86,57m1-.19a6.19,6.19,0,0,0-.9.17,6.19,6.19,0,0,1,.9-.17m.36-.05-.36.05.36-.05h0"/><path class="i" d="M39.17,57.5a.92.92,0,0,0-.57.13.92.92,0,0,1,.57-.13"/><path class="i" d="M30.61,59.85a2.51,2.51,0,0,0-.24,1V61h0v-.08a2.55,2.55,0,0,1,.24-1"/><path class="i" d="M40.28,57.63c.82.15,1.81.4,2.75.67-.94-.27-1.93-.52-2.75-.67"/><path class="i" d="M43,58.3c1,.28,2,.66,2.71.91C45,59,44,58.58,43,58.3"/><path class="i" d="M45.74,59.21l1.18.45-1.18-.45"/><path class="i" d="M47,59.71l.51.29c.61.35,1.2.66,1.78.94-.58-.28-1.17-.59-1.78-.94L47,59.71"/><path class="i" d="M49.29,60.94a21.23,21.23,0,0,0,3.18,1.32,16.5,16.5,0,0,0,2.29.56,19.31,19.31,0,0,1-5.47-1.88"/><path class="i" d="M62.41,63.59c1.9,5.55,3.55,10.34,4.9,14.29h0c-1.35-3.95-3-8.74-4.9-14.29m-3.67-.79a11.12,11.12,0,0,1-2,.18,11.12,11.12,0,0,0,2-.18m1.4-.38a9.1,9.1,0,0,1-1.4.38,9.1,9.1,0,0,0,1.4-.38"/><path class="a" d="M62.24,63.17h0l.14.41c1.9,5.55,3.55,10.34,4.9,14.29h0c-1.39-4-3.07-9-5-14.7h0"/><path class="i" d="M61.69,63l.55.2h0l-.55-.2m-1.15-.45.42.17-.42-.17"/><path class="i" d="M29.9,63.9l0,.07a2,2,0,0,1-1.17.84A2,2,0,0,0,29.85,64l0-.07m.64-.82c-.16.23-.41.53-.64.82.23-.29.48-.59.64-.82"/><path class="j" d="M29.85,64h0c-.37.45-.81.85-1.22.85h.05A2,2,0,0,0,29.85,64"/><path class="i" d="M27.49,65.84a4,4,0,0,0-.14,1.07h0a4,4,0,0,1,.14-1.07m.52-.91a1.68,1.68,0,0,0-.52.91,1.68,1.68,0,0,1,.52-.91m.34-.18a.9.9,0,0,0-.34.18.9.9,0,0,1,.34-.18h0"/><path class="i" d="M28.35,64.75a.68.68,0,0,0,.28.07h-.07a.83.83,0,0,1-.21-.06"/><path class="j" d="M28.32,70.9h0l.25.6.06.14c-.11-.26-.22-.5-.31-.74h0"/><path class="i" d="M27.44,68a15.27,15.27,0,0,0,.88,3l.25.6-.25-.6a15.27,15.27,0,0,1-.88-3m-.09-1a6.85,6.85,0,0,0,.09,1,6.85,6.85,0,0,1-.09-1m0,0h0"/><path class="k" d="M55.87,118.64c-.24,0-.31.09-.31.21s.19.51.2.73a.29.29,0,0,1,0,.09c-.24.09-.65.09-.7.23h0c0,.28-.42.5-.42.83s.24.58,1.09,1.05a3.14,3.14,0,0,1,.08.67,3.72,3.72,0,0,1-1.36,2.6,2.11,2.11,0,0,1-1,.83c-.94.37-2.36.56-3.48.94-1.28.33-1.42,1-2.57,1.46-.51.26-1.3.35-1.68.52a.28.28,0,0,1,0,.17c0,.06,0,.12,0,.18s0,.2.32.22a2.47,2.47,0,0,0,.54.05,12,12,0,0,0,1.4-.15l3.35-.82c1.1-.24,2.15-.47,3-.73,4-1.21,6.88-1.88,7.61-3a.06.06,0,0,0,0,0c0-.24-.86-.7-1.24-1.05-1.15-1,.23-1.16-2-2.6-.17-.1-.24-.18-.24-.24s.07-.09.18-.09A53.56,53.56,0,0,1,68.84,123c1.14.38,2.64.8,4,1.26s2.45.93,2.76,1a.91.91,0,0,0,.22,0,.07.07,0,0,0,.07,0A8,8,0,0,0,74.19,124l-1.76-1.23c-.5-.35-.87-.59-.87-.59h0c-.06,0-.08,0-.08,0s.12.23.25.38.24.3.24.38,0,.06-.08.06a.91.91,0,0,1-.31-.08c-.32-.08-1.68-.6-3.15-1s-3.08-.79-4-1.05c-2.28-.65-5-1.43-8.1-2.18a2.07,2.07,0,0,0-.43-.06"/><path d="M35.76,75.5l1.48-.84-1.12-2.58c2-3,3.08-3.5,6.29-3a10.3,10.3,0,0,0,2.37-.22l-1.06-2.57A43.6,43.6,0,0,1,49.49,62a8.86,8.86,0,0,1,5.12-1c1.55.21,2.48-.19,4-1.46L56,58.32c3.86-3.34,7.68-4.64,12.13-3.55a3.64,3.64,0,0,0,3.16-.61c2.7-1.77,5-1.47,7.42.7,2.85,2.52,2.79,2.45,5.75.22,9.22-6.91,18.5-13.71,28.88-18.85,1.68-.83,3.25-1.91,4.91-2.79,2-1.07,3.3-.78,4.72,1,1.93,2.37,2.05,3.51.39,5.45a11.74,11.74,0,0,1-2.44,2.34c-9.16,6-18.31,12-28,17.05a19.51,19.51,0,0,0-2.13,1.67,5.13,5.13,0,0,1-1.11.52l-3.54,1.42c1.08,1.87,2,3.46,2.92,5.09.63,1.15,1.14,2.37,1.74,3.55,1.29,2.51.62,4.7-1,6.84a18.11,18.11,0,0,0-1.92,3.41,30.39,30.39,0,0,1-7,10.49,7.14,7.14,0,0,0-1.68,2.26c-1.57,3.52-4.69,5.1-8,6.25-2.48.85-5.13,1.16-7.69,1.81-2.91.75-5.85,1.45-8.67,2.46A13.61,13.61,0,0,0,51,107.6a2.63,2.63,0,0,0-.54,1.83,42.42,42.42,0,0,0,.08,5.64c.46,4.12,1.07,8.23,1.62,12.34,0,.28.1.56.14.84.3,2.75-.36,4.27-2,4.7-1.9.47-4.9-1-5.52-3.08a15.38,15.38,0,0,1-.49-4.7c.07-3.19.46-6.39.44-9.58a19.35,19.35,0,0,0-1-4.65,4.83,4.83,0,0,0-2.91-3.23c-3.66-1.66-6.56-4.39-9.37-7.16a8.56,8.56,0,0,1-1.81-3.16c-2.12-5.84-3-11.75-1.52-18,.71-3,2.63-4.42,5.06-5.55C34.47,73.21,34.91,73.53,35.76,75.5Zm46.78,12-.32-.35c-.63.56-1.23,1.14-1.88,1.67-4,3.28-8.34,5.81-13.77,5.37a23.32,23.32,0,0,0-12,2.63c-4.5,2.14-8.79,1.72-13.08-.55a64.63,64.63,0,0,0-6.12-2.92c-1.45-.58-3-1.14-4.6.17a11.25,11.25,0,0,0,2.85,6.57A24.9,24.9,0,0,0,41.84,106a6,6,0,0,1,3.63,3.7,16.9,16.9,0,0,1,1.2,4.6c.11,3.27-.19,6.56-.23,9.84a22,22,0,0,0,.32,4.74,2.45,2.45,0,0,0,3.06,2.11c.93-1.4.46-2.8.3-4.18q-1-8.82-2-17.64c-.13-1.19,0-2.39,1-3.06A23.18,23.18,0,0,1,54.66,103c4.12-1.26,8.38-2.08,12.58-3.09,3-.73,6.07-1.66,8.25-4C78,93.24,80.21,90.31,82.54,87.5Zm-9.06,2.77c-1.51-3.1-2.78-6.33-5-9.08-1-1.25-1.9-2.58-2.81-3.89-1.83-2.62-3.61-5.27-5.48-7.86-1.27-1.76-2.61-3.46-4-5.12-.77-.93-1.67-2.06-3.05-1.67-2.73.75-5.4,1.73-6.76,4.74L63.51,91.91C69.18,92,70.69,91.78,73.48,90.27ZM59.73,58.2C63,63,66.11,67.79,69.36,72.47s6.73,9.46,10.16,14.27a11.59,11.59,0,0,0,4.77-4.41c-3.85-7-7.54-13.83-11.44-20.58-1.1-1.89-2.84-3.41-4.31-5.08a1.24,1.24,0,0,0-.77-.3C64.82,56.11,62,56.23,59.73,58.2ZM122.5,37.69c-1.21-2.9-1.81-3.12-4.32-1.76-2.73,1.47-5.51,2.86-8.24,4.34a111,111,0,0,0-15.79,10c.62,1.41,1.19,2.72,1.76,4l-.39.24c-1-1.07-1.91-2.13-2.94-3.28l-2.66,2.16,2.67,3.86c4.56-2.63,9.07-5.14,13.48-7.81,3.87-2.35,7.58-5,11.46-7.28A15.42,15.42,0,0,0,122.5,37.69Zm-84,34.78c4.72,7.72,9.31,15.25,14,22.93l5.27-2.6C54,87.09,50.51,81.62,46.86,76.25A25.14,25.14,0,0,0,43,71.85C41.16,70.22,40.39,70.41,38.5,72.47Zm46.74,7.16c4-2.11,5-4.53,3.56-8-2-4.78-5.2-8.78-8.39-12.77a18.86,18.86,0,0,0-3.72-3.41c-1.61-1.15-2.35-1-4.45.64,4,2.68,5.54,6.92,7.27,11.1S83.24,75.31,85.24,79.63ZM30.12,91.19c3.26-1.09,6.17-.08,9,1.59A44.39,44.39,0,0,0,44,95a9.45,9.45,0,0,0,1.81.35A65.74,65.74,0,0,0,41.06,89a26.87,26.87,0,0,1-4-6.56c-1.12-2.21-1.88-4.63-3.4-6.64C29.65,78.37,28.23,84.77,30.12,91.19ZM91.24,57.63c-.55-.81-1-1.52-1.48-2.17-1-1.33-1.07-1.32-2.81.35l2.33,3.38ZM59.43,92.79c1.93-1.44,1.63-2.31-1.22-5-.79.53-1,1.46-.22,1.8C59.35,90.2,59.45,91.26,59.43,92.79ZM84.3,57.52c1.81,2.78,1.81,2.78,3.35,2C86.17,56.77,86.17,56.77,84.3,57.52ZM59.89,65.64l2-1.44c-.72-1.56-1.54-1.79-2.56-.87S58.54,65,59.89,65.64Zm2.81,4c1.3,1.64,1.3,1.64,2.94.58C64.48,68.45,64.48,68.45,62.7,69.62ZM41.49,85.86l.32.38L44,84.8,42.4,82.1l-1.88,1.37,2.65.36ZM76,85.23c-1.12.89-2.14,1.57-1.16,3C77.23,87.29,77.23,87.29,76,85.23ZM47.06,93c1.67.28.48,3.75,3,2.67l-2-3.54ZM74,82.35l-.75.06c-.17.79-.33,1.59-.61,2.93L75.23,84Zm-10-15.44c-1-.49-1.47-1-1.78-.87a1.47,1.47,0,0,0-1.08,2.14Zm7.83,12.5c-.78.39-1.73.73-.89,1.8a1.44,1.44,0,0,0,1.39,0C73.24,80.4,72.49,79.91,71.89,79.41ZM68,72.53c-.78-.31-1.21-.63-1.61-.61s-.74.4-1.1.62c.29.38.51.9.9,1.09C66.41,73.72,66.9,73.24,68,72.53ZM56.47,85.06c-.21,1.31-.22,1.32.47,1.65.09,0,.29-.16.57-.32C57.16,85.93,56.81,85.5,56.47,85.06Zm10.65-9.27.51.43,1.19-1.13-.77-.64Zm1.81,2.31.42.46c.65-.24,1.4-.4,1-1.82ZM39.22,81.63c1.09.1,1.74-.25,1.54-1.5ZM44.67,87l-.37-.48-.9,1,.3.27Zm8.66-6.34c-.5,1.4-.12,1.69,1.17,1.47ZM84.26,60.16l-.22.35.86.57.24-.38Z"/></svg>