<svg xmlns="http://www.w3.org/2000/svg" viewBox="0 0 150 150"><defs><style>.a{fill:#edc1c5;}.b{fill:#e9b6bb;}.c{fill:#e2a3a9;}.d{fill:#d1747c;}.e{fill:#cf6e76;}.f{fill:#d67e84;}.g{fill:#d98990;}.h{fill:#df999f;}.i{fill:#f1d1d4;}.j{fill:#dd9399;}.k{fill:#e1a1a7;}.l{fill:#faeced;}</style></defs><title>icon</title><path class="a" d="M81.3,116.59a1,1,0,0,1,.11.18,9.43,9.43,0,0,0,2,1.33,14.32,14.32,0,0,0,2.56,1l.39.11.88.46c.6.3,1.32.64,2.12,1a24.67,24.67,0,0,0,2.91,1c.4.1.84.21,1.31.31h0c-.44-.09-.85-.19-1.23-.29l-.08,0a24.67,24.67,0,0,1-2.91-1c-.8-.31-1.52-.65-2.12-1h0l-.88-.46h0l-.39-.11a14.32,14.32,0,0,1-2.56-1h0a9.41,9.41,0,0,1-2-1.33h0a1,1,0,0,0-.11-.18h0M77,113.68h0c.18.1,1.18.67,2.17,1.32h0c-1-.65-2-1.22-2.17-1.32m-1.48-.19a3.66,3.66,0,0,0,1.1.21l.26,0h0l-.26,0a3.66,3.66,0,0,1-1.1-.21h0m-8.44-5.74,0,.06s1.94,1.73,4.17,3.32h0c-2.23-1.59-4.17-3.32-4.17-3.32l0-.06h0M61,100.32h0s2.58,3.48,4.13,5.07h0c-1.55-1.59-4.13-5.07-4.13-5.07h0m-4.82-6a21.21,21.21,0,0,1,2.2,2.16h0a21.21,21.21,0,0,0-2.2-2.16h0"/><path class="b" d="M59.08,43.72a2.15,2.15,0,0,1,.14.26l.19,0a5.3,5.3,0,0,0,.55.1c-.29-.12-.59-.25-.88-.4"/><path class="b" d="M75.63,44a9.48,9.48,0,0,0-2.09.23,45.9,45.9,0,0,1-7.85.95,16.49,16.49,0,0,1-3.36-.32c.7.59,1.18,1.41,1.82,2,1.42,1.05,3.56,1.25,5.47,2a7.21,7.21,0,0,1,1.86,1.61c.79,1.05,2.46,1,4,1.35,2,.22,3.44,2,5.25,2.83,2.35,1.13,5.17.86,6.63,2.76a.44.44,0,0,1-.12-.23s0,0,.06,0A10.12,10.12,0,0,1,90.07,59a10.2,10.2,0,0,1,2.23,2.45,0,0,0,0,1,0,0,.46.46,0,0,1-.18-.09.86.86,0,0,1,.1.45,1.56,1.56,0,0,1-.17.74c-.2.15-.41.49-.6.49h0a2.85,2.85,0,0,0-.49,0c-1.36,0-2.3,1.1-3.36,1.67,0,.1.81.94,1.54,2A6.67,6.67,0,0,1,90.43,70v0c-.06,1-.31,2-.31,2.91a3.57,3.57,0,0,0,.16,1.12c.22.27.88.16,1.11.45s.66.77,1.49,1.66A22.78,22.78,0,0,1,95.52,80a19.89,19.89,0,0,1,2.68,7.29.78.78,0,0,1,0,.29c-.33.8-1.13,1.75-1.76,1.75a.57.57,0,0,1-.22,0,2.35,2.35,0,0,0-.52,0c-1.49,0-2.38,1.26-3.79,1.64h-.09a1.71,1.71,0,0,1-.56-.14,1.51,1.51,0,0,0-.56-.15h-.09A5.54,5.54,0,0,0,88,92.06c2.06,1.15,4.21,2.32,5.94,3.11.51-.75,1.07-1.55,1.65-2.31a13.81,13.81,0,0,1,3-3.06,2.45,2.45,0,0,1,1.28-.45,1.65,1.65,0,0,1,1.36.82A28.74,28.74,0,0,1,103,93a50.54,50.54,0,0,1,3.46,7.76c.58,1.61,1.11,3.34,1.59,5.13l.18.67a5,5,0,0,1,.15.77c0,.17,0,.35,0,.57a8,8,0,0,1-.56,2.82,9.36,9.36,0,0,1-1.66,2.74,9.74,9.74,0,0,1-3.05,2.33,11,11,0,0,1-4.75,1.07,13.32,13.32,0,0,1-2-.16,16.36,16.36,0,0,1-3.84-1.13c-.5-.22-.95-.43-1.37-.65l-.6-.32-.3-.17-.16-.07c-.88-.37-1.74-.76-2.58-1.18a32.17,32.17,0,0,1-4.74-2.88s-1.21-1-4.73-1.29c0,0-7.37-3.32-8.3-7.59,0,0-5.21-9-9-11.2a10.19,10.19,0,0,0-2.55-4L57,85.59h0a3.55,3.55,0,0,1,1.27.71l1.62.92c-4.27-2.93-8-5.84-8.08-6.92,0,0-5.83-5.88-7.37-8.78a19.3,19.3,0,0,1,.93,6.28c0,.47,0,.92,0,1.37a49.65,49.65,0,0,0-.6,5,5.32,5.32,0,0,0,2.14,4.57c3,2.14,6.48,3.41,9.31,5.67a22.77,22.77,0,0,0-6.14-3.77h0a22.62,22.62,0,0,1,6.15,3.78,14.73,14.73,0,0,1,2.19,2.14,20,20,0,0,1,2,2.65h0l.09.15h0l.06.11h0l0,0v0l.08.14,0,.08.09.16A43.94,43.94,0,0,0,65,105.12a3.11,3.11,0,0,0,.18.27,5.9,5.9,0,0,0,.73.65h0l.07,0,1.14,1.66c1.43,1,2.81,2.27,4.21,3.38a17.57,17.57,0,0,0,4.23,2.36,5.65,5.65,0,0,0,1.36.19l.1,0h0l0,0h.08A21.44,21.44,0,0,1,79.19,115a11.28,11.28,0,0,1,2.11,1.6A11.88,11.88,0,0,0,86,119.08a3.74,3.74,0,0,1,.5.13l1,.5c.71.34,1.45.68,2.36,1a26.37,26.37,0,0,0,3.21,1.05l.5.13a21.44,21.44,0,0,0,3.16.39h0a21.29,21.29,0,0,1-3.15-.39,19.81,19.81,0,0,0,4.47.54h.14a16.52,16.52,0,0,0,7.08-1.61,15.26,15.26,0,0,0,3.3-2.15,15.5,15.5,0,0,0,2.56-2.8,14.42,14.42,0,0,0,1.49-2.73,14,14,0,0,0,.71-2.18,11.39,11.39,0,0,0,.3-2.45v-.23a3,3,0,0,0-.08-.59l-.1-.49-.17-1c-.11-.64-.2-1.31-.26-2a25.78,25.78,0,0,1-.15-3c0-.39,0-.79,0-1.19a62.57,62.57,0,0,1,1-9.57,17,17,0,0,1,1.47-3.28c.72-1.43,1.46-2.9,1.82-3.6a5.67,5.67,0,0,0,.53-2.52,13.82,13.82,0,0,0-2.18-6.8c-2.83-3.9-5.49-7.69-8.92-11.68-1-1.49-1.45-3.24-2.7-4.83-3.28-3.51-6.86-4.49-10.27-6.13a36.88,36.88,0,0,0-6.93-3.31,16.66,16.66,0,0,0-3.38-.83,4.44,4.44,0,0,0-.49,0,2.17,2.17,0,0,0-.58.06.76.76,0,0,1-.19.07s-.05,0-.1-.06c-1.19-.5-1.14-2-2.58-2.84A8.78,8.78,0,0,0,75.63,44"/><path class="b" d="M35.1,49.09c-.27,0-.48.08-.53.3a10.94,10.94,0,0,0-.35,2.91,21.9,21.9,0,0,0,1.17,6.47c1,3,3.66,5.27,6.14,7.89a12.68,12.68,0,0,1,2.66,4.13,13.93,13.93,0,0,0-.54-2.51l-2-1.61c-2.48-2.62-5.14-4.85-6.13-7.88a21.61,21.61,0,0,1-1.18-6.47,11.5,11.5,0,0,1,.35-2.92c0-.21.26-.3.53-.3l.19,0-.3,0"/><path class="b" d="M58.41,96.52c.13.15.25.31.38.48.71,1,1.37,2,2,2.9l-.09-.16,0-.08-.08-.14v0l0,0h0l-.06-.11h0l-.09-.15h0a19.29,19.29,0,0,0-2-2.64"/><path class="b" d="M86.42,97c0,.07,0,.14,0,.21a38,38,0,0,0,4.69,2,3.51,3.51,0,0,1,.33-.34L88,97.53,86.42,97"/><path class="b" d="M101.64,100.65l-.09.13h0l-.06.08h0l0-.06.1-.15"/><path class="b" d="M101,101.7l-.08.13-.15.25v0l.24-.4"/><path class="b" d="M100.68,102.17l0,.07a.75.75,0,0,1-.07.12,1.4,1.4,0,0,1,.1-.16v0"/><path class="b" d="M100.18,103.11c-.08.17-.16.33-.23.49s-.11.24-.16.36a8.51,8.51,0,0,0-.45,1.39l0,.15c0,.09,0,.18,0,.26a8.4,8.4,0,0,1,.85-2.52l.06-.13"/><path class="b" d="M80.78,103.18a22.07,22.07,0,0,0,3.08,2.43c.44.29.91.58,1.42.87-1.15-.87-3-2.24-4.5-3.3"/><path class="b" d="M65.16,105.39a24,24,0,0,0,1.87,2.3l.08.06L66,106.09l-.07,0h0a5.9,5.9,0,0,1-.73-.65"/><path class="c" d="M65.9,106.05l.07,0,1.14,1.66h0L66,106.09l0,0,0,0h0"/><polyline class="b" points="99.28 106.53 99.28 106.53 99.28 106.53 99.28 106.53 99.28 106.53"/><polyline class="b" points="99.29 106.55 99.29 106.56 99.29 106.56 99.29 106.56 99.29 106.55"/><polyline class="b" points="99.29 106.56 99.29 106.56 99.29 106.56 99.29 106.56"/><polyline class="b" points="99.29 106.56 99.29 106.56 99.29 106.56 99.29 106.56 99.29 106.56 99.29 106.56"/><path class="b" d="M100.25,107.46a.76.76,0,0,1,0,.15v.11A2.07,2.07,0,0,1,99,109.3a5.92,5.92,0,0,1-2.37.49h-.23l-.73,0a9.74,9.74,0,0,0,1.22.08,7.23,7.23,0,0,0,1-.07,4.21,4.21,0,0,0,1.66-.57,2,2,0,0,0,.93-1.28,2,2,0,0,0-.21-.47"/><path class="b" d="M71.32,111.13a12,12,0,0,0,4.23,2.36,17.57,17.57,0,0,1-4.23-2.36"/><path class="b" d="M77,113.66l-.1,0H77l0,0"/><path class="b" d="M79.2,115c.78.55,1.45,1.09,2.1,1.59A11.53,11.53,0,0,0,79.2,115"/><path class="d" d="M35.4,49.12a3.71,3.71,0,0,1,1.39.58c2.61,1.82,4,4.7,6.25,7.07.47.28,1.21,1,1.65,1.06a4.46,4.46,0,0,1,1.38.61,63.41,63.41,0,0,1,8.08,7.75c2.92,2.68,5.28,4.25,8.21,6.93,2.7,2.66,5.48,4.08,7.78,7.09C73.41,84,76,85.79,81.79,88.67c.89.44,2.2,1.17,3.71,2l0,0c-1.47-.82-2.75-1.54-3.61-2-5.78-2.87-8.39-4.69-11.66-8.45-2.3-3-5.08-4.44-7.78-7.09-2.93-2.68-5.29-4.26-8.21-6.94a62.66,62.66,0,0,0-8.08-7.74,4,4,0,0,0-1.38-.61c-.44-.07-1.18-.79-1.65-1.06-2.23-2.38-3.64-5.26-6.25-7.07a3.54,3.54,0,0,0-1.5-.6"/><path class="e" d="M35.21,49.1c-.27,0-.48.09-.53.3a11.5,11.5,0,0,0-.35,2.92,21.61,21.61,0,0,0,1.18,6.47c1,3,3.65,5.26,6.13,7.88l2,1.61a9.06,9.06,0,0,0-3.36-4.89s-3.95-6-3.94-7.74c0-.31.13-.49.41-.49a3.44,3.44,0,0,1,1.59.74s3.48,1.73,5.12,2.79c0,0,20.25,18.75,20.69,20.68A102.81,102.81,0,0,0,76.24,90.54a72.62,72.62,0,0,0,7.16,5v-.22h0a6.94,6.94,0,0,1,1.16-3.14,10.91,10.91,0,0,0,.94-1.45c-1.51-.85-2.82-1.58-3.71-2C76,85.79,73.41,84,70.14,80.21c-2.3-3-5.08-4.43-7.78-7.09-2.93-2.68-5.29-4.25-8.21-6.93a63.41,63.41,0,0,0-8.08-7.75,4.46,4.46,0,0,0-1.38-.61c-.44-.06-1.18-.78-1.65-1.06-2.23-2.37-3.64-5.25-6.25-7.07a3.71,3.71,0,0,0-1.39-.58l-.19,0"/><path class="e" d="M88,92.06a1.88,1.88,0,0,0-.32.54A10.58,10.58,0,0,0,86.42,97l1.53.57,3.48,1.31a4.81,4.81,0,0,1,.48-.42s.88-1.48,2.06-3.25c-1.73-.79-3.88-2-5.94-3.11"/><path class="e" d="M100.73,102.08l0,.09v0l0-.1v0"/><path class="e" d="M100.27,102.93l0,0c-.09.17-.17.34-.25.5a1.12,1.12,0,0,0,0,.13c.07-.16.15-.32.23-.49l.09-.18"/><path class="f" d="M36.76,55.16c-.28,0-.41.18-.41.49,0,1.77,3.94,7.74,3.94,7.74,3.16,2.1,3.8,6.47,3.9,7.4,0,.11,0,.17,0,.17a3.74,3.74,0,0,0,.25.56c1.54,2.9,7.37,8.78,7.37,8.78,0,1.08,3.81,4,8.08,6.92,5.83,3.35,18.47,10.93,19,13.87a15.05,15.05,0,0,0,1.89,2.09c1.52,1.06,3.35,2.43,4.5,3.3a25.4,25.4,0,0,0,5.06,2.15q1,.3,2.07.54c.36.08.73.15,1.1.21s.71.09,1.23.23l.88.16.73,0h.23A5.92,5.92,0,0,0,99,109.3a2.07,2.07,0,0,0,1.31-1.58v-.11a.76.76,0,0,0,0-.15,2.31,2.31,0,0,0-.42-.53,3.79,3.79,0,0,0-.56-.45l0,.06h0v0h0l0,0h0a1.84,1.84,0,0,0-.45-.33,6.6,6.6,0,0,0-1.28-.57,30.08,30.08,0,0,0-3.27-.9l-1.7-.38-2.14-.43-3.91-.77-1.19-.22,0,0-.14-.26-.27-.62-.57-1.25a23.38,23.38,0,0,1-1-2.48,3.26,3.26,0,0,1,0-.64c0-.68.15-1.47.15-2.14a72.62,72.62,0,0,1-7.16-5A102.81,102.81,0,0,1,64.16,79.37c-.44-1.93-20.69-20.68-20.69-20.68-1.64-1.06-5.12-2.79-5.12-2.79a3.44,3.44,0,0,0-1.59-.74"/><path class="f" d="M86.41,97.17v.31c0,.15,0,.29,0,.44h0l-.49,2.62-.26,1.35-.14.67-.06.34v0l.66.12.39.07.87.17,2.66.52-.19,0-.26,0h0v-.07h0c0-.17,0-.36,0-.54a7.67,7.67,0,0,1,.16-1.07,5.94,5.94,0,0,1,1.35-2.85,38,38,0,0,1-4.69-2"/><path class="f" d="M101.56,100.77h0l0,.07.06-.08"/><path class="f" d="M101.06,101.53l-.18.3.08-.13,0,0,.07-.13"/><path class="f" d="M100.64,102.24c-.23.4-.45.82-.64,1.23.08-.16.16-.33.25-.5l0,0,.3-.57a.75.75,0,0,0,.07-.12"/><path class="f" d="M99.34,105.35a3.23,3.23,0,0,0-.08.5s0-.06,0-.09,0-.17,0-.26l0-.15"/><path class="f" d="M99.26,105.86c0,.11,0,.2,0,.28h0c0-.08,0-.17,0-.28"/><path class="f" d="M98.88,106.22l0,0a1.84,1.84,0,0,1,.34.25v0h0v0l0-.06h0a2.92,2.92,0,0,0-.32-.21"/><path class="f" d="M99.18,106.41l0,0h0l0,0"/><path class="f" d="M99.2,106.43h0l0,0v0l0,0h0a.43.43,0,0,1,0,0l-.07,0"/><path class="f" d="M99.2,106.43l0,0h0v0l0,0h0"/><path class="f" d="M99.26,106.44v0h0v0"/><path class="f" d="M99.25,106.49v0l0,0,0,0"/><polyline class="f" points="99.26 106.51 99.26 106.51 99.26 106.51 99.26 106.51 99.26 106.51 99.26 106.51"/><path class="f" d="M99.26,106.51v0h0v0h0l0,0"/><polyline class="f" points="99.28 106.53 99.28 106.53 99.28 106.53 99.28 106.53 99.28 106.53 99.28 106.53"/><polyline class="g" points="99.28 106.53 99.28 106.53 99.28 106.53 99.28 106.53 99.28 106.53 99.28 106.53 99.28 106.53"/><polyline class="f" points="99.28 106.53 99.28 106.53 99.29 106.54 99.29 106.54 99.28 106.53 99.28 106.53 99.28 106.53"/><polyline class="f" points="99.29 106.54 99.29 106.54 99.29 106.54 99.29 106.54 99.29 106.54"/><path class="h" d="M57,85.59l1.27.71A3.55,3.55,0,0,0,57,85.59"/><path class="h" d="M99.26,105.86h0c0,.11,0,.2,0,.28h0c0-.08,0-.17,0-.28h0m1.8-4.33h0l-.07.13,0,0-.24.4,0,.1a1.4,1.4,0,0,0-.1.16l-.3.57-.09.18-.06.13a8.4,8.4,0,0,0-.85,2.52s0,.06,0,.09h0a3.23,3.23,0,0,1,.08-.5,8.51,8.51,0,0,1,.45-1.39c0-.12.1-.24.16-.36.2-.46.44-.91.69-1.36l0-.07,0-.09.15-.25.18-.3h0m.58-.88h0l-.1.15,0,.06h0l0-.07.09-.13h0m.8-1.11h0m0,0h0M58.29,86.3a10.19,10.19,0,0,1,2.55,4c3.74,2.19,9,11.2,9,11.2.93,4.27,8.3,7.59,8.3,7.59,3.52.29,4.73,1.29,4.73,1.29a32.17,32.17,0,0,0,4.74,2.88c.84.42,1.7.81,2.58,1.18l.16.07.3.17.6.32c.42.22.87.43,1.37.65a16.36,16.36,0,0,0,3.84,1.13,13.32,13.32,0,0,0,2,.16,11,11,0,0,0,4.75-1.07,9.74,9.74,0,0,0,3.05-2.33,9.36,9.36,0,0,0,1.66-2.74,8,8,0,0,0,.56-2.82c0-.22,0-.4,0-.57a5,5,0,0,0-.15-.77l-.18-.67c-.48-1.79-1-3.52-1.59-5.13A50.54,50.54,0,0,0,103,93a28.74,28.74,0,0,0-1.77-2.87,1.65,1.65,0,0,0-1.36-.82,2.45,2.45,0,0,0-1.28.45,13.81,13.81,0,0,0-3,3.06c-.58.76-1.14,1.56-1.65,2.31-1.18,1.77-2.06,3.25-2.06,3.25a4.81,4.81,0,0,0-.48.42,3.51,3.51,0,0,0-.33.34A5.94,5.94,0,0,0,89.75,102a7.67,7.67,0,0,0-.16,1.07c0,.18,0,.37,0,.54v.07h0l.26,0,.19,0,1.35.27h0l-1-.19,2.14.43,1.7.38a30.08,30.08,0,0,1,3.27.9,6.6,6.6,0,0,1,1.28.57,1.84,1.84,0,0,1,.45.33v0a1.84,1.84,0,0,0-.34-.25l0,0h0a2.92,2.92,0,0,1,.32.21l0,0h0l0,0,.07,0v0h0v0a3.79,3.79,0,0,1,.56.45,2.31,2.31,0,0,1,.42.53,2,2,0,0,1,.21.47h0a2,2,0,0,1-.93,1.28,4.21,4.21,0,0,1-1.66.57,7.23,7.23,0,0,1-1,.07,9.74,9.74,0,0,1-1.22-.08l-.88-.16c-.52-.14-.83-.15-1.23-.23s-.74-.13-1.1-.21q-1.08-.24-2.07-.54a25.4,25.4,0,0,1-5.06-2.15c-.51-.29-1-.58-1.42-.87a22.07,22.07,0,0,1-3.08-2.43,15.05,15.05,0,0,1-1.89-2.09c-.51-2.94-13.15-10.52-19-13.87l-1.62-.92"/><path class="h" d="M99.2,106.43h0m0,0h0"/><path class="h" d="M99.2,106.43h0m0,0,0,.06v0h0v0h0l0,0h0l0,0v0l0,0h0l0,0v0h0l0,0h0"/><path class="h" d="M99.29,106.54h0m0-.06h0m0,0a.43.43,0,0,0,0,0h0l0-.06h0"/><path class="h" d="M99.26,106.51h0m0,0h0"/><path class="h" d="M99.26,106.51h0m0,0,0,0v0h0"/><path class="h" d="M99.28,106.53h0m0,0h0l0,0h0l0,0"/><path class="h" d="M99.28,106.53h0m0,0h0"/><path class="h" d="M99.29,106.54h0m0,0v0h0v0h0"/><polyline class="h" points="99.29 106.54 99.29 106.54 99.29 106.54 99.29 106.54 99.29 106.54"/><polyline class="h" points="99.29 106.54 99.29 106.54 99.29 106.54 99.29 106.54"/><path class="h" d="M99.29,106.54h0"/><path class="i" d="M58.58,43.9a.52.52,0,0,0-.35.1c.44.29.75.76,1.34,1.13,1,.81,2.49,1.19,3.37,2,1,.82,1.76,1.72,2.89,2.5a13.44,13.44,0,0,0,2.31,1.15c2.91,1.4,5.7,2.61,8.55,3.7a2.15,2.15,0,0,1,.56-.07c1.29,0,2.52,1.15,3.57,1.73a8.11,8.11,0,0,1,1,1c1,.7,2.39,1,2.71,2.1.53,2.23,1,4.3,1.52,6.33.22.83,1,2.68,1.42,4.42a37.8,37.8,0,0,1,.72,3.92c.18,1.59,1.39,2.71,1.49,4.42h0s0,0,0,0a.9.9,0,0,1-.3-.06c.06.18.11.37.17.55s.43.49.58.59,0,.12,0,.18a2.31,2.31,0,0,1-.35,1.1,16.2,16.2,0,0,0-2.44,5.41,26.68,26.68,0,0,1-1.78,4.52l0,0a10.91,10.91,0,0,1-.94,1.45,6.94,6.94,0,0,0-1.16,3.14v.22c0,.67-.15,1.46-.15,2.14a3.26,3.26,0,0,0,0,.64,23.38,23.38,0,0,0,1,2.48l.57,1.25.27.62.14.26,0,0,1.19.22-.39-.07-.66-.12v0l.06-.34.14-.67.26-1.35.49-2.62c0-.15,0-.29,0-.44a10.39,10.39,0,0,1,1.3-4.88c.35-1,1.7-1.67,2.86-2h.09a1.51,1.51,0,0,1,.56.15,1.71,1.71,0,0,0,.56.14h.09c1.41-.38,2.3-1.64,3.79-1.64a2.35,2.35,0,0,1,.52,0,.57.57,0,0,0,.22,0c.63,0,1.43-1,1.76-1.75a.78.78,0,0,0,0-.29A19.89,19.89,0,0,0,95.52,80a22.78,22.78,0,0,0-2.64-3.74c-.83-.89-1.38-1.49-1.49-1.66s-.89-.18-1.11-.45A3.57,3.57,0,0,1,90.12,73c0-.9.25-1.86.31-2.91v0a6.67,6.67,0,0,0-1.35-3.34c-.73-1.09-1.55-1.93-1.54-2h0c1.06-.57,2-1.67,3.36-1.67a2.85,2.85,0,0,1,.49,0h0c.19,0,.4-.34.6-.49a1.56,1.56,0,0,0,.17-.74.86.86,0,0,0-.1-.45h0a.46.46,0,0,0,.18.09,0,0,0,0,0,0,0A10.2,10.2,0,0,0,90.07,59a10.12,10.12,0,0,0-2.76-1.92s-.06,0-.06,0a.44.44,0,0,0,.12.23h0c-1.46-1.9-4.28-1.63-6.63-2.76-1.81-.79-3.25-2.61-5.25-2.83-1.55-.31-3.22-.3-4-1.35a7.21,7.21,0,0,0-1.86-1.61c-1.91-.75-4.05-.95-5.47-2-.64-.55-1.12-1.37-1.82-2a2.82,2.82,0,0,0-1.89-.69h-.13l-.35,0a5.3,5.3,0,0,1-.55-.1l-.19,0a4.28,4.28,0,0,0-.64-.08"/><path class="i" d="M86.51,103.13l3.91.77,1,.19L90,103.82l-2.66-.52-.87-.17"/><path class="j" d="M50.07,90.59h0a22.77,22.77,0,0,1,6.14,3.77,21.21,21.21,0,0,1,2.2,2.16,19.29,19.29,0,0,1,2,2.64,20,20,0,0,0-2-2.65,21.91,21.91,0,0,0-2.19-2.14,22.62,22.62,0,0,0-6.15-3.78"/><path class="j" d="M60.72,99.74l.2.37a2.12,2.12,0,0,0-.11-.21l-.09-.16"/><path class="j" d="M61,100.32h0s2.58,3.48,4.13,5.07a5.9,5.9,0,0,0,.73.65,5.9,5.9,0,0,1-.73-.65c-1.55-1.59-4.13-5.07-4.13-5.07"/><path class="a" d="M81.3,116.59a1,1,0,0,1,.11.18h0a9.41,9.41,0,0,0,2,1.33h0a14.32,14.32,0,0,0,2.56,1l.39.11h0l.88.46h0c.6.3,1.32.64,2.12,1a24.67,24.67,0,0,0,2.91,1l.08,0c.38.1.79.2,1.22.29h0l-1.3-.31a24.67,24.67,0,0,1-2.91-1c-.8-.31-1.52-.65-2.12-1l-.88-.46-.39-.11a14.32,14.32,0,0,1-2.56-1,9.43,9.43,0,0,1-2-1.33,1,1,0,0,0-.11-.18h0"/><path class="j" d="M92.39,121.63c.38.1.79.2,1.23.29a21.29,21.29,0,0,0,3.15.39,21.44,21.44,0,0,1-3.16-.39c-.43-.09-.84-.19-1.22-.29m-6-2.4.88.46-.88-.46m-5-2.46a9.41,9.41,0,0,0,2,1.33,9.41,9.41,0,0,1-2-1.33"/><path class="k" d="M65.9,106.05h0l0,0,0,0,1.14,1.66h0L66,106.09l-.07,0"/><path class="j" d="M77,113.66h0l0,0c.18.1,1.18.67,2.17,1.32a11.53,11.53,0,0,1,2.1,1.59,1,1,0,0,1,.11.18,1,1,0,0,0-.11-.18,11.28,11.28,0,0,0-2.11-1.6c-1-.64-2-1.21-2.15-1.31l0,0"/><path class="l" d="M57.24,43.85c-.1,0-.16,0-.16.1h0a.19.19,0,0,0,0,.13c0,.31.37.67.57,1,1.43,1.39,2.57,2.87,4,4.11A54.21,54.21,0,0,0,72.8,56.35a2.92,2.92,0,0,0,1.36.23h.28a5.32,5.32,0,0,1,.69,0c1.78.14,3.38,1.6,5.32,1.6h.27a1.08,1.08,0,0,1,.76.44,36.65,36.65,0,0,1,3.24,8.63c.17.92.83,2.61,1.19,4.13a27.86,27.86,0,0,1,.58,3.25,5.57,5.57,0,0,0,.8,1.91,4.31,4.31,0,0,0,1,1.15,3.23,3.23,0,0,0,1,.58.9.9,0,0,0,.3.06s0,0,0,0h0c-.1-1.71-1.31-2.83-1.49-4.42A37.8,37.8,0,0,0,87.46,70c-.43-1.74-1.2-3.59-1.42-4.42-.55-2-1-4.1-1.52-6.33-.32-1.06-1.67-1.4-2.71-2.1a8.11,8.11,0,0,0-1-1c-1-.58-2.28-1.73-3.57-1.73a2.15,2.15,0,0,0-.56.07c-2.85-1.09-5.64-2.3-8.55-3.7a13.44,13.44,0,0,1-2.31-1.15C64.7,48.9,64,48,62.94,47.18c-.88-.86-2.33-1.24-3.37-2-.59-.37-.9-.84-1.34-1.13h0a3.56,3.56,0,0,1-.52-.07,2.56,2.56,0,0,0-.47-.08"/><path d="M21.1,50.27c4.23-2.76,7.73-5.14,11.34-7.33a14,14,0,0,1,4.49-1.76,23.09,23.09,0,0,0,7.54-3c3.86-2.36,8.27-2.33,12.6-2.73a60.73,60.73,0,0,1,24.81,3.24,51,51,0,0,1,17,9.23,73.4,73.4,0,0,1,9.34,9.49,43.34,43.34,0,0,1,10.16,22.26,5.19,5.19,0,0,0,.17.89c2.68,8.23,1.61,16.38-.52,24.51-.9,3.43-1.85,6.88-3.89,9.83-3,4.31-6,8.63-10.94,11.05a13.56,13.56,0,0,1-2.07.56,13,13,0,0,1,.51-1.3,5.16,5.16,0,0,1,.65-.75C92.87,116.61,83.37,109,74.19,101s-18-16.32-26.95-24.46S29.67,59.67,21.1,50.27ZM112,109.78c.33-.94.57-1.74,1.86-2.06s1.33-1.4.13-2.34c-.37-.29-.77-.55-1.14-.81,1.21-2.26,1.21-2.26,2.76-.63.55-2.2,1.2-4.32,1.6-6.48a42,42,0,0,0-.18-14.78,52.22,52.22,0,0,0-12.63-26.46c-5.32-6-11.83-10.28-19-13.84a44.46,44.46,0,0,0-12.14-3.66c-6.66-1.19-13.46-1.82-20.22-.65a28.05,28.05,0,0,0-8.3,2.59,35.48,35.48,0,0,1-8.08,3.27c-4.67,1.16-8.16,4.32-11.9,7-.11.08-.06.37-.1.62l3.5,2.91c5.06-2.38,9.87-4.68,14.72-6.9a43.65,43.65,0,0,1,20.29-4.25,78.45,78.45,0,0,1,22.19,4.18,35,35,0,0,1,11.41,6.73,18.37,18.37,0,0,1,3,2.92c2.16,2.93,4,6.08,6.24,9,4.62,6,5.36,13,5.4,20.07,0,3-.91,6-1.3,9a32,32,0,0,0,0,4L108,101.85l1.76,2.48-3.12.85.06.61,4.29.45L110,109.5l-4.2-1.93a2.64,2.64,0,0,0,.92,1.74c.57.55,2.3.11,1.77,1.48-.61,1.58-1.64.09-2.47-.09-1.36-.29-1.59-.06-1.53,1.86l2.48-.27c.34,1.31.64,2.43.93,3.54-1.08.68-2.07,1.31-3,1.89l-3.3-1.78c-.65,1.24-1.13,2.17-1.65,3.15,1-.22,1.8-.69,2.39-.49,1.72.57-.61,1.84.25,2.75a9.13,9.13,0,0,0,2.74-.32c.84-.37,2.22-1.35,2.12-1.77-.54-2.3,1.28-2.33,2.5-2.82-.38-2.73-.56-5.22,2.19-6.73l.92,2C113.38,110.18,113.38,110.18,112,109.78Zm-51.89-57h0c-1.57,1.27-2.63.12-3.58-1-.57.71-1,1.65-1.44,1.68a6.59,6.59,0,0,1-2.37-.8c-1.45,1.91-1.45,1.91-4,.95-.8,1.08-1.66,1.86-3.41,1.24-.83-.3-2.31.6-3.22,1.32s-.45,1.77,0,2.78-.19,1.63-1.43,1.73c-.33-1.18-.62-2.24-1-3.52a11,11,0,0,0-2.14,1.67,12.08,12.08,0,0,0-1,2.61L33,59.24c.36.89.4,1.44.69,1.64,1.36.94,2.78,1.78,4.25,2.71-.74,2,1.56,2.52,2.31,3.89,1.06,1.92,3.08,1.38,4.78,1.83-.06.84-.11,1.56-.18,2.44,1.21,0,2-2,2.91-.55.31.49-.23,1.52-.38,2.33l2.8,3,2.43-.64c-.1,1.18-.18,2-.27,3,14.18,11.84,27.42,24.92,42.58,36.58,2.21-5.09,4.36-9.74,6.26-14.5a30.68,30.68,0,0,0,2.27-7.82A81.56,81.56,0,0,0,103.79,81a24.11,24.11,0,0,0-5.2-14.3,47.78,47.78,0,0,1-3-4.2A16,16,0,0,0,87,55.69c-3.63-1.22-7.39-2-11.09-3.06-4.84-1.32-9.83-.84-14.75-1.17C60.25,51.41,59.42,51.55,60.14,52.79Zm38.39,65.28c.31-.64.56-1.07.75-1.53,2-4.75,3.84-9.56,5.94-14.26A41.64,41.64,0,0,0,109,81.42a27.41,27.41,0,0,0-6.73-16.51A45.93,45.93,0,0,1,99.41,61c-3.9-5.39-8.8-9.53-15.27-11.35-8.46-2.37-17-4.45-25.92-3.57a48.8,48.8,0,0,0-12,2.84c-3.6,1.32-7.11,2.91-10.59,4.52a37.75,37.75,0,0,0-4.9,3c-.22.14-.08.84-.12,1.54,1.87-.65,3.51-1.11,5.06-1.78a113.38,113.38,0,0,1,16.52-5.88C58,48.79,63.78,49,69.6,49.21c5.06.16,9.92,1.69,14.76,3.09,6.46,1.87,11.76,5.25,14.91,11.45a11.64,11.64,0,0,0,1.41,2,23.74,23.74,0,0,1,4.77,10.69A48.12,48.12,0,0,1,102,105.67c-1.45,3.22-3.13,6.33-4.75,9.47C96.55,116.49,96.74,117.43,98.53,118.07Zm7.86-2.78c-1.75-1-1.75-1-2.43.24Z"/><path d="M51,59.9c-2.27-.65-1.93-1.75-1.38-2.76a1.37,1.37,0,0,1,1.29-.2C52.58,58,50.77,58.71,51,59.9Z"/><path d="M45.41,64.63c-.59-.08-1.31,0-1.74-.27a2.27,2.27,0,0,1-.61-1.52c0-.22.57-.75.77-.7a2.32,2.32,0,0,1,1.4.81c.25.46.08,1.15.1,1.74Z"/><path d="M44,59.87c.63-.46,1-.91,1.28-.88s.77.43,1.16.67c-.25.37-.51,1.05-.76,1.05C45.22,60.7,44.78,60.29,44,59.87Z"/><path d="M41.08,66.36c1-.84,1.75-.6,2.19.35.12.27-.24,1.08-.46,1.11C41.74,68,41.35,67.24,41.08,66.36Z"/><path d="M49.54,61.88c.49.54,1,.89,1,1.2a1.26,1.26,0,0,1-.9.87c-.32,0-.83-.5-.91-.86S49.16,62.42,49.54,61.88Z"/><path d="M63.27,63.49c-.63.46-1.13,1-1.32.93a2.85,2.85,0,0,1-1.06-1.16c0-.08.54-.76.72-.71A8.59,8.59,0,0,1,63.27,63.49Z"/><path d="M61.41,56.66c.45.54.94.87,1,1.24s-.44.71-.69,1.07c-.39-.33-.92-.6-1.11-1C60.49,57.74,61,57.25,61.41,56.66Z"/><path d="M73.1,53.75c1.43.54,1.54,1.34.9,2.59C72.49,55.84,72.51,55,73.1,53.75Z"/><path d="M53.89,59l2,1.31c-1.65.95-2.19.44-2.49-.57Z"/><path d="M67.14,54.48c.64-.29,1.17-.71,1.4-.58.43.23.68.79,1,1.21-.37.24-.85.77-1.09.67C68,55.6,67.69,55.07,67.14,54.48Z"/><path d="M60.14,52.79l2.09,1.6c-.88.77-1.73,1-2.38.21-.26-.32.17-1.2.29-1.82Z"/><path d="M56.71,54.09a9.83,9.83,0,0,1,1.3,1.3c.07.09-.47.81-.61.78A7.23,7.23,0,0,1,56,55.44C56.16,55.07,56.37,54.7,56.71,54.09Z"/><path d="M45.33,64.69a1.47,1.47,0,0,1,.29,0c1,0,1.61.31,1.35,1.39a1,1,0,0,1-.89.51c-1.17-.25-1.45-.92-.68-1.91Z"/><path d="M46.41,57.14c-1,.77-1.62.41-2-.57a.8.8,0,0,1,.34-.74C45.87,55.46,46.34,56,46.41,57.14Z"/><path d="M47.75,66.75a7.08,7.08,0,0,1,1.13,1.38c0,.12-.59.54-.91.83A6.09,6.09,0,0,1,47,67.73C47,67.59,47.39,67.22,47.75,66.75Z"/><path d="M66.05,56.62c.5.46,1,.72,1.06,1.05s-.43.65-.68,1a4.56,4.56,0,0,1-1-.95C65.39,57.55,65.76,57.14,66.05,56.62Z"/><path d="M40.07,61.84c.51.45.93.65,1,.93s-.29.58-.46.88c-.3-.19-.72-.31-.85-.58S39.89,62.46,40.07,61.84Z"/><path d="M114.86,83.31l-2.45-2.5C114.93,80.59,114.93,80.59,114.86,83.31Z"/><path d="M115.68,93.34c-.78-.79-1-1.54-.19-2.31a1,1,0,0,1,1,.13C117,92.07,116.73,92.79,115.68,93.34Z"/><path d="M103,119.44c.93-.54,1.39-1,1.68-.93.47.14.82.65,1.23,1-.4.36-.81,1-1.21,1S103.78,120,103,119.44Z"/><path d="M112,99.72c.31.69.67,1.13.62,1.5s-.57.87-.87.86a1.43,1.43,0,0,1-1-.82C110.68,101.07,111.21,100.65,112,99.72Z"/><path d="M116,85.68l-1.14,1.08c-.3-.33-.83-.66-.84-1s.49-.7.77-1.06Z"/><path d="M112.29,98c.59-.41,1-.91,1.3-.85a1.35,1.35,0,0,1,.87,1c0,.29-.57.86-.9.86S112.86,98.44,112.29,98Z"/><path d="M114.18,95.79c-1.72,0-2.16-.53-1.93-1.48,0-.2.86-.46.91-.39A13.2,13.2,0,0,1,114.18,95.79Z"/></svg>